<?xml version="1.0" encoding="utf-8"?>
<!-- Generator: Adobe Illustrator 24.0.0, SVG Export Plug-In . SVG Version: 6.00 Build 0)  -->
<svg version="1.1" xmlns="http://www.w3.org/2000/svg" xmlns:xlink="http://www.w3.org/1999/xlink" x="0px" y="0px"
	 viewBox="0 0 1000 1000" style="enable-background:new 0 0 1000 1000;" xml:space="preserve" width="500" height="500">
<g>
	<g>
		<g>
			<path d="M116.83,779.73c-0.77,0-5.03,3.68-9.67,8.12C95.94,798.88,85.11,807.97,77.18,813c-9.67,6.19-9.87,6.19-9.87,1.16
				c0-11.61,12.96-37.91,33.66-68.28c17.8-25.92,42.36-57.26,73.31-93.04c11.22-12.96,21.66-25.15,23.02-27.08l2.52-3.68l-2.32-1.74
				c-4.45-3.48-8.12-2.52-19.92,5.42c-24.37,16.44-43.72,35.01-52.62,50.1c-1.93,3.29-2.9,5.8-2.52,7.16
				c0.58,2.32,4.06,4.26,8.13,4.26h2.9l-5.42,6.96c-40.43,51.45-64.61,90.53-69.83,112.78c-1.93,8.12-0.39,13.15,4.84,15.28
				c9.48,3.87,26.11-5.42,49.13-27.66c6-5.61,10.83-10.83,10.83-11.61C123.02,781.66,119.34,779.73,116.83,779.73z M134.43,678.56
				c5.22-10.25,23.21-28.63,40.82-41.78c2.51-1.74-0.58,2.13-8.9,11.8c-6.96,8.12-16.83,19.54-21.66,25.34
				c-5.42,6.38-9.67,10.64-10.64,10.64C131.72,684.56,131.92,683.4,134.43,678.56z"/>
			<path d="M669.65,707.15c-0.19,0.58,0.58,1.74,1.35,2.32c3.09,2.32,6.38,1.74,11.8-1.55c2.9-1.74,5.22-3.67,5.22-4.06
				c0.19-1.16-2.9-2.9-5.42-3.29C680.1,700.18,669.84,705.41,669.65,707.15z"/>
			<path d="M941.8,733.3c-2.13-2.13-7.35-1.74-10.83,0.77c-4.25,3.1-23.02,11.61-32.5,14.9c-10.64,3.67-22.44,6.19-26.69,5.42
				c-3.87-0.77-5.61-3.87-4.64-8.51c0.97-5.03,1.55-5.42,5.42-4.26c2.71,0.97,4.06,0.77,6.58-0.19c6.96-2.9,15.47-15.86,13.15-20.12
				c-1.55-2.9-7.35-5.22-11.22-4.45c-5.56,0.98-13.05,7.51-18.4,15.7c-2.01,0.28-10.78,4.21-20.48,8.87
				c-19.15,9.48-31.34,13.54-40.62,13.93c-4.45,0.19-5.61-0.19-6.77-1.74c-2.71-3.87-0.97-15.86,4.26-27.27
				c2.13-4.84,3.48-6.38,8.12-9.48c14.12-9.67,52.62-52.04,66.93-73.51c6.19-9.29,6.96-12.19,4.06-15.28
				c-4.84-5.22-12.77-3.68-22.83,4.26c-14.51,11.41-41.01,46.04-57.26,74.86c-2.71,4.84-6.19,10.06-7.54,11.22
				c-1.35,1.35-1.93,2.32-1.35,2.52c0.77,0.39,0,3.48-2.13,9.48c-0.32,0.9-0.61,1.73-0.87,2.51c-4.86-1.31-11.82-1.06-22.14,0.59
				c-4.84,0.77-9.29,1.35-9.67,1.35c-0.39,0-0.58-1.55-0.19-3.48c0.39-2.9,0.19-4.06-1.93-6.58c-2.13-2.52-3.29-3.1-6.77-3.1
				c-2.32,0-5.42,0.58-6.77,1.35c-3.67,1.93-12.19,11.03-19.34,20.5c-3.48,4.64-6.19,8.32-6.19,7.93c0-1.35,8.51-22.44,12.57-31.14
				c6.58-14.12,15.67-29.02,17.99-30.18c1.16-0.58,3.29-2.9,4.64-5.42l2.71-4.45l-2.32-1.74c-3.29-2.52-6.96-2.32-9.86,0.77
				c-6.88,7.43-19.22,30.68-28.15,51.72c-0.16,0.04-0.31,0.08-0.47,0.13c-16.05,4.64-34.43,24.95-41.78,24.57
				c-5.42-0.19-5.8-2.13-2.9-9.48c1.35-3.29,4.26-9.28,6.58-13.35c5.03-8.51,4.84-10.06-1.16-10.83c-3.09-0.39-3.68,0-5.03,2.32
				c-0.77,1.55-2.71,3.87-4.26,5.22c-0.95,0.83-1.83,2.11-2.41,3.32c-1.3-0.24-2.97-0.17-5.71,0.16
				c-19.73,2.13-46.23,6.96-57.84,10.64l-5.8,1.74l-1.55-4.84c-0.77-2.71-1.55-7.16-1.55-10.06c0-4.64,0.19-5.42,2.13-5.61
				c2.52-0.39,7.35-6.58,9.67-12.38l1.74-4.45l-2.13-1.74c-3.48-2.9-6.38-2.32-11.41,2.52c-7.63,7.01-10.42,14.4-9.09,23.94
				c-1.23-0.14-2.82-0.04-5.21,0.24c-19.73,2.13-46.23,6.96-57.84,10.64l-5.8,1.74l-1.55-4.84c-0.77-2.71-1.55-7.16-1.55-10.06
				c0-4.64,0.19-5.42,2.13-5.61c2.52-0.39,7.35-6.58,9.67-12.38l1.74-4.45l-2.13-1.74c-3.48-2.9-6.38-2.32-11.41,2.52
				c-7.68,7.07-10.47,14.51-9.07,24.15c-2.46,0.1-6.2,0.87-12.4,2.35c-16.44,4.06-31.53,3.48-39.65-1.55
				c-3.1-1.93-2.9-1.93-1.55-4.64c2.32-4.64,1.74-8.9-1.55-11.61c-1.55-1.35-3.67-2.51-4.64-2.51c-0.97,0-1.93-0.58-1.93-1.16
				c0-2.13-5.22-4.64-8.32-4.06c-5.2,1.14-13.23,12.18-18.41,23.41c-2.19-0.74-5.09-1.42-8.47-1.94
				c-7.35-1.16-20.12-0.19-30.18,1.93c-2.13,0.39-3.87,0.77-4.06,0.58c-0.19-0.19,0.58-2.13,1.55-4.06
				c3.48-6.77,3.48-9.28,0.39-12.38c-5.42-5.42-13.93-4.64-28.44,2.32c-6.96,3.29-8.51,3.87-8.13,2.52
				c1.35-4.26,0.97-10.45-0.77-12.38c-2.9-3.1-8.32-2.71-11.41,0.97c-3.09,3.67-2.9,5.42,0.39,6.77c1.55,0.58,2.51,1.55,2.32,2.13
				c-2.37,9.05-2.72,10.71-7.54,15c-0.7-0.03-1.37-0.07-1.93-0.11c-10.25,1.16-34.82,20.31-43.72,5.42
				c-0.58-1.93-0.97-4.06-0.97-5.03s-1.16-2.51-2.52-3.87c-4.06-3.87-8.9-3.29-21.86,2.32c-11.41,5.03-24.95,10.25-26.5,10.25
				c-1.35,0-1.16-3.68,0.97-11.03c0.97-3.68,1.93-7.74,1.93-9.09c0-5.42-8.9-6.96-17.22-2.71c-5.03,2.51-18.38,11.03-28.82,18.57
				c-3.29,2.32-5.8,4.06-5.8,3.67c0-0.58,16.64-25.34,19.92-29.4c1.74-2.13,1.74-2.32,0.19-3.48c-2.51-1.93-7.54-1.35-10.64,0.77
				c-3.09,2.13-6.58,7.35-6.58,9.67c0,0.77-3.48,6.58-7.54,12.57c-11.03,16.44-12.19,19.54-8.7,21.66
				c5.03,2.9,10.06,0.58,26.5-11.22c16.44-11.8,27.66-18.96,28.05-17.8c0.19,0.39-0.39,2.9-1.16,5.61
				c-2.52,8.7-1.74,12.96,3.29,15.48c6,3.09,12.77,1.55,33.27-7.16c13.35-5.8,14.7-6,14.7-1.74c0,2.9,3.87,7.16,8.12,9.28
				c3.68,1.74,6.96,2.9,10.64,3.1c6.47,0.29,14.19-2,27.38-8.13c-23.69,20.43-40.82,43.44-46.93,63.26
				c-3.48,11.03-2.52,16.64,3.09,18.96c3.68,1.55,4.06,1.55,8.32,0c4.84-1.74,9.28-5.42,15.28-12.57
				c14.12-16.83,28.24-41.4,38.3-66.16c5.22-12.77,6-13.35,19.92-20.5c9.29-4.84,15.67-7.35,16.83-6.58
				c1.16,0.77-0.97,7.16-4.45,12.77c-2.9,4.84-3.68,5.61-8.51,6.96c-6.19,1.74-15.28,6.19-19.73,9.48
				c-3.48,2.71-6.96,7.54-6.96,10.25c0,3.1,3.48,5.42,7.93,5.42c6.77,0,14.12-4.45,24.37-14.51l9.09-9.09l7.93-1.55
				c15.47-2.9,24.76-3.68,31.72-2.52c2.2,0.38,4.05,0.64,5.59,0.82c-1.9,4.69-3.2,9.24-3.47,12.92c-0.39,5.42-0.19,6.38,1.74,8.12
				c1.16,1.16,3.09,2.13,4.06,2.32c1.93,0.39,8.51-1.16,11.41-2.71c3.1-1.74,12.77-11.8,15.67-16.44c2.71-4.26,2.9-4.45,5.42-3.09
				c1.35,0.77,5.03,1.93,8.13,2.71c12.77,3.1,24.18,2.71,42.94-1.74c2.08-0.48,3.72-0.87,5.03-1.2c0.28,1.08,0.59,2.18,0.96,3.33
				l2.13,7.16l-8.32,4.26c-13.35,6.96-22.44,15.09-22.44,19.73c0,1.74,2.71,4.26,5.22,4.84c4.45,1.16,16.25-2.13,23.6-6.38
				c7.74-4.45,10.83-9.28,11.99-18.18c0.39-3.48,31.53-10.64,60.55-14.12c3.16-0.37,5.52-0.69,7.25-1.02
				c0.3,1.21,0.64,2.44,1.06,3.72l2.13,7.16l-8.32,4.26c-13.35,6.96-22.44,15.09-22.44,19.73c0,1.74,2.71,4.26,5.22,4.84
				c4.45,1.16,16.25-2.13,23.6-6.38c7.74-4.45,10.83-9.28,11.99-18.18c0.39-3.48,31.53-10.64,60.55-14.12
				c2.25-0.26,4.09-0.5,5.6-0.73c-0.47,1.7-1.14,3.78-1.74,5.57c-2.52,6.58-1.93,10.64,1.93,13.93c6,5.22,14.31,9.67,47.78-17.02
				c0.48-0.38,0.96-0.71,1.46-1.03c-2.19,5.59-4.04,10.84-5.33,15.34c-2.71,9.48-2.52,12.38,0.77,13.93
				c2.71,1.35,3.48,1.35,7.16,0.19c2.32-0.77,5.22-4.26,12.38-13.93c11.22-15.28,19.54-25.34,20.89-25.34
				c0.77,0,0.77,1.16,0.39,3.48c-0.39,1.93-0.77,3.48-0.77,3.48c-1.16,0-9.86,5.03-10.45,6.19c-1.55,2.51,0.19,6.19,3.29,7.54
				c4.84,1.94,9.29,0.19,13.35-5.22l3.48-4.64l11.03-1.74c6.19-0.97,14.7-1.55,18.96-1.35c0.85,0.02,1.62,0.03,2.34,0.02
				c-0.81,3.22-0.93,5.53-0.8,8.88c0.39,8.51,3.87,11.99,13.35,13.73c7.35,1.35,21.08-1.16,34.63-6.38
				c5.45-2.13,17.65-7.9,26.29-12.26c-2.73,8.75,1.68,15.28,12.2,17.49c11.41,2.32,35.4-4.06,58.8-15.67
				c4.64-2.32,9.48-5.03,11.03-6C942.77,735.05,943.16,734.66,941.8,733.3z M871.97,735.05c2.32-3.87,9.48-11.8,10.06-11.22
				c0.97,0.97-2.52,6.58-6.19,10.25C871.39,738.53,869.65,739.11,871.97,735.05z M812.79,700.81c4.45-8.71,29.98-43.72,39.66-54.36
				c6-6.58,16.25-15.47,17.02-14.7c1.74,1.74-15.86,25.15-31.92,43.14C825.55,688.23,811.82,702.55,812.79,700.81z M303.88,764.64
				c-9.29,18.18-22.05,38.11-30.76,47.59c-5.8,6.38-7.54,7.54-7.54,4.84c0-7.35,10.25-28.82,19.54-41.2
				c6.77-9.09,25.73-28.82,26.5-28.05C312.01,748.01,308.33,755.74,303.88,764.64z M337.73,751.49c-2.51,2.32-5.03,4.26-5.61,4.26
				c-1.55,0,3.68-4.84,7.16-6.77C341.99,747.43,341.8,747.81,337.73,751.49z M428.84,735.63c-1.74,2.9-5.22,7.35-7.54,10.06
				c-2.32,2.71-5.22,5.61-6.58,6.38c-2.13,1.35-2.32,1.35-2.32-0.39c0-6.77,12.57-31.92,15.86-31.92c0.77,0,1.16,1.35,1.16,3.1
				s0.58,4.06,1.35,5.42C431.93,730.4,431.93,730.79,428.84,735.63z M489.38,767.74c-2.13,1.16-5.03,2.71-6.38,3.29
				c-2.52,0.97-2.71,0.97-1.74-0.77c1.93-3.48,18.96-15.47,18.96-13.35C500.21,758.65,493.44,765.42,489.38,767.74z M570.42,767.74
				c-2.13,1.16-5.03,2.71-6.38,3.29c-2.52,0.97-2.71,0.97-1.74-0.77c1.93-3.48,18.96-15.47,18.96-13.35
				C581.26,758.65,574.49,765.42,570.42,767.74z"/>
			<path d="M249.56,327.87c1.45-0.24,4.12-2.42,6.05-4.36c4.6-4.84,3.15-7.51-4.6-7.99c-5.33-0.24-5.81-0.24-13.56,7.75
				c-20.34,20.58-53.99,70.94-62.95,93.94c-4.12,10.65-4.12,14.29-0.97,17.43c6.54,6.54,19.85-0.97,22.52-12.59
				c0.97-3.87,0.48-4.6-2.42-7.51l-3.39-3.15l5.33-9.93C210.33,374.35,243.26,329.56,249.56,327.87z"/>
			<path d="M149.8,500.02c7.75,2.18,24.94,2.42,34.87,0.73c17.92-3.15,41.16-13.32,56.66-24.94c18.16-13.56,35.83-35.35,42.61-52.06
				c3.39-8.23,4.84-18.4,3.63-25.18c-0.97-5.57-7.26-12.35-14.53-15.98c-5.08-2.66-7.26-2.91-19.61-2.91h-14.04l3.87-3.39
				c43.34-37.53,65.13-63.92,65.37-80.14c0-5.08-0.48-6.05-4.36-9.68c-7.51-7.02-18.89-8.47-35.84-4.36
				c-46.24,11.14-105.81,55.69-125.66,93.7c-5.08,9.68-5.81,14.29-2.9,18.4c3.39,4.84,15.5,8.72,19.37,6.29
				c2.18-1.45,0.97-2.42-3.87-4.12c-2.91-0.97-3.87-1.94-4.12-4.6c-0.97-8.96,8.47-24.7,26.15-43.1
				c19.37-20.34,39.71-35.11,65.86-48.43c17.43-8.96,30.02-13.32,41.4-14.04c8.72-0.73,9.2-0.73,11.14,2.42
				c1.7,2.66,1.7,3.87,0.48,8.72c-2.9,12.11-19.37,33.9-39.71,53.27c-13.07,12.35-37.04,32.44-44.07,37.04
				c-6.05,3.87-6.78,5.33-2.42,7.75c2.91,1.7,3.63,1.7,12.11-2.42c5.08-2.42,12.35-5.33,16.46-6.29c9.93-2.42,24.7-2.18,29.3,0.24
				c13.8,7.26,9.93,31.23-9.44,56.9c-17.43,23.24-46.24,43.1-72.64,49.88c-12.83,3.39-28.81,3.39-37.77,0
				c-22.03-8.23-20.58-34.87,2.91-62.47c5.08-5.81,8.23-10.41,7.75-11.38c-0.48-1.21-2.18-1.69-5.33-1.69
				c-4.36,0-5.57,0.48-10.65,6.05c-12.11,12.83-20.34,27.6-22.03,39.71C118.57,481.13,129.46,494.45,149.8,500.02z"/>
			<path d="M327.51,455.22c14.29,2.91,44.31-5.08,73.61-19.61c2.51-1.26,5.07-2.6,7.32-3.83c-0.38,2.48-0.42,4.78-0.31,7.7
				c0.48,10.65,4.84,15.01,16.71,17.19c9.2,1.69,26.39-1.45,43.34-7.99c7-2.74,22.87-10.25,33.71-15.76
				c-0.34,1.08-0.7,2.16-1.03,3.17c-3.15,8.23-2.42,13.32,2.42,17.43c7.51,6.54,17.92,12.11,59.8-21.31
				c0.06-0.05,0.12-0.09,0.18-0.13c-4.25,11.58,1.16,20.27,14.82,23.13c14.29,2.91,44.31-5.08,73.61-19.61
				c2.45-1.22,4.94-2.53,7.15-3.73c-2.25,9.11-3.09,15.53-2.31,18.5c0.48,1.7,1.94,3.87,3.39,5.08c3.15,2.91,8.72,3.15,14.77,0.73
				c2.66-1.21,10.65-8.23,20.1-17.68c8.72-8.72,16.22-15.74,16.46-15.74c0.24,0,1.94,1.45,3.87,2.91c2.18,1.69,7.02,3.63,12.59,4.84
				c8.23,1.94,11.14,1.7,26.39,0.48c11.74-0.99,18.59-1.68,22.03-2.43c0,0,0,0,0,0.01c-6.78,13.32-1.69,23.49,13.32,26.63
				c14.29,2.91,44.31-5.08,73.61-19.61c5.81-2.91,11.86-6.29,13.8-7.51c2.91-2.18,3.39-2.66,1.7-4.36
				c-2.66-2.66-9.2-2.18-13.56,0.97c-5.33,3.87-28.81,14.53-40.68,18.64c-13.32,4.6-28.09,7.75-33.41,6.78
				c-4.84-0.97-7.02-4.84-5.81-10.65c1.21-6.29,1.94-6.78,6.78-5.33c3.39,1.21,5.08,0.97,8.23-0.24
				c8.72-3.63,19.37-19.85,16.46-25.18c-1.94-3.63-9.2-6.54-14.04-5.57c-7.63,1.35-18.17,11.02-24.87,22.64
				c-0.42-0.26-0.93-0.55-1.51-0.85c-1.94-0.97-6.78-0.97-21.06,0.24c-10.17,0.73-20.82,1.21-23.73,0.73
				c-5.81-0.97-11.62-4.6-11.62-7.26c0-2.66-6.29-7.51-9.44-7.51c-2.18,0-7.75,4.6-22.76,19.61l-19.61,19.61l0.73-5.33
				c1.21-8.96,4.12-18.89,9.44-33.66c2.9-7.75,5.08-15.01,5.08-15.98c0-5.33-11.62-5.81-13.07-0.73
				c-0.48,1.69-3.39,10.41-6.29,19.85c-0.83,2.62-1.58,5.11-2.28,7.49c-2.64,0.1-5.57,1.01-7.89,2.68
				c-5.33,3.87-28.81,14.53-40.68,18.64c-13.32,4.6-28.09,7.75-33.41,6.78c-4.84-0.97-7.02-4.84-5.81-10.65
				c1.21-6.29,1.94-6.78,6.78-5.33c3.39,1.21,5.08,0.97,8.23-0.24c8.72-3.63,19.37-19.85,16.46-25.18
				c-1.94-3.63-9.2-6.54-14.04-5.57c-6.5,1.15-15.1,8.33-21.65,17.62c-0.35,0.09-0.72,0.19-1.1,0.3
				c-20.1,5.81-43.1,31.23-52.3,30.75c-6.78-0.24-7.26-2.66-3.63-11.86c1.69-4.12,5.33-11.62,8.23-16.71
				c6.29-10.65,6.05-12.59-1.45-13.56c-3.87-0.48-4.6,0-6.29,2.91c-0.97,1.94-3.39,4.84-5.33,6.54c-1.19,1.04-2.28,2.63-3.01,4.15
				c-4.22,1.44-13.64,5.71-23.86,10.62c-23.97,11.86-39.22,16.95-50.85,17.43c-5.57,0.24-7.02-0.24-8.47-2.18
				c-3.39-4.84-1.21-19.85,5.33-34.14c2.66-6.05,4.36-7.99,10.17-11.86c17.67-12.11,65.86-65.13,83.77-92.01
				c7.75-11.62,8.72-15.25,5.08-19.13c-6.05-6.54-15.98-4.6-28.57,5.33c-18.16,14.29-51.33,57.63-71.67,93.7
				c-3.39,6.05-7.75,12.59-9.44,14.04c-1.7,1.7-2.42,2.91-1.7,3.15c0.97,0.48,0,4.36-2.66,11.86c-0.24,0.67-0.46,1.3-0.67,1.91
				c-2.68,0.07-5.68,0.98-8.04,2.69c-5.33,3.87-28.81,14.53-40.68,18.64c-13.32,4.6-28.09,7.75-33.41,6.78
				c-4.84-0.97-7.02-4.84-5.81-10.65c1.21-6.29,1.94-6.78,6.78-5.33c3.39,1.21,5.08,0.97,8.23-0.24
				c8.72-3.63,19.37-19.85,16.46-25.18c-1.94-3.63-9.2-6.54-14.04-5.57c-8.23,1.45-19.85,12.59-26.39,25.42
				C307.41,441.91,312.5,452.08,327.51,455.22z M791.15,425.93c2.91-4.84,11.86-14.77,12.59-14.04c1.21,1.21-3.15,8.23-7.75,12.83
				C790.42,430.28,788.24,431.01,791.15,425.93z M592.38,411.88c1.21,1.21-3.15,8.23-7.75,12.83c-5.57,5.57-7.75,6.29-4.84,1.21
				C582.69,421.08,591.65,411.16,592.38,411.88z M443.97,383.07c5.57-10.9,37.53-54.72,49.64-68.04
				c7.51-8.23,20.34-19.37,21.31-18.4c2.18,2.18-19.85,31.48-39.95,53.99C459.95,367.33,442.75,385.25,443.97,383.07z M329.2,425.93
				c2.91-4.84,11.86-14.77,12.59-14.04c1.21,1.21-3.15,8.23-7.75,12.83C328.48,430.28,326.3,431.01,329.2,425.93z"/>
			<path d="M517.57,390.72c-0.24,0.73,0.73,2.18,1.7,2.91c3.87,2.91,7.99,2.18,14.77-1.94c3.63-2.18,6.54-4.6,6.54-5.08
				c0.24-1.45-3.63-3.63-6.78-4.12S517.81,388.54,517.57,390.72z"/>
		</g>
		<g>
			<path d="M198.09,296.86l-44.85-102.75c-1.76-4.26-5.01-7.43-9.72-9.49c-4.71-2.07-10.01-3.11-15.91-3.11
				c-2.64,0-5.52,0.23-8.61,0.66c-3.11,0.45-5.93,1.19-8.51,2.21c-2.58,1.04-4.71,2.29-6.41,3.75c-1.68,1.48-2.53,3.32-2.53,5.53
				c0,2.05,0.77,3.86,2.32,5.41c1.55,1.55,3.28,3.17,5.19,4.87c1.92,1.68,3.68,3.6,5.3,5.75c1.62,2.13,2.5,4.82,2.66,8.05
				c0,2.07-0.29,4.28-0.88,6.63c-0.6,2.36-1.41,4.65-2.44,6.86l-27.61,64.07c-3.4,7.96-6.68,13.77-9.83,17.46
				c-3.18,3.68-6.01,6.44-8.51,8.28c-2.5,1.84-4.5,3.28-5.96,4.31c-1.48,1.02-2.21,2.8-2.21,5.3c0,2.35,0.66,4.19,1.99,5.52
				c1.31,1.33,3.04,2.32,5.19,2.98c2.13,0.66,4.45,1.04,6.95,1.11c2.5,0.08,4.93,0.11,7.29,0.11c2.5,0,5.27-0.08,8.28-0.22
				c3.03-0.15,5.86-0.59,8.51-1.33c2.64-0.74,4.9-1.84,6.74-3.32c1.84-1.47,2.77-3.52,2.77-6.18c0-2.21-0.6-3.89-1.78-5.08
				c-1.17-1.17-2.35-2.46-3.52-3.86c-1.19-1.41-1.99-3.17-2.44-5.3c-0.43-2.13,0.08-5.19,1.55-9.18l1.78-4.64h52.79l2.44,6.41
				c1.47,3.97,1.98,6.95,1.55,8.95c-0.45,1.98-1.25,3.6-2.43,4.85c-1.19,1.25-2.36,2.44-3.54,3.54c-1.19,1.11-1.78,2.84-1.78,5.19
				c0,3.99,2.55,6.74,7.63,8.28c0.94,0.28,2.02,0.54,3.23,0.77c11.51-11.82,25.25-23.16,39.85-33
				C201.16,303.63,199.65,300.48,198.09,296.86z M109.49,285.37l19-44.41l20.1,44.41H109.49z M219.3,325.14
				c-0.65-0.65-1.44-1.38-2.36-2.18c-7.94,5.44-15.31,11.26-22.39,17.66c0.15,0,0.29-0.02,0.45-0.02c3.83-0.14,7.69-0.51,11.6-1.1
				c3.89-0.59,7.28-1.51,10.15-2.77c0.57-0.25,1.08-0.51,1.53-0.8c0.88-1.1,1.73-2.18,2.6-3.23c0.12-0.43,0.19-0.9,0.19-1.38
				C221.06,328.38,220.47,326.33,219.3,325.14z"/>
			<path d="M278.29,305.25v-11.97c-8.79,1.68-18.85,5.62-32.2,12.48c-4.73,2.41-9.25,4.87-13.61,7.39c-1.1,1.64-2.24,2.95-3.46,3.92
				c-1.92,1.55-3.69,2.92-5.3,4.09c-1.62,1.17-2.44,3.24-2.44,6.18c0,1.42,0.28,2.7,0.85,3.85c3.88-4.71,7.57-8.88,10.92-12.27
				c6.41-6.61,9.36-9.66,15.87-9.66c0.69,0,1.48,0.03,2.38,0.08c2.6,0.15,10.2,0.63,12.53,6.55c1.47,3.72,0.2,7.71-3.74,11.87
				c-0.03,0.03-0.08,0.08-0.11,0.11c-3.12,3.12-5.92,5.08-8.33,5.82c-1.02,0.68-2.61,2.24-4.62,4.48h13.29
				c7.54-7.83,14.23-15.79,19.41-22.94C278.77,312.61,278.29,309.29,278.29,305.25z M349.77,272.34c-1.84-1.48-3.86-2.21-6.07-2.21
				c-2.36,0-4.47,0.7-6.3,2.09c-1.84,1.41-2.91,3.51-3.2,6.3c-0.59,8.54-1.85,15.73-3.75,21.54c-1.92,5.82-4.5,10.46-7.74,13.92
				c-3.24,3.46-7.11,5.93-11.6,7.4c-2.27,0.76-4.73,1.31-7.37,1.67c-3.28,4.7-7.26,9.73-12.02,15.13h48.45
				c2.5,0,4.53-0.22,6.07-0.66c1.55-0.43,2.8-1.28,3.75-2.53c0.96-1.25,1.62-3.03,1.99-5.32c0.37-2.27,0.56-5.19,0.56-8.71V279.4
				C352.53,276.17,351.6,273.81,349.77,272.34z M283.27,186.39c-5.08-1.76-13.67-2.66-25.74-2.66c-12.08,0-20.7,0.9-25.85,2.66
				c-5.16,1.76-7.74,4.2-7.74,7.29s0.66,5.22,1.99,6.4c1.33,1.19,2.8,2.47,4.42,3.88c1.61,1.39,3.09,3.6,4.42,6.63
				c1.31,3.01,1.98,7.99,1.98,14.91v61.42c10.31-4.77,20.53-8.48,30.25-10.82c4.06-0.99,7.8-1.67,11.3-2.05v-51.2
				c0-6.03,0.66-10.38,1.99-13.02c1.31-2.66,2.75-4.68,4.3-6.09c1.55-1.39,2.98-2.64,4.31-3.75c1.33-1.1,1.99-3.2,1.99-6.29
				S288.33,188.15,283.27,186.39z"/>
			<path d="M559,179.98c-4.5-3.83-9.98-5.75-16.47-5.75c-3.83,0-7.51,0.56-11.05,1.67c-3.52,1.1-6.63,2.58-9.27,4.42
				c-2.66,1.84-4.76,3.94-6.3,6.29c-1.55,2.36-2.32,4.71-2.32,7.08c0,3.09,1.25,5.56,3.75,7.4c2.5,1.84,5.24,3.54,8.17,5.08
				c2.95,1.55,5.67,3.24,8.17,5.08c2.52,1.84,3.77,4.37,3.77,7.62c0,1.17-0.26,2.61-0.77,4.31c-0.53,1.7-1.33,3.83-2.44,6.41
				c-1.1,2.56-2.58,5.67-4.42,9.27c-1.84,3.62-4.08,7.99-6.74,13.15l-14.58,27.39l-35.12-78.43c-2.95-6.92-6.86-11.87-11.71-14.8
				c-4.87-2.95-9.95-4.42-15.25-4.42c-3.83,0-7.66,0.66-11.5,1.98c-3.83,1.33-7.29,3.03-10.38,5.08c-3.09,2.07-5.59,4.34-7.51,6.86
				c-1.92,2.5-2.87,4.93-2.87,7.28c0,2.66,1.07,4.6,3.2,5.86c2.15,1.25,4.31,2.1,6.52,2.55c3.11,0.59,5.64,1.76,7.63,3.54
				c1.98,1.76,4,4.56,6.07,8.39c2.06,4.57,2.98,9.32,2.77,14.25c-0.23,4.94-1.51,9.69-3.86,14.26l-14.59,28.72l-35.58-79.54
				c-3.09-6.92-7.03-11.87-11.82-14.8c-4.79-2.95-9.83-4.42-15.13-4.42c-3.83,0-7.66,0.66-11.5,1.98
				c-3.83,1.33-7.29,3.03-10.38,5.08c-3.09,2.07-5.59,4.34-7.51,6.86c-1.92,2.5-2.87,4.93-2.87,7.28c0,2.66,1.07,4.6,3.2,5.86
				c2.13,1.25,4.31,2.1,6.52,2.55c3.68,0.74,6.6,2.29,8.73,4.64c2.13,2.36,4.6,6.33,7.4,11.93l45.95,108.26
				c0.74,1.92,1.88,3.32,3.43,4.2c1.55,0.88,3.14,1.33,4.76,1.33c1.76,0,3.45-0.48,5.07-1.44c1.62-0.96,2.95-2.32,3.99-4.09
				l33.14-65.17c2.06-3.83,3.6-5.75,4.64-5.75c1.17,0,2.58,1.92,4.2,5.75l16.92,39.6c6.84-7.73,13.15-14.01,18.36-18.11
				c8.81-6.94,16.75-10.46,23.61-10.46c4.42,0,8.41,1.44,11.65,4.2l20.05-39.32c1.62-3.23,3.43-6.84,5.41-10.83
				c1.99-3.97,3.83-8.1,5.53-12.36c1.68-4.28,3.12-8.54,4.31-12.82c1.17-4.26,1.76-8.31,1.76-12.14
				C565.73,190.07,563.49,183.81,559,179.98z"/>
			<path d="M703.82,325.14c-1.17-1.17-2.8-2.61-4.85-4.31c-2.07-1.68-4.5-4.22-7.29-7.62c-2.8-3.38-5.82-8.84-9.05-16.35
				l-44.85-102.75c-1.78-4.26-5.02-7.43-9.73-9.49c-4.71-2.07-10.01-3.11-15.9-3.11c-2.66,0-5.53,0.23-8.62,0.66
				c-3.09,0.45-5.93,1.19-8.5,2.21c-2.58,1.04-4.73,2.29-6.41,3.75c-1.7,1.48-2.55,3.32-2.55,5.53c0,2.05,0.79,3.86,2.33,5.41
				c1.55,1.55,3.28,3.17,5.19,4.87c1.9,1.68,3.68,3.6,5.3,5.75c1.62,2.13,2.5,4.82,2.64,8.05c0,2.07-0.29,4.28-0.88,6.63
				c-0.59,2.36-1.39,4.65-2.43,6.86l-27.63,64.07c-3.38,7.96-6.66,13.77-9.83,17.46c-3.17,3.68-6,6.44-8.5,8.28
				c-2.52,1.84-4.5,3.28-5.98,4.31c-1.47,1.02-2.21,2.8-2.21,5.3c0,2.35,0.66,4.19,1.99,5.52c1.33,1.33,3.06,2.32,5.19,2.98
				c2.13,0.66,4.45,1.04,6.97,1.11c2.5,0.08,4.93,0.11,7.29,0.11c2.5,0,5.25-0.08,8.28-0.22c3.01-0.15,5.86-0.59,8.5-1.33
				c2.66-0.74,4.9-1.84,6.75-3.32c1.84-1.47,2.75-3.52,2.75-6.18c0-2.21-0.59-3.89-1.76-5.08c-1.19-1.17-2.36-2.46-3.54-3.86
				c-1.17-1.41-1.99-3.17-2.43-5.3c-0.45-2.13,0.06-5.19,1.55-9.18l1.76-4.64h52.81l2.43,6.41c1.47,3.97,1.99,6.95,1.55,8.95
				c-0.43,1.98-1.25,3.6-2.43,4.85c-1.17,1.25-2.36,2.44-3.54,3.54c-1.17,1.11-1.76,2.84-1.76,5.19c0,3.99,2.53,6.74,7.62,8.28
				c5.08,1.56,14.03,2.33,26.85,2.33c1.9,0,4.77-0.08,8.61-0.23c3.83-0.14,7.69-0.51,11.6-1.1c3.91-0.59,7.29-1.51,10.17-2.77
				c2.87-1.25,4.31-3.06,4.31-5.41C705.59,328.38,705.01,326.33,703.82,325.14z M594.01,285.37l19-44.41l20.1,44.41H594.01z"/>
			<path d="M808.88,187.16c-3.75-4.5-8.81-7.26-15.14-8.28c-3.68-0.59-7.32-0.59-10.94,0c-3.6,0.59-6.84,1.58-9.72,2.98
				c-2.87,1.39-5.27,3.09-7.18,5.08c-1.9,1.98-3.09,4.16-3.52,6.5c-0.59,3.11,0.19,5.79,2.32,8.07c2.13,2.29,4.5,4.5,7.08,6.63
				c2.57,2.15,4.88,4.39,6.95,6.75c2.06,2.35,2.8,5.3,2.21,8.84c-0.29,1.76-1.55,5.19-3.75,10.27c-2.21,5.07-6.49,11.82-12.82,20.21
				l-34.46-61.65c-2.07-3.82-5.24-6.74-9.5-8.73c-4.28-1.98-8.84-2.98-13.7-2.98c-3.83,0-7.66,0.66-11.48,1.99
				c-3.83,1.33-7.29,3.38-10.4,6.2c-4.42,3.83-6.47,7.4-6.18,10.71c0.29,3.32,2.13,5.19,5.53,5.64c3.82,0.43,6.8,1.25,8.95,2.43
				c2.13,1.17,4.11,3.09,5.96,5.75c1.84,2.64,3.83,6.15,5.96,10.49s5.19,9.98,9.16,16.9l19.89,35.57v21c0,6.92-0.66,11.9-1.98,14.91
				c-1.33,3.03-2.77,5.19-4.31,6.52c-1.55,1.33-2.98,2.47-4.31,3.43c-1.33,0.96-1.99,2.75-1.99,5.41c0,1.92,0.48,3.62,1.44,5.08
				s2.66,2.72,5.08,3.75c2.43,1.04,5.7,1.76,9.83,2.21c4.13,0.43,9.36,0.66,15.7,0.66c6.32,0,11.56-0.23,15.68-0.66
				c4.13-0.45,7.4-1.17,9.83-2.21c2.44-1.04,4.13-2.29,5.08-3.75c0.96-1.47,1.44-3.17,1.44-5.08c0-2.66-0.66-4.45-1.98-5.41
				c-1.33-0.96-2.81-2.1-4.42-3.43c-1.62-1.33-3.11-3.49-4.42-6.52c-1.33-3.01-1.99-7.99-1.99-14.91v-25.18l14.35-19.88
				c4.13-5.75,7.66-10.91,10.61-15.47c2.94-4.57,5.41-8.65,7.4-12.27c1.98-3.62,3.57-6.92,4.74-9.95c1.17-3.01,1.99-5.84,2.44-8.5
				C813.78,198.03,812.64,191.66,808.88,187.16z"/>
			<path d="M936.8,276.98c-2.43-5.01-5.62-9.39-9.61-13.15c-3.97-3.75-8.47-7.03-13.47-9.83c-5.01-2.8-10.17-5.38-15.47-7.74
				c-5.3-2.35-10.46-4.64-15.47-6.84s-9.5-4.6-13.47-7.18c-3.99-2.58-7.18-5.48-9.61-8.73c-2.44-3.23-3.65-6.98-3.65-11.26
				c0-5.01,1.87-8.84,5.62-11.5c3.77-2.64,7.93-3.97,12.48-3.97c5.75,0,10.2,1.95,13.38,5.86c3.15,3.91,4.22,8.65,3.2,14.25
				c-0.29,2.66-0.45,5.3-0.45,7.96c0,2.66,0.45,5.05,1.33,7.18c0.88,2.13,2.32,3.83,4.31,5.08c1.99,1.25,4.74,1.87,8.28,1.87
				c3.09,0,6.12-0.51,9.05-1.55c2.95-1.02,5.61-2.5,7.96-4.42c2.36-1.92,4.28-4.34,5.75-7.29c1.47-2.94,2.21-6.26,2.21-9.93
				c0-5.3-1.47-10.06-4.42-14.26c-2.95-4.19-6.84-7.69-11.71-10.49c-4.85-2.8-10.41-4.93-16.67-6.4
				c-6.27-1.48-12.72-2.21-19.34-2.21c-7.06,0-14.06,0.88-20.98,2.64c-6.92,1.76-13.12,4.42-18.56,7.96
				c-5.45,3.54-9.87,7.99-13.26,13.36c-3.4,5.38-5.08,11.74-5.08,19.11c0,8.1,1.98,14.99,5.96,20.66
				c3.97,5.67,8.98,10.54,15.02,14.59c6.04,4.05,12.52,7.66,19.45,10.83c6.92,3.17,13.4,6.33,19.44,9.49
				c6.04,3.18,11.05,6.6,15.02,10.27c3.99,3.69,5.96,8.19,5.96,13.49c0,2.94-0.62,5.56-1.87,7.83c-1.25,2.29-2.95,4.25-5.08,5.86
				c-2.13,1.62-4.53,2.84-7.18,3.65c-2.64,0.82-5.38,1.22-8.17,1.22c-2.95,0-5.89-0.48-8.84-1.44c-2.95-0.96-5.56-2.47-7.83-4.53
				c-2.29-2.07-4.13-4.64-5.53-7.74c-1.41-3.09-2.1-6.84-2.1-11.26c0-4.71-0.37-8.51-1.1-11.37c-0.74-2.87-1.78-5.13-3.09-6.75
				c-1.33-1.61-2.92-2.72-4.76-3.31c-1.84-0.59-3.86-0.88-6.07-0.88c-3.09,0-6.3,0.4-9.61,1.21c-3.32,0.82-6.38,2.1-9.18,3.88
				c-2.8,1.76-5.11,4.05-6.95,6.84c-1.84,2.8-2.77,6.18-2.77,10.17c0,7.22,1.78,13.47,5.3,18.77c3.54,5.3,8.17,9.72,13.92,13.26
				c5.75,3.54,12.34,6.15,19.78,7.85c7.43,1.68,15.14,2.53,23.08,2.53c8.41,0,16.72-0.96,24.97-2.87c8.25-1.9,15.57-4.82,21.99-8.71
				c6.41-3.91,11.6-8.73,15.57-14.48c3.99-5.75,5.96-12.38,5.96-19.88C940.44,287.89,939.24,281.98,936.8,276.98z"/>
		</g>
		<g>
			<path d="M199.68,512.07c-1.16-1.53-3.12-2.83-5.87-3.91c-2.77-1.07-6.38-1.84-10.83-2.3c-0.28-0.03-0.56-0.06-0.83-0.08
				c0,0-0.02,0-0.03,0c-3.88,0.46-8.45,0.71-13.24,0.71c-5.66,0-10.88-0.34-15.06-0.96h-0.05c-1.39,0.09-2.7,0.2-3.92,0.32
				c-4.47,0.46-8.03,1.24-10.71,2.3c-2.69,1.08-4.6,2.43-5.76,4.03c-1.14,1.61-1.73,3.49-1.73,5.64c0,2.77,0.7,4.57,2.07,5.41
				c1.39,0.85,2.92,1.96,4.6,3.34c1.7,1.39,3.23,3.62,4.62,6.67c1.38,3.07,2.07,8.22,2.07,15.44v76.43c0,7.22-0.69,12.39-2.07,15.54
				c-1.39,3.15-2.92,5.41-4.62,6.78c-1.68,1.39-3.21,2.5-4.6,3.34c-1.38,0.85-2.07,2.66-2.07,5.42c0,0.87,0.11,1.67,0.31,2.44
				c10.6-12.13,25.52-24.94,43.05-36.74c5.39-3.62,9.49-6.1,13.06-7.31v-68.68c0-6.29,0.69-10.82,2.07-13.58
				c1.39-2.77,2.92-4.81,4.6-6.1c1.68-1.3,3.23-2.43,4.6-3.34c1.39-0.93,2.07-2.69,2.07-5.3
				C201.39,515.46,200.82,513.62,199.68,512.07z M199.32,649.99c-1.37-0.91-2.92-1.95-4.6-3.11c-1.65-1.13-3.17-2.94-4.53-5.41
				c-3.38,3.96-7.52,8.75-12.41,14.4c-3.8,4.39-7.51,8.71-11.12,12.99c6.49,0,11.93-0.23,16.32-0.68c4.45-0.46,8.07-1.24,10.83-2.32
				c2.75-1.07,4.71-2.41,5.87-4.02c1.14-1.62,1.71-3.49,1.71-5.64C201.39,652.98,200.71,650.91,199.32,649.99z"/>
			<path d="M361.86,510.36c-1.68-1.16-3.96-2.15-6.78-3c-2.84-0.85-6.07-1.45-9.67-1.84c-3.62-0.39-7.26-0.57-10.94-0.57
				c-3.83,0-7.56,0.19-11.17,0.57c-3.6,0.39-6.83,0.99-9.67,1.84c-2.83,0.85-5.1,1.84-6.78,3c-1.7,1.14-2.53,2.49-2.53,4.03
				c0,3.21,0.99,5.48,3,6.78c1.99,1.31,4.17,2.8,6.55,4.5c2.38,1.68,4.57,4.17,6.57,7.48c1.99,3.31,3,8.56,3,15.78v42.35
				l-66.99-78.5c-2.47-2.9-4.88-4.91-7.26-5.98c-2.38-1.08-5.1-1.62-8.17-1.62c-6.6,0-12.05,0.23-16.35,0.7
				c-4.29,0.46-7.71,1.19-10.24,2.19c-2.53,0.99-4.34,2.22-5.41,3.68c-1.08,1.47-1.61,3.18-1.61,5.18c0,2.01,0.42,3.54,1.25,4.6
				c0.85,1.08,1.85,2.04,3,2.89c1.16,0.83,2.46,1.76,3.92,2.77c1.45,0.99,2.75,2.41,3.91,4.25c1.14,1.84,2.15,4.23,3,7.14
				c0.83,2.92,1.25,6.75,1.25,11.51v75.06c0,7.22-0.99,12.47-2.98,15.78c-1.99,3.29-4.19,5.79-6.57,7.48
				c-2.38,1.68-4.57,3.23-6.57,4.6c-1.99,1.38-2.98,3.68-2.98,6.91c0,1.53,0.83,2.87,2.53,4.03c1.68,1.14,3.94,2.12,6.78,2.87
				c2.84,0.77,6.07,1.34,9.67,1.73c3.6,0.39,7.32,0.57,11.17,0.57c3.68,0,7.32-0.19,10.94-0.57c3.6-0.39,6.81-0.96,9.66-1.73
				c2.84-0.76,5.11-1.73,6.8-2.87c1.68-1.16,2.53-2.5,2.53-4.03c0-3.23-1-5.53-3-6.91s-4.19-2.92-6.55-4.6
				c-2.4-1.68-4.57-4.19-6.57-7.48c-1.99-3.31-3-8.56-3-15.78v-56.18l79.2,93.24c3.54,4.14,7.22,6.21,11.05,6.21
				c2.76,0,5.11-1.04,7.03-3.11c1.92-2.07,2.8-4.94,2.64-8.64V548.92c0-4.76,0.49-8.64,1.5-11.63c1-3,2.19-5.41,3.57-7.25
				c1.38-1.84,2.87-3.31,4.5-4.37c1.61-1.08,3.11-2.07,4.48-3c1.39-0.93,2.53-1.99,3.46-3.23c0.91-1.22,1.37-2.9,1.37-5.05
				C364.4,512.85,363.55,511.5,361.86,510.36z"/>
			<path d="M548.46,509.9c-1.76-2.22-5.18-3.34-10.24-3.34H423.34c-5.07,0-8.45,1.11-10.14,3.34c-1.7,2.22-2.53,7.01-2.53,14.38
				v43.52c0,3.37,0.96,5.82,2.87,7.35c1.92,1.55,4.03,2.3,6.33,2.3c2.3,0,4.45-0.73,6.44-2.18c1.99-1.45,3.15-3.65,3.46-6.57
				c0.6-9.05,1.64-16.58,3.11-22.56c1.45-5.99,3.37-10.78,5.75-14.38c2.38-3.62,5.27-6.18,8.64-7.73c3.38-1.53,7.37-2.3,11.97-2.3
				v102.01c0,7.22-0.69,12.39-2.07,15.53c-1.38,3.15-2.92,5.5-4.6,7.03s-3.23,2.92-4.6,4.14c-1.38,1.24-2.07,3.46-2.07,6.67
				c0,3.23,2.57,5.76,7.71,7.6c5.15,1.84,14.23,2.77,27.29,2.77c10.74,0,19.22-0.93,25.43-2.77c6.23-1.84,9.33-4.37,9.33-7.6
				c0-3.21-0.7-5.41-2.07-6.55c-1.39-1.16-2.87-2.46-4.5-3.92c-1.61-1.45-3.11-3.57-4.48-6.33c-1.39-2.75-2.07-7.28-2.07-13.58
				V521.75c4.6,0,8.59,0.77,11.96,2.3c3.38,1.55,6.26,4.11,8.64,7.73c2.38,3.6,4.3,8.39,5.76,14.38c1.45,5.98,2.49,13.5,3.11,22.56
				c0.31,2.92,1.42,5.11,3.34,6.57c1.92,1.45,4.11,2.18,6.57,2.18c2.3,0,4.4-0.76,6.32-2.3c1.92-1.53,2.89-3.99,2.89-7.35v-43.52
				C551.12,516.91,550.22,512.12,548.46,509.9z"/>
			<path d="M717.8,651.95c-1.38-1.16-2.92-2.46-4.61-3.91c-1.68-1.47-3.23-3.57-4.6-6.33c-1.38-2.77-2.07-7.29-2.07-13.58v-82.2
				c0-6.29,0.7-10.82,2.07-13.58c1.37-2.77,2.92-4.87,4.6-6.33c1.68-1.45,3.23-2.77,4.61-3.91c1.37-1.16,2.07-3.34,2.07-6.57
				c0-2.3-1.42-4.14-4.25-5.53c-2.84-1.38-6.2-2.41-10.03-3.11c-3.83-0.68-7.63-1.14-11.39-1.38c-3.77-0.23-6.57-0.36-8.4-0.36
				c-1.84,0-4.73,0.12-8.64,0.36c-3.91,0.23-7.91,0.7-11.97,1.38c-4.06,0.7-7.6,1.73-10.58,3.11c-3,1.39-4.5,3.23-4.5,5.53
				c0,3.23,0.69,5.45,2.07,6.67c1.39,1.24,2.92,2.58,4.6,4.03c1.68,1.45,3.23,3.75,4.6,6.91c1.39,3.15,2.07,8.33,2.07,15.54v20.95
				c0,3.52-0.68,5.98-2.07,7.37c-1.38,1.38-3.68,2.07-6.91,2.07h-32.46c-3.21,0-5.52-0.7-6.91-2.07c-1.38-1.39-2.07-3.85-2.07-7.37
				v-23.72c0-6.29,0.7-10.82,2.07-13.58c1.39-2.77,2.92-4.87,4.6-6.33c1.68-1.45,3.23-2.77,4.61-3.91c1.39-1.16,2.07-3.34,2.07-6.57
				c0-2.3-1.45-4.14-4.37-5.53c-2.92-1.38-6.33-2.41-10.24-3.11c-3.91-0.68-7.79-1.14-11.62-1.38c-3.85-0.23-6.69-0.36-8.53-0.36
				c-1.84,0-4.68,0.12-8.51,0.36c-3.85,0.23-7.71,0.7-11.63,1.38c-3.91,0.7-7.37,1.73-10.35,3.11c-3,1.39-4.5,3.23-4.5,5.53
				c0,3.23,0.69,5.45,2.07,6.67c1.39,1.24,2.92,2.58,4.6,4.03c1.7,1.45,3.23,3.75,4.6,6.91c1.39,3.15,2.09,8.33,2.09,15.54v76.67
				c0,7.06-0.7,12.16-2.09,15.31c-1.38,3.15-2.9,5.41-4.6,6.78c-1.68,1.39-3.21,2.5-4.6,3.34c-1.38,0.85-2.07,2.66-2.07,5.42
				c0,4.3,2.53,7.48,7.6,9.55c5.07,2.07,14.12,3.11,27.16,3.11c6.6,0,12.13-0.23,16.58-0.68c4.45-0.46,8.06-1.24,10.83-2.32
				c2.75-1.07,4.71-2.41,5.86-4.02c1.16-1.62,1.73-3.49,1.73-5.64c0-2.61-0.68-4.34-2.07-5.19c-1.38-0.83-2.92-1.92-4.61-3.21
				c-1.68-1.31-3.21-3.34-4.6-6.1c-1.38-2.77-2.07-7.29-2.07-13.58v-18.42c0-6.3,2.84-9.44,8.51-9.44h33.85
				c2.91,0.31,4.99,1.14,6.21,2.53c1.24,1.38,1.84,3.68,1.84,6.91v15.42c0,7.22-0.68,12.39-2.07,15.54
				c-1.38,3.15-2.92,5.41-4.6,6.78c-1.68,1.39-3.21,2.5-4.6,3.34c-1.38,0.85-2.07,2.66-2.07,5.42c0,4.3,2.53,7.48,7.6,9.55
				c5.07,2.07,14.12,3.11,27.16,3.11c6.6,0,12.13-0.23,16.58-0.68c4.45-0.46,8.06-1.16,10.82-2.09c2.77-0.91,4.73-2.02,5.87-3.34
				c1.16-1.3,1.73-2.72,1.73-4.25C719.87,655.29,719.17,653.09,717.8,651.95z"/>
			<path d="M865.49,597.5c-1.93-1.53-4.03-2.3-6.33-2.3s-4.45,0.73-6.44,2.18c-2.01,1.47-3.15,3.65-3.46,6.57
				c-0.62,8.9-1.92,16.39-3.91,22.45c-1.99,6.06-4.68,10.89-8.07,14.51c-3.37,3.6-7.4,6.18-12.08,7.71
				c-4.68,1.53-10.09,2.3-16.22,2.3h-5.76c-6.6,0-11.25-1.45-13.94-4.37c-2.67-2.92-4.02-7.83-4.02-14.74v-31.77
				c0-2.61,0.49-4.5,1.5-5.64c0.99-1.16,2.8-1.73,5.41-1.73h4.37c3.06,0,5.48,0.42,7.25,1.27c1.76,0.85,3.18,1.92,4.26,3.21
				c1.07,1.31,1.96,2.77,2.64,4.39c0.7,1.61,1.5,3.18,2.43,4.71c1.37,2.3,2.72,3.88,4.02,4.73c1.31,0.83,2.58,1.27,3.8,1.27
				c1.55,0,2.89-0.51,4.03-1.5c1.16-1,1.73-2.5,1.73-4.5v-43.74c0-1.84-0.57-3.23-1.73-4.14c-1.14-0.93-2.49-1.39-4.03-1.39
				c-1.22,0-2.46,0.36-3.68,1.04c-1.24,0.7-2.22,1.65-3,2.89c-1.07,1.99-2.07,3.91-3,5.75c-0.91,1.84-1.95,3.46-3.11,4.84
				c-1.14,1.38-2.61,2.5-4.37,3.34c-1.76,0.85-4.19,1.27-7.25,1.27h-4.37c-2.61,0-4.42-0.54-5.41-1.61c-1-1.08-1.5-2.92-1.5-5.53
				v-28.32c0-6.91,1.45-11.77,4.37-14.62c2.9-2.84,8.2-4.26,15.88-4.26c5.53,0,10.51,0.77,14.97,2.3c4.45,1.55,8.24,4.11,11.39,7.73
				c3.15,3.6,5.72,8.39,7.71,14.38c1.99,5.98,3.31,13.5,3.92,22.56c0.29,2.92,1.41,5.11,3.34,6.57c1.92,1.45,4.1,2.18,6.55,2.18
				c2.3,0,4.42-0.76,6.33-2.3c1.92-1.53,2.87-3.99,2.87-7.35v-43.52c0-7.37-0.88-12.16-2.64-14.38c-1.76-2.22-5.18-3.34-10.24-3.34
				h-98.31c-9.83,0-16.53,0.96-20.15,2.87c-3.6,1.92-5.41,4.73-5.41,8.41c0,3.07,0.85,5.22,2.53,6.44c1.68,1.24,3.52,2.66,5.53,4.26
				c1.99,1.61,3.83,4.06,5.52,7.37c1.68,3.29,2.53,8.56,2.53,15.78v69.3c0,4.76-0.39,8.64-1.14,11.62c-0.77,3-1.78,5.41-3,7.26
				c-1.24,1.84-2.53,3.26-3.91,4.25c-1.39,1-2.69,1.96-3.92,2.89c-1.22,0.91-2.22,1.92-2.98,2.98c-0.77,1.08-1.16,2.61-1.16,4.6
				c0,3.69,1.81,6.54,5.41,8.53c3.62,1.99,10.32,2.98,20.15,2.98h68c12.13-16.44,24.5-30.67,33.08-37.42
				c5.79-4.57,11.12-7.28,15.88-8.05v-15.76C868.37,601.49,867.41,599.03,865.49,597.5z"/>
		</g>
	</g>
	<path d="M895.75,411.85c-1.05,0-2.18-0.65-2.97-1.7c-5.61-7.5-10.3-15.22-13.94-22.94c-4.98-10.56-8.87-22.12,0.04-27.82
		c2.04-1.31,4.15-1.97,6.27-1.97c6.42,0,11.5,5.83,13.91,10.83c2.01,4.17,3.14,8.8,3.46,14.13l0.17,2.85l1.54-2.41
		c0.75-1.17,1.42-2.18,2.06-3.1c4.87-7.04,10.82-14.24,18.09-14.24c0.57,0,1.15,0.05,1.73,0.14c3.23,0.52,5.6,2.11,6.83,4.62
		c1.43,2.9,1.16,6.71-0.72,10.17c-4.26,7.84-12.19,14.05-19.2,19.53l-0.41,0.32c-5.56,4.35-10.6,7.99-15.43,11.14
		C896.73,411.7,896.25,411.85,895.75,411.85L895.75,411.85z M881.55,365.58c-1.13,1.15-1.72,2.8-1.68,4.64
		c0.18,7.82,5.26,16.17,9.35,22.89l1.02,1.67c0.84,1.4,1.76,2.86,2.8,4.48l1.24,1.92l0.46-2.24c1.42-6.99,2.9-17.33-0.69-26.29
		c-1.21-3.03-2.68-5.35-4.37-6.88c-1.29-1.17-2.79-1.79-4.32-1.79C883.9,363.99,882.55,364.56,881.55,365.58z M909.91,385.83
		c-2.16,3.4-4.27,7.13-6.28,11.1l-1.81,3.57l3.2-2.41c1.98-1.49,3.6-2.75,5.1-3.95c3.42-2.75,7.85-6.45,11.76-10.65
		c0.14-0.15,0.32-0.34,0.53-0.56c3.26-3.4,6.16-6.87,5.25-9.28c-0.69-1.84-2.02-2.11-2.75-2.11
		C919.62,371.53,910.01,385.69,909.91,385.83z"/>
</g>
</svg>


