<?xml version="1.0" encoding="utf-8"?>
<!-- Generator: Adobe Illustrator 24.0.0, SVG Export Plug-In . SVG Version: 6.00 Build 0)  -->
<svg version="1.1" xmlns="http://www.w3.org/2000/svg" xmlns:xlink="http://www.w3.org/1999/xlink" x="0px" y="0px"
	 viewBox="0 0 1000 1000" style="enable-background:new 0 0 1000 1000;" xml:space="preserve" width="500" height="500">
<g>
	<g>
		<g>
			<path d="M228.44,386.36c-8.89,14.98-22.22,37.83-39.61,36.82c-28.69-1.27-13.97-49.39-29.33-48.75
				c-16.12,0.63-31.23,51.8-36.82,67.67c-3.05,8.38-4.06,13.58-9.14,13.46c-4.82-0.25-4.32-8.25-4.57-11.43
				c-1.02-21.08-1.14-42.02-0.63-62.97c-0.64,3.55-1.02,7.11-1.4,10.54v0.13c-0.63,5.97-9.65,5.08-9.01-0.89
				c1.9-19.8,6.73-38.85,12.44-57.51c1.4-20.19,5.84-79.73,20.31-94.2c1.4-1.27,3.05-2.16,4.82-1.65c1.78,0.51,2.79,2.16,3.3,3.94
				c5.59,17.77-13.08,64.24-24.12,108.55c0,24.63,1.27,55.73,2.67,80.49c6.35-17.14,23.87-60.81,42.15-60.69
				c21.71,0,1.78,49.51,29.45,51.04c15.87,1.14,28.95-21.96,35.42-36.56C225.78,381.41,230.09,383.69,228.44,386.36z M115.2,317.93
				c10.16-31.61,22.09-64.37,19.68-75.29c-0.25-1.65-0.51-1.9-1.78-0.76C119.39,252.93,115.83,300.28,115.2,317.93z"/>
			<path d="M317.7,383.69c1.52,0,3.05,1.4,2.16,3.3c-5.08,10.92-17.52,35.04-32.12,35.04c-6.98,0-12.95-5.97-15.49-19.55
				c-1.4-8-1.78-17.77-2.03-27.3c-0.25-6.73-0.38-9.14-0.89-9.14c-0.38,0-0.89,1.4-1.78,3.43c-1.78,3.81-3.68,8.76-5.08,12.82
				l0.13,0.13c0.76,3.17,1.27,6.35,1.52,9.65c0.25,2.67-1.9,4.95-4.44,4.95c-0.63,0-1.4-0.25-2.03-0.51
				c-3.43,10.41-9.14,28.82-19.81,28.06c-17.65-0.89-18.79-40.88-6.98-55.99c3.17-4.06,7.62-6.22,12.19-6.22
				c6.35,0,12.95,4.06,16.89,12.57c1.27-4.44,4.57-15.62,10.03-15.62c3.17,0,5.84,4.57,5.71,15.87
				c-0.13,10.54-0.25,18.92,0.76,26.66c1.65,11.68,5.97,16.76,11.43,16.76c12.7,0,24.12-23.74,27.8-33.39
				C316.05,384.2,316.94,383.69,317.7,383.69z M255.11,393.09c-2.29-18.54-7.74-23.49-12.44-23.49c-2.67,0-5.21,1.65-6.6,3.3
				c-10.16,11.68-10.41,46.59,2.03,47.61C246.22,421.4,252.7,401.09,255.11,393.09z"/>
			<path d="M422.82,384.83c-2.28,0.63-23.74,4.82-40.37,12.19c0.13,15.24-3.94,35.93-14.85,46.09c-4.06,3.68-8.13,5.21-11.81,5.21
				c-13.46,0-20.69-21.84,5.97-42.78c4.06-3.17,8.25-5.84,12.82-8.13c-0.25-10.28-2.79-33.77-17.01-33.77
				c-19.17,0-31.11,49.64-33.77,69.32c0.76,4.32-0.25,10.41-1.02,14.73c-0.25,20.44-0.13,52.18-5.84,64.87
				c-2.03,4.44-5.21,6.86-8,6.86s-5.21-2.67-5.21-8.51c0.25-13.2,8.25-41.39,11.05-62.97c0.25-2.16,1.4-11.81,0.13-13.46
				c-1.9-2.29-1.27-5.71,1.4-7.11c-0.89-20.69-2.41-55.61,1.02-75.29c0.38-2.67,2.41-3.81,4.44-3.81c2.54,0,5.2,2.03,4.57,5.33
				c-2.92,18.28-3.17,34.41-3.3,61.45c5.33-19.3,16.76-58.15,36.31-57.38c15.87,0.38,22.22,19.93,22.98,36.18
				c11.68-4.95,27.42-9.14,39.61-12.32C424.09,381.03,424.98,384.33,422.82,384.83z M317.45,470.4
				c-2.54,10.03-8.25,30.98-8.76,40.63c-0.13,2.54,0.25,3.56,0.89,3.56c1.02,0,2.54-2.92,3.05-4.06
				C317.06,501.13,317.45,480.81,317.45,470.4z M374.58,400.83c-3.81,2.16-7.49,4.57-10.79,7.24
				c-21.33,17.14-17.65,35.04-8.63,35.04c2.54,0,5.33-1.27,8.25-4.32C371.53,430.29,374.32,412.76,374.58,400.83z"/>
			<path d="M528.07,384.83c-2.28,0.63-23.74,4.82-40.37,12.19c0.13,15.24-3.94,35.93-14.85,46.09c-4.06,3.68-8.13,5.21-11.81,5.21
				c-13.46,0-20.69-21.84,5.97-42.78c4.06-3.17,8.25-5.84,12.82-8.13c-0.25-10.28-2.79-33.77-17.01-33.77
				c-19.17,0-31.11,49.64-33.77,69.32c0.76,4.32-0.25,10.41-1.02,14.73c-0.25,20.44-0.13,52.18-5.84,64.87
				c-2.03,4.44-5.21,6.86-8,6.86s-5.21-2.67-5.21-8.51c0.25-13.2,8.25-41.39,11.05-62.97c0.25-2.16,1.4-11.81,0.13-13.46
				c-1.9-2.29-1.27-5.71,1.4-7.11c-0.89-20.69-2.41-55.61,1.02-75.29c0.38-2.67,2.41-3.81,4.44-3.81c2.54,0,5.2,2.03,4.57,5.33
				c-2.92,18.28-3.17,34.41-3.3,61.45c5.33-19.3,16.76-58.15,36.31-57.38c15.87,0.38,22.22,19.93,22.98,36.18
				c11.68-4.95,27.42-9.14,39.61-12.32C529.34,381.03,530.23,384.33,528.07,384.83z M422.7,470.4c-2.54,10.03-8.25,30.98-8.76,40.63
				c-0.13,2.54,0.25,3.56,0.89,3.56c1.02,0,2.54-2.92,3.05-4.06C422.32,501.13,422.7,480.81,422.7,470.4z M479.83,400.83
				c-3.81,2.16-7.49,4.57-10.79,7.24c-21.33,17.14-17.65,35.04-8.63,35.04c2.54,0,5.33-1.27,8.25-4.32
				C476.78,430.29,479.57,412.76,479.83,400.83z"/>
			<path d="M573.4,387.12c-5.59,9.27-11.17,18.92-17.65,26.41c-10.66,12.44-22.85,9.4-27.3-6.47c-3.43-12.19-3.43-27.3-1.78-38.6
				c0.38-2.54,2.67-4.19,5.21-3.81c2.54,0.38,4.32,2.92,3.81,5.46c-2.29,9.52-4.06,23.36-1.52,34.41
				c3.43,14.85,10.79,19.17,20.69,7.36c6.35-7.62,11.05-17.27,15.74-26.03C571.88,383.44,574.54,385.22,573.4,387.12z
				 M528.07,352.84c0-2.92,2.29-5.21,5.08-5.21c2.79,0,5.21,2.28,5.21,5.21c0,2.79-2.41,5.08-5.21,5.08
				C530.36,357.92,528.07,355.63,528.07,352.84z"/>
			<path d="M677.38,386.36c-4.7,9.65-9.14,21.71-15.23,30.98c-12.06,18.16-24.25,22.22-30.47-1.78c-4.06-16-5.46-35.42-17.9-33.26
				c-15.62,2.79-29.33,47.61-31.36,61.07c-1.02,6.09-9.9,5.97-10.54-0.13c-2.54-23.74-4.95-47.74-0.63-71.1
				c0.38-2.41,2.79-4.06,5.21-3.68c4.32,0.76,3.68,5.21,3.68,5.33c-2.29,14.47-1.78,31.49-0.76,46.21
				c4.95-16.51,18.28-41.64,33.14-43.55c17.77-2.16,18.28,21.33,22.09,38.59c4.95,22.98,15.74,17.27,25.52,0.76
				c5.71-9.39,9.27-21.58,13.08-31.23C674.33,381.66,678.65,383.56,677.38,386.36z"/>
			<path d="M754.7,382.8c1.52,0,3.17,1.65,2.03,3.56c-12.57,20.31-28.69,43.8-55.35,43.8c-20.44,0-30.22-17.77-29.58-36.94
				c1.02-24.63,16.25-34.28,28.69-34.28c11.05,0,19.81,7.74,13.58,19.42c-5.84,11.17-21.46,14.6-34.02,14.6
				c-1.27,17.27,6.47,31.99,24.38,31.99c25.01,0,38.47-20.82,48.37-40.88C753.3,383.18,753.94,382.8,754.7,382.8z M700.23,367.82
				c-5.97,0-14.6,4.32-18.41,16c8.13-0.51,20.19-2.67,24.12-9.78C707.98,370.36,704.93,367.82,700.23,367.82z"/>
			<path d="M826.94,386.99c-19.04,0.25-41.13,8.25-56.62,22.73c5.46,8.38,8.63,12.82,12.06,18.79c11.68,20.95,1.9,30.47-10.41,30.98
				c-22.09,0.89-39.48-21.96-7.74-50.28c-4.82-8.38-11.81-20.31-14.09-29.83c-5.59-21.84,13.84-39.36,28.31-38.47
				c14.35,1.02,17.01,22.72,11.3,34.53c-1.78,3.68-3.94,5.33-4.06,5.46c-2.03,1.65-4.82,1.4-6.47-0.51
				c-1.65-2.03-1.52-5.08,0.76-6.6c5.21-3.94,6.22-24.25-2.16-25.27c-9.65-1.02-26.03,12.44-22.73,29.71
				c1.78,9.52,7.74,19.55,12.95,27.8c16.38-13.08,37.83-21.08,58.78-22.35C829.1,383.44,829.22,386.99,826.94,386.99z M766.63,413.4
				c-25.52,27.68-4.95,39.99,5.33,38.47c6.47-1.02,10.92-7.24,4.7-20.31C773.87,425.84,769.81,418.86,766.63,413.4z"/>
			<path d="M900.45,386.99c-19.04,0.25-41.13,8.25-56.62,22.73c5.46,8.38,8.63,12.82,12.06,18.79c11.68,20.95,1.9,30.47-10.41,30.98
				c-22.09,0.89-39.48-21.96-7.74-50.28c-4.82-8.38-11.81-20.31-14.09-29.83c-5.59-21.84,13.84-39.36,28.31-38.47
				c14.35,1.02,17.01,22.72,11.3,34.53c-1.78,3.68-3.94,5.33-4.06,5.46c-2.03,1.65-4.82,1.4-6.47-0.51
				c-1.65-2.03-1.52-5.08,0.76-6.6c5.21-3.94,6.22-24.25-2.16-25.27c-9.65-1.02-26.03,12.44-22.73,29.71
				c1.78,9.52,7.74,19.55,12.95,27.8c16.38-13.08,37.83-21.08,58.78-22.35C902.61,383.44,902.73,386.99,900.45,386.99z
				 M840.14,413.4c-25.52,27.68-4.95,39.99,5.33,38.47c6.47-1.02,10.92-7.24,4.7-20.31C847.38,425.84,843.32,418.86,840.14,413.4z"
				/>
		</g>
		<g>
			<path d="M92.14,560.64c-8.41-21.15,14.67-26.2,14.67-51.17c0-11.31-8.91-21.4-27.63-21.4c-18.04,0-27.63,10.09-27.63,21.4
				c0,24.98,23.05,30.02,14.89,51.17c-6.26,16.07-21.87,30.74-21.87,49.71c0,14.92,14.64,29.56,34.61,29.56
				c19.93,0,34.82-14.64,34.82-29.56C114.01,591.38,98.41,576.7,92.14,560.64z"/>
			<path d="M217.07,586.33c-5.05-29.31-27.63-39.65-37.93-44.91c-13.45-6.98-11.06-17.57,2.86-12.02
				c13.96,5.76,26.91-8.91,24.05-22.37c-1.93-10.09-12.99-18.97-37-18.97c-19.97,0-40.37,11.06-40.37,30.53
				c0,18,16.57,30.02,31.24,38.68c8.87,5.26,12.49,11.02,7.44,12.7c-10.59,3.61-15.85-12.49-28.13-12.49
				c-32.92,0-29.06,82.42,30.03,82.42C209.88,639.9,220.22,605.3,217.07,586.33z"/>
			<path d="M405.42,510.39v-0.14c-0.21-11.13-10.27-22.19-28.77-22.19c-18.04,0-28.84,11.31-28.84,22.58
				c0,24.98,22.83,30.99,16.1,49.99c-7.23,19.93-25.48-31.74-35.82-55.04c-1.25-2.79-2.58-5.15-4.04-7.16
				c-0.86,6.26-2.08,11.7-3.83,15.57c-2.54,5.55-6.83,8.98-11.27,8.98c-4.04,0-8.77-3.15-8.77-12.1c0.11-5.65,1.5-13.74,3.33-22.72
				c-1.11-0.07-2.29-0.11-3.51-0.11c-18.04,0-27.63,10.09-27.63,21.4c0,24.98,24.26,30.02,16.1,51.17
				c-6.26,16.07-23.08,30.74-23.08,49.71c0,14.92,13.45,29.56,33.39,29.56c2.68,0,5.3-0.29,7.73-0.75
				c2.15-30.1,5.26-53.14,9.45-69.43c-1.61-2.97-3.04-6.01-4.19-9.09c-4.54-11.92,2.04-18.39,8.7-4.9
				c2.22-5.37,4.65-9.34,7.34-12.02c2.11-1.93,4.22-2.83,6.33-2.83c0.68,0,1.36,0.07,2,0.29c2.76,0.79,4.83,3.04,5.76,6.37
				c2.86,9.13,0.07,24.41-4.9,42.94c3.26,6.8,6.66,13.89,10.31,21.08c7.48,14.17,14.92,28.34,34.14,28.34
				c14.17,0,23.76-10.31,23.76-25.23c0-21.87-11.99-37.72-18-54.04c-6.91-18.36,17.86-24.91,18.21-49.42v-0.14
				c0.04-0.14,0.04-0.29,0.04-0.43C405.45,510.54,405.45,510.46,405.42,510.39z M332.27,607.12c-1,3.4-2.04,6.87-3.08,10.38
				c-0.97,3.18-1.9,6.41-2.86,9.63c3.9-4.94,6.08-10.81,6.08-16.78C332.41,609.27,332.38,608.2,332.27,607.12z"/>
			<path d="M469.37,488.06c-17.46,0-31.56,7.84-41.94,20.18c-0.57,2.18-1.22,4.12-1.97,5.76c-1.72,3.76-4.22,6.55-7.05,7.94
				c-7.23,13.92-11.02,30.78-11.02,48.03c0,42.05,27.63,69.93,61.98,69.93c34.14,0,61.98-27.88,61.98-69.93
				C531.35,527.96,508.55,488.06,469.37,488.06z M469.37,571.91c-8.87,0-15.85-7.69-15.85-24.01c0-16.35,5.76-34.86,15.85-34.86
				c10.09,0,15.85,18.5,15.85,34.86C485.22,564.21,478.03,571.91,469.37,571.91z"/>
			<path d="M652.2,514.97l-2.15-12.02c-1.68-9.59-7.91-14.89-19.93-14.89h-75.94c-11.99,0-18.25,5.3-19.93,14.89l-2.15,12.02
				c-2.18,15.14,3.11,23.55,13.67,23.55c13.45,0,20.68-18.97,25.73-28.59c2.86-5.05,7.66-5.05,7.66,9.63
				c0,4.8-0.71,11.27-3.36,19.68c-5.26,16.35-18.25,43.73-18.25,62.7c0,24.51,16.35,37.97,34.6,37.97s34.85-13.46,34.85-37.97
				c0-18.97-12.99-46.34-18.5-62.7c-2.65-8.41-3.15-14.89-3.15-19.68c0-14.67,4.58-14.67,7.44-9.63
				c5.04,9.63,12.27,28.59,25.73,28.59C649.09,538.52,654.63,530.11,652.2,514.97z"/>
			<path d="M796.6,553.66c-5.26-2.9-4.79-4.08-0.46-7.23c8.16-5.98,16.35-15.1,16.35-29.77c0-17.54-16.1-28.59-31.74-28.59
				c-12.95,0-21.36,4.33-26.41,8.16c-4.08,3.15-7.23,2.4-11.52-1.68c-4.83-4.08-11.56-6.48-19.72-6.48
				c-18.5,0-24.51,14.67-19.47,25.69c6.01,12.99,15.85,11.31,15.85,26.7c0,22.8-19.22,44.66-19.22,69.43
				c0,14.67,10.09,30.02,30.03,30.02c3.86,0,6.98-0.97,9.63-2.15c11.06-5.3,15.39-1.68,19.93-0.25c4.83,1.68,10.34,2.4,16.1,2.4
				c21.4,0,44.2-22.08,44.2-47.81C820.14,574.31,808.16,559.88,796.6,553.66z M749.54,524.81c2.86-8.41,12.96-17.03,21.36-14.17
				c8.91,3.11,3.62,24.76-12.95,30.02C746.39,544.28,747.61,530.36,749.54,524.81z M779.81,576.24c-2.9,8.66-22.62,10.09-29.56-1.43
				c-3.86-6.51-3.86-17.54,8.16-16.1C773.55,560.64,782.21,569.05,779.81,576.24z"/>
			<path d="M905.92,562.32c14.21-10.34,49.49-26.7,49.49-49.03c0-12.02-11.02-25.23-29.31-25.23c-15.14,0-29.31,8.66-31.46,24.26
				c-1.93,13.46,2.15,16.82,0.46,26.2c-0.71,4.33-5.76,7.91-9.12,7.91c-3.61,0-8.66-3.58-9.38-7.91c-1.68-9.38,2.65-12.74,0.72-26.2
				c-2.4-15.6-16.57-24.26-31.71-24.26c-18,0-29.31,13.21-29.31,25.23c0,22.33,35.32,38.68,49.74,49.03
				c18.25,13.46-14.89,27.13-14.89,48.03c0,14.92,14.89,29.56,34.82,29.56s34.61-14.64,34.61-29.56
				C920.6,589.44,887.42,575.77,905.92,562.32z"/>
		</g>
		<g>
			<path d="M300.37,690.72c1.27,0,2.54,1.4,1.4,2.79c-13.97,17.65-26.28,35.93-45.32,38.22c-37.33,4.06-36.56-62.21-9.27-73
				c2.41-0.89,4.7-1.4,6.73-1.4c12.06,0,15.49,15.49,7.49,28.44c-3.05,4.82-6.22,5.97-7.11,6.6c-0.89,0.51-1.78,0.76-2.67,0.76
				c-1.78,0-3.43-0.89-4.44-2.41c-2.29-3.81,1.02-8.51,5.33-7.74c1.02,0.25,2.41-0.51,3.68-1.52c7.36-6.47,6.22-19.17-1.78-19.17
				c-1.52,0-3.17,0.38-5.08,1.4c-15.36,8-25.26,66.02,4.95,66.02c20.19,0,35.17-23.11,44.69-38.21
				C299.35,690.85,299.86,690.72,300.37,690.72z"/>
			<path d="M428.09,693.39c-8.89,14.98-22.22,37.83-39.61,36.82c-28.69-1.27-13.97-49.39-29.33-48.75
				c-16.12,0.63-31.23,51.8-36.82,67.67c-3.05,8.38-4.06,13.58-9.14,13.46c-4.82-0.25-4.32-8.25-4.57-11.43
				c-1.02-21.08-1.14-42.02-0.63-62.97c-0.64,3.55-1.02,7.11-1.4,10.54v0.13c-0.63,5.97-9.65,5.08-9.01-0.89
				c1.9-19.8,6.73-38.85,12.44-57.51c1.4-20.19,5.84-79.73,20.31-94.2c1.4-1.27,3.05-2.16,4.82-1.65c1.78,0.51,2.79,2.16,3.3,3.94
				c5.59,17.77-13.08,64.24-24.12,108.55c0,24.63,1.27,55.73,2.67,80.49c6.35-17.14,23.87-60.81,42.15-60.68
				c21.71,0,1.78,49.51,29.45,51.04c15.87,1.14,28.95-21.96,35.42-36.56C425.42,688.44,429.74,690.72,428.09,693.39z M314.84,624.96
				c10.16-31.61,22.09-64.37,19.68-75.29c-0.25-1.65-0.51-1.9-1.78-0.76C319.03,559.96,315.48,607.31,314.84,624.96z"/>
			<path d="M517.34,690.72c1.52,0,3.05,1.4,2.16,3.3c-5.08,10.92-17.52,35.04-32.12,35.04c-6.98,0-12.95-5.97-15.49-19.55
				c-1.4-8-1.78-17.77-2.03-27.3c-0.25-6.73-0.38-9.14-0.89-9.14c-0.38,0-0.89,1.4-1.78,3.43c-1.78,3.81-3.68,8.76-5.08,12.82
				l0.13,0.13c0.76,3.17,1.27,6.35,1.52,9.65c0.25,2.67-1.9,4.95-4.44,4.95c-0.63,0-1.4-0.25-2.03-0.51
				c-3.43,10.41-9.14,28.82-19.81,28.06c-17.65-0.89-18.79-40.88-6.98-55.99c3.17-4.06,7.62-6.22,12.19-6.22
				c6.35,0,12.95,4.06,16.89,12.57c1.27-4.44,4.57-15.62,10.03-15.62c3.17,0,5.84,4.57,5.71,15.87
				c-0.13,10.54-0.25,18.92,0.76,26.66c1.65,11.68,5.97,16.76,11.43,16.76c12.7,0,24.12-23.74,27.8-33.39
				C515.69,691.23,516.58,690.72,517.34,690.72z M454.75,700.12c-2.29-18.54-7.74-23.49-12.44-23.49c-2.67,0-5.2,1.65-6.6,3.3
				c-10.16,11.68-10.41,46.59,2.03,47.61C445.86,728.43,452.34,708.12,454.75,700.12z"/>
			<path d="M621.96,693.39c-4.7,9.65-9.14,21.71-15.23,30.98c-12.06,18.16-24.25,22.22-30.47-1.78c-4.06-16-5.46-35.42-17.9-33.26
				c-15.62,2.79-29.33,47.61-31.36,61.07c-1.02,6.09-9.9,5.97-10.54-0.13c-2.54-23.74-4.95-47.74-0.63-71.1
				c0.38-2.41,2.79-4.06,5.21-3.68c4.32,0.76,3.68,5.21,3.68,5.33c-2.29,14.47-1.78,31.49-0.76,46.21
				c4.95-16.51,18.28-41.64,33.14-43.55c17.77-2.16,18.28,21.33,22.09,38.59c4.95,22.98,15.74,17.27,25.52,0.76
				c5.71-9.4,9.27-21.58,13.08-31.23C618.91,688.69,623.23,690.59,621.96,693.39z"/>
			<path d="M690.01,690.72c1.27,0,2.54,1.4,1.4,2.79c-13.97,17.65-26.28,35.93-45.32,38.22c-37.33,4.06-36.56-62.21-9.27-73
				c2.41-0.89,4.7-1.4,6.73-1.4c12.06,0,15.49,15.49,7.49,28.44c-3.05,4.82-6.22,5.97-7.11,6.6c-0.89,0.51-1.78,0.76-2.67,0.76
				c-1.78,0-3.43-0.89-4.44-2.41c-2.29-3.81,1.02-8.51,5.33-7.74c1.02,0.25,2.41-0.51,3.68-1.52c7.36-6.47,6.22-19.17-1.78-19.17
				c-1.52,0-3.17,0.38-5.08,1.4c-15.36,8-25.26,66.02,4.95,66.02c20.19,0,35.17-23.11,44.69-38.21
				C688.99,690.85,689.5,690.72,690.01,690.72z"/>
			<path d="M770.12,689.83c1.52,0,3.17,1.65,2.03,3.56c-12.57,20.31-28.69,43.8-55.35,43.8c-20.44,0-30.22-17.77-29.58-36.94
				c1.02-24.63,16.25-34.28,28.69-34.28c11.05,0,19.81,7.74,13.58,19.42c-5.84,11.17-21.46,14.6-34.02,14.6
				c-1.27,17.27,6.47,31.99,24.38,31.99c25.01,0,38.47-20.82,48.37-40.88C768.73,690.21,769.36,689.83,770.12,689.83z
				 M715.66,674.85c-5.97,0-14.6,4.32-18.41,16c8.13-0.51,20.19-2.67,24.12-9.78C723.4,677.39,720.35,674.85,715.66,674.85z"/>
		</g>
		<g>
			<path d="M499.98,510.39c0.04,0.07,0.04,0.14,0.04,0.25c0,0.14,0,0.29-0.04,0.43V510.39z"/>
		</g>
	</g>
	<g>
		<path d="M169.16,719.66c-0.49,0.08-0.98,0.02-1.46-0.19c-5.19-2.25-10.67-4.95-16.77-8.25l-0.45-0.24
			c-7.68-4.15-16.39-8.86-21.8-15.75c-2.39-3.05-3.28-6.68-2.37-9.73c0.78-2.63,2.81-4.57,5.86-5.6c0.54-0.18,1.1-0.32,1.65-0.42
			c7.04-1.19,13.99,4.79,19.86,10.81c0.77,0.79,1.59,1.66,2.5,2.67l1.89,2.08l-0.3-2.79c-0.57-5.22-0.23-9.88,1.03-14.25
			c1.51-5.23,5.47-11.71,11.69-12.77c2.06-0.35,4.21-0.06,6.4,0.87c9.56,4.05,7.69,15.89,4.61,26.93
			c-2.26,8.07-5.53,16.31-9.73,24.5C171.16,718.67,170.17,719.49,169.16,719.66L169.16,719.66z M171.36,671.62
			c-1.49,0.25-2.83,1.1-3.89,2.45c-1.38,1.76-2.43,4.25-3.1,7.38c-2,9.26,1.13,19.03,3.66,25.56l0.81,2.09l0.88-2.06
			c0.74-1.74,1.39-3.31,1.98-4.8l0.71-1.79c2.85-7.17,6.4-16.1,5.29-23.7c-0.26-1.79-1.11-3.29-2.39-4.22
			C174.16,671.71,172.76,671.38,171.36,671.62z M134.3,685.42c-0.71,0.12-1.95,0.6-2.32,2.5c-0.48,2.48,2.89,5.37,6.61,8.12
			c0.24,0.18,0.44,0.33,0.61,0.45c4.47,3.42,9.37,6.28,13.13,8.38c1.65,0.92,3.42,1.87,5.59,2.99l3.49,1.81l-2.34-3.16
			c-2.6-3.51-5.26-6.78-7.9-9.71C151.05,696.68,139.42,684.55,134.3,685.42z"/>
		<path d="M824.95,719.66c-1.01-0.17-2.01-0.99-2.59-2.14c-4.2-8.19-7.47-16.43-9.73-24.5c-3.09-11.04-4.95-22.87,4.61-26.93
			c2.19-0.93,4.34-1.22,6.4-0.87c6.21,1.05,10.18,7.54,11.69,12.77c1.26,4.37,1.6,9.03,1.03,14.25l-0.3,2.79l1.89-2.08
			c0.92-1.01,1.73-1.88,2.5-2.67c5.87-6.02,12.82-12.01,19.86-10.81c0.55,0.09,1.11,0.23,1.65,0.42c3.05,1.03,5.07,2.97,5.86,5.6
			c0.91,3.05,0.02,6.68-2.37,9.73c-5.41,6.89-14.12,11.6-21.8,15.75l-0.45,0.24c-6.09,3.3-11.58,5.99-16.77,8.25
			C825.93,719.68,825.43,719.74,824.95,719.66L824.95,719.66z M818.81,672.53c-1.28,0.93-2.13,2.43-2.39,4.22
			c-1.11,7.6,2.44,16.53,5.29,23.7l0.71,1.79c0.59,1.49,1.23,3.06,1.98,4.8l0.88,2.06l0.81-2.09c2.53-6.54,5.66-16.3,3.66-25.56
			c-0.68-3.13-1.72-5.62-3.1-7.38c-1.06-1.35-2.4-2.2-3.89-2.45C821.34,671.38,819.95,671.71,818.81,672.53z M842.94,696.8
			c-2.65,2.94-5.31,6.2-7.9,9.71l-2.34,3.16l3.49-1.81c2.16-1.12,3.94-2.07,5.59-2.99c3.77-2.1,8.66-4.96,13.13-8.38
			c0.16-0.12,0.37-0.28,0.61-0.45c3.72-2.75,7.09-5.64,6.61-8.12c-0.37-1.9-1.61-2.38-2.32-2.5
			C854.69,684.55,843.05,696.68,842.94,696.8z"/>
	</g>
</g>
</svg>


