<?xml version="1.0" encoding="utf-8"?>
<!-- Generator: Adobe Illustrator 24.0.0, SVG Export Plug-In . SVG Version: 6.00 Build 0)  -->
<svg version="1.1" xmlns="http://www.w3.org/2000/svg" xmlns:xlink="http://www.w3.org/1999/xlink" x="0px" y="0px"
	 viewBox="0 0 1000 1000" style="enable-background:new 0 0 1000 1000;" xml:space="preserve" width="500" height="500">
<style type="text/css">
	.st0{fill-rule:evenodd;clip-rule:evenodd;}
</style>
<g>
	<g>
		<path d="M978.37,547.6c-1.17-2.99-3.91-4.99-7.15-5.22c-3.77-0.26-9.58,0.59-17.36,5.3c1.48-5.88,2.64-13.72,0.08-18.73
			c-1.21-2.41-3.21-4.04-5.77-4.73c-2.15-0.58-4.22-0.12-5.82,1.29c-7.1,6.26-3.81,33.56-3.07,38.96c0.11,0.82,0.58,1.51,1.23,1.92
			c0.47,0.3,1.04,0.45,1.63,0.41c2.69-0.18,26.49-2.06,34.57-10.65C978.89,553.83,979.53,550.55,978.37,547.6z M945.91,529.56
			c0.16-0.15,0.32-0.28,0.86-0.13c1.07,0.29,1.82,0.91,2.36,1.96c2.36,4.66-0.74,18.96-5.23,25.93
			C942.76,544.8,943.13,532.01,945.91,529.56z M972.77,552.44c-4.49,4.78-17.34,7.35-25.73,8.42c10.58-12.83,20-13.36,23.81-13.1
			c0.51,0.04,0.99,0.2,1.38,0.45c0.49,0.32,0.87,0.78,1.11,1.36C973.52,550.05,973.85,551.3,972.77,552.44z"/>
	</g>
	<g>
		<path d="M522.98,381.64c0.08-0.15,0.32-0.27,0.51-0.3c0.34-0.07,0.7-0.06,1.05-0.08c0.67-0.04,1.34-0.17,2-0.12
			c2.02,0.13,3.81,0.93,5.5,2.02c0.68,0.43,1.32,0.92,1.98,1.39c0.02-0.01,0.04-0.03,0.06-0.04c0.15-0.17,0.32-0.32,0.51-0.43
			c-1.45-2.07-3.1-3.92-5.4-5.05c-1.13-0.55-2.3-0.95-3.58-0.57c-0.11,0.03-0.23,0.04-0.34,0.02c-0.18-0.03-0.3-0.1-0.34-0.24
			c-0.02-0.07-0.02-0.14,0-0.24c0.01-0.02,0.01-0.05,0.01-0.07c0.02-0.07,0.04-0.14,0.08-0.19c0.01-0.03,0.03-0.05,0.06-0.08
			c0.02-0.02,0.04-0.04,0.06-0.06c0.02-0.02,0.05-0.03,0.08-0.04c0.09-0.04,0.19-0.04,0.31-0.02c0.33,0.06,0.67,0.2,1,0.21
			c1.6,0.08,2.99,0.71,4.28,1.6c1.7,1.18,3.02,2.72,4.19,4.4c0.03,0.04,0.06,0.08,0.08,0.13c0.3-0.07,0.62-0.07,0.93,0.02
			c0.18,0.05,0.34,0.12,0.48,0.21c0-0.01-0.01-0.02,0-0.03c0.03,0.03,0.07,0.07,0.11,0.1c0.01,0,0.01,0,0.01,0.01
			c0.02,0.02,0.04,0.04,0.07,0.05c-0.63-1.18-1.18-2.35-1.65-3.44c-0.02-0.05-0.04-0.1-0.06-0.15c-1.46-3.41-2.18-6.12-2.3-6.58
			c0-0.02-0.01-0.03-0.01-0.04c-0.01-0.02-0.01-0.03-0.01-0.03c-1.49-5.3-2.16-10.73-1.71-16.35c0.57-6.94,2.75-13.26,7.31-18.63
			c1.57-1.85,3.32-3.52,5.56-4.56c2.22-1.03,4.34-0.87,6.24,0.74c0.68,0.58,1.3,1.26,1.83,1.98c1.8,2.42,2.87,5.22,3.92,8.01
			c1.24,3.26,2.56,6.49,4.34,9.5c1.02,1.74,2.15,3.41,3.12,5.17c1.02,1.85,1.16,3.81,0.26,5.76c-0.38,0.83-0.87,1.63-1.4,2.38
			c-1.64,2.29-3.83,4.05-5.94,5.88c-0.87,0.75-1.72,1.54-2.56,2.34c-0.82,0.78-1.61,1.6-2.41,2.4c0.25-0.06,0.44-0.18,0.62-0.32
			c2.43-1.82,4.98-3.42,7.87-4.45c2.93-1.04,5.82-1.12,8.55,0.56c1.01,0.62,2.01,1.34,2.84,2.17c4.57,4.61,6.88,10.27,7.41,16.67
			c0.23,2.76-0.11,5.46-1.3,8c-1.08,2.31-2.97,3.28-5.46,2.76c-0.96-0.2-1.9-0.52-2.82-0.87c-1.12-0.43-2.16-1.06-3.29-1.42
			c-2.92-0.93-5.85-1.83-8.81-2.62c-2.73-0.73-5.44-1.52-8.01-2.67c0.26,0.32,0.49,0.63,0.71,0.94c0,0,0.01,0,0,0.01
			c0.37,0.53,0.66,1.03,0.9,1.47c0.45,0.85,0.67,1.47,0.72,1.64c0.01,0.03,0.02,0.05,0.02,0.05c0.05,0.14,0.1,0.29,0.15,0.45
			c0.14,0.53-0.15,0.82-0.69,0.73c-0.43-0.07-0.87-0.2-1.25-0.4c-2.7-1.45-4.99-3.39-6.83-5.85c-0.43-0.57-0.96-1.02-1.58-1.38
			c-0.8-0.47-1.64-0.93-2.34-1.53c-1.45-1.24-2.71-2.62-2.51-4.77c-0.15,0.05-0.29,0.1-0.43,0.14c-0.91,0.25-1.73-0.14-1.97-1.05
			c-0.11-0.4-0.1-0.83-0.07-1.26c0-0.02,0-0.05,0.01-0.08c0.01-0.07,0.01-0.13,0.02-0.19c0.02-0.25,0.01-0.39-0.19-0.53
			c-0.7-0.48-1.37-1-2.09-1.44c-1.49-0.92-3.09-1.56-4.87-1.7c-1-0.08-1.96,0.01-2.85,0.54c-0.16,0.1-0.47,0.11-0.62,0.01
			C522.93,382.14,522.9,381.79,522.98,381.64z"/>
		<path d="M376.44,322.42c-0.08-0.15-0.32-0.27-0.51-0.3c-0.34-0.07-0.7-0.06-1.05-0.08c-0.67-0.04-1.34-0.17-2-0.12
			c-2.02,0.13-3.81,0.93-5.5,2.02c-0.68,0.43-1.32,0.92-1.98,1.39c-0.02-0.01-0.04-0.03-0.06-0.04c-0.15-0.17-0.32-0.32-0.51-0.43
			c1.45-2.07,3.1-3.92,5.4-5.05c1.13-0.55,2.3-0.95,3.58-0.57c0.11,0.03,0.23,0.04,0.34,0.02c0.18-0.03,0.3-0.1,0.34-0.24
			c0.02-0.07,0.02-0.14,0-0.24c-0.01-0.02-0.01-0.05-0.01-0.07c-0.02-0.07-0.04-0.14-0.08-0.19c-0.01-0.03-0.03-0.05-0.06-0.08
			c-0.02-0.02-0.04-0.04-0.06-0.06c-0.02-0.02-0.05-0.03-0.08-0.04c-0.09-0.04-0.19-0.04-0.31-0.02c-0.33,0.06-0.67,0.2-1,0.21
			c-1.6,0.08-2.99,0.71-4.28,1.6c-1.7,1.18-3.02,2.72-4.19,4.4c-0.03,0.04-0.06,0.08-0.08,0.13c-0.3-0.07-0.62-0.07-0.93,0.02
			c-0.18,0.05-0.34,0.12-0.48,0.21c0-0.01,0.01-0.02,0-0.03c-0.03,0.03-0.07,0.07-0.11,0.1c-0.01,0-0.01,0-0.01,0.01
			c-0.02,0.02-0.04,0.04-0.07,0.05c0.63-1.18,1.18-2.35,1.65-3.44c0.02-0.05,0.04-0.1,0.06-0.15c1.46-3.41,2.18-6.12,2.3-6.58
			c0-0.02,0.01-0.03,0.01-0.04c0.01-0.02,0.01-0.03,0.01-0.03c1.49-5.3,2.16-10.73,1.71-16.35c-0.57-6.94-2.75-13.26-7.31-18.63
			c-1.57-1.85-3.32-3.52-5.56-4.56c-2.22-1.03-4.34-0.87-6.24,0.74c-0.68,0.58-1.3,1.26-1.83,1.98c-1.8,2.42-2.87,5.22-3.92,8.01
			c-1.24,3.26-2.56,6.49-4.34,9.5c-1.02,1.74-2.15,3.41-3.12,5.17c-1.02,1.85-1.16,3.81-0.26,5.76c0.38,0.83,0.87,1.63,1.4,2.38
			c1.64,2.29,3.83,4.05,5.94,5.88c0.87,0.75,1.72,1.54,2.56,2.34c0.82,0.78,1.61,1.6,2.41,2.4c-0.25-0.06-0.44-0.18-0.62-0.32
			c-2.43-1.82-4.98-3.42-7.87-4.45c-2.93-1.04-5.82-1.12-8.55,0.56c-1.01,0.62-2.01,1.34-2.84,2.17
			c-4.57,4.61-6.88,10.27-7.41,16.67c-0.23,2.76,0.11,5.46,1.3,8c1.08,2.31,2.97,3.28,5.46,2.76c0.96-0.2,1.9-0.52,2.82-0.87
			c1.12-0.43,2.16-1.06,3.29-1.42c2.92-0.93,5.85-1.83,8.81-2.62c2.73-0.73,5.44-1.52,8.01-2.67c-0.26,0.32-0.49,0.63-0.71,0.94
			c0,0-0.01,0,0,0.01c-0.37,0.53-0.66,1.03-0.9,1.47c-0.45,0.85-0.67,1.47-0.72,1.64c-0.01,0.03-0.02,0.05-0.02,0.05
			c-0.05,0.14-0.1,0.29-0.15,0.45c-0.14,0.53,0.15,0.82,0.69,0.73c0.43-0.07,0.87-0.2,1.25-0.4c2.7-1.45,4.99-3.39,6.83-5.85
			c0.43-0.57,0.96-1.02,1.58-1.38c0.8-0.47,1.64-0.93,2.34-1.53c1.45-1.24,2.71-2.62,2.51-4.77c0.15,0.05,0.29,0.1,0.43,0.14
			c0.91,0.25,1.73-0.14,1.97-1.05c0.11-0.4,0.1-0.83,0.07-1.26c0-0.02,0-0.05-0.01-0.08c-0.01-0.07-0.01-0.13-0.02-0.19
			c-0.02-0.25-0.01-0.39,0.19-0.53c0.7-0.48,1.37-1,2.09-1.44c1.49-0.92,3.09-1.56,4.87-1.7c1-0.08,1.96,0.01,2.85,0.54
			c0.16,0.1,0.47,0.11,0.62,0.01C376.49,322.93,376.52,322.58,376.44,322.42z"/>
		<g>
			<g>
				<path d="M351.08,480.8c-40.42,12.52-79.54,30.07-116.57,50.46c-6.14,3.38-12.34,6.88-18.53,10.5c2.57,0.86,5.13,1.73,7.71,2.58
					c20.33,6.77,41.25,15.08,55.16,32.18c26.72,32.88,19.48,80.74-5.76,112.01c-25.68,31.81-70.56,55.03-112.03,52.02
					c-43.67-3.17-66.22-39.24-61.84-80.94c3.41-32.57,24.45-58.29,48.1-79.44c14.09-12.6,29.33-24.3,45.36-35.12
					c-43.58-14.5-89.24-31.85-126.7-57.73c-33.93-23.44-55.47-59.95-39.61-101.25c16.51-42.98,58.82-76.76,97.86-98.68
					c39.04-21.92,88.72-34.91,131.85-16.83c17.88,7.49,32.27,21.57,34.94,41.44c3.24,24.11-9.64,46.65-20.23,67.33
					c-5.17,10.1-21.56,0.32-15.08-8.82c20.06-28.27,35.1-70.32-5.7-87.84c-28.7-12.32-62.42-8.24-91.03,2.12
					c-29.41,10.65-56.23,28.79-79.42,49.56c-22.28,19.96-46.55,47.11-47.39,78.76c-1.45,55.49,65.68,81.82,107.64,100.08
					c21.06,9.16,42.49,17.04,64.14,24.47c44.95-28.53,95.42-50.39,144.66-65.79C354.31,470.11,356.74,479.04,351.08,480.8z
					 M204.18,548.84c-29.18,17.99-57.26,39.26-77.37,66.37c-25.48,34.34-30.91,98.53,19.37,113.61
					c46.72,14.01,105.95-19.14,128.73-59.57c13.14-23.31,15.75-53.65,2.36-77.5c-14.5-25.81-44.36-33.58-70.56-42.07
					C205.87,549.39,205.02,549.11,204.18,548.84z"/>
				<path d="M416.19,515.21c-11.02,15.75-32.91,29.82-46.37,9.93c-5.05-7.46,8.87-13.94,11.54-4.87c3.41,11.57,20.9-5.38,23.53-8.59
					c6.89-8.38,10.76-19.33,10.47-30.18c-0.51-19.22-18.91-3.71-25.48,3.28c-6.88,7.32-12.66,15.63-17.45,24.45
					c-21.38,39.39-22.49,86.81-21.4,130.57c0.19,7.53-10.71,7.17-11.46,0c-2.95-28.26-3.09-56.87-1.29-85.22
					c1.8-28.36,7.29-56,10.36-84.17c1.75-16.04,25.3-10.58,20.47,2.77c-4.62,12.77-8.14,25.99-10.82,39.47
					c5.01-10.85,11.22-21.13,18.88-30.35c7.65-9.2,19.64-23.13,32.81-23.55C437.27,457.92,424.79,502.92,416.19,515.21z"/>
				<path d="M603.99,483.33c-7.62,17.99-18.4,50.46-41.88,52.32c-22.1,1.76-32.29-25.85-38.11-44.57
					c-19.27,9.57-59.51,38.25-72.11,13.65c-7.74-15.1,7.7-33.97,18.74-42.33c16.76-12.7,38.69-14.51,58.31-7.78
					c16.61,5.71,4.91,30.11-9.01,21.36c-14.55-9.14-31.83-8.76-45.14,2.77c-4.11,3.55-17.71,17.48-5.85,22.99
					c3.11,1.44,11.74-2.4,14.86-3.52c14.57-5.25,27.61-14.62,42.16-19.57c2.76-0.94,5.82,1.08,6.57,3.73
					c3.73,13.16,12.49,48.11,31.77,42.46c15.76-4.62,25.39-31.77,29.71-45.72C596.32,471.59,607.09,476.02,603.99,483.33z"/>
				<path d="M667.89,472.02c-19.51-4.66-37.52,25.29-45.47,38.91c-8.9,15.25-15.48,31.62-20.47,48.53
					c-1.88,6.36-10.62,4.69-11.09-1.5c-1.02-13.61-1.43-27.06-0.91-40.71c0.49-13,5.53-30.24,2.73-42.91
					c-4.46-20.25,28.66-12.62,18.6,2.43c-7.41,11.1-6.62,30.23-7.62,43.11c-0.1,1.27-0.17,2.54-0.26,3.81
					c5.66-12.26,12.4-24.01,20.58-34.78c11.08-14.6,26.58-32.02,46.72-27.09C677.33,463.43,674.51,473.59,667.89,472.02z"/>
				<path d="M765.65,526.83c-4.42,24.69-31.53-12.9-35.46-17.79c-3.64-4.54-7.56-8.77-9.46-13.66
					c-9.34,22.33-13.02,46.17-12.82,73.41c0.05,7.26-10.96,7.2-11.23,0c-2.79-75.76,1.15-151.34,6.96-226.87
					c0.85-11.01,18.33-10.64,16.97,0c-6.4,50.31-10.05,100.56-11.69,151c7.41-17.35,18.43-32.68,30.58-47.16
					c3.99-4.75,10.54,1.34,8.09,6.25c-4.91,9.86-14.66,22.63-16.71,33.53c-1.65,8.77,6.62,16.71,11.54,22.89
					c1.37,1.72,13.89,14.85,13.71,15.79C757.3,517.97,766.76,520.64,765.65,526.83z"/>
				<path d="M801.5,466.91c-0.79,35.68,0.57,71.28,3.27,106.85c0.56,7.4-10.68,7.19-11.42,0c-3.77-36.47-5.36-73.17-5.01-109.82
					c0.18-18.82,0.96-37.62,2.04-56.4c1.01-17.61,4.07-35.6,2.7-53.22c-1.12-14.41,23.96-11.21,19.28,2.61
					c-6.32,18.68-6.91,39.9-8.43,59.5C802.62,433.22,801.88,450.07,801.5,466.91z"/>
				<path d="M967.12,478.92c-20.78,27.69-94.24,94.31-125.16,45.38c-14.66-23.2,1.09-69.32,30.57-72.59
					c12.57-1.39,22.89,6.37,17.97,19.52c-6.92,18.46-22.82,30.15-34.59,44.93c-1.04,1.3-2.17,2.14-3.33,2.61
					c4.04,6.91,11.31,11.44,22.33,10.86c31.69-1.66,65.19-31.79,83.4-55.85C962.21,468.59,971.07,473.66,967.12,478.92z
					 M848.74,500.14c10.42-6.14,19.16-17.85,25.15-27.7c1.57-2.32,2.91-4.78,4.01-7.37c-4.51-0.72-8.6,0.21-12.29,2.78
					c-6.16,3.81-10.17,10.26-13.02,16.69C850.4,489.52,849.09,494.89,848.74,500.14z"/>
			</g>
			<g>
				<path d="M388.25,672.65l-1.31,0.11l-1.97,0.11h-1.31l-2.95-0.22c-0.33,0-0.66-0.11-0.87-0.33l-0.87-0.66
					c-0.11-0.11-0.22-0.11-0.22-0.11l-0.77-0.77c-0.33-0.33-0.55-0.66-0.55-1.2l-0.22-2.73l-0.11-1.75v-0.33l0.22-1.64l-0.22-1.31
					v-0.33l0.11-1.31v-1.64l0.44-1.97l-0.44-0.98c-0.11-0.33-0.11-0.44-0.11-0.76l0.11-1.42l-0.11-1.64v-0.33l0.22-1.42l0.22-1.31
					v-1.86l0.11-1.75v-1.75l-0.11-1.42l-0.22-1.2v-0.44l0.22-1.86l-0.11-0.98v-0.33l0.22-1.75l-0.11-1.75l-0.11-1.31v-0.44
					l0.22-1.31l-0.22-1.53l-0.33-1.97v-1.97l0.33-1.31l0.22-1.31l-0.44-1.75v-1.75l0.22-1.97l-0.33-1.2v-0.44l0.11-1.64l-0.11-1.09
					c0-0.22,0.11-0.44,0.11-0.66l0.44-1.42l-0.11-1.42l-0.11-1.97l-0.22-0.87c-0.11-0.33,0-0.55,0-0.77l0.33-1.64l0.11-1.64
					l-0.44-1.2c-0.11-0.11-0.11-0.33-0.11-0.55v-1.42l0.44-2.95c0-0.33,0.11-0.44,0.22-0.66l0.55-0.77
					c0.11-0.22,0.44-0.55,0.66-0.66l0.77-0.44c0.11-0.11,0.33-0.11,0.44-0.11l2.95-0.55h0.66l1.31,0.22l1.75-0.33
					c0.22-0.11,0.33,0,0.55,0l1.09,0.11h3.17l3.61,0.22l1.2-0.22H397l1.53,0.11l0.98-0.22c0.22-0.11,0.66,0,0.87,0.11l1.09,0.22
					l1.53-0.33c0.22-0.11,0.55-0.11,0.77,0l1.31,0.33l1.64-0.11l1.64-0.22h1.31c0.11,0,0.33-0.11,0.55,0l1.42,0.33h1.42l1.86-0.22
					h0.44l2.51,0.11h1.75l1.97-0.22l0.33-0.11h0.98c0.11,0,0.22,0.11,0.33,0.11l1.75,0.33l1.2-0.22l1.86-0.11
					c0.11,0,0.44-0.11,0.66,0l2.4,0.66c0.22,0.11,0.33,0.11,0.44,0.22l0.77,0.44c0.22,0.22,0.44,0.33,0.55,0.55l0.66,1.09
					c0.11,0.22,0.22,0.22,0.22,0.44l0.44,2.08c0,0.22,0.11,0.33,0.11,0.55l-0.33,1.97c0,0.22-0.11,0.22-0.11,0.33l-0.44,1.09
					c-0.11,0.22-0.44,0.55-0.66,0.76l-0.55,0.44c-0.22,0.22-0.66,0.44-0.98,0.44l-2.95,0.11h-0.33l-1.64-0.22l-1.42-0.11l-1.64,0.11
					l-1.53-0.11h-1.42l-1.75,0.22l-1.53,0.22c-0.22,0-0.55,0-0.77-0.11l-0.76-0.33l-1.75,0.11l-1.64-0.11l-1.2,0.33h-0.55
					l-1.31-0.22l-1.64,0.33h-0.55l-1.42-0.33l-1.31,0.22h-0.44l-1.2-0.11l-1.64-0.11l-1.86,0.22h-1.53l-1.75-0.11l-0.98-0.11
					l-3.83,0.77l-0.98,0.87l-1.42,1.2l-0.11,3.5v1.42l-0.22,1.97l0.33,1.31v1.31l-0.44,1.75l0.11,1.75l-0.11,1.97l0.77,2.95
					l0.55,1.86l1.97,0.55l2.84,0.44l1.86,0.11l2.08-0.22h1.64l1.42,0.11l1.42-0.11h0.66l1.31,0.33l1.75-0.33h1.97l1.2,0.11
					l1.75,0.22l2.52,0.11c0.33,0,0.77,0.22,1.09,0.44l1.75,1.53c0.33,0.33,0.55,0.87,0.55,1.31l0.11,1.97v2.19
					c0,0.44-0.22,0.87-0.44,1.2l-0.55,0.55c-0.11,0.11-0.11,0.33-0.22,0.33l-1.2,0.76c-0.22,0.22-0.55,0.33-0.77,0.33l-3.17,0.11
					l-1.42-0.11h-1.86l-1.53,0.22h-0.44l-0.98-0.11h-2.08l-1.31-0.33h-1.64l-1.42,0.22h-0.44l-1.64-0.22l-1.42,0.33
					c-0.11,0-0.22,0.11-0.33,0.11h-3.5l-0.98,0.87l-1.42,1.86l-0.33,3.39v1.64l0.11,1.09v0.33l-0.22,1.86v1.09l0.44,1.42
					c0,0.22,0.11,0.44,0.11,0.66l-0.11,1.2l-0.44,1.97l0.44,3.06l0.87,1.75l1.97,0.55l3.28,0.44h2.84l1.53-0.11l1.53,0.11h1.64
					l2.08,0.11l1.31,0.11l1.53-0.22h1.75l1.64,0.11l1.42-0.11c0.11,0,0.33-0.11,0.55,0l1.09,0.22l1.86,0.11h1.75l1.42-0.22
					l0.98-0.11c0.22,0,0.44-0.11,0.66,0l1.64,0.33l1.42-0.22c0.11,0,0.22-0.11,0.33-0.11h2.84l0.33,0.11l1.09,0.11l3.06,0.22
					c0.44,0,0.87,0.33,1.2,0.66l0.55,0.55l0.66,0.55c0.33,0.33,0.77,0.87,0.77,1.31l0.11,1.86v0.33l-0.55,2.51v0.22l-0.44,1.09
					c-0.11,0.33-0.44,0.55-0.66,0.77l-0.66,0.44c-0.22,0.22-0.55,0.33-0.87,0.33l-3.17,0.22h-1.42l-1.86-0.22l-1.42,0.11h-1.75
					l-1.86-0.22l-1.53,0.11l-1.42-0.11l-1.53,0.33c-0.22,0.11-0.66,0-0.87-0.11l-0.66-0.11l-1.97-0.11l-1.31,0.11l-1.86,0.11h-0.66
					l-0.77-0.22l-2.19,0.22h-2.84c-0.11,0-0.33,0.11-0.55,0l-1.09-0.22l-1.53,0.33c-0.22,0.11-0.55,0-0.66,0l-1.53-0.11h-1.2
					l-2.19,0.11l-1.09-0.11l-1.42,0.11h-0.55L388.25,672.65z"/>
				<path d="M473.44,672.54c-0.11,0-0.44-0.11-0.55-0.22l-0.55-0.33c-0.44-0.22-0.76-0.55-0.87-1.09l-0.66-2.19l-0.77-1.2
					c-0.11-0.11-0.22-0.33-0.22-0.66l-0.22-1.09l-0.77-1.75c0-0.11-0.11-0.11-0.11-0.33l-0.33-1.31l-0.66-1.09
					c0-0.11-0.11-0.22-0.11-0.33l-0.44-1.2l-0.66-1.53c0-0.11-0.11-0.22-0.11-0.44l-0.22-1.53l-0.77-1.09
					c0-0.11-0.11-0.11-0.11-0.22l-0.65-1.42l-0.44-1.53l-0.77-1.64l-0.44-1.42l-0.55-1.53l-0.66-1.64l-0.44-1.64l-0.44-1.31
					l-0.77-1.75l-1.31-2.62c0-0.11-0.11-0.11-0.11-0.22l-0.55-1.64l-0.55-1.42l-0.55-1.53l-0.33-1.75l-0.33-1.64l-0.66-1.31
					l-0.66-1.64l-0.66-1.42l-0.66-1.64l-0.55-1.2l-0.11-0.22l-0.44-1.64l-0.66-1.2c0-0.11-0.11-0.22-0.11-0.33l-0.44-1.42
					l-0.66-1.64l-0.11-0.22l-0.22-1.09l-0.44-1.64l-0.77-0.87c-0.22-0.33-0.44-0.55-0.44-0.98v-1.09l-0.77-1.2
					c-0.11-0.22-0.33-0.55-0.33-0.87v-1.2l-0.77-1.2c-0.11-0.11-0.22-0.44-0.22-0.55l-0.11-1.2l-0.87-1.42
					c0-0.11-0.22-0.22-0.22-0.33l-0.44-1.42l-0.77-2.95l-0.11-0.22l-0.11-1.09v-0.44l0.11-0.55c0.11-0.55,0.44-0.98,0.77-1.2
					l0.66-0.44l0.22-0.33c0.22-0.33,0.66-0.55,1.09-0.66l2.41-0.55c0.22-0.11,0.66-0.11,0.87,0l2.51,0.77l0.77,0.22
					c0.55,0.22,0.87,0.55,1.09,0.98l0.98,2.19c0.11,0.22,0.11,0.33,0.11,0.66l0.11,1.2l0.87,1.09c0.11,0.22,0.33,0.33,0.33,0.44
					l0.44,1.09v0.44l0.11,1.42l0.98,1.53c0,0.11,0.11,0.22,0.11,0.33l0.44,1.09c0.11,0.11,0.11,0.33,0.11,0.55v1.42l0.77,0.77
					c0.22,0.22,0.44,0.66,0.44,0.98l0.11,1.2l0.66,1.09c0,0.11,0.22,0.22,0.22,0.44l0.33,1.31l0.77,1.75l0.55,1.09
					c0,0.11,0.11,0.11,0.11,0.33l0.55,1.86l0.44,1.2l0.55,1.64l0.33,1.75l0.77,0.98c0.11,0.22,0.33,0.55,0.33,0.77l0.22,1.2
					l0.77,1.31c0.11,0.22,0.22,0.33,0.22,0.44l0.33,1.42l0.66,1.2c0.11,0.33,0.22,0.33,0.22,0.66v0.87l0.77,1.97l0.66,0.98
					c0.11,0.11,0.22,0.22,0.22,0.33l0.55,1.31l0.87,3.39l0.98,1.2l1.31,0.87l1.53,1.09l1.86-0.22h0.22l1.75,0.11l1.31-0.87l1.2-1.2
					l1.31-0.98l1.2-3.39l0.11-0.98c0-0.22,0.11-0.33,0.11-0.44l0.55-1.2l0.87-1.86l0.55-1.42l0.77-1.64l0.55-1.75l0.33-0.87
					c0,0,0.11-0.22,0.11-0.33l0.66-1.42l0.66-1.75l0.33-1.31l0.33-1.53l0.55-1.53c0-0.11,0.11-0.22,0.11-0.33l1.09-1.75l0.55-2.73
					v-0.22l0.55-1.42l0.98-1.75l0.77-1.31l0.55-1.75l0.98-2.95l0.55-1.53l0.33-1.2c0-0.22,0.11-0.22,0.11-0.33l0.77-1.64l0.66-1.64
					l0.55-1.53l0.76-2.3c0.11-0.44,0.44-0.55,0.66-0.77l0.77-0.55c0.22-0.22,0.55-0.33,0.87-0.33l1.53-0.11h0.33l2.08,0.11
					l0.44,0.11l1.09,0.33c0.44,0.11,0.87,0.44,1.09,0.87l0.44,0.77v0.22l0.44,1.09v0.33l0.22,0.98v0.55l-0.44,2.95
					c0,0.22-0.11,0.55-0.22,0.66l-0.66,1.2l-0.33,1.09c0,0.22-0.11,0.22-0.22,0.44l-0.87,1.31l-0.11,1.31l-0.44,1.75
					c0,0.22-0.11,0.44-0.22,0.55l-0.66,0.87l-0.66,1.42l-0.55,1.75c0,0.22,0,0.22-0.11,0.44l-0.66,0.98l-0.55,1.64l-0.11,1.42
					c0,0.33-0.22,0.44-0.33,0.66l-0.55,0.98l-0.22,1.09c0,0.22-0.11,0.55-0.22,0.66l-0.87,1.31l-0.33,1.53
					c0,0.11-0.22,0.22-0.22,0.33l-0.55,1.09l-0.55,1.75l-0.66,2.62c0,0.22-0.11,0.22-0.22,0.44l-0.87,1.53l-1.09,2.73l-0.66,1.53
					l-0.22,1.53c0,0.22,0,0.55-0.11,0.66l-0.55,0.87l-0.77,1.86c0,0-0.11,0.11-0.11,0.22l-0.66,0.98l-0.11,1.53v0.22l-0.33,1.31
					c0,0.22-0.22,0.33-0.33,0.55l-0.76,1.2l-0.22,1.2c0,0.22-0.11,0.44-0.22,0.55l-0.87,1.42v0.98l-0.11,0.55l-0.44,1.31
					c0,0.11-0.22,0.33-0.33,0.55l-0.87,0.98l-0.22,1.75l-0.33,1.31c0,0.22,0,0.22-0.11,0.44l-0.77,1.42l-0.87,1.2l-0.22,1.31v0.33
					l-0.65,1.53l-0.55,1.53c0,0-0.11,0.22-0.11,0.33l-0.77,1.42v0.98c0,0.33-0.11,0.44-0.22,0.66l-1.09,1.97
					c-0.11,0.22-0.33,0.33-0.55,0.55l-0.87,0.66c-0.33,0.22-0.77,0.33-1.09,0.33l-2.62,0.11l-0.98,0.22
					c-0.22,0.11-0.55,0.11-0.77,0.11L473.44,672.54z"/>
				<path d="M534.13,672.65l-1.31,0.11l-1.97,0.11h-1.31l-2.95-0.22c-0.33,0-0.66-0.11-0.87-0.33l-0.87-0.66
					c-0.11-0.11-0.22-0.11-0.22-0.11l-0.77-0.77c-0.33-0.33-0.55-0.66-0.55-1.2l-0.22-2.73l-0.11-1.75v-0.33l0.22-1.64l-0.22-1.31
					v-0.33l0.11-1.31v-1.64l0.44-1.97l-0.44-0.98c-0.11-0.33-0.11-0.44-0.11-0.76l0.11-1.42l-0.11-1.64v-0.33l0.22-1.42l0.22-1.31
					v-1.86l0.11-1.75v-1.75l-0.11-1.42l-0.22-1.2v-0.44l0.22-1.86l-0.11-0.98v-0.33l0.22-1.75l-0.11-1.75l-0.11-1.31v-0.44
					l0.22-1.31l-0.22-1.53l-0.33-1.97v-1.97l0.33-1.31l0.22-1.31l-0.44-1.75v-1.75l0.22-1.97l-0.33-1.2v-0.44l0.11-1.64l-0.11-1.09
					c0-0.22,0.11-0.44,0.11-0.66l0.44-1.42l-0.11-1.42l-0.11-1.97l-0.22-0.87c-0.11-0.33,0-0.55,0-0.77l0.33-1.64l0.11-1.64
					l-0.44-1.2c-0.11-0.11-0.11-0.33-0.11-0.55v-1.42l0.44-2.95c0-0.33,0.11-0.44,0.22-0.66l0.55-0.77
					c0.11-0.22,0.44-0.55,0.66-0.66l0.77-0.44c0.11-0.11,0.33-0.11,0.44-0.11l2.95-0.55h0.66l1.31,0.22l1.75-0.33
					c0.22-0.11,0.33,0,0.55,0l1.09,0.11h3.17l3.61,0.22l1.2-0.22h0.55l1.53,0.11l0.98-0.22c0.22-0.11,0.66,0,0.87,0.11l1.09,0.22
					l1.53-0.33c0.22-0.11,0.55-0.11,0.77,0l1.31,0.33l1.64-0.11l1.64-0.22h1.31c0.11,0,0.33-0.11,0.55,0l1.42,0.33h1.42l1.86-0.22
					h0.44l2.51,0.11h1.75l1.97-0.22l0.33-0.11h0.98c0.11,0,0.22,0.11,0.33,0.11l1.75,0.33l1.2-0.22l1.86-0.11
					c0.11,0,0.44-0.11,0.66,0l2.4,0.66c0.22,0.11,0.33,0.11,0.44,0.22l0.77,0.44c0.22,0.22,0.44,0.33,0.55,0.55l0.66,1.09
					c0.11,0.22,0.22,0.22,0.22,0.44l0.44,2.08c0,0.22,0.11,0.33,0.11,0.55l-0.33,1.97c0,0.22-0.11,0.22-0.11,0.33l-0.44,1.09
					c-0.11,0.22-0.44,0.55-0.66,0.76l-0.55,0.44c-0.22,0.22-0.66,0.44-0.98,0.44l-2.95,0.11h-0.33l-1.64-0.22l-1.42-0.11l-1.64,0.11
					l-1.53-0.11h-1.42l-1.75,0.22l-1.53,0.22c-0.22,0-0.55,0-0.77-0.11l-0.76-0.33l-1.75,0.11l-1.64-0.11l-1.2,0.33h-0.55
					l-1.31-0.22l-1.64,0.33h-0.55l-1.42-0.33l-1.31,0.22h-0.44l-1.2-0.11l-1.64-0.11l-1.86,0.22h-1.53l-1.75-0.11l-0.98-0.11
					l-3.83,0.77l-0.98,0.87l-1.42,1.2l-0.11,3.5v1.42l-0.22,1.97l0.33,1.31v1.31l-0.44,1.75l0.11,1.75l-0.11,1.97l0.77,2.95
					l0.55,1.86l1.97,0.55l2.84,0.44l1.86,0.11l2.08-0.22h1.64l1.42,0.11l1.42-0.11h0.66l1.31,0.33l1.75-0.33h1.97l1.2,0.11
					l1.75,0.22l2.52,0.11c0.33,0,0.77,0.22,1.09,0.44l1.75,1.53c0.33,0.33,0.55,0.87,0.55,1.31l0.11,1.97v2.19
					c0,0.44-0.22,0.87-0.44,1.2l-0.55,0.55c-0.11,0.11-0.11,0.33-0.22,0.33l-1.2,0.76c-0.22,0.22-0.55,0.33-0.77,0.33l-3.17,0.11
					l-1.42-0.11h-1.86l-1.53,0.22h-0.44l-0.98-0.11h-2.08l-1.31-0.33h-1.64l-1.42,0.22h-0.44L542,638.1l-1.42,0.33
					c-0.11,0-0.22,0.11-0.33,0.11h-3.5l-0.98,0.87l-1.42,1.86l-0.33,3.39v1.64l0.11,1.09v0.33l-0.22,1.86v1.09l0.44,1.42
					c0,0.22,0.11,0.44,0.11,0.66l-0.11,1.2l-0.44,1.97l0.44,3.06l0.87,1.75l1.97,0.55l3.28,0.44h2.84l1.53-0.11l1.53,0.11h1.64
					l2.08,0.11l1.31,0.11l1.53-0.22h1.75l1.64,0.11l1.42-0.11c0.11,0,0.33-0.11,0.55,0l1.09,0.22l1.86,0.11h1.75l1.42-0.22
					l0.98-0.11c0.22,0,0.44-0.11,0.66,0l1.64,0.33l1.42-0.22c0.11,0,0.22-0.11,0.33-0.11h2.84l0.33,0.11l1.09,0.11l3.06,0.22
					c0.44,0,0.87,0.33,1.2,0.66l0.55,0.55l0.66,0.55c0.33,0.33,0.77,0.87,0.77,1.31l0.11,1.86v0.33l-0.55,2.51v0.22l-0.44,1.09
					c-0.11,0.33-0.44,0.55-0.66,0.77l-0.66,0.44c-0.22,0.22-0.55,0.33-0.87,0.33l-3.17,0.22h-1.42l-1.86-0.22l-1.42,0.11h-1.75
					l-1.86-0.22l-1.53,0.11l-1.42-0.11l-1.53,0.33c-0.22,0.11-0.66,0-0.87-0.11l-0.66-0.11l-1.97-0.11l-1.31,0.11l-1.86,0.11h-0.66
					l-0.77-0.22l-2.19,0.22h-2.84c-0.11,0-0.33,0.11-0.55,0l-1.09-0.22l-1.53,0.33c-0.22,0.11-0.55,0-0.66,0l-1.53-0.11h-1.2
					l-2.19,0.11l-1.09-0.11l-1.42,0.11h-0.55L534.13,672.65z"/>
				<path d="M597.66,672.65c-0.33,0-0.77-0.22-0.98-0.44l-0.55-0.55c-0.11-0.11-0.22-0.11-0.33-0.33l-0.44-0.66
					c-0.11-0.22-0.22-0.66-0.22-0.87l-0.22-3.17l-0.22-1.42l-0.33-1.53v-0.44l0.11-1.31v-2.3l0.33-1.09l0.11-1.53l-0.44-1.42
					c-0.11-0.33-0.11-0.44-0.11-0.76l0.22-1.09l0.22-1.86l0.11-1.64l-0.11-1.64v-3.28l-0.33-1.42v-0.33l-0.11-1.42l0.33-1.64
					l-0.11-1.64l-0.11-1.53v-0.44l0.33-1.31l-0.33-1.53l-0.11-0.44l0.11-1.75l-0.11-1.2l0.11-0.66l0.33-1.2l-0.33-1.53
					c0-0.22-0.11-0.44,0-0.77l0.22-0.87l-0.11-1.64l-0.11-1.53l0.11-1.86l-0.22-1.64v-0.33l0.22-1.64v-1.42l-0.22-1.2v-0.33
					l0.11-1.64l0.33-1.64l-0.22-1.2v-0.66l0.22-1.53l-0.33-1.09c0-0.11-0.11-0.44-0.11-0.66l0.11-1.42l0.33-1.75l-0.33-1.2
					l-0.11-0.55v-1.86l0.55-2.95c0-0.11,0.11-0.44,0.22-0.55l0.55-0.87c0.11-0.22,0.55-0.44,0.77-0.55l0.44-0.22
					c0.11-0.11,0.44-0.22,0.55-0.22l3.28-0.55h1.75l1.2-0.11h3.72l2.08,0.11l1.64,0.22l1.75-0.11h1.42l3.28-0.22h5.36l1.31,0.22
					l1.2-0.11h0.55l1.86,0.22l3.17,0.11l0.98-0.22c0.22,0,0.66-0.11,0.87,0l1.09,0.33l1.53,0.11c0.22,0,0.66,0.11,0.87,0.33
					l0.77,0.44l1.53,0.44l0.22,0.11l3.17,1.31l0.98,0.44c0.33,0.11,0.55,0.44,0.77,0.66l0.55,0.77l1.64,1.09l1.31,1.09l0.98,0.87
					l0.22,0.33l0.77,1.2l0.66,1.09l0.77,1.53l0.55,1.53l0.87,1.2c0.22,0.22,0.33,0.44,0.33,0.87v0.98l0.33,1.42l0.55,1.42
					c0.11,0.33,0.22,0.66,0.11,1.09l-0.22,1.09l0.33,0.87c0,0.22,0.11,0.44,0.11,0.55l-0.11,3.06v3.06c0,0.33,0,0.44-0.11,0.66
					l-0.55,1.42l-0.22,1.31c0,0.22-0.11,0.33-0.11,0.44l-0.66,1.42l-0.22,1.42c0,0.22-0.11,0.33-0.11,0.44l-0.44,0.87
					c0,0.11-0.22,0.22-0.22,0.33l-0.77,1.09l-0.77,1.2c0,0.11-0.11,0.22-0.11,0.22l-1.31,1.42l-1.97,2.19
					c-0.11,0.11-0.22,0.22-0.33,0.22l-1.31,0.77l-1.09,1.09c-0.22,0.22-0.44,0.22-0.55,0.33l-0.87,0.33l-1.2,0.87
					c-0.11,0.11-0.33,0.33-0.44,0.33l-1.75,0.55l-1.31,0.22l-0.98,0.55c-0.22,0.11-0.55,0.11-0.77,0.11h-1.53l-2.95,0.22l-1.75,0.44
					l0.98,0.11c0.33,0,0.66,0.11,0.98,0.44l2.19,1.86l0.11,0.22l0.87,1.09l1.09,1.2l1.09,1.53l0.77,1.2l1.2,1.09
					c0.11,0.11,0.22,0.11,0.33,0.33l0.55,0.98l1.2,0.98l0.22,0.22l1.09,1.64l0.66,0.87l0.87,1.42l1.31,1.31l1.09,0.87l0.33,0.33
					l0.98,1.42l1.75,2.3c0,0,0.22,0.11,0.22,0.22l0.77,1.53c0,0.11,0.11,0.11,0.11,0.22l0.22,1.09l0.44,1.2l0.11,0.55l-0.11,1.53
					c-0.11,0.77-0.66,1.42-1.53,1.64l-2.19,0.44h-1.75l-2.41-0.11c-0.44,0-0.87-0.22-1.2-0.55l-1.75-1.75
					c-0.11-0.11-0.22-0.11-0.22-0.22l-0.77-1.09l-0.98-0.87l-0.33-0.44l-0.77-1.31l-0.87-0.76c-0.11-0.11-0.22-0.11-0.33-0.33
					l-0.87-1.53l-1.09-0.87l-1.09-0.98c-0.11-0.11-0.22-0.11-0.33-0.33l-0.77-1.31l-1.09-1.2l-0.66-0.87c0,0-0.22-0.22-0.22-0.33
					l-0.66-1.42l-1.09-0.66c-0.22-0.11-0.55-0.33-0.66-0.66l-0.33-0.87l-1.09-1.64l-0.87-0.98l-1.42-1.31
					c-0.22-0.22-0.22-0.33-0.33-0.44l-0.44-0.87l-2.3-2.62l-0.98-1.09l-2.3-1.97l-3.28-0.66l-1.86-0.11l-3.17,0.66l-1.75,0.98
					l-0.66,1.53l-0.33,3.06l-0.33,1.86l-0.22,1.42v1.42l0.11,1.75l0.11,1.53v0.22l-0.22,1.75l0.33,1.42l0.22,1.53v0.44l-0.33,1.64
					l0.11,1.09v0.44l-0.33,1.42l0.22,2.52c0,0.44-0.22,0.87-0.44,1.2l-0.55,0.77l-0.44,0.44l-1.09,0.77
					c-0.22,0.22-0.44,0.22-0.66,0.22l-1.75,0.33h-0.44L597.66,672.65z M613.4,631.75l1.53,0.11l1.31-0.22H618l0.33,0.11l0.98,0.11
					l1.97-0.11h1.75l0.98-0.11h0.55l1.31,0.22l1.53-0.11l3.06,0.11l1.86-0.44l1.2-0.44l0.55-0.11h1.53l1.42-0.66l0.66-0.98
					c0.11-0.22,0.44-0.44,0.66-0.55l1.09-0.66l0.76-1.09l1.09-1.53l0.33-1.2c0-0.22,0.11-0.33,0.11-0.44l0.77-1.31l0.22-1.31
					l-0.22-1.97l0.11-3.06l0.22-1.75l-0.55-1.31l-1.42-2.84l-0.44-1.2l-1.09-1.09c-0.11-0.11-0.33-0.22-0.33-0.33l-0.66-1.2
					l-1.86-0.87l-0.98-0.55l-1.75-0.66h-1.53l-4.48-0.55l-1.86,0.22h-0.22l-1.2-0.11l-1.42-0.22l-1.53,0.33h-0.55l-1.53-0.33
					l-3.17,0.33h-0.22l-3.06-0.22l-1.2,0.33h-3.61l-1.2,1.2l-0.87,1.2l-0.55,3.5l0.22,1.86v0.44l-0.22,1.42l0.11,1.42v0.44
					l-0.33,1.53v1.53l0.33,1.2c0.11,0.22,0.11,0.66,0,0.87l-0.33,1.31l0.22,1.53l0.22,1.97l0.44,3.17l0.87,1.53l1.2,0.87l3.72,0.77
					L613.4,631.75z"/>
				<path d="M691.48,672.65c-0.22,0-0.44-0.11-0.55-0.22l-1.31-0.87c-0.11-0.11-0.33-0.11-0.44-0.33l-0.55-0.77
					c-0.22-0.22-0.33-0.44-0.33-0.87l-0.22-2.95l0.11-1.86l0.22-1.42l-0.33-1.2c0-0.22-0.11-0.22-0.11-0.44l-0.11-1.75v-1.64
					l0.22-1.31v-1.64l0.11-1.86l0.22-1.75l-0.22-1.31l-0.11-1.75v-3.17l0.22-1.75l-0.11-2.95l-1.64-1.97
					c-0.11-0.22-0.22-0.33-0.22-0.44l-0.44-1.2l-0.87-1.09c-0.11-0.22-0.33-0.22-0.33-0.33l-0.44-1.09l-0.98-1.09
					c-0.11-0.11-0.22-0.22-0.22-0.33l-0.77-1.42l-0.66-1.64l-0.65-1.2l-0.87-1.31l-1.2-1.53l-0.77-0.66
					c-0.22-0.22-0.33-0.55-0.44-0.77l-0.44-1.42l-0.98-1.31l-0.66-0.66c-0.22-0.22-0.44-0.55-0.55-0.77l-0.33-1.09l-1.09-1.09
					c-0.11-0.22-0.22-0.33-0.22-0.44l-0.55-1.31l-0.98-1.31c0,0-0.22-0.22-0.22-0.33l-0.55-1.2l-0.87-1.42l-0.55-0.98l-1.2-1.64
					l-0.77-1.09c0,0-0.11-0.22-0.11-0.33l-0.55-1.31l-1.2-1.2c-0.11-0.11-0.22-0.22-0.22-0.33l-0.66-1.2l-0.77-1.2l-1.53-2.84
					c-0.11-0.11-0.22-0.44-0.22-0.55l-0.11-1.09l-0.55-1.86v-1.09c0-0.55,0.11-0.98,0.66-1.42l0.44-0.33
					c0.22-0.11,0.55-0.33,0.77-0.33l3.06-0.66c0.33-0.11,0.33-0.11,0.65,0l2.95,0.66c0.33,0.11,0.66,0.22,0.87,0.44l1.75,1.86
					l0.77,1.09c0.11,0.11,0.22,0.44,0.22,0.66l0.33,0.98l0.98,1.42l0.87,1.31l1.09,1.86l0.87,1.42l0.55,1.09l0.98,1.2
					c0.11,0.22,0.33,0.33,0.44,0.66l0.33,0.98l0.98,1.2c0.11,0.11,0.22,0.44,0.33,0.55l0.33,0.77l1.09,1.42l1.09,1.75l0.77,0.98
					c0,0,0.11,0.11,0.11,0.22l0.77,1.2c0,0.11,0.11,0.11,0.11,0.22l0.44,1.31l0.77,1.31l0.77,1.53l1.97,2.52l1.53,1.09l1.42,0.11
					l1.53-0.11l1.42-0.33l1.09-0.76l2.19-2.62l0.66-1.2l0.87-1.53c0.11-0.22,0.22-0.33,0.33-0.44l0.87-0.87l0.55-1.42
					c0-0.11,0.11-0.22,0.22-0.44l0.87-1.09l0.33-1.2c0.11-0.33,0.22-0.33,0.33-0.55l0.77-0.87l0.98-1.53l0.66-1.31
					c0-0.11,0.22,0,0.22-0.11l0.87-1.2l0.66-1.09c0-0.11,0.22-0.22,0.22-0.33l1.09-1.09l0.98-1.75l0.66-1.09l0.87-1.64l0.55-1.2
					c0.11-0.11,0.22-0.33,0.33-0.55l0.77-0.77l0.77-1.42c0-0.11,0.22-0.22,0.22-0.22l1.97-2.3c0.22-0.33,0.55-0.44,0.87-0.55
					l0.87-0.22c0.33-0.11,0.66-0.11,0.98,0l2.73,0.77c0.44,0.11,0.87,0.44,1.09,0.77l1.31,2.3l0.33,0.77
					c0.22,0.44,0.11,1.09-0.11,1.53l-0.33,0.66l-0.98,3.06c0,0.11-0.11,0.22-0.22,0.44l-0.76,1.09l-0.98,1.31l-0.98,1.64l-0.87,1.31
					l-0.77,0.98l-0.87,1.64l-0.77,1.2l-0.98,1.42l-1.31,1.42l-0.22,0.98l-0.33,0.76l-1.09,1.09l-0.87,1.53l-0.33,0.87l-0.44,0.44
					l-0.98,1.09l-0.66,1.31c0,0.11-0.11,0.33-0.11,0.33l-0.76,1.09l-0.98,1.64l-0.55,1.2l-0.98,1.53c0,0.11-0.11,0.22-0.11,0.22
					l-0.87,0.98l-1.09,1.53l-0.66,1.2c0,0.11-0.22,0.33-0.22,0.33l-0.87,0.98l-0.76,1.42l-0.98,1.42l-0.44,1.2
					c0,0.11-0.22,0.11-0.22,0.22l-1.42,2.08l-0.22,2.95l0.33,1.2c0.11,0.44,0.11,0.66,0,1.09l-0.22,0.66l0.22,1.97v3.39l-0.11,1.42
					v1.64l0.33,1.75v0.44l-0.33,2.95l0.33,1.42v0.66l-0.22,0.98v1.53l0.22,1.42v0.55l-0.44,2.95c0,0.33-0.22,0.44-0.33,0.66
					l-0.77,0.98c-0.11,0.22-0.44,0.44-0.66,0.55l-0.87,0.44c-0.11,0.11-0.33,0.22-0.44,0.22l-1.97,0.44c-0.22,0.11-0.44,0-0.66,0
					L691.48,672.65z"/>
				<path d="M771.75,672.76l-3.06-0.11c-0.44,0-1.09-0.33-1.42-0.66l-0.55-0.66l-0.55-0.87c-0.11-0.22-0.22-0.33-0.22-0.66
					l-0.55-3.17v-0.33l0.11-1.09v-1.75l-0.22-1.53v-0.66l0.22-0.98v-1.97l-0.22-1.2v-0.44l0.22-3.28l-0.33-1.31v-0.66l0.11-0.98
					l-0.22-1.75v-0.33l0.11-1.64l0.11-1.53l0.11-1.42l0.11-1.64v-1.75l0.11-1.75l-0.11-1.64v-1.75l-0.11-1.64v-2.95l0.22-2.08v-1.42
					l-0.33-1.53c0-0.22-0.11-0.44-0.11-0.66l0.22-1.09l0.22-1.64v-1.97l-0.11-1.42l-0.33-0.87c-0.11-0.44-0.11-0.55,0-0.98
					l0.44-1.31l-0.44-1.97l-0.11-1.2l0.11-2.08l0.22-1.31l0.11-1.97l-0.22-1.42l-0.22-1.2c0-0.33,0.11-0.44,0.11-0.66l0.33-1.31
					l-0.22-1.2v-0.77l0.33-1.31l-0.11-2.62c0-0.44,0.11-0.87,0.55-1.31l0.87-0.87l0.44-0.55c0.33-0.44,0.87-0.66,1.31-0.77l2.3-0.33
					h0.66l1.31,0.33l1.31-0.22h0.66l1.31,0.11l1.64-0.22h1.42l1.86,0.22h1.75l1.31,0.11l1.2-0.22c0.11,0,0.22-0.11,0.33-0.11h1.31
					l0.22,0.11l1.64,0.22h3.39l1.86-0.33l1.09-0.11l3.72,0.11l1.09,0.11c0.11,0,0.22,0,0.33,0.11l1.64,0.66l1.31,0.11
					c0.11,0,0.22,0.11,0.33,0.11l1.42,0.44l3.17,1.2c0.11,0.11,0.22,0.22,0.33,0.22l1.09,0.66l2.84,1.53l1.31,0.87
					c0.22,0.11,0.44,0.33,0.55,0.55l0.44,0.87l1.2,0.55l0.22,0.22l1.2,0.98c0.11,0,0.22,0.11,0.22,0.22l0.98,1.2l0.98,0.87
					c0.22,0.22,0.33,0.44,0.44,0.66l0.33,0.98l1.31,1.42c0.11,0.11,0.33,0.22,0.33,0.33l0.66,1.2l0.77,1.2
					c0,0.11,0.11,0.22,0.11,0.33l0.55,1.53l0.66,1.53l0.55,1.2l0.55,1.86l0.66,1.2c0.11,0.11,0.22,0.44,0.22,0.55l0.22,1.2
					l0.44,1.86l0.33,1.64l0.22,1.42l0.33,1.64l0.44,1.64v0.55l-0.11,1.42l0.22,1.64l0.22,2.95v0.33l-0.22,1.64v1.42
					c0,0.22-0.11,0.33-0.11,0.44l-0.44,1.53l-0.44,1.42l0.11,1.2c0,0.33,0.11,0.44,0,0.66l-0.55,1.42l-0.44,1.42l-0.44,1.75
					l-0.22,0.98c0,0.22-0.22,0.22-0.22,0.33l-0.66,1.42l-0.65,1.86l-0.22,1.09c0,0.11-0.11,0.22-0.22,0.44l-0.44,0.87
					c0,0.11-0.11,0.33-0.11,0.33l-0.98,1.53l-0.44,0.98c0,0.11-0.22,0.22-0.22,0.33l-1.2,1.64l-0.87,0.98l-0.55,1.2
					c-0.11,0.22-0.11,0.22-0.33,0.44l-2.08,2.08c0,0.11-0.11,0.22-0.22,0.22l-1.31,0.98l-1.09,0.98c0,0-0.22,0.22-0.33,0.22
					l-0.87,0.55l-2.73,1.97l-0.87,0.76l-0.44,0.33l-2.52,1.2c-0.11,0.11-0.22,0.11-0.33,0.11l-3.5,0.66l-1.09,0.44l-0.44,0.11
					l-1.31,0.11l-1.75,0.22h-2.95l-2.19-0.11l-0.87,0.22c-0.22,0.11-0.44,0.11-0.77,0l-1.75-0.33h-1.31l-1.53,0.33h-1.75l-1.64-0.22
					l-1.53,0.11h-0.44l-1.64-0.22l-1.75,0.11l-1.86,0.22h-3.28L771.75,672.76z M790.44,661.71c0.11,0,0.22-0.11,0.33-0.11h1.2
					l1.86,0.11l1.31-0.11h3.72l0.98,0.11l1.97-0.55l1.64-0.55l0.76-0.66c0.11-0.11,0.22-0.22,0.33-0.22l1.2-0.66l1.86-1.09
					l1.75-2.19c0,0,0.11-0.22,0.22-0.22l1.31-0.87l0.77-1.53c0-0.11,0.11-0.11,0.11-0.22l0.77-0.98l1.31-1.75l0.44-1.31l0.77-1.64
					l0.33-1.31c0-0.22,0.11-0.33,0.11-0.44l0.66-1.2l0.55-1.31l0.11-1.42c0-0.33,0-0.44,0.11-0.66l0.77-1.53v-3.5l0.33-1.53v-3.28
					l0.11-1.53l-0.55-0.98c-0.11-0.33-0.22-0.66-0.22-0.87l0.11-1.42l-0.55-1.2c-0.11-0.11-0.11-0.44-0.11-0.66v-1.2l-0.66-1.53
					l-0.55-1.53l-0.66-1.75l-0.33-1.42l-0.98-1.42c0-0.11-0.22-0.22-0.22-0.33l-0.55-1.42l-0.98-1.42l-1.09-1.09
					c0,0-0.11-0.11-0.11-0.22l-0.66-1.09l-1.31-1.31l-1.09-0.55c-0.22-0.11-0.55-0.22-0.66-0.44l-0.87-0.98l-1.42-0.76l-1.2-0.44
					l-1.75-0.87l-1.31-0.44l-1.75-0.33l-3.5-0.11l-1.31,0.22h-0.55l-1.2-0.33l-1.64,0.33h-3.5l-1.09-0.11h-1.75l-1.75,0.22
					l-3.39,0.11l-1.09,0.98l-1.42,1.42l0.11,3.39c0,0.11-0.11,0.33-0.11,0.55l-0.22,0.87l-0.22,2.08l0.33,1.42l0.22,1.42
					c0,0.33,0,0.33-0.11,0.66l-0.44,1.42l0.11,1.42l-0.11,1.53l0.44,1.42v0.33l0.11,1.86v1.53l-0.11,1.64l0.11,1.42v2.08l-0.22,0.98
					l0.22,1.64c0,0.11-0.11,0.33-0.11,0.55l-0.33,1.53l-0.11,1.2l0.44,1.64c0.11,0.33,0,0.66-0.11,0.98l-0.22,0.77l0.33,1.64
					l0.11,1.86l-0.11,1.2v0.22l-0.44,1.53l0.11,1.64l0.11,1.75l0.33,1.64v0.44l-0.11,1.09l0.11,1.64l-0.11,3.28l1.09,1.86l1.31,0.87
					l3.61,0.33h1.42l1.86-0.11l1.31,0.11l1.53,0.11L790.44,661.71z"/>
				<path d="M835.06,672.1l-0.44-0.55c-0.11-0.11-0.22-0.22-0.22-0.33l-0.33-0.66c-0.11-0.22-0.22-0.33-0.22-0.44l-0.33-1.2v-1.53
					l0.77-2.95c0-0.22,0.11-0.33,0.22-0.55l0.66-1.09l0.11-0.98c0-0.33,0.11-0.44,0.22-0.66l0.87-1.42l0.11-0.98
					c0-0.22,0-0.44,0.11-0.55l0.87-1.64l0.11-0.98c0-0.22,0.11-0.55,0.22-0.66l0.66-1.2l0.33-1.75l0.44-1.2
					c0-0.11,0.11-0.22,0.11-0.33l0.87-1.2l0.33-1.86l0.44-1.53l0.55-1.42l0.87-1.53l0.44-1.2c0,0,0.11-0.11,0.11-0.22l0.87-1.31
					l0.22-1.64c0-0.33,0.11-0.44,0.22-0.66l0.66-0.98l0.66-1.75l0.33-1.09l0.66-1.53l0.11-1.2c0-0.33,0.11-0.55,0.22-0.76l0.77-1.2
					l0.44-1.42l0.44-1.64l0.66-1.53l1.53-3.28l0.33-1.31c0-0.22,0.11-0.33,0.11-0.44l0.55-1.09l0.33-1.42l0.11-0.22l0.55-1.31
					l0.66-1.64l0.22-1.64c0-0.22,0.11-0.22,0.11-0.33l0.55-1.42l0.66-1.53l0.44-0.87c0-0.11,0.11-0.22,0.11-0.33l0.98-1.53l0.11-1.2
					c0-0.22,0.11-0.44,0.22-0.55l0.77-1.53l0.66-1.53l0.33-1.31l0.22-1.31c0-0.22,0.11-0.22,0.11-0.33l0.66-1.42
					c0-0.11,0.11-0.33,0.11-0.33l1.75-2.41l0.44-0.55c0.22-0.33,0.55-0.55,0.98-0.66l2.41-0.44h0.55l1.42,0.11l2.84,0.55
					c0.11,0,0.22,0,0.33,0.11l0.77,0.44c0.33,0.11,0.66,0.33,0.77,0.66l1.42,2.62l0.77,1.09c0,0.11,0.11,0.22,0.11,0.33l0.55,1.31
					l0.33,1.64l0.22,1.53l0.87,1.31c0.11,0.22,0.33,0.44,0.33,0.66l0.33,1.2l0.55,1.2c0.11,0.11,0.11,0.33,0.11,0.55l0.11,1.42
					l0.77,0.87c0.11,0.22,0.22,0.33,0.22,0.55l0.55,1.42l0.44,1.31l0.55,1.53l0.66,1.42c0,0.11,0.11,0.11,0.11,0.33l0.33,1.75
					l0.55,0.98c0,0.11,0.11,0.22,0.11,0.22l0.65,1.75c0,0.11,0.11,0.11,0.11,0.33l0.22,1.2l0.77,0.98c0.11,0.22,0.22,0.33,0.22,0.66
					l0.22,1.09l0.44,1.97l0.55,0.77c0.11,0.11,0.33,0.44,0.33,0.66l0.33,1.2l0.55,1.97l0.77,1.09c0.11,0.22,0.33,0.55,0.33,0.87
					l0.11,0.98l0.66,1.31c0,0.11,0.11,0.11,0.11,0.22l0.44,1.64l0.65,0.98c0.11,0.22,0.22,0.22,0.22,0.44l0.33,1.42l0.66,1.31
					l0.77,1.86l0.55,1.64l0.55,1.31c0,0.11,0.11,0.22,0.11,0.44l0.22,1.2l0.77,1.31c0.11,0.11,0.22,0.44,0.22,0.66l0.11,0.76
					l0.44,1.75l1.31,3.28l1.42,2.41c0.11,0.22,0.22,0.33,0.22,0.44l0.66,2.84l0.77,1.64l0.98,3.17c0,0.11,0.11,0.22,0.11,0.44v0.87
					c0,0.44-0.11,0.76-0.22,0.98l-0.66,1.09c-0.11,0.22-0.22,0.33-0.33,0.44l-0.77,0.66c-0.22,0.22-0.66,0.44-0.98,0.44l-2.51,0.33
					l-2.19-0.11c-0.33,0-0.77,0-1.09-0.33l-0.98-0.77l-0.33-0.44l-1.2-2.08c-0.11-0.11-0.22-0.44-0.22-0.55l-0.22-1.53l-0.77-1.09
					c0,0-0.11-0.11-0.11-0.22l-0.66-1.53l-0.44-1.53c0-0.22-0.11-0.11-0.11-0.33l-0.11-1.31l-0.77-0.98
					c-0.11-0.22-0.33-0.44-0.33-0.77l-0.11-0.98l-0.55-1.53l-0.66-1.64l-1.31-3.06l-1.31-0.44l-3.28-0.55l-2.19-0.33h-1.64
					l-1.53,0.22l-1.31,0.22h-2.08l-1.31-0.22h-1.64l-1.42,0.11h-0.44l-1.31-0.22l-1.86,0.33h-1.64c-0.11,0-0.11-0.11-0.22-0.11
					l-1.31-0.33l-1.64,0.22l-3.28,0.33l-1.09,1.09l-1.97,2.52l-0.22,1.86l-0.11,0.22l-0.33,1.2c0,0.22-0.11,0.22-0.22,0.44
					l-0.87,1.31l-0.33,1.31c0,0.22-0.11,0.22-0.11,0.33l-0.44,0.98l-0.44,1.64l-0.44,1.31l-0.98,1.86l-0.44,1.53
					c0,0-0.11,0.11-0.11,0.22l-1.2,2.08c-0.11,0.22-0.22,0.33-0.33,0.44l-0.55,0.55c-0.33,0.33-0.77,0.44-1.09,0.44l-2.84,0.22
					h-1.97C836.05,672.76,835.39,672.54,835.06,672.1z M872.13,640.17l1.42-0.77l1.09-1.31l0.33-1.2l0.55-2.08l-0.76-2.95
					l-0.66-1.75l-0.87-1.31c-0.11-0.11-0.22-0.22-0.22-0.44l-0.77-3.06l-0.98-1.53l-0.66-0.87c0-0.11-0.11-0.22-0.11-0.33
					l-0.66-1.31l-0.98-1.2l-1.64-0.66l-1.53-0.22l-1.31,0.55l-1.09,1.09l-0.55,1.42c0,0.11-0.11,0.22-0.22,0.44l-0.87,0.98
					l-0.55,1.86c0,0.22-0.11,0.22-0.11,0.33l-1.53,2.73l-0.44,1.75l-0.33,1.53c0,0.11-0.11,0.11-0.11,0.22l-1.31,2.84l0.11,1.97
					l0.77,1.09l1.42,1.42l1.2,0.77h3.39l1.86,0.11h1.42l0.98,0.11L872.13,640.17z"/>
				<path d="M930.74,672.65c-0.22,0-0.44-0.11-0.55-0.22l-1.31-0.87c-0.11-0.11-0.33-0.11-0.44-0.33l-0.55-0.77
					c-0.22-0.22-0.33-0.44-0.33-0.87l-0.22-2.95l0.11-1.86l0.22-1.42l-0.33-1.2c0-0.22-0.11-0.22-0.11-0.44l-0.11-1.75v-1.64
					l0.22-1.31v-1.64l0.11-1.86l0.22-1.75l-0.22-1.31l-0.11-1.75v-3.17l0.22-1.75l-0.11-2.95l-1.64-1.97
					c-0.11-0.22-0.22-0.33-0.22-0.44l-0.44-1.2l-0.87-1.09c-0.11-0.22-0.33-0.22-0.33-0.33l-0.44-1.09l-0.98-1.09
					c-0.11-0.11-0.22-0.22-0.22-0.33l-0.77-1.42l-0.66-1.64l-0.65-1.2l-0.87-1.31l-1.2-1.53l-0.77-0.66
					c-0.22-0.22-0.33-0.55-0.44-0.77l-0.44-1.42l-0.98-1.31l-0.66-0.66c-0.22-0.22-0.44-0.55-0.55-0.77l-0.33-1.09l-1.09-1.09
					c-0.11-0.22-0.22-0.33-0.22-0.44l-0.55-1.31l-0.98-1.31c0,0-0.22-0.22-0.22-0.33l-0.55-1.2l-0.87-1.42l-0.55-0.98l-1.2-1.64
					l-0.77-1.09c0,0-0.11-0.22-0.11-0.33l-0.55-1.31l-1.2-1.2c-0.11-0.11-0.22-0.22-0.22-0.33l-0.66-1.2l-0.77-1.2l-1.53-2.84
					c-0.11-0.11-0.22-0.44-0.22-0.55l-0.11-1.09l-0.55-1.86v-1.09c0-0.55,0.11-0.98,0.66-1.42l0.44-0.33
					c0.22-0.11,0.55-0.33,0.77-0.33l3.06-0.66c0.33-0.11,0.33-0.11,0.65,0l2.95,0.66c0.33,0.11,0.66,0.22,0.87,0.44l1.75,1.86
					l0.77,1.09c0.11,0.11,0.22,0.44,0.22,0.66l0.33,0.98l0.98,1.42l0.87,1.31l1.09,1.86l0.87,1.42l0.55,1.09l0.98,1.2
					c0.11,0.22,0.33,0.33,0.44,0.66l0.33,0.98l0.98,1.2c0.11,0.11,0.22,0.44,0.33,0.55l0.33,0.77l1.09,1.42l1.09,1.75l0.77,0.98
					c0,0,0.11,0.11,0.11,0.22l0.77,1.2c0,0.11,0.11,0.11,0.11,0.22l0.44,1.31l0.77,1.31l0.77,1.53l1.97,2.52l1.53,1.09l1.42,0.11
					l1.53-0.11l1.42-0.33l1.09-0.76l2.19-2.62l0.66-1.2l0.87-1.53c0.11-0.22,0.22-0.33,0.33-0.44l0.87-0.87l0.55-1.42
					c0-0.11,0.11-0.22,0.22-0.44l0.87-1.09l0.33-1.2c0.11-0.33,0.22-0.33,0.33-0.55l0.77-0.87l0.98-1.53l0.66-1.31
					c0-0.11,0.22,0,0.22-0.11l0.87-1.2l0.66-1.09c0-0.11,0.22-0.22,0.22-0.33l1.09-1.09l0.98-1.75l0.66-1.09l0.87-1.64l0.55-1.2
					c0.11-0.11,0.22-0.33,0.33-0.55l0.77-0.77l0.77-1.42c0-0.11,0.22-0.22,0.22-0.22l1.97-2.3c0.22-0.33,0.55-0.44,0.87-0.55
					l0.87-0.22c0.33-0.11,0.66-0.11,0.98,0l2.73,0.77c0.44,0.11,0.87,0.44,1.09,0.77l1.31,2.3l0.33,0.77
					c0.22,0.44,0.11,1.09-0.11,1.53l-0.33,0.66l-0.98,3.06c0,0.11-0.11,0.22-0.22,0.44l-0.76,1.09l-0.98,1.31l-0.98,1.64l-0.87,1.31
					l-0.77,0.98l-0.87,1.64l-0.77,1.2l-0.98,1.42l-1.31,1.42l-0.22,0.98l-0.33,0.76l-1.09,1.09l-0.87,1.53l-0.33,0.87l-0.44,0.44
					l-0.98,1.09l-0.66,1.31c0,0.11-0.11,0.33-0.11,0.33l-0.76,1.09l-0.98,1.64l-0.55,1.2l-0.98,1.53c0,0.11-0.11,0.22-0.11,0.22
					l-0.87,0.98l-1.09,1.53l-0.66,1.2c0,0.11-0.22,0.33-0.22,0.33l-0.87,0.98l-0.76,1.42l-0.98,1.42l-0.44,1.2
					c0,0.11-0.22,0.11-0.22,0.22l-1.42,2.08l-0.22,2.95l0.33,1.2c0.11,0.44,0.11,0.66,0,1.09l-0.22,0.66l0.22,1.97v3.39l-0.11,1.42
					v1.64l0.33,1.75v0.44l-0.33,2.95l0.33,1.42v0.66l-0.22,0.98v1.53l0.22,1.42v0.55l-0.44,2.95c0,0.33-0.22,0.44-0.33,0.66
					l-0.77,0.98c-0.11,0.22-0.44,0.44-0.66,0.55l-0.87,0.44c-0.11,0.11-0.33,0.22-0.44,0.22l-1.97,0.44c-0.22,0.11-0.44,0-0.66,0
					L930.74,672.65z"/>
			</g>
		</g>
		<path class="st0" d="M440.29,391l2.77,13.7c0.18,0.9,0.85,1.57,1.76,1.76l13.7,2.77l-13.7,2.77c-0.9,0.18-1.57,0.85-1.76,1.76
			l-2.77,13.7l-2.77-13.7c-0.18-0.9-0.85-1.57-1.76-1.76l-13.7-2.77l13.7-2.77c0.9-0.18,1.57-0.85,1.76-1.76L440.29,391L440.29,391z
			"/>
		<path class="st0" d="M654.62,289.99l2.77,13.7c0.18,0.9,0.85,1.57,1.76,1.76l13.7,2.77l-13.7,2.77c-0.9,0.18-1.57,0.85-1.76,1.76
			l-2.77,13.7l-2.77-13.7c-0.18-0.9-0.85-1.57-1.76-1.76l-13.7-2.77l13.7-2.77c0.9-0.18,1.57-0.85,1.76-1.76L654.62,289.99
			L654.62,289.99z"/>
		<path class="st0" d="M887.1,382.93l2.77,13.7c0.18,0.9,0.85,1.57,1.76,1.76l13.7,2.77l-13.7,2.77c-0.9,0.18-1.57,0.85-1.76,1.76
			l-2.77,13.7l-2.77-13.7c-0.18-0.9-0.85-1.57-1.76-1.76l-13.7-2.77l13.7-2.77c0.9-0.18,1.57-0.85,1.76-1.76L887.1,382.93
			L887.1,382.93z"/>
		<path class="st0" d="M313.71,410.53l1.54,7.64c0.1,0.5,0.47,0.88,0.98,0.98l7.64,1.54l-7.64,1.54c-0.5,0.1-0.88,0.47-0.98,0.98
			l-1.54,7.64l-1.54-7.64c-0.1-0.5-0.47-0.88-0.98-0.98l-7.64-1.54l7.64-1.54c0.5-0.1,0.88-0.47,0.98-0.98L313.71,410.53
			L313.71,410.53z"/>
		<path class="st0" d="M654.62,409.23l1.54,7.64c0.1,0.5,0.47,0.88,0.98,0.98l7.64,1.54l-7.64,1.54c-0.5,0.1-0.88,0.47-0.98,0.98
			l-1.54,7.64l-1.54-7.64c-0.1-0.5-0.47-0.88-0.98-0.98l-7.64-1.54l7.64-1.54c0.5-0.1,0.88-0.47,0.98-0.98L654.62,409.23
			L654.62,409.23z"/>
		<path class="st0" d="M961.72,345.91l1.54,7.64c0.1,0.5,0.47,0.88,0.98,0.98l7.64,1.54l-7.64,1.54c-0.5,0.1-0.88,0.47-0.98,0.98
			l-1.54,7.64l-1.54-7.64c-0.1-0.5-0.47-0.88-0.98-0.98l-7.64-1.54l7.64-1.54c0.5-0.1,0.88-0.47,0.98-0.98L961.72,345.91
			L961.72,345.91z"/>
		<path class="st0" d="M843.69,295.97l1.54,7.64c0.1,0.5,0.47,0.88,0.98,0.98l7.64,1.54l-7.64,1.54c-0.5,0.1-0.88,0.47-0.98,0.98
			l-1.54,7.64l-1.54-7.64c-0.1-0.5-0.47-0.88-0.98-0.98l-7.64-1.54l7.64-1.54c0.5-0.1,0.88-0.47,0.98-0.98L843.69,295.97
			L843.69,295.97z"/>
		<path class="st0" d="M506.42,259.18l1.54,7.64c0.1,0.5,0.47,0.88,0.98,0.98l7.64,1.54l-7.64,1.54c-0.5,0.1-0.88,0.47-0.98,0.98
			l-1.54,7.64l-1.54-7.64c-0.1-0.5-0.47-0.88-0.98-0.98l-7.64-1.54l7.64-1.54c0.5-0.1,0.88-0.47,0.98-0.98L506.42,259.18
			L506.42,259.18z"/>
		<path class="st0" d="M432.22,316.28l1.54,7.64c0.1,0.5,0.47,0.88,0.98,0.98l7.64,1.54l-7.64,1.54c-0.5,0.1-0.88,0.47-0.98,0.98
			l-1.54,7.64l-1.54-7.64c-0.1-0.5-0.47-0.88-0.98-0.98l-7.64-1.54l7.64-1.54c0.5-0.1,0.88-0.47,0.98-0.98L432.22,316.28
			L432.22,316.28z"/>
	</g>
</g>
</svg>


