<?xml version="1.0" encoding="utf-8"?>
<!-- Generator: Adobe Illustrator 24.0.0, SVG Export Plug-In . SVG Version: 6.00 Build 0)  -->
<svg version="1.1" xmlns="http://www.w3.org/2000/svg" xmlns:xlink="http://www.w3.org/1999/xlink" x="0px" y="0px"
	 viewBox="0 0 1000 1000" style="enable-background:new 0 0 1000 1000;" xml:space="preserve" width="500" height="500">
<g>
	<g>
		<path d="M90.86,500.87c2.96,0.31,6.01,0.47,9.13,0.47c3.12,0,6.09,0.16,8.9,0.47c2.81,0.31,5.5,1.02,8.08,2.11
			c2.58,1.09,4.8,2.89,6.67,5.38c8.27-4.53,16.42-9.01,24.46-13.46c8.04-4.45,16.19-8.93,24.46-13.46c2.96-1.71,6.09-2.81,9.36-3.28
			h0.47c0.78,0,1.52,0.23,2.22,0.7c0.7,0.47,1.67,0.94,2.93,1.4c-2.81,0.78-5.23,1.37-7.26,1.76c-2.03,0.39-3.83,1.05-5.38,1.99
			c-7.81,4.53-15.53,9.01-23.18,13.46c-7.65,4.45-15.22,9.09-22.71,13.93c-1.09,0.63-2.03,1.6-2.81,2.93
			c-0.78,1.33-1.33,2.62-1.64,3.86c-2.19,7.65-5.7,14.36-10.54,20.13c-4.84,5.78-10.38,10.93-16.62,15.45
			c-1.56,1.41-3.04,2.19-4.45,2.34h-1.87c-1.25,0-2.46-0.08-3.63-0.23c-1.17-0.15-1.99-0.54-2.46-1.17
			c-0.78-0.78-1.09-1.99-0.94-3.63c0.15-1.64,0.62-2.93,1.4-3.86c4.68-5.46,9.95-11.27,15.8-17.44
			c5.85-6.16,11.59-11.51,17.21-16.04c-1.56-4.06-4.53-6.24-8.9-6.55c-3.59-0.31-7.1-0.43-10.54-0.35
			c-3.43,0.08-6.87-0.04-10.3-0.35c-1.72-0.15-3.47-0.27-5.27-0.35c-1.8-0.08-3.08-0.82-3.86-2.22c-0.78-1.56-0.58-3.12,0.58-4.68
			c1.17-1.56,2.22-2.89,3.16-3.98c5.46-5.93,11.08-11.67,16.86-17.21c5.77-5.54,11.31-11.27,16.62-17.21
			c4.68-5.46,9.21-11.08,13.58-16.86c4.37-5.77,8.43-11.71,12.17-17.79c6.55-10.61,3.59-16.31-8.9-17.09h-3.98
			c-3.43,0-6.75,0.12-9.95,0.35c-3.2,0.23-6.36,0.43-9.48,0.59c-0.78,2.81-1.37,5.27-1.76,7.37c-0.39,2.11-0.9,4.18-1.52,6.2
			c-0.31,0.78-0.82,1.56-1.52,2.34c-0.7,0.78-1.29,1.09-1.76,0.94c-0.32,0-0.55-0.04-0.7-0.12c-0.16-0.08-0.39-0.12-0.7-0.12
			c-1.4,0-2.34,0.55-2.81,1.64c-0.47,1.09-1.02,2.26-1.64,3.51c-5.15,9.21-9.75,18.85-13.81,28.91c-4.06,10.07-7.73,20.33-11,30.79
			c-3.28,10.46-6.24,20.99-8.9,31.6c-2.66,10.62-5,21.07-7.02,31.37c-0.63,2.81-0.74,5.66-0.35,8.54c0.39,2.89,0.58,5.74,0.58,8.54
			c0,0.62-0.08,1.29-0.23,1.99c-0.16,0.7-0.47,1.21-0.94,1.52c-0.16,0.15-0.47,0.23-0.94,0.23c-1.41,0-2.26-0.31-2.58-0.94
			c-0.78-1.56-1.56-3.2-2.34-4.92c-0.78-1.72-1.02-3.43-0.7-5.15c0.78-6.55,1.6-13.15,2.46-19.78c0.86-6.63,2.14-13.23,3.86-19.78
			c3.43-13.42,6.98-26.72,10.65-39.92c3.67-13.19,7.53-26.41,11.59-39.68c1.56-4.84,3.55-9.56,5.97-14.16
			c2.42-4.6,4.72-9.4,6.91-14.4c-0.94,0.31-1.91,0.58-2.93,0.82c-1.02,0.23-2.07,0.58-3.16,1.05c-5.31,2.66-10.62,5.31-15.92,7.96
			c-5.31,2.66-10.62,5.38-15.92,8.19c-1.09,0.63-2.15,1.25-3.16,1.87c-1.02,0.63-1.8,1.41-2.34,2.34c-0.55,0.94-0.82,1.95-0.82,3.04
			c0,1.09,0.54,2.42,1.64,3.98c-3.28,0-5.5-0.94-6.67-2.81c-1.17-1.87-0.9-4.13,0.82-6.79c2.49-3.59,5.54-6.63,9.13-9.13
			c11.24-7.96,23.02-14.4,35.35-19.31c12.33-4.92,25.13-8,38.39-9.25c0.78-0.15,1.48-0.23,2.11-0.23c0.62,0,1.32,0,2.11,0
			c2.96,0,5.89,0.27,8.78,0.82c2.89,0.55,5.65,1.21,8.31,1.99c4.52,1.4,7.53,3.98,9.01,7.73c1.48,3.75,1.6,8.04,0.35,12.88
			c-1.41,5.46-3.59,10.5-6.56,15.1c-2.97,4.61-6.32,8.94-10.07,12.99c-7.34,7.65-14.67,15.1-22.01,22.36
			c-7.34,7.26-14.75,14.55-22.24,21.89c-0.94,0.78-2.03,1.33-3.28,1.64c-1.25,0.31-2.19,0.94-2.81,1.87
			c-0.31,0.47-0.23,0.98,0.23,1.52C89.92,500.6,90.39,500.87,90.86,500.87z M116.61,522.17c-2.66,2.34-5.54,4.8-8.66,7.37
			c-3.12,2.58-6.09,5.23-8.9,7.96c-2.81,2.73-5.31,5.46-7.49,8.19c-2.19,2.73-3.59,5.27-4.21,7.61c2.65-0.47,5.46-1.64,8.43-3.51
			c2.96-1.87,5.81-4.25,8.54-7.14c2.73-2.89,5.19-6.12,7.37-9.71C113.87,529.35,115.51,525.77,116.61,522.17z"/>
		<path d="M249.58,484.48c-0.31,0.63-0.67,1.21-1.05,1.76c-0.39,0.55-0.9,0.98-1.52,1.29c-5.15,3.59-10.38,7.46-15.68,11.59
			c-5.31,4.14-10.69,8.08-16.15,11.82c-5.46,3.75-11.16,7.06-17.09,9.95c-5.93,2.89-12.1,4.8-18.49,5.74
			c-0.47,0.16-1.09,0.23-1.87,0.23c-1.87,0-3.55-0.54-5.03-1.64c-1.48-1.09-2.54-2.58-3.16-4.45c-1.25-4.21-1.87-8.04-1.87-11.47
			c0-3.43,0.47-6.75,1.4-9.95c0.94-3.2,2.3-6.36,4.1-9.48c1.8-3.12,4.02-6.32,6.67-9.6c1.56-2.03,3.35-3.78,5.38-5.27
			c2.03-1.48,4.13-2.93,6.32-4.33c1.87-1.09,3.67-1.64,5.38-1.64c2.18,0,3.98,0.94,5.38,2.81c0.94,1.25,1.52,2.89,1.76,4.92
			c0.23,2.03-0.04,3.83-0.82,5.38c-2.19,5.46-5.46,9.87-9.83,13.23c-4.37,3.36-9.05,6.44-14.05,9.25c-1.09,0.63-2.15,1.45-3.16,2.46
			c-1.01,1.02-1.68,2.07-1.99,3.16c-0.78,3.59-0.5,6.36,0.82,8.31c1.33,1.95,3.39,2.93,6.2,2.93c1.4,0,2.96-0.23,4.68-0.7
			c4.99-1.56,10.07-3.75,15.22-6.55c5.15-2.81,10.26-5.89,15.33-9.25c5.07-3.35,9.99-6.79,14.75-10.3c4.76-3.51,9.32-6.75,13.7-9.72
			c0.62-0.31,1.25-0.62,1.87-0.94c0.62-0.31,1.32-0.62,2.11-0.94L249.58,484.48z M180.05,495.72c3.9-2.03,7.33-4.37,10.3-7.02
			c2.96-2.65,4.84-6.24,5.62-10.77C187.85,481.21,182.54,487.14,180.05,495.72z"/>
		<path d="M343.69,487.76c-10.93,10.93-21.85,21.62-32.77,32.07c-1.25,1.09-2.5,2.11-3.75,3.04c-1.25,0.94-2.49,1.8-3.75,2.58
			c-1.72,1.09-3.51,1.64-5.38,1.64c-1.72,0-3.08-0.62-4.1-1.87c-1.01-1.25-1.36-3.12-1.05-5.62c0.31-2.96,0.92-6.12,1.82-9.48
			c0.91-3.35,2.01-6.71,3.3-10.07c1.29-3.35,2.75-6.56,4.38-9.6c1.63-3.04,3.3-5.81,5.01-8.31c0.78-0.94,1.83-1.76,3.16-2.46
			c1.32-0.7,2.61-1.05,3.86-1.05c2.03,0.63,2.89,1.72,2.58,3.28c-0.31,1.56-0.78,3.04-1.41,4.45c-2.19,4.53-4.37,9.13-6.55,13.81
			c-2.19,4.68-4.45,9.29-6.79,13.81c-0.31,0.63-0.5,1.25-0.58,1.87c-0.08,0.63-0.19,1.33-0.35,2.11c0.18,0.31,0.41,0.67,0.68,1.05
			c0.27,0.39,0.59,0.43,0.95,0.12c7.18-6.09,13.93-12.56,20.25-19.43c6.32-6.87,12.37-14.05,18.14-21.54
			c1.25-1.71,2.65-3.31,4.21-4.8c1.56-1.48,3.43-2.22,5.62-2.22c0.94,0,1.64,0.08,2.11,0.23c3.12,0.78,4.99,2.3,5.62,4.57
			c0.62,2.26,1.09,4.72,1.41,7.37c0.31,5.46-0.12,10.73-1.29,15.8c-1.17,5.07-2.62,10.18-4.33,15.33c-0.31,0.78-0.58,1.64-0.82,2.58
			c-0.23,0.94-0.58,2.19-1.05,3.75c6.09-4.84,11.98-9.48,17.67-13.93c5.7-4.45,11.43-8.86,17.21-13.23
			c0.94-0.78,2.11-1.71,3.51-2.81c1.41-1.09,2.93-2.11,4.57-3.04s3.24-1.76,4.8-2.46c1.56-0.7,2.96-1.05,4.21-1.05
			c0.47,0,0.97,0.04,1.52,0.12c0.54,0.08,1.05,0.12,1.52,0.12c-4.06,2.03-7.88,4.29-11.47,6.79c-3.59,2.5-7.1,5.15-10.53,7.96
			c-3.44,2.81-6.83,5.62-10.18,8.43c-3.36,2.81-6.75,5.46-10.18,7.96c-7.02,5-12.64,10.81-16.86,17.44
			c-4.21,6.63-8.35,13.54-12.41,20.72c-5.93,10.46-12.64,20.17-20.13,29.15c-7.49,8.97-16,17.21-25.52,24.7
			c-0.78,0.62-1.72,1.32-2.81,2.11c-1.09,0.78-2.3,1.56-3.63,2.34c-1.32,0.78-2.61,1.44-3.86,1.99c-1.25,0.54-2.34,0.82-3.28,0.82
			c-1.4,0-2.42-0.55-3.04-1.64c-0.62-1.09-0.62-2.58,0-4.45c0.63-1.87,1.52-3.71,2.69-5.5c1.17-1.8,2.15-3.55,2.93-5.27
			c2.19-3.9,4.84-8.04,7.96-12.41c3.12-4.37,6.48-8.66,10.07-12.88c3.59-4.21,7.18-8.31,10.77-12.29
			c3.59-3.98,6.94-7.61,10.07-10.89c3.12-3.28,5.81-6.16,8.08-8.66c2.26-2.5,3.86-4.37,4.8-5.62c3.12-6.71,5.5-13.26,7.14-19.67
			c1.64-6.4,3.55-12.88,5.74-19.43c0.31-1.25,0.54-2.49,0.7-3.75c0.15-1.25,0.31-2.5,0.47-3.75
			C344.7,488.39,344.15,488.07,343.69,487.76z M320.74,557.05c-7.49,7.02-15.06,14.87-22.71,23.53c-7.64,8.66-14.28,18.3-19.9,28.91
			c9.68-6.87,17.95-14.71,24.81-23.53C309.82,577.15,315.75,567.51,320.74,557.05z"/>
		<path d="M413.45,498.53c-1.25,4.37-2.42,8.74-3.51,13.11c-1.09,4.37-2.5,8.66-4.21,12.88c-1.25,3.12-2.81,5.54-4.68,7.26
			c-1.87,1.72-3.67,2.58-5.38,2.58c-0.47,0-1.17-0.15-2.11-0.47c-3.12-1.25-4.95-3.16-5.5-5.74c-0.54-2.58-0.82-5.27-0.82-8.08
			c0.16-6.24,1.29-12.17,3.39-17.79c2.11-5.62,4.96-10.92,8.54-15.92c1.72-2.81,4.13-4.84,7.26-6.09c0.15-0.15,0.54-0.23,1.17-0.23
			c0.94,0,1.95,0.23,3.04,0.7c1.09,0.47,1.72,1.02,1.87,1.64c0.62,2.5,1.6,4.53,2.93,6.09c1.32,1.56,2.85,2.77,4.57,3.63
			c1.72,0.86,3.55,1.45,5.5,1.76c1.95,0.31,3.94,0.47,5.97,0.47c6.56,0,13.15-0.54,19.78-1.64c6.63-1.09,12.52-3.82,17.67-8.19
			c0.62-0.31,1.32-0.47,2.11-0.47c0.15,0,0.27,0.04,0.35,0.12c0.08,0.08,0.19,0.12,0.35,0.12h0.23c0.31,0.63,0.54,1.33,0.7,2.11
			c0.15,0.78,0.08,1.33-0.23,1.64c-1.09,1.25-2.22,2.42-3.39,3.51c-1.17,1.09-2.46,2.03-3.86,2.81c-6.56,2.81-12.76,4.8-18.61,5.97
			c-5.85,1.17-12.29,1.76-19.31,1.76c-2.34-0.15-4.68-0.62-7.02-1.4C417.89,499.86,415.63,499.15,413.45,498.53z M396.36,526.15
			c3.59-4.06,5.93-8.5,7.02-13.34c1.09-4.84,1.25-9.91,0.47-15.22c-2.81,4.37-4.95,8.86-6.44,13.46
			C395.93,515.66,395.58,520.69,396.36,526.15z"/>
		<path d="M471.03,514.92c2.65-2.81,4.99-5.74,7.02-8.78c2.03-3.04,4.13-6.12,6.32-9.25c1.56-2.18,2.89-4.41,3.98-6.67
			c1.09-2.26,2.49-4.41,4.21-6.44c0.94-1.25,2.26-2.5,3.98-3.75c1.72-1.25,3.2-1.87,4.45-1.87c2.18-0.15,3.63,0.63,4.33,2.34
			c0.7,1.72,0.9,3.67,0.58,5.85c-0.63,4.06-1.29,8.23-1.99,12.52c-0.7,4.29-1.21,8.47-1.52,12.52c-0.31,2.81-0.23,5.66,0.23,8.54
			c0.47,2.89,1.17,5.66,2.11,8.31c1.41,4.68,3.75,7.02,7.02,7.02c2.34,0,4.99-1.25,7.96-3.75c5.15-4.53,10.18-9.17,15.1-13.93
			c4.92-4.76,9.87-9.4,14.87-13.93c3.43-3.12,6.63-6.24,9.6-9.36c2.96-3.12,6.16-6.24,9.6-9.36c0.47-0.47,1.32-0.86,2.58-1.17
			c0.15,0.31,0.31,0.51,0.47,0.58c0.15,0.08,0.39,0.27,0.7,0.58c-0.78,0.78-1.13,1.21-1.05,1.29c0.08,0.08-0.27,0.51-1.05,1.29
			c-7.18,7.02-14.28,14.09-21.3,21.19c-7.02,7.1-14.2,14.16-21.54,21.19c-3.59,3.44-6.83,5.89-9.71,7.38
			c-2.89,1.49-5.58,2.22-8.08,2.22c-4.37,0-7.88-1.87-10.53-5.62c-2.66-3.75-4.61-8.11-5.85-13.11c-0.78-3.43-1.21-6.98-1.29-10.65
			c-0.08-3.67-0.27-7.45-0.58-11.35c-2.34,2.97-4.61,5.82-6.79,8.54c-2.19,2.73-4.53,5.42-7.02,8.08c-1.56,1.72-3.2,3.59-4.92,5.62
			c-1.72,2.03-3.75,3.04-6.09,3.04c-0.94,0-1.95-0.23-3.04-0.7c-2.81-1.25-4.13-3.28-3.98-6.09c0.16-2.81,0.55-5.54,1.17-8.19
			c0.31-1.25,0.9-3.47,1.76-6.67c0.86-3.2,1.84-6.55,2.93-10.07c1.09-3.51,2.26-6.71,3.51-9.6c1.25-2.89,2.34-4.64,3.28-5.27
			c0.78-0.62,1.64-1.21,2.58-1.76c0.94-0.54,1.87-0.82,2.81-0.82c0.62,0,1.09,0.08,1.4,0.23c0.94,0.47,1.44,1.45,1.52,2.93
			c0.08,1.48-0.04,2.69-0.35,3.63c-1.25,3.75-2.73,7.46-4.45,11.12c-1.72,3.67-3.2,7.38-4.45,11.12c-0.63,1.72-1.13,3.39-1.52,5.03
			c-0.39,1.64-0.67,3.32-0.82,5.03c0,1.09,0.23,1.64,0.7,1.64C470.17,515.62,470.57,515.39,471.03,514.92z"/>
		<path d="M579.89,497.12c0.47-0.94,1.09-2.3,1.87-4.1c0.78-1.79,1.6-3.63,2.46-5.5c0.86-1.87,1.67-3.71,2.46-5.5
			c0.78-1.79,1.48-3.16,2.11-4.1c1.41-2.65,2.89-3.98,4.45-3.98c1.72,0,3.04,1.25,3.98,3.75c1.87,4.21,4.49,7.65,7.84,10.3
			c3.35,2.66,7.06,3.98,11.12,3.98c3.9,0,7.45-0.19,10.65-0.58c3.2-0.39,6.12-0.94,8.78-1.64c2.65-0.7,5.19-1.48,7.61-2.34
			c2.42-0.86,4.95-1.68,7.61-2.46c1.72,0,2.58,0.43,2.58,1.29c0,0.86-0.63,1.68-1.87,2.46c-1.25,0.63-3.83,1.4-7.73,2.34
			c-3.9,0.94-8.16,1.8-12.76,2.58c-4.6,0.78-8.9,1.49-12.88,2.11c-3.98,0.63-6.67,0.94-8.08,0.94c-5,0-8.82-1.36-11.47-4.1
			c-2.66-2.73-4.92-6.12-6.79-10.18c-2.66,6.71-5.15,13.11-7.49,19.2c-2.34,6.09-4.68,12.1-7.02,18.03
			c-0.78,2.03-1.49,4.02-2.11,5.97c-0.63,1.95-1.25,3.94-1.87,5.97c-0.31,1.25-0.74,2.38-1.29,3.39c-0.55,1.02-1.45,1.52-2.69,1.52
			c-0.63,0-1.09-0.08-1.4-0.23c-0.94-0.31-1.87-1.09-2.81-2.34c-0.94-1.25-1.4-2.26-1.4-3.04c0.16-9.36,0.7-18.61,1.64-27.74
			c0.94-9.13,3.04-18.06,6.32-26.8c0.47-1.25,1.6-2.46,3.39-3.63c1.79-1.17,3.31-1.68,4.57-1.52c1.87,0.16,3,1.09,3.39,2.81
			c0.39,1.72,0.43,3.44,0.12,5.15c-0.31,1.72-0.58,3.44-0.82,5.15c-0.23,1.72-0.51,3.43-0.82,5.15c0.15,0,0.12,0.43-0.12,1.29
			c-0.23,0.86-0.47,1.76-0.7,2.69c-0.23,0.94-0.47,1.8-0.7,2.57C579.77,496.74,579.73,497.12,579.89,497.12z"/>
		<path d="M676.81,520.54c9.21-6.09,18.26-12.29,27.16-18.61c8.9-6.32,18.18-12.06,27.86-17.21c0.15,0.31,0.31,0.55,0.47,0.7
			c0.15,0.16,0.31,0.39,0.47,0.7c-6.55,4.53-13.03,8.94-19.43,13.23c-6.4,4.29-12.88,8.7-19.43,13.23
			c-1.09,0.78-2.15,1.56-3.16,2.34c-1.02,0.78-2.07,1.56-3.16,2.34c-2.97,2.19-5.38,4.49-7.26,6.91c-1.87,2.42-2.66,5.89-2.34,10.42
			c0.31,3.28-0.23,6.64-1.64,10.07c-1.4,3.43-3.28,6.67-5.62,9.72c-2.34,3.04-5.07,5.7-8.19,7.96c-3.12,2.26-6.24,3.86-9.36,4.8
			c-1.25,0.31-2.34,0.47-3.28,0.47c-1.25,0-2.38-0.12-3.39-0.35c-1.01-0.23-1.76-0.67-2.22-1.29c-0.78-1.09-1.29-2.65-1.52-4.68
			c-0.23-2.03,0.04-3.59,0.82-4.68c8.27-11.86,17.87-22.71,28.79-32.54c-2.19-2.49-4.33-4.95-6.44-7.37
			c-2.11-2.42-4.41-4.64-6.91-6.67c-5.62-4.84-8.93-9.44-9.95-13.81c-1.01-4.37,0.27-9.75,3.86-16.15
			c3.28-5.93,7.06-11.47,11.35-16.62c4.29-5.15,9.32-9.75,15.1-13.81c0.31-0.31,0.59-0.5,0.82-0.58c0.23-0.08,0.5-0.27,0.82-0.59
			c1.87-1.09,3.51-1.64,4.92-1.64c1.71,0,3.43,0.94,5.15,2.81c1.56,1.72,1.95,3.36,1.17,4.92c-0.78,1.56-1.8,2.97-3.04,4.21
			c-2.34,2.5-4.72,4.92-7.14,7.26c-2.42,2.34-4.72,4.84-6.91,7.49c-2.19,2.66-4.29,5.38-6.32,8.19c-2.03,2.81-4.06,5.7-6.09,8.66
			c-2.81,4.37-2.42,8.58,1.17,12.64c2.18,2.66,4.33,5.46,6.44,8.43C672.48,514.37,674.62,517.41,676.81,520.54z M672.13,530.13
			c-2.34,2.5-4.76,4.96-7.26,7.38c-2.5,2.42-4.88,4.92-7.14,7.49c-2.26,2.58-4.29,5.31-6.09,8.19c-1.79,2.89-3.24,6.13-4.33,9.72
			c3.9-0.47,7.53-1.76,10.89-3.86c3.35-2.11,6.16-4.68,8.43-7.73c2.26-3.04,3.9-6.4,4.92-10.07
			C672.56,537.59,672.75,533.88,672.13,530.13z"/>
		<path d="M804.63,484.48c-0.31,0.63-0.67,1.21-1.05,1.76c-0.39,0.55-0.9,0.98-1.52,1.29c-5.15,3.59-10.38,7.46-15.68,11.59
			c-5.31,4.14-10.69,8.08-16.15,11.82c-5.46,3.75-11.16,7.06-17.09,9.95c-5.93,2.89-12.1,4.8-18.49,5.74
			c-0.47,0.16-1.09,0.23-1.87,0.23c-1.87,0-3.55-0.54-5.03-1.64c-1.48-1.09-2.54-2.58-3.16-4.45c-1.25-4.21-1.87-8.04-1.87-11.47
			c0-3.43,0.47-6.75,1.4-9.95c0.94-3.2,2.3-6.36,4.1-9.48c1.8-3.12,4.02-6.32,6.67-9.6c1.56-2.03,3.35-3.78,5.38-5.27
			c2.03-1.48,4.13-2.93,6.32-4.33c1.87-1.09,3.67-1.64,5.38-1.64c2.18,0,3.98,0.94,5.38,2.81c0.94,1.25,1.52,2.89,1.76,4.92
			c0.23,2.03-0.04,3.83-0.82,5.38c-2.19,5.46-5.46,9.87-9.83,13.23c-4.37,3.36-9.05,6.44-14.05,9.25c-1.09,0.63-2.15,1.45-3.16,2.46
			c-1.01,1.02-1.68,2.07-1.99,3.16c-0.78,3.59-0.5,6.36,0.82,8.31c1.33,1.95,3.39,2.93,6.2,2.93c1.4,0,2.96-0.23,4.68-0.7
			c4.99-1.56,10.07-3.75,15.22-6.55c5.15-2.81,10.26-5.89,15.33-9.25c5.07-3.35,9.99-6.79,14.75-10.3c4.76-3.51,9.32-6.75,13.7-9.72
			c0.62-0.31,1.25-0.62,1.87-0.94c0.62-0.31,1.32-0.62,2.11-0.94L804.63,484.48z M735.1,495.72c3.9-2.03,7.33-4.37,10.3-7.02
			c2.96-2.65,4.84-6.24,5.62-10.77C742.9,481.21,737.6,487.14,735.1,495.72z"/>
		<path d="M839.98,396.69c0.94-1.09,2.11-2.42,3.51-3.98c1.4-1.56,2.93-3.04,4.56-4.45c1.64-1.4,3.31-2.61,5.03-3.63
			c1.72-1.01,3.43-1.52,5.15-1.52c2.18,0,4.06,0.9,5.62,2.69c1.56,1.8,2.42,4.25,2.58,7.38c0.15,5.93-0.7,11.55-2.58,16.86
			c-1.87,5.31-3.98,10.46-6.32,15.45c-2.97,6.09-6.05,11.79-9.25,17.09c-3.2,5.31-6.59,10.42-10.18,15.33
			c-3.59,4.92-7.49,9.68-11.71,14.28c-4.21,4.61-8.74,9.33-13.58,14.16c-0.31,0.47-0.7,0.94-1.17,1.4c-0.47,0.47-0.78,0.94-0.94,1.4
			c-1.09,3.12-2.07,6.6-2.93,10.42c-0.86,3.83-1.56,7.73-2.11,11.71c-0.55,3.98-0.9,7.92-1.05,11.82c-0.16,3.9-0.08,7.49,0.23,10.77
			c0.31,2.66,1.13,4.41,2.46,5.27c1.32,0.86,3.24,1.29,5.74,1.29c2.34-0.47,4.72-0.97,7.14-1.52c2.42-0.54,4.72-1.29,6.91-2.22
			c10.3-4.68,19.82-10.34,28.56-16.97c8.74-6.63,17.56-13.38,26.45-20.25c3.12-2.34,6.12-4.72,9.01-7.14
			c2.89-2.42,5.89-4.88,9.01-7.38c0.78-0.62,1.48-1.13,2.11-1.52c0.62-0.39,1.32-0.82,2.11-1.29l1.4,1.4
			c-0.78,0.94-1.52,1.87-2.22,2.81s-1.52,1.8-2.46,2.58c-10.3,8.12-20.6,16.23-30.9,24.35c-10.3,8.12-20.83,16.15-31.6,24.11
			c-1.4,0.94-3.32,2.07-5.74,3.39c-2.42,1.33-5,2.54-7.73,3.63c-2.73,1.09-5.42,2.03-8.08,2.81c-2.66,0.78-4.92,1.17-6.79,1.17
			c-3.59,0-6.6-1.05-9.01-3.16c-2.42-2.11-4.02-5.11-4.8-9.01c-1.4-6.87-1.87-14.36-1.4-22.47c0.47-8.11,1.64-16.46,3.51-25.05
			c1.87-8.58,4.37-17.24,7.49-25.99c3.12-8.74,6.55-17.13,10.3-25.17c3.75-8.04,7.64-15.57,11.71-22.59
			C832.09,407.93,836.07,401.84,839.98,396.69z M813.29,478.86c2.96-2.34,6.4-5.93,10.3-10.77c3.9-4.83,7.8-10.26,11.71-16.27
			c3.9-6.01,7.65-12.25,11.24-18.73c3.59-6.47,6.59-12.6,9.01-18.38c2.42-5.77,4.06-10.85,4.92-15.22c0.86-4.37,0.5-7.41-1.05-9.13
			c-5.15,6.24-9.99,12.99-14.51,20.25c-4.53,7.26-8.74,14.67-12.64,22.24c-3.9,7.57-7.46,15.26-10.65,23.06
			C818.4,463.73,815.63,471.37,813.29,478.86z"/>
		<path d="M899.67,515.15c5.62-1.09,10.96-2.69,16.04-4.8c5.07-2.11,9.95-4.53,14.63-7.26c4.68-2.73,9.25-5.66,13.7-8.78
			c4.45-3.12,8.93-6.24,13.46-9.36c0.31,0.32,0.55,0.63,0.7,0.94c0.15,0.31,0.39,0.63,0.7,0.94c-3.28,3.75-7.06,7.49-11.35,11.24
			c-4.29,3.75-8.82,7.26-13.58,10.54c-4.76,3.28-9.64,6.17-14.63,8.66c-5,2.5-9.83,4.37-14.51,5.62c-2.34,0.63-3.59,1.68-3.75,3.16
			c-0.16,1.49-0.31,3.01-0.47,4.57c-0.47,12.64-1.99,25.01-4.56,37.11s-5.66,24.23-9.25,36.4c-0.94,3.43-2.42,6.63-4.45,9.6
			c-0.47,0.78-1.25,1.56-2.34,2.34c-1.09,0.78-1.95,1.01-2.58,0.7c-0.94-0.31-1.87-0.9-2.81-1.76c-0.94-0.86-1.48-1.76-1.64-2.69
			c-0.31-3.28-0.58-6.63-0.82-10.07c-0.23-3.43-0.12-6.79,0.35-10.07c4.06-24.82,9.52-49.16,16.39-73.04
			c6.87-23.88,15.22-47.6,25.05-71.17c0.78-1.72,1.52-3.35,2.22-4.92c0.7-1.56,1.6-3.04,2.69-4.45c2.34-2.65,4.45-3.98,6.32-3.98
			c2.5,0,3.04,2.42,1.64,7.26c-1.72,5-3.67,9.83-5.85,14.51c-2.19,4.68-4.21,9.52-6.09,14.51c-2.5,6.71-4.92,13.38-7.26,20.02
			c-2.34,6.64-4.68,13.38-7.02,20.25c-0.31,0.47-0.47,1.02-0.47,1.64C900.14,513.43,899.99,514.21,899.67,515.15z M891.24,543.24
			c-2.65,6.24-4.92,12.84-6.79,19.78c-1.87,6.94-3.35,13.58-4.45,19.9c-1.09,6.32-1.72,12.02-1.87,17.09
			c-0.15,5.07,0.31,8.86,1.4,11.35c3.28-11.71,5.85-23.18,7.73-34.41S890.47,554.48,891.24,543.24z"/>
	</g>
	<g>
		<path d="M368.15,604.04l-0.61-0.09l-0.52,0.04c-0.13,0-0.26-0.04-0.39-0.09l-0.3-0.17l-0.65-0.17l-0.57-0.04
			c-0.09,0-0.17,0-0.26-0.04l-0.43-0.26l-0.65-0.26l-0.61-0.17c-0.09-0.04-0.13-0.04-0.17-0.09l-0.43-0.26l-0.52-0.35l-0.43-0.3
			l-0.61-0.61l-0.48-0.35l-0.48-0.39l-0.13-0.17l-0.26-0.52l-0.39-0.35c-0.04-0.04-0.09-0.04-0.13-0.13l-0.35-0.56
			c0-0.04-0.04-0.13-0.04-0.13l-0.52-1.04c0-0.04-0.04-0.09-0.04-0.09l-0.13-0.39c0-0.04-0.04-0.09-0.04-0.13l-0.09-0.74l-0.09-0.39
			l-0.04-0.17l0.09-0.7l-0.22-1.17v-0.26l0.13-0.52l0.26-0.69l0.22-0.65l0.09-0.35c0-0.04,0.04-0.09,0.09-0.17l0.39-0.52l0.39-0.61
			c0-0.04,0.04-0.09,0.09-0.13l0.39-0.39l0.17-0.35c0.04-0.04,0.04-0.09,0.13-0.17l1.09-1l0.52-0.39l0.22-0.3
			c0.04-0.09,0.17-0.17,0.26-0.22l1.04-0.52l1.09-0.83l0.26-0.65l0.04-0.61l-0.52-1.3l-0.57-1.22c0-0.04-0.04-0.13-0.04-0.13
			l-0.17-0.61l-0.13-0.56l-0.26-0.69l-0.17-0.65l-0.17-0.48c0-0.04-0.04-0.09-0.04-0.17l-0.04-0.48v-0.13l0.13-1.22l0.13-0.69
			l0.13-0.74l0.04-0.43c0-0.13,0.09-0.26,0.13-0.35l0.22-0.26l0.13-0.48c0-0.09,0.09-0.17,0.13-0.26l0.39-0.43l0.35-0.52
			c0.04-0.09,0.13-0.13,0.17-0.17l0.35-0.22l0.17-0.39c0.04-0.09,0.09-0.13,0.17-0.22l0.39-0.35l0.65-0.39l0.96-0.48
			c0.09-0.04,0.17-0.09,0.26-0.09l0.43-0.04l0.78-0.17l0.7-0.13l0.39-0.13c0.09-0.04,0.13-0.04,0.17-0.04l1.3-0.04h0.09l0.39,0.09
			l0.7,0.13l0.61,0.22l0.61,0.3l0.48,0.09c0.09,0.04,0.26,0.09,0.35,0.17l0.35,0.35l0.61,0.35l0.09,0.09l0.48,0.39l0.35,0.3
			l0.35,0.52c0.04,0.04,0.09,0.09,0.09,0.13l0.17,0.43l0.3,0.74l0.17,0.56l0.13,0.69l0.22,0.48c0.04,0.13,0.09,0.22,0.09,0.3v0.39
			l0.09,1.17v0.17l-0.04,0.52c0,0.09-0.04,0.09-0.04,0.13l-0.26,0.69l-0.13,0.43l-0.3,0.74l-0.09,0.35
			c-0.04,0.13-0.13,0.26-0.26,0.35l-0.35,0.26l-0.22,0.48c-0.04,0.13-0.04,0.22-0.13,0.26l-0.35,0.26l-0.26,0.48
			c-0.04,0.09-0.04,0.13-0.09,0.17l-0.35,0.3l-0.13,0.13l-0.48,0.26l-0.61,0.56l-0.26,0.22l-0.13,0.09l-0.52,0.3l-1.09,1.09
			l-0.26,0.61l0.17,0.74l0.48,1.22l0.43,0.39l0.48,0.52l0.52,0.52l0.48,0.56l0.74,1l0.52,0.48c0,0,0.09,0.04,0.09,0.09l0.26,0.43
			l1.17,0.87l0.52,0.3h0.52l0.65-0.35l0.65-0.43l0.43-1.22l0.13-0.65l0.09-0.61l-0.09-0.43c-0.04-0.13-0.04-0.22,0-0.35l0.13-0.35
			l0.04-1.22l-0.09-0.7c0-0.22,0.04-0.35,0.17-0.52l0.22-0.22l0.04-0.22c0.09-0.26,0.22-0.43,0.39-0.48l0.26-0.04l0.96-0.17h0.17
			l0.91,0.09c0.09,0,0.17,0,0.3,0.09l0.3,0.17c0.17,0.13,0.26,0.3,0.3,0.48l0.17,0.7v1.35l-0.09,0.61l0.13,0.52
			c0,0.09,0.04,0.17,0.04,0.22L384,590.4c0,0.09-0.04,0.13-0.04,0.17l-0.22,0.48l-0.13,0.56l-0.13,0.74v0.43
			c0,0.09,0,0.17-0.04,0.26l-0.09,0.3c0,0.04-0.04,0.09-0.09,0.13l-0.39,0.52v0.52c0,0.17-0.04,0.3-0.13,0.39l-0.3,0.43l-0.3,1.13
			l-0.17,0.87l0.52,0.61l1.09,0.56l0.91,0.26c0.13,0.04,0.3,0.13,0.39,0.26l0.22,0.26c0.04,0.09,0.09,0.17,0.09,0.22l0.3,1
			l0.04,0.22l-0.04,0.78c0,0.09-0.04,0.17-0.09,0.3l-0.22,0.43l-0.3,0.3c-0.04,0.04-0.13,0.04-0.17,0.09l-0.26,0.17
			c-0.09,0.04-0.26,0.09-0.39,0.09l-0.91-0.04c-0.09,0-0.17-0.04-0.26-0.09l-0.43-0.17l-0.09-0.09l-0.43-0.26l-0.52-0.13
			c-0.13-0.04-0.17-0.04-0.26-0.13l-0.39-0.26l-0.57-0.26l-1.09-0.61h-0.78l-0.96,0.56l-0.65,0.43c-0.04,0.04-0.04,0-0.09,0.04
			l-0.39,0.17l-0.65,0.39l-0.52,0.3c-0.04,0.04-0.09,0.04-0.09,0.04l-0.52,0.26l-0.52,0.17l-1.39,0.26l-0.43,0.13l-0.61,0.09
			l-0.74,0.17l-0.52,0.17c-0.09,0.04-0.13,0-0.17,0l-0.48,0.04h-0.13L368.15,604.04z M369.49,599.96h0.09l0.56,0.04l0.7-0.13
			l0.61-0.04l0.61-0.22l0.69-0.13l1.13-0.61l0.26-0.48l0.22-0.52v-0.78l-0.39-0.35c-0.04-0.04-0.09-0.09-0.09-0.13l-0.65-1
			l-0.43-0.26l-0.13-0.13l-0.39-0.43c0,0-0.04-0.04-0.04-0.09l-0.35-0.52l-0.52-0.39c-0.04-0.04-0.09-0.09-0.13-0.17l-0.13-0.22
			l-0.52-0.48l-0.04-0.09l-0.43-0.56l-0.26-0.35l-0.56-0.65l-0.3-0.3c-0.04-0.04-0.09-0.04-0.13-0.13l-0.3-0.56l-0.96-0.87
			l-0.48-0.17l-0.7-0.04l-1.26,0.7l-0.39,0.35c-0.04,0.04-0.09,0.09-0.13,0.09l-0.52,0.3l-0.43,0.56l-0.3,0.48
			c0,0.04-0.09,0.09-0.09,0.09l-0.39,0.39l-0.39,0.56l-0.22,0.69l-0.13,0.61l-0.13,1.13l0.22,0.78l0.39,1.17l0.43,0.39
			c0.04,0.04,0.09,0.04,0.09,0.09l0.3,0.43l0.65,0.56l0.3,0.3l0.61,0.35l0.7,0.22l0.65,0.26l0.61,0.17l0.56,0.04l0.61,0.17
			L369.49,599.96z M369.71,582.15l1.22-0.78l0.52-0.35l0.39-0.48l0.48-0.61l0.43-0.48l0.3-0.52l0.26-0.65l0.04-0.48l0.17-1.39
			l-0.13-0.48l-0.35-0.65l-0.43-0.61l-0.26-0.35l-0.74-0.43l-0.48-0.04l-1.17,0.04l-0.83,0.13l-0.39,0.17l-0.7,0.35l-0.48,0.35
			l-0.22,0.48l-0.48,0.74l-0.22,0.56l0.09,1.35v0.56l0.26,0.65l0.3,0.61l0.13,0.48l0.43,1.26l0.7,0.48l0.7,0.13L369.71,582.15z"/>
		<path d="M408.37,602.39c-0.09,0-0.17-0.04-0.22-0.09l-0.26-0.17l-0.17-0.17l-0.22-0.3c-0.04-0.09-0.09-0.22-0.09-0.35l-0.04-1.26
			l-0.13-0.56c0-0.09-0.04-0.13-0.04-0.17v-0.52l0.13-0.65l-0.04-0.7l0.04-0.69l-0.13-0.52v-0.09l-0.04-0.61v-0.48
			c0-0.04,0.04-0.09,0.04-0.17l0.17-0.61l-0.13-0.52v-0.3l0.09-0.61l0.04-0.56l-0.13-0.52c0-0.09-0.04-0.04-0.04-0.13l-0.04-0.61
			l0.04-0.22l0.13-0.48l-0.13-0.52v-0.78l0.13-0.65l-0.04-0.78l-0.09-0.43v-0.26l0.09-0.52l-0.04-0.61v-0.17l0.13-0.52l-0.04-0.65
			l-0.09-0.52v-0.13l0.04-0.74v-0.56l-0.09-0.65c0-0.09,0.04-0.13,0.04-0.22l0.09-0.39l-0.04-0.83l-0.09-0.39
			c-0.04-0.09-0.04-0.26,0-0.35l0.13-0.39l0.04-0.65v-0.65l-0.17-0.56c-0.04-0.09,0-0.26,0-0.35l0.09-0.43l0.09-0.78l-0.09-0.43
			v-0.26l0.09-0.56l-0.13-0.43c-0.04-0.13-0.04-0.17-0.04-0.3l0.09-0.43l0.17-1.26c0-0.09,0.04-0.22,0.09-0.3l0.22-0.3
			c0-0.04,0.09-0.13,0.09-0.13l0.3-0.3c0.13-0.13,0.35-0.17,0.52-0.17h1.52l1.48-0.09h0.43l0.74-0.09h0.61l0.22,0.04l0.35,0.09h1.3
			l0.65-0.09c0.09,0,0.17-0.04,0.26,0l0.43,0.09l0.39-0.09c0.09-0.04,0.22-0.04,0.3,0l0.61,0.13l0.56-0.09
			c0.13-0.04,0.22,0,0.3,0.04l0.26,0.04l1.3-0.09h0.13l0.74,0.13h0.48c0.04,0,0.09,0,0.17,0.04l0.65,0.17l0.48,0.26l0.65,0.09
			c0.09,0,0.17,0.04,0.22,0.09l0.48,0.35l0.48,0.13c0.09,0,0.13,0,0.22,0.09l0.26,0.22l0.61,0.48l0.65,0.43l0.35,0.17
			c0.13,0.04,0.22,0.17,0.3,0.26l0.26,0.39l0.39,0.43l0.43,0.56l0.56,0.52l0.3,0.22c0.09,0.09,0.13,0.17,0.17,0.35l0.13,0.43
			l0.43,0.52l0.35,0.48c0.04,0.04,0.09,0.09,0.09,0.13l0.17,0.48l0.3,0.61l0.3,0.48c0.04,0.04,0.09,0.17,0.09,0.26l0.13,0.65
			l0.13,0.48l0.13,0.78l0.3,0.56c0.04,0.09,0.04,0.13,0.04,0.17l0.09,0.48l0.17,0.69v0.56l0.09,0.61v0.13l-0.04,0.65l0.17,0.74
			l0.09,1.04c0,0.09-0.04,0.17-0.04,0.26l-0.22,0.65l0.04,0.61v0.13l-0.09,0.43l-0.09,0.74l-0.09,0.56l-0.04,0.56
			c0,0.09-0.04,0.22-0.09,0.26l-0.26,0.52l-0.17,0.61v0.39c0,0.13-0.04,0.3-0.09,0.39l-0.26,0.43l-0.09,0.52
			c0,0.09-0.04,0.09-0.04,0.13l-0.26,0.52l-0.61,1.13l-0.35,0.48l-0.3,0.52l-0.48,0.56l-0.3,0.52c-0.04,0.09-0.09,0.13-0.13,0.17
			l-0.22,0.22c0,0-0.09,0.09-0.13,0.09l-0.61,0.39l-0.43,0.52l-0.22,0.3c-0.04,0.09-0.13,0.13-0.22,0.22l-0.56,0.39l-0.39,0.39
			l-0.48,0.26l-0.61,0.3l-0.52,0.22l-0.57,0.26c-0.04,0.04-0.09,0.04-0.13,0.04l-0.52,0.13l-0.83,0.17l-0.39,0.13l-0.74,0.17
			l-0.52,0.09h-0.13l-1.35-0.04h-0.56l-0.83-0.04l-0.48,0.04l-1.39,0.09h-1.35l-0.13-0.04l-0.7-0.09l-0.43,0.04l-0.83-0.04
			l-0.52,0.04l-0.83,0.04h-0.17l-0.48-0.04l-0.56,0.09h-0.22L408.37,602.39z M421.09,598c0.09-0.04,0.09-0.04,0.13-0.04h0.39
			l0.69-0.22l0.65-0.35l0.35-0.35c0.04-0.04,0.09-0.13,0.13-0.13l0.43-0.3c0.04-0.04,0.04,0,0.09-0.04l0.52-0.22l0.26-0.48
			c0-0.04,0.04-0.04,0.09-0.09l0.61-0.56l0.39-0.35l0.13-0.48c0-0.09,0.09-0.09,0.09-0.13l0.3-0.65l0.35-0.48l0.39-0.56l0.09-0.61
			c0-0.04,0.04-0.17,0.09-0.22l0.26-0.52l0.17-0.7l0.09-0.48c0-0.04,0-0.09,0.04-0.17l0.22-0.48l-0.04-0.56c0-0.13-0.04-0.13,0-0.26
			l0.22-0.61l0.04-0.61l-0.13-1.26v-0.13l0.04-0.61l-0.22-0.56c0-0.04-0.04-0.09-0.04-0.17l-0.04-0.65l-0.13-0.39
			c-0.04-0.09-0.04-0.13-0.04-0.26l0.09-0.61l-0.3-0.48c-0.04-0.09-0.13-0.26-0.13-0.39l0.04-0.3l-0.39-0.52
			c-0.04-0.04-0.13-0.13-0.13-0.22l-0.09-0.39l-0.43-0.78l-0.26-0.56l-0.26-0.48l-0.39-0.26c-0.13-0.09-0.22-0.17-0.26-0.35
			l-0.13-0.39l-0.48-0.39l-0.57-0.35c-0.13-0.09-0.22-0.13-0.26-0.22l-0.22-0.39l-0.52-0.22l-0.7-0.26l-0.56-0.3l-0.7-0.09
			c-0.04,0-0.09-0.04-0.13-0.04l-0.43-0.17l-1.48-0.04l-0.48,0.04l-0.78-0.04l-0.52,0.04h-0.17l-0.35-0.09l-0.65,0.13h-0.17
			l-0.48-0.04l-1.48,0.09l-1.22,0.13l-0.52,0.22l-0.43,0.61l-0.22,1.39l0.13,0.52v0.17l-0.04,0.65l-0.13,0.61l0.17,0.56l0.04,0.22
			v1.13c0,0.04-0.04,0.09-0.04,0.17l-0.13,0.56l0.09,0.56v0.13l-0.04,0.65l0.04,0.61l-0.04,0.56l0.04,0.61l0.04,0.52v0.22l-0.17,0.7
			l0.13,0.43c0.04,0.17,0.04,0.3,0,0.48l-0.13,0.39l0.13,0.43c0.04,0.09,0.04,0.26,0,0.35l-0.09,0.35l0.13,0.78v1.91
			c0,0.04-0.04,0.09-0.04,0.17l-0.13,0.56v0.48l0.09,0.65v0.17l-0.09,0.65l0.13,0.26c0.04,0.13,0.09,0.26,0.04,0.43l-0.13,0.61
			l0.13,1.22l0.48,0.56l0.43,0.39l1.48,0.17h1.22l0.7-0.09h0.52l0.74,0.04l0.52-0.04h0.26l0.39,0.09l1.96,0.04L421.09,598z"/>
		<path d="M453.37,603.17l-0.43-0.13l-0.74-0.04l-0.56-0.13h-0.52l-0.17-0.04l-1.74-0.48c-0.04,0-0.09-0.04-0.13-0.04l-0.61-0.35
			l-0.7-0.22l-0.52-0.22c-0.04,0-0.09,0-0.13-0.04l-0.35-0.22c-0.04-0.04-0.09-0.04-0.09-0.04l-0.43-0.39l-0.7-0.43l-0.43-0.22
			c-0.04,0-0.09-0.09-0.13-0.13l-0.52-0.48l-0.35-0.39l-0.35-0.52l-0.48-0.35l-0.09-0.09l-0.43-0.48l-0.13-0.17l-0.13-0.35
			l-0.48-0.43c-0.04-0.04-0.13-0.09-0.17-0.22l-0.22-0.52l-0.26-0.35c-0.04-0.04-0.09-0.13-0.09-0.17l-0.22-0.52l-0.35-0.74
			l-0.3-0.56l-0.17-0.52c0-0.04-0.04-0.09-0.04-0.17l-0.09-0.52l-0.22-0.61l-0.26-0.48c0-0.04-0.04-0.09-0.04-0.17l-0.13-0.7
			l-0.09-0.65v-0.61l-0.13-0.61v-0.17l0.04-0.39v-0.65l-0.13-1.39c0-0.09,0.04-0.09,0.04-0.17l0.09-0.56l-0.04-0.61
			c0-0.09,0.04-0.09,0.04-0.17l0.09-0.48l0.17-0.7v-0.56l0.04-0.48c0-0.13,0.04-0.17,0.09-0.26l0.3-0.61l0.09-0.56l0.17-0.61
			l0.13-0.48c0-0.09,0.09-0.22,0.13-0.3l0.39-0.48l0.17-0.48l0.22-0.7l0.3-0.61l0.39-0.56l0.35-0.43l0.09-0.09l0.52-0.43l0.09-0.39
			c0.04-0.13,0.17-0.3,0.3-0.39l0.35-0.17l0.3-0.48c0.04-0.09,0.13-0.17,0.22-0.22l0.35-0.22l0.48-0.48l0.7-0.48l0.22-0.26
			c0.04-0.04,0.13-0.09,0.22-0.13l0.56-0.26l0.35-0.3c0.09-0.09,0.17-0.09,0.22-0.13l0.61-0.26l0.61-0.22l0.35-0.22
			c0.04-0.04,0.13-0.09,0.22-0.09l0.48-0.13l0.56-0.22c0.04-0.04,0.09-0.04,0.13-0.04l0.61-0.13l0.74-0.09l0.61-0.04h0.57l0.56-0.17
			h0.17l1.26,0.04h0.65l0.61,0.04c0.04,0,0.09,0,0.17,0.04l0.52,0.22l1.35,0.26l0.61,0.04c0.04,0,0.13,0,0.17,0.04l0.57,0.22
			l0.48,0.17l0.56,0.26l0.57,0.35l0.52,0.26l0.17,0.13l0.39,0.43l0.56,0.22c0.09,0.04,0.22,0.09,0.3,0.22l0.22,0.26l0.43,0.3
			c0.04,0,0.09,0.09,0.09,0.09l0.48,0.48l0.43,0.35c0.09,0.09,0.17,0.09,0.22,0.22l0.17,0.39l0.61,0.48l0.3,0.3
			c0.09,0.09,0.13,0.17,0.17,0.26l0.17,0.56l0.39,0.3l0.17,0.17l0.22,0.39c0,0.04,0.04,0.13,0.04,0.13l0.26,0.65l0.26,0.61
			l0.17,0.56l0.26,0.56l0.22,0.56c0.04,0.09,0.09,0.17,0.09,0.26v0.35l0.26,0.78l0.13,0.65l0.22,0.52c0.04,0.09,0.04,0.13,0.04,0.26
			l-0.04,0.48v0.65l0.17,0.56l0.04,0.22v0.56l-0.04,1.22l0.09,0.56c0,0.09-0.04,0.17-0.04,0.26l-0.13,0.56l-0.13,0.61l0.09,0.48
			l-0.04,0.26l-0.13,0.61v0.09l-0.17,0.48l-0.3,0.74l-0.04,0.43c0,0.13-0.04,0.22-0.09,0.3l-0.22,0.35l-0.04,0.52
			c0,0.17-0.04,0.26-0.13,0.35l-0.35,0.43l-0.04,0.39c0,0.17-0.09,0.26-0.17,0.39l-0.35,0.35l-0.35,0.61l-0.09,0.39
			c-0.04,0.13-0.09,0.22-0.22,0.35l-0.26,0.26l-0.35,0.52l-0.43,0.61l-0.43,0.48l-0.43,0.43c0,0-0.09,0.09-0.13,0.09l-0.56,0.35
			l-0.52,0.43l-0.52,0.39l-0.26,0.39c-0.04,0.09-0.17,0.13-0.26,0.17l-0.52,0.3l-1.13,0.56l-0.65,0.22l-0.61,0.22l-0.43,0.17
			l-0.69,0.3c-0.04,0.04-0.13,0.04-0.22,0.04h-0.39l-0.52,0.22c-0.04,0.04-0.17,0.04-0.26,0.04l-0.56,0.04l-0.74-0.04l-0.39,0.13
			h-0.17l-1.22,0.04C453.54,603.22,453.45,603.22,453.37,603.17z M454.84,598.83l0.52,0.04l0.78-0.17l0.52-0.13l0.61-0.13l0.78-0.26
			l0.56-0.3l0.52-0.35l0.52-0.13l0.61-0.39l0.39-0.48l0.09-0.09l0.56-0.43l0.13-0.26c0.04-0.13,0.17-0.26,0.3-0.3l0.39-0.22
			l0.3-0.48l0.35-0.74l0.3-0.52l0.3-0.39l0.22-0.69l0.3-0.61l0.22-0.69l0.13-0.43l0.13-0.74l0.13-0.48c0-0.04,0.04-0.09,0.04-0.13
			l0.26-0.69l-0.09-0.39v-0.26l0.17-0.69l0.04-1.3l-0.04-0.48l-0.17-0.7l-0.17-0.61l-0.09-0.61c0-0.04-0.04-0.04-0.04-0.13
			l0.04-0.52l-0.17-0.78l-0.35-0.56c0-0.04-0.09-0.09-0.09-0.13l-0.35-1.13l-0.35-0.39c-0.04-0.04-0.09-0.04-0.13-0.13l-0.26-0.48
			l-0.3-0.43c-0.04-0.04-0.09-0.09-0.09-0.13l-0.22-0.61l-0.61-0.39l-0.09-0.09l-0.26-0.3l-0.48-0.43l-0.52-0.52l-0.65-0.3
			l-0.43-0.26l-0.48-0.3l-0.61-0.35l-0.83-0.26l-0.56-0.09l-0.61-0.04l-0.56-0.09l-0.65-0.04l-1.35-0.13l-0.7,0.09l-0.65,0.17
			l-0.61,0.09l-0.61,0.22c-0.04,0-0.09,0.04-0.13,0.04h-0.3l-0.56,0.39c-0.04,0.04-0.13,0.04-0.22,0.09l-0.57,0.13l-0.61,0.3
			l-0.52,0.52l-0.48,0.26l-0.3,0.39c-0.04,0.09-0.13,0.13-0.22,0.17l-0.43,0.26l-0.22,0.43c-0.04,0.09-0.04,0.13-0.13,0.22
			l-0.39,0.39l-0.26,0.48c0,0.04-0.04,0.09-0.04,0.09l-0.48,0.61l-0.17,0.43l-0.22,0.65c0,0.04-0.04,0.13-0.09,0.22l-0.35,0.43
			l-0.04,0.56v0.17l-0.13,0.39l-0.22,0.78l-0.17,0.52l-0.04,0.61l-0.17,0.78l0.09,0.39v0.22l-0.17,1.22l0.04,0.65l0.17,0.52
			c0.04,0.13,0.04,0.22,0.04,0.3l-0.04,0.43l0.3,0.74l0.17,0.69l0.17,0.56v0.09l0.09,0.56l0.22,0.39c0.04,0.09,0.09,0.09,0.09,0.17
			l0.17,0.61l0.35,0.39c0.04,0.04,0.09,0.09,0.13,0.17l0.17,0.48l0.35,0.65l0.83,0.96l0.57,0.52l0.35,0.39l0.52,0.43l0.48,0.35
			l0.65,0.26l0.13,0.13l0.35,0.26l0.61,0.13c0.04,0,0.09,0.04,0.13,0.09l0.52,0.26l0.56,0.04c0.04,0,0.13,0,0.17,0.04l0.48,0.22
			l0.61,0.09l0.65,0.04L454.84,598.83z"/>
		<path d="M478.17,602.52c-0.22-0.04-0.43-0.17-0.52-0.35l-0.13-0.17c-0.04-0.04-0.09-0.13-0.09-0.22l-0.26-1.13l-0.09-0.56
			c0-0.04,0.04-0.13,0.04-0.22l0.09-0.43l-0.09-0.74v-0.13l0.04-0.52l0.04-0.65l0.09-0.69l-0.09-0.48v-0.13l0.04-0.52l0.04-0.7
			l-0.17-0.56c-0.04-0.09,0-0.26,0-0.35l0.09-0.43l0.04-0.69l-0.13-0.43v-1.43c0-0.04,0.04-0.09,0.04-0.17l0.13-0.56v-1.22
			l-0.13-0.74v-0.52l0.04-0.83l-0.04-0.52v-1.39l-0.04-0.61v-0.65l0.17-0.69l-0.09-0.52l-0.13-0.74v-0.17l0.04-0.48
			c0-0.09,0.04-0.13,0.04-0.17l0.13-0.43l-0.17-0.56v-0.13l-0.04-0.61v-0.65l0.13-0.61l-0.04-0.61v-0.13l0.09-0.56l0.04-0.65
			l-0.09-0.78l-0.09-0.39l-0.04-0.22l0.04-0.74v-0.56l0.04-0.7l0.22-0.96c0.04-0.09,0.09-0.26,0.17-0.35l0.09-0.13
			c0.13-0.13,0.35-0.22,0.52-0.22l0.91-0.09l0.65-0.09h0.26l0.91,0.17c0.13,0.04,0.26,0.09,0.35,0.17l0.65,0.65l0.43,0.52
			c0,0,0.04,0.04,0.04,0.09l0.26,0.48l0.35,0.56l0.39,0.52c0,0,0.09,0.09,0.09,0.13l0.3,0.56l0.17,0.48l0.39,0.39
			c0.09,0.09,0.17,0.17,0.22,0.3l0.13,0.48l0.43,0.56c0.04,0.04,0.09,0.09,0.09,0.13l0.22,0.39l0.3,0.61l0.43,0.61l0.35,0.43
			l0.3,0.56l0.39,0.61l0.35,0.52l0.52,0.48l0.04,0.13l0.3,0.43c0,0.04,0.09,0.09,0.09,0.13l0.17,0.48l0.39,0.61l0.3,0.56l0.43,0.52
			c0.04,0.09,0.13,0.09,0.13,0.13l0.17,0.43l0.56,0.56l0.26,0.56l0.17,0.56l0.43,0.48c0.04,0.04,0.09,0.17,0.13,0.22l0.17,0.43
			l0.39,0.43l0.83,1.17l0.65,0.3l0.48,0.09l0.65-0.13l0.65-0.22l0.35-0.48l0.26-0.56l0.09-1.26c0-0.09,0.04-0.09,0.04-0.17
			l0.17-0.61l-0.17-0.61v-0.09l-0.04-0.35v-0.13l0.09-0.69v-0.56l0.09-0.74l-0.13-0.52c0-0.09-0.04-0.17-0.04-0.22l0.04-0.39
			l-0.04-0.74v-0.09l0.09-0.65l0.09-0.56l0.04-0.56l-0.04-0.74l0.04-0.7l-0.17-1.17l-0.04-0.52c0-0.09,0-0.17,0.04-0.3l0.17-0.39
			l-0.17-0.56v-0.13l-0.04-0.52c0-0.13,0-0.17,0.04-0.26l0.17-0.48l-0.13-0.61v-0.17l0.09-0.83c0-0.22,0.13-0.39,0.3-0.52l0.22-0.17
			c0.09-0.09,0.17-0.09,0.26-0.13l0.83-0.17c0.04,0,0.09-0.04,0.13-0.04h0.52c0.04,0,0.09,0.04,0.13,0.04l1.04,0.22
			c0.09,0.04,0.17,0.04,0.26,0.13l0.26,0.22c0.13,0.13,0.22,0.26,0.26,0.48l0.13,0.87l0.04,0.61c0,0.09,0,0.17-0.04,0.26l-0.13,0.39
			l0.13,0.61v0.26l-0.04,0.39l0.09,0.65c0,0.04-0.04,0.13-0.04,0.22l-0.09,0.43l-0.09,0.83l0.09,0.61l0.04,0.7l0.04,0.61v0.13
			l-0.09,0.52l-0.04,0.56l0.04,0.65l0.13,0.69v0.17l-0.04,0.43v0.09l-0.17,0.65l0.09,0.52l0.04,0.22l-0.09,0.52l0.13,0.52
			c0,0.09,0.04,0.17,0.04,0.22l-0.04,0.61l-0.04,0.65l-0.09,0.65l0.09,0.52v0.17l-0.09,0.61l0.13,0.43
			c0.04,0.09,0.04,0.13,0.04,0.26l-0.09,0.65l0.09,0.39v0.17l-0.04,0.74l-0.04,0.52l-0.09,0.7l0.04,0.65v0.61l0.09,0.52v0.22
			l-0.13,0.56l0.17,0.61v0.83l-0.17,0.65v0.56l0.13,0.43c0.04,0.13,0.04,0.26,0,0.39l-0.13,0.39l0.13,0.61
			c0,0.09,0.04,0.17,0.04,0.22l-0.09,0.61l0.09,0.52c0,0.13,0,0.17-0.04,0.3l-0.26,0.83c-0.04,0.13-0.13,0.22-0.17,0.26l-0.13,0.13
			c-0.09,0.09-0.26,0.17-0.39,0.22l-0.91,0.17c-0.04,0-0.09,0.04-0.13,0.04h-0.3l-0.7,0.04c-0.04,0-0.13,0.04-0.22,0l-0.61-0.13
			c-0.13-0.04-0.26-0.09-0.35-0.22l-0.65-0.7c0,0-0.09-0.04-0.09-0.09l-0.7-1.13l-0.3-0.48c0-0.04-0.04-0.09-0.04-0.13l-0.17-0.43
			l-0.39-0.48l-0.39-0.52l-0.3-0.7l-0.43-0.39c-0.09-0.09-0.09-0.13-0.13-0.17l-0.26-0.52l-0.35-0.43
			c-0.04-0.09-0.13-0.13-0.13-0.22l-0.13-0.39l-0.48-0.61c0-0.04-0.09-0.09-0.09-0.13l-0.13-0.3l-0.39-0.56l-0.43-0.61l-0.43-0.69
			l-0.22-0.22c-0.09-0.09-0.13-0.22-0.17-0.3l-0.13-0.52l-0.43-0.35c-0.04-0.04-0.09-0.09-0.13-0.17l-0.35-0.56l-0.35-0.61
			l-0.26-0.56l-0.35-0.26c-0.09-0.04-0.17-0.17-0.22-0.26l-0.26-0.56l-0.22-0.48l-0.3-0.61l-0.43-0.39l-0.43-0.52
			c-0.04-0.09-0.09-0.13-0.09-0.17l-0.22-0.52l-0.83-1.09l-0.57-0.22l-0.52-0.09l-0.65-0.09l-0.65,0.3l-0.3,0.39l-0.39,0.74v1.13
			l-0.04,0.78v0.56l0.04,0.65v0.09l-0.04,0.43l-0.13,0.7l0.13,0.43l0.04,0.3l-0.09,0.61l0.04,0.69l-0.04,0.65l0.04,0.48l-0.04,0.78
			v0.48l0.09,0.65c0,0.13,0,0.17-0.04,0.3l-0.13,0.3v1.35l0.13,0.56c0,0.09,0.04,0.17,0.04,0.22l-0.04,0.52l-0.04,0.56l-0.09,0.78
			l0.13,0.56c0,0.09,0.04,0.17,0.04,0.22l-0.04,0.52l-0.17,0.91c-0.04,0.22-0.17,0.39-0.3,0.48l-0.17,0.09
			c-0.04,0.04-0.09,0.04-0.13,0.04l-1,0.26c-0.04,0-0.09,0.04-0.13,0.04h-0.74L478.17,602.52z"/>
		<path d="M510.87,578.84l-0.22-0.04l-0.39-0.13c-0.13-0.04-0.26-0.17-0.35-0.26l-0.09-0.17c-0.04-0.09-0.09-0.17-0.09-0.3
			l-0.09-1.13l-0.13-0.61l-0.17-0.83l-0.04-0.56v-0.22l0.09-0.43l-0.17-0.56c0-0.04-0.04-0.17-0.04-0.26l0.04-0.52l0.09-1.22v-0.13
			l0.09-0.35c0.04-0.09,0.13-0.22,0.22-0.3l0.3-0.3l0.3-0.17c0.13-0.09,0.3-0.13,0.43-0.13l1.65,0.13c0.04,0,0.13,0,0.17,0.04
			l0.26,0.13c0.09,0.04,0.17,0.04,0.22,0.13l0.26,0.3c0.04,0.09,0.17,0.22,0.17,0.3l0.04,0.35l0.04,0.13v1.13l-0.13,0.74l-0.13,0.65
			l0.09,0.39v0.22l-0.04,0.61c0,0.09-0.04,0.09-0.04,0.13l-0.22,0.65l-0.04,0.52l-0.04,1.09c0,0.13-0.09,0.35-0.17,0.43l-0.17,0.22
			c-0.04,0.09-0.13,0.13-0.22,0.17l-0.26,0.13c-0.13,0.09-0.26,0.09-0.35,0.09L510.87,578.84z"/>
		<path d="M530.81,602.48c-0.17,0-0.39-0.09-0.52-0.22l-0.56-0.61c-0.13-0.17-0.22-0.35-0.22-0.52l0.04-1.09l-0.09-0.3
			c-0.04-0.09-0.04-0.26,0-0.35l0.13-0.48l-0.09-0.69l-0.13-0.56v-1.43l0.04-0.56l-0.04-0.61c0-0.13,0-0.17,0.04-0.3l0.17-0.39
			v-0.56l-0.13-0.7l-0.04-0.22l0.04-0.43l0.04-0.7l0.04-0.74l-0.09-0.39v-0.3l0.09-0.56v-0.52l-0.13-0.52
			c-0.04-0.09-0.04-0.26,0-0.35l0.13-0.56l-0.09-0.48l0.04-0.22l0.09-0.48l-0.17-0.52c-0.04-0.09-0.04-0.17-0.04-0.26l0.04-0.48
			v-0.13l0.17-0.56l-0.13-0.65l-0.09-0.61l0.04-0.22l0.09-0.48l0.04-0.56l-0.13-0.65v-0.17l0.04-0.48l-0.04-0.56l0.04-0.83
			l-0.09-0.43c0-0.13,0.04-0.17,0.04-0.26l0.13-0.56l-0.04-0.61l-0.26-1.3l-0.17-0.52l-0.56-0.52h-1.48l-0.65-0.17l-0.39,0.13h-0.26
			l-0.48-0.09l-0.52,0.13c-0.09,0-0.26,0-0.35-0.04l-0.3-0.13l-0.57,0.13c-0.13,0.04-0.26,0.04-0.39,0l-0.3-0.13h-1.04
			c-0.17,0-0.39-0.09-0.52-0.22l-0.56-0.56c-0.13-0.09-0.22-0.26-0.22-0.43l-0.09-0.83l0.04-0.87c0-0.09,0.04-0.26,0.09-0.35
			l0.26-0.39c0.04-0.09,0.09-0.09,0.13-0.13l0.3-0.22c0.09-0.09,0.22-0.17,0.35-0.17l1.22-0.13h0.7c0.04,0,0.09,0.04,0.13,0.04
			l0.48,0.09l0.78-0.09h1.35l0.43-0.04h0.96l0.48,0.09h0.7l0.48-0.04h0.17l0.7,0.04l0.56,0.04l1.35-0.13h0.7l0.48-0.04h0.65
			l0.87,0.13h1.17l0.57,0.04h0.83l0.39-0.09c0.09-0.04,0.22-0.04,0.3-0.04l0.56,0.09h0.65l0.57,0.04l0.61-0.04h0.17l1.09,0.13
			c0.09,0,0.17,0.04,0.26,0.09l0.48,0.3c0.04,0.04,0.13,0.04,0.17,0.13l0.17,0.22c0.04,0.09,0.13,0.17,0.13,0.26l0.17,0.96
			c0,0.13,0.04,0.17,0,0.3l-0.22,0.74l-0.17,0.48c-0.04,0.17-0.17,0.3-0.3,0.39l-0.3,0.13c-0.04,0.04-0.13,0.09-0.22,0.09
			l-1.26,0.04l-0.65-0.04l-0.43,0.13c-0.09,0-0.22,0-0.3-0.04l-0.35-0.09h-0.7l-0.7,0.09l-0.61,0.04l-1.83,0.04l-0.61,0.43
			l-0.3,0.56l-0.22,1.35l0.04,0.56l-0.04,0.7l0.09,0.56c0,0.04-0.04,0.13-0.04,0.22l-0.13,0.65l0.09,0.43l0.09,0.65v0.13l-0.04,0.56
			l-0.04,0.74v0.52l-0.04,0.78l-0.09,0.56l0.09,0.48v0.17l-0.04,0.56l0.13,0.61v0.22l-0.09,0.52l0.09,0.65v0.65l-0.17,0.74
			l0.04,0.52l0.13,0.65c0,0.09,0.04,0.13,0.04,0.22l-0.09,0.43l0.09,0.61v0.13l-0.04,0.61v0.09l-0.13,0.52l0.04,0.56l0.04,0.61v0.13
			l-0.09,0.61l0.04,0.69l0.04,0.43v0.13l-0.09,0.61l0.09,0.56v0.13l-0.09,0.65l0.13,0.52v0.74l-0.04,0.22l-0.13,0.43l-0.04,1.09
			c0,0.13-0.09,0.26-0.13,0.35l-0.17,0.3L533.2,602l-0.3,0.22c-0.09,0.09-0.22,0.17-0.35,0.17l-1,0.13L530.81,602.48z"/>
		<path d="M564.86,602.43c-0.04,0-0.17,0-0.22-0.04l-0.22-0.13c-0.09-0.04-0.22-0.13-0.26-0.26l-0.17-0.35l-0.13-0.43
			c-0.04-0.13-0.09-0.22-0.04-0.39l0.09-0.39l0.48-1.13l0.04-0.56c0-0.09,0.04-0.04,0.04-0.13l0.22-0.61l0.26-0.61l0.26-0.69
			l0.17-0.61l0.3-0.61l0.17-0.56l0.43-1.09l0.35-0.61l0.13-0.74l0.09-0.52c0-0.09,0.09-0.22,0.13-0.26l0.26-0.39l0.09-0.52
			c0-0.13,0.09-0.22,0.17-0.35l0.26-0.3l0.17-0.56l0.13-0.61l0.22-0.61c0-0.04,0.04-0.04,0.04-0.09l0.39-0.65l0.13-0.52l0.17-0.61
			l0.3-0.74l0.13-0.43l0.13-0.65c0-0.09,0.09-0.17,0.13-0.26l0.3-0.39l0.39-1.17l0.17-0.61c0-0.04,0.09-0.09,0.09-0.13l0.3-0.52
			l0.09-0.52c0-0.09,0.04-0.13,0.04-0.17l0.26-0.52l0.3-0.52l0.13-0.61c0-0.09,0.04-0.09,0.04-0.13l0.26-0.61l0.09-0.52l0.04-0.09
			l0.22-0.61l0.26-0.65l0.22-0.52c0,0,0.04-0.04,0.04-0.09l0.3-0.48l0.22-0.7v-0.39c0-0.13,0.04-0.17,0.09-0.3l0.26-0.56l0.17-0.43
			c0-0.04,0.04-0.09,0.04-0.13l0.3-0.48l0.52-1.13c0.04-0.13,0.13-0.17,0.22-0.26l0.04-0.04c0.09-0.04,0.22-0.13,0.3-0.13l1.13-0.17
			h0.7l1.09,0.04c0.13,0,0.3,0.09,0.39,0.17l0.17,0.13l0.22,0.22l0.56,0.91c0.04,0.09,0.09,0.17,0.09,0.22l0.26,1.09l0.35,0.61
			c0.04,0.09,0.09,0.17,0.09,0.3l0.04,0.43l0.22,0.52l0.3,0.48c0.04,0.04,0.09,0.17,0.09,0.22l0.13,0.48l0.22,0.7l0.17,0.65
			l0.26,0.48l0.3,0.74c0,0.04,0.04,0.09,0.04,0.13l0.13,0.48l0.22,0.56l0.26,0.7l0.17,0.61l0.22,0.61l0.35,0.52
			c0.04,0.04,0.09,0.13,0.09,0.22l0.09,0.39l0.13,0.56l0.35,0.56c0.04,0.09,0.09,0.09,0.09,0.17l0.13,0.61l0.3,0.48l0.26,0.65
			l0.17,0.56l0.17,0.74l0.17,0.56l0.17,0.61l0.57,1.13c0.04,0.09,0.09,0.13,0.09,0.17l0.04,0.43l0.3,0.43
			c0.04,0.04,0.09,0.17,0.09,0.26l0.13,0.56l0.3,0.56c0,0.04,0.09,0.09,0.09,0.13l0.09,0.43l0.26,0.65l0.22,0.61l0.26,0.56
			c0.04,0.04,0.04,0.17,0.04,0.22l0.04,0.56l0.35,0.52l0.22,0.43c0.04,0.09,0.04,0.13,0.04,0.17l0.13,0.65l0.26,0.43
			c0,0.04,0.09,0.04,0.09,0.13l0.22,0.65l0.09,0.56l0.43,1c0.04,0.13,0.09,0.26,0.04,0.43l-0.17,0.65v0.35
			c0,0.17-0.09,0.35-0.22,0.48l-0.13,0.13c-0.13,0.13-0.3,0.22-0.48,0.22l-1,0.04h-0.09l-1.17-0.09c-0.04,0-0.17-0.04-0.22-0.09
			l-0.17-0.09c-0.17-0.09-0.35-0.26-0.39-0.43l-0.35-0.96l-0.35-0.52c-0.04-0.04-0.09-0.13-0.09-0.22l-0.13-0.43l-0.17-0.61
			l-0.13-0.61l-0.22-0.61l-0.26-0.48l-0.26-0.65l-0.26-0.7l-0.3-0.48c-0.04-0.09-0.04-0.13-0.04-0.17l-0.35-1.04l-0.65-0.3l-1.3-0.3
			l-0.39,0.13c-0.09,0.04-0.22,0.09-0.35,0.04l-0.52-0.13l-0.56-0.04l-0.52,0.17c-0.09,0.04-0.26,0.04-0.35,0l-0.52-0.17l-0.52,0.09
			h-0.17l-0.52-0.04l-0.78,0.09h-0.09l-0.61-0.04l-0.39,0.09h-0.17l-1.26-0.09h-0.78l-1.3,0.09l-0.56,0.43l-0.43,1.04l-0.22,0.69
			c0,0.09-0.04,0.13-0.04,0.17l-0.35,0.52v0.35c0,0.13-0.04,0.26-0.09,0.35l-0.22,0.39l-0.26,0.65l-0.17,0.52l-0.26,0.65l-0.13,0.52
			l-0.17,0.61c0,0.04-0.09,0.09-0.09,0.13l-0.52,0.87c-0.04,0.04-0.04,0.13-0.13,0.22l-0.39,0.3c-0.09,0.09-0.26,0.13-0.35,0.13
			l-1.04,0.13h-0.17L564.86,602.43z M577.85,589.53h1.39l0.39-0.35c0.04-0.04,0.13-0.04,0.17-0.09l0.48-0.22l0.26-0.78l0.04-0.61
			l-0.39-1.13l-0.3-0.74l-0.17-0.74l-0.52-1.22l-0.26-0.48l-0.26-0.65l-0.43-0.48l-0.3-0.43l-0.56-0.3l-0.65-0.13l-0.61,0.35
			l-0.17,0.35c-0.04,0.09-0.09,0.13-0.13,0.17l-0.48,0.52l-0.35,0.43l-0.09,0.56c0,0.09-0.04,0.22-0.09,0.26l-0.56,1.04l-0.22,0.78
			l-0.09,0.61l-0.39,1.13l-0.09,0.74l0.43,0.56l0.26,0.48l0.78,0.35h1.87l0.61,0.13L577.85,589.53z"/>
		<path d="M599.53,602.3l-0.22-0.09c-0.22-0.09-0.43-0.26-0.48-0.43l-0.09-0.3l-0.26-1.13v-0.3l0.13-0.65l-0.04-0.52l-0.09-0.65
			v-0.26l0.13-0.56l-0.17-0.39c-0.04-0.13-0.04-0.13-0.04-0.26l0.04-0.65v-0.69l0.17-0.61l-0.04-0.65l0.04-0.61l-0.13-0.35
			c-0.04-0.17-0.09-0.3-0.04-0.48l0.13-0.35l-0.04-0.74l0.04-0.65l-0.09-0.65l-0.09-0.61c0-0.09,0.04-0.13,0.04-0.22l0.13-0.61
			l0.04-0.48l-0.13-0.65l-0.04-0.78l-0.04-0.52v-0.13l0.09-0.61l0.04-0.65l0.04-0.74l-0.13-0.35c-0.04-0.13-0.04-0.17-0.04-0.3
			l0.09-0.61l0.04-0.56l-0.09-0.83l-0.04-0.43c0-0.13,0-0.22,0.04-0.3l0.17-0.48l-0.13-0.65l-0.09-0.65v-0.13l0.04-0.43v-1.56
			l0.13-0.43l-0.13-0.65l-0.04-0.17l0.04-0.56l0.09-0.52l-0.09-0.56v-0.22l0.13-0.69l0.13-1.17c0-0.04,0-0.17,0.04-0.22l0.13-0.22
			c0.04-0.13,0.17-0.26,0.26-0.3l0.39-0.22c0.04-0.04,0.17-0.09,0.22-0.09l1.22-0.22h0.7l0.74,0.13l0.61-0.04l0.43-0.04H605
			l0.65,0.04l0.43-0.09c0.13-0.04,0.13-0.04,0.26,0l0.52,0.09h0.69l0.83,0.04l0.3-0.09c0.09-0.04,0.22-0.04,0.3-0.04h0.7l0.61,0.09
			l0.52-0.04h0.7l1.35,0.04l0.74,0.09h0.52c0.13,0,0.3,0.09,0.39,0.13l0.22,0.13l0.61,0.04c0.09,0,0.17,0,0.3,0.09l0.43,0.26
			l0.52,0.09c0.13,0.04,0.26,0.09,0.35,0.17l0.26,0.22l0.52,0.17c0.09,0.04,0.13,0.04,0.17,0.09l0.35,0.26l0.13,0.13l0.35,0.48
			l0.7,0.48l0.3,0.26c0.04,0,0.09,0.04,0.09,0.09l0.39,0.52c0,0.04,0.04,0.04,0.04,0.09l0.17,0.39l0.35,0.56l0.35,0.61
			c0.04,0.04,0.09,0.17,0.09,0.22l0.09,0.48l0.13,0.65l0.22,0.26c0.09,0.13,0.09,0.35,0.09,0.48v0.48l0.22,0.43
			c0.04,0.13,0.09,0.17,0.09,0.3v0.56l-0.13,1.35v0.69l-0.13,0.65l-0.09,0.56l-0.04,0.39c0,0.04,0,0.17-0.04,0.22l-0.26,0.56
			l-0.3,0.69l-0.22,0.48c0,0.04-0.04,0.09-0.09,0.13l-0.35,0.48l-0.3,0.48l-0.17,0.48c-0.04,0.13-0.13,0.22-0.17,0.26l-0.35,0.35
			l-0.17,0.13l-0.48,0.22l-0.26,0.3c-0.04,0.09-0.09,0.13-0.13,0.17l-0.61,0.39l-0.39,0.3l-0.13,0.09l-0.65,0.3l-0.48,0.17
			c-0.04,0-0.09,0.04-0.13,0.04l-0.65,0.09l-0.57,0.17l-0.43,0.22c-0.04,0.04-0.17,0.04-0.22,0.04l-0.56,0.09h-2l-0.7-0.04
			l-0.52,0.09h-0.22l-0.39-0.09l-0.61,0.04l-0.74,0.04h-0.09l-0.39-0.04l-0.78-0.13l-0.48,0.13c-0.13,0.04-0.26,0.04-0.39,0
			l-0.22-0.09l-0.61-0.04l-1.43,0.26l-0.61,0.35l-0.43,0.52l-0.17,1.48l0.04,0.61v0.13l-0.04,0.39l0.09,0.65v0.13l-0.04,0.69
			l0.09,0.48v1.43l0.09,0.61v0.17l-0.09,0.48v0.56l-0.04,0.69l-0.17,1.26c0,0.13-0.04,0.17-0.09,0.26l-0.22,0.35
			c0,0.04-0.09,0.09-0.09,0.13l-0.22,0.22c-0.09,0.09-0.3,0.22-0.43,0.22l-0.83,0.09h-0.26L599.53,602.3z M610.43,586.27l0.3-0.04
			l0.17-0.04h0.7l1.13-0.09l0.83-0.04l0.43-0.09l0.56-0.22c0.04-0.04,0.09-0.04,0.13-0.04l0.65-0.09l0.39-0.39l0.39-0.43l0.52-0.61
			l0.39-0.39l0.13-0.43c0-0.09,0.04-0.17,0.09-0.22l0.3-0.48l-0.09-0.48c0-0.13,0-0.17,0.04-0.3l0.17-0.61v-1.82l-0.3-0.65
			l-0.22-0.56l-0.22-0.52l-0.22-0.69l-0.57-0.39l-0.48-0.39l-0.04-0.09l-0.3-0.3l-0.61-0.17l-0.61-0.22l-0.65-0.22l-0.69-0.13h-1.09
			l-0.65,0.09h-0.09l-1.35-0.09l-0.43,0.13c-0.09,0.04-0.17,0-0.22,0l-0.61-0.09l-0.48,0.04l-0.74,0.04h-0.65l-0.69-0.17l-0.43,0.17
			c-0.09,0.04-0.09,0.04-0.13,0.04l-1.22,0.13l-0.61,0.22l-0.3,0.65l-0.26,1.39l-0.09,0.65l0.13,0.69v0.61l0.09,0.83v0.52l-0.17,0.7
			l0.13,0.61c0.04,0.09,0.04,0.3,0,0.39l-0.17,0.48v0.65l0.22,1.35l0.35,0.56l0.61,0.43l1.3,0.09l0.7-0.09h0.56l0.65-0.04h0.69
			l0.57,0.09l0.48-0.04c0.09,0,0.22,0,0.3,0.04l0.39,0.09H610.43z"/>
		<path d="M642.44,603.17l-0.43-0.13l-0.74-0.04l-0.56-0.13h-0.52l-0.17-0.04l-1.74-0.48c-0.04,0-0.09-0.04-0.13-0.04l-0.61-0.35
			l-0.7-0.22l-0.52-0.22c-0.04,0-0.09,0-0.13-0.04l-0.35-0.22c-0.04-0.04-0.09-0.04-0.09-0.04l-0.43-0.39l-0.7-0.43l-0.43-0.22
			c-0.04,0-0.09-0.09-0.13-0.13l-0.52-0.48l-0.35-0.39l-0.35-0.52l-0.48-0.35l-0.09-0.09l-0.43-0.48l-0.13-0.17l-0.13-0.35
			l-0.48-0.43c-0.04-0.04-0.13-0.09-0.17-0.22l-0.22-0.52l-0.26-0.35c-0.04-0.04-0.09-0.13-0.09-0.17l-0.22-0.52l-0.35-0.74
			l-0.3-0.56l-0.17-0.52c0-0.04-0.04-0.09-0.04-0.17l-0.09-0.52l-0.22-0.61l-0.26-0.48c0-0.04-0.04-0.09-0.04-0.17l-0.13-0.7
			l-0.09-0.65v-0.61l-0.13-0.61v-0.17l0.04-0.39v-0.65l-0.13-1.39c0-0.09,0.04-0.09,0.04-0.17l0.09-0.56l-0.04-0.61
			c0-0.09,0.04-0.09,0.04-0.17l0.09-0.48l0.17-0.7v-0.56l0.04-0.48c0-0.13,0.04-0.17,0.09-0.26l0.3-0.61l0.09-0.56l0.17-0.61
			l0.13-0.48c0-0.09,0.09-0.22,0.13-0.3l0.39-0.48l0.17-0.48l0.22-0.7l0.3-0.61l0.39-0.56l0.35-0.43l0.09-0.09l0.52-0.43l0.09-0.39
			c0.04-0.13,0.17-0.3,0.3-0.39l0.35-0.17l0.3-0.48c0.04-0.09,0.13-0.17,0.22-0.22l0.35-0.22l0.48-0.48l0.7-0.48l0.22-0.26
			c0.04-0.04,0.13-0.09,0.22-0.13l0.56-0.26l0.35-0.3c0.09-0.09,0.17-0.09,0.22-0.13l0.61-0.26l0.61-0.22l0.35-0.22
			c0.04-0.04,0.13-0.09,0.22-0.09l0.48-0.13l0.56-0.22c0.04-0.04,0.09-0.04,0.13-0.04l0.61-0.13l0.74-0.09l0.61-0.04h0.57l0.56-0.17
			h0.17l1.26,0.04h0.65l0.61,0.04c0.04,0,0.09,0,0.17,0.04l0.52,0.22l1.35,0.26l0.61,0.04c0.04,0,0.13,0,0.17,0.04l0.57,0.22
			l0.48,0.17l0.56,0.26l0.57,0.35l0.52,0.26l0.17,0.13l0.39,0.43l0.56,0.22c0.09,0.04,0.22,0.09,0.3,0.22l0.22,0.26l0.43,0.3
			c0.04,0,0.09,0.09,0.09,0.09l0.48,0.48l0.43,0.35c0.09,0.09,0.17,0.09,0.22,0.22l0.17,0.39l0.61,0.48l0.3,0.3
			c0.09,0.09,0.13,0.17,0.17,0.26l0.17,0.56l0.39,0.3l0.17,0.17l0.22,0.39c0,0.04,0.04,0.13,0.04,0.13l0.26,0.65l0.26,0.61
			l0.17,0.56l0.26,0.56l0.22,0.56c0.04,0.09,0.09,0.17,0.09,0.26v0.35l0.26,0.78l0.13,0.65l0.22,0.52c0.04,0.09,0.04,0.13,0.04,0.26
			l-0.04,0.48v0.65l0.17,0.56l0.04,0.22v0.56l-0.04,1.22l0.09,0.56c0,0.09-0.04,0.17-0.04,0.26l-0.13,0.56l-0.13,0.61l0.09,0.48
			l-0.04,0.26l-0.13,0.61v0.09l-0.17,0.48l-0.3,0.74l-0.04,0.43c0,0.13-0.04,0.22-0.09,0.3l-0.22,0.35l-0.04,0.52
			c0,0.17-0.04,0.26-0.13,0.35l-0.35,0.43l-0.04,0.39c0,0.17-0.09,0.26-0.17,0.39l-0.35,0.35l-0.35,0.61l-0.09,0.39
			c-0.04,0.13-0.09,0.22-0.22,0.35l-0.26,0.26l-0.35,0.52l-0.43,0.61l-0.43,0.48l-0.43,0.43c0,0-0.09,0.09-0.13,0.09l-0.56,0.35
			l-0.52,0.43l-0.52,0.39l-0.26,0.39c-0.04,0.09-0.17,0.13-0.26,0.17l-0.52,0.3l-1.13,0.56l-0.65,0.22l-0.61,0.22l-0.43,0.17
			l-0.69,0.3c-0.04,0.04-0.13,0.04-0.22,0.04h-0.39L646,603c-0.04,0.04-0.17,0.04-0.26,0.04l-0.56,0.04l-0.74-0.04l-0.39,0.13h-0.17
			l-1.22,0.04C642.62,603.22,642.53,603.22,642.44,603.17z M643.92,598.83l0.52,0.04l0.78-0.17l0.52-0.13l0.61-0.13l0.78-0.26
			l0.56-0.3l0.52-0.35l0.52-0.13l0.61-0.39l0.39-0.48l0.09-0.09l0.56-0.43l0.13-0.26c0.04-0.13,0.17-0.26,0.3-0.3l0.39-0.22
			l0.3-0.48l0.35-0.74l0.3-0.52l0.3-0.39l0.22-0.69l0.3-0.61l0.22-0.69l0.13-0.43l0.13-0.74l0.13-0.48c0-0.04,0.04-0.09,0.04-0.13
			l0.26-0.69l-0.09-0.39v-0.26l0.17-0.69l0.04-1.3l-0.04-0.48l-0.17-0.7l-0.17-0.61l-0.09-0.61c0-0.04-0.04-0.04-0.04-0.13
			l0.04-0.52l-0.17-0.78l-0.35-0.56c0-0.04-0.09-0.09-0.09-0.13l-0.35-1.13l-0.35-0.39c-0.04-0.04-0.09-0.04-0.13-0.13l-0.26-0.48
			l-0.3-0.43c-0.04-0.04-0.09-0.09-0.09-0.13l-0.22-0.61l-0.61-0.39l-0.09-0.09l-0.26-0.3l-0.48-0.43l-0.52-0.52l-0.65-0.3
			l-0.43-0.26l-0.48-0.3l-0.61-0.35l-0.83-0.26l-0.56-0.09l-0.61-0.04l-0.56-0.09l-0.65-0.04l-1.35-0.13l-0.7,0.09l-0.65,0.17
			l-0.61,0.09l-0.61,0.22c-0.04,0-0.09,0.04-0.13,0.04h-0.3l-0.56,0.39c-0.04,0.04-0.13,0.04-0.22,0.09l-0.57,0.13l-0.61,0.3
			l-0.52,0.52l-0.48,0.26l-0.3,0.39c-0.04,0.09-0.13,0.13-0.22,0.17l-0.43,0.26l-0.22,0.43c-0.04,0.09-0.04,0.13-0.13,0.22
			l-0.39,0.39l-0.26,0.48c0,0.04-0.04,0.09-0.04,0.09l-0.48,0.61l-0.17,0.43l-0.22,0.65c0,0.04-0.04,0.13-0.09,0.22l-0.35,0.43
			l-0.04,0.56v0.17l-0.13,0.39l-0.22,0.78l-0.17,0.52l-0.04,0.61l-0.17,0.78l0.09,0.39v0.22l-0.17,1.22l0.04,0.65l0.17,0.52
			c0.04,0.13,0.04,0.22,0.04,0.3l-0.04,0.43l0.3,0.74l0.17,0.69l0.17,0.56v0.09l0.09,0.56l0.22,0.39c0.04,0.09,0.09,0.09,0.09,0.17
			l0.17,0.61l0.35,0.39c0.04,0.04,0.09,0.09,0.13,0.17l0.17,0.48l0.35,0.65l0.83,0.96l0.57,0.52l0.35,0.39l0.52,0.43l0.48,0.35
			l0.65,0.26l0.13,0.13l0.35,0.26l0.61,0.13c0.04,0,0.09,0.04,0.13,0.09l0.52,0.26l0.56,0.04c0.04,0,0.13,0,0.17,0.04l0.48,0.22
			l0.61,0.09l0.65,0.04L643.92,598.83z"/>
		<path d="M675.71,602.61l-0.48-0.13l-0.65,0.09l-0.39,0.04h-0.26l-0.52-0.09h-0.87l-0.43,0.09c-0.13,0.04-0.22,0-0.3,0l-0.52-0.09
			l-0.48,0.04h-0.22l-0.57-0.04h-0.69l-0.57,0.04h-0.17l-1.09-0.13c-0.04,0-0.04,0-0.13-0.04l-0.39-0.17
			c-0.17-0.09-0.39-0.22-0.43-0.39l-0.09-0.3l-0.26-1.22c0-0.09-0.04-0.22,0-0.3l0.17-0.65v-1.22l-0.04-0.56l0.04-0.69l-0.13-0.74
			v-0.56l-0.04-0.78l-0.04-0.56v-0.17l0.09-0.43l0.04-0.78v-0.61l0.09-0.65l-0.13-0.35c-0.04-0.17-0.09-0.22-0.04-0.39l0.13-0.61
			l-0.13-0.48c-0.04-0.13-0.04-0.26,0-0.39l0.17-0.48l-0.13-0.26c-0.04-0.13-0.09-0.3-0.04-0.43l0.13-0.56l-0.04-0.61v-0.7
			l0.04-0.56l-0.04-0.61l-0.09-0.56v-0.26l0.09-0.48l0.04-0.65v-0.65l0.04-0.83l-0.13-0.3c-0.04-0.09-0.04-0.26-0.04-0.39l0.09-0.65
			l-0.04-0.3c0-0.13-0.04-0.17,0-0.3l0.13-0.52l-0.13-0.43c-0.04-0.17-0.04-0.26,0-0.43l0.13-0.48l-0.09-0.61v-0.74l0.04-0.56v-0.83
			l-0.04-0.48v-0.09l0.04-0.56l0.04-0.65v-1.17c0-0.17,0.04-0.3,0.13-0.39l0.35-0.52l0.22-0.22c0.13-0.13,0.26-0.22,0.43-0.22
			l0.87-0.04h0.17l0.91,0.17c0.04,0,0.17,0.04,0.22,0.09l0.26,0.13c0.13,0.09,0.26,0.22,0.3,0.39l0.09,0.3
			c0,0.04,0.04,0.04,0.04,0.13l0.13,1.26l0.04,0.65l0.13,0.43l0.04,0.26l-0.04,0.65l0.04,0.3c0,0.13,0,0.22-0.04,0.3l-0.17,0.52
			l0.09,0.65l0.09,0.61c0,0.13,0,0.13-0.04,0.26l-0.13,0.43l0.09,0.56v0.17l-0.09,0.52l0.09,0.78l0.04,0.61l0.04,0.52l0.04,0.65
			l-0.04,0.56v0.13l-0.17,0.61l0.17,0.65l0.04,0.17v0.43l-0.04,0.78l-0.09,0.56l-0.04,0.74l0.09,0.43v0.78l-0.04,0.61l0.09,0.74
			l0.04,0.52c0,0.04-0.04,0.13-0.04,0.22l-0.13,0.56l0.04,0.48l0.09,0.65v0.65l0.04,0.61v1.35l-0.04,0.61
			c0,0.09-0.04,0.09-0.04,0.17l-0.13,0.48l0.17,1.3l0.52,0.74l0.61,0.3l1.09,0.04c0.04,0,0.09,0.04,0.13,0.04l0.65,0.13h1.82
			l0.74-0.04l0.52-0.04h0.26l0.48,0.09l0.61-0.04l0.7,0.04l0.57-0.13c0.09-0.04,0.17,0,0.22,0h1.04l0.78,0.04l0.48-0.04h0.56
			l0.09,0.04l0.78,0.09l0.43-0.13c0.09-0.04,0.17-0.04,0.22-0.04h0.56l0.61,0.09l0.56,0.09l0.74-0.04l1.09,0.04
			c0.17,0,0.39,0.04,0.52,0.17l0.22,0.26c0,0,0.09,0,0.09,0.04l0.35,0.48c0.04,0.09,0.09,0.26,0.09,0.35l0.09,0.65v0.22l-0.17,0.83
			c0,0.09-0.09,0.22-0.13,0.26l-0.26,0.39c-0.04,0.09-0.13,0.13-0.17,0.17l-0.35,0.26c-0.09,0.09-0.22,0.13-0.35,0.13l-0.96,0.09
			l-0.61-0.04h-1.3l-1.26,0.04h-0.13l-0.78-0.09l-0.48,0.04l-0.74,0.04h-0.7l-0.56-0.04l-0.65,0.04h-0.17l-0.57-0.04h-0.61
			l-0.7,0.04l-0.61,0.09h-0.7C675.89,602.65,675.8,602.65,675.71,602.61z"/>
		<path d="M707.81,603.17l-0.43-0.13l-0.74-0.04l-0.56-0.13h-0.52l-0.17-0.04l-1.74-0.48c-0.04,0-0.09-0.04-0.13-0.04l-0.61-0.35
			l-0.7-0.22l-0.52-0.22c-0.04,0-0.09,0-0.13-0.04l-0.35-0.22c-0.04-0.04-0.09-0.04-0.09-0.04l-0.43-0.39l-0.7-0.43l-0.43-0.22
			c-0.04,0-0.09-0.09-0.13-0.13l-0.52-0.48l-0.35-0.39l-0.35-0.52l-0.48-0.35l-0.09-0.09l-0.43-0.48l-0.13-0.17l-0.13-0.35
			l-0.48-0.43c-0.04-0.04-0.13-0.09-0.17-0.22l-0.22-0.52l-0.26-0.35c-0.04-0.04-0.09-0.13-0.09-0.17l-0.22-0.52l-0.35-0.74
			l-0.3-0.56l-0.17-0.52c0-0.04-0.04-0.09-0.04-0.17l-0.09-0.52l-0.22-0.61l-0.26-0.48c0-0.04-0.04-0.09-0.04-0.17l-0.13-0.7
			l-0.09-0.65v-0.61l-0.13-0.61v-0.17l0.04-0.39v-0.65l-0.13-1.39c0-0.09,0.04-0.09,0.04-0.17l0.09-0.56l-0.04-0.61
			c0-0.09,0.04-0.09,0.04-0.17l0.09-0.48l0.17-0.7v-0.56l0.04-0.48c0-0.13,0.04-0.17,0.09-0.26l0.3-0.61l0.09-0.56l0.17-0.61
			l0.13-0.48c0-0.09,0.09-0.22,0.13-0.3l0.39-0.48l0.17-0.48l0.22-0.7l0.3-0.61l0.39-0.56l0.35-0.43l0.09-0.09l0.52-0.43l0.09-0.39
			c0.04-0.13,0.17-0.3,0.3-0.39l0.35-0.17l0.3-0.48c0.04-0.09,0.13-0.17,0.22-0.22l0.35-0.22l0.48-0.48l0.7-0.48l0.22-0.26
			c0.04-0.04,0.13-0.09,0.22-0.13l0.56-0.26l0.35-0.3c0.09-0.09,0.17-0.09,0.22-0.13l0.61-0.26l0.61-0.22l0.35-0.22
			c0.04-0.04,0.13-0.09,0.22-0.09l0.48-0.13l0.56-0.22c0.04-0.04,0.09-0.04,0.13-0.04l0.61-0.13l0.74-0.09l0.61-0.04h0.57l0.56-0.17
			h0.17l1.26,0.04h0.65l0.61,0.04c0.04,0,0.09,0,0.17,0.04l0.52,0.22l1.35,0.26l0.61,0.04c0.04,0,0.13,0,0.17,0.04l0.57,0.22
			l0.48,0.17l0.56,0.26l0.57,0.35l0.52,0.26l0.17,0.13l0.39,0.43l0.56,0.22c0.09,0.04,0.22,0.09,0.3,0.22l0.22,0.26l0.43,0.3
			c0.04,0,0.09,0.09,0.09,0.09l0.48,0.48l0.43,0.35c0.09,0.09,0.17,0.09,0.22,0.22l0.17,0.39l0.61,0.48l0.3,0.3
			c0.09,0.09,0.13,0.17,0.17,0.26l0.17,0.56l0.39,0.3l0.17,0.17l0.22,0.39c0,0.04,0.04,0.13,0.04,0.13l0.26,0.65l0.26,0.61
			l0.17,0.56l0.26,0.56l0.22,0.56c0.04,0.09,0.09,0.17,0.09,0.26v0.35l0.26,0.78l0.13,0.65l0.22,0.52c0.04,0.09,0.04,0.13,0.04,0.26
			l-0.04,0.48v0.65l0.17,0.56l0.04,0.22v0.56l-0.04,1.22l0.09,0.56c0,0.09-0.04,0.17-0.04,0.26l-0.13,0.56l-0.13,0.61l0.09,0.48
			l-0.04,0.26l-0.13,0.61v0.09l-0.17,0.48l-0.3,0.74l-0.04,0.43c0,0.13-0.04,0.22-0.09,0.3l-0.22,0.35l-0.04,0.52
			c0,0.17-0.04,0.26-0.13,0.35l-0.35,0.43l-0.04,0.39c0,0.17-0.09,0.26-0.17,0.39l-0.35,0.35l-0.35,0.61l-0.09,0.39
			c-0.04,0.13-0.09,0.22-0.22,0.35l-0.26,0.26l-0.35,0.52l-0.43,0.61l-0.43,0.48l-0.43,0.43c0,0-0.09,0.09-0.13,0.09l-0.56,0.35
			l-0.52,0.43l-0.52,0.39l-0.26,0.39c-0.04,0.09-0.17,0.13-0.26,0.17l-0.52,0.3l-1.13,0.56l-0.65,0.22l-0.61,0.22l-0.43,0.17
			l-0.69,0.3c-0.04,0.04-0.13,0.04-0.22,0.04h-0.39l-0.52,0.22c-0.04,0.04-0.17,0.04-0.26,0.04l-0.56,0.04l-0.74-0.04l-0.39,0.13
			h-0.17l-1.22,0.04C707.99,603.22,707.9,603.22,707.81,603.17z M709.29,598.83l0.52,0.04l0.78-0.17l0.52-0.13l0.61-0.13l0.78-0.26
			l0.56-0.3l0.52-0.35l0.52-0.13l0.61-0.39l0.39-0.48l0.09-0.09l0.56-0.43l0.13-0.26c0.04-0.13,0.17-0.26,0.3-0.3l0.39-0.22
			l0.3-0.48l0.35-0.74l0.3-0.52l0.3-0.39l0.22-0.69l0.3-0.61l0.22-0.69l0.13-0.43l0.13-0.74l0.13-0.48c0-0.04,0.04-0.09,0.04-0.13
			l0.26-0.69l-0.09-0.39v-0.26l0.17-0.69l0.04-1.3l-0.04-0.48l-0.17-0.7l-0.17-0.61l-0.09-0.61c0-0.04-0.04-0.04-0.04-0.13
			l0.04-0.52l-0.17-0.78l-0.35-0.56c0-0.04-0.09-0.09-0.09-0.13l-0.35-1.13l-0.35-0.39c-0.04-0.04-0.09-0.04-0.13-0.13l-0.26-0.48
			l-0.3-0.43c-0.04-0.04-0.09-0.09-0.09-0.13l-0.22-0.61l-0.61-0.39l-0.09-0.09l-0.26-0.3l-0.48-0.43l-0.52-0.52l-0.65-0.3
			l-0.43-0.26l-0.48-0.3l-0.61-0.35l-0.83-0.26l-0.56-0.09l-0.61-0.04l-0.56-0.09l-0.65-0.04l-1.35-0.13l-0.7,0.09l-0.65,0.17
			l-0.61,0.09l-0.61,0.22c-0.04,0-0.09,0.04-0.13,0.04h-0.3l-0.56,0.39c-0.04,0.04-0.13,0.04-0.22,0.09l-0.57,0.13l-0.61,0.3
			l-0.52,0.52l-0.48,0.26l-0.3,0.39c-0.04,0.09-0.13,0.13-0.22,0.17l-0.43,0.26l-0.22,0.43c-0.04,0.09-0.04,0.13-0.13,0.22
			l-0.39,0.39l-0.26,0.48c0,0.04-0.04,0.09-0.04,0.09l-0.48,0.61l-0.17,0.43l-0.22,0.65c0,0.04-0.04,0.13-0.09,0.22l-0.35,0.43
			l-0.04,0.56v0.17l-0.13,0.39l-0.22,0.78l-0.17,0.52l-0.04,0.61l-0.17,0.78l0.09,0.39v0.22l-0.17,1.22l0.04,0.65l0.17,0.52
			c0.04,0.13,0.04,0.22,0.04,0.3l-0.04,0.43l0.3,0.74l0.17,0.69l0.17,0.56v0.09l0.09,0.56l0.22,0.39c0.04,0.09,0.09,0.09,0.09,0.17
			l0.17,0.61l0.35,0.39c0.04,0.04,0.09,0.09,0.13,0.17l0.17,0.48l0.35,0.65l0.83,0.96l0.57,0.52l0.35,0.39l0.52,0.43l0.48,0.35
			l0.65,0.26l0.13,0.13l0.35,0.26l0.61,0.13c0.04,0,0.09,0.04,0.13,0.09l0.52,0.26l0.56,0.04c0.04,0,0.13,0,0.17,0.04l0.48,0.22
			l0.61,0.09l0.65,0.04L709.29,598.83z"/>
		<path d="M744.47,603.04l-0.74,0.04l-0.43-0.04c-0.04,0-0.09-0.04-0.13-0.04l-0.69-0.22l-0.52-0.09l-0.7-0.13
			c-0.04,0-0.13,0-0.17-0.04l-0.43-0.22l-0.69-0.3l-0.35-0.09c-0.04,0-0.13-0.04-0.17-0.09l-0.57-0.35l-0.61-0.26
			c-0.09-0.04-0.17-0.09-0.22-0.17l-0.3-0.3l-0.61-0.35l-0.52-0.3l-0.43-0.3l-0.17-0.17l-0.26-0.43l-0.61-0.48
			c-0.04,0-0.09-0.09-0.09-0.13l-0.22-0.3l-0.48-0.48c-0.04-0.04-0.13-0.13-0.17-0.22l-0.17-0.43l-0.43-0.43
			c-0.04-0.04-0.09-0.09-0.13-0.17l-0.26-0.39l-0.35-0.65l-0.26-0.52l-0.3-0.43c-0.04-0.04-0.09-0.09-0.09-0.13l-0.22-0.61
			l-0.17-0.61l-0.17-0.74l-0.22-0.35c-0.04-0.09-0.04-0.17-0.04-0.3l-0.04-0.43l-0.22-0.65c-0.04-0.13-0.04-0.13-0.04-0.26
			l0.04-0.39l-0.17-0.56v-0.22l0.04-0.65l-0.17-0.43c-0.04-0.13-0.09-0.26-0.09-0.35l0.04-0.48v-1.17c0-0.04,0.04-0.09,0.04-0.13
			l0.13-0.74l-0.13-0.39c-0.04-0.09-0.04-0.26,0-0.35l0.13-0.52l0.04-0.61l0.17-0.78l0.09-0.48c0-0.09,0.04-0.13,0.04-0.17
			l0.26-0.52l0.04-0.52c0-0.04,0-0.17,0.04-0.22l0.26-0.56l0.39-0.56l0.26-0.56l0.04-0.56c0-0.17,0.04-0.26,0.13-0.35l0.3-0.35
			l0.22-0.52c0.04-0.04,0.09-0.17,0.13-0.22l0.35-0.35l0.43-0.61l0.3-0.43l0.3-0.48c0.04-0.09,0.09-0.13,0.13-0.17l0.56-0.39
			l0.26-0.39c0-0.04,0.09-0.09,0.13-0.09l0.61-0.48l0.26-0.3l0.57-0.48l0.61-0.39c0,0,0.04,0,0.09-0.04l0.57-0.22l0.96-0.52
			l0.61-0.39c0.04-0.04,0.13-0.09,0.22-0.09l0.48-0.09l0.43-0.22c0.04-0.04,0.13-0.09,0.22-0.09l0.61-0.09l0.78-0.17l1.3-0.22h0.56
			l0.35-0.17c0.09-0.04,0.26-0.04,0.35-0.04l1.17,0.13l0.65,0.04l0.74,0.13l0.52-0.04l0.17,0.04l0.65,0.13l0.56,0.22l0.48,0.04
			c0.04,0,0.09,0,0.17,0.04l0.61,0.26l0.65,0.3l1.22,0.52c0.04,0.04,0.13,0.04,0.13,0.04l0.35,0.22l0.48,0.48l0.56,0.35
			c0.04,0,0.09,0.09,0.13,0.09l0.48,0.48l0.35,0.17c0.13,0.09,0.22,0.17,0.3,0.26l0.26,0.35l0.74,0.91
			c0.13,0.17,0.22,0.39,0.17,0.56l-0.04,0.22c0,0.04-0.04,0.17-0.09,0.22l-0.26,0.43c0,0.04-0.04,0.09-0.09,0.13l-0.7,0.74
			c-0.04,0.04-0.09,0.13-0.13,0.13l-0.65,0.39c-0.04,0.04-0.13,0.09-0.22,0.09l-0.39,0.04c-0.09,0-0.26,0-0.35-0.04l-0.26-0.09
			c-0.09-0.04-0.22-0.09-0.26-0.13l-0.91-0.83c0,0-0.09-0.09-0.09-0.13l-0.3-0.43l-0.48-0.35l-0.65-0.26
			c-0.09-0.04-0.17-0.04-0.22-0.13l-0.35-0.35l-0.52-0.13c-0.04,0-0.09,0-0.13-0.04l-0.61-0.3l-0.65-0.17l-0.56-0.17l-0.65-0.17
			l-2.08,0.09h-0.09l-0.56-0.09l-0.61,0.17l-0.52,0.22c-0.04,0.04-0.09,0.04-0.13,0.04l-0.61,0.09l-0.52,0.09l-0.56,0.35
			c-0.04,0.04-0.13,0.09-0.17,0.09l-0.7,0.17l-0.43,0.3l-1.04,0.78l-1,1l-0.52,0.48l-0.22,0.39c-0.04,0.09-0.09,0.09-0.13,0.13
			l-0.43,0.43l-0.17,0.39c0,0.04-0.04,0.09-0.09,0.17l-0.35,0.48l-0.26,0.74l-0.26,0.48l-0.26,0.69l-0.04,0.48
			c0,0.04,0,0.22-0.04,0.26l-0.17,0.39l-0.17,0.61L735,584.8l0.09,0.56v0.22l-0.09,0.48l-0.13,1.26l0.22,0.56v0.17l0.04,0.56
			l0.13,0.56c0,0.09,0.04,0.17,0.04,0.26l-0.09,0.56l0.22,0.43c0,0.04,0.04,0.09,0.04,0.13l0.17,0.7l0.13,0.43l0.35,0.61
			c0,0.04,0.09,0.09,0.09,0.13l0.22,0.61l0.17,0.48l0.43,0.52l0.3,0.52l0.35,0.61l0.43,0.56l0.43,0.17
			c0.17,0.09,0.26,0.17,0.35,0.35l0.17,0.35l0.43,0.22c0.04,0.04,0.09,0,0.13,0.04l0.56,0.39l0.52,0.39l0.52,0.35l0.61,0.09
			c0.09,0,0.17,0.04,0.22,0.09l0.57,0.26l0.43,0.22l1.3,0.13c0.04,0,0.09-0.04,0.17,0l0.43,0.17l1.3-0.17l0.17,0.04l0.61,0.09
			l0.7-0.17l0.65-0.09l0.56-0.17l0.57-0.3c0.04-0.04,0.13-0.04,0.13-0.04l0.39-0.13l0.61-0.35l0.65-0.39l0.61-0.43l0.3-0.26
			l0.74-1.04l0.09-1.09v-0.09l0.17-0.61v-0.83l0.04-0.61l-0.17-0.52v-0.09l-0.17-1.26l-0.26-0.78l-0.52-0.3l-1.52-0.13l-0.65,0.04
			h-0.74l-0.7-0.04l-0.48,0.09h-0.87l-0.52-0.13l-1.39-0.13c-0.09,0-0.22-0.04-0.3-0.09l-0.3-0.22c-0.09-0.09-0.22-0.17-0.26-0.3
			l-0.13-0.3c0-0.04-0.04-0.09-0.04-0.17l-0.13-0.78v-0.91c0-0.13,0.09-0.3,0.17-0.43l0.22-0.3c0.04-0.09,0.13-0.09,0.17-0.13
			l0.35-0.22c0.04-0.04,0.13-0.09,0.22-0.09l1.3-0.22c0,0,0.04-0.04,0.09-0.04h1.13l0.74-0.04h0.65l0.17,0.04l0.57,0.13l1.3-0.09
			l0.52-0.04c0.09,0,0.17-0.04,0.26,0l0.43,0.13l0.52-0.09l0.13-0.04l0.61-0.04l0.69,0.04h0.83l0.96,0.09c0.09,0,0.22,0.04,0.3,0.09
			l0.48,0.3c0.09,0.04,0.17,0.09,0.22,0.17l0.17,0.3c0.09,0.09,0.13,0.22,0.13,0.39l-0.04,1.13l0.09,0.7l0.09,0.56
			c0,0.13,0.04,0.26,0,0.35l-0.13,0.35l0.17,0.7v0.78l-0.17,0.65v0.65l0.04,0.78v1.26l0.09,0.56c0,0.13,0.04,0.22,0,0.35l-0.13,0.39
			v0.65l-0.09,1.13l-0.04,0.17l-0.22,0.52c-0.04,0.09-0.13,0.22-0.22,0.3l-0.48,0.35l-0.13,0.35c-0.04,0.13-0.17,0.3-0.3,0.39
			l-0.43,0.26l-0.22,0.3c-0.04,0.09-0.09,0.09-0.13,0.13l-0.48,0.39l-0.52,0.3l-0.56,0.35l-0.39,0.3c-0.04,0.04-0.13,0.04-0.17,0.09
			l-0.48,0.26l-0.43,0.26c-0.09,0.09-0.22,0.13-0.3,0.13l-0.48,0.04l-0.7,0.22l-0.35,0.26c-0.04,0.04-0.17,0.13-0.22,0.13
			l-0.52,0.13c-0.04,0-0.09,0.04-0.13,0.04l-0.65,0.04l-1.74,0.22h-0.13l-0.48-0.04l-1.17,0.09h-0.17L744.47,603.04z"/>
		<path d="M768.49,602.39c-0.04,0-0.17-0.04-0.22-0.09l-0.35-0.17c-0.09-0.04-0.17-0.09-0.22-0.17l-0.22-0.26
			c-0.09-0.13-0.17-0.26-0.17-0.39l-0.13-1.09c0-0.09,0.04-0.26,0.09-0.35l0.13-0.35l-0.13-0.65l0.04-0.22l0.09-0.56l-0.04-0.56
			l-0.09-0.61l0.04-0.22l0.09-0.52l-0.09-0.48v-0.26l0.09-0.52l-0.13-0.52v-0.17l0.04-0.61v-0.87l0.09-0.39v-0.7l-0.04-0.69
			l-0.09-0.7v-1.26l0.13-0.78l-0.04-0.52v-0.09l0.04-0.52l-0.13-0.56c-0.04-0.09-0.04-0.26,0-0.35l0.13-0.39l-0.17-0.56
			c0-0.09-0.04-0.17-0.04-0.26l0.04-0.48l0.09-0.74v-0.74l-0.09-1.35l-0.04-0.56l0.04-0.65l0.04-0.69l-0.09-0.48v-0.13l0.04-0.74
			l0.04-0.52l0.04-0.69l0.09-0.65v-0.56l-0.17-0.65c-0.04-0.13,0-0.22,0-0.3l0.09-0.52l0.04-0.65l-0.04-0.43v-0.13l0.22-1.3
			c0-0.04,0-0.17,0.04-0.22l0.17-0.3c0.09-0.13,0.17-0.22,0.35-0.3l0.22-0.09l0.09-0.04l1-0.22c0.09-0.04,0.17,0,0.26,0l0.87,0.17
			c0.04,0,0.17,0.04,0.22,0.09l0.35,0.17c0.13,0.09,0.17,0.17,0.22,0.26l0.17,0.3c0.04,0.09,0.09,0.13,0.09,0.26l0.17,1.04v0.22
			l-0.09,0.56l-0.04,0.65l0.04,0.61v0.13l-0.09,0.52l-0.04,0.78l0.09,0.48v0.74l0.09,0.61v0.78l-0.13,0.56l0.13,0.56v0.13l0.04,0.74
			v0.56l-0.17,0.7l0.09,0.56c0,0.09-0.04,0.13-0.04,0.22l-0.09,0.43v0.83l0.04,0.43v0.09l-0.04,0.61v0.83l0.13,0.39
			c0.04,0.17,0,0.26-0.04,0.43l-0.09,0.3v0.7l0.13,0.74l0.09,0.52c0,0.09,0,0.22-0.04,0.35l-0.17,0.39l0.13,0.39
			c0.04,0.17,0.09,0.22,0.04,0.39l-0.17,0.65l0.09,0.65l0.04,0.61l0.09,0.52c0,0.09-0.04,0.17-0.04,0.26l-0.13,0.56l0.09,0.39v0.17
			l-0.04,0.74l0.09,0.39v0.17l-0.04,0.7l-0.09,0.65l0.09,0.7l0.09,0.52c0,0.13,0,0.17-0.04,0.3l-0.17,0.48l0.09,0.48l0.04,0.22
			l-0.13,0.96c0,0.09-0.04,0.22-0.13,0.35l-0.26,0.35l-0.17,0.17l-0.43,0.26c-0.04,0.04-0.13,0.09-0.22,0.09l-0.78,0.13h-0.26
			L768.49,602.39z"/>
		<path d="M782.17,602.48c-0.13,0-0.26-0.04-0.35-0.13l-0.35-0.26l-0.09-0.13l-0.26-0.3c-0.09-0.13-0.13-0.3-0.13-0.43v-1.04
			l-0.04-0.56l0.04-0.78c0-0.17,0.09-0.3,0.17-0.43l0.56-0.61l0.26-0.43c0-0.04,0.09-0.09,0.09-0.13l0.35-0.43l0.35-0.56
			c0.04-0.09,0.09-0.09,0.13-0.13l0.35-0.35l0.39-0.69l0.3-0.48l0.26-0.43l0.52-0.61l0.3-0.52c0-0.04,0.04-0.09,0.09-0.13l0.35-0.35
			l0.22-0.39l0.13-0.17l0.52-0.48l0.26-0.56c0.04-0.04,0.04-0.09,0.13-0.17l0.3-0.26l0.22-0.56c0.04-0.13,0.09-0.22,0.13-0.26
			l0.3-0.26l0.26-0.52c0.04-0.13,0.13-0.17,0.22-0.26l0.39-0.3l0.39-0.61l0.17-0.43c0.04-0.09,0.09-0.17,0.13-0.22l0.78-0.78
			l0.35-0.61c0.04-0.09,0.09-0.13,0.13-0.17l0.39-0.35l0.13-0.43c0.04-0.13,0.09-0.22,0.17-0.3l0.39-0.35l0.26-0.48l0.87-1.09
			l0.35-0.48c0-0.04,0.04-0.09,0.09-0.13l0.43-0.39l0.35-0.65l0.13-0.3c0.04-0.09,0.09-0.13,0.17-0.22l0.43-0.39l0.43-0.65
			l0.48-1.09l0.43-0.61l-0.09-0.56l-0.26-0.52c0-0.04-0.04-0.09-0.04-0.09l-0.17-0.65l-0.61-0.39l-0.65-0.13h-1.3l-0.78-0.17
			l-0.3,0.13c-0.09,0.04-0.22,0.04-0.3,0.04l-0.52-0.04h-0.87l-0.61-0.04l-0.7,0.04l-0.52,0.04l-0.83-0.04h-1.35l-0.56-0.13
			l-0.83,0.04l-0.52,0.13c-0.13,0.04-0.22,0.04-0.3,0l-0.52-0.17l-1-0.09c-0.09,0-0.22-0.04-0.3-0.13l-0.35-0.22l-0.17-0.13
			l-0.26-0.3c-0.13-0.17-0.17-0.26-0.17-0.48l0.04-0.69l-0.04-0.78c0-0.13,0.04-0.3,0.13-0.43l0.26-0.35
			c0.09-0.13,0.22-0.17,0.3-0.22l0.35-0.17c0.04-0.04,0.13-0.04,0.17-0.04l1.09-0.17l0.74-0.04h0.22l0.56,0.09h1.09l0.65-0.09h0.17
			l0.65,0.04h0.7l0.61,0.04l0.52-0.09h0.26l0.61,0.09l0.43-0.13l0.22-0.04h0.43l0.09,0.04l0.74,0.13l0.57-0.04h0.17l0.57,0.04h1.87
			l0.52-0.09h0.26l0.57,0.09l0.52-0.13c0.09-0.04,0.22-0.04,0.3,0l0.48,0.09l0.65,0.04l0.61-0.09h1.48l0.52,0.04l1.26,0.17
			c0.09,0,0.22,0.04,0.3,0.13l0.3,0.17c0.04,0,0.04,0.09,0.09,0.13l0.35,0.35c0.09,0.09,0.22,0.26,0.22,0.39l0.13,0.87
			c0,0.13-0.04,0.22-0.04,0.3l-0.13,0.43l0.09,0.56c0.04,0.17-0.04,0.43-0.17,0.56l-0.52,0.61l-0.39,0.52l-0.26,0.56
			c0,0.04-0.09,0.09-0.13,0.13l-0.43,0.52l-0.09,0.26c-0.04,0.13-0.17,0.26-0.26,0.35l-0.35,0.26l-0.39,0.56l-0.22,0.48
			c0,0.04-0.04,0.09-0.09,0.13l-0.43,0.48l-0.43,0.65l-0.3,0.39l-0.43,0.56l-0.43,0.52l-0.39,0.48l-0.22,0.61
			c0,0.04-0.04,0.04-0.04,0.09l-0.26,0.39c0,0.04-0.04,0.09-0.04,0.09l-0.48,0.52l-0.43,0.52l-0.43,0.48l-0.09,0.35
			c-0.04,0.13-0.13,0.26-0.22,0.35l-0.39,0.35l-0.35,0.48l-0.39,0.48l-0.43,0.52l-0.13,0.52c-0.04,0.09-0.13,0.22-0.22,0.3
			l-0.74,0.74l-0.43,0.65l-0.09,0.09l-0.35,0.39l-0.13,0.39c0,0.04-0.04,0.09-0.09,0.17l-0.39,0.52l-0.13,0.13l-0.35,0.3l-0.39,0.61
			l-0.22,0.48c-0.04,0.13-0.13,0.17-0.22,0.22l-0.3,0.26l-0.22,0.52c0,0.04,0,0.09-0.04,0.17l-0.7,1.04l-0.22,0.56l-0.17,0.74
			l0.35,0.65l0.26,0.43l0.48,0.43l2.08,0.3l0.7-0.04l0.52-0.04l1.22-0.04h0.17l0.61,0.09l0.69,0.04l0.74-0.04l0.65,0.04l0.43-0.04
			h2.04l0.83,0.04l0.61-0.04l1.17,0.04c0.17,0,0.35,0.09,0.48,0.22l0.35,0.3l0.22,0.26c0.09,0.13,0.17,0.22,0.17,0.39l0.09,0.83
			l-0.04,0.22l-0.22,1c0,0.04-0.04,0.09-0.04,0.13l-0.04,0.13c-0.04,0.17-0.22,0.3-0.39,0.39l-0.39,0.17
			c-0.04,0.04-0.17,0.09-0.22,0.09l-1.04,0.17l-0.74,0.04l-0.7-0.04l-0.56,0.04h-1.87l-0.13-0.04l-0.7-0.09l-0.7,0.09l-0.56,0.04
			h-0.65c-0.09,0-0.17,0-0.26-0.04l-0.35-0.09l-0.61,0.09h-0.22l-0.61-0.04h-0.78l-0.56-0.04l-0.52,0.04l-0.65,0.04l-1.39-0.09
			l-0.52,0.04l-0.7,0.09h-0.22l-0.48-0.04h-1.48l-0.43-0.04l-1.3,0.09h-0.17L782.17,602.48z"/>
		<path d="M820.35,602.56l-0.74-0.09h-0.48l-0.87,0.04h-0.7l-0.61-0.04l-0.65,0.04l-0.39,0.04h-0.26l-0.48-0.09h-1.17
			c-0.17,0-0.39-0.04-0.52-0.17l-0.17-0.17c-0.04-0.04-0.09-0.04-0.13-0.13l-0.3-0.52c-0.04-0.04-0.09-0.17-0.09-0.26l-0.17-0.96
			v-0.17l0.09-0.74v-0.61l-0.04-0.56v-0.61l-0.09-0.65l0.04-0.22l0.09-0.48v-0.61l0.04-0.74l-0.17-0.65l-0.04-0.17v-0.39
			c0-0.09,0-0.22,0.04-0.26l0.17-0.43l-0.13-0.69l-0.04-0.65v-0.65l0.17-0.74l-0.13-0.61l-0.04-0.7l0.04-0.61l-0.09-1.22l0.04-0.61
			v-0.09l0.17-0.74v-0.56l-0.09-0.78l-0.09-0.52c0-0.13-0.04-0.17,0-0.3l0.13-0.43l-0.09-0.52l-0.04-0.7l-0.04-0.65v-0.13l0.09-0.7
			v-0.56l0.04-0.56l0.04-0.78l-0.09-0.52v-0.87l0.13-0.43l-0.17-0.65v-0.13l-0.04-0.7l0.04-0.61l0.04-0.7l0.09-0.52l0.17-1.26
			c0-0.09,0.04-0.09,0.04-0.13l0.13-0.39c0.04-0.17,0.13-0.26,0.26-0.35l0.3-0.17c0.04-0.04,0.13-0.09,0.22-0.09l1.09-0.17h0.17
			l0.65,0.04l0.61-0.04l0.61,0.04l0.83-0.09h0.56l0.22,0.04l0.39,0.13l0.52-0.13c0.09-0.04,0.13-0.04,0.17-0.04h0.69l0.7,0.17
			l0.52-0.09l0.7-0.09h0.7l0.65,0.09h0.74l0.52,0.04l0.61,0.04l0.74-0.13h0.65l0.65,0.09l0.61-0.04h0.7l0.65,0.09h1.35l0.7-0.04
			h0.65l0.74,0.04l1.09,0.09c0.09,0,0.22,0.04,0.3,0.13l0.35,0.22c0.09,0.09,0.17,0.13,0.22,0.26l0.13,0.22
			c0.04,0.09,0.04,0.09,0.04,0.17l0.22,0.83c0.04,0.09,0.04,0.22,0,0.3l-0.22,0.91c-0.04,0.13-0.09,0.17-0.13,0.26l-0.3,0.35
			l-0.22,0.26c-0.13,0.17-0.35,0.26-0.52,0.26l-0.96,0.04h-1.35l-0.56,0.04h-0.17l-0.65-0.13l-0.48-0.04l-0.61,0.17h-0.26
			l-0.39-0.09l-0.83-0.09h-0.43l-0.83,0.04h-0.43l-0.78-0.04l-0.7,0.09l-0.56,0.04l-0.48,0.04h-0.13l-1.3-0.17l-0.69,0.09h-0.13
			l-0.48-0.04l-0.56,0.09h-0.26l-0.3-0.13l-1.35,0.17l-0.78,0.52l-0.17,0.61l-0.26,1.22l-0.04,0.65l-0.04,0.74l0.09,0.35v0.3
			l-0.09,0.61l0.04,0.52l0.13,0.61c0.04,0.09,0.04,0.26,0,0.35l-0.13,0.43l0.22,1.17l0.43,0.74l0.52,0.22l1.26,0.17l0.78,0.09
			l0.56,0.04h0.83l0.56-0.09h0.78l0.65-0.09h0.56c0.04,0,0.09,0,0.17,0.04l0.48,0.13l0.61-0.13h0.78l1.04,0.17
			c0.09,0,0.22,0,0.3,0.09l0.48,0.35l0.17,0.17l0.17,0.26c0.09,0.13,0.13,0.26,0.13,0.43l-0.04,0.7l-0.09,0.87
			c0,0.13-0.04,0.22-0.13,0.35l-0.3,0.43l-0.22,0.26c-0.13,0.17-0.35,0.3-0.56,0.3h-0.91l-0.78-0.09h-0.57l-0.65,0.04l-0.74,0.09
			h-0.13l-0.43-0.04l-0.87-0.04h-0.65l-0.7,0.04h-0.48l-0.83,0.09l-1.3,0.09l-0.48,0.3l-0.43,0.7l-0.09,1.22l0.04,0.74l-0.04,0.52
			l-0.09,0.69v0.65l0.09,0.56v0.13l-0.04,0.52l-0.04,0.74l0.09,1.26l0.52,0.56l0.48,0.35l1.26,0.26l1.35-0.04h0.09l0.65,0.04
			l0.43-0.04h0.83l0.56,0.04l0.48-0.04l0.13-0.04h0.61l0.65,0.09l0.83-0.04h1.83l0.43-0.04h0.22l0.61,0.04l0.52,0.04l0.87,0.04
			l0.61-0.09h1.35l0.48,0.09l1.22,0.13c0.09,0,0.17,0.04,0.26,0.09l0.26,0.17c0.04,0,0.04,0.09,0.09,0.09l0.35,0.3
			c0.13,0.09,0.17,0.26,0.22,0.39l0.13,0.78v0.22l-0.17,0.96c0,0.09-0.09,0.17-0.13,0.26l-0.22,0.3l-0.17,0.17l-0.35,0.26
			c-0.09,0.09-0.26,0.09-0.39,0.09l-1.04,0.04l-1.39,0.09l-0.74-0.04h-1.35l-0.48-0.04l-0.78-0.04l-1.04,0.13h-0.17l-0.78-0.09
			h-0.43l-0.52,0.09h-0.26l-0.56-0.09h-0.74l-0.74-0.04l-0.48,0.04h-0.17l-0.52-0.04l-0.56,0.13c-0.09,0.04-0.17,0-0.26,0
			L820.35,602.56z"/>
	</g>
	<path d="M255.09,545.2c-7.53-1.12-13.47,6.86-17.19,12.24c-1.3,1.88-2.53,3.83-3.7,5.82c-0.13-5.5-1.12-10.93-3.61-15.92
		c-3.27-6.57-10.63-12.12-17.55-6.42c-7.39,6.07-1.73,17.55,1.61,24.34c3.23,6.58,7.18,12.91,11.57,18.78
		c0.9,1.2,2.53,1.97,3.96,1.04c4.57-2.98,8.99-6.22,13.28-9.58c6.17-4.82,13.29-10.29,17.09-17.31
		C263.5,552.75,261.95,546.22,255.09,545.2z M215.58,551.37c-0.9-4.18,2.02-9.37,6.63-5.92c1.9,1.42,3.16,4.12,4.03,6.27
		c3.05,7.58,2.51,16.19,1.18,24.13C222.22,568.38,217.43,560,215.58,551.37z M251.38,560.75c-3.09,3.32-6.57,6.3-10.1,9.15
		c-2.21,1.78-4.47,3.51-6.76,5.18c1.99-4.18,4.22-8.26,6.69-12.14c1.07-1.68,13.14-17.96,15.21-10.36
		C257.11,555.09,252.83,559.19,251.38,560.75z"/>
</g>
</svg>


