<?xml version="1.0" standalone="no"?>
<!DOCTYPE svg PUBLIC "-//W3C//DTD SVG 20010904//EN"
 "http://www.w3.org/TR/2001/REC-SVG-20010904/DTD/svg10.dtd">
<svg version="1.0" xmlns="http://www.w3.org/2000/svg"
 width="3000.000000pt" height="3000.000000pt" viewBox="0 0 3000.000000 3000.000000"
 preserveAspectRatio="xMidYMid meet">

<g transform="translate(0.000000,3000.000000) scale(0.100000,-0.100000)"
fill="#000000" stroke="none">
<path d="M4285 25420 c-705 -41 -1478 -270 -2074 -614 -497 -287 -927 -678
-1118 -1016 -96 -170 -156 -325 -195 -504 -31 -145 -31 -392 0 -521 27 -109
105 -271 165 -344 149 -179 359 -273 642 -288 268 -13 657 83 926 229 384 210
656 572 636 848 -11 164 -95 214 -282 166 -38 -10 -104 -18 -145 -18 -130 0
-210 43 -255 137 -62 125 -10 273 154 436 53 52 134 120 181 151 140 91 346
190 534 254 l69 24 -6 -82 c-13 -196 17 -493 118 -1153 114 -750 134 -924 142
-1255 8 -340 -16 -543 -89 -737 -80 -211 -210 -353 -397 -428 -264 -108 -515
17 -515 255 0 81 22 131 103 243 68 94 95 150 112 237 30 155 -40 304 -180
379 -163 87 -401 96 -681 26 -541 -135 -921 -419 -1135 -847 -205 -408 -200
-871 11 -1293 214 -424 567 -686 1049 -777 102 -19 154 -22 350 -22 244 -1
339 9 575 60 807 173 1546 666 1891 1264 l51 90 57 0 c141 0 372 43 546 101
790 264 1388 1014 1520 1907 46 309 42 677 -10 1035 -92 622 -379 1146 -821
1497 -491 391 -1218 601 -1929 560z m680 -1073 c94 -62 233 -211 318 -339 283
-425 438 -1081 397 -1681 -25 -372 -110 -610 -274 -772 -63 -62 -174 -135
-205 -135 -8 0 -11 63 -11 213 0 366 -30 625 -165 1436 -115 690 -142 899
-160 1224 l-7 119 24 -13 c13 -7 50 -30 83 -52z"/>
<path d="M12625 25299 c-89 -12 -248 -66 -322 -110 -78 -47 -199 -168 -262
-264 -69 -106 -204 -376 -270 -545 -188 -475 -322 -1022 -377 -1530 l-17 -155
-34 -32 c-73 -67 -253 -139 -445 -178 -76 -15 -342 -50 -445 -58 l-53 -4 0 62
c0 85 26 344 50 495 95 595 264 1101 515 1540 36 63 70 133 76 155 15 54 7
162 -15 208 -42 86 -152 164 -296 209 -67 21 -94 23 -250 22 -161 0 -182 -2
-263 -27 -271 -83 -415 -220 -562 -530 -193 -410 -348 -1004 -414 -1592 -25
-219 -45 -604 -37 -700 6 -65 4 -75 -28 -142 -38 -79 -93 -146 -140 -170 -78
-40 -201 -9 -271 69 -217 240 -219 905 -3 1529 69 202 57 308 -47 413 -116
116 -327 168 -534 132 -289 -51 -500 -226 -630 -524 -200 -458 -254 -1120
-131 -1596 128 -494 412 -782 840 -852 189 -32 485 -7 678 57 120 39 264 121
339 192 18 17 35 28 38 25 4 -3 24 -57 45 -119 162 -466 450 -747 837 -814 47
-8 142 -15 212 -15 291 0 532 76 716 224 217 175 333 431 336 736 l1 115 33
-98 c171 -496 502 -762 975 -784 409 -19 740 124 929 400 129 189 194 479 162
720 -23 174 -94 360 -182 476 -25 34 -35 53 -27 56 7 2 38 9 68 15 30 7 102
28 160 48 66 22 105 31 108 24 10 -32 109 -183 158 -243 170 -208 452 -378
754 -453 778 -195 1750 6 2218 458 160 155 232 268 326 516 149 396 309 787
454 1114 79 178 101 220 122 228 14 6 90 11 170 12 174 1 210 -11 248 -84 56
-110 13 -278 -210 -818 -116 -283 -199 -515 -224 -628 -25 -115 -30 -353 -10
-454 47 -231 169 -389 388 -504 292 -154 684 -188 982 -87 152 52 306 145 431
262 34 32 65 59 67 59 3 0 23 -28 46 -62 218 -336 625 -571 1182 -682 190 -38
314 -49 560 -49 293 0 520 29 726 92 l61 18 16 -56 c21 -75 67 -141 135 -196
74 -58 282 -165 402 -207 88 -30 105 -32 225 -33 113 0 136 3 177 22 92 42
129 89 236 297 318 617 616 1011 856 1132 140 70 262 27 241 -85 -9 -45 -28
-84 -141 -272 -115 -193 -222 -406 -263 -523 -131 -372 -45 -691 246 -910 166
-125 407 -227 615 -261 243 -39 490 0 719 115 44 23 83 39 86 36 3 -2 17 -41
33 -86 117 -338 481 -615 901 -686 244 -40 517 19 746 163 135 84 188 127 319
259 136 137 170 191 159 252 -22 119 -147 212 -287 212 -74 0 -110 -21 -206
-118 -107 -109 -174 -146 -266 -146 -66 1 -124 24 -163 66 -227 243 308 1281
1029 1995 l123 122 205 -85 c364 -151 399 -164 455 -175 66 -12 152 1 201 31
100 62 104 202 10 302 -52 55 -98 80 -282 157 -104 44 -189 83 -189 88 0 4 50
40 110 80 146 95 175 120 198 172 79 180 -147 489 -467 637 -126 58 -223 78
-371 78 -146 1 -201 -12 -319 -71 -97 -49 -252 -155 -370 -255 -54 -46 -108
-91 -121 -102 -23 -18 -25 -18 -277 72 -299 106 -318 112 -384 112 -195 0
-292 -145 -198 -297 46 -74 111 -113 314 -184 160 -57 178 -65 167 -80 -6 -9
-56 -68 -111 -130 -128 -148 -299 -377 -419 -559 -253 -388 -419 -742 -508
-1090 -28 -110 -31 -117 -77 -157 -70 -63 -173 -113 -234 -113 -144 0 -190 94
-124 250 42 96 123 233 324 546 99 154 205 325 236 380 172 309 208 573 104
778 -61 120 -208 245 -374 315 -151 64 -237 83 -399 88 -227 8 -391 -29 -604
-136 -177 -89 -333 -203 -493 -360 -49 -47 -88 -82 -88 -77 0 4 21 38 46 75
104 149 216 283 347 412 157 157 160 164 104 245 -110 161 -556 383 -896 448
-61 12 -81 12 -117 1 -172 -52 -455 -424 -761 -1000 -97 -183 -235 -469 -303
-630 -23 -55 -54 -113 -68 -129 -43 -45 -144 -114 -224 -151 -399 -184 -1023
-79 -1243 209 -14 18 -25 35 -25 37 0 2 84 4 188 5 162 1 204 5 317 28 462 96
860 328 1056 618 61 89 126 232 149 328 74 312 -51 585 -366 796 -283 189
-660 286 -1049 271 -397 -16 -745 -125 -1051 -328 -146 -97 -334 -284 -427
-425 -148 -224 -240 -494 -254 -744 -4 -86 -10 -113 -30 -148 -37 -65 -141
-171 -195 -198 -86 -44 -194 -23 -218 42 -37 97 9 259 223 776 159 382 194
523 183 718 -6 123 -25 198 -71 295 -151 314 -537 484 -1014 445 -80 -6 -208
-19 -284 -29 l-139 -18 5 21 c3 12 17 65 31 120 79 301 -20 554 -264 674 -256
127 -555 75 -744 -128 -61 -67 -127 -190 -151 -285 -31 -121 -15 -283 39 -400
53 -114 182 -227 315 -276 l60 -21 -25 -57 c-144 -321 -321 -752 -439 -1066
-41 -109 -78 -192 -94 -210 -15 -16 -46 -55 -69 -86 -110 -146 -298 -253 -547
-311 -115 -26 -349 -35 -465 -19 -162 24 -307 83 -393 161 l-50 45 94 12 c530
71 1076 420 1303 834 49 90 103 258 116 364 49 390 -194 693 -666 830 -375
109 -803 87 -1201 -61 -528 -196 -917 -573 -1072 -1039 -52 -157 -71 -266 -78
-453 l-6 -153 -31 -26 c-121 -103 -401 -167 -778 -180 l-188 -6 0 29 c0 16 9
92 21 168 103 703 355 1388 693 1885 66 96 91 171 83 251 -17 196 -251 343
-562 355 -60 2 -141 0 -180 -6z m2988 -1560 c88 -24 103 -143 35 -280 -115
-233 -378 -413 -660 -453 -36 -4 -38 -3 -38 23 0 99 106 349 201 474 133 175
326 274 462 236z m5964 -698 c132 -60 76 -238 -131 -419 -75 -65 -233 -145
-341 -172 -88 -23 -238 -37 -279 -26 l-26 6 26 68 c80 213 256 417 442 511
101 51 235 65 309 32z m-10207 -903 c0 -59 12 -189 26 -283 5 -34 -2 -25 -45
60 -28 55 -76 130 -106 167 l-54 67 77 25 c42 13 83 24 90 25 8 1 12 -18 12
-61z m1423 14 c124 -61 206 -185 235 -355 20 -120 8 -230 -35 -310 -39 -72
-84 -94 -158 -78 -168 38 -260 258 -290 695 l-6 88 94 -4 c81 -3 103 -8 160
-36z m-2167 -168 c137 -37 250 -181 288 -367 47 -226 -26 -400 -162 -383 -170
22 -276 212 -333 601 -26 175 -28 163 29 167 64 4 117 -1 178 -18z"/>
<path d="M8590 25173 c-221 -37 -427 -169 -502 -321 -44 -90 -51 -197 -17
-287 43 -115 175 -216 339 -261 88 -24 279 -24 375 -1 298 74 509 317 464 535
-16 79 -42 127 -103 187 -61 62 -168 116 -273 139 -66 15 -220 20 -283 9z"/>
<path d="M13868 19905 c-184 -25 -346 -74 -503 -151 -298 -148 -478 -425 -462
-714 l5 -95 -68 -175 c-38 -96 -123 -315 -188 -487 -96 -250 -126 -320 -156
-355 -21 -23 -56 -81 -78 -128 -44 -93 -41 -87 -97 -181 -62 -103 -124 -172
-213 -240 -148 -112 -356 -197 -573 -236 -120 -21 -326 -21 -430 1 -82 18
-201 68 -244 103 l-25 20 55 13 c173 41 406 145 581 259 294 193 502 412 628
666 79 159 101 244 107 416 9 238 -37 371 -181 515 -205 205 -502 294 -935
281 -309 -9 -563 -77 -877 -235 -442 -222 -779 -587 -919 -996 -51 -151 -66
-240 -72 -428 -6 -187 3 -281 38 -421 20 -78 20 -78 -1 -146 -45 -151 -128
-275 -207 -308 -20 -8 -60 -15 -89 -15 -65 -1 -111 25 -141 79 -43 78 -47 111
-48 478 -1 387 -2 403 -72 620 -115 360 -327 583 -660 696 -506 171 -1181 6
-1652 -403 -503 -436 -714 -1215 -494 -1823 41 -112 45 -163 20 -246 -37 -124
-132 -209 -232 -209 -375 0 -614 1138 -469 2240 41 314 122 636 223 888 28 70
27 117 -5 180 -28 56 -82 106 -152 141 -137 69 -373 85 -557 37 -223 -58 -404
-182 -509 -347 -98 -157 -190 -472 -246 -849 -25 -170 -50 -431 -50 -524 0
-39 -3 -87 -6 -107 l-6 -36 -121 -7 c-510 -29 -981 -300 -1260 -726 -404 -617
-370 -1509 77 -2016 183 -207 427 -327 719 -354 443 -42 1088 222 1465 600
l82 83 57 -22 c283 -108 753 -39 1043 154 142 94 287 270 355 428 15 37 32 67
36 67 5 0 37 -15 71 -34 154 -85 343 -126 575 -126 505 0 919 144 1220 425
l83 77 89 -21 c284 -67 613 -12 854 142 117 75 253 227 342 381 10 17 14 15
55 -19 290 -244 725 -360 1229 -326 225 15 352 34 541 82 429 109 793 279
1033 483 37 31 69 56 73 56 3 0 31 -23 62 -51 197 -180 488 -292 857 -330 145
-14 485 -6 630 15 216 32 418 89 587 165 l68 30 43 -19 c108 -48 212 -65 402
-65 198 0 275 12 417 67 263 100 472 343 583 677 49 150 23 231 -92 288 -48
23 -70 28 -133 27 -136 -1 -206 -53 -254 -189 -60 -170 -146 -255 -253 -255
-44 0 -121 32 -129 54 -3 8 4 45 16 83 27 86 37 253 21 348 -7 38 -25 103 -41
145 -56 143 -112 213 -423 525 -311 311 -394 406 -439 500 -33 71 -36 121 -8
176 67 131 248 100 424 -73 94 -93 111 -103 198 -119 120 -22 241 17 289 94
16 26 19 46 17 102 -3 64 -7 77 -52 150 -61 99 -214 253 -316 320 -301 195
-736 284 -1132 230z m-2633 -1339 c145 -61 69 -352 -147 -564 -130 -128 -272
-209 -430 -246 -28 -6 -28 -6 -28 48 0 175 85 411 203 562 83 105 173 170 279
198 68 19 82 19 123 2z m2285 -368 c224 -181 386 -343 424 -420 97 -199 -83
-388 -369 -388 -90 0 -141 15 -177 50 -47 48 -35 101 52 231 75 109 89 189 49
274 -41 86 -187 187 -293 201 -25 4 -46 8 -46 10 0 2 18 50 41 106 23 57 45
114 50 127 l9 23 43 -36 c23 -20 121 -100 217 -178z m-6037 -374 c43 -28 88
-94 117 -171 37 -99 37 -98 -17 -118 -121 -45 -231 -148 -291 -272 -36 -75
-37 -82 -37 -188 0 -98 3 -116 27 -167 30 -65 95 -132 144 -150 19 -7 33 -17
31 -23 -2 -5 -25 -23 -51 -39 -93 -58 -204 -43 -270 35 -99 117 -151 355 -126
576 32 292 146 486 314 537 62 18 109 13 159 -20z m-3647 -1070 c142 -68 262
-423 239 -709 -14 -176 -60 -308 -136 -390 -98 -107 -240 -114 -331 -18 -186
197 -235 684 -96 946 77 144 220 220 324 171z"/>
<path d="M18283 19469 c-236 -116 -606 -908 -863 -1845 -214 -777 -185 -935
199 -1089 107 -43 293 -91 386 -100 152 -14 307 29 382 108 54 56 64 76 129
262 152 433 336 810 508 1039 74 98 187 203 250 232 90 42 180 26 206 -36 18
-44 -2 -111 -100 -335 -95 -216 -152 -374 -188 -515 -23 -91 -26 -125 -26
-255 0 -135 3 -158 27 -230 81 -244 268 -410 590 -524 192 -68 459 -98 637
-72 183 27 374 104 535 214 l79 55 40 -66 c121 -206 280 -345 542 -475 215
-108 403 -170 612 -203 82 -13 148 -15 287 -11 161 4 193 8 303 36 l123 32 59
-54 c114 -106 252 -184 414 -236 255 -82 483 -77 704 14 48 20 94 38 102 41
12 4 19 -7 28 -43 36 -133 159 -325 275 -426 167 -146 408 -267 622 -312 370
-78 758 48 1087 354 108 101 205 215 213 253 27 122 -131 268 -291 268 -80 0
-117 -20 -221 -121 -113 -109 -169 -139 -263 -139 -107 1 -180 47 -212 137
-21 61 -14 203 16 317 122 457 543 1102 1045 1600 l130 130 168 -69 c92 -37
240 -98 328 -134 157 -65 162 -66 250 -66 77 0 96 3 135 25 122 68 122 210 1
323 -57 53 -91 71 -314 163 l-168 69 26 21 c14 11 74 51 134 87 120 75 143 96
166 149 46 112 -28 283 -191 439 -124 118 -296 215 -459 259 -101 27 -277 37
-371 21 -162 -29 -370 -151 -625 -368 l-86 -73 -179 64 c-403 143 -464 157
-565 132 -74 -19 -120 -51 -143 -99 -34 -72 -16 -145 55 -222 59 -64 98 -84
306 -155 l182 -62 -93 -107 c-486 -556 -868 -1247 -966 -1748 -11 -57 -16 -65
-69 -107 -145 -119 -290 -139 -387 -54 -91 80 -59 225 107 491 152 242 229
436 269 672 61 359 -26 654 -269 908 -429 449 -1242 598 -1886 347 -385 -151
-725 -472 -915 -865 -80 -166 -127 -318 -145 -470 -9 -69 -15 -79 -90 -156
-100 -101 -202 -138 -289 -105 -57 22 -76 52 -76 117 0 112 42 218 270 689 86
180 174 368 194 419 113 282 125 529 34 713 -95 192 -351 331 -681 369 -418
49 -873 -180 -1237 -621 -46 -55 -85 -100 -87 -100 -8 0 97 190 158 288 66
105 172 249 249 336 44 50 51 64 46 88 -29 146 -448 330 -891 393 -143 21
-212 19 -262 -6z m4560 -1893 c113 -27 166 -117 153 -261 -3 -38 -10 -86 -16
-106 l-10 -36 -56 11 c-191 34 -433 -89 -516 -263 -44 -91 -51 -212 -18 -288
12 -29 31 -59 41 -69 27 -24 9 -34 -64 -34 -164 0 -244 115 -217 312 28 203
149 429 313 584 110 104 201 150 322 163 6 0 36 -5 68 -13z"/>
<path d="M13820 14894 c-467 -66 -931 -259 -1253 -522 -110 -90 -275 -267
-345 -369 -112 -165 -190 -342 -229 -526 -14 -63 -18 -127 -18 -282 0 -176 3
-211 24 -294 l23 -93 -27 -69 c-72 -184 -179 -279 -315 -279 -59 0 -93 25
-114 83 -37 103 -31 212 39 720 71 507 76 661 29 843 -63 248 -229 400 -492
450 -208 40 -532 -1 -760 -96 -323 -135 -577 -385 -771 -760 -52 -100 -66
-120 -72 -105 -5 11 -20 52 -35 90 -76 199 -226 334 -434 392 -98 27 -361 24
-493 -5 -299 -66 -521 -185 -722 -387 -214 -215 -352 -457 -459 -805 -27 -89
-35 -107 -36 -78 0 60 28 262 60 421 17 81 30 163 30 182 0 85 -67 158 -179
197 -59 20 -84 23 -226 22 -145 -1 -171 -4 -278 -32 -303 -80 -566 -267 -667
-475 -87 -181 -123 -411 -124 -787 0 -261 9 -398 44 -668 59 -450 187 -957
278 -1098 101 -157 247 -206 512 -174 258 32 545 160 649 291 94 118 113 206
88 407 -30 241 -40 410 -34 602 18 524 151 900 351 991 103 47 167 10 202
-117 12 -46 18 -141 24 -444 9 -402 22 -551 60 -689 29 -103 80 -210 119 -249
78 -78 201 -113 388 -113 326 1 668 115 830 276 50 50 65 73 78 118 16 55 16
63 -9 230 -91 602 -49 1047 125 1323 82 128 221 229 333 241 45 5 56 2 80 -19
44 -37 48 -90 31 -337 -32 -451 -10 -670 85 -866 120 -248 339 -381 683 -416
272 -27 628 32 874 146 191 88 431 290 547 462 l49 72 26 -20 c223 -174 494
-289 811 -343 259 -44 747 -47 1015 -6 560 85 997 233 1316 446 l106 70 29
-39 c50 -67 182 -184 283 -252 117 -78 228 -130 376 -178 232 -74 423 -101
720 -101 280 -1 438 20 666 85 l106 31 79 -57 c164 -118 402 -214 669 -271
251 -53 524 -44 729 24 l80 27 76 -76 c69 -69 90 -83 230 -152 252 -123 402
-167 574 -167 118 0 205 25 273 78 39 31 61 64 117 168 246 461 446 746 684
976 160 155 290 228 407 228 131 0 185 -69 136 -175 -10 -22 -70 -119 -133
-215 -200 -302 -293 -491 -329 -665 -80 -389 116 -703 587 -938 449 -224 907
-247 1322 -65 241 105 544 335 572 433 45 155 -198 336 -396 295 -46 -10 -68
-23 -142 -86 -107 -92 -206 -144 -289 -151 -81 -7 -151 16 -194 64 -28 33 -31
41 -26 86 10 106 101 249 476 742 241 318 325 470 361 653 18 88 8 232 -20
307 -80 211 -289 379 -614 494 -158 56 -272 74 -456 75 -254 1 -452 -47 -698
-169 -175 -87 -286 -162 -506 -344 -32 -27 95 137 186 239 88 98 190 194 315
294 40 32 75 66 78 76 32 101 -282 322 -661 466 -215 81 -492 150 -553 139
-114 -21 -310 -195 -483 -428 -228 -309 -500 -807 -697 -1277 -48 -113 -59
-131 -116 -186 -37 -36 -90 -75 -128 -94 -58 -29 -74 -32 -129 -28 -216 14
-333 191 -300 451 39 304 234 650 569 1010 88 94 114 142 120 222 15 193 -200
388 -515 467 -118 30 -380 32 -488 5 l-71 -18 -64 44 c-284 198 -766 311
-1195 279 -82 -7 -192 -19 -244 -28 -657 -112 -1192 -488 -1445 -1017 -96
-200 -133 -342 -142 -547 -6 -150 -4 -143 -96 -239 -270 -278 -871 -415 -1322
-300 -87 22 -203 74 -249 112 l-29 23 114 22 c222 44 411 110 631 219 470 235
786 560 884 909 10 34 19 114 21 189 5 121 3 135 -22 210 -94 282 -385 473
-846 555 -163 29 -529 37 -689 14z m466 -850 c161 -76 8 -400 -280 -594 -126
-84 -295 -152 -428 -173 l-38 -6 0 38 c0 51 33 175 69 261 69 165 208 335 336
410 124 73 265 100 341 64z m3155 -175 c69 -15 119 -65 143 -143 23 -73 18
-235 -12 -341 -73 -269 -237 -504 -407 -585 -101 -48 -193 -53 -271 -15 -98
48 -138 135 -137 300 2 165 57 333 163 493 97 148 225 252 351 286 67 18 103
19 170 5z"/>
<path d="M10481 10665 c-268 -71 -450 -243 -512 -483 -91 -358 147 -666 543
-699 57 -5 68 -9 63 -22 -25 -79 -153 -741 -186 -960 -7 -45 -18 -84 -23 -86
-50 -12 -350 -55 -382 -55 -25 0 -51 7 -64 18 l-22 18 31 150 c53 264 65 367
65 549 1 262 -35 395 -133 493 -99 99 -229 142 -425 142 -408 -1 -769 -232
-916 -588 -84 -200 -104 -521 -44 -699 48 -142 152 -280 271 -359 67 -44 190
-98 267 -116 31 -7 56 -18 56 -24 0 -32 -108 -321 -152 -408 -107 -208 -248
-296 -375 -235 -121 59 -234 276 -292 565 -42 206 -53 355 -57 724 -5 397 -8
420 -73 506 -133 177 -462 235 -776 137 -279 -87 -473 -279 -505 -498 -18
-127 -12 -422 15 -705 14 -146 30 -367 37 -492 27 -531 -42 -818 -212 -869
-167 -50 -330 225 -380 640 -15 133 -13 433 5 586 8 71 29 197 46 280 22 106
29 167 26 208 -14 156 -161 265 -389 286 -381 36 -766 -167 -928 -488 -85
-170 -120 -353 -127 -666 -6 -245 9 -416 53 -630 82 -391 269 -746 492 -931
291 -242 648 -285 1097 -133 239 81 377 163 511 301 159 164 236 314 320 626
2 8 31 -11 76 -49 142 -122 278 -196 446 -241 111 -30 355 -36 493 -13 231 38
450 123 616 237 204 140 403 379 536 644 72 144 194 474 221 600 l7 31 122 18
c109 16 294 51 370 70 27 7 27 7 27 -42 0 -67 30 -110 98 -145 103 -52 230
-45 346 20 92 51 108 88 145 323 69 435 165 934 237 1231 l36 147 91 30 c237
78 341 79 407 4 41 -46 54 -102 53 -223 -1 -128 -18 -244 -88 -600 -84 -426
-98 -538 -91 -710 14 -375 144 -611 408 -744 324 -162 869 -150 1228 28 139
69 238 141 359 263 l113 115 42 -40 c218 -209 551 -328 1024 -363 360 -27 730
50 1004 207 l48 27 107 -51 c206 -97 358 -127 603 -119 172 5 275 25 392 76
l48 20 30 -44 c59 -86 174 -153 372 -219 316 -103 559 -106 709 -7 62 42 103
103 144 217 146 401 337 780 515 1019 92 124 150 186 228 245 84 63 144 84
224 78 51 -4 65 -9 85 -32 43 -50 26 -121 -79 -331 -113 -225 -190 -419 -230
-584 -28 -113 -30 -305 -4 -401 75 -276 302 -476 688 -603 179 -60 318 -82
513 -81 125 0 192 4 253 18 165 35 333 103 460 185 34 23 66 41 70 41 4 0 20
-26 37 -57 86 -165 250 -339 440 -468 154 -103 543 -267 693 -291 23 -4 45
-10 47 -15 3 -4 -30 -52 -73 -106 -242 -302 -439 -416 -588 -341 -94 47 -108
94 -79 267 26 159 8 228 -80 310 -82 76 -255 141 -375 141 -268 0 -520 -221
-576 -505 -30 -154 -2 -360 69 -501 116 -231 375 -444 703 -578 386 -158 789
-185 1124 -75 248 80 482 233 734 479 245 239 413 444 899 1103 464 627 599
795 850 1055 172 178 192 214 192 347 -1 68 -6 105 -23 150 -69 187 -269 370
-508 466 -92 37 -237 69 -313 69 -52 0 -55 1 -129 71 -286 267 -769 445 -1267
466 -164 7 -327 -7 -505 -43 -687 -138 -1228 -636 -1349 -1242 l-19 -97 -72
-68 c-87 -83 -172 -127 -245 -127 -154 0 -203 73 -155 232 32 105 96 236 272
553 86 154 178 325 206 380 188 376 187 673 -5 884 -201 222 -658 348 -1034
285 -338 -57 -699 -272 -980 -586 -43 -48 -79 -85 -79 -82 0 4 32 60 71 126
87 147 219 324 333 445 110 117 112 132 28 213 -158 154 -675 325 -1048 347
-93 5 -106 4 -150 -18 -260 -125 -657 -920 -915 -1829 l-44 -155 -69 -72 c-93
-99 -150 -127 -250 -121 -83 4 -114 20 -153 77 -52 76 -39 194 47 451 77 232
101 350 108 526 10 292 -37 486 -161 678 -166 254 -456 430 -846 513 -118 26
-142 27 -386 28 -210 0 -279 -4 -360 -19 -491 -90 -865 -288 -1143 -606 -243
-278 -389 -614 -422 -975 -11 -118 -10 -157 12 -331 l11 -91 -29 -53 c-38 -69
-112 -146 -166 -170 -57 -26 -133 -26 -175 0 -25 15 -36 32 -49 77 -28 97 -8
271 76 661 74 339 79 366 90 478 52 555 -291 904 -889 904 -245 0 -377 -26
-736 -144 l-227 -74 8 51 c45 327 -85 569 -357 664 -63 22 -96 26 -214 29
-125 4 -150 2 -234 -21z m4805 -1304 c81 -37 129 -127 141 -266 l6 -71 -75
-12 c-240 -37 -422 -195 -459 -397 -22 -118 10 -220 93 -298 l50 -47 -38 -16
c-142 -59 -267 -4 -325 142 -20 52 -23 75 -23 194 1 112 5 151 27 232 47 176
138 340 244 440 111 103 259 144 359 99z m7627 -1311 c93 -35 128 -92 128
-208 0 -174 -110 -398 -285 -580 -139 -145 -268 -214 -401 -216 -127 -2 -216
56 -245 160 -26 94 4 254 75 394 70 139 204 293 327 377 131 89 283 117 401
73z"/>
</g>
</svg>
