<?xml version="1.0" encoding="utf-8"?>
<!-- Generator: Adobe Illustrator 24.0.0, SVG Export Plug-In . SVG Version: 6.00 Build 0)  -->
<svg version="1.1" xmlns="http://www.w3.org/2000/svg" xmlns:xlink="http://www.w3.org/1999/xlink" x="0px" y="0px"
	 viewBox="0 0 1000 1000" style="enable-background:new 0 0 1000 1000;" xml:space="preserve" width="500" height="500">
<g>
	<g>
		<path d="M209.14,412.65c7.44,1.79,14.11,1.57,25.07-1.02c1.1-0.26,2.02-0.47,2.74-0.65c-1.02,2.57-1.62,4.79-1.62,6.29
			c0,3.5,1.24,4.63,5.65,4.63c4.29,0,8.68-2.03,15.45-7.12c2.72-2.03,4.76-3.15,4.53-2.6c-0.24,0.57-0.69,2.03-1.02,3.51
			c-0.69,3.27,0.45,5.98,3.05,7.22c5.41,2.7,14.66-0.34,30.7-9.94c4.64-2.83,5.08-3.84,2.26-4.62c-1.91-0.57-2.03-0.57-9.6,4.05
			c-2.83,1.71-7.22,4.07-9.72,5.31c-4.51,2.27-10.15,3.96-10.94,3.17c-1.24-1.24,0.45-7.46,4.29-16.14l1.34-2.95l-1.34-1.02
			c-2.48-1.91-3.62-1.34-10.05,4.76c-6.22,5.86-11.87,10.17-16.49,12.53l-2.72,1.36v-1.24c0-3.62,4.63-13.22,9.37-19.31
			c2.72-3.5,2.83-3.62,1.93-4.64c-0.57-0.55-1.69-1.02-2.71-1.02c-1.48,0-2.15,0.47-3.39,2.03c-2.96,3.84-5.86,8.75-7.87,13.13
			c-1.33-0.41-3.57-0.02-8.72,1.22c-9.6,2.36-18.4,2.03-23.16-0.91c-1.81-1.12-1.69-1.12-0.9-2.71c1.34-2.71,1.02-5.2-0.91-6.77
			c-0.9-0.79-2.14-1.46-2.7-1.46c-0.57,0-1.12-0.34-1.12-0.69c0-1.24-3.05-2.71-4.86-2.36c-3.02,0.65-7.67,7.03-10.7,13.56
			c-1.64-0.62-4.1-0.53-8.37,0.33c-5.08,0.9-11.08,3.05-16.94,5.86l-3.96,2.03l2.03-4.74c1.14-2.6,2.7-7,3.5-9.7l1.46-5.08
			l-1.12-1.24c-2.15-2.38-4.19-1.81-10.17,2.81c-5.88,4.53-10.84,7.68-14.68,9.37l-2.48,1.02l0.45-2.14
			c0.79-4.07,4.29-10.84,5.65-11.3c1.24-0.45,3.15-4.62,3.27-7.22c0.1-2.48-3.62-4.29-5.2-2.6c-0.77,0.91-7.1,13.34-8.34,16.61
			c-2.27,5.98-0.79,9.37,4.17,9.6c4.07,0.22,12.77-3.96,18.97-8.8c2.48-2.03,2.48-1.26-0.22,5.19c-5.08,12.3-5.31,12.65-11.63,17.38
			c-13.66,10.17-24.05,25.86-19.42,29.36c2.71,2.03,6.2,0.91,10.72-3.6c4.41-4.41,11.06-13.44,15.82-21.47l3.84-6.55l4.51-2.6
			c9.6-5.63,20.31-9.7,26.31-10.05c0.28-0.02,0.53-0.03,0.78-0.05c-1.05,2.65-1.76,5.2-1.91,7.29c-0.22,3.15-0.12,3.72,1.02,4.74
			c0.67,0.67,1.81,1.24,2.36,1.36c1.14,0.22,4.98-0.69,6.67-1.58c1.81-1.02,7.46-6.89,9.15-9.6c1.59-2.48,1.69-2.6,3.15-1.81
			C205.18,411.52,207.33,412.19,209.14,412.65z M137.67,436.81c-1.59,2.38-4.53,6.22-6.32,8.36c-1.81,2.15-3.39,3.84-3.51,3.84
			c-1.46-0.12,5.43-9.37,10.39-14.23l2.38-2.38L137.67,436.81z M196.94,409.71c-1.02,1.69-3.05,4.29-4.41,5.88
			c-1.34,1.58-3.05,3.27-3.84,3.72c-1.24,0.79-1.34,0.79-1.34-0.22c0-3.95,7.34-18.63,9.25-18.63c0.45,0,0.69,0.79,0.69,1.81
			c0,1.02,0.33,2.36,0.78,3.15C198.75,406.66,198.75,406.88,196.94,409.71z"/>
		<path d="M546.85,408.81c-2.48,1.81-13.44,6.77-18.97,8.68c-6.22,2.15-13.11,3.62-15.59,3.17c-2.26-0.45-3.27-2.26-2.71-4.96
			c0.57-2.95,0.9-3.17,3.17-2.5c1.57,0.57,2.36,0.47,3.82-0.1c4.07-1.71,9.05-9.27,7.68-11.75c-0.9-1.69-4.29-3.05-6.55-2.58
			c-3.41,0.6-8.06,4.76-11.2,9.87c-1.38-0.12-3.88-0.02-8.67,0.4c-4.76,0.34-9.72,0.57-11.08,0.34c-2.7-0.47-5.41-2.15-5.41-3.39
			c0-1.24-2.93-3.5-4.41-3.5c-1.02,0-3.6,2.14-10.61,9.15l-9.15,9.13l0.34-2.48c0.57-4.17,1.93-8.8,4.41-15.7
			c1.34-3.6,2.36-7,2.36-7.44c0-2.48-5.41-2.7-6.1-0.34c-0.22,0.79-1.57,4.86-2.93,9.27c-0.48,1.55-0.93,3.02-1.31,4.38
			c-1.28,0.16-3.2,1-7.6,3.19c-7.56,3.72-12.32,5.53-13.56,5.08c-0.9-0.34-1.69-5.55-1.12-8.03c0.79-3.72-1.48-6.65-5.08-6.55
			c-0.91,0-2.83-0.1-4.41-0.34c-2.26-0.33-3.15-0.1-5.08,0.91c-2.1,1.03-4.6,3.2-7.01,5.93c-1.96-0.5-8.1,4.32-16.23,7.96
			c-3.51,1.59-7.46,2.83-8.6,2.93l-2.14,0.22v-5.19c0-4.96-0.12-5.08-1.59-6.2c-1.12-0.91-2.26-1.14-4.39-1.14
			c-3.39,0-6.89,1.46-17.51,7.46c-4.07,2.26-8.03,4.39-8.8,4.74c-1.48,0.57-1.59,0.57-1.26-0.91c0.69-3.15,5.77-12.75,10.51-19.87
			c8.58-12.87,17.38-24.05,27.9-35.91c4.51-5.2,5.31-6.32,4.74-6.99c-1.36-1.59-4.29-0.91-8.36,1.79c-5.31,3.62-8.8,7.58-8.46,9.49
			c0.22,1.12-0.12,2.03-1.48,3.62c-8.8,10.27-23.14,30.82-27.33,39.06c-3.95,7.79-4.17,11.3-0.9,12.87c3.05,1.48,7.56,0,18.18-5.86
			c8.81-4.86,10.51-5.77,12.3-6.32c1.26-0.34,1.26-0.34,0.91,3.38c-0.67,6.67,1.24,8.7,7.67,8.58c2.83,0,5.08-0.45,8.36-1.69
			c3.45-1.33,8.6-4.38,12.49-6.93c-1.03,1.53-1.98,3.1-2.77,4.67c-1.59,3.05-1.36,5.65,0.55,6.55c3.39,1.69,6.56-0.12,14.9-8.58
			l6.89-7.12l0.34,2.83c0.22,1.58,0.79,3.5,1.36,4.29c1.34,1.81,4.39,3.27,6.77,3.27c3.57,0,11.04-2.67,18.61-6.68
			c-0.91,3.82-1.22,6.51-0.9,7.81c0.24,0.79,0.91,1.81,1.59,2.38c1.46,1.36,4.07,1.46,6.89,0.34c1.24-0.57,4.96-3.84,9.37-8.25
			c4.07-4.07,7.56-7.34,7.68-7.34c0.1,0,0.9,0.69,1.79,1.36c1.02,0.79,3.27,1.69,5.88,2.26c3.84,0.9,5.2,0.79,12.32,0.22
			c3.46-0.29,6.03-0.53,7.84-0.76c-2.89,6.03-0.48,10.61,6.38,12.06c6.67,1.34,20.66-2.38,34.32-9.15c2.72-1.36,5.53-2.95,6.44-3.5
			c1.36-1.02,1.59-1.26,0.79-2.03C551.93,407.11,548.88,407.35,546.85,408.81z M512.41,409.38c1.36-2.27,5.53-6.89,5.88-6.56
			c0.55,0.57-1.48,3.84-3.62,6C512.06,411.4,511.04,411.74,512.41,409.38z M418.8,409.04c-2.14,2.36-4.96,5.41-6.43,6.77
			c-2.48,2.38-2.6,2.38-1.59,0.57c2.6-4.51,10.73-12.77,11.63-11.85C422.53,404.63,420.95,406.66,418.8,409.04z"/>
		<path d="M589.85,433.88c2.6,0.67,9.49-1.24,13.78-3.74c4.51-2.58,6.32-5.41,7-10.61c0.22-2.03,18.4-6.2,35.34-8.24
			c0.55-0.07,1.05-0.12,1.52-0.19c-0.36,0.31-0.76,0.62-1.17,0.98c-14.8,12.3-25.54,26.41-29.26,38.51
			c-2.03,6.43-1.46,9.7,1.81,11.06c2.15,0.9,2.38,0.9,4.86,0c2.83-1.02,5.41-3.17,8.93-7.34c8.24-9.82,16.47-24.17,22.35-38.61
			c3.05-7.46,3.5-7.81,11.63-11.98c5.43-2.83,9.15-4.29,9.82-3.84c0.69,0.45-0.55,4.19-2.58,7.46c-1.71,2.81-2.15,3.27-4.98,4.05
			c-3.6,1.02-8.91,3.62-11.51,5.55c-2.03,1.57-4.07,4.39-4.07,5.98c0,1.81,2.03,3.17,4.64,3.17c3.95,0,8.24-2.6,14.21-8.48
			l5.31-5.31l4.63-0.91c9.03-1.69,14.46-2.14,18.52-1.46c1.22,0.21,2.27,0.36,3.15,0.47c-0.05,0.07-0.09,0.15-0.12,0.22
			c-3.15,6.2-0.77,10.94,6.22,12.42c6.67,1.34,20.66-2.38,34.32-9.15c0.53-0.26,1.07-0.53,1.6-0.81c-2.17,3.24-3.77,5.79-3.86,6.22
			c-0.12,0.57,0.34,1.24,1.12,1.81c1.48,1.02,3.96,0.79,5.65-0.67c0.57-0.57,3.39-2.95,6.1-5.31c6.55-5.65,13.89-10.84,14.46-10.29
			c0.22,0.24,0.79,1.93,1.12,3.62c0.34,1.69,1.14,3.84,1.81,4.86c3.5,5.19,9.27,5.31,25.07,0.79c5.87-1.71,10.96-3.05,11.41-3.05
			c0.12,0,0.24-0.02,0.33-0.03c-12.94,25.52-22.24,48.33-22.24,56.94c0.12,3.38,0.69,4.39,3.74,5.31c2.48,0.67,5.41-0.12,6.55-1.81
			l0.9-1.24l-2.83,0.1l-2.93,0.24l0.22-2.38c0.67-11.85,15.7-46.3,35.34-81.08c6-10.49,9.37-16.02,12.99-21.45
			c10.39-1.46,22.69-3.27,37.6-5.31c1.36-0.1,0.91-1.57-0.55-1.81c-1.36-0.33-18.3,1.71-34.79,3.96c0.57-0.79,1.02-1.46,1.59-2.15
			c4.74-6.55,10.84-16.14,10.72-16.82c0-0.79-2.03-1.71-3.72-1.46c-1.46,0.1-2.26,0.9-5.53,5.75c-3.39,4.86-6.77,10.17-10.27,15.58
			c-8.93,1.24-16.94,2.48-21.47,3.27c-16.82,3.17-29.34,6.55-29.24,7.91c0.12,0.67,1.59,1.24,3.05,1.36c0.79,0,2.83-0.12,4.51-0.22
			c2.48-0.34,3.17-0.57,3.05-1.14c0-0.45,0.45-1.02,1.14-1.36c3.5-1.24,14.11-3.15,36.92-6.55c-8.58,14.01-17.06,29.26-24.38,43.66
			c-0.1-0.24-0.33-0.53-0.69-0.86c-1.46-1.24-4.63-0.79-14.56,2.03c-14.58,4.19-16.49,4.29-17.63,0.22
			c-2.26-8.36-2.14-8.24-4.07-9.37c-2.26-1.34-5.31-1.46-7.67-0.22c-1.02,0.45-3.39,2.15-5.53,3.62c-3.39,2.48-3.74,2.6-2.83,1.12
			c0.55-0.9,3.15-4.74,5.63-8.68l4.53-7.01l-1.24-1.02c-2.27-1.69-3.84-1.24-7.36,2.15c-1.79,1.69-3.72,3.84-4.39,4.74
			c-1.36,1.71-1.69,3.96-0.67,4.29c0.28,0.1-1.15,2.67-3.43,6.24c-1.38-0.14-3.07,0.29-4.36,1.22c-2.48,1.81-13.44,6.77-18.97,8.68
			c-6.22,2.15-13.11,3.62-15.59,3.17c-2.26-0.45-3.27-2.26-2.7-4.96c0.57-2.95,0.9-3.17,3.15-2.5c1.59,0.57,2.38,0.47,3.84-0.1
			c4.07-1.71,9.05-9.27,7.69-11.75c-0.91-1.69-4.29-3.05-6.55-2.58c-3.36,0.59-7.93,4.62-11.06,9.63c-1.28-0.45-3.03-0.84-5.08-1.17
			c-4.29-0.67-11.75-0.12-17.61,1.14c-1.24,0.22-2.26,0.45-2.38,0.33c-0.1-0.1,0.34-1.24,0.91-2.36c2.02-3.96,2.02-5.43,0.22-7.24
			c-3.17-3.15-8.13-2.71-16.61,1.36c-4.07,1.91-4.96,2.26-4.74,1.46c0.79-2.48,0.57-6.1-0.45-7.22c-1.71-1.81-4.86-1.59-6.67,0.55
			c-1.81,2.15-1.69,3.17,0.22,3.96c0.91,0.33,1.46,0.9,1.36,1.24c-1.22,4.63-1.52,5.94-3.46,7.87c-0.84-0.34-1.9-0.34-3.98-0.09
			c-11.53,1.24-27,4.07-33.77,6.2l-3.39,1.02l-0.9-2.81c-0.45-1.59-0.9-4.19-0.9-5.88c0-2.7,0.1-3.17,1.24-3.27
			c1.46-0.22,4.29-3.84,5.64-7.24l1.02-2.58l-1.24-1.02c-2.03-1.71-3.72-1.36-6.65,1.46c-5.65,5.19-6.79,10.72-4.19,18.75l1.24,4.17
			l-4.86,2.48c-7.79,4.07-13.09,8.82-13.09,11.53C586.8,432.07,588.39,433.54,589.85,433.88z M663.58,418.98
			c-1.46,1.34-2.93,2.48-3.27,2.48c-0.9,0,2.15-2.83,4.19-3.96C666.06,416.6,665.96,416.82,663.58,418.98z M710.67,409.38
			c1.34-2.27,5.53-6.89,5.88-6.56c0.55,0.57-1.48,3.84-3.62,6C710.33,411.4,709.31,411.74,710.67,409.38z M643.82,426.65
			c-5.41,10.61-12.87,22.24-17.95,27.77c-3.38,3.74-4.39,4.41-4.39,2.83c0-4.29,5.98-16.82,11.41-24.05
			c3.95-5.31,15.01-16.82,15.47-16.37C648.57,416.95,646.42,421.46,643.82,426.65z M593.35,429.92c1.14-2.03,11.06-9.03,11.06-7.79
			c0,1.02-3.95,4.96-6.32,6.32c-1.24,0.67-2.93,1.59-3.72,1.93C592.9,430.94,592.78,430.94,593.35,429.92z"/>
		<path d="M202.04,567.62c-1.07-0.28-14.39,1.33-27.34,3.1c0.45-0.62,0.81-1.15,1.26-1.69c3.72-5.15,8.51-12.68,8.43-13.22
			c0-0.62-1.6-1.33-2.93-1.15c-1.15,0.09-1.77,0.71-4.34,4.53c-2.67,3.81-5.32,7.98-8.08,12.23c-7.01,0.98-13.32,1.96-16.87,2.58
			c-13.22,2.48-23.07,5.13-22.97,6.2c0.09,0.53,1.24,0.98,2.4,1.07c0.62,0,2.21-0.09,3.55-0.17c1.95-0.28,2.48-0.45,2.4-0.9
			c0-0.34,0.34-0.79,0.88-1.07c2.76-0.96,11.1-2.48,29.01-5.13c-6.67,10.85-13.23,22.69-18.95,33.89c0.16-0.48-0.46-0.79-1.81-1.07
			c-1.07-0.17-2.31,0.26-6.74,2.48c-5.94,2.93-9.68,4.36-10.65,4c-0.71-0.26-1.33-4.34-0.9-6.31c0.62-2.93-1.15-5.24-3.98-5.13
			c-0.72,0-2.22-0.1-3.46-0.28c-1.78-0.26-2.48-0.09-4,0.71c-3.38,1.69-8.17,7.1-10.82,12.34c-1.24,2.39-1.07,4.45,0.43,5.15
			c2.67,1.33,5.15-0.09,11.72-6.74l5.41-5.6l0.28,2.22c0.17,1.24,0.62,2.74,1.07,3.38c1.05,1.41,3.45,2.57,5.32,2.57
			c2.93,0,9.22-2.31,15.44-5.69c1.48-0.83,2.36-1.43,2.62-1.88c-10.37,20.37-17.88,38.68-17.88,45.54c0.09,2.65,0.53,3.46,2.93,4.17
			c1.95,0.53,4.26-0.09,5.13-1.41l0.72-0.98l-2.22,0.09l-2.31,0.17l0.17-1.86c0.53-9.3,12.34-36.37,27.77-63.7
			c4.7-8.25,7.37-12.61,10.22-16.87c8.15-1.15,17.83-2.57,29.53-4.17C203.54,568.95,203.2,567.79,202.04,567.62z M118.27,607.28
			c-1.69,1.86-3.89,4.26-5.05,5.32c-1.96,1.86-2.05,1.86-1.24,0.45c2.03-3.55,8.42-10.03,9.13-9.32
			C121.2,603.82,119.96,605.42,118.27,607.28z"/>
		<path d="M347.83,606.58c-0.81-0.45-1.95-0.45-5.77,0c-7.98,0.88-12.87-0.36-18.28-4.7c-5.24-4.17-6.82-3.91-12.06,1.05
			c-3.02,2.93-3.46,3.2-2.84,1.96c1.41-2.84,4.96-8.44,6.12-9.58c1.07-1.15,1.15-1.15,0.36-2.05c-0.53-0.53-1.33-0.88-2.22-0.88
			c-1.41,0-1.69,0.26-4.51,4.6c-1.41,2.1-3.58,5.93-5.67,9.82c-1.02-0.03-2.43,0.53-6.41,2.52c-5.94,2.93-9.67,4.36-10.65,4
			c-0.71-0.26-1.33-4.34-0.88-6.31c0.62-2.93-1.15-5.24-4-5.13c-0.71,0-2.22-0.1-3.46-0.28c-1.77-0.26-2.48-0.09-4,0.71
			c-1.64,0.83-3.65,2.57-5.57,4.74c-1.48-0.38-4.45-0.6-9.96-0.83c-5.15-0.17-9.94-0.53-10.56-0.79c-1.59-0.62-1.86-1.52-1.07-3.29
			c0.72-1.41,0.64-1.41-0.34-2.03c-1.78-1.15-3.1-0.9-4.26,0.96c-1.34,2.05-4.36,5.15-7.91,8.08c-3.02,2.48-6.48,4.62-6.82,4.26
			c-0.36-0.34,0.96-4.62,2.22-7.44l1.05-2.4l-0.96-0.81c-2.14-1.77-2.93-1.24-9.32,5.15c-5.77,5.77-10.65,9.94-11.18,9.41
			c-0.62-0.62,1.69-5.94,6.74-15.89l5.43-10.73l-1.07-0.81c-1.6-1.33-3.2-1.05-4.53,0.72c-0.62,0.88-1.86,2.12-2.65,2.93
			c-1.69,1.67-3.38,4.79-3.02,5.67c0.09,0.36,0.52,0.62,0.88,0.62s0.62,0.09,0.53,0.28c-4.34,8.51-7.18,15.61-7.18,17.83
			c0,0.45,0.45,1.33,1.07,1.95c0.96,0.98,1.33,1.07,3.19,0.9c2.67-0.28,5.77-2.14,10.48-6.31c3.27-2.93,3.64-3.02,3.72-2.14
			c0.79,6.39,8.96,4.53,18.11-4.08l2.57-2.48l1.95,0.9c2.48,1.07,7.72,1.69,15.71,1.77c2.86,0.03,4.76,0.05,6,0.03
			c-1.55,1.91-2.98,4.05-4.05,6.17c-1.24,2.39-1.07,4.45,0.45,5.15c2.65,1.33,5.15-0.09,11.72-6.74l5.41-5.6l0.26,2.22
			c0.17,1.24,0.62,2.74,1.07,3.38c1.07,1.41,3.46,2.57,5.32,2.57c2.69,0,8.25-1.95,13.96-4.89c-1.55,3.02-2.84,5.72-3.48,7.29
			c-0.9,2.31-0.71,3.19,0.79,3.72c0.98,0.36,1.15,0.28,2.4-0.17c1.33-0.53,1.41-0.53,7.8-8.7c5.07-6.39,9.68-11.44,10.48-11.44
			c0.26,0,1.41,0.79,2.48,1.77c4.53,3.89,10.2,5.67,17.75,5.67c4.62,0,9.67-0.79,9.67-1.41
			C348.79,607.28,348.36,606.84,347.83,606.58z M274.89,607.28c-1.69,1.86-3.91,4.26-5.07,5.32c-1.95,1.86-2.03,1.86-1.24,0.45
			c2.03-3.55,8.43-10.03,9.13-9.32C277.82,603.82,276.56,605.42,274.89,607.28z"/>
		<path d="M455.87,597.46c1.33-0.81,2.4-1.69,2.4-1.86c0.09-0.53-1.33-1.34-2.48-1.52c-1.15-0.17-5.86,2.22-5.94,3.02
			c-0.1,0.28,0.26,0.81,0.62,1.07C451.88,599.24,453.39,598.96,455.87,597.46z"/>
		<path d="M539.47,607.01c-1.41-0.62-6.29,3.29-12.85,6.22c-2.76,1.24-5.86,2.22-6.75,2.31l-1.69,0.17v-4.08
			c0-3.89-0.09-4-1.24-4.88c-0.88-0.71-1.77-0.9-3.46-0.9c-2.65,0-5.41,1.15-13.75,5.86c-3.19,1.77-6.31,3.46-6.93,3.74
			c-1.15,0.43-1.24,0.43-0.96-0.72c0.53-2.48,4.51-10.03,8.25-15.61c6.74-10.11,13.66-18.9,21.92-28.22
			c0.52-0.59,0.96-1.1,1.34-1.57c0.6-0.69,1.07-1.26,1.43-1.72c1.09-1.38,1.24-1.86,0.95-2.21c-1.07-1.24-3.38-0.71-6.56,1.41
			c-0.69,0.47-1.36,0.95-1.96,1.43c-5.22,0.59-12.42,1.52-19.5,2.48c0.45-0.62,0.79-1.15,1.24-1.69c3.72-5.15,8.51-12.68,8.42-13.22
			c0-0.62-1.6-1.33-2.93-1.15c-1.15,0.09-1.78,0.71-4.34,4.53c-2.67,3.81-5.32,7.98-8.08,12.23c-7.01,0.98-13.3,1.96-16.85,2.58
			c-13.23,2.48-23.07,5.13-22.98,6.2c0.09,0.53,1.24,0.98,2.4,1.07c0.62,0,2.22-0.09,3.55-0.17c1.95-0.28,2.48-0.45,2.4-0.9
			c0-0.34,0.36-0.79,0.9-1.07c2.74-0.96,11.08-2.48,29-5.13c-6.19,10.1-12.3,21.02-17.71,31.51c-0.9-0.19-1.59-0.07-2.69,0.24
			c-7.36,2.14-15.8,11.46-19.16,11.27c-2.5-0.09-2.67-0.96-1.34-4.34c0.64-1.52,1.96-4.26,3.03-6.12c2.29-3.91,2.21-4.62-0.53-4.98
			c-1.43-0.17-1.69,0-2.31,1.07c-0.36,0.71-1.24,1.77-1.96,2.4c-0.5,0.45-0.96,1.15-1.21,1.77c-1.69-0.26-4.5-0.43-8.91-0.62
			c-5.13-0.17-9.92-0.53-10.54-0.79c-1.6-0.62-1.88-1.52-1.07-3.29c0.71-1.41,0.62-1.41-0.36-2.03c-1.78-1.15-3.1-0.9-4.26,0.96
			c-1.33,2.05-4.34,5.15-7.89,8.08c-3.03,2.48-6.48,4.62-6.84,4.26c-0.36-0.34,0.98-4.62,2.22-7.44l1.07-2.4l-0.98-0.81
			c-2.14-1.77-2.93-1.24-9.32,5.15c-5.77,5.77-10.65,9.94-11.18,9.41c-0.62-0.62,1.69-5.94,6.75-15.89l5.41-10.73l-1.07-0.81
			c-1.6-1.33-3.19-1.05-4.53,0.72c-0.62,0.88-1.86,2.12-2.65,2.93c-1.69,1.67-3.38,4.79-3.02,5.67c0.09,0.36,0.53,0.62,0.88,0.62
			c0.36,0,0.62,0.09,0.53,0.28c-4.34,8.51-7.18,15.61-7.18,17.83c0,0.45,0.45,1.33,1.07,1.95c0.98,0.98,1.33,1.07,3.19,0.9
			c2.67-0.28,5.77-2.14,10.48-6.31c3.29-2.93,3.64-3.02,3.72-2.14c0.81,6.39,8.96,4.53,18.11-4.08l2.57-2.48l1.95,0.9
			c2.5,1.07,7.74,1.69,15.71,1.77c2.65,0.03,4.48,0.05,5.74,0.03c-0.21,0.81-0.55,1.88-0.86,2.79c-1.15,3.03-0.88,4.89,0.9,6.39
			c2.74,2.39,6.56,4.45,21.92-7.81c1.05-0.83,2.24-1.33,3.26-1.64c-10.34,20.3-17.82,38.54-17.82,45.38
			c0.09,2.65,0.53,3.46,2.93,4.17c1.95,0.53,4.26-0.09,5.15-1.41l0.71-0.98l-2.22,0.09l-2.31,0.17l0.19-1.86
			c0.53-9.3,12.32-36.37,27.77-63.7c4.69-8.25,7.36-12.61,10.2-16.87c5.5-0.78,11.68-1.67,18.71-2.65
			c-1.48,1.53-2.27,2.88-2.12,3.72c0.17,0.9-0.09,1.6-1.15,2.84c-6.93,8.06-18.19,24.22-21.47,30.7c-3.12,6.12-3.29,8.87-0.72,10.11
			c2.39,1.15,5.94,0,14.28-4.62c6.93-3.81,8.25-4.53,9.68-4.96c0.96-0.28,0.96-0.28,0.71,2.65c-0.53,5.24,0.98,6.84,6.03,6.74
			c2.22,0,4-0.34,6.56-1.33c4.89-1.86,14.11-8.17,14.11-8.6C540.54,607.63,540.09,607.28,539.47,607.01z"/>
		<path d="M894.31,607.09c-0.43-0.52-1.69-0.88-4.08-1.05c-3.36-0.28-16.32,0.34-21.92,1.05c-1.67,0.19-3.02,0.36-3.1,0.28
			c-0.09-0.09,0.81-1.24,2.05-2.57c1.5-1.69,2.57-2.4,3.27-2.4c1.24,0,4.62-3.29,4.45-4.27c-0.19-0.96-2.4-1.95-3.64-1.58
			c-1.6,0.34-5.77,4.08-9.23,8.06c-0.62,0.72-1.12,1.31-1.55,1.77c-0.72,0.05-4.38,1.65-8.58,3.67c-0.03,0.02-0.07,0.02-0.1,0.03
			c-0.22,0.12-0.43,0.22-0.65,0.33c-0.05,0.02-0.1,0.03-0.14,0.07c-8.75,4.34-14.35,6.2-18.61,6.38c-2.05,0.09-2.57-0.09-3.1-0.79
			c-1.24-1.77-0.45-7.29,1.95-12.51c0.98-2.22,1.6-2.93,3.72-4.36c6.48-4.43,24.14-23.86,30.7-33.72c2.84-4.26,3.21-5.58,1.86-7.01
			c-2.21-2.39-5.86-1.67-10.46,1.96c-6.67,5.24-18.81,21.11-26.28,34.34c-1.24,2.21-2.84,4.6-3.46,5.13
			c-0.62,0.62-0.88,1.07-0.62,1.15c0.36,0.19,0,1.6-0.96,4.36c-0.09,0.24-0.17,0.48-0.24,0.71c-0.98,0-2.1,0.34-2.96,0.96
			c-1.95,1.43-10.56,5.32-14.9,6.84c-4.88,1.69-10.29,2.84-12.25,2.48c-1.77-0.34-2.57-1.77-2.12-3.89c0.45-2.31,0.71-2.5,2.48-1.96
			c1.24,0.45,1.86,0.36,3.02-0.09c3.21-1.33,7.1-7.27,6.03-9.22c-0.71-1.34-3.36-2.4-5.13-2.05c-2.62,0.47-6.19,3.6-8.65,7.49
			c-0.65-0.24-1.46-0.24-3.07-0.03c-9.05,0.97-21.21,3.19-26.53,4.88l-2.65,0.79l-0.72-2.21c-0.34-1.26-0.71-3.29-0.71-4.62
			c0-2.14,0.09-2.48,0.98-2.58c1.15-0.17,3.38-3.02,4.43-5.67l0.81-2.05l-0.98-0.79c-1.6-1.33-2.93-1.07-5.24,1.15
			c-3.41,3.14-4.72,6.44-4.2,10.67c-0.86-0.02-2.15,0.1-4.22,0.34c-7.98,0.88-12.87-0.36-18.28-4.7c-5.24-4.17-6.82-3.91-12.06,1.05
			c-3.02,2.93-3.46,3.2-2.84,1.96c1.41-2.84,4.96-8.44,6.12-9.58c1.07-1.15,1.16-1.15,0.36-2.05c-0.54-0.53-1.33-0.88-2.22-0.88
			c-1.41,0-1.69,0.26-4.51,4.6c-1.4,2.07-3.51,5.81-5.57,9.65c-1.17-0.29-1.78,0.03-7.13,3.31c-2.22,1.33-5.67,3.2-7.63,4.17
			c-3.55,1.77-7.98,3.12-8.6,2.5c-0.98-0.98,0.34-5.86,3.36-12.7l1.07-2.31l-1.07-0.79c-1.95-1.52-2.83-1.07-7.89,3.72
			c-4.88,4.62-9.32,7.99-12.96,9.86l-2.12,1.07v-0.98c0-2.84,3.64-10.39,7.36-15.18c2.14-2.74,2.22-2.84,1.52-3.64
			c-0.45-0.45-1.34-0.79-2.14-0.79c-1.15,0-1.69,0.34-2.67,1.59c-2.33,3.02-4.6,6.87-6.19,10.32c-1.03-0.33-2.79-0.02-6.86,0.96
			c-7.53,1.86-14.46,1.59-18.18-0.72c-1.43-0.88-1.33-0.88-0.71-2.12c1.05-2.14,0.79-4.08-0.72-5.32c-0.71-0.62-1.69-1.15-2.12-1.15
			c-0.45,0-0.9-0.28-0.9-0.53c0-0.98-2.4-2.14-3.81-1.86c-2.38,0.52-6.05,5.55-8.43,10.67c-1.27-0.48-3.2-0.43-6.58,0.24
			c-3.98,0.71-8.68,2.39-13.3,4.62l-3.1,1.6l1.59-3.74c0.9-2.03,2.14-5.5,2.76-7.63l1.15-3.98l-0.88-0.98
			c-1.69-1.86-3.29-1.41-7.99,2.22c-4.62,3.55-8.51,6.03-11.53,7.36l-1.96,0.81l0.36-1.69c0.62-3.2,3.38-8.53,4.43-8.87
			c0.98-0.36,2.5-3.64,2.58-5.69c0.09-1.95-2.84-3.36-4.08-2.03c-0.62,0.71-5.6,10.46-6.56,13.04c-1.77,4.7-0.62,7.36,3.27,7.55
			c3.21,0.17,10.03-3.12,14.9-6.93c1.96-1.6,1.96-0.98-0.17,4.08c-4,9.67-4.17,9.94-9.13,13.66c-10.73,7.98-18.9,20.31-15.27,23.07
			c2.14,1.59,4.88,0.71,8.43-2.84c3.46-3.46,8.7-10.56,12.42-16.87l3.02-5.13l3.55-2.05c7.55-4.43,15.97-7.63,20.68-7.89
			c0.22-0.02,0.43-0.02,0.62-0.03c-0.83,2.08-1.4,4.08-1.5,5.72c-0.19,2.48-0.09,2.93,0.79,3.72c0.53,0.53,1.41,0.98,1.86,1.07
			c0.9,0.17,3.91-0.53,5.24-1.24c1.41-0.81,5.86-5.43,7.18-7.55c1.24-1.95,1.33-2.05,2.48-1.43c0.62,0.36,2.31,0.9,3.74,1.26
			c5.84,1.41,11.08,1.24,19.69-0.81c0.88-0.21,1.59-0.36,2.15-0.52c-0.79,2.02-1.28,3.77-1.28,4.96c0,2.74,0.98,3.64,4.45,3.64
			c3.38,0,6.82-1.6,12.15-5.6c2.14-1.59,3.74-2.48,3.55-2.03c-0.17,0.45-0.53,1.6-0.79,2.76c-0.53,2.57,0.36,4.7,2.39,5.67
			c4.15,2.08,11.22-0.16,23.28-7.29c-1.52,2.95-2.77,5.58-3.39,7.12c-0.9,2.31-0.72,3.19,0.79,3.72c0.98,0.36,1.15,0.28,2.4-0.17
			c1.33-0.53,1.41-0.53,7.8-8.7c5.07-6.39,9.68-11.44,10.48-11.44c0.26,0,1.41,0.79,2.48,1.77c4.53,3.89,10.2,5.67,17.75,5.67
			c2.72,0,5.62-0.28,7.51-0.62c0.14,0.65,0.34,1.34,0.57,2.05l0.96,3.27l-3.81,1.96c-6.13,3.19-10.3,6.91-10.3,9.05
			c0,0.79,1.26,1.95,2.41,2.22c2.03,0.53,7.44-0.98,10.82-2.93c3.55-2.05,4.96-4.26,5.5-8.34c0.17-1.6,14.46-4.89,27.77-6.48
			c0.98-0.12,1.81-0.22,2.48-0.33c-2.34,4.77-0.45,8.41,4.98,9.55c5.22,1.07,16.23-1.86,26.96-7.18c0.93-0.47,1.86-0.95,2.69-1.4
			c-0.14,0.91-0.15,1.76-0.12,2.83c0.19,3.89,1.77,5.5,6.13,6.29c3.38,0.62,9.67-0.53,15.89-2.93c1.19-0.47,3.07-1.31,5.15-2.26
			c0.09,0.07,0.17,0.16,0.26,0.22l1.95,1.6l-1.77,2.83c-0.98,1.52-2.76,4.79-4.08,7.37c-5.32,10.46-5.94,16.32-1.78,17.47
			c3.02,0.81,6.31-0.79,10.39-5.13c5.05-5.43,7.27-11.01,5.94-15.63c-0.28-1.07-1.34-2.84-2.31-4.08l-1.69-2.21l1.6-2.22
			c0.88-1.24,1.77-2.58,2.12-3.02c0.45-0.62,1.69-0.98,5.41-1.43c6.93-0.88,20.14-1.59,22.81-1.33c1.24,0.17,2.74,0.17,3.38,0
			C894.84,607.82,894.93,607.82,894.31,607.09z M837.62,591.85c2.03-4,13.75-20.06,18.18-24.93c2.76-3.03,7.46-7.1,7.82-6.75
			c0.79,0.81-7.29,11.54-14.65,19.8C843.48,586.07,837.17,592.64,837.62,591.85z M795.56,607.54c1.05-1.77,4.34-5.41,4.6-5.13
			c0.45,0.43-1.16,3.02-2.83,4.69C795.29,609.14,794.49,609.4,795.56,607.54z M585.98,629.11c-1.24,1.86-3.55,4.88-4.98,6.56
			c-1.41,1.69-2.65,3.02-2.74,3.02c-1.15-0.09,4.26-7.37,8.17-11.18l1.86-1.86L585.98,629.11z M632.55,607.82
			c-0.79,1.33-2.4,3.36-3.45,4.6c-1.07,1.26-2.4,2.58-3.02,2.93c-0.98,0.62-1.07,0.62-1.07-0.17c0-3.1,5.76-14.65,7.27-14.65
			c0.36,0,0.53,0.62,0.53,1.43c0,0.79,0.26,1.86,0.62,2.48C633.98,605.42,633.98,605.59,632.55,607.82z M749.85,622.55
			c-0.96,0.52-2.29,1.24-2.93,1.5c-1.15,0.45-1.24,0.45-0.79-0.36c0.9-1.59,8.7-7.08,8.7-6.12
			C754.83,618.38,751.73,621.48,749.85,622.55z M856.21,611.44c0.12,0.07,0.02,0.34-0.22,0.81c-0.53,0.9-1.07,1.07-1.52,0.45
			c-0.09-0.14-0.03-0.31,0.1-0.47C855.13,611.95,855.68,611.69,856.21,611.44z M851.71,637.45c-1.24,1.24-2.65,2.48-3.1,2.74
			c-0.79,0.45-0.79,0.28-0.79-0.79c0-1.6,1.07-5.15,2.65-8.87c1.6-3.72,5.94-11.44,6.39-11.44c0.53,0,1.33,2.21,1.6,4.34
			C858.92,627.42,856.33,632.92,851.71,637.45z"/>
	</g>
	<g>
		<path d="M141.29,583.16c-0.02,0-0.02,0.02-0.02,0.03c-1.26,1.76-3.14,2.17-4.89,2.43h12.34c3.72,0,6.93-2.19,8.41-5.34
			C151.06,581.23,144.48,582.35,141.29,583.16z M148.72,467.51c5.13,0,9.29-4.15,9.29-9.29c0-5.12-4.15-9.27-9.29-9.27H141
			c-1.81,2.26-3.53,4.22-5.01,5.7c-4,4.01-7.65,5.96-11.18,5.96c-2.02,0-3.96-0.65-5.62-1.91c-1.95-1.46-3-3.74-2.98-6.41
			c0-1.05,0.17-2.17,0.5-3.34h-5.1c-5.12,0-9.29,4.15-9.29,9.27v118.11c0,5.13,4.17,9.29,9.29,9.29h17.78
			c-2.64-0.69-4.41-2.38-4.79-4.65c-0.02-0.12-0.03-0.24-0.03-0.36c-0.4-4.67,4.62-6.03,9.91-7.46c4.36-1.17,10.34-2.5,16.85-3.72
			c0.86-0.16,1.86-0.33,2.95-0.5c-1.55-1.17-3.46-1.86-5.55-1.86h-27.83v-40.49h13.85c5.12,0,9.29-4.17,9.29-9.29
			c0-5.13-4.17-9.29-9.29-9.29h-13.85v-40.49H148.72z"/>
		<path d="M181.47,576.68l-4.31,0.62c0.48,4.69,4.43,8.32,9.23,8.32c5.12,0,9.27-4.15,9.27-9.29v-1.65
			C190.52,575.39,185.8,576.06,181.47,576.68z M230.27,448.96c-5.13,0-9.29,4.15-9.29,9.27v66.47l-25.88-69.69
			c-1.57-4.22-5.93-6.7-10.35-5.91c-4.41,0.79-7.63,4.65-7.63,9.13v93.45c1.07-0.93,2.29-1.5,3.86-1.65
			c0.29-0.03,0.6-0.05,0.91-0.05c3.34,0,6.79,1.98,7.12,5.31c0.15,1.07,0.03,2.74-4.38,9.44c3.7-0.48,7.75-0.96,11.04-1.33v-53.53
			l25.9,69.71c1.36,3.69,4.88,6.05,8.7,6.05c0.53,0,1.09-0.05,1.64-0.16c4.43-0.79,7.63-4.63,7.63-9.13V458.23
			C239.54,453.11,235.38,448.96,230.27,448.96z"/>
		<path d="M289.78,448.96c-17.21,0-31.22,14.01-31.22,31.2v74.24c0,17.21,14.01,31.22,31.22,31.22c17.21,0,31.2-14.01,31.2-31.22
			v-74.24C320.98,462.95,306.99,448.96,289.78,448.96z M302.43,554.41c0,6.98-5.67,12.66-12.65,12.66
			c-6.98,0-12.66-5.69-12.66-12.66v-74.24c0-6.98,5.69-12.65,12.66-12.65c6.98,0,12.65,5.67,12.65,12.65V554.41z"/>
		<path d="M393.16,448.96c-5.12,0-9.29,4.15-9.29,9.27v96.18c0,6.98-5.67,12.66-12.65,12.66s-12.66-5.69-12.66-12.66v-96.18
			c0-5.12-4.15-9.27-9.27-9.27c-5.13,0-9.29,4.15-9.29,9.27v96.18c0,17.21,14.01,31.22,31.22,31.22c17.21,0,31.2-14.01,31.2-31.22
			v-96.18C402.43,453.11,398.28,448.96,393.16,448.96z"/>
		<path d="M474.6,508h-16.46c-4.85,0-9.18,3.54-9.65,8.36c-0.54,5.53,3.8,10.19,9.23,10.19h7.6v27.42c0,6.43-4.61,12.17-10.98,12.98
			c-7.72,0.99-14.33-5.03-14.33-12.56v-73.72c0-6.79,5.13-12.75,11.91-13.15c7.25-0.42,13.29,5.29,13.4,12.43
			c0.07,4.88,3.8,9.14,8.67,9.46c5.4,0.35,9.89-3.93,9.89-9.27c0-17.2-13.99-31.2-31.2-31.2c-17.21,0-31.22,14.01-31.22,31.2v74.24
			c0,16.92,13.53,30.74,30.34,31.21c0.1,0,0.12-0.14,0.02-0.17c-2.33-0.77-3.9-2.36-4.23-4.47c-0.03-0.12-0.05-0.24-0.05-0.36
			c-0.4-4.67,4.62-6.03,9.92-7.46c4.34-1.17,10.32-2.5,16.83-3.72c1.69-0.29,3.84-0.65,6.26-1.02c2.14-4.2,3.32-8.98,3.32-14.01
			v-37.11C483.87,512.16,479.72,508,474.6,508z"/>
		<path d="M556.05,448.96c-5.12,0-9.29,4.15-9.29,9.27V508h-25.31v-49.78c0-5.12-4.15-9.27-9.27-9.27c-5.13,0-9.29,4.15-9.29,9.27
			v91.97c0.33-0.07,0.69-0.14,1.05-0.17c0.31-0.03,0.6-0.05,0.91-0.05c3.34,0,6.79,1.98,7.13,5.31c0.14,1.07,0.02,2.74-4.39,9.44
			c2.57-0.33,5.29-0.67,7.82-0.96c0.38-0.28,0.74-0.53,1.12-0.79c1.79-1.19,3.41-2,4.91-2.45v-33.96h25.31v49.78
			c0,5.13,4.17,9.29,9.29,9.29c5.12,0,9.29-4.15,9.29-9.29V458.23C565.34,453.11,561.17,448.96,556.05,448.96z"/>
		<path d="M687.58,448.96h-45.06c-2.08,3.02-4.19,5.82-6.32,8.34c-2.02,2.41-3.79,4.26-5.53,5.65c1.6,2.74,4.58,4.57,7.98,4.57h15.2
			v108.82c0,5.13,4.15,9.29,9.27,9.29c5.13,0,9.29-4.15,9.29-9.29V467.51h15.18c5.13,0,9.29-4.15,9.29-9.29
			C696.87,453.11,692.72,448.96,687.58,448.96z"/>
		<path d="M725.19,448.96c-5.13,0-9.29,4.15-9.29,9.27v118.11c0,5.13,4.17,9.29,9.29,9.29c5.12,0,9.27-4.15,9.27-9.29V458.23
			C734.46,453.11,730.31,448.96,725.19,448.96z"/>
		<path d="M814.7,449.03c-4.65-0.55-9.01,2.45-10.13,7.01l-2.83,11.56l-1.86,7.68l-11.6,47.59l-16.3-66.83
			c-1.1-4.57-5.48-7.56-10.11-7.01c-4.67,0.55-8.18,4.51-8.18,9.2v118.11c0,5.13,4.15,9.29,9.29,9.29c5.12,0,9.29-4.15,9.29-9.29
			v-40.85l7.01,28.76c0,0.03,0,0.05,0.02,0.07c0.05,0.19,0.1,0.38,0.15,0.57c0.05,0.1,0.07,0.22,0.12,0.34
			c0.05,0.14,0.1,0.26,0.17,0.4c0.05,0.16,0.12,0.31,0.19,0.45c0.02,0.07,0.07,0.14,0.09,0.19c0.38,0.74,0.86,1.43,1.4,2.03
			c0.76,0.83,1.65,1.52,2.69,2.03c0.05,0.03,0.1,0.07,0.17,0.09c0.14,0.07,0.29,0.12,0.43,0.19c0.14,0.07,0.28,0.12,0.43,0.17
			c0.09,0.03,0.21,0.07,0.31,0.1c0.19,0.07,0.38,0.12,0.59,0.17c0.02,0,0.03,0.02,0.05,0.02c0.09,0.02,0.16,0.03,0.24,0.05
			c0.21,0.03,0.4,0.09,0.62,0.1c0.12,0.03,0.24,0.03,0.36,0.05c0.17,0.02,0.34,0.03,0.53,0.05h0.9c0.19-0.02,0.36-0.03,0.55-0.05
			c0.12-0.02,0.22-0.02,0.34-0.03c0.21-0.03,0.43-0.09,0.64-0.12c0.07-0.02,0.14-0.03,0.21-0.05c0.03,0,0.05-0.02,0.07-0.02
			c0.19-0.05,0.4-0.12,0.6-0.17c0.09-0.03,0.21-0.07,0.29-0.1c0.15-0.05,0.29-0.12,0.43-0.17c0.15-0.07,0.29-0.12,0.43-0.19
			c0.07-0.03,0.12-0.07,0.19-0.09c1.02-0.52,1.91-1.21,2.65-2.03c0.55-0.6,1.02-1.28,1.4-2.02c0.03-0.07,0.07-0.14,0.1-0.21
			c0.07-0.14,0.14-0.29,0.19-0.45c0.07-0.14,0.12-0.26,0.17-0.4c0.03-0.12,0.07-0.24,0.1-0.34c0.07-0.19,0.12-0.38,0.17-0.57
			c0-0.02,0.02-0.03,0.02-0.07l7.01-28.76v40.85c0,5.13,4.15,9.29,9.29,9.29c5.12,0,9.27-4.15,9.27-9.29V458.23
			C822.87,453.54,819.37,449.58,814.7,449.03z"/>
		<path d="M888.4,567.07h-18.11c-0.24,0.34-0.47,0.67-0.67,1c-2.98,4.48-8.39,11.15-14.09,17.56h32.87c5.13,0,9.29-4.15,9.29-9.29
			C897.68,571.22,893.53,567.07,888.4,567.07z M888.4,448.96h-37.11c-5.13,0-9.29,4.15-9.29,9.27v111.75
			c4.58-5.81,8.99-10.63,12.27-13.22c2.22-1.76,4.31-2.96,6.29-3.65v-26.53h13.87c5.12,0,9.27-4.17,9.27-9.29
			c0-5.13-4.15-9.29-9.27-9.29h-13.87v-40.49h27.84c5.13,0,9.29-4.15,9.29-9.29C897.68,453.11,893.53,448.96,888.4,448.96z"/>
	</g>
</g>
</svg>


