<?xml version="1.0" encoding="utf-8"?>
<!-- Generator: Adobe Illustrator 24.0.0, SVG Export Plug-In . SVG Version: 6.00 Build 0)  -->
<svg version="1.1" xmlns="http://www.w3.org/2000/svg" xmlns:xlink="http://www.w3.org/1999/xlink" x="0px" y="0px"
	 viewBox="0 0 1000 1000" style="enable-background:new 0 0 1000 1000;" xml:space="preserve" width="500" height="500">
<style type="text/css">
	.st0{fill:#1D1D1B;}
</style>
<g>
	<g>
		<path d="M102.59,445.13c-1.27-0.86-2.69-1.82-4.26-2.88c-1.56-1.07-2.97-2.78-4.26-5.12c-1.28-2.34-1.92-6.43-1.92-12.25v-76.03
			c0-5.82,0.63-10.01,1.92-12.57c1.28-2.55,2.69-4.43,4.26-5.64c1.56-1.2,2.99-2.24,4.26-3.09c1.28-0.86,1.92-2.48,1.92-4.9
			c0-1.99-0.52-3.69-1.59-5.1c-1.07-1.42-2.88-2.64-5.43-3.62c-2.57-1-5.89-1.71-10.02-2.13c-4.12-0.42-9.22-0.65-15.32-0.65
			c-6.12,0-11.22,0.23-15.33,0.65c-4.13,0.42-7.43,1.13-9.91,2.13c-2.48,0.99-4.26,2.23-5.33,3.72c-1.06,1.49-1.59,3.24-1.59,5.21
			c0,2.57,0.63,4.23,1.92,5.02c1.28,0.78,2.69,1.8,4.26,3.09c1.56,1.27,2.99,3.33,4.26,6.17c1.28,2.83,1.92,7.6,1.92,14.26v70.71
			c0,6.67-0.63,11.46-1.92,14.38c-1.27,2.9-2.69,5-4.26,6.27c-1.56,1.28-2.97,2.31-4.26,3.1c-1.28,0.78-1.92,2.44-1.92,5
			c0,3.97,2.34,6.92,7.03,8.84c4.68,1.92,13.05,2.88,25.13,2.88c6.1,0,11.21-0.21,15.32-0.65c4.13-0.42,7.46-1.13,10.02-2.13
			c2.55-0.99,4.36-2.23,5.43-3.72c1.07-1.49,1.59-3.23,1.59-5.21C104.5,447.89,103.87,445.97,102.59,445.13z"/>
		<path d="M143.4,320.64c-0.73-1.71-1.71-3.11-2.93-4.24c-1.22-1.11-2.6-1.94-4.15-2.48c-1.56-0.54-3.18-0.81-4.82-0.81
			c-1.66,0-3.26,0.27-4.81,0.81c-1.58,0.54-2.98,1.34-4.25,2.42c-1.27,1.06-2.26,2.38-2.99,3.94c-0.73,1.55-1.1,3.35-1.1,5.4
			c0,4.29,1.56,7.58,4.68,9.93c1.47,1.07,2.54,1.97,3.21,2.7c0.68,0.73,1.03,1.56,1.03,2.49c0,0.92-0.34,2.04-1.03,3.35
			c-0.67,1.32-1.75,3.1-3.21,5.34c-0.59,0.98-0.68,1.93-0.28,2.85c0.38,0.93,1.25,1.39,2.63,1.39c1.26,0,2.67-0.49,4.24-1.45
			c1.45-0.89,3.05-2.22,4.81-4.03c1.76-1.79,3.36-3.85,4.82-6.13c1.45-2.28,2.7-4.78,3.71-7.45c1.03-2.67,1.54-5.39,1.54-8.11
			C144.49,324.32,144.12,322.35,143.4,320.64z"/>
		<path d="M356.98,437.77c-1.21-0.35-2.62-0.75-4.26-1.17c-1.63-0.42-3.16-1.48-4.58-3.19c-1.42-1.71-2.34-5.12-2.76-10.23v-38.55
			c0-12.49-2.71-21.72-8.1-27.68S324.5,348,315.13,348c-8.53,0-16.12,2.24-22.79,6.71c-6.67,4.48-12.64,10.7-17.89,18.65
			c-1.56-8.53-4.9-14.88-10.01-19.07c-5.12-4.19-11.57-6.29-19.38-6.29c-8.25,0-15.63,2.14-22.16,6.4
			c-6.53,4.26-12.42,10.22-17.67,17.89v-5.54c0-6.95-1.49-11.81-4.47-14.59c-2.99-2.76-8.17-4.16-15.55-4.16
			c-4.41,0-8.48,0.65-12.25,1.92c-3.76,1.28-7.03,2.85-9.8,4.69c-2.78,1.85-4.93,3.76-6.5,5.75c-1.56,1.99-2.34,3.76-2.34,5.33
			c0,1.85,0.28,3.19,0.85,4.04c0.56,0.85,1.31,1.48,2.24,1.92c0.92,0.42,1.95,0.77,3.09,1.06c1.13,0.28,2.2,0.89,3.2,1.82
			c0.99,0.92,1.83,2.31,2.55,4.14c0.7,1.85,1.2,4.48,1.49,7.88v38.55c0,5.54-0.65,9.51-1.92,11.92c-1.28,2.42-2.66,4.23-4.16,5.44
			c-1.49,1.21-2.88,2.24-4.16,3.09c-1.27,0.85-1.92,2.55-1.92,5.12c0,1.85,0.47,3.48,1.4,4.89c0.92,1.42,2.55,2.59,4.89,3.51
			c2.34,0.93,5.5,1.61,9.49,2.03c3.96,0.42,9.01,0.63,15.11,0.63c6.1,0,11.15-0.21,15.12-0.63c3.97-0.42,7.13-1.14,9.49-2.13
			c2.34-1,4-2.2,5-3.62c0.99-1.42,1.48-3.06,1.48-4.9c0-2.55-0.63-4.28-1.92-5.22c-1.27-0.92-2.69-2.02-4.26-3.3
			c-1.56-1.28-2.97-3.37-4.26-6.29c-1.28-2.9-1.92-7.63-1.92-14.16v-23.43c0.86-3.26,2.1-6.2,3.74-8.84
			c1.62-2.62,3.47-4.89,5.53-6.81c2.06-1.92,4.19-3.41,6.4-4.48c2.2-1.06,4.28-1.59,6.27-1.59c2.71,0,4.98,1.07,6.82,3.2
			c1.85,2.13,2.76,5.47,2.76,10.01v34.5c0,5.82-0.63,10.01-1.92,12.56c-1.27,2.57-2.69,4.44-4.26,5.65
			c-1.56,1.2-2.97,2.23-4.26,3.09c-1.28,0.85-1.92,2.55-1.92,5.1c0,1.85,0.49,3.48,1.49,4.9c0.99,1.42,2.66,2.62,5,3.62
			c2.34,0.99,5.5,1.71,9.47,2.13c3.97,0.42,8.95,0.63,14.91,0.63c6.1,0,11.15-0.21,15.12-0.63c3.97-0.42,7.13-1.14,9.47-2.13
			c2.34-1,4.02-2.2,5-3.62c1-1.42,1.49-3.06,1.49-4.9c0-2.27-0.49-3.83-1.49-4.68c-0.99-0.85-2.13-1.78-3.41-2.76
			c-1.27-1-2.55-2.42-3.82-4.27c-1.28-1.83-2.21-4.82-2.78-8.94v-31.74c0.86-3.26,2.13-6.2,3.83-8.84c1.71-2.62,3.58-4.89,5.64-6.81
			c2.06-1.92,4.23-3.41,6.5-4.48c2.27-1.06,4.4-1.59,6.4-1.59c2.69,0,4.93,1.07,6.71,3.2c1.76,2.13,2.65,5.47,2.65,10.01V443
			c0,6.81,1.49,11.6,4.48,14.38c2.97,2.76,8.16,4.14,15.55,4.14c2.55,0,5.64-0.42,9.26-1.27c3.62-0.86,7.13-2.14,10.54-3.83
			c3.41-1.71,6.31-3.81,8.74-6.29c2.41-2.48,3.61-5.29,3.61-8.41C358.78,439.45,358.19,438.14,356.98,437.77z"/>
		<path d="M521.07,357.07c-5.68-5.89-13.7-8.84-24.06-8.84c-9.09,0-17.15,2.13-24.17,6.38c-7.03,4.26-13.25,10.22-18.63,17.89v-5.75
			c0-6.81-1.49-11.6-4.48-14.38c-2.97-2.76-8.16-4.14-15.55-4.14c-4.4,0-8.48,0.63-12.23,1.92c-3.78,1.27-7.03,2.83-9.81,4.68
			c-2.76,1.85-4.93,3.76-6.48,5.75c-1.56,1.99-2.35,3.76-2.35,5.33c0,2.83,0.65,4.54,1.92,5.1c1.28,0.58,2.71,1.17,4.27,1.82
			c1.55,0.63,3.04,1.8,4.47,3.51c1.41,1.71,2.34,5.12,2.76,10.22v34.93c0,6.54-0.63,11.26-1.92,14.16c-1.27,2.92-2.66,5-4.14,6.29
			c-1.49,1.28-2.88,2.38-4.16,3.3c-1.28,0.93-1.92,2.66-1.92,5.22c0,1.85,0.47,3.48,1.38,4.9c0.93,1.42,2.57,2.62,4.9,3.62
			c2.34,0.99,5.5,1.71,9.47,2.13c3.97,0.42,9.02,0.63,15.12,0.63c6.1,0,11.15-0.21,15.12-0.63c3.97-0.42,7.13-1.1,9.47-2.03
			c2.34-0.92,3.97-2.09,4.9-3.51c0.92-1.41,1.38-3.04,1.38-4.89c0-2.57-0.63-4.27-1.92-5.12c-1.28-0.85-2.66-1.87-4.16-3.09
			c-1.48-1.21-2.88-2.99-4.14-5.33c-1.28-2.34-1.92-6.15-1.92-11.39v-27.91c0.85-3.26,2.23-6.2,4.14-8.84
			c1.92-2.62,4.05-4.86,6.4-6.71c2.34-1.85,4.82-3.3,7.44-4.37c2.64-1.06,5.09-1.59,7.36-1.59c3.26,0,5.96,1.07,8.09,3.2
			s3.2,5.47,3.2,10.01V443c0,6.81,1.45,11.64,4.36,14.48c1.79,1.73,4.43,2.96,7.91,3.62c1.66-22.06,4.26-45.31,8.23-58.2
			c3.52-11.52,10.13-12.76,12.81-12.76c1.9,0,3.75,0.52,5.45,1.54v-7.05C529.59,372.15,526.75,362.96,521.07,357.07z M524.67,415.59
			c-1.86,10.11-3.44,25.09-4.74,44.86c0.38-0.08,0.76-0.18,1.14-0.28C524.48,444.11,526.25,427.41,524.67,415.59z M540.98,438.94
			c-0.38-0.17-0.76-0.35-1.17-0.52c-0.39,4.45-0.97,9.03-1.68,13.66c0.37-0.28,0.7-0.58,1.04-0.89c2.41-2.2,3.62-4.58,3.62-7.13
			C542.8,441.22,542.19,439.52,540.98,438.94z"/>
		<path d="M655.98,389.47c-5.57,0.75-10.88,1.56-15.93,2.45c-1.62,0.32-3.47,0.77-5.43,1.24l-1.89,0.45
			c-2.34,0.51-4.92,1.13-6.85,1.87l-0.16,0.06l-0.14,0.04c-3.58,1.09-6.47,1.61-8.84,1.61c-0.16,0-0.31,0-0.45-0.01
			c0.13,0.61,0.27,1.21,0.39,1.83c1.55,7.46,2.37,14.56,2.44,21.3c0.07,6.75-0.68,12.64-2.23,17.69c-1.56,5.03-4.13,8.19-7.67,9.47
			c-3.55,1.28-6.96,0.18-10.23-3.3c-3.26-3.48-6.13-8.2-8.61-14.16c-2.49-5.96-4.51-12.64-6.07-20.01
			c-1.56-7.39-2.42-14.45-2.55-21.2c-0.16-6.74,0.56-12.67,2.13-17.79c1.55-5.1,4.12-8.23,7.67-9.36c3.68-1.28,7.16-0.23,10.43,3.19
			c3.27,3.41,6.15,8.09,8.63,14.05c0.25,0.62,0.49,1.23,0.73,1.86c0.41-0.47,0.83-0.94,1.28-1.42l0.11-0.11l0.13-0.1
			c5-4.51,10.6-8.25,16.62-11.08c1.63-0.75,3.21-1.11,4.76-1.11c1.28,0,2.51,0.25,3.64,0.76l0.17,0.07l0.17,0.08
			c2.37,1.32,4.06,3.21,5.02,5.6l0.07,0.18l0.06,0.18c0.16,0.54,0.28,1.07,0.35,1.61c2.2-0.1,4.58-0.21,7.12-0.32
			c-2.02-3.85-4.5-7.37-7.43-10.56c-4.76-5.19-10.73-9.3-17.89-12.36c-7.17-3.04-15.52-4.58-25.03-4.58
			c-9.51,0-17.86,1.42-25.02,4.26c-7.17,2.85-13.14,6.79-17.89,11.82c-4.76,5.05-8.34,11.04-10.77,18
			c-2.41,6.95-3.61,14.56-3.61,22.79c0,8.23,1.17,15.83,3.51,22.78c2.34,6.96,5.89,12.97,10.64,18c4.76,5.05,10.66,8.98,17.69,11.83
			c7.02,2.83,15.22,4.26,24.6,4.26c9.8,0,18.31-1.49,25.55-4.47c7.24-2.99,13.23-7.06,18-12.25c4.75-5.19,8.33-11.22,10.75-18.1
			c2.41-6.89,3.62-14.23,3.62-22.04C657.59,399.28,657.07,394.29,655.98,389.47z"/>
		<path d="M727.12,352.16c-0.21-2.2-1.27-4.05-3.19-5.54c-1.92-1.49-4.44-1.66-7.57-0.52l-9.8,3.19v-17.25
			c0-2.41-0.61-4.19-1.8-5.33c-1.21-1.13-2.8-1.69-4.79-1.69c-2.57,0-5.4,0.99-8.53,2.97l-29.18,18.96
			c-2.13,1.42-3.55,2.95-4.26,4.58c-0.7,1.64-0.82,3.16-0.32,4.58c0.51,1.41,1.47,2.59,2.88,3.51c1.42,0.93,3.13,1.38,5.12,1.38
			c0.7,0,1.28,0.18,1.71,0.54c0.42,0.35,0.78,1.31,1.06,2.88c0.3,1.56,0.51,3.97,0.65,7.24c0.04,0.82,0.07,1.71,0.08,2.68
			c10.74-0.4,23.26-0.82,37.39-1.2v-11.71h9.8c4.12,0,6.99-0.99,8.63-2.97C726.62,356.46,727.33,354.36,727.12,352.16z M728.4,439.8
			c-0.93-1.99-2.38-2.99-4.37-2.99c-1.14,0-2.2,0.3-3.19,0.86c-2.28,1.14-4.2,1.71-5.75,1.71c-3.55,0-5.86-2.35-6.93-7.03
			c-1.06-4.68-1.59-11.08-1.59-19.17v-28.36c-13.31,0.75-25.76,1.76-37.27,3.02v42.81c0,5.54,0.78,10.19,2.34,13.95
			c1.56,3.76,3.69,6.81,6.38,9.16c2.71,2.34,5.75,4.04,9.16,5.1c3.41,1.07,6.89,1.61,10.44,1.61c3.4,0,6.77-0.39,10.11-1.18
			c3.34-0.78,6.4-1.83,9.16-3.19c2.76-1.35,5.19-2.88,7.24-4.58c2.06-1.71,3.44-3.48,4.14-5.33
			C729.29,443.92,729.31,441.79,728.4,439.8z"/>
	</g>
	<path d="M958.61,381.62c-1.42-1.26-3.47-2.21-5.99-2.68c-5.2-1.1-13.23-2.05-23.94-2.52c-10.71-0.47-21.42-0.94-32.13-1.1
		c-10.71-0.16-18.74-0.16-24.26-0.16c-25.52-0.16-51.03-0.16-76.55,0.16c2.05-7.4,3.62-14.18,4.88-20.32
		c1.73-8.66,2.05-16.07,1.1-22.53c-0.95-4.88-2.84-7.56-5.83-8.35c-2.99-0.79-6.14,1.42-9.29,6.3c-3.94,7.56-6.93,18.43-8.82,32.45
		c-0.63,4.25-1.26,8.5-1.73,12.91c-21.11,0.47-44.26,0.95-69.31,1.58c-29.46,0.79-52.29,1.73-68.2,2.52
		c1.1-1.73,1.26-3.31,0.79-4.88c-0.63-1.57-1.73-2.68-3.15-3.46c-1.42-0.63-3.15-0.47-4.88,0.31c-5.67,2.68-10.87,6.14-15.59,10.4
		c-3.47,3.62-4.57,6.46-3.31,8.82c1.26,2.36,5.2,2.52,11.97,0.47c2.05-0.79,4.57-1.42,7.4-2.05c2.68-0.63,5.2-1.26,7.56-1.73
		c20.63-3.62,45.36-6.14,74.35-7.56c23.63-0.95,44.42-1.58,62.22-1.89c-0.94,9.61-1.73,19.37-2.21,29.61
		c-0.79,16.07-1.26,30.71-1.42,44.1c-2.68,17.33-4.73,33.71-6.14,48.99c-0.71,6.67-1.52,13.61-2.41,20.82
		c-11.86,18.71-30,45.34-54.13,45.34c-37.49,0-25.2-71.98-6.14-81.91c2.36-1.26,4.41-1.73,6.3-1.73c9.92,0,11.34,15.75,2.21,23.78
		c-1.58,1.26-3.31,2.21-4.57,1.89c-5.36-0.95-9.45,4.88-6.62,9.61c1.26,1.89,3.31,2.99,5.51,2.99c1.1,0,2.21-0.32,3.31-0.95
		c1.1-0.79,5.04-2.21,8.82-8.19c9.92-16.07,5.67-35.28-9.29-35.28c-2.52,0-5.35,0.63-8.35,1.73c-14.08,5.57-22.46,23.03-24.13,41.17
		c-12.24,24.57-28.9,49.72-59.51,49.72c-22.21,0-31.82-18.27-30.24-39.69c15.59,0,34.97-4.25,42.21-18.12
		c7.72-14.49-3.15-24.1-16.85-24.1c-13.23,0-29,8.81-34.03,30.56c-23.62,6.14-32.92,9.92-65.68,21.42
		c0.31-11.66,0.31-8.98,0.47-17.33c12.44-22.53,30.56-92.15,20.32-119.71c-4.25-10.71-13.7-12.76-17.96,1.1
		c-7.25,23.47-10.08,85.85-10.71,110.73c-1.26,2.05-1.42,2.21-1.73,2.68c-0.99,2.12-0.45,4.62,1.04,6.25
		c-1.98,6.99-4.81,14.77-8.33,22.51c-4.89,1.86-9.76,3.75-14.61,5.73c-1.89,0.79-3.31,2.36-3.47,4.41
		c-0.31,2.99,1.73,5.83,4.73,6.14l1.26,0.16c1.17-0.05,2.32-0.05,3.47-0.02c-3.81,6.26-8.04,12.06-12.61,16.87
		c-10.87,11.34-27.88,17.64-31.03,2.36c-2.05-10.55,2.36-25.83,5.51-41.9c2.05-10.87-2.21-14.96-11.03-18.59
		c-4.25-1.73-7.4-2.68-11.97-4.57c16.54-28.67,0.63-46.47-15.59-28.98c-8.34,9.6-8.03,24.53,7.65,34.3
		C405.8,546.17,389.22,570,359.42,570c-22.21,0-31.82-18.27-30.24-39.69c15.59,0,34.97-4.25,42.21-18.12
		c7.72-14.49-3.15-24.1-16.85-24.1c-12.75,0-27.86,8.18-33.44,28.26c-15,3.91-34.08,9.03-48.31,15.06
		c-0.94-20.16-8.82-44.42-28.51-44.89c-24.26-0.95-38.43,47.25-45.05,71.2c0.16-33.55,0.47-53.56,4.1-76.24
		c0.79-4.09-2.52-6.62-5.67-6.62c-2.52,0-5.04,1.42-5.51,4.73c-4.25,24.41-2.36,67.73-1.26,93.41c-3.31,1.73-4.1,5.99-1.73,8.82
		c1.58,2.05,0.16,14.02-0.16,16.7c-3.47,26.78-13.39,61.75-13.7,78.13c0,7.25,2.99,10.55,6.46,10.55c3.47,0,7.4-2.99,9.92-8.5
		c7.09-15.75,6.93-55.13,7.25-80.49c0.94-5.36,2.21-12.92,1.26-18.27c3.31-24.41,18.11-86,41.9-86c17.64,0,20.79,29.14,21.11,41.9
		c-5.67,2.84-10.87,6.14-15.91,10.08c-33.08,25.99-24.1,53.08-7.4,53.08c4.57,0,9.61-1.89,14.65-6.46
		c13.55-12.6,18.59-38.28,18.43-57.18c17.38-7.7,39.01-12.6,47.09-14.42c-0.57,3-0.95,6.22-1.09,9.7
		c-0.79,23.78,11.34,45.84,36.7,45.84c31.93,0,51.68-27.16,67.04-51.71c4.33,2.15,9.13,4.27,11.4,5.4c5.36,2.36,6.14,2.99,5.04,8.03
		c-2.68,13.07-5.2,32.76-1.1,45.21c5.83,17.96,24.73,13.86,39.06-1.1c5.04-5.32,9.82-11.99,14.2-19.25
		c4.71,0.56,9.22,1.87,13.52,4.12c0.94,23.94,2.68,80.96,6.3,104.43c4.1,25.52,15.59,22.37,23.63,3.62
		c13.39-31.66,10.55-93.56-22.68-115.3c0.16-4.25,0.16-8.35,0.32-12.44c21.51-10.68,34.52-19.07,64.99-24.44
		c-0.37,2.39-0.62,4.92-0.73,7.59c-0.79,23.78,11.34,45.84,36.7,45.84c29.26,0,48.29-22.81,63.09-45.52
		c1.21,21.75,12.55,41.28,35.83,38.74c21.02-2.52,35.43-20.76,50.56-40.17c-0.01,2.14,0.92,3.86,2.68,4.88
		c1.89,1.26,3.94,1.26,5.99,0.16c0,23,0,42.06,0.16,57.34c0,15.28,0.16,27.56,0.47,36.86c0.16,9.29,0.63,16.22,1.1,20.95
		c0.47,4.88,1.1,8.19,1.89,10.24c0.79,2.05,1.57,3.46,2.68,4.25c1.57,1.1,3.15,1.26,4.88,0.79c1.73-0.47,2.84-1.42,3.62-2.99
		c0.79-1.57,0.32-3.62-1.26-5.98c-0.94-1.26-1.89-2.99-2.68-5.04c-4.57-13.55-7.09-33.87-7.72-60.96
		c-0.63-27.09-0.32-54.34,0.94-81.75c1.26-27.41,2.36-48.36,3.47-62.69c4.57-23.63,9.29-43.63,14.02-60.17
		c0.63-2.36,1.42-4.88,1.89-7.09c25.83-0.16,51.51,0.32,77.18,1.1c5.51,0.16,13.55,0.63,23.94,1.1c10.4,0.63,20.79,1.42,31.03,2.36
		c10.24,1.1,18.11,2.36,23.47,3.94c0.47,0.16,0.95,0.32,1.26,0.47c0.16,0.16,0.31,0.47,0.47,0.63c0.16,0.32,0.47,0.63,0.79,0.79
		c0.16,0.32,0.63,0.63,1.26,0.79c1.1,0.31,2.21,0.16,3.31-0.32c0.94-0.47,1.58-1.26,2.05-2.36
		C960.34,384.61,960.03,382.88,958.61,381.62z M611.92,499.12c5.83,0,9.61,3.15,7.09,7.72c-4.88,8.82-19.85,11.5-29.93,12.13
		C593.8,504.48,604.52,499.12,611.92,499.12z M522.45,406.35c1.1-3.94,1.89-6.46,4.1-0.79c8.35,20.79-2.68,70.25-12.76,92.78
		C514.57,478.02,516.78,425.88,522.45,406.35z M354.22,499.12c5.83,0,9.61,3.15,7.09,7.72c-4.88,8.82-19.85,11.5-29.93,12.13
		C336.11,504.48,346.82,499.12,354.22,499.12z M186.31,676.17c-0.63,1.42-2.52,5.04-3.78,5.04c-0.79,0-1.26-1.26-1.1-4.41
		c0.63-11.97,7.72-37.96,10.87-50.4C192.3,639.31,191.82,664.51,186.31,676.17z M249.32,587.17c-3.62,3.78-7.09,5.35-10.24,5.35
		c-11.18,0-15.75-22.21,10.71-43.47c4.1-3.31,8.66-6.3,13.39-8.98C262.86,554.88,259.4,576.62,249.32,587.17z M413.92,490.93
		c13.07-16.22,22.21,5.04,5.67,23.16C409.67,508.26,408.25,498.49,413.92,490.93z M504.35,537.43c0,1.87-0.01,3.74-0.01,5.64
		c-1.02,0.37-2.03,0.76-3.05,1.14C502.35,541.94,503.38,539.68,504.35,537.43z M499.61,554.1c1.58-0.95,3.15-1.73,4.73-2.68
		c0,1.58,0.16,2.99,0.16,4.41C503.23,555.35,502.29,554.88,499.61,554.1z M529.7,673.18c-7.72,18.9-11.18,12.6-13.86-2.36
		c-3.31-20-5.83-54.34-4.25-99.39C537.1,591.58,540.88,644.98,529.7,673.18z M783.45,396.11c-0.47,1.89-0.79,3.47-1.1,4.88
		c0.16-1.1,0.16-2.21,0.16-3.31c0.32-5.98,0.94-12.44,1.73-19.37h3.31C786.13,384.92,784.72,390.91,783.45,396.11z M790.7,363.5
		c-0.94,4.25-1.73,8.19-2.52,11.97h-3.62c0.32-3.47,0.79-7.09,1.42-11.03c1.58-12.44,4.25-22.37,7.88-29.77
		C794.32,341.14,793.22,350.74,790.7,363.5z"/>
	<path d="M840.45,472.55c-1.17,0-2.45-0.73-3.33-1.91c-6.29-8.41-11.54-17.05-15.62-25.7c-5.58-11.83-9.94-24.78,0.04-31.17
		c2.28-1.46,4.65-2.2,7.03-2.2c7.19,0,12.89,6.53,15.58,12.13c2.25,4.68,3.52,9.86,3.88,15.84l0.19,3.19l1.72-2.7
		c0.84-1.31,1.59-2.44,2.3-3.48c5.45-7.89,12.13-15.95,20.27-15.95c0.64,0,1.29,0.05,1.94,0.15c3.62,0.58,6.27,2.37,7.66,5.18
		c1.6,3.25,1.3,7.51-0.81,11.4c-4.77,8.79-13.66,15.74-21.51,21.88l-0.46,0.36c-6.23,4.87-11.88,8.95-17.29,12.48
		C841.55,472.39,841.01,472.55,840.45,472.55L840.45,472.55z M824.54,420.72c-1.26,1.29-1.93,3.14-1.88,5.2
		c0.2,8.76,5.9,18.12,10.48,25.65l1.14,1.88c0.94,1.57,1.97,3.21,3.14,5.02l1.38,2.15l0.51-2.51c1.59-7.84,3.25-19.41-0.77-29.45
		c-1.36-3.4-3.01-5.99-4.9-7.71c-1.45-1.32-3.12-2.01-4.84-2.01C827.17,418.94,825.66,419.57,824.54,420.72z M856.32,443.41
		c-2.42,3.81-4.78,7.99-7.03,12.43l-2.03,4l3.58-2.7c2.22-1.67,4.03-3.08,5.71-4.43c3.83-3.09,8.79-7.23,13.17-11.93
		c0.16-0.17,0.36-0.38,0.59-0.62c3.66-3.81,6.9-7.7,5.88-10.4c-0.78-2.06-2.27-2.37-3.08-2.37
		C867.19,427.39,856.42,443.25,856.32,443.41z"/>
	<g>
		<path class="st0" d="M104.32,530.39c-19.31,2.73-21.98,5.41-24.72,24.72c-0.04,0.25-0.4,0.25-0.43,0
			c-2.73-19.3-5.41-21.98-24.72-24.72c-0.25-0.04-0.25-0.4,0-0.43c19.31-2.73,21.98-5.41,24.72-24.72c0.04-0.25,0.4-0.25,0.43,0
			c2.73,19.3,5.41,21.98,24.72,24.72C104.57,529.99,104.57,530.36,104.32,530.39z"/>
		<path class="st0" d="M148.24,571.49c-15.44,2.22-17.74,4.52-19.96,19.96c-0.04,0.28-0.45,0.28-0.49,0
			c-2.22-15.44-4.52-17.74-19.96-19.96c-0.28-0.04-0.28-0.45,0-0.49c15.44-2.22,17.74-4.52,19.96-19.96c0.04-0.28,0.45-0.28,0.49,0
			c2.22,15.44,4.52,17.74,19.96,19.96C148.52,571.04,148.52,571.45,148.24,571.49z"/>
		<path class="st0" d="M148.35,509.88c-7.18,1.03-8.26,2.11-9.29,9.29c-0.02,0.13-0.21,0.13-0.23,0c-1.03-7.18-2.11-8.26-9.29-9.29
			c-0.13-0.02-0.13-0.21,0-0.23c7.18-1.03,8.26-2.11,9.29-9.29c0.02-0.13,0.21-0.13,0.23,0c1.03,7.18,2.11,8.26,9.29,9.29
			C148.48,509.67,148.48,509.86,148.35,509.88z"/>
	</g>
</g>
</svg>


