<?xml version="1.0" encoding="utf-8"?>
<!-- Generator: Adobe Illustrator 26.0.1, SVG Export Plug-In . SVG Version: 6.00 Build 0)  -->
<svg version="1.1" xmlns="http://www.w3.org/2000/svg" xmlns:xlink="http://www.w3.org/1999/xlink" x="0px" y="0px"
	 viewBox="0 0 1008 890.31" style="enable-background:new 0 0 1008 890.31;" xml:space="preserve" width="500" height="500">
<g>
	<g>
		<path d="M7.56,15.83h46.43c15.85,0,27.41,2.91,34.68,8.74c7.27,5.83,10.91,14.79,10.91,26.88v6.19c0,7.96-1.63,14.45-4.9,19.47
			c-3.26,5.01-8.25,8.63-14.96,10.84v0.44c15.29,4.13,22.94,14.9,22.94,32.3v13.27c0,11.95-3.96,21.05-11.89,27.32
			c-7.93,6.27-19.54,9.4-34.82,9.4H7.56V15.83z M50.36,78.87c6.15,0,10.77-1.25,13.85-3.76c3.08-2.51,4.62-6.71,4.62-12.61v-8.63
			c0-5.6-1.26-9.66-3.78-12.17c-2.52-2.51-6.48-3.76-11.89-3.76H38.33v40.92H50.36z M55.95,148.56c5.41,0,9.41-1.14,12.03-3.43
			c2.61-2.28,3.92-6.23,3.92-11.83V119.8c0-7.08-1.54-11.98-4.62-14.71c-3.08-2.73-8.16-4.09-15.24-4.09H38.33v47.56H55.95z"/>
		<path d="M130.35,162.71c-8.02-6.78-12.03-16.37-12.03-28.76V52.55c0-12.39,4.01-21.97,12.03-28.76
			c8.02-6.78,19.58-10.18,34.68-10.18s26.66,3.39,34.68,10.18c8.02,6.79,12.03,16.37,12.03,28.76v81.41
			c0,12.39-4.01,21.98-12.03,28.76c-8.02,6.79-19.58,10.18-34.68,10.18S138.37,169.5,130.35,162.71z M180.98,135.5V51
			c0-10.18-5.31-15.26-15.94-15.26c-10.63,0-15.94,5.09-15.94,15.26v84.5c0,10.18,5.31,15.26,15.94,15.26
			C175.67,150.77,180.98,145.68,180.98,135.5z"/>
		<path d="M232.45,15.83h45.59c15.85,0,27.41,2.91,34.68,8.74c7.27,5.83,10.91,14.79,10.91,26.88v9.51
			c0,16.08-6.71,26.25-20.14,30.53v0.44c7.46,1.77,12.73,5.38,15.8,10.84c3.08,5.46,4.62,12.76,4.62,21.9v27.21
			c0,4.42,0.18,8,0.56,10.73c0.37,2.73,1.3,5.42,2.8,8.07h-31.33c-1.12-2.51-1.87-4.87-2.24-7.08c-0.38-2.21-0.56-6.19-0.56-11.95
			v-28.32c0-7.08-1.45-12.02-4.34-14.82c-2.89-2.8-7.88-4.2-14.96-4.2h-10.63v66.36h-30.77V15.83z M274.4,82.19
			c6.15,0,10.77-1.25,13.85-3.76c3.08-2.51,4.62-6.71,4.62-12.61V53.88c0-5.6-1.26-9.66-3.78-12.17c-2.52-2.51-6.48-3.76-11.89-3.76
			h-13.99v44.24H274.4z"/>
		<path d="M345.17,15.83h38.6l29.93,92.69h0.56V15.83h27.41v154.85h-31.61L373.14,57.64h-0.56v113.04h-27.41V15.83z"/>
		<path d="M533.41,37.95h-32.17V15.83h95.1v22.12h-32.17v132.73h-30.77V37.95z"/>
		<path d="M619.84,162.71c-8.02-6.78-12.03-16.37-12.03-28.76V52.55c0-12.39,4.01-21.97,12.03-28.76
			c8.01-6.78,19.58-10.18,34.68-10.18c15.11,0,26.67,3.39,34.68,10.18c8.01,6.79,12.03,16.37,12.03,28.76v81.41
			c0,12.39-4.01,21.98-12.03,28.76c-8.02,6.79-19.58,10.18-34.68,10.18C639.42,172.89,627.86,169.5,619.84,162.71z M670.47,135.5V51
			c0-10.18-5.31-15.26-15.94-15.26c-10.63,0-15.94,5.09-15.94,15.26v84.5c0,10.18,5.31,15.26,15.94,15.26
			C665.15,150.77,670.47,145.68,670.47,135.5z"/>
	</g>
	<g>
		<path d="M194.03,324.67c0,7.26,0,14.83-0.63,22.4c-0.63,5.36-1.89,10.41-4.1,15.14c-2.52,5.99-5.99,10.1-9.47,13.25
			c-12.94,13.25-36.6,31.55-71.94,31.55c-60.89,0-96.23-36.6-100.01-100.65c-0.32-3.16-0.32-6.31-0.32-9.47
			c0-58.05,33.76-92.76,77.3-99.7c8.83-1.26,17.35-1.89,24.93-1.89c29.66,0,49.22,9.15,60.89,17.04c2.84,1.89,4.1,4.73,4.1,7.57
			c0,1.26-0.32,2.52-0.63,3.47l-11.67,30.92c-1.26,3.47-5.05,5.68-8.83,5.68c-1.58,0-2.84-0.32-4.42-0.95
			c-7.89-4.42-20.51-10.1-35.65-10.1c-4.73,0-9.78,0.63-14.83,1.89c-30.6,7.57-37.23,37.86-37.23,53.32c0,1.58,0.32,3.16,0.32,4.42
			c1.89,21.14,10.41,46.06,41.65,46.06c1.89,0,3.79,0,5.99-0.32c13.88-1.58,24.29-5.68,31.23-10.73c3.47-2.21,5.36-5.99,5.36-10.1
			v-9.15c0-2.84-2.21-5.36-5.05-5.36c-3.79-0.32-8.83-0.32-13.88-0.32c-10.1,0-20.51,0.32-20.51,0.32c-4.1,0-7.57-3.47-7.57-7.57
			l1.26-26.82c0-3.16,2.21-5.99,5.05-6.94c0-0.95,17.04-1.89,36.28-1.89c13.57,0,28.4,0.32,38.49,1.58c0.63,0,1.58,0.32,2.52,0.32
			c5.05,1.26,10.1,4.42,10.1,11.04C192.76,288.7,194.03,305.11,194.03,324.67z"/>
		<path d="M387.43,289.33c0,3.47,0,7.26-0.32,11.04c-4.1,80.14-54.58,106.32-86.13,106.32c-25.24,0-86.45-9.78-88.34-109.16v-3.79
			c0-99.7,88.97-100.01,88.97-100.01C361.56,193.74,387.43,232.23,387.43,289.33z M335.05,294.07c0-42.28-27.76-44.49-33.76-44.49
			h-1.26c0,0-32.81,3.15-32.81,44.49v0.63c0,42.91,14.51,59.95,35.34,59.95C305.08,354.64,335.05,353.38,335.05,294.07z"/>
		<path d="M529.4,404.18c-17.98,0.63-62.47,2.52-97.49,2.52h-7.26c-5.36,0-9.78-4.42-10.1-10.1c0,0-4.73-88.97-4.73-152.7
			c0-14.51,0.32-27.76,0.95-38.18c0-5.68,4.1-10.1,9.78-10.41c7.89-0.32,22.72-0.63,36.6-0.95c6.63,0,11.04,5.05,11.04,11.67
			c0,0-1.26,123.99-1.26,124.31l-0.32,16.41v0.63c0,4.1,3.47,7.26,7.57,7.26c0,0,12.3,0.95,28.4,0.95c8.2,0,17.35-0.32,26.19-0.95
			c4.42,0,8.2,3.79,8.2,8.52l0.32,32.5C537.29,400.08,533.82,403.86,529.4,404.18z"/>
		<path d="M675.16,246.11c-8.83-0.63-17.67-0.95-25.87-0.95c-16.09,0-28.4,0.95-28.4,0.95c-4.1,0-7.57,3.47-7.57,7.26V254
			l0.31,16.41c0,4.1,3.47,7.57,7.89,7.57l43.54,0.32c5.05,0,9.47,4.1,9.47,9.15v0.63l-0.63,31.23c-0.32,5.05-4.1,9.15-9.15,9.15
			h-41.96c-5.05,0-8.83,4.1-9.15,9.15v57.11c0,6.63-5.68,11.99-12.3,11.99c-13.88-0.32-26.19-0.95-34.39-1.26
			c-5.36-0.32-9.47-4.73-9.47-10.1c-0.63-10.73-0.95-23.66-0.95-38.18c0-64.05,4.73-153.02,4.73-153.02c0-5.36,4.42-9.78,10.1-9.78
			h8.2c34.71,0,78.56,1.58,96.54,2.52c4.42,0,7.89,3.79,7.89,8.52l-0.31,32.5C683.68,242.32,679.89,246.11,675.16,246.11z"/>
	</g>
	<g>
		<g>
			<path d="M7.56,428.95h91.87v24.97H42.29v48.69h44.83v24.97H42.29v76.15H7.56V428.95z"/>
			<path d="M127.21,594.74c-9.05-7.65-13.58-18.48-13.58-32.46V470.4c0-13.98,4.52-24.8,13.58-32.46
				c9.05-7.65,22.1-11.49,39.15-11.49c17.05,0,30.1,3.83,39.15,11.49c9.05,7.66,13.58,18.48,13.58,32.46v91.88
				c0,13.98-4.53,24.8-13.58,32.46c-9.05,7.66-22.1,11.49-39.15,11.49C149.31,606.22,136.26,602.39,127.21,594.74z M184.36,564.03
				v-95.38c0-11.49-6-17.23-18-17.23c-12,0-18,5.74-18,17.23v95.38c0,11.49,6,17.23,18,17.23
				C178.36,581.25,184.36,575.51,184.36,564.03z"/>
			<path d="M242.44,428.95h51.46c17.89,0,30.94,3.29,39.15,9.86c8.21,6.58,12.31,16.69,12.31,30.34v10.74
				c0,18.14-7.58,29.63-22.73,34.46v0.5c8.42,2,14.37,6.08,17.84,12.23c3.47,6.16,5.21,14.4,5.21,24.72v30.71
				c0,4.99,0.21,9.03,0.63,12.11c0.42,3.08,1.47,6.12,3.16,9.11h-35.36c-1.26-2.83-2.11-5.49-2.53-7.99
				c-0.42-2.5-0.63-6.99-0.63-13.48v-31.96c0-7.99-1.63-13.56-4.89-16.73c-3.27-3.16-8.89-4.74-16.89-4.74h-12v74.9h-34.73V428.95z
				 M289.8,503.85c6.95,0,12.15-1.41,15.63-4.24c3.47-2.83,5.21-7.57,5.21-14.23v-13.48c0-6.32-1.42-10.9-4.26-13.73
				c-2.84-2.83-7.32-4.24-13.42-4.24h-15.79v49.94H289.8z"/>
			<path d="M380.56,594.99c-8.74-7.49-13.1-18.06-13.1-31.71V469.4c0-13.65,4.37-24.22,13.1-31.71
				c8.73-7.49,21.41-11.24,38.04-11.24c16.62,0,29.31,3.75,38.04,11.24c8.73,7.49,13.1,18.06,13.1,31.71v18.48h-32.83v-20.22
				c0-10.82-5.79-16.23-17.36-16.23c-11.58,0-17.36,5.41-17.36,16.23v97.62c0,10.65,5.79,15.98,17.36,15.98
				c11.57,0,17.36-5.33,17.36-15.98v-26.72h32.83v24.72c0,13.65-4.37,24.22-13.1,31.71c-8.74,7.49-21.42,11.24-38.04,11.24
				C401.98,606.22,389.29,602.48,380.56,594.99z"/>
			<path d="M490.58,428.95h94.71v24.97h-59.98v46.19h47.67v24.97h-47.67v53.68h59.98v24.97h-94.71V428.95z"/>
			<path d="M605.18,428.95h53.04c17.26,0,30.2,3.66,38.83,10.99C705.68,447.26,710,458,710,472.14v88.39
				c0,14.15-4.32,24.89-12.94,32.21c-8.63,7.33-21.58,10.99-38.83,10.99h-53.04V428.95z M657.59,578.76c5.68,0,10.05-1.33,13.1-3.99
				c3.05-2.66,4.58-6.99,4.58-12.98V470.9c0-5.99-1.53-10.32-4.58-12.98c-3.05-2.66-7.42-3.99-13.1-3.99h-17.68v124.84H657.59z"/>
			<path d="M811.02,453.92h-36.31v-24.97h107.34v24.97h-36.31v149.81h-34.73V453.92z"/>
			<path d="M908.57,594.74c-9.05-7.65-13.58-18.48-13.58-32.46V470.4c0-13.98,4.52-24.8,13.58-32.46
				c9.05-7.65,22.1-11.49,39.15-11.49c17.05,0,30.1,3.83,39.15,11.49c9.05,7.66,13.57,18.48,13.57,32.46v91.88
				c0,13.98-4.53,24.8-13.57,32.46c-9.05,7.66-22.1,11.49-39.15,11.49C930.67,606.22,917.62,602.39,908.57,594.74z M965.71,564.03
				v-95.38c0-11.49-6-17.23-18-17.23c-12,0-17.99,5.74-17.99,17.23v95.38c0,11.49,6,17.23,17.99,17.23
				C959.71,581.25,965.71,575.51,965.71,564.03z"/>
		</g>
	</g>
	<g>
		<path d="M322.21,628.56v0.75c-2.24,27.28-10.09,160.31-47.09,228.7c-4.11,7.85-11.96,13.08-20.93,13.45
			c-8.6,0.75-17.19,1.12-26.91,1.12c-5.23,0-11.21,0-17.56-0.37c-8.6-0.75-16.44-5.6-20.55-13.08
			c-2.99-5.61-13.83-25.79-19.06-44.84c-0.37-1.49-1.49-1.87-2.62-1.87c-1.12,0-2.24,0.37-2.62,1.87
			c-4.86,17.56-14.2,37.37-17.56,43.72c-4.11,7.85-11.96,13.08-20.93,13.45c-8.59,0.75-17.19,1.12-27.28,1.12
			c-5.23,0-11.21,0-17.56-0.37c-8.59-0.75-16.44-5.6-20.55-13.08C44.93,829.98,12.79,747.39,7.56,630.8c0-3.74,2.62-6.73,6.35-7.1
			c5.98-0.75,16.07-1.87,27.28-1.87c7.47,0,15.32,0.37,22.8,1.5c2.99,0.75,5.61,3.36,5.98,6.35c2.62,24.29,7.1,126.68,35.5,174.14
			c0.75,1.49,2.62,2.24,3.74,2.24c1.87,0,2.99-0.75,3.74-2.62c13.08-35.88,15.7-75.11,15.7-105.75c0-19.06-1.12-35.13-1.49-44.47
			c0-3.74,0.37-9.34,6.35-10.84c4.48-1.12,18.68-1.87,32.88-1.87c10.84,0,22.42,0.37,29.9,1.49c4.86,0.75,5.98,5.61,5.98,9.34
			c0,2.24-0.37,3.74-0.37,4.86c-0.37,2.99-0.75,12.33-0.75,25.04c0,31.02,3.36,82.59,23.92,122.94c0.75,1.49,1.87,1.87,2.99,1.87
			c1.87,0,3.36-1.12,4.11-2.62c7.85-20.93,23.17-85.95,26.16-174.51c0-2.62,1.87-4.86,4.48-5.23c5.23-1.12,14.95-2.62,26.91-2.62
			c8.22,0,17.94,0.75,28.03,2.62C319.97,624.07,322.21,626.32,322.21,628.56z"/>
		<path d="M543.8,732.45c0,4.11,0,8.6-0.37,13.08c-4.86,94.92-64.65,125.93-102.02,125.93c-29.9,0-102.39-11.59-104.63-129.3v-4.48
			c0-118.09,105.38-118.46,105.38-118.46C513.16,619.22,543.8,664.81,543.8,732.45z M481.77,738.05c0-50.08-32.88-52.69-39.98-52.69
			h-1.5c0,0-38.86,3.74-38.86,52.69v0.75c0,50.82,17.19,71,41.85,71C446.27,809.8,481.77,808.31,481.77,738.05z"/>
		<path d="M765.02,865.85v0.75c0,3.74-3.36,6.73-7.1,7.1c-8.22,0.75-16.07,0.75-23.54,0.75c-5.98,0-11.21,0-16.07-0.37
			c-9.34-0.37-17.56-6.35-20.93-14.95l-38.86-68.39c-1.12-1.87-2.62-2.62-4.48-2.62c-2.24,0-4.86,1.49-5.23,4.48v1.87l3.36,70.25
			c0,4.86-3.74,8.97-8.22,9.72c-9.72,1.49-18.31,2.24-26.16,2.24c-10.09,0-18.68-1.12-24.29-1.87c-4.86-0.75-8.22-5.23-8.22-10.09
			l2.24-173.39v-0.75c0-4.11-4.11-7.47-8.22-7.47l-14.95,0.75h-0.75c-3.74,0-6.35-2.99-6.73-6.35l-2.62-43.72v-0.75
			c0-3.36,2.99-6.35,6.35-6.73c14.2-0.75,47.08-2.99,78.1-2.99c20.93,0,40.73,0.75,53.81,3.74c35.5,7.47,69.88,22.05,69.88,72.5
			c0,2.62,0,5.61-0.37,8.6c-2.24,32.51-25.04,51.2-49.7,61.66c-2.62,1.12-3.74,3.74-3.74,5.98c0,1.12,0.37,2.24,1.12,3.36
			l21.3,27.65c2.99,4.11,7.85,6.73,13.08,6.73h11.21c4.11,0,7.47,2.99,7.47,7.1L765.02,865.85z M645.07,727.21
			c0.37,4.86,4.11,8.6,8.97,8.6c0.75,0,1.49,0,2.24-0.37c12.33-3.36,36.25-7.1,36.25-28.77c0-24.66-25.04-23.54-38.86-24.66h-0.75
			c-4.86,0-8.97,4.48-8.97,9.34L645.07,727.21z"/>
		<path d="M799.39,622.21c10.46-1.5,20.18-2.24,28.4-2.24c10.84,0,19.06,1.12,24.66,1.87c4.11,0.75,6.73,4.48,6.73,8.6l-2.24,72.5
			c0,1.49,1.12,2.62,2.62,2.62c0.37,0,1.12-0.37,1.49-0.75l74.74-78.85c1.87-1.87,4.48-2.99,7.1-2.99c1.87,0,4.11,0.75,5.61,1.87
			c17.19,12.71,27.28,25.78,32.14,33.63c1.12,1.87,1.87,3.74,1.87,5.61c0,2.99-1.5,5.6-3.74,7.47
			c-16.82,14.2-55.68,42.97-71.38,54.19c-1.87,1.49-2.99,4.11-2.99,6.35c0,1.87,0.37,3.36,1.49,4.86l42.6,54.93
			c5.6,6.73,14.2,14.57,22.8,14.57h0.75c7.1,0,6.35,0,11.96-0.37h0.75c6.73,0,13.08,5.6,13.83,12.33
			c1.12,13.08,1.5,25.41,1.87,37.74v0.75c0,7.1-5.98,13.08-13.08,13.45c-8.6,0.37-15.32,0.75-22.05,0.75
			c-4.86,0-9.34-0.37-14.57-0.37c-16.82-0.37-32.51-9.72-41.11-24.66l-42.6-72.87c-0.75-1.12-1.49-1.5-2.62-1.5
			s-2.24,0.75-2.24,2.24v0.37c0.37,20.93,3.74,65.02,4.48,84.83c0,5.98-4.48,11.21-10.46,11.96c-8.97,1.12-17.56,1.5-25.41,1.5
			c-10.09,0-18.68-0.75-24.66-1.5c-5.61-0.75-9.72-5.6-10.09-11.21c-2.24-57.92-2.99-197.31-3.36-229.82
			C792.66,626.32,795.65,622.95,799.39,622.21z"/>
	</g>
	<g>
		<path d="M848.75,13.62c70.15,0.38,122.59,57.85,122.12,122.6C970.37,203.99,916,258.2,847.61,257.9
			c-68.2-0.3-121.83-56.94-121.14-123.5C727.15,68.15,781.96,13.54,848.75,13.62z M868.67,114.22c4.18,1.13,6.93-1.11,8.63-5.23
			c0.39-0.95,1.02-1.79,1.51-2.71c2.24-4.21-3.22-14.05-8.04-14.36c-2.63-0.17-5.29-0.19-7.92,0.02c-0.97,0.08-2.18,0.78-2.74,1.58
			c-1.63,2.35-3.04,4.87-4.43,7.37c-0.36,0.66-0.74,1.73-0.46,2.25c1.87,3.4,3.81,6.78,5.99,9.98c0.51,0.74,2.05,0.9,3.16,1.06
			C865.62,114.35,866.91,114.22,868.67,114.22z M890.67,128.32c1.66,0,2.59-0.08,3.5,0.01c2.91,0.3,4.61-0.98,5.96-3.57
			c4.18-8.03,4.16-9.54-1.33-16.71c-1.99-2.6-11.82-3.35-14.14-1.06c-0.32,0.32-0.58,0.72-0.8,1.11c-1.26,2.19-2.71,4.3-3.66,6.62
			c-0.51,1.24-0.38,2.89-0.07,4.25c0.29,1.3,1.28,2.43,1.79,3.7C883.65,127.01,886.29,129.73,890.67,128.32z M891.25,101.14
			c1.03,0,2.07-0.04,3.1,0.01c2.45,0.11,4.17-0.86,5.21-3.15c0.71-1.57,1.61-3.05,2.45-4.55c0.99-1.78,0.91-3.5-0.14-5.22
			c-5.98-9.79-4-8.63-14.94-8.91c-0.11,0-0.23-0.01-0.34,0c-3.22,0.1-8.79,8.41-7.67,11.45c0.12,0.32,0.32,0.61,0.49,0.91
			c1.29,2.31,2.37,4.78,3.96,6.85c0.93,1.2,2.61,2,4.12,2.53C888.61,101.45,889.98,101.13,891.25,101.14z M843.29,127.48
			c4.01,0.55,6.89-0.38,8.96-4.48c3.82-7.56,4.05-5.17-0.37-13.24c-1.44-2.62-3.26-3.76-6.33-3.66c-10.53,0.33-7.49-1.45-13.12,7.86
			c-1.94,3.21,2.38,12.59,6.04,13.43c0.55,0.13,1.14,0.08,1.72,0.09C841.22,127.49,842.25,127.48,843.29,127.48z M867.79,141.48
			c0.69,0,1.4-0.09,2.07,0.01c3.22,0.48,5.08-1.03,6.55-3.81c4.5-8.49,4.18-6.12,0.02-13.62c-0.22-0.4-0.42-0.82-0.65-1.22
			c-1.86-3.09-12.24-4.21-14.72-1.6c-0.16,0.17-0.28,0.36-0.42,0.55c-5.56,7.38-5.62,9.14-0.61,16.9c0.06,0.1,0.14,0.19,0.19,0.29
			c0.9,1.89,2.38,2.69,4.47,2.5C865.71,141.4,866.76,141.48,867.79,141.48z M867.17,86.73C867.17,86.73,867.17,86.74,867.17,86.73
			c0.92,0.01,1.84-0.06,2.76,0.02c2.86,0.26,4.7-0.96,6.12-3.46c4.17-7.31,4.07-6.02-0.47-12.71c-0.39-0.57-0.71-1.22-1.2-1.67
			c-0.66-0.6-1.43-1.43-2.2-1.48c-3.54-0.24-7.09-0.32-10.64-0.28c-0.65,0.01-1.41,0.72-1.93,1.28c-5.15,5.66-5.3,7.09-1.59,13.72
			c0.34,0.6,0.7,1.19,1,1.81c0.95,1.98,2.5,2.9,4.7,2.78C864.87,86.68,866.03,86.73,867.17,86.73z M891,155.28
			c1.29,0,2.1-0.07,2.9,0.01c2.63,0.28,4.26-0.85,5.51-3.17c4.86-9.06,4.75-6.11,0.05-14.78c-0.33-0.61-0.65-1.24-1.09-1.75
			c-0.44-0.5-1.03-1.22-1.58-1.24c-3.21-0.15-6.56-0.67-9.58,0.08c-1.65,0.41-2.77,3.06-4.07,4.74c-2.85,3.69-2.86,7.14-0.28,11.29
			C885.05,153.97,887.03,156.47,891,155.28z M843.11,99.3c0-0.02,0-0.03,0-0.05c1.5,0,3.03,0.19,4.48-0.06
			c1.02-0.18,2.25-0.73,2.84-1.52c1.5-2.03,2.85-4.21,3.92-6.49c0.47-1,0.45-2.52,0.06-3.59c-2.44-6.72-4.76-8.25-11.91-8.27
			c-0.58,0-1.16,0.04-1.73-0.01c-2.31-0.23-3.88,0.67-5.11,2.7c-5.41,8.97-5.1,5.7-0.35,14.55c1.04,1.95,2.45,2.94,4.69,2.76
			C841.03,99.23,842.07,99.3,843.11,99.3z M842.39,155.53c0.02-0.13,0.05-0.25,0.07-0.38c1.26,0,2.61,0.28,3.77-0.07
			c1.45-0.43,3.18-1.04,4.05-2.15c5.07-6.48,5.05-7.69,0.85-14.67c-0.12-0.2-0.27-0.38-0.36-0.59c-0.93-2.19-2.6-2.86-4.94-2.9
			c-8.92-0.17-9.5,0.11-13.18,8.25c-0.36,0.8-0.82,1.95-0.51,2.6c1.41,2.98,2.74,6.13,4.82,8.62
			C837.91,155.39,840.53,155.14,842.39,155.53z M867.85,148.23c-2.4,0.55-5.01,0.35-5.92,1.51c-2.17,2.74-4.73,6.06-4.87,9.24
			c-0.12,2.85,2.56,6,4.5,8.65c0.72,0.98,2.88,1.31,4.35,1.24c2.68-0.13,6.12,0.09,7.82-1.42c2.32-2.06,4.54-5.63,4.53-8.54
			c-0.01-2.9-2.43-6.15-4.56-8.56C872.43,148.92,869.66,148.83,867.85,148.23z M819.03,120.46c-2.1,0.46-4.96,0.23-6.07,1.51
			c-2.18,2.53-4.6,5.88-4.66,8.94c-0.06,2.9,2.45,6.1,4.43,8.7c1.83,2.42,4.97,1.03,7.52,1.16c1.51,0.08,3.78,0,4.46-0.92
			c2.02-2.74,4.67-5.91,4.71-8.95c0.03-3.02-2.43-6.37-4.55-8.97C823.87,120.71,821.12,120.93,819.03,120.46z M916.26,115
			c0.12,0.17,0.23,0.34,0.35,0.51c1.13-0.77,2.67-1.29,3.33-2.36c2.81-4.52,4.88-9.21,0.86-14.22c-0.57-0.71-0.94-1.58-1.33-2.41
			c-0.84-1.76-2.26-2.49-4.14-2.58c-8.49-0.39-6.88-2.52-11.44,6.28c-0.26,0.51-0.72,1-0.77,1.53c-0.11,1.11-0.37,2.41,0.07,3.33
			c2.57,5.38,5,11.1,12.73,9.88C916.02,114.95,916.14,114.99,916.26,115z M819.17,92.85c-2.18,0.54-4.74,0.4-5.67,1.57
			c-2.08,2.63-4.1,5.74-4.76,8.94c-0.8,3.87,4.83,9.83,8.31,9.52c2.76-0.25,6.18-0.22,8.04-1.8c2.27-1.92,4.42-5.42,4.39-8.2
			c-0.03-2.79-2.45-5.88-4.55-8.17C823.72,93.38,821.06,93.4,819.17,92.85z M890.96,181.92c1.76-0.48,4.36-0.45,5.69-1.73
			c1.99-1.92,3.24-4.7,4.5-7.26c0.42-0.86,0.18-2.28-0.22-3.26c-0.73-1.8-1.81-3.45-2.7-5.18c-0.77-1.5-1.96-2.05-3.64-2.03
			c-9.97,0.08-8.01-0.26-12.24,6.65c-0.42,0.69-0.89,1.36-1.18,2.1c-0.24,0.62-0.57,1.48-0.32,1.96c1.37,2.64,2.57,5.48,4.52,7.64
			C886.3,181.84,888.74,181.54,890.96,181.92z M913.88,121c-0.04-0.27-0.09-0.54-0.13-0.82c-2.02,0.83-4.75,1.1-5.92,2.6
			c-3.05,3.9-5,7.97-1.72,13.37c2.37,3.9,4.63,5.95,9.13,5.11c0.79-0.15,1.64-0.02,2.38-0.27c0.71-0.24,1.58-0.66,1.92-1.26
			c2.56-4.6,5.41-8.99,1.61-14.58C919.23,122.33,917.82,119.92,913.88,121z M877.99,64.67c4.46,8.93,5.34,9.52,14.84,10.11
			c0.46,0.03,0.99,0.21,1.36,0.05c1.09-0.47,2.47-0.82,3.11-1.68c4.13-5.55,4.08-6.48,0.12-12.05c-0.53-0.75-0.98-1.62-1.69-2.16
			c-0.96-0.74-2.06-1.55-3.2-1.75C883.53,55.59,882.18,56.31,877.99,64.67z M915.18,88.82c1.85,0.34,3.08-0.46,4.37-2.42
			c2.99-4.54,2.73-8.47-0.91-12.37c-0.62-0.66-0.97-1.58-1.61-2.22c-0.71-0.71-1.52-1.49-2.43-1.81c-6.89-2.44-9.93-1.05-12.61,5.72
			c-0.35,0.9-0.57,2.07-0.3,2.95C903.78,85.63,907.67,88.57,915.18,88.82z M818.33,168.2c4.76,0.67,7.57-1.5,9.28-5.63
			c0.22-0.53,0.76-0.99,0.8-1.51c0.1-1.4,0.36-2.94-0.11-4.17c-0.73-1.91-1.97-3.63-3.09-5.37c-0.41-0.64-1.07-1.51-1.69-1.57
			c-2.95-0.29-6.03-0.83-8.86-0.26c-1.44,0.29-2.6,2.64-3.6,4.24c-0.95,1.52-2.42,3.51-2.07,4.89c0.71,2.82,2.12,5.68,3.98,7.91
			C813.96,167.9,816.5,167.75,818.33,168.2z M842.27,181.94c3.13-0.48,5.81,0.55,7.71-2.03c4.3-5.84,4.4-6.59,0.71-12.82
			c-0.35-0.6-0.6-1.3-1.08-1.76c-0.64-0.6-1.4-1.24-2.21-1.43c-6.98-1.61-9.75-0.34-13.17,5.89c-0.33,0.61-0.76,1.18-0.97,1.83
			c-0.2,0.63-0.46,1.49-0.2,1.99c1.31,2.55,2.41,5.38,4.35,7.36C838.49,182.08,841.06,181.74,842.27,181.94z M843.24,72.9
			c1.03,0,2.07,0.02,3.1,0c2.94-0.06,8.35-5.39,8.37-8.3c0-0.53-0.27-1.1-0.53-1.59c-2.39-4.38-5.35-7.8-11.1-6.46
			c-0.66,0.15-1.37,0.04-2.06,0.08c-2.98,0.17-8.27,4.98-8.6,7.86c-0.05,0.42,0.11,0.9,0.27,1.32
			C834.73,71.17,837.39,72.96,843.24,72.9z M818.71,85.56c0-0.01,0-0.02,0-0.03c0.8,0,1.65,0.16,2.4-0.03
			c1.6-0.41,3.72-0.54,4.62-1.62c1.88-2.24,3.14-5.02,4.57-7.62c0.16-0.28-0.19-0.87-0.35-1.29c-2.07-5.38-3.99-6.69-9.64-6.6
			c-0.8,0.01-1.64-0.12-2.41,0.05c-1.2,0.26-2.59,0.41-3.49,1.12c-5.06,4.01-5.85,8.56-2.36,13.95c0.63,0.98,2.04,1.63,3.22,2.01
			C816.33,85.82,817.56,85.56,818.71,85.56z M795.6,135.2c-1.96,0.41-4.49,0.19-5.32,1.27c-1.77,2.3-3.67,5.29-3.63,7.96
			c0.05,2.82,1.78,6.12,3.8,8.2c1.31,1.35,4.47,1.08,6.81,1.22c3.01,0.17,8.28-5.74,7.52-9.07c-0.67-2.92-2.34-5.79-4.22-8.17
			C799.7,135.51,797.27,135.63,795.6,135.2z M867.2,177.37c-0.46,0-0.94-0.08-1.38,0.02c-1.38,0.31-3.36,0.24-4.01,1.12
			c-1.8,2.47-3.07,5.34-4.49,8.08c-0.1,0.2,0.22,0.62,0.35,0.94c2.45,6.1,4.24,7.28,10.84,7.1c0.35-0.01,0.69-0.01,1.04-0.04
			c2.74-0.2,8.02-6.29,7.81-9.01c-0.02-0.22-0.14-0.44-0.21-0.66C875.65,179.96,872.29,177.41,867.2,177.37z M914.06,148.43
			c-4.78,0.17-4.42,0.43-7.06,4.08c-3.26,4.49-2.57,8.33,0.27,12.54c1.93,2.86,9.27,3.82,11.13,0.86c2.55-4.06,5.69-8.11,2.24-13.56
			C918.23,148.53,918.64,148.27,914.06,148.43z M789.94,126.22c1.24,0,2.16,0,3.07,0c8.77-0.03,6.76,0.61,11.09-6.64
			c1.48-2.48-1.21-9.97-3.88-11.09c-0.41-0.17-0.9-0.21-1.35-0.25c-7.06-0.71-7.81-0.31-11.08,5.89c-0.27,0.51-0.71,0.99-0.78,1.53
			c-0.15,1.21-0.46,2.55-0.1,3.64C787.66,121.57,788.81,123.72,789.94,126.22z M866.86,61.56c-0.07,0,0.62,0.01,1.31,0
			c4.2-0.06,7.5-2.45,8.56-6.42c0.2-0.75-0.1-1.85-0.56-2.52c-2.46-3.6-5.11-6.96-10.29-5.89c-0.66,0.14-1.38-0.05-2.07-0.06
			c-3.15-0.07-7.66,3.54-8.17,6.56c-0.07,0.43-0.02,0.92,0.1,1.35c1.14,4.13,4.57,6.75,8.98,6.88
			C865.17,61.48,865.63,61.51,866.86,61.56z M795.05,99.2c5.71-0.19,8.56-2.31,10.32-7.69c1.12-3.41-1.26-8.69-4.27-9.49
			c-4.81-1.27-9.07,0.54-11.54,4.91c-0.34,0.6-0.69,1.19-1.01,1.8C786.15,93.36,789.89,99.37,795.05,99.2z M932.84,128.01
			c3.13,0.81,4.37-0.7,5.67-3.19c2.44-4.65,1.63-8.76-0.72-13.01c-1.31-2.37-6.89-4.32-9.19-2.98c-0.37,0.22-0.68,0.63-0.89,1.02
			c-2.34,4.36-4.96,8.71-1.1,13.58c0.14,0.18,0.23,0.4,0.3,0.61C927.9,127,929.63,128.83,932.84,128.01z M933.2,102.53
			c4.02,0.08,7.56-6.01,6.2-9.61c-0.81-2.14-1.85-4.21-2.91-6.24c-0.94-1.79-7.26-3.71-8.98-2.81c-0.29,0.15-0.52,0.44-0.74,0.7
			c-3.02,3.43-3.54,7.25-1.55,11.3c0.25,0.52,0.56,1.01,0.75,1.55C927.3,101.21,929.99,102.85,933.2,102.53z M889.55,205.32
			c3.87,0.9,6.3-1.59,8.14-5.13c0.37-0.71,0.96-1.31,1.28-2.04c0.25-0.59,0.44-1.33,0.33-1.93c-0.68-3.53-3.98-5.93-7.44-6.31
			c-4.45-0.48-7.57,0.84-9.28,5.1c-0.3,0.73-0.92,1.33-1.25,2.05c-0.28,0.6-0.56,1.32-0.48,1.94
			C881.39,202.98,884.94,205.7,889.55,205.32z M819.63,194c2.02-0.51,4.29-0.41,5.34-1.49c1.6-1.65,2.97-4.02,3.33-6.27
			c0.54-3.38-5.08-8.56-8.75-8.48c-1.88,0.04-4.38-0.09-5.46,1c-1.68,1.68-3.36,4.38-3.26,6.57c0.11,2.35,1.92,4.93,3.65,6.79
			C815.6,193.32,817.9,193.42,819.63,194z M795.59,163.28c-1.71,0.43-3.85,0.33-4.6,1.3c-1.49,1.94-2.85,4.39-3.11,6.76
			c-0.47,4.21,3.9,8.72,7.82,8.55c1.98-0.09,4.49-0.17,5.76-1.34c1.65-1.53,3.36-4.26,3.13-6.25c-0.31-2.64-2.15-5.35-3.98-7.47
			C799.63,163.71,797.3,163.76,795.59,163.28z M917.2,175.25c-2.54,0.33-5.92-0.16-7.95,1.27c-2.32,1.63-3.84,4.82-4.91,7.63
			c-0.5,1.32,0.66,3.46,1.48,5.02c0.63,1.21,1.95,2.99,2.87,2.94c2.74-0.16,5.94,0.85,8.17-1.55c4.24-4.55,4.56-7.84,1.6-13.3
			C918.19,176.76,917.86,176.3,917.2,175.25z M831.12,53.91c0.14-0.25,0.29-0.5,0.43-0.75c-1.75-1.87-3.16-4.63-5.31-5.44
			c-5.2-1.96-10.09,0.08-13.44,4.56c-0.81,1.08-2.08,2.15-0.94,3.64c1.52,1.98,1.68,5.18,5.12,5.48c7.61,0.65,9.39-0.16,13.66-6.57
			C830.83,54.54,830.96,54.21,831.12,53.91z M932.92,134.52c-3.61,0.37-3.75,0.45-5.2,3.46c-0.5,1.03-0.98,2.07-1.46,3.11
			c-1.33,2.93,0.22,9.76,2.67,11.65c0.34,0.26,0.82,0.39,1.25,0.48c4.32,0.86,6.39-0.2,8.15-4.17c0.47-1.05,0.93-2.1,1.3-3.18
			c1.24-3.61-0.95-6.49-2.42-9.34C936.64,135.42,934.4,135.17,932.92,134.52z M842.18,205.75c0.93,0,1.27,0,1.62,0
			c4.47,0,7.21-1.84,8.55-5.93c0.22-0.66,0.12-1.61-0.2-2.24c-1.93-3.79-4.11-7.29-9.34-6.08c-0.55,0.13-1.15,0.08-1.72,0.01
			c-1.93-0.23-3.31,0.42-4.19,2.22c-0.55,1.13-1.59,2.07-1.93,3.23c-0.35,1.19-0.54,2.76-0.04,3.79
			C836.45,203.93,838.28,207.04,842.18,205.75z M913.97,64.07c0.01,0.27,0.02,0.54,0.04,0.81c0.77-0.7,1.81-1.26,2.24-2.13
			c0.99-1.97,2.45-3.85,0.86-6.39c-2.65-4.25-5.52-7.85-11.21-7.71c-1.37,0.03-2.85-0.68-3.59,0.94c-0.95,2.07-3.38,3.78-1.86,6.54
			C903.32,61.35,906.87,65.51,913.97,64.07z M887.51,51.6c1.94,0,3.33,0.11,4.7-0.03c2.06-0.2,5.11-4.41,4.74-6.41
			c-0.3-1.62-5.04-6.35-6.75-6.48c-2.64-0.2-5.3-0.37-7.93-0.23c-2.63,0.14-5.81,4.98-4.52,6.82
			C880.24,48.83,882.47,53.04,887.51,51.6z M795.32,74.22c5.45,0.03,9.25-2.53,11.43-7.71c1-2.37-1.96-7.52-4.5-7.84
			c-5.66-0.71-10.2,1.93-12.27,7.15C788.7,69.05,791.98,74.2,795.32,74.22z M923.93,62.22c-3.48,3.95-2.26,7.18,0.03,11.08
			c2.83,4.82,6.87,4.9,11.23,5.03C939.34,69.63,933.59,61.7,923.93,62.22z M775.09,122.6c-1.44,0.42-3.45,0.4-4.05,1.31
			c-1.43,2.13-2.81,4.64-3.09,7.13c-0.5,4.49,3.24,8.25,7.38,8.22c2.86-0.02,6.96-4.62,6.53-8.21c-0.29-2.49-1.68-4.97-3.05-7.15
			C778.28,123.06,776.44,123.04,775.09,122.6z M834.24,44.21c3.58,6.48,4.07,6.65,11.94,6.32c4.53-0.19,5.43-3.92,7.42-6.53
			C848.38,35.56,839.25,35.72,834.24,44.21z M773.47,113.32c0.08-0.25,0.17-0.5,0.25-0.75c3.78,0.65,6-1.03,7.13-4.41
			c0.22-0.65,0.61-1.23,0.9-1.85c1.01-2.18-0.6-8.05-2.57-9.26c-0.36-0.22-0.86-0.26-1.31-0.3c-4.53-0.49-6.66,0.9-8.89,4.84
			c-2.03,3.59-0.33,6.44,1.34,9.27C770.95,111.93,772.4,112.51,773.47,113.32z M774.91,149.36c-3.8-0.08-3.49,0.12-5.19,2.69
			c-2.92,4.41-1.04,8.09,1.22,11.74c1.77,2.85,7.42,2.27,9.27-0.48c2.45-3.65,2.08-6.87-0.03-10.52
			C778.81,150.43,777.4,148.92,774.91,149.36z M875.61,210.05c-3-6.73-3.41-6.7-10.15-6.56c-4.1,0.09-5.46,2.88-7.09,5.54
			c-1.56,2.54,0.99,4.01,2.15,5.6c0.72,0.98,2.47,1.66,3.75,1.66c2.64,0,5.64,1.01,7.78-1.46
			C873.39,213.29,874.5,211.56,875.61,210.05z M933.37,161.06c-1.49,0.47-3.34,0.53-4.41,1.48c-3.51,3.1-4.22,8.48-2.06,12.78
			c1.57,3.14,7.19,3.82,9.01,0.85c2.34-3.81,4.37-7.78,1.5-12.46C936.37,162.01,935.56,160.88,933.37,161.06z M774.57,87.66
			c1.76-0.74,4.22-1.24,5.93-2.64c1.5-1.23,2.27-3.42,3.16-5.28c1.21-2.55-0.85-4.38-1.96-6.22c-0.43-0.71-2.37-0.63-3.64-0.7
			c-3.83-0.21-5.64,2.4-7.31,5.29c-1.43,2.48-0.87,6.9,1.32,8.67C772.58,87.16,773.32,87.23,774.57,87.66z M798.61,203.79
			c0.8,0,1.61,0.08,2.4-0.02c2.05-0.26,4.72-4.75,4.01-6.66c-1.75-4.68-4.55-6.69-9.49-6.79c-2.91-0.06-6.13,4.02-5.38,6.81
			C791.23,201.13,794.41,203.62,798.61,203.79z M855.79,35.19c3.56,5.61,5.24,6.32,11.79,5.82c3.63-0.28,5.52-2.29,6.63-5.37
			C868.84,28.44,860.66,28.22,855.79,35.19z M821.01,203.73c-1.29,0-1.88,0.07-2.44-0.01c-2.96-0.46-3.86,1.76-5.1,3.71
			c-1.21,1.9-0.28,3.2,0.8,4.63c2.33,3.08,6.96,4.58,10.58,3.38c2-0.67,4.25-4.79,3.3-6.42
			C826.42,206.02,824.76,202.74,821.01,203.73z M775.13,176.28c-3.19-0.07-5.68,2.47-5.7,5.81c-0.02,3.74,4.45,8.19,8.27,8.24
			c2.78,0.04,5.02-2.55,5.08-5.87C782.88,179.7,779.77,176.38,775.13,176.28z M799.81,51.21c3.7,0.74,6.23-1.82,8.44-4.97
			c1.62-2.31-0.28-6.77-3.1-6.79c-4.62-0.03-9.36,0.12-11.56,5.35c-0.39,0.92-0.53,2.21-0.19,3.11
			C794.67,51.27,795.31,51.55,799.81,51.21z M906.86,214.43c2.15-0.43,3.53-0.59,4.84-0.99c2.66-0.82,6.51-6.16,5.73-8.21
			c-0.62-1.62-1.57-3.43-2.93-4.36c-1.49-1.02-7.29,0.83-8.21,2.1c-0.94,1.3-1.76,2.7-2.76,3.95c-1.6,2.02-0.52,3.77,0.61,5.33
			C904.88,213.26,906.17,213.89,906.86,214.43z M896.18,219.15c-1.6-2.23-2.17-5.22-6.21-5.35c-5.39-0.18-8.17,2.5-10.12,7.07
			c1.55,1.94,1.9,4.89,5.42,5.01C890.43,226.04,894.11,224.14,896.18,219.15z M945.26,98.84c-3.47,5.91-3.57,6.98-1.29,12.5
			c1.76,4.26,1.96,4.39,7.02,4.21c3.84-6.84,2.93-7.93,0.15-14.55C950.09,98.52,947.56,98.99,945.26,98.84z M947.98,123.06
			c-0.16-0.19-0.31-0.39-0.47-0.58c-0.93,0.89-2.13,1.62-2.76,2.69c-2.15,3.68-2.65,7.5-0.41,11.4c0.81,1.41,0.83,3.54,3.28,3.3
			c2.24-0.22,3.89-0.76,4.93-3.32c1.52-3.74,1.12-7.07-0.25-10.62C951.51,123.85,950.48,122.5,947.98,123.06z M835.87,220.45
			c1.84,5.23,5.66,5.77,10.11,5.46c3.48-0.24,4.22-2.98,5.66-5.06c-1.74-3.99-4.17-6-8.78-5.86
			C838.68,215.12,837.47,217.77,835.87,220.45z M926.1,200.14c5.98,0.3,9.54-2.17,10.94-7.43c0.81-3.07-1.88-6.29-4.98-5.95
			C925.96,187.43,922.81,194.29,926.1,200.14z M942.96,76.8c-3.67,7.78,0.47,15.7,7.7,15.11C954.78,84.4,950.93,76.66,942.96,76.8z
			 M814.46,36.43c1.17,1.26,2.18,3.26,3.72,3.85c5.21,1.99,10.13-0.12,13.06-5.08C827.59,28.78,819.85,29.11,814.46,36.43z
			 M950.98,148.11c-4.61-0.52-4.6-0.25-6.5,3.36c-2.33,4.42-1.11,8.16,1.25,11.88c4.28,0.51,4.67,0.04,6.29-3.6
			C953.84,155.66,953.35,151.97,950.98,148.11z M776.52,63.94c5.11,0.6,7.36-2.85,9.64-6.47c1.11-1.77,0.29-2.97-0.44-4.41
			c-0.8-1.59-2.09-1.42-3.52-1.36c-4.61,0.21-6.75,3.53-8.62,6.97C772.43,60.78,774.43,64,776.52,63.94z M911.19,43.52
			c2.55-3.57,2.56-4.59-0.67-7.15c-3.09-2.44-6.48-4.36-10.91-4.32c-0.75,1.12-1.55,2.34-2.3,3.47
			C900.32,41.07,904.84,43.64,911.19,43.52z M759.8,150.96c0.63-1.32,1.24-2.54,1.79-3.78c1.18-2.71,0.53-7.91-1.81-9.38
			c-1.32-0.83-3.86-0.83-5.31-0.11c-2.04,1.02-2.63,6.18-1.62,8.87C754.48,150.85,754.48,150.85,759.8,150.96z M756.94,126.01
			c1.07-0.5,2.6-0.71,3.14-1.56c2.07-3.24,3.57-6.64,1.11-10.5c-0.89-1.39-1.65-2.28-3.46-2.11c-1.69,0.15-3.16,0.3-3.78,2.23
			c-0.45,1.41-1.21,2.73-1.6,4.16C751.49,121.36,754.1,125.62,756.94,126.01z M759.68,175.66c0.28-0.24,1.18-0.72,1.67-1.46
			c2.21-3.33,1.62-8.4-1.27-11.26c-0.46-0.46-1.15-0.77-1.79-0.94c-2.88-0.76-3.91,0.03-5.22,3.82
			C751.51,170.35,754.7,175.69,759.68,175.66z M760.46,87.09c-1.53,0.49-3.56,0.62-4.87,1.66c-2.35,1.84-3.04,7.02-1.83,9.82
			c1.2,2.77,4.55,3.41,6.65,1.27C763.91,96.25,764.03,91.78,760.46,87.09z M875.98,28.02c6.16,6.63,14.06,7.07,16.66,1.1
			C888.08,23.74,879.59,23.09,875.98,28.02z M858.17,230.29c2.48,3.87,7.26,5.6,10.96,3.58c1.52-0.83,3.36-2.88,3.3-4.3
			c-0.06-1.4-2.11-3.43-3.68-3.93C863.59,224.01,861.16,225.26,858.17,230.29z M950.2,172.39c-5.56,0.11-8.95,6.18-6.52,11.68
			c1.18,2.67,4.5,3.07,6.27,0.76C952.89,180.98,952.98,176.67,950.2,172.39z M798.81,214.49c-2.26-0.45-3.66,0.1-4.71,2.09
			c-1.02,1.94-0.13,3.13,0.76,4.66c2.02,3.44,5.27,3.3,8.45,3.01c2.24-0.2,3.63-3.72,2.37-5.63
			C804.02,216.08,802.25,213.6,798.81,214.49z M920.48,43.44c-2.38,2.5-2.8,3.56-2.24,5.08c1.93,5.24,6.85,8.43,12.5,8.13
			c1.65-2,1.35-3.65-0.67-5.25c-1.71-1.35-3.18-2.98-4.85-4.38C923.69,45.74,922.03,44.6,920.48,43.44z M836.41,28.02
			c2.66,4.34,2.7,4.31,10.36,3.98c2.89-0.12,4.01-2.1,5.24-4.09C847.91,23.21,841.13,23.26,836.41,28.02z M774.43,201.01
			c-0.83,1.5-2.2,2.95-1.02,5.15c1.93,3.62,4.59,5.95,9.71,5.62c0.29-1.62,1.33-3.64,0.8-5.1
			C782.42,202.58,779.45,200.08,774.43,201.01z M762.53,197.69c2.93-5.53,0-11.53-6.12-12.88
			C752.41,191.55,755.03,197.27,762.53,197.69z M913.45,225.92c-1.52-3.53-1.63-3.4-4.98-3.07c-3.52,0.35-5.51,2.61-7.17,5.21
			c-0.5,0.79-0.29,2.45,0.24,3.33c0.42,0.71,1.82,1.2,2.77,1.17C908.8,232.42,911.43,229.54,913.45,225.92z M828.83,230.32
			c-1.98-4.1-5.38-5.34-9.66-4.76c-2.4,0.33-2.83,2.3-3.52,3.99C820.06,235.43,825.88,235.71,828.83,230.32z M764.32,65.8
			c-7.03,0.92-10.65,6.5-7.62,11.53c5.03-0.28,6.2-1.19,8.79-6.28C766.63,68.81,765.15,67.42,764.32,65.8z M922.7,220.16
			c7.86-1.57,11.35-6.34,8.11-10.85C923.54,209.72,919.46,215.01,922.7,220.16z M878.64,238.29c3.05,4.99,9.36,4.43,13.49-1.02
			C889.81,231.94,883.57,232.34,878.64,238.29z M850.32,238.72c-2.05-4.02-5.5-3.92-9-3.61c-2.11,0.18-3.2,1.48-3.61,3.39
			C841.33,243.05,846.6,243.15,850.32,238.72z M959.41,150.5c0.73-0.3,1.26-0.36,1.53-0.65c2.06-2.3,2.57-10.27,0.88-12.88
			c-0.86-1.33-2.46-1.24-3.21,0.33C956.48,141.7,956.37,146.05,959.41,150.5z M959.24,113.12c-2.99,5.15-3.05,9.04-0.47,13.31
			c0.3,0.5,1.07,1.16,1.48,1.08c0.64-0.13,1.42-0.73,1.67-1.33c1.59-3.86,0.86-7.69-0.57-11.4
			C961.09,114.12,960.08,113.75,959.24,113.12z M870.57,22.81c-2.82-3.63-10.41-4.08-13.96-0.83
			C859.57,25.68,867.51,26.15,870.57,22.81z M797.67,30.12c2.88,4.46,10.32,2.96,13.58-2.43c-0.62-0.69-1.28-1.44-2.09-2.35
			C805.36,26.92,801.68,28.45,797.67,30.12z M742.45,114.56c0.96-0.7,2.13-1.14,2.63-1.98c1.58-2.66,2.36-5.55,0.94-8.55
			c-0.33-0.7-1.16-1.57-1.82-1.62c-0.74-0.05-1.95,0.56-2.23,1.2C740.51,107.02,739.2,110.52,742.45,114.56z M746.73,155.46
			c-0.59-1.61-1.08-3.52-1.98-5.21c-0.85-1.62-3.17-1.38-3.65,0.44c-0.5,1.9-0.67,4.01-0.38,5.94c0.26,1.71,0.29,4.51,3.06,4.06
			C746.2,160.29,745.96,157.56,746.73,155.46z M742.13,172.3c-2.71,5.5-1.04,10.76,3.4,11.17
			C748.36,178.66,746.87,173.44,742.13,172.3z M788.99,34.75c-3.35,2.26-6.49,4.34-9.59,6.46c-1.52,1.04-1.53,2.12-0.04,3.15
			C787.31,42.75,791.48,38.86,788.99,34.75z M744.12,137.3c2.52-3.39,2.65-6.75,0.98-10.22c-0.84-1.74-2.75-1.82-3.75-0.25
			C738.95,130.6,739.94,134.69,744.12,137.3z M808.31,238.06c-2.72-4.36-4.18-3.76-8.11-3.56c-0.99,0.05-1.92,1.36-2.89,2.1
			C801.62,241.56,806.31,241.96,808.31,238.06z M778.38,222.31c-0.17,0.91-0.67,1.93-0.44,2.75c0.7,2.51,4.59,5.07,7.22,5.01
			c1.93-0.04,2.66-1.52,1.62-3.29C785.04,223.83,782.72,221.88,778.38,222.31z M959.23,171.82c0.28-0.15,0.73-0.24,0.83-0.47
			c1.39-3.38,2.71-6.81,1.92-10.56c-0.14-0.65-0.77-1.33-1.35-1.71c-0.28-0.18-1.14,0.14-1.49,0.49
			C956.49,162.23,956.55,168.71,959.23,171.82z M941.58,206.86c2.81-3.86,5.72-7.05,7.3-11.46
			C942.61,195.61,938.86,201.31,941.58,206.86z M869.81,244.9c-2.39-3.5-8.45-3.23-11.11,0.49
			C861.34,248.59,866.84,248.35,869.81,244.9z M831.68,21.89c-3.07-2.09-9.69-1.5-12.83,0.95C821.6,25.84,828.22,25.43,831.68,21.89
			z M766.46,217.4c2.35-2.72,0.01-4.33-1.1-6.17c-1.28-2.12-3.15-2.75-5.47-2.24C759.29,212.18,762.16,215.82,766.46,217.4z
			 M742.2,91.16c4.61-1.1,6.6-6.68,4.07-10.75C743.26,82.86,741.19,88.14,742.2,91.16z M829.07,245.6
			c-3.08-3.64-7.66-3.98-9.73-0.72C822.79,247.94,826.65,248.23,829.07,245.6z M960.78,105.59c0.25-0.2,0.49-0.39,0.74-0.59
			c-0.52-4.11-2.12-7.91-3.91-12.19c-1.92,4.36-0.5,7.88,0.99,11.33C958.9,104.81,960.04,105.12,960.78,105.59z M945.4,69.43
			c-2.49-3.25-4.97-6.51-7.46-9.76C937.41,63.9,941.26,69.01,945.4,69.43z M762.33,56.71c4.96-0.47,5.89-4.24,8-6.82
			c-0.23-0.24-0.47-0.47-0.7-0.71C767.32,51.57,765.01,53.95,762.33,56.71z M840.4,250.6c2.76,1.04,5.48,1.48,8.16,0.03
			C845.84,249.21,843.1,249.27,840.4,250.6z M733,146.71c1.96-3.47,1.9-5.02,0-8.05C733,141.61,733,144.16,733,146.71z
			 M734.06,117.45c-0.27,0-0.54,0-0.81-0.01c-0.77,2.44-1.41,4.88-0.02,7.35c0.27,0,0.55,0,0.82,0.01
			C734.06,122.35,734.06,119.9,734.06,117.45z M841.61,18.6c0.02,0.11,0.03,0.23,0.05,0.34c2.12,0,4.25,0,6.37,0
			c0-0.11-0.01-0.23-0.01-0.34C845.88,18.6,843.74,18.6,841.61,18.6z"/>
		<path d="M923.41,298.66c-0.57,4.31-0.9,8.67-1.76,12.92c-1.14,5.63-2.73,11.17-4.05,16.78c-0.28,1.21-0.21,2.5,0.18,4.09
			c7.75-8.52,15.5-17.03,23.25-25.55c0.27,0.19,0.53,0.37,0.8,0.56c-0.49,0.93-0.92,1.91-1.49,2.79
			c-6.38,9.88-12.67,19.82-19.23,29.58c-2.25,3.35-2.61,6.21-0.73,9.88c3.13,6.13,5.78,12.52,8.81,19.19
			c3.08-5.66,5.64-10.9,5.97-17.12c0.46-8.51,2.52-16.63,7.9-23.56c0.56-0.73,1.19-1.41,1.83-2.07c0.22-0.23,0.57-0.33,1.42-0.79
			c-2.3,5.94-4.73,11.39-3.88,18.29c3.28-4.07,5.95-7.57,5.9-12.56c-0.09-7.61,0.01-15.22,0.04-22.83c0-0.91,0.09-1.82,0.53-2.78
			c1.7,8.01,1.73,16.26,3.16,25.11c9.85-12.39,19.26-24.22,28.66-36.05c0.3,0.19,0.59,0.37,0.89,0.56c-0.57,1-1.09,2.05-1.73,3
			c-4.59,6.78-9.13,13.59-13.84,20.29c-2.01,2.86-2.76,5.56-1.27,8.98c1.51,3.45,2.44,7.15,3.82,11.3
			c7.56-9.1,14.28-18.15,21.61-26.67c0.35,0.23,0.7,0.45,1.05,0.68c-0.45,0.92-0.81,1.89-1.37,2.74
			c-5.28,7.98-10.46,16.03-15.95,23.87c-2.58,3.68-3.39,7.17-1.2,11.24c0.7,1.29,1.04,2.78,1.76,4.8
			c7.76-15.49,15.28-30.51,22.81-45.53c0.36,0.14,0.71,0.28,1.07,0.43c-0.28,1.16-0.52,2.33-0.86,3.47
			c-3.95,13.13-8.13,26.2-11.81,39.4c-2.91,10.42-3.06,21.18-2.47,31.93c0.05,0.92,0.23,1.83,0.39,2.74c0.05,0.3,0.25,0.58,0.75,1.7
			c5.19-15.49,10.15-30.3,15.11-45.11c0.32,0.09,0.64,0.17,0.96,0.26c-0.5,2.67-0.86,5.39-1.52,8.02
			c-4.74,18.76-9.53,37.51-14.33,56.26c-1.08,4.22-2.37,5.21-6.81,5.21c-15.22,0-30.45-0.03-45.67-0.02
			c-67.59,0.03-135.18,0.07-202.76,0.1c-1.61,0-3.23,0-4.84-0.09c-2.68-0.15-4.58-1.37-5.38-4.06c-5.36-18-11.51-35.81-15.85-54.04
			c-3.3-13.83-4.37-28.2-6.31-42.34c-0.63-4.56-0.88-9.16-1.29-13.75c-0.04-0.44,0.1-0.89,0.73-1.42c1.57,9.61,2.83,19.28,4.8,28.81
			c2.02,9.8,4.4,19.56,7.23,29.16c2.79,9.48,6.34,18.73,9.55,28.08c0.37-0.02,0.74-0.03,1.11-0.05c0.19-1.01,0.53-2.01,0.54-3.02
			c0.13-10.37,0.47-20.74,0.17-31.1c-0.11-3.66-1.33-7.5-2.87-10.88c-3.19-7.02-6.94-13.79-10.44-20.68
			c-0.65-1.28-1.17-2.62-1.76-3.93c0.25-0.14,0.49-0.27,0.74-0.41c4.61,6.64,9.22,13.29,14.29,20.59
			c-0.31-5.04-0.48-9.26-0.85-13.46c-0.98-11.13-2.1-22.25-3.05-33.38c-0.13-1.55,0.39-3.15,0.61-4.73l-0.04,0.04
			c1.06,2.03,2.25,4,3.15,6.1c3.57,8.36,9.02,15.45,14.93,22.64c8.37-9.26,14.53-19.74,19.53-30.98c0.28,0.08,0.55,0.15,0.83,0.23
			c-0.4,3.44-0.87,6.88-1.2,10.32c-0.85,8.7-1.63,17.4-2.47,26.1c-0.24,2.52,0.41,4.67,1.92,6.76c4.52,6.25,8.87,12.61,13.31,18.92
			c0.57,0.81,1.25,1.54,1.8,2.21c1.29-2,2.47-3.83,3.65-5.66c0.08,0.5,0.17,1,0.25,1.5c0.08-0.02,0.16-0.05,0.23-0.07
			c-0.17-0.47-0.35-0.93-0.52-1.4c-0.22-2.05-0.18-4.16-0.69-6.14c-4.55-17.74-9.2-35.46-13.81-53.19c-0.26-1-0.38-2.05-0.56-3.07
			c0.36-0.09,0.72-0.19,1.08-0.28c4.85,12.05,9.71,24.09,14.56,36.14c0.19-0.04,0.38-0.09,0.57-0.13c0.53-7.4,1.06-14.8,1.6-22.19
			c0.32-0.03,0.65-0.06,0.97-0.09c0.62,5.87,1.27,11.73,1.86,17.6c0.6,6.05,1.15,12.1,1.79,18.91c3.52-3.55,5.79-7.13,6.17-11.4
			c0.36-4.02-0.15-8.11-0.3-12.61c2.18,2.65,1.52,6.08,3.14,8.84c2.76-1.74,2.74-4.36,2.21-6.94c-0.52-2.52-1.41-4.97-2.14-7.44
			c0.27-0.1,0.53-0.2,0.8-0.31c1.23,2.52,2.46,5.04,3.97,8.14c5.72-8.45,11.23-16.59,16.74-24.72c0.32,0.19,0.65,0.38,0.97,0.57
			c-0.51,1.08-0.96,2.19-1.54,3.23c-4.01,7.13-7.99,14.29-12.12,21.36c-1.55,2.66-1.66,4.92-0.03,7.69
			c4.81,8.12,9.34,16.4,14.42,24.58c0.71-14.29,1.91-28.35,8.34-41.41c-2.22,14.61-2.35,29.1,1.63,44.22
			c4.01-4.94,7.61-9.37,11.61-14.3c0.46,2.01,1.04,3.68,1.19,5.39c0.94,10.44,1.99,20.88,2.6,31.35c0.43,7.35,0.16,14.74,0.35,22.11
			c0.1,3.91,0.33,7.83,0.79,11.71c0.84,7.06,7.8,11.1,15.3,9.14c5-1.31,8.02-4.23,8.47-9.55c0.16-1.82,0.5-3.62,0.78-5.54
			c2.25-0.71,4.42-1.39,6.8-2.14c-0.9-5.82-2.81-11.12-5.16-16.2c-1.07-2.31-1.55-4.43-1.34-6.92c0.21-2.5,0.05-5.03,0.05-7.55
			c0.26-0.08,0.53-0.16,0.79-0.24c2.59,4.35,5.17,8.7,7.76,13.05c0.28-0.07,0.55-0.14,0.83-0.21c-0.36-4.03-0.43-8.11-1.14-12.08
			c-1.36-7.59-2.99-15.14-4.7-22.65c-0.99-4.34-0.59-10.72,1.63-15.88c2.64,4.72,5.12,9.15,7.6,13.59c0.16-0.06,0.32-0.11,0.48-0.17
			c-0.52-6.86-1.01-13.72-1.58-20.57c-0.48-5.74-1.3-11.46-1.5-17.21c-0.09-2.5,1.02-5.03,1.58-7.55c0.32-0.04,0.64-0.09,0.97-0.13
			c4.81,7.91,9.62,15.82,14.88,24.47c2.95-9.1,3.78-17.31-0.93-25.49c0.35-0.1,0.69-0.21,1.04-0.31c1.24,2.05,2.48,4.09,4.07,6.72
			c2.6-6.47,5.05-12.54,7.49-18.61c0.17,0.04,0.35,0.07,0.52,0.11c0,0.71,0.11,1.44-0.02,2.13c-1.22,6.45-2.44,12.91-3.77,19.34
			c-0.64,3.07-0.29,5.85,1.13,8.69c3.25,6.49,6.28,13.09,9.42,19.64c0.54,1.12,1.16,2.2,2.13,4.04c0.74-1.78,1.24-2.86,1.64-3.98
			c2.91-8.14,5.78-16.29,8.71-24.42c0.33-0.92,0.99-1.73,1.5-2.59L923.41,298.66z M794.04,328.39c0.04,0.37,0.08,0.74,0.11,1.11
			c0.13-0.04,0.26-0.09,0.38-0.13c-0.18-0.31-0.36-0.62-0.55-0.94c-0.59-3.16-1.19-6.33-1.78-9.49c-0.25,0.06-0.49,0.11-0.74,0.17
			C790.48,322.66,792.43,325.48,794.04,328.39z M747.64,302.16c-3.02,3.07-4.29,7.69-2.32,10.59c0.83-3.87,1.56-7.25,2.29-10.63
			L747.64,302.16z M884.98,358.03c0.2,0,0.39,0.01,0.59,0.01c0.09-0.39,0.22-0.77,0.26-1.17c0.71-6.4,1.07-12.86,2.18-19.19
			c1.46-8.29,0.18-15.94-3.49-23.43c-3.14-6.41-5.94-12.97-8.9-19.46c-0.13-0.29-0.42-0.51-1.05-1.24
			C878.11,315.49,881.54,336.76,884.98,358.03z M788.33,324.29c-0.22-0.01-0.43-0.02-0.65-0.04c-1.43,3.11-2.75,6.27-4.33,9.3
			c-1.17,2.24-0.85,4.04,0.5,6.07c4.9,7.39,9.67,14.86,14.51,22.29c0.52,0.8,1.2,1.5,1.81,2.25c0.24-0.13,0.48-0.25,0.72-0.38
			C796.71,350.62,792.52,337.45,788.33,324.29z M897.99,313.27c-0.21,0.05-0.42,0.11-0.63,0.16c0.42,14.93,0.84,29.87,1.26,44.8
			c0.31,0.05,0.63,0.09,0.94,0.14c1.86-4.54,3.66-9.11,5.61-13.62c1.16-2.68,1.28-5.22,0.35-8.02c-2.25-6.78-4.26-13.63-6.39-20.45
			C898.81,315.26,898.38,314.27,897.99,313.27z M749.72,356.44c-0.29-0.03-0.59-0.06-0.88-0.09c-0.76,11.82-1.53,23.63-2.3,35.55
			c5.51-0.59,6.87-1.82,7.45-6.48C755.25,375.35,752.97,365.82,749.72,356.44z M807.64,362.61c4.09-4.62,4.2-8.97,2.02-13.68
			c-5.02-10.85-9.97-21.72-14.96-32.58c-0.31-0.67-0.7-1.31-1.05-1.96c-0.19,0.08-0.38,0.16-0.57,0.23
			C797.86,330.4,802.65,346.17,807.64,362.61z M831.14,337.67c-0.21-0.05-0.43-0.1-0.64-0.15c-1.69,3.25-3.24,6.58-5.1,9.73
			c-1.47,2.51-1.54,4.79-0.43,7.49c1.57,3.82,2.71,7.82,4.06,11.73c1,2.89,2.03,5.77,3.04,8.66c0.2-0.04,0.4-0.08,0.6-0.13
			C832.17,362.56,831.66,350.11,831.14,337.67z M735.66,326.88c-3.34,11.15-2.36,21.7-0.19,33.08c1.61-7.63,3.21-14.43,4.44-21.3
			C740.69,334.33,738.6,330.75,735.66,326.88z M751.46,327.56c-0.3,0.09-0.61,0.18-0.91,0.27c-0.4,3.17-0.27,6.26,1.37,9.19
			c4.05,7.22,8.09,14.44,12.11,21.67c0.27,0.49,0.44,1.03,0.75,1.76c1.88-2.8,1.29-4.75,0.37-6.67c-1.74-3.63-3.41-7.29-5.28-10.85
			C757.14,337.77,754.27,332.68,751.46,327.56z M797.24,391.68c-3.52-9.02-7.14-17.81-12.33-25.93c1.15,6.94,2.46,13.81,4.07,20.61
			C790,390.65,792.42,392.12,797.24,391.68z M954.61,363.43c0.34,0.09,0.67,0.17,1.01,0.26c0.75-1.98,2.16-3.98,2.12-5.94
			c-0.15-7.88-0.74-15.75-1.2-24.19c-3.08,2.48-4.12,5.1-3.85,8.25C953.3,349.01,953.97,356.22,954.61,363.43z M909.34,391.21
			c0-9.12,0-18.03,0-26.93c-3.1,7.01-4.53,14.32-4.96,21.82C904.18,389.53,905.45,390.8,909.34,391.21z M946.59,381.27
			c0.23,0.01,0.46,0.02,0.69,0.03c0-11.08,0-22.15,0-33.91c-2.45,3.65-4.59,6.79-4.11,10.66
			C944.14,365.81,945.43,373.53,946.59,381.27z M726.86,325.47c0.21,0.04,0.42,0.09,0.64,0.13c1.03-2.14,2.16-4.25,3.03-6.46
			c0.29-0.74,0.2-1.89-0.18-2.61c-2.67-5.07-5.47-10.07-8.22-15.1c-0.17,0.07-0.34,0.14-0.51,0.21
			C723.36,309.59,725.11,317.53,726.86,325.47z M965.76,356.9c-1.6,2.44-2.37,4.91-1.67,7.81c0.58,2.44,0.74,4.99,1.02,7.49
			c0.29,2.62,0.48,5.26,0.75,7.89c0.26,2.5,0.58,5,0.87,7.5C969.18,377.23,968.06,367.06,965.76,356.9z M961.86,350.76
			c2.04-1.98,2.69-4.07,2.37-6.49c-0.47-3.53-0.93-7.06-1.47-10.58c-0.38-2.51-0.88-5-1.46-8.18
			C958.47,330.79,958.88,341.97,961.86,350.76z M958.91,374.63c-2.77,5.33-3.71,10.84-1.7,16.63
			C960.65,386.03,958.45,380.18,958.91,374.63z M817.05,392.11c2.91-0.8,4.01-2.07,3.29-4.86c-1.17-4.53-2.05-9.15-3.05-13.73
			c-0.08,0.02-0.17,0.04-0.25,0.06C817.05,379.64,817.05,385.69,817.05,392.11z M742.49,312.61c-4.31,2.5-4.25,6.39,0.15,9.86
			C744.77,318.59,744.71,315.15,742.49,312.61z"/>
		<path d="M805.51,251.96c28.99,10.53,57.63,11.07,86.53,0c0.74,5.64,0.78,10.27-3.8,14.18c-8.05,6.87-12.45,16.17-15.91,25.93
			c-4.93,13.88-7.3,28.3-9.02,42.86c-2.47,20.87-2.84,41.85-3.34,62.82c-0.09,3.85-1.16,5.33-4.9,6.5
			c-3.39,1.06-6.81,1.05-10.2-0.01c-3.66-1.14-4.88-2.65-4.98-6.51c-0.17-6.34-0.1-12.69-0.32-19.02
			c-0.73-21.45-2.3-42.82-6.92-63.84c-2.93-13.34-6.85-26.37-14.45-37.9c-2.58-3.92-5.53-7.75-8.98-10.9
			C804.91,262.16,804.59,257.68,805.51,251.96z M880.36,260.53c-1.82,0.36-3.02,0.8-4.23,0.8c-6.11-0.03-8.49,3.59-10.34,8.95
			c-6.84,19.79-9.76,40.26-11.31,60.97c-1.47,19.68-1.18,39.39-0.06,59.08c0.06,1.11,0.35,2.2,0.53,3.3
			c0.52-9.45,0.81-18.84,1.16-28.24c0.7-18.79,2.72-37.44,6.46-55.88c3.12-15.41,7.35-30.46,15.1-44.29
			C878.44,263.84,879.24,262.47,880.36,260.53z"/>
		<path d="M716.48,283.47c-0.21-0.37-0.43-0.75-0.64-1.12c0.15-0.05,0.31-0.1,0.46-0.16c0.05,0.44,0.09,0.88,0.14,1.32
			L716.48,283.47z"/>
		<polygon points="923.44,298.69 923.56,298.53 923.41,298.66 		"/>
	</g>
</g>
</svg>


