<svg xmlns="http://www.w3.org/2000/svg" viewBox="0 0 3477.57 5135.92" width="500" height="500"><path d="M932.46,3164.13c-87.05,2.53-152.17,36.07-211.73,87.31-34,29.25-74.73,51.93-115.26,71.82-26.33,12.92-57.42,18.5-87,21.83-29.15,3.28-56.75-8.78-68.81-36.94-12.37-28.88-11.24-60.94,10.23-85.83,17.86-20.71,38.27-41.91,62-54.4,127.84-67.24,260.76-70.27,396-24.15C921.59,3145,923.53,3151.32,932.46,3164.13Z" transform="translate(-441.72 -69.36)"/><path d="M1014.72,3013.37c-12.45-7.33-20.28-11.3-27.43-16.26-30.41-21.07-63.84-31-100.94-29.73-19.63.65-39.57,1.1-58.92-1.57s-38.35-8-56.66-14.58c-21.2-7.6-28.85-25.66-28.29-47,.6-23.08,14-41,36.81-47,41.67-11,82.46-5.15,119.58,15.17,51.33,28.09,91.5,68.13,115.68,122.47C1015.83,2997.7,1014.72,3001.62,1014.72,3013.37Z" transform="translate(-441.72 -69.36)"/><path d="M944.38,3346.13c-43.23,62.81-73.9,111.21-108.87,156.28-13.8,17.79-35.67,31.46-56.59,41.06-25,11.49-58.55-11.26-59-39.36-.34-19.67,1.22-42.85,11.18-58.62C776.19,3374,842,3341,944.38,3346.13Z" transform="translate(-441.72 -69.36)"/><path d="M3262.75,3163c90,2.62,157.31,37.29,218.88,90.26,35.13,30.23,77.25,53.68,119.14,74.24,27.23,13.36,59.36,19.13,89.94,22.57,30.14,3.39,58.67-9.08,71.14-38.19,12.79-29.85,11.62-63-10.57-88.72-18.47-21.41-39.57-43.33-64.13-56.25-132.14-69.51-269.56-72.64-409.37-25C3274,3143.2,3272,3149.71,3262.75,3163Z" transform="translate(-441.72 -69.36)"/><path d="M3177.71,3007.09c12.87-7.57,21-11.68,28.35-16.8,31.44-21.78,66-32,104.35-30.73,20.3.67,40.9,1.13,60.91-1.63s39.65-8.28,58.58-15.07c21.91-7.85,29.82-26.52,29.24-48.6-.62-23.87-14.53-42.36-38-48.6-43.08-11.43-85.24-5.32-123.62,15.68-53.06,29-94.59,70.43-119.59,126.6C3176.57,2990.9,3177.71,2995,3177.71,3007.09Z" transform="translate(-441.72 -69.36)"/><path d="M3250.42,3351.09c44.69,64.94,76.4,115,112.55,161.56,14.27,18.39,36.87,32.52,58.5,42.45,25.87,11.88,60.53-11.64,61-40.7.34-20.33-1.27-44.29-11.56-60.6C3424.29,3379.92,3356.28,3345.8,3250.42,3351.09Z" transform="translate(-441.72 -69.36)"/><path d="M1754.49,276.42a94.5,94.5,0,0,0-32.21-23.48q-18.83-8.44-42.31-8.46h-7.09q-23.49,0-42.59,8.46a93.75,93.75,0,0,0-32.48,23.48q-13.38,15-20.75,36.31a141,141,0,0,0-7.37,46.4q0,25.67,7.37,46.68a109.4,109.4,0,0,0,20.75,36.3,89.13,89.13,0,0,0,32.48,23.48q19.11,8.19,42.59,8.19H1680q23.47,0,42.31-8.19a89.76,89.76,0,0,0,32.21-23.48,109.22,109.22,0,0,0,20.75-36.3q7.37-21,7.37-46.68a141,141,0,0,0-7.37-46.4Q1767.88,291.43,1754.49,276.42Zm-732.88,83.8c0-25.45-16-46.09-35.67-46.09s-35.66,20.64-35.66,46.09,16,46.1,35.66,46.1S1021.61,385.68,1021.61,360.22ZM3175.75,375.1c-4-6.37-7.58-13.13-11.77-19.22-2.46-3.59-4.19-6.6-1.56-11.06a3.28,3.28,0,0,0,.2-1c1.18-6.53,2.31-13.07,3.57-19.57.44-2.3,1.18-4.5,1.9-7.16-1.22-2.6-3.08-4-5.38-3.23-2.55.82-5.54,1.41-7.37,3.51-3.41,3.92-7.75,4.43-11.56,6.74-2.92,1.78-5.9,2.1-8.18-1.86a1.21,1.21,0,0,0-.72-.4c-3-.85-5.1-3.55-7.17-6.27a6.61,6.61,0,0,0-1.85-1.81,19.21,19.21,0,0,1-7.79-6.94,2.43,2.43,0,0,0-3.59-1.08c-1.95,1-2.86,4.88-2,7.52.52,1.57,1.34,3.16,1.39,4.77q.35,11.68.27,23.4c0,1.32-.69,3.38-1.48,3.81-4.62,2.54-7.86,7.52-12,10.9a55.88,55.88,0,0,0-7.67,8c-2.34,2.88-1.69,6.18,1.35,7.59,2.12,1,4.33,1.61,6.5,2.38,3.33,1.18,6.66,2.3,10,3.53a27.2,27.2,0,0,1,4.85,2.16c1.39.84,3.27,1.74,3.82,3.28,1.73,4.77,2.92,9.87,4.34,14.83,1.24,4.31,2.33,8.72,3.81,12.88,1.93,5.43,4.59,5.78,7.27.87,3.87-7.09,7.65-14.29,11.15-21.7,1.68-3.55,3.7-4.93,6.82-4.9,6.31.06,12.61-.23,18.91-.39,1.87,0,3.94.26,5-2.4S3177.16,377.35,3175.75,375.1ZM3118.22,69.36H985.94l103.3,290.86L985.94,651.08H3118.22L3014.93,360.22ZM1298.92,170.78q-13.11,13.65-17.2,44.22t-4.09,69.88v148.5q0,39.3,4.09,69.88t17.2,44.22v2.73H1158.07v-2.73q13.1-13.63,17.19-44.22t4.1-69.88V284.88q0-39.3-4.1-69.88t-17.19-44.22v-2.73h140.85Zm585.23,190q0,50.78-16.37,87.62t-44.22,60.87q-27.86,24-65,35.49A265.16,265.16,0,0,1,1680,556.22h-7.09a267,267,0,0,1-79.17-11.47q-37.12-11.46-65-35.49t-44.22-60.87q-16.38-36.86-16.38-87.62V358q0-50.78,16.38-87.9T1528.75,209q27.84-24,65-35.49t79.17-11.46H1680a265.15,265.15,0,0,1,78.62,11.46q37.11,11.46,65,35.49t44.22,61.14q16.38,37.14,16.37,87.9Zm420.37-190q-13.09,13.65-17.2,44.22t-4.09,69.88v148.5q0,39.3,4.09,69.88t17.2,44.22v2.73H2173v-2.73a19.25,19.25,0,0,0,.55-5.46,35.37,35.37,0,0,0-3.28-13.65,113.7,113.7,0,0,0-7.64-14.74c-2.92-4.72-5.92-9.19-9-13.37a109.16,109.16,0,0,1-6.83-10.1L2041.92,340.57v92.81q0,39.3,4.1,69.88t17.2,44.22v2.73H1922.36v-2.73q13.11-13.63,17.2-44.22t4.09-69.88V284.88q0-39.3-4.09-69.88t-17.2-44.22v-2.73h132.12v2.73a18.93,18.93,0,0,0-.55,5.46,35.29,35.29,0,0,0,3.28,13.65,112.42,112.42,0,0,0,7.64,14.74q4.37,7.1,8.74,13.37t7.1,10.1L2185,376.6V284.88q0-39.3-4.09-69.88t-17.2-44.22v-2.73h140.85Zm324.83,386.53-2.73,1.09A74.85,74.85,0,0,0,2609.7,554q-10.38-1.63-23.48-2.46t-28.12-1.09q-15-.29-30.84-.27H2342.73v-2.73q13.11-13.63,17.2-44.22t4.09-69.88V284.88q0-39.3-4.09-69.88t-17.2-44.22v-2.73h140.85v2.73q-13.1,13.65-17.19,44.22t-4.1,69.88v181.8H2530q18,0,34.12-.27a202.6,202.6,0,0,0,30.57-2.73,121.63,121.63,0,0,0,27.3-7.92,102.79,102.79,0,0,0,24.84-15.28l2.73.54Zm340.12-386.53q-8.19,4.38-17.2,15.83t-13.37,20.75l-109.19,214v12q0,39.3,4.09,69.88t17.2,44.22v2.73H2710.15v-2.73q13.63-13.63,17.47-44.22t3.82-69.88v-12l-108.64-214a156.09,156.09,0,0,0-13.65-20.75q-8.74-11.46-16.93-15.83v-2.73h137v2.73q-4.36,4.92-4.36,12.56a30.45,30.45,0,0,0,2.73,12.28q2.72,6.28,5.46,11.74l47.49,93.9,48-93.9q2.72-5.45,5.46-11.74a30.78,30.78,0,0,0,2.73-12.28q0-7.65-4.37-12.56v-2.73h137Z" transform="translate(-441.72 -69.36)"/><path d="M1090.86,2563.24q-55.26,0-87.37-12.84-110.5-47.55-172.2-390.61-34.71-196.57-34.68-384.15,0-293,83.53-564.08,68.1-206.85,172.17-292.95,61.62-51.35,133.62-51.38,203,0,292.94,204.28,118.22,260.87,118.21,451,0,242.85-221,349.47-51.45,24.43-134.3,49.47t-138.11,35.33c-14.58,1.71-23.55,4.31-27,7.73s-5.14,11.13-5.14,23.11q0,32.14,29.55,194,24.39,136.23,30.84,136.22,10.27,0,54-205.58l34.68-16.71q35.94-16.68,72-16.7,84.78,0,84.8,47.55,0,25.68-14.14,115.61-21.88,138.81-55.26,205.58-54,110.51-169.6,114.38Zm-27-715.67q84.78-25.68,120.74-39.82,111.8-41.07,169.64-145.18,25.66-55.26,25.67-146.49,0-195.3-100.2-411.16-27-57.83-34.72-57.82-14.12,0-51.38,72Q1123,1255.24,1087,1480.1q-23.12,150.35-23.11,276.27Z" transform="translate(-441.72 -69.36)"/><path d="M2309.83,2619.8q-52.7,0-96.37-23.14-29.58-15.42-29.55-30.85,0-21.87,27-143.89l5.13-24.41-82.23-21.84q-250.55-61.66-380.31-192.74-84.82-80.92-84.8-169.6,11.57-170.89,138.76-236.42,52.68-25.68,131.08-25.71,186.3,0,318.62,125.91l45,43.72q63-362.34,63-607.76,0-118.21-16.7-194-25.74-122-68.1-173.47l-20.57-24.41-44.95,23.14q-167.06,92.55-287.81,361-66.85,155.49-77.1,244.13-3.9,39.84-14.79,48.17T1794.6,1606q-19.3,0-45-5.14-42.4-10.26-65.52-28.24-29.53-23.1-29.55-75.83,0-63,45-199.14Q1826.67,935.32,2034.86,821q32.15-16.69,56.55-21.84,34.66-7.71,98.94-7.71,44.93,0,97.64,18,151.59,50.12,227.42,173.46,57.81,84.84,76.44,174.12t18.63,212.63q0,165.77-19.28,319.92-16.68,127.26-64.22,377.75-39.86,222.3-39.85,236.42c0,.86.2,1.27.65,1.27s4.93,1.5,13.49,4.52,18.86,6.19,30.84,9.62q78.36,25.73,78.37,60.39,0,37.27-96.34,45l-57.82,3.83q-29.58,118.21-41.12,143.93-19.3,41.07-73.26,45Zm-101.51-344.37q7.71-3.79,7.7-20.54a135.34,135.34,0,0,0-2.56-23.14q-12.84-100.18-48.17-186.92t-81.58-134.3q-33.43-33.39-46.29-33.42-35.94,0-75.79,39.85-50.12,51.4-50.12,131.05,0,129.82,227.42,209.45,50.12,18,65.56,18Z" transform="translate(-441.72 -69.36)"/><path d="M3165.18,2664.75q-115.65,0-200.45-87.37-77.13-75.8-114.34-223.55-56.59-241.56-57.82-724.68,0-415,39.81-647.58-111.78,16.74-138.75,16.71-74.57,0-74.53-51.39,0-28.25,24.41-46.25,20.55-14.11,109.83-29.54t96.37-25.71q7.08-10.27,13.52-73.23,11.55-97.67,104.07-97.67a237.59,237.59,0,0,1,41.12,3.87q48.78,6.42,66.79,25.06t23.14,67.44l6.44,51.38q176-19.25,197.87-19.27,77,0,77.06,39.85,0,65.52-170.86,84.8l-113.08,14.14q-41.13,343.08-41.11,858.29,0,203,20.54,350.77,32.14,282.69,120.78,362.3,15.41,9,29.58,9,18,0,33.38-14.14,74.51-87.36,235.15-507.53,32.1-93.76,52.66-137.45t43.71-55.26q11.51-5.13,37.25-5.13,69.38,19.31,69.39,61.66,0,20.58-72,240.29-164.47,474.13-308.38,526.76-15.41,6.42-48.82,14.14Q3184.45,2664.73,3165.18,2664.75Z" transform="translate(-441.72 -69.36)"/><path d="M1515.2,2786h82.49q12.57,0,22.32,9.17t9.75,20.62v740q0,12.6-9.75,21.77t-22.32,9.16H1515.2a31.63,31.63,0,0,1-22.34-9.16q-9.73-9.18-9.73-21.77V3237.3l-216.49,1.13v317.31a31.32,31.32,0,0,1-30.93,30.93h-84.77q-11.45,0-20.63-9.16a29.72,29.72,0,0,1-9.16-21.77v-740q0-11.46,9.16-20.62t20.63-9.17h84.77a30.76,30.76,0,0,1,21.75,8.6,27.87,27.87,0,0,1,9.18,21.19v282.94l216.49-1.15V2815.75q0-11.46,9.73-20.62T1515.2,2786Z" transform="translate(-441.72 -69.36)"/><path d="M2196.77,2992.16l1.15,378a218.37,218.37,0,0,1-29.79,111.11,230.46,230.46,0,0,1-80.19,82.46q-49.24,30.93-108.81,30.93h-37.8q-58.44,0-110-30.35a222.71,222.71,0,0,1-81.32-81.89q-29.79-52.71-29.78-112.26V2993.29q0-60.69,29.2-111.09t80.77-80.21q49.24-28.62,110-28.62H1978q59.57,0,110,28.64a215.33,215.33,0,0,1,80.19,79Q2196.78,2930.3,2196.77,2992.16ZM2049,3365.6V2991q0-37.8-26.35-63t-64.15-25.21h-3.44q-37.8,0-64.71,25.21t-26.92,63V3365.6q0,37.79,26.92,65.85t64.71,28.07h4.59q36.66,0,63-28.07T2049,3365.6Z" transform="translate(-441.72 -69.36)"/><path d="M2433.88,3445.77h171.83q12.6,0,20,7.45t7.46,20v85.92a27.58,27.58,0,0,1-7.46,19.48q-7.44,8-20,8H2319.34a27.35,27.35,0,0,1-27.5-27.49V2810a28.78,28.78,0,0,1,8.59-21.19q8.59-8.6,20.06-8.6h84.76q11.46,0,20.05,8.6a28.85,28.85,0,0,1,8.58,21.19Z" transform="translate(-441.72 -69.36)"/><path d="M3063.9,2923.43H2832.5v175.26h175.26q12.6,0,20.62,8t8,20.6v80.18q0,12.63-8,20.64t-20.62,8H2832.5v208.48h231.4a30.83,30.83,0,0,1,21.75,8.59,27.87,27.87,0,0,1,9.18,21.19v79a31.32,31.32,0,0,1-30.93,30.92H2726q-13.74,0-22.34-9.16a30.68,30.68,0,0,1-8.58-21.76v-740a28.75,28.75,0,0,1,8.58-21.17q8.6-8.59,22.34-8.61H3063.9a30.77,30.77,0,0,1,21.75,8.61,27.85,27.85,0,0,1,9.18,21.17v79a31.32,31.32,0,0,1-30.93,30.94Z" transform="translate(-441.72 -69.36)"/><path d="M784,4891.14q-17.34,0-25.57-3.28-12.36-4.14-19.78-18.13-13.2-23.92-27.19-133.55Q681,4490.54,681,4189.66q0-191.22,19.78-338.79,9.88-69.24,17.31-84.91,9.87-16.49,30.91-32.14t39.16-20.6q18.14-5,46.16-5,54.39,0,149.2,14.84,108.78,14,108.8,45.33,0,22.29-46.16,22.27-19.79,0-70.07-7.43-77.48-9.86-85.73-9.88-7.41,0-9.88,14-3.3,19.79-6.59,83.26-5.79,96.46-5.78,143.43l51.94,2.47q89,3.3,89,36.28,0,9.89-15.26,15.66t-63.88,8.25q-63.48,4.13-66.76,7.41-2.48,5.78-2.47,73.35,0,180.57,6.59,299.24,8.25,159.93,37.92,387.42-23.1,20.58-37.1,29.67Q841.69,4891.13,784,4891.14Z" transform="translate(-441.72 -69.36)"/><path d="M1371.67,4698.25q-33,0-70.06-9.88-205.24-50.29-205.25-314.88,0-126.94,61-249,14-28,45.33-75.83l-35.44-47q-34.62-45.33-34.61-65.13,0-21.43,51.1-21.44,42,0,69.23,14.84t57.72,51.94q20.58,24.75,33.79,35.44a122.76,122.76,0,0,0,31.32,18.13q82.44,32.16,188.77,32.16,84.06-.83,182.17-42.06,34.6-23.06,70.07-23.07,14.82,0,31.32,9.07,21.43,14.85,21.44,36.28a99.43,99.43,0,0,1-5.78,33q-8.26,14.82-44.51,33.79-50.28,26.4-121.17,36.26-23.08,4.13-94.79,5-98.92-4.11-129.42-12.37l-33.81-5.78q0,1.65,37.1,48.65,105.49,133.53,112.1,227.5,1.65,34.64,1.66,49.47,0,131.07-99.74,197Q1438.44,4698.24,1371.67,4698.25Zm-36.26-87.36q11.52,0,32.14-13.19,58.53-39.57,70.07-131.89.83-11.55.84-23.91,0-82.44-63.48-178.89-50.28-75.83-64.29-82.42-7.44,0-26.38,65.13-20.64,70.06-20.62,154.14,0,56.91,6.6,93.14,13.17,59.35,42,101.39,9.9,16.51,15.66,16.5Z" transform="translate(-441.72 -69.36)"/><path d="M1998.05,4698.25q-33,0-70.07-9.88-205.24-50.29-205.25-314.88,0-126.94,61-249,14-28,45.32-75.83l-35.44-47Q1759,3956.4,1759,3936.6q0-21.43,51.11-21.44,42,0,69.23,14.84t57.71,51.94q20.58,24.75,33.79,35.44a122.93,122.93,0,0,0,31.32,18.13q82.44,32.16,188.77,32.16,84.06-.83,182.18-42.06,34.61-23.06,70.06-23.07,14.84,0,31.32,9.07,21.45,14.85,21.44,36.28a99.43,99.43,0,0,1-5.78,33q-8.26,14.82-44.5,33.79-50.29,26.4-121.18,36.26-23.08,4.13-94.79,5-98.91-4.11-129.42-12.37l-33.81-5.78q0,1.65,37.1,48.65,105.49,133.53,112.11,227.5,1.65,34.64,1.65,49.47,0,131.07-99.73,197Q2064.82,4698.24,1998.05,4698.25Zm-36.26-87.36q11.51,0,32.13-13.19,58.53-39.57,70.07-131.89.83-11.55.84-23.91,0-82.44-63.47-178.89-50.29-75.83-64.3-82.42-7.44,0-26.37,65.13-20.64,70.06-20.62,154.14,0,56.91,6.59,93.14,13.17,59.35,42,101.39,9.88,16.51,15.66,16.5Z" transform="translate(-441.72 -69.36)"/><path d="M2537.88,4903.51q-97.29,0-112.94-67.59a9.27,9.27,0,0,1-.82-4.13q-39.55-178.05-69.25-530.84-14-175.57-14-401.45,0-65.1,3.3-84.07,2.46-23.1,20.19-33.38t66.77-18.56a629.5,629.5,0,0,1,104.28-8.25q59.36,0,98.08,5,328.05,51.12,398.14,375.89,4.11,23.91,4.13,61.82,0,83.27-12.36,140.95-35.46,156.62-136.85,312.41-33.81,49.48-92.32,107.17t-108.8,91.5q-78.33,52.74-132.72,52.76Zm45.33-129.41q7.41,0,48.63-39.57,47-44.51,92.32-111.29,93.16-134.35,128.6-270.37,27.19-95.61,27.2-178.05,0-111.27-48.63-199.47-69.24-138.49-206.9-145.08l-44.51-.84q-61,0-66.78,8.25-.82,5.79-.82,23.07,0,102.23,26.38,457.51,13.17,176.4,26.38,295.1,17.3,151.68,17.31,159.92A.72.72,0,0,0,2583.21,4774.1Z" transform="translate(-441.72 -69.36)"/><path d="M3427.2,4955.45a368.9,368.9,0,0,1-59.35-5q-131.89-23.08-172.29-106.33-13.2-23.91-13.19-61.82v-23.09q0-80.79,85.73-190.4,50.28-65.1,124.47-127-241.53-230.79-276.15-277-68.41-88.2-68.41-178.88,0-55.22,19-94.8,16.47-34.61,53.57-71.7,83.23-82.44,188.77-82.44a303.23,303.23,0,0,1,75,9.9q74.18,18.13,117,58.51,69.24,61,79.14,158.27,1.65,14.85,1.65,21.44,0,9.92-12.37,12t-24.73,5.35q-15.67,0-42-10.72-33-11.51-44.51-42-25.58-72.52-56.06-103-23.92-23.89-35.45-23.91-25.53,0-67.59,34.62t-61.83,73.79q-19.77,39.14-19.78,80.36,0,87.41,89,183,40.37,43.69,177.21,182.17l51.94-28.84q45.33-25.55,131.07-63.48,170.61-74.18,212.66-74.19,36.26.85,39.57,47.81a23.51,23.51,0,0,1-4.11,14q0,5.76-10.31,14.82t-59.76,29.69q-136,51.93-232.46,113.76l-44.5,30.48q0,3.3,26.37,38.75,107.13,147.54,107.15,252.24,0,37.92-14,70.07-37.9,70.86-115.82,102.23T3427.2,4955.45Zm-58.53-80q12.38,0,37.09-7.41,98.07-25.57,129.42-95.63,6.59-15.64,6.6-39.56,0-37.1-9.9-66.77-26.4-79.12-63.48-122.82l-31.32,33.79q-90.67,102.22-108.8,197.83a168.42,168.42,0,0,0-.83,17.32,176.14,176.14,0,0,0,3.3,33Q3343.1,4875.48,3368.67,4875.48Z" transform="translate(-441.72 -69.36)"/><path style="fill-rule:evenodd;" d="M3050.35,5129.38c-41.12,15.94-41.39,18.11-85.83,18.11H2539.59v24H2965.8c41.64,0,45.32-.7,84.55,12.47-41.12,15.93-41.39,14.88-85.83,14.88l-424.93,6.45h-54c-31.45,0-50.36-29.12-65.5-53.89-46.42-76-992.33,78.32-1204.73,44.82-184.56-29.09-184-159.41,0-188.43,212.41-33.49,1158.3,120.84,1204.73,44.83,15.12-24.76,34.05-53.89,65.5-53.89h54l426.21,6.44c41.64,0,45.32-.69,84.55,12.47-41.12,15.93-41.39,14.89-85.83,14.89H2539.59v24H2965.8c41.64,0,45.32,2.51,84.55,15.69-41.12,15.93-41.39,18.11-85.83,18.11H2539.59v23.39H2965.8C3007.44,5113.7,3011.12,5116.21,3050.35,5129.38Z" transform="translate(-441.72 -69.36)"/></svg>


