<svg xmlns="http://www.w3.org/2000/svg" viewBox="0 0 3873.84 5153.17" width="500" height="500"><path style="fill-rule:evenodd;" d="M3925.88,5141.1c-67.29,26.08-67.73,29.64-140.45,29.64H3090.08V5210h697.44c68.14,0,74.17-1.14,138.36,20.41-67.29,26.07-67.73,24.36-140.45,24.36l-695.35,10.54h-88.29c-51.47,0-82.41-47.65-107.19-88.18-76-124.36-1623.83,128.16-1971.4,73.34-302-47.61-301.17-260.86,0-308.35,347.58-54.8,1895.43,197.75,1971.4,73.36,24.75-40.52,55.73-88.19,107.19-88.19h88.29l697.44,10.55c68.14,0,74.17-1.14,138.36,20.4-67.29,26.07-67.73,24.37-140.45,24.37H3090.08v39.27h697.44c68.14,0,74.17,4.1,138.36,25.67-67.29,26.06-67.73,29.62-140.45,29.62H3090.08v38.28h697.44C3855.66,5115.44,3861.69,5119.56,3925.88,5141.1Z" transform="translate(-374.52 -112.13)"/><path d="M1184.14,2650.78q-27.27,0-39.82-17.09t-12.54-44.36a125.56,125.56,0,0,1,1.73-20.77q7.79-42.84,37.21-69.67,18.6-17.31,44.58-17.31,12.1,0,19,6.92t6.92,14.72a32.72,32.72,0,0,1-2.16,10.82q8.64,5.19,12.76,18.39a85.09,85.09,0,0,1,4.11,25.31,109.85,109.85,0,0,1-6.49,36.35,101.46,101.46,0,0,1-25.1,40.25A55.62,55.62,0,0,1,1184.14,2650.78Zm21.64,357.45q-58,0-58-118.14,0-67.93,19-183.91,6-44.14,30.29-44.15,17.31,0,17.74,24.67v16.88q-2.16,50.63-2.16,138.48a822.79,822.79,0,0,0,8.22,113.81,27.23,27.23,0,0,1,7.79-1.3q10.82,0,10.82,14.72,0,16-11.68,29A28,28,0,0,1,1205.78,3008.23Zm-14.29-396.83q6.49,0,12.12-7.79,8.66-12.11,14.71-34.18a135.17,135.17,0,0,0,4.77-29.43q-.45-12.54-6.06-12.55-6.49,0-12.12,6.92-10,11.68-16,34.19-4.34,16-4.33,28.13Q1184.57,2611.4,1191.49,2611.4Z" transform="translate(-374.52 -112.13)"/><path d="M1379.31,3000.88a45.87,45.87,0,0,1-29-10.17q-13-10.17-13-21.86,0-15.13,11.25-29.42t29.43-14.29q11.25,0,20.77,11.26,13.41,0,31.16-13.42,26-20.34,50.2-53.66,17.73-25.09,17.74-37.22c0-3.17-2.75-4.76-8.22-4.76q-16.87,0-87.42,24.24-67.5,22.93-84.82,22.93-62.75,0-62.74-65.34,0-33.32,16.87-72.27,32-72.71,95.64-122.9t122-50.2q45,0,45,34.19,0,18.62-14.71,34.62-11.68,12.55-27.27,12.55-14.71,0-22.5-10.82-33.33,18.18-87.85,75.3-61.45,64.05-61.45,93.47,0,6.06,7.79,6.06,9.51,0,45-13.85,73.13-29,116-29,33.33,0,50.2,15.14,13.85,13,13.85,41.55,0,35.49-29.43,77-37.65,52.8-85.68,81.78Q1407.43,3000,1379.31,3000.88Z" transform="translate(-374.52 -112.13)"/><path d="M1962.65,3033.33q-15.15,0-29.21-12.55t-20.13-35.05a175.61,175.61,0,0,1-6-45.87V2936q-52.8,59.73-96.94,59.72-27.25,0-40.89-17.09t-13.63-40.9a90.44,90.44,0,0,1,10.38-41.54q32-62.31,108.62-102.56a318.93,318.93,0,0,1,54.53-22.5q15.57-99.09,15.58-142.81,0-48-18.18-48-27.7,0-62.32,30.29-20.34,17.31-42.62,48t-22.29,57.56q0,19.9,24.24,27.69,12.1,3.9,12.11,15.58,0,9.53-6.49,13.42a16.68,16.68,0,0,1-8.65,2.59q-70.55-8.64-70.54-70.1,0-37.21,25.1-74.87,38.07-58,95.2-90.44,29.43-16.87,59.72-16.88,80.05,0,80.06,132.42,0,63.2-13.85,165.31-10,75.3-10,107.32a164.64,164.64,0,0,0,1.3,22.08,23.1,23.1,0,0,1,7.35-1.3,14.13,14.13,0,0,1,13,7.35q5.61,10,5.62,23.37,0,26-16,39.81T1962.65,3033.33Zm-157.09-89.15q9.09,0,23.8-15.57,40.68-42.41,81.36-116-29.87,16-61,42t-44.57,56.25q-6.93,14.73-6.93,22.51Q1798.2,2944.19,1805.56,2944.18Z" transform="translate(-374.52 -112.13)"/><path d="M2139.64,3111.66q-53.66,0-59.72-102.13-3.47-49.34-3.46-108.19,0-85.68,9.09-191.27,15.57-178.29,38.95-311.58a78.25,78.25,0,0,1,11.9-30.94q8.86-13.2,19.69-13.2,9.07,0,13.63,13a87.3,87.3,0,0,1,4.54,29c0,3.46-.15,6.64-.43,9.52q-17.74,142.8-20.77,237.79t-3,130.48a1900.07,1900.07,0,0,0,13,224.59h5.63q10.8,0,18.17,8.66,9.51,10.38,9.52,27.26,0,13.41-9.09,33.75a107.4,107.4,0,0,1-20.77,30.51Q2153.92,3111.66,2139.64,3111.66Z" transform="translate(-374.52 -112.13)"/><path d="M2321.4,2991.36q-49.77,0-74.87-99.1-24.24-96.93-24.23-253.16,0-54.53,2.16-92.61.42-10.38,6.49-17.31a23.91,23.91,0,0,1,18.61-8.22,24.52,24.52,0,0,1,16.66,6.27q7.14,6.29,7.57,16.67,14.72,238.88,37.22,331.91,7.78,33.33,17.31,33.32,22.93,0,72.27-264,6.91-36.78,26.83-36.79,17.73,0,24.88,29.65t14.06,89.79q4.33,39.39,11,77.9t21,70.1l4.76-34.62q29.42-209,60.58-280,3.46-7.35,7.58-10.81a14.59,14.59,0,0,1,9.73-3.47,9.3,9.3,0,0,1,8,3.9,15.16,15.16,0,0,1,2.81,9.09,46,46,0,0,1-1.73,11.68q-9.52,32-20.77,115.54-14.28,108.63-28.56,171.8-20.36,87.86-43.71,87.85-59.3,0-81.79-162.28Q2376.78,2991.37,2321.4,2991.36Z" transform="translate(-374.52 -112.13)"/><path d="M2819.92,3033.33q-15.15,0-29.21-12.55t-20.12-35.05a175.19,175.19,0,0,1-6.06-45.87V2936q-52.8,59.73-96.94,59.72-27.26,0-40.89-17.09t-13.63-40.9a90.44,90.44,0,0,1,10.38-41.54q32-62.31,108.62-102.56a319.26,319.26,0,0,1,54.53-22.5q15.57-99.09,15.58-142.81,0-48-18.18-48-27.69,0-62.31,30.29-20.36,17.31-42.63,48t-22.29,57.56q0,19.9,24.24,27.69,12.1,3.9,12.11,15.58,0,9.53-6.49,13.42a16.68,16.68,0,0,1-8.65,2.59q-70.55-8.64-70.54-70.1,0-37.21,25.1-74.87,38.07-58,95.2-90.44,29.43-16.87,59.72-16.88,80.05,0,80.06,132.42,0,63.2-13.85,165.31-10,75.3-10,107.32a164.64,164.64,0,0,0,1.3,22.08,23.15,23.15,0,0,1,7.36-1.3,14.13,14.13,0,0,1,13,7.35q5.61,10,5.62,23.37,0,26-16,39.81T2819.92,3033.33Zm-157.09-89.15q9.09,0,23.8-15.57,40.68-42.41,81.36-116-29.86,16-61,42t-44.57,56.25q-6.93,14.73-6.93,22.51Q2655.47,2944.19,2662.83,2944.18Z" transform="translate(-374.52 -112.13)"/><path d="M2962.29,3151q-39.37,0-58.85-35.49a92,92,0,0,1-11.68-45.87q0-16.45,9.52-26.83t26.83-10.39c3.74,0,6.27,1.23,7.57,3.68a16.82,16.82,0,0,1,2,8q0,9.95-6.49,29-4.77,13.84-4.77,20.78,0,19,22.94,19,48,0,81.79-106.46,35.05-110.36,51.93-297.73a539.33,539.33,0,0,1-30.29,78.33q-37.23,78.77-77,78.76-23.37,0-35.49-14.5t-15.79-35.05a228.62,228.62,0,0,1-3.68-40.46q0-58.84,26.4-152.76,3.45-12.56,16.44-12.55c6.64,0,11.1,1.95,13.42,5.84s3.46,7.29,3.46,10.17V2630q-14.28,87.42-14.28,139.78,0,15.15,1.3,28.56,2.6,26.4,14.71,26.4,22.93,0,60.15-95.64Q3067,2664.64,3096,2579q5.63-17.74,18.18-17.75,18.17,0,27,20.34t13.2,53.23q3,25.55,3.46,49.34t.44,32.45a1078.22,1078.22,0,0,1-13.85,170.5q-18.18,112.09-58.85,181.76Q3037.59,3151,2962.29,3151Z" transform="translate(-374.52 -112.13)"/><path d="M3317.15,3000.88a45.87,45.87,0,0,1-29-10.17q-13-10.17-13-21.86,0-15.13,11.25-29.42t29.43-14.29q11.25,0,20.77,11.26,13.41,0,31.16-13.42,26-20.34,50.2-53.66,17.73-25.09,17.74-37.22c0-3.17-2.75-4.76-8.22-4.76q-16.89,0-87.42,24.24-67.51,22.93-84.82,22.93-62.75,0-62.75-65.34,0-33.32,16.88-72.27,32-72.71,95.64-122.9t122-50.2q45,0,45,34.19,0,18.62-14.72,34.62-11.68,12.55-27.26,12.55-14.72,0-22.5-10.82-33.33,18.18-87.85,75.3-61.45,64.05-61.45,93.47,0,6.06,7.79,6.06,9.51,0,45-13.85,73.13-29,116-29,33.33,0,50.2,15.14,13.84,13,13.85,41.55,0,35.49-29.43,77-37.65,52.8-85.68,81.78Q3345.27,3000,3317.15,3000.88Z" transform="translate(-374.52 -112.13)"/><path d="M959.52,2725.91c-66.64,1.94-116.5,27.62-162.1,66.85-26,22.39-57.21,39.76-88.24,55-20.17,9.9-44,14.17-66.61,16.72-22.32,2.51-43.45-6.73-52.69-28.29-9.47-22.1-8.6-46.65,7.83-65.7,13.68-15.86,29.31-32.09,47.49-41.66,97.88-51.48,199.65-53.8,303.19-18.48C951.2,2711.28,952.69,2716.1,959.52,2725.91Z" transform="translate(-374.52 -112.13)"/><path d="M1022.5,2610.48c-9.53-5.61-15.52-8.65-21-12.44a124.7,124.7,0,0,0-77.29-22.76c-15,.5-30.29.84-45.11-1.2a217.93,217.93,0,0,1-43.38-11.17c-16.23-5.82-22.09-19.64-21.66-36,.46-17.67,10.76-31.37,28.19-36,31.9-8.46,63.13-3.94,91.55,11.62,39.3,21.5,70.05,52.15,88.57,93.76C1023.35,2598.49,1022.5,2601.49,1022.5,2610.48Z" transform="translate(-374.52 -112.13)"/><path d="M968.65,2865.25c-33.09,48.1-56.58,85.15-83.35,119.66C874.73,2998.53,858,3009,842,3016.35c-19.17,8.79-44.84-8.62-45.2-30.14-.26-15.06.93-32.81,8.56-44.88C839.88,2886.61,890.25,2861.34,968.65,2865.25Z" transform="translate(-374.52 -112.13)"/><path d="M3663.36,2725.91c66.65,1.94,116.5,27.62,162.1,66.85,26,22.39,57.22,39.76,88.25,55,20.16,9.9,44,14.17,66.61,16.72,22.32,2.51,43.45-6.73,52.68-28.29,9.47-22.1,8.6-46.65-7.83-65.7-13.68-15.86-29.3-32.09-47.49-41.66-97.87-51.48-199.64-53.8-303.19-18.48C3671.68,2711.28,3670.19,2716.1,3663.36,2725.91Z" transform="translate(-374.52 -112.13)"/><path d="M3600.38,2610.48c9.53-5.61,15.52-8.65,21-12.44a124.67,124.67,0,0,1,77.28-22.76c15,.5,30.29.84,45.11-1.2a217.93,217.93,0,0,0,43.38-11.17c16.23-5.82,22.09-19.64,21.66-36-.46-17.67-10.76-31.37-28.18-36-31.91-8.46-63.13-3.94-91.56,11.62-39.29,21.5-70.05,52.15-88.56,93.76C3599.53,2598.49,3600.38,2601.49,3600.38,2610.48Z" transform="translate(-374.52 -112.13)"/><path d="M3654.23,2865.25c33.1,48.1,56.58,85.15,83.35,119.66,10.57,13.62,27.31,24.08,43.33,31.44,19.16,8.79,44.83-8.62,45.2-30.14.26-15.06-.94-32.81-8.56-44.88C3783,2886.61,3732.63,2861.34,3654.23,2865.25Z" transform="translate(-374.52 -112.13)"/><g><path d="M775.13,609.18c13.54-25.92,31.13-46.06,51-64.52,12-11.14,25.71-5.78,39.07-5.81,42.27-.11,56.25,35.51,50.55,72.89-4.25,27.77-15.06,53.36-29.06,77.52-16.13,27.83-32.89,55.3-49.24,83a30,30,0,0,0-3.75,10c-3.7,22.53-21.3,31.14-39,40.05-9.75,4.89-17.34-.56-22.66-6.07-24.6-25.53-48.15-52.06-72.28-78.07-11.57-12.47-23.44-24.68-35.44-36.73-2.75-2.76-6.71-4.28-9.88-6.68-7.82-5.92-14.85-11.9-13-23.73.87-5.67-1-11.95-2.41-17.74-8.39-33.73,11.83-66.83,46-73.08,25.55-4.65,50.9-2.61,73.81,10.78,6.34,3.71,10.38,11.32,16.36,18.16Z" transform="translate(-374.52 -112.13)"/></g><path d="M841.91,370.66c-60.27,17.64-119.69,38.14-179.6,57-66.91,21.12-134.4,40.52-199.59,66.75-29,11.68-32.2,17.36-28.77,47.54.25,2.18.6,4.35.75,6.54,7.67,113.19,29.95,223.29,71.75,328.94,15,38,31.05,75.82,53.88,110.08,6.17,9.24,14.07,17.36,27.29,13.52,12.57-3.66,296.29-103.17,372.75-128.58,100.65-33.44,200.91-68,302.38-99.06,139-42.52,278.49-83.6,414.88-134.39,16.63-6.19,19.82-14,19-28.33-2.95-50.41-41.06-84.56-98.29-86.07-50.72-1.35-100.59,6.61-150.11,17.05C1352,562,1259.32,593.65,1163.82,630.28c-9.46-35.36-18.56-69.09-27.51-102.85-17.21-65-30.81-130.93-60.46-192.21-6-12.42-12.85-16.44-23.84-17.32a66.31,66.31,0,0,0-21.74,2.17C967.4,336.62,904.29,352.4,841.91,370.66ZM1082,471.15c17.16,72.66,32.25,145.88,56.87,216.55,8.37,24,18.56,47.38,28.18,71.7-57,18.81-113.4,36.69-169.3,56-103.79,35.86-209.85,64.4-314.16,98.52-33.24,10.86-65.08,25.13-95,40.93-63.4-113-87.18-237.44-112.06-362,199.12-46.48,385.66-133,584.68-185.93C1071.24,426.07,1076.67,448.63,1082,471.15Zm-29.29-84.81C857.21,444.09,662.9,503.59,472.48,576.92c-4.09-15-7.38-29.86-8.4-47.88,189-73.18,387.46-111.35,577.07-184.75C1045.69,360.84,1049.08,373.2,1052.69,386.34Z" transform="translate(-374.52 -112.13)"/><path d="M435.83,391.85c-3.94,3.64-6.36,8.33-3.92,13.78,2.27,5.05,6.48,8.24,12.15,7.33a205.34,205.34,0,0,0,25.7-5.37c57.48-16.9,114.83-34.22,172.32-51.08,92.46-27.1,185.84-51.23,276.27-84.9,8.17-3,16.46-5.91,24.45-9.42,8.87-3.91,4.66-17.35-4.85-15.51-15.4,3-30.37,7.87-45.66,11.05q-100,20.76-198.54,47.69c-79.19,21.75-159,41.74-234.81,74.35C451,383.21,442.4,385.79,435.83,391.85Z" transform="translate(-374.52 -112.13)"/><path d="M1054.81,238.18c2.45-8.22,1.26-15.87-6.1-21.34-9.46-7-19.11-4.28-28.61.1a94.18,94.18,0,0,0-9.51,5.08c-11.93,7.29-12.67,19-1.8,27.82,6.68,5.4,14.41,6.18,22.56,5C1042.81,253.21,1052.23,246.81,1054.81,238.18Z" transform="translate(-374.52 -112.13)"/><path d="M575.1,871.38c5.09,30.89,18.18,39.17,52.89,33.49,37-6,52.72-23.43,48.35-53.3-4.29-29.28-27.12-44.45-59.17-39.29C584.92,817.47,569.73,838.8,575.1,871.38Zm78.61-32.71c8.73,10.88,5.7,22.69-.57,32.26-12.57,19.22-29.33,15.39-47.55,11.49a15.07,15.07,0,0,1-12.06-14.54c.06-17.38,5.62-30.16,23.23-36.76C630.32,826,643.5,825.93,653.71,838.67Z" transform="translate(-374.52 -112.13)"/><path d="M3637.18,671.06c-1.8,11.83,5.24,17.81,13.05,23.73,3.17,2.4,7.13,3.92,9.88,6.68,12,12,23.87,24.26,35.45,36.73,24.12,26,47.67,52.54,72.28,78.07,5.31,5.51,12.9,11,22.66,6.07,17.7-8.91,35.3-17.52,39-40.05a30,30,0,0,1,3.75-10c16.35-27.7,33.11-55.17,49.25-83,14-24.16,24.8-49.75,29.05-77.52,5.7-37.38-8.28-73-50.55-72.89-13.36,0-27.09-5.33-39.07,5.81-19.83,18.46-37.42,38.6-51,64.52-6-6.84-10-14.45-16.36-18.16-22.9-13.39-48.26-15.43-73.8-10.78-34.21,6.25-54.43,39.35-46,73.08C3636.22,659.11,3638.05,665.39,3637.18,671.06Z" transform="translate(-374.52 -112.13)"/><path d="M4160.17,494.46c-65.2-26.23-132.69-45.63-199.6-66.75-59.9-18.91-119.33-39.41-179.6-57-62.38-18.26-125.49-34-188.36-50.59a66.28,66.28,0,0,0-21.73-2.17c-11,.88-17.83,4.9-23.84,17.32-29.65,61.28-43.26,127.24-60.47,192.21-8.94,33.76-18,67.49-27.5,102.85-95.5-36.63-188.17-68.29-284.39-88.58-49.52-10.44-99.4-18.4-150.12-17.05-57.23,1.51-95.33,35.66-98.29,86.07-.83,14.28,2.36,22.14,19,28.33,136.39,50.79,275.88,91.87,414.89,134.39,101.46,31,201.72,65.62,302.37,99.06,76.46,25.41,360.19,124.92,372.76,128.58,13.21,3.84,21.12-4.28,27.28-13.52,22.83-34.26,38.85-72.08,53.88-110.08,41.8-105.65,64.08-215.75,71.76-328.94.15-2.19.5-4.36.75-6.54C4192.36,511.82,4189.2,506.14,4160.17,494.46Zm-125.9,460.39c-29.88-15.79-61.72-30.06-94.95-40.92-104.32-34.12-210.38-62.66-314.17-98.52-55.9-19.32-112.29-37.2-169.3-56,9.62-24.32,19.82-47.69,28.18-71.7,24.62-70.67,39.72-143.89,56.87-216.55,5.31-22.52,10.75-45.08,20.74-64.18,199,52.91,385.56,139.45,584.69,185.93C4121.44,717.42,4097.67,841.88,4034.27,954.85ZM4150.4,576.92C3960,503.59,3765.68,444.09,3570.2,386.34c3.6-13.14,7-25.5,11.53-42,189.61,73.4,388,111.57,577.08,184.75C4157.78,547.06,4154.49,561.93,4150.4,576.92Z" transform="translate(-374.52 -112.13)"/><path d="M4187.05,391.85c-6.56-6.06-15.11-8.64-23.11-12.08-75.77-32.61-155.61-52.6-234.81-74.35q-98.48-27.06-198.54-47.69c-15.29-3.18-30.25-8.07-45.65-11.05-9.52-1.84-13.72,11.6-4.85,15.51,8,3.51,16.27,6.38,24.44,9.42,90.44,33.67,183.81,57.8,276.27,84.9,57.49,16.86,114.85,34.18,172.33,51.08a205.19,205.19,0,0,0,25.69,5.37c5.67.91,9.89-2.28,12.15-7.33C4193.41,400.18,4191,395.49,4187.05,391.85Z" transform="translate(-374.52 -112.13)"/><path d="M3591.53,254.81c8.16,1.21,15.89.43,22.57-5,10.87-8.78,10.13-20.53-1.8-27.82a95.42,95.42,0,0,0-9.52-5.08c-9.49-4.38-19.15-7.13-28.61-.1-7.35,5.47-8.54,13.12-6.09,21.34C3570.65,246.81,3580.07,253.21,3591.53,254.81Z" transform="translate(-374.52 -112.13)"/><path d="M3994.9,904.87c34.71,5.68,47.79-2.6,52.88-33.49,5.37-32.58-9.81-53.91-42.06-59.1-32-5.16-54.89,10-59.17,39.29C3942.18,881.44,3957.94,898.82,3994.9,904.87Zm-25.73-66.2c10.22-12.74,23.39-12.63,37-7.55,17.6,6.6,23.17,19.38,23.23,36.76a15.09,15.09,0,0,1-12.06,14.54c-18.23,3.9-35,7.73-47.56-11.49C3963.48,861.36,3960.44,849.55,3969.17,838.67Z" transform="translate(-374.52 -112.13)"/><path d="M1883.9,1039.53q-47.36,0-67.4-41.22-25.62-52.37-25.62-214.44,0-105.27,13.37-236.17,17.26-164.86,41.22-298a1108.15,1108.15,0,0,0-125.88,33.42Q1616,317.68,1616,353.87q0,11.14,16.15,11.14,8.35,0,20.61-3.9a21.07,21.07,0,0,1,6.68-1.11,13.73,13.73,0,0,1,11.14,5.57,20.73,20.73,0,0,1,4.46,13.36q0,13.38-15.6,18.66t-29,5.29q-30.08,0-46-20.88t-15.88-48.18q0-65.71,68.51-106.95,78-46.78,183.81-66.28l44-7.24a89.73,89.73,0,0,1,14.48-25.06q12.81-16.15,29-16.16,12.81,0,18.94,11.14a58.41,58.41,0,0,1,7.24,22.28q42.32-3.88,81.32-3.9,66.27,0,108.61,11.7,65.71,18.38,65.73,69.62a46.13,46.13,0,0,1-10.59,29.8q-10.57,13.1-31.19,13.09-40.66,0-40.66-21.72a17.49,17.49,0,0,1,2.79-9.47q-35.66-7.23-80.21-7.24a721.39,721.39,0,0,0-104.16,7.8,2907.82,2907.82,0,0,0-26.73,392.12,1944.55,1944.55,0,0,0,18.93,274h8.36q15,0,26.73,10.59,13.92,12.25,13.93,32.3,0,17.82-13.37,42.33a136.23,136.23,0,0,1-30.63,37.32Q1905.06,1039.51,1883.9,1039.53Z" transform="translate(-374.52 -112.13)"/><path d="M2257.09,1058.47q-68.52,0-76.87-121.43-4.47-57.91-4.46-126.44,0-103,11.7-230.59,20.05-212.76,50.13-371.52A90.16,90.16,0,0,1,2252.91,172q11.4-15.87,25.9-15.87,11.13,0,17.27,14.2t6.12,33.14q0,7.8-.55,13.92-31.21,232.83-31.2,438.92,0,54,2.79,106.94,1.66-8.35,8.35-31.75,12.81-43.44,36.77-95.8Q2371.27,518.18,2437,518.18q67.4,0,67.4,114.74,0,27.3-2.23,58.49-2.79,36.21-2.78,71.85,0,66.29,18.38,66.28,19.48,0,51.24-50.13,9.47-13.92,19.5-13.92,15,1.13,15,21.72,0,26.73-35.37,68.51t-61.55,41.77q-85.78,0-85.78-125.88,0-32.29,7.24-75.75,11.15-69.06,11.14-98.59,0-30.07-12.25-30.07-31.75,0-71.85,111.4a1813.18,1813.18,0,0,0-56.26,189.93q-11.7,48.47-11.7,55.7h7.24q13.92,0,24.79,11.14t10.86,31.19q0,16.71-11.69,40.66a132.62,132.62,0,0,1-26.74,35.93Q2275.45,1058.46,2257.09,1058.47Z" transform="translate(-374.52 -112.13)"/><path d="M2705.47,897.49a60.44,60.44,0,0,1-25.07-5q-15.6-6.68-27.29-22.28Q2632.5,842.92,2632.5,805q0-42.88,15.32-75.47a287.25,287.25,0,0,1,37-59.32,151.62,151.62,0,0,1-17.83,1.12q-47.91,0-70.74-33.43-13.92-20.59-13.92-56.25,0-44,22.28-84.66,42.88-79.09,130.89-127.56,57.93-32.29,103.6-32.3,64.05,0,64.06,62.38,0,20.61-8.91,28.13T2877,435.19q-22.84,0-27.85-23.95-33.42,5.58-88,42.05t-90.24,82.16q-24,31.2-23.95,46.23,0,13.94,19.5,13.92,22.83,0,71.85-22.28,65.16-29.51,81.88-29.52,18.38,0,26.18,15a21,21,0,0,1,2.22,9.47q0,19.5-34.53,47.35Q2678.73,725.39,2678.73,800q0,34,28.41,34,22.26,0,51.24-17.83a328.89,328.89,0,0,0,56.26-44.28,425.33,425.33,0,0,0,46.23-52.08q10.58-14.47,20.05-14.48,17.26,0,17.27,21.72,0,9.48-6.13,21.17Q2861.42,805.6,2808.79,851T2705.47,897.49Z" transform="translate(-374.52 -112.13)"/><path d="M936.62,1183.42q78.24,0,123.87,11.59t67.37,11.59q21.72,0,42.73-1.45t36.94-11.59l7.25,2.9q7.23,85.5,10.86,170.23t10.87,170.22l-7.24,2.9q-55.08-69.54-133.29-103.59t-159.36-34a335.27,335.27,0,0,0-109.37,18.11,264.44,264.44,0,0,0-93.45,55q-40.57,36.95-65.19,94.89T644,1706.41q0,78.22,24.63,135.45t65.19,94.9a258.62,258.62,0,0,0,93.45,55.77,334.74,334.74,0,0,0,109.37,18.11q127.47,0,212.24-48.53t135.46-134l7.24,1.45-58,356.38q-68.11,20.31-147.77,31.88T936.62,2229.4H917.79q-111.57,0-210.06-30.43t-172.4-94.16Q461.44,2041.08,418,1943.27t-43.47-232.51v-7.25q0-134.73,43.47-233.24T535.33,1308q73.89-63.73,172.4-94.16t210.06-30.43Z" transform="translate(-374.52 -112.13)"/><path d="M1759.49,1199.36v7.24q-34.77,36.24-45.64,117.35T1703,1509.38v131.84l326-40.57v-91.27q0-104.3-10.87-185.43t-45.63-117.35v-7.24h373.77v7.24q-34.77,36.24-45.64,117.35t-10.86,185.43v394q0,104.31,10.86,185.44t45.64,117.35v7.24H1972.45v-7.24q34.77-36.19,45.63-117.35T2029,1903.43V1787.54l-326,40.56v75.33q0,104.31,10.86,185.44t45.64,117.35v7.24H1385.72v-7.24q34.77-36.19,45.63-117.35t10.87-185.44v-394q0-104.3-10.87-185.43t-45.63-117.35v-7.24Z" transform="translate(-374.52 -112.13)"/><path d="M2454.86,2213.46v-7.24q34.77-36.19,45.63-117.35t10.87-185.44v-394q0-104.3-10.87-185.43t-45.63-117.35v-7.24h573q45.64,0,85.48-2.17t71-6.52q31.14-4.35,50-13l7.25,2.9,52.15,308.57-7.24,1.45q-31.89-26.07-65.92-39.84a349,349,0,0,0-72.43-20.28,605,605,0,0,0-80.41-8q-42-1.43-89.82-1.45H2772.12v188.34h165.16q71,0,128.93-7.25t89.82-34.77l7.25,2.9v294.09l-7.25,2.9q-31.87-27.51-65.19-42a312,312,0,0,0-70.26-21,564.21,564.21,0,0,0-78.23-8q-41.29-1.43-89.1-1.45h-81.13v197h227.45q47.82,0,89.82-.73a534.46,534.46,0,0,0,80.41-7.24,321.75,321.75,0,0,0,72.43-21q34-14.46,65.92-40.56l7.24,1.45-52.15,308.57-7.24,2.9q-18.86-8.68-50-13t-71-6.52q-39.87-2.18-85.48-2.17H2454.86Z" transform="translate(-374.52 -112.13)"/><path d="M3409.55,2213.46v-7.24q34.77-36.19,45.64-117.35t10.86-185.44v-394q0-104.3-10.86-185.43t-45.64-117.35v-7.24h573q45.63,0,85.48-2.17t71-6.52q31.14-4.35,50-13l7.25,2.9,52.15,308.57-7.24,1.45q-31.89-26.07-65.92-39.84a349.18,349.18,0,0,0-72.43-20.28,605.15,605.15,0,0,0-80.41-8q-42-1.43-89.82-1.45H3726.82v199.93H3892q71,0,128.93-7.25t89.82-34.77l7.25,2.9v294.09l-7.25,2.9q-31.87-27.51-65.19-42a312,312,0,0,0-70.26-21,564.21,564.21,0,0,0-78.23-8q-41.3-1.42-89.1-1.45h-81.13v97.06q0,104.31,10.87,185.44t45.63,117.35v7.24Z" transform="translate(-374.52 -112.13)"/><path d="M589,4802.45q-25.5,0-42.52-7.56-55.74-27.44-131.3-510.13-39.69-256.93-39.67-497.84,0-137.9,15.12-243.72,19.82-133.17,63.28-157.76,24.54-11.3,64.25-11.32,90.69,0,90.69,52.9,0,18.89-7.56,98.25-8.5,100.13-8.5,212.54,0,81.26,13.21,333.46l25.52-108.62q65.16-290,159.65-452.5,83.1-145.47,209.72-176.67a297.73,297.73,0,0,1,53.84-4.7,359.38,359.38,0,0,1,56.67,4.7q189.84,29.3,251.27,200.28,23.64,56.68,23.64,185.15,0,220.14-116.21,412.82-39.69,67.1-107.68,136t-135.09,109.6q-39.7,23.64-141.71,62.34-39.69,15.12-51.49,15.58c-7.88.33-11.79,2.38-11.79,6.15q14.16,50.06,75.57,105.8t123.74,66.11q13.23,0,39.7-33.06,23.6-23.59,38.72-30.7t43.44-7.08q21.71,0,46.76,7.56t26,27.4q0,26.46-54.79,71.78-28.35,25.5-54.78,35.9-33.08,13.24-84.1,13.24-55.74,0-144.53-32.12t-143.59-93.53l-18.88-19.85q-1.89,108.68-5.67,142.2t-14.17,47.7Q671.14,4797.72,589,4802.45Zm143.59-429.83q7.55-.93,51-17.94,97.3-39.69,158.7-92.59,221-187,256-493.11,7.54-56.64,7.56-105.8,0-122.8-41.58-197.43-17-30.23-27.88-35.9c-7.23-3.77-14.32-5.68-21.23-5.68a86.86,86.86,0,0,0-21.73,5.68q-114.33,35-199.34,242.77-93.51,214.46-147.36,545.07Q725.92,4343.35,725.94,4366,725.94,4372.63,732.55,4372.62Z" transform="translate(-374.52 -112.13)"/><path d="M1557.5,3640.51q-30.26,0-44.4-1.89-66.16-18.87-66.13-64.24,0-11.31,13.23-28.33a39.52,39.52,0,0,1,26.44-14.17,242.15,242.15,0,0,1,24.58-.94q35.87,0,73.66,16.06,52.89,23.63,52.9,50.05,0,14.19-15.11,28.34a45.76,45.76,0,0,1-19.85,11.82Q1591.48,3640.53,1557.5,3640.51Zm6.62,997.56q-78.42,0-92.6-52.9-23.64-100.12-23.61-404.3,0-145.47,13.23-336.32,6.61-95.4,17.94-103,25.5-16.07,61.4-16.06,52.89,0,79.36,23.61c6.3,4.42,10.21,11.82,11.8,22.21s2.67,43.63,3.32,99.68l-1.89,422.24q0,152.13,2.83,213.51,3.8,46.32,3.79,70.84,0,39.71-20.32,50.08T1564.12,4638.07Z" transform="translate(-374.52 -112.13)"/><path d="M2215.06,4739.17a228.92,228.92,0,0,1-60.46-8.53q-118.11-28.32-141.7-164.35-5.69-29.29-5.68-44.4,0-18,11.35-29.29,6.59-6.62,34.94-6.62,83.1,0,97.3,39.67c1.89,7.59,3.45,15.76,4.73,24.56q1.86,23.64,13.21,52,7.55,18.91,11.35,18.9c2.5,0,6-2.2,10.38-6.61q31.16-30.22,68-102Q2352,4328.22,2387,3926.74l-74.63,147.36q-144.54,291-235.22,343.87-34,20.8-78.4,20.79-32.1,0-69.89-11.35-65.19-18.89-101.57-60T1769.18,4247q-11.37-47.19-11.35-144.53,0-116.17,14.18-184.2,75.56-334.38,264.5-450.61,73.66-46.27,167.2-46.28,97.3,0,197.43,67.07,34,22.68,61.4,31.17,55.76,17,58.58,62.34,1.86,23.64,17.94,113.36a1382.46,1382.46,0,0,1,21.73,246.57q0,119-18.88,243.71-24.57,172.91-62.84,281.06t-101.54,186.56Q2308.55,4739.16,2215.06,4739.17Zm-232.39-436.44q41.55-47.25,62.34-72.75,83.1-103,186.11-318.35,122.79-257.87,122.8-309.85-1-30.21-11.35-37.32a39.65,39.65,0,0,0-22.67-7.08q-50.07,0-114.3,46.28-163.42,116.22-219.17,412.83-13.23,81.24-13.2,180.43Q1973.23,4245.1,1982.67,4302.73Z" transform="translate(-374.52 -112.13)"/><path d="M3258.17,4741.05a192.29,192.29,0,0,1-40.63-4.73q-66.12-15.14-72.72-59.52-3.8-21.71-7.56-316.47-49.14,7.59-162.5,9.47l-126.56,4.71q5.64,153,5.65,177.61,0,33.07-1.89,39.67-9.43,29.28-76.51,29.28-79.39-.93-93.51-41.57-26.46-87.83-26.47-585.68,0-324,4.74-357.08,5.64-40.62,65.16-40.63,38.73,0,65.17,10.87t35.93,26.91q16.05,35,17,428.88v230.49q211.59-8.48,254.56-12.27t43-8.49q1.91-9.45,8.5-177.61,13.23-371.23,64.25-718.89,10.38-81.24,24.09-93.51t35.43-12.29q19.82,0,46.28,8.5,46.28,14.19,67.08,42.52,5.66,9.44,5.67,56.67,0,63.33-17,265.44-40.62,493.14-40.61,876.65,0,82.22-.47,122.82t-4.26,59.52q-3.8,18.84-11.8,25t-24.11,9.93A158,158,0,0,1,3258.17,4741.05Z" transform="translate(-374.52 -112.13)"/><path d="M3856.34,4808.12q-85,0-147.38-64.25-56.68-55.74-84.07-164.37-41.57-177.59-42.52-532.78,0-305.14,29.28-476.11-82.2,12.27-102,12.26-54.81,0-54.81-37.78,0-20.74,18-34,15.09-10.37,80.75-21.7t70.87-18.91q5.19-7.55,9.91-53.87,8.48-71.76,76.51-71.78a174.28,174.28,0,0,1,30.23,2.83q35.91,4.76,49.14,18.43t17,49.58l4.74,37.79q129.41-14.16,145.47-14.17,56.67,0,56.69,29.28,0,48.21-125.65,62.37l-83.13,10.38q-30.26,252.22-30.23,631,0,149.27,15.12,257.92,23.6,207.84,88.8,266.39c7.53,4.41,14.79,6.61,21.73,6.61q13.2,0,24.56-10.4,54.78-64.23,172.87-373.14,23.61-68.94,38.73-101.07T4169,4178q8.47-3.77,27.41-3.77,51,14.2,51,45.34,0,15.14-52.9,176.65-120.95,348.59-226.72,387.3-11.34,4.72-35.88,10.41Q3870.52,4808.11,3856.34,4808.12Z" transform="translate(-374.52 -112.13)"/></svg>


