<?xml version="1.0" encoding="utf-8"?>
<!-- Generator: Adobe Illustrator 18.0.0, SVG Export Plug-In . SVG Version: 6.00 Build 0)  -->
<!DOCTYPE svg PUBLIC "-//W3C//DTD SVG 1.1//EN" "http://www.w3.org/Graphics/SVG/1.1/DTD/svg11.dtd">
<svg version="1.1" xmlns="http://www.w3.org/2000/svg" xmlns:xlink="http://www.w3.org/1999/xlink" x="0px" y="0px"
	 viewBox="0 0 864 864" enable-background="new 0 0 864 864" xml:space="preserve" width="500" height="500">
<g>
	<path d="M150.8,477.9c-3.1-3.5-2.6-8.7-6.1-14.7c-0.4,12.9-6.5,19.1-18.1,20.6c12.1,1.3,17.5,8.2,18.5,19.5
		c2.8-4.9,2.5-10.1,5.6-13.7c3.2-3.8,8.8-3,13.1-5.8C159.6,480.7,154,481.6,150.8,477.9z"/>
	<path d="M258.9,544.4c-2.2-2.5-1.8-6.1-4.3-10.4c-0.3,9.1-4.6,13.5-12.7,14.6c8.6,0.9,12.4,5.8,13.1,13.8c2-3.5,1.8-7.1,3.9-9.7
		c2.2-2.7,6.2-2.1,9.2-4.1C265.1,546.4,261.2,547.1,258.9,544.4z"/>
	<path d="M693.8,541.5c-2.2-2.5-1.8-6.1-4.3-10.4c-0.3,9.1-4.6,13.5-12.7,14.6c8.6,0.9,12.4,5.8,13.1,13.8c2-3.5,1.8-7.1,3.9-9.7
		c2.2-2.7,6.2-2.1,9.2-4.1C700,543.5,696.1,544.1,693.8,541.5z"/>
	<g>
		<g>
			<path d="M396.6,220.5c-13.9,1.9-27.5-4.4-33.5-17.3c-5.6-11.9-5.1-25.2,0.2-37c7.5-16.9,27.9-25,44.6-15.8
				C434.5,166.2,429.9,215.8,396.6,220.5z M402.8,196.2c7-9.3,2.4-34.5-13.6-30c-7.1,2-10.4,9.6-11,16.3c-0.5,6.3,1,14.5,7.1,17.6
				C391.4,203.2,398.6,201.5,402.8,196.2L402.8,196.2z"/>
			<path d="M505.5,217c0.1,1.9-1.3,3.5-3.1,3.8l-14.4,2.3c-1.5,0.2-3-0.5-3.8-1.8c-8.5-14.6-17.4-29-26.2-43.4
				c-0.3-0.5-1-0.8-1.6-0.7c-0.6,0.1-1.1,0.6-1.2,1.3c-2,15.8-4,31.5-6,47.3c-0.1,1-0.6,1.9-1.4,2.5c-0.8,0.6-1.8,0.9-2.8,0.7
				l-11.6-1.6c-2-0.3-3.4-2.1-3.2-4.2l9.3-73.8c0.2-1.6,1.4-2.9,3-3.2l14.4-2.9c1.6-0.3,3.1,0.4,3.9,1.8c6.8,11.8,13.9,23.3,21,34.9
				c0.4,0.6,1.1,0.8,1.7,0.7s1.1-0.8,1.1-1.5l-1.5-36.1c0-1,0.3-2,1-2.7c0.7-0.7,1.7-1.1,2.7-1.1l11.8,0.1c2,0,3.6,1.6,3.7,3.6
				C503.4,167.6,504.4,192.3,505.5,217z"/>
			<path d="M571.9,220c0,1-0.3,2-1,2.7c-0.7,0.7-1.7,1.2-2.7,1.2c-16.2,0.1-32.3,0.2-48.5,0.3c-1,0-1.9-0.4-2.6-1.1
				c-0.7-0.7-1.1-1.6-1.1-2.6l-0.2-73.5c0-2,1.6-3.7,3.7-3.7c15.1-0.3,30.3-0.5,45.4-0.7c2,0,3.6,1.5,3.8,3.4l0.9,11.8
				c0.1,1-0.3,2-1,2.8c-0.7,0.8-1.7,1.2-2.7,1.2c-10.1,0.2-20.2,0.3-30.3,0.5c-0.4,0-0.8,0.2-1,0.4c-0.3,0.3-0.4,0.7-0.4,1.1
				c0.1,5,0.1,10,0.2,15c0,0.4,0.2,0.8,0.5,1.1c0.3,0.3,0.7,0.4,1.2,0.4c7.2-0.8,14.3-1.7,21.5-2.7c1.8-0.3,3.6,0.9,4.1,2.6
				l3.4,11.3c0.3,1,0.1,2.2-0.4,3.1c-0.6,0.9-1.5,1.5-2.6,1.7c-8.7,1.2-17.4,2.4-26.1,3.5c-0.8,0.1-1.4,0.8-1.3,1.6l0.1,2.2
				c0,0.8,0.7,1.4,1.5,1.4c10.5-0.1,21-0.1,31.4-0.2c2,0,3.7,1.6,3.7,3.6L571.9,220z"/>
			<path d="M636.7,229.1c-7.4-2-13.9-6.4-18.4-12.5c-1.2-1.6-0.9-3.9,0.6-5.1l9-7.4c0.8-0.6,1.8-0.9,2.8-0.8c1,0.1,1.9,0.7,2.5,1.5
				c4,5.1,11.8,8.8,16.6,4.1c2-1.7,3.2-4,1.8-6.4c-2.2-4-7.6-6.2-11.6-8.1c-11.2-5.4-23-12.9-23.7-26.7
				c-0.7-13.9,9.3-25.4,22.9-27.6c11.3-1.7,22.5,3.9,28,14c0.5,0.9,0.6,2,0.2,3c-0.3,1-1.1,1.8-2,2.2l-11.1,4.8
				c-1.7,0.7-3.6,0.1-4.6-1.4c-1.6-2.6-4.5-4-7.5-3.5c-3.1,0.4-6.6,2.8-6.9,6.1c-0.3,4.1,3.4,6.8,6.9,8.8c5.2,3,10.9,5.1,15.9,8.5
				C685.2,200.6,666.6,236.2,636.7,229.1z"/>
			<path d="M678.8,163.5c-2-4.3-2-9.3,0.1-13.5c1.4-3.1,4.1-5.4,7.3-6.5s6.7-0.8,9.7,0.7c10.2,5.8,8.4,23.9-4.3,25.6
				C686.3,170.5,681.1,168.2,678.8,163.5z M698.4,177.6c0.7,0.7,1.1,1.7,1.1,2.7v39.3c0,1-0.4,2-1.1,2.7c-0.7,0.7-1.7,1.1-2.7,1.1
				l-11.8-0.2c-2,0-3.7-1.7-3.7-3.7v-38.9c0-2,1.6-3.7,3.7-3.7l11.8-0.2C696.7,176.5,697.7,176.9,698.4,177.6z"/>
			<path d="M759.8,197.5c-6.9,7.7-17.2,11.9-27.4,13.1c-0.8,0.1-1.4,0.7-1.3,1.5l0.5,17.6c0,1-0.3,2-1,2.7c-0.7,0.7-1.6,1.1-2.6,1.2
				l-10.7,0.2c-2,0-3.7-1.6-3.8-3.6l-2.4-91.7c0-1.1,0.4-2.1,1.1-2.8c0.8-0.7,1.8-1.1,2.8-1c7.8,0.5,15.4,2,22.8,4.4
				c11.2,4,22.6,10.9,27.9,22.1C771.3,173.4,768.9,187.5,759.8,197.5z M746.7,167c-3.7-4.8-9.4-7.8-15.3-9.8c-0.5-0.2-1-0.1-1.4,0.2
				c-0.4,0.3-0.6,0.8-0.6,1.2c0.3,10.4,0.6,20.7,0.9,31.1c0,0.4,0.2,0.8,0.5,1.1s0.8,0.4,1.2,0.3c5.6-1,11-3.4,14.5-7.8
				C750.4,178.6,750.5,171.8,746.7,167z"/>
		</g>
	</g>
	<path d="M764.4,296.4c-3.7,44.6-22.6,94.5-33.6,92.5c-14-3-5-66.6-4.3-76.5c2-27.6-27.6-19.6-42.6-25c-0.7-17-4.3-40.3-17.6-40.3
		c-20.6,0.3-22.6,44.6-2.7,54.2c2.6,1.3,5,2.3,7.3,3.1c-5.4,36.9-27.9,87.4-43.2,80.1c-16.6-8-21.3-35.3-19.3-69.2
		c19.3,1,37.9-19.3,32.6-43.6c-3.7-16.6-17-22.6-29.3-22.6c-3.7,0.3-7,0.7-10.3,1.7c-18.8,5.7-30.2,37.6-30.4,70.7
		c-4.8,8.2-12.2,13.9-20.9,18.2c-10-22.3-30.6-41.6-44.6-56.2c1.3-8.7,3-26.6-8.3-32.9c-4.3-2.7-28.6-8.7-37.6,13
		c-3.7,9-4,22.6,7,35.3c0.3,0.3,0.6,0.6,0.9,0.8c-6,19.6-18.8,23.1-28.5,23.5c-1-40.6-17.6-82.5-43.6-82.5
		c-26,0-42.3,19.6-37.3,43.9c-1,0.3-3.7,2-4.3,2.7c-7.4,5.6-12,19.5-12.7,35.7c-5.8,23.2-16.3,58.2-26.9,59.8
		c-24.6,4.3-19-85.2-19-94.5c42.3-21.6,74.2-142.4,26.6-145.1c-40.6-0.7-63.2,86.9-62.9,162.7c0,6.9,0.4,13.5,1,19.7
		c-8.5,35.8-30.1,99.2-74.9,96.1c-79.2-5.3-45.9-264.6,20.3-265.2c24,0,34.3,48.6-6.3,90.2c-9,9.3,3.7,22,15.3,10
		c47.3-47.6,36.9-113.5-8.7-113.8c-131.5-1-167.7,301.9-18,296.9c42.3-1.6,65.1-49.8,76.6-88.1c7.9,30.9,24.2,49.1,45.2,49.1
		c16.4,0,27.7-22,35.2-45.8c6.5,23.3,21.8,43.5,48.7,43.5c29,0,42.9-28.6,45.3-61.6c22.8-1.2,33.2-18.2,37.5-28.7
		c15.1,14.7,27.8,28.4,36.7,44.4c-12,3-23.3,6.3-30.3,12.3c-34.9,28.6-6,70.9,28.6,65.9c45.9-6.7,56.6-52.3,43.3-79.5
		c6.4-3.4,12.4-7.6,17.4-12.9c2.8,24.4,12,47.2,29.5,58.2c8.7,5.3,23.3,8.7,33.6,4.7c20.8-8.3,40.3-46.1,47.1-93.5
		c7.1,1.2,10.2,0.7,9.8,6c-1.7,28.3-8,92.9,32.6,92.9c37.3,0,47.3-93.5,49.3-108.8C774.7,289,764.4,290.4,764.4,296.4z M614.3,275.4
		c1-1,2-1.3,3-1.3c7,0,13,19-8,23.6C610.7,286,612.7,277.4,614.3,275.4z M331.4,169.6c12.6,1.3-9.3,86.2-35.9,104.5
		C299.1,235.4,317.4,169.9,331.4,169.6z M402.3,379.2c-13.6,1.3-33.3-31.3-21.6-58.2c3.3,2.7,7,5.3,11,7.7c12,7,23,9.7,32.3,10
		C422.3,359.9,415.3,377.6,402.3,379.2z M404.3,320c-8-4-14.3-9-19-14.6c0.3-8.7-3.7-14.3-8.7-17.3c-4-15.6,3-30,16.6-31
		c19,0,30.3,35.3,31,67.9C417.3,324.6,410.3,323,404.3,320z M508.8,418.5c-25,5.7-39.3-30.3-18.6-44.6c6.3-4.7,16.6-7.3,28.6-10.3
		C530.8,389.9,531.4,413.2,508.8,418.5z M664.6,260.4c6.3,0,7.7,22.6,7.7,25.3C655.6,286.4,660.6,260.4,664.6,260.4z"/>
	<g>
		<g>
			<path d="M378,431c1.1,1.1,1.8,2.7,1.8,4.3l-0.1,19.3c0,3.3-2.7,6-6.1,6h-26.8c-1.3,0-2.4,1.1-2.4,2.4
				c-0.6,29.1-1.2,58.1-1.8,87.1c-0.1,3.3-2.8,5.9-6.1,5.9h-19.2c-1.6,0-3.2-0.7-4.3-1.8c-1.1-1.2-1.8-2.7-1.7-4.4
				c0.6-28.9,1.2-57.9,1.8-86.8c0-0.6-0.2-1.3-0.7-1.7c-0.5-0.5-1.1-0.7-1.7-0.7h-23.1c-1.6,0-3.2-0.6-4.3-1.8
				c-1.1-1.1-1.8-2.7-1.8-4.3l0.1-19.3c0-3.3,2.7-6,6.1-6h86.1C375.3,429.2,376.8,429.9,378,431z"/>
			<path d="M445.7,550.2c-22.6,3.1-44.8-7.1-54.6-28.1c-9.1-19.4-8.2-41.1,0.3-60.3c12.1-27.4,45.4-40.7,72.5-25.6
				C507.5,461.9,500,542.7,445.7,550.2z M455.9,510.8c11.4-15.1,3.9-56.1-22.2-48.8c-11.5,3.2-16.9,15.6-17.8,26.6
				c-0.8,10.2,1.6,23.5,11.5,28.7C437.3,522,449.1,519.3,455.9,510.8L455.9,510.8z"/>
		</g>
	</g>
	<g>
		<path d="M468.8,592.5c5.4,0,9.6-4.2,9.6-9.4c0-5.2-4.2-9.4-9.6-9.4c-5.2,0-9.4,4.2-9.4,9.4C459.4,588.2,463.6,592.5,468.8,592.5z"
			/>
		<path d="M767.5,616.4c-0.6,12.3-6.9,19.1-15.6,23.3c-5.8-12.9-17.7-24.1-25.8-32.6c0.8-5,1.7-15.4-4.8-19.1
			c-2.5-1.5-16.6-5-21.8,7.5c-2.1,5.2-2.3,13.1,4,20.4c0.2,0.2,0.5,0.5,0.7,0.7c-0.7,12.1-7,18.8-15.6,23
			c-5.8-12.9-17.7-24.1-25.8-32.6c0.8-5,1.7-15.4-4.8-19.1c-2.5-1.5-16.6-5-21.8,7.5c-2.1,5.2-2.3,13.1,4,20.4c0.3,0.3,0.7,0.7,1,1
			c-0.2,0.6-0.4,1.3-0.4,2.1c-3.1,21.4-16.2,50.9-25.1,46.6c-9.6-4.6-12.3-20.4-11.2-40.1c11.2,0.6,22-11.2,18.9-25.2
			c-2.1-9.6-9.8-13.1-17-13.1c-2.1,0.2-4,0.4-6,1c-10.9,3.3-17.6,21.9-17.6,41.2c-4.4,13.2-11.7,32.1-17.7,33.2
			c-8.7,1.7-5-29.1-2.7-44.5c3.1-14.8,1.9-29.1-14.6-31.4c-6.6-0.8-13.5,4.4-18.1,17c-2.7,6.9-10.8,31.2-15.2,44.7
			c-0.2-11.6,2.1-34.9,2.1-35.1c1.4-16.6-17.9-17.7-20.2-1.3c-0.4,3.5-0.7,7.5-0.7,11.7c-3.9,12.5-12.6,37.7-19.7,39
			c-11.4,2.1-1.2-53-1.2-53c1.4-9.3-3.7-13.9-9.1-13.9c-4.6,0-9.8,3.9-11,11.8c-1.3,8.3-2.2,16-2.6,23c-3.4,5.1-9.6,10.3-21.1,12.2
			c8.3-17,10.6-45.3-12.1-45.1c-11.2,0.4-19.3,16.2-24.3,33.5c1-23.5,1.9-42,1.9-42c0.6-9.3-4.8-13.9-10-13.9
			c-4.8,0.2-9.4,4-10.2,11.9c-0.6,6.6-1.9,21.7-2.6,40.6c-2.9,5.8-9.1,12.5-22.7,14.9c8.3-17,10.6-45.3-12.1-45.1
			c-11.2,0.4-19.3,16.2-24.3,33.5c1-23.5,1.9-42,1.9-42c0.6-9.3-4.8-13.9-10-13.9c-4.8,0.2-9.4,4-10.2,11.9
			c-0.5,6-1.6,19.2-2.4,35.9c-3.9,13.4-13.3,43.3-20.6,44.6c-11.4,2.3,0.8-64.2,0.8-64.2c1.3-9.3-3.7-13.9-9.1-13.9
			c-4.8,0.2-9.8,4-11,11.9c-0.4,1.7-0.6,3.5-1,5.4c-2.5-8.5-6.9-15.8-15.4-14.6c-14.6,2.2-20.5,21.7-19.5,38.4
			c-4.4,13.6-12,31.9-17.8,31.8c-9.1,3.7-11.9-21.2-10.8-51.5c8.3-2.1,13.5-6.6,13.9-12.1c0-2.7-6-6.2-7.7-0.8
			c-0.6,2.3-2.9,3.9-5.8,5.2c1.5-23.7,5.4-49.3,10.6-65.3c2.1-6.2-3.3-12.9-9.4-12.9c-3.5,0.2-7.3,2.3-10.2,8.1
			c-6.7,13.1-13.5,44.1-14.6,73.6c-9.6,0-19.7-1-25.4-1.5c-2.3-18.9-4.6-40.1-2.7-65.9c1.3-15.6-21-19.5-23.7,0.2
			c-3.3,23.3-0.2,46.1,2.7,67.8c-35.3,10.2-27.4,55.7-23.5,65.1c12.1,28.3,43.7,13.5,48.6-9.6c3.5-16.4,1.5-32.8-0.8-51.5
			c8.3,1.2,16.8,1.7,24.9,1.7c-0.4,32.8,7.1,62.2,30.1,61.3c10.2-0.5,18.7-15.2,24.4-30.3c1.3,3.6,3.1,6.6,5.3,8.6
			c8.7,7.7,18.9-2.3,24.9-12.9c0.2,23.1,5.8,39.9,18.5,39.9c9.6,0,18-14.9,23.9-30.8c-0.1,22.7,0.9,47.9,5,69.5
			c2.5,13.5,15.8,16.4,15.2-2.3c-0.8-12.3-0.6-32.2,0-52.2c2.3,1.7,5.4,2.7,8.3,2.7c11.6,0,22-6.6,26.8-17
			c8.4-1.3,18.1-4.4,24.9-10.6c-0.6,25.1,0.2,54.7,4.8,79.4c2.5,13.5,15.8,16.4,15.2-2.3c-0.8-12.3-0.6-32.2,0-52.2
			c2.3,1.7,5.4,2.7,8.3,2.7c11.6,0,22-6.6,26.8-17c7.8-1.2,16.8-4,23.4-9.4c0.4,21.5,6.7,34.3,20.1,34.3c10.3,0,18.7-15.1,24.5-30.5
			c0.6,7,1.5,13.4,2.3,17.8c1.5,4.2,6.2,5.8,10,4.4c3.7-0.2,7.9-2.1,10.6-10.4c5.4-15.8,17.5-58.4,23.3-58.8c1.2,0,2.3,1.2,0.4,13.9
			c-5.6,38.7-0.8,63.6,17.9,63.6c9.7,0,17.8-13.5,23.5-28c2.5,11,7.6,20.7,15.8,25.9c5,3.1,13.5,5,19.5,2.7
			c11.8-4.7,22.9-25.9,27-52.6c8.2,8,15.1,15.7,20,24.5c-6.9,1.7-13.5,3.7-17.5,7.1c-20.2,16.6-3.5,41,16.6,38.2
			c26.6-3.9,32.8-30.3,25.1-46.1c8.8-4.6,16-11.8,18.5-24.3c8.5,8.3,15.6,16,20.6,25.1c-6.9,1.7-13.5,3.7-17.5,7.1
			c-20.2,16.6-3.5,41,16.6,38.2c26.6-3.9,32.8-30.3,25.1-46.1c9.8-5.2,17.7-13.5,19.3-29.1C774.6,612.1,767.9,609.8,767.5,616.4z
			 M608.1,602.5c0.6-0.6,1.2-0.8,1.7-0.8c4,0,7.5,11-4.6,13.7C606,608.6,607.2,603.6,608.1,602.5z M120.2,664.9
			c-2.9,22.7-15.4,19.8-19.5,7.1c-5.6-17.3-6.9-48.8,17.5-57.6C120.6,632.2,122.3,648.9,120.2,664.9z M241.6,637.6
			c-6,1.3-2.3-33.9,2.3-33.7c3.5,0,6,11.4,7.3,16.6c0.2,1,0.4,1.7,0.4,2.3C252,623.1,243.3,637.2,241.6,637.6z M318.7,657.6
			c-3.5,0.6-2.5-4.6,1.7-6.4c2.7-1,6.7-1.3,6.7-1.3C324.7,653.4,322.2,656.6,318.7,657.6z M330.6,643.1c-3.5,0-9.1,1.3-13.3,3.5
			c5.2-16.2,14.5-38,19.5-37.6h0.4C343,610.8,335.8,637.9,330.6,643.1z M398.7,657.6c-3.5,0.6-2.5-4.6,1.7-6.4
			c2.7-1,6.7-1.3,6.7-1.3C404.6,653.4,402.1,656.6,398.7,657.6z M410.6,643.1c-3.5,0-9.1,1.3-13.3,3.5c5.2-16.2,14.5-38,19.5-37.6
			h0.4C422.9,610.8,415.8,637.9,410.6,643.1z M664.8,685.3c-14.5,3.3-22.7-17.5-10.8-25.8c3.7-2.7,9.6-4.2,16.6-6
			C677.5,668.8,677.9,682.3,664.8,685.3z M728,685.3c-14.5,3.3-22.7-17.5-10.8-25.8c3.7-2.7,9.6-4.2,16.6-6
			C740.7,668.8,741.1,682.3,728,685.3z"/>
	</g>
	<g>
		<path d="M222.8,477.9c-4.8-0.4-8.4-2.2-11.1-5.7c-2.1-2.6-2.5-5.6-1.7-8.8c1.3-4.9,5.4-7.4,10.5-6.4c3.5,0.7,6.5,2.3,9.2,5.2
			c0-2.5,0.2-4.5,0.8-6.5c1.8-5.8,6.4-8.6,11.9-7.2c4.8,1.2,7.7,6.1,6.8,11.7c-0.4,2.2-1.1,4.3-2.4,6.7c3.1-1.6,5.8-2.6,8.8-2.5
			c4.8,0.1,8.8,3.6,9.6,8.5c0.8,5.3-1.4,9-6.3,10.7c-3.6,1.3-7.1,1.1-11-0.1c4.1,4.9,6.8,10,3.1,15.9c-2,3.2-5.4,4.4-9.1,3.9
			c-5-0.7-7.5-3.7-9.7-11.7c-1.5,2.2-2.8,4.4-4.9,5.9c-3.1,2.3-6.4,3.2-10,1.5c-3.4-1.5-5.3-4.3-5.4-8c-0.1-4.5,2.1-7.9,5.8-10.2
			C219.1,479.6,220.8,478.9,222.8,477.9z M236.1,482.9c3.8,0,6.8-3,6.8-6.7c0-3.9-3-6.9-6.9-6.8c-3.8,0-6.7,3-6.6,6.9
			C229.3,480,232.3,482.9,236.1,482.9z"/>
	</g>
	<g>
		<path d="M612.1,533.1c-4.7-2.1-11.3-2-11.3-2l-12.2-0.7c-8.6-0.6-21.4-3.3-21.4-3.3c-17-3.8-32.1-11.1-32.1-11.1
			c1.7,2.6,8.5,9.2,8.5,9.2c2.5,2.6,7,6.3,7,6.3c8.3,6.8,16.2,11.1,16.2,11.1c9.7,5.7,21.9,9.4,21.9,9.4c11.3,3.7,16.1,3.7,16.1,3.7
			c9.9,1,14.3-4.1,14.3-4.1c4.2-4.5,2-10.2,2-10.2C618.9,535.6,612.1,533.1,612.1,533.1z"/>
		<path d="M739.1,452.7c-1.2-2.1-4.2-4.2-4.2-4.2c-1.6-1.2-5-2.3-5-2.3c-3.3-1-7.4-0.8-7.4-0.8c-4,0.1-7.9,1.7-7.9,1.7
			c-2.4,0.8-7,3.8-7,3.8c-1.9,1.2-5.8,4.3-5.8,4.3l-2.7,2.3l-7.6,6.7l-5.4,4.4l-5.8,4.4l-6.2,4.2l-5.4,3.4l-6.3,3.7l-6.9,3.7
			c-1.5,0.8-7.4,3.5-7.4,3.5l-6.2,2.7l-5.1,2l-7.4,2.6l-6.7,2.1c-1.3,0.5-8.8,2.4-8.8,2.4c-1.1,0.3-9.2,2.1-9.2,2.1
			c-2.7,0.7-11,1.9-11,1.9c-1.6,0.2-8.3,1-8.3,1c-2.9,0.3-11.3,0.9-11.3,0.9c-2.4,0.1-10.3,0.3-10.3,0.3c-3.3,0.1-9.1-0.1-9.1-0.1
			l-10.4-0.5l3.4,1l3,0.9c2.1,0.6,8.3,1.9,8.3,1.9c2.5,0.5,9.1,1.7,9.1,1.7c1.9,0.3,9.3,1.3,9.3,1.3c2,0.4,12.6,1.2,12.6,1.2
			c2.3,0.3,13.2,0.4,13.2,0.4l8.3-0.1c2.3,0.1,10.3-0.6,10.3-0.6c4-0.1,12.3-1.4,12.3-1.4c5.5-0.7,11.6-1.9,11.6-1.9
			c3.7-0.6,13.8-3.1,13.8-3.1c3.4-0.8,10.9-3.1,10.9-3.1c2.1-0.5,10.9-3.6,10.9-3.6c4.6-1.6,12.8-5,12.8-5c2.9-1.2,8.8-4.1,8.8-4.1
			c2.8-1.4,8.2-4.4,8.2-4.4c3.4-1.9,9.2-5.6,9.2-5.6c3.2-1.9,10.1-7.2,10.1-7.2c4-3,6-5.3,6-5.3c2.8-3,4.1-6.1,4.1-6.1
			c1.7-4,1.1-6.9,1.1-6.9C741,455.3,739.1,452.7,739.1,452.7z"/>
		<path d="M559.9,491c-8.7,2.1-25.4,3.5-25.4,3.5l4.6,1.3l9.9,0.3c4.8,0.3,18.8-0.8,18.8-0.8c5.4-0.1,20.5-3.1,20.5-3.1
			c8.6-1.6,21.5-5.9,21.5-5.9c6.2-1.7,18.7-7.5,18.7-7.5c7.2-3.2,19-10.1,19-10.1c4.9-2.6,16.4-11,16.4-11c5.5-3.6,8.5-9.3,8.5-9.3
			c3.4-6.4,3.1-11.5,3.1-11.5c0.1-5.2-4-9.6-4-9.6c-3-4-8.2-4.3-8.2-4.3c-5.2-0.5-11,2.6-11,2.6c-6.7,3.3-10.8,9.5-10.8,9.5
			c-3.2,4.8-9,12.1-9,12.1c-3.9,5.1-11.1,11.9-11.1,11.9C615.9,464.7,605,472,605,472c-7.6,5.4-22,11.8-22,11.8
			C572.8,488.1,559.9,491,559.9,491z"/>
		<path d="M551.7,477.3c5.9-1.9,14.3-6.6,14.3-6.6c4.5-2.1,12.4-7.9,12.4-7.9c5.9-4,8.6-8.3,8.6-8.3c3.9-5.7,2.5-9.7,2.5-9.7
			c-0.9-4.1-5.2-6-5.2-6c-5-2.5-10.7,0.9-10.7,0.9c-4.5,2.1-8.8,7.2-8.8,7.2l-5.7,6.2c-1.9,2-8.3,7.9-8.3,7.9
			c-5.2,4.8-13.5,10.6-13.5,10.6c-6.9,5.1-19.5,11.4-19.5,11.4c6.9,0.3,15.7-1.1,15.7-1.1C541.4,481.1,551.7,477.3,551.7,477.3z"/>
	</g>
</g>
</svg>


