<?xml version="1.0" standalone="no"?>
<!DOCTYPE svg PUBLIC "-//W3C//DTD SVG 20010904//EN"
 "http://www.w3.org/TR/2001/REC-SVG-20010904/DTD/svg10.dtd">
<svg version="1.0" xmlns="http://www.w3.org/2000/svg"
 width="3000.000000pt" height="3000.000000pt" viewBox="0 0 3000.000000 3000.000000"
 preserveAspectRatio="xMidYMid meet">

<g transform="translate(0.000000,3000.000000) scale(0.100000,-0.100000)"
fill="#000000" stroke="none">
<path d="M12370 26615 c-266 -55 -525 -218 -816 -514 l-116 -118 -247 -6
c-676 -17 -1175 -122 -1626 -342 -542 -264 -876 -657 -982 -1155 -25 -119 -25
-329 1 -430 69 -269 240 -481 491 -610 155 -79 294 -112 474 -111 181 0 344
49 469 140 23 17 42 34 42 39 0 4 -33 17 -73 29 -191 58 -336 222 -383 431
-24 107 -15 276 20 397 137 466 570 844 1163 1015 116 33 353 84 360 77 2 -3
-24 -47 -57 -98 -65 -100 -181 -323 -250 -480 -111 -249 -205 -501 -425 -1134
-296 -853 -433 -1200 -610 -1543 -273 -528 -562 -855 -896 -1011 -223 -105
-498 -136 -715 -81 -153 39 -331 148 -426 262 -42 52 -138 196 -138 209 0 5
-4 9 -8 9 -11 0 -58 -154 -72 -234 -14 -85 -12 -229 5 -329 94 -540 526 -969
1087 -1078 198 -38 432 -34 647 13 625 134 1107 650 1483 1588 175 435 302
854 553 1825 260 1006 383 1391 552 1730 120 240 274 445 336 445 46 0 289 67
376 104 305 129 472 335 459 565 -14 243 -230 413 -522 410 -50 0 -120 -7
-156 -14z"/>
<path d="M14353 25911 c-71 -24 -122 -66 -145 -118 -17 -39 -18 -52 -9 -113
16 -99 13 -293 -4 -396 -33 -192 -106 -404 -220 -643 -71 -146 -78 -184 -45
-238 42 -70 152 -111 220 -83 99 41 521 697 664 1034 105 246 111 342 25 440
-46 52 -150 107 -237 125 -79 16 -189 13 -249 -8z"/>
<path d="M13075 25602 c-73 -25 -108 -53 -189 -156 -155 -194 -347 -503 -531
-853 l-100 -190 -65 -7 c-36 -3 -123 -6 -195 -6 -109 0 -135 -3 -161 -19 -75
-46 -100 -210 -41 -273 22 -23 31 -25 167 -32 79 -3 145 -8 148 -10 2 -2 -28
-80 -67 -173 -418 -1007 -668 -2065 -636 -2683 18 -336 91 -559 229 -695 104
-103 211 -145 366 -145 300 0 544 203 797 665 118 215 225 465 399 937 62 169
129 346 149 394 19 49 35 105 35 125 0 92 -131 160 -220 114 -23 -12 -42 -40
-82 -128 -175 -376 -351 -708 -462 -872 -122 -181 -257 -288 -304 -241 -28 27
-22 215 12 401 116 629 415 1502 720 2105 l73 145 69 0 c38 -1 173 -5 299 -9
221 -9 232 -8 270 12 79 40 133 114 161 221 18 73 13 138 -16 173 -18 23 -23
23 -266 28 l-248 5 81 100 c142 176 279 299 456 408 23 15 27 24 27 65 0 140
-103 298 -284 434 -201 152 -433 215 -591 160z"/>
<path d="M16455 23885 c-462 -86 -833 -382 -1156 -923 -95 -158 -220 -402
-324 -627 -55 -120 -66 -137 -151 -226 -185 -196 -282 -413 -304 -684 -47
-592 343 -1088 945 -1201 127 -23 343 -15 476 19 366 94 657 326 824 657 102
203 139 363 138 600 0 307 -58 526 -280 1065 -116 281 -168 435 -183 543 -20
148 19 258 112 315 118 73 255 6 368 -182 57 -93 86 -116 148 -115 136 2 327
192 348 344 10 71 -11 125 -69 188 -93 99 -226 172 -390 213 -110 28 -385 35
-502 14z m-640 -988 c1 -188 14 -244 130 -547 106 -277 135 -387 142 -550 8
-191 -36 -398 -108 -511 -108 -170 -297 -241 -437 -164 -64 34 -96 70 -131
145 -23 49 -26 67 -25 160 0 84 5 116 23 162 27 69 101 154 156 179 59 27 147
25 213 -6 30 -14 59 -22 64 -19 7 4 9 47 6 114 -4 98 -8 114 -41 183 -65 139
-181 224 -337 251 l-69 11 48 120 c96 238 226 475 313 570 27 30 51 55 52 55
0 0 1 -69 1 -153z"/>
<path d="M20244 23815 c-187 -41 -378 -159 -579 -360 -430 -429 -780 -1159
-879 -1836 -87 -587 57 -1027 389 -1190 278 -137 513 -95 728 130 177 186 296
418 527 1030 59 157 117 306 129 331 23 49 23 49 -13 -72 -75 -246 -108 -452
-109 -678 -1 -307 67 -518 214 -661 165 -160 425 -196 647 -88 260 127 501
472 749 1074 108 261 356 934 360 976 4 38 1 50 -21 76 -31 37 -83 63 -125 63
-70 0 -73 -4 -240 -344 -277 -565 -453 -836 -585 -906 -60 -32 -92 -22 -123
40 -48 94 -22 389 61 710 153 592 418 1120 670 1338 37 32 38 34 25 65 -37 93
-115 170 -224 222 -95 45 -163 60 -270 59 -190 -2 -361 -95 -512 -279 l-40
-49 -23 44 c-13 25 -57 79 -99 121 -129 130 -308 200 -503 198 -51 0 -120 -7
-154 -14z m377 -417 c70 -20 94 -83 79 -204 -40 -325 -363 -1033 -642 -1409
-161 -217 -287 -307 -343 -245 -127 141 180 1093 509 1575 105 154 205 249
295 281 45 16 55 17 102 2z"/>
<path d="M4945 19673 c-559 -44 -893 -131 -1320 -346 -323 -161 -574 -345
-825 -603 -893 -917 -1088 -2301 -472 -3342 206 -348 512 -664 877 -907 156
-104 461 -256 640 -320 520 -186 1082 -232 1590 -130 492 99 885 303 1235 642
l96 92 121 -312 121 -312 191 -3 191 -2 0 1033 c0 1144 -2 1102 63 1165 46 44
110 62 226 62 170 0 190 24 190 230 0 150 -11 188 -59 212 -33 17 -112 18
-1218 18 -1268 0 -1221 2 -1267 -50 -18 -20 -20 -38 -23 -169 -3 -159 2 -178
51 -215 23 -17 48 -22 145 -27 130 -6 153 -13 207 -61 79 -69 75 -14 75 -925
l0 -812 -77 -24 c-128 -40 -216 -52 -403 -52 -130 0 -196 5 -257 18 -330 71
-620 260 -847 550 -523 670 -668 1894 -341 2882 121 367 271 632 484 857 175
185 355 299 558 355 90 25 113 27 273 27 146 0 188 -4 252 -22 105 -29 172
-65 241 -131 156 -146 231 -348 272 -726 39 -362 104 -557 231 -695 66 -71
144 -112 256 -135 89 -17 248 -20 334 -4 252 44 500 206 640 415 82 124 106
195 112 337 6 143 -8 239 -53 365 -199 556 -1029 986 -2050 1062 -129 9 -364
11 -460 3z"/>
<path d="M11075 19640 c-718 -55 -1372 -312 -1877 -738 -114 -97 -313 -300
-396 -405 -330 -417 -529 -883 -608 -1422 -27 -183 -25 -562 5 -754 89 -584
334 -1060 753 -1466 309 -299 670 -515 1131 -674 672 -231 1550 -265 2275 -86
560 138 1054 403 1426 765 420 409 672 910 752 1501 21 152 24 527 5 674 -114
899 -620 1676 -1396 2142 -411 247 -831 388 -1340 448 -157 19 -565 27 -730
15z m481 -475 c810 -138 1295 -1057 1294 -2450 -1 -871 -199 -1512 -590 -1906
-111 -111 -194 -173 -317 -233 -296 -146 -624 -174 -948 -81 -132 37 -313 131
-418 216 -337 273 -582 791 -661 1399 -55 420 -45 988 25 1420 78 490 256 918
501 1207 196 232 476 392 753 432 98 14 266 12 361 -4z"/>
<path d="M17925 19640 c-664 -51 -1255 -267 -1764 -647 -139 -104 -426 -387
-531 -523 -319 -414 -509 -867 -586 -1395 -27 -183 -25 -562 5 -754 85 -556
313 -1018 695 -1410 612 -626 1544 -959 2596 -927 502 15 897 91 1300 248 392
154 719 360 994 628 420 409 672 910 752 1501 21 152 24 527 5 674 -124 980
-713 1810 -1600 2255 -372 186 -701 284 -1136 335 -157 19 -565 27 -730 15z
m481 -475 c525 -90 927 -517 1133 -1205 101 -338 147 -665 158 -1120 18 -803
-122 -1407 -427 -1842 -77 -109 -228 -265 -322 -331 -306 -217 -721 -282
-1103 -172 -132 37 -313 131 -418 216 -337 273 -582 791 -661 1399 -55 420
-45 988 25 1420 78 490 256 918 501 1207 196 232 476 392 753 432 98 14 266
12 361 -4z"/>
<path d="M21774 19484 c-17 -8 -36 -26 -43 -40 -15 -33 -15 -315 0 -348 19
-41 66 -56 171 -56 121 0 163 -13 214 -64 32 -31 44 -54 53 -94 16 -75 16
-4059 0 -4134 -9 -40 -21 -63 -53 -94 -51 -51 -93 -64 -214 -64 -105 0 -152
-15 -171 -56 -7 -15 -11 -84 -11 -174 0 -90 4 -159 11 -174 28 -61 -92 -57
1856 -53 1601 3 1792 5 1923 20 569 67 1028 222 1412 476 356 235 610 523 798
906 120 244 193 483 237 780 25 170 25 629 0 800 -30 196 -65 350 -121 520
-230 695 -687 1223 -1338 1543 -377 186 -736 280 -1188 312 -90 6 -782 10
-1825 10 -1491 0 -1684 -2 -1711 -16z m3291 -471 c455 -120 780 -403 1010
-878 179 -369 261 -721 285 -1213 32 -679 -75 -1224 -322 -1639 -188 -315
-435 -516 -758 -617 -228 -70 -236 -71 -820 -71 -513 0 -526 0 -565 21 -22 11
-53 40 -70 63 l-30 43 -3 2070 c-1 1437 1 2082 8 2110 14 50 76 112 126 126
26 7 213 10 549 8 482 -2 514 -4 590 -23z"/>
<path d="M5964 13284 c-17 -8 -36 -26 -43 -40 -15 -33 -15 -315 0 -348 19 -41
66 -56 171 -56 121 0 163 -13 214 -64 32 -31 44 -54 53 -94 16 -75 16 -4059 0
-4134 -9 -40 -21 -63 -53 -94 -51 -51 -93 -64 -214 -64 -105 0 -152 -15 -171
-56 -15 -33 -15 -315 0 -348 25 -55 37 -56 531 -55 l453 0 62 97 c148 231 259
319 428 338 61 7 205 -23 288 -60 143 -63 302 -206 355 -318 l27 -58 745 3
c802 4 873 8 1175 62 688 124 1259 431 1627 876 123 149 210 285 298 464 120
244 193 483 237 780 25 170 25 629 0 800 -60 401 -183 757 -367 1064 -266 443
-621 767 -1095 1001 -374 184 -734 278 -1185 310 -90 6 -782 10 -1825 10
-1491 0 -1684 -2 -1711 -16z m3291 -471 c455 -120 780 -403 1010 -878 151
-312 240 -646 276 -1035 15 -161 15 -609 0 -770 -53 -579 -239 -1039 -540
-1340 -167 -166 -315 -257 -531 -324 -228 -70 -236 -71 -820 -71 -513 0 -526
0 -565 21 -22 11 -53 40 -70 63 l-30 43 -3 2070 c-1 1437 1 2082 8 2110 14 50
76 112 126 126 26 7 213 10 549 8 482 -2 514 -4 590 -23z"/>
<path d="M13781 11008 c-547 -1261 -1006 -2313 -1020 -2338 -64 -115 -166
-216 -256 -255 -28 -13 -80 -20 -172 -24 -142 -7 -162 -14 -207 -75 -19 -24
-21 -42 -21 -156 0 -140 6 -157 69 -204 27 -21 38 -21 729 -24 796 -3 749 -7
794 78 20 37 23 58 23 150 0 92 -3 113 -23 150 -34 65 -71 80 -192 80 -123 0
-166 11 -209 54 -42 42 -58 103 -45 170 5 27 97 250 205 497 l197 449 1286 0
1286 0 165 -378 c231 -530 230 -527 230 -595 0 -82 -32 -142 -95 -175 -21 -11
-68 -18 -157 -22 -145 -6 -167 -15 -205 -90 -19 -37 -23 -60 -23 -140 0 -108
21 -166 73 -204 28 -21 34 -21 1286 -24 l1258 -2 33 22 c59 40 74 79 78 198 3
94 1 110 -20 149 -39 76 -60 85 -211 92 -117 4 -138 8 -189 33 -68 32 -160
121 -205 197 -17 30 -355 790 -751 1689 -396 899 -854 1940 -1018 2313 l-298
677 -701 0 -700 0 -994 -2292z m1694 249 c296 -675 536 -1230 533 -1232 -3 -3
-488 -4 -1079 -3 l-1075 3 535 1238 c294 681 538 1234 541 1230 4 -5 249 -561
545 -1236z"/>
<path d="M18153 13285 c-17 -7 -36 -22 -42 -34 -14 -26 -15 -336 -1 -361 18
-35 53 -44 180 -50 98 -5 136 -11 174 -28 67 -30 137 -85 179 -141 19 -25 391
-624 826 -1331 l791 -1285 -2 -760 -3 -760 -25 -43 c-15 -27 -42 -54 -69 -70
-40 -23 -59 -27 -173 -32 -123 -5 -129 -6 -155 -33 l-28 -27 0 -170 0 -170 28
-27 27 -28 1205 0 1205 0 27 28 28 27 0 170 0 170 -28 27 c-26 27 -32 28 -155
33 -114 5 -133 9 -173 32 -27 16 -54 43 -69 70 l-25 43 -3 802 -2 803 805
1257 c874 1365 860 1345 991 1409 52 25 71 29 191 34 128 5 134 6 160 33 28
27 28 28 31 185 3 177 -2 197 -58 224 -32 17 -86 18 -681 18 -447 0 -656 -3
-678 -11 -53 -19 -61 -48 -61 -221 0 -170 4 -183 64 -212 23 -11 62 -16 123
-16 106 0 152 -12 187 -46 55 -56 53 -59 -247 -525 -901 -1400 -1051 -1629
-1058 -1627 -14 5 -1241 2000 -1256 2042 -12 34 -12 42 4 74 33 66 58 76 205
82 127 6 131 7 154 34 23 26 24 33 24 192 0 99 -4 173 -11 186 -26 49 11 48
-1326 48 -1038 -1 -1253 -3 -1280 -15z"/>
<path d="M27508 8485 c-88 -29 -95 -42 -181 -341 -185 -648 -398 -1477 -597
-2321 -64 -273 -70 -307 -60 -343 42 -157 336 -247 445 -136 42 41 72 124 470
1296 276 813 366 1070 471 1357 41 111 74 215 74 233 0 88 -105 175 -280 231
-117 38 -266 48 -342 24z"/>
<path d="M3365 8202 c-23 -11 -65 -46 -94 -78 -98 -110 -286 -411 -419 -671
l-47 -93 -127 0 c-70 0 -138 -4 -152 -10 -39 -14 -66 -66 -66 -125 1 -80 13
-89 131 -96 54 -3 102 -8 105 -11 3 -3 -31 -98 -76 -209 -211 -527 -357 -1070
-401 -1488 -17 -165 -7 -454 19 -553 30 -111 69 -185 132 -249 79 -80 142
-102 275 -97 89 3 108 8 170 38 121 58 256 211 365 413 39 72 60 89 60 49 0
-43 57 -180 102 -248 79 -118 168 -180 335 -231 79 -24 104 -27 238 -27 139 0
156 2 230 27 302 106 518 385 719 928 16 44 19 46 79 63 115 32 251 123 337
227 92 111 102 157 45 207 -19 17 -51 34 -71 38 -35 6 -38 4 -90 -54 -56 -62
-125 -104 -193 -116 l-33 -6 6 38 c3 20 9 125 12 232 5 158 3 213 -10 290 -21
117 -63 242 -107 317 -77 128 -215 231 -360 270 -140 36 -343 12 -489 -59 -94
-45 -223 -177 -273 -279 -61 -123 -80 -219 -75 -371 l4 -128 -67 0 c-147 0
-181 -32 -252 -236 -53 -152 -183 -400 -282 -539 -93 -131 -192 -194 -209
-132 -29 108 60 524 204 957 94 284 184 508 293 733 l81 169 86 -6 c287 -19
316 -19 362 2 71 31 118 116 118 213 0 77 -4 79 -206 79 l-175 0 48 63 c72 95
200 217 282 271 l73 48 -4 48 c-8 75 -44 138 -133 226 -66 66 -100 90 -179
130 -92 45 -103 48 -189 51 -74 3 -100 0 -132 -15z m954 -1557 c106 -54 182
-256 184 -490 1 -117 -19 -281 -35 -291 -5 -3 -38 8 -73 25 -99 49 -167 140
-221 296 -26 73 -28 93 -29 225 0 132 2 149 22 187 13 23 31 47 40 52 26 15
80 13 112 -4z m-343 -975 c98 -80 272 -150 376 -150 21 0 38 -2 38 -5 0 -2
-14 -39 -31 -82 -44 -113 -102 -206 -174 -279 -135 -138 -241 -137 -310 1 -26
53 -30 72 -34 168 -2 61 2 136 9 170 15 78 60 217 70 217 4 0 30 -18 56 -40z"/>
<path d="M7369 8211 c-222 -45 -537 -647 -889 -1700 -248 -744 -490 -1665
-478 -1818 7 -77 46 -129 131 -172 58 -30 76 -34 144 -35 90 -1 141 14 187 55
44 38 55 68 130 329 83 291 85 294 85 202 1 -131 68 -282 161 -366 164 -148
362 -176 556 -78 367 186 722 836 795 1457 16 140 6 368 -21 469 -58 217 -193
364 -371 405 -252 59 -469 -91 -706 -486 -31 -51 -57 -93 -59 -93 -6 0 55 159
118 310 224 530 491 920 706 1033 77 40 78 42 72 122 -5 80 -116 214 -233 284
-111 65 -244 99 -328 82z m280 -1629 c52 -52 49 -211 -9 -437 -89 -344 -239
-668 -379 -818 -76 -81 -140 -99 -186 -53 -35 35 -48 97 -47 216 2 198 70 456
181 687 116 238 230 377 348 419 53 19 61 18 92 -14z"/>
<path d="M21848 7599 c-30 -15 -46 -36 -74 -91 -49 -96 -110 -286 -125 -384
-12 -79 -11 -84 12 -130 33 -65 108 -108 190 -109 70 0 72 1 192 160 50 66
117 148 149 183 64 70 78 111 59 171 -46 155 -275 268 -403 200z"/>
<path d="M9192 7000 c-175 -46 -322 -173 -492 -426 -289 -431 -440 -981 -375
-1360 36 -206 113 -361 245 -494 97 -97 163 -139 287 -183 80 -28 99 -31 213
-32 100 0 140 5 203 23 380 109 646 477 901 1245 36 109 66 206 66 216 0 31
-39 70 -81 81 -33 9 -46 8 -77 -7 -33 -17 -40 -28 -89 -153 -166 -422 -356
-701 -537 -790 -60 -30 -79 -34 -140 -34 -166 2 -274 106 -307 298 -13 75 -8
188 12 276 10 47 13 52 23 36 40 -67 69 -96 123 -122 54 -27 67 -29 173 -29
109 0 119 2 182 32 200 94 360 372 398 688 29 244 -30 448 -169 585 -148 146
-359 202 -559 150z m354 -391 c28 -31 25 -176 -5 -284 -46 -166 -156 -351
-232 -390 -33 -18 -82 -19 -111 -4 -25 13 -48 67 -48 112 0 64 40 192 95 302
109 220 238 333 301 264z"/>
<path d="M18240 6989 c-98 -13 -219 -54 -285 -97 -85 -54 -185 -167 -229 -255
-59 -121 -79 -218 -74 -369 l4 -128 -67 0 c-108 0 -161 -27 -199 -100 -29 -56
-89 -236 -115 -341 -43 -179 -213 -465 -301 -507 -31 -14 -35 -14 -53 2 -60
54 -26 208 149 681 144 391 175 505 168 622 -9 170 -153 339 -346 405 -53 18
-88 23 -167 22 -88 0 -107 -3 -163 -28 -137 -63 -306 -294 -507 -695 -40 -80
-83 -171 -95 -201 -54 -128 -42 -68 42 210 22 74 63 194 90 265 83 217 81 208
68 255 -39 146 -324 251 -452 167 -38 -26 -73 -92 -148 -281 -92 -233 -230
-660 -295 -915 -27 -105 -155 -342 -242 -449 -20 -24 -51 -51 -69 -60 -31 -14
-35 -14 -53 2 -60 54 -26 208 149 681 144 391 175 505 168 622 -9 170 -153
339 -346 405 -53 18 -88 23 -167 22 -135 0 -197 -27 -293 -128 -134 -142 -333
-476 -467 -786 -16 -36 -32 -69 -36 -74 -20 -23 100 374 163 539 83 217 81
208 68 255 -30 111 -231 217 -372 196 -70 -10 -108 -41 -145 -116 -73 -148
-199 -493 -289 -795 -35 -116 -63 -186 -128 -310 -182 -352 -308 -512 -388
-492 -110 28 -42 482 138 927 97 238 189 395 303 513 l65 68 -24 46 c-62 117
-242 192 -393 164 -95 -17 -164 -57 -251 -143 -43 -43 -80 -77 -81 -76 -1 2
-11 19 -23 39 -31 51 -111 123 -171 153 -339 172 -729 -50 -1054 -598 -134
-228 -249 -521 -302 -776 -36 -171 -46 -436 -21 -561 48 -234 162 -375 355
-436 200 -65 371 14 522 240 99 147 144 250 335 754 21 56 40 100 42 99 2 -2
-8 -42 -22 -87 -35 -119 -54 -219 -66 -352 -29 -334 71 -570 275 -646 71 -27
200 -28 276 -4 97 32 205 123 317 268 l23 30 -5 -64 c-8 -88 8 -134 62 -181
68 -61 152 -85 292 -85 103 0 121 3 170 26 32 15 60 36 67 50 6 13 23 78 38
144 76 342 376 1118 549 1425 120 210 239 362 307 391 29 12 33 11 50 -10 11
-13 19 -31 19 -41 0 -39 -47 -165 -143 -385 -260 -598 -339 -852 -340 -1100
-2 -241 76 -388 247 -465 234 -106 456 -38 664 205 l44 50 -7 -41 c-15 -99 49
-183 173 -226 55 -19 88 -23 182 -23 103 0 121 3 170 26 32 15 60 36 67 50 6
13 23 78 38 144 57 254 261 819 429 1185 149 325 329 590 428 631 28 11 33 11
49 -10 11 -13 19 -31 19 -41 0 -39 -47 -165 -143 -385 -260 -598 -339 -852
-340 -1100 -2 -241 76 -388 247 -465 296 -134 579 15 821 434 l28 48 32 -91
c55 -157 150 -272 276 -337 26 -13 87 -36 136 -51 79 -24 104 -27 238 -27 139
0 156 2 230 27 285 100 513 381 690 851 24 65 46 120 48 122 2 2 18 7 37 10
31 7 33 6 27 -17 -40 -163 -52 -489 -24 -617 32 -144 95 -239 191 -290 45 -24
62 -27 151 -27 93 0 105 2 165 32 211 104 422 407 604 868 31 77 56 136 56
130 0 -21 -101 -398 -145 -540 -152 -488 -346 -831 -540 -954 -104 -66 -244
-88 -353 -56 -71 21 -168 90 -207 147 l-33 47 -6 -37 c-11 -68 -6 -226 10
-292 42 -178 169 -338 334 -419 237 -116 507 -89 735 73 219 157 392 477 509
941 54 219 82 358 161 826 131 766 190 998 320 1256 36 70 65 137 65 149 0 90
-204 210 -375 221 -120 7 -124 4 -226 -234 -132 -306 -201 -456 -329 -713
-188 -377 -300 -560 -416 -677 -62 -63 -77 -73 -107 -73 -30 0 -37 5 -51 34
-22 47 -20 108 9 252 51 251 195 648 374 1028 28 59 51 120 51 136 0 49 -52
105 -136 147 -72 35 -84 38 -166 38 -84 0 -89 -1 -117 -30 -84 -85 -292 -571
-397 -928 -25 -86 -32 -98 -54 -103 -14 -3 -33 -8 -44 -11 -16 -5 -18 -1 -12
33 3 22 9 127 12 234 7 216 -4 317 -52 459 -101 302 -365 471 -674 430z
m-5923 -344 c37 -26 45 -71 28 -166 -25 -144 -95 -329 -214 -568 -120 -239
-211 -380 -319 -493 -75 -78 -122 -100 -153 -72 -16 14 -19 31 -19 98 0 102
26 220 90 408 131 386 323 716 460 789 43 22 98 24 127 4z m6012 0 c106 -54
182 -256 184 -490 1 -117 -19 -281 -35 -291 -5 -3 -38 8 -73 25 -99 49 -167
140 -221 296 -26 73 -28 93 -29 225 0 132 2 149 22 187 13 23 31 47 40 52 26
15 80 13 112 -4z m-343 -975 c98 -80 272 -150 376 -150 21 0 38 -2 38 -5 0 -2
-14 -39 -31 -82 -44 -113 -102 -206 -174 -279 -135 -138 -241 -137 -310 1 -26
53 -30 72 -34 168 -2 61 2 136 9 170 15 78 60 217 70 217 4 0 30 -18 56 -40z"/>
<path d="M24885 6941 c-267 -78 -543 -367 -757 -791 -93 -183 -186 -451 -219
-628 -20 -104 -145 -296 -215 -330 -31 -14 -35 -14 -53 2 -60 54 -26 208 149
681 144 391 175 505 168 622 -9 170 -153 339 -346 405 -53 18 -88 23 -167 22
-88 0 -107 -3 -163 -28 -137 -63 -306 -294 -507 -695 -40 -80 -83 -171 -95
-201 -54 -128 -42 -68 42 210 22 74 63 194 90 265 83 217 81 208 68 255 -30
111 -231 217 -372 196 -70 -10 -108 -41 -145 -116 -75 -152 -208 -521 -300
-830 -27 -93 -65 -195 -95 -255 -223 -443 -385 -612 -444 -460 -14 39 -16 67
-11 188 14 324 155 760 330 1022 58 86 61 121 16 188 -40 61 -158 140 -250
168 -89 27 -194 24 -236 -7 -54 -41 -178 -318 -283 -634 -228 -684 -261 -1225
-92 -1486 47 -73 99 -119 172 -153 77 -36 219 -42 303 -13 101 36 225 140 311
262 18 25 18 25 12 -33 -9 -82 8 -130 62 -177 68 -61 152 -85 292 -85 103 0
121 3 170 26 32 15 60 36 67 50 6 13 23 78 38 144 57 254 261 819 429 1185
149 325 329 590 428 631 28 11 33 11 49 -10 11 -13 19 -31 19 -41 0 -39 -47
-165 -143 -385 -260 -598 -339 -852 -340 -1100 -1 -134 16 -215 60 -297 96
-176 354 -263 556 -188 124 47 262 166 360 312 29 43 55 77 58 78 3 0 11 -19
18 -42 39 -131 134 -244 257 -305 76 -37 80 -38 188 -38 102 0 116 2 169 29
118 57 239 200 337 395 46 93 126 291 215 536 32 87 60 154 62 148 6 -18 -83
-407 -133 -580 -97 -339 -217 -613 -340 -776 -77 -102 -141 -156 -239 -204
-193 -92 -380 -76 -502 42 -32 31 -56 48 -60 41 -4 -6 -9 -63 -11 -126 -4
-104 -2 -123 22 -193 88 -261 329 -419 641 -421 363 -2 633 188 811 570 119
254 200 568 349 1344 156 815 281 1159 471 1293 38 27 44 35 39 56 -19 77
-126 168 -239 203 -93 30 -220 22 -307 -18 -59 -28 -169 -122 -169 -145 0 -20
-17 -6 -43 36 -56 88 -160 159 -278 190 -72 20 -200 18 -274 -4z m311 -322
c24 -20 34 -80 24 -144 -56 -343 -416 -1038 -609 -1174 -44 -31 -68 -34 -90
-12 -75 75 47 530 245 921 109 216 226 370 314 413 37 19 91 17 116 -4z"/>
<path d="M26687 5100 c-123 -31 -245 -145 -331 -310 -35 -65 -40 -86 -44 -156
-7 -139 43 -239 159 -314 159 -102 361 -90 473 30 89 95 120 197 113 370 -5
134 -26 202 -87 279 -65 82 -185 125 -283 101z"/>
</g>
</svg>
