<?xml version="1.0" standalone="no"?>
<!DOCTYPE svg PUBLIC "-//W3C//DTD SVG 20010904//EN"
 "http://www.w3.org/TR/2001/REC-SVG-20010904/DTD/svg10.dtd">
<svg version="1.0" xmlns="http://www.w3.org/2000/svg"
 width="3000.000000pt" height="3000.000000pt" viewBox="0 0 3000.000000 3000.000000"
 preserveAspectRatio="xMidYMid meet">

<g transform="translate(0.000000,3000.000000) scale(0.100000,-0.100000)"
fill="#000000" stroke="none">
<path d="M5805 28965 c-106 -20 -166 -40 -250 -84 -213 -110 -332 -380 -304
-694 12 -137 40 -232 110 -367 76 -147 127 -211 245 -306 53 -42 104 -91 115
-108 31 -51 25 -111 -22 -205 -22 -45 -43 -97 -46 -115 -16 -99 117 -200 239
-182 131 20 291 183 459 468 195 328 271 597 248 878 -11 139 -39 245 -93 355
-144 290 -391 417 -701 360z"/>
<path d="M19775 28260 c-205 -54 -311 -125 -408 -276 -94 -146 -122 -274 -121
-544 1 -222 19 -343 98 -675 82 -346 107 -515 127 -865 25 -437 -14 -875 -191
-2160 -166 -1208 -164 -1190 -164 -1370 1 -135 5 -179 22 -242 27 -100 63
-170 119 -229 55 -59 106 -90 209 -126 75 -25 91 -27 294 -31 210 -4 217 -3
281 21 156 59 271 162 339 302 53 111 70 181 77 318 7 146 -6 247 -63 482 -74
304 -105 577 -105 930 0 259 17 382 55 407 18 12 23 10 62 -24 109 -95 203
-449 364 -1363 59 -332 77 -411 119 -521 48 -123 99 -202 191 -294 124 -124
261 -196 450 -237 74 -16 134 -18 460 -18 362 0 378 1 455 23 193 56 332 177
432 377 93 183 136 478 135 915 -1 368 -23 674 -121 1640 -77 763 -104 1153
-104 1525 -1 277 7 368 53 645 38 227 50 371 50 610 0 423 -77 631 -265 716
-135 61 -412 72 -549 21 -136 -50 -226 -134 -292 -271 -59 -123 -69 -190 -69
-466 0 -283 9 -349 85 -670 148 -621 188 -1026 177 -1809 -6 -399 -16 -530
-48 -597 -22 -46 -53 -43 -103 8 -131 137 -293 612 -490 1433 -122 509 -162
763 -191 1215 -48 732 -148 1019 -403 1153 -108 57 -195 67 -577 66 -278 0
-329 -3 -390 -19z"/>
<path d="M3920 28236 c-239 -50 -382 -137 -478 -289 -153 -243 -162 -678 -23
-1056 48 -127 90 -295 111 -441 39 -265 37 -454 -11 -1105 -10 -148 -33 -484
-49 -745 -51 -808 -71 -982 -150 -1320 -131 -555 -142 -875 -40 -1137 33 -86
106 -191 168 -240 93 -75 250 -138 402 -163 215 -34 544 21 760 127 79 39 110
62 180 133 98 97 136 161 175 295 33 111 44 306 26 465 -14 121 -61 364 -96
495 -78 290 -98 481 -155 1420 -22 363 -47 759 -55 880 -50 723 -33 963 91
1302 95 259 119 398 111 638 -4 116 -11 182 -26 240 -69 262 -223 420 -476
486 -103 27 -366 35 -465 15z"/>
<path d="M7400 28234 c-122 -33 -208 -93 -273 -191 -167 -254 -179 -694 -32
-1268 81 -317 109 -514 124 -856 25 -579 -113 -2028 -245 -2579 -13 -58 -36
-152 -49 -210 -141 -607 -101 -1071 110 -1269 115 -107 256 -148 479 -138 220
9 348 59 473 183 145 143 197 333 162 591 -5 43 -26 159 -44 258 -86 451 -137
1033 -137 1560 0 543 38 866 112 945 33 36 39 36 74 9 56 -44 110 -196 176
-493 89 -407 139 -795 147 -1138 7 -275 -5 -407 -48 -577 -52 -202 -62 -288
-63 -521 -1 -242 9 -300 69 -425 68 -142 245 -280 440 -343 159 -52 245 -65
385 -59 370 17 580 89 751 257 62 61 85 93 123 170 64 131 96 259 96 381 0
106 -14 193 -66 402 -89 364 -90 578 -8 1146 53 363 131 745 191 926 76 233
157 297 210 165 81 -207 115 -976 64 -1440 -32 -296 -67 -537 -107 -742 -74
-379 -90 -589 -58 -746 9 -46 35 -118 64 -178 40 -82 60 -111 112 -160 128
-119 303 -183 501 -184 164 0 295 56 417 180 154 156 215 316 227 595 9 209
-16 385 -96 682 -95 351 -119 533 -186 1433 -24 328 -48 712 -60 980 -16 345
37 843 125 1175 66 248 98 444 107 655 13 323 -44 558 -166 692 -58 63 -126
100 -235 128 -73 18 -111 20 -476 20 -237 0 -420 -4 -456 -11 -101 -18 -216
-81 -298 -162 -83 -83 -132 -169 -170 -298 -25 -89 -32 -132 -67 -414 -58
-482 -219 -1067 -336 -1222 -13 -18 -30 -33 -37 -33 -18 0 -71 60 -95 108 -48
97 -104 311 -145 562 -36 217 -54 408 -66 670 -13 310 -39 428 -118 548 -83
126 -208 203 -378 233 -98 16 -164 18 -639 18 -434 0 -540 -3 -585 -15z"/>
<path d="M14435 28240 c-244 -7 -295 -17 -399 -84 -264 -169 -326 -646 -171
-1322 125 -546 155 -759 155 -1104 0 -455 -94 -1291 -249 -2225 -55 -327 -86
-614 -97 -891 -19 -446 90 -671 391 -810 131 -61 214 -76 449 -81 443 -11 661
40 808 189 189 191 207 493 68 1123 -93 422 -144 791 -170 1220 -23 390 -6
608 53 696 65 97 182 108 440 40 247 -64 312 -56 416 54 91 96 131 218 131
406 0 222 -68 364 -213 441 -65 35 -179 31 -398 -15 -271 -57 -361 -48 -424
43 -47 68 -65 155 -77 375 -28 503 52 912 200 1020 77 57 149 77 293 82 145 6
212 -5 298 -48 115 -58 184 -171 278 -458 69 -211 146 -373 209 -441 66 -71
154 -112 238 -113 55 -1 76 5 138 36 85 42 173 124 222 207 69 116 125 297
147 466 16 134 6 418 -20 548 -63 307 -198 549 -349 623 l-57 28 -1045 1
c-575 0 -1144 -2 -1265 -6z"/>
<path d="M17890 28236 c-239 -50 -382 -137 -478 -289 -153 -243 -162 -678 -23
-1056 48 -127 90 -295 111 -441 39 -265 37 -454 -11 -1105 -10 -148 -33 -484
-49 -745 -51 -808 -71 -982 -150 -1320 -131 -555 -142 -875 -40 -1137 33 -86
106 -191 168 -240 93 -75 250 -138 402 -163 215 -34 544 21 760 127 79 39 110
62 180 133 98 97 136 161 175 295 33 111 44 306 26 465 -14 121 -61 364 -96
495 -77 289 -99 485 -155 1420 -22 369 -47 767 -55 885 -50 717 -33 959 91
1297 95 259 119 398 111 638 -4 116 -11 182 -26 240 -69 262 -223 420 -476
486 -103 27 -366 35 -465 15z"/>
<path d="M23721 28235 c-318 -58 -471 -343 -447 -835 8 -181 34 -339 105 -653
101 -443 131 -671 131 -992 0 -242 -9 -366 -60 -865 -22 -212 -45 -432 -51
-490 -34 -330 -75 -636 -134 -990 -91 -544 -117 -838 -97 -1065 33 -366 143
-531 403 -602 59 -17 140 -18 1129 -18 985 0 1073 1 1168 18 171 30 286 76
407 162 197 140 418 491 469 745 22 111 40 478 33 685 -12 348 -79 659 -199
915 -102 219 -197 334 -299 364 -118 36 -224 49 -291 37 -102 -17 -194 -69
-274 -153 -138 -146 -238 -296 -354 -533 -109 -221 -196 -320 -311 -350 -64
-17 -218 -19 -274 -4 -59 17 -110 75 -135 156 -53 173 -51 727 5 993 34 166
90 246 193 276 74 22 145 14 347 -38 186 -48 287 -55 344 -24 97 52 177 175
207 317 22 103 14 311 -14 391 -38 107 -98 175 -192 217 -67 31 -174 27 -340
-9 -190 -42 -310 -56 -359 -42 -146 44 -214 249 -228 682 -12 381 42 646 153
754 134 130 476 166 671 71 112 -55 193 -190 288 -481 102 -310 180 -436 312
-501 49 -24 70 -28 138 -28 72 0 86 4 141 33 158 86 266 254 330 516 105 434
-4 1012 -236 1247 -49 49 -79 71 -123 87 l-58 22 -1212 -1 c-968 -1 -1227 -4
-1286 -14z"/>
<path d="M11183 21400 c-119 -72 -353 -561 -547 -1140 -201 -603 -318 -1121
-320 -1425 0 -103 3 -127 21 -168 47 -102 163 -189 228 -173 25 6 43 36 69
109 5 17 10 16 45 -12 22 -17 66 -43 98 -58 50 -23 75 -28 175 -31 98 -4 127
-1 186 17 136 41 274 156 384 318 111 165 221 445 273 693 35 166 44 400 21
510 -31 146 -96 239 -203 292 -85 42 -183 46 -251 10 -137 -73 -327 -361 -478
-725 -27 -65 -50 -113 -52 -108 -5 16 124 389 206 596 207 519 423 936 550
1064 l53 54 -50 47 c-62 58 -176 116 -267 135 -90 19 -103 19 -141 -5z m224
-1357 c35 -84 -3 -337 -88 -586 -138 -407 -347 -725 -488 -744 -32 -4 -41 -1
-59 22 -11 14 -26 50 -32 78 l-12 52 87 210 c238 577 399 889 503 975 49 40
69 39 89 -7z"/>
<path d="M14445 21402 c-107 -69 -253 -337 -425 -782 l-68 -175 -58 -3 c-83
-3 -99 -8 -139 -43 -24 -21 -35 -40 -35 -58 0 -25 4 -28 82 -44 45 -9 84 -19
86 -22 3 -3 -18 -78 -46 -168 -57 -178 -146 -498 -156 -563 -4 -22 -51 -124
-105 -226 -211 -401 -320 -552 -380 -533 -95 30 5 552 198 1033 57 143 134
292 166 324 37 37 28 68 -33 113 -59 43 -136 72 -229 86 -88 13 -115 2 -166
-68 -73 -100 -177 -337 -246 -558 -22 -73 -68 -170 -169 -361 -167 -313 -250
-448 -318 -521 -39 -42 -57 -54 -75 -51 -90 12 -39 382 114 833 93 270 210
523 252 539 21 8 19 38 -5 68 -25 32 -140 92 -205 107 -28 7 -76 13 -107 14
-51 2 -60 -1 -88 -28 -126 -119 -312 -620 -391 -1050 -27 -144 -32 -369 -10
-455 49 -200 173 -314 341 -315 65 0 82 4 125 29 102 59 227 214 341 420 l49
88 7 -88 c10 -115 24 -175 59 -250 60 -127 167 -198 299 -198 95 -1 140 21
231 113 75 76 135 159 207 283 l49 88 11 -84 c25 -194 103 -317 240 -379 35
-16 67 -21 127 -21 69 -1 88 3 135 28 193 101 446 500 605 956 66 190 92 330
61 330 -20 0 -78 -95 -213 -348 -259 -487 -374 -657 -459 -678 -20 -5 -32 -1
-52 19 -21 22 -27 38 -30 92 -13 204 96 670 271 1159 l60 169 93 -7 c69 -5
100 -4 126 7 65 27 137 135 138 206 0 28 -3 32 -17 25 -22 -10 -243 -18 -243
-9 0 4 21 55 46 114 120 276 282 553 364 624 l41 35 -32 36 c-63 73 -220 147
-339 161 -45 5 -61 2 -85 -13z"/>
<path d="M16505 21402 c-107 -69 -253 -337 -425 -782 l-68 -175 -48 -3 c-85
-4 -114 -12 -149 -44 -24 -20 -35 -39 -35 -57 0 -25 4 -28 82 -44 45 -9 84
-19 86 -22 3 -3 -18 -78 -46 -168 -155 -489 -235 -861 -236 -1097 -1 -197 37
-320 129 -415 67 -69 141 -99 240 -100 68 0 88 4 132 28 74 39 180 142 254
248 35 50 69 97 74 105 7 10 10 -10 10 -68 1 -68 5 -93 27 -139 49 -106 139
-179 220 -179 69 0 105 56 346 535 158 313 281 531 377 668 26 37 49 66 52 64
2 -3 -12 -56 -30 -118 -106 -351 -140 -661 -92 -842 34 -131 112 -235 209
-277 57 -26 141 -35 193 -21 103 28 231 163 359 377 l68 115 13 -68 c20 -102
84 -224 153 -293 138 -138 382 -195 562 -132 249 88 496 440 658 937 66 203
98 375 71 375 -24 0 -80 -93 -191 -316 -211 -421 -329 -593 -476 -695 -99 -68
-217 -78 -273 -24 -70 67 -97 222 -71 406 11 75 16 89 29 84 125 -48 336 -13
474 79 167 111 277 325 277 538 -1 318 -236 542 -499 474 -106 -27 -177 -71
-282 -176 -151 -149 -268 -349 -358 -612 -38 -110 -146 -327 -263 -528 -215
-367 -310 -342 -242 65 57 338 297 993 385 1048 37 23 13 69 -59 116 -93 58
-262 94 -324 68 -163 -69 -484 -515 -797 -1107 -33 -63 -61 -108 -61 -99 0 22
73 285 121 438 238 749 566 1474 731 1616 l42 35 -37 38 c-75 76 -219 145
-333 157 -52 6 -63 4 -94 -17 -119 -81 -288 -414 -474 -937 -100 -280 -215
-655 -281 -921 -22 -87 -42 -134 -118 -275 -162 -299 -283 -464 -353 -481 -20
-5 -32 -1 -52 19 -21 22 -27 38 -30 92 -13 204 96 670 271 1159 l60 169 93 -7
c69 -5 100 -4 126 7 65 27 137 135 138 206 0 28 -3 32 -17 25 -22 -10 -243
-18 -243 -9 0 4 21 55 46 114 120 276 282 553 364 624 l41 35 -32 36 c-63 73
-220 147 -339 161 -45 5 -61 2 -85 -13z m2751 -1357 c34 -52 -5 -193 -86 -310
-102 -148 -346 -345 -428 -345 -18 0 -17 5 9 79 86 245 277 514 409 579 58 28
76 28 96 -3z"/>
<path d="M15092 17619 c-239 -23 -449 -126 -565 -277 -119 -155 -184 -353
-208 -639 -15 -170 -4 -290 41 -471 44 -173 103 -288 194 -377 140 -138 266
-172 403 -111 130 59 198 168 305 489 93 282 199 476 255 465 27 -5 61 -82 78
-182 18 -104 19 -296 5 -796 -14 -483 -29 -744 -95 -1655 -8 -110 -22 -315
-30 -455 -35 -587 -76 -885 -168 -1220 -89 -323 -91 -665 -4 -878 35 -84 107
-183 170 -234 104 -83 288 -150 481 -177 112 -16 348 -14 449 4 398 69 606
325 624 770 6 155 -8 286 -53 480 -122 541 -139 662 -189 1385 -34 499 -82
1287 -95 1560 -6 124 -15 299 -20 390 -13 215 -12 669 0 790 16 146 45 230 82
230 24 0 86 -81 136 -177 31 -60 77 -177 112 -283 106 -322 177 -438 307 -502
138 -67 269 -34 408 106 108 108 180 270 225 506 16 85 13 306 -6 417 -64 379
-227 642 -469 758 -105 51 -185 72 -321 85 -118 11 -1932 11 -2052 -1z"/>
<path d="M3355 17600 c-208 -37 -347 -181 -412 -428 -21 -82 -26 -126 -30
-287 -8 -270 15 -438 107 -803 87 -348 113 -584 114 -1027 0 -176 -6 -396 -12
-490 -48 -644 -119 -1220 -218 -1765 -151 -833 -149 -1184 11 -1425 49 -73
154 -169 223 -204 136 -68 361 -108 557 -97 662 37 998 332 972 856 -7 141
-27 276 -72 485 -46 214 -62 316 -76 492 -14 178 -7 424 15 508 23 84 71 179
107 209 144 121 300 -199 350 -719 13 -138 5 -270 -32 -555 -40 -307 -50 -468
-38 -609 12 -147 31 -225 81 -331 76 -159 198 -249 413 -307 89 -24 118 -27
260 -26 356 0 630 68 782 195 154 129 226 289 241 538 32 509 -135 1134 -587
2185 -45 105 -96 219 -114 255 l-33 65 91 90 c242 238 390 539 450 915 38 244
38 612 -1 863 -114 745 -546 1227 -1218 1362 -277 55 -332 58 -1136 61 -410 1
-767 -2 -795 -6z m1587 -886 c120 -42 238 -178 298 -342 49 -134 64 -242 64
-452 -1 -215 -17 -329 -71 -492 -60 -183 -148 -304 -259 -355 -49 -22 -66 -25
-138 -21 -196 10 -326 133 -409 385 -47 145 -67 266 -74 458 -12 323 39 536
164 689 107 131 277 183 425 130z"/>
<path d="M7421 17585 c-318 -58 -471 -343 -447 -835 8 -181 34 -339 105 -653
101 -443 131 -671 131 -992 0 -242 -9 -366 -60 -865 -87 -841 -112 -1040 -185
-1480 -91 -543 -117 -838 -97 -1065 33 -366 143 -531 403 -602 59 -17 140 -18
1129 -18 985 0 1073 1 1168 18 171 30 286 76 407 162 197 140 418 491 469 745
22 111 40 478 33 685 -12 348 -79 659 -199 915 -102 219 -197 334 -299 364
-118 36 -224 49 -291 37 -102 -17 -194 -69 -274 -153 -138 -146 -238 -296
-354 -533 -109 -221 -196 -320 -311 -350 -64 -17 -218 -19 -274 -4 -59 17
-110 75 -135 156 -28 92 -44 333 -37 568 12 394 62 598 164 667 89 61 168 60
418 -4 186 -48 287 -55 344 -24 97 52 177 175 207 317 22 103 14 311 -14 391
-38 107 -98 175 -192 217 -67 31 -174 27 -340 -9 -190 -42 -310 -56 -359 -42
-145 44 -214 249 -228 677 -12 383 42 651 153 759 134 130 476 166 671 71 112
-55 193 -190 288 -481 102 -310 180 -436 312 -501 49 -24 70 -28 138 -28 72 0
86 4 141 33 158 86 266 254 330 516 105 434 -4 1012 -236 1247 -49 49 -79 71
-123 87 l-58 22 -1212 -1 c-968 -1 -1227 -4 -1286 -14z"/>
<path d="M12515 17589 c-423 -37 -736 -179 -1044 -473 -237 -228 -382 -496
-448 -831 -25 -125 -24 -417 0 -574 54 -340 158 -604 364 -916 191 -288 351
-495 589 -755 227 -249 329 -379 420 -533 106 -179 120 -293 54 -423 -21 -39
-51 -80 -73 -98 -35 -28 -46 -31 -105 -31 -78 1 -148 28 -200 78 -45 43 -92
139 -147 297 -24 72 -59 160 -75 196 -43 90 -137 227 -209 305 -148 162 -367
202 -566 105 -170 -84 -337 -331 -406 -602 -155 -613 89 -1351 612 -1848 121
-115 192 -167 309 -226 271 -136 564 -200 910 -200 385 1 697 97 1026 319 350
235 545 491 678 891 85 257 115 477 96 718 -25 324 -104 615 -249 917 -85 176
-156 290 -267 430 -113 141 -497 526 -684 686 -544 465 -843 779 -911 960 -10
26 -25 100 -34 165 -20 143 -11 234 35 328 59 125 209 231 362 256 153 26 267
-5 345 -93 52 -60 130 -213 193 -382 133 -352 216 -476 368 -548 136 -65 252
-36 381 93 108 108 186 287 228 525 23 132 13 331 -21 448 -90 302 -281 529
-561 666 -273 134 -590 183 -970 150z"/>
<path d="M21580 17594 c-168 -32 -295 -75 -450 -155 -400 -206 -732 -613 -955
-1169 -170 -424 -260 -834 -307 -1405 -16 -195 -16 -892 0 -1095 56 -700 174
-1175 408 -1642 126 -250 250 -426 423 -598 243 -241 533 -397 826 -446 128
-21 369 -14 500 14 399 86 761 341 1004 707 343 516 514 1154 562 2090 13 252
7 804 -11 1020 -52 631 -184 1148 -406 1595 -137 274 -268 455 -475 655 -210
202 -440 332 -719 407 -73 19 -337 34 -400 22z m95 -683 c80 -37 150 -125 225
-284 123 -258 213 -626 267 -1092 26 -220 26 -889 0 -1095 -58 -462 -149 -707
-287 -769 -77 -35 -173 1 -262 97 -188 204 -328 738 -390 1487 -18 230 -15
699 6 875 52 437 157 699 308 774 61 31 80 32 133 7z"/>
<path d="M24455 17590 c-244 -7 -295 -17 -399 -84 -264 -169 -326 -646 -171
-1322 125 -546 155 -759 155 -1104 0 -455 -94 -1291 -249 -2225 -55 -327 -86
-614 -97 -891 -19 -446 90 -671 391 -810 131 -61 214 -76 449 -81 443 -11 661
40 808 189 110 111 159 261 159 482 0 182 -22 329 -100 681 -84 380 -136 766
-161 1180 -23 390 -6 608 53 696 65 97 182 108 440 40 247 -64 312 -56 416 54
91 96 131 218 131 406 0 222 -68 364 -213 441 -65 35 -179 31 -398 -15 -269
-57 -361 -48 -422 41 -55 79 -73 174 -83 442 -17 471 64 853 204 955 77 57
149 77 293 82 145 6 212 -5 298 -48 115 -58 184 -171 278 -458 69 -211 146
-373 209 -441 66 -71 154 -112 238 -113 55 -1 76 5 138 36 85 42 173 124 222
207 69 116 125 297 147 466 16 134 6 418 -20 548 -63 307 -198 549 -349 623
l-57 28 -1045 1 c-575 0 -1144 -2 -1265 -6z"/>
<path d="M20705 11302 c-42 -27 -76 -66 -129 -149 -101 -157 -263 -527 -386
-880 l-42 -122 -32 24 c-119 90 -325 119 -479 66 -84 -29 -144 -68 -229 -149
-119 -114 -224 -282 -299 -477 -43 -112 -206 -439 -283 -567 -173 -288 -328
-419 -482 -406 -66 6 -102 35 -135 112 -28 66 -36 204 -19 327 11 75 16 89 29
84 125 -48 336 -13 474 79 167 111 277 325 277 538 -1 318 -236 542 -499 474
-106 -27 -177 -71 -282 -176 -151 -149 -268 -350 -359 -615 -43 -126 -162
-358 -256 -500 -98 -148 -199 -251 -294 -298 -34 -17 -63 -22 -117 -22 -65 0
-74 3 -102 29 -70 68 -97 222 -71 407 11 75 16 89 29 84 125 -48 336 -13 474
79 167 111 277 325 277 538 -1 318 -236 542 -499 474 -106 -27 -177 -71 -282
-176 -156 -154 -274 -359 -363 -630 -43 -132 -124 -298 -248 -510 -215 -367
-310 -342 -242 65 57 338 297 993 385 1048 37 23 13 69 -59 116 -60 37 -125
59 -219 72 -67 9 -78 8 -117 -10 -60 -30 -118 -82 -201 -182 -171 -205 -394
-560 -615 -979 -44 -85 -79 -146 -76 -135 41 168 90 328 203 670 75 228 136
426 136 446 0 22 -9 49 -21 66 -44 62 -205 124 -329 127 -86 2 -103 -16 -113
-120 -10 -94 -36 -200 -140 -564 -148 -518 -192 -714 -194 -850 0 -65 3 -82
29 -129 49 -89 157 -167 256 -185 74 -13 81 -5 215 274 178 369 265 535 365
705 83 139 207 320 214 313 2 -2 -15 -66 -36 -143 -110 -385 -141 -666 -94
-848 34 -131 112 -235 209 -277 57 -26 141 -35 193 -21 101 27 227 159 353
366 l64 107 21 -79 c60 -224 212 -367 435 -409 199 -38 352 16 512 179 64 65
159 195 208 285 l24 43 13 -68 c20 -102 84 -224 153 -293 138 -138 382 -195
562 -132 152 54 302 202 441 437 l42 70 7 -87 c14 -181 74 -307 179 -374 54
-34 144 -57 201 -52 132 13 285 195 458 545 l66 132 0 -152 c-1 -166 11 -232
61 -333 32 -65 106 -137 171 -167 67 -30 181 -30 239 0 142 76 318 326 468
664 109 248 207 566 189 614 -18 47 -44 8 -256 -395 -77 -146 -172 -319 -211
-384 -74 -123 -170 -236 -200 -236 -9 0 -24 11 -33 25 -36 55 -2 329 81 650
181 703 552 1562 745 1728 l41 35 -32 36 c-63 73 -220 147 -339 161 -45 5 -61
2 -85 -13z m-665 -1281 c16 -16 32 -39 35 -53 5 -18 -30 -104 -135 -339 -302
-669 -456 -949 -526 -949 -24 0 -44 63 -44 138 0 259 169 749 355 1027 123
184 241 250 315 176z m-2474 -76 c34 -52 -5 -193 -86 -310 -102 -148 -346
-345 -428 -345 -18 0 -17 5 9 79 86 244 277 514 409 579 58 28 76 28 96 -3z
m1200 0 c34 -52 -5 -193 -86 -310 -102 -148 -346 -345 -428 -345 -18 0 -17 5
9 79 86 244 277 514 409 579 58 28 76 28 96 -3z"/>
<path d="M11305 10260 c-216 -44 -412 -223 -554 -507 -39 -79 -111 -273 -126
-343 -14 -65 -248 -491 -344 -624 -61 -86 -215 -254 -225 -246 -7 7 123 518
199 780 124 433 231 696 296 731 28 15 23 43 -13 79 -57 56 -149 94 -261 110
-112 16 -146 -8 -222 -160 -32 -63 -145 -384 -145 -410 0 -5 -15 -35 -34 -67
-18 -32 -86 -159 -151 -283 -251 -479 -364 -647 -428 -638 -95 13 -22 466 149
932 73 197 176 410 209 432 34 22 32 45 -7 84 -63 61 -186 109 -296 113 -55 2
-63 -1 -92 -28 -126 -119 -312 -620 -391 -1050 -27 -144 -32 -369 -10 -455 49
-200 173 -314 341 -315 65 0 82 4 125 29 104 61 228 215 348 434 32 56 57 107
57 114 0 6 2 9 6 6 3 -3 -4 -41 -15 -84 -16 -63 -76 -377 -108 -561 -3 -18
-11 -36 -17 -41 -6 -5 -60 -26 -121 -46 -60 -21 -147 -56 -192 -77 -265 -126
-328 -385 -141 -572 118 -118 314 -140 465 -51 140 82 260 284 340 573 l28
103 75 56 c167 126 329 311 453 521 l61 104 13 -74 c16 -96 46 -181 84 -240
89 -138 258 -220 430 -206 238 20 429 187 605 529 49 97 58 109 97 126 23 10
73 42 111 71 38 29 66 45 63 37 -3 -8 -11 -64 -18 -123 -33 -304 47 -521 221
-602 43 -20 71 -25 130 -26 65 0 82 4 125 29 102 59 227 214 341 420 l49 88 7
-88 c10 -115 24 -175 59 -250 60 -127 167 -198 299 -198 96 -1 140 21 235 118
108 109 212 276 329 525 139 297 248 681 190 669 -21 -4 -77 -98 -218 -368
-264 -503 -381 -676 -445 -655 -95 30 4 550 198 1033 57 143 134 292 166 324
37 37 28 68 -33 113 -59 43 -136 72 -229 86 -88 13 -115 2 -166 -68 -73 -100
-177 -337 -246 -558 -22 -73 -68 -170 -169 -361 -167 -313 -250 -448 -318
-521 -39 -42 -57 -54 -75 -51 -90 12 -39 382 114 833 93 270 210 523 252 539
21 8 19 38 -5 68 -25 32 -140 92 -205 107 -28 7 -76 13 -107 14 -51 2 -60 -1
-88 -28 -87 -82 -224 -392 -310 -701 -13 -46 -34 -94 -52 -116 -27 -34 -158
-141 -165 -134 -2 1 8 56 21 122 48 230 58 392 32 515 -30 139 -117 259 -228
313 -98 48 -247 67 -353 46z m258 -270 c38 -72 4 -345 -77 -626 -54 -186 -46
-174 -112 -174 -52 0 -59 -3 -90 -35 -23 -25 -35 -49 -40 -82 -8 -58 8 -92 53
-113 38 -18 38 -18 -25 -123 -52 -87 -144 -182 -187 -193 -77 -19 -115 36
-115 170 0 347 296 1078 483 1191 56 34 87 29 110 -15z m-2043 -1995 c0 -18
-67 -167 -95 -211 -50 -78 -120 -115 -153 -82 -37 37 11 169 80 222 54 41 168
89 168 71z"/>
<path d="M2362 7469 c-239 -23 -449 -126 -565 -277 -50 -64 -115 -189 -141
-267 -57 -177 -87 -452 -67 -621 17 -151 62 -318 115 -430 38 -80 59 -109 119
-169 141 -138 267 -173 404 -111 130 59 198 168 305 489 93 282 199 476 255
465 27 -5 61 -82 78 -182 32 -188 6 -1122 -55 -1966 -10 -146 -26 -359 -34
-475 -9 -115 -23 -325 -31 -465 -35 -588 -76 -885 -168 -1220 -89 -323 -91
-665 -4 -878 35 -84 107 -183 170 -234 104 -83 288 -150 481 -177 112 -16 348
-14 449 4 398 69 606 325 624 770 6 155 -8 286 -53 480 -128 564 -142 679
-204 1605 -16 245 -41 645 -54 890 -14 245 -31 528 -37 630 -17 293 -23 848
-10 981 16 163 44 249 83 249 24 0 86 -81 136 -177 31 -60 77 -177 112 -283
106 -322 177 -438 307 -502 138 -67 269 -34 408 106 108 108 180 270 225 506
16 85 13 306 -6 417 -64 379 -227 642 -469 758 -105 51 -185 72 -321 85 -118
11 -1932 11 -2052 -1z"/>
<path d="M27523 7465 c-279 -78 -409 -331 -390 -759 4 -78 13 -197 21 -266 37
-307 48 -759 25 -1041 -37 -463 -151 -716 -332 -736 -40 -5 -48 -2 -84 30 -86
78 -128 211 -197 617 -52 304 -55 469 -15 832 55 504 -9 955 -162 1149 -34 44
-151 107 -259 141 -66 20 -95 23 -240 23 -182 0 -264 -14 -403 -67 -325 -124
-497 -431 -474 -842 12 -208 42 -295 167 -483 163 -244 264 -501 370 -939 33
-137 92 -375 130 -529 158 -636 214 -1009 214 -1410 0 -289 -20 -469 -105
-935 -64 -356 -77 -601 -39 -758 54 -225 180 -385 375 -478 197 -94 466 -107
774 -38 206 46 351 118 477 237 82 77 130 159 166 282 21 73 23 99 22 285 -1
158 -6 235 -22 335 -12 72 -26 193 -33 270 -15 197 -16 655 -1 800 46 435 147
942 287 1437 25 86 67 243 95 347 124 470 233 791 360 1061 122 258 152 373
165 625 16 298 -44 527 -168 649 -63 61 -163 116 -267 146 -99 29 -376 38
-457 15z"/>
<path d="M19018 7460 c-440 -42 -724 -245 -808 -575 -14 -55 -25 -153 -35
-315 -24 -379 -57 -698 -121 -1135 -110 -756 -181 -1074 -509 -2270 -155 -567
-289 -1145 -330 -1429 -25 -172 -29 -318 -12 -414 37 -203 141 -318 327 -363
86 -20 427 -18 510 4 227 60 372 210 443 457 35 120 44 194 67 545 69 1055 77
1119 143 1189 40 42 89 56 197 56 151 0 261 -44 300 -119 30 -59 33 -142 35
-746 1 -491 4 -598 18 -700 49 -337 143 -534 287 -602 68 -31 162 -61 259 -80
119 -24 455 -23 591 2 257 48 455 147 566 283 123 150 195 396 179 612 -19
273 -119 665 -344 1354 -245 748 -369 1202 -505 1856 -130 626 -209 1094 -256
1529 -27 243 -55 356 -121 490 -82 167 -210 279 -369 325 -147 43 -355 61
-512 46z m-11 -2408 c39 -51 72 -152 106 -322 38 -188 61 -380 61 -522 1 -120
0 -128 -23 -152 -36 -38 -115 -52 -222 -38 -103 12 -162 40 -185 84 -14 28
-16 53 -11 168 4 74 11 153 16 175 6 22 26 136 46 254 39 225 61 314 95 369
17 28 25 33 52 30 24 -2 40 -14 65 -46z"/>
<path d="M13715 7450 c-208 -37 -347 -181 -412 -428 -21 -82 -26 -126 -30
-287 -8 -270 15 -438 107 -803 87 -348 113 -585 114 -1027 0 -176 -6 -396 -13
-490 -47 -646 -116 -1204 -221 -1790 -109 -609 -131 -900 -86 -1135 31 -163
91 -276 202 -379 78 -74 149 -111 275 -145 134 -36 263 -49 404 -42 564 31
892 250 960 641 28 160 13 354 -50 651 -77 359 -102 586 -92 839 6 164 21 235
68 332 105 217 254 112 344 -242 52 -204 79 -443 70 -610 -4 -60 -20 -211 -36
-335 -40 -307 -50 -468 -38 -609 12 -147 31 -225 81 -331 76 -159 198 -249
413 -307 89 -24 118 -27 260 -26 356 0 630 68 782 195 154 129 226 289 241
538 32 509 -135 1134 -587 2185 -45 105 -96 219 -114 255 l-33 65 91 90 c354
348 513 850 475 1504 -24 428 -118 745 -298 1016 -223 334 -533 537 -946 620
-277 55 -332 58 -1136 61 -410 1 -767 -2 -795 -6z m1587 -886 c120 -42 238
-178 298 -342 49 -134 64 -242 64 -452 -1 -215 -17 -329 -71 -492 -60 -183
-148 -304 -259 -355 -49 -22 -66 -25 -138 -21 -196 10 -326 133 -409 385 -47
145 -67 266 -74 458 -12 323 39 536 164 689 107 131 277 183 425 130z"/>
<path d="M5923 7430 c-252 -55 -397 -154 -487 -332 -60 -120 -78 -208 -83
-404 -8 -254 11 -367 107 -654 90 -271 115 -449 114 -815 -1 -263 -8 -378 -59
-1080 -13 -187 -31 -461 -40 -610 -28 -502 -68 -804 -145 -1115 -71 -286 -94
-448 -94 -660 0 -264 38 -410 145 -552 93 -125 208 -197 387 -245 86 -24 116
-27 262 -27 178 0 280 16 453 70 285 90 456 264 516 524 51 223 34 438 -69
855 -91 364 -118 580 -151 1200 -15 293 -10 501 14 538 31 47 59 58 179 69
134 12 521 4 596 -12 71 -16 116 -56 132 -117 17 -68 14 -281 -10 -638 -32
-498 -57 -685 -135 -998 -125 -508 -130 -849 -16 -1076 62 -122 185 -241 316
-306 88 -43 268 -91 402 -107 180 -21 439 24 603 104 110 54 237 177 292 283
123 237 123 571 -2 1210 -142 729 -209 1328 -241 2165 -25 658 7 1001 127
1369 57 174 83 301 94 465 17 234 -13 435 -87 585 -53 107 -152 206 -256 255
-228 110 -586 98 -846 -26 -120 -57 -232 -169 -289 -289 -71 -150 -97 -320
-81 -549 10 -154 28 -250 79 -424 47 -157 73 -278 94 -437 19 -137 36 -371 36
-492 0 -157 -1 -157 -576 -160 -494 -2 -483 -4 -509 86 -12 42 -16 103 -16
258 -1 301 28 466 131 750 27 74 58 180 70 235 27 127 37 374 21 499 -15 110
-60 250 -107 326 -51 85 -149 171 -247 218 -124 59 -189 72 -372 77 -133 3
-175 0 -252 -16z"/>
<path d="M9943 7435 c-150 -27 -286 -122 -351 -243 -73 -136 -110 -364 -98
-597 9 -177 35 -338 105 -648 101 -443 131 -671 131 -992 0 -246 -8 -363 -65
-915 -86 -823 -106 -984 -180 -1430 -91 -544 -117 -838 -97 -1065 33 -366 143
-531 403 -602 59 -17 140 -18 1129 -18 985 0 1073 1 1168 18 171 30 286 76
407 162 197 140 418 491 469 745 22 111 40 478 33 685 -12 348 -79 659 -199
915 -102 219 -197 334 -299 364 -118 36 -224 49 -291 37 -102 -17 -194 -69
-274 -153 -138 -146 -238 -296 -354 -533 -109 -221 -196 -320 -311 -350 -64
-17 -218 -19 -274 -4 -59 17 -110 75 -135 156 -53 173 -51 727 5 993 34 166
90 246 193 276 74 22 145 14 347 -38 186 -48 287 -55 344 -24 97 52 177 175
207 317 22 103 14 311 -14 391 -38 107 -98 175 -192 217 -67 31 -174 27 -340
-9 -190 -42 -310 -56 -359 -42 -146 44 -214 249 -228 682 -12 381 42 646 153
754 134 130 476 166 671 71 112 -55 193 -190 288 -481 102 -310 180 -436 312
-501 49 -24 70 -28 138 -28 72 0 86 4 141 33 158 86 266 254 330 516 105 434
-4 1012 -236 1247 -49 49 -79 71 -123 87 l-58 22 -1212 -1 c-954 -1 -1227 -4
-1284 -14z"/>
<path d="M21803 7435 c-185 -41 -326 -193 -383 -415 -11 -41 -25 -135 -32
-208 -22 -236 11 -511 107 -891 82 -327 104 -508 112 -917 11 -602 -64 -1411
-209 -2254 -89 -518 -113 -703 -124 -943 -11 -218 21 -413 89 -542 44 -85 173
-211 262 -257 175 -91 410 -116 720 -77 403 51 674 242 767 539 21 68 23 93
22 260 -1 206 -13 289 -100 653 -105 442 -137 658 -138 907 0 194 10 247 66
352 101 190 278 276 616 298 534 35 855 143 1072 360 175 175 283 433 337 805
22 152 25 654 5 815 -59 472 -201 797 -467 1066 -220 224 -485 354 -836 413
-255 43 -277 44 -1059 47 -626 3 -776 1 -827 -11z m1486 -795 c97 -16 174 -61
266 -154 87 -88 128 -154 169 -276 52 -157 76 -406 57 -596 -19 -188 -55 -294
-133 -399 -101 -133 -227 -190 -374 -167 -224 35 -359 201 -419 517 -24 121
-35 343 -25 496 22 357 132 544 339 579 25 4 48 8 51 9 3 0 34 -4 69 -9z"/>
</g>
</svg>
