<?xml version="1.0" standalone="no"?>
<!DOCTYPE svg PUBLIC "-//W3C//DTD SVG 20010904//EN"
 "http://www.w3.org/TR/2001/REC-SVG-20010904/DTD/svg10.dtd">
<svg version="1.0" xmlns="http://www.w3.org/2000/svg"
 width="5000.000000pt" height="5000.000000pt" viewBox="0 0 5000.000000 5000.000000"
 preserveAspectRatio="xMidYMid meet">

<g transform="translate(0.000000,5000.000000) scale(0.100000,-0.100000)"
fill="#000000" stroke="none">
<path d="M37865 39310 c-159 -15 -278 -80 -344 -190 -23 -39 -27 -99 -9 -133
6 -12 40 -53 75 -92 75 -82 133 -194 164 -315 18 -71 22 -124 26 -328 5 -241
1 -338 -37 -882 -53 -756 -46 -1110 31 -1513 30 -156 26 -165 -101 -263 -198
-152 -290 -317 -290 -524 0 -198 74 -319 225 -369 166 -54 379 -6 597 134 118
76 135 78 228 34 96 -46 182 -77 279 -101 118 -29 393 -32 525 -5 502 102 982
484 1294 1032 92 162 175 387 219 595 25 114 27 146 27 350 1 196 -2 239 -22
338 -69 343 -215 624 -442 853 -166 167 -293 253 -489 330 -170 66 -289 90
-486 96 -231 7 -396 -23 -580 -106 l-60 -27 0 320 c0 351 -8 432 -53 524 -45
92 -120 134 -337 190 -186 48 -314 63 -440 52z m1607 -1812 c121 -36 198 -181
265 -496 25 -118 27 -145 27 -377 1 -203 -3 -269 -18 -350 -66 -355 -202 -656
-358 -790 -168 -143 -399 -148 -554 -12 -79 69 -122 157 -149 302 -28 151 -88
765 -89 915 -1 165 11 221 72 330 63 114 245 275 458 404 122 74 253 102 346
74z"/>
<path d="M8521 39069 c-165 -29 -273 -134 -274 -264 0 -67 18 -98 112 -192
108 -109 116 -126 116 -243 0 -83 -4 -105 -33 -176 -27 -68 -505 -900 -534
-929 -11 -11 -78 59 -161 170 -100 133 -166 257 -222 416 -69 196 -76 244 -83
554 l-7 280 -30 60 c-16 32 -46 72 -66 88 -65 51 -105 56 -659 76 -525 18
-550 18 -655 0 -72 -13 -103 -28 -157 -77 -50 -45 -77 -102 -78 -160 0 -88 37
-134 181 -218 108 -64 205 -156 289 -274 84 -118 252 -395 473 -780 482 -840
536 -1061 432 -1760 -29 -195 -49 -244 -160 -376 -102 -122 -127 -183 -106
-262 25 -92 101 -157 231 -196 58 -17 104 -20 441 -23 517 -6 630 7 712 85 58
55 72 96 72 212 -1 130 -14 167 -127 352 -145 239 -185 351 -194 558 -16 316
99 637 370 1035 45 66 295 412 555 769 260 356 484 673 498 702 59 130 16 226
-162 358 -137 102 -271 163 -427 196 -112 24 -273 33 -347 19z"/>
<path d="M33545 39056 c-151 -31 -245 -109 -288 -241 -9 -27 -35 -156 -57
-285 -77 -451 -125 -880 -155 -1375 -8 -137 -19 -266 -25 -285 -13 -46 -63
-106 -109 -129 -48 -25 -137 -41 -225 -41 -169 -1 -261 -30 -320 -103 -26 -33
-31 -48 -31 -92 0 -65 15 -84 99 -125 75 -37 148 -53 366 -85 259 -37 279 -53
264 -210 -5 -49 -9 -166 -8 -260 1 -140 5 -184 22 -247 130 -476 484 -779 968
-828 162 -17 387 15 494 70 109 56 158 144 119 216 -7 14 -63 63 -125 109
-296 223 -486 541 -533 894 -13 101 -1 137 59 171 44 24 51 25 305 31 267 6
287 9 374 54 81 42 161 148 161 216 0 72 -48 146 -123 189 -78 44 -163 56
-315 42 -240 -23 -317 -15 -367 38 -41 43 -43 100 -6 315 63 371 94 670 112
1060 12 263 5 662 -12 728 -15 57 -71 112 -137 137 -116 44 -378 62 -507 36z"/>
<path d="M30768 38215 c-699 -109 -1115 -904 -800 -1530 144 -288 396 -496
693 -573 41 -11 137 -34 214 -52 177 -41 249 -68 337 -126 223 -148 267 -395
99 -546 -155 -140 -501 -194 -657 -103 -105 62 -142 141 -188 405 -39 225 -75
308 -175 405 -240 232 -604 233 -806 2 -159 -182 -192 -489 -79 -735 130 -285
449 -506 857 -594 121 -26 395 -35 549 -18 253 27 550 100 821 201 349 130
554 285 658 494 54 109 73 203 65 330 -17 292 -174 529 -467 706 -114 68 -254
120 -471 173 -340 84 -448 149 -531 315 -39 80 -48 178 -23 246 32 83 152 168
274 194 86 18 218 14 302 -10 119 -33 204 -83 296 -174 69 -68 89 -97 127
-177 66 -137 119 -169 186 -113 61 52 79 151 88 490 6 234 -7 495 -28 570 -6
22 -28 56 -49 77 -31 32 -44 38 -79 38 -47 0 -64 -14 -115 -95 -18 -30 -42
-53 -59 -59 -43 -15 -112 8 -203 69 -107 70 -185 109 -294 145 -168 57 -362
73 -542 45z"/>
<path d="M11461 38069 c-331 -29 -643 -142 -906 -328 -44 -31 -134 -110 -200
-176 -237 -237 -387 -521 -455 -860 -28 -138 -38 -410 -21 -552 80 -655 494
-1169 1068 -1327 165 -45 218 -51 443 -50 183 0 229 3 313 22 720 160 1292
735 1449 1455 30 136 32 469 5 617 -73 390 -174 603 -371 787 -241 226 -614
378 -1009 413 -126 11 -181 11 -316 -1z m95 -713 c353 -76 609 -296 690 -591
26 -93 30 -331 9 -458 -41 -248 -130 -474 -230 -584 -104 -115 -216 -168 -418
-199 -147 -22 -414 -15 -515 15 -355 104 -528 414 -509 910 19 484 179 796
455 886 144 47 360 55 518 21z"/>
<path d="M20144 37982 c-60 -21 -108 -59 -147 -115 -67 -98 -63 -206 17 -455
87 -272 131 -497 162 -822 19 -213 28 -688 16 -965 -11 -270 -13 -279 -115
-394 -102 -114 -119 -190 -62 -286 50 -86 157 -136 330 -154 268 -29 639 -39
755 -21 143 23 240 108 240 212 0 41 -10 69 -64 171 -101 191 -146 328 -183
557 -15 98 -18 174 -18 510 l0 395 25 50 c21 43 40 60 125 116 68 44 152 116
259 219 171 163 269 236 360 264 103 33 155 6 211 -105 100 -198 134 -415 156
-1004 18 -476 0 -649 -84 -776 -17 -26 -79 -88 -138 -138 -158 -133 -189 -211
-137 -348 58 -157 245 -248 470 -228 188 16 449 90 649 183 169 79 209 126
209 245 0 77 -20 136 -94 282 -57 112 -113 267 -140 385 -48 215 -83 743 -55
843 27 99 318 339 549 454 86 43 98 46 158 44 108 -4 239 -299 294 -666 17
-114 17 -626 0 -736 -23 -155 -36 -176 -213 -350 -136 -134 -163 -166 -191
-224 -86 -185 6 -328 246 -383 95 -22 454 -21 656 2 314 35 476 98 601 233 99
108 98 187 -6 317 -131 165 -188 285 -232 493 -25 120 -27 144 -27 403 -1 151
1 394 3 540 4 369 -21 531 -115 730 -81 172 -191 289 -361 386 -114 65 -231
100 -373 114 -283 27 -549 -77 -770 -299 -102 -102 -161 -184 -212 -293 -18
-38 -35 -68 -39 -68 -4 0 -11 10 -14 23 -4 12 -25 53 -47 90 -110 189 -332
342 -571 393 -85 18 -258 20 -346 4 -145 -26 -318 -99 -446 -189 -90 -63 -211
-176 -277 -259 -33 -41 -60 -68 -62 -60 -2 7 -12 38 -21 68 -40 133 -150 301
-263 401 -194 173 -499 269 -668 211z"/>
<path d="M15830 37955 c-158 -15 -383 -53 -426 -71 -71 -30 -94 -103 -54 -176
10 -20 42 -67 69 -105 215 -295 245 -672 105 -1297 -100 -447 -191 -662 -344
-816 -183 -185 -343 -187 -412 -5 -60 157 -73 602 -37 1304 25 494 23 790 -4
836 -23 37 -71 72 -129 92 -48 17 -488 60 -703 70 -116 5 -150 3 -200 -11 -79
-24 -135 -77 -135 -131 0 -49 28 -93 87 -135 185 -133 196 -179 213 -925 15
-616 32 -817 91 -1064 65 -275 159 -444 326 -587 102 -86 196 -141 313 -181
407 -138 743 10 1060 469 l53 77 39 -82 c52 -106 110 -187 194 -268 160 -152
314 -219 509 -219 175 0 330 64 455 190 152 151 205 335 150 513 -70 228 -325
397 -538 358 -35 -7 -67 -10 -70 -7 -3 3 38 414 92 913 53 500 99 935 102 969
13 125 -29 225 -111 263 -86 40 -425 53 -695 26z"/>
<path d="M27720 37955 c-158 -15 -383 -53 -426 -71 -71 -30 -94 -103 -54 -176
10 -20 42 -67 69 -105 215 -295 245 -672 105 -1297 -100 -447 -191 -662 -344
-816 -183 -185 -343 -187 -412 -5 -60 157 -73 602 -37 1304 25 494 23 790 -4
836 -23 37 -71 72 -129 92 -48 17 -488 60 -703 70 -116 5 -150 3 -200 -11 -79
-24 -135 -77 -135 -131 0 -49 28 -93 87 -135 185 -133 196 -180 213 -920 14
-604 30 -799 86 -1048 63 -283 160 -460 331 -607 101 -87 201 -145 318 -184
405 -135 740 15 1055 472 l54 77 20 -48 c84 -196 259 -380 440 -462 92 -42
176 -60 281 -60 175 0 330 64 455 190 152 151 205 335 150 513 -70 227 -325
397 -536 358 -37 -6 -69 -10 -72 -7 -3 3 38 414 92 913 53 500 99 935 102 969
4 33 1 85 -5 115 -25 118 -86 162 -244 179 -123 13 -403 11 -557 -5z"/>
<path d="M42545 37889 c-229 -18 -465 -112 -649 -259 -83 -65 -252 -241 -309
-321 -149 -209 -267 -462 -360 -769 -55 -180 -71 -298 -64 -464 7 -162 29
-274 87 -450 78 -235 174 -401 309 -537 73 -73 100 -93 181 -132 194 -93 508
-185 755 -223 175 -26 480 -24 635 4 229 42 386 107 477 199 97 98 115 204 94
548 -14 226 -25 293 -56 356 -51 100 -167 116 -307 43 -59 -31 -102 -68 -224
-190 -83 -83 -177 -167 -208 -188 -179 -119 -417 -121 -596 -6 -171 110 -298
377 -231 486 33 55 64 59 324 44 329 -19 617 -3 912 50 148 27 176 35 232 73
35 24 56 47 77 91 28 55 30 68 34 200 10 343 -48 670 -160 902 -129 265 -319
435 -570 508 -77 22 -114 28 -248 40 -19 1 -80 -1 -135 -5z m188 -778 c55 -11
113 -28 130 -38 65 -38 137 -232 122 -326 -13 -76 -102 -143 -231 -173 -58
-13 -111 -15 -324 -11 -322 6 -404 24 -431 95 -23 60 43 230 141 364 53 72 82
96 133 109 57 15 353 2 460 -20z"/>
<path d="M38323 33360 c-194 -41 -325 -231 -254 -368 11 -20 45 -62 77 -92 33
-32 66 -76 79 -105 30 -67 73 -251 91 -388 15 -113 21 -467 9 -499 -6 -14 -22
-4 -90 58 -173 158 -342 264 -478 299 -448 113 -1048 -217 -1420 -780 -67
-101 -182 -332 -222 -445 -30 -85 -77 -269 -97 -380 -20 -116 -17 -500 5 -620
107 -570 549 -1027 1118 -1156 118 -27 375 -24 508 5 212 47 417 130 661 270
69 39 136 71 149 71 18 0 52 -28 125 -104 56 -57 121 -117 146 -133 398 -266
920 -130 1136 296 61 120 78 266 44 383 -25 87 -119 181 -208 209 -20 6 -75
13 -122 16 -69 3 -102 0 -175 -20 -49 -13 -106 -31 -126 -40 l-37 -16 -16 127
c-50 385 -71 845 -56 1230 11 284 18 365 65 777 54 473 58 518 58 740 1 240
-12 322 -67 441 -42 88 -94 148 -160 181 -47 24 -66 27 -226 34 -378 16 -477
18 -517 9z m-378 -1750 c184 -44 308 -128 357 -240 47 -107 51 -159 44 -570
-7 -401 -16 -497 -54 -581 -63 -140 -183 -227 -443 -325 -186 -69 -275 -88
-409 -88 -96 0 -125 4 -175 24 -231 90 -398 332 -435 628 -38 300 111 661 385
934 131 131 232 195 365 233 75 21 246 14 365 -15z"/>
<path d="M31755 33196 c-151 -31 -245 -109 -288 -241 -9 -27 -35 -156 -57
-285 -77 -451 -125 -880 -155 -1375 -8 -137 -19 -266 -25 -285 -13 -46 -63
-106 -109 -129 -48 -25 -137 -41 -225 -41 -169 -1 -261 -30 -320 -103 -26 -33
-31 -48 -31 -92 0 -65 15 -84 99 -125 76 -37 154 -55 366 -84 257 -36 279 -54
264 -211 -5 -49 -9 -166 -8 -260 1 -140 5 -184 22 -247 130 -476 484 -779 968
-828 162 -17 387 15 494 70 109 56 158 144 119 216 -7 14 -63 63 -125 109
-296 223 -486 541 -533 894 -13 101 -1 137 59 171 44 24 51 25 305 31 267 6
287 9 374 54 81 42 161 148 161 216 0 72 -48 146 -123 189 -78 44 -163 56
-315 42 -240 -23 -317 -15 -367 38 -41 43 -43 100 -6 315 63 371 94 670 112
1060 12 263 5 662 -12 728 -15 57 -71 112 -137 137 -116 44 -378 62 -507 36z"/>
<path d="M16535 33177 c-134 -45 -215 -132 -215 -232 0 -58 23 -103 95 -185
98 -112 137 -211 155 -396 27 -285 68 -1520 77 -2330 l6 -631 -22 -37 c-17
-26 -41 -45 -95 -70 -89 -42 -131 -76 -156 -127 -52 -101 13 -233 131 -268
113 -34 418 -36 639 -5 414 59 543 141 541 342 -1 77 -9 104 -106 367 -81 220
-112 481 -102 865 8 268 19 339 73 450 29 58 57 95 128 166 102 101 176 153
286 201 179 77 337 60 433 -46 158 -175 285 -803 263 -1306 -13 -321 -59 -493
-184 -691 -57 -91 -75 -145 -66 -195 22 -111 118 -198 262 -234 91 -23 347
-45 602 -51 196 -5 246 -4 303 10 124 29 206 84 252 168 25 44 30 64 29 119 0
90 -43 177 -171 347 -146 193 -216 335 -268 542 -57 228 -67 346 -69 885 -2
411 -3 427 -46 570 -75 249 -260 469 -495 588 -211 106 -455 132 -690 72 -68
-17 -154 -51 -275 -110 -158 -76 -263 -115 -312 -115 -14 0 -16 6 -13 28 9 50
25 482 25 665 0 288 -17 386 -76 456 -51 61 -120 85 -299 102 -72 7 -182 27
-275 51 -174 45 -299 56 -365 35z"/>
<path d="M40990 32696 c-54 -14 -397 -206 -603 -337 -231 -146 -317 -245 -333
-380 -11 -97 34 -212 108 -274 61 -52 131 -77 213 -77 91 1 142 22 234 96 80
64 222 153 443 278 92 51 187 108 212 125 177 125 168 413 -16 529 -42 27
-136 54 -183 53 -16 0 -50 -6 -75 -13z"/>
<path d="M28978 32355 c-632 -99 -1053 -772 -861 -1380 111 -351 403 -632 754
-723 41 -11 137 -34 214 -52 177 -41 249 -68 337 -126 223 -148 267 -395 99
-546 -122 -110 -362 -171 -546 -139 -85 15 -131 38 -178 90 -60 66 -83 134
-121 351 -41 234 -75 310 -190 417 -235 220 -593 216 -791 -10 -159 -182 -192
-489 -79 -735 130 -285 449 -506 857 -594 121 -26 395 -35 549 -18 253 27 550
100 821 201 349 130 554 285 658 494 54 109 73 203 65 330 -17 292 -174 529
-467 706 -114 68 -254 120 -471 173 -340 84 -448 149 -531 315 -24 49 -33 82
-35 133 -6 91 14 143 79 203 85 79 192 115 347 115 175 0 327 -65 458 -195 69
-68 89 -97 127 -177 66 -137 119 -169 186 -113 61 52 79 151 88 490 6 234 -7
495 -28 570 -6 22 -28 56 -49 77 -31 32 -44 38 -79 38 -47 0 -64 -14 -115 -95
-18 -30 -42 -53 -59 -59 -43 -15 -112 8 -203 69 -107 70 -185 109 -294 145
-168 57 -362 73 -542 45z"/>
<path d="M8583 32225 c-211 -57 -302 -300 -183 -488 37 -58 77 -87 288 -205
221 -125 363 -214 443 -278 92 -74 143 -95 234 -96 152 0 267 87 311 237 34
118 -5 235 -111 339 -73 71 -272 200 -565 365 -255 143 -301 157 -417 126z"/>
<path d="M15390 32234 c-98 -19 -279 -68 -346 -94 -213 -85 -324 -206 -312
-342 3 -35 23 -94 58 -173 46 -102 54 -129 54 -180 0 -73 -32 -148 -93 -217
-48 -54 -182 -158 -204 -158 -8 0 -43 30 -78 68 -161 170 -200 390 -115 637
35 102 37 113 27 153 -41 149 -236 221 -722 268 -226 21 -436 15 -529 -15
-141 -46 -218 -149 -208 -278 8 -90 56 -136 190 -178 110 -35 149 -57 199
-114 24 -27 188 -288 363 -580 306 -510 320 -534 324 -589 3 -50 0 -63 -26
-102 -15 -25 -228 -256 -472 -513 -244 -257 -466 -496 -493 -530 -116 -144
-128 -248 -39 -340 75 -79 168 -109 332 -108 155 1 356 44 471 102 66 33 133
95 163 148 39 73 34 132 -18 221 -66 112 -60 168 35 309 69 104 178 218 273
285 63 45 67 47 101 36 115 -38 147 -222 70 -407 -90 -217 -108 -298 -86 -381
17 -63 77 -117 157 -142 194 -59 835 -75 1069 -25 257 54 405 236 405 497 0
148 -51 266 -154 352 -95 80 -157 108 -402 181 -241 72 -339 122 -439 222 -69
70 -108 157 -108 244 0 57 5 80 33 136 29 59 70 105 314 353 377 382 615 664
684 808 83 174 22 327 -166 415 -61 29 -76 32 -177 33 -60 1 -121 0 -135 -2z"/>
<path d="M25930 32095 c-158 -15 -383 -53 -426 -71 -71 -30 -94 -103 -54 -176
10 -20 42 -67 69 -105 215 -295 245 -672 105 -1297 -100 -447 -191 -662 -344
-816 -183 -185 -343 -187 -412 -5 -60 157 -73 602 -37 1304 25 494 23 790 -4
836 -23 37 -71 72 -129 92 -48 17 -488 60 -703 70 -116 5 -150 3 -200 -11 -79
-24 -135 -77 -135 -131 0 -49 28 -93 87 -135 185 -133 196 -179 213 -925 15
-617 32 -821 91 -1065 66 -276 159 -443 326 -586 102 -86 196 -141 313 -181
407 -139 743 10 1060 470 l54 77 20 -48 c84 -196 259 -380 440 -462 92 -42
176 -60 281 -60 175 0 330 64 455 190 152 151 205 335 150 513 -70 227 -325
397 -536 358 -37 -6 -69 -10 -72 -7 -3 3 38 414 92 913 53 500 99 935 102 969
4 33 1 85 -5 115 -25 118 -86 162 -244 179 -123 13 -403 11 -557 -5z"/>
<path d="M11365 32029 c-229 -18 -465 -112 -649 -259 -83 -65 -252 -241 -309
-321 -149 -210 -267 -461 -361 -773 -55 -179 -69 -284 -62 -456 6 -166 27
-275 86 -454 78 -235 174 -401 309 -537 73 -73 100 -93 181 -132 194 -93 508
-185 755 -223 175 -26 480 -24 635 4 229 42 386 107 477 199 97 98 115 204 94
548 -14 226 -25 293 -56 356 -51 100 -167 116 -307 43 -59 -31 -102 -68 -224
-190 -83 -83 -177 -167 -208 -188 -179 -119 -417 -121 -596 -6 -171 110 -298
377 -231 486 33 55 64 59 327 44 341 -19 645 -1 937 55 182 36 242 70 285 164
23 50 26 72 30 196 11 342 -48 669 -160 901 -129 265 -319 435 -570 508 -77
22 -114 28 -248 40 -19 1 -80 -1 -135 -5z m170 -774 c134 -24 173 -47 213
-122 39 -74 66 -191 57 -246 -13 -76 -102 -143 -231 -173 -58 -13 -111 -15
-324 -11 -322 6 -404 24 -431 95 -23 60 43 230 141 364 53 72 82 96 133 109
50 13 342 3 442 -16z"/>
<path d="M34470 32030 c-170 -13 -361 -73 -512 -161 -190 -111 -402 -329 -538
-553 -144 -236 -284 -604 -325 -855 -22 -131 -16 -341 15 -480 44 -206 142
-449 241 -601 24 -36 81 -104 128 -151 73 -73 100 -93 181 -132 194 -93 508
-185 755 -223 175 -26 480 -24 635 4 229 42 386 107 477 199 97 98 115 204 94
548 -14 226 -25 293 -56 356 -51 100 -167 116 -307 43 -59 -31 -102 -68 -224
-190 -83 -83 -177 -167 -208 -188 -179 -119 -417 -121 -596 -6 -171 110 -298
377 -231 486 33 55 64 59 327 44 332 -19 613 -3 909 50 148 27 176 35 232 73
35 24 56 47 77 91 28 55 30 68 34 200 10 343 -48 670 -160 902 -129 265 -319
435 -570 508 -77 22 -115 28 -248 40 -19 1 -78 0 -130 -4z m165 -775 c134 -24
173 -47 213 -122 39 -74 66 -191 57 -246 -13 -76 -102 -143 -231 -173 -58 -13
-111 -15 -324 -11 -322 6 -404 24 -431 95 -23 60 43 230 141 364 53 72 82 96
133 109 50 13 342 3 442 -16z"/>
<path d="M21348 31985 c-175 -33 -373 -114 -522 -214 -90 -59 -236 -198 -291
-276 -94 -132 -135 -248 -136 -380 -1 -104 25 -176 91 -248 144 -157 375 -162
527 -11 56 57 87 125 108 239 27 145 63 194 169 234 215 80 469 -18 570 -220
36 -73 62 -190 51 -238 l-6 -29 -117 -7 c-337 -19 -586 -62 -807 -137 -467
-160 -802 -509 -866 -902 -17 -110 -7 -303 21 -386 47 -139 140 -268 247 -342
312 -214 823 -220 1259 -14 125 59 202 114 311 218 103 99 148 125 188 106 14
-6 54 -52 90 -102 150 -212 327 -347 521 -396 362 -93 734 172 684 488 -14 84
-49 158 -107 222 -85 94 -185 136 -295 124 -69 -8 -104 0 -118 25 -24 45 -33
183 -40 621 -6 367 -11 484 -24 555 -96 517 -469 917 -986 1057 -100 27 -407
35 -522 13z m718 -1700 c7 -38 11 -71 10 -71 -15 -15 -728 -394 -790 -421
l-88 -37 -146 18 c-81 11 -152 21 -159 23 -26 10 31 118 90 170 54 48 398 249
437 257 19 3 116 29 215 56 179 50 333 80 390 77 29 -2 30 -4 41 -72z"/>
<path d="M42245 31801 c-16 -5 -174 -47 -350 -95 -817 -223 -1331 -369 -1374
-391 -57 -28 -116 -91 -144 -154 -16 -34 -21 -66 -21 -126 0 -94 20 -149 80
-214 69 -77 178 -120 273 -107 26 3 135 30 242 60 247 69 1057 292 1298 357
102 28 202 59 223 70 61 31 115 86 145 147 24 49 28 69 28 142 0 70 -4 94 -24
135 -32 64 -93 124 -156 154 -54 26 -165 37 -220 22z"/>
<path d="M7310 31323 c-68 -23 -127 -69 -165 -126 -106 -162 -49 -378 123
-466 21 -11 121 -42 223 -70 241 -65 1051 -288 1298 -357 107 -30 216 -57 242
-60 131 -17 274 67 332 195 30 65 29 188 0 253 -28 61 -91 128 -145 155 -47
23 -1107 320 -1708 479 -70 18 -143 17 -200 -3z"/>
<path d="M40460 30361 c-92 -28 -182 -112 -213 -197 -21 -61 -22 -165 -1 -227
20 -60 93 -141 154 -172 56 -28 106 -39 526 -111 256 -43 344 -55 399 -51 125
8 221 73 273 186 21 45 26 71 26 131 0 91 -25 155 -87 218 -75 77 -105 87
-460 147 -177 31 -357 62 -401 70 -83 16 -175 18 -216 6z"/>
<path d="M9085 29890 c-22 -5 -199 -36 -392 -69 -387 -66 -415 -75 -490 -153
-62 -63 -87 -127 -87 -218 0 -175 123 -306 299 -317 54 -4 144 8 397 51 525
89 538 93 621 186 55 61 77 121 77 209 0 86 -24 153 -79 213 -64 72 -127 101
-226 104 -44 2 -98 -1 -120 -6z"/>
<path d="M19278 27614 c-160 -38 -265 -129 -351 -305 -65 -133 -81 -196 -76
-305 10 -202 165 -352 454 -440 83 -26 104 -28 260 -28 157 -1 175 1 229 23
248 99 439 593 325 837 -26 54 -86 109 -147 135 -54 24 -207 62 -336 84 -108
18 -281 18 -358 -1z"/>
<path d="M43310 27596 c-83 -20 -106 -32 -162 -83 -82 -77 -117 -180 -88 -258
5 -14 41 -58 78 -98 82 -87 102 -132 143 -332 35 -174 52 -379 43 -536 -4 -65
-9 -119 -11 -119 -3 0 -42 34 -87 76 -213 195 -373 280 -566 304 -195 23 -436
-42 -665 -180 -480 -290 -812 -787 -917 -1373 -30 -173 -31 -453 0 -618 27
-147 53 -231 108 -348 186 -398 561 -699 984 -787 124 -27 353 -25 480 3 214
47 444 142 666 273 48 29 103 54 121 57 32 6 39 1 120 -86 101 -107 159 -151
268 -202 107 -50 198 -70 320 -70 125 1 227 26 335 82 238 123 394 353 394
579 1 110 -23 176 -86 246 -74 80 -126 99 -273 99 -109 0 -128 -3 -210 -32
-49 -17 -92 -30 -93 -28 -6 6 -31 197 -46 362 -54 572 -43 1047 43 1769 44
364 54 522 48 727 -4 146 -9 197 -26 255 -42 144 -104 233 -195 279 -47 25
-64 27 -236 34 -102 4 -241 10 -310 13 -88 4 -141 2 -180 -8z m-327 -1710
c212 -63 306 -152 343 -325 16 -77 19 -514 4 -756 -14 -235 -56 -333 -188
-434 -101 -78 -354 -181 -534 -217 -109 -22 -262 -15 -338 15 -175 70 -337
279 -391 506 -29 124 -23 319 14 445 68 228 208 445 397 615 91 82 169 131
259 163 60 21 79 22 206 19 114 -4 156 -9 228 -31z"/>
<path d="M10438 27435 c-146 -37 -230 -116 -267 -250 -20 -74 -90 -499 -120
-735 -38 -296 -57 -500 -76 -815 -8 -138 -17 -269 -20 -291 -9 -67 -54 -127
-118 -158 -48 -24 -76 -29 -232 -41 -212 -16 -251 -31 -299 -109 -54 -87 -34
-149 64 -198 72 -36 144 -53 354 -83 181 -26 204 -32 243 -68 34 -30 37 -74
17 -219 -15 -113 -16 -147 -6 -242 25 -243 106 -438 256 -617 209 -250 575
-394 911 -359 229 24 371 92 405 194 19 58 -8 98 -125 187 -175 134 -300 280
-395 465 -75 146 -129 339 -130 462 0 56 3 67 28 92 41 40 105 50 335 50 137
0 218 5 252 14 152 40 255 143 255 252 0 96 -55 161 -171 205 -62 24 -161 27
-332 9 -108 -11 -204 -3 -247 20 -35 19 -60 70 -60 125 0 28 13 127 29 220 74
430 101 746 108 1240 5 407 0 487 -35 534 -65 88 -169 120 -407 127 -119 3
-175 0 -217 -11z"/>
<path d="M15226 27405 c-98 -40 -176 -133 -176 -210 0 -46 31 -104 94 -175
103 -117 147 -243 161 -465 33 -536 85 -2418 73 -2719 -3 -100 -5 -107 -33
-137 -17 -17 -55 -43 -85 -56 -103 -46 -150 -97 -165 -176 -15 -76 44 -165
131 -202 51 -21 279 -37 414 -30 441 25 699 116 739 262 26 92 11 177 -68 380
-109 282 -135 495 -121 963 7 207 9 231 34 303 14 43 41 102 60 130 37 58 167
186 240 236 118 82 266 128 375 118 169 -15 264 -148 351 -496 64 -254 84
-436 84 -756 0 -200 -4 -283 -17 -357 -24 -138 -69 -270 -123 -363 -99 -168
-106 -186 -100 -239 7 -62 48 -130 103 -172 90 -69 233 -94 650 -115 185 -10
262 -10 328 -1 203 27 330 138 328 289 -1 86 -44 174 -166 335 -140 186 -193
289 -252 493 -61 212 -68 289 -72 785 -3 536 -9 588 -85 765 -64 149 -192 306
-325 401 -80 58 -207 117 -313 146 -72 20 -108 23 -240 23 -211 -1 -272 -18
-537 -148 -135 -66 -264 -109 -280 -94 -2 3 1 119 7 259 7 139 10 359 8 488
-4 210 -7 241 -26 291 -45 114 -116 153 -323 174 -87 10 -201 31 -298 55 -194
49 -284 53 -375 15z"/>
<path d="M25790 26546 c-585 -104 -1033 -544 -1157 -1136 -25 -117 -24 -372 0
-490 66 -310 207 -551 454 -770 50 -45 99 -93 108 -106 9 -14 23 -64 31 -112
8 -48 28 -114 43 -148 52 -111 164 -217 308 -291 96 -50 161 -72 342 -118 237
-59 320 -99 395 -187 48 -55 63 -106 46 -148 -30 -73 -226 -192 -367 -224
-101 -22 -251 -21 -348 4 -140 36 -169 64 -189 190 -17 106 -31 157 -64 240
-76 193 -223 342 -383 391 -94 29 -213 24 -284 -10 -142 -69 -252 -263 -277
-487 -22 -191 29 -342 156 -470 95 -95 170 -137 447 -250 369 -151 461 -180
664 -210 155 -22 490 -15 645 14 484 91 922 304 1095 534 107 141 150 273 150
463 0 148 -18 225 -83 350 -52 101 -199 246 -307 302 -189 99 -343 109 -690
48 -309 -55 -508 -52 -550 8 -38 55 0 97 105 117 193 36 370 110 500 209 90
68 216 201 280 296 175 260 261 622 231 982 -15 187 -14 257 5 301 18 44 56
86 104 114 78 46 111 72 130 103 41 66 13 135 -62 155 -47 13 -95 7 -191 -26
-39 -13 -94 -24 -122 -24 -58 0 -66 5 -198 120 -133 116 -291 196 -486 247
-119 31 -361 40 -481 19z m204 -831 c99 -47 205 -212 242 -374 23 -104 15
-298 -16 -396 -79 -247 -243 -408 -442 -431 -81 -9 -135 9 -189 66 -80 82
-112 198 -112 405 0 186 33 350 99 494 41 88 86 146 154 196 90 66 180 80 264
40z"/>
<path d="M22510 26506 c-163 -34 -341 -115 -493 -223 -77 -55 -267 -234 -336
-317 -18 -21 -33 -37 -34 -35 -94 148 -155 221 -240 285 -73 56 -179 107 -262
129 -120 31 -278 14 -393 -43 -109 -53 -222 -183 -222 -256 0 -46 37 -102 107
-163 122 -104 162 -152 208 -247 63 -131 87 -236 120 -531 36 -322 46 -496 51
-880 6 -482 15 -447 -122 -515 -116 -58 -150 -82 -185 -138 -53 -83 -36 -179
42 -245 74 -64 119 -72 399 -71 208 0 259 3 340 21 197 43 326 112 385 207 26
42 30 61 33 131 4 78 1 89 -67 291 -126 375 -157 537 -148 789 8 234 53 385
164 552 83 126 226 251 345 302 180 77 377 61 477 -40 84 -85 152 -334 187
-689 20 -206 30 -696 15 -788 -25 -160 -83 -274 -171 -339 -81 -60 -120 -94
-136 -119 -61 -93 -17 -249 90 -324 24 -16 72 -39 107 -51 58 -21 82 -23 244
-23 263 -1 493 37 759 125 221 73 273 110 297 217 10 43 10 61 -5 116 -21 78
-53 129 -138 228 -138 157 -168 206 -200 326 -18 68 -21 123 -29 452 -21 935
-131 1390 -403 1655 -102 99 -207 157 -362 201 -79 22 -334 28 -424 10z"/>
<path d="M46517 26480 c-609 -54 -1125 -393 -1382 -909 -228 -457 -229 -1036
-4 -1497 210 -430 576 -706 1044 -786 156 -26 438 -22 580 10 335 76 626 235
879 481 177 173 289 329 392 546 151 320 194 635 134 990 -66 388 -181 617
-401 801 -314 262 -795 403 -1242 364z m-2 -681 c345 -42 623 -234 729 -503
41 -102 56 -188 56 -322 0 -205 -53 -439 -141 -622 -134 -277 -340 -372 -778
-360 -186 6 -253 21 -371 85 -164 89 -274 247 -325 467 -68 291 -15 731 115
964 130 232 376 332 715 291z"/>
<path d="M30607 26396 c-132 -47 -209 -174 -193 -317 4 -32 31 -135 61 -229
81 -255 125 -474 155 -760 19 -188 29 -618 21 -915 -9 -336 -11 -347 -107
-446 -65 -69 -93 -127 -94 -192 0 -113 101 -205 260 -236 152 -29 697 -51 815
-33 94 15 171 56 210 110 25 36 30 53 30 100 0 49 -6 68 -46 137 -148 260
-206 508 -216 920 -6 269 8 538 30 582 19 36 62 73 148 128 35 22 133 107 219
188 85 81 184 168 220 192 69 48 161 85 208 85 45 0 94 -40 129 -105 111 -204
156 -546 157 -1180 1 -378 -4 -422 -66 -536 -30 -58 -56 -85 -175 -184 -109
-91 -145 -170 -123 -271 32 -144 156 -241 335 -264 170 -22 480 46 735 160
183 82 228 125 237 229 7 76 -13 144 -88 294 -130 259 -179 484 -198 912 -9
210 -3 290 25 334 65 99 327 302 513 396 159 81 222 55 307 -130 62 -136 107
-297 135 -490 17 -114 17 -556 1 -683 -22 -167 -33 -186 -211 -362 -161 -160
-199 -213 -215 -303 -16 -87 43 -191 135 -238 97 -49 179 -61 409 -61 496 1
773 66 930 222 123 122 121 197 -11 360 -70 86 -149 242 -178 349 -46 167 -55
267 -51 571 10 688 6 783 -41 970 -83 335 -318 571 -649 652 -110 28 -303 30
-404 5 -186 -47 -327 -128 -472 -272 -105 -104 -162 -184 -216 -297 l-31 -67
-37 75 c-135 267 -437 444 -761 444 -304 0 -624 -164 -844 -433 l-70 -86 -21
68 c-47 152 -171 331 -302 434 -183 143 -463 223 -605 173z"/>
<path d="M5435 26387 c-183 -40 -276 -139 -283 -302 -3 -69 0 -86 21 -125 30
-58 70 -84 149 -100 113 -22 145 -68 116 -167 -19 -63 -380 -923 -388 -923 -3
0 -106 280 -229 623 -123 342 -240 659 -261 704 -112 240 -303 284 -471 106
-82 -86 -122 -154 -216 -368 -152 -343 -268 -634 -393 -990 l-78 -219 -21 34
c-77 123 -155 326 -193 500 -19 90 -22 135 -23 320 0 233 7 283 67 485 64 212
41 298 -95 360 -95 44 -162 47 -694 31 -534 -16 -593 -23 -676 -76 -82 -52
-108 -127 -65 -189 31 -46 78 -68 213 -102 150 -36 194 -68 252 -183 14 -27
248 -597 520 -1265 272 -669 503 -1230 514 -1247 39 -63 111 -84 175 -51 38
20 103 90 137 148 14 24 146 330 293 679 147 349 272 648 279 664 11 27 15 20
69 -144 90 -276 198 -536 341 -826 174 -352 219 -404 347 -404 67 0 124 26
186 84 68 63 105 150 159 369 104 427 228 737 593 1482 172 351 312 660 334
737 44 154 -6 259 -149 309 -128 45 -417 70 -530 46z"/>
<path d="M13305 26364 c-135 -14 -309 -66 -455 -135 -328 -156 -614 -446 -769
-781 -198 -426 -183 -909 42 -1368 102 -208 268 -422 438 -566 353 -299 699
-368 1259 -249 405 86 614 197 700 372 31 63 34 77 38 183 3 90 -1 140 -18
233 -37 194 -71 239 -191 245 -62 4 -77 1 -132 -27 -34 -17 -100 -65 -147
-107 -172 -155 -272 -199 -455 -199 -135 0 -193 14 -315 73 -82 40 -108 59
-190 141 -115 116 -178 219 -232 377 -118 344 -75 697 115 950 25 33 73 81
106 107 190 150 406 149 513 0 42 -59 65 -113 113 -268 53 -171 85 -234 151
-294 203 -186 586 -72 769 228 64 106 96 211 102 331 9 177 -38 301 -158 421
-153 154 -400 252 -779 309 -138 21 -410 34 -505 24z"/>
<path d="M19295 26340 c-263 -36 -410 -62 -450 -79 -117 -51 -136 -180 -43
-286 29 -33 68 -59 145 -97 76 -38 108 -59 116 -77 20 -47 20 -458 1 -778 -47
-775 -5 -1153 159 -1438 50 -87 172 -210 250 -252 217 -118 449 -105 596 32
89 84 114 180 70 268 -12 23 -70 90 -129 148 -91 90 -114 119 -149 190 -86
175 -106 323 -106 779 1 361 14 542 60 831 53 324 58 378 46 463 -20 142 -85
244 -184 286 -72 32 -201 35 -382 10z"/>
<path d="M37028 26295 c-475 -77 -874 -452 -1109 -1040 -46 -115 -116 -346
-136 -445 -88 -438 148 -1103 466 -1314 153 -102 547 -224 861 -267 133 -18
421 -16 545 5 299 49 483 144 552 284 27 55 28 64 31 231 4 175 -10 402 -29
492 -12 55 -41 103 -82 133 -21 16 -43 21 -90 21 -116 0 -188 -45 -387 -241
-154 -152 -225 -202 -329 -234 -76 -24 -211 -26 -290 -5 -178 47 -329 200
-376 380 -27 105 -17 158 36 189 34 20 59 21 419 11 294 -8 435 -1 677 36 170
26 238 43 293 77 105 65 131 174 112 479 -14 230 -40 386 -87 529 -121 359
-341 582 -656 664 -109 28 -300 35 -421 15z m222 -741 c137 -21 167 -32 205
-76 41 -48 85 -178 85 -250 0 -67 -22 -104 -86 -146 -85 -57 -127 -65 -358
-70 -287 -5 -436 13 -493 62 -33 29 -34 84 -4 171 38 107 152 278 204 307 52
28 268 29 447 2z"/>
<path d="M7496 26269 c-326 -45 -654 -227 -832 -462 -60 -80 -129 -224 -145
-305 -41 -213 84 -403 291 -442 101 -19 206 13 290 88 62 55 96 122 120 235
25 123 39 155 83 194 55 49 125 68 242 67 78 0 112 -5 156 -22 172 -68 277
-209 287 -389 l4 -81 -53 -6 c-30 -3 -99 -8 -154 -11 -562 -31 -976 -185
-1252 -466 -138 -141 -216 -270 -269 -444 -24 -79 -27 -107 -27 -230 -1 -104
4 -157 17 -205 78 -291 314 -470 680 -517 102 -14 143 -14 256 -5 217 19 355
55 536 141 135 65 208 116 325 228 138 132 151 130 265 -32 129 -185 308 -317
498 -366 306 -80 640 117 663 390 13 157 -79 320 -220 391 -55 28 -69 30 -163
30 -99 0 -104 1 -120 24 -29 45 -35 136 -44 606 -7 403 -11 478 -28 560 -107
514 -491 906 -994 1016 -88 19 -316 26 -412 13z m640 -1651 c5 -35 8 -67 9
-72 0 -10 -41 -33 -420 -239 -143 -77 -299 -158 -347 -179 l-88 -37 -137 19
c-76 11 -144 20 -150 20 -35 0 20 114 80 167 52 45 380 240 418 248 19 4 115
29 214 57 170 46 311 75 382 77 31 1 31 1 39 -61z"/>
<path d="M42990 21281 c-57 -18 -133 -64 -178 -109 -26 -26 -75 -67 -107 -92
-49 -37 -63 -54 -77 -95 -28 -85 -59 -297 -58 -401 0 -217 20 -550 35 -604 8
-30 13 -60 11 -67 -3 -7 4 -88 14 -180 11 -92 24 -242 30 -333 7 -123 18 -197
40 -289 17 -69 37 -175 46 -235 18 -137 46 -276 84 -425 25 -100 33 -118 67
-153 99 -101 279 -83 352 36 28 45 37 76 61 216 27 162 38 320 45 665 4 183
12 327 20 370 7 39 16 124 20 190 3 66 17 221 30 345 41 391 57 609 53 704 -4
78 -12 109 -54 220 l-49 129 -93 59 -93 58 -87 -1 c-48 0 -98 -4 -112 -8z"/>
<path d="M32402 21270 c-236 -33 -450 -138 -482 -236 -25 -76 6 -130 140 -239
38 -31 85 -80 104 -109 44 -66 81 -176 96 -281 16 -120 29 -1385 20 -2055 -9
-657 -8 -654 -85 -875 -99 -287 -51 -364 274 -431 232 -48 472 -53 726 -17
247 34 326 92 327 237 0 83 -21 153 -94 311 -122 263 -185 452 -232 693 -78
401 -91 852 -41 1482 52 660 73 741 232 930 104 123 127 167 127 245 0 132
-111 245 -284 290 -179 46 -662 78 -828 55z"/>
<path d="M37022 21249 c-190 -24 -307 -80 -355 -167 -53 -97 -52 -193 2 -477
67 -354 108 -656 136 -1000 18 -222 33 -925 19 -925 -9 1 -39 39 -253 319
-409 537 -776 1086 -1146 1716 -65 110 -134 223 -153 250 -111 157 -217 215
-391 215 -135 0 -731 -75 -783 -98 -109 -49 -121 -116 -64 -349 60 -250 68
-345 67 -878 -2 -805 -21 -2164 -31 -2212 -12 -52 -39 -107 -109 -222 -76
-125 -86 -172 -48 -233 27 -45 58 -70 134 -107 98 -49 174 -65 313 -65 168 0
300 29 435 97 83 41 122 73 151 123 40 69 40 124 0 349 -69 392 -101 695 -116
1106 -9 250 -2 625 15 809 14 155 36 368 41 389 4 20 27 -17 118 -190 444
-848 955 -1566 1624 -2282 246 -263 325 -320 452 -320 140 -1 257 106 307 280
14 51 17 138 18 743 2 377 8 818 14 980 15 365 47 923 62 1050 26 236 80 369
210 520 104 122 138 172 155 228 40 130 -46 225 -268 296 -185 59 -378 78
-556 55z"/>
<path d="M30639 21235 c-224 -36 -420 -106 -507 -181 -50 -43 -77 -107 -70
-169 4 -29 25 -78 61 -142 71 -126 94 -195 106 -324 9 -90 29 -1311 24 -1487
-2 -107 -19 -119 -203 -147 -331 -49 -754 -73 -1029 -58 -172 9 -174 9 -197
36 l-24 28 0 387 c0 538 40 1268 76 1391 12 42 30 69 84 126 76 80 96 128 85
199 -9 53 -51 131 -89 162 -164 138 -620 186 -998 104 -159 -34 -230 -60 -264
-94 -62 -62 -55 -123 24 -226 118 -156 140 -191 166 -271 52 -157 52 -186 13
-1514 -20 -665 -41 -1262 -47 -1325 l-10 -115 -85 -175 c-78 -160 -85 -180
-85 -234 0 -57 2 -61 45 -102 34 -33 64 -49 127 -70 77 -26 95 -28 258 -28
143 0 195 4 288 22 285 57 498 140 552 213 54 75 53 100 -19 446 -22 105 -47
252 -57 326 -16 127 -16 137 -1 161 10 14 27 28 40 31 51 12 1284 81 1316 74
54 -12 71 -37 83 -120 14 -101 4 -388 -16 -459 -22 -77 -70 -171 -117 -227
-64 -76 -89 -133 -89 -202 0 -86 31 -160 95 -229 112 -121 214 -152 532 -159
250 -6 376 5 493 43 140 47 242 127 301 237 28 52 34 75 37 146 5 96 0 126
-73 386 -206 735 -294 1398 -282 2130 4 254 9 330 26 421 29 157 79 296 160
444 108 196 130 284 95 368 -52 126 -207 179 -549 187 -135 3 -215 0 -276 -10z"/>
<path d="M18120 21226 c-145 -23 -247 -46 -464 -107 -251 -71 -288 -73 -432
-28 -140 43 -204 57 -322 68 -170 18 -407 -13 -518 -65 -51 -24 -77 -68 -69
-119 8 -50 30 -86 121 -193 111 -129 148 -204 186 -374 19 -86 21 -143 28
-798 5 -388 9 -994 9 -1347 1 -800 8 -748 -137 -983 -187 -302 -181 -400 23
-400 76 0 891 118 965 140 127 38 184 94 202 202 10 56 2 141 -66 758 -42 382
-76 721 -76 753 0 92 33 137 99 137 55 0 58 -8 105 -230 134 -634 519 -1210
952 -1424 128 -63 211 -86 336 -93 190 -10 347 31 493 128 178 119 276 311
247 485 -22 133 -104 254 -196 289 -48 19 -114 17 -231 -5 -93 -17 -141 -4
-205 56 -53 49 -91 115 -143 249 -103 266 -247 730 -247 799 0 56 16 75 129
158 289 212 482 503 536 808 53 300 -33 614 -223 821 -128 139 -297 236 -508
291 -110 28 -134 31 -314 34 -126 2 -225 -2 -280 -10z m-123 -507 c227 -49
346 -102 402 -180 98 -134 96 -314 -4 -496 -48 -87 -227 -266 -346 -345 -161
-108 -334 -178 -439 -178 l-37 0 -8 53 c-18 131 -22 371 -13 712 5 204 11 380
14 392 14 72 208 90 431 42z"/>
<path d="M22450 21233 c-115 -20 -193 -65 -240 -140 -68 -106 -50 -179 74
-307 104 -105 121 -143 114 -253 -3 -58 -13 -100 -39 -163 -34 -83 -507 -900
-521 -900 -13 0 -149 164 -200 240 -97 146 -179 341 -219 519 -18 79 -23 143
-29 361 -8 290 -13 316 -68 381 -41 48 -69 63 -142 78 -71 14 -921 45 -1068
38 -103 -4 -118 -7 -180 -38 -143 -72 -193 -217 -107 -316 18 -21 75 -63 126
-93 110 -65 221 -170 301 -285 72 -104 283 -454 461 -765 333 -581 427 -821
452 -1150 7 -89 -5 -265 -31 -460 -33 -256 -56 -318 -164 -445 -90 -106 -113
-154 -108 -226 7 -98 78 -176 193 -214 97 -31 197 -37 597 -32 439 4 471 9
547 73 64 55 86 112 85 219 -1 112 -19 162 -115 317 -136 220 -182 338 -199
514 -29 308 73 626 324 1004 56 85 304 431 549 767 246 337 462 636 480 665
64 101 71 155 31 236 -56 113 -264 259 -466 326 -135 45 -333 67 -438 49z"/>
<path d="M9358 21220 c-108 -19 -226 -98 -248 -166 -25 -75 18 -146 171 -280
61 -53 134 -125 163 -160 69 -83 144 -220 200 -364 24 -63 230 -713 457 -1445
226 -731 427 -1365 445 -1409 121 -288 317 -404 513 -304 133 68 219 208 356
583 326 890 647 1625 1126 2575 249 493 265 534 257 657 -9 131 -74 224 -181
257 -71 21 -453 49 -607 44 -153 -6 -210 -27 -281 -105 -66 -74 -84 -148 -54
-219 20 -48 47 -78 143 -163 105 -93 132 -144 132 -251 0 -95 -19 -169 -113
-435 -152 -428 -348 -899 -535 -1280 l-88 -180 -69 129 c-208 392 -405 883
-539 1341 -88 301 -110 404 -110 520 -1 122 6 143 74 225 51 62 62 85 62 135
2 86 -64 158 -180 199 -46 16 -256 42 -615 75 -275 26 -419 32 -479 21z"/>
<path d="M6296 21210 c-153 -19 -260 -55 -302 -102 -51 -55 -40 -128 41 -263
71 -119 100 -184 121 -275 16 -67 18 -157 21 -855 2 -429 0 -1050 -5 -1380 -8
-512 -11 -607 -25 -651 -9 -28 -48 -99 -87 -159 -38 -59 -74 -124 -80 -144
-36 -131 25 -200 196 -223 70 -10 117 -9 272 7 213 20 309 15 602 -30 266 -42
363 -53 570 -66 219 -13 823 -5 918 12 111 21 172 71 191 159 22 102 -51 923
-94 1065 -20 65 -52 109 -96 134 -101 57 -197 -1 -331 -198 -207 -305 -474
-462 -813 -478 -99 -4 -228 6 -241 19 -7 8 68 743 81 793 30 111 86 165 171
165 56 0 109 -31 214 -125 180 -162 288 -185 389 -84 54 55 84 131 89 228 6
103 -15 616 -29 724 -18 140 -60 221 -133 257 -54 25 -89 25 -143 -1 -60 -29
-105 -86 -169 -215 -88 -176 -140 -224 -246 -224 -93 0 -128 44 -128 162 0
109 51 809 61 836 14 36 53 45 164 38 258 -15 461 -87 688 -243 60 -41 127
-83 150 -94 134 -60 288 30 352 206 36 100 30 669 -10 801 -33 113 -99 164
-219 171 -51 3 -221 -16 -601 -67 -291 -39 -566 -74 -610 -77 -95 -7 -165 9
-300 67 -120 51 -193 75 -285 94 -97 19 -256 27 -344 16z"/>
<path d="M13506 21210 c-153 -19 -260 -55 -302 -102 -51 -55 -40 -128 41 -263
74 -124 101 -186 122 -285 17 -80 18 -165 16 -1425 -1 -1177 -3 -1349 -17
-1408 -19 -80 -30 -104 -107 -220 -32 -49 -63 -105 -69 -125 -36 -132 24 -201
196 -224 70 -10 117 -9 272 7 213 20 309 15 602 -30 266 -42 363 -53 570 -66
219 -13 823 -5 918 12 111 21 172 71 191 159 22 102 -51 923 -94 1065 -20 65
-52 109 -96 134 -101 57 -197 -1 -331 -198 -207 -305 -474 -462 -813 -478 -99
-4 -228 6 -241 19 -7 8 68 743 81 793 30 111 86 165 171 165 55 0 108 -30 204
-116 98 -88 151 -126 199 -142 147 -51 279 75 289 277 6 103 -15 616 -29 724
-18 140 -60 221 -133 257 -54 25 -89 25 -143 -1 -61 -29 -106 -87 -168 -214
-86 -175 -141 -225 -247 -225 -93 0 -128 44 -128 162 0 109 51 809 61 836 14
36 53 45 164 38 258 -15 461 -87 688 -243 60 -41 127 -83 150 -94 134 -60 288
30 352 206 36 100 30 669 -10 801 -21 71 -53 115 -105 144 -73 40 -183 34
-755 -44 -269 -37 -526 -70 -570 -73 -95 -7 -165 9 -300 67 -120 51 -193 75
-285 94 -97 19 -256 27 -344 16z"/>
<path d="M25010 21103 c-595 -25 -727 -35 -829 -60 -189 -47 -323 -172 -385
-361 -41 -124 -50 -196 -50 -377 1 -311 54 -473 178 -538 48 -25 155 -29 223
-9 111 33 216 138 320 319 167 291 283 405 427 420 68 7 83 -7 90 -89 9 -101
106 -2324 106 -2429 0 -188 -31 -300 -129 -462 -75 -126 -103 -200 -108 -287
-5 -92 13 -132 78 -173 77 -48 167 -60 394 -54 227 7 378 27 587 81 251 64
362 129 388 226 15 55 8 82 -56 227 -168 382 -243 749 -274 1338 -13 256 -13
1438 0 1487 32 115 151 160 268 102 85 -42 123 -98 221 -324 70 -162 177 -282
311 -348 47 -23 68 -27 145 -27 109 0 164 23 237 97 103 105 145 261 134 494
-18 399 -82 551 -267 645 -126 63 -255 81 -728 99 -222 9 -1102 11 -1281 3z"/>
<path d="M39980 21079 c-277 -34 -606 -190 -895 -424 -124 -100 -309 -293
-403 -420 -444 -598 -565 -1315 -336 -1995 108 -319 286 -609 473 -767 258
-220 533 -309 1192 -388 624 -74 1025 -46 1366 94 209 87 367 211 431 342 38
80 48 143 61 414 15 298 58 503 160 757 74 186 82 269 35 359 -23 45 -97 114
-149 139 -124 60 -243 63 -743 20 -431 -37 -505 -54 -587 -135 -72 -73 -93
-162 -56 -239 19 -37 40 -57 119 -111 141 -95 182 -165 182 -313 0 -297 -243
-557 -561 -602 -120 -17 -261 13 -378 82 -79 46 -237 208 -287 293 -115 198
-164 416 -164 738 0 438 92 783 287 1074 192 286 525 493 825 510 95 6 96 5
124 -22 l27 -27 -7 -174 c-7 -203 5 -337 40 -442 46 -139 136 -246 256 -307
367 -184 809 52 930 497 27 98 31 296 9 388 -65 262 -250 472 -503 569 -111
43 -195 55 -339 47 -391 -20 -401 -20 -620 13 -236 35 -382 44 -489 30z"/>
<path d="M42929 18071 c-123 -26 -229 -55 -245 -66 -105 -68 -192 -198 -215
-320 -14 -72 -6 -227 15 -305 63 -230 206 -341 442 -341 50 0 111 5 135 10 24
5 98 17 164 25 66 8 146 24 178 36 211 79 352 354 303 590 -23 106 -59 175
-135 251 -76 76 -161 121 -267 143 -137 28 -147 27 -375 -23z"/>
</g>
</svg>
