<?xml version="1.0" standalone="no"?>
<!DOCTYPE svg PUBLIC "-//W3C//DTD SVG 20010904//EN"
 "http://www.w3.org/TR/2001/REC-SVG-20010904/DTD/svg10.dtd">
<svg version="1.0" xmlns="http://www.w3.org/2000/svg"
 width="5000.000000pt" height="5000.000000pt" viewBox="0 0 5000.000000 5000.000000"
 preserveAspectRatio="xMidYMid meet">

<g transform="translate(0.000000,5000.000000) scale(0.100000,-0.100000)"
fill="#000000" stroke="none">
<path d="M36330 38434 c-197 -15 -480 -67 -621 -115 -347 -118 -810 -517 -981
-847 -86 -165 -118 -297 -118 -492 0 -146 23 -290 75 -477 63 -223 112 -328
244 -525 176 -263 355 -452 541 -573 52 -34 122 -84 156 -111 83 -67 234 -207
234 -217 0 -5 -27 -53 -61 -108 -143 -232 -211 -457 -211 -694 1 -128 17 -199
68 -302 59 -118 141 -188 274 -234 94 -32 256 -32 359 0 220 67 429 219 759
549 303 304 347 363 592 797 166 293 206 374 280 565 92 238 126 381 140 583
18 278 -36 672 -126 911 -51 134 -209 434 -301 571 -68 102 -201 237 -406 413
-261 225 -568 329 -897 306z"/>
<path d="M31900 37119 c-47 -5 -137 -18 -200 -29 -419 -74 -630 -191 -738
-407 -61 -124 -77 -207 -76 -403 0 -188 4 -214 84 -625 227 -1157 343 -2136
390 -3275 11 -262 14 -1400 4 -1437 -5 -19 -20 -5 -107 105 -1213 1528 -2280
3095 -3319 4876 -115 197 -232 393 -260 435 -199 297 -395 468 -618 539 -129
41 -179 47 -385 46 -185 -1 -253 -7 -930 -88 -401 -48 -761 -93 -800 -101
-343 -66 -450 -277 -345 -680 124 -475 146 -585 180 -885 34 -308 43 -527 42
-1080 -1 -644 -49 -5200 -57 -5420 -10 -287 -41 -376 -257 -731 -163 -268
-192 -336 -192 -449 -1 -106 20 -156 101 -241 266 -279 851 -409 1412 -313
396 67 766 225 937 399 176 179 195 326 106 795 -349 1830 -414 3655 -196
5515 15 127 28 232 30 234 6 6 0 17 154 -284 809 -1586 1764 -3050 2879 -4415
624 -764 1475 -1685 1738 -1882 219 -164 430 -227 625 -187 74 15 222 89 288
143 228 189 347 476 369 886 5 87 4 394 -1 700 -23 1278 10 2920 87 4315 72
1296 114 1645 240 1980 84 225 163 347 392 603 195 218 285 345 335 472 18 44
22 76 23 165 0 104 -2 114 -33 179 -44 93 -147 194 -262 258 -214 117 -542
218 -890 273 -124 20 -614 29 -750 14z"/>
<path d="M7585 37104 c-22 -2 -98 -9 -170 -14 -268 -23 -618 -84 -900 -157
-127 -34 -421 -130 -695 -229 -183 -65 -280 -59 -490 33 -197 85 -345 143
-465 183 -459 149 -931 212 -1225 165 -125 -21 -288 -76 -375 -127 -179 -106
-265 -240 -265 -412 0 -136 26 -200 187 -467 266 -442 385 -884 433 -1609 12
-174 27 -2214 32 -4100 3 -1318 3 -1334 -44 -1550 -47 -220 -94 -330 -258
-604 -188 -316 -244 -452 -257 -633 -24 -324 191 -520 634 -578 133 -18 487
-20 668 -5 233 20 464 52 872 121 346 58 492 77 915 119 764 77 1094 117 1488
181 1647 269 2676 816 3374 1792 581 815 984 2034 1066 3227 13 189 13 572 0
758 -77 1093 -457 1986 -1135 2668 -321 323 -652 561 -1075 772 -320 161 -598
263 -923 342 -366 88 -634 120 -1047 125 -168 2 -323 1 -345 -1z m-164 -1444
c555 -57 968 -315 1289 -806 224 -344 358 -772 410 -1314 34 -356 18 -1105
-36 -1635 -92 -914 -344 -1570 -797 -2075 -249 -277 -539 -463 -943 -603 -425
-147 -811 -179 -1009 -82 -141 68 -202 178 -247 441 -22 133 -17 666 11 964
54 594 51 447 51 2707 0 1464 3 2127 11 2162 14 67 58 125 117 155 66 34 165
52 382 70 102 9 201 18 220 19 86 9 448 6 541 -3z"/>
<path d="M42030 36769 c-755 -19 -1772 -71 -2050 -105 -148 -17 -326 -56 -425
-91 -425 -153 -710 -511 -829 -1044 -74 -333 -85 -770 -30 -1197 61 -477 210
-724 494 -823 86 -30 270 -32 375 -5 178 47 346 145 480 280 138 140 220 259
435 636 190 332 281 461 431 607 165 162 330 254 508 282 136 22 205 -19 222
-130 9 -59 242 -5173 258 -5664 16 -495 -21 -800 -131 -1060 -19 -45 -83 -161
-142 -259 -120 -198 -221 -399 -261 -521 -147 -447 16 -682 530 -767 105 -17
687 -17 885 0 507 45 1021 148 1475 297 224 73 403 181 489 295 61 82 81 145
80 250 -1 104 -16 150 -128 394 -405 879 -603 1808 -676 3156 -28 521 -52
3309 -30 3518 27 256 125 405 299 456 178 52 410 -27 562 -192 103 -111 170
-231 288 -520 120 -292 192 -419 333 -588 313 -372 728 -529 1077 -406 109 39
180 83 276 174 176 166 285 381 337 664 53 295 9 1062 -82 1409 -142 546 -507
806 -1235 880 -254 25 -936 56 -1650 75 -429 11 -1719 11 -2165 -1z"/>
<path d="M17995 36470 c-1006 -52 -1894 -363 -2640 -925 -961 -725 -1783
-1913 -2128 -3076 -117 -392 -178 -721 -208 -1109 -15 -194 -6 -654 15 -840
78 -666 284 -1276 609 -1803 433 -700 1068 -1233 1822 -1530 860 -339 2031
-427 3582 -272 1725 174 2819 679 3535 1632 761 1014 1029 2538 722 4108 -177
901 -484 1614 -922 2135 -105 126 -360 373 -497 483 -811 649 -2035 1105
-3190 1186 -217 16 -513 20 -700 11z m0 -1365 c618 -52 936 -113 1248 -241
177 -72 313 -150 457 -262 559 -435 885 -1196 1049 -2452 129 -984 142 -1579
45 -2108 -165 -907 -720 -1612 -1429 -1817 -205 -59 -296 -70 -600 -70 -307 0
-386 8 -745 71 -1383 245 -2148 867 -2436 1982 -118 457 -150 1046 -89 1592
106 934 471 1822 1036 2525 243 301 542 591 715 692 71 42 148 73 218 88 83
18 314 18 531 0z"/>
<path d="M10671 25719 c-180 -17 -374 -87 -461 -165 -75 -68 -72 -147 10 -224
26 -25 76 -72 112 -106 74 -69 115 -145 142 -259 27 -115 38 -680 33 -1690 -5
-1017 -2 -970 -78 -1188 -36 -101 -43 -135 -44 -197 0 -96 20 -127 108 -168
154 -72 489 -114 742 -92 285 24 395 62 443 150 20 39 23 55 19 115 -6 85 -21
130 -102 307 -123 265 -194 499 -234 773 -57 384 -56 846 4 1511 28 315 59
458 123 559 14 22 54 74 90 115 35 41 75 98 88 125 76 160 -35 324 -257 379
-83 20 -254 42 -434 56 -155 11 -182 11 -304 -1z"/>
<path d="M41255 25719 c-241 -24 -487 -117 -530 -199 -18 -36 -19 -87 -1 -120
8 -14 54 -59 102 -100 121 -103 130 -122 148 -330 58 -641 86 -1321 86 -2071
0 -548 -1 -561 -55 -639 -15 -21 -73 -75 -130 -120 -150 -117 -187 -166 -188
-250 -1 -61 26 -106 87 -147 94 -64 67 -62 1091 -94 1049 -33 1234 -33 1336
-1 121 40 188 110 209 223 11 59 -20 755 -41 899 -21 151 -85 230 -184 230
-100 0 -172 -70 -282 -272 -194 -357 -475 -572 -687 -528 -151 31 -237 159
-267 395 -15 120 -5 2241 11 2338 14 90 51 159 130 242 117 124 134 196 69
291 -35 52 -93 93 -194 139 -206 94 -477 138 -710 114z"/>
<path d="M37480 25707 c-123 -24 -229 -88 -250 -152 -16 -48 5 -87 90 -168
135 -128 150 -189 181 -732 29 -517 26 -1452 -5 -1956 -22 -346 -31 -380 -140
-528 -84 -115 -107 -162 -114 -234 -7 -82 13 -118 86 -154 49 -24 66 -27 151
-26 53 0 159 11 236 23 77 12 208 24 291 27 188 7 267 -8 449 -81 72 -30 144
-57 160 -61 69 -17 167 -22 280 -14 580 43 989 223 1223 538 322 434 279 1027
-104 1412 -36 37 -89 84 -118 105 l-53 38 63 63 c172 169 265 404 265 668 0
179 -30 306 -114 470 -126 249 -370 471 -646 590 -328 140 -672 172 -1124 105
-76 -11 -153 -20 -171 -20 -18 0 -112 20 -210 45 -200 50 -320 62 -426 42z
m1315 -577 c209 -53 365 -199 438 -409 26 -74 31 -100 31 -191 0 -152 -27
-200 -179 -315 -194 -145 -372 -196 -474 -134 -34 20 -46 56 -55 159 -4 36
-22 238 -42 449 -38 417 -38 431 15 450 46 17 182 12 266 -9z m133 -1726 c70
-18 157 -76 194 -129 58 -85 89 -229 90 -422 1 -107 -1 -116 -31 -177 -36 -73
-68 -104 -155 -148 -96 -49 -312 -61 -388 -22 -50 26 -56 77 -64 491 -8 416
-8 417 58 426 55 8 236 -4 296 -19z"/>
<path d="M14992 25685 c-205 -39 -285 -104 -312 -253 -13 -71 -6 -137 40 -377
59 -304 99 -601 125 -915 16 -183 33 -910 22 -910 -3 0 -52 60 -110 133 -422
536 -861 1184 -1232 1817 -172 294 -231 365 -343 418 -85 39 -174 39 -487 3
-381 -44 -417 -50 -460 -74 -85 -48 -97 -124 -50 -307 75 -293 78 -366 66
-1635 -6 -583 -13 -1124 -15 -1202 -5 -161 -8 -170 -103 -336 -96 -169 -100
-210 -29 -282 46 -46 125 -86 218 -111 99 -28 296 -23 418 9 162 43 262 98
319 177 45 62 46 108 11 310 -40 229 -75 484 -95 695 -22 232 -31 791 -16
1025 13 212 39 484 49 518 6 18 22 -6 91 -140 440 -850 1032 -1675 1651 -2299
189 -190 236 -224 337 -235 146 -18 289 116 322 301 7 38 12 327 15 775 4 702
11 930 41 1440 22 369 33 481 60 587 39 154 64 197 218 379 79 93 107 150 107
217 0 117 -109 195 -360 258 -110 27 -387 35 -498 14z"/>
<path d="M4660 25683 c-173 -17 -307 -45 -550 -116 -222 -65 -285 -68 -432
-19 -203 66 -433 82 -629 42 -160 -33 -201 -55 -219 -119 -13 -46 18 -114 86
-191 158 -179 204 -294 224 -554 5 -72 11 -678 12 -1346 3 -1397 13 -1262
-100 -1448 -106 -175 -132 -222 -149 -274 -33 -102 12 -148 148 -148 81 0 806
100 903 125 155 40 215 110 216 250 0 39 -32 356 -70 705 -39 348 -70 663 -70
698 0 59 2 66 34 98 20 20 44 34 58 34 45 0 65 -36 92 -170 50 -246 114 -435
221 -645 230 -455 543 -756 882 -846 108 -29 278 -29 386 0 202 54 369 184
437 342 101 237 -47 536 -257 517 -26 -3 -80 -11 -120 -18 -90 -17 -137 -5
-198 51 -70 64 -114 161 -230 501 -87 254 -145 457 -145 505 0 53 17 73 127
155 234 172 398 391 476 633 40 126 51 208 44 357 -7 161 -27 242 -99 388 -46
92 -64 116 -147 200 -133 133 -272 210 -464 259 -133 34 -324 48 -467 34z
m-242 -493 c128 -26 247 -62 309 -94 145 -73 205 -259 144 -445 -58 -176 -242
-369 -486 -509 -90 -53 -238 -102 -303 -102 l-50 0 -9 68 c-4 37 -7 285 -6
551 3 544 0 522 75 539 75 17 223 13 326 -8z"/>
<path d="M26198 25680 c-166 -20 -278 -118 -278 -244 0 -68 14 -94 99 -181
103 -106 115 -130 115 -230 -1 -118 -34 -190 -298 -640 -126 -214 -231 -392
-233 -394 -6 -8 -85 74 -142 149 -134 175 -221 368 -272 603 -19 87 -23 136
-24 327 -2 260 -11 306 -76 371 -63 63 -92 68 -554 85 -516 20 -681 17 -748
-14 -87 -39 -135 -91 -156 -168 -24 -88 19 -153 159 -237 201 -121 292 -246
722 -997 282 -491 384 -725 422 -966 28 -178 17 -418 -34 -717 -22 -130 -47
-185 -135 -292 -84 -101 -107 -146 -107 -205 0 -90 64 -170 166 -209 102 -38
175 -43 588 -38 333 3 401 6 443 21 112 37 168 119 169 246 1 106 -21 167
-120 330 -149 247 -173 316 -181 530 -4 112 -1 166 11 235 40 209 133 425 287
660 47 72 291 412 542 756 251 345 468 651 482 680 47 101 27 179 -68 270
-196 187 -520 299 -779 269z"/>
<path d="M34832 25660 c-57 -26 -144 -109 -192 -186 -50 -80 -1644 -3375
-1677 -3468 -30 -83 -34 -177 -10 -222 73 -141 357 -177 808 -103 263 43 316
107 229 279 -90 178 -91 323 -4 593 55 169 81 212 138 223 44 8 874 -140 934
-166 152 -68 192 -182 157 -447 -39 -294 5 -425 159 -477 41 -14 128 -16 689
-19 610 -2 644 -1 677 17 92 49 124 108 125 226 0 118 -25 175 -167 384 -334
490 -446 659 -560 841 -487 780 -730 1358 -858 2035 -48 253 -78 335 -152 416
-81 88 -199 118 -296 74z m-235 -1672 c6 -7 16 -38 23 -68 7 -30 54 -183 105
-340 51 -157 98 -305 105 -330 6 -25 13 -52 16 -61 10 -36 -38 -39 -316 -21
-146 10 -271 21 -277 25 -19 12 -16 66 6 128 10 30 67 155 126 279 59 124 125
264 147 313 23 48 44 87 48 87 4 0 12 -6 17 -12z"/>
<path d="M8832 25656 c-49 -16 -78 -39 -98 -78 -26 -51 -17 -112 46 -297 65
-193 90 -295 116 -476 24 -160 24 -554 0 -785 -23 -228 -81 -626 -116 -800
-83 -413 -231 -655 -475 -776 -227 -113 -461 -90 -602 58 -100 107 -146 227
-192 508 -117 709 -106 1382 34 2095 62 321 41 419 -105 484 -72 32 -189 40
-630 43 -407 3 -416 3 -462 -19 -82 -38 -92 -96 -34 -210 99 -197 155 -400
187 -673 9 -72 13 -303 14 -735 0 -693 2 -722 66 -983 45 -183 91 -310 174
-477 93 -185 180 -309 310 -440 132 -134 214 -193 370 -269 204 -100 367 -138
590 -137 190 0 340 28 520 97 320 124 603 379 752 679 147 295 206 589 253
1275 40 578 84 871 202 1335 62 243 68 330 28 409 -29 57 -66 91 -138 123 -84
39 -186 51 -487 57 -227 5 -288 3 -323 -8z"/>
<path d="M43990 25639 c-155 -33 -214 -78 -213 -163 1 -43 39 -134 83 -196 34
-48 72 -133 93 -208 22 -77 22 -80 25 -1332 2 -843 0 -1285 -8 -1348 -13 -116
-32 -167 -103 -270 -114 -168 -114 -267 0 -323 53 -26 44 -26 548 -18 190 3
212 1 430 -33 367 -58 435 -63 910 -62 458 1 514 5 590 49 65 37 85 84 85 201
0 174 -50 726 -79 881 -34 177 -143 250 -262 175 -54 -35 -88 -73 -170 -193
-120 -175 -228 -271 -400 -353 -117 -57 -226 -86 -350 -93 -100 -6 -215 2
-239 17 -12 7 -9 61 18 357 18 191 39 372 46 401 28 103 72 151 149 159 62 7
110 -19 227 -123 52 -46 117 -95 144 -109 86 -43 160 -30 228 41 84 88 92 151
72 569 -15 334 -27 422 -63 493 -42 82 -117 122 -192 102 -66 -18 -125 -86
-192 -220 -63 -127 -100 -173 -161 -201 -49 -22 -85 -24 -131 -5 -49 21 -68
65 -67 156 2 139 52 782 62 801 15 27 49 33 169 26 126 -6 262 -37 380 -84
103 -41 147 -66 269 -150 115 -80 164 -103 225 -103 62 0 105 19 161 70 50 47
88 117 105 198 24 117 8 610 -25 721 -23 81 -80 135 -159 151 -73 15 -72 15
-675 -66 -595 -81 -636 -81 -795 -14 -144 60 -227 88 -318 105 -112 21 -299
18 -417 -6z"/>
<path d="M18905 25619 c-141 -11 -235 -48 -297 -117 -73 -81 -78 -160 -24
-367 45 -169 61 -284 76 -515 33 -540 120 -2194 120 -2277 0 -134 -19 -201
-95 -347 -70 -136 -77 -169 -46 -226 59 -112 265 -165 544 -142 224 18 349 58
430 137 45 44 67 93 67 152 0 60 -19 100 -100 212 -114 159 -155 265 -182 471
-16 126 -16 958 1 1260 13 236 49 702 55 708 2 2 27 -70 55 -160 315 -998 552
-1641 815 -2205 81 -176 115 -237 163 -292 39 -46 120 -91 163 -91 44 1 104
35 150 87 28 32 234 379 545 922 275 478 503 870 506 871 7 0 36 -279 49 -478
19 -300 6 -786 -24 -883 -25 -82 -46 -112 -151 -215 -117 -115 -143 -166 -130
-252 14 -95 90 -195 182 -241 117 -58 212 -62 760 -26 394 25 493 39 571 76
95 46 161 141 162 232 0 87 -21 116 -190 249 -30 24 -65 62 -77 84 -45 81 -47
131 -48 1134 0 841 2 960 17 1077 24 180 42 266 88 413 53 169 70 244 70 311
0 139 -74 229 -217 263 -86 21 -512 65 -704 73 -132 5 -153 4 -218 -16 -82
-25 -149 -78 -182 -143 -11 -22 -48 -123 -83 -226 -198 -582 -423 -1122 -712
-1703 -168 -338 -195 -379 -251 -379 -64 0 -204 215 -300 463 -19 51 -172 490
-338 977 -166 487 -315 912 -331 944 -35 72 -99 130 -167 151 -85 25 -553 48
-722 34z"/>
<path d="M30845 25549 c-634 -28 -734 -45 -860 -146 -149 -121 -219 -317 -217
-608 2 -308 50 -454 173 -518 47 -25 62 -28 124 -25 171 9 265 95 448 408 107
183 215 285 331 311 73 16 102 -1 110 -63 9 -77 99 -2138 100 -2303 1 -209
-12 -278 -76 -402 -28 -54 -71 -136 -95 -183 -80 -155 -81 -254 -3 -324 67
-60 123 -71 360 -71 220 1 348 15 540 61 338 80 450 153 438 288 -3 33 -25 96
-60 176 -157 356 -229 710 -258 1280 -13 266 -13 1364 1 1413 22 82 101 136
181 123 116 -19 184 -93 269 -296 57 -134 104 -204 186 -280 93 -85 157 -114
260 -119 70 -3 89 0 135 21 29 14 73 45 97 69 51 51 106 159 121 239 21 105
11 379 -19 536 -48 252 -202 365 -534 394 -336 28 -1298 39 -1752 19z"/>
<path d="M41933 20629 c-21 -11 -72 -46 -113 -79 -68 -54 -77 -66 -92 -117
-15 -51 -16 -63 -2 -126 8 -38 17 -74 21 -81 19 -33 181 -252 237 -321 74 -90
133 -197 166 -300 29 -88 60 -151 120 -240 69 -102 76 -120 114 -269 24 -95
41 -198 56 -343 20 -184 22 -245 17 -528 -3 -176 -10 -340 -15 -365 -6 -25
-24 -127 -41 -226 -45 -266 -86 -394 -192 -606 -81 -163 -265 -462 -330 -537
l-59 -69 0 -85 0 -85 63 -56 c61 -55 63 -56 125 -56 92 0 164 41 330 187 45
40 90 73 100 73 36 0 145 62 199 112 115 108 189 256 307 608 83 250 115 381
158 640 16 101 21 184 24 435 3 240 8 328 21 389 16 75 16 86 -7 300 l-23 221
-75 145 c-84 164 -124 233 -331 580 -97 162 -162 260 -192 290 -26 25 -132
126 -236 225 -103 99 -207 205 -230 236 -22 31 -50 59 -62 62 -11 2 -37 -4
-58 -14z"/>
<path d="M8039 20586 c-130 -36 -239 -110 -328 -221 -31 -40 -91 -113 -135
-163 -91 -106 -126 -158 -151 -227 -10 -28 -35 -70 -55 -95 -43 -52 -105 -148
-174 -269 -52 -90 -282 -679 -317 -810 -11 -43 -22 -124 -25 -186 -3 -60 -15
-163 -26 -228 -21 -116 -21 -122 -4 -295 9 -97 16 -208 16 -245 0 -106 19
-252 45 -341 13 -44 28 -109 34 -143 11 -57 110 -295 183 -438 35 -69 118
-184 133 -185 6 0 58 -47 115 -105 84 -85 123 -116 196 -155 60 -33 95 -58
102 -75 22 -48 107 -127 209 -196 l102 -69 94 0 93 0 43 42 c61 58 85 116 85
204 -1 69 -2 71 -51 135 -105 134 -150 213 -334 579 -15 30 -44 120 -64 200
-20 80 -47 180 -61 223 -20 65 -24 99 -24 205 0 70 -5 145 -11 167 -23 93 -29
175 -29 440 -1 233 4 319 25 515 44 411 62 543 84 592 22 52 41 142 41 197 0
20 6 46 13 57 6 12 20 36 30 53 10 17 29 75 43 129 30 115 43 139 191 345 131
183 145 208 147 259 1 46 -37 90 -93 107 -47 14 -83 13 -142 -3z"/>
<path d="M35774 19966 c-106 -24 -170 -69 -208 -145 -28 -56 -38 -96 -76 -326
-59 -362 -92 -653 -115 -1035 -8 -135 -20 -259 -26 -277 -13 -39 -75 -97 -120
-112 -19 -6 -95 -15 -170 -20 -151 -10 -200 -27 -239 -81 -26 -37 -36 -90 -21
-118 29 -55 156 -98 371 -126 175 -23 217 -45 223 -116 1 -14 -4 -77 -12 -141
-17 -143 -5 -257 41 -397 75 -226 225 -402 433 -506 131 -66 215 -87 371 -93
244 -10 414 47 460 154 23 53 4 84 -96 158 -237 177 -386 417 -436 702 -12 67
-13 92 -3 120 19 58 51 66 299 73 203 6 218 8 270 32 200 93 206 294 10 363
-34 12 -86 15 -257 13 l-214 -3 -30 33 c-37 42 -38 89 -4 290 63 371 87 672
88 1078 1 310 1 310 -24 360 -30 61 -70 88 -158 108 -101 23 -282 29 -357 12z"/>
<path d="M12948 19289 c-367 -39 -665 -308 -758 -684 -30 -119 -25 -321 10
-430 79 -247 266 -457 495 -558 34 -14 146 -47 250 -72 222 -53 307 -90 382
-165 57 -57 91 -119 100 -185 25 -185 -193 -335 -472 -323 -107 4 -160 29
-212 96 -39 51 -54 101 -87 280 -30 163 -63 238 -136 310 -148 146 -355 187
-529 105 -149 -71 -251 -255 -251 -453 1 -131 62 -285 158 -397 80 -93 173
-162 307 -228 341 -168 726 -166 1280 7 390 122 622 298 691 526 68 227 -38
518 -247 679 -137 105 -250 156 -487 218 -257 67 -306 89 -379 168 -88 96
-116 213 -73 302 41 84 150 143 282 152 218 16 423 -103 524 -302 21 -44 51
-88 66 -98 24 -18 30 -18 58 -7 66 27 87 118 97 405 6 199 -9 435 -31 488 -20
49 -62 79 -105 75 -31 -3 -41 -10 -68 -53 -68 -104 -90 -103 -287 18 -164 101
-378 148 -578 126z"/>
<path d="M33568 19289 c-368 -40 -665 -308 -758 -684 -30 -119 -25 -321 10
-430 45 -142 121 -265 230 -374 139 -139 230 -184 516 -256 238 -60 305 -88
383 -167 56 -55 89 -118 98 -183 25 -185 -193 -335 -472 -323 -107 4 -160 29
-212 96 -39 51 -54 101 -87 281 -30 160 -64 239 -138 311 -146 144 -354 184
-527 103 -149 -71 -251 -255 -251 -453 1 -131 62 -285 158 -397 80 -93 173
-162 307 -228 341 -168 726 -166 1280 7 390 122 622 298 691 526 68 227 -38
518 -247 679 -137 105 -250 156 -487 218 -257 67 -306 89 -379 168 -68 73 -87
120 -88 208 0 67 3 80 28 117 52 75 148 121 269 129 219 16 423 -103 524 -302
21 -44 51 -88 66 -98 24 -18 30 -18 58 -7 66 27 87 118 97 405 6 199 -9 435
-31 488 -20 49 -62 79 -105 75 -31 -3 -41 -10 -68 -53 -68 -104 -90 -103 -287
18 -165 102 -379 148 -578 126z"/>
<path d="M27672 19154 c-428 -66 -796 -311 -1005 -669 -57 -98 -114 -242 -142
-360 -143 -599 91 -1204 574 -1484 288 -167 672 -203 1015 -94 525 166 948
645 1041 1179 52 300 -23 720 -170 950 -124 194 -389 367 -682 444 -186 49
-441 63 -631 34z m208 -575 c163 -37 349 -151 433 -267 143 -193 160 -473 51
-807 -55 -169 -145 -290 -257 -345 -211 -102 -583 -99 -767 7 -216 125 -319
445 -265 824 47 336 169 525 376 583 134 38 276 39 429 5z"/>
<path d="M10515 19078 c-181 -9 -419 -49 -454 -76 -32 -23 -46 -60 -37 -95 3
-14 31 -63 62 -108 69 -101 107 -180 135 -284 19 -68 22 -107 23 -260 0 -208
-16 -321 -90 -624 -62 -255 -114 -383 -205 -506 -44 -61 -69 -84 -134 -124
-65 -41 -115 -54 -152 -40 -111 42 -143 190 -143 658 0 135 7 363 15 506 20
363 20 626 -1 671 -22 45 -59 71 -130 88 -78 19 -562 60 -640 53 -110 -8 -184
-59 -184 -126 0 -26 48 -80 109 -125 55 -41 95 -108 110 -186 6 -30 15 -185
21 -345 27 -775 36 -876 90 -1090 16 -64 48 -154 74 -209 40 -83 59 -109 139
-189 130 -130 244 -192 410 -224 143 -27 286 -2 417 74 81 47 225 189 309 306
35 48 64 87 65 87 1 0 22 -39 46 -86 77 -153 232 -291 386 -344 316 -110 678
122 679 435 0 148 -96 294 -242 367 -71 35 -172 48 -235 30 -21 -6 -38 -8 -38
-5 0 3 36 339 80 748 44 409 80 775 80 814 0 39 -6 86 -14 104 -20 48 -68 84
-128 96 -76 14 -261 18 -423 9z"/>
<path d="M24876 19055 c-503 -104 -914 -521 -1022 -1037 -24 -115 -24 -341 -1
-468 66 -352 279 -698 561 -912 94 -71 251 -149 351 -173 209 -52 463 -32 805
61 227 62 355 146 417 273 26 51 28 65 28 171 -1 128 -25 266 -56 316 -28 46
-80 68 -146 61 -68 -7 -121 -38 -221 -127 -133 -120 -261 -169 -407 -155 -264
25 -477 211 -574 500 -42 125 -54 219 -48 355 10 209 70 355 196 481 138 137
286 174 403 100 63 -40 100 -103 148 -254 71 -221 126 -300 234 -332 188 -56
425 52 545 249 133 221 114 465 -51 630 -115 114 -290 189 -565 242 -171 33
-482 43 -597 19z"/>
<path d="M15521 19005 c-147 -33 -285 -95 -392 -175 -258 -193 -463 -525 -579
-936 -63 -222 -63 -384 -1 -619 83 -313 236 -543 427 -638 68 -34 265 -102
384 -132 375 -94 752 -83 996 30 104 48 147 85 183 157 31 61 31 63 31 222 0
404 -38 512 -178 510 -89 -1 -144 -35 -307 -194 -146 -142 -201 -180 -300
-206 -150 -41 -319 9 -427 124 -102 109 -152 279 -99 336 33 35 65 38 282 24
224 -13 420 -3 655 33 301 46 341 90 337 369 -7 435 -98 709 -303 910 -79 78
-167 131 -275 167 -68 22 -102 26 -225 29 -101 3 -164 -1 -209 -11z m176 -604
c137 -20 176 -32 209 -65 40 -40 76 -136 78 -208 1 -74 -20 -103 -109 -148
l-70 -35 -240 0 c-202 0 -249 3 -297 18 -103 31 -112 86 -39 231 52 104 107
176 151 198 40 20 207 25 317 9z"/>
<path d="M37871 19005 c-147 -33 -285 -95 -392 -175 -258 -193 -463 -525 -579
-936 -63 -222 -63 -384 -1 -619 83 -313 236 -543 427 -638 68 -34 265 -102
384 -132 375 -94 752 -83 996 30 104 48 147 85 183 157 31 61 31 63 31 222 0
404 -38 512 -178 510 -89 -1 -144 -35 -307 -194 -93 -91 -161 -148 -196 -166
-253 -128 -529 -21 -630 247 -28 72 -28 144 0 173 33 35 65 38 282 24 224 -13
420 -3 655 33 301 46 341 90 337 369 -7 435 -98 709 -303 910 -79 78 -167 131
-275 167 -68 22 -102 26 -225 29 -101 3 -164 -1 -209 -11z m176 -604 c137 -20
176 -32 209 -65 40 -40 76 -136 78 -208 1 -74 -20 -103 -109 -148 l-70 -35
-240 0 c-202 0 -249 3 -297 18 -103 31 -112 86 -39 231 52 104 107 176 151
198 40 20 207 25 317 9z"/>
<path d="M19966 18990 c-238 -38 -448 -144 -613 -312 -132 -134 -193 -259
-193 -397 0 -130 55 -221 164 -272 140 -66 304 -17 380 114 14 23 34 84 45
135 25 116 42 144 105 179 47 26 59 28 161 28 100 0 115 -3 166 -28 117 -57
198 -181 207 -314 l5 -73 -59 0 c-98 0 -292 -19 -414 -41 -341 -60 -563 -167
-755 -364 -172 -176 -258 -395 -241 -611 24 -324 260 -524 645 -550 320 -21
647 94 868 307 115 111 131 109 219 -16 103 -147 249 -262 389 -305 217 -67
467 26 557 208 19 39 23 63 23 137 0 84 -2 95 -34 153 -66 121 -157 175 -290
170 -52 -1 -75 2 -86 12 -27 29 -37 144 -41 480 -2 184 -9 378 -15 430 -51
436 -378 806 -804 911 -92 23 -298 33 -389 19z m537 -1337 c3 -5 8 -31 11 -58
l7 -50 -288 -157 c-158 -86 -320 -170 -360 -186 l-71 -30 -121 17 c-67 10
-123 20 -126 23 -9 9 47 108 76 132 37 32 326 206 341 206 6 0 87 21 180 46
93 25 190 49 216 54 63 10 130 12 135 3z"/>
<path d="M30526 18990 c-238 -38 -448 -144 -613 -312 -132 -134 -193 -259
-193 -397 0 -130 55 -221 164 -272 140 -66 304 -17 380 114 14 23 34 84 45
135 25 116 42 144 105 179 47 26 59 28 161 28 100 0 115 -3 166 -28 117 -57
198 -181 207 -314 l5 -73 -59 0 c-98 0 -292 -19 -414 -41 -341 -60 -563 -167
-755 -364 -172 -176 -258 -395 -241 -611 24 -324 260 -524 645 -550 320 -21
647 94 868 307 115 111 131 109 219 -16 103 -147 249 -262 389 -305 217 -67
467 26 557 208 19 39 23 63 23 137 0 84 -2 95 -34 153 -66 121 -157 175 -290
170 -52 -1 -75 2 -86 12 -27 29 -37 144 -41 480 -2 184 -9 378 -15 430 -51
436 -378 806 -804 911 -92 23 -298 33 -389 19z m537 -1337 c3 -5 8 -31 11 -58
l7 -50 -288 -157 c-158 -86 -320 -170 -360 -186 l-71 -30 -121 17 c-67 10
-123 20 -126 23 -9 9 47 108 76 132 37 32 326 206 341 206 6 0 87 21 180 46
93 25 190 49 216 54 63 10 130 12 135 3z"/>
<path d="M39442 18989 c-132 -17 -212 -64 -212 -124 0 -35 46 -82 112 -116
122 -61 168 -129 188 -275 15 -106 25 -1251 12 -1419 -6 -87 -15 -142 -26
-163 -9 -18 -52 -71 -96 -119 -87 -95 -115 -141 -104 -176 29 -95 227 -152
444 -127 144 16 438 79 497 105 108 49 116 114 38 305 -108 262 -135 436 -135
867 0 413 18 503 119 603 38 38 70 60 99 69 24 7 45 11 47 9 1 -2 19 -61 39
-133 65 -232 152 -374 278 -455 254 -165 524 -18 634 345 23 76 27 110 28 215
1 120 0 128 -30 190 -37 77 -110 155 -189 199 -137 77 -346 123 -565 123 -197
1 -321 -34 -422 -119 l-42 -35 -15 23 c-31 51 -128 136 -185 162 -93 44 -166
57 -316 56 -74 -1 -164 -5 -198 -10z"/>
</g>
</svg>
