<?xml version="1.0" standalone="no"?>
<!DOCTYPE svg PUBLIC "-//W3C//DTD SVG 20010904//EN"
 "http://www.w3.org/TR/2001/REC-SVG-20010904/DTD/svg10.dtd">
<svg version="1.0" xmlns="http://www.w3.org/2000/svg"
 width="3000.000000pt" height="3000.000000pt" viewBox="0 0 3000.000000 3000.000000"
 preserveAspectRatio="xMidYMid meet">

<g transform="translate(0.000000,3000.000000) scale(0.100000,-0.100000)"
fill="#000000" stroke="none">
<path d="M7474 27322 c-38 -26 -44 -55 -44 -204 0 -167 -11 -261 -46 -400 -31
-124 -31 -175 1 -237 42 -84 101 -116 161 -88 47 23 87 83 124 185 98 270 97
512 -3 644 -64 84 -151 129 -193 100z"/>
<path d="M21534 27310 c-54 -12 -138 -64 -201 -125 -74 -74 -96 -132 -113
-311 -6 -65 -31 -254 -55 -420 -24 -165 -49 -370 -55 -455 -10 -143 -18 -219
-71 -659 -24 -209 -40 -518 -42 -820 -1 -265 7 -315 66 -392 103 -135 241
-114 418 61 47 48 140 154 208 236 67 83 161 196 209 252 212 249 696 1004
918 1433 16 30 34 54 39 53 14 -3 22 -104 34 -443 43 -1161 14 -1885 -99
-2487 -54 -291 -124 -510 -231 -732 -48 -99 -73 -136 -123 -187 -55 -57 -66
-64 -100 -64 -48 0 -93 27 -146 87 -70 80 -87 129 -110 318 -24 203 -31 226
-82 281 -75 81 -203 103 -305 51 -64 -33 -89 -64 -102 -128 -38 -177 46 -557
172 -774 85 -147 239 -271 387 -310 185 -49 379 34 606 260 163 163 221 281
328 655 135 479 174 662 210 1010 63 591 58 1866 -10 2700 -8 102 -21 273 -30
380 -18 238 -35 314 -91 400 -44 68 -140 110 -255 110 -52 0 -62 -3 -97 -36
-46 -41 -65 -89 -87 -225 -43 -271 -120 -468 -330 -846 -106 -192 -178 -309
-344 -563 -81 -124 -190 -292 -243 -375 -52 -82 -107 -161 -121 -174 l-26 -24
0 35 c0 69 41 405 74 618 19 118 40 258 46 310 6 52 27 211 45 353 43 321 58
531 44 616 -34 211 -186 361 -335 331z"/>
<path d="M13025 26709 c-147 -17 -300 -89 -417 -197 -162 -150 -296 -403 -327
-622 -62 -429 -56 -570 35 -833 44 -126 85 -215 278 -615 259 -534 390 -844
495 -1165 146 -448 157 -730 36 -983 -37 -77 -110 -154 -146 -154 -64 0 -146
81 -202 199 l-30 63 8 127 c13 205 11 241 -14 289 -71 138 -192 194 -301 140
-54 -27 -85 -71 -99 -139 -30 -137 6 -485 68 -662 61 -175 209 -324 403 -405
54 -23 78 -27 163 -27 93 0 106 3 181 36 87 38 294 177 384 258 71 63 101 119
144 270 89 310 75 521 -79 1196 -83 367 -122 500 -200 700 -129 329 -172 420
-314 655 -86 144 -192 360 -215 440 -66 225 -58 539 19 695 32 67 95 138 148
170 54 31 221 87 240 79 19 -7 37 -48 37 -84 0 -44 56 -197 86 -237 68 -89
179 -99 251 -21 86 92 84 269 -7 464 -103 223 -241 339 -430 364 -85 11 -98
11 -195 -1z"/>
<path d="M16885 26679 c-55 -4 -164 -12 -243 -18 -79 -6 -153 -16 -165 -22
-45 -23 -78 -64 -92 -114 -19 -68 -41 -272 -60 -555 -8 -129 -19 -296 -25
-370 -5 -74 -12 -180 -15 -235 -3 -55 -21 -284 -40 -510 -51 -613 -78 -1292
-78 -1985 0 -674 31 -860 169 -1018 69 -79 123 -107 209 -107 60 0 76 4 110
28 48 32 137 136 162 186 21 43 22 164 4 371 -56 635 -67 1288 -23 1332 34 34
243 -262 466 -656 183 -324 437 -573 605 -593 115 -13 220 76 221 188 0 86
-24 124 -194 299 -196 201 -261 286 -491 645 -98 154 -200 309 -227 345 -26
35 -48 72 -48 82 0 24 29 53 170 169 338 279 577 507 694 662 180 241 293 478
331 696 22 123 19 300 -5 397 -41 163 -153 339 -310 487 -180 170 -347 255
-575 292 -97 16 -372 18 -550 4z m555 -428 c156 -41 333 -144 409 -239 87
-111 113 -261 72 -422 -71 -283 -333 -635 -755 -1016 -164 -148 -239 -201
-317 -222 l-37 -10 -6 102 c-3 55 -2 130 4 166 5 36 14 290 20 564 11 572 32
909 60 972 26 59 92 103 195 128 51 12 273 -2 355 -23z"/>
<path d="M19255 26679 c-55 -4 -164 -12 -243 -18 -79 -6 -153 -16 -165 -22
-45 -23 -78 -64 -92 -114 -19 -68 -41 -272 -60 -555 -8 -129 -19 -296 -25
-370 -5 -74 -12 -180 -15 -235 -3 -55 -21 -284 -40 -510 -51 -613 -78 -1292
-78 -1985 0 -674 31 -860 169 -1018 69 -79 123 -107 209 -107 60 0 76 4 110
28 48 32 137 136 162 186 21 43 22 164 4 371 -56 635 -67 1288 -23 1332 34 34
243 -262 466 -656 183 -324 437 -573 605 -593 115 -13 220 76 221 188 0 86
-24 124 -194 299 -185 190 -271 300 -446 575 -111 175 -261 401 -306 462 -29
40 -11 65 138 188 364 303 594 521 712 678 180 241 293 478 331 696 22 123 19
300 -5 397 -41 163 -153 339 -310 487 -180 170 -347 255 -575 292 -97 16 -372
18 -550 4z m555 -428 c156 -41 333 -144 409 -239 87 -111 113 -261 72 -422
-71 -283 -333 -635 -755 -1016 -164 -148 -239 -201 -317 -222 l-37 -10 -6 102
c-3 55 -2 130 4 166 5 36 14 288 19 560 6 272 13 533 16 580 27 385 33 415 96
462 31 23 92 49 144 62 51 12 273 -2 355 -23z"/>
<path d="M10347 26566 c-108 -45 -202 -136 -307 -296 -23 -36 -119 -220 -213
-410 -152 -309 -280 -551 -320 -604 -13 -18 -17 -15 -61 47 -54 76 -141 224
-251 427 -298 552 -313 578 -409 668 -93 88 -188 115 -322 93 -125 -21 -181
-73 -203 -186 -6 -27 -15 -151 -21 -275 -6 -124 -24 -344 -40 -490 -16 -146
-34 -344 -40 -440 -13 -229 -17 -846 -7 -1385 4 -236 9 -613 12 -837 2 -223 9
-446 15 -495 5 -48 10 -127 10 -174 0 -94 21 -235 47 -314 32 -100 87 -160
172 -190 59 -20 97 -19 148 6 55 27 99 87 125 173 18 61 20 80 12 165 -10 113
-8 308 11 981 8 272 17 718 20 990 6 521 17 773 40 981 8 69 17 199 20 290 3
90 8 197 11 238 l6 75 20 -25 c37 -46 66 -95 182 -309 133 -243 244 -417 311
-483 85 -86 205 -124 305 -97 83 22 131 86 254 335 98 199 162 312 171 303 2
-2 9 -60 15 -128 9 -104 8 -198 -9 -545 -30 -612 -39 -836 -51 -1260 -6 -209
-18 -483 -27 -610 -9 -126 -16 -338 -16 -470 -1 -338 22 -453 105 -531 124
-117 343 -102 409 28 20 39 21 52 15 148 -3 58 -10 141 -16 185 -12 107 -12
367 0 655 5 129 14 375 20 546 18 520 29 736 50 952 11 114 24 308 30 432 13
300 25 432 65 765 51 425 68 607 69 755 1 133 1 136 -30 190 -50 89 -147 150
-235 150 -19 0 -60 -11 -92 -24z"/>
<path d="M14960 26413 c-61 -22 -171 -135 -231 -238 -56 -97 -87 -172 -174
-420 -36 -104 -107 -292 -156 -417 -95 -241 -153 -429 -218 -710 -99 -430
-139 -713 -167 -1178 -20 -337 -15 -498 20 -630 13 -52 29 -133 35 -180 17
-144 148 -513 233 -658 49 -84 132 -162 219 -204 186 -92 441 -101 604 -22 85
42 164 134 297 344 148 237 172 280 198 365 12 39 44 138 70 220 110 342 118
396 131 910 17 665 16 970 -3 1260 -18 269 -26 330 -76 575 -17 80 -42 215
-57 300 -62 362 -93 454 -178 538 -124 122 -402 195 -547 145z m343 -908 c56
-239 110 -724 111 -995 0 -316 -22 -1169 -34 -1290 -23 -242 -81 -450 -186
-669 -134 -281 -246 -404 -390 -426 l-40 -7 -41 89 c-73 155 -76 170 -81 523
-5 426 20 869 63 1092 22 117 181 771 232 953 98 356 176 573 269 756 37 73
59 107 64 98 4 -8 19 -63 33 -124z"/>
<path d="M6320 26375 c-57 -18 -115 -66 -140 -116 -33 -63 -52 -172 -40 -225
15 -66 32 -93 88 -146 147 -138 296 -137 427 3 77 82 83 159 21 285 -77 154
-229 240 -356 199z"/>
<path d="M6153 25560 c-60 -36 -65 -54 -108 -434 -48 -415 -56 -549 -66 -1131
-6 -313 -13 -675 -15 -803 -6 -250 -1 -314 56 -727 16 -115 33 -273 39 -350
15 -191 49 -315 104 -373 53 -57 203 -107 300 -100 73 5 104 27 142 103 29 59
30 63 30 210 0 83 -9 233 -19 335 -18 168 -20 284 -22 1240 -3 1064 1 1260 34
1510 21 167 21 240 -2 307 -20 61 -79 131 -139 166 -111 66 -268 88 -334 47z"/>
<path d="M19813 21390 c-52 -27 -99 -88 -118 -154 -30 -99 -11 -3049 25 -4056
10 -281 8 -352 -16 -546 -14 -108 49 -224 143 -266 66 -29 147 -32 423 -14
306 20 419 31 565 57 280 48 404 110 436 219 21 71 -36 152 -133 186 -56 20
-122 18 -352 -11 -199 -25 -449 -34 -460 -16 -12 19 -36 548 -46 1006 -13 613
-13 865 2 1040 7 81 12 352 13 640 0 459 3 528 29 835 15 184 29 414 29 510 2
167 0 179 -26 253 -35 99 -61 141 -130 203 -122 112 -290 162 -384 114z"/>
<path d="M21623 21390 c-52 -27 -99 -88 -118 -154 -30 -99 -11 -3049 25 -4056
10 -281 8 -352 -16 -546 -14 -108 49 -224 143 -266 66 -29 147 -32 423 -14
490 32 732 71 875 142 99 50 148 128 125 199 -16 48 -71 100 -128 119 -62 22
-123 20 -356 -9 -199 -25 -449 -34 -460 -16 -12 19 -36 548 -46 1006 -13 613
-13 865 2 1040 7 81 12 352 13 640 0 459 3 528 29 835 15 185 29 414 29 510 1
166 0 179 -26 253 -34 99 -61 141 -130 203 -122 112 -290 162 -384 114z"/>
<path d="M6745 21389 c-70 -10 -142 -33 -173 -54 -42 -30 -45 -77 -31 -396 13
-304 4 -697 -22 -1023 -7 -86 -11 -684 -12 -1731 l0 -1600 22 -68 c26 -81 81
-147 152 -183 129 -65 314 -84 422 -44 154 58 439 298 598 505 241 313 383
679 479 1235 46 268 78 749 73 1105 -4 285 -51 713 -108 997 -67 327 -191 638
-325 816 -241 321 -676 499 -1075 441z m623 -479 c145 -64 284 -302 367 -630
118 -467 163 -1318 100 -1890 -38 -345 -148 -807 -231 -973 -140 -280 -368
-557 -418 -507 -15 15 -14 1982 3 2465 6 198 14 563 17 810 3 248 9 508 14
579 6 72 10 141 10 154 0 24 2 24 46 18 25 -3 67 -15 92 -26z"/>
<path d="M9895 21389 c-70 -10 -142 -33 -173 -54 -42 -30 -45 -77 -31 -396 13
-304 4 -697 -22 -1023 -7 -86 -11 -684 -12 -1731 l0 -1600 22 -68 c26 -81 81
-147 152 -183 129 -65 314 -84 422 -44 154 58 439 298 598 505 241 313 383
679 479 1235 46 268 78 749 73 1105 -4 285 -51 713 -108 997 -67 327 -191 638
-325 816 -241 321 -676 499 -1075 441z m623 -479 c185 -82 339 -408 417 -880
103 -629 107 -1385 9 -1920 -51 -281 -133 -578 -190 -693 -140 -280 -368 -557
-418 -507 -15 15 -14 1982 3 2465 6 198 14 563 17 810 3 248 9 508 14 579 6
72 10 141 10 154 0 24 2 24 46 18 25 -3 67 -15 92 -26z"/>
<path d="M16005 20819 c-55 -4 -164 -12 -243 -18 -79 -6 -153 -16 -165 -22
-44 -23 -78 -64 -92 -114 -19 -66 -41 -265 -60 -555 -8 -129 -19 -296 -25
-370 -5 -74 -12 -180 -15 -235 -3 -55 -21 -284 -40 -510 -52 -621 -78 -1295
-78 -1990 1 -670 32 -856 169 -1013 69 -79 123 -107 209 -107 60 0 76 4 110
28 48 32 137 136 162 186 21 43 22 164 4 371 -56 646 -67 1288 -23 1332 34 34
243 -262 466 -656 183 -324 437 -573 605 -593 115 -13 220 76 221 188 0 86
-24 124 -194 299 -196 201 -261 286 -491 645 -98 154 -200 309 -227 345 -26
35 -48 72 -48 82 0 24 29 53 170 169 338 279 577 507 694 662 180 241 293 478
331 696 22 123 19 300 -5 397 -41 163 -153 339 -310 487 -180 170 -347 255
-575 292 -97 16 -372 18 -550 4z m555 -428 c156 -41 333 -144 409 -239 87
-111 113 -261 72 -422 -71 -283 -333 -635 -755 -1016 -164 -148 -239 -201
-317 -222 l-37 -10 -6 102 c-3 55 -2 130 4 166 5 36 14 290 20 564 11 572 32
909 60 972 26 59 92 103 195 128 51 12 273 -2 355 -23z"/>
<path d="M18470 20553 c-61 -22 -171 -135 -231 -238 -56 -97 -87 -172 -174
-420 -36 -104 -107 -292 -156 -417 -95 -241 -153 -429 -218 -710 -99 -430
-139 -713 -167 -1178 -20 -337 -15 -498 20 -630 13 -52 29 -133 35 -180 17
-144 148 -513 233 -658 49 -84 132 -162 219 -204 186 -92 441 -101 604 -22 85
42 164 134 297 344 148 237 172 280 198 365 12 39 44 138 70 220 110 342 118
396 131 910 17 666 16 970 -3 1258 -19 273 -29 353 -59 484 -10 45 -39 198
-64 340 -78 439 -99 503 -188 591 -124 122 -402 195 -547 145z m343 -908 c57
-239 111 -727 111 -995 0 -322 -22 -1170 -34 -1290 -23 -242 -81 -450 -186
-669 -134 -281 -246 -404 -390 -426 l-40 -7 -41 89 c-73 155 -76 170 -81 523
-5 426 20 869 63 1092 22 117 181 771 232 953 98 356 176 573 269 756 37 73
59 107 64 98 4 -8 19 -63 33 -124z"/>
<path d="M8960 20515 c-96 -31 -151 -102 -175 -229 -22 -114 -1 -179 83 -258
147 -138 296 -137 427 3 77 82 83 159 21 285 -77 154 -229 240 -356 199z"/>
<path d="M13380 20515 c-96 -31 -151 -102 -175 -229 -22 -114 -1 -179 83 -258
147 -138 296 -137 427 3 77 82 83 159 21 285 -77 154 -229 240 -356 199z"/>
<path d="M8793 19700 c-60 -36 -65 -56 -108 -430 -49 -428 -56 -553 -67 -1135
-5 -313 -12 -675 -14 -803 -6 -250 -1 -314 56 -727 16 -115 33 -273 39 -350
15 -191 49 -315 104 -373 53 -57 203 -107 300 -100 73 5 104 27 142 103 29 59
30 63 30 210 0 83 -9 233 -19 335 -18 168 -20 284 -22 1240 -3 1064 1 1260 34
1510 21 167 21 240 -2 307 -20 61 -79 131 -139 166 -111 66 -268 88 -334 47z"/>
<path d="M13213 19700 c-60 -36 -65 -54 -108 -434 -48 -415 -56 -549 -66
-1131 -6 -313 -13 -675 -15 -803 -6 -250 -1 -314 56 -727 16 -115 33 -273 39
-350 15 -191 49 -315 104 -373 53 -57 203 -107 300 -100 73 5 104 27 142 103
29 59 30 63 30 210 0 83 -9 233 -19 335 -18 168 -20 284 -22 1240 -3 1064 1
1260 34 1510 21 167 21 240 -2 307 -20 61 -79 131 -139 166 -111 66 -268 88
-334 47z"/>
<path d="M11174 14970 c-55 -12 -138 -64 -201 -126 -53 -52 -64 -70 -82 -130
-11 -38 -27 -136 -36 -219 -9 -82 -34 -269 -55 -415 -21 -146 -44 -335 -50
-420 -10 -144 -18 -219 -71 -660 -24 -209 -40 -518 -42 -820 -1 -265 7 -315
66 -392 103 -135 241 -114 418 61 47 48 140 154 208 236 67 83 161 196 209
252 212 249 696 1004 918 1433 16 30 34 54 39 53 14 -3 22 -104 34 -443 43
-1161 14 -1885 -99 -2487 -54 -291 -124 -510 -231 -732 -48 -99 -73 -136 -123
-187 -55 -57 -66 -64 -100 -64 -48 0 -93 27 -146 87 -70 80 -87 129 -110 318
-24 203 -31 226 -82 281 -75 81 -203 103 -305 51 -65 -34 -89 -64 -104 -135
-41 -196 75 -639 217 -833 86 -118 217 -210 344 -244 185 -49 379 34 606 260
163 163 221 281 328 655 135 479 174 662 210 1010 53 500 59 1425 16 2310 -10
201 -53 769 -69 921 -16 149 -65 260 -135 307 -45 30 -127 52 -198 52 -52 0
-62 -3 -97 -36 -46 -41 -65 -89 -87 -225 -43 -271 -120 -468 -330 -846 -106
-192 -178 -309 -344 -563 -81 -124 -190 -292 -243 -375 -52 -82 -107 -161
-121 -174 l-26 -24 0 35 c0 69 41 405 74 618 19 118 40 258 46 310 6 52 27
212 46 355 41 315 57 531 43 616 -34 209 -186 359 -335 329z"/>
<path d="M16664 14970 c-55 -12 -138 -64 -201 -126 -53 -52 -64 -70 -82 -130
-11 -38 -27 -136 -36 -219 -9 -82 -34 -269 -55 -415 -21 -146 -44 -335 -50
-420 -10 -144 -18 -219 -71 -660 -24 -209 -40 -518 -42 -820 -1 -265 7 -315
66 -392 103 -135 241 -114 418 61 47 48 140 154 208 236 67 83 161 196 209
252 212 249 696 1004 918 1433 16 30 34 55 39 55 14 0 21 -85 36 -475 17 -435
17 -1339 1 -1600 -40 -616 -122 -1073 -257 -1417 -71 -181 -131 -289 -200
-360 -54 -56 -65 -63 -99 -63 -48 0 -93 27 -146 87 -70 80 -87 129 -110 318
-24 203 -31 226 -82 281 -75 81 -203 103 -305 51 -65 -34 -89 -64 -104 -135
-41 -196 75 -639 217 -833 86 -118 217 -210 344 -244 187 -50 382 35 610 265
161 163 217 275 324 650 135 479 174 662 210 1010 53 500 59 1425 16 2310 -10
201 -53 769 -69 921 -16 149 -65 260 -135 307 -45 30 -127 52 -198 52 -52 0
-62 -3 -97 -36 -46 -41 -65 -89 -87 -225 -43 -270 -120 -467 -330 -846 -108
-195 -178 -309 -354 -578 -86 -132 -195 -301 -243 -375 -47 -75 -98 -146 -112
-160 l-25 -23 0 33 c0 62 31 334 56 495 67 425 142 1013 154 1201 10 157 3
231 -31 316 -59 149 -188 242 -305 218z"/>
<path d="M21025 14369 c-147 -17 -300 -89 -417 -197 -162 -150 -296 -403 -327
-622 -62 -429 -56 -570 35 -833 44 -126 85 -215 278 -615 259 -534 390 -844
495 -1165 146 -448 157 -730 36 -983 -37 -77 -110 -154 -146 -154 -64 0 -146
81 -202 199 l-30 63 8 127 c13 205 11 241 -14 289 -71 138 -192 194 -301 140
-54 -27 -85 -71 -99 -139 -30 -137 6 -485 68 -662 61 -175 209 -324 403 -405
54 -23 78 -27 163 -27 93 0 106 3 181 36 87 38 294 177 384 258 71 63 101 119
144 270 89 310 75 521 -79 1196 -83 367 -122 500 -200 700 -129 329 -172 420
-314 655 -86 144 -192 360 -215 440 -66 225 -58 539 19 695 32 67 95 138 148
170 54 31 221 87 240 79 19 -7 37 -48 37 -84 0 -44 56 -197 86 -237 68 -89
179 -99 251 -21 86 92 84 269 -7 464 -103 223 -241 339 -430 364 -85 11 -98
11 -195 -1z"/>
<path d="M10027 14226 c-108 -45 -202 -136 -307 -296 -23 -36 -119 -220 -213
-410 -152 -309 -280 -551 -320 -604 -13 -18 -17 -15 -61 47 -54 76 -141 224
-251 427 -300 557 -311 575 -404 663 -98 93 -190 121 -327 98 -125 -21 -181
-73 -203 -186 -6 -27 -15 -151 -21 -275 -6 -124 -24 -344 -40 -490 -16 -146
-34 -344 -40 -440 -13 -229 -17 -846 -7 -1385 4 -236 9 -613 12 -837 2 -223 9
-446 15 -495 5 -48 10 -127 10 -174 0 -94 21 -235 47 -314 32 -100 87 -160
172 -190 59 -20 97 -19 148 6 55 27 99 87 125 173 18 61 20 80 12 165 -10 113
-8 308 11 981 8 272 17 718 20 990 6 521 17 773 40 981 8 69 17 199 20 290 3
90 8 197 11 238 l6 75 20 -25 c37 -46 66 -95 182 -309 133 -243 244 -417 311
-483 85 -86 205 -124 305 -97 83 22 131 86 254 335 98 199 162 312 171 303 2
-2 9 -60 15 -128 9 -104 8 -198 -9 -545 -30 -612 -39 -836 -51 -1260 -6 -209
-18 -483 -27 -610 -9 -126 -16 -338 -16 -470 -1 -338 22 -453 105 -531 124
-117 343 -102 409 28 20 39 21 52 15 148 -3 58 -10 141 -16 185 -12 107 -12
367 0 655 5 129 14 375 20 546 18 520 29 736 50 952 11 114 24 308 30 432 13
300 25 432 65 765 51 425 68 607 69 755 1 133 1 136 -30 190 -50 89 -147 150
-235 150 -19 0 -60 -11 -92 -24z"/>
<path d="M15341 14170 c-109 -11 -242 -34 -320 -56 -114 -33 -178 -103 -231
-255 -60 -175 -81 -345 -115 -919 -14 -234 -29 -472 -35 -530 -5 -58 -12 -166
-15 -240 -3 -74 -22 -414 -42 -755 -38 -665 -37 -644 -14 -1460 7 -242 10
-276 30 -326 26 -69 78 -131 139 -166 40 -24 60 -28 142 -31 81 -3 120 2 260
32 91 20 174 39 185 42 11 3 92 9 180 14 171 9 223 21 283 67 43 32 62 77 62
145 0 86 -52 148 -157 188 -86 33 -127 33 -303 5 -161 -26 -269 -30 -290 -9
-38 38 -49 540 -15 759 13 91 19 208 24 480 7 409 6 404 92 458 52 32 104 41
319 56 214 16 310 51 310 114 0 41 -52 130 -110 189 -46 46 -69 60 -126 79
-62 20 -87 23 -236 21 l-168 -1 0 77 c0 88 15 271 64 792 19 201 42 446 50
545 18 200 25 221 89 242 20 7 94 17 164 23 187 16 244 39 272 113 28 72 -5
187 -67 239 -76 64 -220 87 -421 68z"/>
<path d="M19561 14170 c-109 -11 -242 -34 -320 -56 -114 -33 -178 -103 -231
-255 -60 -175 -81 -345 -115 -919 -14 -234 -29 -472 -35 -530 -5 -58 -12 -166
-15 -240 -3 -74 -22 -414 -42 -755 -38 -665 -37 -644 -14 -1460 7 -242 10
-276 30 -326 26 -69 78 -131 139 -166 40 -24 60 -28 142 -31 81 -3 120 2 260
32 91 20 174 39 185 42 11 3 92 9 180 14 171 9 223 21 283 67 43 32 62 77 62
145 0 86 -52 148 -157 188 -86 33 -127 33 -303 5 -161 -26 -269 -30 -290 -9
-38 38 -49 540 -15 759 13 91 19 208 24 481 l6 361 27 40 c46 69 106 92 279
103 187 13 232 18 301 37 66 18 108 51 108 86 0 41 -52 130 -110 189 -46 46
-69 60 -126 79 -62 20 -87 23 -236 21 l-168 -1 0 77 c0 88 15 271 64 792 19
201 42 446 50 545 18 200 25 221 89 242 20 7 94 17 164 23 187 16 244 39 272
113 28 72 -5 187 -67 239 -76 64 -220 87 -421 68z"/>
<path d="M13743 8500 c-52 -27 -99 -88 -118 -154 -30 -99 -11 -3049 25 -4056
10 -281 8 -352 -16 -546 -14 -108 49 -224 143 -266 66 -29 147 -32 423 -14
490 32 732 71 875 142 99 50 148 128 125 199 -16 48 -71 100 -128 119 -62 22
-123 20 -356 -9 -199 -25 -449 -34 -460 -16 -12 19 -36 548 -46 1006 -13 613
-13 865 2 1040 7 81 12 352 13 640 0 459 3 528 29 835 15 185 29 414 29 510 1
166 0 179 -26 253 -34 99 -61 141 -130 203 -122 112 -290 162 -384 114z"/>
<path d="M20575 8499 c-70 -10 -142 -33 -173 -54 -42 -30 -45 -77 -31 -396 13
-304 4 -696 -22 -1023 -7 -85 -11 -687 -12 -1731 l0 -1600 22 -68 c26 -81 81
-147 152 -183 129 -65 314 -84 422 -44 154 58 439 298 598 505 259 336 413
761 499 1370 37 263 65 864 51 1095 -58 946 -238 1537 -558 1830 -253 231
-619 347 -948 299z m623 -479 c145 -64 284 -302 367 -630 118 -467 163 -1318
100 -1890 -38 -345 -148 -807 -231 -973 -140 -280 -368 -557 -418 -507 -15 15
-14 1982 3 2465 6 198 14 563 17 810 3 248 9 508 14 579 6 72 10 141 10 154 0
24 2 24 46 18 25 -3 67 -15 92 -26z"/>
<path d="M11590 8459 c-74 -8 -220 -18 -550 -39 -91 -6 -318 -14 -505 -19
-368 -9 -407 -15 -456 -67 -51 -55 -14 -222 66 -300 64 -62 107 -70 362 -66
152 2 213 0 218 -9 22 -35 23 -167 3 -439 -19 -244 -21 -359 -20 -800 2 -485
-13 -1079 -39 -1550 -15 -286 -22 -1030 -11 -1275 12 -256 22 -295 89 -363
130 -130 355 -131 419 -2 22 45 23 51 29 640 6 594 12 774 40 1095 24 286 34
430 45 665 6 124 23 371 37 550 25 298 27 372 29 890 1 387 4 574 12 592 19
46 84 59 352 67 273 9 320 21 385 93 37 40 37 41 33 113 -3 59 -9 81 -33 120
-35 57 -67 78 -150 99 -64 17 -224 19 -355 5z"/>
<path d="M9353 8328 c-35 -39 -53 -84 -62 -160 -17 -129 -26 -614 -26 -1368 0
-641 -3 -754 -18 -885 -59 -497 -142 -799 -313 -1136 -158 -312 -370 -582
-596 -762 -139 -109 -199 -135 -242 -104 -53 39 -70 338 -63 1087 7 750 41
1304 123 1990 19 157 25 241 20 310 -14 251 -122 453 -284 532 -60 30 -75 33
-157 33 -150 0 -289 -58 -337 -141 -45 -78 -64 -391 -109 -1839 -17 -527 5
-1591 36 -1765 63 -352 190 -570 373 -640 177 -67 389 -29 700 126 262 130
316 175 557 462 164 196 185 228 323 495 142 274 171 344 207 498 15 62 49
204 75 314 113 463 140 761 140 1545 0 289 5 542 12 625 16 187 16 414 0 499
-7 39 -24 93 -38 122 -63 133 -258 231 -321 162z"/>
<path d="M19653 8328 c-35 -39 -53 -84 -62 -160 -17 -129 -26 -614 -26 -1368
0 -641 -3 -754 -18 -885 -59 -497 -142 -799 -313 -1136 -158 -312 -370 -582
-596 -762 -139 -109 -199 -135 -242 -104 -53 39 -70 338 -63 1087 7 750 41
1302 123 1990 19 157 25 240 20 310 -15 251 -122 453 -284 532 -60 30 -75 33
-157 33 -150 0 -289 -58 -337 -141 -45 -78 -64 -391 -109 -1839 -17 -527 5
-1591 36 -1765 63 -352 190 -570 373 -640 177 -67 389 -29 700 126 262 130
316 175 557 462 164 196 185 228 323 495 142 274 171 344 207 498 15 62 49
204 75 314 113 463 140 761 140 1545 0 289 5 542 12 625 16 187 16 414 0 499
-7 39 -24 93 -38 122 -63 133 -258 231 -321 162z"/>
<path d="M23625 7984 c-108 -22 -138 -30 -190 -51 -68 -29 -167 -91 -238 -150
-302 -251 -430 -774 -312 -1271 27 -112 51 -156 133 -240 121 -124 223 -138
251 -35 7 26 4 57 -15 136 -78 318 -85 376 -58 487 19 82 100 253 159 335 141
199 446 300 639 212 149 -68 288 -297 331 -544 19 -111 19 -404 0 -538 -38
-271 -141 -638 -224 -802 -16 -32 -44 -101 -61 -153 -41 -124 -81 -218 -195
-469 -52 -114 -115 -263 -140 -332 -79 -212 -203 -590 -221 -675 -28 -137 -4
-208 89 -255 54 -28 162 -24 204 7 40 30 77 109 102 222 108 467 144 561 339
883 118 194 375 699 451 884 95 233 150 422 193 665 32 181 32 450 0 607 -58
291 -169 507 -361 706 -194 201 -437 333 -675 366 -76 11 -161 13 -201 5z"/>
<path d="M6080 7663 c-61 -22 -171 -135 -231 -238 -56 -97 -87 -172 -174 -420
-36 -104 -107 -292 -156 -417 -95 -241 -153 -429 -218 -710 -99 -430 -139
-713 -167 -1178 -20 -337 -15 -498 20 -630 13 -52 29 -133 35 -180 17 -144
148 -513 233 -658 49 -84 132 -162 219 -204 186 -92 441 -101 604 -22 85 42
164 134 297 344 148 237 172 280 198 365 12 39 44 138 70 220 110 342 118 396
131 910 17 667 16 969 -4 1260 -18 270 -26 332 -75 575 -17 80 -42 215 -57
300 -62 362 -93 454 -178 538 -124 122 -402 195 -547 145z m343 -908 c56 -239
110 -724 111 -995 0 -316 -22 -1169 -34 -1290 -23 -242 -81 -450 -186 -669
-134 -281 -246 -404 -390 -426 l-40 -7 -41 89 c-73 155 -76 170 -81 523 -5
426 20 869 63 1092 22 117 181 771 232 953 98 356 176 573 269 756 37 73 59
107 64 98 4 -8 19 -63 33 -124z"/>
<path d="M16370 7663 c-61 -22 -171 -135 -231 -238 -56 -97 -87 -172 -174
-420 -36 -104 -107 -292 -156 -417 -95 -241 -153 -429 -218 -710 -99 -430
-139 -713 -167 -1178 -19 -327 -14 -512 16 -615 12 -38 27 -117 35 -175 23
-168 148 -526 237 -678 49 -84 132 -162 219 -204 186 -92 441 -101 604 -22 85
42 164 134 297 344 148 237 172 280 198 365 12 39 44 138 70 220 110 342 118
396 131 910 17 667 16 969 -4 1260 -18 270 -26 332 -75 575 -17 80 -42 215
-57 300 -62 362 -93 454 -178 538 -124 122 -402 195 -547 145z m343 -908 c56
-238 110 -722 110 -995 1 -308 -21 -1167 -33 -1290 -23 -242 -81 -450 -186
-669 -134 -281 -246 -404 -390 -426 l-40 -7 -41 89 c-73 155 -76 170 -81 523
-5 426 20 869 63 1092 22 117 181 771 232 953 98 356 176 573 269 756 37 73
59 107 64 98 4 -8 19 -63 33 -124z"/>
<path d="M23424 3336 c-62 -28 -98 -112 -115 -270 -6 -55 -9 -116 -6 -137 17
-127 153 -269 257 -269 84 0 182 88 210 190 20 72 4 261 -29 335 -48 108 -226
193 -317 151z"/>
</g>
</svg>
