<?xml version="1.0" standalone="no"?>
<!DOCTYPE svg PUBLIC "-//W3C//DTD SVG 20010904//EN"
 "http://www.w3.org/TR/2001/REC-SVG-20010904/DTD/svg10.dtd">
<svg version="1.0" xmlns="http://www.w3.org/2000/svg"
 width="5000.000000pt" height="5000.000000pt" viewBox="0 0 5000.000000 5000.000000"
 preserveAspectRatio="xMidYMid meet">

<g transform="translate(0.000000,5000.000000) scale(0.100000,-0.100000)"
fill="#000000" stroke="none">
<path d="M7810 46650 c-571 -71 -1092 -397 -1557 -975 -112 -138 -316 -440
-402 -592 -395 -700 -455 -1325 -178 -1858 118 -227 337 -434 546 -514 128
-49 225 -64 380 -58 153 6 249 27 369 82 286 132 467 412 423 652 -24 130 -73
208 -157 249 -47 23 -64 26 -114 21 -76 -7 -130 -37 -255 -142 -55 -47 -122
-96 -148 -111 -64 -35 -151 -43 -211 -20 -94 36 -179 163 -211 311 -42 200 9
571 120 870 86 233 244 509 398 693 148 177 375 374 554 480 412 244 781 131
988 -302 135 -284 185 -615 185 -1232 0 -1086 -218 -2235 -707 -3719 -190
-577 -566 -1622 -638 -1771 -72 -149 -163 -231 -310 -277 -27 -9 -142 -37
-254 -62 -892 -200 -1472 -406 -1951 -695 -599 -361 -1044 -873 -1234 -1419
-85 -245 -119 -444 -120 -706 -1 -321 58 -550 201 -787 432 -715 1583 -905
2548 -420 227 114 412 249 610 447 508 506 863 1141 1423 2545 792 1986 1262
3855 1397 5560 62 786 58 1636 -11 2230 -33 294 -105 570 -198 763 -194 404
-542 660 -1011 742 -108 20 -371 27 -475 15z m-1293 -9264 c62 -54 35 -130
-244 -690 -257 -515 -438 -799 -729 -1143 -256 -301 -516 -525 -717 -618 -91
-42 -143 -55 -227 -55 -196 0 -346 161 -419 451 -48 187 -53 464 -12 624 28
108 135 320 218 430 355 473 1118 885 1853 1000 58 9 112 18 120 19 8 2 41 4
72 5 47 1 62 -3 85 -23z"/>
<path d="M45705 45538 c-473 -53 -1048 -299 -1667 -714 -809 -542 -1607 -1302
-2367 -2253 -1014 -1270 -2061 -2953 -2835 -4558 -126 -261 -308 -650 -326
-699 -5 -12 -75 -81 -157 -155 -185 -167 -317 -288 -763 -705 -852 -795 -1250
-1126 -1755 -1460 -395 -261 -609 -365 -838 -409 -121 -23 -179 -20 -216 10
-16 14 -34 40 -40 58 -24 75 -36 251 -35 502 1 370 23 509 164 1030 81 298
114 454 131 610 48 456 -134 866 -456 1026 -133 65 -214 82 -400 82 -174 1
-233 -9 -410 -65 -141 -45 -390 -174 -592 -306 -95 -63 -178 -112 -186 -110
-10 2 56 146 225 493 349 713 373 778 373 995 0 107 -4 133 -24 183 -45 114
-135 199 -251 239 -98 34 -245 31 -360 -8 -109 -36 -209 -104 -304 -205 -138
-147 -157 -179 -660 -1154 l-325 -630 -249 -250 c-136 -137 -327 -333 -422
-435 -622 -661 -1120 -1161 -1424 -1427 -398 -350 -739 -543 -1052 -598 -48
-8 -115 -15 -149 -15 l-63 0 -12 73 c-18 107 -24 458 -11 590 62 597 315 1186
891 2072 501 771 555 867 594 1057 36 176 1 340 -100 464 -63 78 -184 134
-289 134 -120 -1 -314 -79 -450 -182 -108 -82 -317 -290 -424 -423 -348 -433
-778 -1197 -1026 -1825 -54 -138 -150 -422 -195 -577 l-21 -72 -337 -327
c-185 -180 -407 -390 -492 -467 -680 -616 -1252 -980 -1855 -1181 -166 -56
-242 -70 -354 -64 -150 7 -235 66 -261 181 -5 26 -7 66 -4 90 3 23 109 458
234 967 126 509 236 963 244 1009 20 107 21 269 1 346 -23 88 -71 169 -149
252 -88 94 -164 153 -507 392 l-276 193 64 86 c177 236 264 448 233 562 -21
78 -125 150 -219 150 -14 0 -36 3 -48 6 -20 5 -17 13 48 112 134 206 236 429
287 630 25 100 27 121 26 307 -1 182 -3 209 -27 297 -100 374 -317 616 -627
699 -106 29 -313 31 -428 5 -596 -133 -1052 -662 -1147 -1329 -59 -413 49
-818 312 -1172 87 -117 236 -278 346 -375 54 -46 96 -88 95 -92 -2 -3 -64 -73
-138 -155 -834 -915 -1349 -1385 -1945 -1775 -215 -141 -342 -213 -580 -329
-479 -233 -971 -371 -1371 -386 -136 -5 -159 -4 -221 16 -120 36 -201 128
-237 269 -45 173 -70 749 -47 1092 34 503 138 1104 266 1527 l25 81 243 125
c811 416 1654 945 2402 1506 1223 916 2180 1911 2808 2918 448 720 663 1234
728 1741 19 143 16 427 -4 538 -105 577 -495 896 -1062 870 -267 -12 -535 -81
-857 -223 -421 -185 -781 -429 -1840 -1250 -236 -183 -368 -301 -624 -557
-507 -508 -938 -1062 -1396 -1796 -512 -821 -1032 -1882 -1366 -2790 -15 -41
-25 -55 -39 -53 -10 0 -79 17 -153 36 -565 146 -1152 81 -1578 -174 -599 -358
-1179 -1082 -1397 -1744 -175 -530 -98 -1043 205 -1368 208 -223 480 -346 835
-377 186 -16 314 -1 653 81 257 61 458 150 773 339 82 50 151 90 154 90 3 0 5
-40 5 -89 0 -176 51 -466 112 -640 137 -391 345 -597 772 -766 262 -104 513
-149 841 -149 325 -1 594 42 914 146 681 220 1406 633 2096 1192 445 361 1003
906 1514 1479 62 70 118 127 123 127 20 0 128 -114 149 -157 40 -82 28 -145
-114 -603 -69 -223 -144 -472 -166 -555 -255 -938 -251 -1541 12 -1929 51 -76
147 -172 223 -223 378 -257 922 -261 1647 -13 233 79 381 143 622 265 541 274
1087 667 1665 1197 52 48 98 88 103 88 4 0 7 -9 7 -19 0 -38 70 -233 114 -319
154 -297 401 -481 725 -537 121 -21 334 -19 473 5 403 69 900 291 1332 595
220 155 393 294 691 558 l50 45 0 -127 c0 -156 19 -212 100 -300 146 -157 410
-203 660 -114 249 89 353 219 652 818 196 391 187 378 360 537 479 441 951
776 1378 979 209 99 521 206 542 185 4 -4 8 -112 8 -239 -1 -321 -22 -440
-199 -1097 -72 -270 -119 -493 -135 -642 -16 -141 -13 -377 4 -488 44 -270
162 -508 337 -676 186 -178 358 -241 632 -231 236 8 433 72 791 256 618 318
1297 803 1980 1414 77 69 141 124 142 123 1 -1 -25 -78 -59 -171 -76 -213
-228 -663 -314 -934 -56 -173 -67 -218 -68 -281 -1 -63 3 -84 27 -132 33 -67
88 -117 172 -158 103 -51 161 -60 410 -67 426 -11 600 32 757 189 183 182 298
442 448 1013 107 408 142 506 388 1094 l107 255 110 52 c497 235 969 304 1217
178 l49 -25 -6 -42 c-11 -81 -115 -1123 -125 -1255 -28 -367 61 -613 286 -792
288 -229 693 -280 1141 -144 430 130 1099 490 1658 892 621 447 1130 896 2021
1787 522 521 572 578 615 700 23 67 25 174 3 238 -19 55 -81 128 -128 151 -81
38 -194 13 -310 -71 -141 -101 -495 -411 -1011 -888 -848 -782 -1115 -1012
-1515 -1309 -481 -357 -981 -632 -1445 -795 -231 -81 -382 -101 -490 -64 -72
24 -139 95 -161 169 -25 87 -15 216 30 374 150 529 195 795 183 1090 -13 303
-87 506 -248 675 l-68 72 127 78 c451 278 963 642 1422 1010 477 383 681 572
738 685 65 131 65 249 -1 347 -46 67 -109 98 -202 97 -120 -1 -236 -60 -414
-209 -59 -49 -175 -146 -257 -215 -747 -627 -1629 -1174 -2552 -1583 -91 -41
-101 -44 -91 -24 184 349 628 1148 647 1165 57 49 232 170 357 244 71 44 326
177 565 298 624 314 901 468 1325 738 966 614 1914 1433 2635 2277 429 502
760 1015 959 1486 318 753 245 1357 -199 1644 -205 133 -502 189 -815 153z
m491 -1045 c-22 -221 -111 -522 -228 -775 -191 -414 -460 -794 -893 -1259
-218 -235 -425 -424 -840 -770 -1061 -883 -2190 -1708 -2735 -1997 -99 -53
-249 -117 -256 -109 -11 11 908 1252 1401 1892 711 923 1178 1475 1517 1795
636 602 1117 944 1625 1157 103 42 369 132 397 133 17 0 18 -5 12 -67z
m-22611 -196 c27 -15 47 -37 62 -67 l23 -45 -30 -115 c-346 -1323 -1575 -2868
-3525 -4429 -478 -383 -1090 -828 -1383 -1006 -60 -37 -63 -37 -82 -20 -11 10
-20 24 -20 30 0 36 191 391 383 715 691 1162 1695 2553 2471 3425 485 544 857
887 1264 1166 68 46 158 108 200 137 102 71 316 175 422 206 108 32 163 32
215 3z m-522 -4808 c55 -15 114 -72 128 -123 22 -81 -21 -346 -86 -537 -73
-212 -217 -464 -341 -599 -96 -103 -216 -145 -307 -106 -121 50 -185 276 -159
559 15 159 32 227 82 326 89 179 264 352 447 445 87 44 164 55 236 35z m-6380
-1459 c220 -48 284 -145 238 -360 -11 -52 -50 -241 -86 -420 -99 -490 -145
-652 -233 -823 -159 -310 -612 -687 -970 -807 -196 -66 -428 -77 -592 -30
-182 52 -344 175 -407 310 -92 194 -64 367 112 721 224 448 398 704 639 944
198 197 363 309 581 394 249 97 486 121 718 71z"/>
<path d="M29590 40627 c-229 -78 -400 -326 -400 -582 0 -177 84 -356 220 -470
147 -122 341 -138 524 -43 37 20 92 63 142 113 127 128 184 263 184 440 0 157
-45 275 -147 386 -147 159 -343 218 -523 156z"/>
<path d="M6620 31979 c-274 -24 -620 -101 -860 -190 -784 -293 -1348 -824
-1628 -1536 -247 -626 -296 -1479 -132 -2278 195 -950 712 -1807 1347 -2237
322 -217 720 -369 1163 -443 312 -53 756 -70 1085 -41 746 65 1125 191 1383
460 216 225 330 503 383 931 18 145 15 535 -5 659 -69 416 -296 602 -571 466
-119 -58 -221 -164 -411 -427 -381 -530 -545 -703 -788 -834 -173 -93 -291
-124 -466 -123 -105 1 -139 5 -215 28 -208 63 -411 207 -555 396 -237 310
-353 717 -432 1505 -17 177 -17 876 0 1050 42 412 124 831 208 1065 38 108
116 261 171 338 319 448 916 488 1051 71 15 -48 17 -92 14 -374 -4 -411 15
-605 79 -815 116 -384 383 -675 714 -780 99 -31 282 -39 396 -15 299 60 584
278 737 565 120 223 172 459 172 777 1 416 -96 778 -283 1057 -59 88 -182 212
-266 269 -271 183 -895 369 -1481 443 -150 18 -657 27 -810 13z"/>
<path d="M23710 31954 c-25 -2 -184 -13 -355 -24 -885 -58 -2539 -182 -2605
-196 -217 -44 -329 -166 -302 -324 6 -31 38 -127 71 -213 171 -438 249 -792
293 -1332 16 -201 16 -887 0 -1195 -55 -1023 -103 -1876 -112 -1980 -24 -273
-56 -410 -159 -670 -34 -85 -69 -182 -78 -215 -21 -80 -21 -236 0 -293 71
-187 265 -272 621 -272 238 0 411 23 880 116 390 78 503 121 617 234 75 75
103 144 102 260 0 106 -23 178 -133 409 -125 265 -186 476 -222 761 -15 119
-16 838 -2 977 l9 81 465 -229 c256 -127 491 -239 522 -250 184 -62 316 43
369 294 40 186 36 716 -7 1042 -39 304 -80 486 -122 555 -88 143 -321 124
-469 -38 -13 -15 -73 -99 -132 -188 -65 -95 -130 -180 -162 -209 -90 -80 -196
-118 -292 -104 -65 10 -106 36 -144 92 -37 55 -53 121 -53 217 0 84 77 1466
86 1532 12 94 75 152 194 177 344 73 744 -71 991 -356 82 -95 130 -182 205
-370 81 -205 109 -260 168 -340 83 -110 222 -182 328 -170 191 23 313 198 358
518 17 121 32 925 20 1060 -34 369 -189 556 -516 624 -77 16 -340 27 -434 19z"/>
<path d="M30040 31954 c-25 -2 -218 -16 -430 -30 -986 -64 -2455 -175 -2526
-189 -220 -45 -334 -165 -306 -325 6 -31 38 -127 71 -213 171 -438 249 -792
293 -1332 16 -201 16 -887 0 -1195 -55 -1023 -103 -1876 -112 -1980 -24 -273
-56 -410 -159 -670 -34 -85 -69 -182 -78 -215 -21 -80 -21 -236 0 -293 71
-187 265 -272 621 -272 238 0 411 23 880 116 390 78 503 121 617 234 75 75
103 144 102 260 0 106 -23 178 -133 409 -125 265 -186 476 -222 761 -15 119
-16 838 -2 977 l9 81 465 -229 c256 -127 491 -239 522 -250 184 -62 316 43
369 294 40 186 36 716 -7 1042 -39 304 -80 486 -122 555 -88 143 -321 124
-469 -38 -13 -15 -73 -99 -132 -188 -65 -95 -130 -180 -162 -209 -90 -80 -196
-118 -292 -104 -65 10 -106 36 -144 92 -37 55 -53 121 -53 217 0 84 77 1466
86 1532 12 94 75 152 194 177 344 73 744 -71 991 -356 82 -95 130 -182 205
-370 86 -219 136 -311 205 -383 178 -182 407 -165 539 40 47 73 90 208 110
347 17 116 32 942 20 1068 -36 367 -190 552 -516 620 -77 16 -338 28 -434 19z"/>
<path d="M33557 31815 c-114 -19 -263 -58 -321 -85 -58 -28 -112 -87 -126
-141 -23 -83 6 -165 125 -364 116 -194 146 -269 183 -460 13 -69 15 -321 19
-1901 4 -1882 -2 -2374 -32 -2492 -28 -115 -61 -179 -179 -345 -59 -84 -83
-135 -101 -212 -41 -175 50 -277 280 -315 87 -14 283 -12 410 5 299 40 547 29
1010 -45 531 -84 713 -100 1230 -107 418 -5 991 9 1085 28 124 25 223 92 264
179 19 41 21 62 20 245 0 110 -6 268 -13 350 -40 508 -98 1021 -127 1115 -51
171 -144 260 -272 260 -133 0 -241 -95 -433 -381 -96 -143 -178 -239 -277
-325 -202 -173 -429 -287 -702 -351 -140 -32 -389 -42 -533 -20 -54 8 -100 17
-102 19 -6 6 93 1058 109 1162 33 206 121 321 256 333 108 10 192 -35 379
-207 174 -159 247 -201 362 -208 66 -4 84 -1 130 20 98 45 186 157 219 277 27
100 27 225 4 741 -13 283 -28 542 -33 574 -52 304 -209 449 -405 376 -45 -17
-76 -39 -126 -89 -59 -59 -76 -86 -160 -255 -138 -278 -210 -346 -371 -354
-154 -8 -219 66 -219 248 0 41 20 347 44 680 33 469 47 613 59 636 27 52 57
58 250 51 200 -7 349 -34 541 -98 215 -72 331 -136 650 -357 110 -76 168 -97
264 -96 100 1 195 48 278 137 142 151 182 331 170 757 -13 459 -36 679 -80
775 -67 146 -206 215 -407 201 -48 -3 -457 -55 -910 -116 -919 -124 -1001
-130 -1141 -92 -42 12 -144 51 -227 86 -308 133 -457 167 -751 172 -145 2
-231 -1 -293 -11z"/>
<path d="M39997 31815 c-114 -19 -263 -58 -321 -85 -58 -28 -112 -87 -126
-141 -23 -83 6 -165 125 -364 116 -194 146 -269 183 -460 13 -69 15 -320 19
-1909 4 -1886 -2 -2365 -32 -2484 -28 -115 -61 -179 -179 -345 -59 -84 -83
-135 -101 -212 -41 -175 50 -277 280 -315 87 -14 283 -12 410 5 299 40 547 29
1010 -45 531 -84 713 -100 1230 -107 418 -5 991 9 1085 28 124 25 223 92 264
179 19 41 21 62 20 245 0 110 -6 268 -13 350 -40 508 -98 1021 -127 1115 -51
171 -144 260 -272 260 -133 0 -241 -95 -433 -381 -96 -143 -178 -239 -277
-325 -202 -173 -429 -287 -702 -351 -140 -32 -389 -42 -533 -20 -54 8 -100 17
-102 19 -6 6 93 1058 109 1162 33 206 121 321 256 333 108 10 192 -35 379
-207 174 -159 247 -201 362 -208 66 -4 84 -1 130 20 98 45 186 157 219 277 27
100 27 225 4 741 -13 283 -28 542 -33 574 -52 304 -209 449 -405 376 -45 -17
-76 -39 -126 -89 -59 -59 -76 -87 -160 -256 -139 -277 -210 -345 -371 -353
-154 -8 -219 66 -219 248 0 41 20 347 44 680 33 469 47 613 59 636 27 52 57
58 250 51 200 -7 349 -34 541 -98 215 -72 331 -136 650 -357 110 -76 168 -97
264 -96 100 1 195 48 278 137 142 151 182 331 170 757 -13 459 -36 679 -80
775 -67 146 -206 215 -407 201 -48 -3 -457 -55 -910 -116 -919 -124 -1001
-130 -1140 -92 -42 12 -150 53 -240 91 -312 132 -444 162 -739 167 -145 2
-231 -1 -293 -11z"/>
<path d="M14628 31455 c-542 -59 -1017 -230 -1428 -513 -165 -113 -290 -220
-470 -401 -856 -858 -1280 -2007 -1124 -3046 88 -592 340 -1108 734 -1506 414
-417 905 -642 1610 -735 l55 -7 -50 -14 c-573 -159 -1154 -446 -1670 -828
-833 -616 -1560 -1458 -2357 -2730 -1230 -1965 -1916 -3793 -2082 -5545 -61
-638 -44 -1380 40 -1798 89 -445 297 -754 612 -912 113 -57 215 -82 337 -83
348 -2 633 235 874 728 237 482 371 957 443 1570 18 149 18 791 0 940 -59 499
-160 912 -320 1300 -28 66 -49 121 -48 122 1 1 103 22 226 47 629 127 1185
321 1775 620 132 66 242 122 246 124 4 2 3 -18 -2 -43 -36 -193 -32 -467 11
-688 86 -446 335 -791 665 -918 183 -71 470 -104 696 -80 137 15 341 66 464
116 291 118 546 296 810 566 158 162 241 262 352 427 42 61 82 112 89 112 51
0 514 170 734 270 456 207 914 495 1234 775 85 75 90 78 112 64 77 -46 309
-217 331 -243 41 -49 56 -94 50 -151 -3 -27 -46 -183 -97 -345 -214 -692 -273
-978 -274 -1325 -1 -200 11 -288 56 -420 92 -268 290 -429 613 -496 94 -20
329 -15 470 10 501 89 1018 322 1539 695 509 364 1077 903 1545 1465 155 187
201 268 201 357 0 167 -184 246 -364 155 -85 -43 -129 -84 -640 -584 -634
-619 -879 -833 -1211 -1056 -280 -188 -518 -308 -790 -397 -123 -41 -151 -47
-230 -48 -155 -1 -226 50 -233 169 -4 52 20 156 172 768 96 389 183 746 192
795 43 229 -13 384 -191 531 -38 32 -221 163 -405 291 -184 128 -341 239 -349
246 -11 10 -4 24 42 81 110 137 187 277 187 341 0 16 27 70 66 132 192 306
264 560 234 815 -62 522 -453 791 -929 640 -381 -122 -680 -477 -772 -918 -26
-122 -30 -333 -10 -447 37 -209 143 -427 290 -600 26 -30 50 -60 54 -67 11
-18 -325 -284 -543 -430 -144 -96 -284 -177 -397 -230 -99 -46 -246 -97 -262
-91 -5 1 20 80 55 173 190 504 300 907 338 1235 21 176 21 492 1 647 -73 560
-367 983 -853 1227 -313 157 -666 202 -1010 127 l-82 -18 228 231 c629 639
921 1056 1029 1476 25 94 28 122 27 270 0 184 -17 277 -74 412 -64 150 -187
292 -319 369 l-62 37 108 6 c815 48 1257 120 1702 278 1030 363 1607 1181
1701 2412 43 559 -63 1250 -275 1786 -96 244 -261 523 -408 691 -328 374 -775
656 -1362 859 -273 94 -497 147 -810 191 -187 27 -661 34 -847 14z m272 -881
c584 -51 892 -170 1152 -442 292 -306 454 -748 552 -1512 52 -400 60 -503 60
-810 0 -314 -7 -394 -58 -621 -104 -459 -413 -868 -774 -1024 -157 -68 -304
-95 -529 -95 -214 0 -472 36 -743 105 -740 187 -1182 619 -1329 1297 -57 266
-77 637 -47 915 65 606 264 1133 606 1598 130 178 361 419 484 506 152 108
229 118 626 83z m-306 -5876 c131 -39 188 -230 137 -458 -93 -416 -398 -857
-930 -1344 -172 -158 -327 -290 -701 -597 -789 -647 -1102 -870 -1810 -1286
-545 -321 -724 -430 -865 -522 -55 -36 -103 -67 -107 -69 -13 -6 24 102 59
171 180 358 820 1280 1447 2087 302 388 463 580 705 838 666 710 1260 1077
1921 1185 51 9 104 7 144 -5z m2 -2902 c165 -35 303 -107 421 -220 362 -343
396 -932 105 -1803 -103 -307 -260 -660 -304 -684 -91 -49 -469 118 -676 298
-72 63 -145 161 -167 223 -20 56 -19 149 2 202 9 24 40 80 70 126 105 164 135
241 135 351 0 88 -23 141 -84 196 -75 68 -144 86 -348 92 -200 7 -222 14 -253
80 -19 43 -21 64 -21 193 1 123 5 160 26 241 104 389 402 668 769 719 83 11
235 5 325 -14z m-1681 -336 c-123 -308 -149 -677 -70 -1008 27 -114 31 -172
13 -205 -6 -12 -54 -74 -107 -137 -118 -141 -229 -287 -304 -400 -57 -85 -57
-85 -229 -196 -646 -415 -1201 -675 -1738 -813 -263 -68 -498 -103 -782 -117
-143 -6 -148 -6 -148 13 0 52 153 535 279 878 l58 160 214 113 c964 508 1953
1130 2729 1714 63 48 116 86 117 85 1 -2 -13 -41 -32 -87z m4620 -160 c38 -23
65 -74 65 -120 0 -71 -34 -241 -70 -352 -45 -137 -111 -269 -188 -377 -71
-101 -104 -133 -164 -166 -67 -37 -144 -33 -187 10 -71 67 -103 227 -84 418
19 190 71 297 208 432 163 161 318 218 420 155z m-4054 -2167 c215 -264 477
-480 796 -659 l52 -30 -60 -79 c-73 -95 -217 -245 -314 -324 -288 -238 -691
-401 -895 -363 -181 33 -210 141 -137 503 54 264 136 495 229 644 35 56 260
385 263 385 1 0 31 -35 66 -77z m-4196 -1525 c140 -145 215 -325 290 -703 137
-687 96 -1405 -117 -2065 -59 -183 -173 -479 -233 -606 -64 -135 -118 -217
-183 -276 -57 -51 -105 -68 -187 -68 -103 0 -165 55 -187 166 -16 80 -16 749
0 969 58 796 201 1565 444 2379 28 94 58 195 66 224 8 28 20 52 26 52 6 0 42
-33 81 -72z"/>
<path d="M31020 22470 c-328 -41 -626 -171 -877 -381 -306 -257 -505 -642
-554 -1069 -7 -65 -9 -160 -6 -250 6 -133 15 -193 61 -398 17 -76 9 -113 -37
-170 -17 -22 -84 -105 -148 -184 -263 -324 -439 -617 -545 -907 l-39 -104
-115 -105 c-355 -324 -746 -602 -1084 -769 -136 -67 -233 -101 -246 -87 -10
11 139 358 454 1059 408 905 518 1171 547 1323 46 246 -86 433 -317 449 -68 5
-90 2 -157 -21 -184 -62 -292 -163 -497 -461 -304 -444 -591 -787 -953 -1141
-305 -299 -497 -452 -674 -537 -75 -36 -97 -42 -149 -41 -151 1 -264 126 -264
288 0 66 24 242 45 331 68 288 302 823 600 1370 142 260 177 369 154 477 -39
179 -298 219 -423 65 -95 -117 -269 -392 -395 -624 -279 -514 -506 -1197 -567
-1705 -57 -475 98 -783 441 -874 79 -20 266 -20 363 0 207 45 317 101 692 351
268 179 425 273 436 262 15 -15 -385 -841 -450 -928 l-34 -46 -209 -52 c-795
-198 -1526 -462 -2223 -803 -500 -244 -811 -426 -1109 -648 -631 -470 -973
-1009 -1042 -1641 -14 -130 -5 -477 15 -574 33 -162 101 -294 213 -415 311
-336 831 -455 1380 -316 349 89 777 287 1148 531 467 308 922 737 1350 1273
475 595 950 1381 1275 2109 l63 143 51 16 c77 25 285 114 438 187 340 162 741
404 1043 631 l124 94 7 -36 c72 -429 249 -742 518 -917 108 -70 212 -112 361
-143 105 -23 145 -26 320 -26 169 0 217 3 313 22 311 63 616 212 902 441 199
160 439 425 595 656 l68 99 110 34 c662 200 1371 584 1866 1011 52 45 95 80
97 78 2 -2 -5 -30 -16 -63 -29 -83 -86 -321 -106 -439 -11 -65 -17 -159 -18
-270 0 -194 17 -291 76 -412 150 -310 588 -416 1053 -256 347 119 778 427
1118 798 61 66 116 127 124 135 8 8 1 -16 -15 -55 -169 -412 -214 -916 -110
-1255 45 -147 147 -311 259 -414 168 -155 341 -226 553 -226 327 1 624 151
1171 590 406 327 801 725 1133 1141 64 81 118 146 119 145 1 -1 -23 -80 -53
-176 -201 -644 -274 -997 -274 -1325 1 -218 26 -347 100 -500 183 -379 615
-506 1220 -359 745 181 1507 670 2330 1494 284 284 624 669 712 804 41 63 68
140 68 190 -1 46 -33 110 -71 138 -79 59 -184 63 -292 10 -88 -43 -168 -116
-612 -553 -612 -601 -847 -811 -1157 -1030 -300 -213 -652 -392 -933 -474
-273 -80 -444 8 -405 209 7 34 91 378 187 765 96 387 179 744 185 792 8 64 8
107 0 155 -30 183 -103 256 -631 624 -217 151 -399 278 -404 282 -6 3 15 36
49 75 315 358 491 659 548 937 20 94 21 280 2 378 -60 307 -246 525 -506 589
-82 20 -258 15 -352 -9 -439 -117 -768 -508 -843 -1002 -43 -283 13 -556 165
-805 120 -197 364 -442 623 -625 l47 -34 -33 -35 c-19 -20 -145 -160 -282
-311 -281 -312 -731 -766 -910 -919 -220 -188 -515 -400 -655 -471 -173 -87
-323 -77 -410 28 -44 52 -96 164 -122 257 -18 68 -22 107 -22 255 0 199 10
265 80 542 147 579 375 1124 697 1664 160 269 187 335 187 460 0 240 -188 357
-406 255 -103 -48 -168 -122 -334 -381 -548 -856 -1052 -1443 -1661 -1936
-192 -155 -258 -194 -328 -194 -40 0 -90 36 -108 78 -58 140 133 661 417 1137
46 77 169 273 273 435 383 594 427 679 427 825 0 178 -166 316 -378 315 -300
-1 -606 -257 -909 -758 l-95 -157 -61 -7 c-113 -13 -168 -50 -378 -254 -534
-518 -1011 -883 -1389 -1063 -112 -53 -253 -104 -275 -99 -9 2 5 49 46 158
195 516 301 896 345 1245 22 179 23 502 0 659 -67 469 -264 813 -616 1075
-177 133 -441 247 -655 285 -112 20 -325 28 -425 16z m360 -674 c283 -61 514
-251 625 -515 154 -365 119 -856 -109 -1526 -94 -278 -231 -596 -278 -646 -34
-37 -78 -38 -190 -3 -274 86 -558 285 -647 454 -27 51 -35 79 -39 136 -5 86
14 136 108 279 124 188 149 346 74 461 -66 101 -156 132 -404 143 -197 8 -217
15 -244 80 -23 58 -30 193 -16 301 49 382 303 705 640 815 135 45 330 53 480
21z m7881 -477 c46 -16 87 -56 99 -97 17 -64 -20 -278 -76 -432 -80 -224 -237
-455 -345 -511 -47 -23 -121 -25 -159 -3 -42 25 -77 89 -96 172 -20 89 -15
314 9 398 62 222 329 473 513 483 12 0 36 -4 55 -10z m-9011 -2171 c75 -102
325 -346 455 -444 124 -93 262 -182 353 -228 l53 -27 -40 -57 c-204 -289 -561
-556 -895 -667 -251 -84 -435 -65 -487 49 -62 138 45 665 199 971 13 28 84
137 156 243 161 238 150 222 156 222 3 -1 25 -29 50 -62z m-4220 -2201 c0 -43
-351 -595 -679 -1067 -411 -593 -673 -912 -986 -1203 -411 -382 -841 -657
-1265 -810 -158 -57 -254 -77 -372 -77 -241 0 -404 110 -464 312 -24 82 -24
278 0 393 44 207 151 462 266 634 213 318 748 730 1339 1030 516 262 1281 557
1932 745 219 63 229 65 229 43z"/>
<path d="M27510 12663 c-92 -10 -244 -36 -330 -58 -492 -123 -930 -444 -1150
-842 -373 -672 -318 -1748 127 -2499 279 -470 624 -739 1109 -864 370 -96 818
-105 1245 -24 460 86 685 296 769 720 27 132 38 431 21 539 -47 304 -215 424
-410 294 -67 -45 -122 -109 -293 -345 -232 -319 -395 -456 -608 -510 -225 -57
-485 56 -646 282 -164 230 -257 636 -271 1189 -15 589 91 1126 270 1363 201
267 575 284 659 30 7 -20 12 -139 13 -303 1 -233 4 -283 22 -365 43 -195 112
-330 227 -445 239 -238 552 -244 824 -16 113 94 210 265 253 441 30 124 33
374 6 520 -47 252 -148 449 -290 568 -162 133 -574 265 -990 317 -111 14 -456
19 -557 8z"/>
<path d="M36200 12634 c-166 -20 -272 -50 -385 -107 -126 -63 -177 -134 -155
-216 11 -43 30 -65 161 -182 130 -117 172 -221 189 -472 15 -213 23 -1847 11
-2242 -11 -389 -14 -411 -86 -618 -105 -309 -43 -375 420 -448 122 -19 437
-17 580 5 262 39 338 95 338 245 0 87 -21 156 -98 320 -105 226 -148 345 -200
554 -72 290 -98 548 -98 957 0 304 6 412 44 860 40 477 68 569 224 754 101
118 119 154 119 236 0 79 -22 128 -89 189 -89 82 -193 115 -460 146 -130 15
-449 27 -515 19z"/>
<path d="M47552 12610 c-229 -24 -350 -77 -402 -180 -26 -52 -42 -152 -35
-218 4 -32 23 -140 42 -242 109 -583 151 -1000 159 -1580 l5 -375 -36 39 c-46
52 -279 356 -424 554 -351 480 -655 949 -1004 1543 -173 295 -264 371 -460
385 -63 4 -161 -4 -422 -35 -361 -43 -387 -48 -439 -81 -75 -46 -82 -122 -31
-332 41 -168 61 -316 70 -523 10 -241 -22 -2552 -36 -2600 -14 -51 -43 -108
-108 -214 -84 -138 -88 -191 -22 -264 40 -45 159 -106 251 -128 34 -8 107 -13
190 -12 110 0 153 5 231 26 126 33 236 85 294 138 91 84 98 128 55 369 -141
799 -165 1504 -77 2275 l12 110 37 -65 c19 -36 59 -112 87 -168 124 -247 395
-700 596 -997 351 -515 784 -1044 1178 -1438 205 -205 369 -227 519 -71 48 50
94 152 107 234 7 40 11 313 11 705 0 941 44 1919 96 2175 34 161 81 257 194
389 85 99 128 158 148 204 14 33 16 106 3 140 -57 149 -460 270 -789 237z"/>
<path d="M8690 12595 c-8 -2 -55 -9 -105 -15 -132 -18 -278 -52 -475 -110
-221 -66 -278 -69 -425 -22 -170 53 -224 63 -380 69 -111 4 -175 1 -245 -11
-212 -34 -283 -75 -283 -160 0 -55 29 -105 118 -206 107 -120 159 -224 191
-380 21 -107 32 -656 35 -1836 1 -758 -1 -994 -11 -1044 -15 -79 -45 -142
-134 -284 -93 -147 -128 -225 -128 -282 0 -75 45 -104 163 -104 66 0 869 114
951 135 106 27 176 76 205 143 30 71 26 136 -52 832 -79 710 -85 786 -66 832
22 58 101 81 140 43 8 -7 26 -75 42 -150 48 -236 101 -403 192 -600 285 -617
728 -995 1164 -995 322 0 597 173 683 430 18 54 21 80 17 153 -4 76 -10 99
-41 162 -58 118 -148 185 -247 185 -19 0 -61 -7 -94 -15 -211 -51 -297 22
-419 353 -94 257 -191 558 -222 690 -23 100 -14 115 125 222 363 276 551 612
551 985 0 374 -174 676 -483 840 -188 100 -333 135 -582 140 -93 2 -177 2
-185 0z m-279 -511 c191 -35 341 -85 412 -138 78 -58 134 -199 124 -316 -12
-144 -80 -273 -217 -410 -199 -199 -475 -350 -641 -350 l-46 0 -7 43 c-4 23
-12 105 -17 182 -12 175 9 938 26 962 30 41 218 55 366 27z"/>
<path d="M21886 12555 c-164 -34 -228 -70 -246 -136 -15 -54 5 -121 66 -219
89 -144 114 -210 133 -351 13 -98 15 -2577 1 -2702 -12 -120 -31 -171 -103
-280 -66 -100 -97 -170 -97 -217 0 -91 65 -143 201 -161 70 -10 117 -9 276 6
225 22 305 17 678 -39 127 -19 282 -40 345 -46 183 -17 604 -23 860 -12 303
13 353 29 405 131 13 27 17 59 16 145 -2 203 -57 792 -87 924 -26 116 -78 184
-150 198 -90 17 -177 -50 -296 -225 -81 -120 -193 -237 -287 -301 -199 -134
-450 -197 -672 -170 l-100 12 6 52 c3 28 19 197 36 376 16 179 36 349 44 378
29 114 94 169 187 160 56 -6 107 -38 233 -150 44 -39 103 -81 130 -94 154 -73
295 39 319 251 10 82 -22 714 -39 798 -45 215 -191 287 -326 160 -36 -34 -65
-77 -110 -166 -74 -148 -107 -189 -169 -216 -57 -25 -98 -26 -145 -7 -48 20
-67 63 -67 150 1 110 53 818 63 844 14 36 53 45 174 38 257 -14 479 -96 707
-260 104 -74 131 -87 199 -93 142 -13 267 113 300 302 8 49 10 145 6 320 -9
366 -26 457 -100 522 -49 43 -99 58 -192 57 -44 -1 -321 -34 -615 -74 -670
-90 -657 -90 -876 -1 -222 90 -278 103 -474 107 -117 2 -185 -1 -234 -11z"/>
<path d="M18105 12463 c-201 -5 -608 -24 -735 -34 -245 -18 -374 -63 -480
-169 -131 -132 -203 -395 -185 -680 19 -284 74 -417 197 -470 43 -18 65 -22
124 -18 169 11 282 112 444 397 133 234 255 346 390 358 77 7 87 -4 94 -109
11 -148 106 -2320 106 -2419 0 -107 -21 -246 -47 -311 -9 -23 -45 -92 -80
-152 -148 -259 -157 -396 -29 -471 67 -39 161 -55 331 -55 390 0 850 105 983
224 83 75 82 140 -1 328 -134 301 -213 629 -252 1043 -22 233 -37 836 -33
1335 l3 435 25 50 c34 68 77 95 150 95 72 0 147 -36 195 -94 19 -24 53 -83 76
-132 22 -49 56 -121 74 -161 44 -95 102 -171 178 -234 91 -76 154 -103 255
-107 77 -4 88 -2 147 27 111 55 190 167 222 314 12 56 14 111 9 252 -3 99 -10
212 -16 250 -41 275 -161 406 -421 459 -199 40 -1120 67 -1724 49z"/>
<path d="M32125 12463 c-500 -14 -842 -37 -954 -63 -267 -64 -407 -257 -442
-610 -11 -113 -5 -270 16 -390 28 -160 82 -249 177 -290 43 -18 65 -22 124
-18 169 11 282 112 444 397 133 234 255 346 390 358 77 7 87 -4 94 -109 11
-148 106 -2320 106 -2419 0 -107 -21 -246 -47 -311 -9 -23 -45 -92 -80 -152
-148 -259 -157 -396 -29 -471 78 -46 167 -58 391 -52 217 6 342 22 535 68 235
56 342 100 403 168 67 74 64 133 -16 313 -134 302 -213 629 -252 1043 -22 233
-37 836 -33 1335 l3 435 25 50 c34 68 77 95 150 95 72 0 147 -36 195 -94 19
-24 53 -83 76 -132 22 -49 56 -121 74 -161 44 -95 102 -171 178 -234 91 -76
154 -103 255 -107 77 -4 88 -2 147 27 111 55 190 167 222 314 30 142 3 539
-46 667 -62 162 -179 252 -382 294 -199 40 -1120 67 -1724 49z"/>
<path d="M2555 12357 c-125 -32 -229 -121 -261 -221 -28 -88 -11 -127 98 -236
146 -146 173 -227 188 -565 14 -320 30 -1281 33 -1950 l2 -600 -28 -54 c-15
-30 -50 -85 -77 -122 -120 -165 -119 -223 2 -285 99 -50 188 -66 368 -67 91 0
203 5 250 12 196 27 488 84 527 102 66 31 88 76 87 174 0 66 -7 98 -38 185
-107 298 -134 393 -161 570 -21 144 -30 394 -16 509 9 80 14 99 36 120 l25 26
288 6 c309 7 402 18 601 69 455 118 754 392 886 810 71 226 71 478 1 693 -141
429 -555 758 -1000 796 -113 9 -316 -1 -556 -28 -368 -42 -464 -38 -774 26
-196 40 -392 53 -481 30z m1315 -482 c98 -26 180 -75 261 -156 85 -84 137
-175 163 -289 22 -92 20 -249 -3 -342 -60 -233 -240 -445 -475 -559 -223 -108
-289 -37 -257 276 7 61 23 323 36 584 16 306 29 478 36 487 16 19 167 18 239
-1z"/>
<path d="M13330 12333 c-351 -36 -660 -139 -913 -305 -398 -262 -751 -709
-941 -1190 -246 -627 -192 -1290 149 -1798 256 -382 631 -613 1125 -694 299
-49 727 -49 1160 0 908 102 1424 455 1658 1135 120 349 148 788 76 1204 -59
337 -179 650 -331 863 -294 411 -916 721 -1568 782 -103 9 -336 11 -415 3z
m290 -588 c273 -42 448 -121 586 -266 208 -220 306 -505 376 -1096 29 -245 31
-571 5 -713 -45 -244 -143 -444 -288 -589 -219 -220 -471 -271 -912 -187 -449
87 -735 271 -891 576 -78 152 -117 296 -137 515 -47 512 125 1072 451 1470 98
120 243 253 312 286 l63 31 165 -6 c91 -3 212 -12 270 -21z"/>
<path d="M40640 12333 c-603 -62 -1061 -316 -1456 -808 -258 -322 -448 -728
-518 -1105 -133 -720 145 -1442 697 -1811 315 -211 678 -299 1227 -299 507 0
966 63 1294 177 625 217 996 698 1092 1418 18 133 20 441 5 585 -46 421 -175
802 -358 1058 -294 411 -916 721 -1568 782 -103 9 -336 11 -415 3z m290 -588
c273 -42 448 -121 586 -266 208 -220 306 -505 376 -1096 29 -245 31 -571 5
-713 -45 -244 -143 -444 -288 -589 -220 -220 -477 -272 -916 -186 -369 73
-612 201 -779 410 -144 179 -217 384 -245 680 -46 512 125 1072 451 1470 98
120 243 253 312 286 l63 31 165 -6 c91 -3 212 -12 270 -21z"/>
</g>
</svg>
