<?xml version="1.0" standalone="no"?>
<!DOCTYPE svg PUBLIC "-//W3C//DTD SVG 20010904//EN"
 "http://www.w3.org/TR/2001/REC-SVG-20010904/DTD/svg10.dtd">
<svg version="1.0" xmlns="http://www.w3.org/2000/svg"
 width="3000.000000pt" height="3000.000000pt" viewBox="0 0 3000.000000 3000.000000"
 preserveAspectRatio="xMidYMid meet">

<g transform="translate(0.000000,3000.000000) scale(0.100000,-0.100000)"
fill="#000000" stroke="none">
<path d="M13160 28254 c-112 -7 -278 -25 -383 -40 -128 -20 -165 -40 -187
-102 -13 -37 -13 -47 0 -84 25 -72 77 -95 260 -115 l75 -8 9 -95 c7 -76 4
-129 -13 -265 -35 -279 -85 -882 -116 -1390 -57 -957 -68 -1762 -30 -2225 29
-364 86 -777 130 -948 105 -415 302 -718 522 -802 74 -29 202 -32 283 -7 291
89 561 494 798 1202 46 134 216 695 302 993 18 61 37 112 43 112 6 0 7 -28 3
-77 -18 -214 -26 -453 -26 -793 0 -407 9 -594 45 -910 29 -258 31 -250 -100
-296 -62 -22 -111 -69 -120 -116 -14 -77 34 -166 103 -189 65 -21 667 2 937
37 209 27 348 54 390 77 114 64 115 222 0 265 -28 11 -84 16 -190 17 -82 1
-155 2 -162 3 -28 5 -33 75 -39 476 -9 573 12 1876 46 2901 25 732 69 1674 81
1741 12 63 36 87 111 108 78 22 108 59 108 132 0 101 -42 157 -128 170 -55 9
-234 -7 -457 -41 -88 -13 -192 -26 -231 -30 -88 -7 -272 -48 -312 -69 -54 -28
-82 -72 -82 -127 0 -28 7 -63 15 -78 17 -34 78 -61 139 -61 26 0 48 -6 56 -15
9 -11 5 -114 -20 -482 -40 -602 -41 -614 -94 -834 -25 -102 -66 -277 -91 -390
-213 -941 -505 -2026 -651 -2422 -108 -290 -268 -637 -361 -781 -95 -147 -188
-217 -269 -202 -111 21 -242 269 -333 631 -89 356 -120 705 -128 1450 -7 666
7 1064 62 1815 34 458 53 796 65 1180 10 298 12 326 30 341 13 11 49 18 117
23 168 11 278 46 323 103 17 22 21 37 17 72 -6 56 -32 90 -93 121 -46 24 -57
25 -224 26 -96 1 -200 0 -230 -2z"/>
<path d="M16557 28150 c-104 -18 -204 -96 -254 -199 -23 -47 -28 -69 -28 -136
0 -128 36 -195 157 -292 85 -68 86 -80 13 -192 -30 -46 -60 -101 -65 -122 -26
-97 55 -199 158 -199 53 0 86 17 133 67 95 100 295 526 306 649 9 97 -29 205
-108 311 -65 87 -191 133 -312 113z"/>
<path d="M11022 28050 c-13 -5 -56 -33 -96 -61 -66 -46 -81 -52 -147 -59 -41
-5 -96 -16 -124 -25 -67 -23 -374 -177 -456 -230 -190 -123 -427 -420 -578
-726 -192 -387 -258 -805 -196 -1244 19 -134 41 -225 94 -375 75 -215 92 -372
71 -633 -11 -131 -11 -203 -2 -377 34 -614 120 -991 314 -1369 235 -458 520
-680 898 -698 364 -18 674 174 943 582 174 264 396 813 516 1276 52 199 83
348 131 644 116 710 117 1238 4 1853 -66 365 -175 652 -340 900 -196 294 -422
431 -776 471 -66 7 -89 15 -126 41 -49 35 -94 45 -130 30z m358 -437 c101 -27
169 -71 275 -178 188 -189 294 -383 379 -697 82 -300 119 -901 86 -1376 -20
-278 -91 -759 -117 -782 -15 -14 -333 -110 -433 -130 -209 -43 -481 -12 -759
85 -181 63 -404 186 -422 232 -12 33 -11 447 1 614 47 607 221 1312 422 1713
109 218 317 498 393 532 33 15 89 11 175 -13z m-1380 -739 c-35 -100 -147
-470 -194 -643 -25 -90 -48 -167 -52 -170 -8 -8 4 121 22 239 25 167 82 347
155 492 43 85 81 150 85 145 2 -2 -5 -30 -16 -63z m534 -2599 c108 -51 300
-113 430 -140 309 -66 645 -56 879 24 48 17 59 18 63 6 7 -16 -49 -223 -108
-398 -144 -434 -287 -708 -490 -937 -122 -138 -142 -141 -262 -29 -282 263
-481 709 -580 1297 -27 162 -31 212 -17 212 4 0 43 -16 85 -35z"/>
<path d="M6540 27829 c-354 -20 -428 -37 -456 -106 -32 -76 2 -154 75 -173 38
-9 295 -30 372 -30 82 0 81 10 34 -365 -92 -737 -134 -1392 -115 -1773 24
-449 87 -752 203 -975 103 -199 267 -289 445 -243 130 33 225 103 344 253 119
149 205 289 323 528 123 248 181 386 386 922 85 220 158 399 163 396 5 -3 5
-156 1 -352 -4 -190 -11 -776 -15 -1301 -10 -1003 -13 -1087 -60 -1368 -39
-228 -111 -480 -182 -629 -66 -140 -206 -277 -315 -309 -75 -22 -115 -13 -167
39 -71 72 -111 169 -160 393 -25 109 -63 278 -86 374 -22 96 -38 185 -35 197
4 18 21 27 93 48 178 52 211 75 214 147 3 96 -52 140 -181 146 -159 7 -394
-35 -759 -136 -233 -65 -263 -81 -282 -152 -10 -40 0 -98 24 -135 33 -50 148
-56 338 -15 144 31 201 35 218 15 8 -9 27 -92 42 -184 49 -295 138 -611 215
-766 62 -124 154 -221 258 -273 74 -37 174 -62 249 -62 277 0 515 85 682 242
189 179 295 418 398 899 70 328 94 516 131 1039 38 555 40 595 75 1515 6 154
17 384 25 510 8 127 21 370 30 540 8 171 17 354 19 409 4 65 11 106 21 122 9
14 46 39 83 57 103 49 130 106 101 211 -6 22 -23 52 -38 67 -54 53 -96 51
-521 -27 -135 -25 -359 -59 -499 -75 -264 -31 -328 -47 -350 -87 -17 -33 -13
-104 9 -139 25 -42 86 -59 238 -68 128 -7 162 -16 162 -43 0 -10 -18 -52 -39
-93 -48 -91 -137 -310 -360 -884 -255 -656 -267 -687 -347 -859 -88 -192 -217
-432 -290 -542 -76 -115 -194 -234 -232 -234 -54 0 -85 54 -140 240 -48 164
-75 342 -92 615 -18 275 6 825 55 1265 21 193 42 444 56 668 15 238 8 228 162
217 112 -7 204 4 273 34 48 22 74 68 74 133 0 88 -57 136 -190 157 -74 12
-463 12 -680 0z"/>
<path d="M17459 27824 c-123 -22 -297 -91 -329 -130 -8 -9 -14 -34 -14 -56 2
-55 36 -88 98 -95 25 -3 51 -12 57 -19 13 -16 6 -97 -46 -569 -135 -1217 -177
-2424 -115 -3310 15 -207 58 -663 76 -798 9 -66 27 -167 40 -225 13 -59 24
-114 24 -124 0 -9 -16 -30 -37 -45 -74 -57 -83 -69 -83 -116 0 -30 7 -53 22
-72 21 -28 22 -28 112 -22 277 18 553 53 714 92 176 42 256 92 256 160 0 89
-61 127 -214 133 -112 3 -155 14 -165 40 -3 10 -11 82 -16 162 -5 80 -18 271
-29 425 -11 154 -20 304 -20 334 0 53 17 131 29 131 3 0 26 -31 51 -68 178
-265 439 -510 661 -623 101 -50 210 -90 319 -115 132 -31 346 -42 473 -25 108
15 124 7 150 -67 24 -68 62 -95 142 -100 97 -5 153 44 174 153 6 27 15 187 21
354 9 283 9 307 -7 340 -14 28 -28 38 -64 50 -125 38 -199 -36 -234 -234 -6
-39 -17 -80 -23 -92 -40 -75 -375 -97 -575 -39 -172 51 -292 113 -423 218 -77
62 -207 204 -201 221 1 4 63 10 137 12 276 6 455 67 721 243 74 49 181 126
239 172 134 106 384 355 489 488 431 546 638 1150 618 1810 -10 340 -91 600
-249 799 -153 193 -350 271 -610 243 -284 -31 -532 -117 -749 -261 -63 -42
-139 -107 -230 -198 -260 -260 -460 -571 -628 -973 -70 -167 -97 -207 -87
-127 3 24 22 174 42 333 32 265 62 464 160 1076 45 284 51 357 31 395 -40 78
-115 113 -270 125 -156 13 -348 11 -438 -6z m2404 -734 c216 -104 331 -516
272 -977 -96 -753 -429 -1327 -1025 -1768 -414 -306 -644 -364 -980 -248 -85
30 -119 37 -178 36 -40 0 -74 3 -77 8 -3 4 -1 27 4 51 6 24 17 99 26 168 62
465 193 973 357 1380 151 375 392 786 575 980 191 203 428 330 717 385 108 21
250 14 309 -15z"/>
<path d="M22083 27696 c-268 -71 -485 -226 -653 -464 -514 -730 -801 -1749
-836 -2967 -16 -567 67 -1044 257 -1474 100 -225 181 -352 308 -484 133 -138
268 -218 437 -258 108 -25 245 -28 338 -5 254 61 577 322 682 550 28 61 101
373 129 552 10 60 24 119 31 131 19 30 73 56 158 77 98 24 123 39 137 84 22
75 -14 144 -96 178 -84 35 -497 14 -627 -32 -138 -48 -159 -208 -35 -264 23
-11 54 -20 68 -20 54 0 53 -11 -5 -271 -30 -134 -65 -269 -78 -299 -36 -81
-76 -140 -100 -149 -13 -4 -54 -2 -97 6 -165 31 -313 112 -419 228 -182 199
-317 644 -325 1073 -3 160 -9 154 184 171 430 37 1054 114 1141 141 181 56
290 192 343 425 145 641 195 1567 115 2099 -86 561 -291 845 -695 962 -133 38
-246 41 -362 10z m466 -426 c96 -76 158 -192 215 -400 52 -192 58 -247 63
-586 9 -559 -27 -1022 -117 -1486 -40 -206 -62 -251 -140 -277 -46 -16 -1165
-142 -1186 -134 -15 6 -16 20 -10 126 21 404 117 911 247 1315 132 409 348
842 593 1189 79 112 246 293 270 293 8 0 37 -18 65 -40z"/>
<path d="M8957 21493 c-4 -3 -93 -9 -199 -14 -209 -8 -262 -18 -433 -83 -106
-41 -131 -60 -141 -111 -15 -84 29 -145 116 -159 50 -8 55 -23 36 -133 -39
-225 -75 -622 -98 -1083 -17 -338 -17 -1778 0 -2150 29 -634 67 -1125 122
-1557 17 -128 30 -243 30 -255 0 -14 -20 -41 -54 -73 -29 -27 -58 -60 -65 -72
-27 -52 -3 -136 48 -166 25 -15 62 -17 284 -17 512 0 697 45 697 168 0 61 53
92 159 92 73 0 279 43 387 80 233 81 405 190 589 375 308 308 565 744 780
1320 162 434 271 863 327 1280 19 145 22 216 22 485 1 283 -2 328 -22 444 -51
292 -138 567 -263 834 -149 317 -407 497 -688 479 -365 -23 -668 -246 -985
-722 -229 -345 -414 -702 -563 -1085 -77 -200 -76 -202 -69 240 7 405 15 603
42 1045 14 220 15 291 5 387 -6 64 -8 124 -5 133 4 9 23 24 44 35 44 23 97 80
106 116 16 64 -41 148 -112 165 -46 10 -88 11 -97 2z m1793 -678 c102 -52 166
-138 254 -338 99 -225 173 -477 208 -707 27 -185 10 -573 -43 -929 -108 -737
-365 -1423 -754 -2011 -144 -218 -315 -377 -515 -479 -192 -98 -365 -140 -645
-157 l-111 -6 -17 38 c-50 115 -62 293 -61 909 0 786 27 1117 124 1535 144
624 392 1169 769 1689 124 170 200 254 303 331 89 68 155 104 238 132 71 23
199 20 250 -7z"/>
<path d="M18457 21493 c-4 -3 -93 -9 -199 -14 -209 -8 -262 -18 -433 -83 -106
-41 -131 -60 -141 -111 -15 -84 29 -145 116 -159 50 -8 55 -23 36 -133 -39
-225 -75 -622 -98 -1083 -17 -338 -17 -1778 0 -2150 29 -634 67 -1125 122
-1557 17 -128 30 -243 30 -255 0 -14 -20 -41 -54 -73 -29 -27 -58 -60 -65 -72
-27 -52 -3 -136 48 -166 25 -15 62 -17 284 -17 512 0 697 45 697 168 0 61 53
92 159 92 73 0 279 43 387 80 233 81 405 190 589 375 308 308 565 744 780
1320 162 434 271 863 327 1280 19 145 22 216 22 485 1 283 -2 328 -22 444 -51
292 -138 567 -263 834 -149 317 -407 497 -688 479 -365 -23 -668 -246 -985
-722 -230 -346 -414 -701 -563 -1085 -77 -200 -76 -202 -69 240 7 405 15 603
42 1045 14 220 15 291 5 387 -6 64 -8 124 -5 133 4 9 23 24 44 35 44 23 97 80
106 116 16 64 -41 148 -112 165 -46 10 -88 11 -97 2z m1793 -678 c102 -52 166
-138 254 -338 99 -225 173 -477 208 -707 27 -185 10 -573 -43 -929 -108 -737
-364 -1421 -754 -2011 -145 -219 -322 -383 -525 -485 -186 -93 -361 -134 -635
-151 l-110 -6 -18 36 c-50 105 -72 474 -64 1061 10 699 38 1000 127 1385 122
528 330 1026 608 1455 98 153 253 362 322 437 107 117 254 218 380 260 71 23
199 20 250 -7z"/>
<path d="M16370 21352 c-130 -44 -230 -113 -360 -249 -113 -118 -183 -214
-307 -421 -453 -754 -773 -1767 -958 -3027 -25 -172 -42 -256 -53 -268 -8 -9
-39 -24 -68 -33 -64 -18 -85 -41 -91 -98 -5 -43 -3 -48 34 -83 21 -21 54 -50
72 -66 30 -25 33 -31 28 -65 -21 -127 -49 -473 -56 -687 -11 -324 -18 -341
-143 -359 -35 -5 -54 -15 -72 -36 -52 -62 -45 -131 19 -196 34 -34 53 -44 91
-50 81 -12 609 4 647 19 44 19 103 87 118 136 25 82 -34 183 -113 195 -82 13
-156 15 -193 6 -33 -7 -43 -6 -57 8 -16 16 -14 43 32 478 27 254 55 473 61
487 17 37 52 49 179 58 63 4 180 13 260 19 400 29 1032 32 1076 4 12 -7 24
-28 27 -46 10 -57 51 -1064 44 -1082 -4 -9 -35 -29 -70 -45 -35 -16 -75 -43
-91 -62 -25 -29 -28 -39 -23 -82 3 -35 12 -56 32 -77 49 -51 89 -54 470 -36
501 25 623 51 661 141 18 44 18 75 -2 125 -25 61 -52 77 -185 104 -17 4 -30
16 -37 33 -6 16 -16 163 -22 328 -26 723 -54 1281 -85 1685 -32 408 -36 522
-45 1120 -9 627 -19 828 -61 1160 -51 410 -152 692 -305 847 -100 102 -155
126 -294 130 -81 2 -118 -1 -160 -15z m-76 -592 c4 -52 25 -329 46 -615 22
-286 58 -790 80 -1120 22 -330 54 -791 70 -1024 35 -491 34 -481 16 -507 -14
-18 -31 -19 -408 -20 -384 -1 -525 -8 -857 -40 -142 -14 -165 -14 -178 -2 -12
13 -10 40 17 214 84 546 205 1093 354 1597 158 532 390 1019 686 1437 111 157
152 205 160 189 4 -8 10 -57 14 -109z"/>
<path d="M13163 21236 c-268 -71 -485 -226 -653 -464 -514 -730 -801 -1750
-836 -2967 -16 -567 67 -1044 257 -1474 100 -225 181 -352 308 -484 177 -183
383 -277 614 -279 112 -1 202 19 312 71 232 109 476 343 543 523 23 62 93 374
120 536 11 61 25 119 32 127 21 25 77 50 154 69 98 24 123 39 137 84 22 75
-14 144 -96 178 -84 35 -497 14 -627 -32 -138 -48 -159 -208 -35 -264 23 -11
51 -20 63 -20 11 0 28 -6 38 -13 16 -12 14 -28 -37 -257 -30 -135 -66 -270
-79 -300 -36 -81 -76 -140 -100 -149 -13 -4 -54 -2 -97 6 -165 31 -313 112
-419 228 -182 199 -317 644 -325 1073 -3 160 -9 154 184 171 430 37 1054 114
1141 141 181 56 290 192 343 425 145 641 195 1567 115 2099 -86 560 -291 846
-695 962 -133 38 -246 41 -362 10z m466 -426 c96 -76 158 -192 215 -400 52
-192 58 -247 63 -586 9 -559 -27 -1022 -117 -1486 -40 -206 -62 -251 -140
-277 -44 -15 -1165 -142 -1185 -135 -20 8 -20 74 0 275 90 919 365 1699 829
2356 79 112 246 293 270 293 8 0 37 -18 65 -40z"/>
<path d="M16750 14984 c-112 -7 -278 -25 -383 -40 -128 -20 -165 -40 -187
-102 -13 -37 -13 -47 0 -84 25 -72 77 -95 260 -115 l75 -8 9 -95 c7 -76 4
-129 -13 -265 -35 -279 -85 -882 -116 -1390 -57 -957 -68 -1762 -30 -2225 29
-364 86 -777 130 -948 105 -415 302 -718 522 -802 74 -29 202 -32 283 -7 291
89 561 494 798 1202 46 134 216 695 302 993 18 61 37 112 43 112 6 0 7 -28 3
-77 -18 -214 -26 -453 -26 -793 0 -407 9 -594 45 -910 29 -258 31 -250 -100
-296 -62 -22 -111 -69 -120 -116 -14 -77 34 -166 103 -189 65 -21 667 2 937
37 209 27 348 54 390 77 114 64 115 222 0 265 -28 11 -84 16 -190 17 -82 1
-155 2 -162 3 -28 5 -33 75 -39 476 -9 576 12 1872 46 2901 25 738 68 1674 81
1741 12 63 36 87 111 108 78 22 108 59 108 132 0 101 -42 157 -128 170 -55 9
-234 -7 -457 -41 -88 -13 -192 -26 -231 -30 -88 -7 -272 -48 -312 -69 -54 -28
-82 -72 -82 -127 0 -28 7 -63 15 -78 17 -34 78 -61 139 -61 26 0 48 -6 56 -15
10 -12 6 -102 -19 -442 -17 -236 -31 -457 -31 -493 0 -92 -19 -193 -99 -535
-39 -165 -107 -453 -151 -641 -128 -544 -318 -1261 -451 -1702 -88 -294 -219
-623 -356 -897 -86 -170 -151 -271 -216 -332 -137 -130 -238 -85 -356 159
-105 218 -185 533 -225 888 -34 303 -41 511 -41 1170 0 731 8 928 65 1680 28
366 48 737 60 1110 10 298 12 326 30 341 13 11 49 18 117 23 168 11 278 46
323 103 17 22 21 37 17 72 -6 56 -32 90 -93 121 -46 24 -57 25 -224 26 -96 1
-200 0 -230 -2z"/>
<path d="M12642 14780 c-13 -5 -56 -33 -96 -61 -66 -46 -81 -52 -147 -59 -41
-5 -96 -16 -124 -25 -66 -22 -372 -176 -456 -230 -190 -122 -427 -420 -578
-726 -192 -387 -258 -805 -196 -1244 19 -134 41 -225 94 -375 75 -215 92 -372
71 -633 -20 -241 3 -620 60 -977 73 -453 282 -916 530 -1174 186 -193 372
-281 620 -293 360 -18 666 168 932 566 182 272 403 815 527 1292 52 199 83
348 131 644 116 710 117 1238 4 1853 -66 365 -175 652 -340 900 -196 294 -422
431 -776 471 -66 7 -89 15 -126 41 -49 35 -94 45 -130 30z m358 -437 c101 -27
169 -72 275 -178 188 -187 294 -383 379 -697 82 -300 119 -899 86 -1378 -19
-271 -92 -757 -117 -780 -15 -14 -333 -110 -433 -130 -209 -43 -481 -12 -759
85 -181 63 -404 186 -422 232 -12 33 -11 447 1 614 47 607 221 1312 422 1713
109 218 317 498 393 532 33 15 89 11 175 -13z m-1380 -739 c-35 -100 -147
-470 -194 -643 -25 -90 -48 -167 -52 -170 -8 -8 4 121 22 239 25 167 82 347
155 492 43 85 81 150 85 145 2 -2 -5 -30 -16 -63z m534 -2599 c108 -51 300
-113 430 -140 309 -66 645 -56 879 24 48 17 59 18 63 6 7 -16 -49 -223 -108
-398 -144 -434 -287 -708 -490 -937 -122 -138 -142 -141 -262 -29 -282 263
-481 709 -580 1297 -27 162 -31 212 -17 212 4 0 43 -16 85 -35z"/>
<path d="M21485 14741 c-284 -51 -507 -173 -740 -406 -272 -272 -450 -618
-521 -1010 -24 -136 -24 -399 0 -510 51 -235 172 -472 334 -651 23 -26 41 -53
38 -60 -2 -6 -34 -19 -69 -29 -58 -15 -88 -17 -264 -9 -233 10 -247 10 -289
-17 -41 -25 -69 -93 -60 -142 16 -84 87 -139 228 -177 172 -46 327 -36 519 34
147 55 209 71 243 62 33 -8 193 -168 298 -297 233 -287 421 -665 488 -980 60
-285 23 -528 -110 -717 -119 -170 -272 -249 -461 -240 -115 5 -193 42 -273
129 -67 72 -146 227 -171 334 -20 86 -73 484 -67 506 3 12 24 20 79 29 159 25
223 80 223 190 0 59 -17 97 -59 133 -59 49 -82 52 -431 52 -307 -1 -329 -2
-397 -23 -115 -35 -176 -114 -159 -204 21 -113 102 -149 315 -139 51 3 75 0
81 -9 4 -7 11 -62 15 -124 14 -230 77 -533 146 -706 60 -148 111 -212 418
-517 76 -75 172 -126 281 -149 63 -13 91 -14 177 -4 245 27 427 100 643 261
334 247 489 528 507 919 6 140 -11 482 -32 635 -67 487 -262 873 -622 1234
-78 79 -143 150 -143 158 0 8 52 71 116 141 205 224 339 417 450 647 178 367
243 785 174 1125 -69 337 -195 492 -436 535 -111 20 -345 18 -469 -4z m471
-430 c50 -23 78 -65 100 -152 13 -52 16 -97 11 -244 -6 -202 -22 -313 -69
-460 -53 -166 -192 -422 -329 -603 -69 -92 -217 -258 -247 -278 -38 -25 -66
-10 -120 63 -97 132 -125 213 -143 416 -37 401 88 782 348 1058 113 119 201
178 308 205 70 17 94 16 141 -5z"/>
<path d="M10739 14735 c-15 -8 -45 -44 -67 -80 -23 -36 -47 -65 -54 -65 -7 0
-76 7 -153 15 -507 52 -1170 44 -1995 -25 -129 -10 -329 -26 -445 -35 -256
-19 -425 -38 -655 -72 -96 -14 -195 -26 -219 -27 l-44 -1 -18 79 c-35 157 -59
195 -131 203 -55 6 -110 -16 -135 -53 -25 -38 -23 -205 5 -459 19 -174 30
-294 48 -555 3 -52 14 -124 23 -160 13 -53 22 -68 50 -87 21 -14 49 -23 73
-23 124 0 156 97 143 440 -13 352 -15 323 20 331 17 4 125 12 240 18 116 5
343 20 505 32 162 13 307 20 321 16 15 -4 29 -16 32 -26 15 -57 -57 -1116
-133 -1956 -122 -1359 -148 -2037 -109 -2917 11 -265 9 -276 -68 -332 -78 -56
-102 -120 -69 -184 31 -61 80 -67 331 -39 88 9 277 21 420 27 309 12 457 29
487 56 45 41 61 121 33 174 -21 40 -105 79 -189 87 -87 8 -93 17 -107 164 -26
263 26 1381 106 2304 14 154 41 478 60 720 20 242 44 530 55 640 35 364 59
838 60 1167 0 84 4 149 10 153 12 8 807 30 965 27 192 -4 325 -19 348 -39 24
-22 19 -63 -24 -218 -67 -234 -49 -443 41 -490 16 -8 49 -15 74 -15 59 0 98
33 126 108 28 72 216 828 225 903 14 112 -43 209 -121 209 -22 -1 -51 -7 -65
-15z"/>
<path d="M19305 7960 c-154 -20 -324 -76 -351 -117 -42 -65 -24 -161 39 -198
28 -18 51 -20 197 -20 91 0 171 -4 178 -8 17 -12 15 -36 -12 -124 -71 -225
-280 -1485 -426 -2568 -116 -862 -149 -1077 -221 -1430 -124 -615 -235 -895
-354 -895 -117 0 -197 216 -280 751 -96 629 -155 1320 -185 2174 -5 160 -17
386 -26 503 -18 229 -16 247 29 277 13 8 63 22 111 30 141 22 183 63 174 167
-5 45 -11 57 -42 84 -20 17 -58 38 -84 45 -96 28 -725 8 -828 -27 -98 -33
-144 -89 -144 -176 0 -97 56 -148 173 -156 40 -2 80 -9 90 -14 27 -14 21 -69
-17 -161 -99 -240 -387 -1301 -551 -2032 -88 -394 -239 -1025 -245 -1025 -46
0 -77 641 -67 1400 8 568 21 883 68 1550 44 644 125 1510 145 1567 14 37 23
46 77 72 35 17 73 41 86 55 54 57 32 194 -37 223 -142 59 -1032 -17 -1210
-105 -141 -69 -162 -193 -43 -259 28 -16 52 -37 55 -48 3 -11 6 -186 6 -390 0
-415 13 -948 35 -1470 8 -192 22 -528 30 -745 26 -691 72 -1168 166 -1710 49
-286 114 -509 185 -638 44 -77 142 -201 194 -242 139 -110 282 -110 389 0 117
121 216 442 456 1485 99 429 399 1618 451 1788 14 46 21 -3 33 -235 35 -719
87 -1313 166 -1908 29 -215 36 -253 76 -414 129 -514 279 -733 522 -762 112
-13 238 40 352 148 121 114 211 312 300 660 79 309 138 616 195 1024 273 1932
311 2186 441 2895 33 184 67 383 74 443 15 126 18 130 103 140 124 14 171 40
203 110 22 49 24 127 4 165 -22 44 -69 78 -123 90 -135 29 -439 46 -557 31z"/>
<path d="M13913 7880 c-12 -5 -56 -32 -98 -61 -67 -46 -84 -52 -148 -59 -40
-5 -94 -16 -122 -25 -67 -23 -374 -177 -456 -230 -190 -123 -427 -420 -578
-726 -192 -387 -258 -805 -196 -1244 19 -134 41 -225 94 -375 75 -215 92 -372
71 -633 -11 -131 -11 -203 -2 -377 34 -614 120 -991 314 -1369 235 -458 520
-680 898 -698 364 -18 674 174 943 582 174 265 396 812 516 1275 52 200 82
349 131 645 116 712 117 1232 4 1855 -67 367 -175 651 -344 904 -193 289 -421
426 -772 465 -66 7 -89 15 -126 41 -49 34 -94 45 -129 30z m357 -437 c101 -27
169 -71 275 -178 164 -165 260 -325 341 -571 91 -276 123 -519 131 -989 6
-344 -4 -560 -38 -830 -23 -183 -73 -453 -86 -465 -15 -14 -333 -110 -433
-130 -209 -43 -481 -12 -759 85 -181 63 -404 186 -422 232 -12 33 -11 447 1
614 47 607 221 1312 422 1713 109 218 317 498 393 532 33 15 89 11 175 -13z
m-1380 -739 c-35 -100 -147 -470 -194 -643 -25 -90 -48 -167 -52 -170 -8 -8 4
121 22 239 25 167 82 347 155 492 43 85 81 150 85 145 2 -2 -5 -30 -16 -63z
m534 -2599 c108 -51 300 -113 430 -140 309 -66 645 -56 879 24 48 17 59 18 63
6 7 -16 -49 -223 -108 -398 -144 -434 -287 -708 -490 -937 -122 -138 -142
-141 -262 -29 -282 263 -481 709 -580 1297 -27 162 -31 212 -17 212 4 0 43
-16 85 -35z"/>
<path d="M11165 7599 c-188 -25 -366 -112 -554 -273 -229 -195 -531 -622 -717
-1011 -60 -126 -242 -576 -299 -740 -16 -44 -30 -82 -32 -84 -14 -19 -9 59 26
411 65 646 79 774 111 1013 l31 226 -25 52 c-31 66 -23 82 52 102 92 26 112
36 127 66 19 36 19 63 -1 100 -26 51 -62 59 -320 69 -480 18 -884 -28 -967
-111 -27 -28 -29 -34 -25 -86 6 -71 37 -103 99 -103 24 0 42 -5 45 -14 3 -7
-2 -64 -10 -127 -34 -245 -46 -441 -56 -859 -12 -514 -33 -1171 -60 -1870 -18
-467 -33 -896 -60 -1795 -13 -402 -9 -456 40 -517 35 -43 34 -43 -51 -53 -77
-8 -156 -47 -170 -82 -13 -35 -5 -90 16 -113 22 -24 123 -45 345 -72 148 -18
239 -22 455 -22 321 0 374 7 423 59 27 30 32 42 32 85 0 72 -34 107 -115 120
-106 17 -99 -27 -91 575 11 880 23 1060 92 1400 168 821 438 1670 699 2200
202 411 351 633 569 851 182 182 307 252 480 270 98 10 165 -14 236 -84 158
-159 220 -501 206 -1137 -10 -444 -31 -782 -76 -1222 -11 -105 -31 -350 -45
-545 -14 -194 -34 -470 -45 -613 -32 -410 -48 -702 -61 -1090 -10 -307 -14
-362 -28 -377 -13 -13 -51 -19 -196 -28 -99 -6 -195 -16 -213 -21 -37 -12 -62
-52 -64 -104 -2 -45 18 -66 93 -100 52 -23 85 -29 237 -41 97 -7 312 -19 477
-25 333 -12 372 -8 402 38 22 33 21 91 -1 125 -38 58 -154 113 -274 129 -63 8
-81 15 -100 36 -20 22 -23 34 -19 77 12 132 29 380 47 691 26 423 48 750 105
1495 24 322 51 695 60 830 8 135 17 259 20 275 2 17 9 165 15 330 18 516 -17
956 -94 1183 -52 153 -146 300 -238 373 -133 106 -350 162 -533 138z"/>
<path d="M20389 7157 c-125 -36 -184 -121 -218 -312 -32 -182 -71 -1450 -71
-2310 0 -569 27 -1222 61 -1477 12 -97 52 -234 77 -267 63 -85 227 -66 332 39
78 78 90 119 100 357 12 258 26 481 46 728 44 548 200 3034 192 3075 -15 84
-61 124 -174 151 -104 25 -284 33 -345 16z"/>
<path d="M20275 2586 c-85 -39 -141 -125 -152 -232 -11 -100 44 -193 136 -233
116 -49 236 -34 318 42 61 56 83 103 83 175 0 189 -215 328 -385 248z"/>
</g>
</svg>
