<?xml version="1.0" standalone="no"?>
<!DOCTYPE svg PUBLIC "-//W3C//DTD SVG 20010904//EN"
 "http://www.w3.org/TR/2001/REC-SVG-20010904/DTD/svg10.dtd">
<svg version="1.0" xmlns="http://www.w3.org/2000/svg"
 width="1063.000000pt" height="1063.000000pt" viewBox="0 0 1063.000000 1063.000000"
 preserveAspectRatio="xMidYMid meet">

<g transform="translate(0.000000,1063.000000) scale(0.100000,-0.100000)"
fill="#000000" stroke="none">
<path d="M4981 7674 c-68 -24 -110 -55 -178 -128 -188 -200 -307 -564 -307
-936 0 -186 16 -294 64 -442 55 -171 161 -322 280 -398 112 -72 263 -99 359
-65 41 14 43 14 83 -15 73 -53 168 -38 225 36 l28 37 1 231 c1 246 14 340 50
361 10 6 35 25 56 44 96 85 63 235 -60 272 -51 15 -131 4 -340 -46 -175 -42
-220 -76 -229 -172 -9 -91 48 -163 140 -178 l39 -7 -6 -40 c-8 -48 -62 -161
-88 -185 -18 -16 -21 -16 -53 2 -45 23 -105 102 -145 187 -92 196 -92 517 0
799 43 129 95 229 145 279 l44 43 36 -24 c19 -13 50 -46 68 -74 l32 -50 0
-160 c0 -173 3 -185 55 -229 74 -62 190 -50 233 23 42 72 55 308 23 431 -42
165 -157 320 -284 382 -56 28 -79 33 -147 36 -54 1 -94 -3 -124 -14z"/>
<path d="M9191 7674 c-68 -24 -110 -55 -178 -128 -188 -200 -307 -564 -307
-936 0 -186 16 -294 64 -442 55 -171 161 -322 280 -398 112 -72 263 -99 359
-65 41 14 43 14 83 -15 73 -53 168 -38 225 36 l28 37 1 231 c1 246 14 340 50
361 48 27 95 80 105 117 23 87 -15 163 -97 194 -40 15 -54 16 -130 4 -133 -19
-353 -75 -382 -97 -45 -34 -65 -69 -69 -125 -7 -90 48 -158 138 -173 l41 -7
-6 -40 c-8 -48 -62 -161 -88 -185 -18 -16 -21 -16 -53 2 -45 23 -105 102 -145
187 -92 196 -92 517 0 799 43 129 95 229 145 279 l44 43 36 -24 c19 -13 50
-46 68 -74 l32 -50 0 -160 c0 -173 3 -185 55 -229 74 -62 190 -50 233 23 42
72 55 308 23 431 -42 166 -164 328 -292 387 -74 34 -194 42 -263 17z"/>
<path d="M7040 7639 c-71 -22 -110 -65 -124 -138 -20 -105 85 -205 196 -187
116 19 179 98 157 197 -6 23 -19 54 -29 69 -36 51 -132 79 -200 59z"/>
<path d="M2362 7604 c-78 -39 -144 -119 -213 -259 -234 -478 -235 -1017 -4
-1366 59 -88 149 -170 232 -211 62 -30 75 -33 163 -33 83 0 101 3 145 27 157
82 272 265 325 514 30 144 38 394 16 542 -42 283 -152 535 -302 689 -89 91
-152 123 -245 123 -50 0 -77 -6 -117 -26z m165 -391 c77 -84 151 -307 174
-529 23 -222 -34 -494 -124 -591 -30 -33 -55 -28 -102 21 -168 175 -209 475
-114 836 17 63 42 144 56 180 47 118 65 131 110 83z"/>
<path d="M6122 7604 c-78 -39 -144 -119 -213 -259 -234 -478 -235 -1017 -4
-1366 59 -88 149 -170 232 -211 62 -30 75 -33 163 -33 83 0 101 3 145 27 157
82 272 265 325 514 30 144 38 394 16 542 -42 283 -152 535 -302 689 -89 91
-152 123 -245 123 -50 0 -77 -6 -117 -26z m165 -391 c77 -84 151 -307 174
-529 23 -222 -34 -494 -124 -591 -30 -33 -55 -28 -102 21 -168 175 -209 475
-114 836 17 63 42 144 56 180 47 118 65 131 110 83z"/>
<path d="M3775 7573 c-122 -6 -326 -26 -390 -38 -38 -8 -122 -23 -187 -34
-157 -26 -190 -45 -224 -126 -32 -78 6 -173 84 -207 36 -16 61 -19 136 -16
l91 3 6 -410 c10 -613 34 -817 106 -914 64 -84 201 -79 264 11 29 41 31 118 6
263 -22 134 -37 443 -37 811 l0 301 46 7 c26 3 105 6 177 6 l130 0 42 43 c50
49 64 98 46 158 -31 104 -126 149 -296 142z"/>
<path d="M778 7530 c-58 -31 -78 -68 -88 -162 -16 -154 -33 -1090 -23 -1316 8
-189 11 -215 30 -240 28 -37 91 -72 133 -72 51 0 116 34 139 71 25 41 29 88
37 423 l7 278 62 -129 c34 -71 93 -178 130 -238 185 -296 268 -368 406 -352
157 19 253 178 274 457 15 188 -39 714 -96 944 -26 102 -50 148 -96 183 -47
36 -136 40 -179 7 -79 -58 -91 -113 -59 -254 51 -222 82 -465 92 -719 5 -123
3 -162 -5 -157 -19 12 -136 214 -180 313 -51 113 -106 271 -177 508 -91 303
-154 425 -242 461 -46 20 -121 17 -165 -6z"/>
<path d="M7508 7530 c-58 -31 -78 -68 -88 -162 -16 -154 -33 -1090 -23 -1316
8 -189 11 -215 30 -240 28 -37 91 -72 133 -72 51 0 116 34 139 71 25 41 29 88
37 423 l7 278 62 -128 c104 -216 253 -445 345 -527 58 -52 118 -72 191 -64
157 19 253 178 274 457 15 188 -39 714 -96 944 -26 102 -50 148 -96 183 -47
36 -136 40 -179 7 -74 -55 -91 -118 -63 -237 50 -209 86 -482 96 -736 5 -123
3 -162 -5 -157 -20 12 -136 214 -182 316 -50 111 -99 254 -175 505 -91 304
-154 425 -242 461 -46 20 -121 17 -165 -6z"/>
<path d="M7047 7146 c-107 -39 -120 -87 -138 -502 -13 -291 -1 -641 24 -726
20 -64 51 -105 100 -129 103 -53 229 27 229 145 0 22 -6 100 -12 171 -9 93
-10 200 -4 375 5 135 9 322 9 417 l0 172 -35 36 c-31 32 -82 55 -120 55 -8 -1
-32 -7 -53 -14z"/>
<path d="M2465 5456 c-17 -7 -44 -29 -62 -49 -30 -34 -31 -40 -37 -149 -3 -62
-10 -292 -16 -510 -11 -408 -22 -617 -41 -748 -12 -82 -32 -140 -48 -140 -29
0 -117 229 -149 385 -47 228 -55 643 -16 820 10 50 15 94 10 116 -23 122 -162
185 -261 118 -73 -50 -96 -136 -116 -430 -40 -605 138 -1212 395 -1347 69 -36
196 -39 268 -5 119 54 210 211 252 432 44 232 77 1333 42 1414 -37 87 -138
129 -221 93z"/>
<path d="M9418 5450 c-46 -25 -70 -74 -167 -345 -91 -253 -171 -453 -192 -478
-9 -12 -21 -17 -28 -13 -29 18 -191 385 -253 574 -22 68 -41 107 -63 129 -106
107 -284 18 -261 -130 8 -47 63 -190 173 -449 87 -208 165 -334 244 -397 48
-38 127 -71 171 -71 10 0 18 -6 18 -12 0 -7 -21 -103 -46 -213 -33 -146 -47
-231 -51 -316 -6 -128 2 -170 44 -220 74 -87 206 -77 255 21 14 28 16 50 12
120 -5 64 -1 114 15 205 42 232 170 746 302 1209 34 119 59 228 59 255 0 119
-123 188 -232 131z"/>
<path d="M9866 5447 c-26 -14 -48 -38 -63 -68 -23 -45 -24 -54 -35 -475 -11
-458 -7 -655 15 -745 31 -129 81 -179 177 -179 63 0 106 22 144 73 25 33 26
91 8 257 -9 80 -10 203 -1 518 12 439 9 520 -22 570 -43 72 -144 94 -223 49z"/>
<path d="M8054 5411 c-82 -37 -89 -53 -264 -585 -89 -270 -209 -623 -266 -784
-126 -356 -140 -404 -125 -458 20 -73 109 -132 180 -119 41 8 93 44 118 82 10
14 43 94 74 177 55 148 57 151 90 158 94 19 255 37 344 39 l100 2 17 -34 c10
-19 35 -74 55 -123 65 -153 152 -225 259 -213 82 9 144 76 144 156 0 44 -14
75 -64 145 -77 108 -203 526 -316 1051 -84 387 -115 466 -205 506 -51 23 -89
23 -141 0z m101 -950 c25 -101 43 -186 40 -189 -17 -17 -235 -29 -235 -13 0
13 120 362 133 386 6 11 12 15 14 10 1 -6 23 -93 48 -194z"/>
<path d="M952 5384 c-78 -39 -144 -119 -213 -259 -234 -478 -235 -1017 -4
-1366 59 -88 149 -170 232 -211 62 -30 75 -33 163 -33 83 0 101 3 145 27 157
82 272 265 325 514 30 144 38 394 16 542 -42 283 -152 535 -302 689 -89 91
-152 123 -245 123 -50 0 -77 -6 -117 -26z m165 -391 c77 -84 151 -307 174
-529 23 -222 -34 -494 -124 -591 -30 -33 -55 -28 -102 21 -168 175 -209 475
-114 836 17 63 42 144 56 180 47 118 65 131 110 83z"/>
<path d="M5732 5384 c-78 -39 -144 -119 -213 -259 -234 -478 -235 -1017 -4
-1366 59 -88 149 -170 232 -211 62 -30 75 -33 163 -33 83 0 101 3 145 27 157
82 272 265 325 514 30 144 38 394 16 542 -42 283 -152 535 -302 689 -89 91
-152 123 -245 123 -50 0 -77 -6 -117 -26z m165 -391 c77 -84 151 -307 174
-529 23 -222 -34 -494 -124 -591 -30 -33 -55 -28 -102 21 -168 175 -209 475
-114 836 17 63 42 144 56 180 47 118 65 131 110 83z"/>
<path d="M6660 5389 c-25 -11 -82 -33 -127 -48 -97 -33 -122 -49 -159 -97 -35
-46 -45 -134 -20 -182 23 -45 78 -82 131 -90 25 -4 46 -10 47 -15 0 -4 -5
-112 -12 -240 -15 -267 -9 -607 14 -767 36 -250 109 -405 219 -462 40 -20 97
-26 138 -13 112 35 366 305 497 528 104 176 147 334 146 542 -1 173 -23 275
-93 420 -121 251 -292 383 -539 414 -43 5 -90 15 -106 20 -41 16 -86 13 -136
-10z m326 -385 c24 -14 57 -42 75 -62 45 -51 106 -184 125 -272 33 -156 0
-351 -84 -489 -43 -71 -202 -281 -213 -281 -13 0 -18 45 -30 260 -11 217 -7
489 11 715 14 165 15 168 47 160 15 -3 46 -18 69 -31z"/>
<path d="M3595 5353 c-109 -4 -309 -24 -380 -38 -38 -8 -122 -23 -187 -34
-157 -26 -190 -45 -224 -126 -32 -78 6 -173 84 -208 40 -17 58 -19 139 -13
l93 7 0 -293 c0 -477 25 -832 65 -953 33 -96 90 -145 170 -145 47 0 108 32
136 72 29 41 31 118 6 263 -22 134 -37 443 -37 811 l0 301 46 7 c26 3 105 6
177 6 l130 0 42 43 c50 49 64 98 46 158 -32 106 -123 149 -306 142z"/>
<path d="M5105 5353 c-109 -4 -309 -24 -380 -38 -38 -8 -122 -23 -187 -34
-157 -26 -190 -45 -224 -126 -32 -78 6 -173 84 -208 40 -17 58 -19 139 -13
l93 7 0 -293 c0 -477 25 -832 65 -953 33 -96 90 -145 170 -145 47 0 108 32
136 72 29 41 31 118 6 263 -22 134 -37 443 -37 811 l0 301 46 7 c26 3 105 6
177 6 l130 0 42 43 c50 49 64 98 46 158 -32 106 -123 149 -306 142z"/>
<path d="M9855 3842 c-119 -75 -135 -219 -36 -325 80 -87 213 -79 286 17 71
93 46 225 -56 293 -55 36 -149 44 -194 15z"/>
</g>
</svg>
