<svg xmlns="http://www.w3.org/2000/svg" viewBox="0 0 3648.52 5074.51" width="500" height="500"><path style="fill-rule:evenodd;" d="M3548.68,5036c-54.43,21.1-54.78,24-113.6,24H2872.66v31.74h564.1c55.12,0,60-.92,111.92,16.52-54.43,21.08-54.78,19.69-113.6,19.69l-562.42,8.53h-71.42c-41.63,0-66.66-38.54-86.7-71.33-61.44-100.58-1313.41,103.67-1594.54,59.32-244.28-38.5-243.6-211,0-249.39,281.13-44.33,1533.09,159.94,1594.54,59.33,20-32.77,45.08-71.33,86.7-71.33h71.42l564.1,8.53c55.12,0,60-.92,111.92,16.5-54.43,21.08-54.78,19.71-113.6,19.71H2872.66v31.76h564.1c55.12,0,60,3.32,111.92,20.77-54.43,21.08-54.78,24-113.6,24H2872.66v31h564.1C3491.88,5015.29,3496.76,5018.62,3548.68,5036Z" transform="translate(-418.6 -61.99)"/><path d="M834.18,699.74q-5.35,0-16-2.29a66.45,66.45,0,0,1-22.52-8.78q-47.71-30.52-73.28-129.38-20.24-76.71-20.23-169.08,0-52.66,6.87-88.92a269.28,269.28,0,0,1,23.67-72.52q35.49-68.69,99.61-68.69,27.86,0,55,12.59,52.28,29,63,101.52a104.58,104.58,0,0,1,.76,13q0,22.14-8.78,50.76-3.43,12.21-6.1,16.41-6.5,10.68-29,10.68-26.33,0-26.33-12.21,0-3.81,4.58-21.75a190.55,190.55,0,0,0,4.2-38.55q0-50.76-29.77-89.69-5.36-6.09-7.64-6.1-10.3,0-27.48,19.84-42,49.62-46.18,154.57l-.38,19.08a623.23,623.23,0,0,0,8,98.09q9.15,60.3,25.76,106.67t36.45,61.26l6.87,5q42.36-39.69,93.5-182.43H912q-30.91,0-41.6-2.48t-10.68-8.59c0-2,1-4.07,3-6.11A23.51,23.51,0,0,1,876.92,454q11.82-1.51,61.07-3.05,28.23-1.15,48.47-1.15,31.29,0,31.29,11.07,0,3.44-3.82,7.25-6.1,7.26-23.28,54.2Q962,598.61,936.84,636.76q-33.58,53.06-83.2,60.3a4.19,4.19,0,0,0-1.91.39Q837.62,699.73,834.18,699.74Z" transform="translate(-418.6 -61.99)"/><path d="M1094.46,718.44q-16,0-22.13-8.4a104.26,104.26,0,0,1-6.11-9.54q-8.78-16-15.84-66.6t-16.22-170.41q-5-69.84-5-137.39,0-104.58,10.31-162.59,7.24-36.63,14.5-40.07,14.12-6.5,44.65-6.49,21.38,0,49.24,6.11,56.1,12.58,104.19,52.28,32.82,27.1,51.14,57.25,24.42,43.14,26,72.71t1.53,36.06q0,44.65-17.18,81.68-37.79,70.6-117.55,126.32-15.27,10.7-15.26,11.83t15.26,3.06q22.14,2.28,55.73,7.25,40.83,5.73,49.61,11.07,20.61,12.21,20.61,25.19,0,9.15-9.54,9.16-12.23,0-129.38-15.27-39.32-6.1-45.8-6.11c-.51,0-.76.77-.76,2.29a191.88,191.88,0,0,0,1.9,21.76q1.9,30.92,1.91,80.53l-8,6.49Q1116.59,718.43,1094.46,718.44Zm36.26-196.94q2.29,0,30.53-20.61a356,356,0,0,0,74.43-74.42q19.83-26,28.24-45.42,13-30.14,13-73.27,0-37.78-13.73-68.7-26.34-57.26-96.56-74.81-20.61-5-47.71-5-3.44,29-3.43,68.32,0,106.49,9.15,227.85,4.59,60.67,4.58,63.35T1130.72,521.5Z" transform="translate(-418.6 -61.99)"/><path d="M1549.78,713.86a60.22,60.22,0,0,1-28.63-6.87q-8.78-4.59-8.77-9.16,0-6.5,8-42.75l1.53-7.25-24.43-6.49q-74.41-18.32-113-57.25-25.18-24-25.19-50.37,3.43-50.76,41.22-70.23,15.65-7.62,38.93-7.63,55.33,0,94.65,37.4l13.36,13q18.69-107.62,18.7-180.53,0-35.1-5-57.62-7.65-36.25-20.23-51.53l-6.11-7.25-13.35,6.87q-49.62,27.48-85.5,107.24-19.85,46.18-22.89,72.52-1.15,11.83-4.39,14.31t-12,2.48a69.74,69.74,0,0,1-13.35-1.52q-12.6-3.06-19.47-8.4-8.78-6.87-8.78-22.52,0-18.69,13.36-59.16,37.79-107.62,99.61-141.59a68.18,68.18,0,0,1,16.8-6.49q10.3-2.28,29.38-2.29,13.37,0,29,5.35,45,14.88,67.55,51.52,17.17,25.19,22.71,51.71t5.53,63.17a765.25,765.25,0,0,1-5.72,95q-5,37.79-19.08,112.21-11.83,66-11.83,70.22c0,.26.06.38.19.38s1.46.45,4,1.34,5.6,1.85,9.16,2.86q23.28,7.63,23.28,17.94,0,11.07-28.62,13.36L1593.29,657q-8.79,35.12-12.22,42.75-5.71,12.21-21.75,13.35Zm-30.15-102.29c1.52-.76,2.29-2.79,2.29-6.1a40,40,0,0,0-.77-6.87,220.62,220.62,0,0,0-14.31-55.53q-10.5-25.77-24.23-39.89-9.93-9.92-13.74-9.92-10.69,0-22.52,11.83-14.88,15.27-14.89,38.93,0,38.55,67.56,62.21,14.88,5.35,19.46,5.34Z" transform="translate(-418.6 -61.99)"/><path d="M1976.85,708.51a103.19,103.19,0,0,1-19.47-1.9q-17.18-2.68-28.43-8.78t-22.33-17.94q-16-16.41-19.27-32.44a152.59,152.59,0,0,1-3.24-30.15q0-48.46,41.6-194.26,24-94.28,27.09-119.08,1.53-15.25,1.53-29.39,0-30.52-4-52.28t-10.11-29q-3.82,0-22.52,17.18-27.86,26.32-58,85.49-70.61,127.86-74,256.47l-3.05,44.65q-1.53,13.74-28.63,17.56a80.84,80.84,0,0,1-10.68.76q-19.1,0-29-11.45-14.13-14.12-27.86-113.35-8.79-59.91-8.78-177.09,0-81.66,6.3-86.63t17.75-5q19.46,0,36.63,12.22a23.17,23.17,0,0,1,7.64,8.78q4.58,9.54,9.92,82,4.2,47.71,5.34,47.71c.25,0,.51-.38.77-1.15q2.65-11.82,14.88-40.45,28.62-66.4,55.34-106.48,45.42-68.33,93.89-68.32a80.47,80.47,0,0,1,24,3.82q29.38,8,46.18,25.19,27.48,32.82,27.48,109.91,0,44.28-21,125.57-46.18,171.74-46.18,209.91a91.78,91.78,0,0,0,2.67,20.61q3.81,18.71,8.78,18.7,2.67,0,13.74-5.35,10.31-7.62,26-26.14A244.85,244.85,0,0,0,2036,596.69q48.09-114.12,55.34-140.45,2.67-9.54,7.07-12.59t13.93-3.06c2.29,0,6.73,1.4,13.35,4.2q11.46,5,11.45,11.45,0,6.87-6.49,27.48Q2115,536.39,2079.89,621.5,2039.82,708.52,1976.85,708.51Z" transform="translate(-418.6 -61.99)"/><path d="M2179.13,705.84q-45,0-52.29-31.29a4.22,4.22,0,0,1-.38-1.91q-18.33-82.44-32.06-245.79-6.49-81.28-6.49-185.86,0-30.15,1.53-38.93,1.14-10.68,9.35-15.46T2129.7,178A291.77,291.77,0,0,1,2178,174.2q27.48,0,45.42,2.29,151.89,23.67,184.34,174,1.91,11.07,1.9,28.63,0,38.55-5.72,65.26-16.41,72.51-63.36,144.65-15.64,22.89-42.74,49.61T2247.44,681q-36.26,24.42-61.45,24.43Zm21-59.92q3.43,0,22.51-18.32,21.76-20.61,42.75-51.52,43.13-62.21,59.54-125.18,12.59-44.28,12.59-82.44,0-51.52-22.52-92.36-32.05-64.13-95.79-67.17l-20.61-.38q-28.24,0-30.91,3.81a92,92,0,0,0-.39,10.69q0,47.32,12.22,211.82,6.09,81.67,12.21,136.63,8,70.23,8,74C2199.73,645.8,2199.86,645.92,2200.12,645.92Z" transform="translate(-418.6 -61.99)"/><path d="M2876.41,718.05q-46.57,0-65.65-66.78-7.64-26.34-7.63-66.79,1.51-85.11,21.75-186.63,28.24-142.74,28.25-192.74,0-10.31-3.06-27.86l-8,7.63q-26.34,25.58-55.72,84-18,35.49-28.25,63.54t-17.93,67.75q-7.65,39.69-17.94,110.68-8.79,61.45-10.69,67.17-1.91,8.4-23.28,8.39-37,0-40.07-30.15-1.53-15.65-3.06-73.66-1.53-48.07-4.39-77.85t-12.4-82.44l-5.72,8.4q-11.84,18.31-28.25,66.4a1108.48,1108.48,0,0,0-40.07,153.81q-16.41,82.07-16.41,95.8,0,8-10.3,14.88a62.6,62.6,0,0,1-35.5,10.69,48.48,48.48,0,0,1-13.74-1.91q-8.4-1.9-13.36-13.17t-8.77-39.31q-3.83-28.05-8.4-80.72-9.54-109.92-9.54-198.08,0-71,6.1-127.47,3.81-37.4,8-45.42,6.48-12.21,27.1-12.21,24,0,36.64,13l6.1,7.25q-1.53,130.91-1.53,151.51,0,66.42,1.91,103.05l6.49-21q19.08-62.59,35.88-92,19.83-34.35,48.47-37.4a100.07,100.07,0,0,1,17.93,1.53q42.38,6.87,54.58,41.6,5.73,14.5,7.25,14.5c.51,0,.77-.89.77-2.67q0-4.2,10.3-29.39t23.66-52.29q20.23-42,43.13-71.94t41.22-38.35a62,62,0,0,1,22.9-4.2,88,88,0,0,1,57.63,20.8q25.18,20.81,25.95,48.85t.76,31.87q0,53.06-19.84,157.24-22.91,120.6-24.43,193.5,0,59.53,16.41,88.92,2.67,5,9.54,5a34.2,34.2,0,0,0,11.07-2.29h1.91q6.48,0,6.49,9.55a50.45,50.45,0,0,1-.76,8q-2.3,9.92-22.52,16.41A68.5,68.5,0,0,1,2876.41,718.05Z" transform="translate(-418.6 -61.99)"/><path d="M3140.51,713.86a60.2,60.2,0,0,1-28.62-6.87q-8.79-4.59-8.78-9.16,0-6.5,8-42.75l1.53-7.25-24.42-6.49q-74.43-18.32-113-57.25-25.2-24-25.19-50.37,3.43-50.76,41.22-70.23,15.64-7.62,38.92-7.63,55.34,0,94.65,37.4l13.36,13q18.71-107.62,18.7-180.53,0-35.1-5-57.62-7.64-36.25-20.23-51.53l-6.1-7.25-13.36,6.87q-49.62,27.48-85.49,107.24-19.84,46.18-22.9,72.52-1.14,11.83-4.39,14.31t-12,2.48a69.83,69.83,0,0,1-13.36-1.52q-12.6-3.06-19.46-8.4-8.78-6.87-8.78-22.52,0-18.69,13.36-59.16,37.79-107.62,99.61-141.59a68,68,0,0,1,16.79-6.49q10.3-2.28,29.39-2.29,13.35,0,29,5.35,45,14.88,67.56,51.52,17.18,25.19,22.7,51.71t5.54,63.17a765.22,765.22,0,0,1-5.73,95q-5,37.79-19.08,112.21-11.84,66-11.83,70.22c0,.26.06.38.19.38s1.46.45,4,1.34,5.59,1.85,9.16,2.86q23.27,7.63,23.28,17.94,0,11.07-28.63,13.36L3184,657q-8.79,35.12-12.21,42.75-5.73,12.21-21.76,13.35Zm-30.15-102.29q2.29-1.14,2.29-6.1a40.9,40.9,0,0,0-.76-6.87,221.47,221.47,0,0,0-14.31-55.53q-10.51-25.77-24.24-39.89-9.93-9.92-13.74-9.92-10.7,0-22.52,11.83Q3022.2,520.36,3022.2,544q0,38.55,67.55,62.21,14.89,5.35,19.47,5.34Z" transform="translate(-418.6 -61.99)"/><path d="M3313.4,176.11q-24,0-29.39-6.49l-5.34-5.35,5.73-16.79a95,95,0,0,0,6.1-34.73c0-7.88-.38-13.36-1.14-16.41A24.41,24.41,0,0,0,3284,86.8q-6.11-6.87-6.1-12.21,0-7.25,13-10.69A54,54,0,0,1,3305.39,62q19.08,0,30.15,9.92,16,15.66,16,40.84,0,18.7-8.78,42.75-4.2,13-11.83,17.17Q3324.84,176.11,3313.4,176.11Z" transform="translate(-418.6 -61.99)"/><path d="M3555.75,729.89a172.27,172.27,0,0,1-27.48-2.29q-61.07-10.7-79.76-49.24-6.12-11.07-6.11-28.62V639.05q0-37.39,39.69-88.16,23.28-30.15,57.63-58.77Q3427.9,385.26,3411.87,363.88q-31.68-40.83-31.68-82.82,0-25.56,8.78-43.89,7.64-16,24.81-33.2,38.53-38.16,87.39-38.17a140.34,140.34,0,0,1,34.73,4.58q34.35,8.4,54.2,27.1,32.05,28.25,36.64,73.28.77,6.87.76,9.92c0,3.05-1.91,4.9-5.72,5.53s-7.64,1.47-11.45,2.48q-7.26,0-19.47-5-15.27-5.34-20.61-19.46-11.84-33.58-25.95-47.71-11.07-11.06-16.41-11.07-11.83,0-31.3,16T3468,255.68a81.58,81.58,0,0,0-9.16,37.21q0,40.46,41.22,84.73,18.69,20.24,82,84.35l24.05-13.36q21-11.83,60.68-29.39,79-34.35,98.47-34.35,16.78.39,18.32,22.14a10.85,10.85,0,0,1-1.91,6.48q0,2.68-4.77,6.88t-27.67,13.73q-63,24-107.63,52.67L3621,500.89q0,1.53,12.22,17.94,49.61,68.32,49.61,116.79a80.22,80.22,0,0,1-6.49,32.44q-17.55,32.82-53.62,47.32T3555.75,729.89Zm-27.1-37q5.73,0,17.18-3.44,45.4-11.83,59.92-44.27,3-7.24,3.05-18.32a97.52,97.52,0,0,0-4.58-30.91q-12.22-36.64-29.39-56.87l-14.5,15.65q-42,47.32-50.38,91.59-.37,3.83-.38,8a81.54,81.54,0,0,0,1.53,15.27Q3516.81,692.86,3528.65,692.87Z" transform="translate(-418.6 -61.99)"/><path d="M934.16,3881.39c-89.33,2.6-156.17,37-217.3,89.62-34.88,30-76.69,53.29-118.28,73.7-27,13.26-58.94,19-89.3,22.41-29.92,3.36-58.24-9-70.62-37.92-12.7-29.63-11.53-62.54,10.5-88.08,18.33-21.25,39.28-43,63.66-55.84,131.19-69,267.62-72.11,406.42-24.78C923,3861.78,925,3868.25,934.16,3881.39Z" transform="translate(-418.6 -61.99)"/><path d="M1018.59,3726.66c-12.78-7.52-20.81-11.59-28.15-16.68-31.21-21.63-65.52-31.77-103.6-30.51-20.14.67-40.6,1.13-60.47-1.61s-39.36-8.23-58.15-15c-21.76-7.8-29.61-26.34-29-48.26.63-23.7,14.43-42.06,37.79-48.25,42.77-11.35,84.62-5.28,122.73,15.57,52.67,28.82,93.9,69.92,118.72,125.69C1019.73,3710.58,1018.59,3714.61,1018.59,3726.66Z" transform="translate(-418.6 -61.99)"/><path d="M946.4,4068.18c-44.37,64.47-75.84,114.14-111.73,160.4-14.17,18.26-36.61,32.29-58.08,42.14-25.69,11.79-60.1-11.55-60.59-40.4-.34-20.19,1.25-44,11.47-60.16C773.78,4096.81,841.31,4062.93,946.4,4068.18Z" transform="translate(-418.6 -61.99)"/><path d="M3551.56,3881.39c89.34,2.6,156.17,37,217.3,89.62,34.88,30,76.69,53.29,118.29,73.7,27,13.26,58.93,19,89.29,22.41,29.92,3.36,58.24-9,70.62-37.92,12.7-29.63,11.53-62.54-10.49-88.08-18.34-21.25-39.29-43-63.67-55.84-131.19-69-267.62-72.11-406.42-24.78C3562.71,3861.78,3560.72,3868.25,3551.56,3881.39Z" transform="translate(-418.6 -61.99)"/><path d="M3467.13,3726.66c12.78-7.52,20.81-11.59,28.15-16.68,31.21-21.63,65.52-31.77,103.6-30.51,20.14.67,40.6,1.13,60.47-1.61s39.36-8.23,58.15-15c21.76-7.8,29.61-26.34,29-48.26-.62-23.7-14.43-42.06-37.79-48.25C3666,3555,3624.13,3561.11,3586,3582c-52.67,28.82-93.9,69.92-118.72,125.69C3466,3710.58,3467.13,3714.61,3467.13,3726.66Z" transform="translate(-418.6 -61.99)"/><path d="M3539.32,4068.18c44.37,64.47,75.85,114.14,111.73,160.4,14.17,18.26,36.61,32.29,58.08,42.14,25.69,11.79,60.1-11.55,60.59-40.4.35-20.19-1.25-44-11.47-60.16C3711.94,4096.81,3644.41,4062.93,3539.32,4068.18Z" transform="translate(-418.6 -61.99)"/><path d="M1386.39,4288.31a98.54,98.54,0,0,1-20.5-2.12q-32.62-6.84-49.44-26.29-10-14.19-27.35-56.27-9.46-22.6-9.46-31.54c0-3.86,2.26-7.18,6.82-10a30.6,30.6,0,0,1,16.31-4.21q33.12,0,46.29,9.48,10.5,8.4,19.45,31,10.52,26.82,13.67,26.81,4.2,0,21.56-29.44,25.77-44.17,25.77-91.51,0-27.85-7.89-31.54a28.79,28.79,0,0,0-10-1.58q-13.16,0-55.23,7.89-61,10.51-92.55,10.52a171.94,171.94,0,0,1-39.44-4.21q-72-13.67-98.08-56t-26-106a385.11,385.11,0,0,1,2.1-39.45q10-118.83,62-223,70.47-138.82,170.92-167.76a132,132,0,0,1,33.12-4.21q46.27,0,95.19,34.19,23.13,16.3,37.33,33.66,51.54,63.11,51.54,153,0,84.17-42.6,84.14-31-.52-46.27-14.73c-4.23-3.49-6.32-6.83-6.32-10,0-1.39,1.39-5.06,4.21-11q6.84-21,6.84-69.93a242,242,0,0,0-2.63-37.86q-3.67-18.93-12.62-43.12-17.37-45.22-28.92-45.23-11.05,0-35.24,14.73-122,75.72-163.54,274.49-9,41-8.94,95.72,0,48.38,2.09,57.31a101.31,101.31,0,0,0,11.06,25.77q3.68,5.27,15.77,5.25,12.61,0,56.79-6.31,59.41-8.4,84.66-8.4a219,219,0,0,1,36.81,3.15q80.46,14.21,96.24,62.58a143.85,143.85,0,0,1,3.69,32.6q0,36.28-17.89,75.73-26.82,57.84-74.67,84.66Q1412.66,4288.3,1386.39,4288.31Z" transform="translate(-418.6 -61.99)"/><path d="M1972.64,4325.64q-22.1,0-51.52-8.41-18.94-5.28-31.56-11.58-76.79-43.63-100.45-155.12l-3.67-20.52q-34.2,49.45-63.64,58.91a99.4,99.4,0,0,1-21.56,2.09q-124.11,0-124.1-179.83,0-48.37,5.79-80.47a524.19,524.19,0,0,1,26.54-88.35q16.56-41,34.46-61,16.29-18.41,27.33-21t17.37-2.64q13.14,0,30.5,6.31,36.28,13.17,36.29,31,0,6.85-6.33,12.64-12.63,13.13-29.44,56a607.25,607.25,0,0,0-27.35,90.18q-5.79,26.82-5.77,89.93,0,70,6.31,69.94t18.92-20q36.79-56.28,79.41-173,10-27.33,17.6-33.37t21.31-6.05a90.63,90.63,0,0,1,18.4,2.09q26.83,5.79,44.18,22.08,6.84,6.86,6.84,36.83l-.53,19.44q-3.18,68.39-3.16,87.83,0,85.19,16.31,139.36,5.79,18.42,17.89,41.54,19.42,37.35,29.44,37.33,13.66,0,50.48-36.81,47.85-46.78,73.62-127.78a395.9,395.9,0,0,0,22.62-131.47l-.54-21q-1.59-105.17-56.79-211.39-16.3-33.65-16.29-39.45,0-12.6,25.77-14.73,18.93-1.56,135.66-1.57,85.18,0,129.89,1,50.49,2.12,50.49,37.35,0,12.63-5.79,18.4-4.2,4.21-51.53,4.2-34.73,0-74.42-.79t-71.77-.79q-32.1,0-32.08,1.58,0,2.11,11,26.83,20,43.13,34.71,115.68,7.35,40,7.36,90.46t-7.88,88.87q-30,141.46-104.12,211.4Q2028.39,4325.63,1972.64,4325.64Z" transform="translate(-418.6 -61.99)"/><path d="M2384.28,4304.08q-22.62,0-35.77-5.25-45.23-19.48-70.46-159.88a903.15,903.15,0,0,1-14.2-157.23q0-119.89,34.18-230.86,27.88-84.66,70.46-119.89,25.25-21,54.7-21,83.07,0,119.91,83.62,48.36,106.75,48.36,184.58,0,99.4-90.44,143-21,10-55,20.25t-56.52,14.46c-6,.71-9.65,1.75-11,3.16s-2.1,4.56-2.1,9.46q0,13.16,12.08,79.41,10,55.74,12.64,55.73,4.17,0,22.08-84.14l14.19-6.83a69.4,69.4,0,0,1,29.46-6.84q34.68,0,34.7,19.46,0,10.52-5.77,47.33-9,56.8-22.62,84.14-22.09,45.22-69.42,46.81Zm-11-292.9q34.68-10.53,49.43-16.31,45.75-16.82,69.41-59.43,10.52-22.59,10.51-59.94,0-79.93-41-168.28-11-23.66-14.19-23.67-5.79,0-21,29.46-28.93,55.74-43.64,147.76-9.47,61.53-9.46,113.06Z" transform="translate(-418.6 -61.99)"/><path d="M2751.8,4304.08q-22.64,0-35.77-5.25-45.22-19.48-70.47-159.88a904.09,904.09,0,0,1-14.19-157.23q0-119.89,34.17-230.86Q2693.43,3666.2,2736,3631q25.24-21,54.69-21,83.07,0,119.91,83.62Q2959,3800.3,2959,3878.13q0,99.4-90.45,143-21,10-55,20.25t-56.52,14.46c-6,.71-9.65,1.75-11,3.16s-2.1,4.56-2.1,9.46q0,13.16,12.08,79.41,10,55.74,12.63,55.73,4.18,0,22.08-84.14l14.2-6.83a69.36,69.36,0,0,1,29.46-6.84q34.68,0,34.69,19.46,0,10.52-5.77,47.33-9,56.8-22.61,84.14-22.11,45.22-69.43,46.81Zm-11-292.9q34.66-10.53,49.42-16.31,45.75-16.82,69.41-59.43,10.51-22.59,10.52-59.94,0-79.93-41-168.28-11.06-23.66-14.19-23.67-5.79,0-21,29.46-29,55.74-43.64,147.76-9.46,61.53-9.46,113.06Z" transform="translate(-418.6 -61.99)"/><path d="M3167.7,4345.62q-47.34,0-82-35.75-31.56-31-46.79-91.51-23.16-98.85-23.68-296.59,0-169.84,16.31-265-45.75,6.84-56.79,6.82-30.51,0-30.5-21,0-11.58,10-18.94,8.4-5.79,45-12.1t39.43-10.5q2.9-4.2,5.54-30,4.73-40,42.59-40a98.29,98.29,0,0,1,16.83,1.57q20,2.63,27.33,10.25t9.48,27.62l2.64,21q72-7.87,81-7.88,31.53,0,31.54,16.3,0,26.83-69.94,34.7l-46.27,5.79q-16.85,140.43-16.83,351.28,0,83.1,8.42,143.57,13.14,115.7,49.43,148.3a24.1,24.1,0,0,0,12.09,3.67q7.35,0,13.68-5.79,30.49-35.73,96.23-207.72,13.14-38.38,21.54-56.26t17.91-22.61c3.15-1.39,8.22-2.1,15.23-2.1q28.38,7.91,28.4,25.23,0,8.45-29.44,98.34-67.32,194.06-126.22,215.6-6.31,2.63-20,5.79Q3175.59,4345.6,3167.7,4345.62Z" transform="translate(-418.6 -61.99)"/><path d="M668.14,1228.39,937.05,1639q6.06,14.55,6.07,21.8a39.57,39.57,0,0,1-10.31,27.27q-10.29,11.49-27.25,10.29H803.81q-21.81,0-33.92-23L567.59,1358v311.31q0,10.9-8.48,20a27.1,27.1,0,0,1-20.6,9.09H450.08a30.38,30.38,0,0,1-22.41-9.09q-9.07-9.07-9.07-20V882q0-12.12,9.07-21.8a29.46,29.46,0,0,1,22.41-9.7h88.43q12.12,0,20.6,9.7a32.3,32.3,0,0,1,8.48,21.8v222.88l150.2-231.36a78.2,78.2,0,0,1,17.56-17q10.29-7.28,20-6.07l89.65-1.2q16.95,1.2,28.46,12.1T885,886.8q0,12.12-4.85,17Z" transform="translate(-418.6 -61.99)"/><path d="M1176.29,1688.72q-9.11,9.69-21.19,9.68h-89.65a29.47,29.47,0,0,1-22.41-9.68,32.5,32.5,0,0,1-9.09-23V882a32.48,32.48,0,0,1,9.09-23,29.48,29.48,0,0,1,22.41-9.69h89.65q12.09,0,21.19,9.69a32.56,32.56,0,0,1,9.08,23v783.74A32.57,32.57,0,0,1,1176.29,1688.72Z" transform="translate(-418.6 -61.99)"/><path d="M1530.6,846.82h134.46q14.52,0,24.82,8.48t10.3,20.6v81.15q0,12.12-10.3,20.6t-24.82,8.48h-103v677.14a32.53,32.53,0,0,1-9.08,23,29.46,29.46,0,0,1-22.4,9.68H1441q-12.12,0-21.8-9.68a31.45,31.45,0,0,1-9.7-23V986.13h-98.1q-15.76,0-25.45-7.87t-9.68-21.21V875.9q0-13.3,9.68-21.19t25.45-7.89H1530.6Z" transform="translate(-418.6 -61.99)"/><path d="M2142.33,1424.64h82.35a33.85,33.85,0,0,1,24.84,10.29q10.29,10.29,10.31,26v6q0,64.21-29.69,118.72t-80.56,86a210,210,0,0,1-113.86,32.7H1997q-61.8,0-113.26-32.09t-80.55-86.62q-30.27-53.28-30.28-118.72V1066.08q0-63,29.67-115.69a227.23,227.23,0,0,1,81.77-84.19q49.67-30.29,111.45-30.28h38.75q61.77,0,113.27,30.28t81.76,83.58q29.07,52.1,29.08,116.3v1.2q1.2,14.55-9.7,26.06t-24.23,11.49h-82.35q-14.55,0-25.45-11.49t-10.9-26.06v-3.63q0-41.19-26-67.23t-66-26h-4.85q-37.54,0-66,27.87t-27.26,66.61V1461q0,40,28.46,69.66t64.81,29.67h4.85q38.74,0,65.41-29.06T2106,1461q0-15.73,10.9-26c7.25-6.86,10.9-10.29,10.9-10.29Z" transform="translate(-418.6 -61.99)"/><path d="M2775.84,849.25h87.22q13.32,0,23.62,9.69T2897,880.73v782.54q0,13.34-10.31,23t-23.62,9.68h-87.22q-13.34,0-23.62-9.68t-10.29-23V1326.51l-228.95,1.2v335.56a33.09,33.09,0,0,1-32.7,32.7h-89.65q-12.12,0-21.8-9.68a31.39,31.39,0,0,1-9.68-23V880.73q0-12.11,9.68-21.79t21.8-9.69h89.65a32.52,32.52,0,0,1,23,9.08,29.48,29.48,0,0,1,9.7,22.4v299.2l228.95-1.2v-298q0-12.11,10.29-21.79T2775.84,849.25Z" transform="translate(-418.6 -61.99)"/><path d="M3391.2,994.6H3146.5v185.33h185.35q13.3,0,21.8,8.5t8.48,21.78V1295q0,13.34-8.48,21.8t-21.8,8.48H3146.5v220.48h244.7a32.56,32.56,0,0,1,23,9.08,29.55,29.55,0,0,1,9.69,22.42v83.57a33.07,33.07,0,0,1-32.7,32.71H3033.85q-14.55,0-23.62-9.68a32.5,32.5,0,0,1-9.09-23V878.3a30.4,30.4,0,0,1,9.09-22.39q9.08-9.07,23.62-9.09H3391.2a32.57,32.57,0,0,1,23,9.09,29.5,29.5,0,0,1,9.69,22.39v83.6a33.07,33.07,0,0,1-32.7,32.7Z" transform="translate(-418.6 -61.99)"/><path d="M3943.57,845.6h92q10.89,0,21.19,8.5t10.31,15.73v783.74q0,19.4-9.09,30.3t-22.41,10.9H3910.86q-13.34,0-26.06-9.09t-17.56-21.21L3671,1127.85l10.9,534.2a32.5,32.5,0,0,1-9.09,23q-9.11,9.71-23.61,9.7h-89.65q-13.33,0-23.62-9.7t-10.29-23V878.3q0-13.31,10.29-23t23.62-9.7h144.15q14.55,0,27.87,9.09t17,21.21l175.65,525.71L3912.07,878.3a32.43,32.43,0,0,1,9.08-23A29.48,29.48,0,0,1,3943.57,845.6Z" transform="translate(-418.6 -61.99)"/><path d="M494.72,4757.48v-2.19q10.93-10.94,14-35.44a455.9,455.9,0,0,0,3.07-56V4518.18q-14,0-26.47.43a172.16,172.16,0,0,0-23.63,2.41,106.86,106.86,0,0,0-21.43,6.12,70.59,70.59,0,0,0-19.47,12l-2.19-.44,15.75-93.18,2.19-.88a54.89,54.89,0,0,0,15.09,3.94q9.4,1.3,21.44,2t25.81.65H603.44q13.77,0,25.81-.65t21.65-2q9.61-1.32,15.31-3.94l2.19.88,15.75,93.18-2.19.44a70.69,70.69,0,0,0-19.46-12,106.42,106.42,0,0,0-21.66-6.12,177.79,177.79,0,0,0-23.84-2.41q-12.46-.42-26.47-.43v145.68a425.25,425.25,0,0,0,3.28,56q3.29,24.51,13.78,35.44v2.19Z" transform="translate(-418.6 -61.99)"/><path d="M821.08,4451.24v2.19q-10.5,10.93-13.78,35.44a425.25,425.25,0,0,0-3.28,56v39.81l98.43-12.25v-27.56a425.25,425.25,0,0,0-3.28-56q-3.28-24.51-13.78-35.44v-2.19H998.26v2.19q-10.5,10.93-13.78,35.44a425.25,425.25,0,0,0-3.28,56v119a425.25,425.25,0,0,0,3.28,56q3.27,24.51,13.78,35.44v2.19H885.39v-2.19q10.5-10.94,13.78-35.44a425.25,425.25,0,0,0,3.28-56v-35L804,4641.11v22.75a425.25,425.25,0,0,0,3.28,56q3.29,24.51,13.78,35.44v2.19H708.21v-2.19q10.5-10.94,13.78-35.44a425.25,425.25,0,0,0,3.28-56v-119a425.25,425.25,0,0,0-3.28-56q-3.29-24.51-13.78-35.44v-2.19Z" transform="translate(-418.6 -61.99)"/><path d="M1143.93,4451.24v2.19q-10.5,10.93-13.78,35.44a427,427,0,0,0-3.28,56v119a427,427,0,0,0,3.28,56q3.28,24.51,13.78,35.44v2.19H1031.06v-2.19q10.5-10.94,13.78-35.44a425.12,425.12,0,0,0,3.29-56v-119a425.12,425.12,0,0,0-3.29-56q-3.27-24.51-13.78-35.44v-2.19Z" transform="translate(-418.6 -61.99)"/><path d="M1280.42,4451.24v2.19a15.38,15.38,0,0,0-.44,4.37,28.22,28.22,0,0,0,2.63,10.94,89.81,89.81,0,0,0,6.12,11.81q3.49,5.7,7,10.72t5.69,8.1l83.56,119v-73.5a427,427,0,0,0-3.28-56q-3.29-24.51-13.78-35.44v-2.19h112.87v2.19q-10.5,10.93-13.79,35.44a427,427,0,0,0-3.28,56v119a427,427,0,0,0,3.28,56q3.29,24.51,13.79,35.44v2.19H1375.35v-2.19a15.42,15.42,0,0,0,.44-4.38,28.26,28.26,0,0,0-2.62-10.93,91.14,91.14,0,0,0-6.13-11.81q-3.51-5.68-7.22-10.72a87.28,87.28,0,0,1-5.47-8.1l-84-119.86v74.37a425.25,425.25,0,0,0,3.28,56q3.28,24.51,13.78,35.44v2.19H1174.55v-2.19q10.5-10.94,13.78-35.44a425.25,425.25,0,0,0,3.28-56v-119a425.25,425.25,0,0,0-3.28-56q-3.28-24.51-13.78-35.44v-2.19Z" transform="translate(-418.6 -61.99)"/><path d="M1791.83,4660.36q0,16.19.43,26.68a156.06,156.06,0,0,0,1.54,17.5,45,45,0,0,0,3.06,11.38,32.7,32.7,0,0,0,5.47,8.31v2.19a304,304,0,0,1-68,27.12,273.17,273.17,0,0,1-68.47,8.75q-35.86,0-64.74-10.08t-49.22-29.57q-20.34-19.49-31.5-47.52t-11.15-64q0-42.93,13.34-74.25t36.09-51.48a146.2,146.2,0,0,1,52.5-29.79,201.83,201.83,0,0,1,62.56-9.64H1679q24.93,0,40.46,3.3t22.1,3.28q6.56,0,12.9-.43a23.44,23.44,0,0,0,11.16-3.5l2.19.44q2.18,26,4.37,51.47t4.38,51.31l-2.19.88a87,87,0,0,0-19.69-18.16,129.41,129.41,0,0,0-23.84-12.68,134.93,134.93,0,0,0-24.94-7.44,120.31,120.31,0,0,0-22.53-2.41q-43.74,0-68.24,26.19t-24.5,72.89q0,41.46,23.62,63.28t62.12,21.82a90,90,0,0,0,24.06-2.82q10.06-2.82,12.69-4.13v-58.23a81.67,81.67,0,0,0-28.65,5.46,56,56,0,0,0-23.85,16.41l-2.18-.88v-77h143.93v2.19a32.52,32.52,0,0,0-5.47,8.31,45,45,0,0,0-3.06,11.37,155.13,155.13,0,0,0-1.54,17.28q-.43,10.29-.43,26.47Z" transform="translate(-418.6 -61.99)"/><path d="M1837.32,4641.11q8.29,10.5,22.53,20.56a170,170,0,0,0,32.37,17.72,225.75,225.75,0,0,0,38.94,12.25,193.14,193.14,0,0,0,41.78,4.59q15.3,0,25.37-4.81t10.06-16.19V4673c0-5.53-2.26-10.28-6.78-14.21s-10.72-7.51-18.59-10.72a261.25,261.25,0,0,0-27.34-9.19q-15.54-4.36-33-9.62a226.44,226.44,0,0,1-32.6-12.47,102.24,102.24,0,0,1-26.24-17.72,77.55,77.55,0,0,1-17.72-25.16q-6.57-14.64-6.56-34.77v-4.38q0-28.87,11.59-46.37a76.87,76.87,0,0,1,29.75-26.69,127.13,127.13,0,0,1,39.81-12.25,303,303,0,0,1,42.21-3.06q10.5,0,21.44,1.09t20.78,2.19q9.84,1.09,18.16,2.19a109.85,109.85,0,0,0,14,1.09q6.57,0,12.91-.44a23.26,23.26,0,0,0,11.16-3.5l2.18.44q2.19,25.82,4.38,51.19t4.37,51.18l-1.75.88q-7.44-9.19-20.12-16.63a159.82,159.82,0,0,0-27.56-12.68,196.17,196.17,0,0,0-30.84-8.1,169.92,169.92,0,0,0-29.53-2.84q-18,0-29.75,4.37t-11.81,14.88a15.34,15.34,0,0,0,4.37,11.37,39,39,0,0,0,11.59,7.66,125.21,125.21,0,0,0,17.07,6.12q9.84,2.85,20.78,5.91,19.24,5.69,39.59,12a149.81,149.81,0,0,1,37.18,17.28,88.67,88.67,0,0,1,27.56,28.44q10.72,17.49,10.72,45.49v4.38q0,27.14-10.5,44.84a81.08,81.08,0,0,1-27.56,28.22,114.17,114.17,0,0,1-38.72,14.65,251.19,251.19,0,0,1-80.27,1.75q-15.32-2.4-27.13-5.47T1885,4749a60.19,60.19,0,0,0-15.75-2.41,37.26,37.26,0,0,0-10.93,1.75,21.78,21.78,0,0,0-9.19,5.25l-2.19-.44-11.81-111.55Z" transform="translate(-418.6 -61.99)"/><path d="M2333.84,4451.24v2.19q-10.49,10.93-13.78,35.44a427,427,0,0,0-3.28,56v39.81l98.44-12.25v-27.56a427,427,0,0,0-3.28-56q-3.29-24.51-13.79-35.44v-2.19H2511v2.19q-10.5,10.93-13.78,35.44a427,427,0,0,0-3.28,56v119a427,427,0,0,0,3.28,56q3.28,24.51,13.78,35.44v2.19H2398.15v-2.19q10.5-10.94,13.79-35.44a427,427,0,0,0,3.28-56v-35l-98.44,12.25v22.75a427,427,0,0,0,3.28,56q3.29,24.51,13.78,35.44v2.19H2221v-2.19q10.5-10.94,13.78-35.44a427,427,0,0,0,3.28-56v-119a427,427,0,0,0-3.28-56q-3.28-24.51-13.78-35.44v-2.19Z" transform="translate(-418.6 -61.99)"/><path d="M2646.2,4705.85a152.35,152.35,0,0,0-5,17.07,59.26,59.26,0,0,0-1.53,12.68q0,7.88,2,12.47a29.41,29.41,0,0,0,4.15,7.22v2.19H2530.71v-2.19q14-15.31,24.71-37.62t18.16-42l70.87-179.37q4.37-11.37,5.47-16.84a48.3,48.3,0,0,0,1.09-7.22q0-7.42-2-11.81a30.91,30.91,0,0,0-4.15-7v-2.19h102.37l88.37,224.43q7.42,19.68,18.15,42t24.72,37.62v2.19H2763.44v-2.19a29.4,29.4,0,0,0,4.16-7.22q2-4.59,2-12.47a63,63,0,0,0-1.53-12.9,102.18,102.18,0,0,0-5.47-16.85l-5.69-14.43L2646.64,4705Zm58.19-147.43-34.13,87.5,65.62-8.31Z" transform="translate(-418.6 -61.99)"/><path d="M2896,4757.48v-2.19q10.5-10.94,13.78-35.44a427,427,0,0,0,3.28-56v-119a427,427,0,0,0-3.28-56q-3.29-24.51-13.78-35.44v-2.19h118.12q37.61,0,65,7.88t44.84,21.87a85.54,85.54,0,0,1,25.81,33.47,106.4,106.4,0,0,1,8.32,42.21q0,35.44-14.66,57.53a102.71,102.71,0,0,1-38.28,34.56q-23.62,12.48-53.37,17.5a485.52,485.52,0,0,1-59.94,6.35,384.64,384.64,0,0,0,3.72,50.74q3.29,21.88,13.35,31.94v2.19ZM2991.8,4516v98.87a309.71,309.71,0,0,0,31.5-4.16,96.88,96.88,0,0,0,27.13-9,51,51,0,0,0,18.81-16.18q7-10.06,7-25.38,0-21.87-17.94-33T3007.55,4516Z" transform="translate(-418.6 -61.99)"/><path d="M3184.29,4757.48v-2.19q10.5-10.94,13.78-35.44a425.25,425.25,0,0,0,3.28-56v-119a425.25,425.25,0,0,0-3.28-56q-3.27-24.51-13.78-35.44v-2.19h118.12q37.62,0,65,7.88t44.84,21.87a85.54,85.54,0,0,1,25.81,33.47,106.4,106.4,0,0,1,8.31,42.21q0,35.44-14.65,57.53a102.78,102.78,0,0,1-38.28,34.56q-23.62,12.48-53.38,17.5a485.36,485.36,0,0,1-59.93,6.35,384.64,384.64,0,0,0,3.72,50.74q3.29,21.88,13.34,31.94v2.19ZM3280.1,4516v98.87a309.71,309.71,0,0,0,31.5-4.16,96.81,96.81,0,0,0,27.12-9,51,51,0,0,0,18.81-16.18q7-10.06,7-25.38,0-21.87-17.93-33T3295.85,4516Z" transform="translate(-418.6 -61.99)"/><path d="M3472.59,4757.48v-2.19q10.5-10.94,13.78-35.44a425.25,425.25,0,0,0,3.28-56v-119a425.25,425.25,0,0,0-3.28-56q-3.28-24.51-13.78-35.44v-2.19h173q13.79,0,25.81-.65t21.44-2a54.89,54.89,0,0,0,15.09-3.94l2.19.88,15.75,93.18-2.19.44a77.74,77.74,0,0,0-19.9-12,105.79,105.79,0,0,0-21.88-6.12,184.36,184.36,0,0,0-24.28-2.41q-12.69-.42-27.12-.43H3568.4v56.87h49.87a315.22,315.22,0,0,0,38.93-2.19q17.51-2.18,27.13-10.5l2.19.88V4652l-2.19.88a77.86,77.86,0,0,0-19.69-12.69,94.17,94.17,0,0,0-21.22-6.34,171.84,171.84,0,0,0-23.62-2.41q-12.47-.42-26.9-.43h-24.5v59.49h68.68q14.45,0,27.12-.22a161.14,161.14,0,0,0,24.28-2.18,97.57,97.57,0,0,0,21.88-6.35,82.42,82.42,0,0,0,19.9-12.25l2.19.44-15.75,93.18-2.19.88a54.89,54.89,0,0,0-15.09-3.94q-9.4-1.31-21.44-2t-25.81-.65H3472.59Z" transform="translate(-418.6 -61.99)"/><path d="M3866.75,4451.24v2.19a15.47,15.47,0,0,0-.43,4.37,28.18,28.18,0,0,0,2.62,10.94,88.68,88.68,0,0,0,6.13,11.81q3.49,5.7,7,10.72t5.68,8.1l83.56,119v-73.5a425.25,425.25,0,0,0-3.28-56q-3.29-24.51-13.78-35.44v-2.19h112.87v2.19q-10.5,10.93-13.78,35.44a425.25,425.25,0,0,0-3.28,56v119a425.25,425.25,0,0,0,3.28,56q3.28,24.51,13.78,35.44v2.19H3961.69v-2.19a15.8,15.8,0,0,0,.44-4.38,28.29,28.29,0,0,0-2.63-10.93,91.08,91.08,0,0,0-6.12-11.81q-3.51-5.68-7.22-10.72a85.3,85.3,0,0,1-5.47-8.1l-84-119.86v74.37a427,427,0,0,0,3.28,56q3.29,24.51,13.78,35.44v2.19H3760.88v-2.19q10.5-10.94,13.79-35.44a427,427,0,0,0,3.28-56v-119a427,427,0,0,0-3.28-56q-3.28-24.51-13.79-35.44v-2.19Z" transform="translate(-418.6 -61.99)"/><path d="M3389.49,2675.78c-23.83,2.29-42,14.44-57.3,31.92-11.14,12.77-18.9,27.77-28.09,44.38-25.26-20.45-47.82-41.93-77.48-52.82-36.93-13.55-57.8,4.93-53.43,43.77,14.27,126.65,155.71,215.52,168.08,204.29,7.31-6.64,71.6-127.83,93.9-172.35a100.15,100.15,0,0,0,10.48-51C3443.86,2691.71,3421.46,2672.72,3389.49,2675.78Z" transform="translate(-418.6 -61.99)"/><path d="M1284.25,2704c-23.53-4.35-44.38,2.34-63.85,15-14.23,9.22-25.8,21.51-39.2,35-18.68-26.6-34.48-53.45-60-72.06-31.79-23.17-56.94-11.13-63.39,27.42-21.06,125.7,90.56,250,105.53,242.58,8.86-4.37,104-103.26,137.61-140A100.16,100.16,0,0,0,1325,2765.8C1332.16,2734.28,1315.84,2709.87,1284.25,2704Z" transform="translate(-418.6 -61.99)"/><polygon style="fill-rule:evenodd;" points="1553.56 2409.52 1329.32 2185.28 1289.43 2225.18 1508.67 2444.42 1553.56 2444.42 1553.56 2409.52"/><path style="fill-rule:evenodd;" d="M1972.16,2445.73a54.5,54.5,0,0,0-66.6,60.69h66.6Z" transform="translate(-418.6 -61.99)"/><path style="fill-rule:evenodd;" d="M1328.42,1867.66c77.43-77.43,232.3-48.11,345.91,65.5s142.92,268.47,65.49,345.91-232.3,48.11-345.9-65.5-142.93-268.48-65.5-345.91Zm4.47,156.36a13.45,13.45,0,0,0,0,19l241.57,241.58a13.46,13.46,0,0,0,19,0h0a13.45,13.45,0,0,0,0-19L1351.87,2024a13.45,13.45,0,0,0-19,0Zm151.89-151.88a13.45,13.45,0,0,0,0,19l241.57,241.58a13.46,13.46,0,0,0,19,0h0a13.45,13.45,0,0,0,0-19l-241.57-241.58a13.46,13.46,0,0,0-19,0Zm-76,75.94a13.47,13.47,0,0,0,0,19l241.58,241.57a13.45,13.45,0,0,0,19,0h0a13.46,13.46,0,0,0,0-19l-241.58-241.57a13.46,13.46,0,0,0-19,0Zm-38,38a13.46,13.46,0,0,0,0,19l241.57,241.58a13.47,13.47,0,0,0,19,0h0a13.46,13.46,0,0,0,0-19l-241.58-241.57a13.45,13.45,0,0,0-19,0Zm76-75.94a13.45,13.45,0,0,0,0,19l241.58,241.57a13.45,13.45,0,0,0,19,0h0a13.46,13.46,0,0,0,0-19L1465.79,1910.1a13.47,13.47,0,0,0-19,0Z" transform="translate(-418.6 -61.99)"/><polygon style="fill-rule:evenodd;" points="2497.64 2185.28 2201.56 2481.37 2201.56 2514.42 2248.3 2514.42 2537.54 2225.18 2497.64 2185.28"/><path style="fill-rule:evenodd;" d="M2743.2,2460.22a54.82,54.82,0,0,0-77.3,0L2620.16,2506v70.45h84.14l38.89-38.9A54.82,54.82,0,0,0,2743.2,2460.22Z" transform="translate(-418.6 -61.99)"/><path style="fill-rule:evenodd;" d="M3335.75,1867.66c77.43,77.43,48.11,232.3-65.5,345.91s-268.47,142.92-345.9,65.5-48.11-232.3,65.5-345.91,268.47-142.93,345.9-65.5ZM3331.28,2024h0a13.46,13.46,0,0,0-19,0L3070.72,2265.6a13.45,13.45,0,0,0,0,19h0a13.46,13.46,0,0,0,19,0L3331.28,2043a13.46,13.46,0,0,0,0-19Zm-151.89-151.88h0a13.46,13.46,0,0,0-19,0l-241.57,241.58a13.45,13.45,0,0,0,0,19h0a13.46,13.46,0,0,0,19,0l241.57-241.58a13.45,13.45,0,0,0,0-19Zm76,75.94h0a13.46,13.46,0,0,0-19,0l-241.58,241.57a13.46,13.46,0,0,0,0,19h0a13.45,13.45,0,0,0,19,0l241.58-241.57a13.47,13.47,0,0,0,0-19Zm38,38h0a13.45,13.45,0,0,0-19,0l-241.58,241.57a13.46,13.46,0,0,0,0,19h0a13.47,13.47,0,0,0,19,0L3293.3,2005a13.46,13.46,0,0,0,0-19Zm-75.94-75.94a13.47,13.47,0,0,0-19,0l-241.58,241.58a13.46,13.46,0,0,0,0,19h0a13.45,13.45,0,0,0,19,0l241.58-241.57a13.46,13.46,0,0,0,0-19Z" transform="translate(-418.6 -61.99)"/><path d="M1530.3,2651.64c9.9-56-12.58-96.48-60-124.89-15.1-9.05-30.42-17.77-45.82-26.31A664.13,664.13,0,0,0,1319.79,2454c-1.45-36.65-15.47-54.94-48.13-63.24a61.32,61.32,0,0,0-35.8,1.31c-16.44,5.62-22.12,20-28.19,33.55-3.35-.29-5.57-.32-7.74-.68-66.78-11-144.81-14.93-210.42,1.61-40.69,10.27-66.32,33.05-91.71,70.41-62.93-36.49-125.62-71-190.43-101.39C636.84,2362.55,564,2336,485.86,2327a84.61,84.61,0,0,0-48.15,8.36c-14.35,7-20.23,17.38-18.93,33.35,2.44,29.95,23,53.4,53.4,59.53,10.94,2.21,21.08,6,31.39,9.91,22.13,8.46,44.32,16.85,66.87,24.09,46.73,15,95,24.85,141.23,41.53,56.08,20.22,110.39,44.17,163.45,76-2.9,18.24-4.83,38.54-9.52,58.18-12.16,50.89-17.46,101.88-12.17,154.32,7.05,69.82,36.58,124,101.48,155.06,119,56.93,233.86,91.52,366.12,71.36,18.82-2.87,60.48-13.71,77.93-23.16,29.68-16.06,44.53-32.25,60.07-62.52C1520.53,2813.15,1528.58,2661.41,1530.3,2651.64ZM459.61,2361.32c22.31-14,42.44-9.78,55.81,10.82C502,2389.8,472.26,2384.43,459.61,2361.32ZM963.91,2471c4.27-4,17.53-11,20.37-11.59,73.2-14.36,146.53-15.2,219.8-3.67,5.4,36.62,16,48.61,47.71,55.42,30.71,6.58,38.46,3,58.12-27.88,56.54,19,108.58,44.71,155.69,80a117.84,117.84,0,0,1,25.05,26.25c6.64,9.3,4.73,16.24-4.8,21.83-19.53,11.45-41.38,14.63-63.22,16.42-70.55,5.79-139.7-4.29-208.05-20.76-69.51-16.74-137.31-39-203.88-65.1-19.74-7.73-37.81-17.83-52.36-33.5C945.69,2494.77,950.4,2483.64,963.91,2471Zm469.14,455.27c-25.19,37.77-65,57.85-135.49,68.28-59.76,8.83-260.41-40.56-295.77-55.6-61.7-26.24-106.62-69-113.84-140.16-6.13-60.49,6.35-178.17,24.24-259.08,73.64,75.8,167.21,103.34,266.13,118.48,44.61,6.82,105.24,19.24,183.51,22.83,2.48.11,5.6,1,7.07-3.56-9.2-9.18-159.35-26-223.85-46-65.65-20.29-130.59-40-187.48-79.61-9.49-6.61-18.25-14.27-27.3-21.5-9.81-7.85-12.4-16.39-1.73-26.51,14.37,23.87,36,39.43,61,49.54,86.12,34.85,172.33,69.77,264.41,86.18,63.23,11.28,126.8,17.82,190.87,6.08,20.69-3.79,40.39-10.22,62.09-24.49C1504,2672.57,1483.19,2851,1433.05,2926.24Z" transform="translate(-418.6 -61.99)"/><path d="M3026.7,2933c15.53,30.27,30.38,46.46,60.06,62.52,17.45,9.45,59.11,20.29,77.93,23.16,132.26,20.16,247.13-14.43,366.12-71.36,64.9-31.06,94.43-85.24,101.48-155.06,5.29-52.44,0-103.43-12.17-154.32-4.69-19.64-6.61-39.94-9.52-58.18,53.06-31.84,107.37-55.79,163.45-76,46.27-16.68,94.5-26.53,141.23-41.53,22.55-7.24,44.75-15.63,66.88-24.09,10.3-3.94,20.44-7.7,31.38-9.91,30.45-6.13,51-29.58,53.4-59.53,1.31-16-4.58-26.3-18.92-33.35a84.65,84.65,0,0,0-48.16-8.36c-78.15,9-151,35.53-221.51,68.56-64.8,30.34-127.5,64.9-190.43,101.39-25.39-37.36-51-60.14-91.71-70.41C3430.6,2410,3352.57,2414,3285.79,2425c-2.17.36-4.39.39-7.74.68-6.06-13.58-11.75-27.93-28.18-33.55a61.33,61.33,0,0,0-35.8-1.31c-32.67,8.3-46.68,26.59-48.14,63.24a664.13,664.13,0,0,0-104.73,46.43c-15.4,8.54-30.71,17.26-45.81,26.31-47.39,28.41-69.87,68.9-60,124.89C2957.14,2661.41,2965.2,2813.15,3026.7,2933Zm943.6-560.9c13.37-20.6,33.51-24.8,55.81-10.82C4013.46,2384.43,3983.77,2389.8,3970.3,2372.14ZM3527.38,2508.4c-14.55,15.67-32.62,25.77-52.36,33.5-66.57,26.09-134.37,48.36-203.88,65.1-68.35,16.47-137.5,26.55-208,20.76-21.84-1.79-43.69-5-63.22-16.42-9.53-5.59-11.43-12.53-4.8-21.83a117.84,117.84,0,0,1,25-26.25c47.11-35.3,99.15-61,155.69-80,19.67,30.87,27.41,34.46,58.12,27.88,31.76-6.81,42.31-18.8,47.71-55.42,73.27-11.53,146.61-10.69,219.8,3.67,2.84.56,16.1,7.59,20.37,11.59C3535.33,2483.64,3540,2494.77,3527.38,2508.4Zm-548.52,112.75c21.7,14.27,41.4,20.7,62.1,24.49,64.06,11.74,127.63,5.2,190.86-6.08,92.08-16.41,178.3-51.33,264.41-86.18,25-10.11,46.59-25.67,60.95-49.54,10.67,10.12,8.08,18.66-1.73,26.51-9,7.23-17.81,14.89-27.3,21.5-56.89,39.65-121.83,59.32-187.47,79.61-64.5,19.94-214.66,36.79-223.86,46,1.47,4.54,4.59,3.67,7.08,3.56,78.26-3.59,138.9-16,183.5-22.83,98.93-15.14,192.49-42.68,266.13-118.48,17.89,80.91,30.37,198.59,24.24,259.08-7.22,71.12-52.14,113.92-113.84,140.16-35.36,15-236,64.43-295.77,55.6-70.53-10.43-110.3-30.51-135.48-68.28C3002.53,2851,2981.73,2672.57,2978.86,2621.15Z" transform="translate(-418.6 -61.99)"/><path style="fill-rule:evenodd;" d="M2442.24,2726.21a45.17,45.17,0,0,0-19.22-9.7,132.29,132.29,0,0,0-31.15-3.76c-24.61,0-37.06,9.6-44.23,34.63,13.33,1.52,25.2,5.83,34.52,14.9a4.89,4.89,0,0,1-3.36,8.45c-13.12-.14-25.77-5.78-39.25-4.06-12.64,32.71-23.8,66.1-31.25,101.15a157.7,157.7,0,0,1,36.45,9.75c3.23,1.31,6.55,2.49,9.25,4.79a7.84,7.84,0,0,1,2.95,6.77c-.47,3.84-3.67,4.94-6.72,4.94a76.62,76.62,0,0,1-11.23-.8c-11.09-1.6-21.87-4.7-32.58-7.32-1.52,2.11-1.46,4-1.68,5.86-2.09,17.61-25.12,130.63-8.77,163.55,3.85,7.75,15,10.57,26.23,3.83,4.87-2.93,31.88-44.07,40.38-57.41,1.77-2.79,3.15-5.83,4.93-9.15-4.64-1.33-8.53-2.33-12.34-3.58s-7.73-2.37-11.11-4.67c-2.86-1.94-4.74-4.59-3.78-8.2s3.83-5,7.35-5a36.13,36.13,0,0,1,9.58,1.08c6.1,1.5,11.28,4.91,17.29,7.94,17.76-25.75,61.57-119.09,67.85-144.5a86.52,86.52,0,0,0-21.76-7.79,126.9,126.9,0,0,1-23.17-6.7c-3.43-1.41-6.17-3.85-5.42-7.95s4.37-5,8.11-5.3a47.79,47.79,0,0,1,15.65,1.44c11.31,2.82,22.21,6.56,31.41,14.3,8.32-20.14,13.11-41.46,12.79-57.49C2459.65,2750.4,2454.54,2736.75,2442.24,2726.21Zm-198.93,329.15c16.36-32.92-6.67-145.94-8.76-163.55-.22-1.84-.16-3.75-1.69-5.86-10.7,2.62-21.49,5.72-32.57,7.32a76.82,76.82,0,0,1-11.23.8c-3.06,0-6.25-1.1-6.72-4.94a7.83,7.83,0,0,1,2.94-6.77c2.71-2.3,6-3.48,9.26-4.79a157.7,157.7,0,0,1,36.45-9.75c-7.45-35.05-18.61-68.44-31.25-101.15-13.48-1.72-26.13,3.92-39.25,4.06a4.89,4.89,0,0,1-3.36-8.45c9.32-9.07,21.19-13.38,34.51-14.9-7.16-25-19.62-34.59-44.23-34.63a132.35,132.35,0,0,0-31.15,3.76,45.14,45.14,0,0,0-19.21,9.7c-12.3,10.54-17.41,24.19-17.72,39.95-.32,16,4.46,37.35,12.79,57.49,9.19-7.74,20.1-11.48,31.41-14.3a47.74,47.74,0,0,1,15.65-1.44c3.74.33,7.37,1.29,8.11,5.3s-2,6.54-5.42,7.95a126.9,126.9,0,0,1-23.17,6.7,86.52,86.52,0,0,0-21.76,7.79c6.28,25.41,50.08,118.75,67.84,144.5,6-3,11.2-6.44,17.3-7.94a36.1,36.1,0,0,1,9.57-1.08c3.53.08,6.41,1.44,7.36,5s-.93,6.26-3.79,8.2c-3.37,2.3-7.28,3.42-11.1,4.67s-7.7,2.25-12.34,3.58c1.77,3.32,3.15,6.36,4.93,9.15,8.5,13.34,35.51,54.48,40.38,57.41C2228.32,3065.93,2239.46,3063.11,2243.31,3055.36ZM2458,3192.68q-8.8-5.46-24.89-5.47h-15.24v48.93a163,163,0,0,0,17.6-1.39,59.76,59.76,0,0,0,15.77-4.19,29.67,29.67,0,0,0,11.27-8.15q4.29-5.16,4.29-13.52Q2466.77,3198.15,2458,3192.68Zm398.83-222.11c-3.09-3.26-6.15-6.41-9-9.32-18.86-19.41-25.36-26.08-24.93-61.49.39-32,10.12-72.14,19.45-110.69,10.11-41.77,19.78-81.72,17.57-110.65-1-13.29-5.92-24.8-14.11-33.51a50.6,50.6,0,0,0-20.54-13.11,64.54,64.54,0,0,0-26.16-3.09c-23.4,1.79-52.57,14.72-84.26,43.46H2714c-189.06,0-237.34-234.16-274.37-413.73-2.89-14.05-5.74-27.82-7.6-36.66v-235A177.23,177.23,0,0,0,2255.29,1810h0a177.22,177.22,0,0,0-176.75,176.77v235.4q-1.76,10.6-3.56,21.74c-27.87,171.28-69.67,428.26-278.42,428.26h-3.5c-90.07-34.25-129.4-18.27-143.34,17.84-14.57,37.74,3.48,96.51,16.53,139,4.61,15,8.56,27.87,9.87,35.93,4.57,27.91-3.74,46.66-19.33,61.07-17.18,15.87-43.5,27.61-71.81,39.93a12.57,12.57,0,0,0,10,23.05c30.37-13.21,58.69-25.87,78.8-44.46,21.69-20,33.31-45.79,27.12-83.63-1.59-9.72-5.77-23.34-10.66-39.28-12-39-28.54-93-17.12-122.57,8.55-22.16,37-30.49,105.08-5.61v525.15a178.58,178.58,0,0,0,178.09,178.11H2583.6A149.15,149.15,0,0,0,2732.34,3248V2690.26c26.83-24.21,50.41-35,68.63-36.43a40,40,0,0,1,16.1,1.71,25.48,25.48,0,0,1,10.4,6.62c4.21,4.46,6.76,10.69,7.33,18.13,1.91,25.18-7.27,63.17-16.89,102.87-9.65,39.88-19.7,81.42-20.14,116.3-.57,45.82,7.78,54.4,32,79.33,2.63,2.71,5.49,5.64,8.8,9.12a12.58,12.58,0,1,0,18.22-17.34Zm-753.06-983.8a152,152,0,0,1,151.54-151.55h0a152,152,0,0,1,151.54,151.55v223.62H2103.74Zm-39.12,1169.76q-6.23,5.58-11,16a160,160,0,0,0-8.48,23.07l-32.62,110.09h-37.12L1950,3220.26l-25.11,85.41h-37.12l-32.62-110.09a160,160,0,0,0-8.48-23.07q-4.82-10.4-11-16v-1.08h56.23v1.08a14.65,14.65,0,0,0-2.79,6.65,35.17,35.17,0,0,0-.32,8.37,55.06,55.06,0,0,0,1.39,9c.71,3,1.43,5.87,2.15,8.58l14.8,50.43,13.09-44.2v.21l2.58-9.23a93.76,93.76,0,0,0,2.36-10.83,44.24,44.24,0,0,0,.43-10.52,15.11,15.11,0,0,0-3.22-8.47v-1.08h55.37v1.08a14.77,14.77,0,0,0-2.79,6.86,34,34,0,0,0-.22,8.59,74.24,74.24,0,0,0,1.5,9.22c.72,3.15,1.43,6.09,2.15,8.8l14.81,49.57,14.8-50.43c.72-2.71,1.43-5.58,2.15-8.58a57.33,57.33,0,0,0,1.4-9,35.68,35.68,0,0,0-.33-8.37,14.65,14.65,0,0,0-2.79-6.65v-1.08h56.23Zm148.71,0q-5.14,5.35-6.76,17.38a209.41,209.41,0,0,0-1.61,27.47v58.37a209.52,209.52,0,0,0,1.61,27.47q1.62,12,6.76,17.38v1.07H2158v-1.07q5.15-5.37,6.76-17.38a209.52,209.52,0,0,0,1.61-27.47v-17.17l-48.29,6v11.16a209.52,209.52,0,0,0,1.61,27.47q1.61,12,6.76,17.38v1.07h-55.36v-1.07q5.14-5.37,6.76-17.38a209.65,209.65,0,0,0,1.6-27.47v-58.37a209.54,209.54,0,0,0-1.6-27.47q-1.62-12-6.76-17.38v-1.08h55.36v1.08q-5.15,5.35-6.76,17.38a209.41,209.41,0,0,0-1.61,27.47v19.52l48.29-6v-13.51a209.41,209.41,0,0,0-1.61-27.47q-1.62-12-6.76-17.38v-1.08h55.36Zm-23.07-108.48c-10.1-12.86-17.3-27.82-25.47-41.92-15.15-26.13-31.49-51.53-45.61-78.25a695,695,0,0,1-36.47-80.8c-5.31-14.16-10.19-28.52-14.41-43-8.53-28.89-8.52-57.23,10-83.6-6.33-2.69-12.28-5-18.08-7.71-14-6.47-27.13-14.36-37.69-25.76-5.14-5.55-7.64-12.15-4.77-20,2.7-7.39,8.6-9.64,15.5-11,10-1.94,19.56.55,29.79,3.75-1.51-3.41-2.7-6-3.8-8.61-4.13-9.9-8.47-19.74-10.4-30.39-1.17-6.49-2-13.31,4.19-17.66s12.34-.69,17.88,2.72c10.67,6.58,19,15.63,26.5,26.86,1.13-4.13,1.89-7.45,3-10.68,2.51-7.62,4.83-15.38,10.87-21.18,9.25-8.87,21.77-5.28,24.7,7.21a43.09,43.09,0,0,1,.74,13.65c-.67,7.64-1.38,15.28-2.16,24,7.24-7,13.35-15.29,21.95-20.76,8.34-5.29,21.92-5.47,23.28,7.24a26.74,26.74,0,0,1-1.12,9.47c-2.68,10.21-7,19.87-11.73,29.3-1.47,2.95-11.78,27.48-13.77,27.15,3.39.56,6.23,1.21,9.11,1.49,22,2.08,36.37,13.89,44.88,34,23.54,55.63,36,115.12,43.6,174.85,5.64,44.55,21.48,129.54-3.51,158.49-3.39,3.92-11.42,7.7-16.55,8.44C2216.52,3077.29,2198.13,3058.06,2190.26,3048.05Zm158.91,260.41-1.07.43a26.85,26.85,0,0,0-7.41-1.93c-3.07-.43-6.58-.75-10.51-1s-8.15-.32-12.66-.32h-88.09v-1.07q5.15-5.37,6.76-17.38a209.52,209.52,0,0,0,1.61-27.47v-58.37a209.41,209.41,0,0,0-1.61-27.47q-1.62-12-6.76-17.38v-1.08h84.87c4.51,0,8.72-.11,12.66-.32s7.44-.54,10.52-1a26.52,26.52,0,0,0,7.4-1.93l1.07.43,7.73,45.71-1.08.22a38,38,0,0,0-9.76-5.91,51.89,51.89,0,0,0-10.73-3,89.64,89.64,0,0,0-11.91-1.18q-6.22-.21-13.3-.21h-30.48v27.89h24.47a154.22,154.22,0,0,0,19.1-1.07q8.58-1.07,13.3-5.15l1.07.43V3254l-1.07.43a38.36,38.36,0,0,0-9.66-6.22,46,46,0,0,0-10.4-3.11,82.17,82.17,0,0,0-11.59-1.18q-6.12-.21-13.2-.22h-12v29.19h33.69q7.09,0,13.31-.11a79.53,79.53,0,0,0,11.91-1.07,47.53,47.53,0,0,0,10.73-3.12,40.14,40.14,0,0,0,9.76-6l1.08.21Zm169.1-9a32.56,32.56,0,0,1-11.59,6.43,43.76,43.76,0,0,1-13.51,2.15,66.24,66.24,0,0,1-13.63-1.29,38.37,38.37,0,0,1-11.48-4.4,42.75,42.75,0,0,1-10.09-8.26,82.66,82.66,0,0,1-9.44-12.87l-11.37-18q-4.95.43-9.66.64l-9.66.43a185.67,185.67,0,0,0,1.83,24.68q1.6,10.74,6.54,15.67v1.07h-55.36v-1.07q5.15-5.37,6.75-17.38a207.8,207.8,0,0,0,1.61-27.47v-58.37a207.69,207.69,0,0,0-1.61-27.47q-1.6-12-6.75-17.38v-1.08h65.45q18.45,0,31.87,3.87t22,10.73a42,42,0,0,1,12.66,16.41,52.17,52.17,0,0,1,4.08,20.71q0,18-7.62,29a51.2,51.2,0,0,1-19.85,17l2.36,3.87q4.73,7.51,9.34,14.48t9.12,12.66a68.06,68.06,0,0,0,9,9.55,19.61,19.61,0,0,0,9,4.72Zm-1.5-612.49c-10.57,11.4-23.7,19.29-37.7,25.76-5.8,2.68-11.75,5-18.08,7.71,18.51,26.37,18.53,54.71,10,83.6-4.22,14.53-9.1,28.89-14.41,43a696.67,696.67,0,0,1-36.47,80.8c-14.12,26.72-30.46,52.12-45.61,78.25-8.17,14.1-15.38,29.06-25.48,41.92-7.86,10-26.25,29.24-40.39,27.23-5.13-.74-13.16-4.52-16.55-8.44-25-29-9.15-113.94-3.51-158.49,7.55-59.73,20.06-119.22,43.59-174.85,8.52-20.11,22.89-31.92,44.89-34,2.87-.28,5.71-.93,9.1-1.49-2,.33-12.3-24.2-13.77-27.15-4.69-9.43-9.05-19.09-11.72-29.3a26.51,26.51,0,0,1-1.12-9.47c1.35-12.71,14.94-12.53,23.27-7.24,8.61,5.47,14.72,13.77,22,20.76-.78-8.68-1.48-16.32-2.15-24a43.08,43.08,0,0,1,.73-13.65c2.93-12.49,15.46-16.08,24.7-7.21,6.05,5.8,8.37,13.56,10.88,21.18,1.06,3.23,1.83,6.55,3,10.68,7.55-11.23,15.83-20.28,26.5-26.86,5.53-3.41,11.49-7.17,17.87-2.72,6.23,4.35,5.37,11.17,4.2,17.66-1.93,10.65-6.27,20.49-10.41,30.39-1.09,2.62-2.29,5.2-3.8,8.61,10.24-3.2,19.75-5.69,29.8-3.75,6.9,1.33,12.8,3.58,15.5,11C2524.4,2674.81,2521.9,2681.41,2516.77,2687Zm130.48,621.5-1.08.43a26.87,26.87,0,0,0-7.4-1.93c-3.08-.43-6.58-.75-10.52-1s-8.15-.32-12.66-.32H2527.5v-1.07q5.14-5.37,6.76-17.38a209.52,209.52,0,0,0,1.61-27.47v-58.37a209.41,209.41,0,0,0-1.61-27.47q-1.61-12-6.76-17.38v-1.08h84.87q6.77,0,12.67-.32t10.51-1a26.42,26.42,0,0,0,7.4-1.93l1.08.43,7.72,45.71-1.07.22a38.12,38.12,0,0,0-9.76-5.91,52,52,0,0,0-10.74-3,89.64,89.64,0,0,0-11.91-1.18q-6.22-.21-13.3-.21H2574.5v27.89H2599a154,154,0,0,0,19.1-1.07q8.58-1.07,13.31-5.15l1.07.43V3254l-1.07.43a38.36,38.36,0,0,0-9.66-6.22,45.91,45.91,0,0,0-10.41-3.11,82.17,82.17,0,0,0-11.59-1.18c-4.08-.14-8.47-.22-13.2-.22h-12v29.19h33.69q7.08,0,13.31-.11a79.77,79.77,0,0,0,11.91-1.07,47.6,47.6,0,0,0,10.72-3.12,40.38,40.38,0,0,0,9.77-6l1.07.21Z" transform="translate(-418.6 -61.99)"/></svg>


