<svg xmlns="http://www.w3.org/2000/svg" viewBox="0 0 4295.13 3970.83" width="500" height="500"><path d="M997.35,1831.11a166.52,166.52,0,0,0-5.53,18.72,65.77,65.77,0,0,0-1.68,13.92q0,8.64,2.17,13.69a32,32,0,0,0,4.56,7.92v2.4H870.6v-2.4q15.36-16.8,27.13-41.29T917.65,1798l77.78-196.84q4.79-12.48,6-18.48a53.25,53.25,0,0,0,1.2-7.93c0-5.43-.72-9.76-2.16-13a34.11,34.11,0,0,0-4.56-7.68v-2.4h112.34l97,246.29q8.16,21.6,19.92,46.09t27.13,41.29v2.4H1126v-2.4a32.34,32.34,0,0,0,4.56-7.92q2.16-5.06,2.16-13.69a69.11,69.11,0,0,0-1.68-14.16,110.71,110.71,0,0,0-6-18.48l-6.24-15.85-121,14.89Zm63.85-161.8-37.45,96,72-9.12Z" transform="translate(-110.71 -94)"/><path d="M1395.34,1551.69v2.4q-11.52,12-15.12,38.89a467.49,467.49,0,0,0-3.6,61.45V1814.3h59.53q15.84,0,30-.24a177.44,177.44,0,0,0,26.88-2.4,106.91,106.91,0,0,0,24-7,90.22,90.22,0,0,0,21.84-13.44l2.4.48L1523.53,1894l-2.4,1a65.94,65.94,0,0,0-14.88-3.84q-9.13-1.44-20.65-2.16t-24.72-1q-13.22-.26-27.13-.24H1271.48v-2.4q11.52-12,15.12-38.89a467.39,467.39,0,0,0,3.6-61.45V1654.43a467.49,467.49,0,0,0-3.6-61.45q-3.6-26.88-15.12-38.89v-2.4Z" transform="translate(-110.71 -94)"/><path d="M1694,1551.69v2.4q-11.52,12-15.12,38.89a467.49,467.49,0,0,0-3.6,61.45V1814.3h59.53q15.84,0,30-.24a177.44,177.44,0,0,0,26.88-2.4,106.91,106.91,0,0,0,24-7,90.41,90.41,0,0,0,21.84-13.44l2.4.48L1822.15,1894l-2.4,1a65.89,65.89,0,0,0-14.89-3.84q-9.12-1.44-20.64-2.16t-24.72-1q-13.21-.26-27.13-.24H1570.1v-2.4q11.52-12,15.12-38.89a467.39,467.39,0,0,0,3.6-61.45V1654.43a467.49,467.49,0,0,0-3.6-61.45q-3.6-26.88-15.12-38.89v-2.4Z" transform="translate(-110.71 -94)"/><path d="M616.74,2176.47c-11.6,20.54-30.82,58.6-15.67,65.29,13.5,6,37.33-10.59,45.87-20.71,10.66-12.64,19.07-31.23,22.46-56.66,0-.37.18-1.51.38-3.34,3.06-27.61-1.54-54.49-13.09-75.12-16.57-27.44-33.51-35.19-49.52-36.64-133-12-179.48,550.58,28.09,386.57,39.11-30.9,64-78.31,74.34-107.85a14.84,14.84,0,0,1,28,9.76c-11.64,33.07-39.6,86.28-84,121.35-31.15,24.62-70.16,40.45-117.07,35-183.13-21.24-177.48-443.16,47.77-474.46a126,126,0,0,1,23.37.48l2.17.29c32.92,4.37,57.48,23.81,72.74,51.09,14.54,26,20.42,59.19,16.7,92.8-.07.59-.23,1.87-.5,3.92-7.48,56.19-36.2,87.4-66.39,98.83-17.14,6.49-34.89,6.62-49.95,1.34-15.88-5.56-28.76-17-35.18-33.28-9.06-23-4.68-55.35,24.48-92.92C586.79,2120.5,633.91,2146.06,616.74,2176.47Z" transform="translate(-110.71 -94)"/><path d="M808.68,2230.37c29.25-52.38,58.34-64.16,86.84-52.29,72.77,30.28,50.55,202.59,68.54,262.08,4,13.26,7.1,15.89,12,14.22,9-3,20.24-22.73,27.23-34.17,19.55-32,38.2-71,47.11-94.33a14.87,14.87,0,0,1,27.79,10.58c-9.38,24.53-29,65.56-49.56,99.21-16,26.13-33,48.32-47.59,56.68-22,11.58-46.48,12.54-59.57,4.56-63.72-38.94-29.08-368.18-86.87-252.12-22.85,40.91-47.61,112.19-74.74,226-.86,9-1.59,15-2.13,17.37-4,17.19-13.17,22.26-23.77,19.78-2.71-.63-9.21-1.17-11.61-8.86-17.15-55-22.21-278.54-18.12-436.32.91-35.19-6.24-58.93,41.12-59.33,49.92-.42,39.52,34.89,40,73-1.38,31.19-8,144.36-14.51,244.33C783.92,2281.75,796.51,2252.16,808.68,2230.37Z" transform="translate(-110.71 -94)"/><path d="M1255.52,2399.77c35-8.2,68.89-50.53,87.8-80.51a14.84,14.84,0,1,1,25.11,15.81c-25.41,39.92-58.15,79.93-106.16,93.65a135.5,135.5,0,0,1-23.3,3.36,145.87,145.87,0,0,1-19.65,30.27c-17.19,20.26-39.26,34-63.07,36.78a86.42,86.42,0,0,1-39.31-4.08c-23.84-8.44-41.62-27.19-54.17-51.33-11.76-22.64-19-50.23-22.19-78.23-4.79-41.35-.95-84.23,9.43-113.53,5.27-12.32,19-15.79,32.75-14.26a110.23,110.23,0,0,1,4.3-12.36c6.12-14.64,15.15-26.78,26.51-35.07a60.11,60.11,0,0,1,42.13-11.52c16.84,1.64,35.19,9.91,54,26.69,20.18,18,33.8,45.41,41,77.06,7.39,32.39,8.12,69.54,2.31,105.37q-1.07,6.55-2.67,13Q1252.94,2400.38,1255.52,2399.77Zm-141-163.05a82,82,0,0,0-3.89,11.77c5.59,4.61,8.24,10.08,5.47,15.31-2.84,9.75-4.8,22.24-5.83,36.17.23,1.08.47,2.17.72,3.25a128.46,128.46,0,0,0,5.35,17.34,131.81,131.81,0,0,0,56.71,66,118.45,118.45,0,0,0,46.21,15.33,127.4,127.4,0,0,0,4.52-18.72C1237,2303.64,1150.55,2150.39,1114.5,2236.72Zm43.77,175.58a161.42,161.42,0,0,1-45.21-38.85c9,60.81,35.15,111.42,83.59,69.72a113.53,113.53,0,0,0,9.58-13.14A150.48,150.48,0,0,1,1158.27,2412.3Z" transform="translate(-110.71 -94)"/><path d="M1413.18,2243.07c-.71,15.44-2.74,51.41-5.42,95.83,24-74.25,46.6-117.82,66.93-139.76,17.47-18.87,34.6-24.18,50.73-19.9,15.06,4,27.54,16.51,37.46,34,22.44,39.66,33.92,109.75,30.46,154.53q-.64,8.5-1.67,16.41a96.91,96.91,0,0,0,19.66-3c24.56-6.46,49.47-24.37,76.48-64.23a14.81,14.81,0,1,1,24.52,16.63c-31.66,46.74-62.33,68.14-93.45,76.31a129.88,129.88,0,0,1-32.66,4.14,178.67,178.67,0,0,1-15.35,41.51c-11.09,20.84-25.37,35-41.12,43.84a88.17,88.17,0,0,1-50.29,10.81,106.07,106.07,0,0,1-41.54-12.32c-19.49-10.36-29.88-23.43-33.3-37.39q-3.09,12.63-6.22,26l-.05.18c-5.34,79.78-10.58,149.94-12.8,159.31-4,16.82-13.17,21.78-23.78,19.35-2.7-.62-9.2-1.15-11.6-8.68-17.16-53.83-22.21-272.59-18.12-427,.91-34.44-6.24-57.67,41.12-58.06C1423.09,2171.23,1412.68,2205.78,1413.18,2243.07Zm83.25-23.82c-23.32,25.17-50.61,85-80.85,198.35a90.71,90.71,0,0,1,17.89-17.29c24.66-18.34,62.39-29.71,97-23.45C1531.17,2296.4,1508.23,2201.36,1496.43,2219.25Zm-14.76,261.37c29.5,1.85,43-30.87,47.27-73.83l-2.08-.42c-26.68-5.47-56.36,3.37-75.72,17.76-6.72,5-12,10.52-15.11,16.14-2.46,4.42-3.51,8.83-2.66,12.84,1.27,6,7,12.42,18.5,18.56A76.65,76.65,0,0,0,1481.67,2480.62Z" transform="translate(-110.71 -94)"/><path d="M1756.3,2243.07c-.7,15.44-2.74,51.41-5.42,95.83,24-74.25,46.6-117.82,66.93-139.76,17.48-18.87,34.6-24.18,50.73-19.9,15.06,4,27.55,16.51,37.46,34,22.45,39.66,33.92,109.75,30.47,154.53q-.66,8.5-1.67,16.41a96.71,96.71,0,0,0,19.65-3c24.57-6.46,49.48-24.37,76.48-64.23a14.82,14.82,0,1,1,24.53,16.63c-31.67,46.74-62.34,68.14-93.45,76.31a129.9,129.9,0,0,1-32.67,4.14,177.77,177.77,0,0,1-15.35,41.51c-11.08,20.84-25.36,35-41.11,43.84a88.22,88.22,0,0,1-50.3,10.81,106.07,106.07,0,0,1-41.54-12.32c-19.49-10.36-29.87-23.43-33.29-37.39q-3.09,12.63-6.22,26l0,.18c-5.34,79.78-10.58,149.94-12.81,159.31-4,16.82-13.17,21.78-23.77,19.35-2.71-.62-9.2-1.15-11.61-8.68-17.15-53.83-22.21-272.59-18.12-427,.91-34.44-6.24-57.67,41.12-58.06C1766.21,2171.23,1755.81,2205.78,1756.3,2243.07Zm83.25-23.82c-23.32,25.17-50.6,85-80.85,198.35a90.71,90.71,0,0,1,17.89-17.29c24.67-18.34,62.4-29.71,97-23.45C1874.29,2296.4,1851.36,2201.36,1839.55,2219.25Zm-14.76,261.37c29.5,1.85,43-30.87,47.27-73.83l-2.07-.42c-26.69-5.47-56.36,3.37-75.73,17.76-6.71,5-12,10.52-15.1,16.14-2.47,4.42-3.51,8.83-2.67,12.84,1.28,6,7,12.42,18.5,18.56A76.75,76.75,0,0,0,1824.79,2480.62Z" transform="translate(-110.71 -94)"/><path d="M2176.71,2459.41c26.19-10.82,49.24-29.38,68.67-51,24.91-27.75,43.82-60.51,55.93-88.85a14.84,14.84,0,1,1,27.32,11.62c-13.17,30.82-33.84,66.53-61.17,97-22.18,24.72-48.79,46-79.48,58.71-25.34,10.45-55.15,15-82.55,10-24.45-4.47-47-16.43-63-38.39-10-13.62-16.84-29.87-20.9-47.6-4.19-18.25-5.42-38.11-4-58.24,6.72-93.63,54.05-145.93,102.71-166.47,20.1-8.49,40.56-11.57,58.7-9.95,19.32,1.74,36.28,8.81,48.05,20.45,16.65,16.48,22.76,40.93,10.81,71.18-9.73,24.63-34.73,49.87-63.64,72.42-31.59,24.66-68.35,46.55-93.81,60.4C2081.84,2452.71,2109.5,2487.85,2176.71,2459.41Zm35.16-233.1c-8.52-20.38-38.91-13-58.44,2.8-35.76,28.87-62.42,85.29-70.56,136.23,22.12-12.74,49.09-29.71,73.05-48.42,25.19-19.66,46.67-40.86,54.22-60C2215.06,2244.51,2215.17,2234.2,2211.87,2226.31Z" transform="translate(-110.71 -94)"/><path d="M2406.2,2478.08c-14.81,12.55-28.55,19.11-41.12,21-16.6,2.45-30.52-2.92-41.88-13.54-10-9.32-17.62-22.69-23-38-10.72-30.25-13.27-69.66-8.27-99.44,13.16-78.17,44.14-133.17,75.86-157,13.59-10.21,27.7-15.23,41.29-14.61,14.44.66,27.6,7.39,38.29,20.67,8.68,10.78,15.73,26.41,20.32,47.17,10.66-49.39,19.23-98.33,25.87-136.32,2.74-15.69,5.2-29.74,7.69-41.7.29-7.29.51-13,.61-16.84,1-38.75,73.41-49,83.41-11,0,72.49-22.29,376.54-10.23,412.13,2.32,6.86,4.29,16.39,13.89,5.52,28.76-32.53,59.59-96.39,70.79-134.88a14.83,14.83,0,1,1,28.48,8.25c-12.07,41.51-45.61,110.69-77.06,146.28-11.1,12.56-22.53,21.56-33.65,25-61.26,18.69-76.84-126.5-79.15-258-7.71,36-16.62,72.82-26.91,106.65a14.64,14.64,0,0,1-1.5,4.87c-17.08,55-37.86,101.53-63.11,123.37C2406.59,2477.74,2406.4,2477.91,2406.2,2478.08Zm29.87-236.88c-35.14-108.26-148.23,299.78-49.05,214.21,21.27-18,39.45-59.47,54.82-109.59C2446.27,2295.42,2443.09,2262.83,2436.07,2241.2Z" transform="translate(-110.71 -94)"/><path d="M3374.56,2312.6a14.82,14.82,0,0,1,5.12,20.34c-18.08,30.32-35,48.28-50.63,56.88-18.79,10.34-35.64,8.51-50.6-1.6-12.61-8.52-23.12-23.28-31.78-41.29-10.62-22.09-18.73-49.74-24.56-76.2-3.78,26.37-8.93,56-15.43,84.91-10.15,45.17-23.68,89.05-40.65,117.4-1.09,1.83-2.14,3.44-3.12,4.84-9.95,14.18-22.46,21.61-34.64,24.32a47.38,47.38,0,0,1-34.33-5.11c-1-.59-1.83-1.12-2.48-1.58-21.69-15.23-37.68-51-49.1-88.09-10.81-35.14-17.81-71.91-21.37-91.71-7.76-43.1-11.34-57-13.23-57.26-.72-.08-4.33,11-11.1,31.5-4.87,14.75-9.34,30-14,46.09-4.2,14.31-8.56,29.22-12.44,41.65-22.5,72.16-51.68,140.8-100.32,125.63-1.11-.34-2.14-.69-3.09-1-41.21-15.24-64.79-73.83-74-140.13-8.77-63.4-4.85-134.94,9.25-180.18q1.44-4.63,3-8.73c6.74-18.39,77.75-14.23,67.88,17.42-16.43,68.76-22.77,472.19,68.91,178.2,4.78-15.34,8.63-28.47,12.33-41.07,5.17-17.65,10.07-34.38,14.28-47.13,9.8-29.63,26.84-63.51,43.52-71.87,86-43.05,103.73,239.34,130.11,239.64,10.08.12,18.3-21.86,35.69-99.3,14.81-65.92,22.37-135.05,22.37-158.3,0-33.22,49.69-24.08,54.25-6.28,10.18,39.75,9.28,136.74,40.72,179,5.6,3.79,12.12,4.36,19.67.21,11.24-6.17,24.31-20.62,39.48-46.06A14.84,14.84,0,0,1,3374.56,2312.6Z" transform="translate(-110.71 -94)"/><path d="M3432.42,2192.58c0,.25-.41,4.31-1,10.51-2.24,24.08-18.59,174.24-13.15,235.85,4.5,50.94,37.31,17.55,54.78-5.9,30-40.27,56.55-96.64,60.81-111.72a14.85,14.85,0,1,1,28.59,8c-4.71,16.72-33.48,78.29-65.57,121.37-21.57,28.95-45.76,50.54-68.6,49.25-98.44-5.55-85.66-233-79.53-298.89.31-3.31.54-5.77.87-10C3349.39,2162.88,3432.15,2166.46,3432.42,2192.58Zm1-83.74a42,42,0,1,1-42-42A42,42,0,0,1,3433.46,2108.84Z" transform="translate(-110.71 -94)"/><path d="M3600.54,2109.32h67.77a14.88,14.88,0,1,1,0,29.76H3598.5c-9.21,132.22-23.73,328.83,18.85,328.4a60.74,60.74,0,0,0,9.53-.54c17.94-2.38,33.8-10.77,50.76-30.65,18.71-21.94,38.5-57.14,62.86-111.75a14.83,14.83,0,0,1,27.08,12.1c-25.57,57.31-46.78,94.78-67.39,119-22.38,26.23-44.19,37.41-69.48,40.76a89.73,89.73,0,0,1-14.06.78c-101.71-2.73-103.43-225.41-97.3-358h-64a14.89,14.89,0,0,1,0-29.77h65.62c1.18-20.24,2.38-37,3.11-48.69.4-7.76.8-11.19,1.18-15.47,3.2-35.78,79.88-43.32,78.26,10C3603,2069.69,3601.94,2088.2,3600.54,2109.32Z" transform="translate(-110.71 -94)"/><path d="M3837,2230.37c29.26-52.38,58.34-64.16,86.84-52.29,72.77,30.28,50.55,202.59,68.54,262.08,4,13.26,7.1,15.89,12,14.22,9-3,20.23-22.73,27.22-34.17,19.55-32,38.2-71,47.11-94.33a14.87,14.87,0,0,1,27.79,10.58c-9.38,24.53-29,65.56-49.55,99.21-16,26.13-33,48.32-47.6,56.68-22,11.58-46.48,12.54-59.56,4.56-63.73-38.94-29.08-368.18-86.88-252.12-22.85,40.91-47.61,112.19-74.74,226-.86,9-1.58,15-2.13,17.37-4,17.19-13.17,22.26-23.77,19.78-2.71-.63-9.2-1.17-11.61-8.86-17.15-55-22.21-278.54-18.12-436.32.91-35.19-6.24-58.93,41.12-59.33,49.92-.42,39.52,34.89,40,73-1.38,31.19-8,144.36-14.51,244.33C3812.26,2281.75,3824.86,2252.16,3837,2230.37Z" transform="translate(-110.71 -94)"/><path d="M3497.31,1648.39c30.53,77.8,80.74,142.84,133.9,206,8.62,10.24,18.22,16.66,31.63,13.4s20.59-13.28,21.71-26.5c5.52-65.27,31.61-125.18,47.79-187.67,7.59-29.29,15-59.38,2.33-90-8.61-20.77-22.06-35.72-44.43-39.24-23-3.62-39.57,8.77-53.12,26.06-11.59,14.78-15.18,33.16-23.75,52.35-20.6-15.2-33.54-35.5-53.83-47.44-17.83-10.48-36.17-16-55.06-3.37-19.66,13.11-25,32.82-20.61,54.71C3486.71,1621,3492,1634.82,3497.31,1648.39Z" transform="translate(-110.71 -94)"/><path d="M523.34,1648.39c30.53,77.8,80.75,142.84,133.9,206,8.62,10.24,18.22,16.66,31.63,13.4s20.59-13.28,21.71-26.5c5.52-65.27,31.61-125.18,47.79-187.67,7.59-29.29,15-59.38,2.33-90-8.61-20.77-22.06-35.72-44.43-39.24-23-3.62-39.57,8.77-53.12,26.06-11.59,14.78-15.18,33.16-23.75,52.35-20.6-15.2-33.54-35.5-53.83-47.44-17.83-10.48-36.17-16-55.06-3.37-19.66,13.11-25,32.82-20.61,54.71C512.74,1621,518,1634.82,523.34,1648.39Z" transform="translate(-110.71 -94)"/><path d="M3384,3224.25c73.28,2.14,128.1,30.37,178.24,73.51,28.61,24.62,62.91,43.72,97,60.46,22.17,10.88,48.33,15.58,73.24,18.37,24.54,2.76,47.77-7.39,57.93-31.09,10.41-24.31,9.46-51.31-8.61-72.25-15-17.44-32.23-35.29-52.22-45.81-107.62-56.6-219.52-59.15-333.37-20.32C3393.13,3208.17,3391.49,3213.47,3384,3224.25Z" transform="translate(-110.71 -94)"/><path d="M3314.73,3097.34c10.48-6.17,17.07-9.52,23.08-13.69,25.61-17.74,53.75-26.06,85-25,16.53.54,33.31.92,49.6-1.33s32.29-6.74,47.71-12.27c17.84-6.4,24.28-21.6,23.81-39.58-.51-19.44-11.83-34.5-31-39.58-35.08-9.3-69.42-4.33-100.67,12.77-43.21,23.65-77,57.35-97.38,103.1C3313.79,3084.15,3314.73,3087.45,3314.73,3097.34Z" transform="translate(-110.71 -94)"/><path d="M3373.94,3377.47c36.39,52.88,62.21,93.62,91.65,131.56,11.62,15,30,26.49,47.64,34.57,21.07,9.67,49.29-9.48,49.7-33.14.28-16.56-1-36.07-9.41-49.35C3515.53,3401,3460.14,3373.16,3373.94,3377.47Z" transform="translate(-110.71 -94)"/><path d="M1130.17,3224.25c-73.28,2.14-128.1,30.37-178.24,73.51-28.61,24.62-62.91,43.72-97,60.46-22.17,10.88-48.34,15.58-73.24,18.37-24.54,2.76-47.77-7.39-57.93-31.09-10.41-24.31-9.46-51.31,8.61-72.25,15-17.44,32.22-35.29,52.22-45.81,107.61-56.6,219.52-59.15,333.37-20.32C1121,3208.17,1122.66,3213.47,1130.17,3224.25Z" transform="translate(-110.71 -94)"/><path d="M1199.42,3097.34c-10.48-6.17-17.07-9.52-23.09-13.69-25.6-17.74-53.74-26.06-85-25-16.53.54-33.31.92-49.6-1.33s-32.29-6.74-47.71-12.27c-17.84-6.4-24.28-21.6-23.81-39.58.51-19.44,11.83-34.5,31-39.58,35.08-9.3,69.41-4.33,100.67,12.77,43.21,23.65,77,57.35,97.38,103.1C1200.35,3084.15,1199.42,3087.45,1199.42,3097.34Z" transform="translate(-110.71 -94)"/><path d="M1140.21,3377.47c-36.39,52.88-62.21,93.62-91.65,131.56-11.62,15-30,26.49-47.64,34.57-21.07,9.67-49.29-9.48-49.7-33.14-.28-16.56,1-36.07,9.41-49.35C998.62,3401,1054,3373.16,1140.21,3377.47Z" transform="translate(-110.71 -94)"/><path d="M1426.86,3738q-24.45,0-40.75-1.36-32.61-1.36-46.53-18t-22.75-62.17q-14.28-78.77-23.09-245.89-4.1-82.83-4.09-205.13,0-122.94,4.09-184.09,7.46-91.69,18.66-160t22.09-84.55q14.25-17,32.94-19t24.79-2q66.57,0,70,54.34,1.36,19.71,1.36,40.08,0,41.46-8.14,196.3-2.73,60.48-2.72,154.88,0,319.95,17,474.13,57-6.8,83.55-6.8,40.07,0,59.43,9.86t19.37,19.35q0,15.63-36.69,21.74Q1553.88,3725.77,1426.86,3738Z" transform="translate(-110.71 -94)"/><path d="M1864.37,3598.1q-27.15,0-57.73-8.17-169.14-41.41-169.14-259.48,0-104.58,50.26-205.13,11.54-23.09,37.36-62.49l-29.19-38.72q-28.56-37.34-28.54-53.67,0-17.62,42.11-17.65,34.63,0,57.06,12.23t47.56,42.8q17,20.38,27.85,29.21a101.24,101.24,0,0,0,25.8,14.93q67.92,26.52,155.56,26.49,69.27-.64,150.11-34.63,28.51-19,57.73-19,12.23,0,25.82,7.48,17.64,12.24,17.65,29.9a82,82,0,0,1-4.75,27.16q-6.81,12.25-36.67,27.85-41.44,21.75-99.86,29.89-19,3.39-78.11,4.08-81.51-3.37-106.65-10.2l-27.85-4.75q0,1.35,30.57,40.08,86.92,110.05,92.39,187.48,1.36,28.52,1.36,40.75,0,108-82.19,162.35Q1919.38,3598.1,1864.37,3598.1Zm-29.88-72q9.49,0,26.49-10.87,48.23-32.6,57.74-108.68.67-9.5.69-19.68,0-67.93-52.31-147.41-41.46-62.47-53-67.93-6.13,0-21.74,53.67-17,57.77-17,127,0,46.89,5.42,76.77,10.86,48.9,34.66,83.55,8.13,13.57,12.9,13.57Z" transform="translate(-110.71 -94)"/><path d="M2389.54,3729.18q-43.5,0-72-31.24-88.32-95.08-166.41-594.36-24.48-155.53-24.46-192.9,0-49.59,63.85-49.59,42.09,0,55.7,21.74,16.31,40.08,60.45,302.94,58.41,346.44,95.1,428.62,16.29,36.69,19.7,36.69,5.42,0,38-59.1,59.09-110,108.68-318.57,0-7.45-27.16-21.07-82.18-42.09-136.53-134.5-33.28-72.66-33.28-139.23,0-149.45,146-149.45,56.37,0,100.52,31.93,80.83,59.79,80.83,188.15,0,70-5.42,113.44l-8.84,59.78,19,.67q43.47,0,99.87-12.23,16.28-6.09,38-6.11,28.52,0,28.54,22.43l-.69,4.75q0,16.31-40.08,32.6-54.36,17-119.55,21.74l-40.06,2.72q-70.66,300.9-161.68,391.93Q2458.81,3729.19,2389.54,3729.18Zm192.23-541.37q4.08,0,8.84-36,4.72-48.22,4.75-103.24,0-33.29-3.39-50.28a219.06,219.06,0,0,0-27.52-67.24q-19.35-31.25-40.41-43.47-8.17-4.08-11.54-4.08t-8.84,4.77q-22.42,21.06-22.42,87.62,0,36.68,7.47,66.57,12.23,50.94,48.92,108.68Q2574.29,3187.83,2581.77,3187.81Z" transform="translate(-110.71 -94)"/><path d="M2956.85,3751.61q-29.22,0-46.19-6.8-58.41-25.16-91-206.5-18.34-103.91-18.34-203.1,0-154.86,44.14-298.2,36-109.35,91-154.85,32.59-27.16,70.65-27.18,107.31,0,154.86,108,62.49,137.87,62.51,238.41,0,128.4-116.85,184.76-27.17,12.93-71,26.17t-73,18.66q-11.57,1.37-14.28,4.08c-1.82,1.82-2.7,5.88-2.7,12.23q0,17,15.62,102.57,12.9,72,16.29,72,5.44,0,28.54-108.68l18.33-8.83a89.75,89.75,0,0,1,38-8.82q44.84,0,44.84,25.13,0,13.61-7.48,61.12-11.54,73.38-29.21,108.69-28.52,58.4-89.67,60.45Zm-14.26-378.35q44.84-13.59,63.85-21.07,59.08-21.72,89.67-76.75,13.57-29.21,13.59-77.44,0-103.23-53-217.36-14.29-30.57-18.34-30.57-7.5,0-27.19,38-37.36,72-56.37,190.87-12.24,79.47-12.23,146Z" transform="translate(-110.71 -94)"/><path d="M589.62,811.1q-50.89,0-71.75-73-8.36-28.79-8.35-73,1.67-93,23.78-204,30.87-156,30.87-210.67,0-11.27-3.33-30.45l-8.76,8.34q-28.79,28-60.91,91.78-19.62,38.79-30.87,69.46t-19.61,74q-8.34,43.39-19.6,121Q411.48,651.75,409.4,658q-2.08,9.18-25.44,9.18-40.47,0-43.8-33-1.68-17.1-3.34-80.51-1.68-52.56-4.8-85.1T318.46,378.5l-6.26,9.18q-12.93,20-30.87,72.59a1212.16,1212.16,0,0,0-43.8,168.11q-17.94,89.7-17.94,104.71,0,8.76-11.26,16.27A68.42,68.42,0,0,1,169.53,761a52.91,52.91,0,0,1-15-2.08q-9.18-2.09-14.6-14.39t-9.6-43q-4.17-30.66-9.18-88.23-10.42-120.15-10.43-216.51,0-77.6,6.68-139.34,4.17-40.87,8.76-49.64,7.09-13.33,29.62-13.35,26.28,0,40,14.19l6.67,7.92q-1.67,143.1-1.67,165.62,0,72.58,2.09,112.63L210,472q20.85-68.42,39.21-100.54,21.69-37.55,53-40.88a109.89,109.89,0,0,1,19.61,1.67q46.31,7.5,59.65,45.47,6.27,15.85,7.93,15.85c.55,0,.84-1,.84-2.92q0-4.59,11.26-32.12t25.86-57.15q22.11-45.88,47.14-78.64t45.06-41.92a67.75,67.75,0,0,1,25-4.59q35.45,0,63,22.73t28.36,53.4q.84,30.66.84,34.83,0,58-21.69,171.88-25,131.82-26.7,211.5,0,65.07,17.94,97.2,2.91,5.41,10.43,5.42a37.43,37.43,0,0,0,12.09-2.5h2.09q7.1,0,7.09,10.43a54.88,54.88,0,0,1-.83,8.76q-2.5,10.84-24.62,17.94A75.1,75.1,0,0,1,589.62,811.1Z" transform="translate(-110.71 -94)"/><path d="M809.47,693.88a137.66,137.66,0,0,1-35.46-5Q670.14,663.43,670.13,529.52q0-64.24,30.87-126,7.1-14.17,23-38.38L706,341.38q-17.52-23-17.52-33,0-10.85,25.86-10.85,21.28,0,35,7.51t29.21,26.28Q789,343.89,795.7,349.3a62,62,0,0,0,15.85,9.18q41.72,16.26,95.53,16.27,42.55-.42,92.2-21.28,17.52-11.67,35.45-11.68,7.51,0,15.86,4.59,10.85,7.51,10.84,18.36a50.11,50.11,0,0,1-2.92,16.68q-4.17,7.51-22.52,17.11-25.46,13.35-61.33,18.35-11.68,2.1-48,2.5-50.06-2.07-65.5-6.25l-17.1-2.92q0,.84,18.77,24.61Q916.26,502.4,919.6,550q.82,17.52.83,25,0,66.33-50.48,99.7Q843.25,693.89,809.47,693.88Zm-18.36-44.22q5.83,0,16.27-6.67,29.61-20,35.46-66.75c.27-3.89.42-7.93.42-12.1q0-41.71-32.13-90.52-25.44-38.39-32.53-41.72-3.76,0-13.35,33-10.44,35.46-10.43,78,0,28.78,3.33,47.13,6.68,30,21.28,51.32,5,8.34,7.93,8.34Z" transform="translate(-110.71 -94)"/><path d="M1461.91,811.1q-50.9,0-71.75-73-8.36-28.79-8.34-73,1.65-93,23.77-204,30.87-156,30.88-210.67,0-11.27-3.34-30.45l-8.76,8.34q-28.78,28-60.91,91.78-19.61,38.79-30.87,69.46t-19.61,74q-8.34,43.39-19.6,121-9.6,67.17-11.68,73.42-2.1,9.18-25.45,9.18-40.47,0-43.8-33-1.68-17.1-3.34-80.51-1.68-52.56-4.8-85.1t-13.56-90.11l-6.25,9.18q-12.95,20-30.87,72.59a1210.77,1210.77,0,0,0-43.81,168.11q-17.94,89.7-17.93,104.71,0,8.76-11.27,16.27A68.41,68.41,0,0,1,1041.83,761a52.93,52.93,0,0,1-15-2.08q-9.18-2.09-14.6-14.39t-9.6-43q-4.17-30.66-9.17-88.23Q983,493.22,983,396.86q0-77.6,6.67-139.34,4.17-40.87,8.76-49.64,7.09-13.33,29.62-13.35,26.28,0,40,14.19l6.67,7.92q-1.66,143.1-1.67,165.62,0,72.58,2.09,112.63l7.09-22.94q20.85-68.42,39.22-100.54,21.67-37.55,53-40.88a109.89,109.89,0,0,1,19.61,1.67q46.31,7.5,59.66,45.47,6.26,15.85,7.92,15.85c.56,0,.84-1,.84-2.92q0-4.59,11.26-32.12t25.86-57.15q22.11-45.88,47.14-78.64t45.06-41.92a67.75,67.75,0,0,1,25-4.59q35.45,0,63,22.73t28.37,53.4q.83,30.66.83,34.83,0,58-21.69,171.88-25,131.82-26.7,211.5,0,65.07,17.94,97.2,2.91,5.41,10.43,5.42a37.54,37.54,0,0,0,12.1-2.5h2.08q7.1,0,7.09,10.43a54.88,54.88,0,0,1-.83,8.76q-2.51,10.84-24.61,17.94A75.21,75.21,0,0,1,1461.91,811.1Z" transform="translate(-110.71 -94)"/><path d="M1591.65,218.73q-26.28,0-32.12-7.09l-5.84-5.84,6.26-18.36a103.79,103.79,0,0,0,6.67-38q0-12.93-1.25-17.94a26.62,26.62,0,0,0-5.84-10.43q-6.67-7.5-6.68-13.35,0-7.92,14.19-11.68A58.91,58.91,0,0,1,1582.89,94q20.85,0,33,10.84,17.52,17.11,17.52,44.64,0,20.45-9.6,46.72-4.59,14.19-12.93,18.77Q1604.17,218.74,1591.65,218.73Z" transform="translate(-110.71 -94)"/><path d="M1802.32,824a187.37,187.37,0,0,1-30-2.5q-66.75-11.68-87.19-53.81-6.67-12.11-6.67-31.29V724.75q0-40.87,43.39-96.37,25.44-32.94,63-64.24Q1662.57,447.34,1645.05,424q-34.63-44.62-34.63-90.52,0-27.94,9.6-48,8.34-17.52,27.11-36.29,42.13-41.7,95.53-41.71a153.21,153.21,0,0,1,38,5q37.55,9.18,59.23,29.62,35,30.87,40.05,80.1c.55,5,.84,8.62.84,10.84q0,5-6.26,6.05T1862,341.79q-7.92,0-21.27-5.42-16.7-5.83-22.53-21.28-12.93-36.7-28.37-52.14-12.1-12.1-17.93-12.1-12.94,0-34.21,17.52t-31.29,37.34a89.27,89.27,0,0,0-10,40.67q0,44.22,45.05,92.61,20.44,22.13,89.69,92.19l26.28-14.6q22.95-12.92,66.33-32.12,86.36-37.54,107.63-37.54,18.36.42,20,24.19a11.85,11.85,0,0,1-2.09,7.09q0,2.93-5.22,7.51t-30.24,15Q1945,527,1896.18,558.3l-22.53,15.44q0,1.66,13.35,19.6Q1941.23,668,1941.23,721a87.68,87.68,0,0,1-7.09,35.45q-19.19,35.88-58.61,51.73T1802.32,824Zm-29.62-40.46q6.25,0,18.77-3.75,49.63-12.95,65.5-48.4,3.33-7.92,3.33-20a106.46,106.46,0,0,0-5-33.79q-13.36-40.05-32.12-62.16l-15.86,17.11q-45.88,51.72-55.06,100.12a87.49,87.49,0,0,0-.42,8.76,89.44,89.44,0,0,0,1.67,16.68Q1759.77,783.56,1772.7,783.57Z" transform="translate(-110.71 -94)"/><path d="M2278.72,781.48q-11.26,0-17.52-5.42-26.7-31.69-26.7-288.68,0-121.39,4.17-188.56,2.51-47.55,9.6-105.12,2.91-26.7,7.51-36.71,6.25-14.6,29.62-14.6a84.1,84.1,0,0,1,19.6,2.5q19.61,4.59,26.28,14.6,3.76,6.67,4.17,33.79,0,27.54-4.17,87.19-7.92,121-7.92,169c0,7.24.27,10.85.83,10.85q1.67,0,22.95-25.45Q2366.73,411.47,2373,401q7.52-13.77,14.6-36.29,13.77-43.39,13.77-67.58a47.89,47.89,0,0,0-.42-6.89,29.79,29.79,0,0,1-.42-4.38q0-9.17,20-9.18a63.7,63.7,0,0,1,24.19,4.59q15,6.26,15.86,15.86l.41,11.26q0,58.41-28.37,106.79-8.76,14.61-26.07,36.09t-30.66,34.41q-9.18,9.18-9.18,10.85,0,1.26,10,3.34,21.28,4.17,58.82,28,20,13.77,34.63,18.35t37.34,4.8q22.73.21,31.91,1,20.43,2.1,23.78,12.1a43.85,43.85,0,0,1,2.5,13.77v2.92Q2564.49,595,2529.44,595q-44.22,0-102.63-36.71-17.1-10.84-27.11-15a89.2,89.2,0,0,0-30.45-5.42,138.41,138.41,0,0,0-22.53,2.09q-16.28,2.91-22.53,7.5-3.34,4.6-3.34,51.73t2.51,80.52q2.08,18.36,5.84,79.26l-8.35,7.51Q2303.33,781.49,2278.72,781.48Z" transform="translate(-110.71 -94)"/><path d="M2577,305.5a161,161,0,0,1-19.6-.84q-29.2-8.34-29.2-28.36,0-5,5.84-12.52a17.48,17.48,0,0,1,11.68-6.26,108.24,108.24,0,0,1,10.84-.41,82.82,82.82,0,0,1,32.54,7.09q23.37,10.43,23.36,22.11,0,6.26-6.67,12.51A20.1,20.1,0,0,1,2597,304Q2592,305.51,2577,305.5ZM2579.91,746q-34.62,0-40.88-23.36-10.43-44.2-10.43-178.54,0-64.24,5.84-148.51,2.92-42.14,7.93-45.47,11.27-7.09,27.12-7.1,23.36,0,35,10.43c2.77,1.95,4.52,5.22,5.21,9.81s1.18,19.26,1.46,44l-.83,186.47q0,67.17,1.25,94.28,1.66,20.44,1.67,31.29,0,17.52-9,22.11T2579.91,746Z" transform="translate(-110.71 -94)"/><path d="M2803.51,821.11q-37.55,0-65.07-28.36-25-24.63-37.13-72.59-18.36-78.42-18.77-235.28,0-134.74,12.93-210.25-36.3,5.43-45.06,5.42-24.19,0-24.19-16.68,0-9.18,7.92-15,6.68-4.59,35.67-9.6t31.29-8.34q2.3-3.33,4.38-23.78,3.75-31.69,33.79-31.7a76.48,76.48,0,0,1,13.35,1.25q15.86,2.08,21.69,8.13t7.51,21.9l2.09,16.69q57.15-6.26,64.24-6.26,25,0,25,12.93,0,21.28-55.48,27.54L2781,261.7q-13.36,111.38-13.35,278.66,0,65.92,6.67,113.89,10.43,91.79,39.22,117.64a19.11,19.11,0,0,0,9.59,2.92,15.8,15.8,0,0,0,10.85-4.59q24.18-28.37,76.34-164.78,10.43-30.45,17.1-44.64t14.19-17.93q3.75-1.67,12.09-1.67,22.53,6.25,22.53,20,0,6.67-23.36,78-53.4,153.93-100.12,171a108.43,108.43,0,0,1-15.85,4.59Q2809.77,821.12,2803.51,821.11Z" transform="translate(-110.71 -94)"/><path d="M3053.81,796.92q-20.86,0-31.28-2.5Q2970,782.74,2946.19,696q-20-70.1-20-151.44,0-60.06,10.85-126,34.2-194.39,142.67-194.4,25.44,0,44.64,9.18,34.62,16.69,48.8,89.27a204.84,204.84,0,0,1,4.59,40.47q0,10.43-1.25,23.36-.84,10-2.5,13.77-4.18,9.18-23.36,9.17-31.71,0-37.13-11.68-1.26-2.91-4-32.33A268.7,268.7,0,0,0,3098,308.42a1.67,1.67,0,0,1-.41-1.25q-10.44-31.29-14.61-31.29c-1.66,0-4.45,2.37-8.34,7.09q-30.45,37.54-49.64,126.4-12.93,67.17-12.93,147.68,0,70.08,14.6,127.23,17.1,67.59,26.28,67.59,2.91,0,19.61-20.86,28.36-35,66.33-121,12.91-29.61,17.52-35,7.92-9.18,24.61-9.18a51.69,51.69,0,0,1,21.69,4.38q9.6,4.38,10.85,10.64,0,3.34-6.26,21.06t-16.06,42.56q-9.81,24.82-20.65,49.85a262.59,262.59,0,0,1-35.25,58.4Q3114.3,779,3094.7,789.41a62.13,62.13,0,0,1-16.07,5.63Q3070.92,796.5,3053.81,796.92Z" transform="translate(-110.71 -94)"/><path d="M3511,791.5a84.67,84.67,0,0,1-17.94-2.09q-29.21-6.67-32.12-26.28-1.68-9.6-3.34-139.75-21.71,3.35-71.75,4.17l-55.9,2.09q2.51,67.58,2.5,78.42,0,14.61-.83,17.52-4.18,12.95-33.8,12.94-35-.42-41.29-18.36-11.68-38.79-11.69-258.64,0-143.08,2.09-157.69,2.51-17.93,28.78-17.94,17.12,0,28.79,4.8t15.85,11.89q7.1,15.44,7.51,189.39V593.76q93.45-3.75,112.43-5.42t19-3.76q.82-4.16,3.75-78.42a2894.9,2894.9,0,0,1,28.37-317.47q4.59-35.87,10.64-41.3T3517.7,142q8.76,0,20.44,3.75,20.45,6.27,29.62,18.78,2.5,4.17,2.5,25,0,27.94-7.51,117.22-17.94,217.76-17.93,387.13,0,36.3-.21,54.23t-1.88,26.28q-1.67,8.34-5.21,11.06t-10.64,4.38A69.47,69.47,0,0,1,3511,791.5Z" transform="translate(-110.71 -94)"/><path d="M3707.51,788.16q-17.94,0-28.37-4.17-35.88-15.43-55.9-126.82A717.93,717.93,0,0,1,3612,532.44q0-95.12,27.12-183.14,22.09-67.16,55.9-95.11,20-16.68,43.38-16.69,65.91,0,95.11,66.33,38.39,84.69,38.38,146.42,0,78.86-71.75,113.47-16.7,7.93-43.59,16.06t-44.85,11.48q-7.09.84-8.76,2.5c-1.11,1.11-1.67,3.62-1.67,7.51q0,10.43,9.6,63,7.92,44.22,10,44.22,3.33,0,17.52-66.75l11.26-5.42a55.18,55.18,0,0,1,23.37-5.42q27.52,0,27.53,15.43,0,8.35-4.59,37.55-7.1,45-17.94,66.74-17.52,35.88-55.06,37.13Zm-8.76-232.36q27.54-8.34,39.21-12.93,36.3-13.35,55.07-47.14,8.34-17.94,8.34-47.56,0-63.41-32.54-133.49-8.76-18.78-11.26-18.78-4.59,0-16.69,23.37-22.93,44.22-34.62,117.22-7.52,48.81-7.51,89.69Z" transform="translate(-110.71 -94)"/><path d="M4230.64,800.67a112.52,112.52,0,0,1-21.28-2.08q-18.76-2.93-31.08-9.6t-24.4-19.6q-17.52-17.94-21.07-35.46a166.13,166.13,0,0,1-3.55-33q0-53,45.48-212.34,26.28-103,29.61-130.15,1.66-16.68,1.67-32.12,0-33.37-4.38-57.15t-11.05-31.71q-4.18,0-24.61,18.77-30.46,28.78-63.41,93.45-77.19,139.75-80.93,280.33l-3.34,48.81q-1.68,15-31.29,19.19a88.14,88.14,0,0,1-11.68.84q-20.86,0-31.7-12.52-15.45-15.43-30.46-123.9-9.6-65.49-9.59-193.56,0-89.27,6.88-94.7t19.4-5.42q21.27,0,40,13.35a25.28,25.28,0,0,1,8.34,9.59q5,10.44,10.85,89.69,4.58,52.15,5.84,52.15c.27,0,.55-.42.83-1.25q2.92-12.93,16.27-44.22,31.29-72.59,60.49-116.39Q4122.17,197,4175.15,197a87.83,87.83,0,0,1,26.28,4.17q32.13,8.76,50.48,27.53,30,35.88,30,120.14,0,48.4-22.95,137.25-50.47,187.73-50.47,229.44a99.93,99.93,0,0,0,2.92,22.53q4.16,20.45,9.59,20.44,2.91,0,15-5.84,11.26-8.34,28.37-28.58a267.67,267.67,0,0,0,30.87-45.68q52.56-124.73,60.49-153.51,2.91-10.42,7.71-13.77t15.23-3.34q3.75,0,14.6,4.59,12.51,5.43,12.51,12.52,0,7.5-7.09,30-17.1,57.57-55.48,150.6Q4299.47,800.68,4230.64,800.67Z" transform="translate(-110.71 -94)"/><path d="M2837.59,1686a62.1,62.1,0,0,0-21.13-15.4,67,67,0,0,0-27.76-5.55h-4.65a68.29,68.29,0,0,0-27.94,5.55,61.66,61.66,0,0,0-21.31,15.4,69.49,69.49,0,0,0-13.61,23.82,98.74,98.74,0,0,0,0,61.07,71.82,71.82,0,0,0,13.61,23.82,58.6,58.6,0,0,0,21.31,15.4,70.27,70.27,0,0,0,27.94,5.37h4.65a69,69,0,0,0,27.76-5.37,59,59,0,0,0,21.13-15.4,71.82,71.82,0,0,0,13.61-23.82,98.74,98.74,0,0,0,0-61.07A69.49,69.49,0,0,0,2837.59,1686Zm212.93-18.09c-3.58,0-7.76.07-12.54.18a97.32,97.32,0,0,0-11.82.9v142.55a105,105,0,0,0,12,.9q7,.18,12.36.17,33.32,0,52.29-18.44t19-53.91q0-35.44-19-53.9T3050.52,1667.91ZM2539.6,1686a62.1,62.1,0,0,0-21.13-15.4,67,67,0,0,0-27.76-5.55h-4.65a68.26,68.26,0,0,0-27.94,5.55,61.66,61.66,0,0,0-21.31,15.4,69.33,69.33,0,0,0-13.61,23.82,98.74,98.74,0,0,0,0,61.07,71.64,71.64,0,0,0,13.61,23.82,58.6,58.6,0,0,0,21.31,15.4,70.24,70.24,0,0,0,27.94,5.37h4.65a69,69,0,0,0,27.76-5.37,59,59,0,0,0,21.13-15.4,71.82,71.82,0,0,0,13.61-23.82,98.74,98.74,0,0,0,0-61.07A69.49,69.49,0,0,0,2539.6,1686Zm843.09,53.93c-2.54-4-4.85-8.22-7.54-12-1.57-2.25-2.68-4.13-1-6.93a2,2,0,0,0,.13-.63c.76-4.09,1.48-8.19,2.29-12.26.28-1.44.75-2.82,1.21-4.49-.78-1.63-2-2.5-3.44-2-1.63.52-3.55.89-4.72,2.2-2.18,2.46-5,2.78-7.39,4.23-1.88,1.11-3.78,1.31-5.24-1.16a.78.78,0,0,0-.47-.26c-1.94-.53-3.26-2.22-4.58-3.93a4.23,4.23,0,0,0-1.19-1.13,12.08,12.08,0,0,1-5-4.35,1.58,1.58,0,0,0-2.3-.68c-1.25.65-1.83,3.06-1.28,4.72a11,11,0,0,1,.89,3q.23,7.33.17,14.67a3.38,3.38,0,0,1-.95,2.39c-3,1.59-5,4.71-7.67,6.83a34.72,34.72,0,0,0-4.91,5c-1.5,1.8-1.08,3.87.87,4.75,1.35.61,2.77,1,4.16,1.49,2.12.74,4.26,1.45,6.38,2.22a17.32,17.32,0,0,1,3.1,1.35c.89.53,2.09,1.09,2.45,2.05,1.1,3,1.86,6.19,2.77,9.3.8,2.7,1.49,5.46,2.44,8.08,1.24,3.4,2.94,3.61,4.65.54,2.48-4.45,4.9-9,7.14-13.6,1.08-2.23,2.37-3.09,4.37-3.07,4,0,8.07-.15,12.1-.25,1.2,0,2.52.16,3.18-1.5A4.7,4.7,0,0,0,3382.69,1739.93Zm-36.82-191.61H1981.07l66.12,182.29-66.12,182.3h1364.8l-66.12-182.3ZM2330.26,1686.9a63.33,63.33,0,0,0-16.3-9.85,86.46,86.46,0,0,0-17.91-5,150.41,150.41,0,0,0-19.88-2q-10.4-.35-22.2-.35h-50.86v49.42h40.83a257.3,257.3,0,0,0,31.87-1.79q14.33-1.78,22.21-8.59l1.79.71v72.71l-1.79.72a63.56,63.56,0,0,0-16.12-10.39,77,77,0,0,0-17.37-5.19,138.73,138.73,0,0,0-19.34-2q-10.2-.36-22-.36h-20v24a348.78,348.78,0,0,0,2.68,45.84q2.68,20.07,11.28,29v1.79h-92.4v-1.79q8.6-8.94,11.28-29a348.65,348.65,0,0,0,2.69-45.84v-97.43a348.65,348.65,0,0,0-2.69-45.84q-2.68-20.06-11.28-29v-1.8h141.65q11.28,0,21.14-.53t17.55-1.61a44.62,44.62,0,0,0,12.35-3.23l1.79.72,12.9,76.29Zm294.41,54.44q0,33.32-10.75,57.49t-29,39.93a117.4,117.4,0,0,1-42.62,23.28,173.68,173.68,0,0,1-51.58,7.52h-4.65a174.93,174.93,0,0,1-51.94-7.52,117.31,117.31,0,0,1-42.62-23.28q-18.27-15.75-29-39.93t-10.75-57.49v-1.79q0-33.32,10.75-57.67t29-40.11a117.31,117.31,0,0,1,42.62-23.28,174.93,174.93,0,0,1,51.94-7.52h4.65a173.68,173.68,0,0,1,51.58,7.52,117.4,117.4,0,0,1,42.62,23.28q18.27,15.76,29,40.11t10.75,57.67Zm298,0q0,33.32-10.75,57.49t-29,39.93a117.4,117.4,0,0,1-42.62,23.28,173.68,173.68,0,0,1-51.58,7.52h-4.65a174.93,174.93,0,0,1-51.94-7.52,117.31,117.31,0,0,1-42.62-23.28q-18.27-15.75-29-39.93t-10.75-57.49v-1.79q0-33.32,10.75-57.67t29-40.11a117.31,117.31,0,0,1,42.62-23.28,174.93,174.93,0,0,1,51.94-7.52h4.65a173.68,173.68,0,0,1,51.58,7.52,117.4,117.4,0,0,1,42.62,23.28q18.27,15.76,29,40.11t10.75,57.67Zm256.08,53.72q-9.66,23.64-27.22,39.22a116.17,116.17,0,0,1-41.72,23.46q-24.18,7.89-53.55,7.88H2947.73v-1.79q8.59-8.94,11.28-29a348.78,348.78,0,0,0,2.68-45.84v-97.43a348.78,348.78,0,0,0-2.68-45.84q-2.69-20.06-11.28-29v-1.8h108.52q29.37,0,53.55,7.89a116.3,116.3,0,0,1,41.72,23.45q17.55,15.59,27.22,39.22t9.67,54.8Q3188.41,1771.43,3178.74,1795.06ZM2003.9,1730.61c0-15.95-10.22-28.88-22.83-28.88s-22.82,12.93-22.82,28.88,10.22,28.89,22.82,28.89S2003.9,1746.57,2003.9,1730.61Z" transform="translate(-110.71 -94)"/><path d="M2237.86,3986.46c-1-6.41-1.91-12.87-3.41-19.18s-3.48-12.6-5.1-18.92c-3.2-12.48-6.29-24.93-10.74-37.05-4.16-11.34-10.74-21.94-12.72-34-129.15-.19-258.08-4-387.21-.79-96,2.38-166.7-.12-245.7,57.48,32.43,22.28,68.37,38.52,105.89,50.94,159.74,52.86,394.6,59.84,564.23,70-1.23-9.56-1-19.16-1.32-29A343,343,0,0,0,2237.86,3986.46Z" transform="translate(-110.71 -94)"/><path d="M2762.38,3997.07A444.59,444.59,0,0,0,2508.21,3851c-90.56-16.83-189.25,5.1-275.93,23.16-.21.93-.39,1.88-.58,2.84,2.22,13.61,10,25.72,14.32,38.71,4,12.16,6.94,24.5,10.34,36.84,1.74,6.28,3.63,12.53,4.89,18.93s2.19,12.84,3.1,19.27a329.2,329.2,0,0,1,3.37,38.14c.23,9.4.09,18.55,1.45,27.68,1.46,2.19,2.81,4.22,3.82,6,3.2,5.59,14.37-.8,14.37-.8,7.72-9.43,6.11-24.22,11.49-38.94,14.56-39.84,49.91-55,88.31-52.07,25.58,2,94.92,15.68,119.75,24,29.25,9.74,106.06,22,157.41,32.47,18.28,3.72,53.59,18.19,79.43,19.57C2780.31,4048.66,2779.57,4022.17,2762.38,3997.07Zm-263.7-58.87a.62.62,0,0,1,0-1.23A.62.62,0,0,1,2498.68,3938.2Z" transform="translate(-110.71 -94)"/><path style="fill-rule:evenodd;" d="M3613.57,1190.69c-58.32,22.61-58.7,25.69-121.74,25.69H2889.08v34h604.56c59.07,0,64.29-1,119.93,17.69-58.32,22.6-58.7,21.11-121.74,21.11l-602.75,9.14h-76.54c-44.61,0-71.44-41.3-92.91-76.44-65.85-107.8-1407.6,111.1-1708.88,63.57-261.8-41.26-261.07-226.11,0-267.28,301.29-47.5,1643,171.42,1708.88,63.59,21.45-35.12,48.3-76.44,92.91-76.44h76.54l604.56,9.14c59.07,0,64.29-1,119.93,17.68-58.32,22.6-58.7,21.13-121.74,21.13H2889.08v34h604.56c59.07,0,64.29,3.56,119.93,22.26-58.32,22.59-58.7,25.68-121.74,25.68H2889.08v33.18h604.56C3552.71,1168.45,3557.93,1172,3613.57,1190.69Z" transform="translate(-110.71 -94)"/></svg>


