<svg height="500" width="500" xmlns="http://www.w3.org/2000/svg" viewBox="0 0 3625.45 5215.25"><path style="fill-rule:evenodd;" d="M2018.66,5101.28c-31,12-31.23,13.67-64.77,13.67H1633.22v18.1h321.63c31.43,0,34.21-.53,63.81,9.41-31,12-31.23,11.23-64.77,11.23l-320.67,4.87h-40.71c-23.74,0-38-22-49.43-40.67-35-57.35-748.85,59.1-909.13,33.82-139.28-21.95-138.89-120.29,0-142.19,160.29-25.28,874.09,91.19,909.13,33.83,11.41-18.69,25.7-40.67,49.43-40.67h40.71l321.63,4.86c31.43,0,34.21-.52,63.81,9.41-31,12-31.23,11.24-64.77,11.24H1633.22v18.1h321.63c31.43,0,34.21,1.9,63.81,11.84-31,12-31.23,13.66-64.77,13.66H1633.22v17.66h321.63C1986.28,5089.45,1989.06,5091.35,2018.66,5101.28Z" transform="translate(-529.64 -61.47)"/><rect x="2651.63" y="5001.44" width="451.49" height="35.41"/><path style="fill-rule:evenodd;" d="M3352.58,5080.62h0a34.4,34.4,0,0,1,34.31-34.3h359.33a34.4,34.4,0,0,1,34.31,34.3h0a34.41,34.41,0,0,1-34.31,34.3H3386.89a34.4,34.4,0,0,1-34.31-34.3Zm361.6,0a14.39,14.39,0,1,0,14.39-14.39A14.38,14.38,0,0,0,3714.18,5080.62Z" transform="translate(-529.64 -61.47)"/><path style="fill-rule:evenodd;" d="M2826.61,5080.62c0-68.74,81.75-124.45,182.59-124.45s182.58,55.71,182.58,124.45S3110,5205.06,3009.2,5205.06s-182.59-55.72-182.59-124.44ZM2898,5148a8.44,8.44,0,0,0,8.42,8.42h214.43a8.43,8.43,0,0,0,8.42-8.42h0a8.44,8.44,0,0,0-8.42-8.42H2906.41A8.45,8.45,0,0,0,2898,5148Zm0-134.81a8.45,8.45,0,0,0,8.42,8.42h214.43a8.44,8.44,0,0,0,8.42-8.42h0a8.44,8.44,0,0,0-8.42-8.43H2906.41a8.45,8.45,0,0,0-8.42,8.43Zm0,67.41a8.45,8.45,0,0,0,8.42,8.42h214.43a8.44,8.44,0,0,0,8.42-8.42h0a8.44,8.44,0,0,0-8.42-8.43H2906.41a8.45,8.45,0,0,0-8.42,8.43Zm0,33.7a8.45,8.45,0,0,0,8.42,8.42h214.43a8.44,8.44,0,0,0,8.42-8.42h0a8.44,8.44,0,0,0-8.42-8.42H2906.41a8.45,8.45,0,0,0-8.42,8.42Zm0-67.41a8.45,8.45,0,0,0,8.42,8.43h214.43a8.44,8.44,0,0,0,8.42-8.43h0a8.44,8.44,0,0,0-8.42-8.42H2906.41a8.45,8.45,0,0,0-8.42,8.42Z" transform="translate(-529.64 -61.47)"/><path d="M1803.46,3258.44c-75.06,2.19-131.22,31.11-182.58,75.3-29.3,25.22-64.44,44.78-99.38,61.92-22.71,11.15-49.52,16-75,18.83-25.14,2.83-48.93-7.57-59.34-31.86-10.66-24.9-9.68-52.55,8.82-74,15.41-17.86,33-36.15,53.49-46.92,110.24-58,224.86-60.59,341.49-20.82C1794.09,3242,1795.77,3247.4,1803.46,3258.44Z" transform="translate(-529.64 -61.47)"/><path d="M1874.4,3128.44c-10.74-6.32-17.49-9.75-23.65-14-26.23-18.17-55.06-26.69-87-25.63-16.92.56-34.12.94-50.8-1.36s-33.08-6.91-48.87-12.57c-18.28-6.55-24.87-22.13-24.39-40.55.52-19.9,12.12-35.33,31.74-40.54,35.94-9.53,71.11-4.43,103.12,13.09,44.26,24.22,78.9,58.74,99.75,105.6C1875.35,3114.93,1874.4,3118.31,1874.4,3128.44Z" transform="translate(-529.64 -61.47)"/><path d="M1813.74,3415.38c-37.28,54.17-63.72,95.91-93.87,134.77-11.91,15.34-30.76,27.13-48.8,35.41-21.59,9.91-50.5-9.71-50.91-33.95-.29-17,1-36.94,9.64-50.55C1668.71,3439.44,1725.44,3411,1813.74,3415.38Z" transform="translate(-529.64 -61.47)"/><path d="M2909,3258.44c75.07,2.19,131.22,31.11,182.58,75.3,29.31,25.22,64.44,44.78,99.39,61.92,22.71,11.15,49.51,16,75,18.83,25.14,2.83,48.94-7.57,59.34-31.86,10.67-24.9,9.69-52.55-8.82-74-15.41-17.86-33-36.15-53.49-46.92-110.23-58-224.86-60.59-341.48-20.82C2918.4,3242,2916.72,3247.4,2909,3258.44Z" transform="translate(-529.64 -61.47)"/><path d="M2838.09,3128.44c10.73-6.32,17.48-9.75,23.65-14,26.22-18.17,55.05-26.69,87-25.63,16.93.56,34.12.94,50.81-1.36s33.07-6.91,48.86-12.57c18.28-6.55,24.88-22.13,24.4-40.55-.53-19.9-12.12-35.33-31.75-40.54-35.93-9.53-71.1-4.43-103.12,13.09-44.26,24.22-78.89,58.74-99.75,105.6C2837.13,3114.93,2838.09,3118.31,2838.09,3128.44Z" transform="translate(-529.64 -61.47)"/><path d="M2898.74,3415.38c37.28,54.17,63.73,95.91,93.88,134.77,11.91,15.34,30.76,27.13,48.8,35.41,21.58,9.91,50.49-9.71,50.91-33.95.29-17-1.06-36.94-9.64-50.55C3043.78,3439.44,2987,3411,2898.74,3415.38Z" transform="translate(-529.64 -61.47)"/><path d="M2570,4895.8c-33.3,3.19-58.76,20.19-80.09,44.62-15.58,17.85-26.42,38.82-39.27,62-35.32-28.59-66.86-58.62-108.31-73.84-51.62-18.95-80.8,6.89-74.69,61.18,19.94,177.06,217.67,301.28,235,285.59,10.23-9.28,100.1-178.7,131.27-240.94a140,140,0,0,0,14.66-71.27C2646,4918.07,2614.66,4891.52,2570,4895.8Z" transform="translate(-529.64 -61.47)"/><path d="M2251.13,140.35a8.62,8.62,0,0,1-7.6,8,58.55,58.55,0,0,1-33-1,232,232,0,0,0-74.82-10.05c-85.09-.13-170,4.47-254.84,9.79-41.42,2.6-82.88,4.88-124.3,7.47-10.13.59-12.74,2.61-13.79,12.16q-4.21,37.68-7.33,75.49c-4.24,51.41-8.84,102.82-12,154.29-6.47,105-12,210.15-14.51,348.48-.41,47.89-1.37,128.83-1.65,209.78-.09,25.27,2,50.53,2.47,75.81.35,18-4.81,23.27-22.67,24.79a120.45,120.45,0,0,1-15.2,0,30,30,0,0,1-28.47-19.09,254.32,254.32,0,0,1-11.34-31.31,1056,1056,0,0,1-25.31-127.79,2711,2711,0,0,1-21.28-323.79,1877.69,1877.69,0,0,1,10.1-236.4,70.59,70.59,0,0,0-.24-27,489.43,489.43,0,0,0-47.53-117.66A23.72,23.72,0,0,0,1529,159.4c-18-2.69-35.82-6.43-53.54-10.51a152,152,0,0,1-44.66-18.44,74.86,74.86,0,0,1-24.6-22.16,24.32,24.32,0,0,1,11-39.75,97.4,97.4,0,0,1,71.1-.69A137.48,137.48,0,0,1,1555.38,113,45.11,45.11,0,0,0,1600,131a22.92,22.92,0,0,1,6.08,0,23,23,0,0,0,30.25-20.34,32.23,32.23,0,0,1,24.86-24.11,105.32,105.32,0,0,1,68.4.46,24.75,24.75,0,0,1,19.16,24c.56,10.32,3.54,11.78,13.36,11.17q134.94-8.36,270.08-10,65.34-.83,130.63.79a295.83,295.83,0,0,1,51.09,6.49,203.71,203.71,0,0,1,31.21,11.4A9.22,9.22,0,0,1,2251.13,140.35Zm-744.34-17.66A99.62,99.62,0,0,0,1462.92,91a5.81,5.81,0,0,0-5.17.58c-2.38,2.43-1.44,5.15.66,7.6A75.91,75.91,0,0,0,1506.79,122.69ZM1619.44,170c.57-6.17-3.47-8.73-9.32-8.3-4.64.32-9.72-1.42-15.21,4,4.64,9.54,9.64,19.62,15.28,31.13A39.11,39.11,0,0,0,1619.44,170Z" transform="translate(-529.64 -61.47)"/><path d="M2543.43,712.66a12.48,12.48,0,0,1,11.33,17.13c-31.28,88.6-74.41,197.32-124.23,278a203.64,203.64,0,0,1-39.62,49.65,79.65,79.65,0,0,1-88,12.06,81.08,81.08,0,0,1-35.28-32.42,226.51,226.51,0,0,1-27.36-60.61,413,413,0,0,1-15.47-147c3.22-47.49,11.38-94.25,18-141.38,2.55-17.9,3.16-36.24,4.44-54.39a7,7,0,0,0-2.28-5.06c-2.78-2.25-5.72-.78-7.87,1.35A271.6,271.6,0,0,0,2196.85,683a625.17,625.17,0,0,0-60.25,145.18c-10.7,35.92-17.46,72.73-24.53,109.45-1.52,7.93-3.52,15.76-5.53,23.57a32.4,32.4,0,0,1-30.66,25,76.65,76.65,0,0,1-69.24-22.6,336.34,336.34,0,0,1-35.82-45.12A588.23,588.23,0,0,1,1887,708.76a708.85,708.85,0,0,1-11.52-220.43,563,563,0,0,1,72.11-226.49,365.39,365.39,0,0,1,46.69-63.47,167.24,167.24,0,0,1,99.37-53.86,133.19,133.19,0,0,1,62.89,5.52,67.67,67.67,0,0,1,46,52.22,193.47,193.47,0,0,1,4.38,66.27A669.81,669.81,0,0,1,2165,438.79a898.22,898.22,0,0,1-65.81,136.38,420.44,420.44,0,0,1-64.81,87.63,30.42,30.42,0,0,0-9.48,27,1290,1290,0,0,0,34.58,203c.12.41,1.41.5,2.33.79,6.14-1.55,6.15-7.07,7.31-11.8a971.17,971.17,0,0,1,49.11-149.56,512,512,0,0,1,56.47-100.21,252.2,252.2,0,0,1,36.33-40.7,101.18,101.18,0,0,1,113.76-10.43,76.21,76.21,0,0,1,36.36,46.82,242.86,242.86,0,0,1,9.93,92.92,1395,1395,0,0,1-25.2,164.8,508.8,508.8,0,0,0-15.2,114,127.22,127.22,0,0,0,7.41,38.54c3,8.48,8.46,9.32,16.15,3.25a179.13,179.13,0,0,0,35.78-41,601,601,0,0,0,51-93c20.25-45.18,50.1-111.36,67.53-157.67,2.84-7.51,5.35-15.26,8.5-22.71a20.88,20.88,0,0,1,26.41-14.22Zm-522.87-102c4.17-1.5,5.28-1.55,5.68-2.14,3-4.08,5.92-8.18,8.59-12.46a856.81,856.81,0,0,0,102.36-238.19A355.19,355.19,0,0,0,2149.34,253a113.14,113.14,0,0,0-12.46-49.44c-8.74-16.45-14.59-17.37-26.51-4.29a169.34,169.34,0,0,0-23.58,35.12,470.09,470.09,0,0,0-29.49,69.58,719.55,719.55,0,0,0-35.71,180.72A831.73,831.73,0,0,0,2020.56,610.62Z" transform="translate(-529.64 -61.47)"/><path d="M2856.44,741.64Q2816,824.8,2774.81,907.58c-21.73,43.65-50.58,97-93.61,123.2-75.53,46-140.77-28.38-165.49-93.2a371.5,371.5,0,0,1-23-138.33,619.55,619.55,0,0,1,25.61-159.9,205.54,205.54,0,0,1,9.12-22.47,33.49,33.49,0,0,1,19.14-18.57,115.27,115.27,0,0,1,85.87-.46,26.59,26.59,0,0,1,18.75,30.82c-8.07,61.27-20.44,121.85-28.76,183.07a755.77,755.77,0,0,0-10.12,111.07c.21,19.41.68,99.41,33.66,88,34.41-11.87,62.9-67,78.1-96.86,22.54-44.07,44.56-88.44,67.08-132.52,8.26-16.22,17.16-32.09,25.92-48a25.69,25.69,0,0,1,24.79-14.26C2858.86,719.41,2863.9,726.45,2856.44,741.64ZM2538.12,504A335.07,335.07,0,0,1,2549,439a33.05,33.05,0,0,1,22-23.25,87.16,87.16,0,0,1,62.18.79,20.38,20.38,0,0,1,13.12,28.87c-9.84,28.53-20.6,56.72-31,85a19.06,19.06,0,0,1-12.75,11.93,63.9,63.9,0,0,1-17.59,4.26C2545.37,547.38,2538,536.15,2538.12,504Z" transform="translate(-529.64 -61.47)"/><path d="M3373.4,725.84a6.91,6.91,0,0,1-3.7,4.3A53.21,53.21,0,0,1,3355,732.8c-84.1-1.74-154.83,31.89-221.95,82.28,2.67,3.57,3,4.7,3.77,5.1,41.7,22.16,56.55,58,54.23,103.48a252.43,252.43,0,0,1-9.72,56.68,492.91,492.91,0,0,1-76.76,157.23c-35.51,48.23-88,94.14-152.19,91.51a68.43,68.43,0,0,1-67.71-57.77,201.94,201.94,0,0,1,4.56-81.19A431.93,431.93,0,0,1,2962.27,938a653.35,653.35,0,0,1,60.44-72.09,38.74,38.74,0,0,0,13.69-18.54c-18.16,2.88-35.39,5.9-52.71,8.31-54.31,7.55-123.7-1.29-161-45.88a115,115,0,0,1-26-84.45c7.3-84.45,62.62-165.16,127.3-217.22a222.1,222.1,0,0,1,97.18-47.55,141.82,141.82,0,0,1,69,2.32,50.58,50.58,0,0,1,40.44,47.23,202.93,202.93,0,0,1-27.59,122.24,42.71,42.71,0,0,1-55.35,17.89A9.11,9.11,0,0,1,3044,635.5a128.48,128.48,0,0,0,22.58-84.83c-.65-8.68,1.35-25.78-8.38-30.55-37-18.15-100,134.91-107.93,162.28-9,31.23-28.28,111.21,17,125.33,29.6,9.21,64.88-6.15,95.78-1.83a58.16,58.16,0,0,0,47.11-14.41,377.07,377.07,0,0,1,78.33-46.09,362.92,362.92,0,0,1,156-33.31,38.8,38.8,0,0,1,26.11,5.84A7.11,7.11,0,0,1,3373.4,725.84Zm-263.16,127c-9.67-7.91-13.66-8.21-23.26.7a593.56,593.56,0,0,0-119.13,148.14c-26.66,48.38-54.14,116.62-38.94,173.48,13.79,51.45,63.65,23,90.6-.23,58.63-50.57,92.45-125.7,110.1-199.75a225.36,225.36,0,0,0,6.48-57.44A84.4,84.4,0,0,0,3110.24,852.81Z" transform="translate(-529.64 -61.47)"/><path d="M864.26,2596.76q-98.21,0-110.14-174l-4-74.22q-131.7-13.56-131.69-94.18,0-73.44,137.29-233.07,26.31-358.4,80.61-642.55,5.58-29.51,21.95-52.27t37.11-22.76q16,0,23.56,16t8.77,29.94c.78,9.32,1.2,16.63,1.2,22,0,7.45-.28,14.11-.79,19.94q-34.35,257-42.31,490.09,59.85-60.67,214.72-205.13,39.08-35.91,58.25-35.93,12.78,0,25.55,12.77t12.77,39.91a165.74,165.74,0,0,1-11.18,59.07q-16,42.33-35.12,42.31-9.57,0-18.35-12.77l-249,261q.76,103,8,202.74,119.73-25.54,201.14-58.26,25.55-10.38,37.51-10.39t12,12q0,16.76-23.15,43.1-36.72,39.9-96.59,67A574.14,574.14,0,0,1,900.17,2339l8,65.46h10.39q19.15,0,34.71,16t15.57,44.7q0,23.94-16.76,58.25a190.4,190.4,0,0,1-38.33,51.5Q890.58,2596.73,864.26,2596.76ZM747.73,2261.52l.79-68.64q-28.74,35.94-28.74,46.29Q719.78,2257.56,747.73,2261.52Z" transform="translate(-529.64 -61.47)"/><path d="M1322.25,1746.7q-50.31,0-73.45-31.53t-23.14-81.81a232.48,232.48,0,0,1,3.2-38.31q14.36-79,68.64-128.52,34.32-31.92,82.22-31.93,22.35,0,35.12,12.77t12.77,27.14q0,8.81-4,20,16,9.57,23.55,33.91t7.59,46.69q0,32.76-12,67.05-15.16,43.93-46.3,74.24T1322.25,1746.7Zm39.91,659.3q-107,0-107-217.91,0-125.3,35.12-339.22,11.18-81.42,55.87-81.42,31.92,0,32.71,45.49v31.14q-4,93.39-4,255.42,0,101.37,15.16,209.91a51.07,51.07,0,0,1,14.37-2.38q19.95,0,20,27.13,0,29.53-21.56,53.47Q1386.9,2406,1362.16,2406Zm-26.35-731.94q12,0,22.35-14.37,16-22.35,27.14-63,8-30.33,8.79-54.27-.83-23.14-11.18-23.16-12,0-22.34,12.77-18.39,21.58-29.55,63.07-8,29.54-8,51.87Q1323,1674.05,1335.81,1674.06Z" transform="translate(-529.64 -61.47)"/><path d="M1706.88,2596.76q-75,0-95.78-93.38a721.11,721.11,0,0,1-16-108.16q-4-55.45-4-153.64,0-138.09,19.94-367.17-17.56.79-35.91.79-26.37,0-48.7-.79-30.33-1.59-51.89-16.36t-21.54-44.3q0-25.55,24.75-44.7,20.76-16.75,45.49-16.77,23.94,0,39.91,22.35l59.06-.79q43.11-396.69,79.82-447.79,16-22.35,35.93-22.35,16,0,24.74,22.35a132.13,132.13,0,0,1,8.78,48.7q0,8.77-.8,16.75-29.54,222.72-37.51,375.15,91.77-8.76,171.6-27.93a63,63,0,0,1,13.58-1.6q14.37,0,23.14,12.77a26.91,26.91,0,0,1,4.79,15.16q0,15.2-12.77,25.54Q1872.9,1843.27,1730,1864q-3.19,105.36-3.19,149.27,0,201.14,23.94,391.11h10.37q19.15,0,33.52,14.36,17.57,17.57,17.56,46.3,0,36.7-35.51,84.21T1706.88,2596.76Z" transform="translate(-529.64 -61.47)"/><path d="M2125.81,2405.19q-59.89,0-98.19-50.27-73.44-93.39-73.43-294.54a1009.21,1009.21,0,0,1,22.35-209.91Q2022,1637.35,2133.79,1540q57.47-49.49,132.5-49.48,47.88,0,79.81,30.33,40.68,39.14,40.7,108.55,0,96.62-41.5,96.59-27.15,0-54.28-23.14t-27.14-53.49q0-17.55,14.37-31.92-4-14.37-12.77-14.37-34.32,0-64.65,49.49-67.87,110.14-97.37,340.81-7.22,54.29-7.2,121.32,0,168.45,59.88,168.43,78.21,0,209.91-272.19,35.11-72.6,44.3-77.41c6.11-3.2,10-4.79,11.57-4.79q9.59,0,9.58,23.14,0,35.12-13.56,83-41.51,147.69-94.18,237.07Q2245.54,2405.2,2125.81,2405.19Z" transform="translate(-529.64 -61.47)"/><path d="M2607.75,2596.76q-98.2,0-110.15-174-6.37-83-6.38-181.17,0-147.67,16.75-330.45,28.74-304.91,71.84-532.4,5.58-29.51,22-52.27t37.11-22.76q16,0,24.74,20.36t8.79,47.5c0,7.45-.28,14.11-.79,19.94q-44.7,333.65-44.7,629,0,77.44,4,153.25,2.4-11.94,12-45.49Q2661.2,2066,2695.55,1991q75.81-168.42,170-168.43,96.57,0,96.59,164.43,0,39.13-3.2,83.81-4,51.88-4,103,0,95,26.35,95,27.91,0,73.44-71.83,13.53-20,27.92-20,21.56,1.61,21.56,31.14,0,38.31-50.69,98.19t-88.19,59.85q-122.93,0-122.92-180.39,0-46.29,10.37-108.55,16-99,16-141.29,0-43.09-17.56-43.1-45.49,0-103,159.64a2598.3,2598.3,0,0,0-80.62,272.19q-16.77,69.43-16.75,79.82h10.36q20,0,35.52,16t15.57,44.7q0,23.94-16.76,58.25a190.4,190.4,0,0,1-38.33,51.5Q2634.08,2596.73,2607.75,2596.76Z" transform="translate(-529.64 -61.47)"/><path d="M3250.1,2366.09q-20,0-35.93-7.19-22.35-9.58-39.1-31.93-29.57-39.07-29.54-93.38,0-61.46,21.95-108.15a412.73,412.73,0,0,1,53.08-85A218,218,0,0,1,3195,2042q-68.66,0-101.36-47.89-20-29.54-20-80.63,0-63,31.93-121.32,61.46-113.34,187.58-182.78,83-46.29,148.46-46.29,91.77,0,91.79,89.4,0,29.54-12.77,40.3t-24.74,10.78q-32.76,0-39.91-34.33-47.9,8-126.11,60.27t-129.31,117.73q-34.35,44.7-34.33,66.24,0,20,27.95,20,32.7,0,102.95-31.93,93.39-42.3,117.35-42.31,26.31,0,37.5,21.56a29.91,29.91,0,0,1,3.19,13.56q0,28-49.48,67.85-194,157.24-193.95,264.19,0,48.72,40.7,48.7,31.92,0,73.43-25.54t80.6-63.46q39.12-37.91,66.26-74.64,15.16-20.74,28.74-20.75,24.74,0,24.75,31.14,0,13.56-8.79,30.33-43.89,82.21-119.33,147.26T3250.1,2366.09Z" transform="translate(-529.64 -61.47)"/><path d="M3688.16,2393.23q-64.68,0-86.2-82.22-15.2-59.07-15.18-138.89,0-162,31.93-344,6.38-34.32,12-55.88,12.76-52.68,47.08-52.68t35.12,49.49l.81,23.14-.81,26.35q-4,86.2-5.57,151.65,90.16-265,208.31-265,96.59,0,96.59,163.61,0,57.48-3.19,97.38-4,52.68-4,81.42,0,103.76,26.35,103.76,27.9,0,65.45-63,17.57-28.72,34.31-28.73,11.18,0,17.56,8.38a31.34,31.34,0,0,1,6.39,19.55q0,44.7-50.69,103t-89,58.26q-122.91,0-122.92-182,0-64.62,13.56-133.28,13.57-71.84,13.58-115.75,0-43.1-17.56-43.1-47.9,0-114.15,181.2-67.85,186.77-67.83,332a45,45,0,0,1,10.36-1.6q20.76,0,20.76,30.33t-21.55,57.47Q3713.7,2393.23,3688.16,2393.23Z" transform="translate(-529.64 -61.47)"/><path d="M2094.66,2983.37q-50.31,0-73.45-31.53T1998.07,2870a232.48,232.48,0,0,1,3.2-38.31q14.36-79,68.64-128.52,34.32-31.92,82.22-31.93,22.35,0,35.12,12.78t12.77,27.13c0,5.88-1.34,12.52-4,20q16,9.57,23.55,33.92t7.59,46.68q0,32.76-12,67.05-15.16,43.93-46.29,74.24T2094.66,2983.37Zm39.91,659.3q-107,0-107-217.91,0-125.28,35.12-339.22,11.18-81.42,55.87-81.41,31.92,0,32.72,45.48v31.14q-4,93.39-4,255.42,0,101.37,15.16,209.91a51.44,51.44,0,0,1,14.37-2.38q20,0,20,27.14,0,29.52-21.56,53.46Q2159.31,3642.69,2134.57,3642.67Zm-26.35-731.94q12,0,22.35-14.37,16-22.35,27.14-63,8-30.34,8.79-54.28-.83-23.14-11.17-23.16-12,0-22.35,12.77-18.39,21.58-29.55,63.07-8,29.54-8,51.87Q2095.45,2910.72,2108.22,2910.73Z" transform="translate(-529.64 -61.47)"/><path d="M2454.57,3629.09q-29.57,0-53.49-18.74T2377.13,3570q0-27.92,20.76-54.26t54.27-26.35q20.76,0,38.32,20.75,24.73,0,57.46-24.75,47.89-37.49,92.59-99,32.73-46.3,32.74-68.65c0-5.83-5.07-8.77-15.18-8.77q-31.12,0-161.23,44.7Q2372.34,3396,2340.42,3396q-115.74,0-115.73-120.51,0-61.47,31.12-133.31,59.07-134.09,176.39-226.68t225.11-92.59q83,0,83,63.07,0,34.32-27.14,63.85-21.58,23.15-50.3,23.14-27.14,0-41.5-19.95-61.47,33.52-162,138.89Q2346,3210.06,2346,3264.33q0,11.18,14.37,11.18,17.57,0,83-25.54,134.87-53.49,213.92-53.49,61.43,0,92.58,27.94,25.55,24,25.55,76.63,0,65.44-54.28,142.08-69.47,97.38-158,150.84Q2506.42,3627.5,2454.57,3629.09Z" transform="translate(-529.64 -61.47)"/><path d="M798.84,4705a8,8,0,0,1-5.89-2.15c-1.44-1.46-7.51-2.17-18.21-2.17H771q-13.59,0-21.93-7.41T734.57,4658q-6.18-27.81-13.58-85.26Q690.11,4337.43,690.11,4128q0-114.88,11.75-238.45,6.15-68.57,11.72-93.89,1.24-7.4,19.77-19.16,13.6-8.62,26.57-9.87l13-.61q54.35,0,122.31,17.28,61.78,16.08,106.88,38.29,123.51,65.52,174.2,167.43,25.31,51.25,25.33,103.15,0,66.72-42,134.05-55.61,87.72-184.71,183.47-32.75,23.47-32.73,29c0,1.24,1.12,1.85,3.39,1.85s11.23,7.41,26.88,22.23q43.88,40.17,43.87,79.7,0,45.12-68.58,99.45-46.34,35.21-109.32,53.74Q806.24,4704.94,798.84,4705ZM818,4399.17q2.47,0,40.16-27.17,92-67.93,147-125.41,103.76-106.24,103.78-200.14v-8q0-106.83-111.19-150.09-39.56-16.07-91.43-28.72t-92-12.67q-8,101.31-8,180.37,0,104.41,3.71,274.28Q812.41,4399.18,818,4399.17Zm24.1,195.21q6.15,0,32.42-21.93t41.07-42.93q14.85-21,14.84-29.66,0-8-17.3-8-26,0-56.21,6.8-22.26,5-26.57,10.51c-.41.82-.61,3.31-.61,7.41q0,6.79,3.08,38.92l.63,8.65q1.83,28.41,4.93,29.35A19.54,19.54,0,0,0,842.08,4594.38Z" transform="translate(-529.64 -61.47)"/><path d="M1471.43,4689.49q-114.9,0-187.78-156.89-43.86-98.2-48.18-234.12,0-108.72,3.7-145.78,32.73-282.28,140.23-385.47,42.61-43.84,90.81-43.85,25.3,0,51.89,11.72,81.54,38.94,81.54,205.72,0,124.16-59.92,239.06-49.42,97.62-114.9,168-41.38,47.59-41.38,54.38,0,17.3,27.47,104.08T1474.53,4616c4.53,3.27,9.06,4.93,13.6,4.93q11.11,0,29.64-14.21,55.57-42.6,102.22-132.79t80.63-170.5q9.26-18.54,14.51-23.47t21.93-4.95a62.5,62.5,0,0,1,27.18,6.19c8.63,4.12,13,8.65,13,13.58s-5.15,20-15.44,45.09q-113.65,285.39-203.23,329.25Q1515.3,4689.49,1471.43,4689.49Zm-101.91-391q134-184.08,134-399.68,0-33.93-4.32-59.3-5-33.95-8.65-34.59-3.1,0-24.71,32.74-69.18,106.28-92,387.93Z" transform="translate(-529.64 -61.47)"/><path d="M1843.23,4645.64q-26.57,0-42-6.16-53.13-22.89-82.78-187.8-16.67-94.49-16.67-184.71,0-140.84,40.14-271.18,32.76-99.45,82.78-140.84,29.65-24.72,64.25-24.71,97.57,0,140.85,98.22,56.82,125.4,56.82,216.83,0,116.78-106.25,168-24.7,11.77-64.56,23.79t-66.4,17c-7,.83-11.33,2.05-13,3.71s-2.46,5.36-2.46,11.11q0,15.47,14.19,93.28,11.73,65.47,14.84,65.47,4.9,0,25.94-98.84l16.67-8a81.46,81.46,0,0,1,34.61-8q40.74,0,40.75,22.86,0,12.36-6.78,55.6-10.51,66.72-26.56,98.84-26,53.11-81.55,55Zm-13-344.06q40.73-12.36,58.06-19.16,53.75-19.74,81.53-69.81,12.36-26.53,12.36-70.41,0-93.9-48.19-197.68-13-27.78-16.67-27.8-6.81,0-24.72,34.6-34,65.49-51.26,173.57-11.12,72.28-11.11,132.82Z" transform="translate(-529.64 -61.47)"/><path d="M2374.41,4745.72a278.77,278.77,0,0,1-44.48-3.7q-98.86-17.33-129.11-79.7Q2191,4644.4,2191,4616q0-140.84,163.69-277.37-181-172.94-206.93-207.55-51.3-66.1-51.28-134,0-41.39,14.2-71,12.36-26,40.15-53.75,62.37-61.78,141.47-61.78a227.41,227.41,0,0,1,56.2,7.41q55.59,13.59,87.73,43.87,51.87,45.7,59.3,118.6,1.23,11.12,1.24,16.07c0,4.94-3.1,7.94-9.28,9s-12.36,2.37-18.53,4q-11.73,0-31.49-8-24.72-8.62-33.37-31.51-19.15-54.33-42-77.22-17.91-17.91-26.56-17.91-19.17,0-50.67,26T2238.5,3956q-14.84,29.37-14.82,60.23,0,65.49,66.71,137.13,30.27,32.76,132.82,136.52,78.45-43.84,149.48-79.68,81.54-37.07,130.35-55.6-79.7-82.14-96.37-105-51.28-68.55-51.28-139,0-42.63,14.21-73.51,12.36-27.18,40.17-55.6,62.37-64.24,141.44-64.25a226.63,226.63,0,0,1,56.23,7.43q55.57,14.19,87.7,45.7,51.89,47.57,59.3,122.92c.83,7.85,1.24,13.4,1.24,16.7q0,8-9.26,9.57t-18.52,4q-11.78,0-31.52-8.66-24.71-8.62-33.34-32.1-19.17-56.82-42-80.31-17.92-18.51-26.57-18.53-19.15,0-50.65,26.86t-46.33,57.45q-14.85,30.57-14.82,62.08,0,68,66.71,142.69,30.27,34,132.81,141.47l38.93-22.23q34-20.4,98.22-49.43,127.86-58.07,159.36-58.06,27.17.61,29.66,37.07c0,4.53-1,8.24-3.09,11.11,0,2.88-2.58,6.71-7.73,11.44s-20.08,12.45-44.77,23.15q-101.94,40.8-174.2,88.33L2945.18,4280q0,2.47,19.77,29.64,80.28,114.9,80.31,196.43,0,29.69-10.51,54.38-28.44,55-86.79,79.36t-108.4,24.4a277.84,277.84,0,0,1-44.48-3.71q-98.85-17.91-129.11-82.77-9.9-18.51-9.89-48.19v-17.91q0-63,64.25-147.64,37.66-50.64,93.28-98.83l-56.21-56.21-11.75,4.95q-153.81,69.82-226.09,116.12l-33.35,22.86q0,2.47,19.77,29,74.73,102.55,74.76,197.06,0,41.39-11.14,66.71-28.41,53.13-86.78,76.61T2374.41,4745.72Zm-43.87-59.93q9.26,0,27.81-5.56,73.49-19.15,97-71.66,8.64-20.37,8.65-61.15,0-25.93-4.94-40.76-19.78-59.3-47.58-92.06L2388,4440q-68,76.59-87.72,170.48a128.15,128.15,0,0,0-.61,13,131.11,131.11,0,0,0,2.46,24.7Q2311.4,4685.78,2330.54,4685.79Zm465.15-84q9.26,0,27.81-4.94,73.5-20.37,97-74.76,4.91-12.35,4.92-30.88,0-29-7.41-52.5-19.77-61.14-47.55-95.13L2847,4370.14q-68,79.71-81.55,153.81c-.41,4.13-.61,8.67-.61,13.59a141.85,141.85,0,0,0,2.46,25.33Q2776.53,4601.81,2795.69,4601.79Z" transform="translate(-529.64 -61.47)"/><path d="M3272.4,4645.64q-26.58,0-42-6.16-53.12-22.89-82.77-187.8-16.68-94.49-16.68-184.71,0-140.84,40.15-271.18,32.76-99.45,82.77-140.84,29.66-24.72,64.25-24.71,97.59,0,140.86,98.22,56.82,125.4,56.82,216.83,0,116.78-106.25,168-24.72,11.77-64.56,23.79t-66.4,17c-7,.83-11.33,2.05-13,3.71s-2.46,5.36-2.46,11.11q0,15.47,14.19,93.28,11.73,65.47,14.84,65.47,4.9,0,25.93-98.84l16.68-8a81.42,81.42,0,0,1,34.6-8q40.74,0,40.76,22.86,0,12.36-6.78,55.6-10.53,66.72-26.57,98.84-26,53.11-81.55,55Zm-13-344.06q40.74-12.36,58.06-19.16,53.75-19.74,81.53-69.81,12.36-26.53,12.36-70.41,0-93.9-48.18-197.68-13-27.78-16.68-27.8-6.8,0-24.71,34.6-34,65.49-51.26,173.57-11.12,72.28-11.12,132.82Z" transform="translate(-529.64 -61.47)"/><path d="M3710.28,4659.85q-72.9,0-84.62-50.65a6.81,6.81,0,0,1-.61-3.09q-29.68-133.41-51.9-397.81-10.52-131.58-10.5-300.85,0-48.78,2.46-63,1.84-17.26,15.14-25t50-13.9a471.18,471.18,0,0,1,78.14-6.19q44.46,0,73.51,3.71,245.85,38.31,298.37,281.69,3.08,17.91,3.09,46.33,0,62.39-9.26,105.62-26.58,117.39-102.54,234.13-25.36,37.08-69.2,80.31t-81.53,68.57q-58.71,39.53-99.47,39.53Zm34-97q5.56,0,36.44-29.66,35.21-33.35,69.2-83.39,69.79-100.68,96.35-202.62,20.4-71.65,20.4-133.42,0-83.37-36.44-149.49-51.91-103.76-155.07-108.73l-33.34-.61q-45.74,0-50,6.17c-.42,2.9-.61,8.67-.61,17.3q0,76.64,19.76,342.85,9.89,132.19,19.77,221.14,12.95,113.67,13,119.85A.54.54,0,0,0,3744.26,4562.87Z" transform="translate(-529.64 -61.47)"/></svg>

