<svg xmlns="http://www.w3.org/2000/svg" viewBox="0 0 4240 2350.34" width="500" height="500"><path style="fill-rule:evenodd;" d="M559.24,531.31c-.69,8.68-1.06,17.55-1.2,26-.92,56.16-3,112.42-2.8,168.66v.49c1.43,53.74-3.45,106-16.14,158.29C504.51,1013.8,339,968.07,261,912.54c-11.75-9.1-22.88-18.42-33.93-28.36-37-32.79-66.17-80.84-70.72-130.77-1.54-16.9-3.24-34.21-1.75-49.94,1.61-16.85,7.21-35.71,12.66-53.08,10.95-65.31,32-129,29.7-194.69-1.64-47.2-6.48-95.92-11.25-143.69-5-49.93-18.7-99.29,11.34-141.36,35.77-50.1,114.71-62.52,174.42-61.62,49,.74,106.07,2.83,147,33.24C567,178.4,553.92,246.18,540.58,295c-7.08,25.87-31.48,47-59.49,46.71s-68,.79-81.22-30.45c-3.86-9.72-5.64-22.5-15.49-26.42-10.88-4.33-23.65,6.38-27.95,15.92-26.64,53.09-32,108-19.81,165.9,4.21,20.41,12.4,40.84,24.77,57.5,11.65,15.69,31.22,29.69,51.27,29.32,19.22-.36,35.89-20.08,33.56-38.28-1.88-14.74-11.41-30.16-23.73-40.33a164.36,164.36,0,0,1-31.93-35.37c-13.21-24,1.37-54.51,21.33-67.52,24.52-16,52.08-19.88,80.8-12.07,41.76,11.35,64.55,61.22,67.66,101.5C562.11,484.09,561.08,508.29,559.24,531.31Z" transform="translate(-139 -92.05)"/><path style="fill-rule:evenodd;" d="M940.71,1033.72c-1.42.55-2.86,1-4.29,1.56-117.31,38.77-248.59-19-289.8-137.18a454.74,454.74,0,0,1-15.53-61.46c-8.67-62-4.59-123.9,3.41-185.46,7.4-57,10.82-115,12-172.59,1.19-60.89-.51-122.87-8.18-182.6-6.49-50.53,8-107.26,43.26-145.2,32.74-35.18,79.06-52.49,124.73-57.14,50.67-5.15,103,2.56,150.39,21.54,44.54,17.84,68.57,74,68.49,119.64-.06,34.06-2.53,69.1-5.67,103.62-.36,7.48-.75,15-1.13,22.38-4.08,58.75-6.51,119.2-2.36,176.21,4,55.44,14.68,113.28,26.78,169.25C1063.87,816,1066.11,984.71,940.71,1033.72ZM875,387.78c-3-31.83-2.53-120.39-49.21-122.25-18.65-.74-30.19,18.25-35.68,33.39-14,43.66-15,87.85-14.09,133.25.1,4.94.21,10,.35,15,1.18,43.69,5.07,87.48,24.25,126.29,17.79,36,57.8,8,64.69-21.23C878,498.24,880.24,443.28,875,387.78Z" transform="translate(-139 -92.05)"/><path style="fill-rule:evenodd;" d="M1424.64,1028.32c-1.41.7-2.85,1.35-4.28,2-108.32,46.66-246.77,22.61-289.81-99.27A422.91,422.91,0,0,1,1115,870.37c-9-63.8-4.48-127.87,3.4-191.25,7.4-59.57,10.8-120.12,12-180.17,1.21-63.62-.82-128-8.18-190.92-6.26-53.57,7.81-112.46,43.26-154,30.58-35.82,79-56.23,124.73-60.34a323.28,323.28,0,0,1,150.4,21.87c44.52,18,68.57,74.35,68.48,120.11-.06,34.1-2.52,69.19-5.67,103.75-.36,7.47-.74,14.95-1.13,22.35-4.06,58.31-6.56,118.36-2.36,174.9,4,53.85,14.59,110.08,26.79,164.42C1549.6,815.49,1544.11,969.13,1424.64,1028.32ZM1358.9,393.83c-3-31.28-2.31-122.38-49.2-123-19.06-.26-30.31,19.86-35.69,35.29-13.91,45.09-15,90.63-14.09,137.38.1,5.05.21,10.21.35,15.3,1.13,42.41,3.56,88.9,24.25,127.1,20,36.95,58.32,1.69,64.69-25.65C1361.94,505.61,1364.22,449.9,1358.9,393.83Z" transform="translate(-139 -92.05)"/><path style="fill-rule:evenodd;" d="M2065.84,518.12c-7.66,135.93-33.44,294.35-144.08,388.78-38.81,32.46-86.84,53.33-134.83,67.68-83.89,25.06-188.69,18.22-201.67-87.92-8.89-72.64,15.83-147.23,30.31-217.68,15.69-76.34,26-155.1,25.73-231.68-.22-50.75-5.62-103.6-10.38-154.88-2.35-25.33-5.88-50.91-7.39-76.31-3.22-54,30.9-86.43,81-98.84a449.44,449.44,0,0,1,219.2.31c55.88,14.06,98.64,54.35,115.47,110.76,4,14.11,7.48,28,10.49,42.4,6.24,34.77,11.18,69.77,14,104.74A1116,1116,0,0,1,2065.84,518.12ZM1891.37,463c10-50.95,6.44-98.9-12.85-147.21-7.83-19-42.08-81-67-43.66-16.41,20.92-17.07,49.92-18.8,75.19-1.93,28.14-3.44,56.43-3.79,84.65-.36,29.81-4.24,129.4,48.89,115.18,21-5.63,33.37-31.85,41.37-49.79A183.47,183.47,0,0,0,1891.36,463Z" transform="translate(-139 -92.05)"/><path style="fill-rule:evenodd;" d="M2891.1,150.51c3.27,24.43-11.4,48.7-31.11,62.24-34,23.84-79.87,2.3-115.38-5.55-19.65-4.63-42.14-8.94-61.23-.29-7.72,4.67-13,11.8-14.61,19.66a24.47,24.47,0,0,0,6.17,21.73c17.33,17,48.61,10.32,69.17,5.25,25.49-6.28,92.87-26.89,101.53,13.73,6.94,32.57-9.49,65.07-33.28,86.79-11.12,10.7-26.8,18.44-41.14,18.9a92.8,92.8,0,0,1-43.5-8.91c-10.09-4.61-22.22-13-34.33-13.21-73.75.39-17.28,138.94-5.67,173,18.18,51.26,32.94,101.47,32.13,156.18-.42,28.93-13.72,57.39-32.88,78.23-25.78,28-65.88,45.18-102.69,53.21-46.41,10.13-97.68,9.09-139-17.88-40.65-26.56-35.23-80.11-20.93-118.34,14.92-39.9,34.85-80.45,51.26-120.52,20.3-49.55,33-101,36.71-154.78,2.39-34.73,3.75-70.78.68-104.24-3.09-33.68-14.55-68.43-22.77-102.33-5.32-21.93-15.36-47.91-3.85-68,18.53-32.27,75.74-30.81,109.85-29.2,39.55,1.87,79.32,5.07,118.61,7.75,39.55,2.7,169.9-14.44,176.22,46.55Z" transform="translate(-139 -92.05)"/><path style="fill-rule:evenodd;" d="M3237.13,713.29c-1.42.52-2.86,1-4.29,1.51-90.94,29.29-238.9,37.67-289.8-64.18a251,251,0,0,1-15.53-43.48c-8.52-46.87-4.44-93.25,3.41-139.68a898.75,898.75,0,0,0,11.95-124.39c1.14-40.93-.93-81.65-8.18-121.63-6.59-36.38,12.56-74,43.26-93.79C3014.63,104,3060.3,95.55,3102.68,93c50-3,102.11.8,150.39,12.37,31.27,7.49,69.2,33.69,68.49,69.89-.4,20.64-2.72,41.68-5.67,62.54-.36,4.58-.75,9.19-1.13,13.75-4,37.31-6.33,76-2.36,111.41,4.09,36.5,15.14,75,26.78,111.89C3366.49,572.31,3339.29,676.06,3237.13,713.29Zm-65.74-442.68c-3.92-27.93-11.36-76.15-49.21-74.93-14.7.47-28.43,8.18-35.68,21.41-13.35,28.14-15,55-14.09,85.46.09,3.21.2,6.52.35,9.76,1.38,30.55,6.33,58.4,24.25,82.7,17.22,23.34,56.38,4.34,64.69-17.71C3174.43,343.53,3176.62,308,3171.39,270.61Z" transform="translate(-139 -92.05)"/><path style="fill-rule:evenodd;" d="M3721.06,726.17c-1.42.33-2.86.61-4.28.91-96.2,17.48-241,4.72-289.81-95.23a268,268,0,0,1-15.53-43.54c-8.3-44.43-4.53-88.15,3.41-132a790,790,0,0,0,12-118c1.15-40.24-.82-80.08-8.18-119-7.2-38,14.31-71,43.26-91.36,34.77-24.49,82.34-32.27,124.73-34.87,50.06-3.08,102.32.79,150.39,13.24,33.06,8.56,69.18,38.08,68.49,75.61-.4,22-2.7,44.36-5.67,66.55-.36,4.85-.74,9.72-1.13,14.53-4,39.11-6.31,79.55-2.36,116.83,4.08,38.48,15.16,79.25,26.78,118.13C3848,592.09,3830,701.89,3721.06,726.17Zm-65.74-449c-4-29.49-10-77.8-49.2-78.17a39.88,39.88,0,0,0-35.69,20.95c-13.36,28.13-15,55-14.09,85.46.09,3.21.24,6.49.35,9.75.95,29.29,5.89,59.68,24.25,83.5,18,23.29,55.92,9.2,64.69-13.75C3658.63,350.89,3660.47,314.87,3655.32,277.13Z" transform="translate(-139 -92.05)"/><path style="fill-rule:evenodd;" d="M4362.26,488.06c-6.35,103.16-23.84,261.31-144.08,296.35-43.24,12.7-91.24,6.66-134.84.45-79.19-11.26-189.92-46-201.66-137.25-7-54.23,14.89-104.73,30.31-156.85,15.79-53.41,26-109,25.72-162.89-.19-35.34-5.64-72.69-10.37-108.71-2.27-17.26-6.13-34.54-7.39-51.9-3.26-44.81,45.14-58.84,81-64.71,73.31-12,147.45-13.15,219.2,2.13,54.17,11.53,98.08,46.6,115.47,101a323.08,323.08,0,0,1,10.49,39.76,999.56,999.56,0,0,1,14,99.11A979.16,979.16,0,0,1,4362.26,488.06ZM4187.79,392c12.72-41.16,4.67-84.2-12.85-122.48-10.32-21.78-38.71-65.14-67-42-15.81,12.8-17.22,36.68-18.8,55.13-1.83,21.36-3.31,42.9-3.79,64.31-.78,35.1,2.41,101.1,48.89,101.3,18.07.08,32.43-15.54,41.37-30.66a112.44,112.44,0,0,0,12.16-25.6Z" transform="translate(-139 -92.05)"/><path style="fill-rule:evenodd;" d="M453.68,1433.47c-.54,4.91-.77,10.08-.88,15-.7,32.81-2.07,65.59-2,98.42v.29c.69,31.76-2.73,61.15-11.75,91.6-29.5,81.52-156,30.51-202.5-3.12a288.75,288.75,0,0,1-24.7-20.85c-27.59-24.17-47.11-60.21-51.5-96.35-1.42-11.61-2.55-24.82-1.28-36,1.34-11.68,5.13-24.71,9.22-36.38,8.18-44.31,22.94-87.26,21.63-131.66-1-34.72-4.61-71.07-8.2-106.32-3-29.71-17.26-75,8.26-99,31.55-29.58,92.56-10.38,127,.94,37.12,12.18,78.3,27.13,107,54.33,30.79,29.16,26.82,70.91,16.12,108.07-5.39,18.7-26,25.59-43.32,21.24-22.14-5.57-49.93-12.9-59.15-36.88-2.8-7.54-4-16.51-11.28-21.6-8.46-5.92-16.32-.67-20.35,5.11-22.7,33.62-21.76,73.92-14.43,112.12a115.6,115.6,0,0,0,18.05,42c8.82,13,22,23.47,37.33,27.72,12.25,3.4,25.87-5.31,24.44-17.55-1.16-9.87-9.76-22.24-17.28-29.83a151.64,151.64,0,0,1-23.26-30.64c-7.39-15.84-1.84-36.55,15.53-42.77,18.89-6.75,41.48-3.16,58.85,6.93,28.69,16.68,47.07,49,49.27,80.89A255.6,255.6,0,0,1,453.68,1433.47Z" transform="translate(-139 -92.05)"/><path style="fill-rule:evenodd;" d="M731.47,1753.36c-1,.22-2.08.4-3.12.58-78.58,12.12-179.12-18.23-211-97.94A167,167,0,0,1,506,1619.32c-5.63-36.07-3.35-70.25,2.48-105.94a715.48,715.48,0,0,0,8.7-99.64c.94-41.74-1.87-83.65-5.95-124.53-3.32-33.29,3.21-68.72,31.5-90.9,25.8-20.22,60.52-23,90.83-20.58a302.54,302.54,0,0,1,109.52,30.54c29.15,14.55,50.32,50.34,49.87,83.94-.3,22.35-2,45-4.13,67.58-.26,4.89-.54,9.79-.82,14.64-2.83,38.29-5.2,78.22-1.72,114.66,2.88,30.22,11,62.27,19.5,93C822.58,1649.07,813.73,1738.59,731.47,1753.36Zm-47.88-373.22c-2.53-25.78-3.1-80.51-35.83-86.3-13.25-2.35-21.07,6.52-26,18-10,28.84-10.9,57.11-10.27,87.24.07,3.31.15,6.71.26,10.05.89,27.66,4,56.35,17.66,80.36,10.87,19.11,40.05,13.54,47.11-4.91C688.75,1452.69,687,1414.44,683.59,1380.14Z" transform="translate(-139 -92.05)"/><path style="fill-rule:evenodd;" d="M1083.87,1776.32c-1,.33-2.08.64-3.12,1-71.14,19.47-177.25,8.36-211-68.44a139.75,139.75,0,0,1-11.3-33.82c-5.82-35.15-3.19-68.52,2.47-103.32a715.82,715.82,0,0,0,8.71-99.77c.92-42.14-1.85-84.47-6-125.74-3.53-35.53,4.37-72,31.5-98.1,24-23.08,58.76-33.09,90.83-34.36,37.63-1.49,74.86,3.4,109.52,16,30.06,10.88,50,44.95,49.87,76.71-.1,22-1.95,44.74-4.12,67.12-.27,4.85-.55,9.71-.83,14.51-2.81,37.74-5.14,77.07-1.72,113,2.87,30,10.89,61.86,19.51,92.33C1176.08,1663.93,1163.94,1752.21,1083.87,1776.32Zm-47.87-367c-2.25-23-3.16-80-35.83-80.7-13-.29-21.87,10.7-26,22.15-9.72,29.66-10.91,58.51-10.26,89.34.07,3.31.15,6.7.25,10,.86,26.5,3.23,54.81,17.67,77.34,12.85,20,41.34,3.17,47.1-13C1040.6,1481.89,1039.38,1444,1036,1409.28Z" transform="translate(-139 -92.05)"/><path style="fill-rule:evenodd;" d="M1550.79,1484.6c-5.23,88.68-22.78,198.24-104.91,251.18-31.06,17.83-63.17,26.8-98.19,32.44-54.92,8.85-136.6,1.77-146.86-66.39-6.32-42,11.55-84.39,22.07-124.59,12.09-46.12,19-93.55,18.74-140-.16-33.11-4-68.1-7.55-101.62-1.76-16.44-4.31-33.35-5.39-49.68-2.41-36.69,25.45-57.89,59-66.82,52.86-14.06,105.92-18.62,159.62-11.28,39.59,5.41,71.85,31.08,84.09,69.87a260.44,260.44,0,0,1,7.64,29.14c4.47,24.07,8.13,48.31,10.22,72.45A730,730,0,0,1,1550.79,1484.6Zm-127-32.37c6.93-35.55,4.63-66.07-9.36-99.57-6.93-15.32-30.17-52-48.78-27.37-11.72,13.59-12.51,34.14-13.69,51-1.33,18.88-2.44,37.9-2.76,56.83-.36,21.52-1.28,84.83,35.6,74.11,14.62-4.25,23.68-18.77,30.13-31.9a116.83,116.83,0,0,0,8.85-23.1Z" transform="translate(-139 -92.05)"/><path style="fill-rule:evenodd;" d="M2129.1,1177.36c-27.77,21.76-51.69,13.41-84,10.24-15.18-1.63-31.81-1.91-44.59,7.81a33.62,33.62,0,0,0-10.63,19c-1.17,7,.46,13.55,4.49,18,13.89,11.87,36.09,3.14,50.37-3.63,17.6-8.35,67.85-34.45,73.93.3,5,28.5-6.22,58.52-24.23,80.65-6.57,9.16-19.06,18-30,20.15-11.12,2.16-22.62,0-31.68-3.71-7.23-3-15.43-9.51-25-8.06-54.55,7.11-13.36,113.49-4.13,142.19,13.27,40.19,23.36,79.41,23.4,121.61,0,22.61-10.59,44.47-23.94,60.59-17.23,20.82-47.52,34.71-74.78,40.64-34.2,7.43-71.24,6.87-101.19-12.45-28.38-18.3-26.62-56.54-15.24-85.17,12.06-30.38,25.68-60.64,37.33-90.83A406.32,406.32,0,0,0,1876,1373.59c1.76-27.76,2.83-56.94.5-83.68-2.3-26.41-10.51-54-16.58-80.87-4.16-18.4-10.83-38.1-2.8-55.58,12.64-27.53,51.43-37.33,80-42s57.87-8.51,86.37-12.65c29-4.2,124-37.48,128.33,15.46C2153.55,1136.43,2144.51,1160.92,2129.1,1177.36Z" transform="translate(-139 -92.05)"/><path style="fill-rule:evenodd;" d="M2525,1534.44c-30.23,18-64,28.4-98.73,22.54a60.07,60.07,0,0,1-49.8-56.77c-1-22.38.17-44.75.64-67,.77-36.17,9.66-78.88-8.72-112.42-5.09-9.4-18.43-23-27.13-7.86-5.83,9.47-7.57,22.76-8,33.66-3,50,7.25,99.39,8.67,148.7,1.43,49.8-43,91.72-89.47,101.57-27.1,5.75-58.21,1.57-79.37-18.19-14.67-12.82-14.56-35.52-8.7-52.32,9.38-26.88,19.38-53.85,29.25-80.73,15.09-41.91,27.4-85.48,32.47-128.48,4.9-41.49.22-83-12.75-123.83-8.44-26.58-13.19-51.26-11.25-79.49,11.46-91,151.19-100.65,219.41-108.71,25.23-3,49.41-2,73.21,5.25,24.94,7.54,24.28,40.76,23.4,62.3-2.45,59.9-21.6,126.29-68.66,166.5,3.3-2.82,21.59,14.38,23.65,16.62a129,129,0,0,1,18.05,25c19.66,34.44,37.53,69.92,54.91,105.4C2569.49,1434.09,2574.13,1500.43,2525,1534.44Zm-130.86-385.79c1.81-10.53,2.62-25.82-4.11-35a15.63,15.63,0,0,0-12.1-5.26,16.25,16.25,0,0,0-3.3.29c-8.57,2.56-15.8,10.41-18.83,18.72-3.75,10.33-6.78,21.52-7.43,32a152.82,152.82,0,0,0,1.65,30.67c1.34,9.19,4.32,18.25,9.62,25.28a8.18,8.18,0,0,0,7.09,3.73c3.24-.19,6.92-2.88,9-6.24a76.06,76.06,0,0,0,12.59-28.44A320.72,320.72,0,0,0,2394,1150c.05-.45.08-.9.13-1.35Z" transform="translate(-139 -92.05)"/><path style="fill-rule:evenodd;" d="M2773,1322.39c11.12,46.16,16.08,89.12-1.75,134.25a131,131,0,0,1-9.74,17.31c-24.51,37.35-74.36,68-119.73,52.45-29.65-10.15-49.52-38.67-52.1-68.92-3.51-41.17,21.93-79.34,27.73-120.07,3.2-22.5,7.49-45.22,9-67.75,3-45,1.92-90.75-4.62-135.28-5.08-34.62-14.09-69.05-22.84-103.34-4.68-19.08-4.42-41.51,8.08-57.87,21.34-29.21,60.28-46.47,95.08-51.12,24.39-3.25,66.55,1.1,70.51,30.67,4.45,33.28-11,67.32-16.74,101-5.9,34.52-8,70.29-5.33,105,2.26,29.19,5.84,59.8,9.32,89.27a709.49,709.49,0,0,0,13.12,74.44Z" transform="translate(-139 -92.05)"/><path style="fill-rule:evenodd;" d="M3146.31,1281.09c-6.37,45.08-16.35,90.83-47.23,126.46-14.57,16.68-34.06,30.41-54.14,38a283.77,283.77,0,0,1-64.07,15.69c-35.24,4.53-69.65,7.07-104.3.59-29.29-5.48-53.72-31.47-59.12-60.12-7.67-40.65,7.25-81,20.86-120.72,17.46-50.93,28.6-103.39,30.31-156.76.92-28.91.69-59.3-2.08-87.61-2.27-23.32-9.29-47.76-12.66-71.1-1.54-10.68,1-24.51,5.53-34.52,9.23-23.1,34.82-34.91,57.26-40,36.68-8.24,73.46-11.49,110.93-13.15,27.17-1.21,54.87-1.66,82,.66,25.56,2.17,28.23,27.85,18.92,46.91-13.24,27.07-42.75,37.16-71.11,37.27a246.77,246.77,0,0,0-38.61,2.85,29.35,29.35,0,0,0-9.22,3.43c-8.8,4.12-14.79,15.5-5.84,19.14,17.6,7.17,45.55-7.4,63.95-12,27.5-6.92,57.45,3.64,53.67,36.64-3.07,26.77-17.39,56.19-44.7,65.24-20.2,6.69-42-4.41-61.44-9.13-17.54-4.27-35.29,10.73-34.09,27.34,1.17,16.31,20.87,23.42,35.87,24.52,29.78,2.65,63.12-4.37,90.7,8.49,20.68,9.65,34.51,32.62,38,54.87A324.45,324.45,0,0,1,3146.31,1281.09Z" transform="translate(-139 -92.05)"/><path style="fill-rule:evenodd;" d="M3565.29,1429.46c-46.33,8.23-92.17-.27-136.13-21-63.34-29.83-40.32-120.48-38.94-174.52.61-23.79-.22-47.83-1.71-71.65-1-16.55,1.36-46.94-16.44-55.3-17.21-8.09-25,22.52-25.86,33.58-1.42,18.82,1.55,38.4,5.68,57.79,6.21,29.22,11.47,59.15,16.63,88.71a244.9,244.9,0,0,1,2.78,63.48c-11.05,73-100.12,99.21-162.42,77.31-25.07-9.62-36.49-38.2-32.26-63.27,3.43-20.36,12.68-39.55,19.81-58.72,7-18.65,12.72-38.19,18.33-57.57,11-39.68,19.44-79.95,24-120.44,4.1-36.22,5.44-73.45-.52-108.34-2.63-15.47-7.22-31.34-12.5-46.5-5.19-14.93-14.07-29.3-19.29-44-5-13.95-2.48-29.08,2.81-41.13,8.24-18.78,39.38-26.47,59.18-28.7,29.46-3.33,58.59-2,88.3,3.1,26.91,4.57,42.24,25.06,42.93,51.48.34,12.66.31,25.63,0,38.2-.55,22.47,1.21,45.88,6.94,67.94,3.08,11.81,7.4,36.79,23.26,37.09a9.28,9.28,0,0,0,6.61-4.23,18.67,18.67,0,0,0,2.47-7c4.6-38.41-7-73.58-12.52-110.67-3.76-25.38-4.65-55.67,21.37-70.35,33.18-18.73,82.13-14.44,116-1.53,20.66,7.87,32.67,30.69,19.82,50.76-14.12,22-28.1,44.8-41,67.89-19,37.82-28.25,76.3-27.66,117.33,1,71.15,30.27,138.28,58.38,204.91,7.59,17,16.08,33.07,22.18,50.69C3604.15,1383.32,3598.66,1423.54,3565.29,1429.46Z" transform="translate(-139 -92.05)"/><path style="fill-rule:evenodd;" d="M3974,1173.06c-4.66,86.28-17.18,210.53-104.91,256.35-30.4,15.35-65.06,17.57-98.19,17.51-68-.14-140.16-32.08-146.86-107.79-4.6-52,10.83-101.46,22.08-152.2,10.68-48.18,19.08-98.64,18.73-146.36-.2-27.3-4-56.37-7.55-84.19-1.69-13.38-4.54-27-5.39-40.44-2.08-33,31.24-43.45,59-45.06,55-3.19,108.14,4,159.63,22.25,38.35,13.61,71,42.84,84.08,82.45a252.67,252.67,0,0,1,7.64,27.68c4.39,22.38,8.11,44.92,10.22,67.32C3975.61,1104.36,3975.8,1139.13,3974,1173.06Zm-127-80.46c7.29-31.68,3.32-58.14-9.36-87.75-7.1-15.05-27.81-50.37-48.78-34.4-11.47,9.64-12.67,25.58-13.69,39.33-1.17,15.59-2.34,31.4-2.76,47.14-.65,24.37,1.45,83.28,35.6,82.26,14.54-.43,24.09-15.26,30.13-27.39a130.31,130.31,0,0,0,8.85-19.19Z" transform="translate(-139 -92.05)"/><path style="fill-rule:evenodd;" d="M4318.31,1295c15.28,42.08,27.17,86.33,27.18,131,0,28.73-3.73,58.19-18.58,83.71-34.21,62.29-126.44,42.51-180.45,25.32-36.3-11.55-71.32-31.62-92.27-62.53a210.58,210.58,0,0,1-33.66-89c-4.51-33.27-9.69-68.13-11.61-101.76-2-35.31-1.7-69.84,10.78-104,5.63-13.66,16.89-26.66,32-29.62,53-9.31,75,66,115.16,86.43,7.4,4.08,15,4,19.86-.18s6.41-11.91,4-20.34c-4.7-20.72-18.42-39.5-33.79-53.6-24.67-22.94-53-43.66-73.71-68.67S4035.4,1023,4056.55,989c40.3-58.61,134.64-32.77,186.61-10.27,38.15,16.52,78,44,98.89,80.47,13.77,24,33.74,76.13-5.54,89.58-22.57,6.55-47.31-11.61-62.62-26.28a189.71,189.71,0,0,1-26.42-29.31c-7.07-9.93-14.09-21.4-25.83-26.22-11.2-4.6-25.41.36-26.86,13.73-3.11,28.66,27.24,55.7,42.53,76.84,16.93,23.4,34,47.8,49.23,71.94C4299.38,1249.9,4309.49,1272.08,4318.31,1295Z" transform="translate(-139 -92.05)"/><path style="fill-rule:evenodd;" d="M495.59,2115.42c-.53,5.83-.93,11.66-1.06,17.29-.84,37.48-2.56,75-2.46,112.48v.33a331.6,331.6,0,0,1-14.2,107C445.77,2442,306.31,2443,233.19,2415a225.74,225.74,0,0,1-29.85-14.9c-35.19-18.62-58.16-56.19-62.22-94.81-1.53-14.51-3-29.78-1.54-43.27,1.59-15.22,6.64-32,11.13-48,9.53-56.15,28-111.18,26.13-167.43-1.36-40.1-5.41-82.06-9.89-122.47-3.86-34.82-19.84-89.31,10-117.47,38.41-36.28,108.47-20.32,153.47-8.81,44.18,11.3,94.72,23.49,129.3,51.86s34.59,66.72,19.48,106.21c-7.38,19.27-32.56,28.33-52.34,25.52-23.5-3.33-59.46-5-71.47-30.6-3.39-7.53-4.83-16.79-13.63-21.27-10.23-5.2-19.72,1.36-24.59,8.09-26.18,35.82-27,81.56-17.43,123.08a105.42,105.42,0,0,0,21.8,44,62.61,62.61,0,0,0,45.11,22.32c15.25.52,31.08-12.26,29.53-26.57-1.1-10.15-11.64-23.37-20.88-29.68a122.42,122.42,0,0,1-28.1-27.37c-10.27-18,.67-39.6,18.77-47.37,23.67-10.17,48.43-8.41,71.09-.94,30.46,10,56.7,40.84,59.54,73.7C497.89,2084.28,497,2099.58,495.59,2115.42Z" transform="translate(-139 -92.05)"/><path style="fill-rule:evenodd;" d="M831.23,2422.76c-1.25.36-2.51.69-3.77,1-82.76,20.35-211.41,18.67-255-70.46a150.45,150.45,0,0,1-13.66-38.62c-7.23-40.37-3.91-79.57,3-119.52a765.61,765.61,0,0,0,10.52-110.53c1-39.72-.89-79.19-7.2-117.8-5.54-34,8.39-69.14,38.07-87.76,32.34-20.29,73.33-22.75,109.74-20.94,44.56,2.22,90.68,11,132.33,25.89,29.65,10.61,60.84,39.84,60.26,74-.34,19.85-2.36,40.1-5,60.16-.32,4.34-.66,8.69-1,13-3.37,34.3-5.63,70-2.07,102.47,3.52,32.13,13.18,66.15,23.56,98.59C945.48,2317.25,919.12,2394.25,831.23,2422.76Zm-57.85-382.09c-3.51-27.85-7.64-72.62-43.29-76.5-13.52-1.48-25.29,5.73-31.39,17.6-13.2,24.48-13.45,53.6-12.41,80.55.12,3,.24,6.13.31,9.17.71,28.18,6,55.08,21.35,77.93,14.22,21.15,49.23,9.38,56.91-11C776.41,2107.84,777.71,2075,773.38,2040.67Z" transform="translate(-139 -92.05)"/><path style="fill-rule:evenodd;" d="M1257,2423.82c-1.25.35-2.52.66-3.78,1-79.19,18.73-209.56,20.62-255-62.74a127.33,127.33,0,0,1-13.66-34.79c-7.16-37.4-3.83-72.57,3-109.58a671.44,671.44,0,0,0,10.51-103.35c1-37.26-.9-74.17-7.19-110.33-5.91-33.94,10.35-67.91,38.06-87.85,31.73-22.85,72.27-30.7,109.75-33.25,43.91-3,90.13.35,132.32,11.14,30.11,7.69,60.88,35.45,60.26,69.19a561.45,561.45,0,0,1-5,61.32c-.32,4.41-.66,8.83-1,13.18-3.34,34.41-5.69,70.22-2.08,102.79,3.5,31.55,13.15,64.93,23.57,96.74C1371.6,2321.53,1344.09,2396.62,1257,2423.82Zm-57.85-366.9c-3.43-26.44-7.7-71.19-43.29-71.37-13.83-.08-25.28,8.06-31.4,20.15-11.42,25.75-13.52,51.26-12.4,79,.12,2.9.23,5.89.31,8.81.66,25.36,4.92,52.91,21.34,73.36s49.52,5.49,56.92-13.92C1202.1,2122.93,1203.55,2090.65,1199.18,2056.92Z" transform="translate(-139 -92.05)"/><path style="fill-rule:evenodd;" d="M1821.19,2134.3c-6.46,96.46-30.36,212.86-126.77,261.09-36.32,18.3-78.59,24.19-118.64,27.47-57,4.67-165.41,1.48-177.44-73.12-6.93-43,14.17-86.37,26.67-126.71,14-45.27,22.92-92.74,22.64-138.55-.19-30.68-4.84-63.56-9.13-94.67-2.12-15.4-5.19-31.27-6.5-46.58-3.41-39.62,38.3-56.78,71.26-64.79,63.47-15.41,127.85-28,192.87-26.66,43.73.86,85.53,20.85,101.59,64A229.6,229.6,0,0,1,1807,1946a658.59,658.59,0,0,1,14.22,188.34Zm-153.51-35.13c8.48-35.89,5.78-65.75-11.3-98.58-11.48-20.3-36.81-45.42-58.94-23.29-13.24,13-15,33.41-16.55,50.71-1.58,18.23-2.94,36.62-3.33,54.94-.57,26.87,2.22,83.59,43,73.12,16.47-4.22,28.31-19,36.41-33.52a116.8,116.8,0,0,0,10.69-23.37Z" transform="translate(-139 -92.05)"/><path style="fill-rule:evenodd;" d="M2603,1752.57c-6.83,23.35-24.34,46.65-46.34,58-28.12,14.5-56.15,17.08-86.58,15-14.95-1-33.13,2.91-35,20.68a315.82,315.82,0,0,0-1.39,55c8.36,82.79,26.58,163.64,44.9,244.67,8.88,38.4,14.36,77.08,14.74,115.71.53,52.89-18.14,114.41-69.14,141.36-22.7,10.47-44.2,15.81-68.84,15.89-76.73.26-144.21-66.92-129.34-147.08,3.73-15.46,7.9-30.51,12.63-45.69,22.33-81.4,48.26-162.43,59.58-245.72,4.69-34.44,8.64-66.78-1.17-100.92a56.39,56.39,0,0,0-12.37-19.19c-15.57-14.85-42.7-3.6-59.42,3.32-38.95,14.83-109.69,14.87-112.2-41.62-1.92-43.26,60.82-65.68,94.29-72.3,59.66-11.79,120.08-23.51,179.52-35.85,55.32-11.48,115.17-33.67,172.54-26C2591.79,1692.28,2612.09,1721.43,2603,1752.57Z" transform="translate(-139 -92.05)"/><path style="fill-rule:evenodd;" d="M2841.13,2367.29a145.76,145.76,0,0,1-11.76,21.62c-31.62,48.86-93.34,69.74-144.67,39.17-36.76-21.9-60.37-66-63-106.18-3.29-51.28,25.68-102.1,33.51-153.39,4.42-28.94,8.8-59.36,10.88-88.68a917,917,0,0,0-5.57-182c-6.15-47.3-17-94.3-27.6-141.13-6.62-27.24-3.47-52,9.77-76.59,23.75-37,72.51-58.45,114.87-62.51,33.08-3.18,79.59,8.76,85.2,47.69,6.55,45.56-14,93.41-20.23,138.81-6.64,48.36-9.71,97.54-6.43,145.54,2.8,41,7.11,83.52,11.25,124.9,3.55,35.43,9,70.83,15.86,105.89C2855.56,2243.29,2864.9,2305.84,2841.13,2367.29Z" transform="translate(-139 -92.05)"/><path style="fill-rule:evenodd;" d="M3468.83,2385.07c-82.73,62.19-197.45-26.12-198.91-115.73-.66-40.85,2.53-82.12,3.91-122.73.66-19.43,9.74-135.7-19-134.6-4.35,1.56-7.63,6-8.5,11.37-8.77,56.69,3,114.11-.26,170.33-2.13,36.65-17.94,87.15-59.74,95.43-22.49,4.46-47.81-6.43-60.74-25.88-7.3-14.7-11.58-26.62-12.69-42-1.6-22.28.57-47.37,2.5-71.1.08-1.26.16-2.6.25-3.83,1.63-20.19,3.46-40.39,4.06-60.54.51-17.36,2.27-46-9.17-54.89-8.15-6.33-17.59,13.6-20,22.4-6.12,26.43-2.08,53.61-1.64,80.36.47,29.28,1.67,58.7,1.09,87.85-1.1,54.19-1.43,123.6-44.78,163.55-32.85,30.26-81.05,29.61-115.5,2.81-26.08-20.1-42.51-52.28-46.15-83.8-6.71-58.09,24.57-117.44,49.38-169.74,36.06-78.27,64.63-160.59,71.71-245.19,5.92-70.67-13.49-142.13-20.22-212.86-4.34-45.63,35.91-74.67,76.19-82.57,42-8.24,97.14-8.59,134.06,16.63,22.67,15.48,22.79,42.74,22.13,67.13-1.3,48.27-10.29,96.61-8.28,145.35.46,7.63,1.24,16.09,3.64,22.47,2.23,5.9,5.8,12.79,8.13,19.54a181.49,181.49,0,0,0,11.41-37.14c10.44-78.53-25.87-232.3,92.58-242,26.74-2.19,58.58,3.25,78.64,22.06,20.74,19.43,22.74,54.52,20.45,80.9-4,46.59-18.91,93-25.57,139.76-8.88,62.25-10.21,127-.12,187.23,8.13,48.46,24.74,98.09,43.47,145.13,19.27,48.36,41.75,95.37,49.59,146.92C3494.91,2334.52,3492,2366.77,3468.83,2385.07Z" transform="translate(-139 -92.05)"/><path style="fill-rule:evenodd;" d="M3911.4,2081a469.39,469.39,0,0,1,.73,128.49c-7.32,56-18.41,116.07-57.06,159.84-17.49,19.5-40.53,36.35-65.42,44a291,291,0,0,1-77.42,12.94c-43.76,1.29-86.66-6.52-126-24-38.49-17.09-65.05-61.39-71.43-102.54-8.87-57.17,7.91-111.81,25.21-166.89,22.14-70.51,34.74-143,36.61-216.43,1.09-42.71.69-86.78-2.5-128.92-2.72-36-11.61-73.33-15.31-109.06a110,110,0,0,1,6.69-49.1c10.1-29.16,41.28-39.66,69.18-39.21,44.65.73,90.25,7.48,134,15.43,33.27,6,68.33,13.07,99.1,25.05,30.15,11.73,34.3,47.83,22.86,75.94-14.37,35.31-52.67,41.45-85.91,34-15.24-3.39-31.61-6.46-46.65-7.3a25.06,25.06,0,0,0-11.15,2.32c-10.63,3.46-18.18,17.85-7.06,26.43,19.26,14.85,54.32,2.79,77.27,1.46,42-2.42,68.16,30.18,64.85,70.34-2.66,32.33-17.68,77.35-54,82-27.38,3.54-50.91-20.22-74.23-32.27-21.23-11-43.33,6.06-41.2,29s22.86,38.9,43.35,46.59c36,13,79,13.84,109.59,38.21,25.27,20.14,41.3,51.42,45.89,83.54Z" transform="translate(-139 -92.05)"/><path style="fill-rule:evenodd;" d="M4329.4,2072.65c19.53,47.93,31.87,97.23,32.83,148.18.72,37.75-7.08,73.3-22.45,108.5-38.92,80.34-136.18,103.91-218,99.9-42.65-2.09-84.81-16.19-111.5-49.81-23.48-29.58-35.06-66.68-40.66-104.31-6.26-42.09-11.74-85.09-14-127.2-2.48-45.41-1.92-91.09,13-135.15,7.24-18.76,20.3-36.92,38.64-46.23,57.4-27.6,91.33,66.86,139.14,80.29,8.95,3,18.08.64,24-6s7.74-16.68,4.79-26.44c-6.53-23.8-21-46.84-40.82-61.88-29.78-26-64.26-47-89.06-77.94-29.85-37.19-56.74-98.84-32.16-145.8,39.81-85.42,154-71.52,225.48-45.07,46.21,17.11,92.18,48.15,119.47,90.18,20.29,31.25,37.35,90.87-6.69,112-25.36,13.29-55.68-2.23-75.66-18.16-11.85-10.25-22.7-20.46-31.92-32.32-8.46-10.88-17-25.64-31.21-29.43-16-4.26-31,8.4-32.46,24.86-3.27,37.23,30.62,66.23,51.39,93.18,20.07,26,40.16,52.47,59.49,78.9A324.69,324.69,0,0,1,4329.4,2072.65Z" transform="translate(-139 -92.05)"/></svg>


