<?xml version="1.0" standalone="no"?>
<!DOCTYPE svg PUBLIC "-//W3C//DTD SVG 20010904//EN"
 "http://www.w3.org/TR/2001/REC-SVG-20010904/DTD/svg10.dtd">
<svg version="1.0" xmlns="http://www.w3.org/2000/svg"
 width="1063.000000pt" height="1063.000000pt" viewBox="0 0 1063.000000 1063.000000"
 preserveAspectRatio="xMidYMid meet">

<g transform="translate(0.000000,1063.000000) scale(0.100000,-0.100000)"
fill="#000000" stroke="none">
<path d="M4011 9670 c-127 -18 -273 -73 -383 -144 -338 -217 -556 -576 -629
-1036 -19 -113 -18 -487 0 -600 114 -718 573 -1371 1401 -1994 123 -92 545
-379 573 -389 7 -2 10 -6 7 -9 -25 -24 -505 -316 -674 -409 -78 -43 -80 -45
-91 -94 -17 -71 -31 -102 -71 -158 l-36 -49 109 57 c262 140 533 300 834 493
l96 62 64 -36 c351 -199 823 -376 1280 -479 84 -19 154 -33 155 -32 0 1 11 30
22 65 15 46 18 64 9 67 -7 2 -79 18 -162 36 -385 82 -786 218 -1119 382 l-150
73 85 59 c623 435 1100 917 1438 1454 183 290 269 502 338 831 27 131 24 443
-5 567 -72 303 -234 541 -476 698 -376 244 -809 247 -1176 7 -70 -46 -208
-182 -247 -244 l-30 -48 -23 68 c-32 96 -99 237 -154 320 -105 162 -296 328
-462 403 -149 68 -368 101 -523 79z m380 -164 c171 -43 302 -117 420 -236 146
-148 230 -314 275 -547 13 -68 27 -131 33 -140 15 -28 58 -66 71 -61 6 2 22
29 35 61 79 195 258 364 488 462 209 88 466 99 672 30 348 -118 567 -367 615
-700 39 -276 -33 -691 -167 -960 -82 -164 -217 -380 -357 -570 -166 -223 -485
-563 -706 -751 -58 -49 -107 -92 -110 -95 -25 -28 -315 -246 -483 -363 l-98
-68 -97 58 c-330 196 -755 512 -1017 757 -497 464 -756 907 -856 1467 -21 116
-18 481 5 595 57 284 191 551 373 745 263 280 593 395 904 316z"/>
<path d="M7162 5469 c-63 -25 -158 -109 -212 -189 -171 -252 -285 -642 -320
-1098 -10 -125 -15 -153 -46 -230 -85 -210 -216 -446 -292 -524 -67 -70 -102
-44 -123 94 -17 107 -6 432 20 592 28 170 27 181 -8 217 -23 23 -38 29 -71 29
-75 0 -96 -38 -130 -235 -12 -72 -36 -148 -85 -270 -37 -93 -75 -186 -85 -205
-22 -42 -67 -86 -77 -76 -12 12 -7 168 8 286 16 131 17 322 1 376 -37 124
-147 190 -250 149 -62 -25 -124 -101 -190 -234 -32 -64 -65 -132 -72 -151
l-13 -35 -8 72 c-19 190 -72 292 -163 313 -107 24 -206 -54 -278 -219 l-29
-66 6 115 c5 98 3 120 -12 150 -33 65 -124 66 -157 2 -19 -36 -36 -138 -36
-214 0 -110 -117 -397 -202 -493 -66 -75 -93 -56 -121 85 -25 122 -28 235 -13
389 8 85 11 153 6 167 -27 71 -143 71 -170 -1 l-9 -23 -40 20 c-103 51 -230
26 -319 -60 -42 -41 -95 -130 -116 -195 -5 -16 -13 -17 -83 -10 -43 4 -146 8
-229 8 l-151 -1 -7 128 c-15 313 -74 581 -188 871 -28 70 -49 129 -47 131 13
12 302 98 402 121 322 71 540 50 657 -64 61 -59 77 -110 61 -195 -19 -106 -89
-166 -194 -166 -63 0 -113 17 -164 56 -37 28 -60 28 -77 1 -9 -15 -4 -24 30
-56 125 -118 348 -105 465 27 98 110 122 245 65 369 -72 158 -259 253 -500
253 -200 0 -510 -65 -761 -160 -52 -19 -83 -26 -89 -20 -27 27 -105 -5 -106
-42 0 -7 -98 -61 -218 -120 -223 -110 -370 -199 -503 -305 -87 -70 -102 -100
-71 -142 l19 -26 189 4 c222 4 277 -6 393 -72 147 -83 263 -222 362 -433 39
-81 49 -114 49 -154 0 -32 -5 -52 -12 -55 -7 -2 -38 -11 -69 -19 -61 -17 -75
-33 -55 -62 13 -17 16 -17 72 -1 32 9 60 14 63 12 9 -10 -20 -272 -45 -395
-68 -345 -200 -612 -338 -682 -123 -63 -294 14 -361 165 -74 165 -48 410 62
576 108 165 251 254 306 193 51 -56 43 -112 -34 -264 -54 -108 -60 -147 -27
-178 28 -25 89 -27 111 -2 16 18 68 143 93 222 8 25 14 78 15 119 2 219 -184
314 -370 190 -205 -137 -343 -425 -328 -684 11 -193 95 -355 229 -445 133 -88
294 -104 421 -42 126 62 254 230 343 451 84 208 127 400 146 663 l12 157 55 7
c58 7 277 -2 346 -14 39 -7 40 -9 37 -44 -4 -49 16 -154 38 -198 23 -44 81
-97 116 -106 39 -10 100 13 145 53 46 41 90 113 139 227 l35 79 11 -74 c30
-191 85 -297 179 -340 121 -56 209 15 311 248 l32 76 7 -49 c35 -260 74 -340
150 -306 18 8 25 21 29 54 3 24 12 104 21 179 27 231 89 409 175 503 51 55 85
61 101 19 11 -27 10 -72 -7 -479 l-6 -151 27 -21 c42 -33 99 -30 136 7 16 16
29 39 29 51 0 31 75 257 126 377 54 130 102 210 154 257 48 43 77 46 90 10 16
-41 11 -189 -10 -324 -36 -226 -25 -357 36 -437 50 -66 110 -79 180 -38 50 29
93 91 136 196 17 43 34 77 36 74 2 -2 8 -55 13 -118 14 -188 64 -303 154 -354
46 -26 104 -29 144 -9 71 37 176 186 285 407 l73 145 11 -145 c33 -416 128
-704 287 -867 100 -103 207 -139 298 -100 133 56 285 377 432 911 25 94 48
177 51 185 3 9 15 -9 29 -43 59 -146 146 -189 263 -131 65 32 111 87 160 193
l39 82 7 -141 6 -141 -93 -102 c-178 -196 -286 -345 -370 -512 -83 -167 -119
-305 -119 -455 1 -150 40 -228 139 -277 48 -23 70 -28 128 -27 108 2 175 32
260 118 190 191 265 515 265 1148 l0 207 174 158 c169 153 201 192 177 216
-20 20 -56 -5 -203 -137 l-143 -129 -7 54 c-3 30 -7 90 -7 134 -2 121 -27 339
-42 363 -8 12 -29 29 -48 38 -28 13 -41 14 -71 5 -57 -17 -69 -44 -74 -163
-11 -267 -120 -548 -213 -548 -19 0 -29 10 -46 48 -19 42 -22 64 -22 222 0 96
4 221 9 277 l9 102 -31 31 c-44 44 -119 38 -150 -11 -16 -26 -42 -204 -42
-294 -1 -142 -167 -709 -296 -1011 -73 -172 -163 -294 -215 -294 -29 0 -80 32
-105 67 -49 66 -78 143 -129 334 l-33 126 154 409 c235 624 335 930 394 1204
58 270 28 463 -84 531 -42 25 -134 25 -204 -2z m179 -119 c96 -52 69 -338 -75
-800 -53 -172 -371 -1046 -386 -1063 -15 -17 -35 234 -34 428 1 210 12 343 45
538 68 404 231 785 378 884 38 26 45 27 72 13z m-4611 -439 c57 -230 128 -616
116 -629 -3 -2 -12 11 -22 30 -59 115 -184 263 -275 325 -120 82 -243 123
-370 123 -49 0 -89 3 -89 8 0 13 202 118 450 233 138 64 145 66 153 46 4 -11
21 -72 37 -136z m1231 -787 c36 -18 38 -7 -38 -194 -82 -204 -130 -265 -182
-233 -40 25 -51 167 -21 264 42 138 150 211 241 163z m4230 -959 c-21 -360
-89 -611 -203 -740 -64 -73 -158 -94 -225 -50 -95 62 -89 313 12 548 68 159
171 313 340 508 l80 93 3 -90 c2 -49 -1 -170 -7 -269z"/>
<path d="M9285 4929 c-487 -52 -1062 -76 -1465 -61 -195 8 -277 8 -281 0 -9
-14 -33 -128 -28 -132 2 -2 101 -9 219 -15 486 -25 1036 -7 1660 54 211 21
200 17 200 65 0 30 -8 48 -31 75 -36 41 -26 41 -274 14z"/>
<path d="M6082 4739 c-22 -23 -32 -69 -32 -146 0 -87 27 -120 91 -111 34 4 56
58 65 154 6 75 5 83 -15 103 -28 28 -84 28 -109 0z"/>
<path d="M2460 4283 c-251 -90 -853 -272 -1255 -379 -77 -20 -146 -43 -154
-50 -20 -19 0 -82 38 -118 l29 -27 243 66 c356 98 704 203 1037 311 l293 96
-32 57 c-32 58 -58 92 -68 90 -3 0 -62 -21 -131 -46z"/>
<path d="M1817 2073 c-4 -3 -7 -104 -7 -223 0 -227 6 -261 44 -247 14 6 16 28
16 174 l0 167 101 -164 c115 -190 131 -210 157 -194 15 10 17 36 20 248 2 208
0 237 -13 243 -34 12 -40 -15 -45 -194 l-5 -176 -113 186 c-108 178 -131 205
-155 180z"/>
<path d="M3087 2073 c-4 -3 -7 -104 -7 -223 0 -227 6 -261 44 -247 14 6 16 28
16 174 l0 167 101 -164 c115 -190 131 -210 157 -194 15 10 17 36 20 248 2 208
0 237 -13 243 -34 12 -40 -15 -45 -194 l-5 -176 -113 186 c-108 178 -131 205
-155 180z"/>
<path d="M4073 2064 c-6 -17 113 -439 130 -462 6 -7 20 -12 31 -10 18 3 28 26
66 160 25 86 49 160 52 164 4 3 12 -13 18 -37 7 -24 28 -100 48 -168 38 -129
58 -160 86 -131 17 18 118 454 110 475 -9 23 -43 18 -53 -7 -5 -13 -23 -89
-41 -170 -19 -82 -36 -148 -39 -148 -3 0 -26 71 -50 158 -67 242 -84 243 -151
9 -25 -85 -48 -158 -51 -161 -3 -4 -18 35 -33 86 -77 260 -76 258 -97 258 -11
0 -22 -7 -26 -16z"/>
<path d="M4687 2073 c-4 -3 -7 -106 -7 -228 0 -185 3 -225 15 -235 8 -7 22
-10 30 -6 12 4 15 26 15 111 l0 106 113 -3 112 -3 3 -102 c3 -104 14 -132 47
-119 22 8 23 447 0 466 -8 7 -22 10 -30 6 -12 -4 -15 -24 -15 -96 l0 -91 -112
3 -113 3 -3 85 c-2 46 -8 90 -14 97 -11 14 -31 17 -41 6z"/>
<path d="M7380 2069 c-64 -26 -100 -94 -81 -152 14 -42 50 -76 123 -116 70
-40 108 -77 108 -107 0 -55 -79 -53 -163 3 -53 36 -77 37 -77 4 0 -40 119
-111 187 -111 71 0 128 60 116 122 -8 40 -64 100 -124 132 -95 51 -126 89
-108 130 25 55 104 57 165 4 59 -52 93 -3 35 51 -47 44 -127 61 -181 40z"/>
<path d="M1536 2057 c-21 -17 -188 -414 -184 -441 2 -11 11 -22 21 -24 13 -3
25 12 47 61 16 36 33 67 37 70 5 2 50 1 102 -2 l93 -6 20 -50 c11 -27 25 -56
32 -63 15 -15 46 -6 46 14 0 8 -27 82 -60 166 -118 300 -119 301 -154 275z
m84 -270 c0 -9 -127 -3 -137 6 -2 2 9 30 23 63 14 32 31 70 36 84 9 23 12 18
44 -59 19 -47 34 -89 34 -94z"/>
<path d="M2227 2063 c-17 -16 -2 -51 68 -158 l75 -116 0 -83 c0 -88 14 -124
44 -113 13 5 16 22 16 89 1 93 -2 86 98 225 39 55 72 105 72 110 0 6 -7 16
-15 23 -20 17 -34 4 -110 -104 -33 -47 -63 -85 -67 -86 -3 0 -36 47 -73 104
-55 87 -80 116 -99 116 -2 0 -6 -3 -9 -7z"/>
<path d="M2725 2052 c-136 -64 -164 -273 -52 -391 38 -40 100 -71 142 -70 158
3 251 197 170 353 -39 76 -92 115 -166 122 -40 4 -64 0 -94 -14z m129 -56 c35
-15 79 -65 91 -104 12 -41 7 -120 -11 -157 -51 -108 -188 -104 -245 7 -25 49
-28 141 -6 184 39 74 100 100 171 70z"/>
<path d="M3507 2063 c-4 -3 -7 -104 -7 -224 0 -191 2 -220 17 -234 15 -15 32
-16 137 -10 130 7 162 19 136 50 -11 13 -33 16 -119 14 l-106 -2 0 79 0 79 67
3 c73 3 101 20 78 47 -9 11 -32 15 -81 15 l-69 0 0 65 0 65 99 0 c75 0 101 4
111 15 10 12 10 18 0 30 -10 12 -38 15 -135 15 -67 0 -125 -3 -128 -7z"/>
<path d="M5215 2052 c-136 -64 -164 -273 -52 -391 38 -40 100 -71 142 -70 158
3 251 197 170 353 -39 76 -92 115 -166 122 -40 4 -64 0 -94 -14z m129 -56 c35
-15 79 -65 91 -104 12 -41 7 -120 -11 -157 -51 -108 -188 -104 -245 7 -25 49
-28 141 -6 184 39 74 100 100 171 70z"/>
<path d="M5787 2063 c-4 -3 -7 -104 -7 -224 0 -260 -5 -249 108 -249 100 0
152 9 159 28 12 30 -27 43 -117 40 l-85 -3 -3 194 c-1 123 -6 199 -13 208 -12
14 -32 17 -42 6z"/>
<path d="M6145 2052 c-136 -64 -164 -273 -52 -391 38 -40 100 -71 142 -70 158
3 251 197 170 353 -39 76 -92 115 -166 122 -40 4 -64 0 -94 -14z m129 -56 c35
-15 79 -65 91 -104 12 -41 7 -120 -11 -157 -51 -108 -188 -104 -245 7 -25 49
-28 141 -6 184 39 74 100 100 171 70z"/>
<path d="M6467 2056 c-6 -15 154 -441 171 -458 6 -6 19 -7 30 -4 14 5 42 62
107 217 47 116 84 217 81 226 -3 8 -15 13 -28 11 -17 -2 -34 -33 -91 -170 -39
-93 -73 -168 -77 -168 -4 0 -29 57 -55 128 -74 198 -91 232 -113 232 -11 0
-22 -6 -25 -14z"/>
<path d="M6927 2063 c-4 -3 -7 -104 -7 -224 0 -191 2 -220 17 -234 15 -15 32
-16 137 -10 130 7 162 19 136 50 -11 13 -33 16 -119 14 l-106 -2 0 79 0 79 67
3 c73 3 101 20 78 47 -9 11 -32 15 -81 15 l-69 0 0 65 0 65 99 0 c75 0 101 4
111 15 10 12 10 18 0 30 -10 12 -38 15 -135 15 -67 0 -125 -3 -128 -7z"/>
<path d="M7887 2063 c-17 -16 -2 -51 68 -158 l75 -116 0 -83 c0 -88 14 -124
44 -113 13 5 16 22 16 89 1 93 -2 86 98 225 39 55 72 105 72 110 0 6 -7 16
-15 23 -20 17 -34 4 -110 -104 -33 -47 -63 -85 -67 -86 -3 0 -36 47 -73 104
-55 87 -80 116 -99 116 -2 0 -6 -3 -9 -7z"/>
<path d="M8375 2052 c-136 -64 -164 -273 -52 -391 38 -40 100 -71 142 -70 158
3 251 197 170 353 -39 76 -92 115 -166 122 -40 4 -64 0 -94 -14z m129 -56 c35
-15 79 -65 91 -104 12 -41 7 -120 -11 -157 -51 -108 -188 -104 -245 7 -25 49
-28 141 -6 184 39 74 100 100 171 70z"/>
<path d="M8733 2045 c-3 -9 -3 -71 -1 -138 7 -185 54 -280 150 -309 113 -34
187 106 188 350 0 82 -3 104 -15 108 -33 13 -42 -13 -48 -139 -11 -232 -68
-321 -151 -234 -43 46 -56 93 -62 222 -7 141 -10 155 -35 155 -11 0 -22 -7
-26 -15z"/>
</g>
</svg>
