<?xml version="1.0" standalone="no"?>
<!DOCTYPE svg PUBLIC "-//W3C//DTD SVG 20010904//EN"
 "http://www.w3.org/TR/2001/REC-SVG-20010904/DTD/svg10.dtd">
<svg version="1.0" xmlns="http://www.w3.org/2000/svg"
 width="1063.000000pt" height="1063.000000pt" viewBox="0 0 1063.000000 1063.000000"
 preserveAspectRatio="xMidYMid meet">

<g transform="translate(0.000000,1063.000000) scale(0.100000,-0.100000)"
fill="#000000" stroke="none">
<path d="M235 9338 c-33 -18 -45 -40 -45 -84 0 -51 22 -81 87 -116 103 -56
148 -63 393 -62 169 1 262 6 375 22 89 12 154 17 159 12 6 -6 1 -48 -13 -107
-57 -257 -71 -458 -71 -1008 0 -575 16 -810 62 -928 21 -55 118 -77 159 -36
14 14 18 26 13 37 -13 29 -17 853 -5 1122 24 522 66 921 100 951 20 16 144 30
445 50 201 13 388 1 549 -36 175 -39 282 -91 397 -191 47 -41 70 -54 106 -60
56 -8 120 9 134 37 18 32 -24 95 -105 156 -319 243 -853 289 -1795 153 -440
-63 -595 -73 -705 -44 -85 22 -117 43 -142 97 -19 39 -27 47 -50 47 -16 0 -37
-6 -48 -12z"/>
<path d="M9020 9059 c-19 -5 -45 -21 -57 -35 -22 -24 -73 -171 -73 -211 0 -11
-9 -31 -19 -44 -18 -22 -31 -25 -168 -36 -81 -7 -222 -15 -313 -19 l-165 -6
-50 33 c-56 38 -106 44 -148 16 -50 -33 -26 -88 53 -121 42 -17 248 -38 311
-31 135 14 441 27 450 18 7 -7 5 -40 -5 -99 -34 -203 -40 -287 -41 -574 l0
-295 -34 -105 c-34 -102 -137 -320 -167 -350 -12 -12 -16 -12 -30 1 -32 32
-74 402 -74 651 0 145 -17 321 -34 363 -19 43 -56 67 -115 73 -128 12 -197
-70 -363 -428 -16 -34 -17 -27 -17 177 -1 116 -5 223 -10 236 -10 25 -55 47
-97 47 -36 0 -74 -22 -90 -51 -18 -36 -34 -178 -34 -312 0 -122 -8 -146 -98
-272 -129 -183 -246 -265 -337 -235 -71 24 -157 147 -198 286 -16 55 -10 74
23 74 83 0 200 82 248 174 49 95 33 284 -31 344 -58 54 -187 71 -270 34 -88
-39 -179 -186 -200 -322 -11 -66 -13 -70 -37 -70 -49 0 -63 20 -66 97 -4 83
-34 170 -73 212 -17 19 -49 36 -86 46 -121 35 -229 -3 -322 -113 l-53 -62 0
73 c0 86 -10 105 -65 117 -42 10 -120 -1 -138 -19 -8 -8 -14 -85 -18 -222 -3
-116 -10 -214 -15 -217 -195 -136 -402 -264 -421 -260 -12 2 -34 41 -65 109
-90 202 -111 355 -64 454 27 58 78 110 100 102 20 -8 69 -116 91 -201 23 -90
40 -106 108 -106 78 0 92 18 84 113 -19 226 -111 322 -307 322 -62 0 -86 -5
-132 -28 -112 -55 -180 -165 -186 -303 -6 -123 22 -217 118 -409 44 -88 80
-166 80 -174 0 -7 -29 -44 -63 -81 -82 -87 -110 -144 -115 -236 -7 -121 46
-207 157 -258 67 -30 200 -29 257 1 45 24 90 72 106 112 15 40 12 141 -6 206
-10 32 -37 102 -62 156 -24 54 -41 104 -38 111 4 11 331 247 354 256 4 1 10
-66 14 -150 14 -315 56 -604 115 -804 56 -188 79 -224 141 -224 81 0 82 5 45
185 -32 159 -63 375 -71 504 l-7 104 24 -7 c135 -39 250 2 338 121 75 102 108
178 160 370 12 45 32 58 75 47 21 -5 26 -12 26 -36 0 -63 33 -187 72 -268 30
-61 58 -102 103 -147 53 -53 71 -64 134 -83 59 -18 90 -22 170 -18 89 3 105 7
174 41 84 41 121 78 194 194 26 40 48 71 50 69 2 -2 13 -48 24 -102 23 -114
72 -268 100 -313 18 -29 22 -31 78 -31 41 0 62 5 71 15 8 9 17 64 22 128 16
203 63 388 145 572 50 110 80 158 94 150 5 -4 9 -36 9 -73 0 -89 17 -282 36
-413 35 -251 94 -428 155 -472 35 -25 107 -26 150 -1 55 32 140 178 187 318
l20 60 12 -45 c57 -220 99 -323 173 -426 75 -105 211 -109 294 -8 97 117 206
385 269 657 14 63 15 80 4 92 -15 19 -74 21 -87 4 -6 -7 -26 -69 -46 -138 -61
-216 -177 -480 -247 -560 -29 -34 -30 -34 -45 -16 -42 55 -100 270 -120 446
-22 205 -27 357 -15 510 23 299 62 585 84 615 9 12 57 17 221 25 396 20 704
-14 866 -95 72 -37 84 -62 64 -142 -7 -30 -5 -34 21 -44 65 -24 154 37 154
106 0 19 -5 46 -12 60 -18 40 -120 101 -223 134 -217 70 -412 92 -804 91 -139
-1 -255 1 -257 3 -3 2 9 55 26 118 32 116 33 152 4 163 -31 12 -120 15 -154 5z
m-1814 -844 c19 -45 18 -150 -2 -208 -17 -51 -85 -120 -112 -115 -21 4 -19 48
8 166 22 91 67 192 87 192 2 0 11 -16 19 -35z m-644 -32 c27 -60 37 -193 17
-209 -8 -6 -36 -16 -63 -23 -51 -12 -151 -60 -199 -93 -16 -11 -30 -18 -33
-15 -8 8 34 124 74 206 45 92 124 181 159 181 19 0 28 -9 45 -47z m18 -304 c0
-35 -58 -198 -97 -272 -47 -88 -118 -169 -147 -165 -36 5 -66 64 -66 128 0
127 72 228 212 295 84 41 98 43 98 14z m-1062 -586 c33 -71 37 -86 37 -165 0
-81 -2 -89 -27 -114 -35 -35 -69 -27 -108 28 -77 106 -70 224 18 305 14 13 29
23 34 23 5 0 26 -35 46 -77z"/>
<path d="M2234 8420 c-12 -4 -24 -17 -28 -27 -11 -27 -25 -232 -26 -359 0
-116 -21 -230 -75 -418 -46 -158 -113 -302 -138 -293 -18 6 -45 86 -62 184
-19 106 -19 341 -1 483 18 136 11 150 -70 150 -108 0 -120 -22 -143 -271 -24
-257 43 -548 144 -625 32 -24 49 -29 109 -32 126 -5 171 37 232 223 19 61 37
111 39 113 1 2 8 -28 15 -65 16 -95 59 -219 82 -240 23 -21 110 -25 129 -6 7
7 15 78 20 195 13 270 36 426 90 593 27 85 65 162 74 153 3 -2 29 -139 60
-304 79 -430 106 -504 184 -504 49 0 59 18 96 180 41 180 83 312 135 426 34
73 60 111 60 86 0 -52 24 -287 36 -357 36 -203 122 -403 194 -452 46 -32 100
-30 141 4 29 25 81 123 151 282 l15 35 31 -46 c86 -125 191 -173 362 -166 92
3 104 7 177 43 60 31 88 53 123 97 70 87 137 204 185 326 45 110 54 155 35
167 -26 16 -51 -11 -97 -103 -146 -298 -336 -482 -458 -442 -71 24 -157 147
-198 286 -16 55 -10 74 23 74 83 0 200 82 248 174 23 44 26 63 27 141 0 181
-66 257 -222 256 -118 -1 -194 -58 -260 -196 -58 -123 -76 -277 -48 -410 8
-38 15 -78 15 -88 0 -43 -133 -340 -163 -365 -19 -16 -28 -4 -55 70 -44 118
-81 391 -82 593 0 120 -16 224 -39 255 -11 16 -34 28 -60 34 -55 12 -100 -9
-142 -66 -51 -71 -125 -231 -170 -371 -45 -139 -47 -143 -53 -136 -2 2 -18
100 -35 218 -37 244 -68 360 -108 390 -35 28 -135 29 -176 2 -59 -38 -118
-156 -163 -321 l-29 -105 -3 110 c-2 61 2 177 8 259 11 140 11 151 -6 163 -20
14 -97 16 -130 3z m1732 -205 c19 -45 18 -150 -2 -208 -17 -51 -85 -120 -112
-115 -21 4 -19 48 8 166 22 91 67 192 87 192 2 0 11 -16 19 -35z"/>
<path d="M1776 8375 c-30 -28 -36 -84 -10 -109 37 -37 120 -31 154 11 23 29
25 54 9 86 -17 31 -28 37 -80 37 -35 0 -52 -6 -73 -25z"/>
<path d="M2262 6358 c-7 -7 -12 -20 -12 -30 0 -21 168 -595 181 -620 10 -19
45 -23 67 -9 8 4 41 102 73 217 69 241 68 238 74 232 2 -2 31 -99 64 -215 68
-239 76 -259 102 -266 47 -12 57 14 130 341 75 333 76 342 23 342 -13 0 -27
-8 -33 -17 -5 -10 -31 -116 -57 -235 -27 -120 -52 -218 -55 -218 -4 0 -35 100
-69 223 -34 122 -67 228 -72 235 -17 20 -56 14 -71 -10 -8 -13 -40 -116 -73
-230 -32 -115 -61 -208 -65 -208 -4 0 -10 8 -13 18 -86 295 -130 439 -138 450
-13 15 -40 16 -56 0z"/>
<path d="M5644 6353 c-16 -16 -16 -41 -10 -318 5 -191 11 -304 18 -313 6 -7
23 -12 37 -10 l26 3 5 190 5 190 21 -45 c11 -25 45 -103 74 -175 29 -71 60
-138 68 -147 18 -21 55 -24 69 -5 6 6 48 97 94 202 l84 190 5 -196 c4 -145 9
-200 19 -212 17 -22 35 -21 57 0 16 16 17 42 11 317 -7 323 -9 335 -59 323
-20 -5 -41 -45 -130 -244 -58 -131 -110 -237 -114 -236 -5 0 -54 110 -111 244
-114 270 -125 286 -169 242z"/>
<path d="M8125 6365 c-5 -2 -22 -6 -37 -9 -15 -4 -44 -21 -64 -38 -65 -58 -80
-128 -43 -205 24 -49 65 -83 164 -138 81 -44 145 -106 145 -139 0 -80 -137
-73 -244 13 -41 33 -65 38 -84 19 -21 -21 -13 -45 29 -83 49 -44 126 -81 190
-90 128 -19 224 74 189 181 -18 53 -101 132 -185 176 -38 20 -85 52 -103 71
-28 29 -33 41 -30 73 2 31 10 43 37 61 59 40 129 28 192 -33 47 -45 82 -44 87
2 6 57 -88 126 -188 138 -25 3 -49 4 -55 1z"/>
<path d="M3261 6341 c-17 -17 -19 -25 -11 -41 12 -23 33 -29 110 -32 l55 -3 5
-271 c4 -209 8 -275 19 -287 17 -22 35 -21 57 0 15 16 16 43 13 288 l-4 270
88 5 c86 5 106 14 107 46 0 33 -33 39 -226 42 -185 4 -193 3 -213 -17z"/>
<path d="M3762 6348 c-14 -14 -16 -196 -5 -462 6 -163 7 -168 29 -178 46 -21
53 0 56 156 l3 141 150 -4 c96 -2 153 -8 157 -15 4 -6 8 -71 8 -144 0 -131 0
-133 25 -144 19 -8 28 -8 40 2 13 11 15 55 15 306 0 166 -4 304 -10 318 -6 18
-17 26 -33 26 -41 0 -47 -17 -47 -142 l0 -119 -152 3 -153 3 -5 120 c-3 66 -9
126 -13 133 -10 15 -49 16 -65 0z"/>
<path d="M4661 6344 l-24 -17 7 -299 c4 -165 10 -306 12 -313 8 -20 42 -29 59
-15 12 10 15 45 15 171 l0 159 58 1 c85 1 106 10 110 43 5 39 -10 46 -95 46
l-73 0 0 75 0 75 133 0 c136 0 157 5 157 41 0 32 -26 39 -181 45 -137 5 -157
4 -178 -12z"/>
<path d="M3092 6338 c-14 -14 -15 -122 -5 -426 6 -200 7 -204 29 -214 17 -8
27 -8 39 2 13 11 15 55 15 306 0 166 -4 304 -10 318 -10 28 -47 35 -68 14z"/>
<path d="M5247 6338 c-15 -12 -253 -555 -257 -589 -5 -32 1 -48 21 -54 30 -10
52 15 84 95 16 39 33 74 39 79 7 6 66 7 141 3 l129 -7 31 -72 c16 -40 37 -80
46 -89 20 -20 55 -11 62 16 7 26 -218 590 -244 613 -25 20 -30 21 -52 5z m76
-260 l44 -113 -85 -3 c-47 -2 -91 -1 -98 2 -9 3 1 37 34 115 25 61 49 111 53
111 4 0 27 -51 52 -112z"/>
<path d="M6342 6338 c-14 -14 -15 -122 -5 -426 6 -200 7 -204 29 -214 17 -8
27 -8 39 2 13 11 15 55 15 306 0 166 -4 304 -10 318 -10 28 -47 35 -68 14z"/>
<path d="M6532 6338 c-14 -14 -15 -126 -5 -422 5 -159 9 -201 22 -213 23 -24
320 -12 338 14 15 20 16 23 3 43 -7 12 -39 16 -142 20 l-133 5 -5 270 c-3 149
-9 276 -13 283 -10 15 -49 16 -65 0z"/>
<path d="M6874 6342 c-30 -20 -21 -45 71 -186 51 -80 100 -155 109 -168 13
-18 16 -49 16 -145 0 -97 3 -125 16 -137 21 -22 40 -20 58 6 12 17 16 49 16
130 l0 108 105 146 c128 177 129 178 115 204 -12 23 -39 26 -62 8 -8 -7 -55
-68 -103 -135 -49 -68 -91 -123 -94 -123 -3 0 -48 65 -100 145 -99 152 -116
168 -147 147z"/>
<path d="M7772 6338 c-14 -14 -15 -122 -5 -426 6 -200 7 -204 29 -214 17 -8
27 -8 39 2 13 11 15 55 15 306 0 166 -4 304 -10 318 -10 28 -47 35 -68 14z"/>
<path d="M6783 5490 c-23 -5 -54 -15 -70 -23 -49 -26 -130 -121 -171 -203 -35
-70 -90 -228 -106 -306 l-6 -27 -161 -3 c-89 -2 -165 0 -170 3 -6 3 3 53 21
118 16 61 30 118 30 125 0 65 -191 72 -240 8 -21 -26 -70 -173 -70 -209 0 -11
-9 -31 -19 -44 -18 -22 -31 -25 -168 -36 -81 -7 -222 -15 -313 -19 l-165 -6
-50 33 c-56 38 -106 44 -148 16 -50 -33 -26 -88 53 -121 42 -17 248 -38 311
-31 135 14 441 27 450 18 7 -7 5 -40 -5 -99 -15 -91 -30 -217 -41 -356 -6 -64
-10 -78 -23 -78 -10 0 -30 -9 -47 -20 -45 -30 -72 -25 -159 33 -80 52 -80 52
-158 51 -51 -1 -78 3 -78 10 1 6 7 40 15 76 23 102 20 127 -15 145 -63 32
-135 13 -164 -43 -21 -42 -45 -160 -55 -275 -5 -58 -12 -110 -15 -116 -4 -6
-43 -22 -88 -36 -97 -31 -108 -26 -108 49 -1 135 -58 283 -139 359 -59 55
-109 71 -207 65 -157 -10 -254 -115 -242 -263 2 -28 -1 -45 -8 -45 -5 0 -61
34 -123 75 -105 69 -117 75 -165 75 -29 0 -57 -5 -64 -12 -9 -9 -12 -72 -12
-223 0 -248 -19 -428 -61 -587 -14 -55 -44 -52 -60 4 -42 158 -43 164 -44 542
l-2 369 -22 19 c-30 23 -78 23 -118 -1 -37 -23 -32 -8 -83 -256 -46 -226 -127
-539 -172 -662 -58 -159 -75 -125 -64 130 8 175 34 404 67 586 11 63 18 124
15 136 -9 34 -60 50 -154 50 -81 0 -85 -1 -111 -31 -23 -25 -31 -47 -40 -110
-68 -480 -9 -882 142 -974 38 -24 97 -26 136 -5 64 33 104 104 176 320 26 77
48 141 50 143 1 1 12 -37 24 -85 29 -114 79 -218 130 -267 74 -72 176 -56 222
34 46 88 85 326 96 582 4 108 9 148 19 148 6 0 36 -11 66 -25 29 -14 79 -30
111 -37 l59 -12 -9 -46 c-11 -63 -5 -204 12 -272 29 -116 114 -237 195 -278
80 -41 181 -34 248 17 55 41 110 178 127 316 4 30 10 59 14 66 5 7 39 20 77
30 38 10 79 21 90 25 21 6 22 3 29 -106 8 -146 27 -275 60 -415 32 -136 51
-159 125 -149 72 10 75 17 56 140 -22 146 -21 326 5 477 19 115 50 222 70 243
5 6 34 -4 72 -23 89 -45 181 -60 245 -39 l49 15 7 -136 c15 -315 89 -606 200
-795 48 -81 96 -117 164 -124 114 -11 193 78 309 348 24 58 46 106 47 108 2 1
13 -36 25 -83 24 -89 53 -128 107 -141 37 -9 93 5 104 26 5 10 10 62 10 114 0
184 40 410 101 566 31 80 83 167 92 153 13 -21 38 -143 62 -308 41 -282 95
-454 175 -555 75 -95 187 -114 268 -45 74 62 164 359 191 630 10 100 3 125
-33 125 -35 0 -42 -15 -60 -125 -45 -268 -150 -571 -195 -563 -37 7 -79 162
-146 543 -45 254 -74 353 -116 394 -57 58 -153 64 -235 16 -47 -27 -105 -112
-145 -209 l-24 -60 -6 75 c-12 138 -10 344 3 357 7 7 30 12 52 12 121 1 320
86 413 177 54 52 56 53 80 38 34 -23 46 -60 32 -102 -15 -45 -7 -61 34 -68 91
-17 169 91 124 173 -15 26 -92 83 -137 102 l-30 13 7 66 c33 281 -49 511 -207
580 -53 23 -167 34 -227 21z m123 -157 c28 -28 62 -113 74 -185 12 -66 11
-241 -1 -252 -3 -3 -50 1 -105 9 -54 8 -119 15 -143 15 l-44 0 7 40 c8 54 63
225 86 270 29 56 79 120 94 120 8 0 22 -8 32 -17z m-507 -605 c-19 -132 -17
-406 5 -668 l18 -225 -46 -140 c-53 -157 -168 -402 -215 -455 -30 -34 -31 -34
-46 -16 -42 55 -100 270 -120 446 -22 205 -27 357 -15 510 23 299 62 585 84
616 9 11 47 16 176 22 91 4 167 7 168 5 2 -1 -2 -44 -9 -95z m429 81 c53 -6
101 -15 106 -20 10 -9 -15 -51 -53 -87 -28 -26 -168 -97 -213 -108 -26 -6 -28
-4 -28 27 0 19 5 71 12 117 l11 82 34 0 c19 0 78 -5 131 -11z m-2256 -367 c39
-26 63 -60 92 -131 32 -80 48 -162 44 -226 -3 -58 -17 -64 -88 -45 -120 32
-210 208 -166 324 18 48 57 96 78 96 7 0 25 -8 40 -18z m-60 -462 c13 -6 61
-14 108 -18 l85 -7 -3 -40 c-8 -106 -50 -234 -87 -265 -36 -30 -96 67 -131
210 -19 79 -22 105 -13 116 14 17 12 17 41 4z"/>
<path d="M7180 2870 c-12 -8 -14 -49 -12 -272 2 -145 5 -270 8 -280 8 -27 37
-32 56 -8 15 19 16 41 11 206 -3 101 -4 184 -1 184 3 0 63 -95 133 -210 98
-160 134 -212 152 -216 45 -12 48 3 53 249 6 281 2 340 -23 345 -43 9 -47 -9
-47 -230 0 -127 -4 -207 -9 -203 -6 3 -58 85 -117 183 -168 276 -167 275 -204
252z"/>
<path d="M7703 2870 c-13 -5 -23 -17 -24 -27 -3 -58 3 -511 7 -525 13 -43 134
-46 241 -6 68 25 150 99 179 163 65 138 -4 304 -155 373 -43 20 -75 27 -141
29 -47 2 -95 -1 -107 -7z m220 -88 c51 -23 110 -87 127 -137 27 -82 -11 -177
-92 -233 -54 -37 -100 -52 -153 -52 l-43 0 -7 214 c-4 118 -4 220 0 226 11 17
114 6 168 -18z"/>
<path d="M2525 2857 c-19 -15 -20 -26 -17 -279 4 -328 -13 -302 186 -292 141
7 176 14 176 37 -1 36 -16 40 -147 38 l-130 -2 -7 62 c-12 118 -10 127 27 134
17 3 59 6 92 8 48 2 60 5 63 20 7 37 -16 47 -104 47 l-84 0 0 80 0 80 125 0
c116 0 125 1 136 21 20 38 -4 46 -156 54 -115 5 -144 4 -160 -8z"/>
<path d="M2957 2859 c-9 -6 -17 -18 -17 -28 0 -26 199 -534 213 -543 18 -11
34 -10 49 6 8 7 60 125 117 262 108 259 112 279 60 279 -21 0 -31 -18 -96
-175 -40 -96 -80 -191 -89 -210 l-16 -35 -12 25 c-7 14 -46 112 -86 218 -41
106 -81 197 -90 202 -9 5 -23 4 -33 -1z"/>
<path d="M3515 2857 c-19 -15 -20 -26 -17 -279 4 -328 -13 -302 186 -292 141
7 176 14 176 37 -1 36 -16 40 -147 38 l-130 -2 -7 62 c-12 118 -10 127 27 134
17 3 59 6 92 8 48 2 60 5 63 20 7 37 -16 47 -104 47 l-84 0 0 80 0 80 125 0
c116 0 125 1 136 21 20 38 -4 46 -156 54 -115 5 -144 4 -160 -8z"/>
<path d="M3956 2848 c-13 -18 -15 -58 -10 -267 6 -274 7 -286 30 -295 32 -12
44 13 44 90 0 48 4 74 11 74 7 0 69 -36 140 -81 96 -60 134 -79 149 -74 16 5
20 14 18 33 -2 20 -24 39 -113 94 -60 38 -111 72 -113 77 -1 4 15 13 36 19 48
15 113 58 143 95 29 38 36 104 15 145 -32 61 -157 112 -278 112 -47 0 -59 -4
-72 -22z m187 -70 c56 -12 107 -51 107 -80 0 -50 -126 -128 -207 -128 -23 0
-23 2 -23 108 0 60 3 112 7 116 7 7 27 4 116 -16z"/>
<path d="M5304 2856 c-17 -8 -43 -29 -58 -48 -72 -95 -28 -194 124 -274 142
-75 178 -174 63 -174 -47 0 -83 15 -149 62 -70 50 -106 12 -49 -51 39 -43 111
-78 178 -87 84 -12 167 47 167 117 0 38 -40 107 -78 137 -20 16 -65 44 -100
62 -105 56 -141 122 -90 170 48 44 118 38 178 -16 41 -37 66 -41 83 -13 16 25
-24 73 -85 103 -59 29 -133 34 -184 12z"/>
<path d="M5685 2857 c-19 -15 -20 -26 -17 -279 4 -328 -13 -302 186 -292 141
7 176 14 176 37 -1 36 -16 40 -147 38 l-130 -2 -7 62 c-12 118 -10 127 27 134
17 3 59 6 92 8 48 2 60 5 63 20 7 37 -16 47 -104 47 l-84 0 0 80 0 80 125 0
c116 0 125 1 136 21 20 38 -4 46 -156 54 -115 5 -144 4 -160 -8z"/>
<path d="M4422 2848 c-7 -7 -12 -17 -12 -24 0 -6 43 -78 95 -159 l95 -147 0
-102 c0 -113 11 -143 47 -132 27 9 33 32 33 139 l0 89 88 121 c111 153 117
164 101 183 -25 31 -52 10 -135 -104 -45 -63 -85 -116 -87 -118 -2 -3 -37 46
-77 108 -102 158 -119 175 -148 146z"/>
<path d="M6269 2846 c-127 -45 -198 -147 -199 -281 0 -114 55 -205 154 -258
81 -42 215 -24 289 41 21 19 22 55 2 72 -12 10 -23 6 -61 -19 -78 -51 -153
-53 -227 -5 -42 28 -87 108 -87 157 0 63 23 121 66 163 51 52 102 68 183 58
53 -6 60 -4 65 13 10 32 -2 49 -43 62 -49 14 -97 13 -142 -3z"/>
<path d="M6732 2839 c-191 -95 -190 -405 3 -524 87 -54 204 -36 276 42 55 58
74 111 74 203 0 99 -23 161 -83 224 -73 76 -182 98 -270 55z m191 -86 c22 -15
51 -48 64 -73 21 -39 24 -56 21 -126 -3 -69 -7 -86 -31 -122 -69 -98 -199 -96
-268 5 -130 189 39 440 214 316z"/>
<path d="M4877 1930 c-65 -17 -131 -56 -180 -109 -127 -135 -129 -317 -6 -507
89 -138 372 -398 586 -538 l42 -28 68 49 c316 224 547 466 614 641 78 206 -23
423 -227 487 -72 22 -180 17 -247 -13 -57 -25 -149 -110 -184 -169 -14 -24
-27 -43 -29 -43 -2 0 -13 19 -25 41 -30 60 -111 136 -174 165 -62 29 -174 40
-238 24z"/>
</g>
</svg>
