<?xml version="1.0" standalone="no"?>
<!DOCTYPE svg PUBLIC "-//W3C//DTD SVG 20010904//EN"
 "http://www.w3.org/TR/2001/REC-SVG-20010904/DTD/svg10.dtd">
<svg version="1.0" xmlns="http://www.w3.org/2000/svg"
 width="1063.000000pt" height="1063.000000pt" viewBox="0 0 1063.000000 1063.000000"
 preserveAspectRatio="xMidYMid meet">

<g transform="translate(0.000000,1063.000000) scale(0.100000,-0.100000)"
fill="#000000" stroke="none">
<path d="M8633 8556 c-112 -51 -270 -300 -368 -579 -21 -59 -40 -106 -42 -104
-3 4 39 410 53 503 7 52 -12 74 -66 74 -49 0 -60 -19 -84 -140 -85 -441 -100
-1013 -36 -1368 10 -57 24 -110 31 -118 12 -15 77 -19 94 -6 6 4 10 101 10
252 0 181 5 276 18 365 50 337 159 650 306 873 57 87 142 182 162 182 15 0 37
-43 54 -105 19 -73 31 -339 45 -1060 5 -280 14 -535 20 -565 6 -39 17 -62 35
-77 30 -26 44 -28 69 -10 14 11 15 17 6 42 -8 21 -12 252 -14 800 -2 698 -4
777 -20 850 -20 91 -43 139 -81 175 -21 20 -38 25 -93 27 -43 2 -79 -2 -99
-11z"/>
<path d="M9620 8530 c-101 -21 -225 -103 -310 -205 -54 -65 -134 -229 -160
-330 -87 -337 -17 -729 180 -1020 107 -157 221 -224 344 -201 52 10 136 91
174 169 43 88 109 287 123 376 12 69 11 75 -7 88 -31 23 -89 9 -219 -54 -111
-53 -125 -58 -182 -56 -34 1 -65 -2 -68 -8 -12 -18 6 -47 36 -59 44 -19 114
-7 229 38 55 22 102 37 105 33 2 -5 -7 -55 -20 -114 -50 -222 -139 -367 -224
-367 -55 0 -174 152 -237 301 -160 378 -133 835 66 1124 68 99 201 205 257
205 35 0 100 -66 133 -135 37 -78 57 -163 66 -282 5 -71 11 -96 25 -109 23
-21 64 -12 80 19 17 30 16 238 -1 307 -19 83 -63 172 -103 212 -58 58 -187 88
-287 68z"/>
<path d="M1620 8523 c-35 -13 -40 -35 -40 -192 0 -428 79 -1061 181 -1459 43
-167 64 -202 125 -202 38 0 59 30 77 111 9 40 37 169 63 284 97 442 208 854
335 1241 27 83 49 156 49 162 0 18 -55 14 -72 -5 -32 -37 -166 -412 -247 -693
-89 -309 -174 -667 -196 -823 -3 -27 -9 -47 -11 -44 -7 7 -71 481 -94 692 -23
217 -48 545 -58 754 -7 134 -10 155 -27 167 -19 14 -57 17 -85 7z"/>
<path d="M6652 8515 c-19 -14 -37 -15 -148 -4 -165 15 -645 6 -814 -15 -153
-20 -190 -31 -190 -56 0 -37 33 -42 196 -35 102 5 154 4 154 -3 0 -5 -9 -52
-19 -103 -67 -331 -76 -1091 -15 -1410 24 -126 68 -189 133 -189 50 0 63 22
37 63 -24 37 -36 121 -47 330 -12 208 -7 555 11 777 15 187 62 529 76 548 11
15 43 17 288 17 180 0 279 -4 286 -11 7 -7 4 -45 -9 -130 -11 -65 -25 -177
-31 -247 -20 -255 -8 -759 25 -1017 27 -216 62 -280 150 -280 55 0 66 17 36
57 -42 57 -54 197 -55 653 -1 228 3 454 7 503 l9 88 271 -7 c150 -4 280 -11
290 -16 16 -8 17 -23 10 -216 -5 -114 -8 -405 -8 -647 0 -482 1 -489 58 -509
56 -20 56 -23 61 364 5 355 32 844 61 1112 27 246 29 286 15 303 -15 18 -93
20 -108 3 -12 -15 -47 -186 -57 -276 -4 -34 -11 -64 -15 -67 -14 -9 -553 24
-564 35 -6 6 -2 64 12 162 25 176 27 209 10 226 -17 17 -89 15 -116 -3z"/>
<path d="M3517 8506 c-43 -7 -84 -19 -92 -27 -20 -19 -50 -162 -70 -329 -22
-178 -32 -861 -16 -1084 19 -275 38 -339 105 -351 40 -8 76 1 76 19 0 7 -8 28
-17 47 -15 29 -18 74 -21 292 -3 141 -1 257 2 257 4 0 29 -16 57 -35 99 -68
295 -150 444 -186 152 -36 289 -19 319 40 18 35 10 51 -26 51 -20 0 -43 -11
-66 -31 -33 -29 -39 -31 -86 -24 -76 10 -216 60 -351 125 -122 59 -239 135
-230 149 2 5 40 11 83 13 154 11 303 87 437 223 125 127 178 244 179 391 1 85
-1 94 -37 168 -54 108 -122 173 -239 230 -153 74 -267 90 -451 62z m224 -62
c234 -70 384 -275 339 -466 -18 -75 -74 -186 -128 -254 -99 -123 -259 -221
-379 -233 -101 -11 -96 -24 -83 249 11 239 33 503 51 620 6 45 16 70 30 83 27
22 97 22 170 1z"/>
<path d="M818 8480 c-34 -21 -63 -175 -80 -428 -15 -212 -1 -541 37 -894 34
-318 46 -366 97 -402 49 -34 100 -15 336 127 157 95 180 119 115 125 -23 2
-72 -17 -189 -77 -87 -45 -160 -81 -161 -81 -29 0 -85 670 -59 696 14 14 188
34 296 34 80 0 95 5 80 30 -13 20 -105 29 -244 22 -69 -4 -131 -5 -136 -4 -20
7 -7 402 21 665 8 77 16 110 26 114 24 9 343 -26 433 -47 97 -24 143 -23 148
2 4 23 -39 44 -141 68 -178 42 -541 74 -579 50z"/>
<path d="M2563 8474 c-18 -15 -27 -43 -43 -134 -51 -287 -49 -675 5 -1182 34
-318 46 -366 97 -402 49 -34 100 -15 336 127 157 95 180 119 115 125 -23 2
-72 -17 -189 -77 -87 -45 -160 -81 -161 -81 -29 0 -85 670 -59 696 14 14 188
34 296 34 80 0 95 5 80 30 -13 20 -105 29 -244 22 -69 -4 -131 -5 -136 -4 -20
7 -7 402 21 665 8 77 16 110 26 114 24 9 343 -26 433 -47 97 -24 143 -23 148
2 9 49 -265 109 -568 124 -123 6 -137 5 -157 -12z"/>
<path d="M5300 8468 c-29 -15 -104 -128 -306 -463 -80 -132 -175 -279 -211
-327 -64 -84 -130 -148 -153 -148 -16 0 -46 74 -61 150 -19 94 -16 375 6 579
l18 174 -23 19 c-27 22 -42 23 -80 3 -24 -12 -31 -25 -44 -82 -30 -135 -38
-244 -33 -427 6 -199 21 -287 65 -375 39 -79 79 -104 158 -99 49 3 69 10 105
36 56 41 132 135 227 282 284 436 302 461 302 433 0 -26 -73 -575 -90 -678
-58 -344 -203 -791 -279 -859 -20 -18 -22 -18 -54 -2 -38 21 -90 18 -95 -5 -2
-9 12 -32 30 -52 65 -68 172 -57 244 27 114 131 280 605 344 983 37 217 81
558 87 673 5 103 4 117 -13 138 -24 28 -106 40 -144 20z"/>
<path d="M7771 8453 c-68 -57 -108 -505 -98 -1088 10 -547 32 -659 131 -659
53 0 63 15 40 61 -18 36 -19 68 -18 578 0 566 10 754 53 988 15 84 16 100 4
117 -18 26 -82 27 -112 3z"/>
<path d="M888 6573 c-9 -10 -20 -28 -26 -39 -15 -28 -42 -185 -42 -240 0 -47
2 -46 -110 -60 -61 -7 -80 -18 -80 -45 0 -25 34 -41 75 -34 19 3 50 7 69 10
l34 5 5 -287 c3 -204 9 -313 21 -375 27 -146 69 -237 129 -282 35 -26 127 -28
173 -4 80 43 184 160 272 307 l49 81 6 -178 c4 -97 10 -187 13 -200 7 -25 49
-41 66 -24 6 6 14 53 19 104 15 163 80 450 108 481 5 4 16 -40 25 -98 37 -225
102 -405 166 -459 103 -86 256 -7 404 209 l41 60 6 -51 c10 -83 38 -152 78
-194 93 -97 232 -68 296 64 l28 56 22 -47 c43 -94 131 -146 217 -128 108 23
229 153 376 404 5 9 14 -22 24 -85 26 -156 68 -251 131 -298 37 -27 127 -28
177 -1 51 26 169 149 222 230 25 39 74 121 108 182 69 126 75 166 28 171 -24
3 -31 -5 -79 -99 -156 -304 -317 -468 -410 -419 -50 27 -101 198 -115 385 -6
88 -5 94 24 156 36 76 77 209 92 300 l12 67 66 7 c114 11 131 21 116 68 -6 18
-12 19 -89 13 l-82 -7 -6 83 c-9 111 -31 182 -64 208 -72 56 -123 -30 -139
-237 -8 -92 1 -85 -114 -99 -61 -7 -80 -18 -80 -45 0 -25 34 -41 75 -34 19 3
51 7 70 10 l35 6 0 -197 0 -197 -46 -86 c-143 -264 -277 -411 -375 -411 -24 0
-41 10 -69 38 -42 44 -66 111 -79 221 -9 68 -20 91 -46 91 -24 0 -35 -20 -45
-85 -33 -217 -125 -318 -219 -240 -126 106 -46 545 99 545 42 0 77 -35 101
-100 19 -54 25 -60 50 -60 79 0 19 178 -74 221 -53 23 -91 24 -142 0 -55 -25
-81 -58 -155 -198 -113 -213 -215 -351 -298 -404 -131 -83 -187 5 -261 408
-32 175 -40 198 -71 208 -48 15 -98 -55 -140 -198 l-18 -62 -1 54 c-1 38 9 80
35 150 56 148 77 263 77 421 0 209 -41 318 -111 294 -64 -22 -82 -135 -82
-528 l0 -269 -55 -104 c-154 -291 -305 -441 -396 -393 -50 27 -101 198 -115
385 -6 88 -5 94 24 156 36 76 77 209 92 300 l12 67 66 7 c37 3 77 9 89 12 25
6 37 31 27 58 -6 16 -16 17 -89 11 l-82 -7 -6 83 c-9 110 -31 182 -64 207 -32
26 -55 27 -75 4z m60 -220 l5 -93 -28 0 -28 0 7 80 c3 44 9 94 13 111 10 54
25 6 31 -98z m2520 0 l5 -93 -28 0 -28 0 7 80 c3 44 9 94 13 111 10 54 25 6
31 -98z m-1892 20 c8 -87 -9 -293 -26 -320 -9 -14 -10 9 -6 91 3 60 6 153 6
208 0 54 4 98 9 98 5 0 13 -35 17 -77z m-640 -227 c-4 -24 -15 -72 -26 -107
l-18 -64 -1 102 c-1 98 0 102 22 106 12 2 24 5 26 6 2 0 0 -19 -3 -43z m2520
0 c-4 -24 -15 -72 -26 -107 l-18 -64 -1 102 c-1 98 0 102 22 106 12 2 24 5 26
6 2 0 0 -19 -3 -43z"/>
<path d="M6657 6572 c-37 -41 -56 -124 -73 -323 l-5 -66 -69 -12 c-161 -26
-240 -4 -240 68 0 26 -30 43 -53 30 -11 -7 -17 -22 -17 -45 0 -114 110 -159
318 -131 l62 9 0 -163 0 -162 -46 -86 c-143 -264 -277 -411 -375 -411 -24 0
-41 10 -69 38 -42 44 -66 111 -79 221 -9 68 -20 91 -46 91 -24 0 -35 -20 -45
-85 -33 -217 -125 -318 -219 -240 -126 106 -46 545 99 545 42 0 77 -35 101
-100 18 -49 26 -60 44 -60 34 0 47 22 39 69 -10 62 -57 129 -107 151 -53 24
-91 25 -142 1 -55 -25 -81 -58 -155 -198 -113 -213 -215 -351 -298 -404 -131
-83 -187 5 -261 408 -32 175 -40 198 -71 208 -58 19 -105 -68 -171 -315 l-12
-45 -18 108 c-32 186 -83 274 -146 251 -38 -13 -86 -111 -114 -233 -13 -53
-26 -100 -29 -104 -4 -4 -12 36 -19 90 -11 89 -29 143 -49 143 -5 0 -16 -6
-26 -13 -18 -13 -18 -19 -3 -123 9 -60 21 -183 27 -274 12 -179 19 -210 49
-210 29 0 38 19 51 105 30 203 109 525 130 525 25 0 100 -400 100 -537 0 -61
15 -93 43 -93 31 1 40 21 49 116 15 164 79 447 107 477 4 4 16 -40 25 -98 37
-225 102 -405 166 -459 103 -86 256 -7 404 209 l41 60 6 -51 c10 -83 38 -152
78 -194 93 -97 232 -68 296 64 l28 56 22 -47 c27 -60 92 -120 139 -129 138
-25 273 96 454 405 5 9 14 -22 24 -85 26 -155 68 -251 131 -298 37 -27 117
-28 172 -1 83 40 217 197 306 358 16 29 29 48 29 42 1 -39 33 -200 49 -247 57
-164 161 -217 285 -144 82 49 198 187 290 347 l20 34 7 -72 c21 -223 118 -355
249 -340 63 8 95 25 163 87 66 60 136 153 203 269 l49 84 6 -39 c4 -21 12
-115 19 -209 7 -93 17 -176 23 -183 13 -16 48 -12 57 8 4 8 15 73 25 143 17
133 70 363 98 430 l16 37 74 -75 c96 -97 144 -120 252 -119 84 0 130 16 202
70 39 30 41 30 72 0 15 -14 63 -47 109 -75 l82 -49 -52 -18 c-72 -23 -185 -80
-231 -116 -47 -38 -67 -75 -67 -128 0 -54 30 -84 106 -106 199 -57 444 93 421
258 -4 24 -7 51 -9 61 -2 15 15 25 88 51 168 61 278 140 272 194 -5 43 -42 41
-86 -3 -46 -46 -108 -78 -241 -125 l-103 -37 -103 64 c-56 35 -112 75 -125 88
l-22 24 21 29 c41 58 71 136 71 185 0 109 -77 162 -148 102 -47 -40 -65 -96
-67 -210 l-1 -100 -67 -39 c-134 -77 -192 -64 -329 76 -64 65 -104 98 -118 98
-50 0 -99 -88 -136 -244 -20 -87 -26 -82 -39 33 -8 67 -32 108 -58 98 -8 -3
-39 -52 -68 -108 -103 -200 -231 -369 -310 -410 -60 -30 -95 -25 -140 19 -54
55 -57 78 -20 170 44 111 61 186 61 270 0 91 -20 137 -67 160 -31 15 -37 15
-61 1 -15 -8 -34 -30 -43 -49 -136 -286 -221 -422 -323 -518 -70 -65 -117 -84
-161 -64 -50 23 -104 204 -120 399 -6 77 -5 84 23 140 60 118 112 327 112 449
0 34 4 66 10 69 5 3 49 11 97 16 118 15 163 1 176 -53 15 -65 77 -60 77 6 0
44 -31 90 -76 111 -32 15 -55 17 -148 12 -61 -2 -117 -6 -124 -8 -9 -3 -19 14
-28 49 -23 88 -56 122 -104 107 -28 -9 -57 -69 -70 -147 l-11 -64 -222 -66
-222 -66 -6 97 c-8 122 -31 203 -65 230 -33 26 -56 27 -77 3z m58 -242 l0
-115 -28 -3 c-26 -3 -27 -2 -23 35 3 21 8 67 11 103 3 36 8 80 12 99 12 67 27
0 28 -119z m648 104 c1 -21 -3 -29 -17 -32 -14 -3 -17 0 -12 13 3 9 6 28 6 43
0 35 20 15 23 -24z m11 -187 c-6 -78 -38 -229 -54 -255 -12 -21 -13 26 -3 197
6 112 8 123 27 131 12 4 24 6 29 3 4 -2 4 -37 1 -76z m-141 -209 l-6 -253 -42
-85 c-92 -183 -228 -361 -307 -401 -70 -36 -106 -22 -144 53 -53 104 -93 400
-61 449 26 41 58 129 87 243 l28 110 218 67 c121 37 222 68 226 68 4 1 5 -113
1 -251z m-537 59 c-3 -18 -12 -53 -20 -78 l-14 -44 -1 71 c-1 73 2 84 27 84
11 0 13 -8 8 -33z m2752 -100 c-3 -33 -14 -69 -31 -97 l-27 -45 0 40 c1 49 17
125 32 142 22 26 30 13 26 -40z m-1442 -179 c16 -52 -9 -226 -37 -253 -13 -12
-7 228 6 258 10 23 22 21 31 -5z m1674 -317 c5 -11 10 -35 10 -54 0 -83 -99
-154 -231 -164 -79 -6 -149 13 -149 39 0 43 85 102 228 159 111 44 127 46 142
20z"/>
<path d="M2654 4795 c-50 -30 -91 -91 -150 -224 -69 -158 -142 -428 -175 -651
l-13 -85 -9 60 c-9 62 -2 510 9 556 12 52 -64 81 -105 40 -30 -30 -45 -146
-44 -351 0 -233 26 -470 89 -800 63 -337 86 -394 147 -371 14 5 28 14 31 19 3
5 -1 60 -8 123 -51 415 -10 855 115 1234 41 124 123 302 159 344 29 34 38 20
60 -90 24 -122 38 -310 50 -704 13 -398 28 -657 40 -689 19 -52 90 -54 109 -4
5 13 25 125 45 250 55 342 139 652 231 853 47 105 127 236 140 232 7 -3 9
-181 6 -573 -3 -572 7 -892 32 -1004 14 -62 38 -81 89 -71 44 9 57 34 33 61
-18 20 -21 41 -25 199 -3 97 -2 289 3 426 4 138 8 421 10 630 2 423 2 424 -64
459 -26 14 -44 17 -74 12 -122 -22 -270 -313 -380 -741 -20 -76 -38 -141 -40
-144 -3 -2 -5 74 -5 170 0 332 -35 651 -81 760 -31 71 -68 99 -132 99 -37 0
-64 -7 -93 -25z"/>
<path d="M5123 4780 c-155 -32 -276 -161 -313 -331 -8 -37 -11 -103 -8 -185 4
-105 10 -144 32 -208 37 -108 92 -221 172 -351 214 -349 264 -456 264 -563 -1
-83 -45 -152 -98 -152 -61 0 -195 118 -243 215 -64 131 -76 248 -34 350 30 73
30 75 3 75 -34 0 -44 -10 -74 -70 -54 -107 -43 -251 28 -390 98 -191 232 -273
392 -240 139 29 199 158 157 340 -15 66 -100 236 -205 415 -90 152 -167 310
-204 415 -23 65 -26 92 -26 205 -1 110 2 139 21 187 40 107 125 196 203 213
49 11 105 -12 165 -67 134 -122 159 -273 109 -666 -16 -125 -16 -144 -4 -152
25 -16 56 -11 77 13 50 53 103 303 103 481 0 230 -75 364 -246 443 -47 21 -76
27 -144 29 -47 2 -104 -1 -127 -6z"/>
<path d="M8053 4780 c-155 -32 -276 -161 -313 -331 -8 -37 -11 -103 -8 -185 4
-105 10 -144 32 -208 37 -108 92 -221 172 -351 214 -349 264 -456 264 -563 -1
-83 -45 -152 -98 -152 -61 0 -195 118 -243 215 -64 131 -76 248 -34 350 30 73
30 75 3 75 -34 0 -44 -10 -74 -70 -54 -107 -43 -251 28 -390 98 -191 232 -273
392 -240 139 29 199 158 157 340 -15 65 -100 238 -196 400 -89 149 -178 328
-212 426 -24 70 -27 94 -27 209 -1 110 2 139 21 187 40 107 125 196 203 213
49 11 105 -12 165 -67 134 -122 159 -273 109 -666 -16 -125 -16 -144 -4 -152
25 -16 56 -11 77 13 50 53 103 303 103 481 0 230 -75 364 -246 443 -47 21 -76
27 -144 29 -47 2 -104 -1 -127 -6z"/>
<path d="M4068 4711 c-77 -25 -117 -52 -180 -120 -128 -138 -211 -378 -232
-676 -18 -241 57 -571 167 -737 68 -101 114 -145 194 -185 69 -34 84 -38 157
-38 98 0 163 21 228 73 118 93 219 291 263 514 22 111 31 401 16 509 -46 322
-170 558 -338 641 -83 40 -188 48 -275 19z m203 -72 c97 -48 216 -243 263
-430 65 -254 59 -565 -15 -807 -33 -105 -97 -228 -151 -287 -51 -56 -134 -105
-177 -105 -70 0 -179 95 -239 209 -38 71 -87 220 -109 330 -25 122 -25 461 0
583 40 198 107 347 202 446 87 91 138 105 226 61z"/>
<path d="M6075 4724 c-112 -9 -312 -35 -342 -45 -22 -7 -33 -17 -33 -30 0 -36
39 -43 191 -33 78 5 145 6 151 3 6 -4 2 -44 -11 -110 -40 -204 -53 -367 -54
-709 -1 -457 24 -731 76 -823 31 -55 84 -79 131 -61 20 8 20 28 2 57 -24 37
-35 117 -47 334 -12 214 -7 543 11 773 15 186 62 529 76 548 11 15 41 17 266
17 177 0 275 -4 326 -14 55 -11 78 -12 97 -3 54 25 12 57 -110 83 -49 10 -630
20 -730 13z"/>
<path d="M7461 4663 c-68 -57 -108 -505 -98 -1088 10 -547 32 -659 131 -659
53 0 63 15 40 61 -18 36 -19 68 -19 558 0 554 9 737 49 975 19 112 20 134 8
151 -17 25 -82 26 -111 2z"/>
<path d="M3656 3156 c-47 -47 -51 -96 -51 -711 0 -313 4 -587 8 -607 6 -29 14
-39 33 -44 14 -4 30 -2 36 4 6 6 14 53 19 104 15 163 80 450 108 481 5 4 16
-40 25 -98 37 -225 102 -405 166 -459 104 -87 259 -5 405 212 l43 64 7 -44
c19 -116 74 -206 148 -243 90 -44 163 -30 231 46 55 61 84 133 104 260 l16 96
86 12 c48 7 110 23 138 36 l52 24 5 -22 c7 -33 24 -208 31 -332 7 -119 15
-145 43 -145 29 0 38 19 51 105 30 205 109 525 129 525 24 0 88 -329 98 -498
6 -102 17 -132 46 -132 31 1 40 21 49 116 15 164 79 447 107 477 4 4 16 -40
25 -98 37 -225 102 -405 166 -459 114 -95 294 17 445 277 28 47 53 86 56 87 3
0 9 -30 12 -67 18 -212 118 -345 247 -330 69 8 105 30 186 111 78 79 132 157
224 323 69 126 76 166 28 171 -24 3 -31 -5 -79 -99 -103 -200 -231 -369 -310
-410 -60 -30 -95 -25 -140 19 -54 55 -57 78 -20 170 62 156 80 304 45 378 -17
35 -58 64 -89 64 -28 0 -73 -55 -89 -109 -46 -155 -243 -448 -344 -512 -131
-83 -187 5 -261 408 -32 175 -40 198 -71 208 -58 19 -105 -68 -171 -315 l-12
-45 -18 108 c-32 186 -83 274 -146 251 -38 -13 -86 -111 -114 -233 -23 -99
-39 -135 -39 -88 0 60 -24 179 -40 199 l-16 21 -70 -42 c-78 -47 -148 -71
-208 -71 l-41 0 -18 60 c-43 148 -183 206 -274 115 -28 -28 -33 -40 -33 -80 0
-41 5 -52 38 -85 36 -37 115 -70 166 -70 46 0 51 -13 39 -97 -24 -165 -91
-273 -168 -273 -56 0 -100 32 -132 98 -26 52 -28 66 -28 167 1 99 3 116 29
172 31 69 26 93 -19 93 -19 0 -33 -19 -80 -107 -109 -204 -211 -342 -293 -394
-131 -83 -187 5 -261 408 -32 175 -40 198 -71 208 -48 15 -98 -55 -140 -198
l-18 -62 -1 54 c-1 38 9 80 35 150 56 148 77 263 77 421 0 99 -4 151 -17 195
-29 99 -73 129 -120 81z m60 -193 c8 -87 -9 -293 -26 -320 -9 -14 -10 9 -6 91
3 60 6 153 6 208 0 54 4 98 9 98 5 0 13 -35 17 -77z m1088 -538 c25 -17 63
-91 53 -102 -11 -11 -114 17 -141 38 -30 24 -32 36 -9 61 20 22 65 23 97 3z
m1802 -17 c16 -52 -9 -226 -37 -253 -13 -12 -7 228 6 258 10 23 22 21 31 -5z"/>
</g>
</svg>
