<?xml version="1.0" standalone="no"?>
<!DOCTYPE svg PUBLIC "-//W3C//DTD SVG 20010904//EN"
 "http://www.w3.org/TR/2001/REC-SVG-20010904/DTD/svg10.dtd">
<svg version="1.0" xmlns="http://www.w3.org/2000/svg"
 width="1063.000000pt" height="1063.000000pt" viewBox="0 0 1063.000000 1063.000000"
 preserveAspectRatio="xMidYMid meet">

<g transform="translate(0.000000,1063.000000) scale(0.100000,-0.100000)"
fill="#000000" stroke="none">
<path d="M3627 9434 c-282 -63 -529 -331 -592 -643 -38 -187 21 -329 153 -367
140 -41 292 30 367 170 34 63 29 89 -18 94 -21 3 -29 -4 -46 -36 -52 -101
-128 -154 -222 -154 -66 0 -95 14 -133 66 -34 45 -35 175 -2 279 76 240 274
447 482 502 106 28 206 21 444 -31 363 -79 534 -73 659 26 52 41 64 73 39 98
-19 19 -38 14 -76 -19 -70 -62 -113 -74 -252 -74 -111 1 -148 6 -340 49 -247
54 -357 64 -463 40z"/>
<path d="M6785 9332 c-60 -28 -114 -95 -174 -212 -30 -58 -55 -107 -57 -109
-4 -4 -120 25 -162 40 l-22 9 30 59 c30 61 31 85 3 95 -29 11 -48 -4 -81 -64
-18 -33 -35 -60 -37 -60 -3 0 -85 31 -184 70 -268 104 -318 115 -421 84 -75
-22 -162 -109 -184 -184 -29 -97 -16 -173 41 -239 41 -48 102 -73 169 -69 42
3 49 6 52 26 5 32 -15 52 -50 52 -101 0 -168 93 -138 193 36 124 157 178 300
134 40 -13 370 -137 378 -143 2 -1 -99 -204 -224 -450 -209 -413 -227 -453
-227 -500 1 -63 13 -88 52 -104 45 -18 98 -5 172 43 l26 17 -5 -29 c-3 -23 1
-30 17 -36 11 -3 27 -2 35 2 9 5 47 60 86 122 95 153 251 360 339 448 92 93
146 125 203 121 l43 -3 -2 -42 c-1 -32 -28 -95 -107 -250 -119 -235 -137 -288
-113 -346 35 -81 141 -73 254 19 l43 36 6 -29 c23 -114 151 -107 284 14 106
98 218 247 346 464 l31 52 -4 -99 c-5 -133 -20 -281 -33 -326 -20 -71 -92
-117 -149 -96 -29 10 -26 42 4 56 18 9 25 19 25 41 0 36 -28 48 -71 30 -37
-15 -59 -55 -59 -106 0 -112 123 -145 262 -71 69 36 178 139 271 254 57 71 68
99 45 122 -22 22 -46 13 -79 -30 -60 -78 -141 -168 -151 -168 -5 0 -6 5 -2 11
3 6 10 91 15 188 9 192 17 235 54 280 61 71 5 116 -91 72 -43 -19 -76 -64
-198 -264 -72 -118 -155 -225 -240 -311 -69 -70 -148 -122 -168 -110 -19 12
-4 68 42 160 269 529 267 524 218 540 -31 9 -47 -14 -150 -221 -50 -99 -106
-200 -126 -225 -122 -152 -199 -224 -261 -246 -74 -25 -64 9 78 294 99 199
111 229 111 276 0 31 -6 61 -16 75 -20 28 -72 51 -117 51 -54 0 -149 -55 -232
-133 -41 -40 -75 -70 -75 -68 0 2 43 88 96 192 l97 189 71 0 c121 1 200 51
259 165 25 49 31 72 32 127 0 62 -2 70 -31 99 -40 39 -93 47 -149 21z m95 -91
c34 -64 -56 -205 -147 -230 -41 -12 -83 -14 -83 -6 0 3 20 45 44 93 66 132
155 200 186 143z m-458 -284 c43 -13 80 -26 83 -29 4 -3 -66 -147 -154 -320
-137 -266 -171 -325 -229 -393 -80 -94 -150 -153 -201 -171 l-36 -12 -4 31
c-2 25 18 73 86 207 296 578 365 710 371 710 4 -1 42 -11 84 -23z"/>
<path d="M4165 9211 c-45 -11 -110 -47 -151 -83 -47 -41 -163 -191 -204 -263
l-31 -55 -69 0 c-74 0 -94 -12 -88 -52 3 -20 10 -23 51 -26 26 -2 47 -8 47
-13 0 -15 -142 -258 -213 -364 -148 -222 -274 -316 -424 -316 -120 0 -177 68
-178 213 0 83 -9 102 -46 96 -31 -4 -43 -53 -35 -143 14 -181 142 -279 322
-248 96 17 164 54 259 145 96 90 181 211 328 463 l93 160 99 3 c105 3 131 14
118 50 -10 27 -24 32 -95 32 -38 0 -68 2 -68 6 0 10 80 123 130 183 63 76 125
119 190 131 64 12 70 16 70 44 0 43 -32 54 -105 37z"/>
<path d="M7206 8909 c-15 -12 -26 -30 -26 -45 0 -30 41 -74 70 -74 12 0 32 11
45 25 14 13 25 34 25 45 0 26 -43 70 -68 70 -11 0 -31 -9 -46 -21z"/>
<path d="M4893 8878 c-34 -38 -53 -85 -53 -133 0 -55 -6 -67 -124 -260 -130
-214 -261 -345 -344 -345 -34 0 -28 42 17 108 186 274 171 507 -31 488 -117
-11 -231 -78 -347 -202 -149 -159 -239 -358 -217 -478 10 -51 56 -93 112 -102
91 -13 201 25 310 107 l61 46 21 -24 c16 -18 31 -23 72 -23 140 0 298 160 492
500 l49 87 107 -5 c59 -2 109 -6 111 -8 2 -2 -23 -45 -56 -96 -143 -221 -202
-348 -210 -449 -6 -76 4 -102 49 -125 75 -39 194 9 305 122 92 95 203 243 203
271 0 25 -31 46 -53 37 -9 -3 -28 -24 -43 -47 -42 -65 -160 -201 -207 -239
-67 -55 -111 -73 -166 -69 -23 2 -6 91 34 177 42 91 151 277 229 389 31 44 56
87 56 96 0 31 -24 40 -71 30 -50 -12 -171 -14 -218 -5 -25 5 -30 11 -25 23 14
33 17 121 4 136 -18 21 -43 19 -67 -7z m-462 -251 c22 -40 -26 -227 -58 -227
-28 0 -70 -56 -92 -122 -19 -57 -31 -75 -79 -118 -80 -70 -182 -120 -251 -122
-42 0 -57 3 -68 18 -36 47 24 210 125 345 100 131 240 235 336 249 53 8 74 2
87 -23z"/>
<path d="M2245 7648 c35 -112 35 -113 35 -753 0 -644 0 -635 -36 -762 l-6 -23
152 0 152 0 -6 23 c-35 122 -36 135 -36 414 l0 283 199 0 c171 0 208 -3 263
-20 34 -11 66 -20 71 -20 4 0 7 60 7 134 l0 134 -57 -21 c-51 -19 -84 -22
-270 -25 l-213 -4 0 226 0 226 238 0 c231 0 270 -4 345 -35 16 -7 17 3 17 119
l0 126 -431 0 -431 0 7 -22z"/>
<path d="M4440 7662 c0 -5 8 -27 18 -48 15 -36 17 -95 20 -692 3 -673 4 -659
-34 -789 l-6 -23 151 0 c97 0 151 4 151 10 0 6 -8 27 -17 48 -16 33 -18 88
-21 557 -2 316 1 516 6 510 5 -5 67 -93 137 -195 200 -289 236 -339 245 -345
11 -7 44 37 245 327 l150 217 3 -497 c2 -503 1 -525 -34 -617 -5 -13 14 -15
150 -15 86 0 156 2 156 4 0 2 -10 25 -22 52 l-23 49 0 675 0 675 22 53 23 53
-136 -3 -136 -3 -126 -205 c-201 -325 -264 -422 -272 -413 -8 9 -243 382 -332
528 l-55 90 -132 3 c-74 1 -131 -1 -131 -6z"/>
<path d="M3514 7638 c35 -49 37 -37 -178 -753 -184 -611 -205 -670 -258 -730
l-40 -45 196 0 196 0 -20 33 c-27 44 -25 83 14 222 l33 120 211 3 210 2 11
-32 c31 -99 61 -221 61 -250 0 -18 -9 -48 -20 -65 l-20 -33 196 0 196 0 -40
45 c-24 27 -51 75 -67 118 -54 146 -376 1224 -382 1279 -4 44 -2 63 11 83 l16
25 -170 0 -171 0 15 -22z m230 -660 c38 -134 71 -255 73 -270 l5 -28 -151 0
c-114 0 -151 3 -151 13 0 6 30 118 66 247 37 129 69 245 71 258 3 12 8 22 12
22 4 0 38 -109 75 -242z"/>
<path d="M5900 7655 c0 -3 8 -22 17 -43 17 -34 18 -93 21 -697 3 -676 3 -668
-33 -782 l-7 -23 165 0 165 0 -21 58 c-22 56 -22 64 -22 717 0 645 0 661 21
718 l21 57 -164 0 c-89 0 -163 -2 -163 -5z"/>
<path d="M6370 7655 c0 -2 8 -24 18 -47 16 -40 17 -98 17 -718 0 -620 -1 -678
-17 -718 -10 -23 -18 -47 -18 -52 0 -6 177 -10 490 -10 l490 0 0 114 0 114
-55 -19 c-49 -17 -84 -19 -360 -19 l-305 0 0 608 c0 610 2 648 35 735 7 16 -4
17 -144 17 -83 0 -151 -2 -151 -5z"/>
<path d="M7127 7647 c4 -7 31 -46 59 -87 62 -92 217 -339 347 -557 l97 -161 0
-289 c0 -286 -1 -298 -36 -420 l-6 -23 161 0 c88 0 161 1 161 3 0 1 -9 31 -20
65 -18 58 -20 92 -20 368 l0 304 131 217 c73 120 187 302 255 406 l123 187
-165 0 c-160 0 -164 -1 -154 -19 5 -11 10 -27 10 -37 0 -24 -304 -523 -320
-524 -6 0 -169 252 -255 394 -66 111 -73 132 -55 167 10 18 6 19 -155 19 -133
0 -164 -3 -158 -13z"/>
<path d="M6393 5808 c-34 -38 -53 -85 -53 -133 0 -52 -15 -85 -106 -232 -167
-271 -407 -518 -458 -472 -18 16 15 93 155 365 76 150 139 280 139 291 0 52
-53 57 -82 8 -20 -35 -21 -35 -35 -15 -39 56 -131 63 -247 20 -122 -46 -260
-183 -340 -339 -55 -107 -76 -178 -76 -254 0 -177 150 -218 335 -92 l65 45 0
-30 c0 -16 10 -41 24 -57 21 -24 31 -28 78 -28 71 1 121 31 214 127 136 139
270 322 365 494 l39 71 108 -5 c59 -2 109 -6 111 -8 2 -2 -23 -45 -56 -96
-143 -221 -202 -348 -210 -449 -6 -76 4 -102 49 -125 69 -36 182 5 287 102
l61 56 0 -29 c0 -38 36 -92 78 -116 72 -42 239 -28 359 30 94 45 323 292 323
349 0 22 -17 44 -35 44 -6 0 -44 -41 -85 -92 -86 -106 -180 -187 -267 -230
-98 -48 -227 -54 -273 -13 -28 25 -26 103 3 174 l22 55 101 0 c98 1 103 2 187
44 97 48 210 148 246 219 77 154 -58 233 -245 144 -32 -16 -75 -41 -94 -55
-75 -57 -178 -169 -229 -253 -121 -195 -275 -346 -361 -353 -52 -5 -53 -3 -47
50 10 86 123 300 268 509 33 47 59 92 59 101 0 32 -24 42 -71 31 -50 -12 -171
-14 -218 -5 -25 5 -30 11 -25 23 14 33 17 121 4 136 -18 21 -43 19 -67 -7z
m-503 -249 c17 -31 11 -92 -16 -149 -42 -91 -154 -250 -230 -327 -77 -79 -138
-113 -205 -116 -57 -2 -72 20 -66 98 9 119 84 261 197 375 85 85 153 126 231
138 62 10 76 7 89 -19z m1470 6 c0 -26 -67 -111 -125 -158 -33 -26 -84 -59
-114 -74 -57 -26 -164 -43 -174 -26 -17 26 164 202 256 249 58 31 157 36 157
9z"/>
<path d="M4117 5693 c-3 -5 -21 -48 -40 -98 -143 -370 -344 -624 -494 -625
-28 0 -33 4 -33 23 0 59 40 158 155 387 75 148 123 254 119 263 -7 19 -35 30
-55 22 -8 -3 -52 -80 -98 -171 -71 -142 -97 -183 -181 -283 -54 -64 -126 -143
-159 -174 -57 -52 -113 -81 -135 -69 -18 10 10 76 149 353 80 158 145 299 145
313 0 32 -46 49 -64 24 -6 -8 -79 -148 -161 -311 -144 -284 -150 -298 -150
-356 0 -48 4 -65 21 -81 55 -55 155 -25 267 80 l67 62 0 -57 c0 -50 4 -60 31
-87 28 -29 33 -30 86 -25 130 13 248 107 376 297 111 166 239 460 217 500 -10
19 -54 28 -63 13z"/>
<path d="M4565 5652 c-82 -28 -145 -71 -233 -156 -233 -226 -305 -501 -154
-589 72 -42 239 -28 359 30 94 45 323 292 323 349 0 22 -17 44 -35 44 -6 0
-44 -41 -85 -92 -86 -106 -180 -187 -267 -230 -98 -48 -227 -54 -273 -13 -28
25 -26 103 3 174 l22 55 101 0 c98 1 103 2 187 44 145 72 267 208 267 297 0
49 -15 74 -55 91 -45 19 -99 17 -160 -4z m135 -87 c0 -26 -67 -111 -125 -158
-33 -26 -84 -59 -114 -74 -57 -26 -164 -43 -174 -26 -17 26 164 202 256 249
58 31 157 36 157 9z"/>
<path d="M1510 4475 c-234 -47 -410 -186 -510 -400 -59 -125 -74 -199 -74
-355 0 -159 15 -231 79 -365 96 -204 250 -340 457 -404 96 -29 262 -44 396
-36 l114 7 -7 27 c-21 76 -24 139 -25 509 l0 402 -188 0 c-139 0 -202 4 -238
15 -27 8 -50 15 -51 15 -2 0 -3 -61 -3 -135 0 -74 2 -135 4 -135 2 0 20 7 39
15 23 10 69 15 127 15 l90 0 0 -250 0 -250 -27 0 c-55 1 -169 30 -228 60 -175
86 -291 274 -302 490 -14 269 111 471 345 558 104 38 346 42 435 7 16 -7 17 1
15 106 l-3 114 -190 2 c-124 1 -212 -3 -255 -12z"/>
<path d="M2213 4463 l-102 -4 15 -41 c12 -34 14 -153 14 -719 0 -655 -1 -681
-20 -731 -11 -29 -20 -54 -20 -55 0 -2 70 -3 155 -3 85 0 155 1 155 3 0 1 -10
27 -22 57 -20 50 -22 73 -22 255 l-1 200 97 3 97 3 31 -53 c17 -29 67 -125
111 -213 77 -151 81 -163 75 -207 l-7 -48 166 0 167 0 -20 33 c-44 72 -251
426 -285 488 l-37 65 62 50 c116 93 185 228 195 385 9 146 -37 276 -132 373
-64 64 -119 97 -221 132 -68 23 -98 27 -214 29 -74 1 -181 0 -237 -2z m435
-238 c100 -54 144 -129 150 -255 3 -69 0 -95 -17 -141 -27 -72 -75 -127 -142
-164 -49 -27 -64 -30 -168 -33 l-114 -4 6 173 c4 96 7 239 7 318 l0 144 113
-5 c100 -4 118 -7 165 -33z"/>
<path d="M4257 4463 c-4 -3 -7 -60 -7 -125 0 -131 -1 -130 66 -101 29 12 79
18 202 21 l163 4 -3 -623 c-3 -623 -3 -624 -25 -673 -13 -27 -23 -50 -23 -52
0 -2 74 -4 165 -4 91 0 165 4 165 9 0 5 -8 26 -17 47 -16 36 -18 94 -21 667
l-3 627 173 0 c118 -1 185 -5 211 -14 l37 -14 0 119 0 119 -538 0 c-296 0
-542 -3 -545 -7z"/>
<path d="M5485 4448 c35 -112 35 -113 35 -753 0 -644 0 -635 -36 -762 l-6 -23
431 0 431 0 0 125 c0 69 -2 125 -5 125 -3 0 -22 -8 -43 -17 -31 -14 -78 -18
-294 -21 l-258 -3 0 255 0 256 199 0 c171 0 208 -3 263 -20 34 -11 66 -20 71
-20 4 0 7 60 7 134 l0 134 -57 -21 c-52 -19 -78 -21 -268 -22 l-210 0 -3 223
-2 222 238 0 c231 0 270 -4 345 -35 16 -7 17 3 17 119 l0 126 -431 0 -431 0 7
-22z"/>
<path d="M6495 4448 c35 -112 35 -113 35 -753 0 -644 0 -635 -36 -762 l-6 -23
152 0 152 0 -6 23 c-35 122 -36 135 -36 414 l0 283 199 0 c171 0 208 -3 263
-20 34 -11 66 -20 71 -20 4 0 7 60 7 134 l0 134 -57 -21 c-51 -19 -84 -22
-270 -25 l-213 -4 0 226 0 226 238 0 c231 0 270 -4 345 -35 16 -7 17 3 17 119
l0 126 -431 0 -431 0 7 -22z"/>
<path d="M7500 4461 c0 -5 8 -28 17 -52 15 -39 18 -107 23 -605 l5 -560 39
-78 c88 -178 258 -286 451 -286 145 0 253 48 360 161 67 72 106 143 124 227 7
35 11 228 11 565 1 480 2 515 20 567 11 30 19 58 20 63 0 4 -75 7 -166 7 -154
0 -166 -1 -159 -17 34 -79 34 -86 35 -619 0 -591 1 -585 -67 -664 -64 -75
-156 -104 -247 -79 -49 14 -128 87 -158 147 l-23 47 -3 519 c-3 499 -2 522 18
587 11 37 20 70 20 73 0 3 -72 6 -160 6 -88 0 -160 -4 -160 -9z"/>
<path d="M3594 4438 c35 -49 37 -37 -178 -753 -184 -611 -205 -670 -258 -730
l-40 -45 196 0 196 0 -20 33 c-27 44 -25 83 14 222 l33 120 211 3 210 2 11
-32 c31 -99 61 -221 61 -250 0 -18 -9 -48 -20 -65 l-20 -33 196 0 196 0 -40
45 c-24 27 -51 75 -67 118 -54 146 -376 1224 -382 1279 -4 44 -2 63 11 83 l16
25 -170 0 -171 0 15 -22z m230 -660 c38 -134 71 -255 73 -270 l5 -28 -151 0
c-114 0 -151 3 -151 13 0 6 30 118 66 247 37 129 69 245 71 258 3 12 8 22 12
22 4 0 38 -109 75 -242z"/>
<path d="M8710 4455 c0 -2 8 -24 18 -47 16 -40 17 -98 17 -718 0 -620 -1 -678
-17 -718 -10 -23 -18 -47 -18 -52 0 -6 177 -10 490 -10 l490 0 0 114 0 114
-55 -19 c-49 -17 -84 -19 -360 -19 l-305 0 0 608 c0 610 2 648 35 735 7 16 -4
17 -144 17 -83 0 -151 -2 -151 -5z"/>
<path d="M4853 2356 c-202 -66 -319 -285 -272 -508 32 -152 109 -239 409 -458
101 -74 216 -165 255 -202 l72 -67 44 46 c24 25 148 123 275 218 247 184 324
254 366 332 73 134 76 310 7 445 -32 63 -112 141 -176 173 -50 25 -70 29 -143
30 -73 0 -93 -4 -142 -28 -104 -51 -178 -143 -214 -266 l-21 -74 -7 46 c-17
111 -118 246 -220 293 -68 31 -172 40 -233 20z"/>
</g>
</svg>
