<?xml version="1.0" standalone="no"?>
<!DOCTYPE svg PUBLIC "-//W3C//DTD SVG 20010904//EN"
 "http://www.w3.org/TR/2001/REC-SVG-20010904/DTD/svg10.dtd">
<svg version="1.0" xmlns="http://www.w3.org/2000/svg"
 width="1063.000000pt" height="1063.000000pt" viewBox="0 0 1063.000000 1063.000000"
 preserveAspectRatio="xMidYMid meet">

<g transform="translate(0.000000,1063.000000) scale(0.100000,-0.100000)"
fill="#000000" stroke="none">
<path d="M2614 9671 c-78 -35 -109 -102 -102 -217 9 -133 65 -183 218 -193
l85 -6 3 -53 c4 -70 -7 -82 -74 -82 -56 0 -94 22 -94 55 0 12 -14 15 -70 15
-68 0 -70 -1 -70 -25 0 -14 7 -42 15 -63 36 -86 101 -121 219 -122 102 0 155
23 191 84 22 37 25 55 25 133 0 77 -3 95 -22 123 -46 66 -100 89 -214 90 -69
0 -74 5 -74 70 0 53 20 70 81 70 63 0 89 -13 89 -45 0 -24 2 -25 71 -25 l72 0
-5 50 c-6 61 -45 115 -102 141 -56 26 -185 26 -242 0z"/>
<path d="M3145 9671 c-48 -22 -79 -54 -100 -103 -12 -29 -15 -79 -15 -233 0
-154 3 -204 15 -233 36 -85 101 -122 215 -122 92 0 145 22 186 76 l29 37 0
242 0 242 -29 37 c-16 21 -47 47 -70 57 -56 25 -176 25 -231 0z m176 -131 c18
-10 19 -23 19 -205 0 -221 2 -215 -84 -215 -33 0 -52 6 -66 20 -18 18 -20 33
-20 195 0 162 2 177 20 195 22 22 97 28 131 10z"/>
<path d="M3575 9665 l-25 -24 0 -331 0 -330 70 0 70 0 2 216 3 216 74 -91 c41
-51 77 -90 82 -89 4 2 39 43 78 92 l71 89 0 -217 0 -216 70 0 70 0 0 335 c0
322 -1 336 -20 355 -20 20 -45 25 -74 14 -9 -3 -57 -58 -107 -120 -50 -63 -93
-114 -94 -112 -1 2 -40 50 -85 108 -45 58 -90 111 -98 118 -25 19 -61 14 -87
-13z"/>
<path d="M4200 9335 l0 -355 225 0 225 0 0 70 0 69 -152 3 -153 3 -3 68 -3 67
91 0 90 0 0 75 0 75 -90 0 -90 0 0 70 0 70 155 0 155 0 0 70 0 70 -225 0 -225
0 0 -355z"/>
<path d="M5125 9671 c-48 -22 -79 -54 -100 -103 -12 -29 -15 -79 -15 -233 0
-154 3 -204 15 -233 36 -85 101 -122 215 -122 130 0 208 57 218 160 l5 50 -72
0 c-69 0 -71 -1 -71 -25 0 -31 -26 -45 -84 -45 -33 0 -52 6 -66 20 -18 18 -20
33 -20 195 0 162 2 177 20 195 14 14 33 20 66 20 58 0 84 -14 84 -45 0 -24 2
-25 71 -25 l72 0 -5 50 c-6 61 -45 115 -102 141 -56 25 -176 25 -231 0z"/>
<path d="M5661 9672 c-19 -14 -32 -67 -87 -337 -35 -176 -67 -328 -70 -337 -5
-16 3 -18 69 -18 l75 0 13 70 12 70 72 0 72 0 12 -70 13 -70 73 0 73 0 -69
338 c-57 280 -73 340 -90 355 -30 24 -138 24 -168 -1z m115 -369 l6 -43 -37 0
-38 0 6 43 c3 23 12 67 18 97 l13 55 12 -55 c7 -30 16 -74 20 -97z"/>
<path d="M6020 9423 c0 -165 4 -283 11 -308 14 -51 73 -110 124 -124 22 -6
102 -11 178 -11 l137 0 0 70 0 69 -142 3 c-141 3 -143 3 -155 28 -9 18 -13 95
-13 283 l0 257 -70 0 -70 0 0 -267z"/>
<path d="M6540 9423 c0 -165 4 -283 11 -308 14 -51 73 -110 124 -124 22 -6
102 -11 178 -11 l137 0 0 70 0 69 -142 3 c-141 3 -143 3 -155 28 -9 18 -13 95
-13 283 l0 257 -70 0 -70 0 0 -267z"/>
<path d="M7350 9335 l0 -355 70 0 70 0 0 355 0 355 -70 0 -70 0 0 -355z"/>
<path d="M7550 9620 l0 -70 80 0 80 0 0 -285 0 -285 70 0 70 0 0 285 0 285 75
0 75 0 0 70 0 70 -225 0 -225 0 0 -70z"/>
<path d="M3870 8757 c-147 -41 -273 -209 -360 -475 -97 -300 -131 -716 -95
-1163 l17 -214 -34 -61 c-159 -280 -318 -438 -443 -438 -204 0 -415 392 -376
699 12 96 54 234 81 267 19 23 19 23 38 3 19 -18 92 -199 92 -226 0 -26 33
-77 56 -88 35 -15 118 -14 159 3 45 19 51 46 32 138 -34 160 -105 294 -182
343 -47 29 -52 30 -169 30 -106 0 -128 -3 -174 -24 -65 -29 -105 -74 -148
-166 -66 -138 -85 -348 -46 -505 86 -350 321 -562 622 -563 197 0 320 86 462
326 27 45 44 64 48 55 4 -7 13 -53 19 -103 15 -115 48 -272 72 -352 22 -71 57
-106 122 -124 55 -15 109 1 125 36 7 14 12 72 12 128 1 313 79 656 193 845 17
28 35 52 39 52 15 0 40 -113 74 -340 51 -340 81 -461 156 -616 43 -89 121
-178 175 -200 46 -20 131 -17 180 5 81 37 148 166 200 383 15 62 28 114 29
116 1 2 23 -12 48 -31 59 -46 106 -61 186 -60 119 0 196 56 275 197 20 37 39
65 41 63 3 -2 11 -43 20 -91 50 -289 138 -405 305 -406 55 0 72 5 110 28 24
16 57 44 73 63 37 43 98 174 121 259 9 36 19 69 22 73 3 4 20 -18 39 -50 48
-80 127 -158 188 -184 38 -17 70 -23 126 -23 93 0 162 31 209 96 39 53 97 228
110 332 11 93 25 111 98 126 29 7 84 22 121 34 l66 23 36 -91 c20 -50 68 -150
108 -223 40 -73 72 -140 72 -149 0 -9 -34 -53 -76 -96 -163 -170 -198 -362
-94 -506 92 -127 316 -181 455 -109 180 92 196 269 51 581 -41 89 -52 124 -46
137 6 9 141 111 302 226 300 214 392 290 404 337 11 45 -1 59 -46 53 -31 -4
-55 -19 -106 -66 -36 -33 -116 -95 -177 -137 -160 -109 -439 -284 -455 -284
-18 0 -111 199 -153 325 -29 88 -32 113 -33 215 -1 107 1 119 26 167 31 58 91
123 113 123 32 0 79 -99 126 -262 29 -104 50 -123 132 -121 53 1 65 5 84 28
26 29 28 55 13 160 -24 166 -75 256 -171 304 -221 110 -456 28 -562 -197 -31
-65 -32 -71 -32 -199 l0 -132 -49 -21 c-81 -33 -166 -53 -180 -40 -8 6 -16 47
-20 98 -16 217 -102 398 -219 466 -117 67 -298 52 -406 -33 -57 -45 -101 -138
-101 -212 0 -32 5 -81 12 -109 10 -43 9 -65 -7 -140 -10 -52 -15 -108 -12
-132 4 -32 -3 -68 -28 -148 -18 -58 -45 -144 -59 -191 -44 -148 -135 -307
-169 -297 -21 7 -48 75 -69 175 -24 117 -28 314 -14 740 l9 282 -34 21 c-28
18 -45 21 -102 17 -77 -5 -103 -22 -113 -73 -9 -49 -24 -57 -75 -39 -180 64
-386 -9 -497 -175 -78 -116 -111 -274 -91 -440 10 -90 9 -101 -16 -200 -64
-254 -150 -465 -191 -465 -46 0 -91 155 -169 590 -79 440 -105 523 -181 582
-31 23 -49 28 -110 31 -40 2 -89 -1 -109 -8 -77 -25 -163 -132 -220 -272 l-32
-78 -7 37 c-3 21 -9 135 -13 253 -5 192 -4 216 10 229 9 7 52 17 95 22 248 28
495 176 573 344 71 150 75 391 10 584 -73 217 -175 299 -381 307 -59 2 -112
-1 -140 -9z m175 -193 c32 -34 59 -95 80 -179 21 -84 25 -304 6 -379 -19 -77
-61 -156 -106 -202 -49 -49 -211 -133 -273 -141 -41 -5 -42 -5 -42 23 0 47 38
278 66 403 51 226 122 403 194 479 27 29 45 28 75 -4z m2363 -1109 c85 -74
169 -339 144 -455 -8 -35 -9 -35 -58 -32 -132 8 -245 131 -269 294 -10 64 16
147 59 192 43 46 71 46 124 1z m-1146 -155 c50 -14 88 -61 88 -108 0 -111
-128 -467 -211 -588 -38 -55 -58 -62 -86 -29 -43 49 -67 157 -67 290 1 220 70
380 184 429 42 18 45 19 92 6z m1058 -400 c10 -6 64 -14 120 -19 55 -4 103
-11 107 -15 3 -3 -1 -54 -11 -113 -17 -109 -52 -203 -94 -253 l-20 -25 -32 30
c-46 44 -86 133 -115 260 -22 92 -25 118 -15 130 14 17 34 19 60 5z m1033
-627 c70 -149 84 -271 40 -346 -56 -95 -151 -37 -203 124 -25 75 -21 116 16
190 21 42 84 109 103 109 4 0 24 -35 44 -77z"/>
<path d="M3045 5528 c3 -13 32 -156 65 -318 69 -338 65 -330 160 -330 85 0 93
10 125 165 14 72 29 137 32 145 5 13 13 -19 54 -218 15 -75 35 -92 108 -92 96
0 92 -8 161 330 33 162 62 305 65 318 5 21 3 22 -63 22 l-68 0 -44 -220 c-25
-120 -48 -214 -51 -207 -4 7 -24 95 -44 197 -20 102 -39 195 -42 208 -5 20
-11 22 -73 22 l-68 0 -10 -47 c-6 -27 -25 -122 -43 -213 -17 -91 -35 -168 -38
-172 -4 -4 -26 91 -50 212 l-44 220 -68 0 c-67 0 -69 -1 -64 -22z"/>
<path d="M3880 5215 l0 -335 215 0 215 0 0 65 0 64 -147 3 -148 3 -3 68 -3 67
86 0 85 0 0 65 0 65 -85 0 -86 0 3 68 3 67 148 3 147 3 0 64 0 65 -215 0 -215
0 0 -335z"/>
<path d="M4745 5531 c-92 -42 -105 -82 -105 -316 0 -193 7 -232 48 -279 67
-76 267 -75 335 2 22 24 46 87 47 120 0 21 -4 22 -70 22 -68 0 -70 -1 -70 -25
0 -30 -26 -45 -79 -45 -28 0 -48 7 -61 20 -18 18 -20 33 -20 189 0 164 1 170
22 185 26 18 90 21 119 6 11 -6 19 -21 19 -35 0 -24 2 -25 70 -25 66 0 70 1
70 23 -1 32 -25 95 -47 119 -50 57 -195 77 -278 39z"/>
<path d="M5261 5533 c-18 -15 -31 -67 -81 -313 -33 -162 -62 -305 -65 -317 -5
-22 -3 -23 63 -23 l68 0 14 68 15 67 65 0 65 0 14 -67 14 -68 69 0 c61 0 69 2
64 18 -3 9 -33 152 -66 317 -70 343 -66 335 -160 335 -40 0 -64 -5 -79 -17z
m100 -304 l16 -79 -40 0 c-27 0 -38 4 -34 13 2 6 10 45 17 85 7 39 16 69 19
66 3 -3 13 -41 22 -85z"/>
<path d="M5600 5288 c0 -234 2 -267 19 -303 39 -86 87 -104 274 -105 l137 0 0
65 0 65 -128 0 c-95 0 -133 4 -148 14 -18 13 -19 30 -22 270 l-3 256 -64 0
-65 0 0 -262z"/>
<path d="M6090 5288 c0 -234 2 -267 19 -303 39 -86 87 -104 274 -105 l137 0 0
65 0 65 -128 0 c-95 0 -133 4 -148 14 -18 13 -19 30 -22 270 l-3 256 -64 0
-65 0 0 -262z"/>
<path d="M6850 5215 l0 -335 65 0 65 0 0 335 0 335 -65 0 -65 0 0 -335z"/>
<path d="M7050 5485 l0 -65 75 0 75 0 0 -270 0 -270 65 0 65 0 0 270 0 270 75
0 75 0 0 65 0 65 -215 0 -215 0 0 -65z"/>
<path d="M3720 4610 c-118 -44 -220 -137 -312 -286 -116 -188 -169 -315 -212
-504 -57 -258 -72 -430 -57 -670 22 -344 84 -596 208 -844 70 -139 118 -209
193 -280 55 -52 81 -69 126 -82 96 -28 184 -3 256 73 73 76 184 276 252 453
21 52 41 104 45 115 6 16 13 9 42 -45 19 -36 60 -92 91 -126 76 -81 136 -108
238 -108 95 0 157 28 206 92 42 55 99 226 113 337 6 53 15 84 28 95 10 10 55
27 100 38 45 12 109 32 143 45 42 17 62 22 65 14 2 -7 22 -82 45 -167 62 -238
109 -375 165 -485 45 -90 55 -102 95 -123 34 -18 56 -22 90 -19 84 9 101 53
150 394 52 366 97 579 125 589 7 3 37 -7 66 -22 30 -15 78 -37 108 -49 l55
-23 2 -88 c6 -263 145 -530 317 -613 168 -81 398 -63 554 45 104 71 252 307
337 536 39 105 44 145 21 154 -42 16 -59 -4 -139 -160 -160 -315 -353 -516
-493 -516 -57 0 -87 17 -150 82 -59 64 -100 139 -137 257 -31 98 -28 106 45
115 162 22 305 177 317 344 7 98 -13 201 -49 256 -82 123 -315 138 -433 28
-62 -58 -146 -211 -161 -294 -4 -21 -10 -38 -14 -38 -4 0 -28 14 -55 30 -188
119 -301 129 -348 29 -9 -19 -37 -162 -63 -319 -60 -365 -65 -394 -74 -384 -5
5 -25 99 -46 209 -47 247 -96 460 -135 588 -27 84 -35 100 -63 117 -36 22 -74
25 -129 10 -76 -21 -81 -50 -48 -245 11 -64 20 -121 20 -127 0 -28 -260 -119
-284 -98 -8 6 -16 47 -20 98 -16 217 -102 398 -219 466 -117 67 -298 52 -406
-33 -86 -68 -118 -184 -89 -322 10 -47 9 -70 -5 -135 -9 -44 -16 -110 -15
-149 1 -61 -5 -87 -46 -200 -69 -189 -192 -435 -266 -533 -69 -92 -99 -117
-129 -107 -57 18 -182 307 -231 530 -27 129 -60 332 -60 377 0 35 2 38 43 48
113 28 217 103 318 227 251 312 403 687 404 998 0 101 -4 132 -24 194 -37 113
-101 184 -190 212 -20 6 -79 13 -131 15 -78 4 -105 1 -150 -16z m227 -197 c27
-56 28 -64 27 -203 0 -155 -9 -207 -65 -380 -70 -218 -252 -531 -388 -669 -39
-39 -75 -71 -82 -71 -17 0 -5 331 16 470 43 279 126 545 216 696 45 74 136
183 178 211 44 29 61 20 98 -54z m651 -1018 c85 -74 169 -339 144 -455 -8 -35
-9 -35 -58 -32 -132 8 -245 131 -269 294 -10 64 16 147 59 192 43 46 71 46
124 1z m1990 -81 c17 -63 10 -206 -12 -259 -21 -50 -60 -91 -109 -116 -50 -26
-54 -15 -32 112 18 107 39 178 75 249 43 86 58 89 78 14z m-2078 -474 c10 -6
64 -14 120 -19 55 -4 103 -11 107 -15 3 -3 -1 -54 -11 -113 -17 -109 -52 -203
-94 -253 l-20 -25 -32 30 c-46 44 -86 133 -115 260 -22 92 -25 118 -15 130 14
17 34 19 60 5z"/>
<path d="M4781 1695 c-30 -9 -69 -24 -86 -35 -46 -28 -129 -119 -154 -168 -70
-136 -67 -319 7 -456 42 -79 140 -169 362 -331 112 -83 237 -181 276 -218 l72
-68 50 50 c27 27 154 127 283 224 249 185 306 235 358 311 153 222 74 554
-158 669 -58 28 -75 32 -146 32 -106 -1 -182 -34 -258 -114 -62 -65 -91 -115
-112 -197 -8 -31 -16 -59 -18 -61 -3 -2 -7 15 -10 37 -8 62 -61 164 -113 220
-91 98 -231 139 -353 105z"/>
</g>
</svg>
