<?xml version="1.0" encoding="utf-8"?>
<!-- Generator: Adobe Illustrator 21.1.0, SVG Export Plug-In . SVG Version: 6.00 Build 0)  -->
<svg version="1.1" id="Слой_1" xmlns="http://www.w3.org/2000/svg" xmlns:xlink="http://www.w3.org/1999/xlink" x="0px" y="0px"
	 width="708.66px" height="864.318px" viewBox="0 0 708.66 864.318" style="enable-background:new 0 0 708.66 864.318;"
	 xml:space="preserve">
<style type="text/css">
	.st0{fill-rule:evenodd;clip-rule:evenodd;fill:none;stroke:#FF0600;stroke-miterlimit:10;}
	.st1{fill:none;stroke:#0049FF;stroke-miterlimit:10;}
	.st2{fill:none;stroke:#FF0600;stroke-miterlimit:10;}
</style>
<path class="st0" d="M695.01,831.461H13.65v-394H695.01V831.461z"/>
<path class="st0" d="M13.65,20.634v394H695.01v-394H13.65z M676.35,392.747H32.31V42.223h644.04V392.747z"/>
<path class="st1" d="M138.124,596.189h-25.227l5.157,4.063V628.8H99.518v-28.548l5.157-4.063H79.448l5.157,4.063v30.305
	l-5.157,4.063l5.157,4.063v30.306l-5.157,4.063h25.227l-5.157-4.063V640.44h18.537v28.549l-5.157,4.063h25.227l-5.157-4.063v-30.306
	l5.157-4.063l-5.157-4.063v-30.305L138.124,596.189z M136.509,634.62c-5.446,4.29-3.978,3.134-4.541,3.577
	c0,39.584,0-8.263,0,31.276c0.717,0.565,2.469,1.945,3.271,2.577h-19.456c0.803-0.632,2.554-2.012,3.271-2.577
	c0-10.426,0-19.416,0-30.034c-8.098,0-11.597,0-20.537,0c0,10.629,0,19.629,0,30.034c0.717,0.565,2.469,1.945,3.271,2.577H82.334
	c0.803-0.632,2.554-2.012,3.271-2.577c0-39.558,0,8.344,0-31.276c-0.562-0.443,0.906,0.713-4.541-3.577
	c0.509-0.401,4.028-3.173,4.541-3.578c0-1.539,0-29.739,0-31.276c-0.465-0.367,0.294,0.232-3.272-2.578h19.457
	c-3.045,2.399-2.691,2.121-3.272,2.578c0,48.08,0,13.897,0,30.034c8.098,0,11.597,0,20.537,0c0-9.981,0,18.354,0-30.034
	c-0.465-0.367,0.294,0.232-3.272-2.578h19.457c-3.045,2.399-2.691,2.121-3.272,2.578c0,1.54,0,29.739,0,31.276
	C132.481,631.447,136,634.219,136.509,634.62z M187.618,638.683l4.321-4.063l-6.133-4.063l-6.55-30.305l4.32-4.063h-25.227
	l4.321,4.063l-6.69,30.305l-5.993,4.063l4.321,4.063l-6.551,30.306l-6.132,4.063h25.227l-4.321-4.063l3.624-16.8h9.478l3.624,16.8
	l-4.181,4.063h25.087l-5.993-4.063L187.618,638.683z M177.538,672.051c3.113-3.025,2.491-2.42,2.811-2.732
	c-0.387-1.792-3.479-16.129-3.911-18.131c-4.86,0-6.231,0-11.092,0c-0.458,2.123-3.456,16.019-3.913,18.141
	c0.639,0.601,2.255,2.12,2.894,2.721h-19.383c0.395-0.262,3.309-2.192,3.704-2.454c0.14-0.647,6.617-30.611,6.756-31.256
	c-0.599-0.563-0.284-0.267-3.823-3.594c1.152-0.781,4.248-2.88,5.289-3.586c3.792-17.177,6.13-27.769,6.898-31.249
	c-0.35-0.329,0.078,0.073-2.897-2.724h20.18c-0.639,0.601-2.255,2.121-2.894,2.722c0.139,0.645,6.616,30.608,6.756,31.255
	c0.571,0.378,4.829,3.199,5.419,3.59c-3.698,3.477-3.131,2.944-3.813,3.585c0.749,3.464,6.004,27.776,6.755,31.25
	c0.48,0.326-0.25-0.17,3.628,2.46H177.538z M170.893,625.699c-3.313,15.008-3.089,13.995-3.475,15.741c2.54,0,4.38,0,6.95,0
	C173.974,639.653,171.289,627.493,170.893,625.699z M168.663,640.44l2.23-10.102l2.23,10.102H168.663z M299.607,661.412H276.89
	v-22.729l5.157-4.063l-5.157-4.063v-30.305l5.157-4.063H256.82l5.157,4.063v30.305l-5.157,4.063l5.157,4.063v28.558l-5.156,2.125
	l-7.526-12.126l-3.206,4.172h-22.718v-22.729l5.157-4.063l-5.157-4.063v-30.305l5.157-4.063h-25.227l5.157,4.063v30.305
	l-5.157,4.063l5.157,4.063v30.306l-5.157,4.063c13.302,0,93.707,0,107.039,0c-6.549-13.672-5.021-10.454-7.526-15.812
	L299.607,661.412z M308.751,672.051H206.186c0.803-0.632,2.554-2.012,3.271-2.577c0-39.558,0,8.344,0-31.276
	c-0.755-0.595-0.758-0.597-4.541-3.577c0.509-0.401,4.028-3.173,4.541-3.578c0-39.583,0,8.263,0-31.276
	c-0.465-0.367,0.294,0.232-3.272-2.578h19.457c-3.045,2.399-2.691,2.121-3.272,2.578c0,1.54,0,29.739,0,31.276
	c0.513,0.404,4.032,3.177,4.541,3.578c-3.783,2.98-3.786,2.982-4.541,3.577c0,8.048,0,16.102,0,24.214c33.585,0,8.978,0,24.211,0
	c0.408-0.532,0.294-0.383,2.625-3.417c0.796,1.282,6.442,10.38,7.211,11.618c1.008-0.415,5.548-2.286,6.559-2.703
	c0-18.808,0-11.299,0-29.712c-0.755-0.595-0.758-0.597-4.541-3.577c0.509-0.401,4.028-3.173,4.541-3.578c0-1.539,0-29.739,0-31.276
	c-0.465-0.367,0.294,0.232-3.272-2.578h19.457c-3.045,2.399-2.691,2.121-3.272,2.578c0,1.54,0,29.739,0,31.276
	c0.513,0.404,4.032,3.177,4.541,3.578c-3.783,2.98-3.786,2.982-4.541,3.577c0,15.208,0-9.376,0,24.214c8.111,0,16.123,0,24.211,0
	c0.362-0.471,1.572-2.046,2.503-3.258C304.045,662.24,303.622,661.346,308.751,672.051z M358.869,615.185
	c0-25.024-48.363-25.152-48.363,0v15.372l-5.157,4.063l5.157,4.063v15.373c0,25.164,48.363,25.026,48.363,0v-15.373l5.157-4.063
	l-5.157-4.063V615.185z M362.41,634.62c-0.581,0.458-4.03,3.175-4.541,3.577c0,6.056,0,9.824,0,15.858
	c0,23.726-46.363,23.81-46.363,0v-15.373v-0.485c-0.511-0.403-3.96-3.12-4.541-3.577c0.509-0.401,4.028-3.173,4.541-3.578
	c0-6.056,0-9.823,0-15.857c0-23.816,46.363-23.707,46.363,0v15.372v0.485C358.382,631.447,361.901,634.219,362.41,634.62z
	 M324.419,615.185v38.87c0,5.694,5.301,8.287,10.226,8.287c5.124,0,10.311-2.847,10.311-8.287v-38.87
	C344.956,604.264,324.419,604.022,324.419,615.185z M343.956,654.055c0,4.843-4.663,7.287-9.311,7.287
	c-4.62,0-9.226-2.414-9.226-7.287v-38.87c0-9.781,18.537-9.663,18.537,0V654.055z M430.919,600.252l-8.362,38.65l-8.363-38.65
	l4.181-4.063h-25.087l4.181,4.063l-8.362,38.65l-8.363-38.65l4.321-4.063h-25.227l6.132,4.063l6.551,30.305l-4.321,4.063
	l5.993,4.063l6.69,30.306l-4.321,4.063h25.227l-4.32-4.063l8.362-38.65l8.362,38.65l-4.32,4.063H435.1l-4.321-4.063l6.69-30.306
	l5.993-4.063l-4.32-4.063l6.69-30.305l5.993-4.063h-25.227L430.919,600.252z M444.941,599.648
	c-0.092,0.415-6.687,30.294-6.898,31.249c0.612,0.575,3.225,3.033,3.824,3.597c-0.578,0.392-4.734,3.209-5.289,3.585
	c-0.102,0.464-6.701,30.358-6.898,31.249c0.639,0.601,2.257,2.122,2.896,2.723h-20.18c0.639-0.601,2.255-2.12,2.894-2.721
	c-0.153-0.708-5.326-24.619-9.459-43.721c-0.217,1.001-9.203,42.537-9.459,43.721c0.639,0.601,2.255,2.121,2.894,2.721h-20.18
	c0.639-0.601,2.257-2.122,2.896-2.723c-0.23-1.039-6.665-30.192-6.898-31.249c-0.551-0.374-4.709-3.192-5.289-3.585
	c0.605-0.569,3.215-3.023,3.823-3.595c-0.374-1.729-6.436-29.776-6.756-31.255c-0.451-0.299,0.923,0.612-3.704-2.454h19.384
	c-0.639,0.601-2.256,2.121-2.895,2.722c0.194,0.895,9.298,42.972,9.46,43.72c3.973-18.364,8.522-39.391,9.457-43.71
	c-0.62-0.602-2.192-2.13-2.812-2.732h20.159c-0.619,0.602-2.192,2.13-2.812,2.732c0.694,3.206,8.511,39.336,9.458,43.71
	c0.216-1,9.14-42.242,9.459-43.72c-0.639-0.601-2.256-2.121-2.895-2.722h19.447C448.307,597.367,445.508,599.264,444.941,599.648z
	 M622.105,634.62l-5.157-4.063v-30.305l5.157-4.063h-25.227l5.157,4.063v14.933l-18.537-18.996h-20.07l5.157,4.063v30.305
	l-5.157,4.063l5.157,4.063v28.433l-5.156,2.523l-7.526-12.399l-3.206,4.172h-22.718V640.44h16.167l6.968,4.063
	c-4.42-9.914-4.768-9.83-9.199-19.765l-3.345,4.063h-10.592v-20.972h26.341l7.108,4.172c-2.505-5.356-0.976-2.137-7.526-15.812
	h-45.993l5.157,4.063v30.305l-5.157,4.063l5.157,4.063v27.651l-5.1,2.439l-7.583-11.534l-3.206,4.172H476.46V640.44h16.167
	l6.969,4.063c-4.369-9.798-4.748-9.785-9.198-19.765l-3.345,4.063H476.46v-20.972h26.341l7.108,4.172
	c-2.505-5.356-0.976-2.137-7.526-15.812H456.39l5.157,4.063v30.305l-5.157,4.063l5.157,4.063v30.306l-5.157,4.063
	c15.141,0,116.299,0,132.265,0l-5.157-4.063v-53.693l18.537,18.996v34.698l-5.157,4.063h25.227l-5.157-4.063v-30.306L622.105,634.62
	z M619.219,672.051h-19.456c0.485-0.382,2.718-2.141,3.271-2.577c0-4.098,0-31.425,0-35.59
	c-0.552-0.566-14.107-14.456-20.537-21.045c0,7.225,0,50.73,0,56.635c0.553,0.436,2.787,2.195,3.271,2.577H459.275
	c0.485-0.382,2.718-2.141,3.271-2.577c0-1.539,0-29.739,0-31.276c-0.511-0.403-3.96-3.12-4.541-3.577
	c0.509-0.401,4.028-3.173,4.541-3.578c0-39.583,0,8.263,0-31.276c-0.465-0.367,0.294,0.232-3.272-2.578h42.478
	c4.804,10.026,5.089,10.613,5.889,12.321c-3.83-2.248-4.222-2.478-4.569-2.682c-4.935,0-24.611,0-27.613,0c0,8.95,0,14.019,0,22.972
	c6.872,0,8.942,0,12.064,0c0.457-0.555,0.188-0.229,2.62-3.182c3.412,7.58,4.231,8.801,7.258,15.447
	c-0.456-0.266-4.109-2.396-4.505-2.626c-7.178,0-10.261,0-17.437,0c0,8.95,0,14.019,0,22.972c33.585,0,8.978,0,24.211,0
	c0.41-0.534,0.293-0.382,2.649-3.448c0.8,1.216,6.496,9.882,7.29,11.089c1.599-0.765,2.569-1.229,6.456-3.088
	c0-18.217,0-10.838,0-28.767c-0.511-0.403-3.96-3.12-4.541-3.577c0.509-0.401,4.028-3.173,4.541-3.578c0-39.583,0,8.263,0-31.276
	c-0.465-0.367,0.294,0.232-3.272-2.578h42.478c4.782,9.98,5.089,10.613,5.889,12.321c-3.83-2.248-4.222-2.478-4.569-2.682
	c-32.585,0-21.387,0-27.613,0c0,23.491,0,13.818,0,22.972c18.797,0,3.697,0,12.064,0c0.435-0.528,2.228-2.706,2.62-3.182
	c3.398,7.545,4.194,8.714,7.258,15.447c-0.452-0.263-4.105-2.394-4.504-2.626c-6.355,0-3.049,0-17.438,0c0,8.95,0,14.019,0,22.972
	c30.794,0-5.797,0,24.211,0c0.408-0.531,0.191-0.249,2.616-3.405l6.768,11.15l0.474,0.781l0.82-0.401l5.156-2.523l0.561-0.274
	v-0.624c0-13.122,0,4.75,0-28.918c-0.513-0.404-4.032-3.176-4.541-3.577c0.509-0.401,4.028-3.173,4.541-3.578
	c0-39.561,0,8.351,0-31.276c-0.465-0.367,0.294,0.232-3.272-2.578h16.763c22.067,22.614,17.305,17.734,19.958,20.453
	c0-23.351,0,2.518,0-17.875c-0.465-0.367,0.294,0.232-3.272-2.578h19.457c-3.045,2.399-2.691,2.121-3.272,2.578
	c0,1.54,0,29.739,0,31.276c0.513,0.404,4.032,3.177,4.541,3.578c-0.581,0.458-4.03,3.175-4.541,3.577c0,39.584,0-8.263,0,31.276
	C616.501,669.91,618.735,671.669,619.219,672.051z M238.517,522.361c0,63.318,1.512,56.326-3.889,56.326v4.264h19.54v-4.264
	c-0.894,0-3.757,0.188-3.89-0.7v-23.489c3.586,5.324,12.937,4.43,13.229-3.737c-8.25-1.25-3.213-7.549,3.245-5.277l-0.003,32.502
	c-0.133,0.888-2.995,0.7-3.89,0.7v4.264l33.961,0.001v-4.228l-3.581-0.268c0,0,3.364-10.612,3.46-10.906
	c2.094,7.404,15.557,7.545,15.235-3.477c-9.86,2.324-3.938-6.273,2.529-3.453l5.855,17.75c-0.437,0.437-3.045,0.353-3.663,0.353
	v4.228h40.778v-4.298c-0.927,0.017-3.903-0.069-3.903-1l-0.008-18.307c25.155,6.26,32.983-28.446,15.87-40.011
	c-5.386-3.64-14.253-3.792-20.292-0.47c-3.113-2.018-7.159-1.692-11.194-1.692v4.285c0.301,0,0.584-0.001,0.849-0.001
	c2.074,0,3.055,0.052,3.055,0.975c0,14.011,0.034,55.229,0.034,55.229c0,0.546-2.53,1.24-5.007,1.24
	c-5.426,0-2.45,4.415-24.66-61.494h-4.47l-19.85,59.988c-0.851,2.21-9.198,1.592-9.348,0.592v-55.626
	c0.133-0.888,2.995-0.7,3.89-0.7v-4.264h-19.541v4.264c5.135,0,3.889-2.377,3.893,18.802c-6.116-0.895-13.356,1.018-16.473,6.391
	c0-28.04-1.427-25.193,3.89-25.193v-4.264h-19.541v4.264C235.525,521.661,238.385,521.473,238.517,522.361z M235.627,518.397h17.541
	v2.248c-1.579-0.013-3.89,0.101-3.89,1.715c0,16.053,0,12.086,0,28.21c1.753-3.021,4.725-10.963,18.473-8.951
	c-0.003-20.951,1.683-21.022-3.893-20.974v-2.248H281.4v2.248c-1.615-0.014-3.652,0.052-3.89,1.641
	c0,0.113-0.006,55.736,0.011,55.848c0.327,2.19,10.067,2.744,11.286-0.425l19.623-59.302h3.029l19.844,58.888
	c0.576,1.681,2.542,2.606,5.535,2.606c0.06,0,6.007-0.061,6.007-2.24c0,0-0.034-41.217-0.034-55.228
	c0-1.926-1.959-1.974-3.904-1.975v-2.289c4.78-0.043,7.142-0.09,10.152,1.861c6.929-3.812,15.145-2.994,19.774,0.134
	c15.753,10.645,10.052,44.463-16.311,37.903c0.01,21.408-1.463,21.344,3.912,21.571v2.314h-38.778v-2.222
	c3.134-0.011,3.181-0.463,3.805-1.087c-0.405-1.228-6.003-18.198-6.188-18.76c-8.718-3.802-14.111,7.042-4.365,5.419
	c-0.33,4.248-3.189,6.477-6.674,6.477c-5.991,0-6.654-4.789-7.464-7.652c-1.297,3.952-0.456,1.32-4.866,15.232
	c1.583,0.119,0.623,0.047,3.916,0.293v2.3l-31.961-0.001v-2.248c5.388,0.041,3.887,2.173,3.893-34.926
	c-8.974-3.157-13.376,5.027-5.314,6.804c-0.499,3.861-3.366,5.258-5.801,5.258c-4.111,0-5.538-2.911-7.359-5.615
	c0,29.824-1.36,28.518,3.89,28.479v2.248h-17.54v-2.248c1.192,0.01,3.889,0.016,3.889-1.716c0-61.953,1.461-57.381-3.891-57.341
	V518.397z M314.097,556.4c-0.496-1.473-3.392-10.07-7.492-22.242c-1.592,4.85-5.566,16.961-9.582,29.2
	C301.242,559.085,303.708,555.618,314.097,556.4z M306.617,537.327l6.051,17.962c-4.759-0.358-9.972,0.899-13.369,4.34
	L306.617,537.327z M364.509,552.689c4.255-6.875,2.946-22.09,1.484-26.754c-2.547-9.548-13.452-6.993-13.452-1.606l0.03,27.129
	C352.571,555.087,360.203,559.647,364.509,552.689z M365.027,526.193c2.092,6.68,2.969,29.12-6.272,29.12
	c-2.751,0-5.183-2.243-5.183-3.855l-0.03-27.13C353.541,520.154,362.777,517.76,365.027,526.193z M406.622,552.689
	c3.722-6.014,6.045-33.159-5.907-33.158c-3.342,0-6.061,2.152-6.061,4.798l0.03,27.129
	C394.685,555.095,402.321,559.64,406.622,552.689z M407.14,526.193c2.092,6.68,2.969,29.12-6.272,29.12
	c-2.751,0-5.183-2.243-5.183-3.855l-0.03-27.13C395.655,520.154,404.89,517.759,407.14,526.193z M383.925,522.433
	c0,61.34,1.543,56.327-3.885,56.221v4.298h19.508v-4.298c0,0-0.054,0.001-0.15,0.001c-0.716,0-3.753-0.056-3.753-1.001
	l-0.008-18.307c30.722,7.643,33.761-43.074,5.376-43.074c-3.247,0-6.597,0.832-9.798,2.593c-2.353-1.525-5.238-1.711-8.253-1.711
	c-0.971,0-1.955,0.019-2.941,0.019v4.285c0,0,0.05-0.001,0.139-0.001C380.856,521.457,383.925,521.51,383.925,522.433z
	 M381.022,518.168c0.164-0.001,0.327-0.003,0.491-0.005c0.485-0.005,0.969-0.01,1.45-0.01c5.116,0,6.507,0.771,8.211,1.876
	l0.524-0.288c2.978-1.638,6.113-2.469,9.316-2.469c26.51,0,25.041,48.61-6.377,40.795c0.01,21.408-1.463,21.344,3.912,21.57v2.314
	H381.04v-2.312c2.668-0.104,3.918-0.74,3.918-1.978c0-0.592-0.034-53.656-0.034-55.229c0-1.223-1.246-1.853-3.903-1.959V518.168z
	 M444.099,554.603c-0.002,26.9,1.299,24.085-3.892,24.085v4.264h19.54v-4.264c-0.897,0-3.759,0.188-3.89-0.699l-0.012-24.035
	c0,0,8.17-14.375,15.2-28.164c2.854-5.597,1.62-12.583-4.844-15.668c-11.15-5.317-21.857,9.15-7.073,13.679
	c1.029-6.986,9.03-3.611,6.983,0.33c-4.133,7.911-13.127,23.947-13.127,23.947l-14.191-26.367l2.882-0.05v-4.264h-19.54v4.264
	C427.724,521.662,424.551,518.684,444.099,554.603z M423.135,518.398h17.54v2.281c-2.256,0.039-1.476,0.026-3.54,0.061
	c3.041,5.65,10.69,19.862,15.832,29.415c15.256-27.199,15.308-26.95,13.94-29.201c-1.79-2.946-7.078-3.381-8.518,1.543
	c-3.878-1.443-5.848-3.785-5.438-6.524c1.158-7.733,14.947-8.354,18.019,0.706c1.668,4.918,0.653,7.489-16.125,37.012
	c0.012,26.322-1.842,26.062,3.901,26.014v2.248h-17.54v-2.248c5.731,0.048,3.892,0.327,3.892-25.356
	c-18.405-33.809-16.433-33.722-21.964-33.692V518.398z"/>
<path class="st2" d="M132.968,251.617l5.157,4.063h-25.227l5.157-4.063v-28.549H99.518v28.549l5.157,4.063H79.448l5.157-4.063
	v-30.306l-5.157-4.063l5.157-4.063V182.88l-5.157-4.063h25.227l-5.157,4.063v28.548h18.537V182.88l-5.157-4.063h25.227l-5.157,4.063
	v30.305l5.157,4.063l-5.157,4.063V251.617z M194.168,251.617l5.993,4.063h-25.087l4.181-4.063l-3.624-16.8h-9.478l-3.624,16.8
	l4.321,4.063h-25.227l6.132-4.063l6.551-30.306l-4.321-4.063l5.993-4.063l6.69-30.305l-4.321-4.063h25.227l-4.32,4.063l6.55,30.305
	l6.133,4.063l-4.321,4.063L194.168,251.617z M173.123,223.068l-2.23-10.102l-2.23,10.102H173.123z M302.813,239.868l-3.206,4.172
	H276.89v-22.729l5.157-4.063l-5.157-4.063V182.88l5.157-4.063H256.82l5.157,4.063v30.305l-5.157,4.063l5.157,4.063v28.558
	l-5.156,2.125l-7.526-12.126l-3.206,4.172h-22.718v-22.729l5.157-4.063l-5.157-4.063V182.88l5.157-4.063h-25.227l5.157,4.063v30.305
	l-5.157,4.063l5.157,4.063v30.306l-5.157,4.063c13.302,0,93.708,0,107.039,0C303.79,242.007,305.318,245.225,302.813,239.868z
	 M358.869,213.186l5.157,4.063l-5.157,4.063v15.373c0,25.025-48.363,25.166-48.363,0v-15.373l-5.157-4.063l5.157-4.063v-15.372
	c0-25.151,48.363-25.025,48.363,0V213.186z M343.956,197.813c0-9.662-18.537-9.782-18.537,0v38.87c0,9.776,18.537,9.657,18.537,0
	V197.813z M430.919,182.88l-8.362,38.65l-8.363-38.65l4.181-4.063h-25.087l4.181,4.063l-8.362,38.65l-8.363-38.65l4.321-4.063
	h-25.227l6.132,4.063l6.551,30.305l-4.321,4.063l5.993,4.063l6.69,30.306l-4.321,4.063h25.227l-4.32-4.063l8.362-38.65l8.362,38.65
	l-4.32,4.063H435.1l-4.321-4.063l6.69-30.306l5.993-4.063l-4.32-4.063l6.69-30.305l5.993-4.063h-25.227L430.919,182.88z
	 M622.104,217.249l-5.157-4.063V182.88l5.157-4.063h-25.227l5.157,4.063v14.933l-18.537-18.996h-20.07l5.157,4.063v30.305
	l-5.157,4.063l5.157,4.063v28.433l-5.156,2.523l-7.526-12.399l-3.206,4.172h-22.718v-20.972h16.167l6.968,4.063
	c-4.42-9.914-4.768-9.83-9.199-19.765l-3.345,4.063h-10.592v-20.972h26.341l7.108,4.172c-2.505-5.356-0.976-2.137-7.526-15.812
	h-45.993l5.157,4.063v30.305l-5.157,4.063l5.157,4.063v27.651l-5.1,2.439l-7.583-11.534l-3.206,4.172H476.46v-20.972h16.167
	l6.969,4.063c-4.369-9.798-4.748-9.785-9.198-19.765l-3.345,4.063H476.46v-20.972h26.341l7.108,4.172
	c-2.504-5.356-0.976-2.137-7.526-15.812H456.39l5.157,4.063v30.305l-5.157,4.063l5.157,4.063v30.306l-5.157,4.063
	c15.141,0,116.3,0,132.265,0l-5.157-4.063v-53.693l18.537,18.996v34.698l-5.157,4.063h25.227l-5.157-4.063v-30.306L622.104,217.249z
	"/>
<path class="st2" d="M369.393,101.964c-5.388-3.642-14.255-3.791-20.292-0.47c-3.113-2.018-7.158-1.692-11.194-1.692v4.285
	c2.656,0,3.904-0.067,3.904,0.975c0,14.011,0.034,55.229,0.034,55.229c0,1.002-8.503,2.497-9.596-0.691l-20.071-59.563h-4.47
	l-19.85,59.988c-0.875,2.27-9.21,1.513-9.348,0.592v-55.626c0.132-0.886,2.982-0.7,3.89-0.7v-4.264h-19.541v4.264
	c0.907,0,3.757-0.187,3.89,0.7l0.003,18.102c-6.104-0.893-13.352,1.011-16.473,6.391v-24.493c0.132-0.886,2.982-0.7,3.89-0.7v-4.264
	h-19.541v4.264c0.905,0,3.758-0.188,3.891,0.7v55.625c-0.132,0.888-2.984,0.7-3.889,0.7v4.264h19.54v-4.264
	c-0.907,0-3.757,0.187-3.89-0.7v-23.489c3.586,5.324,12.937,4.43,13.229-3.737c-8.25-1.25-3.213-7.548,3.245-5.277l-0.003,32.502
	c-0.132,0.886-2.982,0.7-3.89,0.7v4.264l33.961,0.001v-4.228l-3.581-0.268c0,0,3.364-10.612,3.46-10.906
	c2.094,7.404,15.557,7.545,15.235-3.477c-9.859,2.324-3.938-6.273,2.529-3.453l5.855,17.75c-0.436,0.436-3.046,0.353-3.663,0.353
	v4.228h40.778v-4.298c0,0-3.903,0.072-3.903-1l-0.008-18.307C378.678,148.234,386.506,113.528,369.393,101.964z M299.298,142.257
	l7.318-22.302l6.051,17.962C307.93,137.561,302.707,138.805,299.298,142.257z M363.658,134.791
	c-3.787,6.119-10.087,1.889-10.087-0.705l-0.03-27.13c0-4.175,9.236-6.566,11.485,1.865
	C366.519,113.585,367.627,128.378,363.658,134.791z M391.215,101.494c-3.111-2.016-7.149-1.692-11.194-1.692v4.285
	c0,0,3.903-0.067,3.903,0.975c0,1.963,0.034,54.159,0.034,55.229c0,1.069-3.918,0.992-3.918,0.992v4.298h19.508v-4.298
	c0,0-3.903,0.072-3.903-1l-0.008-18.307c14.695,3.656,25.01-7.357,25.01-20.784C420.647,103.007,404.609,94.126,391.215,101.494z
	 M405.772,134.791c-3.787,6.119-10.087,1.889-10.087-0.705l-0.03-27.13c0-4.175,9.236-6.567,11.485,1.865
	C408.633,113.585,409.741,128.378,405.772,134.791z M471.046,108.419c-7.029,13.789-15.2,28.164-15.2,28.164l0.012,24.035
	c0.131,0.886,2.982,0.699,3.89,0.699v4.264h-19.54v-4.264c0.907,0,3.757,0.187,3.89-0.699l0.002-23.386l-17.175-31.559
	c-1.066-1.553-2.904-1.382-4.789-1.382v-4.264h19.54v4.264l-2.882,0.05l14.191,26.367c0,0,8.995-16.037,13.127-23.947
	c2.046-3.94-5.954-7.316-6.983-0.33c-14.783-4.528-4.076-18.995,7.073-13.679C472.665,95.836,473.899,102.822,471.046,108.419z"/>
<path class="st2" d="M219.298,141v8H100.748v-8H219.298z"/>
<path class="st2" d="M605.39,141v8H486.839v-8H605.39z"/>
<path class="st2" d="M43.34,51.613v328.066h621.98V51.613H43.34z M640.678,59.613l9.021,9.68c0,0-7.403,3.061-9.954,5.469
	L640.678,59.613z M639.393,80.472c1.962-2.337,8.294-9.102,14.026-6.806l3.665,4.309c-6.805-1.15-12.928,1.831-17.945,6.611
	L639.393,80.472z M636.686,59.613l-0.692,11.237c-1.581-3.347-3.835-5.159-6.619-5.315L636.686,59.613z M635.55,78.066
	l-1.783,28.955c-3.079-11.019-9.489-26.095-21.294-24.881l13.301-13.069C631.826,66.2,634.392,71.475,635.55,78.066z
	 M632.172,132.922c-8.307-16.036-31.842-27.305-40.011-30.824l8.03-7.889C621.547,99.899,632.927,120.663,632.172,132.922z
	 M603.578,91.168c14.868-14.796,25.201,5.25,24.474,19.737C624.401,105.1,614.772,91.676,603.578,91.168z M621.537,59.613
	c1.314,1.781,1.647,4.022,1.106,6.614l-8.579,8.428c0.88-5.032-0.648-10.234-4.368-15.042H621.537z M605.406,59.613
	c5.753,6.275,5.641,13.235,1.914,20.478c-2.935,5.703-14.634,16.102-19.454,20.311c5.287-13.665,4.139-28.48-2.246-40.789H605.406z
	 M577.06,59.613c2.39,2.16,5.443,5.62,7.313,10.587c3.348,8.892,1.593,27.317-11.307,44.734
	c4.895-19.767-0.309-40.355-14.147-55.321H577.06z M131.6,59.613h18.141c-13.838,14.967-19.042,35.554-14.147,55.321
	C122.695,97.517,120.94,79.092,124.288,70.2C126.158,65.233,129.21,61.773,131.6,59.613z M123.042,59.613
	c-6.386,12.309-7.533,27.124-2.246,40.789c-4.821-4.209-16.52-14.608-19.454-20.311c-3.727-7.243-3.839-14.203,1.914-20.478H123.042
	z M108.47,94.208l8.03,7.889c-8.169,3.52-31.705,14.789-40.011,30.824C75.734,120.663,87.113,99.899,108.47,94.208z M105.083,91.168
	c-11.195,0.508-20.824,13.931-24.474,19.737C79.882,96.418,90.215,76.372,105.083,91.168z M87.124,59.613h11.841
	c-3.72,4.808-5.248,10.011-4.368,15.042l-8.579-8.428C85.477,63.634,85.81,61.394,87.124,59.613z M82.886,69.072l13.301,13.069
	c-11.805-1.214-18.214,13.862-21.294,24.881l-1.783-28.955C74.268,71.475,76.834,66.2,82.886,69.072z M79.285,65.534
	c-2.784,0.156-5.038,1.968-6.619,5.315l-0.692-11.237L79.285,65.534z M69.52,84.586c-5.016-4.78-11.14-7.761-17.945-6.611
	l3.665-4.309c5.731-2.296,12.064,4.469,14.026,6.806L69.52,84.586z M68.915,74.762c-2.551-2.408-9.954-5.469-9.954-5.469l9.021-9.68
	L68.915,74.762z M51.34,59.613h8.496c-2.417,3.061-5.442,6.891-8.496,10.755V59.613z M51.34,83.378
	c6.806-3.133,14.032-0.245,18.133,6.515l0.879,9.257c-4.767-7.413-11.267-11.182-19.012-11.094V83.378z M51.34,96.033
	c5.391-6.332,15.107,3.257,19.637,12.208l1.18,19.16c-5.543-6.086-13.11-9.329-20.817-9.552V96.033z M51.34,124.836
	c5.42-4.321,16.618,2.271,21.149,7.927c0.035,8.532,0.07,17.063,0.105,25.595c-5.779-2.549-10.748-6.684-21.255-20.809V124.836z
	 M51.34,293.742c10.506-14.124,15.476-18.26,21.255-20.809c-0.035,8.532-0.07,17.063-0.105,25.595
	c-4.532,5.657-15.73,12.248-21.149,7.927V293.742z M51.34,371.679v-10.755c3.054,3.864,6.079,7.694,8.496,10.755H51.34z
	 M67.982,371.679l-9.021-9.68c0,0,7.403-3.061,9.954-5.469L67.982,371.679z M69.267,350.82c-1.962,2.337-8.294,9.102-14.026,6.806
	l-3.665-4.309c6.805,1.15,12.928-1.831,17.945-6.611L69.267,350.82z M69.473,341.399c-4.101,6.76-11.327,9.647-18.133,6.515v-4.678
	c7.745,0.088,14.245-3.682,19.012-11.094L69.473,341.399z M51.34,335.258v-21.816c7.707-0.223,15.274-3.466,20.817-9.552
	l-1.18,19.16C66.447,332.001,56.731,341.591,51.34,335.258z M71.974,371.679l0.692-11.237c1.581,3.347,3.835,5.159,6.619,5.315
	L71.974,371.679z M73.111,353.225l1.783-28.955c3.079,11.019,9.489,26.095,21.294,24.881l-13.301,13.069
	C76.834,365.091,74.268,359.816,73.111,353.225z M76.489,298.369c8.307,16.036,31.842,27.305,40.011,30.824l-8.03,7.889
	C87.113,331.392,75.734,310.628,76.489,298.369z M105.083,340.123c-14.868,14.796-25.201-5.25-24.474-19.737
	C84.259,326.191,93.888,339.615,105.083,340.123z M87.124,371.679c-1.314-1.781-1.647-4.022-1.106-6.614l8.579-8.428
	c-0.88,5.032,0.649,10.234,4.368,15.042H87.124z M103.255,371.679c-5.753-6.275-5.641-13.235-1.914-20.478
	c2.935-5.703,14.634-16.102,19.454-20.311c-5.287,13.665-4.139,28.48,2.246,40.789H103.255z M131.6,371.679
	c-2.39-2.16-5.443-5.62-7.313-10.587c-3.348-8.892-1.592-27.317,11.307-44.734c-4.894,19.767,0.309,40.355,14.147,55.321H131.6z
	 M256.361,329.06c0.747-3.487,2.093-6.888,4.081-10.052c-0.806,6.249,1.064,12.431,5.917,16.789
	c-1.037-3.304-1.284-6.807-0.712-10.237c1.566,6.29,4.495,12.152,8.594,17.188c-6.811-2.065-12.441-6.823-15.613-13.232
	c-0.793,1.487-1.227,3.117-1.289,4.781c-6.428-6.719-8.037-16.696-3.223-25.138C253.322,315.875,254.088,322.682,256.361,329.06z
	 M261.173,367.279c-9.792,7.792-10.481,1.688-5.123-12.597l1.829,0.864c1.042-1.295,0.436-3.601-0.205-5.099
	c3.586,2.171,3.9,1.974,6.634,2.863C266.423,356.863,264.199,364.871,261.173,367.279z M269.943,371.679
	c-0.466-2.006-1.65-3.309-3.823-2.457c1.086-3.428,5.913-12.251,5.913-12.251c2.73,5.987,6.09,11.031,10.846,14.708H269.943z
	 M348.527,371.679c-7.815,0-12.225-0.354-12.225-0.354c0.858-4.853,2.465-9.539,4.768-13.901c4.062,4.398,7.112-1.353,7.112-1.353
	c0.447,2.633,1.788,4.88,3.705,6.594C350.585,367.539,349.776,370.126,348.527,371.679z M332.718,284.796
	c2.041,5.95,6.396,5.626,7.002,6.366C331.101,293.46,332.802,288.498,332.718,284.796z M342.399,283.587
	c0.433,2.339-2.578,3.747-4.125,1.928C335.546,282.318,341.693,279.815,342.399,283.587z M334.637,308.822
	c-2.641,4.435-3.914,9.628-3.637,14.873c1.595-1.555,3.752-3.703,5.347-5.258c-0.228,6.197,1.639,12.804,6.902,16.412
	c0.822-3.508,0.852-7.114,0.128-10.614c3.272,4.137,3.696,10.05,1.021,14.67c-5.583-3.102-9.532-8.34-10.144-15.008
	c-1.34,1.33-2.68,2.659-4.02,3.989C326.782,321.204,328.23,313.018,334.637,308.822z M352.556,308.277
	c2.179,3.135,3.316,6.69,3.308,10.228c-7.645-0.378-14.131-6.117-13.065-13.562c1.121,4.702,4.812,8.695,9.965,10.21
	C352.695,312.861,352.626,310.569,352.556,308.277z M353.846,371.679c-0.539-4.767,3.674-9.89,4.182-13.394
	c2.522,6.566,5.656,8.578,8.187,9.912l0.827-4.611c1.509,3.181,3.561,5.884,5.981,8.094H353.846z M359.055,339.718
	c3.437,8.606,19.534,21.236,24.045,25.336C375.968,360.59,361.192,359.263,359.055,339.718z M378.883,371.679
	c-1.823-2.928-3.027-5.228-3.156-5.632c3.881,2.904,6.726,4.693,9.478,5.632H378.883z M448.152,371.679h-13.084
	c1.1-4.645,5.353-9.887,5.666-10.72l2.512,0.81c0.75-2.5-0.144-6.256-0.144-6.256c3.586,2.171,6.634,2.863,6.634,2.863
	C451.902,360.863,450.53,368.521,448.152,371.679z M433.436,319.933c1.304-1.886,2.608-3.772,3.912-5.658
	c-0.106,3.832-1.309,7.365-3.407,10.196c-5.926-4.839-7.747-13.306-2.468-18.669C429.576,310.272,430.201,315.675,433.436,319.933z
	 M447.354,312.019c-2.304,5.763-3.248,11.979-2.754,18.172c1.502-2.931,3.513-5.621,6.012-7.935
	c-2.204,5.347-2.019,11.271,1.242,16.288c-0.132-3.181,0.487-6.345,1.809-9.242c-0.111,5.947,1.087,11.841,3.519,17.281
	c-5.545-3.453-9.59-8.129-10.874-14.564c-1.055,1.127-2.09,3.046-2.09,3.046C440.123,327.579,441.076,318.353,447.354,312.019z
	 M446.382,275.248c2.999,1.194,1.966,5.27-1.41,4.65C442.028,278.594,443.138,274.683,446.382,275.248z M453.095,371.679
	c1.909-3.366,3.557-6.974,4.852-10.821c0.725,3.765,1.983,7.409,3.771,10.821H453.095z M577.06,371.679h-18.141
	c13.838-14.967,19.042-35.554,14.147-55.321c12.899,17.417,14.655,35.842,11.307,44.734
	C582.503,366.059,579.45,369.518,577.06,371.679z M585.618,371.679c6.386-12.309,7.533-27.124,2.246-40.789
	c4.821,4.209,16.52,14.608,19.454,20.311c3.727,7.243,3.839,14.203-1.914,20.478H585.618z M600.19,337.083l-8.03-7.889
	c8.169-3.52,31.705-14.789,40.011-30.824C632.927,310.628,621.547,331.392,600.19,337.083z M603.578,340.123
	c11.195-0.508,20.824-13.931,24.474-19.737C628.779,334.873,618.446,354.919,603.578,340.123z M621.537,371.679h-11.841
	c3.72-4.808,5.248-10.011,4.368-15.042l8.579,8.428C623.183,367.657,622.851,369.897,621.537,371.679z M625.774,362.219
	l-13.301-13.069c11.804,1.214,18.214-13.862,21.294-24.881l1.783,28.955C634.392,359.816,631.826,365.091,625.774,362.219z
	 M629.375,365.757c2.784-0.156,5.038-1.968,6.619-5.315l0.692,11.237L629.375,365.757z M639.14,346.705
	c5.016,4.78,11.14,7.761,17.945,6.611l-3.665,4.309c-5.731,2.296-12.064-4.469-14.026-6.806L639.14,346.705z M639.745,356.529
	c2.551,2.408,9.954,5.469,9.954,5.469l-9.021,9.68L639.745,356.529z M657.32,371.679h-8.496c2.417-3.061,5.442-6.891,8.496-10.755
	V371.679z M657.32,347.914c-6.806,3.133-14.031,0.245-18.133-6.515l-0.879-9.257c4.767,7.413,11.267,11.182,19.012,11.094V347.914z
	 M657.32,335.258c-5.39,6.332-15.107-3.257-19.637-12.208l-1.18-19.16c5.543,6.086,13.11,9.329,20.817,9.552V335.258z
	 M657.32,306.456c-5.42,4.321-16.618-2.271-21.149-7.927c-0.035-8.532-0.07-17.063-0.105-25.595
	c5.779,2.549,10.748,6.684,21.255,20.809V306.456z M657.32,279.654c-0.004-0.001-0.008-0.001-0.012-0.001
	c-3.615,0.773-5.623-1.005-8.55-3.379c-11.717-9.498-19.51-13.714-17.774,1.154c0.582,4.975,1.46,12.493-3.472,21.074
	c-5.906,10.275-18.825,19.591-38.403,27.693c-18.413-19.017-28.151-28.851-29.861-26.336c-0.007,0.011-0.022,0.032-0.029,0.043
	c-1.509,2.216,0.354,3.203,9.052,11.742c5.419,29.839-5.086,52.304-16.991,60.034h-62.324c2.088-0.652,4.111-1.558,6.021-2.733
	c-5.138,0.151-10.242-0.749-15.02-2.651c4.759,0.354,8.887-1.568,12.644-4.303c-15.125,0.187-24.133-9.496-25.848-15.625
	c-0.627-2.238-0.312-6-2.917-12.08c3.384,3.132,6.719,6.606,8.13,11.102c1.12-5.302-1.064-11.388-4.142-16.15
	c4.465,1.393,9.642,0.923,14.035-0.51c-6.428-0.682-13.568-4.453-17.83-9.955c4.094,0.622,11.445-1.542,15.748-5.062
	c-7.812,1.624-16.051-1.432-21.248-6.202c4.099-0.739,7.281-3.129,9.74-6.401c-4.448,1.893-8.211,2.394-12.89,0.975
	c3.274-1.844,4.278-4.688,5.089-8.159c-6.608,6.609-16.832,2.422-8.106-7.345c5.931,4.169,13.572,4.938,17.436,3.662
	c-6.872-2.633-10.373-4.843-16.272-9.2c5.844-3.459,11.973-6.286,18.35-8.46c-6.105-2.253-12.732-2-18.631,0.623
	c-15.673-9.979-28.53,2.041-29.267,21.199c-3.259,0.135-5.384-1.067-7.529-3.564c-0.197,3.548,1.077,6.92,3.822,9.393
	c-2.038,0.153-3.968-0.43-5.568-1.537c1.385,2.88,3.463,5.366,6.057,7.242c-2.771,0.393-8.774-0.922-11.223-2.157
	c1.865,3.352,4.918,5.641,8.953,6.509c-9.391,8.653-14.105,9.486-19.377,9.536c5.54,2.709,11.469,3.012,15.585,1.828
	c-2.779,7.278-8.078,13.009-14.541,16.426c7.141-0.634,10.582-2.441,15.176-6.055c-1.942,6.366-1.123,12.158,1.779,18.192
	c-0.534-5.434,0.933-9.662,3.799-14.204c6.883,14.534,9.659,14.977,13.597,23.818c-0.411,1.596-5.584,11.848-5.584,11.848
	c-12.958,0-18.743,0-31.034,0c-3.292-1.423-10.627-4.998-15.247-11.725c6.719,1.929,13.687,1.627,19.94-0.539
	c-8.84-1.225-24.765-9.143-31.509-23.411c1.186,1.16,3.618,4.675,9.06,6.49c-0.365-0.609-3.804-3.955-7.39-14.056
	c0.718,0.807,4.492,2.534,5.413,2.419c-5.097-6.529-9.303-19.529-14.222-25.214c-5.41-6.255-11.639-5.335-13.382-9.73
	c-0.594-1.497-0.214-2.401,0.309-2.76c0.869-0.596,13.843-3.416,18.755-2.013c-2.982-6.355-11.799-9.636-18.852-11.071
	c-8.474-8.371-22.818-8.214-29.237,3.857c-1.396,2.625-5.271,8.85-10.43,11.623c2.144,0.481,4.303,0.443,6.387-0.282
	c-2.99,4.216-7.983,7.571-12.072,9.167c4.795-0.505,7.956-0.901,12.198-3.485c-2.513,4.086-5.903,7.557-9.939,10.166
	c3.243,0.659,6.546-0.05,9.199-2.074c-2.367,3.552-3.114,7.888-2.126,11.986c0.692-1.961,1.794-3.777,3.275-5.324
	c-1.33,23.202,11.953,28.046,11.38,40.913l2.41-0.645c0.697,1.782,1.794,3.766,3.048,5.127c-1.119,9.723-4.931,10.27-8.344,10.579
	h-28.676c-2.042-1.339-4.057-2.722-6.019-4.179c3.451,0.873,10.189,0.314,15.894-2.616c-4.406-0.356-9.268-1.568-13.184-3.653
	c4.758,0.354,8.887-1.568,12.644-4.303c-15.125,0.187-24.133-9.496-25.848-15.625c-0.627-2.237-0.31-5.991-2.917-12.08
	c3.384,3.132,6.719,6.606,8.13,11.102c1.121-5.302-1.064-11.388-4.141-16.15c4.465,1.393,9.642,0.923,14.035-0.51
	c-6.428-0.682-13.568-4.453-17.83-9.955c2.717,0.413,6.369-0.487,9.776-1.727c-5.795-2.004-11.003-5.282-15.276-9.538
	c4.099-0.739,7.281-3.129,9.741-6.4c-4.448,1.893-8.212,2.394-12.89,0.975c3.274-1.844,4.278-4.688,5.089-8.159
	c-4.727,5.771-10.047,4.019-10.979,3.273c-0.855-0.684-1.72-16.145-13.089-20.84c-6.75-2.848-13.302,0.155-16.837,3.044
	c-7.683,0.784-16.645,6.254-18.319,13.847c3.093-2.12,5.966-2.43,18.531-1.761c6.13,3.908,6.263,9.403,5.396,10.722
	c-0.479,0.727-4.748,0.115-9.661-3.378c1.206,4.495,4.165,6.328,5.25,7.104c-2.771,0.393-8.774-0.922-11.223-2.157
	c1.865,3.352,4.918,5.641,8.953,6.509c-9.392,8.653-14.105,9.487-19.377,9.536c5.517,2.698,11.445,3.019,15.585,1.828
	c-2.779,7.278-8.078,13.009-14.541,16.426c7.141-0.634,10.582-2.441,15.176-6.055c-1.942,6.366-1.123,12.158,1.779,18.192
	c-0.534-5.434,0.933-9.662,3.799-14.204c6.883,14.534,11.504,14.161,15.441,23.001c-3.669,14.242-5.573,14.743-7.217,14.628
	c-2.735-2.412-8.024,0.242-10.275,3.102h-76.05c-11.905-7.73-22.41-30.196-16.991-60.034c8.698-8.539,10.561-9.526,9.052-11.742
	c-0.007-0.011-0.022-0.032-0.029-0.043c-1.71-2.515-11.448,7.319-29.861,26.336c-19.579-8.102-32.498-17.418-38.404-27.693
	c-4.932-8.581-4.053-16.099-3.472-21.074c1.736-14.868-6.057-10.652-17.774-1.154c-2.927,2.374-4.935,4.152-8.55,3.379
	c-0.004,0.001-0.008,0.001-0.012,0.001V151.637c0.004,0.001,0.008,0.001,0.012,0.001c3.615-0.773,5.623,1.005,8.55,3.379
	c11.717,9.498,19.51,13.714,17.774-1.154c-0.581-4.975-1.46-12.493,3.472-21.074c5.906-10.275,18.825-19.591,38.404-27.693
	c18.413,19.017,28.151,28.851,29.861,26.336c0.007-0.011,0.022-0.032,0.029-0.043c1.509-2.216-0.354-3.203-9.052-11.742
	c-5.42-29.839,5.086-52.304,16.991-60.034h393.9c11.905,7.73,22.41,30.196,16.991,60.034c-8.698,8.539-10.561,9.526-9.052,11.742
	c0.007,0.011,0.022,0.032,0.029,0.043c1.71,2.515,11.448-7.319,29.861-26.336c19.579,8.102,32.498,17.418,38.403,27.693
	c4.932,8.581,4.053,16.099,3.472,21.074c-1.736,14.868,6.057,10.652,17.774,1.154c2.927-2.374,4.935-4.152,8.55-3.379
	c0.004-0.001,0.008-0.001,0.012-0.001V279.654z M248.606,315.613l-5.538,5.989c-3.692-6.989-1.289-15.303,6.535-17.815
	c-3.827,3.133-5.284,7.618-5.117,12.013L248.606,315.613z M240.816,279.193c-1.109-2.55,2.285-4.651,4.096-2.578
	C247.338,279.373,242.26,282.518,240.816,279.193z M236.587,280.917c-4.116,0.18-10.48,1.008-15.818,2.986
	C224.31,280.189,232.487,276.897,236.587,280.917z M657.32,137.549c-10.506,14.124-15.476,18.26-21.255,20.809
	c0.035-8.532,0.07-17.063,0.105-25.595c4.532-5.657,15.73-12.248,21.149-7.927V137.549z M657.32,117.849
	c-7.707,0.223-15.274,3.466-20.817,9.552l1.18-19.16c4.53-8.951,14.247-18.54,19.637-12.208V117.849z M657.32,88.055
	c-7.745-0.088-14.245,3.682-19.012,11.094l0.879-9.257c4.101-6.76,11.327-9.647,18.133-6.515V88.055z M657.32,70.367
	c-3.053-3.864-6.079-7.694-8.496-10.755h8.496V70.367z"/>
</svg>
