<?xml version="1.0" encoding="utf-8"?>
<!-- Generator: Adobe Illustrator 22.1.0, SVG Export Plug-In . SVG Version: 6.00 Build 0)  -->
<svg version="1.1" xmlns="http://www.w3.org/2000/svg" xmlns:xlink="http://www.w3.org/1999/xlink" x="0px" y="0px"
	 viewBox="0 0 1001.4 1105.6" style="enable-background:new 0 0 1001.4 1105.6;" xml:space="preserve" width="500" height="500">
<g>
	<g>
		<path d="M574.4,818.6c4.9,0,10.4-3.2,16.4-9.7c6.1-6.5,9.1-13.9,9.1-22.3c0-7.2-3.1-13.3-9.2-18.1c-6.2-4.8-12.2-7.2-18.1-7.2
			c-4.9,0-8.8,3-11.6,9.1c-2.8,6.1-4.3,13.1-4.3,21.1c0,6.9,1.5,13.1,4.4,18.6C564.1,815.8,568.5,818.6,574.4,818.6z"/>
		<path d="M995.9,871.1c-3.7,0-6.7,3.8-8.8,11.4c-12.9,46-28.2,81.4-45.9,106.3c-17.7,24.9-33.3,37.3-46.8,37.3
			c-14.3,0-21.4-14.3-21.4-42.9c0-20.2,2.6-42.4,7.9-66.6c17.4-2.1,33.9-8.8,49.6-20c21.3-15.1,32-33.1,32-54
			c0-12.5-4.9-23.5-14.8-33c-9.9-9.5-21.4-14.2-34.5-14.2c-25.4,0-45.9,19.6-61.3,58.7c-6.2,15.8-11.1,32.4-14.4,49.8
			c-10.6,37.3-21,68.9-31.2,94.8c-12,30.6-21.2,45.9-27.4,45.9c-8.6,0-13.8-7.3-15.7-21.9c-1.9-14.6-2.8-28.3-2.8-41.2
			c0-49.3,7.2-107.8,21.7-175.5c14.7-1.4,29.1-6.4,43.1-15c23.9-14.3,41.6-35,53.1-62.2c6.5-15.5,9.7-32.1,9.7-49.9
			c0-14.5-5.8-26.3-17.3-35.5c-9.6-7.4-20.5-11.2-32.9-11.2c-17,0-33,9.1-47.8,27.3c-22.5,27-40.6,67.7-54.3,122.1
			c-4.1-2.7-7.8-6.1-11.2-10c-11.3-13.3-17-29.5-17-48.7c0-6.3,0.8-11.8,2.3-16.7c1.6-4.9,2.3-9.9,2.3-15c0-4.9-1.2-8.7-3.7-11.3
			c-2.4-2.6-5.2-4-8.4-4c-9.6,0-14.4,7.3-14.4,22c0,20,3.5,38.2,10.6,54.6c8.4,19.6,20.4,34,36.1,43.1c-2.5,10.8-4.8,21.8-6.8,33.2
			c-8.8-8.6-18.8-12.9-29.9-12.9c-29.5,0-53.6,30.5-72.2,91.6c-4.5,14.6-7.8,28.1-10.1,40.5c-17.9,54.8-32.3,82.1-43.3,82.1
			c-4.1,0-6.2-5.6-6.2-16.7c0-19.4,3-47.2,9.1-83.4c5.3-31.9,7.9-51.9,7.9-59.9c0-8-5.3-14.2-15.8-18.5c-6.7-2.9-11.2-4.4-13.5-4.4
			c-4.7,0-8.4,3.8-11.2,11.4c-2.9,7.7-5.8,18.9-8.5,33.6c-11.7,42.4-23.4,77.8-35.3,106.2c-12.8,30.6-22.5,45.9-28.9,45.9
			c-2.3,0-4.4-1.7-6-5.1c-1.7-3.4-2.5-7.3-2.5-11.6c0-18.4,2.2-37.6,6.6-57.5c4.4-20,8.9-38.3,13.4-54.9c6.5-23.9,9.7-38.7,9.7-44.6
			c0-12.9-6.9-23.6-20.8-32c-6.3-3.7-13.1-7.3-20.4-10.7c-7.3-3.4-14.3-7.2-21-11.3c3.7-18,5.6-31.3,5.6-39.9
			c0-16.2-6.3-24.4-18.8-24.4c-5.7,0-10.5,1.9-14.5,5.6c-4,3.7-7,8.3-9.1,13.8c-2.1,5.5-3.1,10.8-3.1,15.8
			c0,10.6,5.8,20.7,17.3,30.5l7.9,6.5c-3.5,14.5-8.6,33.8-15.3,57.8c-6.9,24.5-17.9,44.3-33.2,59.6c-4.7,4.7-9.5,9.1-14.4,13.2
			c-3.9-41.7-29.5-65.7-76.6-72.2c30.9-18,61.5-50.7,91.9-98c20.5-31.9,30.8-61.5,30.8-88.9c0-18.4-5.8-33.7-17.3-45.8
			c-11.5-12.1-26.2-18.2-44-18.2c-14.3,0-29.1,5.4-44.3,16.3c-15.3,10.9-29.7,27.8-43.4,50.9c-7.4,12.7-14.3,27.3-20.5,43.7
			c-1-30.3-8.1-55.9-21.4-76.6c-14.7-22.9-38.8-34.3-72.5-34.3c-23.9,0-45.3,8.9-64.1,26.7c-18.9,17.8-34.1,39.6-45.6,65.5
			C7.2,756.6,0,787.7,0,817.7c0,51.3,19.3,76.9,57.8,76.9c14.3,0,27.2-4.8,38.7-14.5c11.5-9.7,21.2-21.9,29.1-36.5
			c11.5-22.1,17.3-43.9,17.3-65.5c0-26.4-8.1-43.6-24.4-51.7c-2.9-1.4-5.4-2.1-7.3-2.1c-3.7,0-5.6,1.7-5.6,5c0,1.8,0.9,3.5,2.6,5.3
			c7.8,8.2,11.7,21.3,11.7,39.3c0,20.4-4.8,41.1-14.4,62.2c-12.9,28.2-28.9,42.3-47.8,42.3c-17.2,0-25.8-13.9-25.8-41.7
			c0-20.9,4.7-45.3,14.1-73.1c11.7-35.4,26.5-64,44.3-85.7c15.8-19.6,31.3-29.4,46.4-29.4c9.2,0,16.6,4.7,22.3,14.1
			c9.8,16.4,14.7,38.4,14.7,65.7c0,30.9-2.7,61.8-8.2,92.7c-5.3,29.7-11.3,58.5-17.9,86.3c-5.5,23.5-10.2,46-14.2,67.5
			c-4,21.5-6,42.2-6,61.9c0,30.5,8.5,51.8,25.5,64c4.5,3.1,8.3,4.7,11.4,4.7c2.9,0,5.4-0.7,7.5-2.1c2.1-1.4,3.1-3.3,3.1-5.9
			c0-3.7-0.3-7.9-0.9-12.6c-0.6-4.7-0.9-8.5-0.9-11.4c0-21.3,7-61.6,21.1-120.9c8.8-37.2,15.7-69.7,20.8-97.4
			c7.2-40.7,13.8-70.5,19.7-89.5c12.5-39.9,30.7-71.9,54.6-96c12.1-12.3,24.3-18.5,36.4-18.5c13.1,0,19.7,11.1,19.7,33.2
			c0,20.9-6.9,46.3-20.5,76c-13.7,29.7-29.5,56.8-47.3,81.3c-12.1,16.8-24.4,29.6-36.7,38.4c-17.6,0-26.4,4.1-26.4,12.3
			c0,4.5,3.9,6.7,11.7,6.7c9.2,0,18.5-2.2,27.9-6.7c15.8,2.2,27.5,7.7,35.1,16.7c7.5,9,11.3,20.2,11.3,33.5
			c0,15.5-2.7,30.9-8.2,46.4c-12.1,5.7-24.2,10.8-36.1,15.3c-13.9,5.3-26.4,10.6-37.6,15.8c-11.2,5.3-20.1,11.3-26.9,17.9
			c-6.8,6.7-10.1,14.8-10.1,24.4c0,7.4,2.2,14.2,6.5,20.3c4.3,6.1,9.5,11,15.7,14.7c6.2,3.7,12.2,5.6,18.1,5.6
			c21.5,0,42-6.5,61.5-19.4c19.5-12.9,35.4-29.7,47.7-50.5c11.3-19,17.5-39.2,18.5-60.8c8.6-6.5,16.8-13.8,24.7-22
			c16-16.4,27.9-37.9,35.5-64.3c5.5-20.5,10-38.4,13.5-53.7c4.5,3.3,8.6,6.7,12.3,10c4.7,4.3,7,9,7,14.1c0,6.5-3.1,22.6-9.4,48.4
			c-10.6,43.6-15.8,73.9-15.8,90.7c0,21.7,4.6,37.8,13.8,48.3c9.2,10.5,21.3,15.7,36.4,15.7c7.4,0,15-5.1,22.7-15.3
			c7.7-10.2,16.2-27.9,25.5-53.1c2.2-5.8,4.4-12.2,6.7-19.1c0,2-0.1,4-0.1,5.9c0,21.7,4.6,38.3,13.9,49.7
			c9.3,11.4,20.5,17.2,33.6,17.2c14.4,0,27.9-15.1,40.6-45.3c1.3,10.3,3.9,19.7,7.8,28.2c6.9,14.9,17.1,22.3,30.8,22.3
			c18.2,0,34.2-17.8,48.1-53.4c5.7-14.5,12.3-34.8,20-61c0.8,51.9,9,87.6,24.7,107.1c8.8,11.2,21,16.7,36.7,16.7
			c7.4,0,14.8-5.1,22.2-15.3c7.3-10.2,15.5-27.9,24.4-53.1c2-5.6,4-11.6,6.1-18.2c0.7,14.4,5.8,28.5,15.2,42.2
			c11.7,17,27.7,25.5,47.8,25.5c42.5,0,77.8-51.6,106-154.7c0.8-2.7,1.2-5.4,1.2-7.9C1001.4,873.5,999.6,871.1,995.9,871.1z
			 M911,834.4c6.8-10.8,13.8-16.1,20.8-16.1c3.5,0,6.4,2.2,8.7,6.5c2.2,4.3,3.4,10,3.4,17c0,18.4-8.4,33.7-25.2,45.8
			c-10.8,7.8-22.4,13.1-34.9,15.9C891.2,873.8,900.3,850.9,911,834.4z M823.9,677.7c10.2-19.2,20.4-28.8,30.8-28.8
			c9.6,0,14.4,7.9,14.4,23.8c0,36.6-9.8,66.2-29.4,88.9c-5.5,6.5-11.7,11.8-18.8,16.1c-11.5,7.2-23.5,11.7-35.8,13.5
			C796.1,743.9,809,706.1,823.9,677.7z M248.6,1060.4c-14.1,14.3-26.7,21.4-37.9,21.4c-8.6,0-12.9-5.1-12.9-15.3
			c0-7.8,2.8-14.6,8.4-20.3c5.6-5.7,13.5-11,23.6-15.8c7.2-3.3,25.5-11,54.9-22.9C274.7,1028.5,262.7,1046.1,248.6,1060.4z
			 M415.9,808c-7.2-7.4-10.9-16-10.9-25.8c0-5.3,0.7-10,2.1-14.2c1.4-4.2,3.4-6.3,6.2-6.3c4.3,0,6.5,5.6,6.5,16.7
			C419.7,786,418.4,795.9,415.9,808z M715.9,884.3c0.8,0,1.9-0.5,3.2-1.5l-0.6,10.6c-11.5,42.5-25.1,80.5-40.8,114.2
			c-8.6,18.6-17.1,27.9-25.5,27.9c-5.9,0-8.8-4.9-8.8-14.7c0-5.7,1-15.3,2.9-28.8c4.9-34.6,12.4-67.8,22.6-99.5
			c11.9-37.6,24.8-56.4,38.7-56.4c9,0,13.5,5,13.5,15c0,8.2-2,17.3-5.9,27.3c-0.6,1.8-0.9,3.1-0.9,4.1
			C714.4,883.7,714.9,884.3,715.9,884.3z"/>
	</g>
	<g>
		<path d="M246,15.4C235.4,5.1,220.4,0,201.2,0c-32.2,0-62.1,17.8-89.8,53.5c-20.1,25.8-35.1,54-45.2,84.5
			c-7.4,22.5-11.1,43.9-11.1,63.9c0,16.4,4,32.6,12,48.6c8,16,17.9,31.6,29.7,46.9c11.8,15.3,23.8,29.9,36.1,43.8
			c21.7,24.6,36.7,44.1,44.9,58.4c4.9,8.6,7.4,16.6,7.4,24c0,10.5-2.5,19.6-7.5,27.4c-5,7.8-11.5,13.8-19.4,18.1
			c-7.9,4.3-16.1,6.5-24.7,6.5c-25,0-42.3-9.2-51.9-27.7c-6.4-12.1-10.6-28.1-12.6-48c-0.8-8.8-1.7-14.2-2.6-16.3
			c-0.9-2-2.6-3.1-5.1-3.1c-5.1,0-10.2,3.6-15.4,10.8c-5.1,7.2-7.7,16.7-7.7,28.6c0,13.1,3,25.5,9.1,37c6,11.6,15.6,21,28.6,28.1
			c13,7.2,29.9,10.8,50.6,10.8c18.4,0,35.4-4.3,50.7-12.8c15.4-8.5,27.7-19.7,36.9-33.5c9.2-13.8,13.8-28.6,13.8-44.4
			c0-18-9.4-39.2-28.3-63.6c-8.4-10.9-17.4-21.8-27.1-32.9c-23-26.6-39.2-48.7-48.9-66.1c-10.2-18.4-15.4-36-15.4-52.6
			c0-11.5,3.1-26.3,9.2-44.6c8-24.8,18.5-47.7,31.7-68.9c24.2-39.1,47.4-58.7,69.8-58.7c12.9,0,19.4,15.7,19.4,47
			c0,19.3-2.4,39.7-7.1,61.2c-8.8,40.6-21.3,68.3-37.5,83.3c-3.5,3.3-5.2,5.9-5.2,8c0,2.7,2.6,4,7.7,4c12.5,0,24.5-6.7,36-20
			c9.6-11.1,17.7-24.9,24.3-41.5c9.4-24.6,14.1-49,14.1-73.2C270.6,55.1,262.4,31.4,246,15.4z"/>
		<path d="M320.1,195.2c5.1,0,10.9-3.4,17.2-10.1c6.3-6.8,9.5-14.5,9.5-23.4c0-7.6-3.2-13.9-9.7-18.9c-6.5-5-12.8-7.5-18.9-7.5
			c-5.1,0-9.2,3.2-12.1,9.5c-3,6.4-4.5,13.7-4.5,22.1c0,7.2,1.5,13.7,4.6,19.5C309.4,192.3,314,195.2,320.1,195.2z"/>
		<path d="M957.4,250.2c-3.9,0-7,4-9.2,12c-13.1,49-26.4,89.5-39.8,121.6c-13.4,32.1-23.5,48.1-30.3,48.1c-2.5,0-4.6-1.8-6.3-5.4
			c-1.7-3.6-2.6-7.6-2.6-12.1c0-19.3,2.3-39.3,6.9-60.3c4.6-20.9,9.3-40.1,14-57.5c6.8-25,10.1-40.6,10.1-46.7
			c0-13.5-7.3-24.7-21.8-33.5c-6.6-3.9-13.7-7.6-21.4-11.2c-7.7-3.6-15-7.5-22-11.8c3.9-18.9,5.8-32.8,5.8-41.8
			c0-17-6.6-25.5-19.7-25.5c-5.9,0-11,1.9-15.2,5.8c-4.2,3.9-7.4,8.7-9.5,14.4c-2.2,5.7-3.2,11.3-3.2,16.6c0,11.1,6,21.7,18.1,32
			l8.3,6.8c-3.7,15.2-9,35.4-16,60.6c-13.5,48.2-29.6,85.3-48.1,111.3c-18.5,26-34.9,39-49,39c-15,0-22.4-15-22.4-44.9
			c0-21.1,2.8-44.4,8.3-69.8c18.2-2.3,35.6-9.2,52-20.9c22.3-15.8,33.5-34.6,33.5-56.6c0-13.1-5.2-24.6-15.5-34.6
			c-10.4-9.9-22.4-14.9-36.1-14.9c-26.6,0-48.1,20.5-64.2,61.5c-6.5,16.5-11.6,33.9-15.1,52.1c-11.6,40.7-23.8,77.3-36.4,109.8
			c-14.9,38.2-25.7,57.3-32.4,57.3c-1.6,0-3.1-1.5-4.5-4.6c-1.3-3.1-2.4-6.7-3.2-10.8c-0.8-4.1-1.2-7.7-1.2-10.8
			c0-79.3,12.7-190.4,38.1-333.2c34.4-6.1,60.1-9.2,77.2-9.2c20.9,0,37.3,7.4,49.2,22.1c7.2,8.8,13.4,13.2,18.8,13.2
			c3.9,0,7.8-1.7,11.7-5.2c3.9-3.5,5.8-7.9,5.8-13.2c0-3.5-1.3-6.8-4-9.8c-6.4-7.8-15.9-13.4-28.7-16.8c-12.8-3.4-26.3-5.1-40.4-5.1
			c-20.3,0-39.6,1.5-57.8,4.6l-29.2,4.9c0.8-3.7,1.2-7,1.2-9.8c0-8.4-5.4-14.9-16.3-19.4c-7.2-3.1-11.7-4.6-13.5-4.6
			c-2.3,0-4.4,0.8-6.5,2.5c-2.9,2.3-5.7,8.6-8.6,19.1l-5.5,21.2l-28.3,4.6c-19.3,3.3-41.5,4.9-66.7,4.9c-24.8,0-44.8-3.5-59.9-10.5
			c-15.2-7-22.7-17.4-22.7-31.4c0-4.9,1.7-10.8,5.1-17.5c3.4-6.8,5.1-12.1,5.1-16c0-7.2-1.6-12.4-4.9-15.8C384.8,1.7,381,0,376.7,0
			c-7.8,0-13.8,3.3-18,9.8c-4.2,6.6-6.3,15.1-6.3,25.5c0,11.1,3.6,22.7,10.8,35c15.2,26.4,49.3,39.7,102.4,39.7
			c21.7,0,52.3-3,91.6-8.9c-4.3,18.2-8.2,37-11.7,56.3c-19.1,99.4-43.9,163.4-74.4,192.1c-2.7-4.7-5.5-9.4-8.6-14.1
			c-13.1-20.1-22.1-38.3-27.1-54.7c-3.3-10-4.9-21.2-4.9-33.5c0-16.2,5.7-32.5,17.2-49c11.5-16.5,21.5-24.7,30.1-24.7
			c10.5,0,15.7,8.2,15.7,24.6c0,10.7-2.6,21.1-7.7,31.4c-1,2.3-1.5,4.1-1.5,5.5c0,1.8,0.7,2.8,2.2,2.8c2.9,0,7-3.2,12.3-9.5
			c7.4-9,11.1-18.8,11.1-29.2c0-11.7-3.9-22.3-11.7-32c-9.4-11.7-21.5-17.5-36.3-17.5c-26.4,0-47,13.2-61.8,39.7
			c-12.9,23.2-19.4,48.3-19.4,75.3c0,0,0,0,0,0c-28.2,101.6-49.9,152.4-65.2,152.4c-4.3,0-6.5-5.8-6.5-17.5
			c0-20.3,3.2-49.4,9.5-87.3c5.5-33.4,8.3-54.3,8.3-62.7c0-8.4-5.5-14.9-16.6-19.4c-7-3.1-11.7-4.6-14.1-4.6c-4.9,0-8.8,4-11.7,12
			c-4.9,12.9-9.6,35.4-14.1,67.3c-3.1,21.9-4.6,41.1-4.6,57.5c0,22.7,4.9,40.1,14.6,52.1c9.7,12,21.5,18,35.2,18
			c17.2,0,33.3-20.7,48.3-62.1c6.8-19,14.4-43.4,22.8-73.1c2.9,7.9,6.3,15.6,10.4,23c4.7,8.6,9.7,17,15.1,25.2
			c7.2,10.9,13.5,21.8,19.1,32.9c-8,5.5-15.5,11-22.4,16.3c-8.6,7-15.5,14.5-20.8,22.6c-5.2,8.1-7.8,17.7-7.8,28.7
			c0,14.5,3.5,25.4,10.5,32.4c7,7.1,15.4,10.6,25.2,10.6c22.9,0,40.9-7.3,53.9-22c13-14.7,19.5-33.4,19.5-56.1
			c0-16.2-3.8-32.2-11.4-48c22.5-21.9,39.1-48.7,49.8-80.2c-3.3,32.6-4.9,62.8-4.9,90.7c0,15.2,2.2,29.9,6.5,44.3
			c4.3,14.3,10.6,26.2,18.8,35.7c8.2,9.4,18.2,14.1,30.1,14.1c11.7,0,24.7-16,39-48c7.3-16.2,15.1-37.2,23.5-63.2
			c0.6,15.4,5.8,30.4,15.9,45c12.3,17.8,29,26.7,50.1,26.7c44.5,0,81.5-54,111-162c5.7-21.5,10.5-40.3,14.1-56.3
			c4.7,3.5,9,7,12.9,10.5c4.9,4.5,7.4,9.4,7.4,14.8c0,6.8-3.3,23.7-9.8,50.7c-11.1,45.7-16.6,77.4-16.6,95
			c0,22.7,4.8,39.6,14.4,50.6c9.6,11,22.3,16.4,38.1,16.4c7.8,0,15.7-5.3,23.8-16c8.1-10.7,17-29.2,26.7-55.6
			c9.7-26.4,20.9-63.1,33.4-110c0.8-2.9,1.2-5.4,1.2-7.7C963.2,252.9,961.3,250.2,957.4,250.2z M724,211.8
			c7.2-11.3,14.4-16.9,21.8-16.9c3.7,0,6.7,2.3,9.1,6.8c2.4,4.5,3.5,10.5,3.5,17.8c0,19.3-8.8,35.3-26.4,48
			c-11.3,8.2-23.5,13.7-36.6,16.6C703.2,253.1,712.8,229,724,211.8z M432.2,459.4c-5.2,9.3-10.7,14-16.4,14c-4.3,0-8-1.5-11.2-4.5
			c-3.2-3-4.8-9.4-4.8-19.2c0-10.7,2.5-19.9,7.4-27.7c5.7-9,15.6-18.9,29.5-29.5c2.3,8.4,3.4,17.7,3.4,28
			C440,437.1,437.4,450.1,432.2,459.4z M824,184.1c-7.6-7.8-11.4-16.8-11.4-27.1c0-5.5,0.7-10.5,2.2-14.9c1.4-4.4,3.6-6.6,6.5-6.6
			c4.5,0,6.8,5.8,6.8,17.5C828,161.1,826.6,171.4,824,184.1z"/>
	</g>
	<g>
		<path d="M425.1,504.8c-12.2,0-21.7,8.6-28.2,25.5c-3.1,7.9-5.4,16.8-7,26.7c-1.6,9.8-2.3,22.9-2.3,39.2c0,18.2,2.5,32.7,7.3,43.2
			c5.7,12.3,13.5,18.5,23.1,18.5c12.1,0,21.3-8.9,27.5-26.6c5.4-15.6,8.1-35.1,8.1-58c0-18.2-2-33.6-6-46
			C442.7,512.4,435.1,504.8,425.1,504.8z M418,639.9c-2.1,0-4.6-2.9-6.9-8c-3.7-8.1-5.6-20.2-5.6-35.8c0-14.1,0.8-26.2,2.3-36.1
			c1.3-8.6,3.3-16.4,5.9-23.2c2.5-6.5,6.6-14.2,11.6-14.2c0,0,2.3,0.8,5.2,10.1c3.5,11.5,5.3,25.1,5.3,40.4c0,20.9-2.4,38.4-7,52.1
			C425.2,634.8,421.5,639.9,418,639.9z"/>
		<path d="M512.7,509.1c-4,0-9.8-0.7-17.4-2c-8.5-1.5-15.8-2.3-21.7-2.3c-2.4,0-4.6,0.9-6.3,2.6c-1.7,1.7-2.6,3.9-2.6,6.3
			c0,63.2,0.3,109.1,1,136.5c0.1,2.4,1,4.5,2.7,6.2c1.7,1.6,3.9,2.5,6.3,2.5c2.5,0,4.7-0.9,6.4-2.7c1.6-1.7,2.5-3.9,2.5-6.4
			c0-6.9-0.1-42.8-0.4-57.5h15.6c2.4,0,4.7-0.9,6.4-2.6c1.7-1.7,2.6-3.9,2.6-6.3c0-2.5-0.9-4.7-2.7-6.4c-1.7-1.7-3.9-2.6-6.3-2.6
			h-15.9c0-4.2-0.1-7.5-0.1-10.4c-0.1-10.6-0.2-16.2-0.2-40.8c2.9,0.3,6.1,0.8,9.8,1.4c8.5,1.5,15.3,2.3,20.3,2.3
			c2.4,0,4.7-0.9,6.4-2.6c1.7-1.7,2.6-3.9,2.6-6.3c0-2.5-0.9-4.7-2.7-6.4C517.3,509.9,515.1,509.1,512.7,509.1z"/>
		<path d="M623.6,507.4c-1.7-1.7-3.9-2.6-6.3-2.6h-43.8c-2.4,0-4.6,0.9-6.3,2.6c-1.7,1.7-2.6,3.9-2.6,6.3c0,2.4,0.9,4.6,2.6,6.3
			c1.7,1.7,3.9,2.6,6.3,2.6h12.5c0,58.6,0.4,101.5,1,127.6c0.1,2.4,1,4.5,2.7,6.2c1.7,1.6,3.9,2.5,6.3,2.5c2.6,0,4.8-1,6.5-2.8
			c1.6-1.7,2.4-3.9,2.4-6.4c0-3.5-0.2-12.7-0.5-28.2c-0.3-14.8-0.5-48.1-0.5-98.9h13.5c2.4,0,4.6-0.9,6.3-2.6
			c1.7-1.7,2.6-3.9,2.6-6.3C626.2,511.3,625.3,509.1,623.6,507.4z"/>
		<path d="M693,504.8c-2.5,0-4.7,0.8-6.3,2.4c-1.7,1.6-2.7,3.8-2.8,6.3l-2.2,58.8H653l1.8-58.6c0-2.4-0.9-4.6-2.6-6.3
			c-1.7-1.7-3.9-2.6-6.3-2.6s-4.6,0.9-6.3,2.6c-1.7,1.7-2.6,3.9-2.6,6.3c-0.4,37.9-1.4,72.7-2.8,103.3c-0.6,12.7-0.8,23.7-0.8,32.9
			c0,2.4,0.8,4.6,2.4,6.4c1.7,1.8,3.9,2.8,6.4,2.8c2.5,0,4.7-0.9,6.4-2.5c1.8-1.7,2.7-3.9,2.7-6.3c0.2-8.7,0.5-19.7,1.1-32.5
			c0.7-16.6,0.6-17.4,0.5-19c-0.1-0.8-0.2-2-0.1-8.5h28.3c-1.2,31.8-1.1,36.9-0.9,45.3c0.1,3.6,0.1,7.6,0.1,14.5
			c0,2.4,0.9,4.5,2.6,6.3c1.7,1.8,3.9,2.7,6.4,2.7s4.7-0.9,6.4-2.7c1.7-1.7,2.6-3.9,2.6-6.3c0-28.1,0.8-62.8,2.4-103.3
			c0.8-20.4,1.2-31.2,1.2-32.9c0-2.4-0.8-4.5-2.4-6.3C697.7,505.8,695.5,504.8,693,504.8z"/>
		<path d="M758.4,633.3c-1.1,0-2.3,0.3-3.4,0.7c-10.9,4.4-17.5,6.2-21.5,6.7c0-0.3-0.1-0.6-0.1-0.9c-0.3-2.5-0.6-18.1-0.9-30.7
			c-0.1-6.7-0.3-12.8-0.4-16.8h14.4c2.4,0,4.7-0.9,6.4-2.6c1.7-1.7,2.6-3.9,2.6-6.3c0-2.5-0.9-4.7-2.7-6.4c-1.7-1.7-3.9-2.6-6.3-2.6
			h-15.1c-0.1-3.5-0.3-6.2-0.4-8.8c-0.4-10-0.7-15.7-0.8-42.5c2.9,0.3,6.1,0.8,9.8,1.4c8.5,1.5,15.3,2.3,20.3,2.3
			c2.4,0,4.7-0.9,6.4-2.6c1.7-1.7,2.6-3.9,2.6-6.3c0-2.5-0.9-4.7-2.7-6.4c-1.7-1.7-3.9-2.6-6.3-2.6c-4,0-9.8-0.7-17.4-2
			c-8.5-1.5-15.8-2.3-21.7-2.3c-2.4,0-4.6,0.9-6.3,2.6c-1.7,1.7-2.6,3.9-2.6,6.3c0,48.4,0.7,85.8,2,111.3
			c0.9,16.2,3.2,25.7,7.4,30.1c2.3,2.5,5.3,3.8,8.7,3.8c4.2,0,9-0.8,14.2-2.4c4.7-1.4,10.3-3.4,16.8-6c3.7-1.4,5.7-4.4,5.7-8.4
			C767.3,636.8,763.9,633.3,758.4,633.3z"/>
	</g>
</g>
</svg>


