<?xml version="1.0" encoding="utf-8"?>
<!-- Generator: Adobe Illustrator 23.0.5, SVG Export Plug-In . SVG Version: 6.00 Build 0)  -->
<svg height="500" width="500" version="1.1" xmlns="http://www.w3.org/2000/svg" xmlns:xlink="http://www.w3.org/1999/xlink" x="0px" y="0px"
	 viewBox="0 0 720 720" style="enable-background:new 0 0 720 720;" xml:space="preserve">
<style type="text/css">
	.st0{fill:#050002;}
	.st1{fill-rule:evenodd;clip-rule:evenodd;fill:#050002;}
	.st2{fill-rule:evenodd;clip-rule:evenodd;}
	.st3{fill:#221F1F;}
	.st4{fill:#231F20;}
	.st5{fill:#070808;}
	.st6{fill:#211E1F;}
	.st7{fill:#161616;}
	.st8{fill:#131313;}
	.st9{fill:#21201F;}
	.st10{fill:#2C2929;}
</style>
<g>
	<g>
		<g>
			<path class="st0" d="M494.2,189.7c-28.1-21.8-64.8-32.6-109.9-32.6H162.9v24.3c6.1,0.5,13.5,1.3,22,2.6
				c8.5,1.3,17.1,3.4,25.8,6.3c8.4,3.2,13.8,8,16.1,14.4c2.3,6.4,3.4,13.6,3.4,21.5v107H303V185.1h48.2c19.4,0,35.5,3,48.5,8.9
				c13,5.9,23.5,14.2,31.4,24.9c7.5,10,12.8,21.8,15.9,35.2c3.1,13.5,4.6,26.7,4.6,39.6c0,9.3-1.3,19.9-3.8,31.6
				c-0.6,2.6-1.2,5.2-2.1,7.8h80.5c6.7-16.9,10-35.7,10-56.5C536.4,240.5,522.4,211.5,494.2,189.7z M323.2,610.9
				c-8.2-3.2-13.6-7.8-16.2-13.8c-2.6-6-3.9-13-3.9-21V469.8h-72.8v106.2c0,8.9-1.5,16.2-4.6,21.9c-3.1,5.7-8,10-14.9,13
				c-4.1,1.8-11.3,3.3-21.7,4.4c-10.4,1.1-18.3,1.9-23.7,2.4V642h208.1v-24.3c-8.7-0.2-18.2-1-28.5-2.4
				C334.5,614,327.3,612.5,323.2,610.9z"/>
		</g>
	</g>
</g>
<g>
	<g>
		<g>
			<g>
				<rect x="177.4" y="333.2" class="st0" width="430.2" height="7.7"/>
			</g>
		</g>
	</g>
	<g>
		<g>
			<g>
				<rect x="177.4" y="462.5" class="st0" width="430.2" height="7.7"/>
			</g>
		</g>
	</g>
</g>
</svg>

