<?xml version="1.0" encoding="utf-8"?>
<!-- Generator: Adobe Illustrator 23.0.5, SVG Export Plug-In . SVG Version: 6.00 Build 0)  -->
<svg version="1.1" xmlns="http://www.w3.org/2000/svg" xmlns:xlink="http://www.w3.org/1999/xlink" x="0px" y="0px"
	 viewBox="0 0 720 720" style="enable-background:new 0 0 720 720;" xml:space="preserve" width="500" height="500">
<style type="text/css">
	.st0{fill:#050002;}
	.st1{fill-rule:evenodd;clip-rule:evenodd;fill:#050002;}
	.st2{fill-rule:evenodd;clip-rule:evenodd;}
	.st3{fill:#221F1F;}
	.st4{fill:#231F20;}
	.st5{fill:#070808;}
	.st6{fill:#211E1F;}
	.st7{fill:#161616;}
	.st8{fill:#131313;}
	.st9{fill:#21201F;}
	.st10{fill:#2C2929;}
</style>
<g>
	<g>
		<g>
			<path class="st0" d="M379.3,165.4c-70.5,0.5-131.3,25-182.5,73.5c-49.3,49.5-74.8,109.2-76.5,179.3
				c0.7,70.2,25.2,130.3,73.6,180.3c50.4,49.2,110.7,74.7,181.1,76.3c70.5-0.2,131.4-24.5,182.8-72.9c49.5-49.3,75.1-109,77.1-179.1
				c-0.5-70.2-24.8-130.3-73-180.5c-51.1-49.9-111.8-75.6-181.9-76.9 M379.3,169c69.6,1.4,129.4,26.5,179.2,75.2
				c47.9,49.8,72.2,109,72.7,177.5c-1.3,68.4-26.3,127.3-75,176.6c-49.6,47.6-109.4,71.9-179.3,72.9c-69.6-1.1-129.5-26-179.6-74.5
				C149.2,547,124.7,487.9,124,419.4c1.4-69.4,26.4-128.6,75.1-177.6c49.6-47.6,109.4-71.8,179.3-72.8"/>
		</g>
	</g>
	<g>
		<g>
			<path class="st0" d="M584.4,546.3c34.8-60.6,43.8-125.1,27-193.2c-18.6-67-58.1-118.7-118.6-155.2
				c-61.7-34.5-126.5-43.5-194.5-27C230,189.4,177.6,228.5,141,288c-35,60.5-44.2,124.9-27.6,193.2
				c18.4,67.1,57.8,118.9,118.1,155.6c61.6,34.7,126.4,43.9,194.4,27.6c69.3-18.9,122-58,158.2-117.5 M581.3,544.5
				c-36,59-87.8,97.7-155.4,116.1c-67.6,16.2-131.4,7.4-191.6-26.4c-59.1-35.3-98.1-86.2-117-152.6c-16.8-66.3-8.2-129.7,25.9-190.2
				c35.8-59.1,87.4-98,154.9-116.7c67.5-16.4,131.5-7.9,191.7,25.7c60,35.9,99.3,86.9,117.8,153.2c16.8,66.3,8.1,129.7-26,190.2"/>
		</g>
	</g>
	<g>
		<g>
			<path class="st0" d="M148.6,531.7c35.6,60.2,87.5,100.1,155.5,119.7c67.9,17.5,132.9,9.5,195-24.1
				c61-35.7,101.3-86.7,120.9-153.3c17.9-67.8,10-132.3-23.8-193.4c-35.4-60.3-87.2-100.4-155.2-120.3
				c-67.9-17.7-132.9-9.9-195.2,23.5c-61.1,35.5-101.6,86.4-121.4,152.9c-18.1,68.8-10.2,133.6,23.7,194.4 M151.8,529.9
				c-33.6-60.4-41.5-124.1-23.9-191.3c19.6-66,59.3-116.4,118.9-151.1c60.5-33,124.5-41,192-24c66.4,18.7,117.5,57.8,153.4,117.3
				c33.8,60.3,42,124,24.6,191.2c-19.4,66.1-58.8,116.6-118.4,151.5c-61.4,33.5-125.7,41.7-192.9,24.4
				c-66.4-18.8-117.5-57.9-153.3-117.4"/>
		</g>
	</g>
	<g>
		<g>
			<path class="st0" d="M335.4,638.8c-0.3,0.9-0.5,1.8-0.5,2.6c0,1.2,0.2,2.4,0.5,3.7c0.6,1.9,1.9,3.8,3.8,5.9
				c3.3,3.4,6.3,5.8,9.2,7.4c1,0.6,2.3,0.9,3.8,1c0.9,0.1,1.5-0.2,1.8-0.9c0.2-0.7,0.1-1.3-0.5-1.7c-0.1-0.1-0.3-0.2-0.5-0.2l-0.9,0
				c-0.3,0-0.7-0.1-1.1-0.2c-0.3-0.1-0.7-0.2-1.3-0.5c-1.1-0.5-2.7-1.6-4.8-3.4c-1.7-1.5-3.2-2.9-4.4-4.3c-0.9-1.2-1.6-2.2-2-3.1
				c-0.6-1.7-0.8-3.3-0.4-4.7c0.3-1.2,1.1-1.8,2.4-1.9c1.7,0.1,2.7,1,3.1,2.7c0.1,0.7,0,1.4-0.5,2.1c-1,0-1.6,0.3-1.8,0.9
				c-0.2,0.5-0.2,1,0.1,1.4c0.4,0.6,1.1,0.7,2,0.5c0.8-0.1,1.4-0.5,1.9-1c0.8-1.2,1.2-2.5,1.1-3.8c-0.1-1.4-0.7-2.6-1.7-3.8
				c-1.4-1.3-3-1.9-5-1.7C337.6,635.9,336.2,637,335.4,638.8"/>
		</g>
	</g>
	<g>
		<g>
			<path class="st0" d="M192.3,272c-0.6-0.7-1.3-1.3-2-1.8c-1-0.6-2.2-1.1-3.5-1.4c-1.9-0.4-4.3-0.3-7,0.3c-4.6,1.1-8.3,2.5-11,4.2
				c-1,0.6-1.9,1.5-2.8,2.8c-0.5,0.7-0.6,1.4-0.1,2c0.5,0.5,1.1,0.7,1.7,0.4c0.2-0.1,0.3-0.2,0.5-0.3l0.5-0.8
				c0.2-0.3,0.4-0.5,0.7-0.8c0.2-0.2,0.6-0.5,1.1-0.8c1-0.7,2.8-1.5,5.4-2.4c2.1-0.7,4.1-1.3,6-1.6c1.5-0.2,2.7-0.3,3.7-0.1
				c1.8,0.3,3.2,1,4.3,2c0.9,0.9,1,1.9,0.4,3c-0.9,1.4-2.2,1.8-3.9,1.3c-0.7-0.3-1.2-0.7-1.6-1.5c0.5-0.8,0.5-1.5,0.1-2
				c-0.3-0.4-0.8-0.6-1.3-0.6c-0.7,0.1-1.2,0.6-1.4,1.5c-0.3,0.8-0.3,1.5,0,2.1c0.6,1.3,1.5,2.3,2.8,2.9c1.2,0.6,2.6,0.7,4.2,0.4
				c1.8-0.5,3.1-1.7,4-3.4C193.7,275.3,193.5,273.6,192.3,272"/>
		</g>
	</g>
	<g>
		<g>
			<path class="st0" d="M584.7,332.7c0.9-0.1,1.8-0.4,2.6-0.9c1.1-0.6,2-1.3,3-2.3c1.3-1.5,2.4-3.5,3.2-6.2
				c1.3-4.5,1.9-8.3,1.9-11.5c0-1.1-0.3-2.4-1-3.8c-0.4-0.8-0.9-1.2-1.7-1.1c-0.7,0.2-1.1,0.6-1.2,1.3c0,0.2,0,0.4,0.1,0.6l0.4,0.8
				c0.1,0.3,0.3,0.6,0.4,1c0.1,0.3,0.2,0.7,0.2,1.3c0.1,1.2-0.1,3.1-0.6,5.9c-0.4,2.2-0.9,4.2-1.6,5.9c-0.6,1.4-1.1,2.5-1.7,3.3
				c-1.2,1.4-2.5,2.3-3.9,2.7c-1.2,0.3-2.2-0.1-2.8-1.1c-0.8-1.5-0.5-2.8,0.8-4c0.6-0.5,1.3-0.7,2.1-0.7c0.5,0.8,1.1,1.2,1.7,1.1
				c0.5-0.1,0.9-0.3,1.2-0.8c0.3-0.6,0.1-1.3-0.6-2c-0.5-0.6-1.2-1-1.9-1.1c-1.5-0.1-2.8,0.2-3.9,0.9c-1.2,0.8-2,1.9-2.5,3.4
				c-0.4,1.8-0.1,3.5,1,5.1C581.1,332.2,582.7,332.9,584.7,332.7"/>
		</g>
	</g>
	<g>
		<g>
			<path class="st0" d="M308,636.6c-0.9,2-0.9,4-0.1,5.9c0.5,1.7,1.9,3.2,4.1,4.5c1.2,0.7,2.8,0.9,4.9,0.6c1.7-0.4,2.9-1.3,3.7-2.7
				c0.6-1.3,0.5-2.5-0.2-3.5c-0.8-1.3-1.9-2.2-3.4-2.7c-0.9-0.4-2-0.5-3.4-0.4c-0.7,0.2-1.1,0.6-1.2,1.3c0,0.6,0.2,1,0.7,1.3
				c0.2,0.1,0.4,0.1,0.6,0.2c0.5,0,0.9,0,1.4,0c0.1,0,0.4,0.1,0.7,0.2c1,0.4,1.6,0.8,1.9,1.2c0.7,1,0.3,1.7-1.1,2.2
				c-0.3,0.2-1,0.2-2.1,0.2c-0.5,0-0.9-0.2-1.5-0.5c-1.5-0.9-2.4-2-2.6-3.3c-0.5-2.2,0.2-4,2-5.6c1.4-1.1,3.2-1.3,5.3-0.7
				c0.8,0.2,2,0.7,3.6,1.7c0.6,0.3,1.5,1.1,2.8,2.2l2,1.9c0.8,0.8,1.3,1.3,1.7,1.7l7.1,8.3c1.5,1.5,3.2,3,5,4.3
				c1.9,1.5,3.7,2.4,5.3,2.9c0.8,0.2,1.4-0.1,1.8-0.8c0.2-0.6,0.1-1.1-0.3-1.5c-2.3-0.8-4.9-2.4-7.8-5c-1-0.9-1.8-1.6-2.3-2.2
				c-5.4-6.5-8.6-10-9.4-10.6c-2.6-2.5-4.7-4-6.1-4.6c-3.1-1.4-5.7-1.8-7.9-1.1C311,632.4,309.3,634,308,636.6"/>
		</g>
	</g>
	<g>
		<g>
			<path class="st0" d="M207.9,249.6c-1.3-1.8-3-2.8-5.1-3.1c-1.8-0.4-3.8,0-6,1.3c-1.2,0.6-2.1,1.9-2.9,3.9
				c-0.5,1.7-0.3,3.2,0.5,4.5c0.9,1.1,1.9,1.6,3.2,1.6c1.5,0,2.9-0.6,4.1-1.6c0.8-0.6,1.5-1.4,2.1-2.7c0.2-0.7,0-1.2-0.5-1.6
				c-0.5-0.3-1-0.3-1.5,0c-0.2,0.1-0.3,0.2-0.4,0.4c-0.2,0.4-0.4,0.8-0.7,1.2c-0.1,0.1-0.3,0.3-0.5,0.5c-0.8,0.6-1.5,1-2.1,1
				c-1.2,0.1-1.7-0.6-1.4-2c0-0.4,0.3-1,0.9-1.9c0.3-0.4,0.7-0.7,1.2-1c1.6-0.8,3-1,4.2-0.6c2.1,0.7,3.4,2.2,3.9,4.5
				c0.2,1.7-0.4,3.4-2,4.9c-0.6,0.6-1.6,1.4-3.2,2.3c-0.6,0.3-1.7,0.8-3.4,1.3l-2.7,0.7c-1.1,0.3-1.8,0.5-2.4,0.6l-10.8,2
				c-2.1,0.6-4.2,1.3-6.3,2.1c-2.2,0.9-4,2-5.1,3.1c-0.6,0.6-0.6,1.2-0.2,1.9c0.4,0.5,0.9,0.6,1.5,0.5c1.8-1.6,4.6-3,8.3-4.2
				c1.3-0.4,2.3-0.7,3.1-0.9c8.4-1.4,13.1-2.3,14-2.8c3.5-1,5.9-2,7.1-3c2.8-1.9,4.4-4,4.9-6.2C210,254.2,209.5,252,207.9,249.6"/>
		</g>
	</g>
	<g>
		<g>
			<path class="st0" d="M596.5,357.3c2.2-0.3,4-1.2,5.2-2.8c1.2-1.3,1.9-3.3,1.9-5.8c0-1.3-0.6-2.8-1.9-4.4
				c-1.2-1.3-2.6-1.9-4.2-1.8c-1.4,0.2-2.4,0.8-3,1.9c-0.7,1.3-0.9,2.7-0.7,4.3c0.1,0.9,0.5,2,1.3,3.1c0.5,0.5,1.1,0.6,1.7,0.4
				c0.5-0.3,0.8-0.7,0.8-1.3c0-0.2,0-0.4-0.1-0.6c-0.3-0.4-0.5-0.8-0.7-1.2c-0.1-0.1-0.1-0.4-0.2-0.7c-0.2-1-0.1-1.8,0.1-2.3
				c0.5-1.1,1.4-1.1,2.5-0.2c0.3,0.2,0.7,0.8,1.2,1.7c0.2,0.4,0.3,0.9,0.3,1.5c-0.1,1.7-0.6,3.1-1.6,3.9c-1.6,1.5-3.6,1.9-5.9,1.1
				c-1.6-0.7-2.7-2.1-3.3-4.2c-0.3-0.8-0.4-2.1-0.4-3.9c0-0.7,0.2-1.9,0.5-3.6l0.7-2.7c0.3-1,0.5-1.8,0.7-2.3l3.7-10.3
				c0.6-2.1,1-4.2,1.3-6.5c0.3-2.4,0.3-4.4-0.2-6c-0.2-0.8-0.7-1.2-1.6-1.1c-0.6,0.1-1,0.5-1.2,1.1c0.5,2.4,0.3,5.4-0.5,9.2
				c-0.3,1.3-0.5,2.4-0.8,3.1c-3,7.9-4.5,12.4-4.6,13.4c-0.9,3.5-1.2,6-0.9,7.5c0.3,3.4,1.3,5.8,3,7.3
				C591.3,356.8,593.6,357.5,596.5,357.3"/>
		</g>
	</g>
	<g>
		<g>
			<path class="st0" d="M345.4,693.9c1.6,1.4,3.4,2.2,5.5,2.3c0.8,0.1,1.7,0,2.9-0.4c0.6-0.2,1.3-0.5,2.1-1.2c1.2-0.9,1.8-2,2-3.2
				c0.1-1.3-0.2-2.4-0.9-3.2c-0.8-1-2-1.5-3.4-1.6c-0.9-0.1-1.8,0-2.7,0.1c-0.5,0.1-1.5,0.3-3,0.6c-0.2,0-0.3,0.1-0.4,0.2
				c-0.5,0.3-0.7,0.7-0.6,1.3c0.1,0.5,0.4,0.9,0.9,1.2c0.3,0.1,0.5,0.1,0.7,0.1c2.3-0.6,3.9-0.8,4.8-0.7c0.9,0,1.5,0.4,1.8,1
				c0.3,1-0.3,1.9-1.8,2.7c-1.1,0.5-2.4,0.5-3.9-0.1c-0.9-0.4-1.5-0.8-2-1.2c-0.8-1-1.3-1.9-1.5-2.6c-0.3-2,0-3.5,1.1-4.7
				c1.9-2.3,5.1-4.4,9.5-6.3c1.3-0.5,2.8-1,4.6-1.5c1-0.3,4.4-1.1,10.1-2.2c0.9-0.2,1.6-0.4,2.2-0.7c0.9-0.6,1.1-1.4,0.4-2.3
				c-0.4-0.3-0.8-0.5-1.3-0.4c-0.9,0.3-1.6,0.5-2.1,0.6c-5.2,1.1-8,1.7-8.6,1.9c-1.8,0.4-3.2,0.8-4.3,1.2c-4.2,1.4-7.6,3.2-10.3,5.4
				c-2.6,2.1-4.1,4.3-4.3,6.5C342.6,689.3,343.4,691.6,345.4,693.9"/>
		</g>
	</g>
	<g>
		<g>
			<path class="st0" d="M139.1,253.1c-2,0.7-3.6,1.8-4.8,3.6c-0.4,0.6-0.8,1.5-1.1,2.6c-0.2,0.6-0.2,1.4,0,2.3
				c0.2,1.5,0.8,2.6,1.8,3.3c1,0.8,2.1,1,3.3,0.8c1.2-0.2,2.3-0.9,3.1-2.1c0.5-0.8,0.9-1.6,1.3-2.4c0.2-0.5,0.5-1.4,0.9-2.9
				c0-0.2,0.1-0.3,0.1-0.5c0-0.5-0.3-0.9-0.8-1.2c-0.5-0.2-1-0.1-1.5,0.2c-0.2,0.2-0.3,0.4-0.4,0.5c-0.6,2.3-1.2,3.8-1.8,4.5
				c-0.5,0.8-1.1,1.1-1.7,1.1c-1-0.2-1.5-1.2-1.5-2.9c0.1-1.2,0.8-2.3,2-3.3c0.8-0.6,1.4-0.9,2.1-1.1c1.3-0.2,2.3-0.2,3,0
				c1.9,0.7,3.1,1.8,3.5,3.2c1.1,2.8,1.3,6.6,0.7,11.3c-0.2,1.4-0.5,2.9-1,4.7c-0.2,1-1.3,4.3-3.1,9.8c-0.3,0.9-0.4,1.6-0.6,2.3
				c0.1,1.1,0.7,1.6,1.8,1.5c0.5-0.1,0.8-0.4,1-0.9c0.2-0.9,0.4-1.6,0.5-2.1c1.6-5,2.5-7.8,2.7-8.3c0.5-1.8,0.9-3.2,1.1-4.2
				c0.8-4.3,1-8.1,0.4-11.6c-0.5-3.3-1.7-5.6-3.5-7C144.5,252.9,142,252.4,139.1,253.1"/>
		</g>
	</g>
	<g>
		<g>
			<path class="st0" d="M627.8,296.5c0.4-2,0.2-4-0.7-5.9c-0.3-0.7-0.9-1.4-1.8-2.3c-0.4-0.4-1.1-0.8-2-1.2
				c-1.4-0.5-2.7-0.6-3.8-0.1c-1.2,0.5-2,1.3-2.4,2.4c-0.4,1.2-0.3,2.4,0.3,3.8c0.4,0.8,0.9,1.6,1.4,2.3c0.3,0.4,1,1.2,2,2.2
				c0.1,0.1,0.2,0.2,0.4,0.3c0.5,0.2,1,0.2,1.5-0.1c0.4-0.3,0.6-0.8,0.6-1.4c-0.1-0.3-0.1-0.5-0.3-0.6c-1.7-1.7-2.7-2.9-3-3.8
				c-0.4-0.8-0.4-1.5-0.1-2c0.7-0.8,1.8-0.7,3.3,0.2c1,0.7,1.6,1.8,1.9,3.3c0.1,0.9,0.1,1.7-0.1,2.3c-0.5,1.2-1,2.1-1.5,2.6
				c-1.6,1.3-3.1,1.7-4.6,1.4c-3-0.5-6.4-2.1-10.3-5c-1.1-0.8-2.3-1.9-3.6-3.2c-0.8-0.7-3.1-3.2-7-7.5c-0.6-0.6-1.2-1.2-1.7-1.6
				c-1-0.5-1.7-0.2-2.2,0.8c-0.1,0.5,0,0.9,0.3,1.3c0.7,0.7,1.2,1.1,1.6,1.5c3.5,3.9,5.5,6,5.9,6.4c1.3,1.3,2.3,2.4,3.2,3.1
				c3.3,2.9,6.6,4.9,9.9,6.1c3.1,1.2,5.8,1.4,7.9,0.5C625.2,301.3,626.9,299.4,627.8,296.5"/>
		</g>
	</g>
	<g>
		<g>
			<path class="st0" d="M310.2,691.2c1.3,2.4,3.2,4.1,5.8,5.1c2.2,0.9,4.5,0.9,6.9,0.2c1.4-0.4,2.7-1.1,4-2.2
				c0.6-0.5,1.4-1.3,2.5-2.4l4-4.6l2.4-2.4c1.5-1.4,3.5-2.8,6-4.3c3.1-1.6,6-2.6,8.9-3.2c1.7-0.3,3-0.6,4-0.7l5.1-0.4
				c1.9-0.2,3-0.3,3.2-0.5c1.1-0.4,1.5-1,1.1-2.1c-0.3-0.5-0.7-0.8-1.3-0.8l-1.3,0.3c-1.2,0.2-3.3,0.3-6.1,0.5
				c-0.8,0.1-1.6,0.2-2.4,0.3c-4.5,0.8-8.1,1.8-10.9,3.1c-2.5,1.2-5,2.8-7.5,4.8c-0.9,0.8-1.9,1.7-3,2.9c-3.1,3.7-5.4,6.2-6.8,7.3
				c-1.3,1-2.7,1.6-4.2,1.8c-2.1,0.4-4.1-0.3-6.2-1.9c-0.8-0.8-1.5-1.6-1.8-2.4c-0.8-1.9-1.2-3.1-1.1-3.7c-0.1-0.8,0.6-1.6,2.1-2.3
				c2-0.6,3.7-0.6,5.1,0c1.1,0.5,1.2,1.1,0.5,1.9c-0.3,0.3-0.8,0.6-1.5,0.7c-0.4,0.2-1.1,0.2-2,0c-0.1,0-0.3,0-0.5,0.1
				c-0.6,0.3-0.9,0.7-0.9,1.3c0.1,0.7,0.4,1.1,1.1,1.3c1,0.3,2.1,0.2,3.4-0.2c3.3-1.3,4.3-3.3,3.2-5.9c-0.8-1.3-2-2-3.6-2.3
				c-1.9-0.4-3.8-0.3-5.7,0.3C308.4,682.9,307.6,686.3,310.2,691.2"/>
		</g>
	</g>
	<g>
		<g>
			<path class="st0" d="M159.1,224.2c-2.8-0.1-5.2,0.7-7.3,2.4c-1.9,1.4-3.1,3.4-3.6,5.8c-0.3,1.4-0.4,2.9-0.1,4.5
				c0.1,0.8,0.4,1.9,0.9,3.4l2,5.7l0.9,3.3c0.5,2,0.7,4.4,0.8,7.3c-0.2,3.4-0.7,6.5-1.7,9.2c-0.5,1.6-1,2.9-1.4,3.8l-2.2,4.6
				c-0.8,1.7-1.2,2.7-1.2,3c-0.2,1.1,0.2,1.8,1.2,2c0.6,0,1-0.2,1.3-0.7l0.4-1.3c0.5-1.1,1.3-3,2.6-5.5c0.3-0.7,0.6-1.4,0.9-2.2
				c1.6-4.2,2.5-7.8,2.7-10.9c0.2-2.7,0-5.6-0.5-8.8c-0.2-1.2-0.6-2.5-1-4.1c-1.7-4.6-2.7-7.7-3-9.5c-0.2-1.6,0-3.1,0.5-4.5
				c0.7-1.9,2.3-3.4,4.8-4.3c1.1-0.3,2.1-0.5,3-0.4c2,0.2,3.3,0.5,3.8,0.9c0.8,0.4,1.1,1.3,1,2.9c-0.5,2-1.3,3.4-2.5,4.4
				c-1,0.7-1.6,0.5-1.9-0.5c-0.2-0.4-0.1-1,0.1-1.6c0.1-0.5,0.4-1,1-1.7c0.1-0.1,0.1-0.3,0.1-0.5c0-0.6-0.2-1.1-0.7-1.4
				c-0.6-0.3-1.2-0.2-1.7,0.3c-0.7,0.7-1.2,1.7-1.5,3c-0.5,3.5,0.7,5.3,3.5,5.7c1.5,0,2.8-0.7,3.8-1.9c1.3-1.4,2.2-3.1,2.6-5.1
				C167.2,226.8,164.7,224.4,159.1,224.2"/>
		</g>
	</g>
	<g>
		<g>
			<path class="st0" d="M643.1,328.1c1.5-2.3,2-4.8,1.6-7.5c-0.3-2.3-1.4-4.3-3.3-6c-1.1-1-2.4-1.8-3.9-2.4
				c-0.8-0.3-1.9-0.6-3.4-0.9l-6-1.2l-3.3-0.9c-2-0.6-4.2-1.6-6.8-3c-2.9-1.9-5.3-3.9-7.2-6c-1.1-1.2-2-2.3-2.6-3.1l-2.9-4.2
				c-1.1-1.6-1.8-2.4-2-2.5c-0.9-0.8-1.7-0.8-2.4,0.1c-0.3,0.5-0.3,1,0,1.5l0.9,1c0.8,1,1.9,2.6,3.5,5c0.5,0.6,0.9,1.3,1.4,1.9
				c2.9,3.4,5.6,6,8.2,7.8c2.2,1.5,4.9,2.9,8,4c1.1,0.4,2.5,0.8,4.1,1.1c4.8,0.8,8.1,1.6,9.8,2.2c1.5,0.6,2.7,1.5,3.7,2.7
				c1.3,1.6,1.8,3.7,1.4,6.2c-0.3,1.1-0.7,2-1.2,2.8c-1.2,1.6-2.1,2.6-2.7,2.8c-0.7,0.5-1.7,0.3-3.1-0.6c-1.5-1.4-2.4-2.8-2.6-4.4
				c-0.1-1.2,0.4-1.6,1.4-1.4c0.5,0.1,0.9,0.4,1.4,0.9c0.4,0.3,0.7,0.9,1,1.7c0.1,0.1,0.2,0.2,0.3,0.3c0.5,0.4,1.1,0.4,1.6,0.1
				c0.6-0.4,0.8-0.9,0.6-1.6c-0.3-0.9-0.9-1.9-1.8-2.8c-2.8-2.1-5-2.1-6.7,0.2c-0.7,1.3-0.8,2.7-0.3,4.2c0.6,1.8,1.6,3.4,3.2,4.8
				C636.8,333.8,640.1,332.8,643.1,328.1"/>
		</g>
	</g>
	<g>
		<g>
			<path class="st0" d="M337.9,706.5c1.1-2.3,1.8-4.2,2.1-5.7c0.4-1.6,0.6-3.4,0.6-5.4c-0.1-2.1-0.4-3.8-0.9-4.9
				c-0.6-1.8-1.4-3.3-2.4-4.5c-0.7-0.8-1.4-1.5-2.1-2.1l-4.7,3.7l-0.6,4.4c-0.1,0.7-0.1,1.4-0.1,2.1c0.1,2,0.6,3.8,1.6,5.2
				c0.4,0.6,1,1.3,1.8,2c0.2,0.2,1.2,1,3,2.2c0.4,0.3,0.7,0.5,0.9,0.8c0.3,0.3,0.5,0.6,0.6,0.9C337.8,705.4,337.8,705.8,337.9,706.5
				"/>
		</g>
	</g>
	<g>
		<g>
			<path class="st0" d="M131.8,240.3c1.5,2.1,2.8,3.6,4,4.7c1.2,1.1,2.7,2.2,4.4,3.2c1.9,1,3.5,1.6,4.8,1.7c1.9,0.4,3.6,0.4,5.1,0.2
				c1-0.2,2-0.5,2.9-0.8l-0.9-5.9l-3.5-2.7c-0.6-0.4-1.2-0.8-1.8-1.1c-1.8-0.9-3.6-1.4-5.4-1.3c-0.7,0.1-1.6,0.2-2.6,0.5
				c-0.3,0.1-1.5,0.6-3.4,1.5c-0.4,0.2-0.8,0.3-1.1,0.4c-0.4,0.1-0.8,0.1-1.1,0.1C132.8,240.7,132.4,240.6,131.8,240.3"/>
		</g>
	</g>
	<g>
		<g>
			<path class="st0" d="M642.7,296.7c-2.6,0.2-4.6,0.6-6.1,1.1c-1.6,0.5-3.3,1.2-5,2.2c-1.8,1.2-3.1,2.2-3.9,3.2
				c-1.2,1.4-2.1,2.8-2.7,4.3c-0.3,1-0.6,1.9-0.7,2.9l5.6,2.2l4.1-1.7c0.7-0.3,1.3-0.6,1.9-1c1.7-1.1,3-2.4,3.8-4
				c0.3-0.7,0.6-1.5,0.8-2.5c0.1-0.3,0.2-1.5,0.4-3.7c0.1-0.5,0.1-0.9,0.2-1.1c0.1-0.4,0.3-0.7,0.5-1
				C641.8,297.3,642.1,297.1,642.7,296.7"/>
		</g>
	</g>
	<g>
		<g>
			<path class="st0" d="M314.7,714.3c1.7-0.1,3.8-1,6.3-2.5c2.3-1.6,4.2-3.6,5.6-6c1.4-2.1,2.5-4.5,3.3-7.2c0.3-1.3,0.5-2.6,0.6-3.9
				c0.1-0.7,0-2-0.2-4.2l-11.4,5.9c0,0.2-0.3,0.6-0.9,1.4c0,0-0.6,0.8-2,2.2c-0.6,0.7-0.9,1.1-0.9,1.2c-1,1.5-1.6,2.9-1.6,4.4
				c0,0.6,0.1,1.5,0.4,2.6c0.1,0.3,0.5,1.3,1.2,2.8c0.2,0.5,0.3,0.9,0.3,1.2c0.1,0.4,0,0.8-0.2,1.2
				C315.4,713.4,315.2,713.7,314.7,714.3"/>
		</g>
	</g>
	<g>
		<g>
			<path class="st0" d="M136.6,216.5c-0.7,1.5-1.1,3.8-1,6.7c0.3,2.8,1.1,5.4,2.4,7.8c1.1,2.2,2.6,4.4,4.6,6.5c1,0.9,2,1.7,3.1,2.5
				c0.5,0.4,1.8,1,3.8,1.9l0.6-12.7c-0.1-0.1-0.4-0.6-0.7-1.5c0,0-0.3-0.9-0.9-2.8c-0.3-0.8-0.5-1.3-0.6-1.4
				c-0.8-1.6-1.8-2.8-3.1-3.5c-0.5-0.3-1.3-0.6-2.5-0.9c-0.3-0.1-1.3-0.2-3.1-0.4c-0.5-0.1-0.9-0.2-1.2-0.3c-0.3-0.1-0.7-0.4-1-0.8
				C137,217.5,136.8,217.2,136.6,216.5"/>
		</g>
	</g>
	<g>
		<g>
			<path class="st0" d="M661.1,312.7c-1-1.4-2.7-2.8-5.4-4.2c-2.6-1.2-5.3-1.8-8-1.9c-2.5-0.2-5.2,0.1-8,0.7
				c-1.2,0.4-2.5,0.8-3.7,1.4c-0.6,0.3-1.8,1-3.6,2.3l10.8,6.8c0.2-0.1,0.7,0,1.7,0.1c0,0,1,0.2,2.9,0.6c0.9,0.1,1.4,0.2,1.5,0.2
				c1.8,0.2,3.3-0.1,4.6-0.9c0.5-0.3,1.2-0.8,2-1.6c0.2-0.2,0.9-1,1.9-2.4c0.3-0.4,0.6-0.7,0.9-0.9c0.3-0.2,0.7-0.4,1.2-0.5
				C660,312.5,660.4,312.6,661.1,312.7"/>
		</g>
	</g>
	<g>
		<g>
			<path class="st0" d="M293.2,697.4c1.2,1.6,2.9,2.8,5.2,3.8c1.8,0.8,4.2,1.3,7.3,1.3c1.5-0.1,3-0.2,4.4-0.6c0.8-0.2,2-0.6,3.6-1.2
				c1.3-0.5,2.4-1.1,3.3-1.7c1.7-1.2,2.6-1.9,2.6-2.1l-8.9-7.9c0,0-0.8-0.2-2.1-0.6c-0.7-0.1-1.4-0.2-2-0.2c-2.2,0.2-4,0.8-5.4,1.7
				c-0.7,0.5-1.5,1.2-2.2,2.2c-0.6,0.7-1.3,2.1-2.3,4.1c-0.2,0.4-0.4,0.6-0.7,0.8c-0.3,0.3-0.7,0.5-1.1,0.6c-0.1,0-0.3,0-0.4,0
				l-1.2-0.3C293.3,697.3,293.2,697.3,293.2,697.4"/>
		</g>
	</g>
	<g>
		<g>
			<path class="st0" d="M162.1,206.5c-2,0.2-3.9,1.1-5.9,2.5c-1.6,1.1-3.2,3-4.8,5.6c-0.7,1.3-1.3,2.7-1.7,4c-0.2,0.7-0.5,2-0.8,3.7
				c-0.2,1.3-0.3,2.6-0.2,3.7c0.2,2.1,0.3,3.1,0.6,3.3l11.3-3.7c0-0.1,0.5-0.6,1.6-1.5c0.5-0.5,0.9-1.1,1.2-1.6
				c0.9-2,1.3-3.9,1.2-5.5c0-0.9-0.3-1.8-0.8-3c-0.3-0.8-1.1-2.2-2.4-4c-0.2-0.4-0.3-0.7-0.4-1c-0.1-0.4-0.1-0.8,0.1-1.2
				c0-0.1,0.1-0.2,0.2-0.4l0.8-0.9C162.2,206.6,162.2,206.6,162.1,206.5"/>
		</g>
	</g>
	<g>
		<g>
			<path class="st0" d="M657,339.6c0.8-1.8,1-3.9,0.7-6.3c-0.2-2-1-4.3-2.5-6.9c-0.8-1.3-1.7-2.4-2.7-3.5c-0.5-0.6-1.5-1.4-2.9-2.5
				c-1.1-0.8-2.1-1.5-3.1-2c-1.9-0.9-2.9-1.3-3.1-1.2l-2.4,11.5c0.1,0,0.2,0.7,0.6,2.1c0.2,0.7,0.5,1.3,0.8,1.8
				c1.3,1.8,2.7,3.1,4.2,3.8c0.8,0.4,1.8,0.7,3,0.8c0.9,0.1,2.5,0.1,4.7-0.1c0.4,0,0.8,0.1,1.1,0.1c0.4,0.1,0.7,0.3,1.1,0.7
				c0.1,0.1,0.1,0.2,0.2,0.4l0.3,1.1C656.9,339.5,657,339.6,657,339.6"/>
		</g>
	</g>
	<g>
		<g>
			<path class="st0" d="M294.4,623.7c-0.2,1.1-0.2,2.5,0,4.3c0.2,1.2,0.6,2.5,1.2,3.8c0.6,1.1,1.4,2.3,2.5,3.4c0.8,0.8,1.8,1.5,3,2
				c1.1,0.5,2.5,0.7,4.3,0.9c0.8,0,1.3,0,1.6,0c1.4-0.2,2.2-0.3,2.4-0.4l3.1-4.5c0-0.3,0-0.8-0.2-1.5c-0.5-1.5-1.3-2.7-2.3-3.6
				c-1-0.9-2.3-1.8-4-2.6c-1.3-0.6-2.8-1-4.7-1.2c-0.8-0.1-1.6-0.1-2.3-0.1c-0.3,0-1.2,0.1-2.9,0.3c-0.3,0-0.5,0-0.6,0
				C294.8,624.3,294.4,624.1,294.4,623.7"/>
		</g>
	</g>
	<g>
		<g>
			<path class="st0" d="M226,244.4c-0.8-0.8-2.1-1.5-3.8-2.2c-1.1-0.4-2.4-0.7-3.9-0.9c-1.3-0.1-2.7,0.1-4.3,0.4
				c-1.1,0.3-2.2,0.8-3.3,1.5c-0.9,0.7-1.9,1.8-2.9,3.3c-0.4,0.6-0.7,1.1-0.8,1.4c-0.5,1.3-0.8,2-0.8,2.2l2.4,4.9
				c0.3,0.2,0.7,0.4,1.4,0.6c1.6,0.3,3,0.2,4.3-0.2c1.3-0.4,2.7-1.1,4.3-2.2c1.2-0.8,2.3-1.9,3.4-3.4c0.5-0.7,0.9-1.3,1.3-2
				c0.1-0.2,0.5-1.1,1.2-2.6c0.1-0.2,0.2-0.4,0.3-0.5C225.2,244.4,225.6,244.2,226,244.4"/>
		</g>
	</g>
	<g>
		<g>
			<path class="st0" d="M592,375.4c1.1-0.3,2.3-1.1,3.8-2.2c1-0.8,1.9-1.7,2.7-2.9c0.7-1.1,1.3-2.4,1.8-3.9c0.3-1.1,0.4-2.3,0.3-3.5
				c-0.1-1.1-0.6-2.5-1.4-4.1c-0.4-0.7-0.6-1.1-0.8-1.4c-0.9-1.1-1.4-1.7-1.6-1.8l-5.5-0.4c-0.3,0.1-0.7,0.4-1.2,0.9
				c-1.1,1.2-1.7,2.5-2,3.8c-0.3,1.3-0.4,2.9-0.2,4.7c0.1,1.4,0.5,3,1.3,4.6c0.3,0.8,0.7,1.5,1.1,2.1c0.1,0.2,0.7,1,1.7,2.3
				c0.2,0.2,0.3,0.4,0.3,0.5C592.4,374.7,592.3,375.1,592,375.4"/>
		</g>
	</g>
	<g>
		<g>
			<path class="st0" d="M321.8,611.1c-2.2,0.8-4.1,1.9-5.6,3.5c-1.7,1.6-3.2,3.7-4.4,6.3c-0.5,1.2-0.9,2.4-1.1,3.6
				c-0.2,1-0.2,2.1-0.2,3.3c0,1.1,0.2,2.1,0.4,3.1c0.2,0.7,0.4,1.3,0.6,1.8c0.1,0.3,0.3,0.6,0.5,0.8l6.6-0.1c2-1.1,3.3-2,3.9-2.8
				c0.8-0.7,1.4-1.7,2-3c0.4-1,0.7-2.2,0.8-3.5c0.1-1.2,0.1-2.3-0.1-3.2c-0.3-1.3-0.6-2.5-1.2-3.5c-0.2-0.4-0.5-0.9-0.7-1.3
				c-1.2-1.7-1.9-2.8-2-3.1c-0.1-0.2-0.1-0.6-0.1-1.1C321.5,611.7,321.7,611.4,321.8,611.1C321.9,611.2,321.9,611.1,321.8,611.1"/>
		</g>
	</g>
	<g>
		<g>
			<path class="st0" d="M223.3,274.2c0.4-2.3,0.4-4.5-0.2-6.6c-0.5-2.3-1.6-4.5-3.3-6.9c-0.8-1-1.7-1.9-2.6-2.7
				c-0.8-0.6-1.7-1.2-2.8-1.8c-0.9-0.5-1.9-0.9-2.9-1.2c-0.7-0.2-1.3-0.3-1.9-0.4c-0.4,0-0.7,0-1,0.1l-3.2,5.7
				c0,2.2,0.1,3.8,0.5,4.8c0.2,1,0.7,2.1,1.6,3.2c0.7,0.9,1.6,1.7,2.6,2.4c1,0.7,1.9,1.2,2.8,1.5c1.3,0.4,2.5,0.7,3.6,0.8
				c0.5,0,1,0.1,1.5,0c2.1-0.2,3.4-0.3,3.8-0.2c0.3,0,0.6,0.2,1,0.5C222.9,273.7,223.1,273.9,223.3,274.2
				C223.2,274.2,223.2,274.2,223.3,274.2"/>
		</g>
	</g>
	<g>
		<g>
			<path class="st0" d="M567.3,358.1c1.8,1.5,3.8,2.6,5.8,3.1c2.2,0.7,4.8,0.9,7.7,0.6c1.3-0.2,2.5-0.5,3.7-0.9
				c0.9-0.3,1.9-0.8,2.9-1.5c0.9-0.6,1.7-1.2,2.5-1.9c0.5-0.5,0.9-1,1.3-1.4c0.2-0.3,0.3-0.6,0.4-0.9l-3.3-5.6c-2-1.1-3.4-1.8-4.4-2
				c-1-0.3-2.2-0.4-3.6-0.2c-1.1,0.2-2.3,0.5-3.5,1c-1.1,0.5-2,1.1-2.8,1.7c-1,0.9-1.8,1.8-2.5,2.7c-0.3,0.4-0.6,0.8-0.8,1.3
				c-0.9,1.9-1.5,3-1.7,3.3c-0.2,0.2-0.5,0.4-0.9,0.6C567.9,358.1,567.6,358.1,567.3,358.1C567.3,358.1,567.3,358.1,567.3,358.1"/>
		</g>
	</g>
	<g>
		<g>
			<path class="st0" d="M342.8,625.1c-0.5-0.5-1.3-0.9-2.4-1.2c-1-0.3-2-0.5-3-0.5c-2.2-0.1-4.5,0.2-6.7,0.9c-1.6,0.5-3.5,1.5-5.6,3
				c-1.2,1-2.9,2.6-4.8,4.9c-0.1,0.1-0.4,0.4-1,0.9l6.7,5.3l0.3,0.2c1.5,0.3,2.6,0.5,3.1,0.5c0.7,0,1.4-0.1,2-0.3
				c1.4-0.5,2.9-1.2,4.3-2.2c1-0.6,1.9-1.4,2.9-2.4c0.6-0.7,1.1-1.6,1.6-2.6c0.3-0.6,0.5-1.2,0.7-1.7l1-3.6
				C342,625.8,342.3,625.4,342.8,625.1"/>
		</g>
	</g>
	<g>
		<g>
			<path class="st0" d="M200.6,285.2c0.7-0.2,1.4-0.7,2.3-1.5c0.8-0.7,1.4-1.5,1.9-2.3c1.2-1.8,2.1-3.9,2.5-6.2
				c0.4-1.6,0.4-3.7,0.2-6.3c-0.2-1.6-0.8-3.7-1.9-6.6c-0.1-0.1-0.1-0.6-0.2-1.3l-8,3l-0.3,0.1c-1.1,1.2-1.7,2-2,2.4
				c-0.3,0.6-0.6,1.2-0.7,1.9c-0.3,1.5-0.4,3.1-0.3,4.8c0,1.1,0.3,2.4,0.7,3.7c0.3,0.9,0.8,1.8,1.5,2.7c0.4,0.6,0.8,1,1.1,1.4
				l2.6,2.7C200.3,284.2,200.5,284.6,200.6,285.2"/>
		</g>
	</g>
	<g>
		<g>
			<path class="st0" d="M569,333.2c-0.2,0.7-0.1,1.6,0.2,2.7c0.3,1,0.6,1.9,1,2.8c1,2,2.4,3.7,4.2,5.3c1.2,1.1,3,2.2,5.4,3.3
				c1.5,0.6,3.7,1.2,6.7,1.7c0.2,0,0.6,0.2,1.3,0.5l1.3-8.4l0-0.3c-0.5-1.5-0.9-2.5-1.1-2.9c-0.3-0.6-0.8-1.1-1.3-1.6
				c-1.2-1-2.5-1.8-4.1-2.6c-1-0.5-2.2-1-3.6-1.3c-0.9-0.2-1.9-0.2-3.1-0.1c-0.7,0.1-1.3,0.1-1.8,0.3l-3.7,0.9
				C570,333.5,569.5,333.4,569,333.2"/>
		</g>
	</g>
	<g>
		<g>
			<path class="st0" d="M357.9,617.2c-1.1,1.8-1.9,4.1-2.3,6.9c-0.5,2-0.6,4.5-0.4,7.3c0.4,5,1.9,9.7,4.6,13.9
				c3,4.5,6.8,7.9,11.3,10.4c1.1,0.6,3.1,1.5,6.1,2.6l8.7-0.1l-0.1,0.7c0,0,0,0.1,0.1,0.1c0.5-0.4,0.9-2.2,1.1-5.4
				c0.1-3.3,0-6.3-0.4-9c-0.6-4-2.3-8-4.8-12.1c-1.7-2.6-3.7-4.7-6.1-6.3c-1.6-1.1-3.6-2.1-5.9-2.9c-1.2-0.5-3.8-1.2-7.9-1.9
				c-0.7-0.2-1.2-0.4-1.7-0.6c-0.5-0.3-0.9-0.7-1.2-1.3c-0.2-0.4-0.4-1.1-0.6-2.1C358.1,617.2,358,617.2,357.9,617.2"/>
		</g>
	</g>
	<g>
		<g>
			<path class="st0" d="M199.9,302.1c-1-1.8-2.6-3.6-4.9-5.4c-1.6-1.4-3.6-2.7-6.2-4c-4.6-2.2-9.4-3.2-14.5-3
				c-5.4,0.4-10.3,1.9-14.7,4.5c-1,0.6-2.8,1.9-5.3,3.9l-4.3,7.5l-0.5-0.5c0,0-0.1,0-0.1,0c0.1,0.6,1.5,1.8,4.2,3.6
				c2.8,1.8,5.5,3.2,8,4.2c3.8,1.4,8.2,2.1,13,1.9c3.2-0.1,6-0.8,8.6-2.1c1.8-0.8,3.6-2,5.5-3.6c1-0.7,2.9-2.7,5.6-5.8
				c0.5-0.5,1-0.9,1.4-1.2c0.5-0.3,1.1-0.4,1.8-0.4c0.5,0,1.2,0.2,2.2,0.6C199.8,302.2,199.9,302.2,199.9,302.1"/>
		</g>
	</g>
	<g>
		<g>
			<path class="st0" d="M554.5,324.2c2.1,0,4.5-0.4,7.2-1.5c2-0.6,4.2-1.7,6.6-3.3c4.2-2.8,7.5-6.5,9.9-10.9
				c2.4-4.8,3.5-9.8,3.4-14.9c0-1.2-0.3-3.4-0.8-6.5l-4.4-7.4l0.7-0.2c0.1,0,0.1,0,0.1-0.1c-0.6-0.2-2.4,0.4-5.2,1.8
				c-3,1.6-5.5,3.2-7.7,4.8c-3.2,2.6-5.9,6-8.2,10.2c-1.5,2.8-2.3,5.6-2.5,8.4c-0.1,1.9,0,4.1,0.4,6.5c0.1,1.2,0.9,3.8,2.3,7.7
				c0.2,0.7,0.3,1.3,0.3,1.8c0,0.6-0.2,1.1-0.5,1.7c-0.2,0.4-0.7,0.9-1.6,1.6C554.5,324,554.5,324.1,554.5,324.2"/>
		</g>
	</g>
	<g>
		<g>
			<path class="st0" d="M258.5,690.2c1,1,3.1,1.9,6.4,2.7c1.9,0.5,4.4,0.7,7.4,0.8c5.7-0.2,10.7-1.2,15.1-3.1c2.9-1.3,6.2-3,9.7-5.2
				c4-2.6,7.4-5.1,10.2-7.6c3.7-3.3,5.9-7.1,6.5-11.4c0-0.1-0.1-0.2-0.1-0.2l-11.2-4.8c-0.1-0.2-0.2-0.3-0.4-0.4
				c-0.6-0.2-1.4-0.3-2.4-0.4c-6.6-0.5-12.8,0.3-18.4,2.5c-4.5,2.1-7.9,4.6-10.1,7.4c-0.8,0.9-1.9,2.6-3.3,5.3
				c-0.5,1.1-1.5,3.7-2.9,7.7c-0.7,1.6-1.1,2.5-1.4,2.9c-0.5,0.8-1.2,1.5-2,2.2c-0.3,0.2-0.8,0.5-1.5,0.9c-0.2,0.1-0.6,0.3-1.3,0.4
				C258.6,690.1,258.5,690.1,258.5,690.2"/>
		</g>
	</g>
	<g>
		<g>
			<path class="st0" d="M185.7,180.4c-1.4,0.4-3.2,1.8-5.5,4.2c-1.4,1.4-2.8,3.4-4.4,5.9c-2.7,5-4.3,9.8-4.8,14.5
				c-0.3,3.2-0.5,6.8-0.3,10.9c0.3,4.7,0.8,8.9,1.6,12.6c1,4.9,3.3,8.6,6.7,11.2c0.1,0,0.2,0,0.2,0l9.8-7.2c0.2,0,0.4-0.1,0.5-0.2
				c0.4-0.4,1-1,1.5-1.8c3.8-5.5,6.1-11.1,7-17c0.4-4.9-0.1-9-1.4-12.4c-0.3-1.1-1.3-2.9-3-5.5c-0.7-1-2.5-3.1-5.3-6.4
				c-1-1.4-1.7-2.2-1.8-2.7c-0.5-0.8-0.8-1.8-0.9-2.8c-0.1-0.4-0.1-0.9,0-1.7c0-0.2,0.1-0.7,0.3-1.4
				C185.8,180.5,185.8,180.4,185.7,180.4"/>
		</g>
	</g>
	<g>
		<g>
			<path class="st0" d="M668.1,372.8c0.4-1.4,0.1-3.6-0.9-6.8c-0.5-1.9-1.5-4.1-3-6.8c-3-4.8-6.4-8.6-10.2-11.4
				c-2.6-1.9-5.7-3.8-9.4-5.7c-4.2-2.1-8.1-3.8-11.8-4.9c-4.8-1.5-9.2-1.5-13.2,0.1c-0.1,0.1-0.1,0.1-0.1,0.2l1.4,12
				c-0.1,0.2-0.1,0.4-0.1,0.5c0.1,0.6,0.4,1.3,0.8,2.2c2.9,5.9,6.7,10.8,11.4,14.5c4.1,2.8,8,4.4,11.6,5c1.2,0.3,3.2,0.3,6.3,0.2
				c1.3-0.1,4-0.5,8.2-1.3c1.7-0.2,2.8-0.3,3.2-0.2c1,0,1.9,0.2,2.9,0.7c0.3,0.1,0.8,0.4,1.5,0.8c0.2,0.1,0.6,0.4,1,0.9
				C667.9,372.9,668,372.9,668.1,372.8"/>
		</g>
	</g>
	<g>
		<g>
			<path class="st0" d="M240.8,664.4c0.2,0.7,0.7,1.1,1.5,1.1c3.4-1,6.9-1.8,10.6-2.3c2.6-0.4,5-0.6,7.5-0.9
				c3.6-0.3,6.1-0.4,7.5-0.4c3.7,0,6.5,0,8.3,0.2c1.2,0.1,2.3,0.2,3.5,0.3l7,0.9c0.9,0.1,1.9,0.2,2.9,0.3c1,0.1,2.3,0.2,3.9,0.2
				c1-0.2,1.4-0.8,1.3-1.7c-0.2-0.6-0.5-0.9-1.1-1c0,0-0.2,0-0.5,0l-1.9,0c-0.5,0-1.1-0.1-1.8-0.2c-0.8-0.1-1.6-0.2-2.3-0.2
				c-5.2-0.7-8.1-1-8.6-1c-2.1-0.2-4-0.3-5.6-0.3c-3.2-0.1-5.7-0.1-7.6,0c-6.6,0.3-12.7,1.1-18.4,2.2c-2.3,0.5-4.1,1-5.6,1.5
				C240.9,663.1,240.6,663.6,240.8,664.4"/>
		</g>
	</g>
	<g>
		<g>
			<path class="st0" d="M217.2,178.1c-0.7-0.2-1.3,0.1-1.7,0.8c-0.8,3.4-1.9,6.8-3.3,10.3c-1,2.4-2,4.6-3,6.8
				c-1.5,3.3-2.7,5.5-3.4,6.6c-1.8,3.2-3.3,5.5-4.3,7c-0.7,1-1.3,1.9-2,2.8l-4.3,5.6c-0.6,0.7-1.1,1.5-1.7,2.3
				c-0.6,0.8-1.3,1.9-2.1,3.3c-0.3,0.9,0,1.6,0.9,2c0.6,0.1,1.1,0,1.5-0.5c0,0,0.1-0.2,0.3-0.4l1-1.6c0.3-0.4,0.6-0.9,1.1-1.5
				c0.5-0.7,0.9-1.3,1.4-1.8c3.2-4.2,4.9-6.4,5.2-6.8c1.2-1.7,2.3-3.2,3.1-4.6c1.6-2.7,2.9-4.8,3.8-6.5c3-5.8,5.4-11.4,7.3-16.8
				c0.7-2.2,1.2-4,1.5-5.6C218.2,178.8,217.9,178.3,217.2,178.1"/>
		</g>
	</g>
	<g>
		<g>
			<path class="st0" d="M654.4,401c0.5-0.6,0.6-1.2,0.2-1.8c-2.6-2.4-5-5-7.3-8c-1.6-2-3.1-4-4.5-6c-2.1-3-3.4-5-4.1-6.2
				c-1.9-3.2-3.2-5.6-4-7.2c-0.5-1-1-2.1-1.5-3.2l-2.8-6.5c-0.4-0.8-0.7-1.7-1.2-2.6c-0.4-0.9-1-2-1.8-3.4c-0.7-0.7-1.4-0.8-2.2-0.2
				c-0.4,0.4-0.5,0.9-0.3,1.5c0,0,0.1,0.2,0.2,0.4l0.9,1.6c0.2,0.4,0.5,1,0.8,1.7c0.3,0.8,0.7,1.5,0.9,2.1c2,4.8,3.2,7.4,3.4,7.9
				c0.9,1.9,1.7,3.6,2.5,4.9c1.5,2.7,2.8,4.9,3.8,6.5c3.6,5.5,7.3,10.3,11.1,14.7c1.5,1.7,2.9,3.1,4.1,4.1
				C653.2,401.5,653.8,401.5,654.4,401"/>
		</g>
	</g>
	<g>
		<g>
			<path class="st0" d="M229.2,651.1c0.1,0.8,0.5,1.2,1.2,1.4c0.2,0,0.5,0,0.7-0.1c1.1-0.6,1.9-1,2.4-1.1c0.8-0.2,1.8-0.2,2.8-0.1
				c0.8,0,1.6,0.1,2.5,0.3c3,0.5,6,1.1,9.1,1.8c2.4,0.5,5.6,1.2,9.8,2.2l9.3,2l4.4,1c1.8,0.4,5.8,1.5,11.9,3.5
				c3.5,1,5.8,1.6,6.9,1.7c1,0,1.5-0.4,1.6-1.4c0-0.6-0.3-1.1-0.9-1.3c-1.2-0.2-3.5-0.8-7-1.8c-5.1-1.6-8.4-2.6-9.9-2.9l-5.8-1.4
				c-8.7-1.9-14.2-3.1-16.4-3.6c-5.8-1.2-10-2.1-12.5-2.5c-2.7-0.4-4.9-0.5-6.6-0.1c-0.9,0.2-1.9,0.7-3,1.3
				C229.4,650.2,229.2,650.6,229.2,651.1"/>
		</g>
	</g>
	<g>
		<g>
			<path class="st0" d="M234.6,174.8c-0.7-0.3-1.3-0.2-1.8,0.3c-0.1,0.2-0.2,0.4-0.3,0.6c0,1.2-0.1,2.1-0.2,2.6
				c-0.3,0.8-0.7,1.6-1.3,2.5c-0.4,0.7-0.9,1.4-1.5,2c-2,2.3-4,4.6-6.1,6.9c-1.6,1.8-3.9,4.2-6.8,7.3l-6.4,7l-3.1,3.2
				c-1.3,1.4-4.3,4.2-9,8.5c-2.6,2.5-4.3,4.2-4.9,5c-0.5,0.8-0.4,1.5,0.4,2.1c0.6,0.3,1.1,0.3,1.6-0.1c0.8-0.9,2.5-2.6,5.1-5.1
				c4-3.6,6.5-5.9,7.5-7l4.2-4.3c6-6.6,9.8-10.6,11.4-12.2c4-4.4,6.8-7.5,8.4-9.4c1.7-2.1,2.9-4,3.4-5.6c0.2-0.9,0.3-1.9,0.3-3.2
				C235.3,175.4,235,175.1,234.6,174.8"/>
		</g>
	</g>
	<g>
		<g>
			<path class="st0" d="M648.5,417.6c0.6-0.4,0.9-1,0.6-1.7c-0.1-0.2-0.2-0.4-0.4-0.6c-1.1-0.6-1.8-1.1-2.1-1.5
				c-0.5-0.6-1.1-1.4-1.5-2.3c-0.4-0.7-0.7-1.5-1-2.3c-1-2.8-2-5.7-3-8.7c-0.8-2.3-1.8-5.4-3-9.5l-2.9-9l-1.3-4.3
				c-0.6-1.8-1.6-5.8-3-12c-0.9-3.5-1.5-5.8-1.9-6.8c-0.5-0.8-1.1-1.1-2-0.7c-0.6,0.3-0.8,0.8-0.7,1.5c0.4,1.2,1.1,3.4,1.9,6.9
				c1.2,5.2,2,8.5,2.4,10l1.7,5.7c2.7,8.4,4.4,13.7,5,15.8c1.8,5.6,3.2,9.6,4,12c1,2.5,2,4.4,3.2,5.7c0.6,0.6,1.5,1.2,2.7,1.9
				C647.7,417.8,648.1,417.8,648.5,417.6"/>
		</g>
	</g>
	<g>
		<g>
			<path class="st0" d="M218.2,653.1c0.1,1.9,0.8,3.5,2.1,4.8c1.4,1.3,3,1.9,4.9,1.9c1.9-0.1,3.5-0.7,4.8-2.1
				c1.3-1.3,1.9-2.9,1.9-4.8c0-1.9-0.8-3.5-2.1-4.8c-1.4-1.3-3-1.9-4.9-1.9c-1.9,0.1-3.5,0.7-4.8,2.1
				C218.9,649.6,218.2,651.2,218.2,653.1 M221.1,653.1c0-1.1,0.4-2,1.1-2.8c0.8-0.8,1.7-1.2,2.8-1.2c1.1,0,2.1,0.4,2.9,1.1
				c0.8,0.8,1.2,1.7,1.3,2.8c0,1.1-0.4,2-1.1,2.8c-0.8,0.8-1.7,1.2-2.8,1.2c-1.1,0-2.1-0.4-2.9-1.1
				C221.5,655.1,221.1,654.2,221.1,653.1"/>
		</g>
	</g>
	<g>
		<g>
			<path class="st0" d="M238.3,164.4c-1.7-0.9-3.4-1.1-5.2-0.6c-1.8,0.5-3.2,1.6-4.1,3.2c-0.9,1.6-1.1,3.4-0.6,5.2
				c0.5,1.8,1.6,3.1,3.3,4.1c1.7,0.9,3.4,1.1,5.2,0.6c1.8-0.5,3.2-1.6,4.1-3.2c0.9-1.6,1.1-3.4,0.6-5.2
				C241.1,166.7,240,165.3,238.3,164.4 M236.9,166.8c1,0.5,1.6,1.3,1.9,2.4c0.3,1.1,0.2,2.1-0.3,3c-0.5,0.9-1.3,1.6-2.4,1.9
				c-1.1,0.3-2.1,0.2-3.1-0.3c-1-0.5-1.6-1.3-1.9-2.4c-0.3-1.1-0.2-2.1,0.3-3c0.6-1,1.4-1.6,2.4-1.9
				C235,166.2,236,166.3,236.9,166.8"/>
		</g>
	</g>
	<g>
		<g>
			<path class="st0" d="M655.8,426c1.6-1,2.7-2.4,3.1-4.2c0.4-1.8,0.2-3.5-0.8-5.1c-1-1.6-2.4-2.6-4.2-3.1c-1.8-0.4-3.5-0.2-5.2,0.8
				c-1.6,1-2.7,2.4-3.1,4.2c-0.4,1.8-0.2,3.5,0.8,5.1c1,1.6,2.4,2.6,4.2,3.1C652.4,427.2,654.1,426.9,655.8,426 M654.3,423.6
				c-1,0.5-2,0.7-3.1,0.5c-1.1-0.3-1.9-0.9-2.5-1.8c-0.6-0.9-0.7-1.9-0.5-3c0.3-1.1,0.9-1.9,1.8-2.5c1-0.6,2-0.7,3.1-0.5
				c1.1,0.3,1.9,0.9,2.5,1.8c0.6,1,0.7,2,0.5,3C655.9,422.2,655.3,423,654.3,423.6"/>
		</g>
	</g>
	<g>
		<g>
			<path class="st0" d="M228.8,666.1c0,1.9,0.7,3.6,2.1,5c1.4,1.4,3.1,2,5,2.1c2,0,3.6-0.7,5-2c1.4-1.4,2-3,2.1-5
				c0-1.9-0.7-3.6-2.1-5c-1.4-1.4-3.1-2-5-2.1c-2,0-3.6,0.7-5,2.1C229.5,662.5,228.8,664.1,228.8,666.1 M231.6,666.1
				c0-1.2,0.4-2.2,1.3-3c0.8-0.8,1.8-1.2,3-1.2c1.2,0,2.2,0.4,3,1.2c0.8,0.8,1.2,1.8,1.3,3c0,1.2-0.4,2.2-1.2,3
				c-0.9,0.8-1.9,1.2-3,1.3c-1.2,0-2.2-0.4-3-1.2C232,668.3,231.6,667.3,231.6,666.1"/>
		</g>
	</g>
	<g>
		<g>
			<path class="st0" d="M221.7,166.9c-1.7-0.9-3.5-1.2-5.4-0.7c-1.9,0.5-3.3,1.6-4.3,3.3c-1,1.7-1.2,3.5-0.7,5.3
				c0.5,1.8,1.6,3.3,3.3,4.3c1.7,0.9,3.5,1.2,5.4,0.7c1.9-0.5,3.3-1.6,4.3-3.3c1-1.7,1.2-3.5,0.7-5.3
				C224.5,169.4,223.4,168,221.7,166.9 M220.3,169.4c1,0.6,1.7,1.5,2,2.6c0.3,1.1,0.1,2.2-0.4,3.2c-0.6,1-1.5,1.7-2.6,2
				c-1.1,0.3-2.2,0.2-3.3-0.4c-1-0.6-1.7-1.5-2-2.6c-0.3-1.1-0.2-2.2,0.4-3.2c0.6-1,1.5-1.7,2.6-2
				C218.2,168.6,219.3,168.8,220.3,169.4"/>
		</g>
	</g>
	<g>
		<g>
			<path class="st0" d="M661.9,410.5c1.7-1,2.8-2.4,3.3-4.3c0.5-1.9,0.3-3.7-0.7-5.3c-1-1.7-2.4-2.8-4.3-3.3
				c-1.9-0.5-3.7-0.3-5.4,0.7c-1.7,1-2.8,2.4-3.3,4.3c-0.5,1.9-0.3,3.7,0.7,5.3c1,1.7,2.4,2.8,4.3,3.3
				C658.3,411.6,660.1,411.4,661.9,410.5 M660.4,408c-1,0.6-2.1,0.7-3.2,0.4c-1.1-0.3-2-1-2.6-2c-0.6-1-0.7-2.1-0.4-3.2
				c0.3-1.1,1-2,2-2.6c1-0.6,2.1-0.7,3.2-0.4c1.2,0.3,2,1,2.6,2c0.6,1,0.7,2.1,0.4,3.2C662.1,406.6,661.5,407.4,660.4,408"/>
		</g>
	</g>
</g>
<g>
	<path class="st0" d="M363.2,236.7c2.2-1.1,4.6,2.2,2.1,3.1c-5.5,2.1-11.9,2.6-17.7,3c-4.8,0.3-9.6,0.4-14.3,0.3
		c-0.1,2.1-0.3,4.2-0.4,6.3c-0.6,9.4-1.3,18.7-1.8,28.1c-0.5,9.1-1.3,18.2-1.1,27.3c0.1,4.1,0.5,8.2,1.6,12.1
		c0.5,1.6,1.2,3.2,2.9,3.6c2,0.5,4.2-0.4,5.9-1.5c7.3-4.4,9.8-13.4,12-21c0.5-1.9,4-1.2,3.5,0.8c-2.5,9.2-6,20.3-15.6,24.4
		c-4.1,1.8-8.5,2-12.3-0.5c-3.8-2.5-5.6-6.6-6.9-10.8c-2.9-10-2.6-20.7-2.8-30.9c-0.2-10.7,0.2-21.4,0.8-32.1
		c0.1-2.1,0.3-4.2,0.4-6.3c-3.4-0.2-6.8-0.3-10.2-0.5c-3.1-0.1-6.2-0.4-9.3-0.2c-0.4,0-0.7,0.1-1.1,0.1c0.4,0.1,0.7,0.2,1.1,0.4
		c2.4,0.9,0.1,3.6-2,2.8c-0.6-0.2-1.6,0.2-2.3,0.1c-0.5,0-1-0.1-1.5-0.3c-0.8-0.3-1.7-0.9-1.9-1.8c-0.9-2.8,2.8-4,4.8-4.4
		c3.4-0.7,7-0.3,10.5-0.2c3.6,0.1,7.3,0.3,10.9,0.5c0.4,0,0.9,0,1.3,0.1c0.2-2.2,0.3-4.3,0.5-6.5c0.4-5.6,0.8-11.4,2.5-16.7
		c0.9-2.7,3.9-3.9,6.5-3.6c2.8,0.3,4.7,2.2,5.1,4.9c0.8,5.3,0.1,10.8-0.3,16.2c-0.2,2-0.3,4.1-0.5,6.1c2.4,0,4.8,0,7.2,0
		c3.8-0.1,7.5-0.3,11.3-0.7C355.7,238.7,359.8,238.4,363.2,236.7L363.2,236.7z"/>
	<path class="st0" d="M414.1,293.9c0.9-1.9,4.8-1.2,3.9,0.9c-2.2,5.1-4.8,10-7.9,14.5c-2.4,3.5-5.3,7.9-10,8.2
		c-11.6,0.8-12.5-17-12.3-25c0.2-10,1.3-20,1.5-30.1c0-0.6,0.4-2.3-0.1-2.8c-0.7-0.6-2,0.7-2.7,1.2c-1.6,1.4-3,3-4.2,4.7
		c-2.8,4-5,8.6-7,13c-4,8.9-6.9,18.2-9.8,27.4c-0.1,1-0.2,1.9-0.4,2.9c-0.5,4.5-8.2,5.9-9.4,1.1c-0.5-2.1-1.3-4.2-1.6-6.4
		c-0.3-2-0.4-4.1-0.5-6.2c-0.3-3.8-0.4-7.7-0.6-11.5c-0.2-7.7-0.3-15.3-0.2-23c0.1-13.5,0.8-27.2,4.3-40.3
		c1.5-5.7,3.7-11.6,8.3-15.5c4.2-3.6,9.9-4.5,15.1-2.6c12.2,4.3,5.8,20.7,2.2,28.9c-4.4,10.2-10.5,19.6-16.8,28.7
		c-0.1,3.3-0.1,6.7-0.2,10c-0.1,6-0.1,12.1,0,18.1c0,0.7,0,1.3,0,2c2.1-6.1,4.4-12.2,7.2-18c3.4-7.2,8-17.2,16.7-19
		c5-1.1,9.1,2.8,10.7,7.2c1.7,4.9,2.1,10.3,2.1,15.4c0.1,10.1-1.2,20.2-1,30.3c0,1-0.2,2.3,0.3,3.3c0.4,0.7-0.3,0.7,0.6,0.2
		c1.7-0.9,3.1-3.2,4.2-4.7C409.4,302.9,412,298.5,414.1,293.9L414.1,293.9z M366.1,255.4c5.2-7.7,10.1-15.5,13.6-24.1
		c2-4.7,4.3-10.2,4.3-15.4c0-4.7-3.7-10.9-8.8-7.1c-3.4,2.5-4.6,7.6-5.4,11.5c-1.1,5.3-1.8,10.7-2.4,16.1
		C366.7,242.8,366.3,249.1,366.1,255.4z"/>
	<path class="st0" d="M461.6,283.4c-1.7,6.6-4.3,13-7.9,18.8c-3.1,5.1-7.1,10.8-12.8,13.2c-11.9,5-22.2-6.9-25.6-17
		c-2.2-6.6-2.1-13.6-1-20.4c1.1-6.4,3.3-12.9,8.3-17.4c4.5-4.1,10.8-6,16.7-3.8c4.3,1.6,8.3,4.8,8.3,9.8c0,5.3-4.9,9.2-9.3,11.3
		c-3.7,1.7-7.6,2.6-11.6,2.5c-1.3,7.5-1.5,15.1,0.3,22.6c0.9,4,3,8,7.1,9.3c4.5,1.4,8.4-1.6,11.2-4.9c6.1-7.1,10.3-15.9,12.7-24.9
		C458.5,280.6,462.2,281.3,461.6,283.4z M427.7,275.4c-0.2,0.6-0.3,1.3-0.4,2c3.9-0.1,7.7-1.2,11.1-3.2c4-2.4,7.8-7.6,3.6-11.7
		c-1.6-1.6-3.4-2.4-5.5-1.6c-1.5,0.6-3,1.7-4,2.9C429.8,266.9,428.6,271.5,427.7,275.4L427.7,275.4z"/>
</g>
<g>
	<path class="st0" d="M285.3,534.8c1.5-0.9,3.2,1.2,1.5,2.2c-8.1,4.8-17.8,6.4-27,4.8c3.6,3.3,6.3,7.4,7.7,12.1
		c2.3,7.7,1.1,17.6-4.2,23.9c-2.4,2.9-5.5,3.7-9.1,2.7c-4.3-1.2-6.3-5-7.8-8.8c-3.2-8.4-4-17.6-4.4-26.6c-0.5-9.1-0.2-18.2,0.4-27.3
		c0.6-8.5,2-17.3,5.7-25.1c3.3-6.9,10.3-14.3,18.8-11.4c6.7,2.3,8.9,10.7,9.1,17c0.6,16.1-9.8,29.6-22.2,38.6
		c-0.8,0.6-2.1,0-2.2-0.7c0,0.3,0,0.6,0,0.9c0.4-0.1,0.8-0.1,1.1,0C263.3,541.4,275.4,540.6,285.3,534.8L285.3,534.8z M251.6,539.4
		c0,2.4,0,4.9,0,7.3c0.1,7.4,0.2,15,1.8,22.3c0.4,1.7,0.8,3.4,1.4,5c0.5,1.1,1,2.8,2.1,3.4c2.9,1.5,5.6-4,6.5-5.9
		C268.9,559.4,263.5,545.1,251.6,539.4z M251.6,535.9c0-0.2,0.2-0.4,0.4-0.6c12-9.1,22.2-22.7,20.7-38.6c-0.4-4.7-3-13.9-9.6-11.2
		c-2.6,1.1-4.4,3.7-5.4,6.1c-1.4,3.3-2.5,6.6-3.2,10c-1.6,7.1-2.1,14.4-2.5,21.6C251.8,527.6,251.6,531.7,251.6,535.9z"/>
	<path class="st0" d="M332.8,536.1c0.6-1.5,3.5-1,2.9,0.7c-2,5.7-3.9,11.5-6.9,16.8c-2.2,4-5.3,9.1-10.7,8.3
		c-5.3-0.8-7.5-6.9-8.3-11.5c-0.9-5.1-1.1-10.1-1-15.3c-1.4,4-2.9,8-4.7,11.8c-1.6,3.3-3.1,6.8-5.6,9.5c-2.6,2.8-6.5,3.3-9.9,1.6
		c-7.3-3.6-8.9-13.7-7.8-20.9c1.1-7.7,4.3-16,10.9-20.6c3-2.1,6.7-3.3,10.4-2.2c2.9,0.9,5.8,3,6.9,6c0.7,2-2.5,2.6-3.4,1.2
		c-0.9-1.3-1.7-2.4-3.3-2.8c-1-0.2-1.9-0.1-2.8,0.5c-2.5,1.5-4.1,4-5.6,6.5c-2.8,4.9-4.2,10.9-4.5,16.5c-0.2,2.8-0.1,5.7,0.9,8.4
		c0.5,1.5,1.9,3.9,3.8,3.3c2.6-0.9,4.4-4.1,5.7-6.2c1.7-2.7,3.1-5.7,4.3-8.6c2-4.9,3.6-10,5.1-15.1c0.1-3.1,0.2-6.9,2-9.5
		c1.7-2.5,6.5-2.8,8.1,0c1.8,3.1,1.4,7.2,1.3,10.7c-0.2,3.1-0.3,6.2-0.5,9.3c-0.5,6.1-0.8,12.1-0.7,18.2c0,1.4,0.1,2.8,0.3,4.1
		c0,0.4,0.1,1.6,0.5,1.8c1,0.5,2.7-1.8,3.1-2.4c0.8-1.1,1.6-2.3,2.3-3.5C328.8,547.3,330.8,541.7,332.8,536.1L332.8,536.1z"/>
	<path class="st0" d="M392.8,539c0.6-1.5,3.5-0.9,2.9,0.7c-1.5,3.6-3,7.2-5,10.5c-1.7,2.8-3.9,6.9-7.6,7.1c-3.2,0.2-5.8-2.2-7-5
		c-1.5-3.5-2.1-7.5-2.3-11.3c-0.3-7.4,0.6-15,1.5-22.4c0.1-0.5,0.5-2.9,0-3.2c-0.1,0-1.6,1.3-1.8,1.5c-0.6,0.6-1.1,1.2-1.6,1.9
		c-2.2,2.8-3.7,6-5,9.2c-2.5,6.2-4.5,12.6-5.9,19.1c-0.1,1.2-0.2,2.4-0.5,3.6c-1,4-7.2,3.3-8.6,0c-1.3-3.2-0.9-7.3-0.6-10.7
		c0.2-3.2,0.4-6.5,0.6-9.7c0.2-3.2,0.4-6.4,0.5-9.6c0-1.4,0-2.9,0-4.3c0-0.5,0.2-0.8-0.3-0.8c-0.6-0.1-1.4,1-1.8,1.4
		c-4.1,4.6-5.4,11.5-6.7,17.2c-1.1,4.9-2,9.8-2.9,14.7c-0.1,1.7-0.3,3.4-0.9,5c0,0,0,0.1,0,0.1c0,0.1-0.1,0.2-0.1,0.3
		c-0.2,0.5-0.4,1-0.7,1.5c-0.9,1.6-3.4,1.3-4.4,0c-2.1-2.8-2.4-6.5-2.7-9.9c-0.3-3.2-0.4-6.3-0.5-9.5c0-6.6,0.2-13.4,1.6-19.9
		c0.5-2.2,3.2-3,5.1-2.8c2,0.2,4,1.7,4,3.9c0,4.4-0.3,8.8-0.6,13.2c1.1-4.5,2.3-9.1,4.8-13c1.2-1.9,2.8-4.2,5.1-4.6
		c1.9-0.4,4.2,0.7,5.6,2c1.9,1.8,2.8,5.2,3.4,7.7c0.7,3,0.9,6.2,0.9,9.3c0,1,0,2-0.1,3.1c1.1-3.5,2.4-6.9,3.9-10.3
		c2.1-4.7,5.9-12.7,12.1-12c3.3,0.4,5.1,3.3,6.1,6.2c1.2,3.4,1.4,7.4,1.2,11c-0.2,3.7-0.5,7.4-0.7,11.1c-0.2,3.3-0.5,6.8-0.1,10.2
		c0.1,0.5,0.1,1.2,0.3,1.7c0,0.1,0,0.2,0,0.2c0.1,0,1-0.6,1.2-0.8c1.3-1.1,2.3-2.6,3.1-4.1C390.1,545.6,391.5,542.3,392.8,539
		L392.8,539z"/>
	<path class="st0" d="M399.6,510.9c-1.6-0.2-2.5-1.8-4.4-5c-2.3-4-4.7-8.2-3.2-11.8c0.5-1.2,1.1-1.6,1.4-1.8
		c1.8-1.1,4.6-0.1,6.1,1.5c0.6,0.7,1.1,1.4,1.6,2.2c0.1-0.1,0.3-0.3,0.4-0.6c1-1.3,1.6-2.1,1.8-2.3c1.1-1.2,4.4-1.3,5.9,0
		c2.5,2.3-0.7,9.3-3.6,13.2C404.2,508.3,402.1,511.2,399.6,510.9L399.6,510.9z M416.6,536.1c0.6-1.5,3.5-1,2.9,0.7
		c-2,5.7-3.9,11.5-6.9,16.8c-2.2,4-5.3,9.1-10.7,8.3c-5.3-0.8-7.5-6.9-8.3-11.5c-1-5.9-1.1-11.8-0.9-17.8c0.1-2.9,0.3-5.8,0.4-8.6
		c0.1-3.1,0.2-7,2.1-9.7c1.7-2.5,6.5-2.8,8.1,0c1.8,3.1,1.4,7.2,1.3,10.7c-0.2,3.1-0.3,6.2-0.5,9.3c-0.5,6.1-0.8,12.1-0.7,18.2
		c0,1.4,0.1,2.8,0.3,4.1c0,0.4,0.1,1.6,0.5,1.8c1,0.5,2.7-1.8,3.1-2.4c0.8-1.1,1.6-2.3,2.3-3.5C412.6,547.3,414.6,541.7,416.6,536.1
		L416.6,536.1z"/>
	<path class="st0" d="M424.4,517.4c-0.1,4-0.1,8.1-0.2,12.1c-0.2,5.4-0.3,11,0.3,16.4c0.2,2.1,0.4,5,1.7,6.8c0.6,0.8,1.1,1.4,2,0.9
		c1.1-0.5,1.9-1.5,2.7-2.4c3.4-3.8,5.8-8.2,7.3-13c0.5-1.5,3.4-1,2.9,0.7c-1.8,6.2-5.2,12.3-9.8,16.8c-2.4,2.4-6.3,3.2-9.2,1.2
		c-2.9-2-4-5.6-4.8-8.9c-1.7-6.6-1.9-13.3-2-20.1c-0.1-6.7,0.1-13.5,0.8-20.2c0.7-6.6,1.8-13.3,4.2-19.5c2.1-5.4,5.2-10.8,11-12.7
		c4.4-1.5,10.4-0.3,13.1,3.8c2.9,4.4,1.7,10.3,0.3,15c-1.6,5.1-4.3,10-7.8,14C433.6,511.8,429.2,516.2,424.4,517.4L424.4,517.4z
		 M424.5,512.8c0,0.6-0.1,1.3-0.1,1.9c2.1-0.8,4-2.3,5.7-3.8c2-1.7,3.8-3.6,5.4-5.7c3.1-4,5.4-8.7,6.7-13.6c1-3.9,2-10.2-2-12.8
		c-3.6-2.3-7.6,1.3-9.5,4.2c-2.6,3.9-3.6,9.2-4.5,13.8C425.1,502.2,424.8,507.5,424.5,512.8L424.5,512.8z"/>
	<path class="st0" d="M492.9,540.2c-1.5,6.4-6.5,11.4-12,14.6c-1.2,0.7-2.3,1.3-3.5,1.8c0,5.2-0.1,10.3-0.4,15.5
		c-0.4,7.4-1.2,15.2-3.5,22.4c-2.2,6.7-6.6,12.2-13.4,14.4c-6,1.9-13.4,0.9-18.2-3.4c-4.5-4.1-7.3-9.8-7.9-15.8
		c-0.5-6.2,1.7-12.4,5.5-17.2c4.2-5.4,10-8.9,16.3-11.2c3.4-1.2,7.1-2.3,10.8-3.5c-0.1-6.7-0.4-13.4-0.5-20.1
		c-0.4,1.4-0.9,2.7-1.5,4.1c-1,2.6-2.2,5.1-3.5,7.5c-1.3,2.4-2.7,5-4.9,6.6c-4.7,3.4-10.3,0.3-13.5-3.7c-3.6-4.6-4.3-11-4.6-16.7
		c-0.2-3.1,0-6.2,0.1-9.3c0.2-3.3,0.5-6.8,1.5-10c1.4-4.4,9.4-3.8,9.5,1.1c0,3.5-0.6,7.1-0.9,10.6c-0.4,3.2-0.6,6.5-0.8,9.8
		c-0.2,3.1,0,6,0.5,9.1c0.4,2.4,0.8,6.1,3.2,7.3c3,1.6,5.6-2.9,6.8-5c1.7-2.9,3.1-6,4.2-9.1c1.8-4.9,3.2-10,4.2-15.2
		c0.1-2.4,0.3-4.7,0.6-7.1c0.3-2.8,2.5-4.4,5.3-4.5c2.5-0.1,5.4,1.8,5.3,4.5c-0.2,9.1-0.3,18.2-0.2,27.3c0,2.9,0,5.8,0,8.7
		c5.9-2.9,10.7-7.1,12.7-14C490.4,538,493.3,538.5,492.9,540.2z M466.6,562.5c0-0.7,0-1.3,0-2c-2.5,0.7-4.9,1.5-7.3,2.3
		c-6.4,2.2-12.5,5.2-16.8,10.5c-3.7,4.7-5.8,10.5-5,16.5c0.7,5.7,4,11,9.6,12.9c4.6,1.6,10.1,1.2,13.5-2.5c3.6-4,4.5-10.2,5-15.3
		C466.4,577.5,466.6,570,466.6,562.5z"/>
</g>
</svg>


