<?xml version="1.0" encoding="utf-8"?>
<!-- Generator: Adobe Illustrator 23.0.5, SVG Export Plug-In . SVG Version: 6.00 Build 0)  -->
<svg version="1.1" xmlns="http://www.w3.org/2000/svg" xmlns:xlink="http://www.w3.org/1999/xlink" x="0px" y="0px"
	 viewBox="0 0 720 720" style="enable-background:new 0 0 720 720;" xml:space="preserve" width="500" height="500">
<style type="text/css">
	.st0{fill:#050002;}
	.st1{fill-rule:evenodd;clip-rule:evenodd;fill:#050002;}
	.st2{fill-rule:evenodd;clip-rule:evenodd;}
	.st3{fill:#221F1F;}
	.st4{fill:#231F20;}
	.st5{fill:#070808;}
	.st6{fill:#211E1F;}
	.st7{fill:#161616;}
	.st8{fill:#131313;}
	.st9{fill:#21201F;}
	.st10{fill:#2C2929;}
</style>
<g>
	<g>
		<path class="st0" d="M552,590c-7.5-4-12.5-8.6-15.1-13.9c-2.5-5.3-3.8-11.8-3.8-19.5v-73.1h25.7v-7.4H142.4v7.4h29.1v76.8
			c0,8.6-1.5,15.6-4.6,21c-3.1,5.4-7.9,9.4-14.6,12.1c-3.8,1.8-10.6,3.1-20.7,4c-10,0.9-17.7,1.5-23,2v23.5h194.8v-23.5
			c-5.5-0.2-13.1-1.3-22.7-3.3c-9.6-2-16.3-4-20-6c-7.5-4-12.5-8.6-15.1-13.9c-2.5-5.3-3.8-11.8-3.8-19.5v-73.1h220.7v76.8
			c0,8.6-1.6,15.6-4.6,21c-3.1,5.4-7.9,9.4-14.6,12.1c-3.8,1.8-10.6,3.1-20.7,4c-10,0.9-17.7,1.5-23,2v23.5h194.8v-23.5
			c-5.5-0.2-13.1-1.3-22.7-3.3C562.4,594,555.7,592,552,590z"/>
	</g>
	<g>
		<path class="st0" d="M399.8,153.4v23.5c6.2,0.4,13.5,1.8,22,4c8.5,2.2,15.7,4.7,21.7,7.6c7.1,3.3,12,7.9,14.9,13.7
			c2.9,5.9,4.3,12.3,4.3,19.4v129.4H242V218.2c0-7.3,1.3-14,3.8-20.2c2.5-6.2,7.6-10.6,15.1-13.2c4.4-1.5,11.1-3.2,20-5
			c8.9-1.8,16.5-2.8,22.7-3v-23.5H108.7v23.5c6.2,0.4,13.5,1.8,22,4c8.5,2.2,15.7,4.7,21.7,7.6c7.1,3.3,12,7.9,14.9,13.7
			c2.9,5.9,4.3,12.3,4.3,19.4v129.4h-29.1v7.4h416.5v-7.4h-25.7V218.2c0-7.3,1.3-14,3.8-20.2c2.5-6.2,7.6-10.6,15.1-13.2
			c4.4-1.5,11.1-3.2,20-5c8.9-1.8,16.5-2.8,22.7-3v-23.5H399.8z"/>
	</g>
</g>
</svg>


