<?xml version="1.0" encoding="utf-8"?>
<!-- Generator: Adobe Illustrator 23.0.5, SVG Export Plug-In . SVG Version: 6.00 Build 0)  -->
<svg height="500" width="500" version="1.1" xmlns="http://www.w3.org/2000/svg" xmlns:xlink="http://www.w3.org/1999/xlink" x="0px" y="0px"
	 viewBox="0 0 720 720" style="enable-background:new 0 0 720 720;" xml:space="preserve">
<style type="text/css">
	.st0{fill:#050002;}
	.st1{fill-rule:evenodd;clip-rule:evenodd;fill:#050002;}
	.st2{fill-rule:evenodd;clip-rule:evenodd;}
	.st3{fill:#221F1F;}
	.st4{fill:#231F20;}
	.st5{fill:#070808;}
	.st6{fill:#211E1F;}
	.st7{fill:#161616;}
	.st8{fill:#131313;}
	.st9{fill:#21201F;}
	.st10{fill:#2C2929;}
</style>
<g>
	<g>
		<g>
			<g>
				<rect x="42.1" y="327.6" class="st0" width="635.6" height="5.7"/>
			</g>
		</g>
	</g>
</g>
<g>
	<g>
		<g>
			<g>
				<rect x="42.1" y="469.5" class="st0" width="635.6" height="5.7"/>
			</g>
		</g>
	</g>
</g>
<g>
	<g>
		<g>
			<g>
				<path class="st0" d="M132.9,320.8c2.4-2.3,3.2-5.1,2.6-8.4c-0.1-0.7-0.3-1.3-0.7-1.8c-0.4-0.5-0.9-1-1.5-1.3
					c-0.6-0.3-1.2-0.4-1.9-0.4c-0.7,0-1.3,0.2-1.9,0.5c-1.5,1.4-2.9,2.9-4.1,4.5c-0.5,0.5-0.8,1.2-1.4,1.4
					c-5.8,2.7-10.8,6.5-15,11.2h4.2c3.3-3,7.1-5.6,11.4-7.8C127.4,322.7,130.4,323.3,132.9,320.8z M130,313.5c0.3-0.3,1.4-0.2,1.4,0
					c0.3,0.9,0.3,1.7,0,2.6c-0.3,0.9-0.9,1.5-1.6,2c-0.3-0.2-0.5-0.2-0.5-0.2c-0.6-0.7-0.8-1.5-0.6-2.3
					C128.7,314.6,129.2,313.9,130,313.5z M641.4,324.1c-1.3-2-2.9-3.9-4.3-5.8c-8.7-11.9-19.9-20.5-33.6-25.8
					c-2.5-1-5.2-1.6-7.7-2.6c-1-0.3-1.9-0.9-2.5-1.7c-1.9-3.2-3.5-6.5-5.3-9.6c-1.3-2.1-2.6-4.2-4-6.3c0.3-0.4,0.4-0.8,0.5-1.3
					c0.1-2.3,0-4.6-0.2-6.9c-0.3-3.8-1.4-7.4-3.2-10.8c-1.9-3.4-4.3-6.2-7.4-8.5c-4.7-3.2-8.8-7-12.2-11.5
					c-3.8-5.6-8.5-10.7-12.8-16.1c3.2,1.3,6.6,2.6,9.9,3.9c6.2,2.4,12.6,3.5,19.3,3.2c1-0.3,2-0.7,2.9-1.3c-0.4-0.9-0.7-2-1.4-2.6
					c-2.8-2.2-5.7-4.3-8.7-6.1c-4.2-2.5-8.8-4.2-13.6-5.1s-9.7-1-14.5-0.2c-1.2,0.1-2.3-0.3-3.2-1.1c-4.3-3.5-8.4-7.2-12.6-10.8
					c-2.4-2.1-4.8-4-8-6.4c7,1.3,14,1.6,21,0.7c2.1-0.4,4.1,0,5.8,1.3c1.2,0.8,2.5,1.3,4,1.5c1.8,0.4,3.3-0.1,4.6-1.5
					c1.2-1.4,1.6-3,1-4.7c-0.4-1.5-1.2-2.8-2.4-3.9c-1.2-1.1-2.5-1.8-4.1-2.1c-0.7-0.3-1.4-0.4-2.1-0.4c-0.7,0-1.4,0.2-2.1,0.5
					c-0.7,0.3-1.2,0.8-1.7,1.4c-0.5,0.6-0.8,1.2-1,1.9c-0.2,0.7-0.4,1.3-0.7,2.5c-5.9,0-11.8,0.4-17.7,0c-6.8-0.2-13-2.3-18.7-6.1
					c-5.1-3.6-10.7-6.4-16.1-9.6c-3.1-1.7-6.3-3.5-8.9-4.9c6.7,0.4,13.8,1.2,20.9,1.2c8.4,0.1,16.4-1.6,24-5.3
					c1-0.4,1.6-1.7,2.4-2.6c-0.9-0.7-1.8-1.8-2.8-2c-7.1-1.4-14.3-2.8-21.5-3.8c-13-1.7-25.5-0.1-37.5,4.9c-0.8,0.3-1.6,0.3-2.5,0
					c-4.7-1.6-9.3-3.3-14-4.8c-6-2-12-3.8-18-5.7c0-0.2,0-0.2,0-0.2c6.2-2,12.3-3.9,18.5-5.8c0.4-0.2,1,0.2,1.5,0.2
					c2.4,0.3,4.8,0.3,7.3,0c1.4-0.5,2.7-1.3,3.6-2.4c1-1.2,1.6-2.5,1.7-4c-0.1-1.5-0.6-2.8-1.5-4c-0.9-1.2-2.1-2-3.5-2.4
					c-1.3-0.5-2.5-0.7-3.9-0.4c-1.3,0.3-2.5,0.9-3.4,1.9c-1.3,1-2.3,2.3-3,3.8c-0.7,1.5-0.9,3.1-0.7,4.8c-7.4,3.1-15,5.1-23,6.1
					c-2.5,0.3-5,0.2-7.5-0.2c-6.7-1.1-13.4-2.3-20.1-3.6c-0.3-0.1-0.6-0.1-0.9-0.3c7.2-2.3,14.6-4.4,21.8-7.2
					c7.4-2.7,13.1-7.4,17.2-14.3c0.6-1,0.7-2,0.3-3c-0.3-0.6-1.8-0.8-2.7-0.8c-2.4,0.2-4.8,0.5-7.2,0.8
					c-14.6,1.5-27.7,6.9-39.2,16.1c-2.1,1.7-4,3.6-6.1,5.4c-0.8,0.7-1.7,1.2-2.7,1.3c-3.7,0.1-7.5-0.2-11-0.2
					c-2.3,0-4.6,0.2-6.9,0.3c-0.2-0.5-0.5-0.9-0.9-1.2c-2-1.2-4-2.3-6.1-3.2c-3.5-1.7-7.1-2.6-11-2.7c-3.9-0.1-7.6,0.6-11.1,2.2
					c-5.1,2.5-10.4,4.1-16.1,4.8c-6.9,0.5-13.7,2.1-20.5,3.2c2.7-2.1,5.5-4.3,8.3-6.6c5.2-4.2,9.3-9.2,12.4-15.1
					c0.3-1.1,0.4-2.1,0.3-3.2c-1,0-2.1-0.4-2.9,0c-3.3,1.3-6.5,2.8-9.6,4.6c-4.3,2.4-8,5.5-11.3,9.2c-3.2,3.7-5.7,7.9-7.4,12.5
					c-0.5,1.1-1.4,1.9-2.6,2.3c-5.2,1.9-10.4,3.6-15.6,5.5c-3.1,1.1-6,2.3-9.6,3.7c4.6-5.4,8.3-11.3,11.1-17.8
					c0.7-2.1,2.1-3.5,4-4.4c1.3-0.6,2.4-1.5,3.2-2.7c0.6-0.6,0.9-1.4,1.1-2.2c0.2-0.8,0.1-1.7-0.2-2.5c-0.3-0.8-0.7-1.5-1.4-2.1
					s-1.4-0.9-2.2-1.1c-1.5-0.4-3-0.4-4.5,0c-1.5,0.4-2.8,1.2-3.8,2.3c-0.6,0.5-1,1-1.4,1.7c-0.3,0.7-0.5,1.3-0.6,2.1
					c0,0.7,0.1,1.4,0.3,2.1c0.3,0.7,0.7,1.3,1.2,1.8l1.8,1.9c-2.9,5.1-5.7,10.4-8.9,15.3c-3.6,5.8-8.5,10.1-14.6,13.1
					c-5.7,2.6-11,5.8-16.4,9c-3.1,1.8-6.2,3.7-8.8,5.3c3.7-5.6,7.9-11.4,11.5-17.5c4.3-7.2,6.8-15,7.5-23.4
					c-0.1-1.2-0.5-2.3-1.1-3.4c-1.1,0.4-2.5,0.6-3.2,1.4c-4.8,5.5-9.6,10.9-14,16.7c-8,10.5-12.8,22.2-14.4,35.3
					c-0.2,0.9-0.6,1.5-1.3,2.1c-3.7,3.2-7.5,6.4-11.2,9.6c-4.7,4.3-9.3,8.6-14,12.8c0-0.2,0-0.2,0-0.2c1.4-6.4,2.9-12.8,4.2-18.8
					c0.1-0.5,0.7-0.8,0.9-1.3c1.4-2,2.6-4.2,3.6-6.4c0.3-1.5,0.2-3-0.3-4.4c-0.5-1.4-1.4-2.6-2.6-3.5c-1.3-0.6-2.7-0.9-4.2-0.6
					c-1.5,0.2-2.8,0.8-3.8,1.8c-1.1,0.8-1.9,1.9-2.3,3.2c-0.4,1.3-0.4,2.6,0,3.9c0.2,1.6,0.8,3.1,1.8,4.4c1,1.3,2.2,2.3,3.7,3
					c-1,7.9-3.1,15.6-6.2,22.9c-1,2.3-2.3,4.5-4,6.4c-4.3,5.3-8.7,10.4-13.1,15.6c-0.2,0.2-0.4,0.4-0.7,0.6
					c1.5-7.4,3.6-14.9,4.7-22.5c1.3-7.7,0-15-3.8-21.8c-0.6-1-1.4-1.6-2.5-1.8c-0.6,0-1.6,1.2-2,2c-1.1,2.2-1.9,4.4-2.9,6.6
					c-6,13.5-7.9,27.5-5.7,42c0.4,2.7,1.2,5.3,1.6,8c0.2,1,0.2,2-0.2,3c-1.8,3.2-3.9,6.3-5.7,9.5c-1.2,2.1-2.2,4.2-3.3,6.3
					c-0.4,0-0.8,0.1-1.2,0.3c-2,1.1-4,2.3-5.9,3.7c-3.2,2.2-5.8,4.9-7.8,8.2c-2,3.3-3.2,6.9-3.6,10.7c-0.4,5.6-1.6,10.9-3.7,16.1
					c-2.7,5.4-4.6,11.1-6.6,16.8h4.3c1.2-4.2,2.5-8.2,3.9-12.2c2.1-6.2,5.5-11.5,10.4-15.9c1.4-1.3,2.8-2.7,4.1-4
					c2.8-2.8,4.7-6.1,5.5-10c0.7-3.1,1.2-6.3,1.8-9.4c4.8-6.3,9.7-12.4,16.6-16.5c7.6-5.1,15.7-9.1,24.4-11.9
					c2.8,6.4,5.6,7.5,12,4.5l1.5-0.6c1-0.5,1.8-1.2,2.5-2.1c0.7-0.9,1.2-1.8,1.5-2.9c0.3-1.1,0.4-2.2,0.2-3.3s-0.5-2.1-1-3.1
					c-0.6-0.8-1.4-1.5-2.2-2.1c-0.9-0.6-1.8-1-2.8-1.2c-1-0.2-2-0.3-3-0.2c-1,0.1-2,0.4-2.9,0.9c-2,1.8-3.8,3.7-5.4,5.9
					c-0.4,0.5-0.9,1.3-1.4,1.3c-6.9,1.9-13.3,4.9-19.3,8.9c-2.3,1.5-4.6,2.9-6.9,4.3c3.8-5.7,8-10.9,11.8-16.4
					c1.7-2.5,3.9-4.6,6.5-6.2s5.4-2.6,8.5-3.1c15-2.9,29.6-6.7,42-16.1c1.4-1,4-1.2,3.4-3.8c-0.5-2.6-3.1-2.2-4.9-2.4
					c-11.7-1.1-22.5,1.5-32.4,7.7c-0.7,0.4-1.4,0.7-2.1,1.1l-0.4-0.6c5.7-5.7,11.8-11,18.2-15.9c10.3-6.5,21.6-10.4,33.8-11.6
					c0.7,0,1.2,0.2,1.7,0.7c0.6,0.9,1.4,1.7,2.3,2.3s1.9,1,3,1.2c1.1,0.2,2.2,0.2,3.3-0.1c1.1-0.2,2.1-0.7,3-1.4
					c1.1-0.7,1.9-1.7,2.3-3c0.4-1.2,0.5-2.5,0.1-3.8c-0.4-1.3-1.1-2.2-2.3-2.9c-1.1-0.7-2.3-0.8-3.6-0.5c-2.6,0.8-5,1.9-7.4,3.2
					c-0.6,0.3-1.2,0.9-1.8,0.9c-7.8,0.6-15.3,2.3-22.7,5c0.3-0.4,0.6-0.7,1-1c10.3-8.1,21.2-15.3,32.6-21.6c1.1-0.5,2.2-0.6,3.4-0.3
					c6.4,1.9,12.8,3.7,19,5.9c10.5,3.6,21,3.9,31.7,0.8c1.2-0.3,2-1,2.5-2c0.2-0.6-0.9-1.9-1.7-2.5c-5.2-3.8-11-6.7-17.2-8.5
					c-6.2-1.8-12.6-2.5-19.1-2.1c-0.4,0-0.7,0-1.1,0c5.6-2.6,11.4-4.8,17.1-7c12.8-5.1,24.6-1.6,35.9,5.3c-2,4.4-1,7.3,2.5,8.3
					c3.2,0.9,6.1,0.2,8.5-2c0.5-0.4,0.9-0.9,1.2-1.5c0.3-0.6,0.4-1.3,0.3-1.9c0-0.7-0.2-1.3-0.6-1.9c-0.4-0.6-0.8-1-1.4-1.4
					c-2-0.6-4-1-6-1.3c-0.7,0-1.3-0.2-2-0.5c-5.4-4-11.4-6.6-17.9-8l-1.9-0.4c5-1.4,9.8-2.2,14.6-3.2c6.4-1.3,12.7-1,18.9,1.1
					c1.8,0.6,3.7,1.1,5.5,1.6c3.8,1.1,7.6,1,11.4-0.2c2.9-0.9,5.7-2,8.5-3c8,1.1,15.8,2.3,23,6.3c8.2,4,15.7,9,22.5,15.1
					c-4.3,5.7-3.6,8.7,2.1,12.6c0.4,0.3,0.9,0.6,1.4,0.9c0.9,0.6,2,1,3.1,1.2c1.1,0.2,2.2,0.1,3.3-0.1c1.1-0.3,2.1-0.7,3-1.4
					c0.9-0.7,1.6-1.5,2.2-2.5c0.4-0.9,0.7-1.9,0.7-3c0.1-1-0.1-2-0.3-3c-0.3-1-0.7-1.9-1.4-2.7c-0.6-0.8-1.4-1.5-2.2-2.1
					c-2.5-0.9-5.1-1.4-7.8-1.7c-0.7,0-1.3-0.2-1.9-0.6c-5.1-5-10.9-9-17.3-12.1c-2.4-1.3-4.8-2.6-7.2-3.9c6.8,0.4,13.4,1.5,20.1,2
					c3.1,0.2,5.9,1.1,8.6,2.5c2.7,1.5,5,3.4,6.9,5.8c9.8,11.6,20.5,22.3,34.8,28.4c1.6,0.7,3,2.8,4.9,1.1c2-1.7,0.4-3.7-0.4-5.5
					c-4.9-10.6-12.5-18.7-22.8-24.2c-0.7-0.4-1.3-0.8-2-1.3l0.3-0.7c7.8,2.1,15.4,4.7,22.9,7.8c10.8,5.7,19.8,13.5,26.9,23.4
					c0.4,0.6,0.4,1.2,0.2,1.8c-0.5,1-0.8,2-0.9,3.2c-0.1,1.1,0.1,2.2,0.5,3.2c0.4,1,0.9,2,1.7,2.8c0.8,0.8,1.7,1.4,2.7,1.9
					c1.2,0.6,2.4,0.8,3.7,0.5c1.3-0.2,2.4-0.9,3.3-1.8c0.9-1,1.3-2.1,1.3-3.4c0-1.3-0.4-2.4-1.3-3.4c-2-1.8-4.1-3.4-6.4-4.8
					c-0.5-0.4-1.3-0.6-1.7-1.1c-4.4-6.4-9.6-12.1-15.6-17.1c0.5,0,0.9,0.1,1.4,0.3c12.1,4.9,23.8,10.7,35,17.5
					c1,0.7,1.6,1.6,1.9,2.8c1.6,6.4,3.2,12.8,4.4,19.3c2,10.8,7,20.1,14.8,27.8c0.9,0.9,2,1.3,3.2,1.2c0.6-0.1,1.3-1.7,1.3-2.7
					c0.7-6.4,0.3-12.8-1.3-19.1c-1.5-6.3-4.1-12.1-7.7-17.5c-0.2-0.3-0.3-0.7-0.5-1c5,3.6,9.9,7.4,14.7,11.3
					c10.9,8.7,13.8,20.4,13.3,33.7c-4.8,0.5-6.9,2.9-5.9,6.3c0.9,3.2,2.9,5.4,6,6.4c0.6,0.2,1.3,0.3,1.9,0.3s1.3-0.3,1.8-0.7
					c0.6-0.4,1-0.9,1.3-1.5c0.3-0.6,0.5-1.2,0.5-1.9c-0.5-2-1.1-3.9-1.9-5.8c-0.3-0.6-0.5-1.3-0.5-2c0.6-6.7-0.2-13.3-2.5-19.6
					c-0.2-0.6-0.4-1.2-0.5-1.8c3.7,3.5,6.9,7.3,10.1,11c4.3,4.9,7.1,10.4,8.5,16.8c0.4,1.9,0.9,3.7,1.4,5.6c1,3.8,3,7,5.9,9.6
					c2.4,2.1,4.8,4.2,7.2,6.2c3,7.4,5.9,14.8,6.1,23c0.7,9.1,0.1,18.1-1.8,27.1c-6.1-0.7-8.7,0.8-9.6,5.8h4.5c0.5-0.7,1-1.2,1.6-1.1
					c0.8,0.2,1.5,0.6,2.1,1.1h6.2c-0.4-1.1-0.8-2.2-1.2-3.2c-0.3-0.6-0.4-1.2-0.4-1.9c1.8-6.9,2.4-14,1.9-21.2
					c-0.2-2.7-0.2-5.5-0.2-8.2c3.1,6.1,5.4,12.4,8.3,18.4c1.3,2.8,2,5.7,2.1,8.7c0.1,2.5-0.4,4.9-1.1,7.3h11
					c-0.2-0.4-0.4-0.8-0.6-1.3c-2.4-6.4-4.7-12.8-6.9-19.3c-0.1-0.3-0.2-0.6-0.2-0.9c5.6,5.1,11.1,10.5,17.1,15.3
					c3.5,2.9,7.4,4.9,11.5,6.1h12.1C642.3,326,641.9,324.9,641.4,324.1z M548.6,186.3c0.7-0.1,1.3,0.1,1.8,0.5
					c0.5,0.9,0.9,1.9,1.3,3c-0.7,0.4-1.5,0.7-2.3,0.9c-0.7,0-1.4-0.5-2.7-1l-0.9-2.6C546.6,186.7,547.6,186.5,548.6,186.3z
					 M451.9,136.4L451.9,136.4c0.2-0.4,0.6-0.8,1-1.4c1.7-2,3.3-2.2,4.8-0.7c2.1,2.3,2.2,4-0.3,5.5c-1.5,0.8-3,1.1-4.7,0.8
					C450.3,140.3,450.2,139,451.9,136.4z M266.2,129.1c0.2-0.5,0.8-1.3,1.3-1.3c1.1,0,2.2,0.1,3.2,0.4c0,0.8-0.1,1.6-0.4,2.4
					c-0.4,0.6-1.2,1-2.2,1.8l-2.7-0.4C265.5,131,265.8,130.1,266.2,129.1z M174.7,187.8c-0.3-0.4-0.5-1-0.6-1.5
					c-0.8-2.5-0.2-4,1.8-4.5c2.9-0.7,4.6,0.1,4.6,3c0,1.7-0.6,3.2-1.6,4.5C177.2,191,176,190.6,174.7,187.8z M126.1,287.7
					c-2.2,3.8-5,7-8.5,9.6c0.1-4.5,1.2-8.7,3.4-12.6c2.2-3.9,5.3-7.1,9.1-9.5C129.7,279.7,128.3,283.8,126.1,287.7z M180.2,243.3
					c0.5-1.3,1.4-2.3,2.7-3.1c0.9-0.4,1.8-0.4,2.8-0.2c0.9,0.3,1.7,0.8,2.3,1.5c0.5,1.1,0.5,2.2,0.1,3.3c-0.4,1.1-1.1,1.9-2.2,2.5
					h-0.1c-2.8,1.3-5.3,1.4-5.9,0C179.6,246,179.7,244.6,180.2,243.3z M146.9,242.3c-0.6,2.5-1.4,4.9-2.1,7.4
					c-3.8-16.5-0.9-38.3,6.3-50.1c2.2,5.8,2.8,11.7,1.9,17.8C151.2,225.7,148.9,234,146.9,242.3z M211.4,213.1
					c-11.8,9.2-25.4,11.7-38.9,14.9C183.8,219.4,196,212.9,211.4,213.1z M241.8,186.7c0.6,0.1,1.6,0.8,1.6,1.3c0,0.8-0.4,1.4-1,1.9
					c-0.9,0.5-1.8,0.7-2.8,0.6c-1-0.1-1.8-0.6-2.5-1.3C237.8,186.6,239.7,186.4,241.8,186.7z M204.9,186.4
					c-0.3-9.1,16-38.3,25.4-44.7c-0.9,5.1-2.4,10-4.7,14.7c-3.2,6.6-7.1,12.6-11.9,18.2C210.5,178.4,207.7,182.6,204.9,186.4z
					 M272.5,164.5c7.2,1.1,14,3.6,20.2,7.5c-15.3,4.3-28.1-1.6-41.8-6.4C258,163.8,265.2,163.4,272.5,164.5z M287.1,144
					c4.8-8.9,11.8-15.5,21-19.6C302.9,132.9,294.8,138.2,287.1,144z M320.7,160.7c0.4,0.3,0.6,0.7,0.7,1.2c-0.6,0.7-1.3,1.1-2.2,1.3
					c-0.9,0.2-1.7,0-2.5-0.4c0-0.4-0.1-0.5-0.1-0.5C317.5,160.2,318.9,160.1,320.7,160.7z M341.1,144.6c-4.4,0-8.7-0.9-12.7-2.7
					c4-2.2,8.2-3.3,12.7-3.3c4.5,0,8.8,1.1,12.7,3.3C349.8,143.7,345.5,144.6,341.1,144.6z M402.9,170.9c1-1,2.2-1.6,3.7-1.8
					c1.4-0.2,2.7,0.1,4,0.8c0.8,0.6,1.3,1.4,1.5,2.3c0.2,0.9,0.2,1.9-0.2,2.8c-0.7,0.9-1.7,1.4-2.8,1.6c-1.1,0.2-2.2-0.1-3.2-0.7
					C403.3,174.2,402,172,402.9,170.9z M383.4,141.5c12.3-11.6,32.7-20,46.5-19.6c-3.9,4.8-8.7,8.3-14.5,10.5
					c-8.1,2.7-16.4,4.9-24.6,7.3C388.4,140.4,385.9,140.9,383.4,141.5z M448.3,180.9c-13.8-5.6-22.9-16.1-32.4-26.2
					C429.1,160.2,440.7,167.5,448.3,180.9z M481.9,191.1c2.7-0.6,3.8,1,4.6,3c0.2,0.7,0.1,1.4-0.4,2c-0.7,0.4-1.4,0.4-2.2,0
					c-0.9-0.5-1.5-1.2-1.9-2.1C481.6,193,481.6,192.1,481.9,191.1L481.9,191.1z M519.7,161.6L519.7,161.6c-4.9,1.8-9.9,2.9-15.1,3.3
					c-7.3,0.5-14.5,0.2-21.7-1.2c-5-0.9-9.9-1.2-14.6-1.7C476.1,157.2,509.3,156.8,519.7,161.6z M521.1,209.5
					c2.7,6.8,3.9,13.9,3.7,21.3c-11.4-10.9-12.8-25.2-15.4-39.4C514.5,196.6,518.4,202.7,521.1,209.5z M548.5,249.3
					c0.1,0.4-0.5,1.2-0.7,1.2c-0.9-0.1-1.7-0.5-2.3-1.2c-0.6-0.7-0.9-1.5-0.9-2.4h0c0.3-0.2,0.4-0.3,0.7-0.3
					C547.3,246.1,548.2,247.5,548.5,249.3z M546,211.8c10.1-0.3,19.3,2.5,27.5,8.4C563.6,220,554.9,215.6,546,211.8z M572.6,258.9
					c-2.2-3.8-3.6-7.9-4.1-12.3c3.9,2.3,6.9,5.5,9.2,9.4c2.3,3.9,3.5,8.1,3.6,12.6C577.8,266,574.8,262.8,572.6,258.9z M620.2,317.2
					c-6.4-5.7-12.4-11.7-18.6-17.7c-1.8-1.8-3.5-3.7-5.3-5.5c16.2,4.9,33.7,18.2,40.3,30.5C630.4,323.5,625,321.1,620.2,317.2z
					 M622.5,474.2h-3.4c3.6,7.4,5.1,15.3,4.2,23.8c-4.1-7.5-5-15.6-5.9-23.8h-11.7c-3.9,4.5-8.9,8.1-14.7,11.2
					c-2.8-3.9-5.9-4.5-8.3-2.1c-2.4,2.3-3.2,5.1-2.6,8.4c0.1,0.7,0.3,1.3,0.7,1.8c0.4,0.5,0.9,1,1.5,1.3c0.6,0.3,1.2,0.4,1.9,0.4
					c0.7,0,1.3-0.2,1.9-0.5c1.5-1.4,2.9-2.9,4.1-4.5c0.5-0.5,0.8-1.2,1.4-1.4c6.1-2.9,11.4-6.9,15.7-12l1.3-1.3
					c-1.3,4.9-2.9,9.6-4.5,14.3c-2.1,6.2-5.5,11.5-10.4,15.9c-1.4,1.3-2.8,2.7-4.1,4c-2.8,2.8-4.7,6.1-5.5,10
					c-0.7,3.2-1.3,6.4-1.8,9.6c-4.8,6.2-9.8,12.3-16.7,16.5c-7.6,5.1-15.7,9.1-24.4,11.9c-2.8-6.4-5.7-7.5-12-4.5l-1.5,0.7
					c-1,0.5-1.8,1.2-2.5,2.1c-0.7,0.9-1.2,1.8-1.5,2.9c-0.3,1.1-0.4,2.2-0.2,3.3c0.1,1.1,0.5,2.1,1,3.1c0.6,0.8,1.4,1.5,2.2,2.1
					s1.8,1,2.8,1.2c1,0.2,2,0.3,3,0.2c1-0.1,2-0.4,2.9-0.9c2-1.8,3.8-3.7,5.4-5.9c0.4-0.5,0.9-1.2,1.4-1.3
					c6.9-1.9,13.3-4.9,19.3-8.9c2.3-1.5,4.6-2.9,6.9-4.3c-3.8,5.7-8,10.9-11.8,16.4c-1.7,2.5-3.9,4.6-6.5,6.2
					c-2.6,1.6-5.4,2.6-8.5,3.1c-15,2.9-29.6,6.7-42,16.1c-1.4,1-4,1.2-3.4,3.8c0.5,2.6,3.1,2.2,4.9,2.4c11.7,1.1,22.5-1.5,32.4-7.7
					c0.7-0.4,1.4-0.7,2.1-1.1l0.4,0.6c-5.7,5.7-11.8,11-18.2,15.9c-10.3,6.5-21.6,10.4-33.8,11.6c-0.7,0-1.2-0.2-1.7-0.7
					c-0.6-0.9-1.4-1.7-2.3-2.3c-0.9-0.6-1.9-1-3-1.2c-1.1-0.2-2.2-0.2-3.3,0.1s-2.1,0.7-3,1.4c-1.1,0.7-1.9,1.7-2.3,3
					c-0.4,1.2-0.5,2.5-0.1,3.8c0.4,1.3,1.1,2.2,2.3,2.9c1.1,0.7,2.3,0.8,3.6,0.5c2.6-0.8,5-1.9,7.4-3.2c0.6-0.3,1.2-0.9,1.8-0.9
					c7.8-0.6,15.3-2.3,22.7-5c-0.3,0.4-0.6,0.7-1,1c-10.4,8-21.3,15.2-32.8,21.5c-1.1,0.5-2.2,0.6-3.4,0.3c-6.4-1.9-12.8-3.7-19-5.9
					c-10.5-3.6-21-3.9-31.7-0.8c-1.2,0.3-2,1-2.5,2c-0.2,0.6,0.9,1.9,1.7,2.5c5.2,3.8,11,6.7,17.2,8.5c6.2,1.8,12.6,2.5,19,2.1
					c0.4,0,0.7,0,1.1,0c-5.6,2.6-11.4,4.8-17.1,7c-12.9,5.1-24.6,1.8-35.8-5.3c2-4.4,1-7.3-2.7-8c-3.2-0.9-6.1-0.2-8.5,2
					c-0.5,0.4-0.9,0.9-1.2,1.5c-0.3,0.6-0.4,1.3-0.3,1.9c0,0.7,0.2,1.3,0.6,1.9c0.4,0.6,0.8,1,1.4,1.4c2,0.6,4,1,6,1.3
					c0.7,0,1.3,0.2,2,0.5c5.5,3.9,11.6,6.4,18.2,7.6l1.9,0.4c-5,1.4-9.8,2.2-14.6,3.2c-6.4,1.3-12.7,1-18.9-1.1
					c-1.8-0.6-3.7-1.1-5.5-1.6c-3.8-1.1-7.6-1-11.4,0.2c-2.9,0.9-5.8,2-8.7,3c-7.9-1.1-15.8-2.3-23-6.3c-8.2-4-15.7-9-22.5-15.1
					c4.3-5.7,3.6-8.7-2.1-12.6c-0.4-0.3-0.9-0.6-1.4-0.9c-0.9-0.6-2-1-3.1-1.2c-1.1-0.2-2.2-0.1-3.3,0.1c-1.1,0.3-2.1,0.7-3,1.4
					c-0.9,0.7-1.6,1.5-2.2,2.5c-0.4,0.9-0.7,1.9-0.7,3c-0.1,1,0.1,2,0.3,3c0.3,1,0.7,1.9,1.4,2.7c0.6,0.8,1.4,1.5,2.2,2.1
					c2.5,0.8,5.1,1.4,7.8,1.7c0.7,0,1.3,0.2,1.9,0.6c5.2,5.1,11,9.2,17.6,12.2c2.4,1.3,4.8,2.6,7.2,3.9c-6.8-0.4-13.4-1.5-20.1-2
					c-3.1-0.2-5.9-1.1-8.6-2.5c-2.7-1.5-5-3.4-6.9-5.8c-9.8-11.6-20.5-22.3-34.8-28.4c-1.7-0.7-3-2.8-4.9-1.1
					c-2,1.7-0.4,3.7,0.4,5.5c4.9,10.6,12.5,18.7,22.8,24.2c0.7,0.4,1.3,0.8,2,1.3l-0.3,0.7c-7.9-2.1-15.6-4.7-23.2-7.8
					c-10.8-5.7-19.8-13.5-26.9-23.4c-0.4-0.6-0.4-1.2-0.2-1.8c0.5-1,0.8-2,0.9-3.2c0.1-1.1-0.1-2.2-0.5-3.2c-0.4-1-0.9-2-1.7-2.8
					c-0.8-0.8-1.7-1.4-2.7-1.9c-1.2-0.6-2.4-0.8-3.7-0.5c-1.3,0.2-2.4,0.9-3.3,1.8c-0.9,1-1.3,2.1-1.3,3.4c0,1.3,0.4,2.4,1.3,3.4
					c2,1.8,4.1,3.4,6.4,4.8c0.5,0.4,1.3,0.6,1.7,1.1c4.4,6.4,9.6,12.1,15.6,17.1c-0.5,0-0.9-0.1-1.4-0.3
					c-12.1-4.9-23.8-10.7-35-17.5c-1-0.7-1.6-1.6-1.9-2.8c-1.6-6.6-3.2-13-4.4-19.4c-2.1-10.8-7.1-20.1-15-27.8
					c-0.8-0.8-1.9-1.2-3.1-1.2c-0.6,0.1-1.3,1.7-1.3,2.7c-0.7,6.4-0.3,12.8,1.3,19.1c1.5,6.3,4.1,12.1,7.7,17.5
					c0.2,0.3,0.3,0.7,0.5,1c-5-3.6-9.9-7.4-14.7-11.3c-10.9-8.7-13.8-20.4-13.3-33.7c4.8-0.5,6.9-2.9,5.9-6.1
					c-0.9-3.2-2.9-5.4-6-6.4c-0.6-0.3-1.3-0.3-1.9-0.3c-0.7,0.1-1.3,0.3-1.8,0.6c-0.6,0.4-1,0.8-1.3,1.4c-0.3,0.6-0.5,1.2-0.5,1.9
					c0.5,2,1.1,3.9,1.9,5.8c0.3,0.6,0.5,1.3,0.5,2c-0.6,6.7,0.2,13.3,2.5,19.6c0.2,0.6,0.4,1.2,0.5,1.8c-3.7-3.5-6.9-7.3-10.1-11
					c-4.3-4.9-7.1-10.4-8.5-16.8c-0.4-1.9-0.9-3.7-1.4-5.6c-1-3.8-3-7-5.9-9.6c-2.2-2-4.5-3.9-6.8-5.9c-3.1-7.5-6-15-6.2-23.3
					c-0.7-9.1-0.1-18.1,1.8-27.1c7,0.8,9.3-1.3,9.9-8.2v-1h-4c-0.4,2.7-1.6,4.6-2.7,4.5c-1.4-0.4-2.5-1.1-3.4-2.3
					c-0.5-0.7-0.8-1.4-1-2.2h-4.6c0.5,2.3,1.2,4.5,2.2,6.7c0.3,0.6,0.4,1.2,0.4,1.9c-1.8,6.9-2.4,14-1.9,21.2
					c0.2,2.7,0.2,5.5,0.2,8.2c-3.1-6.1-5.4-12.4-8.3-18.4c-1.3-2.8-2-5.7-2.1-8.7c-0.1-3.1,0.4-6,1.6-8.9c0.2-0.6,0.4-1.3,0.7-1.9
					h-3.9c-0.1,0.4-0.3,0.8-0.4,1.2c-0.1-0.4-0.1-0.8-0.1-1.2h-9.7c0.9,1.5,1.7,3,2.3,4.6c2.4,6.4,4.7,12.8,6.9,19.3
					c0.1,0.3,0.2,0.6,0.2,0.9c-5.6-5.1-11.1-10.5-17.1-15.3c-6-5-13-7.5-20.8-7.6c-1.1,0-2,0.4-2.8,1.2c-0.4,0.5,0.2,2,0.7,2.8
					c1.3,2,2.9,3.9,4.3,5.8c8.7,11.9,20,20.6,33.8,25.9c2.5,1,5.2,1.6,7.7,2.6c1,0.3,1.9,0.9,2.5,1.7c1.9,3.2,3.5,6.5,5.3,9.6
					c1.2,2.1,2.6,4.1,3.9,6.1c-0.3,0.4-0.6,0.9-0.7,1.4c-0.1,2.3,0,4.6,0.2,6.9c0.3,3.8,1.4,7.4,3.2,10.8s4.3,6.2,7.4,8.5
					c4.7,3.2,8.8,7,12.2,11.5c3.8,5.6,8.5,10.7,12.8,16.1c-3.2-1.3-6.6-2.6-9.9-3.9c-6.2-2.4-12.6-3.5-19.3-3.2
					c-1,0.3-2,0.7-2.9,1.3c0.4,0.9,0.7,2,1.4,2.6c2.8,2.2,5.7,4.3,8.7,6.1c4.2,2.5,8.8,4.2,13.6,5.1c4.8,0.9,9.7,1,14.5,0.2
					c1.2-0.1,2.3,0.3,3.2,1.1c4.3,3.5,8.4,7.2,12.6,10.8c2.4,2.1,4.8,4,8,6.4c-7-1.3-14-1.6-21-0.7c-2.1,0.4-4.1,0-5.8-1.3
					c-1.2-0.8-2.5-1.3-4-1.5c-1.8-0.4-3.3,0.1-4.6,1.5c-1.2,1.4-1.6,3-1,4.7c0.4,1.5,1.2,2.8,2.4,3.9c1.2,1.1,2.5,1.8,4.1,2.1
					c0.7,0.3,1.4,0.4,2.1,0.4c0.7,0,1.4-0.2,2.1-0.5c0.7-0.3,1.2-0.8,1.7-1.4c0.5-0.6,0.8-1.2,1-1.9c0.2-0.7,0.4-1.3,0.7-2.5
					c5.9,0,11.8-0.4,17.7,0c6.8,0.2,13,2.3,18.7,6.1c5.1,3.6,10.7,6.4,16.1,9.6c3.1,1.7,6.3,3.5,8.9,4.9c-6.7-0.4-13.8-1.2-20.9-1.2
					c-8.4-0.1-16.4,1.6-24,5.3c-1,0.4-1.6,1.7-2.4,2.6c0.9,0.7,1.8,1.8,2.8,2c7.1,1.4,14.3,2.8,21.5,3.8c13,1.7,25.5,0.1,37.5-4.9
					c0.8-0.3,1.6-0.3,2.5,0c4.7,1.6,9.3,3.3,14,4.8c6,2,12,3.8,18,5.7c0,0.2,0,0.2,0,0.2c-6.2,2-12.3,3.9-18.5,5.8
					c-0.4,0.2-1-0.2-1.5-0.2c-2.4-0.3-4.8-0.3-7.3,0c-1.4,0.5-2.7,1.3-3.6,2.4c-1,1.2-1.6,2.5-1.7,4c0.1,1.5,0.6,2.8,1.5,4
					c0.9,1.2,2.1,2,3.5,2.4c1.3,0.5,2.5,0.7,3.9,0.4c1.3-0.3,2.5-0.9,3.4-1.9c1.3-1,2.2-2.3,2.9-3.8s0.9-3.1,0.7-4.7
					c7.4-3.1,15-5.1,23-6.1c2.5-0.3,5-0.2,7.5,0.2c6.7,1.1,13.4,2.3,20.1,3.6c0.3,0.1,0.6,0.1,0.9,0.3c-7.2,2.3-14.6,4.4-21.8,7.2
					c-7.4,2.7-13,7.4-17,14.2c-0.6,1-0.7,2-0.3,3c0.3,0.6,1.8,0.8,2.7,0.8c2.4-0.2,4.8-0.5,7.2-0.8c14.6-1.5,27.7-6.9,39.2-16.1
					c2.1-1.7,4-3.6,6.1-5.4c0.8-0.7,1.7-1.2,2.7-1.3c3.7-0.1,7.5,0.2,11,0.2c2.4,0,4.7-0.2,7.1-0.3c0.2,0.4,0.5,0.8,0.9,1.1
					c2,1.2,4,2.3,6.1,3.2c3.5,1.7,7.1,2.6,11,2.7c3.9,0.1,7.6-0.6,11.1-2.2c5.1-2.5,10.4-4.1,16.1-4.8c6.9-0.5,13.7-2.1,20.5-3.2
					c-2.7,2.1-5.5,4.3-8.3,6.6c-5.2,4.2-9.3,9.2-12.4,15.1c-0.3,1.1-0.4,2.1-0.3,3.2c1,0,2.1,0.4,2.9,0c3.3-1.3,6.5-2.8,9.6-4.6
					c4.3-2.4,8-5.5,11.3-9.2c3.2-3.7,5.7-7.9,7.4-12.5c0.5-1.1,1.4-1.9,2.6-2.3c5.2-1.9,10.4-3.6,15.6-5.5c3.1-1.1,6-2.3,9.6-3.7
					c-4.6,5.4-8.3,11.3-11.1,17.8c-0.7,2.1-2,3.5-4,4.4c-1.3,0.6-2.4,1.5-3.2,2.7c-1.2,1.4-1.6,2.9-1,4.7c0.6,1.8,1.8,2.8,3.6,3.2
					c1.5,0.4,3,0.4,4.5,0c1.5-0.4,2.8-1.2,3.8-2.3c0.6-0.5,1-1,1.4-1.7c0.3-0.7,0.5-1.3,0.6-2.1c0-0.7-0.1-1.4-0.3-2.1
					c-0.3-0.7-0.7-1.3-1.2-1.8l-1.8-1.9c2.9-5.1,5.7-10.4,8.9-15.3c3.6-5.8,8.5-10.1,14.6-13.1c5.7-2.6,11-5.8,16.4-9
					c3.1-1.8,6.2-3.7,8.8-5.3c-3.7,5.6-7.9,11.4-11.5,17.5c-4.3,7.2-6.8,15-7.5,23.4c0.1,1.2,0.5,2.3,1.1,3.4
					c1.1-0.4,2.5-0.6,3.2-1.4c4.8-5.5,9.6-10.9,14-16.7c8-10.4,12.8-22.1,14.4-35.2c0.2-0.9,0.6-1.5,1.3-2.1
					c3.7-3.2,7.5-6.4,11.2-9.6c4.7-4.3,9.3-8.6,14-12.8c0,0.2,0,0.2,0,0.2c-1.4,6.3-2.8,12.5-4.2,18.9c-0.1,0.5-0.7,0.8-0.9,1.3
					c-1.4,2-2.6,4.2-3.6,6.4c-0.3,1.5-0.2,3,0.3,4.4c0.5,1.4,1.4,2.6,2.6,3.5c1.3,0.6,2.7,0.9,4.2,0.6c1.5-0.2,2.8-0.8,3.8-1.8
					c1.1-0.8,1.9-1.9,2.3-3.2c0.4-1.3,0.4-2.6,0-3.9c-0.2-1.6-0.8-3.1-1.8-4.4s-2.2-2.3-3.7-3c1-7.9,3.1-15.6,6.2-22.9
					c1-2.3,2.3-4.5,4-6.4c4.3-5.3,8.7-10.4,13.1-15.6c0.2-0.2,0.4-0.4,0.7-0.6c-1.5,7.4-3.6,14.9-4.7,22.5c-1.3,7.7,0,15,3.8,21.8
					c0.6,1,1.4,1.6,2.5,1.8c0.6,0,1.6-1.2,2-2c1.1-2.2,1.9-4.4,2.9-6.6c6-13.5,7.9-27.5,5.7-42c-0.4-2.7-1.2-5.3-1.6-8
					c-0.2-1-0.2-2,0.2-3c1.8-3.4,3.9-6.4,5.7-9.6c1.2-2.2,2.3-4.4,3.4-6.6c0.4,0,0.7-0.1,1.1-0.2c2-1.1,4-2.3,5.9-3.7
					c3.2-2.2,5.8-4.9,7.8-8.2c2-3.3,3.2-6.9,3.6-10.7c0.4-5.6,1.7-10.9,3.8-16.1c3.1-6.2,5.1-12.8,7.5-19.3c0.5,3.4,1,6.9,1.6,10.5
					c1,6.6,3.4,12.7,7,18.3c0.5,0.8,1.7,1.2,2.5,1.8c0.5-0.8,1.5-1.6,1.5-2.5c0.5-3.5,0.8-7,0.8-10.5c0-4.9-0.8-9.7-2.4-14.4
					C623.8,476.8,623.1,475.5,622.5,474.2z M585.5,490.7c-0.3,0.3-1.4,0.2-1.4,0c-0.3-0.9-0.3-1.7,0-2.6c0.3-0.9,0.9-1.5,1.6-2
					c0.3,0.2,0.5,0.2,0.5,0.2c0.6,0.7,0.8,1.5,0.6,2.3C586.7,489.6,586.3,490.3,585.5,490.7z M535.2,560.8c-0.5,1.3-1.4,2.3-2.7,3.1
					c-0.9,0.4-1.8,0.4-2.8,0.2s-1.7-0.8-2.3-1.5c-0.4-1.1-0.4-2.2,0-3.2c0.4-1.1,1.1-1.9,2.2-2.4c2.8-1.3,5.3-1.4,5.9-0.1
					C535.8,558.2,535.7,559.5,535.2,560.8z M478.5,615.1c-0.8,2.6-2.8,2.8-4.8,2.4c-0.6-0.1-1.6-0.8-1.6-1.3c0-0.8,0.4-1.4,1-1.9
					c0.9-0.5,1.8-0.7,2.8-0.6C477,613.8,477.8,614.2,478.5,615.1L478.5,615.1z M394.8,643.4c-0.4-0.3-0.6-0.7-0.7-1.2
					c0.6-0.7,1.3-1.1,2.2-1.3c0.9-0.2,1.7,0,2.5,0.4v0.1c0,0.4,0.1,0.5,0.1,0.4C398,643.9,396.6,644.1,394.8,643.4z M312.8,633.3
					c-1,1.1-2.3,1.7-3.7,1.9c-1.5,0.2-2.8-0.1-4.1-0.8c-1-0.6-1.5-1.4-1.7-2.6c-0.2-1.1,0-2.1,0.7-3c0.7-0.9,1.6-1.4,2.7-1.5
					c1.1-0.1,2.1,0.2,2.9,1C312.1,630,313.4,632.2,312.8,633.3z M233.6,613.1c-2.7,0.6-3.8-1-4.5-3c-0.2-0.7-0.1-1.4,0.4-2
					c0.7-0.4,1.4-0.4,2.2,0c0.9,0.5,1.5,1.2,1.9,2.1C233.9,611.2,233.9,612.2,233.6,613.1z M78.9,479.8c6.1,1,11.6,3.4,16.4,7.3
					c6.4,5.7,12.4,11.7,18.6,17.7c1.8,1.8,3.5,3.7,5.3,5.5C102.9,505.3,85.5,492,78.9,479.8z M137.7,548.3
					c-2.3-3.9-3.5-8.1-3.6-12.6c3.6,2.6,6.5,5.8,8.7,9.6c2.2,3.8,3.6,7.9,4.1,12.3C143.1,555.3,140,552.2,137.7,548.3z M167,554.9
					c-0.1-0.4,0.7-1.2,0.7-1.2c0.9,0.1,1.7,0.5,2.3,1.2c0.6,0.7,0.9,1.5,0.9,2.4c-0.3,0.2-0.4,0.3-0.7,0.3
					C168.2,558.1,167.3,556.8,167,554.9z M141.9,584c10,0.2,18.6,4.6,27.5,8.4C159.3,592.7,150.1,589.9,141.9,584z M166.9,617.9
					c-0.7,0.1-1.3-0.1-1.8-0.5c-0.5-0.9-0.9-1.9-1.3-3c0.7-0.4,1.5-0.7,2.3-0.9c0.7,0,1.4,0.5,2.7,1l0.9,2.6
					C168.9,617.5,167.9,617.8,166.9,617.9z M194.4,594.7c-2.7-6.8-3.9-13.9-3.7-21.3c11.4,10.9,12.8,25.2,15.4,39.4
					C200.9,607.6,197,601.6,194.4,594.7z M195.7,642.7L195.7,642.7c4.9-1.8,9.9-2.9,15.1-3.3c7.3-0.5,14.5-0.2,21.7,1.2
					c5,0.9,9.9,1.2,14.6,1.7C239.4,647,206.1,647.5,195.7,642.7z M263.6,667.8c-0.3,0.4-0.6,0.8-1,1.4c-1.7,2-3.3,2.2-4.8,0.7
					c-2.1-2.3-2.2-4,0.3-5.5c1.5-0.8,3-1.1,4.7-0.8C265.1,664,265.3,665.3,263.6,667.8z M267.1,623.3c13.8,5.5,22.9,16,32.3,26.1
					C286.3,643.9,274.7,636.6,267.1,623.3z M285.5,682.3c3.9-4.8,8.7-8.3,14.5-10.5c8.1-2.7,16.4-4.9,24.6-7.3
					c2.4-0.7,4.9-1.2,7.4-1.8C319.7,674.2,299.4,682.7,285.5,682.3z M374.3,665.6c-4.5,0-8.8-1.1-12.7-3.3c4.1-1.8,8.3-2.7,12.7-2.7
					c4.4,0,8.7,0.9,12.7,2.7C383.1,664.5,378.9,665.6,374.3,665.6z M407.4,679.9c5.1-8.5,13.2-13.8,20.9-19.5
					C423.6,669.2,416.6,675.7,407.4,679.9z M449.3,675.1c-0.2,0.5-0.8,1.3-1.3,1.3c-1.1,0-2.2-0.1-3.2-0.4c0-0.8,0.1-1.6,0.4-2.4
					c0.4-0.6,1.2-1,2.2-1.8l2.7,0.4C449.9,673.2,449.6,674.2,449.3,675.1z M443,639.7c-7.2-1.1-14-3.6-20.2-7.5
					c15.3-4.3,28.1,1.6,41.8,6.4C457.4,640.5,450.2,640.8,443,639.7z M485.2,662.5c0.9-5.1,2.4-10,4.7-14.7
					c3.2-6.6,7.1-12.6,11.9-18.2c3.2-3.8,6-8,8.8-11.8C510.9,627,494.5,656.1,485.2,662.5z M540.8,616.4c0.3,0.4,0.5,1,0.6,1.5
					c0.8,2.5,0.2,4-1.8,4.5c-2.9,0.7-4.6-0.1-4.6-3c0-1.7,0.6-3.2,1.6-4.5C538.2,613.2,539.4,613.7,540.8,616.4z M504.1,591.1
					c11.8-9.2,25.4-11.7,38.9-14.9C531.6,584.8,519.5,591.3,504.1,591.1z M564.4,604.6c-2.2-5.8-2.8-11.7-1.9-17.8
					c1.7-8.3,4-16.6,6-24.9c0.6-2.5,1.4-4.9,2.1-7.4C574.5,571.1,571.6,592.9,564.4,604.6z M594.4,519.5c-2.2,3.9-5.3,7.1-9.1,9.5
					c0.5-4.4,1.8-8.5,4-12.4c2.2-3.8,5-7,8.5-9.6C597.8,511.4,596.6,515.6,594.4,519.5z M91.3,326.7h3.6c-2.5-6.4-3.4-13.2-2.6-20.4
					c3.5,6.4,4.7,13.4,5.5,20.4h4.2c-0.4-2.6-0.7-5.3-1.2-8c-1.2-6.6-3.6-12.6-7.4-18.1c-0.5-0.8-1.7-1.2-2.5-1.8
					c-0.5,0.8-1.5,1.6-1.5,2.5c-0.5,3.5-0.8,7-0.8,10.5c0,4.9,0.8,9.7,2.4,14.4C91.1,326.2,91.3,326.4,91.3,326.7z"/>
			</g>
		</g>
	</g>
</g>
<g>
	<path class="st0" d="M361.8,214.9c-4.7-0.4-9.1-2-13.9-2c-5,0-9.9,0.7-14.7,1.7c-5.1,1.1-10.1,2.5-15.2,3.8c-0.4,2.7-0.7,5.5-1,8.2
		c-1.6,13.1-2.9,26.1-3.5,39.3c-0.5,11.1-1.2,22.6-0.5,33.8c0.2,3,0.1,5.5,1.6,7.7c0.9,1.3,2.7,2.6,5.3,1.4c2.3-1.1,4-3.1,5.5-5.2
		c7.3-10,11.1-22.8,14.6-34.6c0.6-2,3.7-1,3.1,0.9c-4.1,13.6-8.8,29.3-18.8,39.8c-3.7,3.8-8.9,5.7-13.9,2.9c-3.7-2-6-6.9-7.1-9.6
		c-4.6-11.5-4.4-24.2-3.9-36.4c0.7-15.1,2-30.3,3.8-45.4c-12.5,1.4-27.8-0.6-34.9-12.1c-0.3-0.4,0.3-0.9,0.7-0.5
		c9.3,10.2,21.8,12.1,34.5,10.6c1.3-10.7,3-21.4,4.8-32c0.6-3.7,4.9-5.6,8.2-4.6c3.8,1.1,5.7,4.8,5.2,8.5
		c-1.1,8.4-2.3,16.7-3.5,25.1c7.1-1.9,14.2-3.9,21.5-4.8c6.7-0.8,16.5-1.7,22.4,2.4C362.5,214.1,362.4,214.9,361.8,214.9z"/>
	<path class="st0" d="M419.7,270.5c-2.9,7.3-6.2,14.2-10.7,20.6c-3.2,4.5-6.2,9.6-10.1,13.4c-6.3,6.1-16.2,9.1-23,1.7
		c-6.7-7.3-3.5-20.4-2.5-29.1c0.5-4.1,0.9-8.1,0.6-12.4c-0.1-1.8-0.9-5.8-3.3-5.2c-3.6,0.8-6.1,5.6-7.5,8.6c-2.9,6-5,12.5-6.6,19
		c0.3,1.6,0.6,3.3,1.2,4.9c0.6,1.5-1.4,2.3-2.4,1.3c-3.2-3.1-6.4-5.8-8.6-9.8c-2.1-3.9-3.8-8-5-12.3c-2.7-9.2-2.9-18.7-2.1-28.2
		c1.3-15.4,5.4-31,13.9-44.1c4.9-7.6,14.4-16.6,24.3-14c16.2,4.3,5.5,31.4,0.6,40.4c-6.5,11.9-15.7,22.3-25.7,31.5
		c0.1,5.3,0.5,10.7,1.2,15.8c0.3,2.1,0.7,4.2,1.1,6.3c1.1-4.7,2.5-9.3,4.4-13.8c1.8-4.1,3.8-8.8,7.2-11.7
		c8.2-7.1,17.9,2.2,20.3,10.3c2.8,9.4-0.8,19.6-1,28.8c0,1.1,0,2.3,0.1,3.4c0-0.2,0.4,1.6,0.4,1.8c0,0.1,0.1,0.4,0.2,0.6
		c0.2,0.6,0.5,1.1,0.7,1.7c0.1,0.3,0.6,1,0,0c0.2,0.3,0.4,0.8,0.7,1c2.7,2.2,6,0.7,8.7-0.9c5-3.1,8.3-7.4,11.1-12.5
		c3.4-6.1,6.3-12.6,8.9-19.1C417.4,266.5,420.5,268.5,419.7,270.5z M352.5,253.5c9.2-9.1,17.6-19.1,23.6-30.5
		c3.6-6.8,6-14.4,6.6-22.1c0.3-3.9,0.3-9.1-3.4-11.5c-2-1.3-4.9-1.6-7.1-0.7c-3.5,1.5-5.8,5.1-7.5,8.4c-2.4,4.7-4.3,9.9-5.8,15
		c-3.8,12.9-6.3,26.4-6.3,39.8C352.5,252.4,352.5,253,352.5,253.5z"/>
	<path class="st0" d="M469.6,270.2c-7.6,13.4-16.8,26.3-31.6,32.3c-5.8,2.4-11.1,4-16.9,0.6c-6.5-3.8-9.5-10.5-10.5-17.6
		c-1.7-11.8,3.1-26.9,14.7-32.3c6.4-2.9,15.3-3.2,19.9,3c3,4.1,3,11.4,0.6,15.7c-4,7.2-12.9,13.1-21.5,12.4c0.3,2.4,0.9,4.7,1.8,7
		c0.7,1.8,1.6,3.6,3,4.9c1.5,1.4,1.8,1.7,3.3,2.1c4.9,1.3,9.6-1.7,13.4-4.4c8.6-6.1,16.9-15.5,20.8-25.4
		C467.4,266.6,470.6,268.4,469.6,270.2z M424.2,281.2c3.6-0.2,7-0.7,10.4-2.6c3.9-2.2,7.8-6.2,8.5-10.8c0.8-5.1-3.7-6.5-7.8-5
		c-2.1,0.7-3.8,2.2-5.3,3.8c-1.4,1.4-1.7,1.9-2.6,3.5C425.2,273.6,424.2,277.3,424.2,281.2z"/>
</g>
<g>
	<path class="st0" d="M269,540.8c-6.6,7.3-16.3,14.6-26.5,12.8c0,0.3-0.1,0.5-0.1,0.8c5.4,5.5,9,13.6,11,20.7c1,3.8,2,8,1.4,12
		c-0.5,3.4-2,7.3-5.5,8.6c-3.8,1.4-8.1-0.4-10.6-3.4c-3-3.6-4.5-8.6-5.3-13.1c-3.6-20,0.6-41.1,5.4-60.5c1.5-6.1,10.5-3.1,9.4,2.7
		c-2,10.2-4.4,20.3-5.5,30.6c9.7,1.5,18.7-5.4,25.1-12.3C268.5,538.7,269.7,539.9,269,540.8z M242.1,558.7
		c-0.4,7.8,0.2,15.6,1.4,23.4c0.4,2.7,1.6,9.7,5.8,8.3c4.9-1.7,2.4-10.4,1.5-13.9c-1.1-4.4-2.9-8.7-5.1-12.6
		C244.6,562,243.4,560.3,242.1,558.7z"/>
	<path class="st0" d="M310.8,540.4c-0.8,4-2.7,8-4.6,11.6c-1.5,2.7-3.1,5.5-5.3,7.7c-2.5,2.6-7.4,5.7-11.1,4.4
		c-4.6-1.6-6.6-6.2-7.4-10.7c-1.8,4-4.1,7.8-7.4,9.8c-4.2,2.5-8.6-1-10.8-4.8c-3.4-5.8-2.7-13.4-0.6-19.5c1.9-5.6,5.9-12.4,12.4-11
		c3.1,0.7,5.6,2.4,7.3,5.2c0.2,0.3,0.3,0.5,0.5,0.8c0.3-1.1,0.6-2.2,0.9-3.3c1.8-6.1,11.2-3.1,9.5,2.8c-1.9,6.9-3.7,15.2-2.7,21.6
		c0.3,1.9,0.8,3.2,1.7,4.2c1.8,2.2,3.8,1.2,5.7-0.5c5.8-4.9,7.7-12.3,10.9-18.8C310,539.3,310.9,539.8,310.8,540.4z M282.7,538.1
		c-0.5-1.6-1.3-3.1-2.7-3.8c-1.9-0.9-4.8,2-5.8,3.2c-2.6,3.4-3.1,8.8-3.2,13.3c0,2.6,1.1,10.5,4.1,8.5c3.5-2.4,5.2-6.4,6.7-10.5
		C281.8,545.3,282.1,541.7,282.7,538.1z"/>
	<path class="st0" d="M377.8,541.2c-2.4,7.5-4.5,15.9-10.3,21.7c-5,5-13.3,8-18.2,1.2c-2.5-3.5-2.7-8.2-3-12.3
		c-0.4-4.7-0.6-9.1-0.3-13.9c0-0.5,0.2-1.4-0.1-1.9c-0.9-1.5-2.8,0.2-3.5,1c-1.4,1.6-2.4,3.6-3.3,5.5c-0.9,1.9-1.8,3.9-2.6,5.8
		c-0.7,1.7-1.1,3.4-2,5c0,0.1,0,0.1,0,0.2c-1.2,5.6-9.8,3.8-9.7-1.5c0-0.7,0.1-1.4,0.2-2.1c0-0.1,0-0.3,0.1-0.5
		c0.1-1.1,0.2-2.1,0.3-3.2c0.2-2.7,0.2-5.3,0.3-8c0-2.4,0.3-4.9-0.2-7.3c-0.1-0.3-0.3-1.5-0.7-1.8c-0.8-0.7-1.9,0.7-2.4,1.5
		c-2.9,4.1-3.9,9.9-5.2,14.7c-0.6,2.5-1.1,5.1-1.9,7.5c0.1,3.3,0.5,7.7-2,9.7c-1.9,1.5-4.1,1.5-5.9-0.2c-3-2.8-2-7.6-2-11.4
		c0-3.8-0.1-7.6,0.2-11.3c0.4-6.3,9.3-5.8,9.6,0.3c0.1,1,0.1,2,0.1,2.9c1.4-6,6.1-25.3,15.3-16.5c3.6,3.5,4.6,9.3,4.7,14.1
		c0,1.5,0.1,3,0,4.6c0.4-0.8,0.8-1.6,1.1-2.4c1.4-3.2,2.7-7.2,5.6-9.5c2.7-2.1,5.8-2,8.5,0c3.5,2.6,4.4,7.4,4.9,11.4
		c0.5,4.2,0.4,8.8,1.4,12.9c0.7,2.8,2.3,6.3,5.8,5.3c3.9-1.1,6.2-6,7.9-9.3c2-4.1,4-8.4,5-12.8C375.7,539,378.2,539.8,377.8,541.2z"
		/>
	<path class="st0" d="M402.3,540.4c-0.8,4-2.7,8-4.6,11.6c-1.5,2.7-3.1,5.5-5.3,7.7c-2.5,2.6-7.4,5.7-11.1,4.4
		c-4.8-1.6-6.8-6.5-7.5-11.1c-1.1-7.4,0.2-15.2,2.2-22.3c1.8-6.1,11.2-3.1,9.5,2.8c-1.9,6.9-3.7,15.2-2.7,21.6
		c0.3,1.9,0.8,3.2,1.7,4.2c1.8,2.2,3.8,1.2,5.7-0.5c5.8-4.9,7.7-12.3,10.9-18.8C401.6,539.3,402.4,539.8,402.3,540.4z M378.5,520.8
		c0-0.6,0.1-1.2,0.3-1.7c0.2-0.6,0.5-1.1,0.9-1.5c0.9-0.9,2.1-1.3,3.3-1.3c1.3,0,2.4,0.6,3.4,1.5c0.9,0.9,1.4,2.1,1.5,3.4
		c0,0.6-0.1,1.2-0.3,1.7c-0.2,0.6-0.5,1.1-0.9,1.5c-0.9,0.9-2.1,1.3-3.3,1.3c-1.3,0-2.4-0.6-3.4-1.5
		C379,523.3,378.6,522,378.5,520.8z"/>
	<path class="st0" d="M435,542.2c-2.8,6.4-6,13.2-11.1,18.2c-4.1,4-10.2,6.7-15,2.4c-3.8-3.4-5.7-8.3-7.3-13c-2-6.2-2.5-12.5-2.6-19
		c-0.2-12.4,0.6-25.6,5-37.3c0.4-1.1,0.5-1.4,0.3-0.7c0.1-0.3,0.3-0.7,0.4-1c0.1-0.2,0.2-0.4,0.3-0.7c0.2-0.5,0.5-0.9,0.7-1.4
		c0.9-1.6,0.8-1.5,1.9-2.8c1.5-1.8,3.7-3.3,5.9-4.2c6.9-3.2,13.1,2.5,13.3,9.3c0.2,6.4-2.5,13-5.1,18.8c-3.1,6.7-7.5,12.7-12.9,17.8
		c0,2.4,0,4.8,0.2,7.3c0.1,2.7,0.4,5.5,0.8,8.2c0.3,2.4,0.2,4.7,0.6,6.6c0.4,2,0.9,4,1.6,6c0.4,1.1,1.4,2.7,2,3.4
		c0.5,0.6,1.3,1.6,1.3,1.6c1.3,0.9,2.8,0.6,4.1,0.1c2.8-1.2,4.8-3.8,6.5-6.3c3-4.4,5.3-9.2,7.3-14.2
		C433.7,540,435.6,541.1,435,542.2z M408.9,525.5c4.5-4.9,8.3-10.3,11-16.4c2.4-5.6,5.9-13.6,3.8-19.6c-1-2.9-4.7-4.6-7.3-2.5
		c-0.9,0.7-1.5,1.8-1.9,2.8c0,0,0,0.1,0,0.1c0,0,0,0.1,0,0.1c-0.1,0.3-0.2,0.5-0.3,0.8c0-0.1,0-0.1-0.1,0.3
		c-1.2,3.9-2.2,7.8-2.8,11.8C410,510.4,409.1,517.8,408.9,525.5z"/>
	<path class="st0" d="M474.8,540.4c-4.4,4.4-9.3,8.3-14,12.4c-0.4,5-0.8,9.9-1.4,14.8c-1.2,10.6-2.6,24.2-11.9,31.3
		c-2.6,2-5.4,4-8.8,3.1c-3-0.8-5.4-3.4-6.5-6.2c-1.9-4.8-0.8-10.7,1.2-15.3c3.7-8.2,10.4-15.2,17-21.5c0-0.3,0.1-0.6,0.1-0.8
		c0.3-3.5,0.6-7,0.8-10.5c-1,3.8-2.2,7.6-3.9,11.1c-1.6,3.4-5.5,7.6-9.7,5.5c-5.7-2.9-6.9-10.9-6.9-16.6c0-5.2,0.8-10.5,1.8-15.6
		c1.3-6.3,10.7-3.2,9.6,2.8c-0.7,3.6-1.3,7.3-1.7,11c-0.4,3.9-1.3,9,0.2,12.8c0.6,1.4,1.3,2.4,2.7,1.2c1.3-1.2,2.2-2.9,3-4.4
		c2.7-5.2,3.9-11.2,5.2-16.8c0-0.1,0.1-0.2,0.1-0.3c0.1-1.9,0.1-3.7,0.2-5.6c0.2-6.5,10-5.9,9.8,0.3c-0.2,5.4-0.4,10.7-0.7,16.1
		c4-3.6,8.2-7.2,12.8-9.9C474.5,538.7,475.4,539.8,474.8,540.4z M448.4,574.8c0.6-3.9,1.2-7.9,1.6-11.9
		c-5.4,5.4-10.6,11.4-13.7,18.2c-1.8,4-2.5,10.7,0.2,14.4c2.1,3,5.4,2.6,7-0.6c1.1-2.1,1.8-3.7,2.3-5.9
		C446.9,584.4,447.6,579.5,448.4,574.8L448.4,574.8z"/>
</g>
</svg>

