<?xml version="1.0" encoding="utf-8"?>
<!-- Generator: Adobe Illustrator 23.0.5, SVG Export Plug-In . SVG Version: 6.00 Build 0)  -->
<svg height="500" width="500" version="1.1" xmlns="http://www.w3.org/2000/svg" xmlns:xlink="http://www.w3.org/1999/xlink" x="0px" y="0px"
	 viewBox="0 0 720 720" style="enable-background:new 0 0 720 720;" xml:space="preserve">
<style type="text/css">
	.st0{fill:#050002;}
	.st1{fill-rule:evenodd;clip-rule:evenodd;fill:#050002;}
	.st2{fill-rule:evenodd;clip-rule:evenodd;}
	.st3{fill:#221F1F;}
	.st4{fill:#231F20;}
	.st5{fill:#070808;}
	.st6{fill:#211E1F;}
	.st7{fill:#161616;}
	.st8{fill:#131313;}
	.st9{fill:#21201F;}
	.st10{fill:#2C2929;}
</style>
<g>
	<g>
		<g>
			<g>
				<path class="st0" d="M587.1,395.2c-0.6-1.8-1.1-3.5-2.7-4.8C584.7,392.2,585.6,393.8,587.1,395.2z M449.1,103.2
					c0.3,1,0.3,1.5,0.5,1.6c5.7,2.9,11.4,5.7,17.1,8.6c0.6,0.3,1.2,0.8,1.8-0.2C462.6,109.3,456.5,105.6,449.1,103.2L449.1,103.2z
					 M639.2,420.5c0.3,0.2,0.7,0.5,0.9,0.4c0.9-0.6,1.9-1.1,2.7-1.8c6.9-5.7,11.9-12.9,16.1-20.7c1.8-3.4,3.7-6.8,5.5-10.2
					c0.1-0.2-0.2-0.6-0.3-1.1c-5.9,3.9-10.9,8.6-14.9,14.4C645.1,407.5,641.9,413.8,639.2,420.5L639.2,420.5z M538.5,198.2
					c-0.7-0.9-0.8-1.3-1.1-1.5c-3.9-2-7.8-4.2-11.9-5.7c-5-1.8-10.1-3.2-15.4-3.7c-3.3-0.3-6.6,0.6-9.8-0.8
					c-0.3-0.1-0.8-0.1-1.1,0.1c-2.5,1.1-5.1,0.5-7.6,0.7c-1.8,0.1-3.7,0-5.8,0.7c1.4,0.2,2.5,0.4,3.6,0.6c1.1,0.2,2.1,0.7,3.2,0.7
					c5.2,0.2,10.1,1.5,15,2.9c7.4,2,14.5,5.2,22.3,5.3C532.5,198.7,535.3,198,538.5,198.2L538.5,198.2z M549.5,560.6
					c-1.2,1.4-1.7,2-2.2,2.6c-4.6,5.3-9.1,10.6-13.9,15.7c-3.4,3.7-7.2,6.9-10.8,10.3c-7.1,6.7-14.5,13-22.3,18.9
					c-0.5,0.3-1.3,0.6-1,1.6c10-4.6,40.1-28,47.6-37.1C547.8,568.7,548.5,565.3,549.5,560.6z M349.2,97.7c0,0.2,0,0.4,0,0.6
					c2.4,0.1,4.9-0.2,7.1,0.4c2,0.6,4,0.6,5.9,0.8c1.5,0.1,3,0,4.4,0.2c6.4,1.3,13,1.9,19.4,3.2c4.3,0.9,8.6,1.7,12.9,2.7
					c10.1,2.4,20.1,5.4,30,8.9c1.2,0.4,2.4,0.6,3.8,0.9c0.8-1,1.4-1.9,2.1-2.8c0.6-0.8,1.1-1.7,1.8-2.6c-11.6-3.6-23.2-6.3-34.9-8.2
					c-2.9-0.4-5.8-0.7-8.7-1.3c-2.4-0.4-4.7-0.7-7.1-0.9c-2.4-0.2-4.7-0.7-7-0.9c-5.6-0.5-11.3,0-17-1
					C357.7,97.1,353.4,97.7,349.2,97.7L349.2,97.7z M559.1,309.3c5.5,5.3,9.8,10.1,14.9,14c6.2,4.6,12.1,9.6,18.2,14.3
					c3.2,2.5,6.3,5,9.5,7.5c0.6,0.4,1.2,0.8,1.9-0.1c-1.6-4.5-3.9-8.6-7.1-12.2c-6.8-7.6-15-13.5-23.5-19c-1.1-0.7-2.2-1.3-3.4-1.7
					C566.5,311.1,563.5,309.6,559.1,309.3L559.1,309.3z M483.9,107.1c4.5,8.3,9.3,14.8,14.9,20.7c1.9,2,4,3.7,6.4,5.2
					c5.4,3.5,10.8,7,16.2,10.5c0.3,0.2,0.9,0.1,1.4,0.1c-0.8-2-1.4-3.7-2.1-5.4c-1.8-4.3-4.1-8.2-7.7-11.3c-2.1-1.8-4.2-3.6-6.3-5.3
					C500,116.1,492.8,111.5,483.9,107.1z M603.7,427.5l-0.5,0c-1.2,4-2.3,8.1-3.5,12.1c-3.5,11.2-7.2,22.4-12,33.1
					c-4.4,9.9-9.1,19.7-14.6,29.1c-1.6,2.7-3,5.5-4.6,8.2c0.1,3.3,0.1,6.6,0.2,10c0,0.2,0.1,0.3,0.3,0.9c3.1-4.5,5.6-9.2,8-13.9
					c12.3-23.8,20.9-48.9,26.3-75.2C603.7,430.4,603.6,429,603.7,427.5L603.7,427.5z M569,182.8c1.9-5.7,3.7-10.9,5.2-16.2
					c0.8-3,1.2-6.1,1.7-9.1c0.1-0.7-0.1-1.5-0.2-2.2c-0.2-1.4-0.4-2.9-0.6-4.3c-0.2-1.5-0.2-2.9-0.5-4.4c-0.7-4.7-1.9-9.3-2-14.1
					c0-1.7-0.2-3.3-1.3-4.7C563.9,143.3,563,168.3,569,182.8z M654.4,261.2c-10.9,7.5-19.5,17.1-26.7,28.1c-0.2,0.3-0.4,0.6-0.5,1
					c-0.5,2.7-2.3,4.6-3.9,6.6c-3.8,4.7-6,10-7.2,15.8c0,0.1,0.2,0.3,0.4,0.7c1.2-1.2,2.3-2.3,3.4-3.5c0.5-0.5,0.9-1.3,1.5-1.6
					c2.7-1.4,4.4-3.9,6.3-6.1c3.8-4.5,7.1-9.4,10.9-13.8C645.5,280.3,650.2,271,654.4,261.2z M593,422c-5-3.9-10.1-6.3-15.3-8.5
					c-6.3-2.7-13.1-3.3-19.7-4.1c-4.4-0.5-8.8-0.3-13.2-0.3c-3.9,0.1-7.5,1.4-10.9,3.3c-0.1,0.1-0.2,0.3-0.3,0.6
					c3,0.8,5.9,1.6,8.8,2.4c5.9,1.5,11.4,4,16.9,6.4c7.1,3.1,14.4,3.7,22,2c0.9-0.2,1.8-0.2,2.7-0.3C586.8,423,589.6,422.6,593,422
					L593,422z M630.1,340.5c0.3-2.5-0.6-4.8-0.8-7.1c-0.5-5.5-2-10.8-2.6-16.3c0-0.3-0.4-0.6-0.7-0.7c-0.3-0.1-0.8,0.1-1,0.3
					c-2.9,3.4-5.7,6.8-8.5,10.1c-1.7,2-3,4.2-5.3,5.1c0.2,2.5,0,5,0.7,7.2c1.3,3.6,0.7,7.3,1.4,10.9c0.8,3.7,0.4,7.7,0.6,11.6
					c0,0.9,0,1.9,0.2,2.7c0.1,0.5,0.6,0.8,1.2,1.5C619.6,356.7,625,348.6,630.1,340.5L630.1,340.5z M675,310c-4.4,1.5-7.3,3.1-10,5
					c-4.4,3-8.9,5.8-13,9.2c-5.8,4.8-11.8,9.3-16.1,15.7c-1.1,1.7-2.4,3.3-3.9,4.7c-3,3-5.4,6.3-7.2,10.3c-1.4,3-3.5,5.6-5.1,8.5
					c-0.2,0.3,0.1,0.9,0.2,1.7c1.2-0.9,2-1.5,2.9-2.2c1.6-1.2,3.1-2.6,4.8-3.7c5.6-3.8,11.2-7.6,16.9-11.3c5.4-3.6,9.9-8,13.7-13.3
					c4.1-5.9,8.3-11.7,12.4-17.6C671.8,315,673.1,313,675,310L675,310z M571.3,557.3c0.1,0.2,0.3,0.3,0.4,0.5
					c2.8-0.8,5.6-1.5,8.4-2.5c6.1-2.1,12.1-4.2,18.1-6.5c5.2-2,9.4-5.7,14.1-8.6c4.2-2.7,8-5.9,11.4-9.5c2.4-2.5,4.8-5.2,7.3-7.6
					c3.5-3.5,6.7-7.4,10.5-10.6c0.7-0.6,1.4-1.3,1.9-2c0.6-0.7,1.7-1.2,1.8-2.5c-13.2,4.9-25.3,11.4-36.8,19.1
					c-12.1,8.1-23.1,17.6-33.9,27.3C573.5,555.4,572.4,556.4,571.3,557.3z M442.2,111.8c-1,1.5-2,2.8-2.8,4.2
					c-0.7,1.2-0.2,2.5,1.2,3.1c2.5,1.1,5.1,2.2,7.6,3.2c14.1,5.9,27.4,13.4,40.2,21.8c7.6,4.9,14.8,10.2,21.9,15.9
					c7.9,6.3,15.4,13.1,22.7,20c3.2,3,5.9,6.6,9,9.7c7.6,7.8,14.2,16.4,20.6,25.2c0.2,0.3,0.7,0.5,1.6,1.2c-0.5-2.1-1.3-3.3-2.1-4.5
					c-3.1-4.6-6.2-9.1-9.4-13.6c-7.4-10.3-15.9-19.8-24.5-29.1c-3.6-3.9-7.7-7.4-11.6-11c-6-5.5-12.1-10.8-18.6-15.7
					c-8.3-6.3-17-12.3-26-17.6c-4.1-2.4-8.3-4.8-12.6-6.8c-3.8-1.8-7.9-3-11.8-4.4C445.9,112.8,444.1,112.4,442.2,111.8L442.2,111.8
					z M529.4,435.8c-0.3,0.5-0.6,0.8-0.6,1.2c-0.6,10.2,0.6,20.2,3.7,29.9c3,9.3,7.1,18.1,11.2,27c2.7,5.8,5.5,11.6,6.8,18
					c0.7,3.4,1.5,6.8,2.3,10.2c0.1,0.5,0.1,1.1,0.2,1.6c0.4,3.5,0.6,7,1.4,10.4c0.6,2.5,0.3,5.2,1.1,7.6c0.9,2.6,0.9,5,0.3,7.5
					c-0.4,1.6-0.3,3.2-0.4,5.8c1-1.3,1.6-1.8,1.8-2.4c0.7-2.7,1.3-5.3,1.9-8c1.3-6.4,4.6-12.4,4.1-19.3c1-1.9,0.7-4,0.7-6
					c0-4.2-0.2-8.4-0.8-12.6c-0.6-5-1.7-9.7-3.1-14.5c-4.3-14.5-10.6-28.2-17.9-41.4c-2.9-5.2-6.4-9.8-10.9-13.8
					C530.6,436.5,530,436.2,529.4,435.8L529.4,435.8z M608.9,319.8c0.4-0.7,0.9-1.4,1.2-2.2c1.2-4.4,2.5-8.8,3.5-13.3
					c1.2-5.5,2.2-11.1,3.3-16.7c0.7-3.5,0-6.9-1.4-10.2c-2-4.7-4-9.5-5.9-14.3c-3.2-8.3-7.2-16.2-11.6-23.8
					c-7.3-12.8-15.4-25.1-24.6-36.6c-6.5-8.1-13.3-15.8-20.4-23.2c-2.9-3-6.3-5.7-9.3-8.6c-5.7-5.6-11.8-10.5-18.1-15.3
					c-0.2-0.1-0.6,0.1-1.2,0.2C571.3,200.7,599.5,255.3,608.9,319.8L608.9,319.8z M75.7,496.6c-0.3,1.5-0.1,2.3,0.3,3.2
					c2,3.7,4,7.5,5.9,11.2c6.4,12.5,14,24.2,22.3,35.5c5,6.8,10.3,13.4,16,19.7c7.4,8.2,15.3,16,23.7,23.2
					c8,6.9,16.2,13.3,24.7,19.4c16.3,11.5,33.9,20.7,52.1,28.6c10.3,4.4,20.9,8,31.6,11.1c7.2,2.1,14.6,3.5,21.9,5.2
					c7.5,1.8,15.1,2.8,22.7,3.6c6.5,0.7,13.1,1.7,19.7,1.5c3.5-0.1,6.9,0,10.8-0.3c-0.5-0.3-0.7-0.4-0.9-0.4
					c-5.3,0.2-10.6-1-15.8-1.6c-5.2-0.5-10.4-2.1-15.6-2.9c-10.3-1.7-20.3-4.7-30.3-7.8c-14.4-4.5-28.2-10.4-41.7-17.1
					c-4.1-2-8.2-4.2-12.4-6c-12.7-5.5-24.8-12-36.5-19.4c-10.5-6.7-20.7-14-30.2-22.2c-6.4-5.5-12.8-11-18.8-17
					c-6-6-11.5-12.4-17-18.9c-6-7-11.4-14.4-16.6-22C86,514.7,80.8,506,75.7,496.6L75.7,496.6z M614.9,380.1c0,1.9,0,3.7,0,5.6
					c0,1.1,0.2,2.3-0.1,3.3c-1,2.9-0.7,5.8-0.8,8.8c-0.1,2.6,0.1,5.2-0.4,7.7c-0.5,2.2-0.6,4.4-0.9,6.5c-0.3,2.4-0.6,4.7-1,7.1
					c-0.5,3.5-0.7,7-1.5,10.3c-2.2,9.8-4.3,19.7-7.1,29.4c-4.5,15.4-10.3,30.3-17.1,44.7c-4.7,10-10.2,19.6-16.1,28.9
					c-0.5,0.8-1.1,1.5-1.3,2.4c-1.5,5.5-2.9,11-4.3,16.5c-0.2,0.8-0.5,1.7,0.5,2.6c0.9-1.2,1.7-2.4,2.7-3.5
					c5.2-5.5,9.6-11.7,13.9-17.9c10.2-14.9,19.4-30.4,26.6-47c4.5-10.5,8.8-21,12-32c3.5-11.6,6.5-23.3,8.3-35.3
					c1.2-2.8,0.7-5.8,1.4-8.7c0.9-4.3,1.1-8.7,1.6-13.1c0.4-3.5-0.2-7.1,0.5-10.5c0.7-3.1,0.6-6.2,0.6-9.3c0.1-3.1,0.1-6.2-0.1-9.3
					c-0.4-0.1-0.7-0.2-0.8-0.1C626.1,371.4,620.3,375,614.9,380.1L614.9,380.1z M288.2,645.1c1.1,0.1,2.2-0.1,3.2,0.2
					c5.8,1.7,11.7,2.6,17.7,3.5c2.9,0.4,5.9,0.4,8.7,1.2c2.6,0.7,5.1,0.6,7.6,0.8c2.7,0.3,5.4,0.8,8.2,0.9c8.7,0.2,17.3,0,26,0.3
					c7.9,0.2,15.7-1,23.6-1.4c0.2,0,0.4,0,0.5,0c4-1.4,8.3-1,12.4-1.9c5.2-1.1,10.4-2,15.6-3.1c4.9-1,9.4-2.8,14.1-4.6
					c11.7-4.5,23.1-9.5,34.1-15.4c12.5-6.8,24.4-14.3,35.8-22.7c6.9-5.1,13.7-10.5,20-16.5c5.6-5.3,11.1-10.8,16.6-16.3
					c6.3-6.2,11.7-13.2,17.1-19.9c0-3.2,0-6.1,0-9.1c0-0.9-0.3-1.8-1.6-1.8c-0.7,0.8-1.4,1.6-2.2,2.4c-3.1,3.7-6,7.5-9.2,11
					c-7.7,8.2-15.6,16.2-24.1,23.5c-8.1,7-16.5,13.5-25.2,19.6c-8,5.6-16.4,10.5-24.9,15.4c-8.5,4.9-17.3,8.9-26.2,12.8
					c-11.3,4.9-22.9,8.8-34.8,12.1c-4.9,1.4-9.9,2.7-14.9,3.7c-7,1.4-14,2.8-21,3.7c-5.8,0.8-11.6,1.5-17.4,2
					c-2.9,0.3-5.9-0.3-8.7,0.9c-0.8,0.3-1.8,0.1-2.7,0.1c-7.7,0-15.5,0-23.2,0c-1.3,0-2.7,0.1-3.8-0.3c-1.6-0.6-3.3-0.5-4.9-0.6
					c-3.1-0.1-6.3,0.1-9.3-0.6C292.8,644.6,290.7,644.6,288.2,645.1L288.2,645.1z M395.2,93.8c-1.7-0.8-2.5-1.4-3.4-1.6
					c-7.1-1-13.9-3.1-21-3.8c-3.1-0.3-6.2-0.6-9.2-1.2c-2.7-0.6-5.5-0.9-8.2-0.8c-2.8,0.1-5.4-1-8.2-1c-17.9-0.4-21.1-0.3-38,0.9
					c-4,0.3-8,0.7-12,1c-6.2,0.5-12.4,1.6-18.4,2.7c-11,2-21.8,4.8-32.4,8.2c-9.8,3.1-19.4,6.8-28.8,10.9
					c-14.9,6.5-29,14.2-42.6,23.1c-7.4,4.8-14.5,10.1-21.4,15.6c-7.8,6.2-15.2,12.8-22.3,19.7c-4,3.8-7.6,8-11.4,12.1
					c-5.4,5.8-10.5,11.9-15.3,18.2c-5.6,7.3-10.8,14.9-15.7,22.7c-7.2,11.4-13.4,23.3-18.6,35.8c-6.4,15.5-11.7,31.3-15.2,47.7
					c-3.2,14.6-4.1,21.4-5,31.4c0,0.4,0,0.8-0.1,1.1c-1.5,3.3-1.2,6.9-1.2,10.4c0,0.9,0.1,1.9-0.3,2.7c-0.7,1.6-0.6,3.2-0.6,4.9
					c0,5.7,0,11.5,0,17.2c0,0.9,0.1,1.7,0.2,3.4c0.8-2.4,0.6-4.1,0.5-5.7c-0.2-2,1-3.5,1.1-5.4c0-2.6,0.1-5.2,0.1-7.7
					c-1.4-1.6-0.2-3.2,0.1-4.6c1.1-4.1,1.3-8.3,1.9-12.5c0.8-5.3,1.8-10.5,2.9-15.7c2.8-12.9,6.5-25.6,11-38
					c2.9-8,6.3-15.7,9.8-23.4c3.5-7.8,7.6-15.1,11.7-22.5c5.6-10.2,12.1-19.8,19.1-29.1c5.9-7.8,12.2-15.3,18.8-22.4
					c5.4-5.8,11.1-11.3,17.1-16.6c6.4-5.6,12.9-11,19.6-16.1c13.4-10.1,27.6-18.9,42.5-26.5c7-3.6,14.3-6.7,21.6-9.7
					c9.3-3.8,18.8-7.2,28.6-9.7c5-1.3,9.9-2.7,14.8-4.2c14.6-4.3,29.2-8.4,44.3-10.2c2.8-1.1,5.9-0.5,8.6-1.3
					c2.6-0.7,5.1-0.5,7.6-0.8c2.5-0.4,5.1-0.8,7.6-0.9c11.2-0.2,22.5-0.2,33.7-0.2c3.5,0,7,0.2,10.5,0.3c2.2,1.3,4.7,0.6,7,0.9
					C389.2,93.2,391.7,93.4,395.2,93.8L395.2,93.8z M427.7,121.4c-9.3-2.9-17.6-5.6-26.1-8c-5.1-1.4-10.3-2.6-15.5-3.4
					c-5.6-0.8-11.1-2.5-16.8-2.5c-2-1.1-4.3-1-6.5-0.9c-2.4,0.1-4.7-1-7-1c-3.5,0-7-0.1-10.5-0.2c-1.6-0.1-3.3-0.4-4.9-0.6
					c-0.9-0.1-1.8-0.3-2.7-0.3c-3.5,0-7,0-10.5,0c-0.9,0-1.9-0.1-2.7,0.3c-2.1,0.9-4.4,0.7-6.5,0.6c-6.8-0.3-13.6,0.7-20.3,1.5
					c-6.3,0.7-12.7,1.7-18.9,3.1c-5.7,1.2-11.5,2.3-17,4.4c-12.7,4.9-25.2,10-37.2,16.5c-7.5,4-14.8,8.2-21.9,12.7
					c-10.4,6.7-20.3,13.9-29.7,22c-5.9,5.1-11.7,10.1-17.2,15.5c-3.5,3.5-6.8,7.2-10.2,10.9c-6.2,6.8-12.1,13.9-17.6,21.2
					c-8.2,10.9-15.8,22.3-22,34.4c-3.6,7-7,14.2-10.2,21.4C88.7,284.3,83.7,300.4,80,317c-1.2,5.2-2.4,10.4-3.1,15.6
					c-0.6,4.7-1.9,9.4-1.5,14.2c0.1,0.9,0.1,1.9-0.3,2.7c-1.6,3.6-1.7,7.5-1.7,11.4c0,7.4,0,14.8-0.2,22.2c-0.2,7.6,1.3,15,1.4,22.6
					c0,0.4,0,0.7,0.1,1.1c1.4,5.9,1.8,11.9,2.9,17.9c1.7,9,3.8,18,6.4,26.8c5.4,18.2,12.4,35.8,21.4,52.5
					c5.1,9.4,10.6,18.5,16.6,27.4c9.4,14,20.3,26.7,31.9,38.7c2.9,3,6.3,5.7,9.3,8.6c5.8,5.7,12.2,10.6,18.6,15.6
					c9,7,18.5,13.4,28.3,19.1c5.1,2.9,10,6.3,15.8,7.7c0.9,0.2,1.7,0.7,2.6,1c6.6,2.2,13.1,4.6,19.8,6.5c10.2,2.9,20.5,5.6,31,7
					c4.5,0.6,9,1.5,13.5,2c5.3,0.6,10.6,1.3,15.9,1.1c0.5,0,1.1,0.1,1.6,0.3c1.6,0.8,3.3,0.6,4.9,0.6c9-0.4,18,0.7,27-0.8
					c3.8-0.6,7.7-0.1,11.5-0.9c3.7-0.8,7.6-0.6,11.4-1.4c5.9-1.1,11.9-2.1,17.8-3.3c13.9-2.7,27.3-6.9,40.6-11.9
					c12.2-4.6,24.1-10,35.5-16.3c8-4.5,16-9.2,23.5-14.4c7.4-5.1,14.7-10.4,21.5-16.3c6.7-5.8,13.4-11.5,19.6-17.9
					c3.7-3.8,7.4-7.7,11-11.7c4.2-4.7,8-9.6,12-14.5c0.8-0.9,1.1-1.9,1-3.1c-0.2-1.3-0.4-2.5-0.6-3.8c-0.6-2.9-1.1-5.8-1.8-8.6
					c-1-3.9-1.8-7.9-3.5-11.6c-3.2-7.2-6.3-14.5-9.5-21.8c-4.5-10.3-7.7-21-8.4-32.4c-1.1-3.4-0.3-7-0.5-10.5c-0.1-2,0-4.1,0-6.1
					c0-0.7,0-1.5,0.1-2.2c0.1-1.3,1.2-2.4,2.5-2.6c1.3-0.2,2.6-0.3,3.7,0.6c3.1,2.6,6.6,4.7,9.2,7.9c3.2,4,6.3,8.2,8.7,12.7
					c8.7,15.9,15.3,32.6,19.3,50.7c1.1-1.8,2.2-3.3,3-4.8c8.4-15.4,15.7-31.3,21.1-48c1.8-5.6,3.4-11.2,5-16.9
					c0.4-1.3-0.4-2.2-1.8-1.9c-1.6,0.3-3.2,0.6-4.8,0.9s-3.2,0.4-4.9,0.7c-3.4,0.8-6.9,0.9-10.3,1.5c-2.5,0.4-4.7-0.8-7-0.9
					c-3.9-0.2-7.5-1.4-11.1-3c-5.7-2.6-11.4-4.9-17.6-6.2c-4.5-0.9-8.9-2.1-13.4-3.1c-1.6-0.3-2.7-1.1-3.7-2.2
					c-2.7-3.2-2.2-5.7,1.7-7.3c3.6-1.5,7.2-2.6,10.8-4c6.3-2.5,13-3,19.5-2c4.3,0.7,8.7,1,13,1.8c5.1,0.9,10,2.2,14.7,4.4
					c3.8,1.9,7.5,3.9,11,6.3c0.4,0.2,0.9,0.2,1.8,0.4c-0.8-0.9-1.2-1.5-1.7-2.1c-4.7-5.5-9.1-11.1-12.6-17.4
					c-3.7-6.8-7.4-13.6-11.6-20.1c-2.9-4.7-5.7-9.4-8.5-14.2c-1.8-3-3.3-6.1-4.3-9.7c0.7-0.6,1.4-1.4,2.1-1.6
					c2.5-0.8,4.7,0.1,6.7,1.6c5.5,3.9,10.6,9.8,14.1,15.3c2,3.1,3.2,6.6,5,9.8c4.8,8.7,9.1,17.7,13.5,26.6c1.3,2.6,2.3,5.4,3.6,8.5
					c1.3-9.6,3-18.6,3.8-27.7c0.9-9.4,0.9-18.7,0.9-28.1c-1.2-0.9-2.1-1.8-3.2-2.5c-1.9-1.4-3.9-2.7-5.8-4.2
					c-6.3-5.1-12.4-10.4-18.9-15.2c-7.7-5.8-14.6-12.4-21.2-19.3c-3.2-3.3-5.9-7.1-8.4-10.9c-1.7-2.6-0.5-4.7,2.6-4.8
					c0.7,0,1.5,0.2,2.1,0.6c3.2,2.3,6.9,3.3,10.6,4.2c5.4,1.3,10.4,3.6,14.9,7c2.5,1.9,5,3.8,7.4,5.8c5.8,4.8,11.4,9.9,15.8,16.1
					c0.4,0.6,0.8,1.2,1.4,1.7c0.5,0.5,0.4,1.7,1.7,1.7c0.5-5.5-0.5-10.7-1.5-15.9c-0.9-5-2.4-10-3.7-14.9
					c-3.7-14.1-8.8-27.7-14.7-40.9c-7.8-17.4-17.6-33.6-28.9-48.9c-2.1-2.8-4.4-5.5-6.4-8c-4.7-1.4-9.2-1.6-13.8-1.7
					c-3.6-0.1-7.3-0.6-10.9-1.3c-4.5-0.9-8.9-2.1-13.2-3.7c-6.5-2.4-13.4-3.9-20.3-4.6c-5.5-0.5-10.9-1.4-16.4-1.4
					c-1.5,0-2.9-0.3-4.3-0.6c-3.1-0.7-4.7-2.6-5.8-5.3c-0.6-1.6-0.4-2.9,1-3.9c0.7-0.5,1.6-1.1,2.4-1.2c2.5-0.4,4.9-1.4,7.6-1.2
					c2,0.1,4.1,0.1,6-0.4c2-0.6,4-0.6,6-0.6c1.5,0,2.9-0.1,4.4-0.1c5.7-0.1,11.3,0,17,0.9c7.7,1.1,15.1,3,22,6.6
					c0.4,0.2,1,0.1,2,0.2c-27-28.1-58.3-48.8-93.7-63.5c-0.3,2.1-0.2,4-0.8,5.7c-1.1,3.1-2.5,6.1-3.8,9.2c-0.9,2.1-2.4,3.6-4.6,4.6
					c-5.3-3-6.8-8.1-7.7-13.4c-0.1-0.5,0-1.1,0.2-1.6c0.7-1.8,1.1-3.9,2.9-5.2C425.6,124.2,426.3,123,427.7,121.4L427.7,121.4z
					 M159.4,584.4c1.4,1.7,2.7,2.5,4,2.7C162.2,586,161.4,584.3,159.4,584.4c-0.1-0.4-0.1-0.8-0.4-1c-6.9-6.6-13.5-13.6-19.8-20.9
					c-2.6-3.1-5.4-6.1-7.9-9.3c-10.2-12.9-19.2-26.5-27.1-40.9c-7.7-14.1-14.1-28.7-19.2-43.9c-3.5-10.3-6.4-20.7-8.6-31.3
					c-0.9-4.3-1.8-8.6-2.5-13c-0.4-2.9-0.7-5.8-1.2-8.7c-0.9-5.4-1.3-10.9-1.9-16.4c-0.5-5.1,0.5-10.3-1.1-15.4
					c0-4.1,0.1-8.1,0.1-12.2c1.1-2.3,0.7-4.7,0.7-7.1c0.1-3.5-0.1-7,0.4-10.5c0.2-2,1.1-3.8-0.1-5.8c-0.2-0.4,0-1.1,0.1-1.6
					c0.2-0.9,0.7-1.7,0.8-2.6c0.7-6.9,2-13.8,3.2-20.6c1.9-10.5,4.6-20.8,7.7-30.9c3.7-12,8.3-23.6,13.4-35
					c4.3-9.6,9.4-18.8,14.5-27.9c4.9-8.6,10.5-16.9,16.5-24.8c4.7-6.1,9.5-12.2,14.6-18c5-5.6,10.5-10.9,15.8-16.3
					c6.9-6.9,14.4-13.1,22.2-19.1c1.9-1.4,3.7-3,5.6-4.4c0,0-0.1-0.3-0.1-0.4c-1-0.5-1.7,0.4-2.4,0.8c-14.6,9-28.3,19.2-41,30.7
					c-6.5,5.9-12.8,12.3-18.8,18.7c-7.3,7.8-14,16.1-20.4,24.7c-12,16-21.9,33.2-29.9,51.5c-4.9,11.1-9.1,22.5-12.3,34.2
					c-4.1,14.8-7.9,31.8-9.1,48c-0.1,0.7-0.1,1.5-0.4,2.2c-1,2.1-0.8,4.3-0.9,6.5c0,1.7,0.1,3.4-0.3,4.9c-0.5,1.7-0.5,3.3-0.6,4.9
					c0,5.4,0,10.7,0,16.1c0,1.5,0.3,2.9,0.5,4.4c0.1,1.3,0.4,2.6,0.4,3.8c-0.3,6.3,1.1,12.4,1.4,18.7c0,0.4,0.1,0.7,0.2,1.1
					c1.7,7.7,3.6,15.3,5.9,22.9c4.5,14.8,10.1,29.2,16.9,43.1c4.5,9.1,9.4,17.9,14.8,26.5c6.7,10.4,13.8,20.4,21.9,29.8
					c5.1,6,10.4,12,15.8,17.7c2.6,2.7,5.5,4.9,8.1,7.5c6.8,6.5,14.1,12.3,21.5,18.1C157.4,583.7,158.2,584.5,159.4,584.4
					L159.4,584.4z M683.4,309.3c-2.2,3.1-4.1,6.5-6.3,9.6c-2.4,3.3-4.5,6.7-6.7,10.1c-2.1,3.2-4.3,6.4-6.4,9.6
					c-2.3,3.4-4.7,6.6-7.5,9.5c-3.7,3.9-8.2,6.9-12.5,9.9c-1.8,1.3-3.6,2.5-5.6,3.8c0,1.6,0,3,0,4.5c-0.1,7.8-0.1,15.5-0.3,23.3
					c-0.1,2.7-0.5,5.5-0.9,8.2c-0.3,2.5,0.3,5.2-0.9,7.6c-0.2,0.5-0.2,1.1-0.2,1.6c-0.2,5-1.2,9.8-2.2,14.7c-0.1,0.7,0,1.4,0,2.7
					c2.5-5.5,4.6-10.6,7-15.6c2.5-5.4,5.2-10.6,9.2-15c2.2-2.5,4.3-5.1,6.7-7.3c5.3-4.9,11.3-8.8,17.6-12.2c0.3-0.2,0.6-0.4,1-0.5
					c0.9-0.3,1.8-0.2,2.6,0.5c0.8,0.7,1.3,2,0.9,3c-0.7,1.7-1.5,3.4-2.5,4.9c-3.4,5.3-6.3,10.8-8.9,16.5
					c-3.1,6.7-6.5,13.2-10.9,19.2c-1.6,2.2-3.4,4.4-5.2,6.4c-1.6,1.8-3.3,3.5-5.1,5.1c-3.6,3.2-6.3,7.2-9.6,10.6
					c-2.7,2.9-2.7,2.9-7.3,3.9c-4.9,16.5-10.2,33.1-18,48.9c0.7,0,0.9,0.1,0.9,0c3.9-3.6,7.9-7.2,11.8-10.8
					c4.6-4.2,9.1-8.6,12.9-13.6c0.9-1.2,2.1-2.1,3.1-3.2c4.1-4.5,8.1-9,12.2-13.6c0.7-0.8,1.3-1.8,2-2.8c-0.7-1.2-1.5-2.4-2.1-3.7
					c-0.6-1.2-0.9-2.4-1.5-3.6c-1.1-2-0.4-3.9,1.2-4.9c1.9-1.2,2.7-2.8,3.5-4.6c0.4-1,1-2.2,1.9-2.6c1.8-0.8,3.7-1.7,5.8-1.4
					c2.3,0.3,3.9,2.4,3.7,4.7c-0.1,0.7-0.3,1.4-0.5,2.1c-0.6,2.5-1,5-1.8,7.5c-1,3.1-1.8,6.4-4.6,8.7c-4.3,6.1-9.7,11.1-14.9,16.3
					c-0.9,0.9-1.7,1.9-2.9,3.2c2.6,0.1,4.2-1.3,6-1.7c2.1-0.5,4.2-1.4,6.3-2.1c1.9-0.6,3.9-1.1,5.8-1.7c1.9-0.6,3.8-1.2,5.8-1.8
					c0.2-0.3,0.6-0.5,0.6-0.8c0-3.1,1.7-4.7,4.5-5.5c1.1-0.3,2.1-0.7,3.1-1c2.7-0.7,5.1,0.2,7.1,1.9c0.5,0.4,0.8,1.2,0.9,1.9
					c0.7,6-1.3,11.3-4.9,16c-1.9,2.6-4.4,3.4-7.3-0.1c-1.6-2-2.7-4.3-4.2-6.7c-4.9,0.5-9.2,3.2-14.2,3.7c-4.7,0.5-9.3,1.6-14.5,2.6
					c-0.6,0.6-1.5,1.4-2.4,2.4c-5.2,5.5-11.2,10.1-16.9,15c-4,3.5-7.8,7.3-11.4,11.3c-1.7,1.9-2.7,4.4-4,6.6
					c-4.7,8.6-9.8,16.9-15.4,24.9c-1.8,2.6-3.7,5-5.5,7.6c-0.4,0.5-0.7,1.1-1.2,2c0.7-0.1,1.1-0.1,1.3-0.2
					c13.4-12.5,27.9-23.4,43.9-32.3c5.3-2.9,10.9-5.3,16.5-7.7c4-1.8,8.1-3.4,12.2-5c1-0.4,2.1-0.6,3.1-0.8c1.1-0.1,2.1,1.5,1.4,2.4
					c-1.3,1.6-2.6,3.1-4.1,4.5c-4.4,3.9-9.1,7.5-13.2,11.7c-4,4-7.6,8.5-11.3,12.8c-4.1,4.7-8.3,9.4-13.4,13.1
					c-3.4,2.5-6.7,5.1-10,7.8c-4,3.4-8.7,5.5-13.4,7.5c-5.7,2.4-11.6,4.5-17.4,7c-6.5,2.7-12.4,6.3-18.4,10c-1.6,1-3,2.2-4.6,3
					c-2.2,1.1-4,2.4-5.3,4.6c-0.6,1-1.5,2.2-3.1,1.3c-1.5,1.1-3,2.1-4.4,3.3c-10,9-20.7,17-31.9,24.5c-12.8,8.5-26.2,15.8-40.1,22
					c-15.6,7-31.7,12.6-48.3,16.6c-2.8,0.7-5.7,1.4-8.5,2.3c-9.6,3.2-19.4,5.5-29.2,7.4c-5.7,1.1-11.5,2.1-17.3,2.7
					c-3.8,0.4-7.7,0.5-11.5,1.1c-6,1-12.1,1-18.1,1c-9,0-18-0.1-27.1-0.2c-2.7-0.1-5.4-0.5-8.1-0.9c-2.5-0.3-5.1,0-7.6-0.8
					c-2.8-0.8-5.9-0.2-8.6-1.3c-19.7-2.5-38.7-8.1-57.2-15c-13.2-4.9-25.9-11.3-38.3-18.2c-12-6.8-23.3-14.7-34.3-23
					c-3.5-2.7-6.7-5.7-10.1-8.5c-8.5-7.1-16.3-15-23.8-23.1c-6.5-7-12.6-14.4-18.3-22.1c-5.8-7.9-11.2-16-16.2-24.4
					c-5.8-9.9-11.2-19.9-15.7-30.4c-4.5-10.3-8.4-20.8-11.7-31.5c-2.6-8.6-4.7-17.3-6.5-26.2c-1.2-6.1-1.9-12.3-3.2-18.4
					c-1.2-5.6-1.8-11.2-3-16.8c-0.8-3.9-0.8-8-1.3-12c-0.4-3.1,0.3-6.3-1-9.3c-0.1-0.2-0.1-0.4-0.1-0.5c0-11.6,0-23.3,0-34.9
					c1.1-2.6,0.8-5.4,1-8.2c0-0.7,0.3-1.6,0-2.2c-1.4-2.4-0.1-4.6,0.4-6.8c0.2-0.7,0.5-1.4,0.5-2.1c1-12.9,3.9-25.4,7.1-37.8
					c2.8-11,6.5-21.8,10.8-32.4c4.5-11.1,9.6-21.9,15.3-32.5c6.5-12,13.9-23.4,22-34.4c10.9-14.8,23.5-28,37-40.2
					c13.7-12.3,28.5-23.3,44.5-32.5c6.1-3.5,12.1-7,18.4-10.1c9.4-4.7,19-8.7,28.8-12.4c11.7-4.4,23.7-7.8,35.8-10.7
					c4.8-1.1,9.7-1.9,14.5-2.8c5.9-1,11.9-2.2,17.9-2.3c3.7-1.3,7.6-0.9,11.5-1.1c1.6-0.1,3.3,0,4.9-0.6c1.1-0.4,2.5-0.3,3.8-0.3
					c7.9,0,15.8,0,23.8,0c1.8,0,3.6,0.3,5.4,0.6c2.7,0.5,5.5,0.3,8.2,0.5c4.7,0.4,9.4,0.9,14.1,1.8c3,0.5,6.2,0.8,9.2,1.3
					c8.1,1.4,16.2,3.1,24.1,5.2c9.9,2.6,19.6,5.9,29.3,9.4c3.4,1.3,6.8,2.8,10.2,4.2c0.8,0.3,1.7,0.7,2.6-0.4
					c-0.8-0.5-1.5-1-2.4-1.3c-3.4-1.3-6.9-2.5-10.4-3.7c-4.9-1.7-9.3-4.3-13.7-7c-1.2-0.8-2.5-1.6-3.8-2.5c-0.7,0.5-1.4,1.1-2.2,1.6
					c-0.8,0.5-1.8,0.6-2.6,0c-1.2-1.1-2.6-2.2-3.4-3.5c-1.6-2.5-2.9-5.1-4.2-7.8c-0.4-0.8-0.5-1.8-0.6-2.7c-0.1-0.9,0.1-2,1.1-2.3
					c2-0.6,2.8-2.3,3.7-4c3.7-1.3,7.5-3.2,11.7,0.2c0.7,3.5,0.8,7.3-0.5,11.4c7.7,7.7,17.8,11.4,27.9,15.4c0.1-3.7-0.9-6.6-3.2-9.1
					c-2.2-2.5-4.4-4.9-5.7-8.1c-0.3-0.7-0.6-1.3-0.8-2.1c-0.2-0.9,0.1-1.8,0.9-2.4c0.8-0.5,1.7-0.8,2.2-1.5c1.4-1.8,3.3-2.2,5.4-2.2
					c3.5-0.1,5.6,1.6,5.9,5.1c0.3,3.5,0.3,7-2.1,10c-0.3,0.4-0.6,0.9-0.9,1.5c0.7,3.6,1.5,7.1,2.2,10.8c3.5,1.9,6.9,4,10.5,5.9
					c4.4,2.3,8.4,5.3,12.3,8.4c3.3,2.6,6.6,5.3,10.8,7.1c0-0.6,0.1-1.2-0.1-1.5c-2.9-4-5.2-8.4-7.4-12.9c-1.6-3.3-3.5-6.5-5.2-9.5
					c0.1-1.5,0.9-2.2,2.1-2.4c1.6-0.3,3.4-0.6,4.7,0.7c5.2,5.5,11.9,8.7,18.2,12.3c6.1,3.5,11.5,7.9,17.1,12.1c1,0.8,1.9,1.7,3,2.4
					c4.2,2.9,7,7,9.5,11.3c2.5,4.5,4.4,9.3,6,14.2c0.5,1.6,0.9,3.2,1.5,4.7c0.7,1.9,1.7,3.6,3.4,4.9c9.9,7.7,18.9,16.4,27.6,25.5
					c1.1-0.3,0.7-1.2,0.5-1.7c-1.2-4.1-2.2-8.2-2.2-12.4c-1.6-5.6-0.8-11.4-0.8-17c0-3.3,0.5-6.6,1.2-9.8c1.2-5,2.1-10,3.9-14.9
					c1.3-3.6,2.9-7.1,4.5-10.7c1.1-2.4,2.7-3.3,5.2-3c0.4,0,0.7,0.2,1,0.3c1.2,0.9,0.7,2.4,1,3.6c0.3,1.2,0.6,2.5,0.7,3.8
					c0.1,0.7,0.1,1.5,0,2.2c-0.4,8.5,1.3,16.8,2.9,25.1c1,5.4,2,10.9,1.5,16.4c-0.2,2.7-0.7,5.5-1.4,8.1c-2.1,7.8-4.5,15.5-5.9,23.9
					c17.3,21.2,31.6,44.6,42.6,71.5c0.2-6.6,0.4-11.9-0.1-17.3c-0.2-2.2-0.8-4.3-1.4-6.4c-1-3.5-2.1-7-3.2-10.7
					c-2.5-1.6-4.9-3.6-6.7-6.3c-2.5-3.8-2.5-7.6-0.5-11.5c0.9-1.7,2.3-2.9,4.4-2.9c0.2,0,0.4-0.1,0.5-0.1c4.9-0.3,7.9,2.3,8.4,7.3
					c0.4,4.4,0.1,6.5-1.8,11c0.7,5.9,3.1,11.2,3,17c1.2,2.8,0.9,5.8,0.8,8.7c-0.1,1.8-0.6,3.5-0.4,5.5c1.5-4,2.9-8,4.5-11.9
					c1.7-4.3,3.4-8.6,5.2-12.8c1.8-4,3.8-8,5.8-12.3c-0.3-1.1-0.5-2.7-1-4.3c-0.9-3-0.1-5.8,1-8.5c0.6-1.5,1.6-2.5,3.1-2.9
					c0.5-0.1,1.1-0.3,1.6-0.5c3-0.9,5.9-0.1,7.8,2.3c0.4,0.6,0.9,1.3,1,1.9c0.8,4.9,0.4,9.5-2.3,13.8c-1.6,2.5-3.6,4.2-6.7,3.7
					c-1.9,2.2-3.3,4.6-4.4,7.1c-3.6,8.2-7.5,16.4-10.3,25c-1.6,4.9-2.3,10-3.6,15c-0.3,1.2-0.3,2.5,0.3,3.8c0.7,1.7,1.3,3.4,1.9,5.1
					c1.3,0.2,1.6-0.8,2.1-1.4c2.1-2.8,4.1-5.7,6.2-8.5c5.6-7.6,12.6-13.9,20.1-19.6c3.3-2.6,6.8-5,10.2-7.5c0.6-0.4,1.2-0.9,1.9-1.1
					c0.9-0.3,1.8-0.3,2.6,0.4c0.8,0.7,1.1,1.6,0.8,2.5c-0.4,1.2-0.8,2.5-1.6,3.5c-4.3,5.6-7.1,12-10.2,18.3
					c-3,6.1-5.9,12.3-9.8,17.9c-3.2,4.5-6.7,8.7-10.2,13.1c-1.8,2.3-3.7,4.6-5.6,6.9c0.4,2.1,0.7,4.1,1.2,6c1,3.9,1.6,7.9,2.2,11.9
					c0.3,1.8,0.8,3.6,1.2,5.8c2.7-2.7,5.1-5.2,7.6-7.6c6.7-6.6,14-12.4,22-17.5c1.1-0.7,2.2-1.3,3.3-1.9c4.5-2.5,9.2-3.7,14.3-2.8
					V309.3L683.4,309.3z"/>
			</g>
		</g>
	</g>
</g>
<g>
	<g>
		<g>
			<g>
				<rect x="107.6" y="294.4" class="st0" width="400" height="7.7"/>
			</g>
		</g>
	</g>
</g>
<g>
	<g>
		<g>
			<g>
				<rect x="107.6" y="415.6" class="st0" width="400" height="7.7"/>
			</g>
		</g>
	</g>
</g>
<g>
	<path class="st0" d="M318.1,171.9c2.2-1.1,4.6,2.2,2.1,3.1c-5.5,2.1-11.9,2.6-17.7,3c-4.8,0.3-9.6,0.4-14.3,0.3
		c-0.1,2.1-0.3,4.2-0.4,6.3c-0.6,9.4-1.3,18.7-1.8,28.1c-0.5,9.1-1.3,18.2-1.1,27.3c0.1,4.1,0.5,8.2,1.6,12.1
		c0.5,1.6,1.2,3.2,2.9,3.6c2,0.5,4.2-0.4,5.9-1.5c7.3-4.4,9.8-13.4,12-21c0.5-1.9,4-1.2,3.5,0.8c-2.5,9.2-6,20.3-15.6,24.4
		c-4.1,1.8-8.5,2-12.3-0.5c-3.8-2.5-5.6-6.6-6.9-10.8c-2.9-10-2.6-20.7-2.8-30.9c-0.2-10.7,0.2-21.4,0.8-32.1
		c0.1-2.1,0.3-4.2,0.4-6.3c-3.4-0.2-6.8-0.3-10.2-0.5c-3.1-0.1-6.2-0.4-9.3-0.2c-0.4,0-0.7,0.1-1.1,0.1c0.4,0.1,0.7,0.2,1.1,0.4
		c2.4,0.9,0.1,3.6-2,2.8c-0.6-0.2-1.6,0.2-2.3,0.1c-0.5,0-1-0.1-1.5-0.3c-0.8-0.3-1.7-0.9-1.9-1.8c-0.9-2.8,2.8-4,4.8-4.4
		c3.4-0.7,7-0.3,10.5-0.2c3.6,0.1,7.3,0.3,10.9,0.5c0.4,0,0.9,0,1.3,0.1c0.2-2.2,0.3-4.3,0.5-6.5c0.4-5.6,0.8-11.4,2.5-16.7
		c0.9-2.7,3.9-3.9,6.5-3.6c2.8,0.3,4.7,2.2,5.1,4.9c0.8,5.3,0.1,10.8-0.3,16.2c-0.2,2-0.3,4.1-0.5,6.1c2.4,0,4.8,0,7.2,0
		c3.8-0.1,7.5-0.3,11.3-0.7C310.6,173.9,314.7,173.6,318.1,171.9L318.1,171.9z"/>
	<path class="st0" d="M369,229.1c0.9-1.9,4.8-1.2,3.9,0.9c-2.2,5.1-4.8,10-7.9,14.5c-2.4,3.5-5.3,7.9-10,8.2
		c-11.6,0.8-12.5-17-12.3-25c0.2-10,1.3-20,1.5-30.1c0-0.6,0.4-2.3-0.1-2.8c-0.7-0.6-2,0.7-2.7,1.2c-1.6,1.4-3,3-4.2,4.7
		c-2.8,4-5,8.6-7,13c-4,8.9-6.9,18.2-9.8,27.4c-0.1,1-0.2,1.9-0.4,2.9c-0.5,4.5-8.2,5.9-9.4,1.1c-0.5-2.1-1.3-4.2-1.6-6.4
		c-0.3-2-0.4-4.1-0.5-6.2c-0.3-3.8-0.4-7.7-0.6-11.5c-0.2-7.7-0.3-15.3-0.2-23c0.1-13.5,0.8-27.2,4.3-40.3
		c1.5-5.7,3.7-11.6,8.3-15.5c4.2-3.6,9.9-4.5,15.1-2.6c12.2,4.3,5.8,20.7,2.2,28.9c-4.4,10.2-10.5,19.6-16.8,28.7
		c-0.1,3.3-0.1,6.7-0.2,10c-0.1,6-0.1,12.1,0,18.1c0,0.7,0,1.3,0,2c2.1-6.1,4.4-12.2,7.2-18c3.4-7.2,8-17.2,16.7-19
		c5-1.1,9.1,2.8,10.7,7.2c1.7,4.9,2.1,10.3,2.1,15.4c0.1,10.1-1.2,20.2-1,30.3c0,1-0.2,2.3,0.3,3.3c0.4,0.7-0.3,0.7,0.6,0.2
		c1.7-0.9,3.1-3.2,4.2-4.7C364.3,238.1,366.9,233.7,369,229.1L369,229.1z M321,190.6c5.2-7.7,10.1-15.5,13.6-24.1
		c2-4.7,4.3-10.2,4.3-15.4c0-4.7-3.7-10.9-8.8-7.1c-3.4,2.5-4.6,7.6-5.4,11.5c-1.1,5.3-1.8,10.7-2.4,16.1
		C321.6,178,321.2,184.3,321,190.6z"/>
	<path class="st0" d="M416.5,218.6c-1.7,6.6-4.3,13-7.9,18.8c-3.1,5.1-7.1,10.8-12.8,13.2c-11.9,5-22.2-6.9-25.6-17
		c-2.2-6.6-2.1-13.6-1-20.4c1.1-6.4,3.3-12.9,8.3-17.4c4.5-4.1,10.8-6,16.7-3.8c4.3,1.6,8.3,4.8,8.3,9.8c0,5.3-4.9,9.2-9.3,11.3
		c-3.7,1.7-7.6,2.6-11.6,2.5c-1.3,7.5-1.5,15.1,0.3,22.6c0.9,4,3,8,7.1,9.3c4.5,1.4,8.4-1.6,11.2-4.9c6.1-7.1,10.3-15.9,12.7-24.9
		C413.4,215.8,417.1,216.5,416.5,218.6z M382.6,210.6c-0.2,0.6-0.3,1.3-0.4,2c3.9-0.1,7.7-1.2,11.1-3.2c4-2.4,7.8-7.6,3.6-11.7
		c-1.6-1.6-3.4-2.4-5.5-1.6c-1.5,0.6-3,1.7-4,2.9C384.7,202.1,383.5,206.7,382.6,210.6L382.6,210.6z"/>
</g>
<g>
	<path class="st0" d="M250.3,521.4c-8.7,5.1-19.1,6.9-29,5.2c3.8,3.5,6.7,8,8.2,13c2.5,8.2,1.2,18.9-4.5,25.6
		c-2.6,3.1-5.9,4-9.8,2.9c-4.6-1.3-6.7-5.3-8.3-9.5c-3.5-9.1-4.3-18.9-4.8-28.5c-0.5-9.8-0.2-19.6,0.5-29.3
		c0.7-9.2,2.1-18.6,6.1-26.9c3.5-7.4,11-15.3,20.1-12.2c7.2,2.4,9.6,11.5,9.8,18.2c0.7,17.3-10.6,31.8-23.9,41.5
		c-0.9,0.6-2.3,0-2.4-0.8c0,0.3,0,0.7,0,1c0.4-0.1,0.8-0.1,1.2,0c11.4,4.7,24.4,3.8,35-2.4C250.2,518.1,252,520.3,250.3,521.4z
		 M212.4,524c0,2.6,0,5.2,0,7.8c0.1,8,0.2,16.1,1.9,23.9c0.4,1.8,0.8,3.6,1.5,5.3c0.5,1.2,1,3,2.3,3.7c3.1,1.7,6-4.3,6.9-6.3
		C231,545.5,225.2,530,212.4,524z M212.5,520.2c0-0.2,0.2-0.4,0.4-0.7c12.9-9.8,23.9-24.4,22.3-41.4c-0.5-5-3.2-14.9-10.3-12
		c-2.8,1.1-4.7,3.9-5.8,6.6c-1.5,3.5-2.7,7.1-3.5,10.8c-1.7,7.6-2.2,15.4-2.6,23.2C212.7,511.2,212.5,515.7,212.5,520.2z"/>
	<path class="st0" d="M299.7,520.4c0.6-1.7,3.8-1.1,3.1,0.7c-2.1,6.1-4.2,12.3-7.4,18c-2.4,4.3-5.7,9.8-11.4,8.9
		c-5.7-0.9-8-7.4-8.9-12.3c-0.9-5.4-1.1-10.9-1.1-16.4c-1.4,4.3-3.1,8.6-5.1,12.6c-1.7,3.5-3.3,7.3-6,10.2c-2.8,3-7,3.5-10.6,1.7
		c-7.8-3.8-9.5-14.7-8.4-22.4c1.2-8.2,4.6-17.2,11.7-22.1c3.2-2.3,7.2-3.5,11.1-2.3c3.2,1,6.3,3.2,7.5,6.4c0.8,2.1-2.6,2.8-3.7,1.3
		c-1-1.4-1.8-2.6-3.5-3.1c-1.1-0.3-2.1-0.1-3,0.5c-2.7,1.6-4.5,4.3-6,7c-3,5.3-4.5,11.7-4.8,17.7c-0.2,3-0.1,6.2,1,9
		c0.6,1.6,2.1,4.2,4.1,3.5c2.8-0.9,4.7-4.4,6.2-6.7c1.9-2.9,3.3-6.1,4.6-9.3c2.2-5.3,3.9-10.7,5.5-16.2c0.1-3.3,0.2-7.5,2.2-10.2
		c1.9-2.6,7-3.1,8.7,0c1.9,3.4,1.5,7.7,1.4,11.4c-0.2,3.3-0.3,6.7-0.6,10c-0.6,6.5-0.9,13-0.7,19.5c0,1.5,0.1,3,0.3,4.4
		c0.1,0.4,0.2,1.7,0.6,1.9c1.1,0.5,2.8-1.9,3.3-2.6c0.9-1.2,1.7-2.5,2.5-3.8C295.4,532.4,297.5,526.4,299.7,520.4L299.7,520.4z"/>
	<path class="st0" d="M364.1,523.5c0.7-1.6,3.8-1,3.1,0.7c-1.6,3.8-3.2,7.7-5.3,11.3c-1.8,3-4.2,7.4-8.2,7.7
		c-3.5,0.2-6.2-2.4-7.5-5.3c-1.6-3.8-2.3-8-2.4-12.1c-0.3-8,0.6-16.1,1.6-24c0.1-0.5,0.5-3.1,0-3.4c-0.1,0-1.7,1.4-2,1.7
		c-0.6,0.6-1.2,1.3-1.7,2c-2.3,3-4,6.4-5.4,9.9c-2.7,6.6-4.8,13.5-6.4,20.5c-0.1,1.3-0.2,2.6-0.5,3.8c-1.1,4.3-7.7,3.5-9.2,0
		c-1.4-3.4-0.9-7.9-0.7-11.5c0.2-3.5,0.4-7,0.7-10.4c0.2-3.4,0.4-6.9,0.5-10.3c0-1.5,0-3.1,0-4.6c0-0.5,0.2-0.8-0.3-0.9
		c-0.7-0.1-1.5,1-1.9,1.5c-4.4,4.9-5.8,12.3-7.2,18.5c-1.2,5.2-2.2,10.5-3.1,15.8c-0.1,1.9-0.4,3.7-0.9,5.4c0,0,0,0.1,0,0.1
		c0,0.1-0.1,0.2-0.1,0.3c-0.2,0.6-0.5,1.1-0.8,1.7c-0.9,1.7-3.7,1.4-4.7,0c-2.2-3-2.6-6.9-2.9-10.6c-0.3-3.4-0.5-6.8-0.5-10.2
		c0-7.1,0.2-14.4,1.7-21.4c0.5-2.3,3.4-3.2,5.5-3c2.1,0.2,4.3,1.8,4.3,4.2c0,4.7-0.4,9.4-0.7,14.1c1.1-4.8,2.5-9.8,5.1-14
		c1.2-2,3-4.5,5.5-5c2.1-0.4,4.5,0.8,6,2.2c2.1,2,3,5.6,3.6,8.3c0.8,3.2,1,6.7,1,10c0,1.1,0,2.2-0.1,3.3c1.2-3.8,2.6-7.5,4.2-11
		c2.2-5,6.3-13.7,13-12.8c3.5,0.4,5.4,3.5,6.5,6.6c1.3,3.7,1.5,7.9,1.3,11.8c-0.2,4-0.6,7.9-0.8,11.9c-0.2,3.6-0.6,7.3-0.1,10.9
		c0.1,0.6,0.1,1.3,0.3,1.8c0,0.1,0,0.2,0,0.2c0.1,0,1-0.7,1.3-0.9c1.4-1.2,2.5-2.8,3.4-4.3C361.2,530.6,362.7,527,364.1,523.5
		L364.1,523.5z"/>
	<path class="st0" d="M371.4,493.4c-1.7-0.2-2.7-1.9-4.7-5.3c-2.5-4.3-5.1-8.8-3.4-12.7c0.5-1.3,1.2-1.7,1.5-1.9
		c2-1.2,4.9-0.2,6.5,1.6c0.6,0.7,1.2,1.5,1.7,2.4c0.1-0.1,0.3-0.4,0.5-0.6c1.1-1.4,1.7-2.2,2-2.5c1.2-1.3,4.8-1.4,6.3,0
		c2.7,2.5-0.7,10-3.9,14.1C376.4,490.6,374,493.7,371.4,493.4L371.4,493.4z M389.7,520.4c0.6-1.7,3.8-1.1,3.1,0.7
		c-2.1,6.1-4.2,12.3-7.4,18c-2.4,4.3-5.7,9.8-11.4,8.9c-5.7-0.9-8-7.4-8.9-12.3c-1.1-6.3-1.2-12.7-1-19.1c0.1-3.1,0.3-6.2,0.4-9.3
		c0.2-3.4,0.2-7.6,2.2-10.4c1.9-2.6,7-3.1,8.7,0c1.9,3.4,1.5,7.7,1.4,11.4c-0.2,3.3-0.3,6.7-0.6,10c-0.6,6.5-0.9,13-0.7,19.5
		c0,1.5,0.1,3,0.3,4.4c0.1,0.4,0.2,1.7,0.6,1.9c1.1,0.5,2.8-1.9,3.3-2.6c0.9-1.2,1.7-2.5,2.5-3.8
		C385.4,532.4,387.5,526.4,389.7,520.4L389.7,520.4z"/>
	<path class="st0" d="M398,500.3c-0.1,4.3-0.1,8.6-0.3,13c-0.2,5.8-0.4,11.8,0.3,17.6c0.3,2.3,0.5,5.4,1.9,7.3
		c0.6,0.9,1.2,1.5,2.2,1c1.2-0.6,2.1-1.6,2.9-2.6c3.6-4,6.2-8.8,7.9-13.9c0.5-1.6,3.6-1.1,3.1,0.7c-2,6.7-5.6,13.2-10.5,18.1
		c-2.6,2.6-6.8,3.5-9.9,1.2c-3.1-2.2-4.3-6-5.2-9.6c-1.8-7.1-2.1-14.3-2.2-21.6c-0.1-7.2,0.1-14.5,0.9-21.7c0.8-7.1,2-14.3,4.6-21
		c2.2-5.8,5.6-11.6,11.8-13.7c4.7-1.6,11.2-0.3,14,4c3.1,4.7,1.8,11.1,0.3,16.1c-1.7,5.5-4.6,10.7-8.4,15.1
		C407.9,494.3,403.2,499,398,500.3L398,500.3z M398.1,497.5c2.3-0.9,4.3-2.5,6.1-4c2.1-1.8,4.1-3.8,5.8-6.1
		c3.3-4.3,5.8-9.3,7.1-14.6c1.1-4.2,2.2-10.9-2.2-13.7c-3.9-2.4-8.1,1.4-10.2,4.5c-2.8,4.2-3.9,9.9-4.8,14.8
		c-1.1,5.6-1.4,11.3-1.7,17C398.1,496.1,398.1,496.8,398.1,497.5z"/>
	<path class="st0" d="M468.5,524.1c0.5-1.7,3.5-1.1,3.1,0.7c-1.6,6.9-6.9,12.2-12.9,15.7c-1.2,0.7-2.5,1.4-3.8,2
		c0,5.5-0.1,11.1-0.5,16.6c-0.5,8-1.3,16.4-3.7,24c-2.3,7.1-7.1,13.1-14.4,15.4c-6.5,2-14.4,0.9-19.5-3.7c-4.8-4.4-7.9-10.5-8.4-17
		c-0.6-6.6,1.8-13.3,5.9-18.5c4.5-5.8,10.7-9.5,17.5-12.1c3.6-1.3,7.6-2.5,11.6-3.7c-0.1-7.2-0.5-14.4-0.5-21.5
		c-0.5,1.5-1,2.9-1.6,4.4c-1.1,2.8-2.3,5.5-3.7,8.1c-1.4,2.5-2.9,5.4-5.3,7.1c-5.1,3.7-11.1,0.4-14.5-4c-3.8-5-4.6-11.8-5-17.9
		c-0.2-3.3,0-6.7,0.1-10c0.2-3.6,0.6-7.3,1.6-10.7c1.5-4.8,10.1-4,10.2,1.2c0,3.8-0.6,7.6-1,11.3c-0.4,3.5-0.7,7-0.9,10.5
		c-0.2,3.3,0,6.5,0.5,9.7c0.4,2.5,0.9,6.5,3.4,7.9c3.3,1.7,6-3.1,7.3-5.3c1.8-3.1,3.3-6.4,4.5-9.8c2-5.3,3.4-10.8,4.5-16.3
		c0.1-2.5,0.4-5.1,0.7-7.6c0.4-3,2.7-4.7,5.7-4.8c2.6-0.1,5.8,2,5.7,4.8c-0.2,9.8-0.3,19.5-0.3,29.3c0,3.1,0,6.2,0,9.3
		C461.2,536,466.3,531.5,468.5,524.1L468.5,524.1z M443.4,548.7c0-0.7,0-1.4,0-2.1c-2.6,0.8-5.3,1.6-7.9,2.5
		c-6.8,2.3-13.4,5.6-18,11.3c-4,5-6.2,11.3-5.4,17.7c0.8,6.1,4.3,11.8,10.3,13.9c4.9,1.7,10.8,1.3,14.5-2.7c3.9-4.3,4.8-11,5.4-16.4
		C443.1,564.9,443.4,556.8,443.4,548.7z"/>
</g>
</svg>

