<?xml version="1.0" encoding="utf-8"?>
<!-- Generator: Adobe Illustrator 23.0.5, SVG Export Plug-In . SVG Version: 6.00 Build 0)  -->
<svg height="500" width="500" version="1.1" xmlns="http://www.w3.org/2000/svg" xmlns:xlink="http://www.w3.org/1999/xlink" x="0px" y="0px"
	 viewBox="0 0 720 720" style="enable-background:new 0 0 720 720;" xml:space="preserve">
<style type="text/css">
	.st0{fill:#050002;}
	.st1{fill-rule:evenodd;clip-rule:evenodd;fill:#050002;}
	.st2{fill-rule:evenodd;clip-rule:evenodd;}
	.st3{fill:#221F1F;}
	.st4{fill:#231F20;}
	.st5{fill:#070808;}
	.st6{fill:#211E1F;}
	.st7{fill:#161616;}
	.st8{fill:#131313;}
	.st9{fill:#21201F;}
	.st10{fill:#2C2929;}
</style>
<g>
	<g>
		<g>
			<path class="st0" d="M608.2,419.9 M331.4,646C331.5,646,331.5,646,331.4,646c2.1,0.3,4.2,0.6,6.3,0.9c1.2,0.2,2.4,0.3,3.7,0.4
				c8.7,1,17.6,1.5,26.5,1.5c12.1,0,24.3-0.9,36.2-2.8c19.7-9,40.4-16.3,61.4-21.6c0.8-0.2,1.7,0.2,2.1,1c0.2,0.4,0.2,0.9,0.1,1.3
				c1.3-0.6,2.6-1.2,3.8-1.8c1.3-0.6,2.5-1.2,3.8-1.9c0,0,0,0,0.1,0c30.2-15.5,57.4-37.8,78.7-64.7c0,0,0,0,0,0
				c1.4-1.7,2.7-3.5,4-5.2c0.7-0.9,1.4-1.8,2.3-3.1c12.5-17.2,22.7-36,30.3-55.7c2.2-22,6.3-43.8,12.3-64.9c0.2-0.8,1-1.4,1.9-1.3
				c0.4,0,0.8,0.2,1.1,0.5c0.1-1.4,0.2-2.9,0.4-4.3c0,0,0,0,0,0c0.1-1.5,0.2-2.8,0.3-4.2c0,0,0,0,0,0c0.3-4.5,0.4-9.1,0.4-13.8
				c0-30.4-5.5-60.1-16.3-88.2c0,0,0-0.1,0-0.1c-0.7-1.8-1.4-3.6-2.2-5.6c-0.5-1.2-1-2.4-1.5-3.5c0-0.1,0-0.1-0.1-0.2
				c-8.4-19.4-19.3-37.7-32.5-54.3c-17.6-12.9-34.1-27.4-49-43.2c-0.6-0.6-0.7-1.6-0.2-2.3c0.2-0.4,0.6-0.6,1-0.7
				c-1.2-0.9-2.4-1.7-3.5-2.5c-1.1-0.8-2.3-1.6-3.5-2.4c-28.8-19.2-60.6-31.7-94.6-37c0,0-0.1,0-0.1,0c-2-0.3-4.1-0.6-6.2-0.9
				c-1.2-0.2-2.4-0.3-3.7-0.4c-8.7-1-17.6-1.5-26.5-1.5c-12.1,0-24.3,0.9-36.2,2.8c-19.7,9-40.4,16.3-61.4,21.6
				c-0.8,0.2-1.7-0.2-2.1-1c-0.2-0.4-0.2-0.9-0.1-1.3c-1.3,0.6-2.6,1.2-3.8,1.8c-1.3,0.6-2.5,1.2-3.8,1.9c0,0,0,0-0.1,0
				c-30.2,15.5-57.4,37.8-78.7,64.7c0,0,0,0,0,0c-1.4,1.7-2.7,3.5-4,5.2c-0.7,0.9-1.4,1.8-2.3,3.1c-12.5,17.2-22.6,35.9-30.3,55.7
				c-2.2,22-6.3,43.8-12.3,64.9c-0.2,0.8-1,1.4-1.9,1.3c-0.4,0-0.8-0.2-1.1-0.5c-0.1,1.4-0.2,2.9-0.4,4.3c0,0,0,0,0,0
				c-0.1,1.5-0.2,2.8-0.3,4.2c0,0,0,0,0,0c-0.3,4.5-0.4,9.1-0.4,13.8c0,30.4,5.5,60.1,16.3,88.2c0,0,0,0.1,0,0.1
				c0.7,1.8,1.4,3.6,2.2,5.6c0.5,1.2,1,2.4,1.5,3.5c0,0.1,0,0.1,0.1,0.2c8.4,19.4,19.3,37.7,32.5,54.3c17.6,12.9,34.1,27.4,49,43.2
				c0.6,0.6,0.7,1.6,0.2,2.3c-0.2,0.4-0.6,0.6-1,0.7c1.2,0.9,2.4,1.7,3.5,2.5c1.1,0.8,2.3,1.6,3.5,2.4
				C265.6,628.3,297.4,640.7,331.4,646z M367.9,652.5c-9,0-18.1-0.5-26.9-1.5c-1.4-0.1-2.6-0.3-3.8-0.5c-2.1-0.3-4.2-0.6-6.2-0.9
				c0,0-0.1,0-0.1,0c-34.5-5.4-66.9-18-96.1-37.6c-1.2-0.8-2.4-1.6-3.5-2.4c-2.5-1.8-5.1-3.6-7.8-5.7c0,0-0.1,0-0.1-0.1
				c-3.5-2.6-6.9-5.4-10.3-8.2c-0.7-0.6-0.9-1.7-0.3-2.5c0.6-0.8,1.6-1,2.4-0.5c1.7,1,3.4,2,5,3c-12.7-12.6-26.5-24.3-41-34.9
				c-0.1-0.1-0.3-0.2-0.4-0.3c-13.4-17-24.6-35.6-33.2-55.5c0-0.1,0-0.1-0.1-0.2c-0.5-1.1-1-2.3-1.4-3.4c-0.8-2-1.6-3.8-2.2-5.6
				c0,0,0-0.1,0-0.1c-11-28.5-16.5-58.7-16.5-89.6c0-4.8,0.1-9.5,0.4-14c0,0,0,0,0,0c0.1-1.4,0.2-2.8,0.3-4.3c0,0,0,0,0,0
				c0.2-3.4,0.5-6.7,0.9-9.9c0,0,0,0,0,0c0.5-4.4,1.1-8.9,1.9-13.4c0.2-1,1-1.6,2-1.5c0.9,0.1,1.7,0.9,1.6,1.9c0,2.1-0.1,4.2,0,6.1
				c4.4-17.6,7.5-35.6,9.3-53.7c0-0.2,0.1-0.3,0.1-0.5c7.7-20.2,18.1-39.3,30.8-56.8c0.9-1.2,1.6-2.2,2.3-3.1c1.3-1.7,2.6-3.4,4-5.2
				c0,0,0.1-0.1,0.1-0.1c21.6-27.3,49.2-49.9,79.9-65.6c0,0,0,0,0,0c1.3-0.6,2.5-1.3,3.8-1.9c3-1.5,6.1-2.9,9-4.2c0,0,0,0,0.1,0
				c4.1-1.8,8.2-3.5,12.2-4.9c0.9-0.3,1.9,0.1,2.3,1c0.4,0.9,0.1,1.9-0.8,2.4c-1.9,1-3.7,2.1-5.4,3.1c17.2-4.9,34-11.2,50.3-18.6
				c0.2-0.1,0.3-0.1,0.5-0.1c12.1-1.9,24.6-2.8,36.9-2.8c9,0,18.1,0.5,26.9,1.5c1.4,0.1,2.6,0.3,3.8,0.5c2.1,0.3,4.2,0.6,6.2,0.9
				c0,0,0.1,0,0.1,0c34.5,5.4,66.9,18,96.1,37.6c1.2,0.8,2.4,1.6,3.5,2.4c2.5,1.8,5.1,3.6,7.8,5.7c0,0,0.1,0,0.1,0.1
				c3.5,2.6,6.9,5.4,10.3,8.2c0.7,0.6,0.9,1.7,0.3,2.5c-0.6,0.8-1.6,1-2.4,0.5c-1.7-1-3.4-2-5-3c12.7,12.6,26.5,24.3,41,34.9
				c0.1,0.1,0.3,0.2,0.4,0.3c13.4,17,24.6,35.6,33.2,55.5c0,0.1,0,0.1,0.1,0.2c0.5,1.1,1,2.3,1.4,3.4c0.8,2,1.6,3.8,2.2,5.6
				c0,0,0,0.1,0,0.1c11,28.5,16.5,58.7,16.5,89.6c0,4.8-0.1,9.5-0.4,14c0,0,0,0,0,0c-0.1,1.4-0.2,2.8-0.3,4.3c0,0,0,0,0,0
				c-0.2,3.4-0.5,6.7-0.9,9.9c0,0,0,0,0,0c-0.5,4.4-1.1,8.9-1.9,13.4c-0.2,1-1,1.6-2,1.5c-0.9-0.1-1.7-0.9-1.6-1.9
				c0-2.1,0.1-4.2,0-6.1c-4.4,17.6-7.5,35.6-9.3,53.6c0,0.2-0.1,0.5-0.2,0.7c-7.7,20.1-18.1,39.2-30.8,56.7
				c-0.9,1.2-1.6,2.2-2.3,3.1c-1.3,1.7-2.6,3.4-4,5.2c0,0-0.1,0.1-0.1,0.1c-21.6,27.3-49.2,49.9-79.9,65.6c0,0,0,0,0,0
				c-1.3,0.6-2.5,1.3-3.8,1.9c-3,1.5-6.1,2.9-9,4.2c0,0,0,0-0.1,0c-4.1,1.8-8.2,3.5-12.2,4.9c-0.9,0.3-1.9-0.1-2.3-1
				c-0.4-0.9-0.1-1.9,0.8-2.4c1.9-1,3.7-2.1,5.4-3.1c-17.2,4.9-34,11.2-50.3,18.6c-0.2,0.1-0.3,0.1-0.5,0.1
				C392.7,651.6,380.3,652.5,367.9,652.5z"/>
		</g>
	</g>
	<g>
		<g>
			<path class="st0" d="M147.4,506.4C147.4,506.4,147.4,506.4,147.4,506.4c-1.1,0-1.8-0.9-1.8-1.9c0.5-16.6,4.9-32.8,12.9-46.7
				c0.5-0.9,1.6-1.2,2.5-0.7c0.9,0.5,1.2,1.6,0.7,2.5c-7.7,13.4-12,29-12.4,45C149.2,505.6,148.4,506.4,147.4,506.4z"/>
		</g>
	</g>
	<g>
		<g>
			<path class="st0" d="M147.4,506.4c-0.6,0-1.2-0.3-1.5-0.8c-2.3-3.6-4.8-6.9-7.6-10.1c-8.3-9.3-18.7-16.4-28.8-23.3
				c-0.8-0.6-1.1-1.7-0.5-2.6c0.6-0.8,1.7-1.1,2.5-0.5c10.3,7,20.9,14.3,29.4,23.9c2.9,3.3,5.6,6.8,8,10.6c0.5,0.9,0.3,2-0.5,2.6
				C148.1,506.3,147.7,506.4,147.4,506.4z"/>
		</g>
	</g>
	<g>
		<g>
			<path class="st0" d="M165.9,458.2c0,3.7-1.8,5.5-5.4,5.5c-3.6,0-5.4-1.8-5.4-5.5c0-3.7,1.8-5.5,5.4-5.5
				C164.1,452.7,165.9,454.6,165.9,458.2z"/>
		</g>
	</g>
	<g>
		<g>
			<ellipse class="st0" cx="110.3" cy="470.5" rx="5.4" ry="5.5"/>
		</g>
	</g>
	<g>
		<g>
			<path class="st0" d="M138.6,456.1 M144.6,425.4c-2.1,10.1-3.8,20.4-4.2,30.7c-0.4,11.5,0.9,23.3,3.9,34.7l0.7-25.5
				C145.4,452.2,145.8,438.7,144.6,425.4z M145.9,503.5c-0.7,0-1.4-0.5-1.7-1.2c-5.4-14.8-7.9-30.8-7.3-46.3
				c0.5-14.3,3.6-28.4,6.5-42c0.2-0.9,0.9-1.5,1.8-1.5c0.9,0,1.6,0.7,1.7,1.5c2.7,17,2.3,34.5,1.8,51.3l-1,36.3
				c0,0.9-0.7,1.6-1.5,1.8C146.1,503.5,146,503.5,145.9,503.5z"/>
		</g>
	</g>
	<g>
		<g>
			<path class="st0" d="M103,409.4c8.4,26.2,19.8,51.3,33.8,74.9c-4.1-14.5-10.4-28.5-16.1-41.1C115.4,431.6,110.1,419.8,103,409.4z
				 M141.1,496.6c-0.6,0-1.2-0.3-1.5-0.8c-18.8-29.5-33.3-61.5-43.1-95.1c-0.2-0.8,0.1-1.7,0.9-2.1c0.7-0.4,1.7-0.2,2.2,0.4
				c10.8,12.6,17.7,27.9,24.3,42.6c7.2,16,15.4,34.1,19,52.9c0.2,0.9-0.3,1.7-1.1,2.1C141.5,496.6,141.3,496.6,141.1,496.6z"/>
		</g>
	</g>
	<g>
		<g>
			<path class="st0" d="M128,394.9c-0.8,0-1.5-0.5-1.7-1.3l0-0.1c0,0,0-0.1,0-0.1c-4.5-13.3-11.8-25.6-21.1-35.4
				c-0.7-0.7-0.7-1.9,0-2.6c0.7-0.7,1.9-0.7,2.6,0c9.7,10.2,17.3,23,22,36.8c0,0.1,0.1,0.2,0.1,0.3c0.3,1-0.2,2-1.1,2.3
				C128.4,394.8,128.2,394.9,128,394.9z"/>
		</g>
	</g>
	<g>
		<g>
			<path class="st0" d="M102.3,349.2c-0.4,0-0.7,0-1.1,0.2c-1.9,0.6-3,2.7-2.4,4.6c0.6,1.9,2.6,3,4.5,2.5c0.6-0.2,1.2-0.6,1.6-1
				c0.9-1,1.2-2.3,0.8-3.6C105.3,350.3,103.9,349.2,102.3,349.2z M102.3,360.3c-3.1,0-6-2.1-6.9-5.2c-1.2-3.9,1-8,4.8-9.2
				c3.8-1.2,7.9,1,9.1,4.9c0.7,2.5,0.1,5.2-1.6,7.1c-0.9,1-2,1.7-3.3,2.1C103.7,360.2,103,360.3,102.3,360.3z"/>
		</g>
	</g>
	<g>
		<g>
			<path class="st0" d="M128.3,394.4c-0.2,0-0.3,0-0.5-0.1c-1-0.3-1.5-1.3-1.2-2.3c0.3-1,0.6-1.9,0.9-2.9c1-2.9,2.1-5.9,3.5-8.7
				c4.9-10.4,11.9-19.6,18.1-27.4c0.6-0.8,1.8-0.9,2.6-0.3c0.8,0.6,0.9,1.8,0.3,2.6c-6,7.6-12.9,16.6-17.6,26.7
				c-1.3,2.7-2.4,5.5-3.3,8.3c-0.3,0.9-0.6,1.8-0.9,2.7C129.8,393.9,129.1,394.4,128.3,394.4z"/>
		</g>
	</g>
	<g>
		<g>
			<path class="st0" d="M153.9,346.2c-0.4,0-0.7,0-1.1,0.2c-1.9,0.6-3,2.7-2.4,4.6c0.3,0.9,0.9,1.7,1.8,2.2c0.9,0.5,1.8,0.6,2.8,0.3
				c0.9-0.3,1.7-0.9,2.1-1.8c0.5-0.9,0.6-1.9,0.3-2.8C156.9,347.2,155.4,346.2,153.9,346.2z M153.9,357.3c-1.2,0-2.3-0.3-3.4-0.9
				c-1.7-0.9-3-2.5-3.5-4.4c-1.2-3.9,1-8,4.8-9.2c3.8-1.2,7.9,1,9.1,4.9c0.6,1.9,0.4,3.9-0.5,5.6c-0.9,1.7-2.4,3-4.3,3.6
				C155.3,357.2,154.6,357.3,153.9,357.3z"/>
		</g>
	</g>
	<g>
		<g>
			<path class="st0" d="M108.1,316.8c2.7,13,6.9,25.8,11,38.3l7.9,24.2c-0.4-11.7-2.5-23.4-6.2-34.3
				C117.6,335.2,113,325.9,108.1,316.8z M128.7,392c-0.8,0-1.5-0.5-1.7-1.3l-11.3-34.5c-5.3-16-10.7-32.5-12.9-49.6
				c-0.1-0.9,0.4-1.7,1.2-2c0.8-0.3,1.7,0.1,2.2,0.8c6.7,12.2,13.6,24.8,18.2,38.3c5,14.7,7.1,30.8,6.2,46.5
				c-0.1,0.9-0.7,1.6-1.6,1.7C128.9,392,128.8,392,128.7,392z"/>
		</g>
	</g>
	<g>
		<g>
			<path class="st0" d="M143.4,289.2c-3.9,12.1-5.6,25-7.3,37.5c-1.5,11.1-3.4,24.9-3.7,38c0,2.1-0.1,4.2,0,6.2
				c4.4-17.6,7.5-35.6,9.3-53.7C142.7,307.8,143.2,298.5,143.4,289.2z M131.3,384c-0.1,0-0.1,0-0.2,0c-0.9-0.1-1.6-0.8-1.6-1.6
				c-0.6-5.6-0.8-11.4-0.7-17.8c0.3-13.3,2.2-27.2,3.7-38.4c2.2-16.1,4.4-32.7,11.1-48c0.4-0.8,1.2-1.2,2-1.1
				c0.8,0.2,1.4,0.9,1.4,1.8c0.1,12.8-0.5,25.8-1.8,38.5c-2.2,22-6.3,44-12.3,65.2C132.8,383.4,132.1,384,131.3,384z"/>
		</g>
	</g>
	<g>
		<g>
			<path class="st0" d="M157.2,361.1c-1.6,1.5-3.3,3-4.9,4.5c-4.1,3.7-8.3,7.5-12.1,11.6c-2.2,2.4-4.1,4.8-5.8,7.3
				c0.2-0.1,0.4-0.3,0.6-0.4c1.3-1,2.7-2,4-2.9c2.6-1.9,5.3-3.8,7.8-6C151,371.2,154.6,366.4,157.2,361.1z M128,394.8
				c-0.1,0-0.2,0-0.3,0c-0.7-0.1-1.2-0.6-1.4-1.2c0,0,0-0.1,0-0.1c-0.2-0.4-0.2-0.9,0-1.4c0.4-1,0.8-2,1.4-3.2
				c2.3-4.8,5.7-9.6,9.9-14.3c3.9-4.3,8.2-8.1,12.3-11.9c3.6-3.2,7.2-6.5,10.6-10c0.6-0.6,1.5-0.7,2.2-0.3c0.7,0.4,1.1,1.3,0.8,2.1
				c-2.5,8.9-7.6,17.2-14.4,23.4c-2.6,2.3-5.4,4.3-8.1,6.2c-1.3,0.9-2.6,1.9-3.9,2.8c-3.2,2.4-5.6,4.6-7.4,6.8
				c-0.1,0.1-0.2,0.3-0.3,0.4C129.1,394.6,128.5,394.8,128,394.8z"/>
		</g>
	</g>
	<g>
		<g>
			<path class="st0" d="M341.6,651.3c-0.3,0-0.7-0.1-0.9-0.3c-13.9-8.7-25.5-20.7-33.4-34.7c-0.5-0.9-0.2-2,0.7-2.5
				c0.9-0.5,2-0.2,2.5,0.7c7.6,13.5,18.7,25,32.1,33.4c0.9,0.5,1.1,1.7,0.6,2.5C342.9,651,342.3,651.3,341.6,651.3z"/>
		</g>
	</g>
	<g>
		<g>
			<path class="st0" d="M294.3,666.8c-0.7,0-1.3-0.4-1.6-1c-0.4-0.9-0.1-2,0.8-2.5c11.1-5.5,22.6-11.2,35.1-14
				c4.3-0.9,8.6-1.5,13-1.8c1,0,1.9,0.7,1.9,1.8c0,1-0.7,1.9-1.7,1.9c-4.2,0.2-8.3,0.8-12.4,1.7c-12,2.7-23.3,8.3-34.2,13.7
				C294.9,666.8,294.6,666.8,294.3,666.8z"/>
		</g>
	</g>
	<g>
		<g>
			<path class="st0" d="M314.2,614.7c0,3.7-1.8,5.5-5.4,5.5c-3.6,0-5.4-1.8-5.4-5.5c0-3.7,1.8-5.5,5.4-5.5
				C312.4,609.2,314.2,611,314.2,614.7z"/>
		</g>
	</g>
	<g>
		<g>
			<path class="st0" d="M299.6,665.1c0,3.7-1.8,5.5-5.4,5.5c-3.6,0-5.4-1.8-5.4-5.5c0-3.7,1.8-5.5,5.4-5.5
				C297.7,659.5,299.6,661.4,299.6,665.1z"/>
		</g>
	</g>
	<g>
		<g>
			<path class="st0" d="M272.8,612.3c7.6,6.9,15.5,13.5,24.1,19c9.6,6.1,20.3,10.9,31.5,13.9L307,631.8
				C296,625,284.7,617.9,272.8,612.3z M338.4,651.2c-0.1,0-0.2,0-0.3,0c-15.3-2.6-30.2-8.4-43.2-16.7c-11.9-7.6-22.4-17.3-32.5-26.7
				c-0.6-0.6-0.8-1.6-0.3-2.3c0.5-0.8,1.4-1.1,2.2-0.8c15.9,6.1,30.5,15.2,44.6,24.1l30.5,19.1c0.7,0.5,1.1,1.4,0.7,2.2
				C339.9,650.7,339.2,651.2,338.4,651.2z"/>
		</g>
	</g>
	<g>
		<g>
			<path class="st0" d="M238.3,641c26.5,5.6,53.5,8.2,80.7,7.7c-14.4-3.7-29.5-5.1-43.1-6.4C263.5,641.1,250.8,639.9,238.3,641z
				 M311.8,652.4c-28.3,0-56.6-3.4-84.1-10.1c-0.8-0.2-1.4-1-1.4-1.8c0-0.9,0.6-1.6,1.5-1.8c16.2-3.2,32.6-1.6,48.5-0.1
				c17.2,1.6,36.8,3.5,54.5,9.8c0.8,0.3,1.3,1.1,1.2,2c-0.1,0.9-0.8,1.5-1.7,1.6C324.1,652.2,317.9,652.4,311.8,652.4z"/>
		</g>
	</g>
	<g>
		<g>
			<path class="st0" d="M195.1,613.5c-0.8,0-1.6-0.6-1.8-1.4c-0.2-1,0.4-2,1.3-2.2c13.6-3.4,28.2-3.8,42.3-0.9c0.1,0,0.2,0,0.3,0.1
				c1,0.2,1.6,1.2,1.4,2.2c-0.2,1-1.2,1.6-2.1,1.4l-0.1,0c0,0-0.1,0-0.1,0c-13.6-2.7-27.7-2.4-40.8,0.9
				C195.4,613.4,195.3,613.5,195.1,613.5z"/>
		</g>
	</g>
	<g>
		<g>
			<path class="st0" d="M189.9,609.6c-0.7,0-1.3,0.2-1.9,0.6c-0.8,0.5-1.4,1.3-1.6,2.3c-0.2,1-0.1,1.9,0.5,2.8
				c0.5,0.8,1.3,1.4,2.3,1.6c0.9,0.2,1.9,0.1,2.7-0.5c0.8-0.5,1.4-1.3,1.6-2.3c0.2-0.7,0.1-1.3-0.1-1.9c-0.4-1.3-1.4-2.2-2.6-2.5
				C190.5,609.6,190.2,609.6,189.9,609.6z M189.9,620.7c-0.6,0-1.1-0.1-1.7-0.2c-1.9-0.4-3.5-1.6-4.5-3.3c-1-1.7-1.3-3.7-0.9-5.6
				c0.4-1.9,1.6-3.5,3.2-4.6c1.6-1,3.6-1.4,5.5-0.9c2.5,0.6,4.5,2.5,5.3,4.9c0.4,1.2,0.5,2.6,0.2,3.9c-0.4,1.9-1.6,3.5-3.2,4.6
				C192.6,620.3,191.3,620.7,189.9,620.7z"/>
		</g>
	</g>
	<g>
		<g>
			<path class="st0" d="M236.7,612.1c-0.5,0-1-0.2-1.3-0.6c-0.7-0.7-1.4-1.5-2-2.2c-2-2.3-3.9-4.8-5.7-7.4
				c-6.4-9.5-10.8-20.3-14.3-29.6c-0.4-1,0.1-2,1-2.4c0.9-0.4,2,0.1,2.3,1.1c3.5,9.1,7.7,19.7,13.9,28.8c1.7,2.5,3.5,4.9,5.4,7.1
				c0.6,0.7,1.2,1.4,1.9,2.1c0.7,0.7,0.7,1.9-0.1,2.6C237.6,611.9,237.2,612.1,236.7,612.1z"/>
		</g>
	</g>
	<g>
		<g>
			<path class="st0" d="M213.1,562.7c-1.7,0-3.1,1.1-3.5,2.9c-0.5,2,0.8,4,2.7,4.4c0.9,0.2,1.9,0.1,2.7-0.5c0.8-0.5,1.4-1.3,1.6-2.3
				c0.5-2-0.8-4-2.7-4.4C213.7,562.7,213.4,562.7,213.1,562.7z M213.1,573.8c-0.6,0-1.1-0.1-1.7-0.2c-3.9-0.9-6.3-4.9-5.4-8.9
				c0.9-4,4.8-6.4,8.7-5.5c3.9,0.9,6.3,4.9,5.4,8.9c-0.4,1.9-1.6,3.5-3.2,4.6C215.8,573.4,214.5,573.8,213.1,573.8z"/>
		</g>
	</g>
	<g>
		<g>
			<path class="st0" d="M162.1,590.1c12.5,4.2,25.4,6.9,38.1,9.5l24.6,5.1c-10.2-5.5-21.2-9.5-32.3-11.7
				C182.5,591,172.2,590.4,162.1,590.1z M234.9,610.5c-0.1,0-0.2,0-0.4,0l-35-7.3c-16.3-3.4-33.1-6.9-48.8-13.4
				c-0.8-0.3-1.3-1.2-1.1-2.1c0.2-0.9,0.9-1.5,1.8-1.5c13.7,0.2,27.9,0.4,41.7,3.1c15,3,29.8,9.1,42.7,17.8c0.7,0.5,1,1.4,0.7,2.2
				C236.3,610.1,235.6,610.5,234.9,610.5z"/>
		</g>
	</g>
	<g>
		<g>
			<path class="st0" d="M156.2,545.2c8.4,9.5,18.5,17.4,28.3,25.1c9.2,7.3,19.7,15.6,30.8,22.4c1.7,1,3.4,2,5,3
				c-12.7-12.6-26.5-24.3-41-34.9c0,0,0,0,0,0C171.8,555.3,164,550.1,156.2,545.2z M229.3,604.2c-0.2,0-0.5,0-0.7-0.2
				c-5-2.2-10-4.9-15.2-8.2c-11.2-6.9-21.8-15.3-31.1-22.6c-12.6-9.9-25.6-20.2-35.3-33.8c-0.5-0.7-0.5-1.7,0.1-2.3
				c0.6-0.6,1.5-0.8,2.2-0.4c11,6.4,21.8,13.4,32.1,20.9c0,0,0,0,0.1,0c17.6,12.9,34.2,27.5,49.2,43.3c0.6,0.6,0.7,1.6,0.2,2.3
				C230.5,603.9,229.9,604.2,229.3,604.2z"/>
		</g>
	</g>
	<g>
		<g>
			<path class="st0" d="M224.3,569.1c0.5,2.2,0.9,4.4,1.3,6.5c1.1,5.5,2.2,11.1,3.9,16.5c1,3.1,2.1,6,3.3,8.7c0-0.2-0.1-0.5-0.1-0.7
				c-0.2-1.6-0.3-3.3-0.5-4.9c-0.3-3.3-0.6-6.6-1.2-9.8C229.9,579.6,227.5,574,224.3,569.1z M236.9,612.6c-0.1,0-0.2,0-0.4,0
				c0,0-0.1,0-0.1,0c-0.5-0.1-0.9-0.3-1.2-0.7c-0.7-0.8-1.3-1.8-2-2.8c-2.9-4.5-5.4-9.8-7.2-15.9c-1.7-5.5-2.8-11.3-4-16.8
				c-1-4.7-1.9-9.6-3.2-14.3c-0.2-0.8,0.1-1.7,0.8-2.1c0.7-0.4,1.6-0.3,2.2,0.3c6.4,6.6,10.9,15.3,12.7,24.4c0.7,3.4,1,6.9,1.3,10.2
				c0.1,1.6,0.3,3.2,0.5,4.8c0.5,4.1,1.1,7.2,2.1,9.9c0.1,0.2,0.1,0.3,0.2,0.5c0.2,0.6,0.1,1.3-0.3,1.9
				C237.9,612.4,237.4,612.6,236.9,612.6z"/>
		</g>
	</g>
	<g>
		<g>
			<path class="st0" d="M517,564.5c-0.1,0-0.1,0-0.2,0c-1,0-1.8-0.8-1.8-1.9c0-1,0.8-1.8,1.8-1.8c0.1,0,0.1,0,0.2,0
				c15.2,0,30.5-4,44.3-11.6c0.9-0.5,2-0.2,2.5,0.7c0.5,0.9,0.2,2-0.7,2.5C548.7,560.4,532.8,564.5,517,564.5z"/>
		</g>
	</g>
	<g>
		<g>
			<path class="st0" d="M551.8,602.2c0,0-0.1,0-0.1,0c-1-0.1-1.8-1-1.7-2c0.9-12.5,1.7-25.5,5.6-37.9c1.3-4.2,3-8.4,5-12.3
				c0.5-0.9,1.5-1.3,2.4-0.8c0.9,0.5,1.2,1.6,0.8,2.5c-1.9,3.8-3.5,7.7-4.8,11.7c-3.7,11.9-4.6,24.7-5.5,37
				C553.5,601.4,552.7,602.2,551.8,602.2z"/>
		</g>
	</g>
	<g>
		<g>
			<path class="st0" d="M521.6,562.5c0,3.7-1.8,5.5-5.4,5.5c-3.6,0-5.4-1.8-5.4-5.5c0-3.7,1.8-5.5,5.4-5.5
				C519.8,556.9,521.6,558.8,521.6,562.5z"/>
		</g>
	</g>
	<g>
		<g>
			<path class="st0" d="M557.2,600.5c0,3.7-1.8,5.5-5.4,5.5c-3.6,0-5.4-1.8-5.4-5.5c0-3.7,1.8-5.5,5.4-5.5
				C555.4,595,557.2,596.8,557.2,600.5z"/>
		</g>
	</g>
	<g>
		<g>
			<path class="st0" d="M552,560.4l-22.1,12.1c-11.4,6.2-23,12.7-33.8,20.3c9.6-3.2,19.3-6.9,28.2-11.7
				C534.4,575.8,543.8,568.7,552,560.4z M486.5,599.8c-0.7,0-1.3-0.4-1.6-1c-0.4-0.8-0.2-1.7,0.4-2.3c13.1-10.9,28.2-19.2,42.8-27.2
				l31.5-17.3c0.8-0.4,1.7-0.2,2.3,0.5c0.6,0.7,0.6,1.7,0,2.3c-9.9,12.1-22.3,22.4-35.8,29.6c-12.4,6.7-26,11.1-39,15.3
				C486.9,599.8,486.7,599.8,486.5,599.8z"/>
		</g>
	</g>
	<g>
		<g>
			<path class="st0" d="M550.2,570.4c-10.3,10.8-19.1,23.4-27,34.8c-7.2,10.3-14.5,20.9-19.9,32.4
				C521.4,617.1,537.1,594.5,550.2,570.4z M497.8,648.2c-0.3,0-0.6-0.1-0.9-0.3c-0.7-0.4-1.1-1.4-0.8-2.2
				c5.4-15.8,14.9-29.5,24.1-42.7c10-14.4,21.3-30.7,35.6-43.1c0.7-0.6,1.6-0.6,2.3-0.1c0.7,0.5,0.9,1.5,0.5,2.3
				c-15.7,31.3-35.7,60-59.5,85.5C498.8,648,498.3,648.2,497.8,648.2z"/>
		</g>
	</g>
	<g>
		<g>
			<path class="st0" d="M456.7,662.8c-0.2,0-0.3,0-0.5-0.1c-1-0.3-1.5-1.3-1.2-2.3c3.9-13.7,10.9-26.7,20.4-37.7
				c0.1-0.1,0.1-0.2,0.2-0.2c0.7-0.8,1.8-0.8,2.6-0.2c0.7,0.7,0.8,1.8,0.2,2.6c0,0,0,0-0.1,0.1c0,0-0.1,0.1-0.1,0.1
				c-9.1,10.6-15.9,23.2-19.6,36.3C458.2,662.3,457.5,662.8,456.7,662.8z"/>
		</g>
	</g>
	<g>
		<g>
			<path class="st0" d="M452.9,663.8c-1.4,1.5-1.3,3.8,0.2,5.2c0.7,0.7,1.6,1,2.6,1c1,0,1.9-0.4,2.5-1.2c0.7-0.7,1-1.7,1-2.6
				c0-1-0.4-1.9-1.1-2.6c-0.5-0.5-1.1-0.8-1.7-0.9C455.1,662.5,453.8,662.9,452.9,663.8z M455.5,673.7c-1.9,0-3.6-0.7-5-2
				c-2.9-2.8-3.1-7.5-0.3-10.4c1.7-1.9,4.4-2.7,6.9-2.2c1.3,0.3,2.4,0.9,3.4,1.8c1.4,1.3,2.2,3.2,2.3,5.1c0.1,2-0.6,3.8-2,5.3
				c-1.3,1.4-3.1,2.3-5.1,2.3C455.7,673.7,455.6,673.7,455.5,673.7z"/>
		</g>
	</g>
	<g>
		<g>
			<path class="st0" d="M457.7,627.6c-8.9,0-17.7-1.2-25.4-2.5c-1-0.2-1.7-1.1-1.5-2.1c0.2-1,1.1-1.7,2.1-1.5
				c9.5,1.5,20.6,3,31.5,2.2c3-0.2,5.9-0.7,8.8-1.2c0.9-0.2,1.8-0.4,2.8-0.6c1-0.2,2,0.4,2.2,1.4c0.2,1-0.4,2-1.3,2.2
				c-1,0.2-1.9,0.5-2.9,0.6c-3,0.6-6.1,1.1-9.2,1.3C462.3,627.6,460,627.6,457.7,627.6z"/>
		</g>
	</g>
	<g>
		<g>
			<path class="st0" d="M427.2,618.8c-1,0-1.9,0.4-2.6,1.2c-1.4,1.5-1.3,3.8,0.2,5.2c0.7,0.7,1.6,1,2.6,1c1,0,1.9-0.4,2.5-1.2
				c1.4-1.5,1.3-3.8-0.2-5.2C429,619.1,428.1,618.8,427.2,618.8z M427.2,629.9c-1.9,0-3.6-0.7-5-2c-2.9-2.8-3.1-7.5-0.3-10.4
				c2.7-3,7.3-3.1,10.3-0.3c2.9,2.8,3.1,7.5,0.3,10.4c-1.3,1.4-3.1,2.3-5.1,2.3C427.3,629.9,427.3,629.9,427.2,629.9z"/>
		</g>
	</g>
	<g>
		<g>
			<path class="st0" d="M465.7,631.4c-9.8,6.2-18.7,13.9-26.2,22.6c-6.7,7.8-12.3,16.5-17.6,25.3c9.8-8.9,18.6-19,27.1-28.8
				L465.7,631.4z M414.8,689.5c-0.4,0-0.9-0.2-1.2-0.5c-0.7-0.6-0.8-1.6-0.4-2.3c7-12,14.3-24.4,23.5-35.2
				c10.1-11.8,22.7-21.7,36.5-28.7c0.8-0.4,1.7-0.2,2.2,0.5c0.5,0.7,0.5,1.7-0.1,2.3l-23.7,27.2c-11,12.6-22.4,25.7-35.8,36.2
				C415.6,689.4,415.2,689.5,414.8,689.5z"/>
		</g>
	</g>
	<g>
		<g>
			<path class="st0" d="M405.3,649.6c-8.4,3.8-16.6,8-24.6,12.5c12.3-2.7,24.1-7.6,35.6-12.3c10.7-4.4,22.9-9.5,34.1-15.7
				c0,0,0.1,0,0.1-0.1c1.8-1,3.6-2,5.2-3.1C438.5,635.8,421.6,642.1,405.3,649.6C405.4,649.5,405.3,649.6,405.3,649.6z M371,667.3
				c-0.8,0-1.5-0.5-1.7-1.3c-0.3-0.8,0.1-1.7,0.8-2.2c10.8-6.5,22.2-12.4,33.8-17.7c0,0,0.1,0,0.1,0c19.8-9.1,40.5-16.4,61.5-21.7
				c0.8-0.2,1.7,0.2,2.1,1c0.4,0.8,0.1,1.8-0.6,2.3c-4.5,3.3-9.3,6.4-14.9,9.5c0,0-0.1,0-0.1,0.1c-11.4,6.3-23.5,11.3-34.3,15.8
				c-14.8,6.1-30.1,12.5-46.4,14.2C371.1,667.3,371.1,667.3,371,667.3z"/>
		</g>
	</g>
	<g>
		<g>
			<path class="st0" d="M435,614c2.1,0.7,4.2,1.4,6.2,2.1c5.2,1.8,10.6,3.6,16,4.8c3.1,0.7,6.2,1.2,9.1,1.4
				c-0.2-0.1-0.4-0.2-0.6-0.3c-1.5-0.7-3-1.4-4.4-2c-2.9-1.4-5.9-2.8-9-3.8C446.8,614.3,440.9,613.6,435,614z M470.4,626.2
				c-4.4,0-9.1-0.6-14-1.7c-5.6-1.3-11-3.1-16.3-4.9c-4.5-1.5-9.2-3.1-13.8-4.3c-0.8-0.2-1.4-0.9-1.4-1.8s0.6-1.6,1.4-1.8
				c8.8-2.3,18.5-1.9,27.1,1c3.2,1.1,6.3,2.6,9.3,4c1.4,0.7,2.9,1.4,4.4,2c3.7,1.6,6.7,2.6,9.5,3.1c0.2,0,0.4,0.1,0.5,0.1
				c0.7,0.1,1.2,0.6,1.4,1.2c0.2,0.6,0.1,1.3-0.3,1.9c0,0,0,0-0.1,0.1c-0.3,0.4-0.7,0.6-1.2,0.7c-1,0.2-2.2,0.3-3.4,0.4
				C472.6,626.2,471.5,626.2,470.4,626.2z"/>
		</g>
	</g>
	<g>
		<g>
			<path class="st0" d="M575.9,355.1c-0.3,0-0.6-0.1-0.9-0.3c-0.9-0.5-1.2-1.6-0.7-2.5c7.7-13.4,12-29,12.4-45c0-1,0.9-1.8,1.9-1.8
				c1,0,1.8,0.9,1.8,1.9c-0.5,16.6-4.9,32.8-12.9,46.7C577.1,354.8,576.5,355.1,575.9,355.1z"/>
		</g>
	</g>
	<g>
		<g>
			<path class="st0" d="M625.4,343.1c-0.4,0-0.7-0.1-1-0.3c-10.3-7-20.9-14.3-29.4-23.9c-2.9-3.3-5.6-6.8-8-10.6
				c-0.5-0.9-0.3-2,0.5-2.6c0.8-0.6,2-0.3,2.5,0.5c2.3,3.6,4.8,6.9,7.6,10.1c8.3,9.3,18.7,16.4,28.8,23.3c0.8,0.6,1.1,1.7,0.5,2.6
				C626.6,342.9,626,343.1,625.4,343.1z"/>
		</g>
	</g>
	<g>
		<g>
			<path class="st0" d="M580.8,353.7c0,3.7-1.8,5.5-5.4,5.5c-3.6,0-5.4-1.8-5.4-5.5c0-3.7,1.8-5.5,5.4-5.5
				C579,348.2,580.8,350,580.8,353.7z"/>
		</g>
	</g>
	<g>
		<g>
			<path class="st0" d="M631,341.4c0,3.7-1.8,5.5-5.4,5.5c-3.6,0-5.4-1.8-5.4-5.5s1.8-5.5,5.4-5.5C629.2,335.9,631,337.7,631,341.4z
				"/>
		</g>
	</g>
	<g>
		<g>
			<path class="st0" d="M591.5,321.2l-0.7,25.5c-0.4,13.1-0.7,26.6,0.4,39.9c2.1-10.1,3.8-20.4,4.2-30.7
				C595.8,344.3,594.5,332.5,591.5,321.2z M590.8,399.4C590.8,399.4,590.7,399.4,590.8,399.4c-0.9,0-1.7-0.7-1.8-1.5
				c-2.7-17-2.3-34.5-1.8-51.3l1-36.3c0-0.9,0.7-1.6,1.5-1.8c0.9-0.1,1.7,0.4,2,1.2c5.4,14.8,7.9,30.8,7.3,46.3
				c-0.5,14.3-3.6,28.4-6.5,42C592.4,398.8,591.6,399.4,590.8,399.4z"/>
		</g>
	</g>
	<g>
		<g>
			<path class="st0" d="M599.1,327.8c4.1,14.5,10.4,28.5,16.1,41.1c5.2,11.5,10.5,23.2,17.7,33.7
				C624.5,376.4,613.1,351.3,599.1,327.8z M637.7,413.7c-0.5,0-1-0.2-1.4-0.6c-10.8-12.6-17.7-27.9-24.3-42.6
				c-7.2-16-15.4-34.1-19-52.9c-0.2-0.9,0.3-1.7,1.1-2.1c0.8-0.3,1.7,0,2.2,0.7c18.8,29.5,33.3,61.5,43.1,95.1
				c0.2,0.8-0.1,1.7-0.9,2.1C638.3,413.6,638,413.7,637.7,413.7z"/>
		</g>
	</g>
	<g>
		<g>
			<path class="st0" d="M629.5,457.2c-0.5,0-0.9-0.2-1.3-0.6c-9.7-10.2-17.3-23-22-36.8c0-0.1-0.1-0.2-0.1-0.3c-0.3-1,0.2-2,1.1-2.3
				c0.9-0.3,2,0.2,2.3,1.2l0,0.1c0,0,0,0.1,0,0.1c4.5,13.3,11.8,25.6,21.1,35.4c0.7,0.7,0.7,1.9,0,2.6
				C630.4,457,630,457.2,629.5,457.2z"/>
		</g>
	</g>
	<g>
		<g>
			<path class="st0" d="M630.1,460.1c0.6,1.9,2.6,3,4.5,2.5c1.9-0.6,3-2.7,2.4-4.6c-0.6-1.9-2.6-3-4.5-2.5c-0.6,0.2-1.2,0.6-1.6,1
				C630,457.5,629.7,458.8,630.1,460.1z M633.6,466.4c-3.1,0-6-2.1-6.9-5.2c-0.7-2.5-0.1-5.2,1.6-7.1c0.9-1,2-1.7,3.3-2.1
				c3.8-1.2,7.9,1,9.1,4.9c1.2,3.9-1,8-4.8,9.2C635,466.3,634.3,466.4,633.6,466.4z"/>
		</g>
	</g>
	<g>
		<g>
			<path class="st0" d="M585.4,459.6c-0.4,0-0.8-0.1-1.1-0.4c-0.8-0.6-0.9-1.8-0.3-2.6c6-7.6,12.9-16.6,17.6-26.7
				c1.3-2.7,2.4-5.5,3.3-8.3c0.3-0.9,0.6-1.8,0.9-2.7c0.3-1,1.3-1.5,2.2-1.2c1,0.3,1.5,1.3,1.2,2.3c-0.3,1-0.6,1.9-0.9,2.9
				c-1,2.9-2.1,5.9-3.5,8.7c-4.9,10.4-11.9,19.6-18.1,27.4C586.5,459.4,586,459.6,585.4,459.6z"/>
		</g>
	</g>
	<g>
		<g>
			<path class="st0" d="M582,458.4c-0.4,0-0.7,0.1-1.1,0.2c-0.9,0.3-1.7,0.9-2.1,1.8s-0.6,1.9-0.3,2.8c0.6,1.9,2.6,3,4.5,2.5
				c1.9-0.6,3-2.7,2.4-4.6c-0.3-0.9-0.9-1.7-1.8-2.2C583.2,458.5,582.6,458.4,582,458.4z M582,469.5c-3.1,0-6-2.1-6.9-5.2
				c-0.6-1.9-0.4-3.9,0.5-5.6c0.9-1.7,2.4-3,4.3-3.6c1.9-0.6,3.8-0.4,5.5,0.6c1.7,0.9,3,2.5,3.5,4.4c1.2,3.9-1,8-4.8,9.2
				C583.4,469.4,582.7,469.5,582,469.5z"/>
		</g>
	</g>
	<g>
		<g>
			<path class="st0" d="M608.8,432.7c0.4,11.7,2.5,23.4,6.2,34.3c3.3,9.8,7.9,19.1,12.8,28.2c-2.7-13-6.9-25.8-11-38.3L608.8,432.7z
				 M631.4,507.4c-0.6,0-1.3-0.4-1.6-0.9c-6.7-12.2-13.6-24.8-18.2-38.3c-5-14.7-7.1-30.8-6.2-46.5c0.1-0.9,0.7-1.6,1.6-1.7
				c0.9-0.1,1.7,0.4,2,1.2l11.3,34.5c5.3,16,10.7,32.5,12.9,49.6c0.1,0.9-0.4,1.7-1.2,2C631.7,507.4,631.5,507.4,631.4,507.4z"/>
		</g>
	</g>
	<g>
		<g>
			<path class="st0" d="M594.1,495c-0.9,9.2-1.5,18.5-1.7,27.8c3.9-12.1,5.6-25,7.3-37.5c1.5-11.1,3.4-24.9,3.7-38c0,0,0,0,0,0
				c0-2.1,0.1-4.2,0-6.1c-4.4,17.6-7.5,35.6-9.3,53.6C594.1,494.9,594.1,495,594.1,495z M590.6,534.9c-0.1,0-0.2,0-0.4,0
				c-0.8-0.2-1.4-0.9-1.4-1.8c-0.1-12.8,0.5-25.7,1.8-38.5c0,0,0-0.1,0-0.1c2.2-22,6.3-43.9,12.3-65.1c0.2-0.8,1-1.4,1.9-1.3
				c0.9,0.1,1.6,0.8,1.6,1.6c0.6,5.6,0.8,11.4,0.7,17.8c-0.3,13.3-2.2,27.2-3.7,38.4c-2.2,16.1-4.4,32.7-11.1,48
				C591.9,534.5,591.3,534.9,590.6,534.9z"/>
		</g>
	</g>
	<g>
		<g>
			<path class="st0" d="M601.5,427.5c-0.2,0.1-0.4,0.3-0.6,0.4c-1.3,1-2.6,2-3.9,2.9c-2.6,1.9-5.3,3.8-7.8,6
				c-4.3,3.9-7.9,8.7-10.5,14.1c1.6-1.5,3.3-3,4.9-4.5c4.1-3.7,8.3-7.5,12.1-11.6C597.9,432.4,599.8,430,601.5,427.5z M574.1,459.8
				c-0.3,0-0.6-0.1-0.9-0.2c-0.7-0.4-1.1-1.3-0.8-2.1c2.5-8.9,7.6-17.2,14.4-23.4c2.6-2.3,5.4-4.3,8.1-6.3c1.3-0.9,2.6-1.9,3.9-2.8
				c3.2-2.4,5.6-4.6,7.4-6.8c0.1-0.1,0.2-0.3,0.3-0.4c0.4-0.5,1.1-0.8,1.7-0.7c0.7,0.1,1.2,0.6,1.4,1.2c0,0,0,0.1,0,0.1
				c0.2,0.4,0.2,0.9,0,1.4c-0.4,1-0.8,2-1.4,3.2c-2.3,4.8-5.7,9.6-9.9,14.3c-3.9,4.3-8.2,8.1-12.3,11.9c-3.6,3.2-7.2,6.5-10.6,10
				C575.1,459.6,574.6,459.8,574.1,459.8z"/>
		</g>
	</g>
	<g>
		<g>
			<path class="st0" d="M427,198.4c-0.6,0-1.2-0.3-1.6-0.9c-7.6-13.5-18.7-25-32.1-33.4c-0.9-0.5-1.1-1.7-0.6-2.5
				c0.5-0.9,1.6-1.1,2.5-0.6c13.9,8.7,25.5,20.7,33.4,34.7c0.5,0.9,0.2,2-0.7,2.5C427.6,198.3,427.3,198.4,427,198.4z"/>
		</g>
	</g>
	<g>
		<g>
			<path class="st0" d="M394.2,164.4c-1,0-1.8-0.8-1.8-1.8c0-1,0.7-1.9,1.7-1.9c4.2-0.2,8.3-0.8,12.4-1.7c12-2.7,23.3-8.3,34.2-13.7
				c0.9-0.4,2-0.1,2.4,0.8c0.4,0.9,0.1,2-0.8,2.5c-11.1,5.5-22.6,11.2-35.1,14c-4.3,0.9-8.6,1.5-13,1.8
				C394.3,164.4,394.3,164.4,394.2,164.4z"/>
		</g>
	</g>
	<g>
		<g>
			<path class="st0" d="M432.6,197.2c0,3.7-1.8,5.5-5.4,5.5s-5.4-1.8-5.4-5.5c0-3.7,1.8-5.5,5.4-5.5S432.6,193.5,432.6,197.2z"/>
		</g>
	</g>
	<g>
		<g>
			<ellipse class="st0" cx="441.8" cy="146.9" rx="5.4" ry="5.5"/>
		</g>
	</g>
	<g>
		<g>
			<path class="st0" d="M407.5,166.8l21.4,13.4c11,6.9,22.3,13.9,34.2,19.6c-7.6-6.9-15.5-13.5-24.1-19
				C429.3,174.5,418.6,169.8,407.5,166.8z M472.2,207.4c-0.2,0-0.4,0-0.6-0.1c-15.9-6.1-30.5-15.2-44.6-24.1l-30.5-19.1
				c-0.7-0.5-1.1-1.4-0.8-2.2c0.3-0.8,1.2-1.3,2-1.2c15.3,2.6,30.2,8.4,43.2,16.7c11.9,7.6,22.4,17.3,32.5,26.7
				c0.6,0.6,0.8,1.6,0.3,2.3C473.4,207.1,472.8,207.4,472.2,207.4z"/>
		</g>
	</g>
	<g>
		<g>
			<path class="st0" d="M416.9,163.3c14.4,3.7,29.5,5.1,43.1,6.4c12.4,1.2,25,2.4,37.5,1.3C471,165.4,444,162.8,416.9,163.3z
				 M487.3,175.1c-9.3,0-18.5-0.9-27.6-1.7c-17.2-1.6-36.8-3.5-54.5-9.8c-0.8-0.3-1.3-1.1-1.2-2c0.1-0.9,0.8-1.5,1.7-1.6
				c34.5-1.8,69,1.5,102.6,9.6c0.8,0.2,1.4,1,1.4,1.8c0,0.9-0.6,1.6-1.5,1.8C501.2,174.6,494.2,175.1,487.3,175.1z"/>
		</g>
	</g>
	<g>
		<g>
			<path class="st0" d="M518.1,205c-6.4,0-12.9-0.6-19.2-1.9c-0.1,0-0.2,0-0.3-0.1c-1-0.2-1.6-1.2-1.4-2.2c0.2-1,1.2-1.6,2.1-1.4
				l0.1,0c0,0,0.1,0,0.1,0c13.6,2.7,27.7,2.4,40.8-0.9c1-0.2,2,0.4,2.2,1.3c0.2,1-0.4,2-1.3,2.2C533.7,204,525.9,205,518.1,205z"/>
		</g>
	</g>
	<g>
		<g>
			<path class="st0" d="M545.1,202.3c0.9,0.2,1.9,0.1,2.7-0.5c0.8-0.5,1.4-1.3,1.6-2.3c0.2-1,0.1-1.9-0.5-2.8
				c-0.5-0.8-1.3-1.4-2.3-1.6c-0.9-0.2-1.9-0.1-2.7,0.5c-0.8,0.5-1.4,1.3-1.6,2.3c-0.2,0.7-0.1,1.3,0.1,1.9
				C542.9,201,543.9,202,545.1,202.3z M546,206c-0.6,0-1.1-0.1-1.7-0.2c-2.5-0.6-4.5-2.5-5.3-4.9c-0.4-1.2-0.5-2.6-0.2-3.9
				c0.4-1.9,1.6-3.5,3.2-4.6c1.6-1,3.6-1.4,5.5-0.9c1.9,0.4,3.5,1.6,4.5,3.3c1,1.7,1.3,3.7,0.9,5.6c-0.4,1.9-1.6,3.5-3.2,4.6
				C548.6,205.7,547.3,206,546,206z"/>
		</g>
	</g>
	<g>
		<g>
			<path class="st0" d="M520.8,242.3c-0.7,0-1.4-0.4-1.7-1.2c-3.5-9.1-7.7-19.7-13.9-28.8c-1.7-2.5-3.5-4.9-5.4-7.1
				c-0.6-0.7-1.2-1.4-1.9-2.1c-0.7-0.7-0.7-1.9,0.1-2.6c0.7-0.7,1.9-0.7,2.6,0.1c0.7,0.7,1.4,1.5,2,2.2c2,2.3,3.9,4.8,5.7,7.4
				c6.4,9.5,10.8,20.3,14.3,29.6c0.4,1-0.1,2-1,2.4C521.2,242.2,521,242.3,520.8,242.3z"/>
		</g>
	</g>
	<g>
		<g>
			<path class="st0" d="M522.8,241.9c-0.7,0-1.3,0.2-1.9,0.6c-0.8,0.5-1.4,1.3-1.6,2.3c-0.5,2,0.8,4,2.7,4.4
				c1.9,0.5,3.9-0.8,4.4-2.8c0.5-2-0.8-4-2.7-4.4C523.3,241.9,523,241.9,522.8,241.9z M522.8,252.9c-0.5,0-1.1-0.1-1.6-0.2
				c-3.9-0.9-6.3-4.9-5.4-8.9c0.4-1.9,1.6-3.5,3.2-4.6c1.6-1,3.6-1.4,5.5-0.9c3.9,0.9,6.3,4.9,5.4,8.9
				C529.1,250.6,526.1,252.9,522.8,252.9z"/>
		</g>
	</g>
	<g>
		<g>
			<path class="st0" d="M511.1,207.2c10.2,5.5,21.2,9.5,32.3,11.7c10,2,20.2,2.6,30.4,2.8c-12.5-4.2-25.4-6.9-38.1-9.5L511.1,207.2z
				 M584.5,225.7C584.5,225.7,584.5,225.7,584.5,225.7c-13.8-0.2-27.9-0.4-41.7-3.1c-15-3-29.8-9.1-42.7-17.8
				c-0.7-0.5-1-1.4-0.7-2.2c0.3-0.8,1.2-1.3,2-1.1l35,7.3c16.3,3.4,33.1,6.9,48.8,13.4c0.8,0.3,1.3,1.2,1.1,2.1
				C586.1,225.1,585.3,225.7,584.5,225.7z"/>
		</g>
	</g>
	<g>
		<g>
			<path class="st0" d="M556.7,251.2c7.5,5.5,15.2,10.6,23,15.5c-8.4-9.5-18.5-17.4-28.3-25.1c-9.2-7.3-19.7-15.6-30.8-22.4
				c-1.7-1-3.4-2-5-3C528.4,228.9,542.1,240.6,556.7,251.2C556.6,251.2,556.6,251.2,556.7,251.2z M587.5,275.4
				c-0.3,0-0.6-0.1-0.9-0.2c-11-6.4-21.8-13.4-32.1-20.9c0,0,0,0-0.1,0c-17.6-12.9-34.2-27.5-49.2-43.3c-0.6-0.6-0.7-1.6-0.2-2.3
				c0.5-0.7,1.4-1,2.2-0.6c5,2.2,10,4.9,15.2,8.2c11.2,6.9,21.8,15.3,31.1,22.6c12.6,9.9,25.6,20.2,35.3,33.8
				c0.5,0.7,0.5,1.7-0.1,2.3C588.5,275.2,588,275.4,587.5,275.4z"/>
		</g>
	</g>
	<g>
		<g>
			<path class="st0" d="M503.1,211.2c0,0.2,0.1,0.5,0.1,0.7c0.2,1.6,0.3,3.3,0.5,4.9c0.3,3.3,0.6,6.6,1.2,9.8
				c1.1,5.8,3.5,11.4,6.7,16.3c-0.5-2.2-0.9-4.4-1.3-6.5c-1.1-5.5-2.2-11.1-3.9-16.5C505.4,216.8,504.3,213.8,503.1,211.2z
				 M515.3,252.3c-0.5,0-0.9-0.2-1.3-0.6c-6.4-6.6-10.9-15.3-12.7-24.4c-0.7-3.4-1-6.9-1.3-10.2c-0.1-1.6-0.3-3.2-0.5-4.8
				c-0.5-4.1-1.1-7.2-2.1-9.9c-0.1-0.2-0.1-0.3-0.2-0.5c-0.2-0.6-0.1-1.3,0.3-1.9c0.4-0.5,1.1-0.8,1.8-0.6c0,0,0.1,0,0.1,0
				c0.5,0.1,0.9,0.3,1.2,0.7c0.7,0.8,1.3,1.8,2,2.8c2.9,4.5,5.4,9.8,7.2,15.9c1.7,5.5,2.8,11.3,4,16.8c1,4.7,1.9,9.6,3.2,14.3
				c0.2,0.8-0.1,1.7-0.8,2.1C515.9,252.2,515.6,252.3,515.3,252.3z"/>
		</g>
	</g>
	<g>
		<g>
			<path class="st0" d="M173.7,263c-0.6,0-1.3-0.4-1.6-1c-0.5-0.9-0.2-2,0.7-2.5c14.3-7.9,30.2-12,46-12c0.1,0,0.1,0,0.2,0
				c1,0,1.8,0.8,1.8,1.9c0,1-0.8,1.8-1.8,1.8c0,0-0.1,0-0.2,0c-15.2,0-30.5,4-44.3,11.6C174.3,262.9,174,263,173.7,263z"/>
		</g>
	</g>
	<g>
		<g>
			<path class="st0" d="M173.7,263c-0.3,0-0.6-0.1-0.8-0.2c-0.9-0.5-1.2-1.6-0.8-2.5c1.9-3.8,3.5-7.7,4.8-11.7
				c3.7-11.9,4.6-24.7,5.5-37c0.1-1,0.9-1.8,1.9-1.7c1,0.1,1.8,1,1.7,2c-0.9,12.5-1.7,25.5-5.6,37.9c-1.3,4.2-3,8.4-5,12.3
				C175,262.6,174.3,263,173.7,263z"/>
		</g>
	</g>
	<g>
		<g>
			<path class="st0" d="M225.1,249.5c0,3.7-1.8,5.5-5.4,5.5c-3.6,0-5.4-1.8-5.4-5.5c0-3.7,1.8-5.5,5.4-5.5
				C223.3,244,225.1,245.8,225.1,249.5z"/>
		</g>
	</g>
	<g>
		<g>
			<path class="st0" d="M189.6,211.4c0,3.7-1.8,5.5-5.4,5.5c-3.6,0-5.4-1.8-5.4-5.5c0-3.7,1.8-5.5,5.4-5.5
				C187.8,205.9,189.6,207.8,189.6,211.4z"/>
		</g>
	</g>
	<g>
		<g>
			<path class="st0" d="M210.6,229.2 M239.7,219.1c-9.6,3.2-19.3,6.9-28.2,11.7c-10,5.4-19.4,12.5-27.6,20.8l22.1-12.1
				C217.3,233.2,229,226.8,239.7,219.1z M175.4,260.2c-0.5,0-1.1-0.2-1.4-0.7c-0.6-0.7-0.6-1.7,0-2.3c9.9-12.1,22.3-22.4,35.8-29.6
				c12.4-6.7,26-11.1,39-15.3c0.8-0.3,1.7,0.1,2.1,0.9c0.4,0.8,0.2,1.7-0.4,2.3c-13.1,10.9-28.2,19.2-42.8,27.2L176.2,260
				C176,260.1,175.7,260.2,175.4,260.2z"/>
		</g>
	</g>
	<g>
		<g>
			<path class="st0" d="M232.6,174.4c-18.1,20.5-33.8,43-46.9,67.2c10.3-10.8,19.1-23.4,27-34.8
				C219.9,196.5,227.2,185.9,232.6,174.4z M178.9,252.5c-0.4,0-0.8-0.1-1.1-0.4c-0.7-0.5-0.9-1.5-0.5-2.3
				c15.7-31.3,35.7-60,59.5-85.5c0.6-0.6,1.5-0.8,2.3-0.3c0.7,0.4,1.1,1.4,0.8,2.2c-5.4,15.8-14.9,29.5-24.1,42.7
				c-10,14.4-21.3,30.7-35.6,43.1C179.7,252.4,179.3,252.5,178.9,252.5z"/>
		</g>
	</g>
	<g>
		<g>
			<path class="st0" d="M259,190.1c-0.4,0-0.9-0.2-1.2-0.5c-0.7-0.7-0.8-1.8-0.2-2.6c0,0,0,0,0.1-0.1c0,0,0.1-0.1,0.1-0.1
				c9.1-10.6,15.9-23.2,19.6-36.3c0.3-1,1.3-1.5,2.2-1.3c1,0.3,1.5,1.3,1.2,2.3c-3.9,13.7-10.9,26.7-20.4,37.7
				c-0.1,0.1-0.1,0.2-0.2,0.2C260,189.9,259.5,190.1,259,190.1z"/>
		</g>
	</g>
	<g>
		<g>
			<path class="st0" d="M280.3,141.9c0,0-0.1,0-0.1,0c-1,0-1.9,0.4-2.5,1.2c-0.7,0.7-1,1.7-1,2.6c0,1,0.4,1.9,1.1,2.6
				c0.5,0.5,1.1,0.8,1.7,0.9c1.3,0.3,2.6-0.1,3.4-1.1c1.4-1.5,1.3-3.8-0.2-5.2C282.1,142.3,281.2,141.9,280.3,141.9z M280.3,153
				c-0.5,0-1-0.1-1.5-0.2c-1.3-0.3-2.4-0.9-3.4-1.8c-1.4-1.3-2.2-3.2-2.3-5.1c-0.1-2,0.6-3.8,2-5.3c1.3-1.4,3.1-2.3,5.1-2.3
				c1.9-0.1,3.8,0.6,5.2,2c2.9,2.8,3.1,7.5,0.3,10.4C284.2,152.2,282.3,153,280.3,153z"/>
		</g>
	</g>
	<g>
		<g>
			<path class="st0" d="M303.3,190.5c-0.1,0-0.2,0-0.3,0c-9.5-1.5-20.6-3-31.5-2.2c-3,0.2-5.9,0.7-8.8,1.2c-0.9,0.2-1.8,0.4-2.8,0.6
				c-1,0.2-2-0.4-2.2-1.4c-0.2-1,0.4-2,1.3-2.2c1-0.2,1.9-0.5,2.9-0.6c3-0.6,6.1-1.1,9.2-1.3c11.3-0.9,22.6,0.7,32.4,2.2
				c1,0.2,1.7,1.1,1.5,2.1C305,189.8,304.2,190.5,303.3,190.5z"/>
		</g>
	</g>
	<g>
		<g>
			<path class="st0" d="M308.7,185.8c0,0-0.1,0-0.1,0c-1,0-1.9,0.4-2.5,1.2c-1.4,1.5-1.3,3.8,0.2,5.2c1.5,1.4,3.8,1.3,5.1-0.2
				c1.4-1.5,1.3-3.8-0.2-5.2C310.5,186.1,309.6,185.8,308.7,185.8z M308.7,196.8c-1.8,0-3.6-0.7-5-2c-2.9-2.8-3.1-7.5-0.3-10.4
				c1.3-1.4,3.1-2.3,5.1-2.3c2-0.1,3.8,0.6,5.2,2c2.9,2.8,3.1,7.5,0.3,10.4C312.6,196.1,310.6,196.8,308.7,196.8z"/>
		</g>
	</g>
	<g>
		<g>
			<path class="st0" d="M314,132.7c-9.8,8.9-18.6,19-27.1,28.8l-16.6,19.1c9.8-6.2,18.7-13.9,26.2-22.6
				C303,150.2,308.7,141.5,314,132.7z M261.8,189.3c-0.6,0-1.1-0.3-1.4-0.7c-0.5-0.7-0.5-1.7,0.1-2.3l23.7-27.2
				c11-12.6,22.4-25.7,35.8-36.2c0.7-0.5,1.7-0.5,2.3,0.1c0.7,0.6,0.8,1.6,0.4,2.3c-7,12-14.3,24.4-23.5,35.2
				c-10.1,11.8-22.7,21.7-36.5,28.7C262.3,189.3,262,189.3,261.8,189.3z"/>
		</g>
	</g>
	<g>
		<g>
			<path class="st0" d="M285.4,178c-1.8,1-3.6,2-5.2,3.1c17.2-4.9,34-11.2,50.3-18.6c0,0,0.1,0,0.1,0c8.4-3.8,16.6-8,24.6-12.5
				c-12.3,2.7-24.1,7.6-35.6,12.3c-10.7,4.4-22.9,9.5-34.1,15.7C285.5,178,285.5,178,285.4,178z M269.9,187.6
				c-0.7,0-1.3-0.4-1.6-1.1c-0.4-0.8-0.1-1.8,0.6-2.3c4.5-3.3,9.3-6.4,14.9-9.5c0,0,0.1,0,0.1-0.1c11.4-6.3,23.5-11.3,34.3-15.8
				c14.8-6.1,30.1-12.5,46.4-14.2c0.8-0.1,1.6,0.4,1.9,1.3c0.3,0.8-0.1,1.7-0.8,2.2c-10.8,6.5-22.2,12.4-33.8,17.7c0,0-0.1,0-0.1,0
				c-19.8,9.1-40.5,16.4-61.5,21.7C270.2,187.6,270.1,187.6,269.9,187.6z"/>
		</g>
	</g>
	<g>
		<g>
			<path class="st0" d="M269.5,189.6c0.2,0.1,0.4,0.2,0.6,0.3c1.5,0.7,3,1.4,4.4,2c2.9,1.4,5.9,2.8,9,3.8c5.5,1.9,11.4,2.6,17.2,2.2
				c-2.1-0.7-4.2-1.4-6.2-2.1c-5.2-1.8-10.6-3.6-16-4.8C275.5,190.3,272.4,189.9,269.5,189.6z M297.8,201.8
				c-5.2,0-10.4-0.8-15.3-2.5c-3.2-1.1-6.3-2.6-9.3-4c-1.4-0.7-2.9-1.4-4.4-2c-3.7-1.6-6.7-2.6-9.5-3.1c-0.2,0-0.4-0.1-0.5-0.1
				c-0.7-0.1-1.2-0.6-1.4-1.2c-0.2-0.6-0.1-1.3,0.3-1.9c0,0,0,0,0.1-0.1c0.3-0.4,0.7-0.6,1.2-0.7c1-0.2,2.2-0.3,3.4-0.4
				c5.3-0.4,11,0.2,17.2,1.6c5.6,1.3,11,3.1,16.3,4.9c4.5,1.5,9.2,3.1,13.8,4.3c0.8,0.2,1.4,0.9,1.4,1.8c0,0.8-0.6,1.6-1.4,1.8
				C305.7,201.3,301.7,201.8,297.8,201.8z"/>
		</g>
	</g>
</g>
<g>
	<g>
		<g>
			<g>
				<path class="st0" d="M461.4,444.7h-49c2,2.1,3.8,4.4,5.3,6.8c5.9,9.1,8.9,19,8.9,29.5c0,7.2-1,13.6-2.9,19.1
					c-1.9,5.5-4.9,10.3-8.8,14.4c-4,4.1-9.1,7.3-15.5,9.5c-6.4,2.2-13.9,3.4-22.4,3.4c-11.4,0-21.4-2.2-30-6.5
					c-8.6-4.3-16.1-10.2-22.6-17.5c-6.8-7.8-12.3-16.2-16.5-25.2c-4.2-9-7.8-19.1-10.9-30.2H282l2.6,90.3h14.9l8-13.6
					c8.6,5.2,18.7,9.6,30.5,13.3c11.8,3.7,23.5,5.5,35.3,5.5c25.5,0,46.9-7.6,64.1-22.7c17.2-15.1,25.8-34.3,25.8-57.6
					C463.3,456.5,462.6,450.3,461.4,444.7z M355.3,370.4c-10.1-4.8-17.8-11-23.1-18.4c-5.3-7.5-8-16.9-8-28.4
					c0-10.9,4.2-20.1,12.5-27.7c8.3-7.6,18.3-11.3,30.1-11.3c11.2,0,20.6,2.1,28.3,6.4c7.7,4.3,14.2,10,19.5,17.2
					c5.5,7.4,9.9,15.7,13.3,24.9c3.4,9.2,6.5,18.8,9.2,28.8h15.1l-1.5-87.6h-14.9l-7.6,12.6c-7.9-5-16.7-9.3-26.3-13
					c-9.6-3.7-20.5-5.6-32.6-5.6c-10.7,0-20.9,1.8-30.7,5.5c-9.8,3.7-18.3,8.7-25.5,15.1c-7.6,6.8-13.4,14.6-17.5,23.2
					c-4.1,8.7-6.1,18-6.1,28.1c0,11.4,1.8,21.5,5.3,30.1H355.3z"/>
			</g>
		</g>
	</g>
	<g>
		<g>
			<g>
				<g>
					<rect x="246.7" y="370.4" class="st0" width="234" height="4.2"/>
				</g>
			</g>
		</g>
		<g>
			<g>
				<g>
					<rect x="246.7" y="440.7" class="st0" width="234" height="4.2"/>
				</g>
			</g>
		</g>
	</g>
</g>
</svg>

