<?xml version="1.0" encoding="utf-8"?>
<!-- Generator: Adobe Illustrator 23.0.5, SVG Export Plug-In . SVG Version: 6.00 Build 0)  -->
<svg version="1.1" xmlns="http://www.w3.org/2000/svg" xmlns:xlink="http://www.w3.org/1999/xlink" x="0px" y="0px"
	 viewBox="0 0 720 720" style="enable-background:new 0 0 720 720;" xml:space="preserve" width="500" height="500">
<style type="text/css">
	.st0{fill:#050002;}
	.st1{fill-rule:evenodd;clip-rule:evenodd;fill:#050002;}
	.st2{fill-rule:evenodd;clip-rule:evenodd;}
	.st3{fill:#221F1F;}
	.st4{fill:#231F20;}
	.st5{fill:#070808;}
	.st6{fill:#211E1F;}
	.st7{fill:#161616;}
	.st8{fill:#131313;}
	.st9{fill:#21201F;}
	.st10{fill:#2C2929;}
</style>
<g>
	<g>
		<path class="st0" d="M444.6,160.5c-6.3-2-12.9-3.2-19.3-4.8c-0.7-0.2-1.4-0.4-2.1-0.6c25.6-2.4,50.4-0.1,74.5,9
			c11.8,4.5,23.7,8.7,35.6,13c0.7,0.2,1.4,0.5,2,1.2c-5.8-0.2-11.6-0.5-17.4-0.7c-16.4-0.7-32.6-2.8-48.2-8.1
			C461.2,166.6,453,163.2,444.6,160.5z M462.2,184.1c7,3.2,14.2,6.1,21.4,9.1c-5.7,2.9-30.7,1-44.4-4c-14.3-5.2-27.6-12.4-40.6-21
			c0.8-0.6,1.5-0.9,2-1.5c1.5-1.6,1.1-3.6-1-4.5c-0.5-0.2-1.1-0.4-1.7-0.4c-9.4,0.4-16.5-6.5-25.3-8.4c9.4-0.2,18.6,1.5,27.5,4.1
			c5.2,1.5,10.3,3.1,15.2,5.3C431.2,169.9,446.6,177.1,462.2,184.1z M384.9,168.3c-8.3,3.3-17,4.7-25.8,6c-15,2.2-29.6,0.6-44.2-3.5
			c-10-2.8-20.2-3.9-30.5-4.2c-1.3,0-2.7-0.2-4.4-0.4c10.5-3.2,20.6-4.6,31-4.2c7.9,0.3,15.7,0.7,23.6,1.2
			c11.9,0.8,23.8,1.7,35.6,2.5c5.8,0.4,11.7,0.6,18.2,1C386.9,167.4,385.9,167.9,384.9,168.3z M219.3,194.7
			c-0.1-0.3-0.3-0.6-0.4-0.9c9.9-5.2,19.7-10.6,29.7-15.4c5.2-2.5,10.7-4.7,16.3-5.8c6.5-1.3,13.3-1.2,19.9-1.4
			C262.6,178,240.1,183.8,219.3,194.7z M205.2,217.5c-1.9,0.5-3.7,1.1-5.6,1.6c-4.8,1.1-9.5,2.1-14.4,3.2
			c2.7-3.7,33.7-22.6,45.8-27.9c16.4-7.2,33.8-11.6,50.9-16.7C256.6,191.7,233.3,209.6,205.2,217.5z M182.1,216.3
			c-0.2-0.2-0.5-0.3-0.7-0.5c0.4-0.9,0.8-1.8,1.3-2.6c6.3-11.1,14.3-20.9,22.7-30.3c4.6-5.2,9.5-10.2,14.4-15
			c12-11.8,26-19.8,42.2-23.6c-7.2,6.6-14.1,13.4-21.5,19.7c-11.5,9.7-23.4,18.6-34.8,28.4c-7.3,6.3-13.9,13.6-20.8,20.5
			C183.8,214,183,215.2,182.1,216.3z M339.9,129c-24,19.9-52.6,27.6-80.6,37.4C263.4,161.8,328.2,131.8,339.9,129z M365.1,156.1
			c4.5,1.5,8.9,3.1,13.2,5.2c-21.1-1.4-42.1-2.8-63.2-4.2c0-0.1,0-0.2-0.1-0.3c5.7-0.8,11.3-1.9,17.1-2.4c8-0.6,16.1-0.9,24.1-0.9
			C359.2,153.6,362.2,155.1,365.1,156.1z M343.7,140.9c11.6-4.3,23.3-8.1,35.6-9.7c11.2-1.5,22.4-2.1,33.6-0.9
			c9.2,1,18.4,1.6,27.5,2.5c1.4,0.1,2.8,0.4,4.2,0.7c-7.3,3.5-14.9,5.6-22.8,6.2c-15,1.2-30.1,1.9-45.1,3.2
			c-11.2,0.9-22.4,2.4-33.5,3.6c-5.4,0.6-10.8,1.2-16.3,1.2C332.5,145.3,338.1,143,343.7,140.9z M632,369.2
			c-1.8-7.9-4-15.8-6.6-23.5c-22.1-67.8-62.9-120.3-122.2-157.4c-4.6-2.9-9.3-5.5-14-8.2c0.1-0.2,0.1-0.2,0.1-0.4
			c1.2,0.2,2.4,0.4,3.6,0.5c11.5,0.9,23,1.9,34.5,2.5c7.3,0.4,14.6,0.1,21.9,0.1c1.8,0,3.6-0.7,3.4-2.7c-0.1-1.2-1.6-2.7-2.7-3.1
			c-14.2-5-28.6-9.3-42.6-14.8c-26.2-10.3-53-14.6-80.9-12.7c-14.1,0.9-28.2,1.8-42.3-0.5c-3-0.5-6-0.5-9-0.8c0-0.4,0-0.7,0-1.1
			c5-0.1,10.1-0.2,15.1-0.4c14.7-0.6,29.4-1.1,43.8-4.4c6.7-1.5,13.3-4,19.9-6.1c1.3-0.4,2.7-0.5,3.8-1.2c0.8-0.5,1.8-1.8,1.8-2.6
			c0-0.8-1.3-1.7-2.1-2.3c-0.5-0.4-1.3-0.3-2-0.4c-14-1.5-28.1-3-42.1-4.4c-20.5-2.1-40.5,0.4-60,6.9c-5.6,1.9-11.2,4-16.1,5.7
			c4.7-4.6,9.9-9.6,14.8-14.8c0.9-0.9,1.4-3.3,1-4.4c-0.9-2-2.8-1-4.3-0.2c-3.7,1.8-7.4,3.9-11.1,5.6c-20.7,9.2-41.5,18.2-62.2,27.5
			c-9.6,4.3-19,9.3-26.9,16.5c-8.9,8.1-18.9,14.6-29.2,20.4c-0.5,0.3-1,0.4-1.5,0.6c0.7-1.1,1.6-1.8,2.5-2.5
			c18.5-13.9,35.6-29.3,51.7-46c1.3-1.3,3.1-2.6,1.7-4.7c-1.3-2-3.3-1.1-5-0.4c-4.2,1.6-8.5,3.2-12.7,4.9
			c-9.6,3.9-19.5,7.1-27.7,13.7c-19.9,16.2-37,35.2-50.4,57.6c-2.5,4.2-5.2,8.3-8.2,12.2c-4,5.4-8.4,10.6-12.5,15.9
			c-1.3,1.6-2.3,3.4-3.6,5c-5.4,7-11.1,13.7-16.2,21c-0.6,0.8-1.2,1.7-1.7,2.5c-1,1.4-0.2,3.5,1.5,3.8l0,0c0.9,0.2,1.8-0.2,2.3-1
			c6.9-9.9,15-19,22.3-28.6c7.8-10.2,18.3-15,30.3-17.2c17.4-3.2,33.7-9.3,49.2-18.2c15.5-8.9,31-17.9,46.5-26.9
			c1.3-0.8,2.7-1.6,3.9-2.5c1.9-1.4,3.4-2.9,2.2-6.4c8,1.6,15.5,2.7,22.8,4.7c15,4.1,30.1,4.6,45.4,2.4c10.1-1.4,19.8-3.8,29.2-7.8
			c0.8-0.3,2.2-0.1,3,0.4c18.9,12.1,38.1,23.5,60.5,26.7c8.4,1.2,17.1,0.7,25.6,0.9c4.7,0.1,9.4-0.3,14.1-0.4c2,0,4.1,0.1,4.6-2.5
			c0.4-2.4-1.7-2.8-3.3-3.5c-11.7-4.8-23.5-9.4-35.1-14.5c-10.6-4.6-21-9.8-31.5-14.7c-0.9-0.4-1.7-0.9-2.3-1.8
			c1.5,0.3,3.1,0.6,4.6,0.9c30.3,8,58.3,21.4,84.1,39.7c44.8,31.9,77.6,73.9,98.5,125.8c5.5,13.8,10,27.9,13.3,42.3
			c0.2,0.9,0.9,1.6,1.8,1.8C631,372.5,632.4,370.9,632,369.2z M555.1,611.5c-6.3,11.1-14.3,20.9-22.7,30.3
			c-4.6,5.2-9.5,10.2-14.4,15c-12,11.8-26,19.8-42.2,23.6c7.2-6.6,14.1-13.4,21.5-19.7c11.5-9.7,23.4-18.6,34.8-28.4
			c7.3-6.3,13.9-13.6,20.8-20.5c1-1,1.8-2.3,2.7-3.4c0.2,0.2,0.5,0.3,0.7,0.5C555.9,609.7,555.5,610.6,555.1,611.5z M506.7,630.3
			c-16.4,7.2-33.8,11.6-50.9,16.7c25.3-14.1,48.6-32,76.7-39.9c1.9-0.5,3.7-1.1,5.6-1.6c4.8-1.1,9.5-2.1,14.4-3.2
			C549.8,606.1,518.8,625,506.7,630.3z M489.1,646.3c-5.2,2.5-10.7,4.7-16.3,5.8c-6.5,1.3-13.3,1.2-19.9,1.4
			c22.2-6.8,44.7-12.6,65.5-23.4c0.1,0.3,0.3,0.6,0.4,0.9C508.9,636.1,499.1,641.5,489.1,646.3z M397.8,695.7
			c24-19.9,52.6-27.6,80.6-37.4C474.3,662.9,409.5,692.9,397.8,695.7z M394,683.8c-11.6,4.3-23.3,8.1-35.6,9.7
			c-11.2,1.5-22.4,2.1-33.6,0.9c-9.2-1-18.4-1.6-27.5-2.5c-1.4-0.1-2.8-0.4-4.2-0.7c7.3-3.5,14.9-5.6,22.8-6.2
			c15-1.2,30.1-1.9,45.1-3.2c11.2-0.9,22.4-2.4,33.5-3.6c5.4-0.6,10.8-1.2,16.3-1.2C405.2,679.4,399.6,681.7,394,683.8z M337.5,667
			c-5.2-1.5-10.3-3.1-15.2-5.3c-15.6-6.9-31.1-14.1-46.7-21.1c-7-3.2-14.2-6.1-21.4-9.1c5.7-2.9,30.7-1,44.4,4
			c14.3,5.2,27.6,12.4,40.6,21c-0.8,0.6-1.5,0.9-2,1.5c-1.5,1.6-1.1,3.6,1,4.5c0.5,0.2,1.1,0.4,1.7,0.4c9.4-0.4,16.5,6.5,25.3,8.4
			C355.6,671.4,346.4,669.7,337.5,667z M240.1,660.6c-11.8-4.5-23.7-8.7-35.6-13c-0.7-0.2-1.4-0.5-2-1.2c5.8,0.2,11.6,0.5,17.4,0.7
			c16.4,0.7,32.6,2.8,48.2,8.1c8.4,2.9,16.6,6.3,25,9c6.3,2,12.9,3.2,19.3,4.8c0.7,0.2,1.4,0.4,2.1,0.6
			C289,672,264.2,669.7,240.1,660.6z M422.7,667.9c-5.7,0.8-11.3,1.9-17.1,2.3c-8,0.6-16.1,0.9-24.1,0.9c-3,0-5.9-1.5-8.8-2.5
			c-4.5-1.5-8.9-3.1-13.2-5.2c21.1,1.4,42.1,2.8,63.2,4.2C422.6,667.7,422.6,667.8,422.7,667.9z M352.9,656.4c8.3-3.3,17-4.7,25.8-6
			c15-2.2,29.6-0.6,44.2,3.5c10,2.8,20.2,3.9,30.5,4.2c1.3,0,2.7,0.2,4.4,0.4c-10.5,3.2-20.6,4.6-31,4.2c-7.9-0.3-15.7-0.7-23.6-1.2
			c-11.9-0.8-23.8-1.7-35.6-2.5c-5.8-0.4-11.7-0.6-18.2-1C350.9,657.3,351.8,656.8,352.9,656.4z M600.5,552.4L600.5,552.4
			c-0.9-0.2-1.9,0.2-2.4,1c-6.9,9.9-15,19-22.3,28.6c-7.8,10.2-18.3,15-30.3,17.2c-17.4,3.2-33.7,9.3-49.2,18.2
			c-15.5,8.9-31,17.9-46.5,26.9c-1.3,0.8-2.7,1.6-3.9,2.5c-1.9,1.4-3.4,2.9-2.2,6.4c-8-1.6-15.5-2.7-22.8-4.7
			c-15-4.1-30.1-4.6-45.4-2.4c-10.1,1.4-19.8,3.8-29.2,7.8c-0.8,0.3-2.2,0.1-3-0.4c-18.9-12.1-38.1-23.5-60.5-26.7
			c-8.4-1.2-17.1-0.7-25.6-0.9c-4.7-0.1-9.4,0.3-14.1,0.4c-2,0-4.1-0.1-4.6,2.5c-0.4,2.4,1.7,2.8,3.3,3.5
			c11.7,4.8,23.5,9.4,35.1,14.5c10.6,4.6,21,9.8,31.5,14.7c0.9,0.4,1.7,0.9,2.3,1.8c-1.5-0.3-3.1-0.6-4.6-0.9
			c-30.3-8-58.3-21.4-84.1-39.7c-44.8-31.9-77.6-73.9-98.5-125.8c-5.5-13.8-10-27.9-13.3-42.3c-0.2-0.9-0.9-1.6-1.8-1.8
			c-1.7-0.3-3.1,1.2-2.7,2.9c1.8,7.9,4,15.8,6.6,23.5c22.1,67.8,62.9,120.3,122.2,157.4c4.6,2.9,9.3,5.5,14,8.2
			c-0.1,0.2-0.1,0.2-0.1,0.4c-1.2-0.2-2.4-0.4-3.6-0.5c-11.5-0.9-23-1.9-34.5-2.5c-7.3-0.4-14.6-0.1-21.9-0.1
			c-1.8,0-3.6,0.7-3.4,2.7c0.1,1.2,1.6,2.7,2.7,3.1c14.2,5,28.6,9.3,42.6,14.8c26.2,10.3,53,14.6,80.9,12.7
			c14.1-0.9,28.2-1.8,42.3,0.5c3,0.5,6,0.5,9,0.8c0,0.4,0,0.7,0,1.1c-5,0.1-10.1,0.2-15.1,0.4c-14.7,0.6-29.4,1.1-43.8,4.4
			c-6.7,1.5-13.3,4-19.9,6.1c-1.3,0.4-2.7,0.5-3.8,1.2c-0.8,0.5-1.8,1.8-1.8,2.6c0,0.8,1.3,1.7,2.1,2.3c0.5,0.4,1.3,0.3,2,0.4
			c14,1.5,28.1,3,42.1,4.4c20.5,2.1,40.5-0.4,60-6.9c5.6-1.9,11.2-4,16.1-5.7c-4.7,4.6-9.9,9.6-14.8,14.8c-0.9,0.9-1.4,3.3-1,4.4
			c0.9,2,2.8,1,4.3,0.2c3.7-1.8,7.4-3.9,11.1-5.6c20.7-9.2,41.5-18.2,62.2-27.5c9.6-4.3,19-9.3,26.9-16.5
			c8.9-8.1,18.9-14.6,29.2-20.4c0.5-0.3,1-0.4,1.5-0.6c-0.7,1.1-1.6,1.8-2.5,2.5c-18.5,13.9-35.6,29.3-51.7,46
			c-1.3,1.3-3.1,2.6-1.7,4.7c1.3,2,3.3,1.1,5,0.4c4.2-1.6,8.5-3.2,12.7-4.9c9.6-3.9,19.5-7.1,27.7-13.7c19.9-16.2,37-35.2,50.4-57.6
			c2.5-4.2,5.2-8.3,8.2-12.2c4-5.4,8.4-10.6,12.5-15.9c1.3-1.6,2.3-3.4,3.6-5c5.4-7,11.1-13.7,16.2-21c0.6-0.8,1.2-1.7,1.7-2.5
			C603,554.8,602.2,552.7,600.5,552.4z"/>
	</g>
</g>
<g>
	<path class="st0" d="M134.5,310.6c2-1,4.1,1.9,1.9,2.7c-4.9,1.9-10.4,2.3-15.6,2.6c-4.2,0.3-8.4,0.4-12.6,0.3
		c-0.1,1.8-0.3,3.7-0.4,5.5c-0.5,8.2-1.1,16.4-1.5,24.7c-0.4,8-1.1,15.9-1,24c0.1,3.6,0.4,7.2,1.4,10.7c0.4,1.4,1.1,2.8,2.6,3.1
		c1.8,0.4,3.7-0.4,5.2-1.3c6.4-3.9,8.6-11.7,10.6-18.5c0.5-1.6,3.5-1.1,3,0.7c-2.2,8.1-5.3,17.8-13.7,21.4
		c-3.6,1.5-7.5,1.8-10.8-0.4c-3.3-2.2-5-5.8-6-9.5c-2.5-8.8-2.3-18.1-2.5-27.2c-0.2-9.4,0.2-18.8,0.7-28.2c0.1-1.9,0.2-3.7,0.4-5.6
		c-3-0.1-6-0.3-9-0.4c-2.7-0.1-5.5-0.3-8.2-0.2c-0.3,0-0.6,0-1,0.1c0.3,0.1,0.6,0.2,0.9,0.3c2.1,0.8,0.1,3.2-1.7,2.5
		c-0.6-0.2-1.4,0.2-2,0.1c-0.4,0-0.9-0.1-1.3-0.3c-0.7-0.3-1.5-0.8-1.7-1.6c-0.8-2.4,2.5-3.5,4.2-3.8c3-0.6,6.2-0.3,9.2-0.2
		c3.2,0.1,6.4,0.3,9.6,0.5c0.4,0,0.8,0,1.1,0.1c0.1-1.9,0.3-3.8,0.4-5.7c0.4-4.9,0.7-10,2.2-14.6c0.8-2.4,3.4-3.4,5.7-3.2
		c2.5,0.3,4.1,1.9,4.5,4.3c0.7,4.7,0.1,9.5-0.3,14.2c-0.1,1.8-0.3,3.6-0.4,5.4c2.1,0,4.2,0,6.3,0c3.3-0.1,6.6-0.3,9.9-0.6
		C127.9,312.3,131.5,312,134.5,310.6L134.5,310.6z"/>
	<path class="st0" d="M179.2,360.8c0.8-1.7,4.2-1.1,3.4,0.8c-1.9,4.5-4.2,8.8-6.9,12.8c-2.1,3.1-4.6,6.9-8.8,7.2
		c-10.2,0.7-11-14.9-10.8-21.9c0.2-8.8,1.1-17.6,1.3-26.4c0-0.5,0.4-2-0.1-2.4c-0.6-0.5-1.8,0.6-2.3,1c-1.4,1.2-2.6,2.6-3.7,4.1
		c-2.5,3.6-4.4,7.5-6.2,11.4c-3.5,7.8-6.1,15.9-8.6,24.1c-0.1,0.8-0.2,1.7-0.3,2.6c-0.5,3.9-7.2,5.2-8.3,1c-0.5-1.9-1.2-3.7-1.4-5.6
		c-0.2-1.8-0.3-3.6-0.5-5.4c-0.3-3.4-0.4-6.7-0.5-10.1c-0.2-6.7-0.3-13.5-0.2-20.2c0.1-11.8,0.7-23.9,3.8-35.4
		c1.3-5,3.3-10.2,7.3-13.6c3.7-3.1,8.7-3.9,13.3-2.3c10.7,3.8,5.1,18.2,2,25.4c-3.9,9-9.2,17.2-14.7,25.2c-0.1,2.9-0.1,5.9-0.2,8.8
		c-0.1,5.3-0.1,10.6,0,15.9c0,0.6,0,1.2,0,1.8c1.8-5.4,3.8-10.7,6.3-15.8c3-6.3,7.1-15.1,14.7-16.7c4.4-0.9,8,2.5,9.4,6.3
		c1.5,4.3,1.8,9,1.8,13.5c0.1,8.9-1,17.7-0.9,26.6c0,0.9-0.2,2,0.3,2.9c0.3,0.6-0.3,0.6,0.5,0.2c1.5-0.8,2.7-2.8,3.7-4.1
		C175.1,368.7,177.3,364.8,179.2,360.8L179.2,360.8z M137.1,327c4.5-6.7,8.8-13.6,12-21.1c1.7-4.1,3.7-8.9,3.7-13.5
		c0-4.2-3.3-9.6-7.8-6.2c-2.9,2.2-4.1,6.7-4.8,10.1c-1,4.7-1.6,9.4-2.1,14.2C137.6,315.9,137.3,321.5,137.1,327z"/>
	<path class="st0" d="M220.9,351.6c-1.5,5.8-3.8,11.4-6.9,16.5c-2.8,4.5-6.2,9.5-11.3,11.6c-10.4,4.3-19.5-6-22.4-14.9
		c-1.9-5.8-1.9-11.9-0.9-17.9c0.9-5.7,2.9-11.3,7.2-15.3c4-3.6,9.5-5.3,14.6-3.4c3.8,1.4,7.3,4.2,7.3,8.6c0,4.7-4.3,8.1-8.2,9.9
		c-3.2,1.5-6.7,2.3-10.2,2.2c-1.1,6.6-1.3,13.3,0.2,19.8c0.8,3.5,2.6,7,6.3,8.2c4,1.2,7.3-1.4,9.8-4.3c5.4-6.2,9.1-13.9,11.1-21.9
		C218.2,349.1,221.4,349.7,220.9,351.6z M190.8,346.3c3.4-0.1,6.8-1,9.8-2.8c3.5-2.1,6.8-6.6,3.2-10.3c-1.4-1.4-3-2.1-4.8-1.4
		c-1.3,0.5-2.6,1.5-3.5,2.6c-2.3,2.7-3.4,6.8-4.2,10.2C191,345.1,190.9,345.7,190.8,346.3z"/>
</g>
<g>
	<path class="st0" d="M478.6,515.7c-7.5,4.4-16.5,5.9-25,4.5c3.3,3,5.8,6.9,7.1,11.2c2.1,7.1,1,16.3-3.9,22.1
		c-2.2,2.7-5.1,3.5-8.4,2.5c-4-1.1-5.8-4.6-7.2-8.2c-3-7.8-3.7-16.3-4.1-24.6c-0.4-8.4-0.2-16.9,0.4-25.3c0.6-7.9,1.9-16,5.3-23.2
		c3.1-6.4,9.5-13.2,17.4-10.5c6.2,2.1,8.2,9.9,8.5,15.7c0.6,14.9-9.1,27.4-20.6,35.7c-0.8,0.5-1.9,0-2-0.7c0,0.3,0,0.6,0,0.9
		c0.3-0.1,0.7-0.1,1.1,0c9.8,4,21,3.3,30.1-2.1C478.6,512.9,480.2,514.8,478.6,515.7z M446,518c0,2.3,0,4.5,0,6.8
		c0.1,6.9,0.2,13.9,1.6,20.6c0.3,1.6,0.7,3.1,1.3,4.6c0.4,1,0.9,2.6,2,3.2c2.7,1.4,5.2-3.7,6-5.4C462.1,536.5,457,523.2,446,518z
		 M446.1,514.7c0-0.2,0.1-0.4,0.4-0.6c11.1-8.4,20.6-21,19.2-35.7c-0.4-4.3-2.8-12.8-8.9-10.3c-2.4,1-4.1,3.4-5,5.7
		c-1.3,3-2.3,6.1-3,9.3c-1.4,6.6-1.9,13.3-2.3,20C446.2,507,446.1,510.8,446.1,514.7z"/>
	<path class="st0" d="M521.3,514.9c0.5-1.4,3.2-0.9,2.7,0.6c-1.8,5.3-3.6,10.6-6.4,15.5c-2.1,3.7-4.9,8.4-9.9,7.6
		c-4.9-0.8-6.9-6.4-7.6-10.6c-0.8-4.7-1-9.4-0.9-14.1c-1.3,3.7-2.7,7.4-4.4,10.9c-1.5,3-2.9,6.3-5.2,8.8c-2.4,2.6-6,3-9.1,1.5
		c-6.7-3.3-8.2-12.6-7.2-19.3c1-7.1,3.9-14.8,10.1-19.1c2.8-1.9,6.2-3,9.6-2c2.7,0.8,5.4,2.8,6.4,5.5c0.7,1.8-2.3,2.4-3.2,1.1
		c-0.9-1.2-1.6-2.3-3.1-2.6c-0.9-0.2-1.8-0.1-2.6,0.4c-2.3,1.4-3.8,3.7-5.2,6c-2.6,4.6-3.9,10.1-4.2,15.3c-0.1,2.6-0.1,5.3,0.8,7.8
		c0.5,1.4,1.8,3.6,3.5,3c2.4-0.8,4-3.8,5.3-5.8c1.6-2.5,2.8-5.3,4-8c1.9-4.5,3.3-9.2,4.7-13.9c0.1-2.9,0.2-6.4,1.9-8.8
		c1.6-2.3,6-2.6,7.5,0c1.7,2.9,1.3,6.6,1.2,9.9c-0.1,2.9-0.2,5.7-0.5,8.6c-0.5,5.6-0.8,11.2-0.6,16.8c0,1.3,0.1,2.6,0.3,3.8
		c0,0.4,0.1,1.5,0.5,1.7c1,0.5,2.5-1.7,2.9-2.2c0.8-1,1.5-2.1,2.1-3.3C517.5,525.2,519.4,520,521.3,514.9L521.3,514.9z"/>
	<path class="st0" d="M576.8,517.6c0.6-1.4,3.3-0.9,2.7,0.6c-1.4,3.3-2.7,6.6-4.6,9.7c-1.6,2.6-3.6,6.4-7.1,6.6
		c-3,0.2-5.4-2-6.5-4.6c-1.4-3.2-2-6.9-2.1-10.4c-0.2-6.9,0.5-13.9,1.4-20.7c0.1-0.4,0.4-2.7,0-3c-0.1,0-1.5,1.2-1.7,1.4
		c-0.5,0.5-1,1.1-1.5,1.7c-2,2.6-3.4,5.6-4.7,8.6c-2.3,5.7-4.2,11.6-5.5,17.7c0,1.1-0.2,2.2-0.4,3.3c-0.9,3.7-6.7,3-7.9,0
		c-1.2-3-0.8-6.8-0.6-9.9c0.2-3,0.4-6,0.6-9c0.2-3,0.4-5.9,0.5-8.9c0-1.3,0-2.6,0-4c0-0.4,0.2-0.7-0.3-0.8c-0.6-0.1-1.3,0.9-1.7,1.3
		c-3.8,4.2-5,10.6-6.2,16c-1,4.5-1.9,9.1-2.7,13.7c-0.1,1.6-0.3,3.2-0.8,4.7c0,0,0,0.1,0,0.1c0,0.1-0.1,0.2-0.1,0.3
		c-0.2,0.5-0.4,1-0.7,1.4c-0.8,1.4-3.2,1.2-4,0c-1.9-2.6-2.2-6-2.5-9.1c-0.3-2.9-0.4-5.8-0.4-8.8c0-6.1,0.2-12.4,1.5-18.4
		c0.4-2,3-2.8,4.7-2.6c1.8,0.2,3.7,1.6,3.7,3.6c0,4.1-0.3,8.1-0.6,12.2c1-4.2,2.2-8.4,4.4-12.1c1.1-1.7,2.6-3.8,4.7-4.3
		c1.8-0.4,3.9,0.7,5.1,1.9c1.8,1.7,2.6,4.8,3.1,7.1c0.7,2.8,0.9,5.7,0.8,8.6c0,0.9,0,1.9-0.1,2.8c1-3.2,2.2-6.4,3.6-9.5
		c1.9-4.3,5.5-11.8,11.2-11.1c3,0.4,4.7,3.1,5.6,5.7c1.1,3.2,1.3,6.8,1.2,10.2c-0.1,3.4-0.5,6.8-0.7,10.2c-0.2,3.1-0.5,6.3,0,9.4
		c0.1,0.5,0.1,1.1,0.3,1.6c0,0.1,0,0.2,0,0.2c0.1,0,0.9-0.6,1.1-0.7c1.2-1,2.1-2.4,2.9-3.8C574.3,523.6,575.6,520.6,576.8,517.6
		L576.8,517.6z"/>
	<path class="st0" d="M579.1,487c-2.1-3.7-4.4-7.6-3-10.9c0.5-1.1,1-1.5,1.3-1.7c1.7-1,4.3-0.1,5.6,1.4c0.6,0.6,1,1.3,1.5,2.1
		c0.1-0.1,0.2-0.3,0.4-0.5c0.9-1.2,1.5-1.9,1.7-2.1c1-1.1,4.1-1.2,5.4,0c2.3,2.1-0.6,8.6-3.3,12.2c-1.3,1.8-3.3,4.5-5.6,4.2
		C581.7,491.4,580.8,489.9,579.1,487z M601.5,515.5c-1.8,5.3-3.6,10.6-6.4,15.5c-2.1,3.7-4.9,8.4-9.9,7.6c-4.9-0.8-6.9-6.4-7.6-10.6
		c-0.9-5.5-1-11-0.9-16.5c0.1-2.7,0.2-5.3,0.4-8c0.1-2.9,0.2-6.5,1.9-8.9c1.6-2.3,6-2.6,7.5,0c1.7,2.9,1.3,6.6,1.2,9.9
		c-0.1,2.9-0.2,5.7-0.5,8.6c-0.5,5.6-0.8,11.2-0.6,16.8c0,1.3,0.1,2.6,0.3,3.8c0,0.4,0.1,1.5,0.5,1.7c1,0.5,2.5-1.7,2.9-2.2
		c0.8-1,1.5-2.1,2.1-3.3c2.8-4.7,4.7-9.9,6.5-15.1C599.4,513.5,602.1,514,601.5,515.5z"/>
	<path class="st0" d="M606,497.6c-0.1,3.7-0.1,7.5-0.2,11.2c-0.2,5-0.3,10.1,0.3,15.1c0.2,2,0.4,4.6,1.6,6.3c0.5,0.7,1,1.3,1.9,0.9
		c1-0.5,1.8-1.4,2.5-2.2c3.1-3.5,5.3-7.6,6.8-12c0.5-1.4,3.1-0.9,2.7,0.6c-1.7,5.7-4.8,11.3-9.1,15.6c-2.3,2.2-5.9,3-8.6,1.1
		c-2.7-1.9-3.7-5.2-4.5-8.3c-1.6-6.1-1.8-12.3-1.9-18.6c-0.1-6.2,0.1-12.5,0.8-18.7c0.7-6.1,1.7-12.3,3.9-18.1
		c1.9-5,4.8-10,10.1-11.8c4.1-1.4,9.6-0.3,12.1,3.5c2.7,4,1.6,9.6,0.2,13.9c-1.5,4.8-4,9.2-7.2,13
		C614.6,492.4,610.5,496.4,606,497.6L606,497.6z M606.2,493.3c0,0.6-0.1,1.2-0.1,1.8c1.9-0.8,3.7-2.2,5.2-3.5c1.9-1.6,3.5-3.3,5-5.2
		c2.9-3.7,5-8,6.2-12.6c0.9-3.6,1.9-9.4-1.9-11.8c-3.3-2.1-7,1.2-8.8,3.9c-2.4,3.7-3.3,8.5-4.2,12.8
		C606.7,483.5,606.4,488.4,606.2,493.3L606.2,493.3z"/>
	<path class="st0" d="M666.8,518.1c0.4-1.4,3-0.9,2.7,0.6c-1.3,5.9-6,10.5-11.1,13.5c-1.1,0.6-2.2,1.2-3.3,1.7
		c0,4.8-0.1,9.5-0.4,14.3c-0.4,6.9-1.1,14.1-3.2,20.7c-2,6.2-6.1,11.3-12.4,13.3c-5.6,1.8-12.5,0.8-16.9-3.2
		c-4.2-3.8-6.8-9-7.3-14.6c-0.5-5.7,1.6-11.4,5-15.9c3.9-5,9.3-8.2,15.1-10.4c3.1-1.2,6.6-2.1,10-3.2c-0.1-6.2-0.4-12.4-0.5-18.6
		c-0.4,1.3-0.9,2.5-1.3,3.8c-0.9,2.4-2,4.7-3.2,7c-1.2,2.2-2.5,4.6-4.6,6.1c-4.4,3.2-9.6,0.3-12.5-3.4c-3.3-4.3-4-10.2-4.3-15.4
		c-0.2-2.9,0-5.8,0.1-8.6c0.2-3.1,0.5-6.3,1.4-9.2c1.3-4.1,8.7-3.5,8.8,1c0,3.3-0.5,6.5-0.9,9.8c-0.3,3-0.6,6-0.8,9
		c-0.2,2.8,0,5.6,0.4,8.4c0.4,2.2,0.8,5.6,2.9,6.8c2.8,1.5,5.2-2.7,6.3-4.6c1.5-2.7,2.8-5.5,3.9-8.4c1.7-4.6,2.9-9.3,3.9-14
		c0.1-2.2,0.3-4.4,0.6-6.6c0.3-2.6,2.3-4.1,4.9-4.2c2.3-0.1,5,1.7,4.9,4.2c-0.2,8.4-0.3,16.8-0.2,25.2c0,2.7,0,5.4,0,8
		C660.5,528.3,665,524.5,666.8,518.1L666.8,518.1z M645.2,539.3c0-0.6,0-1.2,0-1.8c-2.3,0.7-4.6,1.4-6.8,2.1
		c-5.9,2-11.5,4.8-15.5,9.8c-3.5,4.3-5.4,9.7-4.7,15.3c0.7,5.3,3.7,10.2,8.9,12c4.2,1.5,9.4,1.1,12.5-2.3c3.4-3.7,4.1-9.4,4.7-14.2
		C644.9,553.2,645.2,546.2,645.2,539.3z"/>
</g>
</svg>


