<?xml version="1.0" encoding="utf-8"?>
<!-- Generator: Adobe Illustrator 23.0.5, SVG Export Plug-In . SVG Version: 6.00 Build 0)  -->
<svg version="1.1" xmlns="http://www.w3.org/2000/svg" xmlns:xlink="http://www.w3.org/1999/xlink" x="0px" y="0px"
	 viewBox="0 0 720 720" style="enable-background:new 0 0 720 720;" xml:space="preserve" width="500" height="500">
<style type="text/css">
	.st0{fill:#050002;}
	.st1{fill-rule:evenodd;clip-rule:evenodd;fill:#050002;}
	.st2{fill-rule:evenodd;clip-rule:evenodd;}
	.st3{fill:#221F1F;}
	.st4{fill:#231F20;}
	.st5{fill:#070808;}
	.st6{fill:#211E1F;}
	.st7{fill:#161616;}
	.st8{fill:#131313;}
	.st9{fill:#21201F;}
	.st10{fill:#2C2929;}
</style>
<g>
	<g>
		<path class="st0" d="M612.3,306.2c-2.8-11.9-6.3-23.4-10.5-34.6c-12.3-32.1-29.3-59.5-51.1-82.2c-21.1-22.3-46.1-39.5-75.1-51.8
			c-29-12.3-59.8-18.4-92.5-18.4c-31.5,0-61.7,6-90.6,18.1c-28.9,12.1-54.2,29.4-76,52.2c-22,23-39.3,50.1-51.8,81.5
			c-4.5,11.2-8.1,22.9-11,35.3h-51.4v7.8h544v-7.8H612.3z M235.9,306.2c0.8-4.8,1.7-9.5,2.7-14.2c5.7-27.4,14.3-51.2,25.9-71.6
			c12.3-21.3,28.2-38.4,47.7-51.1c19.5-12.7,43.1-19.1,70.9-19.1c24.8,0,46.8,5.5,66.1,16.5c19.2,11,35.2,26.4,48,46.1
			c12.7,19.9,22.4,44.1,29,72.3c1.6,6.9,3,13.9,4.2,21.2H235.9z"/>
	</g>
	<g>
		<path class="st0" d="M102.2,445.6h50.9c2.8,12.2,6.3,24.2,10.6,35.8c11.9,32.1,28.3,59.4,49.2,81.9c20.9,23,45.8,40.9,74.9,53.7
			c29.1,12.9,60.8,19.3,95.1,19.3c32.2,0,62.6-6,91.1-18.1c28.5-12.1,53.6-29.2,75.1-51.5c22.3-22.5,39.6-49.7,52.2-81.7
			c4.9-12.6,8.9-25.7,11.9-39.4h33v-7.8h-544V445.6z M527.2,467.6c-5.9,26.7-15.4,50.6-28.3,71.6c-12.5,20.9-28.8,37.1-48.7,48.7
			c-19.9,11.6-42.3,17.4-67.1,17.4c-26.4,0-49.2-5.7-68.2-17.2c-19-11.5-34.8-27.4-47.3-47.8c-13-20.9-22.5-44.7-28.5-71.6
			c-1.7-7.4-3.1-15.1-4.3-23.1h296.5C530.1,453.2,528.7,460.5,527.2,467.6z"/>
	</g>
</g>
</svg>


