<?xml version="1.0" encoding="utf-8"?>
<!-- Generator: Adobe Illustrator 23.0.5, SVG Export Plug-In . SVG Version: 6.00 Build 0)  -->
<svg height="500" width="500" version="1.1" xmlns="http://www.w3.org/2000/svg" xmlns:xlink="http://www.w3.org/1999/xlink" x="0px" y="0px"
	 viewBox="0 0 720 720" style="enable-background:new 0 0 720 720;" xml:space="preserve">
<style type="text/css">
	.st0{fill:#050002;}
	.st1{fill-rule:evenodd;clip-rule:evenodd;fill:#050002;}
	.st2{fill-rule:evenodd;clip-rule:evenodd;}
	.st3{fill:#221F1F;}
	.st4{fill:#231F20;}
	.st5{fill:#070808;}
	.st6{fill:#211E1F;}
	.st7{fill:#161616;}
	.st8{fill:#131313;}
	.st9{fill:#21201F;}
	.st10{fill:#2C2929;}
</style>
<g>
	<g>
		<g>
			<path class="st0" d="M357,200.6c-132.4,0-240,107.9-240,240.5c0,132.6,107.7,240.5,240,240.5c132.4,0,240-107.9,240-240.5
				C597,308.4,489.3,200.6,357,200.6z M357,685.1c-32.9,0-64.8-6.5-94.9-19.2c-29-12.3-55.1-29.9-77.5-52.3
				c-22.4-22.4-40-48.5-52.2-77.6c-12.7-30.1-19.1-62.1-19.1-95s6.4-64.9,19.1-95c12.3-29.1,29.8-55.2,52.2-77.6
				c22.4-22.4,48.4-40,77.5-52.3c30-12.7,62-19.2,94.9-19.2c32.9,0,64.8,6.5,94.9,19.2c29,12.3,55.1,29.9,77.5,52.3
				c22.4,22.4,40,48.5,52.2,77.6c12.7,30.1,19.1,62.1,19.1,95s-6.4,64.9-19.1,95c-12.3,29.1-29.8,55.2-52.2,77.6
				c-22.4,22.4-48.4,40-77.5,52.3C421.8,678.7,389.9,685.1,357,685.1z"/>
		</g>
	</g>
	<g>
		<g>
			<path class="st0" d="M135.4,540.5C135.3,540.5,135.3,540.5,135.4,540.5c-1.1,0-1.8-0.9-1.8-1.9c0.5-16.5,4.9-32.5,12.9-46.3
				c0.5-0.9,1.6-1.2,2.5-0.7c0.9,0.5,1.2,1.6,0.7,2.5c-7.7,13.3-12,28.7-12.4,44.6C137.1,539.7,136.3,540.5,135.4,540.5z"/>
		</g>
	</g>
	<g>
		<g>
			<path class="st0" d="M135.4,540.5c-0.6,0-1.2-0.3-1.5-0.8c-2.3-3.5-4.8-6.9-7.7-10c-8.3-9.2-18.8-16.2-28.9-23.1
				c-0.8-0.6-1.1-1.7-0.5-2.5c0.6-0.8,1.7-1.1,2.5-0.5c10.3,7,21,14.2,29.6,23.6c2.9,3.3,5.6,6.8,8,10.5c0.5,0.8,0.3,2-0.5,2.5
				C136,540.4,135.7,540.5,135.4,540.5z"/>
		</g>
	</g>
	<g>
		<g>
			<path class="st0" d="M154,492.8c0,3.7-1.8,5.5-5.5,5.5c-3.6,0-5.5-1.8-5.5-5.5s1.8-5.5,5.5-5.5C152.2,487.3,154,489.1,154,492.8z
				"/>
		</g>
	</g>
	<g>
		<g>
			<ellipse class="st0" cx="98.1" cy="504.9" rx="5.5" ry="5.5"/>
		</g>
	</g>
	<g>
		<g>
			<path class="st0" d="M126.6,490.6 M132.6,460.3c-2.1,10-3.8,20.2-4.2,30.4c-0.4,11.4,0.9,23.1,3.9,34.3l0.7-25.2
				C133.4,486.7,133.7,473.4,132.6,460.3z M133.8,537.6c-0.8,0-1.4-0.5-1.7-1.2c-5.4-14.6-8-30.5-7.4-45.9
				c0.5-14.1,3.6-28.1,6.5-41.6c0.2-0.9,1-1.5,1.8-1.4s1.6,0.7,1.8,1.5c2.8,16.9,2.3,34.1,1.8,50.8l-1,36c0,0.9-0.7,1.6-1.5,1.8
				C134,537.6,133.9,537.6,133.8,537.6z"/>
		</g>
	</g>
	<g>
		<g>
			<path class="st0" d="M90.7,444.4c8.5,25.9,19.9,50.8,34,74.1c-4.1-14.3-10.5-28.2-16.2-40.7C103.2,466.4,97.9,454.7,90.7,444.4z
				 M129,530.7c-0.6,0-1.2-0.3-1.5-0.8c-18.9-29.2-33.4-60.9-43.3-94.2c-0.2-0.8,0.1-1.7,0.9-2.1c0.8-0.4,1.7-0.2,2.3,0.4
				c10.8,12.5,17.8,27.6,24.4,42.2c7.3,15.8,15.5,33.8,19.1,52.4c0.2,0.9-0.3,1.7-1.1,2C129.5,530.7,129.3,530.7,129,530.7z"/>
		</g>
	</g>
	<g>
		<g>
			<path class="st0" d="M213.8,638.4c-0.7,0-1.3-0.3-1.6-1c-7.8-14.5-11.9-30.6-11.9-46.6c0-1,0.8-1.8,1.8-1.8c0,0,0,0,0,0
				c1,0,1.8,0.8,1.8,1.8c0,15.4,3.9,30.9,11.5,44.8c0.5,0.9,0.2,2-0.7,2.5C214.4,638.3,214.1,638.4,213.8,638.4z"/>
		</g>
	</g>
	<g>
		<g>
			<path class="st0" d="M213.8,638.4c-0.3,0-0.6-0.1-0.8-0.2c-3.7-1.9-7.6-3.5-11.6-4.8c-11.8-3.8-24.4-4.6-36.6-5.5
				c-1-0.1-1.8-0.9-1.7-1.9c0.1-1,1-1.8,1.9-1.7c12.4,0.9,25.2,1.8,37.4,5.7c4.2,1.3,8.3,3,12.2,5c0.9,0.5,1.3,1.6,0.8,2.5
				C215.1,638,214.4,638.4,213.8,638.4z"/>
		</g>
	</g>
	<g>
		<g>
			<path class="st0" d="M207.7,590.2c0,3.7-1.8,5.5-5.5,5.5c-3.6,0-5.5-1.8-5.5-5.5s1.8-5.5,5.5-5.5
				C205.9,584.8,207.7,586.6,207.7,590.2z"/>
		</g>
	</g>
	<g>
		<g>
			<path class="st0" d="M170.1,626c0,3.7-1.8,5.5-5.5,5.5c-3.6,0-5.5-1.8-5.5-5.5s1.8-5.5,5.5-5.5
				C168.3,620.6,170.1,622.4,170.1,626z"/>
		</g>
	</g>
	<g>
		<g>
			<path class="st0" d="M172.2,570.1c3.2,9.7,6.8,19.4,11.6,28.4c5.3,10.1,12.3,19.6,20.5,27.8l-12-22.2
				C186.2,592.6,179.8,580.9,172.2,570.1z M211,636.7c-0.4,0-0.8-0.1-1.2-0.4c-12-9.9-22.1-22.4-29.3-36
				c-6.6-12.5-10.9-26.1-15.1-39.3c-0.3-0.8,0.1-1.7,0.9-2.2c0.8-0.4,1.7-0.2,2.3,0.5c10.8,13.2,19,28.4,26.9,43.1l17.1,31.7
				c0.4,0.8,0.2,1.7-0.4,2.3C211.9,636.5,211.4,636.7,211,636.7z"/>
		</g>
	</g>
	<g>
		<g>
			<path class="st0" d="M128,577.3c20.3,18.2,42.5,34,66.4,47.2c-10.7-10.4-23.1-19.2-34.4-27.2C149.9,590.1,139.5,582.7,128,577.3z
				 M203.4,633.1c-0.3,0-0.6-0.1-0.8-0.2c-30.9-15.8-59.3-36-84.5-59.9c-0.6-0.6-0.7-1.5-0.3-2.3c0.4-0.7,1.3-1.1,2.2-0.8
				c15.6,5.4,29.2,15,42.2,24.3c14.2,10.1,30.3,21.5,42.6,35.8c0.6,0.7,0.6,1.6,0.1,2.3C204.5,632.9,204,633.1,203.4,633.1z"/>
		</g>
	</g>
	<g>
		<g>
			<path class="st0" d="M330.6,683.9c-0.3,0-0.7-0.1-1-0.3c-14-8.6-25.6-20.5-33.6-34.4c-0.5-0.9-0.2-2,0.7-2.5
				c0.9-0.5,2-0.2,2.5,0.7c7.6,13.3,18.8,24.8,32.3,33.1c0.9,0.5,1.1,1.7,0.6,2.5C331.8,683.6,331.2,683.9,330.6,683.9z"/>
		</g>
	</g>
	<g>
		<g>
			<path class="st0" d="M283,699.3c-0.7,0-1.3-0.4-1.6-1c-0.4-0.9-0.1-2,0.8-2.4c11.2-5.5,22.7-11.1,35.2-13.8
				c4.3-0.9,8.7-1.5,13-1.7c1,0,1.9,0.7,1.9,1.7c0,1-0.7,1.9-1.7,1.9c-4.2,0.2-8.4,0.8-12.5,1.7c-12.1,2.6-23.4,8.2-34.4,13.6
				C283.5,699.2,283.3,699.3,283,699.3z"/>
		</g>
	</g>
	<g>
		<g>
			<path class="st0" d="M303,647.7c0,3.7-1.8,5.5-5.5,5.5c-3.6,0-5.5-1.8-5.5-5.5s1.8-5.5,5.5-5.5C301.1,642.2,303,644.1,303,647.7z
				"/>
		</g>
	</g>
	<g>
		<g>
			<path class="st0" d="M288.3,697.6c0,3.7-1.8,5.5-5.5,5.5c-3.6,0-5.5-1.8-5.5-5.5c0-3.7,1.8-5.5,5.5-5.5
				C286.4,692.1,288.3,693.9,288.3,697.6z"/>
		</g>
	</g>
	<g>
		<g>
			<path class="st0" d="M261.4,645.3c7.6,6.8,15.6,13.4,24.2,18.8c9.7,6.1,20.4,10.8,31.6,13.8l-21.5-13.2
				C284.7,657.8,273.4,650.9,261.4,645.3z M327.3,683.8c-0.1,0-0.2,0-0.3,0c-15.3-2.6-30.3-8.3-43.4-16.5
				c-12-7.5-22.5-17.1-32.7-26.5c-0.6-0.6-0.8-1.6-0.3-2.3c0.5-0.7,1.4-1.1,2.2-0.8c16,6,30.6,15.1,44.8,23.8l30.6,18.9
				c0.7,0.5,1.1,1.4,0.8,2.2C328.8,683.3,328.1,683.8,327.3,683.8z"/>
		</g>
	</g>
	<g>
		<g>
			<path class="st0" d="M226.7,673.7c26.6,5.6,53.8,8.1,81.1,7.6c-14.4-3.6-29.6-5-43.3-6.3C252,673.8,239.3,672.6,226.7,673.7z
				 M300.6,685c-28.5,0-56.8-3.3-84.6-10c-0.8-0.2-1.4-1-1.4-1.8c0-0.9,0.6-1.6,1.5-1.8c16.2-3.1,32.7-1.6,48.7-0.1
				c17.3,1.6,37,3.4,54.8,9.7c0.8,0.3,1.3,1.1,1.2,2c-0.1,0.9-0.8,1.5-1.7,1.6C312.9,684.8,306.7,685,300.6,685z"/>
		</g>
	</g>
	<g>
		<g>
			<path class="st0" d="M454.4,664.8C454.4,664.8,454.4,664.8,454.4,664.8c-16.5-0.5-32.5-4.9-46.3-13c-0.9-0.5-1.2-1.6-0.7-2.5
				c0.5-0.9,1.6-1.2,2.5-0.7c13.3,7.7,28.6,12,44.5,12.5c1,0,1.8,0.9,1.8,1.9C456.2,664.1,455.4,664.8,454.4,664.8z"/>
		</g>
	</g>
	<g>
		<g>
			<path class="st0" d="M420.9,702c-0.4,0-0.7-0.1-1-0.3c-0.8-0.6-1.1-1.7-0.5-2.5c6.9-10.3,14.1-21,23.6-29.6c3.2-3,6.8-5.7,10.4-8
				c0.8-0.5,2-0.3,2.5,0.5c0.5,0.8,0.3,2-0.5,2.5c-3.5,2.3-6.9,4.9-10,7.7c-9.2,8.3-16.2,18.8-23,29
				C422.1,701.7,421.5,702,420.9,702z"/>
		</g>
	</g>
	<g>
		<g>
			<path class="st0" d="M414.1,649.8c0,3.7-1.8,5.5-5.5,5.5c-3.6,0-5.5-1.8-5.5-5.5s1.8-5.5,5.5-5.5
				C412.3,644.3,414.1,646.2,414.1,649.8z"/>
		</g>
	</g>
	<g>
		<g>
			<path class="st0" d="M426.3,700.3c0,3.7-1.8,5.5-5.5,5.5c-3.6,0-5.5-1.8-5.5-5.5s1.8-5.5,5.5-5.5
				C424.4,694.9,426.3,696.7,426.3,700.3z"/>
		</g>
	</g>
	<g>
		<g>
			<path class="st0" d="M376.2,665.8c10,2.1,20.2,3.8,30.4,4.2c11.4,0.4,23.1-0.9,34.3-3.9l-25.2-0.7
				C402.6,665,389.3,664.6,376.2,665.8z M410.7,673.7c-1.4,0-2.8,0-4.3-0.1c-14.1-0.5-28-3.6-41.5-6.5c-0.9-0.2-1.5-1-1.4-1.8
				c0-0.9,0.7-1.6,1.5-1.8c16.8-2.8,34.1-2.3,50.7-1.8l35.9,1c0.9,0,1.6,0.7,1.8,1.5c0.1,0.9-0.3,1.7-1.2,2
				C439,671.2,424.7,673.7,410.7,673.7z"/>
		</g>
	</g>
	<g>
		<g>
			<path class="st0" d="M434.3,673.7c-14.3,4.1-28.2,10.5-40.7,16.2c-11.3,5.2-23,10.6-33.3,17.8C386.2,699.2,411,687.8,434.3,673.7
				z M351.2,714.3c-0.7,0-1.3-0.4-1.6-1c-0.4-0.8-0.2-1.7,0.4-2.3c12.5-10.8,27.6-17.8,42.1-24.5c15.8-7.3,33.7-15.5,52.3-19.1
				c0.9-0.2,1.7,0.3,2,1.1c0.3,0.8,0,1.7-0.7,2.2c-29.1,18.9-60.8,33.5-94,43.4C351.5,714.3,351.4,714.3,351.2,714.3z"/>
		</g>
	</g>
	<g>
		<g>
			<path class="st0" d="M506.8,598c-0.1,0-0.1,0-0.2,0c-1,0-1.8-0.8-1.8-1.8c0-1,0.8-1.9,1.8-1.8c15.4,0,30.8-3.9,44.7-11.5
				c0.9-0.5,2-0.2,2.5,0.7c0.5,0.9,0.2,2-0.7,2.5C538.7,593.9,522.7,598,506.8,598z"/>
		</g>
	</g>
	<g>
		<g>
			<path class="st0" d="M541.7,635.3c0,0-0.1,0-0.1,0c-1-0.1-1.8-0.9-1.7-1.9c0.9-12.4,1.8-25.3,5.6-37.5c1.3-4.2,3-8.3,5-12.2
				c0.5-0.9,1.6-1.3,2.5-0.8c0.9,0.5,1.3,1.6,0.8,2.5c-1.9,3.7-3.5,7.6-4.8,11.6c-3.8,11.8-4.6,24.4-5.5,36.6
				C543.5,634.5,542.7,635.3,541.7,635.3z"/>
		</g>
	</g>
	<g>
		<g>
			<path class="st0" d="M511.4,596c0,3.7-1.8,5.5-5.5,5.5c-3.6,0-5.5-1.8-5.5-5.5s1.8-5.5,5.5-5.5
				C509.6,590.5,511.4,592.3,511.4,596z"/>
		</g>
	</g>
	<g>
		<g>
			<path class="st0" d="M547.1,633.6c0,3.7-1.8,5.5-5.5,5.5c-3.6,0-5.5-1.8-5.5-5.5c0-3.7,1.8-5.5,5.5-5.5
				C545.3,628.2,547.1,630,547.1,633.6z"/>
		</g>
	</g>
	<g>
		<g>
			<path class="st0" d="M541.9,593.9l-22.2,12c-11.4,6.2-23.1,12.5-33.9,20.1c9.7-3.2,19.4-6.8,28.4-11.6
				C524.3,609.1,533.7,602.1,541.9,593.9z M476.1,632.9c-0.7,0-1.3-0.4-1.6-1c-0.4-0.8-0.2-1.7,0.4-2.3c13.2-10.8,28.4-19,43-27
				l31.6-17.1c0.8-0.4,1.7-0.2,2.3,0.4c0.6,0.7,0.6,1.7,0,2.3c-9.9,12-22.4,22.1-36,29.3c-12.5,6.6-26.1,10.9-39.2,15.1
				C476.5,632.9,476.3,632.9,476.1,632.9z"/>
		</g>
	</g>
	<g>
		<g>
			<path class="st0" d="M540.1,603.8c-10.4,10.7-19.2,23.2-27.1,34.4c-7.2,10.2-14.6,20.7-20,32.1C511.2,650,527,627.7,540.1,603.8z
				 M487.5,680.9c-0.3,0-0.7-0.1-0.9-0.3c-0.7-0.4-1.1-1.3-0.8-2.2c5.4-15.7,15-29.2,24.2-42.3c10.1-14.2,21.4-30.4,35.7-42.7
				c0.7-0.6,1.6-0.6,2.3-0.1c0.7,0.5,0.9,1.5,0.5,2.3c-15.8,31-35.9,59.4-59.8,84.6C488.4,680.7,488,680.9,487.5,680.9z"/>
		</g>
	</g>
	<g>
		<g>
			<path class="st0" d="M564,502.3c-0.6,0-1.2-0.3-1.6-0.9c-0.5-0.9-0.2-2,0.7-2.5c13.3-7.7,24.7-18.8,33-32.4
				c0.5-0.9,1.6-1.1,2.5-0.6c0.9,0.5,1.1,1.7,0.6,2.5c-8.6,14-20.5,25.7-34.3,33.6C564.6,502.2,564.3,502.3,564,502.3z"/>
		</g>
	</g>
	<g>
		<g>
			<path class="st0" d="M613,517c-0.7,0-1.3-0.4-1.6-1c-5.5-11.2-11.1-22.7-13.8-35.3c-0.9-4.3-1.5-8.7-1.7-13.1
				c0-1,0.7-1.9,1.7-1.9c1,0,1.9,0.7,1.9,1.7c0.2,4.2,0.8,8.4,1.7,12.5c2.6,12.1,8.2,23.5,13.5,34.5c0.4,0.9,0.1,2-0.8,2.4
				C613.5,516.9,613.3,517,613,517z"/>
		</g>
	</g>
	<g>
		<g>
			<path class="st0" d="M568.8,500.6c0,3.7-1.8,5.5-5.5,5.5c-3.6,0-5.5-1.8-5.5-5.5s1.8-5.5,5.5-5.5
				C567,495.1,568.8,497,568.8,500.6z"/>
		</g>
	</g>
	<g>
		<g>
			<path class="st0" d="M618.6,515.3c0,3.7-1.8,5.5-5.5,5.5c-3.6,0-5.5-1.8-5.5-5.5s1.8-5.5,5.5-5.5
				C616.7,509.9,618.6,511.7,618.6,515.3z"/>
		</g>
	</g>
	<g>
		<g>
			<path class="st0" d="M593.4,480.8l-13.2,21.5c-6.8,11.1-13.8,22.5-19.3,34.4c6.8-7.6,13.4-15.6,18.8-24.2
				C585.8,502.8,590.5,492,593.4,480.8z M555,547.8c-0.3,0-0.7-0.1-1-0.3c-0.7-0.5-1.1-1.4-0.8-2.2c6-16,15.1-30.7,23.8-44.9
				l18.8-30.7c0.5-0.7,1.4-1.1,2.2-0.8c0.8,0.3,1.3,1.2,1.2,2c-2.6,15.4-8.3,30.4-16.5,43.4c-7.5,12-17.1,22.5-26.4,32.8
				C556,547.6,555.5,547.8,555,547.8z"/>
		</g>
	</g>
	<g>
		<g>
			<path class="st0" d="M596.8,490.3c-3.6,14.5-5,29.7-6.3,43.4c-1.1,12.4-2.3,25.2-1.3,37.8C594.8,544.8,597.4,517.6,596.8,490.3z
				 M588.8,583.6C588.8,583.6,588.8,583.6,588.8,583.6c-0.9,0-1.6-0.6-1.8-1.5c-3.1-16.3-1.6-32.8-0.1-48.8
				c1.6-17.4,3.4-37,9.6-54.9c0.3-0.8,1.1-1.3,2-1.2c0.9,0.1,1.5,0.8,1.6,1.7c1.8,34.7-1.4,69.5-9.5,103.2
				C590.4,583,589.6,583.6,588.8,583.6z"/>
		</g>
	</g>
	<g>
		<g>
			<path class="st0" d="M565.9,390.7c-0.3,0-0.6-0.1-0.9-0.2c-0.9-0.5-1.2-1.6-0.7-2.5c7.7-13.3,12-28.7,12.4-44.6
				c0-1,0.9-1.8,1.9-1.8c1,0,1.8,0.9,1.8,1.9c-0.5,16.5-4.9,32.5-12.9,46.3C567.1,390.3,566.5,390.7,565.9,390.7z"/>
		</g>
	</g>
	<g>
		<g>
			<path class="st0" d="M615.7,378.8c-0.4,0-0.7-0.1-1-0.3c-10.3-7-21-14.2-29.6-23.6c-2.9-3.3-5.6-6.8-8-10.5
				c-0.5-0.8-0.3-2,0.5-2.5c0.8-0.5,2-0.3,2.5,0.5c2.3,3.5,4.8,6.9,7.7,10c8.3,9.2,18.8,16.2,28.9,23.1c0.8,0.6,1.1,1.7,0.5,2.5
				C616.9,378.5,616.3,378.8,615.7,378.8z"/>
		</g>
	</g>
	<g>
		<g>
			<ellipse class="st0" cx="565.4" cy="389.3" rx="5.5" ry="5.5"/>
		</g>
	</g>
	<g>
		<g>
			<path class="st0" d="M621.3,377.1c0,3.7-1.8,5.5-5.5,5.5s-5.5-1.8-5.5-5.5s1.8-5.5,5.5-5.5S621.3,373.5,621.3,377.1z"/>
		</g>
	</g>
	<g>
		<g>
			<path class="st0" d="M581.6,357.1l-0.7,25.2c-0.4,13-0.7,26.3,0.4,39.5c2.1-10,3.8-20.2,4.2-30.4
				C586,379.9,584.6,368.3,581.6,357.1z M580.9,434.5C580.9,434.5,580.9,434.5,580.9,434.5c-0.9,0-1.7-0.7-1.8-1.5
				c-2.8-16.9-2.3-34.1-1.8-50.8l1-36c0-0.9,0.7-1.6,1.5-1.8c0.9-0.1,1.7,0.3,2,1.2c5.4,14.6,8,30.5,7.4,45.9
				c-0.5,14.1-3.6,28.1-6.5,41.6C582.5,433.9,581.7,434.5,580.9,434.5z"/>
		</g>
	</g>
	<g>
		<g>
			<path class="st0" d="M589.3,363.6c4.1,14.3,10.5,28.2,16.2,40.7c5.2,11.3,10.6,23,17.8,33.4C614.8,411.8,603.4,386.9,589.3,363.6
				z M628,448.6c-0.5,0-1-0.2-1.4-0.6c-10.8-12.5-17.8-27.6-24.4-42.2c-7.3-15.8-15.5-33.8-19.1-52.4c-0.2-0.9,0.3-1.7,1.1-2
				c0.8-0.3,1.7,0,2.2,0.7c18.9,29.2,33.4,60.9,43.3,94.2c0.2,0.8-0.1,1.7-0.9,2.1C628.6,448.6,628.3,448.6,628,448.6z"/>
		</g>
	</g>
	<g>
		<g>
			<path class="st0" d="M511.9,293C511.9,293,511.9,293,511.9,293c-1,0-1.8-0.8-1.8-1.8c0-15.4-3.9-30.9-11.5-44.8
				c-0.5-0.9-0.2-2,0.7-2.5c0.9-0.5,2-0.2,2.5,0.7c7.8,14.5,11.9,30.6,11.9,46.6C513.7,292.2,512.9,293,511.9,293z"/>
		</g>
	</g>
	<g>
		<g>
			<path class="st0" d="M549.1,257.8c0,0-0.1,0-0.1,0c-12.4-0.9-25.2-1.8-37.4-5.7c-4.2-1.3-8.3-3-12.2-5c-0.9-0.5-1.3-1.6-0.8-2.5
				c0.5-0.9,1.6-1.3,2.5-0.8c3.7,1.9,7.6,3.5,11.6,4.8c11.8,3.8,24.4,4.6,36.6,5.5c1,0.1,1.8,0.9,1.7,1.9
				C550.8,257.1,550,257.8,549.1,257.8z"/>
		</g>
	</g>
	<g>
		<g>
			<path class="st0" d="M517.1,291.8c0,3.7-1.8,5.5-5.5,5.5c-3.6,0-5.5-1.8-5.5-5.5c0-3.7,1.8-5.5,5.5-5.5
				C515.3,286.3,517.1,288.2,517.1,291.8z"/>
		</g>
	</g>
	<g>
		<g>
			<path class="st0" d="M554.7,256c0,3.7-1.8,5.5-5.5,5.5c-3.6,0-5.5-1.8-5.5-5.5c0-3.7,1.8-5.5,5.5-5.5
				C552.9,250.5,554.7,252.4,554.7,256z"/>
		</g>
	</g>
	<g>
		<g>
			<path class="st0" d="M509.6,255.8l12,22.2c6.2,11.4,12.5,23.2,20.1,34c-3.2-9.7-6.8-19.4-11.6-28.4
				C524.8,273.4,517.8,264,509.6,255.8z M546.7,323.5c-0.5,0-1.1-0.2-1.4-0.7c-10.8-13.2-19-28.4-26.9-43.1l-17.1-31.7
				c-0.4-0.8-0.2-1.7,0.4-2.3c0.7-0.6,1.6-0.6,2.3,0c12,9.9,22.1,22.4,29.3,36c6.6,12.5,10.9,26.1,15.1,39.3
				c0.3,0.8-0.1,1.7-0.9,2.2C547.3,323.4,547,323.5,546.7,323.5z"/>
		</g>
	</g>
	<g>
		<g>
			<path class="st0" d="M519.5,257.6c10.7,10.4,23.1,19.2,34.4,27.2c10.2,7.2,20.6,14.6,32,20C565.6,286.6,543.4,270.8,519.5,257.6z
				 M594.6,312.1c-0.2,0-0.4,0-0.6-0.1c-15.6-5.4-29.2-15-42.2-24.3c-14.2-10.1-30.3-21.5-42.6-35.8c-0.6-0.7-0.6-1.6-0.1-2.3
				c0.5-0.7,1.5-0.9,2.3-0.5c30.9,15.8,59.3,36,84.5,59.9c0.6,0.6,0.7,1.5,0.3,2.3C595.8,311.8,595.2,312.1,594.6,312.1z"/>
		</g>
	</g>
	<g>
		<g>
			<path class="st0" d="M416.3,235.5c-0.6,0-1.2-0.3-1.6-0.9c-7.6-13.3-18.8-24.8-32.3-33.1c-0.9-0.5-1.1-1.7-0.6-2.5
				c0.5-0.9,1.6-1.1,2.5-0.6c14,8.6,25.6,20.5,33.6,34.4c0.5,0.9,0.2,2-0.7,2.5C416.9,235.4,416.6,235.5,416.3,235.5z"/>
		</g>
	</g>
	<g>
		<g>
			<path class="st0" d="M383.4,201.8c-1,0-1.8-0.8-1.8-1.7c0-1,0.7-1.9,1.7-1.9c4.2-0.2,8.4-0.8,12.5-1.7
				c12.1-2.6,23.4-8.2,34.4-13.6c0.9-0.4,2-0.1,2.4,0.8c0.4,0.9,0.1,2-0.8,2.4c-11.2,5.5-22.7,11.1-35.2,13.8
				c-4.3,0.9-8.7,1.5-13,1.7C383.4,201.8,383.4,201.8,383.4,201.8z"/>
		</g>
	</g>
	<g>
		<g>
			<path class="st0" d="M421.9,234.3c0,3.7-1.8,5.5-5.5,5.5c-3.6,0-5.5-1.8-5.5-5.5s1.8-5.5,5.5-5.5
				C420.1,228.8,421.9,230.7,421.9,234.3z"/>
		</g>
	</g>
	<g>
		<g>
			<path class="st0" d="M436.6,184.5c0,3.7-1.8,5.5-5.5,5.5c-3.6,0-5.5-1.8-5.5-5.5c0-3.7,1.8-5.5,5.5-5.5
				C434.8,179,436.6,180.8,436.6,184.5z"/>
		</g>
	</g>
	<g>
		<g>
			<path class="st0" d="M396.7,204.2l21.5,13.2c11.1,6.8,22.4,13.8,34.4,19.4c-7.6-6.8-15.6-13.4-24.2-18.8
				C418.7,211.8,407.9,207.1,396.7,204.2z M461.7,244.4c-0.2,0-0.4,0-0.6-0.1c-16-6-30.6-15.1-44.8-23.8l-30.6-18.9
				c-0.7-0.5-1.1-1.4-0.8-2.2c0.3-0.8,1.2-1.3,2-1.2c15.3,2.6,30.3,8.3,43.4,16.5c12,7.5,22.5,17.1,32.7,26.5
				c0.6,0.6,0.8,1.6,0.3,2.3C463,244.1,462.4,244.4,461.7,244.4z"/>
		</g>
	</g>
	<g>
		<g>
			<path class="st0" d="M406.2,200.8c14.4,3.6,29.6,5,43.3,6.3c12.4,1.2,25.2,2.3,37.7,1.3C460.6,202.8,433.4,200.2,406.2,200.8z
				 M476.9,212.4c-9.3,0-18.6-0.9-27.7-1.7c-17.3-1.6-37-3.4-54.8-9.7c-0.8-0.3-1.3-1.1-1.2-2c0.1-0.9,0.8-1.5,1.7-1.6
				c34.7-1.8,69.4,1.4,103.1,9.5c0.8,0.2,1.4,1,1.4,1.8c0,0.9-0.6,1.6-1.5,1.8C490.9,211.9,483.9,212.4,476.9,212.4z"/>
		</g>
	</g>
	<g>
		<g>
			<path class="st0" d="M304.9,233.6c-0.3,0-0.6-0.1-0.9-0.2c-13.3-7.7-28.6-12-44.5-12.5c-1,0-1.8-0.9-1.8-1.9c0-1,0.9-1.8,1.9-1.8
				c16.4,0.5,32.4,4.9,46.2,13c0.9,0.5,1.2,1.6,0.7,2.5C306.1,233.2,305.5,233.6,304.9,233.6z"/>
		</g>
	</g>
	<g>
		<g>
			<path class="st0" d="M259.5,220.9c-0.6,0-1.2-0.3-1.5-0.8c-0.5-0.8-0.3-2,0.5-2.5c3.5-2.3,6.9-4.9,10-7.7
				c9.2-8.3,16.2-18.8,23-29c0.6-0.8,1.7-1.1,2.5-0.5c0.8,0.6,1.1,1.7,0.5,2.5c-6.9,10.3-14.1,21-23.6,29.6c-3.2,3-6.8,5.7-10.4,8
				C260.2,220.8,259.9,220.9,259.5,220.9z"/>
		</g>
	</g>
	<g>
		<g>
			<path class="st0" d="M310.8,232.2c0,3.7-1.8,5.5-5.5,5.5c-3.6,0-5.5-1.8-5.5-5.5c0-3.7,1.8-5.5,5.5-5.5
				C309,226.7,310.8,228.6,310.8,232.2z"/>
		</g>
	</g>
	<g>
		<g>
			<path class="st0" d="M298.6,181.7c0,3.7-1.8,5.5-5.5,5.5c-3.6,0-5.5-1.8-5.5-5.5s1.8-5.5,5.5-5.5
				C296.8,176.2,298.6,178,298.6,181.7z"/>
		</g>
	</g>
	<g>
		<g>
			<path class="st0" d="M273.2,216l25.2,0.7c13,0.4,26.3,0.7,39.4-0.4c-10-2.1-20.2-3.8-30.4-4.2C296,211.6,284.3,213,273.2,216z
				 M317.6,220.7c-6.5,0-12.9-0.2-19.3-0.4l-35.9-1c-0.9,0-1.6-0.7-1.8-1.5c-0.1-0.9,0.3-1.7,1.2-2c14.6-5.4,30.4-8,45.8-7.4
				c14.1,0.5,28,3.6,41.5,6.5c0.9,0.2,1.5,1,1.4,1.8c0,0.9-0.7,1.6-1.5,1.8C338.6,220.2,328,220.7,317.6,220.7z"/>
		</g>
	</g>
	<g>
		<g>
			<path class="st0" d="M353.6,174.3c-25.9,8.5-50.7,19.9-74,34c14.3-4.1,28.2-10.5,40.7-16.2C331.6,186.9,343.3,181.5,353.6,174.3z
				 M269.2,214.5c-0.7,0-1.4-0.4-1.7-1.1c-0.3-0.8,0-1.7,0.7-2.2c29.1-18.9,60.8-33.5,94-43.4c0.8-0.2,1.7,0.1,2.1,0.9
				c0.4,0.7,0.2,1.7-0.4,2.3c-12.5,10.8-27.6,17.8-42.1,24.5c-15.8,7.3-33.7,15.5-52.3,19.1C269.5,214.5,269.3,214.5,269.2,214.5z"
				/>
		</g>
	</g>
	<g>
		<g>
			<path class="st0" d="M161.8,299.4c-0.7,0-1.3-0.3-1.6-1c-0.5-0.9-0.2-2,0.7-2.5c14.5-7.8,30.5-11.9,46.5-11.9
				c1,0,1.8,0.8,1.8,1.8c0,1-0.8,1.8-1.8,1.8c-0.1,0-0.1,0-0.2,0c-15.3,0-30.7,4-44.5,11.5C162.4,299.3,162.1,299.4,161.8,299.4z"/>
		</g>
	</g>
	<g>
		<g>
			<path class="st0" d="M161.8,299.4c-0.3,0-0.6-0.1-0.8-0.2c-0.9-0.5-1.3-1.6-0.8-2.5c1.9-3.7,3.5-7.6,4.8-11.6
				c3.8-11.8,4.6-24.4,5.5-36.6c0.1-1,1-1.8,1.9-1.7c1,0.1,1.8,0.9,1.7,1.9c-0.9,12.4-1.8,25.3-5.6,37.5c-1.3,4.2-3,8.3-5,12.2
				C163.1,299,162.4,299.4,161.8,299.4z"/>
		</g>
	</g>
	<g>
		<g>
			<path class="st0" d="M213.5,286.1c0,3.7-1.8,5.5-5.5,5.5c-3.6,0-5.5-1.8-5.5-5.5s1.8-5.5,5.5-5.5
				C211.7,280.6,213.5,282.4,213.5,286.1z"/>
		</g>
	</g>
	<g>
		<g>
			<path class="st0" d="M177.7,248.4c0,3.7-1.8,5.5-5.5,5.5s-5.5-1.8-5.5-5.5c0-3.7,1.8-5.5,5.5-5.5S177.7,244.7,177.7,248.4z"/>
		</g>
	</g>
	<g>
		<g>
			<path class="st0" d="M198.9,265.9 M228.1,256c-9.7,3.2-19.4,6.8-28.4,11.6c-10.1,5.3-19.5,12.4-27.7,20.6l22.2-12
				C205.6,269.9,217.4,263.6,228.1,256z M163.5,296.7c-0.5,0-1.1-0.2-1.4-0.7c-0.6-0.7-0.6-1.7,0-2.3c9.9-12,22.4-22.1,36-29.3
				c12.5-6.6,26.1-10.9,39.2-15.1c0.8-0.3,1.7,0.1,2.2,0.9c0.4,0.8,0.2,1.7-0.4,2.3c-13.2,10.8-28.4,19-43,27l-31.6,17.1
				C164.1,296.6,163.8,296.7,163.5,296.7z"/>
		</g>
	</g>
	<g>
		<g>
			<path class="st0" d="M220.9,211.7c-18.2,20.3-33.9,42.6-47.1,66.5c10.4-10.7,19.2-23.2,27.1-34.4
				C208.2,233.6,215.6,223.1,220.9,211.7z M167,289c-0.4,0-0.8-0.1-1.1-0.4c-0.7-0.5-0.9-1.5-0.5-2.3c15.8-31,35.9-59.4,59.8-84.6
				c0.6-0.6,1.5-0.7,2.3-0.3c0.7,0.4,1.1,1.3,0.8,2.2c-5.4,15.7-15,29.2-24.2,42.3c-10.1,14.2-21.4,30.4-35.7,42.7
				C167.9,288.9,167.4,289,167,289z"/>
		</g>
	</g>
	<g>
		<g>
			<path class="st0" d="M116.3,416.4c-0.3,0-0.7-0.1-1-0.3c-0.9-0.5-1.1-1.7-0.6-2.5c8.6-14,20.5-25.7,34.3-33.6
				c0.9-0.5,2-0.2,2.5,0.7c0.5,0.9,0.2,2-0.7,2.5c-13.3,7.7-24.7,18.8-33,32.4C117.5,416.1,116.9,416.4,116.3,416.4z"/>
		</g>
	</g>
	<g>
		<g>
			<path class="st0" d="M116.3,416.4c-1,0-1.8-0.8-1.8-1.7c-0.2-4.2-0.8-8.4-1.7-12.5c-2.6-12.1-8.2-23.5-13.5-34.5
				c-0.4-0.9-0.1-2,0.8-2.4c0.9-0.4,2-0.1,2.4,0.8c5.5,11.2,11.1,22.7,13.8,35.3c0.9,4.3,1.5,8.7,1.7,13.1
				C118.2,415.5,117.4,416.3,116.3,416.4C116.4,416.4,116.3,416.4,116.3,416.4z"/>
		</g>
	</g>
	<g>
		<g>
			<path class="st0" d="M156.1,381.4c0,3.7-1.8,5.5-5.5,5.5s-5.5-1.8-5.5-5.5c0-3.7,1.8-5.5,5.5-5.5S156.1,377.8,156.1,381.4z"/>
		</g>
	</g>
	<g>
		<g>
			<path class="st0" d="M106.3,366.7c0,3.7-1.8,5.5-5.5,5.5c-3.6,0-5.5-1.8-5.5-5.5s1.8-5.5,5.5-5.5
				C104.5,361.2,106.3,363.1,106.3,366.7z"/>
		</g>
	</g>
	<g>
		<g>
			<path class="st0" d="M132.7,368.6 M153,345.3c-6.8,7.6-13.4,15.6-18.8,24.2c-6.1,9.7-10.7,20.5-13.7,31.7l13.2-21.5
				C140.5,368.6,147.5,357.3,153,345.3z M116.4,413.2c-0.2,0-0.4,0-0.6-0.1c-0.8-0.3-1.3-1.2-1.2-2c2.6-15.4,8.3-30.4,16.5-43.4
				c7.5-12,17.1-22.5,26.4-32.8c0.6-0.6,1.6-0.8,2.3-0.3c0.7,0.5,1.1,1.4,0.8,2.2c-6,16-15.1,30.7-23.8,44.9L118,412.3
				C117.6,412.8,117,413.2,116.4,413.2z"/>
		</g>
	</g>
	<g>
		<g>
			<path class="st0" d="M124.7,310.6c-5.6,26.7-8.1,53.9-7.6,81.2c3.6-14.5,5-29.7,6.3-43.4C124.6,335.9,125.8,323.1,124.7,310.6z
				 M115.7,404.8c-0.1,0-0.2,0-0.3,0c-0.9-0.1-1.5-0.8-1.6-1.7c-1.8-34.7,1.4-69.5,9.5-103.2c0.2-0.8,0.9-1.4,1.8-1.4c0,0,0,0,0,0
				c0.9,0,1.6,0.6,1.8,1.5c3.1,16.3,1.6,32.8,0.1,48.8c-1.6,17.4-3.4,37-9.6,54.9C117.2,404.3,116.5,404.8,115.7,404.8z"/>
		</g>
	</g>
</g>
<g>
	<g>
		<g>
			<g>
				<path class="st0" d="M262.4,284.5v62.7h11.4c1-3.6,2.7-8.1,5.2-13.6c2.5-5.5,5.4-10.7,8.6-15.5c3.3-4.9,6.8-9.2,10.7-13.1
					c3.8-3.8,7.6-6,11.1-6.4c4.6-0.5,9.3-0.9,14.3-1.1c5-0.2,9.2-0.2,12.5-0.2h9.4v71.6h34.7v-71.6h9.5c4.3,0,9.1,0.1,14.2,0.3
					c5.1,0.2,9.4,0.5,12.7,1c3.6,0.5,7.3,2.7,11.2,6.4c3.9,3.7,7.4,8.1,10.7,13.1c3.2,4.8,6,9.8,8.6,15.2c2.6,5.4,4.3,10,5.3,13.9
					h11.2v-62.7H262.4z M390.6,498.7c-3.8-1.6-6.5-3.9-8-6.9c-1.5-3-2.3-6.3-2.3-9.8v-48h-34.7v49.5c0,4.5-0.8,8-2.5,10.7
					c-1.7,2.7-4.3,4.7-7.9,6.1c-2.4,1-6.7,1.8-12.9,2.4c-6.2,0.7-10.9,1.1-13.9,1.3v11.6h109v-11.6c-3.5-0.1-8.3-0.8-14.6-2.1
					C396.7,500.5,392.6,499.5,390.6,498.7z"/>
			</g>
		</g>
	</g>
	<g>
		<g>
			<g>
				<g>
					<rect x="260.6" y="368.8" class="st0" width="204.9" height="3.7"/>
				</g>
			</g>
		</g>
		<g>
			<g>
				<g>
					<rect x="260.6" y="430.4" class="st0" width="204.9" height="3.7"/>
				</g>
			</g>
		</g>
	</g>
</g>
<g>
	<path class="st0" d="M265.5,562.7c0.4-0.9,3.6-0.7,3.1,0.4c-1.7,4.4-3.8,8.6-7.1,12.1c-3,3.2-9.3,3.9-12-0.3
		c-1.2-1.9-1.7-5-1.8-7.1c-0.1-2.7,0.1-5.4,0.4-8.1c0.3-2.6,0.5-5.2,0.7-7.8c0.1-1,0.2-2.1,0.1-3.2c-0.6,0.8-1.2,1.7-1.4,2
		c-0.6,0.9-1.1,1.9-1.6,2.8c-1,1.9-1.8,3.9-2.6,6c-1.7,4.4-3.5,8.9-5.1,13.3c-0.1,0.9-0.2,1.8-0.2,2.7c-0.1,1.5-4.6,1.6-5,0.3
		c-0.1-0.3-0.2-0.6-0.3-0.8c-0.9,3.5-2.2,6.8-4.1,9.9c-1.6,2.6-3.6,4.9-6.6,5.5c-0.3,0.1-0.5,0.1-0.8,0.1c0,0.1-0.1,0.1-0.2,0
		c-2.9,0.3-5.8-0.8-7.9-2.8c-2.9-2.7-3.8-6.3-4.6-10.1c-0.8-3.9-1-8-1.2-12c-0.3-7.7-0.2-15.5,0.1-23.2c0.2-4.3,0.4-8.6,0.8-12.9
		c0.2-1.7,0.2-3.5,0.3-5.4c-0.6-0.2-1.2-0.3-1.8-0.5c-3.2-0.8-6.4-1.5-9.7-1.8c-3.1-0.3-6.6-0.2-8.8,2.2c-1.7,1.8-2.6,4.7-1,6.8
		c2.3,3,5.7,1.4,7.9-0.7c0.7-0.7,3.9-0.2,2.9,0.8c-2.4,2.2-5.7,3.4-9,2.8c-2.7-0.5-5.3-2.3-5.5-5.2c-0.5-6.5,7.4-8.3,12.3-8.1
		c4.4,0.2,8.7,1,12.9,2.2c0.2-2.2,0.5-4.5,1.2-6.5c0.5-1.4,3.6-1.5,4.8-1.4h3.6c0.9,0,1.6,0.8,1.5,1.7c-0.2,1.9-0.7,5.2-1.1,9.3
		c5.5,1.9,11,3.9,16.6,5.3c2.2-5.3,5.6-9.9,10.6-13c6.8-4.1,17.1-4.6,22.9,1.4c5.8,6.1,3.1,15.2-3.6,19.5
		c-7.5,4.8-16.7,3.7-25.1,2.2c-0.5,2.7-0.8,5.5-1,8.2c-0.4,4.4-0.6,8.8-0.6,13.1c0,0.4,0,0.9,0,1.3c1.2-3.1,2.4-6.1,3.7-9.1
		c1.1-2.4,2.3-4.7,4.1-6.6c0.8-0.9,1.8-1.6,3-1.8c0,0,0.2,0,0.3-0.1c0.2-0.1,0.5-0.1,0.6-0.1c0.6-0.1,1.3-0.1,2-0.1
		c6.5,0.6,5.8,9,5.5,13.8c-0.2,3-0.6,6-0.9,9c-0.1,1.5-0.4,3-0.3,4.6c0,0.5,0.1,0.9,0.2,1.4c0,0.1,0.1,0.4,0.2,0.8
		c0.1-0.1,0.2-0.1,0.3-0.2c0.2-0.2,0.5-0.3,0.7-0.5c0.6-0.5,1.3-1.1,1.8-1.8c0.8-1,1.5-2,2.2-3.1
		C263.3,567.6,264.5,565.2,265.5,562.7L265.5,562.7z M232.4,541.1c0.5-2.9,1.3-5.9,2.3-8.7c-5.5-1.3-10.8-3.2-16.2-5.1
		c-2.2,19.4-5.2,54.6,0.5,60.3c0.1,0.1,0.1,0.1,0.2,0.2c1,1,2,1,3.2,0.1c2.5-1.7,4.1-4.6,5.3-7.3c1.8-3.9,2.8-8.1,3.5-12.4
		c0-0.3-0.1-0.6-0.1-1c-0.3-2.9-0.4-5.9-0.4-8.8C230.6,552.7,231.3,546.9,232.4,541.1L232.4,541.1z M240.4,539.8
		c8.5,1.5,19.1,3,25.5-4.3c2.3-2.6,3.6-6.1,3.1-9.6c-0.5-3.5-2.9-6.6-6-8.2c-7.1-3.8-14,1.8-17.6,7.7c-1.3,2.2-2.3,4.5-3.1,6.8
		c6,0.9,12.9,0.9,17.6-3c0.7-0.6,3.9-0.1,2.9,0.8c-4.9,4.1-12,4.4-18.1,3.9c-0.9-0.1-1.9-0.2-2.8-0.3
		C241.2,535.7,240.7,537.8,240.4,539.8z"/>
	<path class="st0" d="M286.3,562.2c0.4-0.9,3.4-0.7,3,0.4c-2.4,6.2-7.6,13.9-15,14.3c-3.3,0.2-6.4-1.2-8.7-3.6
		c-2.3-2.4-3.4-6.3-3.8-9.5c-0.9-6.6,2.8-14,8.9-16.9c2.9-1.3,6.9-1.9,9.7-0.2c2.3,1.4,3.9,3.5,2.9,6.3c-0.9,2.7-3.8,4.4-6.3,5.4
		c-2,0.8-4.1,1.2-6.2,1.4c-0.4,2.4-0.5,4.9-0.3,7.4c0.2,2.1,0.5,4.5,1.6,6.3c1.5,2.5,4,1.2,5.9-0.2
		C281.9,570.5,284.6,566.5,286.3,562.2L286.3,562.2z M271.2,558.6c4.4-0.6,10-2.9,9.4-7.6c-0.1-1.1-0.9-2.5-2.1-2.7
		c-0.5-0.1-1.1,0.3-1.7,0.8c-1.6,1.3-2.9,2.9-3.8,4.7C272.2,555.3,271.6,556.9,271.2,558.6z"/>
	<path class="st0" d="M347,561.8c0.3,0.1,1.1,0.5,0.5,0.9c-6.1,3.8-13.3,5.4-20.3,4.8c3.8,3.5,7.1,7.7,7.9,12.9
		c0.8,5.1-1.4,12.1-7.7,11.7c-5.4-0.4-7.7-6.3-8.9-10.8c-1.6-5.8-2-12.2-2.1-18.2c-0.2-10.4,1.2-25.4,12.6-29.8
		c4.4-1.7,10.4-1.9,14.3,1.3c3.3,2.8,4.6,7.5,3.6,11.6c-2.3,9.7-13,15.2-22.3,16.3c0,1,0,2,0,3c0,0,0,0,0,0c0.1,0,0.2,0,0.3,0.1
		c0.2,0,0.4,0,0.5,0.1c6.9,1.3,13.9-0.1,19.9-3.8C345.6,561.7,346.4,561.6,347,561.8L347,561.8z M330.7,577
		c-1.3-3.5-3.7-6.4-6.4-8.9c0,4,0,8.1,0.3,12.1c0.2,2.3,0.4,4.6,1.2,6.8c0.3,0.8,0.7,1.7,1.2,2.4c0.8,0.9,1.2,1.1,2.1,0.3
		C332.5,586.6,332.2,580.8,330.7,577L330.7,577z M324.4,561.2c8.6-1.4,18.7-7.4,19.4-16.8c0.3-3.6-1.1-7.6-4.2-9.6
		c-3.9-2.5-7.8,0.1-10.1,3.4c-2.5,3.7-3.6,8-4.2,12.3C324.8,554.1,324.5,557.7,324.4,561.2z"/>
	<path class="st0" d="M377.4,560.6c0.3-0.9,3.5-0.6,3.3,0.2c-1.8,6.4-7.2,20.6-16.4,16.5c-4.9-2.2-5.9-8.1-6.4-12.9
		c-0.2-1.9-0.2-3.8-0.1-5.8c-0.9,2.7-1.8,5.4-2.8,8.1c-1.3,3.5-3.3,10-8.3,7.9c-4.3-1.8-4.9-8.9-4.4-12.9c0.6-4.8,2.5-9.5,6.1-12.8
		c2-1.9,5-2.9,7.8-2.3c1,0.2,1.8,0.7,2.6,1.4c0.2-0.1,0.5-0.1,0.8-0.1c0.9-0.9,2.7-1,3.8-1c1,0,3.7,0.2,4.1,1.4
		c0.8,2.2,0.4,4.5,0.3,6.8c-0.1,2.1-0.2,4.2-0.3,6.3c-0.2,4.1-0.3,8.1-0.1,12.2c0,0.4-0.1,2.2,0.4,2.4c0.2,0.1,1.3-0.9,1.6-1.1
		c1.3-1.2,2.5-2.5,3.5-4C375,567.6,376.3,564.1,377.4,560.6L377.4,560.6z M353.5,561.8c1.3-3.8,2.6-7.5,3.9-11.3
		c-0.1,0-0.1-0.1-0.2-0.1c-0.1-0.2-0.6-0.6-1-0.9c-0.7,0.7-1.4,1.4-2,2.1c-1.5,1.9-2.5,4.1-3.3,6.4c-0.9,2.7-1.4,5.7-1.7,8.6
		c-0.1,1.3-0.8,4-0.3,5.8c0,0,0.1-0.1,0.1-0.1c0.3-0.5,0.6-0.9,0.9-1.4c0.5-0.9,0.9-1.9,1.3-2.8
		C352.1,565.9,352.8,563.8,353.5,561.8L353.5,561.8z"/>
	<path class="st0" d="M420.6,561.4c0.3-0.9,3.3-0.7,3,0.4c-1.6,5-3.4,10.7-7.3,14.5c-1.8,1.8-4.3,2.4-6.9,1.7
		c-2.5-0.7-4.1-2.5-5-4.9c-2-5.4-1.1-10.8-0.8-16.4c0.1-1.4,0.2-2.7,0.1-4.1c0-0.4,0-0.8-0.1-1.3c-0.2,0.3-0.5,0.7-0.7,1
		c-0.7,1.1-1.2,2.2-1.6,3.4c-2,5.1-3.3,10.6-4.6,15.9c0,0.8-0.2,1.5-0.5,2.2c-0.9,1.8-5.6,1.4-6.6,0c-1-1.3-0.7-3-0.6-4.5
		c0.1-1.5,0.3-2.9,0.4-4.4c0.1-1.4,0.3-2.9,0.3-4.3c0-0.7,0.1-1.3,0.2-1.9c0.1-0.9-0.2-1.1-1.1-0.6c-1.1,0.6-1.9,2.4-2.5,3.4
		c-0.6,1.3-1.1,2.7-1.6,4.1c-0.2,0.5-0.3,1-0.5,1.5c-0.2,2.9-0.6,5.7-2,8.3c-0.5,1.1-3.7,1-4.2,0c-1.8-3.3-2.2-7.1-2.3-10.9
		c0-1.9,0-3.7,0-5.6c0-1.7-0.1-3.9,0.8-5.4c0.9-1.8,6.5-1.9,7.3,0c0.8,1.7,0.6,3.9,0.5,5.7c0,0,0,0.1,0,0.1c1.1-1.7,2.6-3,4.7-3.2
		c3.2-0.3,6.1,2,7.2,4.9c0.6-2.3,1.2-4.6,2.2-6.8c0.9-2.1,2.1-4.1,3.9-5.5c2.1-1.5,5.5-1.4,7.7,0c2.2,1.4,2.9,4,3.4,6.4
		c0.5,2.7,0.4,5.5,0.3,8.3c-0.1,2.7-0.3,5.5-0.3,8.2c0,0.9,0,2,0.2,2.9C417.3,571.2,419,566,420.6,561.4L420.6,561.4z M404.9,550.1
		c0,0-0.1,0-0.1,0.1C404.9,550.2,404.9,550.2,404.9,550.1z"/>
	<path class="st0" d="M425.5,546.2c-4.7-0.1-6.6-5.5-7.6-9.4c-0.2-0.6,0.9-1.2,1.3-1.4c0.2-0.1,0.4-0.2,0.5-0.3c1-0.5,3.6-0.8,4.9,0
		c0.9,0.3,1.6,0.7,2.1,1.7c0.3,0.8,0.5,1.7,0.8,2.6c0.3-0.6,0.6-1.2,0.9-1.8c0.6-1.2,5-0.9,4.4,0.5c-0.8,2-1.8,3.9-2.9,5.6
		C428.8,545.5,427.5,546.2,425.5,546.2L425.5,546.2z M441.7,560.8c-1.8,6.4-7.2,20.6-16.4,16.5c-4.9-2.2-5.9-8.1-6.4-12.9
		c-0.2-2.7-0.2-5.5,0-8.2c0.2-2.6,0.1-5.7,1.4-8c0.7-1.2,2.9-1.4,4.1-1.4c1,0,3.7,0.2,4.1,1.4c0.8,2.2,0.4,4.5,0.3,6.8
		c-0.1,2.1-0.2,4.2-0.3,6.3c-0.2,4.1-0.3,8.1-0.1,12.2c0,0.4-0.1,2.2,0.4,2.4c0.2,0.1,1.3-0.9,1.6-1.1c1.3-1.2,2.5-2.5,3.5-4
		c2-3.1,3.3-6.6,4.4-10.1C438.7,559.7,441.9,560,441.7,560.8z"/>
	<path class="st0" d="M474.8,519.3c5.8,6.1,3.1,15.2-3.6,19.5c-7.5,4.8-16.7,3.7-25.1,2.2c-0.4,2.6-1.1,10-1.1,11.1
		c-0.1,2.2-0.3,4.4-0.4,6.6c-0.1,4.1-0.2,8.1,0.2,12.2c0.1,1.3,0.2,4.5,1.8,5.1c1.4,0.6,3.9-2.2,4.7-3.2c2.3-2.7,3.6-6,4.7-9.3
		c0.3-0.9,3.3-0.7,2.9,0.4c-1.4,4.1-3.2,8.3-6.4,11.3c-2.8,2.5-6.7,3.6-9.8,1.5c-0.5-0.3-0.9-0.7-1.3-1.1c-3.4-3.6-4.4-9.3-4.6-14.1
		c-0.1-2.6-0.2-5.7-0.1-8.4c0-0.1,0-0.3,0-0.4c0-0.2,0-0.3,0-0.5c0.3-3.6,0.8-7.3,1.5-10.9c1.6-9.1,5.3-18.3,13.6-23.2
		C458.7,513.8,469,513.3,474.8,519.3L474.8,519.3z M471.8,535.6c2.3-2.6,3.6-6.1,3.1-9.6c-0.5-3.5-2.9-6.6-6-8.2
		c-7.1-3.8-14,1.8-17.6,7.7c-2.6,4.4-4.1,9.3-5,14.4C454.9,541.3,465.5,542.8,471.8,535.6L471.8,535.6z"/>
	<path class="st0" d="M497.2,562.4c0.1-1.1,3.4-1,3.3,0c-0.9,8.8-8.2,13.7-15.9,16.8c-0.3,4.2-0.7,8.5-1.3,12.6
		c-1.5,10.6-6,24.2-17.7,27c-5.3,1.3-12.1,0.6-15-4.6c-2.4-4.2-2.6-9.7-1.4-14.4c1.3-5.1,4.4-9.4,8.7-12.4c4.4-3.1,9.6-4.8,14.7-6.3
		c0.7-0.2,1.4-0.4,2.1-0.6c0.3-4.6,0.5-9.2,0.7-13.8c0.1-1.8,0.1-3.7,0.1-5.5c-0.7,1.6-1.4,3.3-2.2,4.8c-2,4.2-4.2,9.7-9.6,9.7
		c-5.4,0-8.1-5.4-8.9-10c-0.5-2.8-0.6-5.7-0.7-8.5c0-2.8-0.1-6.7,1.4-9.2c0.7-1.1,2.6-1.3,3.8-1.3c1,0,3.4,0.2,3.8,1.3
		c0.9,2.2,0.5,4.9,0.4,7.3c0,2.4-0.3,4.8-0.5,7.1c-0.2,2.3-0.3,4.5-0.1,6.7c0,1-0.2,4.6,1.4,4.6c0.9,0,2-1.7,2.5-2.3
		c0.6-0.9,1.2-1.7,1.7-2.7c1.2-2.1,2.2-4.2,3.2-6.3c1.4-3.2,2.7-6.5,3.8-9.8c0-1.3-0.1-2.6,0.2-3.9c0.3-1.3,1.9-1.6,3-1.8
		c1.6-0.2,3.2,0,4.6,0.8c0.1,0.1,0.3,0.2,0.4,0.3c0.3,0.2,0.5,0.5,0.5,0.9c-0.1,0.2-0.1,0.3-0.2,0.5c0.8,3.2,0.8,6.8,0.9,10
		c0.1,3.6,0.2,7.2,0.1,10.7c0,2.2-0.1,4.5-0.2,6.8C491,574.1,496.4,569.8,497.2,562.4L497.2,562.4z M474.2,584.8
		c0.1-0.8,0.1-1.5,0.2-2.3c-8.8,2.6-18,6.1-21,15.6c-1.5,4.6-1.3,10.3,1.6,14.3c1.2,1.6,3.2,3.6,5.4,3.7c1.6,0.1,3.2-1.1,4.3-2
		c3.6-3.1,5.7-8.3,6.9-12.8C473.1,595.9,473.7,590.3,474.2,584.8L474.2,584.8z"/>
</g>
</svg>

