<?xml version="1.0" encoding="utf-8"?>
<!-- Generator: Adobe Illustrator 23.0.5, SVG Export Plug-In . SVG Version: 6.00 Build 0)  -->
<svg version="1.1" xmlns="http://www.w3.org/2000/svg" xmlns:xlink="http://www.w3.org/1999/xlink" x="0px" y="0px"
	 viewBox="0 0 720 720" style="enable-background:new 0 0 720 720;" xml:space="preserve" width="500" height="500">
<style type="text/css">
	.st0{fill:#050002;}
	.st1{fill-rule:evenodd;clip-rule:evenodd;fill:#050002;}
	.st2{fill-rule:evenodd;clip-rule:evenodd;}
	.st3{fill:#221F1F;}
	.st4{fill:#231F20;}
	.st5{fill:#070808;}
	.st6{fill:#211E1F;}
	.st7{fill:#161616;}
	.st8{fill:#131313;}
	.st9{fill:#21201F;}
	.st10{fill:#2C2929;}
</style>
<g>
	<g>
		<g>
			<g>
				<path class="st0" d="M437.9,166.4c1.7,0.5,3.5,1.1,5.2,1.6c8.7,2.6,17.2,5.7,25.5,9.4c3.3,1.5,6.7,3,10,4.6
					c4,2,8.1,4.1,11.9,6.5c3.4,2.2,7,4.1,10.4,6.2c3.2,2,6.3,4.3,9.5,6.4c3.5,2.3,7,4.7,10.8,6.6c2.4,1.2,5.1,1.8,7.7,2.3
					c0.8,0.1,1.6,0.1,2.4,0c0.3-0.5,0.6-0.9,0.9-1.4c2.4-4.7,8.9-5.8,12.5-4.4c1.7,0.7,3.3,1.6,4.7,2.7c2.2,1.8,4.4,3.7,6.7,5.4
					c2.1,1.5,4.3,2.8,6.4,4.1c0.5,0.3,1.2,0.6,1.1,1.5c-1.3,1.2-3,2-4.7,2.5c-1.8,0.6-3.7,0.9-5.6,0.9c-1,0-1.9,0-2.9,0
					c-2.3,0.1-4.6-0.4-6.8-1.2c-1.6-0.6-3.1-1.2-4.6-2c-2.7-1.4-5.3-3-7.1-5.5l-7.1-1c0.2,0.4,0.4,0.7,0.6,1
					c2.4,2.1,4.9,4.1,7.3,6.1c3.3,2.7,6.7,5.1,10.4,7.1c1.3,0.8,2.6,1.5,3.9,2.2c3.1,1.7,6.5,2.7,9.8,3.8c1.2,0.4,2.4,0.7,3.7,1.1
					c1,0.3,1.8,0.3,2.6-0.5c1.3-1.2,3-1.6,4.5-2.1c3.9-1.2,7.8-2,12-1.8c2.8,0.1,5.5,0.6,8.2,1.4c5.2,1.5,10.2,3.5,15,6.2
					c1.8,1,3.8,1.6,5.7,2.3c1.9,0.7,2.5,2.3,1.1,3.8c-0.7,0.8-1.5,1.4-2.4,1.9c-2.8,1.8-5.9,2.7-9.2,3c-4.7,0.4-9.4,0.2-14-0.7
					c-2.5-0.4-5-0.9-7.4-1.6c-2.5-0.8-4.8-2-7-3.6c-1.8-1.3-3.6-2.7-5.4-3.9c-0.5-0.4-1.1-0.6-1.7-0.8c-3.7-0.5-7.1-1.6-10.6-2.7
					c-0.6-0.2-1.2-0.3-1.8-0.5c-0.3,0.6,0.1,0.8,0.3,1c4.9,4.2,9.8,8.3,15.1,12c3.6,2.6,7.2,5.2,10.9,7.7c3.5,2.4,7.2,4.7,10.7,7
					c0.4-0.1,0.9-0.2,1.3-0.3c2.2-0.8,4.5-1,6.8-0.6c2.3,0.4,4.7,0.8,7,1.4c2.1,0.5,4.1,1.3,5.9,2.4c1.4,0.8,2.8,1.5,4.1,2.3
					c3,1.9,5.5,4.3,7.9,6.8c2.9,3,5.6,6.1,8,9.5c0.8,1.1,1.7,2.1,2.5,3.2c0.3,0.3,0.5,0.6,0.7,0.9c1.1,1.8,0.6,3.7-1.3,4.6
					c-0.7,0.4-1.5,0.6-2.3,0.7c-2.1,0.4-4.1,0.4-6.2,0.1c-4.3-0.8-8.3-2.1-12.2-4c-4.3-2-8.3-4.7-11.9-7.9
					c-4.1-3.7-7.2-8.1-8.6-13.4c-0.3-1.2-1-2.1-2.1-2.7c-8-4.9-15.8-10.1-23.4-15.6c-1.1-0.8-2.1-1.6-3.2-2.4c-0.6-0.4-1.1-1-2-0.9
					c0.1,0.4,0.3,0.8,0.4,1.1c2.6,4.3,4.7,8.8,6.9,13.3c1.5,3,3.2,5.9,5,8.7c2.4,3.9,4.7,7.9,6.2,12.3c1.2,3.3,1.9,6.7,1.5,10.3
					c-0.2,1.7-0.4,3.5-0.4,5.2c0,1.4-1.5,2-2.6,1.2c-0.7-0.4-1.3-1-1.8-1.6c-0.8-1-1.5-2.1-2.1-3.2c-0.6-1.1-1.1-2.3-1.7-3.4
					c-2.9-5.4-4-11.2-4-17.2c0-2.1-0.2-4.3-0.2-6.4c-0.1-2.9-1.2-5.4-2.5-7.9c-1.4-2.6-2.9-5.1-4.3-7.7c-3-5.6-7-10.4-11.8-14.5
					c-7.3-6.3-14.5-12.6-21.9-18.8c-6.8-5.8-14-11.3-21.4-16.3c-3.1-2.1-6.3-4-9.5-5.9c-8.9-5.3-18.4-9.5-27.8-13.6
					c-0.5-0.2-1-0.3-1.5-0.5c-0.1,0.2-0.2,0.2-0.2,0.3c0,0.1,0,0.2,0,0.2c7.2,7.1,13,15.4,18.9,23.4c0.3,0.1,0.5,0.1,0.8,0.1
					c3.1-0.4,5.8,0.5,8.4,2c4,2.4,7.3,5.6,9.7,9.6c2.6,4.1,4,8.6,5.1,13.3c1,4.6,1.5,9.3,1.8,13.9c0.4,5,1,10,1.9,14.9
					c0.1,0.6,0.2,1.3,0.3,1.9c0.2,2.5-1.5,4.3-4,4.1c-1.2-0.1-2.3-0.4-3.5-0.8c-1.3-0.5-2.5-1.1-3.6-1.8c-4.2-2.7-8.1-5.8-11.7-9.4
					c-2.2-2.2-4-4.7-5.6-7.4c-2.1-3.6-3.2-7.6-3.6-11.8c-0.6-5.4-0.2-10.8,1.2-16c0.8-3,1.6-6,2.4-9.1c-0.2-0.3-0.3-0.6-0.5-0.8
					c-4.7-5.8-9.3-11.7-14-17.5c-1.2-1.5-2.6-2.8-3.9-4.2c-0.4-0.3-0.7-0.6-1.2-0.8c0,0.5,0.1,1,0.2,1.5c0.9,3.3,1.5,6.7,1,10.1
					c0,0.6-0.1,1.1,0,1.7c-0.1,0.9,0.2,1.7,0.8,2.4c1.1,1.5,1.9,3.1,2.2,5c0.5,2.3,0.8,4.7,0.9,7.1c0.1,3.8-0.9,7.4-3.1,10.6
					c-0.9,1.5-2.1,2.8-3.1,4.2c-1.5,2.1-3.5,1.4-4.6,0c-1.4-1.8-2.3-3.8-2.7-6c-0.2-1.3-0.3-2.5-0.5-3.8c-0.3-3.3,0.3-6.5,1.7-9.5
					c0.6-1.4,1.3-2.7,2.1-4c0.6-1,1.3-2.1,2.4-2.6c1.6-0.8,1.9-2.3,2-3.8c0.4-4.4-0.3-8.7-2-12.8c-1.3-3.1-3.4-5.5-6.3-7.2
					c-3.2-1.9-6.6-3.4-10.3-4.4c-9-2.6-18-4.7-27.1-6.5c-5.8-1.1-11.6-2.1-17.4-2.8c-0.6-0.1-1.3-0.1-1.8-0.2
					c-0.4,0.6,0.1,0.8,0.4,1c2.3,1.7,4.6,3.4,6.9,5.1c0.6,0.5,1.3,0.8,2.1,0.9c4.9,0.5,9,2.5,12.4,6.1c3.1,3.2,5.9,6.5,7.5,10.6
					c1,2.7,1.8,5.4,2.5,8.2c1.2,4.4,2.2,8.8,3.3,13.2c0.2,1,0.5,2,0.7,3c0.1,0.5,0.1,0.9,0.1,1.4c-0.1,1.2-0.8,1.8-2,1.9
					c-1,0.1-2.1-0.1-3-0.5c-3.9-1.4-7.4-3.4-10.6-5.9c-2.6-2-4.9-4.3-6.6-7.1c-1-1.7-1.9-3.5-2.7-5.3c-2-5.2-3.1-10.7-3.2-16.3
					c0-1.9-0.2-3.8-0.1-5.7c0.1-1-0.3-1.9-1.1-2.5c-3.4-2.8-7-5.3-11.1-6.9c-0.1,0-0.2,0-0.2-0.1c-3.8-2-7.8-2.5-12-2.8
					c-15.1-0.8-30.1-0.3-45.1,1.5c-8,0.9-15.9,2.3-23.8,4.1c-0.6,0.1-1.2,0.3-1.8,0.5c-0.1,0-0.2,0.2-0.4,0.3c0,0.5,0.4,0.4,0.7,0.4
					c2.9,0.4,5.8,0.8,8.7,1.3c1.2,0.2,2.3,0.8,3.5,0.7c1.1-0.1,2.2-0.8,3.4-1.1c8-2.1,15.9-1.6,23.7,1.1c7.4,2.6,13.6,7.1,19.4,12.3
					c4.9,4.4,9.7,8.9,15,12.9c0.5,0.3,0.9,0.7,1.2,1.1c0.8,1.2,0.5,2.6-0.9,3.2c-0.8,0.4-1.6,0.6-2.5,0.7c-2.2,0.3-4.4,0.5-6.7,0.5
					c-6.9,0-13.7-0.7-20.4-2c-3-0.6-5.8-1.7-8.4-3.3c-2.1-1.3-4.1-2.7-6.2-4.1c-5.8-4-10.7-9-14.1-15.3c-0.4-0.8-1-1.4-1.9-1.6
					c-8.4-2.4-17-3.2-25.8-2.5c-2.5,0.2-4.9,0.5-7.4,0.9c-2.3,0.4-4.5,1-6.7,1.8c-3.4,1.2-6.8,2.6-10.2,4c-0.3,0.2-0.6,0.3-0.9,0.6
					c0.2,0.6,0.7,0.5,1,0.5c2.6,0.1,5.3,0.1,7.9,0.3c6.1,0.4,11.9,1.8,17.7,3.7c1.7,0.5,3.3,1.1,5,1.7c1.1,0.5,2.1,0.5,3.2-0.1
					c5.5-2.5,11.1-2.6,16.7-0.4c3.6,1.4,6.7,3.6,9.5,6.3c2.7,2.6,5,5.6,6.8,8.9c0.9,1.5,1.6,3.1,2.5,4.6c0.8,1.4,1.6,2.7,2.4,4.1
					c0.5,0.8,0.9,1.7,1.2,2.6c0.2,0.6,0.1,1.2-0.2,1.7s-0.8,0.9-1.4,1c-0.8,0.2-1.6,0.3-2.4,0.3c-1.4,0-2.7-0.2-4-0.4
					c-4.2-0.7-8.3-1.4-12.5-2.1c-3-0.5-5.7-1.9-8.3-3.4c-2-1.2-3.6-2.8-4.9-4.8c-1.8-2.6-3.7-5.2-4.9-8.2c-0.7-1.7-1.3-3.4-2-5.4
					c-1.1-0.4-2.3-0.9-3.6-1.3c-4.5-1.2-8.9-2.5-13.4-3.3c-6.8-1.2-13.6-1.5-20.5-0.9c-4.6,0.3-9.1,1.4-13.5,3c-2.1,0.8-4.1,1.8-6,3
					c-12,6.8-23.3,14.6-34,23.4c-9.5,7.9-18.3,16.5-26.4,25.8c-5.9,6.8-11.7,13.7-16.9,21c-0.4,0.5-0.7,1-1.2,1.9
					c0.4-0.1,0.8-0.2,1.2-0.4c1.1-0.7,2.1-1.5,3.1-2.2c2.3-1.4,4.6-2.8,7-4.2c1.1-0.6,2.1-1.1,2.3-2.5c0.1-0.3,0.2-0.6,0.4-0.8
					c2.1-3.5,4.4-6.9,7.3-9.6c2.9-2.8,6.3-5,10.1-6.5s7.7-2.3,11.8-2.3c5.6-0.1,11.1,0.9,16.4,2.8c3.1,1.1,6.1,2.3,9.1,3.4
					c1,0.4,2.2,0.6,3.2,0.9c1.2,0.4,2.4,0.9,3.5,1.4c0.9,0.4,1.1,1.1,0.7,2c-0.1,0.4-0.3,0.7-0.6,1c-1,1.4-2.2,2.7-3.6,3.8
					c-5.5,4-11.2,7.6-17.5,10.1c-4.8,2-9.9,3-15.1,3.1c-2.6,0-5.1-0.3-7.6-1c-4.7-1.2-9.3-2.6-13.6-4.9c-0.9-0.5-1.8-0.4-2.7,0.1
					c-3.4,1.8-6.6,3.8-9.7,6c-4.2,3-8.2,6.3-12,9.8c-1.1,1-2.1,2.2-2.9,3.5c-2.5,4.2-5.1,8.4-7.7,12.6c-0.3,0.5-0.5,1.1-0.6,1.6
					c0.5-0.2,1.1-0.4,1.6-0.7c5.5-3.6,11.5-6.1,18-7.5c1.4-0.3,2.7-0.8,3.7-1.9c1.3-1.4,3.1-2.2,4.9-2.9c3.3-1.2,6.7-1.5,10.1-1.6
					c6.3-0.1,12.3,1.2,18.1,3.7c2.6,1.1,4.9,2.6,7.2,4.3c2.1,1.6,4.2,3.1,6.7,4.1c1,0.4,1.9,1,1.9,2.2c0,1.2-0.8,2-1.8,2.6
					c-0.5,0.3-1,0.5-1.5,0.7c-4.1,1.2-8.2,2.5-12.4,3.5c-4.8,1.1-9.6,0.7-14.4-0.6c-4.8-1.3-9-3.7-13.1-6.2c-1.6-1-2.9-2.2-4-3.7
					c-0.5-0.6-1-1.2-1.5-1.8c-1.3,0-2.6,0.2-3.8,0.8c-7.6,2.8-14.7,6.5-21,11.6c-4.8,3.9-3.8,3-6.2,7.6c-3.7,7.1-6.8,14.3-9.4,21.9
					c-0.7,2-1.6,4-2.4,6c-0.2,0.4-0.4,0.9-0.7,1.3c-0.9,1.5-2.7,1.5-3.6,0c-0.3-0.6-0.6-1.3-0.7-2c-0.6-3.1-0.1-6.1,0.8-9.2
					c1.2-4.2,3.2-8.1,5.3-12c2.3-4.3,4.8-8.6,7.1-12.9c2-3.8,4.3-7.4,5.7-11.5c1.2-3.8,2.4-7.6,3.4-11.4c1.2-4.3,2.1-8.6,3.2-12.9
					c1-3.8,2-7.5,3-11.3c0.7-2.7,1.2-5.4,1.8-8.1c-0.1-0.2-0.3-0.4-0.5-0.6c-2.6-1.7-4.1-4.2-5.3-6.9c-1.9-4.4-3.1-8.9-3.1-13.6
					c0-2.5,0.1-5.1,0.5-7.6c1.1-6.9,2.4-13.8,3.7-20.6c0.7-3.6,1.1-7.2,1.3-10.9c0-0.6,0.1-1.3,0.2-1.9c0.5-2.6,2.2-3.3,4.3-1.7
					c3,2.4,5.4,5.2,6.7,8.8c1.8,4.9,3.5,9.9,4.8,15c1.2,4.2,1.8,8.5,2,12.9c0.1,5.5-0.4,11-2.7,16.1c-0.7,1.6-1.6,3.1-2.5,4.6
					c-1.6,2.3-3.6,4.3-6.5,4.9c-0.7,0.9-0.7,2-0.9,3c-0.8,4.3-1.6,8.6-2.5,12.9c-1.3,5.6-2.7,11.1-4,16.7c-0.1,0.4-0.1,0.9-0.1,1.3
					c0.8-0.3,1-0.8,1.3-1.3c3.7-5.9,7.6-11.5,11.8-17.1c2.8-3.7,5.6-7.3,8.5-10.9c1.9-2.3,3.5-4.7,4.9-7.3
					c3.3-6.1,6.4-12.2,9.4-18.5c0.5-0.9,0.6-1.9,0.4-3c-0.3-1.5-0.5-3-0.8-4.5c-1.6-7-1.8-14-0.6-21.1c1-6.1,3.5-11.5,7.3-16.4
					c1.8-2.3,3.8-4.5,5.7-6.7c2-2.2,4-4.1,6-6.1c0.6-0.6,1.1-1.1,1.8-1.6c1.3-0.9,2.4-0.6,3.2,0.7c0.5,0.7,0.8,1.5,1.1,2.4
					c0.4,1.2,0.7,2.5,0.9,3.7c0.8,4.8,1.1,9.6,0.9,14.5c-0.3,8.5-3.4,15.9-8.9,22.3c-3.2,3.7-6.9,6.9-10.9,9.5
					c-1.1,0.6-1.8,1.5-2.3,2.6c-1.7,4.2-3.5,8.3-5.2,12.5c-0.2,0.6-0.4,1.2-0.5,1.7c0.6,0.4,0.8-0.1,1.1-0.3
					c4.7-5,9.5-9.8,14.7-14.4c3.6-3.2,7.3-6.4,11.1-9.4c7.2-5.8,13.8-12.2,19.9-19.1c5.5-6.2,10.4-12.8,15-19.7c1.4-2,2-4.1,1.8-6.5
					c-0.2-3.6-0.3-7.1-0.5-10.7c-0.6-7-0.1-14,1.3-20.9c1.1-5.1,3.1-9.8,6-14.2c2.8-4.3,6.3-8,9.9-11.6c2.4-2.4,4.8-4.8,7.2-7.3
					c0.5-0.5,1-1,1.6-1.4c1.9-1.2,3.9-0.5,4.5,1.7c0.1,0.4,0.2,0.8,0.2,1.2c0.3,5.5,0.7,10.9,0.2,16.4c-1.1,10.2-4.1,19.9-8.8,29
					c-3.4,6.3-7.6,11.9-13.1,16.5c-0.5,0.4-0.9,0.8-1.5,1.2c-1.9,1.2-3.1,2.9-4.2,4.8c-4.7,7.9-9.9,15.4-15.7,22.5
					c-0.3,0.5-0.7,1-1,1.6c1-0.4,1.4-0.6,1.9-0.8c4.2-2.3,8.3-4.8,12.5-7c9.6-5.1,19.6-9.5,29.9-13.1c1.7-0.6,3.5-1.2,5.2-1.8
					c2.2-0.7,4.1-2.1,6-3.4c5.2-3.7,10.1-7.8,14.5-12.4c0.8-0.7,1.1-1.5,0.9-2.5c-0.1-0.5-0.1-1.1-0.2-1.7c-0.5-3.5-0.5-7,0.2-10.4
					c0.5-3.1,1.5-6,2.9-8.8c2.7-5.5,6.5-10.2,9.9-15.1c1.5-2.1,2.9-4.2,4.3-6.3c0.3-0.4,0.5-0.8,0.8-1.2c1.3-1.8,3.2-1.9,4.6-0.1
					c0.4,0.6,0.8,1.2,1,1.9c0.5,1.7,1.1,3.5,1.3,5.3c0.8,6.6,0.3,13-1.6,19.3c-1.4,4.6-3.7,8.8-6.9,12.4c-1.8,2.2-4.1,3.7-6.8,4.6
					c-1.1,0.3-2.2,0.5-3.3,0.6c-0.8,0.1-1.5,0.4-2.1,1c-3.6,3.9-7.3,7.8-11,11.6c-0.1,0.2-0.2,0.4-0.3,0.6c0.2,0.6,0.7,0.4,1,0.3
					c1.9-0.4,3.9-0.9,5.8-1.3c13.3-2.9,26.8-4.5,40.4-5.3c0.9-0.1,1.8-0.2,2.6-0.1c2.3,0.1,4.3-0.8,6.2-2c6.9-4.3,13-9.5,18.3-15.6
					c4.2-4.6,7-10,8.6-16c0.2-0.8,0.3-1.7,0.3-2.6c0-0.6-0.2-1.1-0.6-1.5c-3.8-4.1-5.5-9.2-6.8-14.5c-1-4.3-1.4-8.8-1.8-13.2
					c-0.2-2.3-0.5-4.6-0.8-6.9c-0.1-0.6-0.2-1.3-0.2-1.9c0-0.4,0-0.8,0.2-1.2c0.2-0.4,0.4-0.7,0.7-1c0.3-0.3,0.7-0.4,1.1-0.5
					c0.4-0.1,0.8-0.1,1.2,0c1.2,0.3,2.2,0.8,3.1,1.7c1.7,1.8,3.5,3.5,5,5.4c4.1,5,6.1,10.9,6.8,17.3c0.2,1.7,0.2,3.5,0,5.2
					c-0.4,3.7-2.1,6.6-5.2,8.7c-0.8,3.2-1.7,6.4-2.5,9.6c-0.8,3.2-2.6,5.9-4.3,8.8c1.3-0.1,1.3-0.1,3.1-1.1c0.9-0.5,1.8-0.9,2.8-1.3
					c1-0.4,2.1-0.8,3.1-1.1c1-0.4,2.1-0.8,3.2-1.1c1-0.3,2-0.6,3-0.8c1.1-0.3,2.1-0.6,3.2-0.8c0.2-0.3,0.4-0.7,0.5-1.1
					c0.4-1.2,1.1-2.3,2-3.2c1.3-1.3,2.6-2.6,3.9-3.8c3.8-3.3,8.4-4.8,13.3-5.3c4.4-0.4,8.7-0.1,13,0.9c4.6,1,8.7,3,13,4.7
					c1,0.4,2,1,2.9,1.7c1.2,0.8,1.4,1.8,0.8,3.1c-0.3,0.7-0.8,1.4-1.3,1.9c-1.9,2-4.1,3.6-6.5,4.9c-6.9,3.9-14.4,5.5-22.2,5.7
					c-4.5,0.1-8.7-0.8-12.8-2.6c-1.9-0.8-3.5-1.9-4.8-3.4c-0.3-0.3-0.6-0.5-1-0.9c-2,0.6-3.9,1.2-5.9,1.8c-3.6,1.2-7.2,2.7-10.6,4.4
					c-3.8,1.9-7.3,4.1-10.4,7.1c-3,2.9-5.8,5.9-9.1,8.4c-0.3,0.3-0.6,0.7-0.9,1.1c0.8,0.5,1.5,0.3,2.2,0.4
					c6.4,0.3,12.9,0.5,19.3,0.9c8.7,0.6,17.4,1.7,26,3.2c4.9,0.9,9.7,1.8,14.5,2.8c1.5,0.3,3,0.3,4.5,0.1c4.8-0.9,9.7-1.6,14.7-2
					c4.5-0.4,9.1,0,13.6,0.5c5.3,0.6,10.6,1.2,15.9,1.9c2,0.4,3.8-0.1,5.3-1.4c1.2-0.9,2.5-1.7,3.7-2.6c2-1.4,4.1-2.5,6.4-3.2
					c2.1-0.7,4.2-1.4,6.3-2.1c4.9-1.4,9.9-1.6,14.9-0.7c1.6,0.3,3.3,0.7,4.8,1.3c5.5,1.9,10.8,4.2,15.9,7.1c0.8,0.5,1.7,0.9,2.5,1.3
					c1.7,1,2.3,2.6,1.6,4.5c-0.3,0.7-0.7,1.3-1.1,1.8c-1.7,1.8-3.6,3.4-5.7,4.7c-7.8,4.7-16.2,6.9-25.4,5.5
					c-5.4-0.8-10.3-2.7-14.7-5.8c-1.4-1-2.8-1.8-4.2-2.7c-1.7-1.1-3.3-2.1-4.7-3.7c-0.5-0.7-1.2-1-2-1.1c-7.6-0.3-15.1-1.1-22.6-1.8
					c-4.8-0.5-9.7-0.4-14.5,0.1C440.2,165.4,439,165.6,437.9,166.4z"/>
			</g>
		</g>
	</g>
</g>
<g>
	<g>
		<g>
			<g>
				<path class="st0" d="M259.1,633.2c3.4,2.7,6.3,5.8,8.9,9.3c0.6,0.9,1.3,1.8,1.9,2.8c0.4,0.7,1,1.2,1.9,1.4
					c1.2,0.3,2.3,0.7,3.4,1.1c2,0.6,3.8,1.5,5.5,2.6c1.7,1.1,3.2,2.5,4.6,4s2.4,3.3,3.3,5.2c0.8,1.9,1.4,3.8,1.7,5.9
					c0.6,4.6,0.7,9.2,0.1,13.8c-0.2,2-0.4,4-0.5,5.9c-0.1,1.5,0.1,3,0.1,4.5c0,1,0.2,1.9,0.1,2.9c-0.1,2.3-1.6,3.2-3.6,2
					c-1.3-0.8-2.5-1.7-3.6-2.8c-4.3-4.2-7.7-9.1-10.2-14.6c-1.6-3.5-2.5-7.2-2.3-11.1c0.2-2.8,0.5-5.5,0.8-8.3c0.3-2,0.1-4-0.5-5.9
					c-0.1-0.5-0.3-0.9-0.5-1.3c-3-4.8-6.2-9.5-10.6-13.1c-2.5-2.1-5.3-4.1-7.9-6.1c-2.7-2-5.5-4-8.3-6c-0.4-0.3-0.8-0.5-1.2-0.8
					c-0.4,0.5,0,0.8,0.2,1.1c0.7,1.3,1.2,2.6,2.1,3.7c0.8,1,2.1,1.6,3.2,2.4c3.4,2.4,5.9,5.5,7.7,9.3c1.1,2.2,1.7,4.6,2,7.1
					c0.3,2.7,0.3,5.4,0.4,8.1c0,2.9-0.2,5.9-0.2,8.8c0,0.2,0,0.5,0,0.7c-0.2,1.7-1.7,2.6-3.3,1.8c-0.7-0.4-1.3-0.8-1.9-1.4
					c-2.5-2.5-4.5-5.4-6-8.5c-1.2-2.4-2.3-4.9-3.3-7.4c-1.3-3.3-1.7-6.6-1.2-10.1c0.3-2.2,0.4-4.4,1.3-6.5c0.3-0.8,0.3-1.6-0.2-2.3
					c-2.3-4.4-4.9-8.6-8.2-12.2c-0.7-0.7-1.6-1.3-2.5-1.8c-7.7-4.7-15-10-21.8-15.9c-5-4.3-10-8.6-14.8-13.2
					c-11.4-11-22.4-22.3-32.1-34.9c-5.7-7.3-10.5-15.1-14.1-23.7c-0.8-2.1-1.5-4.2-2.1-6.3c-0.4-1.2-0.4-2.3-0.2-3.5
					c0.3-1.1,0.7-2.2,1.9-2.5c1.3-0.3,2.6,0,3.4,1.2c1,1.5,2,3.1,2.9,4.6c2.1,3.7,4.1,7.5,6.4,11.2c4.7,7.7,9.9,15.1,15.4,22.4
					c4.7,6.3,9.7,12.4,15,18.3c1.8,2,3.6,3.8,5.4,5.7c0.7,0.8,1.5,1.1,2.6,1c2.9-0.1,5.4-1,7.5-3c-0.3-1.8-0.1-3.4,0.6-5.1
					c2.4-5.5,6.4-7.8,11.8-7.6c2,0.1,4,0.4,5.9,0.6c0.9,0.1,1.3,0.7,1,1.5c-0.2,0.6-0.4,1.2-0.8,1.7c-3.3,4.5-7.6,7.6-13.2,8.8
					c-0.4,0.1-0.8,0.2-1.2,0.2c-1.1-0.1-2,0.3-2.8,1.1c-2,1.9-4.3,3.3-7,3.8c-0.1,0-0.2,0.2-0.4,0.4c0.2,0.2,0.5,0.4,0.7,0.6
					c3,1.6,6.2,2.9,9.5,3.8c1.8,0.5,3.5,0.9,5.3,1.4c1,0.3,1.9,0.1,2.7-0.6c1.3-0.9,2.6-1.8,4-2.5c3.5-1.8,7.2-2,10.9-1
					c1.6,0.4,3.2,0.9,4.7,1.6c3.4,1.5,6.4,3.5,9.2,6c1.8,1.6,3.5,3.2,5.4,4.7c0.8,0.7,1.8,1.3,2.6,2c1.8,1.5,1.7,3.3-0.1,4.8
					c-0.8,0.6-1.6,1-2.6,1.2c-2.3,0.6-4.7,0.7-7.1,0.5c-2.8-0.3-5.5-0.5-8.3-0.8c-5.7-0.5-10.4-2.9-14-7.4c-1.4-1.7-2.7-3.5-4.2-5.5
					c-2-0.7-4.4-0.8-6.7-1.5c-2.3-0.6-4.5-1.3-6.9-2c0.1,0.3,0.1,0.5,0.2,0.6c1.3,1.2,2.5,2.4,3.8,3.6c12,10.7,25,20,39.1,27.7
					c6,3.3,12.1,6.3,18.4,9.2c1.5,0.7,3,0.9,4.6,0.6c3.6-0.6,4.5-0.8,7.3-2.4c0.2-0.6,0.4-1.3,0.6-1.9c1-3.6,3.3-6.1,6.9-7.4
					c2.2-0.8,4.4-1.2,6.8-1.3c1.3,0,2.5-0.2,3.8-0.4c0.4-0.1,0.8-0.1,1.2-0.1c1.6,0.1,2.5,1.3,2,2.8c-0.6,1.9-1.7,3.6-3.1,5
					c-3.5,3.5-7.7,4.8-12.4,4.2c-1.9-0.3-3.8,0.1-5.4,1.1c-1.6,0.9-3.4,1.6-5.2,2.5c0.3,0.2,0.6,0.4,0.9,0.6
					c5.1,1.9,10.3,3.8,15.4,5.7c1,0.4,2.1,0.6,3.3,0.6c0.5,0,1,0,1.4,0.1c5.4,0.4,10.6-0.6,15.6-2.8c2-0.9,3.9-2.1,5.7-3.5
					c0.2-1.9,0.2-3.5,0.5-5.1c0.4-2.2,1.6-4.1,2.8-6c2.7-4.2,6.4-7.2,10.7-9.7c2.8-1.6,5.8-3.1,9-3.7c1.6-0.3,3.3-0.5,5-0.6
					c2.4-0.3,4.7-0.5,7.1-0.7c0.8-0.1,1.6-0.1,2.4-0.1c0.4,0,0.7,0.1,0.9,0.4c0.2,0.3,0.3,0.6,0.3,1c-0.1,0.4-0.2,0.8-0.3,1.1
					c-0.3,0.6-0.7,1.3-1.1,1.9c-2.1,3.3-4.2,6.5-6.2,9.9c-3.1,5.2-7.6,9-12.7,12c-4,2.4-8.4,2.9-12.9,1.9c-0.9-0.2-1.8-0.7-2.8-1.1
					c-1.7,0.9-3.6,1.7-5.4,2.8c-3,1.9-6.2,3.2-9.5,4.4c-0.3,0.1-0.5,0.2-0.8,0.3c0.1,0.6,0.5,0.6,0.9,0.7c4.6,0.9,9.2,2,13.8,2.8
					c7.3,1.2,14.7,1.9,22.1,2.4c8.3,0.6,16.7,0.6,25.1,0.5c1.8,0,3.7-0.1,5.5-0.1c1.9-0.1,3.8-0.6,5.5-1.5c3-1.7,5.9-3.6,8.7-5.6
					c0.1-0.4,0.1-0.8,0.1-1.1c-0.1-3,1.1-5.6,3.1-7.8c2.4-2.7,5.2-4.9,8.6-6.2c3.4-1.3,7-2.7,10.5-4c1.6-0.6,2.9,0.3,2.8,2.1
					c-0.1,1-0.3,1.9-0.6,2.8c-0.9,2.5-2.4,4.7-3.8,6.9c-1.5,2.4-3.5,4.3-5.8,5.9c-3.4,2.3-7.1,3.5-11.3,2.8c-1.2-0.3-2.2,0-3,0.8
					c-1.5,1.4-3.2,2.6-4.8,3.8c0.1,0.7,0.6,0.6,1,0.6c3.3-0.2,6.7-0.4,10-0.7c8.4-0.8,16.8-1.8,25.1-3.2c3-0.5,5.9-1.2,8.9-1.7
					c5.3-0.9,9.6-3.6,13.4-7.3c2.4-2.4,4.4-5,6.1-7.9c1.7-2.8,3.3-5.8,5.1-8.6c1.5-2.3,1.4-4.6,0.8-7.1c-0.8-3.3-1.2-6.6-1.4-9.9
					c-0.4-4.9-0.1-9.7,0.9-14.5c1-4.2,2-8.5,3-12.8c0.1-0.4,0.2-0.8,0.3-1.1c0.1-0.3,0.3-0.6,0.5-0.8c0.2-0.2,0.5-0.4,0.9-0.5
					c0.3-0.1,0.7-0.1,1-0.1c0.3,0,0.7,0.2,0.9,0.4c0.6,0.4,1.1,0.9,1.5,1.5c1.6,2.3,2.5,4.8,3.1,7.4c0.7,3.1,1.2,6.2,1.5,9.4
					c0.1,1.8,0,3.7-0.4,5.4c-1.4,6.8-4.1,13-8.2,18.6c-1.7,1.5-2.3,3.6-3.1,5.5c-1.9,4.5-4.4,8.8-7.2,12.8c-0.8,1.1-1.6,2.1-2.4,3.1
					c0.4,0.4,0.7,0.1,0.9,0c2.9-1.3,5.6-3,8.2-4.9c3-2.2,5.8-4.7,8.5-7.3c3.4-3.5,6.8-7.1,10.2-10.7c0.7-0.7,1.2-1.5,1.8-2.3
					c-1.9-4-1.5-8.1-0.8-12.2c0.9-5.7,3.2-10.8,6.2-15.6c2.6-4.4,5.8-8.3,8.9-12.4c2.1-2.7,4.2-5.4,5.7-8.5c0.2-0.5,0.5-1,0.9-1.4
					c0.2-0.3,0.5-0.6,0.9-0.7c0.3-0.2,0.7-0.3,1.1-0.3c0.4,0,0.8,0.1,1.1,0.2c0.4,0.2,0.7,0.4,0.9,0.7c0.7,0.8,1.2,1.7,1.3,2.8
					c0.2,1.3,0.4,2.7,0.5,4c0.5,10-1.5,19.4-5.8,28.4c-2.5,5.2-6.2,9.4-11.2,12.4c-1.8,1.2-3.8,2-5.9,2.5c-1.1,0.2-1.9,0.7-2.5,1.6
					c-4.8,6.5-10.2,12.4-16.3,17.6c-2.2,1.9-4.7,3.6-7,5.4c-0.4,0.3-0.8,0.5-1.6,1.1c0.6-0.1,1.1-0.1,1.7-0.3c6.5-2,13-4.2,19.4-6.7
					c9.7-3.8,19.2-8.2,28.3-13.2c8.3-4.6,16.3-9.5,24.2-14.8c2.2-1.5,4.5-2.8,6.6-4.2c1.3-0.8,2.4-1.8,3.5-2.8
					c4.4-4.1,8.2-8.6,12-13.3c5.9-7.4,11.1-15.3,15.9-23.4c0.2-0.4,0.4-0.7,0.6-1c2.1-2.4,2.3-5.3,2.2-8.3c-0.1-1.9-0.3-3.8-0.3-5.7
					c-0.1-2.3,0-4.6,0.3-6.9c0.8-6,3.2-11.3,7-16c2-2.5,4.1-4.8,6.2-7.2c0.1-0.1,0.2-0.2,0.3-0.3c1-1,2.1-0.7,2.5,0.7
					c0.3,1.1,0.5,2.3,0.6,3.5c0.5,5.9,0.2,11.7-1.4,17.5c-1.9,7.2-6,13.1-11.7,17.9c-0.1,0.1-0.2,0.2-0.4,0.3
					c-2.1,0.8-3,2.7-4.1,4.5c-3.1,5.2-6.2,10.5-9.5,15.7c-3.8,5.9-7.7,11.6-12.4,16.9c-0.3,0.4-0.5,0.8-0.7,1.2
					c0.8-0.4,1.3-0.6,1.7-0.8c4.4-2.8,8.9-5.6,13.3-8.4c0.7-0.4,1.1-0.9,1.2-1.7c0.2-1.4,1-2.7,1.8-3.9c3.6-5.3,8.4-9.1,14-11.9
					c2.7-1.3,5.4-2.4,8.2-3.2c3-0.9,6.1-1.8,9.1-2.7c0.7-0.2,1.4-0.3,2.1-0.3c0.4,0,0.8,0.2,1.1,0.5c0.3,0.3,0.4,0.7,0.3,1.1
					c-0.1,0.6-0.3,1.1-0.6,1.5c-0.6,0.9-1.2,1.7-1.9,2.4c-4.2,4.1-8.8,7.9-13.6,11.2c-4.7,3.2-10,5.2-15.7,6.2
					c-1.1,0.2-2.1,0.6-3,1.3c-5.9,4-11.7,7.9-17.6,11.9c-4.1,2.8-8.3,5.7-12.4,8.5c-0.3,0.2-0.6,0.5-0.8,0.7
					c0.1,0.6,0.5,0.4,0.8,0.4c4-0.4,8.1-0.8,12.1-1.2c3.2-0.3,6.3-0.6,9.5-0.9c1-0.1,2-0.4,3-0.8c2.7-1.3,5.3-2.4,8.1-3.6
					c2.3-0.9,4.7-1.3,7.2-1.2c2,0.1,3.9,0.4,5.9,0.8c2.5,0.5,4.9,1.2,7.4,1.8c0.4,0.1,0.8,0.2,1.1,0.3c0.3,0.1,0.4,0.3,0.5,0.6
					c0.1,0.3,0,0.6-0.2,0.8c-0.5,0.6-1.2,1.1-1.8,1.5c-2.5,1.3-5,2.3-7.8,3c-4.2,1-8.4,0.7-12.5-0.6c-1.6-0.5-3.2-1-4.8-1.5
					c-0.5-0.2-1.1-0.2-1.6-0.2c-3.6,0.5-7.2,1.1-10.8,1.6c-2.2,0.3-4.4,0.5-6.6,0.7c-0.3,0-0.6,0.1-0.8,0.2
					c-0.2,0.6,0.1,0.7,0.4,0.8c1.2,0.5,2.3,1,3.5,1.5c4.8,1.8,8.2,5.1,10.3,9.8c0.8,1.7,1.4,3.5,2.1,5.3c0.8,2.1,1.6,4.2,2.4,6.2
					c0.2,0.4,0.3,0.9,0.5,1.3c0.1,0.3,0.1,0.5,0,0.8c-0.1,0.3-0.2,0.5-0.4,0.7c-0.2,0.2-0.4,0.3-0.6,0.4c-0.2,0.1-0.5,0.1-0.8,0.1
					c-0.6-0.1-1.2-0.2-1.8-0.5c-1.7-0.7-3.2-1.8-4.6-3c-3.5-3.1-6.1-6.9-7.6-11.3c-0.8-2.1-1.5-4.2-1.7-6.4
					c-0.2-1.7-1.1-2.7-2.7-3.2c-3.9-1.3-7.7-1.7-11.7-0.3c-2.3,0.8-4.5,1.9-6.6,3.2c-9.5,6.2-19.4,11.8-29.7,16.8
					c-4.6,2.2-9.3,4.2-13.9,6.2c-0.8,0.4-1.7,0.8-2.6,1.1c0.2,0.7,0.7,0.5,1,0.4c1.8-0.1,3.7-0.2,5.5-0.3c3.8-0.2,7.6-0.1,11.4,0.4
					c1,0.1,1.9,0,2.8-0.4c2.1-0.9,4.3-1.6,6.6-2c5.1-0.9,10-0.2,14.9,1.2c4.7,1.3,8.7,3.8,12.7,6.5c1.4,1,2.7,2,4,3
					c1.8,1.4,1.8,3.1,0,4.5c-0.7,0.5-1.5,0.9-2.3,1.2c-5.8,2.1-11.8,2.6-17.9,1.1c-6.6-1.5-12.3-4.7-17.2-9.4
					c-0.9-0.8-1.7-1.7-2.5-2.6c-0.6-0.8-1.3-1.1-2.2-1.1c-4,0.1-8,0-11.9,0.2c-3.2,0.1-6.3,0.5-9.5,0.7c-4.4,0.3-8.7,1.1-12.9,2.5
					c-9.1,2.9-18.3,5.3-27.7,7.1c-3.5,0.7-7,1.3-10.6,2c-0.8,0.1-1.5,0.4-2.2,0.9c1.4,0,2.8,0,4.3,0c4.5,0,8.9,0.4,13.3,1
					c3.6,0.6,7.1,1.6,10.5,3.1c0.4,0.2,0.7,0.3,1.1,0.5c4.5-1.7,8.6-0.2,12.6,1.6c2.5,1.2,4.5,3,6.3,5c2,2.3,3.9,4.6,5.9,6.9
					c1.4,1.6,3,3.1,4.4,4.6c0.5,0.5,1,1,1.4,1.6c0.3,0.5,0.4,1,0.3,1.6c-0.1,0.6-0.5,1-1,1.3c-0.9,0.4-1.9,0.7-2.9,0.9
					c-2.5,0.4-9.9-1.1-12.2-2.6c-6-3.6-10.4-8.6-13.2-15c-0.3-0.6-0.5-1.2-0.6-1.8c-0.2-0.5-0.2-1.1-0.4-1.7c-0.5-0.3-1-0.6-1.6-0.9
					c-3.2-1.5-6.6-2.4-10-2.9c-4.9-0.6-9.8-0.9-14.8-0.9c-4.1,0-8.3,0-12.4-0.1c-1.7,0-3.3-0.2-5-0.3c-0.4,0-0.8,0-1.2,0
					c0.3,0.7,0.9,0.8,1.4,1c2.8,1,5.4,2.3,8,3.7c1.1,0.7,2.3,0.9,3.6,0.7c2.7-0.3,5.2-0.1,7.8,0.8c7,2.3,12.6,6.4,16.9,12.3
					c2.1,2.9,3.8,6,5.2,9.4c0.7,1.8,1.5,3.7,2.2,5.5c0.7,2.1,1.7,4.1,2.9,6c1,1.5,0.5,2.9-1.2,3.3c-0.9,0.2-1.7,0.3-2.6,0.1
					c-2-0.4-3.9-0.9-5.8-1.5c-2.9-1-5.8-2.2-8.6-3.4c-3.6-1.5-6.8-3.5-9.7-6c-4.3-3.8-7.1-8.6-8.2-14.2c-0.7-3-1-6-0.9-9.1
					c-0.6-0.4-1.1-0.8-1.7-1.2c-5.5-3.1-11.4-5.2-17.6-6.5c-1.1-0.2-2.2-0.3-3.3-0.2c-6.2,0.2-12.4,0.5-18.6,0.8
					c-0.2,0-0.4,0.1-0.6,0.1c-0.2,0.5,0.1,0.6,0.4,0.8c4.7,2.3,8.4,5.7,11.9,9.5c0.9,1,2,1.8,3.3,2.3c1.4,0.7,2.8,1.4,4.2,2.3
					c2.1,1.3,4.1,2.7,6.1,4.2c3,2.3,5.6,5,7.6,8.2c2,3.2,3.4,6.7,4.1,10.4c0.6,2.7,0.9,5.5,1.4,8.2c0.1,0.3,0.1,0.6,0,0.9
					c0,0.5-0.3,0.9-0.7,1.2c-0.4,0.3-0.9,0.3-1.4,0.1c-0.9-0.4-1.7-0.8-2.5-1.4c-7.2-5.2-12.6-11.8-16.1-20
					c-1.4-3.3-2.8-6.6-4.1-9.9c-0.6-1.4-1.4-2.6-2.6-3.7c-3.4-3.4-7.2-6.3-11.3-8.7c-3-1.7-6.1-3-9.4-4c-1.2-0.3-2.3-0.5-3.5-0.5
					c-3.7-0.1-7.5-0.2-11.2-0.3c-5.1-0.2-10.2-0.6-15.2-1.3c-0.6,0-1.2,0-1.8,0c0.2,0.3,0.5,0.6,0.8,0.8c1.7,1.3,3.6,2.3,5.6,3.2
					c7.4,3.2,13.8,7.9,19.4,13.6c2.9,2.8,4.9,6.3,6.6,9.9c0.6,1.2,1,2.5,1.6,3.7c0.9,2.1-0.1,3.7-2.6,3.9c-1.6,0.1-3.2-0.1-4.7-0.6
					c-5.8-2-10.6-5.3-14.6-10c-2.9-3.4-4.7-7.3-6.2-11.5c-0.9-2.5-2-4.9-2.9-7.3c-0.3-0.7-0.8-1.3-1.4-1.8
					c-3.4-2.8-7.2-4.8-11.7-5.6c-14.6-2.6-28.7-6.6-42.3-12.2c-4.1-1.7-8.2-3.5-12.3-5.3c-0.5-0.2-1.8-0.6-1.9-0.7
					C258.2,632.3,258.7,632.8,259.1,633.2z"/>
			</g>
		</g>
	</g>
</g>
<g>
	<g>
		<g>
			<g>
				<path class="st0" d="M625.9,347c0.9,2.9,1.5,5.9,1.8,9c-0.8,0.6-1.7,0.4-2.4,0.4c-5.6,0-11.1,0-16.7,0
					c-43.2,0-86.4,0.1-129.7,0.1c-90.3,0.2-180.7,0.4-271,0.6c-27.7,0.1-55.4,0.1-83.1,0.1c-1,0-2.1,0.2-3-0.2
					c-0.1-1.7,0.5-5.3,1.4-8.9c0.5-0.1,1-0.2,1.5-0.2c0.8,0,1.6,0,2.4,0c33.7,0,67.3,0,101-0.1c50.2-0.1,100.5-0.2,150.7-0.4
					c81.2-0.2,162.4-0.3,243.6-0.5C623.4,346.9,624.6,347,625.9,347z"/>
			</g>
		</g>
	</g>
</g>
<g>
	<g>
		<g>
			<g>
				<path class="st0" d="M620.4,482.3c-0.6,3.3-1.7,6.1-2.6,8.8c-0.9,0.7-1.8,0.5-2.7,0.5c-4.9,0.1-9.7,0.1-14.6,0.1
					c-64.5,0.1-129,0.1-193.4,0.2c-70.1,0.1-140.1,0.2-210.2,0.4c-20.8,0-41.6,0-62.3,0c-0.9,0-1.9,0-2.9-0.1c-1.2-3-2.1-6-2.7-9.1
					c1.3-0.4,2.3-0.3,3.3-0.3c32,0,64,0,96,0c66.6-0.1,133.1-0.2,199.7-0.4c63.1-0.1,126.1-0.2,189.1-0.2
					C618.1,482.2,619,482.3,620.4,482.3z"/>
			</g>
		</g>
	</g>
</g>
<g>
	<path class="st0" d="M370.8,261.8c2-1,4.1,1.9,1.9,2.7c-4.9,1.9-10.4,2.3-15.6,2.6c-4.2,0.3-8.4,0.4-12.6,0.3
		c-0.1,1.8-0.3,3.7-0.4,5.5c-0.5,8.2-1.1,16.4-1.5,24.7c-0.4,8-1.1,15.9-1,24c0.1,3.6,0.4,7.2,1.4,10.7c0.4,1.4,1.1,2.8,2.6,3.1
		c1.8,0.4,3.7-0.4,5.2-1.3c6.4-3.9,8.6-11.7,10.6-18.5c0.5-1.6,3.5-1.1,3,0.7c-2.2,8.1-5.3,17.8-13.7,21.4
		c-3.6,1.5-7.5,1.8-10.8-0.4c-3.3-2.2-5-5.8-6-9.5c-2.5-8.8-2.3-18.1-2.5-27.2c-0.2-9.4,0.2-18.8,0.7-28.2c0.1-1.9,0.2-3.7,0.4-5.6
		c-3-0.1-6-0.3-9-0.4c-2.7-0.1-5.5-0.3-8.2-0.2c-0.3,0-0.6,0-1,0.1c0.3,0.1,0.6,0.2,0.9,0.3c2.1,0.8,0.1,3.2-1.7,2.5
		c-0.6-0.2-1.4,0.2-2,0.1c-0.4,0-0.9-0.1-1.3-0.3c-0.7-0.3-1.5-0.8-1.7-1.6c-0.8-2.4,2.5-3.5,4.2-3.8c3-0.6,6.2-0.3,9.2-0.2
		c3.2,0.1,6.4,0.3,9.6,0.5c0.4,0,0.8,0,1.1,0.1c0.1-1.9,0.3-3.8,0.4-5.7c0.4-4.9,0.7-10,2.2-14.6c0.8-2.4,3.4-3.4,5.7-3.2
		c2.5,0.3,4.1,1.9,4.5,4.3c0.7,4.7,0.1,9.5-0.3,14.2c-0.1,1.8-0.3,3.6-0.4,5.4c2.1,0,4.2,0,6.3,0c3.3-0.1,6.6-0.3,9.9-0.6
		C364.2,263.6,367.8,263.3,370.8,261.8L370.8,261.8z"/>
	<path class="st0" d="M415.5,312c0.8-1.7,4.2-1.1,3.4,0.8c-1.9,4.5-4.2,8.8-6.9,12.8c-2.1,3.1-4.6,6.9-8.8,7.2
		c-10.2,0.7-11-14.9-10.8-21.9c0.2-8.8,1.1-17.6,1.3-26.4c0-0.5,0.4-2-0.1-2.4c-0.6-0.5-1.8,0.6-2.3,1c-1.4,1.2-2.6,2.6-3.7,4.1
		c-2.5,3.6-4.4,7.5-6.2,11.4c-3.5,7.8-6.1,15.9-8.6,24.1c-0.1,0.8-0.2,1.7-0.3,2.6c-0.5,3.9-7.2,5.2-8.3,1c-0.5-1.9-1.2-3.7-1.4-5.6
		c-0.2-1.8-0.3-3.6-0.5-5.4c-0.3-3.4-0.4-6.7-0.5-10.1c-0.2-6.7-0.3-13.5-0.2-20.2c0.1-11.8,0.7-23.9,3.8-35.4
		c1.3-5,3.3-10.2,7.3-13.6c3.7-3.1,8.7-3.9,13.3-2.3c10.7,3.8,5.1,18.2,2,25.4c-3.9,9-9.2,17.2-14.7,25.2c-0.1,2.9-0.1,5.9-0.2,8.8
		c-0.1,5.3-0.1,10.6,0,15.9c0,0.6,0,1.2,0,1.8c1.8-5.4,3.8-10.7,6.3-15.8c3-6.3,7.1-15.1,14.7-16.7c4.4-0.9,8,2.5,9.4,6.3
		c1.5,4.3,1.8,9,1.8,13.5c0.1,8.9-1,17.7-0.9,26.6c0,0.9-0.2,2,0.3,2.9c0.3,0.6-0.3,0.6,0.5,0.2c1.5-0.8,2.7-2.8,3.7-4.1
		C411.4,320,413.6,316.1,415.5,312L415.5,312z M373.4,278.2c4.5-6.7,8.8-13.6,12-21.1c1.7-4.1,3.7-8.9,3.7-13.5
		c0-4.2-3.3-9.6-7.8-6.2c-2.9,2.2-4.1,6.7-4.8,10.1c-1,4.7-1.6,9.4-2.1,14.2C373.9,267.2,373.6,272.7,373.4,278.2z"/>
	<path class="st0" d="M457.2,302.8c-1.5,5.8-3.8,11.4-6.9,16.5c-2.8,4.5-6.2,9.5-11.3,11.6c-10.4,4.3-19.5-6-22.4-14.9
		c-1.9-5.8-1.9-11.9-0.9-17.9c0.9-5.7,2.9-11.3,7.2-15.3c4-3.6,9.5-5.3,14.6-3.4c3.8,1.4,7.3,4.2,7.3,8.6c0,4.7-4.3,8.1-8.2,9.9
		c-3.2,1.5-6.7,2.3-10.2,2.2c-1.1,6.6-1.3,13.3,0.2,19.8c0.8,3.5,2.6,7,6.3,8.2c4,1.2,7.3-1.4,9.8-4.3c5.4-6.2,9.1-13.9,11.1-21.9
		C454.5,300.3,457.7,301,457.2,302.8z M427.1,297.5c3.4-0.1,6.8-1,9.8-2.8c3.5-2.1,6.8-6.6,3.2-10.3c-1.4-1.4-3-2.1-4.8-1.4
		c-1.3,0.5-2.6,1.5-3.5,2.6c-2.3,2.7-3.4,6.8-4.2,10.2C427.3,296.4,427.2,296.9,427.1,297.5z"/>
</g>
<g>
	<path class="st0" d="M284,556.7c1.2-0.7,2.6,1,1.2,1.8c-6.7,3.9-14.7,5.3-22.3,4c2.9,2.7,5.2,6.1,6.3,10c1.9,6.3,0.9,14.5-3.4,19.7
		c-2,2.4-4.5,3.1-7.5,2.2c-3.5-1-5.2-4.1-6.4-7.3c-2.7-7-3.3-14.6-3.7-21.9c-0.4-7.5-0.2-15.1,0.4-22.6c0.5-7.1,1.7-14.3,4.7-20.7
		c2.7-5.7,8.5-11.8,15.5-9.4c5.5,1.9,7.3,8.8,7.5,14c0.5,13.3-8.1,24.4-18.4,31.9c-0.7,0.5-1.7,0-1.8-0.6c0,0.3,0,0.5,0,0.8
		c0.3-0.1,0.6-0.1,0.9,0C265.9,562.2,275.9,561.5,284,556.7L284,556.7z M256.2,560.6c0,2,0,4,0,6c0.1,6.1,0.2,12.4,1.5,18.4
		c0.3,1.4,0.6,2.8,1.2,4.1c0.4,0.9,0.8,2.3,1.7,2.8c2.4,1.3,4.6-3.3,5.3-4.8C270.5,577.1,266,565.2,256.2,560.6z M256.2,557.7
		c0-0.2,0.1-0.3,0.3-0.5c9.9-7.5,18.4-18.7,17.1-31.8c-0.4-3.8-2.5-11.4-7.9-9.2c-2.1,0.9-3.6,3-4.5,5.1c-1.1,2.7-2,5.4-2.7,8.3
		c-1.3,5.9-1.7,11.9-2,17.9C256.3,550.8,256.2,554.2,256.2,557.7z"/>
	<path class="st0" d="M323.2,557.8c0.5-1.3,2.9-0.8,2.4,0.6c-1.6,4.7-3.3,9.5-5.7,13.8c-1.8,3.3-4.4,7.5-8.8,6.8
		c-4.4-0.7-6.2-5.7-6.8-9.5c-0.7-4.2-0.9-8.4-0.8-12.6c-1.1,3.3-2.4,6.6-3.9,9.7c-1.3,2.7-2.5,5.6-4.6,7.8c-2.2,2.3-5.3,2.7-8.1,1.3
		c-6-3-7.3-11.3-6.5-17.2c0.9-6.3,3.5-13.2,9-17c2.5-1.7,5.6-2.7,8.6-1.8c2.4,0.7,4.8,2.5,5.7,4.9c0.6,1.6-2,2.1-2.8,1
		c-0.8-1.1-1.4-2-2.7-2.3c-0.8-0.2-1.6-0.1-2.3,0.4c-2,1.2-3.4,3.3-4.6,5.3c-2.3,4.1-3.5,9-3.7,13.6c-0.1,2.3-0.1,4.7,0.7,6.9
		c0.4,1.2,1.6,3.2,3.2,2.7c2.2-0.7,3.6-3.4,4.7-5.2c1.4-2.2,2.5-4.7,3.5-7.1c1.7-4,3-8.2,4.2-12.4c0.1-2.6,0.2-5.7,1.7-7.9
		c1.4-2,5.4-2.3,6.7,0c1.5,2.6,1.2,5.9,1,8.8c-0.1,2.6-0.2,5.1-0.4,7.7c-0.4,5-0.7,10-0.6,15c0,1.1,0.1,2.3,0.2,3.4
		c0,0.3,0.1,1.3,0.4,1.5c0.9,0.4,2.2-1.5,2.5-2c0.7-0.9,1.3-1.9,1.9-2.9C319.9,567,321.6,562.4,323.2,557.8L323.2,557.8z"/>
	<path class="st0" d="M375.2,560.8c-1.2,2.9-2.4,5.9-4.1,8.7c-1.4,2.3-3.2,5.7-6.3,5.9c-2.7,0.2-4.8-1.8-5.8-4.1
		c-1.3-2.9-1.8-6.2-1.9-9.3c-0.2-6.1,0.5-12.4,1.2-18.5c0-0.4,0.4-2.4,0-2.6c-0.1,0-1.3,1.1-1.5,1.3c-0.5,0.5-0.9,1-1.3,1.5
		c-1.8,2.3-3,4.9-4.2,7.6c-2.1,5.1-3.7,10.4-4.9,15.8c0,1-0.1,2-0.4,2.9c-0.8,3.3-6,2.7-7.1,0c-1.1-2.6-0.7-6-0.5-8.8
		c0.2-2.7,0.3-5.4,0.5-8c0.2-2.6,0.3-5.3,0.4-7.9c0-1.2,0-2.4,0-3.5c0-0.4,0.2-0.6-0.2-0.7c-0.5-0.1-1.2,0.8-1.5,1.1
		c-3.4,3.8-4.5,9.5-5.6,14.2c-0.9,4-1.7,8.1-2.4,12.2c-0.1,1.4-0.3,2.8-0.7,4.2c0,0,0,0,0,0.1c0,0.1-0.1,0.2-0.1,0.2
		c-0.2,0.4-0.4,0.9-0.6,1.3c-0.7,1.3-2.8,1.1-3.6,0c-1.7-2.3-2-5.3-2.2-8.1c-0.3-2.6-0.4-5.2-0.4-7.8c0-5.5,0.2-11.1,1.3-16.4
		c0.4-1.8,2.6-2.5,4.2-2.3c1.6,0.2,3.3,1.4,3.3,3.2c0,3.6-0.3,7.2-0.5,10.9c0.9-3.7,1.9-7.5,3.9-10.8c1-1.5,2.3-3.4,4.2-3.8
		c1.6-0.3,3.5,0.6,4.6,1.7c1.6,1.5,2.3,4.3,2.8,6.4c0.6,2.5,0.8,5.1,0.7,7.7c0,0.8,0,1.7-0.1,2.5c0.9-2.9,2-5.7,3.2-8.5
		c1.7-3.8,4.9-10.5,10-9.9c2.7,0.3,4.2,2.7,5,5.1c1,2.8,1.2,6.1,1,9.1c-0.1,3.1-0.4,6.1-0.6,9.1c-0.1,2.7-0.4,5.6,0,8.4
		c0.1,0.4,0.1,1,0.2,1.4c0,0.1,0,0.1,0,0.2c0.1,0,0.8-0.5,1-0.7c1-0.9,1.9-2.2,2.6-3.3c1.5-2.5,2.7-5.2,3.8-7.9
		C373.3,559,375.7,559.5,375.2,560.8z"/>
	<path class="st0" d="M378.4,537c-1.3-0.2-2.1-1.5-3.6-4.1c-1.9-3.3-3.9-6.7-2.6-9.7c0.4-1,0.9-1.3,1.2-1.5c1.5-0.9,3.8-0.1,5,1.2
		c0.5,0.6,0.9,1.2,1.3,1.9c0.1-0.1,0.2-0.3,0.4-0.5c0.8-1.1,1.3-1.7,1.5-1.9c0.9-1,3.7-1.1,4.8,0c2.1,1.9-0.5,7.7-3,10.9
		C382.2,534.9,380.4,537.3,378.4,537L378.4,537z M394.8,558.4c-1.6,4.7-3.3,9.5-5.7,13.8c-1.8,3.3-4.4,7.5-8.8,6.8
		c-4.4-0.7-6.2-5.7-6.8-9.5c-0.8-4.9-0.9-9.8-0.8-14.7c0.1-2.4,0.2-4.8,0.3-7.1c0.1-2.6,0.2-5.8,1.7-8c1.4-2,5.4-2.3,6.7,0
		c1.5,2.6,1.2,5.9,1,8.8c-0.1,2.6-0.2,5.1-0.4,7.7c-0.4,5-0.7,10-0.6,15c0,1.1,0.1,2.3,0.2,3.4c0,0.3,0.1,1.3,0.4,1.5
		c0.9,0.4,2.2-1.5,2.5-2c0.7-0.9,1.3-1.9,1.9-2.9c2.5-4.2,4.1-8.8,5.8-13.4C392.9,556.5,395.3,557,394.8,558.4z"/>
	<path class="st0" d="M398.6,552.3c-0.1,4.5-0.3,9,0.2,13.5c0.2,1.8,0.4,4.1,1.4,5.6c0.5,0.7,0.9,1.1,1.7,0.8c0.9-0.4,1.6-1.2,2.2-2
		c2.8-3.1,4.8-6.7,6-10.7c0.4-1.3,2.8-0.8,2.4,0.6c-1.5,5.1-4.3,10.1-8.1,13.9c-2,2-5.2,2.7-7.6,1c-2.4-1.7-3.3-4.6-4-7.4
		c-1.4-5.4-1.6-11-1.7-16.6c-0.1-5.5,0.1-11.2,0.7-16.7c0.6-5.4,1.5-11,3.5-16.1c1.7-4.4,4.3-8.9,9-10.5c3.6-1.2,8.6-0.2,10.8,3.1
		c2.4,3.6,1.4,8.5,0.2,12.4c-1.3,4.2-3.5,8.2-6.4,11.6c-2.6,3-6.2,6.6-10.2,7.6C398.8,545.7,398.7,549,398.6,552.3z M398.9,540.2
		c1.7-0.7,3.3-1.9,4.7-3.1c1.7-1.4,3.2-3,4.5-4.7c2.6-3.3,4.5-7.1,5.5-11.2c0.8-3.2,1.7-8.4-1.7-10.5c-3-1.9-6.3,1.1-7.8,3.5
		c-2.2,3.3-3,7.6-3.7,11.4c-0.8,4.3-1.1,8.7-1.3,13.1C399,539.1,398.9,539.6,398.9,540.2z"/>
	<path class="st0" d="M453,560.7c0.4-1.3,2.7-0.8,2.4,0.6c-1.2,5.3-5.3,9.4-9.9,12.1c-1,0.6-1.9,1-2.9,1.5c0,4.3-0.1,8.5-0.4,12.8
		c-0.4,6.1-1,12.6-2.9,18.5c-1.8,5.5-5.5,10.1-11.1,11.9c-5,1.6-11.1,0.7-15-2.8c-3.7-3.4-6.1-8.1-6.5-13.1
		c-0.4-5.1,1.4-10.2,4.5-14.2c3.5-4.5,8.3-7.3,13.5-9.3c2.8-1,5.9-1.9,8.9-2.9c-0.1-5.5-0.4-11-0.4-16.6c-0.4,1.1-0.8,2.3-1.2,3.4
		c-0.8,2.1-1.8,4.2-2.9,6.2c-1.1,2-2.2,4.1-4.1,5.4c-3.9,2.8-8.5,0.3-11.1-3.1c-2.9-3.8-3.6-9.1-3.8-13.8c-0.2-2.6,0-5.1,0.1-7.7
		c0.1-2.7,0.4-5.6,1.2-8.2c1.1-3.7,7.8-3.1,7.8,0.9c0,2.9-0.5,5.8-0.8,8.7c-0.3,2.7-0.5,5.4-0.7,8.1c-0.1,2.5,0,5,0.4,7.5
		c0.3,2,0.7,5,2.6,6.1c2.5,1.3,4.6-2.4,5.6-4.1c1.4-2.4,2.5-4.9,3.5-7.5c1.5-4.1,2.6-8.3,3.5-12.5c0.1-2,0.3-3.9,0.5-5.9
		c0.3-2.3,2.1-3.6,4.4-3.7c2-0.1,4.4,1.5,4.4,3.7c-0.2,7.5-0.2,15-0.2,22.5c0,2.4,0,4.8,0,7.2C447.4,569.8,451.4,566.4,453,560.7
		L453,560.7z M433.7,579.6c0-0.5,0-1.1,0-1.6c-2,0.6-4.1,1.2-6.1,1.9c-5.2,1.8-10.3,4.3-13.8,8.7c-3.1,3.8-4.8,8.7-4.2,13.6
		c0.6,4.7,3.3,9.1,7.9,10.7c3.8,1.3,8.3,1,11.1-2c3-3.3,3.7-8.4,4.1-12.6C433.5,592,433.8,585.8,433.7,579.6z"/>
</g>
</svg>


