<?xml version="1.0" encoding="utf-8"?>
<!-- Generator: Adobe Illustrator 23.0.5, SVG Export Plug-In . SVG Version: 6.00 Build 0)  -->
<svg height="500" width="500" version="1.1" xmlns="http://www.w3.org/2000/svg" xmlns:xlink="http://www.w3.org/1999/xlink" x="0px" y="0px"
	 viewBox="0 0 720 720" style="enable-background:new 0 0 720 720;" xml:space="preserve">
<style type="text/css">
	.st0{fill:#050002;}
	.st1{fill-rule:evenodd;clip-rule:evenodd;fill:#050002;}
	.st2{fill-rule:evenodd;clip-rule:evenodd;}
	.st3{fill:#221F1F;}
	.st4{fill:#231F20;}
	.st5{fill:#070808;}
	.st6{fill:#211E1F;}
	.st7{fill:#161616;}
	.st8{fill:#131313;}
	.st9{fill:#21201F;}
	.st10{fill:#2C2929;}
</style>
<g>
	<g>
		<g>
			<g>
				<path class="st0" d="M377,648.4h0.3c6.7-0.8,13.4-1.8,20.1-3.2c6.6-1.3,13.2-2.9,19.7-4.8c6.5-1.9,12.9-4,19.3-6.3
					c6.3-2.4,12.6-5,18.7-7.9c6.1-2.9,12.2-6,18-9.3c5.9-3.4,11.6-6.9,17.2-10.8c5.6-3.8,11.1-7.9,16.3-12.1
					c5.3-4.3,10.4-8.7,15.3-13.4c4.9-4.7,9.7-9.5,14.2-14.6c4.5-5,8.9-10.3,13-15.7c4.1-5.4,8-11,11.7-16.7
					c3.7-5.7,7.1-11.6,10.4-17.6c3.2-6,6.2-12.1,8.9-18.3c2.7-6.2,5.2-12.6,7.4-19c2.2-6.4,4.2-12.9,5.9-19.5
					c1.7-6.6,3.2-13.2,4.3-19.9c1.2-6.7,2.1-13.4,2.7-20.2c0.6-6.8,1-13.6,1.1-20.4c0.1-6.8-0.1-13.6-0.5-20.4
					c-0.4-6.8-1.1-13.6-2.1-20.3c-1-6.7-2.2-13.4-3.7-20.1c-1.5-6.6-3.3-13.2-5.3-19.7c-2-6.5-4.3-12.9-6.8-19.2
					c-2.5-6.3-5.3-12.5-8.4-18.6c-3-6.1-6.3-12-9.8-17.9c-3.5-5.8-7.2-11.5-11.2-17c-4-5.5-8.1-10.9-12.5-16.1
					c-4.4-5.2-9-10.2-13.7-15c-4.8-4.8-9.7-9.4-14.9-13.9c-5.1-4.4-10.5-8.6-15.9-12.6c-5.5-4-11.1-7.8-16.9-11.3
					c-5.8-3.5-11.7-6.8-17.7-9.9c-0.6-0.3-1.2-0.4-1.9-0.1c-0.7,0.2-1.1,0.6-1.4,1.2c-0.3,0.6-0.4,1.3-0.1,1.9
					c0.2,0.7,0.6,1.1,1.2,1.5c10.3,5.2,20.1,11,29.6,17.6c9.5,6.5,18.4,13.7,26.9,21.5c8.5,7.8,16.3,16.1,23.7,25
					c7.3,8.9,14,18.3,20,28.1c6,9.8,11.3,20,15.9,30.6c4.6,10.6,8.5,21.4,11.6,32.5c3.1,11.1,5.4,22.4,7,33.8
					c1.6,11.4,2.3,22.9,2.3,34.5c0,127.3-94.7,234.1-220.2,248.6c-0.7,0.1-1.2,0.3-1.6,0.9c-0.4,0.5-0.6,1.1-0.6,1.8
					c0,0.7,0.3,1.2,0.8,1.7C375.8,648.2,376.3,648.4,377,648.4L377,648.4z"/>
			</g>
		</g>
	</g>
</g>
<g>
	<g>
		<g>
			<g>
				<path class="st0" d="M404.5,640.9c0.5,0.1,0.8,0,1-0.5l3.7-13.4c0.1-0.5-0.1-0.8-0.6-0.9c-0.5-0.2-0.8,0-1,0.5l-3.7,13.4
					C403.7,640.4,403.9,640.8,404.5,640.9L404.5,640.9z"/>
			</g>
		</g>
	</g>
</g>
<g>
	<g>
		<g>
			<g>
				<path class="st0" d="M421.2,570.4c0,0,20.4,39.9-14.2,62.1C407,632.4,384.4,603.8,421.2,570.4z"/>
			</g>
		</g>
	</g>
</g>
<g>
	<g>
		<g>
			<g>
				<path class="st0" d="M409.5,621.6c8.3-5.3,13-11.9,15.5-18.5c-1,9.4-5.4,19.6-17.5,27.3c-3.2-4.7-5.1-9.8-5.8-15.4
					c-0.7-5.6,0-11.1,2-16.4C402.7,607,404.7,614.6,409.5,621.6z"/>
			</g>
		</g>
	</g>
</g>
<g>
	<g>
		<g>
			<g>
				<path class="st0" d="M426.6,634.4c-0.2,0.5,0,0.8,0.5,1l13.5,4.3c0.5,0.1,0.8-0.1,1-0.6c0.2-0.5,0-0.9-0.5-1l-13.5-4.3
					C427.1,633.6,426.8,633.8,426.6,634.4L426.6,634.4z"/>
			</g>
		</g>
	</g>
</g>
<g>
	<g>
		<g>
			<g>
				<path class="st0" d="M498.1,654c0,0-41.2,18.9-62.9-16.7C435.2,637.2,465,615.7,498.1,654z"/>
			</g>
		</g>
	</g>
</g>
<g>
	<g>
		<g>
			<g>
				<path class="st0" d="M446.2,640.2c5.2,8.6,11.7,13.6,18.4,16.3c-9.6-1.4-19.8-6.2-27.4-18.6c0,0,13.8-9.9,32.4-2.6
					C461.2,634,453.4,635.6,446.2,640.2z"/>
			</g>
		</g>
	</g>
</g>
<g>
	<g>
		<g>
			<g>
				<path class="st0" d="M472.8,612.6c0.5,0.1,0.8,0,0.9-0.5l2.9-12.5c0-0.5-0.2-0.8-0.7-0.8c-0.5-0.1-0.8,0.1-1,0.5l-2.9,12.5
					C472.1,612.2,472.3,612.5,472.8,612.6L472.8,612.6z"/>
			</g>
		</g>
	</g>
</g>
<g>
	<g>
		<g>
			<g>
				<path class="st0" d="M485.1,546.7c0,0,22.8,36.3-10.3,58C474.8,604.7,450.6,578.9,485.1,546.7z"/>
			</g>
		</g>
	</g>
</g>
<g>
	<g>
		<g>
			<g>
				<path class="st0" d="M476.6,594.5c8-5.2,12.2-11.4,14.2-17.7c-0.4,8.8-4.2,18.3-15.7,25.9c-3.4-4.1-5.6-8.7-6.6-13.9
					c-1-5.2-0.7-10.3,0.9-15.4C469.1,581.4,471.5,588.4,476.6,594.5z"/>
			</g>
		</g>
	</g>
</g>
<g>
	<g>
		<g>
			<g>
				<path class="st0" d="M499.8,595.7c0,0.5,0.1,0.8,0.4,0.9l10.5,1.7c0.3,0,0.6-0.3,0.7-0.7c0.1-0.5-0.1-0.9-0.4-0.9l-10.5-1.7
					C500.1,595,499.8,595.3,499.8,595.7L499.8,595.7z"/>
			</g>
		</g>
	</g>
</g>
<g>
	<g>
		<g>
			<g>
				<path class="st0" d="M554.9,602.1c0,0-29.1,26-48.5-5.1C506.4,597,526.7,570.5,554.9,602.1z"/>
			</g>
		</g>
	</g>
</g>
<g>
	<g>
		<g>
			<g>
				<path class="st0" d="M514.9,597.9c4.7,7.5,10,11.2,15.2,12.7c-7.3,0.4-15.4-2.6-22.1-13.4c0,0,9.4-12.2,24-8.4
					C521.4,589.4,514.9,597.9,514.9,597.9z"/>
			</g>
		</g>
	</g>
</g>
<g>
	<g>
		<g>
			<g>
				<path class="st0" d="M533.5,564.7c0.4,0,0.8-0.2,0.9-0.5l1.5-10.6c0-0.3-0.3-0.6-0.8-0.6c-0.5,0-0.9,0.2-0.9,0.5l-1.5,10.6
					C532.7,564.4,533,564.7,533.5,564.7L533.5,564.7z"/>
			</g>
		</g>
	</g>
</g>
<g>
	<g>
		<g>
			<g>
				<path class="st0" d="M538.4,509.1c0,0,26.6,28.6-3.9,48.9C534.5,558,507.7,538.2,538.4,509.1z"/>
			</g>
		</g>
	</g>
</g>
<g>
	<g>
		<g>
			<g>
				<path class="st0" d="M535.2,549.5c7.3-4.9,10.9-10.3,12.2-15.7c0.6,7.3-2.2,15.5-12.8,22.6c0,0-12.4-9.1-8.9-23.9
					C526.6,543.1,535.2,549.5,535.2,549.5z"/>
			</g>
		</g>
	</g>
</g>
<g>
	<g>
		<g>
			<g>
				<path class="st0" d="M562.2,527c0.2,0.4,0.5,0.7,0.8,0.6l9.9-3.1c0.3-0.1,0.4-0.5,0.2-1c-0.2-0.4-0.5-0.7-0.8-0.6l-9.9,3.1
					C562.2,526.1,562.1,526.5,562.2,527L562.2,527z"/>
			</g>
		</g>
	</g>
</g>
<g>
	<g>
		<g>
			<g>
				<path class="st0" d="M612.9,508c0,0-13.5,36.2-44.4,17.2C568.5,525.1,574.3,492.4,612.9,508z"/>
			</g>
		</g>
	</g>
</g>
<g>
	<g>
		<g>
			<g>
				<path class="st0" d="M576.3,522.1c7.4,4.6,13.7,5.5,18.9,4.5c-6.2,3.6-14.5,4.6-25.2-2c0,0,2.6-15.1,17-18.2
					C578.1,511.6,576.3,522.1,576.3,522.1z"/>
			</g>
		</g>
	</g>
</g>
<g>
	<g>
		<g>
			<g>
				<path class="st0" d="M579.5,492.1c0.5-0.1,0.7-0.3,0.7-0.8l-2.2-11.8c-0.2-0.5-0.5-0.6-0.9-0.4c-0.5,0-0.7,0.3-0.7,0.8l2.2,11.8
					C578.7,492.1,579,492.2,579.5,492.1L579.5,492.1z"/>
			</g>
		</g>
	</g>
</g>
<g>
	<g>
		<g>
			<g>
				<path class="st0" d="M565.1,431.1c0,0,35,21.9,13.1,53.4C578.2,484.6,546,472.2,565.1,431.1z"/>
			</g>
		</g>
	</g>
</g>
<g>
	<g>
		<g>
			<g>
				<path class="st0" d="M575.9,475.2c5.3-7.6,6.8-14.6,6.2-20.7c3,7.6,3.3,17.3-4.3,28.3c0,0-14.9-5.7-16.6-22.6
					C564.1,467.1,569,472.2,575.9,475.2z"/>
			</g>
		</g>
	</g>
</g>
<g>
	<g>
		<g>
			<g>
				<path class="st0" d="M595.1,444.4c0.3,0.3,0.6,0.4,1,0.1l7.9-8.2c0.2-0.2,0.1-0.7-0.2-1c-0.3-0.4-0.6-0.4-1-0.1l-7.9,8.2
					C594.6,443.8,594.7,444.1,595.1,444.4L595.1,444.4z"/>
			</g>
		</g>
	</g>
</g>
<g>
	<g>
		<g>
			<g>
				<path class="st0" d="M634.3,399.8c0,0,3.3,40.2-34.1,39.5C600.2,439.3,591,406.4,634.3,399.8z"/>
			</g>
		</g>
	</g>
</g>
<g>
	<g>
		<g>
			<g>
				<path class="st0" d="M606.2,432.4c9,0.2,15.4-2.4,19.8-6.2c-4.2,6.6-11.6,12-24.6,11.8c0,0-4.2-15.2,8-25.7
					C603.3,421.9,606.2,432.4,606.2,432.4z"/>
			</g>
		</g>
	</g>
</g>
<g>
	<g>
		<g>
			<g>
				<path class="st0" d="M598.9,399.9c0.4-0.2,0.5-0.6,0.3-1l-6.6-11.4c-0.3-0.4-0.7-0.4-1.1-0.2c-0.4,0.2-0.5,0.6-0.4,1l6.7,11.4
					C598.1,400.1,598.5,400.2,598.9,399.9L598.9,399.9z"/>
			</g>
		</g>
	</g>
</g>
<g>
	<g>
		<g>
			<g>
				<path class="st0" d="M561.8,341.8c0,0,41.8,11.6,33,50.8C594.8,392.6,559.3,390,561.8,341.8z"/>
			</g>
		</g>
	</g>
</g>
<g>
	<g>
		<g>
			<g>
				<path class="st0" d="M589,383.7c2.1-9.5,0.9-17.1-2-23.1c5.8,6.9,9.7,16.7,6.7,30.4c-5.3-0.7-10.2-2.7-14.6-5.9
					c-4.4-3.2-7.7-7.2-10-12.1C574.4,379,581,382.6,589,383.7z"/>
			</g>
		</g>
	</g>
</g>
<g>
	<g>
		<g>
			<g>
				<path class="st0" d="M596.4,348.6c0.4,0.2,0.8,0.1,1-0.1l4.9-9c0.1-0.3-0.1-0.6-0.5-0.9c-0.4-0.2-0.9-0.2-1,0.1l-4.9,9
					C595.7,347.9,596,348.3,596.4,348.6L596.4,348.6z"/>
			</g>
		</g>
	</g>
</g>
<g>
	<g>
		<g>
			<g>
				<path class="st0" d="M619.7,300.5c0,0,15.2,35.2-20,42.4C599.6,342.9,581.2,315.5,619.7,300.5z"/>
			</g>
		</g>
	</g>
</g>
<g>
	<g>
		<g>
			<g>
				<path class="st0" d="M603.2,335.5c8.5-1.7,13.6-5.3,16.7-9.6c-1.9,6.8-7.2,13.1-19.5,15.7c0,0-8.5-12.7-0.3-24.7
					C597.3,326.7,603.2,335.5,603.2,335.5z"/>
			</g>
		</g>
	</g>
</g>
<g>
	<g>
		<g>
			<g>
				<path class="st0" d="M582.1,305.4c0.2-0.4,0.2-0.8,0-1l-8-4.9c-0.2-0.2-0.6,0.1-0.8,0.5c-0.2,0.4-0.2,0.9,0,1l8,4.9
					C581.5,306,581.8,305.8,582.1,305.4L582.1,305.4z"/>
			</g>
		</g>
	</g>
</g>
<g>
	<g>
		<g>
			<g>
				<path class="st0" d="M539,282.2c0,0,33.8-14.9,38.1,19.9C577.1,302.2,550.3,320.3,539,282.2z"/>
			</g>
		</g>
	</g>
</g>
<g>
	<g>
		<g>
			<g>
				<path class="st0" d="M570.4,298.7c-1-8.4-4-13.5-7.8-16.5c6.2,1.9,11.7,7.2,13.2,19.3c0,0-12.4,8.4-22.9,0.2
					C561.9,304.5,570.4,298.7,570.4,298.7z"/>
			</g>
		</g>
	</g>
</g>
<g>
	<g>
		<g>
			<g>
				<path class="st0" d="M564,263.5c0.4,0,0.8-0.3,0.8-0.6l0.2-10.7c0-0.3-0.4-0.6-0.8-0.6c-0.5,0-0.8,0.3-0.8,0.6l-0.2,10.7
					C563.2,263.3,563.5,263.6,564,263.5L564,263.5z"/>
			</g>
		</g>
	</g>
</g>
<g>
	<g>
		<g>
			<g>
				<path class="st0" d="M562.4,207.7c0,0,29.8,25.2,1.9,49C564.3,256.8,535.3,240.3,562.4,207.7z"/>
			</g>
		</g>
	</g>
</g>
<g>
	<g>
		<g>
			<g>
				<path class="st0" d="M564,248.2c6.7-5.8,9.6-11.6,10.3-17c1.4,7.2-0.3,15.7-10,24c0,0-13.4-7.6-11.7-22.7
					C554.7,242.9,564,248.2,564,248.2z"/>
			</g>
		</g>
	</g>
</g>
<g>
	<g>
		<g>
			<g>
				<path class="st0" d="M537.9,230.4c0.1-0.4-0.1-0.9-0.4-0.9l-10-2.6c-0.3-0.1-0.6,0.2-0.7,0.7c-0.1,0.5,0.1,0.9,0.4,0.9l10,2.6
					C537.4,231.2,537.8,230.9,537.9,230.4L537.9,230.4z"/>
			</g>
		</g>
	</g>
</g>
<g>
	<g>
		<g>
			<g>
				<path class="st0" d="M485.2,219.8c0,0,30.3-23.6,46.4,8.9C531.6,228.7,509.6,253.5,485.2,219.8z"/>
			</g>
		</g>
	</g>
</g>
<g>
	<g>
		<g>
			<g>
				<path class="st0" d="M523.4,227.1c-3.9-7.8-8.7-11.9-13.6-13.7c7.1,0.2,14.6,3.7,20.2,15c0,0-10.1,11.5-23.9,6.5
					C516.4,235,523.4,227.1,523.4,227.1z"/>
			</g>
		</g>
	</g>
</g>
<g>
	<g>
		<g>
			<g>
				<path class="st0" d="M497.1,190.7c0.4-0.2,0.6-0.6,0.5-0.9l-4.1-9.9c-0.1-0.3-0.6-0.4-1-0.2c-0.4,0.2-0.7,0.6-0.6,0.9l4.1,9.9
					C496.2,190.8,496.7,190.9,497.1,190.7L497.1,190.7z"/>
			</g>
		</g>
	</g>
</g>
<g>
	<g>
		<g>
			<g>
				<path class="st0" d="M473.3,140.3c0,0,37.3,11.1,21.4,44.2C494.7,184.4,461.5,181.1,473.3,140.3z"/>
			</g>
		</g>
	</g>
</g>
<g>
	<g>
		<g>
			<g>
				<path class="st0" d="M490.9,176.7c3.8-8,4.2-14.5,2.6-19.7c4.2,6,6,14.5,0.4,26c0,0-15.3-1.5-19.8-16.1
					C480.3,175.6,490.9,176.7,490.9,176.7z"/>
			</g>
		</g>
	</g>
</g>
<g>
	<g>
		<g>
			<g>
				<path class="st0" d="M467.7,173.9c0.2-0.4,0.2-0.8,0-1l-7.8-5.3c-0.2-0.2-0.6,0-0.9,0.4c-0.2,0.4-0.2,0.8,0,1l7.8,5.3
					C467,174.6,467.4,174.4,467.7,173.9L467.7,173.9z"/>
			</g>
		</g>
	</g>
</g>
<g>
	<g>
		<g>
			<g>
				<path class="st0" d="M425.3,148.7c0,0,34.5-13.3,37.5,21.7C462.8,170.5,435.2,187.3,425.3,148.7z"/>
			</g>
		</g>
	</g>
</g>
<g>
	<g>
		<g>
			<g>
				<path class="st0" d="M456.2,166.6c-0.7-8.4-3.5-13.7-7.2-16.9c6.1,2.2,11.5,7.8,12.5,19.9c0,0-12.8,7.8-23-0.9
					C447.4,172,456.2,166.6,456.2,166.6z"/>
			</g>
		</g>
	</g>
</g>
<g>
	<g>
		<g>
			<g>
				<path class="st0" d="M438.1,629.7c0.3-0.1,0.5-0.3,0.6-0.6c2.7-6.3,5-12.9,6.7-19.5c0.1-0.3,0.1-0.6,0-0.8
					c-0.1-0.3-0.4-0.5-0.7-0.5c-0.3-0.1-0.6,0-0.8,0.1c-0.3,0.2-0.4,0.4-0.4,0.7c-1.7,6.6-3.9,13-6.6,19.3c-0.3,0.6-0.1,1.1,0.5,1.4
					C437.6,629.9,437.9,629.9,438.1,629.7z"/>
			</g>
		</g>
	</g>
</g>
<g>
	<g>
		<g>
			<g>
				<path class="st0" d="M440.1,610.8c0.3,0.7,0.8,1.2,1.3,1.7c0.6,0.5,1.2,0.8,1.9,1c0.7,0.2,1.4,0.2,2.1,0.1
					c0.7-0.1,1.4-0.3,2-0.7c1.3-0.9,2.2-2.1,2.6-3.7c0.4-1.6,0.2-3-0.5-4.4c-0.4-0.6-0.8-1.2-1.4-1.6c-0.6-0.4-1.2-0.7-1.9-0.9
					c-0.7-0.2-1.4-0.2-2.1,0c-0.7,0.1-1.4,0.4-1.9,0.8c-1.2,0.8-2,2-2.4,3.5C439.2,608,439.4,609.4,440.1,610.8z"/>
			</g>
		</g>
	</g>
</g>
<g>
	<g>
		<g>
			<g>
				<path class="st0" d="M440.9,605.8c0,0.8,0.2,1.6,0.6,2.3c0.3,0.5,0.6,1,1.1,1.3c0.5,0.4,1,0.6,1.6,0.8c0.6,0.2,1.2,0.2,1.7,0.1
					c0.6-0.1,1.1-0.3,1.6-0.6c0.7-0.5,1.2-1.1,1.6-1.8c0,1.8-0.8,3.3-2.3,4.3c-0.5,0.3-1,0.5-1.6,0.6c-0.6,0.1-1.2,0-1.7-0.1
					c-0.6-0.2-1.1-0.4-1.5-0.8c-0.5-0.4-0.8-0.8-1.1-1.4C440.1,608.8,440.1,607.3,440.9,605.8z"/>
			</g>
		</g>
	</g>
</g>
<g>
	<g>
		<g>
			<g>
				<path class="st0" d="M474.1,615.5c0.2,0.2,0.4,0.3,0.6,0.4c5.7,0.7,11.2,1.9,16.7,3.6c0.6,0.1,1-0.1,1.2-0.7
					c0.2-0.6,0-1-0.6-1.3c-5.6-1.7-11.2-3-17-3.7c-0.6,0-1,0.3-1,0.9C473.9,615,474,615.3,474.1,615.5z"/>
			</g>
		</g>
	</g>
</g>
<g>
	<g>
		<g>
			<g>
				<path class="st0" d="M490.7,614.2c-1.2,0.8-2,1.9-2.4,3.3c-0.4,1.4-0.3,2.8,0.3,4.1c0.2,0.6,0.6,1.1,1.1,1.5
					c0.5,0.4,1,0.7,1.6,0.9c0.6,0.2,1.2,0.3,1.8,0.2c0.6-0.1,1.2-0.3,1.8-0.6c1.3-0.7,2.1-1.7,2.6-3.1s0.5-2.7,0-4.1
					c-0.3-0.6-0.6-1.2-1.1-1.7c-0.5-0.5-1.1-0.8-1.7-1c-0.7-0.2-1.3-0.3-2-0.2C491.9,613.6,491.3,613.8,490.7,614.2z"/>
			</g>
		</g>
	</g>
</g>
<g>
	<g>
		<g>
			<g>
				<path class="st0" d="M495.2,615.1c-0.8,0-1.5,0.1-2.1,0.5c-1,0.6-1.7,1.5-2.1,2.6c-0.4,1.1-0.3,2.2,0.2,3.3
					c0.3,0.7,0.7,1.2,1.3,1.6c-1.5-0.1-2.6-0.8-3.2-2.2c-0.5-1.1-0.6-2.2-0.2-3.3c0.3-1.1,1-2,2-2.7
					C492.4,614.1,493.8,614.2,495.2,615.1z"/>
			</g>
		</g>
	</g>
</g>
<g>
	<g>
		<g>
			<g>
				<path class="st0" d="M515.2,582.4c0.2-0.2,0.3-0.5,0.4-0.8l1.3-23c0.1-0.7-0.2-1.1-0.9-1.3c-0.7,0-1.1,0.4-1.1,1.2l-1.3,23
					c-0.1,0.7,0.2,1.1,0.9,1.3C514.8,582.7,515,582.6,515.2,582.4z"/>
			</g>
		</g>
	</g>
</g>
<g>
	<g>
		<g>
			<g>
				<path class="st0" d="M511.9,561.2c0.4,0.6,0.9,1.1,1.6,1.5c0.6,0.4,1.3,0.6,2.1,0.6c0.7,0,1.5-0.1,2.1-0.4
					c0.7-0.3,1.3-0.7,1.8-1.3c1.1-1.3,1.7-2.8,1.8-4.5c0.1-1.7-0.3-3.3-1.3-4.7c-0.4-0.6-0.9-1.1-1.6-1.5c-0.6-0.4-1.3-0.6-2.1-0.6
					c-0.7,0-1.5,0.1-2.1,0.4c-0.7,0.3-1.3,0.7-1.8,1.3c-1.1,1.3-1.7,2.8-1.8,4.5C510.5,558.2,510.9,559.8,511.9,561.2z"/>
			</g>
		</g>
	</g>
</g>
<g>
	<g>
		<g>
			<g>
				<path class="st0" d="M511.7,555.3c0.1,0.9,0.5,1.7,1,2.4c0.3,0.5,0.8,0.9,1.3,1.2c0.5,0.3,1.1,0.5,1.7,0.5
					c0.6,0,1.2-0.1,1.8-0.3c0.6-0.2,1-0.6,1.4-1.1c0.6-0.7,1-1.4,1.3-2.3c0.3,1.9-0.1,3.6-1.4,5.1c-0.4,0.5-0.9,0.8-1.4,1.1
					c-0.6,0.2-1.1,0.3-1.8,0.3c-0.6,0-1.2-0.2-1.7-0.5c-0.5-0.3-1-0.7-1.3-1.2C511.5,558.9,511.2,557.2,511.7,555.3z"/>
			</g>
		</g>
	</g>
</g>
<g>
	<g>
		<g>
			<g>
				<path class="st0" d="M538.9,562.6c0.3,0.1,0.6,0.2,0.9,0.1c7.6-1.7,15.2-3.2,22.9-4.5c0.7-0.1,1.1-0.4,1.1-1.2
					c-0.2-0.7-0.7-1-1.4-0.8c-7.7,1.2-15.4,2.7-23,4.5c-0.7,0.1-1.1,0.5-1,1.3C538.4,562.3,538.6,562.5,538.9,562.6z"/>
			</g>
		</g>
	</g>
</g>
<g>
	<g>
		<g>
			<g>
				<path class="st0" d="M559,553.9c-0.5,0.5-0.9,1.2-1.1,1.9c-0.2,0.7-0.3,1.5-0.1,2.2c0.1,0.7,0.4,1.4,0.9,2
					c0.4,0.6,1,1.1,1.7,1.4c1.5,0.8,3.1,1.1,4.8,0.8c1.7-0.3,3.1-1,4.3-2.3c0.5-0.5,0.9-1.2,1.2-1.9c0.2-0.7,0.3-1.4,0.2-2.2
					c-0.1-0.7-0.4-1.4-0.8-2c-0.4-0.6-1-1.1-1.6-1.5c-1.5-0.8-3.2-1.1-4.9-0.9C561.7,551.8,560.2,552.6,559,553.9z"/>
			</g>
		</g>
	</g>
</g>
<g>
	<g>
		<g>
			<g>
				<path class="st0" d="M564.9,552.5c-0.9,0.3-1.6,0.8-2.2,1.5c-0.4,0.4-0.7,1-0.9,1.5c-0.2,0.6-0.2,1.2-0.1,1.8
					c0.1,0.6,0.3,1.2,0.7,1.7c0.4,0.5,0.8,0.9,1.4,1.2c0.8,0.4,1.6,0.7,2.5,0.8c-1.8,0.7-3.6,0.6-5.3-0.3c-0.5-0.3-1-0.7-1.4-1.2
					s-0.6-1.1-0.7-1.7c-0.1-0.6-0.1-1.2,0.1-1.8c0.2-0.6,0.5-1.1,0.9-1.6C561.2,553,562.9,552.3,564.9,552.5z"/>
			</g>
		</g>
	</g>
</g>
<g>
	<g>
		<g>
			<g>
				<path class="st0" d="M565.4,520.5c0.2-0.3,0.2-0.6,0.2-0.9c-1-7.6-2.5-15.1-4.7-22.5c0-0.3-0.2-0.6-0.5-0.7
					c-0.3-0.2-0.5-0.2-0.8-0.1c-0.3,0.1-0.5,0.3-0.6,0.6c-0.1,0.3-0.1,0.6,0,0.9c2.1,7.3,3.6,14.7,4.6,22.2c0.1,0.7,0.4,1.1,1.2,1.1
					C565.1,520.9,565.3,520.7,565.4,520.5z"/>
			</g>
		</g>
	</g>
</g>
<g>
	<g>
		<g>
			<g>
				<path class="st0" d="M557,501.1c0.6,0.5,1.3,0.8,2,0.9c0.7,0.1,1.5,0.1,2.2-0.1c0.7-0.2,1.4-0.5,1.9-1c0.6-0.5,1-1.1,1.3-1.8
					c0.7-1.6,0.7-3.3,0.2-4.9c-0.5-1.7-1.5-3-2.9-4c-0.6-0.4-1.3-0.7-2-0.8c-0.7-0.1-1.5,0-2.2,0.2c-0.7,0.2-1.3,0.6-1.9,1.1
					c-0.5,0.5-0.9,1.1-1.2,1.8c-0.6,1.5-0.7,3.1-0.2,4.7C554.8,498.9,555.7,500.1,557,501.1z"/>
			</g>
		</g>
	</g>
</g>
<g>
	<g>
		<g>
			<g>
				<path class="st0" d="M555,495.8c0.4,0.8,1,1.4,1.7,1.9c0.5,0.4,1,0.6,1.6,0.7c0.6,0.1,1.2,0.1,1.8-0.1c0.6-0.2,1.1-0.5,1.6-0.9
					c0.4-0.4,0.8-0.9,1-1.5c0.4-0.8,0.5-1.7,0.4-2.6c1,1.7,1.1,3.5,0.4,5.3c-0.2,0.6-0.6,1.1-1,1.5c-0.5,0.4-1,0.7-1.6,0.9
					c-0.6,0.2-1.2,0.2-1.8,0.1c-0.6-0.1-1.1-0.4-1.6-0.7C555.9,499.2,555.1,497.7,555,495.8z"/>
			</g>
		</g>
	</g>
</g>
<g>
	<g>
		<g>
			<g>
				<path class="st0" d="M585,484.9c0.3,0,0.6-0.1,0.9-0.3c6.5-4.5,12.8-9.4,18.7-14.7c0.3-0.2,0.5-0.4,0.5-0.7s0-0.6-0.2-0.9
					c-0.2-0.2-0.5-0.4-0.8-0.3c-0.3,0-0.6,0.2-0.8,0.4c-5.9,5.2-12,10.1-18.5,14.5c-0.7,0.4-0.8,0.9-0.5,1.6
					C584.5,484.7,584.7,484.9,585,484.9z"/>
			</g>
		</g>
	</g>
</g>
<g>
	<g>
		<g>
			<g>
				<path class="st0" d="M599.3,468.2c-0.2,0.7-0.2,1.5,0,2.2c0.2,0.7,0.5,1.4,1,2c0.5,0.6,1.1,1,1.8,1.3c0.7,0.3,1.4,0.4,2.2,0.3
					c1.8-0.1,3.3-0.8,4.6-2c1.3-1.2,2.1-2.7,2.5-4.4c0.1-0.7,0.1-1.5-0.1-2.2c-0.2-0.7-0.6-1.4-1.1-1.9c-0.5-0.5-1.1-0.9-1.8-1.2
					c-0.7-0.3-1.4-0.3-2.2-0.2c-1.7,0.2-3.2,0.8-4.4,2C600.4,465.1,599.6,466.5,599.3,468.2z"/>
			</g>
		</g>
	</g>
</g>
<g>
	<g>
		<g>
			<g>
				<path class="st0" d="M603.3,463.9c-0.5,0.7-0.9,1.6-1,2.5c-0.1,0.6-0.1,1.2,0,1.8c0.2,0.6,0.4,1.1,0.9,1.6
					c0.4,0.5,0.9,0.8,1.5,1c0.6,0.2,1.2,0.3,1.8,0.2c0.9-0.1,1.8-0.4,2.6-0.9c-1.2,1.7-2.7,2.6-4.8,2.7c-0.6,0.1-1.2,0-1.8-0.3
					c-0.6-0.2-1.1-0.6-1.5-1.1c-0.4-0.5-0.7-1-0.8-1.6c-0.1-0.6-0.1-1.2,0-1.8C600.6,466.3,601.7,464.9,603.3,463.9z"/>
			</g>
		</g>
	</g>
</g>
<g>
	<g>
		<g>
			<g>
				<path class="st0" d="M596.2,434.2c0.1-0.3,0-0.6-0.2-0.9l-11.4-19.2c-0.3-0.6-0.8-0.8-1.5-0.5c-0.6,0.4-0.7,0.9-0.3,1.5
					l11.4,19.2c0.3,0.6,0.8,0.8,1.5,0.5C596,434.8,596.1,434.5,596.2,434.2z"/>
			</g>
		</g>
	</g>
</g>
<g>
	<g>
		<g>
			<g>
				<path class="st0" d="M581.9,419.1c0.7,0.3,1.4,0.4,2.1,0.3c0.7-0.1,1.4-0.3,2.1-0.7c0.6-0.4,1.2-0.9,1.6-1.5
					c0.4-0.6,0.7-1.3,0.8-2c0.3-1.6,0-3.2-0.9-4.6c-0.8-1.4-2.1-2.4-3.6-3c-0.7-0.3-1.4-0.4-2.1-0.3c-0.7,0.1-1.4,0.3-2.1,0.7
					c-0.6,0.4-1.2,0.9-1.6,1.5c-0.4,0.6-0.7,1.3-0.8,2c-0.2,1.6,0.1,3.2,0.9,4.6C579.1,417.5,580.3,418.5,581.9,419.1z"/>
			</g>
		</g>
	</g>
</g>
<g>
	<g>
		<g>
			<g>
				<path class="st0" d="M578.6,414.4c0.6,0.6,1.3,1.1,2.1,1.4c0.6,0.2,1.2,0.3,1.8,0.2c0.6-0.1,1.2-0.2,1.7-0.5
					c0.5-0.3,1-0.7,1.3-1.2c0.3-0.5,0.5-1.1,0.6-1.7c0.1-0.9,0.1-1.7-0.2-2.6c1.3,1.4,1.8,3,1.6,4.9c-0.1,0.6-0.3,1.2-0.6,1.7
					c-0.3,0.5-0.8,0.9-1.3,1.2c-0.5,0.3-1.1,0.5-1.7,0.5c-0.6,0.1-1.2,0-1.8-0.2C580.3,417.5,579.2,416.3,578.6,414.4z"/>
			</g>
		</g>
	</g>
</g>
<g>
	<g>
		<g>
			<g>
				<path class="st0" d="M600.8,393.3c0.3,0,0.6-0.2,0.8-0.4c5.4-5.5,9.8-11.7,13.1-18.6c0.2-0.3,0.2-0.6,0.2-0.9
					c-0.1-0.3-0.3-0.5-0.6-0.7c-0.3-0.1-0.6-0.1-0.9,0c-0.3,0.1-0.5,0.4-0.6,0.7c-3.2,6.7-7.4,12.8-12.7,18.1
					c-0.5,0.5-0.6,1-0.1,1.6C600.3,393.3,600.5,393.4,600.8,393.3z"/>
			</g>
		</g>
	</g>
</g>
<g>
	<g>
		<g>
			<g>
				<path class="st0" d="M609.1,374.6c0.3,1.5,1.1,2.7,2.5,3.5c1.4,0.8,2.8,0.8,4.2,0.2c1.6-0.8,2.8-2,3.5-3.6
					c0.7-1.6,0.8-3.3,0.3-5c-0.2-0.7-0.6-1.3-1.1-1.9s-1.1-0.9-1.8-1.2c-0.7-0.3-1.4-0.3-2.1-0.3c-0.7,0.1-1.4,0.3-2.1,0.7
					c-1.4,0.7-2.4,1.8-3,3.2C608.9,371.6,608.7,373.1,609.1,374.6z"/>
			</g>
		</g>
	</g>
</g>
<g>
	<g>
		<g>
			<g>
				<path class="st0" d="M611,369.6c-0.1,0.8-0.1,1.7,0.1,2.5c0.1,0.6,0.4,1.1,0.8,1.6c0.4,0.5,0.9,0.8,1.4,1.1s1.1,0.4,1.7,0.4
					c0.6,0,1.2-0.2,1.7-0.4c0.8-0.4,1.5-1,2-1.8c-0.4,2-1.4,3.4-3.3,4.3c-0.6,0.3-1.1,0.4-1.7,0.4c-0.6,0-1.2-0.2-1.7-0.4
					c-0.5-0.3-1-0.7-1.4-1.2c-0.4-0.5-0.6-1-0.7-1.6C609.6,372.6,609.9,371,611,369.6z"/>
			</g>
		</g>
	</g>
</g>
<g>
	<g>
		<g>
			<g>
				<path class="st0" d="M593.2,338.2c0-0.3-0.1-0.5-0.3-0.7l-14.4-12.3c-0.5-0.4-1-0.4-1.5,0.1c-0.4,0.5-0.4,1,0.1,1.5l14.4,12.3
					c0.5,0.4,1,0.4,1.4-0.1C593.1,338.7,593.2,338.5,593.2,338.2z"/>
			</g>
		</g>
	</g>
</g>
<g>
	<g>
		<g>
			<g>
				<path class="st0" d="M577.1,330.4c1.5-0.1,2.7-0.8,3.6-1.9c1-1.1,1.4-2.4,1.3-3.9c-0.1-0.7-0.2-1.4-0.6-2
					c-0.3-0.6-0.8-1.2-1.3-1.6c-0.5-0.5-1.1-0.8-1.8-1c-0.7-0.2-1.4-0.3-2.1-0.2c-1.5,0.1-2.7,0.8-3.6,1.9c-1,1.1-1.4,2.4-1.3,3.9
					c0,0.7,0.2,1.4,0.6,2c0.3,0.6,0.8,1.2,1.3,1.6c0.5,0.5,1.1,0.8,1.8,1C575.7,330.4,576.4,330.5,577.1,330.4z"/>
			</g>
		</g>
	</g>
</g>
<g>
	<g>
		<g>
			<g>
				<path class="st0" d="M573.1,327.6c0.7,0.3,1.4,0.5,2.2,0.4c1.2-0.1,2.2-0.6,3-1.5c0.8-0.9,1.1-2,1-3.2c-0.1-0.8-0.3-1.5-0.7-2.1
					c1.5,0.7,2.4,1.9,2.5,3.6c0.1,1.2-0.3,2.3-1,3.2c-0.8,0.9-1.8,1.4-3,1.6C575.4,329.6,574.1,329,573.1,327.6z"/>
			</g>
		</g>
	</g>
</g>
<g>
	<g>
		<g>
			<g>
				<path class="st0" d="M582.7,300.4c0.3-0.2,0.4-0.5,0.5-0.8c2.1-7.8,2.9-15.7,2.5-23.8c0-0.7-0.4-1.1-1.1-1.2
					c-0.7,0.1-1,0.6-0.9,1.3c0.4,7.8-0.5,15.6-2.5,23.1c-0.3,0.7,0,1.2,0.7,1.5C582.2,300.7,582.4,300.6,582.7,300.4z"/>
			</g>
		</g>
	</g>
</g>
<g>
	<g>
		<g>
			<g>
				<path class="st0" d="M581,278.9c1,1.2,2.2,1.8,3.8,1.9c1.6,0,2.9-0.7,3.8-2c1-1.5,1.5-3.2,1.4-5c-0.1-1.8-0.8-3.4-2.1-4.8
					c-0.5-0.5-1.1-0.9-1.8-1.2c-0.7-0.3-1.4-0.3-2.2-0.2c-0.7,0.1-1.4,0.4-2,0.8c-0.6,0.4-1.1,1-1.5,1.6c-0.9,1.4-1.2,2.9-1.1,4.6
					C579.3,276.1,579.9,277.6,581,278.9z"/>
			</g>
		</g>
	</g>
</g>
<g>
	<g>
		<g>
			<g>
				<path class="st0" d="M580.2,273.2c0.3,0.8,0.7,1.6,1.3,2.2c0.4,0.5,0.9,0.8,1.4,1.1c0.6,0.3,1.2,0.4,1.8,0.3
					c0.6,0,1.2-0.2,1.7-0.5c0.5-0.3,1-0.7,1.3-1.2c0.5-0.8,0.9-1.7,1-2.6c0.6,2,0.4,3.9-0.8,5.6c-0.4,0.5-0.8,0.9-1.3,1.2
					c-0.5,0.3-1.1,0.4-1.7,0.5c-0.6,0-1.2-0.1-1.8-0.4c-0.6-0.3-1-0.7-1.4-1.1C580.4,276.7,579.9,275.1,580.2,273.2z"/>
			</g>
		</g>
	</g>
</g>
<g>
	<g>
		<g>
			<g>
				<path class="st0" d="M559.2,258.8c-0.2-0.2-0.4-0.4-0.7-0.4c-6.2-0.9-12-2.9-17.5-5.9c-0.6-0.3-1-0.2-1.4,0.4
					c-0.3,0.6-0.2,1.1,0.4,1.4c5.7,3.1,11.8,5.2,18.2,6.1c0.7,0.1,1.1-0.2,1.2-0.9C559.4,259.3,559.4,259,559.2,258.8z"/>
			</g>
		</g>
	</g>
</g>
<g>
	<g>
		<g>
			<g>
				<path class="st0" d="M541,257.9c1.4-0.5,2.5-1.4,3.1-2.8c0.6-1.3,0.7-2.7,0.3-4.1c-0.4-1.3-1.1-2.3-2.3-3
					c-1.2-0.7-2.4-0.8-3.7-0.5c-1.5,0.3-2.6,1-3.4,2.3c-0.8,1.2-1.1,2.6-0.8,4c0.2,0.7,0.5,1.4,1,2s1,1.1,1.7,1.5
					c0.7,0.4,1.4,0.6,2.1,0.7S540.2,258.2,541,257.9z"/>
			</g>
		</g>
	</g>
</g>
<g>
	<g>
		<g>
			<g>
				<path class="st0" d="M536.2,255.9c0.8,0.2,1.6,0.3,2.4,0.1c1.2-0.3,2-1,2.6-2.1c0.6-1.1,0.7-2.2,0.4-3.4c-0.2-0.7-0.5-1.4-1-1.9
					c1.5,0.4,2.5,1.4,2.9,2.9c0.4,1.2,0.3,2.3-0.3,3.4c-0.5,1.1-1.4,1.8-2.5,2.2C539,257.6,537.5,257.2,536.2,255.9z"/>
			</g>
		</g>
	</g>
</g>
<g>
	<g>
		<g>
			<g>
				<path class="st0" d="M534.4,221.8c0.2-0.3,0.3-0.6,0.2-0.9c-0.4-4.1-1-8.1-1.9-12.1c-0.9-4-2.1-8-3.6-11.8
					c-0.2-0.8-0.7-1-1.5-0.8c-0.7,0.4-0.8,0.9-0.4,1.6c1.5,3.7,2.6,7.5,3.5,11.5c0.9,3.9,1.5,7.9,1.9,11.9c0,0.8,0.4,1.2,1.2,1.2
					C534,222.2,534.2,222.1,534.4,221.8z"/>
			</g>
		</g>
	</g>
</g>
<g>
	<g>
		<g>
			<g>
				<path class="st0" d="M525.6,201.4c2.8,1.7,6.1,0.9,7.2-2.5c0.5-1.9,0.3-3.8-0.6-5.6c-0.9-1.9-2.2-3.2-4.1-4
					c-1.5-0.7-3-0.5-4.3,0.6c-1.1,1-1.8,2.3-1.9,3.8c-0.2,1.5,0,3,0.7,4.4C523.2,199.4,524.2,200.6,525.6,201.4z"/>
			</g>
		</g>
	</g>
</g>
<g>
	<g>
		<g>
			<g>
				<path class="st0" d="M523,196.4c0.6,0.6,1.2,1.2,2,1.5c1.1,0.6,2.3,0.7,3.5,0.2c1.2-0.5,2-1.5,2.2-2.8c0.2-1,0.1-2-0.2-3
					c1.4,1.7,1.9,3.7,1.4,5.9c-0.8,2.8-3.6,3.5-5.9,2.2C524.4,199.6,523.4,198.2,523,196.4z"/>
			</g>
		</g>
	</g>
</g>
<g>
	<g>
		<g>
			<g>
				<path class="st0" d="M503.2,197.1c-0.3,0-0.6,0-0.9,0.2c-1.7,0.9-3.6,1.3-5.5,1.3c-2,0-4-0.2-5.9-0.7c-2-0.5-3.9-1.1-5.8-1.8
					c-1.9-0.7-3.8-1.4-5.8-2.2c-0.3-0.2-0.6-0.3-0.9-0.2c-0.3,0.1-0.6,0.3-0.7,0.6c-0.1,0.3-0.1,0.6,0.1,0.9
					c0.2,0.3,0.4,0.5,0.8,0.5c1.9,0.8,3.9,1.5,5.8,2.3c2,0.7,4,1.4,6,1.9c2.1,0.5,4.2,0.8,6.4,0.7c2.3,0,4.4-0.6,6.4-1.6
					c0.7-0.4,1-1.2,0.6-1.6C503.8,197.3,503.5,197.1,503.2,197.1z"/>
			</g>
		</g>
	</g>
</g>
<g>
	<g>
		<g>
			<g>
				<path class="st0" d="M480.5,199.6c0.7-0.2,1.4-0.5,2-1c0.6-0.5,1-1.1,1.3-1.8c0.3-0.7,0.4-1.4,0.3-2.2c-0.1-0.8-0.3-1.5-0.8-2.1
					c-0.9-1.5-2.2-2.6-3.8-3.3c-1.6-0.7-3.3-0.9-5-0.5c-0.8,0.1-1.4,0.4-2,0.9c-0.6,0.5-1.1,1-1.4,1.7c-0.3,0.7-0.5,1.4-0.4,2.2
					s0.3,1.5,0.6,2.1c1,1.6,2.3,2.8,4,3.5C476.9,199.9,478.6,200,480.5,199.6z"/>
			</g>
		</g>
	</g>
</g>
<g>
	<g>
		<g>
			<g>
				<path class="st0" d="M474.3,197.5c1,0.2,1.9,0.2,2.9,0c0.6-0.1,1.2-0.4,1.7-0.8c0.5-0.4,0.9-0.9,1.1-1.5
					c0.2-0.6,0.3-1.2,0.3-1.8c-0.1-0.6-0.3-1.2-0.6-1.7c-0.5-0.8-1.1-1.5-1.9-2c2,0.4,3.5,1.4,4.6,3.1c0.3,0.5,0.6,1.1,0.6,1.7
					c0.1,0.6,0,1.2-0.2,1.8c-0.2,0.6-0.6,1.1-1.1,1.5c-0.5,0.4-1,0.7-1.6,0.8C477.9,199.2,476,198.8,474.3,197.5z"/>
			</g>
		</g>
	</g>
</g>
<g>
	<g>
		<g>
			<g>
				<path class="st0" d="M316.4,648.4h-0.3c-6.7-0.8-13.4-1.8-20.1-3.2c-6.6-1.3-13.2-2.9-19.7-4.8c-6.5-1.9-12.9-4-19.3-6.3
					c-6.3-2.4-12.6-5-18.7-7.9c-6.1-2.9-12.2-6-18-9.3c-5.9-3.4-11.6-6.9-17.2-10.8c-5.6-3.8-11.1-7.9-16.3-12.1
					c-5.3-4.3-10.4-8.7-15.3-13.4c-4.9-4.7-9.7-9.5-14.2-14.6c-4.5-5-8.9-10.3-13-15.7c-4.1-5.4-8-11-11.7-16.7
					c-3.7-5.7-7.1-11.6-10.4-17.6c-3.2-6-6.2-12.1-8.9-18.3c-2.7-6.2-5.2-12.6-7.4-19c-2.2-6.4-4.2-12.9-5.9-19.5
					c-1.7-6.6-3.2-13.2-4.3-19.9c-1.2-6.7-2.1-13.4-2.7-20.2c-0.6-6.8-1-13.6-1.1-20.4c-0.1-6.8,0.1-13.6,0.5-20.4
					c0.4-6.8,1.1-13.6,2.1-20.3c1-6.7,2.2-13.4,3.7-20.1c1.5-6.6,3.3-13.2,5.3-19.7c2-6.5,4.3-12.9,6.8-19.2
					c2.5-6.3,5.3-12.5,8.4-18.6c3-6.1,6.3-12,9.8-17.9c3.5-5.8,7.2-11.5,11.2-17c4-5.5,8.1-10.9,12.5-16.1c4.4-5.2,9-10.2,13.7-15
					c4.8-4.8,9.7-9.4,14.9-13.9c5.1-4.4,10.5-8.6,16-12.6c5.5-4,11.1-7.8,16.9-11.3c5.8-3.5,11.7-6.8,17.7-9.9
					c0.6-0.3,1.2-0.4,1.9-0.1c0.7,0.2,1.1,0.6,1.4,1.2c0.3,0.6,0.4,1.3,0.1,1.9c-0.2,0.7-0.6,1.1-1.2,1.5
					c-10.3,5.2-20.1,11-29.6,17.6c-9.5,6.5-18.4,13.7-26.9,21.5c-8.5,7.8-16.3,16.1-23.7,25s-14,18.3-20,28.1
					c-6,9.8-11.3,20-15.9,30.6c-4.6,10.6-8.5,21.4-11.6,32.5c-3.1,11.1-5.4,22.4-7,33.8c-1.6,11.4-2.3,22.9-2.3,34.5
					c0,127.3,94.7,234.1,220.2,248.6c0.7,0.1,1.2,0.3,1.6,0.9c0.4,0.5,0.6,1.1,0.6,1.8c0,0.7-0.3,1.2-0.8,1.7
					C317.6,648.2,317.1,648.4,316.4,648.4L316.4,648.4z"/>
			</g>
		</g>
	</g>
</g>
<g>
	<g>
		<g>
			<g>
				<path class="st0" d="M288.9,640.9c-0.5,0.1-0.8,0-1-0.5l-3.7-13.4c-0.1-0.5,0.1-0.8,0.6-0.9c0.5-0.2,0.8,0,1,0.5l3.7,13.4
					C289.7,640.4,289.5,640.8,288.9,640.9L288.9,640.9z"/>
			</g>
		</g>
	</g>
</g>
<g>
	<g>
		<g>
			<g>
				<path class="st0" d="M272.2,570.4c0,0-20.4,39.9,14.2,62.1C286.4,632.4,309,603.8,272.2,570.4z"/>
			</g>
		</g>
	</g>
</g>
<g>
	<g>
		<g>
			<g>
				<path class="st0" d="M283.9,621.6c-8.3-5.3-13-11.9-15.5-18.5c1,9.4,5.4,19.6,17.5,27.3c3.2-4.7,5.1-9.8,5.8-15.4
					c0.7-5.6,0-11.1-2-16.4C290.7,607,288.7,614.6,283.9,621.6z"/>
			</g>
		</g>
	</g>
</g>
<g>
	<g>
		<g>
			<g>
				<path class="st0" d="M266.8,634.4c0.2,0.5,0,0.8-0.5,1l-13.5,4.3c-0.5,0.1-0.8-0.1-1-0.6c-0.2-0.5,0-0.9,0.5-1l13.5-4.3
					C266.3,633.6,266.6,633.8,266.8,634.4L266.8,634.4z"/>
			</g>
		</g>
	</g>
</g>
<g>
	<g>
		<g>
			<g>
				<path class="st0" d="M195.3,654c0,0,41.2,18.9,62.9-16.7C258.2,637.2,228.4,615.7,195.3,654z"/>
			</g>
		</g>
	</g>
</g>
<g>
	<g>
		<g>
			<g>
				<path class="st0" d="M247.2,640.2c-5.2,8.6-11.8,13.6-18.4,16.3c9.6-1.4,19.8-6.2,27.4-18.6c0,0-13.8-9.9-32.4-2.6
					C232.2,634,240,635.6,247.2,640.2z"/>
			</g>
		</g>
	</g>
</g>
<g>
	<g>
		<g>
			<g>
				<path class="st0" d="M220.6,612.6c-0.5,0.1-0.8,0-0.9-0.5l-2.9-12.5c0-0.5,0.2-0.8,0.7-0.8c0.5-0.1,0.8,0.1,1,0.5l2.9,12.5
					C221.3,612.2,221.1,612.5,220.6,612.6L220.6,612.6z"/>
			</g>
		</g>
	</g>
</g>
<g>
	<g>
		<g>
			<g>
				<path class="st0" d="M208.3,546.7c0,0-22.8,36.3,10.3,58C218.6,604.7,242.8,578.9,208.3,546.7z"/>
			</g>
		</g>
	</g>
</g>
<g>
	<g>
		<g>
			<g>
				<path class="st0" d="M216.8,594.5c-8-5.2-12.2-11.4-14.2-17.7c0.4,8.8,4.2,18.3,15.7,25.9c3.4-4.1,5.6-8.7,6.6-13.9
					c1-5.2,0.7-10.3-0.9-15.4C224.3,581.4,221.9,588.4,216.8,594.5z"/>
			</g>
		</g>
	</g>
</g>
<g>
	<g>
		<g>
			<g>
				<path class="st0" d="M193.6,595.7c0,0.5-0.1,0.8-0.4,0.9l-10.5,1.7c-0.3,0-0.6-0.3-0.7-0.7c-0.1-0.5,0.1-0.9,0.4-0.9L193,595
					C193.3,595,193.6,595.3,193.6,595.7L193.6,595.7z"/>
			</g>
		</g>
	</g>
</g>
<g>
	<g>
		<g>
			<g>
				<path class="st0" d="M138.5,602.1c0,0,29.1,26,48.5-5.1C187,597,166.7,570.5,138.5,602.1z"/>
			</g>
		</g>
	</g>
</g>
<g>
	<g>
		<g>
			<g>
				<path class="st0" d="M178.5,597.9c-4.7,7.5-10,11.2-15.2,12.7c7.3,0.4,15.4-2.6,22.1-13.4c0,0-9.4-12.2-24-8.4
					C172,589.4,178.5,597.9,178.5,597.9z"/>
			</g>
		</g>
	</g>
</g>
<g>
	<g>
		<g>
			<g>
				<path class="st0" d="M159.9,564.7c-0.4,0-0.8-0.2-0.9-0.5l-1.5-10.6c0-0.3,0.3-0.6,0.8-0.6c0.5,0,0.9,0.2,0.9,0.5l1.5,10.6
					C160.7,564.4,160.4,564.7,159.9,564.7L159.9,564.7z"/>
			</g>
		</g>
	</g>
</g>
<g>
	<g>
		<g>
			<g>
				<path class="st0" d="M155,509.1c0,0-26.6,28.6,3.9,48.9C158.9,558,185.7,538.2,155,509.1z"/>
			</g>
		</g>
	</g>
</g>
<g>
	<g>
		<g>
			<g>
				<path class="st0" d="M158.2,549.5c-7.3-4.9-10.9-10.3-12.2-15.7c-0.6,7.3,2.2,15.5,12.8,22.6c0,0,12.4-9.1,8.9-23.9
					C166.8,543.1,158.2,549.5,158.2,549.5z"/>
			</g>
		</g>
	</g>
</g>
<g>
	<g>
		<g>
			<g>
				<path class="st0" d="M131.2,527c-0.2,0.4-0.5,0.7-0.8,0.6l-9.9-3.1c-0.3-0.1-0.4-0.5-0.2-1c0.2-0.4,0.5-0.7,0.8-0.6l9.9,3.1
					C131.2,526.1,131.3,526.5,131.2,527L131.2,527z"/>
			</g>
		</g>
	</g>
</g>
<g>
	<g>
		<g>
			<g>
				<path class="st0" d="M80.5,508c0,0,13.5,36.2,44.4,17.2C124.9,525.1,119.1,492.4,80.5,508z"/>
			</g>
		</g>
	</g>
</g>
<g>
	<g>
		<g>
			<g>
				<path class="st0" d="M117.1,522.1c-7.4,4.6-13.7,5.5-18.9,4.5c6.2,3.6,14.5,4.6,25.2-2c0,0-2.6-15.1-17-18.2
					C115.3,511.6,117.1,522.1,117.1,522.1z"/>
			</g>
		</g>
	</g>
</g>
<g>
	<g>
		<g>
			<g>
				<path class="st0" d="M113.9,492.1c-0.5-0.1-0.7-0.3-0.7-0.8l2.2-11.8c0.2-0.5,0.5-0.6,0.9-0.4c0.5,0,0.7,0.3,0.7,0.8l-2.3,11.8
					C114.7,492.1,114.4,492.2,113.9,492.1L113.9,492.1z"/>
			</g>
		</g>
	</g>
</g>
<g>
	<g>
		<g>
			<g>
				<path class="st0" d="M128.3,431.1c0,0-35,21.9-13.1,53.4C115.2,484.6,147.4,472.2,128.3,431.1z"/>
			</g>
		</g>
	</g>
</g>
<g>
	<g>
		<g>
			<g>
				<path class="st0" d="M117.5,475.2c-5.3-7.6-6.8-14.6-6.2-20.7c-3,7.6-3.3,17.3,4.3,28.3c0,0,14.9-5.7,16.6-22.6
					C129.3,467.1,124.4,472.2,117.5,475.2z"/>
			</g>
		</g>
	</g>
</g>
<g>
	<g>
		<g>
			<g>
				<path class="st0" d="M98.3,444.4c-0.3,0.3-0.6,0.4-1,0.1l-7.9-8.2c-0.2-0.2-0.1-0.7,0.2-1c0.3-0.4,0.6-0.4,1-0.1l7.9,8.2
					C98.8,443.8,98.7,444.1,98.3,444.4L98.3,444.4z"/>
			</g>
		</g>
	</g>
</g>
<g>
	<g>
		<g>
			<g>
				<path class="st0" d="M59.1,399.8c0,0-3.3,40.2,34.1,39.5C93.2,439.3,102.4,406.4,59.1,399.8z"/>
			</g>
		</g>
	</g>
</g>
<g>
	<g>
		<g>
			<g>
				<path class="st0" d="M87.2,432.4c-9,0.2-15.4-2.4-19.8-6.2c4.2,6.6,11.6,12,24.6,11.8c0,0,4.2-15.2-8-25.7
					C90.1,421.9,87.2,432.4,87.2,432.4z"/>
			</g>
		</g>
	</g>
</g>
<g>
	<g>
		<g>
			<g>
				<path class="st0" d="M94.5,399.9c-0.4-0.2-0.5-0.6-0.3-1l6.6-11.4c0.3-0.4,0.7-0.4,1.1-0.2c0.4,0.2,0.5,0.6,0.4,1l-6.7,11.4
					C95.3,400.1,95,400.2,94.5,399.9L94.5,399.9z"/>
			</g>
		</g>
	</g>
</g>
<g>
	<g>
		<g>
			<g>
				<path class="st0" d="M131.6,341.8c0,0-41.8,11.6-33,50.8C98.6,392.6,134.2,390,131.6,341.8z"/>
			</g>
		</g>
	</g>
</g>
<g>
	<g>
		<g>
			<g>
				<path class="st0" d="M104.4,383.7c-2.1-9.5-0.9-17.1,2-23.1c-5.8,6.9-9.7,16.7-6.7,30.4c5.3-0.7,10.2-2.7,14.6-5.9
					c4.4-3.2,7.7-7.2,10-12.1C119,379,112.4,382.6,104.4,383.7z"/>
			</g>
		</g>
	</g>
</g>
<g>
	<g>
		<g>
			<g>
				<path class="st0" d="M97,348.6c-0.4,0.2-0.8,0.1-1-0.1l-4.9-9c-0.1-0.3,0.1-0.6,0.5-0.9c0.4-0.2,0.9-0.2,1,0.1l4.9,9
					C97.7,347.9,97.5,348.3,97,348.6L97,348.6z"/>
			</g>
		</g>
	</g>
</g>
<g>
	<g>
		<g>
			<g>
				<path class="st0" d="M73.7,300.5c0,0-15.2,35.2,20,42.4C93.8,342.9,112.2,315.5,73.7,300.5z"/>
			</g>
		</g>
	</g>
</g>
<g>
	<g>
		<g>
			<g>
				<path class="st0" d="M90.2,335.5c-8.5-1.7-13.6-5.3-16.7-9.6c1.9,6.8,7.2,13.1,19.5,15.7c0,0,8.5-12.7,0.3-24.7
					C96.1,326.7,90.2,335.5,90.2,335.5z"/>
			</g>
		</g>
	</g>
</g>
<g>
	<g>
		<g>
			<g>
				<path class="st0" d="M111.3,305.4c-0.2-0.4-0.2-0.8,0-1l8.1-4.9c0.2-0.2,0.6,0.1,0.8,0.5c0.2,0.4,0.2,0.9,0,1l-8,4.9
					C111.9,306.1,111.6,305.9,111.3,305.4L111.3,305.4z"/>
			</g>
		</g>
	</g>
</g>
<g>
	<g>
		<g>
			<g>
				<path class="st0" d="M154.4,282.2c0,0-33.8-14.9-38.1,19.9C116.3,302.2,143.1,320.3,154.4,282.2z"/>
			</g>
		</g>
	</g>
</g>
<g>
	<g>
		<g>
			<g>
				<path class="st0" d="M123,298.7c1-8.4,4-13.5,7.8-16.5c-6.2,1.9-11.7,7.2-13.2,19.3c0,0,12.4,8.4,22.9,0.2
					C131.6,304.5,123,298.7,123,298.7z"/>
			</g>
		</g>
	</g>
</g>
<g>
	<g>
		<g>
			<g>
				<path class="st0" d="M129.4,263.5c-0.4,0-0.8-0.3-0.8-0.6l-0.2-10.7c0-0.3,0.4-0.6,0.8-0.6c0.5,0,0.8,0.3,0.8,0.6l0.2,10.7
					C130.3,263.3,129.9,263.6,129.4,263.5L129.4,263.5z"/>
			</g>
		</g>
	</g>
</g>
<g>
	<g>
		<g>
			<g>
				<path class="st0" d="M131,207.7c0,0-29.8,25.3-1.9,49C129.1,256.8,158.1,240.3,131,207.7z"/>
			</g>
		</g>
	</g>
</g>
<g>
	<g>
		<g>
			<g>
				<path class="st0" d="M129.4,248.2c-6.7-5.8-9.6-11.6-10.3-17c-1.4,7.2,0.3,15.7,10,24c0,0,13.4-7.6,11.7-22.7
					C138.7,242.9,129.4,248.2,129.4,248.2z"/>
			</g>
		</g>
	</g>
</g>
<g>
	<g>
		<g>
			<g>
				<path class="st0" d="M155.5,230.4c-0.1-0.4,0.1-0.9,0.4-0.9l10-2.6c0.3-0.1,0.6,0.2,0.7,0.7c0.1,0.5,0,0.9-0.4,0.9l-10,2.6
					C156,231.2,155.7,230.9,155.5,230.4L155.5,230.4z"/>
			</g>
		</g>
	</g>
</g>
<g>
	<g>
		<g>
			<g>
				<path class="st0" d="M208.2,219.8c0,0-30.3-23.6-46.4,8.9C161.8,228.7,183.8,253.5,208.2,219.8z"/>
			</g>
		</g>
	</g>
</g>
<g>
	<g>
		<g>
			<g>
				<path class="st0" d="M170,227.1c3.9-7.8,8.7-11.9,13.6-13.7c-7.1,0.2-14.6,3.7-20.2,15c0,0,10.1,11.5,23.9,6.5
					C177,235,170,227.1,170,227.1z"/>
			</g>
		</g>
	</g>
</g>
<g>
	<g>
		<g>
			<g>
				<path class="st0" d="M196.3,190.7c-0.4-0.2-0.6-0.6-0.5-0.9l4.1-9.9c0.1-0.3,0.6-0.4,1-0.2c0.4,0.2,0.7,0.6,0.6,0.9l-4.1,9.9
					C197.2,190.8,196.7,190.9,196.3,190.7L196.3,190.7z"/>
			</g>
		</g>
	</g>
</g>
<g>
	<g>
		<g>
			<g>
				<path class="st0" d="M220.1,140.3c0,0-37.3,11.1-21.4,44.2C198.7,184.4,231.9,181.1,220.1,140.3z"/>
			</g>
		</g>
	</g>
</g>
<g>
	<g>
		<g>
			<g>
				<path class="st0" d="M202.5,176.7c-3.8-8-4.2-14.5-2.6-19.7c-4.2,6-6,14.5-0.4,26c0,0,15.3-1.5,19.8-16.1
					C213.1,175.6,202.5,176.7,202.5,176.7z"/>
			</g>
		</g>
	</g>
</g>
<g>
	<g>
		<g>
			<g>
				<path class="st0" d="M225.7,173.9c-0.2-0.4-0.2-0.8,0-1l7.8-5.3c0.2-0.2,0.6,0,0.9,0.4c0.2,0.4,0.2,0.8,0,1l-7.8,5.3
					C226.4,174.6,226,174.4,225.7,173.9L225.7,173.9z"/>
			</g>
		</g>
	</g>
</g>
<g>
	<g>
		<g>
			<g>
				<path class="st0" d="M268.1,148.7c0,0-34.5-13.3-37.5,21.7C230.6,170.5,258.2,187.3,268.1,148.7z"/>
			</g>
		</g>
	</g>
</g>
<g>
	<g>
		<g>
			<g>
				<path class="st0" d="M237.2,166.6c0.7-8.4,3.5-13.7,7.2-16.9c-6.1,2.2-11.5,7.8-12.5,19.9c0,0,12.8,7.8,23-0.9
					C246,172,237.2,166.6,237.2,166.6z"/>
			</g>
		</g>
	</g>
</g>
<g>
	<g>
		<g>
			<g>
				<path class="st0" d="M255.3,629.7c-0.3-0.1-0.5-0.3-0.6-0.6c-2.7-6.3-5-12.9-6.7-19.5c-0.1-0.3-0.1-0.6,0-0.8
					c0.1-0.3,0.4-0.5,0.7-0.5c0.3-0.1,0.6,0,0.8,0.1c0.3,0.2,0.4,0.4,0.4,0.7c1.7,6.6,3.9,13,6.6,19.3c0.3,0.6,0.1,1.1-0.5,1.4
					C255.8,629.9,255.5,629.9,255.3,629.7z"/>
			</g>
		</g>
	</g>
</g>
<g>
	<g>
		<g>
			<g>
				<path class="st0" d="M253.3,610.8c-0.3,0.7-0.8,1.2-1.3,1.7c-0.6,0.5-1.2,0.8-1.9,1c-0.7,0.2-1.4,0.2-2.1,0.1
					c-0.7-0.1-1.4-0.3-2-0.7c-1.3-0.9-2.2-2.1-2.6-3.7c-0.4-1.6-0.2-3,0.5-4.4c0.4-0.6,0.8-1.2,1.4-1.6c0.6-0.4,1.2-0.7,1.9-0.9
					c0.7-0.2,1.4-0.2,2.1,0c0.7,0.1,1.4,0.4,1.9,0.8c1.2,0.8,2,2,2.4,3.5S254,609.4,253.3,610.8z"/>
			</g>
		</g>
	</g>
</g>
<g>
	<g>
		<g>
			<g>
				<path class="st0" d="M252.5,605.8c0,0.8-0.2,1.6-0.6,2.3c-0.3,0.5-0.6,1-1.1,1.3c-0.5,0.4-1,0.6-1.6,0.8
					c-0.6,0.2-1.2,0.2-1.7,0.1c-0.6-0.1-1.1-0.3-1.6-0.6c-0.7-0.5-1.2-1.1-1.6-1.8c0,1.8,0.8,3.3,2.3,4.3c0.5,0.3,1,0.5,1.6,0.6
					c0.6,0.1,1.2,0,1.7-0.1c0.6-0.2,1.1-0.4,1.5-0.8c0.5-0.4,0.8-0.8,1.1-1.4C253.3,608.8,253.3,607.3,252.5,605.8z"/>
			</g>
		</g>
	</g>
</g>
<g>
	<g>
		<g>
			<g>
				<path class="st0" d="M219.3,615.5c-0.2,0.2-0.4,0.3-0.6,0.4c-5.7,0.7-11.2,1.9-16.7,3.6c-0.6,0.1-1-0.1-1.2-0.7
					c-0.2-0.6,0-1,0.6-1.3c5.6-1.7,11.2-3,17-3.7c0.6,0,1,0.3,1,0.9C219.5,615,219.4,615.3,219.3,615.5z"/>
			</g>
		</g>
	</g>
</g>
<g>
	<g>
		<g>
			<g>
				<path class="st0" d="M202.7,614.2c1.2,0.8,2,1.9,2.4,3.3c0.4,1.4,0.3,2.8-0.3,4.1c-0.2,0.6-0.6,1.1-1.1,1.5
					c-0.5,0.4-1,0.7-1.6,0.9c-0.6,0.2-1.2,0.3-1.8,0.2c-0.6-0.1-1.2-0.3-1.8-0.6c-1.3-0.7-2.1-1.7-2.6-3.1s-0.5-2.7,0-4.1
					c0.3-0.6,0.6-1.2,1.1-1.7c0.5-0.5,1.1-0.8,1.7-1c0.7-0.2,1.3-0.3,2-0.2C201.5,613.6,202.1,613.8,202.7,614.2z"/>
			</g>
		</g>
	</g>
</g>
<g>
	<g>
		<g>
			<g>
				<path class="st0" d="M198.2,615.1c0.8,0,1.5,0.1,2.1,0.5c1,0.6,1.7,1.5,2.1,2.6c0.4,1.1,0.3,2.2-0.2,3.3
					c-0.3,0.7-0.7,1.2-1.3,1.6c1.5-0.1,2.6-0.8,3.2-2.2c0.5-1.1,0.6-2.2,0.2-3.3c-0.3-1.1-1-2-2-2.7
					C201,614.1,199.6,614.2,198.2,615.1z"/>
			</g>
		</g>
	</g>
</g>
<g>
	<g>
		<g>
			<g>
				<path class="st0" d="M178.2,582.4c-0.2-0.2-0.3-0.5-0.4-0.8l-1.3-23c-0.1-0.7,0.2-1.1,0.9-1.3c0.7,0,1.1,0.4,1.1,1.2l1.3,23
					c0.1,0.7-0.2,1.1-0.9,1.3C178.6,582.7,178.4,582.6,178.2,582.4z"/>
			</g>
		</g>
	</g>
</g>
<g>
	<g>
		<g>
			<g>
				<path class="st0" d="M181.5,561.2c-0.4,0.6-0.9,1.1-1.6,1.5c-0.6,0.4-1.3,0.6-2.1,0.6c-0.7,0-1.5-0.1-2.1-0.4
					c-0.7-0.3-1.3-0.7-1.8-1.3c-1.1-1.3-1.7-2.8-1.8-4.5c-0.1-1.7,0.3-3.3,1.3-4.7c0.4-0.6,0.9-1.1,1.6-1.5c0.6-0.4,1.3-0.6,2.1-0.6
					c0.7,0,1.5,0.1,2.1,0.4c0.7,0.3,1.3,0.7,1.8,1.3c1.1,1.3,1.7,2.8,1.8,4.5C183,558.2,182.5,559.8,181.5,561.2z"/>
			</g>
		</g>
	</g>
</g>
<g>
	<g>
		<g>
			<g>
				<path class="st0" d="M181.7,555.3c-0.1,0.9-0.5,1.7-1,2.4c-0.3,0.5-0.8,0.9-1.3,1.2c-0.5,0.3-1.1,0.5-1.7,0.5
					c-0.6,0-1.2-0.1-1.8-0.3c-0.6-0.2-1-0.6-1.4-1.1c-0.6-0.7-1-1.4-1.3-2.3c-0.3,1.9,0.1,3.6,1.4,5.1c0.4,0.5,0.9,0.8,1.4,1.1
					c0.6,0.2,1.1,0.3,1.8,0.3c0.6,0,1.2-0.2,1.7-0.5c0.5-0.3,1-0.7,1.3-1.2C181.9,558.9,182.2,557.2,181.7,555.3z"/>
			</g>
		</g>
	</g>
</g>
<g>
	<g>
		<g>
			<g>
				<path class="st0" d="M154.5,562.6c-0.3,0.1-0.6,0.2-0.9,0.1c-7.6-1.7-15.2-3.2-22.9-4.5c-0.7-0.1-1.1-0.4-1.1-1.2
					c0.2-0.7,0.7-1,1.4-0.8c7.7,1.2,15.4,2.7,23,4.5c0.7,0.1,1.1,0.5,1,1.3C155,562.3,154.8,562.5,154.5,562.6z"/>
			</g>
		</g>
	</g>
</g>
<g>
	<g>
		<g>
			<g>
				<path class="st0" d="M134.4,553.9c0.5,0.5,0.9,1.2,1.1,1.9c0.2,0.7,0.3,1.5,0.1,2.2c-0.1,0.7-0.4,1.4-0.9,2
					c-0.4,0.6-1,1.1-1.7,1.4c-1.5,0.8-3.1,1.1-4.8,0.8c-1.7-0.3-3.1-1-4.3-2.3c-0.5-0.5-0.9-1.2-1.2-1.9c-0.2-0.7-0.3-1.4-0.2-2.2
					c0.1-0.7,0.4-1.4,0.8-2c0.4-0.6,1-1.1,1.6-1.5c1.5-0.8,3.2-1.1,4.9-0.9C131.7,551.8,133.2,552.6,134.4,553.9z"/>
			</g>
		</g>
	</g>
</g>
<g>
	<g>
		<g>
			<g>
				<path class="st0" d="M128.5,552.5c0.9,0.3,1.6,0.8,2.2,1.5c0.4,0.4,0.7,1,0.9,1.5s0.2,1.2,0.1,1.8c-0.1,0.6-0.3,1.2-0.7,1.7
					c-0.4,0.5-0.8,0.9-1.4,1.2c-0.8,0.4-1.6,0.7-2.5,0.8c1.8,0.7,3.6,0.6,5.3-0.3c0.5-0.3,1-0.7,1.4-1.2c0.4-0.5,0.6-1.1,0.7-1.7
					c0.1-0.6,0.1-1.2-0.1-1.8c-0.2-0.6-0.5-1.1-0.9-1.6C132.2,553,130.5,552.3,128.5,552.5z"/>
			</g>
		</g>
	</g>
</g>
<g>
	<g>
		<g>
			<g>
				<path class="st0" d="M128,520.5c-0.2-0.3-0.2-0.6-0.2-0.9c1-7.6,2.5-15.1,4.6-22.5c0-0.3,0.2-0.6,0.5-0.7
					c0.3-0.2,0.5-0.2,0.8-0.1c0.3,0.1,0.5,0.3,0.6,0.6c0.1,0.3,0.1,0.6,0,0.9c-2.1,7.3-3.6,14.7-4.6,22.2c-0.1,0.7-0.4,1.1-1.2,1.1
					C128.3,520.9,128.1,520.7,128,520.5z"/>
			</g>
		</g>
	</g>
</g>
<g>
	<g>
		<g>
			<g>
				<path class="st0" d="M136.4,501.1c-0.6,0.5-1.3,0.8-2,0.9c-0.7,0.1-1.5,0.1-2.2-0.1c-0.7-0.2-1.4-0.5-1.9-1
					c-0.6-0.5-1-1.1-1.3-1.8c-0.7-1.6-0.7-3.3-0.2-4.9c0.5-1.7,1.5-3,2.9-4c0.6-0.4,1.3-0.7,2-0.8c0.7-0.1,1.5,0,2.2,0.2
					c0.7,0.2,1.3,0.6,1.9,1.1c0.5,0.5,0.9,1.1,1.2,1.8c0.6,1.5,0.6,3.1,0.2,4.7C138.6,498.9,137.7,500.1,136.4,501.1z"/>
			</g>
		</g>
	</g>
</g>
<g>
	<g>
		<g>
			<g>
				<path class="st0" d="M138.4,495.8c-0.4,0.8-1,1.4-1.7,1.9c-0.5,0.4-1,0.6-1.6,0.7c-0.6,0.1-1.2,0.1-1.8-0.1
					c-0.6-0.2-1.1-0.5-1.6-0.9c-0.4-0.4-0.8-0.9-1-1.5c-0.4-0.8-0.5-1.7-0.4-2.6c-1,1.7-1.1,3.5-0.4,5.3c0.2,0.6,0.6,1.1,1,1.5
					c0.5,0.4,1,0.7,1.6,0.9c0.6,0.2,1.2,0.2,1.8,0.1c0.6-0.1,1.1-0.3,1.6-0.7C137.5,499.2,138.3,497.7,138.4,495.8z"/>
			</g>
		</g>
	</g>
</g>
<g>
	<g>
		<g>
			<g>
				<path class="st0" d="M108.4,484.9c-0.3,0-0.6-0.1-0.9-0.3c-6.5-4.5-12.8-9.4-18.7-14.7c-0.3-0.2-0.5-0.4-0.5-0.7
					c-0.1-0.3,0-0.6,0.2-0.9c0.2-0.3,0.5-0.4,0.8-0.4c0.3,0,0.6,0.2,0.8,0.4c5.9,5.2,12.1,10.1,18.5,14.5c0.7,0.4,0.8,0.9,0.5,1.6
					C108.9,484.7,108.7,484.9,108.4,484.9z"/>
			</g>
		</g>
	</g>
</g>
<g>
	<g>
		<g>
			<g>
				<path class="st0" d="M94.1,468.2c0.2,0.7,0.2,1.5,0,2.2c-0.2,0.7-0.5,1.4-1,2c-0.5,0.6-1.1,1-1.8,1.3c-0.7,0.3-1.4,0.4-2.2,0.3
					c-1.8-0.1-3.3-0.8-4.6-2c-1.3-1.2-2.1-2.7-2.5-4.4c-0.1-0.7-0.1-1.5,0.1-2.2c0.2-0.7,0.6-1.4,1.1-1.9c0.5-0.5,1.1-0.9,1.8-1.2
					c0.7-0.3,1.4-0.3,2.2-0.2c1.7,0.2,3.2,0.8,4.4,2C93,465.1,93.8,466.5,94.1,468.2z"/>
			</g>
		</g>
	</g>
</g>
<g>
	<g>
		<g>
			<g>
				<path class="st0" d="M90.1,463.9c0.5,0.7,0.9,1.6,1,2.5c0.1,0.6,0.1,1.2,0,1.8c-0.2,0.6-0.4,1.1-0.9,1.6c-0.4,0.5-0.9,0.8-1.5,1
					c-0.6,0.2-1.2,0.3-1.8,0.2c-0.9-0.1-1.8-0.4-2.6-0.9c1.2,1.7,2.7,2.6,4.8,2.7c0.6,0.1,1.2,0,1.8-0.3c0.6-0.2,1.1-0.6,1.5-1.1
					c0.4-0.5,0.7-1,0.8-1.6c0.1-0.6,0.1-1.2,0-1.8C92.8,466.3,91.7,464.9,90.1,463.9z"/>
			</g>
		</g>
	</g>
</g>
<g>
	<g>
		<g>
			<g>
				<path class="st0" d="M97.2,434.2c-0.1-0.3,0-0.6,0.2-0.9l11.4-19.2c0.3-0.6,0.8-0.8,1.5-0.5c0.6,0.4,0.7,0.9,0.3,1.5l-11.4,19.2
					c-0.3,0.6-0.8,0.8-1.5,0.5C97.4,434.8,97.3,434.5,97.2,434.2z"/>
			</g>
		</g>
	</g>
</g>
<g>
	<g>
		<g>
			<g>
				<path class="st0" d="M111.5,419.1c-0.7,0.3-1.4,0.4-2.1,0.3c-0.7-0.1-1.4-0.3-2.1-0.7c-0.6-0.4-1.2-0.9-1.6-1.5
					c-0.4-0.6-0.7-1.3-0.8-2c-0.3-1.6,0-3.2,0.9-4.6c0.8-1.4,2.1-2.4,3.6-3c0.7-0.3,1.4-0.4,2.1-0.3c0.7,0.1,1.4,0.3,2.1,0.7
					c0.6,0.4,1.2,0.9,1.6,1.5c0.4,0.6,0.7,1.3,0.8,2c0.2,1.6-0.1,3.2-0.9,4.6S113.1,418.5,111.5,419.1z"/>
			</g>
		</g>
	</g>
</g>
<g>
	<g>
		<g>
			<g>
				<path class="st0" d="M114.8,414.4c-0.6,0.6-1.3,1.1-2.1,1.4c-0.6,0.2-1.2,0.3-1.8,0.2c-0.6-0.1-1.2-0.2-1.7-0.6
					c-0.5-0.3-0.9-0.7-1.3-1.2c-0.3-0.5-0.5-1.1-0.6-1.7c-0.1-0.9-0.1-1.7,0.2-2.6c-1.3,1.4-1.8,3-1.6,4.9c0.1,0.6,0.3,1.2,0.6,1.7
					c0.3,0.5,0.8,0.9,1.3,1.2c0.5,0.3,1.1,0.5,1.7,0.6s1.2,0,1.8-0.2C113.1,417.5,114.3,416.3,114.8,414.4z"/>
			</g>
		</g>
	</g>
</g>
<g>
	<g>
		<g>
			<g>
				<path class="st0" d="M92.6,393.3c-0.3,0-0.6-0.2-0.8-0.4c-5.4-5.5-9.8-11.7-13.1-18.6c-0.2-0.3-0.2-0.6-0.2-0.9
					c0.1-0.3,0.3-0.5,0.6-0.7c0.3-0.1,0.6-0.1,0.9,0c0.3,0.1,0.5,0.4,0.6,0.7c3.2,6.7,7.4,12.8,12.7,18.1c0.5,0.5,0.6,1,0.1,1.6
					C93.1,393.3,92.9,393.4,92.6,393.3z"/>
			</g>
		</g>
	</g>
</g>
<g>
	<g>
		<g>
			<g>
				<path class="st0" d="M84.3,374.6c-0.3,1.5-1.1,2.7-2.5,3.5c-1.4,0.8-2.8,0.8-4.2,0.2c-1.6-0.8-2.8-2-3.5-3.6
					c-0.7-1.6-0.9-3.3-0.4-5c0.2-0.7,0.6-1.3,1.1-1.9c0.5-0.5,1.1-0.9,1.8-1.2c0.7-0.3,1.4-0.3,2.2-0.3c0.7,0.1,1.4,0.3,2.1,0.7
					c1.4,0.7,2.4,1.8,3,3.2C84.5,371.6,84.7,373.1,84.3,374.6z"/>
			</g>
		</g>
	</g>
</g>
<g>
	<g>
		<g>
			<g>
				<path class="st0" d="M82.4,369.6c0.1,0.8,0.1,1.7-0.1,2.5c-0.1,0.6-0.4,1.1-0.8,1.6c-0.4,0.5-0.9,0.8-1.4,1.1
					c-0.6,0.3-1.1,0.4-1.7,0.4c-0.6,0-1.2-0.2-1.7-0.4c-0.8-0.4-1.5-1-2-1.8c0.4,2,1.4,3.4,3.3,4.3c0.6,0.3,1.1,0.4,1.7,0.4
					c0.6,0,1.2-0.2,1.7-0.4c0.5-0.3,1-0.7,1.4-1.2s0.6-1,0.7-1.6C83.8,372.6,83.5,371,82.4,369.6z"/>
			</g>
		</g>
	</g>
</g>
<g>
	<g>
		<g>
			<g>
				<path class="st0" d="M100.2,338.2c0-0.3,0.1-0.5,0.3-0.7l14.4-12.3c0.5-0.4,1-0.4,1.5,0.1c0.4,0.5,0.4,1-0.1,1.5L101.9,339
					c-0.5,0.5-1,0.4-1.5-0.1C100.3,338.7,100.2,338.4,100.2,338.2z"/>
			</g>
		</g>
	</g>
</g>
<g>
	<g>
		<g>
			<g>
				<path class="st0" d="M116.3,330.4c-1.5-0.1-2.7-0.8-3.6-1.9c-1-1.1-1.4-2.4-1.3-3.9c0.1-0.7,0.2-1.4,0.6-2
					c0.3-0.6,0.8-1.2,1.3-1.6c0.5-0.5,1.1-0.8,1.8-1c0.7-0.2,1.4-0.3,2.1-0.2c1.5,0.1,2.7,0.8,3.6,1.9c1,1.1,1.4,2.4,1.3,3.9
					c0,0.7-0.2,1.4-0.6,2c-0.3,0.6-0.8,1.2-1.3,1.6c-0.5,0.5-1.1,0.8-1.8,1C117.7,330.4,117,330.5,116.3,330.4z"/>
			</g>
		</g>
	</g>
</g>
<g>
	<g>
		<g>
			<g>
				<path class="st0" d="M120.3,327.6c-0.7,0.3-1.4,0.5-2.2,0.4c-1.2-0.1-2.2-0.6-3-1.5c-0.8-0.9-1.1-2-1.1-3.2
					c0.1-0.8,0.3-1.5,0.7-2.1c-1.5,0.7-2.4,1.9-2.5,3.6c-0.1,1.2,0.3,2.3,1,3.2c0.8,0.9,1.8,1.4,3,1.6
					C118,329.7,119.3,329,120.3,327.6z"/>
			</g>
		</g>
	</g>
</g>
<g>
	<g>
		<g>
			<g>
				<path class="st0" d="M110.8,300.4c-0.3-0.2-0.4-0.5-0.5-0.8c-2.1-7.8-2.9-15.7-2.6-23.8c0-0.8,0.4-1.2,1.2-1.2
					c0.7,0.1,1,0.6,0.9,1.3c-0.4,7.8,0.5,15.6,2.5,23.1c0.3,0.7,0,1.2-0.7,1.5C111.3,300.7,111,300.6,110.8,300.4z"/>
			</g>
		</g>
	</g>
</g>
<g>
	<g>
		<g>
			<g>
				<path class="st0" d="M112.4,278.9c-1,1.2-2.2,1.8-3.8,1.9c-1.6,0-2.9-0.7-3.8-2c-1-1.5-1.5-3.2-1.4-5c0.1-1.8,0.8-3.4,2.1-4.8
					c0.5-0.5,1.1-0.9,1.8-1.2c0.7-0.3,1.4-0.3,2.2-0.2c0.7,0.1,1.4,0.4,2,0.8c0.6,0.4,1.1,1,1.5,1.6c0.9,1.4,1.2,2.9,1.1,4.6
					C114.1,276.1,113.5,277.6,112.4,278.9z"/>
			</g>
		</g>
	</g>
</g>
<g>
	<g>
		<g>
			<g>
				<path class="st0" d="M113.2,273.2c-0.3,0.8-0.7,1.6-1.2,2.2c-0.4,0.5-0.9,0.8-1.4,1.1c-0.6,0.3-1.2,0.4-1.8,0.3
					c-0.6,0-1.2-0.2-1.7-0.5c-0.5-0.3-1-0.7-1.3-1.2c-0.5-0.8-0.9-1.7-1-2.6c-0.6,2-0.3,3.9,0.8,5.6c0.4,0.5,0.8,0.9,1.3,1.2
					c0.5,0.3,1.1,0.4,1.7,0.5c0.6,0,1.2-0.1,1.8-0.4c0.6-0.3,1-0.7,1.4-1.1C113,276.7,113.5,275.1,113.2,273.2z"/>
			</g>
		</g>
	</g>
</g>
<g>
	<g>
		<g>
			<g>
				<path class="st0" d="M134.2,258.8c0.2-0.2,0.4-0.4,0.7-0.4c6.2-0.9,12-2.9,17.5-5.9c0.6-0.3,1-0.2,1.4,0.4
					c0.3,0.6,0.2,1.1-0.4,1.4c-5.7,3.1-11.8,5.2-18.2,6.1c-0.7,0.1-1.1-0.2-1.2-0.9C134,259.3,134,259,134.2,258.8z"/>
			</g>
		</g>
	</g>
</g>
<g>
	<g>
		<g>
			<g>
				<path class="st0" d="M152.5,257.9c-1.4-0.5-2.5-1.4-3.1-2.8c-0.6-1.3-0.7-2.7-0.3-4.1c0.4-1.3,1.1-2.3,2.3-3
					c1.2-0.7,2.4-0.8,3.7-0.5c1.4,0.3,2.6,1,3.4,2.3c0.8,1.2,1.1,2.5,0.9,4c-0.2,0.7-0.5,1.4-1,2c-0.5,0.6-1,1.1-1.7,1.5
					c-0.7,0.4-1.4,0.6-2.1,0.7C153.9,258.2,153.2,258.2,152.5,257.9z"/>
			</g>
		</g>
	</g>
</g>
<g>
	<g>
		<g>
			<g>
				<path class="st0" d="M157.2,255.9c-0.8,0.2-1.6,0.3-2.4,0.1c-1.2-0.3-2-1-2.6-2.1c-0.6-1.1-0.7-2.2-0.4-3.4
					c0.2-0.7,0.5-1.4,1-1.9c-1.5,0.4-2.5,1.4-2.9,2.9c-0.4,1.2-0.3,2.3,0.3,3.4c0.5,1.1,1.4,1.8,2.5,2.2
					C154.5,257.6,155.9,257.2,157.2,255.9z"/>
			</g>
		</g>
	</g>
</g>
<g>
	<g>
		<g>
			<g>
				<path class="st0" d="M159,221.8c-0.2-0.3-0.3-0.6-0.2-0.9c0.4-4.1,1-8.1,1.9-12.1c0.9-4,2.1-8,3.6-11.8c0.2-0.8,0.7-1,1.5-0.8
					c0.7,0.4,0.8,0.9,0.4,1.6c-1.5,3.7-2.6,7.5-3.5,11.5c-0.9,3.9-1.5,7.9-1.9,11.9c0,0.8-0.4,1.2-1.2,1.2
					C159.4,222.2,159.2,222.1,159,221.8z"/>
			</g>
		</g>
	</g>
</g>
<g>
	<g>
		<g>
			<g>
				<path class="st0" d="M167.8,201.4c-2.8,1.7-6.1,0.9-7.2-2.5c-0.5-1.9-0.3-3.8,0.6-5.6c0.9-1.9,2.2-3.2,4.1-4
					c1.5-0.7,3-0.5,4.3,0.6c1.1,1,1.8,2.3,1.9,3.8c0.2,1.5,0,3-0.7,4.4C170.2,199.4,169.2,200.6,167.8,201.4z"/>
			</g>
		</g>
	</g>
</g>
<g>
	<g>
		<g>
			<g>
				<path class="st0" d="M170.4,196.4c-0.6,0.6-1.2,1.2-2,1.5c-1.1,0.6-2.3,0.7-3.5,0.2c-1.2-0.5-2-1.5-2.2-2.8c-0.2-1-0.1-2,0.2-3
					c-1.4,1.7-1.9,3.7-1.4,5.9c0.8,2.8,3.6,3.5,5.9,2.2C169,199.6,170,198.2,170.4,196.4z"/>
			</g>
		</g>
	</g>
</g>
<g>
	<g>
		<g>
			<g>
				<path class="st0" d="M190.2,197.1c0.3,0,0.6,0,0.9,0.2c1.7,0.9,3.6,1.3,5.5,1.3c2,0,4-0.2,5.9-0.7c2-0.5,3.9-1.1,5.8-1.8
					c1.9-0.7,3.8-1.4,5.8-2.2c0.3-0.2,0.6-0.3,0.9-0.2c0.3,0.1,0.6,0.3,0.7,0.6c0.1,0.3,0.1,0.6-0.1,0.9c-0.2,0.3-0.4,0.5-0.8,0.5
					c-1.9,0.8-3.9,1.5-5.8,2.3c-2,0.7-4,1.4-6,1.9c-2.1,0.5-4.2,0.8-6.4,0.7c-2.3,0-4.4-0.6-6.4-1.6c-0.7-0.4-1-1.2-0.6-1.6
					C189.6,197.3,189.9,197.1,190.2,197.1z"/>
			</g>
		</g>
	</g>
</g>
<g>
	<g>
		<g>
			<g>
				<path class="st0" d="M212.9,199.6c-0.7-0.2-1.4-0.5-2-1c-0.6-0.5-1-1.1-1.3-1.8c-0.3-0.7-0.4-1.4-0.3-2.2
					c0.1-0.8,0.3-1.5,0.8-2.1c0.9-1.5,2.2-2.6,3.8-3.3c1.6-0.7,3.3-0.9,5-0.5c0.8,0.1,1.4,0.4,2,0.9c0.6,0.5,1.1,1,1.4,1.7
					s0.5,1.4,0.4,2.2c0,0.8-0.3,1.5-0.6,2.1c-1,1.6-2.3,2.8-4,3.5C216.5,199.9,214.8,200,212.9,199.6z"/>
			</g>
		</g>
	</g>
</g>
<g>
	<g>
		<g>
			<g>
				<path class="st0" d="M219.1,197.5c-1,0.2-1.9,0.2-2.9,0c-0.6-0.1-1.2-0.4-1.7-0.8c-0.5-0.4-0.9-0.9-1.1-1.5
					c-0.2-0.6-0.3-1.2-0.3-1.8c0.1-0.6,0.3-1.2,0.6-1.7c0.5-0.8,1.1-1.5,1.9-2c-2,0.4-3.5,1.4-4.6,3.1c-0.3,0.5-0.6,1.1-0.6,1.7
					c-0.1,0.6,0,1.2,0.2,1.8c0.2,0.6,0.6,1.1,1.1,1.5c0.5,0.4,1,0.7,1.6,0.8C215.5,199.2,217.4,198.8,219.1,197.5z"/>
			</g>
		</g>
	</g>
</g>
<g>
	<g>
		<g>
			<g>
				<rect x="175.9" y="285" class="st0" width="350.3" height="5.7"/>
			</g>
		</g>
	</g>
</g>
<g>
	<g>
		<g>
			<g>
				<rect x="175.9" y="420.6" class="st0" width="350.3" height="5.7"/>
			</g>
		</g>
	</g>
</g>
<g>
	<path class="st0" d="M313.7,261.2c-0.7-0.2-1.3-0.3-1.8-0.5c-0.5-0.2-0.9-0.4-1.4-0.7c-2.5-1.5-4.6-4.6-6.2-9.2
		c-2.4-6.5-4.3-16-5.5-28.3c-0.5-4.8-0.8-9.1-1-13.2c-0.2-4-0.2-9-0.2-14.8v-5.8l-0.1-1.5c-0.1-0.1-0.1-0.1-0.2-0.1
		c-0.1,0-0.1,0-0.2,0c-0.1,0-0.5,0.1-1.2,0.3c-0.7,0.2-1.5,0.4-2.4,0.6c-5.5,1.6-10.8,3.2-15.9,5c-3.8,1.4-6.2,2.1-7.1,2.2h-0.2
		c-0.4,0-0.8-0.1-1-0.3c-0.1-0.1-0.1-0.2-0.2-0.4c-0.1-0.1-0.1-0.3-0.2-0.4c-0.1-0.2-0.2-0.4-0.3-0.6c-0.1-0.2-0.2-0.4-0.3-0.6
		c-0.2-0.4-0.4-0.7-0.4-1c-0.1-0.3-0.1-0.5-0.1-0.8v-0.5c0-1.1,0.4-1.8,1.3-2.1c1.5-0.5,4.6-1.3,9.5-2.5c4.9-1.2,10.1-2.3,15.7-3.4
		l1.6-0.3c0.9-0.2,1.5-0.3,1.6-0.3c0.2-0.1,0.3-0.1,0.3-0.3s0.1-0.4,0.2-0.7c0.1-0.4,0.1-0.9,0.2-1.6c0.4-2.8,0.8-5.7,1.4-8.9
		s1.1-5.9,1.6-8.3c0.4-1.6,0.7-2.8,1-3.5c0.3-0.7,0.6-1.2,1-1.5c0.4-0.3,0.9-0.5,1.4-0.5c0.6,0,1.3,0.3,2,1c0.3,0.2,0.5,0.4,0.6,0.5
		c0.2,0.1,0.3,0.2,0.5,0.2c0.2,0.1,0.4,0.1,0.6,0.1h0.2c0.6,0.1,1.1,0.1,1.5,0.3c0.4,0.1,0.7,0.4,1.1,0.8c0.5,0.5,0.8,1,1,1.6
		c0.2,0.6,0.3,1.3,0.3,2.2c0,0.3,0,0.6,0,0.8c0,0.2,0,0.5-0.1,0.7c-0.1,0.3-0.2,0.6-0.3,1.1c-0.4,1.5-0.8,3.3-1.2,5.4
		c-0.4,2.1-0.8,4.3-1.1,6.4c-0.1,0.5-0.2,0.9-0.2,1.1c0,0.2,0,0.3,0,0.4v0.2c0.1,0.1,0.2,0.2,0.3,0.2c0.1,0,0.9-0.1,2.5-0.3
		c1.5-0.2,3.6-0.5,6.1-0.9c13.5-1.9,21.8-2.9,25-2.9c0.5,0,0.9,0,1.1,0c0.2,0,0.4,0,0.6,0c0.1,0,0.3,0.1,0.4,0.1
		c0.4,0.2,0.6,0.4,0.6,0.6c0,0.1,0,0.1-0.1,0.2c-0.1,0.3-0.6,0.5-1.4,0.8c-0.8,0.2-2.2,0.5-4.2,0.8c-7,1-14.1,2.2-21.4,3.6
		c-1.3,0.3-2.6,0.6-4,0.9c-1.4,0.3-2.6,0.6-3.6,0.8c-1,0.2-1.6,0.4-1.9,0.4c-0.1,0.1-0.2,0.1-0.3,0.2c-0.1,0.1-0.1,0.1-0.2,0.2
		c-0.1,0.1-0.1,0.3-0.2,0.6c-0.1,0.3-0.1,0.7-0.2,1.2c-0.1,0.5-0.2,1.2-0.3,2.1c-0.1,0.6-0.2,1.2-0.3,1.8c-1.8,9.7-2.9,19-3.2,27.9
		c-0.1,1.5-0.1,3-0.1,4.5c0,7.7,0.6,14.7,1.8,21c1.3,6.8,3,11.4,5.3,14c0.5,0.5,0.9,0.9,1.1,1c0.2,0.1,0.4,0.2,0.6,0.2
		c0.3,0,0.7-0.1,1.1-0.3c1.6-0.8,3.2-2.4,4.9-4.9c2.8-4,6.6-13,11.5-26.7c0.5-1.3,0.9-2.4,1.1-3.2c0.3-0.8,0.5-1.3,0.7-1.7
		c0.2-0.4,0.4-0.8,0.5-1.1c0.2-0.4,0.4-0.7,0.6-1c0.2-0.3,0.4-0.4,0.6-0.4c0.4,0,0.6,0.3,0.6,0.9c0,0.5-0.1,1.1-0.3,1.9
		c-0.3,0.9-0.9,2.7-1.7,5.5c-0.9,2.8-1.7,5.5-2.6,8.1c-2.8,8.5-5.1,14.6-7,18.4c-1.8,3.8-3.6,6.1-5.3,6.8c-0.6,0.3-1.1,0.5-1.5,0.5
		c-0.4,0-0.7,0-0.8,0C315.1,261.4,314.5,261.3,313.7,261.2z"/>
	<path class="st0" d="M338,256.7c-0.1,0-0.3,0-0.5-0.1c-0.2-0.1-0.5-0.1-0.7-0.1c-0.5-0.1-1-0.1-1.3-0.3c-0.4-0.1-0.7-0.3-1.1-0.6
		c-0.5-0.4-0.9-0.9-1.2-1.7c-0.3-0.7-0.5-2-0.8-3.7c-0.2-1.2-0.3-2.7-0.4-4.4c-0.1-1.7-0.3-4-0.4-6.9c-0.1-1.1-0.1-2.9-0.1-5.5
		c0-2.6,0-5.2,0-7.9c0-2.6,0-4.6,0.1-5.9c0.4-8.6,1.1-16.3,2.1-23.1c0.8-4.7,1.7-9.4,2.9-14.2c1.9-7.3,4.2-13.7,6.9-19.1
		c2.6-5.2,5.3-8.4,7.9-9.4c0.3-0.1,0.5-0.2,0.7-0.2c0.2-0.1,0.5-0.1,0.8-0.1h0.4c0.3,0,0.5,0,0.8,0.1c0.3,0.1,0.7,0.2,1.1,0.4
		c0.1,0,0.1,0,0.2,0.1c0.1,0.1,0.3,0.1,0.4,0.2c0.2,0.1,0.3,0.1,0.4,0.2c1.3,0.3,2.2,1,2.6,1.9c0.2,0.4,0.4,0.8,0.4,1.2
		c0.1,0.4,0.1,1,0.1,1.7v0.8c0,2-0.3,4.5-1,7.5c-1.5,6.6-3.7,13.5-6.8,20.6c-3.1,7.2-6.4,13.2-10,18.3c-0.5,0.6-1,1.2-1.4,1.7
		c-0.4,0.5-0.8,1-1.4,1.5c-0.3,0.3-0.6,0.6-0.8,0.9c-0.2,0.2-0.4,0.4-0.4,0.5c-0.1,0.2-0.2,1-0.4,2.4c-0.2,1.4-0.3,3.1-0.5,5
		c-0.2,1.9-0.4,3.9-0.5,5.8c-0.2,3.3-0.3,6.6-0.3,10v2c0.1,4.1,0.2,7.4,0.6,10c0.1,0.6,0.1,1,0.2,1.2c0.1,0.2,0.1,0.3,0.2,0.3h0.1
		c0.1,0,0.1-0.1,0.3-0.3c0.1-0.2,0.3-0.5,0.4-0.8c0.1-0.2,0.2-0.6,0.6-1.5c0.3-1,0.7-2.2,1.2-3.6c1-2.9,1.7-5,2.2-6.4
		c0.5-1.4,1.1-2.9,1.8-4.6c1.2-3.2,2.5-6,3.8-8.6c1.3-2.5,2.5-4.3,3.4-5.3c0.6-0.6,1.2-1,1.9-1c0.3,0,0.7,0.1,1.1,0.2
		c0.4,0.2,0.9,0.3,1.3,0.3c0.7,0.1,1.3,0.2,1.9,0.5c0.5,0.3,1.1,0.7,1.6,1.2c0.5,0.4,0.9,0.9,1.3,1.4c0.4,0.5,0.7,1.1,1,1.9
		c0.2,0.4,0.4,0.8,0.6,1.1c0.2,0.4,0.4,0.9,0.6,1.5c0.2,0.6,0.6,1.6,1,2.8c0.4,1,0.7,1.8,0.9,2.3c0.2,0.5,0.4,1,0.5,1.3
		c0.1,0.3,0.3,0.7,0.5,1.1c0,0.1,0,0.1,0.1,0.2c0.9,1.8,1.8,3.2,2.8,4.1c0.4,0.4,0.8,0.7,1,0.8c0.2,0.1,0.4,0.1,0.6,0.1
		c0.3,0,0.6-0.1,1-0.2c2.8-0.8,6-4.2,9.8-10.3c0.4-0.7,0.9-1.5,1.4-2.3c0.5-0.8,0.9-1.6,1.3-2.3c0.3-0.6,0.6-1.1,0.8-1.4
		c0.2-0.4,0.4-0.6,0.6-0.9c0.4-0.4,0.7-0.6,1-0.6c0.2,0,0.4,0.1,0.6,0.2s0.2,0.4,0.2,0.8c0,0.3-0.1,0.8-0.2,1.3
		c-0.5,1.5-1.5,3.5-2.8,6c-1.3,2.5-2.6,4.7-3.9,6.7c-1.1,1.6-2,2.8-2.8,3.6c-0.8,0.8-1.6,1.4-2.5,1.8c-0.3,0.1-0.5,0.2-0.8,0.3
		c-0.2,0.1-0.4,0.2-0.5,0.2c-0.3,0.1-0.6,0.1-0.9,0.1c-0.5,0-1.2-0.1-1.9-0.2c-1.2-0.2-2.2-0.4-3.1-0.8c-2.3-1-4.5-3-6.5-5.9
		c-1.2-1.8-2.8-4.8-4.5-9c-0.3-0.6-0.5-1.2-0.7-1.7c-0.2-0.5-0.4-0.8-0.5-1.1c-0.1-0.3-0.2-0.5-0.3-0.6c-0.1-0.1-0.1-0.2-0.2-0.2
		c-0.1-0.1-0.1-0.1-0.2-0.1h-0.1c-0.1,0-0.2,0-0.3,0.1c-0.2,0.1-0.4,0.3-0.6,0.6c-1.5,1.7-3.1,4.8-4.9,9.3c-1.6,3.8-3.2,9.3-5,16.4
		c-0.5,1.9-0.9,3.4-1.1,4.5c-0.3,1.1-0.5,1.9-0.7,2.4c-0.2,0.5-0.4,1-0.6,1.4c-0.6,1-1.3,1.5-2,1.5
		C338.4,256.8,338.2,256.8,338,256.7z M339.2,204.6c0.4-0.5,1.1-1.6,2.2-3.3c1.1-1.7,2.1-3.3,3-4.9c0.6-1.1,1.4-2.6,2.3-4.4
		c0.9-1.8,1.6-3.3,2.1-4.5c3.4-7.6,5.7-14.5,7-20.7c0.2-1,0.4-1.9,0.4-2.7c0.1-0.8,0.1-1.5,0.2-2.3v-0.6c0-1.9-0.2-2.9-0.7-3
		c-0.3,0-0.9,0.6-1.9,1.9c-2.5,3.1-4.9,7.8-7.3,14c-1,2.6-2,5.6-3,9.1c-1.1,3.5-2,6.8-2.7,10c-0.2,0.8-0.4,1.8-0.6,3.1
		c-0.3,1.3-0.5,2.6-0.8,3.9s-0.4,2.3-0.5,2.9c-0.2,0.6-0.2,1.1-0.2,1.4c0,0.3,0.1,0.4,0.2,0.4C338.8,205,339,204.8,339.2,204.6z"/>
	<path class="st0" d="M393.9,250.6c-0.4-0.1-0.7-0.1-1.1-0.2c-0.4-0.1-0.7-0.3-1.2-0.5c-4.8-2.4-7.7-7.6-8.7-15.7
		c-0.1-0.6-0.1-1.5-0.1-2.4c0-1,0-1.8,0-2.3l0.1-1.9c0-1.2,0-2.2,0.1-2.8c0.5-4.4,1.4-8.3,2.6-11.8c2.2-6.5,4.8-10.5,7.8-12
		c0.7-0.4,1.4-0.6,2.1-0.6c0.8,0,1.5,0.2,2.2,0.7c0.2,0.1,0.4,0.2,0.6,0.3c0.2,0.1,0.4,0.2,0.6,0.2c0.4,0.2,0.7,0.3,1,0.4
		c0.3,0.1,0.5,0.3,0.7,0.5c0.7,0.6,1.1,1.8,1.1,3.3c0,1.4-0.3,3.1-0.8,5.1c-1.5,5.7-3.9,10.6-7.2,14.5c-1.1,1.3-2.3,2.2-3.6,2.8
		c-0.3,0.2-0.6,0.3-0.7,0.4s-0.3,0.2-0.3,0.3c-0.1,0.1-0.1,0.3-0.2,0.5c-0.1,0.5-0.1,1.1-0.1,1.9v1.3c0,1.4,0.1,2.8,0.2,4.1
		c0.5,3.7,1.5,6.7,2.9,8.9c0.5,0.7,1,1.3,1.6,1.7c0.6,0.5,1.1,0.7,1.6,0.9c0.8,0,1.8-0.4,3-1.3c1.2-0.8,2.5-2,3.6-3.4
		c1.6-2,3.5-5,5.7-9.1c2.2-4.1,4.2-8,5.9-11.9c0.5-1,0.9-1.8,1.1-2.2c0.2-0.4,0.5-0.7,0.7-0.9c0.2-0.2,0.4-0.3,0.6-0.3
		c0.1,0,0.2,0.1,0.3,0.2c0.2,0.2,0.2,0.4,0.2,0.6c0,0.2,0,0.4-0.1,0.6c-0.2,0.8-0.8,2.5-1.8,5c-1.1,2.5-2.2,5.3-3.6,8.1
		c-1.3,2.9-2.5,5.3-3.4,7.3c-1,1.8-1.8,3.3-2.6,4.4c-0.8,1.1-1.5,2-2.3,2.8c-1.3,1.4-2.7,2.2-4.1,2.4c-0.5,0.1-1.2,0.2-2.1,0.2
		C395.3,250.8,394.5,250.7,393.9,250.6z M390.3,223.4c0.2-0.2,0.6-0.5,1-1.1c0.5-0.6,0.9-1.2,1.3-1.9c1.2-1.8,2.2-3.8,3.2-6
		c0.9-2.2,1.6-4.1,1.9-5.9c0.2-0.8,0.2-1.3,0.2-1.6c0-0.3-0.1-0.5-0.2-0.5c-0.1,0-0.3,0.2-0.6,0.5c-1.1,1.2-2.3,2.9-3.5,5.2
		c-1.2,2.3-2.2,4.6-2.9,6.9c-0.7,2.2-1.1,3.6-1.1,4.2l0.1,0.2c0,0.1,0,0.2,0.1,0.2C390,223.6,390.1,223.5,390.3,223.4z"/>
</g>
<g>
	<path class="st0" d="M238.5,561.3c-1.1-0.2-2.1-0.6-3.1-1.3c-2.2-1.8-4.2-5.1-5.8-9.9c-1.6-4.7-2.9-10.6-3.7-17.7
		c-0.7-5.7-1-11.7-1-17.8c0-5,0.2-10.1,0.7-15.3c0.8-9.8,2.6-18.8,5.2-27.1c1.6-4.8,3.2-8.4,4.8-10.7c0.3-0.4,0.7-0.8,1.2-1.3
		c0.5-0.4,0.9-0.8,1.2-1c0.7-0.5,1.4-0.7,2.1-0.7s1.4,0.3,2.2,0.9c0.3,0.2,0.6,0.3,1.1,0.4c0.4,0.1,0.8,0.3,1.1,0.4
		c0.3,0.2,0.6,0.4,0.8,0.6c0.7,0.6,1.1,1.4,1.2,2.3c0.2,0.9,0.2,1.8,0.2,2.7c0,0.9-0.1,1.9-0.2,3.1c0,0.5-0.1,1.1-0.1,1.8
		c0,0.6-0.1,1.2-0.1,1.6c0,0.6,0,1-0.1,1.3c0,0.3-0.1,0.5-0.2,0.6c-0.1,0.1-0.2,0.2-0.3,0.3c-0.1,0-0.3,0.1-0.5,0.1
		c-0.2,0-0.4,0-0.5-0.1c-0.3-0.2-0.6-0.5-0.7-0.9c-0.1-0.1-0.1-0.4-0.1-0.7c0-0.3,0-0.8,0.1-1.3c0.1-0.9,0.1-1.7,0.1-2.5
		c0-1.5-0.2-2.9-0.5-4.1c-0.2-0.7-0.4-1-0.5-1h-0.1c-0.2,0.1-0.6,0.6-1.2,1.5c-1.3,2.2-2.5,4.5-3.6,7c-1.7,3.8-3.2,8.5-4.5,14
		c-1.2,4.9-2.2,10.1-3,15.5c-0.2,1.6-0.4,3.2-0.6,5c-0.2,1.8-0.3,3.3-0.4,4.6c-0.1,1.3-0.1,2.1-0.1,2.4c0,0.1,0.1,0.2,0.1,0.2
		c0,0,0.1,0.1,0.3,0.1c0.1,0,0.3,0,0.6-0.1c0.3,0,0.7-0.1,1.2-0.2c1.4-0.3,2.6-0.5,3.5-0.7c0.9-0.2,1.8-0.5,2.7-0.9
		c5-1.8,9.5-4.7,13.3-8.7c0.4-0.4,0.6-0.6,0.8-0.8s0.4-0.3,0.5-0.4c0.1-0.1,0.2-0.1,0.2-0.1c0.1,0,0.2-0.1,0.3-0.1
		c0.1,0,0.2,0,0.3,0.1c0.1,0,0.2,0.1,0.3,0.3c0,0.1,0.1,0.2,0.1,0.3c0,0.7-1,2-3,4.1c-3.5,3.6-6.6,6-9.5,7.3c-2.9,1.5-6,2.4-9.1,2.7
		c-0.2,0-0.4,0.1-0.6,0.1c-0.2,0-0.3,0-0.3,0c-0.1,0-0.1,0.1-0.1,0.2c0,0.1,0.1,0.4,0.4,0.7c2.6,3.2,4.8,6.5,6.7,9.8
		c0.6,1.1,1.3,2.4,2,3.9c0.7,1.5,1.3,2.8,1.7,3.9c1.7,4.4,2.8,8.7,3.3,12.8c0,0.4,0.1,1.1,0.1,1.9s0,1.6,0,2.4s0,1.4-0.1,1.8
		c-0.4,2.8-1,4.6-1.9,5.7c-0.4,0.4-0.8,0.8-1.3,0.9c-0.4,0.2-1.1,0.3-1.9,0.3H238.5z M239.5,558.5c1-1.1,1.7-2.9,2.1-5.3
		c0.2-1.2,0.3-2.6,0.3-3.9c0-1.7-0.1-3.4-0.4-5.3c-0.8-4.9-2.7-10-5.6-15.3c-1.1-2.1-2.3-4.1-3.5-6c-1.2-1.9-2.1-3.1-2.5-3.6
		c-0.1-0.1-0.2-0.1-0.2-0.2c0,0-0.1,0-0.1,0l-0.1,0.1c0,0,0,0.1,0,0.1c0,0,0,0.1,0,0.3c0,0.2,0,0.4,0,0.7c0,0.3,0,0.7,0,1.1
		c0,0.4,0,1,0,1.7c0,7,0.5,13,1.5,18c0.9,5.5,2.2,9.9,3.9,13.3c1.1,2,2.1,3.5,3.2,4.4c0.3,0.2,0.6,0.3,0.8,0.3h0.1
		C239,558.9,239.3,558.8,239.5,558.5z"/>
	<path class="st0" d="M280.5,540.6c-0.7-0.1-1.3-0.4-1.9-0.7c-1.9-1.1-3.5-3.2-4.7-6.3c-2.2-6-3.3-13.6-3.3-22.9
		c0-5,0.3-10.5,0.9-16.5c0.1-0.8,0.2-1.5,0.2-2c0.1-0.5,0.1-0.9,0.1-1.2c0-0.3,0-0.5,0-0.6c0-0.1,0-0.2-0.1-0.2
		c-0.2,0-0.9,1.1-2,3.3c-1.3,2.6-2.6,5.4-3.8,8.3c-1.2,2.9-2.6,6.6-4.3,11.1c-0.5,1.4-0.9,2.6-1.3,3.4c-0.4,0.9-0.7,1.6-1,2.2
		c-0.6,1.3-1.2,2.2-1.7,2.7c-0.5,0.5-1,0.7-1.6,0.7c-0.3,0-0.6-0.1-1-0.2c-0.1,0-0.3-0.1-0.5-0.1c-0.2,0-0.3-0.1-0.5-0.1
		c-1.1-0.1-2-0.6-2.7-1.4c-0.4-0.4-0.8-0.8-1-1.3c-0.2-0.5-0.4-1.2-0.5-2c0-0.4-0.1-0.9-0.1-1.6c0-0.7,0-1.4,0-2.2
		c0-0.8,0-1.4,0.1-1.8c0.5-5,1.7-9.3,3.5-12.9c1.2-2.4,2.5-3.9,3.9-4.7c0.3-0.2,0.6-0.3,0.9-0.4c0.3-0.1,0.6-0.1,1-0.1
		c0.3,0,0.6,0,0.9,0.1c0.3,0.1,0.6,0.2,1,0.5c0.2,0.1,0.4,0.2,0.6,0.3c0.2,0.1,0.6,0.1,1,0.2c0.9,0.1,1.6,0.6,2.2,1.3
		c0.1,0.3,0.2,0.4,0.3,0.5h0.1c0.1,0,0.2,0,0.2-0.1c0,0,0.1-0.2,0.3-0.5c0.2-0.3,0.3-0.6,0.5-0.9c1.9-3.8,3.6-6.7,5-8.9
		c0.4-0.7,0.8-1.1,1-1.4c0.2-0.3,0.4-0.5,0.6-0.5c0.1-0.1,0.3-0.1,0.4-0.1c0.1,0,0.3,0.1,0.5,0.2c0.1,0.1,0.3,0.2,0.5,0.2
		c0.2,0,0.3,0.1,0.5,0.1c0.3,0.1,0.5,0.2,0.7,0.3c0.2,0.1,0.3,0.2,0.5,0.3c0.4,0.4,0.7,0.8,0.9,1.5c0.2,0.4,0.3,0.9,0.4,1.4
		c0.1,0.5,0.1,1.2,0.1,2.1c0,0.6,0,1.1,0,1.6c0,0.5-0.1,1.2-0.2,2.2c-0.1,0.9-0.3,2.3-0.5,4c-0.3,2.5-0.5,4.5-0.6,5.9
		c-0.2,1.4-0.3,2.6-0.4,3.5c-0.1,0.9-0.2,2-0.3,3.2c-0.2,2.5-0.3,5-0.3,7.3s0.1,4.6,0.3,6.7c0.4,4.7,1.3,8.4,2.6,11.1
		c0.4,0.8,0.7,1.5,1.1,2c0.4,0.5,0.7,0.8,1,0.9c0.1,0,0.2,0.1,0.3,0.1c0.3,0,0.7-0.2,1.1-0.5c0.9-0.7,1.8-1.7,2.6-3.1
		c1.3-2,2.6-5,4-9.1s3.1-9.9,5.1-17.4c0.5-2,0.9-3.4,1.2-4.2s0.6-1.3,0.8-1.6c0.2-0.2,0.3-0.3,0.5-0.3c0.1,0,0.2,0.1,0.3,0.2
		c0,0.1,0.1,0.3,0,0.7c0,0.4-0.1,1-0.3,2c-0.2,1-0.5,2.3-0.9,4.2s-1,4.2-1.7,7.1c-2.2,9.3-3.8,15.1-4.7,17.3c-1.4,4-3.2,6.2-5.3,6.7
		c-0.4,0-0.8,0.1-1.2,0.1c-0.4,0-0.8,0-1,0H280.5z M255.9,515c0.1-0.2,0.4-0.7,0.8-1.4c0.4-0.7,0.9-1.5,1.3-2.3
		c0.4-0.6,0.9-1.6,1.5-2.9c0.7-1.3,1.4-2.7,2.1-4.2c0.7-1.5,1.4-2.7,1.9-3.8c0.5-1.1,0.8-1.7,0.8-1.8v-0.1c0-0.1,0-0.2-0.1-0.2
		c0-0.1-0.2-0.2-0.5-0.2c-0.2,0-0.3-0.1-0.4-0.1c-0.1,0-0.1,0-0.2,0c0,0-0.1,0.1-0.2,0.1c-0.3,0.2-0.8,0.7-1.5,1.5
		c-0.7,0.8-1.3,1.7-1.9,2.6c-1.9,3-3.2,6.5-3.9,10.3c-0.1,0.6-0.2,1.1-0.2,1.5c0,0.4-0.1,0.7-0.1,0.8v0.3c0,0.1,0,0.1,0.1,0.1
		C255.6,515.3,255.7,515.2,255.9,515z"/>
	<path class="st0" d="M344.3,537.4c-1.3-0.2-2.4-0.8-3.3-1.9c-1.8-2.1-2.7-7.2-2.7-15.1c0-1.7,0-3.6,0.1-5.7
		c0.2-6.4,0.8-14.5,1.8-24.3c0.3-2.3,0.4-3.9,0.5-5c0.1-1.1,0.2-2.3,0.2-3.6c0-0.6,0.1-1.1,0.1-1.5c0-0.4,0-0.6-0.1-0.8
		c-0.1-0.3-0.2-0.5-0.3-0.5h-0.1c-0.1,0-0.3,0.1-0.6,0.4s-0.6,0.6-1,1c-0.4,0.4-0.7,0.7-0.9,1.1c-3.5,4.8-6.8,11.6-9.9,20.1
		c-0.8,2.3-1.7,5.1-2.5,8.4c-0.4,1.6-0.8,2.8-1.1,3.6c-0.3,0.7-0.6,1.2-0.9,1.4c-0.1,0.2-0.3,0.3-0.4,0.3c-0.2,0-0.3,0.1-0.6,0.1
		c-0.1,0-0.3,0-0.5,0c-0.2,0-0.4,0.1-0.6,0.1h-1.3c-0.4-0.1-0.8-0.3-1.3-0.5c-0.7-0.3-1.2-0.9-1.7-1.7c-0.5-0.8-0.9-2.1-1.4-3.8
		c-0.2-0.8-0.4-1.6-0.6-2.4c-0.2-0.8-0.4-1.7-0.6-2.6c-0.1-0.7-0.2-1.2-0.3-1.5c-0.1-0.3-0.2-0.4-0.3-0.4c-0.2,0-0.5,0.6-0.9,1.7
		c-1.1,2.7-2.5,7.6-4.2,14.7c-0.5,2.1-0.9,3.6-1.2,4.4c-0.3,0.9-0.6,1.5-1,1.8c-0.2,0.2-0.3,0.3-0.5,0.4c-0.1,0.1-0.3,0.1-0.6,0.2
		c-0.3,0-0.7,0-1.4,0c-0.5,0-0.9-0.1-1.1-0.1c-0.2,0-0.4,0-0.6-0.1c-0.2,0-0.3-0.1-0.5-0.1c-0.5-0.2-1.1-0.5-1.8-1
		c-2-1.7-3.6-6.5-5-14.3c-0.7-3.8-1.2-7.8-1.5-12c-0.1-0.9-0.1-2-0.1-3.2c0-1.2,0-2.1,0.1-2.6c0.4-1.9,1-3,1.9-3.3l0.3-0.1l0.3,0.1
		c0.2,0,0.5,0.2,0.9,0.3l0.7,0.3l0.5-0.1c0.3,0,0.5-0.1,0.8-0.1c1.4,0,2.3,0.9,2.7,2.7c0.2,0.8,0.4,1.8,0.5,2.9
		c0.1,1.1,0.2,3,0.2,5.5c0,2,0.1,3.7,0.2,5.1s0.1,2.6,0.2,3.7c0.1,2.1,0.3,4,0.5,5.6c0.2,1.7,0.3,2.6,0.5,2.9
		c0.1,0.1,0.2,0.1,0.2,0.1c0.1,0,0.2,0,0.2-0.1c0-0.1,0.2-0.4,0.3-0.8c0.2-0.4,0.5-1.2,0.8-2.2c0.4-1,0.9-2.5,1.5-4.4
		c1.8-5.4,3.3-9.3,4.5-11.8c0.5-1.1,0.9-1.9,1.2-2.3c0.3-0.4,0.6-0.6,0.9-0.7c0.1,0,0.3,0,0.4,0c0.2,0,0.4,0.1,0.6,0.2
		c0.1,0,0.2,0.1,0.3,0.1s0.2,0,0.3,0.1c0.1,0,0.3,0,0.5,0c0.5,0,0.9,0,1.1,0.1c0.3,0.1,0.6,0.2,0.9,0.4c0.8,0.6,1.5,1.7,2.1,3.4
		c0.2,0.4,0.3,1,0.5,1.7c0.2,0.7,0.4,1.9,0.7,3.5c0.2,0.8,0.3,1.5,0.4,2c0.1,0.5,0.2,0.9,0.2,1.2c0.1,0.3,0.1,0.4,0.2,0.5
		c0,0.1,0.1,0.2,0.1,0.2c0,0,0.1,0,0.2-0.1c0.1,0,0.1-0.2,0.2-0.4s0.2-0.5,0.4-0.9c0.2-0.4,0.4-0.9,0.6-1.5c0.3-0.6,0.6-1.5,0.9-2.4
		c1.2-3.4,2.3-6.1,3.2-8.1c4.1-9.4,8-16,11.7-19.6c0.5-0.5,0.9-0.8,1.2-0.9c0.3-0.1,0.5-0.1,0.6-0.1c0.3,0,0.6,0.1,0.9,0.2
		c0.1,0.1,0.3,0.2,0.5,0.2s0.4,0.1,0.5,0.1c0.9,0.1,1.6,0.6,2.3,1.3c0.9,0.9,1.5,2.4,1.8,4.5c0,0.3,0.1,0.5,0.1,0.8c0,0.3,0,0.6,0,1
		c0,0.4,0,0.9,0,1.6c0,1.4,0,2.7-0.1,3.9c-0.1,1.2-0.3,2.9-0.5,4.9c-0.3,2-0.7,4.8-1.2,8.4c-0.5,3.4-0.8,6-1.1,7.8
		c-0.2,1.8-0.4,3.5-0.6,5.3c-0.2,2-0.4,3.7-0.5,5.1c-0.1,1.4-0.1,2.9-0.1,4.3c0,4.4,0.4,7.4,1.3,8.7c0.4,0.8,0.8,1.3,1.1,1.3
		c0.1,0,0.3-0.1,0.6-0.3c0.3-0.2,0.6-0.4,0.9-0.6c0.4-0.3,0.8-0.7,1.3-1.2c0.5-0.5,0.9-1,1.3-1.5c1.5-1.9,3.4-5.2,5.7-9.7
		c0.9-2,1.8-3.9,2.7-5.7c0.8-1.9,1.9-4.3,3.2-7.4c0.4-1.1,0.8-2,1.2-2.8c0.2-0.6,0.4-1,0.5-1.3c0.7-1.5,1.2-2.3,1.6-2.3h0.1
		c0.2,0,0.3,0.3,0.3,0.7v0.2c0,0.4-0.1,1-0.4,1.8c-0.2,0.8-0.7,1.9-1.3,3.5c-3.3,9.1-6.3,16.1-8.8,21.1c-0.8,1.6-1.6,2.9-2.1,3.8
		c-0.6,1-1.2,1.7-1.8,2.4c-0.8,0.8-1.5,1.3-2.2,1.6c-0.1,0-0.3,0.1-0.4,0.1c-0.1,0-0.3,0-0.5,0.1c-0.2,0-0.5,0-0.8,0
		c-0.4,0-0.7,0-1,0C344.7,537.4,344.5,537.4,344.3,537.4z"/>
	<path class="st0" d="M369.9,530.5c-1.8-0.3-3.2-1.5-4.3-3.7c-1.9-3.9-3.1-11.3-3.7-22.3c-0.2-2-0.3-3.6-0.3-4.8c0-1.2,0-2,0-2.4
		c0-1.2,0.1-2,0.2-2.5c0.1-0.5,0.3-0.9,0.6-1.3c0.2-0.4,0.5-0.6,0.8-0.7c0.1,0,0.3-0.1,0.5-0.1h0.2c0.2,0,0.5,0.2,0.9,0.4l0.9,0.5
		l0.9,0.1c0.3,0,0.5,0,0.6,0c0.2,0,0.3,0,0.4,0.1c0.1,0,0.2,0.1,0.3,0.1c1.2,0.6,1.9,2,2,4.1c0,0.3,0,0.6,0,0.8c0,0.2,0,0.6-0.1,1.1
		c-0.1,0.5-0.2,1.2-0.4,2.2c-1.1,5-1.3,11.7-0.7,20.2c0.1,1.1,0.3,2,0.5,2.7c0.2,0.7,0.4,1.3,0.7,1.9c0.4,0.8,0.7,1.2,1.1,1.2
		c0.4,0,0.9-0.4,1.6-1.1c0.5-0.5,1-1.2,1.5-1.9c4.8-8.8,7.7-15.1,8.9-19c0.1-0.4,0.3-0.9,0.6-1.5c0.1-0.2,0.2-0.5,0.3-0.7
		c0.4-0.8,0.6-1.3,0.8-1.5c0.2-0.3,0.4-0.4,0.6-0.4c0.2,0,0.3,0.1,0.4,0.2c0.1,0.1,0.2,0.3,0.2,0.5c0,0.4-0.3,1.7-1,3.7
		c-0.7,2-1.9,5.3-3.7,9.9s-3,7.7-3.8,9.2c-1.5,3.1-3,4.7-4.5,4.9c-0.4,0.1-0.9,0.1-1.5,0.1C370.6,530.6,370.2,530.5,369.9,530.5z
		 M369.1,469.8c0,0-0.1,0-0.2,0c-0.1,0-0.2-0.1-0.3-0.1c-0.1,0-0.3-0.1-0.5-0.1c-0.2,0-0.4-0.1-0.6-0.1c-0.9,0-1.6-0.4-2.3-1.1
		c-0.4-0.4-0.7-0.8-0.8-1.3c-0.2-0.5-0.2-1.1-0.2-1.8c0-0.8,0.1-1.4,0.2-2c0.2-0.6,0.4-1,0.6-1.2c0.1-0.1,0.3-0.1,0.5-0.1h0.2
		c0.3,0,0.6,0.2,1,0.4c0.2,0.1,0.4,0.2,0.5,0.2c0.1,0.1,0.3,0.1,0.4,0.1c0.1,0,0.2,0,0.4,0c0.9,0,1.6,0.2,2.1,0.7
		c0.6,0.5,0.9,1.5,0.9,3.1c0,2.1-0.5,3.2-1.5,3.3c-0.1,0-0.2,0.1-0.3,0.1C369.2,469.8,369.2,469.8,369.1,469.8z"/>
	<path class="st0" d="M398.9,537.1c-0.2,0-0.4-0.1-0.6-0.1s-0.4-0.1-0.6-0.1c-0.1,0-0.2-0.1-0.3-0.1c-2.8-0.4-5.3-2.2-7.3-5.1
		c-1.9-3-3.4-7.2-4.5-12.7c-0.9-4.6-1.5-9.4-1.7-14.3c0-0.4-0.1-0.8-0.1-1.2c0-0.3,0-0.5,0-0.6c0,0-0.1-0.1-0.2-0.2
		c-0.1-0.1-0.1-0.2-0.2-0.3c-0.3-0.3-0.5-0.6-0.5-0.9c0-0.1,0-0.3,0.1-0.4c0.1-0.2,0.2-0.3,0.3-0.4c0.1-0.1,0.2-0.2,0.2-0.3
		c0.1-0.1,0.1-0.3,0.1-0.5c0-0.2,0-0.6,0-1c0-1.9,0.1-4.1,0.3-6.8c0.2-2.7,0.5-5.3,0.8-7.8c1-6.9,2.4-13.2,4.3-18.9
		c3.2-9.3,7-15.4,11.2-18.1c1.1-0.6,2.1-0.9,3-0.9c0.7,0,1.4,0.2,2,0.5c0.1,0,0.3,0.1,0.4,0.2c0.1,0.1,0.3,0.1,0.4,0.2
		c1.4,0.5,2.3,1.5,2.7,2.9c0.4,1.2,0.5,2.7,0.5,4.4c0,4.6-1.3,10.8-3.8,18.7c-4,11.9-9.3,20.8-15.8,26.9c-0.3,0.2-0.5,0.4-0.7,0.5
		c-0.2,0.2-0.3,0.3-0.3,0.4c-0.1,0.2-0.1,1-0.1,2.2c0,1.2,0,2.6,0.1,4.3c0.1,1.7,0.2,3.4,0.3,5.1c0.6,6.5,1.8,11.8,3.6,15.9
		c0.5,1.1,1.1,2.1,1.8,3.1c0.7,1,1.3,1.6,1.9,1.9c0.1,0,0.2,0.1,0.3,0.1s0.1,0,0.2,0c0,0,0.1,0,0.3-0.1c1.1-0.2,2.2-0.8,3.5-1.7
		c0.2-0.1,0.4-0.3,0.7-0.6c0.3-0.3,0.6-0.5,0.8-0.7c0.8-0.8,1.5-1.6,2.2-2.5c0.7-0.8,1.5-1.9,2.3-3.2c3.4-5.2,6.6-11.2,9.4-17.9
		c0.6-1.3,1-2.3,1.4-2.9c0.4-0.6,0.7-1.1,1-1.4c0.2-0.2,0.4-0.3,0.5-0.3c0.1,0,0.2-0.1,0.3-0.1h0.1c0.3,0.1,0.4,0.4,0.4,0.9
		c0,0.6-0.2,1.6-0.6,2.9c-0.4,1.1-0.9,2.5-1.5,4.2c-0.6,1.7-1.3,3.3-1.9,4.8c-1.2,3.1-2.6,6.2-4.1,9.1c-1.5,3-2.7,5.3-3.7,6.9
		c-2,3.3-4.2,5.2-6.4,5.9c-0.4,0.1-0.8,0.1-1.1,0.1s-0.6,0-0.8,0C399.5,537.2,399.2,537.1,398.9,537.1z M389.5,495.5
		c0.2-0.2,0.8-0.9,1.9-2.1c4.8-6,8.7-13.2,11.8-21.7c2-5.5,3.2-10.3,3.7-14.5c0-0.7,0.1-1.6,0.1-2.5c0-1,0-1.7,0-2.2
		c-0.1-0.7-0.3-1.3-0.4-1.8c-0.2-0.5-0.3-0.8-0.5-1c-0.1,0-0.2-0.1-0.3-0.1c-0.5,0-1.2,0.5-2.1,1.4c-2,2-4,5-6,8.9
		c-1,1.9-1.8,3.8-2.5,5.7c-0.7,1.9-1.4,4.1-2.1,6.6c-1.4,4.7-2.5,10-3.3,15.9c-0.2,1.7-0.4,3.2-0.5,4.4c-0.1,1.2-0.1,2-0.1,2.4v0.4
		c0,0.1,0.1,0.1,0.1,0.1c0,0,0.1,0,0.1,0C389.4,495.6,389.4,495.5,389.5,495.5z"/>
	<path class="st0" d="M439.5,588.4c0,0-0.1,0-0.3-0.1c-0.2,0-0.5,0-0.9-0.1c-1.2,0-2.1-0.2-2.7-0.6c-1.1-0.6-2-1.4-2.7-2.3
		c-0.2-0.3-0.4-0.6-0.6-1c-0.2-0.4-0.4-0.8-0.5-1.2c-0.6-2-0.9-4.3-0.9-6.9c0-4.2,0.7-9.2,2.1-15c1-4,2.3-8,3.9-12.1
		c0.7-1.8,1.4-3.4,2-4.7c0.6-1.4,1.3-2.9,2.1-4.5c1.9-3.7,3.9-7.2,5.9-10.3c0.1-0.1,0.2-0.2,0.2-0.3c0.4-0.5,0.6-0.9,0.7-1.2
		c0.1-0.2,0.2-0.4,0.3-0.6c0-0.1,0.1-0.2,0.1-0.3c0-0.1,0-0.2-0.1-0.3V527c0-0.4-0.1-1.1-0.2-2.4c-0.1-1.2-0.2-2.3-0.4-3.4
		c-0.8-5.9-1.8-11-3.3-15.5c-0.5-1.6-1-2.9-1.5-4.1c-0.5-1.2-0.8-1.8-1.1-2c-0.1,0-0.2-0.1-0.3-0.1h-0.2c-0.2,0.1-0.5,0.2-0.9,0.5
		c-1.6,1.2-3.2,3.2-5,6.3c-1.2,2.1-2.7,5.1-4.5,8.9c-0.6,1.4-1.2,2.6-1.8,3.7s-1,1.9-1.2,2.3c-0.8,1.3-1.7,2-2.5,2
		c-0.3,0-0.7,0-1.2,0c-0.5,0-0.9-0.1-1.3-0.1c-0.4,0-0.7-0.1-0.8-0.1c-1.1-0.4-2-1.1-2.7-2c-0.8-1.3-1.4-3.6-1.9-6.8
		c-0.2-1.3-0.3-2.6-0.4-3.8c-0.1-1.2-0.1-2.8-0.1-4.5c0-4,0.2-7.5,0.7-10.7c0.4-2.6,1-4.4,1.9-5.5c0.5-0.6,1-0.9,1.5-0.9
		c0.4,0,0.7,0.1,1.1,0.4c0.2,0.1,0.4,0.2,0.5,0.3c0.1,0,0.4,0.1,0.7,0.1c1.1,0.1,1.8,0.5,2.1,1.3c0.1,0.2,0.1,0.6,0.1,1.3
		c0,0.4,0,1-0.1,1.5c-0.1,1.5-0.3,3.2-0.5,5.2c-0.7,6.1-1.1,11.1-1.1,15v0.7c0,0.9,0,1.6,0,2.1c0,0.5,0.1,0.8,0.1,0.9
		c0,0.1,0.1,0.2,0.2,0.2c0,0,0.1,0,0.1-0.1c0.5-0.4,2.4-3.4,5.6-9.1c3-5.5,5.3-9,6.9-10.6c1-1.1,2-1.7,2.8-1.8
		c0.1,0,0.2-0.1,0.3-0.1c0.1,0,0.2,0,0.3,0.1c0.3,0,0.6,0.1,0.9,0.3c0.4,0.2,0.9,0.3,1.3,0.3c3.8,0.5,6.7,3.8,8.9,9.8
		c1,3,1.8,6.4,2.5,10.3c0,0.5,0.1,1,0.2,1.3c0.1,0.4,0.1,0.6,0.2,0.7c0,0,0.1,0.1,0.1,0.1c0,0,0.1,0,0.1,0c0,0,0.1,0,0.2-0.1
		c0.1-0.1,0.3-0.3,0.5-0.5c0.2-0.3,0.5-0.6,0.9-1.1c1.2-1.5,2.5-3,3.8-4.5c1.3-1.5,2.3-2.7,3.2-3.7c1.3-1.5,2.4-2.5,3.2-3.1
		c0.1,0,0.2-0.1,0.2-0.2c0.3-0.2,0.5-0.4,0.8-0.6c0.2-0.2,0.5-0.4,0.6-0.6c0.5-0.4,1-0.8,1.6-1.3c0.6-0.5,1-0.8,1.2-0.9
		c0.2-0.1,0.3-0.1,0.5-0.1c0.2,0,0.3,0,0.4,0.1c0.1,0.1,0.2,0.2,0.2,0.3c0,0.3-0.3,0.7-0.8,1.1c-0.5,0.4-1.1,0.9-1.7,1.6
		c-0.7,0.6-1.2,1.1-1.5,1.5c-0.2,0.2-0.4,0.5-0.8,0.9c-0.4,0.4-0.7,0.8-1.1,1.2c-0.4,0.4-0.7,0.8-1.1,1.2c-0.4,0.4-0.6,0.7-0.9,0.9
		c-0.4,0.4-0.8,0.9-1.4,1.6c-0.6,0.7-1.4,1.7-2.4,3c-0.5,0.7-1.1,1.5-1.8,2.4c-0.7,0.9-1.4,1.8-2,2.6c-0.6,0.8-1,1.4-1.2,1.7
		l-0.3,0.5v0.7c0,0.2,0,0.5,0,1c0,0.5,0.1,0.9,0.1,1.4c0.1,2.1,0.2,4.4,0.2,6.8c0,2.5-0.1,5.2-0.2,8c-0.2,4.8-0.7,9.9-1.5,15.5
		c-1.2,8.4-3,15.5-5.2,21.3c-1.7,4.3-3.5,7.4-5.3,9.3c-0.6,0.6-1.2,1-1.6,1.2c-0.5,0.2-1,0.4-1.5,0.4H439.5z M438.5,584.5
		c0.7-0.4,1.5-1.4,2.5-2.8c1-1.4,1.8-3,2.5-4.7c1.4-3.7,2.6-7.8,3.4-12.5c1-5.6,1.7-11.7,1.9-18.3c0-1.6,0.1-3.2,0.1-4.7
		c0-1.5,0-2.7,0-3.6c0-0.8,0-1.6-0.1-2.4c0-1.5-0.1-2.4-0.1-2.5c0-0.1-0.1-0.1-0.2-0.1h-0.1c-0.1,0-0.2,0.2-0.4,0.5
		c-0.2,0.3-0.4,0.7-0.8,1.3c-3.3,5.9-6,11.7-8,17.6c-1.6,5-2.7,9.7-3.3,13.9c-0.2,1.3-0.3,2.3-0.3,3.1c0,0.8-0.1,2-0.1,3.6
		c0,1.6,0,2.8,0.1,3.5c0,0.7,0.2,1.6,0.3,2.5c0.3,1.5,0.6,2.8,1,4c0.4,1.2,0.8,1.7,1.1,1.7c0,0,0.1,0,0.2,0S438.5,584.5,438.5,584.5
		z"/>
</g>
</svg>

