<?xml version="1.0" encoding="utf-8"?>
<!-- Generator: Adobe Illustrator 23.0.5, SVG Export Plug-In . SVG Version: 6.00 Build 0)  -->
<svg version="1.1" xmlns="http://www.w3.org/2000/svg" xmlns:xlink="http://www.w3.org/1999/xlink" x="0px" y="0px"
	 viewBox="0 0 720 720" style="enable-background:new 0 0 720 720;" xml:space="preserve" width="500" height="500">
<style type="text/css">
	.st0{fill:#050002;}
	.st1{fill-rule:evenodd;clip-rule:evenodd;fill:#050002;}
	.st2{fill-rule:evenodd;clip-rule:evenodd;}
	.st3{fill:#221F1F;}
	.st4{fill:#231F20;}
	.st5{fill:#070808;}
	.st6{fill:#211E1F;}
	.st7{fill:#161616;}
	.st8{fill:#131313;}
	.st9{fill:#21201F;}
	.st10{fill:#2C2929;}
</style>
<g>
	<g>
		<path class="st0" d="M346.4,274.2c1.1-0.1,2-0.8,2-2c0-1-0.9-2.2-2-2c-2.7,0.3-5.3,0.5-8.1,0.5c-5,0-10-0.5-15-0.8
			c0.9-1.3,1.6-2.6,2.5-3.8c1-1.5-0.4-3-1.8-3c-0.6,0-1.2,0.2-1.6,0.9c-1.3,1.9-2.5,3.7-3.7,5.6c-5.3-0.3-10.9-0.2-16.2,0.8
			c-3.8,0.8-7.5,2.1-11,3.9c-2.3,1.3-0.2,4.8,2.1,3.5c7-3.9,14.8-4.6,22.6-4.3c-9.5,15.9-16.8,33.6-20.8,51.8
			c-0.4,1.5,0.9,2.6,2.1,2.6c0.8,0,1.6-0.5,1.8-1.5c4.3-18.4,11.6-36.6,21.6-52.6c4.2,0.3,8.6,0.7,12.7,0.9
			C337.9,274.7,342.2,274.7,346.4,274.2z"/>
	</g>
	<g>
		<path class="st0" d="M377.9,266.5c-1.4,10.2-13.7,20.3-24.5,28C360.9,284.2,371.5,270.6,377.9,266.5z M388.8,305.2
			c5.2-4.8,11.1-9,14.7-9c0.4,0,0.7,0.2,0.7,0.6c0,3.5-9,9.1-11.8,10.7c-3.3,1.9-6.6,3.2-10.1,4.6
			C385.5,309.3,388,306.7,388.8,305.2z M408.2,309.2c-2.5,0-17,15.4-27.3,15.4c-2,0-3.5-0.7-3.5-2.9c0-2.4,1.2-5,2.6-6.9
			c0.2,0.9,0.9,1.5,1.7,1.5c0.3,0,0.5,0,0.7-0.1c7.1-2.2,25.9-11.2,25.9-19.7c0-2.6-2.2-4.1-4.7-4.1c-4.9,0-11.8,4.8-17.7,10.1
			c-0.1,0.1-0.2,0.1-0.3,0.2c-7.6,7.5-13.7,13.1-22.8,18.8c-0.7,0.4-1.5,1.1-2.4,1.1c-0.7,0-0.8-0.7-0.8-1.2
			c0-5.7,15.1-21.9,15.1-26c0-2-1.4-3.9-3.5-3.9c-2.8,0-16.2,11.2-19.1,13.6c-4.4,3.6-8.6,7.4-12.6,11.5c1.9-4,4.2-7.7,6.7-11.4
			c6.2-3.9,19.2-14.6,21.5-16.8c6.6-5.7,13.6-12.1,14.7-21.3c0.3-2.2-0.5-5.1-3.3-5.1c-7.4,0-28.5,29.8-32.8,35.7
			c-1,1.3-1.9,2.8-2.9,4.1c-0.4,0.3-0.9,0.6-1.1,0.9c-0.6,0.5-1,1-1,1.7c0,0.2,0.1,0.4,0.1,0.5c-4.1,6.4-7.6,13.1-9.7,20.4v0.5
			c0,1.1,1.1,2.2,2.1,2.2c0.6,0,1.1-0.3,1.3-0.7c5.8-6,11.3-11.9,17.6-17.3c5.6-4.7,11.4-9.4,17.4-13.5c-0.5,0.9-1,1.6-1.6,2.3
			c-3.5,4.9-12.9,17.3-12.9,23c0,2.7,1.8,5,4.6,5c2.2,0,7.9-3.5,13.8-7.8c-0.2,0.9-0.4,1.7-0.4,2.7c0,4.7,3.2,7,7.6,7
			c5.8,0,11.3-3.3,15.9-6.4c3.2-2.3,9.8-7,12.5-9.6c0.4-0.4,0.6-0.8,0.6-1.3C410.1,310.1,409.4,309.2,408.2,309.2z"/>
	</g>
	<g>
		<path class="st0" d="M280.4,492.4c2.7,0.2,2.7-4,0-4.2c-7.4-0.4-14.7,0-22,1c3-6.2,5.9-12.4,8.9-18.6c4.9-0.5,9.7-0.7,14.8-0.7
			c4.2,0,8.2,0.1,12.4,0.5c1.1,0.1,2.1-1,2.1-2.1c0-1.1-1-2-2.1-2.1c-4.1-0.3-8.1-0.5-12.2-0.5c-4.4,0-8.6,0.2-13,0.6
			c0.5-1,0.9-1.9,1.2-2.8c0.6-1,0.4-2.2-0.8-2.8c-0.3-0.2-0.7-0.3-1-0.3c-0.8,0-1.4,0.4-1.7,1c-0.9,1.8-1.7,3.5-2.6,5.2
			c-3.1,0.4-6.1,0.8-9.2,1.2c-1,0.2-1.7,1.5-1.4,2.6c0.3,1.1,1.4,1.6,2.6,1.4c2-0.3,4-0.7,6-0.9l-9,19c-0.2,0.1-0.5,0.1-0.7,0.2
			c-1.7,0.4-1.8,2.2-1,3.2c-2.2,4.7-4.4,9.3-6.6,14c-2.1,4.4-4.1,8.7-6.2,13.2c-0.5,1-0.3,2.2,0.8,2.8c0.3,0.2,0.7,0.3,1,0.3
			c0.8,0,1.4-0.4,1.7-1c4.6-9.7,9.2-19.3,13.7-29C264.2,492.4,272.2,491.9,280.4,492.4z"/>
	</g>
	<g>
		<path class="st0" d="M392.5,483.5c1.1,0,6-4.6,6-5.8c0-1-1-1.9-2-1.9c-1.5,0-5.9,4.5-5.9,5.8C390.6,482.6,391.3,483.5,392.5,483.5
			z"/>
	</g>
	<g>
		<path class="st0" d="M428.1,541.5c-2.1,1.9-9.5,7-12.1,7c-0.5,0-1,0-1-0.4c-0.1-1.3,1.1-2.6,2.1-3.3c7.2-7.4,15.3-13.6,23.8-19.4
			C437.4,531.3,433.4,536.9,428.1,541.5z M278.2,522.7c-0.8,0-1-0.6-1-1.2c0-1.4,0.9-2.8,1.6-4.1c3.2-6.2,6.9-12.2,12.5-16.7
			c1.4-1.1,3.5-2.6,5.5-2.6c3.6,0,3.8,3.8,3.8,6.4C297.7,507.6,282,522.7,278.2,522.7z M441.4,468.3l1.4-0.9
			c-0.9,3.2-6.3,9.9-8.8,12.4c-6.2,6.6-13.7,11.6-21.6,16.2C420.7,485.4,430.5,475.9,441.4,468.3z M460.1,506.8
			c-0.6,0-1,0.3-1.3,0.6c-3,2.4-6.1,4.6-9.2,6.9c2.2-5.9,3.9-11.8,5.4-17.7c0.1-0.2,0.1-0.4,0.1-0.6c0-0.8-0.5-1.3-1-1.6
			c-0.3-0.1-0.6-0.2-0.9-0.2s-0.5,0-0.7,0.1c-0.3,0.1-0.5,0.3-0.7,0.4c-0.2,0.2-0.3,0.3-0.5,0.5c-2.8,3.5-22.9,26.7-26.2,26.7
			c-0.1,0-0.1-0.4-0.1-0.6c0-1,0.3-1.8,0.5-2.7c2.9-10,7.4-17,14-25c0.3-0.4,0.5-0.8,0.5-1.2c0-1-0.9-2-1.9-2
			c-0.6,0-0.9,0.3-1.2,0.7c-2.8,2.8-6.4,7.8-9.5,13.3c-7.6,5-14.8,10-22.9,14.3c-1.9,1-3.8,2.3-5.8,3l-1.4,0.6l0.2-0.6
			c1.7-4,3.8-7.9,6-11.7c0.4-0.3,0.6-0.7,0.7-1.1c1-1.7,2.1-3.4,3.2-5.1c12.9-6.5,25.8-15.1,34.5-26.6c1.6-2.3,5.1-7,5.1-9.7
			c0-2.1-1.4-3.9-3.6-3.9c-2.2,0-6.6,3.7-8.5,5.1c-11.6,8.9-21.8,19.6-29.8,31.7c-1,0.5-1.7,0.9-2.6,1.3c-0.6,0.4-0.9,0.9-0.9,1.5
			c0,0.6,0.2,1,0.6,1.4c-0.3,0.6-0.9,1.4-1.4,2.5c-7,3-30.2,15.3-32.2,15.3c-1,0-1.3-0.9-1.3-1.7c0-2,4.4-8.7,7.4-13.2
			c0.9-1,1.6-2.1,2.2-2.9c0.1-0.1,0-0.2,0.1-0.3c0.2-0.2,0.4-0.5,0.5-0.7c3.2-4.4,7.1-7.9,10.8-11.8c0.3-0.4,0.6-0.8,0.6-1.2
			c0-1-1-2-2-2c-0.6,0-0.9,0.3-1.2,0.6c-2.5,2.2-7.2,7.3-11.6,13c-0.2,0.2-0.4,0.3-0.6,0.5c-4.6,5.7-8.6,11.4-15.1,15.3
			c-0.6,0.4-2.9,1.6-3.4,1.6s-0.7,0-0.7-0.7c0-6.9,14.4-24.2,14.4-29.5c0-1.6-0.9-2.9-2.7-2.9c-1.4,0-4.1,2.1-5.3,3
			c-7.3,5.4-13.4,11.9-19.1,18.9c3.4-7.8,6.7-15.5,6.7-16.8c0-2-1.5-3.2-3.5-3.2c-4.1,0-13.6,11.5-20.7,20.9
			c3.6-8.4,8.1-16.3,13.3-24c0.2-0.3,0.3-0.7,0.3-0.9c0-1-0.9-2.1-1.9-2.1c-0.8,0-1.2,0.5-1.7,1c-5.7,7.5-10.3,16.3-13.9,25.4
			c-4.7,3.4-16.6,13.4-20.5,13.4c-0.8,0-1.1-0.5-1.1-1.2c0-2.4,4.5-9.9,5.9-12.2c2.5-3.8,4.9-6.6,7.7-10c0.3-0.4,0.5-0.8,0.5-1.2
			c0-0.9-0.9-1.9-1.8-1.9c-0.5,0-0.9,0.3-1.1,0.7c-1.7,1.6-3.3,3.3-5,5.1c-0.9-3.5-3.2-6.4-7.3-6.4c-9.3,0-18.7,15.5-22.2,23
			c-0.6,1.1-1,2.5-1,3.8c0,2.7,1.9,4.9,4.6,4.9c3,0,5.7-2.5,7.9-4.2c3.9-2.9,7.5-6.1,11.1-9.4c-0.8,1.6-1.4,3.2-2.1,4.9
			c-0.5,1-0.8,2.2-0.8,3.2c0,2.8,2,4.7,4.8,4.7c2.3,0,4.4-1.1,6.2-2.3c3.6-2.3,7.8-5.1,11.7-8c-0.7,1.8-1.2,3.6-1.7,5.5
			c0,0.2-0.1,0.4-0.1,0.6c0,1,0.9,1.9,2,1.9c0.8,0,1.2-0.4,1.7-0.9c5.7-7.5,10.7-15.2,17.1-22.1c2.3-2.6,4.8-5.2,7.4-7.3
			c-2.2,5.1-10.7,24.1-12.6,29.2c-0.1,0-0.1,0.1-0.2,0.2l0.1,0.1c-0.2,0.5-0.3,0.8-0.3,0.9c0,1,0.9,1.9,1.9,1.9
			c0.8,0,1.2-0.4,1.6-0.9c8.9-11.5,15.8-22.1,27.7-31c0.3-0.2,0.8-0.6,1.1-1c-0.6,1-1.1,2.2-1.4,2.7c-3.1,5.5-11.6,18-11.6,23.8
			c0,2.6,1.5,4.7,4.3,4.7c2.8,0,6-1.9,9.3-4.6c-0.2,0.8-0.3,1.4-0.3,2c0,2.8,2,5.3,4.9,5.3c1.6,0,3.2-0.8,4.5-1.4l24.6-11.8
			c-2.1,4-4.1,8.1-4.1,9.7c0,2,1.7,3.4,3.7,3.4c3.5,0,18.4-9,26.9-14.6c-1.5,3.7-2.6,7.1-2.6,9.8c0,2.2,1.4,4.4,3.8,4.4
			c1.7,0,3.2-1,4.5-2c2.5-2.1,12.6-12.1,19.3-19.5c-1.3,4.9-3.1,9.7-5,14.3c-2.5,1.8-4.9,3.5-7.4,5.2c-7.9,5.7-15.9,11.7-22.5,18.8
			c-1.7,1.8-3,3.4-3,6c0,2.3,2.1,4,4.3,4c3.5,0,8.2-2.8,11.2-4.8c9.6-6.5,15.8-16,20.4-26.3c5.1-3.5,10.2-7.1,14.5-11.2
			c0.4-0.4,0.6-0.9,0.6-1.3C461.9,507.7,461.1,506.8,460.1,506.8z"/>
	</g>
	<g>
		<path class="st0" d="M641.9,415.2c-5.3,17.5-19.3,36.1-37.3,32.4C616,426.8,623.2,423.2,641.9,415.2z M619.2,326.7
			c2.3-4.8,5.3-10.1,8.8-14.1c2.3,4.8,5.3,14.8,2.7,20.2c-2.3,4.9-7.1,8-11.6,10.9C614.9,336,616,333.4,619.2,326.7z M535.6,499.6
			c5.5,9.1,10.6,30,7.8,50.7C531.1,540.5,525.6,521.4,535.6,499.6z M442.8,659.9c-13.5,6.9-28.4,10.4-43.4,10.6
			c-0.4-3.5-1.1-7-2.6-10.1c0.3-0.1,13.3-7.9,20-11c9.8-4.5,30.7-9.4,52.3-32.2c2.8-3-1.6-7.3-4.4-4.4c-19.4,20.5-38.4,25.9-48,29.9
			c1.4-4.4,2.5-11.7,1.6-17.1c15.2-27.3,46.9-22.5,78.3-39.3C486,617.1,472.2,645.1,442.8,659.9z M380,695.2c-9.7,2.6-18,6.1-27.8,1
			c-4.1-2.2-5.5-5.9-6-10.4c-1.5-13.9,0.2-16.9,5.2-32.1c0.6-0.1,1.1-0.2,1.6-0.4c-0.5,7.8,1.1,25.5,7.5,21.8
			c1.5-0.9,1.9-2.8,1.1-4.3c-2.7-5.4-2.9-11.6-2.5-17.6c2.1,3.8,3.5,6.4,4.6,9.6c1.3,4.2,7.2,2,6-1.6c-1.7-5.3-4.8-10.3-7.4-15.3
			c0.1-0.2,0.3-0.5,0.5-0.7c6.3,5.1,13.7,8.5,21.9,9.7c4.5,3.5,7.8,7.8,8.5,16.8C394.1,683.8,391.6,692.1,380,695.2z M305.3,683.1
			c-4.6-2.1-7.1-2.1-7.9-8.1c-1.7-11.6,1.3-16.9,10-21.6c8-4.4,17.1-7.1,26.2-8.3c0.3,0.5,0.6,1,0.9,1.4c-5.9,3.4-11.3,7.8-15.8,13
			c-3,3.4,2,7.1,4.4,4.4c4.7-5.4,8.8-8.6,13.1-11.2c-0.8,1.1-1.5,2.3-2.2,3.4c-4.4,7.2-4.8,8.8-3.8,10.4c1,1.5,3,1.9,4.3,1.1
			c1.8-1.1,0.9-2.7,8.9-14.3c0.5,0.2,1,0.3,1.5,0.4c-4.5,13.2-6.9,20-4.6,34.5C328,706.5,312.4,686.2,305.3,683.1z M202.4,586.3
			c29.9,16.2,67.4,12.8,82.2,40.2c-2,5.9-2.7,10.8-2.5,14.7c-8-2-9.5-1.4-21.4-8c-9.7-5.4-18.6-12.3-26.3-20.4
			c-2.8-3-7.2,1.5-4.4,4.4c8,8.5,17.3,15.7,27.5,21.4c15.7,8.7,17.4,6.8,25.8,9.5c1.7,4.8,5.1,9.3,9.6,10.6
			c-1.1,2.1-2.1,4.9-2.4,10.6C243.3,667.1,216.7,631.4,202.4,586.3z M292.3,616c-1-11.7,14.5-27.2,29.3-10.7
			c3.5,7.7,8.6,14.7,15.4,19.7c-0.9,0.8-1.6,1.6-2.3,2.6c-4.4-4.3-16.6-11.5-18-5.6c-1.2,5.2,5.4,2.5,13.4,9.8
			c-6.2,1-10,0.7-14.7,0.6c-4.1-0.1-4.1,6.1,0,6.2c5.5,0.1,8.7,0.5,16.1-0.8c0,0.4,0.1,0.8,0.1,1.1c-10.5,1.7-25.3,6.1-33.3,13
			c-0.1,0-0.3,0.1-0.4,0.1c-8,3.3-10-9.3-9.5-14.5C289.3,628.6,293.2,625.7,292.3,616z M323.1,585c2.7-11.2,14.1-13.2,25.7-13.4
			c10.4-0.3,22.2-1.5,25.6,8.7c2.3,7-1.4,27.6-16.4,42.6c-1-0.7-1.9-1.3-3-1.8c2-6.1,3.3-12.4,4.1-18.7c0.2-1.6-1.5-3.1-3.2-3.1
			c-4.5,0.2-1.9,4-6.7,19.3c-0.4-0.9-0.9-1.7-1.2-2.6c-2.3-5.1-4.5-10.5-6.4-16.7c-1.3-4.1-7.2-2-6,1.6c2.3,7.3,5.1,14.3,7.9,20
			c-0.4,0.1-0.7,0.3-1,0.4C328.5,612.4,321.5,592.1,323.1,585z M382.9,603.4c3.2-2.8,6.9-6.8,11.1-7.8c8.3-2.2,10.2,11.4,13.6,18.8
			c3.9,8.6,6.9,12.8,2.8,26.9c-1.4,4.9-4.9,6-9.5,7.1c-12.5,2.8-25.2-0.1-35.3-9.1c4.8,1.3,16.4,2.4,22.2,2.7
			c1.7,0.1,3.2-1.5,3.2-3.1c0-1.7-1.4-3.1-3.2-3.1c-6.2-0.3-10.5-0.8-15.9-1.5c3.2-1,6.2-2.2,9-3.9c1.4-0.9,2-2.9,1.1-4.3
			c-3-4.6-5.7,2.4-18.7,3.5c-0.3-0.8-0.7-1.4-1.1-2.1C374.4,615.4,367.2,617.2,382.9,603.4z M604.6,536.2c-0.7,6.5-5.3,16.1-11,19.9
			c-5.5,3.6-13,4.8-19.2,2.3C575.9,546.9,592.8,540.1,604.6,536.2z M105.3,556.1c-5.8-3.8-10.3-13.6-11-19.9
			c11.2,3.7,28.7,10.5,30.2,22.1C118.3,560.9,110.9,559.8,105.3,556.1z M163.4,499.6c10,21.8,4.5,40.9-7.8,50.7
			C152.6,527.9,159,506.7,163.4,499.6z M57.1,415.2c8.6,3.7,16.9,6.9,23.4,13.1c5.8,5.5,10.1,12.3,13.9,19.3
			C76.4,451.4,62.6,432.8,57.1,415.2z M67.6,323.5c1-4.5,2.8-9.6,3.3-10.9c3.4,4,6.3,9.1,8.6,13.8c3.3,6.9,4.6,9.5,0.3,17.3
			C71,338.1,65.5,333.3,67.6,323.5z M113.2,309.2c0.1-0.1,0.2-0.3,0.3-0.4c7.4-11.2,19.4-11.3,28.4-17.5c4.6,1.7,9.6,2.4,14.2,1
			c-2.4,3.9-2.1,8.4,0.2,12.3c-15,9.8-29.5-0.1-53.6,42.9C105.2,334.1,108.4,322.1,113.2,309.2z M106.2,253.8
			c-1.3-12.4,2.2-27.4,4.8-31.6c10.6,15.9,13.9,36.4,7.4,56.2C111.3,272.3,107.3,263,106.2,253.8z M221.5,210.8
			c-12.4,14.1-32.8,18.5-50,10.5C182.8,213,205.1,211.4,221.5,210.8z M162.5,272.6c-1.8,5.5-1.3,8.8-3.8,11.3
			c-3.5,3.7-8.8,3.4-13.4,2C150,275.5,154.3,274.5,162.5,272.6z M100.2,375.7c5.4-17.1,14.9-35.5,32-42.3
			C125.3,347,119.4,373.3,100.2,375.7z M164.3,153.2c4.1,10.4,6.8,18.5-2.9,24.2C155.6,168.9,159.9,163.1,164.3,153.2z M248.3,159.2
			c-2.6,4.1-5.3,8.1-9.1,11.2c-4.3,3.4-10.7,5.3-15.8,2.5C226.1,162.7,239.2,160.9,248.3,159.2z M124.4,446.8
			c6.5,12.5,10.7,19.7-1.9,26C115.2,466.1,119.7,455.4,124.4,446.8z M574.5,446.8c4.8,8.5,9.3,19.3,1.9,26.1
			C563.9,466.5,568,459.3,574.5,446.8z M566.8,333.4c17.1,6.9,26.5,25.3,32,42.3C579.5,373.3,573.7,347.1,566.8,333.4z M542.8,304.8
			c2.5-4,2.1-8.6-0.2-12.5c4.7,1.4,9.8,0.8,14.5-1c9.1,6.3,20.9,6.1,28.4,17.5c0.1,0.2,0.2,0.3,0.3,0.4c4.3,11.7,7.6,23,10.3,38.2
			c-5.3-9.6-11.7-18.9-19.5-26.4C565.3,309.8,552.6,311.1,542.8,304.8z M546.3,276c3.3,2.5,5.5,6.2,7.3,10c-4.6,1.4-9.8,1.7-13.4-2
			c-2.5-2.6-1.9-5.9-3.8-11.3C540.3,273.4,543.5,274,546.3,276z M477.4,210.8c15.5,0.6,38.8,2.2,50,10.5
			C510.3,229.3,489.8,224.9,477.4,210.8z M588,222.1c2.4,4.1,6.1,18.9,4.8,31.6c-1.1,9.3-5.1,18.5-12.2,24.7
			C574.3,259.4,576.9,238.7,588,222.1z M450.7,159.2c9.5,1.8,22.2,3.5,24.8,13.6C465.9,178.3,456.5,168.7,450.7,159.2z M530.9,167.1
			c0-3.8,2.4-10.4,3.8-13.9c4.3,10.2,8.7,15.7,2.9,24.2C533.9,175.2,531,171.5,530.9,167.1z M654.5,366.5
			c-2.8-9.8-15.4-11.9-21.3-5.5c-5,4.6-4.9,13.8,0.5,18c-8.4,15-21.8,27.6-28,43.5c0.7-7.8,1-15.6,1-23.4
			c1.1-17.2,11.3-32.1,13.6-49c0.3-0.1,0.6-0.2,0.9-0.4c14.1-8.8,20-16.1,15.1-32.1c-1-3.1-1.7-7.1-3.7-9.8c-2.2-2.9-5.7-3-8.2-0.4
			c-5,5.1-8.4,11.9-11.5,18.4c-4,8.7-3.3,13.4,1.4,21.9c-0.9,10.2-4.9,19.6-8.3,29.2c-1.1-15.7-3.3-31.5-7.2-46.6
			c-3.9-15.6-9.6-30.8-16.6-45.3c26.5-19.6,16-64.2,8.1-69.6c-4.3-3-7.4,3-9.2,5.9c-5.8,9.7-9.5,21.4-10,34.1
			c-8.1-20.9,0-30.9-2.8-48.8c11-7,5.2-22.9-6.6-22.9c-6.5,0-12.8,5.7-12.5,12.5c0.3,7.1,5.9,12.8,13.1,12.4
			c2.1,15.3-4.4,25.5,0.9,43.1C548,229.2,549,236.1,546,222.5c-2.9-13.2-4.4-25.8-5.1-39.6c10.1-12.2,4.8-19.9-0.9-33
			c-1.1-2.7-2.4-6.5-5.9-6.1c-3.3,0.3-4.4,4.8-5.3,7.3c-2.3,5.7-4.9,12.2-3.8,18.5c0.9,5.6,4.9,10.4,9.8,13.2
			c0.6,14.1,2.3,26.5,4.7,38.5c-13.3-14.7-28.1-27.9-44.3-39.3c-4.3-3-8.7-5.8-13.1-8.5c-2-18.6-26.6-19.3-35.9-21.9
			c-2-0.6-3.9,1-3.9,3c-0.2,5.2,16.7,33.3,35.7,23.8c0.2,0.1,0.3,0.1,0.5,0.1c15,9.1,28.9,19.8,41.7,31.8
			c-12.8-4.6-35.4-5.9-49.1-6.2c-2.3,0-4,2.7-2.7,4.7c14.1,21.9,43.3,29,65.8,15.8c11.7,13,22.8,27.7,32.2,43.5
			c5.3,8.8,9.9,17.9,14,27.3c-7.5-5-13.9-5.5-20-9.5c-2.4-5.6-5.3-11.1-10.2-14.9c-4.4-3.3-8.5-3.8-18.2-6c-2.6-0.6-5,2.2-3.5,4.6
			c3.8,6.4,2.9,11.6,6,16.7c-7.9-1.5-15.1,5.1-14.8,12.2c0.5,9.7,10.4,15.6,18.8,10.6c14.5,9.8,24.6,3.4,41.2,24.3
			c-5.3-4-11.3-7-18.3-8.2c-2.5-0.5-5.2,2.1-3.5,4.6c7,10.6,9.7,23.3,16.2,34.1c5.6,9.5,14.8,17.6,26.3,18.1
			c0.3,5.7,0.5,11.5,0.5,17.3v0.1c0,0.1,0,0.2,0,0.4c-0.2,36.5-7.5,72.1-23.8,105.1c1.8-8.9,2.9-17.8,3.1-26.9
			c6.6-5.5,9.7-16,2-30.8c-1.9-3.6-4-7.6-8.5-8c-1-0.1-2.2,0.7-2.7,1.5c-4,7.7-14.1,22.1-4.5,32.4c2.1,2.2,4.8,3.8,7.4,5.1
			c-0.8,29.6-9.8,47.6-9.9,49.9c-4.2,6.6-8.8,13-13.7,19.1c2.1-23.4-4.8-47.9-12.8-55.7c-1.4-1.3-3.9-1.1-4.9,0.7
			c-15,27.5-7.6,52.9,9.6,64.5c-13.2,14.9-26.8,27.1-41.4,37.3c1.6-4.6,3-9.2,4.6-13.9c0.9-2.5-2.4-5-4.6-3.5
			c-26.2,17.5-51.3,14.1-72.9,29.4c-4.6,3.2-8.6,7.1-11.8,11.6c-6.8-16.6-8.3-25.4-16.9-28c-7.4-2.2-13.9,3.9-19.9,9
			c1.6-6,3.2-13.2,1.5-19.2c-1.3-5.1-5.1-9.3-9.6-11.6c-7.6-3.8-29.2-2.9-38.5-0.1c-10.7,3.2-18,13.3-14.7,26.8
			c-15.8-8.3-33.1,5.6-31.5,23.1c-21-27-56.3-19.8-87.7-40.9c-2.2-1.5-5.4,1-4.6,3.5c1.6,4.8,3.2,9.5,4.9,14.2
			c-14.6-10.2-28.6-22.7-41.8-37.6c17.4-11.7,24.6-37,9.7-64.5c-5.2-9.5-20.7,21.3-17.7,55c-4.9-6.1-9.5-12.5-13.7-19.2
			c-0.1-2.6-9.1-20.1-9.9-49.8c18.1-9.2,11.5-21.2,3-37.6c-0.5-0.9-1.6-1.6-2.7-1.5c-4.5,0.4-6.5,4.2-8.4,7.7
			c-7.9,15-4.8,25.5,1.9,31.1c0.2,9.1,1.2,18,3.1,26.9c-19.6-38.7-26.1-79.9-23.9-122.8c11.5-0.5,20.6-8.7,26.3-18.1
			c6.5-10.9,9.2-23.5,16.2-34.1c1.6-2.5-1.1-5.1-3.5-4.6c-7.1,1.3-13.1,4.2-18.3,8.2c16.7-21.1,26.4-14.3,41.2-24.3
			c8.7,5.3,19.2-2,18.8-10.7c-0.4-8-7.4-13.7-14.8-12.2c3.2-5.1,2.3-10.3,6-16.7c1.4-2.4-1-5.1-3.5-4.6
			c-13.9,3.2-21.1,3.2-28.5,20.9c-6.1,4.1-12.1,4.5-20,9.5c11.7-26.6,27.9-50.6,46.1-70.7c22.6,13.2,51.7,6.2,65.9-15.7
			c1.2-2-0.4-4.8-2.7-4.7c-13.6,0.3-36.4,1.6-49.2,6.2c13.7-13,27.3-23.1,41.8-31.8c0.2,0,0.3-0.1,0.5-0.1
			c18.9,9.3,35.8-18.3,35.7-23.8c-0.1-2-1.9-3.5-3.9-3c-10.3,3-33.9,3.6-35.9,21.9c-21.4,13.1-40.7,29.3-57.5,47.8
			c2.5-12.3,4.1-24.7,4.7-38.5c4.4-2.4,7.9-6.4,9.4-11.2c3-9.5-5.7-25.9-6.4-26.6c-2.7-2.7-6-0.4-7.3,2.5
			c-6.5,14.7-12.2,23.1-1.9,35.5c-0.4,9.6-3.4,41.7-8.3,49.9c-4.9,6.1-9.5,12.3-13.8,18.8c5.2-17.3-1.2-28.2,0.9-43.2
			c7.2,0.4,13.4-5.8,13.1-12.4c-0.3-6.8-5.4-12.5-12.5-12.5c-12,0-17.5,15.8-6.6,22.9c-2.8,17.9,5.3,27.9-2.8,48.7
			c-0.7-19-10.6-39.7-16-40.8c-4.8-0.9-7.2,6.5-8.4,9.9c-7.3,20-5,46.7,13.4,60.3c-14.8,30.6-21.2,58.1-23.8,92.1
			c-3.5-9.6-7.4-19.1-8.4-29.4c3.7-6.6,5.6-11.9,2.7-19.3c-2.8-6.7-6.3-13.2-10.9-19c-2-2.6-4.8-5.4-8.2-3.3
			c-2.9,1.7-3.6,5.7-4.6,8.7c-5.8,17.8-1.7,25,14.1,34.9c0.3,0.2,0.6,0.3,0.9,0.4c2.3,17,12.4,32,13.6,49.2c0,7.8,0.4,15.5,1,23.3
			c-6.2-15.8-19.6-28.5-28-43.5c8.7-8.1,3-21.6-8.8-21.6c-10.4-0.4-16.9,13.2-8.8,21.3c0.9,0.7,1.7,1.3,2.5,1.9
			c3.2,1.8,7.2,2,9.5,1.4c8.7,15.4,23.9,28.8,28.8,45.9c-1.2-1.4-2.5-2.8-3.8-4c-7.3-7-16.2-10.5-25.3-14.4
			c-1.9-0.9-4.3-2.4-6.5-1.9c-2.7,0.7-3.1,3.3-2.8,5.6c1,7.1,9.2,25.8,20.8,34.4c7.5,5.5,17.7,8.2,26.7,5.3
			c2.7,12.4,6.2,24.7,10.9,36.5c2.9,7.2,6,14.4,9.5,21.3c-12.4-8.2-26.4-11.9-36.2-21.7c6.9-7.6,1.8-20.6-9.8-20.6
			c-10.4-0.4-16.8,13.2-8.8,21.3c0.9,0.7,1.7,1.3,2.5,1.9c3.6,2.1,8.2,2.1,10.9,1c6.5,6.9,15.1,11.4,23.6,15.6
			c29.9,14.7,25.3,21.4,29.3,22.6c10.5,16.4,22.2,30.6,35.5,43.7c-12-3.9-23.7-9.3-34.4-15.4c-0.2-7.4-5.3-13.7-11.2-17.9
			c-6.8-4.9-15.1-8.1-22.9-10.8c-1.8-0.7-3.9-1.4-5.8-0.6c-6.9,3.1,0.4,27.3,14.9,33.6c6.8,3,14.2,3.2,21,0.6
			c31.2,18,45.5,16.9,53.5,24.7c0.6,0.5,1.1,0.8,1.7,0.9c6.9,5.6,13.7,10.6,20.4,14.9c15.8,39.9,45.6,69.4,88.5,71
			c1.8,10.8,8.5,11.5,12.3,13.5c5,2.6,22.6,23.4,39.1,6.2c3.6,6.6,11.3,9,18.7,9.6c6,0.6,11.9-1.5,17.7-3.1
			c12.1-3.1,20.1-8.1,20.6-25.1c25.8-0.3,52.3-10.2,70.3-29c11.9-12.4,20.4-27.7,26.9-43.7c7-4.5,13.7-9.4,20.1-14.6
			c2.6-0.4,1.5-3.1,13.7-7.2c4.6-1.5,9.2-3,13.7-4.9c9.5-3.8,18.8-8.2,27.8-13.3c32.1,12.5,48.1-37.1,33-34.4
			c-5.2,0.9-18.2,7-23.3,9.9c-7.1,4.3-13.5,11.1-13.7,19.5c-10.7,6.1-22.2,11.5-34.4,15.4c13.6-13.2,25.4-27.7,35.5-43.7
			c3.8-1.2-0.5-8,29.2-22.6c8.5-4.2,17.1-8.8,23.6-15.6c13.2,4.7,22.7-11.2,13.5-20.5c-14.7-11.3-28.1,6.3-18.7,17
			c-9.7,9.8-23.8,13.6-36.1,21.7c1.7-3.4,3.3-6.8,5-10.3c6.9-15.3,11.9-31.3,15.4-47.6c30.7,9.6,49.9-36.2,47.5-43
			c-1.8-5-7.5-1.1-12.2,0.9c-10.5,4.6-17.5,7.2-26,17c5.1-17.2,20.1-30.5,28.9-45.9c6.6,1.5,13-2.2,14.7-7.3
			C655.5,371.6,654.8,369.2,654.5,366.5z"/>
	</g>
</g>
</svg>


