<?xml version="1.0" encoding="utf-8"?>
<!-- Generator: Adobe Illustrator 23.0.5, SVG Export Plug-In . SVG Version: 6.00 Build 0)  -->
<svg height="500" width="500" version="1.1" xmlns="http://www.w3.org/2000/svg" xmlns:xlink="http://www.w3.org/1999/xlink" x="0px" y="0px"
	 viewBox="0 0 720 720" style="enable-background:new 0 0 720 720;" xml:space="preserve">
<style type="text/css">
	.st0{fill:#050002;}
	.st1{fill-rule:evenodd;clip-rule:evenodd;fill:#050002;}
	.st2{fill-rule:evenodd;clip-rule:evenodd;}
	.st3{fill:#221F1F;}
	.st4{fill:#231F20;}
	.st5{fill:#070808;}
	.st6{fill:#211E1F;}
	.st7{fill:#161616;}
	.st8{fill:#131313;}
	.st9{fill:#21201F;}
	.st10{fill:#2C2929;}
</style>
<g>
	<g>
		<path class="st0" d="M373.5,169.9c-6.9-7.3-17.8-15.6-20.4-15.6c-4.9,0,3.2,8.9,15.7,17.2C380.1,179,381.7,178.5,373.5,169.9
			L373.5,169.9z M247.6,174.7c7.1-4,13.8-8.7,20.1-14.1c7-6.3,3.3-8.6-5-3.1c-5,3.2-21.8,19.5-20.2,19.5
			C244.2,176.4,246,175.6,247.6,174.7L247.6,174.7z M369.5,190.4c3.3-0.9,6.5-2.2,9.6-3.7c0.5-0.5-2.1-1.2-5.8-1.6
			c-10.8-1.2-26.5,3.9-21.7,7.1C354.3,193.9,360.6,193.3,369.5,190.4z M271.7,191c1.1-1.1-3.2-4-7.8-5.4c-4.3-1.3-20.7-1.4-20.7-0.2
			c0,0.9,12.7,5.5,18.8,6.7C265.8,192.9,270.2,192.4,271.7,191z M192,190.7c3.3-6.9,3.5-9.4,0.6-9.4c-3.6,0-12.5,15-17.4,29.2
			C173.3,216,188.5,198.2,192,190.7L192,190.7z M444.9,206.7c-7.3-17.6-11.7-24.2-15.8-24.2c-3.7,0,0.6,11.2,8.2,21.4
			c4.1,5.6,9.1,10.4,9.8,9.6C447.4,213.2,446.4,210.1,444.9,206.7L444.9,206.7z M212.8,215.4c1.2-1.3-2.2-3-6.8-3.5
			c-3.5-0.3-7.4,0.3-12.8,2.2l-7.8,2.6l13.5-0.4C206.2,216.1,212.5,215.6,212.8,215.4L212.8,215.4z M436.1,218.1
			c-5.3-3.7-23.8-6.1-26.3-3.4c-2.1,2.2,0.2,2.8,13.1,3.5c7,0.4,13.2,0.7,13.8,0.8C437.2,219.1,437,218.7,436.1,218.1L436.1,218.1z
			 M127.8,252.4c1.8-5.6,2.2-11.1,0.8-12c-1.7-1.1-5.3,2.7-6.4,6.7c-0.8,4.2-1.1,8.4-1,12.7v8.7l2.4-5.5
			C125,260,126.8,255.2,127.8,252.4L127.8,252.4z M500.5,258.7c-0.5-10-2.9-15.7-6.2-15.7c-2,0-2.2,0.5-1.7,5.1
			c0.6,6.3,7.4,24.5,8,21.4C500.8,265.9,500.8,262.3,500.5,258.7z M141,274.2c11.3-2.6,14.3-4,15.8-6.6c1.6-3.1-0.6-4.3-6.8-3.6
			c-5.6,0.6-11.2,3.3-18.6,8.9c-5.5,4.2-6.5,6.3-2.1,4.6C130.8,276.9,136,275.4,141,274.2L141,274.2z M491.8,276.7
			c-6.3-5.9-14.3-10-20.7-10.7c-4.8-0.5-5.8-0.3-6.4,1.3c-1,2.7,2.7,5.6,9.4,7.4c3,0.8,8.6,2.5,12.6,3.7
			C496.6,281.3,496.6,281.3,491.8,276.7L491.8,276.7z M103.3,348.6c9.3-12.2,13.2-21.3,9.2-21.3c-3.5,0-10.7,10.7-14.8,22
			C93.3,361.5,93.5,361.5,103.3,348.6z M524.1,356.3c-3.3-12.1-11.9-26.8-15.7-26.8c-2.1,0-1.8,4.2,0.5,8.9
			c1.8,3.6,15.7,23.6,16.4,23.6C525.1,360,524.7,358.1,524.1,356.3L524.1,356.3z M87.9,337.2c-1.7-17.6-5.8-24.9-10.2-17.9
			c-3.2,5.1-2.4,11.6,3.8,28.8l5.7,15.8l0.9-7.1C88.8,350.2,88.7,343.7,87.9,337.2L87.9,337.2z M538.9,351.2
			c5.9-15.9,7-20.7,5.6-26.1c-1.2-4.5-4.3-6.5-6.8-4.3c-2.9,2.4-4.7,12.2-5.4,27.2c-0.6,13.6,0.1,21.5,1.4,17.2
			C534,364.3,536.3,358,538.9,351.2L538.9,351.2z M95.5,451.8c3.3-12.6,3.8-18.2,2.2-22.4c-1.5-3.7-10.7-16.6-11.9-16.6
			c-0.3,0-1.1,1.1-1.8,2.4c-0.6,1.3-2.3,4.6-3.7,7.3c-3.5,7-3.5,14.1-0.2,21.1c2.9,5.6,12,17,12.8,15.9
			C94,457.1,94.9,454.5,95.5,451.8L95.5,451.8z M538.9,447.1c4.2-8,3.9-14.3-1.1-24.2l-3.9-7.8l-3.6,4.4c-6.6,8.5-9.8,14.2-9.8,17.5
			c0.6,5.1,1.5,10.1,2.9,15.1l2.9,11.8l5-5.8C534.1,454.7,536.7,451,538.9,447.1L538.9,447.1z M138.6,503.3
			c0.5-5.1,0.1-6.4-4.9-16.3c-3-5.9-6-12.5-6.7-14.6l-1.3-3.8l-2.4,6.5c-3.6,9.9-2.9,18.2,2.9,29.9c2.1,4.1,3.8,8.4,5.1,12.8
			l0.7,3.6l3.1-6.3C136.8,511.4,138,507.4,138.6,503.3L138.6,503.3z M487.2,520.6c0-0.8,2.3-6.6,5.2-12.7c4.6-9.9,5.2-12.1,5.2-18.2
			c0-6.2-2.6-17.4-4.1-17.2c-0.3,0-3.5,6.2-7.1,13.8c-7.5,15.7-7.8,18.3-3.8,28.9C485.1,521.6,487.2,524.1,487.2,520.6L487.2,520.6z
			 M103.1,516.1c-12.1-13-16.8-16.1-23-15.3c-7.3,1-7.1,2.4,0.9,10.4c3.8,3.8,8,7.1,12.5,9.9c4.8,2.5,16,6.3,18.9,6.5
			C113.2,527.5,109,522.4,103.1,516.1L103.1,516.1z M520.2,526c6-2.1,16.2-9.7,21-15.8l3.5-4.3l-2.8-1.1c-4.3-1.8-8.5-1.4-12.5,0.9
			c-5,4.1-9.8,8.6-14.3,13.3L504,530.4l5.5-1.3C512.6,528.3,517.4,526.9,520.2,526L520.2,526z M193.7,573.5
			c-1.2-8.2-4.9-11.5-17.9-16.2c-6.1-2.2-11.3-3.8-11.4-3.5c-0.9,1,6.3,9.7,14.9,17.9c4.1,3.7,7.9,7.8,11.4,12.1l2.1,3.3l0.9-4.3
			c0.5-3.1,0.6-6.2,0.2-9.3H193.7z M451.8,559.4c0.8-1.2,1.5-2.5,2.1-3.9c0-0.8-18.5,5.8-22.8,8.2c-5.2,2.8-8.1,11-6.9,19.4l0.6,4.5
			l12.5-12.5C444.1,568.3,450.7,561.2,451.8,559.4L451.8,559.4z M174.1,600.4c1.3-0.4,2.3-1,2.3-1.5c0-0.5-3.7-2.6-8.1-4.7
			c-9.7-4.7-16.2-5.2-21.8-1.7c-2,1.3-3.4,2.5-3.2,2.7c0.2,0.2,3.9,1.6,8.1,3C159,600.7,169.1,601.7,174.1,600.4L174.1,600.4z
			 M466.3,600.2l8.8-3l-4.1-2.6c-6.1-3.9-11.8-3.5-22.3,1.6c-8.6,4.2-9.4,5.3-4.4,6.3C450.8,603.6,458,602.9,466.3,600.2
			L466.3,600.2z M361,613c10.4-3.5,15.8-6.2,20.8-10.6l3.6-3.2l-10.6-0.8c-4.6-0.4-9.2-0.4-13.8,0c-4.1,0.9-8.3,6.3-10.7,13.6
			c-1.7,5.2-1.7,5.5,0,4.8C351.3,616.4,356.2,614.7,361,613L361,613z M266.7,610c-1.7-5.2-6.6-11.1-10.5-12.5
			c-1.1-0.4-6.9-0.4-12.8,0c-10.5,0.7-10.7,0.8-9,2.8c3.7,4.3,11.4,8.5,21.4,11.8c5.7,1.9,10.6,3.9,11,4.6
			C268.4,619.2,268.2,615,266.7,610L266.7,610z M324.5,627c9.1-0.7,15.6-1.6,16.3-2.4c0.7-0.8,2-4.4,2.9-8.3
			c3-12.2,6.7-18.2,13.5-21.9c3.7-2,5.3-2.1,17.3-1.4c11.3,0.7,13.8,0.5,17-1.1c3.8-1.9,5.9-1.5,5.9,1c0,2-12.1,13.8-18.3,17.9
			c-4.8,2.8-9.9,5-15.2,6.6c-10.2,3.3-17.5,7.2-10.8,5.8c19-4.2,37.2-10.8,54.6-19.7l11.7-6.1l-0.2-13c-0.2-10.5,0.1-13.7,1.5-16.4
			c3.1-6,8.4-9.7,18.9-13.3c5.1-1.7,10-4,14.7-6.7c7.3-5,8.6-2.7,4.7,8.5c-1.9,5.4-4,8.1-15.4,19.6c-13.2,13.4-12.9,14.8,0.7,3.6
			c20-16.4,39.8-38.7,39.8-44.7c0-1.8-2.2-8.4-4.8-14.8c-4.3-10.4-4.8-12.1-4.3-17.6c0.5-5.5,3.7-13.9,8-20.6c2.9-5,5-10.3,6.3-16
			c1.6-6.5,4.4-6.3,7.7,0.5c4.6,9.5,6.1,16.1,5.7,24.5c-0.3,6.7-1.1,9.3-5.2,18c-4.6,9.6-7.6,19.1-5.3,16.7
			c5.1-5.4,18.4-33.5,24.1-50.9l4.3-13l-2.7-11.1c-3.5-14.4-3-18.4,3.6-27.6c2.4-3.3,4.5-6.8,6.2-10.6c2.6-7.6,1.2-30.7-2.5-40.2
			c-1-2.6-5.5-9.6-10-15.8c-3.9-5.2-7.5-10.5-10.7-16.1c-3.3-6.5-3.4-12.6-0.3-14.9c3.2-2.3,5.1-2.1,9.5,1c2.1,1.5,3.8,2.4,3.8,2.1
			c0-1.7-7.9-21.3-11.1-27.6c-6.3-12.5-9.2-14.6-26.3-19.2c-4.9-1.3-9.8-2.9-14.5-4.8c-6.8-3.7-8.7-10.7-3.8-14.7
			c4.1-3.3,11.5-2.8,21.7,1.6c3,1.3-6.5-11-17.3-22.4c-13.4-14.1-20.2-17.1-41.6-18.2c-16.4-0.9-20.2-2.2-20.6-7.2
			c-0.3-2,0.2-3.7,1.6-5.1c2.5-2.4,9.9-3.7,16.2-3c5,0.6,5,0.6,2.6-1.3c-1.3-1.1-8-5-14.9-8.7c-12.2-6.6-12.7-6.8-20.3-6.8
			c-5.9,0-10.3,0.9-18,3.5c-11.6,4-16.4,4.3-21.6,1.6c-3.1-1.6-3.7-2.4-3.7-5.6c0-3.2,0.7-4.2,3.6-6.2c2.4-1.6,4.9-2.8,7.7-3.6
			c2.3-0.6,3.9-1.3,3.7-1.6c-0.2-0.2-5.8-1.5-12.3-2.8c-18.3-3.6-50.9-4.1-70.1-1.2c-5.2,0.7-10.4,1.7-15.5,3
			c-0.6,0.4,1.4,1.6,4.4,2.7c13.9,4.9,12.9,16.5-1.3,16.3c-3.5,0-10-1.6-17.1-4c-15.8-5.4-19.2-5.1-36.1,3.6
			c-7.1,3.6-13.9,7.4-15,8.3c-1.9,1.5-1.7,1.6,3.1,1.1c9.8-1.2,18.9,3.7,17.5,9.4c-1,3.9-5.5,5.3-19.8,5.8c-25.6,1-34.8,6.4-57,33.4
			c-2.9,3.4-4.8,6.5-4.5,6.8c0.3,0.3,2.1-0.2,3.9-1.2c2.8-1.3,5.7-2,8.8-2.4c10-1.1,15.2,4.2,11.6,11.6c-2,4.1-7.5,6.9-17.9,9.1
			c-18.1,4-23.8,8.4-31.4,24.7c-3.7,7.8-9.6,22.8-9.6,24.3c0,0.3,1.7-1,3.7-2.8c4.1-3.7,8.2-4.3,11.1-1.6c4.5,4.3,1.1,13.6-10.7,29
			c-13,17-16,25.9-15.4,45.5c0.3,11.3,0.5,12.3,3.5,16.7c8.9,13.2,8.9,13.1,8.9,20.6c-0.1,4.8-0.8,9.5-2.1,14.1
			c-1.1,3.6-1.8,7.3-2.1,11c0,7.9,11.3,36.7,21.4,54.5c1.9,3.6,4,7,6.4,10.3c1.4,0-1.3-9.2-5.6-18.3c-4.1-8.7-4.8-11.4-5.2-18.5
			c-0.4-7.6-0.1-9.1,3.3-17.9c2.1-5.3,4.4-10.4,5.3-11.2c2.2-2.2,4.4,0,5.3,5.3c0.4,2.3,3.6,10,7.1,17c6.1,12.1,6.4,13.1,6.4,20.3
			c0,6.6-0.6,8.7-4.5,17.1c-6.6,14-6.6,15.3-0.8,23c10.3,12.8,21.7,24.5,34.2,35.2c18.3,15.3,19.2,13.7,1.8-3.2
			c-11.4-11.1-15.4-17-17.2-25.9c-0.6-2.8-0.3-3.7,1.1-4.2c1.2-0.4,2.4-0.2,3.5,0.6c3,2.3,14,7.4,20.4,9.4c4.1,1.2,7.6,3.3,10.5,6.4
			c5.6,5.8,6.9,11.2,6,25.1l-0.6,10.6l11.4,6.1c16.2,8.7,38.9,17.2,53.1,19.9c7.5,1.5,2.8-1.6-7.8-5c-5.3-1.7-10.5-3.9-15.4-6.6
			c-6-4-19.2-16.9-19.2-18.9c0-2.5,2.1-2.8,6-0.9c3.2,1.6,5.7,1.8,15.9,1.2c13.7-0.8,17.5,0,22.6,5.1c4,3.9,6.6,9.4,9.1,19.5
			c1.5,6.1,2.4,7.6,4.6,8.4c2.2,0.9,15,2.2,28.3,3C308.2,628.1,316.2,627.7,324.5,627L324.5,627z M229.6,643.9
			c10.8-0.5,17.9-2,25-5.3c3.6-1.6,3.6-1.7,1-2.2c-5.7-1.2-23.7-3.9-26.1-3.9c-7.8,0.3-13.7,3.9-17.7,10.8c-0.9,1.7-0.6,1.9,2.9,1.5
			C216.9,644.6,223.5,644.1,229.6,643.9L229.6,643.9z M398.9,643.2c-3.4-5.4-8.3-8.5-14.5-9.1c-2.9-0.3-10.9,0.4-18.2,1.5l-13,2.1
			l4.7,2.1c7.3,3.3,14.8,4.8,28.5,5.7c7,0.4,13,0.9,13.5,0.9S399.9,645.1,398.9,643.2L398.9,643.2z M400.1,652.6
			c-1.7-0.8-9-1.7-16.2-2.1c-15.7-0.8-21.6-2.5-37.1-10.9l-11.4-6.2l-29.2-0.2L277,633l-13.6,6.7c-16.7,8.2-19.4,9-37.1,10.1
			c-7.8,0.5-15.9,1.2-18,1.6c-3.8,0.7-3.9,0.6-3.9-2.4c0-3.9,4.6-11.6,9.7-16.2c5.9-5.4,12.8-6.5,26.6-4.3c12.6,2,14.7,2.2,20.5,2
			c5.4-0.2,3.7-1.7-4.1-3.4c-11.1-2.4-30.2-9.6-45.5-17c-13.7-6.7-15.5-7.3-21.7-7.2c-4.2,0.1-8.4,0.7-12.4,1.8
			c-7.9,2.5-16.3,2.2-25.8-0.8c-4.5-1.5-9.9-3-12-3.3c-5.4-1-5.4-4.6,0-9.2c10-8.5,17.4-8.9,31.7-1.6c9.7,4.9,16.9,7.8,15,5.9
			c-0.5-0.5-5.9-4.8-11.9-9.4c-10.3-8-23.4-20.9-40.2-39.4c-8.4-9.2-12.1-11.4-26.9-15.5c-14.2-3.8-21.4-8.2-31.7-18.6
			c-4.7-4.9-8.6-9.3-8.6-9.8c0-2.9,9.8-7.9,15.6-7.9s13.4,5.3,22,15.1c3.6,4.3,7.5,8.3,11.7,12l3.3,2.5l-2.7-4.7
			c-5.5-9.5-10.3-19.4-14.4-29.6c-6.8-16.9-9.1-21.1-16.9-30.3c-9.3-11-12.7-18.4-12.7-27.1c0-5.8,0.6-7.6,6-18l6-11.5v-13.5
			c0-16.4-0.9-20.8-8.1-40.7c-6.5-17.9-7.4-25.1-3.8-31.6c4.9-8.7,12-8,16.5,1.6c1.6,3.6,2.7,7.4,3.3,11.4l0.7,5.8l4.3-12.9
			c2.4-7.1,6.6-18,9.4-24.2c7.7-17.4,8-18.6,8.8-36.3c0.9-18.9,2.3-23.5,8.7-27l3.9-2.1l3,2.3c3.6,2.8,4.3,9,1.9,16.5l-1.6,5
			l4.4-5.4c2.4-3,9.1-10.5,14.9-16.8c12.6-13.6,16.1-18.8,21.4-31.4c6.5-15.5,8.9-19.9,13.4-24.1c6-5.7,11.3-5.4,13.5,0.6
			c1.3,3.4,0.3,7.6-3.5,14.6c-1.4,2.7-2.7,5-2.7,5.1c0,0.1,8.3-4.1,18.4-9.2c17.9-9.2,18.7-9.7,28.9-20.1c17.1-17.3,23.6-22,30.3-22
			c2.8,0,4.1,0.7,5.3,2.6c1.5,2.4,1.5,3-0.1,6.5c-1,2.1-4.5,6.1-7.9,8.9c-2.1,1.6-4.1,3.3-5.8,5.3c3.9-0.4,7.9-0.9,11.8-1.7
			c26.5-4.7,60-3.6,85.6,2.8l3.1,0.8l-3.1-2.5c-5.7-4.6-11.1-10.2-12.7-13.3c-1.4-2.7-1.4-3.3,0.1-5.7c5-7.9,14.3-2.9,35,19
			c10.3,10.9,11.7,12,24.5,18.7c7.5,4,16,8.6,18.9,10.4l5.4,3.2l-4-8.1c-4.6-9.1-5-13-1.9-16.5c2.3-2.6,3.8-2.9,7.5-1.4
			c6,2.4,10.8,10,18.2,28.8c4.1,10.5,11.8,22.2,21.7,33c4.6,5.1,10.5,12,13.1,15.4c1.4,2.1,3.1,4.1,4.9,5.9
			c-0.2-1.9-0.6-3.7-1.3-5.5c-3.2-10.7-1.2-17.8,4.8-17.8c4.6,0,6.9,1.7,9.4,6.8c2,3.9,2.4,7.1,3,22.4c0.6,15.7,1,18.6,3.3,24.3
			c6.3,15.6,7.6,19.2,12.4,33.4c2.8,8.2,5.2,15.2,5.4,15.4c0.2,0.3,0.7-2.1,1.1-5.3c1-8.9,2.6-13.4,6-17c4.2-4.3,7.5-4.2,12,0.4
			c5.6,5.8,5.3,14.5-0.8,30.4c-7,18.3-8.2,22.3-9.7,34c-2.5,19.4-2.4,20.3,4.9,34.5c5.7,11,6.4,13.3,6.4,18.5
			c0,8.5-3.7,16.1-13.1,27.1c-7.9,9.2-11.6,15.7-21.7,38.1c-2.9,6.4-7.1,14.8-9.5,18.8c-2.3,4-4,7.4-3.7,7.7
			c0.3,0.3,6.3-5.4,13.4-12.5c13.2-13.3,17.7-16.3,24.2-16.3c4.7,0,13.7,3.9,14.6,6.3c1,2.7-17.1,20.5-24.5,24.1
			c-4.9,2.1-9.9,3.8-15.1,5.1c-17.3,4.3-19.9,6-37.9,25.1c-14.2,15.1-24.2,24.2-36.6,33.2c-4.3,3.1-6.9,5.6-5.8,5.6
			c1.1,0,6.4-2.1,11.9-4.7c17.9-8.5,23.1-8.6,33.1-0.8c6,4.7,7,8.8,2.5,10c-25.3,7.3-27.6,7.5-39.5,4c-11.4-3.3-18.9-2.5-30.5,3.2
			c-19.1,9.3-37.7,16-51.7,18.6c-4.2,0.8-7.9,1.8-8.1,2.3c-0.9,1.5,8.6,1,21-0.9c13.4-2.1,19.3-1.5,25.3,2.5
			c5.6,3.8,11.9,13.8,11.5,18.1C406.3,654,404.6,654.6,400.1,652.6L400.1,652.6z"/>
	</g>
</g>
<g>
	<g>
		<g>
			<g>
				<rect x="153.2" y="338.1" class="st0" width="323.8" height="6.8"/>
			</g>
		</g>
	</g>
	<g>
		<g>
			<g>
				<rect x="153.2" y="452.5" class="st0" width="323.8" height="6.8"/>
			</g>
		</g>
	</g>
</g>
<g>
	<g>
		<g>
			<path class="st0" d="M431.5,323.3h-37.5l-18.7-32.4l18.7-32.4h37.5l18.7,32.4L431.5,323.3z M395.2,321.5h35.3l17.7-30.6
				l-17.7-30.6h-35.3l-17.7,30.6L395.2,321.5z"/>
		</g>
		<g>
			<path class="st0" d="M433,325.8h-40.3l-20.2-34.9l20.2-34.9H433l20.2,34.9L433,325.8z M396.6,319H429l16.2-28.1L429,262.7h-32.5
				l-16.2,28.1L396.6,319z"/>
		</g>
	</g>
</g>
<g>
	<path class="st0" d="M281.8,248.9c-3.6-0.3-7-1.5-10.8-1.5c-3.8,0-7.6,0.5-11.4,1.3c-3.9,0.8-7.8,1.9-11.7,2.9
		c-0.3,2.1-0.6,4.2-0.8,6.3c-1.2,10.1-2.2,20.1-2.7,30.3c-0.4,8.6-0.9,17.5-0.4,26.1c0.1,2.3,0.1,4.3,1.3,5.9c0.7,1,2.1,2,4.1,1.1
		c1.8-0.9,3.1-2.4,4.3-4c5.6-7.8,8.6-17.6,11.3-26.7c0.5-1.5,2.8-0.8,2.4,0.7c-3.2,10.5-6.8,22.6-14.5,30.7c-2.8,3-6.9,4.4-10.7,2.3
		c-2.8-1.6-4.6-5.3-5.5-7.4c-3.6-8.9-3.4-18.7-3-28.1c0.5-11.7,1.5-23.4,3-35c-9.7,1.1-21.5-0.4-26.9-9.4c-0.2-0.3,0.3-0.7,0.5-0.4
		c7.2,7.9,16.8,9.3,26.6,8.2c1-8.3,2.3-16.5,3.7-24.7c0.5-2.9,3.8-4.3,6.3-3.6c2.9,0.8,4.4,3.7,4,6.6c-0.9,6.5-1.8,12.9-2.7,19.4
		c5.5-1.4,11-3,16.6-3.7c5.2-0.7,12.7-1.3,17.3,1.8C282.3,248.3,282.3,249,281.8,248.9z"/>
	<path class="st0" d="M326.5,291.9c-2.2,5.6-4.8,10.9-8.3,15.9c-2.4,3.5-4.8,7.4-7.8,10.3c-4.8,4.7-12.5,7.1-17.8,1.3
		c-5.1-5.6-2.7-15.7-1.9-22.4c0.4-3.1,0.7-6.3,0.5-9.5c-0.1-1.4-0.7-4.5-2.6-4c-2.8,0.6-4.7,4.3-5.8,6.6c-2.3,4.6-3.8,9.7-5.1,14.7
		c0.2,1.3,0.4,2.5,0.9,3.8c0.4,1.1-1.1,1.7-1.8,1c-2.5-2.4-4.9-4.4-6.6-7.5c-1.6-3-2.9-6.2-3.8-9.5c-2-7.1-2.2-14.4-1.6-21.8
		c1-11.9,4.1-24,10.7-34c3.8-5.9,11.1-12.8,18.8-10.8c12.5,3.3,4.2,24.2,0.4,31.2c-5,9.2-12.1,17.2-19.9,24.3
		c0.1,4.1,0.4,8.2,0.9,12.2c0.2,1.6,0.5,3.3,0.8,4.9c0.8-3.6,1.9-7.2,3.4-10.7c1.4-3.1,2.9-6.8,5.6-9c6.3-5.4,13.8,1.7,15.6,7.9
		c2.1,7.2-0.6,15.1-0.7,22.2c0,0.9,0,1.8,0.1,2.7c0-0.2,0.3,1.2,0.3,1.4c0,0.1,0.1,0.3,0.1,0.5c0.2,0.4,0.4,0.9,0.5,1.3
		c0.1,0.3,0.4,0.8,0,0c0.2,0.2,0.3,0.6,0.5,0.8c2.1,1.7,4.6,0.5,6.7-0.7c3.9-2.4,6.4-5.7,8.6-9.7c2.6-4.7,4.8-9.8,6.8-14.8
		C324.7,288.8,327.1,290.3,326.5,291.9z M274.7,278.7c7.1-7,13.6-14.7,18.2-23.5c2.7-5.3,4.6-11.1,5.1-17.1c0.2-3,0.2-7-2.6-8.9
		c-1.6-1-3.8-1.3-5.5-0.5c-2.7,1.2-4.5,4-5.8,6.5c-1.9,3.6-3.3,7.7-4.5,11.6c-3,10-4.8,20.3-4.9,30.8
		C274.7,277.9,274.7,278.3,274.7,278.7z"/>
	<path class="st0" d="M365,291.7c-5.9,10.4-13,20.3-24.4,24.9c-4.5,1.8-8.6,3.1-13.1,0.5c-5-2.9-7.3-8.1-8.1-13.6
		c-1.3-9.1,2.4-20.8,11.3-24.9c4.9-2.3,11.8-2.5,15.4,2.3c2.3,3.1,2.3,8.8,0.5,12.1c-3.1,5.6-10,10.1-16.6,9.5
		c0.2,1.8,0.7,3.7,1.4,5.4c0.6,1.4,1.2,2.7,2.4,3.8c1.2,1.1,1.4,1.3,2.5,1.6c3.7,1,7.4-1.3,10.3-3.4c6.6-4.7,13-12,16.1-19.6
		C363.3,288.9,365.8,290.2,365,291.7z M329.9,300.1c2.8-0.2,5.4-0.5,8-2c3-1.7,6.1-4.8,6.6-8.3c0.6-3.9-2.9-5-6-3.9
		c-1.6,0.6-2.9,1.7-4.1,2.9c-1.1,1.1-1.3,1.5-2,2.7C330.8,294.2,330,297.2,329.9,300.1z"/>
</g>
<g>
	<path class="st0" d="M243.4,520.4c-6,6.6-14.9,13.3-24.1,11.6c0,0.2,0,0.5-0.1,0.7c4.9,5,8.2,12.4,10,18.8
		c0.9,3.4,1.8,7.3,1.3,10.9c-0.4,3.1-1.8,6.7-5,7.8c-3.5,1.2-7.4-0.4-9.6-3.1c-2.8-3.2-4.1-7.8-4.8-11.9c-3.3-18.1,0.6-37.4,4.9-55
		c1.4-5.6,9.6-2.8,8.5,2.5c-1.8,9.2-4,18.4-5,27.8c8.8,1.3,17-4.9,22.8-11.2C242.9,518.5,244.1,519.7,243.4,520.4z M219,536.7
		c-0.3,7.1,0.2,14.2,1.3,21.2c0.4,2.4,1.4,8.8,5.2,7.5c4.4-1.5,2.2-9.4,1.4-12.6c-1-4-2.6-7.9-4.7-11.5
		C221.3,539.7,220.2,538.2,219,536.7z"/>
	<path class="st0" d="M281.4,520.1c-0.7,3.6-2.4,7.3-4.2,10.5c-1.3,2.5-2.8,5-4.8,7c-2.3,2.4-6.7,5.2-10.1,4c-4.2-1.4-6-5.6-6.7-9.7
		c-1.6,3.7-3.7,7.1-6.7,8.9c-3.8,2.2-7.8-0.9-9.8-4.3c-3.1-5.3-2.5-12.1-0.5-17.8c1.8-5.1,5.4-11.2,11.3-10c2.8,0.6,5,2.2,6.6,4.7
		c0.1,0.2,0.3,0.5,0.4,0.8c0.3-1,0.5-2,0.8-3c1.6-5.5,10.2-2.8,8.7,2.5c-1.8,6.2-3.4,13.8-2.4,19.6c0.3,1.7,0.8,2.9,1.5,3.8
		c1.7,2,3.4,1.1,5.2-0.4c5.3-4.5,7-11.2,9.9-17.1C280.6,519.2,281.5,519.6,281.4,520.1z M255.9,518.1c-0.5-1.4-1.2-2.8-2.4-3.4
		c-1.8-0.9-4.4,1.8-5.2,2.9c-2.4,3.1-2.8,8-2.9,12.1c0,2.3,1,9.5,3.7,7.7c3.1-2.2,4.7-5.9,6-9.6C255,524.6,255.3,521.3,255.9,518.1z
		"/>
	<path class="st0" d="M342.2,520.9c-2.2,6.9-4.1,14.5-9.4,19.8c-4.5,4.6-12.1,7.3-16.5,1.1c-2.3-3.2-2.4-7.4-2.8-11.2
		c-0.4-4.3-0.6-8.3-0.3-12.6c0-0.5,0.2-1.3-0.1-1.7c-0.9-1.3-2.5,0.2-3.2,0.9c-1.3,1.4-2.2,3.3-3,5c-0.9,1.7-1.6,3.5-2.3,5.3
		c-0.6,1.5-1,3.1-1.8,4.5c0,0.1,0,0.1,0,0.2c-1.1,5.1-8.9,3.4-8.8-1.4c0-0.6,0.1-1.3,0.2-1.9c0-0.1,0-0.3,0-0.4
		c0.1-1,0.2-1.9,0.2-2.9c0.2-2.4,0.2-4.8,0.2-7.3c0-2.2,0.3-4.5-0.1-6.6c-0.1-0.3-0.3-1.3-0.6-1.7c-0.7-0.6-1.7,0.6-2.2,1.3
		c-2.6,3.8-3.6,9-4.7,13.4c-0.6,2.3-1,4.6-1.8,6.8c0.1,3,0.5,7-1.8,8.8c-1.7,1.3-3.7,1.3-5.3-0.2c-2.7-2.5-1.8-6.9-1.8-10.3
		c0-3.4,0-6.9,0.2-10.3c0.4-5.7,8.4-5.2,8.7,0.3c0,0.9,0.1,1.8,0.1,2.7c1.3-5.4,5.6-22.9,13.9-15c3.3,3.1,4.2,8.5,4.3,12.8
		c0,1.3,0.1,2.7,0,4.2c0.3-0.8,0.7-1.5,1-2.2c1.3-2.9,2.4-6.6,5-8.6c2.4-1.9,5.3-1.8,7.7,0c3.2,2.4,4,6.7,4.5,10.4
		c0.5,3.8,0.4,8,1.3,11.7c0.6,2.5,2.1,5.7,5.3,4.8c3.6-1,5.7-5.4,7.2-8.5c1.8-3.7,3.7-7.6,4.5-11.7
		C340.3,518.8,342.6,519.6,342.2,520.9z"/>
	<path class="st0" d="M364.5,520.1c-0.7,3.6-2.4,7.3-4.2,10.5c-1.3,2.5-2.8,5-4.8,7c-2.3,2.4-6.7,5.2-10.1,4
		c-4.4-1.5-6.2-5.9-6.8-10.1c-1-6.7,0.2-13.8,2-20.3c1.6-5.5,10.2-2.8,8.7,2.5c-1.8,6.2-3.4,13.8-2.4,19.6c0.3,1.7,0.8,2.9,1.5,3.8
		c1.7,2,3.4,1.1,5.2-0.4c5.3-4.5,7-11.2,9.9-17.1C363.8,519.2,364.6,519.6,364.5,520.1z M342.9,502.3c0-0.6,0.1-1.1,0.3-1.6
		c0.2-0.5,0.4-1,0.9-1.4c0.8-0.8,1.9-1.2,3-1.2c1.2,0,2.2,0.6,3.1,1.3c0.9,0.8,1.3,1.9,1.3,3.1c0,0.6-0.1,1.1-0.3,1.6
		c-0.2,0.5-0.4,1-0.9,1.4c-0.8,0.8-1.9,1.2-3,1.2c-1.2,0-2.2-0.6-3.1-1.3C343.3,504.6,342.9,503.4,342.9,502.3z"/>
	<path class="st0" d="M394.2,521.8c-2.5,5.8-5.5,12-10.1,16.5c-3.7,3.6-9.3,6-13.6,2.2c-3.4-3.1-5.2-7.5-6.6-11.8
		c-1.8-5.6-2.3-11.4-2.4-17.3c-0.2-11.3,0.5-23.2,4.5-33.9c0.4-1,0.5-1.3,0.3-0.7c0.1-0.3,0.2-0.6,0.4-0.9c0.1-0.2,0.2-0.4,0.3-0.6
		c0.2-0.4,0.4-0.9,0.6-1.3c0.8-1.5,0.8-1.4,1.7-2.5c1.4-1.6,3.4-3,5.3-3.8c6.2-2.9,11.9,2.3,12.1,8.5c0.2,5.8-2.2,11.8-4.6,17
		c-2.8,6.1-6.8,11.5-11.7,16.1c0,2.2,0,4.4,0.2,6.6c0.1,2.5,0.4,5,0.7,7.4c0.3,2.2,0.2,4.3,0.5,6c0.3,1.8,0.8,3.7,1.4,5.4
		c0.4,1,1.3,2.4,1.8,3.1c0.5,0.6,1.1,1.5,1.2,1.5c1.2,0.8,2.5,0.6,3.8,0c2.5-1.1,4.4-3.5,5.9-5.7c2.8-4,4.8-8.4,6.6-12.9
		C393,519.7,394.7,520.7,394.2,521.8z M370.5,506.5c4.1-4.4,7.6-9.4,10-14.9c2.2-5.1,5.4-12.3,3.4-17.8c-0.9-2.6-4.3-4.1-6.6-2.3
		c-0.8,0.7-1.3,1.6-1.8,2.6c0,0,0,0.1,0,0.1c0,0,0,0.1,0,0.1c-0.1,0.2-0.2,0.5-0.3,0.7c0-0.1,0-0.1-0.1,0.2c-1.1,3.5-2,7.1-2.6,10.7
		C371.5,492.9,370.7,499.6,370.5,506.5z"/>
	<path class="st0" d="M430.3,520.1c-4,4-8.5,7.5-12.7,11.2c-0.3,4.5-0.7,9-1.3,13.5c-1.1,9.6-2.4,22-10.8,28.4
		c-2.4,1.8-4.9,3.6-8,2.8c-2.7-0.8-4.9-3-5.9-5.6c-1.7-4.4-0.8-9.7,1.1-13.9c3.4-7.4,9.4-13.8,15.5-19.5c0-0.3,0.1-0.5,0.1-0.8
		c0.3-3.2,0.5-6.4,0.7-9.6c-0.9,3.5-2,6.9-3.5,10.1c-1.4,3.1-5,6.9-8.8,5c-5.1-2.6-6.3-9.9-6.3-15c0-4.7,0.7-9.5,1.7-14.1
		c1.1-5.7,9.7-2.9,8.7,2.5c-0.6,3.3-1.2,6.6-1.5,10c-0.4,3.6-1.2,8.2,0.2,11.6c0.5,1.3,1.2,2.2,2.4,1.1c1.2-1,2-2.6,2.8-4
		c2.5-4.7,3.5-10.2,4.8-15.3c0-0.1,0.1-0.2,0.1-0.3c0.1-1.7,0.1-3.4,0.2-5c0.2-5.9,9.1-5.3,8.9,0.3c-0.1,4.9-0.4,9.7-0.7,14.6
		c3.7-3.3,7.5-6.5,11.6-9C430.1,518.6,430.8,519.6,430.3,520.1z M407.8,540.5c-4.9,4.9-9.7,10.4-12.5,16.6
		c-1.7,3.7-2.3,9.7,0.2,13.1c1.9,2.7,4.9,2.4,6.3-0.5c1-1.9,1.6-3.3,2.1-5.4c1-4.2,1.7-8.7,2.4-13
		C406.9,547.7,407.4,544.1,407.8,540.5z"/>
</g>
</svg>

