<?xml version="1.0" encoding="utf-8"?>
<!-- Generator: Adobe Illustrator 23.0.5, SVG Export Plug-In . SVG Version: 6.00 Build 0)  -->
<svg version="1.1" xmlns="http://www.w3.org/2000/svg" xmlns:xlink="http://www.w3.org/1999/xlink" x="0px" y="0px"
	 viewBox="0 0 720 720" style="enable-background:new 0 0 720 720;" xml:space="preserve" width="500" height="500">
<style type="text/css">
	.st0{fill:#050002;}
	.st1{fill-rule:evenodd;clip-rule:evenodd;fill:#050002;}
	.st2{fill-rule:evenodd;clip-rule:evenodd;}
	.st3{fill:#221F1F;}
	.st4{fill:#231F20;}
	.st5{fill:#070808;}
	.st6{fill:#211E1F;}
	.st7{fill:#161616;}
	.st8{fill:#131313;}
	.st9{fill:#21201F;}
	.st10{fill:#2C2929;}
</style>
<g>
	<g>
		<path class="st0" d="M452,331.5v-60.4h-25.6c-1.1,9.8-3.5,20.2-7,31.2c-3.5,11-7.8,19.8-12.8,26.4c-0.8,0.9-1.5,1.9-2.3,2.7h-112
			V157.9h76.1c12.5,0,23.6,0.2,33.4,0.7c9.8,0.5,18.2,1.1,25.2,2c13.6,1.8,28,12.5,43.1,31.9c15.1,19.4,24.9,37.8,29.5,55.1h25.6
			V131H150.9v24.2c6.1,0.5,14.4,1.8,24.7,4.1c10.3,2.3,18.6,4.9,24.7,7.9c8,3.6,13.2,8.4,15.7,14.2c2.5,5.8,3.8,12.4,3.8,19.9v130.3
			h-68.9v7.7h429.4v-7.7H452z"/>
	</g>
	<g>
		<path class="st0" d="M150.9,468.2h68.9v80.9c0,8.4-1.4,15.4-4.3,20.8c-2.9,5.5-7.9,9.9-15.2,13.3c-3.4,1.6-10.8,3.1-22.2,4.6
			c-11.4,1.5-20.5,2.4-27.3,2.9V615h401.8l9.2-142.6h-24.6c-3.2,10.5-10.5,26.8-22,48.9c-11.5,22.2-22.5,38.7-32.9,49.6
			c-3.9,4.1-10.4,7.3-19.6,9.7c-9.2,2.4-18.1,4-26.8,5c-8.4,0.9-18.8,1.4-31,1.4h-29.7c-18.9,0-33.4-0.6-43.7-1.9
			c-10.2-1.3-18.3-4-24.2-8.3c-5.9-4.3-9.9-10.7-11.9-19.1c-2-8.4-3.1-19.9-3.1-34.4v-55.1h287.8v-7.7H150.9V468.2z"/>
	</g>
</g>
</svg>


