<?xml version="1.0" encoding="utf-8"?>
<!-- Generator: Adobe Illustrator 23.0.5, SVG Export Plug-In . SVG Version: 6.00 Build 0)  -->
<svg version="1.1" xmlns="http://www.w3.org/2000/svg" xmlns:xlink="http://www.w3.org/1999/xlink" x="0px" y="0px"
	 viewBox="0 0 720 720" style="enable-background:new 0 0 720 720;" xml:space="preserve" width="500" height="500">
<style type="text/css">
	.st0{fill:#050002;}
	.st1{fill-rule:evenodd;clip-rule:evenodd;fill:#050002;}
	.st2{fill-rule:evenodd;clip-rule:evenodd;}
	.st3{fill:#221F1F;}
	.st4{fill:#231F20;}
	.st5{fill:#070808;}
	.st6{fill:#211E1F;}
	.st7{fill:#161616;}
	.st8{fill:#131313;}
	.st9{fill:#21201F;}
	.st10{fill:#2C2929;}
</style>
<g>
	<g>
		<path class="st0" d="M476.8,321.5c5.5-3.6,10.7-7.5,15.6-11.7c11.1-9.6,19.8-21,26-34.3c6.1-13.3,9.2-28.5,9.2-45.6
			c0-19.6-4.3-36.2-13-49.9c-8.7-13.7-19.7-24.5-33.1-32.4c-14.3-8.7-29.4-14.7-45.3-18.1c-15.8-3.4-32.4-5.1-49.7-5.1H162.8v24.2
			c5.7,0.5,12.8,1.6,21.2,3.4c8.4,1.8,16.1,4.4,22.9,7.9c7.7,3.6,12.9,8.4,15.5,14.3c2.6,5.9,3.9,12.8,3.9,20.5v126.8h-84v7.7h429.9
			v-7.7H476.8z M299.1,321.5V152.3c7.5-0.2,16.8-0.5,27.8-0.9c11-0.3,20.2-0.5,27.4-0.5c31.3,0,54.3,7.6,68.8,22.7
			c14.5,15.2,21.8,36.1,21.8,62.8c0,16-1.6,29.8-4.9,41.4c-3.3,11.6-9.1,22.4-17.5,32.2c-3.7,4.3-7.9,8.1-12.6,11.5H299.1z"/>
	</g>
	<g>
		<path class="st0" d="M142.3,458.3h84V543c0,8.4-1.5,15.3-4.4,20.7c-3,5.4-8,9.6-15,12.8c-4.6,2.1-12.1,3.8-22.5,5.3
			c-10.5,1.5-18.4,2.5-23.9,2.9v24.3h229.5c20.5,0,40.4-2.7,59.6-8.2c19.2-5.5,36.5-13.4,51.7-23.9c15.7-10.7,28.5-24.4,38.3-41
			c9.8-16.6,14.7-36.2,14.7-58.7c0-6.5-0.4-12.8-1.2-18.7h19.3v-7.7H142.3V458.3z M469.8,464.8c0,38.5-9,67.6-27,87.4
			c-18,19.8-43.9,29.7-77.9,29.7c-20.7,0-36.9-3.6-48.5-10.9c-11.6-7.3-17.4-18.1-17.4-32.4v-80.2h170.6
			C469.8,460.4,469.8,462.6,469.8,464.8z"/>
	</g>
</g>
</svg>


