<?xml version="1.0" encoding="utf-8"?>
<!-- Generator: Adobe Illustrator 23.0.5, SVG Export Plug-In . SVG Version: 6.00 Build 0)  -->
<svg version="1.1" xmlns="http://www.w3.org/2000/svg" xmlns:xlink="http://www.w3.org/1999/xlink" x="0px" y="0px"
	 viewBox="0 0 720 720" style="enable-background:new 0 0 720 720;" xml:space="preserve" width="500" height="500">
<style type="text/css">
	.st0{fill:#050002;}
	.st1{fill-rule:evenodd;clip-rule:evenodd;fill:#050002;}
	.st2{fill-rule:evenodd;clip-rule:evenodd;}
	.st3{fill:#221F1F;}
	.st4{fill:#231F20;}
	.st5{fill:#070808;}
	.st6{fill:#211E1F;}
	.st7{fill:#161616;}
	.st8{fill:#131313;}
	.st9{fill:#21201F;}
	.st10{fill:#2C2929;}
</style>
<g>
	<g>
		<path class="st0" d="M483.9,292.8V165c0-8.5,1.5-16.3,4.6-23.4c3.1-7.2,9-12.3,17.7-15.4c7.4-2.6,16.4-4.7,27.1-6.3
			c10.6-1.7,19.5-2.6,26.7-2.9V89.8H319.5V117c7.7,0.5,17.5,1.9,29.4,4c11.9,2.2,21.8,5.3,29.8,9.4c9.2,4.6,15.3,9.9,18.2,15.9
			c2.9,6,4.4,13.5,4.4,22.5v123.9H156.4v8.6h483.4v-8.6H483.9z"/>
	</g>
	<g>
		<path class="st0" d="M156.4,446.7h244.9v10.6c0,24.1-1.2,45.8-3.7,65.3c-2.4,19.5-6.5,35.8-12.1,49.1
			c-5.9,14.3-14.8,25.8-26.7,34.4c-11.9,8.6-27.2,12.9-45.9,12.9c-19.2,0-34.5-3.2-45.9-9.6c-11.4-6.4-19.8-13.8-25.1-22.3
			c2-6.4,5.5-13.6,10.4-21.5c4.9-7.9,9.2-14.8,13.1-20.7c4.1-6.4,7.8-13.7,11.1-21.9c3.3-8.2,5-16.4,5-24.6c0-14.1-4.7-25.4-14-34
			c-9.3-8.6-21.7-12.9-37-12.9c-17.2,0-30.2,6.7-39.2,20.2c-9,13.4-13.4,28.9-13.4,46.3c0,39.7,13,71.2,39,94.6
			c26,23.4,59.8,35.1,101.6,35.1c26.9,0,50.7-4.9,71.6-14.6c20.9-9.7,38.8-23.3,53.9-40.7c13.1-14.8,23-31.7,29.8-50.7
			c6.8-18.9,10.2-36.9,10.2-53.7v-41.3h155.9V438H156.4V446.7z"/>
	</g>
</g>
</svg>


