<?xml version="1.0" encoding="utf-8"?>
<!-- Generator: Adobe Illustrator 23.0.5, SVG Export Plug-In . SVG Version: 6.00 Build 0)  -->
<svg height="500" width="500" version="1.1" xmlns="http://www.w3.org/2000/svg" xmlns:xlink="http://www.w3.org/1999/xlink" x="0px" y="0px"
	 viewBox="0 0 720 720" style="enable-background:new 0 0 720 720;" xml:space="preserve">
<style type="text/css">
	.st0{fill:#050002;}
	.st1{fill-rule:evenodd;clip-rule:evenodd;fill:#050002;}
	.st2{fill-rule:evenodd;clip-rule:evenodd;}
	.st3{fill:#221F1F;}
	.st4{fill:#231F20;}
	.st5{fill:#070808;}
	.st6{fill:#211E1F;}
	.st7{fill:#161616;}
	.st8{fill:#131313;}
	.st9{fill:#21201F;}
	.st10{fill:#2C2929;}
</style>
<g>
	<g>
		<g>
			<path class="st0" d="M457.9,561.8c0.1-2.6,0.3-5.2,0.7-6.8c-0.6-1.4-0.4-4.5-0.3-7.3c0-0.3,0-0.7,0-1c0-0.4,0-0.9,0-1.4
				c-0.1-0.9-0.2-1.7-0.4-2.4c-0.4-1.3-0.7-1.8-0.9-1.5c-0.1,0.2-0.2,0.6-0.2,1.1c0,0,0,0,0.1,0c0,0,0,0,0,0.1c0,0-0.1,0.1-0.1,0.1
				c0,0.1,0,0.3-0.1,0.5c0.2,0,0.4-0.1,0.5-0.2c0,0,0,0,0,0c0,0,0,0,0,0c0,0,0,0,0,0c0,0,0,0,0,0c0,0,0,0.1-0.1,0.1
				c0,0.1-0.1,0.2-0.1,0.2c-0.1,0.2-0.2,0.3-0.2,0.5c0,0.1-0.1,0.2-0.1,0.2c0-0.3,0-0.5,0-0.8c0,0,0,0,0,0c0,0,0,0,0,0
				c0-0.1,0-0.3,0-0.4c0,0,0,0,0.1,0c0-0.1,0-0.1,0-0.2c0,0,0,0,0,0c0,0-0.1,0-0.1,0c0-0.1,0-0.2,0-0.3c0,0-0.1,0.1-0.2,0.3
				c0,0,0,0,0,0c-0.3,0.1-0.7,0.5-1.1,0.9c-0.8,0.9-1.8,2.3-2.8,3.8c-1.6,2.2-3.2,4.3-4.9,6.8c-1.7,2.4-3.4,5.2-5.3,8.5
				c-1.6,2.8-3.1,5.8-4.7,9.1c-1.5,3.3-3.2,6.9-5,11c-1.2,2.7-2.4,5.5-3.5,8.2c-0.3,0.9-0.5,1.7-0.8,2.6c-0.9,2.7-2.2,5.7-2,8.9
				c-0.8,2.2-1,5-1.2,8.2c-0.2,3.3,0,6.9-0.3,9.3c1.1,2.7,1.1,6.1,2,9.2c0,0-0.1,0.1-0.1,0.1c-0.4,0.2-0.3,0.4-0.3,0.8
				c-0.2,0.8-0.9,1.7-1.4,3c-0.9,2.5-2,5.2-3.4,8.1c-0.2,0.4-0.5,0.8-0.6,1.2c-0.6,1.7-1.3,3.5-2.1,5.3c-0.4,0.8-1,1.5-1.3,2.3
				c-0.4,0.9-0.6,2.1-1.2,2.6c-0.1,1.3-0.4,2.5-0.8,3.7c-0.2,0.5-0.6,0.9-0.4,1.4c0,0,0,0,0,0c-2.7,1-5.5,1.9-8.2,2.8
				c-4.9,2.8-12.1,4.1-19.6,6c-4.9,1.2-9.4,2.3-14.3,3.3c-4.9,1-10.2,1.9-16.6,2.5c-4.9,0.5-10.3,1-14.3,1.1
				c-4.8,0.1-8.6-0.5-13.4-0.6c-4.3,0.1-5.8,0.7-8.5,1.1c1.5,1,6.6,1.7,12.6,1.9c6,0.2,12.9-0.1,18.2-0.5c4.4-0.3,8.9-0.8,13.4-1.5
				c4.5-0.7,9-1.6,13.5-2.5c0.8-0.2,1.5-0.3,2.3-0.5c0,0.1-0.1,0.2-0.1,0.2c0.2,0.1,0.6,0,0.8,0.1c0.8,0.6,1.9,1.1,3,1.5
				c1.1,0.5,2.3,0.8,3.4,1.2c0.4,0.1,0.9,0.4,1.2,0.6c0.4,0.2,0.5,0.7,0.9,0.8c0.1,0.1,0.6-0.2,0.7-0.2c0.2,0,0,0.4,0.1,0.4
				c0.3,0.1,0.8,0,1.1,0.1c0.7,0.3,1.2,0.8,1.9,1c0.4,0.1,0.9,0,1.3,0.1c1,0.2,1.8,0.7,2.8,0.9c0.7,0.2,1.5,0.1,2.2,0.2
				c0.6,0.1,1.1,0.5,1.7,0.6c1.3,0.3,2.9,0.2,4.2,0.5c0.3,0.1,0.3,0.4,0.6,0.4c1,0.2,2.5-0.1,3.6,0.1c0.5,0.1,1,0.1,1.5,0.1
				c0.1,0.1,0.2,0.2,0.2,0.4c3.1,4.4,8.1,8.6,14.6,11.5c3.2,1.5,7.2,2.3,10.9,3.1c3.8,0.9,8,1.8,12.5,1.8c4.6,0,9.3-0.7,14.1-1.6
				c4-0.8,8.2-1.4,12.4-2.8c3.6-1.2,8.1-3.1,12.7-5.5c4.7-2.3,9.4-5.1,13.8-7.6c5.6-3.2,9.9-6,14.6-9.7c2-1.6,4.1-3.2,6-4.9
				c1-0.9,1.9-1.7,2.8-2.6c0.4-0.5,0.9-0.9,1.3-1.4c0.2-0.2,0.4-0.5,0.6-0.7c0.1-0.1,0.2-0.2,0.3-0.4c0-0.1,0.1-0.1,0.1-0.2
				c0,0,0,0,0,0c0,0,0,0,0,0c0,0,0,0,0,0c0,0,0.1-0.1,0.1-0.1c0.3-0.3,0.6-0.8,0.6-1.1c-0.1-0.2-0.3-0.1-0.4,0.1
				c-0.1,0.1-0.3,0.5-0.6,0.7c-0.1,0.1-0.1,0.1-0.1,0.1c0,0,0,0-0.1,0c0,0-0.1,0-0.2,0c-0.1,0-0.2,0.1-0.3,0.1
				c0.3-0.3,0.5-0.5,0.5-0.5c-0.4,0.1-0.8,0.2-1.2,0.4c-0.2,0-0.5,0.1-0.9,0.1c-0.7,0.1-1.7,0.3-2.7,0.6c-1.1,0.3-2.1,0.6-3.1,1
				c-1.2-0.2-2.7-0.2-4.2-0.3c-5.2,2-10.3,3-15.1,3.5c-4.9,0.5-9.6,0.5-14.3,0.8c-4.5,0.2-9.2,0.6-14,1.2c-1.2,0.2-2.5,0.4-3.7,0.6
				c-1.2,0.2-2.5,0.4-3.7,0.7c-2.5,0.5-5,0.9-7.5,1.4c-5.7,1-11.7,2.1-18.5,3.7c-3.3,0.7-6.9,1.9-10.2,2.5c-4.7,1-9.2,1.5-14,2.6
				c-0.4,0.1-0.7,0.2-1.1,0.2c0,0,0,0,0,0c-0.1-0.3-0.5-0.1-1,0c-1.1,0.1-2-0.3-3.6-0.4c-3.1-0.2-6.4-0.7-9.7-1.5
				c-0.4-0.1-0.8-0.3-1.3-0.4c-1.9-0.4-4.1-0.9-5.9-1.6c-0.8-0.3-1.4-0.8-2.2-1.1c-0.9-0.4-2.3-0.6-2.6-1.2
				c-1.4-0.3-2.7-0.6-3.8-1.1c7-1.7,13.7-3.7,20.1-5.7c2-0.6,5-2,6.7-1.9c8.5-4,17.2-7.2,24.9-11.1c0.9-0.5,1.9-1,2.8-1.5
				c0,0,0,0,0.1,0c0.2,0,0.2,0.4,0.4,0.4c0.4,0.1,1-0.2,1.5-0.1c1,0.2,2.1,0.3,3.2,0.4c1.1,0.1,2.2,0.1,3.4,0.1c1.2,0,2.3,0,3.5,0
				c1.2,0,2.3-0.1,3.4-0.2c0.9-0.1,1.8-0.1,2.7,0c0.9,0,1.6,0.3,2.5,0.2c0.3,0,0.7-0.4,1-0.5c0.3,0,0.4,0.3,0.7,0.3
				c0.7-0.1,1.3-0.4,2-0.4c1.4-0.1,2.8,0,4.3-0.2c0.7-0.1,1.6-0.5,2.3-0.6c2-0.4,3.8-0.5,5.8-0.9c1.3-0.3,2.7-0.9,4-1.2
				c1.2-0.3,2.4-0.4,3.6-0.7c1.3-0.3,2.6-0.8,3.9-1.3c1.3-0.5,2.6-0.9,3.9-1.3c0.5-0.2,0.9,0,1.4-0.2c1.3-0.4,2.6-1,3.9-1.7
				c0.1,0.4,0.2,0.7,0.4,1c0.5,1,1.4,1.7,2.4,2.3c0.7-0.3,1.1,0.2,1.8,0.2c0.9,0,1.8-0.4,3.1-0.8c0.5-0.2,1-0.4,1.4-0.6
				c0.5-0.2,0.9-0.2,1.4-0.5c0.4-0.4,0.4-0.6,0.6-0.9c-0.1-0.1-0.3-0.1-0.5,0c0.1-0.1,0.2-0.2,0.3-0.2c0,0,0.1-0.1,0.1-0.1
				c0.4-0.1,0.9-0.5,1.4-1.1c0.5-0.6,0.9-1.2,1.3-1.7c0-0.1,0.1-0.1,0.1-0.2c0.2-0.3,0.5-0.6,0.7-0.9c0.6-1,1.1-2,1.3-2.9
				c0.1-0.3-0.1-0.3-0.1-0.6c0-0.1,0.2-0.4,0.2-0.5c0-0.1-0.2-0.1-0.2-0.2c0-0.2,0.1-0.4,0.1-0.6c0-1.1-0.4-2.1-1.1-2.7
				c-0.5-0.6-1.3-0.8-2.2-0.8c-0.3,0-0.6,0-0.9,0c-1.4-0.2-3.5,0.5-5.5,1.9c-1.1,0.7-2.1,1.6-3.1,2.7c-0.3,0.4-0.7,0.7-1,1.1
				c-0.8,1-1.3,2.1-1.6,3.1c-0.1,0.2-0.2,0.4-0.2,0.7c-0.5,0.2-1,0.4-1.5,0.6c-5.6,2.3-11.9,4.3-18.6,5.7c-0.9,0.2-1.8,0.3-2.7,0.5
				c-1.9,0.4-3.9,0.8-5.9,1.1c-2,0.3-4,0.6-5.9,0.7c-1.7,0.1-3.3,0-5,0c-2,0-4.6,0.4-5.7,0c-2.9,0.3-5.7,0.5-8.2,0.3
				c-0.3,0-0.6-0.1-0.9-0.1c3.9-2.2,7.8-4.7,11.7-7.2c5.9-3.8,11.8-7.6,17.5-11.4c6.6-5.4,13.4-11.3,19.9-17.1
				c-0.1,0.6,0.3,0.2,0.5,0.2c0.1,0,0.1,0.3,0.1,0.3c0.2,0,0.5-0.3,0.7-0.3c0.9,0,2-0.1,3-0.3c1.1-0.2,2.2-0.5,3.2-0.7
				c0.4-0.1,0.8-0.2,1.2-0.2c0.4,0,0.7,0.3,1.1,0.2c0.1,0,0.3-0.4,0.5-0.5c0.1-0.1,0.2,0.3,0.3,0.3c0.3-0.1,0.6-0.4,0.9-0.5
				c0.7-0.1,1.3,0,2-0.2c0.3-0.1,0.7-0.5,1.1-0.6c0.9-0.3,1.7-0.4,2.6-0.7c0.6-0.2,1.2-0.7,1.8-0.9c0.5-0.2,1.1-0.2,1.6-0.4
				c1.2-0.4,2.4-1.3,3.5-1.7c0.2-0.1,0.4,0.1,0.6,0c0.9-0.3,1.9-1.3,2.9-1.7c0.4-0.2,0.8-0.4,1.2-0.6c0.1,0,0.3,0.1,0.4,0.1
				c4.6,1.7,10.5,2.3,17.1,1.3c3.2-0.5,6.8-1.9,10.2-3.1c3.4-1.2,7.2-2.5,10.8-4.8c1.9-1.2,3.7-2.4,5.4-3.8c1.7-1.4,3.5-2.9,5.2-4.3
				c1.4-1.3,2.9-2.6,4.4-3.9c0.7-0.6,1.5-1.3,2.2-2.1c0.7-0.7,1.4-1.5,2.1-2.2c0.6-0.7,1.2-1.4,1.8-2.1c0.6-0.8,1.3-1.6,1.9-2.5
				c0.7-0.9,1.3-1.8,2-2.7c0.7-1,1.3-2,2-3c0.7-1,1.4-2,2-3.1c0.7-1.1,1.3-2.1,2-3.2c1.3-2.1,2.6-4.2,3.8-6.3
				c3.1-5.2,5.4-9.4,7.6-14.4c0.5-1.1,0.9-2.2,1.4-3.3c0.5-1.1,0.9-2.2,1.4-3.4c0.4-1.1,0.8-2.3,1.1-3.4c0.2-0.6,0.3-1.1,0.4-1.7
				c0.1-0.3,0.1-0.6,0.2-0.8c0-0.1,0-0.1,0-0.2c0-0.1,0,0,0-0.1c0-0.1,0.1-0.3,0.1-0.4c0.1-0.6,0-1.2-0.1-1.4
				c-0.2,0.2-0.3,0.5-0.4,0.9c-0.1,0.4-0.3,0.7-0.5,0.9c0.1-0.4,0.2-0.6,0.2-0.6c-0.3,0.3-0.5,0.6-0.8,0.9c-0.2,0.1-0.4,0.3-0.7,0.5
				c-0.5,0.4-1.2,1.1-2,1.8c-0.8,0.8-1.4,1.6-2.1,2.4c-1.1,0.5-2.3,1.2-3.6,1.9c-3.4,4.2-7.1,7.5-10.8,10.3
				c-3.8,2.8-7.6,5.2-11.3,7.7c-3.6,2.4-7.2,5-10.9,7.9c-0.9,0.7-1.8,1.5-2.7,2.2c-0.9,0.8-1.8,1.6-2.7,2.3
				c-1.8,1.6-3.6,3.1-5.4,4.7c-4.1,3.5-8.4,7.3-13.1,11.8c-2.3,2.2-4.6,4.7-7,6.8c-3.3,3-6.6,5.5-9.9,8.6c-0.2,0.2-0.5,0.4-0.7,0.7
				c0,0,0,0,0,0c-0.3-0.2-0.4,0.2-0.8,0.5c-0.8,0.6-1.7,0.8-3,1.5c-2.5,1.3-5.3,2.6-8.3,3.5c-0.4,0.1-0.8,0.2-1.2,0.3
				c-1.7,0.7-3.6,1.3-5.3,1.6c-0.8,0.1-1.5,0.1-2.2,0.2c-0.9,0.1-2.1,0.7-2.6,0.4c-1.4,0.5-2.7,1-3.8,1.1c-0.1,0-0.2,0-0.3,0
				c4.9-4.5,9.7-9.2,14.3-14.1c2.5-2.6,4.9-5.3,7.3-8c1.2-1.4,2.4-2.8,3.5-4.2c1.1-1.4,2.3-2.8,3.4-4.3c5.6-7.2,10.9-14.6,15.9-22.5
				c0.5-0.8,1-1.6,1.5-2.4c0.2,0.3,0.6-0.3,1.1-0.5c0.2-0.1,0.4,0.1,0.5,0.1c0.4-0.2,0.7-0.7,1.2-0.9c0.9-0.5,1.8-1,2.8-1.5
				c0.9-0.6,1.9-1.2,2.9-1.9c1-0.7,1.9-1.3,2.9-2c0.9-0.7,1.9-1.4,2.8-2.1c0.7-0.6,1.5-1.1,2.2-1.6c0.7-0.5,1.5-0.7,2.2-1.3
				c0.2-0.2,0.4-0.7,0.6-1c0.2-0.2,0.5,0,0.7-0.2c0.5-0.4,0.9-1.1,1.4-1.5c1.1-0.9,2.4-1.7,3.5-2.7c0.6-0.5,1.1-1.3,1.6-1.8
				c1.4-1.4,2.9-2.7,4.4-4.1c1-1,1.8-2.3,2.7-3.3c0.8-0.9,1.8-1.7,2.6-2.6c0.9-1,1.8-2.2,2.6-3.3c0.9-1.1,1.7-2.3,2.6-3.4
				c0.3-0.4,0.8-0.6,1.1-1c0.9-1,1.6-2.3,2.4-3.6c0.3,0.2,0.5,0.4,0.8,0.5c1,0.5,2.1,0.4,3.1,0.4c0.4-0.7,1-0.5,1.6-1
				c0.8-0.6,1.3-1.4,2.2-2.4c0.3-0.4,0.6-1,0.9-1.3c0.3-0.4,0.6-0.7,0.9-1.3c0.2-0.5,0-0.8,0-1.1c-0.1,0-0.3,0.1-0.4,0.3
				c0.1-0.1,0.1-0.3,0.1-0.4c0,0,0-0.1,0-0.2c0.3-0.3,0.5-1,0.6-1.7c0.1-0.7,0.1-1.5,0.2-2.1c0-0.1,0-0.1,0-0.2
				c0-0.4,0.1-0.8,0.1-1.2c0-1.1-0.1-2.2-0.4-3c-0.1-0.2-0.3-0.2-0.4-0.4c0-0.1,0-0.5-0.1-0.5c-0.1-0.1-0.2,0.1-0.3,0
				c-0.1-0.2-0.1-0.4-0.2-0.5c-0.6-0.8-1.4-1.4-2.3-1.5c-0.7-0.1-1.5,0.2-2.3,0.7c-0.3,0.1-0.5,0.3-0.8,0.5
				c-1.2,0.7-2.7,2.5-3.7,4.8c-0.5,1.2-1,2.5-1.2,4c-0.1,0.5-0.2,1-0.3,1.5c-0.1,1.2,0,2.4,0.2,3.4c0,0.2,0.1,0.4,0.1,0.6
				c-0.3,0.4-0.6,0.9-1,1.4c-3.5,5.1-7.7,10.5-12.6,15.5c-0.6,0.7-1.3,1.2-2,2c-1.4,1.4-2.8,2.9-4.4,4.3c-1.5,1.4-3.1,2.8-4.6,4
				c-1.4,1.1-2.8,2-4.1,2.9c-1.7,1.2-3.6,3-4.7,3.3c-2.3,1.9-4.5,3.7-6.6,4.9c-0.6,0.3-1,0.5-1.5,0.8c0.1-0.2,0.2-0.3,0.3-0.5
				c1.2-2.1,2.4-4.1,3.6-6.3c2.4-4.3,4.7-8.7,6.9-13.4c1.3-2.7,2.4-5.4,3.6-8.2c0.7-1.6,1.9-3.6,2.5-5.1c1.8-4.5,3.4-9.1,4.8-13.7
				c0.7-2.4,1.5-4.9,2.2-7.3c0.1,0,0.1-0.2,0.2-0.3c0.1,0,0.2,0.3,0.2,0.3c0.1-0.1,0.2-0.5,0.3-0.5c1.2-0.5,2.4-1.8,3.5-2.9
				c0.2-0.2,0.5-0.4,0.7-0.5c0.2-0.1,0.6,0,0.8-0.2c0.1-0.1,0-0.5,0.1-0.6c0.1-0.1,0.2,0.2,0.3,0.2c0.2-0.2,0.2-0.6,0.4-0.7
				c0.4-0.3,0.8-0.3,1.2-0.7c0.2-0.2,0.3-0.6,0.4-0.8c0.4-0.5,1-0.8,1.4-1.3c0.3-0.3,0.5-0.9,0.8-1.3c0.3-0.3,0.6-0.4,0.9-0.7
				c0.6-0.7,1-1.7,1.6-2.3c0.1-0.1,0.3,0,0.4-0.1c0.5-0.5,0.7-1.6,1.2-2.1c0.1-0.1,0.2-0.3,0.3-0.5c0.1,0,0.2,0,0.3,0
				c3.4-0.4,7.2-1.9,11-4.7c1.9-1.4,3.6-3.5,5.4-5.3c1.8-1.9,3.8-3.7,5.5-6.3c0.8-1.3,1.6-2.7,2.3-4.1c0.7-1.5,1.3-2.9,2-4.4
				c0.5-1.3,1.1-2.5,1.7-3.7c0.3-0.6,0.6-1.3,0.8-1.9c0.3-0.7,0.5-1.3,0.7-2c0.2-0.6,0.4-1.2,0.6-1.9c0.2-0.7,0.3-1.4,0.5-2.2
				c0.2-0.8,0.3-1.6,0.5-2.4c0.1-0.8,0.3-1.7,0.4-2.5c0.1-0.9,0.3-1.7,0.4-2.6c0.1-0.9,0.2-1.7,0.4-2.6c0.3-1.7,0.5-3.5,0.7-5.1
				c0.6-4.2,1.1-7.6,1.1-11.5c0-1.7,0.1-3.4,0-5.1c0-0.9-0.1-1.7-0.2-2.5c-0.1-0.4-0.1-0.8-0.2-1.2c0-0.2-0.1-0.4-0.1-0.6
				c0,0,0-0.1,0-0.1c0,0,0,0,0-0.1c0-0.1,0-0.3-0.1-0.4c-0.1-0.6-0.4-1.1-0.6-1.2c-0.1,0.2-0.1,0.6-0.1,0.9c0,0.3,0,0.7-0.1,0.8
				c0-0.3,0-0.4,0-0.4c-0.1,0.3-0.2,0.5-0.3,0.8c-0.1,0.1-0.2,0.2-0.3,0.4c-0.2,0.4-0.6,1-0.9,1.7c-0.3,0.7-0.5,1.4-0.7,2.2
				c-0.7,0.5-1.3,1.2-2,1.9c-0.9,3.8-2.4,7-4.1,9.9c-1.7,2.9-3.5,5.4-5.2,8.1c-1.6,2.6-3.2,5.3-4.8,8.3c-0.4,0.8-0.7,1.5-1.1,2.3
				c-0.4,0.8-0.7,1.6-1.1,2.4c-0.7,1.6-1.4,3.1-2.1,4.7c-1.6,3.5-3.3,7.3-4.9,11.7c-0.8,2.1-1.4,4.6-2.2,6.7c-1.2,3-2.5,5.6-3.7,8.7
				c-0.1,0.2-0.1,0.3-0.2,0.5c-0.2-0.1-0.2,0.3-0.3,0.6c-0.3,0.7-0.8,1-1.4,1.9c-1.1,1.7-2.4,3.5-3.9,5.1c-0.2,0.2-0.4,0.3-0.7,0.6
				c-0.8,1-1.8,2.1-2.7,2.9c-0.4,0.3-0.9,0.5-1.3,0.8c-0.5,0.4-1,1.2-1.4,1.1c-0.5,0.8-1.1,1.5-1.7,2c0.3-1.2,0.7-2.4,1-3.6
				c0.8-3,1.8-5.7,2.6-8.7c1.2-4.5,2.2-9.1,2.9-13.7c0.8-4.6,1.4-9.3,1.9-13.9c0.4-3.7,0.7-7.4,1-11.1c0.5,1,0.5,0.1,0.8-0.3
				c0.1-0.1,0.3,0,0.4,0c0.2-0.3,0.3-0.8,0.5-1.1c0.5-0.6,1-1.3,1.5-2c0.5-0.7,0.9-1.5,1.4-2.3c0.5-0.8,0.9-1.6,1.4-2.4
				c0.4-0.8,0.8-1.7,1.3-2.5c0.3-0.6,0.7-1.3,1.1-1.9c0.4-0.6,0.9-0.9,1.2-1.5c0.1-0.2,0-0.7,0.1-1c0.1-0.2,0.4-0.1,0.5-0.3
				c0.2-0.5,0.3-1.1,0.5-1.6c0.5-1,1.2-1.9,1.7-3c0.2-0.6,0.3-1.3,0.5-1.9c0.6-1.5,1.3-2.8,1.8-4.3c0.4-1,0.5-2.3,0.9-3.3
				c0.3-0.9,0.8-1.7,1.1-2.7c0.3-1,0.6-2.1,0.8-3.3c0.3-1.1,0.5-2.2,0.8-3.3c0.1-0.4,0.4-0.6,0.5-1c0.3-1,0.4-2.2,0.6-3.3
				c0.2,0,0.4,0.1,0.5,0.1c0.9,0,1.6-0.3,2.4-0.7c0.1-0.8,0.6-0.7,0.9-1.2c0.4-0.7,0.5-1.5,0.8-2.5c0.1-0.4,0.2-0.9,0.2-1.2
				c0.1-0.4,0.3-0.7,0.3-1.2c0-0.4-0.2-0.6-0.4-0.8c-0.1,0.1-0.2,0.2-0.3,0.3c0-0.1,0-0.2,0-0.3c0,0,0-0.1,0-0.1
				c0.1-0.3,0.1-0.9,0-1.4c-0.1-0.6-0.4-1.1-0.5-1.6c0,0,0-0.1,0-0.1c-0.1-0.3-0.1-0.6-0.2-0.9c-0.3-0.8-0.7-1.6-1.1-2.1
				c-0.1-0.2-0.3,0-0.4-0.1c0,0-0.1-0.4-0.2-0.4c-0.1,0-0.1,0.2-0.2,0.1c-0.1-0.1-0.2-0.2-0.3-0.3c-0.7-0.4-1.4-0.6-2-0.5
				c-0.6,0.1-1,0.6-1.4,1.2c-0.1,0.2-0.3,0.4-0.4,0.6c-0.7,0.8-1.2,2.6-1.3,4.6c0,1.1,0,2.2,0.3,3.4c0.1,0.4,0.1,0.8,0.2,1.2
				c0.3,1,0.7,1.8,1.1,2.5c0,0.1,0.1,0.1,0.1,0.2c-0.1,0.4-0.2,0.8-0.2,1.2c-0.9,4.8-2.3,10-4.2,15.1c-0.2,0.7-0.6,1.3-0.8,2.1
				c-0.5,1.5-1.1,3-1.7,4.5c-0.6,1.5-1.3,3-2,4.3c-0.6,1.2-1.3,2.3-2,3.4c-0.8,1.4-1.5,3.4-2.2,3.9c-0.9,2.2-1.9,4.3-3,5.8
				c-0.4,0.6-0.8,0.9-1.1,1.6c0.3-4.7,0.5-9.5,0.6-14.2c0.1-2.4,0.4-5.7,0.3-8.2c-0.2-9-1.2-18-2.3-26.5c-0.5-4-1-7.9-1.7-11.9
				c0.5-0.6,0.8-1.7,1.1-2.7c0.1-0.2,0.2-0.4,0.3-0.5c0.1-0.1,0.4,0,0.5-0.2c0-0.1-0.2-0.4-0.2-0.5c0-0.1,0.3,0.2,0.3,0.1
				c0-0.2-0.1-0.5,0-0.6c0.1-0.3,0.5-0.3,0.6-0.7c0.1-0.2-0.1-0.5,0-0.7c0.1-0.5,0.4-0.7,0.5-1.2c0.1-0.3,0-0.8,0-1.1
				c0.1-0.3,0.3-0.4,0.4-0.6c0.2-0.6,0.1-1.5,0.3-2c0-0.1,0.3,0,0.3-0.1c0.1-0.3,0-1,0-1.5c0.1-0.1,0.3-0.1,0.4-0.2
				c1.6-0.8,3.1-2.3,4.3-4.4c0.6-1.1,0.9-2.7,1.4-3.9c0.5-1.3,1.2-2.4,1.5-4c0.2-0.8,0.3-1.6,0.3-2.4c0-0.9,0.1-1.7,0.1-2.5
				c0.1-1.4,0.5-2.7,0.4-4.3c0-0.7-0.1-1.4-0.3-2.2c-0.1-0.8-0.3-1.7-0.5-2.6c-0.2-0.9-0.4-1.8-0.6-2.7c-0.2-0.9-0.4-1.8-0.5-2.6
				c-0.4-2.1-0.6-3.9-1.2-5.8c-0.3-0.8-0.5-1.7-0.8-2.5c-0.1-0.4-0.3-0.8-0.5-1.2c-0.1-0.2-0.2-0.4-0.3-0.6
				c-0.1-0.1-0.1-0.2-0.2-0.3c0,0,0,0-0.1-0.1c0,0,0,0,0-0.1c0-0.1-0.1-0.2-0.2-0.3c-0.2-0.5-0.6-0.8-0.8-0.9c0,0.3,0.1,0.6,0.2,0.9
				c0.1,0.3,0.1,0.6,0.1,0.7c0-0.1-0.1-0.2-0.1-0.2c0,0.2,0,0.3,0,0.4c0,0-0.1,0-0.1,0.1c-0.1,0.2-0.2,0.5-0.2,0.9
				c0,0.5,0,0.8,0.1,1.3c-0.4,0.2-0.8,0.5-1.2,0.8c0.5,2.3,0.3,4.1-0.1,5.7c-0.4,1.6-1,3-1.4,4.5c-0.4,1.5-0.7,3.2-0.9,4.9
				c-0.1,0.9-0.2,1.8-0.2,2.7c0,0.9-0.1,1.8-0.2,2.7c-0.1,2-0.2,4.2-0.1,6.7c0.1,1.2,0.4,2.6,0.4,3.8c0,1.6-0.2,3-0.2,4.7
				c0,0-0.1,0-0.1,0c-0.3-0.1-0.1,0.2,0,0.5c0.1,0.6-0.2,0.9-0.3,1.6c-0.1,1.4-0.4,2.9-0.8,4.4c-0.1,0.2-0.2,0.3-0.2,0.5
				c-0.2,0.9-0.4,1.9-0.8,2.6c-0.2,0.3-0.5,0.5-0.6,0.8c-0.2,0.3-0.2,0.8-0.4,1c-1.4-8-3.2-15.9-5.5-23.9c0.1,0,0.2,0,0.3-0.1
				c0-0.3-0.2-0.5-0.4-0.7c-0.1-0.1-0.2-0.2-0.2-0.4c0-0.1,0-0.2,0-0.2c0.1,0.1,0.1,0.1,0.1,0.1c0-0.2,0-0.3,0-0.5
				c0,0,0.1-0.1,0.1-0.3c0.1-0.3,0.1-0.7,0-1.2c0-0.5-0.1-0.9-0.3-1.3c0.3-0.5,0.6-1.1,0.8-1.8c-1.7-4.4-1.6-8.7-2.5-13.1
				c-0.5-2.1-1.1-4.2-1.9-6.2c-0.4-1-0.8-2.1-1.2-3.1c-0.2-0.5-0.5-1-0.7-1.5c-0.3-0.5-0.5-1.1-0.8-1.5c-1.2-2.3-2.8-4.5-4.6-6.2
				c-0.4-0.4-0.9-0.7-1.4-1c-0.5-0.3-0.9-0.5-1.4-0.9c-1.2-1-2.4-2.3-3.7-3.1c-1-0.6-1.9-1.1-3.2-1.6c-0.9-0.3-1.7-0.6-2.6-1
				c0.7,1.3,1.3,2.7,1.9,4c0.8,1.7,1.7,3.6,2.7,5.5c0.8,1.5,1.8,2.9,2.5,4.5c0.7,1.6,1.2,3.4,1.8,5c0.1,0.4,0.3,0.8,0.4,1.2
				c0.1,0.4,0.3,0.9,0.5,1.3c0.4,0.9,0.7,1.7,1,2.6c0.6,1.5,0.8,3.2,1.5,4.6c0.5,1.3,1.4,2.7,2.3,4.2c0.9,1.5,1.8,3,2.6,4.5
				c1,1.9,1.7,3.6,2.9,5c0.2,0.3,0.5,0.6,0.7,1c0.2,0.3,0.5,0.6,0.7,0.9c1.2,3.6,2.2,7.2,3.1,10.5c0.8,3.3,1.4,6.9,2.1,10.5
				c0.6,2.6,1,5.1,1.4,7.7c0.4,2.5,0.8,5.1,1.1,7.6c0.7,5,1.2,9.9,1.6,14.8c0.2,2.8,0.7,4.2,0.9,6.7c0.1,0.7,0,2.1-0.1,3.2
				c-0.1-0.1-0.2-0.2-0.3-0.4c-0.3-0.8-0.7-1.6-1.1-2.4c-0.4-0.8-0.8-1.6-1.2-2.4c-0.4-0.8-0.8-1.6-1.3-2.4
				c-0.4-0.8-0.8-1.6-1.2-2.3c-0.3-0.6-0.6-1.3-0.9-1.9c-0.3-0.7-0.4-1.6-0.7-2.2c-0.1-0.2-0.4-0.1-0.5-0.3c-0.1-0.2,0-0.6-0.1-0.8
				c-0.2-0.4-0.6-0.7-0.8-1.1c-0.5-1-0.8-2.3-1.3-3.4c-0.3-0.5-0.7-0.8-0.9-1.3c-0.7-1.3-1.2-2.8-1.9-4.1c-0.4-0.9-1.1-1.6-1.5-2.5
				c-0.4-0.8-0.7-1.8-1.1-2.7c-0.4-0.9-0.9-1.7-1.4-2.6c-0.5-0.8-1-1.7-1.4-2.6c-0.2-0.4-0.2-0.9-0.3-1.2c-0.5-1.1-1.1-2-1.7-2.9
				c0.1-0.3,0.2-0.6,0.3-0.8c0,0,0,0,0,0c0,0,0-0.1,0-0.1c0.4-0.9,0.6-1.9,0.6-3.1c0-1.5-0.3-3.3-1.2-4.9c-0.1-0.2-0.3-0.4-0.4-0.6
				c-0.1-0.1-0.1-0.4-0.2-0.5c-0.5-0.6-1.1-0.9-1.6-1.2c-0.2-0.1-0.3-0.3-0.5-0.4c-0.5-0.3-1.1-0.3-1.6-0.1
				c-0.5,0.2-0.9,0.5-1.3,0.8c-0.1,0.1-0.3,0.1-0.4,0.2c-0.4,0.4-0.6,1.1-0.8,1.7c-0.4,1.2-0.8,2.5-0.6,4.2
				c-0.1,0.1-0.1,0.2-0.1,0.3c0.3,0.3,0.2,0.9,0.7,0.9c0,0,0-0.1,0-0.1c0,0,0,0.1,0,0.1c0,0.1,0,0.2,0.1,0.3c-0.1,0.2-0.1,0.4,0,0.7
				c0,0.5,0.2,1,0.4,1.4c0.3,0.6,0.6,1.2,1.1,1.7c0.4,0.5,0.9,0.8,1.3,1.2c0.1,0.1,0.3,0,0.3,0.4c0.5-0.1,1,0.3,1.5,0.2
				c0.3-0.1,0.6-0.2,0.9-0.5c0.2,0.5,0.5,1.1,0.8,1.6c2.1,3.9,4.3,8.3,6.6,13c0.3,0.6,0.6,1.3,0.9,2c0.7,1.3,1.4,2.7,2.1,4.1
				c0.7,1.4,1.4,2.9,2.1,4.3c0.6,1.2,1,2.7,1.6,3.9c0.7,1.5,1.7,3.1,2,4.2c1.2,1.8,2.3,3.5,3.2,5.4c0.4,0.8,0.5,1.5,1.1,2
				c0.2,0.2,0.5,0.6,0.9,0.2c0.1,0.6,0.3,1,0.4,2.1c0.1,2.2-0.1,4.3,0,6.9c-0.1,13.3-1.4,26.8-3.5,39.9c-0.1,1-0.3,2-0.5,3
				c-0.3-0.6-0.5-1.2-0.8-1.8c-0.1-0.2-0.2-0.5-0.2-0.8c0-0.3,0.1-0.8,0-1.1c0-0.1-0.3,0.1-0.4,0c0-0.1,0.2-0.4,0.2-0.5
				c-0.1-0.2-0.3-0.2-0.4-0.4c-0.1-0.5,0-1.1-0.2-1.6c-0.1-0.2-0.3-0.3-0.4-0.5c-0.2-0.5-0.3-1.2-0.4-1.8c-0.1-0.4-0.5-0.6-0.6-0.9
				c-0.1-0.3-0.1-0.9-0.2-1.2c-0.2-0.8-0.7-1.3-0.9-2.1c0-0.2,0.1-0.5,0.1-0.6c-0.1-0.7-0.7-1-0.8-1.6c0-0.2-0.1-0.3-0.2-0.5
				c0-0.2,0-0.5,0-0.7c0,0,0,0,0,0c0.1-4.1-0.5-7.4-0.5-11.2c-0.1-2.3-0.3-4.6-0.8-7.6c-0.6-3-1.2-6.3-2-9.6
				c-0.2-0.8-0.4-1.7-0.7-2.5c-0.2-0.8-0.5-1.7-0.8-2.5c-0.6-1.6-1.2-3.2-1.9-4.7c-1.2-2.5-2.6-4.5-3.7-6.5
				c-0.4-0.6-0.6-1.5-1.1-2.3c-1.1-1.9-4-6-4.7-8.7c-0.9-0.4-2-2.5-3-4.3c-0.1-0.2-0.3-0.5-0.4-0.7c-0.2-0.3-0.4-0.7-0.6-1
				c-0.4-0.6-1-1.1-1.4-1.4c-0.8-0.6-1.2-0.6-1.1-0.2c0.1,0.4,0.4,1,0.7,1.7c-0.1-0.2-0.2-0.4-0.4-0.6c0,0,0,0.1,0,0.3c0,0,0,0,0,0
				c-0.2,0.3-0.2,0.7-0.3,1.2c-0.1,1,0.1,2.4,0.2,3.9c0.2,4.4,0.3,8.7,1.3,14.6c0.1,0.6,0.2,1.2,0.3,1.9c0.1,0.6,0.3,1.2,0.4,1.9
				c0.3,1.3,0.6,2.5,0.9,3.8c0.3,1.3,0.7,2.6,1,4.1c0.2,0.7,0.4,1.4,0.6,2.2c0.2,0.7,0.4,1.5,0.6,2.3c0.3,1,0.5,2.1,0.8,3.1
				c0.2,1.1,0.6,2.1,0.8,3.1c0.2,0.6,0.5,1.2,0.7,1.7c0.6,1.9,1.2,4.3,2.7,5.6c0.4,1.7,1.4,3.2,2.6,5c1.2,1.8,2.8,3.5,3.5,5
				c1.6,0.5,2.8,2.4,4.3,3.5c0,0,0,0,0,0c-0.2,0.4,0.1,0.3,0.2,0.6c0.3,0.5,0.3,1.3,0.6,2.1c0.7,1.6,1.3,3.4,1.9,5.5
				c0.1,0.3,0.1,0.6,0.2,0.9c0.5,1.1,0.9,2.3,1.2,3.5c0.1,0.5,0.1,1.2,0.3,1.8c0.2,0.7,0.7,1.2,0.5,1.9c0.5,0.6,1,1.3,1.3,2.1
				c0.1,0.2,0.1,0.4,0.2,0.6c-0.8,4.2-1.7,8.3-2.7,12.4c-1.5,6.3-3.1,12.5-4.8,18.5c-1.6,4.4-3.2,8.9-5.1,13.5
				c-0.6,1.5-1.3,3.1-1.9,4.6c-0.1-0.1-0.2-0.3-0.2-0.5c-0.1-0.9-0.3-1.9-0.4-2.8c-0.2-0.9-0.3-1.9-0.5-2.9
				c-0.2-0.9-0.4-1.9-0.6-2.8c-0.2-0.9-0.4-1.9-0.6-2.8c-0.2-0.7-0.3-1.5-0.4-2.3c-0.1-0.8,0.1-1.7,0-2.4c0-0.2-0.4-0.3-0.4-0.5
				c-0.1-0.2,0.2-0.6,0.1-0.8c-0.1-0.5-0.4-0.9-0.5-1.4c-0.2-1.2-0.1-2.6-0.4-3.8c-0.1-0.6-0.4-1.1-0.5-1.7
				c-0.3-1.6-0.5-3.2-0.7-4.8c-0.2-1.1-0.6-2-0.8-3c-0.2-0.9-0.2-2.1-0.3-3c-0.2-1-0.4-2-0.7-3.1c-0.3-1-0.5-2-0.6-3.1
				c-0.1-0.4,0.1-0.9,0-1.3c-0.2-1.2-0.6-2.3-0.9-3.5c0.2-0.2,0.3-0.4,0.5-0.5c0.1-0.1,0.1-0.2,0.2-0.2c0,0,0.1-0.1,0.1-0.1
				c0,0,0,0,0,0c0,0,0.1-0.1,0.1-0.1c0.7-0.8,1.4-1.8,1.7-3c0.5-1.6,0.8-3.4,0.4-5.2c-0.1-0.3-0.2-0.5-0.3-0.7
				c-0.1-0.1,0-0.4-0.1-0.5c-0.3-0.7-0.9-1.2-1.4-1.6c-0.2-0.2-0.3-0.4-0.4-0.5c-0.5-0.4-1.1-0.5-1.7-0.5c-0.6,0-1.2,0.3-1.8,0.5
				c-0.2,0.1-0.4,0-0.5,0.1c-0.6,0.3-1,0.9-1.5,1.5c-0.9,1.1-1.8,2.4-2.1,4c-0.1,0.1-0.1,0.2-0.2,0.3c0.2,0.4-0.1,1,0.4,1
				c0,0,0.1-0.1,0.1-0.1c0,0,0,0.1,0,0.1c0,0.1,0,0.2,0,0.3c-0.1,0.2-0.2,0.4-0.3,0.7c-0.1,0.5-0.1,1.1,0,1.5c0.1,0.7,0.3,1.4,0.6,2
				c0.3,0.6,0.7,1.1,1.1,1.5c0.1,0.1,0.3,0.1,0.3,0.5c0.6,0.1,1,0.5,1.6,0.6c0.4,0,0.9-0.1,1.3-0.2c0,0,0,0,0.1,0
				c0.1,0.6,0.2,1.2,0.3,1.9c1,4.6,2,9.7,2.9,15.2c0.1,0.7,0.2,1.5,0.3,2.3c0.3,1.5,0.7,3.2,1,4.8c0.3,1.7,0.6,3.4,0.9,5
				c0.2,1.5,0.3,3.1,0.5,4.5c0.3,1.8,0.9,3.7,0.8,5c0.7,2.2,1.3,4.4,1.7,6.6c0.2,0.9,0.1,1.7,0.6,2.5c0.1,0.1,0.2,0.3,0.3,0.5
				c-1,2.3-2,4.6-3.1,6.9c-2.3,4.8-4.7,9.7-7.4,14.6c-1.3,2.5-2.7,4.9-4.1,7.4c-1.5,2.4-3,4.9-4.5,7.3c-5.5,8.5-11.3,16.6-18.2,25
				c0.1-0.7,0.2-1.4,0.2-2.1c0.1-1.1,0.1-2.1,0.1-3.2c0-0.4,0.1-0.9,0.2-1.3c0.1-0.4,0.5-0.9,0.5-1.3c0-0.1-0.3-0.2-0.3-0.3
				c0-0.1,0.3-0.3,0.3-0.5c0-0.3-0.2-0.5-0.1-0.8c0.1-0.7,0.5-1.5,0.6-2.1c0-0.3-0.2-0.6-0.1-0.9c0.1-0.9,0.3-1.8,0.4-2.7
				c0.1-0.6-0.1-1.1-0.1-1.7c0.1-0.5,0.3-1.1,0.4-1.7c0.2-1.2,0-2.3,0.2-3.5c0-0.2,0.3-0.5,0.4-0.7c0.2-0.9-0.1-1.8,0-2.8
				c0.1-0.4,0.1-0.8,0.1-1.2c0.1-0.2,0.3-0.5,0.4-0.7c0,0,0,0,0,0c2.6-5.1,4-9.8,5.9-14.8c1.1-3,2.1-6.2,3-10.4
				c0.9-4.2,1.8-8.9,2.3-13.7c0.1-1.2,0.3-2.4,0.4-3.6c0.1-1.2,0.2-2.4,0.2-3.6c0.1-2.4-0.1-4.8-0.3-7c-0.4-3.8-1.3-7.2-1.9-10.3
				c-0.2-1-0.2-2.2-0.5-3.4c-0.3-1.5-1-3.9-1.6-6.5c-0.6-2.5-1.1-5.1-1.1-6.9c-0.9-1.1-1.5-4.3-2.2-7.1c-0.1-0.3-0.2-0.7-0.2-1
				c-0.1-0.4-0.2-0.9-0.4-1.3c-0.3-0.9-0.7-1.7-1-2.2c-0.7-1.1-1.1-1.5-1.2-1.1c-0.1,0.3,0.1,1,0.2,1.9c-0.1-0.3-0.2-0.6-0.2-0.9
				c0,0,0,0.1-0.1,0.4c0,0,0,0,0,0c-0.3,0.3-0.5,0.7-0.8,1.3c-0.2,0.6-0.5,1.4-0.7,2.2c-0.2,0.8-0.5,1.7-0.8,2.6
				c-0.5,1.4-0.8,2.8-1.3,4.1c-0.4,1.4-0.8,2.8-1.3,4.3c-0.2,0.7-0.4,1.5-0.6,2.3c-0.1,0.4-0.2,0.8-0.3,1.2
				c-0.1,0.4-0.2,0.8-0.3,1.2c-0.2,0.8-0.4,1.7-0.6,2.6c-0.2,0.9-0.4,1.8-0.6,2.8c-0.2,0.8-0.3,1.6-0.5,2.5
				c-0.1,0.8-0.3,1.7-0.4,2.5c-0.3,1.7-0.5,3.4-0.7,5.3c-0.1,0.5-0.1,0.9-0.2,1.4c-0.1,0.5-0.1,0.9-0.2,1.4
				c-0.1,0.9-0.2,1.9-0.4,2.9c-0.2,1-0.2,2-0.3,3c-0.1,1-0.2,2.1-0.4,3.2c-0.1,1.4-0.3,2.9-0.5,4.4c-0.1,0.7-0.1,1.5-0.2,2.2
				c0,0.7-0.1,1.4-0.2,2.2c-0.1,0.9,0,1.8,0,2.6c-0.1,2.8-0.4,6,0.6,8.8c-0.1,2.3,0.4,4.9,1,8c0.6,3.1,1.8,6.4,2.1,8.7
				c1.6,2.1,2.4,5.3,3.8,7.9c0,0-0.1,0.1-0.1,0.1c-0.3,0.3-0.1,0.5-0.1,0.9c0.1,0.9-0.3,1.8-0.4,3.2c-0.2,2.6-0.4,5.5-0.9,8.6
				c-0.1,0.4-0.2,0.9-0.2,1.3c-0.1,1.7-0.3,3.7-0.6,5.5c-0.1,0.8-0.4,1.7-0.6,2.5c-0.2,1,0,2.1-0.4,2.8c0.2,1.3,0.3,2.5,0.2,3.7
				c-0.1,0.5-0.3,0.9,0,1.3c-2.7,3.2-5.3,5.8-8.2,8.9c-3.5,3.7-7.1,7.4-10.7,10.9c-1.8,1.8-3.6,3.5-5.4,5.1
				c-1.8,1.6-3.6,3.1-5.3,4.6c-5.4,4.5-10.8,8.8-16.3,12.8c0.1-0.2,0.4-0.3,0.4-0.4c0.2-0.4,0-0.8,0.1-1.3c0.4-1,0.7-2,1-3.1
				c0.3-1,0.7-2.1,1-3.2c0.3-1.1,0.6-2.1,0.9-3.2c0.3-1.1,0.6-2.1,0.9-3.1c0.2-0.8,0.5-1.7,0.8-2.5c0.3-0.8,0.9-1.6,1.2-2.4
				c0.1-0.3-0.2-0.5-0.1-0.8c0.1-0.3,0.5-0.5,0.5-0.7c0.2-0.6,0.1-1.1,0.3-1.7c0.4-1.3,1.2-2.7,1.6-4c0.2-0.7,0.1-1.3,0.3-2
				c0.5-1.7,1.2-3.4,1.7-5.1c0.4-1.2,0.4-2.3,0.7-3.4c0.3-1,0.9-2.1,1.2-3.1c0.3-1.1,0.6-2.3,0.9-3.4c0.3-1.1,0.5-2.3,0.9-3.4
				c0.1-0.4,0.5-0.8,0.7-1.3c0.4-1.2,0.6-2.5,0.9-3.8c0.3-0.1,0.6-0.1,0.8-0.2c0.2,0,0.3-0.1,0.5-0.1c0,0,0,0,0.1,0c0,0,0,0,0,0
				c0,0,0.1,0,0.1,0c1.1-0.4,2.3-1,3.3-1.9c1.3-1.2,2.4-2.8,2.9-4.8c0.1-0.3,0.1-0.5,0.1-0.8c0-0.2,0.2-0.4,0.2-0.6
				c0-0.9-0.3-1.6-0.6-2.3c-0.1-0.2-0.1-0.5-0.2-0.7c-0.3-0.7-0.9-1.2-1.5-1.5c-0.6-0.3-1.3-0.5-2-0.6c-0.2,0-0.4-0.2-0.6-0.2
				c-0.7,0-1.5,0.3-2.1,0.5c-1.4,0.5-2.9,1.2-4,2.6c-0.1,0-0.2,0.1-0.3,0.2c0,0.5-0.6,0.9-0.2,1.2c0,0,0.1,0,0.1-0.1
				c0,0-0.1,0.1-0.1,0.1c-0.1,0.1-0.1,0.2-0.2,0.3c-0.2,0.1-0.4,0.3-0.6,0.5c-0.2,0.2-0.3,0.4-0.4,0.7c-0.1,0.2-0.2,0.5-0.3,0.7
				c-0.3,0.7-0.4,1.5-0.4,2.3c0,0.7,0.1,1.4,0.3,2.1c0,0.2,0.2,0.3,0,0.6c0.6,0.4,0.7,1.2,1.3,1.5c0.4,0.3,0.9,0.5,1.4,0.6
				c0.1,0,0.1,0,0.2,0.1c-0.2,0.6-0.4,1.3-0.6,2c-1.3,5-2.9,10.5-4.8,16.5c-0.3,0.8-0.6,1.6-0.8,2.5c-0.5,1.7-1,3.5-1.5,5.3
				c-0.6,1.8-1.1,3.7-1.7,5.4c-0.5,1.6-1.3,3.2-1.8,4.7c-0.6,1.9-1.1,4.2-1.8,5.4c-0.5,2.6-1.1,5.1-1.8,7.5c-0.3,1-0.8,1.8-0.7,2.8
				c0,0.3-0.1,0.8,0.3,1c-0.1,0.1-0.2,0.2-0.4,0.3c-6.2,4.5-12.5,8.7-18.9,12.5c-3.2,1.9-6.5,3.8-9.7,5.5c-3.3,1.7-6.6,3.4-10,4.9
				c-3.2,1.5-6.5,2.9-9.8,4.1c0.5-1,0.9-2,1.2-3c0.3-1,0.7-2.1,1-3.1c0.1-0.4,0.3-0.8,0.6-1.2c0.2-0.4,0.8-0.8,0.9-1.1
				c0.1-0.1-0.3-0.3-0.3-0.4c0-0.1,0.5-0.2,0.5-0.3c0.1-0.3-0.1-0.5,0.1-0.8c0.3-0.6,0.9-1.3,1.2-1.9c0.1-0.3,0-0.7,0.1-1
				c0.3-0.8,0.8-1.7,1.2-2.5c0.2-0.6,0.2-1.1,0.4-1.7c0.2-0.5,0.7-1,0.9-1.5c0.5-1.1,0.6-2.2,1.2-3.3c0.1-0.2,0.5-0.4,0.6-0.6
				c0.5-0.8,0.4-1.8,0.8-2.7c0.2-0.4,0.4-0.8,0.5-1.2c0.2-0.2,0.4-0.4,0.6-0.6c0,0,0,0,0,0c4.3-4.1,7.1-8.2,10.6-12.4
				c2.1-2.6,4-5.3,6.2-9c2.1-3.7,4.3-7.9,6.3-12.3c0.5-1.1,0.9-2.2,1.4-3.3c0.4-1.1,0.9-2.3,1.2-3.4c0.7-2.3,1.2-4.5,1.6-6.8
				c0.6-3.8,0.6-7.2,0.8-10.5c0.1-1,0.3-2.2,0.4-3.4C457.8,566.9,457.8,564.4,457.9,561.8 M482.8,564.4
				C482.7,564.4,482.7,564.5,482.8,564.4C482.7,564.5,482.7,564.5,482.8,564.4C482.7,564.4,482.8,564.4,482.8,564.4z M491.1,566.8
				c0-0.2-0.1-0.4-0.1-0.6c0,0.1,0.1,0.2,0.1,0.3C491.1,566.6,491.1,566.7,491.1,566.8z M521.3,465.4c-0.1-0.3-0.1-0.5-0.2-0.8
				c0.1,0,0.2-0.1,0.3-0.2c0,0,0.1-0.1,0.1-0.1c0,0,0,0,0,0c0,0,0,0.1,0,0.1c0,0.2,0,0.4-0.1,0.6
				C521.4,465.1,521.4,465.2,521.3,465.4z M518,554.2c-0.2,0.1-0.5,0.1-0.7,0.2c0.2-0.3,0.3-0.5,0.4-0.7
				C517.8,553.9,517.9,554.1,518,554.2z M519.7,553.7c-0.2,0.1-0.5,0.1-0.7,0.2c0.1-0.2,0.2-0.5,0.4-0.8
				C519.5,553.4,519.6,553.6,519.7,553.7z M540.4,463.9C540.4,463.9,540.4,463.9,540.4,463.9C540.4,463.9,540.4,463.9,540.4,463.9
				C540.4,463.9,540.4,463.9,540.4,463.9z M547.8,461.7c-0.1-0.1-0.2-0.3-0.3-0.4c0.1,0.1,0.1,0.1,0.2,0.1
				C547.7,461.5,547.8,461.6,547.8,461.7z M543.6,390c-0.2-0.3-0.4-0.7-0.6-1.1c0.1-0.1,0.2-0.2,0.2-0.4c0-0.1,0-0.1,0-0.2
				c0-0.1,0,0,0,0c0,0,0,0.1,0,0.1c0,0.1,0.1,0.3,0.1,0.4c0.1,0.3,0.1,0.6,0.2,0.9C543.5,389.9,543.5,389.9,543.6,390z M563,449.6
				c-0.2,0.2-0.4,0.3-0.5,0.5c0-0.3,0-0.5,0.1-0.8c0,0,0-0.1,0-0.1C562.7,449.4,562.9,449.5,563,449.6z M564.3,448.3
				c-0.2,0.2-0.4,0.3-0.5,0.5c0-0.3,0-0.6,0-0.9C564,448,564.1,448.2,564.3,448.3z M546.5,365.4
				C546.5,365.4,546.5,365.4,546.5,365.4C546.5,365.4,546.5,365.4,546.5,365.4C546.5,365.4,546.5,365.4,546.5,365.4z M551.5,361.7
				c0.1,0,0.1,0.1,0.2,0.1c0.1,0.1,0.1,0.2,0.2,0.2C551.8,361.9,551.7,361.8,551.5,361.7z M545.6,311.3c-0.2-0.1-0.4-0.2-0.6-0.2
				c0.1-0.2,0.1-0.5,0.2-0.7C545.3,310.7,545.5,311,545.6,311.3z M546.3,310.1c-0.4-0.2-0.7-0.3-1-0.4c0.1-0.2,0.1-0.5,0.2-0.7
				C545.7,309.4,546,309.8,546.3,310.1z M579.6,329.5c-0.1-0.2-0.1-0.4-0.2-0.6c0.1,0.1,0.2,0.1,0.3,0.1c0,0,0,0,0,0
				c0,0.1-0.1,0.3-0.1,0.5C579.6,329.4,579.6,329.4,579.6,329.5z M576,364.9c0.1-0.1,0.2-0.2,0.3-0.3c0,0.3,0.1,0.5,0.1,0.8
				c0,0,0,0,0,0C576.3,365.3,576.1,365.1,576,364.9z M574.8,363.7c0.1-0.1,0.3-0.2,0.4-0.3c0,0.3,0,0.6,0.1,0.8
				C575.2,364,575,363.8,574.8,363.7z M580.1,479.7c0.2,0,0.3-0.1,0.5-0.1c-0.1,0.2-0.1,0.5-0.2,0.7c0,0,0,0,0,0
				C580.3,480.1,580.2,479.9,580.1,479.7z M579.5,478.1c0.2,0,0.3-0.1,0.5-0.1c-0.1,0.3-0.2,0.5-0.3,0.8
				C579.7,478.6,579.6,478.3,579.5,478.1z M521.3,602.5c0.2,0,0.3,0.1,0.5,0.1c-0.2,0.2-0.4,0.4-0.5,0.5c0,0,0,0,0,0
				C521.3,602.9,521.3,602.7,521.3,602.5z M521.4,600.8c0.2,0,0.3,0.1,0.5,0.1c-0.2,0.2-0.4,0.4-0.6,0.6
				C521.4,601.2,521.4,601,521.4,600.8z M413.8,679.2c0.1,0.1,0.2,0.3,0.3,0.4c-0.3,0.1-0.5,0.1-0.8,0.2c0,0,0,0,0,0
				C413.5,679.6,413.7,679.4,413.8,679.2z M414.9,677.7c0.1,0.1,0.2,0.3,0.3,0.4c-0.3,0.1-0.6,0.1-0.8,0.2
				C414.6,678.1,414.8,677.9,414.9,677.7z M429.9,627.4c0.1,0.2,0.1,0.4,0.2,0.6c-0.3,0-0.5,0-0.8,0
				C429.4,627.8,429.6,627.6,429.9,627.4z M428,627.4c0.1,0.2,0.1,0.4,0.2,0.6c-0.3,0-0.5,0-0.8,0
				C427.6,627.7,427.8,627.5,428,627.4z"/>
		</g>
	</g>
	<g>
		<g>
			<path class="st1" d="M503.9,253.3c-2.2-1.8-4.6-3.7-7-5.7c-1.2-1-2.5-1.9-3.8-2.9c-1.3-1-2.6-2-3.9-3c-14.7-13.1-32-24-50.3-32.4
				c-18.3-8.4-37.6-14.2-56.7-17.4c-36.4-6.4-74.9-4.1-110.2,7.4c-10.1,3.1-20.1,7.3-30.3,12.1c-2.5,1.3-5.1,2.5-7.6,3.8
				c-1.3,0.6-2.5,1.4-3.8,2.1c-1.3,0.7-2.5,1.4-3.8,2.1c-1.3,0.7-2.6,1.4-3.9,2.2c-1.3,0.8-2.5,1.6-3.8,2.4
				c-1.3,0.8-2.6,1.6-3.8,2.4c-0.6,0.4-1.3,0.8-1.9,1.2c-0.6,0.4-1.3,0.9-1.9,1.3c-2.5,1.7-5,3.4-7.5,5.2c-2.5,1.8-4.9,3.7-7.4,5.6
				l-1.9,1.4c-0.6,0.5-1.2,1-1.8,1.5c-1.2,1-2.4,2-3.5,3c-1.2,1-2.3,2-3.5,3c-1.1,1-2.2,2.1-3.3,3.1c-12.4,11.8-22.6,24.3-32.3,38.3
				c-8.4,12.2-16.1,25.9-22.7,40.8c-0.4,0.9-0.9,1.8-1.2,2.8c-0.4,0.9-0.8,1.9-1.1,2.8c-0.8,1.9-1.5,3.8-2.3,5.7
				c-0.8,1.9-1.4,3.9-2.1,5.8c-0.7,2-1.4,3.9-2,5.9c-0.4,1-0.6,2-0.9,3c-0.3,1-0.6,2-0.9,3c-0.6,2-1.2,4-1.8,6.1
				c-0.5,2.1-1,4.1-1.5,6.2c-0.3,1-0.5,2.1-0.8,3.1c-0.2,1-0.5,2.1-0.7,3.1c-3.4,15.5-5.7,31.9-5.9,48.1c-0.1,8.2,0.2,16.7,1.1,25.2
				c0.5,4.2,0.8,8.5,1.6,12.7c0.7,4.2,1.2,8.3,2.1,12.4c0.4,2.1,0.9,4.2,1.3,6.3l0.3,1.6l0.4,1.5c0.3,1,0.5,2.1,0.8,3.1
				c0.9,4.1,2.1,8.1,3.2,12.1c0.6,2,1.2,4,1.9,6c0.6,2,1.2,4,2,5.9c0.7,2,1.4,3.9,2.1,5.9c0.8,1.9,1.6,3.9,2.4,5.8
				c0.3,0.8,0.7,1.6,1,2.5c0.3,0.8,0.7,1.6,1.1,2.4c0.7,1.6,1.5,3.2,2.2,4.9l0.6,1.2l0.6,1.2l1.2,2.4c0.8,1.6,1.6,3.2,2.5,4.8
				l2.6,4.7l1.3,2.3l1.4,2.3c0.9,1.5,1.8,3.1,2.7,4.6c0.9,1.5,1.9,3,2.8,4.5c0.8,1.3,1.6,2.6,2.5,4c0.9,1.3,1.8,2.7,2.8,4.1
				c1.9,2.8,4,5.7,6.2,8.6c4.4,5.8,9.3,12,14.8,17.9c2.7,3,5.6,5.9,8.4,8.8c3,2.8,5.9,5.7,9,8.4l2.3,2l1.2,1l1.2,1
				c1.6,1.3,3.2,2.6,4.7,3.9c1.6,1.3,3.2,2.4,4.8,3.6c0.8,0.6,1.6,1.2,2.4,1.8c0.8,0.6,1.6,1.1,2.4,1.7c1,0.7,2,1.4,3,2.1
				c1,0.7,2,1.4,3,2c2,1.3,4,2.5,5.9,3.7c3.9,2.3,7.7,4.6,11.5,6.6c0.9,0.5,1.9,1,2.8,1.5c0.9,0.5,1.9,1,2.9,1.4
				c1.9,0.9,3.8,1.9,5.7,2.8c1.9,0.9,3.9,1.8,5.9,2.7c1,0.5,2,0.9,3,1.3c1,0.4,2,0.8,3,1.3c0.9,0.4,1.8,0.7,2.6,1.1
				c0.9,0.4,1.8,0.7,2.7,1c1.8,0.7,3.6,1.3,5.5,2c1.8,0.6,3.7,1.2,5.6,1.8l2.8,0.9c0.9,0.3,1.9,0.5,2.8,0.8c1.9,0.5,3.7,1.1,5.5,1.6
				c1.8,0.5,3.7,1,5.5,1.5c0.9,0.2,1.8,0.5,2.7,0.7c0.9,0.2,1.8,0.4,2.7,0.7c1.8,0.4,3.5,0.9,5.2,1.4c0.5,1-3.3,0.5-9.4-0.7
				c-6.1-1.4-14.5-3.7-23.1-6.6c-1.6-0.6-3.3-1.2-4.9-1.8l-2.4-0.9c-0.8-0.3-1.6-0.6-2.4-0.9c-3.2-1.3-6.4-2.5-9.6-4
				c-1.6-0.7-3.2-1.4-4.8-2.2c-1.6-0.8-3.2-1.6-4.8-2.4c-3.2-1.5-6.4-3.4-9.7-5.1c-6.5-3.7-13.1-7.7-19.9-12.6
				c-6.8-4.8-13.8-10.2-21-16.7c-6-5.5-11.9-11.2-17.5-17.5c-5.6-6.3-11.1-13-16.3-20.3c-5.2-7.3-10.4-15.1-15.2-23.7
				c-4.8-8.6-9.4-17.9-13.6-28c-5.5-13.3-10.2-27.4-13.3-41.2c-0.5-2.2-0.9-4.4-1.3-6.5c-0.2-1.1-0.4-2.2-0.6-3.2
				c-0.1-0.5-0.2-1.1-0.3-1.6l-0.2-1.6c-0.6-3.5-1.1-7-1.7-10.6c-0.4-3.6-0.8-7.3-1.2-11c-0.1-0.9-0.2-1.9-0.2-2.8
				c-0.1-0.9-0.1-1.9-0.2-2.9c-0.1-1.9-0.2-3.9-0.3-5.8c-0.1-2,0-3.9,0-5.9c0-2,0.1-4,0.2-6.1c-0.2-11.2,0.8-25,3.8-41.4
				c0.4-2.1,0.8-4.1,1.2-6.2l0.3-1.6l0.4-1.6l0.8-3.1c0.5-2.1,1-4.2,1.5-6.2c0.5-2.1,1.2-4.1,1.7-6.1c0.6-2,1.1-3.9,1.7-5.8
				c0.6-1.9,1.2-3.7,1.8-5.4c0.6-1.7,1.1-3.4,1.6-5c0.5-1.6,1.1-3,1.6-4.4c0.8-1.8,1.7-3.7,2.5-5.6c0.2-0.5,0.4-1,0.6-1.4
				c0.2-0.5,0.5-1,0.7-1.4c0.5-1,0.9-1.9,1.4-2.9c0.9-2,1.8-3.9,2.8-5.9c1-2,2-3.9,3-5.9c0.5-1,1-2,1.5-3c0.5-1,1-2,1.6-3
				c1.1-2,2.2-3.9,3.3-5.9l1.7-2.9c0.6-1,1.2-1.9,1.8-2.8c1.2-1.9,2.4-3.8,3.6-5.6c0.4-0.6,0.8-1.2,1.2-1.8c0.4-0.6,0.9-1.2,1.3-1.8
				c0.8-1.2,1.7-2.3,2.5-3.5c0.8-1.2,1.7-2.3,2.5-3.5c0.9-1.1,1.8-2.2,2.6-3.3c1.8-2.2,3.5-4.4,5.3-6.5c1.8-2.1,3.7-4.1,5.5-6.2
				c7.5-8.1,15.2-15.9,23.8-23.2c1.3-1.1,2.6-2.3,3.9-3.4c1.4-1.1,2.7-2.2,4.1-3.3c1.4-1.1,2.8-2.2,4.2-3.3c1.5-1.1,3-2.1,4.5-3.2
				c1.5-1.1,3.1-2.2,4.7-3.3c1.6-1.1,3.4-2.1,5.1-3.3c1.8-1.1,3.6-2.2,5.4-3.4c1.9-1.1,3.9-2.2,6-3.3c4-2.4,8.4-4.4,12.8-6.6
				c2.2-1.1,4.5-2.1,6.8-3.1c2.3-1,4.6-2.1,7-3c2.4-0.9,4.8-1.8,7.2-2.7c1.2-0.5,2.4-0.9,3.7-1.4c1.2-0.4,2.5-0.8,3.7-1.2
				c2.5-0.8,5-1.6,7.5-2.4c2.6-0.7,5.1-1.4,7.7-2.1c20.7-5.5,42.8-8.1,64.1-7.5c9.1,0.3,17.9,1.1,26.4,2.3c2.1,0.3,4.2,0.7,6.3,1
				c2.1,0.4,4.2,0.8,6.2,1.2c2.1,0.4,4.1,0.9,6.1,1.3c2,0.5,4,0.9,5.9,1.4c5,1.3,10.3,2.5,16.1,4.4c1.8,0.6,3.9,1.3,6.3,2.2
				c2.3,0.9,4.9,1.9,7.6,3c5.4,2.3,11.5,4.9,17.4,7.9c1.5,0.7,3,1.5,4.4,2.2c1.5,0.8,2.9,1.6,4.3,2.3c2.9,1.5,5.6,3.2,8.2,4.7
				c1.3,0.7,2.6,1.5,3.8,2.3c1.2,0.7,2.4,1.5,3.5,2.1c1.1,0.7,2.2,1.3,3.2,2c1,0.6,1.9,1.2,2.8,1.8c1.5,1.2,3.5,2.8,5.7,4.5
				c1.1,0.9,2.3,1.8,3.6,2.8c1.2,1,2.5,2.1,3.9,3.2c0.7,0.5,1.4,1.1,2,1.7c0.7,0.6,1.4,1.2,2.1,1.8c1.4,1.2,2.8,2.4,4.2,3.6
				c1.4,1.3,2.8,2.5,4.2,3.8c0.7,0.6,1.4,1.3,2.1,1.9c0.7,0.7,1.3,1.3,2,2c1.3,1.3,2.7,2.6,3.9,3.8c1.2,1.3,2.4,2.6,3.6,3.8
				c0.6,0.6,1.1,1.2,1.7,1.8c0.5,0.6,1.1,1.2,1.6,1.8c1,1.2,2,2.3,2.8,3.3c0.4,0.5,0.9,1,1.3,1.5c0.4,0.5,0.7,1,1.1,1.4
				c0.7,0.9,1.3,1.7,1.8,2.4c1,1.4,1.6,2.4,1.7,2.9c0.2,1.2-2.6-1.7-6.7-6.4C515.2,265.2,509.5,258.9,503.9,253.3"/>
		</g>
	</g>
</g>
<g>
	<g>
		<g>
			<g>
				<path class="st0" d="M424.7,436.8h-49c2,2.1,3.8,4.4,5.3,6.8c5.9,9.1,8.9,19,8.9,29.5c0,7.2-1,13.6-2.9,19.1
					c-1.9,5.5-4.9,10.3-8.8,14.4c-4,4.1-9.1,7.3-15.5,9.5c-6.4,2.2-13.9,3.4-22.4,3.4c-11.4,0-21.4-2.2-30-6.5
					c-8.6-4.3-16.1-10.2-22.6-17.5c-6.8-7.8-12.3-16.2-16.5-25.2c-4.2-9-7.8-19.1-10.9-30.2h-15.1l2.6,90.3h14.9l8-13.6
					c8.6,5.2,18.7,9.6,30.5,13.3c11.8,3.7,23.5,5.5,35.3,5.5c25.5,0,46.9-7.6,64.1-22.7c17.2-15.1,25.8-34.3,25.8-57.6
					C426.6,448.6,426,442.4,424.7,436.8z M318.6,362.5c-10.1-4.8-17.8-11-23.1-18.4c-5.3-7.5-8-16.9-8-28.4
					c0-10.9,4.2-20.1,12.5-27.7c8.3-7.6,18.3-11.3,30.1-11.3c11.2,0,20.6,2.1,28.3,6.4c7.7,4.3,14.2,10,19.5,17.2
					c5.5,7.4,9.9,15.7,13.3,24.9c3.4,9.2,6.5,18.8,9.2,28.8h15.1l-1.5-87.6h-14.9l-7.6,12.6c-7.9-5-16.7-9.3-26.3-13
					c-9.6-3.7-20.5-5.6-32.6-5.6c-10.7,0-20.9,1.8-30.7,5.5c-9.8,3.7-18.3,8.7-25.5,15.1c-7.6,6.8-13.4,14.6-17.5,23.2
					c-4.1,8.7-6.1,18-6.1,28.1c0,11.4,1.8,21.5,5.3,30.1H318.6z"/>
			</g>
		</g>
	</g>
	<g>
		<g>
			<g>
				<g>
					<rect x="210" y="362.5" class="st0" width="234" height="4.2"/>
				</g>
			</g>
		</g>
		<g>
			<g>
				<g>
					<rect x="210" y="432.8" class="st0" width="234" height="4.2"/>
				</g>
			</g>
		</g>
	</g>
</g>
</svg>

