<?xml version="1.0" encoding="utf-8"?>
<!-- Generator: Adobe Illustrator 23.0.5, SVG Export Plug-In . SVG Version: 6.00 Build 0)  -->
<svg version="1.1" xmlns="http://www.w3.org/2000/svg" xmlns:xlink="http://www.w3.org/1999/xlink" x="0px" y="0px"
	 viewBox="0 0 720 720" style="enable-background:new 0 0 720 720;" xml:space="preserve" width="500" height="500">
<style type="text/css">
	.st0{fill:#050002;}
	.st1{fill-rule:evenodd;clip-rule:evenodd;fill:#050002;}
	.st2{fill-rule:evenodd;clip-rule:evenodd;}
	.st3{fill:#221F1F;}
	.st4{fill:#231F20;}
	.st5{fill:#070808;}
	.st6{fill:#211E1F;}
	.st7{fill:#161616;}
	.st8{fill:#131313;}
	.st9{fill:#21201F;}
	.st10{fill:#2C2929;}
</style>
<g>
	<g>
		<path class="st0" d="M589.8,358.4c-3.5-27.3-10.8-52-21.6-74.1c-16.2-32.8-38.5-59.3-66.9-79.6c-21-15.2-45.5-27.4-73.8-36.4
			c-28.2-9-56.9-13.5-86.1-13.5H129.7v24.3c5.9,0.5,13,1.5,21.2,3.1c8.2,1.6,15.8,4.1,22.9,7.5c7.7,3.6,12.9,8.5,15.5,14.7
			c2.6,6.1,3.9,13.1,3.9,20.8v133.2h-25.5v7.7h429.9v-7.7H589.8z M265.9,358.4V184.2c5.7-0.2,14.4-0.5,26.1-0.8
			c11.7-0.4,22.3-0.5,31.6-0.5c28,0,53.4,5.4,76.3,16c22.9,10.7,42.2,25.4,57.9,44c16.6,19.6,29.3,42.5,37.9,68.8
			c4.8,14.6,8.3,30.2,10.4,46.7H265.9z"/>
	</g>
	<g>
		<path class="st0" d="M167.7,495.3h25.5v79.6c0,8.2-1.5,15.2-4.6,21s-8,10.2-14.9,13.1c-3.4,1.6-10.4,3-21,4.3
			c-10.6,1.3-19.2,1.9-25.8,1.9v24.3h200.8c33.2,0,65.5-4.8,96.7-14.3c31.2-9.6,59.3-24,84.4-43.4c24.8-19.3,45-44.2,60.4-74.4
			c2-3.9,3.9-7.9,5.6-12h22.8v-7.7H167.7V495.3z M265.9,495.3h230.8c-6.5,21.8-16.1,41.2-28.6,58.2c-13.4,18.2-31,32.4-52.6,42.7
			c-21.6,10.2-46.9,15.4-75.8,15.4c-25,0-43.6-4-55.7-12c-12.1-8-18.1-22.3-18.1-43V495.3z"/>
	</g>
</g>
</svg>


