<?xml version="1.0" encoding="utf-8"?>
<!-- Generator: Adobe Illustrator 23.0.5, SVG Export Plug-In . SVG Version: 6.00 Build 0)  -->
<svg version="1.1" xmlns="http://www.w3.org/2000/svg" xmlns:xlink="http://www.w3.org/1999/xlink" x="0px" y="0px"
	 viewBox="0 0 720 720" style="enable-background:new 0 0 720 720;" xml:space="preserve" width="500" height="500">
<style type="text/css">
	.st0{fill:#050002;}
	.st1{fill-rule:evenodd;clip-rule:evenodd;fill:#050002;}
	.st2{fill-rule:evenodd;clip-rule:evenodd;}
	.st3{fill:#221F1F;}
	.st4{fill:#231F20;}
	.st5{fill:#070808;}
	.st6{fill:#211E1F;}
	.st7{fill:#161616;}
	.st8{fill:#131313;}
	.st9{fill:#21201F;}
	.st10{fill:#2C2929;}
</style>
<g>
	<path class="st0" d="M612,328.1c-12.3-29.3-29.8-55.7-52.2-78.3c-22.4-22.6-48.4-40.4-77.5-52.8c-30-12.8-62-19.4-94.9-19.4
		c-32.9,0-64.8,6.5-94.9,19.4c-29,12.4-55.1,30.2-77.5,52.8c-7.1,7.2-13.7,14.7-19.8,22.6c1.4-6.9,1.7-14.5-0.6-22.1
		c-1.9-6.3-6.9-14.5-14.7-16.9c-2.2-0.7-3.8-0.1-4.8,0.6c-1.5,1-2.4,2.7-2.7,4.8c-1.3,10.5,2.8,20.1,6.7,29.3l0.1,0.2
		c1.3,3,2.5,6,3.6,9c0.6,1.8,1.1,3.3,1.5,4.9c0.4,1.4,0.7,2.8,0.9,4.2c-4.8,7.1-9.2,14.6-13.2,22.2c0.2-7-0.8-14.6-4.4-21.6
		c-2.9-5.9-9.3-13.1-17.4-14.1c-2.3-0.3-3.8,0.6-4.6,1.4c-1.3,1.2-1.9,3.1-1.8,5.2c0.6,10.6,6.2,19.3,11.6,27.7
		c1.8,2.7,3.6,5.5,5.2,8.4c1,1.7,1.7,3.2,2.4,4.5c0.6,1.4,1.2,2.7,1.6,4c-0.6,1.4-1.3,2.9-1.9,4.3c-2.7,6.5-5.1,13.1-7.3,19.7
		c-1-6.9-3.3-14.2-8-20.5c-3.9-5.3-11.4-11.2-19.6-10.8c-2.3,0.1-3.6,1.2-4.3,2.2c-1.1,1.4-1.4,3.4-0.9,5.5
		c2.4,10.3,9.4,17.9,16.2,25.2c2.2,2.4,4.5,4.8,6.5,7.3c1.2,1.5,2.2,2.8,3.1,4c0.9,1.2,1.6,2.4,2.3,3.6c-2.1,8.4-3.7,16.9-4.9,25.4
		c-2.2-6.7-5.7-13.4-11.4-18.8c-4.8-4.5-13.2-9.1-21.1-7.2c-2.3,0.5-3.3,1.9-3.8,2.9c-0.8,1.6-0.8,3.6,0,5.5
		c4.1,9.8,12.3,16,20.3,22c2.6,2,5.2,4,7.6,6c1.5,1.3,2.7,2.4,3.7,3.4c1.1,1.1,2,2.1,2.9,3.2c-0.4,5.7-0.6,11.4-0.6,17.2
		c0,2.9,0.1,5.8,0.2,8.8c-3.3-6.2-7.9-12.3-14.5-16.6c-5.5-3.6-14.5-6.6-22-3.4c-2.1,0.9-3,2.4-3.3,3.5c-0.5,1.7-0.2,3.6,1,5.4
		c5.7,8.9,14.9,13.6,23.7,18.1l0.1,0.1c2.8,1.5,5.8,3,8.5,4.6c1.6,1,3,1.8,4.3,2.7c1.2,0.8,2.3,1.7,3.4,2.6c0.9,8.6,2.2,17.1,4,25.5
		c-4.3-5.5-9.9-10.6-17.1-13.7c-6-2.6-15.4-4-22.3,0.5c-1.9,1.3-2.5,2.9-2.6,4c-0.2,1.8,0.5,3.6,1.9,5.2c7.2,7.8,17,10.8,26.5,13.7
		c3.4,1,6.4,2,9.3,3c1.7,0.6,3.2,1.3,4.7,1.9c1.3,0.6,2.6,1.3,3.7,1.9c2.3,8.3,5.1,16.4,8.3,24.4c-5.2-4.7-11.5-8.7-19.2-10.5
		c-6.3-1.5-15.9-1.2-21.9,4.4c-1.7,1.6-2,3.3-1.9,4.4c0.1,1.8,1.1,3.5,2.8,4.8c8.4,6.4,18.6,7.6,28.4,8.8c3,0.4,6.4,0.8,9.7,1.4
		c1.9,0.4,3.5,0.7,4.9,1.1c1.4,0.4,2.8,0.8,4,1.3c3.8,7.8,7.9,15.3,12.4,22.6c-5.9-3.7-12.9-6.6-20.7-7c-6.5-0.3-15.8,1.6-20.8,8.2
		c-1.4,1.9-1.4,3.6-1.1,4.7c0.4,1.7,1.7,3.2,3.5,4.2c9.4,4.8,19.6,4.2,29.5,3.7c3.2-0.2,6.6-0.4,9.7-0.3c1.9,0,3.6,0.1,5,0.2
		c1.5,0.1,2.9,0.3,4.2,0.5c5,7,10.4,13.7,16.2,20.1c-6.5-2.7-13.9-4.3-21.7-3.3c-6.5,0.8-15.3,4.3-19,11.7c-1,2.1-0.7,3.8-0.3,4.8
		c0.7,1.7,2.2,2.9,4.2,3.5c3.2,1,6.6,1.5,10.3,1.5c6.6,0,13.1-1.5,19.4-3c3.1-0.7,6.4-1.5,9.5-2.1c1.9-0.3,3.5-0.6,5-0.7
		c1.5-0.1,2.9-0.2,4.3-0.2c6.2,6,12.6,11.7,19.3,17c-6.8-1.5-14.4-1.8-21.9,0.6c-6.2,1.9-14.4,7-16.7,14.9c-0.7,2.2-0.1,3.8,0.5,4.8
		c1,1.5,2.7,2.5,4.8,2.7c1.3,0.2,2.6,0.2,4,0.2c8.8,0,17-3.5,25-7c3-1.3,6-2.6,9-3.7c1.8-0.6,3.4-1.2,4.8-1.6c1.4-0.4,2.8-0.7,4.1-1
		c7.1,4.8,14.4,9.3,21.9,13.3c-7-0.2-14.4,0.8-21.4,4.4c-5.8,3-12.9,9.4-13.9,17.6c-0.3,2.3,0.6,3.8,1.4,4.6
		c1.1,1.2,2.8,1.9,4.7,1.9l0.5,0c10.5-0.6,19.1-6.2,27.4-11.7c2.6-1.7,5.5-3.6,8.3-5.2c1.6-1,3.1-1.7,4.5-2.4
		c1.3-0.6,2.6-1.2,3.9-1.7c1.4,0.6,2.9,1.3,4.3,1.9c6.4,2.8,13,5.2,19.6,7.4c-6.9,1-14,3.3-20.3,8.1c-5.2,4-11.1,11.5-10.7,19.8
		c0.1,2.3,1.2,3.6,2.1,4.3c1,0.7,2.2,1.1,3.6,1.1c0.6,0,1.2-0.1,1.8-0.2c10.2-2.4,17.7-9.5,25-16.3c2.4-2.2,4.8-4.5,7.2-6.6
		c1.5-1.2,2.7-2.2,4-3.1c1.2-0.9,2.4-1.6,3.5-2.3c8.3,2.1,16.7,3.7,25.2,4.9c-6.6,2.2-13.3,5.7-18.7,11.5c-4.4,4.8-9,13.3-7.1,21.3
		c0.5,2.3,1.8,3.4,2.9,3.9c0.8,0.4,1.6,0.6,2.6,0.6c0.9,0,1.9-0.2,2.9-0.6c9.7-4.1,15.8-12.4,21.8-20.5c1.9-2.6,3.9-5.3,6-7.7
		c1.3-1.6,2.4-2.8,3.4-3.8c1-1.1,2.1-2,3.1-3c5.6,0.4,11.3,0.6,17,0.6c32.9,0,64.8-6.5,94.9-19.4c29-12.4,55.1-30.2,77.5-52.8
		c22.4-22.6,39.9-48.9,52.2-78.3c12.7-30.4,19.1-62.6,19.1-95.9C631.1,390.7,624.7,358.4,612,328.1z M363,670.3
		c-0.8,0.9-1.7,1.9-2.6,3c-2.2,2.6-4.3,5.5-6.2,8c-5.6,7.5-11.3,15.3-19.9,19c-0.8,0.3-1.3,0.3-1.6,0.2c-0.2-0.1-0.4-0.5-0.4-0.8
		c-1.4-5.9,2-12.8,6-17.1C344.1,676.4,352.6,672.2,363,670.3z M321.1,662.3c-1,0.7-2,1.6-3.1,2.5c-2.6,2.2-5.2,4.6-7.5,6.8
		c-6.8,6.4-13.8,13.1-22.8,15.2c-0.8,0.2-1.3,0.1-1.6-0.1c-0.2-0.2-0.3-0.6-0.3-0.9c-0.3-6,4.2-12.3,8.8-15.8
		C301.3,665,310.4,662.3,321.1,662.3C321,662.3,321,662.3,321.1,662.3z M281.1,647c-1.1,0.5-2.2,1.2-3.5,1.9
		c-2.9,1.6-5.7,3.5-8.5,5.4c-7.8,5.1-15.8,10.5-25.1,10.9c-0.8,0-1.3-0.2-1.5-0.4c-0.2-0.2-0.2-0.5-0.2-0.9c0.7-6,6.3-11.3,11.4-14
		c5-2.6,10.9-3.9,17.6-3.9C274.5,646.1,277.8,646.4,281.1,647z M244.4,625c-1.2,0.4-2.4,0.8-3.8,1.3c-3,1.1-6.1,2.4-9,3.7l-0.3,0.1
		c-8.6,3.7-17.4,7.5-26.6,6.4c-0.8-0.1-1.3-0.4-1.4-0.6c-0.2-0.2-0.1-0.6,0-0.9c1.7-5.8,8.1-10.1,13.6-11.8c3.2-1,6.6-1.5,10.2-1.5
		C232.7,621.7,238.4,622.8,244.4,625z M212,596.8c-1.2,0.1-2.5,0.3-3.9,0.6c-3.2,0.5-6.5,1.3-9.7,2.1l-0.2,0.1
		c-9,2.1-18.4,4.3-27.2,1.6c-0.8-0.3-1.2-0.6-1.3-0.9c-0.1-0.3,0-0.6,0.2-0.9c2.7-5.4,9.7-8.5,15.5-9.2c1.3-0.2,2.6-0.2,3.9-0.2
		C196.5,589.9,204.3,592.3,212,596.8z M143,558.5c3.5-4.7,10.6-6.4,15.5-6.4c0.4,0,0.8,0,1.2,0c8.4,0.5,17.1,4.3,25.2,11.2
		c-1.2-0.1-2.5-0.1-3.9-0.1c-3.3,0-6.7,0.2-10,0.4c-9.3,0.5-18.9,1.1-27.1-3.2c-0.6-0.3-1.1-0.7-1.1-1.1
		C142.7,559.1,142.8,558.8,143,558.5z M164.1,525.8c-1.2-0.3-2.5-0.5-3.9-0.8c-3.2-0.6-6.4-1-9.6-1.4l-0.4,0
		c-9.2-1.1-18.8-2.3-26.1-7.9c-0.7-0.5-0.9-1-0.9-1.3c0-0.3,0.2-0.6,0.4-0.8c2.7-2.5,6.9-3.9,11.9-3.9c1.9,0,3.9,0.2,5.7,0.6
		C149.4,512.2,157.3,517.5,164.1,525.8z M150,485c-1.1-0.5-2.3-1-3.7-1.5c-3-1.1-6.2-2.1-9.2-3l-0.3-0.1
		c-8.9-2.7-18.1-5.5-24.4-12.4c-0.6-0.6-0.7-1.2-0.7-1.4c0-0.3,0.3-0.5,0.6-0.7c2.2-1.4,5-2.2,8.3-2.2c3.2,0,6.6,0.7,9.7,2
		C137.9,469.1,144.7,475.7,150,485z M108.5,417.6c0.1-0.3,0.4-0.5,0.7-0.6c1.5-0.7,3.3-1,5.2-1c4,0,8.7,1.5,12.5,4
		c7,4.6,12.6,12.4,16.2,22.4c-1-0.7-2.1-1.4-3.4-2.1c-2.8-1.7-5.8-3.2-8.7-4.7l-0.2-0.1c-8.3-4.2-16.9-8.6-21.9-16.5
		C108.5,418.4,108.4,417.8,108.5,417.6z M143.6,399.3c-0.9-0.8-1.9-1.7-2.9-2.6c-2.6-2.2-5.4-4.4-7.9-6.3
		c-7.4-5.6-15.2-11.5-18.8-20.1c-0.3-0.8-0.3-1.3-0.2-1.6c0.1-0.2,0.5-0.4,0.8-0.4c0.8-0.2,1.8-0.3,2.7-0.3c5.5,0,11.1,3.4,14.2,6.4
		C137.6,380.1,141.8,388.7,143.6,399.3z M151.6,356.8c-0.7-1-1.5-2-2.4-3.1c-2.2-2.6-4.6-5.2-6.7-7.5c-6.4-6.9-13-13.9-15-23.1
		c-0.2-0.8-0.1-1.4,0.1-1.6c0.2-0.2,0.6-0.3,0.8-0.3c0.2,0,0.4,0,0.6,0c5.8,0,11.7,4.5,15,8.9C149,336.9,151.6,346.1,151.6,356.8z
		 M166.7,316.5c-0.5-1.1-1.2-2.2-1.9-3.5c-1.6-2.9-3.5-5.8-5.3-8.6c-5.1-7.9-10.4-16-10.8-25.4c0-0.8,0.2-1.4,0.4-1.6
		c0.1-0.1,0.4-0.2,0.6-0.2c0.1,0,0.2,0,0.3,0c5.9,0.7,11.2,6.3,13.8,11.5C167.5,296.4,168.5,305.9,166.7,316.5z M187.3,275.6
		c-1.1-3.1-2.4-6.2-3.7-9.1l-0.1-0.3c-3.7-8.6-7.5-17.6-6.3-26.9c0.1-0.8,0.4-1.3,0.6-1.5c0.1,0,0.2-0.1,0.4-0.1
		c0.1,0,0.3,0,0.5,0.1c5.7,1.8,10,8.2,11.7,13.8c2.4,8.1,1.8,17.7-1.8,27.7C188.2,278.2,187.7,276.9,187.3,275.6z M340.9,625.9
		c0.2-0.4,0.4-0.6,0.6-0.6c0.1,0,0.1,0,0.2,0c0.4,0,0.9,0.2,1.3,0.6c7.4,5.6,11.1,14.6,14.7,23.3c1.2,2.9,2.6,6.2,4.1,9.3
		c0.6,1.3,1.2,2.4,1.8,3.5c-9.7-4.3-16.9-10.5-21-17.9C339.9,638.9,338.2,631.3,340.9,625.9z M371.1,664.9c-0.9-1.3-1.9-2.7-2.7-4.2
		c-0.8-1.3-1.6-2.8-2.4-4.5c-1.4-2.9-2.7-6-4-9c-3.9-9.2-7.8-18.8-16.2-25.2c-1.7-1.3-3.6-1.8-5.3-1.4c-1.1,0.3-2.7,1-3.7,3.1
		c-3.7,7.4-1.4,16.7,1.8,22.5c4.4,7.9,11.1,13.4,17.8,17.3c-9-1.2-17.8-2.9-26.5-5.1c-0.7-1.4-1.4-3-2-4.6c-0.5-1.4-1-3-1.6-4.9
		c-0.9-3.1-1.6-6.4-2.4-9.6c-2.2-9.8-4.5-19.9-11.6-27.6c-1.4-1.6-3.2-2.4-5-2.3c-1.1,0.1-2.8,0.5-4.2,2.4
		c-4.9,6.6-4.2,16.2-2.1,22.4c2.9,8.6,8.6,15.2,14.6,20.1c-8.6-2.7-17.1-6-25.2-9.7c-0.5-1.6-0.8-3.2-1.1-4.8
		c-0.3-1.5-0.5-3.2-0.7-5.1c-0.4-3.3-0.5-6.8-0.7-9.8c-0.5-10-1-20.4-6.7-29.3c-1.2-1.8-2.8-2.9-4.5-3.1c-1.1-0.1-2.8,0-4.5,1.6
		c-6,5.6-6.9,15.2-5.9,21.7c1.4,8.9,5.8,16.3,10.8,22.2c-8-4.2-15.7-8.8-23.1-13.9c-0.2-1.6-0.3-3.2-0.3-4.9c0-1.5,0-3.2,0.2-5.1
		c0.2-3.2,0.6-6.6,1-9.8c1.2-9.9,2.5-20.2-1.6-30c-0.8-2-2.2-3.3-3.9-3.9c-1.1-0.3-2.8-0.5-4.7,0.8c-6.9,4.5-9.4,13.8-9.5,20.4
		c-0.1,8.9,2.8,17,6.7,23.7c-7.1-5.5-13.8-11.4-20.2-17.6c0.1-1.6,0.3-3.2,0.6-4.8c0.3-1.5,0.6-3.1,1-5c0.8-3.2,1.8-6.5,2.7-9.5
		c2.9-9.6,5.9-19.5,3.6-29.8c-0.5-2.1-1.6-3.7-3.2-4.5c-1-0.5-2.7-1-4.8,0c-7.5,3.2-11.7,11.9-12.9,18.4c-1.7,8.8-0.1,17.2,2.6,24.5
		c-6-6.6-11.7-13.6-16.9-20.9c0.4-1.5,0.8-3.1,1.4-4.7c0.5-1.4,1.1-3,1.9-4.7c1.3-2.9,2.8-5.9,4.3-8.9c4.5-8.9,9.2-18.1,8.7-28.7
		c-0.1-2.1-1-3.9-2.4-5c-0.9-0.7-2.5-1.4-4.7-0.9c-8,1.8-13.5,9.7-15.9,15.8c-3.2,8.4-3.1,17-1.7,24.7c-4.8-7.6-9.2-15.5-13.1-23.6
		c0.6-1.5,1.4-2.9,2.2-4.4c0.7-1.3,1.6-2.7,2.7-4.3c1.7-2.6,3.7-5.2,5.5-7.7l0.2-0.3c6-8,12.2-16.3,13.5-26.8c0.3-2.1-0.3-4-1.5-5.3
		c-0.8-0.8-2.2-1.8-4.5-1.7c-8.2,0.4-15,7.2-18.3,12.8c-4.6,7.7-6,16.3-5.9,24.1c-3.4-8.3-6.4-16.9-8.9-25.6c0.9-1.3,1.9-2.7,3-4
		c0.9-1.1,2-2.4,3.4-3.8c2.2-2.4,4.8-4.8,7-6.9c7.3-6.8,14.8-13.9,17.9-24c0.6-2,0.4-4-0.5-5.5c-0.6-1-1.8-2.2-4.1-2.5
		c-8.1-1-16,4.4-20.3,9.4c-5.9,6.8-8.7,15.1-9.9,22.8c-1.9-8.8-3.4-17.7-4.4-26.9c1.1-1.2,2.3-2.3,3.6-3.5c1.2-1,2.5-2.1,4-3.2
		c2.6-1.9,5.4-3.7,8.1-5.5c8.3-5.4,17-11.1,21.7-20.5c1-1.9,1.1-3.9,0.4-5.5c-0.4-1.1-1.4-2.5-3.6-3.1c-7.8-2.4-16.5,1.6-21.6,5.7
		c-6.9,5.7-11.1,13.3-13.7,20.7c-0.2-3.5-0.2-7.1-0.2-10.7c0-5.6,0.2-11.1,0.6-16.5c1.3-0.9,2.6-1.9,4.1-2.8
		c1.3-0.8,2.8-1.6,4.5-2.4c2.8-1.4,5.8-2.7,8.8-4l0.1-0.1c9.1-3.9,18.6-7.9,24.9-16.4c1.3-1.7,1.8-3.6,1.4-5.4c-0.3-1.1-1-2.7-3-3.7
		c-7.3-3.8-16.5-1.4-22.2,1.8c-7.8,4.4-13.3,11.1-17.1,18c1.2-9.1,2.9-18,5-26.8c1.4-0.7,2.9-1.4,4.6-2c1.4-0.5,2.9-1,4.8-1.6
		c3-0.9,6.3-1.7,9.5-2.4c9.7-2.2,19.7-4.5,27.3-11.8c1.5-1.5,2.3-3.2,2.3-5c-0.1-1.1-0.5-2.8-2.4-4.2c-6.5-5-16-4.3-22.2-2.1
		c-8.5,3-15,8.7-19.9,14.7c2.7-8.7,5.9-17.2,9.6-25.5c1.5-0.5,3.1-0.8,4.8-1.2c1.5-0.3,3.1-0.5,5-0.7c3.3-0.4,6.8-0.5,9.7-0.7
		c9.9-0.5,20.2-1,29-6.8c1.8-1.2,2.9-2.8,3.1-4.6c0.1-1.1,0-2.9-1.6-4.6c-5.6-6.1-15.1-7-21.5-6c-8.8,1.4-16.2,5.8-22,10.9
		c4.2-8.1,8.8-15.9,13.8-23.3c1.6-0.2,3.2-0.3,4.8-0.3c1.5,0,3.1,0,5,0.2c3.2,0.2,6.5,0.6,9.7,1c4.7,0.6,9.6,1.2,14.5,1.2
		c5.8,0,10.8-0.9,15.2-2.8c2-0.8,3.3-2.2,3.8-4c0.3-1.1,0.5-2.8-0.8-4.8c-4.5-7-13.6-9.5-20.1-9.7c-8.8-0.1-16.8,2.9-23.4,6.8
		c43.7-57.4,112.4-94.5,189.5-94.5c131.8,0,239.1,108.4,239.1,241.6S519.3,665.5,387.5,665.5C382,665.5,376.5,665.3,371.1,664.9z
		 M307,614.7c0.2-0.2,0.4-0.5,0.7-0.5h0.1c0.3,0,0.8,0.2,1.3,0.8c6.3,6.8,8.5,16.3,10.5,25.5c0.7,3.2,1.5,6.6,2.4,9.8
		c0.4,1.4,0.8,2.7,1.2,3.8c-8.8-6-14.9-13.3-17.6-21.3C303.7,627.2,303.4,619.5,307,614.7z M275.4,597.7c0.3-0.3,0.5-0.4,0.7-0.4
		l0.1,0c0.3,0,0.7,0.3,1.2,1c5,7.9,5.5,17.6,6,27c0.2,3.3,0.3,6.8,0.7,10.1c0.2,1.5,0.3,2.8,0.5,4c-7.6-7.4-12.4-15.7-13.7-24.1
		C270,609.4,271,601.8,275.4,597.7z M247.2,575.4c0.3-0.2,0.5-0.3,0.7-0.3c0.1,0,0.1,0,0.1,0c0.3,0.1,0.7,0.5,1,1.2
		c3.6,8.6,2.4,18.3,1.3,27.6c-0.4,3.3-0.8,6.7-1,10.1c-0.1,1.4-0.1,2.7-0.2,4c-6.2-8.6-9.5-17.7-9.3-26.1
		C239.9,586,242.2,578.6,247.2,575.4z M213.2,563.4c1.1-5.7,4.7-12.6,10.2-15c0.2-0.1,0.4-0.1,0.6-0.1c0.1,0,0.2,0,0.3,0.1
		c0.2,0.1,0.6,0.6,0.8,1.4c2.1,9.1-0.8,18.4-3.5,27.4c-0.9,3-2,6.5-2.8,9.8c-0.3,1.4-0.6,2.7-0.8,3.9
		C213.2,581.2,211.6,571.7,213.2,563.4z M197.7,545.7c-1.5,3-3,6-4.4,9.1c-0.6,1.3-1.1,2.5-1.5,3.7c-2.9-10.3-2.9-19.9,0.1-27.8
		c2.1-5.5,6.8-11.6,12.6-12.9c0.2,0,0.3-0.1,0.5-0.1c0.2,0,0.3,0,0.4,0.1c0.2,0.2,0.5,0.7,0.5,1.5
		C206.3,528.7,201.9,537.3,197.7,545.7z M176.5,494.8c3-5,8.6-10.2,14.6-10.5c0,0,0.1,0,0.1,0c0.3,0,0.6,0.1,0.7,0.2
		c0.2,0.3,0.4,0.9,0.3,1.6c-1.1,9.3-6.9,17-12.6,24.5c-2,2.7-4.1,5.4-5.9,8.2c-0.8,1.2-1.5,2.3-2.1,3.4
		C170.5,511.5,172.2,502,176.5,494.8z M160.7,479.8c-1,1-1.9,2-2.6,2.9c0.7-10.7,4-19.7,9.5-26.1c3.1-3.6,8.9-7.9,14.8-7.9
		c0.5,0,0.9,0,1.4,0.1c0.4,0.1,0.7,0.2,0.8,0.4c0.2,0.2,0.2,0.8,0,1.6c-2.7,8.9-9.8,15.6-16.6,22C165.5,475,163,477.4,160.7,479.8z
		 M164.6,394c-2.9,1.2-6.1,2.6-9.2,4.1c-1.3,0.6-2.4,1.3-3.5,1.8c4.3-9.8,10.4-17.1,17.7-21.2c3.6-2,7.8-3.1,11.5-3.1
		c2.4,0,4.6,0.5,6.3,1.4c0.3,0.1,0.6,0.3,0.6,0.6c0.1,0.4-0.1,0.9-0.5,1.5C182.1,386.5,173.2,390.3,164.6,394z M151.4,441.6
		c2.5-10.4,7.3-18.7,13.8-24c3.2-2.6,8.4-5.4,13.6-5.4c1.3,0,2.5,0.2,3.6,0.5c0.3,0.1,0.6,0.2,0.7,0.5c0.1,0.3,0,1-0.3,1.6
		c-4.2,8.3-12.3,13.6-20.1,18.7l-0.1,0.1c-2.7,1.8-5.6,3.6-8.2,5.6C153.4,440,152.4,440.8,151.4,441.6z M180.8,341.2
		c2.6-0.9,5.5-1.4,8.2-1.4c2.7,0,6.6,0.5,9.7,2.8c0.2,0.2,0.5,0.4,0.5,0.7c0,0.3-0.2,0.8-0.8,1.4c-6.8,6.4-16.2,8.5-25.3,10.6
		c-3.2,0.7-6.5,1.5-9.7,2.5c-1.4,0.4-2.6,0.8-3.8,1.2C165.6,350.1,172.9,343.9,180.8,341.2z M202.1,305.8c5.7,0,10.6,1.8,13.4,4.8
		c0.2,0.2,0.4,0.5,0.4,0.8c0,0.4-0.4,0.8-1,1.2c-7.8,5.1-17.4,5.6-26.7,6c-3.3,0.2-6.7,0.3-10,0.7c-1.4,0.2-2.7,0.3-3.9,0.5
		c7.3-7.7,15.6-12.5,23.9-13.8C199.4,305.9,200.8,305.8,202.1,305.8z M237.9,283.1c-0.1,0.3-0.4,0.7-1.2,1
		c-8.5,3.7-18.1,2.4-27.3,1.3c-3.3-0.4-6.6-0.8-10-1.1c-1.4-0.1-2.7-0.1-3.9-0.2c8.6-6.3,17.5-9.6,25.9-9.4
		c5.8,0.1,13.1,2.5,16.3,7.5C237.8,282.5,237.9,282.8,237.9,283.1z"/>
</g>
<g>
	<g>
		<g>
			<path class="st0" d="M524.5,527.9c-4.7-0.9-8-1.8-9.9-2.9c-3.5-1.9-5.9-4-7.1-6.5c-1.2-2.5-1.9-5.5-1.9-9.1v-49.9h16.3V456h-242
				v3.5h19.8v19.1c0,14-0.7,24-2,30c-1.3,6-3.8,10.4-7.4,13.3c-2.8,2.3-6.7,4-11.8,5.1c-5.1,1.1-10,1.9-14.6,2.3v11h88.6v-11
				c-2.2-0.1-6.8-1.1-13.9-3.1c-7.1-2-11.8-4-14.1-6.2c-3.3-2.9-5.8-7.6-7.4-14.2c-1.6-6.6-2.4-16.2-2.4-28.9v-17.4h44.5l28.9,77.3
				h7.7l30.9-77.3H473v49.9c0,3.8-0.8,7-2.2,9.5c-1.5,2.5-3.8,4.8-7,6.7c-2.1,1.1-5.9,2-11.4,2.6c-5.5,0.6-10,1-13.5,1.1v11h97v-11
				C533.1,529.2,529.3,528.8,524.5,527.9z M403,485.6l-10-26.1h20.1L403,485.6z"/>
		</g>
	</g>
	<g>
		<g>
			<path class="st0" d="M290.8,340.3c2.9,2.6,5.1,5.9,6.7,10.1c1.6,4.1,2.3,9.4,2.3,15.9v31.2h-19.8v3.5h242v-3.5h-16.3v-46.4
				c0-3.4,0.6-6.5,1.9-9.4c1.2-2.9,3.6-5,7.1-6.2c2.1-0.7,5.3-1.5,9.8-2.3c4.5-0.8,8.2-1.3,11.1-1.4v-11h-71.6
				c-0.1,1.9-0.9,5.5-2.2,11.1c-1.4,5.5-3.1,10.8-5,15.9l-19.4,49.8h-67.9l-29.3-76.7h-74.8v11c4.5,0.2,9.1,1,13.8,2.3
				C283.7,335.5,287.6,337.5,290.8,340.3z M470.7,349.8h2.3v47.8h-21.4L470.7,349.8z M314.8,345.9h2l19.3,51.6h-21.3V345.9z"/>
		</g>
	</g>
</g>
</svg>


