<?xml version="1.0" encoding="utf-8"?>
<!-- Generator: Adobe Illustrator 23.0.5, SVG Export Plug-In . SVG Version: 6.00 Build 0)  -->
<svg height="500" width="500" version="1.1" xmlns="http://www.w3.org/2000/svg" xmlns:xlink="http://www.w3.org/1999/xlink" x="0px" y="0px"
	 viewBox="0 0 720 720" style="enable-background:new 0 0 720 720;" xml:space="preserve">
<style type="text/css">
	.st0{fill:#050002;}
	.st1{fill-rule:evenodd;clip-rule:evenodd;fill:#050002;}
	.st2{fill-rule:evenodd;clip-rule:evenodd;}
	.st3{fill:#221F1F;}
	.st4{fill:#231F20;}
	.st5{fill:#070808;}
	.st6{fill:#211E1F;}
	.st7{fill:#161616;}
	.st8{fill:#131313;}
	.st9{fill:#21201F;}
	.st10{fill:#2C2929;}
</style>
<g>
	<g>
		<g>
			<g>
				<path class="st0" d="M204.6,392.3c-0.5-3.1-0.9-5.8-1.3-8.5C202.2,386.7,202,389.6,204.6,392.3z M317.1,469
					c-3-1.1-6.1-1.7-9.3-2C310.6,468.7,313.7,469.5,317.1,469z M296.1,461.7c-2.2-2.2-7-3.9-10-3.6
					C289.5,459.4,292.7,460.7,296.1,461.7z M316.3,466.8c0.1-0.2,0.1-0.4,0.2-0.6c-5.9-1.8-11.8-3.8-18.4-5.4c1.4,1.5,2.5,2.6,4,2.9
					C306.8,464.8,311.6,465.8,316.3,466.8z M249.6,172.3c1.2-7.4,2.3-14.7,2.6-22.2C250.4,157.4,248.7,164.7,249.6,172.3z
					 M233.2,209.6c4.1-3.5,8.6-6.5,11.8-11.5c-3.1,1-5.7,2.1-8.3,3.2c-0.7,0.3-1.1,0.8-1.4,1.5C234.6,205.2,233.9,207.4,233.2,209.6
					z M219.7,354.1c6.3-5.7,12.1-12,17.1-19.1c-1.2-0.4-1.9,0.1-2.7,0.6c-1.1,0.7-2.1,1.6-2.9,2.7c-1.5,2.1-3.2,4-4.9,6
					C223.8,347.3,221.7,350.6,219.7,354.1z M218.6,357.5c6.5-2.1,18-15.2,18.1-20.9C231.3,344.5,224.6,350.7,218.6,357.5z
					 M239.5,221.3c0.5-0.3,1.1-0.6,1.6-1c4.9-3.6,10.3-6.2,16.4-6.8c1.2-0.1,2.4-0.5,3.6-0.9c1.3-0.5,2.8-0.8,4.3-2.1
					c-3.5,0-6.5-0.1-9.5,0c-1,0-2.1,0.4-3,0.8C247.4,213.4,243.3,217.2,239.5,221.3z M264.5,212.6c-4.5,1.8-9.4,2.2-14,3.5
					c-1.1,0.3-2.1,0.8-3.1,1.4c-1.9,1.2-3.7,2.3-5.6,3.6c-0.8,0.5-1.7,0.9-2.5,2.2c3.5-0.5,6.6-1.1,9.4-2.5c3-1.6,6.2-2.9,9.4-4.3
					C260.3,215.5,262.6,214.4,264.5,212.6z M210.5,321.2c1.8-5.6,2.7-11.4,3-17.2c0.3-5.8,1.9-11.6,1.5-17.5
					C212,297.9,209.2,309.3,210.5,321.2z M247.5,176.4c0.4-1.7,0.7-2.9,0.7-4.2c-0.2-7.3,1-14.5,2.6-21.6c0.1-0.5,0.3-1.1-0.1-2.1
					C244.4,157.4,243.8,166.3,247.5,176.4z M155.4,296.8c0.2,0.9,1,1.4,1.6,2c3.3,3.1,6.7,6.1,10.5,8.5c3.5,2.3,6.7,4.9,9.4,8.1
					c1.2,1.3,2.5,2.5,3.8,3.7c0.4,0.4,0.8,0.9,1.6,0.7C179.6,312.7,162.6,298.3,155.4,296.8z M251.2,396.2c0,0.2,0.1,0.5,0.1,0.7
					c0.5,3.6,2.2,6.9,3,10.4c1.7,8.4,6,15.4,11.6,21.7c0.7,0.7,1.4,1.4,2.5,1.6c-3.3-5.6-5.9-11.5-9-17.1
					C256.1,408,254.5,401.7,251.2,396.2z M154.8,298.4c0.2,5.1,19.1,21.4,27.4,23.1c-2.6-1.9-4.6-3.7-6.4-5.8
					c-2.4-2.8-5.1-5.1-8.2-7.1c-3.9-2.5-7.4-5.5-10.8-8.6C156.2,299.5,155.7,298.7,154.8,298.4z M209,216.6c0.4-0.1,0.6-0.1,0.7-0.2
					c0.3-0.4,0.6-0.9,0.8-1.4c1.7-3.3,2.3-6.8,2.1-10.5c-0.1-2.6-0.3-5.1-0.1-7.7c0.3-4.9-1.2-9.6-1.6-14.6
					c-0.5,0.4-0.5,0.7-0.5,1.1c-0.7,6.2-1.2,12.3-1,18.5c0.1,2.5,0,4.9-0.4,7.4C208.8,211.7,209,214.1,209,216.6z M324.2,156.4
					c-6-3.7-23.2-2.7-30.7,1.9c3.8-0.7,7.4-0.4,11-0.1c5.8,0.5,11.6,0.1,17.4-0.8C322.7,157.2,323.7,157.3,324.2,156.4z
					 M211.5,322.4c1.5-0.6,2-1.5,2.5-2.4c1.3-2.2,2.3-4.6,2.6-7.2c1-7.5,1.6-15,1.2-22.5c-0.1-1.4-0.1-2.9-1.1-4.1
					C214.6,298.1,214.8,310.3,211.5,322.4z M173.7,232.1c0.1-3.2-0.1-6.3-1.1-9.2c-2.1-6-4.2-12-7.2-17.6c-1.4-2.6-3.3-4.9-5.4-7
					c-0.3,0.5-0.2,0.7-0.1,0.9c3.6,10.2,9.1,19.7,11.9,30.3c0,0.2,0.1,0.3,0.2,0.5C172.4,230.8,172.5,231.7,173.7,232.1z
					 M253.1,396.4c3,9.7,13.1,30.2,15.9,32.2c0.4-2.1-0.1-4-0.9-5.9c-1.3-2.8-2.6-5.6-3.7-8.5c-1.7-4.2-3.9-8.1-6.3-12
					C256.7,400.2,255.2,398.3,253.1,396.4z M240.4,453.1c-1.2-1.1-2.4-1.3-3.4-1.7c-2.7-0.9-5.4-1.8-8.1-2.7
					c-3.7-1.1-7.3-1.1-10.9,0.5c-2.5,1.1-5.1,1.8-7.9,2.3c-2,0.4-4.1,0.6-6,1.8c3.6-0.1,7.1-0.2,10.7-0.7c4.8-0.7,9.5-0.8,14.2,0
					C232.7,453.3,236.3,453.7,240.4,453.1z M181.8,398c2.7,1.6,5.5,2.9,8,4.7c6.1,4.5,12.6,8.5,19,12.6c2.8,1.8,5.7,3.3,8.6,4.7
					c0.4,0.2,0.8,0.7,1.3,0.2c-5.7-7.3-12.9-12.5-21.5-15.9c-2.3-0.9-4.5-2.1-6.6-3.3C187.9,399.4,185,398.4,181.8,398z
					 M172.9,295.7c1-1,1.3-2.1,1.5-3.2c0.7-3.9,1.4-7.8,2-11.8c0.3-2.3,0.5-4.6,0.2-6.9c-1-6.2-2.1-12.4-2.7-18.6
					c0-0.3-0.2-0.5-0.3-0.8c-0.7,0.9-0.7,1.9-0.7,2.8c-0.1,3.4-0.3,6.7-0.7,10c-0.3,2.6-0.3,5.1,0,7.7c0.5,3.9,0.7,7.7,0.2,11.6
					C172,289.5,172.3,292.5,172.9,295.7z M276.4,138.7c-1.8,5.8-3.5,11.5-5.3,17.3c-1.8,5.9-4.7,11.3-7.4,16.8
					c0.9,0.4,1.3-0.1,1.7-0.3c2.2-1.5,4.1-3.3,5.3-5.5c2.8-5.2,5.9-10.3,6.1-16.5C276.9,146.6,276.8,142.7,276.4,138.7z
					 M209.3,181.6c-6.6,8.2-8.3,25-1.5,33.7C208.3,204,208.8,192.9,209.3,181.6z M312,178c-2.3,0.5-4.5,1.1-6.8,1.5
					c-2.3,0.4-4.7,0.7-7.1,0.9c-2.3,0.3-4.6,0.6-6.8,1.2c-2.2,0.7-4.4,1.4-6.5,2.1c-2.3,0.7-4.6,1.4-6.8,2.2c-2,0.8-4.3,0.9-6.6,2.3
					c6.6,0.6,11.3,0.2,16.9-1.5c3.3-1,6.6-1.9,10-2.5c3.9-0.7,7.7-2,11.1-4.1C310.4,179.6,311.4,179.2,312,178z M143.5,325.3
					c0.4,1.2,1.4,1.9,2.2,2.7c8,8,16,16,23.1,24.9c1.2,1.5,2.6,2.7,4,4c0-1.5-0.4-2.6-0.8-3.8c-1.5-4.9-4.2-8.9-8.2-12.1
					c-3-2.3-5.8-5-8.4-7.8c-2.4-2.6-5.1-4.9-8.1-6.8C146.2,325.8,145.1,325,143.5,325.3z M271.2,187c2.4-0.7,4.9-1.5,7.3-2.2
					c5.5-1.6,10.8-4,16.5-4.9c3.4-0.5,6.8-0.9,10.2-1.4c2.6-0.4,5.2-0.9,7.6-2.2c-2.3-1.3-13.4-1.2-20.7,0.2
					C284.2,178,277.2,181.5,271.2,187z M242.8,184.7c-6.8,4.1-26,24.2-26.9,28c2-1.4,3.9-2.7,5.7-4.1c2.8-2.1,5.5-4.3,8.6-5.7
					c3-1.3,4.8-3.4,6.2-6.3C238.4,192.6,240.4,188.6,242.8,184.7z M201.8,455.4c4.1,1.1,7.7,2,11.2,2.9c1.6,0.4,3.3,0.6,5,0.4
					c3.7-0.3,7.4-0.6,11.1-1c3.2-0.4,6.5-1,9.5-2.1c0.8-0.3,1.7-0.5,2.4-1.5c-2.5,0-4.8,0.2-7,0c-4.9-0.4-9.8-1.7-14.8-1.1
					c-4.6,0.6-9.1,1-13.7,1.4C204.5,454.4,203.3,454.2,201.8,455.4z M156.8,196.5c-0.4,7.3,1.1,14.1,3.4,20.4
					c2.1,5.7,5.8,10.8,11,14.8C169.2,223.7,159.2,198.9,156.8,196.5z M262.2,173.3c5.1-8.4,13.5-31.9,12.9-36.1
					c-0.3,0.2-0.6,0.4-0.9,0.6c-0.6,0.7-1.2,1.3-1.7,2c-6.1,9.3-10.3,19.3-10.8,30.7C261.7,171.4,261.5,172.4,262.2,173.3z
					 M254.3,466.4c0.6,0.3,0.8,0.5,1.1,0.6c4.9,1,9.7,2.6,14.5,4.2c1.5,0.5,3.1,0.8,4.7,0.9c5.5,0.4,10.9,0.6,16.3,1.7
					c1.9,0.4,4,0.5,5.9,0.2c0.2-0.8-0.3-1-0.6-1.3c-2.5-1.8-5.2-2.9-8.2-3.4c-2.4-0.4-5-0.2-7.4-0.9
					C272.1,465.9,263.5,466,254.3,466.4z M322.9,158.5c-0.2-0.1-0.4-0.1-0.6-0.1c-0.4,0-0.9,0.1-1.3,0.2c-6.2,0.8-12.5,1.3-18.8,0.5
					c-1.9-0.2-3.9-0.3-5.8-0.1c-3.5,0.3-6.9,1.3-10,3.3c0.5,1.4,1.6,2,2.8,2.4c2.8,1.1,5.6,1.5,8.6,0.9c3.2-0.7,6.4-1.2,9.7-1.5
					c4.7-0.3,9.2-1.7,13.3-4C321.6,159.6,322.5,159.4,322.9,158.5z M228.4,421.8c0.3-0.8,0-1.2-0.1-1.6c-1.1-3.7-2.4-7.4-3-11.3
					c-0.8-5.2-1.5-10.5-2.1-15.8c-0.6-5.4-1.5-10.7-2.7-15.9c-0.1-0.6-0.1-1.3-0.9-1.6c-0.4,2.7-1.1,5.2-1.8,7.8
					c-0.9,3.2-1,6.5-0.1,9.7c1.4,5.3,2.9,10.6,4.5,15.8C223.6,413.4,225.6,417.6,228.4,421.8z M179.5,398.1c0.5,2.9,2,5.1,3.9,7
					c4.9,4.8,10.5,8.6,16.9,11.3c2.5,1.1,5.1,2.1,7.6,3.2c3.7,1.6,7.6,2.8,12.2,2.7c-1.7-0.8-3-1.4-4.2-2
					c-8.5-4.3-16.5-9.6-24.3-15.2C187.8,402.3,183.6,400.3,179.5,398.1z M171.6,295.7c0-6.2,0-12.1,0-18c0-0.4,0-0.7-0.1-1.1
					c-0.6-3.9-0.4-7.7,0-11.6c0.4-3.9,0.8-7.7,0.6-11.6c0-0.4,0.2-1.1-0.8-1.1c-0.2,0.7-0.5,1.5-0.6,2.2c-0.5,3.5-1.8,6.8-3.1,10.1
					c-3.5,9.1-3.3,18.1,0.5,27.1C168.8,293.4,169.7,294.8,171.6,295.7z M253,467.7c0,0.6,0.4,0.7,0.7,0.8c4.7,1.7,8.8,4.5,12.4,8
					c3.2,3.1,7.2,4,11.5,3.4c4.2-0.6,8.4-1.3,12.5-2.1c2-0.4,3.9-1,5.5-2.4c-2.2-0.3-4.4-0.3-6.5-0.8c-3.1-0.7-6.3-1.1-9.4-1.1
					c-4.7-0.1-9.3-0.8-13.7-2.6c-3-1.2-6.2-1.9-9.4-2.7C255.4,467.8,254.2,467.6,253,467.7z M231.6,425.8c1.2-7.3,0.9-14.1-1-20.7
					c-1.2-4.1-1.9-8.3-2.6-12.4c-1.1-5.7-2.6-11.2-4.8-16.5c-0.6-1.4-1.2-2.9-2.5-4.1c-0.2,1.1,0,2,0.2,2.8
					c2.5,9.1,3.3,18.4,4.4,27.7c0.7,6.6,2.4,12.8,4.4,19.1C230.1,423,230.5,424.3,231.6,425.8z M142.1,325.8c0,1.1-0.2,1.8,0,2.4
					c1.5,4.3,2.7,8.9,6.2,12.2c3.5,3.4,6.8,6.9,10.3,10.3c3.8,3.7,8.5,5.7,13.7,7.6C162.6,346.8,153.1,336,142.1,325.8z
					 M259.5,174.2c-3.7,2.2-7.9,3.6-11.3,6.3c-0.6,0.5-1.3,0.9-1.7,1.6c-3.3,5-6.3,10.2-8.9,15.6c-0.2,0.4-0.6,0.9-0.1,1.6
					c2.7-1,5.3-2.1,8.1-3c1.4-0.4,2.4-1.1,3.1-2.3c2.3-3.9,5.2-7.4,8-10.9c1.5-1.9,2.4-4.1,3.5-6.2
					C260.7,175.9,260.2,175.1,259.5,174.2z M188.7,359.9c-0.5-9,0-17.6,1.1-26.1c0.4-3.5-0.6-5.9-3.1-8.1c-0.3-0.2-0.5-0.5-0.7-0.8
					c-0.5-0.6-1.1-0.8-1.9-0.8c-2.3,0.1-4.3-0.8-6.3-1.8c-1.1-0.6-2.1-1.2-3.5-1.9C177.9,334.1,182.5,347,188.7,359.9z M196.9,247.7
					c1.3-2,2.4-4.1,3.8-6c1.5-2,3-4,4.7-5.7c7-7.2,14.2-14.1,21.8-20.7c1.8-1.6,3.2-3.3,4-5.5c0.6-1.7,1.2-3.3,1.8-5
					c0.2-0.5,0.6-1.1,0-1.7c-0.3,0.1-0.5,0.2-0.7,0.3c-8.2,4.9-16.1,10.3-22.9,17.1c-0.5,0.5-0.9,1.1-1.2,1.7
					c-3.6,7.2-7.4,14.3-10.2,21.9C197.6,245.3,196.9,246.4,196.9,247.7z M191.7,331.9c-0.3,0.8-0.4,1-0.4,1.2
					c-0.7,6.9-1.3,13.7-1.5,20.6c-0.1,5.1,0.4,10.2,2,14.9c2,6,5.1,11.6,9.2,17.1c0.2-3.4,1.7-6.1,2.1-9.1c0.4-3.4,0.6-6.9,1-10.3
					c0.1-1.6,0.6-3.2,0.4-4.7c-0.5-3.6-1-7.2-2-10.7C200.4,343.8,195.9,338.3,191.7,331.9z M194.8,381.5c-3.6-7.9-5.6-16.2-8.8-24.2
					c-0.8-2-1.4-4-2.4-5.9c-4.3-8.1-6.4-17-9.2-25.7c-0.7-2.1-0.8-4.6-1.9-6.3c-1.2-1.7-3.4-2.7-5.2-4c-4.8-3.4-8.5-7.8-12.3-12.1
					c-1.4-1.6-2.5-3.5-2.5-5.7c-0.1-2.8,1.2-3.8,3.8-2.8c4.5,1.9,8.6,4.6,12.5,7.5c0.6,0.5,1.2,1,2.1,1.7c0.6-1.9,0.2-3.8,0.2-5.5
					c0-0.6-0.7-1-1.2-1.4c-2-1.6-3.1-3.8-4-6.2c-2.7-6.8-2.8-13.8-1.7-20.9c0.3-1.8,0.8-3.4,1.5-5.1c1.5-3.6,2.8-7.3,3.5-11.1
					c0.1-0.8,0.4-1.6,0.7-2.3c0.4-1,0.9-2.1,2.1-2.1c1.4-0.1,2,1,2.5,2.1c0.5,1,0.8,2.2,1,3.3c0.4,1.9,0.5,3.9,0.6,5.8
					c0.2,3.3,0.9,6.5,1.6,9.7c0.7,3.2,0.9,6.5,0.4,9.8c-0.6,4.2-1.4,8.4-2.1,12.6c-0.3,1.9-1,3.6-2.3,5c-1,1-1.1,2.1-1.1,3.4
					c0,4.7,0,4.7,3.4,8c1.5,1.4,2.9,2.9,4.3,4.4c1.3,1.4,2.4,3.1,3.2,4.9c0.4,1.1,0.8,2.2,1.2,3.2c0.1,0.2,0.2,0.3,0.4,0.4
					c1.6,1.5,3.2,2.9,5.2,4.7c0.2-2.9,0.5-5.4,0.6-7.9c0.2-5.5,0-11-0.8-16.4c-0.2-1.5-0.2-3-0.2-4.5c0-7,0-14,0.1-21
					c0-3-0.2-5.8-1.1-8.7c-1.4-4.5-2.6-9-4.5-13.3c-1.3-2.8-2.7-5.6-4.5-8.1c-2.2-2.9-3.9-6.1-5.3-9.5c-0.5-1.2-0.9-2.1-2.4-2.5
					c-1.4-0.4-2.6-1.6-3.6-2.7c-5.7-6.1-10.4-12.7-11.8-21.3c-0.6-3.4-1.6-6.7-1.6-10.2c0-1.1,0-2.3,0.2-3.4
					c0.4-2.6,1.8-3.2,3.9-1.6c3.3,2.5,5.7,5.8,7.8,9.3c0.2,0.4,0.4,0.8,0.6,1.2c2.5,6,5.4,12,7,18.3c0.8,3.2,1,6.5,0.7,9.8
					c-0.1,0.7,0,1.2,0.3,1.8c1.4,3.1,2.8,6.3,4.9,9.1c4,5.3,6.5,11.3,8.4,17.7c0.4,1.4,0.7,2.8,1.8,4.7c0.6-3.2,1.2-5.8,1.6-8.5
					c1.6-9.2,5.3-17.6,9.2-26c1.9-4.2,4.1-8.3,6.2-12.3c0.5-0.9,0.3-1.3-0.2-2.1c-3.2-5.1-5.4-10.4-5.4-16.6c0-7,1.7-13.5,5.1-19.6
					c0.5-0.9,1-1.9,1.8-2.6c1.1-0.9,2.1-0.8,2.9,0.4c0.7,1,0.9,2.1,1,3.3c0.2,2.2,0.6,4.4,1,6.6c0.4,2.1,0.6,4.2,0.4,6.3
					c-0.2,1.9-0.1,3.9,0.1,5.8c0.3,3.2,0.4,6.5,0,9.8c0.6-0.8,1.2-1.7,1.9-2.5c6.7-8.1,13.9-15.6,21.6-22.7c2-1.8,4.2-3.5,6.6-5
					c0.9-0.6,1.6-1.4,2-2.4c0.2-0.6,0.3-1.1,0-1.7c-3.6-8.9-3.7-17.7,0.9-26.4c0.7-1.3,1.4-2.5,2.4-3.5c0.8-0.8,1.7-1.7,3-1.2
					c1.3,0.5,1.6,1.6,1.6,2.8c0.1,1.3,0.1,2.7,0,4c-0.6,5.6-1.3,11.3-2,16.9c-0.3,2.7-1.3,4.9-3.4,8.2c1.1-0.6,2.1-1.2,3.2-1.8
					c2.3-1.2,4.6-2.2,6.8-3.6c0.8-0.5,1.1-1,1.2-1.9c0-1.4,0.2-2.8,0.3-4.2c0.8-9.4,4.9-17.6,9.4-25.7c0.9-1.5,2-3,3.2-4.2
					c1.1-1.1,2.3-2.3,3.9-1.7c1.8,0.6,1.9,2.4,2,4c0.1,1.7,0,3.4,0,5.1c0,3,0.1,6-0.4,9c-0.3,2.3-1,4.5-2,6.6c-1,1.9-1.9,3.9-2.6,6
					c0.7,0.4,1.1-0.1,1.6-0.3c2.2-1,4.4-2,6.7-2.6c1.2-0.3,2.3-0.6,2.9-1.9c0.4-0.9,1.5-1.4,2.5-1.9c6.6-3.5,13.5-6,21.1-6.5
					c4.8-0.3,9.3,0.1,13.9,1.1c1.1,0.3,2.2,0.6,3.1,1.4c1.1,0.9,1.3,2,0.5,3.3c-0.8,1.2-1.9,2.1-3.2,2.8c-4.6,2.6-9.5,4.4-14.8,4.8
					c-3.2,0.2-6.3,0.7-9.5,1.4c-3.3,0.7-6.5,0.5-9.6-0.8c-0.7-0.3-1.6-0.6-2.1-1.1c-1.3-1.7-2.7-1.5-4.4-0.9
					c-2.2,0.8-4.4,1.4-6.5,2.4c-2.5,1.2-4.9,2.4-6.7,4.6c-1.5,1.9-3.6,3.1-5.8,4.1c-1,0.4-1.6,1-1.9,2c-1.4,3.7-3.7,6.8-6.3,9.8
					c-2,2.3-3.8,4.8-5.3,7.8c2.7-0.5,5-1.4,7.3-2.3c1.5-0.6,2.9-1.3,4.4-1.9c2.8-1.2,5.1-2.8,7.5-4.9c7.4-6.4,15.9-10.5,25.7-11.7
					c4.8-0.6,9.7-0.6,14.6-0.7c1.2,0,2.5,0,3.6,0.6c2.3,1.1,2.8,2.8,1.1,4.6c-0.7,0.8-1.6,1.4-2.5,2c-3.8,2.6-8,4.2-12.4,5.1
					c-4.2,0.8-8.3,2-12.3,3.2c-6,1.8-12.1,1.6-18.2,0.9c-0.9-0.1-1.5,0-2.2,0.4c-5.5,2.7-11,5.2-17,6.6c-1,0.2-1.7,0.7-2.4,1.5
					c-5.9,7.2-13.2,13.1-20.1,19.2c-4.4,3.9-8.9,7.8-13.3,12.6c5.2-1.7,10-2.7,14.6-4.6c0.5-0.2,1-0.4,1.5-0.6
					c3.3-1,5.9-2.7,8.4-5.2c3.5-3.6,7.2-7,11.9-9.2c2.7-1.3,5.4-2.1,8.4-2c2.9,0.1,5.8,0,8.8,0.1c0.8,0,1.9,0,2.3,1
					c0.4,1.1-0.1,1.9-0.8,2.6c-0.5,0.5-1.1,0.9-1.7,1.3c-3.1,1.9-6.2,3.7-9.6,5c-2.4,0.9-4.7,2-7,3.2c-3.4,1.8-7.1,3.1-10.9,2.9
					c-3.4-0.2-6.4,0.7-9.4,1.9c-3,1.1-6,2.3-9.1,2.9c-8.2,1.7-14.4,6.2-18.9,13.1c-4.8,7.6-8.7,15.6-9.9,24.7
					c-0.7,5.6-0.8,11.3-0.7,17c0,2.6,0.1,5.1,0.1,7.7c-0.1,4.8,0.1,9.6,0.6,14.3c0.6,7.1,0.9,14.3,0,21.5c-0.1,1.1,0.2,1.9,0.8,2.7
					c1.3,1.8,2.6,3.6,3.7,5.5c3.5,5.8,7.6,11.3,8.3,18.9c1.1-1.7,1-3.1,1.3-4.3c1.5-7.6,2.6-15.2,3.7-22.8c0.1-0.5,0.1-1-0.1-1.6
					c-2.1-5.4-1.4-11-1.3-16.6c0.2-7.1,2.4-13.7,3.6-20.6c0.3-1.8,1-3.6,1.9-5.2c0.5-0.9,1-1.8,2.2-1.7c1.1,0.1,1.6,1.1,2,1.9
					c0.8,1.6,1.3,3.3,1.3,5.1c0.4,8.1,0.1,16.1-1.2,24.1c-0.7,4.2-2.3,8.2-5.9,11c-0.6,0.5-0.8,1.1-0.9,1.8
					c-1.2,10.5-3.2,20.8-5,31.2c-0.6,3.6-0.3,7.2,0.4,11.4c2.2-3.2,5.1-5.3,7.5-7.7c0.4-0.4,0.4-1,0.5-1.5c0.4-1.5,0.9-2.9,1.6-4.2
					c3-4.8,5.9-9.7,9.8-13.9c1.2-1.3,2.3-2.7,3.3-4.1c1.1-1.4,2.3-2.7,3.9-3.5c0.9-0.5,1.9-0.8,3-0.8c1.8,0.1,2.6,0.9,2.5,2.7
					c-0.1,2-0.7,3.9-1.7,5.5c-3.6,5.6-7.7,10.9-12.9,15.1c-0.8,0.7-1.7,1.4-2.6,1.8c-4.4,1.8-7.5,5.3-10.8,8.4
					c-2.4,2.1-3.9,4.8-4.4,8c-0.1,0.8-0.3,1.6-0.7,2.3c-1.3,2.7-1.4,5.4-0.9,8.3c0.5,3.1,0.9,6.1,1.9,9.1c1.5,4.6,3.7,8.8,6.7,12.6
					c1.7,2.1,3.1,4.5,4.7,6.8c1.9,2.8,4.2,5.3,6.8,7.5c0.6-0.7-0.1-1.2-0.3-1.6c-2.6-4.8-4.5-9.8-5.8-15.1
					c-0.9-3.8-2.1-7.5-3.1-11.3c-0.9-3.4-0.7-6.9,0.2-10.2c1-3.6,1.8-7.2,1.9-11c0.1-1.2,0-2.7,1.5-3.1c1.3-0.3,2,1,2.6,1.9
					c2.6,3.9,4.1,8.2,5.4,12.7c1.4,4.7,2.2,9.5,3,14.3c0.6,3.7,1.7,7.2,2.5,10.9c1.1,4.6,1.1,9.3,0.6,14c-0.2,1.3-0.2,2.7-0.1,4
					c0.1,2,1.2,3.5,2.7,4.9c7.1,6.4,15.5,10.9,24,15.1c4.9,2.5,10.1,4.3,14.9,6.9c0.1,0,0.2,0.1,0.2,0.1c4.7,1.1,9.4,2.2,14.2,2.9
					c-2.5-2.3-5-4.7-7.5-7c-4.5-4.1-8.5-8.6-11.4-13.9c-0.4-0.8-0.9-1.4-1.8-1.9c-2.4-1.1-4.2-2.9-5.8-4.9
					c-5.2-6.2-9.1-13-10.7-21.1c-0.7-3.3-2.2-6.4-2.7-9.7c-0.3-1.5-0.8-3.2,0.8-4.1c1.7-1,2.8,0.6,3.8,1.5c2.4,2.2,4.4,4.9,6.1,7.7
					c4,6.4,6.5,13.6,9.7,20.4c1,2.2,0.7,4.5,0.5,6.8c-0.1,1.3,0.2,2.4,0.8,3.5c4.3,8.3,11.2,14.3,18,20.4c3.3,3,7,4.8,11.4,5.9
					c8.3,2,16.4,5,24.5,7.7c1.8,0.6,3.6,1.4,5.7,1.3c0.5,0,1,0.2,1.6,0.3c0.6,0.2,1.3,0.2,1.2,1.1c-0.1,0.8-0.7,1.1-1.5,1.2
					c-1.8,0.1-3.5,0.5-5.3,0.5c-4,0.1-7.9,0.6-11.8,1.7c-3.5,1-7.2,1.1-10.8,1.3c-2.4,0.2-4.6,0.7-6.6,1.8c-3.7,1.9-7.6,3-11.6,3.5
					c-3.6,0.5-7.1,1.4-10.8,1.4c-4,0-7.5-1.3-10.4-3.9c-3.6-3.3-7.6-6.1-12.2-7.9c-1.3-0.5-3.1-1.1-2.8-3c0.3-1.7,2.1-1.8,3.5-1.8
					c8-0.4,16.1-1,24,1.2c2.6,0.7,5.2,1.2,7.8,1.3c5,0.2,9.5,1.9,13.3,5.3c0.9,0.9,1.9,1,3.1,1c5.5-0.3,11-0.7,16.3-2.2
					c0.2-0.1,0.5,0,0.6-0.4c-0.3-0.5-0.7-0.4-1.1-0.3c-5.4,0.3-10-1.7-14.5-4.4c-0.9-0.6-1.8-1-2.9-1.3c-7.9-2.4-15.4-5.7-23-9
					c-1-0.4-2-0.7-3.1-0.8c-7.4-0.4-14.8-1.1-22.3-1.1c-1.2,0-2.3-0.1-3.5-0.1c-2,0-3.9,0.3-5.6,1.7c-2.3,1.9-5.3,2.3-8.2,2.9
					c-5.7,1.3-11.6,1.3-17.4,1.9c-0.8,0.1-1.6,0-2.4-0.2c-4.3-0.7-8.4-2-12.6-3.2c-0.5-0.1-1-0.4-1.5-0.6c-2.3-1.3-2.3-3.1,0.1-4.4
					c2.6-1.4,5.5-2,8.4-2.5c3-0.5,5.9-1.4,8.7-2.5c3.6-1.5,7.3-1.7,10.9-0.5c4.8,1.5,9.7,2.9,14.2,5.3c0.8,0.4,1.6,0.6,2.5,0.6
					c7.9,0,15.8,0,23.6,1c0.8,0.1,1.6,0,2.4,0c0-0.9-0.8-0.9-1.3-1.2c-2.5-1.2-5-2.3-7.5-3.4c-3.3-1.4-6.5-2.9-9.5-4.8
					c-1.7-1.1-3.4-2.2-5.2-3.2c-7.4-4.2-14-9.6-20.5-15c-1.4-1.1-2.7-1.8-4.5-1.7c-5.9,0.2-11.6-1-17-3.7c-1.8-0.9-3.7-1.6-5.6-2.4
					c-6.7-2.8-12.6-6.7-17.8-11.8c-2.3-2.2-3.9-4.8-4.8-7.8c-0.8-2.7,0.2-3.8,2.9-3.2c3.8,0.9,7.6,1.9,10.9,4
					c2.2,1.3,4.5,2.5,6.9,3.4c7.4,3.1,13.9,7.3,19.2,13.5c0.4,0.4,0.7,1,1.7,1.1c-2.4-3.5-4.6-6.9-7-10.2c-2.4-3.4-4.8-6.8-7-10.4
					c-2.7-4.3-6-8.1-9.3-11.9c-3.4-3.9-6.4-8-9.5-12.1c-2.9-3.8-6.1-7.4-9.5-10.7c-0.8-0.8-1.6-1.2-2.7-1.6c-3.1-1-6.2-2.1-9.1-3.6
					c-3.7-1.9-7-4.2-9.7-7.3c-2.1-2.4-4.3-4.7-6.7-6.8c-4.3-3.8-6.2-8.9-7.9-14.2c-0.5-1.7-0.6-3.6,0.8-4.7c1.3-1.1,3.2-0.6,4.8,0.1
					c3.1,1.4,5.7,3.6,8.1,6c3.9,4,7.9,7.8,12.2,11.4c3.3,2.7,5.4,6.4,6.6,10.4c1.5,4.8,3.8,9,7.5,12.6c4.3,4.1,7.5,9.2,11.1,13.9
					C192.8,379.5,193.5,380.8,194.8,381.5z M486.4,371.5c0-0.1-0.1-0.3-0.1-0.4c-0.1,0.2-0.1,0.4-0.1,0.6c0,0.1,0.1,0.2,0.2,0.3
					C486.3,371.8,486.3,371.6,486.4,371.5z M374.3,469.1c3.4,0.4,6.6-0.3,9.5-2.1C380.5,467.3,377.4,467.9,374.3,469.1z
					 M488.1,383.6c-0.4,2.8-0.9,5.7-1.3,9C489.3,389.5,489.4,386.6,488.1,383.6z M395.4,461.6c3.3-1,6.6-2.1,9.6-3.8
					C401.7,458.8,397.9,458.5,395.4,461.6z M373.2,466.9c0.2,0.2,0.3,0.3,0.4,0.2c5.1-1.1,10.2-2.2,15.3-3.3
					c1.7-0.4,2.9-1.4,4.4-3.1C386.2,462.7,379.7,464.5,373.2,466.9z M441.9,172.5c0.7-7.6-0.8-15-2.6-22.4
					C439.5,157.7,440.6,165.1,441.9,172.5z M446.5,198.2c3.2,4.9,7.7,7.9,11.6,11.5c-0.6-2.4-1.3-4.7-2.1-7.1
					c-0.2-0.5-0.5-0.9-1-1.1C452.3,200.4,449.7,199.2,446.5,198.2z M454.5,334.9c3.7,5.9,14.2,17.4,17.1,18.8
					c-3.6-6.3-8.4-11.5-12.9-16.9C457.8,335.7,456.5,334.8,454.5,334.9z M454.5,336.9c-0.1,1.7,0.6,2.9,1.3,3.9
					c2.7,4.2,5.6,8.2,9.2,11.6c1.9,1.8,3.9,3.6,6.3,4.8c0.4,0.2,0.8,0.8,1.4,0c-1.6-2.6-4.3-4.2-6.1-6.6c-1.9-2.5-4.5-4.3-6.4-6.8
					C458.4,341.6,456.8,339.1,454.5,336.9z M426.3,210.7c0.5,0.5,1.1,0.7,1.6,1c1.9,0.9,4,1.6,6.1,1.8c5.8,0.8,11.1,2.9,15.8,6.5
					c0.1,0.1,0.3,0.2,0.5,0.3c0.5,0.2,0.8,0.9,1.6,0.5c-1.6-1.4-3.1-2.7-4.6-4.1C441.3,211.2,434.4,209.3,426.3,210.7z M451.7,222.9
					c-3.1-2.4-6.3-4.6-9.8-6.4c-0.6-0.3-1.3-0.5-2-0.7c-5-1.1-10-1.8-14.7-4c2.7,2.1,5.6,3.6,8.6,4.9c2.9,1.2,5.7,2.4,8.4,3.9
					C445.3,222.1,448.4,222.8,451.7,222.9z M440.5,149.1c0.6,2.9,1.2,5.9,1.7,8.8c0.5,3,0.9,5.9,1.1,8.9c0.3,2.9-0.2,5.9,0.5,9.3
					C447.9,166.8,446.8,155.9,440.5,149.1z M475.9,286.3c0.2,5.9,1.5,11.6,1.9,17.5c0.4,5.9,1.1,11.8,3.1,17.9
					C482.4,311.4,478.7,291.5,475.9,286.3z M509.3,320.1c2.4-1.5,4-3.3,5.6-5.1c2.5-2.9,5.4-5.3,8.6-7.4c3.9-2.5,7.4-5.5,10.7-8.7
					c0.7-0.6,1.5-1.2,1.8-2.2C528.8,298.2,511,313.5,509.3,320.1z M480.9,182.4c-0.2,0.2-0.4,0.4-0.4,0.5c-0.4,3.9-1.6,7.6-1.5,11.5
					c0,3.1,0.2,6.2-0.1,9.3c-0.5,4.1,0.3,7.9,2.1,11.5c0.2,0.5,0.3,1.2,1.5,1.1C481.6,205.1,482.4,193.8,480.9,182.4z M422.9,430.7
					c1.2,0,1.6-0.6,2.1-1.1c5.2-5.5,9.3-11.8,11.4-19.2c1-3.4,1.8-6.8,2.9-10.2c0.5-1.4,1-2.8,0.8-4.8c-2.4,4.2-3.3,8.5-5.2,12.4
					c-1.8,3.8-3.9,7.5-5.7,11.4C427.3,423.1,425.1,426.8,422.9,430.7z M474.5,286.2c-0.7,1.4-0.8,2.8-0.9,4.2
					c-0.4,6.7,0.2,13.4,0.8,20.1c0.3,3.2,1.2,6.3,2.8,9.1c0.5,1,1.1,2,2.2,2.6C479.4,322.1,474.5,286.4,474.5,286.2z M367.3,156.4
					c1.2,0.8,1.2,0.8,2.2,1c5.7,0.9,11.4,1.3,17.1,0.9c3.7-0.3,7.3-0.7,11.3,0C390,153.6,373.1,152.8,367.3,156.4z M536.7,298.3
					c-3.6,3-6.9,6.5-10.9,8.9c-6.3,3.8-10.6,9.6-16.4,14.4C517.3,319.7,534.4,305.4,536.7,298.3z M517.8,232.3
					c1.8-1.7,2.2-3.5,2.7-5.2c1.5-5.4,3.7-10.5,6.1-15.5c1.9-4,3.3-8.2,5-12.3c0.1-0.2,0-0.5,0-1c-2.8,2.9-5.2,5.9-6.7,9.4
					c-1.9,4.5-3.8,9.1-5.6,13.7C518,224.7,517.6,228.2,517.8,232.3z M487.8,453.4c-1.2-0.8-2-1-2.9-1.1c-4.5-0.9-9-1.9-13.3-3.7
					c-2.5-1-5.3-1-7.8-0.2c-3.8,1.1-7.6,2.5-11.3,3.8c-0.4,0.1-0.9,0.1-1,0.7c0.3,0.6,0.9,0.4,1.4,0.4c3.3,0.3,6.5-0.2,9.8-0.7
					c3.6-0.5,7.2-0.9,10.8-0.4C478,452.9,482.6,453.3,487.8,453.4z M438,396.9c-2.3,2.1-4.1,4.6-5.7,7.2c-3.8,6.2-6.1,13.1-9.3,19.6
					c-0.8,1.6-1,3.3-0.6,5.1C425.5,425.9,435.9,404.8,438,396.9z M427.9,173.3c-2.9-6-5.9-11.4-7.6-17.3c-1.8-5.9-3.6-11.7-5.4-17.5
					c-0.3,3.9-0.4,7.8-0.2,11.7c0.4,7.5,3.9,13.8,8.2,19.7c0.3,0.4,0.7,0.8,1.1,1.1C425.1,171.8,426,172.8,427.9,173.3z
					 M472.1,420.5c1.3,0,2-0.6,2.8-1c8.5-4.2,16.3-9.6,24.1-15c2.3-1.6,4.5-3.2,6.9-4.4c1-0.5,2.1-0.9,2.9-2.1
					c-2.7,0.2-5,1.2-7.1,2.4c-3.2,1.8-6.6,3.4-10,4.9c-2.9,1.2-5.5,2.8-8.1,4.5C479.2,412.7,475.8,416.6,472.1,420.5z M518.8,295.9
					c0.2-4,0.4-7.4,0.2-10.9c-0.2-3.1-0.2-6.2,0.2-9.3c0.3-2.4,0.5-4.8,0.3-7.1c-0.5-4.9-0.9-9.8-1.1-15c-0.8,1.1-0.9,2.3-1,3.4
					c-0.4,3.9-0.6,7.8-1.5,11.5c-1.1,4.4-1.4,8.9-0.5,13.4c0.6,3.3,1.1,6.6,1.7,9.9C517.1,293.2,517.3,294.5,518.8,295.9z
					 M481.6,181.1c1.8,11.7,0.7,22.9,2,34.1C490.6,206.5,488.5,189.5,481.6,181.1z M379.3,178c0.3,0.9,1,1.2,1.6,1.6
					c3,2,6.4,3.5,9.9,4.2c5.1,1.1,10.1,2.4,15.1,3.8c4.4,1.2,9,1,13.7,0.8c-0.3-0.9-0.9-0.8-1.3-1c-2.6-0.8-5.2-1.7-7.8-2.4
					c-4.7-1.3-9.1-3.4-14-4.1c-3.2-0.5-6.5-1-9.7-1.3C384.3,179.4,381.9,178.5,379.3,178z M548.2,325.4c-1.8-0.4-2.9,0.3-4,1
					c-2.7,1.7-5.2,3.7-7.4,6c-3.2,3.4-6.6,6.6-10.3,9.6c-4.6,3.7-6.7,8.9-8.3,14.8c2.1-1.3,3.5-2.9,4.8-4.5
					c6.3-7.9,13.3-15.1,20.5-22.2C545.2,328.7,546.6,327.1,548.2,325.4z M378.5,176.3c2.6,1.4,5.2,1.9,7.8,2.3
					c5.9,0.9,11.9,1.2,17.7,3.3c3.5,1.3,7,2.4,10.5,3.5c1.9,0.6,3.8,1.1,5.9,1.6c-0.2-0.4-0.3-0.6-0.4-0.7c-0.2-0.3-0.5-0.5-0.8-0.7
					c-4.9-3.5-10.1-6.5-16-8.1c-7.4-2-15-2-22.6-2.1C379.9,175.3,379.2,175.5,378.5,176.3z M448.7,184.6c2.2,3.8,4.2,7.7,6,11.6
					c1.5,3.3,3.5,5.7,7,7c1.9,0.7,3.5,2.1,5.1,3.2c2.5,1.7,4.9,3.5,7.3,5.2c0.4,0.3,0.8,1,1.8,0.4C467.7,202,459,192.5,448.7,184.6z
					 M489.1,455.1c-0.3-0.5-0.8-0.5-1.2-0.6c-5.4-0.5-10.9-0.9-16.3-1.6c-1.7-0.2-3.6-0.2-5.3,0c-5.2,0.7-10.4,1.6-15.8,1.2
					c3.4,2.3,7.3,2.8,11.2,3.4C471,459.1,480.2,459.3,489.1,455.1z M534.3,196.5c-1.2,1.2-1.6,2.4-2,3.5c-2.5,6.3-5.1,12.6-7.9,18.8
					c-1.8,4-2.8,8.4-4.3,12.9C531,223.6,535.4,207.3,534.3,196.5z M416.1,137.2c3.1,12.5,6.4,24.9,13.3,36.3
					c0.9-7.1-1.1-15.5-6-26.1C421.6,143.6,419.6,139.9,416.1,137.2z M436.7,466.2c-2.9,0-5.7,0.1-8.5,0c-5-0.1-9.9,0.4-14.7,1.6
					c-2.4,0.6-4.8,1.1-7.3,1.2c-3.8,0.2-7.5,1.2-10.7,3.5c-0.4,0.3-1.2,0.5-1,1.5c2.9,0.3,5.8-0.1,8.6-0.6c2.2-0.4,4.3-0.8,6.5-0.9
					c5.7-0.1,11.2-0.8,16.6-2.9c2.8-1.1,5.8-1.6,8.7-2.4C435.5,467,436.2,467.2,436.7,466.2z M404.9,162.3c-0.6-0.7-1.4-1-2.2-1.3
					c-4.1-1.9-8.5-2.5-13-2c-5.2,0.6-10.4,0.6-15.6,0c-1.8-0.2-3.7-0.3-5.5-0.5c3.7,2.7,7.6,4.6,12.1,5.2c4.5,0.6,9,1,13.4,2
					c2.8,0.6,5.6,0.1,8.3-1C403.4,164.1,404.4,163.5,404.9,162.3z M462.6,421.8c2.1-2.7,3.9-5.7,5.1-8.9c2.6-6.8,4.3-13.8,6.1-20.8
					c0.5-1.9,0.6-3.9,0.2-5.8c-0.7-3.5-1.6-6.9-2.4-10.3c0-0.1-0.2-0.1-0.3-0.1c-1.9,6.6-2.7,13.3-3.5,20.1
					c-0.8,6.9-1.4,13.9-3.6,20.6C463.6,418.2,463.2,420,462.6,421.8z M520.1,295.3c1.8-1.1,2.5-1.8,3.3-4.1c1.7-4.8,3.1-9.7,2.6-15
					c-0.4-4-0.7-7.9-2.3-11.6c-1.5-3.3-2.5-6.8-3.1-10.4c-0.1-0.8-0.2-1.6-1.1-2.4c-0.3,4-0.1,7.7,0.2,11.3
					c0.3,3.4,1.1,6.9,0.6,10.3c-1,7.2-0.2,14.5-0.4,21.7C520,295.2,520.1,295.2,520.1,295.3z M511.8,398.2c-3.9,2.2-7.9,4-11.5,6.6
					c-8.6,6.1-17.3,12-26.8,16.5c-0.3,0.2-0.9,0.1-0.7,0.9c2.3,0,4.5-0.3,6.7-1.1c4.9-1.6,9.6-3.6,14.2-5.8
					c5.3-2.5,10.1-5.8,14.3-10C509.7,403.3,511.4,401.1,511.8,398.2z M395.4,475.3c2.1,1.6,4.2,2.2,6.3,2.6c3.9,0.7,7.8,1.4,11.8,2
					c4.4,0.7,8.5-0.2,11.8-3.3c3.7-3.5,7.8-6.3,12.6-8.1c0.2-0.1,0.5-0.1,0.5-0.8c-1.2,0-2.3,0.2-3.5,0.4c-4.2,1-8.3,2.3-12.4,3.7
					c-2.4,0.8-4.8,1.3-7.3,1.3C408.7,473.1,402.4,474.7,395.4,475.3z M459.7,425.9c1-1.3,1.4-2.6,1.8-3.8c3-8.1,4.4-16.5,5.3-25
					c0.7-6.5,1.3-13,3.1-19.3c0.5-1.9,0.8-3.9,1.2-5.8c-1.4,1.2-2.3,2.8-2.9,4.4c-2.1,5-3.5,10.2-4.6,15.5c-0.6,3.1-0.9,6.3-1.8,9.4
					C459.3,409.1,458.4,417.2,459.7,425.9z M519.7,357.6c0.5,0.3,0.9,0.1,1.3-0.1c5.5-2.1,10.5-4.9,14.5-9.5
					c1.3-1.5,2.6-3.1,4.2-4.4c4.7-3.6,7.2-8.6,9.2-14c0.4-1.2,0.6-2.3,0.2-3.8C538.5,335.9,528.9,346.6,519.7,357.6z M431.9,174.2
					c-0.9,1.1-1,1.9-0.5,2.9c1.1,2,1.9,4.2,3.4,6c2.8,3.5,5.7,7,8,10.9c0.4,0.7,0.9,1.6,1.8,1.9c3.2,1.2,6.4,2.3,9.7,3.5
					c0.1-1-0.4-1.6-0.8-2.3c-2.5-5.2-5.4-10.1-8.6-14.9c-0.5-0.7-1.1-1.1-1.7-1.6C439.9,177.9,435.7,176.5,431.9,174.2z M503,359
					c6-12.4,10.5-25.1,13.9-38.4c-0.5,0.1-0.6,0.1-0.6,0.1c-3,1.7-5.9,3.7-9.6,3.4c-0.2,0-0.4,0-0.5,0.1c-1.8,1.4-3.2,3.1-4.5,4.9
					c-0.7,1-0.2,2.2-0.1,3.4c0.1,0.9,0.2,1.8,0.3,2.6c0.4,7.7,1.3,15.4,1,23.1C502.9,358.4,503,358.6,503,359z M457.9,203.2
					c0.8,3.2,1.9,6,3.2,8.7c0.5,1,1.1,1.8,2,2.5c6.7,5.5,12.8,11.7,19,17.7c4.6,4.4,8.7,9,11.6,14.7c0.1,0.2,0.2,0.7,0.6,0.5
					c0.2-0.4,0-0.7-0.1-1.1c-1.9-4.5-3.6-9-5.8-13.4c-1.5-3.1-3.2-6.1-4.7-9.2c-0.7-1.6-1.7-2.9-2.9-4.1
					c-6.2-5.9-13.2-10.7-20.3-15.3C459.8,203.8,459.1,203.2,457.9,203.2z M490.5,385.8c1.5-2.3,2.8-4.2,4-6.2c2.1-3.5,4-7.2,5.2-11
					c1.3-4.2,1.8-8.6,1.9-13.1c0.1-7.4-0.7-14.7-1.3-22c0-0.4,0-0.9-0.9-1c-3.4,5.1-7.3,10.1-9.5,16c-1.9,4.9-3.2,10.1-2.6,15.3
					c0.7,6.5,0.5,13.1,2.8,19.4C490.2,383.8,490.2,384.5,490.5,385.8z M496.9,381.8c2.3-3,4.4-5.7,6.4-8.5c2.8-3.8,5.8-7.4,9.1-10.7
					c1.8-1.8,3.2-4,4.2-6.4c0.6-1.5,1.1-3,1.6-4.5c1.5-4.5,4-8.3,7.7-11.2c3.3-2.7,6.5-5.5,9.4-8.7c2.4-2.6,5.1-4.9,8.1-6.8
					c1.4-0.9,3-1.6,4.7-1.5c1.7,0.1,2.4,0.6,2.6,2.3c0.2,1.2,0.1,2.5-0.3,3.7c-1.9,5.7-4.4,11-9.2,14.9c-1,0.8-1.9,1.6-2.7,2.6
					c-5.5,7.1-12.9,11.2-21.3,13.7c-1.2,0.4-2.1,0.9-2.9,1.7c-3.5,3.4-6.8,7-9.6,11c-4.8,6.8-10.5,12.9-15.6,19.5
					c-1.4,1.8-2.8,3.7-3.9,5.7c-1.5,2.6-3.2,5.1-5.1,7.5c-3.2,4.1-5.5,8.8-9.1,12.6c0.2,0.1,0.3,0.3,0.5,0.4
					c0.8-0.9,1.6-1.8,2.4-2.7c5-5.8,11.2-10,18.2-13c2.8-1.2,5.5-2.5,8.1-4c3.3-2,7-2.9,10.7-3.8c2.7-0.6,3.6,0.5,2.8,3.2
					c-0.9,3-2.6,5.6-4.8,7.8c-4.5,4.5-9.7,8-15.4,10.7c-3.5,1.7-7.1,3.1-10.7,4.6c-4.6,1.9-9.4,2.6-14.3,2.5c-1.7,0-3,0.5-4.3,1.6
					c-6.6,5.6-13.5,10.8-20.9,15.4c-6.6,4-13.5,7.4-20.6,10.5c-0.8,0.3-1.6,0.8-2.4,1.2c-0.1,0.1-0.1,0.3-0.2,0.6
					c1.8,0.4,3.5-0.1,5.2-0.3c6.5-0.7,13.1-0.6,19.6-0.7c1.5,0,2.9-0.2,4.3-0.9c4.4-2.3,9.2-3.6,14-5.1c3.2-1,6.5-0.9,9.7,0.4
					c3.6,1.5,7.4,2.5,11.2,3.1c2.2,0.4,4.3,0.9,6.3,1.9c1,0.5,1.9,1,2,2.3c0,1.4-1,2-2.1,2.5c-0.6,0.3-1.3,0.5-2,0.7
					c-3.3,0.9-6.5,1.7-9.8,2.5c-2.4,0.6-4.9,0.4-7.4,0.2c-5.5-0.5-11-0.8-16.3-2.1c-2.7-0.7-5.3-1.4-7.4-3.4
					c-0.5-0.5-1.1-0.6-1.7-0.6c-1.5-0.1-3-0.1-4.5-0.1c-1.9,0-3.9,0.3-5.8,0.2c-6.2-0.2-12.4,1-18.6,1c-0.8,0-1.5,0.3-2.3,0.6
					c-7.8,3.4-15.6,6.8-23.7,9.2c-0.7,0.2-1.5,0.6-2.1,1c-4.6,2.8-9.4,4.9-15,4.5c-0.2,0-0.5,0.1-1.2,0.3c3,1.1,5.7,1.7,8.4,2
					c3,0.3,6,0.4,9,0.7c1.1,0.1,1.9,0,2.7-0.8c4.2-4,9.4-5.5,15.1-5.7c1.8-0.1,3.5-0.5,5.2-1c4.7-1.2,9.5-1.9,14.5-1.7
					c3.1,0.1,6.2,0.1,9.3,0.2c1.1,0,2.3,0.2,3.4,0.6c1.9,0.6,2.1,2.2,0.6,3.4c-0.7,0.5-1.5,1-2.3,1.3c-4.1,1.6-7.7,3.9-10.9,7
					c-4.4,4.2-9.6,5.4-15.5,4.4c-3.5-0.6-7-1.2-10.5-1.7c-2-0.3-3.8-0.8-5.5-1.8c-3.7-2.1-7.7-2.9-11.9-3c-2.9-0.1-5.8-0.5-8.7-1.3
					c-3.4-0.9-6.8-1.3-10.2-1.4c-2-0.1-4.1-0.4-6.1-0.5c-0.7-0.1-1.2-0.4-1.3-1.1c-0.1-0.9,0.5-1.1,1.1-1.1c3.2-0.3,6.2-1.2,9.2-2.2
					c8.9-3.1,18-6,27.1-8.4c1.1-0.3,2.1-0.8,3-1.5c5.5-4.2,10.5-9,15.2-14c3-3.1,5-6.9,7.1-10.5c0.5-0.8,0.3-1.5,0.1-2.3
					c-0.5-3-0.1-5.8,1.2-8.5c3-5.9,5.1-12.3,8.6-18c1.9-3.2,4.1-6.2,6.9-8.8c0.9-0.9,1.9-2.1,3.5-1.3c1.5,0.8,1.2,2.3,0.9,3.6
					c-2.7,11-5.1,22.1-13.1,30.9c-1.9,2.1-3.8,4.2-6.4,5.5c-0.6,0.3-1,0.7-1.3,1.3c-4.4,8.3-11.4,14.4-18.3,20.5
					c-0.3,0.3-0.8,0.5-0.9,1.1c2.1,0,3.9-0.8,5.9-1.2c2.2-0.5,4.4-1.2,6.7-1.4c0.9-0.1,1.7-0.5,2.5-1c4.1-2.1,8.3-4,12.5-5.8
					c8.4-3.7,16.1-8.5,23.5-13.9c1.3-0.9,2.4-2,3.6-3.1c0.9-0.9,1.2-2.1,1.3-3.4c0.2-2.1,0-4.3-0.2-6.4c-0.5-4.7-0.1-9.4,1.2-13.9
					c1.6-5.8,2.4-11.8,3.7-17.7c1-4.4,2.2-8.8,4-12.9c1-2.3,2.1-4.5,3.7-6.4c1.2-1.4,2.5-1,2.9,0.7c0.3,1,0.4,2.1,0.4,3.2
					c0.1,3,0.8,5.8,1.6,8.6c1.2,4.1,1.4,8.2,0.2,12.3c-1.9,6.3-3.2,12.9-5.7,19.1c-0.8,2.1-1.8,4-2.8,6c-0.3,0.6-0.9,1.1-0.7,2.1
					c2.8-2.4,5.3-5.1,7.3-8.1c2.1-3.1,4.2-6.1,6.4-9.2c4.1-5.8,6-12.3,6.9-19.3c0.4-3,0.3-5.8-1.2-8.5c-0.5-1-0.4-2.1-0.7-3.1
					c-0.8-2.4-2-4.5-3.8-6.3c-2.1-2.1-4.5-3.8-6.4-6c-0.4-0.4-1-0.7-1.6-1c-4-1.7-7.3-4.4-10.3-7.4c-3.1-3.3-5.9-6.9-8.3-10.7
					c-1.2-1.8-1.9-3.8-1.9-6c0-2,0.7-2.7,2.7-2.7c0.9,0,1.7,0.2,2.5,0.6c1.1,0.6,2.1,1.3,2.9,2.3c4.9,5.9,9.9,11.8,13.8,18.5
					c0.8,1.3,1.7,2.6,1.8,4.1c0.2,2,1.4,3.1,2.8,4.3c2,1.7,3.8,3.4,5.4,5.5c0.7-1.9,1.1-6.7,0.9-8.6c-0.5-5.3-1.9-10.5-2.7-15.7
					c-0.9-5.6-1.9-11.2-2.5-16.8c-0.2-1.5-0.6-2.6-1.8-3.7c-3.5-3.2-4.9-7.6-5.5-12.1c-0.8-6.7-1.3-13.4-1.1-20.1
					c0.1-2,0.4-3.9,0.9-5.7c0.2-0.6,0.4-1.2,0.7-1.7c0.4-0.9,0.9-1.8,2.1-1.8c1.1,0,1.5,0.8,2,1.6c0.8,1.3,1.4,2.7,1.7,4.2
					c1,5.7,3,11.1,3.4,16.9c0.5,5.5,1.3,11.1,0.4,16.7c0,0.2,0,0.4-0.1,0.5c-1.8,4.5-0.8,9.1,0,13.6c1,6.3,1.9,12.6,3.4,18.9
					c0.7-0.7,0.7-1.4,0.9-2.2c0.6-3.1,1.6-6,3.2-8.7c2.5-4.3,5.1-8.5,8-12.5c0.9-1.2,1.2-2.4,1.1-3.9c-0.8-8-0.4-15.9,0.4-23.9
					c0.3-2.8,0.4-5.7,0.3-8.5c-0.1-3.6,0-7.3,0-10.9c0.1-6.6,0.1-13.3-1.3-19.8c-0.9-4.3-2.2-8.6-4.3-12.5
					c-1.9-3.5-3.5-7.1-5.9-10.4c-4.3-5.8-9.7-9.8-16.7-11.4c-4.8-1.1-9.3-2.9-13.9-4.6c-1.3-0.5-2.6-0.7-4.1-0.5
					c-3.5,0.4-7-0.3-10.1-1.8c-5.5-2.7-11.3-4.6-16.6-7.8c-1.1-0.7-2.3-1.4-3.4-2.1c-0.8-0.5-1.4-1.1-1.7-2
					c-0.5-1.3-0.1-2.1,1.2-2.3c0.7-0.1,1.4-0.2,2.1-0.2c1.9,0,3.9,0.1,5.8,0c6.7-0.6,12.1,2.4,16.9,6.5c2.7,2.4,5.7,4.5,7.9,7.5
					c0.4,0.6,1,0.7,1.6,0.9c6.4,2.4,12.9,4.7,19.2,6.3c-2-2.1-4.1-4.7-6.5-7c-6.3-5.8-12.8-11.5-19.2-17.2c-2.3-2.1-4.3-4.4-6.3-6.8
					c-0.9-1.1-1.9-1.8-3.2-2.1c-5.6-1.2-10.7-3.6-15.8-6.1c-1.2-0.6-2.3-0.7-3.7-0.6c-5.7,0.5-11.5,0.8-17.1-1
					c-4.6-1.5-9.4-2.6-14.1-3.6c-4-0.9-7.7-2.5-11.1-4.8c-1-0.6-1.9-1.3-2.6-2.3c-1.1-1.6-0.8-3,0.9-4c0.8-0.5,1.6-0.7,2.5-0.7
					c10-0.1,20.1-0.2,29.4,4.3c5.3,2.5,10.5,5.2,14.4,9.8c0.4,0.4,0.8,0.7,1.2,1c4.8,2.3,9.6,4.6,14.7,6c0.3,0.1,0.7,0.2,1.1-0.1
					c-1.1-2.3-2.6-4.4-4.2-6.3c-2.9-3.5-5.7-7-7.4-11.3c-0.3-0.9-1-1.2-1.7-1.6c-2.9-1.3-5.3-3.2-7.3-5.6c-0.5-0.6-1-1-1.6-1.4
					c-3.8-2-7.7-3.5-11.8-4.7c-0.7-0.2-1.1-0.1-1.6,0.4c-3.4,3.4-7.8,3.8-12.1,3c-4.4-0.8-8.8-1.3-13.1-1.9
					c-4.7-0.7-8.8-2.6-12.7-5.1c-1.4-0.9-3-2-2.5-4c0.4-1.8,2.1-2.3,3.7-2.7c12.8-3.1,24.7-0.9,36,5.6c0.5,0.3,1.1,0.5,1.3,0.9
					c1.1,2.2,3.2,2.5,5.2,3.1c1.1,0.4,2.1,0.9,3.2,1.3c1,0.4,2.1,0.9,3.6,1.5c-0.8-1.8-1.2-3.2-1.9-4.5c-2.4-4.1-3.3-8.6-3.3-13.2
					c0-3.3,0-6.6,0.1-9.8c0-1.4,0.3-3,1.8-3.5c1.7-0.6,2.9,0.5,3.9,1.6c2.8,3,4.8,6.6,6.5,10.3c1.4,3.2,2.8,6.5,4.1,9.8
					c1.8,4.3,1.9,9,2.4,13.6c0.1,1.3,0.4,2.1,1.6,2.7c3,1.8,6.4,3,9.6,4.7c-0.3-0.5-0.6-0.9-0.9-1.4c-1.2-2-2.1-4-2.4-6.4
					c-0.6-5.5-1.3-10.9-1.9-16.3c-0.2-1.6-0.1-3.2-0.1-4.8c0-1.1,0.4-2.1,1.6-2.5c1.1-0.4,1.9,0.3,2.6,0.9c1.3,1.1,2.1,2.6,2.9,4.1
					c4.5,8.6,4.3,17.3,0.7,26.1c-0.3,0.7-0.2,1.1,0,1.7c0.4,1,1.1,1.8,2,2.4c5.6,3.7,10.5,8.4,15.1,13.3c3.6,3.8,7.3,7.4,10.7,11.5
					c1.5,1.8,3.1,3.6,4.5,5.6c-1.2-6.1,0-12.1-0.2-18.1c-0.2-4.2,1.1-8.2,1.6-12.3c0.1-0.6,0.4-1.2,0.7-1.7c0.8-1.2,1.9-1.3,2.9-0.3
					c0.3,0.3,0.6,0.6,0.8,1c5.1,8,7.1,16.8,5.5,26.1c-0.7,4.3-2.4,8.3-5.1,11.8c-0.6,0.8-0.4,1.2,0,1.8c3.7,7.3,7.4,14.5,10.5,22
					c2.9,6.9,4.5,14.1,5.9,21.5c0.2,1,0.4,1.9,0.6,3c0.6-0.4,0.7-1,0.9-1.5c0.9-2.8,1.7-5.6,2.7-8.3c1.6-4.3,3.7-8.4,6.5-12.2
					c2.1-2.8,3.5-6,4.9-9.1c0.4-0.8,0.3-1.5,0.3-2.3c-0.2-5.9,0.7-11.6,3.3-17c1.3-2.6,2.1-5.4,3.2-8.1c1.7-4.3,4.4-8.1,7.7-11.4
					c0.4-0.4,0.9-0.9,1.4-1.3c0.9-0.7,1.8-1.7,3.1-1.1c1.2,0.6,1.3,1.8,1.5,3c0.3,2.8-0.1,5.7-0.7,8.4c-0.4,2.3-0.9,4.5-1.5,6.7
					c-2.1,8.4-6.9,15-13.2,20.7c-0.2,0.2-0.4,0.4-0.6,0.5c-2.7,0.6-3.3,2.9-4.2,4.9c-1.2,2.7-2.6,5.2-4.4,7.6c-3.1,4.3-5.2,9-6.8,14
					c-1.3,4.1-2.9,8.2-3.3,12.5c-0.1,0.7-0.2,1.4-0.2,2.1c0.6,6.8-0.4,13.6,0.2,20.5c0.2,2.9-0.1,5.8-0.5,8.7
					c-0.8,6.6-0.5,13.3-0.2,19.9c0,0.6,0.1,1.2,0.5,1.9c1.8-1.6,3.5-3.2,5.2-4.8c0.2-0.2,0.3-0.6,0.4-0.9c1-3.8,3.3-6.8,6.1-9.5
					c1.3-1.3,2.6-2.6,4.1-3.8c1.1-0.9,1.6-2,1.5-3.5c-0.1-0.9,0-1.8,0.1-2.7c0.1-1.4-0.1-2.5-1.2-3.6c-1.5-1.6-2.1-3.7-2.5-5.8
					c-0.6-3.1-1-6.3-1.6-9.4c-0.8-4.6-0.7-9.2,0.5-13.7c1-3.9,1.1-7.9,1.6-11.8c0.2-1.9,0.6-3.8,1.5-5.6c0.5-0.9,1.1-1.7,2.2-1.7
					c1.3,0,1.8,1,2.2,2c0.4,1,0.7,2,0.8,3.1c0.6,3.5,1.9,6.8,3.2,10.1c3.6,9.7,3.1,19.3-1,28.7c-0.6,1.5-1.7,2.7-2.9,3.7
					c-1,0.8-1.4,1.7-1.3,3c0.1,1.3,0,2.6,0,4.3c3.7-3.3,7.6-5.6,11.5-7.8c1.2-0.6,2.3-1.3,3.6-1.7c2.2-0.8,3.6,0.3,3.6,2.7
					c-0.1,2-0.9,3.8-2.2,5.3c-3.4,4-6.7,8-10.9,11.2c-2,1.5-4,3-6,4.4c-0.8,0.5-1.2,1.1-1.5,2.1c-2,6.6-3.9,13.2-6,19.8
					c-1.1,3.4-2.5,6.6-4,9.8c-3.1,6.8-5.6,13.8-7.7,20.9c-0.9,3-2.3,5.9-3.5,8.9C497,380.3,496.6,380.7,496.9,381.8z"/>
			</g>
		</g>
	</g>
</g>
<g>
	<g>
		<g>
			<g>
				<rect x="151.1" y="482" class="st0" width="397.5" height="4.5"/>
			</g>
		</g>
	</g>
</g>
<g>
	<g>
		<g>
			<g>
				<rect x="151.1" y="590.4" class="st0" width="397.5" height="4.5"/>
			</g>
		</g>
	</g>
</g>
<g>
	<path class="st0" d="M323.2,390.5c-0.2-0.1-0.4-0.3-0.7-0.6c-0.2-0.3-0.4-0.6-0.6-0.8c-1.3-3.4-2.6-13.3-3.7-29.7
		c-0.6-8.4-0.9-15-1-19.6c-0.1-4.6-0.1-8.1-0.1-10.3c0-5.5,0.1-11.5,0.3-17.9c0.4-12.8,1-22.8,1.8-30c0-0.2,0-0.4,0.1-0.5
		c0.1-0.6,0.1-1.1,0.1-1.4c0-0.3,0-0.5,0-0.7c0-0.2,0-0.3,0-0.4s0-0.1-0.1-0.1c-0.1-0.1-0.2-0.2-0.4-0.2c-0.2,0-0.6,0-1.2,0.1
		c-0.6,0.1-1.4,0.2-2.4,0.3h-0.1c-9,1.1-19,2.7-30,4.8c-2.2,0.4-3.9,0.7-5.2,0.9c-1.3,0.2-2.3,0.4-3.1,0.4c-0.4,0.1-0.8,0.1-1.2,0.1
		c-0.3,0-0.6,0-0.7-0.1c-0.4-0.1-0.7-0.4-0.8-1c-0.1-0.2-0.1-0.3-0.2-0.5c-0.1-0.2-0.2-0.3-0.3-0.5v-0.1c-0.1-0.1-0.2-0.2-0.3-0.3
		c-0.1-0.1-0.1-0.2-0.2-0.3c-0.1-0.3-0.1-0.6-0.1-0.8c0-0.3,0-0.5,0-0.7l0.1-0.5c0.2-0.8,0.7-1.3,1.4-1.6c0.8-0.2,2.1-0.5,3.7-0.8
		c1.7-0.3,3.4-0.6,5.1-0.9c10.4-1.5,21.5-2.6,33.4-3.2c1.2-0.1,2-0.1,2.5-0.2c0.5-0.1,0.8-0.1,0.9-0.2c0.1-0.1,0.1-0.1,0.2-0.2
		c0.1-0.1,0.1-0.2,0.2-0.4c0.1-0.2,0.2-0.5,0.3-0.8c0.2-0.8,0.5-1.4,0.8-1.7c0.3-0.3,0.6-0.5,1-0.5c0.2,0,0.5,0.1,0.8,0.3
		c0.2,0.2,0.4,0.3,0.6,0.4s0.3,0.1,0.5,0.2c0.1,0,0.4,0,0.7,0c0.3,0,0.6,0,0.8,0c0.2,0,0.4,0.1,0.5,0.1c0.6,0.3,1.1,0.8,1.5,1.5
		c0.1,0.2,0.2,0.3,0.3,0.4c0.1,0.1,0.2,0.2,0.3,0.3c0.1,0.1,0.1,0.1,0.1,0.1c0,0,0.1,0,0.2,0c0.1,0,0.2,0,0.4,0c0.2,0,0.4,0,0.7,0
		c0.3,0,0.7,0,1.2,0c0.5,0,1.1,0,1.7,0c0.7,0,1.5,0,2.4,0c0.3,0,0.6,0,0.8-0.1c3.6,0,7.7,0,12.3,0c4.7,0,8.5,0.1,11.4,0.2
		c8,0.3,13.1,0.7,15.4,1.2c0.4,0.1,0.7,0.2,0.9,0.3c0.2,0.1,0.4,0.2,0.5,0.4c0.1,0.1,0.2,0.2,0.2,0.3c0,0.2-0.2,0.4-0.5,0.6
		c-0.1,0.1-0.1,0.1-0.2,0.1c-0.1,0-0.2,0-0.4,0c-0.2,0-0.5,0-0.8,0c-0.3,0-0.8,0-1.4,0c-0.7,0-1.5,0-2.4,0c-0.9,0-1.7,0-2.4,0
		c-1.7-0.1-3.8-0.1-6.3-0.1h-4.2c-4.5,0-8.6,0.1-12.4,0.3c-1.9,0.1-4,0.2-6.4,0.3c-2.4,0.1-4.5,0.3-6.3,0.4
		c-1.8,0.1-2.9,0.2-3.3,0.3c-0.2,0.1-0.3,0.1-0.3,0.2c-0.1,0.1-0.1,0.3-0.1,0.7c0,0.4,0,0.9,0,1.7c0,1.8-0.1,3.8-0.3,6
		c-0.2,2.2-0.6,5.6-1.2,10.2c-1.5,11.4-2.6,21.7-3.2,30.7c-0.3,4.6-0.6,8.7-0.8,12.4c-0.2,3.6-0.4,7.8-0.6,12.5
		c-0.1,1.5-0.1,3.7-0.1,6.7c0,3,0,6,0,8.9c0,2.9,0,5,0.1,6.2c0.3,6.3,0.7,11,1.2,14c0.1,0.4,0.2,0.9,0.3,1.2
		c0.1,0.4,0.1,0.6,0.1,0.8c0,0.2,0,0.4-0.1,0.6c-0.1,0.2-0.2,0.3-0.4,0.4c-0.1,0.1-0.3,0.1-0.5,0.1
		C323.7,390.7,323.4,390.6,323.2,390.5z"/>
	<path class="st0" d="M347.2,377.3c-0.1,0-0.3,0-0.5-0.1c-0.3-0.1-0.5-0.1-0.7-0.1c-0.6-0.1-1-0.2-1.4-0.3c-0.4-0.1-0.7-0.3-1.1-0.6
		c-0.6-0.4-1-1-1.2-1.7c-0.3-0.7-0.6-2-0.8-3.8c-0.2-1.3-0.3-2.8-0.5-4.5c-0.1-1.8-0.3-4.1-0.5-7.1c-0.1-1.1-0.1-3-0.1-5.7
		c0-2.7,0-5.4,0-8.1c0-2.7,0-4.7,0.1-6.1c0.4-8.8,1.1-16.7,2.2-23.7c0.8-4.8,1.8-9.7,3-14.6c1.9-7.6,4.3-14.1,7.1-19.7
		c2.7-5.4,5.4-8.6,8.2-9.7c0.3-0.1,0.5-0.2,0.8-0.3c0.2-0.1,0.5-0.1,0.8-0.1h0.4c0.3,0,0.6,0,0.8,0.1c0.3,0.1,0.7,0.2,1.1,0.4
		c0.1,0,0.1,0,0.2,0.1c0.1,0.1,0.3,0.1,0.5,0.2c0.2,0.1,0.3,0.2,0.5,0.2c1.3,0.3,2.2,1,2.7,2c0.2,0.4,0.4,0.8,0.5,1.2
		c0.1,0.4,0.1,1,0.1,1.7v0.8c0,2.1-0.3,4.6-1,7.7c-1.5,6.8-3.8,13.8-7,21.2c-3.2,7.4-6.6,13.6-10.2,18.8c-0.6,0.7-1,1.3-1.4,1.8
		c-0.4,0.5-0.9,1-1.4,1.6c-0.3,0.3-0.6,0.6-0.8,0.9c-0.2,0.3-0.4,0.4-0.4,0.5c-0.1,0.2-0.3,1.1-0.4,2.5c-0.2,1.4-0.3,3.2-0.5,5.2
		c-0.2,2-0.4,4-0.5,6c-0.2,3.4-0.3,6.8-0.3,10.3v2.1c0.1,4.2,0.3,7.6,0.6,10.3c0.1,0.6,0.1,1,0.2,1.2c0.1,0.2,0.2,0.3,0.2,0.3h0.1
		c0.1,0,0.2-0.1,0.3-0.3c0.1-0.2,0.3-0.5,0.4-0.8c0.1-0.2,0.3-0.7,0.6-1.5c0.3-1.1,0.8-2.3,1.2-3.7c1-2.9,1.8-5.1,2.3-6.6
		c0.5-1.4,1.2-3,1.9-4.7c1.3-3.3,2.6-6.2,4-8.8c1.4-2.6,2.5-4.4,3.5-5.5c0.6-0.7,1.3-1,2-1c0.3,0,0.7,0.1,1.1,0.3
		c0.4,0.2,0.9,0.3,1.3,0.3c0.7,0.1,1.4,0.2,1.9,0.5c0.6,0.3,1.1,0.7,1.7,1.2c0.5,0.4,0.9,0.9,1.3,1.5c0.4,0.5,0.7,1.2,1,2
		c0.2,0.4,0.4,0.8,0.6,1.2c0.2,0.4,0.4,0.9,0.6,1.6c0.2,0.7,0.6,1.6,1,2.8c0.4,1.1,0.7,1.9,0.9,2.4c0.2,0.6,0.4,1,0.5,1.3
		c0.1,0.3,0.3,0.7,0.5,1.1c0,0.1,0,0.1,0.1,0.3c0.9,1.8,1.9,3.2,2.9,4.2c0.4,0.4,0.8,0.7,1,0.8s0.5,0.1,0.6,0.1c0.3,0,0.6-0.1,1-0.3
		c2.8-0.8,6.2-4.4,10.1-10.6c0.4-0.7,0.9-1.5,1.4-2.3c0.5-0.8,0.9-1.6,1.3-2.3c0.3-0.6,0.6-1.1,0.8-1.5c0.2-0.4,0.4-0.7,0.7-0.9
		c0.4-0.4,0.7-0.7,1-0.7c0.2,0,0.4,0.1,0.6,0.3s0.3,0.4,0.3,0.8c0,0.3-0.1,0.8-0.3,1.3c-0.6,1.6-1.5,3.6-2.8,6.2
		c-1.3,2.6-2.7,4.9-4,6.9c-1.1,1.6-2.1,2.8-2.9,3.7c-0.8,0.9-1.7,1.5-2.5,1.9c-0.3,0.1-0.5,0.2-0.8,0.3c-0.3,0.1-0.4,0.2-0.5,0.3
		c-0.3,0.1-0.6,0.1-0.9,0.1c-0.6,0-1.2-0.1-1.9-0.2c-1.2-0.2-2.3-0.4-3.2-0.8c-2.4-1.1-4.6-3.1-6.7-6.1c-1.3-1.8-2.8-4.9-4.7-9.2
		c-0.3-0.7-0.5-1.2-0.7-1.7c-0.2-0.5-0.4-0.8-0.5-1.1c-0.1-0.3-0.2-0.5-0.3-0.6c-0.1-0.1-0.2-0.2-0.2-0.3c-0.1-0.1-0.1-0.1-0.2-0.1
		h-0.1c-0.1,0-0.2,0-0.3,0.1c-0.2,0.1-0.4,0.3-0.6,0.6c-1.5,1.8-3.2,5-5,9.6c-1.6,3.9-3.3,9.6-5.2,16.8c-0.5,2-0.9,3.5-1.2,4.6
		c-0.3,1.1-0.5,1.9-0.7,2.5c-0.2,0.6-0.4,1-0.6,1.4c-0.6,1-1.3,1.5-2.1,1.5C347.6,377.3,347.4,377.3,347.2,377.3z M348.5,323.7
		c0.4-0.5,1.1-1.6,2.2-3.4c1.1-1.7,2.1-3.4,3.1-5c0.7-1.2,1.5-2.7,2.4-4.5c0.9-1.8,1.7-3.4,2.2-4.6c3.5-7.8,5.9-14.9,7.2-21.3
		c0.2-1.1,0.4-2,0.5-2.7c0.1-0.8,0.2-1.6,0.2-2.4v-0.7c0-2-0.3-3-0.7-3.1c-0.3,0-0.9,0.7-2,2c-2.6,3.2-5.1,8-7.5,14.4
		c-1,2.7-2,5.8-3.1,9.4s-2,7-2.8,10.3c-0.2,0.8-0.4,1.8-0.7,3.2c-0.3,1.3-0.5,2.7-0.8,4c-0.3,1.3-0.4,2.3-0.5,3
		c-0.2,0.7-0.3,1.1-0.3,1.4c0,0.3,0.1,0.4,0.2,0.4C348.1,324,348.2,323.9,348.5,323.7z"/>
	<path class="st0" d="M404.7,371c-0.4-0.1-0.8-0.1-1.1-0.3c-0.4-0.1-0.8-0.3-1.2-0.5c-4.9-2.4-7.9-7.8-8.9-16.2
		c-0.1-0.7-0.1-1.5-0.1-2.5c0-1,0-1.8,0-2.4l0.1-2c0-1.3,0-2.2,0.1-2.9c0.6-4.5,1.4-8.6,2.7-12.2c2.2-6.7,4.9-10.8,8-12.3
		c0.7-0.4,1.4-0.6,2.2-0.6c0.8,0,1.5,0.3,2.2,0.8c0.2,0.1,0.4,0.2,0.6,0.3c0.2,0.1,0.4,0.2,0.7,0.3c0.4,0.2,0.7,0.3,1,0.5
		c0.3,0.1,0.5,0.3,0.7,0.5c0.7,0.7,1.1,1.8,1.1,3.4c0,1.4-0.3,3.1-0.8,5.2c-1.5,5.9-4,10.9-7.4,14.9c-1.1,1.3-2.3,2.3-3.7,2.9
		c-0.3,0.2-0.6,0.3-0.7,0.4c-0.2,0.1-0.3,0.2-0.3,0.3c-0.1,0.1-0.1,0.3-0.2,0.5c-0.1,0.5-0.1,1.1-0.1,1.9v1.3c0,1.4,0.1,2.8,0.3,4.2
		c0.5,3.8,1.5,6.9,3,9.2c0.5,0.7,1,1.3,1.6,1.8c0.6,0.5,1.1,0.8,1.6,0.9c0.8,0,1.8-0.4,3.1-1.3c1.3-0.9,2.5-2,3.7-3.5
		c1.6-2.1,3.6-5.2,5.8-9.4c2.3-4.2,4.3-8.3,6.1-12.2c0.5-1.1,0.9-1.8,1.1-2.2c0.3-0.4,0.5-0.8,0.7-0.9c0.2-0.2,0.4-0.3,0.6-0.3
		c0.1,0,0.2,0.1,0.3,0.2c0.2,0.2,0.3,0.4,0.3,0.7c0,0.2,0,0.4-0.1,0.6c-0.2,0.8-0.8,2.6-1.9,5.2c-1.1,2.6-2.3,5.4-3.7,8.4
		c-1.4,3-2.5,5.5-3.5,7.5c-1,1.9-1.9,3.4-2.7,4.5c-0.8,1.1-1.6,2.1-2.3,2.9c-1.3,1.4-2.7,2.2-4.2,2.5c-0.6,0.1-1.3,0.2-2.2,0.2
		C406.1,371.2,405.3,371.1,404.7,371z M400.9,343c0.2-0.2,0.6-0.6,1-1.2c0.5-0.6,0.9-1.3,1.4-1.9c1.2-1.9,2.3-3.9,3.2-6.2
		c0.9-2.2,1.6-4.2,2-6.1c0.2-0.8,0.3-1.3,0.3-1.7s-0.1-0.5-0.3-0.5c-0.1,0-0.3,0.2-0.6,0.5c-1.2,1.2-2.4,3-3.6,5.4
		c-1.2,2.4-2.2,4.7-3,7.1c-0.7,2.2-1.1,3.7-1.1,4.3l0.1,0.2c0,0.1,0,0.2,0.1,0.2C400.6,343.2,400.8,343.1,400.9,343z"/>
</g>
<g>
	<path class="st0" d="M258.8,698.3c-0.9-0.1-1.7-0.5-2.5-1.1c-1.8-1.5-3.4-4.2-4.7-8.1c-1.3-3.8-2.4-8.6-3.1-14.5
		c-0.5-4.7-0.8-9.5-0.8-14.6c0-4.1,0.2-8.3,0.5-12.5c0.7-8,2.1-15.4,4.3-22.2c1.3-4,2.6-6.9,3.9-8.8c0.3-0.3,0.6-0.7,1-1
		c0.4-0.4,0.7-0.6,1-0.8c0.5-0.4,1.1-0.6,1.7-0.6c0.6,0,1.2,0.2,1.8,0.7c0.2,0.1,0.5,0.3,0.9,0.3c0.4,0.1,0.7,0.2,0.9,0.4
		c0.2,0.1,0.5,0.3,0.7,0.5c0.5,0.5,0.9,1.1,1,1.9c0.1,0.8,0.2,1.5,0.2,2.2c0,0.7-0.1,1.6-0.2,2.6c0,0.4-0.1,0.9-0.1,1.4
		c0,0.5-0.1,1-0.1,1.3c0,0.5,0,0.8-0.1,1c0,0.2-0.1,0.4-0.1,0.5c-0.1,0.1-0.1,0.2-0.2,0.2c-0.1,0-0.2,0.1-0.4,0.1
		c-0.1,0-0.3,0-0.4-0.1c-0.3-0.1-0.5-0.4-0.6-0.7c-0.1-0.1-0.1-0.3-0.1-0.6c0-0.3,0-0.6,0.1-1.1c0.1-0.7,0.1-1.4,0.1-2.1
		c0-1.2-0.1-2.4-0.4-3.4c-0.1-0.5-0.3-0.8-0.4-0.8h-0.1c-0.2,0.1-0.5,0.5-1,1.2c-1.1,1.8-2.1,3.7-2.9,5.7c-1.4,3.1-2.6,6.9-3.7,11.5
		c-1,4-1.8,8.3-2.5,12.7c-0.2,1.3-0.3,2.6-0.5,4.1c-0.1,1.4-0.3,2.7-0.3,3.8c-0.1,1.1-0.1,1.7-0.1,1.9c0,0.1,0.1,0.1,0.1,0.2
		c0,0,0.1,0.1,0.2,0.1c0.1,0,0.3,0,0.5-0.1c0.2,0,0.6-0.1,1-0.2c1.2-0.2,2.1-0.4,2.9-0.6c0.8-0.2,1.5-0.4,2.2-0.7
		c4.1-1.5,7.7-3.8,10.9-7.1c0.3-0.3,0.5-0.5,0.7-0.7c0.2-0.2,0.3-0.3,0.4-0.4c0.1-0.1,0.2-0.1,0.2-0.1c0.1,0,0.1-0.1,0.2-0.1
		c0.1,0,0.1,0,0.2,0.1c0.1,0,0.2,0.1,0.2,0.2c0,0.1,0.1,0.1,0.1,0.2c0,0.5-0.8,1.7-2.5,3.3c-2.8,2.9-5.4,4.9-7.7,6
		c-2.4,1.2-4.9,1.9-7.4,2.2c-0.2,0-0.3,0.1-0.5,0.1c-0.1,0-0.2,0-0.3,0c-0.1,0-0.1,0.1-0.1,0.2c0,0.1,0.1,0.3,0.3,0.6
		c2.1,2.6,3.9,5.3,5.5,8c0.5,0.9,1.1,2,1.6,3.2c0.6,1.2,1.1,2.3,1.4,3.2c1.4,3.6,2.3,7.1,2.7,10.5c0,0.4,0.1,0.9,0.1,1.6
		c0,0.7,0,1.3,0,2s0,1.1-0.1,1.5c-0.3,2.3-0.8,3.8-1.6,4.6c-0.3,0.4-0.7,0.6-1,0.8c-0.4,0.1-0.9,0.2-1.6,0.3H258.8z M259.6,696
		c0.8-0.9,1.4-2.4,1.7-4.4c0.1-1,0.2-2.1,0.2-3.2c0-1.4-0.1-2.8-0.3-4.3c-0.7-4-2.2-8.2-4.6-12.5c-0.9-1.7-1.9-3.4-2.9-4.9
		s-1.7-2.6-2-2.9c-0.1-0.1-0.1-0.1-0.2-0.1c0,0-0.1,0-0.1,0l-0.1,0.1c0,0,0,0.1,0,0.1c0,0,0,0.1,0,0.2c0,0.1,0,0.3,0,0.5
		c0,0.2,0,0.5,0,0.9c0,0.4,0,0.8,0,1.4c0,5.7,0.4,10.6,1.2,14.7c0.7,4.5,1.8,8.1,3.2,10.9c0.9,1.7,1.7,2.9,2.6,3.6
		c0.3,0.2,0.5,0.3,0.7,0.3h0.1C259.2,696.4,259.4,696.3,259.6,696z"/>
	<path class="st0" d="M293.1,681.4c-0.5-0.1-1.1-0.3-1.5-0.6c-1.6-0.9-2.8-2.6-3.8-5.2c-1.8-4.9-2.7-11.1-2.7-18.8
		c0-4.1,0.3-8.6,0.8-13.5c0.1-0.7,0.1-1.2,0.2-1.6c0.1-0.4,0.1-0.7,0.1-1c0-0.2,0-0.4,0-0.5c0-0.1,0-0.1-0.1-0.1
		c-0.2,0-0.7,0.9-1.6,2.7c-1.1,2.1-2.1,4.4-3.1,6.8c-1,2.4-2.2,5.4-3.5,9.1c-0.4,1.2-0.7,2.1-1,2.8c-0.3,0.7-0.6,1.3-0.8,1.8
		c-0.5,1.1-1,1.8-1.4,2.2c-0.4,0.4-0.8,0.6-1.3,0.6c-0.3,0-0.5-0.1-0.8-0.2c-0.1,0-0.2-0.1-0.4-0.1c-0.1,0-0.3-0.1-0.4-0.1
		c-0.9-0.1-1.6-0.5-2.2-1.1c-0.4-0.3-0.6-0.6-0.8-1c-0.2-0.4-0.3-0.9-0.4-1.6c0-0.3-0.1-0.7-0.1-1.3c0-0.6,0-1.2,0-1.8
		c0-0.6,0-1.1,0.1-1.5c0.4-4.1,1.4-7.6,2.8-10.5c1-1.9,2.1-3.2,3.2-3.8c0.3-0.1,0.5-0.3,0.7-0.3c0.2-0.1,0.5-0.1,0.8-0.1
		c0.3,0,0.5,0,0.7,0.1c0.2,0.1,0.5,0.2,0.8,0.4c0.1,0.1,0.3,0.2,0.5,0.2c0.2,0.1,0.5,0.1,0.8,0.2c0.7,0.1,1.3,0.5,1.8,1
		c0.1,0.2,0.2,0.3,0.3,0.4h0.1c0.1,0,0.1,0,0.2-0.1c0,0,0.1-0.2,0.2-0.4c0.1-0.2,0.3-0.5,0.4-0.8c1.6-3.1,2.9-5.5,4.1-7.3
		c0.4-0.5,0.6-0.9,0.8-1.2c0.2-0.2,0.3-0.4,0.5-0.4c0.1-0.1,0.2-0.1,0.3-0.1c0.1,0,0.3,0.1,0.4,0.1c0.1,0.1,0.2,0.1,0.4,0.2
		c0.1,0,0.3,0.1,0.4,0.1c0.3,0.1,0.4,0.1,0.6,0.2c0.1,0.1,0.3,0.2,0.4,0.3c0.3,0.3,0.6,0.7,0.8,1.2c0.1,0.3,0.2,0.7,0.3,1.1
		c0.1,0.4,0.1,1,0.1,1.7c0,0.5,0,0.9,0,1.3c0,0.4-0.1,1-0.2,1.8c-0.1,0.8-0.2,1.9-0.4,3.3c-0.2,2.1-0.4,3.7-0.5,4.8
		c-0.1,1.1-0.2,2.1-0.3,2.9c-0.1,0.8-0.1,1.6-0.2,2.6c-0.1,2.1-0.2,4.1-0.2,6c0,1.9,0.1,3.8,0.2,5.5c0.4,3.9,1.1,6.9,2.1,9.1
		c0.3,0.7,0.6,1.2,0.9,1.6c0.3,0.4,0.6,0.7,0.8,0.8c0.1,0,0.1,0.1,0.2,0.1c0.3,0,0.6-0.1,0.9-0.4c0.7-0.5,1.4-1.4,2.1-2.6
		c1.1-1.6,2.2-4.1,3.3-7.4c1.1-3.3,2.5-8.1,4.2-14.2c0.4-1.6,0.8-2.8,1-3.4c0.2-0.7,0.5-1.1,0.7-1.3c0.1-0.1,0.3-0.2,0.4-0.2
		c0.1,0,0.2,0.1,0.3,0.2c0,0.1,0,0.3,0,0.6c0,0.3-0.1,0.9-0.3,1.6c-0.2,0.8-0.4,1.9-0.7,3.4c-0.3,1.5-0.8,3.4-1.4,5.8
		c-1.8,7.6-3.1,12.3-3.8,14.2c-1.2,3.3-2.6,5.1-4.4,5.5c-0.3,0-0.6,0.1-1,0.1c-0.4,0-0.6,0-0.8,0H293.1z M273,660.5
		c0.1-0.2,0.3-0.6,0.7-1.1c0.3-0.6,0.7-1.2,1.1-1.9c0.3-0.5,0.7-1.3,1.3-2.4c0.5-1.1,1.1-2.2,1.7-3.4c0.6-1.2,1.1-2.2,1.5-3.1
		c0.4-0.9,0.6-1.4,0.6-1.5v-0.1c0-0.1,0-0.1-0.1-0.2c0-0.1-0.2-0.1-0.4-0.2c-0.1,0-0.2-0.1-0.3-0.1c-0.1,0-0.1,0-0.1,0
		c0,0-0.1,0-0.2,0.1c-0.3,0.1-0.7,0.6-1.2,1.2c-0.5,0.7-1.1,1.4-1.5,2.2c-1.5,2.5-2.6,5.3-3.2,8.5c-0.1,0.5-0.1,0.9-0.2,1.3
		c0,0.3-0.1,0.5-0.1,0.7v0.3c0,0.1,0,0.1,0.1,0.1C272.7,660.7,272.8,660.6,273,660.5z"/>
	<path class="st0" d="M345.4,678.7c-1.1-0.2-2-0.7-2.7-1.5c-1.5-1.7-2.2-5.9-2.2-12.4c0-1.4,0-3,0.1-4.6c0.2-5.3,0.7-11.9,1.5-19.9
		c0.2-1.9,0.4-3.2,0.4-4.1c0.1-0.9,0.1-1.9,0.2-2.9c0-0.5,0.1-0.9,0.1-1.2c0-0.3,0-0.5-0.1-0.7c-0.1-0.3-0.2-0.4-0.3-0.4h-0.1
		c-0.1,0-0.3,0.1-0.5,0.4c-0.2,0.2-0.5,0.5-0.8,0.8c-0.3,0.3-0.5,0.6-0.8,0.9c-2.9,4-5.6,9.5-8.1,16.5c-0.7,1.9-1.4,4.1-2.1,6.9
		c-0.4,1.3-0.7,2.3-0.9,2.9c-0.2,0.6-0.5,1-0.7,1.2c-0.1,0.1-0.2,0.2-0.4,0.3c-0.1,0-0.3,0.1-0.5,0.1c-0.1,0-0.3,0-0.4,0
		c-0.2,0-0.3,0-0.5,0.1h-1.1c-0.3-0.1-0.7-0.2-1-0.4c-0.5-0.3-1-0.7-1.4-1.4c-0.4-0.7-0.8-1.7-1.2-3.1c-0.2-0.7-0.3-1.3-0.5-1.9
		c-0.1-0.6-0.3-1.4-0.5-2.2c-0.1-0.6-0.2-1-0.3-1.2c-0.1-0.2-0.1-0.4-0.2-0.4c-0.1,0-0.4,0.5-0.7,1.4c-0.9,2.2-2,6.2-3.4,12.1
		c-0.4,1.7-0.8,2.9-1,3.6c-0.2,0.7-0.5,1.2-0.8,1.5c-0.1,0.1-0.3,0.3-0.4,0.3c-0.1,0.1-0.3,0.1-0.5,0.1c-0.2,0-0.6,0-1.1,0
		c-0.4,0-0.7-0.1-0.9-0.1c-0.2,0-0.4,0-0.5-0.1c-0.1,0-0.3-0.1-0.4-0.1c-0.4-0.1-0.9-0.4-1.5-0.8c-1.6-1.4-3-5.3-4.1-11.7
		c-0.5-3.1-1-6.4-1.3-9.8c-0.1-0.8-0.1-1.6-0.1-2.6c0-1,0-1.7,0.1-2.1c0.3-1.5,0.8-2.4,1.5-2.7l0.2-0.1l0.2,0.1
		c0.2,0,0.4,0.1,0.7,0.3l0.5,0.3l0.4-0.1c0.2,0,0.4-0.1,0.7-0.1c1.1,0,1.9,0.7,2.2,2.2c0.2,0.7,0.3,1.5,0.4,2.4
		c0.1,0.9,0.1,2.4,0.1,4.5c0,1.7,0.1,3.1,0.1,4.1c0.1,1.1,0.1,2.1,0.2,3.1c0.1,1.7,0.2,3.2,0.4,4.6c0.1,1.4,0.3,2.2,0.4,2.4
		c0.1,0.1,0.1,0.1,0.2,0.1c0.1,0,0.1,0,0.2-0.1c0-0.1,0.1-0.3,0.3-0.7c0.1-0.4,0.4-1,0.7-1.8c0.3-0.9,0.7-2,1.2-3.6
		c1.5-4.4,2.7-7.6,3.7-9.7c0.4-0.9,0.8-1.5,1-1.9c0.2-0.3,0.5-0.5,0.7-0.6c0.1,0,0.2,0,0.4,0c0.1,0,0.3,0.1,0.5,0.2
		c0.1,0,0.1,0.1,0.2,0.1c0.1,0,0.2,0,0.3,0.1c0.1,0,0.3,0,0.4,0c0.4,0,0.7,0,0.9,0.1c0.2,0.1,0.5,0.2,0.7,0.3
		c0.7,0.5,1.2,1.4,1.7,2.8c0.1,0.4,0.3,0.8,0.4,1.4c0.1,0.6,0.3,1.5,0.6,2.9c0.1,0.7,0.3,1.2,0.3,1.7c0.1,0.4,0.1,0.7,0.2,1
		c0.1,0.2,0.1,0.4,0.1,0.4c0,0.1,0.1,0.1,0.1,0.2c0,0,0.1,0,0.1-0.1c0.1,0,0.1-0.1,0.2-0.3c0.1-0.2,0.2-0.4,0.3-0.7
		c0.1-0.3,0.3-0.7,0.5-1.3c0.2-0.5,0.5-1.2,0.8-2c1-2.8,1.9-5,2.6-6.7c3.4-7.7,6.6-13.1,9.5-16c0.4-0.4,0.8-0.6,1-0.7
		c0.2-0.1,0.4-0.1,0.5-0.1c0.2,0,0.5,0.1,0.7,0.2c0.1,0.1,0.2,0.1,0.4,0.2c0.1,0.1,0.3,0.1,0.4,0.1c0.7,0.1,1.3,0.5,1.9,1
		c0.7,0.7,1.2,1.9,1.5,3.7c0,0.2,0.1,0.4,0.1,0.7c0,0.2,0,0.5,0,0.8c0,0.3,0,0.8,0,1.3c0,1.1,0,2.2-0.1,3.2c-0.1,1-0.2,2.4-0.4,4
		c-0.2,1.7-0.5,3.9-1,6.8c-0.4,2.8-0.7,4.9-0.9,6.4c-0.2,1.4-0.3,2.9-0.5,4.3c-0.2,1.6-0.3,3-0.4,4.2c-0.1,1.2-0.1,2.4-0.1,3.5
		c0,3.6,0.3,6,1,7.1c0.3,0.7,0.6,1,0.9,1c0.1,0,0.2-0.1,0.5-0.2c0.3-0.1,0.5-0.3,0.8-0.5c0.3-0.2,0.6-0.5,1.1-1
		c0.4-0.4,0.8-0.9,1.1-1.3c1.2-1.6,2.8-4.2,4.6-8c0.8-1.6,1.5-3.2,2.2-4.7c0.7-1.5,1.6-3.5,2.6-6.1c0.4-0.9,0.7-1.6,1-2.3
		c0.2-0.5,0.3-0.9,0.4-1c0.6-1.2,1-1.9,1.3-1.9h0.1c0.2,0,0.3,0.2,0.3,0.5v0.2c0,0.3-0.1,0.8-0.3,1.4c-0.2,0.6-0.6,1.6-1.1,2.9
		c-2.7,7.4-5.1,13.2-7.2,17.2c-0.7,1.3-1.3,2.4-1.7,3.1c-0.5,0.8-1,1.4-1.5,1.9c-0.6,0.7-1.2,1.1-1.8,1.3c-0.1,0-0.2,0.1-0.3,0.1
		c-0.1,0-0.2,0-0.4,0.1c-0.2,0-0.4,0-0.7,0c-0.3,0-0.6,0-0.8,0C345.7,678.8,345.5,678.8,345.4,678.7z"/>
	<path class="st0" d="M366.3,673.1c-1.5-0.3-2.7-1.3-3.5-3c-1.5-3.2-2.5-9.3-3.1-18.3c-0.1-1.6-0.2-2.9-0.2-3.9c0-1,0-1.6,0-2
		c0-1,0.1-1.7,0.2-2c0.1-0.4,0.3-0.7,0.5-1c0.2-0.3,0.4-0.5,0.6-0.5c0.1,0,0.2-0.1,0.4-0.1h0.2c0.2,0,0.4,0.1,0.8,0.3l0.7,0.4
		l0.8,0.1c0.2,0,0.4,0,0.5,0c0.1,0,0.2,0,0.3,0.1c0.1,0,0.2,0,0.2,0.1c1,0.5,1.5,1.6,1.6,3.3c0,0.3,0,0.5,0,0.7c0,0.2,0,0.5-0.1,0.9
		c-0.1,0.4-0.2,1-0.3,1.8c-0.9,4.1-1.1,9.6-0.6,16.5c0.1,0.9,0.2,1.7,0.4,2.2c0.1,0.6,0.3,1.1,0.5,1.5c0.3,0.7,0.6,1,0.9,1
		c0.3,0,0.7-0.3,1.3-0.9c0.4-0.4,0.9-0.9,1.3-1.5c3.9-7.2,6.3-12.3,7.3-15.6c0.1-0.3,0.3-0.7,0.5-1.3c0.1-0.2,0.2-0.4,0.3-0.6
		c0.3-0.6,0.5-1,0.7-1.3c0.2-0.2,0.3-0.3,0.5-0.3c0.1,0,0.3,0.1,0.4,0.2c0.1,0.1,0.1,0.3,0.1,0.4c0,0.4-0.3,1.4-0.8,3
		c-0.6,1.6-1.6,4.3-3,8.1c-1.5,3.8-2.5,6.3-3.1,7.6c-1.2,2.5-2.5,3.9-3.7,4c-0.4,0.1-0.8,0.1-1.2,0.1
		C366.9,673.2,366.5,673.2,366.3,673.1z M365.7,623.4c0,0-0.1,0-0.2,0c-0.1,0-0.2,0-0.2-0.1c-0.1,0-0.2-0.1-0.4-0.1
		c-0.2,0-0.3-0.1-0.5-0.1c-0.7,0-1.3-0.3-1.9-0.9c-0.3-0.3-0.6-0.7-0.7-1.1c-0.1-0.4-0.2-0.9-0.2-1.5c0-0.6,0.1-1.2,0.2-1.7
		c0.1-0.5,0.3-0.8,0.5-1c0.1-0.1,0.2-0.1,0.4-0.1h0.2c0.2,0,0.5,0.1,0.8,0.3c0.2,0.1,0.3,0.1,0.4,0.2c0.1,0.1,0.2,0.1,0.3,0.1
		c0.1,0,0.2,0,0.3,0c0.8,0,1.3,0.2,1.7,0.5c0.5,0.4,0.8,1.2,0.8,2.5c0,1.7-0.4,2.6-1.2,2.7c-0.1,0-0.1,0.1-0.2,0.1
		C365.7,623.5,365.7,623.4,365.7,623.4z"/>
	<path class="st0" d="M390.1,678.5c-0.1,0-0.3-0.1-0.5-0.1c-0.2,0-0.3,0-0.5-0.1c-0.1,0-0.1-0.1-0.2-0.1c-2.3-0.4-4.3-1.8-5.9-4.2
		c-1.5-2.4-2.8-5.9-3.7-10.4c-0.8-3.7-1.2-7.7-1.4-11.7c0-0.4-0.1-0.7-0.1-1c0-0.3,0-0.4,0-0.5c0,0-0.1-0.1-0.1-0.2
		c-0.1-0.1-0.1-0.1-0.2-0.2c-0.3-0.2-0.4-0.5-0.4-0.7c0-0.1,0-0.2,0.1-0.4c0.1-0.1,0.2-0.2,0.3-0.3c0.1-0.1,0.1-0.2,0.2-0.2
		c0.1-0.1,0.1-0.2,0.1-0.4c0-0.2,0-0.5,0-0.8c0-1.5,0.1-3.4,0.2-5.6c0.2-2.2,0.4-4.3,0.6-6.4c0.8-5.6,2-10.8,3.5-15.4
		c2.7-7.6,5.7-12.6,9.2-14.8c0.9-0.5,1.7-0.8,2.5-0.8c0.6,0,1.1,0.1,1.6,0.4c0.1,0,0.2,0.1,0.3,0.1c0.1,0.1,0.2,0.1,0.3,0.1
		c1.2,0.4,1.9,1.2,2.2,2.4c0.3,1,0.4,2.2,0.4,3.6c0,3.7-1,8.8-3.1,15.3c-3.3,9.7-7.6,17-12.9,22c-0.2,0.1-0.4,0.3-0.5,0.4
		c-0.1,0.1-0.2,0.3-0.3,0.3c-0.1,0.2-0.1,0.8-0.1,1.8c0,1,0,2.2,0.1,3.5c0.1,1.4,0.2,2.8,0.3,4.1c0.5,5.3,1.5,9.7,2.9,13
		c0.4,0.9,0.9,1.8,1.5,2.5c0.6,0.8,1.1,1.3,1.5,1.6c0.1,0,0.2,0.1,0.2,0.1c0.1,0,0.1,0,0.2,0c0,0,0.1,0,0.2-0.1
		c0.9-0.2,1.8-0.7,2.8-1.4c0.1-0.1,0.3-0.3,0.6-0.5c0.2-0.2,0.5-0.4,0.7-0.6c0.7-0.7,1.3-1.3,1.8-2c0.6-0.7,1.2-1.6,1.9-2.6
		c2.8-4.3,5.4-9.1,7.7-14.7c0.5-1.1,0.9-1.8,1.1-2.4c0.3-0.5,0.6-0.9,0.8-1.2c0.2-0.1,0.3-0.2,0.4-0.3c0.1,0,0.2-0.1,0.2-0.1h0.1
		c0.2,0.1,0.3,0.3,0.3,0.8c0,0.5-0.2,1.3-0.5,2.4c-0.3,0.9-0.7,2-1.2,3.4c-0.5,1.4-1,2.7-1.6,3.9c-1,2.5-2.1,5-3.3,7.5
		c-1.2,2.4-2.2,4.3-3.1,5.7c-1.7,2.7-3.4,4.3-5.2,4.8c-0.3,0.1-0.6,0.1-0.9,0.1c-0.3,0-0.5,0-0.7,0
		C390.5,678.6,390.3,678.6,390.1,678.5z M382.4,644.5c0.2-0.1,0.7-0.7,1.5-1.7c3.9-4.9,7.1-10.8,9.7-17.7c1.6-4.5,2.6-8.4,3.1-11.9
		c0-0.6,0.1-1.3,0.1-2.1c0-0.8,0-1.4,0-1.8c-0.1-0.5-0.2-1-0.4-1.4c-0.1-0.4-0.3-0.7-0.4-0.8c-0.1,0-0.1-0.1-0.2-0.1
		c-0.4,0-1,0.4-1.7,1.1c-1.7,1.6-3.3,4.1-4.9,7.3c-0.8,1.6-1.5,3.1-2.1,4.7c-0.6,1.5-1.2,3.3-1.7,5.4c-1.1,3.9-2,8.2-2.7,13
		c-0.2,1.4-0.3,2.6-0.4,3.6c-0.1,1-0.1,1.6-0.1,2v0.3c0,0.1,0.1,0.1,0.1,0.1c0,0,0,0,0.1,0C382.2,644.5,382.3,644.5,382.4,644.5z"/>
	<path class="st0" d="M423.3,720.5c0,0-0.1,0-0.2-0.1c-0.2,0-0.4,0-0.7-0.1c-1,0-1.7-0.2-2.2-0.5c-0.9-0.5-1.6-1.1-2.2-1.9
		c-0.1-0.2-0.3-0.5-0.5-0.8c-0.2-0.3-0.3-0.7-0.4-1c-0.5-1.6-0.7-3.5-0.7-5.7c0-3.4,0.6-7.5,1.7-12.3c0.8-3.2,1.9-6.5,3.2-9.9
		c0.6-1.5,1.1-2.7,1.6-3.9c0.5-1.1,1.1-2.3,1.7-3.7c1.6-3.1,3.2-5.9,4.9-8.5c0.1-0.1,0.1-0.1,0.2-0.2c0.3-0.4,0.5-0.8,0.6-1
		c0.1-0.2,0.2-0.4,0.2-0.5c0-0.1,0.1-0.2,0.1-0.2c0-0.1,0-0.1-0.1-0.2v-0.1c0-0.3,0-0.9-0.1-1.9c-0.1-1-0.2-1.9-0.3-2.8
		c-0.6-4.8-1.5-9-2.7-12.7c-0.4-1.3-0.8-2.4-1.2-3.3c-0.4-0.9-0.7-1.5-0.9-1.6c-0.1,0-0.2-0.1-0.3-0.1h-0.2
		c-0.2,0.1-0.4,0.2-0.7,0.4c-1.3,0.9-2.6,2.7-4.1,5.1c-1,1.7-2.2,4.2-3.7,7.3c-0.5,1.1-1,2.1-1.4,3.1c-0.5,0.9-0.8,1.5-1,1.9
		c-0.7,1.1-1.4,1.6-2,1.6c-0.3,0-0.6,0-1,0c-0.4,0-0.7,0-1.1-0.1c-0.3,0-0.5-0.1-0.7-0.1c-0.9-0.3-1.6-0.9-2.2-1.6
		c-0.7-1.1-1.2-2.9-1.6-5.6c-0.1-1.1-0.3-2.1-0.3-3.1c-0.1-1-0.1-2.3-0.1-3.7c0-3.2,0.2-6.2,0.5-8.8c0.3-2.1,0.9-3.6,1.6-4.5
		c0.4-0.5,0.8-0.7,1.3-0.7c0.3,0,0.6,0.1,0.9,0.3c0.2,0.1,0.3,0.2,0.4,0.2c0.1,0,0.3,0.1,0.5,0.1c0.9,0.1,1.5,0.4,1.7,1.1
		c0.1,0.2,0.1,0.5,0.1,1c0,0.4,0,0.8-0.1,1.3c-0.1,1.2-0.2,2.6-0.4,4.3c-0.6,5-0.9,9.1-0.9,12.3v0.5c0,0.8,0,1.3,0,1.7
		c0,0.4,0,0.6,0.1,0.7c0,0.1,0.1,0.2,0.2,0.2c0,0,0.1,0,0.1-0.1c0.4-0.3,2-2.8,4.6-7.5c2.5-4.5,4.4-7.4,5.7-8.7
		c0.8-0.9,1.6-1.4,2.3-1.5c0.1,0,0.2-0.1,0.3-0.1c0.1,0,0.2,0,0.3,0.1c0.2,0,0.5,0.1,0.8,0.2c0.4,0.1,0.7,0.2,1.1,0.3
		c3.1,0.4,5.5,3.1,7.3,8c0.8,2.4,1.5,5.3,2,8.5c0,0.4,0.1,0.8,0.1,1.1c0.1,0.3,0.1,0.5,0.1,0.5c0,0,0.1,0.1,0.1,0.1c0,0,0,0,0.1,0
		c0,0,0.1,0,0.2-0.1c0.1-0.1,0.3-0.2,0.4-0.4c0.2-0.2,0.4-0.5,0.7-0.9c1-1.2,2-2.5,3.1-3.7c1-1.2,1.9-2.2,2.6-3
		c1.1-1.2,2-2.1,2.6-2.6c0.1,0,0.1-0.1,0.2-0.2c0.2-0.1,0.4-0.3,0.6-0.5c0.2-0.2,0.4-0.3,0.5-0.5c0.4-0.3,0.8-0.7,1.3-1.1
		c0.5-0.4,0.8-0.6,1-0.7c0.1-0.1,0.3-0.1,0.4-0.1c0.1,0,0.3,0,0.3,0.1c0.1,0.1,0.2,0.2,0.2,0.3c0,0.3-0.2,0.6-0.7,0.9
		c-0.4,0.3-0.9,0.8-1.4,1.3c-0.5,0.5-1,0.9-1.3,1.2c-0.1,0.1-0.4,0.4-0.7,0.7c-0.3,0.3-0.6,0.7-0.9,1c-0.3,0.3-0.6,0.7-0.9,1
		c-0.3,0.3-0.5,0.6-0.7,0.8c-0.3,0.3-0.7,0.7-1.1,1.3c-0.5,0.6-1.1,1.4-2,2.4c-0.4,0.5-0.9,1.2-1.5,2c-0.6,0.8-1.1,1.5-1.6,2.2
		c-0.5,0.7-0.8,1.1-1,1.4l-0.3,0.4v0.6c0,0.1,0,0.4,0,0.8c0,0.4,0,0.8,0.1,1.2c0.1,1.7,0.2,3.6,0.2,5.6c0,2-0.1,4.2-0.2,6.5
		c-0.2,3.9-0.6,8.1-1.3,12.7c-1,6.9-2.4,12.7-4.3,17.5c-1.4,3.5-2.8,6-4.4,7.6c-0.5,0.5-1,0.8-1.3,1c-0.4,0.2-0.8,0.3-1.2,0.3H423.3
		z M422.5,717.3c0.6-0.4,1.3-1.1,2-2.3c0.8-1.2,1.5-2.5,2-3.9c1.2-3,2.1-6.4,2.8-10.2c0.8-4.6,1.4-9.6,1.6-15c0-1.3,0.1-2.6,0.1-3.8
		c0-1.2,0-2.2,0-2.9c0-0.7,0-1.3-0.1-2c0-1.2-0.1-1.9-0.1-2.1c0-0.1-0.1-0.1-0.2-0.1h-0.1c-0.1,0-0.2,0.2-0.3,0.4
		c-0.1,0.2-0.4,0.6-0.7,1c-2.7,4.8-4.9,9.6-6.5,14.4c-1.3,4.1-2.2,7.9-2.7,11.4c-0.1,1.1-0.2,1.9-0.3,2.5c0,0.6-0.1,1.6-0.1,2.9
		c0,1.3,0,2.3,0.1,2.8c0,0.6,0.1,1.3,0.3,2.1c0.2,1.2,0.5,2.3,0.8,3.3c0.3,0.9,0.6,1.4,0.9,1.4c0,0,0.1,0,0.1,0
		C422.4,717.3,422.4,717.3,422.5,717.3z"/>
</g>
</svg>

