<?xml version="1.0" encoding="utf-8"?>
<!-- Generator: Adobe Illustrator 23.0.5, SVG Export Plug-In . SVG Version: 6.00 Build 0)  -->
<svg version="1.1" xmlns="http://www.w3.org/2000/svg" xmlns:xlink="http://www.w3.org/1999/xlink" x="0px" y="0px"
	 viewBox="0 0 720 720" style="enable-background:new 0 0 720 720;" xml:space="preserve" width="500" height="500">
<style type="text/css">
	.st0{fill:#050002;}
	.st1{fill-rule:evenodd;clip-rule:evenodd;fill:#050002;}
	.st2{fill-rule:evenodd;clip-rule:evenodd;}
	.st3{fill:#221F1F;}
	.st4{fill:#231F20;}
	.st5{fill:#070808;}
	.st6{fill:#211E1F;}
	.st7{fill:#161616;}
	.st8{fill:#131313;}
	.st9{fill:#21201F;}
	.st10{fill:#2C2929;}
</style>
<g>
	<g>
		<path class="st0" d="M236.2,360.3c2-20.4,5.3-39.5,10.1-57.5c8.2-31.1,19.5-56.7,33.9-76.8c15.1-20.9,33.1-36.7,53.8-47.4
			c20.7-10.7,43.1-16,67.2-16c21.1,0,39.8,4.8,56.2,14.3c16.4,9.6,30.5,22.8,42.4,39.7c10.7,14.9,20,33.1,27.9,54.6
			c7.9,21.5,13.9,41.4,17.9,59.8H576l-3.4-188.5h-29.8l-15.3,25.3c-19.1-11.7-39.2-20.7-60.3-27.2c-21.1-6.5-44.7-9.7-70.7-9.7
			c-35,0-67.9,6.7-98.7,20.1c-30.8,13.4-57.4,32.4-80,57c-22.8,24.9-40.7,54.5-53.6,88.9c-7.4,19.8-12.7,40.9-15.9,63.3h-20.8v8.4
			h469.1v-8.4H236.2z"/>
	</g>
	<g>
		<path class="st0" d="M127.7,509.7h31.2c1.7,5.5,3.7,11,5.8,16.3c13.2,33.7,30.8,62.2,52.9,85.6c22.3,23.4,47.9,41.3,76.9,53.7
			c28.9,12.4,59.1,18.6,90.6,18.6c48.7,0,90.6-11.2,125.8-33.7c35.2-22.5,63.5-59.9,84.9-112.3l-27.9-13.4
			c-6,16.4-13.7,31.5-23.1,45.4c-9.4,13.9-20.3,26.3-32.8,37.3c-12.4,10.4-27,18.8-43.9,25.2c-16.9,6.3-35.4,9.5-55.4,9.5
			c-26.8,0-51.1-6-72.8-17.9c-21.7-11.9-40.5-28.5-56.4-49.6c-14-18.9-25.2-40.4-33.5-64.6h346.7v-8.4H127.7V509.7z"/>
	</g>
</g>
</svg>


