<?xml version="1.0" encoding="utf-8"?>
<!-- Generator: Adobe Illustrator 23.0.5, SVG Export Plug-In . SVG Version: 6.00 Build 0)  -->
<svg height="500" width="500" version="1.1" xmlns="http://www.w3.org/2000/svg" xmlns:xlink="http://www.w3.org/1999/xlink" x="0px" y="0px"
	 viewBox="0 0 720 720" style="enable-background:new 0 0 720 720;" xml:space="preserve">
<style type="text/css">
	.st0{fill:#050002;}
	.st1{fill-rule:evenodd;clip-rule:evenodd;fill:#050002;}
	.st2{fill-rule:evenodd;clip-rule:evenodd;}
	.st3{fill:#221F1F;}
	.st4{fill:#231F20;}
	.st5{fill:#070808;}
	.st6{fill:#211E1F;}
	.st7{fill:#161616;}
	.st8{fill:#131313;}
	.st9{fill:#21201F;}
	.st10{fill:#2C2929;}
</style>
<g>
	<g>
		<g>
			<path class="st0" d="M144.2,449.1c0.2,1.1,0.3,2.2,0.4,3.3h-4.4C141.5,451.3,142.9,450.2,144.2,449.1z"/>
		</g>
	</g>
	<g>
		<g>
			<path class="st0" d="M593.4,449.1c1.4,1.1,2.8,2.2,4.1,3.3H593C593.1,451.3,593.2,450.2,593.4,449.1z"/>
		</g>
	</g>
	<g>
		<g>
			<path class="st0" d="M632.1,331.5c-2.1,3.7-3.2,7.9-3.1,12.3c-0.7-4.1-1.5-8.2-2.3-12.3H632.1z"/>
		</g>
	</g>
</g>
<g>
	<g>
		<g>
			<g>
				<rect x="79.8" y="331.4" class="st0" width="578.1" height="6.8"/>
			</g>
		</g>
	</g>
	<g>
		<g>
			<g>
				<rect x="79.8" y="445.8" class="st0" width="578.1" height="6.8"/>
			</g>
		</g>
	</g>
</g>
<g>
	<g>
		<g>
			<g>
				<path class="st0" d="M105.5,331.5H90.8c-1.4-3.8-2-7.8-1.7-11.9c6.6,1.5,12.3,5.5,15.8,10.9
					C105.1,330.9,105.3,331.2,105.5,331.5z"/>
			</g>
		</g>
		<g>
			<g>
				<path class="st0" d="M100.3,284.8c6.3,2.4,11.5,7.2,14.2,13c1.9,4.1,2.6,8.7,1.8,13.4c2.7-8.6,5.9-17.1,9.6-25.4
					c-9.9-8.2-13.8-22.1-9.6-34c5.9,3.3,10.4,8.7,12.2,14.9c1.3,4.3,1.3,9-0.1,13.6c3.9-8.1,8.2-16.1,13-23.8
					c-8.7-9.5-10.7-23.8-4.8-35c5.4,4.1,9.1,10.1,10,16.4c0.7,4.6,0,9.3-2.1,13.7c0.5-0.8,1-1.5,1.5-2.3c4.6-6.9,9.5-13.5,14.8-19.8
					c-7.3-10.7-7.3-25.1,0-35.4c4.8,4.8,7.6,11.2,7.7,17.7c0.1,4.6-1.3,9.2-3.9,13.3c6-6.9,12.4-13.4,19.2-19.5
					c-5.7-11.6-3.7-25.8,4.9-35c4.1,5.4,5.9,12.2,5.2,18.6c-0.6,4.6-2.5,8.9-5.6,12.5c6.9-5.9,14.1-11.5,21.6-16.6
					c-4.1-12.3-0.1-26.1,9.7-33.9c3.3,5.9,4.2,12.9,2.5,19.1c-1.2,4.4-3.7,8.4-7.3,11.5c5.7-3.7,11.6-7.1,17.6-10.3
					c2-5.5,7.1-9.8,12.8-12.2c6.7-2.8,14.1-3.4,21.3-3.9c-1.9,8-6.6,15.9-14.2,19c-6.2,2.5-13.1,1.5-19.7,0.3
					c-5.6,3-11,6.2-16.3,9.6c4.2-0.3,8.4,0.7,12.1,2.5c5.5,2.7,10.1,6.8,14.7,10.9c-5.9,2.1-12.6,2.1-18.5,0
					c-5.3-1.9-9.9-5.6-13.1-10.2c-7.4,5-14.5,10.5-21.3,16.4c4.1-0.9,8.4-0.5,12.3,0.8c5.8,1.9,10.9,5.3,16,8.8
					c-5.6,2.9-12.2,3.9-18.3,2.6c-5.5-1.2-10.6-4.1-14.4-8.3c-6.6,6-12.9,12.4-18.8,19.2c3.9-1.5,8.3-1.6,12.3-0.9
					c6,1.1,11.6,3.8,17.1,6.4c-5.1,3.7-11.5,5.5-17.8,5.1c-5.6-0.4-11.1-2.6-15.4-6.1c-5.2,6.2-10,12.7-14.6,19.4
					c-0.5,0.7-0.9,1.4-1.4,2.2c3.7-2,8-2.8,12.1-2.6c6.1,0.2,12,2.1,17.8,4c-4.5,4.4-10.6,7.1-16.9,7.5c-5.6,0.4-11.3-1-16.1-3.9
					c-4.8,7.7-9.1,15.6-12.9,23.7c3.4-2.6,7.5-3.9,11.6-4.3c6.1-0.6,12.2,0.4,18.2,1.5c-3.9,5-9.6,8.5-15.7,9.8
					c-5.5,1.2-11.4,0.6-16.5-1.6c-3.6,8.3-6.8,16.7-9.5,25.3c3-3,6.9-4.9,10.9-5.9c5.9-1.5,12.1-1.3,18.2-1.1
					c-3.2,5.5-8.3,9.8-14.2,12c-5.3,1.9-11.2,2.2-16.6,0.7c-1.3,4.5-2.4,9-3.4,13.5h-3c1-4.9,2.2-9.7,3.6-14.4
					C103.6,310.3,97.8,297.1,100.3,284.8z"/>
			</g>
		</g>
		<g>
			<g>
				<path class="st0" d="M611.6,479.8c-3.7,8.4-7.9,16.4-12.5,24.3c3-3.8,6.9-6.4,11.2-7.8c6.1-1.9,13.1-1.2,19.1,1.9
					c-7.4,10.1-21.1,14.6-33.4,11c-4.8,7.8-10.1,15.3-15.9,22.4c3.5-3.4,7.8-5.5,12.4-6.3c6.3-1,13.1,0.6,18.6,4.5
					c-8.8,9-22.9,11.5-34.6,6.2c-4.4,5.2-9,10.3-13.8,15.1c-1.7,1.7-3.4,3.3-5.1,5c4-2.9,8.5-4.5,13.2-4.5
					c6.4-0.1,12.9,2.5,17.8,7.1c-9.9,7.7-24.3,8.2-35.1,1.3c-6.8,6.1-13.8,11.8-21.2,17.1c4.2-2.2,8.9-3,13.4-2.5
					c6.3,0.8,12.4,4.2,16.7,9.5c-10.9,6.2-25.1,4.7-34.9-3.6c-7.5,5.1-15.3,9.7-23.3,13.9c4.5-1.6,9.2-1.7,13.6-0.6
					c6.2,1.6,11.7,5.9,15.2,11.8c-11.7,4.6-25.6,1.2-34.1-8.5c-3.8,1.9-7.6,3.6-11.4,5.3c-4.4,1.9-8.9,3.6-13.4,5.2
					c4.6-0.9,9.2-0.4,13.4,1.4c5.9,2.5,10.8,7.5,13.4,13.8c-12.2,3-25.4-2.4-32.6-13.2c-8.6,2.8-17.3,5.1-26.1,6.9
					c4.7-0.2,9.2,0.9,13.1,3.2c5.5,3.3,9.6,9,11.4,15.5c-12.5,1.2-24.9-6-30.4-17.6c-9,1.6-18.1,2.6-27.2,3.1
					c4.9,0.3,9.3,2.1,12.9,5c5,4,8.3,10.2,9.1,17c-12.5-0.5-23.9-9.4-27.7-21.8c-2.6,0.1-5.3,0.1-8,0.1c-10.2,0.7-16.3,11-23.3,20.1
					c7.5,8.7,17.6,16.9,29.8,17.6c2.4,0.1,4.3,2,4.3,4.4c0.1,2.6-1.9,4.7-4.5,4.7c-1,0-1.8,0-2.2,0c-13.8,0-22.8-12.3-30.6-22.6
					c-7.8,10.3-16.7,22.6-30.6,22.6c-0.3,0-1.2,0-2.2,0c-2.5,0-4.6-2.1-4.5-4.7c0.1-2.4,1.9-4.3,4.3-4.4
					c12.2-0.7,22.3-8.8,29.8-17.6c-6.9-9.1-13-19.4-23.2-20.1c-2.7,0-5.3,0-8-0.1c-3.9,12.3-15.2,21.2-27.7,21.8
					c0.8-6.7,4.1-12.9,9.1-17c3.6-2.9,8.1-4.7,12.9-5c-9.2-0.5-18.3-1.6-27.2-3.1c-5.6,11.6-18,18.8-30.4,17.6
					c1.7-6.6,5.9-12.2,11.4-15.5c3.9-2.3,8.4-3.5,13.1-3.2c-8.8-1.8-17.6-4.1-26.1-6.9c-7.1,10.8-20.4,16.1-32.6,13.2
					c2.6-6.2,7.5-11.3,13.4-13.8c4.1-1.8,8.7-2.3,13.4-1.4c-4.5-1.6-9-3.3-13.4-5.2c-3.9-1.7-7.7-3.4-11.4-5.3
					c-8.5,9.7-22.4,13.1-34.1,8.5c3.5-5.8,9-10.1,15.2-11.8c4.4-1.2,9.1-1,13.6,0.6c-8-4.2-15.8-8.8-23.3-13.9
					c-9.8,8.4-24,9.9-34.9,3.6c4.2-5.3,10.3-8.7,16.7-9.5c4.5-0.6,9.2,0.3,13.4,2.5c-7.4-5.3-14.4-11-21.2-17.1
					c-10.9,6.9-25.2,6.4-35.1-1.3c4.9-4.6,11.4-7.2,17.8-7.1c4.7,0.1,9.3,1.6,13.2,4.5c-1.7-1.6-3.4-3.3-5.1-5
					c-4.8-4.9-9.4-9.9-13.8-15.1c-11.7,5.4-25.8,2.9-34.6-6.2c5.5-3.9,12.3-5.6,18.6-4.5c4.6,0.7,8.9,2.9,12.4,6.3
					c-5.7-7.2-11-14.7-15.9-22.4c-12.3,3.6-26-0.8-33.4-11c6-3.1,13-3.8,19.1-1.9c4.3,1.4,8.3,4,11.2,7.8
					c-4.6-7.8-8.8-15.9-12.5-24.3c-12.7,1.9-25.6-4.5-31.5-15.5c6.4-2.2,13.3-1.9,19.1,0.8c4.1,1.9,7.6,5,10,9.1
					c-3-7.1-5.6-14.4-7.8-21.8h3.1c2.2,7.1,4.7,14,7.6,20.9c0.4-4.2,2.2-8.2,4.6-11.6c2.5-3.6,5.8-6.5,9.1-9.3
					c1.3-1.1,2.7-2.2,4.1-3.3c0.2,1.1,0.3,2.2,0.4,3.3c0.2,5.2-1,10.5-3.6,15c-2.8,4.9-7.2,8.9-12.3,11.3
					c3.7,8.3,7.8,16.2,12.3,23.9c-0.2-4.2,1-8.4,2.9-12.1c2.8-5.4,7.1-9.9,11.4-14.3c1.9,6,1.7,12.7-0.7,18.6
					c-2.1,5.2-5.9,9.8-10.6,12.8c4.7,7.6,9.9,14.9,15.5,21.9c-0.8-4.1-0.1-8.4,1.3-12.3c2.1-5.8,5.7-10.8,9.3-15.8
					c2.7,5.7,3.4,12.4,1.9,18.5c-1.3,5.5-4.4,10.5-8.7,14.2c4.3,5.1,8.8,10.1,13.6,14.9c1.6,1.6,3.2,3.1,4.8,4.7
					c-1.3-4-1.3-8.3-0.5-12.4c1.3-6,4.2-11.5,7-16.9c3.5,5.3,5.1,11.8,4.5,18.1c-0.6,5.6-2.9,11-6.6,15.3c6.7,6,13.7,11.7,20.9,16.9
					c-1.9-3.8-2.5-8.1-2.2-12.3c0.4-6.1,2.5-12,4.6-17.8c4.2,4.7,6.7,11,6.9,17.3c0.2,5.7-1.4,11.3-4.5,16.1
					c7.4,5,15.1,9.6,23.1,13.8c-2.4-3.5-3.6-7.7-3.9-11.8c-0.4-6.1,0.8-12.2,2.1-18.2c4.8,4.1,8.1,9.9,9.2,16.2
					c1,5.6,0.2,11.4-2.2,16.5c3.7,1.8,7.4,3.5,11.2,5.1c4.5,1.9,9,3.7,13.6,5.3c-2.9-3.1-4.7-7.1-5.5-11.2c-1.3-6-0.9-12.2-0.4-18.3
					c5.3,3.4,9.4,8.7,11.4,14.7c1.8,5.4,1.8,11.3,0.1,16.7c8.5,2.8,17.2,5,26,6.8c-3.3-2.7-5.6-6.4-7-10.3c-2.1-5.8-2.6-12-3-18.1
					c5.7,2.6,10.5,7.3,13.3,13c2.5,5.1,3.3,10.9,2.4,16.5c8.8,1.5,17.6,2.5,26.6,3.1c-3.6-2.2-6.3-5.5-8.3-9.2
					c-2.9-5.4-4.2-11.5-5.5-17.5c6,1.8,11.4,5.7,15,11c3.2,4.7,4.8,10.3,4.7,16c2.6,0.1,5.2,0.1,7.8,0.1h0.1
					c11.6,0.8,19.1,10,26.2,19.2c7.1-9.1,14.6-18.3,26.2-19.2h0.1c2.6,0,5.2,0,7.8-0.1c-0.1-5.6,1.5-11.3,4.7-16
					c3.5-5.3,8.9-9.2,15-11c-1.3,6-2.6,12.1-5.5,17.5c-1.9,3.6-4.7,7-8.3,9.2c9-0.5,17.8-1.5,26.6-3.1c-0.9-5.6-0.1-11.5,2.4-16.5
					c2.8-5.7,7.6-10.3,13.3-13c-0.4,6.1-0.9,12.3-3,18.1c-1.4,3.9-3.7,7.6-7,10.3c8.8-1.8,17.5-4,26-6.8c-1.7-5.4-1.7-11.3,0.1-16.7
					c2-6,6.1-11.3,11.4-14.7c0.4,6.1,0.8,12.3-0.4,18.3c-0.9,4.1-2.6,8.1-5.5,11.2c4.6-1.6,9.1-3.4,13.6-5.3
					c3.8-1.6,7.5-3.3,11.2-5.1c-2.4-5.1-3.2-11-2.2-16.5c1.1-6.2,4.4-12.1,9.2-16.2c1.3,6,2.5,12.1,2.1,18.2
					c-0.3,4.1-1.5,8.3-3.9,11.8c8-4.1,15.7-8.7,23.1-13.8c-3.1-4.7-4.7-10.4-4.5-16.1c0.2-6.3,2.7-12.6,6.9-17.3
					c2.1,5.8,4.2,11.6,4.6,17.8c0.3,4.1-0.3,8.5-2.2,12.3c7.3-5.2,14.3-10.8,20.9-16.9c-3.7-4.3-6-9.6-6.6-15.3
					c-0.6-6.3,1-12.8,4.4-18.1c2.9,5.4,5.7,10.9,7,16.9c0.9,4,0.9,8.4-0.4,12.4c1.6-1.5,3.2-3.1,4.8-4.7c4.8-4.8,9.3-9.8,13.6-14.9
					c-4.2-3.7-7.3-8.7-8.7-14.2c-1.5-6.1-0.8-12.8,1.9-18.5c3.6,5,7.2,10,9.3,15.8c1.4,3.9,2,8.2,1.3,12.3
					c5.6-7,10.8-14.3,15.5-21.9c-4.7-3.1-8.5-7.6-10.6-12.8c-2.4-5.9-2.6-12.6-0.7-18.6c4.2,4.4,8.5,8.9,11.4,14.3
					c1.9,3.7,3.1,7.9,2.9,12.1c4.6-7.7,8.7-15.7,12.3-23.9c-5.1-2.4-9.5-6.4-12.3-11.3c-2.6-4.5-3.9-9.8-3.6-15
					c0-1.1,0.2-2.2,0.4-3.3c1.4,1.1,2.8,2.2,4.1,3.3c3.4,2.8,6.6,5.8,9.1,9.3c2.4,3.4,4.2,7.4,4.6,11.6c2.9-6.9,5.4-13.9,7.6-20.9h3
					c-2.2,7.3-4.8,14.6-7.8,21.8c2.4-4.1,5.9-7.2,10-9.1c5.8-2.7,12.8-3,19.1-0.8C637.1,475.3,624.3,481.7,611.6,479.8z"/>
			</g>
		</g>
		<g>
			<g>
				<path class="st0" d="M471.3,155.4c7.2,0.5,14.6,1.1,21.3,3.9c5.7,2.4,10.8,6.8,12.8,12.2c6,3.2,11.9,6.6,17.6,10.3
					c-3.6-3.1-6.1-7.1-7.3-11.5c-1.7-6.2-0.7-13.2,2.5-19.1c9.8,7.8,13.8,21.7,9.7,33.9c7.5,5.1,14.7,10.6,21.6,16.6
					c-3.2-3.6-5.1-7.9-5.6-12.5c-0.8-6.4,1.1-13.2,5.1-18.6c8.6,9.1,10.7,23.4,4.9,35c6.7,6.1,13.1,12.7,19.2,19.5
					c-2.7-4-4-8.6-3.9-13.3c0.1-6.4,2.9-12.9,7.7-17.7c7.3,10.3,7.3,24.7,0,35.4c5.3,6.3,10.2,12.9,14.8,19.8c0.5,0.8,1,1.5,1.5,2.3
					c-2.1-4.4-2.8-9.1-2.1-13.7c1-6.4,4.7-12.3,10-16.4c5.8,11.2,3.8,25.5-4.9,35c4.8,7.7,9.1,15.7,13,23.8
					c-1.4-4.5-1.4-9.2-0.1-13.6c1.9-6.2,6.3-11.6,12.2-14.9c4.2,11.9,0.3,25.7-9.6,34c3.7,8.3,6.9,16.8,9.5,25.4
					c-0.7-4.7-0.1-9.3,1.8-13.4c2.7-5.8,7.9-10.6,14.1-13c2.5,12.3-3.3,25.5-14.2,32.3c1.4,4.8,2.6,9.6,3.6,14.4h-3
					c-1-4.5-2.1-9-3.4-13.5c-5.4,1.5-11.3,1.3-16.6-0.7c-5.9-2.2-11-6.5-14.2-12c6.1-0.2,12.3-0.4,18.2,1.1c4,1,7.9,2.9,10.9,5.9
					c-2.7-8.6-5.8-17-9.5-25.3c-5.2,2.2-11,2.8-16.5,1.6c-6.2-1.3-11.8-4.9-15.7-9.8c6-1.1,12.1-2.1,18.2-1.5
					c4.1,0.4,8.3,1.8,11.7,4.3c-3.8-8.1-8.1-16-12.9-23.7c-4.8,2.9-10.5,4.3-16.1,3.9c-6.3-0.5-12.4-3.2-16.9-7.5
					c5.8-1.9,11.7-3.8,17.8-4c4.1-0.1,8.4,0.6,12.1,2.6c-0.5-0.7-0.9-1.5-1.4-2.2c-4.5-6.8-9.4-13.2-14.6-19.4
					c-4.4,3.5-9.8,5.7-15.4,6.1c-6.3,0.4-12.7-1.4-17.8-5.1c5.5-2.7,11.1-5.4,17.1-6.4c4.1-0.7,8.4-0.6,12.3,0.9
					c-5.9-6.8-12.2-13.2-18.8-19.2c-3.8,4.1-8.9,7.1-14.4,8.3c-6.1,1.3-12.8,0.4-18.3-2.6c5.1-3.4,10.2-6.9,16-8.8
					c3.9-1.3,8.2-1.7,12.4-0.8c-6.8-5.9-13.9-11.3-21.3-16.4c-3.2,4.6-7.9,8.3-13.1,10.2c-5.9,2.2-12.6,2.2-18.5,0
					c4.5-4.1,9.2-8.2,14.6-10.9c3.7-1.8,7.9-2.9,12.1-2.5c-5.3-3.4-10.8-6.6-16.3-9.6c-6.6,1.2-13.5,2.2-19.7-0.3
					C477.9,171.3,473.1,163.4,471.3,155.4z"/>
			</g>
		</g>
		<g>
			<g>
				<path class="st0" d="M646.8,331.5h-14.7c0.2-0.3,0.4-0.6,0.6-1c3.5-5.4,9.2-9.4,15.8-10.9C648.7,323.7,648.1,327.8,646.8,331.5z
					"/>
			</g>
		</g>
	</g>
</g>
<g>
	<path class="st0" d="M357.2,213.2c-4.7-0.4-9.1-2-13.9-2c-5,0-9.9,0.7-14.7,1.7c-5.1,1.1-10.1,2.5-15.2,3.8c-0.4,2.7-0.7,5.5-1,8.2
		c-1.6,13.1-2.9,26.1-3.5,39.3c-0.5,11.1-1.2,22.6-0.5,33.8c0.2,3,0.1,5.5,1.6,7.7c0.9,1.3,2.7,2.6,5.3,1.4c2.3-1.1,4-3.1,5.5-5.2
		c7.3-10,11.1-22.8,14.6-34.6c0.6-2,3.7-1,3.1,0.9c-4.1,13.6-8.8,29.3-18.8,39.8c-3.7,3.8-8.9,5.7-13.9,2.9c-3.7-2-6-6.9-7.1-9.6
		c-4.6-11.5-4.4-24.2-3.9-36.4c0.7-15.1,2-30.3,3.8-45.4c-12.5,1.4-27.8-0.6-34.9-12.1c-0.3-0.4,0.3-0.9,0.7-0.5
		c9.3,10.2,21.8,12.1,34.5,10.6c1.3-10.7,3-21.4,4.8-32c0.6-3.7,4.9-5.6,8.2-4.6c3.8,1.1,5.7,4.8,5.2,8.5
		c-1.1,8.4-2.3,16.7-3.5,25.1c7.1-1.9,14.2-3.9,21.5-4.8c6.7-0.8,16.5-1.7,22.4,2.4C357.9,212.4,357.9,213.3,357.2,213.2z"/>
	<path class="st0" d="M415.2,268.9c-2.9,7.3-6.2,14.2-10.7,20.6c-3.2,4.5-6.2,9.6-10.1,13.4c-6.3,6.1-16.2,9.1-23,1.7
		c-6.7-7.3-3.5-20.4-2.5-29.1c0.5-4.1,0.9-8.1,0.6-12.4c-0.1-1.8-0.9-5.8-3.3-5.2c-3.6,0.8-6.1,5.6-7.5,8.6c-2.9,6-5,12.5-6.6,19
		c0.3,1.6,0.6,3.3,1.2,4.9c0.6,1.5-1.4,2.3-2.4,1.3c-3.2-3.1-6.4-5.8-8.6-9.8c-2.1-3.9-3.8-8-5-12.3c-2.7-9.2-2.9-18.7-2.1-28.2
		c1.3-15.4,5.4-31,13.9-44.1c4.9-7.6,14.4-16.6,24.3-14c16.2,4.3,5.5,31.4,0.6,40.4c-6.5,11.9-15.7,22.3-25.7,31.5
		c0.1,5.3,0.5,10.7,1.2,15.8c0.3,2.1,0.7,4.2,1.1,6.3c1.1-4.7,2.5-9.3,4.4-13.8c1.8-4.1,3.8-8.8,7.2-11.7
		c8.2-7.1,17.9,2.2,20.3,10.3c2.8,9.4-0.8,19.6-1,28.8c0,1.1,0,2.3,0.1,3.4c0-0.2,0.4,1.6,0.4,1.8c0,0.1,0.1,0.4,0.2,0.6
		c0.2,0.6,0.5,1.1,0.7,1.7c0.1,0.3,0.6,1,0,0c0.2,0.3,0.4,0.8,0.7,1c2.7,2.2,6,0.7,8.7-0.9c5-3.1,8.3-7.4,11.1-12.5
		c3.4-6.1,6.3-12.6,8.9-19.1C412.8,264.9,416,266.8,415.2,268.9z M348,251.8c9.2-9.1,17.6-19.1,23.6-30.5c3.6-6.8,6-14.4,6.6-22.1
		c0.3-3.9,0.3-9.1-3.4-11.5c-2-1.3-4.9-1.6-7.1-0.7c-3.5,1.5-5.8,5.1-7.5,8.4c-2.4,4.7-4.3,9.9-5.8,15c-3.8,12.9-6.3,26.4-6.3,39.8
		C348,250.8,348,251.3,348,251.8z"/>
	<path class="st0" d="M465,268.5c-7.6,13.4-16.8,26.3-31.6,32.3c-5.8,2.4-11.1,4-16.9,0.6c-6.5-3.8-9.5-10.5-10.5-17.6
		c-1.7-11.8,3.1-26.9,14.7-32.3c6.4-2.9,15.3-3.2,19.9,3c3,4.1,3,11.4,0.6,15.7c-4,7.2-12.9,13.1-21.5,12.4c0.3,2.4,0.9,4.7,1.8,7
		c0.7,1.8,1.6,3.6,3,4.9c1.5,1.4,1.8,1.7,3.3,2.1c4.9,1.3,9.6-1.7,13.4-4.4c8.6-6.1,16.9-15.5,20.8-25.4
		C462.9,264.9,466.1,266.7,465,268.5z M419.6,279.5c3.6-0.2,7-0.7,10.4-2.6c3.9-2.2,7.8-6.2,8.5-10.8c0.8-5.1-3.7-6.5-7.8-5
		c-2.1,0.7-3.8,2.2-5.3,3.8c-1.4,1.4-1.7,1.9-2.6,3.5C420.7,271.9,419.7,275.7,419.6,279.5z"/>
</g>
<g>
	<path class="st0" d="M275.6,513.6c-6.6,7.3-16.3,14.6-26.5,12.8c0,0.3-0.1,0.5-0.1,0.8c5.4,5.5,9,13.6,11,20.7c1,3.8,2,8,1.4,12
		c-0.5,3.4-2,7.3-5.5,8.6c-3.8,1.4-8.1-0.4-10.6-3.4c-3-3.6-4.5-8.6-5.3-13.1c-3.6-20,0.6-41.1,5.4-60.5c1.5-6.1,10.5-3.1,9.4,2.7
		c-2,10.2-4.4,20.3-5.5,30.6c9.7,1.5,18.7-5.4,25.1-12.3C275,511.5,276.3,512.8,275.6,513.6z M248.7,531.5
		c-0.4,7.8,0.2,15.6,1.4,23.4c0.4,2.7,1.6,9.7,5.8,8.3c4.9-1.7,2.4-10.4,1.5-13.9c-1.1-4.4-2.9-8.7-5.1-12.6
		C251.2,534.8,250,533.2,248.7,531.5z"/>
	<path class="st0" d="M317.3,513.3c-0.8,4-2.7,8-4.6,11.6c-1.5,2.7-3.1,5.5-5.3,7.7c-2.5,2.6-7.4,5.7-11.1,4.4
		c-4.6-1.6-6.6-6.2-7.4-10.7c-1.8,4-4.1,7.8-7.4,9.8c-4.2,2.5-8.6-1-10.8-4.8c-3.4-5.8-2.7-13.4-0.6-19.5c1.9-5.6,5.9-12.4,12.4-11
		c3.1,0.7,5.6,2.4,7.3,5.2c0.2,0.3,0.3,0.5,0.5,0.8c0.3-1.1,0.6-2.2,0.9-3.3c1.8-6.1,11.2-3.1,9.5,2.8c-1.9,6.9-3.7,15.2-2.7,21.6
		c0.3,1.9,0.8,3.2,1.7,4.2c1.8,2.2,3.8,1.2,5.7-0.5c5.8-4.9,7.7-12.3,10.9-18.8C316.6,512.2,317.4,512.7,317.3,513.3z M289.3,511
		c-0.5-1.6-1.3-3.1-2.7-3.8c-1.9-0.9-4.8,2-5.8,3.2c-2.6,3.4-3.1,8.8-3.2,13.3c0,2.6,1.1,10.5,4.1,8.5c3.5-2.4,5.2-6.4,6.7-10.5
		C288.3,518.2,288.7,514.6,289.3,511z"/>
	<path class="st0" d="M384.3,514.1c-2.4,7.5-4.5,15.9-10.3,21.7c-5,5-13.3,8-18.2,1.2c-2.5-3.5-2.7-8.2-3-12.3
		c-0.4-4.7-0.6-9.1-0.3-13.9c0-0.5,0.2-1.4-0.1-1.9c-0.9-1.5-2.8,0.2-3.5,1c-1.4,1.6-2.4,3.6-3.3,5.5c-0.9,1.9-1.8,3.9-2.6,5.8
		c-0.7,1.7-1.1,3.4-2,5c0,0.1,0,0.1,0,0.2c-1.2,5.6-9.8,3.8-9.7-1.5c0-0.7,0.1-1.4,0.2-2.1c0-0.1,0-0.3,0.1-0.5
		c0.1-1.1,0.2-2.1,0.3-3.2c0.2-2.7,0.2-5.3,0.3-8c0-2.4,0.3-4.9-0.2-7.3c-0.1-0.3-0.3-1.5-0.7-1.8c-0.8-0.7-1.9,0.7-2.4,1.5
		c-2.9,4.1-3.9,9.9-5.2,14.7c-0.6,2.5-1.1,5.1-1.9,7.5c0.1,3.3,0.5,7.7-2,9.7c-1.9,1.5-4.1,1.5-5.9-0.2c-3-2.8-2-7.6-2-11.4
		c0-3.8-0.1-7.6,0.2-11.3c0.4-6.3,9.3-5.8,9.6,0.3c0.1,1,0.1,2,0.1,2.9c1.4-6,6.1-25.3,15.3-16.5c3.6,3.5,4.6,9.3,4.7,14.1
		c0,1.5,0.1,3,0,4.6c0.4-0.8,0.8-1.6,1.1-2.4c1.4-3.2,2.7-7.2,5.6-9.5c2.7-2.1,5.8-2,8.5,0c3.5,2.6,4.4,7.4,4.9,11.4
		c0.5,4.2,0.4,8.8,1.4,12.9c0.7,2.8,2.3,6.3,5.8,5.3c3.9-1.1,6.2-6,7.9-9.3c2-4.1,4-8.4,5-12.8C382.3,511.8,384.8,512.7,384.3,514.1
		z"/>
	<path class="st0" d="M408.9,513.3c-0.8,4-2.7,8-4.6,11.6c-1.5,2.7-3.1,5.5-5.3,7.7c-2.5,2.6-7.4,5.7-11.1,4.4
		c-4.8-1.6-6.8-6.5-7.5-11.1c-1.1-7.4,0.2-15.2,2.2-22.3c1.8-6.1,11.2-3.1,9.5,2.8c-1.9,6.9-3.7,15.2-2.7,21.6
		c0.3,1.9,0.8,3.2,1.7,4.2c1.8,2.2,3.8,1.2,5.7-0.5c5.8-4.9,7.7-12.3,10.9-18.8C408.1,512.2,409,512.7,408.9,513.3z M385,493.7
		c0-0.6,0.1-1.2,0.3-1.7c0.2-0.6,0.5-1.1,0.9-1.5c0.9-0.9,2.1-1.3,3.3-1.3c1.3,0,2.4,0.6,3.4,1.5c0.9,0.9,1.4,2.1,1.5,3.4
		c0,0.6-0.1,1.2-0.3,1.7c-0.2,0.6-0.5,1.1-0.9,1.5c-0.9,0.9-2.1,1.3-3.3,1.3c-1.3,0-2.4-0.6-3.4-1.5
		C385.6,496.2,385.1,494.9,385,493.7z"/>
	<path class="st0" d="M441.6,515.1c-2.8,6.4-6,13.2-11.1,18.2c-4.1,4-10.2,6.7-15,2.4c-3.8-3.4-5.7-8.3-7.3-13
		c-2-6.2-2.5-12.5-2.6-19c-0.2-12.4,0.6-25.6,5-37.3c0.4-1.1,0.5-1.4,0.3-0.7c0.1-0.3,0.3-0.7,0.4-1c0.1-0.2,0.2-0.4,0.3-0.7
		c0.2-0.5,0.5-0.9,0.7-1.4c0.9-1.6,0.8-1.5,1.9-2.8c1.5-1.8,3.7-3.3,5.9-4.2c6.9-3.2,13.1,2.5,13.3,9.3c0.2,6.4-2.5,13-5.1,18.8
		c-3.1,6.7-7.5,12.7-12.9,17.8c0,2.4,0,4.8,0.2,7.3c0.1,2.7,0.4,5.5,0.8,8.2c0.3,2.4,0.2,4.7,0.6,6.6c0.4,2,0.9,4,1.6,6
		c0.4,1.1,1.4,2.7,2,3.4c0.5,0.6,1.3,1.6,1.3,1.6c1.3,0.9,2.8,0.6,4.2,0.1c2.8-1.2,4.8-3.8,6.5-6.3c3-4.4,5.3-9.2,7.3-14.2
		C440.3,512.8,442.1,513.9,441.6,515.1z M415.5,498.3c4.5-4.9,8.3-10.3,11-16.4c2.4-5.6,5.9-13.6,3.8-19.6c-1-2.9-4.7-4.6-7.3-2.5
		c-0.9,0.7-1.5,1.8-1.9,2.8c0,0,0,0.1,0,0.1c0,0,0,0.1,0,0.1c-0.1,0.3-0.2,0.5-0.3,0.8c0-0.1,0-0.1-0.1,0.3
		c-1.2,3.9-2.2,7.8-2.8,11.8C416.5,483.3,415.7,490.7,415.5,498.3z"/>
	<path class="st0" d="M481.3,513.3c-4.4,4.4-9.3,8.3-14,12.4c-0.4,5-0.8,9.9-1.4,14.8c-1.2,10.6-2.6,24.2-11.9,31.3
		c-2.6,2-5.4,4-8.8,3.1c-3-0.8-5.4-3.4-6.5-6.2c-1.9-4.8-0.8-10.7,1.2-15.3c3.7-8.2,10.4-15.2,17-21.5c0-0.3,0.1-0.6,0.1-0.8
		c0.3-3.5,0.6-7,0.8-10.5c-1,3.8-2.2,7.6-3.9,11.1c-1.6,3.4-5.5,7.6-9.7,5.5c-5.7-2.9-6.9-10.9-6.9-16.6c0-5.2,0.8-10.5,1.8-15.6
		c1.3-6.3,10.7-3.2,9.6,2.8c-0.7,3.6-1.3,7.3-1.7,11c-0.4,3.9-1.3,9,0.2,12.8c0.6,1.4,1.3,2.4,2.7,1.2c1.3-1.2,2.2-2.9,3-4.4
		c2.7-5.2,3.9-11.2,5.2-16.8c0-0.1,0.1-0.2,0.1-0.3c0.1-1.9,0.1-3.7,0.2-5.6c0.2-6.5,10-5.9,9.8,0.3c-0.2,5.4-0.4,10.7-0.7,16.1
		c4-3.6,8.2-7.2,12.8-9.9C481.1,511.6,481.9,512.7,481.3,513.3z M456.5,535.8c-5.4,5.4-10.6,11.4-13.7,18.2
		c-1.8,4-2.5,10.7,0.2,14.4c2.1,3,5.4,2.6,7-0.6c1.1-2.1,1.8-3.7,2.3-5.9c1.1-4.7,1.8-9.6,2.6-14.3
		C455.6,543.7,456.1,539.7,456.5,535.8z"/>
</g>
</svg>

