<?xml version="1.0" encoding="utf-8"?>
<!-- Generator: Adobe Illustrator 23.0.5, SVG Export Plug-In . SVG Version: 6.00 Build 0)  -->
<svg height="500" width="500" version="1.1" xmlns="http://www.w3.org/2000/svg" xmlns:xlink="http://www.w3.org/1999/xlink" x="0px" y="0px"
	 viewBox="0 0 720 720" style="enable-background:new 0 0 720 720;" xml:space="preserve">
<style type="text/css">
	.st0{fill:#050002;}
	.st1{fill-rule:evenodd;clip-rule:evenodd;fill:#050002;}
	.st2{fill-rule:evenodd;clip-rule:evenodd;}
	.st3{fill:#221F1F;}
	.st4{fill:#231F20;}
	.st5{fill:#070808;}
	.st6{fill:#211E1F;}
	.st7{fill:#161616;}
	.st8{fill:#131313;}
	.st9{fill:#21201F;}
	.st10{fill:#2C2929;}
</style>
<g>
	<g>
		<g>
			<path class="st0" d="M147.9,339.1c-0.5,0.9-1.4,1.6-2.3,2.2c-1,0.7-2.1,1.4-3.1,2c-2.2,1.3-4.5,2.5-6.7,3.7
				c-5.7,3-11.7,5.9-16.6,10.1H142c0.7-1.3,1.4-2.6,2-4c-0.2,1-0.5,1.9-0.7,2.9c-0.1,0.4-0.2,0.7-0.2,1.1h9.1
				c-2.1-2.3-3.9-4.8-5.2-7.7c1.8-7,4.1-14,6.8-20.7c0.4,0.3,0.8,0.6,1.4,0.7c1.6,0.5,3.2-0.3,4.6-1.1c1.4-0.9,2.6-2.1,3.6-3.5
				c3.9-5.6,3.9-13.1,3.8-19.7c-0.1-6.5-0.4-13.2,1.8-19.4c0.1-0.2,0.2-0.3,0.3-0.5c0.5-0.5,0.9-1,1.3-1.6c0,0,0.1-0.1,0.1-0.1
				c1.2-1.4,2.4-2.8,3.6-4.3c0,0,0,0,0,0c0,0,0,0,0,0c0.8-1,1.6-1.9,2.4-2.9c0,0,0,0,0,0c1-1.2,2.3-2.7,3.6-4.3
				c-0.9,2.4-1.5,4.9-1.7,7.4c-0.3,3.3-0.2,6.5-0.3,9.7c0,3.3-0.1,6.6-0.1,9.9c0,1.7-0.1,3.4-0.1,5c0,1.4,1,2.3,2.3,1.7
				c1.2-0.5,2.4-1.9,3.3-2.9c1.1-1.2,2-2.6,2.9-4c3.2-5.5,3.8-11.5,3.1-17.1c-0.4-3.3-1.2-6.5-2-9.7c-0.5-2.4-1.2-5-1.1-7.6
				c0.5-0.6,1-1.2,1.5-1.8c0.1-0.2,0.3-0.3,0.4-0.5c0.1-0.1,0.2-0.2,0.3-0.3c0,0,0.1-0.1,0.1-0.1c6.4-7.3,12.9-14.5,19.8-21.3
				c1.6-1.6,3.2-3.2,4.8-4.7c-0.2,0.2-0.3,0.5-0.5,0.7c-1.2,1.9-2.4,3.8-3.4,5.7c-2.1,3.9-3.7,8-5,12.3c-2.4,8.4-3.5,17.1-6.3,25.4
				c-0.4,1.1-0.7,2.1-1.1,3.2c-0.3,1-0.8,2.2-0.8,3.3c0,2.7,3.9,1.5,5.4,0.9c4.1-1.7,7.6-5.1,10-8.8c2.4-3.7,3.9-7.8,4.7-12.1
				c0.8-4.4,0.8-8.8,0.6-13.2c-0.1-4.3-0.4-8.6,0.1-12.9c0.4-3.8,1.4-7.9,3.6-11.2c0.1-0.1,0.1-0.2,0.2-0.3c2.8-2.5,5.7-5,8.7-7.4
				c4.9-4,10-7.8,15.2-11.3c-2,2.5-3.6,5.3-5,8.1c-2.5,4.7-4.8,9.5-6.9,14.5c-4,9.6-6.8,19.7-11.4,29c-0.3,0.6-0.5,1.1-0.4,1.8
				c0.2,0.7,0.7,1,1.3,1.3c1,0.5,2.1,0.7,3.1,0.8c2.3,0.2,4.7-0.2,6.9-0.8c4.6-1.3,8.7-4,12-7.4c6.6-6.7,9.7-16.1,10.2-25.4
				c0.5-9.5-2.6-19.6,1-28.8c6.3-3.7,12.8-7,19.5-9.8c0,0.5,0.2,1,0.5,1.5c0.8,1.5,2.5,2.1,4,2.4c1.6,0.4,3.4,0.3,5,0
				c6.8-1.2,12-6.5,16.6-11.2c4.5-4.6,9.1-9.6,15-12.5c0.2,0,0.4-0.1,0.5-0.1c0.7,0,1.4-0.1,2-0.2c0.1,0,0.1,0,0.2,0
				c1.8-0.2,3.7-0.3,5.5-0.5h0c0,0,0,0,0,0c1.2-0.1,2.5-0.2,3.7-0.3c0,0,0,0,0,0c1.6-0.1,3.5-0.3,5.6-0.5c-2.3,1.1-4.5,2.4-6.4,4
				c-2.5,2.1-4.8,4.4-7.1,6.7c-2.4,2.3-4.8,4.6-7.1,6.9c-1.2,1.2-2.4,2.3-3.6,3.5c-1,1-1,2.3,0.4,2.8c1.2,0.5,3,0.3,4.4,0.2
				c1.6-0.1,3.3-0.4,4.8-0.8c6.2-1.6,10.9-5.5,14.3-9.9c2.1-2.7,3.7-5.5,5.5-8.3c1.3-2.1,2.7-4.3,4.6-6.1c0.8-0.1,1.5-0.1,2.3-0.2
				c0.2,0,0.4,0,0.6,0c0.2,0,0.3,0,0.4,0c0.1,0,0.1,0,0.2,0c9.7-0.7,19.4-1.1,29-1.1c2.3,0,4.5,0,6.8,0.1c-0.3,0.1-0.6,0.1-0.8,0.2
				c-2.2,0.4-4.3,1-6.5,1.6c-4.2,1.3-8.3,3-12.2,5.2c-7.6,4.2-14.6,9.7-22.4,13.5c-1,0.5-2,1-3,1.5c-1,0.5-2.1,1-2.9,1.8
				c-1.9,1.9,1.7,3.8,3.2,4.5c4.1,1.7,9,1.8,13.3,0.9c4.3-0.9,8.3-2.8,11.9-5.3c3.7-2.5,6.8-5.7,9.8-8.9c3-3.1,5.8-6.4,9.2-9.1
				c3-2.4,6.6-4.6,10.4-5.3c0.1,0,0.2-0.1,0.3-0.1c3.8,0.2,7.6,0.5,11.4,0.9c6.3,0.6,12.6,1.5,18.8,2.7c-3.1,0.4-6.3,1.2-9.3,2.1
				c-5.1,1.6-10.1,3.4-15.1,5.4c-9.6,3.9-18.7,9.1-28.6,12.5c-0.6,0.2-1.2,0.4-1.5,1c-0.4,0.6-0.2,1.2,0,1.9c0.4,1,0.9,2,1.6,2.8
				c1.5,1.8,3.4,3.2,5.5,4.3c4.2,2.3,9,3.3,13.7,3.3c9.4-0.1,18.3-4.5,25.2-10.8c7-6.4,12.1-15.7,21.1-19.6c7,1.8,14,4.1,20.7,6.8
				c-0.3,0.4-0.6,0.8-0.7,1.4c-0.5,1.6,0.3,3.2,1.1,4.6c0.9,1.4,2.1,2.6,3.5,3.6c5.6,3.9,13.1,3.9,19.7,3.8
				c6.5-0.1,13.2-0.4,19.4,1.8c0.2,0.1,0.3,0.2,0.5,0.3c0.5,0.5,1,0.9,1.6,1.3c0,0,0.1,0.1,0.1,0.1c1.4,1.2,2.8,2.4,4.3,3.6
				c0,0,0,0,0,0c0,0,0,0,0,0c1,0.8,1.9,1.6,2.9,2.4c0,0,0,0,0,0c1.2,1,2.7,2.3,4.3,3.6c-2.4-0.9-4.9-1.5-7.4-1.7
				c-3.3-0.3-6.5-0.2-9.7-0.3c-3.3,0-6.6-0.1-9.9-0.1c-1.7,0-3.4-0.1-5-0.1c-1.4,0-2.3,1-1.7,2.3c0.5,1.2,1.9,2.4,2.9,3.3
				c1.2,1.1,2.6,2,4,2.9c5.5,3.2,11.5,3.8,17.1,3.1c3.3-0.4,6.5-1.2,9.7-2c2.4-0.5,5-1.2,7.6-1.1c0.6,0.5,1.2,1,1.8,1.5
				c0.2,0.1,0.3,0.3,0.5,0.4c0.1,0.1,0.2,0.2,0.3,0.3c0,0,0.1,0.1,0.1,0.1c7.3,6.4,14.5,12.9,21.3,19.8c1.6,1.6,3.2,3.2,4.7,4.8
				c-0.2-0.2-0.5-0.3-0.7-0.5c-1.9-1.2-3.8-2.4-5.7-3.4c-3.9-2.1-8-3.7-12.3-5c-8.4-2.4-17.1-3.5-25.4-6.3c-1.1-0.4-2.1-0.7-3.2-1.1
				c-1-0.3-2.2-0.8-3.3-0.8c-2.7,0-1.5,3.9-0.9,5.4c1.7,4.1,5.1,7.6,8.8,10c3.7,2.4,7.8,3.9,12.1,4.7c4.4,0.8,8.8,0.8,13.2,0.6
				c4.3-0.1,8.6-0.4,12.9,0.1c3.8,0.4,7.9,1.4,11.2,3.6c0.1,0.1,0.2,0.1,0.3,0.2c2.5,2.8,5,5.7,7.4,8.7c4,4.9,7.8,10,11.3,15.2
				c-2.5-2-5.3-3.6-8.1-5c-4.7-2.5-9.5-4.8-14.5-6.9c-9.6-4-19.7-6.8-29-11.4c-0.6-0.3-1.1-0.5-1.8-0.4c-0.7,0.2-1,0.7-1.3,1.3
				c-0.5,1-0.7,2.1-0.8,3.1c-0.2,2.3,0.2,4.7,0.8,6.9c1.3,4.6,4,8.7,7.4,12c6.7,6.6,16.1,9.7,25.4,10.2c9.5,0.5,19.6-2.6,28.8,1
				c3.7,6.3,7,12.8,9.8,19.5c-0.5,0-1,0.2-1.5,0.5c-1.5,0.8-2.1,2.5-2.4,4c-0.4,1.6-0.3,3.4,0,5c1.2,6.8,6.5,12,11.2,16.6
				c4.6,4.5,9.6,9.1,12.5,15c0,0.2,0.1,0.4,0.1,0.5c0,0.7,0.1,1.4,0.2,2c0,0.1,0,0.1,0,0.2c0.2,1.8,0.3,3.7,0.5,5.5v0c0,0,0,0,0,0
				c0.1,0.9,0.2,1.8,0.3,2.8h1.8c-0.4-3.2-0.7-6.3-1.2-9.5c-0.1-3.1,0.5-6.2,1-9.3c0.6-3.4,1.2-6.8,1.7-10.2c0.9-6,1.5-12,1-18.1
				c-0.2-2.6-0.7-5.2-1.8-7.6c-1-2.2-3-5-5.9-4.2c-2.6,0.8-3.7,3.7-4.3,6.1c-0.7,2.8-0.6,5.8-0.6,8.6c0.1,1.8,0.2,3.5,0.4,5.3
				c-0.3-0.7-0.7-1.4-1-2.1c-1.4-2.8-3-5.5-5.2-7.8c-1.1-1.1-2.6-2.5-4.3-3.2c-0.3-0.7-0.6-1.5-0.9-2.2c-1.4-3.3-3-6.5-4.6-9.7
				c-0.3-1-0.1-2.1,0.1-3.2c0.2-1.2,0.5-2.4,0.8-3.7c0.6-2.5,1.4-5,2.1-7.4c2.5-8.1,5.4-16.3,4.7-24.9c-0.7-7.8-5.2-15.9-13.2-18.2
				c-0.6-0.2-1.2,0.1-1.3,0.8c-0.8,4.3-1.7,8.7-2.4,13c-0.6,3.7-1.1,7.4-1.2,11.1c-0.1,3.3,0.1,6.7,0.7,9.9c0.5,3.3,1.4,6.6,2.6,9.8
				c-0.5-0.8-1-1.7-1.6-2.5c-3.3-5.1-6.8-10.1-10.5-14.9c-0.7-4.2-0.2-8.5,0.3-12.7c0.5-4.2,0.8-8.5,0.8-12.7
				c0-4.3,0.1-8.7-0.3-13.1c-0.7-8.2-4.1-16.3-9.5-22.5c-0.5-0.6-1.5-0.5-1.9,0.3c-1.7,4-1.9,8.5-1.4,12.8c0.4,4.3,1.4,8.5,1.7,12.8
				c0.3,4,0.3,8,0.6,12c0.3,4.2,1.1,8.2,2.5,12.1c0.6,1.6,1.3,3.1,2,4.6c-0.4-0.5-0.8-0.9-1.1-1.4c-4.3-5.1-8.8-10-13.4-14.8
				c-0.7-3.4,0.2-6.9,0.9-10.3c0.8-3.7,1.8-7.4,2.2-11.2c0.7-6.3,0-12.7-3.9-17.9c-1-1.3-2.2-2.6-3.4-3.6c-1.1-0.9-2.5-2.1-3.9-2.4
				c-1.6-0.3-2.7,0.9-2.7,2.5c0,1.8,0.1,3.7,0.1,5.5c0.1,3.6,0.2,7.2,0.3,10.9c0.1,3.5,0,7.1,0.4,10.6c0.3,2.9,1.2,5.8,2.5,8.4
				c-4.3-4.1-8.6-8.1-13-12c-0.3-0.6-0.5-1.3-0.7-1.9c-0.8-3.6-0.2-7.3,0.3-11c0.5-3.8,0.9-7.7,0.9-11.6c0-3.9-0.6-7.8-2-11.4
				c-1.5-4-4-7.5-7-10.6c-2.7-2.8-6-5.6-9.8-6.7c-1.7-0.5-4.1-0.8-5.4,0.8c-1.3,1.6-0.1,3.9,0.5,5.5c2.9,8.7,5.7,17.5,8.7,26.2
				c1.4,4.3,2.8,8.6,5.3,12.4c0.2,0.3,0.5,0.7,0.7,1c-6.2-5.2-12.4-10.4-18.9-15.2c-2.3-2.2-4.1-4.7-5.9-7.3c-2-2.8-4-5.6-6-8.4
				c-3.6-4.8-7.5-9.6-12.1-13.5c-2-1.7-4.2-3.2-6.6-4.1c-2.3-0.8-5.7-1.4-7.1,1.2c-1.3,2.4,0,5.3,1.3,7.3c1.5,2.4,3.6,4.5,5.7,6.5
				c1.3,1.2,2.7,2.4,4.1,3.4c-0.7-0.3-1.5-0.5-2.2-0.7c-3-0.9-6.1-1.7-9.2-1.8c-1.6,0-3.6,0.1-5.3,0.8c-0.7-0.3-1.5-0.6-2.2-0.9
				c-3.3-1.3-6.7-2.5-10.1-3.6c-0.9-0.5-1.6-1.4-2.2-2.3c-0.7-1-1.4-2.1-2-3.1c-1.3-2.2-2.5-4.5-3.7-6.7
				c-3.9-7.5-7.7-15.4-14.3-20.9c-6-5-15-7.6-22.2-3.6c-0.6,0.3-0.8,0.9-0.4,1.5c2.5,3.7,4.9,7.3,7.5,10.9c2.2,3,4.4,6,7,8.8
				c2.3,2.4,4.8,4.6,7.5,6.6c2.7,2,5.7,3.7,8.8,5.1c-1-0.2-1.9-0.5-2.9-0.7c-5.9-1.3-12-2.3-18-3.1c-3.5-2.4-6.1-5.8-8.7-9.2
				c-2.6-3.4-5.4-6.5-8.4-9.6c-3.1-3.1-6.1-6.3-9.4-9c-6.3-5.3-14.4-8.6-22.6-9.2c-0.8-0.1-1.4,0.7-1.1,1.5c1.6,4.1,4.6,7.3,8,10.1
				c3.3,2.7,7,5,10.3,7.8c3.1,2.6,5.9,5.5,8.9,8.1c3.1,2.7,6.5,5,10.3,6.8c1.5,0.7,3.1,1.3,4.6,1.8c-0.6-0.1-1.2-0.1-1.8-0.2
				c-6.6-0.6-13.3-0.9-20-1c-2.9-1.9-4.8-5.1-6.6-7.9c-2-3.2-4-6.5-6.3-9.4c-3.9-5-9-9-15.5-9.9c-1.7-0.2-3.3-0.3-5-0.1
				c-1.4,0.1-3.2,0.3-4.4,1.1c-1.4,0.9-1.3,2.6-0.2,3.7c1.3,1.3,2.7,2.5,4,3.8c2.6,2.5,5.2,5,7.9,7.5c2.5,2.4,5,5,7.8,7.2
				c2.3,1.8,5,3.2,7.8,4.2c-5.9,0.1-11.8,0.3-17.7,0.7c-0.6-0.2-1.3-0.5-1.8-0.9c-3.1-2-5.4-5-7.6-7.9c-2.3-3.1-4.8-6.1-7.6-8.8
				c-2.8-2.7-5.9-5.1-9.5-6.7c-3.9-1.7-8.2-2.5-12.4-2.5c-3.9,0-8.2,0.3-11.7,2.2c-1.6,0.9-3.4,2.3-3.2,4.3c0.2,2,2.7,2.8,4.2,3.6
				c8.2,4.1,16.4,8.3,24.6,12.4c4,2,8,4.1,12.5,5c0.4,0.1,0.8,0.1,1.2,0.2c-8.1,0.7-16.1,1.4-24.1,2.6c-3.1,0.1-6.2-0.5-9.3-1
				c-3.4-0.6-6.8-1.2-10.2-1.7c-6-0.9-12-1.5-18.1-1c-2.6,0.2-5.2,0.7-7.6,1.8c-2.2,1-5,3-4.2,5.9c0.8,2.6,3.7,3.7,6.1,4.3
				c2.8,0.7,5.8,0.6,8.6,0.6c1.8-0.1,3.5-0.2,5.3-0.4c-0.7,0.3-1.4,0.7-2.1,1c-2.8,1.4-5.5,3.1-7.8,5.2c-1.1,1.1-2.5,2.6-3.2,4.3
				c-0.7,0.3-1.5,0.6-2.2,0.9c-3.3,1.4-6.5,3-9.7,4.6c-1,0.3-2.1,0.1-3.2-0.1c-1.2-0.2-2.4-0.5-3.7-0.8c-2.5-0.6-5-1.4-7.4-2.1
				c-8.1-2.5-16.3-5.4-24.9-4.7c-7.8,0.7-15.9,5.2-18.2,13.2c-0.2,0.6,0.1,1.2,0.8,1.3c4.3,0.8,8.7,1.7,13,2.4
				c3.7,0.6,7.4,1.1,11.1,1.2c3.3,0.1,6.7-0.1,9.9-0.7c3.3-0.5,6.6-1.4,9.8-2.6c-0.8,0.5-1.7,1-2.5,1.6c-5.1,3.3-10.1,6.8-14.9,10.5
				c-4.2,0.7-8.5,0.2-12.7-0.3c-4.2-0.5-8.5-0.8-12.7-0.8c-4.3,0-8.7-0.1-13.1,0.3c-8.2,0.7-16.3,4.1-22.5,9.5
				c-0.6,0.5-0.5,1.5,0.3,1.9c4,1.7,8.5,1.9,12.8,1.4c4.3-0.4,8.5-1.4,12.8-1.7c4-0.3,8-0.3,12-0.6c4.2-0.3,8.2-1.1,12.1-2.5
				c1.6-0.6,3.1-1.3,4.6-2c-0.5,0.4-0.9,0.8-1.4,1.1c-5.1,4.3-10,8.8-14.8,13.4c-3.4,0.7-6.9-0.2-10.3-0.9
				c-3.7-0.8-7.4-1.8-11.2-2.2c-6.3-0.7-12.7,0-17.9,3.9c-1.3,1-2.6,2.2-3.6,3.4c-0.9,1.1-2.1,2.5-2.4,3.9c-0.3,1.6,0.9,2.7,2.5,2.7
				c1.8,0,3.7-0.1,5.5-0.1c3.6-0.1,7.2-0.2,10.9-0.3c3.5-0.1,7.1,0,10.6-0.4c2.9-0.3,5.8-1.2,8.4-2.5c-4.1,4.3-8.1,8.6-12,13
				c-0.6,0.3-1.3,0.5-1.9,0.7c-3.6,0.8-7.3,0.2-11-0.3c-3.8-0.5-7.7-0.9-11.6-0.9c-3.9,0-7.8,0.6-11.4,2c-4,1.5-7.5,4-10.6,7
				c-2.8,2.7-5.6,6-6.7,9.8c-0.5,1.7-0.8,4.1,0.8,5.4c1.6,1.3,3.9,0.1,5.5-0.5c8.7-2.9,17.5-5.7,26.2-8.7c4.3-1.4,8.6-2.8,12.4-5.3
				c0.3-0.2,0.7-0.5,1-0.7c-5.2,6.2-10.4,12.4-15.2,18.9c-2.2,2.3-4.7,4.1-7.3,5.9c-2.8,2-5.6,4-8.4,6c-4.8,3.6-9.6,7.5-13.5,12.1
				c-1.7,2-3.2,4.2-4.1,6.6c-0.8,2.3-1.4,5.7,1.2,7.1c2.4,1.3,5.3,0,7.3-1.3c2.4-1.5,4.5-3.6,6.5-5.7c1.2-1.3,2.4-2.7,3.4-4.1
				c-0.3,0.7-0.5,1.5-0.7,2.2c-0.9,3-1.7,6.1-1.8,9.2c0,1.6,0.1,3.6,0.8,5.3c-0.3,0.7-0.6,1.5-0.9,2.2
				C150.2,332.3,149,335.7,147.9,339.1z M642,332.4c-0.9-1.6-2.3-3.4-4.3-3.2c-2,0.2-2.8,2.7-3.6,4.2c-4,7.9-8,15.8-11.9,23.7h19.2
				c0.1-0.2,0.2-0.4,0.3-0.6c1.7-3.9,2.5-8.2,2.5-12.4C644.2,340.2,643.9,335.9,642,332.4z M596.3,342.9c-1.2-1.2-2.3-2.4-3.5-3.6
				c-1-1-2.3-1-2.8,0.4c-0.5,1.2-0.3,3-0.2,4.4c0.1,1.6,0.4,3.3,0.8,4.8c0.8,3.1,2.2,5.8,3.9,8.1h15.6c-2.1-2.5-4.4-4.8-6.7-7.1
				C600.9,347.7,598.6,345.3,596.3,342.9z M619.3,494.2c-2.4-1.3-5.3,0-7.3,1.3c-2.4,1.5-4.5,3.6-6.5,5.7c-1.2,1.3-2.4,2.7-3.4,4.1
				c0.3-0.7,0.5-1.5,0.7-2.2c0.9-3,1.7-6.1,1.8-9.2c0-1.6-0.1-3.6-0.8-5.3c0.3-0.7,0.6-1.5,0.9-2.2c1.1-2.7,2.1-5.5,3-8.3h-2.2
				c-1,2.9-2,5.7-3.1,8.5c-0.4-0.3-0.8-0.6-1.4-0.7c-1.6-0.5-3.2,0.3-4.6,1.1c-1.4,0.9-2.6,2.1-3.6,3.5c-3.9,5.6-3.9,13.1-3.8,19.7
				c0.1,6.5,0.4,13.2-1.8,19.4c-0.1,0.2-0.2,0.3-0.3,0.5c-0.5,0.5-0.9,1-1.3,1.6c0,0-0.1,0.1-0.1,0.1c-1.2,1.4-2.4,2.8-3.6,4.3
				c0,0,0,0,0,0c0,0,0,0,0,0c-0.8,1-1.6,1.9-2.4,2.9c0,0,0,0,0,0c-1,1.2-2.3,2.7-3.6,4.3c0.9-2.4,1.5-4.9,1.7-7.4
				c0.3-3.3,0.2-6.5,0.3-9.7c0-3.3,0.1-6.6,0.1-9.9c0-1.7,0.1-3.4,0.1-5c0-1.4-1-2.3-2.3-1.7c-1.2,0.5-2.4,1.9-3.3,2.9
				c-1.1,1.2-2,2.6-2.9,4c-3.2,5.5-3.8,11.5-3.1,17.1c0.4,3.3,1.2,6.5,2,9.7c0.5,2.4,1.2,5,1.1,7.6c-0.5,0.6-1,1.2-1.5,1.8
				c-0.1,0.2-0.3,0.3-0.4,0.5c-0.1,0.1-0.2,0.2-0.3,0.3c0,0-0.1,0.1-0.1,0.1c-6.4,7.3-12.9,14.5-19.8,21.3c-1.6,1.6-3.2,3.2-4.8,4.7
				c0.2-0.2,0.3-0.5,0.5-0.7c1.2-1.9,2.4-3.8,3.4-5.7c2.1-3.9,3.7-8,5-12.3c2.4-8.4,3.5-17.1,6.3-25.4c0.4-1.1,0.7-2.1,1.1-3.2
				c0.3-1,0.8-2.2,0.8-3.3c0-2.7-3.9-1.5-5.4-0.9c-4.1,1.7-7.6,5.1-10,8.8c-2.4,3.7-3.9,7.8-4.7,12.1c-0.8,4.4-0.8,8.8-0.6,13.2
				c0.1,4.3,0.4,8.6-0.1,12.9c-0.4,3.8-1.4,7.9-3.6,11.2c-0.1,0.1-0.1,0.2-0.2,0.3c-2.8,2.5-5.7,5-8.7,7.4c-4.9,4-10,7.8-15.2,11.3
				c2-2.5,3.6-5.3,5-8.1c2.5-4.7,4.8-9.5,6.9-14.5c4-9.6,6.8-19.7,11.4-29c0.3-0.6,0.5-1.1,0.4-1.8c-0.2-0.7-0.7-1-1.3-1.3
				c-1-0.5-2.1-0.7-3.1-0.8c-2.3-0.2-4.7,0.2-6.9,0.8c-4.6,1.3-8.7,4-12,7.4c-6.6,6.7-9.7,16.1-10.2,25.4c-0.5,9.5,2.6,19.6-1,28.8
				c-6.3,3.7-12.8,7-19.5,9.9c0-0.5-0.2-1-0.5-1.5c-0.8-1.5-2.5-2.1-4-2.4c-1.6-0.4-3.4-0.3-5,0c-6.8,1.2-12,6.5-16.6,11.2
				c-4.5,4.6-9.1,9.6-15,12.5c-0.2,0-0.4,0.1-0.5,0.1c-0.7,0-1.4,0.1-2,0.2c-0.1,0-0.1,0-0.2,0c-1.8,0.2-3.7,0.3-5.5,0.5h0
				c0,0,0,0,0,0c-1.2,0.1-2.5,0.2-3.7,0.3c0,0,0,0,0,0c-1.6,0.1-3.5,0.3-5.6,0.5c2.3-1.1,4.5-2.4,6.4-4c2.5-2.1,4.8-4.4,7.1-6.7
				c2.4-2.3,4.8-4.6,7.1-6.9c1.2-1.2,2.4-2.3,3.6-3.5c1-1,1-2.3-0.4-2.8c-1.2-0.5-3-0.3-4.4-0.2c-1.6,0.1-3.3,0.4-4.8,0.8
				c-6.2,1.6-10.9,5.5-14.3,9.9c-2.1,2.7-3.7,5.5-5.5,8.3c-1.3,2.1-2.7,4.3-4.6,6.1c-0.8,0.1-1.5,0.1-2.3,0.2c-0.2,0-0.4,0-0.6,0
				c-0.2,0-0.3,0-0.4,0c-0.1,0-0.1,0-0.2,0c-9.7,0.7-19.4,1.1-29,1.1c-2.3,0-4.5,0-6.8-0.1c0.3-0.1,0.6-0.1,0.8-0.2
				c2.2-0.4,4.3-1,6.5-1.6c4.2-1.3,8.3-3,12.2-5.2c7.6-4.2,14.6-9.7,22.4-13.5c1-0.5,2-1,3-1.5c1-0.5,2.1-1,2.9-1.8
				c1.9-1.9-1.7-3.8-3.2-4.5c-4.1-1.7-9-1.8-13.3-0.9c-4.3,0.9-8.3,2.8-11.9,5.3c-3.7,2.5-6.8,5.7-9.8,8.9c-3,3.1-5.8,6.4-9.2,9.1
				c-3,2.4-6.6,4.6-10.4,5.3c-0.1,0-0.2,0.1-0.3,0.1c-3.8-0.2-7.6-0.5-11.4-0.9c-6.3-0.6-12.6-1.5-18.8-2.7c3.1-0.4,6.3-1.2,9.3-2.1
				c5.1-1.6,10.1-3.4,15.1-5.4c9.6-3.9,18.7-9.1,28.6-12.5c0.6-0.2,1.2-0.4,1.5-1c0.4-0.6,0.2-1.2,0-1.9c-0.4-1-0.9-2-1.6-2.8
				c-1.5-1.8-3.4-3.2-5.5-4.3c-4.2-2.3-9-3.3-13.7-3.3c-9.4,0.1-18.3,4.5-25.2,10.8c-7,6.4-12.1,15.7-21.1,19.6
				c-7-1.8-14-4.1-20.7-6.8c0.3-0.4,0.6-0.8,0.7-1.4c0.5-1.6-0.3-3.2-1.1-4.6c-0.9-1.4-2.1-2.6-3.5-3.6c-5.6-3.9-13.1-3.9-19.7-3.8
				c-6.5,0.1-13.2,0.4-19.4-1.8c-0.2-0.1-0.3-0.2-0.5-0.3c-0.5-0.5-1-0.9-1.6-1.3c0,0-0.1-0.1-0.1-0.1c-1.4-1.2-2.8-2.4-4.3-3.6
				c0,0,0,0,0,0c0,0,0,0,0,0c-1-0.8-1.9-1.6-2.9-2.4c0,0,0,0,0,0c-1.2-1-2.7-2.3-4.3-3.6c2.4,0.9,4.9,1.5,7.4,1.7
				c3.3,0.3,6.5,0.2,9.7,0.3c3.3,0,6.6,0.1,9.9,0.1c1.7,0,3.4,0.1,5,0.1c1.4,0,2.3-1,1.7-2.3c-0.5-1.2-1.9-2.4-2.9-3.3
				c-1.2-1.1-2.6-2-4-2.9c-5.5-3.2-11.5-3.8-17.1-3.1c-3.3,0.4-6.5,1.2-9.7,2c-2.4,0.5-5,1.2-7.6,1.1c-0.6-0.5-1.2-1-1.8-1.5
				c-0.2-0.1-0.3-0.3-0.5-0.4c-0.1-0.1-0.2-0.2-0.3-0.3c0,0-0.1-0.1-0.1-0.1c-7.3-6.4-14.5-12.9-21.3-19.8c-1.6-1.6-3.2-3.2-4.7-4.8
				c0.2,0.2,0.5,0.3,0.7,0.5c1.9,1.2,3.8,2.4,5.7,3.4c3.9,2.1,8,3.7,12.3,5c8.4,2.4,17.1,3.5,25.4,6.3c1.1,0.4,2.1,0.7,3.2,1.1
				c1,0.3,2.2,0.8,3.3,0.8c2.7,0,1.5-3.9,0.9-5.4c-1.7-4.1-5.1-7.6-8.8-10c-3.7-2.4-7.8-3.9-12.1-4.7c-4.4-0.8-8.8-0.8-13.2-0.6
				c-4.3,0.1-8.6,0.4-12.9-0.1c-3.8-0.4-7.9-1.4-11.2-3.6c-0.1-0.1-0.2-0.1-0.3-0.2c-2.5-2.8-5-5.7-7.4-8.7c-4-4.9-7.8-10-11.3-15.2
				c2.5,2,5.3,3.6,8.1,5c4.7,2.5,9.5,4.8,14.5,6.9c9.6,4,19.7,6.8,29,11.4c0.6,0.3,1.1,0.5,1.8,0.4c0.7-0.2,1-0.7,1.3-1.3
				c0.5-1,0.7-2.1,0.8-3.1c0.2-2.3-0.2-4.7-0.8-6.9c-1.3-4.6-4-8.7-7.4-12c-6.7-6.6-16.1-9.7-25.4-10.2c-9.5-0.5-19.6,2.6-28.8-1
				c-3.7-6.3-7-12.8-9.8-19.5c0.5,0,1-0.2,1.5-0.5c1.5-0.8,2.1-2.5,2.4-4c0.4-1.6,0.3-3.4,0-5c-1.2-6.8-6.5-12-11.2-16.6
				c-2.1-2-4.2-4.1-6.2-6.2h-9.1c-0.5,3-1,6.1-1.5,9.1c-0.9,6-1.5,12-1,18.1c0.2,2.6,0.7,5.2,1.8,7.6c1,2.2,3,5,5.9,4.2
				c2.6-0.8,3.7-3.7,4.3-6.1c0.7-2.8,0.6-5.8,0.6-8.6c-0.1-1.8-0.2-3.5-0.4-5.3c0.3,0.7,0.7,1.4,1,2.1c1.4,2.8,3,5.5,5.2,7.8
				c1.1,1.1,2.6,2.5,4.3,3.2c0.3,0.7,0.6,1.5,0.9,2.2c1.4,3.3,3,6.5,4.6,9.7c0.3,1,0.1,2.1-0.1,3.2c-0.2,1.2-0.5,2.4-0.8,3.7
				c-0.6,2.5-1.4,5-2.1,7.4c-2.5,8.1-5.5,16.3-4.7,24.9c0.7,7.8,5.2,15.9,13.2,18.2c0.6,0.2,1.2-0.1,1.3-0.8c0.8-4.3,1.7-8.7,2.4-13
				c0.6-3.7,1.1-7.4,1.2-11.1c0.1-3.3-0.1-6.7-0.7-9.9c-0.5-3.3-1.4-6.6-2.6-9.8c0.5,0.8,1,1.7,1.6,2.5c3.3,5.1,6.8,10.1,10.5,14.9
				c0.7,4.2,0.2,8.5-0.3,12.7c-0.5,4.2-0.8,8.5-0.8,12.7c0,4.3-0.1,8.7,0.3,13.1c0.7,8.2,4.1,16.3,9.5,22.5c0.5,0.6,1.5,0.5,1.9-0.3
				c1.7-4,1.9-8.5,1.4-12.8c-0.4-4.3-1.4-8.5-1.7-12.8c-0.3-4-0.3-8-0.6-12c-0.3-4.2-1.1-8.2-2.5-12.1c-0.6-1.6-1.3-3.1-2-4.6
				c0.4,0.5,0.8,0.9,1.1,1.4c4.3,5.1,8.8,10,13.4,14.8c0.7,3.4-0.2,6.9-0.9,10.3c-0.8,3.7-1.8,7.4-2.2,11.2
				c-0.7,6.3,0,12.7,3.9,17.9c1,1.3,2.2,2.6,3.4,3.6c1.1,0.9,2.5,2.1,3.9,2.4c1.6,0.3,2.7-0.9,2.7-2.5c0-1.8-0.1-3.7-0.1-5.5
				c-0.1-3.6-0.2-7.2-0.3-10.9c-0.1-3.5,0-7.1-0.4-10.6c-0.3-2.9-1.2-5.8-2.5-8.4c4.3,4.1,8.6,8.1,13,12c0.3,0.6,0.5,1.3,0.7,1.9
				c0.8,3.6,0.2,7.3-0.3,11c-0.5,3.8-0.9,7.7-0.9,11.6c0,3.9,0.6,7.8,2,11.4c1.5,4,4,7.5,7,10.6c2.7,2.8,6,5.6,9.8,6.7
				c1.7,0.5,4.1,0.8,5.4-0.8c1.3-1.6,0.1-3.9-0.5-5.5c-2.9-8.7-5.7-17.5-8.7-26.2c-1.4-4.3-2.8-8.6-5.3-12.4c-0.2-0.3-0.5-0.7-0.7-1
				c6.2,5.2,12.4,10.4,18.9,15.2c2.3,2.2,4.1,4.7,5.9,7.3c2,2.8,4,5.6,6,8.4c3.6,4.8,7.5,9.6,12.1,13.5c2,1.7,4.2,3.2,6.6,4.1
				c2.3,0.8,5.7,1.4,7.1-1.2c1.3-2.4,0-5.3-1.3-7.3c-1.5-2.4-3.6-4.5-5.7-6.5c-1.3-1.2-2.7-2.4-4.1-3.4c0.7,0.3,1.5,0.5,2.2,0.7
				c3,0.9,6.1,1.7,9.2,1.8c1.6,0,3.6-0.1,5.3-0.8c0.7,0.3,1.5,0.6,2.2,0.9c3.3,1.3,6.7,2.5,10.1,3.6c0.9,0.5,1.6,1.4,2.2,2.3
				c0.7,1,1.4,2.1,2,3.1c1.3,2.2,2.5,4.5,3.7,6.7c3.9,7.5,7.7,15.4,14.3,20.9c6,5,15,7.6,22.2,3.6c0.6-0.3,0.8-0.9,0.4-1.5
				c-2.5-3.7-4.9-7.3-7.5-10.9c-2.2-3-4.4-6-7-8.8c-2.3-2.4-4.8-4.6-7.5-6.6c-2.7-2-5.7-3.7-8.8-5.1c1,0.2,1.9,0.5,2.9,0.7
				c5.9,1.3,12,2.3,18,3.1c3.5,2.4,6.1,5.8,8.7,9.2c2.6,3.4,5.4,6.5,8.4,9.6c3,3.1,6.1,6.3,9.4,9c6.3,5.3,14.4,8.6,22.6,9.2
				c0.8,0.1,1.4-0.7,1.1-1.5c-1.6-4.1-4.7-7.3-8-10.1c-3.3-2.7-7-5-10.3-7.8c-3.1-2.6-5.9-5.5-8.9-8.1c-3.1-2.7-6.5-5-10.3-6.8
				c-1.5-0.7-3.1-1.3-4.6-1.8c0.6,0.1,1.2,0.1,1.8,0.2c6.6,0.6,13.3,0.9,20,1c2.9,1.9,4.8,5.1,6.6,7.9c2,3.2,4,6.5,6.3,9.4
				c3.9,5,9,9,15.5,9.9c1.7,0.2,3.3,0.3,5,0.1c1.4-0.1,3.2-0.3,4.4-1.1c1.4-0.9,1.3-2.6,0.2-3.7c-1.3-1.3-2.7-2.5-4-3.8
				c-2.6-2.5-5.2-5-7.9-7.5c-2.5-2.4-5-5-7.8-7.2c-2.3-1.8-5-3.2-7.8-4.2c5.9-0.1,11.8-0.3,17.7-0.7c0.6,0.2,1.3,0.5,1.8,0.9
				c3.1,2,5.4,5,7.6,7.9c2.3,3.1,4.8,6.1,7.6,8.8c2.8,2.7,5.9,5.1,9.5,6.7c3.9,1.7,8.2,2.5,12.4,2.5c3.9,0,8.2-0.3,11.7-2.2
				c1.6-0.9,3.4-2.3,3.2-4.3c-0.2-2-2.7-2.8-4.2-3.6c-8.2-4.1-16.4-8.3-24.6-12.4c-4-2-8-4.1-12.5-5c-0.4-0.1-0.8-0.1-1.2-0.2
				c8.1-0.7,16.1-1.4,24.1-2.6c3.1-0.1,6.2,0.5,9.3,1c3.4,0.6,6.8,1.2,10.2,1.7c6,0.9,12,1.5,18.1,1c2.6-0.2,5.2-0.7,7.6-1.8
				c2.2-1,5-3,4.2-5.9c-0.8-2.6-3.7-3.7-6.1-4.3c-2.8-0.7-5.8-0.6-8.6-0.6c-1.8,0.1-3.5,0.2-5.3,0.4c0.7-0.3,1.4-0.7,2.1-1
				c2.8-1.4,5.5-3,7.8-5.2c1.1-1.1,2.5-2.6,3.2-4.3c0.7-0.3,1.5-0.6,2.2-0.9c3.3-1.4,6.5-3,9.7-4.6c1-0.3,2.1-0.1,3.2,0.1
				c1.2,0.2,2.4,0.5,3.7,0.8c2.5,0.6,5,1.4,7.4,2.1c8.1,2.5,16.3,5.4,24.9,4.7c7.8-0.7,15.9-5.2,18.2-13.2c0.2-0.6-0.1-1.2-0.8-1.3
				c-4.3-0.8-8.7-1.7-13-2.4c-3.7-0.6-7.4-1.1-11.1-1.2c-3.3-0.1-6.7,0.1-9.9,0.7c-3.3,0.5-6.6,1.4-9.8,2.6c0.8-0.5,1.7-1,2.5-1.6
				c5.1-3.3,10.1-6.8,14.9-10.5c4.2-0.7,8.5-0.2,12.7,0.3c4.2,0.5,8.5,0.8,12.7,0.8c4.3,0,8.7,0.1,13.1-0.3
				c8.2-0.7,16.3-4.1,22.5-9.5c0.6-0.5,0.5-1.5-0.3-1.9c-4-1.7-8.5-1.9-12.8-1.4c-4.3,0.4-8.5,1.4-12.8,1.7c-4,0.3-8,0.3-12,0.6
				c-4.2,0.3-8.2,1.1-12.1,2.5c-1.6,0.6-3.1,1.3-4.6,2c0.5-0.4,0.9-0.8,1.4-1.1c5.1-4.3,10-8.8,14.8-13.4c3.4-0.7,6.9,0.2,10.3,0.9
				c3.7,0.8,7.4,1.8,11.2,2.2c6.3,0.7,12.7,0,17.9-3.9c1.3-1,2.6-2.2,3.6-3.4c0.9-1.1,2.1-2.5,2.4-3.9c0.3-1.6-0.9-2.7-2.5-2.7
				c-1.8,0-3.7,0.1-5.5,0.1c-3.6,0.1-7.2,0.2-10.9,0.3c-3.5,0.1-7.1,0-10.6,0.4c-2.9,0.3-5.8,1.2-8.4,2.5c4.1-4.3,8.1-8.6,12-13
				c0.6-0.3,1.3-0.5,1.9-0.7c3.6-0.8,7.3-0.2,11,0.3c3.8,0.5,7.7,0.9,11.6,0.9c3.9,0,7.8-0.6,11.4-2c4-1.5,7.5-4,10.6-7
				c2.8-2.7,5.6-6,6.7-9.8c0.5-1.7,0.8-4.1-0.8-5.4c-1.6-1.3-3.9-0.1-5.5,0.5c-8.7,2.9-17.5,5.7-26.2,8.7c-4.3,1.4-8.6,2.8-12.4,5.3
				c-0.3,0.2-0.7,0.5-1,0.7c5.2-6.2,10.4-12.4,15.2-18.9c2.2-2.3,4.7-4.1,7.3-5.9c2.8-2,5.6-4,8.4-6c4.8-3.6,9.6-7.5,13.5-12.1
				c1.7-2,3.2-4.2,4.1-6.6C621.3,499,621.9,495.6,619.3,494.2z M114.2,482.8c0.9,1.6,2.3,3.4,4.3,3.2c2-0.2,2.8-2.7,3.6-4.2
				c0.6-1.3,1.3-2.5,1.9-3.8h-11.5C112.8,479.7,113.3,481.3,114.2,482.8z"/>
		</g>
	</g>
</g>
<g>
	<g>
		<g>
			<g>
				<rect x="88.9" y="359.3" class="st0" width="578.1" height="6.8"/>
			</g>
		</g>
	</g>
	<g>
		<g>
			<g>
				<rect x="88.9" y="473.7" class="st0" width="578.1" height="6.8"/>
			</g>
		</g>
	</g>
</g>
<g>
	<path class="st0" d="M350.2,345.3c-5.2-2.1-7-13.4-7-27.9c0-17,2.5-38.4,5.1-55.2c-10.4,0.9-20.1,1.9-26.7,2.9
		c0.1,0.1,0.2,0.2,0.2,0.4c0,0.6-0.8,1.6-1.6,1.6c-0.7,0.1-2.2,0.2-4,0.2c-2.8,0-5.9-0.3-5.9-1.9c0-1.3,0.9-2.3,2.1-2.6
		c5.8-1.1,20.2-2.6,36.3-3.5c1.8-10.8,3.6-19.4,4.7-23c0.2-1.1,1.2-1.8,2.5-1.8l0.8,0.1c1.1,0.3,1.8,1.3,1.8,2.5l-0.1,0.8
		c-1.3,4.7-3,12.2-4.7,21.1c8.4-0.4,16.8-0.7,24.8-0.7c12.2,0,22.8,0.7,28.1,2.3c0.6,0.3,0.9,0.8,0.9,1.1c0,0.3-0.3,0.6-0.8,0.6
		c-0.3,0-0.8-0.1-1.2-0.3c-2-1.2-8.5-1.8-17.3-1.8c-9.9,0-22.8,0.7-34.9,1.6c-3.5,19-6.7,43.2-6.7,60.3c0,10.7,1.3,18.5,4.6,20.4
		c1.3,0.7,1.9,1.5,1.9,2.1s-0.4,1.1-1.2,1.1C351.3,345.7,350.9,345.6,350.2,345.3z"/>
	<path class="st0" d="M360.9,317.9c-1.2,0-2.3-1.2-2.3-2.6v-2.5c0-2.3,0.1-4.7,0.2-7.1c0.9-16.1,4.1-36,8.8-52.1
		c5.9-20.1,14.5-28.7,20.2-28.7c3.6,0,5.9,3.3,5.9,9.3c0,4.2-1.1,9.8-4,16.4c-4.7,11.3-13.2,24.9-24,37.6
		c-0.9,6.2-1.5,12.3-1.8,17.7v0.3c3-8.7,7.7-20.1,12.6-20.2h0.1c7.9,0,4.8,15.7,9.4,16.9l0.4,0.1c4.2,0,13.9-11.3,15.6-13.6
		c0.3-0.2,0.7-0.3,1-0.3c0.3,0,0.7,0.1,0.9,0.3s0.3,0.6,0.3,0.9c0,0.3-0.1,0.7-0.3,1c-2.7,3.7-13.9,15.5-18.6,16h-0.4
		c-7.1,0-6.5-15.1-9.2-16.1l-0.4-0.1c-4.5,0-10.7,21.8-11.6,24.3c0,1.5-1,2.5-2.6,2.5H360.9z M387.2,249.6c3-7.1,4.2-12.4,4.2-16
		c0-3.2-1.1-4.9-2.8-4.9c-3.8,0-10.9,8.6-16.1,26.3c-2.6,8.6-4.7,18.5-6.1,28.2C375.7,271.7,383,259.7,387.2,249.6z"/>
	<path class="st0" d="M406,312.4c-6.8,0-9.8-4.8-9.8-10.3c0-4.4,1.9-9,5.2-12.3c1.1-1.1,2.3-2,3.3-2.6c1.7-0.9,3.2-1.3,4.7-1.3
		c2.8,0,4.8,1.6,4.8,4.4c0,1.3-0.6,3-1.8,4.9c-0.8,1.2-2.1,2.5-4,3.6c-1.8,1-4.1,1.8-7,2.3v0.7c0,4.6,2.5,6.7,5.7,6.8h0.6
		c9.7,0,19.1-11.7,24.5-19c0.3-0.3,0.7-0.6,1.1-0.6c0.2,0,0.4,0.1,0.7,0.2c0.4,0.2,0.6,0.7,0.6,1c0,0.3,0,0.6-0.2,0.8
		c-6,8.8-16,20.5-27.3,21.3H406z M407.1,296.5c2.8-1.6,3.9-3.1,3.9-4.2c0-0.7-0.4-1.1-1.3-1.1c-1.1,0-2.8,0.7-4.7,2.6
		c-1.5,1.3-2.5,3-3,4.7C404.1,297.9,405.8,297.3,407.1,296.5z"/>
</g>
<g>
	<path class="st0" d="M298.5,603.5c-5.4-0.3-6.9-8.5-6.9-17.7c0-9.5,1.6-19.9,2.2-23.7c-1.1-1.5-2.1-2.7-2.6-3.6
		c-0.6-0.8-0.9-1.3-0.9-1.8l0.3-0.7c0.3-0.3,0.6-0.5,0.9-0.5l0.5,0.2c0.7,0.2,1.6,0.5,2.9,0.8c0.1-0.8,1.2-6,2.9-12.7
		c1.5-5.9,3.6-12.5,6-18.2c4.2-9.9,9.2-15.3,11.8-15.3c1.2,0,2,1.1,2,3.3c0,2.9-1.4,8.1-4.9,15.5c-4.3,8.9-9.7,17.7-11.5,18.8
		c-0.7,2.8-1.2,5.9-1.8,8.8c8.7-0.2,14.9-6.1,20.4-12.8c0.2-0.2,0.5-0.4,0.9-0.4c0.2,0,0.5,0.1,0.7,0.3c0.3,0.2,0.4,0.6,0.4,0.9
		c0,0.2,0,0.5-0.2,0.7c-6.1,7.2-13,13.5-22.5,13.5l-0.9,5.3c5.6,10,7.7,18.8,7.7,25.5c0,8.5-3.4,13.6-6.9,13.6H298.5z M294.3,558.7
		l-0.4-0.1l0.3,0.5L294.3,558.7z M303.3,589.6c0-5.6-1.5-13.1-5.9-22c-0.3,2-1.2,11.3-1.2,19.3c0,6.8,0.7,12.8,3.1,13.1h0.2
		C301.3,600,303.3,596.2,303.3,589.6z M310.5,528.4c3.1-7,4.4-11.3,4.4-12.8c0-0.5-0.1-0.7-0.3-0.7c-0.9,0-3.5,4.2-6.9,12.5
		c-2.7,6.8-5.2,14.3-5.7,16.4C303.7,541.5,307.6,535,310.5,528.4z"/>
	<path class="st0" d="M345.4,561.4L345.4,561.4c0-0.1,0.3-7.5,1-12.7c-4.7,5.5-12.3,12.3-17.6,12.3c-3.2,0-5.6-2.6-6-9.6
		c-1.2,1.3-4.6,4.5-6.9,4.5c-0.5,0-0.9-0.1-1.1-0.3c-0.5-0.4-0.8-1.1-0.8-2c0-3.6,3.6-10.3,7.5-10.3c0.7,0,1.4,0.2,2.1,0.7
		c0.3-1.5,1.5-2.2,2.6-2.2c1,0,2,0.6,2,1.7l-0.2,0.9c-0.7,3.2-1,5.9-1,7.9c0,4.2,1.4,5.9,3.5,5.9c4.5,0,12.5-7.9,17-14.6
		c0.1-0.4,0.3-0.7,0.6-0.9c0.1-0.2,0.2-0.3,0.4-0.4c0.4-0.4,0.9-0.6,1.4-0.6l0.9,0.2c0.3,0.2,0.6,0.3,0.9,0.6c0.5,0.4,0.8,1,0.8,1.6
		c0,0.6-0.2,1-0.6,1.5l-0.5,0.4c-0.9,0.9-1.8,5.5-2.1,8.5c3.3-8.2,8.8-18.8,12.8-18.9h0.1c2.8,0,3.6,4.4,3.6,9.1
		c0,4.3-0.7,8.6-0.7,10.2c2.4-5,5.8-11.3,8.8-11.3h0.3c4.4,0.9,4.8,11.8,6.9,12.4h0.3c2.8,0,10.9-9.7,12.2-11.7
		c0.2-0.4,0.6-0.6,0.9-0.6c0.2,0,0.4,0,0.6,0.1c0.4,0.2,0.6,0.6,0.6,0.9c0,0.2,0,0.3-0.1,0.5c-2.2,3.4-10.7,13.9-15,14
		c-6.3,0-5.8-11.3-8.2-11.3h-0.1c-2.1,0.2-6.4,10.8-7.3,12.8c-0.1,1-0.9,1.9-1.9,2h-0.4c-1,0-2-0.8-2.2-1.9v-0.3
		c0-3.1,0.9-10.2,0.9-15.3c0-2.7-0.2-4.8-1-5.3l-0.3-0.1c-2.8,0-10.2,18.2-11,21.3c0,1.6-0.7,2.4-1.8,2.4
		C346.3,563.5,345.4,562.9,345.4,561.4z M321.6,549c0.7-0.8,0.9-1.3,0.9-1.7c0-0.3-0.2-0.4-0.4-0.4c-0.4,0-0.9,0.2-1.5,0.8
		c-1.1,1-2.3,3-2.3,3.7c0,0.2,0.1,0.3,0.2,0.3C319,551.6,319.9,550.9,321.6,549z"/>
	<path class="st0" d="M392.3,554.2c0-2.8,0.4-6.5,1.2-11c0.1-1.1,1.1-2.1,2.2-2.1h0.2c1.1,0.2,2.1,1.1,2.1,2.3v0.2
		c-0.9,4.4-1.4,8.7-1.4,11.7c0,2.6,0.4,4.3,1.3,4.5l0.7,0.1c2.9,0,6.6-6.8,11.5-15.6c0.3-0.4,0.6-0.6,0.9-0.6c0.2,0,0.4,0.1,0.6,0.2
		c0.4,0.2,0.6,0.6,0.6,0.9c0,0.2,0,0.3-0.1,0.5c-6,10.4-10.5,18.1-14.9,18.1C394.4,563.4,392.3,560.9,392.3,554.2z M394.8,536.7
		c0-1.3,0.9-2.8,2.3-2.8h0.3c1.2,0.1,1.9,1.1,1.9,2.3c0,1.3-0.9,2.6-2.6,2.6C395.4,538.8,394.8,537.8,394.8,536.7z"/>
	<path class="st0" d="M414.7,579c-4.7-0.8-6.3-7.1-6.3-15.2c0-14.6,5-34.9,6.3-39.9c2.1-7.7,4.4-14.9,6.9-20.7
		c4.1-9.7,8.5-14.3,11.3-14.3c1.8,0,3,1.9,3,5.4c0,3.1-0.9,7.7-3.2,13.4c-4.8,12.2-13.2,28-17.5,34.2c-0.7,3.4-2.5,14.3-2.5,22.9
		c0,5.4,0.7,9.8,2.9,11c0.3,0.2,0.7,0.3,1,0.3c1.7,0,4.2-2.1,7.4-7.1c5.3-8.2,10.4-21.4,11.9-24.4c0.1-0.4,0.6-0.7,0.9-0.7l0.5,0.1
		c0.5,0.2,0.7,0.7,0.7,1l-0.1,0.5c-2.4,4.7-6.6,16.5-11.9,24.7c-4.1,6.2-7.8,9-10.7,9L414.7,579z M430.5,506.8c2.4-6,3.3-9.9,3.3-12
		c0-1.1-0.3-1.6-0.9-1.6c-1.2,0-4,3.7-7.1,11c-2.5,5.7-4.9,13.1-7,20.8c-0.9,3.6-1.8,7.2-2.6,10.8
		C420.7,528.3,426.8,516.5,430.5,506.8z"/>
	<path class="st0" d="M434.4,601.5c0-4.4,1.1-9.8,4.1-16.4c3.7-8.3,8.4-16,14.2-22.8c0.9-1.2,2-2.5,3-3.6v-0.9
		c-0.1-0.5-2.5-18.6-4.1-18.8h-0.1c-1,0-2.1,4.8-2.9,7.4c-1.1,3.8-4,14.3-8.4,14.6h-0.4c-3.5,0-4.4-4.5-4.4-9.3
		c0-3.8,0.6-7.7,0.9-9.4c0.3-1,1.2-1.7,2.3-1.7h0.4c1,0.3,1.7,1.2,1.7,2.3v0.4c-0.3,1.1-1.2,6.4-1.2,10.2c0,2.2,0.3,4,1.3,4
		c2.3,0,5.2-9.9,5.8-11.7c0.4-1.2,1.2-4.9,2.6-7.8c1-2.4,2.4-3.7,3.7-3.8h0.1c4.3,0,6.4,17.1,6.8,20.3c4.1-3.9,8.3-7.6,13-10.8
		c0.2-0.1,0.5-0.2,0.7-0.2c0.4,0,0.7,0.2,0.9,0.5l0.2,0.6c0,0.4-0.2,0.8-0.5,0.9c-5,3.5-9.6,7.5-13.9,11.8
		c0.5,4.9,0.8,10.2,0.8,15.4c0,4.6-0.2,9.2-0.6,13.1c-0.1,1-0.3,2.2-0.5,3.4c-2.7,16.3-10.8,23.8-17,23.8
		C438.1,613.2,434.4,609.1,434.4,601.5z M455.4,588.6c0.2-1.1,0.4-2.2,0.4-3.1c0.4-3.8,0.6-8,0.6-12.4c0-3.8-0.1-7.7-0.4-11.4
		c-0.6,0.7-1.1,1.2-1.6,1.9c-5.6,6.8-10.3,14.3-13.9,22.3c-2.6,6.5-3.8,11.6-3.8,15.3c0,5.3,2.2,7.9,5,7.9
		C446.4,609.1,453.2,602.2,455.4,588.6z"/>
</g>
</svg>

