﻿<?xml version="1.0" encoding="iso-8859-1"?>
<!-- Generator: Adobe Illustrator 24.0.3, SVG Export Plug-In . SVG Version: 6.00 Build 0)  -->
<svg version="1.1"
	 xmlns="http://www.w3.org/2000/svg" xmlns:xlink="http://www.w3.org/1999/xlink" x="0px" y="0px" viewBox="0 0 714 714"
	 style="enable-background:new 0 0 714 714;" xml:space="preserve" width="500" height="500">
<style type="text/css">
	.st0{fill:#131313;}
	.st1{fill:#1D1D1B;}
	.st2{fill:#010101;}
</style>
<g>
	<path class="st1" d="M375.1865234,204.3623047c0.6401367-3.5561523,1.0771484-8.1933594-0.8530273-11.4482422
		c-0.7724609-1.3017578-1.8891602-2.0908203-3.1489258-2.484375c-0.1069336-0.6132812-0.2441406-1.2260742-0.4335938-1.8364258
		c-1.8457031-5.9482422-7.4189453-8.2207031-13.2197266-8.2758789c-6.3422852-0.0600586-12.5297852,2.0146484-18.1210938,4.8847656
		c-5.4731445,2.8110352-10.6416016,6.1796875-15.4521484,10.0131836c-0.3764648,0.2998047-0.7475586,0.6074219-1.1196289,0.9140625
		c-1.7944336-0.9155273-3.7167969-1.5737305-5.7412109-1.8979492c-5.8046875-0.9301758-11.8378906,0.9516602-16.125,4.9462891
		c-2.0473633,1.9072266-3.7036133,4.2915039-4.7290039,6.9003906c-0.8662109,2.2041016-1.6542969,4.9575195-0.3901367,7.1669922
		c3.1181641,5.4492188,11.8544922-0.2246094,15.1123047-2.6972656c4.2871094-3.2519531,8.3100586-6.8115234,12.5839844-10.0805664
		c0.7797852,0.550293,1.5268555,1.1606445,2.2329102,1.828125c7.3027344,6.8979492,9.0141602,16.9462891,10.5913086,26.7724609
		c0.324707,9.6655273,0.9477539,19.3300781,1.8979492,28.9511719c0.628418,6.3754883,1.4477539,12.7426758,2.5092773,19.0605469
		c0.3632812,2.1640625,2.1835938,3.6333008,4.418457,3.3681641c1.9770508-0.2329102,4.1835938-2.159668,3.8369141-4.3481445
		c-3.4990234-22.1166992-4.7041016-44.3666992-5.8081055-66.703125c-0.3139648-6.3598633-0.3217773-12.84375-1.0654297-19.1694336
		c-0.0541992-0.4589844-0.2172852-0.8491211-0.4526367-1.1738281c0.2832031-0.1337891,0.5664062-0.2680664,0.8520508-0.3979492
		c3.3408203-1.5214844,6.8081055-2.8129883,10.4536133-3.3588867c3.1992188-0.4794922,7.1943359-0.7109375,10.0742188,1.0541992
		c1.5791016,0.9682617,2.4926758,2.5678711,2.953125,4.3076172c-0.574707,0.1992188-1.1308594,0.4428711-1.6459961,0.7329102
		c-3.7797852,2.1293945-6.4301758,5.8149414-8.1108398,9.7685547c-3.6572266,8.6030273-4.3422852,18.1445312-4.2363281,27.3911133
		c0.0595703,5.0961914,0.515625,10.1650391,1.3393555,15.1948242c0.4355469,2.6645508,1.0654297,5.3100586,1.8344727,7.8974609
		c0.6254883,2.1000977,1.2036133,5.3256836,3.5151367,6.1713867c1.25,0.4580078,2.4975586,0.0493164,3.4038086-0.8632812
		l0.121582-0.1210938c0.6450195-0.6494141,0.7392578-1.4941406,0.53125-2.284668
		c0.1889648,0.2119141-0.0917969-0.9418945-0.105957-1.0917969c-0.0195312-0.2236328-0.0517578-0.4506836-0.0854492-0.6767578
		c1.1918945-5.7324219,3.1352539-11.5571289,5.9311523-16.6362305c0.7329102-1.3320312,1.5825195-2.5854492,2.597168-3.7197266
		c0.4692383-0.5234375,0.9643555-1.0361328,1.5644531-1.4111328c0.0761719-0.0478516,0.3579102-0.1459961,0.5429688-0.2421875
		c0.0180664,0.1259766,0.0527344,0.2890625,0.050293,0.434082c-0.0385742,3.3232422-0.5517578,6.737793-0.9667969,10.0332031
		c-0.4370117,3.4770508-0.7109375,6.9702148-1.0771484,10.4545898c-0.34375,3.2700195-1.2099609,7.4711914,0.7280273,10.4169922
		c1.3056641,1.9863281,4.0229492,4.3208008,6.5854492,3.9941406c2.7587891-0.3505859,4.8374023-2.8930664,6.1235352-5.1455078
		c1.4262695-2.4936523,2.3417969-5.3037109,3.2700195-8.0507812c0.3388672,2.1401367,0.8964844,4.2202148,1.7109375,6.1694336
		c1.4418945,3.449707,4.171875,6.3334961,8.0917969,6.6171875c3.699707,0.2670898,6.3330078-2.1694336,8.2749023-5.0073242
		c4.8969727-7.1538086,8.246582-15.1811523,11.309082-23.25c0.7514648-1.9765625-2.2119141-3.0258789-2.9755859-1.1791992
		c-2.1655273,5.234375-4.2856445,10.5073242-6.9125977,15.5322266c-1.3266602,2.5361328-2.7626953,5.0390625-4.4213867,7.3745117
		c-0.6230469,0.8764648-1.2929688,1.8706055-2.222168,2.4506836c-1.0771484,0.671875-2.0839844,0.0170898-2.7109375-0.9702148
		c-1.3120117-2.0678711-1.8061523-4.878418-2.1679688-7.2597656c-0.4125977-2.7172852-0.5004883-5.5566406-0.2197266-8.2919922
		c0.2817383-2.7519531,0.8349609-5.6196289,1.7929688-8.3168945c3.1206055-0.6733398,6.4482422-1.7836914,8.8579102-3.7661133
		c2.8310547-2.3300781,2.4448242-5.8012695-0.3632812-7.8764648c-3.0092773-2.2246094-7.046875-1.4921875-9.8637695,0.7290039
		c-2.9848633,2.3540039-5.0273438,5.7456055-6.328125,9.2705078c-1.1108398,3.0117188-1.8422852,6.3242188-2.1206055,9.6894531
		c-1.5,4.3857422-3.0141602,8.7802734-4.8476562,13c-0.5737305,1.3183594-1.234375,2.5932617-2.2192383,3.6533203
		c-0.2817383,0.3027344-1.1650391,1.3515625-1.7119141,1.2089844c-0.4819336-0.1264648-0.5327148-0.9414062-0.5375977-1.3144531
		c-0.0234375-1.3696289,0.1254883-2.934082,0.2246094-4.3173828c0.1035156-1.456543,0.3027344-2.9121094,0.4462891-4.3662109
		c0.375-3.796875,0.6230469-7.6074219,0.6762695-11.4228516c0.0463867-3.2973633,0.1655273-6.9345703-1.0449219-10.0668945
		c-1.0898438-2.8183594-3.3081055-4.6835938-6.4121094-3.5371094c-2.6552734,0.9819336-4.5605469,3.6005859-6.0024414,5.9086914
		c-1.8989258,3.0415039-3.1333008,6.4580078-4.3251953,9.8217773c-0.152832,0.4306641-0.3027344,0.8618164-0.4511719,1.2944336
		c-0.0571289-0.4248047-0.112793-0.8496094-0.1708984-1.2734375c-0.2104492-1.5253906-0.3852539-3.0541992-0.5297852-4.5849609
		c3.2548828-7.3725586,7.0444336-14.5004883,10.2099609-21.9150391
		C372.7148438,212.8686523,374.4042969,208.7041016,375.1865234,204.3623047z M309.9946289,207.1396484
		c-2.2363281,1.7983398-4.6137695,3.472168-7.3378906,4.4404297c-1.0068359,0.3583984-2.9941406,1.1362305-3.7553711-0.0078125
		c-0.5820312-0.871582-0.1279297-2.387207,0.1381836-3.2832031c1.5888672-5.3388672,6.1655273-9.6005859,11.6259766-10.7265625
		c3.2524414-0.6708984,6.4458008-0.2670898,9.3505859,0.9428711
		C316.6796875,201.3881836,313.4321289,204.3764648,309.9946289,207.1396484z M336.0620117,207.4438477
		c-0.0048828,1.7431641-0.0014648,3.4858398,0.0078125,5.2280273c-1.2373047-3.5537109-2.9165039-6.9306641-5.3613281-9.9931641
		c-1.2705078-1.5922852-2.7260742-3.0498047-4.3359375-4.2973633c3.2192383-2.2944336,6.5092773-4.5063477,9.9326172-6.4833984
		C335.9833984,197.0561523,336.0761719,202.2885742,336.0620117,207.4438477z M400.5820312,230.8666992
		c0.5917969-0.7929688,1.4165039-1.8432617,2.3994141-2.1782227c1.144043-0.3896484,2.0874023,0.5102539,1.3095703,1.5849609
		c-0.7719727,1.0678711-2.612793,1.65625-3.7832031,2.128418c-0.4033203,0.1630859-0.8100586,0.3144531-1.2202148,0.4545898
		C399.6821289,232.1674805,400.1098633,231.4995117,400.5820312,230.8666992z M360.3144531,232.199707l-0.0063477-0.1235352
		c-0.359375-7.7133789-0.0825195-15.6386719,1.6186523-23.1933594c0.7666016-3.4033203,1.796875-6.7666016,3.4296875-9.8608398
		l0.0253906-0.0473633c-0.5849609,1.699707-1.3178711,3.362793-1.9414062,4.9941406
		c-1.0859375,2.8427734,2.9370117,4.2167969,4.2583008,1.6875c1.7197266-3.2924805,3.2104492-6.9160156,3.612793-10.6171875
		l0.003418,0.0029297c0.9785156,1.2436523,1.0341797,3.2216797,1.0703125,4.7353516
		c0.0488281,1.9760742-0.2807617,3.9614258-0.7265625,5.8803711c-0.9013672,3.8686523-2.4448242,7.5634766-4.0439453,11.1870117
		C365.3251953,222.0307617,362.7592773,227.0874023,360.3144531,232.199707z"/>
	<path class="st1" d="M109.8540039,409.8955078c-0.6259766,0-1.1323242,0.5068359-1.1323242,1.1328125v1.4960938
		c0,0.6259766,0.5063477,1.1318359,1.1323242,1.1318359h21.4804688c0.6259766,0,1.1328125-0.5058594,1.1328125-1.1318359v-1.4960938
		c0-0.3007812-0.1196289-0.5888672-0.3320312-0.8007812s-0.5-0.3320312-0.8007812-0.3320312
		c-2.2270508,0-3.878418-1.1523438-5.0463867-3.5224609L99.6220703,334.5625
		c-0.0712891-0.1923828-0.1928711-0.3608398-0.3520508-0.4892578l-2.2719727-1.8261719
		c-0.2832031-0.2280273-0.6616211-0.3051758-1.0112305-0.2089844c-0.3515625,0.0961914-0.6347656,0.3564453-0.7612305,0.6977539
		L75.4711914,385.984375c-0.097168,0.1523438-0.1704102,0.3203125-0.2114258,0.4931641l-6.2099609,16.8232422
		c-0.7998047,1.9951172-2.0708008,3.6123047-3.7788086,4.8046875c-1.7202148,1.2060547-3.5996094,1.7900391-5.7446289,1.7900391
		c-0.6259766,0-1.1328125,0.5068359-1.1328125,1.1328125v1.4960938c0,0.6259766,0.5068359,1.1318359,1.1328125,1.1318359h16.8852539
		c0.6259766,0,1.1328125-0.5058594,1.1328125-1.1318359v-1.4960938c0-0.6259766-0.5068359-1.1328125-1.1328125-1.1328125
		c-1.6303711,0-2.7255859-0.3779297-3.2543945-1.1279297c-0.6152344-0.8671875-0.9272461-1.6728516-0.9272461-2.3896484
		c0-0.6064453,0.1264648-1.2568359,0.3706055-1.9287109l5.7050781-15.2636719h26.2763672l6.8530273,18.4316406
		c0.109375,0.3320312,0.1645508,0.6240234,0.1645508,0.8652344c0,0.3134766-0.0717773,0.5615234-0.2363281,0.7890625
		C111.1748047,409.5390625,110.8134766,409.8955078,109.8540039,409.8955078z M79.7011719,385.4238281l11.7167969-31.6015625
		l11.765625,31.6015625H79.7011719z"/>
	<path class="st1" d="M199.7504883,413.25c0.2148438,0.2587891,0.5332031,0.40625,0.8696289,0.40625h1.5507812
		c0.6259766,0,1.1328125-0.5058594,1.1328125-1.1318359v-70.1489258c0-1.8442383,0.625-3.3662109,1.9091797-4.652832
		c1.2866211-1.2851562,2.8085938-1.9101562,4.652832-1.9101562c0.3007812,0,0.5883789-0.1196289,0.8007812-0.3320312
		s0.3320312-0.5,0.3320312-0.8007812v-1.5498047c0-0.6259766-0.5068359-1.1328125-1.1328125-1.1328125h-16.8852539
		c-0.6259766,0-1.1328125,0.5068359-1.1328125,1.1328125v1.5498047c0,0.3007812,0.1196289,0.5883789,0.3320312,0.8007812
		s0.5,0.3320312,0.8007812,0.3320312c1.8076172,0,3.3110352,0.625,4.5961914,1.9101562
		c1.2856445,1.2866211,1.9106445,2.7910156,1.9106445,4.5976562v47.7480469l-47.9926758-57.6630859
		c-0.2143555-0.2587891-0.5341797-0.4082031-0.8706055-0.4082031h-1.5483398c-0.6264648,0-1.1328125,0.5068359-1.1328125,1.1328125
		v70.2041016c0,1.8095703-0.6274414,3.3222656-1.9169922,4.6279297c-1.2832031,1.3007812-2.7856445,1.9335938-4.5917969,1.9335938
		c-0.6264648,0-1.1328125,0.5068359-1.1328125,1.1328125v1.4960938c0,0.6259766,0.5063477,1.1318359,1.1328125,1.1318359h16.887207
		c0.6259766,0,1.1328125-0.5058594,1.1328125-1.1318359v-1.4960938c0-0.6259766-0.5068359-1.1328125-1.1328125-1.1328125
		c-1.8417969,0-3.3618164-0.6328125-4.6484375-1.9335938c-1.2885742-1.3056641-1.9160156-2.8183594-1.9160156-4.6279297v-47.6445312
		L199.7504883,413.25z"/>
	<path class="st1" d="M222.5395508,408.8427734c-0.7060547,0.7080078-1.5488281,1.0527344-2.5742188,1.0527344
		c-0.3007812,0-0.5883789,0.1201172-0.8007812,0.3320312s-0.3320312,0.5-0.3320312,0.8007812v1.4960938
		c0,0.6259766,0.5063477,1.1318359,1.1328125,1.1318359h25.6879883c1.7509766,0,3.4726562-0.0566406,5.1240234-0.1679688
		c5.6171875-0.4160156,11.0429688-1.8496094,16.1425781-4.2675781c5.4921875-2.7275391,10.0654297-6.5908203,13.5952148-11.484375
		c5.4301758-7.5839844,8.1850586-16.4492188,8.1850586-26.3496094c0-10.8398438-3.5322266-20.0620117-10.5-27.4116211
		c-5.1508789-5.4135742-11.5986328-9.0620117-19.1660156-10.8408203l-0.0454102-0.0097656
		c-3.8930664-0.7480469-8.4726562-1.1274414-13.6118164-1.1274414H219.965332c-0.6264648,0-1.1328125,0.5068359-1.1328125,1.1328125
		v1.5498047c0,0.6259766,0.5063477,1.1328125,1.1328125,1.1328125c1.0244141,0,1.8662109,0.34375,2.5742188,1.0517578
		c0.7089844,0.7089844,1.0541992,1.5341797,1.0541992,2.5209961v66.8823242
		C223.59375,407.2939453,223.2495117,408.1347656,222.5395508,408.8427734z M237.9829102,335.8125h9.4755859
		c7.1308594,0.140625,13.0952148,2.8452148,17.7216797,8.0322266c3.9887695,4.5253906,6.6591797,9.6479492,7.9321289,15.2001953
		c0.8300781,4.078125,1.2514648,8.2109375,1.2514648,12.2861328c0,12.5888672-3.246582,22.9072266-9.6503906,30.6708984
		c-3.6342773,4.4003906-8.4536133,7.0019531-14.262207,7.7304688c-1.5942383,0.1074219-3.2260742,0.1630859-4.8530273,0.1630859
		h-7.6152344V335.8125z"/>
	<path class="st1" d="M332.3793945,335.8125c4.6181641,0,9.0253906,2.7709961,13.097168,8.234375
		c1.6352539,2.2036133,2.8022461,4.1186523,3.4804688,5.7236328c0.5253906,1.1391602,1.2695312,1.378418,1.8027344,1.378418
		c1.1416016,0,1.909668-0.7446289,1.909668-1.8530273v-16.1660156c0-0.6259766-0.5068359-1.1328125-1.1328125-1.1328125h-53.8720703
		c-0.6259766,0-1.1328125,0.5068359-1.1328125,1.1328125v1.5498047c0,0.6259766,0.5068359,1.1328125,1.1328125,1.1328125
		c1.0253906,0,1.8686523,0.34375,2.5766602,1.0517578s1.0517578,1.5332031,1.0517578,2.5209961v66.8823242
		c0,1.0263672-0.3427734,1.8691406-1.0517578,2.5751953c-0.7060547,0.7080078-1.5488281,1.0527344-2.5766602,1.0527344
		c-0.3007812,0-0.5883789,0.1201172-0.8007812,0.3320312s-0.3320312,0.5-0.3320312,0.8007812v1.4960938
		c0,0.6259766,0.5068359,1.1318359,1.1328125,1.1318359h53.8720703c0.6259766,0,1.1328125-0.5058594,1.1328125-1.1318359
		v-16.1132812c0-1.1416016-0.7680664-1.9072266-1.909668-1.9072266c-0.5419922,0-1.2973633,0.2548828-1.8173828,1.4667969
		c-0.6645508,1.5732422-1.8286133,3.4667969-3.4667969,5.6347656c-4.0727539,5.5-8.4790039,8.2900391-13.0961914,8.2900391
		h-16.6948242V374.734375h7.4492188c2.59375,0,5.2700195,2.1855469,7.9433594,6.4824219
		c1.6308594,2.703125,2.0566406,3.6542969,2.1416016,3.8974609c0.2382812,0.9541016,0.9169922,1.5224609,1.8178711,1.5224609
		c1.1416016,0,1.9091797-0.765625,1.9091797-1.9072266v-23.8066406c0-1.1083984-0.7675781-1.8525391-1.9091797-1.8525391
		c-0.9008789,0-1.5795898,0.5693359-1.7944336,1.4404297c-0.1083984,0.3271484-0.5351562,1.2792969-2.1572266,3.9667969
		c-2.6801758,4.3095703-5.355957,6.4951172-7.9511719,6.4951172h-7.4492188V335.8125H332.3793945z"/>
	<path class="st1" d="M403.0478516,409.8955078c-0.6259766,0-1.1328125,0.5068359-1.1328125,1.1328125v1.4960938
		c0,0.6259766,0.5068359,1.1318359,1.1328125,1.1318359h20.5952148c0.6259766,0,1.1328125-0.5058594,1.1328125-1.1318359v-1.4960938
		c0-0.6259766-0.5068359-1.1328125-1.1328125-1.1328125c-1.9291992,0-3.3916016-0.8056641-4.4692383-2.4648438
		l-20.5629883-32.984375c6.8950195-0.8291016,12.362793-3.5859375,16.2963867-8.2363281
		c2.9858398-3.875,4.4990234-8.3369141,4.4990234-13.2592773c0-4.6240234-1.4179688-8.8393555-4.2700195-12.597168
		c-4.3149414-4.8950195-9.8066406-7.6308594-16.3583984-8.1337891c-3.4047852-0.1474609-6.9238281-0.2226562-10.4580078-0.2226562
		h-26.6860352c-0.6259766,0-1.1328125,0.5068359-1.1328125,1.1328125v1.5498047
		c0,0.6259766,0.5068359,1.1328125,1.1328125,1.1328125c0.9921875,0,1.8286133,0.3461914,2.5566406,1.0595703
		c0.7211914,0.7070312,1.0717773,1.5288086,1.0717773,2.5131836v66.8823242c0,1.0214844-0.3496094,1.8623047-1.0727539,2.5683594
		c-0.7260742,0.7119141-1.5610352,1.0595703-2.5556641,1.0595703c-0.6259766,0-1.1328125,0.5068359-1.1328125,1.1328125v1.4960938
		c0,0.6259766,0.5068359,1.1318359,1.1328125,1.1318359h21.6484375c0.6259766,0,1.1328125-0.5058594,1.1328125-1.1318359v-1.4960938
		c0-0.6259766-0.5068359-1.1328125-1.1328125-1.1328125c-1.027832,0-1.8696289-0.3427734-2.5776367-1.0556641
		c-0.706543-0.703125-1.0507812-1.5458984-1.0507812-2.5722656V335.8125h8.4448242
		c2.6103516,0,5.3320312,0.8818359,8.0874023,2.621582c2.8164062,1.7768555,5.0576172,3.8100586,6.640625,6.012207
		c1.4580078,2.1694336,2.2133789,3.9223633,2.2456055,5.2089844c0.0351562,1.4980469,0.0551758,2.3564453,0.0551758,2.5751953
		c0,6.4130859-2.4326172,11.4658203-7.4350586,15.4462891c-2.84375,2.2607422-5.996582,3.4072266-9.3725586,3.4072266h-6.644043
		c-0.4111328,0-0.7895508,0.2226562-0.9897461,0.5810547c-0.2001953,0.3613281-0.1894531,0.7988281,0.027832,1.1484375
		l22.621582,36.4472656l0.0751953,0.2167969c0,0.0703125-0.0410156,0.1591797-0.1020508,0.2695312
		C403.25,409.8642578,403.2270508,409.8955078,403.0478516,409.8955078z"/>
	<path class="st1" d="M468.0336914,409.4707031c-3.6162109,0.6572266-7.2631836,0.2744141-10.7192383-1.1523438
		c-5.34375-2.1796875-8.972168-6.2480469-11.097168-12.4472656c-0.6704102-1.9179688-2.0917969-2.9736328-4.003418-2.9736328
		c-0.4902344,0-1.0043945,0.0908203-1.6694336,0.3164062c-2.6704102,1.1640625-4.1435547,2.5488281-4.5043945,4.2353516
		c-0.3935547,1.8359375-0.4389648,2.5-0.4389648,2.8378906c0,3.234375,2.2998047,6.1572266,6.8383789,8.6884766
		c3.9116211,2.1630859,7.6669922,3.5019531,11.1650391,3.9775391c3.4057617,0.4667969,6.2973633,0.703125,8.5961914,0.703125
		c4.6616211,0,8.9589844-0.5546875,12.7788086-1.6523438c4.0375977-1.1923828,7.5708008-3.28125,10.4956055-6.2050781
		c3.8608398-3.8212891,5.8183594-8.5449219,5.8183594-14.0380859c0-2.8027344-0.5727539-5.5263672-1.6958008-8.0820312
		c-2.5805664-6.0839844-7.5498047-10.7363281-14.7695312-13.8310547l-0.0024414-0.0009766
		c-2.7910156-1.1884766-5.6704102-2.28125-8.5717773-3.2490234c-13.2202148-4.2041016-20.7138672-9.7929688-22.2558594-16.5283203
		c-0.1015625-0.6791992-0.1538086-1.3676758-0.1538086-2.046875c0-1.8164062,0.4526367-3.5273438,1.3408203-5.0761719
		c2.1679688-3.7148438,5.6572266-5.9267578,10.6557617-6.7597656c3.684082-0.5722656,7.3486328-0.1992188,10.8134766,1.2075195
		c5.2998047,2.1064453,8.9082031,6.1552734,11.0410156,12.4106445c0.7231445,1.9301758,2.1425781,2.9501953,4.1049805,2.9501953
		c0.4956055,0,1.0112305-0.0917969,1.6635742-0.3129883c2.6386719-1.125,4.0874023-2.487793,4.4282227-4.1660156
		c0.3662109-1.7963867,0.4125977-2.4101562,0.4125977-2.7446289c0-3.3061523-2.3007812-6.2651367-6.8339844-8.7929688
		c-3.9091797-2.2011719-7.6782227-3.5595703-11.1992188-4.0400391c-3.4360352-0.465332-6.375-0.7011719-8.734375-0.7011719
		c-10.0854492,0-17.8432617,2.6450195-23.0522461,7.8564453c-2.9614258,2.9213867-4.8574219,6.5708008-5.6416016,10.8813477
		c-0.1547852,1.0424805-0.2333984,2.0864258-0.2333984,3.1020508c0,2.8383789,0.5717773,5.5976562,1.6992188,8.2011719
		c2.6162109,6.0400391,7.6015625,10.671875,14.8183594,13.7666016c2.7333984,1.1816406,5.5961914,2.2744141,8.515625,3.2480469
		c13.2954102,4.3144531,20.8085938,9.9199219,22.3173828,16.5859375c0.1020508,0.6796875,0.1538086,1.3701172,0.1538086,2.046875
		c0,1.8232422-0.4521484,3.5332031-1.3305664,5.0595703C476.5449219,406.4306641,473.0336914,408.6298828,468.0336914,409.4707031z"
		/>
	<path class="st1" d="M560.222168,339.909668l-0.0058594-0.003418c-7.25-5.2109375-15.0532227-7.8535156-23.1948242-7.8535156
		c-6.9135742,0-13.4003906,1.9619141-19.2841797,5.8349609c-4.2333984,2.7988281-7.9458008,6.3959961-11.0332031,10.6914062
		c-5.0288086,6.9956055-7.5786133,15.0048828-7.5786133,23.8027344c0,7.78125,2.0297852,15.0751953,6.0410156,21.6953125
		c2.8671875,4.6035156,6.484375,8.5458984,10.7641602,11.7255859c7.2490234,5.2128906,15.0532227,7.8535156,23.1953125,7.8535156
		c6.8349609,0,13.3208008-1.9619141,19.2773438-5.8339844c4.269043-2.7919922,7.984375-6.3916016,11.0410156-10.6962891
		c5.0654297-7.0644531,7.6328125-15.0712891,7.6328125-23.8007812c0-7.7392578-2.0488281-15.0527344-6.0927734-21.7426758
		C568.1523438,346.9750977,564.5317383,343.0478516,560.222168,339.909668z M555.1479492,403.7587891
		c-3.1328125,3.1279297-6.8896484,5.0683594-11.1352539,5.7607422c-4.0429688,0.5371094-8.4370117-0.0244141-12.3779297-1.9248047
		c-6.7548828-3.6416016-11.7348633-10.0947266-14.8056641-19.1992188
		c-2.5273438-7.1855469-3.8095703-14.7324219-3.8095703-22.4335938c0-4.7792969,0.5981445-9.2646484,1.7797852-13.3320312
		c1.1616211-3.9902344,3.2954102-7.6030273,6.3417969-10.737793c3.0043945-3.0908203,6.7133789-5.0112305,11.0219727-5.7070312
		c1.0844727-0.1733398,2.159668-0.262207,3.1972656-0.262207c3.1645508,0,6.2543945,0.7421875,9.1601562,2.1938477
		c6.8222656,3.6074219,11.7978516,10.0576172,14.7978516,19.1948242c2.5639648,7.3017578,3.8652344,15.0351562,3.8652344,22.9892578
		C563.1835938,390.2802734,560.4794922,398.1748047,555.1479492,403.7587891z"/>
	<path class="st1" d="M644.3583984,413.25c0.2148438,0.2587891,0.5332031,0.40625,0.8696289,0.40625h1.5507812
		c0.6259766,0,1.1328125-0.5058594,1.1328125-1.1318359v-70.1489258c0-1.8442383,0.625-3.3662109,1.9091797-4.652832
		c1.2866211-1.2851562,2.8085938-1.9101562,4.652832-1.9101562c0.3007812,0,0.5883789-0.1196289,0.8007812-0.3320312
		s0.3320312-0.5,0.3320312-0.8007812v-1.5498047c0-0.6259766-0.5068359-1.1328125-1.1328125-1.1328125h-16.8852539
		c-0.6259766,0-1.1328125,0.5068359-1.1328125,1.1328125v1.5498047c0,0.3007812,0.1196289,0.5883789,0.3320312,0.8007812
		s0.5,0.3320312,0.8007812,0.3320312c1.8076172,0,3.3110352,0.625,4.5961914,1.9101562
		c1.2856445,1.2866211,1.9106445,2.7910156,1.9106445,4.5976562v47.7480469l-47.9926758-57.6630859
		c-0.2143555-0.2587891-0.5341797-0.4082031-0.8706055-0.4082031h-1.5483398c-0.6264648,0-1.1328125,0.5068359-1.1328125,1.1328125
		v70.2041016c0,1.8095703-0.6274414,3.3222656-1.9169922,4.6279297c-1.2832031,1.3007812-2.7856445,1.9335938-4.5917969,1.9335938
		c-0.6264648,0-1.1328125,0.5068359-1.1328125,1.1328125v1.4960938c0,0.6259766,0.5063477,1.1318359,1.1328125,1.1318359h16.887207
		c0.6259766,0,1.1328125-0.5058594,1.1328125-1.1318359v-1.4960938c0-0.6259766-0.5068359-1.1328125-1.1328125-1.1328125
		c-1.8417969,0-3.3618164-0.6328125-4.6484375-1.9335938c-1.2885742-1.3056641-1.9160156-2.8183594-1.9160156-4.6279297v-47.6445312
		L644.3583984,413.25z"/>
	<path class="st1" d="M375.0717773,480.6386719c0.7929688,0.5439453,1.9331055,0.4140625,2.5620117-0.3349609
		c1.4467773-1.7226562,1.4951172-4.8232422,1.4916992-6.9628906c-0.0043945-2.8398438-4.7558594-2.65625-5.0917969-0.0175781
		c-0.1674805,1.3203125-0.2172852,2.6660156-0.1469727,3.9960938
		C373.9482422,478.4716797,374.0263672,479.9228516,375.0717773,480.6386719z"/>
	<path class="st1" d="M295.9223633,458.546875c0.0961914-2.8515625-0.7050781-6.2421875-3.6679688-7.3779297
		c-3.3203125-1.2724609-7.4238281,0.4775391-10.1186523,2.4267578c-3.0048828,2.1728516-5.3852539,5.5-7.3837891,8.5751953
		c-8.3564453,12.8564453-10.5751953,29.7910156-7.7631836,44.6904297
		c1.3149414,6.9628906,3.7119141,14.1933594,8.5097656,19.5722656c4.5483398,5.1005859,11.7075195,9.1025391,18.6699219,6.6357422
		c6.0957031-2.1611328,11.0991211-12.5791016,5.2260742-17.4677734c-2.90625-2.4199219-7.2421875-2.7871094-10.8452148-2.2832031
		c-1.3242188,0.1865234-2.6210938,0.4882812-3.8969727,0.8701172c2.3554688-2.0556641,4.7133789-4.1083984,7.0678711-6.1669922
		c2.3608398-2.0654297,4.8217773-4.0976562,7.1088867-6.2900391c-0.5566406,4.1855469-0.2050781,9.5615234,3.3447266,11.9814453
		c1.956543,1.3330078,4.1733398,1.3408203,6.0209961-0.1367188c1.5009766-1.2001953,2.2592773-3.2011719,2.8930664-5.0888672
		c-0.0273438,1.9970703,0.1425781,3.9990234,0.7226562,5.9179688c0.6147461,2.0322266,1.7578125,4.515625,3.6025391,5.6875
		c4.5737305,2.9091797,7.4916992-3.609375,9.0854492-6.8955078c1.4375-2.9648438,2.7368164-6.0058594,3.956543-9.0751953
		c0.0610352,1.3828125,0.1494141,2.7666016,0.3178711,4.1318359c0.265625,2.1503906,0.5493164,4.4726562,1.4760742,6.4443359
		c1.0361328,2.203125,4.6586914,1.8974609,5.0908203-0.625c0.3535156-2.0664062,0.1933594-4.1816406,0.1542969-6.2685547
		c0.184082-1.8564453,0.4628906-3.703125,0.8378906-5.5341797c0.6655273-3.2490234,1.5224609-6.6484375,3.1992188-9.5410156
		c0.3798828-0.6533203,0.8164062-1.265625,1.3149414-1.8359375c0.2963867-0.3378906,1.0869141-1.1777344,1.3149414-1.1005859
		c0.8920898,0.3056641,0.902832,3.4423828,0.9975586,4.1728516c0.4702148,3.6445312,0.293457,7.2988281,0.390625,10.9619141
		c0.0449219,1.7216797,1.878418,2.8203125,3.4555664,2.6337891c1.7797852-0.2109375,2.9819336-1.6611328,3-3.4003906
		c0.0058594-0.5683594,0.0058594-1.1474609-0.0014648-1.7324219c0.1958008-2.15625,0.5639648-4.296875,1.1000977-6.3955078
		c0.5732422-2.2392578,1.2636719-4.6767578,2.7509766-6.5c0.3271484-0.4042969,1.5449219-1.8476562,2.1962891-1.5253906
		c0.5483398,0.2705078,0.2954102,2.3544922,0.277832,2.8525391c-0.0927734,2.5917969-0.3168945,5.171875-0.5898438,7.7509766
		c-0.5507812,5.21875-1.871582,11.1523438,0.1069336,16.2382812c0.7924805,2.0361328,2.8881836,3.1748047,5.0444336,3.0087891
		c2.2368164-0.1728516,4.090332-1.7861328,5.3364258-3.5361328c2.1445312-3.0136719,3.7373047-6.4199219,5.1889648-9.8740234
		c0.0161133,4.1064453,0.3115234,8.3828125,1.706543,12.2353516c0.6835938,1.8857422,1.8881836,3.84375,3.640625,4.9033203
		c1.9453125,1.1757812,3.7963867,0.7539062,5.6699219-0.2753906c1.6293945-0.8935547,2.5957031-2.4160156,3.4428711-4.0185547
		c1.0097656-1.9140625,1.9033203-3.8828125,2.6772461-5.9042969c0.8295898-2.1650391,1.5332031-4.3710938,2.1796875-6.5947266
		c0.331543,2.453125,0.8051758,4.8857422,1.4477539,7.28125c1.1972656,4.4628906,3.2290039,9.1210938,7.9638672,10.6533203
		c5.3291016,1.7246094,8.3208008-4.484375,9.8813477-8.4326172c1.0717773-2.7128906,2.0151367-5.4882812,2.8852539-8.2871094
		c0.2739258,1.9697266,0.809082,3.9355469,1.8920898,5.6054688c1.1748047,1.8134766,3.3085938,3.3955078,5.5703125,2.7070312
		c1.8857422-0.5732422,3.1103516-2.4707031,3.9418945-4.1269531c1.0576172-2.1083984,1.8100586-4.3759766,2.512207-6.6220703
		c0.4580078-1.4677734,0.8759766-2.9472656,1.2617188-4.4355469c0.0913086,0.7236328,0.1816406,1.4462891,0.2607422,2.1689453
		c0.390625,3.5146484,0.7133789,7.0371094,0.9746094,10.5634766c-4.519043,5.7822266-8.6044922,12.640625-10.2255859,19.8398438
		c-0.7631836,3.3886719-1.2543945,7.8476562,1.5888672,10.4501953c2.6748047,2.4482422,6.730957,1.625,9.4042969-0.390625
		c3.2919922-2.4814453,4.9208984-6.4677734,5.7944336-10.3867188c0.9648438-4.3291016,1.1118164-8.8652344,1.0751953-13.2861328
		c-0.0283203-3.2783203-0.2099609-6.5585938-0.4555664-9.8320312c3.3046875-3.7285156,7.0273438-7.0703125,11.0454102-10.0527344
		c1.5639648-1.1591797-0.1650391-3.2861328-1.7050781-2.2070312c-3.4580078,2.4199219-6.6870117,5.15625-9.6796875,8.1347656
		c-0.0249023-0.2851562-0.0488281-0.5703125-0.074707-0.8535156c-0.4521484-5.0507812-0.8535156-10.2021484-2.0766602-15.1328125
		c-0.4145508-1.6679688-2.6367188-2.2929688-4.0766602-1.9160156c-1.6621094,0.4355469-2.9130859,1.84375-2.8344727,3.6259766
		l0.0083008,0.1513672c-0.5839844,3.4628906-1.34375,6.890625-2.2988281,10.2714844
		c-0.5268555,1.8623047-1.0844727,3.7275391-1.7695312,5.5380859c-0.3320312,0.8837891-0.7080078,1.7490234-1.1342773,2.5917969
		c-0.1933594,0.3818359-0.3916016,0.7646484-0.6098633,1.1337891c-0.0356445,0.0605469-0.3442383,0.4648438-0.578125,0.7900391
		c-0.0605469-0.296875-0.2382812-0.6220703-0.3203125-0.9042969c-0.2226562-0.7646484-0.4067383-1.5214844-0.527832-2.3066406
		c-0.2636719-1.7138672-0.3300781-3.4345703-0.3344727-5.1669922c-0.012207-4.1142578,0.3901367-8.2138672,0.5849609-12.3203125
		c0.078125-1.6552734-1.7871094-2.8105469-3.2280273-2.796875c-1.5258789,0.0146484-3.3974609,1.0820312-3.5791016,2.7734375
		c-0.2563477,2.3876953-0.4936523,4.8261719-0.6245117,7.2695312c-0.0654297,0.1074219-0.1230469,0.2226562-0.1611328,0.3535156
		c-1.2246094,4.2978516-2.5522461,8.5703125-4.0224609,12.7910156c-0.6313477,1.8125-1.2910156,3.6230469-2.1313477,5.3515625
		c-0.75,1.5419922-1.9223633,4.1201172-3.8105469,4.5478516c-1.7524414,0.3974609-2.2368164-2.0791016-2.6333008-3.2871094
		c-0.5991211-1.8261719-0.980957-3.7070312-1.3310547-5.5957031c-0.5708008-3.0732422-0.9589844-6.1835938-1.1655273-9.3046875
		c4.8037109-8.1201172,9.4555664-16.4179688,12.2109375-25.4853516c0.7407227-2.4375,1.40625-4.9472656,1.4785156-7.5087891
		c0.0546875-1.9443359-0.168457-4.1220703-1.8725586-5.3564453c-4.4145508-3.1982422-9.4780273,1.1953125-12.0258789,4.7246094
		c-5.8525391,8.1025391-7.128418,18.4326172-7.0820312,28.1777344l0.0004883,0.0205078
		c-0.0727539,0.1171875-0.1352539,0.2441406-0.1738281,0.390625c-1.1884766,4.5888672-2.3706055,9.1992188-4.0961914,13.6220703
		c-0.8413086,2.1582031-1.7905273,4.3007812-2.9667969,6.2988281c-0.3046875,0.5195312-1.1518555,2.125-1.9233398,2.1357422
		c-0.4414062,0.0058594-0.5493164-0.7236328-0.6362305-1.0654297c-1.1582031-4.5712891-1.4868164-9.5654297-1.4916992-14.2636719
		c-0.003418-5.0234375,0.7714844-10,0.8012695-15.0146484c0.0107422-1.7197266-1.7954102-2.9140625-3.3427734-2.8984375
		c-1.690918,0.015625-3.3701172,1.1259766-3.7084961,2.8730469c-0.5029297,2.6074219-0.7861328,5.2851562-0.9575195,7.96875
		c-0.1772461,0.1425781-0.3305664,0.3300781-0.4370117,0.5800781c-2.1308594,5.0234375-4.0117188,10.3417969-6.9985352,14.9404297
		c-0.5830078,0.8955078-1.3183594,2.0380859-2.3056641,2.5400391c-0.2661133,0.1367188-0.7978516,0.3847656-0.9663086,0.21875
		c-0.1899414-0.1855469-0.1196289-1.3720703-0.1113281-1.6318359c0.0854492-2.5820312,0.6870117-5.1923828,0.9418945-7.7666016
		c0.5400391-5.4619141,1.9179688-11.7880859-0.1352539-17.0976562c-1.9648438-5.0791016-7.7724609-3.6386719-10.4389648-0.0380859
		c-1.0488281,1.4169922-1.8461914,3.0419922-2.4550781,4.7685547c-0.2446289-0.7890625-0.5327148-1.5576172-0.8745117-2.2939453
		c-0.8461914-1.8222656-2.2451172-3.5673828-4.3837891-3.7988281c-1.9116211-0.2050781-3.4306641,0.6181641-4.7182617,1.9697266
		c-1.3061523,1.3730469-2.2724609,3.0195312-3.0307617,4.7744141c0.0830078-1.4492188,0.1601562-2.9003906,0.2016602-4.3544922
		c0.0478516-1.6191406-1.7231445-2.7470703-3.152832-2.7324219c-1.6186523,0.015625-3.1484375,1.0654297-3.4970703,2.7099609
		c-0.4990234,2.3515625-0.7451172,4.7705078-0.8554688,7.1953125l-0.0571289,0.1123047
		c-1.6777344,4.3232422-3.3916016,8.6396484-5.3022461,12.8652344c-0.9311523,2.0585938-1.8808594,4.1494141-3.0566406,6.0830078
		c-0.2871094,0.4716797-0.5898438,0.9306641-0.9316406,1.3662109c-0.2646484,0.3359375-0.7270508,0.6650391-0.9384766,1.0175781
		l-0.0058594-0.0449219c-0.0546875-0.4443359-0.0820312-0.8867188-0.1152344-1.3330078
		c-0.6323242-8.5341797,1.4868164-16.9150391,3.1884766-25.2021484c0.3808594-1.8564453-1.0288086-3.5625-2.8540039-3.7998047
		c-2.0375977-0.2646484-3.6181641,1.0625-4.2089844,2.8984375l-0.0473633,0.1523438
		c-1.6494141-1.3837891-3.546875-1.7548828-5.6782227-1.7138672c-3.8891602,0.0771484-6.5024414,3.5166016-8.0131836,7.1015625
		c-3.3286133,3.7324219-7.1376953,6.9609375-10.9179688,10.2324219c-3.8754883,3.3535156-7.746582,6.7128906-11.6147461,10.0732422
		c-1.5048828-3.2177734-2.5410156-6.671875-3.1972656-10.1152344c7.6816406-11.2197266,15.1147461-22.7304688,19.1362305-35.8320312
		C294.9858398,466.4082031,295.7895508,462.5273438,295.9223633,458.546875z M428.7983398,534.4003906
		c-0.4199219,1.8720703-1.6899414,7.4599609-4.7583008,5.7333984c-2.8457031-1.5996094-1.5478516-6.53125-0.8935547-8.9453125
		c1.315918-4.8525391,3.7744141-9.5029297,6.5478516-13.8007812
		C430.0136719,523.0800781,430.046875,528.8388672,428.7983398,534.4003906z M400.7714844,475.3535156
		c1.2924805-3.0439453,2.8671875-6.5703125,5.8359375-8.2890625c0.0986328-0.0566406,0.1708984-0.1005859,0.2246094-0.1357422
		l-0.0224609,0.1484375c0.2431641,0.2958984,0.3876953,0.4736328,0.5375977,0.8310547
		c0.2631836,0.6328125,0.2456055,1.3193359,0.2231445,1.9951172c-0.0810547,2.3769531-0.7373047,4.7001953-1.4384766,6.9570312
		c-2.1049805,6.7714844-5.3544922,13.0917969-8.8691406,19.2392578
		C397.2617188,489.0400391,397.987793,481.9101562,400.7714844,475.3535156z M306.6166992,496.0605469
		c0.7143555-1.2861328,2.2973633-3.8378906,4.0288086-3.6191406c1.0688477,0.1347656,1.8461914,0.8349609,2.4169922,1.7275391
		c-0.0737305,0.2939453-0.1435547,0.5908203-0.2109375,0.8876953c-1.0170898,2.1738281-1.8608398,4.4355469-2.659668,6.7207031
		c-0.8554688,2.4501953-1.6669922,4.921875-2.6899414,7.3085938c-0.206543,0.4814453-0.3964844,0.9892578-0.6669922,1.4394531
		c-0.3808594,0.6367188-0.2919922,0.7041016-0.7739258,0.3955078c-0.6547852-0.4199219-0.9658203-1.6806641-1.1665039-2.3613281
		C303.6923828,504.4775391,304.5883789,499.7148438,306.6166992,496.0605469z M295.7524414,517.0302734
		c5.7841797,2.5703125,2.3652344,11.0869141-2.9794922,11.7705078c-5.159668,0.6601562-9.7294922-4.2685547-12.3364258-8.1152344
		c-0.2978516-0.4414062-0.581543-0.8925781-0.8583984-1.3486328
		C284.5859375,517.0126953,290.5361328,514.7128906,295.7524414,517.0302734z M292.4868164,459.7734375
		c-0.0913086,3.390625-0.9243164,6.7871094-1.8793945,10.0234375c-3.3964844,11.5068359-9.8364258,21.8056641-16.6123047,31.6689453
		c-1.2470703-11.1269531,0.5585938-22.4345703,5.0527344-32.7304688c1.2246094-2.8037109,2.6699219-5.5800781,4.4677734-8.0634766
		c1.4858398-2.0527344,3.3666992-4.75,5.7636719-5.7900391
		C292.2792969,453.5810547,292.5390625,457.8525391,292.4868164,459.7734375z"/>
	<path class="st1" d="M431.2919922,207.7749023c-0.8051758,0.5756836-1.9047852,1.2661133-2.8994141,2.1396484
		c-1.9995117,1.6518555-4.0029297,3.3037109-4.0029297,3.3037109s2.7460938-1.1435547,5.4892578-2.2856445
		c2.796875-0.9213867,5.590332-1.8408203,5.590332-1.8408203c5.1030273-1.3457031,10.5185547-2.4272461,16.2333984-2.6640625
		c5.7109375-0.2280273,11.6474609,0.1835938,17.7080078,1.2617188c11.1982422,1.9389648,22.7270508,6.2583008,34.6665039,11.4980469
		c3.6435547,2.4145508,7.3129883,5.09375,11.0209961,7.9238281c12.1723633,9.2856445,24.402832,20.6552734,38.0537109,31.6088867
		c14.2807617,11.6020508,32.4223633,20.2905273,50.4331055,21.4741211
		c8.9306641,0.6337891,17.5844727-0.6450195,24.8286133-3.4257812c7.2700195-2.7568359,13.0683594-6.9179688,17.2280273-11.3686523
		l4.027832-4.7915039c0,0-7.0585938,2.8115234-7.1132812,2.6298828c-6.6503906,2.1542969-15.8286133,3.4692383-26.0522461,1.6933594
		c-9.6738281-1.7426758-19.6313477-5.7431641-29.2685547-11.7041016c-2.7304688-1.6547852-5.4916992-3.4902344-8.2089844-5.4208984
		c6.487793,1.0703125,13.1875,1.5981445,20.0498047,1.3325195c4.4101562-0.1547852,9.0800781-0.6132812,13.5961914-1.5112305
		c4.5014648-0.9272461,8.9086914-2.1162109,13.206543-3.7749023c8.5410156-3.3110352,17.0341797-7.7836914,24.1694336-15.6816406
		c3.5834961-3.7807617,6.5703125-8.8486328,8.3188477-14.3608398c0.375-1.4150391,0.7172852-2.8398438,1.0268555-4.2597656
		c0.3168945-1.4169922,0.2807617-2.8754883,0.3862305-4.3105469c0.2768555-2.9262695-0.21875-5.6162109-0.6376953-8.3261719
		c-2.0068359-10.3911133-8.1948242-19.1396484-15.5517578-24.7851562c-3.675293-2.9262695-7.8310547-5.0224609-12.059082-6.6396484
		c-4.3125-1.4951172-8.8178711-2.309082-13.3486328-2.3417969c-9.0766602,0.0039062-18.2436523,3.9736328-23.5068359,10.3095703
		l-1.9453125,2.3198242c-0.5639648,0.7832031-1.0302734,1.5825195-1.5332031,2.3657227
		c-1.0195312,1.4858398-1.8134766,3.3413086-2.6005859,5.0205078c-1.4345703,3.5854492-2.199707,8.1962891-1.1616211,11.9936523
		c0.9433594,3.8481445,3.4780273,6.9658203,6.1733398,8.9125977c2.6298828,1.9301758,5.4052734,2.8920898,8.0273438,3.5893555
		c0,0,0.6777344,0.1601562,1.6972656,0.4023438c1.034668,0.1762695,2.3823242,0.4296875,3.7373047,0.5644531
		c2.7021484,0.3129883,5.3613281,0.2988281,5.3613281,0.296875c0,0-3.3510742-0.96875-6.4541016-2.418457
		c-3.1542969-1.3803711-5.8237305-3.3686523-5.8276367-3.3671875c-2.4912109-1.8647461-4.6254883-4.2592773-5.3393555-7.2553711
		c-0.8051758-3.0957031,0.3061523-6.1499023,2.4584961-9.125c2.2290039-2.9941406,5.1865234-5.8515625,8.6318359-7.4448242
		c3.4819336-1.6279297,7.5209961-2.0976562,11.574707-1.3383789c7.6669922,1.3491211,15.2319336,6.9399414,18.8847656,14.140625
		c0.4770508,0.8867188,0.9067383,1.7827148,1.1801758,2.7246094l0.4916992,1.3725586l0.2695312,1.4643555
		c0.5390625,1.9487305,0.484375,3.7768555,0.4189453,5.4887695c-0.3500977,3.3710938-1.8754883,6.1826172-4.6000977,8.9614258
		c-5.4780273,5.5615234-15.3774414,9.7158203-25.3061523,11.4946289c-2.4838867,0.4448242-4.9824219,0.7397461-7.5170898,0.9125977
		c-2.6225586,0.0834961-5.2773438,0.2641602-7.8891602,0.1074219c-5.2553711-0.1928711-10.6132812-0.7739258-16.0800781-1.9248047
		c-10.0107422-1.9707031-20.2177734-5.296875-30.7314453-8.9838867c0.7080078-0.4550781,1.4116211-0.9257812,2.1040039-1.4326172
		c2.159668-1.3842773,3.8789062-3.3691406,5.7983398-5.1445312c1.7080078-1.9833984,3.3217773-4.0791016,4.8037109-6.3500977
		c2.8706055-4.7167969,4.7749023-10.3510742,5.059082-16.4575195c0.3022461-6.0786133-1.2602539-12.3139648-4.1152344-17.4404297
		c-2.8447266-5.1645508-6.8183594-9.2875977-11.15625-12.3505859c-4.3491211-3.0722656-9.1054688-5.1318359-13.8549805-6.3393555
		c-2.378418-0.5537109-4.7016602-0.9506836-6.9018555-1.1274414c-2.2143555-0.2363281-4.5820312-0.2543945-6.8725586-0.1201172
		c-9.2695312,0.3681641-18.4550781,4.9501953-23.4448242,11.2421875c-5.0551758,6.3261719-6.5126953,13.1933594-6.1552734,18.828125
		c0,0,0.0253906,1.456543,0.2548828,2.8974609c0.2075195,1.4052734,0.4189453,2.8095703,0.4189453,2.8095703
		s0.6772461-1.5605469,1.3549805-3.1210938c0.7900391-1.5029297,1.5698242-2.9780273,1.5698242-2.9780273
		c3.0195312-5.2788086,9.1088867-11.6308594,17.4238281-12.246582c3.8461914-0.3457031,7.8232422,0.2456055,11.90625,1.746582
		c4.2177734,1.4931641,7.7363281,3.5380859,10.4750977,6.2714844c1.3691406,1.3422852,2.3999023,2.8466797,3.2524414,4.2797852
		c0.7392578,1.4931641,1.1728516,2.9394531,1.3950195,4.2851562c0.152832,1.3603516,0.003418,2.6313477-0.2441406,3.9555664
		c-0.3203125,1.3198242-0.9506836,2.7856445-1.7045898,4.2045898c-1.8574219,3.0249023-4.3706055,5.7744141-7.7470703,7.9765625
		c-3.3764648,2.2363281-7.7358398,4.0078125-12.652832,5.25c-0.8051758,0.1967773-1.6386719,0.3652344-2.465332,0.5405273
		c-2.4995117-0.7724609-5.0146484-1.5239258-7.5581055-2.2270508c-12.4633789-3.4667969-25.746582-5.8256836-38.9453125-5.2939453
		c-13.1958008,0.6030273-26.0307617,4.5239258-35.9482422,11.4438477
		C432.6469727,206.8334961,432.1040039,207.2104492,431.2919922,207.7749023z M523.453125,204.59375
		c4.4912109-1.6259766,8.4321289-3.753418,11.5932617-6.3959961c3.1103516-2.5727539,5.8168945-5.9599609,7.2260742-9.2890625
		c1.3876953-3.4038086,1.9013672-6.6835938,1.0087891-10.0922852c-0.7246094-3.4384766-3.0224609-6.8217773-5.9658203-9.6943359
		c-3.0371094-2.8422852-6.7924805-4.9692383-10.9375-6.4609375c-4.1298828-1.5185547-8.3149414-2.347168-12.4487305-2.2070312
		c-6.6323242,0.1708984-12.5727539,3.4111328-16.4916992,7.3974609c1.4785156-4.8515625,5.2226562-10.0068359,11.1230469-13.3598633
		c2.9321289-1.6826172,6.2973633-2.7573242,9.8300781-3.4199219c3.4858398-0.4824219,7.2333984-0.6606445,10.7412109-0.1748047
		c3.5800781,0.3696289,7.4443359,1.2602539,11.1044922,2.8813477c3.6860352,1.5458984,7.2626953,3.7529297,10.3916016,6.7143555
		c3.1396484,2.9243164,5.8818359,6.5595703,7.7397461,10.8027344c1.8242188,4.2553711,2.6367188,9.0888672,2.2719727,13.7416992
		c-0.3417969,4.6748047-1.762207,9.0742188-3.9404297,12.8364258c-2.1669922,3.7646484-4.8549805,6.949707-7.9619141,9.6391602
		c-2.1064453,1.8325195-4.3789062,3.340332-6.7265625,4.5991211c-6.5600586-2.3330078-13.2431641-4.7460938-20.0825195-7.015625
		C522.4355469,204.9267578,522.9589844,204.777832,523.453125,204.59375z M548.8500977,239.1669922
		c6.7827148,2.6323242,13.9960938,5.0639648,21.5458984,6.878418c0.637207,0.5029297,1.2709961,0.996582,1.8989258,1.4697266
		c4.4140625,3.3725586,8.9707031,6.6196289,13.578125,9.34375c4.6035156,2.7680664,9.2548828,5.253418,13.9716797,7.1333008
		c2.3310547,1.0708008,4.7163086,1.7426758,7.0473633,2.6020508c2.3637695,0.59375,4.6987305,1.4082031,7.0297852,1.777832
		c7.4370117,1.5585938,14.4956055,1.5166016,20.5375977,0.6660156c-4.5961914,2.9741211-10.3579102,5.4594727-16.9433594,6.6655273
		c-6.5703125,1.1689453-13.8764648,1.1489258-21.2338867-0.1674805
		c-14.7617188-2.5805664-29.4541016-10.2749023-41.4296875-20.1469727
		c-11.6953125-9.4257812-22.4902344-19.3925781-33.2529297-27.9863281c-0.199707-0.159668-0.3974609-0.3125-0.5966797-0.4711914
		C529.8325195,231.0600586,539.0234375,235.3334961,548.8500977,239.1669922z"/>
	<path class="st1" d="M492.6367188,227.6396484c-7.0800781-5.9609375-17.6132812-12.277832-30.3793945-12.9355469
		c-6.3007812-0.2836914-12.9838867,0.9545898-18.7861328,4.1103516c-5.809082,3.0976562-10.6206055,8.1567383-13.0825195,14.6381836
		l-1.0419922,2.7749023l2.8486328-0.0947266c5.0410156-0.1582031,10.8027344-0.0126953,16.5605469,0.7451172
		c5.7729492,0.6938477,11.53125,1.8666992,17.2929688,2.9589844c11.4692383,2.1308594,23.4267578,3.831543,35.296875-1.5019531
		l3.0849609-1.3876953l-2.5751953-1.8613281C499.4477539,233.3393555,496.4248047,230.8266602,492.6367188,227.6396484z"/>
	<path class="st1" d="M487.3813477,245.9521484c-10.5078125,0.6943359-18.684082,3.2910156-17.7480469,9.9580078
		c0.5639648,3.6328125,3.1611328,5.4648438,6.9018555,6.0351562c3.7915039,0.5517578,8.5805664-0.105957,13.402832-1.418457
		c2.4550781-0.7197266,4.8989258-1.4624023,7.2626953-2.2236328c2.3745117-0.7924805,4.7163086-1.7592773,6.9018555-2.675293
		c4.3344727-1.4750977,8.1948242-3.2597656,10.5185547-4.9042969v-0.4589844
		c-2.3564453-1.0234375-6.4208984-2.3203125-11.4145508-3.4379883c-2.4550781-0.4189453-5.0771484-0.6303711-7.7871094-0.8271484
		C492.7026367,245.8066406,489.9311523,245.7373047,487.3813477,245.9521484z"/>
	<path class="st1" d="M54.605957,209.5507812c0.3095703,1.4199219,0.6518555,2.8447266,1.0268555,4.2597656
		c1.7485352,5.512207,4.7353516,10.5800781,8.3188477,14.3608398c7.1352539,7.8979492,15.6289062,12.3706055,24.1699219,15.6816406
		c4.2973633,1.6586914,8.7045898,2.8476562,13.206543,3.7749023c4.5161133,0.8979492,9.1855469,1.3564453,13.5961914,1.5112305
		c6.8623047,0.265625,13.5620117-0.262207,20.0493164-1.3325195c-2.7172852,1.9306641-5.4785156,3.7661133-8.2089844,5.4208984
		c-9.637207,5.9609375-19.5947266,9.9614258-29.2685547,11.7041016
		c-10.2236328,1.7758789-19.4013672,0.4609375-26.0522461-1.6933594c-0.0546875,0.1816406-7.112793-2.6298828-7.112793-2.6298828
		l4.027832,4.7915039c4.159668,4.4506836,9.9580078,8.6118164,17.2275391,11.3686523
		c7.2446289,2.7807617,15.8979492,4.0595703,24.8286133,3.4257812c18.0107422-1.1835938,36.1523438-9.8720703,50.4335938-21.4741211
		c13.6503906-10.9536133,25.8808594-22.3232422,38.0532227-31.6088867
		c3.7080078-2.8300781,7.3774414-5.5092773,11.0209961-7.9238281c11.9394531-5.2397461,23.4682617-9.559082,34.6665039-11.4980469
		c6.0605469-1.078125,11.9970703-1.4897461,17.7080078-1.2617188c5.7148438,0.2368164,11.1303711,1.3183594,16.2333984,2.6640625
		c0,0,2.793457,0.9194336,5.5908203,1.8408203c2.7426758,1.1420898,5.4887695,2.2856445,5.4887695,2.2856445
		s-2.003418-1.6518555-4.0029297-3.3037109c-0.9946289-0.8735352-2.0942383-1.5639648-2.8994141-2.1396484
		c-0.8120117-0.5644531-1.3544922-0.9414062-1.3544922-0.9414062c-9.9179688-6.9199219-22.7529297-10.8408203-35.9487305-11.4438477
		c-13.1987305-0.5317383-26.4819336,1.8271484-38.9453125,5.2939453c-2.543457,0.703125-5.0581055,1.4545898-7.5581055,2.2270508
		c-0.8266602-0.175293-1.6601562-0.34375-2.465332-0.5405273c-4.9169922-1.2421875-9.2763672-3.0136719-12.652832-5.25
		c-3.3764648-2.2021484-5.8896484-4.9516602-7.7470703-7.9765625c-0.7539062-1.4189453-1.3842773-2.8847656-1.7045898-4.2045898
		c-0.2475586-1.3242188-0.3969727-2.5952148-0.2436523-3.9555664c0.2216797-1.3457031,0.6552734-2.7919922,1.3945312-4.2851562
		c0.8525391-1.4331055,1.8833008-2.9375,3.2529297-4.2797852c2.7382812-2.7333984,6.2568359-4.7783203,10.4746094-6.2714844
		c4.0830078-1.5009766,8.0600586-2.0922852,11.90625-1.746582c8.3149414,0.6157227,14.4047852,6.9677734,17.4243164,12.246582
		c0,0,0.7792969,1.4750977,1.5693359,2.9780273c0.6777344,1.5605469,1.3549805,3.1210938,1.3549805,3.1210938
		s0.2114258-1.4042969,0.4189453-2.8095703c0.2294922-1.440918,0.2553711-2.8974609,0.2553711-2.8974609
		c0.3569336-5.6347656-1.1000977-12.5019531-6.1552734-18.828125c-4.9902344-6.2919922-14.1757812-10.8740234-23.4453125-11.2421875
		c-2.2905273-0.1342773-4.6582031-0.1162109-6.8725586,0.1201172c-2.199707,0.1767578-4.5234375,0.5737305-6.9018555,1.1274414
		c-4.7495117,1.2075195-9.5058594,3.2670898-13.8549805,6.3393555c-4.3378906,3.0629883-8.3115234,7.1860352-11.1557617,12.3505859
		c-2.8554688,5.1264648-4.4179688,11.3618164-4.1157227,17.4404297c0.2841797,6.1064453,2.1889648,11.7407227,5.059082,16.4575195
		c1.4819336,2.2709961,3.0957031,4.3666992,4.8037109,6.3500977c1.9194336,1.7753906,3.6386719,3.7602539,5.7983398,5.1445312
		c0.6923828,0.5068359,1.3959961,0.9775391,2.1040039,1.4326172c-10.5136719,3.6870117-20.7202148,7.0131836-30.7314453,8.9838867
		c-5.4667969,1.1508789-10.8242188,1.7319336-16.0800781,1.9248047c-2.6113281,0.1567383-5.2666016-0.0239258-7.8891602-0.1074219
		c-2.534668-0.1728516-5.0332031-0.4677734-7.5170898-0.9125977c-9.9287109-1.7788086-19.828125-5.9331055-25.3061523-11.4946289
		c-2.7241211-2.7788086-4.25-5.590332-4.6000977-8.9614258c-0.0654297-1.7119141-0.1201172-3.5400391,0.4189453-5.4887695
		l0.2695312-1.4643555l0.4916992-1.3725586c0.2734375-0.9418945,0.703125-1.8378906,1.1801758-2.7246094
		c3.652832-7.2006836,11.2177734-12.7915039,18.8847656-14.140625c4.0537109-0.7592773,8.0927734-0.2895508,11.574707,1.3383789
		c3.4453125,1.5932617,6.402832,4.4506836,8.6318359,7.4448242c2.1523438,2.9750977,3.2636719,6.0292969,2.4584961,9.125
		c-0.7138672,2.9960938-2.8481445,5.390625-5.3393555,7.2553711c-0.0039062-0.0014648-2.6733398,1.9868164-5.8276367,3.3671875
		c-3.1030273,1.449707-6.4536133,2.418457-6.4536133,2.418457c0,0.0019531,2.6586914,0.0161133,5.3613281-0.296875
		c1.3544922-0.1347656,2.7021484-0.3881836,3.7368164-0.5644531c1.0195312-0.2421875,1.6972656-0.4023438,1.6972656-0.4023438
		c2.6220703-0.6972656,5.3974609-1.6591797,8.0273438-3.5893555c2.6953125-1.9467773,5.2299805-5.0644531,6.1733398-8.9125977
		c1.0380859-3.7973633,0.2729492-8.4082031-1.1616211-11.9936523c-0.7871094-1.6791992-1.5810547-3.534668-2.6005859-5.0205078
		c-0.5029297-0.7832031-0.9692383-1.5825195-1.5332031-2.3657227l-1.9448242-2.3198242
		c-5.2636719-6.3359375-14.4306641-10.3056641-23.5073242-10.3095703
		c-4.5302734,0.0327148-9.0356445,0.8466797-13.3481445,2.3417969c-4.2285156,1.6171875-8.3842773,3.7133789-12.0595703,6.6396484
		c-7.3569336,5.6455078-13.5449219,14.394043-15.5517578,24.7851562c-0.4189453,2.7099609-0.9140625,5.3999023-0.6376953,8.3261719
		C54.3251953,206.675293,54.2890625,208.1337891,54.605957,209.5507812z M165.2626953,207.5126953
		c-3.1064453-2.6894531-5.7944336-5.8745117-7.9619141-9.6391602c-2.1777344-3.762207-3.5981445-8.1616211-3.9404297-12.8364258
		c-0.3647461-4.652832,0.4477539-9.4863281,2.2724609-13.7416992c1.8574219-4.2431641,4.5996094-7.878418,7.7392578-10.8027344
		c3.1289062-2.9614258,6.7055664-5.168457,10.3916016-6.7143555c3.6601562-1.6210938,7.5244141-2.5117188,11.1049805-2.8813477
		c3.5073242-0.4858398,7.2548828-0.3076172,10.7407227,0.1748047c3.5327148,0.6625977,6.8984375,1.7373047,9.8300781,3.4199219
		C211.3398438,157.8447266,215.0839844,163,216.5625,167.8515625c-3.918457-3.9863281-9.859375-7.2265625-16.4912109-7.3974609
		c-4.1342773-0.1401367-8.3193359,0.6884766-12.4492188,2.2070312c-4.1445312,1.4916992-7.8999023,3.6186523-10.9375,6.4609375
		c-2.9428711,2.8725586-5.2412109,6.2558594-5.9658203,9.6943359c-0.8925781,3.4086914-0.3789062,6.6884766,1.0087891,10.0922852
		c1.409668,3.3291016,4.1157227,6.7163086,7.2260742,9.2890625c3.1611328,2.6425781,7.1025391,4.7700195,11.5932617,6.3959961
		c0.4946289,0.184082,1.0175781,0.3330078,1.5249023,0.5024414c-6.8388672,2.2695312-13.5224609,4.6826172-20.0825195,7.015625
		C169.6416016,210.8530273,167.3691406,209.3452148,165.2626953,207.5126953z M141.7050781,247.5151367
		c0.6279297-0.4731445,1.262207-0.9667969,1.8989258-1.4697266c7.5498047-1.8144531,14.7631836-4.2460938,21.5458984-6.878418
		c9.8266602-3.8334961,19.0175781-8.1069336,27.847168-12.2353516c-0.1992188,0.1586914-0.3969727,0.3115234-0.5966797,0.4711914
		c-10.7626953,8.59375-21.5576172,18.5605469-33.2529297,27.9863281
		c-11.9755859,9.8720703-26.6679688,17.5664062-41.4296875,20.1469727
		c-7.3569336,1.3164062-14.6635742,1.3364258-21.2338867,0.1674805c-6.5854492-1.2060547-12.347168-3.6914062-16.9433594-6.6655273
		c6.0424805,0.8505859,13.1005859,0.8925781,20.5380859-0.6660156c2.3310547-0.3696289,4.6655273-1.184082,7.0292969-1.777832
		c2.3310547-0.859375,4.7167969-1.53125,7.0473633-2.6020508c4.7167969-1.8798828,9.3681641-4.3652344,13.9716797-7.1333008
		C132.734375,254.1347656,137.2910156,250.8876953,141.7050781,247.5151367z"/>
	<path class="st1" d="M247.9511719,239.8369141c5.7617188-1.0922852,11.5200195-2.2651367,17.2929688-2.9589844
		c5.7578125-0.7578125,11.5200195-0.9033203,16.5605469-0.7451172l2.8486328,0.0947266l-1.0419922-2.7749023
		c-2.4619141-6.4814453-7.2734375-11.5405273-13.0825195-14.6381836c-5.8022461-3.1557617-12.4853516-4.394043-18.7861328-4.1103516
		c-12.7661133,0.6577148-23.2993164,6.9746094-30.3793945,12.9355469c-3.7880859,3.1870117-6.8110352,5.699707-9.2182617,7.4462891
		l-2.5756836,1.8613281l3.0854492,1.3876953C224.5244141,243.668457,236.4819336,241.9677734,247.9511719,239.8369141z"/>
	<path class="st1" d="M199.3789062,250.7236328c2.3237305,1.6445312,6.184082,3.4291992,10.5185547,4.9042969
		c2.1855469,0.9160156,4.5273438,1.8828125,6.9018555,2.675293c2.3637695,0.7612305,4.8076172,1.5039062,7.2626953,2.2236328
		c4.8222656,1.3125,9.6113281,1.9702148,13.402832,1.418457c3.7407227-0.5703125,6.3378906-2.4023438,6.9023438-6.0351562
		c0.9360352-6.6669922-7.2407227-9.2636719-17.7485352-9.9580078c-2.5498047-0.2148438-5.3208008-0.1455078-8.0380859,0.0473633
		c-2.7099609,0.1967773-5.3320312,0.4082031-7.7871094,0.8271484c-4.9936523,1.1176758-9.0581055,2.4145508-11.4145508,3.4379883
		V250.7236328z"/>
	<path class="st1" d="M357.0625,292.5185547l-1.1777344,1.8691406c-0.1396484,0.2216797-3.3930664,5.4584961-2.5913086,9.6020508
		c0.3681641,1.8959961,1.8823242,3.1704102,3.7685547,3.1704102h0.0014648c1.8857422,0,3.3999023-1.2744141,3.7685547-3.1708984
		c0.8085938-4.1767578-2.4526367-9.3823242-2.5913086-9.6015625L357.0625,292.5185547z M358.0961914,303.4594727
		C357.9321289,304.309082,357.2636719,304.375,357.0625,304.375c-0.2006836,0-0.8691406-0.065918-1.0336914-0.9165039v0.0004883
		c-0.3193359-1.6430664,0.3291016-3.6958008,1.0336914-5.300293
		C357.7666016,299.7631836,358.4155273,301.8154297,358.0961914,303.4594727z"/>
	<path class="st1" d="M652.605957,302.2207031c-1.8720703,0.375-3.1298828,1.9047852-3.1298828,3.8071289
		c0,1.9018555,1.2578125,3.4321289,3.1303711,3.8071289c0.4389648,0.0874023,0.9077148,0.1318359,1.3935547,0.1318359
		c3.7783203,0,7.9174805-2.6591797,8.0922852-2.7729492l1.7919922-1.1665039l-1.7915039-1.1669922
		C661.875,304.71875,656.7167969,301.3925781,652.605957,302.2207031z"/>
	<path class="st1" d="M625.3066406,311.9638672c0.0322266,0.1728516,0.0717773,0.3427734,0.1162109,0.5073242
		c0.5805664,2.1801758,2.2226562,3.9018555,4.3925781,4.605957c0.7041016,0.2290039,1.4345703,0.3452148,2.1694336,0.3452148
		c1.5913086,0,3.1513672-0.5561523,4.3935547-1.5668945l0.1113281-0.0917969
		c1.2490234-0.9580078,2.6074219-2.6176758,3.6337891-4.440918c1.0581055-1.9101562,2.3217773-2.8803711,3.3334961-3.3730469
		c-0.0864258,0.1484375-0.1586914,0.3051758-0.21875,0.4692383c-0.4116211,1.1401367-0.0893555,2.375,0.8613281,3.3032227
		c0.6669922,0.6523438,1.6040039,0.9926758,2.4892578,0.9082031c2.0102539-0.1791992,3.5166016-1.9790039,3.3574219-4.012207
		c-0.0756836-0.9824219-0.4863281-1.8745117-1.1386719-2.5830078c0.652832-0.7089844,1.0629883-1.6005859,1.1386719-2.5820312
		c0.1591797-2.0327148-1.3476562-3.8330078-3.3569336-4.0126953c-0.902832-0.0834961-1.8256836,0.2578125-2.4892578,0.9077148
		c-0.9511719,0.9282227-1.2734375,2.1625977-0.8618164,3.3027344c0.0595703,0.1635742,0.1318359,0.3198242,0.2172852,0.4682617
		c-1.0112305-0.4936523-2.2768555-1.4663086-3.3374023-3.3793945c-1.0234375-1.8183594-2.3701172-3.4682617-3.5957031-4.4077148
		l-0.1459961-0.1191406c-1.8417969-1.4980469-4.2954102-1.9541016-6.5605469-1.2197266
		c-2.1699219,0.7045898-3.8120117,2.425293-4.3920898,4.6030273c-0.0449219,0.1665039-0.0839844,0.3374023-0.1171875,0.5073242
		c-0.300293,1.5527344,0.0610352,3.1889648,0.9804688,4.5395508H402.0864258
		c-1.2021484-3.6337891-3.9555664-6.3901367-7.6884766-7.6010742c-4.1069336-1.3320312-8.550293-0.5068359-11.8896484,2.2104492
		l-0.2587891,0.2119141c-2.3745117,1.8217773-4.9692383,5.0029297-6.9443359,8.5112305
		c-4.4975586,8.1181641-10.6567383,8.5615234-11.9755859,8.5615234l-0.0214844-0.0004883l-0.1049805,0.0063477
		c-1.1518555,0.0888672-2.2792969-0.2729492-3.168457-1.0317383c-0.9165039-0.7827148-1.4736328-1.8828125-1.5683594-3.0986328
		c-0.1416016-1.8125,1.1826172-3.4160156,2.9526367-3.5742188c0.5981445-0.0585938,1.2353516,0.1894531,1.7084961,0.6518555
		c0.7148438,0.6977539,0.9765625,1.5078125,0.7177734,2.2241211c-0.2133789,0.5908203-0.7451172,1.0048828-1.3549805,1.0541992
		l-0.2993164,0.0239258l0.2241211,2.7763672l0.2988281-0.0239258c1.6953125-0.1367188,3.1679688-1.269043,3.7514648-2.8847656
		c0.6362305-1.7602539,0.1162109-3.6904297-1.3911133-5.1621094c-1.0498047-1.0253906-2.5112305-1.565918-3.9038086-1.434082
		c-1.6655273,0.1489258-3.1142578,0.9838867-4.1079102,2.2016602c-0.9941406-1.2177734-2.4423828-2.0527344-4.1069336-2.2016602
		c-1.394043-0.1259766-2.8530273,0.4067383-3.9042969,1.434082c-1.5068359,1.4716797-2.0268555,3.4018555-1.3911133,5.1625977
		c0.5839844,1.6157227,2.0566406,2.7475586,3.7519531,2.8842773l0.2988281,0.0239258l0.2241211-2.7763672l-0.2993164-0.0239258
		c-0.6098633-0.0493164-1.1425781-0.4633789-1.3554688-1.0541992c-0.2587891-0.7163086,0.0029297-1.5263672,0.7167969-2.2241211
		c0.4780273-0.4667969,1.1079102-0.7084961,1.7099609-0.6518555c1.7695312,0.1577148,3.09375,1.7612305,2.9526367,3.5742188
		c-0.0947266,1.2158203-0.6518555,2.315918-1.5683594,3.0981445c-0.8862305,0.7563477-2.012207,1.1220703-3.2368164,1.0268555
		l-0.1074219,0.0019531h-0.0117188c-0.7885742,0-7.3139648-0.2597656-11.9199219-8.5722656
		c-1.9711914-3.5024414-4.5566406-6.6743164-6.9072266-8.4785156l-0.2924805-0.237793
		c-3.3398438-2.7167969-7.7836914-3.5429688-11.8881836-2.2089844c-3.7329102,1.2114258-6.4863281,3.9677734-7.6889648,7.6010742
		H87.7143555c0.9194336-1.3510742,1.28125-2.987793,0.9794922-4.5444336
		c-0.0336914-0.1674805-0.0717773-0.3339844-0.1157227-0.4995117c-0.5800781-2.1796875-2.2226562-3.9013672-4.3935547-4.605957
		c-2.2680664-0.7338867-4.7197266-0.2792969-6.5629883,1.222168l-0.1103516,0.0913086
		c-1.2495117,0.9575195-2.6074219,2.6171875-3.6337891,4.4414062c-1.0581055,1.909668-2.3222656,2.8793945-3.3334961,3.3730469
		c0.0859375-0.1484375,0.1586914-0.3056641,0.2182617-0.4692383c0.4116211-1.140625,0.090332-2.3754883-0.8608398-3.3032227
		c-0.6552734-0.6396484-1.5878906-0.9750977-2.4902344-0.9082031c-2.0097656,0.1796875-3.515625,1.9794922-3.3569336,4.0117188
		c0.0756836,0.9814453,0.4863281,1.8735352,1.1396484,2.5830078c-0.6533203,0.7099609-1.0639648,1.6020508-1.1396484,2.5825195
		c-0.1586914,2.0332031,1.3476562,3.8334961,3.3579102,4.0126953c0.8925781,0.0786133,1.8242188-0.2587891,2.4902344-0.9086914
		c0.9506836-0.9277344,1.2724609-2.1625977,0.8598633-3.3032227c-0.059082-0.1630859-0.1318359-0.3188477-0.2167969-0.4663086
		c1.0117188,0.4936523,2.2763672,1.4658203,3.3369141,3.3789062c1.0229492,1.8173828,2.3696289,3.4667969,3.5957031,4.4077148
		l0.1464844,0.1186523c1.2397461,1.0087891,2.7998047,1.5649414,4.3911133,1.5649414
		c0.7358398,0,1.4658203-0.1162109,2.1689453-0.3452148c2.1708984-0.7041016,3.8134766-2.4267578,4.3945312-4.6083984
		c0.0429688-0.1635742,0.0810547-0.3291016,0.1152344-0.5009766c0.3012695-1.5537109-0.0595703-3.1889648-0.9794922-4.5395508
		h223.7231445c-0.2055664,2.5854492,0.5576172,5.159668,2.206543,7.3540039
		c2.6704102,3.5566406,6.4741211,5.1689453,10.1821289,4.3115234c3.4458008-0.7988281,6.1074219-3.5878906,6.7792969-7.105957
		c0.378418-1.9750977-0.1137695-4.0708008-1.3500977-5.7504883c-1.831543-2.4858398-4.4746094-3.6220703-7.0615234-3.027832
		c-2.4140625,0.5483398-4.2763672,2.4912109-4.7451172,4.9506836c-0.5478516,2.871582,1.3144531,5.6635742,4.1513672,6.2231445
		l0.2944336,0.0576172l0.5385742-2.7314453l-0.2939453-0.0581055c-1.3388672-0.2646484-2.2158203-1.5966797-1.9536133-2.9697266
		c0.2607422-1.371582,1.2910156-2.4536133,2.625-2.7563477c1.5004883-0.3393555,3.0327148,0.3759766,4.2026367,1.9648438
		c0.7773438,1.0556641,1.0898438,2.3583984,0.8569336,3.5751953c-0.4658203,2.4355469-2.2993164,4.3647461-4.671875,4.9140625
		c-2.6376953,0.6123047-5.3081055-0.581543-7.3276367-3.2705078c-1.4179688-1.887207-1.9648438-4.1318359-1.5410156-6.3188477
		c0.0478516-0.2480469,0.1040039-0.4916992,0.1679688-0.7319336c0.8134766-3.0537109,3.0332031-5.3740234,6.0893555-6.3666992
		c3.2036133-1.0390625,6.6694336-0.3964844,9.2705078,1.7207031l0.3227539,0.2612305
		c2.0605469,1.5830078,4.4379883,4.515625,6.203125,7.6513672c5.4746094,9.8808594,13.5068359,10.0151367,14.378418,9.9990234
		c0.1728516,0.0131836,0.3452148,0.019043,0.5175781,0.019043c1.684082,0,3.3242188-0.6083984,4.6196289-1.7124023
		c0.4438477-0.3789062,0.8286133-0.8081055,1.1635742-1.269043c0.3354492,0.4609375,0.7197266,0.8896484,1.1635742,1.2685547
		c1.293457,1.1044922,2.9345703,1.7128906,4.6196289,1.7128906c0.171875,0,0.3442383-0.0058594,0.4853516-0.0185547
		c0.2529297,0.0029297,2.5908203,0.0405273,5.5224609-1.2919922c3.6040039-1.6381836,6.5932617-4.5654297,8.8833008-8.6992188
		c1.7685547-3.1416016,4.1567383-6.0844727,6.2402344-7.684082l0.2895508-0.2368164
		c2.6030273-2.1171875,6.0688477-2.7587891,9.2714844-1.7207031c3.0561523,0.9921875,5.2753906,3.3125,6.0883789,6.3657227
		c0.0644531,0.2412109,0.1210938,0.4853516,0.1689453,0.734375c0.4238281,2.1845703-0.1230469,4.4282227-1.5410156,6.3178711
		c-2.0205078,2.6904297-4.6923828,3.8842773-7.3276367,3.2700195c-2.3725586-0.5493164-4.2060547-2.4785156-4.6723633-4.9140625
		c-0.2329102-1.2167969,0.0795898-2.5195312,0.8569336-3.5751953c1.1708984-1.5893555,2.7021484-2.3076172,4.203125-1.9648438
		c1.3325195,0.3027344,2.3632812,1.3847656,2.625,2.7563477c0.262207,1.3730469-0.6152344,2.7050781-1.9545898,2.9697266
		l-0.2949219,0.0581055l0.5400391,2.7314453l0.2939453-0.0576172c2.8374023-0.5595703,4.699707-3.3515625,4.1518555-6.2231445
		c-0.4692383-2.4599609-2.3320312-4.402832-4.7456055-4.9506836c-2.5922852-0.5844727-5.2329102,0.5458984-7.0615234,3.027832
		c-1.2353516,1.6787109-1.7275391,3.7739258-1.3500977,5.7504883c0.6723633,3.5180664,3.3334961,6.3071289,6.7788086,7.105957
		c3.7050781,0.8579102,7.5117188-0.7524414,10.1835938-4.3115234c1.6484375-2.1953125,2.4106445-4.7685547,2.2055664-7.3540039
		h223.5991211C625.3671875,308.7788086,625.0058594,310.4130859,625.3066406,311.9638672z"/>
	<path class="st1" d="M60.0014648,309.9667969c0.4868164,0,0.9555664-0.0444336,1.3935547-0.1318359
		c1.871582-0.375,3.1293945-1.9052734,3.1293945-3.8071289c0-1.9023438-1.2578125-3.4321289-3.1293945-3.8071289
		c-4.1186523-0.8232422-9.269043,2.4980469-9.4863281,2.6396484l-1.7924805,1.1669922l1.7924805,1.1674805
		C52.0830078,307.3081055,56.2211914,309.9667969,60.0014648,309.9667969z"/>
	<path class="st1" d="M358.2407227,451.2666016c0.1386719-0.2197266,3.3999023-5.4248047,2.5913086-9.6015625
		c-0.3686523-1.8974609-1.8828125-3.1708984-3.7685547-3.1708984h-0.0014648c-1.8862305,0-3.4003906,1.2734375-3.7685547,3.1699219
		c-0.8017578,4.1435547,2.4516602,9.3808594,2.5913086,9.6025391l1.1777344,1.8691406L358.2407227,451.2666016z
		 M356.0288086,442.1953125c0.1645508-0.8505859,0.8330078-0.9160156,1.0336914-0.9160156
		c0.2011719,0,0.8696289,0.0654297,1.0336914,0.9150391c0.3193359,1.6445312-0.3295898,3.6962891-1.0336914,5.3007812
		C356.3579102,445.890625,355.7094727,443.8378906,356.0288086,442.1953125z"/>
	<path class="st1" d="M654,435.6875c-0.4858398,0-0.9545898,0.0439453-1.3935547,0.1318359
		c-1.8725586,0.375-3.1303711,1.9052734-3.1303711,3.8066406c0,1.9023438,1.2578125,3.4326172,3.1298828,3.8076172
		c4.1108398,0.8271484,9.269043-2.4990234,9.4868164-2.6396484l1.7915039-1.1669922l-1.7919922-1.1669922
		C661.9174805,438.3457031,657.7783203,435.6875,654,435.6875z"/>
	<path class="st1" d="M649.9462891,437.0361328c0.1591797-2.0341797-1.347168-3.8330078-3.3574219-4.0126953
		c-0.8852539-0.0839844-1.8222656,0.2558594-2.4892578,0.9082031c-0.9506836,0.9287109-1.2729492,2.1630859-0.8613281,3.3037109
		c0.0600586,0.1640625,0.1323242,0.3203125,0.21875,0.46875c-1.0117188-0.4921875-2.2753906-1.4628906-3.3334961-3.3730469
		c-1.0263672-1.8232422-2.3847656-3.4824219-3.6337891-4.4414062l-0.1113281-0.0908203
		c-1.2421875-1.0117188-2.8022461-1.5673828-4.3935547-1.5673828c-0.7348633,0-1.465332,0.1162109-2.1694336,0.3447266
		c-2.1699219,0.7050781-3.8120117,2.4267578-4.3925781,4.6064453c-0.0444336,0.1650391-0.0839844,0.3349609-0.1162109,0.5078125
		c-0.3007812,1.5498047,0.0605469,3.1845703,0.9794922,4.5351562H402.6870117
		c0.2050781-2.5849609-0.5571289-5.1591797-2.2055664-7.3535156c-2.671875-3.5595703-6.4785156-5.1699219-10.1835938-4.3115234
		c-3.4453125,0.7978516-6.1064453,3.5869141-6.7788086,7.1054688c-0.3774414,1.9765625,0.1147461,4.0722656,1.3500977,5.75
		c1.8286133,2.4824219,4.4692383,3.6132812,7.0615234,3.0283203c2.4135742-0.5478516,4.2763672-2.4902344,4.7456055-4.9501953
		c0.5478516-2.8720703-1.3144531-5.6640625-4.1518555-6.2236328l-0.2939453-0.0576172l-0.5400391,2.7314453l0.2949219,0.0576172
		c1.3393555,0.265625,2.2167969,1.5976562,1.9545898,2.9707031c-0.2617188,1.3710938-1.2924805,2.453125-2.625,2.7558594
		c-1.5009766,0.3427734-3.0322266-0.375-4.203125-1.9648438c-0.7773438-1.0556641-1.0898438-2.3583984-0.8569336-3.5751953
		c0.4663086-2.4355469,2.2998047-4.3642578,4.6723633-4.9140625c2.6352539-0.6142578,5.3071289,0.5800781,7.3276367,3.2695312
		c1.4179688,1.890625,1.9648438,4.1337891,1.5410156,6.3183594c-0.0478516,0.2490234-0.1044922,0.4931641-0.1689453,0.734375
		c-0.8129883,3.0537109-3.0322266,5.3740234-6.0883789,6.3652344c-3.2026367,1.0380859-6.668457,0.3974609-9.2714844-1.7197266
		l-0.2895508-0.2373047c-2.0834961-1.5996094-4.4716797-4.5419922-6.2402344-7.6835938
		c-2.2900391-4.1337891-5.2792969-7.0615234-8.8833008-8.6992188c-2.9316406-1.3330078-5.2695312-1.2958984-5.5224609-1.2929688
		c-0.1411133-0.0117188-0.3134766-0.0175781-0.4853516-0.0175781c-1.6850586,0-3.3261719,0.6083984-4.6196289,1.7128906
		c-0.4438477,0.3779297-0.828125,0.8076172-1.1635742,1.2685547c-0.3349609-0.4619141-0.7197266-0.890625-1.1635742-1.2695312
		c-1.2954102-1.1035156-2.9355469-1.7119141-4.6196289-1.7119141c-0.1723633,0-0.3447266,0.0058594-0.5175781,0.0185547
		c-0.871582-0.015625-8.9038086,0.1181641-14.378418,9.9990234c-1.7651367,3.1357422-4.1425781,6.0683594-6.203125,7.6513672
		l-0.3227539,0.2617188c-2.6010742,2.1171875-6.0668945,2.7597656-9.2705078,1.7197266
		c-3.0561523-0.9921875-5.2758789-3.3125-6.0893555-6.3662109c-0.0639648-0.2402344-0.1201172-0.4833984-0.1679688-0.7314453
		c-0.4238281-2.1875,0.1230469-4.4316406,1.5410156-6.3193359c2.0195312-2.6884766,4.6899414-3.8828125,7.3276367-3.2705078
		c2.3725586,0.5498047,4.2060547,2.4785156,4.671875,4.9140625c0.2329102,1.2167969-0.0795898,2.5195312-0.8569336,3.5751953
		c-1.1699219,1.5888672-2.7021484,2.3046875-4.2026367,1.9648438c-1.3339844-0.3027344-2.3642578-1.3847656-2.625-2.7558594
		c-0.262207-1.3730469,0.6147461-2.7050781,1.9536133-2.9707031l0.2939453-0.0576172l-0.5385742-2.7314453l-0.2944336,0.0576172
		c-2.8369141,0.5595703-4.6992188,3.3515625-4.1513672,6.2236328c0.46875,2.4589844,2.3310547,4.4023438,4.7451172,4.9501953
		c2.5869141,0.5947266,5.2299805-0.5419922,7.0615234-3.0283203c1.2363281-1.6787109,1.7285156-3.7753906,1.3500977-5.75
		c-0.671875-3.5185547-3.3334961-6.3076172-6.7792969-7.1054688c-3.7080078-0.8574219-7.5117188,0.7539062-10.1821289,4.3115234
		c-1.6489258,2.1943359-2.4121094,4.7675781-2.206543,7.3535156H87.7148438
		c0.9199219-1.3505859,1.2807617-2.9853516,0.9794922-4.5390625c-0.0341797-0.171875-0.0722656-0.3378906-0.1152344-0.5009766
		c-0.5810547-2.1816406-2.2236328-3.9042969-4.3945312-4.609375c-0.703125-0.2285156-1.4331055-0.3447266-2.1689453-0.3447266
		c-1.5913086,0-3.1513672,0.5556641-4.3911133,1.5644531l-0.1464844,0.1191406
		c-1.2260742,0.9414062-2.5727539,2.5908203-3.5957031,4.4082031c-1.0605469,1.9130859-2.3251953,2.8847656-3.3369141,3.3789062
		c0.0849609-0.1474609,0.1577148-0.3037109,0.2167969-0.4667969c0.4125977-1.140625,0.0908203-2.375-0.8598633-3.3037109
		c-0.6660156-0.6494141-1.5976562-0.9863281-2.4902344-0.9082031c-2.0102539,0.1796875-3.5166016,1.9794922-3.3579102,4.0126953
		c0.0756836,0.9804688,0.4863281,1.8730469,1.1396484,2.5830078c-0.6533203,0.7089844-1.0639648,1.6015625-1.1396484,2.5830078
		c-0.1586914,2.0322266,1.347168,3.8320312,3.3569336,4.0117188c0.9023438,0.0664062,1.8349609-0.2695312,2.4902344-0.9091797
		c0.9511719-0.9267578,1.2724609-2.1621094,0.8608398-3.3027344c-0.0595703-0.1640625-0.1323242-0.3203125-0.2182617-0.46875
		c1.0112305,0.4931641,2.2753906,1.4628906,3.3334961,3.3730469c1.0263672,1.8242188,2.3842773,3.4833984,3.6337891,4.4404297
		l0.1103516,0.0917969c1.8432617,1.5009766,4.2949219,1.9560547,6.5629883,1.2216797
		c2.1708984-0.7041016,3.8134766-2.4257812,4.3935547-4.6054688c0.0439453-0.1660156,0.0820312-0.3320312,0.1157227-0.5
		c0.3017578-1.5556641-0.0600586-3.1933594-0.9794922-4.5439453h224.3242188
		c1.2026367,3.6337891,3.9560547,6.3896484,7.6889648,7.6015625c4.1044922,1.3330078,8.5483398,0.5078125,11.8881836-2.2099609
		l0.2924805-0.2373047c2.3505859-1.8046875,4.9360352-4.9755859,6.9072266-8.4785156
		c4.605957-8.3125,11.1313477-8.5722656,11.9199219-8.5722656h0.0117188l0.1074219,0.0019531
		c1.2246094-0.0947266,2.3505859,0.2705078,3.2368164,1.0273438c0.9165039,0.78125,1.4736328,1.8818359,1.5683594,3.0976562
		c0.1411133,1.8134766-1.1831055,3.4169922-2.9526367,3.5742188c-0.6020508,0.0566406-1.2319336-0.1845703-1.7099609-0.6523438
		c-0.7138672-0.6972656-0.9755859-1.5078125-0.7167969-2.2236328c0.2128906-0.5908203,0.7456055-1.0048828,1.3554688-1.0537109
		l0.2993164-0.0244141l-0.2241211-2.7763672l-0.2988281,0.0244141c-1.6953125,0.1367188-3.1679688,1.2675781-3.7519531,2.8837891
		c-0.6357422,1.7607422-0.1157227,3.6914062,1.3911133,5.1630859c1.0512695,1.0273438,2.5102539,1.5595703,3.9042969,1.4335938
		c1.6645508-0.1484375,3.112793-0.9833984,4.1069336-2.2011719c0.9936523,1.2177734,2.4423828,2.0527344,4.1079102,2.2011719
		c1.3925781,0.1318359,2.8540039-0.4091797,3.9038086-1.4335938c1.5073242-1.4716797,2.0273438-3.4023438,1.3911133-5.1621094
		c-0.5834961-1.6162109-2.0561523-2.7480469-3.7514648-2.8847656l-0.2988281-0.0244141l-0.2241211,2.7763672l0.2993164,0.0244141
		c0.6098633,0.0488281,1.1416016,0.4628906,1.3549805,1.0537109c0.2587891,0.7158203-0.0029297,1.5263672-0.7177734,2.2236328
		c-0.4731445,0.4628906-1.1103516,0.7109375-1.7084961,0.6523438c-1.7700195-0.1582031-3.0942383-1.7617188-2.9526367-3.5742188
		c0.0947266-1.2158203,0.6518555-2.3164062,1.5683594-3.0986328c0.8891602-0.7587891,2.0166016-1.1210938,3.168457-1.03125
		l0.1049805,0.0058594h0.0214844c1.3188477,0,7.4780273,0.4433594,11.9755859,8.5615234
		c1.9750977,3.5078125,4.5698242,6.6894531,6.9443359,8.5107422l0.2587891,0.2119141
		c3.3393555,2.7177734,7.7827148,3.5429688,11.8896484,2.2109375c3.7329102-1.2109375,6.4863281-3.9677734,7.6884766-7.6015625
		h224.2006836c-0.9194336,1.3505859-1.2807617,2.9863281-0.9804688,4.5400391
		c0.0332031,0.1699219,0.0722656,0.3408203,0.1171875,0.5068359c0.5800781,2.1777344,2.222168,3.8984375,4.3920898,4.6025391
		c2.2651367,0.7353516,4.71875,0.2792969,6.5605469-1.2197266l0.1459961-0.1181641
		c1.2255859-0.9394531,2.5722656-2.5898438,3.5957031-4.4082031c1.0605469-1.9130859,2.3261719-2.8857422,3.3374023-3.3789062
		c-0.0854492,0.1474609-0.1577148,0.3046875-0.2172852,0.4677734c-0.4116211,1.140625-0.0893555,2.375,0.8618164,3.3027344
		c0.6635742,0.6503906,1.5864258,0.9912109,2.4892578,0.9082031c2.0092773-0.1796875,3.5161133-1.9804688,3.3569336-4.0126953
		c-0.0756836-0.9814453-0.4858398-1.8730469-1.1386719-2.5830078
		C649.4599609,438.9101562,649.8706055,438.0185547,649.9462891,437.0361328z"/>
	<path class="st1" d="M61.3950195,435.8193359c-0.4379883-0.0878906-0.9067383-0.1318359-1.3935547-0.1318359
		c-3.7802734,0-7.918457,2.6582031-8.0927734,2.7714844l-1.7924805,1.1679688l1.7924805,1.1669922
		c0.2172852,0.140625,5.3676758,3.4628906,9.4863281,2.6396484c1.871582-0.375,3.1293945-1.9052734,3.1293945-3.8076172
		C64.5244141,437.7246094,63.2666016,436.1943359,61.3950195,435.8193359z"/>
	<path class="st1" d="M551.1606445,489.7792969c-7.7895508-3.3056641-17.2680664-0.5693359-24.1689453,3.5351562
		c-4.2944336,2.5546875-7.9575195,5.3964844-11.0258789,9.3525391c-0.3789062,0.4873047-6.4907227,8.7666016-6.0322266,5.7900391
		c1.1323242-7.359375,9.293457-14.0546875,14.8017578-18.1855469c15.1513672-11.3623047,33.6708984-13.5498047,51.5117188-7.8457031
		c8.5332031,2.7275391,16.0039062,7.6816406,20.534668,15.5253906c2.2583008,3.9091797,2.2207031,7.4863281,7.3129883,7.9140625
		c2.0883789,0.1757812,10.1958008,0.9707031,9.6318359-2.7460938c-2.7060547-17.8359375-20.449707-32.8837891-37.4731445-36.2666016
		c-19.6274414-3.8994141-40.6508789-0.5351562-57.3369141,10.8583984
		c-14.5268555,9.9189453-28.5366211,28.5146484-27.1342773,46.9238281
		c-1.8896484,20.7294922,16.7041016,42.0810547,38.4550781,36.7675781
		c8.8891602-2.171875,16.2670898-8.7226562,15.4492188-18.4736328c-0.7373047-8.7822266-9.9433594-17.6835938-18.0957031-9.9130859
		c-3.0532227,2.9091797-3.3867188,6.4003906-1.8652344,10.1904297c2.0678711,5.1523438-7.6035156,1.6230469-9.0761719,0.4121094
		c-6.6928711-5.5048828-6.6137695-17.15625-3.9482422-24.6171875c3.1655273-8.8632812,11.097168-14.7382812,20.4545898-15.2216797
		c6.2172852-0.3212891,19.1230469,6.5576172,13.4711914,14.4609375c-1.4589844,2.0400391-6.793457,5.5888672-0.0058594,5.9101562
		c3.2133789,0.1523438,6.6630859-2.4814453,8.4213867-4.9648438c2.0629883-2.9140625,2.8735352-7.8320312,2.3793945-11.3261719
		c-0.4853516-3.4296875-2.8808594-4.5556641-4.6279297-7.0898438c-1.0932617-1.5859375,5.4057617-1.0761719,5.6708984-3.5400391
		C558.793457,494.1757812,553.3945312,490.7275391,551.1606445,489.7792969z"/>
	<path class="st1" d="M605.1303711,518.0957031c-8.1894531-0.2480469-10.105957,9.3964844-18.7983398,8.7636719
		c-1.546875-0.1123047-7.8613281-2.4638672-5.9169922-5.0185547c0.9511719-1.25,4.9482422,0.3896484,6.7211914-0.6611328
		c6.2817383-3.7226562,3.2104492-14.2744141-2.4916992-16.8828125c-5.6972656-2.6054688-13.0966797,0.0566406-16.5136719,4.9873047
		c-8.9638672,12.9355469,2.300293,34.0800781,18.6342773,32.5126953c8.75,0.2324219,16.6645508-4.4902344,21.7353516-11.4990234
		c1.7788086-2.4580078,4.8549805-6.796875,4.4921875-10.03125
		C612.640625,517.1210938,607.0991211,518.1552734,605.1303711,518.0957031z"/>
	<path class="st1" d="M616.2861328,508.1621094h-3.1489258h-11.050293h-2.4296875
		c-1.8095703,0-3.2758789,1.4667969-3.2758789,3.2763672v0.0664062c0,1.8095703,1.4663086,3.2763672,3.2758789,3.2763672h3.1494141
		h11.0498047h2.4296875c1.8095703,0,3.2763672-1.4667969,3.2763672-3.2763672v-0.0664062
		C619.5625,509.6289062,618.0957031,508.1621094,616.2861328,508.1621094z"/>
	<path class="st1" d="M195.0834961,477.7109375c-16.6860352-11.3935547-37.7094727-14.7578125-57.3369141-10.8583984
		c-17.0234375,3.3828125-34.7670898,18.4306641-37.4731445,36.2666016c-0.5639648,3.7167969,7.543457,2.921875,9.6318359,2.7460938
		c5.0922852-0.4277344,5.0546875-4.0048828,7.3129883-7.9140625c4.5307617-7.84375,12.0014648-12.7978516,20.534668-15.5253906
		c17.8408203-5.7041016,36.3603516-3.5166016,51.5117188,7.8457031
		c5.5083008,4.1308594,13.6694336,10.8261719,14.8017578,18.1855469c0.4584961,2.9765625-5.6533203-5.3027344-6.0322266-5.7900391
		c-3.0683594-3.9560547-6.7314453-6.7978516-11.0258789-9.3525391c-6.9008789-4.1044922-16.3793945-6.8408203-24.1689453-3.5351562
		c-2.2338867,0.9482422-7.6328125,4.3964844-7.3041992,7.4501953c0.2651367,2.4638672,6.7641602,1.9541016,5.6708984,3.5400391
		c-1.7470703,2.5341797-4.1425781,3.6601562-4.6279297,7.0898438c-0.4941406,3.4941406,0.3164062,8.4121094,2.3793945,11.3261719
		c1.7587891,2.4833984,5.2080078,5.1171875,8.4213867,4.9648438c6.7875977-0.3212891,1.453125-3.8701172-0.0058594-5.9101562
		c-5.6518555-7.9033203,7.2539062-14.7822266,13.4711914-14.4609375
		c9.3574219,0.4833984,17.2890625,6.3583984,20.4545898,15.2216797c2.6655273,7.4609375,2.7446289,19.1123047-3.9482422,24.6171875
		c-1.4726562,1.2109375-11.144043,4.7402344-9.0761719-0.4121094c1.5214844-3.7900391,1.1879883-7.28125-1.8652344-10.1904297
		c-8.1523438-7.7705078-17.3583984,1.1308594-18.0957031,9.9130859
		c-0.8178711,9.7509766,6.5600586,16.3017578,15.4492188,18.4736328
		c21.7509766,5.3134766,40.3447266-16.0380859,38.4550781-36.7675781
		C223.6201172,506.2255859,209.6103516,487.6298828,195.0834961,477.7109375z"/>
	<path class="st1" d="M129.3554688,504.296875c-5.7021484,2.6083984-8.7734375,13.1601562-2.4916992,16.8828125
		c1.7729492,1.0507812,5.7700195-0.5888672,6.7211914,0.6611328c1.9443359,2.5546875-4.3701172,4.90625-5.9169922,5.0185547
		c-8.6923828,0.6328125-10.6088867-9.0117188-18.7983398-8.7636719c-1.96875,0.0595703-7.5102539-0.9746094-7.8623047,2.1708984
		c-0.362793,3.234375,2.7133789,7.5732422,4.4921875,10.03125c5.0708008,7.0087891,12.9853516,11.7314453,21.7353516,11.4990234
		c16.3339844,1.5673828,27.5981445-19.5771484,18.6342773-32.5126953
		C142.4521484,504.3535156,135.0527344,501.6914062,129.3554688,504.296875z"/>
	<path class="st1" d="M114.3427734,514.78125c1.8095703,0,3.2758789-1.4667969,3.2758789-3.2763672v-0.0664062
		c0-1.8095703-1.4663086-3.2763672-3.2758789-3.2763672h-2.4296875h-11.050293h-3.1489258
		c-1.8095703,0-3.2763672,1.4667969-3.2763672,3.2763672v0.0664062c0,1.8095703,1.4667969,3.2763672,3.2763672,3.2763672h2.4296875
		h11.0498047H114.3427734z"/>
	<path class="st1" d="M418.4956055,551.3330078c-1.1210938,0.0537109-9.6938477-0.1005859-9.6938477-0.1005859
		s-23.4755859-0.5302734-28.4208984,0.1425781c-16.7416992,2.28125-20.8286133,10.75-21.7631836,16.8613281
		c-0.9238281-6.2207031-4.9941406-14.8671875-21.8574219-16.7597656c0,0-40.4648438-0.1054688-41.2563477-0.1435547
		c-23.1635742-1.1083984-39.8901367,6.9648438-39.8901367,21.5283203c0,14.5625,8.7592773,16.1455078,12.1357422,16.1455078
		c3.3774414,0,11.0810547-0.9492188,10.8696289-9.8134766c-0.1801758-7.5966797-6.1201172-8.0205078-7.809082-8.0205078
		c-1.6879883,0-7.3867188-0.2109375-7.3867188,6.1201172c0,6.3320312,7.5976562,5.2773438,7.5976562,5.2773438
		c-3.1655273,5.9091797-11.0795898-1.3173828-10.9746094-8.6542969c0.1054688-7.3867188,7.3867188-19.2060547,35.8798828-17.7285156
		c1.5073242,0.078125,11.5366211-0.1611328,11.7158203-0.15625l25.2402344,0.4365234c0,0,23.378418-2.0234375,23.7363281,17.4589844
		c0.2333984,12.7001953-10.3442383,14.6347656-14.2006836,14.0830078
		c-3.8569336-0.5537109-10.7558594-3.4160156-9.4658203-12.4150391s9.1870117-7.8671875,10.0786133-7.5517578
		c0.8920898,0.3154297,6.6899414,1.7089844,5.847168,7.5859375c-0.8422852,5.8759766-6.8759766,3.5117188-6.8759766,3.5117188
		s-4.0917969-1.5234375-2.2529297-6.5078125c0,0-5.0678711,9.2070312,3.9306641,10.4970703
		c5.8764648,0.8427734,8.0039062-3.5380859,8.5566406-7.3945312c0.5527344-3.8574219-0.4150391-10.1806641-9.597168-11.4970703
		s-13.0166016,5.8183594-13.7797852,11.1445312s0.7802734,14.1679688,13.2685547,15.9580078
		c5.9248047,0.8496094,9.0097656-1.6572266,10.3251953-3.2304688c-1.4516602,2.6074219-3.5273438,9.4306641,6.2348633,19.0810547
		c9.7270508-9.6962891,7.6152344-16.5185547,6.152832-19.1201172c1.3208008,1.5683594,4.4160156,4.0654297,10.3408203,3.1904297
		c12.4804688-1.8427734,13.9863281-10.6914062,13.2011719-16.0136719
		c-0.7861328-5.3222656-4.6503906-12.4414062-13.8271484-11.0859375
		c-9.1757812,1.3544922-10.1171875,7.6816406-9.5478516,11.5361328c0.5688477,3.8544922,2.7143555,8.2255859,8.5874023,7.3583984
		c8.9931641-1.3271484,3.8862305-10.5126953,3.8862305-10.5126953c1.8598633,4.9765625-2.2260742,6.5175781-2.2260742,6.5175781
		s-6.0229492,2.3896484-6.8901367-3.4833984s4.9243164-7.2910156,5.8149414-7.6103516
		c0.890625-0.3183594,8.7827148-1.484375,10.1103516,7.5087891s-5.559082,11.8857422-9.4130859,12.4550781
		C371.0234375,588.5,360.4375,586.609375,360.6176758,573.9082031
		c0.2758789-19.4833984,23.6616211-17.5576172,23.6616211-17.5576172
		c1.0024414-0.0634766,30.7060547-0.0029297,33.7944336-0.1630859
		c28.4926758-1.4775391,35.7744141,10.3417969,35.8798828,17.7285156c0.1044922,7.3369141-7.809082,14.5634766-10.9750977,8.6542969
		c0,0,7.5981445,1.0546875,7.5981445-5.2773438c0-6.3310547-5.6982422-6.1201172-7.3867188-6.1201172
		c-1.6889648,0-7.6289062,0.4238281-7.809082,8.0205078c-0.2114258,8.8642578,7.4921875,9.8134766,10.8691406,9.8134766
		s12.1362305-1.5830078,12.1362305-16.1455078C458.3862305,558.2978516,441.659668,550.2246094,418.4956055,551.3330078z
		 M363.2817383,591.9560547c-0.6450195,4.0957031-4.6040039,10.2070312-4.6040039,10.2070312
		s-3.9848633-6.0849609-4.6474609-10.1777344c-0.5854492-3.6142578,3.6030273-7.7402344,4.5927734-12.0605469
		C359.6347656,584.2441406,363.8515625,588.3417969,363.2817383,591.9560547z"/>
	<path class="st1" d="M295.5039062,162.6669922c0.7915039-0.0380859,41.2563477-0.144043,41.2563477-0.144043
		c16.8632812-1.8925781,20.9335938-10.5380859,21.8574219-16.7592773
		c0.9345703,6.1113281,5.0214844,14.5800781,21.7631836,16.8608398c4.9453125,0.6733398,28.4208984,0.1430664,28.4208984,0.1430664
		s8.5727539-0.1542969,9.6938477-0.1005859c23.1640625,1.1079102,39.890625-6.965332,39.890625-21.5283203
		S449.6269531,124.9926758,446.25,124.9926758s-11.0805664,0.949707-10.8691406,9.8144531
		c0.1801758,7.5957031,6.1201172,8.0200195,7.809082,8.0200195c1.6884766,0,7.3867188,0.2114258,7.3867188-6.1206055
		c0-6.331543-7.5981445-5.2763672-7.5981445-5.2763672c3.1660156-5.909668,11.0795898,1.3168945,10.9750977,8.6533203
		c-0.1054688,7.387207-7.387207,19.206543-35.8798828,17.7290039c-3.0883789-0.1601562-32.7919922-0.0996094-33.7944336-0.1625977
		c0,0-23.3857422,1.925293-23.6616211-17.5585938c-0.1801758-12.7011719,10.4057617-14.5917969,14.2597656-14.0224609
		s10.7407227,3.4614258,9.4130859,12.4541016c-1.3276367,8.9931641-9.2197266,7.8276367-10.1103516,7.5087891
		s-6.6821289-1.7363281-5.8149414-7.6098633c0.8671875-5.8725586,6.8901367-3.4829102,6.8901367-3.4829102
		s4.0859375,1.5405273,2.2260742,6.5170898c0,0,5.1069336-9.1855469-3.8862305-10.5131836
		c-5.8730469-0.8666992-8.0185547,3.5043945-8.5874023,7.3588867c-0.5693359,3.8540039,0.3720703,10.1816406,9.5478516,11.5361328
		c9.1767578,1.3549805,13.0410156-5.7631836,13.8271484-11.0854492c0.7851562-5.3227539-0.7207031-14.1713867-13.2011719-16.0141602
		c-5.9248047-0.875-9.0200195,1.6220703-10.3408203,3.1899414c1.4624023-2.6005859,3.5742188-9.4233398-6.152832-19.1191406
		c-9.762207,9.6499023-7.6865234,16.4731445-6.2348633,19.0805664c-1.3154297-1.5737305-4.4003906-4.0800781-10.3251953-3.2304688
		c-12.4882812,1.7895508-14.0317383,10.6323242-13.2685547,15.9580078s4.5976562,12.4604492,13.7797852,11.144043
		c9.1821289-1.315918,10.1499023-7.6391602,9.597168-11.4960938c-0.5527344-3.8564453-2.6801758-8.2373047-8.5566406-7.3950195
		c-8.9985352,1.2900391-3.9306641,10.496582-3.9306641,10.496582c-1.8388672-4.9838867,2.2529297-6.5078125,2.2529297-6.5078125
		s6.0336914-2.3642578,6.8759766,3.5126953c0.8427734,5.8764648-4.9550781,7.2700195-5.847168,7.5849609
		c-0.8916016,0.315918-8.7885742,1.4477539-10.0786133-7.5512695c-1.2900391-8.9985352,5.6088867-11.8613281,9.4658203-12.4145508
		c3.8564453-0.5527344,14.434082,1.3823242,14.2006836,14.0825195
		c-0.3579102,19.4824219-23.7363281,17.4589844-23.7363281,17.4589844l-25.2402344,0.4360352
		c-0.1791992,0.0048828-10.2084961-0.2338867-11.7158203-0.1557617
		c-28.4931641,1.4775391-35.7744141-10.3417969-35.8798828-17.7290039
		c-0.1049805-7.3364258,7.809082-14.5629883,10.9746094-8.6533203c0,0-7.5976562-1.0551758-7.5976562,5.2763672
		c0,6.3320312,5.6987305,6.1206055,7.3867188,6.1206055c1.6889648,0,7.6289062-0.4243164,7.809082-8.0200195
		c0.2114258-8.8647461-7.4921875-9.8144531-10.8696289-9.8144531c-3.3764648,0-12.1357422,1.5830078-12.1357422,16.1459961
		S272.340332,163.7749023,295.5039062,162.6669922z M354.0302734,122.0146484
		c0.6625977-4.0932617,4.6474609-10.1777344,4.6474609-10.1777344s3.9589844,6.1108398,4.6040039,10.2070312
		c0.5698242,3.6142578-3.6469727,7.7119141-4.6586914,12.0317383
		C357.6333008,129.7543945,353.4448242,125.6293945,354.0302734,122.0146484z"/>
</g>
</svg>


