﻿<?xml version="1.0" encoding="iso-8859-1"?>
<!-- Generator: Adobe Illustrator 24.0.3, SVG Export Plug-In . SVG Version: 6.00 Build 0)  -->
<svg version="1.1"
	 xmlns="http://www.w3.org/2000/svg" xmlns:xlink="http://www.w3.org/1999/xlink" x="0px" y="0px" viewBox="0 0 714 714"
	 style="enable-background:new 0 0 714 714;" xml:space="preserve" width="500" height="500">
<style type="text/css">
	.st0{fill:#131313;}
	.st1{fill:#1D1D1B;}
	.st2{fill:#010101;}
</style>
<g>
	<path class="st0" d="M298.8730469,140.871582c0-1.2993164,4.0253906-7.1655273,16.2871094-7.1655273
		c3.8730469,0.0429688,7.7373047,0.3686523,11.5634766,0.9746094c-0.5996094,15.2719727-1.7255859,52.7788086-0.0556641,79.019043
		c0.1660156,2.6503906,5.2451172,1.7006836,5.1601562-1.1899414c-0.4189453-14.2304688,1.0654297-70.3613281,1.2451172-76.8037109
		c4.7236328,0.7998047,9.4228516,1.5673828,14.1484375,1.8432617c-3.3681641,8.7382812-5.8623047,21.1435547-5.8623047,35.387207
		c0,4.684082,0.2568359,14.2358398,3.5869141,23.1289062c1.1542969,3.0800781,5.3447266,1.9804688,5.4853516-0.4199219
		l0.0039062-0.0112305c0.7070312-6.0444336,7.4775391-28.9536133,11.9433594-34.5732422
		c1.0917969-1.3754883,0.7304688-1.5532227,0.7304688-0.6748047s-0.7304688,10.7680664-0.7304688,21.6650391
		c0,12.1503906,2.4150391,20.2753906,8.9296875,20.2753906c4.9355469,0,8.3359375-6.9355469,11.5185547-16.5473633
		c2.4462891,7.9711914,8.1337891,11.8818359,13.6816406,11.8818359c12.4814453,0,20.4589844-24.1176758,20.6064453-24.6303711
		c0.4941406-1.7099609-1.9130859-2.2744141-2.6357422-0.2924805c-3.3476562,9.2041016-11.5263672,22.1591797-17.5488281,22.1591797
		c-4.7763672,0-6.8251953-8.3261719-6.8251953-14.6210938c0-0.5493164,0.0107422-1.0898438,0.0253906-1.6230469
		c7.7197266,1.6342773,10.9267578-9.5043945,10.9267578-14.9365234c0-5.0136719-2.5351562-8.2529297-7.2197266-8.2529297
		c-8.8925781,0-12.2578125,13.2480469-12.2578125,21.3369141c0,1.0849609,0.0605469,2.1118164,0.1474609,3.1108398
		c-4.046875,11.8051758-8.9628906,18.9580078-9.7783203,18.9580078c-0.640625,0-1.9580078-4.7397461-1.9580078-12.4985352
		c0-9.6645508,0.6494141-13.9101562,0.6494141-19.6933594c0-10.7954102-3.2021484-11.8725586-6.4316406-11.8725586
		c-5.2841797,0-13.0722656,20.7294922-14.8798828,32.012207c-0.2041016-2.996582-0.3554688-7.0795898-0.3554688-12.7001953
		c0-1.7363281,0.0253906-3.4165039,0.0791016-5.0444336c6.3613281-5.6547852,15.3632812-21.8291016,15.3632812-35.953125
		c0-1.7749023,0.3671875-8.9467773-6.5292969-8.9467773c-2.9570312,0-6.3769531,3.765625-9.3378906,10.2177734
		c-12.1083984-0.2192383-23.5517578-4.0991211-33.8447266-4.0991211c-11.2304688,0-17.8857422,5.5478516-17.8857422,9.4594727
		C296.8183594,142.203125,298.8730469,143.3959961,298.8730469,140.871582z M395.9609375,159.3618164
		c0.4589844,0,1.5292969,1.8842773,1.5292969,5.2470703c0,2.9501953-1.6181641,11.953125-6.9443359,11.6049805
		c-0.1152344,0.0205078-0.2226562,0.0795898-0.2998047,0.1669922
		C390.9970703,165.7587891,394.6503906,159.3618164,395.9609375,159.3618164z M359.5390625,127.5302734
		c0.3427734,0,0.8271484,1.0029297,1.0654297,2.9467773c-0.15625-0.0483398-0.3125-0.0991211-0.4785156-0.0991211
		c-0.7695312,0-1.4003906,1.0244141-0.4140625,1.894043c-0.078125,0.1494141-1.1689453,1.0249023-4.0146484,1.6142578
		C357.578125,129.5595703,359.2070312,127.5302734,359.5390625,127.5302734z M354.2792969,137.5258789
		c2.2871094-0.2265625,4.875-0.7998047,6.3574219-2.2128906c-0.7451172,9.1020508-5.5664062,22.5039062-11.359375,29.0097656
		C350.046875,152.2768555,352.1621094,143.5014648,354.2792969,137.5258789z"/>
	<path class="st0" d="M106.9628906,298.5273438c1.8164062-1.0844727,4.1259766-1.6352539,6.8652344-1.6352539h1.8710938v-6.5200195
		H75.6591797v6.5200195h1.8710938c2.8173828,0,5.1728516,0.559082,7.0039062,1.6611328
		c1.5820312,0.9511719,2.390625,2.2192383,2.4707031,3.8422852v71.6845703c0,3.5839844-0.6201172,6.6416016-1.84375,9.0859375
		c-1.4287109,2.8544922-3.4921875,4.1835938-6.4941406,4.1835938c-1.0712891,0-1.4072266-0.2294922-1.4306641-0.2626953
		c-0.1796875-0.6630859-0.2724609-1.4150391-0.2724609-2.2333984v-0.8496094c0-1.2597656-0.1738281-2.5332031-0.5195312-3.7841797
		c-0.4912109-1.7958984-1.7900391-3.2021484-3.9052734-4.1982422c-2.125-0.8271484-4.3349609-0.6738281-6.3964844,0.4423828
		c-2.0527344,1.1230469-3.3984375,2.8759766-4.0166016,5.2880859c-0.0498047,0.3476562-0.0771484,0.7207031-0.0771484,1.1162109
		c0,1.6777344,0.5957031,3.4667969,1.7744141,5.3193359c1.4160156,2.2128906,3.4667969,3.8818359,6.0712891,4.9482422
		c2.7294922,1.2402344,5.6796875,1.8701172,8.7724609,1.8701172c4.4765625,0,8.6894531-0.7382812,12.5204926-2.1923828
		c3.9345856-1.5,7.1533356-3.8076172,9.5625153-6.8574219c2.46875-3.125,3.7207031-7.1210938,3.7207031-11.8759766
		l-0.0039062-71.6772461C104.5761719,300.7119141,105.3701172,299.4814453,106.9628906,298.5273438z"/>
	<path class="st0" d="M187.6367188,296.3637695c-6.6123047-3.9384766-14.0136719-5.9355469-21.9960938-5.9355469
		c-8.0117188,0-15.4335938,1.9970703-22.0537109,5.9355469c-6.5927734,3.9233398-11.9228516,9.2353516-15.8447266,15.7871094
		c-3.9404297,6.5795898-5.9375,13.9057617-5.9375,21.7763672c0,7.9082031,1.9970703,15.2529297,5.9355469,21.8295898
		c3.9238281,6.5556641,9.2539062,11.8681641,15.8466797,15.7910156c6.6162109,3.9365234,14.0175781,5.9326172,21.9980469,5.9326172
		c7.9785156,0,15.3798828-1.9960938,21.9951172-5.9326172c6.5917969-3.9228516,11.9316406-9.2333984,15.8740234-15.7861328
		c3.9599609-6.5776367,5.96875-13.9243164,5.96875-21.8344727c0-7.8657227-1.9970703-15.1923828-5.9394531-21.7763672
		C199.5595703,305.597168,194.2294922,300.2856445,187.6367188,296.3637695z M189.4101562,347.3886719
		c-1.3886719,4.3085938-3.3144531,8.2109375-5.7265625,11.5957031c-2.3759766,3.3359375-5.1728516,6.0195312-8.3134766,7.9775391
		c-6.1279297,3.8212891-13.4443359,3.8212891-19.5722656,0.0019531c-3.1386719-1.9580078-5.9355469-4.6425781-8.3115234-7.9794922
		c-2.4121094-3.3828125-4.3378906-7.2841797-5.7265625-11.5957031c-1.3896484-4.315918-2.0947266-8.8447266-2.0947266-13.4614258
		c0-4.6157227,0.7050781-9.1459961,2.0927734-13.4628906c1.3935547-4.3193359,3.3203125-8.230957,5.7304688-11.628418
		c2.3759766-3.3525391,5.1728516-6.0444336,8.3095703-8.0019531c3.046875-1.8994141,6.3388672-2.862793,9.7871094-2.862793
		c3.4443359,0,6.7373047,0.9633789,9.7851562,2.862793c3.140625,1.9604492,5.9375,4.6533203,8.3115234,8.0019531
		c2.4121094,3.402832,4.3388672,7.3154297,5.7285156,11.6279297c1.3876953,4.3168945,2.0908203,8.8466797,2.0908203,13.4633789
		C191.5009766,338.5449219,190.7978516,343.0737305,189.4101562,347.3886719z"/>
	<path class="st0" d="M299.1542969,298.5429688c1.6875-1.1113281,3.5126953-1.6508789,5.578125-1.6508789h0.6552734
		l2.6328125-2.1054688v-4.4145508h-39.9804688v6.5200195h1.8710938c2.7783203,0,5.1083984,0.5507812,6.9238281,1.6352539
		c1.5683594,0.9399414,2.3837891,2.1835938,2.4912109,3.7543945v27.7929688l-33.5742188,0.0498047l-0.0058594-27.7182617
		c0.1123047-1.6967773,0.9013672-2.9306641,2.4794922-3.8837891c1.7900391-1.081543,4.0868988-1.6303711,6.8261719-1.6303711
		h1.8710938v-6.5200195h-39.9785156v6.5200195h1.8710938c2.7783203,0,5.1132812,0.5581055,6.9443359,1.6591797
		c1.5800781,0.953125,2.3886719,2.2226562,2.4707031,3.8442383l0.0019531,62.9716797
		c-0.0839844,1.7197266-0.8701172,2.9697266-2.4726562,3.9335938c-1.8310547,1.1015625-4.1660156,1.6591797-6.9443359,1.6591797
		h-1.8710938v6.5205078h39.9785156v-6.5205078h-1.8710938c-2.7412109,0-5.0380859-0.5478516-6.8271484-1.6289062
		c-1.5566406-0.9384766-2.3662109-2.1845703-2.4726562-3.7587891v-27.7919922l33.5742188-0.0507812l0.0039062,27.7226562
		c-0.1113281,1.7236328-0.9013672,2.9619141-2.4833984,3.8955078c-1.8154297,1.0703125-4.1494141,1.6123047-6.9355469,1.6123047
		h-1.8710938v6.5205078h39.9804688v-6.5205078h-1.8710938c-2.7402344,0-5.0595703-0.5585938-6.8876953-1.6611328
		c-1.5683594-0.9414062-2.3583984-2.2050781-2.4121094-3.8388672l-0.0019531-62.9736328
		C296.9306641,300.7724609,297.6640625,299.5195312,299.1542969,298.5429688z"/>
	<path class="st0" d="M390.9042969,298.1240234c1.8505859-0.8173828,3.9160156-1.2319336,6.1357422-1.2319336h1.8710938v-6.581543
		l-28.5673828,0.0649414l-0.2626953,6.5166016h1.9492188c2.2148438,0,4.2841797,0.4228516,6.1533203,1.2578125
		c0.9794922,0.4355469,2.1640625,1.152832,2.2382812,2.0366211l0.0498047,46.2724609l-40.1494141-56.1435547h-26.1953125v6.5766602
		h1.8710938c2.6669922,0,4.96875,0.6376953,6.8369141,1.8935547c1.6806641,1.1303711,2.4609375,2.4926758,2.4609375,4.2890625
		l0.0097656,64.418457c-0.0302734,0.3037109-0.1191406,1.2285156-2.2900391,2.1777344
		c-1.8779297,0.8232422-3.9638672,1.2568359-6.1943359,1.2890625l-1.8447266,0.0253906v6.5566406l28.7519531-0.0654297v-6.4912109
		l-1.84375-0.0253906c-2.2324219-0.0322266-4.3183594-0.4658203-6.1962891-1.2890625
		c-0.8076172-0.3515625-2.1748047-1.0966797-2.2802734-2.0566406v-57.2299805l47.9921875,66.3227539l0.5615234,0.7734375h6.625
		l-0.0146484-77.1791992C388.7001953,299.2973633,389.9101562,298.5625,390.9042969,298.1240234z"/>
	<path class="st0" d="M440.9423828,367.0302734c-2.2714844,1.7236328-5.1542969,2.6845703-8.5380859,2.8535156h-0.5683594
		c-4.2216797,0-7.8857422-1.2490234-10.8876953-3.7119141c-3.1962891-2.6425781-5.5732422-6.1816406-7.0556641-10.4936523
		c-1.0820312-3.6118164-1.6650391-7.277832-1.7333984-10.8979492l-0.0351562-1.8349609h-7.0537109v31.7568359h7.0888672v-1.8710938
		c0-0.1445312,0.0068359-0.2646484,0.0146484-0.3623047c0.0957031-0.0234375,0.1845703-0.0351562,0.2666016-0.0351562
		c0.3623047,0,1.2119141,0.1044922,2.8261719,0.8066406c0.8007812,0.3496094,1.484375,0.6806641,1.9667969,0.9501953
		l0.9462891,0.5917969c1.1933594,0.7070312,2.9013672,1.3222656,5.2207031,1.8808594
		c2.2470703,0.5429688,5.0673828,0.8173828,8.3808594,0.8173828h0.6787109c6.3632812,0,12.0009766-1.2324219,16.7607422-3.6621094
		c4.7822266-2.4433594,8.5595703-5.6982422,11.2216797-9.671875c2.6943359-4.0224609,4.0615234-8.3896484,4.0615234-12.9804688
		c0-2.1640625-0.3886719-4.609375-1.1523438-7.2670898c-0.7773438-2.7011719-2.2226562-5.4716797-4.2998047-8.2338867v-0.0009766
		c-2.0800781-2.7578125-5.015625-5.3847656-8.7265625-7.8110352c-3.6865234-2.4135742-8.4296875-4.5087891-14.0341797-6.2041016
		l-1.9873047-0.8178711c-1.2236328-0.4536133-2.6894531-1.1577148-4.3603516-2.0913086
		c-1.6035156-0.8969727-3.1113281-2.0288086-4.4863281-3.3647461c-1.2568359-1.2250977-2.1269531-2.6235352-2.5761719-4.1225586
		c-0.2666016-1.0854492-0.4023438-2.1396484-0.4023438-3.1308594c0-2.2919922,0.640625-4.2631836,1.9560547-6.027832
		c1.7509766-2.3544922,4.7509766-3.7626953,8.8457031-4.1801758h0.5996094c1.8378906,0,3.7490234,0.5795898,5.6796875,1.7231445
		c1.9492188,1.1557617,3.6865234,2.7949219,4.984375,4.6767578c1.9658203,3.5805664,3.0703125,8.7563477,3.2871094,15.3818359
		l0.0585938,1.8105469h7.0273438v-31.1904297l-5.4072266,0.0126953l-1.7363281,0.3378906v1.7460938v0.1591797l-0.1699219,0.012207
		c-1.2333984,0-2.9619141-0.2885742-5.171875-0.8662109c-1.4521484-0.3071289-3.0087891-0.6118164-4.6728516-0.9189453
		c-1.7509766-0.3208008-3.5332031-0.4829102-5.2988281-0.4829102c-5.6210938,0-10.5146484,0.9560547-14.5449219,2.8408203
		c-4.1015625,1.9204102-7.2216797,4.4833984-9.2783203,7.6171875c-2.0673828,3.1513672-3.1152344,6.6552734-3.1152344,10.4150391
		l0.0058594,0.8964844c0.3632812,6.3242188,2.6425781,11.7407227,6.7753906,16.097168
		c4.0742188,4.2939453,9.4746094,7.2792969,16.0673828,8.8754883L430.3671875,337.5
		c4.9169922,1.2148438,8.5927734,2.8310547,10.9228516,4.8017578c2.3300781,1.9711914,3.8789062,3.875,4.6083984,5.6625977
		c0.7646484,1.8583984,1.1679688,3.2729492,1.203125,4.2568359c0.0722656,0.6479492,0.1035156,1.2797852,0.1035156,1.8959961
		c0,2.2016602-0.4130859,4.3525391-1.2236328,6.3896484C444.9433594,363.0849609,443.2460938,365.2802734,440.9423828,367.0302734z"
		/>
	<path class="st0" d="M537.8603516,296.3637695c-6.6171875-3.9384766-14.0185547-5.9355469-21.9990234-5.9355469
		c-8.0175781,0-15.4375,1.9970703-22.0517578,5.9355469c-6.5927734,3.921875-11.9248047,9.2324219-15.8486328,15.7880859
		c-3.9394531,6.581543-5.9365234,13.9077148-5.9365234,21.7753906c0,7.9052734,1.9970703,15.2504883,5.9365234,21.8295898
		c3.9238281,6.5556641,9.2558594,11.8681641,15.8486328,15.7910156c6.6142578,3.9365234,14.015625,5.9326172,21.9970703,5.9326172
		c7.9804688,0,15.3808594-1.9960938,21.9960938-5.9326172c6.5869141-3.9208984,11.9277344-9.2314453,15.8740234-15.7861328
		c3.9589844-6.5766602,5.9667969-13.9233398,5.9667969-21.8344727c0-7.8706055-1.9970703-15.1967773-5.9375-21.7763672
		C549.78125,305.5952148,544.4492188,300.2836914,537.8603516,296.3637695z M539.6289062,347.3886719
		c-1.3876953,4.3115234-3.3144531,8.2128906-5.7255859,11.5957031c-2.375,3.3349609-5.1708984,6.0195312-8.3125,7.9794922
		c-6.1298828,3.8173828-13.4453125,3.8164062-19.5712891,0c-3.140625-1.9609375-5.9394531-4.6445312-8.3144531-7.9794922
		c-2.4111328-3.3828125-4.3378906-7.2841797-5.7255859-11.5957031c-1.3886719-4.3149414-2.0917969-8.84375-2.0917969-13.4614258
		c0-4.6166992,0.703125-9.1464844,2.0898438-13.4628906c1.3916016-4.3149414,3.3183594-8.2265625,5.7294922-11.628418
		c2.3769531-3.3505859,5.171875-6.0415039,8.3125-7.9990234c3.0478516-1.9013672,6.3408203-2.8657227,9.7871094-2.8657227
		c3.4453125,0,6.7382812,0.9633789,9.7841797,2.8623047c3.1396484,1.9599609,5.9335938,4.652832,8.3105469,8.0024414
		c2.4091797,3.3974609,4.3359375,7.309082,5.7275391,11.6279297c1.390625,4.3173828,2.0957031,8.8476562,2.0957031,13.4633789
		C541.7246094,338.5439453,541.0195312,343.0727539,539.6289062,347.3886719z"/>
	<path class="st0" d="M643.9433594,298.1240234c1.8505859-0.8173828,3.9160156-1.2319336,6.1367188-1.2319336h1.8710938v-6.581543
		l-28.5683594,0.0649414l-0.2626953,6.5166016h1.9482422c2.2177734,0,4.2871094,0.4228516,6.15625,1.2568359
		c0.9755859,0.4355469,2.1582031,1.1518555,2.2353516,2.0375977l0.0537109,46.2724609l-40.1523438-56.1435547h-26.1962891v6.5766602
		h1.8710938c2.6669922,0,4.9697266,0.6376953,6.8369141,1.8935547c1.6806641,1.1313477,2.4638672,2.4936523,2.4638672,4.2890625
		l0.0087891,64.418457c-0.0292969,0.3037109-0.1181641,1.2285156-2.2910156,2.1777344
		c-1.8789062,0.8232422-3.9628906,1.2568359-6.1923828,1.2890625l-1.8457031,0.0253906v6.5566406l28.7519531-0.0654297v-6.4912109
		l-1.84375-0.0253906c-2.2333984-0.0322266-4.3193359-0.4658203-6.1982422-1.2880859
		c-0.8046875-0.3535156-2.1728516-1.0986328-2.2802734-2.0576172v-57.2299805l47.9951172,66.3227539l0.5605469,0.7734375h6.6240234
		l-0.0146484-77.1757812C641.7382812,299.2978516,642.9511719,298.5625,643.9433594,298.1240234z"/>
	<path class="st0" d="M279.4160156,485.8789062c11.1601562,0,20.2158203,3.0771484,32.8613281,3.0771484
		c5.2099609,0,6.1650391-0.5898438,7.4179688-1.6484375c0.5634766-0.4804688-0.0449219-1.7988281-0.8515625-1.7128906
		c-1.1660156,0.125-3.1552734,0.8740234-7.0283203,0.8740234c-12.2861328,0-22.3427734-3.1289062-33.4238281-3.1289062
		c-11.6640625,0-18.9316406,4.3603516-18.9316406,12.1582031c0,3.5146484,2.671875,6.8876953,4.4882812,7.9521484
		c0.7441406,0.4355469,1.6152344-0.5263672,0.7958984-1.2558594c-2.2558594-2.0107422-3.1816711-4.0292969-3.1816711-5.7548828
		C261.5624695,489.4179688,269.2324219,485.8789062,279.4160156,485.8789062z"/>
	<path class="st0" d="M295.6894531,517.6181641c-0.4326172-0.1191406-2.2734375-0.1816406-4.5771484-0.1992188v-0.5966797
		c0-9.6396484-0.1689453-18.1279297-1.1796875-28.0117188c-0.1865234-1.8330078-6.4072266-3.4628906-6.2548828-1.3779297
		c0.5087891,6.9462891,0.875,19.4287109,0.9863281,30.0419922c-1.9101562,0.0449219-3.5859375,0.1142578-4.5283203,0.2021484
		c-1.3564453,0.1279297-1.0019531,2.3388672-0.1738281,2.3271484c1.3378906-0.0195312,2.9960938-0.0664062,4.7246094-0.1162109
		c0.0087891,1.3193359,0.0136719,2.6015625,0.0136719,3.8261719c0,28.9541016-11.9541016,36.7871094-17.7529297,36.7871094
		c-4.4628906,0-12.6542969-6.1240234-12.6542969-20.4199219c0-9.2597656,4.8398438-16.7773438,9.8730469-16.7773438
		c2.78125,0,4.65625,5.1494141,5.2138672,5.4990234c0.6982422,0.4414062,1.5009766,0.0361328,1.3486328-0.8046875
		c-0.2734375-1.4960938-2.71875-6.4375-7.0117188-6.4375c-7.8671875,0-13.5097656,9.0136719-13.5097656,20.4365234
		c0,11.5605469,7.8320312,21.0849609,16.3828125,21.0849609c20.4589844,0,24.1943359-23.9072266,24.5019531-43.3828125
		c1.3867188-0.0673828,2.78125-0.0625,4.1689453,0.0175781
		C296.7724609,519.9726562,296.5332031,517.8496094,295.6894531,517.6181641z"/>
	<path class="st0" d="M388.1591797,507.4960938c0.4492188-1.0810547,0.2001953-2.3271484-0.6269531-3.1542969
		c-0.8261719-0.8261719-2.0722656-1.0732422-3.1513672-0.6259766c-1.0810547,0.4462891-1.7851562,1.5019531-1.7851562,2.6728516
		c0,1.5966797,1.2939453,2.8925781,2.8925781,2.8925781C386.6572266,509.28125,387.7128906,508.5751953,388.1591797,507.4960938z"/>
	<path class="st0" d="M462.2578125,523.3955078c-4.4316406,1.9423828-8.8076172,4.7929688-12.9316406,8.2578125
		c-0.0859375-7.3671875-0.2802734-14.5263672-0.7021484-18.0703125c-0.3457031-2.9042969-4.7773438-3.0927734-5.7568359-2.2226562
		c-0.1171875-0.0625-0.2177734,0.0302734-0.2939453,0.3457031c-4.59375,19.3330078-10.1464844,31.0488281-12.5332031,31.0488281
		c-0.3496094,0-1.9960938-2.6259766-1.9960938-13.2148438c0-2.9873047,0.1445312-9.7470703,0.7763672-14.5029297
		c0.3212891-2.421875-5.2412109-3.5576172-6.2324219-1.6416016c-1.046875,2.0205078-1.8125,7.1289062-1.8125,14.0585938
		c0,1.4199219,0.0507812,2.7558594,0.1464844,4.015625c-4.3876953,13.6992188-8.3769531,18.9169922-10.9072266,18.9169922
		c-0.9501953,0-4.4462891-2.2001953-4.4462891-22.4248047c0-1.9072266,0.0400391-3.7666016,0.1210938-5.5800781l0.0234375-0.0068359
		c4.0195312-2.1035156,14.4667969-22.1630859,14.4667969-35.9648438c0-6.4902344-2.7226562-7.0058594-5.3203125-7.0058594
		c-8.1083984,0-16.1113281,24.5107422-16.2402344,49.1416016c-4.6796875,11.0419922-8.4921875,14.8837891-9.4121094,14.8837891
		c-1.0449219,0-2.3349609-5.8017578-2.3349609-13.3261719c0-7.7978516,0.4638672-13.3896484,0.9755859-16.2470703
		c0.3388672-1.890625-5.4833984-3.7353516-6.1914062-1.1630859c-0.8388672,3.0449219-1.1289062,13.4091797-1.1289062,15.0488281
		c0,0.9433594,0.03125,1.8457031,0.078125,2.7285156c-4.0966797,13.3408203-7.3349609,17.0224609-8.3847656,17.0224609
		c-1.1904297,0-1.6669922-5.4365234-1.6669922-7.8652344c0-1.0263672,0.6503906-12.5615234,0.6503906-15.3740234
		c0-4.34375,0.0673828-10.3808594-5.2519531-10.3808594c-3.3232422,0-6.9707031,7.1875-8.7695312,11.3251953
		c0.1367188-2.4169922,0.2353516-4.3466797,0.2353516-4.7246094c0-5.4013672-0.3408203-11.2519531-5.5058594-11.2519531
		c-4.2138672,0-8.2392578,12.5634766-10.4501953,21.4609375v-0.2294922c0-6.0458984,1.0556641-12.9804688,1.0517578-13.4423828
		c-0.0244141-3.3583984-5.8984375-3.8730469-7.1953125-1.7431641c-0.2910156,0.4794922-1.5263672,5.1523438-1.5957031,13.4492188
		c-5.2949219,13.8671875-8.4697266,15.6835938-9.40625,15.6835938c-1.0439453,0-2.7275391-4.5361328-2.7275391-12.0605469
		c0-7.7988281,1.0498047-18.6416016,1.0400391-19.3554688c-0.03125-1.921875-5.828125-3.5615234-7.0419922-1.1835938
		c-0.2236328,0.5087891-0.3828125,1.0429688-0.4726562,1.59375c-0.9541016-0.7080078-2.5947266-1.4306641-5.0615234-1.4306641
		c-9.2939453,0-12.7128906,10.5253906-12.7128906,18.0830078c0,6.875,3.4208984,13.6591797,8.4580078,13.6591797
		c4.8242188,0,6.3066406-6.2871094,8.6386719-12.6298828c0.8408203,9.9472656,4.8154297,15.7470703,9.5478516,15.7470703
		c4.0537109,0,7.2294922-4.6103516,10.0146484-11.3271484c0.4677734,5.0673828,1.4619141,9.2167969,2.5126953,12.2421875
		c0.7509766,2.1591797,5.65625,1.7021484,5.7841797-0.6220703c3.0302734-23.3300781,7.7109375-31.0888672,8.5039062-32.4316406
		c0.2275391-0.3837891,0.1083984,0.9345703,0.0771484,1.7382812c-0.0791016,2.0048828-0.8867188,16.4658203,0.1298828,20.6503906
		c0.6660156,2.7451172,4.8466797,3.1806641,5.4501953-0.0527344c1.2353516-5.0693359,5.9902344-15.0048828,7.9404297-17.2626953
		c0.5830078-0.6748047-0.2578125,3.0302734-0.2578125,12.4023438c0,14.9990234,3.5400391,18.1230469,7.5087891,18.1230469
		c4.3496094,0,7.4482422-6.0039062,9.8300781-13.2714844c1.3183594,5.5859375,3.9355469,8.8427734,7.3964844,8.8427734
		c2.9257812,0,6.6640625-5.0058594,9.9345703-11.7363281c0.7988281,10.2177734,4.0849609,18.6298828,9.6044922,18.6298828
		c6.3867188,0,10.3876953-8.6542969,13.0976562-16.8623047c1.2685547,6.3671875,4.1201172,9.7041016,8.0537109,9.7041016
		c5.8535156,0,10.1708984-12.1826172,12.5898438-21.1269531c0.1523438,4.4902344,0.3935547,9.4169922,0.4804688,13.5771484
		c-10.9150391,11.7519531-18.7783203,27.2939453-18.7783203,39.6787109c0,10.1660156,4.2050476,12.1083984,7.3857422,12.1083984
		c11.8701172,0,18.1523438-22.6982422,18.1523438-44.1435547c0-3.0292969-0.0068359-6.5664062-0.0322266-10.2001953
		c4.2822266-3.8642578,8.96875-7.2587891,13.9746094-10.1240234
		C464.4511719,524.7138672,463.2998047,522.9384766,462.2578125,523.3955078z M416.3642578,482.3378906
		c0.4355469,0,0.9619141,2.7382812,0.9619141,4.0205078c0,8.7675781-3.7265625,22.7392578-11.4824219,33.1953125
		C407.3378906,496.7294922,414.5166016,482.3378906,416.3642578,482.3378906z M314.6435547,517.1650391v-0.0029297
		c-3.4863281,15.2978516-7.7197266,23.1474609-8.2314453,23.1474609c-0.5136719,0-1.6845703-4.3105469-1.6845703-9.0302734
		c0-5.9169922,2.5996094-16.0585938,7.7646484-16.0585938c0.7001953,0,1.6416016,0.5761719,2.2314453,1.0517578
		C314.6962891,516.5644531,314.6679688,516.8623047,314.6435547,517.1650391z M431.0390625,586.2685547
		c-0.6708984,0-2.4628906-4.2050781-2.4628906-8.9267578c0-8.4902344,3.3554688-22.0751953,14.0800781-34.890625
		C442.3623047,572.0810547,434.3955078,586.2685547,431.0390625,586.2685547z"/>
	<path class="st0" d="M665.6210938,417.3154297c-0.4902344-0.2988281-12.1474609-7.3427734-21.2919922-5.6298828
		c-3.0908203,0.5810547-5.3369141,2.6230469-6.0996094,5.3085938H406.1181641
		c-0.6689453-3.5029297-3.7392578-6.1533203-7.4365234-6.1533203c-3.6982422,0-6.7685547,2.6503906-7.4375,6.1533203h-19.375
		c-0.71875-7.5810547-7.0986328-13.5136719-14.8691406-13.5136719s-14.1503906,5.9326172-14.8691406,13.5136719h-19.375
		c-0.6689453-3.5029297-3.7392578-6.1533203-7.4375-6.1533203c-3.6972656,0-6.7675781,2.6503906-7.4365234,6.1533203H75.7714844
		c-0.7636719-2.6855469-3.0097656-4.7275391-6.1005859-5.3085938c-9.1484375-1.7207031-20.7988281,5.3300781-21.2919922,5.6298828
		c-0.6083984,0.3720703-0.9765625,1.0126953-0.9765625,1.7011719s0.3681641,1.3291016,0.9765625,1.7011719
		c0.4384766,0.2675781,9.7597656,5.8994141,18.25,5.8994141c1.03125,0,2.0507812-0.0830078,3.0419922-0.2695312
		c3.0908203-0.5810547,5.3369141-2.6220703,6.1005859-5.3085938H90.359375
		c-1.3193359,0.6943359-2.6015625,1.4814453-3.8251953,2.3857422c-7.6572266,5.6503906-11.7470703,14.2128906-11.2246094,23.4960938
		c0.0400391,0.7109375,0.1044922,1.4257812,0.1953125,2.1416016c0.8535156,6.7529297,4.5732422,12.6943359,10.4746094,16.7294922
		c4.6923828,3.2060547,9.7079926,4.8300781,14.5087891,4.8300781c3.7070312,0,7.2871094-0.9697266,10.4833984-2.9287109
		c6.7548828-4.1416016,10.4648438-11.9082031,9.4462891-19.7851562c-0.0439453-0.3408203-0.1201172-0.6748047-0.1875-1.0117188
		c0.5849609,0.2265625,1.1826172,0.4296875,1.8046875,0.5878906c1.3349609,0.4824219,11.9873047,3.9433594,25.5810547-2.25
		c13.59375,6.1923828,24.2421875,2.734375,25.5791016,2.25c0.6210938-0.1582031,1.2197266-0.3613281,1.8037109-0.5878906
		c-0.0673828,0.3359375-0.1435547,0.6699219-0.1875,1.0107422c-1.0175781,7.8779297,2.6914062,15.6445312,9.4492188,19.7861328
		c3.1943359,1.9589844,6.7714844,2.9287109,10.4804688,2.9287109c4.7988281,0,9.8173828-1.6240234,14.5078125-4.8300781
		c5.8984375-4.0332031,9.6191406-9.9746094,10.4755859-16.7314453c0.0898438-0.71875,0.15625-1.4335938,0.1943359-2.1425781
		c0.5234375-9.2792969-3.5683594-17.8427734-11.2226562-23.4931641c-1.2236328-0.9042969-2.5068359-1.6914062-3.8261719-2.3857422
		h42.1787109c-0.4902344,0.2148438-0.9716797,0.4404297-1.4414062,0.6816406
		c-12.4492188,6.3828125-18.4658203,18.2363281-13.4335938,28.0527344
		c5.15625,10.0556641,19.9560547,10.0253906,27.1386414,6.3427734c8.9824524-4.6054688,12.8506165-13.9462891,12.5488586-20.3427734
		c-0.1523438-3.2470703-2.9150391-2.7373047-3.1308594-0.2080078c-0.7880859,9.2724609-13.5605469,15.4189453-19.3310547,4.1660156
		c-2.8232422-5.5058594,1.2099609-11.203125,6.7167969-14.0263672c13.9658203-7.1611328,26.703125-0.9921875,40.2080078,1.7578125
		c3.3769531,0.6884766,2.8730469-1.4726562,1.1787109-2.4179688c-2.3427734-1.3076172-6.1679688-2.7587891-10.8007812-4.0058594
		h21.5283203c1.0693359,2.890625,3.8261719,4.9628906,7.0878906,4.9628906c3.2626953,0,6.0195312-2.0722656,7.0878906-4.9628906
		h19.8964844c0.8681641,4.9052734,4.1240234,8.9765625,8.5292969,10.9794922
		c-3.9765625,5.6279297-15.7314453,19.8320312-29.1708984,13.2070312c0,0-11.5634766-5.0322266-13.5908203-20.1259766
		c0,0-3.6503906,7.1279297,0.8476562,13.9414062c-4.2167969-1.9921875-11.1503906-3.8789062-17.8652344,5.0664062
		c6.7558594-5.1621094,14.9257812-0.4755859,19.7050781,3.3144531c4.9960938,3.9609375,10.9179688,6.3427734,17.0380859,6.5537109
		c17.5556641,0.6064453,22.6845703-15.21875,24.0332031-21.5517578c1.6132812,0.5966797,3.3505859,0.9384766,5.1708984,0.9384766
		s3.5566406-0.3417969,5.1708984-0.9384766c1.3486328,6.3330078,6.4775391,22.1582031,24.0332031,21.5517578
		c6.1201172-0.2109375,12.0419922-2.5927734,17.0371094-6.5537109c4.7802734-3.7900391,12.9492188-8.4765625,19.7060547-3.3144531
		c-6.7148438-8.9453125-13.6484375-7.0585938-17.8652344-5.0664062c4.4980469-6.8134766,0.8466797-13.9414062,0.8466797-13.9414062
		c-2.0263672,15.09375-13.5898438,20.1259766-13.5898438,20.1259766c-13.4394531,6.625-25.1943359-7.5791016-29.171875-13.2070312
		c4.40625-2.0019531,7.6621094-6.0742188,8.5302734-10.9794922H391.59375
		c1.0683594,2.890625,3.8251953,4.9628906,7.0878906,4.9628906c3.2617188,0,6.0185547-2.0722656,7.0878906-4.9628906h21.5283203
		c-4.6328125,1.2470703-8.4580078,2.6982422-10.8007812,4.0058594c-1.6943359,0.9453125-2.1982422,3.1064453,1.1787109,2.4179688
		c13.5048828-2.75,26.2421875-8.9189453,40.2080078-1.7578125c5.5068359,2.8232422,9.5400391,8.5205078,6.7167969,14.0263672
		c-5.7705078,11.2529297-18.5429688,5.1064453-19.3310547-4.1660156c-0.2158203-2.5292969-2.9785156-3.0390625-3.1308594,0.2080078
		c-0.3017578,6.3964844,3.5664062,15.7373047,12.5487976,20.3427734c7.1826477,3.6826172,21.9824524,3.7128906,27.1387024-6.3427734
		c5.0322266-9.8164062-0.984375-21.6699219-13.4335938-28.0527344c-0.4697266-0.2412109-0.9511719-0.4667969-1.4414062-0.6816406
		h42.1796875c-1.3193359,0.6943359-2.6015625,1.4814453-3.8251953,2.3857422
		c-7.65625,5.6503906-11.7470703,14.2128906-11.2246094,23.4960938c0.0400391,0.7109375,0.1044922,1.4257812,0.1953125,2.1416016
		c0.8535156,6.7529297,4.5732422,12.6943359,10.4746094,16.7294922c4.6923828,3.2060547,9.7080078,4.8300781,14.5087891,4.8300781
		c3.7070312,0,7.2871094-0.9697266,10.4833984-2.9287109c6.7548828-4.1416016,10.4648438-11.9082031,9.4462891-19.7851562
		c-0.0439453-0.3408203-0.1201172-0.6748047-0.1875-1.0117188c0.5849609,0.2265625,1.1826172,0.4296875,1.8046875,0.5878906
		c1.3349609,0.4824219,11.9873047,3.9433594,25.5810547-2.25c13.59375,6.1923828,24.2421875,2.734375,25.5791016,2.25
		c0.6220703-0.1582031,1.2197266-0.3613281,1.8037109-0.5878906c-0.0673828,0.3359375-0.1435547,0.6699219-0.1875,1.0107422
		c-1.0175781,7.8779297,2.6914062,15.6445312,9.4492188,19.7861328c3.1943359,1.9589844,6.7714844,2.9287109,10.4804688,2.9287109
		c4.7988281,0,9.8173828-1.6240234,14.5078125-4.8300781c5.8984375-4.0332031,9.6191406-9.9746094,10.4755859-16.7314453
		c0.0898438-0.71875,0.15625-1.4335938,0.1943359-2.1425781c0.5234375-9.2792969-3.5683594-17.8427734-11.2226562-23.4931641
		c-1.2236328-0.9042969-2.5068359-1.6914062-3.8261719-2.3857422h14.5878906
		c0.7626953,2.6865234,3.0087891,4.7275391,6.0996094,5.3085938c0.9912109,0.1865234,2.0087891,0.2695312,3.0419922,0.2695312
		c8.4882812,0,17.8115234-5.6318359,18.25-5.8994141c0.609375-0.3720703,0.9765625-1.0126953,0.9765625-1.7011719
		S666.2304688,417.6875,665.6210938,417.3154297z M165.4287109,425.8105469
		c0.9375-1.7871094,2.5908203-3.1152344,4.4248047-3.5527344c1.5332031-0.3652344,3.0615234-0.28125,4.4951172,0.0996094
		c-3.2099609,1.6503906-6.5585938,3.7539062-9.8388672,6.1894531
		C164.6425781,427.6591797,164.9414062,426.7392578,165.4287109,425.8105469z M125.3759766,422.2578125
		c1.8349609,0.4375,3.4873047,1.765625,4.4248047,3.5527344c0.4873047,0.9277344,0.7871094,1.8486328,0.9189453,2.7353516
		c-3.2822418-2.4384766-6.6328125-4.5439453-9.8369141-6.1904297
		C122.3154297,421.9746094,123.84375,421.890625,125.3759766,422.2578125z M109.0107422,464.4960938
		c-6.1220703,3.7529297-13.7460938,3.0996094-20.9150391-1.7998047c-5.0039062-3.4208984-8.1523438-8.4306641-8.8701172-14.1054688
		c-0.0810547-0.6318359-0.1376953-1.2607422-0.1738281-1.8828125c-0.4492188-7.9951172,3.0898438-15.3808594,9.7080078-20.2675781
		c6.9902344-5.1601562,15.9814453-6.4521484,24.0419922-3.4648438l0.3115234,0.1162109
		c-1.1962891,1.4609375-2.1044922,3.1923828-2.5830078,5.140625c-0.5722656,2.3271484-0.5839844,4.6591797-0.1494141,6.8691406
		c-4.6865234-2.1171875-9.5888672-2.0351562-13.6240234,0.4130859c-4.5878906,2.7841797-7.1054688,8.0292969-6.4130859,13.3632812
		c0.3847656,2.9726562,1.9003906,5.6171875,4.2675781,7.4453125c2.3691406,1.8310547,5.3095703,2.6289062,8.2734375,2.2392578
		c1.0253906-0.1347656,1.75-1.0761719,1.6152344-2.1025391c-0.1337891-1.0263672-1.0693359-1.7558594-2.1025391-1.6162109
		c-1.9599762,0.2587891-3.9169922-0.2714844-5.4941406-1.4863281c-1.5761719-1.21875-2.5849609-2.9804688-2.8427734-4.9619141
		c-0.5-3.8632812,1.3212891-7.6611328,4.640625-9.6748047c3.7314453-2.2607422,8.3779297-1.8017578,12.7626953,1.2587891
		c0.5664062,0.3945312,1.0830078,0.8408203,1.5703125,1.3095703c0.5029297,0.7080078,1.0683594,1.3691406,1.6826172,1.9892578
		c1.0488281,1.5410156,1.7460938,3.2832031,1.9814453,5.1103516
		C117.5273438,454.8037109,114.5097656,461.1259766,109.0107422,464.4960938z M123.2597656,443.9414062l-0.2197266-0.0693359
		c-2.1171875-0.5244141-3.9599609-1.5878906-5.4355469-2.9990234c-0.5058594-0.7080078-1.0654297-1.3798828-1.6855469-2.0068359
		c-1.8574219-2.7578125-2.6044922-6.2568359-1.7490234-9.7382812c0.4443359-1.8085938,1.4023438-3.3574219,2.6689453-4.5517578
		c4.1044922,1.84375,8.6806641,4.671875,13.0205078,8.0361328c-0.0683594,0.1005859-0.1240234,0.2060547-0.1992188,0.3017578
		c-1.28125,1.6357422-3.4052734,2.3720703-5.4267578,1.8730469c-1.0087891-0.2519531-2.0205078,0.3623047-2.2695312,1.3691406
		c-0.2490234,1.0058594,0.3642578,2.0214844,1.3691406,2.2705078c3.4365234,0.8544922,7.0849609-0.4013672,9.2783203-3.1982422
		l0.1601562-0.2402344c0.4619141,0.3955078,0.9326172,0.7841797,1.3837891,1.1894531
		c3.0976562,2.8222656,6.1533203,5.0439453,9.1103516,6.7900391
		C132.015625,447.0839844,123.7412109,444.1210938,123.2597656,443.9414062z M136.6708984,433.3974609
		c-0.7558594-0.6787109-1.5292969-1.3359375-2.3076172-1.984375c0.4619141-2.3154297,0.0537109-4.8740234-1.2412109-7.3427734
		c-0.6054688-1.1542969-1.421875-2.1738281-2.3691406-3.03125h33.7236328
		c-0.9472656,0.8574219-1.7636719,1.8769531-2.3691406,3.03125c-1.2939453,2.46875-1.7021484,5.0273438-1.2412109,7.3417969
		c-0.7822266,0.6513672-1.5585938,1.3115234-2.3173828,1.9941406c-3.7685547,3.4326172-7.4511719,5.8964844-10.9326172,7.6630859
		C144.1298828,439.3017578,140.4443359,436.8349609,136.6708984,433.3974609z M172.1894531,443.8720703l-0.2138672,0.0664062
		c-0.4853516,0.1826172-8.7568359,3.1455078-20.0087891-0.9716797c2.953125-1.7441406,6.0039062-3.9628906,9.0976562-6.78125
		c0.4541016-0.4082031,0.9277344-0.7998047,1.3935547-1.1982422l0.1601562,0.2412109
		c2.1933594,2.796875,5.8388672,4.0527344,9.2783203,3.1982422c1.0048828-0.2490234,1.6191406-1.2646484,1.3701172-2.2705078
		c-0.2509766-1.0068359-1.2832031-1.6201172-2.2705078-1.3691406c-2.0234375,0.4951172-4.1445312-0.2382812-5.4267578-1.8730469
		c-0.0751953-0.0957031-0.1308594-0.2011719-0.1992188-0.3017578c4.3330078-3.3583984,8.9033203-6.1806641,13.0214844-8.0332031
		c1.265625,1.1933594,2.2246094,2.7412109,2.6689453,4.5488281c0.8544922,3.4814453,0.1074219,6.9824219-1.7519531,9.7402344
		c-0.6181641,0.6259766-1.1767578,1.2958984-1.6806641,2.0019531
		C176.1513672,442.2832031,174.3076172,443.3466797,172.1894531,443.8720703z M206.4697266,426.4404297
		c6.6181641,4.8867188,10.1552734,12.2744141,9.7070312,20.2695312c-0.0351562,0.625-0.09375,1.2539062-0.171875,1.8828125
		c-0.7197266,5.6748047-3.8701172,10.6845703-8.8720703,14.1035156c-7.1679688,4.8974609-14.7890625,5.5556641-20.9130859,1.7998047
		c-5.5-3.3701172-8.5175781-9.6923828-7.6884766-16.1083984c0.2363281-1.8291016,0.9335938-3.5722656,1.9853516-5.1142578
		c0.6103516-0.6171875,1.1748047-1.2753906,1.6748047-1.9804688c0.4892578-0.4707031,1.0068359-0.9179688,1.5742188-1.3134766
		c4.3828125-3.0595703,9.0351562-3.5185547,12.7626953-1.2587891c3.3193359,2.0136719,5.140625,5.8115234,4.6416016,9.6738281
		c-0.2587891,1.9824219-1.2675781,3.7441406-2.84375,4.9628906c-1.5761719,1.2158203-3.5244141,1.7470703-5.4941406,1.4863281
		c-1.0419922-0.1396484-1.9697266,0.5898438-2.1015625,1.6162109c-0.1357422,1.0263672,0.5898438,1.9677734,1.6142578,2.1025391
		c2.9755859,0.3857422,5.9052734-0.4101562,8.2734375-2.2392578c2.3671875-1.828125,3.8837891-4.4726562,4.2675781-7.4462891
		c0.6923828-5.3330078-1.8251953-10.578125-6.4130859-13.3623047c-4.0380859-2.4482422-8.9394531-2.5302734-13.625-0.4130859
		c0.4345703-2.2099609,0.4238281-4.5410156-0.1484375-6.8691406c-0.4785156-1.9482422-1.3857422-3.6796875-2.5810547-5.1416016
		l0.3076172-0.1142578C190.4960938,419.9882812,199.4814453,421.2802734,206.4697266,426.4404297z M584.2001953,425.8105469
		c0.9375-1.7871094,2.5908203-3.1152344,4.4248047-3.5527344c1.5332031-0.3652344,3.0615234-0.28125,4.4951172,0.0996094
		c-3.2099609,1.6503906-6.5585938,3.7539062-9.8378906,6.1894531
		C583.4140625,427.6591797,583.7128906,426.7392578,584.2001953,425.8105469z M544.1474609,422.2578125
		c1.8349609,0.4375,3.4882812,1.765625,4.4257812,3.5527344c0.4863281,0.9277344,0.7861328,1.8486328,0.9179688,2.7353516
		c-3.2822266-2.4384766-6.6328125-4.5439453-9.8369141-6.1904297
		C541.0869141,421.9746094,542.6152344,421.890625,544.1474609,422.2578125z M527.7822266,464.4960938
		c-6.1220703,3.7529297-13.7451172,3.0996094-20.9150391-1.7998047c-5.0039062-3.4208984-8.1523438-8.4306641-8.8701172-14.1054688
		c-0.0810547-0.6318359-0.1376953-1.2607422-0.1738281-1.8828125c-0.4492188-7.9951172,3.0898438-15.3808594,9.7089844-20.2675781
		c6.9892578-5.1601562,15.9804688-6.4521484,24.0410156-3.4648438l0.3115234,0.1162109
		c-1.1962891,1.4609375-2.1035156,3.1923828-2.5830078,5.140625c-0.5722656,2.3271484-0.5839844,4.6591797-0.1494141,6.8691406
		c-4.6865234-2.1171875-9.5888672-2.0351562-13.6240234,0.4130859c-4.5878906,2.7841797-7.1054688,8.0292969-6.4130859,13.3632812
		c0.3847656,2.9726562,1.9003906,5.6171875,4.2675781,7.4453125c2.3691406,1.8310547,5.3095703,2.6289062,8.2734375,2.2392578
		c1.0253906-0.1347656,1.75-1.0761719,1.6152344-2.1025391c-0.1337891-1.0263672-1.0693359-1.7558594-2.1015625-1.6162109
		c-1.9609375,0.2587891-3.9179688-0.2714844-5.4951172-1.4863281c-1.5761719-1.21875-2.5849609-2.9804688-2.8427734-4.9619141
		c-0.5-3.8632812,1.3212891-7.6611328,4.640625-9.6748047c3.7314453-2.2607422,8.3779297-1.8017578,12.7626953,1.2587891
		c0.5664062,0.3945312,1.0830078,0.8408203,1.5703125,1.3095703c0.5029297,0.7080078,1.0683594,1.3691406,1.6826172,1.9892578
		c1.0488281,1.5410156,1.7460938,3.2832031,1.9814453,5.1103516
		C536.2988281,454.8037109,533.2822266,461.1259766,527.7822266,464.4960938z M542.03125,443.9414062l-0.2197266-0.0693359
		c-2.1171875-0.5244141-3.9599609-1.5878906-5.4355469-2.9990234c-0.5058594-0.7080078-1.0654297-1.3798828-1.6845703-2.0068359
		c-1.8583984-2.7578125-2.6054688-6.2568359-1.75-9.7382812c0.4443359-1.8085938,1.4023438-3.3574219,2.6689453-4.5517578
		c4.1044922,1.84375,8.6816406,4.671875,13.0205078,8.0361328c-0.0683594,0.1005859-0.1240234,0.2060547-0.1992188,0.3017578
		c-1.28125,1.6357422-3.4052734,2.3720703-5.4267578,1.8730469c-1.0087891-0.2519531-2.0205078,0.3623047-2.2695312,1.3691406
		c-0.2490234,1.0058594,0.3642578,2.0214844,1.3691406,2.2705078c3.4365234,0.8544922,7.0849609-0.4013672,9.2783203-3.1982422
		l0.1601562-0.2402344c0.4619141,0.3955078,0.9326172,0.7841797,1.3837891,1.1894531
		c3.0976562,2.8222656,6.1533203,5.0439453,9.1103516,6.7900391
		C550.7871094,447.0839844,542.5136719,444.1210938,542.03125,443.9414062z M555.4423828,433.3974609
		c-0.7558594-0.6787109-1.5292969-1.3359375-2.3076172-1.984375c0.4619141-2.3154297,0.0537109-4.8740234-1.2412109-7.3427734
		c-0.6054688-1.1542969-1.4208984-2.1738281-2.3691406-3.03125h33.7236328
		c-0.9472656,0.8574219-1.7636719,1.8769531-2.3691406,3.03125c-1.2939453,2.46875-1.7021484,5.0273438-1.2412109,7.3417969
		c-0.7822266,0.6513672-1.5585938,1.3115234-2.3173828,1.9941406c-3.7685547,3.4326172-7.4511719,5.8964844-10.9326172,7.6630859
		C562.9013672,439.3017578,559.2158203,436.8349609,555.4423828,433.3974609z M590.9619141,443.8720703l-0.2148438,0.0664062
		c-0.4853516,0.1826172-8.7568359,3.1455078-20.0087891-0.9716797c2.953125-1.7441406,6.0039062-3.9628906,9.0976562-6.78125
		c0.4541016-0.4082031,0.9277344-0.7998047,1.3935547-1.1982422l0.1601562,0.2412109
		c2.1933594,2.796875,5.8388672,4.0527344,9.2783203,3.1982422c1.0058594-0.2490234,1.6191406-1.2646484,1.3701172-2.2705078
		c-0.2509766-1.0068359-1.2832031-1.6201172-2.2705078-1.3691406c-2.0234375,0.4951172-4.1445312-0.2382812-5.4267578-1.8730469
		c-0.0751953-0.0957031-0.1308594-0.2011719-0.1992188-0.3017578c4.3339844-3.3583984,8.9033203-6.1806641,13.0214844-8.0332031
		c1.265625,1.1933594,2.2246094,2.7412109,2.6689453,4.5488281c0.8544922,3.4814453,0.1074219,6.9824219-1.7519531,9.7402344
		c-0.6181641,0.6259766-1.1767578,1.2958984-1.6806641,2.0019531
		C594.9228516,442.2832031,593.0791016,443.3466797,590.9619141,443.8720703z M625.2412109,426.4404297
		c6.6181641,4.8867188,10.1552734,12.2744141,9.7070312,20.2695312c-0.0351562,0.625-0.09375,1.2539062-0.171875,1.8828125
		c-0.7197266,5.6748047-3.8701172,10.6845703-8.8720703,14.1035156c-7.1679688,4.8974609-14.7890625,5.5556641-20.9130859,1.7998047
		c-5.5-3.3701172-8.5175781-9.6923828-7.6875-16.1083984c0.2353516-1.8291016,0.9335938-3.5722656,1.984375-5.1142578
		c0.6103516-0.6171875,1.1748047-1.2753906,1.6757812-1.9804688c0.4882812-0.4707031,1.0058594-0.9179688,1.5732422-1.3134766
		c4.3828125-3.0595703,9.0351562-3.5185547,12.7626953-1.2587891c3.3193359,2.0136719,5.140625,5.8115234,4.6416016,9.6738281
		c-0.2587891,1.9824219-1.2675781,3.7441406-2.84375,4.9628906c-1.5761719,1.2158203-3.5234375,1.7470703-5.4941406,1.4863281
		c-1.0419922-0.1396484-1.9697266,0.5898438-2.1015625,1.6162109c-0.1357422,1.0263672,0.5898438,1.9677734,1.6152344,2.1025391
		c2.9746094,0.3857422,5.9042969-0.4101562,8.2724609-2.2392578c2.3671875-1.828125,3.8837891-4.4726562,4.2685547-7.4462891
		c0.6914062-5.3330078-1.8261719-10.578125-6.4140625-13.3623047c-4.0380859-2.4482422-8.9384766-2.5302734-13.625-0.4130859
		c0.4345703-2.2099609,0.4238281-4.5410156-0.1484375-6.8691406c-0.4775391-1.9482422-1.3847656-3.6796875-2.5800781-5.1416016
		l0.3066406-0.1142578C609.2675781,419.9882812,618.2529297,421.2802734,625.2412109,426.4404297z"/>
	<path class="st0" d="M147.6152344,490.8144531c2.8779297,0,6.0947266-2.5449219,6.7978516-8.2324219
		c1.4990234-12.1289062-4.7900391-27.9580078-5.0585938-28.6259766c-0.2861328-0.7109375-0.9746094-1.1757812-1.7392578-1.1757812
		c-0.765625,0-1.4541016,0.4648438-1.7392578,1.1757812c-0.2695312,0.6679688-6.5585938,16.4970703-5.0585938,28.6259766
		C141.5205078,488.2695312,144.7373047,490.8144531,147.6152344,490.8144531z M147.6152344,460.3798828
		c1.71875,5.5087891,3.96875,14.5234375,3.0771484,21.7421875c-0.4208984,3.3964844-1.8896484,4.9423828-3.0771484,4.9423828
		c-1.1884766,0-2.65625-1.5458984-3.078125-4.9423828C143.6455078,474.9033203,145.8955078,465.8886719,147.6152344,460.3798828z"/>
	<path class="st0" d="M165.0605469,468.3681641c0.9228516,0.6210938,1.9404297,0.9267578,2.9443359,0.9267578
		c1.2978516,0,2.5703125-0.5117188,3.5751953-1.5136719c1.7919922-1.7871094,2.0390625-4.4208984,0.6132812-6.5546875
		c-3.1064453-4.6503906-11.0507812-6.4414062-11.3876953-6.515625c-0.6201172-0.1367188-1.2744141,0.0527344-1.7265625,0.5039062
		c-0.4521484,0.4521484-0.6435547,1.1025391-0.5068359,1.7255859
		C158.6455078,457.2783203,160.4287109,465.25,165.0605469,468.3681641z M169.0771484,463.3105469
		c0.6230469,0.9316406,0.0478516,1.6240234-0.1425781,1.8144531c-0.1884766,0.1865234-0.8710938,0.7421875-1.7792969,0.1328125
		c-1.7470703-1.1748047-3.0634766-3.6855469-3.9091797-5.8691406
		C165.4140625,460.234375,167.9023438,461.5537109,169.0771484,463.3105469z"/>
	<path class="st0" d="M130.1689453,468.3681641c4.6298828-3.1181641,6.4150391-11.0888672,6.4882812-11.4267578
		c0.1376953-0.6240234-0.0527344-1.2744141-0.5048828-1.7265625c-0.4521484-0.453125-1.1054688-0.6435547-1.7285156-0.5039062
		c-0.3369141,0.0742188-8.2822266,1.8652344-11.3876953,6.515625c-1.4257812,2.1337891-1.1787109,4.7675781,0.6132812,6.5546875
		c1.0058594,1.0019531,2.2783203,1.5136719,3.5761719,1.5136719
		C128.2285156,469.2949219,129.2460938,468.9892578,130.1689453,468.3681641z M126.2949219,465.125
		c-0.1904297-0.1904297-0.7646484-0.8828125-0.140625-1.8154297c1.1679688-1.7490234,3.6601562-3.0683594,5.8330078-3.9179688
		c-0.84375,2.1806641-2.1601562,4.6865234-3.9121094,5.8662109C127.1679688,465.8701172,126.4833984,465.3125,126.2949219,465.125z"
		/>
	<path class="st0" d="M566.3867188,490.8144531c2.8779297,0,6.0947266-2.5449219,6.7978516-8.2324219
		c1.4990234-12.1289062-4.7900391-27.9580078-5.0585938-28.6259766c-0.2861328-0.7109375-0.9736328-1.1757812-1.7392578-1.1757812
		s-1.4541016,0.4648438-1.7392578,1.1757812c-0.2695312,0.6679688-6.5585938,16.4970703-5.0585938,28.6259766
		C560.2919922,488.2695312,563.5087891,490.8144531,566.3867188,490.8144531z M566.3867188,460.3798828
		c1.71875,5.5087891,3.96875,14.5234375,3.0771484,21.7421875c-0.4208984,3.3964844-1.8896484,4.9423828-3.0771484,4.9423828
		c-1.1884766,0-2.65625-1.5458984-3.078125-4.9423828C562.4169922,474.9033203,564.6669922,465.8886719,566.3867188,460.3798828z"/>
	<path class="st0" d="M583.8320312,468.3681641c0.9228516,0.6210938,1.9404297,0.9267578,2.9443359,0.9267578
		c1.2978516,0,2.5703125-0.5117188,3.5751953-1.5136719c1.7929688-1.7871094,2.0400391-4.4208984,0.6132812-6.5546875
		c-3.1064453-4.6503906-11.0507812-6.4414062-11.3876953-6.515625c-0.6201172-0.1367188-1.2734375,0.0527344-1.7265625,0.5039062
		c-0.4521484,0.4521484-0.6435547,1.1025391-0.5068359,1.7255859
		C577.4169922,457.2783203,579.2001953,465.25,583.8320312,468.3681641z M587.8486328,463.3105469
		c0.6230469,0.9316406,0.0478516,1.6240234-0.1425781,1.8144531c-0.1884766,0.1865234-0.8710938,0.7421875-1.7792969,0.1328125
		c-1.7470703-1.1748047-3.0634766-3.6855469-3.9091797-5.8691406
		C584.1855469,460.234375,586.6738281,461.5537109,587.8486328,463.3105469z"/>
	<path class="st0" d="M548.9404297,468.3681641c4.6308594-3.1181641,6.4150391-11.0888672,6.4882812-11.4267578
		c0.1376953-0.6240234-0.0527344-1.2744141-0.5048828-1.7265625c-0.4521484-0.453125-1.1054688-0.6435547-1.7285156-0.5039062
		c-0.3369141,0.0742188-8.2822266,1.8652344-11.3867188,6.515625c-1.4267578,2.1337891-1.1796875,4.7675781,0.6132812,6.5546875
		c1.0048828,1.0019531,2.2773438,1.5136719,3.5751953,1.5136719C547,469.2949219,548.0175781,468.9892578,548.9404297,468.3681641z
		 M545.0664062,465.125c-0.1894531-0.1904297-0.7646484-0.8828125-0.140625-1.8154297
		c1.1679688-1.7490234,3.6601562-3.0683594,5.8330078-3.9179688c-0.84375,2.1806641-2.1601562,4.6865234-3.9121094,5.8662109
		C545.9404297,465.8701172,545.2548828,465.3125,545.0664062,465.125z"/>
	<path class="st0" d="M48.3789062,254.7363281c0.4931641,0.2998047,12.1435547,7.3500977,21.2919922,5.6298828
		c3.0908203-0.581543,5.3369141-2.6225586,6.1005859-5.309082h232.46875c1.0771484,2.875,3.8271484,4.9321289,7.078125,4.9321289
		c3.2519531,0,6.0019531-2.0571289,7.0791016-4.9321289h19.9091797c1.2519531,6.9858398,7.3466797,12.2924805,14.6933594,12.2924805
		s13.4414062-5.3066406,14.6933594-12.2924805h19.9091797c1.0771484,2.875,3.8271484,4.9321289,7.0791016,4.9321289
		c3.2509766,0,6.0009766-2.0571289,7.078125-4.9321289h232.4697266c0.7626953,2.6865234,3.0087891,4.7275391,6.0996094,5.309082
		c9.1445312,1.7133789,20.8017578-5.3310547,21.2919922-5.6298828c0.609375-0.3725586,0.9765625-1.0131836,0.9765625-1.7016602
		c0-0.6879883-0.3671875-1.3291016-0.9765625-1.7011719c-0.4384766-0.2675781-9.7617188-5.8989258-18.25-5.8989258
		c-1.0332031,0-2.0507812,0.0830078-3.0419922,0.2700195c-3.0908203,0.5805664-5.3369141,2.621582-6.0996094,5.3081055h-14.5878906
		c1.3193359-0.6948242,2.6025391-1.4819336,3.8261719-2.3852539c7.6542969-5.6508789,11.7460938-14.2143555,11.2226562-23.4936523
		c-0.0380859-0.7089844-0.1044922-1.4238281-0.1943359-2.1420898c-0.8564453-6.7578125-4.5771484-12.6987305-10.4755859-16.7319336
		c-4.6904297-3.206543-9.7089844-4.8305664-14.5078125-4.8305664c-3.7089844,0-7.2861328,0.9702148-10.4804688,2.9287109
		c-6.7578125,4.1420898-10.4667969,11.9082031-9.4492188,19.7861328c0.0439453,0.3408203,0.1201172,0.6748047,0.1875,1.0107422
		c-0.5839844-0.2260742-1.1816406-0.4296875-1.8037109-0.5878906c-1.3369141-0.4838867-11.9853516-3.9418945-25.5791016,2.2504883
		c-13.59375-6.1933594-24.2460938-2.7329102-25.5810547-2.2504883c-0.6220703,0.1582031-1.2197266,0.3618164-1.8046875,0.5878906
		c0.0673828-0.3364258,0.1435547-0.6704102,0.1875-1.0117188c1.0185547-7.8769531-2.6914062-15.6430664-9.4462891-19.784668
		c-3.1962891-1.9589844-6.7763672-2.9291992-10.4833984-2.9291992c-4.8007812,0-9.8164062,1.6240234-14.5087891,4.8305664
		c-5.9013672,4.0351562-9.6210938,9.9760742-10.4746094,16.7290039c-0.0908203,0.7158203-0.1552734,1.4306641-0.1953125,2.1420898
		c-0.5224609,9.2832031,3.5683594,17.8457031,11.2246094,23.496582c1.2236328,0.9033203,2.5058594,1.6904297,3.8251953,2.3852539
		H406.1210938c-0.65625-3.5175781-3.7314453-6.1845703-7.4394531-6.1845703c-3.7089844,0-6.7832031,2.6669922-7.4404297,6.1845703
		h-19.3710938c-0.7041016-7.5961914-7.0898438-13.5449219-14.8701172-13.5449219s-14.1660156,5.9487305-14.8701172,13.5449219
		h-19.3710938c-0.6572266-3.5175781-3.7314453-6.1845703-7.4404297-6.1845703c-3.7080078,0-6.7832031,2.6669922-7.4394531,6.1845703
		H204.8701172c1.3193359-0.6948242,2.6025391-1.4819336,3.8261719-2.3852539
		c7.6542969-5.6508789,11.7460938-14.2143555,11.2226562-23.4936523c-0.0380859-0.7089844-0.1044922-1.4238281-0.1943359-2.1420898
		c-0.8564453-6.7578125-4.5771484-12.6987305-10.4755859-16.7319336c-4.6904297-3.206543-9.7089844-4.8305664-14.5078125-4.8305664
		c-3.7089844,0-7.2861328,0.9702148-10.4804688,2.9287109c-6.7578125,4.1420898-10.4667969,11.9082031-9.4492188,19.7861328
		c0.0439453,0.3408203,0.1201172,0.6748047,0.1875,1.0107422c-0.5839844-0.2260742-1.1826172-0.4296875-1.8037109-0.5878906
		c-1.3369141-0.4838867-11.9853516-3.9418945-25.5791016,2.2504883c-13.59375-6.1933594-24.2460938-2.7329102-25.5810547-2.2504883
		c-0.6220703,0.1582031-1.2197266,0.3618164-1.8046875,0.5878906c0.0673828-0.3364258,0.1435547-0.6704102,0.1875-1.0117188
		c1.0185547-7.8769531-2.6914062-15.6430664-9.4462891-19.784668c-3.1962891-1.9589844-6.7763672-2.9291992-10.4833984-2.9291992
		c-4.8007965,0-9.8164062,1.6240234-14.5087891,4.8305664c-5.9013672,4.0351562-9.6210938,9.9760742-10.4746094,16.7290039
		c-0.0908203,0.7158203-0.1552734,1.4306641-0.1953125,2.1420898c-0.5224609,9.2832031,3.5673828,17.8457031,11.2246094,23.496582
		c1.2236328,0.9033203,2.5058594,1.6904297,3.8251953,2.3852539H75.7714844
		c-0.7636719-2.6865234-3.0097656-4.7275391-6.1005859-5.3081055c-0.9912109-0.1870117-2.0107422-0.2700195-3.0419922-0.2700195
		c-8.4902344,0-17.8115234,5.6313477-18.25,5.8989258c-0.6083984,0.3720703-0.9765625,1.0131836-0.9765625,1.7011719
		C47.4023438,253.7231445,47.7705078,254.3637695,48.3789062,254.7363281z M548.5732422,246.2407227
		c-0.9375,1.7871094-2.5908203,3.1152344-4.4257812,3.5527344c-1.5322266,0.3671875-3.0605469,0.2836914-4.4931641-0.097168
		c3.2041016-1.6469727,6.5546875-3.7524414,9.8369141-6.190918
		C549.359375,244.3925781,549.0595703,245.3129883,548.5732422,246.2407227z M588.625,249.793457
		c-1.8339844-0.4375-3.4873047-1.765625-4.4248047-3.5527344c-0.4873047-0.9282227-0.7861328-1.8486328-0.9179688-2.7358398
		c3.2792969,2.4355469,6.6279297,4.5390625,9.8378906,6.1889648
		C591.6865234,250.0751953,590.1582031,250.1591797,588.625,249.793457z M604.9912109,207.5551758
		c6.1240234-3.7553711,13.7451172-3.097168,20.9130859,1.800293c5.0019531,3.4194336,8.1523438,8.4282227,8.8720703,14.1035156
		c0.078125,0.628418,0.1367188,1.2573242,0.171875,1.8823242c0.4482422,7.9960938-3.0888672,15.3833008-9.7070312,20.2695312
		c-6.9882812,5.1606445-15.9736328,6.4526367-24.0439453,3.4638672l-0.3066406-0.1137695
		c1.1953125-1.4619141,2.1025391-3.1933594,2.5800781-5.1420898c0.5722656-2.3276367,0.5830078-4.6591797,0.1484375-6.8686523
		c4.6865234,2.1171875,9.5869141,2.0351562,13.625-0.4135742c4.5878906-2.7836914,7.1054688-8.0288086,6.4140625-13.3618164
		c-0.3847656-2.9736328-1.9013672-5.6181641-4.2685547-7.4467773c-2.3681641-1.8291016-5.2978516-2.6245117-8.2724609-2.2382812
		c-1.0253906,0.1342773-1.7509766,1.0751953-1.6152344,2.1015625c0.1318359,1.0273438,1.0595703,1.7558594,2.1015625,1.6166992
		c1.9707031-0.2607422,3.9179688,0.2700195,5.4941406,1.4863281c1.5761719,1.21875,2.5849609,2.9804688,2.84375,4.9628906
		c0.4990234,3.8618164-1.3222656,7.659668-4.6416016,9.6738281c-3.7275391,2.2602539-8.3798828,1.800293-12.7626953-1.2587891
		c-0.5673828-0.3959961-1.0849609-0.8427734-1.5732422-1.3134766c-0.5009766-0.7050781-1.0654297-1.3637695-1.6757812-1.980957
		c-1.0507812-1.5419922-1.7490234-3.2851562-1.984375-5.1142578
		C596.4736328,217.2480469,599.4912109,210.925293,604.9912109,207.5551758z M590.7470703,228.1132812l0.2148438,0.0664062
		c2.1171875,0.5249023,3.9609375,1.5888672,5.4375,3.0019531c0.5039062,0.7060547,1.0625,1.3759766,1.6806641,2.0014648
		c1.859375,2.7583008,2.6064453,6.2587891,1.7519531,9.7402344c-0.4443359,1.8081055-1.4033203,3.355957-2.6689453,4.5493164
		c-4.1181641-1.8520508-8.6875-4.6748047-13.0214844-8.0336914c0.0683594-0.0996094,0.1240234-0.2055664,0.1992188-0.3012695
		c1.2822266-1.6352539,3.4033203-2.3681641,5.4267578-1.8735352c0.9873047,0.2509766,2.0195312-0.3623047,2.2705078-1.3691406
		c0.2490234-1.0048828-0.3642578-2.0209961-1.3701172-2.2700195c-3.4394531-0.8544922-7.0849609,0.4013672-9.2783203,3.1982422
		l-0.1601562,0.2407227c-0.4658203-0.3984375-0.9394531-0.7900391-1.3935547-1.1982422
		c-3.09375-2.8178711-6.1445312-5.0366211-9.0976562-6.78125
		C581.9902344,224.9677734,590.2617188,227.9311523,590.7470703,228.1132812z M577.3203125,238.6455078
		c0.7587891,0.6821289,1.5351562,1.3422852,2.3173828,1.9936523c-0.4609375,2.3149414-0.0527344,4.8735352,1.2412109,7.3427734
		c0.6054688,1.1538086,1.421875,2.1733398,2.3691406,3.0307617h-33.7236328
		c0.9482422-0.8574219,1.7636719-1.8769531,2.3691406-3.0307617c1.2949219-2.4692383,1.703125-5.027832,1.2412109-7.3432617
		c0.7783203-0.6484375,1.5517578-1.3056641,2.3076172-1.984375c3.7734375-3.4375,7.4589844-5.9042969,10.9453125-7.671875
		C569.8691406,232.7485352,573.5517578,235.2128906,577.3203125,238.6455078z M541.8115234,228.1796875l0.2197266-0.0693359
		c0.4824219-0.1801758,8.7558594-3.1425781,20.0058594,0.9736328c-2.9570312,1.7460938-6.0126953,3.9677734-9.1103516,6.7900391
		c-0.4511719,0.4052734-0.921875,0.7939453-1.3837891,1.1894531l-0.1601562-0.2402344
		c-2.1933594-2.796875-5.8417969-4.0532227-9.2783203-3.1982422c-1.0048828,0.2490234-1.6181641,1.2651367-1.3691406,2.2700195
		c0.2490234,1.0068359,1.2607422,1.6210938,2.2695312,1.3691406c2.0214844-0.4985352,4.1455078,0.2373047,5.4267578,1.8735352
		c0.0751953,0.0957031,0.1308594,0.2016602,0.1992188,0.3012695c-4.3388672,3.3647461-8.9160156,6.1923828-13.0205078,8.0366211
		c-1.2666016-1.1943359-2.2246094-2.7431641-2.6689453-4.5522461c-0.8554688-3.480957-0.1083984-6.9799805,1.75-9.7382812
		c0.6191406-0.6264648,1.1787109-1.2983398,1.6845703-2.0063477
		C537.8515625,229.7670898,539.6943359,228.7041016,541.8115234,228.1796875z M507.5322266,245.6108398
		c-6.6191406-4.8862305-10.1582031-12.2724609-9.7089844-20.2670898c0.0361328-0.6220703,0.0927734-1.2509766,0.1738281-1.8828125
		c0.7177734-5.675293,3.8662109-10.6845703,8.8701172-14.1054688c7.1699219-4.8999023,14.7929688-5.5527344,20.9150391-1.800293
		c5.5,3.3701172,8.5166016,9.6928711,7.6875,16.1074219c-0.2353516,1.828125-0.9326172,3.5698242-1.9814453,5.1108398
		c-0.6142578,0.6196289-1.1796875,1.28125-1.6826172,1.9892578c-0.4873047,0.4692383-1.0039062,0.9145508-1.5703125,1.3095703
		c-4.3847656,3.0600586-9.03125,3.5195312-12.7626953,1.2587891c-3.3193359-2.0141602-5.140625-5.8120117-4.640625-9.6748047
		c0.2578125-1.9814453,1.2666016-3.7431641,2.8427734-4.9619141c1.5771484-1.215332,3.5341797-1.7456055,5.4951172-1.4863281
		c1.0322266,0.1391602,1.9677734-0.5893555,2.1015625-1.6166992c0.1347656-1.0263672-0.5898438-1.9672852-1.6152344-2.1015625
		c-2.9638672-0.3901367-5.9042969,0.4072266-8.2734375,2.2382812c-2.3671875,1.8286133-3.8828125,4.4731445-4.2675781,7.4458008
		c-0.6923828,5.3339844,1.8251953,10.5791016,6.4130859,13.362793c4.0351562,2.4487305,8.9375,2.5302734,13.6240234,0.4135742
		c-0.4345703,2.2099609-0.4228516,4.5415039,0.1494141,6.8686523c0.4794922,1.9487305,1.3867188,3.6796875,2.5830078,5.1411133
		l-0.3115234,0.1157227C523.5126953,252.0634766,514.5214844,250.7714844,507.5322266,245.6108398z M129.8007812,246.2407227
		c-0.9375,1.7871094-2.5898438,3.1152344-4.4248047,3.5527344c-1.5322266,0.3671875-3.0605469,0.2836914-4.4931641-0.097168
		c3.2041016-1.6469727,6.5546722-3.7524414,9.8369141-6.190918
		C130.5878906,244.3925781,130.2880859,245.3129883,129.8007812,246.2407227z M169.8535156,249.793457
		c-1.8339844-0.4375-3.4873047-1.765625-4.4248047-3.5527344c-0.4873047-0.9282227-0.7861328-1.8486328-0.9189453-2.7358398
		c3.2802734,2.4355469,6.6289062,4.5390625,9.8388672,6.1889648
		C172.9150391,250.0751953,171.3867188,250.1591797,169.8535156,249.793457z M186.2197266,207.5551758
		c6.1240234-3.7553711,13.7451172-3.097168,20.9130859,1.800293c5.0019531,3.4194336,8.1523438,8.4282227,8.8720703,14.1035156
		c0.078125,0.628418,0.1367188,1.2573242,0.171875,1.8823242c0.4482422,7.9960938-3.0888672,15.3833008-9.7070312,20.2695312
		c-6.9882812,5.1606445-15.9736328,6.4526367-24.0439453,3.4638672l-0.3076172-0.1137695
		c1.1953125-1.4619141,2.1025391-3.1933594,2.5810547-5.1420898c0.5722656-2.3276367,0.5830078-4.6591797,0.1484375-6.8686523
		c4.6855469,2.1171875,9.5869141,2.0351562,13.625-0.4135742c4.5878906-2.7836914,7.1054688-8.0288086,6.4130859-13.3618164
		c-0.3837891-2.9736328-1.9003906-5.6181641-4.2675781-7.4467773c-2.3681641-1.8291016-5.2978516-2.6245117-8.2734375-2.2382812
		c-1.0244141,0.1342773-1.75,1.0751953-1.6142578,2.1015625c0.1318359,1.0273438,1.0595703,1.7558594,2.1015625,1.6166992
		c1.9697266-0.2607422,3.9179688,0.2700195,5.4941406,1.4863281c1.5761719,1.21875,2.5849609,2.9804688,2.84375,4.9628906
		c0.4990234,3.8618164-1.3222656,7.659668-4.6416016,9.6738281c-3.7275391,2.2602539-8.3798828,1.800293-12.7626953-1.2587891
		c-0.5673828-0.3959961-1.0849609-0.8427734-1.5742188-1.3134766c-0.5-0.7050781-1.0644531-1.3637695-1.6748047-1.980957
		c-1.0517578-1.5419922-1.7490234-3.2851562-1.9853516-5.1142578
		C177.7021484,217.2480469,180.7197266,210.925293,186.2197266,207.5551758z M171.9755859,228.1132812l0.2138672,0.0664062
		c2.1181641,0.5249023,3.9619141,1.5888672,5.4384766,3.0019531c0.5039062,0.7060547,1.0625,1.3759766,1.6806641,2.0014648
		c1.859375,2.7583008,2.6064453,6.2587891,1.7519531,9.7402344c-0.4443359,1.8081055-1.4033203,3.355957-2.6689453,4.5493164
		c-4.1181641-1.8520508-8.6884766-4.6748047-13.0214844-8.0336914c0.0683594-0.0996094,0.1240234-0.2055664,0.1992188-0.3012695
		c1.2822266-1.6352539,3.4033203-2.3681641,5.4267578-1.8735352c0.9873047,0.2509766,2.0195312-0.3623047,2.2705078-1.3691406
		c0.2490234-1.0048828-0.3652344-2.0209961-1.3701172-2.2700195c-3.4394531-0.8544922-7.0849609,0.4013672-9.2783203,3.1982422
		l-0.1601562,0.2407227c-0.4658203-0.3984375-0.9394531-0.7900391-1.3935547-1.1982422
		c-3.09375-2.8178711-6.1445312-5.0366211-9.0976562-6.78125
		C163.21875,224.9677734,171.4902344,227.9311523,171.9755859,228.1132812z M158.5488281,238.6455078
		c0.7587891,0.6821289,1.5351562,1.3422852,2.3173828,1.9936523c-0.4609375,2.3149414-0.0527344,4.8735352,1.2412109,7.3427734
		c0.6054688,1.1538086,1.421875,2.1733398,2.3691406,3.0307617h-33.7236328
		c0.9472656-0.8574219,1.7636719-1.8769531,2.3691406-3.0307617c1.2949219-2.4692383,1.703125-5.027832,1.2412109-7.3432617
		c0.7783203-0.6484375,1.5517578-1.3056641,2.3076172-1.984375c3.7734375-3.4375,7.4589844-5.9042969,10.9453125-7.671875
		C151.0976562,232.7485352,154.7802734,235.2128906,158.5488281,238.6455078z M123.0400391,228.1796875l0.2197266-0.0693359
		c0.4814453-0.1801758,8.7558594-3.1425781,20.0058594,0.9736328c-2.9570312,1.7460938-6.0126953,3.9677734-9.1103516,6.7900391
		c-0.4511719,0.4052734-0.921875,0.7939453-1.3837891,1.1894531l-0.1601562-0.2402344
		c-2.1933594-2.796875-5.8417969-4.0532227-9.2783203-3.1982422c-1.0048828,0.2490234-1.6181641,1.2651367-1.3691406,2.2700195
		c0.2490234,1.0068359,1.2607422,1.6210938,2.2695312,1.3691406c2.0214844-0.4985352,4.1455078,0.2373047,5.4267578,1.8735352
		c0.0751953,0.0957031,0.1308594,0.2016602,0.1992188,0.3012695c-4.3398438,3.3647461-8.9160156,6.1923828-13.0205078,8.0366211
		c-1.2666016-1.1943359-2.2246094-2.7431641-2.6689453-4.5522461c-0.8554688-3.480957-0.1083984-6.9799805,1.7490234-9.7382812
		c0.6201172-0.6264648,1.1796875-1.2983398,1.6855469-2.0063477
		C119.0800781,229.7670898,120.9228516,228.7041016,123.0400391,228.1796875z M88.7597656,245.6108398
		c-6.6181641-4.8862305-10.1572266-12.2724609-9.7080078-20.2670898c0.0361328-0.6220703,0.0927734-1.2509766,0.1738281-1.8828125
		c0.7177734-5.675293,3.8662109-10.6845703,8.8701172-14.1054688c7.1689453-4.8999023,14.7929688-5.5527344,20.9150391-1.800293
		c5.4990234,3.3701172,8.5166016,9.6928711,7.6875,16.1074219c-0.2353516,1.828125-0.9326172,3.5698242-1.9814453,5.1108398
		c-0.6142578,0.6196289-1.1796875,1.28125-1.6826172,1.9892578c-0.4873047,0.4692383-1.0039062,0.9145508-1.5703125,1.3095703
		c-4.3847656,3.0600586-9.03125,3.5195312-12.7626953,1.2587891c-3.3193359-2.0141602-5.140625-5.8120117-4.640625-9.6748047
		c0.2578125-1.9814453,1.2666016-3.7431641,2.8427734-4.9619141c1.5771484-1.215332,3.5341644-1.7456055,5.4941406-1.4863281
		c1.0332031,0.1391602,1.96875-0.5893555,2.1025391-1.6166992c0.1347656-1.0263672-0.5898438-1.9672852-1.6152344-2.1015625
		c-2.9638672-0.3901367-5.9042969,0.4072266-8.2734375,2.2382812c-2.3671875,1.8286133-3.8828125,4.4731445-4.2675781,7.4458008
		c-0.6923828,5.3339844,1.8251953,10.5791016,6.4130859,13.362793c4.0351562,2.4487305,8.9375,2.5302734,13.6240234,0.4135742
		c-0.4345703,2.2099609-0.4228516,4.5415039,0.1494141,6.8686523c0.4785156,1.9487305,1.3867188,3.6796875,2.5830078,5.1411133
		l-0.3115234,0.1157227C104.7412109,252.0634766,95.75,250.7714844,88.7597656,245.6108398z"/>
	<path class="st0" d="M147.6152344,219.2714844c0.7646484,0,1.453125-0.465332,1.7392578-1.1757812
		c0.2685547-0.6679688,6.5576172-16.4970703,5.0585938-28.6259766c-0.703125-5.6875-3.9199219-8.2324219-6.7978516-8.2324219
		s-6.0947266,2.5449219-6.7978516,8.2324219c-1.5,12.1289062,4.7890625,27.9580078,5.0585938,28.6259766
		C146.1611328,218.8061523,146.8496094,219.2714844,147.6152344,219.2714844z M144.5371094,189.9291992
		c0.421875-3.3964844,1.8896484-4.9423828,3.078125-4.9423828c1.1875,0,2.65625,1.5458984,3.0771484,4.9423828
		c0.8916016,7.2197266-1.3583984,16.2333984-3.0771484,21.7421875
		C145.8955078,206.1625977,143.6455078,197.1489258,144.5371094,189.9291992z"/>
	<path class="st0" d="M160.8056641,217.3408203c0.3369141-0.0742188,8.28125-1.8657227,11.3876953-6.515625
		c1.4257812-2.1342773,1.1787109-4.7675781-0.6132812-6.5546875c-1.0048828-1.0019531-2.2773438-1.5136719-3.5751953-1.5136719
		c-1.0039062,0-2.0214844,0.3051758-2.9443359,0.9262695c-4.6318359,3.1186523-6.4150391,11.0898438-6.4882812,11.4277344
		c-0.1367188,0.6235352,0.0546875,1.2739258,0.5068359,1.7255859
		C159.53125,217.2875977,160.1855469,217.4770508,160.8056641,217.3408203z M167.1552734,206.793457
		c0.9082031-0.609375,1.5908203-0.0532227,1.7792969,0.1337891c0.1904297,0.1899414,0.765625,0.8823242,0.1425781,1.8144531
		c-1.1748047,1.7563477-3.6630859,3.0756836-5.8310547,3.9213867
		C164.0917969,210.4790039,165.4082031,207.96875,167.1552734,206.793457z"/>
	<path class="st0" d="M134.4238281,217.3408203c0.6230469,0.1396484,1.2763672-0.0512695,1.7285156-0.5043945
		c0.4521484-0.4516602,0.6425781-1.1020508,0.5048828-1.7265625c-0.0732422-0.3374023-1.8583984-8.3081055-6.4882812-11.4267578
		c-0.9228516-0.6210938-1.9404297-0.9262695-2.9433594-0.9262695c-1.2978516,0-2.5703125,0.5117188-3.5761719,1.5136719
		c-1.7919922,1.7871094-2.0390625,4.4204102-0.6132812,6.5546875
		C126.1416016,215.4750977,134.0869141,217.2666016,134.4238281,217.3408203z M126.2949219,206.9272461
		c0.1884766-0.1879883,0.8730469-0.7460938,1.7802734-0.1337891c1.7519531,1.1801758,3.0683594,3.6855469,3.9121094,5.8666992
		c-2.1728516-0.8491211-4.6650391-2.1694336-5.8330078-3.9179688
		C125.5302734,207.8095703,126.1044922,207.1171875,126.2949219,206.9272461z"/>
	<path class="st0" d="M566.3867188,219.2714844c0.765625,0,1.453125-0.465332,1.7392578-1.1757812
		c0.2685547-0.6679688,6.5576172-16.4970703,5.0585938-28.6259766c-0.703125-5.6875-3.9199219-8.2324219-6.7978516-8.2324219
		s-6.0947266,2.5449219-6.7978516,8.2324219c-1.5,12.1289062,4.7890625,27.9580078,5.0585938,28.6259766
		C564.9326172,218.8061523,565.6210938,219.2714844,566.3867188,219.2714844z M563.3085938,189.9291992
		c0.421875-3.3964844,1.8896484-4.9423828,3.078125-4.9423828c1.1875,0,2.65625,1.5458984,3.0771484,4.9423828
		c0.8916016,7.2197266-1.3583984,16.2333984-3.0771484,21.7421875
		C564.6669922,206.1625977,562.4169922,197.1489258,563.3085938,189.9291992z"/>
	<path class="st0" d="M579.5771484,217.3408203c0.3369141-0.0742188,8.28125-1.8657227,11.3876953-6.515625
		c1.4267578-2.1342773,1.1796875-4.7675781-0.6132812-6.5546875c-1.0048828-1.0019531-2.2773438-1.5136719-3.5751953-1.5136719
		c-1.0039062,0-2.0214844,0.3051758-2.9443359,0.9262695c-4.6318359,3.1186523-6.4150391,11.0898438-6.4882812,11.4277344
		c-0.1367188,0.6235352,0.0546875,1.2739258,0.5068359,1.7255859
		C578.3037109,217.2875977,578.9570312,217.4770508,579.5771484,217.3408203z M585.9267578,206.793457
		c0.9082031-0.609375,1.5908203-0.0532227,1.7792969,0.1337891c0.1904297,0.1899414,0.765625,0.8823242,0.1425781,1.8144531
		c-1.1748047,1.7563477-3.6630859,3.0756836-5.8310547,3.9213867
		C582.8632812,210.4790039,584.1796875,207.96875,585.9267578,206.793457z"/>
	<path class="st0" d="M553.1953125,217.3408203c0.6230469,0.1396484,1.2763672-0.0512695,1.7285156-0.5043945
		c0.4521484-0.4516602,0.6425781-1.1020508,0.5048828-1.7265625c-0.0732422-0.3374023-1.8574219-8.3081055-6.4882812-11.4267578
		c-0.9228516-0.6210938-1.9404297-0.9262695-2.9433594-0.9262695c-1.2978516,0-2.5703125,0.5117188-3.5751953,1.5136719
		c-1.7929688,1.7871094-2.0400391,4.4204102-0.6132812,6.5546875
		C544.9130859,215.4750977,552.8583984,217.2666016,553.1953125,217.3408203z M545.0664062,206.9272461
		c0.1884766-0.1879883,0.8740234-0.7460938,1.7802734-0.1337891c1.7519531,1.1801758,3.0683594,3.6855469,3.9121094,5.8666992
		c-2.1728516-0.8491211-4.6650391-2.1694336-5.8330078-3.9179688
		C544.3017578,207.8095703,544.8769531,207.1171875,545.0664062,206.9272461z"/>
	<path class="st0" d="M434.8505859,188.7148438c-0.2802734,6.2324219,1.0566406,12.3066406,3.8769531,17.6176758
		c-7.3525391,8.3754883-16.0224609,15.6083984-25.7724609,21.5014648c-0.6435547,0.3876953-0.8320312,1.109375-0.4599609,1.753418
		c0.2529297,0.440918,0.7470703,0.7626953,1.2929688,0.7626953c0.2294922,0,0.4667969-0.0571289,0.7001953-0.1850586
		c10.3291016-5.6845703,19.5439453-13.0043945,27.3984375-21.7626953
		c6.7539062,1.1459961,13.7978516,0.3720703,20.4101562-2.2421875c0.3183594,0.3769531,0.7744141,0.5712891,1.2607422,0.546875
		c6.0322266-0.4208984,12.1796875-2.4150391,17.7783203-5.7675781c2.8613281-1.7119141,7.1865234-4.2983398,5.9433594-8.8735352
		c-0.140625-0.5166016-0.4902344-0.9516602-0.984375-1.2250977c-0.5820312-0.3232422-1.3105469-0.3989258-1.9472656-0.2114258
		c-6.9150391,2.0693359-13.1630859,5.3813477-19.1015625,10.1259766c-0.1396484,0.1108398-0.2373047,0.2285156-0.3427734,0.3671875
		c-6.4355469,3.362793-13.2236328,4.8666992-20.6865234,4.5649414c5.1435547-6.1464844,9.5576172-12.8427734,13.1279297-19.9179688
		c0.2548828-0.206543,0.4111328-0.4785156,0.4482422-0.7773438c8.6074219-2.3291016,16.9658203-6.7397461,23.578125-12.4428711
		c4.8828125-1.4545898,8.9951172-4.2744141,11.8994141-8.1582031c2.5039062-3.3481445,5.1259766-7.9399414,3.4121094-10.8085938
		c-0.4960938-0.8291016-1.1748047-1.3168945-2.0166016-1.4511719c-2.3525391-0.3764648-5.3544922,2.2329102-6.9628906,3.6352539
		l-0.4091797,0.3544922c-4.1884766,3.5727539-7.3378906,8.0537109-9.3242188,13.246582
		c-0.1464844,0.2446289-0.2373047,0.4804688-0.2910156,0.7231445l-0.0478516,0.1264648
		c-0.0439453,0.1210938-0.0722656,0.2441406-0.0869141,0.3701172c-6.1552734,4.4179688-11.9501953,7.8427734-18.1210938,10.7041016
		c3.5458984-7.9277344,6.0761719-16.1259766,7.5253906-24.3867188l0.0107422-0.0854492
		c2.8046875-1.0961914,3.4667969-5.5874023,3.8320312-8.0458984l0.0273438-0.1953125
		c0.6347656-4.2548828,0.3476562-8.6396484-0.8535156-13.0322266c-0.2255859-0.8256836-0.8847656-1.3686523-1.7597656-1.4521484
		c-0.9804688-0.0805664-1.9140625,0.4165039-2.3154297,1.2299805c-4.0830078,8.3203125-5.3027344,16.9389648-3.4335938,24.2666016
		c0.0390625,0.1572266,0.1025391,0.2988281,0.1914062,0.4272461c-1.6640625,6.8608398-3.9716797,13.5595703-6.8681641,19.9350586
		c-3.0078125-7.605957-4.1923828-14.8862305-3.8349609-23.4541016l-0.0097656-0.137207
		c2.9892578-6.4072266,3.1240234-13.8427734,0.3681641-20.4277344c-0.3164062-0.7543945-1.125-1.2724609-1.9794922-1.2724609
		h-0.0429688c-0.7695312,0.015625-1.3896484,0.4526367-1.65625,1.1694336
		c-0.7626953,2.0380859-5.5654297,18.3598633-2.3671875,22.8295898c0.4775391,0.6655273,1.1005859,1.0522461,1.8613281,1.1523438
		c-0.4423828,8.2080078,1.7099609,16.8066406,5.9394531,23.7109375
		c-3.6660156,7.3466797-8.1855469,14.2714844-13.4384766,20.5947266
		c-2.3779297-6.2216797-3.1259766-12.3725586-2.2871094-18.7753906c0.0361328-0.2749023,0.0087891-0.5356445-0.0820312-0.7724609
		c0.5-0.3276367,0.8388672-0.8154297,0.9365234-1.3754883c0.1181641-0.6826172,0.2441406-1.3779297,0.3720703-2.0800781
		c0.7402344-4.0947266,1.5048828-8.3295898,1.3125-12.3393555c-0.0820312-1.6801758-1.0566406-3.1704102-2.3730469-3.6235352
		c-1.1025391-0.3803711-2.2871094,0.0219727-3.2333984,1.1142578c-2.4667969,2.859375-3.1240234,8.1767578-3.2978516,11.0922852
		c-0.2539062,4.284668,0.4794922,7.9233398,2.1748047,10.8178711
		C434.3046875,188.4511719,434.546875,188.6342773,434.8505859,188.7148438z"/>
	<path class="st0" d="M232.6289062,172.5493164c6.6123047,5.703125,14.9707031,10.1137695,23.578125,12.4428711
		c0.0371094,0.2988281,0.1933594,0.5708008,0.4482422,0.7773438c3.5703125,7.0751953,7.984375,13.7714844,13.1279297,19.9179688
		c-7.4550781,0.2871094-14.2490234-1.2021484-20.6865234-4.5649414c-0.0888672-0.1166992-0.1904297-0.2451172-0.3427734-0.3671875
		c-5.9384766-4.7446289-12.1865234-8.0566406-19.1015625-10.125c-0.6347656-0.1923828-1.3652344-0.112793-1.9472656,0.2104492
		c-0.4941406,0.2734375-0.84375,0.7084961-0.984375,1.2260742c-1.2431641,4.5742188,3.0820312,7.1606445,5.9433594,8.8725586
		c5.5986328,3.3525391,11.7460938,5.3466797,17.7783203,5.7675781c0.484375,0.0273438,0.9404297-0.1689453,1.2607422-0.546875
		c6.6142578,2.612793,13.6523438,3.387207,20.4101562,2.2421875c7.8544922,8.7583008,17.0693359,16.078125,27.3964844,21.7617188
		c0.2353516,0.1289062,0.4726562,0.1860352,0.7021484,0.1860352c0.5458984,0,1.0400391-0.3217773,1.2929688-0.7626953
		c0.3720703-0.644043,0.1835938-1.3657227-0.4599609-1.753418c-9.75-5.8930664-18.4199219-13.1259766-25.7724609-21.5014648
		c2.8203125-5.3110352,4.1572266-11.3852539,3.8769531-17.6176758c0.3037109-0.0805664,0.5458984-0.2636719,0.7089844-0.5395508
		c1.6953125-2.8935547,2.4287109-6.5322266,2.1748047-10.8168945c-0.1738281-2.9155273-0.8310547-8.2338867-3.2998047-11.0922852
		c-0.9443359-1.090332-2.1210938-1.4995117-3.2314453-1.1142578c-1.3144836,0.4526367-2.2890625,1.9433594-2.3730469,3.6235352
		c-0.1923828,4.0097656,0.5722656,8.2446289,1.3125,12.3393555c0.1279297,0.7021484,0.2539062,1.3974609,0.3720703,2.0810547
		c0.0976562,0.559082,0.4365234,1.046875,0.9365234,1.3745117c-0.0908203,0.2358398-0.1181641,0.4960938-0.0830078,0.7705078
		c0.8398438,6.4038086,0.0917969,12.5546875-2.2861328,18.7773438c-5.2529297-6.3232422-9.7724609-13.2480469-13.4384766-20.5947266
		c4.2275391-6.9072266,6.3818359-15.5058594,5.9394531-23.7109375c0.7607422-0.1000977,1.3837891-0.4868164,1.8613281-1.1523438
		c3.1982422-4.4697266-1.6044922-20.7915039-2.3671875-22.8295898c-0.2666016-0.7167969-0.8867188-1.1538086-1.65625-1.1694336
		h-0.0429688c-0.8544922,0-1.6630859,0.5180664-1.9794922,1.2724609
		c-2.7578125,6.5869141-2.6210938,14.0258789,0.3720703,20.4345703l-0.0136719,0.1367188
		c0.3574219,8.5634766-0.8291016,15.84375-3.8369141,23.4477539c-2.8955078-6.3769531-5.2021484-13.0766602-6.8662109-19.9350586
		c0.0888672-0.128418,0.1523438-0.269043,0.1914062-0.4257812c1.8691406-7.3291016,0.6494141-15.9477539-3.4335938-24.2680664
		c-0.4013672-0.8144531-1.3310547-1.3115234-2.3154297-1.2299805c-0.875,0.0834961-1.5341797,0.6264648-1.7597656,1.4521484
		c-1.2011719,4.3925781-1.4882812,8.7773438-0.8535156,13.0322266l0.0273438,0.1953125
		c0.3652344,2.4584961,1.0273438,6.949707,3.8320312,8.0458984l0.0107422,0.0844727
		c1.4492188,8.2617188,3.9794922,16.4599609,7.5253906,24.3876953c-6.1708984-2.8613281-11.9658203-6.2861328-18.1210938-10.7041016
		c-0.0146484-0.1259766-0.0429688-0.2470703-0.0849609-0.3671875l-0.0615234-0.1303711
		c-0.0419922-0.2416992-0.1328125-0.4775391-0.2441406-0.6489258c-2.0214844-5.2661133-5.1708984-9.7470703-9.359375-13.3198242
		l-0.4091797-0.3544922c-1.6103516-1.4023438-4.6044922-4.0117188-6.9628906-3.6352539
		c-0.8417969,0.1342773-1.5205078,0.6220703-2.0166016,1.4511719c-1.7138672,2.8686523,0.9082031,7.4604492,3.4121094,10.8085938
		C223.6337891,168.2749023,227.7460938,171.0947266,232.6289062,172.5493164z"/>
	<path class="st0" d="M607.03125,496.5458984c-9.203125,3.9189453-17.6064453,9.7822266-24.0283203,17.4990234
		c-0.3173828,0.3808594-0.3046875,0.8271484-0.125,1.1777344c-3.8681641,1.8173828-7.7441406,3.4990234-11.6318359,5.0439453
		c6.09375-5.5820312,9.3613281-13.3046875,9.7099609-21.671875c0.0380859-0.9121094-1.1308594-1.3203125-1.7509766-0.7373047
		c-7.1621094,6.7353516-12.2119141,15.1992188-14.3564453,24.8173828
		c-4.8574219,1.7324219-9.7382812,3.2412109-14.6494141,4.5234375c0.2939453-0.2958984,0.5654297-0.6113281,0.8505859-0.9160156
		c0.4814453,0.1542969,1.0400391,0.0458984,1.4121094-0.5273438c0.8232422-1.2714844,1.5800781-2.5917969,2.2998047-3.9355469
		c3.3408203-4.5322266,5.9863281-9.609375,8.0029297-14.8027344c0.34375-0.8867188-0.7587891-1.4345703-1.4492188-1.1269531
		c-8.8046875,3.9169922-12.1240234,14.1435547-15.5947266,22.4130859c-4.9609375,1.1484375-9.9599609,2.0507812-15,2.7167969
		l0.046875-0.0869141c6.7314453-4.1591797,11.5996094-11.0712891,13.8945312-18.6582031
		c0.2900391-0.9589844-0.7636719-1.5566406-1.5566406-1.2099609C534.0996094,515,527.4394531,522.4140625,524.5068359,531.703125
		c-6.6728516,0.6064453-13.4296875,0.7734375-20.2880859,0.4941406c7.2548828-2.7988281,13.2617188-8.3701172,16.9628906-15.2275391
		c0.421875-0.7822266-0.2744141-2.0185547-1.2480469-1.6503906c-8.9765625,3.3896484-16.7011719,8.9316406-22.6425781,16.4345703
		c-4.0244141-0.3427734-8.0820312-0.8232422-12.1865234-1.4873047c-1.0322266-0.1669922-1.4941406,1.3847656-0.4384766,1.5957031
		c3.8076172,0.7607422,7.6806641,1.3398438,11.5869141,1.7910156c0.1318359,0.4121094,0.5830078,0.6982422,1.0654297,0.7255859
		c6.9130859,8.3867188,18.4589844,12.9267578,28.8984375,14.3828125c0.9199219,0.1289062,2.0332031-1.046875,1.0751953-1.8242188
		c-6.5234375-5.2871094-13.6533203-9.5253906-21.4199219-12.4785156c5.8583984,0.2949219,11.7666016,0.2695312,17.6689453-0.1132812
		c4.3212891,4.4033203,9.7236328,7.6953125,15.4082031,10.0390625c2.0009766,0.8251953,9.1621094,4.6318359,11.1210938,1.9648438
		c2.8964844-3.9423828-12.2802734-9.9785156-19.7285156-12.5429688l-0.0273438-0.0478516
		c5.2460938-0.5761719,10.4667969-1.4160156,15.6162109-2.5410156c-0.4599609,3.4931641,7.4951172,4.609375,9.6933594,5.1425781
		c7.5800781,1.8378906,15.3125,1.9541016,22.9902344,0.71875c0.8916016-0.1435547,1.0439453-1.5390625,0.2695312-1.9316406
		c-8.1425781-4.1113281-16.8398438-6.0878906-25.7802734-5.6835938c4.8457031-1.3232422,9.6113281-2.8886719,14.2529297-4.7216797
		c0.1630859,0.3525391,0.5117188,0.5966797,0.9970703,0.4375c0.4091797-0.1347656,0.8193359-0.25,1.2285156-0.3789062
		c5.8701172,1.8642578,12.0908203,2.4414062,18.2216797,1.8310547c4.0693359-0.4052734,9.6298828-0.6601562,11.9042969-4.4990234
		c0.296875-0.5019531,0.1220703-1.1640625-0.3710938-1.4638672c-4.0585938-2.4658203-10.1464844-1.4589844-14.6679688-1.0048828
		c-3.0849609,0.3095703-6.1162109,0.8417969-9.109375,1.5449219c4.0146484-1.9199219,7.9130859-4.0429688,11.6660156-6.3808594
		c9.7939453-0.7958984,16.140625-9.2285156,21.2929688-16.7646484
		C609.2050781,497.0595703,607.9355469,496.1611328,607.03125,496.5458984z"/>
	<path class="st0" d="M228.8955078,530.2666016c-4.1044922,0.6640625-8.1621094,1.1445312-12.1865234,1.4873047
		c-5.9414062-7.5029297-13.6660156-13.0449219-22.6425781-16.4345703c-0.9736328-0.3681641-1.6699219,0.8681641-1.2480469,1.6503906
		c3.7011719,6.8574219,9.7080078,12.4287109,16.9628906,15.2275391c-6.8583984,0.2792969-13.6152344,0.1123047-20.2871094-0.4941406
		c-2.9335938-9.2890625-9.59375-16.703125-18.5996094-20.6386719c-0.7929688-0.3466797-1.8466797,0.2509766-1.5566406,1.2099609
		c2.2949219,7.5869141,7.1630859,14.4990234,13.8945312,18.6582031l0.0478516,0.0869141
		c-5.0410156-0.6660156-10.0400391-1.5683594-15.0009766-2.7167969
		c-3.4707031-8.2695312-6.7900391-18.4960938-15.5947266-22.4130859c-0.6904297-0.3076172-1.7929688,0.2402344-1.4492188,1.1269531
		c2.0166016,5.1933594,4.6621094,10.2705078,8.0029297,14.8027344c0.7197266,1.34375,1.4765625,2.6640625,2.2998047,3.9355469
		c0.3720703,0.5732422,0.9306641,0.6816406,1.4121094,0.5273438c0.2851562,0.3046875,0.5576172,0.6201172,0.8505859,0.9160156
		c-4.9111328-1.2822266-9.7919922-2.7910156-14.6494141-4.5234375c-2.1445312-9.6181641-7.1943359-18.0820312-14.3564453-24.8173828
		c-0.6201172-0.5830078-1.7890625-0.1748047-1.7509766,0.7373047c0.3486328,8.3671875,3.6162109,16.0898438,9.7099609,21.671875
		c-3.8876953-1.5449219-7.7636719-3.2265625-11.6318359-5.0439453c0.1796875-0.3505859,0.1923828-0.796875-0.125-1.1777344
		c-6.421875-7.7167969-14.8251953-13.5800781-24.0283203-17.4990234c-0.9042969-0.3847656-2.1738281,0.5136719-1.4873047,1.5175781
		c5.1523438,7.5361328,11.4990234,15.96875,21.2929688,16.7646484c3.7529297,2.3378906,7.6523438,4.4609375,11.6660156,6.3808594
		c-2.9931641-0.703125-6.0244141-1.2353516-9.109375-1.5449219c-4.5214844-0.4541016-10.609375-1.4609375-14.6679688,1.0048828
		c-0.4931641,0.2998047-0.6679688,0.9619141-0.3710938,1.4638672c2.2744141,3.8388672,7.8349609,4.09375,11.9042969,4.4990234
		c6.1308594,0.6103516,12.3515625,0.0332031,18.2216797-1.8310547c0.4091797,0.1289062,0.8193359,0.2441406,1.2285156,0.3789062
		c0.4853516,0.1591797,0.8339844-0.0849609,0.9970703-0.4375c4.6416016,1.8330078,9.4072266,3.3984375,14.2529297,4.7216797
		c-8.9404297-0.4042969-17.6376953,1.5722656-25.7802734,5.6835938c-0.7744141,0.3925781-0.6220703,1.7880859,0.2695312,1.9316406
		c7.6777344,1.2353516,15.4101562,1.1191406,22.9902344-0.71875c2.1982422-0.5332031,10.1533203-1.6494141,9.6933594-5.1425781
		c5.1494141,1.125,10.3701172,1.9648438,15.6162109,2.5410156l-0.0273438,0.0478516
		c-7.4472656,2.5644531-22.625,8.6005859-19.7285156,12.5429688c1.9589844,2.6669922,9.1201172-1.1396484,11.1210938-1.9648438
		c5.6845703-2.34375,11.0869141-5.6357422,15.4082031-10.0390625c5.9023438,0.3828125,11.8105469,0.4082031,17.6689453,0.1132812
		c-7.7666016,2.953125-14.8955078,7.1914062-21.4199219,12.4785156c-0.9580078,0.7773438,0.1552734,1.953125,1.0751953,1.8242188
		c10.4394531-1.4560547,21.9853516-5.9960938,28.8984375-14.3828125c0.4824219-0.0273438,0.9335938-0.3134766,1.0654297-0.7255859
		c3.90625-0.4511719,7.7802734-1.0302734,11.5869141-1.7910156
		C230.3896484,531.6513672,229.9277344,530.0996094,228.8955078,530.2666016z"/>
	<path class="st0" d="M528.2949219,188.8178711c4.1865234,0,7.5800781-3.394043,7.5800781-7.5805664
		s-3.3935547-7.5805664-7.5800781-7.5805664s-7.5810547,3.394043-7.5810547,7.5805664
		S524.1083984,188.8178711,528.2949219,188.8178711z"/>
	<path class="st0" d="M185.7050781,188.8178711c4.1865234,0,7.5810547-3.394043,7.5810547-7.5805664
		s-3.3945312-7.5805664-7.5810547-7.5805664s-7.5800781,3.394043-7.5800781,7.5805664
		S181.5185547,188.8178711,185.7050781,188.8178711z"/>
	<path class="st0" d="M356.9892578,448.4550781c5.1162109,15.3564453,14.5205078,20.2558594,20.5703125,10.8300781
		c-7.7480469,1.4980469-14.8115234-8.1162109-19.140625-15.8564453c-0.5185547-0.9365234-0.9951172-1.8417969-1.4296875-2.6845703
		c-0.4150391,0.8427734-0.890625,1.7480469-1.4091797,2.6542969c-4.3291016,7.7402344-11.3926086,17.3847656-19.1396484,15.8867188
		C342.4892578,468.7109375,351.8935547,463.8115234,356.9892578,448.4550781z"/>
</g>
</svg>


