﻿<?xml version="1.0" encoding="iso-8859-1"?>
<!-- Generator: Adobe Illustrator 24.0.3, SVG Export Plug-In . SVG Version: 6.00 Build 0)  -->
<svg version="1.1"
	 xmlns="http://www.w3.org/2000/svg" xmlns:xlink="http://www.w3.org/1999/xlink" x="0px" y="0px" viewBox="0 0 714 714"
	 style="enable-background:new 0 0 714 714;" xml:space="preserve" width="500" height="500">
<style type="text/css">
	.st0{fill:#131313;}
	.st1{fill:#1D1D1B;}
	.st2{fill:#010101;}
</style>
<g>
	<path d="M67.5703125,391.2158203h-0.859375c-0.9541016,0-1.7578125-0.3330078-2.4570312-1.0195312
		c-0.6943359-0.6806641-1.03125-1.4882812-1.03125-2.46875v-29.0126953h31.1865234v29.0126953
		c0,0.9853516-0.3310547,1.7949219-1.0117188,2.4755859c-0.6816406,0.6816406-1.4912109,1.0126953-2.4765625,1.0126953h-0.859375
		v3.0810547h21.4814453v-3.0810547h-0.859375c-0.9501953,0-1.7431641-0.3310547-2.4248047-1.0126953
		s-1.0126953-1.4912109-1.0126953-2.4755859v-61.0576172c0-0.9501953,0.3310547-1.7436523,1.0126953-2.4257812
		c0.6816406-0.6806641,1.4746094-1.0117188,2.4248047-1.0117188h0.859375v-3.1342773H90.0615234v3.1342773h0.859375
		c0.984375,0,1.7949219,0.3310547,2.4765625,1.0117188c0.6806641,0.6811523,1.0117188,1.4746094,1.0117188,2.4257812v28.9609375
		H63.2226562v-28.9609375c0-0.9472656,0.3378906-1.7387695,1.03125-2.4194336
		c0.7001953-0.6850586,1.5039062-1.0180664,2.4570312-1.0180664h0.859375v-3.1342773H46.0888672v3.1342773h0.859375
		c0.984375,0,1.7939453,0.3305664,2.4746094,1.0107422c0.6816406,0.684082,1.0136719,1.4775391,1.0136719,2.4267578v61.0576172
		c0,0.9833984-0.3310547,1.7929688-1.0126953,2.4755859c-0.6816406,0.6816406-1.4912109,1.0126953-2.4755859,1.0126953h-0.859375
		v3.0810547h21.4814453V391.2158203z"/>
	<path d="M154.1826172,323.2324219c4.2753906,0,8.3457031,2.5532227,12.0986328,7.5883789
		c1.5,2.0224609,2.5732422,3.7890625,3.1953125,5.2587891c0.4423828,0.9526367,1.0527344,1.152832,1.4863281,1.152832
		c0.9511719,0,1.5664062-0.5947266,1.5664062-1.5146484v-15.6196289h-50.8964844v3.1342773h0.8583984
		c0.984375,0,1.7929688,0.3310547,2.4746094,1.0117188c0.6816406,0.6821289,1.0126953,1.4760742,1.0126953,2.4257812v61.0576172
		c0,0.984375-0.3310547,1.7939453-1.0126953,2.4755859s-1.4912109,1.0126953-2.4746094,1.0126953h-0.8583984v3.0810547h50.8964844
		v-15.5664062c0-0.9521484-0.6152344-1.5673828-1.5664062-1.5673828c-0.6416016,0-1.1455078,0.4140625-1.5,1.2333984
		c-0.609375,1.4443359-1.6787109,3.1865234-3.1816406,5.1806641c-3.7519531,5.0683594-7.8232422,7.6386719-12.0986328,7.6386719
		h-15.4160156v-32.4511719h6.9755859c2.4326172,0,4.9238281,2.0214844,7.4013672,6.0039062
		c1.5478516,2.5644531,1.9003906,3.3896484,1.9746094,3.6064453c0.2910156,1.1660156,1.2138672,1.2568359,1.4902344,1.2568359
		c0.9511719,0,1.5664062-0.6152344,1.5664062-1.5664062v-21.7348633c0-0.9199219-0.6152344-1.5146484-1.5664062-1.5146484
		c-0.2763672,0-1.1982422,0.0874023-1.4726562,1.1948242c-0.1015625,0.3046875-0.4941406,1.1855469-1.9863281,3.6572266
		c-2.4814453,3.9902344-4.9736328,6.0136719-7.4072266,6.0136719h-6.9755859v-32.4492188H154.1826172z"/>
	<path d="M221.2861328,391.2158203h-0.859375v3.0810547h20.5195312v-3.0810547h-0.859375
		c-1.8261719,0-3.2089844-0.7626953-4.2265625-2.3300781l-18.9199219-30.3505859
		c6.3779297-0.7133789,11.4316406-3.2270508,15.0341797-7.484375c2.7001953-3.5092773,4.0693359-7.5458984,4.0693359-11.9980469
		c0-4.1806641-1.2929688-8.0063477-3.8535156-11.3857422c-3.9121094-4.4316406-8.8925781-6.9091797-14.8105469-7.3647461
		c-3.0908203-0.1352539-6.3007812-0.2041016-9.5400391-0.2041016h-25.2207031v3.1342773h0.859375
		c0.953125,0,1.7568359,0.3330078,2.4560547,1.0175781c0.6943359,0.6801758,1.03125,1.4716797,1.03125,2.4199219v61.0576172
		c0,0.9824219-0.3369141,1.7900391-1.0302734,2.46875c-0.6992188,0.6865234-1.5029297,1.0195312-2.4570312,1.0195312h-0.859375
		v3.0810547h21.4814453v-3.0810547h-0.859375c-0.9853516,0-1.7949219-0.3310547-2.4765625-1.0126953
		c-0.6806641-0.6806641-1.0117188-1.4902344-1.0117188-2.4755859v-64.4951172h7.8857422
		c2.4179688,0,4.9335938,0.8139648,7.4755859,2.4194336c2.5878906,1.6337891,4.6464844,3.5,6.1142578,5.5400391
		c1.3505859,2.0092773,2.0498047,3.6411133,2.0791016,4.8491211c0.0332031,1.3691406,0.0498047,2.1542969,0.0498047,2.3554688
		c0,5.8291016-2.3056641,10.6191406-6.8525391,14.2373047c-2.6289062,2.090332-5.5439453,3.1499023-8.6650391,3.1499023h-7.6083984
		l21.4697266,34.5922852c0.0585938,0.1025391,0.0898438,0.2001953,0.0898438,0.2822266
		c0,0.0615234-0.0126953,0.1474609-0.1113281,0.3242188C221.5898438,391.1611328,221.4980469,391.2158203,221.2861328,391.2158203z"
		/>
	<path d="M305.265625,393.9882812l0.2578125,0.3085938h2.6767578v-64.8969727c0-1.734375,0.5878906-3.1640625,1.796875-4.3720703
		c1.2070312-1.2080078,2.6357422-1.7954102,4.3701172-1.7954102h0.859375v-3.1342773h-17.1337891v3.1342773h0.859375
		c1.6972656,0,3.1113281,0.5874023,4.3203125,1.7958984c1.2070312,1.2075195,1.7939453,2.6210938,1.7939453,4.3208008v44.074707
		l-44.1220703-53.0161133l-0.2578125-0.3095703h-2.6757812v64.9506836c0,1.7011719-0.5888672,3.1230469-1.7988281,4.3486328
		c-1.2080078,1.2236328-2.6201172,1.8183594-4.3173828,1.8183594h-0.8583984v3.0810547h17.1337891v-3.0810547h-0.859375
		c-1.7324219,0-3.1611328-0.5947266-4.3671875-1.8183594c-1.2109375-1.2255859-1.7998047-2.6474609-1.7998047-4.3486328v-43.9775391
		L305.265625,393.9882812z"/>
	<path d="M372.1191406,391.2158203h-0.859375v3.0810547h21.3300781v-3.0810547h-0.859375
		c-2.1103516,0-3.6708984-1.0869141-4.7695312-3.3232422l-24.3466797-65.5654297l-0.0830078-0.222168l-3.1855469-2.5649414
		l-18.3007812,49.3339844h-0.3632812v0.8144531l-5.6503906,15.3945312c-0.7412109,1.8525391-1.921875,3.3564453-3.5097656,4.4677734
		c-1.5830078,1.1044922-3.3818359,1.6650391-5.3466797,1.6650391h-0.8583984v3.0810547h17.1337891v-3.0810547h-0.859375
		c-1.5498047,0-2.5976562-0.3710938-3.1152344-1.1025391c-0.5830078-0.8242188-0.8779297-1.59375-0.8779297-2.2851562
		c0-0.5712891,0.1181641-1.1845703,0.3515625-1.8203125l5.2490234-14.0517578h24.2304688l6.3017578,16.953125
		c0.1054688,0.3144531,0.1582031,0.5966797,0.1582031,0.8388672c0,0.328125-0.078125,0.5878906-0.2490234,0.8212891
		C373.3359375,391.0048828,372.8378906,391.2158203,372.1191406,391.2158203z M344.3427734,368.8740234l10.9472656-29.527832
		l10.9931641,29.527832H344.3427734z"/>
	<path d="M456.9101562,393.9882812l0.2568359,0.3085938h2.6767578v-64.8969727c0-1.7333984,0.5878906-3.1635742,1.7958984-4.371582
		c1.2080078-1.2084961,2.6376953-1.7958984,4.3720703-1.7958984h0.8583984v-3.1342773h-17.1347656v3.1342773h0.859375
		c1.6992188,0,3.1132812,0.5874023,4.3212891,1.7958984s1.7949219,2.621582,1.7949219,4.3208008v44.074707l-44.3798828-53.3256836
		h-2.6757812v64.9506836c0,1.6982422-0.5888672,3.1210938-1.7998047,4.3486328
		c-1.2089844,1.2236328-2.6210938,1.8183594-4.3173828,1.8183594h-0.859375v3.0810547h17.1347656v-3.0810547h-0.859375
		c-1.7314453,0-3.1601562-0.5947266-4.3681641-1.8183594c-1.2099609-1.2246094-1.7988281-2.6474609-1.7988281-4.3486328v-43.9775391
		L456.9101562,393.9882812z"/>
	<path d="M480.2929688,390.203125c-0.6816406,0.6816406-1.4912109,1.0126953-2.4755859,1.0126953h-0.859375v3.0810547h24.3115234
		c1.6054688,0,3.1748047-0.0517578,4.6640625-0.1533203c5.1035156-0.3759766,10.0380859-1.6796875,14.6728516-3.8779297
		c4.9873047-2.4775391,9.140625-5.9863281,12.3447266-10.4287109c4.9365234-6.8896484,7.4394531-14.9482422,7.4394531-23.9521484
		c0-9.8510742-3.2080078-18.2299805-9.5361328-24.9047852c-4.6806641-4.9189453-10.5371094-8.2319336-17.4082031-9.8476562
		l-0.0351562-0.0078125c-3.5458984-0.6811523-7.7158203-1.0263672-12.3945312-1.0263672h-24.0585938v3.1342773h0.859375
		c0.984375,0,1.7939453,0.3305664,2.4746094,1.0107422c0.6816406,0.684082,1.0136719,1.4775391,1.0136719,2.4267578v61.0576172
		C481.3056641,388.7109375,480.9746094,389.5205078,480.2929688,390.203125z M494.0917969,323.2324219h8.8291016
		c6.5576172,0.1298828,12.0439453,2.6171875,16.3046875,7.3916016c3.6621094,4.1547852,6.1123047,8.8530273,7.28125,13.9580078
		c0.7617188,3.7319336,1.1474609,7.5175781,1.1474609,11.2519531c0,11.5341797-2.9785156,20.9921875-8.8515625,28.1113281
		c-3.3427734,4.0517578-7.7695312,6.4472656-13.1445312,7.1191406c-1.4667969,0.1005859-2.9599609,0.1513672-4.4394531,0.1513672
		h-7.1269531V323.2324219z"/>
	<path d="M583.03125,323.2324219c4.2734375,0,8.34375,2.5532227,12.0966797,7.5883789
		c1.5,2.0224609,2.5732422,3.7890625,3.1953125,5.2583008c0.4423828,0.953125,1.0527344,1.1533203,1.4873047,1.1533203
		c0.9521484,0,1.5673828-0.5947266,1.5673828-1.5146484v-15.6196289h-50.8984375v3.1342773h0.859375
		c0.984375,0,1.7939453,0.3310547,2.4755859,1.0117188c0.6816406,0.6821289,1.0126953,1.4760742,1.0126953,2.4257812v61.0576172
		c0,0.984375-0.3310547,1.7939453-1.0126953,2.4755859s-1.4912109,1.0126953-2.4755859,1.0126953h-0.859375v3.0810547h50.8984375
		v-15.5664062c0-0.9521484-0.6152344-1.5673828-1.5673828-1.5673828c-0.4414062,0-1.0605469,0.2138672-1.5,1.2324219
		c-0.6113281,1.4492188-1.6816406,3.1914062-3.1826172,5.1816406c-3.7519531,5.0683594-7.8222656,7.6386719-12.0966797,7.6386719
		h-15.4169922v-32.4511719h6.9765625c2.4306641,0,4.921875,2.0205078,7.4003906,6.0029297
		c1.5537109,2.5820312,1.9033203,3.3964844,1.9755859,3.6074219c0.2910156,1.1660156,1.2128906,1.2568359,1.4882812,1.2568359
		c0.953125,0,1.5683594-0.6152344,1.5683594-1.5664062v-21.7348633c0-0.9199219-0.6152344-1.5146484-1.5683594-1.5146484
		c-0.2753906,0-1.1962891,0.0874023-1.4707031,1.1933594c-0.1005859,0.3032227-0.4921875,1.1821289-1.9873047,3.6586914
		c-2.4824219,3.9902344-4.9736328,6.0136719-7.40625,6.0136719h-6.9765625v-32.4492188H583.03125z"/>
	<path d="M665.9033203,377.1630859c-0.3769531,0-1.0664062,0.1601562-1.4433594,1.2177734
		c-0.6455078,1.4521484-1.7177734,3.2001953-3.1865234,5.1943359c-3.7880859,5.0703125-7.8769531,7.640625-12.1523438,7.640625
		h-21.7177734l40.6884766-71.1176758h-56.625v15.6196289c0,0.9199219,0.6152344,1.5146484,1.5664062,1.5146484
		c0.4355469,0,1.0478516-0.2036133,1.5-1.1816406c0.6074219-1.4438477,1.6787109-3.203125,3.1826172-5.2285156
		c3.7539062-5.0361328,7.8242188-7.5898438,12.0976562-7.5898438h21.7685547l-40.5244141,70.6904297l-0.2148438,0.3740234
		h56.6269531v-15.5664062C667.4697266,377.7783203,666.8544922,377.1630859,665.9033203,377.1630859z"/>
	<path d="M573.4785156,256.6977539c0.6542969,0.472168,1.3681641,0.769043,2.1376953,1.1235352
		c0.7578125,0.3491211,1.6318359,0.7578125,2.3808594,1.3251953c0.4199219,0.2890625,0.7207031,0.6269531,1.0146484,0.9433594
		c0.2441406,0.3300781,0.4404297,0.6494141,0.5849609,0.9370117l0.0146484,0.0258789
		c0.2744141-0.6347656,0.578125-1.3413086,0.484375-2.0771484c-0.1621094-1.2294922-0.4960938-2.4941406-1.1523438-3.6142578
		c-1.3466797-2.2954102-3.8691406-3.5878906-6.2167969-4.2338867l0.0253906-0.065918
		c2.8066406,0.3266602,5.3388672,2.0385742,7.0898438,4.5249023c0.4277344,0.6274414,0.9902344,1.3779297,1.3222656,2.2670898
		c0.3652344,0.8730469,0.4804688,1.8662109,0.2148438,2.7246094c1.3339844-1.2045898,1.8398438-3.0634766,1.4697266-4.949707
		c-0.3564453-1.8916016-1.6152344-3.6689453-3.1621094-4.7954102c-1.5517578-1.1489258-3.3359375-1.6987305-4.9511719-1.8608398
		c-1.6259766-0.1665039-3.1123047,0.0595703-4.3017578,0.4072266l-0.6816406,0.2070312l0.2431641,0.8110352
		C571.0664062,254.0668945,572.1806641,255.765625,573.4785156,256.6977539z"/>
	<path d="M614.1337891,254.5693359c-1.4814453,0.1254883-2.9658203,0.4692383-4.3779297,1.0478516
		c-1.4521484,0.5844727-2.9960938,1.9301758-4.6962891,2.3720703c3.3857422,0.9487305,5.8974609,0.5009766,8.2490234-0.1635742
		c1.1669922-0.3188477,2.2167969-0.6713867,3.3710938-0.7895508c0.2705078-0.0014648,0.5898438-0.0410156,0.8945312-0.03125
		c0.3183594,0.0341797,0.6328125,0.0673828,0.9355469,0.1000977c0.5898438,0.1640625,1.2783203,0.3325195,1.8378906,0.637207
		l0.7021484,0.3447266c0,0,0.0761719-0.203125,0.1533203-0.40625c0.0683594-0.2133789,0.1367188-0.4277344,0.1367188-0.4277344
		c0.3496094-1.0234375,0.3134766-2.0537109,0.0664062-3.1083984c-0.1640625-0.4926758-0.3925781-0.9853516-0.6630859-1.4648438
		c-0.2753906-0.4770508-0.6542969-0.8632812-1.0419922-1.2680664c-1.6191406-1.5454102-3.8730469-2.1738281-5.8076172-2.1030273
		c-1.9667969,0.0517578-3.6904297,0.7202148-5.0654297,1.6171875c-1.3867188,0.8945312-2.4628906,1.9956055-3.2539062,3.097168
		c-0.8544922,1.1362305-1.4394531,2.0981445-1.9277344,2.7451172l-0.0224609,0.0292969
		c0.8642578-0.2446289,1.7167969-0.3696289,2.4980469-0.7246094c1.3320312-0.6079102,2.7509766-0.9584961,4.1337891-1.2543945
		c1.3994141-0.2910156,2.7988281-0.5556641,4.2304688-0.6181641c1.4199219-0.0634766,2.9003906,0.1054688,4.2441406,0.7592773
		l-0.03125,0.059082C617.1132812,254.5332031,615.6230469,254.4541016,614.1337891,254.5693359z"/>
	<path d="M132.8359375,257.8535156c0.3320312-0.8891602,0.8945312-1.6396484,1.3222656-2.2670898
		c1.7509766-2.4863281,4.2832031-4.1982422,7.0898438-4.5249023l0.0253906,0.065918
		c-2.3476562,0.6459961-4.8701172,1.9384766-6.2167969,4.2338867c-0.65625,1.1201172-0.9902344,2.3847656-1.1523438,3.6142578
		c-0.09375,0.7358398,0.2099609,1.4423828,0.484375,2.0771484l0.0146484-0.0258789
		c0.1445312-0.2875977,0.3408203-0.6069336,0.5849609-0.9370117c0.2939453-0.3164062,0.5947266-0.6542969,1.0146484-0.9433594
		c0.7490234-0.5673828,1.6230469-0.9760742,2.3808594-1.3251953c0.7695312-0.3544922,1.4833984-0.6513672,2.1376953-1.1235352
		c1.2978516-0.9321289,2.4121094-2.6308594,3.4833984-6.300293l0.2431641-0.8110352l-0.6816406-0.2070312
		c-1.1894531-0.3476562-2.6757812-0.5737305-4.3017578-0.4072266c-1.6152344,0.1621094-3.3994141,0.7119141-4.9511719,1.8608398
		c-1.546875,1.1264648-2.8056641,2.9038086-3.1621094,4.7954102c-0.3701172,1.8862305,0.1357422,3.7451172,1.4697266,4.949707
		C132.3554688,259.7197266,132.4707031,258.7265625,132.8359375,257.8535156z"/>
	<path d="M99.5136719,254.2001953c1.4316406,0.0625,2.8310547,0.3271484,4.2304688,0.6181641
		c1.3828125,0.2958984,2.8017578,0.6464844,4.1337891,1.2543945c0.78125,0.3549805,1.6337891,0.4799805,2.4980469,0.7246094
		l-0.0224609-0.0292969c-0.4882812-0.6469727-1.0732422-1.6088867-1.9277344-2.7451172
		c-0.7910156-1.1015625-1.8671875-2.2026367-3.2539062-3.097168c-1.375-0.8969727-3.0986328-1.5654297-5.0654297-1.6171875
		c-1.9345703-0.0708008-4.1884766,0.5576172-5.8076172,2.1030273c-0.3876953,0.4047852-0.7666016,0.7910156-1.0419922,1.2680664
		c-0.2705078,0.4794922-0.4990234,0.972168-0.6630859,1.4648438c-0.2470703,1.0546875-0.2832031,2.0849609,0.0664062,3.1083984
		c0,0,0.0683594,0.2143555,0.1367188,0.4277344c0.0771484,0.203125,0.1533203,0.40625,0.1533203,0.40625l0.7021484-0.3447266
		c0.5595703-0.3046875,1.2480469-0.4731445,1.8378906-0.637207c0.3027344-0.0327148,0.6171875-0.065918,0.9355469-0.1000977
		c0.3046875-0.0097656,0.6240234,0.0297852,0.8945312,0.03125c1.1542969,0.1181641,2.2041016,0.4707031,3.3710938,0.7895508
		c2.3515625,0.6645508,4.8632812,1.1123047,8.2490234,0.1635742c-1.7001953-0.4418945-3.2441406-1.7875977-4.6962891-2.3720703
		c-1.4121094-0.5786133-2.8964844-0.9223633-4.3779297-1.0478516c-1.4892578-0.1152344-2.9794922-0.0361328-4.5654297,0.4492188
		l-0.03125-0.059082C96.6132812,254.3056641,98.09375,254.1367188,99.5136719,254.2001953z"/>
	<path d="M581.1640625,456.1464844c-0.3320312,0.8896484-0.8945312,1.6396484-1.3222656,2.2666016
		c-1.7509766,2.4863281-4.2832031,4.1982422-7.0898438,4.5253906l-0.0253906-0.0664062
		c2.3476562-0.6455078,4.8701172-1.9375,6.2167969-4.2333984c0.65625-1.1201172,0.9902344-2.3847656,1.1523438-3.6142578
		c0.09375-0.7353516-0.2099609-1.4423828-0.484375-2.0771484l-0.0146484,0.0263672
		c-0.1445312,0.2871094-0.3408203,0.6064453-0.5849609,0.9365234c-0.2939453,0.3164062-0.5947266,0.6542969-1.0146484,0.9433594
		c-0.7490234,0.5673828-1.6230469,0.9765625-2.3808594,1.3251953c-0.7695312,0.3544922-1.4833984,0.6513672-2.1376953,1.1230469
		c-1.2978516,0.9326172-2.4121094,2.6308594-3.4833984,6.3007812l-0.2431641,0.8105469l0.6816406,0.2070312
		c1.1894531,0.3476562,2.6757812,0.5742188,4.3017578,0.4072266c1.6152344-0.1611328,3.3994141-0.7119141,4.9511719-1.8603516
		c1.546875-1.1269531,2.8056641-2.9042969,3.1621094-4.7949219c0.3701172-1.8867188-0.1357422-3.7451172-1.4697266-4.9501953
		C581.6445312,454.2802734,581.5292969,455.2734375,581.1640625,456.1464844z"/>
	<path d="M614.4863281,459.7998047c-1.4316406-0.0625-2.8310547-0.3271484-4.2304688-0.6181641
		c-1.3828125-0.2958984-2.8017578-0.6464844-4.1337891-1.2548828c-0.78125-0.3544922-1.6337891-0.4794922-2.4980469-0.7246094
		l0.0224609,0.0292969c0.4882812,0.6474609,1.0732422,1.609375,1.9277344,2.7451172
		c0.7910156,1.1015625,1.8671875,2.203125,3.2539062,3.0976562c1.375,0.8964844,3.0986328,1.5654297,5.0654297,1.6171875
		c1.9345703,0.0703125,4.1884766-0.5576172,5.8076172-2.1025391c0.3876953-0.4052734,0.7666016-0.7919922,1.0419922-1.2685547
		c0.2705078-0.4794922,0.4990234-0.9726562,0.6630859-1.4648438c0.2470703-1.0546875,0.2832031-2.0849609-0.0664062-3.1083984
		c0,0-0.0683594-0.2138672-0.1367188-0.4277344c-0.0771484-0.203125-0.1533203-0.40625-0.1533203-0.40625l-0.7021484,0.3447266
		c-0.5595703,0.3046875-1.2480469,0.4736328-1.8378906,0.6376953c-0.3027344,0.0322266-0.6171875,0.0654297-0.9355469,0.0996094
		c-0.3046875,0.0097656-0.6240234-0.0302734-0.8945312-0.03125c-1.1542969-0.1181641-2.2041016-0.4707031-3.3710938-0.7900391
		c-2.3515625-0.6640625-4.8632812-1.1123047-8.2490234-0.1630859c1.7001953,0.4414062,3.2441406,1.7871094,4.6962891,2.3720703
		c1.4121094,0.578125,2.8964844,0.921875,4.3779297,1.0478516c1.4892578,0.1152344,2.9794922,0.0361328,4.5654297-0.4492188
		l0.03125,0.0585938C617.3867188,459.6943359,615.90625,459.8632812,614.4863281,459.7998047z"/>
	<path d="M140.5214844,457.3017578c-0.6542969-0.4716797-1.3681641-0.7685547-2.1376953-1.1230469
		c-0.7578125-0.3486328-1.6318359-0.7578125-2.3808594-1.3251953c-0.4199219-0.2890625-0.7207031-0.6269531-1.0146484-0.9433594
		c-0.2441406-0.3300781-0.4404297-0.6494141-0.5849609-0.9365234l-0.0146484-0.0263672
		c-0.2744141,0.6347656-0.578125,1.3417969-0.484375,2.0771484c0.1621094,1.2294922,0.4960938,2.4941406,1.1523438,3.6142578
		c1.3466797,2.2958984,3.8691406,3.5878906,6.2167969,4.2333984l-0.0253906,0.0664062
		c-2.8066406-0.3271484-5.3388672-2.0390625-7.0898438-4.5253906c-0.4277344-0.6269531-0.9902344-1.3769531-1.3222656-2.2666016
		c-0.3652344-0.8730469-0.4804688-1.8662109-0.2148438-2.7246094c-1.3339844,1.2050781-1.8398438,3.0634766-1.4697266,4.9501953
		c0.3564453,1.890625,1.6152344,3.6679688,3.1621094,4.7949219c1.5517578,1.1484375,3.3359375,1.6992188,4.9511719,1.8603516
		c1.6259766,0.1669922,3.1123047-0.0595703,4.3017578-0.4072266l0.6816406-0.2070312l-0.2431641-0.8105469
		C142.9335938,459.9326172,141.8193359,458.234375,140.5214844,457.3017578z"/>
	<path d="M99.8662109,459.4306641c1.4814453-0.1259766,2.9658203-0.4697266,4.3779297-1.0478516
		c1.4521484-0.5849609,2.9960938-1.9306641,4.6962891-2.3720703c-3.3857422-0.9492188-5.8974609-0.5009766-8.2490234,0.1630859
		c-1.1669922,0.3193359-2.2167969,0.671875-3.3710938,0.7900391c-0.2705078,0.0009766-0.5898438,0.0410156-0.8945312,0.03125
		c-0.3183594-0.0341797-0.6328125-0.0673828-0.9355469-0.0996094c-0.5898438-0.1640625-1.2783203-0.3330078-1.8378906-0.6376953
		l-0.7021484-0.3447266c0,0-0.0761719,0.203125-0.1533203,0.40625c-0.0683594,0.2138672-0.1367188,0.4277344-0.1367188,0.4277344
		c-0.3496094,1.0234375-0.3134766,2.0537109-0.0664062,3.1083984c0.1640625,0.4921875,0.3925781,0.9853516,0.6630859,1.4648438
		c0.2753906,0.4765625,0.6542969,0.8632812,1.0419922,1.2685547c1.6191406,1.5449219,3.8730469,2.1728516,5.8076172,2.1025391
		c1.9667969-0.0517578,3.6904297-0.7207031,5.0654297-1.6171875c1.3867188-0.8945312,2.4628906-1.9960938,3.2539062-3.0976562
		c0.8544922-1.1357422,1.4394531-2.0976562,1.9277344-2.7451172l0.0224609-0.0292969
		c-0.8642578,0.2451172-1.7167969,0.3701172-2.4980469,0.7246094c-1.3320312,0.6083984-2.7509766,0.9589844-4.1337891,1.2548828
		c-1.3994141,0.2910156-2.7988281,0.5556641-4.2304688,0.6181641c-1.4199219,0.0634766-2.9003906-0.1054688-4.2441406-0.7597656
		l0.03125-0.0585938C96.8867188,459.4667969,98.3769531,459.5458984,99.8662109,459.4306641z"/>
	<path d="M307.4746094,219.1914062c0-1.0722656,3.3232422-5.9150391,13.4453125-5.9150391
		c3.1982422,0.0351562,6.3886719,0.3041992,9.546875,0.8041992c-0.4960938,12.6069336-1.4248047,43.5703125-0.046875,65.2324219
		c0.1386719,2.1879883,4.3300781,1.4038086,4.2597656-0.9814453c-0.3457031-11.7485352,0.8808594-58.0859375,1.0283203-63.4042969
		c3.8964844,0.659668,7.7724609,1.3085938,11.6708984,1.5366211c-2.7763672,7.2128906-4.8320312,17.4477539-4.8320312,29.1977539
		c0,3.8671875,0.2109375,11.7524414,2.9609375,19.09375c0.9511719,2.543457,4.4111328,1.6347656,4.5273438-0.3466797
		l0.0019531-0.0087891c0.5859375-4.9897461,6.1748047-23.9013672,9.8603516-28.5415039
		c0.9013672-1.1352539,0.6044922-1.2817383,0.6044922-0.5566406c0,0.7246094-0.6044922,8.8886719-0.6044922,17.8852539
		c0,10.0292969,1.9931641,16.7368164,7.3720703,16.7368164c4.0751953,0,6.8828125-5.7143555,9.5087891-13.6464844
		c2.0224609,6.5717773,6.7158203,9.7954102,11.2939453,9.7954102c10.3017578,0,16.8886719-19.9106445,17.0097656-20.3325195
		c0.4082031-1.4125977-1.5800781-1.8793945-2.1757812-0.2421875c-2.7636719,7.5981445-9.5136719,18.2929688-14.4863281,18.2929688
		c-3.9433594,0-5.6347656-6.8730469-5.6347656-12.0688477c0-0.4545898,0.0087891-0.8999023,0.0214844-1.340332
		c6.3720703,1.3491211,9.0195312-7.8461914,9.0195312-12.3310547c0-4.1386719-2.0917969-6.8125-5.9589844-6.8125
		c-7.3417969,0-10.1220703,10.9365234-10.1220703,17.6132812c0,0.8989258,0.0498047,1.7490234,0.1230469,2.5761719
		c-3.3408203,9.7412109-7.3974609,15.6430664-8.0703125,15.6430664c-0.5283203,0-1.6162109-3.9121094-1.6162109-10.3173828
		c0-7.9804688,0.5371094-11.484375,0.5371094-16.2583008c0-8.9121094-2.6445312-9.8007812-5.3105469-9.8007812
		c-4.3613281,0-10.7910156,17.1132812-12.2822266,26.4277344c-0.1699219-2.4746094-0.2958984-5.8447266-0.2958984-10.4868164
		c0-1.4316406,0.0224609-2.8188477,0.0673828-4.1625977c5.2519531-4.6679688,12.6826172-18.0205078,12.6826172-29.6806641
		c0-1.465332,0.3027344-7.3857422-5.390625-7.3857422c-2.4443359,0-5.2705078,3.1147461-7.7158203,8.4506836
		c-9.9931641-0.1831055-19.4335938-3.3994141-27.9296875-3.3994141c-9.2705078,0-14.7646484,4.5800781-14.7646484,7.8085938
		C305.7792969,220.2905273,307.4746094,221.2758789,307.4746094,219.1914062z M387.6191406,234.4555664
		c0.3789062,0,1.2617188,1.5561523,1.2617188,4.331543c0,2.4355469-1.3369141,9.8681641-5.7324219,9.581543
		c-0.0957031,0.0161133-0.1835938,0.0639648-0.2480469,0.1362305
		C383.5214844,239.7373047,386.5371094,234.4555664,387.6191406,234.4555664z M357.5546875,208.1777344
		c0.2802734,0,0.6777344,0.8222656,0.875,2.4145508c-0.1259766-0.0380859-0.2548828-0.0639648-0.3886719-0.0639648
		c-0.6347656,0-1.15625,0.8457031-0.3398438,1.5634766c-0.0644531,0.1235352-0.9677734,0.8476562-3.3222656,1.3339844
		C355.9335938,209.847168,357.2792969,208.1777344,357.5546875,208.1777344z M353.2011719,216.4306641
		c1.8896484-0.1855469,4.0302734-0.6572266,5.2578125-1.8237305c-0.6152344,7.5136719-4.5957031,18.5751953-9.3769531,23.9448242
		C349.7167969,228.6269531,351.4570312,221.3632812,353.2011719,216.4306641z"/>
	<path d="M66.1552734,308.5576172c0-7.2006836,5.0800781-13.206543,11.8417969-14.6552734
		c0.1767578,2.6010742,2.3212891,4.6625977,4.9667969,4.6625977c2.7617188,0,5.0009766-2.2387695,5.0009766-5v1.0610352h115.9648438
		c0.5478516,0.4399414,1.3095703,0.4399414,1.8574219,0h146.3300781c0.4882812,2.2504883,2.4863281,3.9389648,4.8828125,3.9389648
		s4.3945312-1.6884766,4.8828125-3.9389648H364.625h143.5878906c0.2734375,0.2197266,0.5957031,0.3515625,0.9287109,0.3515625
		s0.6552734-0.1318359,0.9287109-0.3515625h116.0830078c0.4873047,2.2504883,2.4853516,3.9389648,4.8828125,3.9389648
		c2.6455078,0,4.7900391-2.0615234,4.9667969-4.6625977c6.7617188,1.4487305,11.8417969,7.4545898,11.8417969,14.6552734
		c0-4.4868164,1.96875-8.512207,5.0888672-11.2592773c2.2832031-2.0107422,2.2832031-5.4580078,0-7.4682617
		c-3.1201172-2.7475586-5.0888672-6.7724609-5.0888672-11.2597656c0,7.2006836-5.0791016,13.206543-11.8417969,14.6552734
		c-0.1767578-2.6010742-2.3212891-4.6625977-4.9667969-4.6625977c-2.3974609,0-4.3955078,1.6884766-4.8828125,3.9389648h-62.4287109
		c0.5332031-0.1992188,1.0683594-0.4057617,1.6025391-0.6254883c0.921875-0.378418,1.8066406-0.7963867,2.7294922-1.2177734
		c0.9179688-0.4448242,1.8525391-0.9350586,2.7910156-1.4262695c1.9082031-0.9106445,3.7294922-2.2368164,5.6132812-3.5024414
		c0.9257812-0.6621094,1.7744141-1.4575195,2.6699219-2.2041016l1.3271484-1.1542969
		c0.4384766-0.3911133,0.8154297-0.8491211,1.2246094-1.2753906c0.7988281-0.8774414,1.6005859-1.7602539,2.4072266-2.6469727
		c0.7080078-0.9316406,1.390625-1.8852539,2.0830078-2.8388672c1.453125-1.918457,2.5224609-3.8291016,3.7460938-5.7646484
		l1.4248047-2.3476562c5.6738281-4.8916016,12.7998047-8.734375,18.6064453-5.1889648
		c5.1005859,3.1137695,4.9404297,8.5756836,0.3740234,12.1943359c-1.7197266,1.3598633-4.0195312,2.6665039-6.3066406,2.3041992
		c-4.4248047-0.7026367-5.0585938-7.144043,0.265625-5.9233398c0.5742188,0.1308594,1.2441406-0.5405273,0.7216797-1.0571289
		c-2.6269531-2.5942383-5.9648438-0.6083984-6.734375,2.5986328c-0.765625,3.199707,1.8779297,5.7949219,4.7490234,6.5639648
		c5.8046875,1.5551758,13.2216797-4.8725586,13.0537109-10.7539062c-0.2099609-7.3574219-9.0908203-10.1010742-15.0869141-8.0756836
		c-2.7988281,0.9472656-5.3671875,2.4282227-7.7236328,4.2358398l0.0361328-0.0556641
		c0.5644531-0.8574219,1.1289062-1.7124023,1.6914062-2.5649414c0.5371094-0.8691406,1.2382812-1.6757812,1.8623047-2.5151367
		c2.6074219-3.3339844,5.2548828-6.5229492,8.0263672-9.3173828c2.7617188-2.7954102,5.6269531-5.2373047,8.5703125-7.0561523
		c2.9375-1.8217773,5.9853516-2.9819336,8.8984375-3.2705078c0,0,0.2050781-0.0244141,0.5087891-0.0620117
		c0.3076172-0.0610352,0.7099609-0.0395508,1.1230469-0.0229492c0.8291016,0.0273438,1.6591797,0.0532227,1.6591797,0.0532227
		s-0.6738281-0.2807617-1.3457031-0.5639648c-0.3486328-0.1401367-0.6972656-0.284668-0.9609375-0.3911133
		c-0.2705078-0.065918-0.453125-0.1123047-0.453125-0.1123047c-3.3232422-0.984375-7.1826172-0.715332-10.7470703,0.3564453
		c-3.5908203,1.0678711-6.9570312,2.8535156-10.0400391,4.9628906c-3.0859375,2.1147461-5.90625,4.5678711-8.5029297,7.1743164
		c-1.2998047,1.3134766-2.5322266,2.6342773-3.7431641,4.034668c-0.2998047,0.3520508-0.6083984,0.6918945-0.8994141,1.0561523
		l-0.84375,1.1425781l-1.6601562,2.2954102c-2.0927734,3.0605469-3.8105469,6.0737305-5.484375,8.8896484
		c-0.8291016,1.4545898-1.7138672,2.6694336-2.5390625,4.0151367c-0.2119141,0.324707-0.4082031,0.6674805-0.6289062,0.9799805
		l-0.6953125,0.8862305l-0.0673828,0.0878906c0.4042969-1.6987305,0.6181641-3.4277344,0.6181641-5.121582
		c0.0009766-7.2480469-5.984375-13.487793-13.5273438-12.4868164c-5.8154297,0.7724609-11.9179688,9.1679688-7.2167969,14.5366211
		c3.3505859,3.8271484,11.7587891,1.9438477,11.0410156-3.9160156c-0.1201172-1.0068359-1.6884766-1.1352539-1.9716797-0.1601562
		c-0.6425781,2.2265625-2.3408203,4.1728516-4.9150391,3.9956055c-3.1611328-0.21875-4.1064453-3.8056641-3.1894531-6.4306641
		c2.0615234-5.9135742,8.6220703-7.8637695,13.8603516-4.2485352c5.296875,3.6533203,5.7080078,10.2070312,3.5898438,16.0400391
		c-0.3320312,0.4013672-0.6826172,0.7827148-1.0371094,1.1572266c-0.5039062,0.543457-1,1.0791016-1.4960938,1.6108398
		c-0.9882812,1.0737305-2.140625,1.9545898-3.171875,2.9360352c-2.2011719,1.8212891-4.4609375,3.4926758-6.6542969,5.0444336
		c-1.7773438,1.246582-3.5097656,2.2705078-5.1757812,3.1235352l-65.9570312-65.9575195
		c0.1796875-0.2905273,0.3427734-0.6113281,0.4658203-1.0004883c1.0087891-3.190918-2.5712891-5.6674805-4.9013672-6.9946289
		c-1.7617188-1.0039062-3.6474609-1.6708984-5.59375-2.0332031l-4.9804688-4.9814453
		c2.2236328,0.3574219,4.8183594,0.2695312,5.8642578-1.7333984c3.0683594-5.8779297-10.6367188-7.5727539-15.1630859-7.5649414
		l-7.1396484-7.1401367c-0.3134766-0.3989258-0.6201172-0.8032227-0.9365234-1.2006836
		c2.3378906,1.1586914,4.8564453,1.9912109,7.3339844,2.0820312c2.1582031,0.0786133,7.8222656-0.2661133,7.2441406-3.6508789
		c-0.4892578-2.862793-5.0664062-3.7836914-7.3447266-4.2392578c-3.7626953-0.7524414-7.5927734-0.465332-11.2480469,0.6469727
		c-0.0927734-0.28125-0.3730469-0.4926758-0.6835938-0.5585938c-1.421875-1.6816406-2.8730469-3.3364258-4.3398438-4.9804688
		c1.2587891,0.331543,2.5322266,0.546875,3.7734375,0.6079102c2.4423828,0.1225586,8.0410156-0.3398438,9.1171875-3.1650391
		c1.2216797-3.2041016-4.2421875-4.6450195-6.3369141-4.9931641c-3.9091797-0.6494141-7.9707031,0.2329102-11.2441406,2.4492188
		c-2.4960938-2.6425781-5.0683594-5.2109375-7.6777344-7.7392578c1.6962891,0.5092773,3.4755859,0.7592773,5.2392578,0.7353516
		c2.2402344-0.0322266,7.1689453-0.4130859,7.7861328-3.2885742c0.6484375-3.0229492-4.1191406-4.0014648-6.1875-4.2602539
		c-3.8085938-0.4780273-7.7363281,0.5014648-10.7910156,2.8359375l-0.1123047,0.1279297
		c-2.8525391-2.6416016-5.7802734-5.1953125-8.75-7.6943359c1.6835938,0.21875,3.4072266,0.1333008,5.1298828-0.2651367
		c1.6699219-0.3881836,6.3056641-1.7709961,6.4199219-4.0688477c0.125-2.4951172-4.3916016-3.2387695-6.0820312-3.331543
		c-3.8496094-0.2119141-7.3642578,1.4384766-10.6308594,3.2851562l-0.0947266,0.0820312
		c-0.2373047-0.1879883-0.4814453-0.3647461-0.7197266-0.5517578l-7.3955078-7.3959961
		c1.6201172,0.0136719,3.2431641-0.1943359,4.7666016-0.6210938c2.2128906-0.6201172,5.6123047-2.206543,4.4716797-5.1225586
		c-1.0244141-2.6162109-4.5292969-3.159668-6.9033203-2.6108398c-2.6152344,0.6054688-4.6035156,2.3881836-6.2255859,4.4638672
		l-0.8759766-0.8759766c-0.5859375-0.5859375-1.5351562-0.5859375-2.1210938,0l-1.1484375,1.1484375
		c-2.3847656-1.1855469-2.9121094-0.4272461-1.3398438,1.3408203l-21.03125,21.0302734l-0.1425781,0.2148438l-23.234375-23.234375
		c-0.5859375-0.5859375-1.5351562-0.5859375-2.1210938,0l-23.234375,23.234375l-0.1425781-0.2148438l-21.0302734-21.0302734
		c1.5712891-1.7680664,1.0439453-2.5263672-1.3408203-1.3408203l-1.1484375-1.1484375
		c-0.5859375-0.5859375-1.5351562-0.5859375-2.1210938,0l-0.8759766,0.8759766
		c-1.6220703-2.0756836-3.6103516-3.8583984-6.2255859-4.4638672c-2.375-0.5488281-5.8798828-0.0053711-6.9033203,2.6108398
		c-1.140625,2.9160156,2.2587891,4.5024414,4.4716797,5.1225586c1.5234375,0.4267578,3.1464844,0.6347656,4.7666016,0.6210938
		l-7.3964844,7.3964844c-0.2373047,0.1870117-0.4814453,0.3632812-0.71875,0.5512695l-0.0947266-0.0820312
		c-3.2666016-1.8466797-6.7822266-3.4970703-10.6308594-3.2851562c-1.6904297,0.0927734-6.2070312,0.8364258-6.0830078,3.331543
		c0.1152344,2.2978516,4.7509766,3.6806641,6.4208984,4.0688477c1.7216797,0.3984375,3.4462891,0.4838867,5.1298828,0.2651367
		c-2.9707031,2.4990234-5.8974609,5.0527344-8.75,7.6943359l-0.1132812-0.1279297
		c-3.0537109-2.3344727-6.9814453-3.3139648-10.7900391-2.8359375c-2.0683594,0.2587891-6.8359375,1.2373047-6.1875,4.2602539
		c0.6171875,2.8754883,5.5458984,3.2563477,7.7861328,3.2885742c1.7636719,0.0239258,3.5429688-0.2260742,5.2392578-0.7353516
		c-2.609375,2.5283203-5.1816406,5.0966797-7.6777344,7.7392578c-3.2734375-2.2163086-7.3349609-3.0986328-11.2441406-2.4492188
		c-2.0947266,0.3481445-7.5585938,1.7890625-6.3369141,4.9931641c1.0761719,2.8251953,6.6738281,3.2875977,9.1171875,3.1650391
		c1.2412109-0.0610352,2.5146484-0.2763672,3.7734375-0.6079102c-1.4667969,1.644043-2.9179688,3.2988281-4.3398438,4.9804688
		c-0.3105469,0.065918-0.5908203,0.2773438-0.6835938,0.5585938c-3.65625-1.1123047-7.4853516-1.3994141-11.2480469-0.6469727
		c-2.2783203,0.4555664-6.8554688,1.3764648-7.3447266,4.2392578c-0.578125,3.3847656,5.0859375,3.7294922,7.2441406,3.6508789
		c2.4765625-0.0908203,4.9960938-0.9233398,7.3330078-2.0820312c-0.3154297,0.3974609-0.6220703,0.8022461-0.9355469,1.2011719
		l-7.1396484,7.1396484c-4.5253906-0.0078125-18.2314453,1.6870117-15.1630859,7.5649414
		c1.0458984,2.0029297,3.640625,2.0908203,5.8642578,1.7333984l-4.9804688,4.9814453
		c-1.9462891,0.3623047-3.8320312,1.0292969-5.59375,2.0332031c-2.3300781,1.3271484-5.9101562,3.8037109-4.9013672,6.9946289
		c0.1230469,0.3891602,0.2861328,0.7099609,0.4658203,1.0004883L156.21875,290.4790039
		c-1.6660156-0.8530273-3.3984375-1.8769531-5.1757812-3.1235352c-2.1933594-1.5517578-4.453125-3.2231445-6.6542969-5.0444336
		c-1.03125-0.9814453-2.1835938-1.8623047-3.171875-2.9360352c-0.4960938-0.5317383-0.9921875-1.0673828-1.4960938-1.6108398
		c-0.3544922-0.3745117-0.7050781-0.7558594-1.0371094-1.1572266c-2.1181641-5.8330078-1.7070312-12.3867188,3.5898438-16.0400391
		c5.2382812-3.6152344,11.7988281-1.6650391,13.8603516,4.2485352c0.9169922,2.625-0.0283203,6.2119141-3.1894531,6.4306641
		c-2.5742188,0.1772461-4.2724609-1.769043-4.9150391-3.9956055c-0.2832031-0.9750977-1.8515625-0.8466797-1.9716797,0.1601562
		c-0.7177734,5.8598633,7.6904297,7.7431641,11.0410156,3.9160156c4.7011719-5.3686523-1.4013672-13.7641602-7.2167969-14.5366211
		c-7.5429688-1.0009766-13.5283203,5.2387695-13.5273438,12.4868164c0,1.6938477,0.2138672,3.4228516,0.6181641,5.121582
		l-0.0673828-0.0878906l-0.6953125-0.8862305c-0.2207031-0.3125-0.4169922-0.6552734-0.6289062-0.9799805
		c-0.8251953-1.3457031-1.7099609-2.5605469-2.5390625-4.0151367c-1.6738281-2.815918-3.3916016-5.8291016-5.484375-8.8896484
		l-1.6601562-2.2954102l-0.84375-1.1425781c-0.2910156-0.3642578-0.5996094-0.7041016-0.8994141-1.0561523
		c-1.2109375-1.4003906-2.4433594-2.7211914-3.7431641-4.034668c-2.5966797-2.6064453-5.4169922-5.0595703-8.5029297-7.1743164
		c-3.0830078-2.109375-6.4492188-3.8950195-10.0400391-4.9628906c-3.5644531-1.0717773-7.4238281-1.3408203-10.7470703-0.3564453
		c0,0-0.1826172,0.0463867-0.453125,0.1123047c-0.2636719,0.1064453-0.6123047,0.2509766-0.9609375,0.3911133
		c-0.671875,0.2832031-1.3457031,0.5639648-1.3457031,0.5639648s0.8300781-0.0258789,1.6591797-0.0532227
		c0.4130859-0.0166016,0.8154297-0.0380859,1.1230469,0.0229492c0.3037109,0.0375977,0.5087891,0.0620117,0.5087891,0.0620117
		c2.9130859,0.2885742,5.9609375,1.4487305,8.8984375,3.2705078c2.9433594,1.8188477,5.8085938,4.2607422,8.5703125,7.0561523
		c2.7714844,2.7944336,5.4189453,5.9833984,8.0263672,9.3173828c0.6240234,0.8393555,1.3251953,1.6459961,1.8623047,2.5151367
		c0.5625,0.8525391,1.1269531,1.7075195,1.6914062,2.5649414l0.0361328,0.0556641
		c-2.3564453-1.8076172-4.9248047-3.2885742-7.7236328-4.2358398c-5.9960938-2.0253906-14.8769531,0.7182617-15.0869141,8.0756836
		c-0.1679688,5.8813477,7.2490234,12.309082,13.0537109,10.7539062c2.8710938-0.769043,5.5146484-3.3642578,4.7490234-6.5639648
		c-0.7695312-3.2070312-4.1074219-5.1928711-6.734375-2.5986328c-0.5224609,0.5166016,0.1474609,1.1879883,0.7216797,1.0571289
		c5.3242188-1.2207031,4.6904297,5.2207031,0.265625,5.9233398c-2.2871094,0.3623047-4.5869141-0.9443359-6.3066406-2.3041992
		c-4.5664062-3.6186523-4.7265625-9.0805664,0.3740234-12.1943359c5.8066406-3.5454102,12.9326172,0.2973633,18.6064453,5.1889648
		l1.4248047,2.3476562c1.2236328,1.9355469,2.2929688,3.8461914,3.7460938,5.7646484
		c0.6923828,0.9536133,1.375,1.9072266,2.0830078,2.8388672c0.8066406,0.8867188,1.6083984,1.7695312,2.4072266,2.6469727
		c0.4091797,0.4262695,0.7861328,0.8842773,1.2246094,1.2753906l1.3271484,1.1542969
		c0.8955078,0.746582,1.7441406,1.5419922,2.6699219,2.2041016c1.8837891,1.265625,3.7050781,2.5917969,5.6132812,3.5024414
		c0.9384766,0.4912109,1.8730469,0.9814453,2.7910156,1.4262695c0.9228516,0.4213867,1.8076172,0.8393555,2.7294922,1.2177734
		c0.5341797,0.2197266,1.0693359,0.4262695,1.6025391,0.6254883H87.9648438v1.0610352c0-2.7617188-2.2392578-5-5.0009766-5
		c-2.6455078,0-4.7900391,2.0615234-4.9667969,4.6625977c-6.7626953-1.4487305-11.8417969-7.4545898-11.8417969-14.6552734
		c0,4.4873047-1.96875,8.512207-5.0888672,11.2597656c-2.2832031,2.0102539-2.2832031,5.4575195,0,7.4682617
		C64.1865234,300.0454102,66.1552734,304.0708008,66.1552734,308.5576172z M477.2548828,214.1948242
		c-0.4013672,0.019043-0.8037109,0.0415039-1.2060547,0.0834961c-0.2636719,0.0273438-0.4433594,0.1591797-0.5527344,0.3305664
		c-1.2763672-2.0600586-2.5996094-4.0942383-3.9433594-6.1162109L477.2548828,214.1948242z M383.5585938,165.4160156
		l21.1298828-21.1298828c0.3105469,0.2426758,0.6435547,0.4921875,1.0019531,0.7485352
		c-1.8134766,2.6606445-2.9033203,5.7290039-3.0742188,8.9824219c-0.09375,1.8085938-0.2060547,7.4501953,2.7119141,7.5415039
		c2.9453125,0.0922852,3.9833984-5.8359375,4.1933594-7.8422852c0.2158203-2.0600586,0.0820312-4.222168-0.4794922-6.2460938
		c2.0927734,1.546875,4.1572266,3.121582,6.203125,4.7143555l2.8427734,2.8427734
		c-1.3789062,3.7480469-1.6503906,7.8969727-0.8642578,11.8095703c0.3095703,1.5449219,1.0371094,6.2094727,3.5966797,5.4135742
		c2.359375-0.7329102,2.640625-5.9936523,2.6933594-7.8701172c0.0410156-1.4482422-0.1083984-2.9155273-0.4199219-4.347168
		l7.9511719,7.9511719c-1.4335938,2.8789062-2.5253906,6.3730469-2.5117188,9.3515625
		c0.0097656,2.1513672,1.5644531,4.6064453,3.9375,3.152832c2.3720703-1.4536133,3.59375-4.2832031,3.8085938-7.2700195
		l5.0878906,5.0878906c-1.6621094,3.1049805-2.7353516,6.6396484-3.1738281,10.0219727
		c-0.2861328,2.2006836-0.1826172,7.4951172,3.3027344,7.1079102c3.0693359-0.3398438,5.2285156-5.5673828,5.8388672-8.0717773
		c0.2041016-0.840332,0.3388672-1.7529297,0.3984375-2.6914062l4.3232422,4.3227539
		c-1.9433594,3.0517578-3.3652344,6.6166992-4.0117188,10.0458984c-0.4316406,2.2871094,0.1679688,5.7382812,3.1318359,5.840332
		c3.2548828,0.1123047,5.0117188-4.7314453,5.5751953-7.2607422c0.2636719-1.1821289,0.3710938-2.3916016,0.3359375-3.5942383
		l4.7382812,4.7387695c0.46875,0.5991211,0.9443359,1.1918945,1.4072266,1.796875
		c-2.8222656,3.3041992-4.6484375,7.6616211-5.28125,11.9462891c-0.3369141,2.2871094-0.4824219,7.6191406,2.7294922,8.152832
		c3.0371094,0.5043945,5.5146484-4.2348633,6.2636719-6.4960938c0.8183594-2.4731445,0.9248047-5.1445312,0.6318359-7.7719727
		c1.9355469,2.6699219,3.8388672,5.3691406,5.6894531,8.1196289c-0.1240234,0.078125-0.2197266,0.1992188-0.2421875,0.3696289
		c-0.0390625,0.296875-0.0605469,0.5961914-0.0947266,0.894043c-2.6357422,3.2958984-4.5996094,7.2753906-5.0859375,11.4941406
		c-0.2958984,2.5620117,0.3466797,7.6494141,3.8886719,7.753418c2.9453125,0.0874023,4.6279297-4.8496094,5.1308594-7.0766602
		c0.5361328-2.3720703,0.6289062-5.0673828,0.2294922-7.6313477c1.5683594,2.4614258,3.1064453,4.9526367,4.6083984,7.4765625
		c-0.1484375,0.0893555-0.2646484,0.2441406-0.2695312,0.4658203c-0.1210938,5.0571289-2.2734375,11.4985352,1.3222656,15.9165039
		c1.921875,2.3603516,5.6621094,3.5332031,8.2998047,1.6318359c2.7539062-1.9863281,2.4638672-5.9716797,1.3671875-8.7724609
		c-1.7900391-4.5639648-5.5136719-8.1679688-9.7490234-10.4731445c-0.0917969-0.0498047-0.1777344-0.0678711-0.2636719-0.0810547
		c-0.8994141-1.6699219-1.8525391-3.3149414-2.7958984-4.9648438c2.9443359,2.2988281,6.71875,4.5317383,9.4482422,4.484375
		l65.7929688,65.793457c-0.5361328,0.2148438-1.0634766,0.409668-1.5869141,0.5493164
		c-0.1787109,0.0546875-0.3447266,0.1054688-0.5185547,0.1586914h-42.4892578l-0.0566406-0.0849609L383.34375,165.5585938
		L383.5585938,165.4160156z M357,143.4580078l149.0449219,149.0439453H364.625h-2.7421875
		c-0.4882812-2.2504883-2.4863281-3.9389648-4.8828125-3.9389648s-4.3945312,1.6884766-4.8828125,3.9389648H207.9550781
		L357,143.4580078z M242.4472656,208.4921875c-1.34375,2.0224609-2.6669922,4.0561523-3.9433594,6.1166992
		c-0.1103516-0.1713867-0.2890625-0.3032227-0.5527344-0.3305664c-0.4023438-0.0419922-0.8046875-0.0644531-1.2060547-0.0834961
		L242.4472656,208.4921875z M224.9394531,226.0004883c2.7294922,0.0473633,6.5039062-2.1855469,9.4482422-4.484375
		c-0.9433594,1.6499023-1.8964844,3.2949219-2.7958984,4.9648438c-0.0859375,0.0131836-0.1728516,0.03125-0.2636719,0.0810547
		c-4.2353516,2.3051758-7.9599609,5.9091797-9.7490234,10.4731445c-1.0976562,2.8007812-1.3867188,6.7861328,1.3662109,8.7724609
		c2.6386719,1.9013672,6.3789062,0.7285156,8.3007812-1.6318359c3.5957031-4.4179688,1.4433594-10.859375,1.3222656-15.9165039
		c-0.0048828-0.2216797-0.1210938-0.3764648-0.2695312-0.4658203c1.5019531-2.5239258,3.0400391-5.0151367,4.6083984-7.4765625
		c-0.3994141,2.5639648-0.3066406,5.2592773,0.2294922,7.6313477c0.5029297,2.2270508,2.1855469,7.1640625,5.1298828,7.0766602
		c3.5429688-0.1040039,4.1855469-5.1914062,3.8896484-7.753418c-0.4863281-4.21875-2.4501953-8.1982422-5.0859375-11.4941406
		c-0.0341797-0.2978516-0.0556641-0.597168-0.0947266-0.894043c-0.0224609-0.1704102-0.1181641-0.2915039-0.2421875-0.3696289
		c1.8505859-2.7504883,3.7539062-5.449707,5.6894531-8.1196289c-0.2939453,2.6274414-0.1865234,5.2988281,0.6318359,7.7719727
		c0.7490234,2.2612305,3.2265625,7.0004883,6.2636719,6.4960938c3.2119141-0.5336914,3.0664062-5.8657227,2.7294922-8.152832
		c-0.6337891-4.284668-2.4589844-8.6420898-5.28125-11.9462891c0.4638672-0.6049805,0.9384766-1.1977539,1.4072266-1.7973633
		l4.7382812-4.7382812c-0.0351562,1.203125,0.0722656,2.4121094,0.3359375,3.5942383
		c0.5634766,2.5292969,2.3203125,7.3730469,5.5742188,7.2607422c2.9648438-0.1020508,3.5644531-3.5532227,3.1328125-5.840332
		c-0.6474609-3.4291992-2.0683594-6.9941406-4.0117188-10.0458984l4.3232422-4.3227539
		c0.0595703,0.9384766,0.1943359,1.8510742,0.3984375,2.6914062c0.609375,2.5043945,2.7695312,7.7319336,5.8388672,8.0717773
		c3.4853516,0.387207,3.5888672-4.9072266,3.3027344-7.1079102c-0.4384766-3.3823242-1.5117188-6.9169922-3.1738281-10.0219727
		l5.0878906-5.0878906c0.2148438,2.9868164,1.4365234,5.8164062,3.8085938,7.2700195
		c2.3730469,1.4536133,3.9277344-1.0014648,3.9375-3.152832c0.0136719-2.9785156-1.078125-6.4726562-2.5117188-9.3515625
		l7.9511719-7.9511719c-0.3115234,1.4316406-0.4599609,2.8989258-0.4199219,4.347168
		c0.0527344,1.8764648,0.3339844,7.137207,2.6933594,7.8701172c2.5595703,0.7958984,3.2871094-3.8686523,3.5966797-5.4135742
		c0.7861328-3.9125977,0.5146484-8.0615234-0.8642578-11.8100586l2.8427734-2.8422852
		c2.0458984-1.5927734,4.1103516-3.1679688,6.203125-4.7143555c-0.5615234,2.0239258-0.6953125,4.1860352-0.4794922,6.2460938
		c0.2099609,2.0063477,1.2480469,7.9345703,4.1933594,7.8422852c2.9179688-0.0913086,2.8056641-5.7329102,2.7119141-7.5415039
		c-0.1708984-3.253418-1.2607422-6.3217773-3.0742188-8.9824219c0.3583984-0.2563477,0.6914062-0.5058594,1.0019531-0.7485352
		l21.1298828,21.1298828l0.2148438,0.1425781L203.7978516,292.4169922l-0.0566406,0.0849609h-42.4892578
		c-0.1738281-0.0532227-0.3398438-0.1040039-0.5185547-0.1586914c-0.5234375-0.1396484-1.0507812-0.3344727-1.5869141-0.5493164
		L224.9394531,226.0004883z"/>
	<path d="M312.0566406,458.1074219c-0.3027344-0.0830078-1.59375-0.1259766-3.2060547-0.1386719v-0.4179688
		c0-6.7529297-0.1191406-12.6982422-0.8251953-19.6230469c-0.1318359-1.2832031-4.4902344-2.4248047-4.3828125-0.9648438
		c0.3554688,4.8652344,0.6132812,13.609375,0.6914062,21.0449219c-1.3388672,0.03125-2.5126953,0.0800781-3.1738281,0.1425781
		c-0.9482422,0.0888672-0.7011719,1.6367188-0.1210938,1.6279297c0.9375-0.0126953,2.0986328-0.0449219,3.3095703-0.0810547
		c0.0068359,0.9257812,0.0097656,1.8232422,0.0097656,2.6816406c0,20.2832031-8.3740234,25.7685547-12.4355469,25.7685547
		c-3.1259766,0-8.8642578-4.2890625-8.8642578-14.3037109c0-6.4863281,3.390625-11.7519531,6.9150391-11.7519531
		c1.9492188,0,3.2626953,3.6064453,3.6523438,3.8525391c0.4892578,0.3085938,1.0527344,0.0244141,0.9443359-0.5644531
		c-0.1904297-1.0478516-1.9042969-4.5097656-4.9101562-4.5097656c-5.5117188,0-9.4648438,6.3134766-9.4648438,14.3154297
		c0,8.0986328,5.4863281,14.7705078,11.4765625,14.7705078c14.3320312,0,16.9472656-16.7470703,17.1640625-30.3896484
		c0.9726562-0.0478516,1.9472656-0.0449219,2.9199219,0.0117188
		C312.8164062,459.7578125,312.6484375,458.2705078,312.0566406,458.1074219z"/>
	<path d="M289.8222656,448.1835938c0.5205078,0.3056641,1.1318359-0.3691406,0.5566406-0.8808594
		c-1.5810547-1.4072266-2.2275391-2.8203125-2.2275391-4.0302734c0-4.9179688,5.3720703-7.3984375,12.5058594-7.3984375
		c7.8173828,0,14.1611328,2.15625,23.0195312,2.15625c3.6484375,0,4.3193359-0.4130859,5.1953125-1.1552734
		c0.3955078-0.3359375-0.0302734-1.2597656-0.5947266-1.1992188c-0.8183594,0.0869141-2.2109375,0.6123047-4.9238281,0.6123047
		c-8.6074219,0-15.6523438-2.1933594-23.4150391-2.1933594c-8.1699219,0-13.2607422,3.0556641-13.2607422,8.5185547
		C286.6777344,445.0742188,288.5488281,447.4375,289.8222656,448.1835938z"/>
	<path d="M374.953125,452.2675781c0.8203125,0,1.5585938-0.4941406,1.8720703-1.2509766s0.140625-1.6289062-0.4384766-2.2080078
		c-0.5800781-0.5791016-1.4511719-0.7519531-2.2089844-0.4394531c-0.7558594,0.3144531-1.25,1.0527344-1.25,1.8720703
		C372.9277344,451.3603516,373.8339844,452.2675781,374.953125,452.2675781z"/>
	<path d="M428.7304688,462.1552734c-3.1054688,1.3613281-6.1699219,3.3583984-9.0595703,5.7851562
		c-0.0605469-5.1601562-0.1953125-10.1748047-0.4921875-12.6582031c-0.2421875-2.0351562-3.3457031-2.1669922-4.0322266-1.5576172
		c-0.0820312-0.0439453-0.1533203,0.0214844-0.2060547,0.2421875c-3.2177734,13.5439453-7.1083984,21.75-8.7792969,21.75
		c-0.2451172,0-1.3984375-1.8398438-1.3984375-9.2568359c0-2.09375,0.1015625-6.8291016,0.5429688-10.1591797
		c0.2255859-1.6972656-3.6708984-2.4931641-4.3652344-1.1494141c-0.7324219,1.4140625-1.2685547,4.9921875-1.2685547,9.8476562
		c0,0.9990234,0.0361328,1.9384766,0.1035156,2.8232422c-3.0742188,9.5976562-5.8671875,13.2412109-7.640625,13.2412109
		c-0.6650391,0-3.1142578-1.5419922-3.1142578-15.7089844c0-1.3359375,0.0283203-2.6396484,0.0849609-3.9091797l0.0166016-0.0048828
		c2.8144531-1.4736328,10.1347656-15.5263672,10.1347656-25.1933594c0-4.5458984-1.9082031-4.9072266-3.7294922-4.9072266
		c-5.6796875,0-11.2851562,17.1699219-11.375,34.4248047c-3.2773438,7.734375-5.9492188,10.4248047-6.5927734,10.4248047
		c-0.7314453,0-1.6357422-4.0634766-1.6357422-9.3349609c0-5.4628906,0.3232422-9.3798828,0.6835938-11.3818359
		c0.2373047-1.3242188-3.8408203-2.6162109-4.3369141-0.8134766c-0.5869141,2.1318359-0.7910156,9.3925781-0.7910156,10.5419922
		c0,0.6640625,0.0224609,1.2988281,0.0556641,1.9199219c-2.8691406,9.3417969-5.1376953,11.9150391-5.8720703,11.9150391
		c-0.8330078,0-1.1689453-3.8085938-1.1689453-5.5097656c0-0.71875,0.4550781-8.7998047,0.4550781-10.7695312
		c0-3.0439453,0.0488281-7.2724609-3.6777344-7.2724609c-2.3271484,0-4.8847656,5.0351562-6.1425781,7.9335938
		c0.0957031-1.6933594,0.1650391-3.0449219,0.1650391-3.3085938c0-3.7841797-0.2392578-7.8837891-3.8574219-7.8837891
		c-2.9521484,0-5.7724609,8.8007812-7.3203125,15.0351562v-0.1611328c0-4.234375,0.7392578-9.0927734,0.7373047-9.4169922
		c-0.0185547-2.3535156-4.1328125-2.7128906-5.0400391-1.2207031c-0.2050781,0.3359375-1.0732422,3.6152344-1.1191406,9.4375
		c-3.7099609,9.71875-5.9306641,10.9697266-6.5869141,10.9697266c-0.7314453,0-1.9101562-3.1767578-1.9101562-8.4492188
		c0-5.4619141,0.734375-13.0576172,0.7265625-13.5576172c-0.0205078-1.3457031-4.0810547-2.4941406-4.9326172-0.8291016
		c-0.15625,0.3564453-0.2666016,0.7314453-0.3291016,1.1152344c-0.6699219-0.4951172-1.8183594-1.0009766-3.5449219-1.0009766
		c-6.5117188,0-8.9072266,7.3730469-8.9072266,12.6679688c0,4.8154297,2.3964844,9.5683594,5.9248047,9.5683594
		c3.3798828,0,4.4179688-4.4042969,6.0517578-8.8486328c0.5898438,6.96875,3.3740234,11.0322266,6.6884766,11.0322266
		c2.8378906,0,5.0625-3.2275391,7.0136719-7.9306641c0.328125,3.546875,1.0244141,6.4521484,1.7597656,8.5703125
		c0.5253906,1.5126953,3.9628906,1.1933594,4.0517578-0.4355469c2.1220703-16.3417969,5.4013672-21.7783203,5.9580078-22.7177734
		c0.1591797-0.2695312,0.0761719,0.6533203,0.0527344,1.2167969c-0.0546875,1.4052734-0.6220703,11.5351562,0.0917969,14.4658203
		c0.4667969,1.9228516,3.3955078,2.2285156,3.8173828-0.0361328c0.8662109-3.5527344,4.1962891-10.5126953,5.5625-12.09375
		c0.4072266-0.4716797-0.1796875,2.1240234-0.1796875,8.6884766c0,10.5068359,2.4794922,12.6953125,5.2587891,12.6953125
		c3.046875,0,5.21875-4.1972656,6.8867188-9.2861328c0.9238281,3.90625,2.7558594,6.1835938,5.1777344,6.1835938
		c2.0488281,0,4.6679688-3.5048828,6.9589844-8.2197266c0.5605469,7.15625,2.8623047,13.0478516,6.7285156,13.0478516
		c4.4746094,0,7.2763672-6.0605469,9.1738281-11.8095703c0.8886719,4.4589844,2.8867188,6.796875,5.6416016,6.796875
		c4.0996094,0,7.1240234-8.5341797,8.8183594-14.7998047c0.1064453,3.1445312,0.2763672,6.5966797,0.3369141,9.5107422
		c-7.6445312,8.2314453-13.1542969,19.1191406-13.1542969,27.7949219c0,7.1220703,2.9453125,8.4814453,5.1748047,8.4814453
		c8.3134766,0,12.7138672-15.8984375,12.7138672-30.921875c0-2.1220703-0.0039062-4.6005859-0.0214844-7.1455078
		c3-2.7070312,6.28125-5.0849609,9.7880859-7.0927734C430.265625,463.078125,429.4609375,461.8349609,428.7304688,462.1552734z
		 M396.5830078,433.3945312c0.3056641,0,0.6738281,1.9179688,0.6738281,2.8164062
		c0,6.140625-2.6103516,15.9287109-8.0439453,23.2539062C390.2597656,443.4765625,395.2890625,433.3945312,396.5830078,433.3945312z
		 M325.3300781,457.7900391v-0.0019531c-2.4414062,10.7158203-5.40625,16.2158203-5.765625,16.2158203
		c-0.3583984,0-1.1796875-3.0195312-1.1796875-6.3261719c0-4.1445312,1.8212891-11.2490234,5.4394531-11.2490234
		c0.4912109,0,1.1503906,0.4033203,1.5625,0.7373047C325.3671875,457.3710938,325.3486328,457.578125,325.3300781,457.7900391z
		 M406.8613281,506.1982422c-0.4707031,0-1.7246094-2.9453125-1.7246094-6.2529297
		c0-5.9472656,2.3486328-15.4648438,9.8623047-24.4414062C414.7929688,496.2597656,409.2109375,506.1982422,406.8613281,506.1982422
		z"/>
	<path d="M647.8447266,404.2197266c0,7.2011719-5.0791016,13.2070312-11.8417969,14.65625
		c-0.1767578-2.6015625-2.3212891-4.6630859-4.9667969-4.6630859c-2.3974609,0-4.3955078,1.6884766-4.8828125,3.9394531H364.625
		h-2.7421875c-0.4882812-2.2509766-2.4863281-3.9394531-4.8828125-3.9394531s-4.3945312,1.6884766-4.8828125,3.9394531H87.9648438
		v1.0605469c0-2.7617188-2.2392578-5-5.0009766-5c-2.6455078,0-4.7900391,2.0615234-4.9667969,4.6630859
		c-6.7626953-1.4492188-11.8417969-7.4550781-11.8417969-14.65625c0,4.4873047-1.96875,8.5126953-5.0888672,11.2597656
		c-2.2832031,2.0107422-2.2832031,5.4580078,0,7.46875c3.1201172,2.7470703,5.0888672,6.7724609,5.0888672,11.2587891
		c0-7.2001953,5.0800781-13.2060547,11.8417969-14.6552734c0.1767578,2.6015625,2.3212891,4.6630859,4.9667969,4.6630859
		c2.7617188,0,5.0009766-2.2382812,5.0009766-5v1.0605469h66.1660156c-1.8105469,0.4609375-3.6347656,1.0986328-5.4580078,1.8476562
		c-0.921875,0.3789062-1.8066406,0.796875-2.7294922,1.2177734c-0.9179688,0.4453125-1.8525391,0.9355469-2.7910156,1.4267578
		c-1.9082031,0.9101562-3.7294922,2.2373047-5.6132812,3.5019531c-0.9257812,0.6621094-1.7744141,1.4580078-2.6699219,2.2050781
		l-1.3271484,1.1533203c-0.4384766,0.3916016-0.8154297,0.8496094-1.2246094,1.2753906
		c-0.7988281,0.8779297-1.6005859,1.7607422-2.4072266,2.6474609c-0.7080078,0.9316406-1.390625,1.8847656-2.0830078,2.8388672
		c-1.453125,1.9189453-2.5224609,3.8291016-3.7460938,5.7646484l-1.4248047,2.3476562
		c-5.6738281,4.8916016-12.7998047,8.734375-18.6064453,5.1894531c-5.1005859-3.1142578-4.9404297-8.5761719-0.3740234-12.1943359
		c1.7197266-1.3603516,4.0195312-2.6669922,6.3066406-2.3046875c4.4248047,0.7021484,5.0585938,7.1435547-0.265625,5.9238281
		c-0.5742188-0.1308594-1.2441406,0.5400391-0.7216797,1.0566406c2.6269531,2.59375,5.9648438,0.6083984,6.734375-2.5986328
		c0.765625-3.2001953-1.8779297-5.7949219-4.7490234-6.5644531c-5.8046875-1.5546875-13.2216797,4.8730469-13.0537109,10.7548828
		c0.2099609,7.3574219,9.0908203,10.1005859,15.0869141,8.0751953c2.7988281-0.9472656,5.3671875-2.4287109,7.7236328-4.2353516
		l-0.0361328,0.0546875c-0.5644531,0.8574219-1.1289062,1.7128906-1.6914062,2.5654297
		c-0.5371094,0.8691406-1.2382812,1.6757812-1.8623047,2.5146484c-2.6074219,3.3339844-5.2548828,6.5234375-8.0263672,9.3173828
		c-2.7617188,2.7958984-5.6269531,5.2373047-8.5703125,7.0566406c-2.9375,1.8222656-5.9853516,2.9824219-8.8984375,3.2705078
		c0,0-0.2050781,0.0244141-0.5087891,0.0615234c-0.3076172,0.0615234-0.7099609,0.0400391-1.1230469,0.0234375
		c-0.8291016-0.0273438-1.6591797-0.0537109-1.6591797-0.0537109s0.6738281,0.28125,1.3457031,0.5644531
		c0.3486328,0.140625,0.6972656,0.2841797,0.9609375,0.390625c0.2705078,0.0664062,0.453125,0.1132812,0.453125,0.1132812
		c3.3232422,0.9833984,7.1826172,0.7148438,10.7470703-0.3574219c3.5908203-1.0673828,6.9570312-2.8535156,10.0400391-4.9628906
		c3.0859375-2.1142578,5.90625-4.5673828,8.5029297-7.1738281c1.2998047-1.3134766,2.5322266-2.6347656,3.7431641-4.0351562
		c0.2998047-0.3515625,0.6083984-0.6914062,0.8994141-1.0556641l0.84375-1.1425781l1.6601562-2.2958984
		c2.0927734-3.0605469,3.8105469-6.0732422,5.484375-8.8896484c0.8291016-1.4541016,1.7138672-2.6689453,2.5390625-4.0146484
		c0.2119141-0.3251953,0.4082031-0.6679688,0.6289062-0.9794922l0.6953125-0.8867188l0.0673828-0.0878906
		c-0.4042969,1.6992188-0.6181641,3.4277344-0.6181641,5.1210938c-0.0009766,7.2490234,5.984375,13.4882812,13.5273438,12.4873047
		c5.8154297-0.7724609,11.9179688-9.1679688,7.2167969-14.5371094c-3.3505859-3.8271484-11.7587891-1.9433594-11.0410156,3.9169922
		c0.1201172,1.0058594,1.6884766,1.1347656,1.9716797,0.1591797c0.6425781-2.2265625,2.3408203-4.1728516,4.9150391-3.9951172
		c3.1611328,0.21875,4.1064453,3.8056641,3.1894531,6.4306641c-2.0615234,5.9130859-8.6220703,7.8632812-13.8603516,4.2490234
		c-5.296875-3.6542969-5.7080078-10.2080078-3.5898438-16.0410156c0.3320312-0.4003906,0.6826172-0.7822266,1.0371094-1.1572266
		c0.5039062-0.5429688,1-1.0791016,1.4960938-1.6103516c0.9882812-1.0742188,2.140625-1.9541016,3.171875-2.9365234
		c2.2011719-1.8212891,4.4609375-3.4921875,6.6542969-5.0439453c1.7773438-1.2460938,3.5097656-2.2705078,5.1757812-3.1240234
		l65.7675781,65.7675781c-0.1005859,0.2050781-0.1992188,0.4130859-0.2763672,0.6572266
		c-1.0087891,3.1914062,2.5712891,5.6679688,4.9013672,6.9951172c1.5537109,0.8847656,3.2060547,1.4970703,4.9082031,1.8818359
		l5.0488281,5.0478516c-2.0683594-0.2392578-4.296875-0.0019531-5.2470703,1.8183594
		c-2.9541016,5.6601562,9.6435547,7.4404297,14.6230469,7.5585938l8.1064453,8.1064453
		c-2.1914062-1.0302734-4.5253906-1.7578125-6.8242188-1.8417969c-2.1582031-0.078125-7.8222656,0.2666016-7.2441406,3.6513672
		c0.4892578,2.8623047,5.0664062,3.7832031,7.3447266,4.2392578c3.7626953,0.7519531,7.5917969,0.4648438,11.2480469-0.6474609
		c0.0927734,0.28125,0.3730469,0.4931641,0.6835938,0.5585938c1.421875,1.6816406,2.8730469,3.3369141,4.3398438,4.9804688
		c-1.2587891-0.3310547-2.5322266-0.546875-3.7734375-0.6083984c-2.4433594-0.1220703-8.0410156,0.3408203-9.1171875,3.1660156
		c-1.2216797,3.2041016,4.2421875,4.6445312,6.3369141,4.9931641c3.9091797,0.6494141,7.9707031-0.2333984,11.2441406-2.4492188
		c2.4960938,2.6425781,5.0683594,5.2109375,7.6777344,7.7392578c-1.6962891-0.5097656-3.4755859-0.7597656-5.2392578-0.7353516
		c-2.2402344,0.0322266-7.1689453,0.4130859-7.7861328,3.2880859c-0.6484375,3.0234375,4.1191406,4.0019531,6.1875,4.2607422
		c3.8085938,0.4775391,7.7363281-0.5019531,10.7900391-2.8359375l0.1132812-0.1279297
		c2.8525391,2.6416016,5.7792969,5.1953125,8.75,7.6943359c-1.6835938-0.21875-3.4082031-0.1337891-5.1298828,0.2646484
		c-1.6699219,0.3886719-6.3056641,1.7714844-6.4208984,4.0683594c-0.1240234,2.4960938,4.3925781,3.2392578,6.0830078,3.3320312
		c3.8017578,0.2099609,7.2763672-1.3994141,10.5097656-3.2177734l7.8115234,7.8115234
		c-1.4462891,0.0332031-2.8876953,0.2275391-4.2470703,0.6074219c-2.2128906,0.6210938-5.6123047,2.2070312-4.4716797,5.1230469
		c1.0234375,2.6162109,4.5283203,3.1601562,6.9033203,2.6113281c2.4892578-0.5761719,4.4150391-2.2158203,5.9941406-4.1621094
		l1.1074219,1.1074219c0.28125,0.28125,0.6630859,0.4394531,1.0605469,0.4394531s0.7792969-0.1582031,1.0605469-0.4394531
		l1.5039062-1.5048828c1.9628906,0.8876953,2.4121094,0.2451172,1.2265625-1.2255859L332.5625,550.7050781l0.1425781-0.2148438
		l23.234375,23.234375c0.2929688,0.2929688,0.6767578,0.4394531,1.0605469,0.4394531s0.7675781-0.1464844,1.0605469-0.4394531
		l23.234375-23.234375l0.1425781,0.2148438l20.7890625,20.7890625c-1.1855469,1.4707031-0.7363281,2.1132812,1.2265625,1.2255859
		l1.5039062,1.5048828c0.28125,0.28125,0.6630859,0.4394531,1.0605469,0.4394531s0.7792969-0.1582031,1.0605469-0.4394531
		l1.1074219-1.1074219c1.5791016,1.9462891,3.5048828,3.5859375,5.9941406,4.1621094
		c2.3740234,0.5488281,5.8789062,0.0048828,6.9033203-2.6113281c1.140625-2.9160156-2.2587891-4.5019531-4.4716797-5.1230469
		c-1.359375-0.3798828-2.8007812-0.5742188-4.2470703-0.6074219l7.8115234-7.8115234
		c3.2333984,1.8183594,6.7080078,3.4277344,10.5097656,3.2177734c1.6904297-0.0927734,6.2070312-0.8359375,6.0820312-3.3320312
		c-0.1142578-2.296875-4.75-3.6796875-6.4199219-4.0683594c-1.7226562-0.3984375-3.4462891-0.4833984-5.1298828-0.2646484
		c2.9697266-2.4990234,5.8974609-5.0527344,8.75-7.6943359l0.1123047,0.1279297
		c3.0546875,2.3339844,6.9824219,3.3134766,10.7910156,2.8359375c2.0683594-0.2587891,6.8359375-1.2373047,6.1875-4.2607422
		c-0.6171875-2.875-5.5458984-3.2558594-7.7861328-3.2880859c-1.7636719-0.0244141-3.5429688,0.2255859-5.2392578,0.7353516
		c2.609375-2.5283203,5.1816406-5.0966797,7.6777344-7.7392578c3.2734375,2.2158203,7.3349609,3.0986328,11.2441406,2.4492188
		c2.0947266-0.3486328,7.5585938-1.7890625,6.3369141-4.9931641c-1.0761719-2.8251953-6.6748047-3.2880859-9.1171875-3.1660156
		c-1.2412109,0.0615234-2.5146484,0.2773438-3.7734375,0.6083984c1.4667969-1.6435547,2.9179688-3.2988281,4.3398438-4.9804688
		c0.3105469-0.0654297,0.5908203-0.2773438,0.6835938-0.5585938c3.6552734,1.1123047,7.4853516,1.3994141,11.2480469,0.6474609
		c2.2783203-0.4560547,6.8554688-1.3769531,7.3447266-4.2392578c0.578125-3.3847656-5.0859375-3.7294922-7.2441406-3.6513672
		c-2.2988281,0.0839844-4.6328125,0.8115234-6.8242188,1.8417969l8.1064453-8.1064453
		c4.9794922-0.1181641,17.5771484-1.8984375,14.6230469-7.5585938c-0.9501953-1.8203125-3.1787109-2.0576172-5.2470703-1.8183594
		l5.0488281-5.0478516c1.7021484-0.3847656,3.3544922-0.9970703,4.9082031-1.8818359
		c2.3300781-1.3271484,5.9101562-3.8037109,4.9013672-6.9951172c-0.0771484-0.2441406-0.1757812-0.4521484-0.2763672-0.6572266
		l65.7675781-65.7675781c1.6660156,0.8535156,3.3984375,1.8779297,5.1757812,3.1240234
		c2.1933594,1.5517578,4.453125,3.2226562,6.6542969,5.0439453c1.03125,0.9824219,2.1835938,1.8623047,3.171875,2.9365234
		c0.4960938,0.53125,0.9921875,1.0673828,1.4960938,1.6103516c0.3544922,0.375,0.7050781,0.7568359,1.0371094,1.1572266
		c2.1181641,5.8330078,1.7070312,12.3867188-3.5898438,16.0410156c-5.2382812,3.6142578-11.7988281,1.6640625-13.8603516-4.2490234
		c-0.9169922-2.625,0.0283203-6.2119141,3.1894531-6.4306641c2.5742188-0.1777344,4.2724609,1.7685547,4.9150391,3.9951172
		c0.2832031,0.9755859,1.8515625,0.8466797,1.9716797-0.1591797c0.7177734-5.8603516-7.6904297-7.7441406-11.0410156-3.9169922
		c-4.7011719,5.3691406,1.4013672,13.7646484,7.2167969,14.5371094c7.5429688,1.0009766,13.5283203-5.2382812,13.5273438-12.4873047
		c0-1.6933594-0.2138672-3.421875-0.6181641-5.1210938l0.0673828,0.0878906l0.6953125,0.8867188
		c0.2207031,0.3115234,0.4169922,0.6542969,0.6289062,0.9794922c0.8251953,1.3457031,1.7099609,2.5605469,2.5390625,4.0146484
		c1.6738281,2.8164062,3.3916016,5.8291016,5.484375,8.8896484l1.6601562,2.2958984l0.84375,1.1425781
		c0.2910156,0.3642578,0.5996094,0.7041016,0.8994141,1.0556641c1.2109375,1.4003906,2.4433594,2.7216797,3.7431641,4.0351562
		c2.5966797,2.6064453,5.4169922,5.0595703,8.5029297,7.1738281c3.0830078,2.109375,6.4492188,3.8955078,10.0400391,4.9628906
		c3.5644531,1.0722656,7.4238281,1.3408203,10.7470703,0.3574219c0,0,0.1826172-0.046875,0.453125-0.1132812
		c0.2636719-0.1064453,0.6123047-0.25,0.9609375-0.390625c0.671875-0.2832031,1.3457031-0.5644531,1.3457031-0.5644531
		s-0.8300781,0.0263672-1.6591797,0.0537109c-0.4130859,0.0166016-0.8154297,0.0380859-1.1230469-0.0234375
		c-0.3037109-0.0371094-0.5087891-0.0615234-0.5087891-0.0615234c-2.9130859-0.2880859-5.9609375-1.4482422-8.8984375-3.2705078
		c-2.9433594-1.8193359-5.8085938-4.2607422-8.5703125-7.0566406c-2.7714844-2.7939453-5.4189453-5.9833984-8.0263672-9.3173828
		c-0.6240234-0.8388672-1.3251953-1.6455078-1.8623047-2.5146484c-0.5625-0.8525391-1.1269531-1.7080078-1.6914062-2.5654297
		l-0.0361328-0.0546875c2.3564453,1.8066406,4.9248047,3.2880859,7.7236328,4.2353516
		c5.9960938,2.0253906,14.8769531-0.7177734,15.0869141-8.0751953c0.1679688-5.8818359-7.2490234-12.3095703-13.0537109-10.7548828
		c-2.8710938,0.7695312-5.5146484,3.3642578-4.7490234,6.5644531c0.7695312,3.2070312,4.1074219,5.1923828,6.734375,2.5986328
		c0.5224609-0.5166016-0.1474609-1.1875-0.7216797-1.0566406c-5.3242188,1.2197266-4.6904297-5.2216797-0.265625-5.9238281
		c2.2871094-0.3623047,4.5869141,0.9443359,6.3066406,2.3046875c4.5664062,3.6181641,4.7265625,9.0800781-0.3740234,12.1943359
		c-5.8066406,3.5449219-12.9326172-0.2978516-18.6064453-5.1894531l-1.4248047-2.3476562
		c-1.2236328-1.9355469-2.2929688-3.8457031-3.7460938-5.7646484c-0.6923828-0.9541016-1.375-1.9072266-2.0830078-2.8388672
		c-0.8066406-0.8867188-1.6083984-1.7695312-2.4072266-2.6474609c-0.4091797-0.4257812-0.7861328-0.8837891-1.2246094-1.2753906
		l-1.3271484-1.1533203c-0.8955078-0.7470703-1.7441406-1.5429688-2.6699219-2.2050781
		c-1.8837891-1.2646484-3.7050781-2.5917969-5.6132812-3.5019531c-0.9384766-0.4912109-1.8730469-0.9814453-2.7910156-1.4267578
		c-0.9228516-0.4208984-1.8076172-0.8388672-2.7294922-1.2177734c-1.8232422-0.7490234-3.6474609-1.3867188-5.4580078-1.8476562
		h66.2841797c0.4873047,2.2509766,2.4853516,3.9394531,4.8828125,3.9394531c2.6455078,0,4.7900391-2.0615234,4.9667969-4.6630859
		c6.7617188,1.4492188,11.8417969,7.4550781,11.8417969,14.6552734c0-4.4863281,1.96875-8.5117188,5.0888672-11.2587891
		c2.2832031-2.0107422,2.2832031-5.4580078,0-7.46875C649.8134766,412.7324219,647.8447266,408.7070312,647.8447266,404.2197266z
		 M242.7617188,505.8222656l-6.53125-6.5322266c0.5722656-0.0126953,1.1464844-0.0419922,1.7207031-0.1015625
		c0.2636719-0.0273438,0.4423828-0.1591797,0.5527344-0.3310547c1.4902344,2.40625,3.0361328,4.7792969,4.6152344,7.1347656
		C243.0029297,505.9296875,242.8798828,505.8828125,242.7617188,505.8222656z M330.4414062,548.5839844l-20.8359375,20.8359375
		c-0.3945312-0.3173828-0.8164062-0.6445312-1.2958984-0.9882812c1.8134766-2.6601562,2.9033203-5.7285156,3.0742188-8.9824219
		c0.09375-1.8085938,0.2060547-7.4501953-2.7119141-7.5410156c-2.9453125-0.0927734-3.9833984,5.8359375-4.1933594,7.8417969
		c-0.2158203,2.0605469-0.0820312,4.2226562,0.4794922,6.2460938c-2.9423828-2.1748047-5.8466797-4.3896484-8.6865234-6.6650391
		l-0.5-0.4990234l0.0097656-0.0146484c1.5019531-3.8447266,1.8076172-8.1445312,0.9951172-12.1875
		c-0.3095703-1.5449219-1.0371094-6.2099609-3.5966797-5.4140625c-2.359375,0.7333984-2.640625,5.9941406-2.6933594,7.8701172
		c-0.046875,1.6855469,0.1542969,3.3964844,0.5839844,5.0449219l-8.2890625-8.2900391
		c1.5195312-2.9423828,2.7001953-6.609375,2.6855469-9.7099609c-0.0097656-2.1513672-1.5644531-4.6074219-3.9375-3.1533203
		c-2.5068359,1.5361328-3.7255859,4.609375-3.8320312,7.7802734l-5.2470703-5.2470703
		c1.7705078-3.1865234,2.9013672-6.8642578,3.3564453-10.3730469c0.2861328-2.2001953,0.1826172-7.4951172-3.3027344-7.1074219
		c-3.0693359,0.3398438-5.2294922,5.5673828-5.8388672,8.0712891c-0.2421875,0.9941406-0.3779297,2.0898438-0.4140625,3.2089844
		l-4.5214844-4.5205078c2.0507812-3.1220703,3.5556641-6.8134766,4.2255859-10.3652344
		c0.4316406-2.2871094-0.1679688-5.7382812-3.1328125-5.8408203c-3.2539062-0.1123047-5.0107422,4.7314453-5.5742188,7.2607422
		c-0.3046875,1.3701172-0.3925781,2.7753906-0.2978516,4.1650391l-2.7998047-2.7998047
		c-1.1416016-1.4228516-2.2724609-2.8544922-3.3837891-4.3066406c2.8222656-3.3037109,4.6474609-7.6611328,5.28125-11.9462891
		c0.3369141-2.2871094,0.4824219-7.6191406-2.7294922-8.1523438c-3.0371094-0.5048828-5.5146484,4.234375-6.2636719,6.4960938
		c-0.8183594,2.4726562-0.9257812,5.1445312-0.6318359,7.7714844c-1.9355469-2.6699219-3.8388672-5.3691406-5.6894531-8.1191406
		c0.1240234-0.078125,0.2197266-0.1992188,0.2421875-0.3701172c0.0390625-0.296875,0.0605469-0.5957031,0.0947266-0.8935547
		c2.6357422-3.2958984,4.5996094-7.2753906,5.0859375-11.4941406c0.2958984-2.5625-0.3466797-7.6494141-3.8896484-7.7539062
		c-2.9443359-0.0869141-4.6269531,4.8496094-5.1298828,7.0771484c-0.5361328,2.3720703-0.6289062,5.0673828-0.2294922,7.6308594
		c-1.5683594-2.4609375-3.1064453-4.9521484-4.6083984-7.4765625c0.1484375-0.0888672,0.2646484-0.2441406,0.2695312-0.4658203
		c0.1210938-5.0566406,2.2734375-11.4980469-1.3222656-15.9160156c-1.921875-2.3603516-5.6621094-3.5332031-8.3007812-1.6328125
		c-2.7529297,1.9873047-2.4638672,5.9726562-1.3662109,8.7734375c1.7890625,4.5634766,5.5136719,8.1679688,9.7490234,10.4726562
		c0.0908203,0.0498047,0.1777344,0.0683594,0.2636719,0.0810547c0.8994141,1.6699219,1.8525391,3.3154297,2.7958984,4.9648438
		c-3.1298828-2.4443359-7.2060547-4.8300781-9.9589844-4.4619141l-65.2822266-65.2822266
		c0.5361328-0.2148438,1.0634766-0.4101562,1.5869141-0.5498047c0.4960938-0.1513672,0.9775391-0.296875,1.4414062-0.4404297
		c0.4746094-0.0966797,0.9345703-0.1904297,1.3798828-0.28125c0,0,0.2392578-0.0507812,0.5996094-0.1220703
		c0.3574219-0.0869141,0.8398438-0.15625,1.328125-0.2001953c0.9775391-0.1123047,1.953125-0.2236328,1.953125-0.2236328
		s-0.1933594-0.0458984-0.4804688-0.1132812H203.40625c-0.078125,0.4628906,0.0351562,0.9501953,0.3916016,1.3076172
		L330.65625,548.4414062L330.4414062,548.5839844z M357,570.5429688L206.7324219,420.2753906h145.3847656
		c0.4882812,2.2509766,2.4863281,3.9394531,4.8828125,3.9394531s4.3945312-1.6884766,4.8828125-3.9394531H364.625h142.6425781
		L357,570.5429688z M471.2382812,505.8222656c-0.1181641,0.0605469-0.2412109,0.1074219-0.3574219,0.1699219
		c1.5791016-2.3554688,3.125-4.7285156,4.6152344-7.1347656c0.109375,0.171875,0.2890625,0.3037109,0.5527344,0.3310547
		c0.5742188,0.0595703,1.1484375,0.0888672,1.7207031,0.1015625L471.2382812,505.8222656z M489.5712891,487.4882812
		c-2.7529297-0.3681641-6.8291016,2.0175781-9.9589844,4.4619141c0.9433594-1.6494141,1.8964844-3.2949219,2.7958984-4.9648438
		c0.0859375-0.0126953,0.171875-0.03125,0.2636719-0.0810547c4.2353516-2.3046875,7.9589844-5.9091797,9.7490234-10.4726562
		c1.0966797-2.8007812,1.3867188-6.7861328-1.3671875-8.7734375c-2.6376953-1.9003906-6.3779297-0.7275391-8.2998047,1.6328125
		c-3.5957031,4.4179688-1.4433594,10.859375-1.3222656,15.9160156c0.0048828,0.2216797,0.1210938,0.3769531,0.2695312,0.4658203
		c-1.5019531,2.5244141-3.0400391,5.015625-4.6083984,7.4765625c0.3994141-2.5634766,0.3066406-5.2587891-0.2294922-7.6308594
		c-0.5029297-2.2275391-2.1855469-7.1640625-5.1308594-7.0771484c-3.5419922,0.1044922-4.1845703,5.1914062-3.8886719,7.7539062
		c0.4863281,4.21875,2.4501953,8.1982422,5.0859375,11.4941406c0.0341797,0.2978516,0.0556641,0.5966797,0.0947266,0.8935547
		c0.0224609,0.1708984,0.1181641,0.2919922,0.2421875,0.3701172c-1.8505859,2.75-3.7539062,5.4492188-5.6894531,8.1191406
		c0.2929688-2.6269531,0.1865234-5.2988281-0.6318359-7.7714844c-0.7490234-2.2617188-3.2265625-7.0009766-6.2636719-6.4960938
		c-3.2119141,0.5332031-3.0664062,5.8652344-2.7294922,8.1523438c0.6328125,4.2851562,2.4589844,8.6425781,5.28125,11.9462891
		c-1.1113281,1.4521484-2.2412109,2.8837891-3.3828125,4.3056641l-2.8007812,2.8007812
		c0.0947266-1.3896484,0.0078125-2.7949219-0.2978516-4.1650391c-0.5634766-2.5292969-2.3203125-7.3730469-5.5751953-7.2607422
		c-2.9638672,0.1025391-3.5634766,3.5537109-3.1318359,5.8408203c0.6699219,3.5517578,2.1748047,7.2431641,4.2255859,10.3652344
		l-4.5214844,4.5205078c-0.0361328-1.1191406-0.171875-2.2148438-0.4140625-3.2089844
		c-0.6103516-2.5039062-2.7695312-7.7314453-5.8388672-8.0712891c-3.4853516-0.3876953-3.5888672,4.9072266-3.3027344,7.1074219
		c0.4550781,3.5087891,1.5859375,7.1865234,3.3564453,10.3730469l-5.2470703,5.2470703
		c-0.1064453-3.1708984-1.3251953-6.2441406-3.8320312-7.7802734c-2.3730469-1.4541016-3.9277344,1.0019531-3.9375,3.1533203
		c-0.0146484,3.1005859,1.1650391,6.7685547,2.6855469,9.7099609l-8.2890625,8.2900391
		c0.4296875-1.6484375,0.6308594-3.359375,0.5839844-5.0449219c-0.0527344-1.8759766-0.3339844-7.1367188-2.6933594-7.8701172
		c-2.5595703-0.7958984-3.2871094,3.8691406-3.5966797,5.4140625c-0.8125,4.0429688-0.5068359,8.3427734,0.9951172,12.1875
		l0.0097656,0.0146484l-0.5,0.4990234c-2.8398438,2.2753906-5.7441406,4.4902344-8.6865234,6.6650391
		c0.5615234-2.0234375,0.6953125-4.1855469,0.4794922-6.2460938c-0.2099609-2.0058594-1.2480469-7.9345703-4.1933594-7.8417969
		c-2.9179688,0.0908203-2.8056641,5.7324219-2.7119141,7.5410156c0.1708984,3.2539062,1.2607422,6.3222656,3.0742188,8.9824219
		c-0.4794922,0.34375-0.9013672,0.6708984-1.2949219,0.9882812l-20.8369141-20.8359375l-0.2148438-0.1425781
		l126.8583984-126.8583984c0.3564453-0.3574219,0.4697266-0.8447266,0.3916016-1.3076172h36.4511719
		c-0.2871094,0.0673828-0.4804688,0.1132812-0.4804688,0.1132812s0.9755859,0.1113281,1.953125,0.2236328
		c0.4882812,0.0439453,0.9707031,0.1132812,1.328125,0.2001953c0.3603516,0.0712891,0.5996094,0.1220703,0.5996094,0.1220703
		c0.4453125,0.0908203,0.9052734,0.1845703,1.3798828,0.28125c0.4638672,0.1435547,0.9453125,0.2890625,1.4414062,0.4404297
		c0.5234375,0.1396484,1.0507812,0.3349609,1.5869141,0.5498047L489.5712891,487.4882812z"/>
	<path d="M327.2685547,145.0151367L357,115.4179688l29.7314453,29.597168
		c0.2929688,0.2915039,0.6757812,0.4370117,1.0585938,0.4370117c0.3847656,0,0.7695312-0.1474609,1.0634766-0.4418945
		c0.5839844-0.5869141,0.5820312-1.5366211-0.0048828-2.1210938l-30.7900391-30.6508789
		c-0.5859375-0.5830078-1.53125-0.5830078-2.1171875,0l-30.7900391,30.6508789
		c-0.5869141,0.5844727-0.5888672,1.5341797-0.0048828,2.1210938
		C325.7333984,145.5976562,326.6816406,145.5996094,327.2685547,145.0151367z"/>
	<path d="M386.7314453,568.984375L357,598.5830078l-29.7314453-29.5986328
		c-0.5869141-0.5830078-1.5351562-0.5820312-2.1220703,0.0048828c-0.5839844,0.5878906-0.5820312,1.5371094,0.0048828,2.1220703
		l30.7900391,30.6513672c0.2929688,0.2910156,0.6757812,0.4365234,1.0585938,0.4365234s0.765625-0.1455078,1.0585938-0.4365234
		l30.7900391-30.6513672c0.5869141-0.5849609,0.5888672-1.5341797,0.0048828-2.1220703
		C388.2675781,568.4023438,387.3193359,568.4013672,386.7314453,568.984375z"/>
</g>
</svg>


