<svg xmlns="http://www.w3.org/2000/svg" viewBox="0 0 4152.46 4292.8" width="500" height="500"><path d="M1048.29,1137.82a145.35,145.35,0,0,1-28.46-2.71q-34.56-8.82-46.09-25.75Q962.91,1089,955.1,980.26t-9.82-210.1q-2-101.31-2-158.24,0-79.27,2.7-152.48,12.19-313.75,33.91-323.93,10.14-7.47,30.48-7.46a125,125,0,0,1,40.33,6.79q20,6.78,30.16,18.29L1091.66,166q-3.37,396.47-3.37,450.68,0,153.18.67,174.86l3.39,31.15q149.78-23,254.81-23,16.93-541.5,24.39-568.61,7.46-15.57,47.44-15.59,42.67,0,62.36,21.69,15.56,19,15.58,162.66,0,115.2-7.45,239.91-4.1,85.39-8.13,222.27-4.74,155.22-9.5,198.57-4.08,31.86-8.8,39.31-9.49,16.25-44.06,16.26-42.67,0-67.09-19.65l-10.16-9.5,4.06-225q-66.42,0-167.39,16.28-54.24,8.82-88.09,13.54l10.83,230.42q-21,13.56-34.22,14.57C1058.1,1137.47,1051.9,1137.82,1048.29,1137.82Z" transform="translate(-151.5 -96.2)"/><path d="M1719.79,1108q-29.16,0-46.1-6.77-58.28-25.1-90.81-206-18.29-103.65-18.29-202.64,0-154.5,44-297.51,35.94-109.1,90.81-154.51,32.54-27.1,70.49-27.11,107.05,0,154.53,107.76,62.32,137.58,62.33,237.88,0,128.11-116.56,184.33-27.12,12.9-70.83,26.09t-72.84,18.64c-7.7.91-12.44,2.25-14.23,4.07s-2.7,5.88-2.7,12.19q0,17,15.56,102.34,12.88,71.84,16.28,71.82,5.38,0,28.46-108.43l18.29-8.8a89.38,89.38,0,0,1,38-8.82q44.68,0,44.71,25.08,0,13.56-7.44,61-11.54,73.2-29.14,108.44-28.48,58.27-89.47,60.32Zm-14.23-377.47q44.7-13.56,63.7-21,59-21.67,89.45-76.59,13.55-29.11,13.55-77.25,0-103-52.86-216.87-14.24-30.48-18.29-30.5-7.47,0-27.12,38-37.29,71.85-56.23,190.43-12.19,79.29-12.2,145.7Z" transform="translate(-151.5 -96.2)"/><path d="M2297.09,1156.11q-126.06,0-206-172.13-48.14-107.75-52.87-256.84,0-119.29,4.07-159.94,35.9-309.69,153.84-422.89,46.76-48.11,99.63-48.11,27.77,0,56.93,12.86,89.45,42.72,89.45,225.69,0,136.22-65.73,262.27-54.22,107.09-126.06,184.32-45.4,52.21-45.4,59.66,0,19,30.14,114.18t65.4,120.3c5,3.59,9.95,5.41,14.92,5.41q12.2,0,32.52-15.59,61-46.74,112.15-145.69t88.46-187.05q10.14-20.32,15.91-25.75t24.06-5.42a68.57,68.57,0,0,1,29.82,6.79c9.47,4.51,14.23,9.49,14.23,14.89s-5.65,21.93-16.93,49.47q-124.71,313.11-223,361.21Q2345.2,1156.1,2297.09,1156.11Zm-111.81-429q147.06-202,147-438.49,0-37.23-4.73-65.06-5.46-37.23-9.49-37.94-3.42,0-27.12,35.91-75.88,116.6-101,425.6Z" transform="translate(-151.5 -96.2)"/><path d="M2808.66,1156.11q-126.06,0-206-172.13-48.14-107.75-52.86-256.84,0-119.29,4.06-159.94,35.91-309.69,153.84-422.89,46.77-48.11,99.63-48.11,27.76,0,56.93,12.86,89.45,42.72,89.45,225.69Q2953.7,471,2888,597q-54.22,107.09-126.06,184.32-45.4,52.21-45.4,59.66,0,19,30.14,114.18t65.4,120.3c5,3.59,9.95,5.41,14.92,5.41q12.2,0,32.52-15.59,61-46.74,112.15-145.69t88.46-187.05q10.14-20.32,15.91-25.75t24.07-5.42a68.56,68.56,0,0,1,29.81,6.79c9.47,4.51,14.23,9.49,14.23,14.89s-5.65,21.93-16.93,49.47q-124.71,313.11-223,361.21Q2856.77,1156.1,2808.66,1156.11Zm-111.8-429q147-202,147-438.49,0-37.23-4.73-65.06-5.45-37.23-9.49-37.94-3.41,0-27.12,35.91-75.89,116.6-101,425.6Z" transform="translate(-151.5 -96.2)"/><path d="M3287.71,954.83q-27.11,0-57.6-8.13-168.78-41.31-168.75-258.87,0-104.37,50.14-204.67,11.51-23,37.27-62.36l-29.12-38.61q-28.49-37.28-28.48-53.54,0-17.61,42-17.62,34.58,0,56.93,12.2t47.44,42.7q16.93,20.32,27.78,29.14a101.05,101.05,0,0,0,25.78,14.9q67.74,26.43,155.17,26.42,69.12-.64,149.78-34.55,28.47-19,57.6-19,12.2,0,25.77,7.46,17.58,12.19,17.6,29.81a81.73,81.73,0,0,1-4.74,27.12q-6.76,12.19-36.6,27.78-41.33,21.71-99.61,29.82-19,3.4-77.95,4.06-81.33-3.37-106.4-10.16L3344,494q0,1.37,30.51,40,86.72,109.82,92.17,187,1.34,28.47,1.34,40.65,0,107.77-82,162Q3342.59,954.85,3287.71,954.83ZM3257.9,883q9.46,0,26.42-10.86,48.12-32.49,57.6-108.43.67-9.47.69-19.65,0-67.76-52.2-147.05-41.34-62.34-52.86-67.78-6.09,0-21.69,53.55-16.92,57.6-16.93,126.73,0,46.76,5.43,76.58,10.83,48.81,34.55,83.35Q3247,883,3251.8,883Z" transform="translate(-151.5 -96.2)"/><path d="M1300.28,1307v2.79q-13.38,14-17.57,45.18t-4.18,71.38v151.7q0,40.15,4.18,71.38t17.57,45.18v2.79H1156.39v-2.79q13.39-13.94,17.57-45.18t4.18-71.38v-151.7q0-40.16-4.18-71.38t-17.57-45.18V1307Z" transform="translate(-151.5 -96.2)"/><path d="M1344.89,1549.09q10.59,13.38,28.72,26.21a216.46,216.46,0,0,0,41.27,22.59,286.23,286.23,0,0,0,49.64,15.61,245.65,245.65,0,0,0,53.26,5.86q19.52,0,32.35-6.14t12.83-20.63v-2.79q0-10.59-8.65-18.13t-23.7-13.66a331.31,331.31,0,0,0-34.86-11.71q-19.8-5.57-42.11-12.27a286.79,286.79,0,0,1-41.54-15.9,130.51,130.51,0,0,1-33.47-22.58,99,99,0,0,1-22.58-32.07q-8.37-18.68-8.37-44.34v-5.58q0-36.8,14.78-59.11a98,98,0,0,1,37.92-34,161.88,161.88,0,0,1,50.75-15.62,384.63,384.63,0,0,1,53.82-3.9q13.4,0,27.33,1.39t26.49,2.79q12.56,1.4,23.15,2.79a140.4,140.4,0,0,0,17.84,1.39q8.37,0,16.46-.55a29.83,29.83,0,0,0,14.22-4.47l2.79.56q2.77,32.91,5.57,65.25t5.58,65.26l-2.23,1.11q-9.5-11.72-25.65-21.19a203.67,203.67,0,0,0-35.14-16.18,249.72,249.72,0,0,0-39.32-10.31,215.55,215.55,0,0,0-37.64-3.63q-22.87,0-37.93,5.58t-15.06,19q0,8.92,5.58,14.5a49.77,49.77,0,0,0,14.78,9.76,161.11,161.11,0,0,0,21.75,7.81q12.56,3.63,26.49,7.53,24.54,7.24,50.47,15.33a191.47,191.47,0,0,1,47.41,22,113.2,113.2,0,0,1,35.14,36.26q13.65,22.3,13.66,58v5.57q0,34.59-13.39,57.17a103.29,103.29,0,0,1-35.13,36,145.62,145.62,0,0,1-49.36,18.68,320.93,320.93,0,0,1-102.34,2.24q-19.53-3.08-34.58-7t-26.21-7a76.79,76.79,0,0,0-20.08-3.07,47.26,47.26,0,0,0-13.94,2.24,27.81,27.81,0,0,0-11.71,6.69l-2.79-.56-15.06-142.21Z" transform="translate(-151.5 -96.2)"/><path d="M1977.88,1307v2.79q-13.39,14-17.57,45.18t-4.18,71.38v151.7q0,40.15,4.18,71.38t17.57,45.18v2.79H1834v-2.79q13.38-13.94,17.57-45.18t4.18-71.38v-151.7q0-40.16-4.18-71.38T1834,1309.83V1307Z" transform="translate(-151.5 -96.2)"/><path d="M2108.38,1697.44v-2.79q13.92-13.94,17.84-45.18t3.91-71.38V1392.37q-17.87,0-33.75.56a215.81,215.81,0,0,0-30.11,3.07,135.37,135.37,0,0,0-27.33,7.8,90.11,90.11,0,0,0-24.82,15.34l-2.79-.56,20.08-118.79,2.79-1.11q7.24,3.35,19.24,5t27.33,2.51q15.33.82,32.9.83H2247q17.58,0,32.91-.83t27.61-2.51q12.26-1.68,19.52-5l2.78,1.11,20.08,118.79-2.79.56a90.07,90.07,0,0,0-24.81-15.34,134.87,134.87,0,0,0-27.61-7.8,223,223,0,0,0-30.4-3.07q-15.89-.56-33.74-.56v185.72q0,40.15,4.19,71.38t17.56,45.18v2.79Z" transform="translate(-151.5 -96.2)"/><path d="M2810,1488.3l-88.67,133.29-88.12-133.29-3.35,133.29q-1.12,26.78,2.79,45.45t11.71,27.61v2.79H2514.38v-2.79q7.8-8.91,10.87-27.61a385.57,385.57,0,0,0,4.18-45.45l5-201.33q.56-6.69.56-13.11V1394a252.66,252.66,0,0,0-3.62-44.61q-3.64-20.09-16.46-39.6V1307H2622l99.28,147.24L2821.12,1307H2928.2v2.79q-12.84,19.53-16.46,39.88a253,253,0,0,0-3.62,44.33v13.11q0,6.42.56,13.11l5,201.33a383.44,383.44,0,0,0,4.18,45.45q3.06,18.69,10.87,27.61v2.79H2798.81v-2.79q7.8-8.91,11.71-27.61t2.79-45.45Z" transform="translate(-151.5 -96.2)"/><path d="M2967.79,1697.44v-2.79q13.38-13.94,17.56-45.18t4.19-71.38v-151.7q0-40.16-4.19-71.38t-17.56-45.18V1307h220.57q17.57,0,32.91-.83t27.32-2.51q12-1.68,19.24-5l2.79,1.11,20.08,118.79-2.79.56a98.79,98.79,0,0,0-25.37-15.34,134.11,134.11,0,0,0-27.89-7.8,231.42,231.42,0,0,0-31-3.07q-16.18-.56-34.58-.56h-79.2v72.5h63.58a402.57,402.57,0,0,0,49.64-2.78q22.31-2.79,34.58-13.39l2.79,1.12V1563l-2.79,1.12a99.26,99.26,0,0,0-25.1-16.18,120.19,120.19,0,0,0-27-8.08,215.81,215.81,0,0,0-30.11-3.07q-15.9-.55-34.3-.56h-31.24v75.85h87.56q18.41,0,34.58-.28a205.83,205.83,0,0,0,31-2.79,123.35,123.35,0,0,0,27.88-8.09,105.35,105.35,0,0,0,25.38-15.61l2.79.56L3279,1704.69l-2.79,1.11q-7.26-3.35-19.24-5t-27.33-2.51q-15.35-.82-32.9-.83H2967.79Z" transform="translate(-151.5 -96.2)"/><path d="M1805.67,2336.54h2.52q20.11,0,34.58-15.4a51.12,51.12,0,0,0,14.46-36.16V2079.36q0-20.74-14.46-34.58t-35.21-13.84h-1.89q-20.75,0-35.53,13.84t-14.77,34.58V2285q0,20.76,14.77,36.16T1805.67,2336.54ZM571.93,2067.08a114.26,114.26,0,0,0-47.35-10.2h-258A115.05,115.05,0,0,0,151.5,2171.94v2.32a115.05,115.05,0,0,0,115.06,115.06h258a114.26,114.26,0,0,0,47.35-10.2c51.79-23.52,107.2-38.07,164.09-38.07H850.84v-135.9H736C679.13,2105.15,623.72,2090.6,571.93,2067.08Zm1963.16,87.74h32.06a35,35,0,0,0,24.84-9.75,31.14,31.14,0,0,0,10.38-23.58v-57.22a32.86,32.86,0,0,0-10.38-24.52,34.46,34.46,0,0,0-24.84-10.07h-34.58a7.46,7.46,0,0,0-5.66,2.83,8.9,8.9,0,0,0-2.51,6v105.64a10.74,10.74,0,0,0,10.69,10.69Zm1653.81-97.94h-258a114.26,114.26,0,0,0-47.35,10.2c-51.8,23.52-107.21,38.07-164.09,38.07H3604.62v135.9h114.82c56.88,0,112.29,14.55,164.09,38.07a114.26,114.26,0,0,0,47.35,10.2h258A115.05,115.05,0,0,0,4304,2174.26v-2.32A115.05,115.05,0,0,0,4188.9,2056.88ZM921.24,2497.83H3545.05V1848.37H921.24Zm1832-515.93a15.81,15.81,0,0,1,4.72-11.64,16.59,16.59,0,0,1,12.26-4.71h185.5a16.9,16.9,0,0,1,11.94,4.71,15.35,15.35,0,0,1,5,11.64v43.38a17.18,17.18,0,0,1-17,17h-127v96.21H2925a15.09,15.09,0,0,1,15.72,15.72v44a15.1,15.1,0,0,1-15.72,15.72h-96.21v114.44h127a16.87,16.87,0,0,1,11.94,4.72,15.32,15.32,0,0,1,5,11.63v43.39a17.18,17.18,0,0,1-17,17h-185.5a16,16,0,0,1-12.26-5,16.83,16.83,0,0,1-4.72-11.94ZM2445.16,1985a17.35,17.35,0,0,1,5-12.26,16.55,16.55,0,0,1,12.57-5.35H2586q43.39.64,70.11,25.16t26.73,62.88v76.71q0,22.64-12.89,42.76a91.34,91.34,0,0,1-33.65,31.44l.63,1.26,62.88,184.87c.42.42.63,1.88.63,4.4a8.35,8.35,0,0,1-3.46,6.6,12.94,12.94,0,0,1-8.48,2.83h-54.71a20.4,20.4,0,0,1-12.26-4.4c-4-2.93-6.6-6.07-7.86-9.43l-50.94-157.2a33.23,33.23,0,0,0-15.72-4.41,22.14,22.14,0,0,0-17,7.55v153.43a12.8,12.8,0,0,1-5,10.37,18.29,18.29,0,0,1-11.94,4.09h-50.31a19.19,19.19,0,0,1-12.57-4.09,12.78,12.78,0,0,1-5-10.37Zm-127,72.31a21.27,21.27,0,0,1-10.06-8.17,23.23,23.23,0,0,1-3.78-13.21v-47.16q0-10.05,6.61-16.35a21.66,21.66,0,0,1,15.4-6.28h48.42a22.53,22.53,0,0,1,22.64,22.63V2036a23.51,23.51,0,0,1-6.29,16.35l-34.59,47.79q-2.51,2.52-10.06,2.52h-34.58a7.51,7.51,0,0,1-7.55-7.55,7.83,7.83,0,0,1,2.52-5.66l13.83-24.52a3.63,3.63,0,0,0,.63-2.52A4.91,4.91,0,0,0,2318.15,2057.35Zm-317.87-85.52q7.23-6.27,21.7-6.28,22.63,0,30.81.63a28.4,28.4,0,0,1,13.83,4.4q6.28,4.39,6.29,23.26l.63,286.74a50.18,50.18,0,0,0,14.78,36.47q14.76,15.09,34.9,15.09h10.06a47,47,0,0,0,35.21-15.09Q2183,2302,2183,2280.58l.63-286.74q0-16.33,6.61-22t21.06-5.65q5.65-.63,24.52-.63,14.46,0,21.7,6.28t7.23,22.64l-.63,289.88a117.67,117.67,0,0,1-16.66,61.31,126.71,126.71,0,0,1-45.59,45,117.62,117.62,0,0,1-61.63,17h-22.63a119.28,119.28,0,0,1-61.63-16.66,127.53,127.53,0,0,1-45.27-45,117.6,117.6,0,0,1-17-61.63l-.63-289.88Q1993.05,1978.13,2000.28,1971.83Zm-323.51,108.79q0-33.33,16-61a119.18,119.18,0,0,1,44.33-44q27-15.72,60.37-15.72h20.75a120.12,120.12,0,0,1,60.36,15.72,118.08,118.08,0,0,1,44,43.39q15.7,27,15.72,61l.63,207.51a119.84,119.84,0,0,1-16.35,61,126.52,126.52,0,0,1-44,45.28,110.17,110.17,0,0,1-59.73,17h-20.75a117,117,0,0,1-60.37-16.66,123,123,0,0,1-61-106.58Zm-281.08-110a21.74,21.74,0,0,1,15.09-5.66h39q13.83,0,21.38,13.2l42.13,125.14a4.26,4.26,0,0,0,3.14,1.25c.42,0,1-.41,1.89-1.25l43.39-125.14a18.62,18.62,0,0,1,7.23-9.43,19.78,19.78,0,0,1,11.63-3.77h39.62q9.43,0,15.4,6t6,13.52l-1.26,7.55-74.2,190.53a132.92,132.92,0,0,0-7.55,30.18v179.21q0,6.93-6,11.95a21.3,21.3,0,0,1-14.15,5h-45.9a20.44,20.44,0,0,1-13.52-5c-4-3.35-6-7.33-6-11.95V2212.67q-1.89-13.83-8.81-30.18L1391.29,1992a18,18,0,0,1-1.89-8.18Q1389.4,1976.24,1395.69,1970.58Z" transform="translate(-151.5 -96.2)"/><path d="M600.09,3289.19q-19.5,0-29.26-2.34-49.16-10.93-71.39-92.07-18.72-65.55-18.73-141.62,0-56.19,10.15-117.82,32-181.8,133.42-181.8,23.79,0,41.75,8.58,32.37,15.6,45.64,83.49a191.6,191.6,0,0,1,4.29,37.84q0,9.75-1.17,21.85-.78,9.36-2.34,12.87-3.9,8.6-21.85,8.58-29.64,0-34.72-10.92-1.17-2.73-3.7-30.23a251.92,251.92,0,0,0-10.73-53.26,1.56,1.56,0,0,1-.39-1.17q-9.76-29.25-13.66-29.26-2.34,0-7.8,6.63-28.49,35.11-46.43,118.21-12.09,62.82-12.09,138.11,0,65.55,13.66,119,16,63.21,24.57,63.2,2.73,0,18.34-19.5,26.52-32.78,62-113.14,12.09-27.7,16.39-32.77,7.39-8.58,23-8.59a48.38,48.38,0,0,1,20.29,4.1q9,4.09,10.14,9.95,0,3.12-5.85,19.7t-15,39.79q-9.17,23.22-19.31,46.62a244.49,244.49,0,0,1-33,54.62q-19.7,24.59-38,34.34a58.25,58.25,0,0,1-15,5.26Q616.08,3288.8,600.09,3289.19Z" transform="translate(-151.5 -96.2)"/><path d="M909.08,3192.82a128.86,128.86,0,0,1-33.16-4.68q-97.14-23.79-97.15-149,0-60.08,28.87-117.82,6.63-13.26,21.46-35.89l-16.77-22.24q-16.4-21.45-16.39-30.82,0-10.14,24.19-10.14,19.89,0,32.77,7t27.31,24.58q9.75,11.7,16,16.77a58.16,58.16,0,0,0,14.83,8.59q39,15.21,89.34,15.21,39.8-.37,86.22-19.89,16.38-10.92,33.16-10.93,7,0,14.83,4.29,10.14,7,10.14,17.17a47.27,47.27,0,0,1-2.73,15.61q-3.9,7-21.07,16-23.81,12.49-57.35,17.17-10.92,1.95-44.86,2.34-46.82-1.95-61.25-5.85l-16-2.74q0,.79,17.56,23,49.93,63.21,53.05,107.68.78,16.38.78,23.41,0,62-47.2,93.24Q940.68,3192.82,909.08,3192.82Zm-17.17-41.35q5.46,0,15.22-6.24,27.69-18.74,33.16-62.42c.26-3.64.39-7.42.39-11.32q0-39-30-84.66-23.8-35.88-30.43-39-3.51,0-12.48,30.82-9.76,33.17-9.76,73,0,26.91,3.12,44.08,6.24,28.09,19.9,48,4.68,7.8,7.41,7.8Z" transform="translate(-151.5 -96.2)"/><path d="M1205.58,3192.82a128.86,128.86,0,0,1-33.16-4.68q-97.14-23.79-97.14-149,0-60.08,28.87-117.82,6.61-13.26,21.45-35.89l-16.77-22.24q-16.39-21.45-16.39-30.82,0-10.14,24.19-10.14,19.89,0,32.77,7t27.31,24.58q9.75,11.7,16,16.77a57.92,57.92,0,0,0,14.82,8.59q39,15.21,89.34,15.21,39.8-.37,86.22-19.89,16.38-10.92,33.16-10.93,7,0,14.83,4.29,10.14,7,10.14,17.17a47,47,0,0,1-2.73,15.61q-3.9,7-21.07,16-23.81,12.49-57.35,17.17-10.92,1.95-44.86,2.34-46.82-1.95-61.25-5.85l-16-2.74q0,.79,17.56,23,49.93,63.21,53.06,107.68.76,16.38.78,23.41,0,62-47.21,93.24Q1237.18,3192.82,1205.58,3192.82Zm-17.17-41.35q5.46,0,15.22-6.24,27.69-18.74,33.16-62.42c.26-3.64.39-7.42.39-11.32q0-39-30-84.66-23.81-35.88-30.43-39-3.51,0-12.48,30.82-9.76,33.17-9.76,73,0,26.91,3.12,44.08,6.24,28.09,19.9,48,4.68,7.8,7.41,7.8Z" transform="translate(-151.5 -96.2)"/><path d="M1409.23,3274.75q-10.53,0-16.39-5.07-25-29.64-25-270,0-113.53,3.9-176.34,2.34-44.48,9-98.32,2.73-25,7-34.33,5.85-13.65,27.7-13.65a78.87,78.87,0,0,1,18.34,2.34q18.33,4.29,24.58,13.65,3.51,6.26,3.9,31.6,0,25.76-3.9,81.54-7.42,113.15-7.42,158,0,10.14.78,10.14,1.56,0,21.46-23.8,18.33-21.84,24.19-31.6,7-12.87,13.65-33.94,12.89-40.58,12.88-63.2a45.23,45.23,0,0,0-.39-6.44,28.15,28.15,0,0,1-.39-4.1q0-8.57,18.72-8.58a59.42,59.42,0,0,1,22.63,4.29q14.05,5.85,14.83,14.83l.39,10.53q0,54.63-26.53,99.88-8.19,13.65-24.38,33.74t-28.68,32.19q-8.58,8.58-8.58,10.14,0,1.17,9.36,3.12,19.9,3.91,55,26.14,18.72,12.87,32.38,17.17t34.92,4.48q21.26.21,29.84,1,19.11,2,22.24,11.31a41.05,41.05,0,0,1,2.34,12.88v2.73q-1.17,13.26-33.94,13.26-41.35,0-96-34.33-16-10.14-25.36-14a83.33,83.33,0,0,0-28.48-5.08,129.56,129.56,0,0,0-21.07,2q-15.21,2.73-21.07,7-3.12,4.29-3.12,48.37t2.34,75.3q2,17.18,5.47,74.13l-7.81,7Q1432.25,3274.75,1409.23,3274.75Z" transform="translate(-151.5 -96.2)"/><path d="M1688.17,2829.61a153.62,153.62,0,0,1-18.33-.78q-27.31-7.8-27.31-26.53,0-4.68,5.46-11.7a16.31,16.31,0,0,1,10.92-5.85,98.37,98.37,0,0,1,10.15-.4,77.59,77.59,0,0,1,30.43,6.64q21.84,9.75,21.85,20.68,0,5.85-6.25,11.7a18.92,18.92,0,0,1-8.19,4.88Q1702.22,2829.62,1688.17,2829.61Zm2.74,412q-32.4,0-38.24-21.85-9.75-41.34-9.75-167,0-60.08,5.46-138.89,2.73-39.4,7.41-42.52,10.55-6.63,25.36-6.64,21.86,0,32.77,9.76,3.9,2.73,4.88,9.16t1.37,41.16l-.78,174.39q0,62.82,1.17,88.17,1.55,19.13,1.56,29.26,0,16.4-8.39,20.68T1690.91,3241.59Z" transform="translate(-151.5 -96.2)"/><path d="M2080.65,3292.7a105.28,105.28,0,0,1-19.9-1.95q-17.55-2.74-29.06-9t-22.83-18.34q-16.38-16.77-19.7-33.16a155.84,155.84,0,0,1-3.31-30.82q0-49.55,42.52-198.58,24.59-96.36,27.7-121.72,1.56-15.6,1.56-30,0-31.22-4.1-53.45T2043.2,2766q-3.92,0-23,17.56-28.48,26.91-59.3,87.39-72.18,130.7-75.69,262.16l-3.12,45.65q-1.56,14-29.26,17.95a83,83,0,0,1-10.92.78q-19.52,0-29.65-11.71-14.45-14.43-28.48-115.87-9-61.24-9-181,0-83.47,6.44-88.56t18.14-5.07q19.91,0,37.46,12.48a23.69,23.69,0,0,1,7.8,9q4.68,9.75,10.14,83.88,4.29,48.77,5.46,48.76.39,0,.78-1.17,2.73-12.09,15.22-41.35,29.27-67.89,56.57-108.85,46.43-69.83,96-69.83a82.19,82.19,0,0,1,24.58,3.9q30,8.19,47.21,25.75,28.08,33.55,28.08,112.35,0,45.27-21.45,128.36Q2060,3174.1,2060,3213.11a93.71,93.71,0,0,0,2.73,21.07q3.9,19.11,9,19.11,2.71,0,14-5.46,10.53-7.8,26.53-26.72a250.25,250.25,0,0,0,28.87-42.72q49.15-116.64,56.57-143.57,2.73-9.75,7.22-12.87t14.24-3.13c2.34,0,6.88,1.44,13.65,4.3q11.7,5.07,11.71,11.7,0,7-6.64,28.09-16,53.84-51.89,140.84Q2145,3292.7,2080.65,3292.7Z" transform="translate(-151.5 -96.2)"/><path d="M2383,3283.34a94.44,94.44,0,0,1-25-3.52q-48.77-11.7-58.52-67.88-2.34-12.09-2.34-18.34a16.38,16.38,0,0,1,4.68-12.09q2.73-2.73,14.44-2.73,34.32,0,40.18,16.38a101.25,101.25,0,0,1,2,10.15,74.23,74.23,0,0,0,5.47,21.46q3.11,7.8,4.68,7.8c1,0,2.47-.91,4.29-2.73q12.87-12.48,28.09-42.14,38.63-76.07,53.06-241.88l-30.82,60.86q-59.7,120.17-97.15,142-14,8.58-32.38,8.58a101,101,0,0,1-28.87-4.68q-26.91-7.8-41.94-24.77t-24-49.74q-4.68-19.51-4.68-59.69,0-48,5.85-76.08,31.2-138.11,109.24-186.09,30.42-19.11,69.05-19.12,40.18,0,81.54,27.7,14,9.36,25.36,12.87,23,7,24.19,25.75.77,9.76,7.41,46.82a570.46,570.46,0,0,1,9,101.82,671.78,671.78,0,0,1-7.8,100.66q-10.15,71.39-25.95,116.06t-41.94,77Q2421.63,3283.34,2383,3283.34Zm-96-180.25q17.16-19.5,25.75-30,34.32-42.51,76.85-131.47,50.72-106.51,50.72-128-.39-12.48-4.68-15.41a16.25,16.25,0,0,0-9.36-2.93q-20.68,0-47.21,19.12-67.5,48-90.51,170.48-5.48,33.57-5.46,74.52A271.74,271.74,0,0,0,2287,3103.09Z" transform="translate(-151.5 -96.2)"/><path d="M2909.68,3330.15a69.2,69.2,0,0,1-21.85-3.12q-26.91-7.82-47.2-50.33-25.76-51.87-36.28-131.47l-3.12-21.85-13.66-1.17q-19.11-1.56-22.24-16.39,0-8.19,18.34-15.21l16-4.29q0-63.21,14.05-136.55A1035.15,1035.15,0,0,1,2847.65,2816q32.38-97.53,51.5-105.73a24.13,24.13,0,0,1,10.92-2.34q18.73,0,36.28,11.31,10.92,7.43,10.93,15.22,0,3.9-20.29,64-33.16,96.76-45.25,171.66-10.54,66.71-10.54,84.66,0,3.12.78,3.12,2.73,0,122.11-38.62,56.57-19.12,74.52-19.12,12.09,2,12.09,18a12.65,12.65,0,0,1-5.46,10.92q-10.15,5.07-55.79,20.29-68.26,23.79-141.23,49.93l-8.19,2.73,21.07,10.54q69.83,36.28,94.41,83.09a81.19,81.19,0,0,1,9.75,38.63l-.78,14.43q-2.34,28.88-25.16,53.26T2928,3329Q2915.14,3330.15,2909.68,3330.15Zm18-47.6q1.17,0,6.24-10.53t5.07-33.55q0-33.15-33.16-64.37-17.18-17.16-19.51-17.17v1.17q0,9,8.59,44.09,9.36,38.23,21.84,64.37Q2924.5,3282.55,2927.63,3282.55Z" transform="translate(-151.5 -96.2)"/><path d="M3171.85,3192.82a128.86,128.86,0,0,1-33.16-4.68q-97.14-23.79-97.14-149,0-60.08,28.87-117.82,6.63-13.26,21.45-35.89l-16.77-22.24q-16.39-21.45-16.39-30.82,0-10.14,24.19-10.14,19.91,0,32.77,7T3143,2853.8q9.75,11.7,16,16.77a57.92,57.92,0,0,0,14.82,8.59q39,15.21,89.34,15.21,39.8-.37,86.22-19.89,16.39-10.92,33.16-10.93,7,0,14.83,4.29,10.14,7,10.14,17.17a47,47,0,0,1-2.73,15.61q-3.9,7-21.07,16-23.79,12.49-57.35,17.17-10.92,1.95-44.86,2.34-46.82-1.95-61.25-5.85l-16-2.74q0,.79,17.56,23,49.93,63.21,53.06,107.68.77,16.38.78,23.41,0,62-47.21,93.24Q3203.45,3192.82,3171.85,3192.82Zm-17.16-41.35q5.45,0,15.21-6.24,27.69-18.74,33.16-62.42c.26-3.64.39-7.42.39-11.32q0-39-30-84.66-23.8-35.88-30.43-39-3.51,0-12.48,30.82-9.77,33.17-9.76,73,0,26.91,3.12,44.08,6.24,28.09,19.9,48,4.68,7.8,7.41,7.8Z" transform="translate(-151.5 -96.2)"/><path d="M3400.86,3302.84q-16.38,0-22.63-8.58a107.5,107.5,0,0,1-6.24-9.75q-9-16.4-16.19-68.08t-16.58-174.2q-5.07-71.39-5.07-140.45,0-106.87,10.53-166.19,7.41-37.46,14.83-41,14.41-6.61,45.64-6.63,21.84,0,50.33,6.25,57.34,12.87,106.5,53.44,33.55,27.71,52.28,58.52,25,44.1,26.53,74.32t1.56,36.87q0,45.65-17.55,83.49-38.62,72.18-120.16,129.13-15.61,10.93-15.61,12.1t15.61,3.12q22.62,2.34,57,7.41,41.74,5.85,50.72,11.31,21.08,12.5,21.07,25.75,0,9.38-9.75,9.37-12.49,0-132.26-15.61-40.18-6.24-46.82-6.24-.78,0-.78,2.34a196.36,196.36,0,0,0,1.95,22.24q2,31.59,2,82.32l-8.19,6.63Q3423.48,3302.84,3400.86,3302.84Zm37.06-201.31q2.34,0,31.21-21.06a363.87,363.87,0,0,0,76.08-76.08q20.28-26.52,28.87-46.43,13.26-30.81,13.26-74.9,0-38.62-14-70.22-26.93-58.53-98.71-76.47-21.06-5.07-48.76-5.07-3.51,29.65-3.51,69.83,0,108.85,9.36,232.91,4.68,62,4.68,64.76C3436.36,3100.63,3436.88,3101.53,3437.92,3101.53Z" transform="translate(-151.5 -96.2)"/><path d="M3793.33,3175.27q-7.8,0-20.28-8t-15.41-16a56.43,56.43,0,0,1-2.93-19.32q0-42.14,21.46-89.73,19.5-44.08,75.68-140.45,70.23-121.32,70.23-175.16,0-23.8-12.49-29.65-19.11-9.75-53.84-9.76-67.87,1.17-106.5,37.84-10.93,10.54-15.8,19.32a52.33,52.33,0,0,0-6,20.48q-.78,15.6-10.14,15.6-7.43,0-20.29-10.14-9.75-6.63-13.65-14c-1.31-2.08-2-5.86-2-11.32q0-47.6,55.39-80.37,40.57-24.18,96.37-24.18,54.61,0,95.19,31.6,46.42,35.51,46.43,90.9,0,47.59-38.63,122.5-12.87,26.54-62.42,112-56.57,96.75-64.76,145.52-3.14,16.38-5.85,26.92A10.47,10.47,0,0,1,3793.33,3175.27Zm2.34,128.35a57.24,57.24,0,0,1-19.5-3.51q-26.93-10.92-26.92-27.7,0-11.31,12.87-21.46,8.58-6.63,14.83-6.63,8.19,0,20.67,5.27t17,11.31a23.93,23.93,0,0,1,4.48,14.63Q3819.08,3303.63,3795.67,3303.62Z" transform="translate(-151.5 -96.2)"/><path d="M1278.58,3876.6c-116.65,3.4-203.91,48.34-283.71,117-45.54,39.18-100.14,69.58-154.44,96.23-35.3,17.31-76.95,24.79-116.58,29.25-39.07,4.39-76.05-11.77-92.21-49.5-16.58-38.7-15.06-81.66,13.7-115,23.94-27.75,51.29-56.17,83.12-72.91,171.29-90.1,349.41-94.15,530.64-32.35C1264,3851,1266.62,3859.44,1278.58,3876.6Z" transform="translate(-151.5 -96.2)"/><path d="M1388.8,3674.59c-16.67-9.82-27.16-15.15-36.74-21.78-40.76-28.24-85.55-41.48-135.27-39.84-26.3.87-53,1.47-79-2.11-25.75-3.55-51.39-10.73-75.93-19.53-28.4-10.18-38.65-34.39-37.9-63,.81-30.93,18.83-54.9,49.33-63,55.84-14.81,110.49-6.9,160.24,20.33,68.77,37.63,122.6,91.29,155,164.1C1390.29,3653.59,1388.8,3658.85,1388.8,3674.59Z" transform="translate(-151.5 -96.2)"/><path d="M1294.56,4120.48c-57.93,84.17-99,149-145.88,209.41-18.51,23.85-47.8,42.16-75.84,55-33.53,15.39-78.46-15.09-79.1-52.75-.45-26.36,1.64-57.41,15-78.55C1069.18,4157.85,1157.34,4113.63,1294.56,4120.48Z" transform="translate(-151.5 -96.2)"/><path d="M2997.4,3876.6c116.64,3.4,203.9,48.34,283.71,117,45.54,39.18,100.14,69.58,154.44,96.23,35.29,17.31,76.94,24.79,116.58,29.25,39.07,4.39,76-11.77,92.21-49.5,16.57-38.7,15.06-81.66-13.71-115-23.93-27.75-51.29-56.17-83.11-72.91-171.3-90.1-349.42-94.15-530.64-32.35C3012,3851,3009.36,3859.44,2997.4,3876.6Z" transform="translate(-151.5 -96.2)"/><path d="M2887.17,3674.59c16.68-9.82,27.17-15.15,36.75-21.78,40.75-28.24,85.55-41.48,135.26-39.84,26.3.87,53,1.47,79-2.11,25.75-3.55,51.39-10.73,75.93-19.53,28.41-10.18,38.66-34.39,37.91-63-.81-30.93-18.84-54.9-49.33-63-55.84-14.81-110.49-6.9-160.24,20.33-68.78,37.63-122.6,91.29-155,164.1C2885.68,3653.59,2887.17,3658.85,2887.17,3674.59Z" transform="translate(-151.5 -96.2)"/><path d="M2981.42,4120.48c57.93,84.17,99,149,145.88,209.41,18.5,23.85,47.8,42.16,75.83,55,33.54,15.39,78.46-15.09,79.11-52.75.45-26.36-1.64-57.41-15-78.55C3206.79,4157.85,3118.64,4113.63,2981.42,4120.48Z" transform="translate(-151.5 -96.2)"/><path d="M2642.23,3712.74a171,171,0,0,0-171-171H1788.78a171,171,0,0,0-171,171v43.81H2642.23Zm-554.82-220.51v49.09h86.41v-49.09c21-8.4,34.91-22.84,34.91-39.26v-2.72c0-25.93-34.62-47-77.33-47h-1.56c-42.71,0-77.33,21-77.34,47V3453C2052.5,3469.39,2066.39,3483.83,2087.41,3492.23Zm669.27,296.39H1501.07a61.9,61.9,0,0,0-61.9,61.9v1.25a61.9,61.9,0,0,0,61.9,61.9h116.69v285.9a171,171,0,0,0,171,171H2471.2a171,171,0,0,0,171-171v-285.9h114.45a61.9,61.9,0,0,0,61.9-61.9v-1.25A61.9,61.9,0,0,0,2756.68,3788.62Zm-444.36,245.19c-30.46,60.82-118.28,226.37-128.27,235.44-16.89,15.34-210.11-106.05-229.59-279.06-6-53.06,22.54-78.31,73-59.79,40.51,14.87,71.32,44.22,105.84,72.15,12.55-22.69,23.15-43.18,38.37-60.62,20.85-23.88,45.72-40.48,78.27-43.6,43.67-4.19,74.27,21.76,76.72,65.84A136.79,136.79,0,0,1,2312.32,4033.81Z" transform="translate(-151.5 -96.2)"/></svg>

