<svg xmlns="http://www.w3.org/2000/svg" viewBox="0 0 4149.4 4273.36" width="500" height="500"><path d="M1023.09,1323.26q-88.85,0-125.22-127.41-14.57-50.24-14.57-127.41,2.9-162.36,41.49-356,53.87-272.31,53.89-367.69,0-19.65-5.83-53.15l-15.28,14.57q-50.25,48.78-106.3,160.16Q817,534.05,797.38,587.54T763.17,716.78Q748.61,792.5,729,927.91q-16.76,117.24-20.39,128.15-3.66,16-44.42,16-70.62,0-76.44-57.52-2.93-29.82-5.83-140.51-2.94-91.71-8.37-148.52T549.83,568.24l-10.91,16q-22.59,35-53.87,126.69a2108.49,2108.49,0,0,0-76.45,293.4q-31.32,156.55-31.31,182.77,0,15.3-19.67,28.38a119.27,119.27,0,0,1-67.72,20.4,92.62,92.62,0,0,1-26.2-3.65q-16-3.62-25.48-25.11t-16.75-75q-7.28-53.52-16-154-18.22-209.68-18.21-377.86,0-135.4,11.66-243.18,7.25-71.36,15.28-86.64,12.38-23.28,51.69-23.3,45.86,0,69.89,24.76l11.66,13.82q-2.93,249.77-2.92,289.06,0,126.69,3.64,196.56l12.38-40Q396.92,612,429,555.88q37.84-65.5,92.48-71.36a193.33,193.33,0,0,1,34.21,2.9q80.8,13.14,104.11,79.38,10.92,27.66,13.85,27.66c1,0,1.44-1.69,1.44-5.11q0-8,19.65-56.05t45.16-99.74q38.57-80.07,82.25-137.24t78.65-73.17a118.43,118.43,0,0,1,43.7-8q61.88,0,109.91,39.67t49.5,93.19q1.47,53.52,1.47,60.79,0,101.22-37.84,300-43.69,230.07-46.6,369.13,0,113.58,31.29,169.64c3.39,6.31,9.48,9.47,18.21,9.47q8.71,0,21.12-4.36h3.64q12.38,0,12.38,18.18a93.6,93.6,0,0,1-1.46,15.29q-4.39,18.92-42.95,31.31A131.1,131.1,0,0,1,1023.09,1323.26Z" transform="translate(-187.26 -71.7)"/><path d="M1526.75,1315.25q-29.89,0-54.61-13.1-16.77-8.75-16.75-17.47,0-12.4,15.28-81.56l2.91-13.82-46.6-12.38q-142-35-215.49-109.22-48.09-45.85-48.06-96.1,6.54-96.83,78.63-134,29.82-14.57,74.26-14.56,105.57,0,180.55,71.33l25.49,24.76Q1558,713.88,1558,574.81q0-67-9.46-109.94Q1534,395.71,1510,366.56l-11.66-13.82-25.48,13.1q-94.68,52.44-163.09,204.6-37.87,88.08-43.7,138.33-2.19,22.58-8.36,27.29t-22.93,4.74a131.29,131.29,0,0,1-25.48-2.9q-24-5.82-37.14-16-16.73-13.1-16.75-43,0-35.68,25.48-112.87,72.06-205.29,190-270.1,18.18-9.48,32-12.38,19.65-4.36,56.07-4.37,25.47,0,55.34,10.2,85.88,28.39,128.87,98.28,32.74,48.09,43.3,98.67t10.57,120.49a1462.82,1462.82,0,0,1-10.92,181.28q-9.48,72.09-36.4,214-22.57,126-22.58,134c0,.49.12.72.35.72s2.79.86,7.64,2.56,10.69,3.51,17.49,5.46q44.4,14.56,44.42,34.21,0,21.12-54.62,25.49l-32.75,2.18q-16.76,67-23.3,81.53-10.93,23.28-41.51,25.51Zm-57.54-195.12c2.9-1.44,4.37-5.32,4.37-11.64a78.66,78.66,0,0,0-1.44-13.13q-7.32-56.74-27.32-105.92t-46.23-76.1q-18.94-18.92-26.2-18.93-20.42,0-43,22.58Q1301,946.12,1301,991.25q0,73.56,128.88,118.68,28.35,10.2,37.12,10.2Z" transform="translate(-187.26 -71.7)"/><path d="M2606.37,1323.26q-88.86,0-125.23-127.41-14.57-50.24-14.56-127.41,2.88-162.36,41.48-356,53.86-272.31,53.89-367.69,0-19.65-5.83-53.15l-15.28,14.57q-50.25,48.78-106.3,160.16-34.24,67.74-53.89,121.23t-34.21,129.24q-14.57,75.72-34.22,211.13-16.75,117.24-20.39,128.15-3.66,16-44.42,16-70.62,0-76.44-57.52Q2168,984.73,2165.14,874q-2.92-91.71-8.36-148.52t-23.67-157.28l-10.92,16q-22.58,35-53.87,126.69a2108.47,2108.47,0,0,0-76.44,293.4q-31.34,156.55-31.32,182.77,0,15.3-19.67,28.38a119.26,119.26,0,0,1-67.71,20.4,92.56,92.56,0,0,1-26.2-3.65q-16-3.62-25.49-25.11t-16.74-75q-7.29-53.52-16-154-18.23-209.68-18.21-377.86,0-135.4,11.66-243.18,7.24-71.36,15.29-86.64,12.36-23.28,51.68-23.3,45.85,0,69.89,24.76l11.66,13.82q-2.93,249.77-2.92,289.06,0,126.69,3.64,196.56l12.39-40Q1980.2,612,2012.25,555.88q37.83-65.5,92.47-71.36a193.45,193.45,0,0,1,34.22,2.9q80.79,13.14,104.11,79.38,10.9,27.66,13.84,27.66c1,0,1.44-1.69,1.44-5.11q0-8,19.65-56.05t45.16-99.74q38.57-80.07,82.25-137.24T2484,223.15a118.43,118.43,0,0,1,43.7-8q61.88,0,109.92,39.67t49.5,93.19q1.46,53.52,1.46,60.79,0,101.22-37.84,300-43.7,230.07-46.6,369.13,0,113.58,31.29,169.64c3.39,6.31,9.48,9.47,18.21,9.47q8.71,0,21.12-4.36h3.65q12.36,0,12.38,18.18a93.72,93.72,0,0,1-1.47,15.29q-4.38,18.92-43,31.31A131.08,131.08,0,0,1,2606.37,1323.26Z" transform="translate(-187.26 -71.7)"/><path d="M3110,1315.25q-29.89,0-54.61-13.1-16.76-8.75-16.75-17.47,0-12.4,15.29-81.56l2.9-13.82-46.6-12.38q-142-35-215.49-109.22-48.09-45.85-48.06-96.1,6.56-96.83,78.63-134,29.82-14.57,74.26-14.56,105.57,0,180.56,71.33l25.48,24.76q35.68-205.29,35.68-344.36,0-67-9.46-109.94-14.55-69.17-38.58-98.31l-11.66-13.82-25.48,13.1q-94.66,52.44-163.09,204.6-37.87,88.08-43.69,138.33-2.2,22.58-8.36,27.29t-22.93,4.74a131.21,131.21,0,0,1-25.48-2.9q-24-5.82-37.15-16-16.72-13.1-16.74-43,0-35.68,25.48-112.87,72-205.29,190-270.1,18.2-9.48,32-12.38,19.67-4.36,56.08-4.37,25.47,0,55.33,10.2,85.89,28.39,128.87,98.28,32.76,48.09,43.3,98.67t10.57,120.49a1462.82,1462.82,0,0,1-10.92,181.28q-9.48,72.09-36.4,214-22.57,126-22.58,134c0,.49.12.72.35.72s2.79.86,7.64,2.56,10.69,3.51,17.5,5.46q44.39,14.56,44.41,34.21,0,21.12-54.61,25.49l-32.75,2.18q-16.77,67-23.3,81.53-10.95,23.28-41.51,25.51Zm-57.54-195.12q4.36-2.16,4.37-11.64a78.66,78.66,0,0,0-1.44-13.13q-7.32-56.74-27.32-105.92t-46.22-76.1q-19-18.92-26.2-18.93-20.43,0-43,22.58-28.39,29.13-28.38,74.26,0,73.56,128.87,118.68,28.37,10.2,37.12,10.2Z" transform="translate(-187.26 -71.7)"/><path d="M3439.72,289.4q-45.88,0-56.07-12.38l-10.2-10.2,10.92-32Q3396,205,3396,168.54q0-22.57-2.18-31.31c-1.47-5.81-4.86-11.9-10.2-18.21Q3372,105.91,3372,95.72q0-13.8,24.74-20.37a103.23,103.23,0,0,1,27.67-3.65q36.4,0,57.53,18.93,30.57,29.87,30.57,77.91,0,35.69-16.74,81.53-8,24.78-22.58,32.78Q3461.56,289.41,3439.72,289.4Z" transform="translate(-187.26 -71.7)"/><path d="M3902,1345.84a327.6,327.6,0,0,1-52.43-4.37q-116.51-20.42-152.14-93.93-11.67-21.12-11.66-54.61v-20.38q0-71.35,75.72-168.2,44.39-57.48,109.94-112.12-213.34-203.84-243.9-244.62-60.45-77.91-60.44-158,0-48.78,16.75-83.72,14.57-30.58,47.32-63.34,73.52-72.8,166.73-72.8a268.13,268.13,0,0,1,66.25,8.73q65.51,16,103.39,51.69,61.16,53.9,69.9,139.79,1.46,13.1,1.46,18.93,0,8.75-10.94,10.57t-21.84,4.71q-13.83,0-37.12-9.45-29.13-10.19-39.32-37.15-22.59-64-49.5-91-21.12-21.1-31.32-21.11-22.57,0-59.72,30.59t-54.58,65.16q-17.49,34.59-17.47,71,0,77.17,78.63,161.62,35.67,38.61,156.54,160.91l45.87-25.49q40-22.54,115.75-56.05,150.69-65.5,187.85-65.53,32,.74,34.94,42.23a20.81,20.81,0,0,1-3.63,12.39q0,5.09-9.1,13.1t-52.8,26.2Q4151,827.46,4065.81,882.06L4026.51,909q0,2.92,23.3,34.24,94.63,130.3,94.65,222.78,0,33.52-12.38,61.88-33.51,62.63-102.3,90.29T3902,1345.84Zm-51.68-70.64q10.91,0,32.75-6.55,86.63-22.58,114.31-84.46,5.82-13.8,5.83-34.93,0-32.76-8.73-59-23.31-69.9-56.08-108.48l-27.66,29.85q-80.11,90.27-96.1,174.72a153.24,153.24,0,0,0-.72,15.31,154.81,154.81,0,0,0,2.9,29.11Q3827.73,1275.18,3850.32,1275.2Z" transform="translate(-187.26 -71.7)"/><path d="M444.57,4275.91q-19.65,0-30.57-9.48-46.62-55.32-46.59-503.83,0-211.84,7.27-329.08,4.38-83,16.75-183.48,5.08-46.59,13.12-64.07,10.9-25.47,51.68-25.48a147.52,147.52,0,0,1,34.22,4.37q34.21,8,45.88,25.48,6.54,11.67,7.27,59,0,48.07-7.27,152.17-13.87,211.16-13.85,294.86c0,12.64.49,18.94,1.47,18.94q2.88,0,40-44.42,34.21-40.76,45.13-59,13.11-24,25.49-63.35,24-75.72,24-118a80.21,80.21,0,0,0-.75-12,53.49,53.49,0,0,1-.72-7.67q0-16,34.94-16a111.17,111.17,0,0,1,42.23,8q26.21,10.93,27.67,27.66l.74,19.68q0,102-49.52,186.39-15.3,25.5-45.51,63t-53.49,60.07q-16,16-16,18.93c0,1.46,5.8,3.42,17.47,5.83q37.14,7.29,102.67,48.78,34.9,24,60.41,32t65.16,8.37q39.69.38,55.7,1.81,35.68,3.66,41.51,21.11a76.85,76.85,0,0,1,4.37,24v5.09q-2.19,24.78-63.35,24.76-77.17,0-179.11-64.06-29.87-18.91-47.32-26.23a155.88,155.88,0,0,0-53.15-9.45,242.27,242.27,0,0,0-39.32,3.65q-28.39,5.08-39.3,13.1-5.87,8-5.84,90.26t4.37,140.54q3.63,32.06,10.2,138.32l-14.57,13.11Q487.53,4275.88,444.57,4275.91Z" transform="translate(-187.26 -71.7)"/><path d="M965.06,3445.16q-23.31,0-34.22-1.44-51-14.56-51-49.52c0-5.81,3.39-13.11,10.2-21.84a30.42,30.42,0,0,1,20.37-10.92,185.1,185.1,0,0,1,18.93-.74q27.66,0,56.79,12.38,40.77,18.23,40.77,38.61,0,10.93-11.64,21.83a35.43,35.43,0,0,1-15.28,9.11Q991.28,3445.17,965.06,3445.16ZM970.17,4214q-60.45,0-71.36-40.77-18.22-77.14-18.21-311.61,0-112.12,10.2-259.19,5.09-73.52,13.84-79.37,19.65-12.37,47.32-12.38,40.75,0,61.16,18.21,7.25,5.08,9.08,17.12t2.56,76.79l-1.44,325.46q0,117.21,2.18,164.55,2.89,35.68,2.9,54.59,0,30.59-15.65,38.61T970.17,4214Z" transform="translate(-187.26 -71.7)"/><path d="M1360.38,4345.06q-65.54,0-113.59-49.5-43.69-43-64.78-126.69Q1150,4032,1149.23,3758.24q0-235.15,22.58-366.95-63.35,9.48-78.63,9.46-42.23,0-42.23-29.11,0-16,13.82-26.22,11.64-8,62.26-16.75t54.58-14.54q4-5.82,7.67-41.51,6.56-55.34,59-55.33a136,136,0,0,1,23.29,2.18q27.67,3.63,37.84,14.19t13.13,38.24l3.65,29.1q99.72-10.9,112.12-10.92,43.67,0,43.67,22.58,0,37.14-96.84,48l-64.07,8q-23.31,194.43-23.29,486.37,0,115.05,11.66,198.76,18.18,160.18,68.43,205.32,8.72,5.09,16.75,5.09,10.17,0,18.93-8,42.23-49.48,133.24-287.6,18.18-53.13,29.82-77.88t24.79-31.32c4.37-1.92,11.38-2.9,21.09-2.9q39.3,10.93,39.33,34.94,0,11.67-40.77,136.14-93.21,268.68-174.75,298.51-8.74,3.63-27.66,8Q1371.3,4345.06,1360.38,4345.06Z" transform="translate(-187.26 -71.7)"/><path d="M1797.12,4302.83q-36.4,0-54.61-4.36-91.74-20.39-133.22-171.83-35-122.3-35-264.29,0-104.8,18.94-219.89,59.68-339.26,249-339.27,44.38,0,77.88,16,60.42,29.13,85.21,155.8,8,39.33,8,70.64,0,18.18-2.19,40.76-1.45,17.49-4.36,24-7.29,16-40.77,16-55.33,0-64.81-20.39-2.19-5.1-6.92-56.43a470.36,470.36,0,0,0-20-99.37,2.87,2.87,0,0,1-.74-2.18q-18.19-54.6-25.49-54.61-4.38,0-14.56,12.38-53.18,65.54-86.64,220.6-22.58,117.21-22.56,257.75,0,122.29,25.48,222,29.84,118,45.88,117.95,5.08,0,34.22-36.4,49.47-61.14,115.75-211.14,22.57-51.67,30.59-61.17,13.8-16,43-16,21.11,0,37.86,7.64t18.93,18.56q0,5.85-10.92,36.77t-28,74.26q-17.15,43.35-36,87a457.79,457.79,0,0,1-61.51,101.93q-36.79,45.85-71,64.06a108.65,108.65,0,0,1-28,9.85Q1827,4302.09,1797.12,4302.83Z" transform="translate(-187.26 -71.7)"/><path d="M2595,4293.38a148,148,0,0,1-31.28-3.65q-51-11.64-56.08-45.87-2.92-16.72-5.83-243.91-37.87,5.87-125.22,7.3l-97.57,3.62q4.36,118,4.37,136.89,0,25.5-1.44,30.57-7.32,22.58-59,22.58-61.17-.7-72.07-32-20.43-67.7-20.4-451.4,0-249.72,3.65-275.21,4.35-31.29,50.22-31.32,29.87,0,50.24,8.39t27.67,20.74q12.36,27,13.1,330.55v177.65q163.07-6.55,196.21-9.45t33.15-6.58q1.43-7.24,6.55-136.86,10.17-286.14,49.5-554.08,8-62.57,18.56-72.05t27.32-9.48q15.26,0,35.67,6.55,35.68,10.95,51.69,32.75,4.35,7.32,4.37,43.7,0,48.78-13.11,204.57Q2654,3827.41,2654,4123q0,63.34-.37,94.65t-3.27,45.88c-2,9.71-5,16.12-9.11,19.3s-10.31,5.67-18.56,7.65A122.25,122.25,0,0,1,2595,4293.38Z" transform="translate(-187.26 -71.7)"/><path d="M2937.81,4287.55q-31.33,0-49.53-7.27-62.61-27-97.56-221.35-19.65-111.36-19.65-217.7,0-166,47.32-319.62,38.59-117.22,97.56-166,35-29.13,75.72-29.13,115,0,166,115.78,67,147.79,67,255.56,0,137.63-125.23,198-29.13,13.88-76.1,28t-78.25,20c-8.27,1-13.36,2.42-15.29,4.37s-2.9,6.32-2.9,13.1q0,18.23,16.72,109.94,13.83,77.18,17.49,77.17,5.79,0,30.57-116.49l19.65-9.46q20.38-9.48,40.79-9.48,48,0,48,26.95,0,14.57-8,65.53-12.4,78.65-31.31,116.49-30.6,62.61-96.12,64.81ZM2922.52,3882q48-14.57,68.43-22.58,63.35-23.27,96.1-82.27,14.57-31.29,14.56-83,0-110.65-56.79-233-15.3-32.76-19.65-32.78-8,0-29.13,40.79-40.07,77.18-60.42,204.58-13.1,85.18-13.1,156.53Z" transform="translate(-187.26 -71.7)"/><path d="M3850.72,4309.38a196.83,196.83,0,0,1-37.14-3.62q-32.74-5.13-54.24-16.75t-42.6-34.21q-30.59-31.29-36.77-61.89a290.27,290.27,0,0,1-6.18-57.53q0-92.45,79.35-370.59Q3799,3585,3804.85,3537.63q2.9-29.13,2.9-56.05,0-58.26-7.64-99.74t-19.28-55.36q-7.32,0-43,32.78-53.18,50.25-110.67,163.09-134.7,243.9-141.25,489.26l-5.81,85.18q-2.93,26.21-54.61,33.5a153.13,153.13,0,0,1-20.39,1.44q-36.42,0-55.33-21.83-27-26.94-53.15-216.24-16.76-114.28-16.75-337.82,0-155.81,12-165.27t33.87-9.48q37.11,0,69.89,23.3a44.46,44.46,0,0,1,14.57,16.75q8.72,18.22,18.91,156.54,8,91,10.19,91c.49,0,1-.72,1.47-2.18q5.08-22.59,28.38-77.19,54.6-126.66,105.58-203.14,86.61-130.3,179.11-130.31a154,154,0,0,1,45.86,7.27q56.06,15.33,88.1,48.06,52.41,62.64,52.43,209.69,0,84.45-40.05,239.53-88.11,327.66-88.1,400.44,0,17.49,5.11,39.33,7.24,35.67,16.75,35.67,5.08,0,26.2-10.19,19.65-14.57,49.5-49.87a469.12,469.12,0,0,0,53.89-79.73q91.71-217.69,105.57-267.94,5.1-18.18,13.45-24t26.6-5.83q6.56,0,25.48,8,21.81,9.47,21.84,21.83,0,13.11-12.38,52.43-29.86,100.49-96.84,262.83Q3970.84,4309.38,3850.72,4309.38Z" transform="translate(-187.26 -71.7)"/><path d="M3730,2050.23c88.47,2.58,154.65,36.66,215.19,88.75,34.54,29.72,76,52.78,117.14,73,26.77,13.13,58.36,18.8,88.42,22.18,29.63,3.33,57.68-8.92,69.94-37.54,12.57-29.35,11.42-61.94-10.39-87.23-18.16-21.05-38.91-42.6-63.05-55.3-129.92-68.33-265-71.41-402.48-24.54C3741.05,2030.81,3739.08,2037.22,3730,2050.23Z" transform="translate(-187.26 -71.7)"/><path d="M3646.4,1897c12.65-7.44,20.61-11.48,27.87-16.51,30.91-21.42,64.89-31.47,102.6-30.22,20,.66,40.21,1.12,59.88-1.6s39-8.14,57.59-14.81c21.55-7.73,29.32-26.08,28.75-47.79-.61-23.47-14.28-41.65-37.41-47.78-42.36-11.24-83.81-5.24-121.54,15.42-52.17,28.54-93,69.24-117.57,124.46C3645.27,1881.08,3646.4,1885.07,3646.4,1897Z" transform="translate(-187.26 -71.7)"/><path d="M3717.89,2235.21c43.94,63.84,75.11,113,110.65,158.83,14,18.09,36.25,32,57.51,41.74,25.44,11.68,59.51-11.44,60-40,.34-20-1.24-43.55-11.36-59.58C3888.83,2263.56,3822,2230,3717.89,2235.21Z" transform="translate(-187.26 -71.7)"/><path d="M793.91,1956.88c-88.47,2.58-154.66,36.66-215.19,88.75-34.54,29.72-76,52.77-117.14,73-26.77,13.14-58.36,18.81-88.43,22.19-29.63,3.33-57.68-8.93-69.94-37.55-12.57-29.34-11.42-61.93,10.4-87.22,18.16-21,38.9-42.6,63-55.3,129.92-68.34,265-71.41,402.48-24.54C782.86,1937.46,784.84,1943.86,793.91,1956.88Z" transform="translate(-187.26 -71.7)"/><path d="M877.51,1803.65c-12.65-7.44-20.6-11.48-27.87-16.52-30.91-21.41-64.89-31.46-102.59-30.21-19.95.66-40.22,1.11-59.89-1.6s-39-8.14-57.59-14.82c-21.54-7.72-29.32-26.08-28.75-47.79.62-23.46,14.29-41.64,37.42-47.78,42.35-11.23,83.8-5.23,121.54,15.42,52.16,28.55,93,69.24,117.57,124.47C878.64,1787.73,877.51,1791.72,877.51,1803.65Z" transform="translate(-187.26 -71.7)"/><path d="M806,2141.86c-43.94,63.84-75.11,113-110.65,158.83-14,18.09-36.25,32-57.52,41.74-25.44,11.68-59.51-11.44-60-40-.34-20,1.24-43.55,11.36-59.58C635.08,2170.2,702,2136.66,806,2141.86Z" transform="translate(-187.26 -71.7)"/><polygon style="fill-rule:evenodd;" points="1754.58 2114.11 1521.4 1877.19 1479.91 1919.34 1707.91 2150.99 1754.58 2150.99 1754.58 2114.11"/><path style="fill-rule:evenodd;" d="M1941.84,2158.57a56.32,56.32,0,0,0-53.23,15.31,58.31,58.31,0,0,0-16,48.81h69.26Z" transform="translate(-187.26 -71.7)"/><path style="fill-rule:evenodd;" d="M1272.41,1547.82C1352.94,1466,1514,1497,1632.12,1617s148.63,283.65,68.11,365.46-241.57,50.83-359.71-69.2-148.62-283.66-68.11-365.46Zm4.65,165.2a14.37,14.37,0,0,0,0,20l251.21,255.24a13.82,13.82,0,0,0,19.73,0h0a14.38,14.38,0,0,0,0-20L1296.8,1713a13.84,13.84,0,0,0-19.73,0Zm158-160.48a14.38,14.38,0,0,0,0,20l251.22,255.24a13.83,13.83,0,0,0,19.73,0h0a14.39,14.39,0,0,0,0-20.06l-251.21-255.23a13.84,13.84,0,0,0-19.74,0Zm-79,80.24a14.38,14.38,0,0,0,0,20l251.21,255.23a13.84,13.84,0,0,0,19.74,0h0a14.39,14.39,0,0,0,0-20.06l-251.22-255.23a13.82,13.82,0,0,0-19.73,0Zm-39.49,40.12a14.37,14.37,0,0,0,0,20l251.22,255.24a13.83,13.83,0,0,0,19.73,0h0a14.38,14.38,0,0,0,0-20l-251.21-255.24a13.85,13.85,0,0,0-19.74,0Zm79-80.24a14.38,14.38,0,0,0,0,20L1646.73,1868a13.84,13.84,0,0,0,19.74,0h0a14.39,14.39,0,0,0,0-20.06l-251.22-255.23a13.84,13.84,0,0,0-19.74,0Z" transform="translate(-187.26 -71.7)"/><polygon style="fill-rule:evenodd;" points="2736.34 1877.19 2428.44 2190.02 2428.44 2224.94 2477.04 2224.94 2777.83 1919.34 2736.34 1877.19"/><path style="fill-rule:evenodd;" d="M2743.64,2173.88a56.37,56.37,0,0,0-80.38,0l-47.56,48.33v74.42h87.49l40.45-41.09C2765.75,2233.09,2765.74,2196.33,2743.64,2173.88Z" transform="translate(-187.26 -71.7)"/><path style="fill-rule:evenodd;" d="M3359.85,1547.82c80.51,81.8,50,245.43-68.12,365.46s-279.19,151-359.7,69.2-50-245.43,68.11-365.46,279.18-151,359.71-69.2Zm-4.66,165.2h0a13.84,13.84,0,0,0-19.73,0l-251.22,255.24a14.38,14.38,0,0,0,0,20h0a13.82,13.82,0,0,0,19.73,0l251.22-255.24a14.36,14.36,0,0,0,0-20Zm-157.94-160.48h0a13.84,13.84,0,0,0-19.74,0l-251.22,255.23a14.39,14.39,0,0,0,0,20.06h0a13.83,13.83,0,0,0,19.73,0l251.22-255.24a14.39,14.39,0,0,0,0-20Zm79,80.24h0a13.84,13.84,0,0,0-19.74,0L3005.27,1888a14.39,14.39,0,0,0,0,20.06h0a13.83,13.83,0,0,0,19.73,0l251.22-255.23a14.38,14.38,0,0,0,0-20Zm39.49,40.12h0a13.84,13.84,0,0,0-19.73,0l-251.22,255.24a14.38,14.38,0,0,0,0,20h0a13.83,13.83,0,0,0,19.73,0l251.21-255.24a14.37,14.37,0,0,0,0-20Zm-79-80.24a13.83,13.83,0,0,0-19.73,0l-251.22,255.23a14.39,14.39,0,0,0,0,20.06h0a13.84,13.84,0,0,0,19.74,0l251.22-255.24a14.38,14.38,0,0,0,0-20Z" transform="translate(-187.26 -71.7)"/><path d="M1812.48,2664.91c-24.47-4.59-46.15,2.48-66.4,15.81-14.79,9.74-26.83,22.73-40.76,36.94-19.43-28.1-35.85-56.48-62.4-76.14-33.05-24.48-59.2-11.75-65.92,29-21.9,132.81,94.17,264.12,109.74,256.31,9.21-4.63,108.1-109.11,143.1-147.87a106.36,106.36,0,0,0,25-48.76C1862.3,2696.87,1845.33,2671.07,1812.48,2664.91Z" transform="translate(-187.26 -71.7)"/><path d="M2068.35,2609.55c10.29-59.15-13.08-101.93-62.36-132-15.7-9.56-31.63-18.77-47.64-27.79a685.9,685.9,0,0,0-108.91-49.07c-1.52-38.71-16.09-58-50.06-66.81a62.85,62.85,0,0,0-37.23,1.38c-17.09,5.94-23,21.11-29.31,35.45-3.48-.3-5.79-.34-8-.72-69.45-11.59-150.59-15.77-218.82,1.71-42.32,10.85-69,34.92-95.37,74.39-65.44-38.55-130.64-75.07-198-107.13-73.35-34.89-149.08-62.94-230.35-72.43a86.8,86.8,0,0,0-50.07,8.83c-14.92,7.45-21,18.37-19.69,35.24,2.54,31.64,23.87,56.42,55.53,62.9,11.38,2.33,21.93,6.3,32.64,10.46,23,8.94,46.1,17.81,69.55,25.45,48.59,15.85,98.75,26.26,146.87,43.88,58.31,21.37,114.79,46.68,170,80.31-3,19.27-5,40.72-9.9,61.47-12.65,53.77-18.15,107.64-12.65,163,7.33,73.77,38,131,105.53,163.83,123.73,60.16,243.19,96.7,380.73,75.4,19.57-3,62.89-14.49,81-24.46,30.86-17,46.31-34.08,62.46-66.07C2058.18,2780.2,2066.56,2619.88,2068.35,2609.55ZM954.93,2302.82c23.2-14.78,44.14-10.34,58,11.42C999,2332.91,968.09,2327.24,954.93,2302.82Zm524.43,115.85c4.44-4.23,18.23-11.66,21.18-12.25,76.12-15.17,152.38-16.06,228.57-3.88,5.62,38.69,16.59,51.37,49.61,58.55,31.94,7,40,3.17,60.45-29.45,58.79,20.06,112.91,47.24,161.9,84.54a123.35,123.35,0,0,1,26,27.74c6.91,9.81,4.92,17.15-5,23-20.3,12.1-43,15.46-65.74,17.35-73.36,6.12-145.28-4.53-216.35-21.93-72.29-17.69-142.79-41.22-212-68.78-20.54-8.17-39.33-18.84-54.45-35.39C1460.4,2443.81,1465.3,2432.06,1479.36,2418.67Zm487.85,481c-26.18,39.91-67.54,61.12-140.89,72.14-62.15,9.33-270.8-42.85-307.57-58.74-64.16-27.73-110.88-72.94-118.38-148.09-6.38-63.91,6.6-188.24,25.21-273.73,76.58,80.09,173.87,109.18,276.74,125.18,46.39,7.21,109.44,20.33,190.83,24.12,2.58.12,5.83,1,7.36-3.76-9.57-9.69-165.71-27.5-232.79-48.57-68.26-21.43-135.8-42.22-195-84.11-9.86-7-19-15.07-28.38-22.72-10.21-8.29-12.9-17.31-1.8-28,14.93,25.22,37.4,41.67,63.38,52.35,89.55,36.82,179.2,73.71,275,91.06,65.76,11.9,131.86,18.82,198.48,6.42,21.52-4,42-10.81,64.58-25.88C2041,2631.66,2019.35,2820.21,1967.21,2899.68Z" transform="translate(-187.26 -71.7)"/><path d="M2915.23,2635.06c-24.77,2.41-43.71,15.26-59.57,33.72-11.6,13.5-19.66,29.34-29.22,46.89-26.27-21.6-49.73-44.3-80.57-55.8-38.4-14.33-60.11,5.21-55.56,46.24,14.83,133.82,161.92,227.7,174.78,215.84,7.61-7,74.46-135.06,97.65-182.1a107.18,107.18,0,0,0,10.9-53.86C2971.78,2651.89,2948.49,2631.82,2915.23,2635.06Z" transform="translate(-187.26 -71.7)"/><path d="M2538,2906.86c16.15,32,31.59,49.1,62.46,66.07,18.15,10,61.47,21.43,81,24.46,137.53,21.3,257-15.24,380.72-75.4,67.5-32.81,98.21-90.06,105.54-163.83,5.5-55.4,0-109.27-12.66-163-4.88-20.75-6.88-42.2-9.9-61.47,55.18-33.63,111.66-58.94,170-80.31,48.12-17.62,98.28-28,146.87-43.88,23.45-7.64,46.53-16.51,69.54-25.45,10.72-4.16,21.26-8.13,32.64-10.46,31.66-6.48,53-31.26,55.53-62.9,1.36-16.87-4.76-27.79-19.68-35.24a86.81,86.81,0,0,0-50.07-8.83c-81.27,9.49-157,37.54-230.35,72.43-67.4,32.06-132.59,68.58-198,107.13-26.4-39.47-53.06-63.54-95.38-74.39-68.22-17.48-149.36-13.3-218.81-1.71-2.26.38-4.56.42-8.05.72-6.31-14.34-12.22-29.51-29.31-35.45a62.85,62.85,0,0,0-37.23-1.38c-34,8.77-48.54,28.1-50,66.81a685.9,685.9,0,0,0-108.91,49.07c-16,9-31.94,18.23-47.64,27.79-49.28,30-72.65,72.8-62.37,132C2465.64,2619.88,2474,2780.2,2538,2906.86Zm981.26-592.62c13.9-21.76,34.84-26.2,58-11.42C3564.11,2327.24,3533.23,2332.91,3519.23,2314.24Zm-460.6,144c-15.13,16.55-33.92,27.22-54.45,35.39-69.23,27.56-139.73,51.09-212,68.78-71.08,17.4-143,28.05-216.36,21.93-22.71-1.89-45.43-5.25-65.74-17.35-9.91-5.9-11.89-13.24-5-23a123.62,123.62,0,0,1,26.05-27.74c49-37.3,103.11-64.48,161.9-84.54,20.45,32.62,28.5,36.41,60.44,29.45,33-7.18,44-19.86,49.62-58.55,76.19-12.18,152.45-11.29,228.57,3.88,3,.59,16.74,8,21.18,12.25C3066.89,2432.06,3071.79,2443.81,3058.63,2458.22Zm-570.41,119.12c22.57,15.07,43.06,21.87,64.58,25.88,66.62,12.4,132.72,5.48,198.48-6.42,95.75-17.35,185.41-54.24,274.95-91.06,26-10.68,48.45-27.13,63.39-52.35,11.09,10.7,8.4,19.72-1.8,28-9.41,7.65-18.52,15.73-28.39,22.72-59.16,41.89-126.69,62.68-194.95,84.11-67.08,21.07-223.22,38.88-232.79,48.57,1.53,4.8,4.77,3.88,7.35,3.76,81.4-3.79,144.45-16.91,190.83-24.12,102.88-16,200.17-45.09,276.75-125.18,18.61,85.49,31.59,209.82,25.21,273.73-7.51,75.15-54.22,120.36-118.38,148.09-36.77,15.89-245.43,68.07-307.57,58.74-73.35-11-114.71-32.23-140.9-72.14C2512.84,2820.21,2491.21,2631.66,2488.22,2577.34Z" transform="translate(-187.26 -71.7)"/><path d="M1915.72,2031.38c6.83,25.68,14.8,51.08,23.53,76.15a1232.57,1232.57,0,0,0,60.45,143.23c23.55,47.44,51,92.63,76.34,139.06,13.68,25,25.65,51.6,42.71,74.53,13.27,17.86,44.47,52.27,69,49.2,8.91-1.11,22.93-7.49,28.92-14.28,44.18-50.06,19.55-200,11.26-278.47-11.12-105.23-30.8-210.22-69.71-308.78-14.06-35.64-38.55-56.88-76.53-61.27-5-.57-9.86-1.81-15.71-2.92,3.42.65,22.07-42.12,24.71-47.26,8.43-16.41,16.28-33.24,21.24-51.11,1.5-5.41,2.74-11,2.26-16.6-1.94-22.4-25.44-22.53-40-13.5-15.06,9.32-25.9,23.71-38.65,35.76,1.63-15.24,3.1-28.64,4.51-42a77.08,77.08,0,0,0-.82-24c-4.67-22-26.22-28.78-42.5-13.49-10.65,10-14.92,23.55-19.51,36.87-2,5.63-3.37,11.45-5.47,18.68-12.69-20-26.72-36.19-45-48.11-9.46-6.18-19.65-13-30.83-5.37-10.92,7.44-9.65,19.46-7.83,30.9,3,18.79,10.17,36.23,17,53.77,1.81,4.64,3.79,9.22,6.29,15.27-17.59-6-34-10.67-51.42-7.6-12,2.11-22.26,5.87-27.17,18.77-5.22,13.72-1.11,25.41,7.59,35.33,17.9,20.4,40.36,34.7,64.37,46.53,10,4.9,20.17,9.23,31,14.17C1902.87,1930.5,1901.91,1980.31,1915.72,2031.38Zm20.32-66.2c1-27.7,10.34-51.53,32-69.63a77.66,77.66,0,0,1,33.57-16.42,225,225,0,0,1,54-5.57c42.58.89,63.82,18.1,75.39,62.33-23.11,2.24-43.78,9.41-60.2,25-5.61,5.34-2.15,14.91,5.54,15,22.7.19,44.76-9.3,68-5.83,20.8,57.91,39,117,50.76,178.82a269.71,269.71,0,0,0-63.38,15.93c-5.64,2.2-11.42,4.16-16.17,8.11-3.48,2.89-5.78,7.28-5.32,11.82.69,6.75,6.18,8.79,11.46,8.9a132,132,0,0,0,19.47-1c19.22-2.45,38-7.54,56.59-11.79,2.56,3.75,2.41,7.11,2.72,10.36,3.05,31,39.19,230.44,9.81,287.77-6.91,13.49-26.28,18.07-45.49,5.85-8.33-5.3-53.71-78.52-68-102.25-3-5-5.27-10.34-8.24-16.24,8.07-2.19,14.84-3.82,21.47-5.89s13.46-3.91,19.37-7.83c5-3.33,8.35-7.93,6.82-14.29s-6.47-8.86-12.57-9.12a61.6,61.6,0,0,0-16.59,1.58c-10.61,2.42-19.69,8.25-30.19,13.38-29.88-45.85-102.61-211.38-112.65-256.25a147.88,147.88,0,0,1,37.9-13c13.72-2.55,27.29-5.85,40.31-11,6-2.36,10.81-6.56,9.64-13.79-1.15-7.08-7.4-8.89-13.86-9.58a81.32,81.32,0,0,0-27.13,2c-19.65,4.58-38.64,10.8-54.8,24.1C1942.55,2031,1935,1993.34,1936,1965.18Z" transform="translate(-187.26 -71.7)"/><path d="M2597.84,1897.49c11-4.52,21.41-8.45,31.54-13,24.43-10.9,47.4-24.32,66-44,9.07-9.58,13.61-21.1,8.9-35-4.42-13.09-14.55-17.23-26.45-19.8-17.32-3.74-33.86.32-51.67,5.61,2.73-5.94,4.88-10.44,6.86-15,7.48-17.27,15.31-34.42,19-53.08,2.24-11.36,4-23.33-6.68-31.18-10.89-8-21.32-1.62-31,4.19-18.68,11.2-33.3,26.85-46.72,46.34-1.83-7.3-3-13.17-4.77-18.88-4.1-13.48-7.86-27.19-18.13-37.59-15.7-15.9-37.49-10-43,11.85a77.1,77.1,0,0,0-1.72,24c.92,13.45,1.88,26.89,3,42.18-12.29-12.52-22.59-27.32-37.3-37.21-14.25-9.59-37.74-10.36-40.5,11.95-.69,5.57.33,11.21,1.63,16.68,4.29,18,11.52,35.16,19.32,51.88,2.45,5.23,19.5,48.7,22.94,48.18-5.88.88-10.82,1.93-15.81,2.31-38.12,2.93-63.37,23.21-78.76,58.29-42.54,97-66.12,201.15-81.14,305.88-11.21,78.13-41.4,227,.88,278.7,5.74,7,19.51,13.93,28.36,15.38,24.39,4,56.84-29.17,70.78-46.51,17.89-22.26,30.84-48.33,45.45-72.84,27.06-45.42,56.15-89.53,81.46-136A1234.07,1234.07,0,0,0,2586.06,2120c9.65-24.72,18.56-49.79,26.34-75.19C2628.1,1994.27,2629,1944.46,2597.84,1897.49Zm-27.3,181c-15.65-13.92-34.39-20.86-53.86-26.2a81.6,81.6,0,0,0-27-3c-6.49.43-12.8,2-14.21,9-1.43,7.19,3.24,11.57,9.12,14.16,12.82,5.64,26.25,9.46,39.87,12.54a148.32,148.32,0,0,1,37.39,14.42c-11.7,44.46-90.54,207.07-122.11,251.74-10.3-5.53-19.16-11.7-29.66-14.53a62,62,0,0,0-16.53-2.22c-6.11,0-11.12,2.31-12.9,8.64s1.41,11,6.29,14.54c5.76,4.14,12.49,6.24,19.06,8.57s13.25,4.21,21.23,6.71c-3.18,5.77-5.66,11.07-8.83,15.91-15.14,23.16-63.22,94.59-71.74,99.56-19.65,11.48-38.84,6.16-45.24-7.59-27.22-58.41,16.32-256.3,20.51-287.19.44-3.23.41-6.59,3.11-10.25,18.44,5,37,10.77,56.11,14a131.64,131.64,0,0,0,19.41,1.78c5.28.09,10.85-1.73,11.79-8.46.63-4.52-1.5-9-4.87-12-4.61-4.13-10.31-6.31-15.86-8.72a269.75,269.75,0,0,0-62.74-18.36c14-61.34,34.44-119.68,57.37-176.74,23.39-2.58,45.08,7.76,67.77,8.44,7.69.23,11.5-9.2,6.09-14.75-15.82-16.25-36.21-24.21-59.22-27.34,13.21-43.76,35.07-60.14,77.65-59.39a225.58,225.58,0,0,1,53.77,7.63,77.73,77.73,0,0,1,32.93,17.71c20.94,18.92,29.33,43.09,29.35,70.8C2594.58,2006,2585.61,2043.34,2570.54,2078.47Z" transform="translate(-187.26 -71.7)"/></svg>


