<svg xmlns="http://www.w3.org/2000/svg" viewBox="0 0 4226.65 4348.33" width="500" height="500"><path style="fill-rule:evenodd;" d="M3229.18,4336.09c-44.46,17.24-44.75,19.59-92.8,19.59H2676.92v25.94h460.84c45,0,49-.76,91.42,13.49-44.46,17.22-44.75,16.09-92.8,16.09l-459.46,7h-58.34c-34,0-54.46-31.49-70.83-58.27-50.19-82.17-1073,84.68-1302.62,48.46-199.56-31.46-199-172.37,0-203.74,229.66-36.22,1252.42,130.66,1302.62,48.47,16.36-26.78,36.83-58.27,70.83-58.27h58.34l460.84,7c45,0,49-.75,91.42,13.48-44.46,17.23-44.75,16.11-92.8,16.11H2676.92v25.94h460.84c45,0,49,2.71,91.42,17-44.46,17.23-44.75,19.58-92.8,19.58H2676.92v25.29h460.84C3182.78,4319.14,3186.77,4321.86,3229.18,4336.09Z" transform="translate(-120 -69.83)"/><path style="fill-rule:evenodd;" d="M1435.1,2946.21H1011.7a40.5,40.5,0,0,0-34.58,19.56H708.41v-90.62a26.81,26.81,0,0,0-26.73-26.73H439.82A81.07,81.07,0,0,0,359,2929.26V3044a81.07,81.07,0,0,0,80.84,80.84H679.73a28.77,28.77,0,0,0,28.68-28.68v-88.67H977.12a40.51,40.51,0,0,0,34.58,19.57h423.4a40.55,40.55,0,0,0,40.42-40.43h0A40.54,40.54,0,0,0,1435.1,2946.21ZM664.74,3085.14H414.4a11.09,11.09,0,0,1,0-22.17H664.74a11.09,11.09,0,0,1,0,22.17Zm0-44.35H414.4a11.09,11.09,0,0,1,0-22.17H664.74a11.09,11.09,0,0,1,0,22.17Zm0-44.35H414.4a11.09,11.09,0,0,1,0-22.17H664.74a11.09,11.09,0,0,1,0,22.17Zm0-44.35H414.4a11.09,11.09,0,0,1,0-22.17H664.74a11.09,11.09,0,0,1,0,22.17Zm0-44.35H414.4a11.09,11.09,0,0,1,0-22.17H664.74a11.09,11.09,0,0,1,0,22.17Zm749.56,95.84a16.95,16.95,0,1,1,17-16.95A17,17,0,0,1,1414.3,3003.58Z" transform="translate(-120 -69.83)"/><path style="fill-rule:evenodd;" d="M2970.31,2986.63h0a40.55,40.55,0,0,0,40.42,40.43h423.4a40.51,40.51,0,0,0,34.58-19.57h268.71v88.67a28.77,28.77,0,0,0,28.68,28.68H4006a81.07,81.07,0,0,0,80.84-80.84V2929.26a81.07,81.07,0,0,0-80.84-80.84H3764.15a26.81,26.81,0,0,0-26.73,26.73v90.62H3468.71a40.5,40.5,0,0,0-34.58-19.56h-423.4A40.54,40.54,0,0,0,2970.31,2986.63Zm799.7,87.43a11.12,11.12,0,0,1,11.08-11.09h250.34a11.09,11.09,0,0,1,0,22.17H3781.09A11.11,11.11,0,0,1,3770,3074.06Zm0-44.35a11.12,11.12,0,0,1,11.08-11.09h250.34a11.09,11.09,0,0,1,0,22.17H3781.09A11.12,11.12,0,0,1,3770,3029.71Zm0-44.35a11.12,11.12,0,0,1,11.08-11.09h250.34a11.09,11.09,0,0,1,0,22.17H3781.09A11.12,11.12,0,0,1,3770,2985.36Zm0-44.35a11.12,11.12,0,0,1,11.08-11.09h250.34a11.09,11.09,0,0,1,0,22.17H3781.09A11.12,11.12,0,0,1,3770,2941Zm0-44.36a11.11,11.11,0,0,1,11.08-11.08h250.34a11.09,11.09,0,0,1,0,22.17H3781.09A11.12,11.12,0,0,1,3770,2896.65Zm-755.43,90a17,17,0,1,1,17,16.95A17,17,0,0,1,3014.58,2986.63Z" transform="translate(-120 -69.83)"/><path d="M1335,1799.18c-79.77,2.32-139.44,33.06-194,80-31.14,26.8-68.48,47.59-105.61,65.81-24.13,11.84-52.62,17-79.72,20-26.72,3-52-8-63.06-33.85-11.34-26.46-10.3-55.84,9.37-78.64,16.37-19,35.08-38.41,56.84-49.86,117.14-61.61,239-64.38,362.88-22.12C1325,1781.67,1326.81,1787.45,1335,1799.18Z" transform="translate(-120 -69.83)"/><path d="M1410.37,1661c-11.41-6.71-18.58-10.35-25.13-14.89-27.87-19.31-58.5-28.37-92.5-27.24-18,.59-36.26,1-54-1.44s-35.14-7.35-51.92-13.36c-19.43-7-26.44-23.52-25.93-43.09.56-21.16,12.88-37.55,33.74-43.08,38.18-10.13,75.55-4.72,109.58,13.9,47,25.74,83.84,62.43,106,112.22C1411.39,1646.68,1410.37,1650.27,1410.37,1661Z" transform="translate(-120 -69.83)"/><path d="M1345.92,1966c-39.62,57.56-67.72,101.91-99.76,143.2-12.66,16.31-32.69,28.83-51.86,37.63-22.94,10.53-53.66-10.31-54.1-36.07-.31-18,1.12-39.26,10.25-53.72C1191.79,1991.51,1252.08,1961.27,1345.92,1966Z" transform="translate(-120 -69.83)"/><path d="M3105,1799.18c79.77,2.32,139.44,33.06,194,80,31.14,26.8,68.48,47.59,105.61,65.81,24.14,11.84,52.62,17,79.73,20,26.71,3,52-8,63.05-33.85,11.34-26.46,10.3-55.84-9.37-78.64-16.37-19-35.07-38.41-56.84-49.86-117.14-61.61-238.94-64.38-362.87-22.12C3115,1781.67,3113.17,1787.45,3105,1799.18Z" transform="translate(-120 -69.83)"/><path d="M3029.61,1661c11.41-6.71,18.58-10.35,25.13-14.89,27.87-19.31,58.51-28.37,92.5-27.24,18,.59,36.26,1,54-1.44s35.15-7.35,51.93-13.36c19.42-7,26.43-23.52,25.92-43.09-.55-21.16-12.88-37.55-33.73-43.08-38.19-10.13-75.56-4.72-109.58,13.9-47,25.74-83.84,62.43-106,112.22C3028.6,1646.68,3029.61,1650.27,3029.61,1661Z" transform="translate(-120 -69.83)"/><path d="M3094.07,1966c39.61,57.56,67.72,101.91,99.76,143.2,12.65,16.31,32.68,28.83,51.85,37.63,22.94,10.53,53.66-10.31,54.1-36.07.31-18-1.12-39.26-10.24-53.72C3248.19,1991.51,3187.9,1961.27,3094.07,1966Z" transform="translate(-120 -69.83)"/><path d="M862.27,411.55l234.14,357.53q5.27,12.66,5.28,19a34.41,34.41,0,0,1-9,23.73c-6,6.69-13.89,9.66-23.73,9H980.4q-19,0-29.53-20L774.74,524.4V795.45q0,9.48-7.39,17.4a23.64,23.64,0,0,1-17.93,7.91h-77a26.52,26.52,0,0,1-19.51-7.91q-7.9-7.92-7.91-17.4V109.91q0-10.53,7.91-19a25.7,25.7,0,0,1,19.51-8.44h77q10.53,0,17.93,8.44a28.12,28.12,0,0,1,7.39,19V304L905.52,102.53a68,68,0,0,1,15.29-14.77c6-4.22,11.76-6,17.4-5.27l78-1.06Q1031,82.5,1041,92t10,22.15c0,7-1.42,12-4.22,14.76Z" transform="translate(-120 -69.83)"/><path d="M1304.71,812.32q-7.92,8.46-18.46,8.44h-78a25.62,25.62,0,0,1-19.51-8.44,28.29,28.29,0,0,1-7.91-20V109.91a28.35,28.35,0,0,1,7.91-20,25.69,25.69,0,0,1,19.51-8.44h78q10.53,0,18.46,8.44a28.35,28.35,0,0,1,7.91,20V792.28A28.29,28.29,0,0,1,1304.71,812.32Z" transform="translate(-120 -69.83)"/><path d="M1613.19,79.32h117.06a33,33,0,0,1,21.63,7.39q8.94,7.38,9,17.93V175.3q0,10.56-9,17.93t-21.63,7.38h-89.64V790.17a28.29,28.29,0,0,1-7.91,20,25.65,25.65,0,0,1-19.51,8.44h-78q-10.56,0-19-8.44a27.29,27.29,0,0,1-8.44-20V200.61h-85.43q-13.72,0-22.15-6.85t-8.43-18.46V104.64q0-11.6,8.43-18.46t22.15-6.86h190.9Z" transform="translate(-120 -69.83)"/><path d="M2145.79,582.4h71.72a29.49,29.49,0,0,1,21.62,9q8.94,9,9,22.67v5.28q0,55.9-25.84,103.35t-70.13,74.89A182.88,182.88,0,0,1,2053,826h-33.75q-53.79,0-98.61-27.95t-70.14-75.41q-26.37-46.39-26.36-103.35V270.22q0-54.83,25.83-100.72a197.79,197.79,0,0,1,71.2-73.3q43.23-26.36,97-26.37h33.74q53.79,0,98.62,26.37T2221.73,169Q2247,214.33,2247,270.22v1q1,12.66-8.44,22.68t-21.09,10h-71.72q-12.66,0-22.15-10t-9.49-22.68v-3.16q0-35.84-22.68-58.53T2034,186.9h-4.21q-32.71,0-57.48,24.26t-23.73,58V614q0,34.82,24.78,60.65t56.43,25.84H2034q33.75,0,57-25.32t23.2-61.17q0-13.69,9.49-22.67t9.49-9Z" transform="translate(-120 -69.83)"/><path d="M2697.38,81.43h75.93a29.19,29.19,0,0,1,20.57,8.44q8.94,8.46,9,19V790.17q0,11.63-9,20a29.11,29.11,0,0,1-20.57,8.44h-75.93a29.06,29.06,0,0,1-20.57-8.44q-9-8.43-9-20V497L2468.51,498V790.17A28.81,28.81,0,0,1,2440,818.65H2362q-10.56,0-19-8.44a27.29,27.29,0,0,1-8.44-20V108.85q0-10.53,8.44-19t19-8.44H2440a28.35,28.35,0,0,1,20,7.91,25.72,25.72,0,0,1,8.43,19.51V369.36l199.34-1.06V108.85q0-10.53,9-19A29.14,29.14,0,0,1,2697.38,81.43Z" transform="translate(-120 -69.83)"/><path d="M3233.14,208h-213V369.36h161.36q11.6,0,19,7.38t7.38,19v73.82q0,11.63-7.38,19t-19,7.38H3020.1v192h213a28.35,28.35,0,0,1,20,7.91,25.7,25.7,0,0,1,8.44,19.51v72.77a28.82,28.82,0,0,1-28.48,28.48H2922q-12.65,0-20.56-8.44a28.24,28.24,0,0,1-7.91-20V106.75a26.52,26.52,0,0,1,7.91-19.52q7.9-7.91,20.56-7.91h311.13a28.35,28.35,0,0,1,20,7.91,25.74,25.74,0,0,1,8.44,19.52v72.77A28.81,28.81,0,0,1,3233.14,208Z" transform="translate(-120 -69.83)"/><path d="M3714.06,78.27h80.16q9.48,0,18.45,7.38t9,13.71V781.74q0,16.88-7.91,26.36t-19.51,9.49H3685.59q-11.62,0-22.68-7.91t-15.29-18.45L3476.76,324l9.49,465.11a28.26,28.26,0,0,1-7.91,20q-7.9,8.45-20.56,8.43h-78.05a29.11,29.11,0,0,1-20.57-8.43q-9-8.43-9-20V106.75q0-11.59,9-20a29.16,29.16,0,0,1,20.57-8.44h125.51q12.65,0,24.25,7.91t14.77,18.46l152.93,457.72-10.55-455.61a28.34,28.34,0,0,1,7.91-20A25.69,25.69,0,0,1,3714.06,78.27Z" transform="translate(-120 -69.83)"/><path d="M449.74,1374.29v-2.85Q464,1357.19,468,1325.23t4-73v-190q-18.25,0-34.51.57a223.9,223.9,0,0,0-30.81,3.14,138.56,138.56,0,0,0-27.95,8,92,92,0,0,0-25.39,15.69l-2.85-.57L371,967.54l2.85-1.14q7.41,3.42,19.68,5.14t27.95,2.56q15.69.85,33.66.86H591.51q18,0,33.66-.86t28.23-2.56q12.55-1.71,20-5.14l2.85,1.14,20.54,121.52-2.85.57a92.16,92.16,0,0,0-25.39-15.69,138,138,0,0,0-28.24-8,231.22,231.22,0,0,0-31.09-3.14q-16.26-.55-34.51-.57v190q0,41.08,4.28,73t18,46.21v2.85Z" transform="translate(-120 -69.83)"/><path d="M875.32,975v2.85q-13.7,14.27-18,46.21t-4.28,73V1149l128.36-16V1097q0-41.07-4.28-73t-18-46.21V975h147.18v2.85q-13.69,14.27-18,46.21t-4.28,73v155.17q0,41.08,4.28,73t18,46.21v2.85H959.18v-2.85q13.68-14.25,18-46.21t4.28-73v-45.64l-128.36,16v29.66q0,41.08,4.28,73t18,46.21v2.85H728.13v-2.85q13.7-14.25,18-46.21t4.28-73V1097q0-41.07-4.28-73t-18-46.21V975Z" transform="translate(-120 -69.83)"/><path d="M1149.14,1374.29v-2.85q13.69-14.25,18-46.21t4.28-73V1097q0-41.07-4.28-73t-18-46.21V975h225.63q18,0,33.66-.86t28-2.56q12.25-1.71,19.68-5.14l2.85,1.14,20.54,121.52-2.85.57a100.91,100.91,0,0,0-26-15.69,137.37,137.37,0,0,0-28.52-8,240.08,240.08,0,0,0-31.67-3.14q-16.54-.55-35.36-.57h-81v74.16h65a410.11,410.11,0,0,0,50.77-2.85q22.81-2.85,35.37-13.69l2.86,1.14v115.81l-2.86,1.14a101.33,101.33,0,0,0-25.67-16.54,123.18,123.18,0,0,0-27.67-8.28,222.08,222.08,0,0,0-30.8-3.13q-16.26-.57-35.09-.57h-31.94V1287h89.56q18.83,0,35.37-.28a209.54,209.54,0,0,0,31.66-2.86,126.41,126.41,0,0,0,28.53-8.27,107.83,107.83,0,0,0,26-16l2.86.57-20.54,121.51-2.85,1.14q-7.42-3.42-19.68-5.13t-28-2.57q-15.69-.86-33.66-.86H1149.14Z" transform="translate(-120 -69.83)"/><path d="M1662,1374.29v-2.85q13.68-14.25,18-46.21t4.27-73V1097q0-41.07-4.27-73t-18-46.21V975h175.7a585.94,585.94,0,0,1,60.47,3.14q30.24,3.14,54.2,14a95.45,95.45,0,0,1,38.79,31.38Q2006,1044,2006,1078.22q0,30.24-13.13,52.77t-37.08,39.07a111.57,111.57,0,0,1,26.53,13.12,104.49,104.49,0,0,1,22.53,20.26,93.35,93.35,0,0,1,15.41,26.81,90.81,90.81,0,0,1,5.7,32.23q0,29.1-9.7,50.2a94,94,0,0,1-26.81,34.8,112.62,112.62,0,0,1-40.22,20.25,179.63,179.63,0,0,1-49.34,6.56ZM1786.93,1141q58.18,0,85.86-11.7t27.67-36.79q0-16-16.26-24.53t-51.63-8.56q-11.41,0-23.11.86t-22.53,2Zm84.43,62.75q-20.53,4.58-41.64,7.13t-42.79,3.71v73.59q29.1,1.71,50.77,1.71,11.41,0,25.68-1.14a105.13,105.13,0,0,0,26.52-5.42,54.28,54.28,0,0,0,20.83-12.83q8.55-8.57,8.55-23.39a34,34,0,0,0-4.28-16.83,50.9,50.9,0,0,0-11.12-13.69,53.28,53.28,0,0,0-15.4-9.42A45.84,45.84,0,0,0,1871.36,1203.72Z" transform="translate(-120 -69.83)"/><path d="M2063,1374.29v-2.85q13.68-14.25,18-46.21t4.27-73V1097q0-41.07-4.27-73t-18-46.21V975h225.62q18,0,33.66-.86t27.95-2.56q12.27-1.71,19.69-5.14l2.85,1.14,20.53,121.52-2.85.57a100.74,100.74,0,0,0-26-15.69,137.37,137.37,0,0,0-28.52-8,239.93,239.93,0,0,0-31.66-3.14q-16.56-.55-35.37-.57h-81v74.16h65a410.22,410.22,0,0,0,50.77-2.85q22.81-2.85,35.37-13.69L2342,1121v115.81l-2.85,1.14a101.51,101.51,0,0,0-25.67-16.54,123.33,123.33,0,0,0-27.67-8.28A222.39,222.39,0,0,0,2255,1210q-16.26-.57-35.08-.57h-32V1287h89.57q18.83,0,35.37-.28a209.66,209.66,0,0,0,31.66-2.86,126.48,126.48,0,0,0,28.52-8.27,107.88,107.88,0,0,0,26-16l2.85.57-20.54,121.51-2.85,1.14q-7.41-3.42-19.68-5.13t-27.95-2.57q-15.71-.86-33.66-.86H2063Z" transform="translate(-120 -69.83)"/><path d="M2444.69,1222.55q10.83,13.68,29.37,26.81a221.74,221.74,0,0,0,42.22,23.1,293.32,293.32,0,0,0,50.77,16,251.9,251.9,0,0,0,54.48,6q20,0,33.09-6.28t13.12-21.11v-2.85q0-10.83-8.84-18.54t-24.25-14a340,340,0,0,0-35.65-12q-20.27-5.68-43.07-12.55a294.3,294.3,0,0,1-42.5-16.25,133.72,133.72,0,0,1-34.23-23.11,101.36,101.36,0,0,1-23.11-32.8q-8.55-19.11-8.55-45.35v-5.71q0-37.65,15.11-60.47a100.27,100.27,0,0,1,38.8-34.8,165.18,165.18,0,0,1,51.91-16,393.36,393.36,0,0,1,55-4q13.7,0,28,1.43t27.09,2.85q12.84,1.44,23.68,2.85a142.22,142.22,0,0,0,18.25,1.43q8.57,0,16.83-.57a30.5,30.5,0,0,0,14.55-4.56l2.85.57q2.85,33.66,5.71,66.74t5.7,66.75l-2.28,1.14q-9.7-12-26.24-21.68a208.12,208.12,0,0,0-35.94-16.54,255.43,255.43,0,0,0-40.22-10.56,221.92,221.92,0,0,0-38.51-3.7q-23.4,0-38.79,5.7t-15.4,19.4q0,9.13,5.7,14.83a50.68,50.68,0,0,0,15.12,10,162.82,162.82,0,0,0,22.25,8q12.84,3.72,27.1,7.7,25.09,7.42,51.62,15.69a195.57,195.57,0,0,1,48.49,22.53,115.7,115.7,0,0,1,35.94,37.08q14,22.83,14,59.33v5.71q0,35.38-13.69,58.47a105.76,105.76,0,0,1-35.94,36.8q-22.24,13.7-50.49,19.11a327.87,327.87,0,0,1-104.68,2.28q-20-3.14-35.37-7.13t-26.81-7.13a78.44,78.44,0,0,0-20.54-3.14,48.8,48.8,0,0,0-14.26,2.28,28.46,28.46,0,0,0-12,6.85l-2.85-.57-15.41-145.47Z" transform="translate(-120 -69.83)"/><path d="M2895.93,1374.29v-2.85q14.25-14.25,18.26-46.21t4-73v-190q-18.27,0-34.52.57a223.91,223.91,0,0,0-30.8,3.14,138.56,138.56,0,0,0-28,8,92,92,0,0,0-25.39,15.69l-2.85-.57,20.53-121.52,2.86-1.14q7.41,3.42,19.68,5.14t28,2.56q15.69.85,33.66.86h136.34q18,0,33.66-.86t28.24-2.56q12.54-1.71,20-5.14l2.85,1.14L3143,1089.06l-2.85.57a92.16,92.16,0,0,0-25.39-15.69,138,138,0,0,0-28.24-8,231.22,231.22,0,0,0-31.09-3.14q-16.26-.55-34.51-.57v190q0,41.08,4.27,73t18,46.21v2.85Z" transform="translate(-120 -69.83)"/><path d="M3745.94,1176.34q0,53.06-17.12,91.56t-46.21,63.61q-29.09,25.11-67.88,37.08a276.88,276.88,0,0,1-82.15,12h-7.42q-43.93,0-82.72-12t-67.89-37.08q-29.09-25.1-46.21-63.61t-17.11-91.56v-2.85q0-53.06,17.11-91.85t46.21-63.9q29.1-25.1,67.89-37.08t82.72-12h7.42a277.21,277.21,0,0,1,82.15,12q38.78,12,67.88,37.08t46.21,63.9q17.11,38.8,17.12,91.85Zm-328.6-1.71q0,26.82,7.7,48.77a113.92,113.92,0,0,0,21.68,37.94,93.17,93.17,0,0,0,33.94,24.53q20,8.57,44.5,8.56h7.42q24.51,0,44.21-8.56a94,94,0,0,0,33.66-24.53,114.25,114.25,0,0,0,21.67-37.94q7.71-21.95,7.71-48.77a147.18,147.18,0,0,0-7.71-48.49q-7.7-22.26-21.67-37.94a98.82,98.82,0,0,0-33.66-24.53q-19.68-8.84-44.21-8.84h-7.42q-24.54,0-44.5,8.84a97.92,97.92,0,0,0-33.94,24.53q-14,15.69-21.68,37.94A147.45,147.45,0,0,0,3417.34,1174.63Z" transform="translate(-120 -69.83)"/><path d="M3785.86,1374.29v-2.85q13.69-14.25,18-46.21t4.28-73V1097q0-41.07-4.28-73t-18-46.21V975h225.63q18,0,33.65-.86t28-2.56q12.26-1.71,19.68-5.14l2.85,1.14,20.54,121.52-2.85.57a100.91,100.91,0,0,0-26-15.69,137.37,137.37,0,0,0-28.52-8,240.27,240.27,0,0,0-31.66-3.14q-16.56-.55-35.37-.57h-81V1141h65a412.35,412.35,0,0,0,50.78-2.85q22.8-2.85,35.37-13.7l2.85,1.15v115.8l-2.85,1.14A101.83,101.83,0,0,0,4036.3,1226a122.65,122.65,0,0,0-27.67-8.27,222,222,0,0,0-30.8-3.14q-16.26-.55-35.09-.57H3910.8v38.22q0,41.08,4.28,73t18,46.21v2.85Z" transform="translate(-120 -69.83)"/><path d="M1619.44,2081.3a41.11,41.11,0,0,1-16.46-3.75q-8.58-3.77-10-8.05-2.16-9.66-3.58-198.91,0-153.83,6.79-247.2l1.44-29h-.72q-2.87,0-23.25,4.66-15.75,3.57-21.47,5.36-7.52,2.5-11.44,2.5a13.79,13.79,0,0,1-7.16-2.14q-11.08-5.71-20.39-21.47-4.65-7.5-4.65-12.52a8.13,8.13,0,0,1,3.22-6.79q5.37-4.3,54-15,46.5-10.73,95.16-17.89,51.15-7.86,69.76-7.87t29.69,19.32q6.08,10.38,6.08,16.81a8.08,8.08,0,0,1-3.76,7.16q-3.75,2.51-18.06,3.22-48.66,6.09-81.93,11.09,0,137.37-1.07,232.17-2.87,241.12-4.29,252.21Q1653.07,2081.31,1619.44,2081.3Z" transform="translate(-120 -69.83)"/><path d="M1792.23,1653.44a140.29,140.29,0,0,1-16.81-.71q-25.05-7.15-25.05-24.33,0-4.29,5-10.73a15,15,0,0,1,10-5.37,92.76,92.76,0,0,1,9.3-.36,71,71,0,0,1,27.9,6.09q20,8.94,20,19,0,5.35-5.73,10.73a17.32,17.32,0,0,1-7.51,4.47Q1805.11,1653.45,1792.23,1653.44Zm2.5,377.78q-29.7,0-35.06-20-8.94-37.9-8.94-153.11,0-55.08,5-127.36,2.49-36.12,6.8-39,9.66-6.08,23.25-6.08,20,0,30,8.94,3.57,2.51,4.47,8.41t1.25,37.74l-.71,159.91q0,57.6,1.07,80.85,1.42,17.54,1.43,26.83,0,15-7.69,19T1794.73,2031.22Z" transform="translate(-120 -69.83)"/><path d="M2282.34,2087q-43.65,0-61.54-62.6-7.15-24.69-7.15-62.6,1.42-79.78,20.39-174.94,26.48-133.8,26.47-180.66,0-9.66-2.86-26.12l-7.51,7.16q-24.69,24-52.23,78.7-16.82,33.27-26.47,59.57t-16.82,63.5q-7.15,37.2-16.81,103.74-8.23,57.6-10,63-1.8,7.88-21.82,7.87-34.71,0-37.56-28.26-1.44-14.65-2.87-69-1.42-45.08-4.11-73t-11.63-77.27l-5.36,7.87q-11.1,17.17-26.48,62.24a1039,1039,0,0,0-37.56,144.17q-15.39,76.92-15.38,89.8,0,7.51-9.66,13.95a58.7,58.7,0,0,1-33.27,10,45.5,45.5,0,0,1-12.88-1.79q-7.87-1.79-12.52-12.34t-8.23-36.85q-3.59-26.3-7.87-75.66-8.94-103-8.94-185.67,0-66.54,5.72-119.49,3.57-35.05,7.51-42.57,6.09-11.45,25.4-11.45,22.54,0,34.35,12.17l5.72,6.79q-1.44,122.71-1.43,142,0,62.24,1.79,96.59l6.08-19.68q17.88-58.67,33.63-86.21,18.6-32.21,45.43-35.06a94.27,94.27,0,0,1,16.81,1.43q39.72,6.44,51.16,39,5.37,13.61,6.8,13.6c.47,0,.72-.84.72-2.51q0-3.93,9.65-27.55t22.18-49q19-39.34,40.43-67.43t38.64-36a58.16,58.16,0,0,1,21.46-3.94,82.45,82.45,0,0,1,54,19.5q23.61,19.5,24.33,45.79t.71,29.87q0,49.72-18.6,147.39-21.47,113.06-22.9,181.38,0,55.8,15.39,83.35c1.66,3.1,4.65,4.65,8.94,4.65a31.88,31.88,0,0,0,10.37-2.15h1.79q6.08,0,6.08,8.95a47.21,47.21,0,0,1-.71,7.51q-2.14,9.3-21.11,15.38A64.2,64.2,0,0,1,2282.34,2087Z" transform="translate(-120 -69.83)"/><path d="M2433.3,2067.35q-15.37,0-24.32-3.58Q2378.2,2050.54,2361,1955a614.84,614.84,0,0,1-9.66-107,530.43,530.43,0,0,1,23.25-157q19-57.6,47.94-81.57,17.17-14.31,37.21-14.31,56.52,0,81.56,56.88,32.91,72.63,32.91,125.57,0,67.61-61.53,97.3-14.31,6.81-37.38,13.78a375.8,375.8,0,0,1-38.46,9.84q-6.09.72-7.51,2.14c-1,1-1.43,3.1-1.43,6.44q0,9,8.23,54,6.78,37.92,8.58,37.92,2.86,0,15-57.24l9.66-4.65a47.18,47.18,0,0,1,20-4.65q23.61,0,23.61,13.24,0,7.15-3.94,32.19-6.07,38.64-15.38,57.24-15,30.76-47.22,31.84Zm-7.51-199.26q23.61-7.15,33.63-11.09a86.55,86.55,0,0,0,47.22-40.43q7.16-15.37,7.16-40.78,0-54.37-27.91-114.48-7.51-16.1-9.66-16.1-3.93,0-14.31,20-19.68,37.92-29.69,100.52-6.43,41.87-6.44,76.92Z" transform="translate(-120 -69.83)"/><path d="M2744.54,2098.12a160.92,160.92,0,0,1-25.76-2.15q-57.24-10-74.77-46.15-5.72-10.38-5.72-26.83v-10q0-35.06,37.2-82.64,21.83-28.24,54-55.09-104.82-100.15-119.84-120.2-29.7-38.28-29.69-77.63,0-24,8.23-41.14,7.14-15,23.25-31.12,36.12-35.78,81.92-35.78a131.19,131.19,0,0,1,32.56,4.3q32.19,7.86,50.8,25.4,30,26.48,34.34,68.68c.47,4.29.71,7.4.71,9.3,0,2.86-1.78,4.6-5.36,5.19s-7.16,1.37-10.73,2.33q-6.81,0-18.25-4.66-14.31-5-19.32-18.24Q2747,1630.2,2733.81,1617q-10.38-10.37-15.39-10.37-11.09,0-29.33,15t-26.83,32a76.45,76.45,0,0,0-8.59,34.88q0,37.92,38.64,79.42,17.52,19,76.91,79.06l22.54-12.52q19.66-11.09,56.88-27.55,74.06-32.19,92.3-32.19,15.73.36,17.17,20.75a10.21,10.21,0,0,1-1.79,6.08c0,1.67-1.49,3.81-4.47,6.44s-11.63,6.92-25.94,12.88q-59,22.53-100.88,49.36l-19.32,13.24q0,1.44,11.45,16.81,46.5,64,46.51,109.47a75.31,75.31,0,0,1-6.08,30.41q-16.47,30.77-50.27,44.36T2744.54,2098.12Zm-25.4-34.71q5.37,0,16.1-3.22,42.57-11.08,56.16-41.49,2.86-6.79,2.87-17.18a91.34,91.34,0,0,0-4.3-29q-11.44-34.35-27.54-53.31l-13.6,14.67q-39.36,44.37-47.22,85.86a75.16,75.16,0,0,0-.36,7.51,76.83,76.83,0,0,0,1.43,14.31Q2708.05,2063.42,2719.14,2063.41Z" transform="translate(-120 -69.83)"/><ellipse cx="107.13" cy="2357.2" rx="68.66" ry="36.39"/><path d="M884,2368.8q-13.62-8.46-38.51-8.46H821.89V2436a249.7,249.7,0,0,0,27.22-2.16,92.19,92.19,0,0,0,24.4-6.47,45.88,45.88,0,0,0,17.43-12.62q6.64-8,6.64-20.91Q897.58,2377.27,884,2368.8Z" transform="translate(-120 -69.83)"/><polygon points="457.88 2389.11 507.68 2382.8 483.78 2322.71 457.88 2389.11"/><path d="M3888.75,2360.34q-5,0-11.62.16a91.06,91.06,0,0,0-11,.83v132.13a95.71,95.71,0,0,0,11.12.83c4.31.12,8.13.17,11.45.17q30.89,0,48.47-17.1t17.6-50q0-32.87-17.6-50T3888.75,2360.34Z" transform="translate(-120 -69.83)"/><polygon points="1265.93 2389.11 1315.73 2382.8 1291.82 2322.71 1265.93 2389.11"/><path d="M4332.43,2197.42H227.13L426,2427,227.13,2656.64h4105.3L4133.56,2427ZM735.91,2543.59H648.6v-1.66a22.57,22.57,0,0,0,3.15-5.47,24.5,24.5,0,0,0,1.49-9.47,48.07,48.07,0,0,0-1.16-9.79,77.33,77.33,0,0,0-4.15-12.78l-4.31-11L560,2503.75l-.33.67a117.86,117.86,0,0,0-3.82,12.95,45.71,45.71,0,0,0-1.16,9.62,24.48,24.48,0,0,0,1.5,9.47,21.94,21.94,0,0,0,3.15,5.47v1.66H472v-1.66a117.26,117.26,0,0,0,18.76-28.55q8.13-16.92,13.77-31.87l53.78-136.11a88.74,88.74,0,0,0,4.15-12.78,36.59,36.59,0,0,0,.83-5.48,22.21,22.21,0,0,0-1.49-9,23.68,23.68,0,0,0-3.15-5.31v-1.66h77.68l67.06,170.31q5.64,14.94,13.78,31.87a116.69,116.69,0,0,0,18.76,28.55ZM977.26,2534a50.59,50.59,0,0,1-17.93,10,67.79,67.79,0,0,1-20.91,3.31,102.38,102.38,0,0,1-21.08-2,59.42,59.42,0,0,1-17.77-6.8,66.69,66.69,0,0,1-15.6-12.78,130,130,0,0,1-14.61-19.92l-17.59-27.89q-7.65.67-14.94,1l-14.94.66a289.87,289.87,0,0,0,2.82,38.18q2.49,16.61,10.13,24.23v1.66H749.18v-1.66q8-8.29,10.46-26.89a323.08,323.08,0,0,0,2.49-42.49v-90.3a323.24,323.24,0,0,0-2.49-42.5q-2.49-18.59-10.46-26.89v-1.66H850.44q28.54,0,49.3,6t34,16.6a65,65,0,0,1,19.59,25.39,80.9,80.9,0,0,1,6.3,32q0,27.89-11.78,44.82a79.4,79.4,0,0,1-30.71,26.23l3.65,6q7.3,11.63,14.44,22.41t14.11,19.59a106,106,0,0,0,14,14.77q7,6,13.94,7.31Zm199.52,13.94-1.66.66a41.77,41.77,0,0,0-11.45-3q-7.14-1-16.27-1.49t-19.59-.5H991.53v-1.66q8-8.29,10.46-26.89a323.08,323.08,0,0,0,2.49-42.49v-90.3a323.24,323.24,0,0,0-2.49-42.5q-2.49-18.59-10.46-26.89v-1.66h131.3q10.47,0,19.59-.5t16.27-1.49a41.32,41.32,0,0,0,11.45-3l1.66.67,12,70.71-1.66.33a58.89,58.89,0,0,0-15.1-9.13,80.28,80.28,0,0,0-16.6-4.65,139.47,139.47,0,0,0-18.43-1.82q-9.63-.33-20.58-.33h-47.14v43.16h37.84a236.85,236.85,0,0,0,29.55-1.67q13.27-1.65,20.58-8l1.66.66v67.39l-1.66.67a59.43,59.43,0,0,0-14.93-9.63,71.28,71.28,0,0,0-16.11-4.81,128.38,128.38,0,0,0-17.92-1.83q-9.46-.33-20.42-.33h-18.59v45.15h52.12q11,0,20.58-.17a122.11,122.11,0,0,0,18.43-1.66,73.7,73.7,0,0,0,16.6-4.81,62.35,62.35,0,0,0,15.1-9.3l1.66.34Zm367.17-4.32h-87.31v-1.66a22.25,22.25,0,0,0,3.16-5.47,24.69,24.69,0,0,0,1.49-9.47,48.07,48.07,0,0,0-1.16-9.79,77.33,77.33,0,0,0-4.15-12.78l-4.32-11L1368,2503.75l-.33.67a115.69,115.69,0,0,0-3.82,12.95,45.06,45.06,0,0,0-1.16,9.62,24.69,24.69,0,0,0,1.49,9.47,22.25,22.25,0,0,0,3.16,5.47v1.66H1280v-1.66a117,117,0,0,0,18.75-28.55q8.13-16.92,13.78-31.87l53.78-136.11a88.74,88.74,0,0,0,4.15-12.78,36.59,36.59,0,0,0,.83-5.48,22.38,22.38,0,0,0-1.49-9,23.31,23.31,0,0,0-3.16-5.31v-1.66h77.69l67.06,170.31q5.64,14.94,13.78,31.87a117,117,0,0,0,18.75,28.55Zm187.57,4.32-1.66.66a45.48,45.48,0,0,0-10.29-2.65c-4.2-.67-9-1.16-14.27-1.5s-11-.55-17.1-.66-12.34-.17-18.76-.17H1557.23v-1.66q8-8.29,10.46-26.89a323.08,323.08,0,0,0,2.49-42.49v-90.3a323.24,323.24,0,0,0-2.49-42.5q-2.49-18.59-10.46-26.89v-1.66h85.65v1.66q-8,8.31-10.45,26.89a323.24,323.24,0,0,0-2.49,42.5V2492.8h41.16q11,0,20.75-.17a122.84,122.84,0,0,0,18.59-1.66,73.55,73.55,0,0,0,16.6-4.81,62.4,62.4,0,0,0,15.11-9.3l1.66.34Zm190.23-4.32-39.17-132.13-38.85,132.13H1786.3l-50.46-170.31a250.07,250.07,0,0,0-13.11-35.68q-7.47-16.11-17.1-24.74v-1.66h87v1.66a22.71,22.71,0,0,0-4.32,10.29,55.29,55.29,0,0,0-.5,12.95,87.43,87.43,0,0,0,2.16,14q1.66,7,3.32,13.27l22.91,78,20.25-68.39v.33q1.66-6,4-14.27a146.62,146.62,0,0,0,3.66-16.77,68.06,68.06,0,0,0,.66-16.26,23.55,23.55,0,0,0-5-13.12v-1.66h85.65v1.66a23,23,0,0,0-4.31,10.63,52.2,52.2,0,0,0-.33,13.28,111.38,111.38,0,0,0,2.32,14.27q1.65,7.3,3.32,13.61l22.91,76.69,22.9-78q1.66-6.3,3.32-13.27a86.31,86.31,0,0,0,2.16-14,54.76,54.76,0,0,0-.5-12.95,22.7,22.7,0,0,0-4.31-10.29v-1.66h87v1.66q-9.63,8.64-17.1,24.74a247.66,247.66,0,0,0-13.11,35.68l-50.47,170.31Zm357.22,0h-87.31v-1.66a22.57,22.57,0,0,0,3.15-5.47,24.5,24.5,0,0,0,1.49-9.47,47.37,47.37,0,0,0-1.16-9.79,76.39,76.39,0,0,0-4.15-12.78l-4.31-11L2103,2503.75l-.34.67a115.37,115.37,0,0,0-3.81,12.95,45.12,45.12,0,0,0-1.17,9.62,24.48,24.48,0,0,0,1.5,9.47,21.94,21.94,0,0,0,3.15,5.47v1.66H2015v-1.66a117.26,117.26,0,0,0,18.76-28.55q8.13-16.92,13.78-31.87l53.78-136.11a90,90,0,0,0,4.15-12.78,36.59,36.59,0,0,0,.83-5.48,22.19,22.19,0,0,0-1.5-9,23.31,23.31,0,0,0-3.15-5.31v-1.66h77.68l67.06,170.31q5.66,14.94,13.78,31.87a116.69,116.69,0,0,0,18.76,28.55Zm229.4-230.73q-5,2.67-10.46,9.63a68.06,68.06,0,0,0-8.13,12.62l-66.4,130.13v7.31a323.08,323.08,0,0,0,2.49,42.49q2.49,18.6,10.46,26.89v1.66h-85.65v-1.66q8.3-8.29,10.62-26.89a345.8,345.8,0,0,0,2.32-42.49v-7.31l-66.06-130.13a93.92,93.92,0,0,0-8.3-12.62q-5.31-7-10.29-9.63v-1.66h83.33v1.66a11,11,0,0,0-2.66,7.64,18.56,18.56,0,0,0,1.66,7.47c1.11,2.54,2.21,4.93,3.32,7.14l28.88,57.1,29.22-57.1c1.1-2.21,2.21-4.6,3.32-7.14a18.73,18.73,0,0,0,1.66-7.47,11.07,11.07,0,0,0-2.66-7.64v-1.66h83.33Zm196.54,164.67q0,20.58-8,34A61.53,61.53,0,0,1,2676,2533a86.75,86.75,0,0,1-29.39,11.12,191.21,191.21,0,0,1-60.91,1.33q-11.62-1.83-20.59-4.15t-15.6-4.15a46,46,0,0,0-11.95-1.83,28.31,28.31,0,0,0-8.3,1.33,16.49,16.49,0,0,0-7,4l-1.66-.34-9-84.65,1.66-.34a81.56,81.56,0,0,0,17.1,15.61,129,129,0,0,0,24.57,13.44,169.68,169.68,0,0,0,29.54,9.3,146.71,146.71,0,0,0,31.71,3.49q11.61,0,19.25-3.66t7.64-12.28v-1.66a13.85,13.85,0,0,0-5.15-10.79,50.21,50.21,0,0,0-14.11-8.13,194.29,194.29,0,0,0-20.75-7q-11.78-3.32-25.06-7.31a170.32,170.32,0,0,1-24.73-9.46,77.36,77.36,0,0,1-19.92-13.45,58.84,58.84,0,0,1-13.45-19.09q-5-11.12-5-26.39v-3.32q0-21.92,8.8-35.19a58.36,58.36,0,0,1,22.57-20.25,96.27,96.27,0,0,1,30.22-9.29,228.5,228.5,0,0,1,32-2.33q8,0,16.27.83t15.77,1.66q7.47.84,13.78,1.66a82.37,82.37,0,0,0,10.62.83q5,0,9.79-.33a17.79,17.79,0,0,0,8.47-2.66l1.66.34q1.65,19.59,3.32,38.84t3.32,38.84l-1.33.66a55.38,55.38,0,0,0-15.27-12.61,121.29,121.29,0,0,0-20.91-9.63,148.19,148.19,0,0,0-23.41-6.14,128.34,128.34,0,0,0-22.41-2.16q-13.62,0-22.57,3.32t-9,11.29a11.68,11.68,0,0,0,3.32,8.63,29.71,29.71,0,0,0,8.8,5.81,95.85,95.85,0,0,0,12.95,4.65q7.47,2.16,15.77,4.48,14.59,4.32,30,9.13a113.76,113.76,0,0,1,28.22,13.11,67.43,67.43,0,0,1,20.92,21.58q8.13,13.29,8.13,34.53Zm290.15-99.6a58.94,58.94,0,0,0-15.11-9.13,80.28,80.28,0,0,0-16.6-4.65,139.32,139.32,0,0,0-18.42-1.82q-9.63-.33-20.59-.33H2877.2v45.81h37.85a239.14,239.14,0,0,0,29.55-1.66q13.26-1.65,20.58-8l1.66.67v67.39l-1.66.66a59,59,0,0,0-14.94-9.62,71.73,71.73,0,0,0-16.1-4.82,130.1,130.1,0,0,0-17.93-1.82q-9.47-.33-20.42-.34H2877.2v22.25a323.08,323.08,0,0,0,2.49,42.49q2.49,18.6,10.46,26.89v1.66H2804.5v-1.66q8-8.29,10.45-26.89a323.08,323.08,0,0,0,2.49-42.49v-90.3a323.24,323.24,0,0,0-2.49-42.5q-2.49-18.59-10.45-26.89v-1.66h131.3q10.45,0,19.59-.5t16.26-1.49a41.4,41.4,0,0,0,11.46-3l1.66.67,11.95,70.71ZM3268,2428.39q0,30.89-10,53.29t-26.89,37a108.61,108.61,0,0,1-39.51,21.58,161.08,161.08,0,0,1-47.81,7h-4.31a162.18,162.18,0,0,1-48.14-7,108.61,108.61,0,0,1-39.51-21.58q-16.92-14.59-26.89-37t-10-53.29v-1.66q0-30.87,10-53.45t26.89-37.18a109.06,109.06,0,0,1,39.51-21.58,162.51,162.51,0,0,1,48.14-7h4.31a161.41,161.41,0,0,1,47.81,7,109.06,109.06,0,0,1,39.51,21.58q16.92,14.61,26.89,37.18t10,53.45Zm250-115.53q-8,8.31-10.46,26.89a323.24,323.24,0,0,0-2.49,42.5v65.4q0,22.91-6.14,41.33a80.94,80.94,0,0,1-18.76,31.37q-12.61,13-32,19.92t-46,7q-26.57,0-46-7t-32-19.92a80.69,80.69,0,0,1-18.76-31.37q-6.15-18.42-6.14-41.33v-65.4a323.24,323.24,0,0,0-2.49-42.5q-2.49-18.59-10.46-26.89v-1.66h85.65v1.66q-8,8.31-10.45,26.89a323.24,323.24,0,0,0-2.49,42.5v65.4q0,21.92,12,33.53t31.2,12q19.26-.33,31.21-12t11.95-33.53v-65.4a348,348,0,0,0-2.32-42.5q-2.33-18.59-10.63-26.89v-1.66h85.66Zm252.31,0q-8,8.31-10.46,26.89a323.24,323.24,0,0,0-2.49,42.5v90.3a323.08,323.08,0,0,0,2.49,42.49q2.49,18.6,10.46,26.89v1.66h-80v-1.66a12.08,12.08,0,0,0,.33-3.32,21.64,21.64,0,0,0-2-8.3,69.8,69.8,0,0,0-4.65-9c-1.77-2.87-3.6-5.59-5.48-8.13a64.15,64.15,0,0,1-4.15-6.15l-63.74-91v56.44A323.08,323.08,0,0,0,3613,2515q2.49,18.6,10.46,26.89v1.66h-85.66v-1.66q8-8.29,10.46-26.89a323.08,323.08,0,0,0,2.49-42.49v-90.3a323.24,323.24,0,0,0-2.49-42.5q-2.49-18.59-10.46-26.89v-1.66h80.35v1.66a11.34,11.34,0,0,0-.34,3.32,21.37,21.37,0,0,0,2,8.3,68,68,0,0,0,4.64,9c1.77,2.87,3.54,5.59,5.31,8.13s3.21,4.6,4.32,6.14l63.41,90.3v-55.77a323.24,323.24,0,0,0-2.49-42.5q-2.49-18.59-10.46-26.89v-1.66h85.66Zm237.36,165.33q-9,21.92-25.23,36.35a107.65,107.65,0,0,1-38.67,21.75q-22.41,7.3-49.64,7.3H3793.47v-1.66q8-8.29,10.46-26.89a323.08,323.08,0,0,0,2.49-42.49v-90.3a323.24,323.24,0,0,0-2.49-42.5q-2.49-18.59-10.46-26.89v-1.66h100.59q27.22,0,49.64,7.31a107.63,107.63,0,0,1,38.67,21.74q16.26,14.45,25.23,36.35t9,50.8Q4016.57,2456.28,4007.6,2478.19Z" transform="translate(-120 -69.83)"/><path d="M3189.1,2377.1a57.51,57.51,0,0,0-19.59-14.27,62.1,62.1,0,0,0-25.73-5.15h-4.31a63.3,63.3,0,0,0-25.9,5.15,57,57,0,0,0-19.75,14.27,64.39,64.39,0,0,0-12.62,22.08,91.62,91.62,0,0,0,0,56.6,66.32,66.32,0,0,0,12.62,22.08,54.22,54.22,0,0,0,19.75,14.28,65.12,65.12,0,0,0,25.9,5h4.31a63.87,63.87,0,0,0,25.73-5,54.66,54.66,0,0,0,19.59-14.28,66.3,66.3,0,0,0,12.61-22.08,91.43,91.43,0,0,0,0-56.6A64.37,64.37,0,0,0,3189.1,2377.1Z" transform="translate(-120 -69.83)"/><polygon points="2000.94 2389.11 2050.74 2382.8 2026.84 2322.71 2000.94 2389.11"/><path d="M1878.72,3200.87q-17.31,0-22.22-1.16-37.21-10.68-59.15-50.78-13.56-26.83-17-47-1.44-8.66-2.6-8.65-1.73,0-5.48,8.36a206.43,206.43,0,0,1-15,25.25q-9.52,14-16.16,20.34-17.6,15.3-41.55,15.29-37.51,0-50.49-60.59a438.65,438.65,0,0,1-7.21-81.65q0-62.33,15-136.19,11.25-54.24,19.33-63.19a15.14,15.14,0,0,1,8.37-4.9,118.06,118.06,0,0,1,14.71-.87q15.87,0,23.37,7.5a8.44,8.44,0,0,1,2.46,3.18,18,18,0,0,1,1,4.9q.29,3.18.29,9,0,12.12-6.93,56.55-17,102.72-17,157.25,0,47,8.94,69.82c1.54,3.46,2.69,5.2,3.46,5.2q2.61,0,17.89-35.2,23.65-54.54,42.42-111.09a201.48,201.48,0,0,1,7.64-21.35q3-6.63,7.07-8.66,5.48-2.88,17.31-2.88,6.06,0,15.59,5.48,11.82,6.06,13.56,8.08.86.87.86,8.65,0,9.53-1.15,28.57-.87,17-.87,32.89,0,89.74,32.61,129,12.39,15,16.44,15,3.46,0,12.12-6.64a85.74,85.74,0,0,0,14.72-14.14q34.62-46.44,45-129.26a289.4,289.4,0,0,0,1.73-34.33,589.6,589.6,0,0,0-5.2-81.37q-3.75-23.37-10.53-52.08t-13.41-48.33q-6.36-18.45-6.35-19.91,0-3.74,7.64-5.77a61.63,61.63,0,0,1,15.73-2q10.38,0,16.16,3.75,9.23,7.51,22.21,58.58,16.46,68.37,16.45,133.59a492.91,492.91,0,0,1-9.52,96.94Q1962.1,3200.58,1878.72,3200.87Z" transform="translate(-120 -69.83)"/><path d="M2205.91,3189a58.62,58.62,0,0,1-12.4-1.45q-20.21-4.61-22.22-18.17-1.15-6.65-2.31-96.66-15,2.31-49.62,2.88l-38.67,1.45q1.74,46.74,1.73,54.24,0,10.11-.57,12.12-2.89,8.94-23.37,8.94-24.24-.29-28.57-12.69-8.09-26.84-8.08-178.89,0-99,1.44-109.07,1.74-12.39,19.91-12.4,11.84,0,19.91,3.32t11,8.22q4.89,10.68,5.19,131v70.4q64.64-2.59,77.76-3.75t13.13-2.59q.57-2.88,2.59-54.25a2006.72,2006.72,0,0,1,19.62-219.57q3.18-24.81,7.36-28.57a15.64,15.64,0,0,1,10.82-3.75,47.21,47.21,0,0,1,14.14,2.6q14.13,4.34,20.49,13,1.73,2.9,1.73,17.32,0,19.33-5.2,81.07-12.41,150.61-12.4,267.76,0,25.11-.15,37.51t-1.3,18.18q-1.15,5.76-3.6,7.64a19.74,19.74,0,0,1-7.36,3A48,48,0,0,1,2205.91,3189Z" transform="translate(-120 -69.83)"/><path d="M2341.81,3186.73q-12.41,0-19.62-2.89-24.81-10.66-38.66-87.71a496.24,496.24,0,0,1-7.79-86.27,427.92,427.92,0,0,1,18.75-126.67q15.3-46.44,38.67-65.78,13.85-11.53,30-11.54,45.59,0,65.79,45.87,26.53,58.59,26.54,101.28,0,54.53-49.62,78.48a221.28,221.28,0,0,1-30.15,11.11,303,303,0,0,1-31,7.93c-3.28.39-5.29,1-6.06,1.73s-1.15,2.51-1.15,5.2q0,7.22,6.63,43.57,5.48,30.59,6.93,30.58,2.29,0,12.11-46.17l7.79-3.75a38.25,38.25,0,0,1,16.16-3.75q19,0,19,10.68,0,5.77-3.18,26-4.91,31.16-12.41,46.16-12.11,24.81-38.08,25.68ZM2335.75,3026q19-5.78,27.13-8.95a69.78,69.78,0,0,0,38.08-32.6q5.77-12.41,5.77-32.89,0-43.86-22.5-92.33-6.06-13-7.79-13-3.18,0-11.54,16.16Q2349,2893,2341,2943.5a410.61,410.61,0,0,0-5.2,62Z" transform="translate(-120 -69.83)"/><path d="M2703.63,3195.38a77.88,77.88,0,0,1-14.71-1.44q-13-2-21.5-6.63a68.08,68.08,0,0,1-16.88-13.56q-12.12-12.4-14.57-24.53a114.82,114.82,0,0,1-2.45-22.79q0-36.64,31.45-146.87,18.18-71.25,20.48-90,1.15-11.53,1.16-22.22,0-23.07-3-39.52t-7.65-21.93q-2.88,0-17,13-21.06,19.91-43.86,64.63-53.39,96.66-56,193.9l-2.31,33.75q-1.16,10.39-21.64,13.28a62.17,62.17,0,0,1-8.08.57q-14.43,0-21.93-8.65-10.68-10.68-21.06-85.7-6.64-45.28-6.64-133.88,0-61.74,4.76-65.49t13.42-3.75q14.71,0,27.7,9.23a17.5,17.5,0,0,1,5.77,6.64q3.46,7.22,7.5,62,3.18,36.08,4,36.07c.19,0,.38-.29.58-.87q2-8.94,11.25-30.58,21.64-50.21,41.84-80.5,34.33-51.65,71-51.65a60.47,60.47,0,0,1,18.17,2.89q22.21,6.06,34.92,19,20.78,24.81,20.77,83.1,0,33.47-15.87,94.92-34.9,129.84-34.91,158.69a69.12,69.12,0,0,0,2,15.59q2.88,14.13,6.64,14.13,2,0,10.38-4,7.8-5.76,19.62-19.76a184.79,184.79,0,0,0,21.35-31.59q36.36-86.28,41.84-106.18,2-7.22,5.34-9.53t10.53-2.3q2.59,0,10.1,3.17,8.65,3.75,8.65,8.66,0,5.19-4.9,20.77-11.84,39.82-38.37,104.16Q2751.24,3195.39,2703.63,3195.38Z" transform="translate(-120 -69.83)"/><path d="M173.24,3293.9H303.5c4.9,0,8.87,1.33,11.89,4a12.36,12.36,0,0,1,4.53,9.63v40.21q0,5.67-4.81,10.2a16.34,16.34,0,0,1-11.61,4.53h-115v86.65h87.78c4.54,0,8.12,1.33,10.77,4a13.88,13.88,0,0,1,4,10.2v39.64a12.24,12.24,0,0,1-4,9.35c-2.65,2.46-6.23,3.68-10.77,3.68H188.53v156.88a13.18,13.18,0,0,1-4.53,9.91,15.23,15.23,0,0,1-10.76,4.25H135.86a16.56,16.56,0,0,1-11.33-4,12.86,12.86,0,0,1-4.53-10.19v-365.3a12.33,12.33,0,0,1,4.53-9.63,16.65,16.65,0,0,1,11.33-4Z" transform="translate(-120 -69.83)"/><path d="M530.61,3509.68l56.63,166.51q.57.57.57,4a7.54,7.54,0,0,1-3.11,5.95,11.69,11.69,0,0,1-7.65,2.55H527.78a18.41,18.41,0,0,1-11-4c-3.59-2.63-5.94-5.47-7.08-8.49L463.78,3534.6a29.92,29.92,0,0,0-14.16-4,19.94,19.94,0,0,0-15.29,6.8v138.19a11.56,11.56,0,0,1-4.53,9.35,16.52,16.52,0,0,1-10.76,3.68H373.73A17.35,17.35,0,0,1,362.4,3685a11.5,11.5,0,0,1-4.53-9.35V3309.19a15.61,15.61,0,0,1,4.53-11,14.92,14.92,0,0,1,11.33-4.82h111q39.09.57,63.15,22.66T572,3372.62v69.1a70.19,70.19,0,0,1-11.61,38.51,82.22,82.22,0,0,1-30.3,28.32Zm-31.15-77.59v-51.54a29.63,29.63,0,0,0-9.35-22.09,31.05,31.05,0,0,0-22.37-9.06H436.59a6.68,6.68,0,0,0-5.09,2.55,8,8,0,0,0-2.27,5.38v95.15a9.68,9.68,0,0,0,9.63,9.63h28.88a31.55,31.55,0,0,0,22.37-8.78A28.07,28.07,0,0,0,499.46,3432.09Z" transform="translate(-120 -69.83)"/><path d="M709.86,3685.25a13.16,13.16,0,0,1-9.91,4.53H658a13.75,13.75,0,0,1-10.48-4.53,15.19,15.19,0,0,1-4.25-10.76V3308.06a15.21,15.21,0,0,1,4.25-10.76,13.8,13.8,0,0,1,10.48-4.54H700a13.2,13.2,0,0,1,9.91,4.54,15.21,15.21,0,0,1,4.25,10.76v366.43A15.19,15.19,0,0,1,709.86,3685.25Z" transform="translate(-120 -69.83)"/><path d="M962.16,3360.73H847.76v86.65h86.65a13.57,13.57,0,0,1,14.16,14.16v39.64a13.57,13.57,0,0,1-14.16,14.16H847.76v103.08h114.4a15.25,15.25,0,0,1,10.77,4.25,13.82,13.82,0,0,1,4.53,10.47v39.08a15.49,15.49,0,0,1-15.3,15.3H795.09a14.41,14.41,0,0,1-11-4.54,15.14,15.14,0,0,1-4.25-10.76V3306.36a14.21,14.21,0,0,1,4.25-10.48,14.94,14.94,0,0,1,11-4.25H962.16a15.25,15.25,0,0,1,10.77,4.25,13.84,13.84,0,0,1,4.53,10.48v39.08a15.47,15.47,0,0,1-15.3,15.29Z" transform="translate(-120 -69.83)"/><path d="M1220.42,3291.07h43a15.48,15.48,0,0,1,9.91,4c3.2,2.65,4.82,5.1,4.82,7.36v366.44q0,9.06-4.25,14.15a13.13,13.13,0,0,1-10.48,5.1h-58.33a20.67,20.67,0,0,1-12.18-4.25,22.43,22.43,0,0,1-8.21-9.91L1093,3423l5.09,249.76a15.19,15.19,0,0,1-4.24,10.76,14.42,14.42,0,0,1-11,4.53h-41.91a15.58,15.58,0,0,1-11-4.53,14.28,14.28,0,0,1-4.82-10.76V3306.36a14.29,14.29,0,0,1,4.82-10.76,15.62,15.62,0,0,1,11-4.53h67.4a22.82,22.82,0,0,1,13,4.24q6.23,4.26,7.92,9.91l82.13,245.8-5.67-244.66a15.21,15.21,0,0,1,4.25-10.76A13.79,13.79,0,0,1,1220.42,3291.07Z" transform="translate(-120 -69.83)"/><path d="M1561.36,3398.11l.57,181.23a113.84,113.84,0,0,1-13.59,54.37,109.76,109.76,0,0,1-36.82,40.78,94.46,94.46,0,0,1-52.1,15.29H1396a3.34,3.34,0,0,1-2.27.57h-52.67a14.28,14.28,0,0,1-10.76-4.82,17,17,0,0,1-4.53-12.17V3311.45a17.91,17.91,0,0,1,5.1-12.74,15.9,15.9,0,0,1,11.89-5.38h113.84a105.12,105.12,0,0,1,91.18,51.54A107.43,107.43,0,0,1,1561.36,3398.11ZM1490,3574.24V3401.51a42.54,42.54,0,0,0-42.48-42.48H1400a8.17,8.17,0,0,0-6,2.55,7.6,7.6,0,0,0-2.54,5.38v250.33c0,3,1.5,4.53,4.53,4.53h46.44q19.24,0,33.41-14.16T1490,3574.24Z" transform="translate(-120 -69.83)"/><path d="M1829.81,3562.35a229.49,229.49,0,0,1-4.24,45,110.59,110.59,0,0,1-17.28,40.49,103.73,103.73,0,0,1-37.09,34.26,98.59,98.59,0,0,1-47.86,12.18h-17.56a97.52,97.52,0,0,1-39.64-8.21,104.42,104.42,0,0,1-33.42-23.5,114.34,114.34,0,0,1-30-77V3585a19,19,0,0,1,5.38-13.59,17,17,0,0,1,12.74-5.66H1661a3.26,3.26,0,0,0,2.27.56h1.13a21.29,21.29,0,0,1,8.49,6.8,15.77,15.77,0,0,1,3.4,9.63v5.66a38.91,38.91,0,0,0,7.65,23.51,35.85,35.85,0,0,0,20.1,13.87,40.91,40.91,0,0,0,11.9,1.7h1.7c3,0,4.71-.18,5.09-.56h.57a38.88,38.88,0,0,0,26.34-12.18,37,37,0,0,0,10.47-26.34l1.14-28.31q-.58-28.89-23.79-40.22-13.59-7.35-41.91-8.49l-10.76-1.13q-47-3.4-62-33.14t-15-72.21l.57-19.82.57-7.93q-1.15-37.93,25.48-62.86,27.75-27.75,73.06-26.62H1725a96.75,96.75,0,0,1,37.94,7.64,100.8,100.8,0,0,1,32.29,21.81,95,95,0,0,1,21.52,33.13,109.58,109.58,0,0,1,7.36,39.93v.56a16.51,16.51,0,0,1-4.81,12.18,15.82,15.82,0,0,1-11.61,4.81h-39.08a15.82,15.82,0,0,1-10.48-5.09,15.19,15.19,0,0,1-4.25-10.76v-4a34.61,34.61,0,0,0-7.64-22.09,40.93,40.93,0,0,0-20.11-13.59,35.79,35.79,0,0,0-11.33-1.7h-4.53c-.38.38-1.32.57-2.83.57q-15.86,1.7-25.48,11.89t-9.63,24.92v32.85q1.7,16.44,14.72,22.94t43.05,7.64q49.83,0,74.76,28.89l24.91,28.88Z" transform="translate(-120 -69.83)"/><path d="M2147.53,3307.49l74.19,367a11.56,11.56,0,0,1-2.83,10.48q-4,4.25-11.33,4.24h-48.14q-13,0-14.73-12.46l-17-92.31h-73.06l-17,92.31c-.76,4.54-2.26,7.75-4.53,9.63s-5.66,2.83-10.19,2.83h-48.14q-7.36,0-11.61-4.24a11.15,11.15,0,0,1-3.12-10.48l74.76-367c.75-4.15,3.12-7.65,7.08-10.48a22.38,22.38,0,0,1,13.31-4.25h71.36a23.65,23.65,0,0,1,13.59,4.25Q2146.39,3301.26,2147.53,3307.49Zm-56.07,210.68h26.62L2093.72,3376c-.76-1.89-1.7-2.83-2.83-2.83s-2.08.94-2.83,2.83l-23.79,142.15h27.19Z" transform="translate(-120 -69.83)"/><path d="M2451.66,3291.07h43a15.48,15.48,0,0,1,9.91,4q4.8,4,4.81,7.36v366.44q0,9.06-4.24,14.15a13.15,13.15,0,0,1-10.48,5.1h-58.34a20.66,20.66,0,0,1-12.17-4.25,22.43,22.43,0,0,1-8.21-9.91L2324.23,3423l5.09,249.76a15.15,15.15,0,0,1-4.25,10.76,14.4,14.4,0,0,1-11,4.53h-41.91a15.58,15.58,0,0,1-11-4.53,14.24,14.24,0,0,1-4.82-10.76V3306.36a14.26,14.26,0,0,1,4.82-10.76,15.62,15.62,0,0,1,11-4.53h67.4a22.79,22.79,0,0,1,13,4.24q6.23,4.26,7.93,9.91l82.12,245.8-5.66-244.66a15.21,15.21,0,0,1,4.25-10.76A13.79,13.79,0,0,1,2451.66,3291.07Z" transform="translate(-120 -69.83)"/><path d="M2792.6,3398.11l.57,181.23a113.84,113.84,0,0,1-13.59,54.37,109.76,109.76,0,0,1-36.82,40.78,94.48,94.48,0,0,1-52.1,15.29h-63.43a3.36,3.36,0,0,1-2.27.57h-52.67a14.28,14.28,0,0,1-10.76-4.82,17,17,0,0,1-4.53-12.17V3311.45a17.91,17.91,0,0,1,5.1-12.74,15.9,15.9,0,0,1,11.89-5.38h113.84a105.12,105.12,0,0,1,91.18,51.54A107.43,107.43,0,0,1,2792.6,3398.11Zm-71.36,176.13V3401.51a42.54,42.54,0,0,0-42.48-42.48h-47.57a8.15,8.15,0,0,0-6,2.55,7.56,7.56,0,0,0-2.54,5.38v250.33c0,3,1.5,4.53,4.53,4.53h46.44q19.24,0,33.41-14.16T2721.24,3574.24Z" transform="translate(-120 -69.83)"/><path d="M2994.22,3293.9h130.26c4.9,0,8.87,1.33,11.89,4a12.36,12.36,0,0,1,4.53,9.63v40.21q0,5.67-4.81,10.2a16.34,16.34,0,0,1-11.61,4.53h-115v86.65h87.78c4.53,0,8.12,1.33,10.77,4a13.88,13.88,0,0,1,4,10.2v39.64a12.24,12.24,0,0,1-4,9.35q-4,3.69-10.77,3.68h-87.78v156.88a13.18,13.18,0,0,1-4.53,9.91,15.23,15.23,0,0,1-10.76,4.25h-37.38a16.56,16.56,0,0,1-11.33-4,12.86,12.86,0,0,1-4.53-10.19v-365.3a12.33,12.33,0,0,1,4.53-9.63,16.65,16.65,0,0,1,11.33-4Z" transform="translate(-120 -69.83)"/><path d="M3343.09,3307.49l74.19,367a11.5,11.5,0,0,1-2.83,10.48q-4,4.25-11.32,4.24H3355q-13,0-14.73-12.46l-17-92.31h-73.06l-17,92.31q-1.14,6.81-4.53,9.63c-2.27,1.9-5.67,2.83-10.2,2.83h-48.14c-4.91,0-8.77-1.41-11.61-4.24a11.15,11.15,0,0,1-3.11-10.48l74.76-367q1.13-6.22,7.08-10.48a22.34,22.34,0,0,1,13.31-4.25h71.36a23.68,23.68,0,0,1,13.59,4.25Q3342,3301.26,3343.09,3307.49ZM3287,3518.17h26.62L3289.29,3376c-.76-1.89-1.7-2.83-2.83-2.83s-2.08.94-2.84,2.83l-23.78,142.15H3287Z" transform="translate(-120 -69.83)"/><path d="M3709,3291.63h24.36a14.5,14.5,0,0,1,14.72,14.73v367a14.5,14.5,0,0,1-14.72,14.72h-40.78a13.25,13.25,0,0,1-10.19-4.25,14.72,14.72,0,0,1-4-10.47v-235l-43,138.19q-.57,2.84-6.23,7.36l-2.83,1.7a22.82,22.82,0,0,1-9.06,2.27H3581a22.7,22.7,0,0,1-9.06-2.27l-2.83-1.7a20.17,20.17,0,0,1-5.67-7.36l-43-138.19v235a14.54,14.54,0,0,1-4.25,10.19,13.16,13.16,0,0,1-9.91,4.53h-40.78a15.54,15.54,0,0,1-14.72-14.72v-367a13.77,13.77,0,0,1,4.53-10.48,14.53,14.53,0,0,1,10.19-4.25H3530a21.35,21.35,0,0,1,11.61,3.4q5.37,3.41,5.94,7.93l51.54,166.51L3650.62,3303q1.13-4.53,6.51-7.93a21.3,21.3,0,0,1,11.61-3.4H3709Z" transform="translate(-120 -69.83)"/><path d="M3872.34,3685.25a13.16,13.16,0,0,1-9.91,4.53h-41.91a13.75,13.75,0,0,1-10.48-4.53,15.19,15.19,0,0,1-4.25-10.76V3308.06a15.21,15.21,0,0,1,4.25-10.76,13.8,13.8,0,0,1,10.48-4.54h41.91a13.2,13.2,0,0,1,9.91,4.54,15.21,15.21,0,0,1,4.25,10.76v366.43A15.19,15.19,0,0,1,3872.34,3685.25Z" transform="translate(-120 -69.83)"/><path d="M4009.68,3619h85q6.22,0,9.91,3.68t3.68,9.91v42.48a13.62,13.62,0,0,1-3.68,9.62,12.86,12.86,0,0,1-9.91,4H3953a13.54,13.54,0,0,1-13.59-13.59v-370.4a14.21,14.21,0,0,1,4.25-10.48,13.58,13.58,0,0,1,9.91-4.25h41.91a13.6,13.6,0,0,1,9.91,4.25,14.25,14.25,0,0,1,4.25,10.48Z" transform="translate(-120 -69.83)"/><path d="M4291.71,3291.07h35.68q8.51,0,13.88,5.38a16.82,16.82,0,0,1,5.38,12.17l-1.13,6.8L4278.69,3487a119.21,119.21,0,0,0-6.8,27.18v161.41q0,6.24-5.38,10.76a19.17,19.17,0,0,1-12.74,4.53h-41.35a18.37,18.37,0,0,1-12.17-4.53c-3.6-3-5.38-6.6-5.38-10.76V3514.21a108.52,108.52,0,0,0-7.93-27.18l-65.7-171.61a16.28,16.28,0,0,1-1.7-7.36q0-6.79,5.66-11.9a19.6,19.6,0,0,1,13.6-5.09h35.11q12.45,0,19.26,11.89l37.94,112.7a3.81,3.81,0,0,0,2.84,1.14c.37,0,.93-.37,1.69-1.14l39.08-112.7a16.73,16.73,0,0,1,6.52-8.5A17.77,17.77,0,0,1,4291.71,3291.07Z" transform="translate(-120 -69.83)"/><path d="M877.21,4006q0,12.87.35,21.2a126.25,126.25,0,0,0,1.22,13.91,35.58,35.58,0,0,0,2.43,9,25.86,25.86,0,0,0,4.34,6.6v1.74a241.14,241.14,0,0,1-54,21.55,217.05,217.05,0,0,1-54.39,6.95q-28.5,0-51.44-8a103.15,103.15,0,0,1-64.12-61.25q-8.87-22.27-8.86-50.82,0-34.09,10.6-59T692,3867.05a116.24,116.24,0,0,1,41.71-23.67,160.34,160.34,0,0,1,49.7-7.65h4.17q19.8,0,32.15,2.61t17.55,2.61q5.21,0,10.25-.34a18.64,18.64,0,0,0,8.86-2.78l1.74.34q1.74,20.65,3.47,40.9t3.48,40.76l-1.74.7a68.78,68.78,0,0,0-15.64-14.43A103.21,103.21,0,0,0,828.73,3896a107.13,107.13,0,0,0-19.81-5.9,95.72,95.72,0,0,0-17.9-1.92q-34.75,0-54.21,20.81t-19.47,57.9q0,32.94,18.77,50.28t49.35,17.33a71.32,71.32,0,0,0,19.12-2.24,75.82,75.82,0,0,0,10.08-3.28v-46.26a65,65,0,0,0-22.77,4.34,44.58,44.58,0,0,0-18.94,13l-1.74-.7v-61.17H885.55V3940a26,26,0,0,0-4.34,6.6,35.78,35.78,0,0,0-2.43,9,125.25,125.25,0,0,0-1.22,13.73q-.34,8.16-.35,21Z" transform="translate(-120 -69.83)"/><path d="M991.2,4042.17a122.7,122.7,0,0,0-4,13.55A47.05,47.05,0,0,0,986,4065.8a25.78,25.78,0,0,0,1.56,9.91,23.29,23.29,0,0,0,3.31,5.73v1.74H899.45v-1.74a122.82,122.82,0,0,0,19.64-29.89q8.5-17.72,14.42-33.36l56.3-142.5a92.41,92.41,0,0,0,4.35-13.38,38.78,38.78,0,0,0,.87-5.73,23.15,23.15,0,0,0-1.57-9.39,24.26,24.26,0,0,0-3.3-5.56v-1.73h81.33l70.2,178.29q5.91,15.63,14.42,33.36a122.53,122.53,0,0,0,19.64,29.89v1.74h-91.4v-1.74a23.62,23.62,0,0,0,3.3-5.73,25.78,25.78,0,0,0,1.56-9.91,50.68,50.68,0,0,0-1.21-10.25,80.81,80.81,0,0,0-4.35-13.38l-4.52-11.47-87.58,10.77ZM1037.43,3925l-27.11,69.51,52.13-6.6Z" transform="translate(-120 -69.83)"/><path d="M1246.65,4083.18v-1.74q8.67-8.68,11.12-28.15a362.5,362.5,0,0,0,2.43-44.49V3893.07q-11.13,0-21,.35a135.44,135.44,0,0,0-18.76,1.91,84.89,84.89,0,0,0-17,4.86,56.24,56.24,0,0,0-15.47,9.56l-1.74-.34,12.52-74,1.73-.7a43.31,43.31,0,0,0,12,3.13q7.47,1.05,17,1.56t20.51.53H1333q11,0,20.51-.53t17.2-1.56a43.8,43.8,0,0,0,12.17-3.13l1.73.7,12.51,74-1.73.34a56.39,56.39,0,0,0-15.47-9.56,84.63,84.63,0,0,0-17.2-4.86,140.06,140.06,0,0,0-18.94-1.91q-9.91-.35-21-.35V4008.8a337.79,337.79,0,0,0,2.61,44.49q2.6,19.47,10.94,28.15v1.74Z" transform="translate(-120 -69.83)"/><path d="M1505.92,3839.9v1.73q-8.36,8.7-11,28.16a337.74,337.74,0,0,0-2.61,44.48v31.63l78.2-9.73v-21.9a337.74,337.74,0,0,0-2.61-44.48q-2.61-19.47-11-28.16v-1.73h89.67v1.73q-8.34,8.7-11,28.16a339.6,339.6,0,0,0-2.6,44.48v94.53a339.65,339.65,0,0,0,2.6,44.49q2.61,19.47,11,28.15v1.74H1557v-1.74q8.34-8.68,11-28.15a337.79,337.79,0,0,0,2.61-44.49V3981l-78.2,9.73v18.07a337.79,337.79,0,0,0,2.61,44.49q2.6,19.47,11,28.15v1.74h-89.67v-1.74q8.34-8.68,11-28.15a339.65,339.65,0,0,0,2.6-44.49v-94.53a339.6,339.6,0,0,0-2.6-44.48q-2.61-19.47-11-28.16v-1.73Z" transform="translate(-120 -69.83)"/><path d="M1672.73,4083.18v-1.74q8.34-8.68,11-28.15a337.79,337.79,0,0,0,2.61-44.49v-94.53a337.74,337.74,0,0,0-2.61-44.48q-2.61-19.47-11-28.16v-1.73h137.46q10.95,0,20.5-.53t17-1.56a43.31,43.31,0,0,0,12-3.13l1.74.7,12.51,74-1.74.34a61.7,61.7,0,0,0-15.81-9.56,84.16,84.16,0,0,0-17.38-4.86,145.22,145.22,0,0,0-19.28-1.91q-10.1-.35-21.55-.35h-49.35v45.18h39.62a248.6,248.6,0,0,0,30.93-1.74q13.89-1.73,21.55-8.34l1.73.7v70.55l-1.73.7a61.78,61.78,0,0,0-15.64-10.08,74.54,74.54,0,0,0-16.86-5,135.39,135.39,0,0,0-18.77-1.92q-9.9-.33-21.37-.34h-19.46V4030h54.56q11.47,0,21.55-.17a128,128,0,0,0,19.29-1.74,77,77,0,0,0,17.37-5,65.33,65.33,0,0,0,15.82-9.73l1.74.35-12.52,74-1.73.69a43.77,43.77,0,0,0-12-3.13q-7.49-1-17-1.56t-20.51-.52H1672.73Z" transform="translate(-120 -69.83)"/><path d="M2007.77,3839.9q29.88,0,51.61,6.25t35.62,17.38a68.1,68.1,0,0,1,20.51,26.59,84.71,84.71,0,0,1,6.6,33.53q0,29.2-12.34,46.92a83.05,83.05,0,0,1-32.15,27.46l3.83,6.26q7.64,12.16,15.12,23.45t14.77,20.51a112.05,112.05,0,0,0,14.59,15.47q7.31,6.26,14.6,7.64v1.74a53.05,53.05,0,0,1-18.77,10.43,71.09,71.09,0,0,1-21.89,3.47,107.36,107.36,0,0,1-22.07-2.08,62.41,62.41,0,0,1-18.6-7.13,69.34,69.34,0,0,1-16.33-13.38,134.63,134.63,0,0,1-15.29-20.85l-18.42-29.2q-8,.7-15.64,1l-15.64.69a302.87,302.87,0,0,0,2.95,40q2.61,17.38,10.6,25.37v1.74h-89.67v-1.74q8.35-8.68,11-28.15a337.79,337.79,0,0,0,2.61-44.49v-94.53a337.74,337.74,0,0,0-2.61-44.48q-2.61-19.47-11-28.16v-1.73Zm-29.89,130.67a260.88,260.88,0,0,0,28.5-2.26,97,97,0,0,0,25.54-6.77,48.07,48.07,0,0,0,18.25-13.21q6.95-8.34,6.95-21.9,0-17.37-14.25-26.24t-40.32-8.86h-24.67Z" transform="translate(-120 -69.83)"/><path d="M2320.21,4042.17a120.87,120.87,0,0,0-4,13.55,47.05,47.05,0,0,0-1.22,10.08,25.57,25.57,0,0,0,1.57,9.91,23.3,23.3,0,0,0,3.3,5.73v1.74h-91.41v-1.74a122.53,122.53,0,0,0,19.64-29.89q8.51-17.72,14.42-33.36l56.31-142.5a93.34,93.34,0,0,0,4.34-13.38,37.41,37.41,0,0,0,.87-5.73,23.15,23.15,0,0,0-1.57-9.39,24.26,24.26,0,0,0-3.3-5.56v-1.73h81.33l70.2,178.29q5.91,15.63,14.43,33.36a122.51,122.51,0,0,0,19.63,29.89v1.74h-91.4v-1.74a23.62,23.62,0,0,0,3.3-5.73,25.78,25.78,0,0,0,1.56-9.91,50,50,0,0,0-1.21-10.25,80.81,80.81,0,0,0-4.35-13.38l-4.52-11.47-87.58,10.77ZM2366.43,3925l-27.11,69.51,52.13-6.6Z" transform="translate(-120 -69.83)"/><path d="M2624.65,3839.9q29.89,0,51.61,6.25t35.63,17.38a68,68,0,0,1,20.5,26.59,84.54,84.54,0,0,1,6.61,33.53q0,29.2-12.34,46.92a83.05,83.05,0,0,1-32.15,27.46l3.82,6.26q7.65,12.16,15.12,23.45t14.77,20.51a112.09,112.09,0,0,0,14.6,15.47q7.3,6.26,14.6,7.64v1.74a53.14,53.14,0,0,1-18.77,10.43,71.1,71.1,0,0,1-21.9,3.47,107.33,107.33,0,0,1-22.06-2.08,62.41,62.41,0,0,1-18.6-7.13,69.34,69.34,0,0,1-16.33-13.38,135.29,135.29,0,0,1-15.3-20.85l-18.42-29.2q-8,.7-15.63,1l-15.65.69a302.74,302.74,0,0,0,3,40q2.61,17.38,10.6,25.37v1.74h-89.67v-1.74q8.34-8.68,10.95-28.15a337.79,337.79,0,0,0,2.61-44.49v-94.53a337.74,337.74,0,0,0-2.61-44.48q-2.61-19.47-10.95-28.16v-1.73Zm-29.89,130.67a260.49,260.49,0,0,0,28.5-2.26,97,97,0,0,0,25.55-6.77,48,48,0,0,0,18.24-13.21q7-8.34,7-21.9,0-17.37-14.25-26.24t-40.32-8.86h-24.68Z" transform="translate(-120 -69.83)"/><path d="M3030.24,3962.58q0,32.33-10.42,55.78t-28.15,38.75a113.89,113.89,0,0,1-41.36,22.59,168.58,168.58,0,0,1-50,7.3h-4.52a169.69,169.69,0,0,1-50.39-7.3,113.8,113.8,0,0,1-41.36-22.59q-17.73-15.29-28.15-38.75t-10.43-55.78v-1.74q0-32.33,10.43-56T2804,3866a114.1,114.1,0,0,1,41.36-22.59,170,170,0,0,1,50.39-7.3h4.52a168.9,168.9,0,0,1,50,7.3,114.18,114.18,0,0,1,41.36,22.59q17.72,15.3,28.15,38.93t10.42,56Zm-200.18-1a89.2,89.2,0,0,0,4.69,29.71,69.55,69.55,0,0,0,13.2,23.11,56.91,56.91,0,0,0,20.68,14.95,68.26,68.26,0,0,0,27.11,5.21h4.52a67,67,0,0,0,26.93-5.21,57.23,57.23,0,0,0,20.51-14.95,69.57,69.57,0,0,0,13.21-23.11,95.91,95.91,0,0,0,0-59.25,67.49,67.49,0,0,0-13.21-23.12,60.08,60.08,0,0,0-20.51-14.94,65,65,0,0,0-26.93-5.39h-4.52a66.27,66.27,0,0,0-27.11,5.39,59.7,59.7,0,0,0-20.68,14.94,67.47,67.47,0,0,0-13.2,23.12A89.66,89.66,0,0,0,2830.06,3961.54Z" transform="translate(-120 -69.83)"/><path d="M3139,3839.9v1.73q-8.34,8.7-10.95,28.16a337.87,337.87,0,0,0-2.6,44.48v68.47q0,22.94,12.51,35.1t32.67,12.51q20.14-.34,32.67-12.51t12.51-35.1v-68.47a364.44,364.44,0,0,0-2.43-44.48q-2.45-19.47-11.13-28.16v-1.73h89.67v1.73q-8.34,8.7-11,28.16a339.6,339.6,0,0,0-2.6,44.48v68.47q0,24-6.43,43.27a84.76,84.76,0,0,1-19.64,32.84q-13.21,13.56-33.54,20.85t-48.13,7.3q-27.81,0-48.14-7.3T3089,4058.85a84.62,84.62,0,0,1-19.63-32.84q-6.43-19.29-6.43-43.27v-68.47a337.74,337.74,0,0,0-2.61-44.48q-2.61-19.47-11-28.16v-1.73Z" transform="translate(-120 -69.83)"/><path d="M3396.9,3839.9v1.73a11.94,11.94,0,0,0-.35,3.48,22.44,22.44,0,0,0,2.09,8.69,70.59,70.59,0,0,0,4.86,9.38c1.85,3,3.71,5.86,5.56,8.52s3.36,4.81,4.52,6.43l66.38,94.53v-58.39a339.6,339.6,0,0,0-2.6-44.48q-2.61-19.47-11-28.16v-1.73h89.66v1.73q-8.34,8.7-10.94,28.16a337.74,337.74,0,0,0-2.61,44.48v94.53a337.79,337.79,0,0,0,2.61,44.49q2.6,19.47,10.94,28.15v1.74h-83.75v-1.74a12.69,12.69,0,0,0,.34-3.48,22.41,22.41,0,0,0-2.08-8.68,72.62,72.62,0,0,0-4.87-9.39c-1.85-3-3.77-5.85-5.73-8.51a70.75,70.75,0,0,1-4.35-6.43l-66.73-95.23v59.08a337.79,337.79,0,0,0,2.61,44.49q2.61,19.47,10.95,28.15v1.74h-89.67v-1.74q8.34-8.68,10.95-28.15a337.79,337.79,0,0,0,2.61-44.49v-94.53a337.74,337.74,0,0,0-2.61-44.48q-2.61-19.47-10.95-28.16v-1.73Z" transform="translate(-120 -69.83)"/><path d="M3685.71,3839.9q28.48,0,51.95,7.64a112.79,112.79,0,0,1,40.49,22.77q17,15.12,26.42,38.05t9.38,53.18q0,30.23-9.38,53.17t-26.42,38.06a112.62,112.62,0,0,1-40.49,22.76q-23.46,7.65-51.95,7.65H3580.4v-1.74q8.34-8.68,10.95-28.15a339.65,339.65,0,0,0,2.6-44.49v-94.53a339.6,339.6,0,0,0-2.6-44.48q-2.61-19.47-10.95-28.16v-1.73Zm-5.56,191.84q32.31,0,50.74-17.9t18.42-52.3q0-34.41-18.42-52.31t-50.74-17.9q-5.22,0-12.17.18a94.73,94.73,0,0,0-11.47.86V4030.7a101.79,101.79,0,0,0,11.64.87Q3674.93,4031.75,3680.15,4031.74Z" transform="translate(-120 -69.83)"/></svg>


