<svg xmlns="http://www.w3.org/2000/svg" viewBox="0 0 4314.77 3851.56" width="500" height="500"><path style="fill-rule:evenodd;" d="M3705.05,1047c-61.05,23.67-61.45,26.9-127.44,26.9h-631v35.62H3579.5c61.84,0,67.31-1,125.55,18.52-61.05,23.66-61.45,22.1-127.44,22.1l-631,9.57h-80.12c-46.7,0-74.78-43.24-97.27-80-68.93-112.85-1473.55,116.3-1788.95,66.55-274.06-43.2-273.3-236.71,0-279.81,315.41-49.73,1720,179.45,1789,66.57,22.46-36.77,50.57-80,97.27-80h80.12l632.89,9.57c61.84,0,67.31-1,125.55,18.51-61.05,23.65-61.45,22.11-127.44,22.11h-631v35.63H3579.5c61.84,0,67.31,3.73,125.55,23.3C3644,985.76,3643.6,989,3577.61,989h-631v34.74H3579.5C3641.34,1023.73,3646.81,1027.47,3705.05,1047Z" transform="translate(-115.58 -141.23)"/><path style="fill-rule:evenodd;" d="M4138.5,1950.47c16,41.18,18.14,41.45,18.14,86v425.51h24V2035.14c0-41.7-.69-45.39,12.5-84.67,16,41.18,14.9,41.45,14.9,86l6.45,425.51v54c0,31.49-29.16,50.43-54,65.59-76.1,46.48,78.43,993.69,44.88,1206.37-29.13,184.82-159.63,184.3-188.69,0-33.53-212.69,121-1159.88,44.89-1206.37-24.79-15.15-54-34.1-54-65.59v-54l6.45-426.79c0-41.7-.7-45.39,12.48-84.67,16,41.18,14.92,41.45,14.92,86v425.51h24V2035.14c0-41.7,2.51-45.39,15.7-84.67,16,41.18,18.13,41.45,18.13,86v425.51h23.43V2035.14C4122.8,1993.44,4125.32,1989.75,4138.5,1950.47Z" transform="translate(-115.58 -141.23)"/><path style="fill-rule:evenodd;" d="M400.46,1950.47c16,41.18,18.14,41.45,18.14,86v425.51h24V2035.14c0-41.7-.69-45.39,12.49-84.67,16,41.18,14.91,41.45,14.91,86l6.45,425.51v54c0,31.49-29.16,50.43-54,65.59-76.1,46.48,78.42,993.69,44.88,1206.37-29.13,184.82-159.63,184.3-188.69,0-33.54-212.69,121-1159.88,44.89-1206.37-24.8-15.15-54-34.1-54-65.59v-54l6.46-426.79c0-41.7-.7-45.39,12.48-84.67,15.95,41.18,14.91,41.45,14.91,86v425.51h24V2035.14c0-41.7,2.51-45.39,15.71-84.67,16,41.18,18.13,41.45,18.13,86v425.51h23.42V2035.14C384.76,1993.44,387.28,1989.75,400.46,1950.47Z" transform="translate(-115.58 -141.23)"/><path style="fill-rule:evenodd;" d="M2752.68,3717.85H2171.44A55.59,55.59,0,0,0,2124,3744.7H1755.08V3620.3a36.8,36.8,0,0,0-36.69-36.7h-332c-61,0-111,49.94-111,111v157.51c0,61,49.93,111,111,111h329.35a39.49,39.49,0,0,0,39.37-39.38V3802H2124a55.6,55.6,0,0,0,47.47,26.86h581.24a55.66,55.66,0,0,0,55.48-55.49h0A55.64,55.64,0,0,0,2752.68,3717.85ZM1695.13,3908.56H1351.47a15.21,15.21,0,1,1,0-30.42h343.66a15.21,15.21,0,1,1,0,30.42Zm0-60.87H1351.47a15.22,15.22,0,0,1,0-30.44h343.66a15.22,15.22,0,0,1,0,30.44Zm0-60.89H1351.47a15.22,15.22,0,0,1,0-30.43h343.66a15.22,15.22,0,1,1,0,30.43Zm0-60.88H1351.47a15.22,15.22,0,0,1,0-30.44h343.66a15.22,15.22,0,0,1,0,30.44Zm0-60.89H1351.47a15.22,15.22,0,0,1,0-30.43h343.66a15.22,15.22,0,1,1,0,30.43Zm1029,131.58a23.28,23.28,0,1,1,23.26-23.28A23.29,23.29,0,0,1,2724.12,3796.61Z" transform="translate(-115.58 -141.23)"/><path d="M2942.16,3746.81c56,1.63,97.89,23.21,136.2,56.17,21.86,18.81,48.07,33.41,74.14,46.2,16.94,8.31,36.94,11.9,56,14,18.76,2.11,36.51-5.65,44.27-23.76,8-18.58,7.23-39.2-6.58-55.21-11.49-13.32-24.62-27-39.9-35-82.23-43.25-167.74-45.2-254.74-15.53C2949.15,3734.52,2947.9,3738.57,2942.16,3746.81Z" transform="translate(-115.58 -141.23)"/><path d="M2889.24,3649.83c8-4.71,13.05-7.27,17.64-10.45a104.79,104.79,0,0,1,64.94-19.13c12.63.42,25.45.71,37.9-1a182.47,182.47,0,0,0,36.45-9.38c13.64-4.88,18.56-16.5,18.2-30.24-.39-14.85-9-26.36-23.68-30.24-26.81-7.11-53-3.32-76.93,9.75-33,18.07-58.85,43.83-74.41,78.78C2888.53,3639.75,2889.24,3642.28,2889.24,3649.83Z" transform="translate(-115.58 -141.23)"/><path d="M2934.49,3863.89c27.81,40.41,47.54,71.54,70,100.53,8.88,11.45,22.94,20.24,36.4,26.41,16.1,7.4,37.67-7.24,38-25.32.22-12.65-.79-27.56-7.19-37.71C3042.68,3881.83,3000.36,3860.6,2934.49,3863.89Z" transform="translate(-115.58 -141.23)"/><path d="M1008.32,3378.87a40.42,40.42,0,0,1-9.83-1.23Q980.88,3374,969,3365.76t-11.88-15.56q0-4.08,22.53-34.4,117.93-156.42,173.63-322.68,10.23-31.95,14.12-54.26a290.35,290.35,0,0,0,3.89-49.76q0-28.26-2-36.24a46.64,46.64,0,0,0-8.19-16.17q-1.65-2.05-5.74-2.05l-4.91.41q-47.51,9.82-86,59.78-42.59,57.75-45.86,119.17,0,16.8-4.51,21.09t-21.29,4.3a64,64,0,0,1-24.16-4.3q-10.65-4.31-12.49-10.44t-1.84-17.2q0-65.92,38.49-125.72,27-41.78,64.7-66.75,18.43-12.29,34-17t40.13-4.71q17.61,0,37.27,7.78,81.48,29.89,81.49,119.57,0,56.11-30.3,137.6-41.37,111-122.86,226.86-9.42,12.7-9.41,16c0,.28.26.41.81.41q14.34-5.31,89.28-22.93,78.21-18.43,83.94-18.43,7.38,0,18.23,4.92t16.58,10.23q5.73,5.32,5.74,9.83t-5.33,8.6q-10.65,5.32-74.53,21.3-136.36,35.22-183.87,55.69Q1020.2,3378.87,1008.32,3378.87Z" transform="translate(-115.58 -141.23)"/><path d="M1568.11,3407.94q-9,0-14.53-3.27t-6.76-20.07q-1.23-16.8-1.23-42.59l.82-89.68q-12.71.83-24.77,1.85t-35.43,1.43q-23.34.41-46.27.41-46.68,0-67.36-3.28a94,94,0,0,1-37.06-13.92q-20.89-11.88-20.89-29.08a34.13,34.13,0,0,1,1.23-9q2-12.29,123.67-250.2,83.94-164.21,94.59-175.27a17.53,17.53,0,0,1,12.29-4.5q6.13,0,14.33,3.27,17.61,7,32.76,24.37t21.71,69.82q2.85,25,2.86,179.36V3212.2h11.47a38.38,38.38,0,0,1,19.45,5.32q9.21,5.34,9.21,11.06,0,9.42-27.43,13.51l-12.7,1.64-4.09,145-7.37,7Q1591.87,3407.95,1568.11,3407.94Zm-160.93-188.37q17.19,0,138.82-5.73l2.46-296.48q-2.06,1.23-29.08,54-56.93,108.53-109.74,206-20.9,39.74-20.89,40.54Q1388.75,3219.58,1407.18,3219.57Z" transform="translate(-115.58 -141.23)"/><path d="M2197.11,3392.38a82.86,82.86,0,0,1-17.61-2.05q-28.66-6.55-31.53-25.79-1.63-9.42-3.28-137.19-21.29,3.29-70.43,4.1l-54.87,2q2.44,66.35,2.45,77,0,14.34-.82,17.2-4.1,12.71-33.17,12.7-34.39-.4-40.54-18-11.46-38.09-11.46-253.9,0-140.45,2.05-154.79,2.44-17.6,28.25-17.61,16.78,0,28.26,4.71t15.56,11.67q7,15.17,7.37,185.92v99.92q91.72-3.69,110.36-5.33t18.63-3.68q.83-4.09,3.69-77a2843,2843,0,0,1,27.84-311.63q4.51-35.22,10.45-40.54t15.35-5.33q8.61,0,20.07,3.69,20.05,6.14,29.07,18.43,2.46,4.09,2.46,24.57,0,27.44-7.37,115.07-17.61,213.77-17.61,380,0,35.63-.2,53.23t-1.85,25.8q-1.64,8.19-5.11,10.85t-10.45,4.3A68.18,68.18,0,0,1,2197.11,3392.38Z" transform="translate(-115.58 -141.23)"/><path d="M2433,3296.56a135.06,135.06,0,0,1-34.81-4.92q-102-25-102-156.43,0-63,30.3-123.67,7-13.9,22.53-37.67l-17.61-23.34q-17.2-22.52-17.2-32.35,0-10.65,25.39-10.65,20.88,0,34.4,7.37t28.66,25.8q10.23,12.28,16.79,17.61a61.48,61.48,0,0,0,15.56,9q40.95,16,93.78,16,41.78-.4,90.5-20.89,17.21-11.46,34.81-11.46,7.37,0,15.56,4.5,10.65,7.38,10.65,18a49.34,49.34,0,0,1-2.87,16.38q-4.1,7.36-22.11,16.79-25,13.11-60.2,18-11.47,2.05-47.09,2.46-49.14-2.06-64.3-6.15l-16.78-2.87q0,.84,18.42,24.17,52.41,66.33,55.7,113,.81,17.19.81,24.57,0,65.12-49.55,97.87Q2466.15,3296.56,2433,3296.56Zm-18-43.41q5.73,0,16-6.55,29.07-19.67,34.81-65.52c.26-3.82.41-7.78.41-11.88q0-40.93-31.54-88.86-25-37.66-31.94-41-3.67,0-13.1,32.35-10.24,34.82-10.24,76.58,0,28.24,3.28,46.27,6.54,29.49,20.88,50.37,4.92,8.19,7.78,8.19Z" transform="translate(-115.58 -141.23)"/><path d="M2815.46,3378.87q-20.07,0-32.35-8.19-9-5.74-9-47.1,0-21.28,2.05-64.7-25.4,26.22-32.35,30.51a75.12,75.12,0,0,1-18,7.58q-14.75,4.5-25,4.5-41,0-61.42-19.65-40.14-38.09-40.14-175.27.41-67.15,7.37-114.46t18-58.35a20.66,20.66,0,0,1,12.29-5.33q4.5,0,12.28.82,28.26,1.23,38.91,16.79,3.27,3.69,3.27,11.06,0,9.83-2.46,35.22-5.33,68-5.32,124.08,0,62.65,9,106.47,4.09,21.3,7.37,21.29,2.86,0,25-34.4,28.66-44.62,61.84-139.64,10.23-30.7,15.15-37.26,6.54-9,25.8-9a70,70,0,0,1,17.61,2.46q31.93,7.36,31.94,27.84,0,7-2.46,38.09-2.87,37.68-4.1,45.45l-7.37,91.32q-9.42,135.56-18,142.1Q2837.58,3378.86,2815.46,3378.87Z" transform="translate(-115.58 -141.23)"/><path d="M2985.41,3412q-17.2,0-23.75-9a112.71,112.71,0,0,1-6.56-10.24q-9.42-17.19-17-71.46t-17.41-182.84q-5.32-74.94-5.32-147.42,0-112.2,11.06-174.45,7.77-39.32,15.56-43,15.15-7,47.91-7,22.93,0,52.83,6.55,60.2,13.51,111.79,56.1,35.22,29.08,54.87,61.43,26.2,46.28,27.85,78t1.64,38.7q0,47.91-18.43,87.63-40.55,75.77-126.13,135.55-16.38,11.46-16.38,12.69t16.38,3.28q23.74,2.46,59.79,7.78,43.82,6.13,53.24,11.87,22.11,13.13,22.11,27,0,9.82-10.24,9.83-13.11,0-138.82-16.38-42.18-6.54-49.14-6.55c-.55,0-.82.82-.82,2.45q0,7.38,2.05,23.35,2,33.17,2.05,86.4l-8.6,7Q3009.15,3412,2985.41,3412Zm38.9-211.31q2.46,0,32.76-22.11a381.83,381.83,0,0,0,79.85-79.85q21.28-27.84,30.31-48.73,13.91-32.36,13.92-78.63,0-40.54-14.74-73.71-28.26-61.42-103.61-80.26-22.11-5.33-51.19-5.32-3.68,31.13-3.68,73.3,0,114.24,9.83,244.47,4.9,65.12,4.91,68C3022.67,3199.78,3023.21,3200.73,3024.31,3200.73Z" transform="translate(-115.58 -141.23)"/><path d="M3449.78,3424.32a184.89,184.89,0,0,1-29.48-2.45q-65.52-11.48-85.59-52.83-6.55-11.88-6.55-30.71v-11.47q0-40.12,42.59-94.59,25-32.36,61.83-63.07-120-114.64-137.18-137.59-34-43.82-34-88.86,0-27.43,9.42-47.1,8.19-17.19,26.62-35.62,41.36-41,93.77-41a150.35,150.35,0,0,1,37.27,4.91q36.86,9,58.15,29.08,34.4,30.3,39.31,78.62c.55,4.91.82,8.47.82,10.65,0,3.27-2.05,5.26-6.14,5.94s-8.19,1.57-12.29,2.66q-7.78,0-20.88-5.33-16.38-5.73-22.11-20.88-12.7-36-27.85-51.19-11.88-11.86-17.61-11.87-12.7,0-33.58,17.19t-30.71,36.65a87.62,87.62,0,0,0-9.83,39.93q0,43.41,44.23,90.91,20.05,21.71,88,90.5l25.8-14.33q22.51-12.69,65.11-31.53,84.77-36.85,105.65-36.86,18,.42,19.66,23.75a11.65,11.65,0,0,1-2.05,7c0,1.92-1.71,4.37-5.12,7.38s-13.31,7.92-29.69,14.74q-67.56,25.8-115.48,56.51l-22.11,15.15q0,1.64,13.1,19.25,53.24,73.3,53.24,125.31a86.11,86.11,0,0,1-7,34.8q-18.84,35.22-57.54,50.78T3449.78,3424.32Zm-29.07-39.72q6.14,0,18.43-3.68,48.72-12.71,64.29-47.51,3.27-7.77,3.27-19.65a104.45,104.45,0,0,0-4.91-33.17q-13.11-39.32-31.53-61l-15.56,16.79q-45.06,50.79-54.06,98.28-.41,4.09-.41,8.6a87.75,87.75,0,0,0,1.64,16.38Q3408,3384.6,3420.71,3384.6Z" transform="translate(-115.58 -141.23)"/><path d="M209.6,684.07l1,1.82q-3.94,13.73,4.06,35.57a402.45,402.45,0,0,0,21.83,48.08l63.89,121.35,45.19-23.79q12-6.33,22.68-12.17a152.73,152.73,0,0,0,19.45-12.57,91.34,91.34,0,0,0,15.44-14.88,77.74,77.74,0,0,0,11.21-18.93l2-.59,27.39,84.72-1.44,1.69a56.23,56.23,0,0,0-12.83,3Q421.93,900,412.9,904t-19.15,9.15q-10.12,5.08-20.69,10.66L249.89,988.67l-1-1.82q4-13.71-4.06-35.56A400.24,400.24,0,0,0,223,903.2l-52.19-99.12a400.88,400.88,0,0,0-27.29-45.21q-13.47-19-27-23.47l-1-1.83Z" transform="translate(-115.58 -141.23)"/><path d="M701.38,613.36q15.5,35,15.45,65.45T704.91,734.3a134.8,134.8,0,0,1-34,44.31,199.81,199.81,0,0,1-50.73,31.91l-4.9,2.17A201.12,201.12,0,0,1,557.19,829a135,135,0,0,1-55.65-4.64q-26.54-8.07-49.09-28.5T414.4,740.37l-.83-1.88q-15.51-35-15.54-65.64t11.84-55.68a135,135,0,0,1,34-44.31A201.28,201.28,0,0,1,495,540.78l4.9-2.17a199.78,199.78,0,0,1,57.73-16.09,135.29,135.29,0,0,1,55.65,4.64q26.53,8.08,49.17,28.68t38.14,55.64ZM484,708.24a105.82,105.82,0,0,0,19.34,30,82.29,82.29,0,0,0,25.39,18.71,67.37,67.37,0,0,0,29.58,6.28,80.86,80.86,0,0,0,31.87-7.36l4.9-2.16a79.42,79.42,0,0,0,26.69-18.57,67.8,67.8,0,0,0,15-26A82.52,82.52,0,0,0,640,677.68a113.67,113.67,0,0,0-28.42-64.21,80.1,80.1,0,0,0-25.4-18.71,71.28,71.28,0,0,0-29.39-6.36A77,77,0,0,0,525,595.48l-4.89,2.17a78.43,78.43,0,0,0-26.79,18.84,70.69,70.69,0,0,0-15.25,26.11A79.89,79.89,0,0,0,474.87,674,106.29,106.29,0,0,0,484,708.24Z" transform="translate(-115.58 -141.23)"/><path d="M860.53,600l3.81-149.16a119.18,119.18,0,0,0-1.28-19.7,52.84,52.84,0,0,0-3.56-12.73,22.84,22.84,0,0,0-5.17-7.54,37.27,37.27,0,0,0-5.2-4l-.7-1.94,101.73-37.18.71,1.94q-6.84,16.1-9.09,37.52T938.69,454l-5.61,227-75.43,27.57L707,538.64q-17-18.79-32.5-33.73t-31.14-22.82l-.71-1.93L744.37,443l.71,1.93a27.51,27.51,0,0,0-1.43,6.88,25.89,25.89,0,0,0,1.18,9.22,59.59,59.59,0,0,0,5.36,12.29,88.76,88.76,0,0,0,11.92,15.81Z" transform="translate(-115.58 -141.23)"/><path d="M1057.05,637.34l-.58-2q6.58-12.66,3-35.66a401.86,401.86,0,0,0-11.9-51.45L1016,440.77a399.15,399.15,0,0,0-17.83-49.71q-9.45-21.26-21.85-28.35l-.58-2L1107,322.19l25.09-7.37q12.45-3.66,23.14-7.44t18.84-7.47a51.36,51.36,0,0,0,12.59-7.56l2.21.21,39,80-1.86,1a72.86,72.86,0,0,0-21.17-5.58,99.55,99.55,0,0,0-21.38.27,172.56,172.56,0,0,0-22.57,4.27q-11.58,3-24.62,6.8l-56.11,16.49,15.1,51.37,45-13.24a295.41,295.41,0,0,0,34.59-12.31q15.23-6.61,21.71-16.68l2.21.21,23.57,80.22-1.75,1.37a73.31,73.31,0,0,0-21.14-6.24,88.61,88.61,0,0,0-20.85-.1,161.09,161.09,0,0,0-22,4.1q-11.37,2.92-24.42,6.74L1110,497.72l15.79,53.74,62-18.23q13-3.84,24.45-7.4a151.8,151.8,0,0,0,21.35-8.42,91.79,91.79,0,0,0,18.07-11.53,77.88,77.88,0,0,0,14.73-16.35l2.09-.18,10.5,88.34-1.74,1.37a51.88,51.88,0,0,0-14.68.45q-8.85,1.32-19.88,3.91t-23.49,6.26l-25.09,7.37Z" transform="translate(-115.58 -141.23)"/><path d="M1390.07,431.29q9.65,8.1,24.68,14.67A159.76,159.76,0,0,0,1448,456.14,212.23,212.23,0,0,0,1486.2,460a181.8,181.8,0,0,0,39.39-3.72q14.12-2.91,22.48-9.26t6.2-16.84l-.42-2a17.15,17.15,0,0,0-8.95-11.82q-7.38-4.15-19.19-6.35a243.92,243.92,0,0,0-27-3.27q-15.15-1.06-32.29-2.59a212.2,212.2,0,0,1-32.42-5.3,96.36,96.36,0,0,1-27.57-11.34,73.09,73.09,0,0,1-21.12-19.82q-8.83-12.27-12.66-30.82l-.84-4q-5.49-26.62,1.87-45a72.37,72.37,0,0,1,22.36-30.27,119.36,119.36,0,0,1,34.37-18.86,283.75,283.75,0,0,1,38.34-10.86q9.69-2,20-3.07t19.58-1.93q9.29-.85,17.15-1.44a104,104,0,0,0,13.12-1.65q6-1.24,11.82-2.86a22,22,0,0,0,9.62-5.35h2.1q6.91,23.39,13.76,46.36t13.77,46.36l-1.44,1.14q-8.61-7.05-21.72-11.5a150.67,150.67,0,0,0-27.82-6.46,185,185,0,0,0-30-1.59,159.53,159.53,0,0,0-27.77,3q-16.55,3.42-26.59,9.69t-8.06,16a14.45,14.45,0,0,0,6.19,9.65,36.56,36.56,0,0,0,12.15,4.85,117.39,117.39,0,0,0,16.89,2.41q9.62.75,20.29,1.49,18.83,1.59,38.79,3.56a141.2,141.2,0,0,1,37.57,8.86,83.43,83.43,0,0,1,30.82,21q13.2,14.1,18.53,39.91l.84,4q5.16,25-1.15,43.34a76.38,76.38,0,0,1-20,31.26,107.14,107.14,0,0,1-32.91,20.87,237,237,0,0,1-73.68,16.89q-14.58.69-26,.11t-20-1.13a56.72,56.72,0,0,0-15,.78,35.28,35.28,0,0,0-9.76,3.69,20.62,20.62,0,0,0-7.47,6.59h-2.1l-32.11-100.6Z" transform="translate(-115.58 -141.23)"/><path d="M1665.05,487.08l-.29-2q8.34-11.58,8.15-34.85a400.13,400.13,0,0,0-4.35-52.63l-15.74-110.91a401.17,401.17,0,0,0-10.46-51.76q-6.3-22.39-17.54-31.21l-.28-2,135.37-19.21,25.89-3.68q12.85-1.81,24-4t19.72-4.67a51.77,51.77,0,0,0,13.55-5.67l2.16.53,27,84.77-2,.69a73,73,0,0,0-20.14-8.58,99.43,99.43,0,0,0-21.2-2.81,171.51,171.51,0,0,0-23,1q-11.9,1.28-25.34,3.18l-57.9,8.22,7.52,53,46.49-6.6a296,296,0,0,0,36-7.19q16-4.35,23.89-13.38l2.15.53,11.75,82.78-1.92,1.1a73.34,73.34,0,0,0-20-9.22,88.56,88.56,0,0,0-20.61-3.11,160,160,0,0,0-22.34.89q-11.68,1.24-25.14,3.15l-22.83,3.24,7.87,55.45,64-9.08q13.46-1.92,25.25-3.79a153.62,153.62,0,0,0,22.34-5.25,91.46,91.46,0,0,0,19.55-8.81A77.49,77.49,0,0,0,1893.58,371l2.1.12-2.35,88.93-1.92,1.11a51.41,51.41,0,0,0-14.59-1.67q-9,0-20.24,1t-24.15,2.8L1806.54,467Z" transform="translate(-115.58 -141.23)"/><path d="M2033.58,153.25q35.33-2.56,61.54,3t43.59,17.48a80.71,80.71,0,0,1,26.51,29.67,100.08,100.08,0,0,1,10.68,39.07q2.51,34.51-10.56,56.51a98.39,98.39,0,0,1-35.64,35.21l5.05,7.07q10.08,13.72,19.88,26.43t19.22,23a132.09,132.09,0,0,0,18.57,17q9.16,6.76,17.91,7.78l.15,2.05a62.83,62.83,0,0,1-21.29,13.94,84,84,0,0,1-25.58,6,127.41,127.41,0,0,1-26.26-.57,73.89,73.89,0,0,1-22.59-6.83,82.62,82.62,0,0,1-20.45-14.41,160.2,160.2,0,0,1-19.86-23.34l-24.27-32.93q-9.4,1.51-18.4,2.58l-18.42,2.16a360.11,360.11,0,0,0,6.91,47q4.57,20.32,14.7,29.08l.15,2.05-106,7.69-.15-2.06q9.11-11,10.52-34.21a399.39,399.39,0,0,0-.73-52.8l-8.1-111.73a402.14,402.14,0,0,0-6.89-52.35q-4.75-22.78-15.35-32.34l-.15-2Zm-24.13,157a311.38,311.38,0,0,0,33.49-5.11,114.81,114.81,0,0,0,29.61-10.2A56.93,56.93,0,0,0,2093,277.77q7.5-10.45,6.34-26.47-1.5-20.53-19.09-29.79t-48.41-7l-29.17,2.11Z" transform="translate(-115.58 -141.23)"/><path d="M2350.54,328.68l54.73-138.81a118.28,118.28,0,0,0,5.55-19,52.73,52.73,0,0,0,1-13.18,22.79,22.79,0,0,0-2.27-8.85,36.77,36.77,0,0,0-3.51-5.56v-2.06l108.32,0v2.06q-11.94,12.78-21.4,32.13t-18.93,42.84l-83.12,211.31-80.31,0-83.27-211.25q-9.48-23.47-19-42.82T2187,143.41v-2.06l108.32,0v2.06a27.65,27.65,0,0,0-3.71,6,25.91,25.91,0,0,0-2,9.06,58.84,58.84,0,0,0,.83,13.39,87.87,87.87,0,0,0,5.77,18.94Z" transform="translate(-115.58 -141.23)"/><path d="M2521.61,431.31l.16-2.05q10.64-9.52,15.46-32.29a399.21,399.21,0,0,0,7.07-52.33l8.49-111.7a401.88,401.88,0,0,0,.91-52.8q-1.34-23.22-10.41-34.24l.15-2.06,136.35,10.36,26.07,2q12.94,1,24.28,1.22t20.26-.32a51.17,51.17,0,0,0,14.45-2.62l2,1L2775,244l-2.08.25a72.68,72.68,0,0,0-17.83-12.71,98.93,98.93,0,0,0-20.1-7.31,172.82,172.82,0,0,0-22.62-4q-11.88-1.31-25.43-2.35l-58.31-4.42-4.06,53.38,46.82,3.56a296.35,296.35,0,0,0,36.7.72q16.57-.8,26.21-7.92l2,1-6.33,83.36-2.11.67a73.27,73.27,0,0,0-17.58-13.32,88.57,88.57,0,0,0-19.46-7.46,159.9,159.9,0,0,0-22-4q-11.67-1.29-25.22-2.33l-23-1.74-4.24,55.85,64.47,4.89q13.56,1,25.48,1.73a151.77,151.77,0,0,0,22.95-.32,91.45,91.45,0,0,0,21-4.39,77.81,77.81,0,0,0,19.56-10.08l2,.56-21.43,86.35-2.12.67a51.28,51.28,0,0,0-13.88-4.78q-8.74-1.89-20-3.37t-24.18-2.46l-26.08-2Z" transform="translate(-115.58 -141.23)"/><path d="M2954.09,185.64q33.38,5.13,59.48,18.3t43.34,33.94q17.22,20.76,24.1,49.32t1.43,64q-5.43,35.41-20.55,60.6t-37.78,39.83q-22.67,14.64-51.51,19.38t-62.24-.38L2787,451.67l.31-2q11.33-8.67,17.88-31A400.56,400.56,0,0,0,2816.26,367l17-110.72a399.34,399.34,0,0,0,4.94-52.58q.45-23.25-7.76-34.94l.31-2Zm-41,223.71q37.86,5.82,62.65-11.84t31-58q6.2-40.29-12.17-64.57t-56.22-30.09q-6.1-.93-14.28-2a112,112,0,0,0-13.59-1l-24.86,162a118.9,118.9,0,0,0,13.48,3.11Q2907,408.43,2913.1,409.35Z" transform="translate(-115.58 -141.23)"/><path d="M3373.27,272q32.63,8.72,57.15,24.64t39.39,38.45q14.86,22.52,18.6,51.64t-5.52,63.75q-9.26,34.62-27,58T3414,544q-24.12,12.1-53.31,13.68t-61.83-7.14L3178.3,518.31l.53-2q12.21-7.38,21.14-28.88a401.43,401.43,0,0,0,16.6-50.13l28.91-108.23a401.23,401.23,0,0,0,10.62-51.72q3-23.08-3.93-35.58l.54-2Zm-65,217.93q37,9.88,63.56-5t37.09-54.25q10.53-39.39-5.09-65.52t-52.62-36q-6-1.59-14-3.52a111.37,111.37,0,0,0-13.4-2.51l-42.3,158.36a121.13,121.13,0,0,0,13.06,4.56Q3302.26,488.35,3308.23,489.93Z" transform="translate(-115.58 -141.23)"/><path d="M3553.66,575.85a143.63,143.63,0,0,0-9.82,13.56,56.51,56.51,0,0,0-5.34,10.78q-2.48,7-2.16,11.69a27.5,27.5,0,0,0,1.42,7.71l-.69,1.94L3435,585.42l.69-1.94q17.22-9.19,33.75-25.64t29.29-31.58l119.19-136.95A112,112,0,0,0,3628,376.07a44.76,44.76,0,0,0,3.24-6.06q2.33-6.6,1.95-11.1a28.61,28.61,0,0,0-1.49-7.52l.69-1.94,90.86,32.13,8,226.92q.43,19.8,2.94,43t10.13,41.15l-.69,2-102.12-36.11.69-1.94a27.76,27.76,0,0,0,5.95-5.11q3.2-3.45,5.66-10.44a59.58,59.58,0,0,0,2.7-11.94,96,96,0,0,0,.43-16.66l-.52-14.6-102.1-22.56Zm97.91-112.6-57.74,67,60.85,13.22Z" transform="translate(-115.58 -141.23)"/><path d="M3964,478l-.8,1.9q-13.11,5.64-24.94,25.67a401,401,0,0,0-23.38,47.36l-43.62,103.18a400.07,400.07,0,0,0-17.68,49.75q-6.14,22.46-1,35.78l-.81,1.9-97.86-41.38.8-1.9q13.11-5.62,24.94-25.67A401.65,401.65,0,0,0,3803,627.24l43.62-103.18a400.35,400.35,0,0,0,17.69-49.76q6.13-22.44,1-35.78l.8-1.89Z" transform="translate(-115.58 -141.23)"/><path d="M4096.21,538.9l-.89,1.86q-13.37,5-26.13,24.45a401.14,401.14,0,0,0-25.61,46.19L3984.21,735l46,22.1q12.24,5.89,23.29,11a153.74,153.74,0,0,0,21.68,8.13,91.88,91.88,0,0,0,21.15,3.53,77.58,77.58,0,0,0,21.88-2.28l1.68,1.26-51.71,72.48-2.21-.15a56.71,56.71,0,0,0-10.09-8.5q-6.51-4.5-15.16-9.33T4022,823.3q-10.12-5.1-20.89-10.26l-125.48-60.26.89-1.85q13.36-5,26.14-24.46a401.65,401.65,0,0,0,25.6-46.18l48.49-101a400.74,400.74,0,0,0,20-48.86q7.2-22.12,2.75-35.69l.89-1.86Z" transform="translate(-115.58 -141.23)"/><path d="M4181.61,795.81l4.48-181a117.35,117.35,0,0,0-1.63-18.66q-1.71-10.74-5.57-16.57l1-1.81,91,49.06-1,1.81a13.7,13.7,0,0,0-7.4,6.77,23.12,23.12,0,0,0-2.59,9.14q-.44,5.15-.57,9.75l-2.09,79.35,65.53-45.15q3.75-2.64,7.82-5.84a22.85,22.85,0,0,0,6.21-7.18,13.7,13.7,0,0,0,1.6-9.9l1-1.81,91,49.06-1,1.82q-7,0-17.09,4.35a84.41,84.41,0,0,0-16.31,9L4246.86,831l-4.3,8a399,399,0,0,0-22.3,47.87q-8.23,21.76-4.42,35.52l-1,1.81-93.52-50.43,1-1.81q13.93-4.18,27.43-23.11a431.82,431.82,0,0,0,27.56-45Z" transform="translate(-115.58 -141.23)"/><path d="M692.6,2293.14c40.28,102.64,106.52,188.45,176.65,271.79,11.37,13.51,24,22,41.72,17.68s27.18-17.53,28.65-35c7.28-86.11,41.7-165.15,63-247.59,10-38.64,19.82-78.33,3.08-118.69-11.37-27.4-29.12-47.12-58.62-51.77-30.31-4.78-52.21,11.57-70.09,34.39-15.28,19.49-20,43.75-31.33,69.05-27.17-20.05-44.24-46.82-71-62.58-23.51-13.83-47.71-21.07-72.63-4.44-25.94,17.3-33,43.29-27.19,72.17C678.61,2257,685.57,2275.24,692.6,2293.14Z" transform="translate(-115.58 -141.23)"/><path d="M3406.63,2293.14c40.28,102.64,106.53,188.45,176.65,271.79,11.37,13.51,24,22,41.73,17.68s27.17-17.53,28.64-35c7.28-86.11,41.71-165.15,63-247.59,10-38.64,19.82-78.33,3.08-118.69-11.37-27.4-29.11-47.12-58.62-51.77-30.31-4.78-52.21,11.57-70.09,34.39-15.28,19.49-20,43.75-31.33,69.05-27.17-20.05-44.24-46.82-71-62.58-23.52-13.83-47.71-21.07-72.64-4.44-25.93,17.3-33,43.29-27.19,72.17C3392.64,2257,3399.6,2275.24,3406.63,2293.14Z" transform="translate(-115.58 -141.23)"/><path d="M2074.24,2266q-19.75-12.28-55.86-12.28H2001v108.83a341.56,341.56,0,0,0,34.67-4.58,106.61,106.61,0,0,0,29.86-9.87,56.07,56.07,0,0,0,20.7-17.82q7.71-11.07,7.71-27.92Q2094,2278.32,2074.24,2266Zm-326.72,12a83.3,83.3,0,0,0-28.41-20.71q-16.62-7.45-37.32-7.46h-6.26q-20.71,0-37.56,7.46a82.62,82.62,0,0,0-28.65,20.71,93.45,93.45,0,0,0-18.3,32,124.49,124.49,0,0,0-6.5,40.93q0,22.63,6.5,41.17a96.45,96.45,0,0,0,18.3,32,78.73,78.73,0,0,0,28.65,20.71q16.85,7.21,37.56,7.22h6.26q20.7,0,37.32-7.22a79.31,79.31,0,0,0,28.41-20.71,96.45,96.45,0,0,0,18.3-32q6.5-18.52,6.5-41.17a124.49,124.49,0,0,0-6.5-40.93A93.45,93.45,0,0,0,1747.52,2278.08Zm1334.11-159.72h-1781l86.28,237.89-86.28,237.88h1781l-86.28-237.88ZM1861.89,2352.47q0,44.79-14.45,77.29t-39,53.69a157.9,157.9,0,0,1-57.31,31.3,233.79,233.79,0,0,1-69.34,10.11h-6.26a235.41,235.41,0,0,1-69.82-10.11,157.7,157.7,0,0,1-57.3-31.3q-24.57-21.18-39-53.69T1495,2352.47v-2.4q0-44.79,14.44-77.53t39-53.93a157.84,157.84,0,0,1,57.3-31.3,235.41,235.41,0,0,1,69.82-10.11h6.26a233.79,233.79,0,0,1,69.34,10.11,158.05,158.05,0,0,1,57.31,31.3q24.55,21.19,39,53.93t14.45,77.53Zm306,9.39a113,113,0,0,1-42.13,38q-26,13.71-58.75,19.26a534.23,534.23,0,0,1-66,7,423.56,423.56,0,0,0,4.1,55.86q3.6,24.07,14.68,35.15v2.41H1895.59v-2.41q11.55-12,15.16-39a468.33,468.33,0,0,0,3.62-61.64v-131a468.44,468.44,0,0,0-3.62-61.64q-3.6-27-15.16-39v-2.41h130q41.42,0,71.51,8.67t49.36,24.08a94.25,94.25,0,0,1,28.41,36.83,117.29,117.29,0,0,1,9.15,46.47Q2184,2337.56,2167.89,2361.86Zm313.72,164-2.4,1q-6.27-2.89-16.62-4.33t-23.59-2.17q-13.26-.72-28.41-.72H2212.92v-2.41q11.55-12,15.16-39a468.33,468.33,0,0,0,3.62-61.64v-131a468.44,468.44,0,0,0-3.62-61.64q-3.6-27-15.16-39v-2.41h190.44q15.18,0,28.41-.72t23.6-2.17q10.35-1.44,16.61-4.33l2.41,1,17.34,102.57-2.41.48a85.09,85.09,0,0,0-21.91-13.24,115.69,115.69,0,0,0-24.08-6.74,200,200,0,0,0-26.72-2.65q-14-.48-29.86-.48h-68.38v62.6h54.9a346.55,346.55,0,0,0,42.85-2.41q19.26-2.4,29.86-11.56l2.41,1v97.75l-2.41,1a85.92,85.92,0,0,0-21.67-14,103.89,103.89,0,0,0-23.35-7,188.22,188.22,0,0,0-26-2.64q-13.72-.48-29.61-.49h-27v65.49H2394q15.9,0,29.86-.24a177,177,0,0,0,26.72-2.41,106.85,106.85,0,0,0,24.08-7,90.47,90.47,0,0,0,21.91-13.48l2.41.48Zm385.71-340.93q-11.55,12-15.17,39a470.3,470.3,0,0,0-3.61,61.64v131a470.19,470.19,0,0,0,3.61,61.64q3.61,27,15.17,39v2.41H2751.27v-2.41a17,17,0,0,0,.48-4.82,31.06,31.06,0,0,0-2.89-12,98.93,98.93,0,0,0-6.74-13q-3.85-6.24-7.94-11.79a95.67,95.67,0,0,1-6-8.91l-92.46-131.94v81.86a470.19,470.19,0,0,0,3.61,61.64q3.61,27,15.17,39v2.41H2530.25v-2.41q11.55-12,15.16-39a468.33,468.33,0,0,0,3.62-61.64v-131a468.44,468.44,0,0,0-3.62-61.64q-3.6-27-15.16-39v-2.41h116.53v2.41a16.59,16.59,0,0,0-.48,4.82,31,31,0,0,0,2.89,12,97.13,97.13,0,0,0,6.74,13q3.84,6.25,7.7,11.79t6.26,8.91l92,131v-80.9a468.44,468.44,0,0,0-3.62-61.64q-3.6-27-15.16-39v-2.41h124.23Zm262.36,183.51c-3.32-5.21-6.33-10.73-9.83-15.72-2.06-2.93-3.5-5.39-1.31-9a2.54,2.54,0,0,0,.17-.82c1-5.34,1.93-10.69,3-16,.37-1.88,1-3.68,1.59-5.85-1-2.13-2.57-3.26-4.49-2.65-2.13.68-4.63,1.16-6.16,2.88-2.85,3.2-6.47,3.62-9.65,5.51-2.45,1.45-4.93,1.72-6.84-1.52a1,1,0,0,0-.6-.33c-2.54-.7-4.26-2.9-6-5.13a5.42,5.42,0,0,0-1.55-1.48,16,16,0,0,1-6.5-5.67,2.06,2.06,0,0,0-3-.89c-1.63.85-2.38,4-1.66,6.16a14.73,14.73,0,0,1,1.15,3.9q.28,9.55.22,19.13c0,1.08-.57,2.77-1.23,3.12-3.86,2.08-6.56,6.15-10,8.91a45.59,45.59,0,0,0-6.41,6.53c-2,2.35-1.41,5,1.13,6.2,1.77.8,3.61,1.32,5.43,2,2.78,1,5.56,1.88,8.33,2.88a23.7,23.7,0,0,1,4,1.77c1.17.69,2.73,1.42,3.2,2.68,1.44,3.9,2.43,8.07,3.62,12.13,1,3.53,1.94,7.13,3.18,10.54,1.62,4.44,3.83,4.72,6.07.71,3.24-5.8,6.39-11.69,9.32-17.75,1.4-2.9,3.09-4,5.7-4,5.26.05,10.53-.19,15.79-.32,1.56,0,3.29.21,4.14-2A6.12,6.12,0,0,0,3129.68,2368.41Zm-1799.24-12.16c0-20.82-13.34-37.7-29.79-37.7s-29.78,16.88-29.78,37.7,13.33,37.69,29.78,37.69S1330.44,2377.07,1330.44,2356.25Z" transform="translate(-115.58 -141.23)"/><path d="M485.38,1458.94l.78,249.4a156.61,156.61,0,0,1-18.71,74.81q-18.7,35.08-50.66,56.12a129.93,129.93,0,0,1-71.7,21H257.8q-.78.78-3.12.78H182.2a19.68,19.68,0,0,1-14.81-6.62q-6.24-6.62-6.23-16.76v-498a24.69,24.69,0,0,1,7-17.54q7-7.4,16.37-7.4H341.19q39.75,0,72.87,19.09a143.92,143.92,0,0,1,52.61,51.83Q485.38,1419.19,485.38,1458.94Zm-98.2,242.38V1463.61a58.54,58.54,0,0,0-58.46-58.44H263.26a11.21,11.21,0,0,0-8.19,3.5q-3.49,3.51-3.5,7.4v344.48c0,4.17,2.07,6.24,6.23,6.24h63.91q26.49,0,46-19.48T387.18,1701.32Z" transform="translate(-115.58 -141.23)"/><path d="M780.76,1334.24l102.09,505c1,5.72-.27,10.52-3.89,14.42s-8.85,5.84-15.59,5.84H797.12q-17.94,0-20.26-17.14l-23.38-127H652.94l-23.38,127q-1.57,9.34-6.24,13.25t-14,3.89H543.05q-10.14,0-16-5.84c-3.89-3.9-5.33-8.7-4.28-14.42l102.87-505q1.56-8.57,9.74-14.42a30.82,30.82,0,0,1,18.32-5.84h98.2a32.57,32.57,0,0,1,18.7,5.84Q779.2,1325.67,780.76,1334.24ZM703.6,1624.16h36.63l-33.51-195.62c-1.05-2.59-2.34-3.89-3.9-3.89s-2.86,1.3-3.9,3.89l-32.73,195.62H703.6Z" transform="translate(-115.58 -141.23)"/><path d="M1253.83,1458.94l.77,249.4a156.6,156.6,0,0,1-18.7,74.81q-18.7,35.08-50.66,56.12a130,130,0,0,1-71.7,21h-87.29q-.78.78-3.12.78H950.65a19.68,19.68,0,0,1-14.81-6.62q-6.24-6.62-6.23-16.76v-498a24.69,24.69,0,0,1,7-17.54q7-7.4,16.37-7.4h156.65q39.75,0,72.87,19.09a143.92,143.92,0,0,1,52.61,51.83Q1253.82,1419.19,1253.83,1458.94Zm-98.2,242.38V1463.61a58.54,58.54,0,0,0-58.46-58.44h-65.46a11.21,11.21,0,0,0-8.19,3.5c-2.34,2.34-3.5,4.81-3.5,7.4v344.48c0,4.17,2.07,6.24,6.23,6.24h63.91q26.49,0,46-19.48T1155.63,1701.32Z" transform="translate(-115.58 -141.23)"/><path d="M1419.83,1341.26v58.45A29.18,29.18,0,0,1,1412,1420l-42.87,59.23c-2.08,2.09-6.23,3.12-12.47,3.12h-42.86a9.32,9.32,0,0,1-9.36-9.35,9.72,9.72,0,0,1,3.12-7l17.15-30.39a4.55,4.55,0,0,0,.78-3.12c0-3.12-1.31-5.19-3.9-6.23a26.43,26.43,0,0,1-12.47-10.14,28.77,28.77,0,0,1-4.68-16.36v-58.45q0-12.46,8.19-20.27a26.81,26.81,0,0,1,19.09-7.79h60a27.93,27.93,0,0,1,28.06,28.06Z" transform="translate(-115.58 -141.23)"/><path d="M1779.11,1685a315.38,315.38,0,0,1-5.84,62,152.15,152.15,0,0,1-23.77,55.72q-20.28,30.4-51,47.15a135.67,135.67,0,0,1-65.85,16.76h-24.17a134.16,134.16,0,0,1-54.55-11.3,143.56,143.56,0,0,1-46-32.34,157.44,157.44,0,0,1-41.31-106v-.78a26.18,26.18,0,0,1,7.4-18.7,23.43,23.43,0,0,1,17.54-7.8h55.33c.52.53,1.56.78,3.12.78h1.56a29.31,29.31,0,0,1,11.69,9.35,21.74,21.74,0,0,1,4.68,13.25v7.8a53.49,53.49,0,0,0,10.52,32.34,49.38,49.38,0,0,0,27.67,19.1,56.46,56.46,0,0,0,16.36,2.33h2.34c4.15,0,6.49-.25,7-.77h.78q21.8-1.56,36.24-16.76a50.89,50.89,0,0,0,14.41-36.24l1.56-39q-.78-39.75-32.73-55.34-18.7-10.11-57.68-11.69l-14.8-1.55q-64.71-4.68-85.34-45.6t-20.66-99.37l.78-27.28.78-10.91q-1.58-52.2,35.07-86.51,38.19-38.17,100.54-36.63h24.16a133,133,0,0,1,52.22,10.53,138.53,138.53,0,0,1,44.42,30,130.61,130.61,0,0,1,29.62,45.59,150.73,150.73,0,0,1,10.13,55v.78q0,10.14-6.62,16.75a21.75,21.75,0,0,1-16,6.63h-53.78a21.7,21.7,0,0,1-14.41-7,20.87,20.87,0,0,1-5.85-14.8v-5.46a47.61,47.61,0,0,0-10.52-30.4,56.28,56.28,0,0,0-27.67-18.7,49.06,49.06,0,0,0-15.59-2.34h-6.23c-.52.53-1.83.78-3.9.78q-21.82,2.34-35.07,16.37t-13.25,34.29v45.2q2.34,22.62,20.26,31.57T1642,1532.2q68.57,0,102.87,39.75l34.29,39.75Z" transform="translate(-115.58 -141.23)"/><path d="M2149.3,1557.92l173,264.21q3.88,9.34,3.89,14a25.44,25.44,0,0,1-6.62,17.54q-6.63,7.41-17.54,6.62h-65.47q-14,0-21.82-14.8l-130.15-204.2v200.3q0,7-5.46,12.86a17.48,17.48,0,0,1-13.25,5.84H2009a19.61,19.61,0,0,1-14.42-5.84q-5.85-5.85-5.84-12.86V1335a20,20,0,0,1,5.84-14,19,19,0,0,1,14.42-6.23h56.89a17,17,0,0,1,13.25,6.23,20.83,20.83,0,0,1,5.46,14v143.4l96.64-148.85a50.15,50.15,0,0,1,11.3-10.92q6.61-4.67,12.86-3.89l57.67-.78a28.77,28.77,0,0,1,18.32,7.79q7.39,7,7.4,16.37,0,7.8-3.12,10.91Z" transform="translate(-115.58 -141.23)"/><path d="M2476.24,1854.08a18.15,18.15,0,0,1-13.64,6.23h-57.67a18.94,18.94,0,0,1-14.42-6.23,20.89,20.89,0,0,1-5.85-14.81V1335a20.94,20.94,0,0,1,5.85-14.81,19,19,0,0,1,14.42-6.23h57.67a18.18,18.18,0,0,1,13.64,6.23,21,21,0,0,1,5.84,14.81v504.25A20.93,20.93,0,0,1,2476.24,1854.08Z" transform="translate(-115.58 -141.23)"/><path d="M2704.19,1312.42h86.51a24.41,24.41,0,0,1,16,5.45q6.62,5.48,6.62,13.25v52.22q0,7.8-6.62,13.25a24.31,24.31,0,0,1-16,5.46h-66.24v435.66a20.88,20.88,0,0,1-5.85,14.81,19,19,0,0,1-14.42,6.23h-57.67q-7.8,0-14-6.23a20.18,20.18,0,0,1-6.23-14.81V1402.05h-63.13q-10.14,0-16.37-5.07t-6.23-13.64v-52.22a16.64,16.64,0,0,1,6.23-13.63q6.22-5.07,16.37-5.07h141.06Z" transform="translate(-115.58 -141.23)"/><path d="M3097.77,1684.18h53a21.79,21.79,0,0,1,16,6.62,22.76,22.76,0,0,1,6.63,16.76v3.9q0,41.31-19.1,76.37t-51.82,55.34a135.14,135.14,0,0,1-73.27,21h-24.93a135,135,0,0,1-72.87-20.65,144.48,144.48,0,0,1-51.83-55.73q-19.5-34.27-19.49-76.37v-258q0-40.53,19.1-74.43a146.08,146.08,0,0,1,52.6-54.17q31.95-19.47,71.71-19.49h24.94q39.74,0,72.87,19.49a143.35,143.35,0,0,1,52.6,53.78q18.7,33.51,18.71,74.82v.77q.76,9.36-6.24,16.76c-4.67,5-9.87,7.4-15.58,7.4h-53c-6.24,0-11.69-2.45-16.37-7.4a23.74,23.74,0,0,1-7-16.76v-2.33q0-26.49-16.76-43.26t-42.47-16.76H3012q-24.16,0-42.48,17.93T2952,1452.71v254.85q0,25.71,18.31,44.81t41.7,19.1h3.12q24.93,0,42.08-18.71t17.15-45.2a22.1,22.1,0,0,1,7-16.76l7-6.62Z" transform="translate(-115.58 -141.23)"/><path d="M3505.37,1314h56.12a21.54,21.54,0,0,1,15.19,6.23q6.62,6.26,6.63,14v503.47a19.66,19.66,0,0,1-6.63,14.81,21.5,21.5,0,0,1-15.19,6.23h-56.12a21.47,21.47,0,0,1-15.19-6.23,19.63,19.63,0,0,1-6.63-14.81V1621.05l-147.3.78v215.88a21.27,21.27,0,0,1-21,21h-57.68q-7.8,0-14-6.23a20.15,20.15,0,0,1-6.24-14.81V1334.24q0-7.79,6.24-14t14-6.23h57.68a21,21,0,0,1,14.81,5.84,19,19,0,0,1,6.23,14.42v192.5l147.3-.78V1334.24q0-7.79,6.63-14A21.51,21.51,0,0,1,3505.37,1314Z" transform="translate(-115.58 -141.23)"/><path d="M3901.29,1407.5H3743.85v119.24H3863.1a18.7,18.7,0,0,1,19.48,19.49v54.55q0,8.6-5.46,14a19,19,0,0,1-14,5.46H3743.85v141.84h157.44a20.9,20.9,0,0,1,14.8,5.85,19,19,0,0,1,6.24,14.42v53.77a21.31,21.31,0,0,1-21,21H3671.37q-9.35,0-15.2-6.24a20.91,20.91,0,0,1-5.84-14.81V1332.68a19.63,19.63,0,0,1,5.84-14.42q5.85-5.84,15.2-5.84h229.92a20.94,20.94,0,0,1,14.8,5.84,19,19,0,0,1,6.24,14.42v53.78a21.29,21.29,0,0,1-21,21Z" transform="translate(-115.58 -141.23)"/><path d="M4256.67,1311.64h59.23c4.68,0,9.22,1.83,13.64,5.45s6.62,7,6.62,10.14v504.25q0,12.46-5.84,19.48a18.07,18.07,0,0,1-14.42,7h-80.27q-8.6,0-16.76-5.84t-11.3-13.64l-126.26-345.26,7,343.7a20.87,20.87,0,0,1-5.84,14.81c-3.9,4.17-9,6.23-15.2,6.23h-57.67a21.46,21.46,0,0,1-15.2-6.23,19.62,19.62,0,0,1-6.62-14.81V1332.68a19.68,19.68,0,0,1,6.62-14.81,21.55,21.55,0,0,1,15.2-6.23h92.74a31.35,31.35,0,0,1,17.93,5.85c5.71,3.89,9.35,8.45,10.91,13.63l113,338.25-7.8-336.69a20.94,20.94,0,0,1,5.85-14.81A19,19,0,0,1,4256.67,1311.64Z" transform="translate(-115.58 -141.23)"/></svg>


