<svg xmlns="http://www.w3.org/2000/svg" viewBox="0 0 3424.72 4942.5" width="500" height="500"><path d="M887.06,4963.83q-61,0-99-12Q695.55,4925.72,639,4797.33q-99-220.9-99-589.77,8.7-633.32,214.37-833.55,64.17-59.82,153.43-59.85,176.27,0,249.19,156.71,63.1,121.86,63.1,237.21,0,63.11-3.25,70.74-15.27,31.54-77.27,31.54-49,0-71.81-20.66-15.26-15.21-22.84-69.64-14.19-104.46-75.08-230.7Q954.51,3460,950.19,3460q-16.34,0-59.85,95.77Q781.48,3799.52,781.5,4204.28q0,62,3.28,125.14,15.22,309,87,454.86L899,4840.85q142.55-151.24,254.63-392.83,28.27-59.82,54.41-119.7,33.74-80.49,53.86-117t39.17-44.61q19-8.17,56.05-8.18,72.87,3.29,72.9,28.31,0,24-92.49,239.4Q1127.54,4917,969.78,4954,934.94,4963.81,887.06,4963.83Z" transform="translate(-539.94 -174.5)"/><path d="M1820.81,4687.42q-43.53,0-92.48-13.05-271-66.37-271-415.69,0-167.57,80.53-328.63,18.46-37,59.85-100.11l-46.8-62q-45.7-59.82-45.71-86,0-28.27,67.49-28.29,55.47,0,91.38,19.59t76.18,68.55q27.21,32.66,44.62,46.8t41.36,23.93Q1935.07,3855,2075.45,3855q110.94-1.06,240.46-55.47,45.72-30.45,92.51-30.48,19.57,0,41.36,12,28.28,19.61,28.29,47.89a130.68,130.68,0,0,1-7.64,43.52q-10.86,19.62-58.75,44.62-66.39,34.83-160,47.87-30.48,5.45-125.14,6.53Q1996,3966,1955.75,3955.08l-44.62-7.6q0,2.17,49,64.2,139.26,176.31,148,300.34,2.18,45.7,2.19,65.27,0,173.05-131.68,260.08Q1908.92,4687.42,1820.81,4687.42Zm-47.87-115.35q15.22,0,42.43-17.39,77.27-52.24,92.48-174.11c.71-10.15,1.1-20.68,1.1-31.57q0-108.81-83.79-236.11-66.39-100.13-84.88-108.84-9.79,0-34.82,86-27.2,92.52-27.19,203.48,0,75.09,8.7,123,17.4,78.38,55.5,133.85,13,21.73,20.68,21.74Z" transform="translate(-539.94 -174.5)"/><path d="M2647.91,4687.42q-43.53,0-92.48-13.05-271-66.37-271-415.69,0-167.57,80.53-328.63,18.47-37,59.85-100.11l-46.8-62q-45.7-59.82-45.71-86,0-28.27,67.48-28.29,55.47,0,91.39,19.59t76.18,68.55q27.2,32.66,44.61,46.8t41.36,23.93Q2762.16,3855,2902.54,3855q111-1.06,240.47-55.47,45.7-30.45,92.51-30.48,19.58,0,41.36,12,28.26,19.61,28.28,47.89a130.66,130.66,0,0,1-7.63,43.52q-10.87,19.62-58.76,44.62-66.37,34.83-160,47.87-30.48,5.45-125.14,6.53-130.56-5.41-170.83-16.33l-44.61-7.6q0,2.17,49,64.2,139.26,176.31,148,300.34,2.18,45.7,2.18,65.27,0,173.05-131.68,260.08Q2736,4687.42,2647.91,4687.42ZM2600,4572.07q15.23,0,42.43-17.39,77.25-52.24,92.48-174.11,1.07-15.22,1.09-31.57,0-108.81-83.78-236.11-66.39-100.13-84.88-108.84-9.81,0-34.82,86-27.21,92.52-27.19,203.48,0,75.09,8.7,123,17.4,78.38,55.5,133.85,13,21.73,20.68,21.74Z" transform="translate(-539.94 -174.5)"/><path d="M3216,4915.93q-29.37,0-45.7-14.14-69.68-82.66-69.65-753,0-316.62,10.89-491.84,6.53-124,25-274.22,7.59-69.63,19.58-95.74,16.34-38.07,77.25-38.1a219.7,219.7,0,0,1,51.15,6.54q51.13,12,68.55,38.07,9.77,17.45,10.89,88.16,0,71.81-10.89,227.42-20.68,315.57-20.68,440.69c0,18.88.71,28.32,2.19,28.32q4.35,0,59.85-66.39,51.12-60.93,67.45-88.14,19.58-35.89,38.11-94.67,35.89-113.16,35.91-176.29a123.53,123.53,0,0,0-1.09-17.94,77.09,77.09,0,0,1-1.1-11.44q0-23.92,52.22-23.93a166.08,166.08,0,0,1,63.13,11.95q39.15,16.34,41.34,41.36l1.09,29.38q0,152.39-74,278.57-22.86,38.11-68,94.15t-80,89.75q-24,24-23.94,28.31,0,3.27,26.1,8.69,55.47,10.92,153.45,72.9,52.18,35.94,90.29,47.9t97.41,12.5q59.29.57,83.24,2.71,53.3,5.46,62,31.56,6.48,19.62,6.51,35.92v7.6q-3.28,37-94.68,37-115.34,0-267.68-95.76-44.64-28.28-70.73-39.17a232.9,232.9,0,0,0-79.44-14.15q-26.1,0-58.75,5.45-42.43,7.64-58.76,19.58-8.7,12-8.7,134.94t6.51,210q5.42,47.88,15.24,206.74l-21.75,19.58Q3280.23,4915.91,3216,4915.93Z" transform="translate(-539.94 -174.5)"/><path d="M1001,2806.62a241.07,241.07,0,0,1-47.35-4.53q-57.54-14.67-76.69-42.83-18-33.83-31-214.78T829.64,2195q-3.37-168.52-3.37-263.25,0-131.89,4.49-253.67,20.29-522,56.38-538.91,16.88-12.37,50.73-12.4A208.3,208.3,0,0,1,1005,1138q33.26,11.3,50.16,30.43l18.06,21.42q-5.67,659.57-5.66,749.76,0,254.79,1.13,290.87l5.65,51.85q249.12-38.32,423.9-38.33,28.17-900.81,40.58-945.91,12.38-25.92,78.93-25.93,71,0,103.71,36.08,26,31.58,26,270.59,0,191.69-12.4,399.11-6.8,142-13.55,369.8-7.87,258.16-15.78,330.32-6.75,53-14.65,65.38-15.78,27.08-73.28,27.08-71,0-111.6-32.71l-16.93-15.77,6.78-374.3q-110.49,0-278.47,27-90.24,14.67-146.59,22.55l18,383.33q-34.95,22.48-56.94,24.24C1017.34,2806,1007,2806.62,1001,2806.62Z" transform="translate(-539.94 -174.5)"/><path d="M2455.85,2728.81q-55.29,0-89.08-22.56-24.84-15.78-24.8-129.62,0-58.62,5.65-178.14-69.91,72.15-89.09,84t-49.6,20.83q-40.57,12.42-68.78,12.41-112.73,0-169.11-54.11-110.49-104.85-110.48-482.53,1.13-184.89,20.27-315.11t49.63-160.68c10.5-9,21.77-13.9,33.83-14.64q12.38,0,33.8,2.24,77.78,3.42,107.11,46.23c6,6.78,9,16.93,9,30.46q0,27.08-6.74,97-14.71,187.14-14.68,341.6,0,172.51,24.8,293.12,11.24,58.66,20.3,58.63,7.88,0,68.78-94.71,78.9-122.85,170.24-384.42,28.15-84.57,41.7-102.61,18-24.78,71-24.8,22.53,0,48.48,6.75,87.95,20.33,88,76.68,0,19.17-6.78,104.86-7.92,103.74-11.28,125.13l-20.3,251.42q-26,373.18-49.6,391.2Q2516.71,2728.79,2455.85,2728.81Z" transform="translate(-539.94 -174.5)"/><path d="M3265.68,2763.76q-34.95,0-72.15-10.15-140.94-33.83-169.11-196.16-6.75-35-6.75-53,0-21.41,13.52-34.95,7.88-7.87,41.7-7.91,99.24,0,116.14,47.36a292.62,292.62,0,0,1,5.62,29.3q2.25,28.2,15.81,62c6,15,10.52,22.52,13.52,22.52s7.12-2.62,12.4-7.87q37.2-36.07,81.19-121.76,111.6-219.84,153.3-699l-89,175.89q-172.52,347.28-280.72,410.38-40.62,24.84-93.58,24.8-38.33,0-83.43-13.52-77.79-22.55-121.2-71.59t-69.34-143.75Q2720,2120,2720,2003.88q0-138.69,16.9-219.84,90.2-399.09,315.7-537.79,87.9-55.23,199.54-55.25,116.1,0,235.64,80.06,40.57,27.07,73.28,37.2,66.48,20.33,69.91,74.4,2.25,28.21,21.42,135.32,25.92,143.18,25.93,294.24,0,142.07-22.55,290.87-29.34,206.34-75,335.41t-121.16,222.68Q3377.29,2763.75,3265.68,2763.76ZM2988.34,2242.9q49.57-56.37,74.43-86.8,99.2-122.91,222.09-380,146.57-307.79,146.56-369.8-1.12-36.08-13.52-44.51a47.2,47.2,0,0,0-27.06-8.47q-59.78,0-136.43,55.23-195.06,138.69-261.54,492.68-15.84,97-15.81,215.34Q2977.06,2174.15,2988.34,2242.9Z" transform="translate(-539.94 -174.5)"/><path d="M1921.91,3005.62h68a19.16,19.16,0,0,1,12.56,4.28,13.09,13.09,0,0,1,5.21,10.42v41a13,13,0,0,1-5.21,10.41,19.11,19.11,0,0,1-12.56,4.29h-52.07v342.47a16.39,16.39,0,0,1-4.6,11.64,14.87,14.87,0,0,1-11.33,4.9h-45.34a15.19,15.19,0,0,1-11-4.9,15.87,15.87,0,0,1-4.9-11.64V3076.07H1811q-8,0-12.87-4a13.07,13.07,0,0,1-4.9-10.72v-41a13.1,13.1,0,0,1,4.9-10.72q4.9-4,12.87-4h110.89Z" transform="translate(-539.94 -174.5)"/><path d="M2255.19,3006.84h44.11a17,17,0,0,1,11.94,4.9q5.21,4.92,5.21,11v395.77a15.44,15.44,0,0,1-5.21,11.64,16.86,16.86,0,0,1-11.94,4.9h-44.11a16.87,16.87,0,0,1-12-4.9,15.44,15.44,0,0,1-5.21-11.64V3248.23l-115.79.61v169.7a16.73,16.73,0,0,1-16.54,16.54h-45.34a15.17,15.17,0,0,1-11-4.9,15.83,15.83,0,0,1-4.9-11.64V3022.77a16.8,16.8,0,0,1,15.92-15.93h45.34a16.43,16.43,0,0,1,11.64,4.6,14.9,14.9,0,0,1,4.9,11.33v151.32l115.79-.61V3022.77q0-6.12,5.21-11A17,17,0,0,1,2255.19,3006.84Z" transform="translate(-539.94 -174.5)"/><path d="M2566.41,3080.36H2442.65v93.73h93.74a14.68,14.68,0,0,1,15.31,15.32v42.89a14.68,14.68,0,0,1-15.31,15.31h-93.74v111.51h123.76a16.46,16.46,0,0,1,11.64,4.59A14.94,14.94,0,0,1,2583,3375v42.28a16.73,16.73,0,0,1-16.54,16.54H2385.68a15.61,15.61,0,0,1-11.95-4.9,16.44,16.44,0,0,1-4.59-11.64V3021.54a15.41,15.41,0,0,1,4.59-11.33,16.16,16.16,0,0,1,11.95-4.59h180.73a16.46,16.46,0,0,1,11.64,4.59,15,15,0,0,1,4.9,11.33v42.28a16.73,16.73,0,0,1-16.54,16.54Z" transform="translate(-539.94 -174.5)"/><path d="M1657.34,3196.19c-60.11,1.75-105.08,24.91-146.21,60.3-23.47,20.19-51.61,35.86-79.59,49.59-18.19,8.92-39.65,12.78-60.08,15.07-20.13,2.27-39.19-6.06-47.52-25.51-8.54-19.94-7.76-42.08,7.06-59.26,12.34-14.3,26.44-28.94,42.84-37.57,88.27-46.43,180.07-48.52,273.46-16.68C1649.83,3183,1651.18,3187.35,1657.34,3196.19Z" transform="translate(-539.94 -174.5)"/><path d="M1714.14,3092.08c-8.59-5.06-14-7.8-18.93-11.22a112.52,112.52,0,0,0-69.71-20.53c-13.56.45-27.32.76-40.69-1.09a197,197,0,0,1-39.13-10.06c-14.64-5.25-19.92-17.72-19.53-32.47.42-15.95,9.7-28.3,25.42-32.47,28.78-7.63,56.94-3.55,82.58,10.48,35.44,19.39,63.18,47,79.88,84.57C1714.91,3081.26,1714.14,3084,1714.14,3092.08Z" transform="translate(-539.94 -174.5)"/><path d="M1665.57,3321.87c-29.85,43.38-51,76.8-75.18,107.92-9.53,12.29-24.63,21.73-39.07,28.36-17.29,7.93-40.44-7.77-40.77-27.18-.23-13.59.84-29.59,7.72-40.49C1549.43,3341.13,1594.86,3318.34,1665.57,3321.87Z" transform="translate(-539.94 -174.5)"/><path d="M2718.86,3196.19c60.11,1.75,105.08,24.91,146.21,60.3,23.47,20.19,51.61,35.86,79.59,49.59,18.19,8.92,39.65,12.78,60.08,15.07,20.13,2.27,39.19-6.06,47.52-25.51,8.54-19.94,7.76-42.08-7.06-59.26-12.34-14.3-26.43-28.94-42.84-37.57-88.27-46.43-180.06-48.52-273.46-16.68C2726.37,3183,2725,3187.35,2718.86,3196.19Z" transform="translate(-539.94 -174.5)"/><path d="M2662.06,3092.08c8.59-5.06,14-7.8,18.93-11.22a112.52,112.52,0,0,1,69.71-20.53c13.56.45,27.32.76,40.69-1.09a197,197,0,0,0,39.13-10.06c14.64-5.25,19.92-17.72,19.53-32.47-.41-15.95-9.7-28.3-25.42-32.47-28.78-7.63-56.94-3.55-82.58,10.48-35.44,19.39-63.18,47-79.88,84.57C2661.29,3081.26,2662.06,3084,2662.06,3092.08Z" transform="translate(-539.94 -174.5)"/><path d="M2710.63,3321.87c29.85,43.38,51,76.8,75.18,107.92,9.53,12.29,24.63,21.73,39.08,28.36,17.28,7.93,40.43-7.77,40.76-27.18.23-13.59-.84-29.59-7.72-40.49C2826.77,3341.13,2781.34,3318.34,2710.63,3321.87Z" transform="translate(-539.94 -174.5)"/><path d="M2459.54,857.72A75.1,75.1,0,0,0,2434,839.09q-15-6.72-33.59-6.72h-5.63a82.48,82.48,0,0,0-33.8,6.72,74.44,74.44,0,0,0-25.79,18.63,84.07,84.07,0,0,0-16.47,28.82,119.59,119.59,0,0,0,0,73.89,86.68,86.68,0,0,0,16.47,28.82,70.79,70.79,0,0,0,25.79,18.63,84.79,84.79,0,0,0,33.8,6.51h5.63q18.63,0,33.59-6.51a71.35,71.35,0,0,0,25.57-18.63A86.83,86.83,0,0,0,2476,960.43a119.39,119.39,0,0,0,0-73.89A84.22,84.22,0,0,0,2459.54,857.72Z" transform="translate(-539.94 -174.5)"/><path d="M2836,699.5H1659l57,223-57,223H2836l-57-223ZM2206.23,858.81A70,70,0,0,0,2187,846.89a105,105,0,0,0-21.45-6.07,174.71,174.71,0,0,0-23.62-2.38q-12.35-.44-26.22-.44V982.32a423,423,0,0,0,3.25,55.47q3.26,24.27,13.65,35.1v2.17H2020.75v-2.17q10.83-10.83,13.87-35.1a452.13,452.13,0,0,0,3-55.47V838q-13.86,0-26.21.44a169,169,0,0,0-23.41,2.38,105.55,105.55,0,0,0-21.23,6.07,70,70,0,0,0-19.29,11.92l-2.16-.44,15.6-92.3,2.17-.87a54.33,54.33,0,0,0,15,3.9q9.32,1.29,21.23,1.95t25.57.65h103.58q13.65,0,25.56-.65t21.46-1.95a54.78,54.78,0,0,0,15.16-3.9l2.17.87,15.6,92.3Zm356.23,65.87q0,40.3-13,69.55t-35.1,48.32a142,142,0,0,1-51.57,28.17,210.28,210.28,0,0,1-62.41,9.1h-5.63a211.71,211.71,0,0,1-62.84-9.1,141.82,141.82,0,0,1-51.57-28.17q-22.11-19.07-35.11-48.32t-13-69.55v-2.17q0-40.31,13-69.77t35.11-48.54A142.11,142.11,0,0,1,2331.91,776a211.71,211.71,0,0,1,62.84-9.1h5.63a210.28,210.28,0,0,1,62.41,9.1,142.28,142.28,0,0,1,51.57,28.17q22.09,19.08,35.1,48.54t13,69.77Z" transform="translate(-539.94 -174.5)"/><path d="M1495.85,901.55c-46.22,1.35-80.81,19.16-112.44,46.37-18.05,15.53-39.68,27.58-61.2,38.14-14,6.86-30.5,9.82-46.21,11.59-15.48,1.74-30.14-4.66-36.54-19.62-6.57-15.33-6-32.36,5.43-45.58,9.49-11,20.33-22.25,32.94-28.89,67.89-35.71,138.48-37.31,210.3-12.82C1490.08,891.4,1491.11,894.75,1495.85,901.55Z" transform="translate(-539.94 -174.5)"/><path d="M1539.54,821.49c-6.61-3.9-10.77-6-14.57-8.64a86.45,86.45,0,0,0-53.6-15.78c-10.43.34-21,.58-31.29-.84a151,151,0,0,1-30.09-7.74c-11.26-4-15.32-13.63-15-25,.32-12.26,7.47-21.76,19.55-25,22.13-5.87,43.79-2.73,63.51,8.06,27.26,14.91,48.59,36.18,61.43,65C1540.13,813.17,1539.54,815.25,1539.54,821.49Z" transform="translate(-539.94 -174.5)"/><path d="M1502.19,998.2c-23,33.36-39.25,59.06-57.82,83-7.33,9.45-18.94,16.7-30,21.8-13.29,6.1-31.1-6-31.35-20.9-.18-10.45.65-22.76,5.93-31.13C1412.87,1013,1447.8,995.49,1502.19,998.2Z" transform="translate(-539.94 -174.5)"/><path d="M3008.75,901.55c46.23,1.35,80.81,19.16,112.44,46.37,18,15.53,39.69,27.58,61.21,38.14,14,6.86,30.49,9.82,46.2,11.59,15.49,1.74,30.14-4.66,36.55-19.62,6.57-15.33,6-32.36-5.43-45.58-9.49-11-20.33-22.25-32.94-28.89-67.89-35.71-138.48-37.31-210.31-12.82C3014.53,891.4,3013.49,894.75,3008.75,901.55Z" transform="translate(-539.94 -174.5)"/><path d="M2965.07,821.49c6.61-3.9,10.77-6,14.56-8.64a86.47,86.47,0,0,1,53.61-15.78c10.42.34,21,.58,31.29-.84a151.18,151.18,0,0,0,30.09-7.74c11.26-4,15.32-13.63,15-25-.32-12.26-7.46-21.76-19.55-25-22.13-5.87-43.79-2.73-63.5,8.06-27.26,14.91-48.59,36.18-61.43,65C2964.48,813.17,2965.07,815.25,2965.07,821.49Z" transform="translate(-539.94 -174.5)"/><path d="M3002.42,998.2c23,33.36,39.25,59.06,57.82,83,7.33,9.45,18.94,16.7,30.05,21.8,13.29,6.1,31.09-6,31.35-20.9.18-10.45-.65-22.76-5.94-31.13C3091.74,1013,3056.8,995.49,3002.42,998.2Z" transform="translate(-539.94 -174.5)"/><path style="fill-rule:evenodd;" d="M3073.55,5053.82c-34.23,13.27-34.45,15.08-71.44,15.08H2648.39v20h354.78c34.66,0,37.73-.58,70.38,10.39-34.23,13.26-34.45,12.39-71.44,12.39L2648.39,5117h-44.91c-26.19,0-41.93-24.24-54.53-44.86-38.64-63.26-826,65.2-1002.83,37.31-153.63-24.22-153.2-132.7,0-156.85,176.81-27.88,964.18,100.59,1002.83,37.31,12.59-20.61,28.35-44.86,54.53-44.86h44.91l354.78,5.37c34.66,0,37.73-.58,70.38,10.38-34.23,13.26-34.45,12.39-71.44,12.39H2648.39v20h354.78c34.66,0,37.73,2.08,70.38,13.06-34.23,13.26-34.45,15.07-71.44,15.07H2648.39v19.47h354.78C3037.83,5040.77,3040.9,5042.86,3073.55,5053.82Z" transform="translate(-539.94 -174.5)"/><path d="M652.8,449.82q27.41-9.31,52.48-9.63a114.66,114.66,0,0,1,46.39,8.67q21.33,9,37.85,28t26.41,48.09q9.87,29.09,8.35,54.22t-13,45.24a114.54,114.54,0,0,1-31.51,35.14q-20.07,15-47.49,24.33L631,718.28l-.57-1.67q5.19-11.08,1.33-30.66a344.34,344.34,0,0,0-12-43.65l-30.9-90.95a344,344,0,0,0-17-41.94q-8.87-17.87-19.73-23.51l-.57-1.67ZM710.14,636.2q31.1-10.58,43-33.81t.63-56.34q-11.25-33.09-34.82-44.3t-54.66-.63c-3.35,1.13-7.23,2.52-11.65,4.14a97.67,97.67,0,0,0-10.75,4.58l45.21,133.08a104,104,0,0,0,11.48-3C702.94,638.59,706.8,637.33,710.14,636.2Z" transform="translate(-539.94 -174.5)"/><path d="M1166.87,429.75q8.34,31.75,4.16,57.5t-17.66,45.35a115.64,115.64,0,0,1-34.81,32.88,171.54,171.54,0,0,1-47.29,20.1l-4.44,1.16a172.33,172.33,0,0,1-51.41,5.84A115.65,115.65,0,0,1,969,581.06q-21.36-10.44-37.67-30.81t-24.65-52.12l-.45-1.71q-8.34-31.76-4.2-57.67t17.61-45.52a115.76,115.76,0,0,1,34.81-32.88A172.61,172.61,0,0,1,1002,340.16l4.44-1.16a171.11,171.11,0,0,1,51.07-5.75A115.65,115.65,0,0,1,1104,344.77q21.38,10.46,37.72,31T1166.42,428Zm-197,50.66a90.72,90.72,0,0,0,12.29,28,70.69,70.69,0,0,0,18.94,19.3,57.62,57.62,0,0,0,24.18,9.35,69.15,69.15,0,0,0,28-1.88l4.44-1.16a68.16,68.16,0,0,0,25.12-12.08,58.18,58.18,0,0,0,16.29-20,70.84,70.84,0,0,0,7-26.12,97.36,97.36,0,0,0-15.3-58.23,68.29,68.29,0,0,0-18.95-19.3,61,61,0,0,0-24-9.4,66,66,0,0,0-27.85,1.67l-4.44,1.16A67.39,67.39,0,0,0,990.34,404a60.51,60.51,0,0,0-16.46,20,68.41,68.41,0,0,0-7,26.12A91.23,91.23,0,0,0,969.88,480.41Z" transform="translate(-539.94 -174.5)"/><path d="M1315.05,272.23l.32,1.73a12.66,12.66,0,0,0,.31,3.54,22.76,22.76,0,0,0,3.71,8.29,72,72,0,0,0,6.62,8.45q3.62,4,7.15,7.46t5.71,5.58l84,82-11-58.31A344,344,0,0,0,1401,287q-6.24-18.94-16.21-26.06l-.32-1.73L1474,242.38l.32,1.74q-6.69,10.24-5.65,30.16a343.45,343.45,0,0,0,5.74,44.91l17.72,94.4a343.1,343.1,0,0,0,10.95,43.93q6.26,19,16.21,26.06l.32,1.74L1436,501l-.32-1.73a12.29,12.29,0,0,0-.31-3.54,22.63,22.63,0,0,0-3.71-8.28A71.88,71.88,0,0,0,1425,479c-2.41-2.66-4.86-5.13-7.32-7.43a69.76,69.76,0,0,1-5.54-5.6l-84.49-82.58,11.08,59a342.13,342.13,0,0,0,10.94,43.94q6.25,18.94,16.21,26.06l.33,1.73-89.54,16.81-.33-1.73Q1283.05,519,1282,499a344,344,0,0,0-5.74-44.92l-17.73-94.39a344.23,344.23,0,0,0-10.94-43.94q-6.25-18.94-16.21-26.06l-.33-1.73Z" transform="translate(-539.94 -174.5)"/><path d="M1619.88,227.76c-4,30.5-13.88,70-21.46,87.44l-19.25,5.15c4.85-21.7,8.93-59.34,9.31-85.05Z" transform="translate(-539.94 -174.5)"/><path d="M1787.55,449.73q8-9.6,8.61-29.52a369.75,369.75,0,0,0-1.71-45.24l-10.86-117.08q-11.25,1-21.24,2.32a138.28,138.28,0,0,0-18.81,3.7,85.65,85.65,0,0,0-16.77,6.52A56.86,56.86,0,0,0,1712,281.55l-1.79-.19,5.71-76.07,1.7-.86a44.37,44.37,0,0,0,12.42,2q7.65.34,17.38,0t20.79-1.39l22.33-2.08,39.38-3.65,22.32-2.07q11.09-1,20.7-2.45t17.26-3.2a44.46,44.46,0,0,0,12-4.3l1.82.54,19.61,73.72-1.73.51a57.07,57.07,0,0,0-16.54-8.22,85.15,85.15,0,0,0-17.86-3.3,142.76,142.76,0,0,0-19.34-.16q-10.07.58-21.31,1.62l10.86,117.08a344,344,0,0,0,6.81,44.77q4.47,19.44,13.72,27.45l.16,1.76-90.71,8.41Z" transform="translate(-539.94 -174.5)"/><path d="M2158.6,425.65q8.46-8.83,11.06-28.62a344.62,344.62,0,0,0,2.54-45.21l-.23-96a341.47,341.47,0,0,0-2.75-45.19q-2.7-19.77-11.19-28.58v-1.76l117.23-.28,22.42-.05q11.13,0,20.84-.58t17.29-1.63a44,44,0,0,0,12.18-3.2l1.77.7,12.88,75.18-1.76.36a62.75,62.75,0,0,0-16.09-9.67,84.87,84.87,0,0,0-17.67-4.9,146.49,146.49,0,0,0-19.6-1.9q-10.24-.33-21.89-.3l-50.15.11.12,48.73,40.25-.09a255.51,255.51,0,0,0,31.43-1.84q14.11-1.8,21.87-8.52l1.77.7.17,71.68-1.77.71a62.81,62.81,0,0,0-15.91-10.2,75.9,75.9,0,0,0-17.14-5.08,136.83,136.83,0,0,0-19.07-1.9q-10.07-.33-21.72-.3l-19.78,0,.06,23.66a344.8,344.8,0,0,0,2.75,45.19q2.7,19.78,11.19,28.58v1.77l-91.11.21Z" transform="translate(-539.94 -174.5)"/><path d="M2715,323.32q-2.13,32.78-14.23,55.88t-31.08,37.44a115.69,115.69,0,0,1-43.41,20.2A171.63,171.63,0,0,1,2575,441l-4.58-.3a172.41,172.41,0,0,1-50.61-10.7,115.77,115.77,0,0,1-40.46-25.61q-17-16.67-26-41.14T2446.47,306l.12-1.76q2.11-32.77,14.23-56t31.1-37.62a115.7,115.7,0,0,1,43.41-20.2,172.57,172.57,0,0,1,51.57-4.1l4.58.3a171.21,171.21,0,0,1,50.27,10.68,115.73,115.73,0,0,1,40.45,25.61q17,16.68,26,41.31t6.91,57.42Zm-202.91-14.17a91.06,91.06,0,0,0,2.81,30.44,70.72,70.72,0,0,0,11.88,24.29,57.55,57.55,0,0,0,20,16.51,69.07,69.07,0,0,0,27.14,7.06l4.58.3a68,68,0,0,0,27.65-3.52,58,58,0,0,0,21.77-13.81,70.81,70.81,0,0,0,14.91-22.57,97.48,97.48,0,0,0,3.88-60.08,68.53,68.53,0,0,0-11.88-24.3A61,61,0,0,0,2615,247a66,66,0,0,0-26.95-7.23l-4.59-.3a67.28,67.28,0,0,0-27.83,3.69,60.58,60.58,0,0,0-22,13.8,68.38,68.38,0,0,0-14.9,22.56A91.16,91.16,0,0,0,2512.08,309.15Z" transform="translate(-539.94 -174.5)"/><path d="M2927.36,224q30.09,4.11,51.09,13.4t33.47,22.39a69.1,69.1,0,0,1,17,29.59,85.87,85.87,0,0,1,2,34.67q-4,29.39-18.88,45.53a84.37,84.37,0,0,1-36.14,23.22l3,6.82q6,13.31,12,25.7T3003,448a112.84,112.84,0,0,0,12.57,17.58q6.48,7.31,13.64,9.7l-.24,1.75a53.76,53.76,0,0,1-20.33,7.92,72.18,72.18,0,0,1-22.52.48,109.27,109.27,0,0,1-21.93-5.13,63.42,63.42,0,0,1-17.73-9.73,70.44,70.44,0,0,1-14.61-15.72,137,137,0,0,1-12.52-23.1l-14.53-31.92q-8.14-.39-15.88-1.1L2873,397.24a307.43,307.43,0,0,0-2.52,40.64q.23,17.85,7.18,27l-.24,1.75-90.26-12.33.24-1.75q9.59-7.6,14.89-26.84a343.61,343.61,0,0,0,8.74-44.42l13-95.16a343.74,343.74,0,0,0,3.5-45.14q.06-19.95-7.15-29.85l.24-1.75ZM2879.29,351.4a263.83,263.83,0,0,0,29,1.65,97.94,97.94,0,0,0,26.65-3.31A48.6,48.6,0,0,0,2955.12,339q8.15-7.44,10-21.09,2.4-17.49-10.73-28.37T2915,275l-24.84-3.4Z" transform="translate(-539.94 -174.5)"/><path d="M3331.17,489.6a125.8,125.8,0,0,0-1.65,14.08,35.93,35.93,0,0,0,.57,9.5,26.27,26.27,0,0,0,3,7.46l-.35,1.73a245.12,245.12,0,0,1-58.2,10.34,220.38,220.38,0,0,1-55.55-4.25q-28.36-5.87-49.54-18.53a104.81,104.81,0,0,1-51.23-74.12q-4.24-24,1.62-52.38,7-33.93,22.66-56.52t36.93-34.8a117.83,117.83,0,0,1,46.36-15,162.85,162.85,0,0,1,51,2.59l4.15.85q19.73,4.08,31.46,9.21T3329.3,296q5.19,1.06,10.28,1.76a18.93,18.93,0,0,0,9.39-.95l1.65.7q-2.51,20.89-4.94,41.41t-4.91,41.27l-1.87.34a70.1,70.1,0,0,0-12.6-17.57A105,105,0,0,0,3309.52,349a108.9,108.9,0,0,0-18.5-9.94,96.7,96.7,0,0,0-17.42-5.58q-34.57-7.14-58.22,9.57t-31.25,53.62q-6.77,32.78,8.34,53.88T3238,478a72.35,72.35,0,0,0,19.48,1.69,75.83,75.83,0,0,0,10.71-1.19l9.5-46a65.73,65.73,0,0,0-23.55-.35,45.22,45.22,0,0,0-21.52,9.07l-1.59-1,12.56-60.87,113.78,23.48-.35,1.73a26.14,26.14,0,0,0-5.68,5.68,35.87,35.87,0,0,0-4.28,8.49,125.18,125.18,0,0,0-4,13.41q-2,8.06-4.66,20.85l-3.22,15.57Q3332.53,481.24,3331.17,489.6Z" transform="translate(-539.94 -174.5)"/><path d="M3406.68,564.56q10.5-6.25,18.3-24.63a344.41,344.41,0,0,0,14.53-42.88L3465,404.43a343.55,343.55,0,0,0,9.42-44.28q2.68-19.77-3.15-30.53l.47-1.7,113,31.05,21.63,5.94q10.72,3,20.23,5t17.1,3.05a44.23,44.23,0,0,0,12.59.16l1.52,1.15-7.67,75.9-1.8-.13a62.21,62.21,0,0,0-12.92-13.62A85.37,85.37,0,0,0,3619.7,427a149.64,149.64,0,0,0-18.38-7.06q-9.8-3-21-6.14L3532,400.5l-12.16,44.26,38.81,10.67a255.94,255.94,0,0,0,30.77,6.62q14.09,2,23.36-2.37l1.52,1.15-19,69.12-1.89.21a62.88,62.88,0,0,0-12.61-14.08,75.56,75.56,0,0,0-15.16-9.48,137,137,0,0,0-17.87-6.92q-9.61-3-20.85-6.09l-19.07-5.24-12.72,46.31,53.46,14.68q11.23,3.09,21.16,5.63a129.62,129.62,0,0,0,19.36,3.49,78.86,78.86,0,0,0,18.39-.26,66.7,66.7,0,0,0,18.11-5.28l1.61.81L3595,622.89l-1.89.21a44.12,44.12,0,0,0-10.9-6.29q-7-3-16.27-6.12t-19.94-6l-21.63-5.93-118.15-32.46Z" transform="translate(-539.94 -174.5)"/><path d="M3739.7,662.31q11.19-5.49,19.93-23.42a370,370,0,0,0,16.94-42l38-111.29q-10.71-3.64-20.34-6.56a137.12,137.12,0,0,0-18.67-4.33,86.92,86.92,0,0,0-18-.91,57.3,57.3,0,0,0-18,4.12l-1.56-.9L3774.32,410l1.9-.1a44.15,44.15,0,0,0,10.51,6.94q6.84,3.46,15.86,7.1t19.55,7.23l21.22,7.24,37.43,12.77,21.22,7.24q10.53,3.6,19.89,6.23t17,4.14a45,45,0,0,0,12.72,1l1.45,1.23-12.26,75.29-1.79-.23a57.25,57.25,0,0,0-11.73-14.27,85.81,85.81,0,0,0-15-10.32,141.58,141.58,0,0,0-17.59-8.06q-9.4-3.57-20.1-7.23l-38,111.29a344.71,344.71,0,0,0-12.09,43.63q-3.89,19.57,1.29,30.66l-.57,1.67L3739.13,664Z" transform="translate(-539.94 -174.5)"/></svg>


