<svg xmlns="http://www.w3.org/2000/svg" viewBox="0 0 4224.53 4276.7" width="500" height="500"><path style="fill-rule:evenodd;" d="M3598.56,2658.48c52.69-151.87,456.77-674.82,424.54-729.56-23.3-39.57-31.65-49.72-36.5-95.35-3.67-34.52-.75-63.88,7.09-90.68,26.74-91.58,150.37-242.75,274.57-226.08,8.06,1.22,17.38,6,22.81,12.6,82,94.17,25.3,280.16-35.73,353.15-17.89,21.42-40.67,40.18-71.4,56.35-40.59,21.37-53.66,20.08-99.51,22.74-63.42,3.69-272.76,630.65-369.86,758.75C3643.37,2814.34,3550.26,2797.71,3598.56,2658.48Z" transform="translate(-122 -150.35)"/><path style="fill-rule:evenodd;" d="M909.51,2618.62C856.82,2466.75,452.74,1943.79,485,1889.06c23.3-39.58,31.65-49.72,36.5-95.35,3.67-34.52.74-63.89-7.09-90.68C487.64,1611.45,364,1460.27,239.81,1477c-8.06,1.21-17.39,6-22.81,12.6-81.95,94.17-25.31,280.16,35.72,353.14,17.9,21.42,40.68,40.19,71.4,56.35,40.6,21.38,53.67,20.09,99.52,22.75,63.41,3.69,272.75,630.65,369.85,758.75C864.7,2774.48,957.81,2757.84,909.51,2618.62Z" transform="translate(-122 -150.35)"/><path style="fill-rule:evenodd;" d="M3620,4309.22c-63.82,24.75-64.24,28.12-133.22,28.12H2827.14v37.23h661.58c64.65,0,70.37-1.07,131.25,19.37-63.82,24.73-64.24,23.1-133.22,23.1l-659.61,10h-83.76c-48.82,0-78.17-45.21-101.67-83.66-72.06-118-1540.38,121.58-1870.08,69.57-286.5-45.15-285.7-247.44,0-292.49,329.71-52,1798,187.58,1870.08,69.59,23.47-38.44,52.86-83.66,101.67-83.66h83.76l661.58,10c64.65,0,70.37-1.07,131.25,19.36-63.82,24.72-64.24,23.11-133.22,23.11H2827.14v37.25h661.58c64.65,0,70.37,3.89,131.25,24.35-63.82,24.73-64.24,28.11-133.22,28.11H2827.14v36.31h661.58C3553.37,4284.89,3559.09,4288.79,3620,4309.22Z" transform="translate(-122 -150.35)"/><path d="M1289.73,1540.6c-119.28,3.48-208.51,49.43-290.12,119.65-46.57,40.07-102.4,71.16-157.93,98.4C805.6,1776.36,763,1784,722.47,1788.57c-40,4.49-77.76-12-94.29-50.62-16.95-39.57-15.4-83.5,14-117.6,24.48-28.38,52.45-57.43,85-74.55,175.16-92.14,357.3-96.28,542.62-33.09C1274.84,1514.43,1277.5,1523.06,1289.73,1540.6Z" transform="translate(-122 -150.35)"/><path d="M1402.45,1334c-17.06-10-27.78-15.48-37.58-22.27-41.67-28.87-87.48-42.41-138.32-40.73-26.89.89-54.21,1.5-80.73-2.16-26.33-3.63-52.55-11-77.64-20-29-10.41-39.53-35.16-38.77-64.43.83-31.63,19.26-56.15,50.45-64.42,57.1-15.14,113-7,163.86,20.79,70.32,38.48,125.37,93.35,158.5,167.81C1404,1312.56,1402.45,1317.93,1402.45,1334Z" transform="translate(-122 -150.35)"/><path d="M1306.07,1790c-59.24,86.07-101.26,152.39-149.17,214.14-18.92,24.39-48.88,43.11-77.55,56.27-34.29,15.75-80.23-15.42-80.89-53.94-.46-27,1.67-58.71,15.32-80.32C1075.61,1828.21,1165.76,1783,1306.07,1790Z" transform="translate(-122 -150.35)"/><path d="M3226,1540.6c119.28,3.48,208.51,49.43,290.12,119.65,46.57,40.07,102.4,71.16,157.93,98.4,36.09,17.71,78.68,25.36,119.21,29.92,40,4.49,77.76-12,94.29-50.62,16.95-39.57,15.4-83.5-14-117.6-24.48-28.38-52.45-57.43-85-74.55-175.16-92.14-357.3-96.28-542.62-33.09C3240.85,1514.43,3238.19,1523.06,3226,1540.6Z" transform="translate(-122 -150.35)"/><path d="M3113.24,1334c17.06-10,27.78-15.48,37.58-22.27,41.67-28.87,87.48-42.41,138.32-40.73,26.89.89,54.21,1.5,80.73-2.16,26.33-3.63,52.55-11,77.65-20,29-10.41,39.53-35.16,38.76-64.43-.83-31.63-19.26-56.15-50.45-64.42-57.1-15.14-113-7-163.86,20.79-70.32,38.48-125.36,93.35-158.5,167.81C3111.72,1312.56,3113.24,1317.93,3113.24,1334Z" transform="translate(-122 -150.35)"/><path d="M3209.62,1790c59.24,86.07,101.26,152.39,149.18,214.14,18.91,24.39,48.87,43.11,77.54,56.27,34.29,15.75,80.23-15.42,80.89-53.94.46-27-1.67-58.71-15.32-80.32C3440.09,1828.21,3349.93,1783,3209.62,1790Z" transform="translate(-122 -150.35)"/><path d="M1988.69,1638.77q-42.27,0-54.28-69a361.85,361.85,0,0,1-4.89-61.39q0-76.08,18.68-191.75,1.33-7.11,1.78-11.56,4.89-48.94,30.26-48.94,19.11,0,19.13,35.59-3.57,92.54-3.56,157.49l.44,22.69q23.58-113.88,54.28-183.29,36.91-82.76,77-82.75,59.16,0,62.73,108.55l.45,31.14q20.89-48.93,50.27-77,21.34-20.46,46.27-20.47,53.82,0,53.83,91.2,0,32-1.78,54.28Q2337,1423,2337,1439q0,57.84,14.69,57.83,15.56,0,36.48-35.14,9.78-16,19.13-16c3.26,0,6.29,1.49,9.12,4.45a15.54,15.54,0,0,1,4.22,11.12q0,26.7-28.25,58.28t-49.6,31.59q-30.27,0-44.93-17.35-23.59-27.13-23.59-84.09a382.21,382.21,0,0,1,7.57-74.29q7.56-40,7.56-64.51,0-24-9.79-24-26.25,0-59.61,94.31a1237.24,1237.24,0,0,0-35.59,121.9q-4.46,19.14-8.9,32.92-7.12,20.48-19.13,20.47-35.14,0-35.15-118.79,0-24.47,2.67-57.83,4.44-48.94,4.45-88.09,0-42.26-8.9-42.26-13.33,0-32.69,43.59T2049,1396.31q-18.46,59.63-31.14,112.33t-12.68,72.3a17.81,17.81,0,0,1,7.12-1.78q11.57,0,11.56,16.9t-12,32Q2002.93,1638.77,1988.69,1638.77Z" transform="translate(-122 -150.35)"/><path d="M2489.63,1785.58q-40.49,0-60.5-36.48a94.5,94.5,0,0,1-12-47.15q0-16.92,9.79-27.59t27.58-10.68q5.79,0,7.79,3.79a17.33,17.33,0,0,1,2,8.23q0,10.23-6.67,29.8-4.91,14.24-4.9,21.36,0,19.58,23.58,19.57,49.39,0,84.09-109.44,36-113.45,53.38-306.08a552.82,552.82,0,0,1-31.14,80.52q-38.27,81-79.19,81-24,0-36.48-14.9t-16.24-36a235.81,235.81,0,0,1-3.78-41.59q0-60.49,27.14-157,3.55-12.9,16.9-12.9,10.23,0,13.8,6t3.55,10.45v3.56q-14.67,89.86-14.68,143.7,0,15.57,1.34,29.36,2.67,27.15,15.12,27.14,23.58,0,61.84-98.32,25.37-66.28,55.17-154.38,5.78-18.23,18.69-18.24,18.67,0,27.8,20.91t13.57,54.72q3.11,26.26,3.56,50.72t.44,33.37a1108.2,1108.2,0,0,1-14.23,175.28q-18.69,115.23-60.51,186.86Q2567,1785.57,2489.63,1785.58Z" transform="translate(-122 -150.35)"/><path d="M379.78,3982.58q-16.29,0-27.36-8.89-34.77-33.29-49.57-194.15T288.06,3447.8q0-64.34,1.48-133.13,11.82-381.65,65.09-458.6A47.65,47.65,0,0,1,380.51,2838q16.28-4.78,42.16-4.82t39.58,4.45q13.68,4.44,18.13,11.47t4.44,19.6q0,21.46-9.61,84.31-13.33,94-21.46,199-6.67,93.93-17,329.13,66.56-41.39,156.07-127.23,83.55-79.11,135.36-146.43Q835.41,3063.18,845,2915.26q2.18-34.77,7.75-44.4c3.69-6.39,10.23-9.61,19.6-9.61q41.43,0,90.26,39.2v58.43q0,151.65-125,300.3-88,105.8-226.32,218.94,65.09,23.7,88,35.52t82.83,51.78q16.26,10.36,32.55,10.34l34-.73q25.88,0,45.12,9.61,34,17,34,31.81,0,22.9-72.47,22.91-80.67,0-179.74-70.25-35.53-23.66-53.26-27.36a141,141,0,0,0-25.9-2.23q-23.7,0-53.24,6.65-45.12,10.36-81.37,31.07L437.48,3592q5.14,178.24,20.71,284.78,5.15,34,5.17,50.3,0,17-8.89,25.15T424.91,3970Q399,3982.56,379.78,3982.58Z" transform="translate(-122 -150.35)"/><path d="M1104.47,3035.06q-23.68,0-34.76-1.46-51.79-14.8-51.78-50.3,0-8.88,10.36-22.18A30.88,30.88,0,0,1,1049,2950a187.18,187.18,0,0,1,19.23-.75q28.1,0,57.68,12.58,41.43,18.51,41.44,39.2,0,11.1-11.85,22.19a35.73,35.73,0,0,1-15.54,9.24Q1131.08,3035.09,1104.47,3035.06Zm5.17,781.08q-61.41,0-72.48-41.41-18.51-78.37-18.5-316.56,0-113.93,10.36-263.32,5.14-74.71,14.06-80.62,20-12.55,48.07-12.58,41.41,0,62.14,18.47,7.37,5.22,9.24,17.4t2.58,78l-1.48,330.62q0,119.1,2.24,167.16,3,36.24,3,55.47,0,31.1-15.92,39.21T1109.64,3816.14Z" transform="translate(-122 -150.35)"/><path d="M1506.05,3949.29q-66.55,0-115.38-50.3-44.39-43.63-65.81-128.71-32.58-139.05-33.31-417.15,0-238.9,22.94-372.79-64.38,9.63-79.89,9.62-42.91,0-42.9-29.6,0-16.24,14.06-26.63,11.85-8.1,63.25-17t55.47-14.81q4.05-5.92,7.76-42.17,6.63-56.19,59.91-56.19a138.62,138.62,0,0,1,23.67,2.21q28.1,3.69,38.45,14.43T1467.6,2859l3.69,29.59q101.32-11.07,113.93-11.1,44.34,0,44.37,22.92,0,37.73-98.39,48.82l-65.08,8.13q-23.7,197.52-23.67,494.09,0,116.88,11.85,201.93,18.46,162.75,69.52,208.6c5.9,3.43,11.57,5.17,17,5.17q10.37,0,19.25-8.13,42.87-50.28,135.33-292.18,18.48-54,30.33-79.14t25.17-31.81q6.63-3,21.44-3,39.9,11.12,39.93,35.52,0,11.85-41.42,138.3-94.69,273-177.5,303.28-8.89,3.66-28.11,8.13Q1517.15,3949.27,1506.05,3949.29Z" transform="translate(-122 -150.35)"/><path d="M1949.72,3906.4q-37,0-55.47-4.44-93.23-20.73-135.34-174.57-35.55-124.24-35.52-268.49,0-106.49,19.23-223.39,60.64-344.67,253-344.67,45.09,0,79.14,16.26,61.38,29.63,86.54,158.31,8.11,39.95,8.13,71.73,0,18.51-2.23,41.42c-1,11.84-2.47,20-4.44,24.42q-7.41,16.29-41.42,16.26-56.19,0-65.83-20.7-2.22-5.16-7-57.31a476.93,476.93,0,0,0-20.33-101,3,3,0,0,1-.73-2.24q-18.51-55.45-25.9-55.47c-3,0-7.9,4.21-14.79,12.58q-54,66.55-88,224.11-22.92,119.1-22.92,261.84,0,124.29,25.88,225.6,30.31,119.84,46.61,119.83,5.15,0,34.76-37,50.28-62.12,117.59-214.5,22.92-52.53,31.08-62.14,14-16.26,43.62-16.27,21.43,0,38.48,7.78t19.23,18.85q0,5.92-11.1,37.35t-28.49,75.45q-17.37,44-36.59,88.38A465.32,465.32,0,0,1,2094.32,3828q-37.38,46.61-72.12,65.08a109.75,109.75,0,0,1-28.46,10Q1980.06,3905.64,1949.72,3906.4Z" transform="translate(-122 -150.35)"/><path d="M2760.25,3896.78a149.76,149.76,0,0,1-31.8-3.71q-51.79-11.85-56.95-46.58-3-17-5.92-247.79-38.48,5.93-127.23,7.38l-99.1,3.71q4.41,119.85,4.42,139.06c0,17.25-.49,27.62-1.46,31.05q-7.39,22.95-59.91,22.94-62.16-.71-73.24-32.56-20.73-68.75-20.71-458.57,0-253.71,3.69-279.59,4.44-31.8,51.05-31.82,30.33,0,51,8.51t28.11,21.08q12.55,27.39,13.31,335.81v180.47q165.67-6.63,199.34-9.62t33.66-6.65q1.49-7.4,6.65-139.05,10.36-290.66,50.3-562.89,8.12-63.6,18.85-73.21t27.76-9.62q15.51,0,36.24,6.66,36.26,11.1,52.51,33.28,4.44,7.39,4.44,44.37,0,49.57-13.32,207.85-31.8,386.14-31.8,686.41,0,64.38-.38,96.15t-3.31,46.61q-3,14.77-9.26,19.61c-4.19,3.17-10.49,5.78-18.86,7.75A122.63,122.63,0,0,1,2760.25,3896.78Z" transform="translate(-122 -150.35)"/><path d="M3108.47,3890.86q-31.8,0-50.3-7.4-63.6-27.36-99.1-224.85-20-113.18-20-221.17,0-168.6,48.07-324.7,39.21-119.09,99.12-168.64,35.5-29.58,76.93-29.59,116.84,0,168.65,117.61,68,150.16,68,259.61,0,139.83-127.23,201.2-29.58,14.07-77.28,28.49t-79.52,20.33c-8.39,1-13.56,2.44-15.53,4.42s-3,6.41-3,13.32q0,18.51,17,111.7,14,78.41,17.75,78.39,5.93,0,31.07-118.35l20-9.61q20.7-9.6,41.41-9.62,48.8,0,48.82,27.36,0,14.82-8.13,66.59-12.59,79.89-31.8,118.35-31.09,63.6-97.64,65.81Zm-15.51-412q48.79-14.8,69.52-22.94,64.3-23.66,97.62-83.58,14.8-31.8,14.8-84.31,0-112.39-57.7-236.69-15.55-33.29-20-33.28-8.17,0-29.59,41.41-40.68,78.42-61.39,207.85-13.34,86.52-13.3,159Z" transform="translate(-122 -150.35)"/><path d="M4035.9,3913.05a201.47,201.47,0,0,1-37.73-3.69q-33.28-5.22-55.12-17t-43.27-34.76q-31.07-31.8-37.35-62.88a296,296,0,0,1-6.27-58.43q0-93.92,80.62-376.49,46.57-182.7,52.51-230.77,3-29.58,3-57,0-59.16-7.78-101.33t-19.58-56.22q-7.41,0-43.65,33.28-54,51-112.42,165.68-136.87,247.79-143.5,497.05l-5.92,86.55q-3,26.66-55.47,34a156.7,156.7,0,0,1-20.71,1.46q-37,0-56.22-22.19-27.36-27.36-54-219.67-17-116.1-17-343.19,0-158.31,12.2-167.92t34.41-9.61q37.7,0,71,23.67a44.81,44.81,0,0,1,14.78,17q8.9,18.51,19.23,159,8.12,92.43,10.36,92.44c.47,0,1-.73,1.49-2.21q5.15-22.92,28.84-78.41,55.46-128.68,107.25-206.37,88-132.36,182-132.38a156.45,156.45,0,0,1,46.6,7.38q56.94,15.55,89.49,48.82,53.24,63.65,53.26,213,0,85.82-40.69,243.34-89.48,332.86-89.48,406.82,0,17.78,5.17,40,7.41,36.24,17,36.24,5.14,0,26.63-10.36,19.95-14.77,50.27-50.66a474.92,474.92,0,0,0,54.75-81q93.18-221.18,107.25-272.21,5.15-18.47,13.68-24.4t27-5.92c4.42,0,13.05,2.73,25.88,8.13q22.18,9.63,22.19,22.19,0,13.34-12.57,53.26-30.33,102.08-98.37,267Q4157.92,3913,4035.9,3913.05Z" transform="translate(-122 -150.35)"/><path d="M1758.46,1965.9c5.58-51.89,3.55-103.82-.68-155.58-9.5-116.26-41-225.4-106.59-323.41-24-35.84-54.5-64.77-88.75-90.23-18.47-13.75-21.2-22.76-9.65-42.25,19.74-33.34,39.84-66.48,60.79-99,5.73-8.92,14.36-16.39,22.85-23,10.35-8.05,21.77-14.8,33-21.57,118-70.87,201-170.39,246.27-300.82,7.67-22.09,15.17-44.31,24.34-65.79,6.11-14.32,14.47-27.8,22.94-40.94,4.94-7.65,12.61-6.4,17.39,1.89,62.55,108.34,161.8,165,279.53,189.48,115.28,23.94,224.69-.77,328.22-55.89,61.17-32.55,115.35-74.34,168.2-118.34,2.81-2.34,5.49-4.85,8.38-7.08,7.94-6.16,15.3-15,26.91-7.29,8.2,5.47,13.9,23.26,10.06,33.2-22.15,57.47-28.32,117.68-30.71,178.5-2.48,63.35,2.94,125.46,26.37,185.35,20.84,53.27,51.83,99.6,90.24,141.47,44.4,48.4,98.19,82.51,159.46,105.26a110.9,110.9,0,0,0,20.94,5.41c16,2.52,19.59,5.86,20.38,22.47.41,8.72.65,17.67-.76,26.22-4.06,24.51-9,48.87-13.61,73.26-2.53,13.24-10.12,23-22.57,27.66-99.83,37.5-171.95,108.66-233.51,192.39-57.23,77.83-87.63,166.08-99.19,261.37-.44,3.58-.08,8.12-2.1,10.5-16.82,19.78-19.56,45.33-28.17,68.36-7.14,19.09-17.9,30.56-39.23,32.35-21.79,1.84-43.35,6.28-65.1,8.94s-40.78,11.78-57.28,25.57c-16.23,13.57-32.45,27.47-46.7,43-11.37,12.42-26.59,15.84-40.61,19.09-11.81,2.75-23-5.8-29.14-18.74-27.2-57-65.7-105.45-115.65-144-87.58-67.55-183.68-116.83-295-131.36-54.82-7.15-106.18,2.61-152.75,33.65a112.32,112.32,0,0,1-15.22,8.52C1791.74,2032.88,1757.36,2010,1758.46,1965.9ZM1964.84,834.27c-3.1,7.76-4.48,11-5.7,14.33-16.12,43.89-30.7,88.42-48.65,131.55-32.38,77.73-82.25,143.09-148.19,195.48-30.83,24.49-63.64,46.49-95.49,69.72-8,5.86-15.84,12.07-23.93,18.26,2.84,4.44,4.12,7.12,6,9.25,3.41,3.81,7.09,7.39,10.83,10.88,62.3,58.1,118.28,121,160.94,195.66,38.66,67.66,66.79,138.58,73.82,216.09,4.55,50.1,2.76,100.78,3.76,151.2.16,8.54,0,17.1,0,28.86,11.65-3.85,20.57-6.38,29.17-9.73,14.28-5.57,28-13.07,42.58-17.31,76.26-22.1,151.89-17.26,226.39,8.35a296.08,296.08,0,0,1,90,49.27c21.5,17.32,41.58,36.42,62.12,54.92,52.85,47.6,94.6,103.44,124.6,168,2.8,6,6.34,11.67,10,18.4,11.22-19.84,20.93-36.94,30.59-54.07,32.65-57.87,82.79-84.29,148.54-82.84,4.05.09,8.13-1,13.26-1.7-1-9.25-2-17.16-2.78-25.09-6.76-67.79-3.38-134.23,23.51-198.19,14.78-35.15,31.75-68.87,52.74-100.78,59.61-90.61,133-164.81,237.1-203.54,5.14-1.91,10-4.74,15.64-7.49-2.52-2.11-3.46-3.29-4.69-3.86-80.74-37.66-141.44-97.43-189.25-171.43-32.24-49.88-53.69-104.47-61.44-162.93-11.92-89.93-7.06-179.34,19.82-266.76.69-2.24.09-4.89.09-10.31-7.21,6.3-12.11,10.49-16.93,14.78-80.82,72-170.21,127.45-277.66,151.62-151,34-288.85,9-412.1-86.16C2023.09,910.51,1990.49,878,1964.84,834.27Zm-382,532.25,15.27,12.22c29.28,23.34,55.94,49.06,77.72,79.88,78.85,111.56,115.13,236.94,120.83,372,1.85,43.8.62,87.71.94,131.57.06,7.84-1.54,17.07,8.35,20.54,10.11,3.55,14.35-4.62,18.7-11.29,11.18-17.14,22.58-34.17,32.89-51.82,3.45-5.91,5.15-13.53,5.46-20.47,1.16-25.56,2.24-51.18,1.8-76.75-.78-46,.59-92.38-4.88-137.89-7.89-65.84-31.22-127.17-64.81-184.87-31.06-53.35-64.88-104.21-109.26-147.55-16.21-15.82-31.64-32.43-47.57-48.53-3.25-3.28-7.16-5.93-11.72-9.65C1611.7,1318.66,1597.82,1341.71,1582.87,1366.52ZM1882.38,1941c8.56-1.63,12.19-1.84,15.46-3,30-11,61.07-14,92.78-12.3,65.86,3.54,128,21.47,187.19,49.67,77.09,36.74,148.93,81.53,205.09,147.1,23.11,27,42.17,57.44,63.43,86.81,7.87-11,22.37-19.3,13.26-39.64-50.27-112.24-125.23-201.81-235.35-259.45-72.54-38-149.75-47.62-229.86-34.07-38.87,6.57-72.82,24.91-102.77,50.41C1888.54,1929.14,1887,1933.58,1882.38,1941Zm828.52-13.25c5.82-14.58,11.2-29.35,17.54-43.7,40.38-91.25,101-167.54,176.23-232,34.35-29.41,71.82-55.87,114.85-71.39,16.85-6.08,25.21-13.88,26.75-31.49s9.25-34.68,6.26-54.49c-7.73,1.71-14.18,2.71-20.36,4.57-53.17,16-101.11,41.65-143.06,78.26-61.45,53.64-109.14,117.65-144.28,191.11C2720.93,1818.64,2706.1,1870.75,2710.9,1927.78Zm-190.49,236c43.41-25.18,89.41-23.22,133.52-31.77,9.25-27.1,18.34-53.72,28.15-82.44-45.32-7.25-84.28.59-113.78,33.33-16.82,18.65-28.43,42-42,63.52C2523.82,2150.4,2523.16,2155.48,2520.41,2163.83Z" transform="translate(-122 -150.35)"/><path d="M598.1,714,576.59,575.36q-2-11.05-4.57-23.18a149,149,0,0,0-6.87-23.36A94.63,94.63,0,0,0,554.87,509a39.18,39.18,0,0,0-14.3-12.9l-1.21-2.6,135.83-63.86,1.22,2.59q-8.7,20.57-8.54,51.18a428.55,428.55,0,0,0,5.72,65.36l46.25,303-89.7,42.17L472,716.35l36.36,234.86-89.7,42.17L214.76,764.47a428.59,428.59,0,0,0-46.68-46.11q-23.49-19.65-44.86-26.07L122,689.7l135.83-63.87,1.22,2.6a39.18,39.18,0,0,0,.82,19.24,94.81,94.81,0,0,0,8.73,20.58,148.19,148.19,0,0,0,13.61,20.19q7.69,9.67,14.93,18.3l93.06,105L371.61,690.09l.24.52q-1.8-10.54-4.26-25.22a254,254,0,0,0-6.6-28.86,117.4,117.4,0,0,0-10.91-25.89q-6.76-11.68-17.41-16.83l-1.21-2.59,133.76-62.89,1.22,2.59a39.57,39.57,0,0,0,1.06,19.76,90.68,90.68,0,0,0,9.23,21,190.93,190.93,0,0,0,14.11,20.59q7.95,10.2,15.18,18.82Z" transform="translate(-122 -150.35)"/><path d="M854.23,798.17l-.89-2.72q8.63-17.88,2.74-49.72t-18.69-71L789,526.57q-12.81-39.21-26.86-68.37t-31.56-38.5l-.89-2.73L910.47,357.9l34.58-11.3q17.16-5.6,31.86-11.31t25.89-11.17q11.16-5.46,17.18-11l3.08.2,57.51,109.58L1078,424.3a101.22,101.22,0,0,0-29.67-6.88,137.75,137.75,0,0,0-29.72,1.27,239.79,239.79,0,0,0-31.2,6.88q-16,4.64-33.94,10.49l-77.33,25.27,23.13,70.79,62.08-20.29A413.92,413.92,0,0,0,1009,493.28q20.88-9.84,29.49-24.11l3.08.2,36.12,110.55-2.37,2a102.24,102.24,0,0,0-29.66-7.79,123.85,123.85,0,0,0-29,.74,224.15,224.15,0,0,0-30.38,6.61q-15.69,4.53-33.67,10.4l-30.49,10,24.19,74.06,85.5-27.93q18-5.88,33.68-11.3a211.65,211.65,0,0,0,29.33-12.6,127.3,127.3,0,0,0,24.65-16.8,107.78,107.78,0,0,0,19.79-23.34l2.9-.34L1160.41,706l-2.37,2q-8.14-.95-20.39,1.24t-27.48,6.27q-15.26,4.08-32.4,9.68l-34.58,11.3Z" transform="translate(-122 -150.35)"/><path d="M1260.84,261.74l.63,2.8q-10.24,17-7.36,49.24t12,72.47l42.11,186.07,69.28-15.68q18.45-4.17,34.86-8.18a212.64,212.64,0,0,0,30.66-9.88,127.18,127.18,0,0,0,26.11-14.42,108,108,0,0,0,21.88-21.4l2.92-.07,6.26,123.69-2.54,1.75a79.44,79.44,0,0,0-18.33-.55q-11,.74-24.6,2.93t-29,5.39q-15.43,3.2-31.63,6.87L1205.2,685.51l-.64-2.8q10.26-17,7.36-49.24t-12-72.47l-34.4-152q-9.1-40.23-20.38-70.57t-27.84-41.28l-.63-2.79Z" transform="translate(-122 -150.35)"/><path d="M1710.57,177.75q30.69-3.88,49.17-1.59t27,1.21q8.52-1.08,16.69-2.68a30.7,30.7,0,0,0,13.92-6.38l3,.78q7.07,33.18,12.69,66.24t12.69,66.25l-2.7,1.5a135.42,135.42,0,0,0-57.42-34,156.54,156.54,0,0,0-64.21-5.47,132.77,132.77,0,0,0-42,12.52,104.66,104.66,0,0,0-33.94,26.23q-14.09,16.5-20.88,40.46t-2.92,54.64q3.88,30.7,16.37,51.93t30.28,34a102.33,102.33,0,0,0,39.42,17.26,132.76,132.76,0,0,0,43.81,1.69q50-6.32,80.87-29.56a145.35,145.35,0,0,0,46.51-59.28l2.91.21-5.09,142.69a412.19,412.19,0,0,1-56.39,19.83,411.21,411.21,0,0,1-58,11.93l-7.39.93q-43.79,5.54-83.93-1.53t-72.3-28.41q-32.14-21.35-54-57.56t-28.57-89.08l-.36-2.84q-6.68-52.86,5.5-93.66t38-69.47q25.83-28.67,63-45.48t80.91-22.34Z" transform="translate(-122 -150.35)"/><path d="M2361.32,356.29q.64,53.26-16.07,92.15t-45.63,64.44q-28.9,25.56-67.72,38.06a278.12,278.12,0,0,1-82.34,13l-7.45.09q-44.12.54-83.21-11t-68.62-36.41q-29.52-24.84-47.18-63.31t-18.3-91.73l0-2.87q-.66-53.27,16.06-92.44t45.62-64.72q28.92-25.56,67.72-38.06t82.92-13l7.45-.09a277.94,277.94,0,0,1,82.63,11q39.1,11.55,68.63,36.41T2343,261.4q17.66,38.76,18.3,92Zm-330,2.29q.33,26.93,8.33,48.88a114.61,114.61,0,0,0,22.23,37.83,93.65,93.65,0,0,0,34.38,24.22q20.16,8.36,44.79,8.05l7.45-.09q24.61-.3,44.29-9.13a94.29,94.29,0,0,0,33.5-25,115,115,0,0,0,21.31-38.35q7.45-22.14,7.13-49.08a147.81,147.81,0,0,0-8.32-48.6q-8-22.25-22.23-37.83a99.35,99.35,0,0,0-34.1-24.22q-19.87-8.64-44.5-8.34l-7.45.09q-24.63.3-44.57,9.42a98.43,98.43,0,0,0-33.79,25.05q-13.86,15.93-21.31,38.36A148.19,148.19,0,0,0,2031.33,358.58Z" transform="translate(-122 -150.35)"/><path d="M2717.78,376.56,2612.21,502.67l-74.94-146-18.44,135.72q-4.17,27.21-2.28,46.72t8.85,29.51l-.31,2.85L2392.4,556.79l.32-2.84q9-8.22,14.22-27a401.08,401.08,0,0,0,9.39-45.94l27.81-205q1.32-6.78,2.05-13.32t1.48-13.39a259.07,259.07,0,0,0,1.32-46q-1.44-20.91-12.33-42.28l.31-2.85,109.33,12.07,84.77,161.52,118.52-139.09,109.33,12.07-.31,2.85q-15.3,18.5-21.29,38.86a259.91,259.91,0,0,0-8.7,44.86q-.75,6.84-1.48,13.38t-.9,13.45l-17.57,206.13a395.15,395.15,0,0,0-.85,46.88q1,19.42,8,29.41l-.31,2.85-132.68-14.64.31-2.85q9-8.22,15.07-26.87t8-46.09Z" transform="translate(-122 -150.35)"/><path d="M2844.52,610.77l.62-2.79q16.53-11,27.7-41.38T2893,496l33.85-152.11q9-40.26,11.74-72.51T2931,222.12l.62-2.8,185.66,41.32,35.51,7.9q17.63,3.93,33.18,6.51t28,3.58q12.39,1,20.41-.74l2.55,1.74-6.38,123.59-2.92-.06a101.24,101.24,0,0,0-22-21,137.83,137.83,0,0,0-26.22-14.05,239.29,239.29,0,0,0-30.35-10q-16.11-4.17-34.55-8.28l-79.41-17.67-16.18,72.7L3082.63,419a411.47,411.47,0,0,0,50.4,8.28q23,2.19,37.65-5.7l2.55,1.74L3148,536.86l-3,.5a102,102,0,0,0-21.55-21.82,124.19,124.19,0,0,0-25.32-14.15,223.82,223.82,0,0,0-29.51-9.79q-15.83-4.1-34.27-8.21l-31.32-7L2986,552.47,3073.82,572q18.46,4.11,34.74,7.43a211.31,211.31,0,0,0,31.66,4.12,127.82,127.82,0,0,0,29.76-1.89,107.68,107.68,0,0,0,28.93-10l2.67,1.18-46.64,114.64-3,.49q-6.53-5-18.17-9.32T3106.88,670q-15.2-4.26-32.8-8.18l-35.51-7.9Z" transform="translate(-122 -150.35)"/><path d="M3420.6,762.85l1-2.69q18.36-8.53,33.14-37.31t28.91-67.51l65.42-179.2q-17.24-6.3-32.76-11.35a224,224,0,0,0-30.14-7.65,139.67,139.67,0,0,0-29.12-2.09,92.19,92.19,0,0,0-29.35,6.06l-2.49-1.52L3486.41,352l3.08-.09q5.81,5.78,16.8,11.62t25.48,12q14.51,6.21,31.46,12.4l34.17,12.48,60.28,22L3691.85,435q17,6.19,32.05,10.79t27.52,7.3q12.42,2.7,20.6,2l2.3,2.06-22.47,121.7-2.89-.44a92.32,92.32,0,0,0-18.54-23.54,138.31,138.31,0,0,0-23.89-17.26,232,232,0,0,0-28.25-13.67q-15.15-6.12-32.36-12.42L3580.5,690.71q-14.14,38.74-21.11,70.35t1,49.78l-1,2.69Z" transform="translate(-122 -150.35)"/><path d="M4153.62,868.94q-23.56,47.77-56.09,74.86t-69.87,36.76q-37.36,9.69-77.61,3.24a278,278,0,0,1-79.31-25.7l-6.68-3.29q-39.57-19.51-69.18-47.54t-44.67-63.55q-15.06-35.54-13.37-77.82t25.26-90.07l1.27-2.56q23.57-47.79,56.21-75.12t70-37q37.35-9.69,77.61-3.24t79.82,26l6.68,3.3a277.73,277.73,0,0,1,68.67,47.28Q4152,662.44,4167,698T4180.27,776q-1.82,42.56-25.38,90.33ZM3858.43,721.43q-11.91,24.15-14.73,47.35a114.69,114.69,0,0,0,2.67,43.8,93.61,93.61,0,0,0,19.68,37.17q14.17,16.57,36.27,27.47l6.68,3.3q22.1,10.89,43.62,11.93a94.34,94.34,0,0,0,41.21-7.14,114.82,114.82,0,0,0,36.38-24.54q16.7-16.35,28.6-40.51a148.06,148.06,0,0,0,14.61-47.09q2.94-23.46-2.67-43.8a99.5,99.5,0,0,0-19.42-37q-13.8-16.7-35.89-27.6l-6.68-3.29q-22.1-10.9-44-11.81a98.44,98.44,0,0,0-41.47,7q-19.56,7.92-36.37,24.54A147.75,147.75,0,0,0,3858.43,721.43Z" transform="translate(-122 -150.35)"/><path style="fill-rule:evenodd;" d="M3082.81,2373.5c-62.87-35-152.45-48.69-241.91-48.69-76.67,0-152.82,29.75-245.65,66-33.74,13.18-69.72,27.24-108.71,41v-4.25a9.47,9.47,0,1,0-18.93,0v10.84a1498.55,1498.55,0,0,1-178.51,49.59c-4.93-27.42-21.56-50-51.77-49.17l-930.23,14.87c-56.6,1.61-53,110.9,0,112.4L2237.33,2581c26.33.75,43.73-22,50.35-49.47,67,14,126.29,31.54,179.93,49.89v10.84a9.47,9.47,0,0,0,18.93,0V2588c39,13.79,75,27.85,108.71,41,92.83,36.29,169,66,245.65,66,89.46,0,179-13.71,241.91-48.69,52.67-29.29,86.69-73.35,86.69-136.45S3135.48,2402.8,3082.81,2373.5Zm-.07,166.26c-56.74,9.1-138.13,12.67-219.64,12.67-69.53,0-139.11-7.84-223.92-17.41-45.67-5.14-95.76-10.79-152.64-16v-18.17c56.88-5.19,107-10.83,152.64-16,84.81-9.56,154.39-17.4,223.92-17.4,81.51,0,162.9,3.57,219.64,12.67,44.26,7.1,72.85,16.84,72.85,29.8S3127,2532.66,3082.74,2539.76Zm-615.13-22.41c-30.57-2.66-63.08-5.17-97.87-7.39,34.79-2.22,67.3-4.73,97.87-7.4Zm616.78-47.65c-57.47-9.21-139.42-12.83-221.29-12.83-69.93,0-139.85,7.88-225.09,17.49-45.37,5.11-95.09,10.72-151.47,15.88V2484c57.12-11.34,107.44-23.69,153.3-34.94h0c84.66-20.76,154.09-37.8,223.24-37.8,81.2,0,162.27,7.74,218.72,27.46,34.77,12.13,60,28.73,69.53,50.75C3137.3,2480.93,3114,2474.45,3084.39,2469.7Zm-616.78,22.23q-21.45,1.88-44.2,3.63,22.77-3.79,44.2-7.87Zm0,36.06v4.23q-21.43-4-44.18-7.86Q2446.19,2526.1,2467.61,2528Zm18.93,1.69c56.38,5.17,106.1,10.77,151.47,15.89,85.24,9.6,155.16,17.48,225.09,17.48,81.87,0,163.82-3.61,221.29-12.84,29.57-4.75,52.91-11.23,67-19.78-9.56,22-34.76,38.61-69.53,50.75-56.45,19.71-137.52,27.46-218.72,27.46-69.15,0-138.58-17-223.24-37.81h0c-45.86-11.25-96.18-23.59-153.3-34.94Zm112.56-128.95c91.79-35.87,167.07-65.3,241.8-65.3,87.9,0,175.67,13.34,236.77,47.33,38.26,21.28,66,50.77,76.53,90.29-13.49-18.87-37.67-33.41-68.89-44.31-57.74-20.17-140-28.08-222.21-28.08-70.32,0-140.37,17.19-225.77,38.14-45.17,11.09-94.67,23.23-150.79,34.42v-30.09C2527,2428.9,2564.24,2414.35,2599.1,2400.73Zm-131.49,48.94v27.24c-52.66,10-111.08,19.05-177,25.57,0-1.29-.11-2.58-.2-3.86A1503.26,1503.26,0,0,0,2467.61,2449.67Zm-178,71.47c.18-1.25.33-2.5.46-3.75,66.14,6.52,124.72,15.58,177.52,25.62v27.24A1503.11,1503.11,0,0,0,2289.63,2521.14Zm788,116c-61.1,34-148.87,47.33-236.77,47.33-74.73,0-150-29.43-241.8-65.29-34.86-13.63-72.08-28.17-112.56-42.41v-30.1c56.12,11.2,105.62,23.34,150.79,34.42,85.4,21,155.45,38.15,225.77,38.15,82.18,0,164.47-7.92,222.21-28.08,31.22-10.9,55.4-25.45,68.89-44.31C3143.67,2586.39,3115.93,2615.87,3077.67,2637.16Z" transform="translate(-122 -150.35)"/></svg>


