<svg xmlns="http://www.w3.org/2000/svg" viewBox="0 0 3934.19 5146.36" width="500" height="500"><path style="fill-rule:evenodd;" d="M3991.77,1388.31,3498,1382l.36-27.89,495.28,6.29c48.39.62,52.71-2.24,98.48-17-47.54-19.12-47.82-21.65-99.46-22.31l-493.8-6.27.34-27.18,495.28,6.29c48.39.61,52.71-2.26,98.49-17-47.55-19.13-47.83-21.66-99.47-22.32l-493.8-6.27.35-27.87,495.28,6.29c48.39.61,52.67,1.47,98.44-13.25-47.54-19.12-47.87-17.91-99.51-18.56l-493.71-13.76-62.7-.8c-36.55-.47-59,33.1-76.91,61.66-15.77,25.09-116.95,27.14-259.15,18.15l68.32,70.07c105.22-1.36,176.83,5.44,189.37,26.57,17.21,29,38.78,63.13,75.32,63.59l62.7.8,495.38-1.2c48.39.61,52.66,1.48,98.44-13.24C4043.74,1387.76,4043.42,1389,3991.77,1388.31Z" transform="translate(-222.61 -111.1)"/><path style="fill-rule:evenodd;" d="M447.93,1388.31l493.8-6.27-.36-27.89-495.28,6.29c-48.39.62-52.71-2.24-98.48-17,47.54-19.12,47.82-21.65,99.47-22.31l493.79-6.27-.34-27.18L445.25,1294c-48.39.61-52.71-2.26-98.49-17,47.55-19.13,47.83-21.66,99.47-22.32l493.8-6.27-.35-27.87-495.28,6.29c-48.39.61-52.67,1.47-98.44-13.25,47.54-19.12,47.87-17.91,99.51-18.56l493.71-13.76,62.7-.8c36.55-.47,58.95,33.1,76.91,61.66,15.77,25.09,117,27.14,259.15,18.15l-68.32,70.07c-105.22-1.36-176.83,5.44-189.37,26.57-17.21,29-38.78,63.13-75.32,63.59l-62.7.8-495.38-1.2c-48.39.61-52.66,1.48-98.44-13.24C396,1387.76,396.28,1389,447.93,1388.31Z" transform="translate(-222.61 -111.1)"/><path d="M744.91,2931.13A98.73,98.73,0,0,0,704,2922.3H480.8a99.52,99.52,0,0,0-99.51,99.52v2a99.51,99.51,0,0,0,99.51,99.51H704a98.73,98.73,0,0,0,40.95-8.83c44.8-20.34,92.72-32.92,141.92-32.92h99.31V2964.05H886.83C837.63,2964.05,789.71,2951.47,744.91,2931.13Zm1688.93,146q18.94-16.55,18.94-42.11,0-33.37-34-33.38-26.48,0-44.81,15.34-27.67,23.16-36.69,68.57,13.53,12.63,36.69,12.63Q2410.08,3098.16,2433.84,3077.11ZM1047,3303.68H3316.34V2742H1047Zm1518.83-308.23q3.91-27.21,14.29-43.3t30.52-16.1q19,0,27.07,25.27a128,128,0,0,1,5.72,39.4q0,18.65-1.21,43.6,20.45-49.32,55.64-80.3,31.58-28,66.17-28,49,0,69.47,51.13,13.23,34,13.23,83.61,0,14.43-1.8,37.14a410.85,410.85,0,0,1-8,51.73,384.06,384.06,0,0,1-14.74,52.33q-8.58,23.31-18.05,37.29t-18.19,14q-8.12,0-8.12-8.72,0-15.35.6-35.19t.6-49.93q0-161.79-39.4-161.8-27.06,0-55.93,39.55a255.41,255.41,0,0,0-41.36,88.87q-12.48,49.34-12.48,117,0,6-1.8,8.12c-1.21,1.4-3.11,2.11-5.72,2.11q-26.16,0-40.9-44.51Q2562,3161.31,2562,3056.35A431.94,431.94,0,0,1,2565.86,2995.45Zm-296.38,30.08q13.68-37.14,46.16-61.81,37.29-28.56,87.22-28.57,54.13,0,81.8,34.89,17.45,22.26,17.45,58.34,0,38.51-24.67,67.67-28.26,32.79-85.71,32.78-34.29,0-57.74-13.23,0,9.63.6,18.05,2.7,39.39,23.46,62.25,18.94,20.14,47.82,20.15,51.72,0,92.63-66.47,3.9-6.32,9-6.31,6.92,0,6.92,9,0,8.73-5.42,25-13.23,39.11-49.32,64.66-28.27,20.46-71,20.46-59.53,0-93.53-36.4-39.41-42.41-39.4-123A222,222,0,0,1,2269.48,3025.53ZM1930.39,2835q12.63-52.62,49.32-52.63,23.16,0,30.68,23.76,4.5,15,4.51,39.1,0,28.28-3.31,68.87-4.21,52-11.43,132.33,22.26-52.63,56.24-82.41,31.57-28,66.16-28,49.32,0,69.48,51.13,13.23,33.39,13.23,81.81,0,15-1.81,38.34a404.52,404.52,0,0,1-8,52.33,398.3,398.3,0,0,1-14.58,52.33q-8.43,23.31-17.9,37.29t-18.19,14q-7.83,0-8.12-8.72,0-5.72.45-25.42t.45-59.7q0-161.49-42.1-161.5-27.08,0-54.59,39.4t-39.85,88.72q-12.33,49.34-12.33,116.09,0,11.12-7.22,11.13-39.39,0-53.53-144.36-6.92-70.66-6.92-161.5Q1921.06,2873.2,1930.39,2835Zm-383.45,101.05q41.79,0,41.8,64.67,0,67.07,3.16,117.44t9.17,77q6,26.61,19,26.61,14.13,0,23.46-25.26,22.24-52.34,22.25-181.65,0-63.45,42.1-63.46,32.79,0,32.79,57.14,0,93.24,4.21,142.86,5.7,73.38,29.47,73.38,18.95,0,31.73-55.49t12.78-126.46q0-46.92-5.71-74.59t-5.72-35.78c0-5.61,2.61-8.43,7.82-8.43q15.94,0,32.33,31.28t16.39,85.11q0,80.31-26.31,151.58t-76.24,71.28q-20.76,0-36.09-10.83t-26.32-29q-11-18.2-15.49-50.08-14.73,89.94-74,89.93-44.21,0-69.17-52-33.09-68-33.08-203.31Q1507.24,2936.07,1546.94,2936.05ZM3873.2,2922.3H3650a98.81,98.81,0,0,0-41,8.83c-44.79,20.34-92.72,32.92-141.91,32.92h-99.31v117.54h99.31c49.19,0,97.12,12.58,141.91,32.92a98.81,98.81,0,0,0,41,8.83H3873.2a99.51,99.51,0,0,0,99.51-99.52v-2A99.51,99.51,0,0,0,3873.2,2922.3Z" transform="translate(-222.61 -111.1)"/><path d="M724,2083.28c-88.93,2.59-155.46,36.85-216.31,89.21-34.72,29.87-76.35,53.05-117.75,73.36-26.91,13.21-58.66,18.91-88.88,22.31-29.79,3.35-58-9-70.31-37.74-12.63-29.5-11.48-62.26,10.45-87.68,18.25-21.16,39.11-42.83,63.37-55.59,130.6-68.69,266.41-71.79,404.58-24.67C712.86,2063.76,714.85,2070.2,724,2083.28Z" transform="translate(-222.61 -111.1)"/><path d="M808,1929.25c-12.71-7.48-20.71-11.54-28-16.6-31.07-21.53-65.23-31.63-103.13-30.37-20.06.66-40.42,1.12-60.2-1.61-19.63-2.71-39.18-8.19-57.89-14.89-21.66-7.77-29.47-26.22-28.9-48,.62-23.59,14.36-41.86,37.61-48,42.58-11.29,84.24-5.26,122.17,15.5,52.44,28.69,93.48,69.6,118.19,125.11C809.14,1913.25,808,1917.26,808,1929.25Z" transform="translate(-222.61 -111.1)"/><path d="M736.15,2269.22c-44.17,64.17-75.51,113.62-111.23,159.66-14.1,18.18-36.44,32.15-57.81,42-25.58,11.73-59.83-11.51-60.32-40.22-.34-20.1,1.25-43.78,11.42-59.89C564.31,2297.71,631.53,2264,736.15,2269.22Z" transform="translate(-222.61 -111.1)"/><path d="M3597.73,2083.28c88.93,2.59,155.47,36.85,216.31,89.21,34.73,29.87,76.35,53.05,117.75,73.36,26.91,13.21,58.67,18.91,88.89,22.31,29.78,3.35,58-9,70.3-37.74,12.64-29.5,11.48-62.26-10.45-87.68-18.25-21.16-39.1-42.83-63.37-55.59-130.6-68.69-266.4-71.79-404.57-24.67C3608.84,2063.76,3606.85,2070.2,3597.73,2083.28Z" transform="translate(-222.61 -111.1)"/><path d="M3513.69,1929.25c12.72-7.48,20.72-11.54,28-16.6,31.07-21.53,65.22-31.63,103.13-30.37,20,.66,40.42,1.12,60.19-1.61s39.18-8.19,57.89-14.89c21.66-7.77,29.48-26.22,28.9-48-.61-23.59-14.35-41.86-37.61-48-42.57-11.29-84.24-5.26-122.17,15.5-52.43,28.69-93.47,69.6-118.18,125.11C3512.56,1913.25,3513.69,1917.26,3513.69,1929.25Z" transform="translate(-222.61 -111.1)"/><path d="M3585.55,2269.22c44.17,64.17,75.5,113.62,111.22,159.66,14.11,18.18,36.45,32.15,57.82,42,25.57,11.73,59.82-11.51,60.31-40.22.35-20.1-1.24-43.78-11.42-59.89C3757.38,2297.71,3690.17,2264,3585.55,2269.22Z" transform="translate(-222.61 -111.1)"/><path d="M340,869q-21.06,0-33.29-4.89Q264.65,846,241.16,715.36A841.48,841.48,0,0,1,228,569.06q0-111.55,31.8-214.8,26-78.76,65.57-111.55,23.48-19.58,50.89-19.58,77.3,0,111.56,77.8,45,99.33,45,171.75,0,92.49-84.16,133.08Q429,615.08,397.48,624.6t-52.59,13.46c-5.56.65-9,1.62-10.27,2.93s-1.95,4.25-1.95,8.81q0,12.24,11.24,73.88,9.3,51.87,11.75,51.86,3.88,0,20.55-78.29l13.2-6.35a64.47,64.47,0,0,1,27.41-6.37q32.28,0,32.29,18.11,0,9.78-5.37,44Q435.4,799.53,422.69,825,402.14,867,358.1,868.51ZM329.73,596.47q32.28-9.79,46-15.17,42.57-15.64,64.58-55.3,9.79-21,9.79-55.77,0-74.37-38.17-156.57-10.28-22-13.2-22-5.39,0-19.58,27.41-26.92,51.87-40.6,137.48-8.81,57.26-8.81,105.2Z" transform="translate(-222.61 -111.1)"/><path d="M734.8,852.86q-31.34,0-51.86-22.51-63.62-68.51-119.89-428.14-17.61-112-17.6-139,0-35.72,46-35.72,30.35,0,40.14,15.66,11.73,28.89,43.54,218.23Q717.19,711,743.6,770.17q11.73,26.42,14.19,26.41,3.91,0,27.4-42.57,42.57-79.25,78.29-229.47,0-5.38-19.56-15.18Q784.7,479,745.57,412.49q-24-52.33-24-100.3,0-107.64,105.2-107.65,40.61,0,72.42,23,58.21,43.1,58.21,135.55,0,50.39-3.9,81.7l-6.37,43.06,13.7.5q31.32,0,71.92-8.82,11.76-4.41,27.41-4.41,20.53,0,20.55,16.16l-.49,3.42q0,11.76-28.88,23.49-39.15,12.23-86.1,15.66l-28.87,1.95Q885.5,752.56,819.94,818.11,784.71,852.85,734.8,852.86Zm138.46-390q2.94,0,6.37-25.93,3.42-34.74,3.42-74.38,0-24-2.45-36.2a157.8,157.8,0,0,0-19.81-48.44q-13.95-22.5-29.11-31.32c-3.92-2-6.7-2.93-8.32-2.93s-3.75,1.14-6.36,3.42q-16.15,15.17-16.15,63.11,0,26.44,5.38,48,8.81,36.7,35.24,78.28Q867.87,462.91,873.26,462.89Z" transform="translate(-222.61 -111.1)"/><path d="M1143.27,869q-21,0-33.28-4.89-42.08-18.12-65.56-148.75a840.51,840.51,0,0,1-13.21-146.3q0-111.55,31.8-214.8,25.95-78.76,65.56-111.55,23.49-19.58,50.89-19.58,77.29,0,111.57,77.8,45,99.33,45,171.75,0,92.49-84.16,133.08-19.58,9.32-51.14,18.84t-52.59,13.46q-8.34,1-10.27,2.93c-1.31,1.31-2,4.25-2,8.81q0,12.24,11.23,73.88,9.3,51.87,11.76,51.86,3.88,0,20.54-78.29l13.21-6.35a64.43,64.43,0,0,1,27.41-6.37q32.27,0,32.28,18.11,0,9.78-5.37,44-8.32,52.86-21,78.29-20.57,42.07-64.6,43.55ZM1133,596.47q32.26-9.79,46-15.17,42.57-15.64,64.58-55.3,9.78-21,9.79-55.77,0-74.37-38.17-156.57-10.28-22-13.21-22-5.38,0-19.57,27.41-26.92,51.87-40.61,137.48-8.79,57.26-8.8,105.2Z" transform="translate(-222.61 -111.1)"/><path d="M1456.84,896.39q-20.55,0-28.38-10.75a130.31,130.31,0,0,1-7.83-12.24q-11.27-20.56-20.31-85.37t-20.79-218.47q-6.37-89.55-6.36-176.15,0-134.05,13.21-208.45,9.3-47,18.59-51.37,18.1-8.3,57.26-8.3,27.39,0,63.11,7.82,71.91,16.15,133.58,67,42.06,34.74,65.56,73.4,31.32,55.31,33.27,93.21t2,46.24q0,57.24-22,104.69-48.45,90.52-150.7,162-19.58,13.73-19.58,15.18t19.58,3.9q28.38,3,71.43,9.3,52.36,7.35,63.61,14.19,26.42,15.67,26.43,32.3c0,7.84-4.09,11.74-12.24,11.74q-15.66,0-165.86-19.58-50.41-7.81-58.72-7.82c-.66,0-1,1-1,2.94q0,8.81,2.43,27.88,2.45,39.65,2.45,103.24l-10.27,8.33Q1485.21,896.39,1456.84,896.39Zm46.48-252.46q2.94,0,39.15-26.43a456.59,456.59,0,0,0,95.41-95.41q25.42-33.25,36.2-58.23,16.62-38.64,16.64-93.94,0-48.43-17.61-88.06-33.77-73.4-123.79-95.91-26.43-6.34-61.16-6.36-4.41,37.18-4.4,87.58,0,136.51,11.73,292.1,5.87,77.81,5.87,81.24C1501.36,642.79,1502,643.93,1503.32,643.93Z" transform="translate(-222.61 -111.1)"/><path d="M1991.55,933.58a139.54,139.54,0,0,1-20.54-1.47q-60.69-8.8-92.48-42.07Q1859,867.51,1859,839.63q0-45.49,45.5-88.55,64.59-57.72,202.08-78.29,37.18-5.38,38.17-9.79,5.85-23,9.77-59.68a656.26,656.26,0,0,0,3.92-69.48q0-48.42-9.78-123.31-11.25-81.19-25.44-120.37-29.85,89.55-68,153.64-64.61,108.65-116.94,110.1l-20.56.48q-62.64,0-97.85-53.82a136.86,136.86,0,0,1-21-52.36,350.16,350.16,0,0,1-2.45-45,314.26,314.26,0,0,1,2.93-46q6.38-36.19,23-76.32t31.31-53.82q15.18-12.23,25.93-12.24h11.26q19.58,0,37.18,11.76c7.84,4.9,11.91,8.39,12.24,10.52a38.57,38.57,0,0,1,.48,4.15q0,5.88-6.35,15.66-9.8,16.65-21,50.39-24,69.49-24,119.88,0,51.87,16.16,74.86c1.62,2.62,3.24,3.92,4.88,3.92,1,0,4.4-2.11,10.27-6.36a269.52,269.52,0,0,0,26.92-27.89q90-109.59,122.82-283.3,4.39-23,7.82-26.43,3.91-2,13.71-1.95,17.12,0,29.11,3.43t29.85,18.83a189.78,189.78,0,0,1,31.54,35q67.55,94.46,83.68,270.09,2.43,25.45,2.45,57.25,0,65.08-6.86,110.08-3.41,21.54-3.41,26.91,0,1.49,18.09,8.82,37.18,15.68,37.18,29.85,0,10.77-21,10.76a78.5,78.5,0,0,1-26.42-4.16q-11.76-4.15-16.14-4.16c-3.28,0-4.91,1.31-4.91,3.91q0,11.76-34.25,69-13.2,22.51-22.51,33.76Q2099.7,933.57,1991.55,933.58ZM1971,881.24q7.34,0,31.8-12.73,49.89-25.93,92.47-89,29.37-45,29.37-54.31c0-1-.66-1.47-2-1.47q-10.28,0-52.84,15.17-113,40.6-116,110.57Q1954.85,881.22,1971,881.24Z" transform="translate(-222.61 -111.1)"/><path d="M2474.89,907.65q-44,0-76.33-33.27-29.37-28.87-43.54-85.14-21.54-92-22-276,0-158,15.18-246.6-42.57,6.38-52.85,6.36Q2267,273,2267,253.48q0-10.77,9.28-17.63,7.83-5.39,41.84-11.25t36.68-9.77q2.7-3.92,5.16-27.9,4.4-37.19,39.63-37.18a92.32,92.32,0,0,1,15.66,1.46q18.59,2.44,25.43,9.54c4.55,4.73,7.51,13.3,8.82,25.7L2451.9,206q67-7.33,75.35-7.34,29.34,0,29.35,15.17,0,25-65.08,32.29l-43.06,5.38q-15.66,130.67-15.65,326.85,0,77.32,7.83,133.58,12.22,107.64,46,138a22.38,22.38,0,0,0,11.26,3.42q6.83,0,12.72-5.39,28.38-33.24,89.54-193.27,12.22-35.7,20-52.34t16.66-21q4.4-1.95,14.17-1.95,26.42,7.35,26.43,23.47,0,7.84-27.39,91.5-62.64,180.55-117.44,200.61-5.88,2.43-18.59,5.38Q2482.23,907.65,2474.89,907.65Z" transform="translate(-222.61 -111.1)"/><path d="M2930.84,872.91a99.21,99.21,0,0,1-21-2.45q-34.29-7.82-37.69-30.83-2-11.24-3.91-163.91-25.46,3.94-84.16,4.91l-65.56,2.43q2.93,79.29,2.93,92,0,17.15-1,20.55-4.9,15.17-39.63,15.17-41.12-.46-48.44-21.53-13.73-45.5-13.71-303.35,0-167.82,2.45-185,2.94-21,33.75-21,20.07,0,33.77,5.64t18.59,13.94q8.31,18.12,8.81,222.13V641q109.58-4.4,131.86-6.35t22.27-4.42q1-4.87,4.41-92,6.83-192.28,33.26-372.35,5.38-42.06,12.47-48.43t18.36-6.36q10.26,0,24,4.4,24,7.35,34.73,22,2.92,4.92,2.94,29.36,0,32.79-8.81,137.48-21,255.42-21,454.06,0,42.57-.25,63.61t-2.2,30.84c-1.31,6.52-3.34,10.83-6.12,13s-6.93,3.81-12.47,5.13A81.56,81.56,0,0,1,2930.84,872.91Z" transform="translate(-222.61 -111.1)"/><path d="M3106.41,302.88q-15.66,0-23-1-34.26-9.8-34.25-33.28,0-5.86,6.85-14.68a20.49,20.49,0,0,1,13.69-7.34,125.83,125.83,0,0,1,12.73-.49q18.58,0,38.16,8.32,27.41,12.24,27.4,25.94,0,7.35-7.82,14.67a23.76,23.76,0,0,1-10.27,6.12Q3124,302.89,3106.41,302.88Zm3.44,516.69q-40.63,0-48-27.39-12.24-51.84-12.24-209.42,0-75.35,6.86-174.18,3.42-49.41,9.3-53.34,13.21-8.31,31.8-8.32,27.39,0,41.1,12.24,4.88,3.42,6.11,11.51t1.71,51.6l-1,218.72q0,78.76,1.47,110.59,1.95,24,1.95,36.68,0,20.57-10.52,25.94T3109.85,819.57Z" transform="translate(-222.61 -111.1)"/><path d="M3598.62,883.67a132.84,132.84,0,0,1-25-2.43q-22-3.45-36.45-11.26t-28.63-23q-20.57-21-24.71-41.59a194.8,194.8,0,0,1-4.15-38.67q0-62.12,53.32-249.05,30.81-120.84,34.75-152.65,2-19.57,1.95-37.67,0-39.15-5.14-67t-12.95-37.2q-4.92,0-28.88,22-35.73,33.77-74.37,109.6-90.53,163.9-94.93,328.8l-3.9,57.24q-2,17.61-36.7,22.51a102.75,102.75,0,0,1-13.7,1q-24.48,0-37.19-14.67-18.12-18.11-35.72-145.32-11.25-76.8-11.25-227,0-104.72,8.07-111.07t22.76-6.37q24.94,0,47,15.66a29.9,29.9,0,0,1,9.79,11.25q5.85,12.25,12.71,105.2,5.39,61.17,6.85,61.16c.33,0,.66-.48,1-1.46q3.42-15.18,19.08-51.88,36.69-85.11,71-136.51,58.22-87.57,120.37-87.57a103.41,103.41,0,0,1,30.82,4.88q37.66,10.31,59.21,32.3,35.2,42.1,35.23,140.91,0,56.76-26.91,161-59.22,220.2-59.21,269.11a117.2,117.2,0,0,0,3.43,26.43q4.88,24,11.25,24,3.42,0,17.61-6.85,13.22-9.78,33.27-33.52a315.45,315.45,0,0,0,36.22-53.57q61.62-146.3,70.94-180.07,3.42-12.21,9-16.14c3.75-2.6,9.71-3.92,17.88-3.92q4.39,0,17.12,5.39c9.77,4.25,14.68,9.13,14.68,14.67q0,8.81-8.32,35.24-20.07,67.53-65.08,176.63Q3679.35,883.68,3598.62,883.67Z" transform="translate(-222.61 -111.1)"/><path d="M3977.71,871.93a119.13,119.13,0,0,1-31.32-4.4q-61.16-14.68-73.38-85.14c-2-10.1-2.93-17.76-2.93-23q0-9.28,5.87-15.18,3.4-3.42,18.1-3.42,43,0,50.39,20.55a129,129,0,0,1,2.45,12.72q1,12.24,6.86,26.91c2.59,6.53,4.56,9.79,5.87,9.79s3.09-1.14,5.37-3.42q16.16-15.65,35.23-52.84,48.42-95.4,66.55-303.37l-38.65,76.33q-74.89,150.71-121.84,178.1-17.61,10.77-40.61,10.77-16.65,0-36.21-5.87-33.77-9.78-52.59-31.06t-30.1-62.4q-5.88-24.43-5.87-74.86,0-60.18,7.34-95.42,39.15-173.18,137-233.39,38.17-24,86.61-24,50.38,0,102.26,34.73,17.61,11.76,31.8,16.15,28.88,8.82,30.35,32.29,1,12.26,9.29,58.71A716.51,716.51,0,0,1,4156.79,459,841.23,841.23,0,0,1,4147,585.21q-12.73,89.55-32.53,145.57t-52.59,96.63Q4026.15,871.93,3977.71,871.93Zm-120.36-226q21.53-24.45,32.3-37.67,43-53.34,96.38-164.89,63.6-133.57,63.61-160.49-.49-15.65-5.87-19.33a20.49,20.49,0,0,0-11.74-3.67q-25.94,0-59.21,24Q3888.16,344,3859.3,497.62q-6.86,42.11-6.85,93.46A338.56,338.56,0,0,0,3857.35,645.88Z" transform="translate(-222.61 -111.1)"/><path d="M1635.28,2168.51a8.66,8.66,0,0,1,7.35,7.25,9.7,9.7,0,0,1-5.33,9,88.43,88.43,0,0,1-34.09,10.5,1120.92,1120.92,0,0,1-149,11.49c-26.75.35-26.8.35-34.43,26.85a793.15,793.15,0,0,1-84.32,194.83A414.33,414.33,0,0,1,1229.61,2548a293.79,293.79,0,0,1-254.3,51.2,204.08,204.08,0,0,1-53.64-21.86c-64.4-36.66-88.08-99.39-70.06-170a191.63,191.63,0,0,1,48.62-85.71c10.8-11.3,23.27-21,34.94-31.49,9.43-8.45,23-11.8,29.88-23.34q-5.55-18.45-11.09-36.88a1089.49,1089.49,0,0,1-44.09-363.61,1507.81,1507.81,0,0,1,17.22-167.9c5-32.7,16.23-42.32,49-44.57a81.87,81.87,0,0,1,16.63.65c30.12,4.23,36.31,10.94,36,40.89-.35,31.36-2,62.72-1.73,94.07.21,20.24,2.94,40.45,4.59,60.68a46.84,46.84,0,0,0,10.46,25.14c3.78,4.9,1.7,12.84-3.71,13.22-24,1.76-22.72,17.83-22.28,35.22a2005.22,2005.22,0,0,0,19.58,250.94,148,148,0,0,0,13.24,51.3c0-11.92.37-23.85,0-35.74a1502.68,1502.68,0,0,1,5.54-185.33,779.59,779.59,0,0,1,43.47-207.79A400.52,400.52,0,0,1,1190.5,1651a215,215,0,0,1,41.59-32.07,85.12,85.12,0,0,1,56.11-10.34,43.73,43.73,0,0,1,42.2,48.69,140,140,0,0,1-9.05,43.1,505.76,505.76,0,0,1-41.14,87.44,73.09,73.09,0,0,0-11.09,21.3c3.08,6.16,8.17,3.76,12.33,3.76a228.54,228.54,0,0,1,49.53,3.89,135.89,135.89,0,0,1,99.51,80,273.86,273.86,0,0,1,22.29,102.07,620.79,620.79,0,0,1-13.71,156.77,71.25,71.25,0,0,0-3,24.41c4.24,5.22,10.08,3.39,15.25,3.54a1094.6,1094.6,0,0,0,127.23-6.44,156.56,156.56,0,0,0,32.28-7.23,46,46,0,0,1,24.47-1.39Zm-340.79,54.88c1.65-5.09,4.74-10,1.64-15.86a266,266,0,0,0-68.53,4.07,632.16,632.16,0,0,0-118.78,25.05c-12.14,3.71-12.3,4.08-11.81,17.65.9,24.88,2.12,49.74,3.27,74.59a260.08,260.08,0,0,1-1.16,49.67,22.46,22.46,0,0,1-19.64,20.27,53.2,53.2,0,0,1-54.88-17.63,252.31,252.31,0,0,1-29.38-46.68c-5.8-11.31-10.91-23-16.2-34.16-2.87.4-5.13.06-6.36,1-48.55,37.84-77.35,85.6-75.17,149.1a118.34,118.34,0,0,0,38.82,85.68,156,156,0,0,0,73.08,36.89,124.08,124.08,0,0,0,102.34-20.8,215.57,215.57,0,0,0,50.91-50.35,619.28,619.28,0,0,0,52.34-84.49,1267.33,1267.33,0,0,0,79.47-193.95Zm41.53-171.7a401.16,401.16,0,0,0,.86-123.79,152.31,152.31,0,0,0-21.06-59.36c-13.16-19.52-25.57-24.26-47.14-15.75a144.42,144.42,0,0,0-65.16,44.85c-6.13,8-13.34,15.25-19.89,23a59.14,59.14,0,0,1-48.84,21.38c-9.08-.18-20-3.26-26.8.71-9.1,5.31-4.09,18.56-6.75,28.11a124.92,124.92,0,0,0-2.89,21.87,1671.57,1671.57,0,0,0-4.75,207.06c.16,5.08-1.82,11,5.28,15.47a800,800,0,0,1,207.77-32.13A800,800,0,0,0,1336,2051.75ZM1122.35,1870.4a50.94,50.94,0,0,0,6.23-5.88,1369,1369,0,0,0,98.93-149,335.38,335.38,0,0,0,24.68-55.18c1.33-3.92,3.11-8.55-1.16-12.24C1194.73,1683.23,1129.74,1795.27,1122.35,1870.4Z" transform="translate(-222.61 -111.1)"/><path d="M2024.15,2191.56c-22.19,59.8-47.51,118-89.1,167.51a260.35,260.35,0,0,1-69.1,59,165,165,0,0,1-201.86-22.5,245.34,245.34,0,0,1-77.64-183.11,206.18,206.18,0,0,1,91.21-176.85,158,158,0,0,1,136.85-24.81,81.54,81.54,0,0,1,22.45,10.27,50.39,50.39,0,0,1,23.64,38.82,97.88,97.88,0,0,1,.74,11.09,154,154,0,0,1-106.62,137.36,251,251,0,0,1-35.64,4.16,8.74,8.74,0,0,0-9,8.52,294.61,294.61,0,0,0,15.82,130.61,137.06,137.06,0,0,0,26.12,42,50.29,50.29,0,0,0,57.41,15.77,220.94,220.94,0,0,0,75.92-44.25,282.6,282.6,0,0,0,62.48-83.78,945.58,945.58,0,0,0,43-95.67,17,17,0,0,1,20.8-13.22C2022.89,2173.6,2028.28,2180.84,2024.15,2191.56Zm-250.63-128.35a247.42,247.42,0,0,0-57.71,117c-1.17,5.05,3.16,8.54,8.31,7.29,39-9.47,75-57.24,74.62-100.05a47.48,47.48,0,0,0-7.58-27.83,7.11,7.11,0,0,0-11.49-2,61.58,61.58,0,0,0-6.19,5.55Z" transform="translate(-222.61 -111.1)"/><path d="M2563.74,1824.7c.14,1.23-1.8,3.21-3.18,4a28.65,28.65,0,0,1-18.74,3c-77.37-11.8-154.87-3.35-232.34-1.22-4.58.12-9.15,1.19-13.72,1.76a11.6,11.6,0,0,0-10.28,7.87c-.91,2.58-2.52,4.94-3.69,7.45A980.52,980.52,0,0,1,2142,2066.1a67.9,67.9,0,0,0-16.86,42c-6.18,92-7.72,184.32-6.82,276.51.69,71.31,5.24,154.91,54.67,211.26,13,14.82,33.36-13.94,40.29-22.83a336.93,336.93,0,0,0,40.34-69.15,985.7,985.7,0,0,0,49.25-143.66A1661.29,1661.29,0,0,0,2343,2188c.3-1.81.6-3.65,1-5.44,2.76-12.17,18.22-24.19,30.5-16.33,16.59,10.7,3.4,44.77.27,59.23a1800,1800,0,0,1-76.25,265.37c-21.61,56.27-60.6,146.62-135.81,133-42.47-7.7-70.76-47.41-90.31-82.68a590.11,590.11,0,0,1-54.51-142.8A1058.92,1058.92,0,0,1,1989.31,2088a849.22,849.22,0,0,1,39-220.06,11.73,11.73,0,0,0,0-12c-14.41.88-30,1.18-45.56,2.9a326.42,326.42,0,0,1-74.56-2.77,54.71,54.71,0,0,1-27.88-11.2,11.64,11.64,0,0,1,1.11-18.91,40.55,40.55,0,0,1,49.07.24,27.18,27.18,0,0,0,19.89,6.71c27.64-1.87,55.27-4,82.92-5.65a15.78,15.78,0,0,0,14.3-11c6-13.47,11.68-27.11,18.21-40.32,26.78-54,71.52-112.76,133.54-127.45a134.75,134.75,0,0,1,68.41.64,59.89,59.89,0,0,1,47.75,57.24,195.48,195.48,0,0,1-7.84,73.86,66.52,66.52,0,0,0-5,24.86c14.94,0,29.5.54,44-.09a1206.44,1206.44,0,0,1,157.83,1.13c14.74,1.28,29.31,3.62,43.84,6a33.75,33.75,0,0,1,12.56,5.38A10.43,10.43,0,0,1,2563.74,1824.7ZM2232,1836.1c-16.58,1-33.14,2.44-49.69,3.93-14.42,1.3-14.64,1.36-18.57,15.39a907.64,907.64,0,0,0-29.65,156.45,10.86,10.86,0,0,0,9.27-5.82A977.89,977.89,0,0,0,2232,1856.31a102.37,102.37,0,0,0,5.26-12.73C2238.5,1839.4,2236.29,1835.89,2232,1836.1Zm18.46-28.64c18.51-15.8,29.18-112.4.64-122.37-16.14-5.69-33.7,30.68-39.88,41.23-4.8,8.06-34.38,87.44-35.3,87.44,15.64-.69,27.42-.9,39.21-1.79,9.77-.73,27.18,2.5,35.33-4.44Z" transform="translate(-222.61 -111.1)"/><path d="M2916.75,1824.7c.14,1.23-1.8,3.21-3.18,4a28.65,28.65,0,0,1-18.74,3c-77.37-11.8-154.87-3.35-232.34-1.22-4.58.12-9.15,1.19-13.72,1.76a11.58,11.58,0,0,0-10.27,7.87c-.92,2.58-2.53,4.94-3.7,7.45A980.52,980.52,0,0,1,2495,2066.1a67.9,67.9,0,0,0-16.86,42c-6.18,92-7.72,184.32-6.82,276.51.7,71.31,5.24,154.91,54.67,211.26,13,14.82,33.36-13.94,40.29-22.83a336.93,336.93,0,0,0,40.34-69.15,985.7,985.7,0,0,0,49.25-143.66A1661.29,1661.29,0,0,0,2696,2188c.3-1.81.6-3.65,1-5.44,2.76-12.17,18.22-24.19,30.5-16.33,16.59,10.7,3.4,44.77.27,59.23a1800,1800,0,0,1-76.25,265.37c-21.61,56.27-60.6,146.62-135.81,133-42.47-7.7-70.76-47.41-90.31-82.68a590.11,590.11,0,0,1-54.51-142.8A1058.92,1058.92,0,0,1,2342.32,2088a849.22,849.22,0,0,1,38.95-220.06,11.73,11.73,0,0,0,0-12c-14.41.88-30.05,1.18-45.56,2.9a326.42,326.42,0,0,1-74.56-2.77,54.71,54.71,0,0,1-27.88-11.2,11.64,11.64,0,0,1,1.11-18.91,40.55,40.55,0,0,1,49.07.24,27.19,27.19,0,0,0,19.89,6.71c27.64-1.87,55.27-4,82.92-5.65a15.78,15.78,0,0,0,14.3-11c6-13.47,11.68-27.11,18.21-40.32,26.78-54,71.52-112.76,133.54-127.45a134.75,134.75,0,0,1,68.41.64,59.89,59.89,0,0,1,47.75,57.24,195.48,195.48,0,0,1-7.84,73.86,66.52,66.52,0,0,0-5,24.86c14.94,0,29.5.54,44.05-.09a1206.44,1206.44,0,0,1,157.83,1.13c14.74,1.28,29.31,3.62,43.84,6a33.75,33.75,0,0,1,12.56,5.38A10.43,10.43,0,0,1,2916.75,1824.7Zm-331.7,11.4c-16.58,1-33.14,2.44-49.69,3.93-14.42,1.3-14.64,1.36-18.57,15.39a907.64,907.64,0,0,0-29.65,156.45,10.86,10.86,0,0,0,9.27-5.82A977.89,977.89,0,0,0,2585,1856.31a102.37,102.37,0,0,0,5.26-12.73C2591.51,1839.4,2589.3,1835.89,2585.05,1836.1Zm18.46-28.64c18.51-15.8,29.18-112.4.64-122.37-16.14-5.69-33.7,30.68-39.88,41.23-4.8,8.06-34.38,87.44-35.3,87.44,15.64-.69,27.42-.9,39.21-1.79,9.77-.73,27.18,2.5,35.33-4.44Z" transform="translate(-222.61 -111.1)"/><path d="M3112,2191.56c-22.18,59.8-47.5,118-89.09,167.51a260.66,260.66,0,0,1-69.1,59,165,165,0,0,1-201.87-22.5,245.38,245.38,0,0,1-77.64-183.11,206.2,206.2,0,0,1,91.21-176.85,158,158,0,0,1,136.86-24.81,81.81,81.81,0,0,1,22.45,10.27,50.38,50.38,0,0,1,23.63,38.82,95.61,95.61,0,0,1,.74,11.09,154,154,0,0,1-106.62,137.36,250.91,250.91,0,0,1-35.63,4.16,8.74,8.74,0,0,0-9,8.52,294.47,294.47,0,0,0,15.83,130.61,137.06,137.06,0,0,0,26.12,42,50.27,50.27,0,0,0,57.4,15.77,220.94,220.94,0,0,0,75.92-44.25,282.25,282.25,0,0,0,62.48-83.78,943.44,943.44,0,0,0,43-95.67,17,17,0,0,1,20.8-13.22C3110.76,2173.6,3116.14,2180.84,3112,2191.56Zm-250.62-128.35a247.44,247.44,0,0,0-57.72,117c-1.17,5.05,3.16,8.54,8.32,7.29,39-9.47,75-57.24,74.62-100.05a47.55,47.55,0,0,0-7.58-27.83,7.11,7.11,0,0,0-11.49-2,61.69,61.69,0,0,0-6.2,5.55Z" transform="translate(-222.61 -111.1)"/><path d="M3537.66,2186.44a378.57,378.57,0,0,1-14.3,38.88c-30.94,76.55-59.62,139.45-96,213.38a444.49,444.49,0,0,1-42.37,68.94,189.44,189.44,0,0,1-27.91,30.69,76.27,76.27,0,0,1-52.23,19.27c-48.85-.5-76.6-48.44-89.21-89.69a484,484,0,0,1-18.93-183.38,466,466,0,0,1,7.27-50.72c1.24-6.2,11.17-31.14,6-35.49-5.55-4.66-22.48,7-27.28,9.56a119,119,0,0,1-63.55,13.41,88.23,88.23,0,0,1-33.94-7.1,108.38,108.38,0,0,1-59.37-61.76,152.53,152.53,0,0,1,27.73-129.73c26.58-36.6,75.56-74.69,123.39-69.62a59.89,59.89,0,0,1,58.07,57c2.91,55.45-32.8,117.09-71.24,154.78-8.18,7.94-17.35,13.1-25.8,20.42-2,1.72,12.58,4.44,13.8,4.34a167,167,0,0,0,55.29-21.44c27.69-13.26,93.4-58.52,113.89-11.88,8.52,19.41-.09,41.6-4.06,61-10.23,50.16-21.56,100.21-27.23,151.12a525.36,525.36,0,0,0-3.33,76.79c.89,24.67-3.54,64.48,23.75,78.14,15.55,7.72,37.53-19.48,45.76-29.11a360.29,360.29,0,0,0,37.93-63.7,1812,1812,0,0,0,95.52-218c4.5-11.28,7.23-19.44,11.1-28,6-13.07,12.47-17.43,24.95-16.64S3541.19,2173.82,3537.66,2186.44Zm-407.19-38.74c3-3.61,5.9-7.53,9-11.2a186,186,0,0,0,16.94-23.93,360.4,360.4,0,0,0,25-53.33c4.24-10.75,21.61-63.54-7.5-56.6-24.18,5.82-36,35.32-42.56,56.45a252.64,252.64,0,0,0-10.47,54.47,153.7,153.7,0,0,0-.54,21.24c.09,1.79.23,4.41.58,7C3121.75,2148.64,3124,2155.45,3130.47,2147.7Z" transform="translate(-222.61 -111.1)"/><path d="M683,3957.61v83.19a223.19,223.19,0,0,1-28.28,109.84q-28.31,51-77.11,81-47.72,30-106.48,30h-35.5q-56.6,0-106-29.4t-78.2-80.44a219.49,219.49,0,0,1-28.84-109.82v-368.3q0-58.8,27.73-107.05t77.66-77.1q47.7-27.74,106.5-27.74H470a224.48,224.48,0,0,1,101.5,21.65q48.25,22.73,78.2,64.89,31.06,44.38,32.17,105.38a18.18,18.18,0,0,1-5.54,13.32q-5.55,5.53-14.42,5.54H567.62a29.34,29.34,0,0,1-17.2-5,18.85,18.85,0,0,1-8.31-13.86q-5.57-39.91-28.3-53.8T451.13,3586h-4.44q-36.6,0-62.67,24.42t-26.06,61v365q0,36.62,26.62,63.79t63.22,27.17h3.33q35.5,0,60.45-27.17t25-63.79v-52.14H478.87c-5.92,0-11.29-2.39-16.09-7.21s-7.22-10.18-7.22-16.09v-82.08a28.47,28.47,0,0,1,27.74-27.74H656.35a24.92,24.92,0,0,1,18.87,8.33,27.61,27.61,0,0,1,7.76,19.41Z" transform="translate(-222.61 -111.1)"/><path d="M1122.29,3899.91l110.93,326.16c.74.75,1.11,3.33,1.11,7.76s-2,8.33-6.1,11.65a22.89,22.89,0,0,1-15,5h-96.52q-11.1,0-21.63-7.77t-13.87-16.63l-89.84-277.34q-14.45-7.77-27.74-7.78-17.74,0-30,13.33V4225a22.61,22.61,0,0,1-8.87,18.32,32.43,32.43,0,0,1-21.07,7.2H815q-13.34,0-22.2-7.2a22.61,22.61,0,0,1-8.87-18.32V3507.21q0-12.2,8.87-21.62a29.21,29.21,0,0,1,22.2-9.44h217.43q76.54,1.13,123.69,44.38t47.14,110.93v135.33q0,40-22.74,75.44a160.89,160.89,0,0,1-59.34,55.46Zm-61-152V3647a58,58,0,0,0-18.32-43.26A60.75,60.75,0,0,0,999.15,3586h-61c-3.71,0-7,1.68-10,5s-4.43,6.84-4.43,10.54v186.37a18.92,18.92,0,0,0,18.86,18.86h56.58q25.5,0,43.81-17.18T1061.28,3747.94Z" transform="translate(-222.61 -111.1)"/><path d="M1650.32,3503.89l145.33,718.84q2.2,12.21-5.55,20.54t-22.18,8.31h-94.29q-25.53,0-28.85-24.4l-33.28-180.84H1468.39l-33.28,180.84q-2.23,13.31-8.87,18.86t-20,5.54H1312q-14.42,0-22.74-8.31t-6.09-20.54l146.43-718.84q2.21-12.21,13.87-20.52a43.82,43.82,0,0,1,26.06-8.33h139.78a46.36,46.36,0,0,1,26.62,8.33Q1648.11,3491.68,1650.32,3503.89ZM1540.5,3916.55h52.14L1545,3638.11c-1.49-3.7-3.34-5.54-5.56-5.54s-4.07,1.84-5.54,5.54l-46.6,278.44h53.25Z" transform="translate(-222.61 -111.1)"/><path d="M2246,3471.71h84.3q10,0,19.41,7.78t9.44,14.41v717.73q0,17.76-8.33,27.74t-20.52,10H2216.08q-12.21,0-23.85-8.31t-16.08-19.43l-179.72-491.43,10,489.22a29.76,29.76,0,0,1-8.32,21.07q-8.31,8.88-21.62,8.88h-82.1a30.63,30.63,0,0,1-21.63-8.88q-9.43-8.86-9.42-21.07V3501.67q0-12.21,9.42-21.09a30.62,30.62,0,0,1,21.63-8.87h132q13.29,0,25.51,8.32c8.14,5.54,13.31,12,15.53,19.41l160.86,481.46-11.1-479.23a29.82,29.82,0,0,1,8.31-21.09A27,27,0,0,1,2246,3471.71Z" transform="translate(-222.61 -111.1)"/><path d="M2913.86,3681.37l1.11,355a222.92,222.92,0,0,1-26.62,106.5q-26.62,49.92-72.12,79.86a185,185,0,0,1-102.05,30H2589.93c-.75.74-2.22,1.11-4.43,1.11H2482.32q-12.21,0-21.07-9.42t-8.87-23.87V3511.65a35.07,35.07,0,0,1,10-25q10-10.53,23.31-10.54h223q56.6,0,103.73,27.19a204.87,204.87,0,0,1,74.88,73.75Q2913.86,3624.81,2913.86,3681.37Zm-139.78,345V3688q0-34.36-24.42-58.79t-58.79-24.4h-93.18a16,16,0,0,0-11.64,5c-3.34,3.34-5,6.84-5,10.54v490.33q0,8.88,8.88,8.88h91q37.71,0,65.45-27.74T2774.08,4026.39Z" transform="translate(-222.61 -111.1)"/><path d="M3514,3472.82h47.69a28.45,28.45,0,0,1,28.85,28.85v718.84a28.42,28.42,0,0,1-28.85,28.85h-79.86q-12.21,0-20-8.31t-7.76-20.54V3760.14l-84.32,270.68q-1.11,5.57-12.2,14.43l-5.55,3.32q-10,4.45-17.75,4.44h-71q-7.77,0-17.75-4.44l-5.55-3.32a39.75,39.75,0,0,1-11.09-14.43l-84.32-270.68v460.37q0,11.1-8.32,20t-19.41,8.88H3037q-11.11,0-20-8.88t-8.88-20V3501.67a27,27,0,0,1,8.88-20.52q8.86-8.31,20-8.33h126.45a41.74,41.74,0,0,1,22.75,6.67q10.52,6.66,11.64,15.52l101,326.14L3399.75,3495q2.2-8.87,12.75-15.52a41.69,41.69,0,0,1,22.75-6.67H3514Z" transform="translate(-222.61 -111.1)"/><path d="M4011,3503.89l145.33,718.84q2.21,12.21-5.55,20.54t-22.18,8.31h-94.29q-25.53,0-28.85-24.4l-33.28-180.84H3829l-33.28,180.84q-2.24,13.31-8.87,18.86t-20,5.54h-94.29q-14.41,0-22.74-8.31t-6.09-20.54l146.43-718.84q2.21-12.21,13.87-20.52a43.82,43.82,0,0,1,26.06-8.33h139.78a46.36,46.36,0,0,1,26.62,8.33Q4008.76,3491.68,4011,3503.89Zm-109.82,412.66h52.14l-47.69-278.44c-1.49-3.7-3.34-5.54-5.56-5.54s-4.07,1.84-5.54,5.54l-46.6,278.44h53.25Z" transform="translate(-222.61 -111.1)"/><path d="M1173.73,5240.83q-65.4,0-92.18-93.79-10.72-37-10.73-93.8,2.13-119.52,30.54-262.09Q1141,4590.69,1141,4520.47q0-14.48-4.29-39.13l-11.26,10.72q-37,35.91-78.25,117.91-25.21,49.86-39.67,89.25t-25.19,95.14q-10.73,55.74-25.19,155.43-12.33,86.31-15,94.34-2.7,11.79-32.7,11.78-52,0-56.27-42.34-2.16-22-4.3-103.44-2.14-67.52-6.15-109.34T825.33,4685l-8,11.8q-16.63,25.74-39.66,93.26a1551.89,1551.89,0,0,0-56.28,216q-23.05,115.24-23.05,134.55,0,11.27-14.48,20.89a87.78,87.78,0,0,1-49.85,15,68.22,68.22,0,0,1-19.29-2.69q-11.79-2.65-18.76-18.48t-12.33-55.22q-5.36-39.39-11.78-113.36-13.41-154.35-13.4-278.17,0-99.68,8.58-179,5.34-52.53,11.25-63.78,9.11-17.13,38-17.15,33.75,0,51.45,18.23l8.59,10.17q-2.16,183.85-2.16,212.8,0,93.26,2.69,144.7l9.11-29.48q26.79-87.89,50.38-129.16,27.85-48.22,68.08-52.53a142.61,142.61,0,0,1,25.18,2.13q59.49,9.67,76.65,58.44,8,20.36,10.19,20.36c.7,0,1.06-1.25,1.06-3.76q0-5.88,14.47-41.26t33.24-73.43q28.39-58.95,60.55-101t57.9-53.86a87,87,0,0,1,32.17-5.9q45.56,0,80.92,29.2t36.44,68.61q1.08,39.39,1.08,44.75,0,74.52-27.86,220.83-32.16,169.38-34.3,271.74,0,83.63,23,124.89,3.75,7,13.41,7,6.4,0,15.54-3.21h2.69q9.1,0,9.11,13.39a69.12,69.12,0,0,1-1.08,11.25q-3.22,13.92-31.62,23.05A96.36,96.36,0,0,1,1173.73,5240.83Z" transform="translate(-222.61 -111.1)"/><path d="M1544.51,5234.93a84.52,84.52,0,0,1-40.21-9.64q-12.33-6.44-12.33-12.86,0-9.14,11.26-60l2.13-10.17-34.3-9.12q-104.52-25.73-158.64-80.4Q1277,5018.93,1277,4982q4.83-71.28,57.89-98.62,21.94-10.71,54.66-10.72,77.73,0,132.92,52.52l18.76,18.23q26.26-151.14,26.27-253.51,0-49.31-7-80.94-10.72-50.91-28.4-72.37l-8.59-10.17-18.76,9.64q-69.69,38.61-120.06,150.62-27.88,64.84-32.16,101.83-1.62,16.62-6.16,20.1t-16.88,3.48a97.05,97.05,0,0,1-18.76-2.13q-17.7-4.29-27.34-11.8-12.32-9.64-12.33-31.62,0-26.27,18.76-83.09,53-151.14,139.9-198.84,13.38-7,23.58-9.12,14.46-3.19,41.28-3.21,18.75,0,40.73,7.51,63.22,20.9,94.87,72.35,24.12,35.39,31.88,72.64t7.78,88.7a1077.23,1077.23,0,0,1-8,133.45q-7,53.07-26.79,157.58-16.63,92.74-16.63,98.63c0,.36.09.53.26.53s2,.63,5.63,1.88,7.86,2.58,12.87,4q32.68,10.72,32.7,25.19,0,15.54-40.2,18.76l-24.11,1.6q-12.34,49.31-17.16,60-8.06,17.13-30.55,18.77Zm-42.36-143.64c2.14-1.06,3.21-3.91,3.21-8.57a57.85,57.85,0,0,0-1.06-9.66,311.53,311.53,0,0,0-20.11-78q-14.75-36.18-34-56-14-13.92-19.29-13.93-15,0-31.63,16.62-20.91,21.45-20.9,54.67,0,54.15,94.87,87.36,20.88,7.52,27.33,7.51Z" transform="translate(-222.61 -111.1)"/><path d="M1780.78,5202.78q-14.47,0-22.51-7Q1724,5155.07,1724,4824.9q0-156,5.35-242.26,3.24-61.1,12.33-135.07,3.75-34.29,9.67-47.16,8-18.75,38-18.76a108.76,108.76,0,0,1,25.19,3.21q25.18,5.91,33.77,18.76,4.83,8.6,5.36,43.42,0,35.4-5.36,112-10.2,155.44-10.19,217.07c0,9.31.36,13.94,1.08,13.94q2.13,0,29.48-32.7,25.18-30,33.23-43.41,9.64-17.69,18.76-46.64,17.7-55.72,17.69-86.83a59.27,59.27,0,0,0-.54-8.82,38.47,38.47,0,0,1-.53-5.65q0-11.78,25.72-11.78a81.91,81.91,0,0,1,31.08,5.88q19.29,8.05,20.37,20.37L2015,4595q0,75.06-36.46,137.22-11.26,18.77-33.5,46.35t-39.38,44.23q-11.81,11.79-11.8,13.93c0,1.08,4.27,2.52,12.86,4.29q27.35,5.37,75.58,35.92,25.71,17.68,44.48,23.58t48,6.15q29.2.28,41,1.34,26.27,2.69,30.56,15.54a56.68,56.68,0,0,1,3.22,17.7V4945q-1.62,18.24-46.64,18.23-56.8,0-131.86-47.16-22-13.92-34.83-19.31a114.79,114.79,0,0,0-39.13-7,178.75,178.75,0,0,0-28.95,2.69q-20.9,3.75-28.93,9.64-4.31,5.91-4.29,66.46t3.21,103.45q2.67,23.59,7.51,101.83l-10.72,9.65Q1812.39,5202.77,1780.78,5202.78Z" transform="translate(-222.61 -111.1)"/><path d="M2224,5211.35q-23.05,0-36.45-5.35-46.09-19.86-71.83-162.95a921.67,921.67,0,0,1-14.46-160.26q0-122.21,34.83-235.3,28.42-86.3,71.82-122.2,25.72-21.45,55.75-21.44,84.68,0,122.21,85.22,49.3,108.81,49.3,188.14,0,101.32-92.18,145.78-21.45,10.22-56,20.64t-57.61,14.74c-6.09.72-9.84,1.78-11.26,3.22s-2.13,4.65-2.13,9.64q0,13.41,12.31,80.94,10.18,56.81,12.87,56.8,4.26,0,22.51-85.76l14.47-6.95a70.5,70.5,0,0,1,30-7q35.35,0,35.37,19.83,0,10.73-5.89,48.24-9.12,57.9-23.05,85.76-22.51,46.1-70.76,47.71Zm-11.25-298.53q35.36-10.72,50.38-16.63,46.63-17.13,70.74-60.56,10.72-23,10.72-61.1,0-81.46-41.81-171.52-11.25-24.11-14.46-24.13-5.91,0-21.45,30-29.49,56.82-44.47,150.6-9.65,62.71-9.65,115.24Z" transform="translate(-222.61 -111.1)"/><path d="M2690.22,5257.45a241.15,241.15,0,0,1-38.59-3.21q-85.78-15-112-69.15-8.6-15.56-8.58-40.21v-15q0-52.55,55.74-123.83,32.68-42.31,80.94-82.54-157.06-150.06-179.55-180.08-44.51-57.36-44.5-116.32,0-35.91,12.33-61.63,10.73-22.52,34.83-46.63,54.12-53.58,122.75-53.59a197.28,197.28,0,0,1,48.77,6.43q48.22,11.79,76.11,38.05,45,39.67,51.46,102.91c.71,6.42,1.07,11.08,1.07,13.93q0,6.43-8,7.78t-16.08,3.47c-6.78,0-15.9-2.3-27.32-7q-21.45-7.48-28.95-27.34-16.62-47.15-36.44-67Q2658.6,4521,2651.1,4521q-16.62,0-44,22.52t-40.18,48a114.47,114.47,0,0,0-12.86,52.25q0,56.82,57.88,119,26.27,28.41,115.24,118.45l33.77-18.76q29.45-16.59,85.21-41.26,110.94-48.22,138.29-48.24,23.58.54,25.72,31.09a15.3,15.3,0,0,1-2.67,9.11q0,3.75-6.7,9.65T2962,4842.05q-88.44,33.79-151.15,74l-28.93,19.82q0,2.16,17.15,25.21,69.66,95.93,69.68,164a112.75,112.75,0,0,1-9.11,45.56q-24.67,46.1-75.31,66.47T2690.22,5257.45Zm-38-52q8,0,24.11-4.82,63.78-16.62,84.16-62.18,4.28-10.15,4.29-25.72,0-24.1-6.43-43.41-17.16-51.46-41.28-79.86l-20.37,22q-59,66.46-70.74,128.63c-.36,3.59-.53,7.34-.53,11.27a113.56,113.56,0,0,0,2.14,21.43Q2635.55,5205.43,2652.17,5205.45Z" transform="translate(-222.61 -111.1)"/><path d="M3308.06,4591.21q-17.16,0-25.18-1.06-37.53-10.72-37.52-36.46c0-4.27,2.49-9.64,7.5-16.07a22.44,22.44,0,0,1,15-8,134.9,134.9,0,0,1,13.94-.54q20.37,0,41.81,9.11,30,13.41,30,28.42,0,8.06-8.57,16.07a26,26,0,0,1-11.25,6.71Q3327.37,4591.23,3308.06,4591.21Zm3.77,566q-44.51,0-52.54-30-13.41-56.79-13.4-229.4,0-82.54,7.5-190.8,3.75-54.12,10.2-58.43,14.46-9.1,34.83-9.12,30,0,45,13.41,5.34,3.74,6.69,12.6T3352,4722l-1.06,239.6q0,86.28,1.61,121.13,2.13,26.26,2.14,40.19,0,22.52-11.53,28.42T3311.83,5157.21Z" transform="translate(-222.61 -111.1)"/><path d="M3599.09,5253.69q-48.24,0-83.62-36.44-32.16-31.62-47.69-93.26-23.59-100.76-24.13-302.3,0-173.11,16.62-270.13-46.64,7-57.88,7-31.09,0-31.09-21.43,0-11.81,10.17-19.31,8.57-5.89,45.83-12.33t40.19-10.7q2.94-4.29,5.64-30.56,4.83-40.72,43.42-40.73a100.34,100.34,0,0,1,17.15,1.61q20.37,2.66,27.86,10.44t9.66,28.15l2.68,21.43q73.41-8,82.55-8,32.13,0,32.14,16.62,0,27.34-71.29,35.37l-47.16,5.89Q3553,4678.06,3553,4893q0,84.69,8.58,146.33Q3575,5157.23,3612,5190.46a24.6,24.6,0,0,0,12.33,3.74q7.48,0,13.94-5.9,31.08-36.42,98.08-211.72,13.39-39.12,22-57.33t18.25-23.06c3.21-1.41,8.38-2.13,15.52-2.13q28.93,8.05,28.95,25.72,0,8.58-30,100.22-68.61,197.79-128.64,219.76-6.43,2.65-20.37,5.89Q3607.13,5253.69,3599.09,5253.69Z" transform="translate(-222.61 -111.1)"/><path d="M1513,1047.68h70.29a19.78,19.78,0,0,1,13,4.43,13.53,13.53,0,0,1,5.38,10.77v42.42a13.48,13.48,0,0,1-5.38,10.76,19.73,19.73,0,0,1-13,4.44h-53.82v354a17,17,0,0,1-4.75,12,15.44,15.44,0,0,1-11.72,5.07H1466.1a15.72,15.72,0,0,1-11.4-5.07,16.4,16.4,0,0,1-5.07-12v-354h-51.29q-8.23,0-13.29-4.12a13.49,13.49,0,0,1-5.07-11.08v-42.42a13.52,13.52,0,0,1,5.07-11.09q5.06-4.11,13.29-4.11H1513Z" transform="translate(-222.61 -111.1)"/><path d="M1824.49,1065.41l83,410.32c.84,4.65-.22,8.54-3.17,11.71s-7.18,4.75-12.66,4.75h-53.82q-14.58,0-16.47-13.93l-19-103.21h-81.69l-19,103.21c-.85,5.06-2.54,8.66-5.07,10.76s-6.33,3.17-11.4,3.17h-53.82q-8.23,0-13-4.75a12.43,12.43,0,0,1-3.48-11.71l83.58-410.32q1.26-7,7.92-11.72a25,25,0,0,1,14.88-4.75h79.78a26.51,26.51,0,0,1,15.2,4.75Q1823.22,1058.44,1824.49,1065.41ZM1761.8,1301h29.76L1764.33,1142c-.85-2.11-1.89-3.17-3.16-3.17s-2.33,1.06-3.17,3.17L1731.41,1301h30.39Z" transform="translate(-222.61 -111.1)"/><path d="M2191.11,1350.35a256.06,256.06,0,0,1-4.75,50.34,123.48,123.48,0,0,1-19.31,45.28,116.08,116.08,0,0,1-41.47,38.3,110.23,110.23,0,0,1-53.51,13.62h-19.63a109.13,109.13,0,0,1-44.32-9.18,116.5,116.5,0,0,1-37.36-26.28,127.87,127.87,0,0,1-33.56-86.12v-.63a21.3,21.3,0,0,1,6-15.2,19,19,0,0,1,14.25-6.33h45a3.59,3.59,0,0,0,2.53.63h1.27a23.89,23.89,0,0,1,9.49,7.6,17.63,17.63,0,0,1,3.8,10.77v6.33a43.5,43.5,0,0,0,8.55,26.28,40.14,40.14,0,0,0,22.48,15.51,45.89,45.89,0,0,0,13.3,1.9h1.9q5.06,0,5.7-.63h.63q17.71-1.26,29.44-13.62a41.29,41.29,0,0,0,11.72-29.44l1.26-31.66q-.63-32.29-26.59-45-15.2-8.22-46.86-9.5l-12-1.26q-52.56-3.81-69.34-37t-16.77-80.73l.63-22.16.63-8.87q-1.28-42.4,28.5-70.28,31-31,81.68-29.76H2074a108.21,108.21,0,0,1,42.42,8.54,112.77,112.77,0,0,1,36.1,24.38,106.33,106.33,0,0,1,24.06,37,122.45,122.45,0,0,1,8.23,44.64v.63a18.46,18.46,0,0,1-5.38,13.61,17.7,17.7,0,0,1-13,5.39h-43.69a17.73,17.73,0,0,1-11.72-5.7,17,17,0,0,1-4.75-12v-4.44a38.61,38.61,0,0,0-8.55-24.69,45.63,45.63,0,0,0-22.47-15.2,40.12,40.12,0,0,0-12.67-1.9h-5.06c-.43.43-1.49.64-3.17.64q-17.73,1.89-28.49,13.29t-10.77,27.86v36.73q1.9,18.38,16.46,25.64t48.13,8.55q55.71,0,83.58,32.3l27.86,32.29Z" transform="translate(-222.61 -111.1)"/><path d="M2358.27,1047.68h70.29a19.8,19.8,0,0,1,13,4.43,13.53,13.53,0,0,1,5.38,10.77v42.42a13.48,13.48,0,0,1-5.38,10.76,19.75,19.75,0,0,1-13,4.44h-53.83v354a17,17,0,0,1-4.74,12,15.44,15.44,0,0,1-11.72,5.07h-46.86a15.72,15.72,0,0,1-11.39-5.07,16.37,16.37,0,0,1-5.07-12v-354h-51.29q-8.23,0-13.3-4.12a13.51,13.51,0,0,1-5.06-11.08v-42.42a13.54,13.54,0,0,1,5.06-11.09q5.07-4.11,13.3-4.11h114.61Z" transform="translate(-222.61 -111.1)"/><path d="M2689.43,1124.93h-127.9v96.88h96.88a15.18,15.18,0,0,1,15.83,15.83V1282a15.18,15.18,0,0,1-15.83,15.83h-96.88V1413h127.9a17,17,0,0,1,12,4.75,15.43,15.43,0,0,1,5.06,11.71v43.69a17.3,17.3,0,0,1-17.1,17.1H2502.64a16.11,16.11,0,0,1-12.35-5.07,17,17,0,0,1-4.75-12v-409a15.93,15.93,0,0,1,4.75-11.71,16.69,16.69,0,0,1,12.35-4.75h186.79a17,17,0,0,1,12,4.75,15.43,15.43,0,0,1,5.06,11.71v43.69a17.3,17.3,0,0,1-17.1,17.1Z" transform="translate(-222.61 -111.1)"/><path d="M3004.77,1350.35a256.83,256.83,0,0,1-4.75,50.34A123.67,123.67,0,0,1,2980.7,1446a116.08,116.08,0,0,1-41.47,38.3,110.2,110.2,0,0,1-53.51,13.62h-19.63a109.13,109.13,0,0,1-44.32-9.18,116.61,116.61,0,0,1-37.36-26.28,127.87,127.87,0,0,1-33.56-86.12v-.63a21.3,21.3,0,0,1,6-15.2,19,19,0,0,1,14.25-6.33h45a3.61,3.61,0,0,0,2.53.63h1.27a24,24,0,0,1,9.5,7.6,17.7,17.7,0,0,1,3.8,10.77v6.33a43.55,43.55,0,0,0,8.54,26.28,40.14,40.14,0,0,0,22.48,15.51,45.89,45.89,0,0,0,13.3,1.9h1.9q5.06,0,5.7-.63h.63q17.73-1.26,29.45-13.62a41.32,41.32,0,0,0,11.71-29.44l1.27-31.66q-.65-32.29-26.6-45-15.2-8.22-46.85-9.5l-12-1.26q-52.56-3.81-69.33-37t-16.78-80.73l.63-22.16.63-8.87q-1.28-42.4,28.5-70.28,31-31,81.68-29.76h19.63a108.29,108.29,0,0,1,42.43,8.54,112.84,112.84,0,0,1,36.09,24.38,106.19,106.19,0,0,1,24.06,37,122.45,122.45,0,0,1,8.23,44.64v.63a18.46,18.46,0,0,1-5.38,13.61,17.68,17.68,0,0,1-13,5.39h-43.69a17.73,17.73,0,0,1-11.72-5.7,17,17,0,0,1-4.74-12v-4.44a38.61,38.61,0,0,0-8.55-24.69,45.71,45.71,0,0,0-22.48-15.2,40.12,40.12,0,0,0-12.67-1.9h-5.06c-.43.43-1.49.64-3.17.64q-17.73,1.89-28.49,13.29t-10.77,27.86v36.73q1.91,18.38,16.47,25.64t48.12,8.55q55.71,0,83.58,32.3t27.87,32.29Z" transform="translate(-222.61 -111.1)"/></svg>


