<svg height="500" width="500" xmlns="http://www.w3.org/2000/svg" viewBox="0 0 3922.65 4860.73"><rect x="522.93" y="4618.28" width="810.8" height="63.59"/><path style="fill-rule:evenodd;" d="M333.26,4945.79V4770.91c0-67.77,55.44-123.21,123.21-123.21H825.11a40.85,40.85,0,0,1,40.73,40.74v336.84A43.84,43.84,0,0,1,822.13,5069H456.47c-67.77,0-123.21-55.45-123.21-123.21Zm67.58-157a17,17,0,0,0,16.89,16.89H799.28a17,17,0,0,0,16.9-16.89h0a16.94,16.94,0,0,0-16.9-16.9H417.73a17,17,0,0,0-16.89,16.9Zm0,135.19a17,17,0,0,0,16.89,16.9H799.28a17,17,0,0,0,16.9-16.9h0a17,17,0,0,0-16.9-16.9H417.73a17,17,0,0,0-16.89,16.9Zm0-67.6a17,17,0,0,0,16.89,16.9H799.28a16.94,16.94,0,0,0,16.9-16.9h0a16.94,16.94,0,0,0-16.9-16.89H417.73a17,17,0,0,0-16.89,16.89Zm0-135.19a17,17,0,0,0,16.89,16.89H799.28a16.94,16.94,0,0,0,16.9-16.89h0a16.94,16.94,0,0,0-16.9-16.9H417.73a17,17,0,0,0-16.89,16.9Zm0,270.39a17,17,0,0,0,16.89,16.89H799.28a16.94,16.94,0,0,0,16.9-16.89h0a16.94,16.94,0,0,0-16.9-16.9H417.73a17,17,0,0,0-16.89,16.9Z" transform="translate(-307.14 -208.27)"/><path style="fill-rule:evenodd;" d="M1266.51,4858.35h0a61.78,61.78,0,0,1,61.6-61.6h645.32a61.78,61.78,0,0,1,61.6,61.6h0a61.79,61.79,0,0,1-61.6,61.61H1328.11a61.79,61.79,0,0,1-61.6-61.61Zm649.37,0a25.84,25.84,0,1,0,25.84-25.83A25.85,25.85,0,0,0,1915.88,4858.34Z" transform="translate(-307.14 -208.27)"/><rect x="2588.92" y="4618.28" width="810.8" height="63.59"/><path style="fill-rule:evenodd;" d="M4203.67,4945.79c0,67.76-55.44,123.21-123.21,123.21H3714.8a43.85,43.85,0,0,1-43.71-43.72V4688.44a40.85,40.85,0,0,1,40.73-40.74h368.64c67.77,0,123.21,55.44,123.21,123.21v174.88Zm-67.58-157h0a16.94,16.94,0,0,0-16.89-16.9H3737.65a17,17,0,0,0-16.9,16.9h0a17,17,0,0,0,16.9,16.89H4119.2a17,17,0,0,0,16.89-16.89Zm0,135.19h0a17,17,0,0,0-16.89-16.9H3737.65a17,17,0,0,0-16.9,16.9h0a17,17,0,0,0,16.9,16.9H4119.2a17,17,0,0,0,16.89-16.9Zm0-67.6h0a16.94,16.94,0,0,0-16.89-16.89H3737.65a17,17,0,0,0-16.9,16.89h0a17,17,0,0,0,16.9,16.9H4119.2a16.94,16.94,0,0,0,16.89-16.9Zm0-135.19h0a16.94,16.94,0,0,0-16.89-16.9H3737.65a17,17,0,0,0-16.9,16.9h0a17,17,0,0,0,16.9,16.89H4119.2a16.94,16.94,0,0,0,16.89-16.89Zm0,270.39a16.94,16.94,0,0,0-16.89-16.9H3737.65a17,17,0,0,0-16.9,16.9h0a17,17,0,0,0,16.9,16.89H4119.2a16.94,16.94,0,0,0,16.89-16.89Z" transform="translate(-307.14 -208.27)"/><path style="fill-rule:evenodd;" d="M3270.43,4858.35a61.79,61.79,0,0,1-61.61,61.61H2563.5a61.78,61.78,0,0,1-61.59-61.61h0a61.77,61.77,0,0,1,61.59-61.6h645.32a61.78,61.78,0,0,1,61.61,61.6Zm-675.22-25.84a25.84,25.84,0,1,0,25.84,25.83A25.82,25.82,0,0,0,2595.21,4832.51Z" transform="translate(-307.14 -208.27)"/><path d="M2185.44,4823.72c22.11,56.33,58.46,103.42,96.95,149.16,6.24,7.41,13.19,12.06,22.9,9.7s14.91-9.62,15.72-19.19c4-47.26,22.89-90.64,34.6-135.88,5.5-21.21,10.88-43,1.69-65.14-6.24-15-16-25.86-32.17-28.41-16.63-2.62-28.65,6.35-38.46,18.87-8.39,10.7-11,24-17.2,37.9-14.91-11-24.28-25.7-39-34.35-12.91-7.59-26.19-11.56-39.87-2.44-14.23,9.5-18.09,23.77-14.92,39.62C2177.76,4803.85,2181.58,4813.89,2185.44,4823.72Z" transform="translate(-307.14 -208.27)"/><path d="M951.82,707.91a55.91,55.91,0,0,1-11-1q-13-3-15-18A740.86,740.86,0,0,1,916.47,599q-2-45.85-2-96.89,0-176.44,8-199.13,3-12.66,29-12.67,13.68,0,22.68,5a26.91,26.91,0,0,1,7.67,5q5,5.67,6,38.35.66,15.35,1.33,147.09l1,199.79q0,11.34-13.34,18.35Q967.84,707.92,951.82,707.91Z" transform="translate(-307.14 -208.27)"/><path d="M1125.6,757.61a59.1,59.1,0,0,1-18.68-2.67q-23-6.68-40.36-43-22-44.35-31-112.4l-2.67-18.68-11.67-1q-16.34-1.32-19-14,0-7,15.68-13l13.67-3.66q0-54,12-116.74a884.18,884.18,0,0,1,29-114.41q27.67-83.37,44-90.38a20.56,20.56,0,0,1,9.34-2q16,0,31,9.68,9.33,6.33,9.34,13,0,3.35-17.34,54.7-28.37,82.72-38.69,146.76-9,57-9,72.38c0,1.78.22,2.67.67,2.67q2.32,0,104.39-33,48.36-16.33,63.71-16.35,10.34,1.68,10.34,15.35a10.83,10.83,0,0,1-4.67,9.34q-8.67,4.33-47.7,17.34-58.37,20.35-120.74,42.69l-7,2.34,18,9q59.7,31,80.72,71a69.45,69.45,0,0,1,8.34,33l-.67,12.34q-2,24.68-21.52,45.53t-43.86,23.18Q1130.28,757.6,1125.6,757.61Zm15.34-40.69q1,0,5.34-9t4.33-28.68q0-28.35-28.35-55-14.67-14.67-16.67-14.67v1q0,7.66,7.33,37.69,8,32.68,18.68,55Q1138.28,716.92,1140.94,716.92Z" transform="translate(-307.14 -208.27)"/><path d="M1486.82,707.91a56.09,56.09,0,0,1-11-1q-13-3-15-18a742.87,742.87,0,0,1-9.33-89.89q-2-45.85-2-96.89,0-176.44,8-199.13,3-12.66,29-12.67,13.66,0,22.68,5a27.06,27.06,0,0,1,7.67,5q5,5.67,6,38.35.67,15.35,1.34,147.09l1,199.79q0,11.34-13.34,18.35Q1502.82,707.92,1486.82,707.91Z" transform="translate(-307.14 -208.27)"/><path d="M1819.69,730.26a71.31,71.31,0,0,1-14-1.34q-17-4.33-22.68-12.67-5.34-10-9.17-63.54T1769,549.31q-1-49.86-1-77.88,0-39,1.34-75Q1775.33,242,1786,237q5-3.66,15-3.66a61.58,61.58,0,0,1,19.85,3.33q9.84,3.34,14.84,9L1841,252q-1.68,195.12-1.67,221.81,0,75.38.33,86.05l1.67,15.34q73.71-11.32,125.41-11.34,8.34-266.49,12-279.84,3.66-7.67,23.35-7.67,21,0,30.68,10.68,7.68,9.33,7.67,80,0,56.72-3.66,118.08-2,42-4,109.4-2.34,76.38-4.67,97.72-2,15.67-4.33,19.35-4.68,8-21.68,8-21,0-33-9.67l-5-4.67,2-110.73q-32.7,0-82.39,8-26.68,4.34-43.36,6.67l5.34,113.41q-10.35,6.66-16.85,7.17T1819.69,730.26Z" transform="translate(-307.14 -208.27)"/><path d="M2233.61,730.26a52.48,52.48,0,0,1-25-6q-7.68-4-7.67-8,0-5.68,7-37.36l1.33-6.34-21.34-5.67q-65-16-98.73-50-22-21-22-44,3-44.36,36-61.37,13.66-6.68,34-6.67,48.36,0,82.72,32.68l11.67,11.34q16.33-94,16.35-157.76,0-30.69-4.34-50.37-6.67-31.68-17.68-45l-5.34-6.34-11.67,6q-43.36,24-74.71,93.73-17.35,40.35-20,63.37-1,10.33-3.84,12.51t-10.51,2.17a60.58,60.58,0,0,1-11.67-1.34q-11-2.67-17-7.34-7.66-6-7.67-19.68,0-16.33,11.67-51.69,33-94.07,87.06-123.75a59.48,59.48,0,0,1,14.67-5.67q9-2,25.68-2a79,79,0,0,1,25.35,4.67q39.36,13,59,45,15,22,19.84,45.19t4.84,55.2a670.59,670.59,0,0,1-5,83.06q-4.34,33-16.68,98.06-10.33,57.7-10.34,61.37c0,.22.05.33.17.33s1.27.39,3.5,1.17,4.89,1.61,8,2.5q20.34,6.67,20.34,15.68,0,9.68-25,11.67l-15,1Q2264,711.25,2261,717.92q-5,10.67-19,11.67Zm-26.35-89.39c1.34-.67,2-2.45,2-5.34a35.4,35.4,0,0,0-.66-6A193.59,193.59,0,0,0,2196.09,581q-9.18-22.51-21.18-34.86-8.67-8.67-12-8.67-9.33,0-19.68,10.34-13,13.35-13,34,0,33.69,59,54.37,13,4.68,17,4.67Z" transform="translate(-307.14 -208.27)"/><path d="M2461.09,704.57q-21.36,0-35.36-15.34-43.36-46.69-81.72-291.84-12-76.38-12-94.73,0-24.35,31.35-24.35,20.67,0,27.35,10.68,8,19.68,29.68,148.75,28.7,170.12,46.7,210.47,8,18,9.67,18,2.67,0,18.68-29,29-54,53.37-156.43,0-3.66-13.35-10.34-40.35-20.67-67-66-16.34-35.68-16.34-68.38,0-73.36,71.71-73.37,27.69,0,49.36,15.67,39.69,29.35,39.7,92.39,0,34.37-2.67,55.7l-4.34,29.36,9.34.33q21.34,0,49-6a53.12,53.12,0,0,1,18.68-3q14,0,14,11l-.34,2.33q0,8-19.67,16a259.68,259.68,0,0,1-58.71,10.68l-19.68,1.33q-34.68,147.77-79.38,192.45Q2495.11,704.58,2461.09,704.57Zm94.39-265.83q2,0,4.33-17.67,2.34-23.68,2.34-50.7,0-16.33-1.67-24.68a107.15,107.15,0,0,0-13.51-33q-9.49-15.35-19.84-21.35-4-2-5.67-2c-1.12,0-2.56.78-4.34,2.33q-11,10.35-11,43a134.66,134.66,0,0,0,3.67,32.69q6,25,24,53.36Q2551.8,438.75,2555.48,438.74Z" transform="translate(-307.14 -208.27)"/><path d="M2739.59,715.58q-14.34,0-22.68-3.33-28.69-12.35-44.69-101.4a572.69,572.69,0,0,1-9-99.73,494.28,494.28,0,0,1,21.68-146.42q17.67-53.7,44.7-76.05,16-13.33,34.68-13.34,52.7,0,76.05,53Q2871,396.07,2871,445.42q0,63-57.36,90.72-13.35,6.33-34.86,12.84a351.82,351.82,0,0,1-35.85,9.17c-3.79.45-6.12,1.12-7,2s-1.33,2.89-1.33,6q0,8.34,7.67,50.36,6.33,35.36,8,35.36,2.67,0,14-53.37l9-4.34a44.15,44.15,0,0,1,18.68-4.33q22,0,22,12.34,0,6.68-3.67,30-5.67,36-14.34,53.36-14,28.68-44,29.69Zm-7-185.78q22-6.67,31.35-10.34a80.73,80.73,0,0,0,44-37.69q6.66-14.34,6.67-38,0-50.7-26-106.73-7-15-9-15-3.67,0-13.35,18.67-18.34,35.37-27.68,93.73-6,39-6,71.71Z" transform="translate(-307.14 -208.27)"/><path d="M3200.87,728.59a38.33,38.33,0,0,1-15.34-3.5q-8-3.51-9.34-7.51-2-9-3.33-185.44,0-143.43,6.33-230.48l1.34-27h-.67q-2.67,0-21.68,4.34-14.68,3.34-20,5-7,2.34-10.67,2.34a12.94,12.94,0,0,1-6.68-2q-10.34-5.34-19-20c-2.89-4.67-4.33-8.55-4.33-11.67a7.61,7.61,0,0,1,3-6.34q5-4,50.36-14,43.36-10,88.72-16.67,47.7-7.34,65-7.34t27.69,18Q3338,236,3338,242a7.56,7.56,0,0,1-3.5,6.67q-3.51,2.34-16.85,3-45.36,5.67-76.38,10.34,0,128.07-1,216.47-2.67,224.8-4,235.14Q3232.23,728.6,3200.87,728.59Z" transform="translate(-307.14 -208.27)"/><path d="M3421,640.2a110,110,0,0,1-28.35-4q-83.05-20.34-83-127.41,0-51.36,24.68-100.73,5.67-11.34,18.34-30.69l-14.34-19q-14-18.33-14-26.35,0-8.67,20.68-8.67,17,0,28,6t23.35,21q8.33,10,13.67,14.34a49.84,49.84,0,0,0,12.68,7.34q33.34,13,76.38,13,34-.32,73.71-17,14-9.33,28.35-9.33a26.5,26.5,0,0,1,12.68,3.66q8.65,6,8.67,14.68a40.28,40.28,0,0,1-2.34,13.34q-3.33,6-18,13.68-20.34,10.68-49,14.67-9.35,1.68-38.36,2-40-1.67-52.36-5l-13.68-2.33q0,.66,15,19.67,42.69,54,45.36,92.06.68,14,.67,20,0,53-40.36,79.72A80.8,80.8,0,0,1,3421,640.2Zm-14.68-35.35q4.66,0,13-5.34,23.68-16,28.35-53.37c.22-3.11.34-6.33.34-9.67q0-33.35-25.69-72.38-20.34-30.68-26-33.35-3,0-10.68,26.35-8.34,28.35-8.33,62.37,0,23,2.66,37.69,5.34,24,17,41,4,6.68,6.34,6.67Z" transform="translate(-307.14 -208.27)"/><path d="M976.22,1731.45q0,70.11-12.53,132.66T912.83,1983.4q-43.4,65.1-109.31,101a290.49,290.49,0,0,1-141,35.87H610.81A287.12,287.12,0,0,1,494,2096.05q-55.06-24.2-98.46-69.27-41.71-45-65.06-104.27a331.3,331.3,0,0,1-23.36-122.63v-1.68a56.13,56.13,0,0,1,15.85-40q15.86-16.68,37.54-16.69H479c1.12,1.11,3.35,1.65,6.69,1.65H489a63,63,0,0,1,25,20q10,13.36,10,28.35v16.69a114.58,114.58,0,0,0,22.51,69.25q22.54,30.9,59.25,40.88a120.62,120.62,0,0,0,35,5h5c8.89,0,13.91-.56,15-1.68h1.67q46.71-3.3,77.59-35.86T771,1808.21l3.32-83.43q-1.67-85.08-70.07-118.46-40.07-21.67-123.46-25l-31.72-3.35q-138.48-10-182.7-97.6t-44.2-212.73l1.67-58.4,1.65-23.36q-3.35-111.8,75.09-185.22,81.75-81.75,215.25-78.41h51.71a284.72,284.72,0,0,1,111.78,22.53A296.47,296.47,0,0,1,874.45,1009a279.82,279.82,0,0,1,63.39,97.6,322.34,322.34,0,0,1,21.71,117.62v1.67q0,21.7-14.2,35.89A46.62,46.62,0,0,1,911.16,1276H796a46.7,46.7,0,0,1-30.89-15,44.73,44.73,0,0,1-12.5-31.69v-11.68q0-36.71-22.54-65.06t-59.22-40.06a105.15,105.15,0,0,0-33.37-5H624.16c-1.11,1.11-3.9,1.67-8.33,1.67q-46.74,5-75.1,35.06t-28.35,73.4v96.78q5,48.4,43.38,67.58t126.8,22.51q146.84,0,220.24,85.1t73.42,85.1Z" transform="translate(-307.14 -208.27)"/><path d="M1416.7,933.9h185.2q20,0,34.22,11.68T1650.29,974v111.78q0,16.73-14.17,28.37t-34.22,11.68H1460.08V2058.5a44.77,44.77,0,0,1-12.53,31.69,40.54,40.54,0,0,1-30.85,13.35H1293.22q-16.68,0-30-13.35t-13.35-31.69V1125.78H1114.68q-21.69,0-35-10.83t-13.33-29.22V974q0-18.36,13.33-29.2t35-10.85h302Z" transform="translate(-307.14 -208.27)"/><path d="M1971.47,2093.54q-12.51,13.36-29.18,13.35H1818.81a40.58,40.58,0,0,1-30.87-13.35,44.78,44.78,0,0,1-12.51-31.7V982.29a44.76,44.76,0,0,1,12.51-31.7,40.65,40.65,0,0,1,30.87-13.35h123.48q16.65,0,29.18,13.35a44.81,44.81,0,0,1,12.52,31.7V2061.84A44.83,44.83,0,0,1,1971.47,2093.54Z" transform="translate(-307.14 -208.27)"/><path d="M2688.11,1576.29,2855,2066.83q1.66,1.68,1.67,11.68c0,6.69-3.08,12.53-9.18,17.52s-13.62,7.51-22.52,7.51H2679.76q-16.7,0-32.55-11.68t-20.84-25l-135.16-417.14q-21.69-11.67-41.7-11.68-26.72,0-45.05,20v407.11q0,16.73-13.35,27.55t-31.72,10.83H2225.92q-20.05,0-33.38-10.83t-13.33-27.55V985.63q0-18.36,13.33-32.54t33.38-14.18h327q115.11,1.68,186,66.74t70.92,166.85v203.57q0,60-34.21,113.45a242.34,242.34,0,0,1-89.25,83.43Zm-91.78-228.59V1195.86q0-38.38-27.53-65.06t-65.91-26.7h-91.76c-5.58,0-10.57,2.52-15,7.51s-6.66,10.27-6.66,15.85v280.3a28.46,28.46,0,0,0,28.35,28.36h85.1q38.39,0,65.91-25.86T2596.33,1347.7Z" transform="translate(-307.14 -208.27)"/><path d="M3508.15,2093.54q-12.49,13.36-29.17,13.35H3355.49a40.61,40.61,0,0,1-30.87-13.35,44.81,44.81,0,0,1-12.5-31.7V982.29a44.79,44.79,0,0,1,12.5-31.7,40.68,40.68,0,0,1,30.87-13.35H3479q16.65,0,29.17,13.35a44.78,44.78,0,0,1,12.53,31.7V2061.84A44.79,44.79,0,0,1,3508.15,2093.54Z" transform="translate(-307.14 -208.27)"/><path d="M3996.2,933.9h185.2q20,0,34.22,11.68T4229.79,974v111.78q0,16.73-14.17,28.37t-34.22,11.68H4039.58V2058.5a44.77,44.77,0,0,1-12.53,31.69,40.54,40.54,0,0,1-30.85,13.35H3872.72q-16.68,0-30-13.35t-13.36-31.69V1125.78H3694.18q-21.69,0-35-10.83t-13.32-29.22V974q0-18.36,13.32-29.2t35-10.85h302Z" transform="translate(-307.14 -208.27)"/><path d="M643.15,3772.29h70.33a27.05,27.05,0,0,1,19,7.81q8.28,7.83,8.3,17.58v631q0,10.76-8.3,18.55a27,27,0,0,1-19,7.82H643.15a26.94,26.94,0,0,1-19-7.82q-8.31-7.8-8.3-18.55V4157.13l-184.61,1v270.57a26.69,26.69,0,0,1-26.37,26.37H332.54q-9.78,0-17.58-7.82a25.27,25.27,0,0,1-7.82-18.55v-631q0-9.75,7.82-17.58t17.58-7.81h72.28a26.25,26.25,0,0,1,18.56,7.32,23.85,23.85,0,0,1,7.81,18.07V4039l184.61-1V3797.68q0-9.75,8.3-17.58A27,27,0,0,1,643.15,3772.29Z" transform="translate(-307.14 -208.27)"/><path d="M1224.32,3948.11l1,322.33a186.23,186.23,0,0,1-25.4,94.75,196.66,196.66,0,0,1-68.37,70.32q-42,26.39-92.79,26.38H1006.5q-49.82,0-93.77-25.89A191.08,191.08,0,0,1,818,4270.44V3949.08q0-51.76,24.9-94.74T911.76,3786q42-24.4,93.77-24.42h32.23q50.77,0,93.77,24.42a183.68,183.68,0,0,1,68.37,67.4Q1224.31,3895.36,1224.32,3948.11Zm-126,318.42v-319.4q0-32.24-22.47-53.72t-54.7-21.49h-2.93q-32.24,0-55.18,21.49t-23,53.72v319.4q0,32.24,23,56.17t55.18,23.93h3.91q31.25,0,53.72-23.93T1098.32,4266.53Z" transform="translate(-307.14 -208.27)"/><path d="M1752.75,3770.33h42a25,25,0,0,1,25.4,25.4v633a25,25,0,0,1-25.4,25.39h-70.33q-10.76,0-17.58-7.32a25.48,25.48,0,0,1-6.84-18.07V4023.32l-74.23,238.33c-.66,3.27-4.24,7.49-10.75,12.7l-4.88,2.93q-8.79,3.92-15.63,3.9H1532q-6.86,0-15.63-3.9l-4.88-2.93a35,35,0,0,1-9.77-12.7l-74.24-238.33v405.36q0,9.76-7.32,17.58t-17.1,7.81h-70.32q-9.78,0-17.58-7.81t-7.82-17.58v-633a23.75,23.75,0,0,1,7.82-18.07q7.8-7.34,17.58-7.33h111.35a36.87,36.87,0,0,1,20,5.86q9.27,5.86,10.26,13.68L1563.25,4077l88.89-287.17q2-7.82,11.23-13.68a36.83,36.83,0,0,1,20-5.86h69.35Z" transform="translate(-307.14 -208.27)"/><path d="M2220.61,3889.5H2023.3V4039h149.44q10.74,0,17.59,6.83t6.83,17.58v68.38q0,10.76-6.83,17.58t-17.59,6.84H2023.3v177.77h197.31a26.19,26.19,0,0,1,18.55,7.33,23.79,23.79,0,0,1,7.82,18.07v67.39a26.71,26.71,0,0,1-26.37,26.38H1932.46q-11.73,0-19-7.82a26.18,26.18,0,0,1-7.32-18.56v-631a24.56,24.56,0,0,1,7.32-18.07q7.33-7.34,19-7.33h288.15a26.19,26.19,0,0,1,18.55,7.33,23.79,23.79,0,0,1,7.82,18.07v67.4a26.69,26.69,0,0,1-26.37,26.37Z" transform="translate(-307.14 -208.27)"/><path d="M2772.47,3770.33h42a25,25,0,0,1,25.4,25.4v633a25,25,0,0,1-25.4,25.39h-70.32q-10.77,0-17.59-7.32a25.47,25.47,0,0,1-6.83-18.07V4023.32l-74.24,238.33c-.65,3.27-4.24,7.49-10.74,12.7l-4.89,2.93c-5.86,2.61-11.08,3.9-15.62,3.9h-62.52q-6.84,0-15.63-3.9l-4.88-2.93a35.21,35.21,0,0,1-9.77-12.7l-74.23-238.33v405.36q0,9.76-7.33,17.58t-17.09,7.81h-70.33q-9.78,0-17.58-7.81t-7.81-17.58v-633a23.75,23.75,0,0,1,7.81-18.07q7.8-7.34,17.58-7.33h111.35a36.93,36.93,0,0,1,20,5.86q9.27,5.86,10.25,13.68L2583,4077l88.88-287.17q1.95-7.82,11.24-13.68a36.82,36.82,0,0,1,20-5.86h69.35Z" transform="translate(-307.14 -208.27)"/><path d="M3210.05,3797.68l128,633q1.95,10.76-4.88,18.07t-19.54,7.33h-83q-22.47,0-25.39-21.49l-29.3-159.22h-126l-29.3,159.22q-2,11.72-7.82,16.6t-17.58,4.89h-83q-12.7,0-20-7.33t-5.37-18.07l128.94-633q1.93-10.72,12.2-18.07a38.59,38.59,0,0,1,23-7.32h123.07a40.8,40.8,0,0,1,23.44,7.32Q3208.09,3786.95,3210.05,3797.68ZM3113.35,4161h45.91l-42-245.17c-1.31-3.25-2.93-4.88-4.89-4.88s-3.58,1.63-4.88,4.88l-41,245.17h46.88Z" transform="translate(-307.14 -208.27)"/><path d="M3802.94,3954l1,312.56a196.3,196.3,0,0,1-23.44,93.77q-23.45,43.95-63.49,70.33a162.9,162.9,0,0,1-89.86,26.37h-109.4c-.66.64-2,1-3.91,1H3423q-10.76,0-18.56-8.3t-7.81-21V3804.52a30.92,30.92,0,0,1,8.79-22q8.79-9.27,20.51-9.28h196.33q49.82,0,91.33,23.93a180.38,180.38,0,0,1,65.93,65Q3802.95,3904.17,3802.94,3954Zm-123.07,303.77V3959.83q0-30.27-21.49-51.77t-51.77-21.49h-82.05a14,14,0,0,0-10.25,4.39q-4.39,4.41-4.4,9.28V4332c0,5.22,2.6,7.81,7.82,7.81h80.09q33.19,0,57.63-24.42T3679.87,4257.74Z" transform="translate(-307.14 -208.27)"/><path d="M4203.42,3889.5H4006.11V4039h149.45q10.74,0,17.58,6.83t6.84,17.58v68.38q0,10.76-6.84,17.58t-17.58,6.84H4006.11v177.77h197.31a26.22,26.22,0,0,1,18.56,7.33,23.82,23.82,0,0,1,7.81,18.07v67.39a26.69,26.69,0,0,1-26.37,26.38H3915.27q-11.71,0-19.05-7.82a26.18,26.18,0,0,1-7.32-18.56v-631a24.56,24.56,0,0,1,7.32-18.07q7.34-7.34,19.05-7.33h288.15a26.22,26.22,0,0,1,18.56,7.33,23.82,23.82,0,0,1,7.81,18.07v67.4a26.67,26.67,0,0,1-26.37,26.37Z" transform="translate(-307.14 -208.27)"/><path d="M3182.52,2823.47c84.46,2.46,147.65,35,205.44,84.72,33,28.38,72.51,50.39,111.83,69.68,25.55,12.54,55.71,18,84.42,21.19,28.29,3.18,55.06-8.52,66.77-35.85,12-28,10.9-59.13-9.93-83.27-17.33-20.1-37.14-40.67-60.18-52.79-124-65.24-253-68.18-384.25-23.43C3193.07,2804.93,3191.18,2811,3182.52,2823.47Z" transform="translate(-307.14 -208.27)"/><path d="M3102.7,2677.19c12.08-7.11,19.67-11,26.61-15.77,29.51-20.45,62-30,98-28.85,19,.63,38.39,1.06,57.16-1.53s37.22-7.77,55-14.14c20.57-7.37,28-24.9,27.45-45.63-.59-22.4-13.64-39.75-35.73-45.61-40.43-10.72-80-5-116,14.72-49.8,27.25-88.77,66.1-112.24,118.83C3101.62,2662,3102.7,2665.79,3102.7,2677.19Z" transform="translate(-307.14 -208.27)"/><path d="M3171,3000.06c41.94,61,71.7,107.92,105.63,151.64,13.4,17.27,34.61,30.53,54.91,39.85,24.29,11.15,56.82-10.93,57.28-38.2.33-19.08-1.18-41.57-10.84-56.88C3334.15,3027.13,3270.31,2995.1,3171,3000.06Z" transform="translate(-307.14 -208.27)"/><path d="M1630.79,3408.68a118.66,118.66,0,0,1-23-2.08q-27.12-6.26-31.27-37.53a1546,1546,0,0,1-19.47-187.32q-4.2-95.57-4.17-201.93,0-367.71,16.67-415,6.26-26.42,60.48-26.41,28.47,0,47.28,10.42,10.41,4.86,16,10.42,10.46,11.85,12.53,79.95,1.37,32,2.78,306.51l2.08,416.36q0,23.63-27.81,38.23Q1664.14,3408.67,1630.79,3408.68Z" transform="translate(-307.14 -208.27)"/><path d="M2034.59,3479.58q-62.56,0-108.44-47.26-41.72-41-61.85-121-30.6-130.66-31.29-392,0-224.49,21.56-350.31-60.48,9-75.07,9-40.32,0-40.32-27.78,0-15.3,13.2-25,11.1-7.65,59.43-16t52.11-13.88q3.82-5.57,7.32-39.63,6.26-52.83,56.31-52.82a130.45,130.45,0,0,1,22.24,2.08q26.42,3.47,36.12,13.55t12.53,36.5l3.49,27.79q95.19-10.41,107-10.42,41.69,0,41.69,21.55,0,35.46-92.45,45.86l-61.16,7.65q-22.26,185.61-22.25,464.33,0,109.83,11.14,189.76,17.36,152.91,65.33,196c5.54,3.24,10.89,4.86,16,4.86q9.7,0,18.07-7.65,40.32-47.24,127.2-274.57,17.37-50.72,28.48-74.35t23.66-29.9c4.17-1.84,10.86-2.77,20.13-2.77q37.53,10.45,37.55,33.36,0,11.13-38.92,130-89,256.5-166.83,285-8.35,3.47-26.41,7.66Q2045,3479.57,2034.59,3479.58Z" transform="translate(-307.14 -208.27)"/><path d="M2320.88,2475.89q-43.82,0-53.54-11.82l-9.73-9.74,10.42-30.58q11.11-28.47,11.13-63.24,0-21.57-2.08-29.9c-1.4-5.54-4.63-11.35-9.74-17.38q-11.1-12.51-11.11-22.25,0-13.17,23.62-19.45a98.9,98.9,0,0,1,26.41-3.48q34.77,0,54.93,18.08,29.17,28.5,29.19,74.38,0,34-16,77.83-7.65,23.65-21.56,31.29Q2341.73,2475.89,2320.88,2475.89Z" transform="translate(-307.14 -208.27)"/><path d="M2671.86,3484.46a313.57,313.57,0,0,1-50.05-4.17q-111.24-19.5-145.25-89.68-11.14-20.16-11.14-52.14V3319q0-68.11,72.3-160.57,42.38-54.88,105-107Q2439,2856.81,2409.83,2817.87q-57.72-74.38-57.7-150.85,0-46.56,16-79.92,13.9-29.2,45.17-60.47,70.18-69.49,159.18-69.5a256.2,256.2,0,0,1,63.24,8.33q62.55,15.32,98.71,49.35,58.38,51.45,66.73,133.45,1.39,12.51,1.4,18.08,0,8.34-10.45,10.09t-20.84,4.5q-13.22,0-35.44-9-27.81-9.71-37.55-35.46-21.55-61.14-47.25-86.88-20.16-20.16-29.9-20.16-21.55,0-57,29.2T2512,2620.81q-16.69,33-16.67,67.77,0,73.68,75.06,154.3,34.07,36.85,149.45,153.61l43.8-24.32q38.17-21.52,110.5-53.51,143.86-62.55,179.34-62.56,30.57.69,33.35,40.31a19.81,19.81,0,0,1-3.46,11.82q0,4.86-8.69,12.51t-50.41,25q-114.69,43.82-196,95.94l-37.52,25.7q0,2.79,22.24,32.69,90.34,124.41,90.37,212.69,0,32-11.82,59.08-32,59.78-97.67,86.19T2671.86,3484.46ZM2622.52,3417q10.41,0,31.27-6.25,82.7-21.55,109.13-80.64,5.55-13.17,5.56-33.35,0-31.28-8.34-56.3-22.24-66.74-53.53-103.57l-26.41,28.5q-76.47,86.19-91.74,166.81a145.34,145.34,0,0,0-.69,14.61,147.79,147.79,0,0,0,2.77,27.79Q2601,3417,2622.52,3417Z" transform="translate(-307.14 -208.27)"/><path d="M1354.42,2978.32c-84.47,2.46-147.65,35-205.44,84.72-33,28.38-72.51,50.39-111.83,69.68-25.56,12.54-55.72,18-84.42,21.19-28.29,3.18-55.07-8.52-66.77-35.85-12-28-10.9-59.13,9.92-83.27,17.34-20.1,37.14-40.67,60.19-52.79,124-65.24,253-68.18,384.24-23.43C1343.87,2959.78,1345.76,2965.89,1354.42,2978.32Z" transform="translate(-307.14 -208.27)"/><path d="M1434.23,2832c-12.07-7.11-19.67-11-26.61-15.77-29.51-20.45-61.94-30-97.94-28.85-19,.63-38.39,1.06-57.17-1.53s-37.21-7.77-55-14.14c-20.57-7.37-28-24.9-27.45-45.63.59-22.4,13.64-39.75,35.72-45.61,40.43-10.72,80-5,116,14.72,49.8,27.25,88.78,66.1,112.24,118.83C1435.31,2816.83,1434.23,2820.64,1434.23,2832Z" transform="translate(-307.14 -208.27)"/><path d="M1366,3154.91c-42,61-71.71,107.92-105.64,151.64-13.39,17.27-34.61,30.53-54.91,39.85-24.28,11.15-56.81-10.93-57.28-38.2-.33-19.08,1.19-41.57,10.85-56.88C1202.79,3182,1266.63,3150,1366,3154.91Z" transform="translate(-307.14 -208.27)"/></svg>

