<svg xmlns="http://www.w3.org/2000/svg" viewBox="0 0 3245.73 5131.18" width="500" height="500"><path d="M1048.2,684.92c25.18-43,59.88-66.41,101.93-82.2,24-9,46.57-23.22,67.67-38.08,13.71-9.66,25-23.72,34.83-37.64,9.65-13.72,11.18-30.88.37-44.66-11.08-14.13-27.47-22.37-45.84-18.43-15.3,3.27-31.54,7.68-44.32,16.16C1094,525.72,1056,591.55,1042,672,1041.6,674.22,1044.23,676.93,1048.2,684.92Z" transform="translate(-699.76 -116.54)"/><path d="M950,684.78c-.25-8.26-.1-13.27-.62-18.22a93.22,93.22,0,0,1,12.81-58.79c5.72-9.66,11.42-19.54,15.39-30a162.15,162.15,0,0,0,8.25-32.42c2-12.72-4.94-21.51-15.81-27.1-11.74-6-24.41-4.2-33.69,5.56-17,17.86-25.22,39.93-25.22,64.13,0,33.46,9,64.6,29.65,91.65C941.84,681,944.11,681.55,950,684.78Z" transform="translate(-699.76 -116.54)"/><path d="M1136.2,740.88c43.37-4.43,76.07-6.52,108.27-11.68,12.72-2,25.57-9.25,36.14-17.11,12.63-9.4,10.43-32.46-3.54-40.41-9.77-5.57-21.82-11.16-32.46-10.49C1196.37,664.19,1161.76,688.12,1136.2,740.88Z" transform="translate(-699.76 -116.54)"/><path d="M808.09,962.56c46.38,118.19,122.66,217,203.41,313,13.09,15.56,27.69,25.31,48,20.36s31.29-20.18,33-40.26c8.38-99.16,48-190.18,72.6-285.11,11.53-44.5,22.83-90.21,3.54-136.68-13.08-31.55-33.52-54.25-67.5-59.61-34.9-5.5-60.11,13.32-80.7,39.6-17.6,22.45-23.06,50.38-36.08,79.52-31.29-23.09-50.95-53.92-81.78-72.06C875.54,805.34,847.68,797,819,816.15c-29.87,19.93-38,49.86-31.31,83.12C792,920.88,800,941.94,808.09,962.56Z" transform="translate(-699.76 -116.54)"/><path style="fill-rule:evenodd;" d="M3432,1044c25.79,25.78,65.2,17.42,97.91,9.52,23.83-5.76,78.56,40.67,150.89,116.8h97.66c-105.48-95.33-174.5-169.06-167.55-197.8,7.9-32.73,16.27-72.12-9.52-97.91l-44.25-44.24L3203.39,487.18c-36.44-36.45-35.8-37.52-82.58-58.18,21.36,43,25,45.42,59.1,79.57L3529.4,858.06l-19.66,19.66L3161.29,529.28c-36.44-36.44-38.45-34.88-85.23-55.53,21.37,43,22.33,48,56.47,82.19L3482,905.43l-19.19,19.19L3114.4,576.17c-36.44-36.44-38.45-34.88-85.23-55.53,21.36,43,22.33,48.05,56.47,82.2l349.49,349.49L3415.46,972,3067,623.56c-36.44-36.45-35.81-37.51-82.59-58.17,21.37,43,25,45.41,59.11,79.56l344.21,354.77Z" transform="translate(-699.76 -116.54)"/><path d="M3634.46,3782c9.41-53.25-12-91.76-57-118.78-14.36-8.61-28.93-16.9-43.57-25a632.2,632.2,0,0,0-99.61-44.16c-1.39-34.86-14.72-52.25-45.78-60.15a58.33,58.33,0,0,0-34,1.25c-15.63,5.34-21,19-26.81,31.91-3.18-.27-5.29-.31-7.36-.65-63.51-10.43-137.73-14.2-200.12,1.54-38.71,9.76-63.08,31.43-87.23,67-59.85-34.7-119.48-67.57-181.12-96.43-67.08-31.41-136.34-56.66-210.67-65.21a80.56,80.56,0,0,0-45.8,7.95c-13.64,6.71-19.24,16.54-18,31.72,2.32,28.49,21.83,50.79,50.79,56.62,10.41,2.1,20.05,5.67,29.85,9.42,21.05,8.05,42.16,16,63.6,22.92,44.44,14.26,90.32,23.63,134.33,39.5,53.33,19.23,105,42,155.45,72.28-2.76,17.35-4.59,36.66-9.06,55.34-11.56,48.4-16.6,96.9-11.57,146.77,6.7,66.4,34.79,117.94,96.52,147.47,113.16,54.15,222.42,87,348.21,67.87,17.89-2.72,57.52-13,74.12-22,28.23-15.27,42.35-30.67,57.12-59.47C3625.16,3935.65,3632.82,3791.33,3634.46,3782ZM2616.14,3505.92c21.22-13.3,40.37-9.31,53.09,10.28C2656.41,3533,2628.18,3527.89,2616.14,3505.92Zm479.64,104.28c4.06-3.8,16.67-10.49,19.37-11,69.62-13.66,139.36-14.46,209-3.49,5.14,34.83,15.17,46.23,45.37,52.7,29.22,6.26,36.58,2.85,55.28-26.51,53.78,18.06,103.27,42.52,148.08,76.1a111.87,111.87,0,0,1,23.82,25c6.31,8.83,4.5,15.44-4.57,20.75-18.57,10.89-39.35,13.92-60.12,15.62-67.1,5.5-132.87-4.08-197.88-19.74-66.11-15.93-130.59-37.11-193.9-61.92-18.78-7.35-36-16.95-49.8-31.86C3078.44,3632.84,3082.92,3622.25,3095.78,3610.2Zm446.18,433c-23.95,35.92-61.77,55-128.85,64.94-56.85,8.4-247.68-38.57-281.31-52.88-58.67-25-101.4-65.66-108.26-133.3-5.84-57.54,6-169.45,23.05-246.41,70,72.09,159,98.28,253.11,112.68,42.42,6.49,100.09,18.3,174.53,21.72,2.36.11,5.33.93,6.73-3.39-8.75-8.73-151.56-24.76-212.91-43.72-62.43-19.29-124.2-38-178.3-75.72-9-6.29-17.36-13.56-26-20.44-9.34-7.47-11.8-15.59-1.65-25.22,13.66,22.7,34.21,37.51,58,47.12,81.9,33.14,163.89,66.36,251.47,82,60.14,10.72,120.6,16.95,181.53,5.78,19.68-3.61,38.42-9.73,59.06-23.3C3609.44,3801.94,3589.65,3971.67,3542,4043.2Z" transform="translate(-699.76 -116.54)"/><path d="M1249.06,3878.6c-65.53,1.91-114.55,27.15-159.39,65.73-25.58,22-56.26,39.09-86.76,54.06-19.83,9.73-43.23,13.93-65.5,16.44-21.95,2.46-42.72-6.61-51.8-27.81-9.31-21.74-8.46-45.88,7.7-64.61,13.45-15.59,28.81-31.55,46.69-41,96.24-50.62,196.3-52.9,298.12-18.17C1240.88,3864.22,1242.34,3869,1249.06,3878.6Z" transform="translate(-699.76 -116.54)"/><path d="M1311,3765.11c-9.37-5.52-15.27-8.51-20.65-12.24a122.68,122.68,0,0,0-76-22.38c-14.78.49-29.78.83-44.35-1.18a215,215,0,0,1-42.66-11c-16-5.72-21.72-19.32-21.3-35.4.46-17.37,10.58-30.84,27.72-35.39,31.37-8.32,62.07-3.87,90,11.43,38.64,21.14,68.88,51.28,87.08,92.19C1311.82,3753.31,1311,3756.26,1311,3765.11Z" transform="translate(-699.76 -116.54)"/><path d="M1258,4015.61c-32.55,47.29-55.64,83.72-82,117.65-10.39,13.39-26.85,23.68-42.6,30.91-18.84,8.65-44.08-8.48-44.44-29.64-.25-14.8.92-32.25,8.41-44.12C1131.42,4036.6,1181,4011.76,1258,4015.61Z" transform="translate(-699.76 -116.54)"/><path d="M3390.41,2075.07c65.53,1.91,114.55,27.16,159.38,65.74,25.59,22,56.26,39.09,86.77,54.06,19.83,9.73,43.23,13.93,65.49,16.43,21.95,2.47,42.73-6.61,51.81-27.81,9.31-21.73,8.46-45.87-7.7-64.6-13.45-15.59-28.82-31.56-46.7-41-96.23-50.62-196.3-52.9-298.11-18.18C3398.59,2060.69,3397.12,2065.43,3390.41,2075.07Z" transform="translate(-699.76 -116.54)"/><path d="M3328.48,1961.58c9.37-5.51,15.26-8.5,20.64-12.23a122.6,122.6,0,0,1,76-22.38c14.77.49,29.78.82,44.35-1.19a214.27,214.27,0,0,0,42.66-11c16-5.72,21.71-19.32,21.29-35.4-.45-17.38-10.58-30.85-27.71-35.39-31.37-8.32-62.07-3.87-90,11.42-38.64,21.14-68.88,51.29-87.09,92.19C3327.65,1949.79,3328.48,1952.74,3328.48,1961.58Z" transform="translate(-699.76 -116.54)"/><path d="M3381.43,2212.08c32.54,47.29,55.63,83.73,82,117.65,10.4,13.4,26.86,23.69,42.61,30.92,18.84,8.65,44.08-8.48,44.44-29.64.25-14.81-.92-32.25-8.42-44.13C3508,2233.08,3458.52,2208.24,3381.43,2212.08Z" transform="translate(-699.76 -116.54)"/><path d="M1609.59,1021.45q-22.5,0-37.47-1.24-30-1.26-42.8-16.54t-20.9-57.16q-13.12-72.42-21.24-226.08-3.75-76.17-3.75-188.59,0-113,3.75-169.25,6.84-84.29,17.16-147.06t20.31-77.75q13.1-15.61,30.28-17.49t22.8-1.87q61.18,0,64.33,50,1.23,18.12,1.25,36.84,0,38.11-7.5,180.49-2.49,55.59-2.49,142.39,0,294.13,15.61,435.91,52.46-6.24,76.81-6.24,36.85,0,54.64,9.06t17.8,17.79q0,14.35-33.72,20Q1726.36,1010.22,1609.59,1021.45Z" transform="translate(-699.76 -116.54)"/><path d="M1901.12,311.39q-20,0-29.35-1.25-43.73-12.48-43.72-42.47,0-7.49,8.75-18.74a26.09,26.09,0,0,1,17.49-9.36c3.73-.4,9.14-.62,16.23-.62q23.71,0,48.71,10.61,35,15.6,35,33.09,0,9.38-10,18.74a30.23,30.23,0,0,1-13.13,7.81Q1923.58,311.41,1901.12,311.39Zm4.37,659.48q-51.84,0-61.2-35-15.61-66.18-15.61-267.29,0-96.17,8.75-222.33,4.35-63.07,11.86-68.07,16.85-10.6,40.59-10.62,35,0,52.45,15.61,6.24,4.38,7.82,14.69t2.18,65.87l-1.25,279.16q0,100.55,1.88,141.14,2.49,30.6,2.5,46.84,0,26.25-13.44,33.11T1905.49,970.87Z" transform="translate(-699.76 -116.54)"/><path d="M2208.94,1112.64q-20,0-35-5-43.11-12.5-75.56-80.57-41.23-83.05-58.08-210.45l-5-35-21.86-1.86q-30.59-2.49-35.6-26.24,0-13.12,29.35-24.36l25.61-6.87q0-101.16,22.48-218.58,21.24-113.66,54.33-214.2,51.84-156.12,82.44-169.24a38.62,38.62,0,0,1,17.48-3.75q30,0,58.08,18.11,17.49,11.86,17.48,24.36,0,6.24-32.46,102.41-53.09,154.89-72.44,274.79Q2163.34,643,2163.36,671.73c0,3.34.41,5,1.23,5q4.36,0,195.49-61.83,90.54-30.6,119.28-30.61,19.35,3.15,19.36,28.74,0,11.25-8.75,17.48-16.24,8.13-89.3,32.47-109.3,38.12-226.08,79.94l-13.11,4.37,33.72,16.86q111.78,58.08,151.13,133A130,130,0,0,1,2362,959l-1.25,23.1q-3.75,46.21-40.29,85.25t-82.11,43.4Q2217.68,1112.64,2208.94,1112.64Zm28.73-76.19q1.88,0,10-16.86t8.12-53.72q0-53.05-53.08-103-27.49-27.47-31.23-27.46v1.87q0,14.37,13.73,70.56,15,61.23,35,103.05Q2232.65,1036.43,2237.67,1036.45Z" transform="translate(-699.76 -116.54)"/><path d="M2581.65,1034q-26.87,0-42.47-6.25-53.71-23.12-83.69-189.84a1072.87,1072.87,0,0,1-16.86-186.74q0-142.38,40.6-274.16,33.09-100.54,83.69-142.39,29.94-25,64.95-25,98.67,0,142.37,99.3,57.48,126.8,57.47,219.2,0,118-107.42,169.87-25,11.87-65.27,24t-67.12,17.17q-10.64,1.25-13.13,3.74t-2.5,11.25q0,15.6,14.38,94.29,11.86,66.22,15,66.21,5,0,26.24-99.92l16.86-8.13a82.41,82.41,0,0,1,35-8.11q41.21,0,41.22,23.1,0,12.51-6.88,56.21-10.62,67.45-26.84,99.93-26.25,53.68-82.44,55.57Zm-13.11-347.86q41.21-12.47,58.7-19.36,54.33-20,82.43-70.56,12.48-26.86,12.5-71.21,0-94.92-48.72-199.84Q2660.33,297,2656.59,297q-6.9,0-25,35-34.35,66.21-51.83,175.48-11.25,73.08-11.23,134.27Z" transform="translate(-699.76 -116.54)"/><path d="M1022.42,3360.75c-9.24,0-17.09-1.86-23.55-5.53s-12.26-14.68-17.33-32.91-11.77-50.68-20.07-97.34q-52-278.44-52-534.76,0-98.37,7.62-194,9-126.76,22.17-143.38,9-8.33,20.07-8.67c7.38-.22,11.78-.34,13.17-.34a126.88,126.88,0,0,1,36,5.54q18.7,5.57,29.1,16.62l10.39,12.48.7,172.48q.68,255.62,7.61,255.61,2.07,0,16.63-51.95a1322.17,1322.17,0,0,1,77.58-198.8q47.1-101.13,86.59-141.32t98.37-40.18q56.1,0,106,31.16,53.35,33.28,82.43,90.75,40.17,80.39,40.17,212,0,42.27-8.3,133.7-3.48,33.95-6.24,54-4.15,32.57-4.16,43.64c0,2.77.7,4.16,2.08,4.16q6.91,0,21.48-2.78a611.63,611.63,0,0,1,88-7.6q44.32,0,47.11,11.76a57.6,57.6,0,0,1,1.38,12.46q0,14.57-7.62,19.42-10.39,4.15-72.72,17.31t-77.25,18q-14.89,4.86-19,10c-2.77,3.47-4.85,8.65-6.24,15.58q-9,36-29.08,82.43-74.15,170.41-205.74,170.4-89.37,0-128.15-43-20.79-22.85-20.78-45.72,4.14-56.1,74.8-115,64.43-53.35,164.18-92.83,36.72-13.86,39.49-22.86,5.54-15.91,17-105.63t11.44-159.68q0-113.61-11.78-169-23.57-98.36-51.25-98.36-53.36,0-126.78,150.32A1397.64,1397.64,0,0,0,1188,2753.94q-56.1,164.88-74.8,386.53-4.86,50.58-4.85,80.36a225.39,225.39,0,0,0,2.42,35.32q2.41,15.24,3.82,28.76t1.38,18.35q0,17.31-23.21,33.26t-42.25,20.09Q1031.43,3360.74,1022.42,3360.75Zm239.68-127.46q6.24,0,23.55-11.76,58.86-38.79,95.6-128.17,4.15-10.38,4.16-13.85c0-.92-.24-1.39-.69-1.39q-10.41,0-55.43,34.63-73.44,57.51-73.43,100.46Q1255.86,3233.3,1262.1,3233.29Z" transform="translate(-699.76 -116.54)"/><path d="M1997.52,3379.45q-28.38,0-51.94-12.46-16-8.32-15.94-16.62,0-11.8,14.55-77.6l2.78-13.15-44.34-11.79q-135.08-33.23-205.05-103.9-45.72-43.62-45.72-91.44,6.24-92.13,74.82-127.45,28.39-13.83,70.65-13.85,100.45,0,171.8,67.87l24.25,23.55q33.93-195.34,33.94-327.65,0-63.72-9-104.59-13.85-65.8-36.71-93.52l-11.07-13.16-24.25,12.46q-90,49.89-155.16,194.65-36,83.85-41.57,131.62-2.07,21.47-8,26t-21.82,4.5a125.3,125.3,0,0,1-24.24-2.77q-22.89-5.53-35.33-15.23-15.93-12.48-15.94-40.87,0-34,24.25-107.37,68.58-195.35,180.8-257,17.31-9,30.48-11.77,18.69-4.15,53.33-4.15,24.23,0,52.65,9.68,81.74,27,122.61,93.52,31.17,45.74,41.21,93.87t10,114.65a1391.36,1391.36,0,0,1-10.38,172.48q-9,68.58-34.64,203.66-21.48,119.85-21.48,127.46c0,.46.11.69.35.69s2.65.81,7.26,2.43,10.16,3.36,16.64,5.2q42.24,13.85,42.25,32.54,0,20.1-52,24.25l-31.16,2.08q-15.93,63.72-22.17,77.59-10.39,22.15-39.48,24.25Zm-54.71-185.64q4.15-2.07,4.16-11.09a73.22,73.22,0,0,0-1.39-12.46q-6.94-54-26-100.78t-44-72.4q-18-18-24.94-18-19.39,0-40.86,21.49-27,27.7-27,70.64,0,70,122.62,112.92,27,9.72,35.32,9.7Z" transform="translate(-699.76 -116.54)"/><path d="M2772.5,3369.76a186.52,186.52,0,0,1-35.33-3.47q-31.17-4.86-51.62-15.92T2645,3317.8q-29.09-29.76-35-58.87a275.65,275.65,0,0,1-5.9-54.74q0-88,75.52-352.59,43.62-171.07,49.17-216.12,2.74-27.7,2.77-53.35,0-55.4-7.28-94.88T2706,2434.59q-6.93,0-40.88,31.18-50.57,47.79-105.29,155.17-128.16,232-134.39,465.5l-5.54,81q-2.76,24.95-51.94,31.87a148,148,0,0,1-19.4,1.37q-34.65,0-52.65-20.78-25.63-25.6-50.57-205.73-15.95-108.73-15.93-321.43,0-148.23,11.42-157.23t32.22-9q35.29,0,66.5,22.17a41.86,41.86,0,0,1,13.85,15.93q8.31,17.31,18,148.93,7.59,86.6,9.69,86.58c.45,0,.92-.69,1.39-2.08q4.83-21.47,27-73.41,51.93-120.52,100.43-193.28,82.44-124,170.42-124a146,146,0,0,1,43.64,6.93q53.32,14.57,83.82,45.72,49.86,59.6,49.88,199.5,0,80.35-38.12,227.89-83.81,311.73-83.81,381,0,16.64,4.85,37.42,6.91,33.94,15.93,33.93,4.83,0,24.94-9.7,18.69-13.83,47.11-47.44a445.69,445.69,0,0,0,51.26-75.86q87.27-207.12,100.44-254.91,4.83-17.31,12.81-22.86t25.28-5.54q6.24,0,24.25,7.6,20.78,9,20.78,20.8,0,12.48-11.77,49.86-28.41,95.63-92.13,250.08Q2886.78,3369.76,2772.5,3369.76Z" transform="translate(-699.76 -116.54)"/><path d="M3185.81,3363.52q-34.64,0-51.95-4.16-87.3-19.4-126.76-163.47-33.27-116.35-33.26-251.46,0-99.72,18-209.21,56.8-322.77,236.92-322.79,42.24,0,74.11,15.23,57.51,27.72,81.06,148.25,7.59,37.41,7.61,67.2,0,17.31-2.08,38.78c-.94,11.1-2.33,18.7-4.16,22.86q-6.92,15.24-38.79,15.24-52.65,0-61.65-19.4-2.07-4.83-6.58-53.67a447.84,447.84,0,0,0-19.05-94.56,2.75,2.75,0,0,1-.69-2.08q-17.33-51.95-24.25-52-4.15,0-13.85,11.79-50.6,62.34-82.43,209.88-21.46,111.53-21.47,245.22,0,116.39,24.23,211.29,28.38,112.23,43.66,112.22,4.83,0,32.55-34.65,47.1-58.17,110.14-200.89,21.47-49.18,29.1-58.18,13.16-15.23,40.86-15.25,20.07,0,36,7.28t18,17.66q0,5.57-10.4,35t-26.66,70.66q-16.28,41.23-34.28,82.78a435.25,435.25,0,0,1-58.55,97q-35,43.62-67.54,60.95a103.28,103.28,0,0,1-26.67,9.34Q3214.21,3362.82,3185.81,3363.52Z" transform="translate(-699.76 -116.54)"/><path d="M3661.54,3349q-29.79,0-47.1-6.93-59.59-25.64-92.83-210.58-18.72-106-18.7-207.13,0-157.93,45-304.09,36.7-111.52,92.82-157.94,33.22-27.72,72-27.72,109.46,0,157.92,110.14,63.75,140.66,63.75,243.15,0,130.92-119.15,188.42-27.72,13.15-72.4,26.68t-74.45,19q-11.8,1.38-14.56,4.15c-1.86,1.85-2.77,6-2.77,12.47q0,17.33,15.94,104.6,13.15,73.44,16.62,73.43,5.53,0,29.1-110.83l18.7-9a91.47,91.47,0,0,1,38.79-9q45.7,0,45.72,25.62,0,13.88-7.63,62.35-11.78,74.82-29.77,110.84-29.11,59.57-91.44,61.65ZM3647,2963.13q45.7-13.83,65.12-21.47,60.26-22.15,91.42-78.27,13.86-29.79,13.87-79,0-105.28-54-221.67-14.57-31.14-18.7-31.16-7.65,0-27.72,38.79-38.1,73.44-57.49,194.65-12.47,81-12.46,148.92Z" transform="translate(-699.76 -116.54)"/><path d="M880,5247.73q-12,0-20.22-6.57-25.68-24.58-36.61-143.42t-10.92-245.05q0-47.52,1.1-98.36,8.71-281.92,48.07-338.75a35.25,35.25,0,0,1,19.13-13.39q12-3.55,31.14-3.56t29.23,3.28q10.11,3.29,13.4,8.49c2.18,3.47,3.28,8.28,3.28,14.47q0,15.84-7.11,62.28-9.86,69.39-15.85,147-4.92,69.4-12.56,243.14,49.17-30.59,115.28-94,61.74-58.46,100-108.17,79.22-106.56,86.32-215.83,1.65-25.7,5.74-32.78t14.48-7.11q30.62,0,66.68,29v43.15q0,112-92.35,221.83-65,78.13-167.2,161.73,48.09,17.49,65,26.24t61.19,38.25q12,7.64,24,7.64l25.13-.55q19.13,0,33.33,7.11,25.13,12.57,25.14,23.49,0,16.93-53.55,16.93-59.58,0-132.76-51.9-26.25-17.49-39.35-20.21a104.4,104.4,0,0,0-19.12-1.64q-17.49,0-39.35,4.91a220,220,0,0,0-60.09,22.95l-18,10.93q3.79,131.69,15.29,210.35,3.83,25.13,3.83,37.16,0,12.57-6.56,18.59t-21.86,13.1Q894.19,5247.72,880,5247.73Z" transform="translate(-699.76 -116.54)"/><path d="M1415.4,4547.8q-17.48,0-25.67-1.09-38.25-10.92-38.25-37.16,0-6.54,7.66-16.39a22.73,22.73,0,0,1,15.29-8.18,139.09,139.09,0,0,1,14.21-.55q20.76,0,42.61,9.28,30.6,13.66,30.61,28.95,0,8.2-8.75,16.39a26.63,26.63,0,0,1-11.49,6.85Q1435.07,4547.82,1415.4,4547.8Zm3.83,577q-45.35,0-53.55-30.6Q1352,5036.27,1352,4860.33q0-84.14,7.65-194.51,3.81-55.17,10.38-59.55,14.75-9.29,35.51-9.29,30.6,0,45.9,13.65,5.46,3.84,6.82,12.85t1.93,57.64l-1.1,244.23q0,88,1.64,123.48,2.19,26.79,2.19,41,0,23-11.75,29T1419.23,5124.79Z" transform="translate(-699.76 -116.54)"/><path d="M1712.09,5223.13q-49.17,0-85.23-37.15-32.79-32.25-48.63-95.07-24-102.7-24.59-308.15,0-176.49,16.93-275.39-47.52,7.13-59,7.11-31.69,0-31.69-21.86,0-12,10.39-19.68,8.71-6,46.71-12.56t41-10.92q3-4.36,5.73-31.16,4.93-41.51,44.27-41.51a100.29,100.29,0,0,1,17.48,1.64q20.74,2.71,28.41,10.65t9.83,28.68l2.73,21.86q74.86-8.19,84.16-8.19,32.76,0,32.78,16.94,0,27.85-72.67,36.06l-48.08,6q-17.49,145.89-17.48,365,0,86.35,8.73,149.17,13.64,120.22,51.36,154.08a25,25,0,0,0,12.56,3.83q7.65,0,14.22-6,31.69-37.15,100-215.83,13.63-39.87,22.39-58.46t18.59-23.5q4.9-2.18,15.84-2.18,29.49,8.2,29.5,26.23,0,8.74-30.59,102.17-69.95,201.61-131.14,224c-4.38,1.81-11.3,3.83-20.77,6Q1720.27,5223.13,1712.09,5223.13Z" transform="translate(-699.76 -116.54)"/><path d="M2039.89,5191.44q-27.33,0-41-3.28-68.87-15.3-100-128.93-26.25-91.78-26.23-198.35,0-78.66,14.2-165,44.82-254.61,186.88-254.61,33.33,0,58.45,12,45.36,21.87,63.94,116.94,6,29.51,6,53,0,13.66-1.64,30.59-1.11,13.13-3.28,18-5.46,12-30.6,12-41.52,0-48.62-15.3-1.65-3.81-5.2-42.34a353.31,353.31,0,0,0-15-74.58,2.14,2.14,0,0,1-.55-1.64q-13.66-41-19.12-41c-2.19,0-5.83,3.11-10.92,9.29q-39.9,49.17-65,165.55-17,88-16.94,193.42,0,91.81,19.11,166.66,22.41,88.51,34.44,88.51,3.8,0,25.67-27.32,37.16-45.9,86.88-158.46,16.92-38.79,22.95-45.89,10.36-12,32.23-12a67.54,67.54,0,0,1,28.41,5.75q12.57,5.74,14.2,13.92,0,4.38-8.2,27.6t-21,55.73q-12.84,32.54-27,65.3a344.29,344.29,0,0,1-46.17,76.5q-27.61,34.41-53.29,48.08a82.54,82.54,0,0,1-21,7.37Q2062.28,5190.9,2039.89,5191.44Z" transform="translate(-699.76 -116.54)"/><path d="M2638.71,5184.35a111.7,111.7,0,0,1-23.5-2.73q-38.25-8.77-42.07-34.43-2.19-12.55-4.37-183-28.41,4.38-94,5.47l-73.2,2.73q3.26,88.53,3.27,102.72,0,19.13-1.08,22.94-5.49,17-44.27,16.95-45.89-.54-54.09-24.05-15.3-50.81-15.3-338.76,0-187.41,2.74-206.53,3.27-23.49,37.7-23.5,22.38,0,37.69,6.29T2389,4544q9.28,20.22,9.85,248.06v133.31q122.39-4.91,147.25-7.09t24.86-4.93q1.08-5.46,4.92-102.71,7.63-214.74,37.15-415.8,6-47,13.93-54.09t20.5-7.11q11.46,0,26.76,4.92,26.78,8.21,38.8,24.59,3.29,5.46,3.28,32.78,0,36.61-9.84,153.53Q2683,4834.68,2683,5056.49q0,47.54-.28,71t-2.45,34.42q-2.2,10.91-6.85,14.49c-3.09,2.36-7.75,4.26-13.93,5.73A90.57,90.57,0,0,1,2638.71,5184.35Z" transform="translate(-699.76 -116.54)"/><path d="M2896,5180q-23.51,0-37.16-5.47-47-20.23-73.22-166.1A938.61,938.61,0,0,1,2770.9,4845q0-124.57,35.52-239.86,28.93-88,73.22-124.58,26.21-21.84,56.82-21.86,86.33,0,124.57,86.88,50.26,110.93,50.28,191.78,0,103.26-94,148.62-21.86,10.38-57.11,21t-58.71,15c-6.21.72-10,1.82-11.49,3.27s-2.19,4.75-2.19,9.84q0,13.67,12.58,82.5,10.36,57.95,13.11,57.93,4.36,0,22.95-87.43l14.75-7.11a72.46,72.46,0,0,1,30.6-7.09q36,0,36.06,20.2,0,10.95-6,49.19-9.29,59-23.49,87.42-23,47-72.12,48.63Zm-11.47-304.35q36-10.92,51.36-16.94,47.53-17.47,72.11-61.73,10.92-23.49,10.93-62.3,0-83-42.62-174.84-11.49-24.57-14.75-24.58-6,0-21.86,30.59-30,57.94-45.34,153.54-9.85,63.93-9.83,117.46Z" transform="translate(-699.76 -116.54)"/><path d="M3581.18,5196.37a148.26,148.26,0,0,1-27.88-2.74q-24.59-3.84-40.7-12.56t-32-25.69q-23-23.48-27.59-46.44a217.7,217.7,0,0,1-4.64-43.17q0-69.37,59.56-278.11,34.41-135,38.78-170.47,2.18-21.84,2.19-42.07,0-43.7-5.74-74.85t-14.47-41.53q-5.47,0-32.25,24.59-39.88,37.69-83,122.4-101.08,183-106,367.17l-4.38,63.92q-2.18,19.68-41,25.14a117.65,117.65,0,0,1-15.29,1.08q-27.33,0-41.53-16.39-20.24-20.2-39.9-162.27-12.56-85.79-12.56-253.53,0-116.91,9-124t25.4-7.1q27.86,0,52.46,17.48a33.13,33.13,0,0,1,10.92,12.56q6.55,13.66,14.22,117.47,6,68.3,7.64,68.3c.36,0,.72-.55,1.09-1.64q3.82-16.92,21.31-57.91,41-95.06,79.22-152.45,65-97.78,134.43-97.8a115.14,115.14,0,0,1,34.42,5.47q42,11.49,66.11,36.06,39.33,47,39.34,157.36,0,63.38-30.06,179.75-66.12,245.88-66.11,300.52a130.06,130.06,0,0,0,3.83,29.51q5.46,26.78,12.56,26.77,3.83,0,19.67-7.66,14.74-10.92,37.16-37.42a351.46,351.46,0,0,0,40.43-59.83q68.85-163.35,79.22-201.06,3.83-13.66,10.11-18t19.94-4.38q4.92,0,19.13,6,16.38,7.13,16.39,16.41,0,9.84-9.29,39.33-22.4,75.42-72.67,197.25Q3671.32,5196.35,3581.18,5196.37Z" transform="translate(-699.76 -116.54)"/><path d="M1480.42,4130.53a14.29,14.29,0,0,1-10.75,4.91h-45.46a14.94,14.94,0,0,1-11.37-4.91,16.49,16.49,0,0,1-4.61-11.67V3721.38a16.51,16.51,0,0,1,4.61-11.67,15,15,0,0,1,11.37-4.92h45.46a14.34,14.34,0,0,1,10.75,4.92,16.51,16.51,0,0,1,4.61,11.67v397.48A16.49,16.49,0,0,1,1480.42,4130.53Z" transform="translate(-699.76 -116.54)"/><path d="M1767.61,3703h46.69q5.54,0,10.75,4.3t5.22,8v397.47q0,9.84-4.6,15.36a14.25,14.25,0,0,1-11.37,5.53H1751a22.48,22.48,0,0,1-13.21-4.61,24.41,24.41,0,0,1-8.91-10.75l-99.52-272.15,5.53,270.92a16.47,16.47,0,0,1-4.61,11.67,15.63,15.63,0,0,1-12,4.92h-45.46a16.9,16.9,0,0,1-12-4.92,15.48,15.48,0,0,1-5.22-11.67V3719.54a15.51,15.51,0,0,1,5.22-11.67,16.94,16.94,0,0,1,12-4.92H1646a24.73,24.73,0,0,1,14.13,4.61q6.76,4.61,8.6,10.75l89.08,266.62-6.14-265.39a16.51,16.51,0,0,1,4.61-11.67A14.93,14.93,0,0,1,1767.61,3703Z" transform="translate(-699.76 -116.54)"/><path d="M2094.43,3703.57h68.19a19.2,19.2,0,0,1,12.59,4.3,13.09,13.09,0,0,1,5.22,10.44v41.16a13.06,13.06,0,0,1-5.22,10.44,19.15,19.15,0,0,1-12.59,4.3H2110.4v343.42a16.49,16.49,0,0,1-4.61,11.67,14.94,14.94,0,0,1-11.36,4.91H2049a15.25,15.25,0,0,1-11.06-4.91,15.92,15.92,0,0,1-4.91-11.67V3774.21h-49.77c-5.32,0-9.62-1.32-12.9-4a13.11,13.11,0,0,1-4.91-10.75v-41.16a13.13,13.13,0,0,1,4.91-10.75q4.92-4,12.9-4h111.2Z" transform="translate(-699.76 -116.54)"/><path d="M2428.62,3704.79h44.23a17,17,0,0,1,12,4.92q5.22,4.92,5.23,11.06v396.86a15.5,15.5,0,0,1-5.23,11.67,17,17,0,0,1-12,4.91h-44.23a17,17,0,0,1-12-4.91,15.49,15.49,0,0,1-5.22-11.67V3946.84l-116.11.62v170.17a16.77,16.77,0,0,1-16.59,16.58h-45.46a15.22,15.22,0,0,1-11.05-4.91,15.89,15.89,0,0,1-4.92-11.67V3720.77a16.88,16.88,0,0,1,16-16h45.46a16.53,16.53,0,0,1,11.68,4.61,15,15,0,0,1,4.91,11.37v151.74l116.11-.62V3720.77q0-6.14,5.22-11.06A17,17,0,0,1,2428.62,3704.79Z" transform="translate(-699.76 -116.54)"/><path d="M2740.7,3778.51H2616.6v94h94a14.73,14.73,0,0,1,15.35,15.36v43a14.73,14.73,0,0,1-15.35,15.36h-94V4058h124.1a16.5,16.5,0,0,1,11.67,4.6,15,15,0,0,1,4.92,11.37v42.39A16.78,16.78,0,0,1,2740.7,4133H2559.47a15.66,15.66,0,0,1-12-4.91,16.47,16.47,0,0,1-4.61-11.67V3719.54a15.48,15.48,0,0,1,4.61-11.37,16.21,16.21,0,0,1,12-4.6H2740.7a16.5,16.5,0,0,1,11.67,4.6,15,15,0,0,1,4.92,11.37v42.39a16.78,16.78,0,0,1-16.59,16.58Z" transform="translate(-699.76 -116.54)"/><path d="M2960.91,1542.83l-21.51-3.56a4.69,4.69,0,0,0-3.81,1.18,5.61,5.61,0,0,0-2.18,3.45l-10.86,65.7a6.77,6.77,0,0,0,5.55,7.75l19.94,3.3a22.08,22.08,0,0,0,16.45-3.51,19.65,19.65,0,0,0,8.88-13.6l5.88-35.58a20.73,20.73,0,0,0-3.93-16.32A21.68,21.68,0,0,0,2960.91,1542.83ZM2114.1,1355.09l-1.18-.1a31.63,31.63,0,0,0-23.08,6.72,28.66,28.66,0,0,0-11.19,20.9l-11.38,129.1a31.81,31.81,0,0,0,7.27,23.52,29.94,29.94,0,0,0,21.46,11.65l1.58.13q12.63,1.13,22.57-7.75a32.27,32.27,0,0,0,11.08-21.91l11.38-129.1a28.92,28.92,0,0,0-7.16-22.52A31,31,0,0,0,2114.1,1355.09Zm664.38,150.69-1.15-.29a31.63,31.63,0,0,0-23.86,2.91,28.61,28.61,0,0,0-14.41,18.82l-32,125.59a31.84,31.84,0,0,0,3.39,24.39,29.88,29.88,0,0,0,19.3,14.94l1.54.4q12.28,3.12,23.52-4a32.18,32.18,0,0,0,14.46-19.83l32-125.59a28.93,28.93,0,0,0-3.45-23.37A31,31,0,0,0,2778.48,1505.78ZM1391.4,1937.67c15.47.45,32.2-7.22,48.34-14.46,4.84-2.17,9.59-4.3,14.23-6.2q34.08-13.92,68.19-27.74l27.53-11.08c3.32-1.76,6.64-3.52,10-5.31,10.66-5.74,21.35-11.36,32-17,13.49-7.09,27-14.18,40.36-21.5,57.18-31.32,106.39-47.65,154.89-51.39,14-1.07,49.83-3.85,78.27,9.81q-2.19-5.61-4.36-11.22c-2.88-7.45-5.76-14.9-8.78-22.28-3.67-9-8.37-19.18-15.42-27.17a41,41,0,0,0-6.58-5.45c-1.08-.79-2.16-1.57-3.21-2.38-.78,0-1.5,0-2.22,0-8.22,1.14-16.87,2.45-25.49,3.87-81.23,13.49-145.32,28.91-201.69,48.54-9,3.15-18.1,6.24-27.15,9.34-40.69,13.9-82.77,28.27-122.47,47.72-24.32,11.9-45.82,23.13-62.8,39.94-13,12.9-19.34,26.56-20.5,44.3l0,.75a19.79,19.79,0,0,0,3.54,8.43C1374.72,1936.4,1386.6,1937.59,1391.4,1937.67Zm545.7-558.6a28.9,28.9,0,0,0-10.06-21.38,30.94,30.94,0,0,0-22.56-7.74l-1.18,0a31.61,31.61,0,0,0-22,9.7,28.58,28.58,0,0,0-8.36,22.18l5.68,129.49a31.88,31.88,0,0,0,10.31,22.36,29.9,29.9,0,0,0,22.8,8.72l1.58-.07q12.67-.56,21.35-10.66a32.21,32.21,0,0,0,8.11-23.17ZM1845.85,1830c-18.88-7.4-40.46-6.25-60.94-4.47-25,2.19-49.34,8.28-76.24,15.41-47.62,12.65-95.64,33.21-146.79,62.85-4.49,2.61-9,5.17-13.52,7.74-7.42,4.21-14.84,8.43-22.17,12.82-5.82,3.5-11.67,7.53-17.31,11.43-5.17,3.56-10.34,7.13-15.63,10.42-18.2,11.31-46.08,26.24-75.51,33.1-11.1,2.59-20.19,3.43-28.6,2.7-1,0-2.74,0-4.44-.15-17.17,0-32.9-6.53-48.48-20.53a276.4,276.4,0,0,1-36.28-40l-1.88-2.5c-6.18-8.23-13.17-17.55-18.38-27.78-6.56-9.75-12.79-19.62-18.56-28.85-27.24-43.58-52.4-92.48-74.77-145.33-9.94-23.5-21.29-51-31.35-79.83-37.83,15.66-78.67,33.87-124.55,55.53-88.56,41.82-160.35,79.55-225.91,118.75-29.41,17.58-51.37,33-71.21,50.15l-1.63,1.4A268.88,268.88,0,0,0,710.92,1882c-3.75,4-7.49,8.29-11.16,12.6a329.77,329.77,0,0,1,35.84-7.15c25.39-3.81,52.85-4.71,86.43-2.82,32.59,1.84,62.68,4.37,92,7.73,14.57,1.66,29.76,3.17,46.43,4.6,1.82.16,3.65.28,5.48.4a128.29,128.29,0,0,1,15.57,1.7l2,.38c7.75,1.49,12,2.33,18-.37a12.43,12.43,0,0,1,5.17-1.13,12.29,12.29,0,0,1,6.26,1.73,16.14,16.14,0,0,1,7.36,12.65,15.05,15.05,0,0,1,0,4.54c-2.47,16.76-11.09,29.4-19.44,41.61-2.14,3.14-4.29,6.28-6.29,9.46l-9.13,14.46q-10.33,16.35-20.61,32.72c-18.07,28.89-35,61.55-50.26,97.07a527.58,527.58,0,0,0-42,170.9c-.53,7.34-.9,14.72-1.1,22,55.08-62.82,120-108.78,165.55-138.73,69.56-45.72,132.79-81,193.31-107.76,69.9-31,142.53-44,223.39-56.63,70.31-11,152.17-23.63,234-33.8,36.42-4.53,73.54-9.15,107.48-23.15,25.69-10.59,48.14-28.12,68.58-53.57a50.2,50.2,0,0,0,2.26-7.63c3.29-15.51,4.35-28-1.17-38.48C1861.19,1838.59,1855,1833.57,1845.85,1830Zm1114.71-484.11c2.11.89,4.22,1.78,6.28,2.77,60.59,20,111.26,33.28,159.4,41.8,78.16,13.83,149.09,15.16,210.83,3.92l4.62-.83c27.95-5,59.64-10.74,80.32-30.68,6.08-5.85,11.65-15.67,14.63-25.74a21.38,21.38,0,0,0-1.65-10.82c-4.36-10.38-14.76-15.14-19-16.71-15.08-5.52-33.17-3-50.67-.59-4.92.68-9.75,1.35-14.43,1.84l-40.58,4.19q-25.83,5.65-51.7,11c-53.59,11-124.1,24.28-194.22,29.76-53.56,4.18-94.71-5.37-125.16-29.18,2.6,5.14,5.46,9.58,9.52,12.94C2952.08,1342.33,2956.2,1344.05,2960.56,1345.88Zm761.81,133.23,1.72-.82c24.09-11.46,49-21.23,73.11-30.69l23.44-9.21c24-9.48,48.86-19.27,73.47-28.41,15.44-5.74,32.9-11.76,51.38-15.88q-6-3.12-12.11-6.22c-36.45-13.13-73-28.4-108.27-43.17q-15.37-6.43-30.72-12.8-63.46-26.22-127.12-51.85l-17.69-7.17c-43.8-17.75-94.76-38.08-145.33-54.66A1857.08,1857.08,0,0,0,3284,1160.8c-70.3-10.36-132.56-10.69-190-1a463.23,463.23,0,0,0-100.18,29c-12.17,5.07-25,10.82-36.39,18.61-.69.6-1.92,1.66-3.1,2.8-9.51,9.17-14.91,18.4-18.05,30.9-6.73,26.72,13.63,42.05,26.37,48.81,21.09,11.19,46.13,15.6,65.59,18.19,26.34,3.5,52.78,3.88,75.14,3.82,23.29-.08,50.66-.81,77.06-5.7s52.38-10.53,77.31-16.82l4.89-1.22c12.61-3.17,24.52-6.16,36.54-10,2.49-.8,5-1.63,7.46-2.46,9.07-3,18.45-6.17,28.35-7.87l6.37-1.11c22.47-3.94,45.7-8,69-4.14a85.57,85.57,0,0,1,14.82,3.78A67.23,67.23,0,0,1,3443,1274a62.42,62.42,0,0,1,19,18.61,66.65,66.65,0,0,1,8.24,14.77c5.68,13.89,8.48,29.68,9.08,51.2.59,21.26.32,43.86-.81,67.17-3.39,70.28-14.71,144.27-36.74,239.87-2.29,9.92-4.69,19.81-7.18,29.51a515.06,515.06,0,0,1,90.52,27.38c51.33,20.68,104.45,48,167.18,86.12,25.34,15.38,51.66,31.92,80.45,50.58,13.62,8.84,27.7,18,42.48,24.34,4,1.71,8,3.16,12,4.46-11.31-19.84-19.4-42.76-26.48-65.15-3.19-10.1-6.13-20.33-9.06-30.56-6.43-22.39-13.08-45.54-22.4-66.63a510.12,510.12,0,0,0-53.7-92.64,473.44,473.44,0,0,0-33.64-41.26c-3.26-3.56-6.83-7-10.44-10.41-9.23-8.81-18.79-17.92-24.76-30.44a14,14,0,0,1-.73-1.85,17.82,17.82,0,0,1,2.07-18.67C3667.07,1505.39,3697.73,1490.81,3722.37,1479.11Zm-270.93-63.75c.4-8.41.81-16.95,1-25.52-24.93,27.73-63.06,36.43-87.39,42-70.64,16.11-147.22,15.56-227.64-1.62-76-16.24-148.7-42.49-222.74-70.24l-39.23-14.77c-34.37-13-69.9-26.36-105-39l-12.53-3.93c-124.48-39.4-240.49-67-354.69-84.39-106.6-16.23-217.95-23.82-330.9-22.59-102.23,1.12-208.44,9.51-324.72,25.64-116.44,16.16-212.22,39-301.42,71.8-21.84,8-42,15.94-61.47,24.17l-2.59,1.24c-2,.94-3.94,1.86-5.87,2.84q-13.69,6.9-27.29,14c-20.21,10.62-38,20.2-54.24,29.29q-18.93,10.55-37.7,21.43c-9.38,7.42-19.36,13.86-29,20.11-18.17,11.74-35.34,22.83-48.73,39.8-22.86,29-26.86,73-11.88,130.72,11.85,45.7,28.88,94.2,52.07,148.28A919.79,919.79,0,0,0,1289,1857c11,17.28,23.52,36.25,37.77,53.15.41-15.79,5.62-32.12,15.29-47.09,20.08-31.06,51.11-48.43,83.83-64.91,55-27.71,109.34-48.05,161.55-60.43,87.46-20.76,154.77-33.1,218.26-40,66-7.2,128.16-10.8,187-10.8,76,0,146.45,6,212.75,18.08l7.08,1c13.63,1.86,27.36,4.25,40.64,6.56l14.49,2.49c31.95,5.4,63.94,12.69,94.88,19.74l22.52,5.11c64,14.37,128.79,30.65,191.48,46.4l17.43,4.38Q2698,1816.78,2802,1843.37l27.49,7.05c57.37,14.72,116.69,29.95,175.45,42.16,48.43,10.08,99.62,17,165.9,22.26,12.67-.62,25.56-1.57,38.33-2.84,29.73-2.93,55.62-11.83,79.17-27.22,19.8-12.94,38.4-31.53,56.85-56.83,17.74-24.33,32.73-52.26,44.54-83,12.23-31.84,20.27-66.75,28-100.51l.36-1.58c19.54-84.86,30-154.73,32.95-219.87ZM1452.67,1698.07a9.21,9.21,0,0,1-4.83,5.89l-26.36,12.88a9.63,9.63,0,0,1-8,.37,10.6,10.6,0,0,1-6-5.46l-112.61-230.4a10.63,10.63,0,0,1-.63-8.07,9.65,9.65,0,0,1,5.19-6.07l26.35-12.88a9.24,9.24,0,0,1,7.63-.19,10.61,10.61,0,0,1,6,5.46L1452,1690A10.58,10.58,0,0,1,1452.67,1698.07Zm151.49-88.28a72.71,72.71,0,0,1-16.13,31.44,69,69,0,0,1-28.52,19.53L1548,1665a68.11,68.11,0,0,1-28,4.15,72.8,72.8,0,0,1-27.62-7.4,80,80,0,0,1-38.27-43.39l-.13-.37a13.29,13.29,0,0,1,.26-10.23,11.93,11.93,0,0,1,7-6.79l24.94-9.13,1.48-.55a2.3,2.3,0,0,0,1.63-.17l.37-.14.37-.13a14.8,14.8,0,0,1,7.22,2.42,11,11,0,0,1,4.55,5.51l1.37,3.72a27.19,27.19,0,0,0,10.68,13.6,25.11,25.11,0,0,0,16.55,4.28,28.46,28.46,0,0,0,8.23-1.75l1.11-.41c2-.72,3.06-1.25,3.22-1.59l.37-.14a27.17,27.17,0,0,0,14.37-14.34,25.87,25.87,0,0,0,.55-19.83l-6.08-18.88q-7.32-18.84-25.31-20.7-10.69-1.56-29.58,4.51l-7.35,1.84q-31.71,9.09-48.73-6.84t-27.24-43.84l-4.4-13.16-1.54-5.35q-9.88-24.64,1.61-47.44,11.57-24.92,41.61-35.08l11.53-4.23a67.68,67.68,0,0,1,26.78-4.11,70.38,70.38,0,0,1,26.46,6.56,66.41,66.41,0,0,1,22.12,16.59,76.59,76.59,0,0,1,14.45,24.46l.14.37a11.61,11.61,0,0,1-.23,9.17,11.09,11.09,0,0,1-6.47,5.95l-25.68,9.41a11,11,0,0,1-8.12-.83,10.63,10.63,0,0,1-5.38-6l-1-2.61a24.21,24.21,0,0,0-10.34-12.67,28.68,28.68,0,0,0-16.49-4.1,25.13,25.13,0,0,0-7.85,1.62l-1.12.4-1.86.69c-.16.34-.73.69-1.72,1q-10,4.93-13.89,14a24.47,24.47,0,0,0-.33,18.69l7.91,21.59q5.07,10.39,15.2,11.53t30.13-5.34q32.74-12,56.08,1l23.33,13,12.81,35a160.38,160.38,0,0,1,8,30.61A77.44,77.44,0,0,1,1604.16,1609.79Zm181-249.78a12.26,12.26,0,0,1-7.53,4.13l-33.18,5.79,38.06,218.27a10.62,10.62,0,0,1-1.63,7.93,9.65,9.65,0,0,1-6.68,4.39l-28.89,5a9.89,9.89,0,0,1-7.58-1.9,10.26,10.26,0,0,1-4.41-6.88l-38.07-218.27-31.63,5.52a12.71,12.71,0,0,1-8.64-1.11,8.45,8.45,0,0,1-4.32-6.29l-4.56-26.16a8.47,8.47,0,0,1,1.93-7.38,12.81,12.81,0,0,1,7.76-4l41.78-7.29,28.89-5,43.34-7.56a12.42,12.42,0,0,1,8.48,1.34,8.45,8.45,0,0,1,4.48,6.06l4.56,26.16A8.42,8.42,0,0,1,1785.2,1360Zm200.52,186.73a79.9,79.9,0,0,1-26.47,29.73,69.45,69.45,0,0,1-37.15,12.34l-13.07.57a73.81,73.81,0,0,1-38.47-8.82,77.51,77.51,0,0,1-41.35-65.44l-5.72-130.27a75.29,75.29,0,0,1,35.12-67.8,74.39,74.39,0,0,1,37.58-11.57l13.06-.57a75.84,75.84,0,0,1,38.45,8.23,74.67,74.67,0,0,1,28.92,26.11q10.64,16.59,11.58,38l6.13,130.65A75.6,75.6,0,0,1,1985.72,1546.74Zm207.79-153.61-11.09,130.33a75.64,75.64,0,0,1-13.64,37.39,79.83,79.83,0,0,1-30.15,26,69.46,69.46,0,0,1-38.45,7.36l-13-1.15a73.84,73.84,0,0,1-37-13.81,77.57,77.57,0,0,1-32.4-70.3l11.46-129.9a75.23,75.23,0,0,1,43.72-62.59,74.29,74.29,0,0,1,38.77-6.53l13,1.15a75.76,75.76,0,0,1,37,13.21A74.64,74.64,0,0,1,2187,1354Q2195.39,1371.81,2193.51,1393.13Zm208.3,20.57a28.55,28.55,0,0,0-11.63-12.37,24.94,24.94,0,0,0-7.48-2.91l-1.16-.26-1.93-.43a3.15,3.15,0,0,1-2,0q-11.09-1.29-19.23,4.19A24.44,24.44,0,0,0,2348,1417.4l-5.06,22.43q-1.36,11.48,6.52,17.92t28.21,11.85q34,7.68,46.59,31.23l12.57,23.56s-2.73,12.11-8.2,36.34a160.55,160.55,0,0,1-9.83,30.09,77.16,77.16,0,0,1-18,25,72.62,72.62,0,0,1-30.6,17.68,69.1,69.1,0,0,1-34.54,1l-12-2.71a68.09,68.09,0,0,1-25.8-11.71,73,73,0,0,1-19.2-21.19,80.15,80.15,0,0,1-8.63-57.2l.09-.39a13.31,13.31,0,0,1,5.76-8.45,12,12,0,0,1,9.58-1.91l25.9,5.85,1.55.35a2.26,2.26,0,0,0,1.46.73l.38.09.39.09a14.79,14.79,0,0,1,4.75,5.94,11.09,11.09,0,0,1,.84,7.1l-.87,3.87a27.23,27.23,0,0,0,1.6,17.22,25.13,25.13,0,0,0,11.59,12.57,28.89,28.89,0,0,0,7.86,3l1.16.26c2.06.46,3.25.6,3.57.4l.38.09a27.2,27.2,0,0,0,19.86-4.26,25.86,25.86,0,0,0,11.2-16.37l5.14-19.16q4-19.8-10.05-31.11-8.14-7.11-27.31-12.25l-7.17-2.43q-31.57-9.57-37.23-32.17t.87-51.61l3.44-13.44,1.6-5.33q5.07-26.07,27.08-39,23.22-14.67,54-6.93l12,2.7a67.81,67.81,0,0,1,24.73,11.07,70.5,70.5,0,0,1,18.68,19.85,66.38,66.38,0,0,1,9.59,25.93,76.69,76.69,0,0,1-1.12,28.4l-.08.38a11.58,11.58,0,0,1-5.16,7.58,11.1,11.1,0,0,1-8.67,1.49l-26.68-6a11.11,11.11,0,0,1-6.37-5.09,10.65,10.65,0,0,1-1.24-8l.61-2.7A24.18,24.18,0,0,0,2401.81,1413.7Zm201.72,285.19a10.91,10.91,0,0,1-8.3.88l-27.4-8a10.88,10.88,0,0,1-6.52-5.21,10,10,0,0,1-1.13-8.17l30.92-105.77-72-20.63-30.8,105.38a10.82,10.82,0,0,1-13.27,7.27l-28.16-8.23a9.84,9.84,0,0,1-5.95-5,10.31,10.31,0,0,1-.94-8.12l71.84-245.77a10.88,10.88,0,0,1,12.78-7l28.16,8.23a10.68,10.68,0,0,1,6.39,5,9.67,9.67,0,0,1,1,7.92l-27.47,94,72,20.64,27.36-93.59a9.59,9.59,0,0,1,5.24-5.9,11,11,0,0,1,8.3-.88l27.4,8a11,11,0,0,1,6.52,5.21,9.64,9.64,0,0,1,1.24,7.8l-71.84,245.76A10,10,0,0,1,2603.53,1698.89ZM2818.78,1683a75.44,75.44,0,0,1-19.49,34.71,79.88,79.88,0,0,1-33.93,20.8,69.49,69.49,0,0,1-39.13,1.06l-12.68-3.23a73.76,73.76,0,0,1-34.27-19.58,77.52,77.52,0,0,1-20.65-74.6l32.22-126.36a75.29,75.29,0,0,1,53.23-54.74,74.26,74.26,0,0,1,39.32-.19l12.68,3.23a75.74,75.74,0,0,1,34.42,19,74.6,74.6,0,0,1,20.12,33.36q5.39,19,.1,39.7Zm211.43-112.19-7.89,47.71a49.1,49.1,0,0,1-12.41,25.26,57.53,57.53,0,0,1-24.16,16.1l.26.84,20.09,121.44c.21.3.2,1.24-.06,2.8a5.28,5.28,0,0,1-2.83,3.75,8.19,8.19,0,0,1-5.57.89l-34-5.63a12.89,12.89,0,0,1-7.18-4,13.5,13.5,0,0,1-3.91-6.67l-15.51-103a21,21,0,0,0-9.32-4.36,14,14,0,0,0-11.34,2.95l-15.78,95.41a8.08,8.08,0,0,1-4.19,5.94,11.55,11.55,0,0,1-7.85,1.31l-31.29-5.17a12.18,12.18,0,0,1-7.4-3.84,8.06,8.06,0,0,1-2.06-7L2874.5,1594l7.9-47.71,7.24-43.79a10.9,10.9,0,0,1,4.39-7.11,10.42,10.42,0,0,1,8.37-2l30.89,5.11.39.06,45.37,7.5q26.91,4.86,41,22.86T3030.21,1570.76Zm166-29.44-2.77,26.41a8.44,8.44,0,0,1-4.06,6.35A12.4,12.4,0,0,1,3181,1576l-33.5-3.52-23.12,220.36a10.62,10.62,0,0,1-3.74,7.18,9.64,9.64,0,0,1-7.62,2.39l-29.17-3.06a9.85,9.85,0,0,1-6.77-3.9,10.29,10.29,0,0,1-2.37-7.82l23.12-220.36-31.93-3.34a12.73,12.73,0,0,1-8-3.44,8.41,8.41,0,0,1-2.43-7.22l2.77-26.42a8.45,8.45,0,0,1,3.88-6.56,12.73,12.73,0,0,1,8.54-1.7l42.18,4.43,29.17,3.06,43.76,4.59a12.38,12.38,0,0,1,7.79,3.6A8.48,8.48,0,0,1,3196.2,1541.32Z" transform="translate(-699.76 -116.54)"/><path d="M2050,2056.5c5.54,19.05,11.94,37.88,18.9,56.46a913.5,913.5,0,0,0,47.83,106c18.52,35,40,68.36,59.82,102.63,10.72,18.49,20.16,38.11,33.41,55,10.32,13.13,34.44,38.34,53,35.7,6.73-.95,17.26-5.92,21.7-11.06,32.78-38,12-149.43,4.61-207.87C2279.31,2115,2262.91,2037,2232,1964c-11.16-26.38-30-41.87-58.86-44.6-3.78-.36-7.5-1.21-11.95-2,2.61.43,16.14-31.74,18.06-35.61,6.16-12.36,11.87-25,15.38-38.42,1.06-4.06,1.92-8.25,1.47-12.42-1.78-16.68-19.59-16.43-30.53-9.49-11.28,7.16-19.29,18.06-28.79,27.22,1-11.39,1.95-21.4,2.83-31.42a56.31,56.31,0,0,0-1-17.91c-3.85-16.37-20.27-21.09-32.4-9.45-7.92,7.61-11,17.78-14.26,27.78-1.4,4.23-2.4,8.59-3.88,14-9.9-14.73-20.76-26.61-34.76-35.24-7.25-4.47-15.07-9.4-23.44-3.56-8.17,5.7-7,14.65-5.5,23.16,2.53,14,8.22,26.87,13.64,39.86,1.44,3.44,3,6.82,5,11.3-13.42-4.21-25.9-7.47-39.08-4.93-9,1.74-16.78,4.69-20.32,14.38-3.77,10.31-.49,19,6.25,26.25,13.85,15,31.08,25.3,49.44,33.78,7.6,3.51,15.41,6.6,23.71,10.12C2038.81,1981.44,2038.78,2018.6,2050,2056.5Zm14.46-49.67c.41-20.68,7.11-38.58,23.24-52.4a59.42,59.42,0,0,1,25.21-12.73,173.47,173.47,0,0,1,40.85-4.92c32.28,0,48.61,12.58,58,45.41-17.48,2-33,7.65-45.26,19.54a6.41,6.41,0,0,0,4.4,11.09c17.21-.18,33.79-7.58,51.48-5.32,16.57,42.89,31.21,86.69,41,132.65a206.79,206.79,0,0,0-47.8,12.79c-4.24,1.72-8.59,3.26-12.14,6.28a10.3,10.3,0,0,0-3.87,8.89c.62,5,4.81,6.47,8.82,6.47a100.85,100.85,0,0,0,14.73-1c14.54-2.1,28.68-6.16,42.72-9.6,2,2.76,1.92,5.27,2.21,7.69,2.75,23.09,32.95,171.32,11.5,214.5-5.05,10.16-19.67,13.86-34.4,5-6.38-3.83-41.81-57.79-53-75.29-2.33-3.65-4.14-7.64-6.47-12,6.09-1.75,11.19-3.06,16.19-4.69s10.14-3.11,14.57-6.12c3.74-2.56,6.21-6,5-10.76s-5-6.51-9.65-6.62a47.64,47.64,0,0,0-12.55,1.41c-8,2-14.81,6.44-22.69,10.41-23.29-33.76-80.74-156.18-89-189.51a113.81,113.81,0,0,1,28.54-10.22,167.15,167.15,0,0,0,30.39-8.78c4.49-1.85,8.09-5.05,7.1-10.43s-5.72-6.52-10.63-6.94a62.91,62.91,0,0,0-20.53,1.87c-14.83,3.71-29.13,8.61-41.19,18.77C2070.29,2055.81,2064,2027.85,2064.43,2006.83Z" transform="translate(-699.76 -116.54)"/><path d="M2565,1946.85c8.3-3.52,16.1-6.61,23.71-10.12,18.36-8.48,35.58-18.82,49.43-33.78,6.74-7.28,10-15.94,6.26-26.25-3.54-9.69-11.28-12.64-20.32-14.38-13.19-2.54-25.66.72-39.08,4.93,2-4.48,3.55-7.86,5-11.3,5.43-13,11.12-25.89,13.64-39.86,1.54-8.51,2.68-17.46-5.5-23.16-8.36-5.84-16.18-.91-23.44,3.56-14,8.63-24.85,20.51-34.75,35.24-1.49-5.42-2.49-9.78-3.88-14-3.3-10-6.34-20.17-14.27-27.78-12.12-11.64-28.55-6.92-32.39,9.45a56.61,56.61,0,0,0-1,17.91c.88,10,1.81,20,2.83,31.42-9.49-9.16-17.5-20.06-28.79-27.22-10.93-6.94-28.74-7.19-30.53,9.49-.44,4.17.42,8.36,1.48,12.42,3.5,13.39,9.22,26.06,15.37,38.42,1.93,3.87,15.46,36,18.06,35.61-4.44.74-8.17,1.59-11.94,2-28.85,2.73-47.7,18.22-58.87,44.6-30.87,73-47.26,151-57.17,229.31-7.4,58.44-28.17,169.9,4.6,207.87,4.44,5.14,15,10.11,21.71,11.06,18.54,2.64,42.66-22.57,53-35.7,13.25-16.87,22.7-36.49,33.42-55,19.87-34.27,41.29-67.59,59.81-102.63a911.82,911.82,0,0,0,47.83-106c7-18.58,13.37-37.41,18.91-56.46C2589.29,2018.6,2589.27,1981.44,2565,1946.85Zm-18.14,135.38c-12.05-10.16-26.35-15.06-41.19-18.77a62.85,62.85,0,0,0-20.52-1.87c-4.91.42-9.67,1.68-10.64,6.94s2.61,8.58,7.11,10.43a166.92,166.92,0,0,0,30.39,8.78,114,114,0,0,1,28.54,10.22c-8.24,33.33-65.7,155.75-89,189.51-7.88-4-14.68-8.45-22.68-10.41a47.64,47.64,0,0,0-12.55-1.41c-4.63.11-8.4,1.88-9.66,6.62s1.22,8.2,5,10.76c4.42,3,9.56,4.47,14.57,6.12s10.1,2.94,16.18,4.69c-2.33,4.36-4.14,8.35-6.47,12-11.15,17.5-46.57,71.46-53,75.29-14.72,8.85-29.34,5.15-34.39-5-21.45-43.18,8.75-191.41,11.49-214.5.29-2.42.22-4.93,2.22-7.69,14,3.44,28.18,7.5,42.71,9.6a101.09,101.09,0,0,0,14.74,1c4,0,8.19-1.44,8.81-6.47a10.3,10.3,0,0,0-3.86-8.89c-3.55-3-7.9-4.56-12.14-6.28a206.92,206.92,0,0,0-47.8-12.79c9.76-46,24.4-89.76,41-132.65,17.68-2.26,34.27,5.14,51.47,5.32a6.42,6.42,0,0,0,4.41-11.09c-12.22-11.89-27.79-17.54-45.27-19.54,9.4-32.83,25.74-45.36,58-45.41a173.47,173.47,0,0,1,40.85,4.92,59.39,59.39,0,0,1,25.2,12.73c16.13,13.82,22.84,31.72,23.24,52.4C2564.06,2027.85,2557.78,2055.81,2546.86,2082.23Z" transform="translate(-699.76 -116.54)"/></svg>


