<svg xmlns="http://www.w3.org/2000/svg" viewBox="0 0 4220.04 4191.83" width="500" height="500"><path style="fill-rule:evenodd;" d="M3905.22,4155.32c-68.17,26.43-68.61,30-142.29,30H3058.46v39.77H3765c69,0,75.15-1.15,140.18,20.68-68.17,26.41-68.61,24.67-142.29,24.67l-704.47,10.69H2969c-52.14,0-83.49-48.28-108.59-89.34-77-126-1645.14,129.84-1997.26,74.3-306-48.23-305.13-264.28,0-312.39,352.13-55.52,1920.28,200.34,1997.26,74.32,25.07-41.05,56.45-89.34,108.59-89.34h89.45L3765,3949.39c69,0,75.15-1.15,140.18,20.67-68.17,26.41-68.61,24.69-142.29,24.69H3058.46v39.78H3765c69,0,75.15,4.16,140.18,26-68.17,26.41-68.61,30-142.29,30H3058.46v38.78H3765C3834.08,4129.33,3840.19,4133.5,3905.22,4155.32Z" transform="translate(-115.07 -89.33)"/><path d="M3792.46,2345.46c64,1.87,111.88,26.52,155.66,64.2,25,21.5,55,38.18,84.74,52.8,19.36,9.5,42.21,13.6,64,16,21.44,2.41,41.72-6.45,50.59-27.15,9.1-21.23,8.26-44.81-7.52-63.1-13.13-15.23-28.14-30.81-45.6-40-94-49.43-191.71-51.66-291.14-17.75C3800.46,2331.42,3799,2336.05,3792.46,2345.46Z" transform="translate(-115.07 -89.33)"/><path d="M3732,2234.63c9.15-5.39,14.9-8.31,20.16-12a119.75,119.75,0,0,1,74.21-21.86c14.43.48,29.09.81,43.32-1.15a210.08,210.08,0,0,0,41.66-10.72c15.58-5.59,21.21-18.87,20.8-34.57-.45-17-10.34-30.13-27.07-34.56-30.64-8.13-60.62-3.79-87.92,11.15-37.73,20.65-67.26,50.09-85,90C3731.17,2223.11,3732,2226,3732,2234.63Z" transform="translate(-115.07 -89.33)"/><path d="M3783.7,2479.27c31.78,46.18,54.33,81.76,80,114.89,10.15,13.09,26.22,23.13,41.6,30.19,18.4,8.45,43-8.27,43.4-28.94.25-14.46-.89-31.5-8.22-43.09C3907.35,2499.77,3859,2475.51,3783.7,2479.27Z" transform="translate(-115.07 -89.33)"/><path d="M666.25,2345.46c-64,1.87-111.88,26.52-155.66,64.2-25,21.5-54.94,38.18-84.74,52.8-19.36,9.5-42.21,13.6-64,16-21.43,2.41-41.72-6.45-50.59-27.15-9.09-21.23-8.26-44.81,7.52-63.1,13.13-15.23,28.14-30.81,45.6-40,94-49.43,191.71-51.66,291.14-17.75C658.26,2331.42,659.69,2336.05,666.25,2345.46Z" transform="translate(-115.07 -89.33)"/><path d="M726.72,2234.63c-9.15-5.39-14.9-8.31-20.16-12a119.73,119.73,0,0,0-74.21-21.86c-14.43.48-29.09.81-43.32-1.15A210.08,210.08,0,0,1,547.37,2189c-15.58-5.59-21.2-18.87-20.79-34.57.44-17,10.33-30.13,27.06-34.56,30.64-8.13,60.62-3.79,87.92,11.15,37.73,20.65,67.26,50.09,85,90C727.54,2223.11,726.72,2226,726.72,2234.63Z" transform="translate(-115.07 -89.33)"/><path d="M675,2479.27c-31.78,46.18-54.33,81.76-80,114.89-10.15,13.09-26.23,23.13-41.61,30.19-18.4,8.45-43.05-8.27-43.4-28.94-.25-14.46.9-31.5,8.22-43.09C551.36,2499.77,599.73,2475.51,675,2479.27Z" transform="translate(-115.07 -89.33)"/><path d="M2267.26,455.82a82.61,82.61,0,0,0-23.7-25.49q-14.73-10.4-34.86-14.32l-6.09-1.18q-20.13-3.91-37.92.15a82,82,0,0,0-31.76,14.71,92.52,92.52,0,0,0-23.84,27.67A123.09,123.09,0,0,0,2095,495.91q-4.29,22-1.47,41.25a95.54,95.54,0,0,0,11.73,34.58,77.87,77.87,0,0,0,23.94,25.55q15,10.2,35.14,14.12l6.08,1.19q20.12,3.92,37.64,0a78.39,78.39,0,0,0,31.53-14.75,95.6,95.6,0,0,0,23.84-27.67q9.83-16.79,14.11-38.79a123,123,0,0,0,1.42-41A92.6,92.6,0,0,0,2267.26,455.82Zm-1252.92,654c20.11.58,41.86-9.38,62.85-18.8,6.28-2.82,12.46-5.6,18.5-8.06q44.3-18.1,88.66-36.06l35.79-14.42q6.46-3.42,12.94-6.9c13.85-7.47,27.75-14.77,41.66-22.08,17.54-9.22,35.07-18.43,52.48-28,74.34-40.71,138.33-61.94,201.38-66.81,18.21-1.39,64.79-5,101.77,12.76q-2.85-7.29-5.67-14.59c-3.74-9.69-7.49-19.37-11.42-29-4.76-11.64-10.87-24.94-20-35.33a54.66,54.66,0,0,0-8.56-7.09c-1.4-1-2.8-2-4.17-3.09-1-.06-2-.06-2.88-.06-10.7,1.48-21.94,3.18-33.15,5-105.61,17.52-188.94,37.58-262.24,63.1q-17.64,6.13-35.3,12.14c-52.9,18.08-107.61,36.76-159.23,62.05-31.61,15.48-59.57,30.07-81.64,51.93-16.93,16.77-25.15,34.53-26.65,57.59l0,1a25.69,25.69,0,0,0,4.6,11C992.64,1108.18,1008.09,1109.73,1014.34,1109.83ZM2556.71,505l-32.47-9.59-30.79,104.26a357,357,0,0,0,38.37,8.1,132.54,132.54,0,0,0,36.25,1q16.74-2,29.14-10.28t17.66-26.11q6.75-22.86-8.56-40.06T2556.71,505Zm328.56,90.79-33.09-7.16-23,106.26a359.32,359.32,0,0,0,38.88,5.24,132.76,132.76,0,0,0,36.22-1.68q16.54-3.24,28.3-12.41t15.67-27.35q5-23.3-11.49-39.32T2885.27,595.81ZM4045,513.62l2.24-1.07c31.32-14.9,63.72-27.61,95.06-39.9l30.47-12c31.24-12.32,63.54-25.05,95.53-36.94,20.07-7.46,42.78-15.28,66.8-20.64q-7.86-4.05-15.75-8.09c-47.38-17.06-94.85-36.92-140.76-56.12q-20-8.37-40-16.65c-55-22.73-110.15-45.07-165.28-67.42l-23-9.31c-57-23.09-123.21-49.51-189-71.07a2414.76,2414.76,0,0,0-286.35-74.67c-91.4-13.47-172.36-13.9-247-1.25a602.55,602.55,0,0,0-130.26,37.64c-15.81,6.59-32.5,14.07-47.31,24.19-.9.78-2.5,2.16-4,3.64-12.36,11.92-19.38,23.93-23.47,40.18-8.75,34.75,17.72,54.67,34.29,63.46,27.41,14.55,60,20.29,85.28,23.65,34.24,4.56,68.62,5.05,97.69,5,30.28-.1,65.87-1.06,100.2-7.41s68.1-13.7,100.51-21.87l6.35-1.59c16.4-4.11,31.89-8,47.51-13,3.25-1,6.48-2.12,9.71-3.2,11.79-3.94,24-8,36.86-10.23l8.28-1.45c29.21-5.12,59.41-10.42,89.71-5.38a110.5,110.5,0,0,1,19.27,4.92,87.47,87.47,0,0,1,23.12,10,81.31,81.31,0,0,1,24.7,24.2,86.57,86.57,0,0,1,10.71,19.19c7.38,18.07,11,38.6,11.81,66.58.77,27.64.41,57-1.05,87.33-4.41,91.38-19.14,187.57-47.77,311.88-3,12.9-6.1,25.75-9.33,38.36a670,670,0,0,1,117.68,35.61c66.74,26.88,135.81,62.46,217.37,112,32.95,20,67.16,41.49,104.59,65.76,17.72,11.49,36,23.36,55.24,31.65,5.17,2.22,10.37,4.1,15.65,5.8-14.7-25.8-25.23-55.6-34.42-84.72-4.15-13.13-8-26.42-11.79-39.72-8.36-29.11-17-59.21-29.12-86.64-18.1-41-41.58-81.47-69.82-120.44a614.13,614.13,0,0,0-43.74-53.65c-4.23-4.64-8.88-9.06-13.57-13.54-12-11.45-24.43-23.3-32.2-39.57a19,19,0,0,1-.94-2.4,23.14,23.14,0,0,1,2.7-24.28C3973.12,547.78,4013,528.83,4045,513.62ZM3054.52,340.39c2.75,1.16,5.49,2.31,8.17,3.61,78.78,26,144.65,43.27,207.25,54.35,101.62,18,193.85,19.7,274.12,5.09l6-1.09c36.34-6.54,77.54-14,104.43-39.87,7.91-7.62,15.15-20.38,19-33.48a27.67,27.67,0,0,0-2.15-14.06c-5.67-13.51-19.2-19.69-24.74-21.73-19.61-7.18-43.13-3.92-65.89-.76-6.39.88-12.67,1.75-18.75,2.38l-52.77,5.45q-33.57,7.37-67.22,14.29c-69.68,14.28-161.35,31.58-252.51,38.69-69.65,5.44-123.14-7-162.74-37.94,3.38,6.69,7.1,12.46,12.38,16.84C3043.5,335.77,3048.85,338,3054.52,340.39ZM1605.2,969.83c-24.54-9.62-52.61-8.13-79.23-5.82-32.56,2.85-64.16,10.77-99.13,20-61.91,16.45-124.34,43.17-190.85,81.72-5.84,3.39-11.71,6.72-17.57,10.06-9.65,5.48-19.3,11-28.84,16.67-7.57,4.55-15.16,9.79-22.5,14.86-6.72,4.63-13.44,9.27-20.33,13.55-23.66,14.71-59.91,34.12-98.18,43-14.42,3.38-26.24,4.46-37.17,3.51-1.35.06-3.56,0-5.78-.19-22.33,0-42.77-8.5-63-26.7a358.81,358.81,0,0,1-47.18-52.06l-2.44-3.25c-8-10.7-17.12-22.82-23.89-36.11-8.53-12.68-16.63-25.52-24.13-37.51-35.43-56.66-68.14-120.24-97.21-189-12.93-30.55-27.69-66.36-40.77-103.79-49.19,20.36-102.29,44-161.93,72.19C429.89,845.44,336.55,894.5,251.31,945.48c-38.24,22.85-66.79,42.95-92.59,65.19l-2.11,1.82c-9.18,7.9-18.67,16.08-27,25-4.89,5.2-9.75,10.78-14.52,16.38a427.82,427.82,0,0,1,46.6-9.29c33-5,68.71-6.14,112.38-3.67,42.37,2.4,81.49,5.68,119.6,10,18.94,2.17,38.68,4.13,60.36,6,2.36.2,4.74.36,7.12.52a166.79,166.79,0,0,1,20.24,2.21l2.56.49c10.09,2,15.63,3,23.42-.48a16.3,16.3,0,0,1,6.72-1.47,15.81,15.81,0,0,1,8.14,2.26c5.37,3.18,9,9.48,9.58,16.44a19.85,19.85,0,0,1-.07,5.9c-3.21,21.8-14.43,38.22-25.27,54.1-2.79,4.09-5.58,8.16-8.19,12.31L486.4,1168q-13.44,21.26-26.8,42.54c-23.49,37.57-45.48,80-65.35,126.21a685.28,685.28,0,0,0-54.66,222.21c-.69,9.54-1.17,19.13-1.43,28.6,71.61-81.68,156-141.44,215.25-180.37,90.43-59.45,172.65-105.28,251.34-140.11,90.88-40.24,185.3-57.15,290.45-73.63,91.4-14.33,197.83-30.72,304.23-44,47.35-5.89,95.62-11.9,139.75-30.1,33.4-13.77,62.58-36.56,89.17-69.64a66,66,0,0,0,2.93-9.94c4.28-20.15,5.65-36.39-1.52-50C1625.15,981,1617.11,974.48,1605.2,969.83Zm2087.55-539.1c.52-10.93,1.06-22,1.3-33.18-32.42,36.05-82,47.37-113.63,54.59-91.84,21-191.42,20.24-296-2.1-98.75-21.11-193.33-55.25-289.6-91.32l-51-19.21c-44.68-16.84-90.89-34.27-136.46-50.74l-16.3-5.12c-161.84-51.22-312.68-87.11-461.16-109.71-138.6-21.1-283.37-31-430.23-29.38-132.91,1.46-271,12.36-422.19,33.34-151.4,21-275.93,50.67-391.91,93.35-28.39,10.45-54.53,20.73-79.92,31.43l-3.36,1.61c-2.57,1.22-5.13,2.42-7.64,3.69q-17.8,9-35.47,18.26c-26.29,13.82-49.36,26.28-70.54,38.09q-24.58,13.73-49,27.86c-12.19,9.65-25.17,18-37.73,26.15C778.29,433.6,756,448,738.57,470.09c-29.73,37.68-34.93,94.87-15.45,170,15.4,59.41,37.55,122.47,67.7,192.79,26.49,61.81,56.88,119.72,90.34,172.12,14.34,22.46,30.58,47.12,49.1,69.1.53-20.53,7.31-41.77,19.88-61.22,26.12-40.39,66.46-63,109-84.4,71.49-36,142.16-62.47,210-78.57,113.71-27,201.23-43,283.77-52,85.86-9.36,166.64-14.05,243.11-14.05,98.8,0,190.41,7.82,276.63,23.51l9.19,1.27c17.72,2.43,35.58,5.53,52.85,8.53l18.83,3.24c41.54,7,83.14,16.5,123.36,25.67l29.29,6.64c83.17,18.69,167.45,39.85,249,60.34l22.66,5.69q135.32,34,270.54,68.54l35.75,9.17c74.58,19.13,151.71,38.93,228.11,54.82,63,13.1,129.52,22,215.69,28.93,16.48-.8,33.24-2,49.84-3.69,38.65-3.81,72.32-15.38,102.93-35.39,25.75-16.83,49.93-41,73.93-73.89,23.06-31.63,42.55-67.94,57.91-108,15.89-41.4,26.34-86.79,36.45-130.68l.46-2c25.41-110.34,39-201.18,42.85-285.88ZM1018.56,822.63l-1-2.15q5.15-15.69-3.2-41.32a463.33,463.33,0,0,0-23.21-56.56L935,605.7a464.71,464.71,0,0,0-29.66-53.46Q890.5,529.73,875,523.93l-1-2.15L984.87,468.5l1,2.15q-5.14,15.71,3.19,41.31a463.17,463.17,0,0,0,23.22,56.56l56.17,116.91a465.56,465.56,0,0,0,29.66,53.46q14.79,22.51,30.27,28.3l1,2.15Zm122.28-290.54A85.69,85.69,0,0,1,1122,562.46q-13.2,14.1-35,22.56l-10.89-28q28.29-14.07,29-39.92l-3.55,1.38q-20.44,7.95-37.86.66t-25-26.85a45,45,0,0,1,1.74-38.28,48,48,0,0,1,11.6-14.23,56.8,56.8,0,0,1,16.21-9.63,53.23,53.23,0,0,1,19.3-3.67,51.68,51.68,0,0,1,19.66,3.86,51,51,0,0,1,18,12.7q8.28,8.81,13.81,23a102.87,102.87,0,0,1,6.73,32.43A87.82,87.82,0,0,1,1140.84,532.09ZM1478.73,661.7l-.53-2.32q4.8-8.91,4.51-25.24t-6.31-38.42l-28.11-110.47-48.6,128-98.78-94.37,22.54,111.74q4.14,22.53,11,37.36t15,20.79l.53,2.33-108.33,24.69-.53-2.33q4.82-8.91,3.82-25.08a331.57,331.57,0,0,0-5.14-38.68L1205.7,480.87q-.83-5.67-2-11l-2.49-10.92a215.47,215.47,0,0,0-11.5-36.51q-6.84-16-21.24-29.88l-.53-2.32,89.27-20.35L1367.9,473.74,1423.15,332l89.26-20.34.53,2.32q-7,18.72-6.14,36.37a216.72,216.72,0,0,0,5.4,37.65l2.49,10.92q1.21,5.35,3,10.82l42.43,166.88a326.81,326.81,0,0,0,12.13,37.09q6.09,15,14.31,21l.53,2.32Zm497.59-117.36-.17,4.77q-1.08,29.55-13.22,48.42a88.41,88.41,0,0,1-31.15,29.64A124.5,124.5,0,0,1,1889,641.59a274.09,274.09,0,0,1-87.51-1.29q-16.59-3.24-29.33-7T1750,626.49a65.22,65.22,0,0,0-17-3.25,40.45,40.45,0,0,0-12,1.47,23.7,23.7,0,0,0-10.21,5.35l-2.37-.56-8.42-122,2.4-.39q8.63,11.76,23.72,23.29A185,185,0,0,0,1760.65,551a245.15,245.15,0,0,0,41.92,14.89,210.25,210.25,0,0,0,45.32,6.67q16.68.61,27.83-4.23t11.61-17.23l.08-2.38q.33-9.06-6.82-15.76t-19.82-12.42a285.17,285.17,0,0,0-29.42-11.09q-16.74-5.38-35.59-11.8a246.26,246.26,0,0,1-35-14.88,111.55,111.55,0,0,1-27.89-20.34,84.63,84.63,0,0,1-18.29-28.11q-6.57-16.21-5.77-38.14l.18-4.77q1.14-31.44,14.47-50a83.78,83.78,0,0,1,33.47-27.89,138.18,138.18,0,0,1,43.85-11.75,329.13,329.13,0,0,1,46.1-1.66q11.44.42,23.31,2.05c7.9,1.08,15.43,2.16,22.54,3.21s13.68,2.09,19.69,3.1a118.93,118.93,0,0,0,15.21,1.75q7.14.27,14.07,0a25.53,25.53,0,0,0,12.29-3.37l2.37.57q1.35,28.2,2.72,55.92t2.73,55.93l-1.94.88q-7.74-10.31-21.26-18.91a174.57,174.57,0,0,0-29.51-14.92,214.5,214.5,0,0,0-33.27-10,184.52,184.52,0,0,0-32.06-4.27q-19.55-.72-32.57,3.58t-13.46,15.73a16.75,16.75,0,0,0,4.31,12.56,42.41,42.41,0,0,0,12.32,8.8,136.33,136.33,0,0,0,18.34,7.35q10.62,3.49,22.4,7.26,20.75,7,42.65,14.68a163.32,163.32,0,0,1,39.81,20.31,96.59,96.59,0,0,1,28.89,32.07Q1977.44,513.85,1976.32,544.34ZM2287.63,667A156.13,156.13,0,0,1,2226,686.55a231.35,231.35,0,0,1-69.31-3.28l-6.08-1.18a233.23,233.23,0,0,1-66-23,156.33,156.33,0,0,1-49.78-41.26q-19.86-25.24-27.76-59.57t.58-77.85l.45-2.34q8.47-43.53,28.71-72.63t48.11-45a156.25,156.25,0,0,1,61.61-19.59,233.07,233.07,0,0,1,69.78,3.38l6.09,1.18a231.47,231.47,0,0,1,65.49,22.94,156.4,156.4,0,0,1,49.77,41.26q19.88,25.24,27.72,59.8t-.62,78.09l-.46,2.34q-8.46,43.51-28.65,72.39T2287.63,667Zm329,17.33q5.33,19,10.78,36.74t11.46,32.72a153.12,153.12,0,0,0,13.2,26q7.17,11.06,16.23,15.73l-.67,2.29a72.68,72.68,0,0,1-28.75,6.42,97.52,97.52,0,0,1-30.16-3.93A147.43,147.43,0,0,1,2580.48,789a85.45,85.45,0,0,1-21.7-16.6,95.5,95.5,0,0,1-16.29-24,185.15,185.15,0,0,1-12-33.38l-12.89-45.57q-10.8-2.19-21-4.71t-20.85-5.16a415.57,415.57,0,0,0-11.64,53.73q-3.33,23.89,4.08,37.51l-.67,2.28-118-34.85.67-2.28q14.36-8.19,25.35-32.79a464.64,464.64,0,0,0,20.72-57.52L2433,501.29a464.81,464.81,0,0,0,13.86-59.54q4.13-26.62-3.47-41.3l.68-2.28,139.47,41.19Q2622.89,451,2649,467.65t40.12,36.71a93.26,93.26,0,0,1,16.65,42.95,116.1,116.1,0,0,1-4.35,46.7Q2690.12,632.42,2667,651a114,114,0,0,1-53,23.63Zm419.59-10.46q-8.48,39.15-30.16,59.34A114,114,0,0,1,2955,760.67l3.31,9.5Q2965,788.7,2971.75,806t13.85,31.78a153.88,153.88,0,0,0,15.09,25q8,10.5,17.36,14.49l-.51,2.33a72.7,72.7,0,0,1-28.19,8.53,97.4,97.4,0,0,1-30.37-1.69,147.72,147.72,0,0,1-29-9.2,85.4,85.4,0,0,1-22.86-15,95.1,95.1,0,0,1-18-22.68,184.92,184.92,0,0,1-14.46-32.4l-16.23-44.5q-10.92-1.38-21.27-3.14T2816,756a416.06,416.06,0,0,0-7.63,54.45q-1.55,24.06,6.85,37.1l-.5,2.33-120.24-26,.5-2.33q13.71-9.22,22.85-34.57a465.23,465.23,0,0,0,16.4-58.9l27.44-126.76a465.19,465.19,0,0,0,9.41-60.41q2.14-26.85-6.51-40.93l.5-2.33,142.14,30.76q40.08,8.67,67.4,23.36t42.72,33.64a93.29,93.29,0,0,1,19.78,41.6A116.08,116.08,0,0,1,3036.21,673.84Zm332.16-72.59q-7.57,2.91-16.61,11.88A97.27,97.27,0,0,0,3338,629.68L3220.36,803.47l-1.29,10.41a464.46,464.46,0,0,0-4,61q.27,27,10.17,40.18l-.29,2.37-122.09-15.11.29-2.36q13.29-10.37,19.88-36.46a497.58,497.58,0,0,0,10.81-60.16l1.29-10.41L3064,595.78a134.89,134.89,0,0,0-9.6-19.44q-6.36-10.87-13-15.54l.3-2.37,118.77,14.7-.29,2.36a15.89,15.89,0,0,0-5.13,10.42,26.58,26.58,0,0,0,1.05,10.94q1.68,5.73,3.47,10.76l31.1,86.49,51.72-76.25q2.94-4.43,6-9.59a26.81,26.81,0,0,0,3.68-10.35,15.89,15.89,0,0,0-2.44-11.35l.29-2.37,118.78,14.69Z" transform="translate(-115.07 -89.33)"/><path d="M668,1501.13H794a16.47,16.47,0,0,1,11.2,3.92,12.23,12.23,0,0,1,4.48,9.52v39.76a14,14,0,0,1-4.48,10.08,15.19,15.19,0,0,1-11.2,4.48H683.13v85.67h84.55a13.43,13.43,0,0,1,14,14v39.2a12.07,12.07,0,0,1-3.92,9.24,14.2,14.2,0,0,1-10.08,3.64H683.13v155.1a13,13,0,0,1-4.48,9.8,15,15,0,0,1-10.64,4.2H632.18a15.38,15.38,0,0,1-10.92-3.92,13.16,13.16,0,0,1-4.2-10.08V1514.57a12.55,12.55,0,0,1,4.2-9.52,15.42,15.42,0,0,1,10.92-3.92Z" transform="translate(-115.07 -89.33)"/><path d="M1082.92,1600.8l.56,184.78a106.76,106.76,0,0,1-14.55,54.31,112.88,112.88,0,0,1-39.2,40.32,98,98,0,0,1-53.19,15.12H958.06a104.25,104.25,0,0,1-53.76-14.84A109.58,109.58,0,0,1,850,1785.58V1601.36a106.37,106.37,0,0,1,53.75-93.51q24.07-14,53.76-14H976a107.11,107.11,0,0,1,53.75,14,105.45,105.45,0,0,1,39.2,38.64Q1082.91,1570.57,1082.92,1600.8Zm-72.23,182.54v-183.1q0-18.48-12.88-30.79t-31.35-12.32h-1.68a44.67,44.67,0,0,0-31.64,12.32Q920,1581.77,920,1600.24v183.1q0,18.48,13.16,32.2t31.64,13.72H967q17.91,0,30.79-13.72A45.52,45.52,0,0,0,1010.69,1783.34Z" transform="translate(-115.07 -89.33)"/><path d="M1303.54,1714.47l56,164.62c.37.38.56,1.68.56,3.92a7.45,7.45,0,0,1-3.08,5.88,11.57,11.57,0,0,1-7.56,2.52h-48.71a18.15,18.15,0,0,1-10.92-3.92q-5.33-3.91-7-8.4l-45.36-140a29.55,29.55,0,0,0-14-3.92,19.7,19.7,0,0,0-15.12,6.72v136.62a11.4,11.4,0,0,1-4.48,9.24,16.37,16.37,0,0,1-10.64,3.64h-44.8a17.12,17.12,0,0,1-11.19-3.64,11.34,11.34,0,0,1-4.48-9.24V1516.25a15.44,15.44,0,0,1,4.48-10.92,14.72,14.72,0,0,1,11.19-4.76h109.75q38.64.57,62.43,22.4t23.8,56v68.32a69.41,69.41,0,0,1-11.48,38.07,81.33,81.33,0,0,1-30,28Zm-30.8-76.71v-51a29.25,29.25,0,0,0-9.24-21.83,30.66,30.66,0,0,0-22.12-9h-30.79a6.59,6.59,0,0,0-5,2.52,7.88,7.88,0,0,0-2.24,5.32v94.07a9.56,9.56,0,0,0,9.52,9.51h28.55a31.12,31.12,0,0,0,22.12-8.68A27.73,27.73,0,0,0,1272.74,1637.76Z" transform="translate(-115.07 -89.33)"/><path d="M1800.19,1499.45h40.32a14.35,14.35,0,0,1,9.52,3.92q4.47,3.93,3.92,7.28l-57.68,362.28q-1.12,8.4-6.16,13.44a16.12,16.12,0,0,1-11.76,5h-56a18.4,18.4,0,0,1-17.36-14l-32.47-179.74-27.44,175.26a25.55,25.55,0,0,1-6.72,13.44,16.12,16.12,0,0,1-11.76,5h-55.43a18.15,18.15,0,0,1-11.48-4.2q-5.33-4.2-5.88-9.8l-66.07-364a10.56,10.56,0,0,1,2.8-9.8,13.13,13.13,0,0,1,10.08-4.2h40.31a18.4,18.4,0,0,1,17.36,14l37,224.54a2.86,2.86,0,0,0,5.59,0l30.24-223.42a17.85,17.85,0,0,1,6.44-10.64q5.31-4.47,10.92-4.48h44.23a17.49,17.49,0,0,1,10.92,4.2,16.58,16.58,0,0,1,6.44,9.8l37.52,229c.37,1.49,1.12,2.15,2.24,2a2.7,2.7,0,0,0,2.24-2l30.79-227.9a18.42,18.42,0,0,1,6.16-10.64A16.49,16.49,0,0,1,1800.19,1499.45Z" transform="translate(-115.07 -89.33)"/><path d="M2085.75,1500h40.32a15.53,15.53,0,0,1,10.92,4.48q4.74,4.48,4.75,10.08v361.72a14.15,14.15,0,0,1-4.75,10.64,15.49,15.49,0,0,1-10.92,4.48h-40.32a15.45,15.45,0,0,1-10.92-4.48,14.12,14.12,0,0,1-4.76-10.64V1720.63l-105.82.56v155.1a15.3,15.3,0,0,1-15.12,15.12h-41.44a13.93,13.93,0,0,1-10.08-4.48,14.51,14.51,0,0,1-4.48-10.64V1514.57a15.36,15.36,0,0,1,14.56-14.56h41.44a15.06,15.06,0,0,1,10.64,4.2,13.67,13.67,0,0,1,4.48,10.36v138.31l105.82-.56V1514.57q0-5.6,4.76-10.08A15.49,15.49,0,0,1,2085.75,1500Z" transform="translate(-115.07 -89.33)"/><path d="M2352.84,1514.57l73.35,362.84a11.4,11.4,0,0,1-2.8,10.36q-3.93,4.2-11.2,4.2h-47.6q-12.89,0-14.55-12.32l-16.8-91.27H2261l-16.8,91.27q-1.12,6.72-4.48,9.52t-10.08,2.8h-47.59q-7.29,0-11.48-4.2a11,11,0,0,1-3.08-10.36l73.91-362.84q1.11-6.15,7-10.36a22.09,22.09,0,0,1,13.16-4.2h70.55a23.38,23.38,0,0,1,13.44,4.2Q2351.71,1508.41,2352.84,1514.57Zm-55.44,208.3h26.32l-24.08-140.55c-.75-1.86-1.68-2.8-2.8-2.8s-2.05.94-2.8,2.8l-23.51,140.55h26.87Z" transform="translate(-115.07 -89.33)"/><path d="M2555.53,1498.89h62.15a17.49,17.49,0,0,1,11.48,3.92,12,12,0,0,1,4.76,9.52v37.52a11.94,11.94,0,0,1-4.76,9.52,17.49,17.49,0,0,1-11.48,3.92h-47.59v313a15,15,0,0,1-4.2,10.64,13.64,13.64,0,0,1-10.36,4.48h-41.44a13.89,13.89,0,0,1-10.07-4.48,14.47,14.47,0,0,1-4.48-10.64v-313h-45.36c-4.86,0-8.77-1.21-11.76-3.64a12,12,0,0,1-4.48-9.8v-37.52a12,12,0,0,1,4.48-9.8c3-2.42,6.9-3.64,11.76-3.64h101.35Z" transform="translate(-115.07 -89.33)"/><path d="M2839.69,1888.05a13,13,0,0,1-9.8,4.48h-41.44a13.62,13.62,0,0,1-10.36-4.48,15,15,0,0,1-4.19-10.64V1515.13a15,15,0,0,1,4.19-10.64,13.66,13.66,0,0,1,10.36-4.48h41.44a13.07,13.07,0,0,1,9.8,4.48,15,15,0,0,1,4.2,10.64v362.28A15,15,0,0,1,2839.69,1888.05Z" transform="translate(-115.07 -89.33)"/><path d="M3223,1766.54a226.73,226.73,0,0,1-4.2,44.52,109.11,109.11,0,0,1-17.08,40A102.64,102.64,0,0,1,3165,1885a97.56,97.56,0,0,1-47.32,12h-17.35a96.41,96.41,0,0,1-39.2-8.12,103.2,103.2,0,0,1-33-23.24,113.12,113.12,0,0,1-29.67-76.15v-.56a18.79,18.79,0,0,1,5.32-13.44,16.8,16.8,0,0,1,12.59-5.6h39.76a3.2,3.2,0,0,0,2.24.56h1.12a21.14,21.14,0,0,1,8.4,6.72,15.6,15.6,0,0,1,3.36,9.52v5.6a38.47,38.47,0,0,0,7.56,23.24,35.48,35.48,0,0,0,19.88,13.72,40.56,40.56,0,0,0,11.75,1.68h1.68c3,0,4.67-.19,5-.56h.56a38.39,38.39,0,0,0,26-12,36.56,36.56,0,0,0,10.36-26l1.12-28q-.57-28.54-23.52-39.75-13.44-7.27-41.43-8.4l-10.64-1.12q-46.49-3.36-61.32-32.76t-14.83-71.39l.56-19.6.56-7.84q-1.14-37.5,25.19-62.15,27.43-27.43,72.24-26.32h17.35a95.6,95.6,0,0,1,37.52,7.56,99.5,99.5,0,0,1,31.91,21.56,93.79,93.79,0,0,1,21.28,32.76,108.25,108.25,0,0,1,7.28,39.47v.56a16.31,16.31,0,0,1-4.76,12,15.61,15.61,0,0,1-11.48,4.76h-38.63a15.65,15.65,0,0,1-10.36-5,15,15,0,0,1-4.2-10.64v-3.92a34.19,34.19,0,0,0-7.56-21.84,40.34,40.34,0,0,0-19.88-13.43,35.26,35.26,0,0,0-11.2-1.68h-4.47c-.38.37-1.32.56-2.8.56q-15.69,1.68-25.2,11.76t-9.52,24.63v32.48q1.68,16.25,14.56,22.68t42.55,7.55q49.28,0,73.91,28.56l24.64,28.56Z" transform="translate(-115.07 -89.33)"/><path d="M3439.08,1514.57l73.35,362.84a11.37,11.37,0,0,1-2.8,10.36q-3.91,4.2-11.2,4.2h-47.59q-12.89,0-14.56-12.32l-16.8-91.27h-72.23l-16.8,91.27q-1.12,6.72-4.48,9.52t-10.08,2.8H3268.3q-7.29,0-11.48-4.2a11,11,0,0,1-3.08-10.36l73.91-362.84a16.14,16.14,0,0,1,7-10.36,22.09,22.09,0,0,1,13.16-4.2h70.55a23.38,23.38,0,0,1,13.44,4.2Q3438,1508.41,3439.08,1514.57Zm-55.43,208.3H3410l-24.07-140.55c-.76-1.86-1.68-2.8-2.8-2.8s-2.06.94-2.8,2.8l-23.52,140.55h26.88Z" transform="translate(-115.07 -89.33)"/><path d="M3620.78,1888.05a13.05,13.05,0,0,1-9.8,4.48h-41.44a13.62,13.62,0,0,1-10.36-4.48,15,15,0,0,1-4.2-10.64V1515.13a15,15,0,0,1,4.2-10.64,13.66,13.66,0,0,1,10.36-4.48H3611a13.09,13.09,0,0,1,9.8,4.48,15.09,15.09,0,0,1,4.2,10.64v362.28A15.05,15.05,0,0,1,3620.78,1888.05Z" transform="translate(-115.07 -89.33)"/><path d="M3921.74,1604.16l.56,179.18a112.56,112.56,0,0,1-13.44,53.76,108.57,108.57,0,0,1-36.4,40.31,93.36,93.36,0,0,1-51.51,15.12h-62.72a3.22,3.22,0,0,1-2.23.56h-52.08a14.14,14.14,0,0,1-10.64-4.76,16.84,16.84,0,0,1-4.48-12v-357.8a17.72,17.72,0,0,1,5-12.6,15.74,15.74,0,0,1,11.76-5.32h112.55a103.91,103.91,0,0,1,90.15,51A106.15,106.15,0,0,1,3921.74,1604.16Zm-70.56,174.14V1607.52a42,42,0,0,0-42-42h-47a8,8,0,0,0-5.87,2.52,7.44,7.44,0,0,0-2.53,5.31v247.5q0,4.48,4.48,4.48h45.92q19,0,33-14T3851.18,1778.3Z" transform="translate(-115.07 -89.33)"/><path d="M2881.6,2404.1l52-6.58-24.95-62.72ZM893.48,2351.63c0-30.66-20.1-55.51-44.9-55.51s-44.91,24.85-44.91,55.51,20.11,55.52,44.91,55.52S893.48,2382.29,893.48,2351.63ZM3533.53,2001.3h-2685l130.06,350.33L848.58,2702h2685l-130.07-350.33ZM1424.16,2251.64q-10,9-17.85,25.81a259.1,259.1,0,0,0-13.68,37.25L1340,2492.47h-60l-40.89-137.92-40.54,137.92h-59.95L1086,2314.7a259.09,259.09,0,0,0-13.69-37.25q-7.8-16.8-17.85-25.81v-1.74h90.79v1.74a23.62,23.62,0,0,0-4.5,10.74,56.77,56.77,0,0,0-.52,13.51,89.6,89.6,0,0,0,2.25,14.56q1.72,7.28,3.47,13.86l23.9,81.43,21.14-71.38v.34q1.74-6.24,4.16-14.9a152.93,152.93,0,0,0,3.81-17.5,71,71,0,0,0,.7-17,24.49,24.49,0,0,0-5.2-13.68v-1.74h89.4v1.74a23.94,23.94,0,0,0-4.5,11.08,54.44,54.44,0,0,0-.35,13.86,117.85,117.85,0,0,0,2.42,14.91q1.74,7.62,3.47,14.2l23.91,80,23.91-81.43q1.72-6.58,3.46-13.86a90.73,90.73,0,0,0,2.26-14.56,57.83,57.83,0,0,0-.52-13.51,23.74,23.74,0,0,0-4.51-10.74v-1.74h90.79Zm240.14,0q-8.33,8.66-10.92,28.06a337.78,337.78,0,0,0-2.6,44.36v94.25a337.89,337.89,0,0,0,2.6,44.36q2.61,19.41,10.92,28.06v1.74h-89.4v-1.74q8.31-8.66,10.91-28.06a337.89,337.89,0,0,0,2.6-44.36v-27.72l-78,9.7v18a337.89,337.89,0,0,0,2.6,44.36q2.6,19.41,10.92,28.06v1.74h-89.4v-1.74q8.31-8.66,10.91-28.06a337.89,337.89,0,0,0,2.6-44.36v-94.25a337.78,337.78,0,0,0-2.6-44.36q-2.6-19.39-10.91-28.06v-1.74H1524v1.74q-8.32,8.66-10.92,28.06a337.78,337.78,0,0,0-2.6,44.36v31.53l78-9.7v-21.83a337.78,337.78,0,0,0-2.6-44.36q-2.6-19.39-10.91-28.06v-1.74h89.4ZM1883.64,2497l-1.73.69a43.59,43.59,0,0,0-12-3.11q-7.46-1.05-17-1.56t-20.44-.52H1690.28v-1.74q8.33-8.66,10.92-28.06a337.89,337.89,0,0,0,2.6-44.36v-94.25a337.78,337.78,0,0,0-2.6-44.36q-2.6-19.39-10.92-28.06v-1.74h137q10.92,0,20.45-.52t17-1.56a43.12,43.12,0,0,0,12-3.12l1.73.7,12.48,73.81-1.73.34a61.81,61.81,0,0,0-15.77-9.53,83.69,83.69,0,0,0-17.33-4.85,144.32,144.32,0,0,0-19.23-1.9q-10-.34-21.48-.35h-49.21v45h39.5a251.11,251.11,0,0,0,30.84-1.73q13.86-1.74,21.49-8.32l1.73.69V2409l-1.73.69a61.5,61.5,0,0,0-15.59-10.05,74.62,74.62,0,0,0-16.81-5,136.28,136.28,0,0,0-18.71-1.9q-9.89-.35-21.31-.35h-19.41v47.13h54.41q11.43,0,21.48-.17a128.45,128.45,0,0,0,19.23-1.74,77.11,77.11,0,0,0,17.33-5,65.69,65.69,0,0,0,15.76-9.7l1.74.34Zm277.56-245.33q-8.31,8.66-10.91,28.06a336.06,336.06,0,0,0-2.6,44.36v94.25a336.16,336.16,0,0,0,2.6,44.36q2.6,19.41,10.91,28.06v1.74h-83.51v-1.74a12.1,12.1,0,0,0,.35-3.46,22.28,22.28,0,0,0-2.08-8.66,72.74,72.74,0,0,0-4.85-9.36q-2.78-4.5-5.72-8.49a66.68,66.68,0,0,1-4.33-6.41l-66.53-94.95v58.91a336.16,336.16,0,0,0,2.6,44.36q2.59,19.41,10.91,28.06v1.74h-89.4v-1.74q8.31-8.66,10.91-28.06a336.16,336.16,0,0,0,2.6-44.36v-94.25a336.06,336.06,0,0,0-2.6-44.36q-2.6-19.39-10.91-28.06v-1.74h83.86v1.74a11.78,11.78,0,0,0-.35,3.46,22.24,22.24,0,0,0,2.08,8.66,70.3,70.3,0,0,0,4.85,9.36c1.85,3,3.69,5.84,5.54,8.49s3.35,4.8,4.51,6.41l66.18,94.25v-58.21a337.91,337.91,0,0,0-2.59-44.36q-2.61-19.39-10.92-28.06v-1.74h89.4Zm196.82,0q-8.33,8.66-10.92,28.06a337.78,337.78,0,0,0-2.6,44.36v94.25a337.89,337.89,0,0,0,2.6,44.36q2.61,19.41,10.92,28.06v1.74h-89.4v-1.74q8.31-8.66,10.91-28.06a337.89,337.89,0,0,0,2.6-44.36v-94.25a337.78,337.78,0,0,0-2.6-44.36q-2.59-19.39-10.91-28.06v-1.74H2358Zm315.67,240.83-40.89-137.92-40.54,137.92h-60l-52.67-177.77a259.09,259.09,0,0,0-13.69-37.25q-7.8-16.8-17.85-25.81v-1.74h90.79v1.74a23.62,23.62,0,0,0-4.5,10.74,57.3,57.3,0,0,0-.52,13.51,90.7,90.7,0,0,0,2.25,14.56q1.73,7.28,3.47,13.86l23.91,81.43,21.13-71.38v.34q1.74-6.24,4.16-14.9a150.83,150.83,0,0,0,3.81-17.5,71,71,0,0,0,.7-17,24.49,24.49,0,0,0-5.2-13.68v-1.74h89.4v1.74a23.94,23.94,0,0,0-4.5,11.08,54.44,54.44,0,0,0-.35,13.86,116.14,116.14,0,0,0,2.43,14.91q1.73,7.62,3.46,14.2l23.91,80,23.91-81.43q1.72-6.58,3.47-13.86a91.83,91.83,0,0,0,2.25-14.56,57.83,57.83,0,0,0-.52-13.51,23.63,23.63,0,0,0-4.51-10.74v-1.74h90.79v1.74q-10.05,9-17.84,25.81a257.9,257.9,0,0,0-13.69,37.25l-52.67,177.77Zm372.86,0h-91.14v-1.74a23.46,23.46,0,0,0,3.29-5.71,25.61,25.61,0,0,0,1.56-9.88,49.7,49.7,0,0,0-1.21-10.22,79.93,79.93,0,0,0-4.33-13.34l-4.51-11.44-87.32,10.74-.35.7a121.4,121.4,0,0,0-4,13.51,47.38,47.38,0,0,0-1.21,10,25.83,25.83,0,0,0,1.55,9.88,23.13,23.13,0,0,0,3.3,5.71v1.74h-91.14v-1.74a122.08,122.08,0,0,0,19.58-29.8q8.49-17.67,14.38-33.26l56.14-142.08a93.37,93.37,0,0,0,4.33-13.34,38.65,38.65,0,0,0,.87-5.71,23.18,23.18,0,0,0-1.56-9.36,23.87,23.87,0,0,0-3.3-5.54v-1.74h81.09l70,177.77q5.88,15.59,14.38,33.26a121.51,121.51,0,0,0,19.58,29.8Zm217.26-69q0,21.49-8.31,35.52a64.4,64.4,0,0,1-21.84,22.35A90.7,90.7,0,0,1,3203,2493a199.15,199.15,0,0,1-63.59,1.38q-12.13-1.9-21.48-4.33t-16.29-4.33a47.6,47.6,0,0,0-12.47-1.91,29.56,29.56,0,0,0-8.67,1.39,17.23,17.23,0,0,0-7.27,4.16l-1.74-.35-9.35-88.36,1.73-.35a85.42,85.42,0,0,0,17.85,16.29,134.2,134.2,0,0,0,25.64,14,177.58,177.58,0,0,0,30.84,9.71,153.17,153.17,0,0,0,33.09,3.63q12.12,0,20.1-3.81t8-12.82v-1.73a14.42,14.42,0,0,0-5.37-11.26,52.71,52.71,0,0,0-14.73-8.49,206.05,206.05,0,0,0-21.66-7.28q-12.3-3.46-26.16-7.62a180.11,180.11,0,0,1-25.82-9.88,81.35,81.35,0,0,1-20.79-14,61.72,61.72,0,0,1-14-19.93q-5.21-11.61-5.2-27.55v-3.46q0-22.87,9.19-36.73a60.78,60.78,0,0,1,23.56-21.14,100.54,100.54,0,0,1,31.53-9.7,238.35,238.35,0,0,1,33.44-2.43,169.89,169.89,0,0,1,17,.87q8.65.87,16.46,1.73t14.38,1.73a87,87,0,0,0,11.09.87c3.46,0,6.87-.11,10.22-.35a18.44,18.44,0,0,0,8.84-2.77l1.73.35q1.72,20.45,3.46,40.54t3.47,40.54l-1.39.7a57.72,57.72,0,0,0-15.94-13.17,125.36,125.36,0,0,0-21.83-10.05,154.83,154.83,0,0,0-24.43-6.41,134.18,134.18,0,0,0-23.39-2.25q-14.2,0-23.56,3.46t-9.36,11.78a12.17,12.17,0,0,0,3.47,9,31.11,31.11,0,0,0,9.18,6.07,100,100,0,0,0,13.52,4.85q7.8,2.25,16.46,4.68,15.24,4.5,31.36,9.52a119.09,119.09,0,0,1,29.45,13.69,70.28,70.28,0,0,1,21.83,22.53q8.49,13.86,8.49,36Zm342.15-54c-5-7.66-9.54-15.8-14.82-23.14-3.1-4.32-5.27-8-2-13.32a4,4,0,0,0,.25-1.2c1.49-7.86,2.92-15.75,4.5-23.58.55-2.77,1.49-5.42,2.39-8.62-1.54-3.13-3.88-4.8-6.77-3.9-3.22,1-7,1.7-9.28,4.23-4.3,4.73-9.76,5.34-14.56,8.13-3.68,2.14-7.43,2.52-10.3-2.24a1.49,1.49,0,0,0-.91-.49c-3.83-1-6.43-4.27-9-7.55a8.15,8.15,0,0,0-2.34-2.18c-3.75-1.95-7.26-4.33-9.81-8.35-1.31-2.08-2.94-2.1-4.51-1.31-2.47,1.25-3.6,5.88-2.52,9.06.65,1.89,1.69,3.8,1.75,5.74q.43,14.08.33,28.19c0,1.58-.86,4.07-1.86,4.59-5.81,3.06-9.89,9.05-15.1,13.12a68.43,68.43,0,0,0-9.65,9.61c-2.95,3.46-2.13,7.44,1.7,9.13,2.66,1.18,5.45,1.95,8.18,2.88,4.19,1.41,8.39,2.77,12.56,4.24a36.67,36.67,0,0,1,6.1,2.6c1.76,1,4.12,2.1,4.82,4,2.17,5.75,3.67,11.89,5.46,17.87,1.56,5.19,2.93,10.5,4.79,15.52,2.44,6.54,5.78,6.95,9.16,1,4.88-8.54,9.63-17.22,14-26.13,2.11-4.28,4.65-5.94,8.59-5.91,7.94.07,15.87-.28,23.81-.47,2.36-.06,5,.31,6.25-2.89S3607.74,2372.27,3606,2369.54Z" transform="translate(-115.07 -89.33)"/><path d="M953.9,3758.71a127.12,127.12,0,0,1-26.88-3.13q-43.77-10-48.13-39.38-2.5-14.37-5-209.41-32.5,5-107.51,6.25l-83.77,3.13q3.75,101.26,3.75,117.51,0,21.9-1.25,26.26-6.26,19.38-50.63,19.38-52.51-.62-61.88-27.51-17.52-58.12-17.51-387.56,0-214.39,3.13-236.29,3.75-26.86,43.13-26.88,25.62,0,43.13,7.19t23.76,17.82q10.62,23.13,11.25,283.79v152.53q140-5.62,168.46-8.13t28.44-5.63q1.26-6.24,5.63-117.51,8.75-245.67,42.51-475.71,6.87-53.74,15.94-61.88t23.44-8.13q13.13,0,30.63,5.63,30.62,9.38,44.38,28.13,3.75,6.26,3.75,37.5,0,41.9-11.25,175.66-26.88,326.29-26.88,580.09,0,54.39-.31,81.26t-2.81,39.39q-2.5,12.49-7.82,16.56t-15.94,6.57A104.31,104.31,0,0,1,953.9,3758.71Z" transform="translate(-115.07 -89.33)"/><path d="M1435.23,3738.08q-30.64,0-49.39-12.51-13.75-8.76-13.75-71.88,0-32.51,3.13-98.77-38.78,40-49.39,46.57t-27.5,11.57q-22.5,6.89-38.13,6.87-62.52,0-93.77-30-61.28-58.14-61.26-267.55.61-102.51,11.25-174.71t27.51-89.08q8.74-7.5,18.75-8.12,6.87,0,18.75,1.25,43.14,1.88,59.39,25.62,5,5.64,5,16.88,0,15-3.75,53.76-8.13,103.77-8.13,189.41,0,95.64,13.75,162.52,6.25,32.52,11.26,32.51,4.36,0,38.13-52.51,43.74-68.13,94.39-213.16,15.62-46.87,23.13-56.88,10-13.76,39.38-13.76a106.89,106.89,0,0,1,26.88,3.75q48.75,11.26,48.75,42.51,0,10.64-3.75,58.14-4.38,57.51-6.25,69.38l-11.25,139.4q-14.38,206.91-27.5,216.91Q1469,3738.07,1435.23,3738.08Z" transform="translate(-115.07 -89.33)"/><path d="M2077.83,3772.46a168.84,168.84,0,0,1-31.88-3.13q-28.12-4.38-46.57-14.38t-36.57-29.38q-26.25-26.87-31.57-53.13a249.63,249.63,0,0,1-5.31-49.38q0-79.38,68.14-318.18,39.38-154.4,44.38-195,2.49-25,2.5-48.13,0-50-6.57-85.64t-16.56-47.51q-6.25,0-36.88,28.13-45.64,43.14-95,140-115.65,209.43-121.27,420.07l-5,73.14q-2.51,22.5-46.88,28.75a131.83,131.83,0,0,1-17.5,1.25q-31.27,0-47.51-18.75-23.13-23.11-45.63-185.66-14.39-98.13-14.38-290,0-133.77,10.31-141.9t29.07-8.13q31.88,0,60,20a37.88,37.88,0,0,1,12.5,14.37q7.5,15.65,16.26,134.4,6.87,78.15,8.75,78.14c.41,0,.83-.63,1.25-1.88q4.36-19.36,24.38-66.26,46.88-108.77,90.64-174.4,74.37-111.89,153.77-111.89a131.84,131.84,0,0,1,39.38,6.25q48.13,13.13,75.64,41.25,45,53.78,45,180,0,72.53-34.38,205.66-75.65,281.29-75.64,343.81a149.83,149.83,0,0,0,4.37,33.75q6.25,30.64,14.38,30.63,4.37,0,22.51-8.75,16.88-12.5,42.5-42.82a400.7,400.7,0,0,0,46.26-68.45q78.77-186.9,90.64-230,4.36-15.63,11.56-20.63t22.82-5q5.63,0,21.88,6.87,18.75,8.13,18.75,18.76,0,11.25-10.63,45-25.63,86.27-83.13,225.66Q2181,3772.46,2077.83,3772.46Z" transform="translate(-115.07 -89.33)"/><path d="M2562.28,3757.46a151.89,151.89,0,0,1-40-5.63q-78.14-18.75-93.76-108.77-3.75-19.36-3.75-29.38,0-11.86,7.5-19.38,4.36-4.37,23.13-4.37,55,0,64.39,26.25a163.15,163.15,0,0,1,3.12,16.25q1.24,15.65,8.75,34.39,5,12.51,7.5,12.5c1.66,0,4-1.46,6.88-4.38q20.63-20,45-67.51,61.88-121.89,85-387.56l-49.38,97.51Q2531,3509.92,2471,3544.92q-22.51,13.76-51.89,13.75-21.26,0-46.25-7.5-43.14-12.49-67.2-39.69t-38.44-79.7q-7.51-31.26-7.51-95.64,0-76.89,9.38-121.9,50-221.28,175-298.17,48.75-30.63,110.64-30.63,64.38,0,130.65,44.38,22.5,15,40.63,20.63,36.87,11.25,38.76,41.26,1.24,15.63,11.87,75a914.3,914.3,0,0,1,14.38,163.15,1076.56,1076.56,0,0,1-12.5,161.28q-16.26,114.39-41.57,186t-67.2,123.46Q2624.16,3757.45,2562.28,3757.46Zm-153.77-288.8q27.49-31.26,41.25-48.13,55-68.13,123.15-210.66,81.26-170.65,81.26-205-.63-20-7.5-24.69a26.15,26.15,0,0,0-15-4.69q-33.14,0-75.64,30.63-108.15,76.89-145,273.17-8.76,53.77-8.76,119.4Q2402.25,3430.53,2408.51,3468.66Z" transform="translate(-115.07 -89.33)"/><path d="M2960.47,3788.71q-26.25,0-36.25-13.75a169.42,169.42,0,0,1-10-15.63q-14.4-26.25-25.95-109.08t-26.56-279.11q-8.14-114.39-8.13-225,0-171.27,16.88-266.3,11.86-60,23.75-65.63,23.11-10.62,73.14-10.63,35,0,80.64,10,91.89,20.63,170.65,85.64,53.76,44.4,83.76,93.77,40,70.64,42.51,119.08t2.5,59.07q0,73.14-28.13,133.77-61.89,115.65-192.53,206.91-25,17.51-25,19.38t25,5q36.24,3.75,91.26,11.88,66.88,9.38,81.27,18.12,33.75,20,33.75,41.26,0,15-15.63,15-20,0-211.9-25-64.39-10-75-10c-.84,0-1.25,1.25-1.25,3.75q0,11.25,3.13,35.63,3.12,50.63,3.12,131.9l-13.12,10.62Q2996.71,3788.7,2960.47,3788.71Zm59.39-322.55q3.75,0,50-33.76a582.78,582.78,0,0,0,121.9-121.89q32.49-42.51,46.26-74.39,21.24-49.36,21.25-120,0-61.89-22.5-112.52-43.14-93.76-158.15-122.52-33.76-8.11-78.14-8.12-5.62,47.51-5.63,111.89,0,174.4,15,373.19,7.5,99.39,7.5,103.76T3019.86,3466.16Z" transform="translate(-115.07 -89.33)"/><path d="M3643.71,3836.22a177,177,0,0,1-26.26-1.88q-77.5-11.25-118.14-53.76-25-28.76-25-64.38,0-58.14,58.14-113.14,82.51-73.76,258.17-100,47.49-6.87,48.75-12.5,7.5-29.39,12.51-76.27a839.53,839.53,0,0,0,5-88.76q0-61.89-12.51-157.53-14.39-103.76-32.5-153.77-38.13,114.39-86.89,196.28-82.51,138.78-149.4,140.65l-26.25.62q-80,0-125-68.76a175.1,175.1,0,0,1-26.88-66.88q-3.14-23.76-3.13-57.51t3.75-58.76q8.11-46.26,29.38-97.52t40-68.76q19.37-15.62,33.13-15.63h14.38q25,0,47.5,15,15,9.38,15.63,13.44a47.67,47.67,0,0,1,.63,5.31q0,7.5-8.13,20-12.51,21.27-26.88,64.39-30.63,88.77-30.63,153.15,0,66.27,20.63,95.64c2.08,3.34,4.16,5,6.25,5q1.88,0,13.13-8.13a346,346,0,0,0,34.38-35.63q115-140,156.9-361.93,5.63-29.37,10-33.76,5-2.49,17.5-2.5,21.89,0,37.2,4.38t38.13,24.06a242.86,242.86,0,0,1,40.32,44.7q86.27,120.64,106.89,345.06,3.12,32.51,3.12,73.13,0,83.14-8.75,140.65-4.38,27.51-4.37,34.38,0,1.88,23.13,11.25,47.49,20,47.5,38.13,0,13.77-26.88,13.76-18.75,0-33.75-5.32t-20.63-5.31q-6.26,0-6.25,5,0,15-43.76,88.14-16.87,28.76-28.75,43.13Q3781.86,3836.23,3643.71,3836.22Zm-26.26-66.89q9.38,0,40.63-16.25,63.77-33.14,118.15-113.77,37.5-57.51,37.5-69.39c0-1.25-.84-1.87-2.5-1.87q-13.12,0-67.51,19.38-144.39,51.89-148.15,141.27Q3596.82,3769.32,3617.45,3769.33Z" transform="translate(-115.07 -89.33)"/></svg>


