<?xml version="1.0" encoding="utf-8"?>
<!-- Generator: Adobe Illustrator 18.0.0, SVG Export Plug-In . SVG Version: 6.00 Build 0)  -->
<svg version="1.2" baseProfile="tiny" xmlns="http://www.w3.org/2000/svg" xmlns:xlink="http://www.w3.org/1999/xlink"
	 x="0px" y="0px" viewBox="0 0 1080 1296" xml:space="preserve" width="500" height="500">
<g>
	<g>
		<g>
			<path fill="#231F20" d="M746.7,432c3.3,0,6.6,2.7,7.9,6.3c1.2,3.2,0.3,5.8-2.4,7.8c-15.2,11.7-30.5,23.3-45.7,35
				c-1.1,0.8-2.3,1.5-3.7,1.6c-3.6,0.4-5.6-2.1-4.4-5.5c0.5-1.4,1.5-2.5,2.6-3.6c13.7-13.1,27.5-26.2,41.2-39.3
				C743.6,433.1,745,432.1,746.7,432z"/>
		</g>
		<g>
			<path fill="#231F20" d="M519.5,441c1.7,0.1,3,0.8,4.3,1.8c14.9,12.1,29.8,24.2,44.7,36.3c0.8,0.6,1.5,1.4,2.1,2.2
				c1.2,1.7,1.7,3.5,0.2,5.4c-1.3,1.7-3.2,1.6-5,1.2c-1-0.2-1.9-0.8-2.8-1.3c-16-10.3-32.1-20.7-48.1-31.1c-3.2-2.1-4-4.4-2.9-7.9
				C513.2,443.9,516.4,441,519.5,441z"/>
		</g>
		<g>
			<path fill="#231F20" d="M638.7,420.6c-0.2,9.3-0.4,18.6-0.6,27.9c0,0.7,0.1,1.4,0,2c-0.4,2.6-1.2,5.2-4.3,5.3
				c-3,0.1-4.3-2.3-4.7-4.9c-0.7-5.8-1.2-11.5-1.7-17.3c-1.2-13.7-2.5-27.4-3.6-41.1c-0.4-4.7,2.1-7.4,7-7.7c5.3-0.3,8.5,2.3,8.5,7
				C639.2,401.5,638.9,411,638.7,420.6z"/>
		</g>
		<g>
			<path fill="#231F20" d="M669.8,457.8c0.1-0.5,0.3-1.8,0.7-3.1c5.1-17.8,10.2-35.5,15.4-53.3c1.6-5.4,4.7-7.2,9.6-5.4
				c5.2,1.8,6.8,5.5,4.7,10.7c-6.9,16.9-13.8,33.9-20.8,50.8c-0.6,1.4-1.2,2.7-2,3.9c-1.2,1.6-3,2.6-5.1,1.8
				C670.4,462.4,669.8,460.7,669.8,457.8z"/>
		</g>
		<g>
			<path fill="#231F20" d="M570,400.3c3.3-0.1,5.2,1.6,6.3,4.6c6.3,16.9,12.7,33.8,19,50.7c0.8,2.1,1.8,4.2,1.8,6.5
				c0,1.8-0.6,3.4-2.4,4.2c-1.8,0.7-3.3,0.1-4.7-1.1c-1.3-1.2-2-2.7-2.8-4.2c-8.2-16.2-16.4-32.4-24.6-48.7
				C559.7,406.2,563.2,400.5,570,400.3z"/>
		</g>
	</g>
	<g>
		<path fill="#231F20" d="M653.2,915.7c-2.8-4.8-6.8-8.2-11.3-11c-8-4.8-15.9-0.6-16.7,8.7c-0.7,7.7,2.6,13.9,7.3,19.5
			c5.6,6.6,12.3,12.2,18.5,18.3c3.5,3.5,7.1,7,10.7,10.4c0.7,0.6,1.4,1.2,2.2,1.7c1.9,1.1,3.7,0.7,5.1-0.9c0.9-1,1.6-2.1,2-3.3
			c3.6-9.7,7.6-19.2,9-29.5c1.2-8.9,1.4-17.8-1.7-26.5c-1.5-4.2-4-7.8-8.6-9.1c-4.3-1.2-8.2-0.3-11.3,3.2
			c-4.1,4.7-5.2,10.5-5.4,16.5C653.1,914.4,653.2,915,653.2,915.7z"/>
	</g>
	<g>
		<path fill="#231F20" d="M507.6,750.4c-1.8-3.1-4.4-5.3-7.3-7.1c-5.2-3.1-10.3-0.4-10.8,5.6c-0.4,5,1.7,9,4.8,12.7
			c3.6,4.3,8,7.9,12,11.9c2.3,2.3,4.6,4.5,7,6.8c0.4,0.4,0.9,0.8,1.4,1.1c1.2,0.7,2.4,0.5,3.3-0.6c0.6-0.6,1-1.4,1.3-2.2
			c2.3-6.3,5-12.4,5.9-19.1c0.8-5.8,0.9-11.6-1.1-17.2c-1-2.7-2.6-5-5.6-5.9c-2.8-0.8-5.3-0.2-7.3,2.1c-2.7,3.1-3.4,6.8-3.5,10.7
			C507.6,749.6,507.6,750,507.6,750.4z"/>
	</g>
	<g>
		<path fill="#231F20" d="M564.3,1013.1c-6.9,12.2-22,23.7-39,35.7c0.1,2.8,0.2,5.4,0.2,7.9c0,58.1-29,109.1-62.1,109.1
			c-16.2,0-25.9-11.7-25.9-31.2c0-30.4,27.4-54.5,56.7-75.7c-0.4-13.8-1.8-29.3-3.1-41.7c-6.3,15-13.9,29.5-22.6,43.3
			c-17.5,27-35.1,40.7-52.2,40.7c-21.2,0-51.1-23.3-51.1-75c0-36.3,14.4-74,39.5-103.4c23.4-27.4,52.4-43.8,77.6-43.8
			c22.6,0,32.9,14.3,32.9,27.5c0,25.5-23.8,52.4-30,55.5c-3.1,1.5-7.1,1-8.5-1.1c-0.5-0.7-0.6-1.6-0.3-2.4c0.2-0.8,0.8-1.5,1.6-1.9
			c3.2-2.1,24.7-22.3,24.7-50c0-13.7-6-15.3-10.5-15.3c-19.5,0-43.1,18.7-63.2,50c-20.2,31.4-32.2,68.3-32.2,98.7
			c0,42.1,15.5,50.7,19.6,50.7c26.3,0,58.7-62.2,72.1-95.1c0.1-0.2,0.2-0.3,0.3-0.5c0-0.2,0-0.3,0-0.4c0-2.8,2.6-5.2,6.8-6.2
			c8.5-1.9,17.3,1.6,21.6,8.6c2.3,3.8,5.7,22.6,7.3,40.6c14-10,26.3-19.5,32.6-28.8c2-2.9,4.8-4.1,6.9-3
			C565.3,1006.6,567,1008.4,564.3,1013.1z M452.3,1130.9c0,17.6,6,23.5,7.7,23.5c10.5,0,33.4-21.1,34.3-83.4
			C471.8,1088.2,452.3,1107.7,452.3,1130.9z"/>
		<path fill="#231F20" d="M645.2,1021.6c-0.4,3.4-19.7,101.6-49.9,101.6c-19.3,0-37.5-26.5-37.5-70.3c0-24.8,2.4-47.6,5.8-53
			c3.9-6.1,25.9-5.9,27.1,5.8c1.1,10-3.6,37.5-3.6,64.4c0,25.6,7.5,43.2,10.1,43.2c8.4,0,29.9-49.6,40.4-92.5
			C638.7,1016.5,645.6,1018.1,645.2,1021.6z M564.5,972.5c0-8,6.1-14.4,13.6-14.4s13.6,6.5,13.6,14.4s-6.1,14.4-13.6,14.4
			S564.5,980.4,564.5,972.5z"/>
		<path fill="#231F20" d="M792.9,1026.3c-0.1,0.4-0.5,2-1,4c-17.5,70.8-36,106.7-54.9,106.7c-9.9,0-33-6.8-33-70.1
			c0-15.8,1.4-31.6,2.1-40.2c0.2-2.6,0.4-4.7,0.5-5.8c0-0.6,0-1.2-0.1-1.8c-0.2,0.2-0.4,0.3-0.6,0.5c-2.1,2-21,22.3-37,109.8
			c-0.1,0.4-0.3,0.9-0.6,1.2c0.1,2.2,0.1,3.8,0.1,4.7c-0.5,4.7-4.1,8.7-8.9,9.8c-0.8,0.2-1.6,0.3-2.5,0.3c-2.9,0-7.1-1.2-10.5-6.6
			c-1.3-2.1-5.8-10.1-9.7-26c-4-17.4-6-35.1-5.8-52.9c0-36.9,5.5-63.4,9.5-68.4c3.9-4.8,16.2-4.6,23.9-1.2c5.4,2.4,7.9,6.2,7,10.4
			c-1.9,8.8-5.5,37.1-5.5,59.9c0,3.5,0,7,0.1,10.3c10.1-39.5,30.1-79.3,49.1-79.3c22.7,0,22.7,24,22.7,41.5
			c0,13.6-0.6,25.8-1.1,36.6c-0.4,8.8-0.7,16.3-0.7,23.2c0,13.8,2.6,29.2,5.2,30.9c3.9-1,17.2-23,43-99.8l0.2-0.5
			c1.2-3.6,4.1-4.9,6.3-4.2C792.4,1020.1,794.2,1022.2,792.9,1026.3z"/>
	</g>
	<g>
		<path fill="#231F20" d="M177.8,880c-2.4,0-4.7,0-6.9-0.1c-2.3-0.1-4.6-0.1-6.9-0.2c-4.2-0.3-6.6-2.7-7.1-7.1
			c-0.1-0.5-0.2-1.3-0.2-2.5v-2.5c-0.1-7.1-0.3-14.2-0.5-21.2c-0.3-7-0.4-14.1-0.4-21.2L156,815c0-1.6-0.2-3-0.6-4.2
			c-2-7-3.5-14-4.7-21.1c-1.2-7-2.3-14.1-3.5-21.2c-1.4-7.8-2.8-15.6-4.2-23.4c-1.3-7.8-2.7-15.6-4-23.4c-0.7-3.8-1.4-7.6-2.1-11.3
			c-0.7-3.7-1.5-7.4-2.5-11.1c-0.2-0.7-0.4-1.4-0.5-2.1c-0.1-0.7-0.2-1.3-0.2-1.9c0-2.9,0.9-5.2,2.9-6.9c1.9-1.7,4.6-2.7,8-2.9
			l8.5-0.2h7.9c1.2,0,2.5,0,3.8,0c1.3,0,2.6,0.1,3.9,0.2c2.8,0.1,4.7,0.9,5.8,2.2c1.1,1.4,1.9,3.4,2.4,6.1c1,6.2,2.1,12.3,3.2,18.2
			c1.1,6,2.3,12,3.4,18.2l6.8,38.8l1.5,7.4c1.1-2,1.8-3.9,2.1-5.7c0.3-1.9,0.6-3.7,1.2-5.4c2.8-11.5,5.3-23.1,7.6-34.7
			c2.3-11.6,5.1-23.1,8.5-34.5c0.3-1.1,0.7-2.3,1.1-3.5c0.4-1.2,0.9-2.3,1.4-3.3c0.7-1.4,1.6-2.5,2.8-3.2c1.1-0.7,2.4-1,3.7-1
			c1,0,1.8,0.1,2.3,0.3c3,1.1,4.5,3.3,4.5,6.5l-0.3,2.2c-0.6,2.5-1.3,4.9-2.2,7.3c-0.8,2.4-1.5,4.9-2,7.5
			c-3.1,13.8-6.1,27.5-9.1,41.2c-3,13.7-6.1,27.4-9.4,41.2c-1.8,6.7-3.1,13.2-4,19.5c-0.9,6.3-1.4,12-1.4,16.9l0.2,6.5
			c0.3,5.8,0.5,11.5,0.5,17.2c0,5.7,0.1,11.5,0.2,17.2v1.1c0,3.3-0.7,5.7-2.2,7.1c-1.4,1.4-3.9,2.3-7.3,2.6
			C185.8,879.8,181.8,880,177.8,880z"/>
		<path fill="#231F20" d="M278.9,879.8c-2.4,0-4.5-0.5-6.3-1.6c-1.8-1.1-3.5-2.4-5.2-3.9c-2.7-2.6-4.8-5.4-6.3-8.5
			c-1.5-3.1-2.8-6.3-3.8-9.7c-3.4-11.7-5.9-23.5-7.6-35.3c-1.7-11.8-2.5-24-2.5-36.7c0-4.9,0.2-10,0.5-15.1
			c0.5-9.2,1.3-18.2,2.3-27.1c1-8.9,2.6-17.8,4.8-26.6c2.4-9.2,6.5-17.1,12.4-23.9c1.2-1.5,2.6-2.8,4-3.7c1.4-0.9,3.2-1.5,5.2-1.7
			c2.8-0.2,5.6-0.4,8.3-0.6c2.8-0.2,5.6-0.3,8.5-0.3c3.3,0,6.5,0.2,9.7,0.5c3.2,0.4,6.4,1,9.6,1.9c4,1.1,7.3,3,9.7,5.7
			c2.5,2.7,4.3,6,5.6,9.9c2.9,9.1,5.4,18.1,7.6,27.3c2.2,9.1,3.8,18.5,4.7,28c0.3,3.1,0.6,6.2,0.8,9.2c0.3,3,0.4,6,0.4,9v3.4
			c-0.5,13.5-1.7,26.6-3.6,39.3c-1.9,12.7-4.9,25.3-8.9,37.6c-0.5,1.7-1.1,3.4-1.7,5c-0.6,1.6-1.3,3.2-2.2,4.7
			c-3.4,7.2-9.2,11.4-17.3,12.5c-2.6,0.4-5.1,0.7-7.6,0.8c-2.5,0.1-5.1,0.2-7.6,0.2L278.9,879.8z M306.3,864.8c2.3,0,4.3-1.5,6-4.6
			c0.7-1.3,1.3-2.7,1.8-3.9c0.5-1.3,1-2.7,1.5-4.1c3.7-11.5,6.5-23.2,8.3-34.9c1.8-11.7,2.9-23.7,3.3-36v-1.1
			c0-12.9-1.2-25.3-3.5-37.1c-2.3-11.9-5.4-23.8-9.3-35.6c-0.2-0.5-0.4-1-0.6-1.4c-0.2-0.4-0.4-0.9-0.6-1.4
			c-1.8-2.8-4.1-4.2-6.9-4.2c-1.1,0-2.3,0.3-3.5,0.9c-1.2,0.6-2.2,1.4-3,2.5c-1.8,2.4-3.1,4.8-4,7.4c-0.9,2.6-1.8,5.2-2.5,7.9
			c-2.2,8.8-3.7,17.5-4.5,26.3c-0.8,8.8-1.5,17.7-2,26.8c-0.2,2.1-0.3,4.1-0.3,6.2c0,2.1,0,4.1,0,6.2c0,11.8,0.8,23.2,2.5,34.1
			c1.6,10.9,4,21.8,7.1,32.6c0.5,1.7,1.1,3.4,1.7,5c0.6,1.6,1.5,3.1,2.6,4.6C302.2,863.6,304.2,864.8,306.3,864.8z"/>
		<path fill="#231F20" d="M405.4,880.3c-2.8,0-5.6-0.1-8.3-0.4c-2.8-0.3-5.5-0.6-8.2-1c-5.1-0.6-9.2-2.6-12.3-5.9
			c-3-3.3-5.3-7.3-6.7-12c-1.2-3.9-2.1-7.9-2.5-11.8c-0.5-4-0.8-8-1-12l-2.6-44.6c-0.2-2-0.3-5-0.3-9c0-4.1,0-8.1,0-12.1
			c0-3.3,0-6.2,0-8.7s0.1-4.1,0.2-4.9c0.4-12.2,0.9-23.4,1.6-33.5c0.7-10.1,1.5-20,2.4-29.7c0.4-3.3,1.3-5.6,2.8-6.9
			c1.4-1.3,3.9-2.1,7.3-2.3c2.7-0.2,5.4-0.4,8.1-0.5c2.7-0.2,5.4-0.2,8.1-0.2c1,0,2,0,2.9,0c0.9,0,1.9,0.1,2.9,0.2
			c3.6,0.3,6.1,1.1,7.5,2.2c1.4,1.2,2.1,3.3,2.1,6.4l-0.2,2.5c-0.4,4.8-0.8,9.6-1.2,14.4c-0.4,4.7-0.8,9.6-1.1,14.5
			c-0.4,6.2-0.8,12.3-1.1,18.5c-0.3,6.1-0.6,12.3-0.9,18.5v2.8c0,1.6,0,3.7,0.1,6.3c0.1,2.5,0.1,5.1,0.2,7.7c0,2.6,0.1,5.1,0.2,7.6
			c0.1,2.4,0.1,4.4,0.2,5.8c0.5,7.8,1,15.6,1.4,23.4c0.4,7.8,0.9,15.7,1.4,23.7c0.2,2.2,0.4,4.3,0.7,6.5c0.3,2.2,0.5,4.3,0.8,6.5
			c0.1,0.8,0.3,1.6,0.5,2.4c0.2,0.8,0.4,1.6,0.6,2.4c0.6,1.8,1.5,3.3,2.5,4.7c1.1,1.4,2.5,2.2,4.4,2.5l1.1,0.2c1.6,0,3-0.6,4.1-1.7
			c1.1-1.1,2.1-2.4,3-3.9c2.5-3.9,4.4-8,5.7-12.4c1.3-4.3,2.6-8.7,3.7-13.1c2.1-8.9,3.5-17.7,4.3-26.4c0.8-8.7,1.3-17.6,1.5-26.6
			c0-1.3,0-2.7,0-3.9c0-1.3,0.1-2.6,0.3-3.9c0.7-6,1.2-12,1.5-18.1c0.3-6.1,0.5-12.2,0.6-18.3c0.1-6.1,0.2-12.3,0.2-18.6
			c0-6.3,0.1-12.7,0.2-19.2c0-1.1,0-2.2,0.1-3.3c0.1-1.1,0.2-2.2,0.4-3.3c0.5-2.1,1.4-3.6,2.5-4.7c1.2-1.1,2.7-1.6,4.4-1.6h0.9
			c4.1,0.5,6.2,3.1,6.2,7.9c-0.1,6.3-0.2,12.2-0.3,17.7c-0.1,5.5-0.2,10.9-0.2,16.3c-0.1,7.8-0.3,15.6-0.6,23.4
			c-0.3,7.8-0.9,15.6-1.7,23.4c-0.5,5.4-0.8,10.7-0.8,16c-0.1,5.3-0.3,10.7-0.9,16.1c-0.8,7.7-1.9,15.4-3.3,23
			c-1.4,7.6-3.3,15.1-5.8,22.5c-0.9,2.9-2.1,5.6-3.4,8.3c-1.3,2.6-2.8,5.2-4.3,7.8c-1.9,3.2-4.2,5.6-7,7.3c-2.8,1.7-5.9,3-9.3,3.8
			c-2.6,0.6-5.1,1.1-7.6,1.3C410.7,880.2,408.1,880.3,405.4,880.3z"/>
		<path fill="#231F20" d="M604.5,879.5c-5.2-0.3-9.8-1.6-13.9-3.8c-4.1-2.2-7.9-5.2-11.3-8.9c-5.3-5.7-9.3-11.8-12-18.3
			c-2.8-6.5-4.2-13.7-4.2-21.4v-0.6c0-2.4,0-4.7,0-7.1c0-2.4,0.1-4.7,0.2-7.1c0.3-4.7,2.5-7.3,6.6-7.6h0.3c3.8,0,6.3,2.2,7.4,6.6
			l0.3,2.3c0,0.6-0.1,1.3-0.2,1.9c-0.1,0.7-0.2,1.3-0.3,1.9l-0.3,6.2c0,3.6,0.3,7.3,0.9,11c1,5.4,2.9,10.1,5.6,14.4
			c2.7,4.2,6,8.1,10,11.6c1.3,1.1,2.7,2,4.2,2.6c2.2,1,4.4,1.5,6.6,1.5c3.4,0,6.2-1.2,8.5-3.6c2.3-2.4,3.4-5.7,3.6-9.9v-2.5
			c0-6.7-1.1-13.1-3.4-19.3c-1-2.8-2.1-5.5-3.1-8.2c-1-2.7-2.2-5.4-3.4-8c-0.2-0.3-0.6-0.9-1.1-1.8c-0.5-0.9-1.1-1.8-1.9-2.8
			c-0.7-1-1.4-2-2.2-3c-0.7-1-1.4-1.9-2-2.5c-1.1-1.2-2.3-2.5-3.5-3.8c-1.2-1.3-2.3-2.5-3.5-3.7c-1.1-1.2-2.2-2.2-3.1-3.1
			c-0.9-0.9-1.6-1.5-2-1.9c-1.8-1.6-3.5-3.4-5.3-5.3c-1.8-1.9-3.6-3.9-5.5-5.9c-3.9-4.1-7-8.4-9.3-13c-2.3-4.5-3.8-8.7-4.6-12.5
			c-0.4-2.6-0.7-5.1-0.9-7.6c-0.2-2.5-0.3-5.1-0.3-7.6c0-2.9,0.2-5.8,0.5-8.8c0.8-6.8,2.7-13.1,5.6-18.8c2.9-5.8,6.7-11.1,11.4-15.9
			c3-3.2,6.3-5.7,10-7.4c3.7-1.7,7.7-2.6,12.1-2.6h8.2c2.3,0,4.5,0,6.7-0.1c2.2,0,3.9-0.1,5.2-0.1h2.5c6.4,0,11.7,1.6,16,4.7
			c4.3,3.1,7.6,7.4,10,12.9c3.9,9.5,5.9,19.4,5.9,29.8c0,6.9-0.9,14.1-2.6,21.6c-0.5,2.1-1.4,3.6-2.5,4.6c-1.2,1-2.6,1.5-4.2,1.5
			c-0.8,0-1.4-0.1-1.9-0.2c-1.6-0.4-3-1.2-3.9-2.5s-1.5-2.7-1.5-4.5l0.3-2.3c1.2-5.7,1.9-11.3,1.9-17c0-4.8-0.4-9.4-1.1-13.6
			c-0.5-3.2-1.2-6.3-2.1-9.3c-0.9-3-2.6-5.7-5.2-8c-2.1-2-4-2.9-5.9-2.9c-1.2,0-2.8,0.5-4.6,1.4c-0.9,0.5-1.8,1.1-2.7,1.6
			c-0.9,0.6-1.6,1.3-2.2,2.1c-2.9,3-5.4,6.2-7.6,9.7c-2.2,3.5-3.7,7.3-4.6,11.5c-0.9,4.3-1.4,8.6-1.4,13c0,2.5,0.1,4.9,0.4,7.3
			c0.3,2.4,0.6,4.9,1.2,7.3c0.2,0.7,0.7,2,1.4,3.7c0.7,1.8,1.3,3,1.9,3.9c0.7,1,1.5,2.2,2.4,3.4c0.9,1.2,1.9,2.5,3,3.7
			c2.1,2.2,4,4.3,5.9,6.5c1.9,2.2,3.9,4.1,5.9,5.9c2.1,1.8,4.3,3.9,6.8,6.6c2.5,2.6,4.7,5.2,6.8,7.8c0.7,0.8,1.5,1.9,2.4,3.1
			s1.7,2.5,2.5,3.7c0.8,1.2,1.4,2.3,2,3.3c0.6,1,0.9,1.6,1.2,1.9c1.5,3.2,3,6.4,4.2,9.7c1.3,3.2,2.5,6.5,3.6,9.8
			c2.5,7.1,3.7,14.3,3.7,21.6c0,1.1,0,2.2-0.1,3.2c-0.1,1-0.1,2.1-0.2,3.2c-0.3,3.1-1.1,6.1-2.5,9c-1.3,2.9-3.1,5.5-5.3,7.8
			c-2.2,2.3-4.9,4.2-8,5.6c-3.1,1.4-6.6,2.2-10.4,2.3l-18.8,0.3C610.3,880,607.4,879.8,604.5,879.5z"/>
		<path fill="#231F20" d="M678.1,793.3c-0.4-10-0.8-19.9-1.2-29.7c-0.4-9.8-0.6-19.6-0.8-29.5c0-0.4,0-0.8-0.1-1.2
			c-0.1-0.4-0.1-0.8-0.1-1.2c0.1-5.9,0.7-11.6,1.9-17.1c1.2-5.6,3-11,5.5-16.4c3.5-8,9.5-12.4,17.9-13.1c3.8-0.4,7.6-0.7,11.4-0.9
			c3.8-0.2,7.5-0.2,11.4-0.2c4.9,0,9.9,0.2,14.8,0.5c3.5,0.2,6.6,1.1,9.4,2.7s5.3,3.7,7.6,6.4c3.4,4.1,6.3,8.5,8.6,13
			c2.4,4.6,4,9.6,4.8,14.9c1.4,9.1,2.5,18,3.3,26.8c0.8,8.8,1.2,17.7,1.2,26.8c0,3.1-0.1,6.2-0.2,9.2c-0.1,3-0.3,6.1-0.5,9.2
			c-0.2,2.8-0.4,5.5-0.5,8.3c-0.2,2.7-0.2,5.5-0.2,8.3c0,3.3,0.1,6.5,0.4,9.7c0.3,3.1,0.6,6.4,1.2,9.7c0.3,4.2,0.5,8.3,0.7,12.3
			c0.2,4,0.3,7.8,0.5,11.4c0.2,3.7,0.5,7.1,0.9,10.4c0.4,3.3,1,6.3,1.9,9c0.2,0.8,0.3,1.4,0.3,1.7c0,2.1-1.1,3.8-3.2,5.1
			c-1.3,0.8-2.6,1.2-3.9,1.2c-1.4,0-2.9-0.4-4.3-1.2c-1.1-0.8-2-1.8-2.6-2.9s-1-2.4-1.2-3.9c-0.3-2.1-0.7-4.2-1.1-6.3
			c-0.4-2.2-0.6-4.3-0.6-6.5c-0.1-5.7-0.3-10.8-0.7-15.3c-0.4-4.5-0.7-8.7-1.1-12.4c-0.4-3.8-0.7-7.3-1-10.5
			c-0.3-3.2-0.5-6.5-0.5-9.7v-1.4c0-2.1-1-3.1-2.9-3.1H754c-3.6,0.3-7.2,0.7-10.9,1.1c-3.7,0.4-7.3,0.6-10.9,0.6
			c-2.6,0-5.2-0.2-7.7-0.5h-0.8c-2,0-2.9,1.2-2.9,3.6c0.1,4.2,0.2,8.4,0.2,12.6c0,4.2,0,8.4,0,12.7l-0.5,32c0,3.6-0.7,6.2-2.1,7.7
			c-1.4,1.5-3.9,2.4-7.5,2.6c-4.5,0.3-9,0.5-13.4,0.5c-1.2,0-2.5,0-3.8-0.1c-1.3-0.1-2.5-0.1-3.8-0.1c-3.9-0.1-6.7-1-8.3-2.5
			c-1.6-1.6-2.5-4.4-2.6-8.4c-0.1-3.3-0.2-6.5-0.2-9.7c0-3.2,0-6.4,0-9.7l0.5-29.3c0-4.5-0.1-9-0.3-13.4
			C678.7,802.4,678.5,797.9,678.1,793.3z M718.5,760.8c0,4.9,0.2,9.8,0.5,14.7c0.3,4.8,0.6,9.7,0.8,14.7c0,1.3,0.3,2.3,0.8,2.9
			c0.5,0.6,1.5,1,3.1,1.2c1.2,0.1,2.5,0.2,3.7,0.2c1.2,0.1,2.5,0.1,3.7,0.1c3.7,0,7.4-0.2,11-0.5c3.7-0.4,7.3-0.7,11-1
			c1.4-0.1,2.6-0.3,3.4-0.5c0.8-0.3,1.4-0.6,1.9-1.2c0.4-0.5,0.7-1.2,0.8-2.2c0.1-0.9,0.2-2.2,0.3-3.7c0-1.1,0-2.3,0.1-3.5
			c0.1-1.2,0.1-2.3,0.1-3.5c0-6.8-0.2-13.5-0.7-20.2c-0.5-6.7-1-13.4-1.5-20.2c-0.3-3-0.7-5.9-1.2-8.8c-0.5-2.9-1.1-5.8-1.8-8.8
			c-0.8-3.4-2.1-6.5-3.8-9.4c-1.7-2.9-3.7-5.6-5.9-8.2c-1.4-1.7-3-2.9-4.8-3.5c-1.8-0.6-3.6-0.8-5.6-0.8c-0.8,0-1.6,0-2.5,0.1
			c-0.8,0.1-1.6,0.1-2.5,0.2c-2.4,0.2-4,1.1-4.8,2.7c-0.8,1.6-1.6,3.2-2.3,4.9c-3.3,8.1-4.9,16.7-4.9,25.8c0,0.6,0,1.2,0.1,1.9
			c0.1,0.6,0.1,1.2,0.1,1.9c0.1,3.8,0.2,7.6,0.4,11.4c0.2,3.8,0.3,7.6,0.5,11.5V760.8z"/>
		<path fill="#231F20" d="M815.9,880c-1.1,0-2.2-0.1-3.3-0.4c-1.1-0.3-2.2-0.5-3.3-0.9c-3.9-1.1-6-3.9-6.2-8.2
			c-0.8-15.2-1.6-30.3-2.2-45.3c-0.7-15-1-30.1-1-45.3c0-5.7,0.1-11.4,0.2-17.1c0.1-5.8,0.3-11.8,0.6-18.1c0.4-8,0.6-16,0.5-23.8
			c-0.1-7.8,0-15.8,0.2-23.8c0.1-4.6,1-7.8,2.6-9.6c1.6-1.7,4.6-2.6,9-2.6l19.8,0.8c3.3,0.3,5.6,1.1,6.9,2.5
			c1.3,1.3,1.9,3.7,1.9,6.9v4.2c0,4.3,0.1,8.6,0.2,12.8c0.1,4.2,0.2,8.4,0.2,12.7c0,1.1-0.1,3-0.2,5.6c-0.1,2.6-0.2,5.6-0.3,9
			c-0.1,3.4-0.3,7-0.5,10.8c-0.2,3.8-0.4,7.5-0.5,11.1c-0.1,3.6-0.2,6.9-0.3,9.9c-0.1,3-0.2,5.4-0.2,7.1c0,4.2,0.1,8.4,0.2,12.5
			c0.1,4.1,0.3,8.2,0.6,12.4c0.1,0.8,0.2,2.4,0.2,4.8c0,2.4,0,4.8,0,7.4v9.6c0,5.5,0.2,10.9,0.7,16.2c0.5,5.4,0.9,10.8,1.5,16.4
			c0.3,2.8,0.5,5.6,0.5,8.3l-0.2,4.6c-0.4,5.6-3.4,8.5-9,9c-3.1,0.2-6.2,0.4-9.3,0.5C822.1,879.9,819,880,815.9,880z"/>
		<path fill="#231F20" d="M899.6,880c-3.1-0.2-6.2-0.4-9.3-0.6c-3.1-0.2-6.2-0.4-9.3-0.6c-2.2-0.1-3.9-0.3-5.3-0.7
			c-1.4-0.4-2.5-1-3.2-1.8c-0.8-0.8-1.3-1.9-1.7-3.3c-0.4-1.4-0.7-3.2-1-5.5c-0.7-6.3-1.2-12.5-1.5-18.8c-0.3-6.2-0.5-12.5-0.9-18.8
			c-0.5-9.7-0.8-19.5-0.9-29.6c-0.1-10-0.2-19.8-0.2-29.4c-0.2-2.4-0.4-4.8-0.5-7.2c-0.1-2.4-0.2-4.8-0.2-7.2
			c-0.2-2.2-0.4-4.3-0.5-6.6s-0.2-4.4-0.2-6.6c0-5.8,0.2-11.5,0.7-17.1s0.8-11.4,1.2-17.1c0.3-4.9,0.8-9.8,1.4-14.7
			c0.4-3.4,1.4-5.8,2.9-7.3c1.5-1.4,4-2.2,7.6-2.3c5.3,0,10.5,0.1,15.7,0.3c5.2,0.2,10.4,0.4,15.7,0.6c3.4,0.2,6.6,0.8,9.7,1.8
			c3.1,1,6.1,2.2,9.1,3.6c4.7,2.3,8.5,5.7,11.3,10.2c3.9,6.6,6.9,13.5,9,20.6c2.1,7.2,3.6,14.5,4.5,22c0.8,6.4,1.3,12.7,1.3,19.1
			c0.1,6.3,0.4,12.7,1.2,19.1l-0.2,16.5l0.2,9.9l0.2,4.3c0,4.3-0.3,8.6-0.8,12.9c-0.5,4.3-1.2,8.6-2,12.9c-1,5.2-2.9,9.9-5.5,14.1
			s-5.7,8.1-9.2,11.9c-4.9,5.5-10.4,9.4-16.4,11.8c-6,2.4-12.5,3.6-19.6,3.6L899.6,880z M911.8,865.9c7.4-3.4,13.6-7.7,18.5-12.8
			c4.9-5.1,8.2-11.7,9.7-19.8c0.7-3.6,1.2-7.3,1.5-11c0.3-3.7,0.4-7.4,0.4-11l-0.2-9.7c-0.5-8.6-0.8-17.2-1-25.6
			c-0.2-8.4-0.4-17-0.8-25.6c-0.6-14-4.2-27.2-10.7-39.5c-1.6-3.2-3.8-5.5-6.6-6.9c-2.7-1.4-5.6-2.5-8.7-3.3
			c-0.4-0.1-0.9-0.2-1.5-0.2c-1.8,0-2.7,1.2-2.9,3.6l-0.6,9.9c-0.3,5-0.6,10-0.9,15c-0.3,4.9-0.5,9.9-0.5,15c0,2.4,0.1,4.7,0.2,7.1
			c0.1,2.4,0.3,4.7,0.5,7.1c0,4.8,0.2,9.6,0.5,14.4c0.1,11.5,0.2,23.2,0.3,35.1s0.5,23.6,1.1,35c0.2,3.7,0.4,7.4,0.6,11.2
			C910.8,857.6,911.2,861.6,911.8,865.9z"/>
	</g>
	<g>
		<path fill="#231F20" d="M172.2,437.9c-0.1,0-0.1,0-0.2,0c0,0.1,0,0.1,0.1,0.2c0.4,1.6,0.1,5.8-0.5,16.2c-1,16-2.7,42.7-2.7,78.8
			c0,43.2,1.9,88.2,2.2,96c0.3,0,0.8,0,1.2-0.1c2.3-0.1,3.9-0.2,4.9,0.1c1.7,0.6,2.8,2.2,2.7,4c0.1,1.3-0.7,2.6-1.9,3
			c-1.3,0.4-26.5,3.1-28.7,3.1c0,0-0.1,0-0.1,0c-1.9-0.3-3.1-2.3-3.3-4.1c-0.2-1.8,0.5-3.2,1.9-3.7c2-0.5,4.1-0.9,6.2-1
			c-2-14-7.6-69.7-7.6-113.2c0-39.3,1.7-69.1,3.3-78c-1.7,0-6.1,0.3-10.5,0.5c-5.9,0.3-9.8,0.5-11,0.5c-0.1,0-0.2,0-0.2,0
			c-1.6-0.1-2.9-1.4-3.4-3.5c-0.4-1.7-0.2-3.9,1.5-4.8c2.2-1.1,54.1-4.6,74-3.4c3.3,0.2,5.1,2.3,5.3,4.2c0.2,1.9-1.1,3.7-2.9,4.1
			c-0.8,0.2-4.1,0.3-17.6,0.6C179.2,437.7,173.4,437.7,172.2,437.9z"/>
		<path fill="#231F20" d="M502.8,426.6c0,2.9-0.8,7.1-7.8,10c-6.9,2.9-18.8,4.3-36.5,4.3c-16.6,0-33.3-2-48.5-4.1c0,0,0,0,0,0
			c-4.3,21.1-18.1,142.5-11.8,192.9c0.4,3.3-1.9,5.9-5.9,6.8c-0.8,0.2-1.6,0.2-2.3,0.2c-3.3,0-6.6-1.4-7.5-4.6
			c-2.9-10-5.9-62.7-5.9-69.3c0-63.3,8.4-116.6,11.3-128.9c-6.6-0.8-13.2-1.3-19.8-1.4c-38.8,0-49.8,15.9-52.7,22.8
			c-0.5,1.3-1.8,2.2-3.3,2.2c-0.3,0-0.6,0-0.9-0.1c-3.2-0.7-6.6-4.6-6.6-9.8c0-6.6,5.2-13,14.1-17.7c6.7-3.5,18.6-7.7,37.3-7.7
			c16.3,0,32.6,2.2,49.9,4.5c17.4,2.3,35.4,4.7,53.5,4.7c15.5,0,32-3,35.3-6.4c0.2-0.2,0.3-0.4,0.4-0.6c0-1.2,0.6-2.3,1.6-2.9
			c1.2-0.7,2.6-0.7,3.8,0C501.9,422.4,502.7,424.3,502.8,426.6z"/>
		<path fill="#231F20" d="M527.9,523.1c-0.3,3.2-15.2,74.4-36,74.4c-35.2,0-20.4-82.4-23.1-82.4c-2,0-17.8,29.5-25.8,82.8
			c0,0.5,0,0.9,0,1c-0.2,4-9.7,9-13,0.3c-1.4-3.7-7.9-29.4-7.9-61.1c0-55.7,21-122.6,48-122.6c9.6,0,12.7,6.3,12.7,14.3
			c0,32-31.8,75.2-38.4,81.8c-1.7,15.4-2.6,30.9-2.5,46.4c0,1.9,0,3.8,0,5.6c1.8-6.2,14.6-57.8,27.8-64.6c3.8-2,12.3-0.7,16.5,6
			c1.9,3.1,4.6,9.6,4.6,21.5c0,8.6-1.9,20.9-1.9,33.6c0,17.8,3,29.2,4.6,29.2c2.8,0,14.3-15.1,28.7-67.8
			C522.9,518.7,528.3,518.6,527.9,523.1z M445.9,499.2c5.5-3.3,29.6-46.5,29.6-67.7c0-3.8-0.5-7.9-2-7.9
			C470.7,423.6,453.9,447,445.9,499.2z"/>
		<path fill="#231F20" d="M599.3,522.8c-0.3,4.3-9.5,30-27.2,33.8c-0.5,7.2-1.8,14.2-3.8,21.1c-4.3,13.4-11.5,20.5-21.1,20.5
			c-14.3,0-29.8-15.9-29.8-41.5c0.1-10.2,2.1-20.4,5.8-30c4.6-11.5,11-17.5,18.5-17.5c3.2,0,5.4,0.7,6.7,2c0.5-0.2,1.1-0.2,1.6-0.2
			c13.9,0,22.5,13.8,22.5,36c0,0.5,0,1.2,0,2.1c11.4-4.5,20-23.5,21.4-27.7c0.6-1.7,2-2.8,3.4-2.5
			C597.8,519.1,599.5,519.7,599.3,522.8z M563.4,556.7c-11-2.1-19.5-11.8-23.8-21.2c-1.5,6.1-2.2,12.3-2.1,18.6
			c0,23.3,7.8,35.7,11.1,35.9c0.7,0,2.2-0.5,4-2.2C555,585.5,562.1,577.2,563.4,556.7z M563.6,549.1c-0.2-21.3-7.3-31.2-12.1-31.2
			c-0.3,0.1-1.4,1.7-1.4,7C550.2,536.7,557.3,546.1,563.6,549.1z"/>
		<path fill="#231F20" d="M692.4,524.6c-4.9,38.4-11.9,74-30.4,74c-15.3,0-26.7-19.4-28.8-48c-0.3,1.2-0.7,2.6-1.1,4.1
			c-3.9,14.8-9.7,37.2-21.9,37.2c-5.5,0-10.5-3.6-14.1-10.3c-3.7-6.8-5.7-16.2-5.7-27.2c0-10.3,2.7-38,4.1-42.2
			c1-3.1,5.7-3.9,9.9-3.3c5.3,0.8,8.7,3.4,8.9,6.7c-0.1,1.7-0.3,3.3-0.5,4.9c-2.1,15.2-3.1,30.5-3.1,45.8c0,13.6,1.8,17.9,2.6,18.5
			c0.8-0.1,5.2-1.9,12.8-27.3c4.1-13.9,7.4-28.7,8-32.4c0.3-6.8,0.8-12.7,2-15.5c1.4-3.5,5.6-4.8,11-3.5c4.3,1,8.8,3.7,8.5,7
			c-0.1,0.8-0.2,1.8-0.3,3.2c-1.2,10.2-1.9,20.5-1.9,30.8c0,34,9,43.4,11.4,44c5.4-0.1,11.5-11.6,16.7-31.6
			c3-11.4,5.2-22.9,6.8-34.6c0.1-2.3,1.2-3.1,1.7-3.3c0.8-0.4,1.7-0.3,2.5,0.2C692.2,522.4,692.6,523.5,692.4,524.6z"/>
		<path fill="#231F20" d="M791.9,510.3c-6.8,18-18.3,32.1-31.6,44.1c0.1,3.3,0.1,6.8,0.1,10.5c0,56.4-24.5,108.8-67.4,108.8
			c-18.2,0-28.6-11.7-28.6-30c0-37.6,39.1-53.9,74.4-79.6c-0.9-10.2-3-28.7-4.7-43.6c-3.7,11.7-12.6,39.1-28.9,39.1
			c-5.6,0-25.2-3.5-25.2-27c0-18.9,11.4-37.5,28.3-37.5c18.8,0,21.1,11.8,20.1,15.5c0,0.1-0.1,0.3-0.1,0.4c-2,5.1-6.3,2.3-6.6,0.7
			c-0.3-1.1-2.4-7.1-5.2-7.2c-2.8-0.2-14.5,12.2-14.5,31c0,9.7,3.6,17.2,4.7,17.2c3.7,0,15-13.4,22.9-41.8c0.8-2.8,1.5-5.8,2.3-8.9
			c-0.2-1.8-0.3-3.1-0.3-3.6c-0.3-5.2,14-5.1,18.3,0.5c3.1,3.9,8.5,15.6,10,47.9c11.6-11,20.6-23.9,26.4-37.8
			C787.4,506.6,793.3,506.5,791.9,510.3z M739.3,571.2c-31.8,23.1-64.6,39.9-64.6,70.4c0,18.3,13.2,25.2,18,25.2
			C706.3,666.9,739.1,646.7,739.3,571.2z"/>
		<path fill="#231F20" d="M877.1,523.1c-0.3,3.2-15.2,74.4-36,74.4c-35.2,0-20.4-82.4-23.1-82.4c-2,0-17.8,29.5-25.8,82.8
			c0,0.5,0,0.9,0,1c-0.2,4-9.7,9-13,0.3c-1.4-3.7-7.9-29.4-7.9-61.1c0-55.7,21-122.6,48-122.6c9.6,0,12.7,6.3,12.7,14.3
			c0,32-31.8,75.2-38.4,81.8c-1.7,15.4-2.6,30.9-2.5,46.4c0,1.9,0,3.8,0,5.6c1.8-6.2,14.6-57.8,27.8-64.6c3.8-2,12.3-0.7,16.5,6
			c1.9,3.1,4.6,9.6,4.6,21.5c0,8.6-1.9,20.9-1.9,33.6c0,17.8,3,29.2,4.6,29.2c2.8,0,14.3-15.1,28.7-67.8
			C872.1,518.7,877.6,518.6,877.1,523.1z M795.1,499.2c5.5-3.3,29.6-46.5,29.6-67.7c0-3.8-0.5-7.9-2-7.9
			C819.9,423.6,803.1,447,795.1,499.2z"/>
		<path fill="#231F20" d="M962.4,459.2c-6,18.1-25.9,26.8-60.9,26.8c-1,0-2.1,0-3.2-0.1c-2,20-3.9,47.4-3.9,80.4
			c0,20.8,1.5,49.2,8.6,66.2c0.1,0.4,0.3,0.7,0.5,1.1c0.2-0.2,0.4-0.5,0.5-0.7c16.3-24.3,30-109.3,30.1-110.2c0.4-2.4,2-3.4,3.4-3.2
			c1.4,0.2,2.6,1.5,2.3,3.7c-5.3,37.7-11.1,66.9-17.3,86.7c-6.6,21.4-13.6,31.8-21.3,31.8c-8.2,0-14.7-6.9-19.4-20.6
			c-5.8-16.9-8.7-44.1-8.7-81c0-20.3,1.3-40.5,2.9-57c-4.9-0.8-9.9-1.8-15.1-2.8c-18.8-3.5-40.1-7.6-59-7.6
			c-23.2,0-33,16.8-36.2,22.3c-0.3,0.6-0.7,1.2-1.1,1.8c-0.8,0.9-2,1.3-3.1,1.2c-1.6-0.1-3.2-0.4-4.7-1.1c-3.5-1.5-7.5-4.6-7-8.5
			c0.4-4,14.3-27,44-27c9.5,0,34,4.5,57.6,8.9c9.1,1.7,18,3.3,25.7,4.6c1.9-16.6,4.1-28.1,5.4-30.1c2.3-3.5,8.7-3.6,13.7-2
			c4.3,1.4,6.7,4,6.5,6.8c-0.1,0.9-0.3,2.8-0.7,5.8c-0.7,4.9-1.7,12.5-2.8,22.4c0.1,0,0.2,0,0.3,0c27.7,0,39.1-5.9,50.6-26.5
			c0.9-1.5,3-2.7,6.3-1.2C959.7,451.7,963.6,455.6,962.4,459.2z"/>
	</g>
	<g>
		<g>
			<path fill="#231F20" d="M272.7,397.3c-4.5,1.6-8.7,2.6-12.7,2.8c-4,0.2-7.6-0.2-10.9-1.1c-3.3-1-6.3-2.3-8.9-4.2
				c-2.7-1.8-5-3.9-6.9-6.3c-6.7-8.3-13-16.8-19-25.7c-5.6-8-10.8-16.5-15.4-25.3c-4.6-8.8-9.3-18.8-14.2-30
				c-2.8-6.5-5.5-13.1-8-19.8c-2.5-6.6-5-13.3-7.5-20c-3.4-9.2-4.2-18.9-2.2-29c2-10.1,5.4-20.5,10.4-31.1c4-9,12.1-15.9,24.1-20.3
				c8.1-3,16.2-5.8,24.4-8.6c3.7-1.2,7.4-2.4,11.2-3.4c3.7-1.1,7.4-2,11.1-2.7c11.7-2.3,22.3-2.8,31.8-1.4c9.5,1.4,17.6,5,24.2,10.8
				c2.4,2.2,4,4.7,4.7,7.7c0.4,1.6,0.5,3.3,0.4,5.1c-0.3,2.4-1.4,4.4-3.1,6.1c-1.8,1.7-3.9,2.9-6.5,3.6c-0.3,0.1-0.7,0.2-1,0.3
				c-2.9,0.6-5.6,0.5-7.9-0.4c-2.3-0.9-4-2.4-5-4.6c-4.3-9.6-14.2-13.8-29.8-12c-2.4,0.2-4.6,0.7-6.5,1.2c-2.8,0.9-5,2.9-6.6,6.1
				c-3.7,7.4-6.7,14.8-9,22c-2.3,7.2-2.9,14.4-1.9,21.5c0.6,3.3,1.2,6.5,2,9.7c0.7,3.2,1.7,6.4,2.7,9.4c2.6,7.5,5.2,15,7.8,22.5
				c3,8.7,5.8,16.4,8.3,23c2.5,6.6,5.2,13,8.1,19c3.4,7.4,7.3,14.5,11.5,21.4c4.3,6.9,8.7,13.8,13.2,20.6c0.6,0.8,1.3,1.6,2.1,2.4
				c0.8,0.8,1.7,1.5,2.7,2.2c3.1,1.9,6.4,2.4,9.7,1.3c0.4-0.1,0.9-0.3,1.5-0.5c0.6-0.2,1.1-0.5,1.6-0.9c4-2.4,7.8-5,11.3-7.9
				c3.5-2.9,6.5-6.1,9-9.5c2.5-3.4,4.4-7.1,5.5-11c1.1-3.9,1.3-7.9,0.6-12c-0.5-2.4-1-4.8-1.4-7.2c-0.9-3.4-1.8-6.5-2.8-9.2
				c-1-2.8-2-5.5-3-8.3c-0.8-1.6-1.7-2.7-2.9-3.1c-1.2-0.5-3-0.4-5.5,0.3c-2,0.7-3.9,1.3-5.7,2c-1.9,0.6-3.8,1.4-5.6,2.3
				c-1.6,0.9-3.3,1.8-4.9,2.7c-1.7,0.9-3.3,1.5-4.9,2c-5.8,1.7-9.9,1-12.4-2.2c-0.3-0.4-0.6-1-0.8-1.8c-1.1-3.4,1.3-7.2,7.2-11
				c5.8-3.5,12-6.2,18.3-8.1c6.8-2.1,13.6-4.1,20.4-6c5.2-1.3,9.2-1.5,12.2-0.5c2.9,0.9,4.8,3.2,5.6,6.7c0.1,0.6,0.3,1.3,0.4,1.9
				c0.7,5.2,1.7,10.4,2.9,15.4c1.8,7.5,3.8,14.7,6,21.5c2.2,6.8,4.5,13.6,6.8,20.4c0.5,1.4,1,2.9,1.7,4.4c0.6,1.5,1.3,3.1,2.1,5
				c0.3,1.1,0.7,2.2,1,3.4c0.4,1.8,0.5,3.5,0.3,5c-0.3,2-1.2,3.7-2.6,5.1c-1.4,1.4-3.2,2.4-5.3,2.9c-4.8,0.9-8.3-0.4-10.5-3.9
				c-0.6-1.2-1.2-2.5-1.8-4c-0.6-1.5-1.4-3.5-2.3-6c-2.3,2.7-4.6,5-6.8,7.1c-2.2,2.1-4.2,4.1-6.3,6c-7.9,7.3-17.3,12.8-28.3,16.6
				C291.2,390.8,281.9,394,272.7,397.3z"/>
		</g>
		<g>
			<path fill="#231F20" d="M452,355.2c-3.3,0.4-6.5,0.7-9.6,1.1c-3.1,0.3-6.3,0.7-9.6,1c-5.8,0.5-9.5-1.7-11-6.6
				c-0.2-0.6-0.4-1.5-0.6-2.7c-0.1-0.9-0.3-1.8-0.4-2.8c-1.4-8-2.8-15.8-4.4-23.6c-1.6-7.8-3-15.7-4.2-23.7
				c-0.4-3.9-0.9-7.8-1.3-11.7c-0.3-1.8-0.8-3.4-1.6-4.5c-4.2-7.4-7.8-14.9-11-22.5c-3.1-7.6-6.3-15.2-9.4-22.9
				c-3.8-8.4-7.5-16.7-11.3-25c-3.7-8.3-7.5-16.6-11.4-25c-2-4-3.9-8-5.9-11.9c-1.9-3.9-4.2-7.8-6.7-11.6c-0.5-0.7-0.9-1.5-1.3-2.2
				c-0.3-0.7-0.5-1.4-0.7-2.1c-0.6-3.2,0.5-6.1,3.5-8.7c3-2.6,7.4-4.5,13.3-5.8c5-0.9,9.9-1.8,14.9-2.7c4.6-0.7,9.2-1.4,13.9-2.1
				c2.2-0.3,4.4-0.6,6.7-0.9c2.3-0.3,4.6-0.6,7-0.8c4.9-0.5,8.4-0.1,10.5,1.3c2.1,1.3,3.8,3.5,5,6.4c2.6,6.8,5.2,13.4,7.9,19.9
				c2.7,6.5,5.3,13.2,8,20c5.3,14.2,10.4,28.5,15.4,42.7c1.1,2.7,2.2,5.4,3.2,8.2c1.6-2.4,2.5-4.6,2.8-6.8c0.2-2.1,0.7-4.2,1.4-6.3
				c3.4-13.4,6.6-26.8,9.5-40.2c2.9-13.4,6.9-26.7,12.2-40c0.5-1.3,1-2.7,1.7-4c0.7-1.4,1.4-2.7,2.3-3.9c1.2-1.7,2.8-3,4.8-3.8
				c2-0.8,4.2-1.3,6.5-1.4c1.8-0.1,3.2,0,4.1,0.2c5.3,1.1,8,3.5,8.1,7.1c-0.2,0.8-0.3,1.6-0.5,2.5c-1,2.8-2.2,5.6-3.6,8.4
				c-1.4,2.8-2.4,5.7-3.2,8.6c-4.8,15.8-9.3,31.7-13.4,47.4c-4.1,15.8-8.3,31.7-12.4,47.6c-2.2,7.8-3.8,15.3-4.6,22.6
				c-0.9,7.3-1.1,13.7-0.7,19.3c0.3,2.4,0.5,4.9,0.8,7.3c1,6.5,1.7,13,2.1,19.5c0.5,6.5,1,13,1.7,19.5c0,0.4,0.1,0.8,0.1,1.2
				c0.3,3.7-0.5,6.5-2.4,8.3c-1.9,1.8-5.1,3-9.8,3.8C463.1,353.9,457.6,354.6,452,355.2z"/>
		</g>
		<g>
			<path fill="#231F20" d="M560,350.9c-5.8-0.2-9.1-2.9-9.9-8.3c-0.3-2.1-0.5-4.2-0.6-6.3c-0.1-2.1-0.2-4.2-0.4-6.3
				c-0.3-12.8-0.7-25.5-1.4-38.3c-0.6-12.8-1-25.7-1.1-38.5c0-3.7-0.1-7.5-0.4-11.2c-0.3-3.7-0.4-7.5-0.4-11.2
				c0.4-29.3,0.8-58.6,1.2-87.9c0.4-7.8,6.3-12.1,17.7-12.5c6-0.3,12-0.5,18-0.5c6,0,12,0.1,18,0.5c1.6,0.1,3.3,0.2,4.9,0.3
				c1.6,0.1,3.4,0.3,5.2,0.5c5.8,0.7,9.9,1.8,12.1,3.4c2.2,1.6,3.7,4.2,4.2,7.9c2.9,14.1,7,29.3,11.9,45.5
				c4.9,16.2,9.9,32.8,14.9,49.7c0.5,1,0.9,2,1.3,3c1.2-0.4,2-0.8,2.3-1.2c0.3-0.4,0.6-0.8,0.8-1.4c7.4-15.8,15.6-31,24.6-45.6
				c9-14.6,17.9-28.3,26.6-41.1c3.1-5,8-7,14.7-5.7c0.5,0.1,1.1,0.2,1.6,0.3c3.5,1,6.3,2.7,8.3,5.1c2,2.4,2.7,5,2.3,7.9
				c-2.7,13.3-5.4,26.6-8.1,39.9c-0.8,3.6-1.6,7.2-2.5,10.8c-1.7,8.5-3.2,16.9-4.5,25.3c-1.3,8.4-2.5,16.9-3.6,25.5
				c-1.1,9.4-2.5,19.3-4.2,29.6c-1.7,10.3-3.2,20.1-4.7,29.5c-0.4,3.6-0.9,7.2-1.4,10.7c-0.5,3.5-1,7.1-1.5,10.7
				c-0.3,2.7-0.5,5.4-0.8,8c-0.3,2.6-0.2,5.4,0,8.2c0,0.8,0,1.5-0.1,2.3c-0.4,1.9-1.6,3.5-3.6,4.7c-1.9,1.2-4.2,1.8-6.6,1.8
				c-0.6,0-1.4-0.1-2.3-0.3c-2-0.4-3.7-1.3-5.2-2.7c-1.5-1.4-2.5-3.2-2.9-5.3c-0.3-1.4-0.5-2.7-0.5-3.9c0-1.2,0.1-2.5,0.2-3.8
				c2.5-22.4,5.2-45.1,8-68.3c2.8-23.1,5.7-45.9,8.8-68.3c-0.1-0.6-0.1-1.2-0.2-1.6c-0.1-0.5-0.2-1.1-0.5-1.7
				c-2.8,2.8-5,5.8-6.7,8.9c-1.7,3.1-3.4,6.2-5.2,9.4c-3.9,7.2-7.6,14.3-11.1,21.4c-3.5,7.1-6.9,14.3-10.3,21.6
				c-0.7,1.2-1.3,2.5-2,3.8c-0.7,1.3-1.5,2.6-2.5,3.7c-1.3,1.3-2.8,2.3-4.6,2.7c-1.7,0.5-3.5,0.6-5.4,0.3c-3.6-0.5-6.4-2.1-8.4-4.8
				c-0.8-1-1.4-2.1-1.7-3.3c-0.3-1.2-0.7-2.3-1-3.6c-3.2-10.9-6.7-21.6-10.5-32.3c-3.8-10.7-7.4-21.5-10.5-32.5
				c-0.3-0.6-0.5-1.2-0.5-1.7c0-0.5-0.5-1-1.3-1.4c-0.2,0-0.3,0-0.5,0c-0.5,0-0.8,0.2-0.8,0.6c-0.5,4.3-1,8.6-1.5,12.8
				c-0.4,4.2-0.8,8.5-1.2,12.8c-0.6,6.6-0.8,13.2-0.7,19.7c0.1,6.5-0.1,13-0.7,19.7c-1.8,20.4-2.8,40.7-3.2,60.8c0,2-0.1,4-0.2,6.1
				c-0.1,2.1-0.1,4.2,0,6.3c0,0.6,0,1.3,0,1.9c-0.3,3-1.4,5.2-3.5,6.6c-2.1,1.3-5.1,2.1-9.1,2.3c-6.2,0.1-12.3,0-18.4-0.4
				c-6.1-0.4-12.2-0.5-18.4-0.5C560.4,350.9,560.2,350.9,560,350.9z"/>
		</g>
		<g>
			<path fill="#231F20" d="M813.6,330.9c-4.6-1.6-9.1-3.3-13.5-5.2c-4.4-1.9-8.7-3.8-13.1-5.8c-2.5-1-4.2-2.4-5.1-4.1
				c-1-1.8-1.1-3.6-0.5-5.7c0.3-0.6,0.5-1.2,0.8-1.8c1.9-4.1,4-8,6.4-11.7c2.4-3.7,5.5-7.2,9.3-10.3c7.7-6.1,15.2-12.7,22.7-19.9
				c7.5-7.2,13.8-15.3,18.9-24.3c1.7-3,3.5-5.9,5.3-8.8c1.8-2.8,3.6-5.8,5.4-8.7c0.9-1.7,1.7-3.4,2.3-5.1c0.6-1.8,1.3-3.5,2.1-5.2
				c0-0.1,0.1-0.2,0.1-0.3c0.6-1.7,0.5-3.6-0.3-5.8c-0.8-2.2-2-4.3-3.7-6.4c-1.7-2-3.8-4-6.4-5.8c-2.6-1.8-5.2-3.2-8-4.1
				c-0.9-0.2-1.8-0.4-2.7-0.7c-4.8-1-9.4-1.6-13.7-1.7c-4.3-0.1-8.3,0.7-12,2.4c-4.8,2.3-8.8,4.9-12,7.8c-3.2,2.9-5.3,6.3-6.3,10
				c-1.3,4.6-0.5,10,2,16.2c0.8,2.2,1,3.9,0.7,5.3c-0.8,2.8-3.3,4.4-7.4,4.7c-2.2,0.1-4.2-0.1-6.2-0.6c-2.3-0.6-4.4-1.6-6.2-3.1
				c-1.8-1.4-3.2-3.2-4.1-5.2c-3.3-7.8-4.2-15.3-2.5-22.3c0.5-2.2,1.3-4.2,2.2-6.1c0.9-1.9,2.1-3.9,3.5-5.8
				c6.6-9.5,15.9-15.7,28.2-18.6c12.2-2.8,26.9-2.1,43.7,2.5c2.6,0.8,5.1,1.5,7.7,2.3c5.9,1.9,11.8,3.9,17.6,6
				c4.7,1.7,9.3,3.4,13.8,5.1c4.5,1.8,7.8,3.2,10.1,4.1c5.7,2.7,10.8,5.9,15.2,9.6c4.4,3.7,8,7.6,10.7,11.7
				c2.7,4.1,4.5,8.3,5.3,12.5c0.9,4.3,0.7,8.3-0.6,12.1c-0.4,1-0.8,1.9-1.3,2.9c-0.6,1.3-1.2,2.6-1.8,3.9c-0.7,1.3-1.4,2.6-2.1,3.9
				c-7.9,12.5-17.1,24-27.4,34.7c-10.3,10.7-21.7,20-34.2,28.2c-3.1,2.1-5.6,4.4-7.4,7.1c-1.9,2.7-3.7,5.4-5.5,8.2
				c-0.9,1.5-1.9,2.8-2.8,3.7c-1,1-2.1,1.6-3.3,2c-1.3,0.4-2.7,0.6-4.4,0.5c-1.7-0.1-3.7-0.3-6-0.8
				C822.6,333.6,818,332.4,813.6,330.9z M772.3,385.8c-3.8-1.3-6.4-2.9-7.8-4.8c-1.4-1.9-1.9-4.5-1.5-7.8c0-1,0.1-1.9,0.4-2.8
				c0.3-0.9,0.5-1.8,0.8-2.7c1.2-3.9,2.3-7.8,3.4-11.7c1.1-3.9,2-7.8,2.9-11.9c0.1-0.5,0.3-1,0.4-1.5c1.8-6.1,6.6-8,14.4-5.7
				c4.5,1.1,8.9,2.4,13.5,3.7c4.5,1.3,8.9,2.7,13.3,4.2c2,0.7,4,1.4,5.9,2.1c1.9,0.7,3.8,1.5,5.8,2.5c4.3,1.8,7,3.8,8.3,5.8
				c1.3,2,1.4,4.8,0.5,8.2c-0.9,3.2-1.9,6.2-3.2,9.2c-1.2,3-2.4,6.1-3.5,9.3c-0.5,1.2-0.8,2.4-1.1,3.6c-0.3,1.2-0.4,2.5-0.3,3.9
				c0,0.8,0,1.5-0.1,2.2c-0.1,0.7-0.3,1.3-0.5,1.9c-1.9,4.9-6.8,6.3-14.5,4.4c-0.7-0.1-1.4-0.3-2-0.5c-0.6-0.2-1.3-0.5-1.9-0.7
				C794.3,392.7,783.3,389.1,772.3,385.8z"/>
		</g>
	</g>
	<g>
		<g>
			<path fill="#231F20" d="M861.5,1102.5c-11.4,0.1-22.7-0.4-33.7-3.6c-2-0.6-4.9-0.5-5.2-3.3c-0.3-3,2.6-3.2,4.5-3.9
				c6.5-2.5,13.4-3.8,20.4-4.2c4.2-0.2,5.8-2.1,5.8-6.2c0.2-18.5,0.4-37,0.8-55.4c0.1-2.8-0.6-4.5-3.4-5.3
				c-6.4-1.7-9.3-6.3-9.8-12.4c-0.3-4-2.2-5.6-5.9-6.4c-12.3-2.8-24.1-7.4-33.3-16c-7.4-6.8-14.3-12.1-24.8-8.5
				c-0.3,0.1-0.7,0-1.1,0c-20.5-0.6-37.6-17.3-38.7-37.8c-1.1-20.7,14-39.6,33.7-42.4c21.3-3,41.1,10.2,45.5,30.7
				c1.2,5.5,3.4,7.5,9.1,7.5c36.2,0.3,72.4,1,108.7,1.5c6.7,0.1,7.4,0.8,6.7,7.3c-1,9.3-3.9,17.9-9.2,25.6
				c-12.2,17.9-29.7,27.8-50.4,32.5c-4.4,1-6.8,2.6-6.9,7.4c-0.1,5.1-2.9,8.8-7.8,10.2c-4.2,1.2-5.3,3.7-5.4,7.6
				c-0.2,18.1-0.4,36.2-0.8,54.3c-0.1,3.9,1.2,5.5,5.2,5.9c7.5,0.8,14.8,2.2,21.8,5.3c1.6,0.7,3.1,1.5,3,3.4c-0.1,2.1-1.8,2.6-3.4,3
				c-2.5,0.6-5,1-7.6,1.4C873.6,1102.3,867.5,1102.5,861.5,1102.5z M798.8,934.3c0.9,0.1,1.8,0.3,2.7,0.4c11.1,0.5,12-0.9,7.7-11.4
				c-6.7-16.1-25.4-24.4-42.5-19c-17.4,5.5-27,23-22.8,41.4c3.7,16.2,20.5,28,36.6,25.8c6-0.8,6-1.2,2.7-6c-5.4-7.8-5.9-17.1-7-26.2
				c-0.3-2.7,1.5-4,4-4.3c3.1-0.3,6.2-0.3,9.3-0.5C792.4,934.5,795.6,934.4,798.8,934.3z M923.9,970.8c4.9-6.1,8.2-12.9,10.1-20.5
				c1.8-7,1.4-7.6-5.8-7.8c-20.7-0.4-41.4-0.7-62-1c-26.2-0.4-52.3-0.6-78.5-1.2c-5.5-0.1-6,1.8-5.2,6.4c2.9,15,11.2,26.5,23.2,35.4
				c21.3,15.9,45.3,19.5,70.4,15.7C895.3,993.7,911.7,985.9,923.9,970.8z"/>
		</g>
		<g>
			<path fill="#231F20" d="M798.8,934.3c1.7-0.4,4.1,0,3.7-2.8c-0.5-3.3-1.4-6.7-4-8.8c-1.7-1.4-3,1.3-4.3,2.4
				c-2.1,1.8-3.9,3.9-6.1,5.5c-3.3,2.5-0.9,3.1,1.1,3.9C792.4,934.5,795.6,934.4,798.8,934.3z"/>
		</g>
		<g>
			<path fill="#231F20" d="M878.5,986c9.5-2.2,18.7-5.1,27-10.4c5.7-3.6,10.1-8.4,12.6-14.8c2.1-5.3,1.4-6.5-4.2-6.5
				c-25.9-0.4-51.9-0.7-77.8-1.1c-11.9-0.2-23.8-0.1-35.6-0.6c-4-0.2-4.1,1.4-3.4,4.4c1,4.2,3.1,7.7,6,10.9
				c9.6,10.5,22.2,15,35.7,17.7C851.9,988.2,865.2,988.5,878.5,986z"/>
		</g>
		<g>
			<path fill="#231F20" d="M773.8,944c-4.2,4.1-7.7,7.5-11.2,10.9c-1.6,1.5-1.6,2.7,0.3,3.8c0.8,0.5,1.5,1,2.3,1.4
				c7.2,3.9,8.4,3.3,8.6-4.8C774,951.9,773.9,948.5,773.8,944z"/>
		</g>
		<g>
			<path fill="#231F20" d="M769,939.4c-4.7-0.1-7.9-0.4-11.1-0.1c-2,0.2-5.4-2.2-6,1.1c-0.6,3.7,0.9,7.5,3.6,10.5
				c1,1.1,1.9-0.2,2.7-0.9C761.5,946.8,764.7,943.6,769,939.4z"/>
		</g>
		<g>
			<path fill="#231F20" d="M769.3,933.1c-3.7-3.8-6.6-6.2-9-9.2c-2.9-3.7-4.6-2.2-6.1,1c-0.8,1.6-1.3,3.4-1.9,5.1
				c-0.7,2-0.2,3,2.2,3C759,932.9,763.3,933,769.3,933.1z"/>
		</g>
		<g>
			<path fill="#231F20" d="M774.1,928.7c0.1-5.5,0.1-9.7,0.3-13.9c0.1-2.8-1-3.7-3.6-2.9c-0.9,0.3-1.7,0.5-2.6,0.9
				c-6.7,2.7-6.8,3-1.9,8C768.5,923.1,770.8,925.4,774.1,928.7z"/>
		</g>
		<g>
			<path fill="#231F20" d="M780.6,928.2c3.7-3.8,6.3-6.9,9.3-9.6c2.5-2.3,1.6-3.6-0.9-4.7c-1.5-0.7-3.1-1.1-4.6-1.7
				c-2.6-1-3.8-0.2-3.8,2.6C780.7,918.8,780.7,922.8,780.6,928.2z"/>
		</g>
	</g>
	<g>
		<g>
			<path fill="#231F20" d="M220.6,1101c-2.5-0.5-5.1-0.9-7.6-1.4c-1.6-0.4-3.3-0.9-3.4-3c-0.1-2,1.5-2.7,3-3.4
				c7-3.1,14.3-4.5,21.8-5.3c4-0.4,5.3-2,5.2-5.9c-0.4-18.1-0.6-36.2-0.8-54.3c0-3.9-1.1-6.4-5.4-7.6c-4.8-1.4-7.7-5.1-7.8-10.2
				c-0.1-4.8-2.5-6.4-6.9-7.4c-20.7-4.7-38.2-14.6-50.4-32.5c-5.3-7.7-8.2-16.3-9.2-25.6c-0.7-6.5,0-7.2,6.7-7.3
				c36.2-0.5,72.4-1.2,108.7-1.5c5.7,0,7.9-2,9.1-7.5c4.3-20.5,24.2-33.7,45.5-30.7c19.8,2.8,34.8,21.7,33.7,42.4
				c-1,20.5-18.1,37.2-38.7,37.8c-0.4,0-0.8,0.1-1.1,0c-10.5-3.6-17.5,1.7-24.8,8.5c-9.3,8.6-21,13.2-33.3,16
				c-3.8,0.9-5.6,2.5-5.9,6.4c-0.5,6.2-3.4,10.8-9.8,12.4c-2.8,0.7-3.5,2.4-3.4,5.3c0.4,18.5,0.6,36.9,0.8,55.4c0,4.1,1.6,6,5.8,6.2
				c7,0.4,13.8,1.7,20.4,4.2c1.9,0.7,4.9,0.9,4.5,3.9c-0.3,2.7-3.2,2.7-5.2,3.3c-11,3.2-22.4,3.7-33.7,3.6
				C232.6,1102.5,226.5,1102.3,220.6,1101z M310.9,934.5c3.1,0.2,6.2,0.2,9.3,0.5c2.5,0.2,4.3,1.5,4,4.3c-1.1,9-1.6,18.3-7,26.2
				c-3.3,4.8-3.3,5.2,2.7,6c16.1,2.3,32.9-9.6,36.6-25.8c4.2-18.4-5.5-35.9-22.8-41.4c-17.2-5.4-35.9,2.9-42.5,19
				c-4.4,10.5-3.4,12,7.7,11.4c0.9,0,1.8-0.2,2.7-0.4C304.5,934.4,307.7,934.5,310.9,934.5z M224,997.8c25.1,3.8,49.1,0.2,70.4-15.7
				c12-8.9,20.3-20.4,23.2-35.4c0.9-4.6,0.3-6.5-5.2-6.4c-26.2,0.6-52.3,0.8-78.5,1.2c-20.7,0.3-41.4,0.6-62,1
				c-7.1,0.1-7.5,0.7-5.8,7.8c1.9,7.6,5.2,14.4,10.1,20.5C188.5,985.9,204.9,993.7,224,997.8z"/>
		</g>
		<g>
			<path fill="#231F20" d="M301.3,934.3c-1.7-0.4-4.1,0-3.7-2.8c0.5-3.3,1.4-6.7,4-8.8c1.7-1.4,3,1.3,4.3,2.4
				c2.1,1.8,3.9,3.9,6.1,5.5c3.3,2.5,0.9,3.1-1.1,3.9C307.7,934.5,304.5,934.4,301.3,934.3z"/>
		</g>
		<g>
			<path fill="#231F20" d="M221.7,986c-9.5-2.2-18.7-5.1-27-10.4c-5.7-3.6-10.1-8.4-12.6-14.8c-2.1-5.3-1.4-6.5,4.2-6.5
				c25.9-0.4,51.9-0.7,77.8-1.1c11.9-0.2,23.8-0.1,35.6-0.6c4-0.2,4.1,1.4,3.4,4.4c-1,4.2-3.1,7.7-6,10.9
				c-9.6,10.5-22.2,15-35.7,17.7C248.2,988.2,234.9,988.5,221.7,986z"/>
		</g>
		<g>
			<path fill="#231F20" d="M326.3,944c4.2,4.1,7.7,7.5,11.2,10.9c1.6,1.5,1.6,2.7-0.3,3.8c-0.8,0.5-1.5,1-2.3,1.4
				c-7.2,3.9-8.4,3.3-8.6-4.8C326.1,951.9,326.3,948.5,326.3,944z"/>
		</g>
		<g>
			<path fill="#231F20" d="M331.1,939.4c4.7-0.1,7.9-0.4,11.1-0.1c2,0.2,5.4-2.2,6,1.1c0.6,3.7-0.9,7.5-3.6,10.5
				c-1,1.1-1.9-0.2-2.7-0.9C338.7,946.8,335.5,943.6,331.1,939.4z"/>
		</g>
		<g>
			<path fill="#231F20" d="M330.8,933.1c3.7-3.8,6.6-6.2,9-9.2c2.9-3.7,4.6-2.2,6.1,1c0.8,1.6,1.3,3.4,1.9,5.1c0.7,2,0.2,3-2.2,3
				C341.2,932.9,336.8,933,330.8,933.1z"/>
		</g>
		<g>
			<path fill="#231F20" d="M326.1,928.7c-0.1-5.5-0.1-9.7-0.3-13.9c-0.1-2.8,1-3.7,3.6-2.9c0.9,0.3,1.7,0.5,2.6,0.9
				c6.7,2.7,6.8,3,1.9,8C331.7,923.1,329.4,925.4,326.1,928.7z"/>
		</g>
		<g>
			<path fill="#231F20" d="M319.5,928.2c-3.7-3.8-6.3-6.9-9.3-9.6c-2.5-2.3-1.6-3.6,0.9-4.7c1.5-0.7,3.1-1.1,4.6-1.7
				c2.6-1,3.8-0.2,3.8,2.6C319.4,918.8,319.5,922.8,319.5,928.2z"/>
		</g>
	</g>
	<g>
		<g>
			<path fill="#231F20" d="M199.1,492.8c22.5-16.4,47-26.7,75.2-27.5c9.9-0.3,15.8,4,19.7,13.1c12.1,28.6,6,62.3-16.5,84.8
				c-3.6,3.6-4.7,6.6-3,11.2c3.6,10.4,7.2,20.8,10.5,31.2c1.4,4.4,3.6,5,7.8,3.7c7.9-2.5,16.1-4,24.6-3.2
				c17,1.6,24.4,15.8,15.9,30.8c-4.8,8.5-12.7,13.6-20.9,18.3c-13.9,7.8-28.6,12.1-44.6,11.1c-8.7-0.6-16.6-3.1-20-12.2
				c-3.3-8.7,0.9-15.5,6.3-21.9c5.1-6.1,11.5-10.4,18.1-14.5c3-1.9,4.1-3.5,2.6-7c-4.6-10.8-9.1-21.7-13.5-32.7
				c-1.7-4.2-4-6.1-9.1-5.6c-12.6,1.1-24-2.9-33.5-11.1c-15-13-24.7-29.5-30.1-48.5C185.7,502.7,194.5,498.8,199.1,492.8z
				 M268.4,630.1c-3.8,3.4-7.6,6.8-9.4,11.8c-2.6,7,0.2,12.4,7.2,14.3c17.3,4.7,49.6-9.3,58.2-25.2c4.1-7.5,1.3-13.9-7.1-15.8
				c-5.6-1.3-11.2-0.6-16.7,0.4c-10.3,1.9-10.3,1.9-6.9,11.9c1.1,3.1,2.3,6.5-1.8,8.3c-3.9,1.8-6.7,0-8.3-3.8
				c-0.2-0.5-0.5-1-0.6-1.5c-2.1-7.8-6.1-7.4-11.2-2.7C270.7,628.6,269.5,629.3,268.4,630.1z M200.6,515.8c3.2,18.2,18.8,37,35.3,43
				c16.9,6.1,32.9,2.5,43.4-11.4c13.9-18.4,13.9-39.3,8.4-60.6c-1.2-4.8-3.6-3-6.3-0.8C257.7,504.7,231.8,517.3,200.6,515.8z
				 M200.8,504.3c30.3,3.6,54.6-9.4,76.6-28.2C247.8,474.2,222.7,484.8,200.8,504.3z"/>
		</g>
		<g>
			<path fill="#231F20" d="M218.4,542.9c-9.4-11.2-9.1-12.7,4.4-19.2c18.1-8.8,37.1-15.1,57-18.6c5.8-1,8.1,0.4,8.2,6.7
				c0.6,31.7-25.2,52.9-52.9,43.1C228.4,552.5,223,548.3,218.4,542.9z"/>
		</g>
	</g>
	<g>
		<g>
			<path fill="#231F20" d="M207,415.7c-19-16-37.8-32.1-63.4-36.7c-7.5-1.3-14.3,0.6-20.3,5.3c-7.3,5.6-8.3,15.5-2.7,23.2
				c5.6,7.6,14.3,9.3,22,4c9.8-6.8,20.7-5.9,31.5-4.4C185.4,408.6,196.2,412.2,207,415.7z"/>
		</g>
		<g>
			<path fill="#231F20" d="M207.8,396.2c-5.4-16-11.7-31.5-22.9-44.5c-4.8-5.6-10.5-9.9-18.3-10.5c-10.6-0.8-17.6,7.4-14.9,17.5
				c1.6,5.9,6.1,9.6,12.3,9.2c7.9-0.6,14.4,2.3,20.6,6.6C193.4,380.5,200.6,388.3,207.8,396.2z"/>
		</g>
	</g>
	<g>
		<g>
			<path fill="#231F20" d="M851.4,405.9c19-16,37.8-32.1,63.4-36.7c7.5-1.3,14.3,0.6,20.3,5.3c7.3,5.6,8.3,15.5,2.7,23.2
				c-5.6,7.6-14.3,9.3-22,4c-9.8-6.8-20.7-5.9-31.5-4.4C873,398.8,862.2,402.4,851.4,405.9z"/>
		</g>
		<g>
			<path fill="#231F20" d="M850.6,386.5c5.4-16,11.7-31.5,22.9-44.5c4.8-5.6,10.5-9.9,18.3-10.5c10.6-0.8,17.6,7.4,14.9,17.5
				c-1.6,5.9-6.1,9.6-12.3,9.2c-7.9-0.6-14.4,2.3-20.6,6.6C865,370.8,857.8,378.5,850.6,386.5z"/>
		</g>
	</g>
	<g>
		<polygon fill="#231F20" points="549.8,670 531.3,669.3 515.4,678.6 516.1,660.2 506.8,644.3 525.2,645 541.1,635.6 540.4,654 		
			"/>
	</g>
	<g>
		<polygon fill="#231F20" points="560.9,911.7 546.2,907.2 531.4,911.3 535.9,896.7 531.8,881.9 546.5,886.4 561.2,882.2 
			556.7,896.9 		"/>
	</g>
	<g>
		<polygon fill="#231F20" points="319.5,1068.8 307.7,1059.8 292.9,1058.5 301.9,1046.7 303.2,1031.9 315,1040.9 329.8,1042.2 
			320.7,1054 		"/>
	</g>
</g>
</svg>


