<?xml version="1.0" standalone="no"?>
<!DOCTYPE svg PUBLIC "-//W3C//DTD SVG 20010904//EN"
 "http://www.w3.org/TR/2001/REC-SVG-20010904/DTD/svg10.dtd">
<svg version="1.0" xmlns="http://www.w3.org/2000/svg"
 width="5000.000000pt" height="5000.000000pt" viewBox="0 0 5000.000000 5000.000000"
 preserveAspectRatio="xMidYMid meet">

<g transform="translate(0.000000,5000.000000) scale(0.100000,-0.100000)"
fill="#000000" stroke="none">
<path d="M10735 48285 c-44 -19 -210 -88 -369 -154 -158 -66 -290 -122 -293
-125 -2 -2 39 -109 92 -238 54 -128 180 -431 280 -673 525 -1264 635 -1532
635 -1547 0 -11 -20 -23 -62 -37 -35 -11 -281 -90 -548 -176 -594 -191 -560
-179 -599 -217 -51 -49 -65 -85 -65 -158 0 -85 26 -162 73 -208 20 -20 164
-145 321 -277 157 -133 685 -581 1173 -995 489 -415 924 -779 968 -809 66 -45
89 -55 133 -59 99 -8 176 37 214 126 12 26 28 93 37 147 17 109 271 1601 416
2445 50 289 93 541 96 562 13 89 -39 188 -120 227 -82 40 -124 33 -496 -88
-755 -246 -735 -240 -747 -228 -6 7 -33 68 -62 137 -28 69 -114 276 -190 460
-77 184 -171 412 -210 505 -38 94 -170 411 -292 705 -122 294 -236 569 -252
610 -17 41 -36 80 -42 87 -8 9 -30 4 -91 -22z"/>
<path d="M38758 47583 c-8 -16 -35 -64 -58 -108 -24 -44 -112 -208 -197 -365
-85 -157 -188 -346 -228 -420 -146 -271 -269 -498 -330 -610 -108 -199 -238
-439 -321 -592 -43 -81 -84 -148 -90 -148 -10 0 -665 286 -899 393 -75 34
-101 41 -156 41 -86 1 -151 -36 -188 -107 -31 -60 -31 -23 18 -772 23 -335 66
-988 96 -1450 30 -462 60 -863 65 -891 19 -92 104 -163 195 -164 43 0 138 40
209 89 23 15 487 333 1031 706 545 373 1082 741 1195 818 113 77 219 153 237
170 100 94 102 286 4 356 -16 12 -193 93 -393 181 -583 258 -688 305 -688 311
0 5 82 158 365 679 82 153 500 925 687 1269 81 151 145 278 141 282 -5 4 -89
51 -188 104 -99 54 -202 110 -230 125 -157 85 -243 130 -251 130 -5 0 -17 -12
-26 -27z"/>
<path d="M22865 43309 c-430 -39 -1004 -173 -1635 -381 -327 -108 -865 -311
-892 -337 -7 -6 -338 -9776 -338 -9957 l0 -61 153 -63 c1113 -462 2271 -626
3283 -465 497 80 880 212 1389 483 1282 682 2200 1774 2733 3253 199 552 318
1060 379 1614 22 203 25 909 5 1105 -49 471 -139 904 -279 1334 -227 699 -551
1297 -981 1811 -113 135 -451 467 -587 578 -726 589 -1591 967 -2455 1072
-159 20 -625 28 -775 14z m500 -1685 c621 -76 1191 -316 1635 -687 415 -347
750 -832 983 -1422 360 -912 377 -1998 47 -3005 -247 -754 -681 -1436 -1240
-1948 -571 -524 -1179 -828 -1865 -932 -201 -31 -572 -38 -792 -16 -142 15
-361 61 -380 80 -12 11 219 7730 231 7738 27 18 253 93 375 124 342 88 665
110 1006 68z"/>
<path d="M41990 43149 c-700 -36 -1496 -312 -2140 -742 -643 -430 -1252 -1095
-1671 -1827 -630 -1101 -977 -2605 -920 -3995 28 -698 105 -1210 377 -2515 53
-250 120 -575 149 -722 30 -146 72 -317 92 -380 38 -112 38 -113 68 -110 52 5
1590 264 1594 268 7 7 -13 108 -58 299 -92 393 -267 1343 -250 1359 5 5 3898
-220 3903 -225 2 -2 -117 -391 -265 -864 -147 -473 -269 -868 -271 -878 -2
-15 123 -74 727 -343 l730 -324 22 27 c44 54 93 174 258 628 415 1144 563
1611 749 2353 295 1178 436 2251 436 3322 0 1068 -157 1854 -521 2608 -223
463 -486 844 -814 1181 -476 489 -992 764 -1604 856 -85 13 -423 38 -441 33
-3 0 -70 -4 -150 -9z m256 -1690 c379 -42 670 -230 937 -604 286 -401 484
-851 577 -1315 42 -209 59 -360 71 -660 33 -783 -54 -1934 -187 -2453 -26
-100 -50 -186 -54 -190 -15 -16 -2235 71 -3250 128 -476 27 -1302 82 -1356 90
l-31 5 -18 187 c-31 320 -11 784 51 1223 139 977 483 1788 1047 2470 433 522
940 864 1537 1038 279 81 471 104 676 81z"/>
<path d="M29500 43020 c-410 -38 -753 -69 -762 -70 -15 0 -16 -10 -12 -82 3
-46 23 -391 45 -768 128 -2219 586 -9288 636 -9823 l6 -68 41 6 c23 3 374 35
781 71 407 35 745 67 752 69 8 3 10 34 7 112 -2 59 -9 234 -14 388 -6 154 -35
845 -65 1535 -30 690 -55 1305 -56 1366 l-2 110 952 1143 953 1144 41 -69 c91
-157 171 -324 488 -1019 509 -1120 896 -1965 1124 -2455 202 -435 610 -1266
639 -1304 14 -18 50 1 723 389 389 225 710 410 712 412 11 8 -495 1122 -1211
2668 -626 1349 -1059 2296 -1244 2722 l-47 107 22 42 c25 47 16 36 582 730
532 653 879 1087 876 1095 -1 4 -248 256 -549 560 l-548 553 -41 -39 c-155
-150 -943 -1046 -2484 -2830 -950 -1099 -1173 -1355 -1183 -1355 -5 0 -18 105
-30 233 -34 351 -60 768 -142 2247 -82 1487 -121 2075 -143 2185 l-12 60 -45
2 c-25 0 -380 -30 -790 -67z"/>
<path d="M9566 42813 c-718 -1643 -1417 -3509 -2487 -6645 -107 -312 -197
-564 -200 -560 -21 22 -268 813 -500 1602 -377 1278 -1217 4285 -1515 5417
-20 78 -40 146 -43 152 -5 7 -285 -41 -840 -144 -459 -85 -836 -155 -839 -155
-12 0 10 -169 43 -330 210 -1016 1225 -4410 2197 -7340 373 -1127 519 -1530
648 -1795 204 -421 434 -635 728 -675 187 -25 410 45 599 191 140 109 294 311
398 525 80 163 127 288 335 894 943 2736 1800 5055 2868 7755 231 585 238 603
231 609 -4 3 -1547 656 -1552 656 -1 0 -33 -71 -71 -157z"/>
<path d="M15340 42633 c-531 -52 -968 -240 -1390 -598 -104 -89 -321 -310
-416 -425 -781 -939 -1384 -2529 -1538 -4055 -37 -362 -48 -862 -26 -1187 101
-1480 687 -2590 1706 -3229 684 -428 1507 -575 2282 -408 412 89 815 286 1177
575 154 123 438 411 581 589 664 829 1183 1993 1398 3136 88 465 120 808 120
1289 0 466 -27 759 -105 1145 -231 1136 -787 2011 -1634 2570 -490 324 -1059
531 -1619 590 -129 13 -435 18 -536 8z m640 -1737 c144 -33 233 -67 380 -142
360 -185 665 -503 871 -906 209 -411 309 -885 309 -1473 0 -731 -140 -1455
-417 -2155 -73 -186 -238 -530 -332 -695 -392 -685 -849 -1061 -1401 -1151
-139 -23 -353 -14 -483 20 -173 45 -367 149 -507 272 -374 328 -600 870 -686
1644 -21 195 -30 733 -15 971 55 878 255 1666 605 2384 390 798 740 1163 1199
1251 111 21 345 12 477 -20z"/>
<path d="M1227 34583 c-2 -5 -18 -33 -34 -63 -116 -213 -213 -389 -261 -473
-31 -56 -51 -102 -46 -107 8 -7 114 -67 254 -143 30 -16 118 -64 195 -107 77
-42 201 -110 275 -150 74 -40 173 -94 220 -120 47 -27 306 -168 575 -315 270
-148 511 -280 537 -294 26 -14 48 -30 48 -34 0 -5 -133 -212 -296 -459 -163
-248 -303 -466 -310 -484 -32 -77 -4 -168 70 -229 82 -67 48 -64 834 -85 2273
-62 2261 -62 2323 -30 77 40 120 132 99 212 -7 24 -238 450 -515 948 -277 498
-586 1056 -688 1240 -102 184 -197 351 -210 371 -46 68 -161 99 -240 65 -18
-7 -48 -31 -68 -52 -20 -22 -157 -223 -304 -447 -148 -225 -273 -411 -280
-413 -9 -4 -209 102 -555 293 -30 17 -86 47 -125 68 -38 21 -133 73 -210 115
-129 71 -737 405 -985 540 -58 31 -147 80 -199 109 -104 56 -98 54 -104 44z"/>
<path d="M48610 32876 c-41 -23 -129 -72 -195 -108 -336 -183 -876 -479 -1000
-548 -77 -42 -171 -94 -210 -115 -38 -21 -95 -51 -125 -68 -346 -191 -546
-297 -555 -293 -7 2 -132 188 -280 413 -147 224 -284 425 -304 447 -20 21 -50
45 -68 52 -79 34 -193 3 -240 -65 -13 -20 -86 -148 -162 -286 -76 -137 -385
-693 -686 -1235 -302 -542 -554 -1005 -562 -1029 -27 -89 12 -178 96 -221 51
-26 166 -28 866 -9 396 10 977 25 1290 34 844 22 883 24 931 44 120 53 182
175 140 276 -8 19 -148 237 -311 485 -250 380 -295 454 -284 465 8 8 176 102
374 210 794 434 914 500 1005 550 52 29 172 94 265 145 371 203 439 241 449
250 5 5 -15 51 -47 107 -30 54 -97 175 -148 268 -51 94 -105 192 -120 220 -15
27 -31 50 -36 51 -4 1 -42 -17 -83 -40z"/>
<path d="M39527 32140 c-624 -53 -1221 -294 -1767 -716 -143 -110 -467 -432
-584 -579 -390 -491 -627 -1042 -711 -1650 -23 -163 -31 -511 -16 -672 81
-863 531 -1568 1426 -2234 297 -221 609 -415 1230 -764 940 -528 1284 -755
1681 -1106 571 -506 918 -1109 983 -1711 58 -530 -135 -1046 -554 -1477 -409
-422 -969 -691 -1585 -762 -154 -18 -470 -15 -619 5 -576 78 -1103 340 -1521
756 -449 448 -699 995 -782 1715 -16 138 -16 632 0 775 6 58 19 162 29 232 9
70 14 130 12 133 -7 7 -1889 318 -1894 313 -8 -8 -67 -285 -90 -425 -60 -356
-76 -833 -41 -1188 59 -590 214 -1137 476 -1670 678 -1384 1964 -2357 3440
-2604 323 -54 767 -75 1091 -52 1002 72 1920 444 2622 1061 618 543 1067 1297
1272 2137 136 555 157 1158 59 1691 -181 990 -743 1865 -1724 2686 -488 409
-995 742 -2075 1364 -848 488 -929 540 -1103 706 -222 214 -314 422 -314 711
0 428 240 852 631 1115 89 59 250 134 354 164 404 117 833 -5 1182 -336 355
-336 546 -776 639 -1473 l22 -170 944 0 944 0 8 35 c17 83 27 350 18 504 -46
752 -354 1528 -853 2148 -599 744 -1403 1217 -2248 1323 -155 19 -440 27 -582
15z"/>
<path d="M9985 32079 c-1316 -49 -2598 -596 -3750 -1600 -161 -140 -595 -573
-736 -734 -463 -528 -854 -1084 -1148 -1633 -352 -655 -564 -1313 -638 -1974
-21 -189 -23 -590 -5 -768 118 -1124 682 -2058 1527 -2527 282 -157 619 -267
995 -326 116 -18 180 -21 455 -21 327 -1 409 5 645 45 952 164 1901 707 2890
1652 800 767 1506 1678 2051 2650 l77 139 46 -139 c173 -532 316 -1170 390
-1753 40 -310 76 -746 76 -912 l0 -68 -42 0 c-81 0 -363 -20 -493 -35 -1193
-138 -2213 -683 -2802 -1497 -457 -630 -645 -1497 -488 -2248 75 -363 236
-707 456 -976 577 -706 1616 -1006 2609 -754 687 174 1332 643 1795 1305 659
942 1010 2370 982 3990 -18 977 -122 1665 -536 3525 -202 908 -237 1077 -342
1615 -44 226 -100 491 -124 591 -149 616 -351 1001 -715 1364 -368 367 -893
675 -1480 867 -369 120 -825 203 -1201 218 -74 3 -170 7 -214 9 -44 1 -170 -1
-280 -5z m512 -1984 c261 -34 464 -92 688 -197 83 -39 151 -71 152 -72 5 -3
-138 -446 -194 -600 -417 -1155 -981 -2120 -1761 -3014 -251 -287 -665 -697
-957 -947 -421 -360 -865 -598 -1340 -718 -238 -60 -371 -75 -520 -57 -518 61
-810 464 -866 1192 -26 323 29 671 156 994 26 66 95 218 154 339 515 1058
1225 1844 2186 2422 442 266 1048 528 1430 618 99 23 278 51 385 59 97 7 366
-4 487 -19z m2121 -7911 c37 -10 52 -53 52 -148 0 -245 -112 -499 -418 -951
-167 -247 -243 -345 -324 -420 -131 -121 -247 -169 -408 -168 -140 1 -359 59
-453 121 -83 55 -127 155 -135 308 -12 250 109 502 349 729 319 301 761 492
1224 528 78 7 90 7 113 1z"/>
<path d="M29570 31283 c-360 -33 -598 -80 -890 -175 -1513 -490 -2697 -1847
-3184 -3649 -178 -658 -256 -1269 -256 -1989 0 -565 48 -1054 155 -1588 262
-1305 816 -2401 1620 -3208 388 -389 803 -685 1300 -925 879 -424 1822 -549
2675 -354 733 168 1410 563 2030 1185 340 341 593 662 875 1112 139 221 184
304 170 316 -6 5 -356 242 -778 526 -759 512 -768 518 -789 499 -36 -32 -203
-230 -397 -468 -310 -383 -488 -583 -646 -726 -399 -360 -812 -529 -1298 -529
-492 0 -1004 181 -1444 512 -121 90 -356 318 -466 450 -363 440 -640 987 -867
1716 -23 74 -40 135 -38 138 3 2 216 24 474 49 2436 231 6038 602 6239 641
183 36 274 122 321 306 22 85 31 631 15 906 -57 985 -274 1851 -657 2622 -321
644 -705 1147 -1207 1577 -804 687 -1793 1070 -2745 1061 -97 0 -193 -3 -212
-5z m606 -2006 c177 -45 397 -144 630 -284 258 -155 442 -301 655 -520 386
-398 639 -869 806 -1503 28 -104 36 -156 37 -227 1 -50 -2 -95 -7 -99 -4 -4
-281 -36 -615 -71 -334 -35 -1464 -153 -2512 -262 -1048 -109 -1906 -198
-1907 -197 -5 4 67 512 83 591 9 44 34 142 55 218 297 1052 811 1745 1593
2148 177 91 312 147 451 184 172 47 234 54 440 51 164 -3 204 -7 291 -29z"/>
<path d="M19755 31164 c-599 -60 -1083 -259 -1560 -640 -130 -104 -438 -408
-553 -547 -543 -652 -998 -1521 -1347 -2572 -558 -1675 -677 -3414 -328 -4790
286 -1132 866 -1992 1733 -2572 891 -596 2005 -775 3004 -483 983 288 1814
1055 2523 2330 1149 2066 1437 4540 746 6400 -303 817 -773 1476 -1398 1966
-121 94 -405 285 -530 356 -486 276 -1027 458 -1585 534 -119 16 -601 28 -705
18z m560 -2014 c429 -50 839 -257 1183 -599 672 -669 952 -1712 816 -3045 -98
-969 -391 -1899 -851 -2711 -503 -885 -1113 -1344 -1824 -1372 -229 -9 -405
22 -594 105 -662 288 -1075 1026 -1199 2137 -37 330 -47 814 -26 1180 68 1142
355 2187 850 3090 394 720 750 1076 1187 1185 150 38 300 48 458 30z"/>
<path d="M6645 20765 c-159 -7 -465 -21 -680 -29 -2011 -82 -2364 -98 -2395
-108 -74 -23 -168 -107 -196 -174 -17 -40 -17 -127 -1 -170 7 -16 93 -149 191
-295 99 -145 264 -388 367 -539 102 -151 185 -279 182 -285 -2 -5 -52 -37
-111 -69 -59 -33 -253 -142 -432 -244 -179 -101 -397 -225 -485 -275 -178
-100 -357 -202 -635 -359 -102 -58 -207 -117 -235 -133 -64 -35 -237 -133
-437 -247 -87 -49 -158 -96 -158 -103 0 -7 21 -49 46 -92 41 -68 162 -282 327
-575 27 -49 53 -88 59 -88 8 0 400 219 883 495 189 108 777 440 840 475 33 18
101 56 150 85 50 29 113 65 140 80 28 15 142 79 255 143 113 64 227 128 253
142 58 30 32 55 204 -200 476 -704 537 -792 575 -824 64 -55 144 -70 232 -44
89 27 89 27 704 1173 315 589 673 1255 795 1480 121 226 229 427 239 447 26
54 33 120 17 175 -17 62 -89 137 -144 152 -68 18 -249 20 -550 6z"/>
<path d="M43810 19210 c-472 -4 -652 -8 -672 -17 -47 -21 -106 -83 -124 -128
-37 -98 -9 -183 152 -450 56 -93 242 -406 414 -695 172 -289 493 -826 713
-1195 220 -368 427 -715 460 -770 67 -113 87 -138 137 -170 80 -50 174 -67
252 -43 85 25 97 45 414 658 163 316 302 581 308 587 9 10 44 -8 158 -80 80
-50 315 -198 522 -327 207 -129 441 -275 520 -325 79 -49 205 -128 280 -175
75 -47 205 -128 289 -180 538 -338 660 -413 674 -414 15 -1 117 153 326 494
39 63 88 141 109 172 21 31 38 61 38 66 0 5 -197 132 -437 282 -241 150 -496
310 -568 355 -71 45 -393 247 -715 448 -727 454 -763 476 -773 486 -4 4 23 68
62 142 539 1037 504 966 509 1038 7 97 -46 189 -134 230 l-45 22 -1112 -3
c-612 -2 -1402 -5 -1757 -8z"/>
<path d="M7296 18633 c-21 -71 -122 -569 -185 -918 -292 -1609 -502 -3458
-586 -5160 -53 -1091 -59 -2341 -15 -3285 54 -1150 161 -2186 326 -3162 39
-235 66 -381 157 -846 l22 -112 55 6 c30 3 465 56 965 118 l910 111 -2 216
c-2 302 -22 582 -97 1369 -99 1033 -111 1530 -50 2070 89 784 379 1556 817
2170 184 258 471 568 682 735 315 251 688 436 1018 505 419 87 726 17 951
-218 256 -267 450 -851 523 -1572 23 -221 26 -1091 5 -1370 -74 -1007 -222
-1912 -508 -3115 -30 -126 -57 -241 -60 -256 l-6 -25 974 -293 c535 -162 977
-294 983 -295 20 -2 95 303 145 595 16 96 46 291 65 434 20 143 60 397 90 565
152 867 237 1572 295 2455 18 259 24 1014 11 1250 -51 944 -227 1688 -550
2334 -199 396 -416 696 -712 986 -427 418 -905 650 -1524 741 -169 25 -597 25
-780 0 -748 -102 -1446 -424 -2180 -1005 -126 -99 -386 -323 -419 -360 -11
-11 -24 -21 -29 -21 -16 0 4 417 44 905 77 956 272 2389 494 3630 19 105 35
210 37 234 l2 43 -923 279 c-508 154 -928 279 -932 279 -4 0 -10 -8 -13 -17z"/>
<path d="M30191 18399 c-1074 -61 -2062 -507 -2873 -1297 -654 -638 -1120
-1449 -1357 -2363 -147 -563 -208 -1059 -218 -1749 -9 -617 24 -1137 118
-1885 183 -1460 477 -3511 649 -4540 85 -507 204 -1152 214 -1162 4 -4 1856
280 1914 294 27 6 29 43 7 183 -45 289 -68 471 -104 800 -113 1030 -133 1208
-156 1365 -14 93 -25 170 -25 172 0 2 102 3 228 3 727 0 1476 100 2171 291 80
22 148 36 152 32 4 -5 37 -107 74 -228 181 -596 521 -1577 771 -2225 164 -426
189 -485 205 -482 39 8 1732 708 1736 718 2 6 -215 710 -483 1565 -467 1490
-487 1557 -488 1635 -1 73 2 85 29 129 17 27 73 86 125 133 403 357 647 629
895 1002 143 215 208 326 316 540 534 1061 705 2285 483 3445 -159 824 -509
1587 -1008 2192 -126 152 -418 440 -566 559 -669 534 -1457 826 -2361 874
-212 11 -248 11 -448 -1z m509 -2005 c860 -99 1385 -526 1733 -1409 163 -415
233 -740 244 -1140 6 -236 -5 -401 -43 -625 -162 -960 -770 -1836 -1625 -2345
-932 -554 -1822 -741 -2834 -594 -77 11 -156 23 -175 27 l-35 8 -42 344 c-153
1239 -181 1633 -170 2355 13 797 91 1271 284 1725 146 342 321 600 587 866
440 439 1007 730 1549 793 122 14 384 12 527 -5z"/>
<path d="M19870 17874 c-1117 -121 -2204 -775 -2959 -1778 -689 -915 -1099
-2066 -1213 -3406 -9 -102 -13 -318 -12 -635 0 -518 11 -682 70 -1108 245
-1763 1046 -3250 2219 -4122 673 -500 1444 -809 2240 -897 157 -17 653 -17
800 0 262 31 492 81 725 157 841 275 1620 868 2259 1718 235 314 529 783 505
807 -5 5 -355 243 -779 528 l-770 520 -55 -61 c-82 -91 -204 -236 -412 -493
-408 -504 -613 -708 -895 -894 -444 -294 -970 -371 -1538 -225 -893 229 -1590
933 -2045 2065 -100 250 -237 669 -221 679 6 4 73 13 149 20 1254 110 6418
638 6568 671 180 41 262 124 311 315 16 62 18 118 18 490 -1 425 -8 563 -46
890 -165 1430 -727 2662 -1601 3510 -742 721 -1680 1171 -2618 1255 -158 14
-548 11 -700 -6z m678 -1979 c136 -26 256 -70 447 -164 661 -326 1138 -797
1445 -1426 124 -254 200 -465 271 -755 34 -137 40 -176 36 -233 -2 -37 -6 -70
-9 -72 -6 -6 -5027 -529 -5032 -524 -6 6 61 503 80 589 21 98 77 301 116 420
310 949 805 1575 1548 1954 254 130 487 205 715 230 75 8 300 -3 383 -19z"/>
<path d="M39795 17879 c-1109 -112 -2186 -742 -2951 -1726 -737 -946 -1170
-2176 -1265 -3588 -23 -358 -12 -898 27 -1290 183 -1839 951 -3409 2127 -4349
688 -550 1481 -888 2327 -993 224 -27 698 -25 920 5 1166 158 2216 868 3049
2062 184 262 382 594 365 610 -5 4 -234 160 -509 346 -275 185 -622 419 -771
520 l-272 183 -102 -117 c-56 -64 -168 -198 -248 -297 -405 -499 -569 -682
-767 -853 -517 -444 -1108 -579 -1781 -407 -173 44 -296 91 -479 180 -785 382
-1375 1194 -1750 2406 -32 103 -44 154 -36 158 6 4 95 15 198 24 1933 178
6397 637 6538 673 167 42 250 132 292 314 15 64 18 132 17 480 0 237 -5 467
-12 555 -81 970 -286 1748 -653 2485 -409 819 -939 1431 -1649 1905 -577 385
-1159 610 -1815 701 -140 19 -656 28 -800 13z m662 -1989 c129 -27 227 -62
381 -136 638 -304 1105 -738 1431 -1329 126 -229 249 -548 328 -855 29 -112
37 -165 38 -232 0 -47 -3 -89 -6 -92 -3 -3 -912 -100 -2020 -215 -1107 -116
-2238 -234 -2512 -262 -273 -29 -499 -50 -502 -47 -6 6 50 430 75 560 26 135
83 338 155 548 311 902 810 1505 1550 1871 243 120 466 190 680 213 84 9 312
-4 402 -24z"/>
<path d="M24783 6845 c-66 -33 -169 -134 -605 -590 -194 -203 -519 -543 -723
-755 -955 -995 -1181 -1234 -1199 -1268 -13 -26 -20 -65 -23 -127 -4 -84 -3
-94 24 -145 47 -91 73 -103 365 -165 830 -175 1034 -219 1042 -226 9 -8 -36
-165 -311 -1079 -52 -173 -113 -376 -134 -450 -22 -74 -98 -328 -169 -565
-219 -733 -200 -664 -182 -674 10 -5 60 -21 112 -36 52 -14 229 -67 394 -116
164 -50 305 -89 313 -87 17 3 8 -25 228 713 92 308 229 767 305 1020 75 253
179 601 231 773 72 242 97 312 109 312 16 0 918 -190 1091 -230 114 -26 172
-25 234 4 86 39 137 119 138 211 0 35 -45 211 -146 570 -80 286 -279 999 -442
1585 -372 1340 -335 1220 -393 1280 -73 75 -166 91 -259 45z"/>
</g>
</svg>
