<?xml version="1.0" standalone="no"?>
<!DOCTYPE svg PUBLIC "-//W3C//DTD SVG 20010904//EN"
 "http://www.w3.org/TR/2001/REC-SVG-20010904/DTD/svg10.dtd">
<svg version="1.0" xmlns="http://www.w3.org/2000/svg"
 width="5000.000000pt" height="5000.000000pt" viewBox="0 0 5000.000000 5000.000000"
 preserveAspectRatio="xMidYMid meet">

<g transform="translate(0.000000,5000.000000) scale(0.100000,-0.100000)"
fill="#000000" stroke="none">
<path d="M36945 42760 c-639 -55 -1188 -256 -1718 -628 -332 -233 -681 -589
-928 -947 -827 -1197 -1036 -2835 -550 -4312 85 -258 151 -419 283 -690 69
-143 126 -209 215 -251 51 -24 70 -27 158 -27 87 0 107 3 156 26 111 52 189
155 210 277 17 93 0 154 -95 352 -536 1111 -588 2375 -145 3500 56 142 213
447 303 588 318 497 724 869 1211 1107 366 179 669 253 1075 262 314 7 525
-20 812 -103 843 -245 1589 -905 2043 -1809 210 -417 339 -818 415 -1287 22
-138 51 -208 114 -276 66 -70 141 -104 243 -110 99 -5 135 6 272 82 137 77
171 118 251 298 231 517 512 930 894 1314 772 774 1751 1149 2683 1028 592
-77 1121 -345 1544 -780 707 -731 1018 -1865 833 -3034 -35 -221 -75 -390
-141 -600 -109 -349 -209 -577 -411 -945 -106 -193 -199 -328 -467 -679 -225
-296 -830 -877 -1263 -1213 -265 -206 -374 -283 -657 -463 -260 -166 -377
-243 -730 -480 -126 -86 -288 -187 -360 -225 -175 -93 -232 -148 -271 -259
-22 -62 -19 -181 6 -249 23 -61 92 -146 149 -181 96 -60 216 -72 324 -33 102
37 315 160 532 306 110 74 261 175 335 225 74 50 241 158 370 240 353 224 466
304 773 543 196 152 226 178 537 459 331 299 607 588 831 869 733 922 1109
1817 1221 2915 20 189 16 727 -5 918 -88 776 -337 1447 -747 2013 -403 557
-946 976 -1563 1208 -355 133 -697 198 -1097 208 -591 14 -1152 -109 -1720
-380 -721 -343 -1394 -942 -1865 -1661 l-78 -119 -67 179 c-147 389 -292 672
-515 1009 -193 289 -354 483 -607 731 -627 612 -1385 980 -2208 1074 -131 15
-464 20 -585 10z"/>
<path d="M14525 41560 c-289 -14 -514 -45 -757 -106 -1383 -347 -2665 -1556
-3569 -3366 -50 -101 -92 -184 -93 -185 -1 -1 -92 11 -203 27 -437 62 -625 74
-1128 75 -487 0 -600 -6 -915 -51 -833 -118 -1514 -393 -2070 -835 -109 -87
-356 -327 -451 -438 l-55 -64 -109 17 c-595 89 -1345 6 -2005 -223 -567 -196
-984 -500 -1265 -921 -235 -351 -352 -791 -317 -1184 75 -829 682 -1295 1435
-1102 167 43 164 26 23 168 -287 289 -454 658 -485 1076 -27 350 58 681 246
966 83 127 271 316 398 402 302 206 717 343 1158 385 144 13 602 8 617 -7 6
-6 -4 -32 -27 -69 -65 -109 -172 -330 -227 -473 -306 -784 -277 -1646 79
-2342 228 -444 589 -790 991 -949 254 -101 541 -135 812 -96 700 99 1133 546
1228 1265 19 149 14 447 -10 605 -36 228 -115 493 -209 700 -252 558 -736
1093 -1253 1384 l-94 54 18 29 c48 75 198 252 302 357 487 490 1140 788 1940
886 182 23 642 31 852 16 142 -11 393 -39 510 -57 l37 -6 -15 -37 c-115 -265
-314 -837 -408 -1171 -355 -1257 -484 -2500 -380 -3670 152 -1724 803 -3148
1869 -4087 339 -299 691 -531 1140 -754 448 -221 865 -364 1295 -443 441 -81
931 -87 1344 -16 946 162 1771 714 2343 1570 163 244 334 571 448 860 32 80
59 146 60 148 1 1 10 -37 20 -85 93 -474 362 -811 719 -903 107 -27 264 -27
370 0 222 57 403 218 487 434 52 135 68 231 79 466 22 474 70 799 180 1225
238 924 740 1909 1233 2422 215 223 367 303 464 243 40 -24 58 -57 73 -138 18
-92 8 -219 -44 -522 -114 -674 -160 -1213 -160 -1870 -1 -507 18 -775 80
-1150 174 -1054 602 -1689 1257 -1864 131 -35 233 -48 382 -48 271 -1 472 85
693 296 341 326 621 864 899 1730 l29 89 28 -79 c63 -178 184 -403 292 -546
69 -90 196 -221 289 -297 379 -313 928 -461 1520 -411 364 31 618 100 911 245
600 297 1152 868 1570 1625 60 108 69 121 72 95 9 -97 47 -319 72 -421 215
-881 769 -1406 1615 -1530 148 -22 510 -25 665 -6 323 41 550 106 805 231 436
214 851 574 1205 1046 181 241 341 501 483 784 l72 145 2 -60 c2 -32 10 -144
19 -249 74 -896 333 -1587 687 -1836 352 -247 680 -8 789 576 19 103 21 164
28 960 9 975 25 1297 91 1905 54 494 123 789 261 1110 307 717 909 1259 1514
1365 124 21 317 19 434 -5 268 -55 478 -262 497 -490 23 -270 -206 -495 -502
-494 -107 1 -202 26 -317 86 -74 38 -77 39 -107 24 -17 -9 -60 -44 -96 -77
-144 -135 -190 -334 -122 -522 48 -131 116 -218 233 -296 100 -67 203 -99 355
-111 223 -17 405 15 577 101 260 130 423 378 473 720 17 115 6 377 -20 501
-75 349 -274 699 -502 881 -194 155 -463 262 -789 313 -161 25 -555 26 -725 1
-313 -47 -604 -140 -815 -262 -44 -25 -83 -45 -87 -44 -4 0 -28 32 -53 71
-137 214 -392 351 -622 334 -191 -15 -353 -100 -513 -267 -180 -189 -316 -445
-390 -734 -80 -311 -123 -647 -200 -1545 -63 -735 -68 -780 -110 -909 -386
-1189 -1191 -2166 -2010 -2440 -224 -75 -400 -87 -580 -41 -301 77 -520 293
-629 620 -55 165 -70 266 -70 490 l-1 194 95 12 c593 75 1324 590 1818 1282
551 769 865 1855 723 2500 -51 232 -128 370 -305 548 -164 164 -287 245 -476
312 -151 53 -237 66 -425 66 -197 0 -323 -20 -514 -83 -399 -132 -755 -365
-1137 -746 -354 -353 -612 -711 -848 -1175 -269 -529 -433 -1044 -520 -1636
-24 -158 -30 -183 -82 -305 -224 -536 -536 -1016 -899 -1388 -255 -261 -468
-423 -733 -556 -221 -110 -407 -159 -602 -159 -231 1 -415 73 -577 228 -229
217 -338 525 -331 936 l3 164 97 12 c661 83 1485 718 1969 1515 273 450 478
990 566 1489 33 190 43 530 19 685 -43 285 -144 477 -352 675 -259 247 -572
363 -929 346 -1103 -51 -2318 -1298 -2788 -2862 -134 -445 -198 -835 -226
-1374 -9 -177 -12 -195 -70 -428 -248 -997 -519 -1654 -795 -1928 -95 -94
-154 -127 -242 -132 -71 -5 -128 16 -185 66 -241 211 -283 1508 -113 3472 32
371 88 914 125 1212 16 131 29 287 29 347 0 424 -210 787 -556 960 -137 69
-216 86 -389 86 -147 -1 -152 -1 -260 -38 -274 -94 -513 -263 -846 -596 -288
-289 -509 -564 -784 -976 -414 -619 -778 -1337 -1005 -1985 -52 -146 -44 -161
-89 156 -37 254 -74 569 -105 889 l-23 240 151 144 c1137 1081 1984 2197 2571
3386 748 1517 967 2973 592 3940 -182 472 -515 798 -932 915 -419 117 -843
129 -1214 35 -452 -114 -882 -396 -1239 -810 -949 -1103 -1488 -3024 -1613
-5745 -16 -337 -16 -1358 0 -1685 37 -785 100 -1458 190 -2040 15 -98 16 -124
6 -145 -7 -14 -34 -110 -60 -213 -178 -716 -478 -1350 -871 -1844 -43 -54
-146 -166 -229 -248 -307 -308 -628 -503 -977 -594 -185 -48 -248 -56 -458
-55 -206 0 -298 11 -477 59 -503 133 -1069 519 -1485 1012 -381 452 -679 1022
-893 1708 -476 1528 -478 3666 -5 5601 74 300 240 859 268 900 5 7 47 6 142
-3 206 -20 735 -28 935 -14 779 55 1500 267 2186 643 420 230 759 478 1044
763 346 347 568 719 650 1095 26 118 31 385 11 512 -22 133 -84 318 -145 434
-285 541 -984 909 -1879 988 -222 20 -459 25 -667 16z m1390 -751 c315 -37
546 -171 677 -390 172 -290 188 -626 47 -964 -174 -419 -641 -875 -1260 -1230
-755 -434 -1569 -667 -2419 -691 -191 -6 -535 7 -548 20 -12 13 197 489 349
796 433 876 909 1504 1445 1906 402 302 920 508 1404 557 78 8 220 6 305 -4z
m5249 -59 c42 -11 114 -39 159 -62 318 -166 522 -517 603 -1043 29 -187 27
-716 -4 -950 -196 -1474 -1049 -3131 -2363 -4590 -190 -211 -524 -559 -588
-613 l-51 -43 5 28 c2 15 6 114 9 218 13 451 86 1312 172 2025 311 2592 817
4311 1431 4852 102 91 221 158 321 182 85 21 215 19 306 -4z m-15039 -4926
c208 -117 379 -247 556 -424 340 -339 561 -747 639 -1184 119 -661 -81 -1246
-470 -1376 -89 -30 -224 -37 -315 -16 -426 101 -785 661 -881 1376 -23 168
-23 482 0 650 49 361 138 632 314 948 25 45 48 82 51 82 4 0 51 -25 106 -56z
m21712 -840 c72 -35 153 -125 187 -208 83 -209 73 -577 -28 -967 -102 -394
-295 -824 -522 -1164 -239 -359 -586 -701 -944 -929 -157 -100 -419 -213 -539
-232 l-44 -7 6 119 c16 303 139 815 314 1299 383 1061 883 1877 1271 2074 109
55 205 60 299 15z m4805 4 c60 -25 151 -121 183 -190 45 -98 57 -165 62 -339
6 -184 -4 -295 -43 -489 -86 -429 -291 -919 -548 -1310 -291 -442 -730 -844
-1141 -1046 -132 -65 -276 -118 -352 -130 l-43 -7 0 60 c0 327 187 1044 430
1652 456 1138 998 1866 1360 1824 25 -2 66 -14 92 -25z"/>
<path d="M40680 35749 c-341 -44 -669 -192 -955 -431 -114 -95 -282 -269 -360
-373 -418 -557 -467 -1233 -140 -1914 194 -401 400 -660 1320 -1651 232 -250
491 -531 575 -625 1050 -1164 1520 -1941 1601 -2645 11 -101 8 -287 -7 -373
-8 -46 7 -47 -199 17 -396 125 -819 215 -1255 268 -253 30 -852 33 -1085 5
-771 -93 -1400 -357 -1886 -790 -373 -333 -627 -756 -721 -1202 -31 -146 -33
-461 -5 -595 128 -605 552 -1006 1213 -1143 214 -45 294 -52 589 -52 289 1
407 10 675 56 940 161 1976 654 2765 1315 365 305 703 675 930 1016 66 100 50
99 175 15 630 -422 1228 -1118 1459 -1698 193 -483 172 -896 -65 -1251 -53
-79 -64 -102 -53 -110 87 -58 281 -133 424 -164 106 -22 333 -23 431 -1 344
77 573 285 655 593 32 120 30 313 -3 459 -27 117 -96 301 -158 425 -243 481
-695 961 -1355 1435 -273 197 -553 376 -1008 645 l-224 133 27 61 c40 88 97
254 124 365 149 596 63 1278 -256 2026 -405 947 -1224 2043 -2232 2983 -187
175 -188 177 -165 192 13 8 71 54 129 101 395 325 662 759 741 1205 27 152 29
378 5 511 -87 494 -416 877 -931 1086 -245 100 -526 138 -775 106z m470 -439
c323 -51 577 -272 696 -606 46 -127 64 -241 64 -394 0 -461 -228 -881 -650
-1195 -56 -41 -106 -75 -111 -75 -5 0 -64 48 -131 108 -67 59 -158 139 -202
178 -171 149 -384 424 -481 619 -111 224 -150 393 -143 625 4 130 8 155 37
239 84 248 258 408 519 476 133 34 283 43 402 25z m10 -7715 c401 -43 832
-138 1260 -277 175 -57 161 -42 138 -140 -78 -338 -278 -739 -524 -1048 -102
-129 -412 -432 -552 -540 -374 -288 -753 -491 -1187 -635 -734 -245 -1425
-230 -1827 38 -159 106 -280 255 -338 416 -53 144 -65 219 -65 396 0 236 35
376 151 610 75 153 159 274 281 404 417 447 1063 719 1878 791 145 13 615 4
785 -15z"/>
<path d="M15615 25933 c-683 -13 -1203 -32 -1259 -48 -91 -24 -154 -63 -182
-110 -59 -101 -3 -201 139 -249 75 -25 206 -36 450 -36 l227 0 0 -327 c1 -504
68 -3683 79 -3721 36 -119 161 -192 332 -192 98 0 159 13 229 49 70 36 116 94
124 158 4 26 -3 262 -14 523 -20 475 -33 1194 -46 2711 l-7 806 64 6 c35 4
145 11 244 17 203 13 286 28 358 67 129 71 142 202 28 275 -94 59 -155 71
-381 73 -113 1 -286 0 -385 -2z"/>
<path d="M23250 25925 c-183 -32 -299 -110 -330 -220 -21 -76 -16 -197 100
-2390 98 -1848 99 -1855 144 -1944 40 -76 154 -122 306 -122 202 -1 322 65
349 191 11 49 -13 529 -123 2500 -8 135 -11 248 -7 252 3 3 110 46 236 93 381
145 537 220 648 315 189 162 258 339 212 552 -32 152 -96 269 -216 390 -256
258 -658 401 -1123 397 -66 -1 -155 -7 -196 -14z m464 -475 c164 -42 287 -135
347 -264 98 -209 6 -342 -313 -455 -71 -24 -88 -28 -88 -16 0 25 -39 615 -45
688 -7 78 -12 76 99 47z"/>
<path d="M33925 25895 c-144 -27 -241 -79 -300 -164 l-30 -43 2 -167 c2 -219
17 -483 123 -2201 93 -1492 113 -1777 131 -1845 15 -54 82 -118 150 -141 42
-15 83 -19 184 -19 122 0 134 2 193 29 83 38 126 88 143 161 11 51 6 158 -41
909 -33 523 -55 957 -58 1125 l-4 273 32 -18 c18 -11 47 -36 64 -56 17 -20
308 -515 648 -1100 339 -585 645 -1109 681 -1165 101 -158 174 -198 362 -197
161 0 275 48 324 135 29 52 25 106 -14 181 -15 29 -312 541 -660 1138 -834
1431 -1027 1769 -1022 1783 2 7 32 28 66 47 119 67 216 136 272 190 192 188
241 453 127 682 -123 245 -444 409 -905 463 -154 18 -372 18 -468 0z m488
-450 c116 -30 191 -83 221 -157 21 -49 21 -174 1 -222 -30 -72 -107 -139 -208
-181 l-38 -16 -24 54 c-44 95 -65 298 -48 470 7 76 6 76 96 52z"/>
<path d="M18715 25889 c-125 -18 -275 -77 -385 -152 -67 -46 -185 -162 -250
-247 -240 -315 -387 -745 -457 -1340 -21 -182 -24 -716 -5 -890 44 -384 129
-771 222 -1006 109 -274 266 -516 440 -677 297 -275 706 -357 1052 -211 264
111 462 327 649 709 217 442 305 933 279 1545 -36 802 -165 1319 -431 1725
-90 138 -259 310 -371 379 -216 133 -510 198 -743 165z m280 -518 c52 -23 149
-128 210 -225 143 -230 288 -739 341 -1201 24 -206 24 -624 0 -830 -71 -613
-216 -1003 -483 -1302 -73 -82 -77 -83 -166 -35 -80 43 -132 110 -218 287
-202 414 -322 823 -371 1266 -15 143 -15 561 0 694 44 371 159 819 262 1026
80 159 197 303 265 327 47 16 116 13 160 -7z"/>
<path d="M27055 25889 c-125 -18 -275 -77 -385 -152 -67 -46 -185 -162 -250
-247 -240 -315 -387 -745 -457 -1340 -21 -182 -24 -716 -5 -890 44 -384 129
-771 222 -1006 109 -274 266 -516 440 -677 297 -275 706 -357 1052 -211 264
111 463 328 649 709 217 445 306 933 279 1542 -36 806 -164 1322 -431 1728
-90 138 -259 310 -371 379 -216 133 -510 198 -743 165z m280 -518 c52 -23 149
-128 210 -225 109 -175 232 -551 299 -916 45 -246 60 -414 60 -700 0 -286 -15
-453 -60 -700 -86 -471 -213 -762 -441 -1017 -73 -82 -77 -83 -166 -35 -82 44
-131 110 -222 297 -201 413 -318 815 -367 1256 -15 143 -15 561 0 694 44 371
159 819 262 1026 80 159 197 303 265 327 47 16 116 13 160 -7z"/>
<path d="M30100 25889 c-107 -21 -218 -108 -239 -188 -13 -47 -56 -339 -75
-506 -55 -471 -45 -1158 24 -1700 68 -535 179 -995 315 -1304 124 -286 319
-568 489 -712 300 -253 748 -256 1079 -8 180 135 324 355 465 709 145 364 221
691 274 1185 24 220 16 1009 -15 1577 -26 475 -32 534 -64 648 -44 157 -115
217 -287 240 -171 24 -333 -29 -384 -125 -29 -56 -30 -93 -11 -258 10 -89 27
-242 38 -339 39 -334 53 -583 54 -923 2 -528 -36 -902 -134 -1350 -123 -559
-256 -873 -451 -1063 l-44 -42 -101 152 c-270 408 -407 831 -507 1558 -95 698
-98 1341 -10 1980 31 223 29 301 -7 356 -62 93 -248 145 -409 113z"/>
<path d="M9320 23794 c-328 -44 -652 -175 -945 -379 -1059 -740 -1814 -2549
-2069 -4955 -38 -357 -57 -592 -92 -1107 -3 -51 -7 -93 -9 -93 -2 0 -32 18
-67 39 -85 52 -306 162 -415 207 -511 213 -1015 267 -1460 159 -307 -75 -603
-224 -868 -440 -120 -97 -309 -287 -406 -408 -645 -801 -1000 -2187 -853
-3337 103 -812 430 -1425 944 -1767 227 -152 515 -254 830 -294 128 -17 455
-16 550 0 586 103 1141 687 1790 1885 l114 208 37 -183 c127 -629 294 -1103
523 -1493 128 -217 330 -446 502 -568 334 -237 772 -308 1159 -187 499 156
901 616 1226 1404 l58 140 12 -34 c22 -63 116 -246 172 -337 243 -390 636
-668 1106 -783 397 -97 927 -82 1333 39 295 88 607 256 893 484 143 114 453
428 579 586 184 231 378 526 496 753 25 48 48 87 53 87 4 0 7 -13 7 -29 0 -58
52 -334 86 -459 203 -741 707 -1248 1434 -1441 400 -106 864 -116 1307 -26
827 168 1608 855 2173 1912 l86 162 18 -112 c179 -1141 664 -1801 1441 -1957
133 -27 384 -37 507 -20 666 90 1185 720 1595 1935 58 171 170 547 204 683 7
28 16 52 20 52 8 0 525 -555 774 -830 967 -1071 1440 -1809 1581 -2470 37
-170 46 -539 15 -589 -6 -10 -45 -1 -167 39 -453 146 -944 246 -1444 291 -173
16 -659 16 -815 0 -293 -30 -549 -77 -775 -142 -698 -203 -1272 -600 -1622
-1123 -468 -700 -458 -1488 26 -2024 68 -74 195 -174 308 -241 580 -345 1517
-357 2523 -30 1155 374 2213 1104 2869 1979 55 75 119 163 141 198 22 34 44
62 48 62 4 0 49 -28 100 -62 570 -382 1116 -980 1386 -1516 217 -431 271 -848
154 -1175 -35 -98 -104 -230 -158 -302 -53 -71 -58 -64 80 -130 195 -94 368
-130 580 -122 165 6 256 28 390 91 167 79 283 190 364 345 57 111 81 205 88
346 10 215 -49 437 -186 710 -218 430 -573 832 -1101 1246 -330 258 -687 495
-1240 822 -129 76 -236 140 -238 142 -2 2 12 39 31 82 115 261 174 544 184
873 17 609 -177 1286 -576 2014 -471 858 -1219 1776 -2107 2587 l-62 56 92 68
c125 94 347 318 440 444 360 486 474 1042 315 1531 -150 459 -587 828 -1134
958 -101 25 -127 27 -330 27 -242 0 -325 -12 -520 -77 -455 -151 -909 -539
-1144 -979 -131 -246 -192 -492 -192 -780 -1 -313 69 -596 226 -915 123 -250
284 -476 599 -844 l138 -161 -33 -137 c-240 -1027 -635 -1826 -1043 -2114 -89
-62 -126 -81 -207 -107 -194 -60 -352 -21 -482 119 -193 208 -281 572 -294
1205 -14 706 84 1576 303 2700 23 119 27 166 27 315 0 148 -3 187 -21 253 -47
172 -146 303 -280 370 -98 49 -164 61 -302 54 -133 -6 -210 -27 -341 -93 -226
-113 -400 -297 -519 -546 -60 -127 -81 -200 -125 -448 -89 -497 -139 -966
-154 -1425 l-7 -230 -39 -95 c-177 -439 -411 -842 -689 -1190 -125 -156 -398
-431 -536 -541 -285 -225 -564 -364 -850 -426 -129 -27 -350 -25 -453 5 -324
93 -520 358 -597 809 -138 805 157 2188 710 3331 414 853 866 1334 1197 1272
145 -26 314 -193 375 -368 34 -98 32 -259 -4 -354 -37 -100 -85 -173 -156
-239 -184 -173 -417 -195 -662 -62 -65 35 -71 36 -97 22 -50 -26 -158 -142
-191 -206 -81 -154 -80 -337 2 -506 77 -160 226 -283 402 -332 90 -25 336 -31
451 -11 419 73 686 375 754 854 17 122 7 390 -21 527 -64 321 -225 653 -414
853 -282 298 -772 460 -1326 439 -444 -18 -858 -140 -1165 -345 -453 -303
-885 -853 -1195 -1522 -241 -521 -424 -1145 -495 -1695 -23 -179 -34 -218
-105 -385 -305 -720 -752 -1325 -1260 -1709 -337 -254 -676 -391 -967 -391
-450 0 -786 307 -888 813 -23 115 -37 319 -30 423 l7 91 94 12 c595 78 1325
594 1823 1289 329 460 603 1105 705 1662 69 379 59 730 -28 979 -57 164 -141
286 -299 438 -242 231 -523 343 -860 343 -369 0 -731 -124 -1122 -385 -845
-563 -1524 -1597 -1806 -2750 -110 -454 -156 -870 -147 -1345 l6 -265 -70
-210 c-296 -891 -593 -1440 -884 -1634 -121 -81 -250 -109 -373 -80 -64 14
-94 40 -134 116 -42 82 -68 162 -101 320 -99 469 -163 1504 -181 2903 l-6 455
106 95 c233 208 706 693 970 995 1274 1455 2111 3076 2350 4546 46 283 58 445
59 744 0 309 -13 452 -64 695 -124 592 -429 1029 -852 1224 -136 63 -416 132
-630 155 -133 15 -421 12 -548 -5z m847 -520 c32 -8 91 -30 132 -50 324 -152
537 -501 621 -1015 43 -267 45 -652 4 -969 -170 -1331 -966 -2922 -2195 -4390
-222 -265 -579 -659 -743 -820 l-56 -54 0 99 c0 195 41 815 85 1300 91 993
229 1976 390 2795 291 1473 654 2443 1075 2870 148 151 285 227 455 253 47 8
167 -2 232 -19z m14083 -5449 c347 -73 606 -350 691 -737 118 -539 -152 -1129
-682 -1488 l-58 -40 -153 132 c-294 254 -475 459 -614 695 -133 226 -204 492
-191 718 23 383 238 636 608 714 117 24 298 27 399 6z m-10976 -316 c68 -34
159 -134 186 -205 46 -125 54 -179 54 -379 0 -149 -5 -218 -22 -319 -82 -479
-290 -996 -576 -1431 -283 -429 -712 -823 -1124 -1032 -169 -85 -412 -163
-412 -131 0 54 24 265 41 368 127 766 559 1862 993 2520 237 358 444 561 641
627 59 19 162 11 219 -18z m-7474 -526 c145 -68 276 -221 354 -412 l26 -64 0
-511 c0 -629 12 -933 56 -1487 l17 -205 -38 -70 c-286 -518 -555 -942 -771
-1214 -129 -163 -350 -385 -457 -458 -175 -121 -352 -176 -493 -154 -41 7 -93
21 -116 33 -58 30 -133 102 -173 169 -46 76 -99 240 -122 375 -25 152 -25 604
0 820 91 788 332 1623 657 2280 170 344 319 565 490 728 159 152 281 210 425
204 65 -3 94 -9 145 -34z m18351 -6858 c392 -37 770 -114 1200 -244 90 -27
190 -59 222 -71 l58 -22 -7 -36 c-14 -77 -77 -281 -120 -392 -266 -672 -856
-1275 -1624 -1660 -663 -332 -1362 -464 -1903 -360 -442 85 -733 331 -826 695
-95 374 2 791 267 1150 380 514 1077 855 1917 940 187 18 616 18 816 0z"/>
<path d="M20941 19400 c-230 -61 -428 -225 -575 -477 -116 -199 -179 -489
-156 -718 44 -433 308 -718 665 -718 376 1 723 331 852 811 24 89 27 113 27
292 0 220 -13 288 -79 429 -147 310 -434 459 -734 381z"/>
<path d="M28945 19406 c-309 -71 -583 -355 -699 -725 -45 -144 -59 -249 -53
-411 10 -271 88 -462 251 -618 120 -114 252 -166 416 -165 292 1 584 213 750
542 210 419 175 914 -85 1189 -125 132 -251 191 -420 198 -63 2 -122 -1 -160
-10z"/>
<path d="M32990 18499 c-883 -84 -1638 -640 -1954 -1439 -224 -569 -205 -1156
55 -1686 32 -67 59 -131 59 -142 0 -38 -81 -466 -131 -687 -289 -1300 -747
-2169 -1247 -2371 -96 -39 -196 -49 -288 -30 -173 35 -299 165 -394 406 -62
156 -111 434 -130 730 -41 655 57 1641 278 2790 45 237 47 251 47 430 0 208
-10 259 -72 390 -26 53 -55 94 -102 141 -106 105 -221 149 -391 149 -421 0
-838 -359 -969 -833 -60 -216 -148 -828 -187 -1287 -21 -262 -29 -811 -15
-1055 34 -582 126 -1042 287 -1437 299 -736 831 -1127 1536 -1128 271 0 492
67 717 218 96 65 262 219 355 331 365 439 687 1189 936 2180 47 187 140 591
140 607 0 4 24 -15 53 -42 28 -27 77 -71 108 -97 l56 -47 7 -183 c32 -860 167
-1506 421 -2022 131 -265 247 -428 432 -606 166 -159 345 -267 562 -339 179
-60 275 -74 496 -74 174 0 198 2 290 27 861 231 1507 1531 1657 3332 16 200
16 847 0 1040 -87 1001 -356 1738 -788 2156 -436 421 -1139 644 -1824 578z
m400 -459 c261 -20 497 -83 715 -189 183 -90 293 -168 431 -306 208 -207 344
-443 462 -805 175 -531 226 -1263 141 -2015 -109 -975 -434 -1862 -834 -2283
-245 -257 -517 -342 -738 -231 -279 141 -427 650 -427 1468 0 120 3 279 7 353
l6 136 81 12 c359 51 673 207 932 465 183 181 298 346 415 590 110 230 232
624 231 746 -1 185 -213 294 -361 185 -55 -41 -79 -83 -101 -180 -161 -693
-491 -1139 -958 -1295 -64 -22 -194 -52 -200 -47 -4 4 32 322 58 521 47 353
123 825 186 1158 33 174 37 209 38 372 1 156 -2 192 -22 269 -73 290 -269 451
-547 449 -397 -4 -790 -333 -944 -791 -44 -133 -108 -499 -156 -902 -14 -120
-45 -470 -45 -511 0 -30 -13 -17 -73 74 -53 78 -55 86 -61 162 -8 109 -44 182
-103 210 -39 19 -44 26 -68 95 -67 200 -96 444 -77 653 40 440 223 816 549
1127 311 298 714 475 1158 509 148 12 158 12 305 1z"/>
<path d="M39945 18363 c-184 -39 -362 -144 -484 -287 -85 -99 -278 -402 -441
-695 -446 -801 -866 -1845 -1250 -3106 -50 -164 -93 -302 -96 -305 -3 -3 -3
11 0 30 3 19 8 94 11 165 3 72 15 236 26 365 60 732 155 1338 369 2365 42 199
42 201 37 365 -5 184 -26 277 -93 419 -124 265 -359 436 -615 449 -274 13
-527 -140 -732 -445 -76 -113 -177 -321 -215 -443 -84 -269 -146 -683 -206
-1385 -15 -165 -44 -500 -66 -745 -22 -245 -44 -522 -50 -617 -13 -220 -13
-834 0 -1023 45 -644 157 -1144 340 -1515 90 -183 156 -281 261 -386 69 -70
103 -95 174 -130 87 -43 90 -44 189 -44 88 0 108 3 156 26 148 70 266 242 335
489 63 226 912 2773 1177 3530 455 1303 741 1990 828 1990 53 0 48 -167 -20
-627 -258 -1758 -148 -3350 301 -4337 279 -614 685 -980 1201 -1081 125 -25
380 -30 507 -11 135 21 280 71 383 132 96 58 247 197 329 306 285 373 517
1002 743 2006 l53 233 239 -258 c464 -499 670 -729 915 -1023 434 -520 716
-933 909 -1333 159 -330 235 -593 255 -882 6 -84 -8 -321 -20 -333 -2 -2 -59
14 -127 36 -1246 404 -2446 423 -3383 55 -853 -335 -1464 -990 -1627 -1743
-30 -142 -33 -487 -5 -618 40 -185 118 -371 220 -522 69 -102 219 -255 325
-330 105 -75 313 -178 439 -219 513 -166 1168 -156 1878 29 412 107 764 241
1175 446 873 437 1593 1034 2078 1723 48 67 94 133 103 144 17 21 17 21 105
-37 452 -300 935 -784 1227 -1231 250 -383 387 -772 387 -1098 0 -231 -79
-472 -217 -664 l-51 -72 97 -50 c188 -97 367 -141 566 -141 271 0 493 86 660
255 160 161 224 325 225 571 0 186 -31 319 -126 546 -211 500 -678 1022 -1359
1520 -269 197 -647 440 -1070 688 -115 68 -211 124 -213 125 -1 1 11 31 27 67
81 177 147 419 176 641 20 154 20 462 0 637 -115 1003 -751 2172 -1839 3380
-174 193 -544 568 -734 743 l-154 142 25 20 c13 11 61 49 106 84 374 292 658
735 751 1172 32 147 39 408 15 551 -31 189 -108 384 -218 548 -72 108 -261
292 -382 372 -119 80 -314 175 -445 218 -287 95 -658 95 -956 -1 -301 -96
-562 -258 -810 -504 -217 -215 -353 -415 -453 -668 -112 -282 -141 -645 -76
-957 73 -352 237 -696 491 -1032 98 -129 247 -308 387 -467 l110 -124 -17 -91
c-57 -303 -190 -807 -275 -1043 -244 -678 -521 -1019 -863 -1063 -93 -11 -204
2 -272 33 -416 194 -552 1226 -386 2927 46 463 112 963 206 1550 l56 345 -5
180 c-6 205 -19 280 -78 430 -129 333 -417 575 -761 640 -101 19 -290 18 -383
-2z m4022 -560 c271 -90 471 -293 569 -581 52 -152 67 -261 61 -437 -10 -271
-87 -498 -250 -740 -77 -114 -301 -338 -421 -423 l-89 -62 -28 22 c-108 89
-329 286 -401 359 -100 101 -281 340 -351 462 -62 109 -112 234 -142 352 -123
482 45 880 430 1025 123 46 218 60 380 56 135 -3 159 -6 242 -33z m-77 -7687
c311 -40 601 -97 894 -177 178 -48 457 -137 470 -150 24 -22 -76 -346 -170
-552 -368 -812 -1237 -1511 -2239 -1802 -982 -285 -1788 -94 -2020 477 -55
136 -70 220 -70 408 0 130 5 196 18 257 116 538 533 1004 1143 1277 293 131
679 232 1009 265 61 6 124 13 140 15 78 11 707 -3 825 -18z"/>
</g>
</svg>
