<?xml version="1.0" standalone="no"?>
<!DOCTYPE svg PUBLIC "-//W3C//DTD SVG 20010904//EN"
 "http://www.w3.org/TR/2001/REC-SVG-20010904/DTD/svg10.dtd">
<svg version="1.0" xmlns="http://www.w3.org/2000/svg"
 width="3000.000000pt" height="3000.000000pt" viewBox="0 0 3000.000000 3000.000000"
 preserveAspectRatio="xMidYMid meet">

<g transform="translate(0.000000,3000.000000) scale(0.100000,-0.100000)"
fill="#000000" stroke="none">
<path d="M3300 25734 c-96 -20 -166 -52 -240 -107 -68 -51 -90 -73 -90 -92 0
-14 78 -57 135 -75 152 -48 339 -201 433 -355 17 -27 42 -93 56 -145 104 -388
462 -2179 536 -2680 24 -162 17 -230 -41 -403 -47 -140 -45 -161 26 -247 217
-265 243 -356 555 -1934 195 -986 213 -1090 214 -1241 1 -119 1 -121 -36 -196
-46 -93 -87 -132 -206 -193 -49 -26 -107 -62 -128 -81 l-39 -35 35 -31 c45
-40 277 -154 355 -175 33 -8 110 -18 170 -21 186 -9 307 30 478 152 42 30 82
55 87 55 6 0 77 -34 158 -75 191 -98 264 -117 442 -119 181 -1 270 19 425 96
80 39 145 91 145 114 0 18 -51 54 -140 100 -98 51 -186 138 -230 227 -46 95
-49 167 -15 367 98 578 643 3375 702 3604 45 176 41 193 469 -1939 168 -836
323 -1605 345 -1709 l39 -189 -57 -104 c-76 -140 -149 -209 -302 -287 l-111
-57 52 -45 c67 -57 120 -88 204 -120 153 -57 341 -77 493 -50 112 20 168 42
280 113 110 69 134 69 239 8 88 -52 200 -97 287 -116 96 -21 294 -17 395 8
164 42 304 114 335 173 22 42 19 59 -12 66 -16 3 -41 10 -58 15 -45 14 -181
120 -231 180 -115 139 -116 194 -20 714 236 1273 446 2303 491 2403 13 29 81
135 150 237 69 101 125 191 125 200 0 10 -27 103 -60 207 l-60 190 140 716
c200 1030 380 1913 421 2076 25 99 47 142 117 235 104 137 260 252 386 283
164 42 166 106 6 203 -121 73 -249 101 -425 92 -149 -8 -237 -33 -427 -122
-89 -41 -165 -75 -169 -75 -5 0 -46 27 -92 60 -46 33 -109 71 -141 85 -109 48
-308 68 -456 45 -178 -28 -430 -151 -430 -210 0 -23 64 -69 144 -104 107 -47
177 -121 219 -230 32 -85 38 -159 21 -277 -33 -239 -131 -767 -239 -1285 -64
-302 -162 -800 -220 -1105 -224 -1182 -273 -1404 -305 -1384 -14 8 -24 49 -95
380 -219 1027 -675 3447 -675 3588 0 57 53 149 130 227 74 74 149 119 217 128
27 4 50 14 57 24 24 39 -136 153 -293 209 -110 39 -214 53 -334 46 -155 -10
-235 -37 -428 -147 -47 -28 -90 -50 -95 -50 -5 0 -41 23 -79 51 -155 113 -256
144 -470 143 -180 -1 -257 -19 -410 -93 -109 -53 -137 -77 -137 -116 0 -36 13
-48 99 -90 139 -68 234 -185 264 -326 29 -135 -12 -372 -380 -2209 -311 -1551
-344 -1712 -368 -1749 -14 -21 -17 -22 -25 -7 -53 94 -755 3739 -762 3951 -1
42 5 61 34 109 75 127 239 256 325 256 17 0 40 6 51 14 19 14 19 15 -2 43 -28
39 -160 126 -231 153 -217 82 -461 92 -624 25 -33 -13 -104 -53 -160 -89 -55
-36 -104 -66 -109 -66 -4 0 -64 25 -132 55 -166 75 -274 112 -376 130 -104 18
-236 18 -322 -1z m3885 -984 c0 -29 -4 -36 -23 -38 -26 -4 -52 13 -52 34 0 21
31 45 54 42 17 -2 21 -10 21 -38z m2774 -184 c27 -32 -27 -75 -75 -59 -37 12
-52 37 -35 57 17 20 94 22 110 2z m-5694 -477 c12 -18 -4 -57 -26 -64 -33 -11
-43 8 -25 44 17 31 39 40 51 20z m3196 1 c22 -12 26 -58 5 -66 -20 -8 -53 12
-61 36 -12 37 15 51 56 30z m209 -45 c14 -38 3 -57 -33 -53 -42 4 -57 31 -33
57 26 28 54 27 66 -4z m2364 -118 c15 -11 17 -17 7 -35 -22 -41 -102 -38 -118
4 -14 37 72 60 111 31z m-2156 -815 c5 -30 -16 -54 -42 -50 -27 4 -32 34 -10
59 23 25 48 21 52 -9z m1903 -311 l24 -19 -24 -26 c-40 -43 -121 -30 -121 19
0 45 77 62 121 26z m-1833 -33 c14 -14 16 -54 2 -63 -14 -9 -60 25 -60 44 0
32 34 43 58 19z m-2881 -240 c29 -38 20 -88 -17 -88 -35 0 -72 75 -56 115 5
14 9 14 34 1 16 -8 33 -21 39 -28z m2766 -45 c26 -26 47 -52 47 -59 0 -18 -63
-54 -93 -54 -17 0 -32 9 -43 25 -15 22 -15 32 -4 68 12 43 27 67 39 67 4 0 28
-21 54 -47z m1761 -39 c14 -37 6 -76 -24 -106 -26 -25 -35 -29 -63 -23 -60 14
-63 51 -8 106 41 41 84 52 95 23z m-1924 -84 c0 -26 -52 -54 -69 -37 -15 15
-14 23 5 41 23 23 64 21 64 -4z m-3046 -309 c8 -13 -17 -39 -44 -46 -33 -8
-74 30 -50 45 19 12 87 13 94 1z m4631 -201 c10 -11 20 -41 23 -69 4 -49 -12
-121 -28 -121 -61 0 -92 109 -50 178 23 37 30 39 55 12z m-2744 -311 c8 -32
-17 -81 -39 -77 -23 4 -27 53 -7 84 19 30 37 27 46 -7z m1686 -179 c10 0 0
-37 -14 -52 -21 -23 -32 -23 -60 4 -45 42 -22 73 42 56 16 -4 31 -8 32 -8z
m1172 -126 c27 -35 27 -54 -2 -54 -29 0 -47 18 -47 45 0 42 20 46 49 9z
m-4513 -19 c31 -48 -8 -105 -47 -69 -22 19 -26 80 -6 87 25 11 37 6 53 -18z
m404 -47 c21 -38 5 -62 -44 -66 -61 -5 -83 29 -50 76 23 33 73 27 94 -10z
m4088 -160 c17 -17 15 -68 -3 -68 -17 0 -55 38 -55 55 0 26 37 34 58 13z
m-453 -62 c17 -12 18 -17 7 -40 -13 -30 -53 -52 -76 -43 -34 13 -5 97 33 97 9
0 26 -6 36 -14z m-217 -166 c2 -19 -10 -41 -47 -83 -101 -115 -202 -188 -201
-144 1 45 113 217 158 242 15 8 41 14 57 12 24 -2 31 -7 33 -27z m320 -6 c4
-42 -28 -71 -66 -58 -33 12 -39 37 -17 70 13 20 23 25 48 22 28 -3 32 -7 35
-34z m-888 -179 c83 -43 43 -120 -52 -101 -18 3 -40 13 -49 22 -17 15 -17 19
-4 45 26 49 57 59 105 34z m1077 -37 c15 -19 23 -144 10 -157 -18 -18 -56 -12
-68 10 -14 27 -7 122 10 143 16 19 35 20 48 4z m-3479 -112 c8 -9 -32 -58 -59
-72 -44 -22 -59 -18 -59 15 0 40 44 75 84 67 16 -4 31 -8 34 -10z m2428 -87
c15 -17 19 -36 18 -88 0 -74 -15 -111 -44 -111 -37 0 -70 102 -50 155 12 31
38 65 50 65 4 0 15 -9 26 -21z m595 -149 c54 -29 71 -164 31 -253 -33 -74 -88
-82 -111 -16 -14 41 -14 179 0 216 12 31 37 63 51 63 5 0 18 -5 29 -10z
m-3383 -70 c4 -31 -39 -76 -62 -67 -19 8 -22 67 -4 85 7 7 24 12 38 10 18 -2
26 -10 28 -28z m3796 -6 c25 -10 19 -32 -14 -49 -16 -8 -34 -15 -40 -15 -16 0
-12 37 6 54 17 18 24 19 48 10z m-667 -60 c10 -27 -23 -84 -50 -84 -35 0 -62
33 -48 59 22 40 86 56 98 25z m757 -109 c20 -20 7 -62 -37 -123 -43 -57 -88
-92 -120 -92 -38 0 -119 60 -141 103 -15 32 -16 42 -6 67 17 42 40 38 101 -16
l52 -46 56 61 c60 65 71 70 95 46z m-3284 -135 c8 -15 6 -24 -10 -40 -27 -27
-77 -27 -85 1 -15 47 71 83 95 39z m2711 -100 c25 -14 25 -56 -1 -70 -44 -23
-80 29 -44 64 18 19 20 19 45 6z m185 -321 c33 -22 79 -56 103 -75 24 -19 57
-38 72 -41 15 -3 35 -14 44 -24 20 -21 22 -83 5 -104 -25 -30 -54 -16 -135 69
-53 55 -91 87 -110 91 -80 17 -100 29 -103 64 -7 71 39 79 124 20z m-3672 10
c15 -14 -10 -56 -43 -73 -27 -14 -31 -14 -45 0 -22 22 -20 41 9 70 25 25 55
26 79 3z m976 -43 c0 -35 -25 -52 -55 -38 -35 16 -32 61 5 74 24 8 50 -11 50
-36z m2190 4 c0 -11 -11 -27 -25 -36 -21 -14 -31 -15 -50 -6 -27 12 -33 43
-12 60 33 27 87 16 87 -18z m-2910 -84 c0 -35 -25 -52 -55 -38 -33 15 -34 59
-2 71 30 12 57 -4 57 -33z m3275 -192 c31 -33 47 -83 49 -148 1 -41 -2 -51
-17 -54 -28 -6 -56 26 -72 81 -22 74 -18 147 7 147 5 0 20 -12 33 -26z m-2881
-37 c9 -15 7 -22 -13 -38 -29 -24 -52 -24 -82 0 -24 19 -24 19 -4 41 24 26 82
24 99 -3z m2692 -43 c4 -15 3 -38 -2 -53 -11 -30 -102 -97 -155 -113 -45 -13
-89 -4 -89 19 0 37 174 172 222 173 11 0 20 -10 24 -26z m402 -42 c4 -28 -14
-52 -38 -52 -26 0 -43 26 -36 55 6 22 11 26 39 23 25 -2 33 -8 35 -26z m-364
-204 c7 -19 6 -36 -3 -54 l-12 -27 -29 28 c-32 31 -37 54 -18 73 20 20 52 10
62 -20z m280 -45 c9 -35 -11 -83 -35 -83 -19 0 -24 14 -20 60 5 51 44 68 55
23z m-105 -143 c45 -22 101 -68 101 -81 0 -5 -42 -9 -93 -9 -101 0 -137 14
-137 52 0 55 61 73 129 38z m-2671 -32 c18 -18 15 -77 -4 -85 -19 -7 -64 34
-64 58 0 31 46 49 68 27z m2460 -97 c4 -27 -14 -51 -39 -51 -28 0 -30 13 -8
49 22 36 42 37 47 2z"/>
<path d="M12040 25736 c-85 -19 -128 -35 -230 -86 -119 -59 -152 -85 -148
-118 3 -23 15 -31 103 -67 129 -52 215 -105 284 -175 64 -64 95 -120 118 -217
15 -61 17 -212 20 -1509 l4 -1441 -71 -133 c-90 -167 -113 -226 -106 -263 3
-16 26 -61 51 -101 124 -200 128 -256 123 -1916 -5 -1429 0 -1341 -86 -1459
-89 -123 -247 -233 -353 -247 -27 -4 -54 -13 -60 -20 -32 -39 36 -116 156
-175 125 -61 187 -74 350 -72 187 1 286 27 490 126 l150 74 130 -68 c245 -129
406 -161 620 -124 162 29 313 105 358 183 18 31 18 34 3 51 -10 11 -38 21 -65
25 -32 4 -70 20 -110 46 -83 54 -228 196 -269 262 -32 53 -33 58 -42 224 -16
266 -24 2100 -11 2429 16 408 29 474 123 637 72 126 70 149 -45 383 l-87 177
0 1136 c0 1458 10 1705 70 1865 41 108 185 232 335 288 143 53 149 90 25 174
-129 88 -297 131 -474 122 -150 -7 -204 -23 -393 -117 -89 -44 -166 -80 -171
-80 -6 0 -79 34 -163 75 -85 41 -190 84 -234 96 -104 27 -303 34 -395 15z
m650 -1378 c22 -36 15 -51 -21 -46 -24 3 -36 34 -25 64 9 23 25 16 46 -18z
m190 -1214 c0 -25 -33 -49 -56 -40 -11 4 -12 11 -3 33 16 43 29 55 45 42 8 -6
14 -22 14 -35z m340 -1302 c26 -21 18 -49 -17 -63 -55 -21 -115 49 -61 70 35
14 54 13 78 -7z m-289 -449 c15 -39 5 -55 -33 -51 -38 4 -50 35 -23 62 24 23
44 20 56 -11z m-183 -365 c-4 -30 -52 -37 -79 -12 -26 24 -15 34 37 34 41 0
45 -2 42 -22z m309 -2448 c22 -13 31 -25 27 -35 -8 -21 -105 -20 -146 1 l-32
17 23 18 c30 25 87 24 128 -1z"/>
<path d="M15395 25739 c-226 -33 -415 -128 -415 -208 0 -39 24 -55 121 -82
155 -43 292 -147 349 -263 74 -153 81 -290 87 -1756 l5 -1235 -121 -230 c-110
-207 -121 -232 -110 -255 6 -14 53 -95 105 -182 l94 -156 0 -1491 0 -1492 -61
-90 c-74 -110 -179 -198 -319 -265 -102 -50 -130 -69 -130 -91 0 -25 79 -100
139 -132 107 -57 195 -74 376 -74 201 0 255 13 485 121 l166 78 65 -44 c285
-194 580 -213 889 -57 93 47 139 82 151 113 14 36 -10 57 -94 82 -165 50 -305
151 -353 255 -29 64 -51 177 -65 335 -16 177 -24 2713 -10 3244 9 374 17 477
33 450 27 -43 369 -883 917 -2248 608 -1513 653 -1617 741 -1736 118 -160 317
-316 533 -420 210 -102 385 -150 619 -172 264 -25 568 43 676 151 63 63 36
102 -100 144 -202 64 -364 240 -388 423 -23 171 -32 590 -37 1671 l-5 1162
121 231 122 231 -49 67 c-81 109 -110 182 -136 332 -38 221 -41 365 -38 1669
l3 1264 51 76 c91 137 183 215 355 300 56 28 104 55 108 60 9 16 -20 65 -62
101 -145 127 -467 167 -721 88 -36 -11 -124 -49 -196 -84 -72 -35 -144 -64
-160 -64 -18 0 -69 23 -125 54 -233 133 -490 169 -726 101 -210 -60 -343 -169
-277 -228 9 -8 46 -23 82 -32 183 -47 336 -167 379 -297 58 -173 71 -531 71
-1933 0 -983 -12 -1891 -26 -1997 -4 -27 -10 -46 -14 -41 -28 30 -335 771
-755 1823 -587 1470 -796 1964 -890 2106 -115 172 -287 313 -540 441 -148 75
-227 106 -347 138 -186 49 -415 67 -573 44z m3669 -934 c8 -21 -3 -44 -25 -56
-25 -13 -39 -4 -39 25 0 40 51 65 64 31z m239 -2282 c8 -10 17 -27 19 -38 2
-16 -2 -20 -25 -18 -37 3 -57 20 -57 49 0 18 5 24 23 24 13 0 31 -8 40 -17z
m-1573 -517 c15 -19 9 -61 -9 -61 -19 0 -55 50 -47 64 10 16 41 14 56 -3z
m-1699 -916 c23 -13 25 -58 3 -67 -22 -8 -64 8 -77 29 -22 35 29 61 74 38z
m2323 -1112 c11 -42 6 -64 -17 -86 -22 -21 -24 -21 -39 -5 -30 34 -39 62 -28
82 19 37 75 43 84 9z m464 -513 c11 -24 6 -61 -11 -82 -25 -32 -87 5 -87 52 0
18 10 31 31 44 37 22 52 19 67 -14z m-48 -176 c26 -48 -12 -98 -49 -65 -20 18
-28 65 -14 79 14 15 53 6 63 -14z m-2685 -572 c13 -10 16 -21 11 -40 -7 -31
-22 -34 -48 -10 -42 38 -9 83 37 50z m3297 -213 c11 -23 10 -28 -7 -40 -41
-30 -80 3 -61 52 10 25 55 17 68 -12z"/>
<path d="M21430 25734 c-156 -33 -350 -144 -350 -198 0 -31 25 -50 93 -71 83
-26 162 -76 239 -152 75 -75 109 -131 132 -218 35 -136 38 -241 43 -1265 7
-1544 -8 -1779 -127 -1941 -114 -157 -105 -138 -86 -174 10 -18 36 -55 58 -81
81 -97 114 -204 139 -449 16 -158 24 -2149 10 -2434 -19 -378 -45 -468 -173
-586 -67 -62 -110 -87 -280 -163 -42 -19 -48 -26 -48 -51 0 -39 49 -80 165
-136 127 -61 205 -79 355 -79 184 -1 287 29 505 146 l100 54 160 -78 c88 -43
187 -85 220 -93 106 -27 411 -35 1340 -35 l910 1 189 103 188 104 162 -79
c211 -102 288 -123 466 -123 110 0 149 4 212 22 107 30 219 87 267 135 72 70
65 100 -24 112 -89 11 -187 67 -282 160 -95 94 -124 147 -147 273 -22 116 -43
341 -56 582 -17 333 -31 401 -111 538 -113 192 -453 419 -616 410 -55 -3 -58
-4 -61 -31 -2 -17 14 -64 42 -125 55 -118 65 -162 66 -272 0 -205 -74 -336
-290 -507 l-104 -83 -958 0 -958 0 0 1084 0 1084 63 7 c34 3 274 5 532 3 529
-3 493 2 629 -86 135 -86 231 -202 281 -341 16 -46 38 -89 48 -95 29 -18 67
12 124 98 98 147 141 324 123 499 -15 146 -34 198 -148 410 l-75 138 46 68
c64 97 113 198 139 288 20 68 23 100 23 253 -1 163 -3 181 -28 256 -15 44 -44
107 -65 140 -42 65 -108 126 -132 122 -8 -2 -28 -40 -46 -92 -39 -108 -86
-177 -175 -260 -71 -65 -148 -112 -246 -148 -55 -20 -80 -22 -443 -26 -212 -2
-445 -1 -517 3 l-133 7 0 1082 0 1083 773 7 c1007 8 1072 3 1262 -97 91 -49
188 -149 215 -222 69 -188 67 -323 -9 -569 -42 -133 -41 -136 12 -136 77 0
231 66 368 156 94 62 236 214 281 299 79 152 92 236 129 820 13 223 33 356 60
412 28 58 153 172 236 216 61 32 92 42 185 61 60 13 35 90 -49 147 -115 80
-241 118 -413 126 -192 8 -280 -13 -488 -118 l-162 -83 -168 81 c-92 45 -188
86 -214 92 -101 24 -361 31 -1123 31 -754 0 -1016 -7 -1122 -30 -26 -6 -123
-47 -216 -92 l-167 -82 -133 67 c-72 36 -161 75 -196 86 -156 50 -323 63 -451
35z m1730 -379 c0 -26 -49 -114 -70 -125 -16 -8 -22 -6 -34 12 -20 32 -9 84
22 108 30 24 82 27 82 5z m-556 -24 c22 -25 17 -55 -10 -59 -28 -4 -48 22 -40
53 8 30 26 32 50 6z m2151 -85 c22 -33 11 -76 -20 -76 -25 0 -39 13 -50 48
-14 48 42 71 70 28z m-2130 -176 c0 -30 -4 -35 -26 -38 -36 -4 -55 21 -40 54
9 20 17 25 39 22 24 -3 27 -7 27 -38z m-395 -174 c0 -48 -24 -86 -43 -67 -24
24 -1 111 28 111 11 0 15 -12 15 -44z m2934 -12 c8 -20 -19 -64 -39 -64 -20 0
-47 44 -39 64 4 10 18 16 39 16 21 0 35 -6 39 -16z m-2743 -405 c39 -39 5 -82
-48 -60 -33 13 -60 52 -49 70 12 19 74 13 97 -10z m-63 -242 c4 -21 -24 -57
-45 -57 -22 0 -26 28 -8 56 18 28 48 29 53 1z m110 -3229 c4 -44 -8 -48 -37
-12 -24 30 -17 56 13 52 16 -2 22 -11 24 -40z m2455 -2492 c6 -16 -4 -26 -46
-44 -23 -10 -29 -9 -33 2 -3 8 -1 24 6 35 13 24 65 29 73 7z m445 -198 c18
-18 15 -65 -4 -72 -20 -8 -64 19 -64 39 0 12 36 45 50 45 3 0 11 -5 18 -12z"/>
<path d="M20346 25481 c-18 -34 -63 -64 -187 -124 -110 -54 -195 -125 -262
-220 l-44 -62 -7 -170 c-11 -300 -8 -2264 4 -2455 13 -202 38 -360 70 -444 13
-33 51 -102 86 -153 35 -52 64 -98 64 -102 0 -5 -57 -117 -126 -251 l-127
-242 6 -1106 c6 -1042 16 -1498 37 -1663 11 -95 54 -180 126 -249 35 -34 54
-48 50 -35 -16 55 -27 603 -33 1660 l-6 1170 76 152 c42 84 97 189 122 234 25
45 45 85 45 89 0 3 -29 50 -64 102 -171 255 -180 383 -161 2136 l12 1109 52
76 c88 131 163 195 323 275 61 32 116 65 122 74 15 24 -6 59 -91 150 l-73 77
-14 -28z"/>
<path d="M11343 25477 c-19 -41 -73 -74 -165 -100 -111 -31 -180 -73 -268
-162 -82 -82 -129 -146 -158 -213 -38 -87 -157 -655 -441 -2103 l-149 -756 63
-207 64 -207 -155 -239 c-143 -223 -156 -246 -173 -323 -28 -120 -186 -918
-291 -1467 -244 -1280 -249 -1314 -198 -1401 15 -26 51 -68 80 -94 l53 -48 3
39 c11 152 410 2257 516 2729 27 117 67 194 234 450 47 72 85 137 84 145 0 8
-28 98 -61 200 l-60 184 144 716 c79 393 171 857 205 1030 70 360 179 878 216
1025 30 118 65 188 140 278 102 124 282 247 384 263 61 10 104 43 108 82 3 28
-7 42 -80 118 -83 86 -84 86 -95 61z"/>
<path d="M14015 25467 c-15 -24 -48 -46 -132 -87 -123 -61 -228 -141 -273
-208 -36 -54 -57 -148 -71 -307 -6 -69 -12 -667 -16 -1398 l-6 -1278 86 -182
c47 -100 91 -207 97 -238 15 -68 3 -112 -60 -222 -50 -86 -75 -158 -89 -257
-31 -206 -38 -2011 -10 -2655 11 -271 12 -275 120 -380 l71 -70 -6 43 c-4 24
-11 387 -16 805 -11 802 -6 1640 11 1891 16 233 31 288 131 470 55 99 50 128
-62 355 l-93 191 6 1273 c4 699 11 1332 17 1405 17 222 43 317 112 404 45 58
195 165 278 199 139 58 141 72 23 191 -48 49 -90 88 -93 88 -3 -1 -14 -15 -25
-33z"/>
<path d="M26436 25463 c-23 -46 -60 -70 -119 -78 -129 -17 -295 -138 -335
-245 -19 -50 -41 -227 -52 -405 -34 -595 -59 -712 -185 -890 -52 -74 -170
-186 -250 -240 -80 -53 -212 -119 -291 -145 -35 -12 -64 -25 -64 -29 0 -4 35
-42 79 -84 67 -66 84 -77 113 -77 116 0 378 148 528 298 171 172 215 310 240
747 20 375 48 583 88 661 25 49 120 140 197 189 61 39 150 75 185 75 36 0 60
19 60 47 0 19 -23 49 -89 116 l-89 90 -16 -30z"/>
<path d="M5312 25430 c-17 -22 -36 -31 -80 -40 -87 -17 -110 -29 -178 -92 -80
-75 -124 -143 -124 -191 0 -75 140 -848 354 -1957 99 -512 300 -1518 327
-1640 l12 -55 28 135 28 135 -84 430 c-291 1487 -500 2649 -493 2740 10 126
234 345 353 345 33 0 55 15 55 37 0 14 -157 183 -169 182 -3 0 -16 -13 -29
-29z"/>
<path d="M8329 25443 c-22 -31 -60 -51 -112 -58 -60 -9 -148 -71 -208 -147
-79 -100 -78 -87 -35 -346 98 -588 642 -3421 661 -3440 3 -4 16 51 40 183 l17
90 -115 595 c-331 1700 -458 2401 -461 2540 -1 70 2 80 34 134 72 120 231 246
311 246 83 0 77 27 -30 134 -83 83 -89 87 -102 69z"/>
<path d="M17020 24999 c0 -3 25 -63 56 -135 80 -185 271 -653 721 -1764 217
-536 452 -1114 521 -1285 l127 -309 3 77 3 77 -209 512 c-116 282 -347 857
-515 1278 -395 990 -500 1236 -602 1410 -40 68 -104 153 -105 139z"/>
<path d="M23500 24450 c-327 -4 -596 -7 -597 -8 -2 -1 -3 -452 -3 -1002 l0
-1000 90 0 90 0 0 283 c0 156 3 574 7 929 l6 645 756 7 c704 6 925 2 1041 -20
l35 -7 -39 41 c-49 51 -135 90 -239 108 -75 13 -451 36 -522 32 -16 -1 -298
-5 -625 -8z"/>
<path d="M24651 22645 c48 -136 58 -397 20 -540 -22 -83 -75 -202 -135 -305
l-35 -59 80 -170 c102 -217 121 -289 123 -446 0 -137 -21 -237 -79 -361 -33
-71 -110 -189 -141 -214 -13 -12 -5 -24 68 -97 103 -103 119 -106 178 -31 61
76 126 219 146 318 21 107 14 255 -17 372 -14 51 -54 145 -104 243 l-82 160
59 100 c114 190 143 297 142 515 -1 234 -38 340 -166 474 -55 58 -66 65 -57
41z"/>
<path d="M7112 21975 c-62 -286 -376 -1884 -508 -2585 -180 -955 -182 -977
-131 -1081 25 -50 110 -159 125 -159 4 0 8 37 8 83 2 82 23 206 160 922 79
413 300 1544 393 2012 l68 342 -49 248 c-26 136 -49 252 -51 258 -2 5 -9 -12
-15 -40z"/>
<path d="M16825 21668 c-11 -462 1 -2843 14 -3012 22 -261 49 -346 134 -421
28 -24 53 -43 55 -40 2 2 -1 43 -7 92 -25 202 -33 805 -27 2043 l6 1244 -81
201 c-45 110 -82 201 -84 203 -1 2 -6 -138 -10 -310z"/>
<path d="M22963 21043 l-63 -4 0 -999 0 -1000 90 0 90 0 0 919 0 919 73 6
c160 13 602 23 767 17 96 -3 177 -5 179 -3 10 6 -132 104 -185 128 -35 16 -82
18 -464 19 -234 1 -453 0 -487 -2z"/>
<path d="M25834 19475 c36 -97 51 -223 66 -553 11 -225 31 -427 52 -512 17
-70 43 -114 100 -170 48 -47 98 -85 85 -63 -14 23 -37 251 -47 468 -19 417
-34 534 -82 629 -22 45 -110 156 -154 196 -24 22 -26 23 -20 5z"/>
<path d="M14027 17898 c-36 -87 -165 -168 -342 -215 -88 -24 -119 -27 -260
-27 -199 -1 -261 15 -456 116 l-136 70 -139 -65 c-148 -69 -239 -100 -344
-117 -116 -18 -274 -11 -365 16 -43 13 47 -64 112 -96 137 -66 312 -91 494
-71 126 15 213 43 382 124 l128 61 67 -38 c286 -160 551 -195 810 -107 149 51
253 131 238 183 -4 13 -44 63 -91 112 l-84 88 -14 -34z"/>
<path d="M26431 17897 c-47 -77 -153 -146 -301 -197 -150 -51 -325 -64 -480
-34 -98 18 -143 35 -312 116 l-127 61 -176 -97 -176 -96 -977 0 c-974 0 -1201
6 -1317 35 -33 8 -127 48 -208 87 l-148 73 -112 -57 c-230 -117 -292 -133
-502 -133 -82 0 -166 3 -185 7 l-35 8 40 -36 c51 -44 160 -97 250 -120 52 -14
106 -18 210 -18 182 0 250 19 450 123 l150 78 150 -74 c83 -40 177 -80 210
-88 101 -26 429 -34 1365 -35 l895 0 105 49 c58 26 143 71 190 98 l85 51 110
-56 c350 -175 637 -186 928 -35 37 20 79 49 92 65 42 50 35 71 -63 171 l-89
90 -22 -36z"/>
<path d="M9785 17855 c-70 -72 -198 -139 -335 -176 -72 -20 -109 -24 -240 -23
-202 0 -297 24 -489 125 -52 27 -99 49 -106 49 -6 0 -40 -20 -76 -45 -186
-131 -481 -169 -753 -100 -42 11 -27 -6 52 -58 110 -72 233 -110 408 -123 179
-13 357 29 494 117 107 68 129 74 182 43 246 -139 424 -182 648 -155 226 28
457 152 436 233 -3 13 -40 57 -83 99 l-78 75 -60 -61z"/>
<path d="M17325 17882 c-37 -44 -175 -135 -254 -167 -137 -56 -350 -79 -515
-55 -38 6 -71 9 -72 7 -9 -9 154 -102 214 -123 136 -47 330 -54 497 -18 133
29 345 153 345 201 0 15 -167 194 -179 192 -3 0 -19 -17 -36 -37z"/>
<path d="M20352 17870 c-43 -76 -204 -156 -394 -197 -64 -14 -125 -18 -263
-17 -154 0 -198 4 -305 27 -104 22 -226 56 -325 92 l-20 7 20 -17 c33 -27 253
-132 346 -164 219 -75 492 -113 679 -92 185 20 389 94 440 159 38 48 28 73
-68 160 l-88 80 -22 -38z"/>
<path d="M6820 17865 c-19 -36 -67 -70 -162 -115 -119 -57 -257 -90 -405 -97
-205 -10 -336 22 -532 131 -56 31 -103 56 -106 56 -2 0 -45 -27 -95 -59 -49
-33 -116 -69 -148 -81 -164 -62 -407 -67 -575 -13 -27 8 -51 13 -53 10 -3 -3
39 -32 93 -66 191 -120 425 -166 646 -126 94 16 175 54 282 129 44 31 85 56
92 56 8 0 71 -29 141 -64 152 -77 233 -103 366 -118 176 -20 390 19 532 97 68
38 114 80 114 104 0 15 -157 181 -171 181 -3 0 -12 -11 -19 -25z"/>
<path d="M16000 17770 c-92 -44 -178 -77 -235 -91 -108 -26 -307 -36 -415 -21
-41 6 -76 9 -78 7 -2 -1 26 -24 63 -50 130 -93 312 -129 535 -107 144 14 244
44 413 125 l128 60 -69 33 c-39 17 -95 50 -125 73 -31 22 -60 41 -64 41 -4 0
-73 -32 -153 -70z"/>
<path d="M12112 16519 c-186 -28 -414 -162 -613 -359 -274 -272 -550 -728
-640 -1059 -27 -97 -36 -307 -19 -409 22 -135 108 -264 208 -316 118 -61 300
-58 463 8 35 14 65 24 67 21 6 -6 -95 -152 -162 -235 -198 -244 -395 -370
-580 -370 -85 0 -132 17 -182 68 -63 63 -81 129 -64 234 7 43 10 84 6 93 -16
43 -163 -12 -241 -90 -26 -26 -60 -76 -78 -113 -27 -58 -32 -80 -35 -167 -6
-153 34 -254 141 -356 95 -91 260 -158 429 -174 88 -9 280 11 395 40 239 61
473 218 675 454 160 187 277 362 698 1051 269 441 999 1656 1007 1677 4 10
-66 13 -359 13 l-364 0 -79 -130 c-44 -71 -82 -130 -85 -129 -3 0 -25 28 -50
62 -55 75 -146 139 -237 167 -79 24 -213 33 -301 19z m340 -379 c63 -49 62
-140 -1 -275 -60 -127 -299 -504 -404 -636 -171 -214 -307 -328 -413 -344 -50
-9 -90 20 -100 70 -38 206 420 974 688 1152 82 55 184 69 230 33z"/>
<path d="M14370 16519 c-145 -22 -333 -103 -495 -212 -117 -79 -357 -319 -448
-447 -37 -52 -99 -158 -137 -235 -116 -232 -163 -411 -164 -620 -1 -328 147
-569 399 -648 97 -30 293 -30 409 2 232 63 438 191 657 411 l126 126 38 -32
c70 -61 195 -82 319 -53 55 13 166 62 233 103 l42 27 6 -38 c44 -275 187 -452
425 -527 209 -67 531 -56 775 25 186 62 414 193 585 337 88 75 100 81 100 58
0 -7 19 -51 42 -97 53 -108 169 -227 273 -281 274 -142 679 -105 972 89 146
96 291 274 351 429 67 177 74 252 62 724 -5 190 4 248 52 321 57 85 187 103
288 41 71 -44 84 -40 88 26 7 120 -44 247 -137 342 -227 232 -629 167 -1094
-176 -139 -102 -378 -329 -513 -487 -51 -60 -113 -122 -138 -138 -71 -48 -151
-141 -195 -230 -23 -45 -41 -87 -41 -94 0 -21 -220 -225 -316 -293 -108 -77
-280 -163 -389 -194 -66 -19 -105 -23 -225 -23 -136 0 -149 2 -201 26 -67 32
-101 74 -124 153 -18 62 -16 158 6 239 l10 37 87 0 c163 0 375 36 535 91 381
131 650 376 722 659 26 99 17 247 -17 323 -51 109 -150 191 -270 223 -177 46
-471 14 -688 -76 -350 -144 -661 -435 -860 -805 -56 -104 -147 -220 -251 -321
-140 -135 -220 -173 -265 -123 -26 29 -24 130 4 234 12 44 31 113 42 153 120
446 -43 846 -381 938 -71 19 -218 25 -299 13z m2666 -319 c19 -19 24 -33 24
-73 0 -63 -39 -137 -123 -234 -129 -149 -269 -242 -457 -301 -101 -32 -305
-71 -316 -60 -19 20 155 258 290 397 250 257 481 365 582 271z m-2326 -45 c91
-82 17 -363 -176 -675 -170 -275 -430 -533 -592 -585 -45 -15 -60 -16 -93 -6
-59 18 -74 48 -73 151 2 133 56 282 176 488 171 292 455 584 621 638 51 17
112 12 137 -11z m3596 -544 c32 -341 6 -550 -84 -670 -76 -101 -156 -141 -280
-141 -85 0 -133 15 -183 59 -55 46 -79 100 -79 177 0 121 62 220 163 259 60
23 137 16 178 -14 37 -28 54 -22 63 19 23 116 -6 222 -80 297 l-51 51 106 105
c58 57 133 126 166 152 l60 48 2 -84 c1 -46 10 -163 19 -258z"/>
<path d="M4810 15355 l0 -155 2675 0 2675 0 0 155 0 155 -2675 0 -2675 0 0
-155z"/>
<path d="M19620 15355 l0 -155 2675 0 2675 0 0 155 0 155 -2675 0 -2675 0 0
-155z"/>
<path d="M3454 12516 c-93 -18 -133 -31 -222 -74 -113 -55 -183 -145 -139
-180 6 -5 35 -13 62 -17 68 -9 141 -46 222 -109 119 -94 172 -179 195 -311 18
-108 18 -2543 0 -2795 -15 -203 -27 -249 -90 -348 -64 -100 -82 -136 -82 -163
0 -23 62 -135 106 -194 71 -95 77 -221 78 -1745 1 -1395 2 -1378 -54 -1498
-56 -121 -237 -268 -359 -293 -73 -14 -85 -21 -89 -51 -7 -56 166 -165 324
-205 49 -12 109 -17 209 -17 197 0 273 23 509 153 l108 59 105 -64 c179 -108
287 -137 513 -137 164 0 251 18 360 73 93 47 173 135 151 167 -3 5 -33 14 -66
21 -90 18 -179 68 -265 149 -133 125 -163 207 -181 500 -14 233 -6 1568 10
1698 23 178 57 271 142 385 163 223 428 364 706 377 213 11 330 -33 462 -173
64 -67 91 -106 125 -177 57 -119 69 -177 65 -313 -4 -109 -4 -109 -57 -216
-30 -59 -52 -115 -50 -125 6 -29 102 -20 234 22 62 19 115 35 118 35 17 0 -5
-1452 -24 -1640 -23 -222 -38 -259 -160 -373 -49 -47 -93 -77 -157 -107 -167
-79 -178 -85 -181 -102 -2 -9 9 -27 23 -41 40 -36 199 -112 300 -143 79 -23
107 -27 225 -27 172 0 258 24 454 127 l140 73 160 -78 c209 -102 288 -123 461
-123 105 0 145 4 209 22 117 34 237 94 279 142 56 61 47 88 -32 101 -28 4 -72
18 -97 30 -46 24 -200 156 -290 250 l-52 54 -11 1485 -11 1485 110 223 109
223 -105 194 -106 194 5 1383 c3 844 9 1414 15 1464 15 115 26 151 73 224 82
128 152 183 302 236 90 31 140 62 145 87 6 28 -56 76 -163 128 -150 73 -202
84 -385 83 -198 0 -239 -11 -447 -116 l-162 -82 -158 76 c-171 83 -220 101
-328 119 -148 25 -367 -12 -530 -90 -157 -75 -186 -128 -90 -164 186 -71 320
-160 388 -257 48 -69 64 -127 76 -270 15 -180 23 -1608 12 -2195 -9 -509 -15
-594 -42 -610 -11 -8 -99 20 -269 85 -144 56 -245 77 -418 90 -209 15 -443
-13 -645 -76 -45 -15 -146 -55 -225 -90 -78 -35 -145 -64 -148 -64 -11 0 4
2596 15 2750 22 287 59 416 139 478 20 16 101 62 179 101 154 79 184 102 167
129 -17 27 -104 90 -169 122 -105 52 -173 65 -345 65 -194 0 -252 -15 -473
-123 l-159 -76 -41 23 c-153 85 -252 133 -317 151 -97 28 -294 35 -396 16z
m895 -1170 c17 -20 10 -77 -11 -90 -26 -16 -52 4 -56 43 -4 36 12 61 38 61 10
0 23 -6 29 -14z m2596 -90 c0 -26 -47 -60 -73 -52 -24 8 -36 45 -20 63 7 9 27
13 52 11 33 -2 41 -7 41 -22z m180 -127 c0 -30 -3 -34 -28 -37 -38 -5 -46 22
-16 54 29 31 44 26 44 -17z m-2697 -21 c7 -7 12 -21 12 -33 0 -52 -101 -198
-121 -178 -17 17 -42 122 -35 148 11 42 53 75 95 75 21 0 42 -5 49 -12z m-359
-204 c25 -32 44 -95 35 -118 -3 -9 -14 -16 -24 -16 -40 0 -95 115 -70 145 18
22 36 19 59 -11z m3057 -399 c32 -32 27 -49 -15 -53 -51 -5 -80 35 -49 66 18
18 36 15 64 -13z m-2636 -359 l20 -41 -20 -9 c-37 -17 -105 69 -79 100 17 21
55 -3 79 -50z m-243 -338 c18 -18 33 -38 33 -44 0 -16 -109 -113 -152 -136
-39 -21 -91 -23 -107 -5 -19 23 -24 73 -11 112 12 36 13 37 49 29 65 -14 94
-10 106 11 27 51 36 65 42 65 4 0 22 -14 40 -32z m3136 -43 c14 -30 15 -36 3
-41 -26 -10 -56 15 -56 46 0 43 32 40 53 -5z m-2949 -36 c20 -57 -18 -106 -55
-73 -23 21 -25 67 -3 89 22 22 47 15 58 -16z m2887 -156 c12 -32 4 -73 -14
-73 -39 0 -77 80 -44 93 29 12 48 6 58 -20z m-3096 -306 c0 -55 14 -71 78 -88
25 -7 42 -19 50 -36 10 -22 8 -28 -12 -44 -13 -11 -34 -19 -48 -19 -33 0 -72
-22 -112 -64 -19 -20 -39 -36 -44 -36 -5 0 -7 63 -5 143 2 117 6 148 21 171
14 20 25 26 45 24 25 -3 27 -6 27 -51z m285 -162 c19 -23 4 -65 -23 -65 -44 0
-64 49 -29 69 24 14 38 13 52 -4z m2717 -73 c18 -11 26 -58 13 -81 -10 -20
-12 -20 -36 -4 -35 23 -46 53 -26 76 16 18 30 21 49 9z m-2703 -178 c19 -20
26 -37 26 -66 0 -48 -23 -94 -50 -103 -26 -8 -68 18 -80 49 -12 32 4 93 31
122 29 31 40 30 73 -2z m596 -193 c13 -25 13 -27 -6 -45 -35 -36 -87 0 -64 44
14 26 56 26 70 1z m575 -11 c21 -40 19 -50 -8 -50 -29 0 -47 18 -47 45 0 45
33 48 55 5z m-1492 -52 c51 -64 50 -181 -2 -237 -33 -35 -74 -40 -121 -16 -36
18 -37 27 -9 72 17 27 20 44 15 79 -6 49 5 88 37 122 27 29 43 25 80 -20z
m1886 -24 c12 -15 21 -33 21 -40 0 -19 -53 -44 -93 -44 -53 0 -59 38 -14 88
27 29 61 28 86 -4z m-1603 -62 c5 -28 21 -50 63 -89 63 -59 63 -74 0 -105 -47
-24 -199 -71 -206 -64 -10 10 26 157 51 212 26 57 61 98 76 89 5 -3 12 -22 16
-43z m398 37 c29 -13 43 -41 81 -157 31 -94 25 -115 -29 -110 -25 2 -32 8 -34
28 -8 79 -14 92 -47 111 -57 34 -66 100 -17 128 21 13 17 13 46 0z m994 -226
c-2 -31 -7 -39 -27 -41 -36 -5 -43 10 -21 46 28 46 52 43 48 -5z m-393 -26
c23 -19 25 -26 16 -49 -12 -32 -46 -43 -84 -29 -49 19 -47 62 4 88 32 17 34
17 64 -10z m-615 -75 c25 -20 19 -46 -13 -64 -17 -9 -24 -7 -39 12 -22 27 -22
34 -2 54 20 20 27 20 54 -2z m-872 -61 c77 -39 107 -103 52 -108 -14 -2 -54 7
-90 20 -73 25 -87 50 -51 86 26 26 42 26 89 2z m551 -17 c3 -3 -1 -10 -7 -16
-9 -9 -22 -8 -54 2 -37 11 -40 14 -23 21 18 7 74 2 84 -7z m-312 -141 c21 -31
23 -94 4 -117 -29 -35 -191 -10 -191 29 0 32 22 56 78 85 71 36 87 37 109 3z
m408 -55 c58 -26 36 -101 -34 -113 -67 -11 -131 20 -131 65 0 6 11 22 25 35
27 28 94 34 140 13z m1999 -7 c39 -26 113 -118 119 -149 13 -65 -16 -67 -106
-6 -94 63 -135 137 -89 163 25 15 44 13 76 -8z m-2601 -143 c20 -18 44 -50 52
-70 14 -36 14 -39 -5 -58 -52 -52 -200 14 -200 89 0 77 86 98 153 39z m3151
26 c32 -12 7 -74 -30 -74 -21 0 -54 37 -54 60 0 16 7 20 34 20 19 0 41 -3 50
-6z m-2894 -44 c34 -34 23 -140 -15 -140 -22 0 -33 -30 -41 -104 -6 -60 -22
-96 -42 -96 -19 0 -74 44 -91 71 -24 39 -19 52 22 70 29 13 33 19 38 69 8 69
16 88 47 123 30 32 55 34 82 7z m530 1 c21 -40 5 -111 -25 -111 -19 0 -45 39
-45 69 0 27 26 61 46 61 7 0 18 -9 24 -19z m-310 -128 c0 -29 -38 -98 -75
-133 -29 -28 -35 -31 -41 -16 -11 29 6 126 27 147 25 25 89 27 89 2z m-68
-250 c24 -22 23 -68 -3 -91 -29 -27 -91 -36 -106 -16 -6 9 -10 21 -8 27 2 7 6
24 9 39 12 55 69 77 108 41z m-338 -208 c25 -38 42 -131 27 -149 -18 -21 -78
-39 -107 -32 -57 15 -56 102 3 167 41 46 55 48 77 14z m3121 -88 c19 -28 19
-33 -5 -57 -22 -22 -69 -27 -88 -8 -20 20 -14 55 13 76 29 23 59 19 80 -11z
m-2717 -119 c4 -50 -23 -68 -103 -68 -58 0 -105 18 -105 40 0 26 122 70 180
67 21 -2 25 -8 28 -39z m-270 -186 c29 -10 55 -22 59 -25 13 -14 -31 -47 -61
-47 -17 0 -46 -9 -64 -20 -40 -24 -87 -26 -96 -4 -10 26 12 92 37 109 25 18
47 16 125 -13z m3188 -56 c27 -21 11 -42 -62 -83 -58 -32 -114 -43 -114 -23 0
17 27 65 44 79 16 14 82 40 102 41 5 0 19 -6 30 -14z m-3015 -126 c26 -14 24
-33 -7 -70 -31 -36 -77 -62 -97 -54 -17 6 -37 47 -37 74 0 45 90 77 141 50z
m2609 -476 c0 -31 -81 -119 -102 -111 -8 2 -12 19 -12 43 1 29 9 44 33 66 17
15 42 28 56 28 20 0 25 -5 25 -26z m-2590 -569 c21 -25 2 -81 -48 -147 -26
-34 -53 -64 -60 -66 -33 -10 -55 128 -28 177 26 46 109 68 136 36z m-423 -31
c61 -38 81 -95 45 -127 -25 -23 -86 -47 -118 -47 -15 0 -36 7 -46 17 -26 23
-25 107 2 151 19 30 23 32 58 26 20 -3 47 -12 59 -20z"/>
<path d="M9760 12514 c-156 -33 -350 -144 -350 -198 0 -31 25 -50 93 -71 83
-26 162 -76 239 -152 75 -75 109 -131 132 -218 35 -136 38 -241 43 -1265 7
-1544 -8 -1779 -127 -1941 -114 -157 -105 -138 -86 -174 10 -18 36 -54 58 -81
82 -100 116 -207 139 -444 16 -174 25 -2143 10 -2439 -19 -378 -45 -468 -173
-586 -67 -62 -110 -87 -280 -163 -42 -19 -48 -26 -48 -51 0 -39 49 -80 165
-136 127 -61 205 -79 355 -79 184 -1 287 29 505 146 l100 54 160 -78 c88 -43
187 -85 220 -93 106 -27 411 -35 1340 -35 l910 1 189 103 188 104 162 -79
c211 -102 288 -123 466 -123 110 0 149 4 212 22 107 30 219 87 267 135 72 70
65 100 -24 112 -89 11 -187 67 -282 160 -150 148 -160 195 -213 1001 -5 88
-17 186 -25 217 -58 222 -280 446 -551 554 -68 28 -95 33 -141 31 -55 -3 -58
-4 -61 -31 -2 -17 14 -64 42 -125 55 -118 65 -162 66 -272 0 -205 -74 -336
-290 -507 l-104 -83 -958 0 -958 0 0 1084 0 1084 63 7 c34 3 274 5 532 3 529
-3 493 2 629 -86 135 -86 229 -200 281 -341 17 -47 39 -90 48 -95 29 -18 68
13 124 98 98 148 142 324 124 497 -16 148 -35 200 -149 412 l-74 137 50 78
c74 112 119 214 143 322 17 80 20 118 16 240 -5 169 -30 265 -95 366 -42 65
-108 126 -132 122 -8 -2 -28 -40 -46 -92 -39 -108 -86 -177 -175 -260 -71 -65
-148 -112 -246 -148 -55 -20 -80 -22 -443 -26 -212 -2 -445 -1 -517 3 l-133 7
0 1082 0 1083 773 7 c1007 8 1072 3 1262 -97 91 -49 188 -149 215 -222 69
-188 67 -323 -9 -569 -42 -133 -41 -136 12 -136 77 0 231 66 368 156 94 62
236 214 281 299 79 152 92 236 129 820 13 223 33 356 60 412 28 58 153 172
236 216 61 32 92 42 185 61 60 13 35 90 -49 147 -115 80 -241 118 -413 126
-192 8 -280 -13 -488 -118 l-162 -83 -168 81 c-92 45 -188 86 -214 92 -101 24
-361 31 -1123 31 -754 0 -1016 -7 -1122 -30 -26 -6 -123 -47 -216 -92 l-167
-82 -133 67 c-72 36 -161 75 -196 86 -156 50 -323 63 -451 35z m1726 -378 c7
-19 -41 -113 -66 -126 -27 -14 -50 22 -43 68 9 54 93 99 109 58z m-552 -25
c22 -25 17 -55 -10 -59 -28 -4 -48 22 -40 53 8 30 26 32 50 6z m2151 -85 c22
-33 11 -76 -20 -76 -25 0 -39 13 -50 48 -14 48 42 71 70 28z m-2130 -176 c0
-30 -4 -35 -26 -38 -36 -4 -55 21 -40 54 9 20 17 25 39 22 24 -3 27 -7 27 -38z
m-395 -174 c0 -48 -24 -86 -43 -67 -24 24 -1 111 28 111 11 0 15 -12 15 -44z
m2934 -12 c8 -20 -19 -64 -39 -64 -20 0 -47 44 -39 64 4 10 18 16 39 16 21 0
35 -6 39 -16z m-2743 -405 c39 -39 5 -82 -48 -60 -33 13 -60 52 -49 70 12 19
74 13 97 -10z m-63 -242 c4 -21 -24 -57 -45 -57 -22 0 -26 28 -8 56 18 28 48
29 53 1z m110 -3229 c4 -44 -8 -48 -37 -12 -24 30 -17 56 13 52 16 -2 22 -11
24 -40z m2455 -2492 c6 -16 -4 -26 -46 -44 -23 -10 -29 -9 -33 2 -3 8 -1 24 6
35 13 24 65 29 73 7z m445 -198 c18 -18 15 -65 -4 -72 -20 -8 -64 19 -64 39 0
12 36 45 50 45 3 0 11 -5 18 -12z"/>
<path d="M15678 12520 c-146 -26 -273 -86 -343 -161 -35 -38 -46 -56 -43 -76
3 -24 9 -28 65 -39 162 -33 357 -177 402 -298 70 -187 74 -282 72 -1651 0
-649 -4 -1220 -7 -1270 -7 -90 -7 -90 -115 -307 -60 -120 -109 -222 -109 -228
0 -5 27 -47 61 -92 99 -134 123 -191 145 -348 43 -306 38 -2583 -6 -2820 -18
-97 -74 -195 -164 -285 -99 -100 -172 -143 -269 -159 -67 -11 -72 -14 -75 -38
-5 -44 57 -102 162 -153 131 -64 204 -79 366 -78 169 1 275 26 451 109 163 77
195 79 284 26 233 -141 589 -181 816 -92 62 25 162 93 184 126 23 35 19 73 -7
83 -122 47 -168 72 -253 136 -114 85 -156 136 -184 220 -54 161 -61 345 -61
1670 l0 1130 145 -10 c80 -6 148 -14 151 -18 6 -6 367 -914 705 -1772 221
-560 339 -910 339 -1004 0 -79 -29 -157 -77 -211 -51 -57 -88 -81 -187 -124
-39 -17 -71 -36 -71 -41 -1 -17 95 -92 164 -128 156 -82 369 -120 549 -99 152
18 242 50 358 130 l100 69 110 -49 c274 -124 376 -151 574 -152 162 -1 216 11
326 70 99 53 144 93 144 127 0 34 -12 41 -130 82 -196 69 -323 146 -447 273
-106 109 -161 199 -273 446 -225 497 -1000 2456 -986 2492 7 18 70 59 276 179
241 141 367 233 519 380 193 187 332 373 445 594 164 320 245 640 262 1034 17
388 -91 818 -295 1175 -96 168 -209 313 -365 468 -207 206 -379 327 -651 458
-438 211 -628 243 -1400 233 -498 -6 -501 -7 -759 -130 l-148 -71 -32 18
c-232 136 -352 176 -541 181 -71 2 -151 0 -177 -5z m2446 -366 c22 -21 20 -67
-4 -89 -40 -36 -115 18 -90 65 20 37 69 49 94 24z m-1367 -86 c7 -5 15 -25 19
-44 6 -35 28 -54 62 -54 25 0 55 -34 50 -57 -9 -48 -100 -12 -185 72 -29 30
-53 61 -53 70 0 32 74 41 107 13z m998 -29 c17 -27 -51 -129 -86 -129 -23 0
-59 47 -59 76 0 40 33 64 89 64 28 0 53 -5 56 -11z m-1529 -83 c102 -37 137
-86 62 -86 -59 0 -158 22 -180 40 -20 15 -21 21 -10 44 15 33 40 34 128 2z
m1982 -78 c5 -61 -49 -94 -56 -34 -4 31 23 79 41 73 7 -2 13 -20 15 -39z m460
-31 c30 -31 23 -60 -18 -77 -52 -22 -110 15 -110 69 0 46 84 51 128 8z m-867
-136 c22 -18 23 -21 8 -36 -24 -24 -99 -31 -124 -11 -20 16 -20 16 8 41 34 30
76 32 108 6z m-1521 -155 c6 -8 10 -25 8 -38 -2 -18 -10 -24 -35 -26 -28 -3
-33 1 -39 23 -11 45 37 75 66 41z m1590 -251 c136 -21 209 -40 293 -76 199
-84 416 -281 535 -484 81 -139 113 -281 113 -500 0 -248 -46 -425 -159 -604
-173 -276 -407 -424 -782 -493 -87 -17 -165 -21 -462 -25 l-358 -5 0 1107 0
1107 358 -5 c263 -4 385 -9 462 -22z m-1352 -37 c17 -17 15 -73 -3 -88 -22
-18 -48 -8 -59 22 -19 53 27 101 62 66z m2421 -94 c41 -34 43 -74 4 -74 -34 0
-83 46 -83 77 0 32 39 31 79 -3z m-2453 -72 c16 -11 34 -48 34 -71 0 -28 -37
-28 -67 1 -31 29 -32 78 0 78 12 0 27 -4 33 -8z m-198 -410 c7 -47 -47 -72
-68 -32 -6 12 -8 30 -5 41 10 30 69 23 73 -9z m3118 -87 c17 -42 18 -161 1
-195 -7 -14 -22 -26 -33 -28 -17 -2 -25 6 -38 38 -33 83 -12 220 34 220 15 0
25 -11 36 -35z m260 -224 c20 -12 37 -34 44 -56 11 -34 10 -39 -9 -58 -31 -32
-156 -37 -191 -9 l-24 20 43 55 c57 74 80 82 137 48z m-3166 -583 c11 -18 20
-40 20 -49 0 -41 -68 -23 -84 23 -21 60 30 81 64 26z m231 -48 c26 -14 24 -34
-6 -54 -36 -23 -79 -20 -112 9 -27 24 -28 25 -9 40 23 17 98 20 127 5z m2523
-252 c15 -25 -3 -52 -37 -56 -21 -3 -28 2 -33 22 -12 49 43 76 70 34z m208
-115 c22 -20 24 -51 3 -59 -23 -9 -45 15 -45 47 0 33 15 37 42 12z m-2662
-278 c7 -9 10 -25 6 -40 -6 -22 -11 -26 -39 -23 -27 3 -33 8 -35 32 -5 43 41
64 68 31z m1685 -145 c0 -29 -4 -36 -23 -38 -43 -6 -69 37 -40 66 7 7 24 12
38 10 21 -3 25 -8 25 -38z m-1403 -462 l21 -21 -23 -19 c-39 -31 -110 -17
-110 22 0 41 76 54 112 18z m887 -124 c19 -17 1 -39 -44 -54 -44 -14 -105 9
-105 39 0 38 113 49 149 15z m276 -134 c0 -29 -4 -36 -23 -38 -43 -6 -69 37
-40 66 7 7 24 12 38 10 21 -3 25 -8 25 -38z m-235 -123 c0 -43 -35 -60 -64
-31 -23 22 -20 53 7 63 29 11 57 -4 57 -32z m-466 -38 c14 -17 26 -34 26 -38
0 -17 -33 -51 -49 -51 -31 0 -71 39 -71 69 0 57 53 69 94 20z m-1142 -34 c23
-51 -20 -106 -57 -75 -18 15 -20 71 -3 88 20 20 48 14 60 -13z m1509 -225 c24
-13 26 -65 3 -74 -26 -10 -64 -7 -93 8 -72 37 -61 76 21 76 27 0 58 -5 69 -10z
m334 -460 c0 -33 -2 -35 -35 -35 -29 0 -36 4 -38 23 -5 32 16 54 47 50 22 -3
26 -8 26 -38z m897 -1757 c27 -24 22 -49 -13 -64 -28 -11 -33 -10 -45 6 -37
51 12 100 58 58z"/>
<path d="M17130 10227 l0 -1027 85 0 85 0 0 945 0 945 279 0 c348 0 561 -16
731 -56 25 -5 24 -5 -5 21 -49 43 -224 123 -315 144 -142 33 -232 41 -552 48
l-308 6 0 -1026z"/>
<path d="M21330 12514 c-84 -18 -179 -56 -249 -101 -76 -48 -101 -72 -101 -98
0 -30 25 -49 93 -70 83 -26 162 -76 239 -152 75 -75 109 -131 132 -218 35
-136 38 -241 43 -1265 7 -1544 -8 -1779 -127 -1941 -114 -157 -105 -138 -86
-174 10 -18 36 -55 58 -81 81 -97 114 -204 139 -449 16 -158 24 -2149 10
-2434 -19 -378 -45 -468 -173 -586 -67 -62 -110 -87 -280 -163 -42 -19 -48
-26 -48 -51 0 -39 49 -80 165 -136 127 -61 205 -79 355 -79 184 -1 287 29 505
146 l100 54 160 -78 c88 -43 187 -85 220 -93 105 -27 416 -35 1345 -35 l905 1
189 103 188 104 162 -79 c211 -102 288 -123 466 -123 110 0 149 4 212 22 107
30 219 87 267 135 72 70 65 100 -24 112 -32 4 -86 22 -127 43 -95 47 -226 174
-263 253 -44 97 -74 323 -95 729 -17 323 -32 392 -111 528 -113 192 -453 419
-616 410 -55 -3 -58 -4 -61 -31 -2 -17 14 -64 42 -125 55 -118 65 -162 66
-272 0 -205 -74 -336 -290 -507 l-104 -83 -958 0 -958 0 0 1084 0 1084 73 7
c39 3 279 5 532 3 518 -3 483 1 619 -86 135 -86 229 -200 281 -341 17 -47 39
-90 48 -95 29 -18 68 13 124 98 99 149 142 322 123 499 -15 148 -34 199 -164
440 l-58 108 50 77 c74 112 119 214 143 322 17 80 20 118 16 240 -5 169 -30
265 -95 366 -42 65 -108 126 -132 122 -8 -2 -28 -40 -46 -92 -39 -108 -86
-177 -175 -260 -71 -65 -148 -112 -246 -148 -55 -20 -80 -22 -443 -26 -212 -2
-445 -1 -517 3 l-133 7 0 1082 0 1083 773 7 c1007 8 1072 3 1262 -97 91 -49
188 -149 215 -222 69 -188 67 -323 -9 -569 -42 -133 -41 -136 12 -136 77 0
231 66 368 156 94 62 236 214 281 299 79 152 92 236 129 820 13 223 33 356 60
412 28 58 153 172 236 216 61 32 92 42 185 61 60 13 35 90 -49 147 -115 80
-241 118 -413 126 -192 8 -280 -13 -488 -118 l-162 -83 -168 82 c-249 121
-172 114 -1211 119 -851 5 -1135 -2 -1251 -27 -25 -6 -120 -47 -213 -92 l-167
-82 -133 67 c-72 36 -161 75 -196 86 -156 50 -323 63 -451 35z m1725 -374 c10
-16 -40 -117 -64 -129 -17 -10 -23 -8 -35 11 -20 32 -9 84 22 108 26 21 67 26
77 10z m-551 -29 c22 -25 17 -55 -10 -59 -28 -4 -48 22 -40 53 8 30 26 32 50
6z m2151 -85 c22 -33 11 -76 -20 -76 -25 0 -39 13 -50 48 -14 48 42 71 70 28z
m-2130 -176 c0 -30 -4 -35 -26 -38 -36 -4 -55 21 -40 54 9 20 17 25 39 22 24
-3 27 -7 27 -38z m-395 -174 c0 -48 -24 -86 -43 -67 -24 24 -1 111 28 111 11
0 15 -12 15 -44z m2934 -12 c8 -20 -19 -64 -39 -64 -20 0 -47 44 -39 64 4 10
18 16 39 16 21 0 35 -6 39 -16z m-2743 -405 c39 -39 5 -82 -48 -60 -33 13 -60
52 -49 70 12 19 74 13 97 -10z m-63 -242 c4 -21 -24 -57 -45 -57 -22 0 -26 28
-8 56 18 28 48 29 53 1z m110 -3229 c4 -44 -8 -48 -37 -12 -24 30 -17 56 13
52 16 -2 22 -11 24 -40z m2455 -2492 c6 -16 -4 -26 -46 -44 -23 -10 -29 -9
-33 2 -3 8 -1 24 6 35 13 24 65 29 73 7z m445 -198 c7 -7 12 -24 12 -39 0 -32
-29 -43 -59 -22 -27 18 -27 38 1 57 27 19 31 19 46 4z"/>
<path d="M5415 12257 c-30 -47 -92 -89 -186 -126 -263 -105 -272 -137 -289
-1021 -13 -624 -18 -2085 -8 -2096 4 -4 45 8 90 27 l83 34 7 985 c7 1013 17
1389 42 1544 32 197 75 254 259 347 125 63 202 112 211 134 2 7 -39 55 -92
108 l-97 96 -20 -32z"/>
<path d="M8460 12283 c0 -7 -13 -28 -30 -46 -21 -25 -61 -47 -145 -82 -140
-58 -196 -96 -258 -177 -53 -71 -65 -106 -78 -228 -5 -47 -11 -697 -15 -1445
l-7 -1360 112 -205 113 -205 -115 -230 -114 -230 11 -1467 12 -1468 89 -84
c50 -46 91 -83 91 -82 1 0 -4 649 -11 1441 l-12 1440 24 42 c36 65 180 355
187 378 4 15 -24 77 -94 210 l-101 190 4 1430 c3 1037 7 1446 16 1490 16 85
65 175 134 250 60 66 98 89 310 184 52 23 67 35 67 51 0 23 -189 225 -190 203z"/>
<path d="M14766 12243 c-23 -46 -60 -70 -119 -78 -129 -17 -295 -138 -335
-245 -19 -50 -41 -227 -52 -405 -38 -661 -70 -779 -264 -984 -115 -120 -277
-225 -438 -282 -48 -18 -88 -35 -88 -39 0 -3 35 -41 79 -83 67 -66 84 -77 113
-77 116 0 378 148 528 298 171 172 215 310 240 747 20 375 48 583 88 661 25
49 120 140 197 189 61 39 150 75 185 75 36 0 60 19 60 47 0 19 -23 49 -89 116
l-89 90 -16 -30z"/>
<path d="M26336 12243 c-23 -46 -60 -70 -119 -78 -129 -17 -295 -138 -335
-245 -19 -50 -41 -227 -52 -405 -38 -661 -70 -779 -264 -984 -115 -120 -277
-225 -438 -282 -48 -18 -88 -35 -88 -39 0 -3 35 -41 79 -83 67 -66 84 -77 113
-77 116 0 378 148 528 298 171 172 215 310 240 747 20 375 48 583 88 661 25
49 120 140 197 189 61 39 150 75 185 75 36 0 60 19 60 47 0 19 -23 49 -89 116
l-89 90 -16 -30z"/>
<path d="M19894 11259 c169 -340 246 -695 232 -1069 -9 -271 -44 -471 -121
-705 -116 -354 -298 -654 -560 -924 -184 -190 -347 -312 -585 -442 -63 -34
-141 -79 -172 -101 l-57 -38 35 -98 c103 -283 435 -1129 642 -1632 316 -768
409 -965 511 -1080 28 -32 25 -23 -30 100 -167 371 -599 1443 -921 2284 -77
203 -79 209 -61 229 25 27 95 72 243 152 460 250 800 600 1020 1050 98 200
154 370 202 605 21 103 23 143 23 375 0 291 -12 393 -70 620 -62 240 -163 469
-295 667 -108 161 -113 162 -36 7z"/>
<path d="M11830 11230 c-327 -4 -596 -7 -597 -8 -2 -1 -3 -452 -3 -1002 l0
-1000 90 0 90 0 0 283 c0 156 3 574 7 929 l6 645 756 7 c705 6 925 2 1041 -20
l35 -7 -35 38 c-91 96 -242 129 -625 138 -93 2 -438 0 -765 -3z"/>
<path d="M23400 11230 c-327 -4 -596 -7 -597 -8 -2 -1 -3 -452 -3 -1002 l0
-1000 90 0 90 0 0 283 c0 156 3 574 7 929 l6 645 756 7 c704 6 925 2 1041 -20
l35 -7 -39 41 c-123 129 -278 144 -1386 132z"/>
<path d="M12981 9425 c48 -136 58 -397 20 -540 -22 -83 -75 -202 -135 -305
l-35 -59 80 -170 c102 -217 121 -289 123 -446 0 -137 -21 -237 -79 -361 -33
-71 -110 -189 -141 -214 -13 -12 -5 -24 68 -97 103 -103 119 -106 178 -31 61
76 126 219 146 318 21 107 14 255 -17 372 -14 51 -54 145 -104 243 l-82 160
63 105 c108 180 154 368 140 570 -14 194 -54 294 -168 414 -55 58 -66 65 -57
41z"/>
<path d="M24551 9425 c48 -136 58 -397 20 -540 -22 -83 -75 -202 -135 -305
l-35 -59 80 -170 c102 -217 121 -289 123 -446 0 -137 -21 -237 -79 -361 -33
-71 -110 -189 -141 -214 -13 -12 -5 -24 68 -97 103 -103 119 -106 178 -31 61
76 126 219 146 318 21 107 14 255 -17 372 -14 51 -54 145 -104 243 l-82 160
59 100 c114 190 143 297 142 515 -1 234 -38 340 -166 474 -55 58 -66 65 -57
41z"/>
<path d="M11293 7823 l-63 -4 0 -999 0 -1000 90 0 90 0 0 919 0 919 73 6 c160
13 602 23 767 17 96 -3 177 -5 179 -3 10 6 -132 104 -185 128 -35 16 -82 18
-464 19 -234 1 -453 0 -487 -2z"/>
<path d="M17133 6643 c6 -1320 9 -1390 69 -1520 20 -43 85 -115 121 -135 19
-10 19 -8 12 37 -3 26 -11 84 -17 129 -6 49 -12 559 -15 1300 -4 1112 -3 1221
11 1232 15 10 14 17 -6 75 l-23 64 -78 3 -79 3 5 -1188z"/>
<path d="M22863 7823 l-63 -4 0 -999 0 -1000 90 0 90 0 0 919 0 919 73 6 c160
13 602 23 767 17 96 -3 177 -5 179 -3 10 6 -132 104 -185 128 -35 16 -82 18
-464 19 -234 1 -453 0 -487 -2z"/>
<path d="M5620 7809 c-83 -14 -211 -62 -297 -110 -133 -76 -295 -256 -341
-379 -48 -132 -61 -370 -61 -1100 -1 -784 13 -1000 69 -1110 22 -44 125 -158
134 -149 3 3 1 39 -5 80 -16 110 -23 1271 -10 1584 18 438 44 530 196 709 118
137 307 256 490 308 63 17 107 22 202 23 l122 0 -22 24 c-43 47 -137 99 -207
115 -75 17 -183 19 -270 5z"/>
<path d="M6438 6812 c-31 -9 -59 -19 -62 -23 -3 -3 28 -38 69 -79 l75 -74 0
97 c0 109 5 104 -82 79z"/>
<path d="M14164 6255 c36 -97 51 -223 66 -553 11 -225 31 -427 52 -512 17 -70
43 -114 100 -170 48 -47 98 -85 85 -63 -14 23 -37 251 -47 468 -19 417 -34
534 -82 629 -22 45 -110 156 -154 196 -24 22 -26 23 -20 5z"/>
<path d="M25734 6255 c36 -97 51 -223 66 -553 11 -225 31 -427 52 -512 17 -70
43 -114 100 -170 48 -47 98 -85 85 -63 -14 23 -37 250 -47 463 -19 423 -34
539 -82 634 -22 45 -110 156 -154 196 -24 22 -26 23 -20 5z"/>
<path d="M5415 4672 c-35 -54 -128 -132 -200 -167 -108 -53 -196 -69 -380 -69
-138 1 -184 4 -242 21 -40 11 -73 19 -73 18 0 -8 181 -111 227 -130 182 -73
461 -82 645 -20 109 37 238 142 238 194 0 11 -165 194 -178 198 -4 1 -20 -19
-37 -45z"/>
<path d="M8424 4665 c-82 -130 -293 -222 -536 -232 -209 -9 -297 11 -529 123
l-136 66 -124 -64 c-187 -96 -307 -128 -478 -128 -53 1 -132 7 -176 15 -43 8
-81 13 -82 11 -5 -5 69 -52 138 -86 192 -98 398 -123 593 -74 39 10 139 53
230 99 l160 82 141 -68 c192 -94 297 -121 475 -122 155 -1 271 22 378 74 76
37 152 106 152 138 0 19 -37 64 -155 189 l-21 23 -30 -46z"/>
<path d="M14761 4677 c-47 -77 -153 -146 -301 -197 -150 -51 -325 -64 -480
-34 -98 18 -143 35 -312 116 l-127 61 -176 -97 -176 -96 -977 0 c-974 0 -1201
6 -1317 35 -33 8 -127 48 -208 87 l-148 73 -112 -57 c-230 -117 -292 -133
-502 -133 -82 0 -166 3 -185 7 l-35 8 40 -36 c51 -44 160 -97 250 -120 52 -14
106 -18 210 -18 182 0 250 19 450 123 l150 78 150 -74 c83 -40 177 -80 210
-88 101 -26 428 -34 1364 -35 l894 0 98 44 c54 25 140 69 192 99 l93 54 110
-55 c349 -175 636 -186 927 -35 37 20 79 49 92 65 42 50 35 71 -63 171 l-89
90 -22 -36z"/>
<path d="M26331 4677 c-47 -77 -153 -146 -301 -197 -150 -51 -325 -64 -480
-34 -98 18 -143 35 -312 116 l-127 61 -176 -97 -176 -96 -977 0 c-974 0 -1201
6 -1317 35 -33 8 -127 48 -208 87 l-148 73 -112 -57 c-230 -117 -292 -133
-502 -133 -82 0 -166 3 -185 7 l-35 8 40 -36 c51 -44 160 -97 250 -120 52 -14
106 -18 210 -18 182 0 250 19 450 123 l150 78 150 -74 c83 -40 177 -80 210
-88 101 -26 428 -34 1364 -35 l894 0 98 44 c54 25 140 69 192 99 l93 54 110
-55 c349 -175 636 -186 927 -35 37 20 79 49 92 65 42 50 35 71 -63 171 l-89
90 -22 -36z"/>
<path d="M17646 4673 c-11 -34 -121 -130 -186 -163 -233 -118 -601 -102 -870
36 -36 18 -77 41 -92 51 -35 22 -76 12 -212 -52 -54 -26 -124 -56 -155 -66
-134 -47 -332 -61 -479 -35 l-72 12 27 -29 c36 -37 150 -92 249 -118 62 -17
108 -22 214 -22 167 0 269 25 446 106 185 85 204 87 285 33 73 -48 194 -94
309 -119 127 -27 343 -29 451 -4 110 26 222 96 256 160 18 36 10 49 -92 155
-65 69 -73 74 -79 55z"/>
<path d="M20432 4639 c-28 -48 -83 -90 -177 -135 -104 -50 -175 -65 -320 -71
-211 -8 -351 24 -581 132 l-118 55 -83 -56 c-105 -70 -177 -100 -295 -120
-119 -21 -318 -14 -433 15 -44 10 -81 18 -83 16 -2 -1 19 -18 45 -38 75 -55
186 -106 291 -135 86 -23 116 -26 262 -26 154 0 170 2 245 28 51 17 117 52
183 97 57 38 108 69 114 69 6 0 72 -27 146 -61 172 -77 262 -106 387 -125 115
-18 250 -13 335 12 71 20 196 87 238 127 54 52 47 67 -112 234 l-21 22 -23
-40z"/>
<path d="M4125 4574 c-267 -130 -474 -170 -680 -130 -38 8 -71 13 -73 11 -7
-7 83 -74 132 -98 119 -59 333 -89 481 -68 115 16 193 43 361 125 l149 73 -38
16 c-21 9 -79 39 -128 67 -49 27 -94 50 -101 49 -7 0 -53 -20 -103 -45z"/>
</g>
</svg>
