<?xml version="1.0" standalone="no"?>
<!DOCTYPE svg PUBLIC "-//W3C//DTD SVG 20010904//EN"
 "http://www.w3.org/TR/2001/REC-SVG-20010904/DTD/svg10.dtd">
<svg version="1.0" xmlns="http://www.w3.org/2000/svg"
 width="3000.000000pt" height="3000.000000pt" viewBox="0 0 3000.000000 3000.000000"
 preserveAspectRatio="xMidYMid meet">

<g transform="translate(0.000000,3000.000000) scale(0.100000,-0.100000)"
fill="#000000" stroke="none">
<path d="M9360 23125 l0 -4065 5670 0 5670 0 0 4065 0 4065 -5670 0 -5670 0 0
-4065z m2580 3539 c36 -8 115 -19 175 -23 133 -10 242 -47 370 -125 184 -111
311 -247 395 -421 89 -185 85 -137 85 -996 0 -649 -2 -758 -15 -774 -12 -14
-24 -16 -66 -11 -43 5 -61 1 -110 -22 l-59 -27 -265 1 c-323 1 -442 11 -469
39 -19 19 -20 48 -26 713 -7 676 -8 693 -28 719 -26 33 -75 53 -132 53 -35 0
-51 -6 -75 -27 -26 -24 -34 -45 -55 -140 -30 -135 -32 -225 -5 -318 11 -39 27
-140 36 -225 26 -262 91 -552 188 -843 67 -200 123 -334 232 -547 56 -112 92
-197 110 -264 24 -86 35 -109 92 -185 73 -98 83 -116 193 -358 86 -190 119
-294 119 -379 0 -42 8 -67 40 -126 50 -94 116 -291 129 -391 6 -43 11 -118 11
-166 0 -73 4 -96 24 -135 20 -39 23 -57 19 -104 -5 -49 0 -70 32 -152 33 -84
37 -104 36 -180 -1 -74 -4 -87 -22 -102 -12 -10 -31 -18 -44 -18 -34 0 -51
-25 -37 -55 12 -25 19 -28 57 -26 53 3 62 -33 71 -279 6 -180 5 -187 -20 -270
-15 -47 -39 -134 -55 -195 -104 -394 -217 -568 -455 -706 -80 -46 -200 -99
-225 -99 -38 0 -84 44 -145 137 -81 125 -105 148 -158 148 -77 0 -114 -87 -68
-163 11 -18 50 -51 86 -74 56 -35 65 -45 62 -67 -5 -39 -79 -53 -235 -47 -356
16 -704 166 -886 382 -69 82 -139 218 -169 329 -20 77 -21 110 -31 920 -6 462
-7 858 -3 879 13 69 18 70 511 62 413 -6 430 -7 450 -26 19 -20 20 -33 20
-269 0 -307 7 -291 -134 -291 -90 1 -133 10 -214 45 -17 7 -17 4 2 -46 25 -67
86 -124 191 -178 80 -42 123 -80 139 -123 5 -14 15 -138 20 -275 6 -136 14
-313 17 -392 l6 -144 64 6 c121 9 184 55 237 171 10 22 39 64 65 94 71 82 92
114 92 143 0 33 -14 45 -65 54 -57 11 -92 31 -109 63 -8 15 -19 86 -26 157
-23 260 -76 503 -195 900 -133 443 -134 447 -324 798 -327 605 -576 1283 -660
1797 -66 407 -91 900 -56 1135 23 154 81 377 114 443 43 82 57 101 167 224
178 199 269 262 454 318 227 68 397 86 530 54z m6440 0 c36 -8 115 -19 175
-23 133 -10 242 -47 370 -125 184 -111 311 -247 395 -421 89 -185 85 -137 85
-996 0 -649 -2 -758 -15 -774 -12 -14 -24 -16 -66 -11 -43 5 -61 1 -110 -22
l-59 -27 -265 1 c-323 1 -442 11 -469 39 -19 19 -20 48 -26 713 -7 676 -8 693
-28 719 -26 33 -75 53 -132 53 -35 0 -51 -6 -75 -27 -26 -24 -34 -45 -55 -140
-30 -135 -32 -225 -5 -318 11 -39 27 -140 36 -225 18 -181 40 -306 94 -520 78
-313 176 -574 326 -870 56 -112 92 -197 110 -264 24 -86 35 -109 92 -185 73
-98 83 -116 193 -358 86 -190 119 -294 119 -379 0 -42 8 -67 40 -126 50 -94
116 -291 129 -391 6 -43 11 -118 11 -166 0 -73 4 -96 24 -135 20 -39 23 -57
19 -104 -5 -49 0 -70 32 -152 33 -84 37 -104 36 -180 -1 -74 -4 -87 -22 -102
-12 -10 -31 -18 -44 -18 -34 0 -51 -25 -37 -55 12 -25 19 -28 57 -26 53 3 62
-33 71 -279 6 -180 5 -187 -20 -270 -15 -47 -39 -134 -55 -195 -104 -392 -214
-564 -451 -704 -73 -43 -204 -101 -229 -101 -38 0 -84 44 -145 137 -81 125
-105 148 -158 148 -77 0 -114 -87 -68 -163 11 -18 50 -51 86 -74 56 -35 65
-45 62 -67 -5 -39 -79 -53 -235 -47 -259 11 -517 94 -718 229 -129 87 -243
228 -299 371 -59 147 -58 132 -69 1036 -5 460 -7 853 -3 874 13 69 18 70 511
62 413 -6 430 -7 450 -26 19 -20 20 -33 20 -269 0 -307 7 -291 -134 -291 -90
1 -133 10 -214 45 -17 7 -17 4 2 -46 25 -67 86 -124 191 -178 80 -42 123 -80
139 -123 5 -14 15 -138 20 -275 6 -136 14 -313 17 -392 l6 -144 64 6 c121 9
184 55 237 171 10 22 39 64 65 94 71 82 92 114 92 143 0 33 -14 45 -65 54 -57
11 -92 31 -109 63 -8 15 -19 86 -26 157 -24 271 -76 504 -210 950 -123 409
-113 384 -345 815 -239 445 -465 1025 -570 1465 -77 323 -125 739 -125 1099 0
225 13 332 65 545 51 206 84 265 259 454 164 177 247 233 426 287 227 68 397
86 530 54z m-4258 -105 c75 -20 73 -2 76 -641 2 -417 0 -568 -9 -568 -8 0 -9
-188 -5 -717 3 -395 9 -1682 12 -2861 4 -1631 3 -2150 -6 -2172 -15 -35 -40
-42 -95 -25 -37 11 -57 10 -127 -2 -70 -12 -98 -13 -181 -2 -76 10 -124 10
-220 1 -241 -24 -339 -13 -369 40 -10 18 -13 93 -13 331 l0 308 43 49 c23 26
42 56 42 65 0 10 -18 37 -40 61 l-40 44 0 279 0 279 43 53 c64 78 64 81 8 143
l-48 53 -6 94 c-2 52 -4 515 -3 1029 1 876 2 940 20 1009 13 53 16 84 10 110
-5 20 -9 230 -9 466 0 309 -4 460 -14 535 -11 83 -13 214 -8 635 l6 530 30 99
c17 54 31 110 31 125 0 14 -16 71 -35 126 -19 55 -35 112 -35 126 0 16 17 49
40 80 22 30 40 62 40 72 0 9 -18 40 -40 68 -22 28 -40 62 -40 75 0 21 23 90
32 96 2 1 170 5 373 8 204 3 399 6 435 8 36 1 82 -3 102 -9z m1258 1 c495 -9
564 -14 730 -60 92 -26 256 -103 341 -160 90 -62 209 -179 268 -265 99 -143
137 -262 151 -475 13 -194 13 -2048 0 -2215 -6 -71 -23 -195 -40 -274 -44
-212 -79 -270 -169 -274 -58 -2 -79 -31 -62 -86 27 -93 7 -140 -97 -223 -221
-179 -394 -260 -597 -279 -163 -16 -439 -49 -444 -54 -2 -3 -12 -107 -22 -231
-21 -271 -24 -280 -101 -270 -58 8 -78 -3 -78 -43 0 -65 22 -106 89 -168 l66
-62 3 -218 c8 -499 12 -440 -30 -524 -36 -72 -36 -75 -19 -94 10 -11 27 -36
37 -55 18 -32 19 -67 22 -440 3 -455 0 -480 -56 -513 -31 -18 -58 -19 -474
-19 -500 0 -470 -5 -483 84 -6 42 -4 50 18 72 15 14 37 26 50 26 43 0 48 42
12 99 -13 22 -35 68 -47 103 -22 60 -23 77 -23 343 0 154 -4 334 -9 401 -8
110 -7 127 12 190 20 67 21 71 4 114 -15 42 -17 178 -17 1830 l0 1785 21 40
c14 27 38 51 74 73 30 17 58 39 63 48 12 22 -17 52 -63 64 -47 13 -86 51 -94
91 -12 61 -7 1569 5 1592 13 24 32 38 64 49 28 9 338 8 895 -2z"/>
<path d="M11836 26459 c-19 -32 -16 -59 7 -59 20 0 36 41 26 68 -11 28 -11 28
-33 -9z"/>
<path d="M12231 26449 l-24 -20 21 -21 22 -22 25 24 c23 22 24 25 8 42 -20 22
-22 22 -52 -3z"/>
<path d="M11607 26272 l-36 -37 20 -33 c12 -17 22 -32 23 -32 1 0 21 19 44 43
l42 43 -28 27 -28 27 -37 -38z"/>
<path d="M12427 26249 c-10 -6 -15 -14 -12 -20 10 -14 45 -11 45 5 0 21 -12
26 -33 15z"/>
<path d="M11996 26215 c-42 -31 5 -58 59 -33 24 11 24 12 9 30 -20 21 -42 23
-68 3z"/>
<path d="M11462 26094 c-26 -18 -28 -36 -7 -54 12 -10 21 -8 45 7 l30 19 -23
22 c-21 20 -25 21 -45 6z"/>
<path d="M11020 26072 l-34 -29 23 -31 c12 -18 28 -32 35 -32 7 0 34 15 60 34
l48 34 -35 26 c-43 33 -55 33 -97 -2z"/>
<path d="M11857 26074 c-14 -14 -7 -35 11 -32 9 2 17 10 17 17 0 16 -18 25
-28 15z"/>
<path d="M12647 26053 c-12 -11 -8 -23 8 -23 8 0 15 7 15 15 0 16 -12 20 -23
8z"/>
<path d="M12235 26040 c4 -6 11 -8 16 -5 14 9 11 15 -7 15 -8 0 -12 -5 -9 -10z"/>
<path d="M10851 25896 l-22 -24 23 -16 c21 -15 24 -15 35 1 17 22 16 38 0 52
-11 8 -19 5 -36 -13z"/>
<path d="M12438 25888 c-38 -51 -40 -56 -28 -79 12 -21 13 -20 51 17 44 43 47
54 20 78 -17 16 -19 15 -43 -16z"/>
<path d="M12839 25864 l-24 -25 25 -19 c23 -18 25 -18 32 -2 10 24 9 60 -1 66
-4 3 -19 -6 -32 -20z"/>
<path d="M11650 25855 c0 -8 7 -15 15 -15 8 0 15 7 15 15 0 8 -7 15 -15 15 -8
0 -15 -7 -15 -15z"/>
<path d="M11410 25655 c-19 -20 -21 -27 -10 -40 16 -19 43 -19 82 1 l30 16
-35 24 c-20 13 -38 24 -40 24 -2 0 -14 -11 -27 -25z"/>
<path d="M11045 25650 c-18 -20 -18 -21 2 -42 l21 -21 17 33 c14 27 15 34 3
41 -19 12 -23 11 -43 -11z"/>
<path d="M12240 25635 c0 -8 5 -15 10 -15 6 0 10 7 10 15 0 8 -4 15 -10 15 -5
0 -10 -7 -10 -15z"/>
<path d="M10827 25484 c-22 -46 -21 -56 7 -83 l24 -22 21 34 c26 42 26 59 4
79 -33 28 -40 27 -56 -8z"/>
<path d="M11247 25480 c-15 -12 -24 -27 -21 -35 5 -13 10 -12 35 1 31 15 34
21 21 42 -7 10 -14 8 -35 -8z"/>
<path d="M12050 25060 c0 -5 5 -10 10 -10 6 0 10 5 10 10 0 6 -4 10 -10 10 -5
0 -10 -4 -10 -10z"/>
<path d="M12433 25043 c-15 -6 -17 -49 -3 -58 12 -7 44 41 35 55 -7 11 -13 11
-32 3z"/>
<path d="M12540 24866 c-47 -12 -94 -27 -105 -33 -11 -6 -45 -44 -75 -85 -38
-49 -75 -84 -114 -108 -32 -19 -61 -42 -66 -51 -15 -26 51 -139 80 -139 28 0
288 249 360 344 31 40 41 97 18 95 -7 0 -51 -10 -98 -23z"/>
<path d="M11645 24700 c-7 -11 12 -50 24 -50 5 0 19 9 32 20 21 17 22 21 9 30
-19 13 -57 13 -65 0z"/>
<path d="M10865 24669 c-10 -15 3 -25 16 -12 7 7 7 13 1 17 -6 3 -14 1 -17 -5z"/>
<path d="M10863 24292 c-7 -4 -9 -13 -5 -19 5 -8 13 -9 22 -3 10 6 11 13 5 19
-6 6 -16 7 -22 3z"/>
<path d="M11445 24080 c-8 -13 -1 -24 14 -19 6 3 7 10 2 18 -6 10 -10 10 -16
1z"/>
<path d="M11847 24073 c-4 -3 -7 -11 -7 -17 0 -6 5 -5 12 2 6 6 9 14 7 17 -3
3 -9 2 -12 -2z"/>
<path d="M11840 23675 c0 -8 9 -15 19 -15 10 0 21 7 25 15 4 11 -1 15 -19 15
-16 0 -25 -6 -25 -15z"/>
<path d="M11844 23299 c-10 -16 11 -32 34 -24 13 4 19 12 15 21 -6 16 -39 19
-49 3z"/>
<path d="M12246 22912 c-2 -4 -1 -14 4 -22 7 -11 12 -12 21 -3 6 6 8 16 5 22
-8 13 -23 14 -30 3z"/>
<path d="M11840 22489 c-20 -37 23 -66 50 -34 10 13 10 19 -5 35 -23 25 -32
25 -45 -1z"/>
<path d="M12040 22295 c0 -8 5 -15 10 -15 6 0 10 7 10 15 0 8 -4 15 -10 15 -5
0 -10 -7 -10 -15z"/>
<path d="M12437 22303 c-11 -10 -8 -20 8 -27 10 -4 15 1 15 14 0 20 -11 26
-23 13z"/>
<path d="M12216 22155 c-20 -48 -20 -58 3 -86 l18 -22 32 22 c17 12 31 25 31
27 0 5 -42 65 -61 88 -4 5 -15 -8 -23 -29z"/>
<path d="M11850 22105 c-11 -13 -10 -19 5 -35 17 -19 20 -19 34 -5 12 11 13
20 5 32 -15 24 -29 26 -44 8z"/>
<path d="M12435 21930 c-15 -16 -15 -22 -5 -35 17 -20 33 -19 54 3 15 18 15
20 -2 35 -23 21 -25 21 -47 -3z"/>
<path d="M12038 21914 c-11 -10 3 -34 19 -34 8 0 13 7 11 17 -3 18 -20 27 -30
17z"/>
<path d="M11463 21733 c-16 -6 -5 -33 13 -33 8 0 14 6 14 14 0 18 -11 25 -27
19z"/>
<path d="M12250 21715 c-10 -12 -10 -18 0 -30 16 -19 25 -19 45 2 16 16 16 17
-1 30 -23 17 -29 16 -44 -2z"/>
<path d="M12655 21700 c3 -5 10 -10 16 -10 5 0 9 5 9 10 0 6 -7 10 -16 10 -8
0 -12 -4 -9 -10z"/>
<path d="M10855 21500 c-3 -5 -2 -10 4 -10 5 0 13 5 16 10 3 6 2 10 -4 10 -5
0 -13 -4 -16 -10z"/>
<path d="M12222 21398 c-28 -38 -52 -76 -52 -83 0 -20 58 -65 83 -65 48 0 127
74 127 119 0 14 -59 74 -89 90 -13 8 -26 -4 -69 -61z"/>
<path d="M12026 21139 c-26 -20 -26 -22 -10 -40 21 -23 57 -24 90 -3 l25 17
-22 23 c-28 30 -48 30 -83 3z"/>
<path d="M11250 21100 c0 -5 5 -10 10 -10 6 0 10 5 10 10 0 6 -4 10 -10 10 -5
0 -10 -4 -10 -10z"/>
<path d="M12667 20914 c-11 -11 3 -24 18 -18 8 4 12 10 9 15 -6 11 -18 12 -27
3z"/>
<path d="M12638 20534 c-11 -10 3 -34 19 -34 8 0 13 7 11 17 -3 18 -20 27 -30
17z"/>
<path d="M12429 20331 c-22 -17 -22 -21 -10 -45 18 -33 38 -32 80 4 l33 28
-30 16 c-39 20 -45 20 -73 -3z"/>
<path d="M12030 20318 c-18 -20 -19 -23 -3 -40 21 -23 34 -23 67 3 32 26 33
33 1 47 -35 16 -41 15 -65 -10z"/>
<path d="M12252 20148 c-17 -17 -15 -45 4 -52 18 -7 57 21 48 35 -11 19 -41
28 -52 17z"/>
<path d="M11454 20127 c-8 -22 -1 -30 21 -25 14 3 14 5 1 23 -14 19 -15 19
-22 2z"/>
<path d="M11860 20125 c0 -8 7 -15 15 -15 8 0 15 7 15 15 0 8 -7 15 -15 15 -8
0 -15 -7 -15 -15z"/>
<path d="M12422 19958 c-19 -19 -14 -42 14 -68 21 -21 27 -22 35 -10 29 44 30
49 9 70 -23 23 -41 25 -58 8z"/>
<path d="M11240 19920 c0 -5 4 -10 9 -10 6 0 13 5 16 10 3 6 -1 10 -9 10 -9 0
-16 -4 -16 -10z"/>
<path d="M11640 19915 c0 -8 7 -15 15 -15 8 0 15 7 15 15 0 8 -7 15 -15 15 -8
0 -15 -7 -15 -15z"/>
<path d="M11061 19731 c-18 -11 -5 -31 20 -31 12 0 19 7 19 20 0 21 -16 26
-39 11z"/>
<path d="M11657 19534 c-13 -13 -7 -24 14 -24 11 0 19 5 17 12 -5 14 -22 21
-31 12z"/>
<path d="M18276 26459 c-19 -32 -16 -59 7 -59 20 0 36 41 26 68 -11 28 -11 28
-33 -9z"/>
<path d="M18671 26449 l-24 -20 21 -21 22 -22 25 24 c23 22 24 25 8 42 -20 22
-22 22 -52 -3z"/>
<path d="M18047 26272 l-36 -37 20 -33 c12 -17 22 -32 23 -32 1 0 21 19 44 43
l42 43 -28 27 -28 27 -37 -38z"/>
<path d="M18867 26249 c-10 -6 -15 -14 -12 -20 10 -14 45 -11 45 5 0 21 -12
26 -33 15z"/>
<path d="M18436 26215 c-42 -31 5 -58 59 -33 24 11 24 12 9 30 -20 21 -42 23
-68 3z"/>
<path d="M17902 26094 c-26 -18 -28 -36 -7 -54 12 -10 21 -8 45 7 l30 19 -23
22 c-21 20 -25 21 -45 6z"/>
<path d="M17460 26072 l-34 -29 23 -31 c12 -18 28 -32 35 -32 7 0 34 15 60 34
l48 34 -35 26 c-43 33 -55 33 -97 -2z"/>
<path d="M18297 26074 c-14 -14 -7 -35 11 -32 9 2 17 10 17 17 0 16 -18 25
-28 15z"/>
<path d="M19087 26053 c-12 -11 -8 -23 8 -23 8 0 15 7 15 15 0 16 -12 20 -23
8z"/>
<path d="M18675 26040 c4 -6 11 -8 16 -5 14 9 11 15 -7 15 -8 0 -12 -5 -9 -10z"/>
<path d="M17291 25896 l-22 -24 23 -16 c21 -15 24 -15 35 1 17 22 16 38 0 52
-11 8 -19 5 -36 -13z"/>
<path d="M18878 25888 c-38 -51 -40 -56 -28 -79 12 -21 13 -20 51 17 44 43 47
54 20 78 -17 16 -19 15 -43 -16z"/>
<path d="M19279 25864 l-24 -25 25 -19 c23 -18 25 -18 32 -2 10 24 9 60 -1 66
-4 3 -19 -6 -32 -20z"/>
<path d="M18090 25855 c0 -8 7 -15 15 -15 8 0 15 7 15 15 0 8 -7 15 -15 15 -8
0 -15 -7 -15 -15z"/>
<path d="M17850 25655 c-19 -20 -21 -27 -10 -40 16 -19 43 -19 82 1 l30 16
-35 24 c-20 13 -38 24 -40 24 -2 0 -14 -11 -27 -25z"/>
<path d="M17485 25650 c-18 -20 -18 -21 2 -42 l21 -21 17 33 c14 27 15 34 3
41 -19 12 -23 11 -43 -11z"/>
<path d="M18680 25635 c0 -8 5 -15 10 -15 6 0 10 7 10 15 0 8 -4 15 -10 15 -5
0 -10 -7 -10 -15z"/>
<path d="M17267 25484 c-22 -46 -21 -56 7 -83 l24 -22 21 34 c26 42 26 59 4
79 -33 28 -40 27 -56 -8z"/>
<path d="M17687 25480 c-15 -12 -24 -27 -21 -35 5 -13 10 -12 35 1 31 15 34
21 21 42 -7 10 -14 8 -35 -8z"/>
<path d="M18490 25060 c0 -5 5 -10 10 -10 6 0 10 5 10 10 0 6 -4 10 -10 10 -5
0 -10 -4 -10 -10z"/>
<path d="M18873 25043 c-15 -6 -17 -49 -3 -58 12 -7 44 41 35 55 -7 11 -13 11
-32 3z"/>
<path d="M18980 24866 c-47 -12 -94 -27 -105 -33 -11 -6 -45 -44 -75 -85 -38
-49 -75 -84 -114 -108 -32 -19 -61 -42 -66 -51 -15 -26 51 -139 80 -139 28 0
288 249 360 344 31 40 41 97 18 95 -7 0 -51 -10 -98 -23z"/>
<path d="M18085 24700 c-7 -11 12 -50 24 -50 5 0 19 9 32 20 21 17 22 21 9 30
-19 13 -57 13 -65 0z"/>
<path d="M17305 24669 c-10 -15 3 -25 16 -12 7 7 7 13 1 17 -6 3 -14 1 -17 -5z"/>
<path d="M17303 24292 c-7 -4 -9 -13 -5 -19 5 -8 13 -9 22 -3 10 6 11 13 5 19
-6 6 -16 7 -22 3z"/>
<path d="M17885 24080 c-8 -13 -1 -24 14 -19 6 3 7 10 2 18 -6 10 -10 10 -16
1z"/>
<path d="M18287 24073 c-4 -3 -7 -11 -7 -17 0 -6 5 -5 12 2 6 6 9 14 7 17 -3
3 -9 2 -12 -2z"/>
<path d="M18280 23675 c0 -8 9 -15 19 -15 10 0 21 7 25 15 4 11 -1 15 -19 15
-16 0 -25 -6 -25 -15z"/>
<path d="M18284 23299 c-10 -16 11 -32 34 -24 13 4 19 12 15 21 -6 16 -39 19
-49 3z"/>
<path d="M18686 22912 c-2 -4 -1 -14 4 -22 7 -11 12 -12 21 -3 6 6 8 16 5 22
-8 13 -23 14 -30 3z"/>
<path d="M18280 22489 c-20 -37 23 -66 50 -34 10 13 10 19 -5 35 -23 25 -32
25 -45 -1z"/>
<path d="M18480 22295 c0 -8 5 -15 10 -15 6 0 10 7 10 15 0 8 -4 15 -10 15 -5
0 -10 -7 -10 -15z"/>
<path d="M18877 22303 c-11 -10 -8 -20 8 -27 10 -4 15 1 15 14 0 20 -11 26
-23 13z"/>
<path d="M18656 22155 c-20 -48 -20 -58 3 -86 l18 -22 32 22 c17 12 31 25 31
27 0 5 -42 65 -61 88 -4 5 -15 -8 -23 -29z"/>
<path d="M18290 22105 c-11 -13 -10 -19 5 -35 17 -19 20 -19 34 -5 12 11 13
20 5 32 -15 24 -29 26 -44 8z"/>
<path d="M18875 21930 c-15 -16 -15 -22 -5 -35 17 -20 33 -19 54 3 15 18 15
20 -2 35 -23 21 -25 21 -47 -3z"/>
<path d="M18478 21914 c-11 -10 3 -34 19 -34 8 0 13 7 11 17 -3 18 -20 27 -30
17z"/>
<path d="M17903 21733 c-16 -6 -5 -33 13 -33 8 0 14 6 14 14 0 18 -11 25 -27
19z"/>
<path d="M18690 21715 c-10 -12 -10 -18 0 -30 16 -19 25 -19 45 2 16 16 16 17
-1 30 -23 17 -29 16 -44 -2z"/>
<path d="M19095 21700 c3 -5 10 -10 16 -10 5 0 9 5 9 10 0 6 -7 10 -16 10 -8
0 -12 -4 -9 -10z"/>
<path d="M17295 21500 c-3 -5 -2 -10 4 -10 5 0 13 5 16 10 3 6 2 10 -4 10 -5
0 -13 -4 -16 -10z"/>
<path d="M18662 21398 c-28 -38 -52 -76 -52 -83 0 -20 58 -65 83 -65 48 0 127
74 127 119 0 14 -59 74 -89 90 -13 8 -26 -4 -69 -61z"/>
<path d="M18466 21139 c-26 -20 -26 -22 -10 -40 21 -23 57 -24 90 -3 l25 17
-22 23 c-28 30 -48 30 -83 3z"/>
<path d="M17690 21100 c0 -5 5 -10 10 -10 6 0 10 5 10 10 0 6 -4 10 -10 10 -5
0 -10 -4 -10 -10z"/>
<path d="M19107 20914 c-11 -11 3 -24 18 -18 8 4 12 10 9 15 -6 11 -18 12 -27
3z"/>
<path d="M19078 20534 c-11 -10 3 -34 19 -34 8 0 13 7 11 17 -3 18 -20 27 -30
17z"/>
<path d="M18869 20331 c-22 -17 -22 -21 -10 -45 18 -33 38 -32 80 4 l33 28
-30 16 c-39 20 -45 20 -73 -3z"/>
<path d="M18470 20318 c-18 -20 -19 -23 -3 -40 21 -23 34 -23 67 3 32 26 33
33 1 47 -35 16 -41 15 -65 -10z"/>
<path d="M18692 20148 c-17 -17 -15 -45 4 -52 18 -7 57 21 48 35 -11 19 -41
28 -52 17z"/>
<path d="M17894 20127 c-8 -22 -1 -30 21 -25 14 3 14 5 1 23 -14 19 -15 19
-22 2z"/>
<path d="M18300 20125 c0 -8 7 -15 15 -15 8 0 15 7 15 15 0 8 -7 15 -15 15 -8
0 -15 -7 -15 -15z"/>
<path d="M18862 19958 c-19 -19 -14 -42 14 -68 21 -21 27 -22 35 -10 29 44 30
49 9 70 -23 23 -41 25 -58 8z"/>
<path d="M17680 19920 c0 -5 4 -10 9 -10 6 0 13 5 16 10 3 6 -1 10 -9 10 -9 0
-16 -4 -16 -10z"/>
<path d="M18080 19915 c0 -8 7 -15 15 -15 8 0 15 7 15 15 0 8 -7 15 -15 15 -8
0 -15 -7 -15 -15z"/>
<path d="M17501 19731 c-18 -11 -5 -31 20 -31 12 0 19 7 19 20 0 21 -16 26
-39 11z"/>
<path d="M18097 19534 c-13 -13 -7 -24 14 -24 11 0 19 5 17 12 -5 14 -22 21
-31 12z"/>
<path d="M13441 26504 c0 -11 3 -14 6 -6 3 7 2 16 -1 19 -3 4 -6 -2 -5 -13z"/>
<path d="M13814 25726 c-15 -24 -15 -27 6 -56 27 -38 36 -38 44 1 9 48 8 57
-14 69 -16 9 -22 6 -36 -14z"/>
<path d="M13631 25506 c-9 -10 -8 -15 3 -19 16 -6 40 16 29 26 -10 11 -19 8
-32 -7z"/>
<path d="M14015 25500 c-3 -5 -1 -10 4 -10 6 0 11 5 11 10 0 6 -2 10 -4 10 -3
0 -8 -4 -11 -10z"/>
<path d="M13816 25331 c-8 -12 21 -34 33 -27 6 4 8 13 4 21 -6 17 -29 20 -37
6z"/>
<path d="M13247 25113 c-13 -12 -7 -23 13 -23 11 0 20 7 20 15 0 15 -21 21
-33 8z"/>
<path d="M14005 25100 c-3 -5 -2 -10 4 -10 5 0 13 5 16 10 3 6 2 10 -4 10 -5
0 -13 -4 -16 -10z"/>
<path d="M14006 24734 c-7 -19 19 -54 40 -54 12 0 40 38 32 45 -9 8 -48 25
-56 25 -6 0 -13 -7 -16 -16z"/>
<path d="M14053 24325 c-36 -55 -25 -85 20 -51 17 14 21 38 9 68 -6 14 -11 11
-29 -17z"/>
<path d="M13615 24321 c-6 -11 9 -23 19 -14 9 9 7 23 -3 23 -6 0 -12 -4 -16
-9z"/>
<path d="M13615 23520 c-3 -6 1 -7 9 -4 18 7 21 14 7 14 -6 0 -13 -4 -16 -10z"/>
<path d="M13810 23381 c-10 -25 -10 -37 0 -61 14 -34 26 -37 52 -14 17 16 17
18 -4 53 -32 54 -34 55 -48 22z"/>
<path d="M14022 23141 c-10 -6 -9 -11 3 -21 11 -9 19 -10 26 -3 13 13 -12 35
-29 24z"/>
<path d="M13452 22964 c-12 -8 -22 -21 -22 -29 0 -22 54 -27 169 -15 94 10
114 9 146 -4 46 -19 69 -20 84 -3 8 10 7 18 -2 30 -9 13 -40 19 -127 27 -163
14 -222 13 -248 -6z"/>
<path d="M14003 22734 c-3 -8 1 -23 10 -32 15 -14 18 -14 37 3 l21 19 -23 13
c-30 16 -37 16 -45 -3z"/>
<path d="M14010 22335 c0 -16 16 -20 24 -6 3 5 -1 11 -9 15 -9 3 -15 0 -15 -9z"/>
<path d="M14017 21952 c-20 -22 -21 -34 -6 -49 9 -9 19 -8 41 3 27 14 28 17
15 37 -19 29 -30 31 -50 9z"/>
<path d="M13830 21750 c0 -13 18 -22 24 -11 3 5 -1 11 -9 15 -8 3 -15 1 -15
-4z"/>
<path d="M13997 21562 c-26 -27 -26 -29 -10 -44 32 -27 40 -28 71 -4 l31 23
-27 26 c-16 15 -30 27 -33 27 -3 0 -17 -13 -32 -28z"/>
<path d="M13615 21540 c-3 -5 -2 -10 4 -10 5 0 13 5 16 10 3 6 2 10 -4 10 -5
0 -13 -4 -16 -10z"/>
<path d="M13406 21361 c-8 -13 4 -41 18 -41 6 0 19 7 29 15 18 13 18 14 -2 24
-24 13 -38 14 -45 2z"/>
<path d="M13814 21359 c-10 -17 13 -36 27 -22 12 12 4 33 -11 33 -5 0 -12 -5
-16 -11z"/>
<path d="M13620 21145 c0 -8 7 -15 15 -15 8 0 15 7 15 15 0 8 -7 15 -15 15 -8
0 -15 -7 -15 -15z"/>
<path d="M13428 20943 c7 -3 16 -2 19 1 4 3 -2 6 -13 5 -11 0 -14 -3 -6 -6z"/>
<path d="M14006 20781 c-10 -16 6 -42 21 -37 8 3 17 6 19 6 3 0 0 9 -6 20 -11
21 -25 26 -34 11z"/>
<path d="M13422 20561 c-29 -15 -31 -19 -19 -35 10 -14 21 -17 45 -11 40 8 44
16 24 42 -17 21 -18 21 -50 4z"/>
<path d="M13606 20383 c-4 -9 0 -23 8 -31 12 -13 19 -13 46 -2 l32 13 -23 18
c-30 23 -55 24 -63 2z"/>
<path d="M14010 20368 c0 -7 7 -21 15 -31 13 -18 14 -18 25 2 6 12 8 26 5 31
-9 14 -45 12 -45 -2z"/>
<path d="M14020 19991 c-14 -44 -8 -61 22 -61 18 0 20 4 15 41 -8 59 -21 67
-37 20z"/>
<path d="M16596 25902 c-2 -4 -1 -14 4 -21 10 -17 31 -5 23 14 -6 16 -19 20
-27 7z"/>
<path d="M15460 25652 c-23 -18 -24 -27 -31 -156 -4 -83 -12 -142 -19 -151
-18 -22 -47 -18 -85 11 -73 56 -162 2 -173 -104 -6 -66 24 -101 118 -137 74
-28 111 -62 129 -117 27 -86 31 -218 31 -999 0 -914 -4 -869 72 -890 65 -17
178 -7 223 21 47 29 90 89 112 154 16 46 18 142 23 1041 4 775 8 995 18 1012
22 39 47 45 147 38 108 -8 119 -5 103 31 -8 18 -41 41 -108 74 -52 26 -124 69
-159 95 -103 76 -139 89 -266 93 -98 4 -113 2 -135 -16z"/>
<path d="M16473 25620 c-60 -36 -57 -89 9 -163 l43 -48 55 71 c30 38 56 76 58
84 2 8 -14 28 -35 45 -44 36 -83 40 -130 11z"/>
<path d="M15158 24928 c-36 -13 -35 -20 6 -42 34 -18 35 -18 76 5 37 21 40 25
24 36 -21 15 -67 16 -106 1z"/>
<path d="M16747 24574 c-9 -10 2 -24 18 -24 9 0 12 6 9 15 -6 16 -17 19 -27 9z"/>
<path d="M16590 24501 c5 -11 15 -23 20 -26 14 -9 12 19 -2 33 -19 19 -30 14
-18 -7z"/>
<path d="M16633 24420 c7 -54 31 -88 74 -106 38 -16 68 -12 77 12 9 23 -100
134 -132 134 -23 0 -24 -3 -19 -40z"/>
<path d="M15066 24254 c-47 -25 -48 -26 -27 -41 24 -16 21 -17 78 17 76 45 30
66 -51 24z"/>
<path d="M16380 24137 c-117 -43 -150 -59 -144 -68 11 -18 179 -96 219 -102
52 -8 110 8 130 36 21 30 19 99 -4 128 -28 34 -116 37 -201 6z"/>
<path d="M16128 23092 l-58 -27 50 -57 c45 -50 55 -57 100 -63 46 -6 53 -4 90
25 22 17 40 36 40 42 0 6 -22 33 -49 59 -58 59 -86 62 -173 21z"/>
<path d="M14613 22999 c-18 -12 -33 -24 -33 -29 0 -4 23 -17 51 -29 47 -21 52
-21 75 -6 31 20 31 25 -10 58 -42 32 -42 32 -83 6z"/>
<path d="M15253 22684 c-25 -11 -14 -62 21 -97 53 -53 113 -57 168 -11 l27 22
-20 26 c-26 33 -162 75 -196 60z"/>
<path d="M15060 22243 c-32 -12 -64 -51 -96 -118 -39 -80 -41 -75 50 -122 104
-53 223 -38 246 32 13 39 6 76 -26 132 -34 60 -118 97 -174 76z"/>
<path d="M14858 21985 c-31 -30 -61 -68 -67 -85 l-10 -31 37 7 c68 12 102 31
117 67 14 35 8 88 -11 94 -5 2 -35 -22 -66 -52z"/>
<path d="M14696 21973 c-12 -12 -6 -33 9 -33 8 0 15 6 15 14 0 17 -14 28 -24
19z"/>
<path d="M15155 21740 c-3 -6 6 -15 20 -20 41 -16 52 -11 25 10 -29 22 -36 24
-45 10z"/>
<path d="M14721 21646 c-9 -11 -7 -20 12 -41 21 -24 26 -26 44 -15 l21 14 -21
28 c-23 31 -39 35 -56 14z"/>
<path d="M14652 21343 c-9 -30 -9 -40 1 -51 11 -10 17 -9 31 7 16 18 16 21 1
50 -8 17 -17 31 -19 31 -1 0 -8 -17 -14 -37z"/>
<path d="M14511 21190 c-9 -28 -8 -38 5 -58 14 -22 18 -23 31 -9 17 17 13 50
-10 81 -13 18 -15 17 -26 -14z"/>
<path d="M14790 21196 c0 -10 9 -16 21 -16 24 0 21 23 -4 28 -10 2 -17 -3 -17
-12z"/>
<path d="M14545 20821 c-3 -5 -1 -12 5 -16 12 -7 30 2 30 16 0 12 -27 12 -35
0z"/>
<path d="M15176 20620 c-33 -50 -33 -80 1 -131 l27 -41 33 39 c56 65 56 100
-1 145 l-34 27 -26 -39z"/>
<path d="M15097 20072 c-43 -44 -33 -98 23 -127 16 -8 39 -15 51 -15 24 0 99
47 99 61 0 12 -119 109 -134 109 -7 0 -24 -13 -39 -28z"/>
<path d="M11316 18439 c-198 -29 -431 -124 -586 -240 -223 -167 -350 -389
-401 -704 -8 -50 -13 -594 -16 -1868 l-5 -1798 36 -34 c41 -39 50 -89 17 -100
-10 -3 -27 -15 -37 -26 -18 -19 -18 -43 -16 -437 3 -498 17 -872 37 -1025 38
-293 123 -484 290 -652 164 -166 334 -247 640 -306 44 -9 135 -14 245 -13 155
1 186 4 273 27 443 118 763 503 817 982 6 54 10 432 10 936 0 820 -1 848 -21
924 l-20 78 23 91 c22 85 23 106 19 336 -7 418 -6 524 3 890 7 274 6 361 -3
378 -15 29 -56 45 -94 36 -36 -8 -51 -41 -72 -160 -8 -48 -21 -94 -28 -102
-20 -25 -96 -54 -123 -48 -13 4 -31 18 -40 31 -21 32 -9 85 45 200 44 95 90
139 180 173 75 29 115 73 130 142 14 65 15 848 1 884 -8 22 -16 26 -48 26 -21
0 -72 -11 -112 -25 -92 -31 -111 -31 -149 1 -39 33 -41 77 -6 151 33 73 69 93
165 93 132 0 161 33 141 163 -24 158 -86 308 -218 525 -86 142 -136 200 -226
261 -262 176 -566 251 -851 210z m-577 -848 l24 -18 -24 -32 c-12 -17 -26 -31
-29 -31 -3 0 -18 13 -33 28 -25 26 -26 29 -11 50 18 27 41 28 73 3z m778 -57
c50 -24 80 -71 103 -159 24 -95 26 -231 9 -880 -10 -384 -9 -492 6 -850 15
-345 15 -440 5 -600 -12 -193 -18 -759 -23 -2125 -2 -565 -6 -760 -15 -777
-14 -26 -40 -31 -106 -21 -69 10 -135 54 -166 108 l-25 45 0 440 c0 242 4
1266 9 2275 8 1685 7 1850 -9 2021 -18 203 -13 289 25 413 21 68 37 87 90 110
45 19 55 19 97 0z m-317 -234 c11 -7 12 -14 4 -27 -13 -21 -25 -25 -42 -14
-12 7 -12 12 -1 30 16 24 18 24 39 11z m-583 -559 c20 -26 21 -30 7 -49 -19
-28 -59 -28 -78 0 -14 19 -13 24 5 50 25 35 38 35 66 -1z m1749 -286 c21 -33
29 -97 14 -124 -6 -13 -32 -32 -58 -43 -63 -28 -161 -25 -342 10 -162 32 -171
39 -123 92 32 36 93 53 155 43 47 -7 233 15 273 32 45 20 63 18 81 -10z
m-1756 -550 c0 -19 -20 -29 -32 -17 -15 15 -2 43 17 36 8 -3 15 -12 15 -19z
m1160 -415 c0 -5 -4 -10 -10 -10 -5 0 -10 5 -10 10 0 6 5 10 10 10 6 0 10 -4
10 -10z m547 -1202 c-3 -8 -6 -5 -6 6 -1 11 2 17 5 13 3 -3 4 -12 1 -19z
m-1917 -164 c0 -16 -16 -19 -25 -4 -8 13 4 32 16 25 5 -4 9 -13 9 -21z m208
-182 c9 -6 6 -14 -11 -30 -21 -20 -25 -21 -37 -7 -25 30 12 59 48 37z m175
-221 c3 -13 -3 -22 -20 -30 -21 -9 -25 -8 -32 12 -5 14 -4 25 3 29 20 14 44 8
49 -11z m391 -12 c-8 -13 -24 -1 -24 18 0 13 3 13 15 3 8 -7 12 -16 9 -21z
m704 -1019 c13 -16 19 -30 15 -30 -7 0 -39 19 -62 36 -5 4 9 24 18 24 4 0 17
-13 29 -30z m82 -130 c-25 -16 -30 -12 -30 22 l0 32 23 -22 c19 -19 20 -24 7
-32z m-1174 -17 c-7 -7 -26 7 -26 19 0 6 6 6 15 -2 9 -7 13 -15 11 -17z m259
-113 c18 -20 18 -21 -3 -43 -21 -20 -23 -20 -39 -5 -14 14 -15 22 -5 43 14 30
23 31 47 5z"/>
<path d="M23396 18439 c-198 -29 -431 -124 -586 -240 -223 -167 -350 -389
-401 -704 -8 -50 -13 -594 -16 -1868 l-5 -1798 36 -34 c41 -39 50 -89 17 -100
-10 -3 -27 -15 -37 -26 -18 -19 -18 -43 -16 -437 3 -498 17 -872 37 -1025 38
-293 123 -484 290 -652 164 -166 334 -247 640 -306 44 -9 135 -14 245 -13 155
1 186 4 273 27 443 118 763 503 817 982 6 54 10 432 10 936 0 820 -1 848 -21
924 l-20 78 23 91 c22 85 23 106 19 336 -7 418 -6 524 3 890 7 274 6 361 -3
378 -15 29 -56 45 -94 36 -36 -8 -51 -41 -72 -160 -8 -48 -21 -94 -28 -102
-20 -25 -96 -54 -123 -48 -13 4 -31 18 -40 31 -21 32 -9 85 45 200 44 95 90
139 180 173 75 29 115 73 130 142 14 65 15 848 1 884 -8 22 -16 26 -48 26 -21
0 -72 -11 -112 -25 -92 -31 -111 -31 -149 1 -39 33 -41 77 -6 151 33 73 69 93
165 93 132 0 161 33 141 163 -24 158 -86 308 -218 525 -86 142 -136 200 -226
261 -262 176 -566 251 -851 210z m-577 -848 l24 -18 -24 -32 c-12 -17 -26 -31
-29 -31 -3 0 -18 13 -33 28 -25 26 -26 29 -11 50 18 27 41 28 73 3z m778 -57
c50 -24 80 -71 103 -159 24 -95 26 -231 9 -880 -10 -384 -9 -492 6 -850 15
-345 15 -440 5 -600 -12 -193 -18 -759 -23 -2125 -2 -565 -6 -760 -15 -777
-14 -26 -40 -31 -106 -21 -69 10 -135 54 -166 108 l-25 45 0 440 c0 242 4
1266 9 2275 8 1685 7 1850 -9 2021 -18 203 -13 289 25 413 21 68 37 87 90 110
45 19 55 19 97 0z m-317 -234 c11 -7 12 -14 4 -27 -13 -21 -25 -25 -42 -14
-12 7 -12 12 -1 30 16 24 18 24 39 11z m-583 -559 c20 -26 21 -30 7 -49 -19
-28 -59 -28 -78 0 -14 19 -13 24 5 50 25 35 38 35 66 -1z m1749 -286 c21 -33
29 -97 14 -124 -6 -13 -32 -32 -58 -43 -63 -28 -161 -25 -342 10 -162 32 -171
39 -123 92 32 36 93 53 155 43 47 -7 233 15 273 32 45 20 63 18 81 -10z
m-1756 -550 c0 -19 -20 -29 -32 -17 -15 15 -2 43 17 36 8 -3 15 -12 15 -19z
m1160 -415 c0 -5 -4 -10 -10 -10 -5 0 -10 5 -10 10 0 6 5 10 10 10 6 0 10 -4
10 -10z m547 -1202 c-3 -8 -6 -5 -6 6 -1 11 2 17 5 13 3 -3 4 -12 1 -19z
m-1917 -164 c0 -16 -16 -19 -25 -4 -8 13 4 32 16 25 5 -4 9 -13 9 -21z m208
-182 c9 -6 6 -14 -11 -30 -21 -20 -25 -21 -37 -7 -25 30 12 59 48 37z m175
-221 c3 -13 -3 -22 -20 -30 -21 -9 -25 -8 -32 12 -5 14 -4 25 3 29 20 14 44 8
49 -11z m391 -12 c-8 -13 -24 -1 -24 18 0 13 3 13 15 3 8 -7 12 -16 9 -21z
m704 -1019 c13 -16 19 -30 15 -30 -7 0 -39 19 -62 36 -5 4 9 24 18 24 4 0 17
-13 29 -30z m82 -130 c-25 -16 -30 -12 -30 22 l0 32 23 -22 c19 -19 20 -24 7
-32z m-1174 -17 c-7 -7 -26 7 -26 19 0 6 6 6 15 -2 9 -7 13 -15 11 -17z m259
-113 c18 -20 18 -21 -3 -43 -21 -20 -23 -20 -39 -5 -14 14 -15 22 -5 43 14 30
23 31 47 5z"/>
<path d="M5503 18335 c-11 -8 -23 -25 -26 -37 -4 -13 -22 -228 -42 -478 -40
-520 -46 -581 -120 -1345 -70 -717 -103 -1084 -220 -2420 -53 -599 -113 -1283
-135 -1520 -104 -1126 -104 -1132 -87 -1159 14 -20 27 -25 79 -31 89 -9 859
-1 881 9 10 5 23 20 28 33 5 13 22 270 39 571 44 799 47 837 60 863 7 13 18
27 24 31 6 4 77 8 157 8 131 0 149 -2 171 -20 14 -11 28 -32 31 -47 3 -15 20
-296 37 -623 17 -327 35 -605 40 -618 6 -14 22 -25 40 -28 39 -8 40 -39 4
-100 -25 -43 -26 -47 -10 -62 15 -15 61 -17 451 -20 238 -2 448 1 467 6 68 17
69 -31 -21 907 -45 468 -104 1064 -132 1325 -54 521 -137 1380 -254 2620 -80
850 -191 1985 -201 2059 -4 27 -16 54 -30 68 l-23 23 -593 0 c-507 0 -597 -2
-615 -15z m686 -2665 c18 -316 45 -813 61 -1104 31 -541 37 -747 24 -779 -10
-27 -46 -37 -137 -37 -93 0 -127 13 -138 52 -7 28 115 2401 127 2465 l7 38 13
-30 c7 -19 24 -250 43 -605z"/>
<path d="M7670 18332 c-16 -13 -25 -34 -31 -73 -19 -138 -2 -6327 19 -6759 l7
-145 70 -8 c39 -5 320 -6 625 -3 690 6 838 17 1030 78 274 87 471 256 595 511
105 217 108 259 108 1467 0 850 -2 999 -16 1085 -20 126 -59 262 -97 341 -33
68 -123 171 -200 230 -27 21 -53 46 -56 57 -4 12 11 47 44 100 171 281 228
494 238 887 8 334 -12 1254 -30 1365 -52 319 -176 528 -396 670 -136 88 -281
148 -455 188 -85 20 -126 21 -761 24 -645 4 -671 3 -694 -15z m1280 -87 c13
-16 6 -35 -15 -35 -16 0 -38 34 -28 44 11 10 30 7 43 -9z m-810 -9 c0 -3 -4
-8 -10 -11 -5 -3 -10 -1 -10 4 0 6 5 11 10 11 6 0 10 -2 10 -4z m410 -390 c0
-3 -4 -8 -10 -11 -5 -3 -10 -1 -10 4 0 6 5 11 10 11 6 0 10 -2 10 -4z m800
-17 c0 -5 -4 -9 -10 -9 -5 0 -10 7 -10 16 0 8 5 12 10 9 6 -3 10 -10 10 -16z
m-1583 -15 c-9 -9 -28 6 -21 18 4 6 10 6 17 -1 6 -6 8 -13 4 -17z m394 11 c-1
-15 -24 -12 -29 3 -3 9 2 13 12 10 10 -1 17 -7 17 -13z m-193 -182 c-2 -10
-10 -18 -18 -18 -8 0 -16 8 -18 18 -2 12 3 17 18 17 15 0 20 -5 18 -17z m939
-197 c18 -9 40 -28 49 -42 42 -63 44 -104 44 -909 -1 -435 -5 -803 -10 -845
-15 -116 -38 -179 -82 -221 -58 -56 -160 -85 -209 -59 -48 26 -47 0 -51 1052
-3 960 -3 986 16 1007 11 12 33 26 50 31 45 14 156 6 193 -14z m448 -806 c0
-13 -6 -25 -12 -27 -16 -6 -27 21 -19 43 9 23 31 11 31 -16z m588 -185 c4 -8
2 -17 -4 -21 -12 -7 -41 15 -33 27 8 14 31 11 37 -6z m-3 -405 c0 -5 -4 -10
-10 -10 -5 0 -10 5 -10 10 0 6 5 10 10 10 6 0 10 -4 10 -10z m-206 -207 c-19
-14 -34 -9 -34 12 0 18 22 25 38 12 11 -9 11 -13 -4 -24z m-376 -4 c-16 -10
-33 5 -23 21 5 8 11 8 21 -1 12 -10 12 -14 2 -20z m-387 -1379 c46 -13 85 -55
98 -105 6 -26 11 -384 13 -990 l3 -950 -24 -45 c-50 -96 -124 -149 -220 -157
-78 -7 -148 20 -176 67 -20 35 -20 48 -23 1020 -2 542 0 1018 3 1059 6 60 12
79 32 99 25 25 27 25 142 19 64 -4 132 -11 152 -17z m-921 -2925 c0 -8 -4 -15
-10 -15 -5 0 -10 7 -10 15 0 8 5 15 10 15 6 0 10 -7 10 -15z"/>
<path d="M12871 18324 c-21 -27 -21 -30 -23 -1173 -3 -2376 1 -4085 11 -4156
15 -98 13 -182 -5 -337 -21 -181 -6 -351 48 -537 19 -66 27 -77 69 -110 62
-47 69 -65 62 -150 l-6 -70 44 -57 c68 -88 282 -304 301 -304 15 0 16 7 11 49
-5 48 -5 48 33 67 55 28 73 59 81 137 8 91 28 117 90 117 83 0 143 -48 143
-113 0 -13 -14 -66 -30 -116 -34 -103 -43 -238 -18 -268 26 -32 82 -45 247
-55 267 -17 418 9 616 107 347 171 571 505 616 914 8 76 9 197 3 426 -10 364
-9 692 3 1040 5 135 4 448 -1 715 -6 311 -5 649 2 980 7 354 7 533 0 600 -14
121 -16 655 -4 1090 8 324 8 338 -13 419 l-21 84 21 56 c28 76 34 170 20 332
-9 94 -9 154 -2 198 6 39 7 71 1 87 -20 51 -45 54 -477 53 -427 0 -450 -3
-486 -50 -18 -25 -19 -51 -25 -375 -7 -404 -7 -453 9 -709 12 -192 7 -357 -12
-430 -6 -23 -12 -189 -14 -380 -3 -288 -1 -347 12 -389 16 -49 15 -55 -3 -291
-5 -61 -2 -85 25 -170 30 -97 31 -99 12 -119 -10 -12 -24 -31 -30 -44 -16 -30
-15 -836 0 -1017 9 -100 9 -155 -1 -240 -11 -95 -10 -120 4 -187 14 -70 15
-103 1 -375 -10 -189 -15 -462 -14 -748 2 -473 -3 -550 -42 -627 -26 -51 -73
-81 -118 -74 -57 9 -231 140 -231 174 0 10 16 31 36 47 l36 30 3 505 c3 443 1
509 -12 538 -9 19 -24 39 -35 45 -24 16 -23 28 12 97 l30 59 0 261 0 261 -37
70 -37 70 39 76 39 76 0 231 c1 127 -4 267 -9 311 -6 47 -7 121 -2 180 4 55 6
295 5 534 -3 414 -4 434 -22 445 -50 29 -86 69 -86 96 0 27 40 72 87 99 17 9
18 27 16 237 -2 261 -8 291 -73 343 -52 42 -53 78 -5 141 64 83 69 92 76 149
5 31 9 149 10 262 1 177 -2 212 -16 243 -10 20 -26 41 -36 47 -30 15 -24 68
12 117 l31 42 -4 196 -3 196 -28 24 c-27 23 -35 24 -162 24 -124 0 -136 -2
-160 -23 -18 -15 -28 -35 -32 -67 -3 -25 -10 -51 -16 -57 -16 -21 -72 -15
-142 17 -125 56 -335 130 -369 130 -25 0 -40 -7 -55 -26z m339 -273 c0 -12
-20 -25 -27 -18 -7 7 6 27 18 27 5 0 9 -4 9 -9z m380 -71 c0 -5 -4 -10 -9 -10
-6 0 -13 5 -16 10 -3 6 1 10 9 10 9 0 16 -4 16 -10z m-562 -103 l22 -23 -28
-38 -27 -38 -12 28 c-16 37 -16 67 -1 82 17 17 21 15 46 -11z m405 -1 c15 -23
15 -25 -9 -41 -31 -20 -54 -13 -54 16 0 19 24 48 41 49 4 0 14 -11 22 -24z
m1567 -46 c0 -5 -2 -10 -4 -10 -3 0 -8 5 -11 10 -3 6 -1 10 4 10 6 0 11 -4 11
-10z m-1505 -249 c72 -33 115 -95 115 -167 0 -76 -42 -104 -155 -104 -140 0
-180 38 -173 163 3 63 7 72 36 98 27 24 41 29 85 29 29 0 70 -9 92 -19z m-465
-137 c0 -8 -7 -14 -15 -14 -15 0 -21 21 -9 33 10 9 24 -2 24 -19z m586 -195
c3 -6 0 -17 -8 -25 -13 -13 -16 -13 -28 1 -12 14 -11 18 1 26 19 12 26 11 35
-2z m1414 -179 c0 -5 -4 -10 -9 -10 -6 0 -13 5 -16 10 -3 6 1 10 9 10 9 0 16
-4 16 -10z m-546 -176 c10 -27 7 -42 -13 -47 -27 -7 -47 38 -23 52 24 14 29
13 36 -5z m-1338 -61 c-3 -3 -13 -3 -22 1 -13 5 -14 9 -3 22 11 14 13 14 22
-1 5 -9 6 -19 3 -22z m1534 -152 c-59 -66 -63 -69 -91 -59 -38 13 -49 52 -22
79 10 11 53 33 94 49 97 38 101 23 19 -69z m-1664 -47 c-26 -18 -35 -18 -43 2
-4 11 1 22 12 31 16 11 21 11 35 -3 13 -14 13 -17 -4 -30z m210 -175 c9 -15
-11 -33 -30 -26 -9 4 -13 13 -10 22 7 17 30 20 40 4z m-206 -200 c0 -20 -8
-23 -28 -11 -17 11 -4 42 14 35 8 -3 14 -14 14 -24z m420 7 c0 -20 -19 -31
-32 -18 -6 6 -7 15 -4 21 10 16 36 13 36 -3z m1560 -11 c0 -8 -4 -15 -9 -15
-13 0 -22 16 -14 24 11 11 23 6 23 -9z m-1753 -199 c-18 -27 -29 -29 -52 -12
-19 14 -19 15 -1 34 15 17 22 19 42 10 22 -10 23 -13 11 -32z m1768 -176 c18
-20 18 -21 -3 -42 -17 -18 -23 -19 -36 -8 -19 15 -21 41 -4 58 16 16 22 15 43
-8z m-1595 -30 c0 -5 -4 -10 -10 -10 -5 0 -10 5 -10 10 0 6 5 10 10 10 6 0 10
-4 10 -10z m1405 -152 c14 -6 25 -14 25 -17 0 -3 -16 -17 -36 -30 l-35 -24
-26 26 c-22 22 -24 28 -13 41 15 19 49 20 85 4z m-405 -23 c0 -7 -7 -18 -15
-25 -12 -10 -18 -10 -30 0 -14 12 -14 15 1 31 17 19 44 15 44 -6z m-1400 -209
c0 -19 -26 -27 -39 -12 -13 15 -4 26 21 26 10 0 18 -6 18 -14z m1380 -196 c0
-5 -5 -10 -11 -10 -5 0 -7 5 -4 10 3 6 8 10 11 10 2 0 4 -4 4 -10z m610 -180
c0 -16 -18 -30 -40 -30 -16 0 -18 28 -3 49 12 17 18 20 29 10 8 -6 14 -19 14
-29z m-1974 -3 c4 -14 1 -25 -12 -34 -25 -19 -33 -16 -46 13 -10 22 -10 28 6
39 22 17 43 10 52 -18z m402 -34 c-48 -58 -105 -16 -62 46 l16 23 29 -28 c23
-22 26 -30 17 -41z m1372 -174 c0 -14 -74 -61 -96 -61 -24 0 -109 51 -99 60 2
3 26 19 52 37 l48 32 47 -31 c26 -17 48 -34 48 -37z m-1305 -187 c25 -14 -78
-66 -104 -53 -32 18 -35 44 -6 68 24 21 28 22 60 8 19 -7 42 -18 50 -23z
m-472 -16 c7 -19 -18 -42 -28 -26 -8 13 1 40 14 40 5 0 11 -6 14 -14z m631
-129 l40 -12 -54 -39 c-50 -36 -54 -37 -67 -20 -26 35 -10 85 27 83 8 0 33 -6
54 -12z m828 -14 c28 -25 22 -39 -22 -57 -51 -20 -47 -21 -65 14 -15 30 -15
30 17 44 43 19 48 19 70 -1z m-1272 -15 c36 -26 37 -39 6 -75 -22 -26 -26 -27
-50 -14 -14 8 -26 20 -26 27 0 14 31 84 37 84 2 0 17 -10 33 -22z m201 -245
c8 -22 6 -30 -18 -55 -30 -31 -45 -35 -63 -13 -9 11 -6 22 21 55 18 22 36 40
41 40 5 0 13 -12 19 -27z m1209 13 c0 -20 -19 -31 -32 -18 -6 6 -7 15 -4 21
10 16 36 13 36 -3z m205 -186 c16 -16 27 -31 24 -33 -2 -2 -24 -12 -49 -21
-44 -17 -45 -17 -62 4 -25 31 -22 47 10 64 38 21 44 20 77 -14z m-1591 -6 c6
-16 -9 -44 -23 -44 -3 1 -17 10 -30 21 -21 17 -22 22 -10 30 23 14 56 10 63
-7z m1356 -204 c0 -5 -5 -12 -11 -16 -12 -7 -31 15 -23 28 6 9 34 -1 34 -12z
m200 -199 c0 -14 -18 -23 -30 -16 -6 4 -8 11 -5 16 8 12 35 12 35 0z m-150
-196 c0 -7 -9 -20 -21 -31 -15 -13 -24 -16 -36 -8 -25 16 -26 28 -2 58 20 26
22 26 40 10 11 -9 19 -22 19 -29z m-1626 19 c22 -8 20 -31 -2 -43 -13 -7 -22
-7 -30 1 -8 8 -8 17 -1 30 11 20 11 20 33 12z m396 -18 c0 -11 -19 -15 -25 -6
-3 5 1 10 9 10 9 0 16 -2 16 -4z m1590 -396 c0 -5 -4 -10 -10 -10 -5 0 -10 5
-10 10 0 6 5 10 10 10 6 0 10 -4 10 -10z m-2000 -10 c0 -5 -7 -10 -15 -10 -8
0 -15 5 -15 10 0 6 7 10 15 10 8 0 15 -4 15 -10z m198 -263 c3 -12 -3 -17 -22
-17 -29 0 -44 19 -25 31 20 13 43 6 47 -14z m-194 -114 c9 -23 -16 -37 -31
-16 -7 9 -10 20 -7 24 9 15 31 10 38 -8z m1596 -8 c0 -17 -39 -30 -52 -17 -6
6 -2 15 13 25 24 17 39 14 39 -8z m-1187 1 c3 -12 -30 -32 -39 -24 -11 12 5
40 21 36 9 -2 17 -7 18 -12z m212 -183 c-19 -46 -78 -123 -143 -187 l-50 -48
-46 42 c-25 23 -46 51 -46 62 0 33 29 77 63 95 27 14 205 70 230 72 4 1 0 -16
-8 -36z m1005 -225 c0 -10 -86 -68 -103 -68 -8 0 -22 9 -32 20 -18 20 -18 22
30 70 l49 50 28 -33 c15 -17 27 -35 28 -39z m-1638 -10 c-15 -15 -26 -4 -18
18 5 13 9 15 18 6 9 -9 9 -15 0 -24z m233 -190 c15 -22 14 -24 -6 -40 -27 -22
-53 -23 -70 -2 -12 14 -9 20 16 40 37 29 40 29 60 2z m1169 14 c8 -13 -11 -35
-23 -28 -16 10 -14 36 3 36 8 0 17 -4 20 -8z m-173 -233 l-12 -41 -30 28 c-35
33 -36 41 -7 71 22 23 22 23 42 4 18 -18 18 -24 7 -62z m-822 58 l74 -12 -37
-32 c-39 -35 -63 -39 -117 -22 -19 6 -40 13 -47 15 -19 6 14 64 36 63 9 0 50
-6 91 -12z m1400 -211 c26 -42 26 -58 2 -73 -17 -11 -23 -9 -41 17 -21 29 -21
31 -3 60 9 16 18 30 19 30 1 0 12 -15 23 -34z m-778 -15 l23 -18 -23 -12 c-28
-15 -51 -8 -51 17 0 36 17 41 51 13z m193 -195 c8 -21 6 -30 -14 -51 -13 -14
-26 -25 -29 -25 -3 0 -17 19 -29 41 l-24 41 23 24 c20 21 25 23 43 10 12 -7
25 -25 30 -40z"/>
<path d="M15553 18334 c-25 -9 -56 -32 -77 -57 -20 -23 -43 -50 -51 -59 -26
-31 -53 -22 -84 28 -26 43 -30 45 -39 27 -7 -11 -13 -160 -18 -374 -6 -338 -6
-355 12 -376 18 -20 33 -22 214 -32 371 -21 509 -31 534 -41 15 -5 28 -20 32
-37 4 -15 8 -440 8 -944 1 -917 1 -918 22 -946 12 -15 39 -34 60 -42 21 -8 41
-16 43 -18 3 -2 -14 -19 -38 -39 -23 -20 -51 -55 -63 -78 -27 -51 -26 30 -14
-1603 7 -945 7 -1243 -2 -1243 -9 0 -12 -136 -11 -542 1 -299 4 -554 8 -568
13 -48 46 -51 511 -47 234 2 433 7 442 11 9 4 20 15 25 24 9 19 17 1264 8
1299 -11 46 -30 53 -134 51 -83 -1 -105 2 -145 21 -100 49 -131 144 -82 245
46 94 122 142 248 156 117 14 141 41 114 133 -11 39 -32 71 -81 126 -82 90
-82 107 -5 132 30 10 60 25 67 35 28 39 29 127 3 919 -7 207 -6 367 3 560 6
149 12 546 12 883 l0 614 -32 29 c-18 16 -45 32 -60 35 -49 12 -103 76 -103
123 0 29 55 79 100 91 46 12 87 57 96 104 3 19 0 109 -6 200 -14 193 -8 269
24 301 27 27 77 31 470 41 254 6 260 7 283 30 l23 23 0 369 c0 394 -3 426 -47
443 -14 5 -470 9 -1126 8 -948 0 -1108 -3 -1144 -15z m1432 -94 c-24 -27 -47
-16 -33 15 9 20 14 22 30 14 18 -10 19 -12 3 -29z m-380 0 c0 -22 -29 -18 -33
3 -3 14 1 18 15 15 10 -2 18 -10 18 -18z m-433 -7 c24 -21 23 -26 -9 -74 l-27
-41 -33 38 c-18 22 -33 42 -33 46 0 8 61 48 74 48 5 0 18 -7 28 -17z m-414
-42 c3 -8 -1 -12 -9 -9 -7 2 -15 10 -17 17 -3 8 1 12 9 9 7 -2 15 -10 17 -17z
m1837 -123 c14 -6 24 -16 22 -21 -5 -17 -55 -40 -71 -34 -16 6 -16 9 1 37 9
16 18 30 20 30 1 0 14 -5 28 -12z m-2025 -87 c0 -13 -28 -22 -35 -11 -3 4 1
11 7 13 20 8 28 8 28 -2z m1340 -93 c85 -44 79 -70 -38 -176 l-69 -62 -28 96
c-21 77 -25 102 -16 121 21 46 84 55 151 21z m-1106 -41 c15 -19 26 -41 26
-49 0 -8 -16 -37 -36 -63 l-37 -47 -46 46 -45 46 49 50 c27 27 53 50 57 50 4
0 18 -15 32 -33z m386 -17 c0 -46 -3 -52 -32 -70 -35 -21 -43 -20 -51 10 -3
13 8 34 35 65 22 25 42 45 44 45 2 0 4 -23 4 -50z m-796 -4 c-6 -16 -8 -16
-25 0 -15 13 -16 20 -7 31 10 12 13 12 25 0 8 -7 11 -21 7 -31z m1131 -108
c42 -19 63 -74 75 -196 9 -99 8 -116 -10 -173 -29 -95 -66 -145 -128 -176 -62
-30 -112 -27 -178 12 -67 39 -154 165 -154 223 0 90 253 318 357 322 7 0 24
-5 38 -12z m-545 -63 c0 -16 -27 -32 -37 -22 -3 4 -3 13 0 22 8 20 37 20 37 0z
m1580 -50 c-23 -22 -45 -4 -30 25 11 21 13 21 28 6 14 -14 14 -18 2 -31z
m-546 -136 c14 -11 26 -25 26 -30 0 -5 -19 -18 -42 -30 -40 -20 -42 -20 -55
-3 -19 26 -16 51 9 68 29 20 30 20 62 -5z m-225 -203 c8 -10 8 -16 -3 -25 -10
-9 -16 -8 -26 3 -12 15 -6 36 9 36 5 0 14 -6 20 -14z m-549 -207 c0 -3 -14
-18 -30 -34 -24 -23 -34 -27 -47 -19 -26 16 -26 29 2 63 26 30 27 30 50 13 14
-9 25 -20 25 -23z m395 19 c14 -6 25 -14 25 -18 0 -3 -21 -16 -46 -28 -36 -18
-49 -20 -60 -11 -20 17 -17 36 8 53 27 19 39 20 73 4z m108 -114 c60 -84 44
-137 -22 -75 -28 26 -31 35 -31 87 0 32 4 54 8 49 5 -6 25 -33 45 -61z m-128
-286 c14 -21 14 -24 -7 -40 -21 -15 -24 -15 -40 -1 -23 20 -23 39 0 52 24 15
29 14 47 -11z m169 -220 c7 -12 1 -28 -29 -67 -22 -28 -42 -51 -46 -51 -5 0
-20 10 -35 23 l-26 23 52 47 c54 49 66 52 84 25z m-166 -166 l23 -18 -29 -27
c-26 -25 -29 -26 -50 -11 -28 19 -28 28 0 54 26 24 27 24 56 2z m367 -22 c15
-29 15 -30 -10 -42 -36 -16 -50 6 -27 44 9 15 17 28 19 28 1 0 9 -14 18 -30z
m-558 -215 c2 -1 -18 -32 -44 -70 l-48 -68 -18 42 c-20 47 -17 68 20 111 l25
30 31 -22 c18 -12 33 -22 34 -23z m378 12 c17 -13 17 -15 -6 -31 -23 -16 -25
-16 -41 5 -10 11 -15 25 -12 30 8 13 38 11 59 -4z m-613 -209 c-7 -7 -12 -8
-12 -2 0 14 12 26 19 19 2 -3 -1 -11 -7 -17z m219 -180 c6 -12 4 -21 -7 -33
-33 -33 -64 6 -44 55 13 31 14 31 27 14 8 -11 19 -27 24 -36z m179 -198 c0 -5
-7 -10 -15 -10 -8 0 -15 5 -15 10 0 6 7 10 15 10 8 0 15 -4 15 -10z m390 -9
c-1 -17 -17 -29 -29 -21 -19 11 -6 41 14 34 8 -3 15 -9 15 -13z m-600 -200 c0
-12 -28 -22 -34 -12 -3 5 -3 11 1 15 9 9 33 7 33 -3z m410 -391 c-15 -28 -40
-25 -40 3 0 31 9 38 31 26 15 -8 17 -14 9 -29z m-405 -10 c4 -6 1 -18 -6 -26
-12 -14 -14 -14 -26 2 -7 10 -13 21 -13 26 0 12 38 10 45 -2z m-189 -181 c9
-15 -11 -33 -30 -26 -9 4 -13 13 -10 22 7 17 30 20 40 4z m383 -8 c12 -21 5
-31 -21 -31 -13 0 -18 7 -18 25 0 30 25 34 39 6z m-349 -386 c28 -30 24 -35
-28 -42 -33 -4 -42 -2 -51 15 -10 18 -7 23 16 36 37 20 36 20 63 -9z m354 -23
c8 -30 6 -36 -25 -68 -39 -41 -162 -134 -175 -133 -5 0 -19 13 -32 29 l-23 30
19 42 c34 75 126 140 192 135 30 -2 36 -7 44 -35z m400 23 c3 -9 -1 -18 -10
-22 -19 -7 -39 11 -30 26 10 16 33 13 40 -4z m-190 -204 c14 -27 14 -29 -9
-39 -35 -16 -52 8 -30 42 10 14 19 26 21 26 2 0 10 -13 18 -29z m-604 -206 c0
-19 -20 -29 -32 -17 -15 15 -2 43 17 36 8 -3 15 -12 15 -19z m204 -119 c65
-27 71 -120 10 -177 -22 -20 -35 -24 -89 -24 -49 0 -71 5 -92 21 -84 62 -57
143 62 180 53 17 69 17 109 0z m401 -67 c4 -13 1 -27 -11 -40 -16 -18 -18 -18
-30 -1 -17 22 -18 49 -1 55 24 10 36 7 42 -14z m-605 -205 c0 -8 -4 -12 -10
-9 -5 3 -10 13 -10 21 0 8 5 12 10 9 6 -3 10 -13 10 -21z m0 -794 c0 -5 -4
-10 -10 -10 -5 0 -10 5 -10 10 0 6 5 10 10 10 6 0 10 -4 10 -10z m395 -395 c0
-10 -5 -20 -11 -22 -13 -4 -27 24 -18 38 9 15 29 4 29 -16z m403 17 c10 -7 8
-13 -7 -26 -21 -19 -37 -7 -27 19 6 17 15 18 34 7z m-763 -412 c3 -5 -3 -10
-14 -10 -12 0 -21 5 -21 10 0 6 6 10 14 10 8 0 18 -4 21 -10z m391 -385 c19
-15 19 -15 0 -30 -11 -8 -25 -15 -32 -15 -6 0 -17 7 -24 15 -10 12 -10 18 0
30 7 8 18 15 24 15 7 0 21 -7 32 -15z m-406 -9 c0 -21 -21 -31 -31 -15 -14 22
-11 29 11 29 11 0 20 -6 20 -14z m773 8 c9 -10 -4 -34 -18 -34 -17 0 -28 17
-20 30 7 11 28 13 38 4z"/>
<path d="M19963 18334 c-25 -9 -56 -32 -77 -57 -20 -23 -43 -50 -51 -59 -26
-31 -53 -22 -84 28 -26 43 -30 45 -39 27 -7 -11 -13 -160 -18 -374 -6 -338 -6
-355 12 -376 18 -19 34 -22 214 -32 379 -21 509 -31 534 -41 15 -5 28 -20 32
-37 4 -15 8 -440 8 -944 1 -917 1 -918 22 -946 12 -15 39 -34 60 -42 21 -8 41
-16 43 -18 3 -2 -14 -19 -38 -39 -23 -20 -51 -55 -63 -78 -27 -51 -26 30 -14
-1603 7 -945 7 -1243 -2 -1243 -9 0 -12 -136 -11 -542 1 -299 4 -554 8 -568
13 -48 46 -51 511 -47 234 2 433 7 442 11 9 4 20 15 25 24 9 19 17 1264 8
1299 -11 46 -30 53 -134 51 -83 -1 -105 2 -145 21 -100 49 -131 144 -82 245
46 94 118 139 246 155 120 15 143 42 116 134 -11 39 -32 71 -81 126 -82 90
-82 107 -5 132 30 10 60 25 67 35 28 39 29 127 3 919 -7 207 -6 367 3 560 6
149 12 546 12 883 l0 614 -32 29 c-18 16 -45 32 -60 35 -49 12 -103 76 -103
123 0 29 55 79 100 91 44 12 85 55 95 101 4 17 2 107 -5 199 -15 195 -8 272
24 305 27 27 77 31 470 41 254 6 260 7 283 30 l23 23 0 369 c0 394 -3 426 -47
443 -14 5 -470 9 -1126 8 -948 0 -1108 -3 -1144 -15z m1432 -94 c-24 -27 -47
-16 -33 15 9 20 14 22 30 14 18 -10 19 -12 3 -29z m-380 0 c0 -22 -29 -18 -33
3 -3 14 1 18 15 15 10 -2 18 -10 18 -18z m-433 -7 c24 -21 23 -26 -9 -74 l-27
-41 -33 38 c-18 22 -33 42 -33 46 0 8 61 48 74 48 5 0 18 -7 28 -17z m-414
-42 c3 -8 -1 -12 -9 -9 -7 2 -15 10 -17 17 -3 8 1 12 9 9 7 -2 15 -10 17 -17z
m1837 -123 c14 -6 24 -16 22 -21 -5 -17 -55 -40 -71 -34 -16 6 -16 9 1 37 9
16 18 30 20 30 1 0 14 -5 28 -12z m-2025 -87 c0 -13 -28 -22 -35 -11 -3 4 1
11 7 13 20 8 28 8 28 -2z m1340 -93 c85 -44 79 -70 -38 -176 l-69 -62 -28 96
c-21 77 -25 102 -16 121 21 46 84 55 151 21z m-1106 -41 c15 -19 26 -41 26
-49 0 -8 -16 -37 -36 -63 l-37 -47 -46 46 -45 46 49 50 c27 27 53 50 57 50 4
0 18 -15 32 -33z m386 -17 c0 -46 -3 -52 -32 -70 -31 -19 -34 -19 -45 -3 -7 9
-13 20 -13 24 0 7 79 99 86 99 2 0 4 -23 4 -50z m-796 -4 c-6 -16 -8 -16 -25
0 -15 13 -16 20 -7 31 10 12 13 12 25 0 8 -7 11 -21 7 -31z m1131 -108 c42
-19 63 -74 75 -196 9 -99 8 -116 -10 -173 -29 -95 -66 -145 -128 -176 -62 -30
-112 -27 -178 12 -67 39 -154 165 -154 223 0 90 253 318 357 322 7 0 24 -5 38
-12z m-545 -63 c0 -16 -27 -32 -37 -22 -3 4 -3 13 0 22 8 20 37 20 37 0z
m1580 -50 c-23 -22 -45 -4 -30 25 11 21 13 21 28 6 14 -14 14 -18 2 -31z
m-546 -136 c14 -11 26 -25 26 -30 0 -5 -19 -18 -42 -30 -40 -20 -42 -20 -55
-3 -19 26 -16 51 9 68 29 20 30 20 62 -5z m-225 -203 c8 -10 8 -16 -3 -25 -10
-9 -16 -8 -26 3 -12 15 -6 36 9 36 5 0 14 -6 20 -14z m-549 -207 c0 -3 -14
-18 -30 -34 -24 -23 -34 -27 -47 -19 -26 16 -26 29 2 63 26 30 27 30 50 13 14
-9 25 -20 25 -23z m395 19 c14 -6 25 -14 25 -18 0 -3 -21 -16 -46 -28 -36 -18
-49 -20 -60 -11 -20 17 -17 36 8 53 27 19 39 20 73 4z m108 -114 c60 -84 44
-137 -22 -75 -28 26 -31 35 -31 87 0 32 4 54 8 49 5 -6 25 -33 45 -61z m-128
-286 c14 -21 14 -24 -7 -40 -21 -15 -24 -15 -40 -1 -23 20 -23 39 0 52 24 15
29 14 47 -11z m169 -220 c7 -12 1 -28 -29 -67 -22 -28 -42 -51 -46 -51 -5 0
-20 10 -35 23 l-26 23 52 47 c54 49 66 52 84 25z m-166 -166 l23 -18 -29 -27
c-26 -25 -29 -26 -50 -11 -28 19 -28 37 1 57 28 20 27 20 55 -1z m367 -22 c15
-29 15 -30 -10 -42 -36 -16 -50 6 -27 44 9 15 17 28 19 28 1 0 9 -14 18 -30z
m-558 -215 c2 -1 -18 -32 -44 -70 l-48 -68 -18 42 c-20 47 -17 68 20 111 l25
30 31 -22 c18 -12 33 -22 34 -23z m378 12 c17 -13 17 -15 -6 -31 -23 -16 -25
-16 -41 5 -10 11 -15 25 -12 30 8 13 38 11 59 -4z m-613 -209 c-7 -7 -12 -8
-12 -2 0 14 12 26 19 19 2 -3 -1 -11 -7 -17z m219 -180 c6 -12 4 -21 -7 -33
-33 -33 -64 6 -44 55 13 31 14 31 27 14 8 -11 19 -27 24 -36z m179 -198 c0 -5
-7 -10 -15 -10 -8 0 -15 5 -15 10 0 6 7 10 15 10 8 0 15 -4 15 -10z m390 -9
c-1 -17 -17 -29 -29 -21 -19 11 -6 41 14 34 8 -3 15 -9 15 -13z m-600 -200 c0
-12 -28 -22 -34 -12 -3 5 -3 11 1 15 9 9 33 7 33 -3z m410 -391 c-15 -28 -40
-25 -40 3 0 31 9 38 31 26 15 -8 17 -14 9 -29z m-405 -10 c4 -6 1 -18 -6 -26
-12 -14 -14 -14 -26 2 -7 10 -13 21 -13 26 0 12 38 10 45 -2z m-189 -181 c9
-15 -11 -33 -30 -26 -9 4 -13 13 -10 22 7 17 30 20 40 4z m383 -8 c12 -21 5
-31 -21 -31 -13 0 -18 7 -18 25 0 30 25 34 39 6z m-349 -386 c28 -30 24 -35
-28 -42 -33 -4 -42 -2 -51 15 -10 18 -7 23 16 36 37 20 36 20 63 -9z m354 -23
c8 -30 6 -36 -25 -68 -39 -41 -162 -134 -175 -133 -5 0 -19 13 -32 29 l-23 30
19 42 c34 75 126 140 192 135 30 -2 36 -7 44 -35z m400 23 c3 -9 -1 -18 -10
-22 -19 -7 -39 11 -30 26 10 16 33 13 40 -4z m-190 -204 c14 -27 14 -29 -10
-40 -31 -14 -31 -14 -38 5 -5 13 19 64 30 64 2 0 10 -13 18 -29z m-604 -206
c0 -19 -20 -29 -32 -17 -15 15 -2 43 17 36 8 -3 15 -12 15 -19z m204 -119 c65
-27 71 -120 10 -177 -22 -20 -35 -24 -89 -24 -49 0 -71 5 -92 21 -84 62 -57
143 62 180 53 17 69 17 109 0z m401 -67 c4 -13 1 -27 -11 -40 -16 -18 -18 -18
-30 -1 -17 22 -18 49 -1 55 24 10 36 7 42 -14z m-605 -205 c0 -8 -4 -12 -10
-9 -5 3 -10 13 -10 21 0 8 5 12 10 9 6 -3 10 -13 10 -21z m0 -794 c0 -5 -4
-10 -10 -10 -5 0 -10 5 -10 10 0 6 5 10 10 10 6 0 10 -4 10 -10z m395 -395 c0
-10 -5 -20 -11 -22 -13 -4 -27 24 -18 38 9 15 29 4 29 -16z m403 17 c10 -7 8
-13 -7 -26 -21 -19 -37 -7 -27 19 6 17 15 18 34 7z m-763 -412 c3 -5 -3 -10
-14 -10 -12 0 -21 5 -21 10 0 6 6 10 14 10 8 0 18 -4 21 -10z m391 -385 c19
-15 19 -15 0 -30 -11 -8 -25 -15 -32 -15 -6 0 -17 7 -24 15 -10 12 -10 18 0
30 7 8 18 15 24 15 7 0 21 -7 32 -15z m-406 -9 c0 -21 -21 -31 -31 -15 -14 22
-11 29 11 29 11 0 20 -6 20 -14z m773 8 c9 -10 -4 -34 -18 -34 -17 0 -28 17
-20 30 7 11 28 13 38 4z"/>
<path d="M6430 10349 c-180 -42 -390 -99 -425 -117 -55 -27 -110 -79 -170
-161 -52 -70 -64 -81 -90 -81 -61 0 -83 -32 -167 -240 -24 -59 -31 -92 -33
-154 -2 -78 -3 -80 -38 -110 -20 -17 -43 -47 -51 -67 -27 -65 -37 -389 -34
-1064 3 -601 4 -642 22 -674 10 -19 31 -46 46 -60 22 -20 27 -32 23 -53 -4
-22 -11 -28 -32 -28 -15 0 -35 -6 -45 -13 -17 -12 -18 -59 -17 -862 1 -468 6
-967 12 -1110 7 -157 8 -440 4 -715 -7 -508 1 -672 39 -821 31 -121 91 -268
153 -372 63 -107 220 -266 325 -331 137 -84 328 -150 512 -175 387 -54 794
113 1029 422 109 142 159 259 229 529 33 129 42 182 42 253 1 82 -2 95 -27
138 -16 27 -47 60 -69 75 -23 15 -57 42 -77 61 l-36 34 30 13 c19 8 51 11 86
7 54 -5 58 -4 75 23 18 26 19 57 19 489 0 253 -2 672 -5 931 l-5 472 -59 6
c-32 3 -81 6 -107 6 -27 0 -68 5 -92 12 -38 10 -56 8 -134 -12 l-90 -23 -44
21 c-66 32 -152 39 -375 33 -180 -5 -204 -8 -223 -25 -26 -24 -27 -65 -2 -131
18 -49 18 -54 -5 -315 -31 -355 -31 -373 2 -399 15 -12 41 -21 60 -21 44 0 71
-28 79 -82 3 -24 5 -356 3 -738 l-3 -695 -24 -70 c-16 -49 -35 -81 -62 -109
-36 -36 -42 -38 -82 -33 -35 5 -50 15 -95 64 -87 94 -111 156 -87 225 10 30
15 83 15 173 0 212 -19 578 -35 685 -20 130 -19 233 2 312 13 50 16 96 13 223
-6 245 -4 391 4 495 5 63 4 104 -3 123 -10 25 -15 27 -65 27 -56 0 -86 16 -86
46 0 8 20 36 44 62 83 90 96 136 118 418 11 146 10 186 -6 349 -10 102 -15
197 -11 212 12 49 8 1884 -4 1931 -14 50 -4 74 36 90 50 19 170 52 191 52 37
0 100 -102 122 -200 10 -42 13 -307 15 -1120 2 -724 6 -1073 13 -1091 6 -15
24 -42 41 -61 l30 -35 -35 -34 -34 -33 27 -15 c23 -13 102 -17 453 -23 446 -7
480 -5 501 35 9 15 9 136 3 456 -5 240 -7 706 -6 1036 4 638 -2 770 -48 1050
-26 160 -33 182 -79 248 -22 31 -60 98 -85 150 -55 116 -131 191 -292 291 -60
38 -134 87 -164 110 -51 38 -59 41 -121 41 -103 0 -120 -26 -74 -113 36 -67
33 -82 -12 -82 -34 0 -48 10 -173 135 -75 74 -141 135 -146 134 -5 -1 -65 -14
-134 -30z m149 -196 c6 -4 -40 -53 -61 -64 -12 -6 -32 3 -77 36 -61 45 -71 61
-50 82 9 9 34 4 98 -19 47 -17 88 -33 90 -35z m-422 -19 c2 -5 -11 -21 -28
-33 l-32 -24 -18 24 c-39 51 -8 92 45 61 16 -10 31 -22 33 -28z m924 -141 c57
-26 84 -44 90 -60 13 -36 12 -38 -27 -52 -39 -14 -36 -16 -131 73 -34 32 -40
43 -32 58 5 10 12 18 15 18 3 0 41 -17 85 -37z m-1141 -62 c0 -12 -28 -22 -34
-12 -3 5 -3 11 1 15 9 9 33 7 33 -3z m164 -208 c4 -9 0 -23 -8 -31 -12 -12
-16 -12 -25 7 -7 12 -9 26 -6 31 10 16 32 12 39 -7z m-178 -148 c17 -33 17
-36 2 -52 -31 -31 -61 20 -42 71 9 24 19 19 40 -19z m397 -23 c15 -16 15 -20
1 -40 -18 -26 -37 -28 -54 -7 -10 12 -9 20 4 40 20 30 28 31 49 7z m376 -24
c-20 -17 -49 -24 -49 -13 0 3 12 17 27 31 20 19 28 21 35 12 5 -8 0 -19 -13
-30z m814 13 c3 -13 -3 -22 -19 -29 -19 -10 -24 -8 -30 10 -4 13 -1 24 7 29
22 14 36 10 42 -10z m-1383 -201 c-20 -37 -55 -22 -38 16 9 19 14 21 30 13 14
-8 16 -14 8 -29z m990 -5 l24 -26 -77 -77 -77 -77 -22 22 c-20 20 -21 25 -9
65 16 52 79 118 113 118 14 0 35 -11 48 -25z m185 15 c3 -5 -1 -10 -10 -10 -9
0 -13 5 -10 10 3 6 8 10 10 10 2 0 7 -4 10 -10z m-1091 -139 c16 -18 16 -20
-6 -35 -19 -14 -24 -14 -36 -2 -11 11 -11 18 -3 35 14 26 23 26 45 2z m-293
-66 c-1 -15 -24 -12 -29 3 -3 9 2 13 12 10 10 -1 17 -7 17 -13z m1574 -3 c0
-18 -20 -15 -23 4 -3 10 1 15 10 12 7 -3 13 -10 13 -16z m-1277 -359 c-10 -13
-14 -12 -25 3 -16 22 4 39 24 22 10 -8 11 -14 1 -25z m785 22 c0 -6 -7 -11
-16 -13 -12 -3 -15 1 -11 13 7 17 25 17 27 0z m287 -270 c0 -19 -20 -29 -31
-18 -14 14 0 43 17 36 8 -3 14 -11 14 -18z m-374 4 c11 -19 -13 -34 -31 -19
-13 11 -13 15 -3 21 18 12 26 11 34 -2z m-1108 -141 c14 -14 16 -38 4 -38 -5
0 -14 11 -20 25 -12 26 -4 33 16 13z m1319 -45 c13 -20 12 -23 -16 -37 -29
-15 -31 -15 -41 5 -9 16 -8 25 6 40 21 23 32 21 51 -8z m-1270 1 c-3 -3 -12
-4 -19 -1 -8 3 -5 6 6 6 11 1 17 -2 13 -5z m173 -170 c0 -14 -4 -22 -10 -19
-5 3 -10 17 -10 31 0 14 4 22 10 19 6 -3 10 -17 10 -31z m202 -45 c42 -11 83
-55 93 -99 10 -44 -23 -103 -95 -175 -58 -57 -60 -59 -75 -40 -34 42 -65 121
-65 165 0 27 -10 67 -25 98 -14 30 -25 58 -25 64 0 11 132 2 192 -13z m668 11
c0 -5 -7 -10 -15 -10 -8 0 -15 5 -15 10 0 6 7 10 15 10 8 0 15 -4 15 -10z
m620 -195 c0 -19 -13 -25 -29 -15 -19 11 -6 41 14 34 8 -3 15 -12 15 -19z
m-1996 9 c20 -8 20 -28 1 -44 -21 -17 -39 1 -30 29 7 23 7 23 29 15z m1579
-10 c11 -11 -3 -24 -18 -18 -8 4 -12 10 -9 15 6 11 18 12 27 3z m503 -90 c5
-26 2 -40 -10 -52 -15 -15 -17 -15 -33 0 -15 16 -15 20 3 53 10 19 22 35 26
35 4 0 10 -16 14 -36z m-385 -30 c10 -13 10 -17 -2 -25 -8 -5 -19 -9 -26 -9
-15 0 -35 35 -26 44 12 11 40 6 54 -10z m-1051 -40 c0 -23 -24 -44 -50 -44
-34 0 -37 6 -13 32 15 16 63 26 63 12z m1525 -44 c3 -5 1 -10 -4 -10 -6 0 -11
5 -11 10 0 6 2 10 4 10 3 0 8 -4 11 -10z m-298 -109 c10 -16 9 -20 -4 -25 -23
-9 -46 13 -32 30 15 19 22 18 36 -5z m-1063 -54 c16 -11 17 -17 7 -36 -14 -25
-38 -25 -54 1 -8 12 -7 21 2 32 16 19 22 20 45 3z m942 -167 l108 -50 -34 -35
c-37 -38 -65 -43 -109 -21 -37 20 -91 82 -91 106 0 19 10 50 16 50 2 0 51 -23
110 -50z m304 0 c0 -5 -2 -10 -4 -10 -3 0 -8 5 -11 10 -3 6 -1 10 4 10 6 0 11
-4 11 -10z m-1780 -200 c0 -5 -4 -10 -10 -10 -5 0 -10 5 -10 10 0 6 5 10 10
10 6 0 10 -4 10 -10z m110 -50 c0 -5 -5 -10 -11 -10 -5 0 -7 5 -4 10 3 6 8 10
11 10 2 0 4 -4 4 -10z m1306 -141 c9 -16 -18 -30 -33 -17 -7 6 -10 14 -7 19 7
13 31 11 40 -2z m-296 -69 c0 -17 -15 -19 -32 -3 -26 23 -22 35 7 21 14 -6 25
-14 25 -18z m-993 -196 c7 -20 -8 -36 -25 -25 -14 8 -6 41 9 41 5 0 12 -7 16
-16z m1187 -393 c4 -5 3 -16 0 -25 -5 -13 -9 -14 -20 -5 -8 6 -14 18 -14 25 0
16 26 19 34 5z m600 -132 l27 -21 -22 -24 -23 -24 -27 26 c-23 22 -26 29 -16
45 15 24 28 24 61 -2z m-1504 -195 c0 -8 -7 -14 -15 -14 -15 0 -21 21 -9 33
10 9 24 -2 24 -19z m-610 -154 c26 -50 25 -54 -6 -69 -29 -13 -44 -7 -44 16 0
18 21 93 26 93 2 0 13 -18 24 -40z m1994 -39 c7 -10 -18 -34 -27 -25 -7 8 3
34 13 34 5 0 11 -4 14 -9z m-4 -399 c0 -13 -12 -22 -22 -16 -10 6 -1 24 13 24
5 0 9 -4 9 -8z m-1860 -67 c0 -8 -7 -15 -15 -15 -16 0 -20 12 -8 23 11 12 23
8 23 -8z m1665 -134 c3 -5 1 -12 -5 -16 -5 -3 -10 1 -10 9 0 18 6 21 15 7z
m-1777 -179 c12 -8 7 -42 -7 -42 -17 1 -31 18 -25 33 7 19 13 20 32 9z m98
-99 c-10 -10 -19 5 -10 18 6 11 8 11 12 0 2 -7 1 -15 -2 -18z m1268 -109 c20
-8 9 -34 -15 -34 -21 0 -22 1 -13 24 7 18 7 18 28 10z m-1036 -69 c16 -35 16
-35 -18 -35 -27 0 -30 3 -30 30 0 38 32 41 48 5z m1176 -3 c9 -14 -10 -33 -27
-26 -18 6 -21 16 -10 27 9 9 31 9 37 -1z m102 -148 c44 -35 57 -64 29 -64 -8
0 -40 11 -70 25 l-56 24 18 25 c10 14 22 26 27 26 5 0 29 -16 52 -36z m-1138
-22 c29 -19 26 -45 -21 -219 -30 -108 -35 -118 -65 -136 l-34 -20 -100 100
c-82 82 -99 104 -94 121 4 12 60 56 128 102 127 84 134 86 186 52z m930 -179
c2 -8 -5 -13 -17 -13 -12 0 -21 6 -21 16 0 18 31 15 38 -3z m-1285 -226 c36
-15 34 -21 -11 -36 -33 -11 -43 -11 -68 3 -55 30 -74 50 -68 73 l6 22 57 -26
c31 -14 68 -30 84 -36z m1270 -130 c15 -10 16 -15 5 -30 -12 -16 -15 -16 -36
-1 -18 12 -21 19 -11 30 14 17 20 17 42 1z m-579 -230 c13 -35 -8 -61 -35 -46
-22 11 -24 31 -7 59 16 25 30 21 42 -13z m775 24 c16 -10 5 -54 -12 -48 -14 4
-23 57 -10 57 4 0 14 -4 22 -9z m401 -1 c13 -8 13 -11 0 -24 -18 -19 -43 -6
-34 17 7 19 13 21 34 7z m-1480 -90 c0 -5 -4 -10 -10 -10 -5 0 -10 5 -10 10 0
6 5 10 10 10 6 0 10 -4 10 -10z m871 -115 c-1 -15 -24 -12 -29 3 -3 9 2 13 12
10 10 -1 17 -7 17 -13z m-767 -4 c3 -5 0 -11 -8 -14 -15 -6 -26 1 -26 15 0 11
27 10 34 -1z m-299 -71 c3 -5 1 -10 -4 -10 -6 0 -11 5 -11 10 0 6 2 10 4 10 3
0 8 -4 11 -10z m71 -151 c9 -16 -18 -30 -33 -17 -7 6 -10 14 -7 19 7 13 31 11
40 -2z m607 -193 c6 -16 -2 -28 -14 -20 -12 7 -11 34 0 34 5 0 11 -6 14 -14z"/>
<path d="M8263 10251 c-267 -7 -263 -5 -274 -123 -9 -86 -9 -3340 0 -5373 6
-1501 5 -1460 49 -1484 10 -5 361 -12 822 -16 797 -7 970 -3 1073 26 66 18 67
24 67 473 0 373 -1 395 -19 417 l-19 24 -459 0 c-486 0 -494 1 -509 47 -4 13
-8 163 -8 333 -2 324 -4 343 -46 365 -29 15 -25 58 10 125 35 66 37 97 15 240
-15 102 -14 120 12 193 12 31 14 60 9 107 -8 84 -12 91 -52 116 -40 24 -44 52
-10 74 57 38 59 131 5 288 l-31 91 31 56 c17 31 35 79 41 107 7 31 21 60 36
74 25 24 26 24 302 24 152 1 285 5 295 9 10 5 23 20 28 33 5 13 9 202 9 419 0
429 -2 444 -56 464 -13 5 -134 10 -268 11 -237 0 -245 0 -321 -26 -73 -24 -79
-25 -96 -9 -11 9 -19 21 -19 27 0 5 23 30 50 56 33 31 50 55 51 72 0 13 1 411
2 884 2 970 -4 902 79 923 95 24 222 33 333 23 61 -5 197 -7 303 -4 238 7 233
5 240 119 2 47 -4 150 -17 256 -27 224 -27 312 0 417 24 94 18 124 -27 141
-27 10 -1221 11 -1631 1z m267 -121 c0 -5 -4 -10 -10 -10 -5 0 -10 5 -10 10 0
6 5 10 10 10 6 0 10 -4 10 -10z m238 -158 l33 -18 -23 -20 c-38 -34 -48 -37
-69 -18 -22 20 -25 44 -7 62 16 16 26 15 66 -6z m181 -206 c27 -43 26 -57 -4
-78 -23 -17 -24 -17 -49 13 -31 37 -31 39 -5 73 27 34 33 33 58 -8z m-823 -11
c-3 -9 -11 -13 -16 -10 -8 5 -7 11 1 21 14 18 24 11 15 -11z m423 -436 c-19
-12 -26 -11 -35 3 -4 6 1 17 12 25 15 11 19 11 27 -3 6 -11 5 -19 -4 -25z
m387 30 c10 -17 -13 -36 -27 -22 -12 12 -4 33 11 33 5 0 12 -5 16 -11z m-206
-223 c-14 -14 -24 0 -16 21 6 15 8 15 16 3 6 -9 5 -19 0 -24z m203 -181 c4 -8
3 -16 -1 -19 -13 -8 -35 11 -28 23 10 15 23 14 29 -4z m-576 -191 c9 -23 -19
-38 -34 -17 -7 9 -10 20 -7 24 9 15 34 10 41 -7z m403 -4 c0 -14 -20 -22 -37
-16 -12 5 -13 9 -3 21 11 14 40 10 40 -5z m-232 -199 c3 -8 -1 -12 -9 -9 -7 2
-15 10 -17 17 -3 8 1 12 9 9 7 -2 15 -10 17 -17z m-383 -1 c-3 -5 -13 -10 -21
-10 -8 0 -12 5 -9 10 3 6 13 10 21 10 8 0 12 -4 9 -10z m215 -166 c16 -30 4
-59 -25 -59 -31 0 -40 29 -19 58 24 33 27 33 44 1z m386 -5 c20 -22 13 -43
-19 -63 -12 -8 -21 -7 -33 6 -15 15 -15 18 2 47 22 37 25 37 50 10z m-216
-229 c0 -5 -4 -10 -10 -10 -5 0 -10 5 -10 10 0 6 5 10 10 10 6 0 10 -4 10 -10z
m224 -163 c16 -12 17 -18 7 -50 -11 -33 -15 -36 -32 -26 -28 14 -34 36 -19 65
15 28 20 29 44 11z m-394 -37 c0 -5 -9 -10 -20 -10 -11 0 -20 5 -20 10 0 6 9
10 20 10 11 0 20 -4 20 -10z m191 -166 c17 -15 17 -18 2 -40 -18 -29 -39 -31
-52 -6 -7 14 -6 25 5 40 18 26 22 27 45 6z m-411 -34 c0 -5 -4 -10 -9 -10 -6
0 -13 5 -16 10 -3 6 1 10 9 10 9 0 16 -4 16 -10z m238 -156 l37 -16 -48 -24
c-51 -27 -73 -26 -84 2 -4 11 2 24 16 36 28 22 32 22 79 2z m202 -251 c0 -18
-47 -28 -65 -13 -20 17 -19 47 3 59 13 7 23 4 40 -11 12 -12 22 -27 22 -35z
m-450 13 c0 -3 -4 -8 -10 -11 -5 -3 -10 -1 -10 4 0 6 5 11 10 11 6 0 10 -2 10
-4z m225 -169 l35 -24 -28 -26 c-35 -34 -42 -34 -76 2 -24 26 -26 31 -14 50
17 27 41 27 83 -2z m369 -2 c21 -16 21 -17 -11 -34 -19 -10 -24 -8 -33 9 -20
37 8 52 44 25z m406 -19 c0 -8 -4 -17 -8 -20 -13 -8 -35 11 -28 23 10 16 36
14 36 -3z m398 -3 c-2 -10 -10 -18 -18 -18 -8 0 -16 8 -18 18 -2 12 3 17 18
17 15 0 20 -5 18 -17z m-567 -175 c10 -18 4 -34 -25 -72 -14 -18 -16 -18 -45
4 -38 26 -38 37 -3 82 25 34 28 35 45 20 11 -9 23 -25 28 -34z m429 -12 c0 -5
-10 -20 -21 -33 l-22 -22 -28 20 c-35 24 -36 38 -8 73 l22 27 28 -27 c16 -15
29 -32 29 -38z m-1252 -8 c17 -17 15 -28 -7 -28 -19 0 -35 23 -24 34 9 9 18 7
31 -6z m997 -202 c17 -12 18 -17 6 -40 -14 -26 -18 -25 -61 3 -12 8 -12 13 4
30 23 25 26 25 51 7z m-991 -562 c33 -16 34 -18 19 -40 -19 -29 -27 -30 -69
-3 -29 18 -32 23 -21 40 14 23 26 24 71 3z m616 -224 c10 -18 8 -20 -19 -20
-34 0 -51 18 -30 31 22 14 38 10 49 -11z m-410 -10 c0 -5 -4 -10 -9 -10 -6 0
-13 5 -16 10 -3 6 1 10 9 10 9 0 16 -4 16 -10z m212 -177 c18 -16 18 -17 -4
-40 l-22 -23 -23 22 c-21 20 -22 23 -6 40 20 22 31 23 55 1z m168 -223 c0 -5
-4 -10 -10 -10 -5 0 -10 5 -10 10 0 6 5 10 10 10 6 0 10 -4 10 -10z m-585
-570 c11 -17 -5 -32 -21 -19 -7 6 -11 15 -8 20 7 12 21 11 29 -1z m190 -230
c3 -5 2 -10 -4 -10 -5 0 -13 5 -16 10 -3 6 -2 10 4 10 5 0 13 -4 16 -10z m595
-601 c0 -24 -23 -21 -28 4 -2 10 3 17 12 17 10 0 16 -9 16 -21z m603 -185 c-5
-14 -25 -19 -36 -8 -3 4 -2 15 4 26 8 15 13 17 24 8 8 -6 11 -18 8 -26z
m-1003 -173 c0 -6 -4 -13 -10 -16 -5 -3 -10 1 -10 9 0 9 5 16 10 16 6 0 10 -4
10 -9z m1182 -33 c-6 -6 -15 -8 -19 -4 -4 4 -1 11 7 16 8 5 17 7 19 4 3 -2 -1
-10 -7 -16z m-736 -144 l65 -27 -32 -33 c-18 -19 -41 -36 -51 -40 -19 -6 -118
43 -118 58 0 24 32 68 50 68 11 0 49 -12 86 -26z m-838 -207 c7 -8 7 -18 2
-27 -8 -13 -11 -13 -26 2 -9 9 -13 21 -10 27 9 15 21 14 34 -2z m417 -17 c0
-8 -8 -16 -17 -18 -13 -2 -18 3 -18 18 0 15 5 20 18 18 9 -2 17 -10 17 -18z
m1154 1 c8 -15 7 -20 -6 -25 -17 -7 -33 9 -33 32 0 19 28 14 39 -7z m-391 -13
c-5 -15 -23 -11 -26 6 -2 11 2 14 13 10 9 -4 14 -11 13 -16z"/>
<path d="M10373 10244 c-25 -9 -56 -32 -77 -57 -20 -23 -43 -50 -51 -59 -26
-31 -53 -22 -84 28 -26 43 -30 45 -39 27 -7 -11 -13 -160 -18 -374 -6 -338 -6
-355 12 -376 18 -20 33 -22 214 -32 345 -19 511 -32 535 -41 14 -5 27 -21 31
-37 4 -15 8 -440 8 -944 1 -917 1 -918 22 -946 12 -15 39 -34 60 -42 21 -8 41
-16 43 -18 3 -2 -14 -19 -38 -39 -23 -20 -51 -55 -63 -78 -27 -51 -26 30 -14
-1603 7 -945 7 -1243 -2 -1243 -9 0 -12 -136 -11 -542 1 -299 4 -554 8 -568
13 -48 46 -51 511 -47 234 2 433 7 442 11 9 4 20 15 25 24 9 19 17 1264 8
1299 -11 46 -30 53 -134 51 -83 -1 -105 2 -145 21 -100 49 -131 144 -82 245
46 94 118 139 246 155 120 15 143 42 116 134 -11 39 -32 71 -81 126 -82 90
-82 107 -5 132 30 10 60 25 67 35 28 39 29 127 3 919 -7 207 -6 367 3 560 6
149 12 546 12 883 l0 614 -33 29 c-18 16 -46 32 -63 36 -33 6 -86 61 -95 100
-4 16 -1 35 9 51 14 24 31 35 111 73 16 8 38 27 50 42 23 31 23 25 15 355 l-4
174 27 23 c31 27 80 31 472 41 254 6 260 7 283 30 l23 23 0 369 c0 394 -3 426
-47 443 -14 5 -470 9 -1126 8 -948 0 -1108 -3 -1144 -15z m1432 -94 c-24 -27
-47 -16 -33 15 9 20 14 22 30 14 18 -10 19 -12 3 -29z m-380 0 c0 -22 -29 -18
-33 3 -3 14 1 18 15 15 10 -2 18 -10 18 -18z m-433 -7 c24 -21 23 -26 -9 -74
l-27 -41 -33 38 c-18 22 -33 42 -33 46 0 8 61 48 74 48 5 0 18 -7 28 -17z
m-414 -42 c3 -8 -1 -12 -9 -9 -7 2 -15 10 -17 17 -3 8 1 12 9 9 7 -2 15 -10
17 -17z m1837 -123 c14 -6 24 -16 22 -21 -5 -17 -55 -40 -71 -34 -16 6 -16 9
1 37 9 16 18 30 20 30 1 0 14 -5 28 -12z m-2025 -87 c0 -13 -28 -22 -35 -11
-3 4 1 11 7 13 20 8 28 8 28 -2z m1340 -93 c85 -44 79 -70 -38 -176 l-69 -62
-28 96 c-21 77 -25 102 -16 121 21 46 84 55 151 21z m-1106 -41 c15 -19 26
-41 26 -49 0 -8 -16 -37 -36 -63 l-37 -47 -46 46 -45 46 49 50 c27 27 53 50
57 50 4 0 18 -15 32 -33z m386 -17 c0 -46 -3 -52 -32 -70 -35 -21 -43 -20 -51
10 -3 13 8 34 35 65 22 25 42 45 44 45 2 0 4 -23 4 -50z m-796 -4 c-6 -16 -8
-16 -25 0 -15 13 -16 20 -7 31 10 12 13 12 25 0 8 -7 11 -21 7 -31z m1131
-108 c42 -19 63 -73 75 -193 9 -92 9 -115 -5 -163 -23 -79 -48 -124 -89 -159
-94 -83 -213 -60 -303 59 -83 108 -90 149 -42 221 54 81 203 207 279 233 44
17 53 17 85 2z m-545 -63 c0 -16 -27 -32 -37 -22 -3 4 -3 13 0 22 8 20 37 20
37 0z m1580 -50 c-23 -22 -45 -4 -30 25 11 21 13 21 28 6 14 -14 14 -18 2 -31z
m-546 -136 c14 -11 26 -25 26 -30 0 -5 -19 -18 -42 -30 -40 -20 -42 -20 -55
-3 -19 26 -16 51 9 68 29 20 30 20 62 -5z m-225 -203 c8 -10 8 -16 -3 -25 -10
-9 -16 -8 -26 3 -12 15 -6 36 9 36 5 0 14 -6 20 -14z m-549 -207 c0 -3 -14
-18 -30 -34 -24 -23 -34 -27 -47 -19 -26 16 -26 29 2 63 26 30 27 30 50 13 14
-9 25 -20 25 -23z m395 19 c14 -6 25 -14 25 -18 0 -3 -21 -16 -46 -28 -36 -18
-49 -20 -60 -11 -20 17 -17 36 8 53 27 19 39 20 73 4z m108 -114 c60 -84 44
-137 -22 -75 -28 26 -31 35 -31 87 0 32 4 54 8 49 5 -6 25 -33 45 -61z m-128
-286 c15 -22 14 -24 -6 -41 -20 -16 -23 -16 -40 -1 -24 21 -24 40 -1 53 25 15
29 14 47 -11z m169 -220 c7 -12 1 -28 -29 -67 -22 -28 -42 -51 -46 -51 -5 0
-20 10 -35 23 l-26 23 52 47 c54 49 66 52 84 25z m-166 -166 l23 -18 -29 -27
c-26 -25 -29 -26 -50 -11 -28 19 -28 37 1 57 28 20 27 20 55 -1z m367 -22 c15
-29 15 -30 -10 -42 -36 -16 -50 6 -27 44 9 15 17 28 19 28 1 0 9 -14 18 -30z
m-558 -215 c2 -1 -18 -32 -44 -70 l-48 -68 -18 42 c-20 47 -17 68 20 111 l25
30 31 -22 c18 -12 33 -22 34 -23z m378 12 c17 -13 17 -15 -6 -31 -23 -16 -25
-16 -41 5 -10 11 -15 25 -12 30 8 13 38 11 59 -4z m-613 -209 c-7 -7 -12 -8
-12 -2 0 14 12 26 19 19 2 -3 -1 -11 -7 -17z m219 -180 c6 -12 4 -21 -7 -33
-33 -33 -64 6 -44 55 13 31 14 31 27 14 8 -11 19 -27 24 -36z m179 -198 c0 -5
-7 -10 -15 -10 -8 0 -15 5 -15 10 0 6 7 10 15 10 8 0 15 -4 15 -10z m390 -9
c-1 -17 -17 -29 -29 -21 -19 11 -6 41 14 34 8 -3 15 -9 15 -13z m-600 -200 c0
-12 -28 -22 -34 -12 -3 5 -3 11 1 15 9 9 33 7 33 -3z m410 -391 c-15 -28 -40
-25 -40 3 0 31 9 38 31 26 15 -8 17 -14 9 -29z m-405 -10 c4 -6 1 -18 -6 -26
-12 -14 -14 -14 -26 2 -7 10 -13 21 -13 26 0 12 38 10 45 -2z m-189 -181 c9
-15 -11 -33 -30 -26 -9 4 -13 13 -10 22 7 17 30 20 40 4z m383 -8 c12 -21 5
-31 -21 -31 -13 0 -18 7 -18 25 0 30 25 34 39 6z m-349 -386 c28 -30 24 -35
-28 -42 -33 -4 -42 -2 -51 15 -10 18 -7 23 16 36 37 20 36 20 63 -9z m354 -23
c8 -30 6 -36 -25 -68 -39 -41 -162 -134 -175 -133 -5 0 -19 13 -32 29 l-23 30
19 42 c34 75 126 140 192 135 30 -2 36 -7 44 -35z m400 23 c3 -9 -1 -18 -10
-22 -19 -7 -39 11 -30 26 10 16 33 13 40 -4z m-190 -204 c14 -27 14 -29 -10
-40 -31 -14 -31 -14 -38 5 -5 13 19 64 30 64 2 0 10 -13 18 -29z m-604 -206
c0 -19 -20 -29 -32 -17 -15 15 -2 43 17 36 8 -3 15 -12 15 -19z m204 -119 c65
-27 71 -120 10 -177 -22 -20 -35 -24 -89 -24 -49 0 -71 5 -92 21 -84 62 -57
143 62 180 53 17 69 17 109 0z m401 -67 c4 -13 1 -27 -11 -40 -16 -18 -18 -18
-30 -1 -17 22 -18 49 -1 55 24 10 36 7 42 -14z m-605 -205 c0 -8 -4 -12 -10
-9 -5 3 -10 13 -10 21 0 8 5 12 10 9 6 -3 10 -13 10 -21z m0 -794 c0 -5 -4
-10 -10 -10 -5 0 -10 5 -10 10 0 6 5 10 10 10 6 0 10 -4 10 -10z m395 -395 c0
-10 -5 -20 -11 -22 -13 -4 -27 24 -18 38 9 15 29 4 29 -16z m403 17 c10 -7 8
-13 -7 -26 -21 -19 -37 -7 -27 19 6 17 15 18 34 7z m-763 -412 c3 -5 -3 -10
-14 -10 -12 0 -21 5 -21 10 0 6 6 10 14 10 8 0 18 -4 21 -10z m391 -385 c19
-15 19 -15 0 -30 -11 -8 -25 -15 -32 -15 -6 0 -17 7 -24 15 -10 12 -10 18 0
30 7 8 18 15 24 15 7 0 21 -7 32 -15z m-406 -9 c0 -21 -21 -31 -31 -15 -14 22
-11 29 11 29 11 0 20 -6 20 -14z m773 8 c9 -10 -4 -34 -18 -34 -17 0 -28 17
-20 30 7 11 28 13 38 4z"/>
<path d="M14664 10237 l-29 -25 1 -884 c0 -485 1 -1241 3 -1678 1 -437 -3
-1092 -9 -1455 -6 -410 -8 -1083 -4 -1775 l7 -1114 22 -21 c20 -21 30 -22 450
-28 237 -4 443 -4 459 1 16 4 38 19 48 33 16 22 18 55 19 369 1 243 -2 354
-11 375 -15 40 -56 82 -102 106 -75 38 -69 74 25 149 36 27 67 56 70 64 13 33
29 212 25 287 -3 73 -8 94 -41 161 -42 83 -42 92 -1 163 40 70 44 132 44 667
l0 509 26 26 c25 25 28 26 128 20 56 -3 123 -11 149 -18 87 -22 127 -88 127
-213 0 -30 7 -106 16 -168 21 -144 21 -279 0 -336 -14 -38 -15 -69 -6 -228 5
-102 7 -256 4 -342 -5 -129 -3 -172 12 -242 14 -68 18 -141 19 -367 3 -307 5
-339 40 -643 14 -113 27 -229 31 -258 4 -39 13 -62 34 -85 l28 -32 439 0 c241
0 450 3 464 7 47 14 52 47 35 219 -9 85 -23 240 -31 344 -20 253 -23 266 -87
347 -33 42 -31 50 24 119 42 52 45 91 14 188 -31 98 -32 123 -6 220 18 71 18
94 10 460 -18 714 -29 952 -50 1076 -11 64 -25 125 -30 135 -14 27 -43 25 -89
-5 -81 -54 -149 -37 -191 49 -30 63 -21 109 37 186 44 59 45 61 38 118 -6 55
-5 60 49 164 65 123 107 245 135 390 28 146 74 555 66 595 -11 58 -42 84 -112
92 -83 10 -96 22 -90 85 4 43 10 55 48 90 25 23 66 56 92 74 30 20 54 46 63
68 16 37 12 70 -24 207 -7 28 -6 52 4 90 28 106 35 259 24 531 -6 144 -18 296
-26 339 -34 177 -120 348 -237 473 -155 167 -356 257 -659 299 -227 30 -364
37 -909 42 l-555 5 -30 -25z m706 -254 c0 -11 -37 -43 -51 -43 -3 0 -14 18
-24 39 -16 37 -15 96 2 125 6 9 73 -101 73 -121z m315 -62 c3 -5 1 -12 -5 -16
-5 -3 -10 1 -10 9 0 18 6 21 15 7z m-744 -101 c65 -20 72 -25 196 -151 140
-143 190 -209 223 -296 29 -77 28 -129 -4 -192 -24 -46 -30 -51 -59 -51 -17 0
-79 14 -137 31 -116 33 -163 33 -215 -1 -64 -42 -96 -16 -55 45 33 50 26 67
-71 177 -103 116 -141 186 -147 270 -4 54 -2 60 27 87 24 23 149 96 170 100 2
1 34 -8 72 -19z m593 -59 c16 -18 16 -20 -12 -39 -22 -16 -32 -18 -40 -10 -17
17 -15 46 6 57 24 14 26 14 46 -8z m1166 -227 c0 -15 -27 -30 -36 -21 -3 3 -3
15 1 26 7 22 35 18 35 -5z m-213 -6 c-3 -8 -6 -5 -6 6 -1 11 2 17 5 13 3 -3 4
-12 1 -19z m-541 -172 c65 -30 120 -95 140 -164 14 -48 15 -68 3 -171 -8 -67
-13 -219 -13 -361 1 -277 8 -320 71 -441 53 -102 52 -152 -7 -279 -42 -92 -44
-98 -47 -210 -2 -63 -10 -150 -18 -193 -21 -104 -82 -311 -105 -356 -39 -77
-112 -121 -199 -121 -63 0 -98 13 -138 52 -53 51 -59 85 -30 176 36 109 38
142 31 350 -8 212 -12 222 -85 222 -47 0 -113 35 -103 53 17 30 39 46 68 52
59 12 87 28 103 59 23 43 27 189 15 532 -11 320 -14 335 -82 355 -34 10 -40
16 -40 39 0 21 8 30 40 44 23 10 47 30 55 47 19 35 38 174 29 212 -3 16 -3 44
1 64 9 48 45 62 165 63 79 0 103 -4 146 -24z m744 -6 c0 -5 -2 -10 -4 -10 -3
0 -8 5 -11 10 -3 6 -1 10 4 10 6 0 11 -4 11 -10z m-279 -358 l41 -18 -92 -48
c-73 -39 -94 -45 -105 -36 -29 24 -11 99 29 119 25 12 72 6 127 -17z m-1402
-218 c87 -30 159 -29 214 4 37 23 84 14 73 -14 -3 -9 -6 -22 -6 -30 0 -7 -17
-21 -37 -29 -49 -21 -90 -61 -98 -95 -3 -15 -19 -39 -34 -54 l-28 -27 -109 83
c-60 46 -110 91 -112 101 -4 20 35 87 51 87 6 0 45 -12 86 -26z m1906 5 c4
-13 0 -27 -11 -40 -23 -26 -32 -24 -40 8 -5 19 -2 30 11 40 25 18 33 17 40 -8z
m-1420 -249 c4 -12 -3 -36 -17 -63 -18 -33 -38 -50 -96 -80 -62 -33 -73 -36
-78 -22 -17 44 111 185 168 185 9 0 20 -9 23 -20z m812 -357 c3 -7 -5 -17 -16
-23 -18 -9 -21 -8 -21 8 0 32 28 43 37 15z m203 -213 c0 -5 -4 -10 -10 -10 -5
0 -10 5 -10 10 0 6 5 10 10 10 6 0 10 -4 10 -10z m-1386 -186 c10 -9 16 -33
16 -60 0 -79 -57 -105 -152 -67 -24 9 -45 18 -47 19 -8 7 62 80 96 101 45 27
66 29 87 7z m1181 -4 c3 -6 -1 -13 -10 -16 -19 -8 -30 0 -20 15 8 14 22 14 30
1z m218 -184 c17 -13 17 -15 -5 -30 -19 -14 -24 -14 -37 -2 -16 16 -8 46 11
46 7 0 21 -7 31 -14z m181 -179 c16 -12 14 -47 -3 -47 -19 0 -42 27 -35 43 7
20 14 21 38 4z m-1974 -16 c0 -5 -6 -14 -14 -20 -10 -9 -15 -8 -19 3 -3 8 -3
17 0 20 9 9 33 7 33 -3z m795 -790 c3 -5 1 -12 -4 -15 -5 -3 -11 1 -15 9 -6
16 9 21 19 6z m-600 -696 c0 -11 -8 -21 -17 -23 -14 -3 -18 3 -18 23 0 20 4
26 18 23 9 -2 17 -12 17 -23z m1615 -315 c0 -5 -7 -10 -16 -10 -8 0 -12 5 -9
10 3 6 10 10 16 10 5 0 9 -4 9 -10z m360 -10 c0 -5 -4 -10 -9 -10 -6 0 -13 5
-16 10 -3 6 1 10 9 10 9 0 16 -4 16 -10z m-202 -143 c7 -8 8 -18 1 -27 -8 -13
-11 -12 -24 4 -22 29 0 51 23 23z m-1741 -104 c52 -65 55 -77 32 -107 -24 -30
-69 -56 -98 -56 -29 0 -64 49 -56 80 7 25 74 120 85 120 4 0 20 -17 37 -37z
m1343 -738 c0 -8 -9 -15 -20 -15 -20 0 -26 11 -13 23 12 13 33 7 33 -8z
m-1370 -164 c0 -6 -4 -13 -10 -16 -5 -3 -10 1 -10 9 0 9 5 16 10 16 6 0 10 -4
10 -9z m-35 -297 c0 -22 -32 -31 -49 -14 -8 8 -6 15 9 26 24 18 40 13 40 -12z
m1995 -114 c0 -5 -5 -10 -11 -10 -5 0 -7 5 -4 10 3 6 8 10 11 10 2 0 4 -4 4
-10z m-575 -191 c0 -7 -8 -15 -17 -17 -18 -3 -25 18 -11 32 10 10 28 1 28 -15z
m-1555 -39 c7 -13 4 -22 -11 -36 -19 -17 -20 -17 -41 4 -21 20 -21 22 -4 41
20 22 41 18 56 -9z m1931 17 c-1 -12 -15 -9 -19 4 -3 6 1 10 8 8 6 -3 11 -8
11 -12z m-1745 -171 c15 -12 17 -18 8 -33 -14 -22 -41 -28 -59 -13 -12 10 -12
15 2 36 18 28 23 29 49 10z m1961 -4 c17 -11 -1 -36 -21 -29 -9 4 -13 13 -10
22 7 17 13 18 31 7z m-1772 -183 c4 -6 -1 -19 -11 -30 -17 -19 -18 -19 -41 3
-21 20 -22 23 -7 39 17 19 44 13 59 -12z m1160 -19 c3 -5 1 -10 -4 -10 -6 0
-11 5 -11 10 0 6 2 10 4 10 3 0 8 -4 11 -10z"/>
<path d="M17683 10251 c-267 -7 -263 -5 -274 -123 -9 -86 -9 -3340 0 -5373 6
-1501 5 -1460 49 -1484 10 -5 361 -12 822 -16 797 -7 970 -3 1073 26 66 18 67
24 67 473 0 373 -1 395 -19 417 l-19 24 -459 0 c-486 0 -494 1 -509 47 -4 13
-8 163 -8 333 -2 324 -4 343 -46 365 -29 15 -25 58 10 125 35 66 37 97 15 240
-15 102 -14 120 12 193 12 31 14 60 9 107 -8 84 -12 91 -52 116 -40 24 -44 52
-10 74 57 38 59 131 5 288 l-31 91 31 56 c17 31 35 79 41 107 7 31 21 60 36
74 25 24 26 24 302 24 152 1 285 5 295 9 10 5 23 20 28 33 5 13 9 202 9 419 0
429 -2 444 -56 464 -13 5 -134 10 -268 11 -237 0 -245 0 -321 -26 -73 -24 -79
-25 -96 -9 -11 9 -19 21 -19 27 0 5 23 30 50 56 33 31 50 55 51 72 0 13 1 411
2 884 2 970 -4 902 79 923 95 24 222 33 333 23 61 -5 197 -7 303 -4 238 7 233
5 240 119 2 47 -4 150 -17 256 -27 224 -27 312 0 417 24 94 18 124 -27 141
-27 10 -1221 11 -1631 1z m267 -121 c0 -5 -5 -10 -11 -10 -5 0 -7 5 -4 10 3 6
8 10 11 10 2 0 4 -4 4 -10z m238 -158 l33 -18 -23 -20 c-38 -34 -48 -37 -69
-18 -22 20 -25 44 -7 62 16 16 26 15 66 -6z m181 -206 c27 -43 26 -57 -4 -78
-23 -17 -24 -17 -49 13 -31 37 -31 39 -5 73 27 34 33 33 58 -8z m-823 -11 c-3
-9 -11 -13 -16 -10 -8 5 -7 11 1 21 14 18 24 11 15 -11z m423 -436 c-19 -12
-26 -11 -35 3 -4 6 1 17 12 25 15 11 19 11 27 -3 6 -11 5 -19 -4 -25z m387 30
c10 -17 -13 -36 -27 -22 -12 12 -4 33 11 33 5 0 12 -5 16 -11z m-206 -223
c-14 -14 -24 0 -16 21 6 15 8 15 16 3 6 -9 5 -19 0 -24z m203 -181 c4 -8 3
-16 -1 -19 -13 -8 -35 11 -28 23 10 15 23 14 29 -4z m-576 -191 c9 -23 -19
-38 -34 -17 -7 9 -10 20 -7 24 9 15 34 10 41 -7z m403 -4 c0 -14 -20 -22 -37
-16 -12 5 -13 9 -3 21 11 14 40 10 40 -5z m-232 -199 c3 -8 -1 -12 -9 -9 -7 2
-15 10 -17 17 -3 8 1 12 9 9 7 -2 15 -10 17 -17z m-383 -1 c-3 -5 -13 -10 -21
-10 -8 0 -12 5 -9 10 3 6 13 10 21 10 8 0 12 -4 9 -10z m215 -166 c16 -30 4
-59 -25 -59 -31 0 -40 29 -19 58 24 33 27 33 44 1z m386 -5 c20 -22 13 -43
-19 -63 -12 -8 -21 -7 -33 6 -15 15 -15 18 2 47 22 37 25 37 50 10z m-216
-229 c0 -5 -4 -10 -10 -10 -5 0 -10 5 -10 10 0 6 5 10 10 10 6 0 10 -4 10 -10z
m224 -163 c16 -12 17 -18 7 -50 -11 -33 -15 -36 -32 -26 -28 14 -34 36 -19 65
15 28 20 29 44 11z m-394 -37 c0 -5 -9 -10 -20 -10 -11 0 -20 5 -20 10 0 6 9
10 20 10 11 0 20 -4 20 -10z m191 -166 c17 -15 17 -18 2 -40 -18 -29 -39 -31
-52 -6 -7 14 -6 25 5 40 18 26 22 27 45 6z m-411 -34 c0 -5 -4 -10 -9 -10 -6
0 -13 5 -16 10 -3 6 1 10 9 10 9 0 16 -4 16 -10z m238 -156 l37 -16 -48 -24
c-51 -27 -73 -26 -84 2 -4 11 2 24 16 36 28 22 32 22 79 2z m202 -251 c0 -18
-47 -28 -65 -13 -20 17 -19 47 3 59 13 7 23 4 40 -11 12 -12 22 -27 22 -35z
m-450 13 c0 -3 -4 -8 -10 -11 -5 -3 -10 -1 -10 4 0 6 5 11 10 11 6 0 10 -2 10
-4z m225 -169 l35 -24 -28 -26 c-35 -34 -42 -34 -76 2 -24 26 -26 31 -14 50
17 27 41 27 83 -2z m369 -2 c21 -16 21 -17 -11 -34 -19 -10 -24 -8 -33 9 -20
37 8 52 44 25z m406 -19 c0 -8 -4 -17 -8 -20 -13 -8 -35 11 -28 23 10 16 36
14 36 -3z m398 -3 c-2 -10 -10 -18 -18 -18 -8 0 -16 8 -18 18 -2 12 3 17 18
17 15 0 20 -5 18 -17z m-567 -175 c10 -18 4 -34 -25 -72 -14 -18 -16 -18 -45
4 -38 26 -38 37 -3 82 25 34 28 35 45 20 11 -9 23 -25 28 -34z m429 -12 c0 -5
-10 -20 -21 -33 l-22 -22 -28 20 c-35 24 -36 38 -8 73 l22 27 28 -27 c16 -15
29 -32 29 -38z m-1252 -8 c17 -17 15 -28 -7 -28 -19 0 -35 23 -24 34 9 9 18 7
31 -6z m997 -202 c17 -12 18 -17 6 -40 -14 -26 -18 -25 -61 3 -12 8 -12 13 4
30 23 25 26 25 51 7z m-991 -562 c33 -16 34 -18 19 -40 -19 -29 -27 -30 -69
-3 -29 18 -32 23 -21 40 14 23 26 24 71 3z m616 -224 c10 -18 8 -20 -19 -20
-34 0 -51 18 -30 31 22 14 38 10 49 -11z m-410 -10 c0 -5 -4 -10 -9 -10 -6 0
-13 5 -16 10 -3 6 1 10 9 10 9 0 16 -4 16 -10z m212 -177 c18 -16 18 -17 -4
-40 -20 -21 -23 -22 -40 -6 -21 19 -23 34 -6 51 16 16 28 15 50 -5z m168 -223
c0 -5 -4 -10 -10 -10 -5 0 -10 5 -10 10 0 6 5 10 10 10 6 0 10 -4 10 -10z
m-585 -570 c11 -17 -5 -32 -21 -19 -7 6 -11 15 -8 20 7 12 21 11 29 -1z m190
-230 c3 -5 2 -10 -4 -10 -5 0 -13 5 -16 10 -3 6 -2 10 4 10 5 0 13 -4 16 -10z
m595 -601 c0 -24 -23 -21 -28 4 -2 10 3 17 12 17 10 0 16 -9 16 -21z m603
-185 c-5 -14 -25 -19 -36 -8 -3 4 -2 15 4 26 8 15 13 17 24 8 8 -6 11 -18 8
-26z m-1003 -173 c0 -6 -4 -13 -10 -16 -5 -3 -10 1 -10 9 0 9 5 16 10 16 6 0
10 -4 10 -9z m1182 -33 c-6 -6 -15 -8 -19 -4 -4 4 -1 11 7 16 19 12 27 3 12
-12z m-736 -144 l65 -27 -32 -33 c-18 -19 -41 -36 -51 -40 -19 -6 -118 43
-118 58 0 24 32 68 50 68 11 0 49 -12 86 -26z m-838 -207 c7 -8 7 -18 2 -27
-8 -13 -11 -13 -26 2 -9 9 -13 21 -10 27 9 15 21 14 34 -2z m417 -17 c0 -8 -8
-16 -17 -18 -13 -2 -18 3 -18 18 0 15 5 20 18 18 9 -2 17 -10 17 -18z m1154 1
c8 -15 7 -20 -6 -25 -17 -7 -33 9 -33 32 0 19 28 14 39 -7z m-391 -13 c-5 -15
-23 -11 -26 6 -2 11 2 14 13 10 9 -4 14 -11 13 -16z"/>
<path d="M20273 10245 c-11 -8 -23 -25 -26 -37 -4 -13 -22 -228 -42 -478 -40
-518 -46 -578 -120 -1345 -69 -704 -106 -1112 -200 -2190 -41 -473 -116 -1315
-166 -1872 -106 -1163 -106 -1056 3 -1068 90 -9 859 -1 881 9 10 5 23 20 28
33 5 13 20 230 34 481 49 882 52 928 65 953 7 13 18 27 24 31 6 4 77 8 157 8
131 0 149 -2 171 -20 14 -11 28 -32 31 -47 3 -15 20 -296 37 -623 17 -327 35
-605 41 -618 5 -14 20 -25 39 -28 39 -8 40 -39 4 -100 -25 -43 -26 -47 -10
-62 15 -15 60 -17 439 -20 232 -2 441 0 465 3 30 4 47 14 59 31 15 24 13 64
-46 672 -66 680 -134 1368 -175 1762 -34 315 -115 1158 -231 2390 -96 1020
-190 1977 -202 2059 -3 27 -15 54 -29 68 l-23 23 -593 0 c-507 0 -597 -2 -615
-15z m686 -2665 c18 -316 45 -813 61 -1104 31 -541 37 -747 24 -779 -10 -27
-46 -37 -137 -37 -93 0 -127 13 -138 52 -7 28 115 2400 127 2465 l7 38 13 -30
c7 -19 24 -250 43 -605z"/>
<path d="M22725 10249 c-17 -4 -46 -24 -65 -44 -40 -42 -54 -43 -76 -9 -22 33
-64 54 -109 54 -60 0 -62 -11 -68 -463 -4 -243 -3 -418 3 -449 11 -58 49 -113
93 -137 58 -32 87 -62 87 -91 0 -38 -23 -59 -72 -67 -24 -3 -54 -18 -72 -34
l-31 -27 -8 -1049 c-6 -853 -2 -3493 6 -4258 1 -99 0 -224 -3 -277 -4 -84 -3
-100 13 -115 17 -17 67 -18 962 -18 894 0 945 1 962 18 17 16 18 47 18 420 0
443 -1 447 -61 478 -27 13 -92 16 -433 17 -411 3 -431 5 -447 42 -8 19 -19
369 -16 507 2 92 0 108 -28 177 -33 85 -36 112 -17 141 39 56 40 77 45 675 8
935 2 2551 -10 2800 -15 286 -14 699 2 995 15 296 16 613 0 660 -21 63 -33 65
-357 64 -158 0 -302 -5 -318 -10z m128 -635 c9 -9 -4 -34 -18 -34 -16 0 -37
25 -28 33 8 9 38 9 46 1z m-238 -214 c3 -5 -1 -10 -9 -10 -8 0 -18 5 -21 10
-3 6 1 10 9 10 8 0 18 -4 21 -10z m195 -984 c0 -3 -4 -8 -10 -11 -5 -3 -10 -1
-10 4 0 6 5 11 10 11 6 0 10 -2 10 -4z m234 -178 c8 -14 7 -22 -7 -35 -16 -16
-18 -16 -39 4 -18 19 -19 24 -8 38 16 19 39 16 54 -7z m159 -231 c-3 -5 -9 -3
-14 4 -4 7 -5 17 -2 22 3 5 9 3 14 -4 4 -7 5 -17 2 -22z m-193 -187 c0 -5 -4
-10 -10 -10 -5 0 -10 5 -10 10 0 6 5 10 10 10 6 0 10 -4 10 -10z m-191 -141
c38 -61 38 -74 5 -96 -26 -17 -27 -16 -50 11 -13 15 -24 34 -24 43 0 24 22 93
30 93 4 0 21 -23 39 -51z m326 -379 c86 -33 87 -212 2 -274 -40 -30 -141 -34
-184 -7 -45 28 -63 61 -70 124 -10 96 21 148 100 168 36 9 115 3 152 -11z
m-320 -80 c-3 -5 -13 -10 -21 -10 -8 0 -14 5 -14 10 0 6 9 10 21 10 11 0 17
-4 14 -10z m-196 -174 l23 -24 -22 -12 c-19 -10 -26 -9 -43 8 -17 18 -18 23
-7 36 17 21 23 20 49 -8z m411 -426 c0 -14 -7 -20 -24 -20 -25 0 -43 25 -23
34 28 11 47 5 47 -14z m188 -250 c34 -28 62 -54 62 -58 0 -11 -162 -112 -180
-112 -9 0 -28 12 -42 28 -60 64 -64 115 -13 161 55 48 95 43 173 -19z m15
-716 c9 -10 -4 -34 -18 -34 -17 0 -28 17 -20 30 7 11 28 13 38 4z m-614 -183
c13 -8 7 -51 -7 -51 -20 1 -34 19 -27 39 7 23 13 25 34 12z m401 -420 c0 -5
-7 -11 -15 -15 -15 -5 -20 5 -8 17 9 10 23 9 23 -2z m-437 -331 l47 -69 -37
-25 -37 -26 -40 24 c-68 40 -72 54 -28 114 20 28 39 51 42 51 3 0 26 -31 53
-69z m455 -73 c2 -12 -3 -17 -17 -17 -12 0 -21 6 -21 13 0 31 32 34 38 4z
m956 -592 c4 -10 -1 -15 -14 -15 -11 0 -20 7 -20 15 0 8 6 15 14 15 8 0 16 -7
20 -15z m-173 -177 c10 -18 8 -24 -7 -35 -22 -16 -34 -13 -48 11 -9 13 -7 20
8 32 26 19 33 18 47 -8z m379 -24 c0 -16 -16 -19 -25 -4 -8 13 4 32 16 25 5
-4 9 -13 9 -21z"/>
</g>
</svg>
