<?xml version="1.0" standalone="no"?>
<!DOCTYPE svg PUBLIC "-//W3C//DTD SVG 20010904//EN"
 "http://www.w3.org/TR/2001/REC-SVG-20010904/DTD/svg10.dtd">
<svg version="1.0" xmlns="http://www.w3.org/2000/svg"
 width="3000.000000pt" height="3000.000000pt" viewBox="0 0 3000.000000 3000.000000"
 preserveAspectRatio="xMidYMid meet">

<g transform="translate(0.000000,3000.000000) scale(0.100000,-0.100000)"
fill="#000000" stroke="none">
<path d="M15205 25770 c-91 -14 -179 -41 -260 -80 -77 -37 -190 -115 -229
-158 l-19 -21 -53 47 c-65 58 -139 104 -241 147 -302 130 -709 63 -947 -156
l-60 -56 64 -7 c100 -11 148 -25 239 -68 65 -31 100 -56 160 -116 85 -85 127
-151 163 -257 l23 -70 0 -1500 0 -1500 -23 -85 c-40 -144 -109 -277 -205 -392
l-40 -48 42 -45 c89 -96 159 -226 205 -380 21 -70 21 -80 24 -1547 3 -1653 7
-1553 -69 -1708 -33 -67 -59 -102 -123 -166 -45 -44 -107 -95 -138 -113 -74
-41 -183 -78 -259 -87 -33 -4 -58 -11 -57 -15 8 -25 125 -106 213 -148 117
-57 185 -76 314 -91 258 -29 531 57 720 227 l45 40 78 -63 c197 -160 465 -230
724 -190 174 26 341 100 450 200 l49 44 -50 7 c-171 24 -295 84 -411 199 -64
64 -90 99 -123 166 -76 155 -72 56 -69 1708 l3 1477 28 88 c44 143 116 273
200 364 28 31 37 47 30 55 -6 7 -30 38 -54 68 -53 66 -119 191 -147 280 -48
151 -47 106 -47 1670 0 1365 1 1480 17 1537 48 174 164 320 319 403 69 37 193
70 263 70 l51 1 -58 53 c-189 171 -480 256 -742 216z"/>
<path d="M17003 25716 c-153 -29 -281 -88 -371 -170 l-55 -50 93 -19 c220 -43
401 -178 494 -369 71 -145 67 -31 64 -1699 l-3 -1504 -23 -73 c-41 -132 -118
-268 -199 -353 l-44 -46 40 -47 c86 -100 149 -213 197 -356 l29 -85 0 -1535 0
-1535 -27 -67 c-93 -233 -298 -386 -541 -405 l-78 -6 33 -34 c18 -19 60 -54
93 -78 226 -162 534 -219 809 -149 88 22 231 95 304 154 l63 52 57 -54 c125
-118 283 -198 477 -240 96 -20 314 -15 410 11 101 26 223 86 300 147 l59 48
-69 12 c-152 26 -251 80 -370 199 -74 73 -99 106 -133 175 -78 160 -72 -33
-70 2362 l3 2144 259 -666 c354 -909 792 -2039 1132 -2923 332 -863 320 -833
383 -939 243 -409 773 -766 1301 -879 154 -33 421 -34 533 -1 43 12 97 32 120
43 49 25 147 96 147 107 0 5 -26 13 -58 20 -122 25 -301 135 -389 239 -87 104
-148 222 -174 338 -12 49 -14 329 -14 1540 l0 1480 23 85 c39 146 97 252 192
350 l51 52 -55 71 c-71 94 -121 186 -155 289 -58 173 -56 98 -56 1698 0 1403
1 1478 18 1534 50 160 152 285 287 348 90 43 156 58 258 58 l76 0 -54 56
c-203 207 -483 318 -759 301 -158 -10 -291 -57 -423 -150 l-58 -40 -73 70
c-129 122 -259 196 -424 240 -83 22 -120 26 -243 27 -123 1 -157 -3 -225 -22
-94 -27 -215 -90 -276 -142 l-43 -37 74 -17 c257 -58 467 -262 547 -531 17
-57 18 -183 21 -2215 1 -1253 -1 -2150 -7 -2145 -4 6 -77 188 -161 405 -730
1894 -1544 3970 -1592 4063 -204 391 -691 736 -1200 848 -121 27 -418 35 -525
15z"/>
<path d="M9745 25520 c-99 -11 -286 -31 -415 -45 -129 -14 -260 -30 -290 -36
-186 -35 -365 -128 -507 -262 l-72 -68 -54 40 c-67 51 -185 106 -274 128 -108
26 -303 22 -424 -10 -174 -46 -330 -131 -458 -252 -39 -37 -71 -71 -71 -76 0
-5 36 -9 80 -9 164 0 294 -52 400 -159 77 -78 113 -142 140 -247 19 -75 20
-115 20 -1524 0 -1567 1 -1525 -54 -1687 -33 -98 -100 -224 -163 -307 l-52
-70 58 -62 c102 -109 164 -232 196 -390 14 -70 15 -241 13 -1559 l-3 -1480
-27 -80 c-15 -44 -44 -109 -65 -145 -43 -72 -152 -193 -222 -244 -69 -51 -182
-105 -262 -125 l-71 -18 39 -30 c184 -144 455 -188 723 -119 173 44 342 139
468 263 37 36 69 60 76 56 6 -4 31 -22 55 -41 63 -47 147 -88 238 -114 68 -20
100 -23 248 -22 156 0 177 2 260 28 171 52 339 151 450 265 l39 41 -80 0
c-263 0 -484 171 -549 425 -13 52 -15 241 -15 1486 l0 1427 118 13 c64 7 137
13 161 13 l45 1 227 -545 c623 -1496 892 -2150 906 -2204 10 -41 14 -91 11
-160 -3 -88 -8 -110 -35 -169 -57 -120 -160 -197 -315 -235 -70 -18 -70 -18
-47 -34 101 -66 295 -142 434 -169 103 -21 322 -18 418 4 153 36 299 129 393
251 l30 38 59 -37 c199 -128 444 -193 684 -182 143 6 223 26 336 85 67 35 180
134 204 180 10 19 7 20 -62 27 -236 23 -462 131 -637 304 -97 97 -165 200
-223 337 -25 60 -286 687 -580 1394 -295 707 -543 1302 -551 1322 l-16 37 148
75 c469 238 839 568 1121 1001 87 133 215 390 269 540 224 619 195 1304 -78
1873 -229 477 -581 833 -1045 1058 -211 102 -392 160 -625 200 -152 26 -504
28 -725 4z m535 -1314 c675 -188 981 -944 650 -1606 -60 -122 -143 -234 -250
-340 -119 -119 -214 -188 -357 -259 -184 -92 -293 -117 -683 -156 -140 -14
-311 -32 -380 -40 -69 -8 -128 -15 -132 -15 -5 0 -8 533 -8 1184 l0 1185 56 7
c636 79 924 90 1104 40z"/>
<path d="M9915 24153 c-72 -5 -623 -62 -667 -69 l-38 -6 0 -1095 0 -1096 46 7
c26 3 57 6 70 6 l24 0 0 1020 c0 561 2 1020 5 1020 3 0 184 18 402 40 219 22
437 40 484 40 74 0 215 -18 284 -36 l20 -5 -20 16 c-33 27 -150 83 -227 109
-111 37 -265 57 -383 49z"/>
<path d="M15876 25393 c-138 -29 -233 -80 -317 -170 -51 -55 -71 -88 -102
-172 -28 -78 -29 -190 -19 -1746 9 -1310 9 -1321 31 -1398 34 -124 80 -214
160 -317 17 -21 16 -13 -7 60 l-27 85 0 1500 0 1500 22 70 c52 163 177 312
324 383 96 48 182 72 252 72 27 0 47 3 45 8 -1 4 -35 37 -74 75 l-71 67 -74
-1 c-41 0 -105 -7 -143 -16z"/>
<path d="M13564 25331 c63 -64 73 -70 120 -76 28 -3 65 -9 81 -12 l30 -5 -34
35 c-40 42 -124 89 -200 111 -30 9 -57 16 -60 16 -3 0 25 -31 63 -69z"/>
<path d="M16730 25344 c91 -98 95 -101 146 -108 27 -4 59 -10 72 -13 39 -9 24
14 -40 63 -63 47 -142 87 -195 100 -27 6 -26 5 17 -42z"/>
<path d="M19953 25170 c7 -11 39 -46 70 -78 52 -56 61 -61 138 -80 l81 -20
-38 39 c-49 50 -143 111 -212 138 -53 21 -53 21 -39 1z"/>
<path d="M23341 25066 c-103 -20 -182 -52 -267 -108 -41 -26 -74 -49 -74 -52
0 -2 24 -9 53 -16 28 -6 97 -34 152 -60 165 -81 284 -199 365 -365 86 -176 81
-62 78 -1730 l-3 -1470 -22 -78 c-33 -115 -104 -245 -178 -324 l-63 -68 55
-75 c70 -96 145 -249 180 -370 l28 -95 3 -1480 c3 -1636 6 -1553 -60 -1687
-42 -84 -142 -183 -229 -225 -87 -42 -213 -67 -298 -60 l-66 6 96 -92 c145
-139 317 -230 514 -272 114 -25 297 -23 396 3 85 23 199 77 246 116 17 14 34
26 37 26 4 0 32 -27 63 -60 30 -33 90 -86 132 -118 335 -252 767 -294 1047
-101 l48 33 -65 21 c-252 85 -444 274 -533 523 l-31 87 -3 1453 c-2 1386 -2
1453 15 1448 10 -3 81 -17 158 -31 77 -15 141 -28 142 -29 10 -10 1110 -3041
1124 -3096 7 -30 13 -98 13 -151 1 -91 -1 -100 -34 -164 -59 -115 -162 -165
-313 -151 -39 4 -66 2 -63 -3 13 -20 177 -152 254 -205 158 -107 350 -190 512
-220 192 -37 339 -4 449 99 l50 47 73 -64 c212 -189 396 -298 628 -374 75 -24
101 -28 220 -28 119 -1 142 2 192 22 51 20 158 103 158 121 0 4 -20 13 -45 20
-60 18 -175 76 -260 133 -214 142 -433 390 -540 613 -19 39 -64 153 -100 255
-345 962 -722 2006 -1054 2922 -127 350 -231 642 -231 648 0 7 151 362 336
789 1105 2548 1041 2410 1165 2525 166 154 416 236 632 207 49 -6 91 -10 93
-8 8 8 -97 145 -149 194 -163 154 -377 233 -635 233 -144 0 -240 -17 -367 -66
-49 -20 -97 -37 -105 -39 -10 -3 -27 15 -50 51 -48 76 -173 193 -255 240 -269
150 -619 161 -904 28 l-76 -36 67 -23 c204 -69 331 -222 354 -425 13 -111 -8
-185 -131 -470 -421 -978 -1003 -2321 -1007 -2325 -2 -2 -73 9 -158 25 -84 17
-155 30 -157 30 -1 0 -3 638 -3 1418 0 1236 2 1425 15 1477 38 150 127 265
254 328 91 46 164 60 272 55 l88 -4 -30 38 c-79 99 -261 232 -394 287 -122 51
-218 72 -350 78 -181 7 -315 -27 -441 -113 l-65 -44 -79 79 c-139 139 -312
238 -495 282 -107 26 -279 33 -374 15z"/>
<path d="M22221 24885 c-129 -37 -241 -126 -295 -238 -59 -119 -57 -65 -54
-1655 l3 -1457 22 -77 c12 -43 36 -110 52 -149 29 -69 110 -204 118 -196 2 2
-4 31 -14 63 -17 55 -18 160 -21 1539 -3 1636 -5 1566 60 1705 40 85 159 206
240 243 83 39 162 57 251 57 43 0 77 3 75 8 -2 4 -23 37 -47 75 -53 80 -67 86
-226 92 -80 4 -125 1 -164 -10z"/>
<path d="M7338 24790 l70 -60 78 0 c77 0 77 0 59 20 -36 39 -188 100 -253 100
-19 0 -10 -11 46 -60z"/>
<path d="M23110 24786 c0 -3 31 -41 68 -83 65 -74 73 -79 140 -99 40 -12 72
-18 72 -14 0 17 -124 121 -183 154 -70 39 -97 51 -97 42z"/>
<path d="M18890 24729 c0 -7 266 -708 487 -1284 63 -165 222 -570 353 -900
131 -330 334 -847 451 -1150 204 -523 214 -548 217 -499 3 46 -21 111 -237
670 -833 2154 -1151 2965 -1193 3044 -38 72 -77 132 -78 119z"/>
<path d="M4310 24675 c-111 -14 -166 -25 -559 -111 -437 -96 -637 -143 -705
-166 -156 -53 -296 -145 -431 -282 l-100 -102 -59 38 c-33 21 -96 50 -140 65
-70 23 -98 26 -211 27 -112 0 -144 -3 -228 -27 -195 -54 -363 -153 -513 -302
-50 -49 -96 -100 -102 -112 -12 -21 -11 -21 20 -12 18 5 74 9 124 9 144 0 238
-35 332 -123 62 -60 96 -112 126 -200 l21 -62 3 -1430 c3 -1518 2 -1552 -44
-1714 -29 -102 -115 -281 -176 -369 l-45 -63 68 -68 c48 -50 79 -93 112 -159
88 -176 82 -51 82 -1727 0 -1377 -1 -1485 -18 -1548 -67 -264 -285 -515 -535
-615 -40 -16 -74 -31 -77 -34 -10 -9 122 -79 190 -101 97 -31 313 -30 427 1
249 68 455 201 620 400 l28 33 32 -24 c101 -76 241 -117 396 -117 96 0 143 9
576 104 259 58 527 117 596 131 1058 228 1961 1116 2194 2156 57 257 59 282
66 1239 l6 885 27 89 c42 134 112 267 200 378 l29 37 -49 48 c-92 90 -157 207
-193 347 -19 76 -20 110 -20 820 -1 763 -8 996 -35 1151 -72 416 -245 757
-522 1026 -279 272 -612 432 -1010 484 -134 18 -369 18 -503 0z m255 -1343
c260 -88 427 -272 498 -550 22 -86 22 -93 22 -902 0 -875 0 -870 -53 -1030
-32 -99 -100 -230 -161 -310 l-49 -65 68 -71 c81 -85 149 -213 177 -331 17
-72 18 -138 18 -898 0 -763 -1 -826 -19 -905 -80 -368 -330 -692 -664 -860
-119 -60 -198 -84 -436 -136 -116 -25 -340 -74 -498 -110 -158 -35 -295 -64
-303 -64 -14 0 -15 132 -13 1258 l3 1257 27 98 c33 121 108 280 182 387 l55
79 -32 27 c-88 74 -164 200 -209 344 l-23 75 -3 1256 -3 1257 23 4 c13 3 178
40 368 83 666 149 648 146 800 142 119 -3 146 -8 225 -35z"/>
<path d="M4180 23274 c-109 -20 -820 -176 -893 -195 l-38 -10 3 -1207 c3
-1113 5 -1212 21 -1267 27 -93 91 -216 136 -259 l40 -39 -20 63 c-11 35 -24
104 -29 154 -12 117 -13 2423 -1 2430 10 6 356 83 776 173 199 42 288 56 379
60 138 7 136 11 -24 64 -79 26 -114 31 -210 34 -63 2 -126 2 -140 -1z"/>
<path d="M3451 20084 c-59 -82 -121 -198 -150 -281 -51 -152 -51 -148 -51
-1414 0 -905 3 -1179 12 -1179 6 0 38 5 70 12 l58 12 0 1006 c0 576 4 1052 10
1116 5 61 21 151 35 200 32 112 111 274 176 360 l49 65 -70 77 c-38 41 -70 79
-70 84 0 23 -25 1 -69 -58z"/>
<path d="M12244 24240 c92 -197 159 -428 192 -665 24 -164 24 -495 0 -665
-109 -801 -556 -1504 -1249 -1963 -69 -46 -182 -112 -251 -148 -69 -35 -126
-67 -126 -70 0 -4 124 -305 276 -670 152 -365 406 -979 565 -1364 311 -753
340 -819 394 -880 l36 -40 -16 40 c-26 64 -490 1183 -827 1994 -170 409 -307
746 -304 748 3 3 51 26 108 52 443 204 865 567 1142 984 535 804 576 1823 106
2610 -91 153 -106 165 -46 37z"/>
<path d="M25325 24336 c-150 -38 -237 -116 -286 -257 l-22 -64 2 -1150 c0
-632 4 -1256 7 -1386 l7 -237 55 -11 c30 -6 61 -11 69 -11 11 0 13 212 13
1233 0 1350 -1 1309 60 1432 89 181 259 280 477 279 l102 -1 -26 31 c-105 125
-121 139 -170 147 -72 12 -231 9 -288 -5z"/>
<path d="M26071 24233 c0 -4 22 -37 48 -73 43 -59 106 -109 139 -110 20 0 -14
57 -62 104 -43 41 -127 94 -125 79z"/>
<path d="M6270 23721 c56 -111 115 -291 144 -434 14 -67 28 -135 32 -152 4
-16 10 -437 14 -935 7 -1011 4 -960 80 -1115 22 -44 60 -103 85 -130 l45 -50
-15 42 c-31 94 -35 197 -35 994 0 501 -4 836 -11 897 -35 316 -143 623 -309
870 -34 51 -63 92 -66 92 -2 0 14 -36 36 -79z"/>
<path d="M28165 23655 c-113 -24 -226 -84 -304 -163 -37 -37 -81 -92 -98 -122
-17 -30 -165 -359 -328 -730 -884 -2008 -1058 -2406 -1057 -2420 1 -8 131
-370 290 -805 159 -434 462 -1265 672 -1845 210 -580 391 -1080 402 -1110 23
-60 78 -164 84 -157 6 5 -565 1599 -961 2687 -186 509 -340 932 -342 941 -7
24 1350 3117 1404 3198 94 144 244 253 428 311 83 26 253 37 335 22 30 -6 57
-9 58 -7 5 5 -60 101 -97 143 -22 26 -41 35 -97 48 -101 22 -303 27 -389 9z"/>
<path d="M1355 23613 c6 -5 38 -31 71 -56 65 -49 59 -48 172 -31 44 7 31 23
-48 58 -60 27 -217 50 -195 29z"/>
<path d="M18612 19769 c3 -1846 4 -1926 22 -1979 10 -30 30 -77 44 -105 29
-59 106 -159 110 -146 2 5 -2 36 -7 67 -8 39 -11 637 -11 1883 l0 1825 -76
185 c-42 102 -78 188 -80 190 -3 3 -3 -861 -2 -1920z"/>
<path d="M15640 21358 c-112 -132 -169 -248 -195 -393 -23 -131 -23 -2927 0
-3024 19 -79 72 -181 126 -241 39 -44 40 -44 33 -15 -4 17 -9 689 -11 1494 -4
1614 -6 1557 58 1721 32 83 101 195 167 270 l40 45 -47 60 c-27 33 -61 79 -76
103 -15 23 -31 42 -35 42 -4 0 -31 -28 -60 -62z"/>
<path d="M22115 20919 c-46 -37 -141 -164 -173 -231 -16 -35 -38 -94 -48 -133
-18 -67 -19 -132 -19 -1555 l0 -1485 27 -80 c27 -79 83 -183 116 -217 16 -16
17 74 17 1500 l0 1517 23 85 c37 141 116 284 200 364 l31 29 -40 53 c-23 29
-55 80 -73 114 l-33 61 -28 -22z"/>
<path d="M6667 20692 c-72 -97 -151 -252 -179 -357 -22 -79 -22 -96 -28 -990
-8 -1001 -5 -961 -74 -1232 -212 -829 -822 -1567 -1621 -1958 -302 -148 -355
-164 -1200 -351 -429 -96 -494 -108 -610 -113 l-130 -6 71 -32 c106 -47 215
-67 343 -60 83 4 194 24 516 95 226 49 478 104 560 122 544 115 983 343 1395
723 406 374 723 906 844 1412 60 256 59 233 66 1210 l6 900 27 100 c32 120
109 280 175 367 l48 64 -43 50 c-24 27 -56 68 -71 91 -15 24 -29 43 -32 43 -3
0 -31 -35 -63 -78z"/>
<path d="M9355 20435 c-5 -2 -40 -6 -77 -10 l-68 -7 0 -1381 c0 -1501 -2
-1428 56 -1542 14 -29 44 -71 66 -92 l39 -38 -8 55 c-4 30 -8 685 -8 1455 l0
1400 38 3 c20 2 37 8 37 15 0 18 -52 147 -59 146 -3 0 -10 -2 -16 -4z"/>
<path d="M25012 18389 l3 -1384 27 -80 c28 -82 77 -172 124 -228 l27 -32 -8
30 c-5 17 -10 674 -12 1461 l-3 1432 37 -8 c21 -5 39 -7 41 -5 2 2 -8 40 -23
84 l-26 80 -52 11 c-29 6 -71 14 -95 17 l-43 6 3 -1384z"/>
<path d="M16020 17308 c-241 -217 -591 -296 -930 -209 -41 10 -76 18 -78 16
-8 -7 159 -108 225 -135 134 -56 214 -72 358 -73 207 -1 373 51 549 173 121
84 120 72 13 177 l-92 92 -45 -41z"/>
<path d="M12809 17284 c-28 -53 -159 -163 -243 -204 -138 -68 -214 -84 -411
-84 -176 -1 -252 10 -383 55 -30 10 -57 17 -59 15 -3 -2 55 -33 129 -69 225
-110 374 -149 568 -150 149 0 230 17 347 73 87 42 186 125 224 187 l22 35 -84
84 c-46 46 -86 84 -90 84 -3 0 -12 -12 -20 -26z"/>
<path d="M14635 17253 c-85 -60 -224 -128 -330 -159 -129 -38 -346 -45 -490
-15 -54 11 -101 19 -102 17 -7 -7 110 -79 182 -112 121 -56 229 -78 380 -78
159 0 268 24 400 89 87 43 224 138 232 162 3 7 -14 22 -37 33 -23 12 -72 41
-109 64 l-66 42 -60 -43z"/>
<path d="M17825 17184 c-69 -49 -178 -99 -282 -131 -82 -25 -100 -27 -268 -27
-162 0 -189 3 -275 26 -52 14 -97 24 -98 23 -9 -8 103 -81 193 -125 163 -80
230 -95 425 -94 158 0 169 2 260 32 107 36 215 93 277 147 l43 36 -108 72
c-59 40 -109 73 -112 74 -3 1 -27 -14 -55 -33z"/>
<path d="M19224 17169 c-31 -34 -174 -125 -242 -153 -214 -90 -487 -95 -720
-15 -30 10 -57 17 -60 15 -9 -10 130 -102 223 -147 126 -62 231 -89 367 -96
214 -11 408 47 587 177 l54 38 -78 84 c-43 46 -86 91 -95 101 -16 17 -17 17
-36 -4z"/>
<path d="M11450 17153 c-67 -85 -239 -186 -385 -224 -64 -17 -111 -22 -235
-22 -161 -1 -257 12 -376 53 -30 11 -54 17 -54 15 0 -11 224 -116 306 -143
142 -48 237 -65 369 -66 219 -1 386 57 518 184 40 37 80 81 89 97 l17 30 -38
21 c-30 17 -179 82 -188 82 -1 0 -11 -12 -23 -27z"/>
<path d="M9755 17033 c-137 -130 -310 -224 -501 -274 -73 -19 -115 -23 -234
-24 -80 0 -167 3 -195 7 -47 7 -49 7 -30 -8 33 -27 176 -91 245 -111 51 -14
100 -18 225 -17 145 0 168 3 249 28 157 48 312 137 444 257 l52 47 -89 81
c-49 44 -91 81 -93 81 -1 -1 -34 -31 -73 -67z"/>
<path d="M8414 16849 c-151 -131 -349 -228 -549 -270 -67 -14 -276 -18 -345
-6 l-45 7 25 -20 c32 -25 150 -75 232 -98 96 -26 336 -23 442 6 99 27 250 99
330 156 69 50 184 152 176 157 -3 2 -53 28 -112 56 l-107 53 -47 -41z"/>
<path d="M21000 16870 c14 -11 70 -51 126 -89 475 -322 1038 -436 1379 -281
57 26 165 98 165 111 0 3 -39 51 -86 105 -48 54 -88 100 -89 102 -2 2 -30 -18
-62 -44 -119 -97 -259 -143 -463 -151 -273 -11 -542 53 -870 208 -69 33 -114
50 -100 39z"/>
<path d="M24195 16425 c-139 -68 -201 -80 -400 -79 -156 0 -177 3 -260 28 -49
15 -121 40 -160 56 l-70 29 50 -46 c73 -67 210 -155 306 -195 148 -62 206 -73
379 -72 139 0 163 3 232 26 108 36 247 117 227 131 -40 29 -106 81 -150 119
-31 26 -58 48 -60 47 -2 0 -44 -20 -94 -44z"/>
<path d="M25585 16233 c-64 -45 -154 -87 -236 -109 -49 -14 -101 -18 -219 -18
-179 0 -267 17 -428 84 l-96 40 29 -31 c55 -59 188 -150 289 -199 147 -71 225
-91 386 -97 117 -5 148 -2 220 16 86 21 207 74 261 112 l29 20 -81 99 c-45 55
-87 104 -93 109 -7 6 -29 -4 -61 -26z"/>
<path d="M9921 16062 c-41 -97 -157 -375 -258 -617 -298 -714 -403 -995 -439
-1180 -15 -75 -16 -101 -6 -177 20 -159 84 -263 197 -319 233 -115 550 -6 659
226 29 61 27 75 -9 75 -36 0 -93 55 -101 97 -17 88 73 388 181 603 128 256
269 420 362 420 78 0 108 -48 100 -156 -7 -96 -29 -172 -100 -344 -33 -80 -78
-197 -100 -260 -40 -112 -41 -118 -41 -250 -1 -120 2 -142 23 -195 35 -86 133
-182 223 -218 307 -122 693 12 947 329 34 41 63 69 65 62 2 -7 9 -42 16 -78
56 -308 366 -438 738 -310 110 37 226 109 322 197 l78 73 6 -33 c20 -102 110
-208 210 -246 121 -45 307 -51 456 -15 119 29 267 109 383 205 20 17 37 29 37
26 0 -3 -22 -64 -50 -136 -71 -188 -138 -400 -157 -499 -14 -72 -15 -99 -5
-174 26 -207 136 -328 326 -358 215 -34 431 74 527 262 35 69 36 78 7 78 -37
0 -88 38 -105 78 -44 102 53 401 382 1187 64 154 134 313 155 355 92 182 220
338 320 391 65 34 168 34 204 0 38 -36 50 -83 43 -175 -22 -301 -260 -706
-539 -916 -90 -68 -234 -141 -321 -164 -33 -8 -62 -17 -65 -20 -11 -12 88 -95
150 -125 103 -50 176 -65 328 -65 156 -1 239 18 376 84 335 162 656 590 784
1048 99 351 41 582 -166 662 -47 18 -85 24 -184 28 -279 10 -482 -64 -667
-241 -54 -52 -81 -72 -74 -56 5 13 32 78 60 144 28 65 51 121 51 122 0 2 -170
3 -379 3 l-379 0 -20 -47 c-28 -66 -309 -743 -362 -873 -49 -118 -68 -151
-157 -266 -118 -154 -238 -239 -334 -237 -94 1 -136 59 -125 171 15 144 121
399 378 912 92 184 168 336 168 337 0 2 -171 3 -380 3 l-380 0 -75 -151 -76
-150 -40 80 c-76 152 -207 239 -387 256 -399 40 -836 -375 -1025 -972 -39
-121 -55 -152 -144 -263 -129 -162 -268 -246 -365 -220 -54 15 -81 51 -86 114
-6 72 19 151 119 389 98 231 133 335 154 451 18 105 19 157 4 228 -25 115 -82
187 -184 234 -52 25 -75 29 -180 32 -97 3 -137 0 -208 -17 -151 -36 -278 -111
-398 -234 -32 -33 -59 -57 -59 -53 0 4 97 233 215 510 118 277 215 506 215
510 0 3 -172 6 -382 6 l-383 0 -74 -178z m2996 -877 c21 -9 46 -23 57 -33 34
-30 76 -94 76 -116 0 -12 -25 -76 -55 -143 -81 -182 -169 -423 -201 -553 -28
-113 -30 -116 -85 -171 -128 -127 -260 -138 -332 -26 -39 59 -51 133 -44 272
13 265 112 507 274 668 104 104 217 141 310 102z"/>
<path d="M26250 15928 c203 -187 507 -356 715 -399 205 -43 360 -11 471 96
l47 44 101 -85 c191 -161 406 -291 576 -348 232 -77 441 -53 556 65 45 46 50
31 -58 177 l-70 94 -46 -44 c-79 -75 -141 -103 -262 -117 -251 -31 -590 102
-920 360 l-95 75 -54 -38 c-90 -63 -166 -83 -311 -83 -104 1 -142 5 -224 28
-127 35 -264 93 -380 162 l-91 55 45 -42z"/>
<path d="M2425 15708 c-236 -212 -485 -322 -760 -335 l-120 -6 60 -28 c145
-65 367 -77 535 -29 101 29 243 97 337 162 72 49 253 218 253 235 0 7 -197 84
-210 82 -3 0 -45 -37 -95 -81z"/>
<path d="M17845 15506 c-175 -33 -312 -104 -442 -229 -54 -52 -81 -72 -74 -56
5 13 32 78 60 144 28 65 51 121 51 122 0 2 -170 3 -379 3 l-379 0 -20 -47
c-82 -191 -397 -956 -501 -1218 -278 -696 -337 -896 -313 -1066 29 -201 140
-320 326 -349 215 -34 431 74 527 262 35 69 36 78 7 78 -37 0 -88 38 -105 78
-44 103 50 394 382 1187 170 407 247 547 368 663 86 82 135 106 219 107 57 0
70 -3 92 -24 38 -36 50 -83 43 -175 -22 -301 -260 -706 -539 -916 -90 -68
-234 -141 -321 -164 -33 -8 -62 -17 -65 -20 -12 -13 91 -97 160 -130 100 -47
171 -60 323 -60 151 0 236 19 371 84 335 162 656 590 784 1048 99 351 41 582
-166 662 -50 20 -81 24 -199 26 -87 2 -166 -2 -210 -10z"/>
<path d="M20117 15493 c-3 -5 -55 -129 -117 -278 -274 -663 -353 -839 -399
-900 -151 -198 -329 -295 -419 -228 -115 85 -52 297 300 1006 l197 397 -382 0
-382 0 -104 -217 c-195 -408 -324 -729 -377 -935 -23 -88 -26 -115 -22 -212 7
-147 30 -210 107 -287 65 -64 130 -93 250 -110 197 -28 413 23 591 140 30 20
61 40 68 44 20 13 -137 -301 -229 -455 -100 -169 -200 -283 -292 -334 -45 -25
-63 -29 -130 -29 -71 0 -81 2 -98 24 -24 30 -24 72 1 121 l20 39 -32 18 c-42
22 -203 30 -280 14 -75 -16 -183 -70 -239 -119 -159 -142 -164 -411 -9 -562
59 -58 182 -121 280 -145 100 -25 297 -30 410 -11 443 73 762 373 1106 1040
160 311 276 575 581 1326 102 250 203 497 224 549 21 51 39 97 39 102 0 11
-657 12 -663 2z"/>
<path d="M6620 15015 l0 -135 1050 0 1050 0 0 135 0 135 -1050 0 -1050 0 0
-135z"/>
<path d="M21200 15015 l0 -135 1050 0 1050 0 0 135 0 135 -1050 0 -1050 0 0
-135z"/>
<path d="M818 12280 c-26 -5 -70 -16 -98 -25 -56 -19 -173 -92 -165 -105 2 -4
22 -10 43 -13 96 -16 223 -108 279 -204 55 -94 57 -108 63 -423 6 -289 7 -297
34 -375 15 -44 42 -105 59 -135 69 -121 219 -244 356 -290 89 -30 96 -25 57
37 -74 118 -93 278 -47 396 29 74 115 168 184 201 68 33 117 40 223 31 l87 -7
-7 -822 c-5 -623 -10 -837 -21 -886 -17 -85 -53 -163 -102 -225 l-40 -51 34
-49 c41 -61 87 -179 102 -259 12 -67 13 -791 2 -1581 -8 -545 -8 -543 -78
-624 -62 -74 -163 -105 -260 -83 -41 10 -42 9 -31 -12 22 -42 154 -170 220
-213 176 -114 364 -133 496 -49 l36 23 44 -59 c94 -125 244 -228 383 -264 110
-28 228 -9 315 50 l32 21 -62 30 c-122 59 -240 204 -298 365 l-23 65 4 555 c1
305 7 782 11 1060 6 439 10 512 25 560 25 79 70 165 111 210 l35 39 -24 38
c-65 103 -108 217 -127 333 -7 44 -6 335 0 905 6 461 12 840 13 841 1 2 55 -3
120 -11 144 -17 205 -42 288 -121 170 -163 208 -450 84 -634 -19 -29 -35 -54
-35 -56 0 -8 116 -3 159 7 162 37 294 169 357 355 31 94 44 230 44 494 0 277
26 367 134 475 63 63 99 83 191 105 l70 17 -61 59 c-103 100 -210 144 -354
144 -122 0 -215 -34 -315 -116 l-56 -45 -65 60 c-67 63 -148 111 -222 131 -71
19 -1335 89 -1412 79 -75 -11 -164 -50 -233 -103 l-49 -37 -41 41 c-118 116
-312 178 -469 150z"/>
<path d="M27706 12200 c-481 -60 -881 -361 -1112 -836 -244 -501 -254 -1132
-28 -1614 105 -223 302 -452 541 -629 146 -109 216 -202 252 -338 l11 -41 73
25 c124 44 230 24 399 -74 315 -182 447 -373 448 -651 1 -360 -267 -733 -594
-827 -94 -27 -222 -18 -309 22 -165 78 -267 268 -267 497 0 155 45 303 129
431 37 56 38 61 24 78 -9 9 -44 31 -77 47 -304 147 -682 -74 -818 -480 -32
-94 -32 -98 -33 -285 0 -158 4 -209 23 -303 103 -512 390 -844 801 -927 120
-25 321 -17 454 18 274 72 531 230 777 476 321 321 545 730 631 1147 30 145
37 404 15 554 -42 284 -152 500 -360 705 -120 119 -198 178 -401 304 -80 50
-149 102 -178 134 -51 55 -101 148 -112 210 -8 43 -4 41 -75 22 -71 -19 -173
-19 -236 0 -64 19 -173 95 -261 182 -109 108 -166 202 -205 340 -32 113 -32
315 0 427 65 225 226 414 415 484 198 74 412 30 565 -117 143 -137 156 -372
32 -558 -21 -31 -21 -33 -3 -33 39 1 155 50 222 94 39 26 95 74 125 108 94
104 175 296 176 415 0 38 3 43 28 49 151 34 226 75 332 183 120 121 172 227
195 394 l6 48 -61 -45 c-84 -62 -157 -88 -250 -90 -109 -1 -160 20 -271 113
-212 177 -392 268 -634 320 -106 23 -292 33 -389 21z"/>
<path d="M25788 12081 c-80 -26 -143 -65 -215 -134 l-63 -60 -47 47 c-64 63
-170 115 -253 124 -62 7 -1238 -39 -1347 -53 -84 -10 -186 -66 -265 -145 l-70
-70 -63 59 c-96 89 -196 130 -320 131 -138 0 -286 -72 -373 -183 l-34 -42 48
-7 c73 -11 166 -62 219 -120 54 -60 108 -170 125 -251 6 -32 15 -207 20 -390
9 -376 16 -421 92 -576 80 -167 233 -279 394 -289 49 -3 74 -1 74 6 0 6 -5 14
-10 17 -17 10 -67 116 -86 181 -23 78 -23 218 0 304 40 150 141 287 250 340
49 24 84 33 152 40 49 4 90 7 92 5 6 -6 32 -1885 27 -1940 -12 -116 -46 -233
-95 -331 l-48 -96 34 -48 c45 -63 81 -145 105 -244 18 -75 21 -144 34 -951 22
-1344 22 -1468 1 -1545 -50 -188 -167 -336 -311 -395 l-56 -22 36 -32 c113
-99 277 -123 429 -64 100 39 218 134 293 236 l35 47 36 -31 c84 -74 224 -107
343 -79 130 30 288 140 375 261 l32 44 -82 0 c-90 0 -127 13 -193 70 -44 37
-96 128 -113 195 -15 58 -49 2212 -37 2325 10 100 56 239 107 329 l40 68 -34
47 c-82 112 -124 241 -132 401 -10 197 -31 1805 -24 1813 4 5 70 9 146 10 128
2 143 0 186 -21 150 -75 238 -227 242 -417 1 -110 -16 -192 -60 -282 -18 -37
-31 -70 -29 -72 2 -2 26 2 52 8 155 39 304 167 386 331 84 168 90 207 88 561
-2 334 4 387 55 495 31 66 112 156 171 191 24 14 69 33 99 42 l55 18 -44 40
c-56 51 -118 87 -186 107 -74 22 -210 20 -283 -3z"/>
<path d="M650 12036 c25 -27 60 -50 80 -56 52 -15 56 -13 29 16 -27 29 -91 68
-129 79 -22 6 -19 1 20 -39z"/>
<path d="M4538 12051 c-74 -24 -132 -59 -188 -112 l-45 -42 45 -9 c153 -27
293 -180 336 -365 14 -61 14 -170 -1 -1153 -9 -600 -20 -1112 -26 -1145 -20
-119 -65 -227 -124 -301 l-34 -41 55 -109 c57 -115 79 -187 93 -299 4 -37 2
-471 -5 -964 -19 -1318 -17 -1275 -43 -1351 -52 -158 -188 -255 -329 -234 -44
7 -44 7 -32 -17 7 -13 52 -63 99 -110 70 -70 102 -94 171 -127 96 -46 192 -67
263 -57 72 9 148 41 195 80 l41 35 32 -46 c17 -26 58 -72 89 -103 180 -175
419 -219 591 -110 57 36 89 69 67 69 -40 0 -140 64 -202 130 -108 115 -166
263 -169 435 -4 219 15 1349 24 1438 20 190 81 329 194 443 131 132 296 181
460 139 120 -32 230 -132 297 -270 52 -109 71 -205 65 -330 -6 -119 -32 -208
-83 -284 l-37 -54 64 5 c54 4 109 22 207 65 15 6 15 -248 2 -977 -10 -532 -12
-549 -67 -657 -34 -69 -117 -146 -179 -167 -26 -9 -72 -16 -101 -16 l-54 0 18
-32 c10 -17 50 -63 88 -102 110 -111 233 -166 370 -166 98 0 163 22 242 81
l66 51 26 -34 c118 -152 242 -233 397 -258 116 -19 234 17 327 100 l48 43 -51
18 c-157 55 -294 242 -330 451 -9 51 -8 331 4 1200 9 623 18 1169 21 1213 11
152 52 280 126 387 l41 61 -22 36 c-40 67 -82 164 -102 240 -31 111 -32 303
-14 1516 13 859 19 1062 31 1114 45 188 170 329 323 362 29 6 52 15 52 20 0 5
-29 38 -63 73 -190 190 -462 192 -659 7 l-61 -57 -72 73 c-193 196 -468 202
-661 16 l-59 -56 51 -12 c110 -25 211 -113 273 -236 67 -133 66 -116 53 -1113
-7 -490 -15 -1045 -19 -1233 l-6 -341 -61 51 c-131 109 -264 180 -410 220
-121 32 -308 30 -429 -7 -85 -25 -187 -72 -254 -117 l-33 -21 0 134 c0 221 29
2116 34 2224 12 254 151 438 350 463 l51 6 -54 57 c-106 114 -211 160 -361
160 -71 0 -110 -5 -152 -20 -67 -24 -149 -76 -196 -125 l-33 -34 -62 64 c-45
47 -83 75 -144 105 -80 40 -88 42 -191 45 -85 2 -119 -1 -164 -16z"/>
<path d="M22066 11939 c-85 -14 -192 -74 -268 -151 l-68 -68 -59 59 c-84 84
-182 131 -288 138 -87 6 -162 -7 -228 -40 -65 -32 -133 -86 -171 -135 -37 -49
-34 -62 17 -62 45 0 145 -58 195 -113 25 -28 61 -82 80 -119 67 -134 63 -64
83 -1488 10 -712 17 -1297 15 -1298 -1 -2 -37 17 -79 43 -356 216 -744 168
-1066 -133 l-47 -43 -6 113 c-3 62 -11 664 -17 1338 -11 1138 -11 1231 5 1301
37 165 134 305 251 360 33 16 72 29 88 29 15 0 27 5 27 10 0 19 -116 125 -167
152 -100 55 -218 71 -320 44 -92 -24 -146 -57 -226 -138 l-79 -77 -62 63
c-206 208 -501 193 -691 -35 -19 -22 -35 -44 -35 -49 0 -4 20 -10 44 -12 110
-13 218 -103 284 -238 73 -146 70 -97 83 -1359 6 -625 9 -1210 7 -1301 -5
-204 -29 -308 -103 -457 l-51 -101 38 -63 c21 -34 51 -96 67 -138 64 -165 61
-108 75 -1481 7 -690 10 -1282 6 -1315 -28 -230 -164 -426 -334 -479 l-56 -18
20 -28 c49 -69 164 -134 269 -152 168 -29 356 59 475 221 l35 48 54 -52 c29
-29 85 -67 123 -86 65 -32 74 -34 174 -34 115 1 175 17 262 75 51 34 141 123
169 167 l19 30 -58 5 c-139 13 -252 121 -310 296 -25 76 -25 84 -33 497 -14
771 -12 1310 6 1401 40 213 124 381 254 509 114 112 236 169 366 170 60 0 81
-5 137 -33 83 -41 150 -112 193 -207 46 -100 60 -165 59 -290 -1 -128 -26
-233 -79 -333 -31 -59 -32 -62 -12 -56 72 21 171 79 229 132 15 14 30 24 32
21 9 -9 24 -1508 15 -1566 -20 -146 -90 -285 -187 -375 -56 -52 -135 -98 -166
-98 -31 0 -24 -19 24 -64 128 -120 306 -143 478 -61 79 37 181 126 234 203
l30 43 41 -40 c56 -55 139 -97 217 -112 173 -31 382 69 507 244 l33 45 -68 4
c-84 5 -147 35 -208 101 -49 52 -95 142 -113 222 -13 60 -44 1918 -38 2315 3
237 6 273 26 338 22 76 63 170 101 233 l22 36 -36 50 c-65 90 -108 208 -125
341 -6 42 -18 608 -26 1257 -19 1318 -21 1258 50 1401 61 125 157 211 264 237
28 6 51 14 51 18 0 3 -27 32 -60 63 -68 65 -160 112 -246 126 -66 11 -79 11
-148 -1z"/>
<path d="M9543 11875 c-257 -46 -519 -204 -714 -428 -262 -302 -438 -737 -478
-1187 -6 -63 -13 -358 -17 -655 -7 -616 -16 -823 -40 -915 -20 -79 -71 -192
-113 -254 l-31 -45 30 -48 c35 -55 80 -168 106 -268 21 -79 22 -174 15 -1105
-4 -560 0 -623 55 -870 177 -796 708 -1403 1303 -1490 114 -17 304 -8 406 20
487 130 884 658 999 1327 33 188 38 300 46 1023 9 787 9 789 58 930 23 65 77
175 103 208 17 22 17 24 -17 80 -42 72 -87 193 -109 298 -16 71 -17 158 -16
849 1 501 -2 805 -9 870 -45 410 -165 757 -368 1065 -55 85 -109 148 -201 241
-206 205 -389 307 -634 354 -95 18 -275 18 -374 0z m287 -1086 c255 -59 468
-364 498 -715 4 -45 4 -383 0 -751 -7 -732 -10 -760 -70 -916 -16 -42 -46
-101 -65 -130 -20 -28 -36 -56 -36 -62 0 -5 14 -33 32 -62 44 -70 88 -196 106
-300 17 -98 19 -513 5 -1163 -9 -415 -14 -463 -74 -610 -107 -262 -324 -411
-553 -379 -256 36 -479 294 -555 644 -18 83 -20 126 -18 545 2 694 13 1007 39
1105 22 83 75 205 112 257 l21 30 -40 81 c-62 126 -92 232 -106 377 -4 36 -2
362 4 725 11 728 13 754 79 918 81 204 246 368 407 406 54 12 160 13 214 0z"/>
<path d="M9640 10717 c-144 -33 -273 -146 -354 -310 -82 -165 -87 -202 -96
-682 -15 -735 -13 -986 9 -1090 18 -86 78 -251 88 -241 3 2 0 29 -7 58 -8 37
-11 183 -10 493 2 613 14 1004 34 1084 65 259 225 461 421 532 82 30 225 31
308 2 l58 -20 -28 29 c-108 114 -289 175 -423 145z"/>
<path d="M9300 8199 c-18 -24 -48 -76 -66 -114 -63 -130 -64 -147 -75 -830
-12 -687 -9 -812 20 -932 18 -70 79 -228 86 -221 2 2 -4 37 -12 78 -13 64 -14
173 -8 740 3 366 11 699 16 740 15 106 64 248 116 332 l45 73 -38 80 c-21 44
-41 84 -45 89 -4 4 -22 -11 -39 -35z"/>
<path d="M26267 11859 c-106 -25 -196 -103 -250 -217 l-32 -67 -6 -360 c-5
-323 -8 -368 -27 -436 -71 -262 -240 -458 -457 -534 l-68 -23 50 -53 50 -52
49 12 c245 61 442 301 494 601 8 41 11 166 8 345 -3 307 1 341 54 451 60 124
180 223 291 241 l38 6 -47 48 c-52 52 -68 57 -147 38z"/>
<path d="M11889 11835 c-84 -23 -143 -59 -219 -134 l-75 -75 46 -7 c137 -21
267 -154 326 -334 36 -110 36 -157 24 -1550 -9 -1107 -11 -1186 -29 -1270 -22
-103 -67 -217 -116 -295 l-34 -53 39 -72 c48 -89 84 -192 105 -304 15 -75 17
-192 18 -901 1 -877 1 -860 56 -1110 167 -752 626 -1311 1171 -1425 354 -75
717 44 1002 328 292 290 475 682 563 1204 15 83 18 223 24 928 5 578 11 850
19 895 19 101 68 238 112 313 l40 67 -35 58 c-45 73 -90 196 -110 302 -23 120
-24 2687 -1 2794 42 199 187 374 326 392 l49 7 -18 29 c-27 47 -126 133 -186
163 -174 85 -367 45 -519 -109 l-71 -72 -76 77 c-57 59 -93 86 -145 111 -65
31 -77 33 -175 33 -101 0 -108 -2 -184 -37 -58 -28 -96 -56 -150 -109 l-71
-72 64 -17 c169 -47 298 -221 331 -448 11 -76 11 -978 0 -2012 -7 -669 -8
-698 -29 -779 -20 -79 -78 -212 -117 -273 -18 -27 -18 -28 5 -65 44 -73 84
-169 110 -263 l26 -95 0 -775 c0 -760 0 -777 -22 -866 -80 -336 -270 -557
-510 -594 -279 -43 -545 193 -651 577 l-27 98 0 770 c0 812 0 806 47 955 19
61 63 157 103 225 18 30 18 31 -10 75 -38 60 -82 169 -107 265 -20 75 -22 109
-25 540 -2 253 1 863 6 1355 9 992 6 940 78 1084 65 128 201 236 298 236 14 0
25 5 25 11 0 24 -146 156 -201 182 -190 89 -366 54 -521 -105 -43 -43 -78 -74
-78 -69 0 20 -119 137 -171 168 -98 58 -226 77 -330 48z"/>
<path d="M3994 11826 c-55 -17 -127 -70 -158 -115 -71 -103 -85 -189 -86 -526
0 -167 -4 -229 -20 -303 -54 -266 -232 -450 -467 -484 l-81 -12 45 -59 46 -59
87 4 c74 3 97 9 164 41 142 67 252 209 296 380 15 61 20 127 25 353 7 320 18
391 71 480 68 114 152 176 264 196 42 7 58 14 52 22 -74 100 -69 96 -135 95
-34 0 -81 -6 -103 -13z"/>
<path d="M16940 11834 c-19 -3 -73 -14 -120 -26 -550 -134 -993 -732 -1119
-1508 -35 -213 -41 -381 -41 -1106 0 -758 -1 -775 -55 -934 -14 -40 -43 -106
-65 -147 l-41 -73 34 -58 c68 -116 109 -245 127 -397 6 -53 10 -374 10 -785 0
-413 4 -742 11 -810 29 -314 116 -628 246 -883 320 -628 855 -919 1403 -760
217 62 443 214 616 411 216 247 379 572 468 932 74 300 71 255 72 1245 l0 890
47 95 c26 52 59 140 74 195 23 88 26 119 26 260 0 141 -3 172 -26 259 -25 92
-86 233 -122 281 -15 18 -18 16 -80 -52 -75 -82 -151 -136 -233 -164 -48 -17
-99 -22 -312 -30 -140 -5 -280 -14 -310 -19 -219 -39 -422 -285 -486 -590 -25
-118 -25 -345 -1 -460 23 -108 63 -209 110 -283 l38 -58 43 58 c97 132 205
193 382 217 l41 6 7 -638 c8 -669 5 -737 -35 -897 -22 -86 -100 -258 -143
-315 -85 -112 -198 -200 -306 -236 -73 -24 -206 -24 -275 0 -210 75 -378 311
-431 604 -21 119 -33 1402 -15 1561 16 134 51 254 106 360 l44 84 -20 28 c-35
49 -80 160 -107 259 -25 95 -25 96 -34 740 -10 693 -7 861 17 987 93 490 462
756 799 575 66 -35 175 -139 222 -210 21 -31 51 -95 68 -142 28 -79 30 -95 31
-225 0 -156 -19 -241 -77 -342 l-29 -53 24 0 c52 0 156 41 224 89 164 115 267
324 296 601 l12 115 55 8 c96 13 175 58 266 151 69 70 91 100 133 187 60 123
90 231 98 354 l6 90 -46 -47 c-126 -125 -298 -141 -432 -40 -27 21 -80 75
-118 122 -277 343 -578 514 -922 525 -66 2 -136 1 -155 -1z"/>
<path d="M29347 11761 c-56 -250 -246 -465 -478 -541 l-65 -22 -12 -70 c-26
-153 -99 -287 -221 -409 -70 -69 -104 -95 -180 -132 -51 -26 -102 -47 -112
-47 -30 0 -23 -15 26 -58 l46 -40 52 14 c246 65 447 304 489 581 6 41 16 76
22 77 199 51 349 159 449 323 40 66 82 184 92 258 6 50 6 50 -42 97 l-48 48
-18 -79z"/>
<path d="M4410 11768 c31 -39 53 -56 83 -65 22 -7 43 -11 46 -8 13 14 -96 103
-148 120 -20 6 -18 0 19 -47z"/>
<path d="M5809 11726 c-56 -15 -125 -55 -161 -93 -34 -36 -72 -114 -88 -180
-8 -35 -17 -400 -29 -1195 -10 -628 -16 -1145 -14 -1147 1 -2 20 4 42 14 l39
17 6 142 c3 77 11 528 16 1001 6 473 15 890 21 927 30 217 176 388 345 405
l53 6 -46 58 c-44 57 -47 59 -92 58 -25 0 -67 -6 -92 -13z"/>
<path d="M6393 11662 c36 -51 48 -61 87 -70 25 -6 47 -9 49 -6 12 12 -90 97
-143 119 l-36 15 43 -58z"/>
<path d="M22839 11629 c47 -59 60 -67 110 -68 l35 -1 -30 31 c-31 33 -93 72
-133 84 -22 7 -20 2 18 -46z"/>
<path d="M22470 11661 c-121 -37 -216 -149 -255 -298 -19 -73 -19 -325 0
-1563 15 -979 15 -990 64 -1121 24 -62 70 -141 70 -119 0 8 -4 33 -10 55 -9
37 -35 1468 -40 2190 -2 350 3 390 67 517 60 119 157 202 270 232 l41 11 -34
53 -34 52 -57 -1 c-31 0 -68 -4 -82 -8z"/>
<path d="M7755 11627 c-56 -27 -133 -104 -164 -165 -41 -80 -53 -150 -57 -332
-3 -96 -11 -629 -19 -1185 -15 -1026 -14 -1075 21 -1209 15 -57 68 -186 77
-186 2 0 1 19 -4 43 -12 62 -10 485 6 1552 13 891 16 955 34 1028 49 191 183
333 332 353 l47 6 -32 57 -32 56 -79 3 c-67 2 -88 -2 -130 -21z"/>
<path d="M21045 11551 c37 -47 54 -61 74 -61 14 0 37 -3 51 -7 24 -5 23 -4
-10 31 -36 39 -97 78 -139 91 -21 6 -18 0 24 -54z"/>
<path d="M20488 11585 c-153 -42 -252 -167 -278 -353 -4 -31 -2 -568 6 -1192
7 -624 13 -1188 14 -1253 0 -130 -2 -128 63 -75 l28 23 -10 800 c-16 1260 -16
1489 3 1560 54 201 192 358 335 381 l40 6 -47 59 c-52 65 -65 69 -154 44z"/>
<path d="M19010 11554 c0 -3 20 -32 45 -63 39 -51 49 -59 87 -64 23 -3 44 -4
46 -3 1 2 -15 22 -37 44 -36 37 -141 101 -141 86z"/>
<path d="M11685 11513 c48 -75 75 -100 112 -106 20 -4 39 -5 41 -3 7 8 -65 81
-107 108 -56 35 -68 35 -46 1z"/>
<path d="M13083 11495 c-100 -46 -175 -147 -212 -285 -25 -96 -31 -432 -32
-1750 0 -999 -1 -986 49 -1130 23 -65 76 -167 68 -130 -26 114 -27 258 -18
1475 10 1409 6 1325 78 1471 48 97 120 175 196 213 34 17 74 31 89 31 15 0 30
4 33 9 3 4 -8 34 -25 65 l-31 56 -71 0 c-55 0 -84 -6 -124 -25z"/>
<path d="M13673 11498 c9 -13 29 -42 44 -65 21 -32 35 -43 63 -48 19 -3 43 -9
54 -12 16 -4 15 -1 -5 27 -28 37 -103 94 -144 110 -28 10 -28 10 -12 -12z"/>
<path d="M15153 11510 c-128 -26 -232 -141 -280 -311 -17 -60 -18 -137 -18
-1394 l0 -1330 23 -95 c13 -52 39 -126 57 -165 l34 -70 -7 55 c-4 30 -7 660
-7 1400 0 1253 1 1349 18 1410 54 200 184 348 329 374 l38 7 -30 59 c-23 46
-35 60 -53 60 -12 0 -31 2 -42 4 -11 2 -39 0 -62 -4z"/>
<path d="M1623 11299 c-161 -62 -232 -259 -164 -454 10 -29 29 -68 42 -87 l24
-35 1 101 c0 80 5 113 22 157 41 104 131 181 245 209 l47 12 0 53 c0 39 -4 54
-16 59 -34 13 -150 5 -201 -15z"/>
<path d="M27670 11248 c-151 -53 -269 -158 -344 -308 -62 -124 -79 -210 -74
-368 4 -104 9 -140 31 -200 23 -67 86 -186 94 -178 2 2 -4 32 -13 67 -24 89
-24 290 -1 384 10 39 38 112 63 164 39 80 60 109 138 186 138 140 248 187 443
189 100 1 102 2 80 18 -52 41 -129 61 -242 65 -95 3 -119 0 -175 -19z"/>
<path d="M2725 10405 c-4 -449 -5 -839 -1 -868 9 -70 50 -193 82 -242 24 -39
25 -39 20 -10 -16 86 -17 280 -7 1009 5 439 12 800 14 803 7 6 218 -18 247
-29 47 -17 -69 89 -122 112 -41 17 -152 39 -209 40 -15 0 -17 -71 -24 -815z"/>
<path d="M18656 11138 c-3 -41 -18 -116 -31 -167 -75 -279 -240 -477 -455
-547 l-65 -21 -7 -71 c-18 -179 -106 -397 -212 -524 -71 -85 -174 -158 -265
-188 -46 -14 -68 -26 -64 -34 4 -6 25 -35 47 -65 l40 -53 49 6 c63 7 157 51
223 103 148 118 266 371 283 607 l6 91 49 7 c184 26 367 212 451 459 30 86 55
220 55 291 0 49 -12 74 -78 157 l-19 24 -7 -75z"/>
<path d="M24972 11012 c-10 -7 -10 -179 2 -918 16 -989 14 -959 75 -1089 16
-33 36 -69 46 -80 16 -19 16 -19 11 10 -20 112 -27 309 -37 1083 -6 480 -9
876 -6 879 9 8 187 25 229 21 l37 -3 -27 29 c-51 54 -115 76 -222 76 -52 0
-101 -4 -108 -8z"/>
<path d="M23920 10924 c-67 -21 -136 -77 -181 -147 -60 -92 -74 -150 -74 -297
1 -135 17 -199 67 -274 l25 -36 -4 97 c-11 236 86 431 260 523 l47 25 0 62 0
63 -47 -1 c-27 0 -68 -7 -93 -15z"/>
<path d="M11075 10733 c19 -50 68 -265 88 -388 22 -137 22 -158 22 -965 0
-820 0 -826 22 -912 22 -84 79 -226 88 -217 2 3 0 22 -6 44 -5 24 -9 367 -8
840 1 687 -2 817 -16 920 -19 145 -47 280 -80 397 -28 96 -103 298 -112 298
-3 0 -2 -8 2 -17z"/>
<path d="M1335 10644 c75 -67 259 -153 281 -131 3 2 -8 26 -24 53 l-28 49 -79
13 c-44 7 -107 24 -140 37 l-60 24 50 -45z"/>
<path d="M16935 10610 c-152 -50 -294 -216 -364 -427 -48 -144 -51 -191 -51
-902 0 -385 4 -704 10 -756 14 -120 42 -221 86 -303 19 -37 33 -59 30 -49 -28
94 -31 174 -31 902 l0 750 27 98 c89 321 281 533 518 570 67 10 166 2 225 -18
43 -14 -80 86 -142 117 -57 28 -78 33 -157 35 -70 2 -105 -2 -151 -17z"/>
<path d="M23541 10044 c13 -14 57 -42 98 -61 59 -28 91 -37 148 -41 40 -3 73
-1 73 3 0 4 -14 30 -31 58 l-31 52 -103 -3 c-57 -2 -120 1 -141 7 l-37 10 24
-25z"/>
<path d="M28096 9751 c36 -68 52 -81 46 -38 -5 34 -25 62 -56 79 -15 8 -14 2
10 -41z"/>
<path d="M2832 9086 c-48 -53 -86 -124 -108 -203 -21 -81 -45 -2051 -25 -2145
13 -63 48 -149 74 -183 15 -19 15 -16 10 35 -3 31 0 499 6 1040 13 1076 13
1075 73 1194 16 34 47 81 67 106 l37 45 -47 78 -46 77 -41 -44z"/>
<path d="M28999 8848 c185 -420 148 -933 -103 -1443 -208 -420 -530 -778 -893
-992 -253 -149 -551 -224 -770 -195 -48 6 -88 10 -91 8 -5 -6 86 -34 163 -51
91 -19 272 -19 374 0 426 81 857 407 1172 888 277 422 396 896 333 1326 -25
175 -110 394 -195 501 -14 18 -11 7 10 -42z"/>
<path d="M25129 8748 c-68 -110 -113 -230 -124 -335 -10 -91 24 -2209 36
-2273 13 -65 48 -137 79 -165 l23 -20 -6 30 c-9 45 -40 2040 -34 2195 7 181
37 283 132 445 l18 31 -34 45 c-19 24 -41 55 -49 67 l-15 23 -26 -43z"/>
<path d="M27505 8715 c-5 -2 -27 -6 -49 -10 l-38 -6 23 -26 c13 -14 36 -33 50
-43 25 -18 27 -18 88 1 37 11 92 19 134 19 l72 0 -30 20 c-55 35 -201 61 -250
45z"/>
<path d="M18655 8665 c20 -61 35 -181 35 -290 0 -185 -31 -322 -111 -495 l-40
-85 3 -855 c3 -844 3 -857 -19 -995 -89 -551 -296 -996 -613 -1316 -264 -267
-556 -400 -876 -400 -183 1 -343 40 -503 126 l-66 35 35 -31 c107 -95 265
-180 415 -225 121 -35 327 -44 458 -20 231 44 432 154 630 345 311 300 518
717 606 1221 39 220 42 328 35 1155 l-7 790 41 75 c145 267 142 696 -6 945
-13 22 -21 31 -17 20z"/>
<path d="M7621 8365 c-18 -25 -47 -78 -66 -118 -66 -144 -64 -124 -80 -1166
-8 -520 -15 -1063 -15 -1206 0 -285 6 -328 60 -440 l28 -60 1 119 c3 353 31
2213 35 2281 3 44 12 114 21 155 18 77 87 237 122 279 l19 24 -44 86 c-24 47
-45 87 -46 88 -2 2 -17 -17 -35 -42z"/>
<path d="M22378 8387 c-60 -90 -112 -233 -129 -351 -9 -64 12 -2022 25 -2351
6 -145 33 -237 90 -310 15 -18 16 -11 11 95 -3 63 -12 611 -21 1217 -11 835
-12 1122 -4 1185 14 103 59 242 105 327 l34 63 -39 66 c-22 36 -40 69 -40 74
0 16 -18 8 -32 -15z"/>
<path d="M27299 8147 c-88 -140 -123 -255 -123 -397 0 -116 16 -185 65 -281
31 -62 58 -90 45 -48 -4 13 -10 74 -13 135 -9 178 30 329 123 470 l45 68 -53
48 c-29 26 -55 47 -58 48 -3 0 -17 -19 -31 -43z"/>
<path d="M11301 8049 c-44 -67 -79 -148 -103 -239 -20 -70 -22 -124 -33 -870
-12 -709 -15 -809 -33 -925 -122 -783 -550 -1352 -1107 -1471 -294 -63 -623
15 -902 213 l-78 55 45 -47 c115 -120 314 -256 462 -314 148 -60 236 -75 413
-75 132 0 174 4 238 22 197 54 357 151 517 311 273 274 451 672 516 1156 12
83 17 294 24 865 5 491 12 776 20 815 26 135 66 240 124 326 l33 50 -43 77
c-24 42 -44 82 -44 89 0 25 -16 13 -49 -38z"/>
<path d="M5880 8065 c-77 -22 -153 -70 -214 -136 -69 -74 -99 -127 -137 -241
-31 -92 -32 -96 -40 -368 -4 -151 -9 -513 -11 -805 -3 -498 -2 -533 16 -585
18 -51 63 -150 69 -150 2 0 0 26 -3 58 -3 31 0 388 7 792 12 776 13 790 62
921 65 173 203 314 352 360 75 23 208 25 269 4 24 -8 46 -13 48 -10 11 11
-105 117 -155 141 -67 33 -183 41 -263 19z"/>
<path d="M12949 7960 c-50 -85 -95 -210 -108 -305 -5 -38 -12 -374 -15 -745
-7 -736 -4 -788 49 -946 27 -82 79 -187 71 -144 -26 137 -28 220 -23 898 4
612 7 717 22 781 24 108 71 230 110 290 19 29 35 56 35 61 0 10 -90 180 -95
180 -2 0 -23 -32 -46 -70z"/>
<path d="M16642 7947 c-23 -41 -52 -100 -63 -133 -46 -129 -48 -169 -49 -899
0 -706 4 -798 40 -930 21 -78 68 -190 76 -182 3 3 0 29 -7 58 -17 77 -25 1462
-9 1574 15 104 60 241 110 335 l40 74 -43 88 c-23 48 -45 87 -48 88 -3 0 -24
-33 -47 -73z"/>
<path d="M14982 7947 c-46 -77 -79 -154 -104 -243 -21 -77 -22 -95 -28 -909
-6 -780 -8 -838 -28 -963 -45 -284 -116 -515 -227 -740 -156 -318 -342 -541
-583 -699 -379 -250 -814 -250 -1218 1 l-59 37 45 -42 c142 -132 348 -248 525
-296 88 -23 119 -26 255 -26 135 0 167 3 252 26 487 130 896 629 1059 1292 71
288 71 303 79 1220 l6 830 26 95 c27 100 73 211 107 259 l20 28 -45 89 c-25
49 -47 90 -48 91 -1 1 -16 -21 -34 -50z"/>
<path d="M20714 7662 c-229 -81 -403 -329 -450 -643 -13 -91 -14 -198 -4 -913
11 -871 12 -881 65 -985 37 -74 47 -73 40 1 -12 131 -24 1602 -14 1683 29 237
110 421 247 567 122 130 251 193 392 191 l75 -1 -43 38 c-23 21 -59 46 -80 56
-53 26 -164 29 -228 6z"/>
<path d="M17564 7450 c-100 -20 -188 -79 -265 -179 l-49 -63 51 -74 c29 -41
54 -74 58 -74 3 0 26 25 50 56 47 60 122 124 183 155 37 19 38 21 38 73 0 60
-9 117 -19 115 -3 -1 -24 -5 -47 -9z"/>
<path d="M6500 7138 c-36 -9 -78 -17 -93 -17 l-28 -1 51 -75 c49 -72 52 -75
90 -75 48 0 52 12 48 115 l-3 70 -65 -17z"/>
<path d="M21248 6801 l-86 -44 51 -63 51 -62 43 16 43 16 -1 51 c0 27 -4 68
-7 91 l-7 40 -87 -45z"/>
<path d="M1670 6521 c0 -5 38 -45 85 -90 145 -136 317 -204 459 -181 50 8 141
44 151 59 2 4 -24 37 -58 73 l-62 66 -75 -25 c-137 -46 -302 -20 -444 71 -31
20 -56 32 -56 27z"/>
<path d="M2448 6243 c18 -33 140 -140 203 -179 93 -56 162 -77 259 -77 93 0
171 23 222 65 l27 23 -51 77 -50 78 -30 -22 c-122 -86 -307 -92 -470 -15 -29
14 -68 36 -87 48 -33 22 -33 22 -23 2z"/>
<path d="M25396 5759 c-32 -55 -146 -168 -216 -214 -107 -71 -188 -98 -297
-99 -105 -1 -106 -8 -10 -52 54 -25 74 -28 152 -28 106 0 174 22 271 85 67 43
197 173 216 215 11 23 7 29 -37 74 -27 28 -52 50 -55 50 -3 0 -14 -14 -24 -31z"/>
<path d="M4428 5633 c31 -44 114 -118 178 -159 163 -104 341 -110 482 -17 l53
35 -63 67 c-34 36 -63 68 -64 69 -2 2 -35 -12 -76 -32 -154 -76 -321 -63 -482
35 l-48 30 20 -28z"/>
<path d="M24525 5459 c-143 -144 -282 -212 -439 -212 -87 0 -88 -1 -65 -19 42
-31 132 -60 206 -66 159 -11 326 80 464 252 l39 48 -62 31 c-35 17 -65 33 -68
34 -3 2 -37 -29 -75 -68z"/>
<path d="M5792 5441 c-132 -120 -323 -133 -514 -36 -38 19 -68 30 -68 26 0 -5
34 -41 76 -80 170 -159 374 -206 537 -125 61 30 117 71 117 84 0 8 -99 171
-104 170 0 -1 -20 -18 -44 -39z"/>
<path d="M6947 5143 c-69 -46 -163 -73 -256 -73 -86 0 -158 18 -244 62 -70 35
-67 19 10 -53 66 -62 133 -106 206 -137 53 -22 77 -26 162 -26 92 -1 105 2
165 31 36 17 79 47 97 65 l31 33 -61 65 -62 66 -48 -33z"/>
<path d="M22608 5086 c-133 -175 -315 -265 -507 -252 l-84 5 34 -25 c92 -68
206 -95 316 -77 109 19 205 73 304 173 48 47 90 96 94 108 5 19 -3 34 -48 81
l-56 58 -53 -71z"/>
<path d="M7782 5023 c-24 -23 -76 -59 -115 -78 -125 -62 -256 -58 -404 10 -40
19 -73 30 -73 25 0 -24 150 -144 228 -183 85 -42 86 -42 196 -42 105 0 114 2
176 32 36 18 84 50 108 70 l42 38 -51 80 c-28 44 -54 83 -57 86 -4 3 -26 -14
-50 -38z"/>
<path d="M21742 4870 c-94 -90 -206 -153 -307 -171 -57 -11 -173 -6 -212 8
-38 13 64 -61 117 -85 76 -35 213 -42 297 -16 103 32 228 129 304 235 l18 26
-60 41 c-33 23 -64 42 -67 42 -4 -1 -44 -36 -90 -80z"/>
<path d="M20625 4780 c-48 -69 -168 -175 -236 -209 -115 -56 -234 -70 -348
-41 l-34 9 21 -22 c35 -37 124 -85 187 -102 110 -28 201 -15 316 46 63 33 188
146 223 201 l18 28 -52 62 c-29 35 -56 64 -60 66 -4 1 -19 -16 -35 -38z"/>
<path d="M19739 4591 c-74 -74 -147 -121 -235 -152 -50 -18 -75 -20 -159 -16
-55 3 -111 8 -125 12 -45 12 36 -51 118 -92 177 -89 389 -36 543 135 78 87 78
82 0 136 -37 25 -70 45 -72 44 -2 -1 -34 -31 -70 -67z"/>
</g>
</svg>
