<?xml version="1.0" encoding="utf-8"?>
<!-- Generator: Adobe Illustrator 19.0.0, SVG Export Plug-In . SVG Version: 6.00 Build 0)  -->
<svg version="1.1" xmlns="http://www.w3.org/2000/svg" xmlns:xlink="http://www.w3.org/1999/xlink" x="0px" y="0px"
	 viewBox="0 0 1008 894.2" style="enable-background:new 0 0 1008 894.2;" xml:space="preserve" width="500" height="500">
<g>
	<g>
		<path d="M3.9,232.8v-153c0-46.6,27.2-73.2,79.8-73.2s79.8,26.6,79.8,73.2v24.9h-50.6V76.9
			c0-20.8-10.7-28.7-27.7-28.7c-17,0-27.7,7.9-27.7,28.7v159.2c0,20.8,10.7,28.3,27.7,28.3c17,0,27.7-7.5,27.7-28.3v-56.9H86.1
			v-41.6h77.4v95.2c0,46.6-27.2,73.2-79.8,73.2S3.9,279.3,3.9,232.8z"/>
		<path d="M194.1,232.8v-153c0-46.6,28.7-73.2,81.3-73.2c52.6,0,81.3,26.6,81.3,73.2v153
			c0,46.6-28.7,73.2-81.3,73.2C222.8,305.9,194.1,279.3,194.1,232.8z M303.1,235.7V76.9c0-20.8-10.7-28.7-27.7-28.7
			c-17,0-27.7,7.9-27.7,28.7v158.8c0,20.8,10.7,28.7,27.7,28.7C292.4,264.4,303.1,256.5,303.1,235.7z"/>
		<path d="M392.7,10.8h53.5v249.4h88.1v41.6H392.7V10.8z"/>
		<path d="M560,10.8h141.6v41.6h-88.1v81.1h69.1V175h-69.1v126.8H560V10.8z"/>
	</g>
	<g>
		<path d="M40.9,481.2c0,3.2-1.7,5.6-5,7.5c-3.4,1.8-7.4,2.8-12.1,3.2c-0.7,0-1.5,0.1-2.1,0.1
			c-3.9,0-7.5-0.7-10.9-2.1c-3.4-1.4-5.4-3.8-5.9-7.3c-0.6-6.8-0.9-14-0.9-21.3c0-8.6,0.6-19.7,1.8-33.2c1.2-13.5,4-28.3,8.5-44.5
			c4.4-16.2,10.4-29.6,17.9-40.4c7.5-10.6,16.4-16.5,27-17.6h1.3c8.3,0,15.6,3.4,21.5,10.1c6,6.8,10.8,16.1,14.5,27.9
			c3.7,11.9,6.4,24.8,8.1,39c1.6,13.6,2.3,27.1,2.3,40.6c0,0.6,0,4.5-0.1,11.9c-0.1,7.3-0.9,16.7-2.5,28.2c-0.7,3.6-3.3,5.9-7.5,7
			c-1.8,0.5-3.6,0.7-5.4,0.7c-2.3,0-4.5-0.4-6.7-1.3c-3.7-1.4-5.5-4-5.5-7.8v-0.6c0.5-5.8,0.9-11,1.3-15.8c0.1-2,0.3-3.8,0.4-5.6
			H39.9v3.7c0,4.8,0.2,9.4,0.6,13.8c0.1,1.2,0.2,2.4,0.3,3.6V481.2z M66.5,359.4c-4.4,0-8.4,3.8-11.9,11.5s-6.3,18-8.6,30.7
			c-2.4,12.7-4.2,26.5-5.4,41.2h41c0.1-4.1,0.2-8,0.2-11.8c0-19-1.5-35.4-4.4-49.4c-2.8-14-6.3-21.3-10.4-22.2H66.5z"/>
		<path d="M124.2,485.8c-3.9-21.2-5.9-46.3-5.9-75.3c0-28,1.3-52.3,3.9-73.3c0.5-2,3.3-3.7,8.2-5
			c4.2-1.1,8.5-1.7,12.9-1.7c0.7,0,2.5,0.1,5.5,0.3c2.9,0.1,5.1,1.5,6.7,4l9.1,21.2c18,42.2,31.4,71.8,40.3,88.6
			c2.1-15.7,3.2-30,3.2-42.8c0-23.6-2.5-45.5-7.6-65.8c-0.7-3-1.1-4.9-1.1-5.6c0-3,2.2-5.5,6.6-7c3.6-1.3,7.4-2,11.2-2
			c1.1,0,3.2,0.2,6.3,0.5c3,0.3,5,2,6,5c2.9,16.3,4.4,37.5,4.4,63.7c0,39.9-2.9,70.9-8.9,93.1c-0.7,1.9-2.9,3.3-6.6,4.1
			c-2.7,0.6-5.5,0.9-8.2,0.9c-1.1,0-2.8-0.1-5.4-0.3c-2.5-0.3-4.5-1.5-6.1-3.5c-6.5-10-14.9-26.4-25-49.1
			c-6.9-16.1-14.1-30.7-21.4-43.7c-0.1,6.8-0.2,13.2-0.2,19.1c0,17.1,0.7,31.6,2.1,43.5c1.3,9.7,2.7,18.6,4.6,26.7v0.6
			c0,2.1-1.5,3.9-4.5,5.4c-4.4,2.1-10,3.3-16.6,3.3C129.7,491,125.2,489.2,124.2,485.8z"/>
		<path d="M269.9,488.8c-3,0-5.7-0.6-7.7-2c-2.1-1.3-3.9-4.4-5.5-9.5c-6.1-21.1-9.5-44.4-10-69.9
			c-0.1-3.2-0.1-6.4-0.1-9.5c0-22,1.9-42.4,5.8-61.3c0.5-2,1.8-3.7,3.7-5c1.9-1.3,4-2.1,6.2-2.6c8.9-2,17.2-2.9,25-2.9
			c9.7,0,19.9,2.2,30.6,6.5c10.8,4.3,19.4,12.9,26,25.7c5.1,10,7.7,21.3,7.7,34.1c0,3.6-0.2,7.4-0.6,11.2c-1.4,12.5-5,24.9-11,37.2
			c-6,12.3-14.4,22.7-25.1,31.4c-10.8,8.7-24,14.1-39.6,16.1C273.2,488.6,271.5,488.8,269.9,488.8z M284.7,400.5c0,0.6,0,6.5,0,17.6
			c0,11.1,1.8,25.3,5.3,42.7c8.5-4,15.7-10.5,21.3-19.7c5.6-9.1,9.6-19.2,11.8-30.5c1.4-6.5,2-12.8,2-19c0-4.4-0.5-10.3-1.7-17.6
			c-1.2-7.3-4.7-13.9-10.6-20.1c-5.1-5.4-12-8.1-20.7-8.1c-1.4,0-2.6,0.1-4,0.2C285.9,361.6,284.7,379.7,284.7,400.5z"/>
		<path d="M429.9,488.5c-1.1-1.8-1.9-3.8-2.5-6c-6.5-21.1-10.1-44.4-10.6-69.8c-0.1-3.2-0.1-6.2-0.1-9.4
			c0-22,1.8-42.8,5.3-62.4c0.6-4.9,1.7-8.5,3.3-10.9c1.5-2.3,4.7-3.9,9.9-4.7c7.5-1.3,14.5-1.9,20.9-1.9c10,0,20.1,2,30.3,5.9
			c10.2,3.9,18.2,10.8,23.8,20.6c3.8,6.7,5.7,13.9,5.7,21.5c0,3.5-0.8,8.9-2.4,16.6c-1.7,7.7-8.3,16.6-19.8,26.9
			c9.5,4.5,15.3,11.1,17.8,19.7c0.8,2.8,1.3,5.8,1.3,8.7c0,5.8-2,12.4-6,19.9c-4,7.5-12.1,14.2-24.2,20.2c-11,5.5-25.2,8.3-42.6,8.3
			c-1.6,0-3.3-0.1-4.9-0.1C432.7,491.3,431,490.3,429.9,488.5z M455.7,375c-1.1,12.1-1.6,23.2-1.6,33.4c10.4-1.4,18.7-5.5,25.1-12.2
			c6.3-6.6,10.1-14.1,11.4-22.4c0.3-1.8,0.4-3.6,0.4-5.4c0-6.1-2.1-12-6.4-17.6c-4.3-5.6-12.3-8.6-24.2-9.1
			C458.3,352,456.7,363,455.7,375z M479.3,459.4c4.4-4.8,6.8-9.9,7.1-15.2v-1.1c0-4.8-2.2-8.7-6.8-11.7c-3.2-2-7.7-2.9-13.6-2.9
			c-3.2,0-6.7,0.2-10.7,0.8c0.1,3.3,0.4,7.6,0.9,12.9c0.5,5.4,1.3,10.6,2.2,15.7c0.9,5,1.9,8.8,2.8,11.2
			C468.8,467.5,474.8,464.2,479.3,459.4z"/>
		<path d="M586.2,483.7c-6.8,1.2-14.2,2-22,2.6c-5,0.4-9.6,0.6-13.7,0.6c-2.3,0-5.4-0.1-9.2-0.4
			c-3.9-0.2-6.1-1.3-6.8-3c-5.6-24.9-8.3-50.8-8.3-77.5c0-26.6,2.7-52.4,8.3-77.4c0.7-1.8,4.1-3,10.1-3.7c4-0.4,8.4-0.5,13.2-0.5
			c2.4,0,6.3,0.1,11.7,0.2c5.4,0.2,11.3,0.7,18.2,1.6c6.7,0.8,11.2,1.8,13.6,2.8c2.1,1.2,3.4,3.3,3.8,6.3c0.1,0.9,0.2,1.9,0.2,2.7
			c0,2-0.4,4.1-1.3,6.3c-0.9,2.2-2.5,3.4-4.9,3.6c-2.4,0.1-6,0.1-10.7,0.2c-4.5,0.1-8.9,0.1-13.2,0.2c-4.3,0.1-7.5,0.2-9.2,0.3
			c-3.6,19-5.4,38.3-5.4,57.7c0,3.8,0.1,7.7,0.2,11.5l26.9-1.5c2.6,0.1,4.4,1.9,5.5,5.4c0.6,2,0.9,4.1,0.9,6.1
			c0,1.4-0.2,3.4-0.7,5.8c-0.5,2.4-2,3.9-4.6,4.2l-26.4,1.3c0.9,8,2.1,15.9,3.6,23.8h3.4c1.4,0,3.5,0,6.3-0.1
			c2.8-0.1,6.3-0.2,10.4-0.3c4.8-0.1,8.6-0.2,11.2-0.3c3.5,0.1,5.9,1.5,7.1,4c0.8,1.7,1.3,3.5,1.3,5.4c0,0.9-0.2,2.3-0.6,4.3
			c-0.4,1.9-1.8,3.4-4,4.5C597.9,481.5,593,482.6,586.2,483.7z"/>
		<path d="M675,483.7c-6.8,1.2-14.2,2-22,2.6c-5,0.4-9.6,0.6-13.7,0.6c-2.3,0-5.4-0.1-9.2-0.4
			c-3.9-0.2-6.1-1.3-6.8-3c-5.6-24.9-8.3-50.8-8.3-77.5c0-26.6,2.7-52.4,8.3-77.4c0.7-1.8,4.1-3,10.1-3.7c4-0.4,8.4-0.5,13.2-0.5
			c2.4,0,6.3,0.1,11.7,0.2c5.4,0.2,11.3,0.7,18.2,1.6c6.7,0.8,11.2,1.8,13.6,2.8c2.1,1.2,3.4,3.3,3.8,6.3c0.1,0.9,0.2,1.9,0.2,2.7
			c0,2-0.4,4.1-1.3,6.3c-0.9,2.2-2.5,3.4-4.9,3.6c-2.4,0.1-6,0.1-10.7,0.2c-4.5,0.1-8.9,0.1-13.2,0.2c-4.3,0.1-7.5,0.2-9.2,0.3
			c-3.6,19-5.4,38.3-5.4,57.7c0,3.8,0.1,7.7,0.2,11.5l26.9-1.5c2.6,0.1,4.4,1.9,5.5,5.4c0.6,2,0.9,4.1,0.9,6.1
			c0,1.4-0.2,3.4-0.7,5.8c-0.5,2.4-2,3.9-4.6,4.2l-26.4,1.3c0.9,8,2.1,15.9,3.6,23.8h3.4c1.4,0,3.5,0,6.3-0.1
			c2.8-0.1,6.3-0.2,10.4-0.3c4.8-0.1,8.6-0.2,11.2-0.3c3.5,0.1,5.9,1.5,7.1,4c0.8,1.7,1.3,3.5,1.3,5.4c0,0.9-0.2,2.3-0.6,4.3
			c-0.4,1.9-1.8,3.4-4,4.5C686.7,481.5,681.9,482.6,675,483.7z"/>
		<path d="M743.7,488.7c-3.7,1.8-8,2.9-12.8,3.3c-4.8,0.4-8.8,0.2-12-0.3c-3.2-0.6-4.9-2.1-5.5-4.3
			c-3.6-26.2-5.4-52.4-5.4-78.6c0-26.2,1.8-52.2,5.4-78.4c0.3-3.3,3.5-4.9,9.5-5.3c6-0.3,9.9-0.5,11.8-0.5c15.6,0,29.2,2.3,40.9,6.7
			c11.7,4.5,20.2,11.2,25.6,20.2c4.4,7.1,6.6,14.8,6.6,23c0,2-0.4,6.2-1.3,12.4c-0.7,6.3-4.8,14.3-12.1,24.1
			c-7.3,9.8-17.2,18.1-29.7,24.8c3.3,5.1,8.6,8.6,16.1,10.5c4.2,1.1,8.3,1.6,12.3,1.6c3.2,0,6.2-0.3,9.1-0.9h0.9
			c3.3,0,5.7,1.8,7,5.4c0.9,2.4,1.5,4.9,1.5,7.6c0,1.6-0.3,3.8-0.9,6.7c-0.6,2.9-2.7,4.8-6.4,5.8c-2.7,0.4-5.7,0.6-8.6,0.6
			c-3.9,0-8.7-0.5-14.7-1.5c-5.9-0.9-12.2-3.3-19-6.7c-6.8-3.5-12.2-8.1-16.3-13.8c0.3,9.5,1.2,17.4,2.5,24.1
			c0.5,2.9,0.9,5.3,1.1,6.8C749.2,484.7,747.3,486.9,743.7,488.7z M744.6,381.3c-0.8,12.7-1.3,24-1.3,33.9
			c6.7-0.6,12.9-3.3,18.7-7.9c5.7-4.6,10.2-10.2,13.6-16.7c3.2-6.2,4.7-12.4,4.7-18.5c0-0.4,0-2.3-0.1-5.8
			c-0.1-3.5-2.6-7.6-7.7-12.1c-5-4.5-13.1-7.1-24.3-7.7C746.6,357,745.3,368.6,744.6,381.3z"/>
	</g>
	<g>
		<g>
			<path d="M36,540.3H3.9V515h94.9v25.3H66.7v151.6H36V540.3z"/>
			<path d="M113.6,515h30.7v72h32.9v-72H208v176.9h-30.7v-79.6h-32.9v79.6h-30.7V515z"/>
			<path d="M254.6,515h41.6L328,691.9h-30.7l-5.6-35.1v0.5h-34.9l-5.6,34.6h-28.5L254.6,515z M288.1,633.2
				l-13.7-87.4h-0.6l-13.4,87.4H288.1z"/>
			<path d="M354,540.3h-32.1V515h94.9v25.3h-32.1v151.6H354V540.3z"/>
			<path d="M444.4,541.8h-10V515h29.6v24l-17,33.1h-14.2L444.4,541.8z"/>
			<path d="M481.5,649.9v-10.1h29v12.1c0,12.6,6.1,17.2,15.9,17.2c9.8,0,15.9-4.5,15.9-17.7
				c0-14.7-6.1-24-26.2-39.9c-25.7-20.5-34.1-34.9-34.1-55.1c0-27.8,15.9-44,45.8-44c29.9,0,44.7,16.2,44.7,44.5v7.3h-29v-9.1
				c0-12.6-5.6-17.4-15.4-17.4c-9.8,0-15.4,4.8-15.4,16.9c0,12.9,6.4,22.2,26.5,38.2c25.7,20.5,33.8,34.6,33.8,56.6
				c0,28.8-16.2,45-46.3,45C496.6,694.4,481.5,678.2,481.5,649.9z"/>
			<path d="M628.1,515h29.6l13.7,135.9h0.6L686.4,515h33.5l14.5,135.9h0.6L748.7,515h26.5l-19.8,176.9h-38.2
				l-14-119.3h-0.6l-14,119.3h-40.8L628.1,515z"/>
			<path d="M790.8,515h30.7v72h32.9v-72h30.7v176.9h-30.7v-79.6h-32.9v79.6h-30.7V515z"/>
			<path d="M936.3,616.6L899.2,515h32.7l20.9,64.9h0.6l20.9-64.9h29.9L967,616.6v75.3h-30.7V616.6z"/>
		</g>
	</g>
	<g>
		<path d="M932.5,484.2c-10.7,2.2-21.3,4.9-32,6.6c-9.1,1.4-18.3,2.6-27.6,1c-15.2-2.7-20.9-10.5-19.3-25.9
			c0.5-4.3,1.3-8.6,2.1-12.9c2.9-15.3,3.1-30.8,2.3-46.3c-1.2-24.8-5.6-49.1-9.9-73.5c-5.3-29.8-16.2-57.4-30.4-83.8
			c-11.6-21.5-23.7-42.8-35.3-64.4c-5.4-10-10.5-20.3-13.1-31.5c-0.9-3.7-2.8-6.5-6.9-8.3c-9.9-4.4-13.6-13.2-10.8-23.6
			c1-3.7,2.2-7.3,4-10.7c5.1-9.5,3.4-19,0.1-28.5c-1.5-4.4-3.6-8.5-5.2-12.8c-2.7-7.6-2.2-14.8,2.7-21.7
			c6.6-9.4,15.7-14.7,26.2-18.5c4-1.4,8.2-3.2,11.5-6c6.3-5.3,13.5-6.8,21.2-7c6.1-0.1,11.9-0.7,17.3-3.8c5.8-3.2,12.2-2.7,18.4-1.9
			c6.1,0.7,11.6,0.2,17.4-2.4c7.1-3.1,14.6-2.4,21,2.2c4.6,3.2,9.5,5.1,14.9,6.4c3.4,0.8,6.8,2.2,9.7,4.1c2,1.4,3.5,3.9,4.7,6.2
			c2,3.8,3.3,8,5.6,11.6c15.2,23.4,25.8,48.5,29.5,76.2c2.1,16.2,1,32.5-0.4,48.8c-2.2,26.3-4.8,52.5-6.3,78.8
			c-1.2,21.2,0.3,42.4,5.3,63.2c3.8,15.9,7.2,31.9,11.9,47.5c6.7,22.4,15,44.2,26.9,64.5c2.6,4.5,5.8,8.6,8.6,12.9
			c1.6,2.5,2.9,5.2,4.5,7.7c5.9,9.8,1.9,20.4-6.2,25.8c-4.9,3.3-10.3,6.3-15.9,8c-11.9,3.7-24.1,6.5-36.3,9.6
			c-3.4,0.9-6.9,1.5-10.4,2.2C932.6,484.4,932.5,484.3,932.5,484.2z M928.4,175.6c0.2-1.2,0.4-2.4,0.5-3.6c-0.3,0-0.6,0-0.9-0.1
			C928.2,173.2,928.3,174.4,928.4,175.6c-0.1,1.8-0.3,3.5-0.5,5.2c-0.5,1.2-1.3,2.4-1.5,3.7c-2.2,20.5-4.8,41-6.2,61.6
			c-1.3,19-0.8,37.9,1.3,56.9c1,8.7,2.6,17.1,4.5,25.5c-0.4-10.5-1.4-21-1.8-31.4c-1-30.2,0.6-60.3,2.8-90.3
			c0.6-8.6,0.6-17.3,0.9-26C928,179,928.2,177.3,928.4,175.6z M941.7,413.7c1.3,0.2,2.5,0.4,3.8,0.5c0-0.3,0-0.7,0.1-1
			C944.3,413.3,943.1,413.5,941.7,413.7c-13.7-2.6-26.4,1.8-39,6c-3.7,1.2-6.8,4-10.2,6c-0.5,0.5-1.1,0.9-1.6,1.4
			c0.5-0.5,1-1,1.5-1.4c2.3-0.8,4.5-1.8,6.8-2.5c7.5-2.3,14.9-4.9,22.5-6.6C928.3,415,935.1,414.6,941.7,413.7z M911.6,286.2
			c0.2,5.9,0,11.8,0.6,17.6c0.9,8.9,2.7,17.7,3.3,26.6c0.9,13.3,4.8,25.9,7.8,38.7c-0.2-3.5-1.1-7-1.6-10.4
			c-1.9-12.1-3.9-24.1-5.6-36.2C914.4,310.4,913.1,298.3,911.6,286.2c0.5-5.6,0.5-5.6-2.3-11C910.1,278.9,910.8,282.5,911.6,286.2z
			 M888.9,392.9c0.3-0.5,0.7-0.9,0.8-1.4c1.5-22.1-1.4-43.9-5.3-65.6c-0.9-5-2.8-9.9-4.4-14.8c-3.7-11.6-6.8-23.6-11.5-34.8
			c-7.3-17.5-15.7-34.6-23.7-51.9c-0.9-1.9-2.3-3.5-3.7-5.6c-4,2.2-7.4,4.1-10.9,6c0.6,1.8,0.9,2.9,1.3,3.9
			c5.2,9.6,10.5,19.1,15.6,28.7c16,30.2,28.2,61.8,34.9,95.4C884.7,366.1,886.7,379.6,888.9,392.9c-0.1,1.3-0.3,2.5-0.4,3.7
			c0.3,0,0.6,0,0.9,0C889.2,395.5,889,394.2,888.9,392.9z M965.6,419.7c-2.5,3.2-5.8,3.7-9.9,3.9c-10.8,0.5-21.8,0.9-32.4,2.9
			c-11.9,2.3-23.8,5.6-34.7,11.4c-7.5,3.9-10.4,1.4-10.6-7.2c-0.4-16.8-0.1-33.8-2.3-50.4c-2.4-18-6.2-35.9-12.2-53.3
			c-5-14.7-10.8-29-17.2-43.1c-12.6-28.1-28.3-54.6-43.2-81.4c-9.5-17.1-19.5-34-24.5-53.2c-0.5-1.7-2.1-3.2-3.9-5.8
			c-0.4,2.4-0.7,3.2-0.6,3.9c0.3,1.9,0.7,3.8,1.4,5.5c6.7,18.2,15.4,35.4,25,52.1c17,29.4,33.7,59,47.2,90.3
			c8.7,20.2,16.5,40.8,20.6,62.6c1.8,9.9,3.4,19.8,4.6,29.8c2,15.9,2.4,31.9,1.1,48c-0.1,1.6,0.1,3.1,0.1,5.1
			c10.6,3.6,21.2,3.4,31.6,1.7c12.6-2,25.2-4.8,37.6-7.9c8.2-2.1,16-5.5,22.8-10.6c4-3,4.2-4.1,2.4-8.3
			c-4.5-10.4-9.6-20.7-13.5-31.4c-4.6-12.5-8.5-25.2-12.1-38c-1.6-5.7-1.4-11.9-2.6-17.7c-3.3-15.8-4-31.9-4.2-47.9
			c-0.3-26.1,1.5-52.2,4.1-78.1c1.8-17.6,3.6-35.2,4.8-52.8c0.7-10,1-20.2-0.2-30.1c-2-17.1-6.4-33.7-13.7-49.4
			c-3.9-8.2-7.6-16.6-13-24C887.5,62,838.9,72.9,824.7,69c16.7-3.8,31.9-6.5,46.6-10.8c14.7-4.4,29.7-8.6,43-17.6
			c-1-1.2-1.8-2.2-2.7-3.4c-4.4,2.1-8.5,4.2-12.7,6c-20.7,9.1-42.3,15.5-64.5,20.1c-7.2,1.5-14.4,3.2-21.6,4.5
			c-8.7,1.6-14.6,7-19.4,13.8c-1.3,1.8-1.9,4.8-1.4,6.9c1.9,7.6,4.4,15,6.9,23.1c44.2-5.4,87.9-14.7,130.5-29.2
			c-20,11.8-41.6,19.2-63.9,25.2c-22.7,6.1-45.8,7.5-68.1,9.5c-2.7,4.9-5.2,9.1-7.3,13.5c-1,2.1-2.1,4.6-1.7,6.7
			c1.6,10.5,5.3,20.3,10.5,30c4.9-2.4,9.5-4.6,14-6.8c-1.2-10.3-7.7-18.8-6.8-29.1c44.6-6.7,88.7-14.6,130-32.6
			c0.6,0.6,1.1,0.9,1.3,1.3c0.5,1.3,0.8,2.6,1.2,3.9c3,11.4,4,23.1,3.2,34.8c-2,26.8-4.7,53.6-6.5,80.5c-1.3,18.7-1.9,37.4-2.4,56.2
			c-0.5,16.6,1.5,33,3.2,49.5c1.9,17.5,6.1,34.3,11.8,50.7C953,390.5,959.4,404.6,965.6,419.7z M909,28c-2.2-3.5-6.3-3.7-9.7-5
			c-4.1-1.5-8.7-2.2-12-4.8c-7.1-5.7-14.4-5.8-22.3-3c-6.3,2.2-12.7,2.3-19.3,2c-4.7-0.2-10,0.3-14.2,2.1
			c-5.4,2.3-10.7,3.3-16.5,3.5c-8.2,0.3-16.1,1.6-22.7,7.5c-3.1,2.8-7.5,4.6-11.6,5.7c-7.7,2-13.8,6.4-19.3,11.8
			c-4.9,4.9-7.3,10.7-4.9,17.8c2.3,6.7,4.3,13.4,6.5,20.1c3,8.8,3.2,17.4-0.9,26.1c-1.8,3.9-3.4,8-4.6,12.2
			c-1.7,5.5-0.1,10.4,4.3,13.9c4.3,3.4,9.1,1.1,13.1-0.9c13.3-6.8,19.4-24.6,13.7-38.8c-0.8-2-1.3-4.2-2-6.2c-2.4-7-0.3-12.7,4.5-18
			c6.4-7.1,14.2-11.6,23.6-13.6c18.9-4,38.1-6.9,56.3-13.5c10.7-3.9,21.1-8.4,31.6-12.8C905.4,33,908.4,31.8,909,28z M856.3,334.7
			c3.9,22.3,6.8,44.6,8,67.2c1,19.3,0.6,38.5-3.1,57.6c-0.8,4.2-1.2,8.6-1.3,12.9c0,2,0.8,4.2,1.7,6.1c2.9,6.2,8.8,6.6,14.5,7.2
			c13.7,1.5,27.2-1.7,40.4-4c18.5-3.2,36.6-8.2,54.8-12.9c6-1.6,11.7-4.5,17.1-7.4c10.2-5.5,11.6-12.9,5.5-23.2
			c-2.5-4.2-5.5-8.1-8.1-12.3c-16.1-25.8-26.4-54.1-34.2-83.3c-1.4-5.3-3.1-10.4-4.7-15.7c-0.6,0.2-1.2,0.4-1.9,0.5
			c2.9,11,6.1,22,8.7,33c2.9,12.5,7.8,24.3,12.9,36c2.6,6,5.6,11.8,8.3,17.7c3,6.4,2.2,9.9-3.6,14c-3.3,2.3-6.8,4.6-10.5,6.3
			c-21.3,9.9-43.9,14-67.1,15.4c-5.3,0.3-10.9-0.6-16.2-1.7c-8.7-1.8-11-5.1-10-13.7c2-17.4,0.6-34.8-1.5-52
			C864.1,366.5,859.7,350.7,856.3,334.7z M834.4,203.8c-4.1-8.2-7.6-15.4-11.5-23.3c-4.9,2.3-9.2,4.3-14.2,6.6
			c3.6,8.4,8.1,15.4,12.8,22.9C825.6,208,829.4,206.2,834.4,203.8z M921.4,124.3c-2.4-1.2-3.9-2.4-5.3-2.4c-0.8,0-2.3,2.6-2,3.5
			c0.5,1.4,2.3,2.3,3.5,3.5C918.6,127.6,919.7,126.4,921.4,124.3z M828.6,157.2c-2.1-1-3.6-1.7-5.1-2.4c-0.6,1.4-2.1,3.2-1.7,4
			c0.7,1.3,2.7,2,4.1,2.9C826.6,160.5,827.4,159.2,828.6,157.2z M932.8,139.8c-1-1.2-1.9-2.5-2.2-2.4c-1,0.3-1.7,1.3-2.6,2
			c0.6,0.7,1.2,1.8,1.9,1.9C930.6,141.5,931.5,140.6,932.8,139.8z M907.9,148.2c-1.6-0.4-2.7-1-3.3-0.6c-0.7,0.4-1.3,1.7-1.1,2.4
			c0.1,0.5,1.7,1.4,2.2,1.2C906.5,150.9,906.9,149.7,907.9,148.2z M879.5,162.7c-2.3,2.5-3.2,4-1,5.4c0.5,0.3,1.4-0.1,2.1-0.2
			C880.4,166.5,880,165,879.5,162.7z M851.6,157.7c-1.5-0.9-2.3-1.8-3-1.7c-0.7,0.1-1.2,1.3-1.8,1.9c0.7,0.6,1.4,1.6,2.2,1.8
			C849.6,159.8,850.4,158.7,851.6,157.7z M868.3,150.8c-0.5,1.7-0.9,2.6-0.8,3.5c0.1,0.5,1.4,1.4,1.5,1.3c0.8-0.5,1.9-1.3,1.9-2.1
			C870.9,152.9,869.7,152.2,868.3,150.8z M897.7,129.1c-1.8-0.4-2.7-0.9-3.4-0.7c-0.5,0.1-1.3,1.5-1.1,1.8c0.5,0.8,1.5,1.6,2.3,1.7
			C895.9,131.8,896.5,130.5,897.7,129.1z M913.9,163c0.4-0.3,1-0.5,1.1-0.8c0.1-0.4-0.4-0.8-0.6-1.2c-0.5,0.4-0.9,0.8-1.4,1.1
			C913.3,162.4,913.6,162.7,913.9,163z M836.7,171.9c-0.2-0.4-0.4-1-0.8-1.1c-0.3-0.1-0.8,0.3-1.2,0.5c0.3,0.5,0.7,1,1,1.5
			C836,172.5,836.4,172.2,836.7,171.9z M883.8,133.4c-0.2-0.4-0.4-1-0.8-1.1c-0.3-0.1-0.8,0.3-1.2,0.5c0.3,0.5,0.7,1,1,1.5
			C883.2,134,883.5,133.7,883.8,133.4z M857.2,141.4c-1-0.4-1.7-0.7-2.4-1c-0.1,0.5-0.4,1-0.3,1.5c0.1,0.5,0.6,0.9,0.9,1.3
			C855.9,142.7,856.4,142.2,857.2,141.4z M883.9,190c-0.3-0.3-0.6-0.9-0.9-0.9c-0.4,0-0.8,0.4-1.1,0.7c0.4,0.4,0.8,0.9,1.3,1.3
			C883.4,190.7,883.7,190.4,883.9,190z M910.7,270.1c0-0.2,0-0.5,0-0.7c-0.2,0.2-0.3,0.4-0.5,0.5C910.4,270,910.6,270,910.7,270.1z
			 M864,134.3c-0.1-0.2-0.2-0.4-0.3-0.6c-0.1,0.1-0.4,0.2-0.4,0.3c0,0.2,0.2,0.4,0.3,0.6C863.7,134.4,863.8,134.4,864,134.3z
			 M950.9,414.3c-0.6,0-0.9,0-1.2,0c0.1,0.1,0.2,0.4,0.3,0.4C950.3,414.6,950.5,414.5,950.9,414.3z"/>
		<path d="M945.4,429.5c-8.2,6.5-33.3,12-44,10.1C906.6,432.9,931.1,427,945.4,429.5z"/>
		<path d="M870.2,66.3c2-0.6,6.1,1.8,5.9,4.1c-0.2,2.1-1.5,4.4-3,6c-1.3,1.3-4.5-0.8-5.5-3.3
			C866.6,70.6,868,66.9,870.2,66.3z"/>
		<path d="M905.3,70.7c2.9,2.3,5.2,3.3,6.2,5.1c1.2,2.3,0.2,4.8-2.1,6.3c-1.9,1.2-6.1-1.1-6.2-3.6
			C903.1,76.4,904.3,74.3,905.3,70.7z"/>
		<path d="M820.6,81.8c2.7,2.7,4.8,4,5.7,5.9c1.3,2.6-0.6,6-3.2,6.2c-2.9,0.2-4.9-1.5-4.9-4.2
			C818.2,87.6,819.5,85.5,820.6,81.8z"/>
		<path d="M919.6,56.3c-1.6,2.1-2.4,4-3.8,4.7c-2.2,1-3.8-0.7-3.8-2.8c0-1.6,1.1-3.8,2.3-4.3
			C915.3,53.5,917.2,55.2,919.6,56.3z"/>
		<path d="M833.8,99.1c-2.4,1.9-3.5,3.6-4.9,3.8c-2.2,0.4-3.7-1.4-3.4-3.4c0.2-1.2,1.7-3.1,2.7-3.1
			C829.7,96.3,831.2,97.7,833.8,99.1z"/>
		<path d="M808,87.9c-2.1-2.2-3.7-3.2-4.2-4.6c-0.7-2,1.6-4.7,3.5-4.1c1.2,0.4,2.7,1.9,2.9,3.1
			C810.3,83.7,809.1,85.2,808,87.9z"/>
		<path d="M891.5,90.9c-3.2-1.1-6-2.1-4-5.7c0.5-1,3.1-2,3.8-1.5C894.1,85.4,893.9,87.9,891.5,90.9z"/>
		<path d="M848.8,78.1c-3.2-0.8-5.9-1.7-4.4-5.3c0.4-1,2.9-2.3,3.7-1.9C851.2,72.4,851.1,74.9,848.8,78.1z"/>
		<path d="M846,91.7c1.5,1.7,3.2,2.8,3.2,3.8c-0.1,1.1-1.6,2.5-2.8,3c-0.4,0.2-2.5-1.5-2.6-2.3
			C843.8,95,845,93.7,846,91.7z"/>
		<path d="M893.2,71.6c-1.3,1.3-2.3,3.1-2.9,2.9c-1.3-0.3-2.7-1.4-3.3-2.6c-0.3-0.5,1.4-2.9,1.9-2.9
			C890.2,69.4,891.4,70.5,893.2,71.6z"/>
		<path d="M864.8,87.7c-1.2,1.5-2.1,3.2-2.8,3.1c-1.2-0.1-2.8-1-3.4-2.1c-0.3-0.6,1.1-3.1,1.5-3.1
			C861.5,85.8,862.8,86.7,864.8,87.7z"/>
		<path d="M806.5,93.3c-1.1,1.4-1.8,2.9-2.6,3.1c-0.9,0.1-2.9-1.3-2.9-1.8c0.2-1.3,1.3-2.5,2-3.7
			C804.1,91.5,805.1,92.3,806.5,93.3z"/>
		<path d="M919.2,72.5c1,0.7,2.2,1.1,2.4,1.8c0.2,0.6-0.8,1.5-1.2,2.3c-0.8-0.6-1.7-1-2.2-1.8
			C918,74.5,918.7,73.6,919.2,72.5z"/>
		<path d="M898.5,62.9c1,0.8,2.2,1.3,2.4,2c0.2,0.6-0.9,1.5-1.4,2.2c-0.7-0.6-1.6-1.1-2.1-1.9
			C897.2,64.8,897.9,64,898.5,62.9z"/>
		<path d="M861.4,77.8c-0.9,1.2-1.5,1.9-2.1,2.6c-0.5-0.5-1.4-0.9-1.5-1.4c-0.1-0.6,0.4-1.6,1-1.9
			C859.2,76.9,860.1,77.4,861.4,77.8z"/>
		<path d="M825.9,76.6c-0.9,0.8-1.3,1.4-1.9,1.7c-0.2,0.1-1.1-0.4-1.1-0.6c0-0.6,0.2-1.5,0.7-1.8
			C823.9,75.7,824.7,76.2,825.9,76.6z"/>
		<path d="M807.9,103.8c1.7-1,2.3-1.5,3-1.7c0.4-0.1,1.3,0.1,1.3,0.3c0.1,0.7-0.1,1.4-0.2,2.1
			C811.4,104.4,810.7,104.3,807.9,103.8z"/>
		<path d="M840.2,81.6c0.7,1,1.5,1.6,1.4,2c-0.2,0.6-0.9,1-1.5,1.3c-0.1,0.1-0.9-0.7-0.9-1
			C839.2,83.3,839.6,82.7,840.2,81.6z"/>
		<path d="M874.4,91.4c-0.8,0.9-1.3,1.7-1.7,1.7c-0.5,0-1.1-0.8-1.4-1.3c-0.1-0.1,0.5-1,0.8-1
			C872.7,90.7,873.3,91,874.4,91.4z"/>
		<path d="M770.2,105.2c-0.3,4.5-0.8,9-0.9,13.5c-0.1,1.7,0,4,1,5.1c1.9,1.9,3.9,0.2,5.8-1c5.1-3.4,8.2-7.8,7.7-14.3
			c-0.3-4.3-0.4-8.6-0.5-13.3c4.7,4.2,4.6,9.5,4.4,14.8c-0.4,10.8-6.3,18.3-14.7,24.2c-2.6,1.8-6,3.1-9.2,1c-3.3-2.3-4-5.8-3.1-9.4
			c0.7-3.2,1.9-6.2,3.1-9.3c1.5-3.8,3.2-7.5,4.8-11.2C769.1,105.2,769.7,105.2,770.2,105.2z"/>
		<path d="M840.8,50.2c-4.2-1.3-8.1-2.5-12.2-3.7c1.1-2.9,3.6-3.2,6-2.7c3.1,0.6,4.9-0.6,7.1-2.7
			c4.9-4.8,10.6-5.6,18.7-2.1c-5.2,1.5-9.1,1.8-12.1,3.6C845.5,44.2,843.5,47.3,840.8,50.2z"/>
		<path d="M785,56.9c0.4-3.6,2.4-6.7,5.9-7.7c3.4-1,5.3-3.1,7.5-5.7c4.5-5.3,10.2-6.2,18.4-3.9
			c-2.8,1-3.9,1.7-5.1,1.9c-5.2,0.7-8.9,3.3-11.6,7.9c-0.9,1.6-3,2.9-4.8,3.7C792,54.6,788.6,55.6,785,56.9z"/>
		<path d="M866.7,36.6c0.5-0.6,1-1.7,1.4-1.7c6,0,10.8-3.1,15.9-5.7c3.3-1.7,7.2-1.5,11.3,2.5
			c-8.2-0.2-14.4,1.4-15.5,9.6C875.1,39.6,871.2,38.2,866.7,36.6z"/>
		<path d="M819.9,34.4c-0.1-4.5,2.5-8.3,5.6-8.4c7-0.3,10.1-11.1,19.2-5.7c-4.4,2.1-9.3,3.5-9.3,9.6
			C829.3,29.3,824,29.7,819.9,34.4z"/>
		<path d="M763.7,56.1c-0.7-4.4,1.6-6.7,4.4-8.4c4.1-2.4,8.3-4.7,12.5-6.9c0.6-0.3,1.5-0.1,3-0.2
			c-1.8,3.1-3.4,5.9-5.4,9.4c-2,0.4-4.7,0.6-7.2,1.6C768.7,52.7,766.6,54.4,763.7,56.1z"/>
		<path d="M805.3,57.4c5-8.9,8.7-10.1,18.1-5.9C817.2,53.5,811.7,55.3,805.3,57.4z"/>
		<path d="M883.9,23.2c-6.4,1.8-12.1,3.3-18.1,5c0.1-3.2,2.2-5.4,5.4-6.3C875.6,20.6,880.1,18.9,883.9,23.2z"/>
		<path d="M857.3,25.9c-4.6,1.6-9.2,3.1-13.8,4.7C844.6,22.9,850.3,21,857.3,25.9z"/>
		<path d="M812.5,29.1c-5.1,2.2-9.1,4-13.6,5.9c-1.1-3.6,1.6-5.1,3.9-6.5C806,26.6,809.2,26.3,812.5,29.1z"/>
		<path d="M983,458.4c-4.8,6.8-12,6.4-19.1,6.3c-2.7,0-5.3-1.1-7.9-1.8c-18.5-4.8-35.5-2-50.5,10.4
			c-1.5,1.2-3,2.4-4.6,3.5c-0.4,0.3-1,0.2-1.5,0.4c-2.8-6.8-1.9-15.1,1.9-18.9c-1-1.1-2-2.1-3-3.1c0.8-0.8,1-1.4,1.4-1.5
			c15.2-3.1,30.6-5.5,45.7-9.3c13-3.2,24.9-9.1,35.2-19.6c4.4,6.6,8.7,12.4,12.3,18.7c2.6,4.6,1.8,6.6-2.7,11.8
			c-0.9-1-1.7-1.9-2.8-3.2C986.6,454.9,989.2,460.1,983,458.4c-0.4-1.1-0.8-2.2-1.2-3.3c-0.3,0.2-0.5,0.3-0.8,0.5
			C981.6,456.5,982.3,457.5,983,458.4z M919.1,457.4c0,0.2,0.1,0.3,0.1,0.5c5.4-1.1,10.8-2.3,16.3-3.4c0-0.2-0.1-0.3-0.1-0.5
			C929.9,455.1,924.5,456.2,919.1,457.4z M948.1,450.2c0-0.2-0.1-0.3-0.1-0.5c-2.2,0.5-4.5,0.9-6.7,1.4c0,0.2,0.1,0.3,0.1,0.5
			C943.6,451.2,945.8,450.7,948.1,450.2z M914,457.5c0.1-0.2,0.2-0.5,0.2-0.7c-2.1,0.5-4.3,0.9-6.4,1.4c0,0.2,0.1,0.4,0.1,0.6
			C909.9,458.4,912,458,914,457.5z M954.7,447.1c-0.8-0.1-1.3-0.4-1.7-0.2c-0.3,0.1-0.4,0.6-0.6,1
			C953,447.6,953.7,447.4,954.7,447.1z M959.8,444.4c0.2-0.1,0.4-0.2,0.6-0.3c-0.2-0.1-0.4-0.2-0.7-0.2c-0.2,0-0.4,0.2-0.6,0.3
			C959.4,444.2,959.6,444.3,959.8,444.4z"/>
		<path d="M866.9,448.9c4.3,1.5,7.9,2.7,11.9,4.1c0.3,2.3,0.7,4.6,1.1,7.3c0.5-0.4,0.8-0.6,0.9-0.9
			c0.5-2.1,1-4.1,1.6-7c1.8,1.2,3.9,2,4,2.9c0.1,8.9-0.2,17.7-0.4,27c-2.6,0.1-4.1,0.2-5.7,0.2c-16.5,0.3-18.6-7.3-16.4-19.9
			C864.7,458.3,865.8,454.1,866.9,448.9z"/>
		<path d="M956.9,467.7c-14.4,7.1-33.8,11.2-50.5,11.1C911.8,471.7,944.9,465.4,956.9,467.7z"/>
	</g>
	<g>
		<g>
			<g>
				<path d="M193.3,885c-3.7,1.2-7.8,1.8-12.4,1.9h-1.7c-4,0-7.7-0.4-11-1.5c-3.5-0.9-5.1-2.7-5.1-5.1V726.9
					c0-2,1.8-3.7,5.5-4.8c3.6-1.2,7.7-1.8,12.4-1.9h0.8c4.3,0,8.2,0.5,11.8,1.5c3.5,1.1,5.3,2.8,5.3,5.3v153.4
					C198.7,882.3,196.9,883.9,193.3,885z"/>
				<path d="M226.8,717.6c1.3,0,3.5,0.2,6.7,0.7c3.3,0.5,7,2.2,11.4,4.9c4,2.5,6,5.3,6,8.2v0.6
					c-0.4,2-1.6,5.7-3.4,11.2c-1.9,5.6-4.1,11.7-6.5,18.2c-2.4,6.5-4.7,12.2-6.7,17c-2,4.9-3.5,7.7-4.2,8.4c-1.4,0.8-3,1.3-5,1.3
					c-0.5,0-1.7-0.1-3.3-0.3c-1.7-0.2-3.6-1.1-5.6-2.6c-1.7-1.4-2.5-3-2.5-5.3c0-0.4,0-0.8,0.1-1.4c0.3-1.4,0.6-2.7,0.9-4.1
					c1.1-3.6,1.6-7,1.6-10.3c-0.1-3.3-1.8-6.1-5.3-8.3c-1.2-0.9-1.8-2.8-1.8-5.7c0-0.9,0.2-2.8,0.5-5.7c0.3-2.8,1.4-6.8,3.2-12.1
					c1.8-5.1,4-9.4,6.4-12.4C221.1,718.4,223.5,717.6,226.8,717.6z"/>
				<path d="M355.1,715.1c2.5-0.6,5-0.9,7.7-0.9c1.8,0,4.3,0.3,7.6,0.8c3.2,0.5,5.1,2.3,5.9,5.3
					c3.3,22.2,4.9,45.6,4.9,70.3c0,3.3-0.1,12.7-0.4,28.5c-0.2,15.8-2.1,36.3-5.7,61.4c-0.7,2.6-3.2,4.3-7.4,4.8
					c-1.3,0.2-2.4,0.2-3.7,0.2c-2.8,0-5.7-0.4-8.4-1.4c-3.8-1.4-5.7-3.6-5.7-6.6v-0.3c1.9-12.5,3.5-26.4,4.6-41.4
					c0.5-6.9,0.8-13.6,0.8-19.9c0-7.5-0.4-14.4-1.2-21c-0.9,2.8-2.7,6.9-5.4,12.1c-2.6,5.1-5.8,10.3-9.2,15.4
					c-3.5,5.1-6.9,9.1-10.3,11.9c-2,1.6-3.8,2.4-5.4,2.4c-1.2,0-2.2-0.4-3.2-1.3c-6-5.9-10.8-11.5-14.5-16.7
					c-3.7-5.3-7.6-12.3-11.7-21c0.1,17.6,0.6,31.6,1.8,42.2c1.2,10.6,2.2,18.8,3.2,24.4c0.7,4.3,1.2,7.6,1.3,9.9
					c-0.2,3.3-2.8,5.8-7.9,7.7c-4.7,1.8-9.6,2.6-14.5,2.6c-0.3,0-1.9,0-4.7-0.1s-4.7-1.6-5.7-4.5c-4.1-21.8-6.4-47.6-6.7-77.6V795
					c0-26.8,1.7-50.1,5.3-69.9c0.4-1.5,2.3-2.8,5.6-4c3.3-1.2,6.9-1.9,11.1-2.2c1.4-0.1,2.6-0.2,3.9-0.2c2.6,0,5.5,0.4,8.3,1.2
					c2.8,0.7,4.5,2.3,5.1,4.9c1.4,7,3.4,15.4,6.1,25.4c2.7,10,6,19.8,9.9,29.4c3.8,9.8,8,17.8,12.5,24c6.4-12.1,10.6-24.7,12.8-37.8
					c2.2-13,3.5-24.2,4-33.4c0.3-5.6,0.7-9.8,1.3-12.4C348,717.7,350.6,716,355.1,715.1z"/>
				<path d="M482.1,880.7c-3.5,1.6-7.5,2.5-12.2,3c-2,0.2-3.9,0.3-5.7,0.3c-2.4,0-5.1-0.3-8-0.8
					c-2.9-0.6-4.6-2.1-5.1-4.4c-3-24.6-4.6-50.7-4.7-78.1v-3.3c0-26.2,1.6-51.1,4.8-74.7c0.4-2,2.5-3.4,6.2-4.1
					c2.5-0.5,5.4-0.8,8.3-0.8c1.5,0,3.7,0.2,6.8,0.4c3,0.3,6.3,1.2,9.7,2.5c3.3,1.4,4.9,3.3,4.9,5.5v0.3c-3.5,26.9-5.1,53.9-5.1,81
					c0,3.5,0,6.9,0.1,10.4l41.1-0.9c0.1-5.7,0.1-11,0.1-16.2c0-16.2-0.5-30.3-1.7-42.5s-2.4-21.5-3.7-28.1c-0.4-2.2-0.7-4.2-0.9-5.9
					v-0.3c0-3.6,2.2-6.2,6.6-7.9c3.6-1.4,7.1-2.1,10.8-2.1c1.1,0,3,0.2,6,0.5c2.9,0.3,4.7,2,5.5,5c2.6,27.1,4.1,53.8,4.2,80.2v1.4
					c0,25.9-2,52-6,78.6c-0.7,2.6-3.4,4.3-7.9,5c-1.6,0.2-3.2,0.4-4.6,0.4c-2.8,0-5.6-0.4-8.2-1.3c-4-1.3-6-3.4-6-6.3v-0.3
					c2.2-13.3,3.8-26.8,4.9-40.3l-38.6,0.9c0.9,12.9,1.8,22.5,2.6,28.9c0.4,3.2,0.7,5.8,0.8,7.8
					C487.2,877.3,485.5,879.1,482.1,880.7z"/>
				<path d="M622.7,879.1c-6.8,1.2-14.2,2-22,2.6c-5,0.4-9.6,0.6-13.7,0.6c-2.3,0-5.4-0.1-9.2-0.4
					c-3.9-0.2-6.1-1.3-6.8-3c-5.6-24.9-8.3-50.8-8.3-77.5c0-26.6,2.7-52.4,8.3-77.4c0.7-1.8,4.1-3,10.1-3.7c4-0.4,8.4-0.5,13.2-0.5
					c2.4,0,6.3,0.1,11.7,0.2c5.4,0.2,11.4,0.7,18.2,1.6c6.7,0.8,11.2,1.8,13.6,2.8c2.1,1.2,3.4,3.3,3.8,6.3c0.1,0.9,0.2,1.9,0.2,2.7
					c0,2-0.4,4.1-1.3,6.3c-0.9,2.2-2.5,3.4-4.9,3.6c-2.4,0.1-6,0.1-10.7,0.2c-4.5,0.1-8.9,0.1-13.2,0.2c-4.3,0.1-7.5,0.2-9.2,0.3
					c-3.6,19-5.4,38.3-5.4,57.7c0,3.8,0.1,7.7,0.2,11.5l26.9-1.5c2.6,0.1,4.4,1.9,5.5,5.4c0.6,2,0.9,4.1,0.9,6.1
					c0,1.4-0.2,3.4-0.7,5.8c-0.5,2.4-2,3.9-4.6,4.2l-26.4,1.3c0.9,8,2.1,15.9,3.6,23.8h3.4c1.4,0,3.5,0,6.3-0.1s6.3-0.2,10.4-0.3
					c4.8-0.1,8.6-0.2,11.2-0.3c3.5,0.1,5.9,1.5,7.1,4c0.8,1.7,1.3,3.5,1.3,5.4c0,0.9-0.2,2.3-0.6,4.3c-0.4,1.9-1.8,3.4-4,4.5
					C634.3,876.9,629.5,878,622.7,879.1z"/>
				<path d="M691.3,884.1c-3.7,1.8-8,2.9-12.8,3.3c-4.8,0.4-8.8,0.2-12-0.3c-3.2-0.6-4.9-2.1-5.5-4.3
					c-3.6-26.2-5.4-52.4-5.4-78.6c0-26.2,1.8-52.2,5.4-78.4c0.3-3.3,3.5-4.9,9.5-5.3c6-0.3,9.9-0.5,11.8-0.5
					c15.6,0,29.2,2.3,40.9,6.7c11.7,4.5,20.2,11.2,25.6,20.2c4.4,7.1,6.6,14.8,6.6,23c0,2-0.4,6.2-1.3,12.4
					c-0.7,6.3-4.8,14.3-12.1,24.1c-7.3,9.8-17.2,18.1-29.7,24.8c3.3,5.1,8.6,8.6,16.1,10.5c4.2,1.1,8.3,1.6,12.3,1.6
					c3.2,0,6.2-0.3,9.1-0.9h0.9c3.3,0,5.7,1.8,7,5.4c0.9,2.4,1.5,4.9,1.5,7.6c0,1.6-0.3,3.8-0.9,6.7c-0.6,2.9-2.7,4.8-6.4,5.8
					c-2.7,0.4-5.7,0.6-8.6,0.6c-3.9,0-8.7-0.5-14.7-1.5c-5.9-0.9-12.2-3.3-19-6.7c-6.8-3.5-12.2-8.1-16.3-13.8
					c0.3,9.5,1.2,17.4,2.5,24.1c0.5,2.9,0.9,5.3,1.1,6.8C696.9,880.1,695,882.3,691.3,884.1z M692.3,776.7
					c-0.8,12.7-1.3,24-1.3,33.9c6.7-0.6,12.9-3.3,18.7-7.9c5.7-4.6,10.2-10.2,13.6-16.7c3.2-6.2,4.7-12.4,4.7-18.5
					c0-0.4,0-2.3-0.1-5.8c-0.1-3.5-2.6-7.6-7.7-12.1c-5-4.5-13.1-7.1-24.3-7.7C694.2,752.4,693,764,692.3,776.7z"/>
				<path d="M827.7,879.1c-6.8,1.2-14.2,2-22,2.6c-5,0.4-9.6,0.6-13.7,0.6c-2.3,0-5.4-0.1-9.2-0.4
					c-3.9-0.2-6.1-1.3-6.8-3c-5.6-24.9-8.3-50.8-8.3-77.5c0-26.6,2.7-52.4,8.3-77.4c0.7-1.8,4.1-3,10.1-3.7c4-0.4,8.4-0.5,13.2-0.5
					c2.4,0,6.3,0.1,11.7,0.2c5.4,0.2,11.3,0.7,18.2,1.6c6.7,0.8,11.2,1.8,13.6,2.8c2.1,1.2,3.4,3.3,3.8,6.3c0.1,0.9,0.2,1.9,0.2,2.7
					c0,2-0.4,4.1-1.3,6.3c-0.9,2.2-2.5,3.4-4.9,3.6c-2.4,0.1-6,0.1-10.7,0.2c-4.5,0.1-8.9,0.1-13.2,0.2c-4.3,0.1-7.5,0.2-9.2,0.3
					c-3.6,19-5.4,38.3-5.4,57.7c0,3.8,0.1,7.7,0.2,11.5l26.9-1.5c2.6,0.1,4.4,1.9,5.5,5.4c0.6,2,0.9,4.1,0.9,6.1
					c0,1.4-0.2,3.4-0.7,5.8c-0.5,2.4-2,3.9-4.6,4.2l-26.4,1.3c0.9,8,2.1,15.9,3.6,23.8h3.4c1.4,0,3.5,0,6.3-0.1s6.3-0.2,10.4-0.3
					c4.8-0.1,8.6-0.2,11.2-0.3c3.5,0.1,5.9,1.5,7.1,4c0.8,1.7,1.3,3.5,1.3,5.4c0,0.9-0.2,2.3-0.6,4.3c-0.4,1.9-1.8,3.4-4,4.5
					C839.4,876.9,834.6,878,827.7,879.1z"/>
			</g>
		</g>
		<g>
			<g>
				<path d="M60.4,805.7c-5.4-6.9-3-15.7,5.6-18.2c3.9-1.2,8.6-1.5,12.6-0.9c12,1.9,23.9,4.4,35.8,6.8
					c5.5,1.1,11,2.5,16.3,4.1c1.9,0.6,3.9,2.2,4.9,3.8c1.3,2.3,0.2,4.5-1.8,6.2c-2.7,2.3-6.6,3.6-10,4.3c-1.9,0.4-3.8,0.7-5.7,1
					c-15.1,2.5-30.5,2.6-45.6-0.1c-0.1,0-0.2,0-0.2,0C67.5,811.9,63.4,809.5,60.4,805.7z"/>
				<path d="M133.8,843.8c-6.4,10.3-12.6,20.8-19.6,30.7c-4.6,6.4-11.5,10.1-18.9,10.3C86.7,884.6,82,880,82,872.9
					c0-4.2,1.7-7.9,4.3-11.3c5.3-6.9,12.6-11.7,19.9-16.2c5.5-3.4,10.6-6.3,16.2-9c1-0.5,4.7-1.5,5.7-1.5c2.7,0.1,3.4,0.5,5.1,1.7
					C135.5,838.3,135.3,841.4,133.8,843.8z"/>
				<path d="M85,728c-0.6-4.4,1.2-8.2,5.6-10.1c4-1.8,8-1,11.4,1.7c1.7,1.4,3.3,3,4.8,4.6
					c8.6,9.1,17.2,18.3,25.8,27.4c0.6,0.6,1.3,1.2,1.8,1.9c1.6,1.8,2.6,4,0.9,5.8c-0.3,0.4-0.7,0.7-1.1,0.9c-1.8,1.2-4,1.6-6.1,1.2
					c-17.5-2.6-30.9-9.7-39.7-23.8C86.6,734.7,85.5,731.3,85,728z"/>
			</g>
			<g>
				<path d="M947.6,805.7c5.4-6.9,3-15.7-5.6-18.2c-3.9-1.2-8.6-1.5-12.6-0.9c-12,1.9-23.9,4.4-35.8,6.8
					c-5.5,1.1-11,2.5-16.3,4.1c-1.9,0.6-3.9,2.2-4.9,3.8c-1.3,2.3-0.2,4.5,1.8,6.2c2.7,2.3,6.6,3.6,10,4.3c1.9,0.4,3.8,0.7,5.7,1
					c15.1,2.5,30.5,2.6,45.6-0.1c0.1,0,0.2,0,0.2,0C940.5,811.9,944.6,809.5,947.6,805.7z"/>
				<path d="M874.2,843.8c6.4,10.3,12.6,20.8,19.6,30.7c4.6,6.4,11.5,10.1,18.9,10.3c8.6-0.2,13.3-4.8,13.4-11.9
					c0-4.2-1.7-7.9-4.3-11.3c-5.3-6.9-12.6-11.7-19.9-16.2c-5.5-3.4-10.6-6.3-16.2-9c-1-0.5-4.7-1.5-5.7-1.5
					c-2.7,0.1-3.4,0.5-5.1,1.7C872.5,838.3,872.7,841.4,874.2,843.8z"/>
				<path d="M923,728c0.6-4.4-1.2-8.2-5.6-10.1c-4-1.8-8-1-11.4,1.7c-1.7,1.4-3.3,3-4.8,4.6
					c-8.6,9.1-17.2,18.3-25.8,27.4c-0.6,0.6-1.3,1.2-1.8,1.9c-1.6,1.8-2.6,4-0.9,5.8c0.3,0.4,0.7,0.7,1.1,0.9c1.8,1.2,4,1.6,6.1,1.2
					c17.5-2.6,30.9-9.7,39.7-23.8C921.4,734.7,922.5,731.3,923,728z"/>
			</g>
		</g>
	</g>
	<path d="M768.2,253.3c-1.4,0.2-2.9,0.3-4.3,0.5c-7.8,0.8-15.6,1.6-23.2,3.9c-8.4,2.5-13.8,7.9-16.2,16.3
		c-1.4,4.7-2.3,9.5-2.8,14.4c-0.5,4.1-0.9,8.3-1.3,12.4c0,0.2-0.1,0.3-0.4,0.5c-0.1-1.3-0.3-2.7-0.4-4c-0.8-7.3-1.5-14.6-3.4-21.7
		c-1-3.7-2.4-7.2-4.8-10.3c-2.8-3.7-6.7-5.8-10.9-7.3c-4.2-1.5-8.6-2.3-13.1-2.9c-4.8-0.6-9.7-1.1-14.5-1.6c-0.3,0-0.6-0.2-1-0.4
		c1.3-0.1,2.6-0.2,3.9-0.4c7.7-0.8,15.4-1.5,22.8-3.7c3.5-1,6.8-2.4,9.6-4.7c3.1-2.5,5.1-5.8,6.5-9.4c1.6-4.1,2.5-8.5,3.1-12.9
		c0.7-5.4,1.3-10.9,1.9-16.3c0-0.2,0.1-0.4,0.4-0.5c0.1,1,0.2,2,0.3,3c0.5,4,0.9,8,1.4,12c0.6,4.5,1.5,8.9,2.9,13.2
		c2.4,7.6,7.4,12.6,15,15c4.3,1.4,8.8,2.3,13.3,2.9c4.3,0.6,8.7,1,13.1,1.5c0.7,0.1,1.4,0.1,2.1,0.1
		C768.2,253.1,768.2,253.2,768.2,253.3z"/>
</g>
</svg>


