<?xml version="1.0" encoding="utf-8"?>
<!-- Generator: Adobe Illustrator 19.0.0, SVG Export Plug-In . SVG Version: 6.00 Build 0)  -->
<svg version="1.1" xmlns="http://www.w3.org/2000/svg" xmlns:xlink="http://www.w3.org/1999/xlink" x="0px" y="0px"
	 viewBox="0 0 1008 950.1" style="enable-background:new 0 0 1008 950.1;" xml:space="preserve" width="500" height="500">
<style type="text/css">
	.st0{fill:none;}
</style>
<g>
	<g>
		<path class="st0" d="M362.2,37.5c2.1-1.3,4-3.2,5.6-5.2c1.7-2.1,1.4-4.3-1.4-5.7c-1.8,5.7-2.2,6.5-7,9.1
			c-10.8,5.8-22.1,10.1-34.3,11.8c-3.7,0.5-7.6,0.8-11.2-1.3c0-1.4,0-2.5,0-4.1c-3.3,1.2-6.5,1.5-8.7,4.7c3.6,3,7.6,3.7,11.6,3.7
			C333.2,50.9,348.3,46.2,362.2,37.5z"/>
		<path class="st0" d="M251.1,153.1c-0.2-0.3-0.4-0.7-0.5-1c0,0.4,0,0.7,0.1,1.1
			C250.7,153.1,250.9,153.1,251.1,153.1z"/>
		<path class="st0" d="M203.5,144.3c3.1,0.3,6.5,0,9.5-0.8c7.5-2.1,14.3-5.7,20.4-10.4c6.5-5,11.9-11.1,14.6-19
			c1.5-4.3,2.5-8.7-1.7-12.3l0.2,0.2c0,0-0.1,0-0.1,0c2.4,5.8,0.9,10.9-2.3,16.1c-7.6,12.3-19.3,18.8-32.4,23.3
			c-0.3,0.1-0.8-0.2-1.1-0.3c2.5-2.1,5.4-4,7.7-6.5c2-2.1,3.8-4.7,4.8-7.4c3-7.5,0-13.3-8.7-16.2c10-6.9,19.5-12.7,32-9
			c0,0,0-0.1,0-0.1c-4.2-3.4-9.1-3.1-13.8-2c-14.4,3.4-25.5,11.7-33.5,24c-1.9,2.9-3.1,6.6-3.7,10.1
			C194.3,140.2,197.2,143.8,203.5,144.3z"/>
		<path class="st0" d="M186.8,274.7c-4.5-5.5-10-4.2-15.7-2.5C176.5,272.2,181.9,272.2,186.8,274.7z"/>
		<path class="st0" d="M369.6,55.6c-3.1-0.5-6.1-1.3-9.2-1.3c-10.4,0.1-20.5,2.4-29.3,7.9
			c-5.3,3.4-10.1,7.9-14.3,12.6c-3.6,4-5.6,9.3-2.6,14.8c2.7,5,7.6,5.8,12.7,5.8c14.1,0,26.9-4.1,38.4-12.2
			c3.9-2.7,7.7-5.8,9.3-10.6c-1.1,0.8-2.2,1.6-3.3,2.4c-4.7,3.3-9.1,7.1-14.1,9.9c-8.4,4.6-17.5,7.3-27.2,7.3
			c7.1-3.7,13.6-8.1,18.6-14.4c4.7-6,8.7-12.1,3.7-20.7c6.4,0,11.9,0,17.4,0C369.5,56.5,369.5,56.1,369.6,55.6z"/>
		<path class="st0" d="M256.5,592.5c0.1,14.1,5.4,25.8,16.5,34.5c9,7.1,19.5,10.6,30.9,10.9
			c25.1,0.8,40.4-16.8,36.7-41.6c-3.4-22-22.5-39.7-44.8-40.3C271.8,555.4,256.5,569.5,256.5,592.5z M329.4,582.2
			c7.2,12.2,10.4,30.8-1.8,41.6c3.1-25-15.6-52.2-43-60.7C301.3,555.9,321.5,568.8,329.4,582.2z"/>
		<polygon class="st0" points="351.1,846.8 351.1,846.8 351.1,846.8 		"/>
		<path class="st0" d="M192,217.6c-0.1,0-0.2,0-0.2,0c0,1,0,2.1,0,3.1c0.1,0,0.2,0,0.2,0
			C192,219.7,192,218.6,192,217.6z"/>
		<path class="st0" d="M202.5,202.1c4.3,0.5,9.1,0.4,13.2-0.9c15-4.8,26.7-14.1,34.6-27.8c2.2-3.8,3.5-7.9,3.2-13.2
			c-6.1,17.8-18.4,28.5-33.9,36.2c0-1,0.4-1.6,0.9-2.2c5.4-6.2,7.9-13.7,8.9-21.6c0.9-6.8,0.7-13.5-6.6-17.8
			c8.7-4.3,16.9-6.8,25.8-3.2c0.4,0.2,1,0,1.6,0c-5.5-5.6-12.5-4.8-19.1-3.3c-17.1,4-29.4,14.2-36.4,30.4c-1.5,3.4-2.2,7.4-2.4,11.1
			C191.9,197.1,195.2,201.3,202.5,202.1z"/>
		<path class="st0" d="M290.9,84.3c0.6-0.3,0.9-1,1.3-1.6c-2.1,0.8-4.1,1.5-6.2,2.4c-6.3,2.6-12.7,4.6-19.6,4.6
			c1.4-1.3,3.1-2.2,4.6-3.3c2.3-1.8,4.8-3.7,6.6-5.9c2.7-3.3,1.5-6.3-2.7-6.6c-2.7-0.2-5.4,0.3-9,0.6c11.5-9.3,23.7-13.8,37.9-12.7
			c-16.4-2.8-31.1,0.9-43.8,11.5c-5.4,4.5-9.9,9.8-11.5,16.9c1.2,0.6,1.7,1.1,2.3,1.2C265.2,94.5,278.5,91.8,290.9,84.3z"/>
		<path class="st0" d="M225.9,375.2c-14.9,16.9-18.3,36.8-10.9,58c1.7,5,5.2,10.1,9.3,13.5c6,4.8,13.5,7.3,21.1,7.1
			c9.6,0.2,17.6-3,24.2-9.3c14.7-14.3,20.6-31.7,16.5-51.8c-2.8-13.3-10.1-23.8-23.8-27.6C248.4,361.2,235.4,364.5,225.9,375.2z
			 M276.8,381.9c10.3,16.7,5.8,44.4-9.3,56.9c-0.3,0.2-0.7,0.1-1.6,0.3c5.2-10.6,7.1-21.5,6.6-33c-0.5-14.7-4.5-27.8-18.2-37.4
			C264.7,369.8,271.9,374,276.8,381.9z"/>
		<path class="st0" d="M307.5,150.8c-1.1-0.1-2.1-0.2-3.2-0.1c-17.7,1.4-32.5,8.5-43.1,23
			c-2.6,3.5-4.3,7.9-5.3,12.1c-2.9,12.6,5.2,23.1,18.1,24c1.3,0.1,2.6,0,3.8,0c20.2-1.6,36.5-10.2,46.4-28.3
			C332.6,166.1,324.9,152.6,307.5,150.8z M323.7,171.2c-0.9,6.4-4.2,11.6-8.2,16.4c-5.9,7.3-13,13-22.1,15.7
			c-2.3,0.7-4.9,0.8-8.3,1.4c22.1-19,24.3-37.1,15.1-51.1c5.5,0.7,9.8,0.7,13.8,1.8C321.7,157.6,324.8,163.2,323.7,171.2z"/>
		<path class="st0" d="M199.3,319.9c-3.3,23.9,15,43.7,41.4,36.3c12.5-3.5,21.6-11.7,28.1-22.8
			c4.5-7.6,6-16,4.8-24.7c-1.1-7.4-3.2-14.5-10.5-18.5c0,0.1,0.1,0.1,0.1,0.2c-0.1,0-0.2-0.1-0.2-0.1c0,0.2,0,0.4,0.1,0.5
			c11.8,12.9,7,36.7-3.6,49c-4.2,4.9-9,8.9-16.8,11c8.5-10.6,13.2-21.5,13.5-33.9c0.3-12.4-2.4-23.7-13.1-32.4
			c8-0.8,13.9,2.8,20,5.8c0,0,0-0.1,0-0.1c0,0,0.1,0,0.1,0.1c-4.2-6-10.7-7.2-17.1-7.7C222.8,280.7,202.4,296.9,199.3,319.9z"/>
		<path class="st0" d="M382.3,49.4c17.8,5.5,34.6,2.3,50.7-6.2c1.8-0.9,3.3-2.1,4.3-4.5c-16.3,9-33.1,11.8-50.8,9
			c2.3-1.1,4.7-1.6,7-2.3c5.4-1.6,10.5-3.7,14.6-7.6c4.7-4.5,4.4-7.1-1.1-10.9c-0.2-0.1,0-0.7,0-1.3c7.5-1,14.9-0.8,22.4,0.5
			c-0.7-0.6-1.4-1.3-2.2-1.4c-5.5-0.6-11-1.6-16.5-1.4c-10.8,0.4-21.1,3.1-30.4,8.9c-3.8,2.3-7.1,5.4-6.3,10.2
			C374.5,46.8,378.6,48.2,382.3,49.4z"/>
		<path class="st0" d="M266.1,459.4c-9.2,0.3-17.2,4.2-24.7,9.3c-3.6,4.7-7.3,9.4-10.7,14.2c-1.4,2-2.6,4.4-3.2,6.8
			c-0.8,3.5-1.2,7.2-1.3,10.8c-0.6,11.5,2.1,22.1,9.7,31c7.9,9.2,18.5,13.5,30.2,15c24.4,3.2,45.1-12.4,48.3-36.6
			c1.7-13.1-0.9-25.1-10.7-35.2C293.3,463.8,280.8,458.9,266.1,459.4z M277.8,467.3c0.8-0.2,1.7-0.7,2.3-0.4c9.1,4,18,7.7,22.8,18
			c3.4,7.3,6.8,14.2,6,22.4c-0.8,8.4-4,15.9-10.5,21.8c2.4-7.5,3-15.2,1.6-22.7c-1.4-7.4-4.2-14.7-7.1-21.8c-3-7.2-10-11-15.8-15.8
			C277.4,468.3,277.6,467.8,277.8,467.3z M274.4,466.9c0.3,0.2,0.6,0.4,0.8,0.6c-0.1,0.2-0.3,0.4-0.4,0.4c-0.3-0.2-0.6-0.4-0.8-0.6
			C274.1,467.2,274.3,466.9,274.4,466.9z"/>
		<path class="st0" d="M379.9,100c-3.3-0.8-6.7-0.9-10.1-1.3c-11.6,0.4-22.5,2.9-32.2,9.3
			c-6.7,4.4-12.3,10-15.4,17.5c-3.6,8.5-1.3,17,6.4,21.9c3.7,2.3,8.1,4,12.4,4.6c16.6,2.2,30.6-4.1,42.7-14.7
			c3.7-3.3,6.9-7.7,8.9-12.3C397.8,113.4,392.2,102.9,379.9,100z M387.8,125.2c-4.3,7.4-10.5,12.8-17.9,17c-6.2,3.5-12.6,5.9-21.2,6
			c2.1-1.6,3.1-2.5,4.2-3.3c6.5-4.5,12.5-9.7,17-16.3c1.9-2.8,3.5-5.8,4.8-9c2.5-5.7,1.7-11.2-3.1-17.6c3.8,0.9,6.1,1.2,8.2,2
			C390.3,107.6,393.4,115.7,387.8,125.2z"/>
		<path class="st0" d="M422.3,60.5c-2.6,0-5.1-0.2-7.7,0c-7.1,0.6-13.9,2.1-20.3,5.2c-6.2,3-10.3,7.6-10.7,14.8
			c-0.3,7.4,3.6,12.5,9.8,15.9c2.2,1.2,4.6,2.3,7,3c12.1,3.8,24.4,3.8,36.6,0.4c4.7-1.3,9.4-3.2,13.4-5.8c11.9-7.9,11-21.5-1.5-28.1
			C440.6,61.4,431.6,60.2,422.3,60.5z M436.9,64.7c6,0.8,11.2,2.9,15.4,7c4.1,4,4.4,10.3,1.2,15.2c-2.7,4.1-6.7,6.4-11,8.3
			c-10.2,4.4-20.9,4.8-31.9,2.8c1.5-0.4,3.1-0.9,4.6-1.3c5.8-1.6,11.1-4.3,15.6-8.4C438.2,81.6,439.8,75.7,436.9,64.7z"/>
		<path class="st0" d="M308.2,62.5c-0.1-0.1-0.4-0.1-0.5-0.1c0.1,0.2,0.1,0.5,0.2,0.7c0.2-0.1,0.3-0.1,0.5-0.2
			C308.3,62.8,308.3,62.6,308.2,62.5z"/>
		<path class="st0" d="M292.1,97.9c-1.1,0-2.2-0.1-3.2,0.1c-11.9,2.4-22.2,7.8-29.3,17.9c-2.5,3.6-4.6,7.7-6,11.9
			c-3.5,10.7,2.7,19.5,13.8,20.2c2.5,0.2,5.2,0,7.6-0.5c10.6-2.2,20.2-7,28.6-13.7c5.1-4,8.9-9.2,11.2-15.4
			c3.1-8.6,1.8-19.5-11.9-21c-1.7-0.2-3.3-0.3-5-0.5c-0.1,0.4-0.2,0.9-0.3,1.3c2.2,0.3,4.5,0.4,6.7,1c8.8,2.5,13.2,8.1,8.8,17.9
			c-1.5,3.2-3.7,6.3-6.1,9c-7.6,8.5-17.3,13.8-28.1,16.9c-1.4,0.4-2.8,0.5-4.3,0.7c1.2-1.7,2.7-2.5,4-3.5c7.5-5.7,13.2-12.7,16-21.9
			c2.1-6.8,2.3-13.3-3.4-18.7c1-0.5,1.8-0.8,2.9-1.3C293.2,98.1,292.7,97.9,292.1,97.9z"/>
		<path class="st0" d="M150.8,266.2c2.7,0,5.6-0.3,8.1-1.2c10.7-4.2,19.1-11.1,24.4-21.5c-1.6,1.3-3.2,2.6-4.7,4
			c-5.2,5.3-10.5,10.4-17.1,13.4c2.1-6.2,4.9-12.2,6.2-18.5c2.1-10.2,3.6-20.7-4.2-29.7c6.9-6.2,14.6-8.2,23.3-5.9
			c-1.4-0.9-2.8-2.1-4.3-2.2c-2.9-0.3-6-0.1-8.9,0.5c-6.5,1.2-12.1,4.4-16.6,9.1c-10.6,11.1-17.9,23.9-18.5,39.6
			C138.4,261.8,142.8,266.1,150.8,266.2z"/>
		<path class="st0" d="M188.6,767.5C188.6,767.5,188.6,767.5,188.6,767.5c-0.8-1.1-1.8-2.1-2.3-3.3
			c-7.4-15.9-19-28.1-33.4-37.6c-1.8-1.2-3.7-2-5.8-2.7c-1.8-0.6-3.7-0.6-5.5-0.9c-0.3-6.8,2.7-9.9,8.9-8.6
			c3.9,0.8,7.8,2.3,11.3,4.2c8.1,4.4,15.2,10.1,20.8,17.6c0.5,0.7,1.5,1.2,2.3,1.7c0-0.6,0-1.2-0.3-1.7
			c-6.3-9.4-13.9-17.3-24.4-21.8c-3.6-1.5-7.8-2.1-11.7-2.2c-5.3-0.1-8.7,3.1-9.6,8.4c-0.8,4.5-0.4,8.8,1.3,13.2
			c5.4,13.9,15.6,23.8,27.8,31.5c3.5,2.2,7.9,3.2,11.9,4.3C183,770.5,186.2,770.3,188.6,767.5z"/>
		<path class="st0" d="M108.8,687.4c-1.9-1.8-4.6-2.9-7-4.2c0.7,0.9,1.3,1.8,2.1,2.5c9.6,9.7,17.2,20.6,20.2,34.1
			c0.4,1.7,0.2,3.8,3,4.7c0-1.6,0.3-2.9,0-4.1C123.5,708.1,118.3,696.5,108.8,687.4z"/>
		<path class="st0" d="M188.8,767.4c2.5-0.3,3.4-2.4,3.5-4.4c0.8-9.2-0.8-17.8-7.4-24.8c0.2,0.9,0.2,1.9,0.6,2.7
			C190.6,749.3,192.5,758,188.8,767.4z"/>
		<path class="st0" d="M74.7,587.2c1.3-4.2,2.1-8.8,2-13.2c-0.3-9.9-3.1-19.4-7.5-28.3c-2.6-5.2-5.7-10.1-10.4-13.6
			c-2.5-1.9-5.3-2.9-8.4-1.4c-3.4,1.7-5.1,4.5-5.8,8.7c1.1-0.4,1.6-0.5,1.8-0.7c5.7-7.6,9.4-7.6,15,0.1c0.5,0.7,1,1.4,1.4,2.1
			c6,10,9.6,21,11,32.5c0.4,3.3-0.3,6.8-1.3,10.1c-1.5,4.8-5,5.9-8.9,2.8c-2.5-1.9-4.7-4.4-6.5-7c-3.1-4.3-5.7-9-8.5-13.5
			c1.7,9.1,6.1,16.7,13.1,22.7c1.1,1,2.5,1.7,3.8,2.3C69.8,592.7,73.3,591.6,74.7,587.2z"/>
		<path class="st0" d="M99.7,646.7c-1.3-10.3-4.7-19.9-10.6-28.5c-2.3-3.3-4.9-6.6-8-9.1c-2.3-1.8-5.7-2.9-8.7-3.3
			c-4.2-0.4-6.1,1.5-7.6,5.8c0.7-0.3,1.3-0.4,1.7-0.7c4.9-3.2,7.7-3.2,12.1,0.2c1.7,1.3,3.2,2.8,4.6,4.5
			c6.9,8.2,11.1,17.8,12.8,28.3c1.3,7.8,1.8,15.8-6.2,21.9c3.9,0.4,5.5-1.6,6.9-3.7C99.7,657.4,100.4,652.2,99.7,646.7z"/>
		<path class="st0" d="M178.6,783.7c20.5,5.4,34.1,17.7,42.8,36.3C223.7,803.1,198.2,781.3,178.6,783.7z"/>
		<path class="st0" d="M283,868.4c9.6,3.7,18.3,7,27.7,10.6C303.9,869.2,291.9,864.4,283,868.4z"/>
		<path class="st0" d="M351,846.8C350.9,846.8,350.9,846.8,351,846.8L351,846.8z"/>
		<path class="st0" d="M285.9,853.3C286,853.3,286,853.3,285.9,853.3c-2.2-3.2-4-6.9-6.8-9.5
			c-8-7.5-17.3-13-27.5-17.2c-4.8-2-9.7-3.2-14.8-0.2c-1-1.9-1.8-3.4-2.9-5.5c-1.1,4.9,0.5,8.7,3.2,11.7
			c10.6,12.2,24,19.5,39.9,22.2c2.3,0.4,4.7,0,7-0.2C284.7,854.6,285.3,853.8,285.9,853.3z"/>
		<path class="st0" d="M67.4,387.6c7.8-2.2,14.6-10.2,15.9-18.6c-3.8,4.4-7.5,8.9-11.5,13.2c-1.5,1.6-3.4,3-6.3,2.6
			c0.3-1.2,0.4-2.1,0.7-2.8c3.4-9.3,3.8-18.7,2-28.4c-0.9-5.1-2.1-9.9-8-13c3.5-4.3,6.2-8.4,9.7-11.7c6.5-6.2,13-4.8,17.1,3
			c0.8,1.5,1.4,3.1,2.1,4.6c0.4-4.9-0.5-9.5-4.9-12.2c-4.5-2.7-9.3-1.9-13.3,0.9c-3.3,2.2-6.4,5.1-8.8,8.2
			c-6.9,9.3-10.2,20.1-10.9,31.6c-0.3,5.3-0.3,10.7,2.1,15.7C56.1,386.8,61.2,389.3,67.4,387.6z"/>
		<path class="st0" d="M114,325.7c3-1.8,5.8-4.4,8-7.2c7-8.9,11.2-19.2,12.5-30.4c0.6-5.4-0.4-11-1-16.5
			c-0.2-1.7-1.6-3.3-2.5-4.9c5.2,19.5-4,48.8-18.8,56.5c4-10.7,5.2-21.5,5.3-32.4c0.1-7.6,0.5-15.3-4.3-22.1
			c2.6-1.9,4.9-3.6,7.2-5.3c-5.2-0.4-8.5,3.1-11.6,6.4c-6.2,6.4-10,14.3-12.7,22.7c-2.5,7.7-3.4,15.4-2.2,23.4
			C95.4,327,104.3,331.4,114,325.7z"/>
		<path class="st0" d="M98,256.8c2.3,0.6,5,0.6,7.4,0.2c6-1.1,10.8-4.7,15.5-8.4c5.9-4.8,8.9-11.7,13-17.9
			c5-7.7,4.1-15.9,3.3-24.1c-0.4-4.2-1.6-4.6-6.1-4.5c-7.7,0.2-13.6,4.2-19.2,8.8c-0.3,1.1-0.6,2.1-1.2,4.1c2.2-1.2,3.6-1.8,4.8-2.5
			c2-1.2,4-2.5,6-3.7c1.8-1.1,3.7-2.3,5.6-2.9c5.4-1.7,8.4,0.3,8.4,5.9c0,2.9-1,5.8-1.7,8.7c-0.5,2.1-1.8,4-2.1,6
			c-1.7,9.4-7.3,16.2-14.5,21.8c-4.1,3.2-8.6,6.1-14.1,6.7c-2.6,0.3-4.2-0.5-4.5-3.1c-0.2-1.9-0.3-3.9,0-5.7
			c0.8-4.6,1.8-9.2,2.6-13.8c0.2-1.3,0-2.7,0-5.5c-1.5,2.1-2.5,2.9-2.8,4c-1.2,3.7-2.5,7.3-3,11.1c-0.6,3.7-0.6,7.6-0.3,11.3
			C95.1,254.6,96.7,256.5,98,256.8z"/>
		<path class="st0" d="M123.9,262.2c-0.9,0.4-1.8,0.7-2.7,1.1c1-0.1,1.9-0.2,2.9-0.2
			C124.1,262.7,124,262.4,123.9,262.2z"/>
		<path class="st0" d="M166.6,340.2c13.9-7,22.3-18.7,25.8-33.8c-0.9,1.4-1.9,2.7-2.5,4.1
			c-4.1,8.8-9.6,16.6-17.3,22.7c-1,0.8-2.4,1.2-4.5,2.2c6.4-12.3,8.5-24.4,7.6-36.9c-0.6-8.5-1.6-17.1-9.9-22.6
			c1.6-1.3,2.9-2.3,4.3-3.3c-2.2,0.7-4.7,1-6.5,2.3c-16.5,11.8-25.5,28-25.3,48.2C138.5,339,152.3,347.3,166.6,340.2z"/>
		<path class="st0" d="M94,446.8c-0.4,1.8-0.8,3.6-1.3,5.5c0.8-1.7,1.7-3.3,2.5-5C94.9,447.1,94.5,447,94,446.8z"/>
		<path class="st0" d="M52.8,462.8c0.8,1.7,1.5,3.5,2,5.4c2.6,9.6,2.6,19.4,1.2,29.2c-1.1,7.9-3,15.5-10,20.9
			c4.3,0.5,6.6-2.2,8.6-5.2c3.3-4.9,4.4-10.6,5.2-16.3c1.5-11,0.4-21.7-3.4-32.1c-1.4-3.8-3.3-7.4-6.9-9.7c-4.7-3-9.1-1.5-11.2,4.1
			c0.7-0.2,1.3-0.3,1.8-0.5C46.5,455.5,49.7,456.5,52.8,462.8z"/>
		<path class="st0" d="M192.7,301.8c0,1.2,0,2.4,0,3.6c0.4-1.1,0.8-2.2,1.1-3.4
			C193.5,301.9,193.1,301.9,192.7,301.8z"/>
		<path class="st0" d="M46.6,392.8c4.6,16.2,0.1,31.5-4.7,46.8C51.9,426.8,54.4,402.7,46.6,392.8z"/>
		<path class="st0" d="M89.9,271.6c0.2-3.2-0.6-6.3-3.5-8.7c2.3,19.6-4.6,35.8-17.2,50.3c1.2-0.7,2.5-1.3,3.5-2.2
			C83.8,300.3,89,286.8,89.9,271.6z"/>
		<path class="st0" d="M164.8,197.4c11.5-7.6,19.2-18.2,22.9-31.4c1.3-4.6,1.2-9.7,0.9-14.5
			c-0.3-4.6-2.2-5.9-6.9-5.2c-2.9,0.4-6,1.2-8.5,2.6c-14.5,8.4-24.2,20.7-28,37.2c-1.2,5.2-1.1,10.6,1.9,15.5
			C153.9,203.1,159.6,200.9,164.8,197.4z M157.7,166.5c7.2-9.7,16.9-14.3,27.6-17.5c6.8,15.4-10.4,43.4-30.2,49.6
			c4.8-5,8.5-10.7,9.9-17.6c0.4-2.1,0.7-4.2,0.7-6.3C165.5,169.4,164.1,168,157.7,166.5z"/>
		<path class="st0" d="M293,848.4c0.2,0,0.5-0.1,0.7-0.1c-0.1-0.8-0.2-1.7-0.3-2.5c-0.2,0-0.5,0.1-0.7,0.1
			C292.8,846.7,292.9,847.6,293,848.4z"/>
		<path class="st0" d="M78.5,396.5c-7.5,1-9.9,2.5-13.4,8.4c-1.4,2.4-2.6,4.9-3.4,7.5c-3.7,11.7-3.8,23.5-1.1,35.4
			c1.1,5,2.9,9.8,6.6,13.6c3.4,3.5,7.3,5.4,11.7,4.4c0.2-2,0.3-3.4,0.5-4.8c2.4-14.2,1.2-28-3.6-41.6c-1.5-4.3-3.6-8.3-9.2-9.4
			C67.6,402.5,72.6,399.1,78.5,396.5z"/>
		<path class="st0" d="M329.1,826.7c1.2-0.5,2.1-1.8,3.2-2.8c0,0,0,0,0,0c-0.8-1.4-1.6-2.9-2.4-4.2
			c-11.1-18.5-25.1-32.9-48.5-34.6c4-3.5,8.4-5.6,13.7-5.9c3.2-0.1,6.5-0.1,9.7-0.1c-8.4-4.1-16.7-3.1-24.5,1.5
			c-5.1,3-7.5,7.9-7.5,14c-0.1,9.1,4.2,15.9,11.1,21.3c8.2,6.4,17.6,10.4,27.7,12.7C317.6,829.9,323.5,829.1,329.1,826.7z"/>
		<path class="st0" d="M85.1,545.2c5.6,3.3,12,1.6,15.8-3.8c1.8-2.6,3.6-5.4,4.4-8.5c1.5-6,3-12.1,3.3-18.2
			c0.4-10.1-1.6-19.9-8.2-29.6c1.6,6.4,3.2,11.4,4.1,16.6c1.7,10.9,1.4,21.7-2.9,32.1c-1.8,4.3-4.4,8-9.3,10.2
			c0.8-3.7,1.6-6.8,2-9.9c1.2-11.9-0.9-23.4-4.6-34.6c-2-6.1-4.7-11.9-11.1-15.1c1.2-2.4,2.4-4.6,3.5-6.7c-3.4,1.2-5.1,4.1-6.5,7.1
			c-8.8,17.6-8,35.1,1.2,52.1C78.3,540.3,81.7,543.2,85.1,545.2z"/>
		<path class="st0" d="M95.8,442.1c-0.1,0.1-0.3,0.2-0.3,0.4c0,0.2,0.1,0.4,0.1,0.5c0.1-0.1,0.2-0.2,0.3-0.4
			C95.8,442.4,95.8,442.2,95.8,442.1z"/>
		<path class="st0" d="M260.4,703.3c-16,0.9-24.3,11.9-21,27.4c2.3,10.4,8.7,17.9,16.9,24.1
			c8.8,6.7,18.6,11.3,27.2,11.7c21.1,0.2,31.4-14.3,25.1-31.5c-0.5-1.4-1.1-2.8-1.8-4.1c-3.3-6.9-8.4-12.3-14.5-16.8
			C282.9,707.1,272.5,702.6,260.4,703.3z M272.8,708.5c14.1,3.6,25.3,11.4,32,24.5c4.4,8.5,3.9,16.9-2.2,24.6
			c-0.5,0.6-1.2,1.1-1.9,1.6c-11.7-21.7-30.1-39.9-50-49.1C258.5,706.7,265.6,706.6,272.8,708.5z"/>
		<path class="st0" d="M214.1,278.4c2.1-0.2,4.2-0.6,6.3-1.2c20.2-5.8,36.5-27.2,36.7-48.3c0-1.1,0.1-2.1,0-3.2
			c-0.9-16.8-13-24.7-28.9-18.8c-0.4,0.1-0.8,0.3-1.2,0.5c-19.2,8.1-28.1,23.9-32.2,43.2c-1.3,6.3-0.6,12.3,2.2,18.1
			C200.2,275.5,206.6,279.1,214.1,278.4z M221.9,272.2c0.1,0,0.2,0,0.3-0.1c6.1-8.4,11.7-17.1,14.5-27.3c0.9-3.3,1.8-6.6,2.1-10
			c1-9.7,0.2-18.9-8.6-25.6c11.1-3.7,20.1,0.9,22.9,11.3c1.8,6.8,1.1,13.6-1.1,20.2c-4.4,13.1-13,22.9-24.7,29.9
			c-1.4,0.9-3.3,1-5,1.5c-0.1,0.1-0.1,0.1-0.2,0.2c-0.1,0.1-0.1,0.2-0.2,0.3C221.9,272.5,221.9,272.3,221.9,272.2z"/>
		<path class="st0" d="M340.1,812.8c0.8-8-2.2-14.6-8.7-19.4c0.8,1.7,1.6,3.5,2.6,5.1c4.7,7.1,4.8,16.8-0.5,22.7
			c-0.6,0.7-0.7,1.7-1.1,2.6C337.9,822.2,339.6,817.6,340.1,812.8z"/>
		<path class="st0" d="M159.5,357.6c-10.5,14.5-13.9,31-10.6,48.7c0.4,2.1,1.2,4.1,2.1,6.1
			c5.7,13.7,19.2,17.4,31.3,12c6.7-3,11.5-8.2,15.1-14.4c5.7-9.8,8.7-20.4,8.5-31c0.1-8.2-0.6-15.4-4.3-21.9c-3.3-5.9-8-9.8-15-10.7
			C175.3,344.9,166,348.7,159.5,357.6z M198,355.8c4.1,5.9,5.2,12.6,5.5,19.5c0.5,10.6-1.2,20.9-6,30.5c-2.8,5.8-6.6,10.7-13.9,13.7
			c6.5-13.3,7.7-26.5,6.7-40c-0.3-4.2-1-8.5-2-12.6c-2-8-4.5-11.4-11.1-16.5C185.5,346.4,192.8,348.3,198,355.8z"/>
		<path class="st0" d="M237.9,618.7c-17.5-1.4-30.4,9.6-30.4,26.8c0,0.6,0.1,2.1,0.2,3.6c0.1,1.3,0.4,2.5,0.7,3.8
			c4.1,16,13.5,27.8,28.1,35.5c7.5,4,15.4,4.7,23.6,2.6c11.2-2.9,17.1-9.5,18.7-20.9C282.3,645.8,262.3,620.7,237.9,618.7z
			 M272.8,679.6c-6.4-29.6-30.8-51.4-52.4-53.9c5.5-4.1,11.1-5.9,17.6-5c17.9,2.4,34.6,18.8,38.7,37.4
			C278.2,665.4,277.7,672.9,272.8,679.6z"/>
		<path class="st0" d="M326.3,789.6c1.5,1.1,3.1,2.1,4.6,3.2C329.9,790.9,328.4,789.8,326.3,789.6z"/>
		<path class="st0" d="M429.7,262.2c0.5,15.2-6.2,27.2-18.7,35.8c-2.1,1.5-4.8,2.2-7.2,3.2
			c12.4-19.1,16.6-39.3,12.1-61.6C426,244.4,429.4,252.8,429.7,262.2z M375.9,217.3c4.5-3,8-6.8,10.5-11.8c2.4-4.7,5.6-9.1,7.8-13.9
			c3.4-7.5,2.6-15.4,0.6-23.2c-0.3-1.4-0.8-2.8-1.5-4.9c7.4,2.8,12.1,6.5,13.8,14.1c1.7,7.7,0.9,14.3-3,21.4
			c-2.8,5.1-5.7,9.9-9.9,13.8c-6.5,6-14.7,7.8-22.9,9.7c-0.1-0.4-0.3-0.9-0.4-1.3C372.6,219.9,374.1,218.5,375.9,217.3z
			 M312.1,282.4c-2.4,1.2-5.1,1.9-7.7,2.8c7.9-9.1,13.5-18.8,16.7-29.9c3.6-12.4,4.5-24.7-4-36.1c9.4,1.9,15.7,8.3,17.5,17.5
			C337.9,253.7,327.7,274.5,312.1,282.4z M333.6,369.9c8.3-24.5,14.6-47.9-0.7-71.4c4.6-0.5,8.2,1.6,11.5,3.9
			c6.1,4.3,9.3,10.7,10.5,17.8c2.3,14.5-0.5,28-9.1,40.1C342.9,364.3,339.2,367.6,333.6,369.9z M343.7,388.3
			c14-0.7,28.7,10.8,34.2,27.9c4.4,13.8,3,34.9-11,44.6c0.4-2.9,0.7-5,0.9-7.2c1.1-9.8,1.3-19.6-0.7-29.4
			C364,409.8,357.3,397.5,343.7,388.3z M399.7,552.8c-3.8-27.7-12.7-52.2-40.5-65.6c19.3-3.4,36.8,7.8,45.2,24.9
			C410.4,524.2,410.1,543.8,399.7,552.8z M427.7,642.6c-7.6-26.7-20.9-47.7-51.4-53.6c17.5-4.8,32.3-2.3,44.6,10.3
			C431.9,610.6,434.1,629.1,427.7,642.6z M439.3,390.6c3.7-11.1,4.6-22.5,3.5-34c-1.1-11.6-4.5-22.5-9.4-33.2
			c13,5.8,17.7,17.2,19.1,30.1C454.1,367.6,451.3,380.8,439.3,390.6z M471.7,145.1c-5.2,10.6-14.1,16.2-25.5,18
			c-3.7,0.6-7.5,0.1-12.6,0.1c17.5-9.5,29.6-21.5,31.3-41.6C473.6,127.7,476.1,136.1,471.7,145.1z"/>
		<path class="st0" d="M392.3,782.4c3.8-3.5,6.1-7.6,5.5-13.1c-0.5-13.5-7.9-23-19-29c-6.8-3.7-14.8-5.4-22.5-6.9
			c-8.1-1.7-16.1,0.1-23.8,3.1c-6,2.4-9.8,6.8-11.7,12.8c-3.4,10.5-0.3,19.5,7.2,26.9c11.1,10.9,24.9,15.5,40.2,15.3
			C377.2,791.4,385.6,788.7,392.3,782.4z M330.3,742.6c1.5-2.6,3.7-3.5,5.7-4.1c14.9-4.7,29-3.2,41.9,6c2.1,1.5,4.3,2.8,6.3,4.3
			c8.7,6.2,11.6,16.8,9.4,26.6c-0.6,2.9-2.3,5.4-5,7.3c-1.8-4.3-2.8-8.3-4.8-11.7c-7.1-12.2-18.7-18.9-31.1-24.3
			C345.8,743.8,338.6,742.1,330.3,742.6z"/>
		<path class="st0" d="M450.1,18.2c1.9-2.5,6-1.1,7.4-4.5c-8.4-0.9-15.9-0.2-20.4,1.9c8.6,5.9,25.7,7.2,39,3.7v-2.9
			C467.6,18.6,459.1,19.8,450.1,18.2z"/>
		<path class="st0" d="M305.8,779.3C306,779.4,305.9,779.4,305.8,779.3C305.9,779.4,306,779.4,305.8,779.3z"/>
		<path class="st0" d="M372,802.8c-5.2,0.5-10.5,2.2-15.1,4.6c-7,3.5-9.5,10.6-7.2,18c1,3.2,2.8,6.2,4.9,8.9
			c3.7,4.8,8.7,8.2,14.1,10.9c11.8,6,24.1,8.8,37.2,5.9c4.2-0.9,8.7-1.8,11-6.3c-1.3,0.4-2.6,0.7-3.9,1.1
			c-3.8-7.1-5.4-9.3-11.9-14.2c-13-9.7-27.2-16.8-43.9-19.6c3-3.6,6.8-4.9,10.7-5.9c12.1-2.9,23.3,0.5,34,5.7
			c9,4.4,16.5,10.5,20,21.6c0.3-7.2-2.7-11.8-6.6-15.8C403.4,805.5,388.6,801.1,372,802.8z"/>
		<path class="st0" d="M222.3,731.2c-0.3,0.4-0.2,1.1-0.2,1.7c3.5-0.4,4.4-3.5,5.7-6c4.4-8.7,1.8-21.6-5.5-29.4
			c0.7,2,1.4,4,2.2,6C228,713,229.3,722.4,222.3,731.2z"/>
		<path class="st0" d="M315.4,648.1c-1.7,0.2-3.3,0.7-5,0.9c-13.3,1.7-25.2,17.9-22.3,33.1
			c3.7,19.3,23.6,39.1,43.2,41.5c19.2,2.4,34.6-8.6,34.9-29.6c0.4-25.6-19.8-46.1-45.6-46.1C318.8,648.1,317.1,648,315.4,648.1z
			 M359.5,708.1c-5.1-28.2-31.7-53.5-54-53.9c11.4-7.1,32.2-3.3,45.2,9.4C364.1,676.8,366.7,695.2,359.5,708.1z"/>
		<path class="st0" d="M198.9,732.2c4.9,2.7,10.2,4.5,15.8,4.4c2.9-0.1,6.1,0,7.2-3.8c0,0,0,0,0,0
			c-0.6-1-1.5-2-1.7-3.1c-1.6-7-5.1-13.1-9.1-18.9c-6.2-9-13.5-17.1-21.8-24.2c-3.5-3-7.5-5.5-11.6-8.5c1.2-2.8,3.7-3.9,6.7-4.5
			c7.7-1.3,14.3,1.1,20.4,5.5c3.1,2.3,6.1,4.7,9.1,7.1c-5.2-10.7-21.1-17.7-31.9-14c-5.6,1.9-8.9,5.9-9.9,11.5
			c-1,5.9-1,11.9,1.1,17.7C178,715,186.5,725.3,198.9,732.2z"/>
		<path class="st0" d="M195.9,650.7c4.3-10,2.7-19.9-2.1-29.4c0.7,3.8,1.6,7.5,2.1,11.3c1,8.4-0.7,16-7.7,22
			c-6-25-18.2-45.7-37.1-62.8c4.2-3.3,8.9-3.2,13.8-1.8c5.9,1.7,10.9,5.2,14.7,9.9c4,4.9,7.4,10.4,11,15.7c1.3,1.9,2.4,4,3.5,6
			c-1.3-9.2-6.4-16.6-11.9-23.7c-4.9-6.3-11.5-10-19.3-11.7c-7.4-1.6-13,1-17.2,6.9c-4.3,5.9-4.9,12.7-4.1,19.6
			c0.9,8.4,3.5,16.3,7.7,23.6c6.1,10.4,14.2,18.7,25.7,23.1C184.2,662.9,191.9,659.9,195.9,650.7z"/>
		<path class="st0" d="M125,688.7c4.6,5.5,10.4,9.5,17.3,11.6c10.7,3.2,17.7-1.3,19.1-12.3c1-8.1-0.9-15.7-5-22.8
			c-1.5-2.6-3.3-4.9-4.9-7.4c2.1,7.2,4.8,13.9,6.7,20.8c1,3.4,1,7.2,0.6,10.8c-0.5,5.9-4.2,9.2-9.2,9.3c-0.8-4.2-1.2-8.5-2.6-12.5
			c-3.9-11.9-10.2-22.5-18.5-32c-4.1-4.7-8.6-8.8-15.4-9.2c3.2-6.6,5.8-7.1,19.1-4.9c-2.7-1.1-5.4-2.5-8.2-3.2
			c-7.9-2-13.8,1.7-14.8,9.8c-0.6,4.6-0.4,9.5,0.8,13.9C113,671,118.2,680.4,125,688.7z"/>
		<path class="st0" d="M284.9,832.4c1.1,1.1,2.5,2,3.7,2.9c-0.2-0.7-0.3-1.6-0.7-2.1
			c-10.1-11.1-22.3-18.5-37.2-20.7c-3.2-0.5-6.7-0.6-9,1.3c5.5,0.9,11.6,1.1,17.1,2.9C268.7,819.8,277.5,825,284.9,832.4z"/>
		<path class="st0" d="M107.5,620.1c2.4,1.9,5.5,3,8.7,4.6c4-6.4,3.5-12.1,2.3-17.8c-3.9-17.5-9.4-34.1-25.5-45
			c4.5-3.7,9.4-4.4,14.2-1.5c3.4,2.1,6.7,4.7,9.2,7.8c8,9.9,11.9,21.6,13,34.2c0.7,8-0.9,15.5-8.7,21.3c4.4-0.4,6.2-2.4,7.4-4.9
			c1.2-2.5,2.4-5.1,2.7-7.8c2.6-19.9-4.1-36.6-18-50.6c-4.7-4.7-10.7-6-17.2-3.9c-5.9,2-8.1,7-8.7,12.4
			C85.1,589.5,91.3,606.9,107.5,620.1z"/>
		<path class="st0" d="M377.8,725.7c0.1,0.5,0.5,1,0.9,1.4c4.9,4.6,9.6,9.5,14.8,13.8c2.9,2.3,6.7,3.6,10.1,5.3
			c5.9,3,12.5,3.2,18.7,3.2c12,0,24.2-0.5,32.4-11.5c2.8-3.7,6.5-6.8,7.5-11.7c2.8-13.1-0.2-24.5-9.5-34.2
			c-8.6-8.9-19.4-13.1-31.5-14.1c-11.7-1-23.2,0.9-33,7.8c-7.7,5.4-13.6,12.4-13,23C376.2,714.3,376.9,720,377.8,725.7z
			 M392.5,687.8c0.1,0,0.3,0,0.4,0c11.9-7.8,24.7-7.9,37.8-3.9c7.7,2.3,14.4,6.4,19.8,12.4c8.1,8.9,10.3,21.7,5.4,32.2
			c-0.5-1.2-1.1-2.1-1.3-3.1c-1.2-8.1-6.6-14.1-12-19.1c-12-11.1-26-18.6-43.1-18.4c-2.2,0-4.4-0.1-6.6-0.2c-0.1,0-0.2,0.1-0.2,0.1
			l-0.2,0.3L392.5,687.8z"/>
		<path class="st0" d="M259.7,795.1c-2.7,1.9-5.3,3.8-7.9,5.7C257.7,800.5,258.9,799.6,259.7,795.1z"/>
		<path class="st0" d="M205.6,773c8.1,16.5,21.4,26.3,39.8,28.6c1.9,0.2,4-0.4,5.9-0.7c-1.3-0.9-1.6-2-1.2-3.6
			c1-4.3,0.2-8.6-2-12.4c-3-5.1-6-10.4-9.9-14.9c-7.9-9-17-16.1-30.3-15.7c1.7-1.7,3.4-3.9,5.3-4.1c4.2-0.4,8.5-0.5,12.6,0.4
			c6.6,1.4,12.1,5.3,17.3,9.4c1.4,1.1,2.8,2.1,4.2,3.2c-4.1-6.4-9.7-11.1-16.7-13.5c-4.8-1.6-10-2.6-15-2.5
			c-8.6,0.1-13.4,5.4-13,14.1C203,765.2,203.9,769.4,205.6,773z"/>
		<path class="st0" d="M140.1,418.8c2.9,4.1,5.8,8.2,8.6,12.3C148,425.5,145.8,420.9,140.1,418.8z"/>
		<path class="st0" d="M147.9,500.9c-9.6-4.8-20.8-1.4-26,8c-1.8,3.3-3.1,7.1-3.8,10.8c-3,15.5,1.1,29.6,9.3,42.7
			c3.2,5.1,7.3,9.4,13.1,11.9c8.3,3.5,15.7,2.1,21.1-5c2.4-3.1,4.1-7,5.3-10.8c1.2-4,1.3-8.4,1.9-12.6c-0.1-10.7-2.8-20.9-6.9-30.5
			C159.1,509.2,154.1,504.1,147.9,500.9z M164.2,557.9c-0.9,3.9-2.1,7.8-5.9,10.6c2.3-18.8-2.6-35.5-11.7-51.2
			c-3.4-6-7.7-11.3-15.7-13.5c8.4-4.2,14.6-3.4,20.1,2.8c3.6,4.1,6.8,8.8,9.1,13.8C165.8,532.3,167,545,164.2,557.9z"/>
		<path class="st0" d="M127.4,417.3c4.1,0.4,8.2,0.8,12.3,1.2C136,415,131.8,415.2,127.4,417.3z"/>
		<path class="st0" d="M137.5,349.9c0.3,3.4,0.8,6.7,1,10.1c0.5,8.6-0.9,16.9-3.4,25c-0.6,2.1-1,4.3-1.4,6.4
			c0.6-0.7,1.4-1.3,1.7-2.1c4.6-10.8,6.1-22.1,4.4-33.7C139.4,353.7,138.3,351.8,137.5,349.9z"/>
		<path class="st0" d="M169.9,443.5c-8.3,10.7-11.7,23-10.5,36.6c0.8,9.3,4.3,17.8,8.1,26
			c2.6,5.7,7.8,9.6,13.7,11.8c15.5,5.9,30.2-2.6,34.2-20.6c-1.4,2.1-2.7,4.3-4.3,6.3c-1.6,2.1-3.4,4.1-5.6,6.6c0-9-0.3-17,0.1-25
			c0.6-10.4-3-19.7-6.4-29.1c-1.1-3-2.2-6-3.5-8.9c-2.2-4.7-5.5-8.5-11.1-10.5c9.8-3.2,18.7,0.3,25,8.7c4.3,5.7,5.4,12.5,6.7,19
			c1,5.4,0.7,11,1,16.5c0.1,1.8,0.6,3.6,0.9,5.4c2.5-0.5,2.3-2.7,2.4-4.5c0.8-12.5-0.5-24.5-7.4-35.6
			C202.8,429.6,182.1,427.8,169.9,443.5z"/>
		<path class="st0" d="M151.4,455c0.1-5,0.2-10,0-15c0-1-0.7-1.9-1.1-2.9c0,6.9,0,13.9,0,20.8
			C150.7,456.9,151.3,456,151.4,455z"/>
		<path class="st0" d="M118.9,405.8c1.7-6.8,3.4-13.1,4.7-19.5c2-9.5,1.9-19.1,0.7-28.6c-0.8-6.4-2.6-12.5-7.4-17.3
			c6.9-3.8,12.7-2.5,17,3.8c1.1,1.6,2.1,3.2,3.2,4.8c-2-11.3-12-16.4-22-11.2c-5.1,2.7-8.6,6.9-11.3,11.9
			c-6.4,11.7-8.8,24.4-7.6,37.6c0.4,4.8,1.9,9.7,3.9,14c3.7,7.9,11.8,10.7,19.9,7c7.1-3.2,11.3-8.9,13.3-16.3
			c-1.3,1.7-2.5,3.4-3.8,5.1C126.8,400.8,124.3,404.8,118.9,405.8z"/>
		<path class="st0" d="M136.2,444.9c-0.8-2.9-1.7-5.8-3-8.4c-2.7-5.6-6.2-10.7-13.6-12.9c2.9-2.5,5.1-4.3,7.2-6.1
			c-6.6,0.4-10.4,5.2-13.5,10.1c-9,13.9-10.6,29-6.4,44.8c1.3,5,3.8,9.5,7.6,13.1c8.7,8,22.9,4.8,27.7-6.2c-1.7,1.3-3.4,2.6-5.7,4.4
			C140,470.1,139.6,457.5,136.2,444.9z"/>
		<path class="st0" d="M219.5,533.1c-5.2-2.6-10.8-4.2-16.7-3.7c-14.1,1.2-23.8,11.3-24.6,26.4
			c-1.2,20.9,8.1,36.5,25.2,47.9c4.7,3.1,9.9,4.9,15.5,5.6c10,1.2,18-2.2,23.6-10.8c3.9-6.1,5.7-12.8,5.5-19.8
			C248.8,559.5,235.4,540.9,219.5,533.1z M238.3,598.6c-5.5-26.2-15.1-50-38.8-65.2c14.5-4.1,31.4,6.1,40.3,22.2
			C248.7,571.6,246.6,592.4,238.3,598.6z"/>
		<path class="st0" d="M432.1,758.6c-8.3,1.8-16.4,3.9-22,11.3c-4.9,6.4-6.7,13.2-4.3,21
			c2.2,7.1,6.6,12.3,12.6,16.5c9.5,6.6,20.4,8.4,31.6,8.4c7.8-0.2,15.3-1.6,22.3-5.3c1.4-0.7,2.6-1.5,3.8-2.3v-12.3
			c-2-4.1-4.9-7.3-8.4-10.2c-9.5-7.8-20-13.7-32.1-16.3c-5.3-1.1-10.9-1-16.7-1.4c0.6-2.3,2.8-3.4,4.8-4.2
			c5.5-2.2,11.1-4.1,17.3-3.8c12.1,0.5,23.4,3.2,33.5,10.3c0.6,0.4,1.1,0.8,1.7,1.3v-4.4c-1.3-1-2.7-1.9-4.3-2.7
			C459.5,757.6,446,755.6,432.1,758.6z"/>
		<path class="st0" d="M347.3,891.5c14.1,1.9,27.8,3.9,40.1,13.5C381.1,892.1,359.2,885.1,347.3,891.5z"/>
		<path class="st0" d="M351.1,846.8c-0.1,0-0.1-0.1-0.1-0.1C351,846.7,351,846.7,351.1,846.8z"/>
		<path class="st0" d="M362.6,876.8c5.6-2.5,7.7-7.4,5.8-13.3c-1.8-5.7-5.4-10.2-11.2-12.4c1.1,1.3,2.3,2.6,3.4,3.9
			c3.9,4.3,7.3,9,4.7,14.9c-2.4,5.6-7.9,6.6-13.5,6.8c-0.6,0-1.2-0.4-1.7-0.6c0.7-5.9,0.1-8.4-3.8-12.2
			c-9.6-9.3-20.7-15.6-34.5-16.1c-0.7,0-1.4-0.2-2.7-0.4c5.5-7.6,13.1-6.9,20.3-7.5c-3.2-0.5-6.4-1.1-9.6-0.8
			c-3.1,0.3-6.4,0.9-9.2,2.2c-5.8,2.7-7.4,7.4-5.2,13.3c2,5.6,5.7,10.1,10.6,13.3c11,7.2,23.1,11.1,36.2,11.2
			C355.6,879.2,359.3,878.2,362.6,876.8z"/>
		<path class="st0" d="M441,894.5c-1.3,0.4-2.6,0.9-4.7,1.6c1.1-5.2-1.5-8.2-4.6-11c-2.1-1.8-4.3-3.5-6.7-4.9
			c-11.9-7.1-24.6-11-38.5-10.2c-0.1,0.1-0.1,0.1-0.2,0.2l0,0l-0.4,0.2l0.3-0.4c0.1,0,0.2,0,0.3,0c0.8-0.8,1.6-1.9,2.6-2.1
			c4.5-1.1,9.1-2.3,13.7-2.7c5.1-0.5,10.2-0.1,16.5-0.1c-9.8-3.8-21.5-3.7-30.3-0.2c-12.2,4.9-13.9,14.2-3.6,22.3
			c14.2,11.2,30.6,14.7,48.3,11.2C436.4,897.9,439.6,897.7,441,894.5z"/>
		<path d="M241,468.4l0.2,0.3c0,0,0,0,0.1,0c0,0,0.1-0.1,0.1-0.1L241,468.4z"/>
		<path d="M291.3,839.3c0.3,0.5,0.5,0.9,0.8,1.4c-0.2-0.5-0.4-1-0.7-1.5c-0.9-1.3-1.8-2.5-2.6-3.8
			c-0.1,0-0.1-0.1-0.2-0.1c0,0.1,0,0.2,0.1,0.3C289.5,836.8,290.4,838.1,291.3,839.3z"/>
		<path d="M332.5,823.8c0,0-0.1,0-0.1,0c0,0,0.1,0.1,0.1,0.1C332.4,824,332.4,823.9,332.5,823.8z"/>
		<path d="M330.9,792.8c0.1,0.1,0.1,0.2,0.2,0.4c0.1,0.1,0.2,0.2,0.3,0.3c-0.1-0.1-0.1-0.3-0.2-0.4
			C331.1,793,331,792.9,330.9,792.8z"/>
		<path d="M351.1,846.8C351.1,846.8,351.1,846.8,351.1,846.8C351.1,846.8,351.1,846.8,351.1,846.8z"/>
		<path d="M83.6,476.8c-0.5,0.2-1.1,0.4-1.6,0.6c0,0.1-0.1,0.2-0.1,0.3c0.1,0,0.2-0.1,0.3-0.1
			C82.6,477.4,83.1,477.1,83.6,476.8z"/>
		<path d="M324.8,788.1l-0.3-0.2l0.1,0.4c0.4,0.4,0.8,0.9,1.2,1.3c0.2,0,0.3,0,0.5,0.1c-0.1-0.1-0.2-0.1-0.3-0.2
			C325.6,788.9,325.2,788.5,324.8,788.1z"/>
		<path d="M328.4,276.1c0,0.1,0,0.2,0,0.3c0.1,0,0.1-0.1,0.2-0.1L328.4,276.1z"/>
		<path d="M418.5,843.3c0-0.2,0.1-0.4,0.1-0.6c-0.1,0.1-0.2,0.3-0.2,0.4c-0.5,0.4-0.9,0.8-1.4,1.3
			c0,0.1-0.1,0.1-0.1,0.2c0.1,0,0.2,0,0.3-0.1C417.5,844.2,418,843.7,418.5,843.3z"/>
		<path d="M305.8,779.3c-0.1-0.1-0.3-0.2-0.5-0.3c-0.2,0-0.3,0-0.5,0c0.1,0.1,0.2,0.1,0.3,0.2
			C305.4,779.3,305.7,779.3,305.8,779.3z"/>
		<path d="M251.8,800.8c-0.1,0-0.2,0-0.4,0c0,0-0.1,0-0.1,0c0.1,0,0.1,0.1,0.2,0.1
			C251.7,800.9,251.7,800.8,251.8,800.8z"/>
		<polygon points="436.4,871.6 436.2,871.3 436,871.2 436.1,871.5 		"/>
		<polygon points="342.4,843.2 342.8,843.4 342.5,843.2 342.3,843 		"/>
		<path d="M468.1,908.7c-2.4-0.9-4.7-2.1-6.7-3.7c-6.1-4.6-6.4-11.6-0.8-16.9c4.2-3.9,9.4-5.9,14.8-7.2
			c0.2,0,0.4-0.1,0.6-0.1v-11.4c-1.4,0.3-2.7,0.6-3.9,0.8c-13.6-1-24.4-2.8-33.8-9.7c-6.8-5-9.1-13-5.8-20.3c1.8-4.1,5-6.8,8.9-8.8
			c6.9-3.7,14.5-5.1,22.1-5.7c4.2-0.3,8.4-0.2,12.5,0.2v-17.8c-1.2,0.8-2.5,1.6-3.8,2.3c-7,3.6-14.5,5.1-22.3,5.3
			c-11.3,0-22.1-1.8-31.6-8.4c-6-4.1-10.4-9.4-12.6-16.5c-2.4-7.8-0.6-14.6,4.3-21c5.6-7.3,13.7-9.5,22-11.3c13.9-3,27.4-1,39.7,5.8
			c1.5,0.8,2.9,1.8,4.3,2.7v-11.6c-2.7-3.6-4.6-7.9-5.8-12.6c-0.8-2.9,0.2-6.3,0.5-9.4c0.5-6.1,2.3-11.3,5.3-15.7v-24.3
			c-15.7-3.5-28.6-15.2-32.4-30.4c-2.8-11-1.7-21.6,4.5-31.5c0.7-1.1,1.3-2.2,2-3.5c-3.4-4.2-7.2-7.7-12.7-9.4
			c-0.3,4-0.4,7.5-0.8,11.1c-2,21.8-17.8,38.2-39.1,40c-19.5,1.6-39.1-8.7-46.2-30.9c-3.2-9.8-3.5-19.7-0.4-29.6
			c5-16.2,18.5-27,35.4-27.7c6.7-0.3,13.5,0.8,20.5,1.3c-1.9-2.3-4.1-5-6.3-7.6c-2.1-2.6-4.3-5.2-6.6-8.1c-12.3,8-25.1,11-39.2,7.4
			c-11-2.8-20-8.6-26.7-17.6c-8.7-11.7-10.5-25-7.3-39c3.3-14.3,13.9-22.9,25.2-30.2c-1.2-3.9-2.1-7.1-3.2-10.6
			c-3-0.3-6.2-0.8-9.3-0.9c-12.6-0.4-22-7.3-31-15c-5.2-4.4-6.8-11.3-8.6-17.6c-5.3-19.6,2.1-39.1,19-50.5c3.2-2.1,6.5-3.9,10-6
			c-0.8-2.3-1.6-4.4-2.5-6.7c-4,0.2-7.9,0.9-11.6,0.5c-18.5-1.7-31.5-16.4-31.2-35.1c0.4-23.5,18.7-45.7,41.8-50.6
			c2.1-0.4,4.1-0.9,6.5-1.4c0.9-5.9,1.7-11.7,2.6-17.4c-3.8,2.9-7.5,6-11.6,8.5c-10.1,6.4-21.2,7.8-32.7,5.1
			c-18.3-4.3-28.1-22.4-21.9-41c6.7-20,20.8-31.8,41.7-35.2c5.8-1,11.5-0.2,17.1,1.5c8.3,2.6,13.8,8.2,17.2,16.1
			c0.7,1.7,1.4,3.5,2.2,5.7c2-5,3.8-9.4,5.9-14.3c-0.9-0.7-2-1.6-3.1-2.4c-11.7-8.2-15.6-19.9-10.3-33.2
			c7.5-18.4,21.5-28.8,41.1-31.4c6.9-0.9,13.5,1.2,20.5,3.6c3.1-2.3,6.2-4.7,9.6-7.3c-0.6-1-0.8-1.8-1.4-2.4
			c-8.2-8.5-4-21.7,2.2-27.8c7.4-7.3,16.6-11,26.6-11.1c10.3-0.1,19.8-2.3,29.2-5.8c1.4-0.5,2.8-0.9,4.1-1.3c0-4-0.5-7.8,0.1-11.5
			c1.1-7.1,5.4-11.9,11.1-15.2V63.2c-6.1-0.1-12.2-1.3-18.4-3.7c-3.3-1.3-6.5-3.3-9.2-5.6c-4.4-3.8-4.6-8.6-0.7-13
			c1.9-2.2,4.5-3.9,7-5.3c5.2-2.8,13.6-4.8,21.3-5.4V19.3c-13.2,3.5-30.4,2.2-39-3.7c4.5-2.1,12-2.9,20.4-1.9
			c-1.4,3.4-5.5,2-7.4,4.5c9,1.6,17.6,0.5,26-1.8V4.1c-18.9,0-37.7,1.1-56.6,3.3c-31.7,3.7-62.7,10.6-93,20.9
			c-72.6,24.5-135.5,64.4-189,119.2c-10.9,11.2-21,22.9-30.2,35.6c-6.9,9.4-14.3,18.5-21.2,27.9c-3,4.1-5.3,8.7-7.9,13
			c-6.4,10.6-13.4,20.8-19,31.8c-7.5,14.6-14.6,29.5-20.7,44.8C16,356.3,4.9,414.6,5.1,474.9c0,37.3,3.8,72.6,12.2,108
			c12.3,52,32.8,100.5,61.7,145.5c5.5,8.6,11.3,17,17.3,25.2c5,6.9,10.3,13.4,15.6,20.1c15.7,19.5,33.1,37.5,51.9,54
			C207.1,866,255.8,895.5,310,916c45.7,17.3,93.1,27,141.8,29.4c8.1,0.4,16.1,0.6,24.2,0.6v-34.9
			C473.4,910.5,470.7,909.7,468.1,908.7z M436.2,871.3l0.2,0.3l-0.3-0.1l-0.1-0.3L436.2,871.3z M415.2,817.6c3.9,4,6.9,8.7,6.6,15.8
			c-3.6-11-11-17.2-20-21.6c-10.7-5.2-21.9-8.7-34-5.7c-3.9,0.9-7.7,2.3-10.7,5.9c16.7,2.8,30.9,9.9,43.9,19.6
			c6.5,4.8,8.1,7,11.9,14.2c1.3-0.4,2.6-0.7,3.9-1.1c0-0.1,0.1-0.1,0.1-0.2c0.5-0.4,0.9-0.8,1.4-1.3c0.1-0.1,0.2-0.3,0.2-0.4
			c0,0.2-0.1,0.4-0.1,0.6c-0.5,0.4-1,0.8-1.4,1.3c-0.1,0-0.2,0-0.3,0.1c-2.2,4.5-6.7,5.4-11,6.3c-13.1,2.9-25.4,0.1-37.2-5.9
			c-5.4-2.8-10.3-6.2-14.1-10.9c-2.1-2.6-3.9-5.7-4.9-8.9c-2.4-7.4,0.2-14.5,7.2-18c4.7-2.4,10-4.1,15.1-4.6
			C388.6,801.1,403.4,805.5,415.2,817.6z M328.1,776.2c-7.5-7.4-10.6-16.4-7.2-26.9c1.9-6,5.7-10.4,11.7-12.8
			c7.7-3.1,15.7-4.8,23.8-3.1c7.7,1.6,15.7,3.3,22.5,6.9c11.1,6.1,18.5,15.6,19,29c0.6,5.4-1.8,9.5-5.5,13.1c-6.8,6.3-15.1,9-24,9.1
			C353,791.8,339.2,787.2,328.1,776.2z M342.8,843.4l-0.4-0.2l-0.1-0.2l0.2,0.2L342.8,843.4z M283.9,815.8
			c-6.9-5.4-11.2-12.2-11.1-21.3c0-6,2.4-10.9,7.5-14c7.8-4.7,16.1-5.6,24.5-1.5c0.2,0,0.3,0,0.5,0c0.2,0.1,0.4,0.2,0.5,0.3
			c0.1,0,0.2,0,0,0c0.2,0.1,0.1,0.1,0,0c-0.1,0-0.4-0.1-0.6-0.1c-0.1-0.1-0.2-0.1-0.3-0.2c-3.2,0-6.5,0-9.7,0.1
			c-5.3,0.2-9.7,2.3-13.7,5.9c23.4,1.7,37.4,16.1,48.5,34.6c0.8,1.4,1.6,2.8,2.4,4.2c0,0,0.1,0,0.1,0c0.3-0.9,0.5-2,1.1-2.6
			c5.3-5.9,5.1-15.6,0.5-22.7c-1-1.6-1.8-3.4-2.6-5.1c-0.1-0.1-0.2-0.2-0.3-0.3c-0.1-0.1-0.1-0.3-0.2-0.4c-1.5-1.1-3.1-2.1-4.6-3.2
			c-0.2,0-0.3,0-0.5-0.1c-0.4-0.4-0.8-0.9-1.2-1.3l-0.1-0.4l0.3,0.2c0.4,0.4,0.8,0.9,1.2,1.3c0.1,0.1,0.2,0.1,0.3,0.2
			c2.1,0.2,3.6,1.3,4.6,3.2c0.1,0.1,0.2,0.2,0.3,0.2c0.1,0.1,0.1,0.3,0.2,0.4c6.5,4.8,9.5,11.4,8.7,19.4c-0.5,4.8-2.2,9.4-7.6,11
			c0,0.1,0,0.1-0.1,0.2c0,0-0.1-0.1-0.1-0.1c0,0,0,0,0,0c-1.1,0.9-2,2.2-3.2,2.8c-5.6,2.4-11.5,3.2-17.5,1.8
			C301.5,826.2,292.1,822.2,283.9,815.8z M293.7,848.3c-0.2,0-0.5,0.1-0.7,0.1c-0.1-0.8-0.2-1.7-0.3-2.5c0.2,0,0.5-0.1,0.7-0.1
			C293.5,846.6,293.6,847.5,293.7,848.3z M75.9,419.5c4.8,13.5,6,27.4,3.6,41.6c-0.2,1.4-0.3,2.8-0.5,4.8c-4.4,1-8.3-0.9-11.7-4.4
			c-3.7-3.8-5.5-8.6-6.6-13.6c-2.7-11.9-2.5-23.7,1.1-35.4c0.8-2.6,2-5.2,3.4-7.5c3.5-5.9,5.9-7.4,13.4-8.4
			c-5.9,2.6-10.9,6-11.9,13.6C72.3,411.2,74.4,415.2,75.9,419.5z M75.3,484.8c1.5-2.9,3.1-5.9,6.5-7.1c0-0.1,0.1-0.2,0.1-0.3
			c0.5-0.2,1.1-0.4,1.6-0.6c-0.5,0.3-1,0.5-1.4,0.8c-0.1,0-0.2,0.1-0.3,0.1c-1.1,2.1-2.2,4.3-3.5,6.7c6.4,3.2,9.1,8.9,11.1,15.1
			c3.7,11.2,5.8,22.7,4.6,34.6c-0.3,3.1-1.2,6.2-2,9.9c5-2.2,7.5-5.9,9.3-10.2c4.3-10.4,4.6-21.2,2.9-32.1
			c-0.8-5.2-2.5-10.2-4.1-16.6c6.7,9.7,8.6,19.5,8.2,29.6c-0.2,6.1-1.7,12.2-3.3,18.2c-0.8,3-2.6,5.9-4.4,8.5
			c-3.8,5.4-10.2,7.1-15.8,3.8c-3.3-2-6.7-5-8.5-8.3C67.3,519.9,66.5,502.4,75.3,484.8z M95.5,442.4c0-0.1,0.2-0.3,0.3-0.4
			c0,0.2,0,0.4,0,0.6c-0.1,0.1-0.2,0.2-0.3,0.4C95.5,442.8,95.4,442.6,95.5,442.4z M201.5,357.1c3.7,6.5,4.4,13.7,4.3,21.9
			c0.2,10.6-2.8,21.2-8.5,31c-3.6,6.2-8.4,11.3-15.1,14.4c-12.1,5.5-25.6,1.7-31.3-12c-0.8-2-1.7-4-2.1-6.1
			c-3.2-17.7,0.1-34.2,10.6-48.7c6.4-8.9,15.8-12.7,27-11.3C193.5,347.2,198.2,351.2,201.5,357.1z M194.7,250.5
			c4.2-19.3,13-35.2,32.2-43.2c0.4-0.2,0.8-0.3,1.2-0.5c15.8-5.9,27.9,2,28.9,18.8c0.1,1.1,0,2.1,0,3.2
			c-0.2,21.1-16.4,42.5-36.7,48.3c-2,0.6-4.2,1-6.3,1.2c-7.5,0.7-13.9-2.9-17.2-9.7C194.1,262.8,193.4,256.8,194.7,250.5z
			 M278.8,670.1c-1.6,11.4-7.5,18-18.7,20.9c-8.2,2.1-16,1.4-23.6-2.6c-14.6-7.7-24.1-19.5-28.1-35.5c-0.3-1.2-0.5-2.5-0.7-3.8
			c-0.2-1.5-0.2-3-0.2-3.6c0-17.3,12.8-28.2,30.4-26.8C262.3,620.7,282.3,645.8,278.8,670.1z M292.4,714.1
			c6.1,4.5,11.1,9.9,14.5,16.8c0.7,1.3,1.2,2.7,1.8,4.1c6.2,17.2-4.1,31.7-25.1,31.5c-8.7-0.4-18.4-5-27.2-11.7
			c-8.2-6.2-14.6-13.6-16.9-24.1c-3.4-15.5,5-26.5,21-27.4C272.5,702.6,282.9,707.1,292.4,714.1z M242.5,598.4
			c-5.5,8.6-13.6,12-23.6,10.8c-5.6-0.6-10.8-2.5-15.5-5.6c-17.1-11.4-26.5-26.9-25.2-47.9c0.9-15.1,10.5-25.2,24.6-26.4
			c5.9-0.5,11.5,1.1,16.7,3.7c15.9,7.8,29.3,26.4,28.4,45.6C248.2,585.6,246.4,592.3,242.5,598.4z M220.7,482
			c-0.1,1.8,0,3.9-2.4,4.5c0,0.1,0,0.1,0,0.2c-0.4,2.1-0.9,4.3-1.3,6.4c-0.4,1.3-0.9,2.6-1.3,3.8c-0.1,0.1-0.2,0.3-0.3,0.4
			c-4,18-18.7,26.5-34.2,20.6c-5.9-2.2-11.1-6.1-13.7-11.8c-3.8-8.3-7.3-16.8-8.1-26c-1.2-13.6,2.2-25.9,10.5-36.6
			c12.2-15.7,32.9-13.9,43.3,2.9C220.1,457.5,221.5,469.4,220.7,482z M168.7,545.9c-0.6,4.2-0.7,8.6-1.9,12.6
			c-1.1,3.8-2.9,7.7-5.3,10.8c-5.5,7.1-12.9,8.5-21.1,5c-5.8-2.5-9.9-6.8-13.1-11.9c-8.2-13.1-12.3-27.2-9.3-42.7
			c0.7-3.7,2-7.5,3.8-10.8c5.1-9.4,16.4-12.9,26-8c6.3,3.2,11.2,8.3,13.9,14.5C165.8,525.1,168.6,535.2,168.7,545.9z M149,431.4
			c0.4,1.7,0.9,3.4,1.3,5.1c0,0.2,0,0.4,0,0.5c0.5,1,1.1,1.9,1.1,2.9c0.1,5,0.1,10,0,15c0,1-0.6,1.9-1.1,2.9c0,0.2,0,0.4,0,0.6
			c-0.4,2.1-0.9,4.3-1.3,6.4c-0.4,1.3-0.9,2.6-1.3,3.8c-0.4,1.3-0.8,2.6-1.3,3.9c-0.4,0.9-0.9,1.7-1.3,2.6c-0.9,1.3-1.7,2.6-2.6,3.8
			c-0.1,0.1-0.3,0.2-0.4,0.3c-4.8,11-19,14.2-27.7,6.2c-3.9-3.6-6.3-8.1-7.6-13.1c-4.2-15.8-2.6-31,6.4-44.8
			c3.2-4.9,6.9-9.6,13.5-10.1c0.1-0.1,0.2-0.1,0.2-0.2c0.1,0,0.2,0,0.4,0c4.3-2.1,8.5-2.3,12.3,1.2c0.1,0,0.2,0,0.2,0
			c0,0.1,0.1,0.1,0.1,0.2c5.7,2.1,7.8,6.8,8.6,12.3C148.8,431.2,148.9,431.3,149,431.4z M135.4,389.4c-0.3,0.8-1.1,1.4-1.7,2.1
			c0,0.1,0,0.2-0.1,0.3c-0.1,0.1-0.2,0.2-0.2,0.3c-1.9,7.4-6.2,13.1-13.3,16.3c-8.1,3.6-16.2,0.9-19.9-7c-2-4.4-3.5-9.2-3.9-14
			c-1.2-13.2,1.3-25.9,7.6-37.6c2.7-4.9,6.2-9.2,11.3-11.9c10-5.2,20-0.1,22,11.2c0.1,0.1,0.2,0.2,0.2,0.4c0,0.2,0,0.4,0.1,0.6
			c0.8,1.9,1.9,3.8,2.2,5.8C141.4,367.3,139.9,378.5,135.4,389.4z M87.1,569.1c0.5-5.4,2.7-10.4,8.7-12.4c6.5-2.2,12.5-0.9,17.2,3.9
			c13.9,14,20.6,30.7,18,50.6c-0.4,2.7-1.5,5.3-2.7,7.8c-1.2,2.5-3.1,4.5-7.4,4.9c7.9-5.9,9.5-13.3,8.7-21.3
			c-1.1-12.6-5-24.3-13-34.2c-2.5-3.1-5.8-5.7-9.2-7.8c-4.8-2.9-9.7-2.3-14.2,1.5c16,10.9,21.6,27.5,25.5,45
			c1.3,5.7,1.7,11.4-2.3,17.8c-3.2-1.7-6.3-2.7-8.7-4.6C91.3,606.9,85.1,589.5,87.1,569.1z M109.4,646.7c1-8,6.9-11.7,14.8-9.8
			c2.8,0.7,5.5,2.1,8.2,3.2c-13.4-2.2-16-1.7-19.1,4.9c6.8,0.4,11.3,4.5,15.4,9.2c8.2,9.4,14.5,20,18.5,32c1.3,4,1.7,8.2,2.6,12.5
			c5-0.1,8.7-3.3,9.2-9.3c0.3-3.6,0.3-7.4-0.6-10.8c-2-6.9-4.7-13.6-6.7-20.8c1.7,2.5,3.5,4.8,4.9,7.4c4,7,6,14.7,5,22.8
			c-1.3,11.1-8.4,15.5-19.1,12.3c-7-2.1-12.7-6.1-17.3-11.6c-6.9-8.3-12-17.7-14.9-28.1C109,656.2,108.8,651.2,109.4,646.7z
			 M149.2,636.2c-4.2-7.2-6.8-15.2-7.7-23.6c-0.8-6.9-0.2-13.7,4.1-19.6c4.3-5.9,9.8-8.5,17.2-6.9c7.8,1.7,14.4,5.4,19.3,11.7
			c5.5,7.1,10.5,14.5,11.9,23.7l-0.2-0.2c4.8,9.5,6.5,19.4,2.1,29.4c-4,9.2-11.6,12.3-21.1,8.6C163.4,654.9,155.2,646.5,149.2,636.2
			z M172.2,683.9c1-5.6,4.2-9.6,9.9-11.5c10.8-3.7,26.7,3.3,31.9,14c0.1,0.1,0.3,0.2,0.4,0.3c0.4,0.4,0.9,0.9,1.3,1.3
			c0.4,0.4,0.9,0.8,1.3,1.3c0.4,0.4,0.9,0.9,1.3,1.3c1.3,2.1,2.6,4.3,3.8,6.4c0.1,0.2,0.1,0.3,0.2,0.5c7.3,7.8,9.9,20.7,5.5,29.4
			c-1.3,2.5-2.2,5.6-5.7,6c0,0,0,0.1,0,0.1c0,0-0.1-0.1-0.1-0.1c0,0,0,0,0,0c-1.1,3.8-4.3,3.7-7.2,3.8c-5.7,0.1-11-1.7-15.8-4.4
			c-12.4-6.9-20.9-17.2-25.7-30.7C171.2,695.8,171.2,689.8,172.2,683.9z M215.8,747.2c5-0.1,10.2,0.9,15,2.5c7,2.4,12.6,7,16.7,13.5
			c-1.4-1.1-2.8-2.1-4.2-3.2c-5.3-4.1-10.8-8-17.3-9.4c-4-0.9-8.4-0.8-12.6-0.4c-1.9,0.2-3.7,2.3-5.3,4.1
			c13.3-0.4,22.4,6.7,30.3,15.7c3.9,4.4,6.9,9.7,9.9,14.9c2.2,3.7,3,8,2,12.4c-0.4,1.6-0.1,2.8,1.2,3.6c0,0,0.1,0,0.1,0
			c0.1,0,0.3,0,0.4,0c2.6-1.9,5.2-3.7,7.9-5.7c-0.8,4.5-2,5.4-7.9,5.7c-0.1,0.1-0.2,0.1-0.3,0.2c-0.1,0-0.1-0.1-0.2-0.1
			c-2,0.3-4,1-5.9,0.7c-18.4-2.3-31.7-12-39.8-28.6c-1.7-3.5-2.7-7.7-2.9-11.7C202.4,752.7,207.2,747.4,215.8,747.2z M250.6,812.5
			c15,2.2,27.2,9.6,37.2,20.7c0.5,0.5,0.5,1.3,0.7,2.1c0.1,0,0.1,0.1,0.2,0.1c0.9,1.3,1.8,2.5,2.6,3.8c0.2,0.5,0.4,1,0.7,1.5
			c-0.3-0.5-0.5-0.9-0.8-1.4c-0.9-1.3-1.7-2.5-2.6-3.8c0-0.1,0-0.2-0.1-0.3c-1.3-0.9-2.6-1.8-3.7-2.9c-7.4-7.4-16.2-12.6-26.1-15.7
			c-5.6-1.7-11.6-2-17.1-2.9C244,811.9,247.4,812,250.6,812.5z M388.3,685.7c9.8-6.9,21.3-8.8,33-7.8c12,1,22.9,5.2,31.5,14.1
			c9.3,9.6,12.3,21.1,9.5,34.2c-1,4.9-4.8,8-7.5,11.7c-8.2,10.9-20.4,11.4-32.4,11.5c-6.3,0-12.8-0.2-18.7-3.2
			c-3.4-1.7-7.2-2.9-10.1-5.3c-5.2-4.2-9.9-9.1-14.8-13.8c-0.4-0.4-0.8-0.9-0.9-1.4c-0.9-5.7-1.6-11.3-2.4-17
			C374.7,698.1,380.6,691.1,388.3,685.7z M366.1,694.1c-0.3,20.9-15.8,32-34.9,29.6c-19.6-2.4-39.5-22.3-43.2-41.5
			c-2.9-15.2,9-31.4,22.3-33.1c1.7-0.2,3.3-0.8,5-0.9c1.7-0.2,3.4,0,5.1,0C346.3,648.1,366.5,668.5,366.1,694.1z M340.6,596.3
			c3.8,24.8-11.6,42.4-36.7,41.6c-11.4-0.3-21.8-3.9-30.9-10.9c-11.1-8.7-16.5-20.4-16.5-34.5c0-23,15.3-37.2,39.2-36.5
			C318,556.6,337.2,574.3,340.6,596.3z M303.8,474.6c9.7,10.1,12.4,22.1,10.7,35.2c-3.2,24.3-23.9,39.8-48.3,36.6
			c-11.8-1.5-22.3-5.8-30.2-15c-7.6-8.9-10.3-19.5-9.7-31c0.2-3.6,0.5-7.3,1.3-10.8c0.6-2.4,1.7-4.8,3.2-6.8
			c3.4-4.8,7.1-9.5,10.7-14.2c0,0,0,0-0.1,0l-0.2-0.3l0.4,0.2c0,0-0.1,0.1-0.1,0.1c7.5-5.1,15.5-9,24.7-9.3
			C280.8,458.9,293.3,463.8,303.8,474.6z M286,392.6c4.2,20.1-1.7,37.6-16.5,51.8c-6.5,6.3-14.6,9.5-24.2,9.3
			c-7.6,0.1-15.1-2.3-21.1-7.1c-4.1-3.3-7.6-8.4-9.3-13.5c-7.3-21.2-3.9-41.1,10.9-58c9.5-10.7,22.4-14,36.3-10.2
			C275.9,368.8,283.3,379.3,286,392.6z M263.1,290.3c7.3,4,9.4,11,10.5,18.5c1.2,8.7-0.3,17-4.8,24.7c-6.5,11.1-15.6,19.3-28.1,22.8
			c-26.4,7.4-44.7-12.4-41.4-36.3c3.2-23,23.5-39.2,46.7-37.4C252.4,283,258.9,284.3,263.1,290.3z M324.2,181.5
			c-9.9,18.1-26.2,26.7-46.4,28.3c-1.3,0-2.6,0.1-3.8,0c-12.9-0.9-21-11.3-18.1-24c1-4.3,2.8-8.6,5.3-12.1
			c10.6-14.5,25.4-21.6,43.1-23c1.1-0.1,2.1,0,3.2,0.1C324.9,152.6,332.6,166.1,324.2,181.5z M294.6,118.4
			c-2.8,9.1-8.4,16.2-16,21.9c-1.4,1-2.8,1.9-4,3.5c1.4-0.2,2.9-0.3,4.3-0.7c10.9-3.1,20.6-8.4,28.1-16.9c2.4-2.7,4.6-5.7,6.1-9
			c4.4-9.7,0-15.4-8.8-17.9c-2.2-0.6-4.5-0.7-6.7-1c0.1-0.4,0.2-0.9,0.3-1.3c1.7,0.1,3.3,0.3,5,0.5c13.8,1.5,15,12.4,11.9,21
			c-2.2,6.2-6.1,11.3-11.2,15.4c-8.5,6.7-18,11.5-28.6,13.7c-2.5,0.5-5.1,0.7-7.6,0.5c-11.1-0.7-17.3-9.5-13.8-20.2
			c1.4-4.2,3.5-8.3,6-11.9c7.1-10.1,17.4-15.4,29.3-17.9c1-0.2,2.1-0.2,3.2-0.1c0.5,0,1.1,0.2,2,0.4c-1.1,0.5-1.8,0.8-2.9,1.3
			C296.9,105.1,296.7,111.6,294.6,118.4z M305.1,70.1l0.2-0.3l0.2-0.2l-0.1,0.3L305.1,70.1z M307.7,62.4c0.2,0,0.4,0,0.5,0.1
			c0.1,0.1,0.1,0.3,0.1,0.4c-0.2,0.1-0.3,0.1-0.5,0.2C307.8,62.9,307.7,62.6,307.7,62.4z M392.6,125c-2,4.5-5.2,9-8.9,12.3
			c-12.1,10.6-26.2,16.9-42.7,14.7c-4.3-0.6-8.8-2.3-12.4-4.6c-7.7-4.9-10-13.4-6.4-21.9c3.2-7.5,8.7-13.1,15.4-17.5
			c9.8-6.4,20.7-8.9,32.2-9.3c3.4,0.4,6.8,0.5,10.1,1.3C392.2,102.9,397.8,113.4,392.6,125z M448.9,65.8
			c12.5,6.7,13.4,20.2,1.5,28.1c-4,2.7-8.7,4.5-13.4,5.8c-12.2,3.4-24.4,3.4-36.6-0.4c-2.4-0.8-4.8-1.8-7-3
			c-6.3-3.4-10.2-8.5-9.8-15.9c0.3-7.2,4.5-11.7,10.7-14.8c6.4-3.1,13.3-4.6,20.3-5.2c2.5-0.2,5.1,0,7.7,0
			C431.6,60.2,440.6,61.4,448.9,65.8z M380.2,32.2c9.3-5.8,19.6-8.5,30.4-8.9c5.5-0.2,11,0.8,16.5,1.4c0.8,0.1,1.5,0.8,2.2,1.4
			c0.2,0,0.3,0,0.5,0.1c0.4,0.1,0.7,0.2,1.1,0.3c-0.4,0-0.8-0.1-1.3-0.1c-0.1-0.1-0.2-0.1-0.3-0.2c-7.4-1.3-14.9-1.5-22.4-0.5
			c0,0.6-0.2,1.2,0,1.3c5.5,3.8,5.8,6.5,1.1,10.9c-4.1,3.9-9.2,6.1-14.6,7.6c-2.3,0.7-4.7,1.2-7,2.3c17.7,2.8,34.5,0,50.8-9
			c-0.9,2.3-2.5,3.5-4.3,4.5c-16.1,8.5-32.9,11.7-50.7,6.2c-3.7-1.1-7.7-2.5-8.4-6.9C373.1,37.6,376.4,34.5,380.2,32.2z M348.4,77.7
			c-5,6.3-11.4,10.7-18.6,14.4c9.8,0,18.8-2.7,27.2-7.3c5-2.7,9.4-6.5,14.1-9.9c1.1-0.8,2.2-1.6,3.3-2.4c0-0.1,0.1-0.2,0.1-0.4
			l0.3-0.3l-0.1,0.4c-0.1,0.1-0.2,0.1-0.3,0.2c-1.6,4.8-5.4,7.8-9.3,10.6c-11.5,8.1-24.3,12.3-38.4,12.2c-5,0-10-0.8-12.7-5.8
			c-2.9-5.5-1-10.8,2.6-14.8c4.2-4.7,9-9.2,14.3-12.6c8.8-5.6,18.9-7.8,29.3-7.9c3.1,0,6.1,0.8,9.2,1.3c0,0.5-0.1,0.9-0.1,1.4
			c-5.5,0-11,0-17.4,0C357.2,65.6,353.2,71.7,348.4,77.7z M313.8,42.1c0,1.6,0,2.7,0,4.1c3.6,2.1,7.5,1.8,11.2,1.3
			c12.2-1.7,23.6-5.9,34.3-11.8c4.9-2.6,5.3-3.4,7-9.1c2.8,1.4,3.1,3.6,1.4,5.7c-1.6,2-3.5,3.8-5.6,5.2c-13.9,8.7-29,13.4-45.5,13.1
			c-4-0.1-8-0.8-11.6-3.7C307.4,43.6,310.6,43.3,313.8,42.1z M260.1,73.2c12.7-10.6,27.4-14.4,43.8-11.5
			c-14.2-1.1-26.4,3.3-37.9,12.7c3.5-0.2,6.3-0.8,9-0.6c4.2,0.4,5.5,3.3,2.7,6.6c-1.9,2.3-4.3,4.1-6.6,5.9c-1.5,1.2-3.2,2-4.6,3.3
			c7,0,13.4-2,19.6-4.6c2-0.8,4.1-1.6,6.2-2.4c0.1-0.1,0.1-0.2,0.2-0.3c1.3-0.8,2.6-1.6,3.9-2.4c0.4-0.4,0.8-0.9,1.2-1.3
			c0.4-0.4,0.8-0.9,1.3-1.3c0.4-0.4,0.9-0.8,1.3-1.3c0.4-0.4,0.9-0.8,1.3-1.3c0.5-0.4,0.9-0.8,1.4-1.2l0.2-0.2l-0.1,0.4
			c-0.4,0.4-0.9,0.8-1.3,1.2c-0.4,0.4-0.9,0.8-1.3,1.3c-0.4,0.4-0.9,0.8-1.3,1.3c-0.4,0.4-0.8,0.9-1.3,1.3c-0.4,0.4-0.8,0.9-1.2,1.3
			c-1.3,0.8-2.6,1.6-4,2.4c-0.1,0-0.2,0.1-0.3,0.1c-0.4,0.6-0.8,1.3-1.3,1.6c-12.4,7.5-25.7,10.1-39.9,7c-0.6-0.1-1.1-0.6-2.3-1.2
			C250.3,83,254.8,77.7,260.1,73.2z M195.3,133.9c0.6-3.5,1.8-7.2,3.7-10.1c8-12.3,19.1-20.6,33.5-24c4.7-1.1,9.6-1.4,13.8,2
			c0,0,0,0,0-0.1c4.2,3.6,3.2,8,1.7,12.3c-2.8,7.9-8.1,14-14.6,19c-6.1,4.7-13,8.3-20.4,10.4c-3,0.8-6.3,1.1-9.5,0.8
			C197.2,143.8,194.3,140.2,195.3,133.9z M192.3,189.9c0.2-3.8,1-7.7,2.4-11.1c7-16.2,19.3-26.4,36.4-30.4
			c6.5-1.5,13.5-2.4,19.1,3.3c0.1,0,0.2,0,0.3,0c0,0.2,0,0.4,0,0.5c0.2,0.3,0.4,0.7,0.5,1c-0.2,0-0.3,0.1-0.5,0.1
			c0-0.4,0-0.7-0.1-1.1c-0.1-0.1-0.1-0.3-0.2-0.4c0,0-0.1-0.1-0.1-0.1c-0.5,0.1-1.1,0.2-1.6,0c-8.9-3.6-17.1-1.1-25.8,3.2
			c7.3,4.3,7.5,11,6.6,17.8c-1,7.9-3.5,15.4-8.9,21.6c-0.5,0.6-0.9,1.2-0.9,2.2c15.5-7.7,27.8-18.4,33.9-36.2
			c0.3,5.3-1,9.5-3.2,13.2c-8,13.6-19.7,23-34.6,27.8c-4.1,1.3-8.9,1.4-13.2,0.9C195.2,201.3,191.9,197.1,192.3,189.9z M191.8,217.6
			c0.1,0,0.2,0,0.2,0c0,1,0,2.1,0,3.1c-0.1,0-0.2,0-0.2,0C191.8,219.7,191.8,218.6,191.8,217.6z M145.3,186.2
			c3.7-16.5,13.4-28.8,28-37.2c2.5-1.5,5.6-2.2,8.5-2.6c4.7-0.7,6.6,0.6,6.9,5.2c0.3,4.8,0.4,9.9-0.9,14.5
			c-3.7,13.2-11.4,23.8-22.9,31.4c-5.3,3.5-10.9,5.7-17.6,4.3C144.2,196.8,144.1,191.4,145.3,186.2z M157.2,214.1
			c4.5-4.7,10.1-7.9,16.6-9.1c2.9-0.6,6-0.8,8.9-0.5c1.5,0.1,2.9,1.4,4.3,2.2c0.2,0,0.4,0.1,0.5,0.1c0.4,0.4,0.9,0.9,1.3,1.3
			c0.4,0.9,0.8,1.8,1.1,2.7c0.3,0.3,0.5,0.6,0.8,0.9c-0.3-0.2-0.6-0.5-0.9-0.7c-0.4-0.9-0.8-1.8-1.1-2.7c-0.4-0.5-0.8-0.9-1.2-1.4
			c-0.1-0.1-0.3-0.2-0.4-0.3c-8.7-2.3-16.3-0.3-23.3,5.9c7.8,9,6.3,19.5,4.2,29.7c-1.3,6.3-4.1,12.3-6.2,18.5
			c6.6-3,11.9-8.1,17.1-13.4c1.4-1.5,3.1-2.7,4.7-4c0.1-0.2,0.2-0.3,0.3-0.5c0.4-0.9,0.7-1.8,1.1-2.7c0.1,0.1,0.1,0.1,0.2,0.2
			c-0.3,0.9-0.7,1.8-1,2.7c-0.1,0.1-0.3,0.2-0.4,0.4c-5.3,10.4-13.7,17.3-24.4,21.5c-2.5,1-5.4,1.3-8.1,1.2
			c-8-0.1-12.4-4.5-12.1-12.5C139.2,238,146.6,225.2,157.2,214.1z M163.6,274.9c1.8-1.3,4.3-1.6,6.5-2.3c0.1-0.1,0.3-0.2,0.4-0.3
			c0.2,0,0.4,0,0.6,0c5.7-1.8,11.2-3,15.7,2.5c0.2,0.1,0.3,0.1,0.5,0.2l0.3,0.2l-0.5-0.1c-0.1-0.1-0.2-0.2-0.3-0.4
			c-4.9-2.6-10.3-2.5-15.7-2.5c-0.2,0.1-0.3,0.1-0.5,0.2c-0.2,0.1-0.4,0.1-0.5,0.2c-1.3,1-2.7,2.1-4.3,3.3
			c8.3,5.5,9.3,14.1,9.9,22.6c0.9,12.5-1.2,24.6-7.6,36.9c2.1-1,3.5-1.4,4.5-2.2c7.7-6.1,13.1-13.9,17.3-22.7
			c0.7-1.5,1.7-2.8,2.5-4.1c0-0.2,0.1-0.4,0.2-0.6c0.1-0.2,0.1-0.3,0.2-0.5c0-1.2,0-2.4,0-3.6c0.4,0.1,0.8,0.1,1.1,0.2
			c-0.4,1.1-0.8,2.2-1.1,3.4c0,0.2,0,0.4,0,0.6c-0.1,0.2-0.2,0.3-0.3,0.5c-3.6,15.1-11.9,26.8-25.8,33.8
			c-14.2,7.1-28.1-1.2-28.2-17.1C138.1,302.8,147.1,286.7,163.6,274.9z M95.2,241.9c0.6-3.8,1.9-7.4,3-11.1c0.3-1.1,1.3-1.9,2.8-4
			c0,2.8,0.2,4.2,0,5.5c-0.8,4.6-1.9,9.2-2.6,13.8c-0.3,1.9-0.3,3.8,0,5.7c0.3,2.6,2,3.4,4.5,3.1c5.5-0.6,10-3.5,14.1-6.7
			c7.2-5.6,12.9-12.4,14.5-21.8c0.4-2.1,1.6-4,2.1-6c0.8-2.9,1.7-5.8,1.7-8.7c0-5.7-3-7.7-8.4-5.9c-2,0.6-3.8,1.9-5.6,2.9
			c-2,1.2-4,2.5-6,3.7c-1.2,0.7-2.6,1.3-4.8,2.5c0.6-1.9,0.9-3,1.2-4.1c0,0-0.1,0.1-0.1,0.1l-0.2-0.4l0.4,0.2c0,0,0,0,0,0
			c5.6-4.7,11.5-8.7,19.2-8.8c4.5-0.1,5.7,0.3,6.1,4.5c0.8,8.2,1.7,16.4-3.3,24.1c-4,6.2-7,13.1-13,17.9c-4.6,3.8-9.4,7.4-15.5,8.4
			c-2.4,0.4-5.1,0.4-7.4-0.2c-1.3-0.3-2.9-2.2-3-3.6C94.7,249.5,94.7,245.6,95.2,241.9z M96,292.5c2.8-8.4,6.5-16.3,12.7-22.7
			c3.1-3.3,6.5-6.7,11.6-6.4c0.1,0,0.1-0.1,0.2-0.1c0.2,0,0.5,0,0.7-0.1c0.9-0.4,1.8-0.7,2.7-1.1c0.1,0.3,0.1,0.5,0.2,0.8
			c-1,0.1-1.9,0.2-2.9,0.2c-0.2,0.1-0.4,0.1-0.6,0.2c-0.1,0-0.2,0-0.3,0c-2.3,1.7-4.6,3.4-7.2,5.3c4.8,6.8,4.4,14.5,4.3,22.1
			c-0.1,10.9-1.3,21.7-5.3,32.4c14.9-7.7,24.1-37,18.8-56.5c0.9,1.6,2.3,3.2,2.5,4.9c0.6,5.5,1.6,11.1,1,16.5
			c-1.3,11.2-5.6,21.5-12.5,30.4c-2.2,2.8-4.9,5.5-8,7.2c-9.7,5.6-18.6,1.3-20.2-9.8C92.5,308,93.5,300.2,96,292.5z M92.4,453.1
			c0.1-0.3,0.3-0.5,0.4-0.8c0.4-1.8,0.8-3.6,1.3-5.5c0.4,0.2,0.8,0.3,1.2,0.5c-0.8,1.7-1.7,3.3-2.5,5c-0.1,0.3-0.1,0.6-0.2,1
			c-0.4,0.9-0.8,1.8-1.2,2.7c-0.9,1.2-1.7,2.5-2.6,3.7c-0.4,0.4-0.9,0.8-1.3,1.2c-0.4,0.4-0.8,0.9-1.3,1.3c-0.4,0.5-0.9,0.9-1.3,1.4
			c-0.5,0.2-1,0.4-1.5,0.6c0.5-0.3,0.9-0.5,1.4-0.8c0.4-0.5,0.9-0.9,1.3-1.4c0.4-0.4,0.8-0.9,1.3-1.3c0.4-0.4,0.9-0.8,1.3-1.3
			c0.9-1.2,1.7-2.5,2.6-3.7C91.6,454.9,92,454,92.4,453.1z M86.3,262.9c3,2.5,3.7,5.6,3.5,8.7c-0.9,15.2-6.1,28.7-17.2,39.4
			c-1,0.9-2.3,1.5-3.5,2.2C81.7,298.7,88.6,282.5,86.3,262.9z M51.2,365.1c0.7-11.5,4.1-22.3,10.9-31.6c2.3-3.2,5.5-6,8.8-8.2
			c4-2.8,8.8-3.6,13.3-0.9c4.4,2.7,5.4,7.2,4.9,12.2c-0.7-1.5-1.3-3.1-2.1-4.6c-4.1-7.9-10.5-9.2-17.1-3c-3.5,3.3-6.2,7.4-9.7,11.7
			c5.8,3,7,7.9,8,13c1.8,9.6,1.3,19.1-2,28.4c-0.3,0.8-0.4,1.6-0.7,2.8c2.9,0.4,4.9-1,6.3-2.6c4-4.3,7.7-8.8,11.5-13.2
			c0-0.1,0-0.2,0.1-0.4l0.3-0.1l-0.1,0.3c-0.1,0.1-0.1,0.2-0.2,0.2c-1.2,8.4-8,16.4-15.9,18.6c-6.2,1.7-11.4-0.8-14.1-6.8
			C51,375.8,50.9,370.4,51.2,365.1z M46.6,392.8c7.8,9.9,5.3,34.1-4.7,46.8C46.6,424.3,51.1,409,46.6,392.8z M38.3,459.1
			c2.1-5.6,6.5-7.2,11.2-4.1c3.6,2.3,5.5,5.9,6.9,9.7c3.8,10.4,4.9,21.1,3.4,32.1c-0.8,5.7-1.9,11.4-5.2,16.3c-2,3-4.4,5.7-8.6,5.2
			c6.9-5.4,8.9-13.1,10-20.9c1.4-9.8,1.3-19.5-1.2-29.2c-0.5-1.8-1.1-3.7-2-5.4c-3.1-6.3-6.3-7.3-12.7-4.2
			C39.6,458.9,39,458.9,38.3,459.1z M48.5,565.9c2.8,4.5,5.5,9.1,8.5,13.5c1.8,2.6,4,5,6.5,7c3.9,3.1,7.4,2,8.9-2.8
			c1-3.2,1.7-6.8,1.3-10.1c-1.4-11.6-4.9-22.5-11-32.5c-0.4-0.7-0.9-1.4-1.4-2.1c-5.6-7.7-9.4-7.7-15-0.1c-0.2,0.3-0.7,0.3-1.8,0.7
			c0.7-4.2,2.4-7,5.8-8.7c3.1-1.6,5.9-0.5,8.4,1.4c4.7,3.5,7.9,8.4,10.4,13.6c4.4,8.9,7.2,18.4,7.5,28.3c0.1,4.4-0.7,8.9-2,13.2
			c-1.4,4.5-4.9,5.6-9.2,3.7c-1.4-0.6-2.7-1.3-3.8-2.3C54.6,582.7,50.2,575.1,48.5,565.9z M89.8,665.8c8-6.1,7.5-14.1,6.2-21.9
			c-1.7-10.5-5.9-20-12.8-28.3c-1.4-1.6-2.9-3.2-4.6-4.5c-4.4-3.4-7.1-3.4-12.1-0.2c-0.5,0.3-1.1,0.4-1.7,0.7
			c1.5-4.3,3.5-6.2,7.6-5.8c3,0.3,6.4,1.4,8.7,3.3c3.1,2.5,5.7,5.7,8,9.1c5.8,8.6,9.2,18.2,10.6,28.5c0.7,5.4,0,10.7-3.1,15.4
			C95.2,664.2,93.7,666.2,89.8,665.8z M127.1,724.6c-2.8-0.9-2.6-3-3-4.7c-3.1-13.6-10.7-24.4-20.2-34.1c-0.8-0.8-1.4-1.7-2.1-2.5
			c-0.1-0.1-0.3-0.2-0.4-0.2c-0.4-0.5-0.8-1-1.2-1.4c-0.1-0.1-0.2-0.1-0.3-0.2c0.2,0,0.3,0,0.5,0c0.4,0.5,0.8,1,1.2,1.5
			c0.1,0.1,0.2,0.2,0.3,0.4c2.4,1.3,5.1,2.4,7,4.2c9.6,9.1,14.8,20.7,18.3,33.1C127.3,721.7,127.1,723,127.1,724.6z M140.1,733.8
			c-1.7-4.3-2.1-8.7-1.3-13.2c0.9-5.3,4.3-8.5,9.6-8.4c3.9,0.1,8.1,0.7,11.7,2.2c10.5,4.5,18.2,12.4,24.4,21.8
			c0.3,0.4,0.2,1.1,0.3,1.7c0,0,0.1,0.1,0.1,0.1c0,0.1,0,0.2,0,0.3c6.6,7,8.2,15.6,7.4,24.8c-0.2,2-1,4-3.5,4.4c0,0.1,0,0.1-0.1,0.2
			c0-0.1-0.1-0.1-0.1-0.2c0,0,0,0,0,0c-2.4,2.8-5.6,3-8.7,2.2c-4.1-1.1-8.4-2.1-11.9-4.3C155.6,757.6,145.5,747.7,140.1,733.8z
			 M221.4,820c-8.7-18.6-22.3-30.9-42.8-36.3C198.2,781.3,223.7,803.1,221.4,820z M277,854.8c-15.9-2.6-29.3-10-39.9-22.2
			c-2.7-3.1-4.3-6.8-3.2-11.7c1.1,2.1,1.9,3.7,2.9,5.5c5.1-3,10-1.8,14.8,0.2c10.1,4.1,19.5,9.7,27.5,17.2c2.8,2.6,4.6,6.3,6.8,9.5
			c0.4-0.1,0.8-0.3,1.2-0.4c-0.3,0.2-0.7,0.4-1,0.6c0-0.1-0.1-0.1-0.1-0.2c0,0,0,0,0,0c-0.6,0.5-1.3,1.3-1.9,1.3
			C281.7,854.9,279.3,855.2,277,854.8z M283,868.4c8.8-4,20.8,0.8,27.7,10.6C301.3,875.5,292.6,872.1,283,868.4z M305.3,854.6
			c-2.2-5.9-0.5-10.5,5.2-13.3c2.8-1.3,6.1-2,9.2-2.2c3.1-0.3,6.4,0.3,9.6,0.8c-7.2,0.7-14.8-0.1-20.3,7.5c1.3,0.2,2,0.4,2.7,0.4
			c13.8,0.5,24.9,6.8,34.5,16.1c3.9,3.8,4.5,6.3,3.8,12.2c0.5,0.2,1.1,0.6,1.7,0.6c5.6-0.1,11.1-1.2,13.5-6.8
			c2.6-5.9-0.9-10.6-4.7-14.9c-1.2-1.3-2.3-2.6-3.4-3.9c-0.1-0.1-0.3-0.1-0.4-0.2c-1.3-0.8-2.6-1.6-3.9-2.5c-0.4-0.5-0.8-1-1.2-1.5
			c-0.2-0.1-0.3-0.2-0.4-0.2l0,0l0,0c-0.1,0-0.1,0-0.1,0c0,0,0,0,0,0c0,0,0.1,0,0.1,0c0,0,0,0,0,0c0,0,0,0,0,0
			c-0.1,0-0.1-0.1-0.1-0.1c0,0,0,0,0,0c0,0,0.1,0,0.1,0.1c0,0,0,0,0,0c0,0,0,0,0,0c0.1,0,0.4,0,0.6,0c0.4,0.5,0.8,1,1.2,1.5
			c1.3,0.8,2.6,1.7,3.9,2.5c0.1,0.1,0.2,0.2,0.3,0.3c5.9,2.1,9.4,6.6,11.2,12.4c1.9,5.9-0.2,10.8-5.8,13.3c-3.2,1.4-7,2.4-10.5,2.4
			c-13.1-0.1-25.2-4.1-36.2-11.2C311,864.7,307.3,860.2,305.3,854.6z M347.3,891.5c11.9-6.4,33.7,0.6,40.1,13.5
			C375.1,895.4,361.5,893.5,347.3,891.5z M385.5,887.2c-10.3-8.1-8.6-17.4,3.6-22.3c8.8-3.6,20.5-3.7,30.3,0.2
			c-6.3,0-11.4-0.4-16.5,0.1c-4.6,0.4-9.2,1.6-13.7,2.7c-1,0.2-1.7,1.3-2.6,2.1c14-0.8,26.7,3.1,38.5,10.2c2.4,1.4,4.6,3.1,6.7,4.9
			c3.1,2.7,5.7,5.8,4.6,11c2.1-0.7,3.4-1.2,4.7-1.6c0-0.1,0.1-0.1,0.1-0.2c0.9-0.3,1.8-0.7,2.7-1c0.1-0.2,0.2-0.3,0.3-0.5
			c0,0.2-0.1,0.4-0.1,0.6c-0.9,0.3-1.9,0.7-2.8,1c-0.1,0-0.2,0.1-0.3,0.1c-1.4,3.1-4.6,3.3-7.2,3.9
			C416,901.9,399.7,898.4,385.5,887.2z M433.2,910.3c6.8-2.7,16.9-1,22.6,3.3C447.8,912.5,440.5,911.4,433.2,910.3z"/>
		<path d="M296.5,80.2c0.4-0.4,0.8-0.9,1.2-1.3c0.4-0.4,0.8-0.9,1.3-1.3c0.4-0.4,0.9-0.8,1.3-1.3
			c0.4-0.4,0.9-0.8,1.3-1.3c0.4-0.4,0.9-0.8,1.3-1.2l0.1-0.4l-0.2,0.2c-0.5,0.4-0.9,0.8-1.4,1.2c-0.4,0.4-0.9,0.8-1.3,1.3
			c-0.4,0.4-0.9,0.8-1.3,1.3c-0.4,0.4-0.8,0.9-1.3,1.3c-0.4,0.4-0.8,0.9-1.2,1.3c-1.3,0.8-2.6,1.6-3.9,2.4c-0.1,0.1-0.1,0.2-0.2,0.3
			c0.1,0,0.2-0.1,0.3-0.1C293.9,81.8,295.2,81,296.5,80.2z"/>
		<path d="M188.6,208.4c0.4,0.9,0.8,1.8,1.1,2.7c0.3,0.2,0.6,0.5,0.9,0.7c-0.3-0.3-0.5-0.6-0.8-0.9
			c-0.4-0.9-0.8-1.8-1.1-2.7c-0.4-0.4-0.9-0.9-1.3-1.3c-0.2-0.1-0.4-0.1-0.5-0.1c0.1,0.1,0.3,0.2,0.4,0.3
			C187.7,207.5,188.2,207.9,188.6,208.4z"/>
		<path d="M187.6,275.2l-0.3-0.2c-0.2-0.1-0.3-0.1-0.5-0.2c0.1,0.1,0.2,0.2,0.3,0.4L187.6,275.2z"/>
		<path d="M386.3,870.2c0.1-0.1,0.1-0.1,0.2-0.2c-0.1,0-0.2,0-0.3,0L386.3,870.2z"/>
		<path d="M250.5,152.1c0-0.2,0-0.4,0-0.5c-0.1,0-0.2,0-0.3,0c0,0,0.1,0.1,0.1,0.1
			C250.4,151.8,250.4,152,250.5,152.1z"/>
		<path d="M100.3,681.4c-0.2,0-0.3,0-0.5,0c0.1,0.1,0.2,0.1,0.3,0.2c0.4,0.5,0.8,1,1.2,1.4c0.1,0.1,0.3,0.2,0.4,0.2
			c-0.1-0.1-0.2-0.3-0.3-0.4C101.1,682.4,100.7,681.9,100.3,681.4z"/>
		<path d="M83.6,368.4l-0.3,0.1c0,0.1,0,0.2-0.1,0.4c0.1-0.1,0.1-0.2,0.2-0.2L83.6,368.4z"/>
		<path d="M184.8,240.4c-0.1-0.1-0.1-0.1-0.2-0.2c-0.4,0.9-0.7,1.8-1.1,2.7c-0.1,0.2-0.2,0.3-0.3,0.5
			c0.1-0.1,0.3-0.2,0.4-0.4C184.1,242.2,184.5,241.3,184.8,240.4z"/>
		<path d="M111.5,210.6l0.2,0.4c0,0,0.1-0.1,0.1-0.1c0,0,0,0,0,0L111.5,210.6z"/>
		<path d="M121.2,263.2c-0.2,0-0.5,0-0.7,0.1c-0.1,0-0.1,0.1-0.2,0.1c0.1,0,0.2,0,0.3,0
			C120.9,263.4,121,263.3,121.2,263.2z"/>
		<path d="M171.2,272.2c-0.2,0-0.4,0-0.6,0c-0.1,0.1-0.3,0.2-0.4,0.3c0.2-0.1,0.4-0.1,0.5-0.2
			C170.8,272.3,171,272.3,171.2,272.2z"/>
		<path d="M192.7,305.4c-0.1,0.2-0.1,0.3-0.2,0.5c0,0.2-0.1,0.4-0.2,0.6c0.1-0.2,0.2-0.3,0.3-0.5
			C192.7,305.7,192.7,305.6,192.7,305.4z"/>
		<path d="M351.1,846.8L351.1,846.8c-0.1,0-0.1,0-0.1,0C351,846.8,351,846.8,351.1,846.8z"/>
		<polygon points="305.3,69.8 305.1,70.1 305.4,69.9 305.6,69.6 		"/>
		<path d="M374.9,72l-0.3,0.3c0,0.1-0.1,0.2-0.1,0.4c0.1-0.1,0.2-0.1,0.3-0.2L374.9,72z"/>
		<path d="M87.3,460.8c-0.4,0.4-0.8,0.9-1.3,1.3c-0.4,0.5-0.9,0.9-1.3,1.4c-0.5,0.3-0.9,0.5-1.4,0.8
			c0.5-0.2,1-0.4,1.5-0.6c0.4-0.5,0.9-0.9,1.3-1.4c0.4-0.4,0.8-0.9,1.3-1.3c0.4-0.4,0.9-0.8,1.3-1.2c0.9-1.2,1.7-2.5,2.6-3.7
			c0.4-0.9,0.8-1.8,1.2-2.7c0.1-0.3,0.1-0.6,0.2-1c-0.1,0.3-0.3,0.5-0.4,0.8c-0.4,0.9-0.8,1.8-1.2,2.7c-0.9,1.2-1.7,2.5-2.6,3.7
			C88.2,460,87.7,460.4,87.3,460.8z"/>
		<path d="M351,846.7C350.9,846.7,350.9,846.7,351,846.7L351,846.7z"/>
		<path d="M287.1,852.9c-0.4,0.2-0.8,0.3-1.2,0.4c0,0.1,0.1,0.1,0.1,0.2C286.4,853.3,286.8,853.1,287.1,852.9z"/>
		<path d="M430.8,26.4c-0.4-0.1-0.7-0.2-1.1-0.3c-0.2,0-0.3,0-0.5-0.1c0.1,0.1,0.2,0.2,0.3,0.2
			C430,26.3,430.4,26.4,430.8,26.4z"/>
		<path d="M352.9,848.3c-0.4-0.5-0.8-1-1.2-1.5c-0.2,0-0.5,0-0.6,0c0.1,0.1,0.3,0.1,0.4,0.2c0.4,0.5,0.8,1,1.2,1.5
			c1.3,0.8,2.6,1.6,3.9,2.5c0.1,0,0.3,0.1,0.4,0.2c-0.1-0.1-0.2-0.2-0.3-0.3C355.5,850,354.2,849.2,352.9,848.3z"/>
		<path d="M263.2,290.4c0-0.1-0.1-0.1-0.1-0.2c0,0-0.1,0-0.1-0.1L263.2,290.4z"/>
		<path d="M444,893.4c0-0.2,0.1-0.4,0.1-0.6c-0.1,0.2-0.2,0.3-0.3,0.5c-0.9,0.3-1.8,0.7-2.7,1
			c0,0.1-0.1,0.2-0.1,0.2c0.1,0,0.2-0.1,0.3-0.1C442.2,894.1,443.1,893.7,444,893.4z"/>
		<path d="M404.4,512.1c-8.4-17.1-25.9-28.3-45.2-24.9c27.8,13.5,36.7,37.9,40.5,65.6
			C410.1,543.8,410.4,524.2,404.4,512.1z"/>
		<path d="M468.1,616.1c-1.3,0.8-2.4,1.8-4.3,3.4c4.3-0.7,8.3-0.9,12.3-0.7v-6.3
			C473.3,613.4,470.6,614.6,468.1,616.1z"/>
		<path d="M354.9,320.2c-1.1-7.1-4.3-13.5-10.5-17.8c-3.4-2.4-7-4.4-11.5-3.9c15.3,23.5,9,46.9,0.7,71.4
			c5.7-2.3,9.3-5.5,12.2-9.6C354.4,348.2,357.2,334.7,354.9,320.2z"/>
		<path d="M367.7,453.7c-0.2,2.2-0.6,4.3-0.9,7.2c14-9.7,15.4-30.8,11-44.6c-5.4-17.2-20.2-28.7-34.2-27.9
			c13.6,9.2,20.4,21.5,23.3,36C369,434,368.9,443.8,367.7,453.7z"/>
		<path d="M376.2,589c30.6,5.9,43.9,26.9,51.4,53.6c6.4-13.5,4.3-32-6.9-43.4C408.5,586.7,393.8,584.2,376.2,589z"
			/>
		<path d="M334.7,236.6c-1.8-9.1-8-15.6-17.5-17.5c8.5,11.4,7.6,23.7,4,36.1c-3.2,11-8.8,20.8-16.7,29.9
			c2.6-0.9,5.2-1.6,7.7-2.8C327.7,274.5,337.9,253.7,334.7,236.6z"/>
		<path d="M394.2,212.9c4.3-3.9,7.1-8.7,9.9-13.8c3.9-7.1,4.6-13.7,3-21.4c-1.6-7.6-6.4-11.4-13.8-14.1
			c0.7,2.2,1.1,3.5,1.5,4.9c1.9,7.8,2.8,15.7-0.6,23.2c-2.2,4.8-5.4,9.2-7.8,13.9c-2.5,4.9-6,8.7-10.5,11.8c-1.7,1.2-3.3,2.6-5,3.9
			c0.1,0.4,0.3,0.9,0.4,1.3C379.4,220.7,387.6,218.9,394.2,212.9z"/>
		<path d="M403.8,301.3c2.4-1.1,5.1-1.8,7.2-3.2c12.6-8.6,19.2-20.7,18.7-35.8c-0.3-9.4-3.7-17.8-13.8-22.6
			C420.3,261.9,416.1,282.1,403.8,301.3z"/>
		<path d="M456.2,513.4c7.2,1.8,13.8,4.6,19.8,8.5v-9.6C469.8,510.9,463.2,511.3,456.2,513.4z"/>
		<path d="M433.4,323.3c4.9,10.7,8.3,21.7,9.4,33.2c1.1,11.5,0.2,22.9-3.5,34c12-9.8,14.8-22.9,13.2-37.2
			C451,340.6,446.3,329.2,433.4,323.3z"/>
		<path d="M443.7,415.4c21,14.9,27.5,37.1,31.6,61.4c0.3-0.5,0.5-1,0.7-1.6v-35.3
			C470.1,426,457.8,415.5,443.7,415.4z"/>
		<path d="M476,439.9v35.3C481.4,463.6,480.7,450.7,476,439.9z"/>
		<path d="M464.9,121.5c-1.7,20.1-13.8,32.1-31.3,41.6c5.2,0,9,0.5,12.6-0.1c11.4-1.8,20.3-7.4,25.5-18
			C476.1,136.1,473.6,127.7,464.9,121.5z"/>
		<path d="M463.9,240.8c4.2-0.2,8.4-1,12.2-2.4v-7.5C472.6,234.5,468.5,237.8,463.9,240.8z"/>
		<path d="M328.7,275.8c-0.1,0.1-0.1,0.2-0.1,0.2c0.2-0.1,0.3-0.2,0.5-0.3C328.9,275.7,328.7,275.7,328.7,275.8z"/>
		<path d="M328.5,276.3c0-0.1,0-0.2,0.1-0.3c-0.1,0-0.1,0.1-0.2,0.1l0,0v0L328.5,276.3z"/>
		<polygon points="328.4,276.1 328.4,276.1 328.5,276.3 		"/>
		<path d="M292.9,484.6c2.9,7.1,5.7,14.3,7.1,21.8c1.4,7.4,0.8,15.2-1.6,22.7c6.5-5.9,9.6-13.3,10.5-21.8
			c0.8-8.2-2.6-15.1-6-22.4c-4.8-10.3-13.7-14-22.8-18c-0.6-0.3-1.5,0.3-2.3,0.4c-0.2,0.5-0.5,1-0.7,1.5
			C282.9,473.6,290,477.4,292.9,484.6z"/>
		<path d="M275.2,467.5c-0.3-0.2-0.5-0.4-0.8-0.6c0,0-0.2,0.3-0.4,0.4c0.3,0.2,0.5,0.4,0.8,0.6
			C274.8,468,275.1,467.7,275.2,467.5z"/>
		<path d="M272.5,406.2c0.4,11.4-1.4,22.4-6.6,33c0.9-0.1,1.4-0.1,1.6-0.3c15.1-12.5,19.7-40.3,9.3-56.9
			c-4.9-7.9-12.1-12.1-22.5-13.2C268,378.4,272,391.4,272.5,406.2z"/>
		<path d="M284.6,563.1c27.4,8.5,46.1,35.7,43,60.7c12.2-10.8,9-29.4,1.8-41.6C321.5,568.8,301.3,555.9,284.6,563.1
			z"/>
		<path d="M392.9,687.8c-0.1,0-0.3,0-0.4,0l0.1,0.2C392.7,687.9,392.8,687.8,392.9,687.8z"/>
		<path d="M442.5,706.3c5.4,5,10.8,11,12,19.1c0.2,1,0.8,1.9,1.3,3.1c4.9-10.6,2.7-23.3-5.4-32.2
			c-5.4-6-12.2-10.1-19.8-12.4c-13.1-4-25.9-3.9-37.8,3.9c2.2,0.1,4.4,0.2,6.6,0.2C416.5,687.7,430.5,695.2,442.5,706.3z"/>
		<polygon points="392.5,687.8 392.4,688.2 392.6,687.9 		"/>
		<path d="M305.5,654.2c22.3,0.4,48.9,25.8,54,53.9c7.2-13,4.6-31.4-8.8-44.5C337.7,650.9,316.9,647.1,305.5,654.2z
			"/>
		<path d="M243,284.5c10.8,8.7,13.4,20,13.1,32.4c-0.3,12.4-5,23.3-13.5,33.9c7.8-2.1,12.6-6.1,16.8-11
			c10.6-12.3,15.4-36.1,3.6-49c-0.1-0.1-0.1-0.3-0.1-0.5C256.9,287.3,251,283.7,243,284.5z"/>
		<path d="M262.9,290.3c0.1,0,0.2,0.1,0.2,0.1l-0.2-0.2C262.9,290.2,262.9,290.3,262.9,290.3z"/>
		<path d="M199.5,533.4c23.7,15.2,33.2,39,38.8,65.2c8.4-6.2,10.4-27,1.5-43C230.9,539.5,214,529.3,199.5,533.4z"/>
		<path d="M216.3,464.5c-1.3-6.6-2.4-13.3-6.7-19c-6.3-8.4-15.2-11.8-25-8.7c5.7,2,8.9,5.7,11.1,10.5
			c1.3,2.9,2.4,5.9,3.5,8.9c3.4,9.4,6.9,18.7,6.4,29.1c-0.4,8-0.1,16-0.1,25c2.2-2.5,4-4.5,5.6-6.6c1.5-2,2.9-4.2,4.3-6.3
			c0-0.2,0.1-0.3,0.1-0.5c0.4-1.3,0.9-2.6,1.3-3.9c0.4-2.1,0.9-4.3,1.3-6.4c0,0,0.1,0,0.1,0c-0.3-1.8-0.8-3.6-0.9-5.4
			C217,475.5,217.3,469.9,216.3,464.5z"/>
		<path d="M216.8,492.9c-0.4,1.3-0.9,2.6-1.3,3.9c0,0.2-0.1,0.3-0.1,0.5c0.1-0.1,0.2-0.3,0.3-0.4
			c0.4-1.3,0.9-2.6,1.3-3.8c0.4-2.1,0.9-4.3,1.3-6.4c0-0.1,0-0.1,0-0.2c0,0-0.1,0-0.1,0C217.7,488.6,217.2,490.8,216.8,492.9z"/>
		<path d="M237.9,620.7c-6.4-0.9-12.1,1-17.6,5c21.6,2.5,46,24.3,52.4,53.9c4.9-6.7,5.4-14.1,3.8-21.5
			C272.6,639.4,255.9,623.1,237.9,620.7z"/>
		<path d="M474.4,770.2c-10-7.1-21.4-9.8-33.5-10.3c-6.1-0.3-11.7,1.6-17.3,3.8c-2,0.8-4.1,1.9-4.8,4.2
			c5.8,0.5,11.4,0.3,16.7,1.4c12.1,2.6,22.6,8.5,32.1,16.3c3.4,2.8,6.3,6.1,8.4,10.2v-24.3C475.5,771.1,475,770.6,474.4,770.2z"/>
		<path d="M177.1,350.3c6.6,5.1,9.1,8.5,11.1,16.5c1,4.1,1.7,8.4,2,12.6c0.9,13.5-0.2,26.7-6.7,40
			c7.3-2.9,11.1-7.9,13.9-13.7c4.7-9.6,6.5-19.9,6-30.5c-0.3-6.8-1.4-13.6-5.5-19.5C192.8,348.3,185.5,346.4,177.1,350.3z"/>
		<path d="M383.8,771.1c2,3.4,3.1,7.4,4.8,11.7c2.8-1.8,4.4-4.3,5-7.3c2.2-9.8-0.7-20.4-9.4-26.6
			c-2.1-1.5-4.3-2.8-6.3-4.3c-12.9-9.3-27-10.8-41.9-6c-2,0.6-4.2,1.5-5.7,4.1c8.2-0.5,15.5,1.2,22.4,4.2
			C365.1,752.2,376.7,758.9,383.8,771.1z"/>
		<path d="M252,240.7c2.2-6.6,3-13.4,1.1-20.2c-2.8-10.4-11.8-15-22.9-11.3c8.8,6.7,9.6,15.9,8.6,25.6
			c-0.3,3.4-1.2,6.7-2.1,10c-2.8,10.2-8.4,18.9-14.5,27.3c1.7-0.4,3.6-0.6,5-1.5C238.9,263.6,247.6,253.8,252,240.7z"/>
		<path d="M222.2,272.1c-0.1,0-0.2,0-0.3,0.1l0.2,0.2C222.1,272.3,222.1,272.2,222.2,272.1z"/>
		<path d="M221.9,272.2c0,0.1,0,0.3,0,0.4c0.1-0.1,0.1-0.2,0.2-0.3L221.9,272.2z"/>
		<path d="M151,506.6c-5.6-6.2-11.8-7-20.1-2.8c8,2.2,12.3,7.5,15.7,13.5c9,15.7,14,32.4,11.7,51.2
			c3.8-2.9,5-6.7,5.9-10.6c2.9-12.9,1.6-25.6-4-37.5C157.9,515.4,154.7,510.6,151,506.6z"/>
		<path d="M379.9,104c-2.2-0.7-4.5-1.1-8.2-2c4.8,6.3,5.6,11.8,3.1,17.6c-1.3,3.1-2.9,6.2-4.8,9
			c-4.5,6.6-10.5,11.8-17,16.3c-1.1,0.8-2.1,1.7-4.2,3.3c8.6,0,15-2.5,21.2-6c7.4-4.2,13.6-9.6,17.9-17
			C393.4,115.7,390.3,107.6,379.9,104z"/>
		<path d="M314,155.5c-4-1.1-8.3-1.1-13.8-1.8c9.2,13.9,7,32-15.1,51.1c3.4-0.6,5.9-0.7,8.3-1.4
			c9.1-2.8,16.2-8.4,22.1-15.7c3.9-4.9,7.2-10.1,8.2-16.4C324.8,163.2,321.7,157.6,314,155.5z"/>
		<path d="M300.8,759.3c0.7-0.6,1.4-1,1.9-1.6c6.1-7.7,6.6-16.2,2.2-24.6c-6.8-13.1-17.9-20.9-32-24.5
			c-7.2-1.9-14.3-1.8-22.1,1.7C270.7,719.4,289.1,737.6,300.8,759.3z"/>
		<path d="M179.4,599.9c-3.8-4.6-8.8-8.2-14.7-9.9c-4.8-1.4-9.6-1.6-13.8,1.8c19,17,31.1,37.8,37.1,62.8
			c7.1-5.9,8.7-13.5,7.7-22c-0.4-3.8-1.4-7.5-2.1-11.3l0.2,0.2c-1.2-2-2.2-4.1-3.5-6C186.8,610.3,183.4,604.8,179.4,599.9z"/>
		<path d="M410.5,98.1c11,2,21.7,1.6,31.9-2.8c4.4-1.9,8.3-4.3,11-8.3c3.3-5,3-11.2-1.2-15.2
			c-4.2-4.1-9.4-6.3-15.4-7c2.9,10.9,1.3,16.9-6.2,23.7c-4.5,4.1-9.8,6.8-15.6,8.4C413.5,97.2,412,97.7,410.5,98.1z"/>
		<path d="M139.9,418.7c-0.1,0-0.1-0.1-0.2-0.1c-4.1-0.4-8.2-0.8-12.3-1.2c-0.1,0-0.2,0.1-0.3,0.1
			c-0.1,0-0.2,0-0.3,0c-2.1,1.8-4.3,3.6-7.2,6.1c7.4,2.2,10.9,7.3,13.6,12.9c1.3,2.7,2.2,5.6,3,8.4c3.3,12.6,3.8,25.2,0.2,38.8
			c2.4-1.8,4.1-3.1,5.7-4.4c0.1-0.1,0.1-0.3,0.2-0.4c0.9-1.3,1.7-2.5,2.6-3.8c0.4-0.9,0.9-1.8,1.3-2.6c0.4-1.3,0.8-2.5,1.3-3.8
			c0.4-1.3,0.9-2.6,1.3-3.9c0.4-2.1,0.8-4.3,1.3-6.4c0.1-0.1,0.1-0.3,0.2-0.4c0-6.9,0-13.9,0-20.8c-0.1-0.1-0.1-0.2-0.2-0.4
			c-0.4-1.7-0.9-3.5-1.3-5.2c0-0.1,0-0.3-0.1-0.4c-2.9-4.1-5.8-8.2-8.6-12.3C140.1,418.7,140,418.7,139.9,418.7z"/>
		<path d="M140.1,418.8c0-0.1-0.1-0.1-0.1-0.2c-0.1,0-0.2,0-0.2,0c0.1,0,0.1,0.1,0.2,0.1
			C140,418.7,140.1,418.7,140.1,418.8z"/>
		<path d="M127.4,417.3c-0.1,0-0.2,0-0.4,0c-0.1,0.1-0.2,0.1-0.2,0.2c0.1,0,0.2,0,0.3,0
			C127.2,417.4,127.3,417.3,127.4,417.3z"/>
		<path d="M148.8,464.7c-0.4,1.3-0.9,2.6-1.3,3.9c-0.4,1.3-0.8,2.5-1.3,3.8c-0.4,0.9-0.9,1.8-1.3,2.6
			c-0.9,1.3-1.7,2.5-2.6,3.8c-0.1,0.2-0.1,0.3-0.2,0.4c0.1-0.1,0.3-0.2,0.4-0.3c0.9-1.3,1.7-2.6,2.6-3.8c0.4-0.9,0.9-1.7,1.3-2.6
			c0.4-1.3,0.8-2.6,1.3-3.9c0.4-1.3,0.9-2.6,1.3-3.8c0.4-2.1,0.9-4.3,1.3-6.4c0-0.2,0-0.4,0-0.6c-0.1,0.1-0.1,0.3-0.2,0.4
			C149.7,460.4,149.3,462.5,148.8,464.7z"/>
		<path d="M150.1,436.7c0.1,0.1,0.1,0.2,0.2,0.4c0-0.2,0-0.4,0-0.5c-0.4-1.7-0.9-3.4-1.3-5.1
			c-0.1-0.1-0.2-0.2-0.2-0.3c0,0.1,0,0.3,0.1,0.4C149.2,433.2,149.7,435,150.1,436.7z"/>
		<path d="M447.1,831.1c-3.9,1.3-7.7,3.3-9.8,7.4c13.8-1.5,26.6,0.8,38.8,5.8v-16.3
			C466.5,826.7,456.8,827.9,447.1,831.1z"/>
		<path d="M138.5,360c-0.2-3.4-0.6-6.7-1-10.1c-0.1-0.2-0.1-0.3-0.2-0.5c0-0.2-0.1-0.3-0.1-0.4
			c-1.1-1.6-2.1-3.2-3.2-4.8c-4.3-6.2-10.1-7.6-17-3.8c4.7,4.8,6.6,10.9,7.4,17.3c1.2,9.5,1.2,19.2-0.7,28.6
			c-1.3,6.4-3.1,12.7-4.7,19.5c5.4-1,7.9-5,10.6-8.6c1.3-1.7,2.5-3.4,3.8-5.1c0-0.1,0.1-0.3,0.1-0.4c0.1-0.1,0.1-0.1,0.2-0.2
			c0.5-2.1,0.8-4.3,1.4-6.4C137.6,376.9,139,368.5,138.5,360z"/>
		<path d="M133.3,392.1c0.1-0.1,0.2-0.2,0.2-0.3c0-0.1,0-0.2,0.1-0.3c-0.1,0.1-0.1,0.1-0.2,0.2
			C133.4,391.8,133.4,391.9,133.3,392.1z"/>
		<path d="M137.5,349.9c0-0.2,0-0.4-0.1-0.6c-0.1-0.1-0.2-0.2-0.2-0.4c0,0.2,0.1,0.3,0.1,0.4
			C137.4,349.6,137.4,349.7,137.5,349.9z"/>
		<path d="M184.5,673.7c-3.1,0.5-5.6,1.7-6.7,4.5c4,2.9,8,5.5,11.6,8.5c8.3,7.1,15.5,15.2,21.8,24.2
			c4,5.8,7.6,11.9,9.1,18.9c0.2,1.1,1.1,2.1,1.7,3.1c0,0,0.1,0,0.1,0c0-0.6-0.1-1.3,0.2-1.7c7-8.8,5.7-18.2,2.1-27.7
			c-0.7-2-1.5-4-2.2-6c-0.1-0.1-0.2-0.2-0.3-0.3c-1.3-2.1-2.5-4.3-3.8-6.4c-0.4-0.4-0.9-0.9-1.3-1.3c-0.4-0.4-0.9-0.8-1.3-1.3
			c-0.4-0.4-0.9-0.8-1.3-1.3c-0.1-0.2-0.2-0.3-0.2-0.5c-3-2.4-6-4.9-9.1-7.1C198.8,674.7,192.2,672.4,184.5,673.7z"/>
		<path d="M215.5,688.1c0.4,0.4,0.9,0.8,1.3,1.3c0.4,0.4,0.9,0.9,1.3,1.3c1.3,2.1,2.5,4.3,3.8,6.4
			c0.1,0.1,0.2,0.2,0.3,0.3c-0.1-0.2-0.1-0.3-0.2-0.5c-1.3-2.1-2.6-4.3-3.8-6.4c-0.4-0.4-0.9-0.9-1.3-1.3c-0.4-0.4-0.9-0.8-1.3-1.3
			c-0.4-0.4-0.9-0.9-1.3-1.3c-0.1-0.1-0.3-0.2-0.4-0.3c0.1,0.2,0.2,0.3,0.2,0.5C214.7,687.2,215.1,687.6,215.5,688.1z"/>
		<path d="M222.1,733c0,0,0-0.1,0-0.1c0,0-0.1,0-0.1,0C222,732.9,222.1,732.9,222.1,733z"/>
		<path d="M474.1,55.3c-2.7,1.2-5.7,1.7-8.6,2.5c3.6,0.6,7.1,1.1,10.6,1.3v-4.7C475.4,54.7,474.8,55,474.1,55.3z"/>
		<polygon points="386.2,870 385.9,870.4 386.3,870.2 386.3,870.2 386.3,870.2 		"/>
		<polygon points="386.3,870.2 386.3,870.2 386.2,870 		"/>
		<path d="M182.5,736.2c-5.6-7.5-12.7-13.2-20.8-17.6c-3.5-1.9-7.4-3.4-11.3-4.2c-6.2-1.3-9.2,1.8-8.9,8.6
			c1.8,0.3,3.8,0.3,5.5,0.9c2,0.6,4,1.5,5.8,2.7c14.5,9.6,26,21.8,33.4,37.6c0.6,1.2,1.5,2.2,2.4,3.3c0.1,0,0.1,0,0.2,0
			c3.7-9.4,1.8-18.1-3.2-26.5c-0.5-0.8-0.5-1.8-0.6-2.7c-0.1-0.1-0.1-0.1-0.2-0.2c0-0.1,0-0.1,0-0.2
			C184,737.3,183.1,736.9,182.5,736.2z"/>
		<path d="M184.9,738.2c0-0.1,0-0.2,0-0.3c0,0-0.1-0.1-0.1-0.1c0,0.1,0,0.1,0,0.2
			C184.8,738.1,184.9,738.2,184.9,738.2z"/>
		<path d="M188.7,767.6c0-0.1,0-0.1,0.1-0.2c-0.1,0-0.1,0-0.2,0C188.7,767.5,188.7,767.6,188.7,767.6z"/>
		<path d="M471.7,884.3c-4.2,1.5-8,3.6-11.5,8.5c3-1,4.7-1.7,6.5-2.2c3.2-0.8,6.3-1.2,9.3-1.3v-6.4
			C474.6,883.3,473.1,883.8,471.7,884.3z"/>
		<path d="M246.5,101.9c-0.1,0-0.1-0.1-0.2-0.1c0,0,0,0.1,0,0.1C246.5,101.9,246.5,101.9,246.5,101.9z"/>
		<path d="M214.5,110.9c8.6,2.9,11.7,8.7,8.7,16.2c-1.1,2.7-2.9,5.2-4.8,7.4c-2.3,2.5-5.1,4.4-7.7,6.5
			c0.3,0.1,0.7,0.4,1.1,0.3c13.2-4.5,24.8-11,32.4-23.3c3.2-5.2,4.7-10.3,2.3-16.1C234,98.1,224.4,104,214.5,110.9z"/>
		<path d="M246.4,101.7C246.4,101.8,246.4,101.8,246.4,101.7c0.1,0.1,0.1,0.1,0.2,0.2L246.4,101.7z"/>
		<path d="M155.1,198.6c19.8-6.2,37-34.1,30.2-49.6c-10.7,3.2-20.4,7.9-27.6,17.5c6.4,1.5,7.7,2.9,7.9,8.2
			c0.1,2.1-0.2,4.3-0.7,6.3C163.6,187.9,159.9,193.6,155.1,198.6z"/>
	</g>
	<g>
		<g>
			<path d="M493.8,4.1h26.8v129.5h-26.8V4.1z"/>
			<path d="M549.4,23.7h-8.8V4.1h25.9v17.6l-14.9,24.2h-12.4L549.4,23.7z"/>
			<path d="M586.5,4.1h38.3l17.1,92.7h0.5l17.1-92.7h38.3v129.5h-25.4v-98h-0.5l-19.5,98h-22.4l-19.5-98h-0.5v98
				h-23.4V4.1z"/>
		</g>
		<g>
			<path d="M493.8,324.9v-24.8c3.6,0.7,7.3,1,10.9,1c13.3,0,19.6-5.2,19.6-16.6V151.3h33.2v132.4
				c0,28.5-15.7,42.1-48.4,42.1C503.2,325.9,498.7,325.6,493.8,324.9z"/>
			<path d="M580.3,283.7V151.3h33.2v134.4c0,12.4,6.3,16.9,16.9,16.9c10.6,0,16.9-4.5,16.9-16.9V151.3h32v132.4
				c0,27.8-16.9,43.6-49.6,43.6S580.3,311.5,580.3,283.7z"/>
			<path d="M697.2,283.7v-9.9h31.4v11.9c0,12.4,6.6,16.9,17.2,16.9c10.6,0,17.2-4.5,17.2-17.4
				c0-14.4-6.6-23.6-28.4-39.2c-27.8-20.1-36.9-34.2-36.9-54.1c0-27.3,17.2-43.1,49.6-43.1c32.3,0,48.4,15.9,48.4,43.6v7.2h-31.4
				v-8.9c0-12.4-6-17.1-16.6-17.1c-10.6,0-16.6,4.7-16.6,16.6c0,12.6,7,21.8,28.7,37.4c27.8,20.1,36.6,34,36.6,55.5
				c0,28.3-17.5,44.1-50.2,44.1S697.2,311.5,697.2,283.7z"/>
			<path d="M841.4,176.1h-34.8v-24.8h102.8v24.8h-34.8v148.8h-33.2V176.1z"/>
		</g>
		<g>
			<path d="M493.8,343.7h23.4v56.2h25.1v-56.2h23.4v138.2h-23.4v-62.2h-25.1v62.2h-23.4V343.7z"/>
			<path d="M583.1,343.7h63.8v19.7h-40.4v36.5h32.1v19.7h-32.1v42.4h40.4v19.7h-63.8V343.7z"/>
			<path d="M660.3,343.7h34.7c24.2,0,34.6,10.5,34.6,31.8v8.5c0,14.2-4.9,23.3-15.3,27.2v0.4
				c11.7,3.4,15.5,13.6,15.5,29.2v24.3c0,6.7,0.2,11.6,2.6,16.8h-23.8c-1.3-3.6-2.1-5.7-2.1-17v-25.3c0-12.8-4-17-14.7-17h-8.1v59.2
				h-23.4V343.7z M692.2,402.9c8.7,0,14-3.6,14-14.6v-10.7c0-9.9-3.6-14.2-11.9-14.2h-10.6v39.5H692.2z"/>
			<path d="M745.9,343.7h63.8v19.7h-40.4v36.5h32.1v19.7h-32.1v42.4h40.4v19.7h-63.8V343.7z"/>
			<path d="M875.4,363.4h-24.4v-19.7h72.3v19.7h-24.4v118.4h-23.4V363.4z"/>
			<path d="M931.9,449.1v-72.6c0-22.1,12.5-34.7,35.5-34.7c23,0,35.5,12.6,35.5,34.7v72.6
				c0,22.1-12.5,34.7-35.5,34.7C944.5,483.8,931.9,471.2,931.9,449.1z M979.5,450.4v-75.4c0-9.9-4.7-13.6-12.1-13.6
				c-7.4,0-12.1,3.7-12.1,13.6v75.4c0,9.9,4.7,13.6,12.1,13.6C974.9,464.1,979.5,460.3,979.5,450.4z"/>
		</g>
		<g>
			<path d="M493.8,501.1h19v45.4h20.4v-45.4h19v111.4h-19v-50.1h-20.4v50.1h-19V501.1z"/>
			<path d="M566.6,501.1h19v111.4h-19V501.1z"/>
			<path d="M614.7,517h-19.9v-15.9h58.9V517h-19.9v95.5h-19V517z"/>
			<path d="M705.4,517h-19.9v-15.9h58.9V517h-19.9v95.5h-19V517z"/>
			<path d="M753.6,501.1h28.2c19.7,0,28.2,8.4,28.2,25.6v6.8c0,11.5-4,18.8-12.5,22v0.3c9.5,2.7,12.6,11,12.6,23.6
				V599c0,5.4,0.2,9.4,2.1,13.5h-19.4c-1-2.9-1.7-4.6-1.7-13.7v-20.4c0-10.3-3.3-13.7-11.9-13.7h-6.6v47.8h-19V501.1z M779.6,548.8
				c7.1,0,11.4-2.9,11.4-11.8v-8.6c0-8-2.9-11.5-9.7-11.5h-8.7v31.8H779.6z"/>
			<path d="M823.4,501.1h52V517h-32.9v29.5h26.1v15.9h-26.1v34.2h32.9v15.9h-52V501.1z"/>
			<path d="M886.2,501.1h52V517h-32.9v29.5h26.1v15.9h-26.1v34.2h32.9v15.9h-52V501.1z"/>
			<path d="M946.1,586.1v-6.4h18v7.6c0,8,3.8,10.8,9.9,10.8s9.9-2.9,9.9-11.1c0-9.2-3.8-15.1-16.3-25.2
				c-15.9-12.9-21.1-22-21.1-34.7c0-17.5,9.9-27.7,28.4-27.7c18.5,0,27.7,10.2,27.7,28v4.6h-18v-5.7c0-8-3.5-11-9.5-11
				c-6.1,0-9.5,3-9.5,10.7c0,8.1,4,14,16.5,24c15.9,12.9,21,21.8,21,35.7c0,18.1-10,28.3-28.7,28.3
				C955.5,614.1,946.1,603.9,946.1,586.1z"/>
		</g>
		<g>
			<path d="M533.7,632.8h52.1l39.8,187h-38.4l-7-37.1v0.5h-43.7l-7,36.6h-35.7L533.7,632.8z M575.6,757.8l-17.1-92.4
				h-0.7L541,757.8H575.6z"/>
			<path d="M644.1,632.8h48.2l37.4,111.9h0.7V632.8h34.3v187h-39.5l-46.1-136.5h-0.7v136.5h-34.3V632.8z"/>
			<path d="M793.4,632.8h58.7c38.4,0,57.3,16.3,57.3,46.2v94.6c0,29.9-18.9,46.2-57.3,46.2h-58.7V632.8z
				 M851.4,793.1c12.2,0,19.6-4.8,19.6-18.2v-97.2c0-13.4-7.3-18.2-19.6-18.2h-19.6v133.6H851.4z"/>
		</g>
		<g>
			<path d="M493.8,920v-56.8c0-16.3,9.7-26,28.2-26c18.5,0,28.2,9.7,28.2,26v11.2h-18.1v-12.2c0-6.9-3.8-9.8-9.6-9.8
				c-5.7,0-9.6,2.9-9.6,9.8v59.1c0,7,3.8,9.7,9.6,9.7c5.7,0,9.6-2.7,9.6-9.7v-16.2h18.1v15c0,16.3-9.7,26-28.2,26
				C503.6,946,493.8,936.3,493.8,920z"/>
			<path d="M561,919.4v-80.7h19.1v81.9c0,7.6,3.7,10.3,9.7,10.3c6.1,0,9.7-2.7,9.7-10.3v-81.9h18.5v80.7
				c0,16.9-9.7,26.6-28.5,26.6C570.8,946,561,936.3,561,919.4z"/>
			<path d="M631.7,838.7h28.4c19.8,0,28.4,8,28.4,24.3v6.5c0,10.9-4,17.8-12.5,20.8v0.3c9.6,2.6,12.7,10.4,12.7,22.4
				v18.6c0,5.1,0.2,8.9,2.1,12.8h-19.5c-1-2.7-1.7-4.4-1.7-13v-19.3c0-9.8-3.3-13-12-13h-6.6v45.3h-19.1V838.7z M657.8,884.1
				c7.1,0,11.5-2.7,11.5-11.2v-8.2c0-7.6-3-10.9-9.7-10.9h-8.7v30.2H657.8z"/>
			<path d="M698.5,919.4v-6h18.1v7.3c0,7.6,3.8,10.3,9.9,10.3c6.1,0,9.9-2.7,9.9-10.6c0-8.8-3.8-14.4-16.4-23.9
				c-16-12.2-21.2-20.8-21.2-32.9c0-16.6,9.9-26.3,28.5-26.3c18.6,0,27.9,9.7,27.9,26.6v4.4h-18.1v-5.4c0-7.6-3.5-10.4-9.6-10.4
				c-6.1,0-9.6,2.9-9.6,10.1c0,7.7,4,13.3,16.5,22.8c16,12.2,21.1,20.7,21.1,33.8c0,17.2-10.1,26.9-28.9,26.9
				S698.5,936.3,698.5,919.4z"/>
			<path d="M766.6,838.7h52.2v15.1h-33.1v27.9H812v15.1h-26.3v32.5h33.1v15.1h-52.2V838.7z"/>
		</g>
	</g>
</g>
</svg>


