<?xml version="1.0" encoding="utf-8"?>
<!-- Generator: Adobe Illustrator 19.0.0, SVG Export Plug-In . SVG Version: 6.00 Build 0)  -->
<svg version="1.1" xmlns="http://www.w3.org/2000/svg" xmlns:xlink="http://www.w3.org/1999/xlink" x="0px" y="0px"
	 viewBox="0 0 1008 1016" style="enable-background:new 0 0 1008 1016;" xml:space="preserve" width="500" height="500">
<g>
	<g>
		<path d="M381.5,315.3c-3.3,0.7-6.7,1.2-10.3,1.6c-2.7,0.3-5.1,0.4-7.2,0.4c-0.8,0-2-0.1-3.7-0.1
			c-1.7-0.1-2.7-0.7-3-1.6c-2.9-12.6-4.3-25.5-4.3-38.8c0-0.8,0-4.9,0.1-12.4c0.1-7.4,1.7-17.8,4.7-31.1c0.4-1,1.5-1.7,3.4-1.9
			c0.8-0.1,1.6-0.2,2.5-0.2c1.2,0,2.8,0.2,4.7,0.4c1.9,0.3,3.7,0.9,5.3,1.8c1.5,0.8,2.3,1.7,2.3,2.8c0,0.2-0.1,0.3-0.1,0.4
			c-3.2,13.8-4.9,25.9-5.1,36v2.1c0,9.5,0.9,18.8,2.9,28c0.4,0,0.9,0.1,1.6,0.1c1.1,0,2.7-0.1,4.7-0.2c2.1-0.1,4-0.3,5.9-0.6h0.4
			c1.7,0,2.9,0.7,3.7,2.2c0.7,1.3,1.1,2.7,1.1,4.2c0,0.3-0.1,1.1-0.2,2.3c-0.2,1.2-0.9,2.1-2.4,2.9
			C387.1,314,384.7,314.6,381.5,315.3z"/>
		<path d="M421.3,317.9c-6.3,0-11.8-1.9-16.5-5.6c-4.7-3.8-8.2-8.9-10.7-15.5c-2.5-6.6-3.8-13.7-3.8-21.2v-0.7
			c0-7.3,1.2-14.3,3.6-20.9s6-12.2,10.9-16.5c4.9-4.3,11.2-6.5,18.7-6.7c6.6,0.1,12,2.2,16.4,6.2c4.3,4.1,7.5,9.3,9.7,15.7
			c2.2,6.3,3.2,13,3.2,20.1c0,0.2,0,2.1,0,5.7c0,3.7-1.1,8.8-3.3,15.4c-2.2,6.6-5.4,12-9.8,16.4c-4.4,4.4-9.8,6.8-16.3,7.4
			C422.6,317.9,421.9,317.9,421.3,317.9z M414.9,253.4c-2.5,4.3-4.1,9.4-4.7,15.4c-0.2,2.2-0.3,4.4-0.3,6.6c0,3.7,0.4,7.9,1.3,12.6
			c0.9,4.7,2.7,8.8,5.4,12.3c2.3,3,5.1,4.5,8.5,4.5c0.6,0,1.2-0.1,1.9-0.2c3.5-0.8,6.3-3.3,8.4-7.5c2.2-4.2,3.6-9.2,4.3-15
			c0.4-2.8,0.6-5.7,0.6-8.4c0-2.9-0.3-6.5-0.9-10.7c-0.6-4.2-2.1-8.1-4.4-11.7c-2.3-3.4-5.3-5.1-8.9-5.1h-0.7
			C420.9,246.7,417.4,249.1,414.9,253.4z"/>
		<path d="M488.7,317.8c0,1.1-0.9,1.9-2.9,2.6c-1.9,0.6-4.1,0.9-6.6,1h-0.9c-2.1,0-4.1-0.3-5.8-0.8
			c-1.8-0.5-2.7-1.4-2.7-2.8V245l-16.8,0.1c-1.1,0-1.9-1-2.6-3s-0.9-3.3-1-3.9c-0.1-0.6,0.2-1.8,0.7-3.7c0.5-1.8,1.4-2.8,2.7-2.8
			l50.3-0.2c1.1,0,1.9,1,2.6,2.9c0.6,2,1,3.3,1.1,3.8c0.1,0.6-0.2,1.8-0.7,3.7c-0.5,1.9-1.4,2.9-2.7,2.9l-14.7,0.1V317.8z"/>
		<path d="M568.8,317.9c-6.3,0-11.8-1.9-16.5-5.6c-4.7-3.8-8.2-8.9-10.7-15.5c-2.5-6.6-3.8-13.7-3.8-21.2v-0.7
			c0-7.3,1.2-14.3,3.6-20.9c2.4-6.7,6-12.2,10.9-16.5c4.9-4.3,11.2-6.5,18.7-6.7c6.5,0.1,12,2.2,16.4,6.2c4.3,4.1,7.5,9.3,9.7,15.7
			c2.2,6.3,3.2,13,3.2,20.1c0,0.2,0,2.1,0,5.7c0,3.7-1.1,8.8-3.3,15.4c-2.2,6.6-5.4,12-9.8,16.4c-4.4,4.4-9.8,6.8-16.3,7.4
			C570.1,317.9,569.5,317.9,568.8,317.9z M562.5,253.4c-2.5,4.3-4.1,9.4-4.7,15.4c-0.2,2.2-0.3,4.4-0.3,6.6c0,3.7,0.4,7.9,1.3,12.6
			c0.9,4.7,2.7,8.8,5.4,12.3c2.3,3,5.1,4.5,8.5,4.5c0.6,0,1.2-0.1,1.9-0.2c3.5-0.8,6.3-3.3,8.4-7.5c2.2-4.2,3.6-9.2,4.3-15
			c0.4-2.8,0.6-5.7,0.6-8.4c0-2.9-0.3-6.5-0.9-10.7c-0.6-4.2-2.1-8.1-4.4-11.7c-2.3-3.4-5.3-5.1-8.9-5.1h-0.7
			C568.4,246.7,565,249.1,562.5,253.4z"/>
		<path d="M628.8,314.9c0,1.8-1.3,3.1-4,4.1c-2.2,0.8-4.6,1.3-7,1.3c-0.4,0-1.5-0.1-3.1-0.2
			c-1.7-0.1-2.8-1.1-3.4-2.8c-3-15.7-4.4-28.9-4.4-39.5c0-0.8,0.1-4.1,0.2-10c0.2-5.9,1.5-12,4.1-18.4c2.6-6.3,5.8-10.8,9.8-13.4
			c3.8-2.6,7.7-3.9,11.8-3.9h0.3c5.8,0,10.3,1.2,13.5,3.7c3.2,2.5,5.4,5.8,6.7,9.8c1.1,3.6,1.7,7.4,1.7,11.5c0,0.5,0,2-0.1,4.6
			c-0.1,2.6-0.6,6.1-1.4,10.4c-0.4,1.4-1.6,2.2-3.6,2.4c-0.4,0.1-0.8,0.1-1.2,0.1c-1.5,0-2.9-0.3-4.3-0.9c-1.5-0.7-2.3-1.7-2.3-3.1
			c0-0.2,0-0.4,0.1-0.7c0.6-2.7,1.1-5.9,1.2-9.7c0.1-0.7,0.1-1.3,0.1-2c0-2.9-0.4-5.8-1.4-8.4c-0.9-2.6-2.8-3.9-5.8-4
			c-2.9,0.2-5.2,1.6-6.9,4.3c-1.7,2.7-3,6.2-3.8,10.3c-0.8,4.2-1.2,8.7-1.3,13.3v0.9c0,4.3,0.2,8.4,0.7,12.2l18.4-1.1
			c1.4,0.1,2.3,1,2.9,2.8c0.3,1.1,0.5,2.2,0.5,3.3c0,0.7-0.1,1.7-0.4,3c-0.3,1.3-1.1,2.1-2.4,2.3l-17.8,1c0.7,5.4,1.3,9.5,1.9,12.6
			C628.4,312.4,628.7,313.8,628.8,314.9L628.8,314.9z"/>
	</g>
	<g>
		<path d="M142.1,592.3c-8.5-3.1-16.4-7.7-23.4-13.8c-7.1-6.1-10.6-13.4-10.6-21.8c0-17.3,14.9-33.1,44.6-47.6
			c12.9-47.7,32.3-92.8,58.2-135.4c2.9-5.1,6.8-8.9,11.6-11.5c4.9-2.5,9.9-3.8,15-3.8c4.9,0,8.9,1.1,12.1,3.2
			c3.2,2.1,4.8,4.8,4.8,8.1c0,1.8-0.7,3.9-2,6.3c-8.6,15.1-15.8,28.4-21.5,39.9c-5.7,11.5-10.7,23.2-15.1,34.9
			c20.2-2.4,36.6-9.1,49.4-20.1c12.7-11,19.6-24.6,20.5-40.7c0.7-8-0.9-15.6-4.7-22.8c-3.8-7.2-9.4-13-16.8-17.3
			c-7.4-4.3-16.1-6.5-26.1-6.5c-10.9,0-22.7,2.9-35.4,8.6c-12.8,5.8-26.1,14.9-40.1,27.3c-3.8-2.9-5.7-6.5-5.7-11
			c0-4.4,2.2-9.3,6.7-14.5c4.4-5.2,10.4-9.9,18-14.1c25.9-14.4,51.1-21.6,75.5-21.6c14.9,0,27.9,2.8,39.2,8.5
			c11.3,5.7,20,13.9,25.9,24.6c6,10.8,8.5,23.7,7.6,38.7c-0.9,16.2-7.4,30.7-19.5,43.4c-12.1,12.8-27.6,22-46.4,27.8
			c10,1.8,18.7,5.1,26.3,10c20.2-2.9,38.9-4.9,56.2-6c4.2-0.2,7.5,0.4,9.8,2c2.3,1.6,3.5,3.4,3.5,5.7c0,2.2-1.2,4.2-3.7,5.8
			c-2.4,1.7-5.8,2.5-10,2.5c-14.4,0-28.2,0.8-41.2,2.3c9.5,10.9,14.3,23.4,14.3,37.6c0,6.7-0.9,12.6-2.7,18
			c-4,13.1-12,24.2-23.9,33.4c-12,9.2-26.4,16.2-43.2,21c-16.9,4.8-34.7,7.2-53.5,7.2c-11.5,0-22.3-0.8-32.3-2.3
			C157.8,597.4,150.7,595.4,142.1,592.3z M132.3,550.8c0,4.9,3,9.1,9,12.6c1.1-8.9,3-19.5,5.7-31.9c-7.5,5.3-12.1,10.3-13.6,15
			C132.7,548,132.3,549.4,132.3,550.8z M241.4,555.9c15.1-7.4,24.5-17.5,28.3-30.1c0.9-3.5,1.3-6.4,1.3-8.6c0-5.1-1.4-9.9-4.3-14.3
			c-2.9-4.4-7.3-8.1-13.3-11c-16.4,3.5-34.3,8.4-53.5,14.6c-4.7,21.5-8.5,42.5-11.6,62.9C208.6,567.8,226.3,563.3,241.4,555.9z
			 M217.8,485.9c-2.4,0-6.8,0.2-13,0.7l-1,3.3L217.8,485.9z"/>
		<path d="M368.3,451c14.1-13.7,28-20.6,41.7-20.6c10.9,0,20,4,27.3,12.1c7.3,8.1,11,18.6,11,31.4
			c0,1.6-0.2,3.9-0.7,7c3.1-8.9,6.8-16.7,11-23.6c3.3-5.5,7-9.8,11.1-12.6c4.1-2.9,8.1-4.3,12.1-4.3c4.2,0,7.7,1.6,10.3,4.8
			c2.7,3.2,4,7.8,4,13.8c0,6-1.4,12.6-4.3,20c-4.4,11.8-8.1,24.5-11.1,38.2c-3,13.8-4.2,24.2-3.5,31.3c0.4,5.5,1.9,9.6,4.3,12.3
			c2.4,2.7,5.4,4,9,4c5.1,0,10.8-2.4,17.1-7.2c6.3-4.8,12.5-11.5,18.5-20.3c6-8.8,10.9-18.7,14.6-29.8c1.1-3.3,2.5-5.8,4.2-7.5
			c1.7-1.7,3.4-2.5,5.2-2.5c2.2,0,4.1,1,5.7,3c1.5,2,2.3,4.4,2.3,7.3c0,1.6-0.1,2.7-0.3,3.3c-3.8,18.8-10.1,35-19.1,48.6
			c-9,13.5-19,23.7-29.9,30.4c-11,6.8-21.5,10.1-31.4,10.1c-12.9,0-23.1-4.9-30.8-14.6c-7.7-9.8-11.4-23.9-11.1-42.6
			c-10.4,18.8-21.8,33-34.3,42.6c-12.4,9.5-24.4,14.3-35.9,14.3c-11.3,0-20.6-4.4-27.9-13.3c-7.3-8.9-11-20.8-11-35.9
			c0-12.2,2.3-24.8,7-37.9C342.5,485.4,354.2,464.7,368.3,451z M409.4,544.1c9.8-10,17-19.7,21.6-29.3c1.5-7.3,2.3-15.9,2.3-25.6
			c0-7.8-0.8-14.1-2.3-19c-1.6-4.9-4.1-7.3-7.6-7.3c-1.8,0-3.5,0.6-5.3,1.7c-4.7,2.9-10.2,9.6-16.6,20.3
			c-6.4,10.6-12,22.1-16.6,34.3c-4.7,12.2-7,22-7,29.3c0,7.1,2.4,10.6,7.3,10.6C391.5,559.1,399.6,554.1,409.4,544.1z"/>
		<path d="M532.4,550c0-18.5,4-40.4,12-65.7c8-25.3,18-50.1,29.9-74.5c12-24.4,23.8-45,35.6-61.8
			c3.3-4.7,7.4-8.3,12.3-10.6c4.9-2.4,9.9-3.5,15-3.5c4.7,0,8.5,0.9,11.6,2.7c3.1,1.8,4.7,4.4,4.7,7.6c0,1.7-0.7,3.8-2,6.1
			c-20.2,33.6-37.6,69.1-52.4,106.6c-14.7,37.5-22.4,69.1-23.1,94.7c0,5,0.9,8.7,2.7,11.3c1.8,2.6,4.3,3.9,7.6,3.9
			c4.7,0,10.3-2.4,16.8-7.3c6.5-4.8,13-11.5,19.3-20c6.3-8.5,11.5-17.9,15.5-28.2c2.4-6.5,5.7-9.7,9.6-9.7c2.2,0,4,1,5.5,2.9
			c1.4,1.9,2.2,4.3,2.2,7.1c0,1.3-0.1,2.4-0.3,3.2c-4,17.9-10.4,33.3-19.3,46.3c-8.9,13-18.7,22.9-29.6,29.7
			c-10.9,6.8-21.2,10.2-30.9,10.2C546.6,601,532.4,584,532.4,550z"/>
		<path d="M629.6,548.4c0-19.1,4-41.6,12-67.7c8-26.1,18-51.7,29.9-76.8c12-25.2,23.8-46.4,35.6-63.7
			c3.3-4.9,7.4-8.5,12.3-11c4.9-2.4,9.9-3.7,15-3.7c4.7,0,8.5,0.9,11.6,2.8c3.1,1.9,4.7,4.5,4.7,7.8c0,1.8-0.7,3.9-2,6.3
			c-20.2,34.6-37.6,71.2-52.4,109.9c-14.7,38.7-22.4,71.2-23.1,97.6c0,5.1,0.9,9,2.7,11.6c1.8,2.7,4.3,4,7.6,4
			c4.7,0,10.3-2.5,16.8-7.5c6.5-5,13-11.9,19.3-20.6c6.3-8.8,11.5-18.5,15.5-29.1c2.4-6.7,5.7-10,9.6-10c2.2,0,4,1,5.5,3
			c1.4,2,2.2,4.4,2.2,7.3c0,1.3-0.1,2.4-0.3,3.3c-4,18.4-10.4,34.3-19.3,47.7c-8.9,13.4-18.7,23.6-29.6,30.6
			c-10.9,7-21.2,10.5-30.9,10.5C643.7,601,629.6,583.5,629.6,548.4z"/>
		<path d="M769.2,598.3c-8.4,0-16.4-1.1-23.8-3.3c-7.4-2.2-13.5-5.5-18.1-10c-2.7-2.4-4-5.4-4-9c0-3.3,1.2-6.3,3.7-9
			c2.4-2.7,5.3-4,8.6-4c2.2,0,4.4,0.7,6.7,2c4.9,2.9,11,4.3,18.3,4.3c8.2,0,15.5-2.2,21.8-6.7c6.3-4.4,9.5-10.6,9.5-18.6
			c0-6-2.3-11.2-7-15.6c-4.7-4.4-11.8-9.6-21.3-15.6c-11.3-7.1-20.2-13.8-26.6-20.1c-6.4-6.3-10.4-14.1-12-23.4
			c-0.2-1.3-0.3-3.2-0.3-5.7c0-8.9,2.8-17.6,8.5-26.1c5.7-8.5,12.2-14.8,19.8-18.8c6.7-3.3,13-5,19-5c7.5,0,13.7,2.3,18.5,6.8
			c4.8,4.5,7.2,10.7,7.2,18.5c0,11.5-5.2,23.8-15.6,36.9l13,10c13.3,9.5,23.7,18.7,31.1,27.4c7.4,8.8,10.8,19.2,10.1,31.4
			c17.3-12.4,35.1-31.1,53.5-56.2c1.5-2.4,3.5-3.7,6-3.7c1.3,0,2.4,0.5,3.2,1.5c0.8,1,1.2,2.4,1.2,4.2c0,1.8-0.2,3.2-0.7,4.3
			c-1.6,5.8-7.2,15.5-17,29.3c-9.8,13.8-22.4,27.4-38.1,40.9c-15.6,13.5-32.7,23.4-51.1,29.6C785.9,597.1,777.9,598.3,769.2,598.3z
			 M778.1,457.1c1.4-3.7,2.2-6.9,2.2-9.8c0-4.7-1.7-7-5-7c-3.1,0-5.8,1.1-8,3.3c-2.2,2.2-3.3,5-3.3,8.3c0,4.9,2.7,9.9,8,15
			C774.6,464.1,776.6,460.8,778.1,457.1z"/>
	</g>
	<g>
		<path d="M504,1007.3c-67.4,0-132.8-13.2-194.3-39.2c-59.5-25.1-112.9-61.1-158.7-107
			c-45.9-45.9-81.9-99.2-107-158.7C17.9,640.8,4.7,575.4,4.7,508c0-67.4,13.2-132.8,39.2-194.3c25.1-59.5,61.1-112.9,107-158.7
			s99.2-81.9,158.7-107C371.2,21.9,436.6,8.7,504,8.7c67.4,0,132.8,13.2,194.3,39.2c59.5,25.1,112.9,61.1,158.7,107
			c45.9,45.9,81.9,99.2,107,158.7c26,61.6,39.2,126.9,39.2,194.3c0,67.4-13.2,132.8-39.2,194.3c-25.1,59.5-61.1,112.9-107,158.7
			c-45.9,45.9-99.2,81.9-158.7,107C636.8,994.1,571.4,1007.3,504,1007.3z M504,22.8C236.4,22.8,18.7,240.4,18.7,508
			c0,267.6,217.7,485.3,485.3,485.3c267.6,0,485.3-217.7,485.3-485.3C989.3,240.4,771.6,22.8,504,22.8z"/>
	</g>
	<g>
		<path d="M153.5,198.1l15.1-16.3l84,77.9L237.5,276L153.5,198.1z"/>
		<path d="M216,160.3l-18.2,14.4l-10.1-12.8l53.8-42.4l10.1,12.9l-18.2,14.4l60.8,77.1l-17.4,13.7L216,160.3z"/>
		<path d="M330.1,91.2l-21.6,8.4l-5.9-15.3l63.9-24.8l5.9,15.3l-21.6,8.4l35.6,91.5l-20.7,8L330.1,91.2z"/>
		<path d="M402.9,51l29.5-5.5L476,153.9l-21.8,4.1l-8.1-21.6l0.1,0.3l-24.8,4.6l0.2,22.8l-20.2,3.8L402.9,51z
			 M440.7,121.8L420.6,68l-0.4,0.1l0.9,57.4L440.7,121.8z"/>
		<path d="M486.4,39.4l22.2,0.7L507,88.4l29.8-47.3l22.2,0.7L531.1,83l24.4,73.4l-23.2-0.8l-17-51.7l-9.3,14.3
			l-1.2,36.5l-22.2-0.7L486.4,39.4z"/>
		<path d="M589.7,47.2l58.7,14.6l-3.9,15.9l-37.2-9.2l-7.3,29.4l29.5,7.3l-3.9,15.9l-29.5-7.3l-8.5,34.1l37.2,9.2
			l-3.9,15.9L562,158.4L589.7,47.2z"/>
		<path d="M638.1,150.4l2.8-5.9l18.9,9l-3.4,7.1c-3.5,7.4-0.8,12,5.6,15c6.4,3,11.6,2.3,15.3-5.4
			c4.1-8.6,2.7-15.9-5.9-31.5c-11-20-12.4-31-6.8-42.8c7.8-16.2,22.6-20.7,42.1-11.4c19.5,9.3,24.6,23.4,16.7,39.9l-2,4.3l-18.9-9
			l2.5-5.3c3.5-7.4,1.2-11.9-5.1-15c-6.4-3-11.3-2-14.7,5.1c-3.6,7.5-2,15,6.6,30.6c11,20,12.3,30.7,6.2,43.6
			c-8,16.8-23.1,21.2-42.8,11.8C635.5,181.1,630.2,166.9,638.1,150.4z"/>
		<path d="M812.9,156.5l21.9,20.5l-61.6,99.3l-16.2-15.2l12.6-19.4l-0.2,0.2l-18.4-17.2l-18.3,13.6l-15-14.1
			L812.9,156.5z M778.2,228.9l31.5-48.1l-0.3-0.3l-45.8,34.7L778.2,228.9z"/>
	</g>
	<g>
		<path d="M170.7,671.5l-10-19.1l14-7.4l29.7,56.4l-14,7.4l-10-19.1l-83.8,44.1l-9.6-18.2L170.7,671.5z"/>
		<path d="M139.1,756.2l46-35.5c14-10.8,28.7-8.2,41.1,7.8c12.4,16,11.1,31-2.9,41.8l-46,35.5
			c-14,10.8-28.7,8.2-41.1-7.8C123.8,781.9,125.1,767,139.1,756.2z M163.9,790.1l47.7-36.8c6.2-4.8,6.1-9.9,2.1-15.1
			c-4-5.2-8.9-6.6-15.1-1.8l-47.7,36.8c-6.2,4.8-6.1,9.9-2.1,15.1C152.7,793.5,157.6,795,163.9,790.1z"/>
		<path d="M210.3,836.4l35.7-45.8c10.9-13.9,25.3-15.5,41.3-3c16,12.4,18.1,26.9,7.2,40.8l-5.8,7.5l-15.4-12l6.5-8.3
			c4.8-6.2,3.4-11.1-1.7-15.2c-5.2-4-10.3-4.2-15.1,2L225.8,850c-4.8,6.2-3.3,11,1.8,15c5.2,4,10.2,4.3,15-1.9l13.3-17.1l-8.1-6.3
			l9.7-12.5l23.5,18.3l-22.2,28.5c-10.9,13.9-25.3,15.5-41.3,3C201.5,864.7,199.4,850.3,210.3,836.4z"/>
		<path d="M275.6,884.6l26.9-51.5c8.2-15.7,22.7-19.5,40.6-10.1c17.9,9.4,23.1,23.4,14.9,39.1l-26.9,51.5
			c-8.2,15.7-22.7,19.5-40.6,10.1C272.5,914.4,267.4,900.3,275.6,884.6z M312.3,905l27.9-53.4c3.6-7,1.4-11.6-4.4-14.6
			c-5.8-3-10.9-2.3-14.5,4.7l-27.9,53.4c-3.6,7-1.4,11.6,4.4,14.6C303.6,912.8,308.6,912,312.3,905z"/>
		<path d="M376.8,841.3l19.6,6.3l-28.9,90.2l32.3,10.3l-4.8,15l-51.9-16.6L376.8,841.3z"/>
		<path d="M425.5,855.4l53.9,8.2l-2.4,15.6l-33.5-5.1l-4.7,30.4l26.3,4l-2.4,15.6l-26.3-4l-7.3,47.6l-20.4-3.1
			L425.5,855.4z"/>
		<path d="M506.9,864.1l20.6-1.6l7.2,94.4l33.8-2.6l1.2,15.7l-54.4,4.1L506.9,864.1z"/>
		<path d="M563.2,858.3l20.2-4.1l21.8,108.3l-20.2,4.1L563.2,858.3z"/>
		<path d="M592.4,853.6l19.5-6.8l15.4,43.9l9.3-52.6l19.5-6.8l-9.7,46.4l46.7,57.7l-20.3,7.1l-32.8-40.7l-3.1,16
			l11.7,33.2l-19.5,6.8L592.4,853.6z"/>
		<path d="M661.9,827.9l48.9-27.7l7.8,13.7l-31,17.6l14.4,25.4l24.6-14l7.8,13.7l-24.6,14l16.7,29.5l31-17.6
			l7.8,13.7L716.4,924L661.9,827.9z"/>
		<path d="M729.1,783.1l15.6-13.5l72.5,83.4l-15.6,13.5L729.1,783.1z"/>
		<path d="M769.3,746.2l19-25.1c12.4-16.5,26.2-18.7,40.3-8.1l44.6,33.7c14.1,10.7,15.7,24.5,3.2,41l-19,25.1
			L769.3,746.2z M863.6,778.4c4-5.2,4.1-10.1-2.2-14.8L815.6,729c-6.3-4.8-10.9-3.3-14.9,1.9l-6.3,8.4l63,47.6L863.6,778.4z"/>
		<path d="M883.5,732.1l-52-25.9c-15.8-7.9-19.9-22.3-10.9-40.4c9-18.1,23-23.5,38.8-15.6l52,25.9
			c15.8,7.9,19.9,22.3,10.9,40.4C913.3,734.6,899.3,740,883.5,732.1z M903.2,695.1l-53.9-26.9c-7.1-3.5-11.6-1.2-14.5,4.7
			c-2.9,5.9-2.1,10.9,5,14.4l53.9,26.9c7.1,3.5,11.6,1.2,14.5-4.7C911.1,703.6,910.3,698.6,903.2,695.1z"/>
	</g>
	<g>
		<path d="M804.8,392.6c4.2-1.8,8.4-3.5,12.7-5.1c-16.6-43.3-42.3-83.1-76.1-116.9C678,207.2,593.7,172.3,504,172.3
			s-174,34.9-237.4,98.3c-8.7,8.7-16.8,17.7-24.4,27.1c3.6,3,7,6.3,10.6,9.5c59-73.7,149.7-120.9,251.2-120.9
			c136.7,0,253.7,85.7,300.2,206.1C804.4,392.5,804.6,392.6,804.8,392.6z"/>
		<path d="M811.8,601.7c-40.2,131.8-162.9,228-307.8,228c-142.3,0-263.2-92.8-305.6-221.1
			c-4.8,0.7-9.5,1.3-14.4,1.6c16.1,50.4,44,96.7,82.5,135.2c63.4,63.4,147.7,98.3,237.4,98.3s174-34.9,237.4-98.3
			c41.9-41.9,71.3-92.9,86.5-148.6C822.5,598.4,817.1,600,811.8,601.7z"/>
	</g>
	<g>
		<g>
			<g>
				<path d="M508.4,669.7c-1.5-1.1-3-2.1-4.4-3.2c-0.8-0.6-1.4-0.6-2.2,0c-1.5,1.1-3,2.2-4.9,3.6
					c0.7-2.2,1.2-3.9,1.8-5.6c0.4-1.1,0.2-1.8-0.8-2.4c-1.5-1-2.9-2.1-4.2-3.5c1.8,0,3.7,0.1,5.5-0.1c0.6-0.1,1.5-0.7,1.7-1.2
					c0.7-1.7,1.2-3.4,1.9-5.7c0.7,2,1.3,3.4,1.6,4.9c0.4,1.6,1.1,2.4,2.9,2.2c1.5-0.2,3.1,0,4.9,0.3c-1.3,1-2.6,2-4,2.8
					c-1.3,0.8-1.7,1.7-1.1,3.2c0.7,1.5,1.1,3.1,1.6,4.7C508.7,669.7,508.6,669.7,508.4,669.7z"/>
				<path d="M481.3,674.2c-1.8-1.1-3.1-2.6-4.5-2.6c-1.4,0-2.7,1.6-4,2.5c-0.1-0.2-0.1-0.3-0.1-0.4
					c0.4-1.5,1.4-3.3,1-4.6c-0.4-1.2-2.3-2-4-3.3c1.6,0,2.7-0.1,3.7,0c1.4,0.1,2-0.4,2.3-1.7c0.2-1,0.7-2,1.1-3.3
					c0.7,1.8,0.9,3.8,2,4.6c1.1,0.8,3,0.4,5,0.6c-1.1,0.8-1.9,1.5-2.8,2.1c-1.1,0.6-1.4,1.3-0.9,2.5
					C480.7,671.7,480.9,672.9,481.3,674.2z"/>
				<path d="M533.1,674.5c-2.7-3.6-5.5-3.7-8.3,0c-0.1-0.2-0.1-0.4-0.2-0.6c0.3-1,0.5-2.1,1-3
					c0.6-1.3,0.3-2.2-0.9-2.9c-0.8-0.5-1.6-1.1-2.3-2.2c1,0,2.1-0.1,3.1,0c1.3,0.1,2-0.4,2.3-1.7c0.2-1,0.6-2.1,1.1-3.4
					c0.3,0.7,0.5,1.1,0.7,1.5c1.2,3.5,1.2,3.5,5,3.6c0.4,0,0.7,0.1,1.6,0.1c-1.2,0.9-2.1,1.6-3.1,2.2c-1.1,0.7-1.3,1.4-0.8,2.6
					c0.4,1,0.7,2.2,1.1,3.2C533.3,674.2,533.2,674.4,533.1,674.5z"/>
			</g>
			<g>
				<path d="M508.4,774c-1.5,1.1-3,2.1-4.4,3.2c-0.8,0.6-1.4,0.6-2.2,0c-1.5-1.1-3-2.2-4.9-3.6
					c0.7,2.2,1.2,3.9,1.8,5.6c0.4,1.1,0.2,1.8-0.8,2.4c-1.5,1-2.9,2.1-4.2,3.5c1.8,0,3.7-0.1,5.5,0.1c0.6,0.1,1.5,0.7,1.7,1.2
					c0.7,1.7,1.2,3.4,1.9,5.7c0.7-2,1.3-3.4,1.6-4.9c0.4-1.6,1.1-2.4,2.9-2.2c1.5,0.2,3.1,0,4.9-0.3c-1.3-1-2.6-2-4-2.8
					c-1.3-0.8-1.7-1.7-1.1-3.2c0.7-1.5,1.1-3.1,1.6-4.7C508.7,774,508.6,774,508.4,774z"/>
				<path d="M481.3,769.5c-1.8,1.1-3.1,2.6-4.5,2.6c-1.4,0-2.7-1.6-4-2.5c-0.1,0.2-0.1,0.3-0.1,0.4
					c0.4,1.5,1.4,3.3,1,4.6c-0.4,1.2-2.3,2-4,3.3c1.6,0,2.7,0.1,3.7,0c1.4-0.1,2,0.4,2.3,1.7c0.2,1,0.7,2,1.1,3.3
					c0.7-1.8,0.9-3.8,2-4.6c1.1-0.8,3-0.4,5-0.6c-1.1-0.8-1.9-1.5-2.8-2.1c-1.1-0.6-1.4-1.3-0.9-2.5
					C480.7,772,480.9,770.8,481.3,769.5z"/>
				<path d="M533.1,769.2c-2.7,3.6-5.5,3.7-8.3,0c-0.1,0.2-0.1,0.4-0.2,0.6c0.3,1,0.5,2.1,1,3
					c0.6,1.3,0.3,2.2-0.9,2.9c-0.8,0.5-1.6,1.1-2.3,2.2c1,0,2.1,0.1,3.1,0c1.3-0.1,2,0.4,2.3,1.7c0.2,1,0.6,2.1,1.1,3.4
					c0.3-0.7,0.5-1.1,0.7-1.5c1.2-3.5,1.2-3.5,5-3.6c0.4,0,0.7-0.1,1.6-0.1c-1.2-0.9-2.1-1.6-3.1-2.2c-1.1-0.7-1.3-1.4-0.8-2.6
					c0.4-1,0.7-2.2,1.1-3.2C533.3,769.5,533.2,769.3,533.1,769.2z"/>
			</g>
		</g>
		<g>
			<g>
				<g>
					<path d="M450.1,716.2c-1.1,1.5-2.1,3-3.2,4.4c-0.6,0.8-0.6,1.4,0,2.2c1.1,1.5,2.2,3,3.6,4.9
						c-2.2-0.7-3.9-1.2-5.6-1.8c-1.1-0.4-1.8-0.2-2.4,0.8c-1,1.5-2.1,2.9-3.5,4.2c0-1.8,0.1-3.7-0.1-5.5c-0.1-0.6-0.7-1.5-1.2-1.7
						c-1.7-0.7-3.4-1.2-5.7-1.9c2-0.7,3.4-1.3,4.9-1.6c1.6-0.4,2.4-1.1,2.2-2.9c-0.2-1.5,0-3.1,0.3-4.9c1,1.3,2,2.6,2.8,4
						c0.8,1.3,1.7,1.7,3.2,1.1c1.5-0.7,3.1-1.1,4.7-1.6C450.1,715.9,450.1,716,450.1,716.2z"/>
					<path d="M454.6,743.2c-1.1,1.8-2.6,3.1-2.6,4.5c0,1.4,1.6,2.7,2.5,4c-0.2,0.1-0.3,0.1-0.4,0.1
						c-1.5-0.4-3.3-1.4-4.6-1c-1.2,0.4-2,2.3-3.3,4c0-1.6-0.1-2.7,0-3.7c0.1-1.4-0.4-2-1.7-2.3c-1-0.2-2-0.7-3.3-1.1
						c1.8-0.7,3.8-0.9,4.6-2c0.8-1.1,0.4-3,0.6-5c0.8,1.1,1.5,1.9,2.1,2.8c0.6,1.1,1.3,1.4,2.5,0.9
						C452.1,743.9,453.3,743.7,454.6,743.2z"/>
					<path d="M454.9,691.5c-3.6,2.7-3.7,5.5,0,8.3c-0.2,0.1-0.4,0.1-0.6,0.2c-1-0.3-2.1-0.5-3-1
						c-1.3-0.6-2.2-0.3-2.9,0.9c-0.5,0.8-1.1,1.6-2.2,2.3c0-1-0.1-2.1,0-3.1c0.1-1.3-0.4-2-1.7-2.3c-1-0.2-2.1-0.6-3.4-1.1
						c0.7-0.3,1.1-0.5,1.5-0.7c3.5-1.2,3.5-1.2,3.6-5c0-0.4,0.1-0.7,0.1-1.6c0.9,1.2,1.6,2.1,2.2,3.1c0.7,1.1,1.4,1.3,2.6,0.8
						c1-0.4,2.2-0.7,3.2-1.1C454.6,691.3,454.8,691.4,454.9,691.5z"/>
				</g>
				<g>
					<path d="M557.9,716.2c1.1,1.5,2.1,3,3.2,4.4c0.6,0.8,0.6,1.4,0,2.2c-1.1,1.5-2.2,3-3.6,4.9
						c2.2-0.7,3.9-1.2,5.6-1.8c1.1-0.4,1.8-0.2,2.4,0.8c1,1.5,2.1,2.9,3.5,4.2c0-1.8-0.1-3.7,0.1-5.5c0.1-0.6,0.7-1.5,1.2-1.7
						c1.7-0.7,3.4-1.2,5.7-1.9c-2-0.7-3.4-1.3-4.9-1.6c-1.6-0.4-2.4-1.1-2.2-2.9c0.2-1.5,0-3.1-0.3-4.9c-1,1.3-2,2.6-2.8,4
						c-0.8,1.3-1.7,1.7-3.2,1.1c-1.5-0.7-3.1-1.1-4.7-1.6C557.9,715.9,557.9,716,557.9,716.2z"/>
					<path d="M553.4,743.2c1.1,1.8,2.6,3.1,2.6,4.5c0,1.4-1.6,2.7-2.5,4c0.2,0.1,0.3,0.1,0.4,0.1
						c1.5-0.4,3.3-1.4,4.6-1c1.2,0.4,2,2.3,3.3,4c0-1.6,0.1-2.7,0-3.7c-0.1-1.4,0.4-2,1.7-2.3c1-0.2,2-0.7,3.3-1.1
						c-1.8-0.7-3.8-0.9-4.6-2c-0.8-1.1-0.4-3-0.6-5c-0.8,1.1-1.5,1.9-2.1,2.8c-0.6,1.1-1.3,1.4-2.5,0.9
						C555.9,743.9,554.7,743.7,553.4,743.2z"/>
					<path d="M553.1,691.5c3.6,2.7,3.7,5.5,0,8.3c0.2,0.1,0.4,0.1,0.6,0.2c1-0.3,2.1-0.5,3-1
						c1.3-0.6,2.2-0.3,2.9,0.9c0.5,0.8,1.1,1.6,2.2,2.3c0-1,0.1-2.1,0-3.1c-0.1-1.3,0.4-2,1.7-2.3c1-0.2,2.1-0.6,3.4-1.1
						c-0.7-0.3-1.1-0.5-1.5-0.7c-3.5-1.2-3.5-1.2-3.6-5c0-0.4-0.1-0.7-0.1-1.6c-0.9,1.2-1.6,2.1-2.2,3.1c-0.7,1.1-1.4,1.3-2.6,0.8
						c-1-0.4-2.2-0.7-3.2-1.1C553.4,691.3,553.2,691.4,553.1,691.5z"/>
				</g>
			</g>
			<g>
				<path d="M535.8,758.9c-18.6,15.7-45.4,15.2-63.6-0.1c-0.7,0.6-1.4,1.3-2.1,1.9c-7.2,6.7-14.7,13.1-21.6,20.2
					c-2.7,2.8-5.3,5.9-8.2,8.5c-2.2,2-4.6,3.9-6.9,5.7c-2.6,2-5.6,3-8.9,2.8c-11.2-0.7-22.1-2.7-32.7-6.6c-2.1-0.8-4-1.8-5.9-2.9
					c-3.8-2.1-4.7-5.7-4.4-9.7c0.4-4.5,1.9-8.6,4.2-12.4c2.3-3.7,5.1-4.7,9.1-3.1c1.9,0.8,3.8,1.7,5.5,2.9
					c8.1,5.5,16.1,11.1,24.1,16.8c0.7,0.5,1.4,1.2,1.9,1.9c1.4,1.9,2.5,2.2,4.3,0.5c2.1-1.9,4-4.1,6-6.1c1.3-1.3,2-3.3,4.4-3
					c0.2,0,0.4-0.3,0.6-0.4c8.2-7.6,16.4-15.2,24.7-22.9c-7.5-9.4-11.3-19.9-11.2-31.8c0.1-11.8,4.2-22.2,11.8-31.4
					c-2.1-2.1-3.9-4.5-6.3-6.1c-8-5.5-14.1-12.9-21.1-19.5c-15-14.2-29.8-28.7-44.7-43.1c-0.4-0.4-0.8-0.8-1.4-1.4
					c2.6-2.3,5.1-4.5,7.6-6.7c-0.1-0.2-0.2-0.4-0.3-0.6c0.4,0.4,0.9,0.7,1.3,1.1c20.9,20.7,41.8,41.3,62.5,62.2
					c2.1,2.2,3.9,4.9,6.2,7.2c0.5,0.5,1,1,1.5,1.4c21.1-15.1,42.1-15.2,63.4,0c2-1.9,4.7-3.7,6.1-6.2c2.8-5,7.4-8,11-12
					c3.8-4.1,7.9-7.9,11.8-11.8c13.6-13.5,27.2-26.9,40.8-40.4c0.5-0.5,1-1,1.3-1.2c2.6,2.4,5.1,4.6,7.7,7c-0.6,0.7-1.1,1.1-1.5,1.6
					c-20.9,20.3-41.9,40.5-62.8,60.7c-2.1,2-4.5,3.6-6.7,5.5c-0.8,0.7-1.6,1.5-2.5,2.3c7.7,9.3,11.8,19.7,11.9,31.6
					c0.1,11.8-3.7,22.3-11.1,31.6c3.3,3.2,6.6,6.3,9.9,9.4c4.7,4.4,9.4,8.7,14.2,13.1c0.6,0.5,1.4,0.7,2.1,1
					c0.6,0.3,1.2,0.6,1.7,1.1c2.4,2.5,4.6,5.1,7.1,7.4c2.3,2.2,3.2,2,5.1-0.4c0.4-0.5,0.9-1,1.4-1.3c8.2-5.8,16.5-11.5,24.8-17.2
					c1.9-1.3,4.1-2.2,6.3-3c2.4-0.8,4.9-0.5,6.6,1.6c3.8,4.9,5.7,10.4,5.6,16.6c-0.1,3.5-1.8,6.4-5.1,7.7c-5,2-9.9,4.2-15.1,5.4
					c-7.2,1.6-14.5,2.5-21.9,3.5c-3.4,0.5-6.7-0.2-9.4-2.4c-4.5-3.7-9.5-7.1-13.1-11.5c-3.8-4.8-8.6-8.2-12.8-12.5
					c-4.2-4.2-8.7-8.2-13-12.3C536.1,758.9,535.9,758.9,535.8,758.9z M532.5,689.5c-0.1-0.2-0.2-0.4-0.3-0.6c-2.3-1.6-4.6-3.4-7-4.8
					c-1.3-0.7-2.9-0.8-4.3-1.3c-2.4-0.8-4.8-1.7-7.3-2.6c-0.8-0.3-1.5-0.8-2.2-1c-18.3-3.3-37.3,6.2-45.6,22.9
					c-0.3,0.6-0.4,1.2-0.5,1.8c-0.7,2.5-1.3,5.1-2.1,7.6c-0.6,1.7-1.4,3.3-2.1,5c1.9,0.9,2.7,3.8,1.9,4.9c-0.4,0.6-0.9,1.6-0.7,2.3
					c0.3,1.6,0.8,3.3,1.4,4.8c1,2.5,1.8,2.9,4.7,2.7c2.4-0.2,4.5,0.3,6.2,2.1c1.7,1.7,2.9,2,5,0.8c3.6-2.1,7.3-2,10.7,0.2
					c3.2,2,5.7,2,8.8-0.3c3.7-2.7,7.4-2.3,11.1,0.5c2.6,2,4.8,2,7.2-0.2c2.3-2.3,5-3.4,8.2-3.5c0.6,0,1.3-0.2,1.9-0.3
					c2.9-0.7,4.2-2.2,4.4-5.2c0.1-1.4,0-2.7,0.1-4.1c0.2-4.7,2.8-7.5,7.4-7.8c1.3-0.1,1.8-0.7,2.1-1.8c0.8-2.9,0.8-5.8-0.5-8.6
					c-1.2-2.5-2.4-5-3.6-7.5c-1-1.9-2.1-1.9-3.4-0.1c-2.1-1.7-4.1-3.3-4-6.5c0.9,0.1,1.7,0.1,2.4,0.2
					C532.3,689,532.4,689.2,532.5,689.5C532.5,689.5,532.5,689.5,532.5,689.5C532.5,689.5,532.5,689.5,532.5,689.5z M417.3,783.1
					C417.3,783.1,417.3,783.1,417.3,783.1C417.3,783.1,417.3,783.1,417.3,783.1c-0.3,0-0.6-0.1-0.9-0.2c-0.1-0.2-0.1-0.4-0.3-0.5
					c-5.1-3.3-10.1-6.7-15.4-9.8c-1.9-1.1-4.3-1.7-6.5-1.9c-1.4-0.1-3.2,0.6-4.3,1.6c-2.1,1.8-2.7,7.3-1.6,9.9
					c0.2-0.5,0.4-1,0.6-1.5c2.5-5.8,6.3-7.6,12.2-5.5c3.2,1.1,6.1,2.8,9.1,4.3c2.1,1,4.1,2.2,6.2,3.2
					C416.7,782.9,417,783,417.3,783.1z M590.7,783.1c0.3-0.1,0.6-0.2,1-0.3c1.4-0.7,2.7-1.5,4.1-2.1c4.1-1.9,8.1-4.2,12.3-5.7
					c4.8-1.7,8.3,0.1,10.5,4.7c0.4,0.8,0.8,1.7,1.2,2.6c0.2,0,0.4-0.1,0.6-0.1c-0.3-2.6-0.4-5.2-1.1-7.8c-0.7-2.8-2.7-4.1-5.6-3.8
					c-1.9,0.2-3.9,0.6-5.6,1.5c-4.2,2.3-8.3,4.9-12.3,7.4c-1.5,0.9-2.8,2.2-4.2,3.3C591.4,783,591,783.1,590.7,783.1
					c0,0.1,0,0.1,0,0.1C590.7,783.2,590.7,783.1,590.7,783.1z M543.4,706.7L543.4,706.7L543.4,706.7c-0.1,2.3,1,4.1,2.6,5.7
					c0.2-0.7,0.1-1.3,0-1.9C545.9,708.8,544.8,707.7,543.4,706.7z M497.6,739.3c-0.7,3.2,0.7,5.8,3.7,7.1c3.1,1.3,6.6,0.3,8.5-2.4
					c1.5-2.1,1.4-6.1-0.7-7.3C505.8,741.5,502.7,742.2,497.6,739.3z M516.7,739.4c-0.8,2.9,0.3,5.4,2.8,6.3c3.1,1.2,7-0.8,8.5-4.4
					c1.1-2.6,0.5-5-1.5-6C523.7,739.9,521.4,740.8,516.7,739.4z M479.9,738c-0.7,2.8,0.7,5.6,3.4,7.2c2.6,1.5,5.7,1.2,7.2-0.8
					c1.7-2.1,1.5-5.3-0.5-7.6C487.1,740.9,484.9,741.2,479.9,738z M503.9,760.4c2.5-0.5,4.6-1.2,5.8-3.3c0.7-1.3,0.4-2.4-0.5-3.6
					c-0.9-1.1-1.7-0.6-2.8-0.4c-1.9,0.4-3.9,0.4-5.9,0.1c-1.1-0.2-1.7,0-2.2,0.9c-0.8,1.5-0.6,2.9,0.7,3.8
					C500.5,759,502.3,759.6,503.9,760.4z M518.4,758.7c2.9,0,6.4-2,7.2-4.4c0.3-0.9,0-2.3-0.5-3.1c-0.7-1-1.8-0.7-2.9-0.1
					c-1.2,0.7-2.6,1.1-4,1.4c-1.8,0.3-3.2,1.9-3.1,3.7C515.2,757.7,516.4,758.7,518.4,758.7z M489.2,758.7c2.6,0,3.9-1.1,3.8-2.8
					c-0.1-2-1.6-3.3-3.6-3.4c-1.6-0.1-3.3-0.7-4.8-1.3c-1.2-0.6-2.1-0.1-2.3,0.8c-0.2,0.9-0.1,2.1,0.4,2.9
					C484.4,757.2,486.8,758.4,489.2,758.7z M539.4,732c-1.7,2.9-2.8,5.5-6,5.7c-0.1,0-0.2,0.2-0.3,0.3c-0.7,0.9-0.4,3.8,0.5,4.8
					c1.2,1.2,2.5,1,3.7,0.2c2.6-1.9,3.9-4.6,3.6-7.9C540.9,734.1,540.1,733.3,539.4,732z M467.3,735.5c-0.5,2.9,1.7,6.9,4.3,7.9
					c1.8,0.7,3.2-0.1,3.6-2c0.4-2.1-0.1-4-1.3-5.8C471.7,738.3,471.2,738.3,467.3,735.5z M534.3,722c-0.2,0.1-0.4,0.2-0.6,0.3
					c0.7,1.4,1.2,2.9,2.1,4.1c1.2,1.5,3.3,1.6,4.7,0.4c2.3-1.9,2.6-6.9,0.6-9.2C539.2,722.9,537.6,723.9,534.3,722z M537.4,747.5
					c-0.8-0.1-1.5-0.5-2-0.3c-2.7,1-4.6,2.9-5.6,5.5c-0.2,0.5,0,1.2,0,1.8c0.6,0,1.4,0.2,1.8-0.1c1.8-1.7,3.6-3.5,5.3-5.3
					C537.1,748.9,537.1,748.4,537.4,747.5z M471.5,747c-0.1,0.4-0.6,1.1-0.4,1.6c1.2,2.8,3.3,4.8,6,6.1c0.8,0.4,1.6,0.2,1.6-0.9
					C478.7,751.5,474.3,747.1,471.5,747z M509.1,763.8c-2.1-2-8.3-1.9-9.9,0C501.1,765.3,506.8,765.4,509.1,763.8z M546.2,716.7
					c-2,1.8-2,8.1,0.1,9.7C547.8,724.4,547.8,718.6,546.2,716.7z M513.3,763.5c2.7,0.2,7.4-1.5,8.8-3.2
					C518.6,760.4,515.7,761.3,513.3,763.5z M486.3,760.4c-0.1,0.3-0.2,0.5-0.3,0.8c2.9,1,5.8,1.9,8.7,2.9c0.1-0.3,0.2-0.5,0.3-0.8
					C492.5,761.2,489.5,760.5,486.3,760.4z M543.1,739.4c0.2,0,0.4,0.1,0.5,0.1c0.9-2.9,1.9-5.7,2.8-8.6
					C544,732.3,542.5,736.9,543.1,739.4z M464.6,739.6c0.3-0.1,0.5-0.2,0.8-0.3c-0.1-2.8-0.6-5.4-3.6-7.3
					C462.8,734.7,463.7,737.2,464.6,739.6z"/>
				<path d="M510.8,721.1c-6.5,0.1-8.1,1.3-9.6,6.6c-3.1-1.3-4.6-4.3-3.7-7.8c0.8-3.3,3.8-5.5,7.2-5.2
					C508,715,510.5,717.6,510.8,721.1z"/>
				<path d="M502.1,708.4c-3.6-1.3-5.3-4.2-4.6-7.2c0.8-3.1,3.9-5.1,7.3-4.7c3.2,0.3,5.6,2.9,5.7,6.1
					C506.4,702.4,503.3,703.9,502.1,708.4z"/>
				<path d="M491,721.2c-5.3,0.2-7.1,1.7-8.2,6.4c-2.7-0.7-4.4-3.6-4-6.8c0.4-3.6,2.9-5.9,6.1-5.9
					C488.3,715,490.6,717.4,491,721.2z"/>
				<path d="M521,727.7c-3.1-1.2-4.6-4.1-3.9-7.6c0.7-3.3,3-5.2,6.1-5.1c3.2,0.1,5.5,2.5,5.9,6.3
					C524.5,720.8,521.8,723.1,521,727.7z"/>
				<path d="M528.1,702.6c-5-0.1-6.7,1.3-7,5.8c-2.7-0.5-4.7-3.4-4.5-6.5c0.1-2.5,1.7-4.2,4.2-4.5
					C524,696.9,527,699.1,528.1,702.6z"/>
				<path d="M525.8,690.4c-2.1,0.6-3.7,1.1-5.4,1.6c-0.3,0.1-0.6,0.2-0.9,0.1c-1.9-0.8-3.5-1.9-4.2-4
					c-0.4-1.3-0.1-2.4,1.2-3.1c2.8-1.4,8.5,1.4,9.2,4.5C525.9,690,525.8,690.4,525.8,690.4z"/>
				<path d="M537.5,710.1c-3.2-1.1-5.4-5.3-4.5-8.4c0.5-1.7,1.9-2.4,3.7-1.6c2,0.9,3,2.5,3.8,4.6
					C537.5,705.4,537.5,707.8,537.5,710.1z"/>
				<path d="M474.2,721.6c-3.2-2.3-5.4-2.4-7.9,2.9c-0.7-2.3-0.9-4.5,0.3-6.5c0.6-1,1.9-2.2,3-2.3
					c1.1-0.1,2.5,1,3.2,2C473.6,718.8,473.8,720.3,474.2,721.6z"/>
			</g>
		</g>
	</g>
	<path d="M355.6,691.1c-1,0.1-2,0.2-3,0.3c-5.4,0.6-10.8,1.1-16.1,2.7c-5.8,1.7-9.5,5.4-11.2,11.3
		c-1,3.3-1.6,6.6-2,10c-0.3,2.9-0.6,5.7-0.9,8.6c0,0.1-0.1,0.2-0.3,0.3c-0.1-0.9-0.2-1.8-0.3-2.8c-0.5-5.1-1-10.1-2.4-15
		c-0.7-2.6-1.7-5-3.3-7.1c-2-2.5-4.6-4-7.6-5c-2.9-1-6-1.6-9.1-2c-3.3-0.4-6.7-0.8-10-1.1c-0.2,0-0.4-0.1-0.7-0.3
		c0.9-0.1,1.8-0.2,2.7-0.3c5.3-0.6,10.6-1.1,15.8-2.5c2.4-0.7,4.7-1.7,6.7-3.3c2.2-1.7,3.5-4,4.5-6.5c1.1-2.9,1.8-5.9,2.2-8.9
		c0.5-3.8,0.9-7.5,1.3-11.3c0-0.1,0.1-0.3,0.3-0.4c0.1,0.7,0.2,1.4,0.2,2.1c0.3,2.8,0.6,5.6,1,8.3c0.4,3.1,1,6.2,2,9.1
		c1.7,5.3,5.1,8.7,10.4,10.4c3,1,6.1,1.6,9.2,2c3,0.4,6,0.7,9,1.1c0.5,0.1,1,0.1,1.4,0.1C355.6,691,355.6,691,355.6,691.1z"/>
	<path d="M732.3,691.1c-1,0.1-2,0.2-3,0.3c-5.4,0.6-10.8,1.1-16.1,2.7c-5.8,1.7-9.5,5.4-11.2,11.3
		c-1,3.3-1.6,6.6-2,10c-0.3,2.9-0.6,5.7-0.9,8.6c0,0.1-0.1,0.2-0.3,0.3c-0.1-0.9-0.2-1.8-0.3-2.8c-0.5-5.1-1-10.1-2.4-15
		c-0.7-2.6-1.7-5-3.3-7.1c-2-2.5-4.6-4-7.6-5c-2.9-1-6-1.6-9.1-2c-3.3-0.4-6.7-0.8-10-1.1c-0.2,0-0.4-0.1-0.7-0.3
		c0.9-0.1,1.8-0.2,2.7-0.3c5.3-0.6,10.6-1.1,15.8-2.5c2.4-0.7,4.7-1.7,6.7-3.3c2.2-1.7,3.5-4,4.5-6.5c1.1-2.9,1.8-5.9,2.2-8.9
		c0.5-3.8,0.9-7.5,1.3-11.3c0-0.1,0.1-0.3,0.3-0.4c0.1,0.7,0.2,1.4,0.2,2.1c0.3,2.8,0.6,5.6,1,8.3c0.4,3.1,1,6.2,2,9.1
		c1.7,5.3,5.1,8.7,10.4,10.4c3,1,6.1,1.6,9.2,2c3,0.4,6,0.7,9,1.1c0.5,0.1,1,0.1,1.4,0.1C732.3,691,732.3,691,732.3,691.1z"/>
	<path d="M525.1,377.3c-1,0.1-2,0.2-3,0.3c-5.4,0.6-10.8,1.1-16.1,2.7c-5.8,1.7-9.5,5.4-11.2,11.3
		c-1,3.3-1.6,6.6-2,10c-0.3,2.9-0.6,5.7-0.9,8.6c0,0.1-0.1,0.2-0.3,0.3c-0.1-0.9-0.2-1.8-0.3-2.8c-0.5-5.1-1-10.1-2.4-15
		c-0.7-2.6-1.7-5-3.3-7.1c-2-2.5-4.6-4-7.6-5c-2.9-1-6-1.6-9.1-2c-3.3-0.4-6.7-0.8-10-1.1c-0.2,0-0.4-0.1-0.7-0.3
		c0.9-0.1,1.8-0.2,2.7-0.3c5.3-0.6,10.6-1.1,15.8-2.5c2.4-0.7,4.7-1.7,6.7-3.3c2.2-1.7,3.5-4,4.5-6.5c1.1-2.9,1.8-5.9,2.2-8.9
		c0.5-3.8,0.9-7.5,1.3-11.3c0-0.1,0.1-0.3,0.3-0.4c0.1,0.7,0.2,1.4,0.2,2.1c0.3,2.8,0.6,5.6,1,8.3c0.4,3.1,1,6.2,2,9.1
		c1.7,5.3,5.1,8.7,10.4,10.4c3,1,6.1,1.6,9.2,2c3,0.4,6,0.7,9,1.1c0.5,0.1,1,0.1,1.4,0.1C525.1,377.1,525.1,377.2,525.1,377.3z"/>
	<polygon points="157.5,251.5 165.6,267.9 183.8,270.6 170.6,283.4 173.7,301.5 157.5,292.9 141.3,301.5 144.4,283.4 
		131.2,270.6 149.4,267.9 	"/>
	<polygon points="843.9,248 852,264.4 870.1,267.1 857,279.9 860.1,298 843.9,289.4 827.6,298 830.7,279.9 
		817.6,267.1 835.8,264.4 	"/>
	<circle cx="108.8" cy="635.4" r="15.8"/>
	<circle cx="900" cy="616.7" r="15.8"/>
</g>
</svg>


