<?xml version="1.0" encoding="utf-8"?>
<!-- Generator: Adobe Illustrator 21.1.0, SVG Export Plug-In . SVG Version: 6.00 Build 0)  -->
<svg version="1.1" id="Слой_1" xmlns="http://www.w3.org/2000/svg" xmlns:xlink="http://www.w3.org/1999/xlink" x="0px" y="0px"
	 width="708.66px" height="812.705px" viewBox="0 0 708.66 812.705" style="enable-background:new 0 0 708.66 812.705;"
	 xml:space="preserve">
<style type="text/css">
	.st0{fill:none;stroke:#FF0600;stroke-miterlimit:10;}
	.st1{fill:none;stroke:#0049FF;stroke-miterlimit:10;}
</style>
<path class="st0" d="M56.062,738.164v-79.566c-27.256-24.602-50.203-52.081-50.203-89.884c0-37.845,23.125-65.445,50.203-89.884
	v-35.793h50.891v-43.773h497.121v43.773h50.891v35.793c27.257,24.6,50.203,52.082,50.203,89.884
	c0,37.846-23.126,65.444-50.203,89.884v79.566C649.733,738.164,63.733,738.164,56.062,738.164z"/>
<path class="st0" d="M654.964,116.847V81.053h-50.891V37.28H106.953v43.773H56.062v35.793
	c-27.078,24.439-50.203,52.038-50.203,89.884c0,37.803,22.947,65.282,50.203,89.884v79.566c7.67,0,593.671,0,598.902,0v-79.566
	c27.077-24.44,50.203-52.038,50.203-89.884C705.167,168.929,682.221,141.447,654.964,116.847z M637.956,289.054v70.119H73.07
	v-70.119c-22.109-19.955-50.203-45.137-50.203-82.324c0-36.77,27.296-61.647,50.203-82.324V98.061h50.891V54.288h463.105v43.773
	h50.891v26.346c22.094,19.941,50.203,45.122,50.203,82.323C688.159,242.364,662.976,266.473,637.956,289.054z"/>
<path class="st0" d="M123.835,301.784c0,0,1.724,16.706,13.945,19.569c-12.221,2.862-13.945,19.569-13.945,19.569
	s-1.724-16.707-13.945-19.569C122.112,318.491,123.835,301.784,123.835,301.784z"/>
<path class="st0" d="M566.795,301.784c0,0,1.724,16.706,13.945,19.569c-12.221,2.862-13.945,19.569-13.945,19.569
	s-1.724-16.707-13.945-19.569C565.072,318.491,566.795,301.784,566.795,301.784z"/>
<path class="st0" d="M64.689,212.019l-7.13,12.593l12.65-8.318l7.751,23.727l6.579-24.552l13.491,6.176l-7.877-10.239l19.738-6.881
	l-21.163-5.749l8.706-11.278l-13.763,6.858l-7.666-28.336l-6.888,29.292l-15.615-6.305l11.03,11.393l-20.866,6.084L64.689,212.019z"
	/>
<path class="st0" d="M629.356,212.019l-7.13,12.593l12.65-8.318l7.751,23.727l6.579-24.552l13.491,6.176l-7.877-10.239l19.738-6.881
	l-21.163-5.749l8.706-11.278l-13.763,6.858l-7.666-28.336l-6.888,29.292l-15.615-6.305l11.03,11.393l-20.866,6.084L629.356,212.019z
	"/>
<path class="st0" d="M222.665,168.243c-8.087,5.759-7.603,19.45,6.975,22.603c0.099-13.828,21.655-9.118,17.53,2.733
	c-9.993,28.496-29.579,87.081-29.579,87.081l-28.316-93.06c4.016,0.002,7.165,0.301,9.327,4.133
	c3.1-1.231,13.109-5.696,14.305-8.671c2.547-6.335-5.16-19.337-29.844-14.248c-16.975,8.811-34.163,6.052-46.379-5.879
	c12.477,6.008,27.064,6.973,40.474,1.081c2.271-6.331-1.072-10.386-2.942-14.31c-6.76-14.18,17.037-18.165,18.037-19.121
	c5.909-5.643-0.323-28.848-12.705-32.679c-6.733-2.083-11.574,2.153-14.423-1.144c-3.802-4.4-0.209-12.628,6.308-8.402
	c1.844,1.196,1.99,2.904,2.906,2.813c1.403-0.14,3.181-4.35,1.922-7.128c-2.642-5.834-16.778-3.471-18.109,10.507
	c-0.119,1.251-0.637,6.688,2.533,9.928c4.002,4.091,9.743,0.449,12.431,4.2c1.955,2.728,1.18,7.81-1.101,10.594
	c-2.953,3.605-21.5,4.053-25.493,6.564c-0.949,0.597-1.463,1.073-5.822,7.48c4.401,5.341,10.871,8.373,17.649,8.451
	c-7.363,1.697-15.115,1.423-22.653-1.118c-4.524,6.268-8.798,10.68-8.894,20.057c-4.373-0.424-9.028-1.419-15.311-5.318
	c-8.292-5.147-11.035-11.413-13.994-10.163c-6.882,2.907-3.248,36.296,19.624,44.82l38.101,122.257h5.39l24.707-72.63l22.451,72.63
	h5.387l40.413-117.907v0C260.35,174.439,236.695,158.252,222.665,168.243z M165.031,280.622l-27.17-88.948
	c10.015,6.405,22.687,8.508,34.836,7.923l9.42,29.846L165.031,280.622z M395.164,302.236c-5.95,33.382-63.657,31.92-86.404-5.264
	c-19.142-31.294-24.91-98.346-3.66-137.894c11.44-21.291,29.71-32.98,52.833-33.806c19.576-0.7,42.512,1.181,46.238,22.083
	c4.048,22.651-43.562,35.367-42.724,7.072c25.026,5.768,26.683-24.876-4.538-23.464c-41.202,1.853-43.557,84.374-43.61,100.898
	c-0.289,88.933,43.562,92.36,58.166,79.464c11.611-10.253-2.278-23.249-15.499-20.202
	C355.31,268.979,400.576,271.956,395.164,302.236z M469.585,281.491c5.465,12.497-13.408,22.411-30.387,22.411
	c-35.203,0-52.849-39.352-75.776-73.191c0,5.697-0.002,27.486,0,36.648c0.28,2.22,4.705,2.121,7.042,2.121v3.828h-31.942v-3.828
	c2.316,0,6.76,0.104,7.041-2.121c0-0.001,0-80.565,0-80.566c-0.281-2.225-4.737-2.121-7.041-2.121v-3.827h31.942v3.827
	c-3.666,0-5.504,0.053-6.399,1.055c-1.166,1.306-0.643,36.742-0.643,36.742s42.098-19.7,42.071-23.194
	c-0.027-3.446-8.133-8.518-15.241-2.45c-13.447-10.696,12.311-23.116,22.973-10.813c2.501,2.885,3.458,6.216,2.768,9.635
	c-1.887,9.345-10.959,12.001-38.072,25.318c28.551,41.783,47.677,83.038,70.822,77.386c14.841-3.623,7.398-16.666-5.234-9.92
	C433.818,275.325,463.636,267.889,469.585,281.491z M580.974,173.403c-8.277-9.934-21.433-15.493-34.471-17.306
	c0.768-1.547-0.736-3.726-3.629-3.604c0.755-1.635,1.688-4.039,1.713-5.974c0.714,0.308,2.317,1.234,3.03,1.542
	c-0.853-2.815-0.246-6.472,2.688-7.383l0.25,3.383c5.754-5.496,8.39-7.375,6.408-15.293c7.852,0.622,13.907-7.402,9.807-14.458
	c2.548-2.941,3.622-6.834,2.962-10.654c-2.801,1.022-5.269,2.739-7.238,5.036c-2.385-0.298-4.791-0.427-7.205-0.384
	c-2.692-2.383-7.291-6.226-7.291-6.226c-0.199,1.075-1.636,7.299,1.235,11.668c-1.698,1.078-3.251,0.587-4.421-0.448
	c-0.855-1.402-2.358-21.422-23.944-10.387c1.337,0.412,2.458,1.667,2.458,1.667s-6.511,2.083-8.219,7.852
	c-5.739-4.718-8.063-10.931-3.333-16.66c2.246-2.72,5.291-3.229,8.56-8.488c0.784,1.63,0.522,3.968,0.034,5.317
	c8.435-4.22,6.333-17.039-1.387-18.527c-4.732-0.912-8.715,2.827-8.389,5.827c0.128,1.178,0.883,2.68,2.016,2.88
	c2.501,0.44,2.651-2.808,3.979-3.269c0.542-0.188,1.35,0.007,1.543,1.292c0.781,5.175-8.19,4.764-13.69,11.695
	c-3.979,5.015-6.013,13.643-4.573,19.384c0,0,2.255-3.617,3.161-4.728c-0.359,3.379-0.343,7.678,1.589,10.524
	c0.297-1.369,1.377-3.681,1.675-5.05c0.484,3.357,2.304,6.382,5.201,8.349c0.083-0.885,0.249-2.656,0.249-2.656
	s2.261,1.507,3.391,2.261c-0.949,3.496-1.327,7.102-1.133,10.719c1.164-0.729,2.329-1.457,3.493-2.186
	c-1.461,2.92-2.238,6.124-2.279,9.388c0.442-1.362,1.522-2.34,2.845-2.699c2.382,3.23,1.794,7.676-1.536,10.065
	c2.478,3.652,4.956,7.304,7.434,10.956c-4.65,1.068-8.748,2.726-11.902,4.949c-7.304-4.94-18.01-4.398-26.789-4.398v4.593
	c4.903,0,10.124,0.147,10.124,3.993c0,37.629-0.132,113.181-0.132,113.181c0,4.035-5.861,3.993-10.123,3.993v4.593
	c9.106,0,18.987,0.527,25.968-3.85c21.704,10.303,80.338,12.679,84.41-55.898C596.593,210.065,592.455,187.192,580.974,173.403z
	 M569.106,216.492c-6.305-5.054-8.921-6.009-13.013-5.753c1.698-1.767,2.231-3.811,2.266-4.809
	c0.191-5.387-9.252-10.637-12.48-15.134v-29.622C567.171,166.519,569.26,194.722,569.106,216.492z M542.948,192.008
	c3.229,6.334,16.215,13.22,7.678,17.483c-1.039-4.383-4.068-7.617-7.885-9.971c-3.894,2.375-6.949,5.534-7.913,10.034
	c-1.795-1.109-3-2.89-2.952-4.365C531.942,202.903,541.655,193.917,542.948,192.008z M526.284,151.65
	c-0.612-1.947-2.023-23.382,6.902-18.907c5.205,2.61-0.045,7.681-1.271,15.294c0,0,3.199-0.433,4.065-0.866
	c-1.233,2.186-1.578,5.529-1.654,8.313c-1.292,0.052-2.563,0.144-3.813,0.272C530.513,155.757,530.79,150.342,526.284,151.65z
	 M540.509,160.343v29.261c-0.007,0.007-0.014,0.021-0.021,0.028c-9.597,12.961-18.128,13.953-10.948,21.134
	c-1.265-0.121-2.612-0.115-3.388-0.042c-1.024,0.41-3.696,1.745-6.237,3.515c0.004-15.5,0.007-30.924,0.007-45.832
	C519.921,164.878,529.064,159.626,540.509,160.343z M519.903,275.347c0-20.995,0.007-43.88,0.01-56.537
	c3.839-2.881,6.432-4.398,11.698-3.38c-1.91,1.161-7.241,8.357-7.241,8.357c-2.378,7.128,3.714,15.605,3.714,15.605
	s-0.874-13.086,4.372-19.049c-3.964,17.537,1.705,30.253,1.705,30.253s-0.152-22.205,4.615-31.639
	c3.96,1.98,5.475,1.145,7.872-0.159c5.312,12.507,6.306,27.648,6.306,27.648s4.067-9.099-0.208-26.345
	c6.287,6.395,4.982,20.261,4.982,20.261s3.702-4.259,4.13-16.229c-2.87-3.653-5.396-6.291-8.087-8.689
	c6.836-0.863,10.482,1.604,15.312,5.016c-0.011,2.59-0.01,5.16,0.023,7.802v0C570.027,303.75,519.903,285.783,519.903,275.347z
	 M421.553,219.443c0-41.668,58.443-60.207,65.728-6.613c-16.715,0-24.89-1.261-25.742,4.323c-0.518,3.457,3.939,4.774,7.618,4.857
	c-13.477,18.467-38.227-10.533-2.415-12.711c-0.329-14.279-1.365-24.291-9.759-24.291c-8.333,0-14.617,14.804-14.617,34.435
	c0,51.212,30.442,35.726,36.537,13.912h7.01C471.657,281.024,421.553,254.85,421.553,219.443z M276.73,179.791h8.9v3.841
	c-2.656,0-4.203-0.772-5.079,1.127c-1.871,4.055-0.666,82.258-0.666,82.258c0.227,2.182,3.456,2.083,5.745,2.083v3.841h-26.428
	v-3.841c2.415,0,5.526,0.106,5.749-2.18c0,0-0.005-81.204-0.005-81.205c-0.227-2.183-3.464-2.083-5.744-2.083v-3.841h9.595
	c-8.39-13.845-15.244-17.581-11.7-31.934c2.593-10.501,10.768-16.079,13-17.5c-8.81,19.37,1.702,23.846,6,32.25
	C278.621,167.543,281.737,173.019,276.73,179.791z"/>
<path class="st1" d="M238.973,441.727c1.573,2.32,2.044,6.058,0.639,9.237c-2.934,6.638-12.131,7.483-18.31,3.866l-1.138,1.302
	h-2.275l-0.261-11.615h2.443c4.517,12.893,13.302,10.487,13.302,4.986c0-6.88-15.055-3.027-15.055-15.214
	c0-7.789,9.079-12.027,17.219-7.417l0.992-1.102h2.312l0.161,11.015h-2.443c-0.661-1.946-1.685-4.664-2.904-6.323
	c-4.455-5.955-11.173,0.193-7.464,3.996C228.864,437.201,235.884,437.176,238.973,441.727z M256.613,456.94
	c-17.084,0-19.26-24.999-5.597-30.83c5.222-2.227,11.791-1.235,15.985,3.081l0.001,0C275.139,437.586,271.962,456.94,256.613,456.94
	z M256.741,427.97c-8.284,0-7.578,21.176-2.803,25.048C263.921,461.113,267.07,427.97,256.741,427.97z M305.983,451.308
	c0-15.922-0.552-20.691,0.439-22.181c0.526-0.79,1.485-0.658,3.192-0.778v-2.58h-12.502c-0.127,2.567-1.011,4.586-5.729,18.284
	l-6.062-18.284H272.47v2.576c5.433,0.432,4.235,1.776,4.235,18.762c0,5.736-0.636,5.964-4.438,6.474v2.552h12.187v-2.554
	c-5.625-0.724-4.585-1.877-4.585-21.413c7.266,22.269,7.172,21.887,7.561,23.491h3.06l8.093-23.336
	c0,14.258,0.671,18.721-0.412,20.252c-0.58,0.82-1.663,0.799-3.622,0.992v2.567h15.102v-2.552
	C306.949,453.219,305.983,453.031,305.983,451.308z M330.815,452.817c-1.874,0.58-5.466,0.477-6.506,0.314
	c-2.088-0.323-1.657-1.604-1.657-11.276c3.605,0,5.735-0.592,6.486,5.297h2.334v-13.25h-2.326c-0.804,5.506-2.791,5.07-6.494,5.07
	v-10.319c5.007,0,8.352-1.065,10.485,5.608h2.259v-8.491h-24.068v2.548c3.548,0.504,3.813,1.146,3.813,2.401
	c0,14.763,0.598,19.834-0.22,21.658c-0.504,1.123-1.545,1.015-3.594,1.18v2.576h25.381l0.549-10.146h-2.226
	C334.546,447.434,332.324,452.35,330.815,452.817z M337.385,435.171h2.303c2.053-6.865,4.017-6.56,7.05-6.56
	c0,15.925,0.58,21.505-0.133,23.549c-0.487,1.396-1.576,1.144-3.865,1.413v2.56h15.505v-2.553c-2.134-0.281-3.215-0.169-3.739-1.438
	c-0.83-2.013-0.258-7.499-0.258-23.53c2.829,0,4.894-0.651,7.05,6.56h2.303v-9.401h-26.215V435.171z M381.798,428.323
	c1.397,0.182,2.301,0.355,2.88,0.727c1.443,0.929,0.861,3.098,0.861,9.736h-10.112c0-6.948-0.476-9.113,0.769-9.899
	c0.566-0.357,1.487-0.43,2.971-0.538v-2.579h-15.064v2.563c1.777,0.193,2.778,0.162,3.328,1.062
	c1.023,1.674,0.486,6.567,0.486,22.099c0,1.684-0.874,1.919-3.813,2.045v2.593h15.064v-2.577c-1.652-0.128-2.612-0.245-3.16-0.782
	c-1.055-1.035-0.58-3.629-0.58-10.856h10.112c0,7.754,0.435,10.175-0.488,11.025c-0.528,0.486-1.5,0.458-3.254,0.619v2.571h15.065
	v-2.577c-1.539-0.119-2.502-0.076-3.096-0.57c-1.426-1.184-0.718-5.458-0.718-22.474c0-1.406,0.385-1.921,3.814-2.162v-2.58h-15.065
	V428.323z M398.284,428.322c0.962,0.128,3.371,0.475,3.766,1.357c0.326,0.74,0.313,22.286-0.001,22.931
	c-0.439,0.896-1.997,0.799-3.765,0.948v2.575h15.432v-2.582c-3.49-0.238-3.961-0.863-3.961-2.243
	c0-15.468-0.481-20.367,0.383-21.993c0.534-1.005,1.583-0.759,3.577-0.985v-2.56h-15.432V428.322z M433.86,428.296
	c5.345,1.039,4.565,1.495,4.565,16.274l-13.47-18.8h-10.552v2.56c5.929,1.266,4.547,3.714,4.547,18.778
	c0,5.011-0.226,6.092-4.438,6.452v2.573H426.7v-2.527c-5.504-1.061-4.585-1.221-4.585-18.946l15.453,21.639h4.021
	c0-19.419-0.552-25.027,0.986-26.871c0.674-0.808,1.751-0.893,3.451-1.101v-2.557H433.86V428.296z M462.117,441.579v2.543
	c4.733,0.718,3.943,2.787,3.943,8.197c-0.941,0.873-2.469,1.531-4.323,1.531c-8.863,0-9.41-25.88,0.146-25.88
	c4.725,0,6.579,5.034,7.876,9.519h2.498l-0.181-11.719h-2.295l-1.019,1.019c-2.598-1.372-4.992-1.826-7.137-1.826
	c-21.709,0-20.089,38.828,5.969,30.858c3.175-0.971,4.675-1.809,5.783-2.558c0-7.01-0.648-8.694,3.254-9.122v-2.562H462.117z
	 M276.32,506.706c-4.321-8.446-14.737-12.815-5.995-32.033l0.349-0.767c-6.887,4.386-11.923,10.424-13.819,18.103
	c-3.545,14.363,3.167,18.132,11.498,31.745h-9.4v4.341l0.537,0c2.239,0.004,5.014-0.008,5.207,1.834l0.006,81.181
	c-0.202,2.085-3.211,1.957-5.75,1.955v4.341h26.928v-4.341c-2.37,0.002-5.538,0.139-5.745-1.837
	c-1.398-93.207-0.585-83.131,5.495-83.131h0.25v-4.341h-8.662C281.9,517.05,278.814,511.578,276.32,506.706z M285.379,524.254v3.338
	c-6.261-0.111-7.187-9.556-5.744,83.664c0.241,2.318,3.411,2.308,5.744,2.308v3.341h-25.928v-3.341h0.058
	c2.428-0.004,5.455,0.01,5.691-2.431l-0.006-81.231c-0.242-2.319-3.403-2.308-5.743-2.308v-3.34h9.789
	c-8.665-14.324-15.418-17.878-11.9-32.124c2.247-9.102,8.801-14.584,12.181-16.881c-6.326,14.467-1.728,20.48,2.722,26.299
	c5.748,7.52,9.616,15.098,4.286,22.308l-0.295,0.398H285.379z M355.725,635.649l0.297-0.068c12.928-2.983,26.7,9.684,15.278,19.771
	c-14.595,12.883-58.039,9.144-57.751-79.275c0.054-16.484,2.396-98.807,43.372-100.649c30.812-1.396,29.274,28.661,4.582,22.971
	l-0.297-0.068c-0.185,6.421,1.81,11.82,7.428,14.776c13.202,6.946,38.821-4.587,35.783-21.58
	c-3.761-21.094-26.827-22.99-46.493-22.289c-23.218,0.829-41.56,12.564-53.044,33.938c-25.414,47.295-19.802,167.412,55.948,167.412
	c16.799,0,31.688-7.861,34.582-24.092C400.86,615.999,355.057,612.5,355.725,635.649z M369.909,669.268
	c-19.458,3.667-46.64-4.845-60.936-28.213c-27.211-44.487-29.576-168.514,48.969-171.319c20.626-0.741,42.377,1.65,45.983,21.877
	c1.532,8.574-4.421,14.376-8.106,17.072c-12.481,9.132-34.458,9.189-34.128-9.733c25.144,5.547,26.673-25.461-4.792-24.025
	c-41.429,1.862-43.796,84.583-43.85,101.146c-0.194,59.659,19.25,77.388,30.857,82.646c18.04,8.173,36.874-4.586,31.047-15.918
	c-2.702-5.253-10.417-9.551-18.743-7.774c-0.147-14.513,19.928-17.671,31.284-9.364
	C401.666,636.032,397.354,664.094,369.909,669.268z M172.878,543.551c-12.602,0.608-24.788-1.414-35.455-8.24l27.597,90.346
	c0.042-0.124,17.319-51.874,17.36-51.999C182.289,573.37,172.975,543.859,172.878,543.551z M165.041,624.014l-26.745-87.558
	c11.396,7.041,24.824,8.041,34.221,7.612l9.338,29.585L165.041,624.014z M222.521,512.252c-8.282,5.897-7.711,19.855,7.066,23.051
	l0.301,0.065c0.022-3.498,1.224-6.432,4.436-7.817c5.872-2.531,15.439,2.034,12.61,10.158c-9.271,26.44-27.022,79.442-29.331,86.342
	l-27.989-91.987c4.256,0.023,6.81,0.53,8.878,4.195c3.141-1.252,13.39-5.763,14.647-8.891c2.729-6.787-5.653-19.633-30.126-14.586
	l-0.064,0.023c-15.914,8.26-32.607,6.452-44.969-4.78c12.85,5.744,26.743,5.956,39.379,0.389l0.036-0.101
	c1.922-5.357-0.113-9.145-1.909-12.486c-0.374-0.696-0.728-1.353-1.043-2.015c-1.382-2.899-1.549-5.579-0.497-7.964
	c2.604-5.903,11.803-8.701,16.224-10.045c1.457-0.443,2.056-0.63,2.258-0.823c2.422-2.313,3.003-7.671,1.517-13.984
	c-1.855-7.883-7.003-16.85-14.319-19.114c-3.282-1.015-6.161-0.548-8.474-0.175c-2.482,0.402-4.442,0.718-5.834-0.895
	c-2.158-2.498-1.782-6.009-0.195-7.83c1.487-1.707,3.738-1.781,6.178-0.198c0.893,0.579,1.365,1.28,1.746,1.843
	c0.387,0.573,0.735,1.069,1.32,1.008c0.531-0.053,1.091-0.545,1.576-1.386c0.921-1.598,1.405-4.205,0.549-6.094
	c-1.08-2.386-4.013-3.557-7.47-2.98c-4.604,0.767-10.278,4.78-11.115,13.566c-0.535,5.623,1.12,8.61,2.603,10.126
	c2.111,2.158,4.716,2.237,7.014,2.307c2.226,0.068,4.147,0.126,5.393,1.864c1.96,2.735,1.04,7.688-1.091,10.29
	c-1.603,1.957-8.344,3.006-14.292,3.931c-4.81,0.749-9.354,1.456-11.141,2.58c-1.008,0.633-1.534,1.139-5.896,7.55l-0.105,0.155
	c4.243,5.164,10.001,8.016,16.01,8.583c-6.779,1.23-13.837,0.792-20.796-1.561c-4.71,6.493-8.87,10.889-9.045,20.077
	c-4.056-0.414-8.683-1.376-14.933-5.255c-3.795-2.355-6.373-4.9-8.444-6.944c-2.426-2.394-4.027-3.976-5.779-3.237
	c-2.158,0.912-3.38,4.592-3.267,9.845c0.233,10.877,6.496,29.25,22.786,35.395c0.084,0.271,38.036,122.045,38.12,122.316h5.752
	l24.517-72.07c0.092,0.296,22.189,71.782,22.278,72.07h5.75L253.81,538.69C260.72,518.339,236.61,502.216,222.521,512.252z
	 M253.337,538.528l-40.355,117.738h-5.023l-22.624-73.189l-24.897,73.189h-5.027c-0.06-0.192-38.024-122.007-38.083-122.199
	l-0.115-0.043c-16.142-6.015-22.345-24.215-22.575-34.981c-0.106-4.965,1.028-8.557,2.962-9.374c1.439-0.612,2.95,0.879,5.232,3.131
	c1.979,1.954,4.689,4.629,8.532,7.014c6.476,4.02,11.237,4.949,15.418,5.355l0.271,0.026c0.101-9.45,4.009-13.498,8.741-20.037
	c8.883,2.952,16.252,2.533,24.652,0.596c-7.611-0.087-14.038-1.8-19.431-8.24c4.195-6.162,4.73-6.68,5.642-7.253
	c1.7-1.069,6.194-1.768,10.952-2.508c6.331-0.985,12.878-2.004,14.602-4.109c2.246-2.742,3.198-7.984,1.11-10.897
	c-1.39-1.939-3.524-2.004-5.784-2.073c-2.311-0.07-4.7-0.143-6.671-2.157c-1.409-1.44-2.979-4.297-2.462-9.729
	c0.81-8.503,6.27-12.382,10.699-13.12c3.227-0.537,5.949,0.519,6.933,2.693c0.786,1.736,0.33,4.15-0.527,5.638
	c-0.391,0.678-0.836,1.104-1.191,1.139c-0.282,0.018-0.493-0.251-0.857-0.791c-0.384-0.569-0.91-1.35-1.889-1.984
	c-2.63-1.706-5.183-1.598-6.826,0.29c-1.724,1.978-2.14,5.784,0.193,8.485c1.575,1.823,3.76,1.47,6.293,1.061
	c2.38-0.384,5.078-0.82,8.245,0.159c7.128,2.205,12.158,11.006,13.981,18.751c1.445,6.142,0.918,11.317-1.375,13.508
	c-0.14,0.123-1.071,0.407-2.059,0.707c-4.492,1.366-13.84,4.209-16.536,10.322c-1.113,2.524-0.943,5.344,0.504,8.38
	c0.321,0.674,0.677,1.336,1.054,2.037c1.819,3.386,3.701,6.886,1.915,11.979c-12.89,5.629-26.695,5.367-41.542-1.782
	c14.622,14.276,31.868,15.225,47.729,7.004c23.983-4.931,32.111,7.495,29.527,13.917c-1.113,2.77-10.477,7.046-13.965,8.452
	c-2.282-3.866-5.601-4.071-9.772-4.071c0.429,1.409,28.261,92.881,28.643,94.132l0.248-0.743
	c31.011-93.033,33.077-90.645,27.568-95.769c-4.982-4.634-15.703-4.094-16.001,5.565c-14.022-3.219-14.485-16.463-6.585-22.089
	h-0.001c6.266-4.459,15.332-3.84,22.566,1.542C251.637,518.859,257.015,527.696,253.337,538.528z M569.334,564.544
	c-5.792-4.092-8.915-5.977-16.14-5.066c2.925,2.602,5.356,5.071,8.41,8.951c-0.335,8.986-2.552,13.595-3.563,15.25
	c0.388-7.178-0.671-15.024-5.759-20.193c3.039,12.218,2.433,20.769,0.822,25.993c-1.164-12.359-4.612-23.438-6.353-26.81
	c-2.807,1.528-4.037,2.192-8.088,0.167c-3.77,7.458-4.642,22.308-4.745,30.642c-2.803-7.973-3.617-18.237-1.003-29.822
	c-4.425,5.032-5.329,12.384-5.123,19.054c-1.384-2.208-5.076-8.883-3.198-14.592c1.67-2.242,5.38-7.187,7.7-8.596
	c-5.703-1.104-7.983-0.109-12.632,3.378c-0.005,17.026-0.011,40.186-0.011,56.662c0,2.208,2.071,4.711,5.539,6.695
	c7.165,4.098,17.11,4.625,25.282-0.183C570.951,614.027,569.229,578.538,569.334,564.544z M525.44,625.821
	c-3.261-1.865-5.287-4.265-5.287-6.261c0-16.397,0.006-39.511,0.011-56.412c3.793-2.837,6.197-4.129,10.832-3.362
	c-1.666,1.385-6.416,7.272-6.862,8.134c-1.793,5.374,0.924,11.901,4.259,16.541c-0.385-5.734,0.231-14.214,3.593-18.909
	c-2.353,11.402-0.946,22.863,2.435,30.45c-0.056-8.534,0.74-24.832,4.47-32.498c3.768,1.824,5.375,1.083,7.636-0.143
	c3.536,8.444,5.692,19.817,6.245,28.319c3.314-7.406,2.308-18.528,0.449-26.47c4.04,4.878,4.771,13.864,4.188,20.114
	c3.507-4.038,4.534-11.749,4.704-17.062c-2.438-3.09-4.74-5.684-7.759-8.421c6.471-0.656,10.037,1.821,14.48,4.96
	c-0.012,3.027-0.004,5.399,0.024,7.676C569.55,629.401,540.353,634.35,525.44,625.821z M526.119,496.171
	c3.078-0.891,4.287,0.933,4.129,4.078c1.739-0.179,2.756-0.245,4.321-0.311c0.18-6.149,1.27-7.796,2.029-9.144
	c-0.777,0.389-0.99,0.659-4.38,1.16c1.309-7.346,6.435-12.535,1.079-15.222c-9.151-4.588-8.03,16.732-7.252,19.206L526.119,496.171z
	 M533.074,477.18c3.204,1.607,2.217,4.149,0.723,7.998c-1.051,2.707-1.725,4.538-2.182,7.366c1.104-0.15,2.791-0.407,3.857-0.712
	c-0.815,1.766-1.281,4.326-1.389,7.626c-1.094,0.048-2.207,0.127-3.317,0.236c-0.034-2.873-1.437-4.842-4.302-4.139
	C525.849,492.671,524.815,473.033,533.074,477.18z M526.21,555.183c1.484-0.134,2.998,0.016,3.998,0.112
	c-7.705-7.705,0.306-7.551,10.477-21.301l0.073-0.073v-29.6c-9.033-0.565-16.277,2.332-19.386,5.253
	c-2.282,2.145-1.696-0.868-1.706,39.272l-0.002,10.085C522.33,557.072,524.844,555.737,526.21,555.183z M520.171,512.62
	c0-3.26,8.78-8.463,20.087-7.829v28.942c-9.291,12.529-17.884,13.991-11.359,20.944c-2.334-0.148-2.995-0.581-8.734,3.3
	C520.168,541.74,520.171,529.218,520.171,512.62z M581.166,517.456c-7.479-8.976-19.972-15.289-34.313-17.349
	c0.49-1.581-0.898-3.573-3.59-3.653c0.689-1.544,1.439-3.581,1.559-5.336c1.253,0.617,1.663,0.94,3.191,1.6
	c-1.279-4.222,0.211-6.727,2.066-7.48l0.266,3.584c6.028-5.741,8.822-7.699,6.941-15.568c7.831,0.391,13.765-7.598,9.787-14.701
	c2.437-2.889,3.604-6.661,2.854-11.021c-2.915,1.063-5.355,2.602-7.534,5.109c-2.316-0.283-4.676-0.408-7.011-0.371
	c-2.096-1.852-5.409-4.65-7.552-6.441c-0.737,3.937-1.211,8.389,1.053,12.052c-1.633,0.911-2.996,0.239-3.874-0.524
	c-1.062-2.141-2.53-21.565-24.804-10.17c0.992,0.305,1.607,0.497,2.669,1.508c-1.395,0.544-6.277,2.753-7.894,7.522
	c-3.273-2.774-5.157-5.852-5.454-8.917c-0.24-2.494,0.58-4.901,2.439-7.154c0.832-1.007,1.8-1.722,2.824-2.478
	c1.661-1.226,3.534-2.609,5.494-5.627c0.593,1.731,0.248,3.584-0.365,5.279c4.856-2.428,6.633-6.696,6.024-11.118
	c-0.586-4.259-3.301-7.461-6.916-8.158c-2.44-0.47-4.977,0.245-6.788,1.913c-1.339,1.233-2.047,2.799-1.896,4.187
	c0.146,1.357,1.018,2.887,2.221,3.099c1.718,0.303,2.444-0.973,3.031-1.996c0.335-0.584,0.651-1.136,1.072-1.282
	c0.231-0.083,0.478-0.059,0.674,0.06c0.277,0.167,0.464,0.524,0.541,1.032c0.39,2.586-1.851,3.692-4.952,5.224
	c-2.714,1.34-6.093,3.008-8.688,6.278c-3.995,5.036-6.066,13.828-4.618,19.6l0.143,0.57c0.799-1.28,2.037-3.236,2.929-4.497
	c-0.452,5.616,0.644,8.23,2.042,10.285c0.43-1.991,0.878-2.72,1.502-4.587c0.768,3.352,2.63,5.786,5.461,7.708l0.25-2.66
	l2.894,1.928c-1.028,3.868-1.274,7.38-1.071,11.048l3.126-1.957c-2.058,4.561-1.93,8.279-1.956,10.365
	c0.498-1.537,0.826-3.354,3.016-4.052c2.058,2.929,1.829,7.128-1.779,9.714l7.366,10.856c-4.604,1.092-8.47,2.708-11.494,4.807
	c-7.388-4.896-18.044-4.346-27.036-4.346v5.093h0.25c5.402,0,9.874,0.282,9.874,3.743c0,37.198-0.131,112.425-0.132,113.181
	c0,3.778-5.769,3.772-9.742,3.743h-0.381v5.093c9.326,0,19.173,0.538,26.234-3.815c14.789,6.954,39.107,8.318,57.18-2.371
	C603.872,604.966,601.655,542.065,581.166,517.456z M568.044,625.578c-19.457,11.51-44,8.354-56.958,2.232
	c-6.939,4.344-16.237,3.896-25.701,3.884v-4.093c4.112,0,10.123,0.009,10.123-4.243c0.001-0.755,0.132-75.982,0.132-113.181
	c0-4.163-5.771-4.242-10.124-4.243v-4.093c9.216-0.013,19.298-0.46,26.542,4.452c3.738-2.635,7.871-4.075,12.312-5.091l-7.504-11.06
	c3.081-2.359,3.994-6.747,1.293-10.409c-1.093,0.297-1.982,0.829-2.646,1.811c0.285-4.145,1.612-6.919,2.604-8.898l-3.886,2.432
	c-0.153-3.715,0.292-7.055,1.191-10.389l-3.89-2.592l-0.248,2.644c-3.447-2.52-4.399-5.533-4.941-9.303
	c-0.796,3.666-1.087,3.368-1.819,5.833c-1.769-3.089-1.513-7.327-1.157-10.71c-0.814,1-1.225,1.471-3.388,4.892
	c-1.144-5.635,0.88-13.822,4.658-18.583c5.478-6.905,14.56-6.457,13.741-11.888c-0.2-1.32-1.075-1.765-1.873-1.49
	c-1.482,0.515-1.537,3.662-3.854,3.259c-1.309-0.231-3.29-3.461-0.072-6.426c4.312-3.971,11.813-1.733,12.87,5.946
	c0.461,3.354-0.545,7.678-4.661,10.038c0.588-2.206,0.274-3.872-0.426-5.327c-4.54,7.309-12.116,8.246-11.332,16.368
	c0.385,3.983,3.128,7.206,6.21,9.731c1.22-4.146,4.743-6.951,8.529-8.164c-0.655-0.732-1.365-1.382-2.289-1.816
	c6.318-3.133,11.468-3.837,15.315-2.087c6.383,2.9,7.195,11.634,7.803,12.634c0.845,1,2.85,1.747,4.769,0.528l0.215-0.136
	c-1.508-2.293-2.502-5.572-1.418-11.279c2.29,1.921,4.798,4.047,7.033,6.014c2.558-0.038,4.749,0.068,7.4,0.397
	c1.921-2.256,4.203-3.908,6.937-4.96c0.531,3.573-0.431,7.25-3.069,10.284c4.059,6.971-1.548,14.875-9.828,14.21
	c1.973,7.836-0.083,9.523-5.871,15.025l-0.233-3.17c-3.241,1.005-3.966,4.375-3.295,7.257c-1.153-0.582-1.704-0.947-2.895-1.461
	c-0.031,2.37-0.837,4.391-1.866,6.619c2.685-0.112,4.733,1.352,3.649,3.537c13.075,1.82,26.354,7.301,34.656,17.267
	C601.024,542.088,603.431,604.647,568.044,625.578z M442.094,624.582c-1.523,2.887-0.595,5.773,1.342,8.385
	c12.595-6.717,19.692,5.829,5.247,9.355c-22.902,5.596-41.951-35.375-70.394-77.046c4.41-2.164,8.352-4.051,11.837-5.719
	c17.839-8.54,24.515-11.736,26.111-19.646c0.706-3.497-0.271-6.902-2.824-9.848c-8.212-9.477-25.395-4.544-27.077,3.353
	c-0.689,3.235,1.343,5.9,3.922,7.947l0.156-0.134c6.926-5.911,14.805-0.985,14.829,2.262c0.019,2.429-24.719,14.9-41.577,22.801
	c-0.202-14.121-0.212-35.135,0.585-36.185c0.829-0.929,2.701-0.972,6.213-0.972h0.25v-4.327h-32.442v4.327
	c2.403-0.002,6.792-0.089,7.041,1.871l0.002,80.535c-0.258,2.035-4.892,1.904-7.043,1.902v4.328h32.442v-4.328l-0.537,0
	c-2.171-0.001-6.266,0.01-6.505-1.872c-0.002-6.803-0.001-20.567,0-29.537v-6.294c22.781,33.802,40.405,72.625,75.526,72.625
	c12.567,0,25.048-5.135,29.676-12.21c2.178-3.329,2.503-6.978,0.94-10.551C465.123,614.878,446.105,616.977,442.094,624.582z
	 M439.199,647.866c-35.094,0-52.651-39.268-76.026-73.756c0,14.632-0.003,29.119,0.002,37.494c0.301,2.382,4.617,2.34,7.04,2.34
	v3.327h-31.442v-3.327h0.048c2.488-0.007,6.693,0.011,6.993-2.371l-0.002-80.597c-0.301-2.386-4.611-2.34-7.039-2.34v-3.327h31.442
	v3.327c-3.594,0.003-5.384,0.073-6.336,1.139c-1.236,1.385-0.729,35.411-0.7,37.298c3.291-1.536,42.592-19.969,42.565-23.586
	c-0.028-3.631-8.247-8.772-15.494-2.772c-2.764-2.255-3.947-4.739-3.424-7.195c1.591-7.469,18.25-12.315,26.211-3.13
	c2.448,2.824,3.386,6.082,2.711,9.422c-1.548,7.666-8.161,10.833-25.838,19.294c-3.205,1.535-7.971,3.815-12.358,5.976l0.163,0.238
	c26.867,39.32,45.307,78.022,66.742,78.019c1.434,0,2.882-0.173,4.346-0.531c15.123-3.691,7.64-17.176-5.219-10.485
	c-1.886-2.638-2.248-5.23-1.047-7.507c3.842-7.286,22.315-9.311,26.819,0.989C474.85,638.366,455.293,647.866,439.199,647.866z
	 M534.996,554.165c0.984-4.596,3.659-7.616,7.742-10.139c3.96,2.475,6.671,5.6,7.716,10.042c9.351-4.675-3.839-11.21-7.477-18.338
	C537.692,543.539,526.059,548.638,534.996,554.165z M542.912,536.685c3.518,6.262,15.368,12.635,7.879,16.652
	c-1.147-4.39-4.188-7.501-8.051-9.897c-3.909,2.392-6.993,5.428-8.078,9.922C528.073,548.84,536.266,544.991,542.912,536.685z
	 M486.248,577.319h-7.535c-3.726,13.148-14.335,21.396-22.088,20.333c-20.531-2.815-17.282-68.18,0.357-68.18
	c8.247,0,9.184,10.299,9.503,23.806c-35.883,2.319-11.061,32.186,3.155,12.706c-2.339-0.052-5.712-0.464-7.221-2.257
	c-0.554-0.658-0.768-1.439-0.635-2.323c0.675-4.419,6.361-4.34,17.7-4.18c2.985,0.042,5.109,0.069,8.081,0.069
	c-7.284-54.253-66.264-35.59-66.264,6.363c0,20.926,16.944,37.462,32.77,39.778c16.616,2.431,27.236-9.599,32.079-25.794
	L486.248,577.319z M454.146,602.94c-15.619-2.286-32.343-18.616-32.343-39.283c0-41.271,57.786-59.764,65.19-6.863
	c-2.73-0.002-5.26-0.038-7.501-0.069c-11.629-0.164-17.461-0.245-18.201,4.605c-0.155,1.032,0.097,1.948,0.747,2.72
	c1.61,1.913,5.053,2.321,6.633,2.405c-13.207,17.242-37.129-10.546-1.674-12.708c-0.331-13.609-1.072-24.775-10.015-24.775
	c-18.295,0-21.569,66.278-0.426,69.176c8.619,1.174,19.097-8.303,22.535-20.329h6.483
	C480.784,593.549,470.399,605.315,454.146,602.94z M555.467,555.241c4.55-0.284,6.68,0.193,13.885,5.982
	c0.171-22.571-1.825-50.682-23.723-56.157v30.023C550.506,541.896,563.611,546.757,555.467,555.241z M546.129,505.709
	c20.287,5.353,22.85,31.799,22.729,54.479c-5.902-4.683-8.524-5.642-12.18-5.516c6.747-8.046-6.273-13.884-10.55-19.745V505.709z
	 M313.537,714.129h-4.442l-6.46-20.566l-5.836,20.566h-4.448c0,0-7.664-25.733-8.241-26.401c-1.274-1.465-2.261-1.554-3.606-1.745
	v-2.548h14.882v2.509c-1.378,0.187-2.234,0.268-3.234,0.768c-0.167,0.512,4.576,16.206,4.745,16.78l5.563-20.057h4.64l6.462,20.805
	c2.246-7.903,4.897-16.567,4.102-17.259c-0.814-0.708-2.609-0.809-3.876-0.94v-2.606h11.471v2.604
	C320.839,686.523,321.175,689.254,313.537,714.129z M354.066,711.22v2.578h-15.175v-2.575c0.54-0.044,3.364-0.394,3.68-0.815
	l-2.272-6.439h-8.283c-1.543,4.18-2.035,6.076-1.035,6.6c0.821,0.431,2.311,0.571,3.227,0.663v2.567h-11.673v-2.582
	c4.79-0.326,4.589-3.139,13.85-28.195h4.368c1.723,4.78,4.069,11.319,5.75,16.103C350.446,710.362,350.123,710.925,354.066,711.22z
	 M336.13,692.312l-3.011,8.609h6.065L336.13,692.312z M371.111,686.02c0.95,0.057,3.242,0.134,3.242,1.082
	c-0.012,0.889-4.637,9.01-5.567,10.678c-0.521-0.981-5.348-10.085-5.431-11.196c0-0.472,3.002-0.535,3.475-0.55v-2.599h-15.908
	v2.579c0.851,0.062,1.974,0.18,2.7,0.636c2.299,1.512,8.509,14.271,8.838,15.271c0.204,0.647,0.124,2.13,0.124,7.094
	c0,2.112-1.376,1.996-3.997,2.208v2.576h15.505v-2.573c-1.039-0.089-3.364-0.351-3.793-1.316c-0.381-0.861-0.237-7.383,0.009-8.401
	c0.245-1,6.702-13.319,8.976-14.757c0.823-0.551,1.532-0.642,2.474-0.761v-2.555h-10.646V686.02z M170.863,683.435h26.215v9.401
	h-2.303c-2.156-7.211-4.22-6.56-7.05-6.56c0,16.031-0.572,21.517,0.258,23.531c0.524,1.269,1.605,1.158,3.739,1.438v2.553h-15.505
	v-2.56c2.288-0.268,3.378-0.016,3.865-1.413c0.713-2.045,0.133-7.624,0.133-23.549c-3.033,0-4.997-0.305-7.05,6.56h-2.303V683.435z
	 M215.276,683.435h15.065v2.58c-3.43,0.241-3.814,0.756-3.814,2.162c0,17.016-0.708,21.29,0.718,22.474
	c0.594,0.493,1.558,0.451,3.096,0.569v2.577h-15.065v-2.571c1.753-0.161,2.726-0.133,3.254-0.619
	c0.922-0.85,0.488-3.272,0.488-11.025h-10.112c0,7.227-0.474,9.821,0.58,10.856c0.548,0.538,1.507,0.655,3.16,0.782v2.577H197.58
	v-2.593c2.939-0.126,3.813-0.362,3.813-2.045c0-15.532,0.537-20.425-0.486-22.099c-0.55-0.9-1.551-0.87-3.328-1.062v-2.563h15.064
	v2.579c-1.483,0.108-2.405,0.181-2.971,0.538c-1.245,0.786-0.769,2.951-0.769,9.899h10.112c0-6.638,0.582-8.807-0.861-9.736
	c-0.579-0.372-1.483-0.545-2.88-0.727V683.435z M231.762,683.435h15.432v2.56c-1.994,0.226-3.043-0.019-3.577,0.985
	c-0.865,1.626-0.383,6.525-0.383,21.993c0,1.38,0.471,2.005,3.961,2.243v2.582h-15.432v-2.575c1.768-0.149,3.325-0.053,3.765-0.948
	c0.314-0.645,0.327-22.192,0.001-22.931c-0.395-0.882-2.803-1.229-3.766-1.357V683.435z M257.074,692.123
	c-3.709-3.802,3.009-9.951,7.464-3.996c1.219,1.659,2.243,4.377,2.904,6.323h2.443l-0.161-11.015h-2.312l-0.992,1.102
	c-8.14-4.61-17.219-0.371-17.219,7.417c0,12.187,15.055,8.334,15.055,15.214c0,5.501-8.784,7.908-13.302-4.986h-2.443l0.261,11.615
	h2.275l1.138-1.302c6.178,3.618,15.376,2.773,18.31-3.866c1.406-3.18,0.934-6.917-0.639-9.237
	C266.767,694.842,259.747,694.866,257.074,692.123z M521.96,692.123c-3.709-3.802,3.009-9.951,7.464-3.996
	c1.219,1.659,2.243,4.377,2.904,6.323h2.443l-0.161-11.015h-2.312l-0.992,1.102c-8.14-4.61-17.219-0.371-17.219,7.417
	c0,12.187,15.055,8.334,15.055,15.214c0,5.501-8.784,7.908-13.302-4.986h-2.443l0.261,11.615h2.275l1.138-1.302
	c6.178,3.618,15.376,2.773,18.31-3.866c1.406-3.18,0.934-6.917-0.639-9.237C531.654,694.842,524.633,694.866,521.96,692.123z
	 M417.208,698.844c0,20.606,29.23,21.596,29.23-0.52C446.438,677.303,417.208,676.962,417.208,698.844z M425.478,698.637
	c0-17.856,12.689-17.852,12.689-0.167C438.167,716.552,425.478,715.904,425.478,698.637z M414.4,704.159l2.309,1.576
	c-4.357,10.064-12.798,9.748-17.636,7.719c-18.289-7.679-5.527-39.526,12.986-29.108l1.03-1.03h2.231l0.18,11.672h-2.418
	c-3.937-14.089-14.309-12.683-14.309,3.109C398.773,712.969,408.956,714.677,414.4,704.159z M484.741,711.246v2.552h-15.102v-2.567
	c1.959-0.193,3.042-0.172,3.622-0.992c1.082-1.531,0.412-5.994,0.412-20.252l-8.093,23.336h-3.06
	c-0.389-1.603-0.294-1.222-7.561-23.491c0,19.536-1.04,20.689,4.585,21.413v2.554h-12.187v-2.552
	c3.801-0.509,4.438-0.737,4.438-6.474c0-16.986,1.198-18.33-4.235-18.762v-2.576h12.852l6.062,18.284
	c4.717-13.698,5.602-15.717,5.729-18.284h12.502v2.58c-1.706,0.12-2.666-0.012-3.192,0.778c-0.991,1.49-0.439,6.258-0.439,22.181
	C481.074,710.696,482.04,710.885,484.741,711.246z M510.122,703.652h2.226l-0.549,10.146h-25.381v-2.576
	c2.049-0.165,3.09-0.057,3.594-1.18c0.818-1.824,0.22-6.895,0.22-21.658c0-1.255-0.265-1.897-3.813-2.401v-2.548h24.068v8.491
	h-2.259c-2.134-6.673-5.478-5.608-10.485-5.608v10.319c3.703,0,5.691,0.436,6.494-5.07h2.326v13.25h-2.334
	c-0.751-5.889-2.881-5.297-6.486-5.297c0,9.673-0.43,10.953,1.657,11.276c1.04,0.162,4.632,0.266,6.506-0.314
	C507.415,710.016,509.636,705.1,510.122,703.652z"/>
</svg>
