<?xml version="1.0" encoding="utf-8"?>
<!-- Generator: Adobe Illustrator 21.1.0, SVG Export Plug-In . SVG Version: 6.00 Build 0)  -->
<svg version="1.1" id="Слой_1" xmlns="http://www.w3.org/2000/svg" xmlns:xlink="http://www.w3.org/1999/xlink" x="0px" y="0px"
	 width="708.66px" height="861.684px" viewBox="0 0 708.66 861.684" style="enable-background:new 0 0 708.66 861.684;"
	 xml:space="preserve">
<style type="text/css">
	.st0{fill-rule:evenodd;clip-rule:evenodd;fill:none;stroke:#FF0600;stroke-miterlimit:10;}
	.st1{fill:none;stroke:#0049FF;stroke-miterlimit:10;}
	.st2{fill:none;stroke:#FF0600;stroke-miterlimit:10;}
</style>
<path class="st0" d="M707.933,123.821C476.936,0,239.311-2.176,5,123.821v290.107h702.933L707.933,123.821z"/>
<path class="st1" d="M136.573,145.332c-16.13,0-16.318,28.14-16.229,44.297c0.053,9.709-0.316,23.37,4.125,33.383
	c1.752,3.95,5.556,10.617,11.342,10.884c0.231,0.01,0.46,0.016,0.685,0.016c17.145,0,17.217-29.599,17.26-47.283
	c0.028-11.169,0.085-29.489-7.891-37.508C141.39,144.622,135.787,145.332,136.573,145.332z M153.265,183.93
	c-0.092,16.727,0.778,49.482-16.769,49.482c-0.218,0-0.439-0.005-0.662-0.015c-5.518-0.255-9.202-6.743-10.908-10.587
	c-3.818-8.608-4.155-20.973-4.077-29.524c0.106-11.376-1.767-46.667,14.985-47.437c0.25-0.012,0.497-0.017,0.739-0.017
	C151.795,145.831,153.352,168.254,153.265,183.93z M414.217,363.152l-2.968,10.674h5.714L414.217,363.152z M411.907,373.327
	l2.291-8.24l2.12,8.24H411.907z M444.699,148.96c-8.401,8.448-7.881,28.582-7.935,39.749c-0.056,11.583-0.12,24.711,4.135,34.304
	c3.067,6.914,7.818,11.041,12.709,11.041c2.613,0,5.169-1.185,7.39-3.427c6.095-6.152,9.36-19.415,9.193-37.341
	c0-12.464,0.824-35.606-7.9-44.363C457.608,144.224,449.657,143.974,444.699,148.96z M453.608,233.554
	c-4.595,0-9.181-3.822-12.252-10.744c-4.87-10.98-4.022-27.045-4.083-39.233c-0.081-14.728,1.471-37.747,16.214-37.747
	c17.363,0,16.203,30.947,16.203,47.456C469.953,221.486,461.769,233.554,453.608,233.554z M219.098,223.21
	c1.344-7.687-5.336-12.183-11.921-12.183c-5.972,0-11.865,3.698-11.623,12.066c1.567-0.37,2.898-0.535,4.01-0.535
	c9.093,0,3.697,11.005-4.103,11.005c-3.86,0-8.308-2.694-11.883-10.753c-4.858-10.952-4.023-26.926-4.083-39.233
	c-0.079-14.284,1.597-37.747,15.802-37.747c11.409,0,12.556,11.763,0.256,8.868c-0.235,8.113,5.85,12.15,11.928,12.15
	c10.962,0,16.451-12.038,6.587-21.024c1.069-0.006,2.035-0.011,2.904-0.011c6.511,0,7.697,0.245,7.848,1.775l0.014,62.978
	c0,19.015,14.886,28.402,29.779,28.402c11.426,0,22.856-5.525,27.572-16.466c3.509,14.176,18.408,23.636,34.386,23.636
	c0.899,0,1.801-0.03,2.705-0.091c34.194-1.158,47.831-32.04,34.342-52.508c-10.638-16.134-36.656-23.386-43.083-37.103
	c-2.43-7.51,3.255-12.76,10.224-12.76c11.474-0.001,14.487,10.904,4.973,10.904c-1.116,0-2.399-0.159-3.854-0.515
	c-0.533,19.135,28.295,16.299,25.503-0.332c-1.406-8.375-11.013-16.677-25.147-16.678c-22.736-0.002-41.255,23.611-2.965,48.295
	c12.227,7.884,24.507,15.022,26.4,29.652c2.278,17.598-11.664,25.241-26.422,25.241c-19.026,0-39.41-12.7-28.153-33.146
	c4.049-6.584,9.8-9.175,14.971-9.175c6.297,0,11.734,3.842,12.191,8.996c0.431,6.158-4.948,9.393-10.085,10.851
	c2.387,1.964,5.153,2.825,7.884,2.825c6.323,0,12.462-4.612,13.307-10.825c2.901-21.331-30.334-32.795-44.854-5.471
	c0-32.051,0.043-29.822-0.079-32.052h-0.001l-0.032-23.252c-0.044-16.01-21.542-23.246-29.286-13.391
	c-4.455,5.667-1.537,16.065,11.998,15.761c-1.749-5.205,1.208-7.512,4.507-7.512c3.146,0,6.601,2.097,6.582,5.778
	c-0.215,29.302-0.051,30.085-0.048,61.92c0,12.546-9.444,18.819-18.888,18.819s-18.888-6.273-18.888-18.819l0.004-63.962
	c0.157-1.605,2.281-1.724,4.447-1.724c0.378,0,0.757,0.004,1.128,0.004v-4.881H205.26c-15.625-4.682-32.342,2.313-38.88,23.167
	c-10.726-34.222-53.672-34.123-60.889,9.541v-26.105c0.157-1.605,2.286-1.724,4.449-1.724c0.378,0,0.756,0.004,1.125,0.004v-4.881
	H84.36v4.881c2.01,0,5.382-0.243,5.575,1.721l0.004,27.855c-12.641-2.303-22.873,4.265-24.909,11.988v-39.843
	c0.191-1.956,3.405-1.721,5.575-1.721v-4.881H43.897v4.881c2.006,0,5.383-0.244,5.576,1.721v82.927
	c-0.158,1.606-2.284,1.725-4.451,1.725c-0.377,0-0.755-0.004-1.124-0.004v4.881h26.705v-4.881c-0.394,0-0.825,0.007-1.266,0.007
	c-1.965,0-4.153-0.145-4.308-1.728v-38.045c1.313,4.69,5.737,7.165,10.148,7.165c5.329,0,10.64-3.611,10.428-11.294
	c-2.95,0.722-6.275,1.318-7.342-1.577c-1.119-3.036,3.339-5.944,7.935-5.944c1.275,0,2.561,0.224,3.741,0.731l-0.004,48.964
	c-0.157,1.605-2.281,1.724-4.447,1.724c-0.378,0-0.757-0.004-1.128-0.004v4.881h26.707v-4.881c-0.394,0-0.825,0.007-1.266,0.007
	c-1.965,0-4.153-0.145-4.308-1.728v-26.37c3.877,23.433,17.564,34.055,31.211,34.055c12.371,0,24.708-8.727,29.678-24.552
	c5.556,17.694,18.429,24.485,30.087,24.485C207.569,238.134,217.568,231.975,219.098,223.21z M69.338,232.744
	c0.229,0,0.455-0.002,0.674-0.004c0.031,0,0.062-0.001,0.092-0.001v3.879H44.399v-3.88l0.054,0l0.57,0.002
	c1.885,0,4.734,0,4.951-2.225l-0.002-82.976c-0.223-2.262-3.347-2.193-5.574-2.175v-3.879h25.707v3.88
	c-2.304-0.008-5.35-0.105-5.575,2.222v43.701v1.182l0.002,38.094C64.745,232.744,67.733,232.744,69.338,232.744z M166.858,213.499
	l-0.477-1.519l-0.477,1.519c-4.617,14.702-16.079,24.202-29.201,24.202c-12.16,0-26.615-8.836-30.718-33.637l-0.993,0.082
	l0.002,26.419c0.213,2.179,3.201,2.179,4.806,2.179c0.229,0,0.455-0.002,0.674-0.004c0.031,0,0.062-0.001,0.092-0.001v3.879H84.86
	v-3.88l0.056,0l0.572,0.002c1.884,0,4.732,0,4.947-2.224l0.004-49.294l-0.303-0.13c-1.192-0.512-2.517-0.771-3.938-0.771
	c-3.258,0-6.508,1.399-7.905,3.402c-0.721,1.034-0.893,2.145-0.499,3.214c0.611,1.659,1.975,2.501,4.052,2.501
	c1.07,0,2.186-0.213,3.264-0.464c-0.085,6.382-4.393,10.161-9.933,10.161c-3.864,0-8.352-2.103-9.666-6.799l-0.648-2.314
	c3.257-12.354,14.25-16.044,25.575-13.981l0-0.599l-0.006-27.903c-0.213-2.179-3.201-2.179-4.806-2.179
	c-0.229,0-0.455,0.002-0.674,0.004c-0.031,0-0.062,0.001-0.092,0.001v-3.879h25.707v3.88c-7.433-0.025-5.575-1.062-5.575,28.328
	l0.993,0.081c7.011-42.418,48.926-44.553,60.396-7.951c6.909-22.039,22.68-29.176,38.807-24.338h40.264v3.88l-0.628-0.002
	c-1.884,0-4.732,0-4.947,2.224l-0.004,63.962c0,13.273,10.05,19.319,19.388,19.319s19.388-6.046,19.388-19.319
	c-0.001-11.177-0.022-18.635-0.039-24.627c-0.115-40.467,0.963-38.838-1.607-41.422c-2.689-2.703-7.882-3.001-10.003-0.051
	c-0.695,0.966-1.323,2.672-0.565,5.421c-12.269-0.038-15.182-9.551-10.931-14.958c7.467-9.503,28.35-2.408,28.393,13.082
	l0.049,23.551c0.102,1.815,0.063,1.173,0.063,31.753v2.006l0.942-1.772c14.284-26.878,46.733-15.54,43.917,5.169
	c-0.779,5.73-6.527,10.392-12.812,10.392c-2.472,0-4.805-0.734-6.803-2.131c4.134-1.347,9.968-4.438,9.502-11.089
	c-0.471-5.3-6.044-9.452-12.689-9.452c-6.106,0-11.718,3.431-15.409,9.434c-4.056,7.366-4.351,14.389-0.853,20.308
	c4.8,8.122,16.633,13.58,29.443,13.58c9.47,0,17.612-3.084,22.337-8.461c3.948-4.492,5.489-10.327,4.581-17.345
	c-1.824-14.097-12.941-21.229-24.712-28.779c-0.637-0.409-1.275-0.818-1.913-1.229c-16.485-10.627-24.217-22.576-21.212-32.781
	c3.429-11.645,20.342-18.339,35.58-12.41c12.652,4.924,15.956,16.698,10.82,22.767c-4.438,5.245-14.117,5.995-19.166,0.803
	c-2.069-2.128-3.166-5.097-3.19-8.616c3.876,0.831,8.561,0.465,9.431-3.2c1.143-4.813-5.456-8.316-11.043-8.316
	c-3.975,0-7.552,1.654-9.566,4.424c-1.805,2.481-2.207,5.674-1.134,8.99l0.01,0.03l0.013,0.028
	c6.513,13.9,32.55,21.136,43.118,37.166c6.238,9.465,6.767,21.297,1.415,31.65c-6.315,12.216-19.202,19.536-35.373,20.084
	c-0.884,0.059-1.783,0.09-2.671,0.09c-16.307,0-30.565-9.781-33.9-23.256l-0.357-1.441l-0.588,1.364
	c-4.297,9.971-14.686,16.164-27.113,16.164c-14.101,0-29.279-8.732-29.279-27.902l-0.016-63.027
	c-0.199-2.021-1.759-2.226-8.346-2.226c-0.87,0-1.836,0.004-2.907,0.011l-1.28,0.008l0.946,0.862
	c3.151,2.871,4.963,6.536,4.97,10.054c0.006,2.767-1.08,5.23-3.139,7.121c-2.06,1.893-5.006,2.979-8.082,2.979
	c-6.277,0-11.35-4.154-11.433-11.029c1.1,0.224,2.129,0.338,3.068,0.338c4.212,0,5.707-2.198,5.707-4.08
	c0-3.071-3.563-6.247-9.526-6.247c-0.272,0-0.552,0.006-0.834,0.02c-12.957,0.595-15.563,21.118-15.468,38.229
	c0.008,1.648,0,3.361-0.008,5.119c-0.054,11.593-0.116,24.732,4.134,34.314c4.051,9.133,8.947,11.05,12.34,11.05
	c5.039,0,9.357-4.443,9.357-8.08c0-1.159-0.449-2.133-1.298-2.817c-0.912-0.735-2.244-1.108-3.957-1.108
	c-1.036,0-2.217,0.139-3.517,0.412c0.028-3.165,1.013-5.831,2.865-7.737c2.009-2.068,4.944-3.207,8.264-3.206
	c3.786,0,7.445,1.555,9.549,4.059c1.732,2.061,2.382,4.667,1.88,7.538c-1.443,8.272-10.96,14.51-22.138,14.51
	C182.672,237.634,171.603,228.611,166.858,213.499z M398.414,143.772c-3.557,0.449-7.159,2.929-7.159,6.8l0.044,40.391
	c0,3.15,3.778,6.955,8.469,6.955c3.661,0,12.175-2.548,12.175-26.152c0-5.535-0.208-12.614-1.828-18.264
	C408.329,147.273,404.819,142.967,398.414,143.772z M399.768,197.418c-4.221,0-7.969-3.458-7.969-6.455l-0.044-40.392
	c0-3.581,3.381-5.882,6.721-6.303c11.909-1.499,12.966,15.472,12.966,27.498C411.443,191.668,405.212,197.418,399.768,197.418z
	 M83.267,364.335c0-4.38-2.038-4.728-4.703-4.728h-0.5v0.5v8.773v0.5h0.5C80.769,369.38,83.267,369.38,83.267,364.335z
	 M78.564,360.107c2.473,0,4.203,0.196,4.203,4.228c0,4.533-2.021,4.546-4.203,4.546V360.107z M159.861,365.047
	c-5.827-2.081-4.763-5.646-0.628-5.646c3.516,0,4.529,1.547,4.349,4.134h3.982c-0.294-4.595-2.704-7.057-8.143-7.057
	c-10.466,0-12.578,12.37-1.628,16.527c6.417,2.452,5.179,6.479,0.963,6.479c-3.747,0-4.676-1.879-4.363-4.842h-3.983
	c0.041,1.525,0.393,2.831,0.997,3.908h-11.424v-21.666h-7.754v21.666h-11.399v-21.666h-7.754v21.666h-12.269v-8.545h7.011v-3.417
	h-7.011V360.3h8.341v-3.417H93.051v21.666H78.564v-6.445c6.212,0,11.837-0.792,11.837-7.646c0-6.781-5.108-7.704-11.722-7.704
	c-2.475,0-5.161,0.129-7.87,0.129v21.666h-4.481c0.712-1.165,1.116-2.575,1.116-4.211c0-9.092-12.742-8.707-12.742-12.544
	c0-1.027,0.352-2.393,3.389-2.393c3.662,0,4.608,1.68,4.319,4.464h4.013c-0.304-5.226-4.114-7.553-8.047-7.554
	c-4.385-0.001-8.922,2.892-8.922,7.882c0,9.307,11.633,8.273,11.633,12.561c0,1.171-0.36,2.729-3.474,2.729
	c-3.647,0-4.641-1.782-4.375-4.693h-4.011c-0.007,5.386,4.018,7.725,8.505,7.725c1.274,0,2.585-0.188,3.851-0.549h93.93
	c1.138,0.424,2.379,0.632,3.629,0.632c4.661,0,9.442-2.892,9.442-8.26C168.585,370.229,165.65,367.102,159.861,365.047z
	 M159.144,382.098c-1.245,0-2.407-0.21-3.539-0.632h-94.09c-1.25,0.357-2.481,0.549-3.782,0.549c-2.545,0-4.723-0.777-6.132-2.188
	c-1.145-1.146-1.77-2.671-1.861-4.537h2.966c-0.056,1.492,0.263,2.599,0.97,3.373c0.811,0.888,2.099,1.32,3.939,1.32
	c2.637,0,3.974-1.086,3.974-3.229c0-2.056-2.067-2.995-4.461-4.082c-3.362-1.527-7.172-3.257-7.172-8.479
	c0-2.742,1.43-4.462,2.629-5.422c1.556-1.246,3.668-1.96,5.793-1.96c3.178,0,6.972,1.73,7.503,6.554H62.95
	c0.063-1.392-0.229-2.429-0.888-3.159c-0.792-0.878-2.09-1.305-3.97-1.305c-2.581,0-3.889,0.974-3.889,2.893
	c0,1.839,2.166,2.778,4.673,3.864c3.595,1.558,8.069,3.496,8.069,8.68c0,2.345-0.781,3.523-1.507,4.711h5.872v-21.667
	c1.223-0.007,2.44-0.036,3.623-0.065c1.308-0.032,2.543-0.062,3.747-0.062c7.107,0,11.222,1.179,11.222,7.204
	c0,5.95-4.338,7.146-11.337,7.146h-0.5v0.5v6.945h15.486v-21.666h15.095v2.417h-8.341v7.287h7.011v2.417h-7.011v9.545h12.769h0.5
	v-0.5v-21.166h6.754v21.666h12.399v-21.666h6.754v21.666h12.779c-0.625-1.114-1.176-2-1.325-3.908h2.915
	c-0.182,3.37,1.53,4.842,4.905,4.842c2.137,0,3.694-0.956,3.967-2.435c0.345-1.869-1.431-3.742-4.753-5.011
	c-5.562-2.112-7.445-6.365-6.844-9.644c0.659-3.594,3.915-5.916,8.294-5.916c4.797,0,7.161,1.874,7.6,6.057h-2.919
	c0.006-1.249-0.3-2.19-0.932-2.868c-0.795-0.852-2.083-1.267-3.936-1.267c-2.126,0-3.654,0.889-3.893,2.264
	c-0.286,1.65,1.341,3.277,4.354,4.353c5.568,1.977,8.391,4.945,8.391,8.821C168.085,379.433,163.587,382.098,159.144,382.098z
	 M517.457,363.753c-3.833,0-6.94,3.107-6.94,6.94s3.107,6.94,6.94,6.94c3.833,0,6.94-3.107,6.94-6.94
	S521.29,363.753,517.457,363.753z M517.457,377.134c-3.551,0-6.44-2.889-6.44-6.44c0-3.551,2.889-6.44,6.44-6.44
	c3.551,0,6.44,2.889,6.44,6.44C523.897,374.245,521.008,377.134,517.457,377.134z M670.083,193.539
	c-10.638-16.134-36.656-23.386-43.083-37.103c-2.43-7.51,3.255-12.76,10.224-12.76c13.03-0.001,14.857,13.753,1.119,10.389
	c-0.533,19.135,28.295,16.299,25.503-0.332c-1.014-6.036-6.231-11.713-13.292-14.461c-26.583-10.342-59.662,17.17-14.82,46.078
	c12.227,7.884,24.507,15.022,26.4,29.652c2.278,17.598-11.664,25.241-26.422,25.241c-19.026,0-39.41-12.7-28.153-33.146
	c4.048-6.584,9.8-9.175,14.971-9.175c6.297,0,11.734,3.842,12.191,8.996c0.431,6.158-4.948,9.393-10.085,10.851
	c2.387,1.964,5.153,2.825,7.884,2.825c6.323,0,12.462-4.612,13.307-10.825c2.901-21.331-30.333-32.795-44.854-5.471
	c0-47.042-0.053-12.821-0.112-55.305c-0.03-11.01-10.216-17.877-19.091-17.877c-15.76-0.001-17.146,20.673,1.804,20.247
	c-3.414-10.158,11.129-9.281,11.089-1.733c-0.215,29.302-0.051,30.085-0.048,61.92c0,12.546-9.444,18.819-18.888,18.819
	s-18.888-6.273-18.888-18.819l0.004-63.962c0.157-1.605,2.281-1.724,4.447-1.724c0.378,0,0.757,0.004,1.128,0.004v-4.881h-40.765
	c-14.898-4.687-32.363,2.502-38.841,23.167c-9.902-31.594-45.73-32.109-57.104-4.303c-6.251-19.706-25.158-25.213-39.692-16.57
	c-4.263-3.082-10.026-2.627-15.365-2.627v4.913c0.362,0,0.715-0.002,1.058-0.002c2.588,0,4.537,0.121,4.537,2.187
	c0.034,38.581,0.015,43.64,0.048,82.228c0,2.096-1.896,2.211-4.583,2.211c-0.333,0-0.678-0.002-1.033-0.002v4.933h26.66v-4.933
	c-0.346,0-0.683,0.002-1.01,0.002c-2.633,0-4.584-0.116-4.584-2.224l-0.013-28.189c2.837,0.83,5.771,1.281,8.689,1.281
	c7.508,0,14.917-2.986,20.363-10.195c1.337,31.357,17.015,45.329,32.558,45.329c12.297,0,24.509-8.744,29.47-24.543
	c4.583,14.594,14.548,24.398,29.844,24.398c20.049,0,28.078-16.276,19.676-23.994c-2.222-2.042-5.365-3.102-8.517-3.102
	c-6.017-0.001-12.071,3.863-11.831,12.143c1.552-0.366,2.869-0.529,3.972-0.529c9.056,0,3.695,11.005-4.081,11.005
	c-3.85,0-8.289-2.695-11.866-10.759c-3.817-8.605-4.155-20.971-4.077-29.524c0.106-11.487-1.737-46.669,14.985-47.437
	c0.273-0.013,0.543-0.019,0.805-0.019c10.134,0,12.284,9.335,3.882,9.335c-1.043,0-2.247-0.144-3.62-0.467
	c-0.667,23.023,38.472,9.072,18.431-8.874c9.201-0.054,10.7,0.023,10.871,1.764l0.014,62.978c0,19.015,14.886,28.402,29.779,28.402
	c11.426,0,22.856-5.525,27.572-16.466c3.509,14.176,18.408,23.636,34.386,23.636c0.899,0,1.801-0.03,2.705-0.091
	C669.935,244.889,683.572,214.007,670.083,193.539z M635.707,245.549c-0.884,0.059-1.783,0.09-2.671,0.09
	c-16.307,0-30.565-9.781-33.9-23.256l-0.357-1.441l-0.588,1.364c-4.297,9.971-14.686,16.164-27.113,16.164
	c-14.101,0-29.279-8.732-29.279-27.902l-0.016-63.027c-0.199-2.021-1.759-2.226-8.344-2.226c-0.903,0-1.909,0.005-3.028,0.011
	l-1.297,0.008c13.504,12.091,2.699,20.908-6.374,20.908c-6.018,0-10.253-3.76-10.266-10.922c4.187,0.858,8.822,0.113,8.822-3.704
	c0-3.089-3.581-6.284-9.575-6.284c-0.27,0-0.548,0.007-0.828,0.02c-15.69,0.721-15.539,30.145-15.466,44.286
	c0.007,1.38,0.013,2.609,0.004,3.646c-0.078,8.6,0.264,21.038,4.12,29.731c4.054,9.138,8.939,11.056,12.324,11.056
	c5.019,0,9.32-4.441,9.32-8.077c0-1.16-0.447-2.134-1.293-2.819c-0.91-0.736-2.237-1.11-3.946-1.11
	c-1.026,0-2.193,0.137-3.478,0.407c0.033-3.117,1.034-5.771,2.912-7.705c2.047-2.107,5.118-3.315,8.424-3.315
	c3.143,0,6.124,1.083,8.179,2.971c3.101,2.849,3.966,7.082,2.314,11.324c-2.121,5.444-9.064,11.802-21.652,11.802
	c-14.068,0-24.498-8.54-29.367-24.047l-0.477-1.519l-0.477,1.519c-4.615,14.696-15.996,24.193-28.993,24.193
	c-8.059,0-15.595-3.808-21.218-10.721c-7.94-9.761-10.367-23.041-10.899-35.52c-5.28,6.989-11.485,11.107-20.804,11.107
	c-2.811,0-5.687-0.424-8.549-1.261l-0.641-0.187l0,0.668l0.013,28.189c0,2.724,2.701,2.724,5.084,2.724l0.492-0.001h0.018v3.932
	h-25.66v-3.932l0.032,0l0.501,0.001c2.382,0,5.083,0,5.083-2.712c-0.016-19.101-0.02-29.986-0.024-40.789
	c-0.004-11.021-0.007-21.955-0.025-41.439c0-2.687-2.793-2.687-5.037-2.687l-0.516,0.001l-0.042,0v-3.913
	c5.573-0.025,10.588-0.348,14.838,2.725c14.355-8.539,32.828-4.096,39.659,17.438c11.789-28.817,46.612-29.163,57.164,4.509
	c6.804-21.704,23.26-29.218,38.764-24.338h40.341v3.88l-0.628-0.002c-1.884,0-4.732,0-4.947,2.224l-0.004,63.962
	c0,13.273,10.05,19.319,19.388,19.319c9.338,0,19.388-6.046,19.388-19.319c-0.001-11.174-0.022-18.63-0.039-24.622
	c-0.115-40.473,0.963-38.843-1.607-41.427c-2.689-2.703-7.877-3.009-10.003-0.051c-0.695,0.966-1.323,2.672-0.565,5.421
	c-17.501-0.054-16.087-19.255-1.13-19.254c8.956,0.001,18.563,6.984,18.591,17.378l0.112,55.304v2.006l0.941-1.772
	c10.201-19.195,30.519-19.331,39.802-8.698c3.348,3.835,4.809,8.76,4.115,13.867c-0.779,5.73-6.527,10.392-12.812,10.392
	c-2.472,0-4.805-0.734-6.803-2.131c4.134-1.347,9.968-4.438,9.502-11.089c-0.471-5.3-6.044-9.452-12.689-9.452
	c-6.106,0-11.718,3.431-15.409,9.434c-4.056,7.366-4.351,14.389-0.853,20.308c4.8,8.122,16.633,13.58,29.443,13.58
	c9.47,0,17.612-3.084,22.337-8.461c3.948-4.492,5.489-10.327,4.581-17.345c-1.918-14.827-14.089-21.924-26.625-30.008
	c-16.485-10.627-24.217-22.576-21.212-32.781c6.057-20.571,45.141-18.695,48.56,1.667c2.642,15.739-24.396,18.614-24.517,0.876
	c10.623,2.277,12.375-6.28,5.317-9.831c-9.761-4.911-20.955,1.457-17.63,11.73c3.865,11.989,32.77,21.493,43.141,37.224
	c6.238,9.465,6.767,21.297,1.415,31.65C664.765,237.68,651.878,245.001,635.707,245.549z M329.053,365.047
	c-5.827-2.081-4.763-5.646-0.628-5.646c3.526,0,4.531,1.541,4.353,4.113h3.976c-0.3-4.581-2.711-7.036-8.141-7.036
	c-10.771,0-12.123,12.543-1.628,16.527c6.417,2.452,5.179,6.479,0.963,6.479c-3.738,0-4.685-1.864-4.359-4.874h-4.053
	c-0.047,1.31,0.083,2.628,0.718,3.939h-3.892c-0.796-4.326,0.165-7.213-3.767-9.138c5.297-2.091,5.139-8.121,1.56-10.729
	c-3.13-2.281-6.34-1.799-17.05-1.799v21.666h-4.44v-21.666h-7.754v21.666h-3.726l-5.843-10.851l6.41-10.815h-4.135l-4.196,7.316
	l-3.878-7.316h-8.625l7.289,13.56l-4.834,8.105h-6.17v-21.666h-7.754v21.666h-9.569v-21.666h-7.754v21.666h-12.269v-8.545h7.011
	v-3.417h-7.011V360.3h8.341v-3.417H212.1v25.083h53.437l4.654-7.94l4.191,7.94c29.039,0,43.313,0.391,50.771,0.391
	c7.756,0,8.142-0.423,10.101-2.148C339.097,376.825,339.781,368.856,329.053,365.047z M334.923,379.834l-0.069,0.061
	c-1.799,1.585-2.227,1.962-9.702,1.962c-7.735,0-21.384-0.388-50.47-0.391l-4.47-8.468l-4.963,8.468H212.6v-24.083h15.095v2.417
	h-8.341v7.287h7.011v2.417h-7.011v9.545h13.269v-21.666h6.754v21.666h10.569v-21.666h6.754v21.666h6.954l5.125-8.593l-7.027-13.073
	h7.488l4.162,7.851l4.503-7.851h2.968l-6.106,10.304l6.118,11.362h4.524v-21.666h6.754v21.666h5.44v-21.666
	c1.556-0.002,2.948-0.013,4.202-0.023c6.449-0.052,9.453-0.168,12.053,1.727c1.669,1.216,2.579,3.316,2.32,5.349
	c-0.262,2.053-1.601,3.656-3.769,4.512l-1.054,0.416l1.018,0.498c2.712,1.328,2.875,3.105,3.121,5.796
	c0.176,1.923,0.266,2.396,0.449,3.393h5.106c-0.602-1.244-1.019-2.044-1.024-3.939h3.018c-0.089,1.572,0.22,2.732,0.94,3.534
	c0.81,0.902,2.106,1.34,3.963,1.34c2.137,0,3.694-0.956,3.967-2.435c0.345-1.869-1.431-3.742-4.753-5.011
	c-5.527-2.098-7.38-6.422-6.764-9.777c0.513-2.795,2.94-5.783,8.215-5.783c4.789,0,7.152,1.867,7.597,6.036h-2.912
	c0.005-1.24-0.3-2.176-0.928-2.848c-0.794-0.851-2.085-1.265-3.944-1.265c-2.126,0-3.654,0.889-3.893,2.264
	c-0.286,1.65,1.341,3.277,4.354,4.353c4.727,1.679,7.678,4.408,8.31,7.685C337.666,375.644,336.796,378.185,334.923,379.834z
	 M571.994,361.062c-0.917,2.968-0.917,13.742,0,16.708c0.912,2.95,4.256,2.95,5.168,0c0.915-2.96,0.915-13.728,0-16.699
	C576.251,358.112,572.909,358.107,571.994,361.062z M576.685,377.623c-0.766,2.477-3.447,2.477-4.213,0
	c-0.882-2.853-0.882-13.56,0-16.413c0.768-2.483,3.448-2.475,4.212,0.009C577.565,364.077,577.568,374.765,576.685,377.623z
	 M483.171,365.047c-5.827-2.081-4.763-5.646-0.628-5.646c3.193,0,4.318,1.28,4.363,3.454h3.903
	c-0.485-4.155-2.916-6.377-8.078-6.377c-10.562,0-12.412,12.433-1.628,16.527c6.417,2.452,5.179,6.479,0.963,6.479
	c-3.583,0-4.588-1.719-4.396-4.459h-3.93c0.087,1.359,0.424,2.54,0.977,3.525h-4.448v-21.666h-7.807l-3.593,13.145l-3.609-13.145
	h-7.738v21.666h-11.28v-21.666h-7.754v21.666h-2.99l-5.831-21.666h-6.696l-6.199,21.666h-3.462c1.356-2.669,2.537-8.053-2.696-9.915
	c2.39-1.02,3.599-2.81,3.599-5.341c0-8.129-9.785-6.41-19.353-6.41v25.083h24.62l1.484-5.223h6.248l1.381,5.223h32.199v-13.37
	l3.778,13.37h4.531l3.654-13.5v13.5h16.072C490.028,386.139,499.528,370.855,483.171,365.047z M491.349,375.463
	c-0.806,4.676-6.336,8.274-12.434,6.003h-15.662v-16.761l-4.537,16.761h-3.77l-4.656-16.479v16.479h-31.314l-1.381-5.223h-7.01
	l-1.484,5.223h-23.742v-24.084c8.569-0.049,18.353-1.659,18.353,5.912c0,3.391-2.052,4.351-4.472,5.383
	c1.74,0.619,3.521,1.133,4.354,3.223c0.948,2.377-0.016,5.018-1.1,7.15h4.654l6.199-21.666h5.936l5.831,21.666h3.873v-21.666h6.754
	v21.666h12.28v-21.666h6.857l3.992,14.538l3.974-14.538h6.925v21.666h5.802c-0.588-1.048-1.081-1.825-1.284-3.525h2.861
	c-0.04,3.15,1.742,4.459,4.918,4.459c2.137,0,3.694-0.956,3.967-2.435c0.345-1.869-1.431-3.742-4.753-5.011
	c-5.545-2.105-7.415-6.383-6.809-9.689c0.654-3.566,3.896-5.871,8.259-5.871c4.479,0,6.877,1.712,7.502,5.377h-2.856
	c-0.234-2.323-1.821-3.454-4.834-3.454c-2.126,0-3.654,0.889-3.893,2.264c-0.286,1.65,1.341,3.277,4.354,4.353
	C488.939,367.625,492.059,371.343,491.349,375.463z M397.076,363.453c0-4.402-2.347-4.075-4.964-4.075v8.486
	C395.197,367.864,397.076,368.076,397.076,363.453z M392.612,359.878c2.333,0,3.964-0.156,3.964,3.575
	c0,3.942-1.331,3.911-3.964,3.911V359.878z M361.339,363.753c-3.833,0-6.94,3.107-6.94,6.94s3.107,6.94,6.94,6.94
	c3.833,0,6.94-3.107,6.94-6.94S365.172,363.753,361.339,363.753z M361.339,377.134c-3.551,0-6.44-2.889-6.44-6.44
	c0-3.551,2.889-6.44,6.44-6.44c3.551,0,6.44,2.889,6.44,6.44C367.78,374.245,364.891,377.134,361.339,377.134z M304.359,359.607
	v8.292c3.221,0,5.203-0.432,5.203-4.146C309.562,360.009,307.591,359.607,304.359,359.607z M304.859,367.399v-7.292
	c2.414,0,4.203,0.28,4.203,3.646C309.062,366.915,307.516,367.399,304.859,367.399z M189.417,363.753c-3.833,0-6.94,3.107-6.94,6.94
	s3.107,6.94,6.94,6.94c3.833,0,6.94-3.107,6.94-6.94S193.25,363.753,189.417,363.753z M189.417,377.134
	c-3.551,0-6.44-2.889-6.44-6.44c0-3.551,2.889-6.44,6.44-6.44c3.551,0,6.44,2.889,6.44,6.44
	C195.857,374.245,192.968,377.134,189.417,377.134z M308.78,375.271c-0.001-3.972-0.328-5.379-4.421-5.379v9.157h4.559
	C308.823,377.853,308.781,377.348,308.78,375.271z M304.859,378.549v-8.157c4.458,0,3.106,2.911,3.518,8.157H304.859z
	 M392.112,369.857l0.008,9.615c1.464,0,3.016,0.078,4.108-0.567c1.091-0.644,1.598-1.887,1.598-3.913
	C397.827,370.328,396.016,369.857,392.112,369.857z M392.612,378.972v-8.615c2.676,0,4.714,0.021,4.714,4.635
	C397.327,378.976,395.285,378.972,392.612,378.972z M654.141,365.047c-5.827-2.081-4.763-5.646-0.628-5.646
	c3.377,0,4.437,1.416,4.366,3.794h3.933c-0.392-4.372-2.81-6.717-8.111-6.717c-4.917,0-8.824,2.799-8.824,7.716
	c0,9.307,11.633,8.273,11.633,12.561c0,1.171-0.36,2.729-3.474,2.729c-3.689,0-4.657-1.817-4.37-4.757h-3.746
	c-0.036,1.272,0.104,2.55,0.72,3.823h-5.043c0.992-1.519,1.222-3.008,1.214-4.546h-3.861c-0.083,2.917-0.699,5.445-3.643,5.445
	c-2.905,0-3.898-3.103-3.898-9.221c0-7.173,1.301-10.81,3.867-10.81c3.844,0,3.713,3.577,3.538,7.278l3.939-1.869
	c0-5.625-3.848-8.476-8.119-8.476c-5.33,0-11.319,4.439-11.319,13.47c0,3.746,0.745,6.654,2.214,8.728h-5.63v-21.666h-7.754v21.666
	h-4.303v-21.666h-3.268v15.263l-9.837-15.263h-5.054v21.666h-5.551c3.631-5.109,4.712-22.089-8.361-22.089
	c-13.841,0-12.198,17.143-8.675,22.089h-9.21V360.3h5.714v-3.417h-19.626v3.417h5.748v21.666h43.23v-14.03l8.948,14.03
	c10.604,0,4.281,0,48.982,0c1.327,0.347,2.584,0.506,3.754,0.506C664.061,382.472,667.658,369.847,654.141,365.047z
	 M662.336,375.718c-0.634,3.682-4.214,6.254-8.705,6.254c-1.163,0-2.384-0.165-3.628-0.49l-0.062-0.016h-0.064h-48.707
	l-9.722-15.244v15.244h-42.23V359.8h-5.748v-2.417h18.626v2.417h-5.714v19.249h10.68c-4.895-6.871-4.735-22.089,7.706-22.089
	c4.074,0,7.007,1.679,8.716,4.991c2.304,4.465,2.235,12.091-1.324,17.098h7.02v-21.666h4.281l10.609,16.461v-16.461h2.268v21.666
	h5.303v-21.666h6.754v21.666h7.097c-1.454-2.053-2.68-4.182-2.68-9.228c0-5.068,1.914-8.113,3.521-9.775
	c1.963-2.031,4.623-3.196,7.299-3.196c3.72,0,7.472,2.373,7.615,7.662l-2.897,1.375c0.095-2.319,0.063-4.598-1.188-5.909
	c-0.671-0.704-1.643-1.061-2.887-1.061c-2.938,0-4.367,3.699-4.367,11.31c0,4.807,0.523,9.721,4.398,9.721
	c3.317,0,3.991-2.811,4.124-5.445h2.873c-0.082,2.314-0.82,3.305-1.63,4.546h6.764c-0.559-1.154-0.999-1.982-1.022-3.823h2.714
	c-0.068,1.521,0.247,2.646,0.957,3.43c0.81,0.893,2.102,1.328,3.95,1.328c2.637,0,3.974-1.086,3.974-3.229
	c0-2.056-2.067-2.995-4.461-4.082c-3.362-1.527-7.172-3.257-7.172-8.479c0-4.985,4.181-7.216,8.324-7.216
	c4.602,0,7.015,1.82,7.552,5.717h-2.876c-0.045-1.108-0.363-1.953-0.964-2.573c-0.797-0.822-2.073-1.221-3.899-1.221
	c-2.126,0-3.654,0.889-3.893,2.264c-0.286,1.65,1.341,3.277,4.354,4.353C661.004,368.015,662.903,372.424,662.336,375.718z"/>
<path class="st0" d="M707.933,531.628C476.936,407.808,239.311,405.631,5,531.628v290.107h702.933L707.933,531.628z
	 M687.482,801.283H25.452V543.944c217.782-115.303,440.859-115.15,662.03,0V801.283z"/>
<path class="st2" d="M310.534,564.244c-3.19-9.858,7.603-15.822,16.929-11.129c6.552,3.297,5.125,11.381-5.586,8.758
	c-0.533,19.135,28.295,16.299,25.503-0.332c-1.014-6.036-6.231-11.713-13.292-14.461c-26.525-10.319-59.704,17.143-14.82,46.078
	c12.227,7.884,24.507,15.022,26.4,29.652c5.214,40.286-74.563,28.4-54.575-7.905c8.978-14.6,26.329-9.567,27.162-0.179
	c0.431,6.157-4.948,9.393-10.085,10.851c7.915,6.511,19.982,0.896,21.191-8c2.894-21.277-30.311-32.837-44.854-5.471
	c0-32.051,0.043-29.822-0.079-32.052h0l-0.032-23.252c-0.044-16.002-21.538-23.251-29.286-13.391
	c-4.194,5.336-1.954,16.075,11.998,15.761c-3.417-10.169,11.129-9.274,11.089-1.733c-0.215,29.302-0.051,30.085-0.048,61.919
	c0,25.092-37.777,25.092-37.777,0l0.004-63.962c0.184-1.885,3.082-1.721,5.575-1.721v-4.881H205.26
	c-14.142-4.238-31.889,0.866-38.88,23.167c-10.737-34.257-53.678-34.086-60.889,9.541v-26.105c0.184-1.885,3.089-1.721,5.575-1.721
	v-4.881H84.36v4.881c2.144,0,5.385-0.218,5.575,1.721l0.004,27.854c-12.483-2.274-22.839,4.138-24.909,11.988v-39.843
	c0.184-1.885,3.089-1.721,5.575-1.721v-4.881H43.897v4.881c2.144,0,5.385-0.218,5.576,1.721v82.927
	c-0.186,1.885-3.082,1.721-5.575,1.721v4.881h26.705v-4.881c-2.144,0-5.385,0.218-5.575-1.721v-38.045
	c2.898,10.355,20.963,9.913,20.576-4.129c-2.629,0.643-6.234,1.428-7.342-1.577c-1.43-3.879,6.242-7.547,11.676-5.213l-0.004,48.964
	c-0.184,1.885-3.082,1.721-5.575,1.721v4.881h26.707v-4.881c-2.144,0-5.385,0.218-5.575-1.721v-26.37
	c7.391,44.674,50.437,42.786,60.889,9.503c10.848,34.545,49.582,27.53,52.717,9.561c2.564-14.658-24.053-17.713-23.544-0.117
	c20.727-4.889-0.294,26.049-11.975-0.283c-4.858-10.952-4.023-26.926-4.083-39.233c-0.075-13.511,1.494-37.108,14.991-37.728
	c12.159-0.574,13.652,11.811,1.067,8.849c-0.354,12.229,13.648,15.196,20.348,9.039c5.109-4.694,4.124-12.486-1.833-17.913
	c9.078-0.053,10.581,0.029,10.752,1.764l0.014,62.978c0,33.604,46.489,37.138,57.35,11.936c3.707,14.974,20.12,24.685,37.091,23.545
	c34.194-1.158,47.831-32.04,34.342-52.508C342.979,585.213,316.961,577.961,310.534,564.244z M153.265,591.738
	c-0.093,16.935,0.8,50.299-17.432,49.467c-5.518-0.255-9.202-6.743-10.908-10.587c-3.818-8.608-4.155-20.973-4.077-29.524
	c0.106-11.375-1.767-46.667,14.985-47.437C151.744,552.923,153.353,575.812,153.265,591.738z M670.083,601.347
	c-10.638-16.134-36.656-23.386-43.083-37.103c-3.19-9.858,7.603-15.822,16.929-11.129c6.552,3.297,5.125,11.381-5.586,8.758
	c-0.533,19.135,28.295,16.299,25.503-0.332c-1.014-6.036-6.231-11.713-13.292-14.461c-26.525-10.319-59.704,17.143-14.82,46.078
	c12.227,7.884,24.507,15.022,26.4,29.652c5.214,40.286-74.563,28.4-54.575-7.905c8.978-14.6,26.329-9.567,27.162-0.179
	c0.431,6.157-4.948,9.393-10.085,10.851c7.915,6.511,19.982,0.896,21.192-8c2.894-21.277-30.311-32.837-44.854-5.471
	c0-47.042-0.053-12.821-0.112-55.305c-0.044-16.002-21.538-23.251-29.286-13.391c-4.194,5.336-1.954,16.075,11.998,15.761
	c-3.417-10.169,11.128-9.274,11.089-1.733c-0.215,29.302-0.051,30.085-0.048,61.919c0,25.092-37.777,25.092-37.777,0l0.004-63.962
	c0.184-1.885,3.082-1.721,5.575-1.721v-4.881h-40.765c-13.168-4.143-31.828,0.797-38.841,23.167
	c-9.905-31.603-45.733-32.1-57.104-4.303c-6.283-19.806-25.244-25.162-39.692-16.57c-4.259-3.079-10.004-2.626-15.365-2.626v4.913
	c3.096,0,5.594-0.155,5.594,2.185c0.034,38.581,0.015,43.64,0.048,82.228c0,2.355-2.395,2.209-5.616,2.209v4.933h26.66v-4.933
	c-3.128,0-5.594,0.147-5.594-2.222l-0.013-28.189c10.138,2.965,21.49,1.097,29.052-8.914c2.395,56.166,50.796,56.554,62.029,20.787
	c4.583,14.594,14.548,24.398,29.844,24.398c20.049,0,28.078-16.276,19.676-23.994c-6.463-5.939-20.713-3.576-20.348,9.04
	c20.608-4.861-0.293,26.051-11.975-0.283c-3.817-8.605-4.155-20.971-4.077-29.524c0.106-11.487-1.738-46.668,14.985-47.437
	c12.128-0.572,13.788,11.843,1.067,8.849c-0.667,23.024,38.471,9.071,18.431-8.874c9.186-0.054,10.7,0.021,10.871,1.764
	l0.014,62.978c0,33.604,46.489,37.138,57.35,11.936c3.707,14.974,20.12,24.685,37.091,23.545
	C669.935,652.697,683.572,621.815,670.083,601.347z M391.8,598.771l-0.044-40.392c0-3.581,3.381-5.882,6.721-6.303
	c11.9-1.498,12.966,15.447,12.966,27.498C411.443,614.909,391.8,605.632,391.8,598.771z M441.356,630.618
	c-4.87-10.98-4.022-27.045-4.083-39.233c-0.081-14.728,1.471-37.747,16.214-37.747c17.363,0,16.203,30.947,16.203,47.457
	C470.1,645.171,449.88,649.833,441.356,630.618z"/>
<path class="st0" d="M196.357,778.501c0,3.833-3.107,6.94-6.94,6.94c-3.833,0-6.94-3.107-6.94-6.94s3.107-6.94,6.94-6.94
	C193.25,771.561,196.357,774.668,196.357,778.501z"/>
<path class="st0" d="M368.28,778.501c0,3.833-3.107,6.94-6.94,6.94c-3.833,0-6.94-3.107-6.94-6.94s3.107-6.94,6.94-6.94
	C365.172,771.561,368.28,774.668,368.28,778.501z"/>
<path class="st0" d="M524.397,778.501c0,3.833-3.107,6.94-6.94,6.94s-6.94-3.107-6.94-6.94s3.107-6.94,6.94-6.94
	S524.397,774.668,524.397,778.501z"/>
<path class="st2" d="M440.003,489.099c-10.806-3.091-24.962,3.222-32.155,9.996c-9.539-1.574-13.093,5.253-14.485,14.82
	c-7.677-3.969-19.581-2.89-22.111,7.996c-2.427-1.694-7.185-1.163-7.185-1.163l-9.856,19.49L343.7,521.037
	c0,0-4.774-0.396-7.142,1.366c-2.898-10.809-14.833-11.55-22.372-7.365c-3.788-21.033-17.167-13.305-18.396-13.373
	c-7.058-9.874-16.66-11.349-22.86-11.07c13.46-13.976,37.607-17.85,42.347-18.177c0,0-2.583,23.548,22.783,32.602
	c-0.393-3.019-0.265-15.824,2.824-16.327c2.127,0.854,4.692,5.505,5.688,7.375c5.579-1.602,8.149-1.639,13.78-0.195
	c0.932-1.897,3.339-6.619,5.436-7.533c3.104,0.416,3.666,13.211,3.375,16.24c16.881-6.584,20.846-19.382,21.64-27.031
	C413.715,471.214,440.003,489.099,440.003,489.099z"/>
<path class="st2" d="M506.674,702.785c24.999-4.366,32.05-43.334-2.712-48.644c-13.346-2.039-31.484,2.717-32.84,19.767
	c-26.672,0-208.891,0-238.015,0c-2.035-25.583-43.667-25.499-53.629-7.721c-7.585,13.535,0.063,33.453,18.077,36.599
	c-18.014,3.146-25.662,23.064-18.077,36.599c9.962,17.778,51.594,17.862,53.629-7.721c29.124,0,211.343,0,238.015,0
	c1.356,17.049,19.494,21.805,32.84,19.767C538.701,746.122,531.706,707.158,506.674,702.785z M232.206,719.184l-1.891-7.147h-5.291
	l0.859-3.309h3.568l-3.759-14.609l-7.003,25.065h-3.619l9.432-32.962h8.124l8.14,32.962H232.206z M253.241,719.184h-9.245v-32.962
	c3.189,0,6.323-0.126,9.245-0.151v26.059V719.184z M256.823,705.393v-3.199c4.104-1.456,4.11-11.075,0-12.514v-3.543
	c7.061,0.346,12.081,2.189,12.081,9.767C268.904,701.313,263.364,704.471,256.823,705.393z M271.147,702.304
	c0-10.172,4.045-15.671,12.11-16.529v3.198c-3.267,2.601-3.441,24.694,0,27.433v3.221
	C275.19,718.812,271.147,713.046,271.147,702.304z M287.378,719.631v-3.224c3.356-2.67,3.351-24.75,0-27.427v-3.256
	c8.071,0.712,12.111,6.366,12.111,16.967C299.489,713.195,295.446,718.833,287.378,719.631z M325.021,689.53h-6.903v29.654h-9.805
	V689.53h-7.868v-3.308h24.575V689.53z M354.352,719.184h-9.245v-16.396h-7.541v16.396h-9.245v-32.962h9.245v13.257h7.541v-13.257
	h9.245V719.184z M382.413,719.184h-22.599v-32.962h20.661v3.308H369.06v9.974h9.595v3.309h-9.595v13.063h13.354V719.184z
	 M398.078,719.74c-20.243,0-18.386-34.049,0.724-34.049c6.895,0,10.342,3.429,10.342,10.287l-3.969,1.883
	c0.246-5.079-0.295-9.538-5.58-9.538c-3.984,0-5.977,5.159-5.977,15.479c0,15.924,8.299,14.711,11.264,11.036
	c2.176-2.695,1.975-5.761,1.529-8.887l3.945,1.063C411.006,715.771,405.684,719.74,398.078,719.74z M428.008,719.184l-1.891-7.147
	h-5.29l0.859-3.309h3.567l-3.759-14.609l-7.003,25.065h-3.619l9.432-32.962h8.124l8.872,32.962H428.008z M449.904,719.184h-9.245
	v-32.962c3.715,0,6.733-0.043,9.245-0.052V719.184z M456.116,719.184c-2.451-5.869,0.807-12.56-2.953-14.94v-4.007
	c4.085-1.305,4.088-9.255,0-10.55v-3.476c4.213,0.136,6.568,0.655,8.882,2.341c4.676,3.407,5.018,11.752-3.666,14.042
	c9.593,3.679,3.648,11.145,7.774,16.59H456.116z M484.504,707.013v12.171h-9.245v-12.171l-8.591-20.791h9.595l6.49,15.889
	l5.836-15.889h3.689L484.504,707.013z"/>
<path class="st2" d="M159.861,772.854c-5.827-2.081-4.763-5.646-0.628-5.646c3.516,0,4.529,1.547,4.349,4.135h3.982
	c-0.294-4.595-2.704-7.057-8.143-7.057c-10.466,0-12.578,12.37-1.628,16.527c6.417,2.452,5.179,6.479,0.963,6.479
	c-3.747,0-4.676-1.879-4.363-4.842h-3.983c0.041,1.524,0.393,2.831,0.997,3.908h-11.424v-21.666h-7.754v21.666h-11.399v-21.666
	h-7.754v21.666h-12.269v-8.545h7.011v-3.417h-7.011v-6.287h8.341v-3.417H93.051v21.666H78.564v-6.445
	c6.212,0,11.837-0.792,11.837-7.646c0-9.319-9.645-7.575-19.592-7.575v21.666h-4.481c0.712-1.165,1.116-2.575,1.116-4.211
	c0-9.092-12.742-8.707-12.742-12.544c0-1.027,0.352-2.394,3.389-2.394c3.662,0,4.608,1.68,4.319,4.464h4.013
	c-0.642-11.055-16.969-9.137-16.969,0.329c0,9.307,11.633,8.273,11.633,12.562c0,1.171-0.36,2.729-3.474,2.729
	c-3.647,0-4.641-1.782-4.375-4.693h-4.011c-0.009,6.915,6.629,8.808,12.356,7.176h93.93c5.383,2.005,13.07-0.822,13.07-7.628
	C168.585,778.037,165.65,774.91,159.861,772.854z M78.564,767.915c2.473,0,4.203,0.196,4.203,4.228c0,4.533-2.021,4.546-4.203,4.546
	V767.915z"/>
<path class="st2" d="M329.053,772.854c-5.827-2.081-4.763-5.646-0.628-5.646c3.526,0,4.531,1.541,4.353,4.113h3.976
	c-0.3-4.581-2.711-7.036-8.141-7.036c-10.771,0-12.123,12.543-1.628,16.527c6.417,2.452,5.179,6.479,0.963,6.479
	c-3.738,0-4.685-1.864-4.359-4.874h-4.053c-0.047,1.31,0.083,2.628,0.718,3.939h-3.892c-0.796-4.326,0.165-7.213-3.767-9.138
	c5.297-2.091,5.139-8.121,1.56-10.729c-3.118-2.272-6.277-1.799-17.05-1.799v21.666h-4.44v-21.666h-7.754v21.666h-3.726
	l-5.843-10.851l6.41-10.815h-4.135l-4.196,7.316l-3.878-7.316h-8.625l7.289,13.561l-4.834,8.105h-6.17v-21.666h-7.754v21.666h-9.569
	v-21.666h-7.754v21.666h-12.269v-8.545h7.011v-3.417h-7.011v-6.287h8.341v-3.417H212.1v25.083h53.437l4.654-7.94l4.191,7.94
	c59.236,0,57.03,1.627,60.873-1.757C339.097,784.633,339.781,776.664,329.053,772.854z M304.859,786.357V778.2
	c4.458,0,3.106,2.911,3.518,8.157H304.859z M304.859,775.207v-7.292c2.414,0,4.203,0.281,4.203,3.646
	C309.062,774.722,307.516,775.207,304.859,775.207z"/>
<path class="st2" d="M483.171,772.854c-5.827-2.081-4.763-5.646-0.628-5.646c3.193,0,4.318,1.28,4.363,3.454h3.903
	c-0.485-4.155-2.916-6.377-8.078-6.377c-10.562,0-12.412,12.433-1.628,16.527c6.417,2.452,5.179,6.479,0.963,6.479
	c-3.583,0-4.588-1.719-4.396-4.459h-3.93c0.087,1.359,0.424,2.54,0.977,3.525h-4.448v-21.666h-7.807l-3.593,13.146l-3.609-13.146
	h-7.738v21.666h-11.28v-21.666h-7.754v21.666h-2.99l-5.831-21.666h-6.696l-6.2,21.666h-3.462c1.356-2.669,2.537-8.053-2.696-9.915
	c2.39-1.02,3.599-2.81,3.599-5.341c0-8.116-9.731-6.41-19.353-6.41v25.083h24.62l1.484-5.223h6.248l1.381,5.223h32.199v-13.37
	l3.778,13.37h4.531l3.654-13.5v13.5h16.072C490.02,793.943,499.537,778.666,483.171,772.854z M392.612,767.685
	c1.96,0,3.964-0.359,3.964,3.575c0,4.352-1.853,3.911-3.964,3.911V767.685z M392.612,786.78v-8.615c2.676,0,4.714,0.021,4.714,4.635
	C397.327,786.784,395.285,786.78,392.612,786.78z M411.907,781.135l2.291-8.24l2.12,8.24H411.907z"/>
<path class="st2" d="M654.141,772.854c-5.827-2.081-4.763-5.646-0.628-5.646c3.377,0,4.437,1.416,4.366,3.794h3.933
	c-0.392-4.372-2.81-6.717-8.111-6.717c-4.917,0-8.824,2.799-8.824,7.716c0,9.307,11.633,8.273,11.633,12.562
	c0,1.171-0.36,2.729-3.474,2.729c-3.689,0-4.657-1.817-4.37-4.757h-3.746c-0.036,1.272,0.104,2.55,0.72,3.822h-5.043
	c0.992-1.519,1.222-3.008,1.214-4.546h-3.861c-0.083,2.917-0.699,5.445-3.643,5.445c-2.905,0-3.898-3.103-3.898-9.221
	c0-7.173,1.301-10.81,3.867-10.81c3.844,0,3.713,3.577,3.538,7.278l3.938-1.869c0-12.643-19.438-11.275-19.438,4.994
	c0,3.746,0.745,6.653,2.214,8.728h-5.63v-21.666h-7.754v21.666h-4.303v-21.666h-3.269v15.263l-9.837-15.263h-5.054v21.666h-5.551
	c3.631-5.109,4.712-22.089-8.361-22.089c-13.841,0-12.198,17.143-8.675,22.089h-9.21v-18.249h5.714v-3.417h-19.626v3.417h5.748
	v21.666h43.23v-14.03l8.948,14.03c10.604,0,4.281,0,48.982,0C663.037,793.212,669.173,778.193,654.141,772.854z M576.685,785.43
	c-0.766,2.476-3.447,2.476-4.213,0c-0.882-2.853-0.882-13.56,0-16.413c0.768-2.483,3.448-2.475,4.212,0.009
	C577.565,771.885,577.568,782.573,576.685,785.43z"/>
</svg>
