<svg xmlns="http://www.w3.org/2000/svg" viewBox="0 0 2000 2000" width="500" height="500"><path d="M1713.42,1514.14H286.58c-126.49,0-229.4-102.9-229.4-229.4V715.26c0-126.5,102.91-229.4,229.4-229.4H1713.42c126.5,0,229.4,102.9,229.4,229.4v569.48C1942.82,1411.24,1839.92,1514.14,1713.42,1514.14ZM286.58,519.1c-108.16,0-196.16,88-196.16,196.16v569.48c0,108.16,88,196.16,196.16,196.16H1713.42c108.16,0,196.16-88,196.16-196.16V715.26c0-108.16-88-196.16-196.16-196.16Z"/><path d="M822.66,1005c-2.61,9-7.45,22.37-10.25,28.15-5.4,1.12-19.94,4.47-34.11,4.47-44.54,0-67.28-29.63-67.28-62.25,0-38,28.89-64.3,70.64-64.3,16,0,29.07,3.35,35.23,4.28.74,8.39,2.05,19.57,3.54,28.89l-5.78,1.31c-3.73-12.49-8.2-20.13-17.71-24-4.84-2.24-12.49-3.55-19.57-3.55-30.75,0-47,22.74-47,53.5,0,36,18.64,59.08,48.84,59.08,19,0,28.33-8.76,37.83-27.4Z"/><path d="M951.09,1036.34c-2.43,0-4.48-.19-6.9-.38-13.6-.93-20.87-4.47-29.07-16-6.9-9.51-13.61-21.25-19.57-30.76-3.73-6-6.15-7.08-15.66-7.08h-6.52v29.26c0,15.84,2,16.78,17,18.27v5.22H840.56v-5.22c15.47-1.68,16.78-2.43,16.78-18.27V937c0-15.85-2.05-16.41-16.78-18.08V913.7h47.53c13.61,0,22.74,1.67,29.82,6.33,7.64,4.85,12.68,13.24,12.68,24.61,0,16-10.26,26.09-24.05,32.05,3.36,5.78,11.37,18.27,17,26.66,6.9,9.88,10.44,14.53,14.73,19.19,5,5.41,9.32,7.46,13.6,8.58Zm-68.78-60.58c9.69,0,15.84-1.49,20.51-5.4,7.26-5.41,10.25-12.86,10.25-22.93,0-19.94-13.24-27.21-27.59-27.21-5.4,0-8.57.75-9.88,1.86-1.67,1.31-2.23,3.17-2.23,8v45.66Z"/><path d="M1030.87,1034.85v-5.22c12.11-1.49,13.6-3.36,11-10.44-2.43-7.27-6.16-16.59-10.07-28.33H991.54c-3,8.39-5.78,15.66-8.39,23.3-4.1,12.11-1.49,13.6,13.8,15.47v5.22H953.89v-5.22c11.74-1.49,14.73-2.8,21.25-19.57l38.58-97.85,6-1.12c11.75,31.87,24.61,67.1,36.35,99.34,6,16.21,7.64,17.71,20.87,19.2v5.22Zm-18.64-99.35c-6,16-12.3,33-17.89,47.72h34.85Z"/><path d="M1195.07,1005c-2.61,9-7.45,22.37-10.25,28.15-5.4,1.12-19.94,4.47-34.1,4.47-44.55,0-67.29-29.63-67.29-62.25,0-38,28.89-64.3,70.64-64.3,16,0,29.08,3.35,35.23,4.28.74,8.39,2,19.57,3.54,28.89l-5.78,1.31c-3.73-12.49-8.2-20.13-17.71-24-4.84-2.24-12.48-3.55-19.57-3.55-30.75,0-47,22.74-47,53.5,0,36,18.63,59.08,48.83,59.08,19,0,28.33-8.76,37.83-27.4Z"/><path d="M1213,913.7h49.76v5.22c-14.54,1.3-17.15,2.61-17.15,19.19v32.06c3.73-.37,8-3.35,13.42-8.57,10.44-9.88,22.93-22.55,31.5-32.25,5.59-6.33,5-8.76-3-9.88l-5.22-.55V913.7h45.29v5.22c-14,1.67-18.82,2.61-31.31,15.47-5.59,5.4-20.13,19.57-32.06,31.31,14.17,16.77,34.85,40.63,44.55,50.88,9.5,10.25,11.93,11.74,23.48,13.05v5.22h-29.82c-14.35-16.22-29.45-34.3-46.41-54.06-4.29-5.21-7.46-5.59-10.44-5.4v35.41c0,16.22,1.68,17.52,17.15,18.83v5.22H1213v-5.22c15.28-1.31,16.77-2.61,16.77-18.83V938.11c0-16.77-1.3-18.08-16.77-19.19Z"/><path d="M1438,1005.21c-1.12,4.85-6.15,24-8,29.64h-90.58v-5.22c17.33-1.31,18.64-3,18.64-18.27V937.74c0-16.59-2-17.52-16-18.82V913.7h57c17.52,0,24.79-.19,27-.38.19,4.66.93,18.64,1.67,28.52l-5.59.93a61.76,61.76,0,0,0-5.59-14.16c-3-6.15-7.27-7.46-18.45-7.46h-17.71c-5.77,0-6.15.56-6.15,6v41.19h20.69c14,0,14.91-2.8,17.15-15.47h5.78v38.39H1412c-2.42-13.42-3.91-15.28-17.33-15.28H1374.2V1013c0,13,4.1,14.16,13.42,14.35H1405c11.37,0,13.23-1.68,17.33-6.52,3.54-3.92,7.46-11.56,10.07-17.15Z"/><path d="M1561.52,1036.34c-2.42,0-4.47-.19-6.89-.38-13.61-.93-20.88-4.47-29.08-16-6.89-9.51-13.6-21.25-19.57-30.76-3.72-6-6.15-7.08-15.65-7.08h-6.53v29.26c0,15.84,2,16.78,17,18.27v5.22H1451v-5.22c15.47-1.68,16.77-2.43,16.77-18.27V937c0-15.85-2-16.41-16.77-18.08V913.7h47.53c13.6,0,22.74,1.67,29.82,6.33,7.64,4.85,12.67,13.24,12.67,24.61,0,16-10.25,26.09-24,32.05,3.35,5.78,11.37,18.27,17,26.66,6.9,9.88,10.44,14.53,14.72,19.19,5,5.41,9.32,7.46,13.61,8.58Zm-68.77-60.58c9.69,0,15.84-1.49,20.5-5.4,7.27-5.41,10.25-12.86,10.25-22.93,0-19.94-13.23-27.21-27.58-27.21-5.41,0-8.57.75-9.88,1.86-1.68,1.31-2.24,3.17-2.24,8v45.66Z"/><path d="M1636.64,942c-3.17-12.3-8.38-24.42-25.9-24.42-14.54,0-19.57,10.63-19.57,20.32,0,12.86,8.2,19.38,23.67,27.4,22.36,11.55,32.05,20.12,32.05,37.83,0,19.57-17,34.48-41,34.48-11.18,0-20.87-3.17-28.52-6.15-1.49-5.22-3.72-17.89-5-28l5.78-1.49c3.73,12.49,11.93,28.71,31.31,28.71,13.42,0,21.62-9.32,21.62-21.44,0-14.35-7.64-20.13-24-29.07-19.57-10.63-30.57-19.57-30.57-36.91,0-16.59,13.8-32.24,38.4-32.24,10.43,0,20.69,2.79,24.6,3.54.75,6.71,1.49,14.16,3,26.28Z"/><path d="M385.51,629.59c39.29,0,74.44,30.09,74.44,75.82,0,49.4-33.54,80.19-75.82,80.19-44.12,0-76.28-33.55-76.28-76.75C307.85,667.73,337,629.59,385.51,629.59Zm-4.6,8.5c-25.73,0-49.17,21.59-49.17,64.56,0,42.74,23.44,74.21,56.06,74.21,27.81,0,48.72-20.67,48.72-65C436.52,663.59,411,638.09,380.91,638.09Z"/><path d="M597.57,744c-1.37,7.12-8.27,31-10.56,38.14H480.17v-6.43c20.9-2.07,22.74-3.22,22.74-22.75V661.75c0-19.53-2.3-20.68-20.68-22.51V632.8h61.58v6.44c-18.38,1.83-20.91,2.75-20.91,22.51v93.52c0,14,1.84,17.23,14.94,17.46.23,0,16.77.23,18.15.23,11.72,0,15.16-1.38,20.45-7.12,5.74-6,10.57-15.17,14-23.67Z"/><path d="M612.74,782.15v-6.43c18.84-2.07,20.68-3,20.68-22.52V662c0-19.76-1.84-20.68-20.68-22.74V632.8h61.57v6.44c-19.07,2.06-20.9,3-20.9,22.74V753.2c0,19.76,1.83,20.45,20.9,22.52v6.43Z"/><path d="M839.74,639.24c-15.39,2.06-19.3,4.13-27.57,24.81C806,679.21,774.26,756.19,763,784.68h-7.58c-13.56-37-33.32-90.76-46.41-124.77-6.44-17-10.34-19.3-24.36-20.67V632.8H743v6.44c-17,1.83-17.92,4.59-14.7,13.09,5.74,16.77,22.51,62.5,37,100.64,12.18-29.64,27.34-67.09,38.14-96,5-13.33,2.3-15.4-16.54-17.69V632.8h52.84Z"/><path d="M968,745.62c-1.38,6-7.59,29.64-9.89,36.53H846.4v-6.43c21.37-1.61,23-3.68,23-22.52V662.44c0-20.45-2.53-21.6-19.76-23.2V632.8h70.31c21.59,0,30.55-.23,33.31-.46.23,5.75,1.15,23,2.07,35.16l-6.9,1.15a76.09,76.09,0,0,0-6.89-17.47c-3.67-7.58-9-9.19-22.74-9.19H897c-7.13,0-7.58.69-7.58,7.36v50.77h25.5c17.23,0,18.38-3.44,21.14-19.07h7.12v47.33H936c-3-16.54-4.83-18.84-21.37-18.84H889.37v45.73c0,16.08,5,17.46,16.54,17.69h21.37c14,0,16.31-2.07,21.36-8,4.37-4.83,9.2-14.25,12.41-21.14Z"/><path d="M1063.75,667.73c-3.9-15.17-10.34-30.1-31.93-30.1-17.93,0-24.13,13.09-24.13,25,0,15.86,10.11,23.9,29.18,33.78,27.57,14.24,39.52,24.81,39.52,46.64,0,24.12-20.91,42.51-50.55,42.51-13.78,0-25.73-3.91-35.15-7.59-1.84-6.43-4.6-22-6.21-34.46l7.13-1.84c4.59,15.39,14.7,35.38,38.6,35.38,16.54,0,26.65-11.48,26.65-26.42,0-17.69-9.42-24.81-29.64-35.84-24.13-13.1-37.68-24.13-37.68-45.5,0-20.44,17-39.74,47.33-39.74,12.87,0,25.5,3.44,30.33,4.36.92,8.27,1.84,17.46,3.67,32.4Z"/><path d="M1340.41,672.93c-1.92-6-3.63-11.1-6.62-15.8-4-7.26-7.26-9-19.21-9h-22.84c-6.19,0-6.83.64-6.83,6.84v49.31h26.47c15.37,0,16.43-2.56,19.64-17.51h6.4v44.62h-6.62c-2.77-14.94-4.27-18.36-19.42-18.36h-26.47v38.21c0,18.57,2.13,19.43,21.56,21.14v6h-59.35v-6c17.29-1.28,19.21-2.78,19.21-21.14V666.74c0-18.58-2.13-19.43-19.21-21.14v-6h67.67c19.22,0,26.47-.22,30.1-.43.22,7.68,1.07,22.63,2.14,32.87Z"/><path d="M1491.76,780.09c-2.78,0-5.13-.21-7.9-.43-15.59-1.06-23.91-5.12-33.3-18.35-7.9-10.89-15.59-24.34-22.42-35.23-4.27-6.83-7-8.11-17.93-8.11h-7.47v33.52c0,18.14,2.34,19.21,19.42,20.92v6h-57v-6c17.72-1.92,19.22-2.78,19.22-20.92V666.31c0-18.15-2.35-18.79-19.22-20.71v-6h54.44c15.59,0,26.05,1.92,34.16,7.25,8.75,5.55,14.51,15.16,14.51,28.18,0,18.36-11.74,29.89-27.54,36.72,3.85,6.62,13,20.92,19.43,30.53,7.9,11.31,12,16.65,16.87,22,5.76,6.2,10.67,8.54,15.58,9.82ZM1413,710.71c11.1,0,18.15-1.71,23.49-6.19,8.32-6.19,11.74-14.73,11.74-26.26,0-22.84-15.16-31.16-31.6-31.16-6.19,0-9.82.85-11.31,2.13-1.92,1.5-2.56,3.63-2.56,9.18v52.3Z"/><path d="M1637.77,645.6c-13.45.86-18.36,4.27-18.79,14.09-.21,4.91-.64,13.88-.64,33.52v23c0,21.78-2.56,38.43-14.94,51.45-10,10.46-24.55,13.66-39.28,13.66-12.39,0-25.62-2.56-35-9.82-12.81-9.82-19-24.55-19-49.52V667.59c0-19.21-1.71-20.49-18.79-22v-6h56.15v6c-17.08,1.07-18.79,2.78-18.79,22V721c0,31.17,14.73,48.24,40.35,48.24,30.31,0,39.92-18.78,39.92-54.22V693.21c0-19.64-.65-27.75-1.07-33.52-.64-9.6-5.55-13.23-21.35-14.09v-6h51.24Z"/><path d="M1649.71,778.38v-6c17.51-1.92,19.21-2.78,19.21-20.92V666.74c0-18.36-1.7-19.22-19.21-21.14v-6h57.21v6c-17.72,1.92-19.42,2.78-19.42,21.14v84.75c0,18.35,1.7,19,19.42,20.92v6Z"/><path d="M1839.91,673.14c-1.92-6.83-4.48-13.87-6.83-17.72-3.42-5.76-5.55-7.26-17.29-7.26h-21.35v104c0,16.65,1.71,19,22,20.28v6h-62.12v-6c19.85-1.28,21.56-3.42,21.56-20.28v-104h-19.43c-11.74,0-15.16,1.29-18.78,7.69-2.56,4.27-4.27,9.39-7.05,17.29h-6.4c1.28-13,2.56-26.47,3.2-38.42h4.91c3.2,5.12,5.55,4.91,11.53,4.91h84.53c6,0,7.69-.86,10.89-4.91h5.12c0,10,.86,25.4,1.93,37.78Z"/><path d="M289.92,1046.59h-5.6c-1.6-16.41-2.8-17-24.21-16.81l-81.64-.2c36.62,16.41,93.84,42.83,111.45,49.83v5.2c-18.21,6.8-73.23,29.42-109.45,44.62,70,3.41,85.84,3.61,89.64,3.61,11.21-.2,12.81-5.21,14.21-18.81h5.6v47.42h-5.6c-1.2-11.61-3.6-16.41-14.41-18-8.8-1.2-16-1.4-89-6.6-10.41-.8-13.81,1.2-15.41,18.81h-5.6v-34.82l101.45-44.22-101.45-47.43v-35h5.6c2,17.2,3.8,19.41,17.81,19l76.84-.81c21.41-.8,22.41-1.4,24.21-19h5.6Z"/><path d="M258.11,871.5c5.2,1.2,25.81,6.6,31.81,8.6v97.25h-5.6c-1.4-18.61-3.2-20-19.61-20h-79c-17.81,0-18.81,2.2-20.21,17.21h-5.6V913.32c0-18.81-.2-26.62-.4-29,5-.2,20-1,30.61-1.8l1,6a66.62,66.62,0,0,0-15.2,6c-6.61,3.2-8,7.8-8,19.81v19c0,6.2.6,6.6,6.41,6.6h44.22V917.72c0-15-3-16-16.61-18.41v-6.2H243.1v6.2c-14.41,2.6-16.41,4.2-16.41,18.61v22h39.82c14,0,15.21-4.4,15.41-14.41v-18.6c0-12.21-1.8-14.21-7-18.61-4.21-3.81-12.41-8-18.41-10.81Z"/><path d="M289.92,790.05h-5.6c-1.6-13-3.6-14.61-11.21-11.8-7.8,2.6-17.8,6.6-30.41,10.8v43.22c9,3.2,16.81,6.21,25,9,13,4.4,14.61,1.6,16.61-14.81h5.6v46.22h-5.6c-1.6-12.6-3-15.8-21-22.81l-105-41.42-1.2-6.4c34.21-12.61,72-26.42,106.65-39,17.41-6.41,19-8.21,20.61-22.41h5.6Zm-106.65,20c17.21,6.4,35.42,13.21,51.23,19.21V791.85Z"/><path d="M191.27,643.37c-6.4,1.8-13,4.2-16.6,6.4-5.41,3.21-6.81,5.21-6.81,16.21v20h97.45c15.61,0,17.81-1.6,19-20.61h5.6v58.23h-5.6c-1.2-18.61-3.2-20.21-19-20.21H167.86v18.21c0,11,1.2,14.21,7.21,17.61,4,2.4,8.8,4,16.2,6.6v6c-12.2-1.2-24.81-2.41-36-3v-4.6c4.8-3,4.6-5.2,4.6-10.8V654.18c0-5.61-.8-7.21-4.6-10.21v-4.8c9.4,0,23.81-.8,35.41-1.8Z"/><path d="M1700.92,1267.74c2,17,3.27,18.76,21.6,18.76h80.74c28.8,0,43.86,4.59,57,19.21a72.15,72.15,0,0,1,12.65,20.29l-6.54,3.49c-6.11-12.44-16.15-19.42-28.81-21.82-10.47-2-23.13-2.18-41.45-2.18h-73.54c-18.33,0-19.85,2-21.6,19.85h-6.11v-57.6Z"/><path d="M1802,1136.83c5.67,1.31,28.14,7.2,34.69,9.38v106h-6.11c-1.53-20.29-3.49-21.82-21.38-21.82H1723c-19.42,0-20.51,2.4-22,18.76h-6.11v-66.77c0-20.51-.22-29-.43-31.63,5.45-.22,21.82-1.1,33.38-2l1.09,6.55a72.44,72.44,0,0,0-16.58,6.54c-7.2,3.49-8.73,8.51-8.73,21.6v20.73c0,6.77.65,7.2,7,7.2h48.22v-24.22c0-16.36-3.27-17.45-18.11-20.07v-6.76h44.95v6.76c-15.71,2.84-17.89,4.58-17.89,20.29v24h43.42c15.28,0,16.59-4.8,16.8-15.71v-20.29c0-13.31-2-15.49-7.63-20.29-4.59-4.15-13.53-8.73-20.08-11.78Z"/><path d="M1800.42,1012c6.76,1.31,29.46,7.86,36.22,10v101.46h-6.11c-2-19.85-3-21.6-21.6-21.6H1722.3c-18.54,0-19.63,2.18-21.38,19.64h-6.11v-58.48h6.11c1.75,17.46,2.62,19.86,21.38,19.86h88.81c13.31,0,16.37-1.75,16.59-14.19,0-.21.21-15.92.21-17.23,0-11.13-1.31-14.4-6.76-19.42-5.67-5.46-14.4-10-22.48-13.31Z"/><path d="M1800.42,888.11c6.76,1.31,29.46,7.85,36.22,10V999.61h-6.11c-2-19.86-3-21.61-21.6-21.61H1722.3c-18.54,0-19.63,2.19-21.38,19.64h-6.11V939.17h6.11c1.75,17.45,2.62,19.85,21.38,19.85h88.81c13.31,0,16.37-1.74,16.59-14.18,0-.22.21-15.93.21-17.24,0-11.13-1.31-14.4-6.76-19.42-5.67-5.45-14.4-10-22.48-13.31Z"/><path d="M1700.92,766.58c1.75,15.27,4.15,17.89,18.11,26.62,15.93,9.82,31,17.89,50.41,28.58,5,2.62,7.63,3.28,12.87,3.28h26.84c18.11,0,19.42-2,21.38-22.26h6.11v62.62h-6.11c-2.62-19.85-3-21.38-21.38-21.38H1781c-4.36,0-6.33.87-12.66,4.36-14.18,7.64-27.92,15.06-48.44,26.84-14.83,8.51-17.45,10.69-19,25.53h-6.11V847.09h6.11c2.18,15.71,5,14.84,12.44,10.91,16.8-9.16,36.44-19.42,52.8-28.58-14.62-7.86-38.4-20.29-50.4-26.4-10.91-5-13.09-4.37-14.84,12.87h-6.11V766.58Z"/><path d="M254.76,1317.55c-3,10.23-8.52,25.57-11.72,32.17-6.18,1.28-22.8,5.12-39,5.12-50.92,0-76.91-33.88-76.91-71.16,0-43.47,33-73.51,80.75-73.51,18.32,0,33.23,3.84,40.26,4.9.86,9.59,2.35,22.37,4,33l-6.6,1.49c-4.26-14.28-9.38-23-20.24-27.49-5.54-2.55-14.28-4-22.37-4-35.16,0-53.69,26-53.69,61.15,0,41.12,21.3,67.54,55.82,67.54,21.73,0,32.38-10,43.25-31.32Z"/><path d="M423.5,1219.12c-17.68,1.7-19.39,2.77-19.39,20.67v85.43c0,17.9,1.92,18.54,19.39,20.46v6H366.4v-6c17.68-2.13,19.39-2.56,19.39-20.46v-42.61H312.92v42.61c0,17.69,1.71,18.33,19.18,20.46v6H275.21v-6c17.26-1.92,19.18-2.56,19.18-20.46v-85.43c0-17.9-1.92-19-19.18-20.67v-6H332.1v6c-17.05,1.49-19.18,3-19.18,20.67v33.87h72.87v-33.87c0-17.69-2.35-19.18-19.39-20.67v-6h57.1Z"/><path d="M555.59,1317.77c-1.28,5.53-7,27.48-9.16,33.87H442.89v-6c19.81-1.5,21.3-3.41,21.3-20.88v-84.16c0-19-2.34-20-18.32-21.52v-6h65.19c20,0,28.34-.21,30.9-.42.21,5.32,1.06,21.3,1.91,32.6l-6.39,1.06a70.77,70.77,0,0,0-6.39-16.19c-3.41-7-8.31-8.52-21.09-8.52H489.76c-6.61,0-7,.64-7,6.81v47.09h23.65c16,0,17-3.2,19.6-17.68h6.6v43.89H526c-2.77-15.34-4.48-17.47-19.82-17.47H482.73v42.39c0,14.92,4.68,16.2,15.34,16.41h19.81c13,0,15.13-1.92,19.82-7.46,4-4.47,8.52-13.21,11.5-19.6Z"/><path d="M681.08,1317.77c-1.28,5.53-7,27.48-9.16,33.87H568.38v-6c19.81-1.5,21.3-3.41,21.3-20.88v-84.16c0-19-2.34-20-18.32-21.52v-6h65.19c20,0,28.34-.21,30.9-.42.21,5.32,1.06,21.3,1.91,32.6l-6.39,1.06a70.77,70.77,0,0,0-6.39-16.19c-3.41-7-8.31-8.52-21.09-8.52H615.25c-6.61,0-7,.64-7,6.81v47.09h23.65c16,0,17-3.2,19.6-17.68h6.6v43.89h-6.6c-2.77-15.34-4.48-17.47-19.82-17.47H608.22v42.39c0,14.92,4.68,16.2,15.34,16.41h19.81c13,0,15.13-1.92,19.82-7.46,4-4.47,8.52-13.21,11.5-19.6Z"/><path d="M769.93,1245.54c-3.63-14.06-9.59-27.91-29.62-27.91-16.62,0-22.37,12.14-22.37,23.22,0,14.7,9.38,22.16,27.06,31.32,25.57,13.21,36.64,23,36.64,43.25,0,22.37-19.38,39.42-46.87,39.42-12.78,0-23.86-3.62-32.6-7-1.7-6-4.26-20.46-5.75-32l6.61-1.71c4.26,14.28,13.63,32.81,35.79,32.81,15.34,0,24.72-10.65,24.72-24.5,0-16.4-8.74-23-27.49-33.23-22.37-12.15-34.94-22.38-34.94-42.19,0-19,15.76-36.86,43.89-36.86,11.93,0,23.65,3.2,28.12,4,.86,7.67,1.71,16.19,3.41,30Z"/><path d="M910.54,1317.77c-1.27,5.53-7,27.48-9.16,33.87H797.84v-6c19.81-1.5,21.3-3.41,21.3-20.88v-84.16c0-19-2.34-20-18.32-21.52v-6H866c20,0,28.33-.21,30.89-.42.21,5.32,1.06,21.3,1.91,32.6l-6.39,1.06A70.31,70.31,0,0,0,886,1230.2c-3.41-7-8.31-8.52-21.09-8.52H844.71c-6.61,0-7,.64-7,6.81v47.09h23.65c16,0,17-3.2,19.6-17.68h6.6v43.89h-6.6c-2.77-15.34-4.47-17.47-19.82-17.47H837.68v42.39c0,14.92,4.69,16.2,15.34,16.41h19.81c13,0,15.13-1.92,19.82-7.46,4.05-4.47,8.52-13.21,11.5-19.6Z"/><path d="M1252.15,1191.45c-14.27,1.56-19,3.79-19.62,14-.22,7.13-.67,16.5-.67,37.23v89.39h-8.47L1128,1215.52v55.73c0,20.06.67,30.1,1.12,36.56.44,11.37,6,14.71,22.07,16v6.24H1097v-6.24c13.82-1.11,19.17-4.46,20.06-15.38.67-7.13,1.12-17.17,1.12-37.45v-56.85c0-6.24-.45-9.81-4.46-14.71-4.24-5.57-8.92-6.91-19.84-8v-6.25h33.43l94.52,112.13v-54.61c0-20.73-.44-30.32-1.11-37-.67-10-5.8-13.15-23.63-14.26v-6.25h55.06Z"/><path d="M1422.92,1191.45c-14.05.89-19.17,4.45-19.62,14.71-.22,5.13-.67,14.49-.67,35v24.07c0,22.74-2.67,40.13-15.6,53.73-10.48,10.92-25.64,14.26-41,14.26-12.93,0-26.75-2.67-36.56-10.25-13.37-10.25-19.84-25.64-19.84-51.72v-56.84c0-20.07-1.78-21.4-19.61-23v-6.25h58.62v6.25c-17.83,1.11-19.61,2.89-19.61,23v55.73c0,32.54,15.38,50.38,42.13,50.38,31.65,0,41.69-19.62,41.69-56.62v-22.74c0-20.51-.67-29-1.12-35-.67-10-5.8-13.82-22.29-14.71v-6.25h53.5Z"/><path d="M1558.24,1220.2c-2-7.13-4.68-14.49-7.13-18.5-3.57-6-5.8-7.58-18.06-7.58h-22.29v108.56c0,17.39,1.78,19.84,23,21.18v6.24h-64.87v-6.24c20.73-1.34,22.51-3.57,22.51-21.18V1194.12h-20.28c-12.26,0-15.83,1.34-19.62,8-2.67,4.45-4.45,9.8-7.35,18h-6.69c1.34-13.6,2.67-27.64,3.34-40.12h5.13c3.34,5.35,5.79,5.12,12,5.12h88.28c6.24,0,8-.89,11.36-5.12h5.35c0,10.47.9,26.52,2,39.45Z"/><path d="M1661.91,1219.09c-3.79-14.72-10-29.21-31-29.21-17.39,0-23.4,12.71-23.4,24.3,0,15.38,9.8,23.19,28.31,32.77,26.75,13.82,38.34,24.08,38.34,45.26,0,23.4-20.29,41.24-49,41.24-13.38,0-25-3.79-34.11-7.36-1.78-6.24-4.46-21.4-6-33.44l6.91-1.78c4.46,14.93,14.27,34.33,37.45,34.33,16.05,0,25.86-11.15,25.86-25.64,0-17.16-9.14-24.07-28.75-34.77-23.41-12.71-36.57-23.41-36.57-44.14,0-19.84,16.5-38.57,45.93-38.57,12.48,0,24.74,3.35,29.42,4.24.9,8,1.79,16.94,3.57,31.43Z"/><path d="M1008.34,1318.42c-5.1-8.16-11.58-10.92-18.74-8.09-5,2-7.79,5.77-9,11-.29,1.18-1.48,2.85-2.5,3.06-21.68,4.32-43.38,8.47-65.09,12.64a5.16,5.16,0,0,1-1.15-.14v-16.66c0-5.21.16-10.42,0-15.62-.18-4.73.12-8.08,5.41-11,9.12-5,7.53-18.86-2.2-23-2.81-1.19-3.28-2.63-3.2-5.18.14-4.15,0-8.3,0-12.79l192.74-37.31c.08,1.43.21,2.65.21,3.87,0,25.63,0,51.27.07,76.9,0,2.8-.61,4-3.65,4.55-30.27,5.72-60.51,11.66-90.75,17.52C1009.83,1318.29,1009.18,1318.32,1008.34,1318.42Zm78.81-64.44c.08-8.58-5.62-15.68-13.1-16.31s-14,5.09-15.27,13.18c-1.33,8.8,3.69,17.19,11.37,18.84a12.62,12.62,0,0,0,11.56-3.2A16.59,16.59,0,0,0,1087.15,1254Zm-105,29.31c6.79,0,12.35-6.33,12.25-14s-5.53-13.58-12.21-13.58-12.32,6.25-12.25,13.93C970,1277.13,975.49,1283.28,982.12,1283.29Zm60.42,2.76c0-7.17-5-12.9-11.27-13s-11.47,5.86-11.48,12.83,5.12,12.9,11.36,12.94S1042.52,1293.23,1042.54,1286.05Zm-94.25,28.44c5.22,0,9.57-4.6,9.6-10.24s-4.21-10.32-9.46-10.35-9.54,4.48-9.58,10.21S943,1314.45,948.29,1314.49Z"/><path d="M913.5,1245.2c1.8-1.41,3.59-2.84,5.4-4.24q38.36-29.81,76.74-59.56a9.06,9.06,0,0,1,5.18-2c35.71.89,69.46,9,100.35,27.53q1.17.69,2.28,1.5c.15.11.15.43.34,1l-189.9,36.62Zm120.14-53.59c-4.17,1.56-8.44,2.49-12,4.63-4.76,2.89-4.53,7.83-.1,11.24,6.1,4.71,18.21,4.72,24.32,0,4.52-3.47,4.6-8.64-.36-11.5C1042,1194,1037.9,1193.13,1033.64,1191.61Zm-49.36,15.66c-2.94,1.06-5.8,1.62-8.14,3-4,2.46-3.9,6.75-.07,9.51,4.4,3.17,12.22,3.12,16.49-.11,3.67-2.77,3.84-6.83,0-9.26C990.11,1208.94,987.13,1208.33,984.28,1207.27Z"/><path d="M1042.6,1370.41c-5.18-1.38-5.18-1.38-5.7-5.09l1.26,3.92,3.84-3.51Z"/><path d="M677.55,976.19c-1.49,9.9-3.91,19.76-4.29,29.71-.88,22.86-8.79,32.4-31.88,31.56-16.47-.6-33-4.26-49.17-7.77-23.05-5-46.18-6.59-68.4,1.52-39,14.24-79.5,18.18-120.4,20.17-25.61,1.25-51.23,2.4-76.86,2.86-11.46.21-19.9-5.85-24.59-16.59V1024c.76-7.29,1-14.67,2.42-21.84s2.32-15.33,6.34-21c5.55-7.85,13.64-14,20.95-20.5,11.19-10,22-20.57,34.22-29.14,7.28-5.11,16.87-9.43,25.5-9.56,15.75-.26,29.2-4.52,43-11.81,33-17.45,66.66-21.2,100.06.24,18,11.58,38,16.12,59.48,15.75a346.78,346.78,0,0,1,41.9,1.7c20.3,2.11,35.92,11.19,41.72,32.43Zm-327.66,34.48c13.05-1.6,23.28-2.34,33.31-4.17,47.55-8.72,94-22.36,142.91-25.11,27.18-1.52,53.23-2.24,79.73,4.65,12.45,3.24,26.08,3.93,39,3,10.43-.78,17.74-8.59,18.31-20,.56-11-4.66-18.92-15-23-4.18-1.67-8.59-3.32-13-3.69-12.42-1-24.92-2.22-37.35-1.92-26,.62-50.35-4.41-72.5-18.71-28.57-18.45-57.55-13.43-85,1.53a99.52,99.52,0,0,1-45.1,12.69c-7.75.34-16,5.21-22.7,9.93-10.1,7.13-19.11,15.82-28.42,24-7.9,7-16.08,13.73-23.17,21.46-5.24,5.72-3.28,12,4.05,14.23C333.89,1008.21,343.28,1009.36,349.89,1010.67Zm83.42,28.46c23.91,1.95,28.14.2,29.28-10.54.51,2.19,1.28,5.45,2,8.71l3.21-.32v-33.07C435.23,1005.2,434.76,1005.67,433.31,1039.13Zm75.95-40.88-34.05,2.4v35.09c5.55-1.43,10.42-2.24,14.93-4,4.31-1.65,9.68-3.3,11.94-6.71,2-3,.43-8.48.43-12.86l1.38.08.63,13.36,2.49-.09C507.72,1017,508.42,1008.47,509.26,998.25ZM397,1042.05c30.43,1.2,34.7-2.85,31.65-29.14C391.1,1019.86,398.2,1014.15,397,1042.05ZM614,1003.38l-32.4-8.16c-.5,8.49-.92,15.47-1.38,23.27l31.72,5.82C612.65,1016.71,613.23,1010.73,614,1003.38Zm-70.52-9.6v22.85h26.87V993.78Zm-152.87,49.75c.82-7.55,1.56-14.46,2.47-22.86l-27,3.06c-.39,8.39-.72,15.64-1.1,24Zm-29.88-18.64-24.23-1.31c-.84,8.15-1.55,15.09-2.38,23.21,8.27-1.61,17.35,6.93,21.63-4.8l1.79,4.48,1.85-.38Zm277.48,3.41v-22l-18.92-2.25c-.76,7.76-1.43,14.67-2.23,22.78Zm-124.33-4.73c20.63-3.34,21.71-5.09,16.82-26.66C512.35,996.57,512.35,996.57,513.84,1023.57ZM659,999.72l-14.53,4.62v23.85C661.06,1026.34,661.9,1024.75,659,999.72Zm-345.41,18c-4.94,18.2-2.48,24.06,10.36,26.1C327.66,1023,327.22,1021.8,313.57,1017.69Z"/><path d="M625.1,986.94c-17.32-3.78-34.54-8.17-52-11.12a157.61,157.61,0,0,0-34.87-2.32c-37.78,2.16-75,7.2-111.89,16.94-25.72,6.79-52.95,8.16-79.62,10.8-5.15.51-13.91-3-15.62-7-3.45-8,4.09-12.64,10.67-16.07,12.72-6.62,25.64-12.87,38.23-19.72,4.93-2.68,10-5.87,13.65-10,7.65-8.64,16.47-11.72,28-11.66,7.47,0,15.67-3,22.31-6.83,27.44-15.77,54.44-19,82.28-1,17.65,11.4,37.39,15.31,58.35,15.66,15,.26,30.09,2.35,45,4.46,5,.71,11.21,2.79,14.14,6.43,4.1,5.09,8.47,12.78,7.41,18.34-.88,4.67-9,8.56-14.65,11.47-3,1.55-7.42.28-11.2.28Zm1.59-5c8.1-1.19,18,.68,19.94-9.69,2-10.81-7.35-14.61-15.79-17.59a49.2,49.2,0,0,0-12.09-3c-13.21-1.1-26.44-2.23-39.69-2.45-18.58-.31-36.26-3.85-51.81-14.21-27.15-18.1-53.66-16.39-81.15-.4-7.74,4.51-17.76,5.12-26.76,7.44-5,1.3-11.55.85-14.78,3.93-17.34,16.52-37.92,27.27-59.54,36.71-3.73,1.63-6,6.68-8.91,10.15,4,1.31,8.27,4.15,12.1,3.68,25.9-3.12,52.54-4.08,77.37-11.19,38.3-11,77.44-13.4,116.45-17.95,6.64-.77,13.67,0,20.29,1.29C583.84,972.78,605.24,977.46,626.69,981.92Z"/><path d="M436.38,976.26c-2.92,2-5.61,5.07-8.8,5.71-13.27,2.68-26.63,5.35-40.08,6.43-4.64.38-9.64-3.86-14.48-6,3.18-3.81,5.62-9.48,9.68-11.1,14.26-5.68,28.88-10.9,43.82-14.21,4.55-1,10.59,4.7,16,7.34L436,976.65c.63-4.44,3.24-11.43,1.49-12.78-3.61-2.78-10-4.39-14.41-3.22-13.07,3.52-25.81,8.34-38.44,13.27-3.31,1.29-5.75,4.79-8.59,7.28l1.35,3.17C397.57,986.54,417,981.32,436.38,976.26Z"/><path d="M392.37,979.41c8.46-10.72,22.67-14.63,34-10.09C421.71,977.76,408.81,981.77,392.37,979.41Z"/><path d="M1158.11,713.65c2.84,1.1,6.34,1.59,8.62,3.52a26.17,26.17,0,0,1,9.46,22.48c-.63,8.66-6,15-14.06,17.87-3.39,1.21-8.46,1-11.53-.8-13.37-7.62-13.73-31.54-.87-40.16C1151.94,715.08,1154.9,714.72,1158.11,713.65Zm1.5,39.12c8.17,1.37,12.38-3.08,12.51-10.59Z"/><path d="M1205.19,713.46c-16.65-.07-27.26-13.39-23.74-29.67,1.34-6.18,5.87-7.72,11.18-7.65a34.26,34.26,0,0,1,23.63,9.28c6.26,5.82,7.75,12,4.8,19.29S1212,713.35,1205.19,713.46Zm11.86-13.37,2-1.91c-.56-6.69-4.61-11.25-10.39-14.08-2.61-1.28-6-.92-8.68-1.26Z"/><path d="M1106.83,683.22c8.24-11.22,18.47-17.67,33.64-13.29l-11,.88c-6,13.11-20.88,22.88-35.22,22.18l4.53-3.35c8.48,1.46,22.57-8.3,26.21-19.17Z"/><path d="M1134.88,704.17c-.84,5.18-1.62,10.36-2.54,15.52a14.54,14.54,0,0,1-3,7.13l1.15-16.05c-4.49,9.45-3.94,17.69-2.86,26-.85-7-1.69-14-2.51-20.66l-2.19,1.19c1.4-2.8,2.86-5.58,4.1-8.45.13-.28-1-1.12-1.59-1.7l6.76-7.59Z"/><path d="M1100.22,727.48c3.07-1,6.4-1.45,9.16-3,4.57-2.53,7.85-7.37,13.77-7.46-5.64,11.11-16.42,12.35-26.58,14.77l-1-1.65Z"/><path d="M1118.91,647c9.06,6.64,19,11.14,30.36,11.48,1.49,0,3-1.68,4.54-2.58l4.45,2.8c-17.52,4-30.5-3.28-44.7-11.7Z"/><path d="M1164.63,680.6l2.27,5.15c-4.09,3.27-.58,6.4-.2,9.34l-4.27-.27a105.14,105.14,0,0,1-1.29-11.86c-.05-4.23.76-8.48,1.28-13.65.93,3.92,1.63,6.9,2.34,9.89Z"/><path d="M1164.63,680.6l.13-1.4c11.14,5.64,16.21,17.1,13.74,33l-3.49-4.84c.9-.74,2.63-1.52,2.59-2.2C1177,695,1173.44,686.41,1164.63,680.6Z"/><path d="M1132.08,734.47c1.26-4.9,3.17-9.75,3.58-14.72.43-5.19-.59-10.49-1-15.74C1140.87,714.76,1138.45,724.78,1132.08,734.47Z"/><path d="M1182,645.47l-12.51,11-1.26-1.46,12-11.6Z"/><path d="M1120.53,710.06,1100.89,727Z"/></svg>

