<svg xmlns="http://www.w3.org/2000/svg" viewBox="0 0 2000 2000" width="500" height="500"><path d="M996.68,221.52c0,.31-1.82,2.43-4.24,4.55a174.33,174.33,0,0,0-17,20.3C963.35,263,938.2,303,917.29,338.48c-10.3,17.57-15.15,26-24.24,43.33-18.48,35.45-28.78,49.38-46.35,63.93-9.4,7.57-20.3,13.33-29.39,14.84a27.16,27.16,0,0,1-12.12,0c-7.88-1.82-12.12-5.75-15.76-15.15-4.54-12.12-4.85-35.14-.91-55.44,3.94-19.7,10.3-36.06,27.88-73,2.42-5.46,5.45-11.82,6.36-14.55C825.19,297,827.31,290,827,289.7c-.6-.61-5.75,4.24-10,8.78-7.87,8.79-10.3,12.12-27,35.15-37,50.9-41.51,57.57-60,90.9-12.12,21.81-45.75,80.29-74.84,82.11a30.59,30.59,0,0,1-5.76-.31c-6.66-1.21-9.39-4.24-10.6-12.12-3.34-18.48,6.06-54.23,25.75-98.47,2.12-4.85,3.64-8.78,3.33-8.78a6.57,6.57,0,0,1-3-2.43c0-1.21,2.12-7.88,6.37-19.69,8.18-22.12,10.6-32.42,10.6-46.36,0-8.18-.61-12.42-3-17-2.73-6.06-7.27-9.69-19.09-15.15-16.36-7.57-22.72-11.21-28.48-16.66-7.57-7.27-8.48-14.24-2.42-23,14.24-21.81,65.14-47,103.32-51.2,20.9-2.43,37,2.72,42.11,13.33,1.52,2.42,1.52,3.33,1.82,7.27.3,7.57-1.51,13.94-6.36,25.75-4.55,10.31-10.91,22.73-38.78,73.93C699.14,374.84,686.72,399.38,674.9,426c-14.84,33.33-21.51,56-19.69,67.27a11.41,11.41,0,0,0,.91,3.63c.3.3,3.33-2.42,7.57-6.66,11.82-11.21,27.57-31.21,48.18-60.6,11.81-17.27,20.3-30.6,39.08-61.81,16.06-27,30-49.39,51.81-72.42C817.31,280.61,824,277,831.55,279.39c5.45,1.82,7.88,4.55,8.48,8.79.61,5.15-1.51,12.42-13.94,50-11.81,36.06-13.63,42.12-17.27,56.66-3.33,13.94-4.84,23.64-4.84,33.94,0,10.91,1.51,18.18,4.54,23.33.91,1.82,1.21,2.12,2.73,1.82,2.42-.31,8.48-3.64,12.42-6.37,30-21.21,56.05-65.14,74.84-97.86,35.75-63,61.5-102.11,78.78-120,5.75-6.06,12.42-11.81,13.63-11.81C992.74,217.89,996.68,220.31,996.68,221.52ZM701,322.42l.3,3.64,1.52-1.82c.6-1.21,3.33-5.46,5.75-9.7,2.43-3.94,7.58-11.82,11.21-17.27,34.85-54.23,47-78.17,44.85-88.47-1.22-4.85-2.73-5.76-10.91-5.76-8.18-.3-16.36,1.21-29.69,5.15-20.3,5.76-72.72,25.76-81.51,48.18-2.42,6.36,1.21,13,11.21,19.39,2.12,1.21,8.79,4.85,14.85,7.88C685.81,292.73,699.44,300,701,322.42Z"/><path d="M1035.45,337.27c-.31-.31-1.21.9-2.12,2.42-3.34,4.54-29.09,36.06-36.67,45.15-18.78,23.93-27.27,32.42-37.57,37.87-5.75,2.73-8.78,3.63-13.93,3.63-5.16-.3-7.88-1.21-10.61-4.24-6.66-7-8.48-18.78-4.85-32.72a18.69,18.69,0,0,0,.91-3.64c1.21-5.15,6.67-18.17,6.67-18.17a75.71,75.71,0,0,0,3.63-7.88,92.75,92.75,0,0,1,10.31-18.49c4.84-7.27,10.3-13.93,12.42-15.75,1.82-1.21,2.12-1.21,6.06-1.21,3.63,0,4.85,0,7.27.91,6.06,2.12,10,5.45,10,8.48.3,1.82-1.21,4.54-5.15,10.3-1.82,2.73-4.85,7-6.37,9.7-1.81,2.42-5.15,7-7.27,10-7,9.69-18.18,27.57-22.12,35.75-3.63,7.88-4.84,16.06-3,20s4.54,4.24,10.3,1.21c9.09-4.85,18.18-13.94,40.9-41.51,12.12-14.24,33-39.09,39.09-47.27C1037.87,332.42,1035.45,337.27,1035.45,337.27Zm-27.88-37.88c-3.33,3.33-6.36,5.76-10.6,10.3-3.94,3.94-8.49,7.28-9.4,7h-.9c-.61,0,.3-3.33-.61-3.63l-.3-3.94c.91-9.39,1.51-2.73,5.15-12.73,2.42-6.36,3-4.85,4.24-8.78,1.82-5.76,6.36-10.91,9.69-10.31,3.64.91,9.09,6.37,10.31,9.7C1016.05,290,1013.33,293,1007.57,299.39Z"/><path d="M1184.82,335.75c-.31,0-1.22,1.21-2.13,2.42-3.33,4.85-29.08,36.36-36.66,45.45-18.78,23.94-27.27,32.42-37.57,37.57-5.75,3-8.78,3.94-13.94,3.64-5.15,0-10.9-.61-13.93-3.33-9.09-7.28-9.7-18.49-7.88-30a17.93,17.93,0,0,0,.61-3.94c4.84-18.78,17.57-29.69,23.33-39.39,5.75-10-4.85-4.84-4.85-4.84l-5.15,2.72c-18.18,9.4-27.27,16.67-60.9,49.69-4.25,4.55-13.34,16.06-13.94,16.36a17.19,17.19,0,0,1-7.88,0,6.51,6.51,0,0,1-2.12-1.81c-.91-1.22-.91-1.52,0-6.37a145,145,0,0,1,6.06-19.69c2.12-6.06,3.94-10.61,4.54-12.12,3-6.36,25.46-51.51,25.46-51.51,1.51-2.42,2.72-3.33,6.06-3.63,2.42-.31,2.72-.31,6,1.51,4.25,2.12,6.06,3.94,6.06,6.67,0,3.63-17.27,39.08-28.17,56.05l-1.52,2.73,5.15-4.85c11.82-10.91,46.66-39.09,63.33-43.33,4.54-1.51,11.81,2.12,15.15,7.58.91,1.81.91,2.42.91,6.36a22.6,22.6,0,0,1-1.22,7.88,238.57,238.57,0,0,1-10.9,26.36c-4.25,12.72-6.67,25.14-3.64,31.2a4,4,0,0,0,3.94,2.13,13.72,13.72,0,0,0,5.76-1.82c9.39-4.85,16.05-10,38.78-37.57,12.12-14.55,33-39.39,39.08-47.27C1187.54,330.9,1184.82,335.75,1184.82,335.75Z"/><path d="M1290.25,337.27c0-.31-.91.9-2.12,2.42-3.33,4.54-29.09,36.06-36.36,45.15-14.24,17.87-38.78,40.6-63.63,40.6a30.94,30.94,0,0,1-9.09-1.22c-61.5-22.42,5.15-113.92,38.48-112.4,6.37.3,13.94,2.72,18.79,4.54,3,1.51,5.75,3,7.57,5.15,0,0,15.46,9.09-5.75,34.54-17,20.6-45.15,24.24-57,24.54a85.88,85.88,0,0,0-3.63,10.3c-3.33,14.25-.31,27.88,12.42,27.88,20,0,48.18-26.06,59.39-39.69,11.81-14.24,32.72-39.09,38.78-47.27C1293,332.42,1290.25,337.27,1290.25,337.27ZM1184.2,373c23.33.6,39.09-16.36,50.3-31.82,12.12-16.36-1.82-18.48-1.82-18.48a10.54,10.54,0,0,0-4.24.31,15.1,15.1,0,0,0-3.64.9C1206.32,330.6,1191.48,355.45,1184.2,373Z"/><path d="M997.16,554c-4.85,29.39-15.76,55.75-38.48,93.32-8.79,14.85-37.87,59.69-57.87,60.6-4.24.3-7-.61-8.18-4.85l11.51-2.42c.61,0,7.88-7.28,12.12-11.82,27.88-29.69,57-85.44,59.39-125.13A120.14,120.14,0,0,0,974.43,541a89,89,0,0,0-20.3-45.14,65,65,0,0,0-7-6.37l-3-2.42v.3a65.43,65.43,0,0,0-13.94-7.88,2.38,2.38,0,0,0-1.82-.9A64.68,64.68,0,0,0,911.11,474c-.3-.3-3.64-.3-7-.61a82.71,82.71,0,0,0-38.78,7.88,51.15,51.15,0,0,0-17.88,14.24c-17,21.51-10,53.93,17.27,80.6,3,3,6.67,8.78,7.27,11.21.61,2.73-1.51,5.15-6.06,8.18-5.45,3-7.87,3.94-18.18,5.15-11.51,1.21-20,3.64-27.57,7.27-20.6,9.09-42.72,34.24-42.72,57.27-.6,8.48,2.73,22.12,6.36,29.08a32,32,0,0,0,21.52,16.67c4.24.91,12.42.3,16.66-.91,20-5.76,31.81-33.94,32.42-52.42.3-11.21-3.64-22.72-10.3-30.6-1.21-1.21-2.12-2.73-1.82-3a21.82,21.82,0,0,1,3-2.12c30-19.69,76.66-21.51,91.2-20.6,15.15.91,16.06,16.36,0,14.84a156.74,156.74,0,0,0-23-1.82,144.63,144.63,0,0,0-56,11.22,26.57,26.57,0,0,0,2.73,3c9.39,13,11.51,31.21,5.45,49.39-3.33,9.7-8.79,18.79-14.85,23.64-9.69,8.78-23.33,14.54-38.48,16.05-21.2,2.12-37.57-7.87-43-26.66-3.64-12.42-1.51-26.06,5.76-40.9a107.94,107.94,0,0,1,74.53-56.36c.91-.3,2.12-.3,2.12-.6s-.91-.91-1.81-1.52c-7.28-3.64-20.3-17.88-26.06-28.18-3-5.15-7.27-19.39-7.27-24.84-.61-11.21,1.81-20.3,8.18-30C841.42,484,880.81,464,909,461c1.51,0,3.33-.3,3.33-.6,0,0,9.39-2.12,33.94,3l4.54,1.51c14.24,4.85,27.27,13.64,35.45,24.24C998.07,504,1001.7,526.72,997.16,554Z"/><path d="M1043.39,683.84a66.66,66.66,0,0,1-11.21-44.24c2.72-25.14,18.18-55.44,36.66-72.11,7.88-7,17.57-13.33,20.3-13.33,1.51,0,4.24,2.12,4.24,3.33,0,.61-1.21,1.82-3,2.73-6.06,3.94-15.75,14.85-23.63,27.27-22.42,33.63-29.39,63.93-20,86.35a50.49,50.49,0,0,0,23,25.15c5.45,2.73,6.06,3,6.36,2.12.3-.61,1.82-4.54,3.33-8.79,18.18-46.66,63.63-99.68,125.14-146,35.14-26.36,67.26-40.6,90.29-40.6,21.51,0,38.48,15.15,44.54,35.45,1.51,4.55,1.51,6.06,1.51,13.33,0,7.58,0,9.09-1.51,15.15-5.76,21.52-19.39,41.82-44.54,66.36-43.94,42.72-112.71,81.5-175.43,81.5a136.12,136.12,0,0,1-22.42-1.82l-4.25-.9L1091,720.2c-5.15,17-7,34.84-4.85,48.78,3.33,21.51,16.36,37.27,35.75,42.72,5.46,1.52,17.88,1.82,25.15.61,23.94-3.94,46-14.24,80.59-38.18,27.88-19.39,50.6-38.78,61.82-53,2.42-3,3.63-4.24,4.84-4.24,1.52,0,3.94,1.51,3.94,2.42s-9.39,12.12-15.75,18.79c-23,23.93-67.27,56-96.66,70a100.11,100.11,0,0,1-37.57,10.6c-7,.91-9.09.61-16.36,0-20.3-1.82-41.21-13.63-51.81-29.39-7.88-11.51-11.51-24.84-11.51-42.42a155.27,155.27,0,0,1,4.84-37.27c.31-.9,0-1.21-3-2.72C1060.35,702,1049.45,692.63,1043.39,683.84ZM1097,706c1.21,1.21,27.57.3,35.75-.91,51.51-8.18,100.9-34.54,145.43-77.57,19.4-19.08,43.33-47,47.57-75.14a33,33,0,0,0,.31-12.12c-.91-7.57-2.73-11.21-7-13.63-5.15-3-11.82-4.55-19.39-4.55-16.06,0-36.36,6.37-57.57,18.18-55.15,30.61-116.65,101.2-142.1,157.26C1097,703.84,1096.41,705.66,1097,706Z"/><path d="M1473.32,660.21c-8.18,14.84-31.82,39.39-43.33,50.9-13.94,14.24-24.54,21.51-33,23.33-6.06,1.21-10.9,0-13.63-2.73-5.15-6.06-13.64-10.3-9.7-27.87v-1.21c2.43-8.79,7.88-17,13.33-26.06,0,0,13.64-24.24,4.25-23-.31,0-.31.3-.61.3l-1.51.91a.93.93,0,0,0-.61.31c-25.15,14.84-59.69,52.11-77.57,74.53-3.63,4.85-5.15,5.76-8.78,5.46-4.24,0-6.67-6.06-3.33-15.46,3.33-8.48,7-17.57,10.9-26.66,35.76-84.53,96-148.16,96-148.16,3.64-4.24,6.36-7,9.09-8.79,2.42-1.51,3-1.82,5.45-1.82,5.46,0,12.43,3.94,13.64,7.88,1.21,3.33,1.82,6.06-1.52,11.51-3.94,5.46-13.63,17-30.6,38.18-25.45,31.82-48.17,66-69.69,100.59-4.84,7.58-4.84,7.58-3,5.76,15.76-15.75,48.48-48.17,70-54.54a13.51,13.51,0,0,1,1.52-.3s17.27-4.55,20.3,10c-.3,8.79-33,52.11-29.39,70.9,1.21,2.72,3.64,4.24,4.24,4.24,1.82,0,11.21-7,19.7-14.54,21.21-19.4,30.3-26.36,44.54-46.06,2.12-3,7.87-11.21,7.87-11.21S1474.53,657.78,1473.32,660.21Z"/><path d="M1575.42,662.93c0-.3-.91.91-2.12,2.43-3.34,4.54-29.09,36-36.36,45.14-14.24,17.88-38.79,40.6-63.63,40.6a31,31,0,0,1-9.09-1.21c-61.51-22.42,5.15-113.92,38.48-112.41,6.36.31,13.94,2.73,18.78,4.55,3,1.51,5.76,3,7.58,5.15,0,0,15.45,9.09-5.76,34.54-17,20.6-45.14,24.24-57,24.54a84.3,84.3,0,0,0-3.64,10.3c-3.33,14.24-.3,27.88,12.43,27.88,20,0,48.17-26.06,59.38-39.69,11.82-14.24,32.73-39.09,38.79-47.27C1578.14,658.09,1575.42,662.93,1575.42,662.93Zm-106.05,35.76c23.33.6,39.09-16.36,50.3-31.82,12.12-16.36-1.82-18.48-1.82-18.48a10.62,10.62,0,0,0-4.24.3,15.19,15.19,0,0,0-3.64.91C1491.49,656.27,1476.64,681.11,1469.37,698.69Z"/><path d="M1680.85,662.93c0-.3-.91.91-2.12,2.43-3.33,4.54-29.09,36-36.36,45.14-14.24,17.88-38.78,40.6-63.63,40.6a31,31,0,0,1-9.09-1.21c-61.5-22.42,5.15-113.92,38.48-112.41,6.37.31,13.94,2.73,18.79,4.55,3,1.51,5.75,3,7.57,5.15,0,0,15.46,9.09-5.75,34.54-17,20.6-45.15,24.24-57,24.54a85.88,85.88,0,0,0-3.63,10.3c-3.33,14.24-.31,27.88,12.42,27.88,20,0,48.18-26.06,59.39-39.69,11.81-14.24,32.72-39.09,38.78-47.27C1683.58,658.09,1680.85,662.93,1680.85,662.93Zm-106,35.76c23.33.6,39.09-16.36,50.3-31.82,12.12-16.36-1.82-18.48-1.82-18.48a10.65,10.65,0,0,0-4.24.3,15.3,15.3,0,0,0-3.64.91C1596.92,656.27,1582.08,681.11,1574.8,698.69Z"/><path d="M1838.1,662.93a389.45,389.45,0,0,1-37.58,25.45c-20,13-38.78,16.37-55.14,20v.31c9.09,9.09,13.33,16.36,14.85,25.75,1.82,10.6,0,19.69-6.37,29.39-4.84,7.57-10.3,12.72-18.48,18.48-9.09,6.36-19.39,11.21-32.42,15.45-18.48,6.06-27.27,7.88-43.93,8.79a75.08,75.08,0,0,1-7.58-.3c-10.6-.91-22.11-6.37-26.36-12.73-3.33-4.54-4.24-10.3-3.33-16.36,4.85-17.57,30.6-35.15,51.21-46.66.3-.3,28.17-17.27,51.5-23.63l-8.18-7.27c.31,0-4.24-3.34-9.69-7-15.76-10.3-20.6-14.85-25.15-21.82A14.31,14.31,0,0,1,1679,666c-2.13-6.66.6-14.54,6.66-20.3,6.36-6.06,19.7-12.72,34.54-17,10.3-3,13-3.34,22.73-3.64s12.42,0,17,2.42c5.46,2.73,10.61,9.09,11.22,13.64.6,3-1.22,7-5.16,11.51,0,0-8.18,8.18-10.3,5.15-1.82-3.33,8.79-10,9.4-15.45s-9.09-3.94-9.09-3.94c-.31-.3-.61-.3-1.82-.3-2.73,0-10,1.51-16.06,3.64a117.17,117.17,0,0,0-25.45,12.72c-9.39,6.06-13.33,10.91-13.33,15.15,0,2.12,0,2.42,2.12,4.54a136.26,136.26,0,0,0,11.21,7.88c4.85,3.34,10.91,7.58,13.63,9.7l4.85,3.63c4.85,3.64,9.7,8.18,9.7,8.18A227.48,227.48,0,0,0,1796.28,686c13-7.27,28.79-17.57,39.69-28.48C1836,657.48,1839.91,656.57,1838.1,662.93Zm-103,54.85c-1.21-1.52-3-3.64-4.55-5.46-19.39,5.76-39.08,15.76-39.08,15.76-11.51,7.57-24.85,17-32.72,23.63-12.73,10.3-20,19.09-22.12,27.27-1.21,3.94-1.21,9.39,0,12.42,2.12,4.24,6.36,7,13.33,7.88,3,.6,12.72.3,19.09-.61,11.81-1.51,18.48-3.33,31.21-9.39,12.72-5.76,24.23-10.91,29.39-18.78C1736.59,759,1757.2,746.56,1735.08,717.78Z"/><path d="M1943.53,662.93c0-.3-.91.91-2.12,2.43-3.33,4.54-29.09,36-36.36,45.14-14.24,17.88-38.78,40.6-63.63,40.6a31,31,0,0,1-9.09-1.21c-61.5-22.42,5.15-113.92,38.48-112.41,6.37.31,13.94,2.73,18.79,4.55,3,1.51,5.75,3,7.57,5.15,0,0,15.46,9.09-5.75,34.54-17,20.6-45.15,24.24-57,24.54a85.88,85.88,0,0,0-3.63,10.3c-3.33,14.24-.31,27.88,12.42,27.88,20,0,48.18-26.06,59.39-39.69,11.81-14.24,32.72-39.09,38.78-47.27C1946.26,658.09,1943.53,662.93,1943.53,662.93Zm-106,35.76c23.33.6,39.09-16.36,50.3-31.82,12.12-16.36-1.82-18.48-1.82-18.48a10.65,10.65,0,0,0-4.24.3,15.3,15.3,0,0,0-3.64.91C1859.6,656.27,1844.76,681.11,1837.48,698.69Z"/><path d="M717.58,1252.91S691.83,1280.18,617,1315l-3.94,7c-20.6,36.06-42.72,70.29-70.29,101.2-17.88,20-49.39,42.11-74.54,49.69-9.09,2.42-18.18,3.63-23.63,2.73-6.06-.91-9.7-3.34-11.51-7-1.22-2.43-1.22-6.67,0-11.21,3.33-13,20.6-36.67,41.2-55.75,16.06-15.46,43-35.45,77.57-57.87,16.66-10.91,16.66-11.22,28.18-17.58l8.78-4.85,5.76-10.3c5.45-10.6,12.42-22.42,16.66-29.08l2.43-3.64v.3a308.12,308.12,0,0,1,20.3-27.87c-14.55,12.42-30.3,26.66-40.3,39.39-13,16.36-23,22.11-30.6,22.11-10.91,0-16.06-12.72-15.45-24.84,1.51-20,17.27-49.39,51.2-71.2,8.79-5.76,16.36-7.88,22.42-7.88,20.91,0,25.76,25.45,17,25.45,0,0,3.94-9.39-5.15-9.39-9.39,0-27-.91-50.9,36.66-19.39,30.6-19.39,41.81-14.55,41.81a7.26,7.26,0,0,0,3.94-1.82c7.88-6.06,81.2-83.62,97.57-83.62h1.21c3.63.61,7.57,3.63,7.57,5.76,0,.9-1.21,2.72-2.73,5.15-1.51,1.81-5.45,7.57-9.08,12.42-3.34,4.85-7.28,10.6-8.79,12.42a460.42,460.42,0,0,0-28.79,42.72,38.13,38.13,0,0,1-2.42,4.24l-.61,1.22c10.61-5.15,59.39-28.48,87-52.42C712.43,1249,716.37,1249.58,717.58,1252.91ZM582.15,1335l-7.88,4.85c-30,18.18-60.6,40-82.11,58.17-24.85,21.51-43.63,45.45-47.27,60.3-2.72,10,1.22,14.24,11.82,11.81,30.6-5.75,72.11-49.39,88.78-73,14.54-20.3,17.27-24.84,33.93-57Z"/><path d="M859.38,1251.7c-24.85,17-50.91,22.12-67.57,21.21-11.21,30.29-32.72,74.23-70.6,74.23-9.09,0-14.84-1.52-21.81-8.49q-13.64-13.62-12.73-37.26c.31-3.64.31-6.37,0-6.37.31-8.78,4.85-18.18,4.85-18.18.61-1.21,1.52-2.72,2.12-4.24,6.67-13.63,25.45-34.84,42.12-34.84l2.72-.3v-1.52c0-6.66,5.76-17.27,12.73-23.63,7-6.67,13.94-9.39,22.12-9.39,10,0,17.87,3.93,22.42,11.51,5.15,8.48,7,21.51,4.54,33-1.21,4.85-5.15,17-5.15,17l-1.21,3.34c27.88,1.81,60-18.79,60-18.79C857,1248.67,859.38,1251.7,859.38,1251.7Zm-78.48,20.6s-23.63-1.21-35.75-17.88l-1.82-2.12-3.63,3.64c-14.25,15.45-27.88,36.36-27.88,57.87,0,6.66.91,11.21,3.64,16.06,2.12,4.24,7.27,8.78,10,8.78a26.69,26.69,0,0,0,4.25-1.81C749.09,1326.53,772.12,1293.51,780.9,1272.3Zm-3.33-63c-8.79-.61-15.45,7.57-20.3,17.87-5.15,10.61-3.94,17.58,0,25.46,6.36,12.11,25.75,15.15,25.75,15.15l2.73-11.52c1.21-3.94,2.12-10.6,2.73-16.36C789.69,1227.46,786.36,1209.88,777.57,1209.28Z"/><path d="M1000.87,1251.7c-24.85,17-50.91,22.12-67.57,21.21-11.21,30.29-32.72,74.23-70.6,74.23-9.09,0-14.84-1.52-21.81-8.49q-13.64-13.62-12.73-37.26c.31-3.64.31-6.37,0-6.37.31-8.78,4.85-18.18,4.85-18.18.61-1.21,1.52-2.72,2.12-4.24,6.67-13.63,25.45-34.84,42.12-34.84l2.72-.3v-1.52c0-6.66,5.76-17.27,12.73-23.63,7-6.67,13.94-9.39,22.12-9.39,10,0,17.87,3.93,22.42,11.51,5.15,8.48,7,21.51,4.54,33-1.21,4.85-5.15,17-5.15,17l-1.21,3.34c27.88,1.81,60-18.79,60-18.79C998.44,1248.67,1000.87,1251.7,1000.87,1251.7Zm-78.48,20.6s-23.63-1.21-35.75-17.88l-1.82-2.12-3.63,3.64c-14.25,15.45-27.88,36.36-27.88,57.87,0,6.66.91,11.21,3.64,16.06,2.12,4.24,7.27,8.78,10,8.78a26.69,26.69,0,0,0,4.25-1.81C890.58,1326.53,913.61,1293.51,922.39,1272.3Zm-3.33-63c-8.79-.61-15.45,7.57-20.3,17.87-5.15,10.61-3.94,17.58,0,25.46,6.36,12.11,25.75,15.15,25.75,15.15l2.73-11.52c1.21-3.94,2.12-10.6,2.73-16.36C931.18,1227.46,927.85,1209.88,919.06,1209.28Z"/><path d="M1204.47,1252c0,.3-1.21,2.12-3.33,6.06l-16.06,29.39c-20,37.57-38.48,69.38-51.81,90-14.55,21.81-40,56.66-67,63.32-3.34.91-4.85.91-8.79.61-5.76,0-7.58-1.21-11.51-5.15-4.25-4.85-6.37-10.61-7.58-20-.91-6.67-.3-21.51,1.52-30.9,3.33-21.21,10-44.24,22.11-77.57,9.7-27.57,19.7-52.11,29.39-73.32a27.12,27.12,0,0,0-2.12,3.63c-24.84,29.7-58.17,68.48-92.41,104.23-16.36,17-27.87,23.33-35.75,23.33-13.94,0-17-19.69-15.76-36,1.52-25.46,21.82-62.42,64.54-89.69,11.51-7.27,20.6-10,27.57-10,23.64,0,24.54,31.82,13.64,31.82,0,0,5.15-11.82-6.67-11.82s-34.54-1.21-64.23,46.36c-23,35.75-23.64,56.35-13.94,56.35,3.33,0,7.57-2.12,12.73-7,56.65-54.53,97.86-102.1,120.28-127.55l3.64-7.58a413.36,413.36,0,0,1,42.42-66.66s14.54-17,26-17a9.13,9.13,0,0,1,7.28,3.33c11.21,12.42-51.21,77.56-51.21,77.56-1.21,2.43-2.12,3.64-2.12,3.94l-5.45,9.39a6.39,6.39,0,0,0-.91,1.52c-.61,1.21-2.73,5.15-5.15,9.09-25.15,45.14-54.85,114.83-59.69,167.55-1.52,15.76.3,24.24,5.75,30.6,2.73,3,4.55,3.94,8.49,3.34,18.78-1.82,49.38-45.75,58.78-59.69,13.93-21.21,25.75-40.6,50.29-84.23,21.52-37.27,22.42-38.79,23.64-39.39S1204.77,1250.48,1204.47,1252Z"/><path d="M1041.48,1508.32c-4.55-2.12-35.75-4.85-66.66-5.46-30-.6-59.08,1.52-137.86,9.09-8.79.91-23.33,2.12-32.42,3-8.79.61-16.66,1.52-17.27,1.82a6.16,6.16,0,0,0-2.12,3.33c-9.39,26.67-17.27,44.85-34.54,77.87-5.45,10.91-10.3,20-10.3,20.3,32.11-6.36,68.78-13,101.5-16.06a139.29,139.29,0,0,1,16.06-.3c8.78,0,9.09,0,10.6,1.51s3,3.94,2.73,4.85a43.73,43.73,0,0,1-7,.61c-15.15.91-45.15,5.76-87.56,14.84-15.76,3.34-37.27,8.19-42.12,9.4l-2.42.6-11.82,24.55c-6.67,13.33-13.33,26.66-14.54,29.39l-2.43,5.15.91,3.63c2.12,7.58,2.73,13.33,2.43,22.12-.31,9.09-1.22,14.54-4.25,23-6.36,18.48-23,42.42-33.32,47.26a19.29,19.29,0,0,1-8.49,1.82,12,12,0,0,1-6.06-1.21c-3.33-1.51-4.24-3.33-4.24-9.39.3-13.33,4.85-26.67,27.27-75.45,6.36-13.63,8.18-17.87,7.88-19.09-3.34-10-11.82-23-19.09-30.9l-2.43-2.73-17.57,5.46c-9.39,2.72-21.51,6.36-27,8.18-11.81,3.94-17,5.45-18.17,5.45-1.82,0-4.85-1.51-5.76-3.33-1.21-1.21-1.21-1.52-.3-3,1.51-3,7.27-6.06,24.84-12.73,5.15-1.82,13.94-5.15,20-7.27,6.06-1.82,10.91-3.63,11.21-3.63.91-.91-13.33-11.22-34.54-25.76-9.39-6.36-19.09-13-21.51-14.85-9.4-7.57-20-17.57-20-30.6,0-4.84,0-5.45,1.82-8.78,1.21-3,3-5.15,6.66-8.79,30.91-30.91,119.68-45.75,160.59-50.6,7.57-.91,15.75-1.82,18.18-1.82,2.42-.3,4.84-.6,5.15-.6.91-.31,2.72-4.55,5.15-14.55,2.42-8.18,3.63-9.09,9.39-7.27,3.64,1.21,7.27,3.33,9.39,6.06l2.12,2.12-.3,4.85c0,2.73-.3,5.45-.61,5.76-.3.91.61.91,8.49.3,53-3.94,112.41-6.67,133.31-6.06,43.94,1.51,94.23,7,103.93,11.21,2.42,1.21,4.85,3.64,5.45,5.45C1044.21,1508.92,1043.3,1509.53,1041.48,1508.32Zm-282.39,11.21c-.3,0-24.24,3-35.14,4.84-41.51,6.67-83.93,17.28-104.84,26.36-23.33,10-31.21,19.09-25.75,29.7,3.33,7.27,11.21,13.63,33.93,29.08,17.58,11.82,27.88,18.79,33.63,23.64,2.73,2.12,4.55,3,5.16,3s5.75-1.52,11.21-3c4.24-1.52,31.2-8.79,34.84-8.79.3-.3,4.85-10.6,10-23,12.42-30.3,16.66-39.69,27.87-62.41C755.15,1528.62,759.4,1519.83,759.09,1519.53Zm-67.87,200.58-1.51,2.72c-4.55,10.3-19.7,47-19.7,48.48,0,.91,7-9.7,10.31-15.75,5.75-10.91,10-23.33,10.6-31.82Zm13.94-79.39c-.3,0-27,7-27.27,7.27s.91,1.82,2.73,3.64c3.63,4.54,9.09,11.82,10.91,15.15.91,1.51,1.81,2.73,1.81,2.73.31,0,3-6.37,6.37-14.24S705.46,1641,705.16,1640.72Z"/><path d="M1008.44,1616.48s-69.39,103-100.29,131.8c-31.21,28.79-43.93,22.73-43.93,22.73-7-1.21-10-7-10-18.79,0-14.54,5.15-33.33,13.63-50.29q9.54-19.54,32.72-48.18c4.55-5.76,9.4-10.6,17.28-18.48,5.75-5.76-4.85-10.91-4.85-10.91-18.79-7.27-24.85-15.75-24.85-15.75a51.31,51.31,0,0,1-7.88-9.09c-4.54-6.67-3.93-20.91-3.33-28.18,1.21-10.91,13.94-28.79,23.63-31.82,3-1.21,4.25-1.21,9.4-1.21,7,0,9.09.61,13.33,3.34,8.48,5.15,9.39,14.24,3.33,26.66-1.51,3-13.33,26-16.36,30.9-3.33,4.85-6.06,9.09-5.76,9.4.31.9,5.76,4.54,13.94,8.78,3.94,2.12,8.48,4.85,9.7,6.06,3.33,2.73,11.51,5.46,11.51,7.88s7.88,4.24,2.12,10.3c-5.45,6.06-17,18.79-22.42,25.45-17.57,21.21-37.87,53.63-44.24,71.51-3.63,10-5.15,19.39-3.94,23.93,15.15,13.64,132.11-150,132.11-150C1008.74,1613.76,1008.44,1616.48,1008.44,1616.48Zm-111.8-20.6c.91,3,2.72,7.27,3.33,7.27,0,0,1.21-1.82,2.73-3.63,9.09-13.64,20.9-43.94,18.48-51.82-.3-.9-.61-1.51-.91-1.51-1.21,0-4.85,2.42-7.27,4.24C904.51,1557.4,893.3,1585.28,896.64,1595.88Z"/><path d="M1080.24,1619.21c-.3-.3-1.21.91-2.12,2.42-3.33,4.55-29.08,36.06-36.66,45.15-18.78,23.94-27.27,32.42-37.57,37.87-5.76,2.73-8.79,3.64-13.94,3.64-5.15-.3-7.88-1.21-10.6-4.24-6.67-7-8.49-18.79-4.85-32.73a18.67,18.67,0,0,0,.91-3.63c1.21-5.15,6.66-18.18,6.66-18.18a72,72,0,0,0,3.64-7.88,92.41,92.41,0,0,1,10.3-18.48c4.85-7.27,10.3-13.94,12.42-15.76,1.82-1.21,2.13-1.21,6.06-1.21,3.64,0,4.85,0,7.28.91,6.06,2.12,10,5.45,10,8.48.3,1.82-1.22,4.55-5.16,10.31-1.81,2.72-4.84,7-6.36,9.69-1.82,2.43-5.15,7-7.27,10-7,9.7-18.18,27.57-22.12,35.75-3.63,7.88-4.85,16.06-3,20s4.55,4.24,10.3,1.21c9.09-4.85,18.18-13.94,40.91-41.51,12.12-14.24,33-39.08,39.08-47.26C1082.67,1614.36,1080.24,1619.21,1080.24,1619.21Zm-27.87-37.87c-3.33,3.33-6.36,5.75-10.61,10.3-3.94,3.94-8.48,7.27-9.39,7h-.91c-.6,0,.31-3.34-.6-3.64l-.31-3.94c.91-9.39,1.52-2.72,5.15-12.72,2.43-6.37,3-4.85,4.25-8.79,1.81-5.76,6.36-10.91,9.69-10.3,3.64.91,9.09,6.36,10.3,9.69C1060.85,1571.94,1058.13,1575,1052.37,1581.34Z"/><path d="M1185.68,1619.21c0-.3-.91.91-2.12,2.42-3.33,4.55-29.09,36.06-36.36,45.15-14.24,17.88-38.78,40.6-63.63,40.6a31.35,31.35,0,0,1-9.09-1.21c-61.5-22.42,5.15-113.93,38.48-112.41,6.36.3,13.94,2.73,18.79,4.54,3,1.52,5.75,3,7.57,5.15,0,0,15.45,9.09-5.75,34.55-17,20.6-45.15,24.23-57,24.54a85.28,85.28,0,0,0-3.63,10.3c-3.34,14.24-.31,27.87,12.42,27.87,20,0,48.18-26,59.39-39.69,11.81-14.24,32.72-39.08,38.78-47.26C1188.41,1614.36,1185.68,1619.21,1185.68,1619.21Zm-106,35.75c23.33.61,39.09-16.36,50.3-31.81,12.12-16.36-1.82-18.48-1.82-18.48a10.44,10.44,0,0,0-4.24.3,14.8,14.8,0,0,0-3.64.91C1101.75,1612.54,1086.91,1637.39,1079.63,1655Z"/><path d="M1335.05,1617.7c-.31,0-1.21,1.21-2.12,2.42-3.34,4.85-29.09,36.36-36.67,45.45-18.78,23.93-27.26,32.42-37.57,37.57-5.75,3-8.78,3.94-13.93,3.63-5.15,0-10.91-.6-13.94-3.33-9.09-7.27-9.7-18.48-7.88-30a18,18,0,0,0,.61-3.94c4.85-18.79,17.57-29.7,23.33-39.39,5.75-10-4.85-4.85-4.85-4.85l-5.15,2.73c-18.18,9.39-27.27,16.66-60.9,49.69-4.24,4.54-13.33,16.06-13.94,16.36a17.47,17.47,0,0,1-7.88,0,6.63,6.63,0,0,1-2.12-1.82c-.91-1.21-.91-1.51,0-6.36a144.57,144.57,0,0,1,6.06-19.7c2.12-6.06,3.94-10.6,4.55-12.12,3-6.36,25.45-51.5,25.45-51.5,1.51-2.43,2.72-3.34,6.06-3.64,2.42-.3,2.72-.3,6.06,1.51,4.24,2.13,6.06,3.94,6.06,6.67,0,3.64-17.27,39.09-28.18,56.05l-1.52,2.73,5.15-4.85c11.82-10.91,46.67-39.08,63.33-43.32,4.54-1.52,11.82,2.12,15.15,7.57.91,1.82.91,2.42.91,6.36a22.79,22.79,0,0,1-1.21,7.88,237,237,0,0,1-10.91,26.36c-4.24,12.73-6.67,25.15-3.64,31.21a4,4,0,0,0,3.94,2.12,13.68,13.68,0,0,0,5.76-1.82c9.39-4.85,16.06-10,38.78-37.57,12.12-14.54,33-39.39,39.09-47.27C1337.77,1612.85,1335.05,1617.7,1335.05,1617.7Z"/><path d="M1542,1615.57c0,.31-1.21,2.13-3.33,6.06L1522.59,1651c-20,37.57-38.48,69.39-51.81,90-14.54,21.82-40,56.66-67,63.33-3.33.91-4.85.91-8.79.6-5.75,0-7.57-1.21-11.51-5.15-4.24-4.85-6.36-10.6-7.58-20-.9-6.66-.3-21.51,1.52-30.9,3.33-21.21,10-44.24,22.12-77.57,9.69-27.57,19.69-52.11,29.39-73.32a25.64,25.64,0,0,0-2.12,3.64c-24.85,29.69-58.18,68.47-92.41,104.22-16.37,17-27.88,23.34-35.76,23.34-13.94,0-17-19.7-15.75-36.06,1.51-25.45,21.81-62.42,64.53-89.69,11.52-7.27,20.61-10,27.58-10,23.63,0,24.54,31.81,13.63,31.81,0,0,5.15-11.82-6.67-11.82s-34.54-1.21-64.23,46.36c-23,35.75-23.63,56.36-13.94,56.36,3.34,0,7.58-2.12,12.73-7,56.66-54.54,97.86-102.11,120.29-127.56l3.63-7.58a413.53,413.53,0,0,1,42.42-66.65s14.54-17,26.06-17a9.14,9.14,0,0,1,7.27,3.33c11.21,12.43-51.21,77.57-51.21,77.57-1.21,2.42-2.12,3.63-2.12,3.94l-5.45,9.39a6.64,6.64,0,0,0-.91,1.51c-.61,1.22-2.73,5.16-5.15,9.09-25.15,45.15-54.84,114.84-59.69,167.56-1.51,15.75.3,24.24,5.76,30.6,2.72,3,4.54,3.94,8.48,3.33,18.79-1.82,49.39-45.75,58.78-59.69,13.94-21.21,25.75-40.6,50.3-84.23,21.51-37.27,22.42-38.78,23.63-39.39S1542.29,1614.06,1542,1615.57Z"/><path d="M1698,1619.21a392.19,392.19,0,0,1-37.57,25.45c-20,13-38.78,16.36-55.14,20v.3c9.08,9.09,13.33,16.36,14.84,25.76,1.82,10.6,0,19.69-6.36,29.39-4.85,7.57-10.3,12.72-18.48,18.48-9.09,6.36-19.39,11.21-32.42,15.45-18.49,6.06-27.27,7.88-43.94,8.79a72.6,72.6,0,0,1-7.57-.31c-10.61-.91-22.12-6.36-26.36-12.72-3.33-4.55-4.24-10.3-3.33-16.36,4.84-17.58,30.6-35.15,51.2-46.66.3-.31,28.18-17.27,51.51-23.64l-8.18-7.27c.3,0-4.24-3.33-9.7-7-15.75-10.3-20.6-14.84-25.14-21.81a14.35,14.35,0,0,1-2.43-4.85c-2.12-6.67.61-14.54,6.67-20.3,6.36-6.06,19.69-12.73,34.54-17,10.3-3,13-3.33,22.72-3.63s12.42,0,17,2.42c5.45,2.73,10.6,9.09,11.21,13.64.61,3-1.21,7-5.15,11.51,0,0-8.18,8.18-10.3,5.15-1.82-3.33,8.78-10,9.39-15.45s-9.09-3.94-9.09-3.94c-.3-.31-.61-.31-1.82-.31-2.72,0-10,1.52-16.06,3.64a117.46,117.46,0,0,0-25.45,12.73c-9.39,6.06-13.33,10.9-13.33,15.15,0,2.12,0,2.42,2.12,4.54,1.52,1.21,6.37,4.85,11.21,7.88,4.85,3.33,10.91,7.57,13.64,9.69l4.85,3.64c4.84,3.64,9.69,8.18,9.69,8.18a228,228,0,0,0,55.45-17.57c13-7.27,28.78-17.58,39.69-28.48C1695.89,1613.76,1699.83,1612.85,1698,1619.21Zm-103,54.84c-1.21-1.51-3-3.63-4.54-5.45-19.39,5.75-39.09,15.75-39.09,15.75-11.51,7.58-24.84,17-32.72,23.64-12.72,10.3-20,19.08-22.12,27.27-1.21,3.93-1.21,9.39,0,12.42,2.12,4.24,6.36,7,13.33,7.88,3,.6,12.73.3,19.09-.61,11.82-1.52,18.48-3.33,31.21-9.39,12.73-5.76,24.24-10.91,29.39-18.79C1596.51,1715.26,1617.11,1702.84,1595,1674.05Z"/><path d="M624.3,1096.45V913.77h20.16v20.66a50.06,50.06,0,0,1,18.52-17q11.46-6.17,28.85-6.17a62.44,62.44,0,0,1,25.7,5.29,63.38,63.38,0,0,1,20.41,14.36,67.09,67.09,0,0,1,13.48,21.3,69.83,69.83,0,0,1,4.92,26.33,68.24,68.24,0,0,1-18.4,46.87,63.38,63.38,0,0,1-20.41,14.36,62.28,62.28,0,0,1-25.7,5.29q-17.39,0-28.85-6.17a50.78,50.78,0,0,1-18.52-16.76v74.33ZM644.46,970v17.39a47.52,47.52,0,0,0,4.91,14.74,40.93,40.93,0,0,0,9.45,12,48,48,0,0,0,49.64,7.18,43.11,43.11,0,0,0,14.36-10.33A46.25,46.25,0,0,0,731.77,996a49.68,49.68,0,0,0,3.15-17.51,51.45,51.45,0,0,0-3.15-17.89,47.43,47.43,0,0,0-8.95-15.12,42.34,42.34,0,0,0-14.36-10.46,45.71,45.71,0,0,0-19.15-3.9,46.92,46.92,0,0,0-17.13,3,42.93,42.93,0,0,0-13.61,8.32,41.79,41.79,0,0,0-9.32,12.34A51.18,51.18,0,0,0,644.46,970Z"/><path d="M908.53,1042.78H888.37v-20.66a50.94,50.94,0,0,1-18.52,16.76q-11.48,6.16-28.85,6.17a62.21,62.21,0,0,1-25.7-5.29,63.17,63.17,0,0,1-20.41-14.36,68.24,68.24,0,0,1-18.4-46.87,69.83,69.83,0,0,1,4.92-26.33,66.91,66.91,0,0,1,13.48-21.3,63.17,63.17,0,0,1,20.41-14.36,62.37,62.37,0,0,1,25.7-5.29q17.38,0,28.85,6.17a50.22,50.22,0,0,1,18.52,17V913.77h20.16ZM888.37,970a45,45,0,0,0-4.66-15.12,44,44,0,0,0-9.45-12.34,43,43,0,0,0-13.61-8.32,47,47,0,0,0-17.13-3,45.68,45.68,0,0,0-19.15,3.9A42.38,42.38,0,0,0,810,945.52a47.22,47.22,0,0,0-8.94,15.12,51.45,51.45,0,0,0-3.15,17.89A49.68,49.68,0,0,0,801.06,996a46,46,0,0,0,8.94,14.87,43.16,43.16,0,0,0,14.37,10.33,49.17,49.17,0,0,0,36.16.88,46.22,46.22,0,0,0,13.48-8.06,43,43,0,0,0,9.57-12,41.8,41.8,0,0,0,4.79-14.74Z"/><path d="M944.05,873.71a14.64,14.64,0,1,1,4.29,10.58A14.39,14.39,0,0,1,944.05,873.71Zm4.79,40.06H969v129H948.84Z"/><path d="M1009.31,913.77h20.16v28.47q7.82-15.62,21.17-23.3a57,57,0,0,1,29-7.69v21.92a51.87,51.87,0,0,0-17.26,3.15,52.86,52.86,0,0,0-16.25,9.2,48,48,0,0,0-12,15,44.37,44.37,0,0,0-4.66,20.79v61.48h-20.16Z"/><path d="M1302.11,978.53a68.24,68.24,0,0,1-18.4,46.87,63.27,63.27,0,0,1-20.41,14.36,62.25,62.25,0,0,1-25.7,5.29q-17.38,0-28.72-6a50,50,0,0,1-18.4-16.63v20.41h-20.16V861.36h20.16v72.82a51.23,51.23,0,0,1,18.4-16.76q11.32-6.17,28.72-6.17a62.41,62.41,0,0,1,25.7,5.29,63.27,63.27,0,0,1,20.41,14.36,67.09,67.09,0,0,1,13.48,21.3A69.83,69.83,0,0,1,1302.11,978.53Zm-111.63-10.08v20.41a41.74,41.74,0,0,0,5,14.11,43,43,0,0,0,9.58,11.46,45.62,45.62,0,0,0,13.35,7.82,49.12,49.12,0,0,0,35.78-1,43.11,43.11,0,0,0,14.36-10.33,46.07,46.07,0,0,0,9-14.87,49.68,49.68,0,0,0,3.15-17.51,51.45,51.45,0,0,0-3.15-17.89,47.24,47.24,0,0,0-9-15.12,42.34,42.34,0,0,0-14.36-10.46,45.68,45.68,0,0,0-19.15-3.9,47.42,47.42,0,0,0-16.76,2.89A42.55,42.55,0,0,0,1205,942a44.93,44.93,0,0,0-9.45,11.84A44.46,44.46,0,0,0,1190.48,968.45Z"/><path d="M1343.68,984.07a51.45,51.45,0,0,0,4.66,16.25,44.23,44.23,0,0,0,9.45,13.23,43.25,43.25,0,0,0,13.86,8.82,46.28,46.28,0,0,0,17.64,3.28q13.1,0,22.17-5.42a36.75,36.75,0,0,0,13.61-13.48h24.44a53.42,53.42,0,0,1-21.55,27.72q-15.75,10.58-38.67,10.58a64.86,64.86,0,0,1-26.08-5.29,67.68,67.68,0,0,1-35.66-35.53,64.13,64.13,0,0,1-5.29-26,68.42,68.42,0,0,1,5-26.34,66.75,66.75,0,0,1,13.86-21.29,64.43,64.43,0,0,1,46.62-19.4,76.38,76.38,0,0,1,25.19,4,63.82,63.82,0,0,1,20.29,11.34,58.78,58.78,0,0,1,14.11,17.51,58,58,0,0,1,6.42,22.81,58.67,58.67,0,0,1,.51,7.3c0,.51,0,1.56-.13,3.15s-.21,3.83-.38,6.68Zm87.18-17.13a41,41,0,0,0-4.15-15,36.73,36.73,0,0,0-9.08-11.46,39.74,39.74,0,0,0-13.22-7.31,52.64,52.64,0,0,0-16.63-2.52,45.28,45.28,0,0,0-16.13,2.77,41.31,41.31,0,0,0-12.85,7.69,43.51,43.51,0,0,0-9.2,11.46,47.7,47.7,0,0,0-5.16,14.37Z"/><path d="M1479.24,949.05q0-17.38,13-27.59t35.4-10.21q22.17,0,35.27,10.08t13.86,27.72h-21.41a17.51,17.51,0,0,0-7.69-13.74q-7.19-5.16-18.77-5.16-28.23,0-28.22,18.14,0,6.3,3.4,10.08a25.27,25.27,0,0,0,8.94,6.17,66.87,66.87,0,0,0,12.73,3.91c4.79,1,9.61,2.06,14.49,3.15s9.7,2.39,14.49,3.9a46.42,46.42,0,0,1,12.72,6.18,29.91,29.91,0,0,1,8.94,10q3.41,6,3.41,15.12,0,17.89-13.23,28t-36.92,10.08a81,81,0,0,1-21.92-2.77,54,54,0,0,1-16.75-7.69,34.51,34.51,0,0,1-10.71-12,32.54,32.54,0,0,1-3.78-15.62h21.67q3.52,19.15,32.5,19.15,27.72,0,27.72-17.13,0-8.32-5.92-12.23a48.85,48.85,0,0,0-14.62-6.17q-8.68-2.26-19-4a77.77,77.77,0,0,1-19-5.67,39.2,39.2,0,0,1-14.62-11.21Q1479.24,962.16,1479.24,949.05Z"/><path d="M1648.06,874v39.81h38v18.9h-38v72.57q0,12.84,5.29,17.13t14.11,4.29a103.74,103.74,0,0,0,18.65-2v18.9q-5.8.75-11.47,1.38a97,97,0,0,1-10.7.63,56.85,56.85,0,0,1-14.49-1.76,26.63,26.63,0,0,1-11.47-6.17,28.77,28.77,0,0,1-7.43-12.1q-2.65-7.68-2.65-19.27V932.67h-25.19v-18.9h25.19V874Z"/><path d="M1264.51,1266.82l-42.34-129h22.43l30.49,99,31.75-99h21.92l31.75,99,30.49-99h22.42l-42.33,129h-20.41l-32.76-102-33,102Z"/><path d="M1432.57,1097.75a14.64,14.64,0,1,1,4.28,10.58A14.34,14.34,0,0,1,1432.57,1097.75Zm4.79,40.06h20.15v129h-20.15Z"/><path d="M1533.36,1098v39.81h38.05v18.9h-38.05v72.57q0,12.85,5.29,17.13t14.11,4.29a103.83,103.83,0,0,0,18.65-2v18.9q-5.81.75-11.47,1.39a99.73,99.73,0,0,1-10.71.63,56.4,56.4,0,0,1-14.49-1.77,26.59,26.59,0,0,1-11.46-6.17,28.78,28.78,0,0,1-7.44-12.1q-2.64-7.68-2.64-19.27v-73.58H1488v-18.9h25.2V1098Z"/><path d="M1601.64,1085.4h20.16v77.11a55.33,55.33,0,0,1,48.63-27.22A48.74,48.74,0,0,1,1690,1139a42.73,42.73,0,0,1,14.36,10,41.53,41.53,0,0,1,8.94,15,56.7,56.7,0,0,1,3,18.77v84.16h-21.42V1186.7q0-15.89-8.44-24.07t-22.81-8.19a32.73,32.73,0,0,0-16.25,4.16,46,46,0,0,0-13,10.84,55.33,55.33,0,0,0-8.81,14.86,52.5,52.5,0,0,0-3.78,16.51v66h-20.16Z"/><path d="M419.06,884.46h-.51a103.18,103.18,0,0,1,.26-206.35H419a103.18,103.18,0,0,1,.1,206.35Zm-.25-202.71a99.58,99.58,0,0,0-99.63,99.55c0,54.86,44.61,99.51,99.37,99.52h.51a98.37,98.37,0,0,0,69.73-28.76A99.51,99.51,0,0,0,419,681.75Zm-84.93,87.61a9,9,0,0,1-6.43-2.7,9.63,9.63,0,0,1-2.16-9.94,194.77,194.77,0,0,1,10.38-26.32c6.89-14,17.64-25,32-32.83a30,30,0,0,1,5.51-2.14c.83-.25,1.62-.5,2.39-.78l1.87-.67,1.09,4.19-1,.72c-9.32,6.52-15.45,16.19-20.86,24.72-4.19,6.61-9.17,15.53-10.46,26-.1.79-.19,1.59-.28,2.38a59.81,59.81,0,0,1-1.25,8c-1.15,4.58-3.95,7.77-7.87,9A9.51,9.51,0,0,1,333.88,769.36Zm35.67-68.69-.17.09c-13.65,7.44-23.9,18-30.44,31.25a190.12,190.12,0,0,0-10.19,25.83A6.06,6.06,0,0,0,330,764.1a5.48,5.48,0,0,0,5.62,1.35c3.41-1.06,4.83-4.07,5.42-6.41a56.35,56.35,0,0,0,1.17-7.49c.09-.81.18-1.62.28-2.43,1.38-11.15,6.6-20.53,11-27.46S362.82,707,369.55,700.67Z"/><path d="M255,880.92a99.59,99.59,0,1,1,74.35-166.13l.9,1-.74,1.15C302,760.12,302,802.2,329.38,845.62l.72,1.14-.89,1c-17.13,19.67-42.38,31.7-69.27,33C258.29,880.88,256.64,880.92,255,880.92Zm.36-195.53a95.93,95.93,0,1,0,4.4,191.77c25.45-1.24,49.35-12.43,65.81-30.76-13.41-21.64-20.22-43.51-20.23-65s6.83-43.56,20.37-65.2a95,95,0,0,0-66-30.69C258.24,685.43,256.8,685.39,255.36,685.39Zm-82.72,90.05a9.87,9.87,0,0,1-2.5-.33,9.35,9.35,0,0,1-6.67-8.66,18,18,0,0,1,.52-5c5.76-25,15.81-42.08,31.61-53.88a48.43,48.43,0,0,1,8.29-4.65c1.16-.56,2.36-1.13,3.5-1.73a3,3,0,0,1,1.75-.24l.14,0h4.46l-3.2,3.12a96.21,96.21,0,0,0-26.16,45,30.33,30.33,0,0,0-.69,6.61,47.26,47.26,0,0,1-.42,5.52,32.56,32.56,0,0,1-2.8,9.36A8.6,8.6,0,0,1,172.64,775.44ZM201.93,708a30.92,30.92,0,0,0-4.15,2.55c-15.07,11.25-24.68,27.71-30.24,51.78a14.21,14.21,0,0,0-.44,4,5.77,5.77,0,0,0,4,5.33,5.21,5.21,0,0,0,6.15-2.6,28.63,28.63,0,0,0,2.46-8.31,40.93,40.93,0,0,0,.38-5.07,33.44,33.44,0,0,1,.81-7.41A99.54,99.54,0,0,1,201.93,708Z"/><path d="M340.37,704.35l-1.27-1.43c-15.6-17.57-24.52-41.78-24.47-66.43a103.86,103.86,0,0,1,102.88-103,101.38,101.38,0,0,1,73.6,30.77c25,25.62,30.13,53.69,30,72.72-.15,24-8.8,47.67-23.73,64.84l-1.26,1.44-1.38-1.32c-42.42-40.75-111.06-40.26-153,1.09ZM418,537.11h-.46a99,99,0,0,0-71.45,30.94c-39,40.71-33.45,98.1-5.49,131,43-40.93,111.84-41.42,155.3-1.1,27.49-33.1,32.27-90.59-7.37-131.19A97.77,97.77,0,0,0,418,537.11Zm-70.52,57.58a9.39,9.39,0,0,1-8.57-13.18,11.71,11.71,0,0,1,1.68-3.13c13.49-17.23,27.05-28,42.67-33.92,6.09-2.3,14.2-4.91,22.81-4.6a26,26,0,0,1,3.32.42l1.95.32,7.42,1.08-7.09,2.44c-18.76,6.45-33.71,16.51-45.7,30.74a27.66,27.66,0,0,0-3.06,5,36.49,36.49,0,0,1-2.76,4.72,42.27,42.27,0,0,1-7.8,8.47A7.79,7.79,0,0,1,347.46,594.69ZM403,543.51c-6.81.28-13.11,2.32-18.48,4.36-15,5.66-28,16.07-41.09,32.75a8.17,8.17,0,0,0-1.15,2.19,5.86,5.86,0,0,0,1.42,6.84c1.63,1.43,4.47,2,6.39.52a37.35,37.35,0,0,0,7.08-7.74,34.07,34.07,0,0,0,2.49-4.26,29.75,29.75,0,0,1,3.5-5.65A102.51,102.51,0,0,1,403,543.51Z"/><path d="M376.36,1016.05a101.94,101.94,0,0,1-58.1-18.27,106.34,106.34,0,0,1-43-63,107.61,107.61,0,0,1-.85-45.24c.81-4.3,1.83-4.77,6.64-5.26l2.12-.21-.12,2.12c-.12,2.32-.3,4.67-.47,6.95a148.94,148.94,0,0,0-.61,15.67,153.57,153.57,0,0,0,1.93,17.24c.26,1.69.51,3.37.75,5.05a9.78,9.78,0,0,0,1.54,3.7c1.44,2.24,3.32,3.2,5.61,2.84s3.77-1.75,4.55-4.4c1-3.28.57-6.7-1.27-10.43-6.43-13.1-6-27-4.82-38.91.18-1.79,2.07-3.28,3.36-3.77a108.83,108.83,0,0,0,31.93-19.3,62.22,62.22,0,0,0,5.1-5c.73-.78,1.45-1.55,2.17-2.27l1.29-1.31,1.29,1.3c25,25.05,51.9,37.52,81.39,37.52,17.11,0,35.07-4.19,54-12.55l2-.9.47,2.17c.41,1.9.88,3.85,1.34,5.74a123.21,123.21,0,0,1,2.65,13.06c3.06,24.05-1,46.05-12.14,65.4-16.41,28.57-40.83,45.65-72.59,50.78A102.51,102.51,0,0,1,376.36,1016.05ZM279.3,888.17a2.66,2.66,0,0,0-.86.22,10.42,10.42,0,0,0-.45,1.84,104.08,104.08,0,0,0,.82,43.72c12.27,51.55,62,85.46,113.22,77.2,30.62-4.95,54.18-21.43,70-49,10.7-18.65,14.64-39.89,11.68-63.13a118.3,118.3,0,0,0-2.58-12.66c-.29-1.21-.59-2.44-.87-3.67-18.54,7.91-36.45,11.89-53.47,11.89a103.6,103.6,0,0,1-18.8-1.69c-22.62-4.14-44.09-16.08-63.86-35.49l-.84.89a64.84,64.84,0,0,1-5.4,5.33,112.46,112.46,0,0,1-33,19.92,2.71,2.71,0,0,0-1.05.86c-1.16,11.35-1.52,24.58,4.49,36.82,2.22,4.53,2.73,8.93,1.49,13.07-1.18,4-3.77,6.39-7.48,7s-7-1-9.23-4.48a13.29,13.29,0,0,1-2.09-5.15c-.23-1.67-.49-3.34-.74-5a154.08,154.08,0,0,1-2-17.66,147.49,147.49,0,0,1,.61-16.07C279.08,891.33,279.2,889.74,279.3,888.17Zm14.55-3.73Z"/><path d="M232.3,519.77a91.45,91.45,0,0,1-21.21-2.68c-16.46-3.91-30.12-10.21-41.75-19.25a92.07,92.07,0,0,1-10.14-9.69c-1-1-1.95-2.07-2.94-3.08-2.42-2.49-2.6-5.79-.5-8.84,2.34-3.38,5.88-2.47,7.58-2,5.8,1.51,11.73,2.93,17.47,4.3l.78.18c-13.05-10.64-21.84-25-26.87-43.77a106.38,106.38,0,0,1-3.51-31.31,6.31,6.31,0,0,1,2.4-5,5.93,5.93,0,0,1,5.21-.8,8.6,8.6,0,0,1,3.66,2.33,46.78,46.78,0,0,0,15.39,10l-.18-3.43c-.23-4.22-.44-8.21-.85-12.24-1.83-17.8-3.57-33.74-5.33-48.72-.31-2.66-.83-5.36-1.34-8s-1-5.17-1.32-7.8c-.23-1.86.23-5.1,2-6.44a7.6,7.6,0,0,1,7.11-.7q4.42,2.42,8.87,4.79c17.69,9.5,36,19.32,52.09,32.18,16.85,13.46,27,27,32.11,42.66a135.1,135.1,0,0,1,3.42,13.81c.31,1.5.63,3,1,4.55A39,39,0,0,0,289.26,408c5.94-8.66,9.51-18.88,10.89-31.25.06-.58.14-1.16.23-1.73.12-.84.23-1.62.29-2.41a6,6,0,0,1,5.08-5.78c3.37-.72,6.13.51,7.56,3.37,7.62,15.32,12.25,28.24,14.58,40.67,3,16.11,2,30-3.16,42.52-7.17,17.43-19.27,28.71-36,33.52a32.23,32.23,0,0,1-6.24,1.06,42.44,42.44,0,0,1-4.36.06h-.75l-.36,1.3c-.48,1.74-.94,3.39-1.55,5-4.77,12.73-14.41,20.77-28.66,23.87A67.94,67.94,0,0,1,232.3,519.77Zm-71.86-43a2.37,2.37,0,0,0-2.18,1.16c-1.29,1.86-1.23,3.55.17,5q1.5,1.55,3,3.12a91.27,91.27,0,0,0,9.8,9.38c11.29,8.76,24.56,14.88,40.59,18.69,12.75,3,24,3.41,34.42,1.14,13.36-2.91,22-10.1,26.45-22,.58-1.52,1-3.11,1.48-4.78.22-.81.45-1.62.69-2.45l.32-1.08h1.14l1.94,0a38.67,38.67,0,0,0,4-.06,29.44,29.44,0,0,0,5.65-.94c16-4.61,27.1-15,34-31.76,4.92-11.95,5.9-25.3,3-40.81-2.27-12.14-6.82-24.81-14.32-39.88-.51-1-1.51-2.33-4.21-1.75a3,3,0,0,0-2.69,3c-.06.91-.19,1.79-.31,2.65-.08.54-.16,1.08-.22,1.62-1.44,12.88-5.17,23.55-11.4,32.63A41.2,41.2,0,0,1,275,424.37l-1.68.77-.42-1.8c-.51-2.17-1-4.36-1.41-6.47a131.36,131.36,0,0,0-3.33-13.51c-4.87-15.06-14.76-28.15-31.12-41.22-15.89-12.69-34.06-22.45-51.63-31.88l-8.89-4.79a4.77,4.77,0,0,0-3.81.43c-.51.39-1,2.24-.82,3.66.31,2.54.81,5.11,1.29,7.6.52,2.67,1,5.44,1.37,8.2,1.77,15,3.51,31,5.33,48.77.42,4.1.64,8.13.87,12.39.1,1.92.2,3.85.33,5.81l.15,2.38-2.22-.87c-8.06-3.17-14-6.86-18.66-11.6a5.61,5.61,0,0,0-2.3-1.53,2.94,2.94,0,0,0-2.61.31,3.4,3.4,0,0,0-1.17,2.69,103.45,103.45,0,0,0,3.41,30.42c4.9,18.33,13.47,32.23,26.2,42.48.81.66,1.64,1.3,2.63,2.07l1.75,1.36,4.44,3.46-5.58-.76-1.65-.21a18.59,18.59,0,0,1-2.3-.36l-3-.72c-5.74-1.38-11.69-2.8-17.52-4.31A8.61,8.61,0,0,0,160.44,476.8Zm48.38,20.69a76.55,76.55,0,0,1-7.74-.39,19.2,19.2,0,0,1-5.9-1.46l-7.28-3.14,7.92.24c12.92.38,24.22-1,34.55-4.1s20.77-6.31,28.35-13.69c-2.78-.92-5.57-1.83-8.35-2.73-8.57-2.8-17.43-5.69-26-8.89a22.4,22.4,0,0,0-14-.62l-1.12.28c-6.63,1.68-13.5,3.41-20.73,2a13.88,13.88,0,0,1-1.95-.59l-.75-.26-1.21-.4.46-3.26,22.5-2.77c-13.54-4.63-27.45-9.52-35.61-23.46l-5.86-10,8.24,8.16a67.18,67.18,0,0,0,18.35,13.08l-5.82-12.38,3.61-2.07.78,1.21c.56.88,1.19,1.77,1.8,2.63a31,31,0,0,1,3.83,6.43c2.31,5.86,6,9.06,12.27,10.72,6.08,1.59,11.88,3.66,18,5.85,1.54.55,3.1,1.11,4.68,1.66-4.66-9.69-11.86-17.38-18.36-23.9l-4.4-4.42,5.94,1.91.46.12a5.61,5.61,0,0,1,1.49.56c8.32,4.84,14.36,12.35,18,22.3,1.61,4.44,3.87,6.5,8,7.36,4.5.92,9,2,13.4,3.05l6.54,1.56c-.15-.34-.31-.66-.47-1-1-2.11-1.95-4.1-2.93-6.09L257,455.85c-4-8.18-8.22-16.64-12.46-24.89a6,6,0,0,0-2.85-2.42c-9.32-3.88-19.29-5.26-27.81-6.11a44.28,44.28,0,0,1-11-2.75l.8-2.92a133.83,133.83,0,0,0,14.81,1.62c6.72.49,13.63,1,20.46,2.82-.6-.84-1.19-1.69-1.79-2.54-4.1-5.85-8.34-11.9-12.76-17.64-.48-.62-2.16-.94-3.52-1.2-.66-.13-1.34-.26-2-.43q-6-1.61-12-3.18c-4.36-1.15-8.71-2.29-13.06-3.47a6.53,6.53,0,0,1-3.48-2.45l-2.56-3.4,31,7.59c-1.56-1.61-3.17-3.26-4.78-4.86-1.3-1.29-2.62-2.58-3.93-3.86-6-5.81-12.13-11.82-17-18.92a43,43,0,0,1-4.91-10.63l2.8-1.16c3.11,6.23,7.61,11.81,14.38,17.76L204,361.25l2.44-.62,1.4-.33.4,1.39c.2.7.41,1.39.62,2.09.5,1.66,1,3.39,1.4,5.14a12.07,12.07,0,0,1,.2,4.84c-.69,3.47.85,5.68,3.57,8.12A137.54,137.54,0,0,1,235.45,406c1.7-10.74,2.11-20.51-3.78-29.8l-5.38-8.48,7.64,6.52c.15.13.31.25.47.37a8.73,8.73,0,0,1,1.3,1.18c4.91,5.89,6.88,13.23,6,22.46a58.53,58.53,0,0,1-1.83,10.06,6.44,6.44,0,0,0,1,5.73c4.86,8,9.61,16.24,14.2,24.2,1.27,2.2,2.54,4.41,3.81,6.6V431.66l3.21-1,.46,1.4c.09.29.22.6.36.93a7.43,7.43,0,0,1,.74,2.82c0,2.43-.05,4.88-.11,7.26-.06,2.15-.11,4.38-.11,6.57a14.26,14.26,0,0,0,.55,4.88c1.34,3.51,2.85,7,4.44,10.71l1.26,2.93,4.13-3.23c6.39-5,13-10.12,19.39-15.3a3.5,3.5,0,0,0,.78-2.43c-.63-4.2-1.43-8.47-2.2-12.59-.33-1.74-.65-3.47-1-5.21-.15-.83-.26-1.65-.37-2.53-.06-.42-.11-.87-.18-1.34l-.62-4.41,3.18,3.12c2.88,2.82,5.31,12.16,5.84,19.46A28.74,28.74,0,0,0,305,427.62c.06-.88.12-1.76.17-2.64.15-2.22.3-4.52.56-6.79a5.1,5.1,0,0,1,1.1-2.34c.16-.22.31-.42.42-.61l1.12-1.92,1.37,1.75c.14.17.3.34.46.51a5.26,5.26,0,0,1,1.33,2c2.23,7.23,1.15,14.62-3.4,23.25-3.47,6.58-8.4,12.38-15.78,18.49l10.48-2,1.59,3.29-1.16.74c-.33.2-.66.44-1,.69a8.39,8.39,0,0,1-3,1.6c-2.81.62-5.67,1.06-8.45,1.49l-3,.46a21.15,21.15,0,0,0-8.63,3.26c-2.48,1.64-5.13,3.05-7.69,4.41-1.12.59-2.24,1.18-3.34,1.8l-.32.15h0c-5.49,8.31-14.18,11.59-22.59,14.77l-.16.05C231.71,495.07,220,497.49,208.82,497.49Zm33.57-31.08c3,1,6,2,8.92,2.92q5.31,1.74,10.64,3.5l2.18.73-1.53,1.72a43.31,43.31,0,0,1-15.05,10.56c7.07-2.77,13.54-5.9,17.79-12.46a2.5,2.5,0,0,1,1.14-.9l.14-.07,1.24-.67-.23-.53-.21-.51-2,.25a6.65,6.65,0,0,0-.78.13,4.31,4.31,0,0,1-1.76.07c-2.42-.56-4.83-1.14-7.25-1.72C251.31,468.39,246.82,467.31,242.39,466.41Zm9.67-27.25c2.58,5.15,5.13,10.3,7.62,15.34l2.53,5.12c1,2,1.94,4,3,6.13l1.32,2.75c-.3-.68-.59-1.35-.87-2-1.61-3.73-3.13-7.26-4.49-10.83a8.42,8.42,0,0,1-.36-1.18L259,451.36l-.75-1.36-1-1.76q-2.46-4.23-4.9-8.47Zm43.59,12.31a4.38,4.38,0,0,1-.57.57c-6.42,5.19-13,10.35-19.43,15.34-.17.12-.33.25-.49.38.78-.46,1.54-.94,2.29-1.43a21.83,21.83,0,0,1,3.85-2.05l5.38-4.36.85-.68c8.67-6.72,14.18-12.85,17.88-19.86,4.14-7.85,5.16-14.24,3.27-20.64-.24,2.13-.38,4.32-.52,6.44-.06.88-.11,1.77-.18,2.66-.57,7.91-3.74,14.75-9.7,20.9Zm-75.23,7.67a26.37,26.37,0,0,1,5,1.35c4.29,1.6,8.67,3.13,13,4.6a10.58,10.58,0,0,1-1.3-.77l.1.25-3.13-1.06c-2.72-.92-5.41-1.88-8-2.81-5.21-1.86-10.17-3.63-15.23-5.08l3.82,1.33,6,2.15Zm-27,3.32a42.5,42.5,0,0,0,10.38-1.28Zm5.29-11.17c1.4.55,2.82,1.08,4.25,1.6a17.83,17.83,0,0,1-5.71-4.71Zm42-26.36q1,.39,2,.81a9.64,9.64,0,0,1,2.24,1.34l-.45-.78-2.43-.88Zm-17.05-27.57a7.44,7.44,0,0,1,2,.85l-1.41-1.64Zm-18.44-20.57q1.56,1.62,3.17,3.21c-.18-.32-.34-.66-.49-1l-1.68-1.38Z"/><path d="M182,703.76l-1.12-1.24a97.18,97.18,0,0,1-25-69.15,99.95,99.95,0,0,1,104.65-96c26.63,1.39,51.5,13.22,68.22,32.46l.89,1L328.9,572c-26.38,40.66-27.63,82.39-3.73,124l4,6.91-6.57-4.5c-47-32.17-93.83-30.71-139.24,4.34Zm73.3-162.94a95.17,95.17,0,0,0-65.35,26c-37.59,35.09-40.8,93.94-7.49,132,22.94-17.38,46.42-26.55,69.81-27.28,21.85-.67,44.1,6,66.27,19.86C297.77,651,300,610.6,325.1,571.15,309,553.25,285.52,542.27,260.34,541,258.65,540.87,257,540.82,255.29,540.82Zm-83.07,91.3a7.74,7.74,0,0,1-2.05-.27,9,9,0,0,1-6.68-10.45,164.81,164.81,0,0,1,6-22.6c5.65-15.87,15.25-28.52,28.55-37.59a44.46,44.46,0,0,1,6.21-3.35c.92-.43,1.87-.88,2.77-1.34l1.56-.8,2.06,3.67-1.1,1c-11.89,10.52-18.43,24.84-23.63,37.45-2.34,5.69-2.71,12-2.87,17.42a32.74,32.74,0,0,1-2.36,11.11A9.23,9.23,0,0,1,172.22,632.12Zm29.22-68.73c-.45.26-.89.53-1.31.82C187.48,572.85,178.34,584.89,173,600a161,161,0,0,0-5.9,22.11,5.37,5.37,0,0,0,4.06,6.21,5.49,5.49,0,0,0,6.23-3.37,29,29,0,0,0,2.09-9.83c.17-5.77.57-12.45,3.15-18.71C187.06,585.59,192.5,573.5,201.44,563.39Z"/><path d="M334.79,565.59l-1.66-1.08-3.19-2c-3.38-2.17-6.87-4.42-10.24-6.73-1.21-.83-1.57-2.86-1.36-4,1.46-8,3-16.56,4.78-25l.59-2.88c1.4-6.83,2.85-13.9,4.67-20.77l1-3.64c4-15.19,8.19-30.9,12.88-46.18,6.27-20.4,13.37-37.67,21.73-52.78.29-.53.6-1.06.95-1.65l1.17-2,32.65,10.25-.89,1.62c-1.06,1.92-2.12,3.81-3.18,5.69-2.39,4.23-4.64,8.23-6.73,12.4-4.93,9.85-9.64,19.94-13.66,28.63a3.64,3.64,0,0,0,.23,2.38c4.78,10.95,13.4,18,26.37,21.51,13.36,3.63,25.68,1.4,37.59-6.81a49.68,49.68,0,0,1-20.84-26.58c-5.39-16-2.77-29.59,7.79-40.28,8.73-8.85,20.63-10.64,31.83-4.79,17.95,9.39,25.69,29.87,18.81,49.8a97.87,97.87,0,0,1-4.22,9.85c-.37.77-.74,1.56-1.12,2.37,18.54-2.61,34.08-11.66,48.61-28.29-1-.64-1.92-1.26-2.86-1.87-3.14-2-6.11-4-9-6.21-15.93-12.59-24.6-29.13-25.74-49.14-.64-11.05,2.75-19.73,10.05-25.79,9.72-8.05,20.76-10.63,31.94-7.45,8.52,2.43,15.23,8.62,20,18.42,10.19,21.18,11.16,42.07,2.86,62.09,1.3.28,2.59.58,3.85.87,4,.91,7.7,1.78,11.54,2.33,19.35,2.82,37.86,1.06,55-5.22,14.1-5.15,26.07-13.9,35.93-21.77.81-.64,1.6-1.31,2.38-2s1.67-1.4,2.53-2.08c4.67-3.72,8-2,9.58-.68,3,2.58,3.44,5.68,1.32,9.76C664,415,657,422.56,647.54,428.94c-14,9.38-30.34,15.21-50.07,17.83A139.73,139.73,0,0,1,537.86,442c-.8-.24-1-.25-1.78.82-13.83,18.06-30.16,29.54-49.93,35.07a70.13,70.13,0,0,1-27.6,1.9,4.69,4.69,0,0,0-3.05,1c-10.68,9.1-20.58,14.09-31.16,15.72-16.7,2.57-32.36-1.37-46.55-11.73a78.38,78.38,0,0,1-9.1-8.21c-.81-.81-1.64-1.65-2.49-2.48-1.43,3.82-2.89,7.69-4.31,11.45-3.91,10.36-7.95,21.06-11.63,31.75s-7.06,21.55-10.36,32.13c-1.46,4.7-3,9.56-4.5,14.36Zm-13.29-12.3c3.31,2.27,6.75,4.48,10.08,6.62l1.53,1c1.32-4.17,2.62-8.37,3.89-12.45,3.31-10.6,6.72-21.57,10.39-32.22s7.75-21.45,11.66-31.83c1.69-4.47,3.44-9.09,5.11-13.6l.8-2.14,1.66,1.57c1.46,1.37,2.86,2.77,4.22,4.13a76.75,76.75,0,0,0,8.73,7.9c13.52,9.87,28.43,13.63,44.31,11.19,10-1.54,19.42-6.32,29.65-15a7.75,7.75,0,0,1,5.37-1.68,67.06,67.06,0,0,0,26.43-1.8c19.11-5.35,34.93-16.47,48.34-34,1-1.34,2.35-2.7,5.08-1.87a136.6,136.6,0,0,0,58.32,4.71c19.26-2.55,35.21-8.23,48.78-17.34,9.06-6.08,15.66-13.27,20.19-22,1.66-3.2,1-4.69-.6-6.06-1-.84-2.66-1.69-5.72.75-.83.66-1.66,1.36-2.47,2s-1.61,1.36-2.44,2c-10,8-22.27,16.95-36.78,22.25-17.65,6.45-36.67,8.26-56.51,5.38-4-.58-7.95-1.5-11.79-2.38-1.77-.41-3.61-.84-5.42-1.22l-1.63-.35.49-1.59c.11-.33.19-.6.25-.82a9.31,9.31,0,0,1,.33-1c8.08-19.47,7.16-39-2.79-59.64-4.32-9-10.39-14.65-18-16.82-10.32-2.94-20.14-.63-29.17,6.87-6.53,5.41-9.54,13.24-9,23.27,1.1,19.12,9.38,34.91,24.6,46.95,2.73,2.15,5.64,4,8.72,6,1.41.92,2.87,1.87,4.33,2.85l1.4.95-1.1,1.29c-15.85,18.63-33.63,28.76-54.37,31l-2.61.28,1.07-2.41c.75-1.69,1.51-3.31,2.25-4.88a95.14,95.14,0,0,0,4.1-9.54c6.38-18.48-.76-37.44-17.35-46.12-9.95-5.2-20.51-3.62-28.26,4.23-9.83,9.95-12.15,22.12-7.08,37.19A47,47,0,0,0,442,471.08l2,1.16-1.84,1.36c-13.09,9.74-27.23,12.64-42,8.62-13.71-3.72-23.25-11.53-28.35-23.21a6.36,6.36,0,0,1-.2-4.87c4-8.71,8.75-18.83,13.7-28.72,2.12-4.24,4.5-8.45,6.79-12.53.76-1.34,1.52-2.68,2.27-4l-26.8-8.41c-.31.54-.6,1-.87,1.51-8.25,14.93-15.28,32-21.48,52.21-4.67,15.22-8.83,30.91-12.85,46.07l-1,3.63c-1.8,6.79-3.24,13.82-4.63,20.61l-.59,2.89c-1.73,8.38-3.31,16.92-4.76,24.9A2.18,2.18,0,0,0,321.5,553.29Zm0,.05Zm131.7-90.26-1.16-.65c-12.17-6.84-19.27-15.47-21.7-26.38-1.9-8.51.8-16,7.61-21.15,4.88-3.67,10.18-3.58,14.92.26,8.55,6.92,11.93,16.21,10.06,27.6-1.07,6.5-3.91,12.61-8.93,19.26Zm-7.91-47.87a9.27,9.27,0,0,0-5.52,2.11c-5.88,4.43-8.12,10.68-6.47,18.07,2.19,9.81,8.26,17.38,19.07,23.73,4.22-5.82,6.64-11.21,7.56-16.85,1.69-10.24-1.33-18.57-9-24.76A9,9,0,0,0,445.32,415.21Zm85.46,6.65-1.4-.68c-16.61-8.13-26.77-19.88-31.05-35.93a33.08,33.08,0,0,1-.77-12.85c.85-6.09,4.9-10.47,11.4-12.32s12.33-.39,16.82,4.25,7.31,10.46,9.25,19a56.28,56.28,0,0,1-3.6,37.13Zm-16.5-59.53a16.6,16.6,0,0,0-4.49.66c-3.73,1.07-8.36,3.64-9.23,9.83a30,30,0,0,0,.7,11.64c3.92,14.7,13.1,25.6,28,33.29A53.4,53.4,0,0,0,532.08,384c-1.81-7.94-4.43-13.35-8.48-17.54A12.58,12.58,0,0,0,514.28,362.33Z"/><path d="M283.82,1099.38a80.64,80.64,0,0,1-45.69-14.12A84.16,84.16,0,0,1,211,977.07a78.65,78.65,0,0,1,38.52-35.93,97.08,97.08,0,0,1,10-3.55l2.76-.88a19.85,19.85,0,0,1,3.25-.7l1-.17,1.49-.29.55,1.41c.95,2.43,1.85,4.88,2.72,7.25,1.93,5.24,3.75,10.19,6,15a109.72,109.72,0,0,0,53,52.75c3.44,1.64,5,3.87,5.33,7.46a90.41,90.41,0,0,0,13.7,40.9,4.61,4.61,0,0,1-.24,5.81c-12.55,16.84-28.64,27.41-47.82,31.44A85.27,85.27,0,0,1,283.82,1099.38ZM265.64,939.66a15.63,15.63,0,0,0-2.33.51l-2.78.89a94.27,94.27,0,0,0-9.6,3.41c-32.3,14.12-50.64,49.1-44.61,85a80.35,80.35,0,0,0,33.86,52.75A77.64,77.64,0,0,0,300.46,1094c18.29-3.83,33.65-13.94,45.66-30,.55-.74.55-.92.06-1.71a94.11,94.11,0,0,1-14.24-42.54c-.18-2.29-1-3.37-3.26-4.46A113.27,113.27,0,0,1,274,960.77c-2.38-4.95-4.31-10.21-6.18-15.3C267.1,943.56,266.38,941.61,265.64,939.66Zm-41.58,101.22c-3.7,0-6.89-2.69-8-6.9-2-7.6-2.79-15.76-2.51-25.7A61.47,61.47,0,0,1,224.22,975a20.73,20.73,0,0,1,2.74-3.06c.4-.38.8-.77,1.18-1.17l5.15-5.43-2.08,7.19c-4.53,15.65-7.88,32.51-1.85,49.67a40.71,40.71,0,0,1,2.42,9.36c.45,4.59-2.31,8.56-6.44,9.23A8,8,0,0,1,224.06,1040.88Zm1.45-61.16a57.79,57.79,0,0,0-8.31,28.66c-.27,9.58.49,17.42,2.39,24.67.75,2.9,2.78,4.52,5.16,4.13,1.92-.31,3.71-2.23,3.41-5.28a38.22,38.22,0,0,0-2.23-8.52C220.62,1008.28,222.14,993.59,225.51,979.72Z"/><path d="M539.84,814.65a74.56,74.56,0,0,1-14-1.3l-1.89-.36.47-1.87c9.46-37.5,2.15-70.76-22.35-101.7l-.91-1.15.93-1.13c15.39-18.64,23.9-40.57,25.3-65.2l.08-1.42,1.4-.26c12.63-2.33,27-.84,40.55,4.2a84.88,84.88,0,0,1,38.13,28.39,89,89,0,0,1,2.65,104.33A85.11,85.11,0,0,1,539.84,814.65Zm-11.45-4.54c25,4,58.44-5.11,78.78-35A85.85,85.85,0,0,0,604.63,675c-20.09-26.61-52-34.88-73.72-31.44a113.36,113.36,0,0,1-25.1,64.72c11.89,15.32,19.81,31.6,23.56,48.43S532.8,791.57,528.39,810.11Z"/><path d="M199.36,987.29l-1.35-.11c-16.7-1.35-34.23-8.45-49.35-20a106.37,106.37,0,0,1-36.4-118.37c6.85-20.15,19.65-37.64,36-49.23l2.26-1.59.57,2.7c5.88,27.65,19.58,49.67,40.73,65.46,21.31,15.91,46.28,22.85,74.2,20.62l2.36-.18-.42,2.32a115.42,115.42,0,0,0-.74,38.16l.25,1.67-1.65.38C233.59,936.42,212,955,199.85,986ZM148.18,804.21c-27.45,20.85-48.68,64.15-31.95,112.51,13.86,40,50.83,63.69,80.74,66.72,6.17-15.25,14.86-27.79,25.85-37.31S247.5,929.8,263.42,926a118.89,118.89,0,0,1,.6-35.38q-4,.25-8,.25c-24.67,0-46.94-7.3-66.31-21.76C168.51,853.29,154.56,831.47,148.18,804.21Zm-23,109.4a9.3,9.3,0,0,1-7.63-4.11,11.55,11.55,0,0,1-2.16-4.49c-3.17-16.34-5.48-35.65,1.44-55a108.07,108.07,0,0,1,7.69-15.78l1.4-2.52a16.09,16.09,0,0,1,3.54-4c.55-.5,1.06-1,1.53-1.45l1.25-1.28,3,2.84-.65,1.23c-3.73,7.11-5.7,15.23-6.35,26.32a146.29,146.29,0,0,0,0,22.93,45.94,45.94,0,0,0,3,10.94c.5,1.36,1,2.77,1.47,4.17,1.33,4,2.7,8.16,1.44,12.81-1.33,5-4.48,6.61-6.89,7.12A10.23,10.23,0,0,1,125.2,913.61Zm2.79-78-.27.48a106.19,106.19,0,0,0-7.44,15.24c-6.63,18.47-4.38,37.17-1.29,53a7.84,7.84,0,0,0,1.51,3,5.63,5.63,0,0,0,6.1,2.47c1.34-.28,3.22-1.06,4.15-4.5,1-3.61-.17-7.07-1.38-10.73-.44-1.35-1-2.73-1.44-4.06-1.39-3.81-2.83-7.74-3.24-11.83a150,150,0,0,1,0-23.5A78.25,78.25,0,0,1,128,835.57Z"/><path d="M432.34,1100a94.49,94.49,0,0,1-10.52-.6c-34.67-3.83-59.45-22.58-73.66-55.73A77.56,77.56,0,0,1,342,1019.8l-.25-2.68,2.58.77a113.75,113.75,0,0,0,32.64,4.92,105.17,105.17,0,0,0,51.85-13.76c25.58-14.43,45.09-39.44,52.19-66.9l.8-3.11,2.25,2.29c1.29,1.3,2.6,2.57,3.86,3.79a90.66,90.66,0,0,1,7.81,8.17c20.83,25.68,26.65,54.61,17.31,86a82.75,82.75,0,0,1-18.71,32.35C477.07,1090.46,456.25,1100,432.34,1100Zm-86.41-77.84a74.85,74.85,0,0,0,5.57,20.08c13.66,31.85,37.45,49.87,70.72,53.55,27.15,3,50.51-6,69.43-26.6a79.06,79.06,0,0,0,17.91-30.93c9-30.15,3.38-58-16.65-82.65a89.84,89.84,0,0,0-7.5-7.84l-1.7-1.65c-8,27.2-27.61,51.75-53.09,66.13A108.89,108.89,0,0,1,390,1025.61,113.94,113.94,0,0,1,345.93,1022.13Z"/><path d="M123.16,812.54a7.19,7.19,0,0,1-2.32-.47l-.6-.19C97.3,805.61,79.64,792,67.72,771.54a89.32,89.32,0,0,1-11-57.8,88.36,88.36,0,0,1,27.49-52c17.57-16.14,38.63-23.69,62.57-22.44a4.48,4.48,0,0,1,1,.2l.33.09,1.3.32.08,1.33c1.78,26.3,10.84,48.53,26.93,66.07l1,1.07-.82,1.2c-1.35,2-2.74,3.88-4.08,5.76-3,4.14-5.77,8.06-8.27,12.23a104.18,104.18,0,0,0-14.64,58.91,6.46,6.46,0,0,1-3.11,6.24,93.24,93.24,0,0,0-19.75,17.92A4.43,4.43,0,0,1,123.16,812.54Zm-53.09-127a85.71,85.71,0,0,0,.8,84.17c11.42,19.65,28.35,32.65,50.33,38.66.26.07.52.16.79.25,1.26.42,1.38.4,1.89-.22a97,97,0,0,1,20.5-18.62,2.92,2.92,0,0,0,1.55-3.1,107.68,107.68,0,0,1,15.16-60.92c2.57-4.31,5.55-8.47,8.43-12.49,1.06-1.48,2.15-3,3.22-4.53C157,691.07,148,669,146,643c-18.87-.87-35.87,4-50.67,14.5a27.09,27.09,0,0,1,3.11-1.32c.72-.27,1.4-.53,2-.82l1.49-.67,2,3.45-1.16,1c-8.74,7.54-13.7,17.22-19.29,29.1a43.4,43.4,0,0,0-4,18.58,27.94,27.94,0,0,1-1.86,9.42,8.44,8.44,0,0,1-10.29,5.37c-4-1.26-6.52-5.83-5.64-10.19A103.3,103.3,0,0,1,70.07,685.54Zm24.17-22.87A91.86,91.86,0,0,0,82.7,673.1c-8.5,9.63-14,22-17.43,39a5.34,5.34,0,0,0,3.17,6,4.8,4.8,0,0,0,5.78-3.18,24.13,24.13,0,0,0,1.63-8.17,47.06,47.06,0,0,1,4.37-20.1C83.73,679.17,87.9,670.3,94.24,662.67Z"/><path d="M511.71,959.73a6.15,6.15,0,0,1-4.59-2.31,103.83,103.83,0,0,0-21.64-22.83,5.49,5.49,0,0,1-1.83-4.62c1.59-12.25,1.65-22.36.17-31.8-.83-5.31-2.09-10.5-3.41-16-.59-2.45-1.2-5-1.78-7.53l-.27-1.22,1-.69a110.36,110.36,0,0,0,41.67-52l.55-1.39,1.46.27a91.09,91.09,0,0,0,51.68-5.5l1.24-.5.85,1a86.7,86.7,0,0,1,18.76,38.9c5.71,29.13-.88,54.94-19.59,76.74A81.84,81.84,0,0,1,522.83,959a99.61,99.61,0,0,1-11.06.78Zm-29.25-84.68c.48,2.12,1,4.22,1.48,6.26,1.35,5.58,2.62,10.84,3.47,16.3,1.54,9.79,1.49,20.22-.15,32.83a2.1,2.1,0,0,0,.44,1.27,107.3,107.3,0,0,1,22.39,23.61,2.61,2.61,0,0,0,1.62.77,97.42,97.42,0,0,0,10.66-.75,78.31,78.31,0,0,0,50.88-27.47c18-20.91,24.26-45.69,18.78-73.67A82.79,82.79,0,0,0,574.87,818a95.75,95.75,0,0,1-51,5.46A113.82,113.82,0,0,1,482.46,875.05Z"/></svg>

