<svg xmlns="http://www.w3.org/2000/svg" viewBox="0 0 2000 2000" width="500" height="500"><path d="M283.76,1660.2c-13.94,1.88-17.47,3.75-25,22.47-5.62,13.73-34.32,83.41-44.52,109.21h-6.86c-12.27-33.49-30.17-82.17-42-113-5.83-15.4-9.36-17.48-22.05-18.73v-5.82h52.84v5.82c-15.4,1.67-16.23,4.16-13.32,11.86,5.2,15.19,20.39,56.58,33.49,91.11,11-26.83,24.76-60.74,34.53-87,4.58-12.06,2.08-13.94-15-16v-5.82h47.84Z"/><path d="M399.83,1756.52c-1.25,5.4-6.87,26.83-8.95,33.07H289.79v-5.82c19.34-1.46,20.8-3.33,20.8-20.39v-82.17c0-18.51-2.29-19.55-17.89-21v-5.82h63.65c19.56,0,27.67-.21,30.17-.42.2,5.2,1,20.8,1.87,31.83l-6.24,1a70.13,70.13,0,0,0-6.24-15.81c-3.33-6.86-8.12-8.32-20.6-8.32H335.55c-6.45,0-6.87.62-6.87,6.66v46h23.1c15.6,0,16.64-3.12,19.13-17.27h6.45v42.85h-6.45c-2.7-15-4.37-17.05-19.34-17.05H328.68v41.39c0,14.56,4.58,15.81,15,16H363c12.69,0,14.77-1.87,19.34-7.28,4-4.37,8.32-12.9,11.24-19.14Z"/><path d="M550.22,1732.8c-12.9,1.67-13.73,2.91-13.73,15.19v17.47c0,7.28.21,14.15,1.25,19.76-12.9,2.91-29.75,7.49-47.22,7.49-47.22,0-75.93-29.33-75.93-71.14,0-43.89,35.78-70.1,77.39-70.1,21.21,0,36.81,4.16,43.26,5.2.42,7.69,1.46,20.38,3.12,33.49l-6.24,1.25c-5-17.68-11-25.17-24.13-29.54-4.78-1.67-13.31-2.71-19.34-2.71-31.83,0-52.42,21.85-52.42,59.91,0,33.08,17.06,65.94,57.41,65.94,7.07,0,13.52-1.45,17.68-3.53,4.37-2.5,7.08-4.79,7.08-13.32v-17.05c0-15.19-1.67-16.85-21.64-18.31v-6h53.46Z"/><path d="M674.4,1756.52c-1.25,5.4-6.86,26.83-8.94,33.07H564.36v-5.82c19.35-1.46,20.8-3.33,20.8-20.39v-82.17c0-18.51-2.28-19.55-17.89-21v-5.82h63.66c19.55,0,27.66-.21,30.16-.42.21,5.2,1,20.8,1.87,31.83l-6.24,1a69.2,69.2,0,0,0-6.24-15.81c-3.33-6.86-8.11-8.32-20.59-8.32H610.13c-6.45,0-6.87.62-6.87,6.66v46h23.09c15.6,0,16.64-3.12,19.14-17.27h6.45v42.85h-6.45c-2.71-15-4.37-17.05-19.35-17.05H603.26v41.39c0,14.56,4.58,15.81,15,16h19.34c12.69,0,14.77-1.87,19.35-7.28,4-4.37,8.32-12.9,11.23-19.14Z"/><path d="M798.59,1687c-1.88-6.66-4.37-13.52-6.66-17.27-3.33-5.61-5.41-7.07-16.85-7.07h-20.8V1764c0,16.23,1.66,18.52,21.42,19.77v5.82H715.17v-5.82c19.35-1.25,21-3.33,21-19.77V1662.7H717.25c-11.44,0-14.77,1.25-18.3,7.49-2.5,4.16-4.16,9.15-6.87,16.85h-6.24c1.25-12.69,2.5-25.8,3.12-37.45h4.79c3.12,5,5.4,4.79,11.23,4.79h82.37c5.83,0,7.49-.83,10.61-4.79h5c0,9.78.84,24.76,1.88,36.82Z"/><path d="M880.54,1789.59v-5.82c13.53-1.67,15.19-3.75,12.28-11.65-2.71-8.12-6.87-18.52-11.24-31.62H836.65c-3.33,9.36-6.45,17.47-9.36,26-4.57,13.52-1.66,15.19,15.4,17.27v5.82H794.63v-5.82c13.11-1.67,16.44-3.12,23.72-21.85l43.06-109.2,6.65-1.25c13.11,35.57,27.46,74.88,40.57,110.87,6.65,18.1,8.52,19.76,23.29,21.43v5.82Zm-20.8-110.87c-6.65,17.89-13.73,36.82-20,53.25h38.9Z"/><path d="M1011.38,1716.37c20,3.33,36.2,12.9,36.2,33.07,0,14.15-7.9,25.38-20.18,32-10.81,6-21.42,8.11-36,8.11H940.24v-5.82c17.69-1.67,18.72-3.54,18.72-20v-83.42c0-17.26-1.87-18.72-18.72-20.18v-5.82h54.5c15.6,0,25.38,2.7,32,7.28a27.17,27.17,0,0,1,12.27,23.3C1039.05,1704.51,1023,1713.46,1011.38,1716.37Zm-23.92-2.5c22.88,0,32.25-9.15,32.25-26.21,0-14.56-9-25.79-28.92-25.79-5.82,0-9.57.62-11.65,2.08-1.66,1.25-2.29,3.53-2.29,10.19v39.73Zm-10.61,49.51c0,15,3.54,18.72,18.31,18.72,16.22,0,32-8.73,32-30.58,0-21.21-15-30.37-40.35-30.37h-10Z"/><path d="M1169.06,1755.06c-1.25,6.45-7.49,28.08-9.57,34.53h-96.73v-5.82c18.93-1.88,20.6-2.92,20.6-20.6v-82.58c0-17.68-2.08-18.72-18.73-20.39v-5.82h55.75v5.82c-16.64,1.67-18.93,2.5-18.93,20.39v84.66c0,12.69,1.67,15.6,13.52,15.81.21,0,15.19.21,16.44.21,10.61,0,13.73-1.25,18.51-6.45,5.2-5.41,9.57-13.73,12.69-21.42Z"/><path d="M1290.75,1756.52c-1.25,5.4-6.87,26.83-9,33.07H1180.7v-5.82c19.35-1.46,20.81-3.33,20.81-20.39v-82.17c0-18.51-2.29-19.55-17.89-21v-5.82h63.65c19.55,0,27.67-.21,30.16-.42.21,5.2,1,20.8,1.88,31.83l-6.25,1a69.2,69.2,0,0,0-6.24-15.81c-3.32-6.86-8.11-8.32-20.59-8.32h-19.76c-6.45,0-6.87.62-6.87,6.66v46h23.09c15.61,0,16.65-3.12,19.14-17.27h6.45v42.85h-6.45c-2.7-15-4.37-17.05-19.34-17.05H1219.6v41.39c0,14.56,4.58,15.81,15,16h19.35c12.69,0,14.77-1.87,19.34-7.28,4-4.37,8.32-12.9,11.24-19.14Z"/><path d="M1377.49,1686c-3.54-13.73-9.36-27.25-28.92-27.25-16.22,0-21.84,11.85-21.84,22.67,0,14.35,9.15,21.64,26.42,30.58,25,12.9,35.78,22.47,35.78,42.23,0,21.84-18.93,38.48-45.77,38.48-12.48,0-23.29-3.54-31.82-6.86-1.67-5.83-4.16-20-5.62-31.21l6.45-1.66c4.16,13.94,13.31,32,34.95,32,15,0,24.13-10.4,24.13-23.92,0-16-8.53-22.46-26.84-32.45-21.84-11.86-34.11-21.84-34.11-41.19,0-18.51,15.39-36,42.85-36,11.65,0,23.09,3.12,27.46,4,.83,7.49,1.66,15.81,3.32,29.33Z"/><path d="M421.44,1479.7c-3.27,11.19-9.33,28-12.83,35.21-6.76,1.4-24.95,5.59-42.66,5.59-55.73,0-84.17-37.07-84.17-77.87,0-47.56,36.14-80.44,88.36-80.44,20.05,0,36.37,4.2,44.07,5.36.93,10.5,2.56,24.48,4.43,36.14l-7.23,1.63c-4.66-15.62-10.26-25.18-22.15-30.07-6.06-2.8-15.62-4.43-24.48-4.43-38.47,0-58.76,28.44-58.76,66.91,0,45,23.32,73.91,61.09,73.91,23.78,0,35.44-11,47.33-34.27Z"/><path d="M606.09,1372c-19.35,1.87-21.22,3-21.22,22.62v93.49c0,19.59,2.1,20.29,21.22,22.39V1517H543.6v-6.53c19.36-2.33,21.22-2.8,21.22-22.39v-46.63H485.08v46.63c0,19.36,1.87,20.06,21,22.39V1517H443.82v-6.53c18.88-2.1,21-2.8,21-22.39V1394.6c0-19.59-2.1-20.75-21-22.62v-6.52h62.25V1372c-18.65,1.64-21,3.27-21,22.62v37.07h79.74V1394.6c0-19.35-2.56-21-21.22-22.62v-6.52h62.49Z"/><path d="M707,1362.19c39.87,0,75.54,30.54,75.54,76.94,0,50.13-34,81.37-76.94,81.37-44.77,0-77.41-34-77.41-77.87C628.23,1400.89,657.84,1362.19,707,1362.19Zm-4.66,8.63c-26.12,0-49.9,21.91-49.9,65.51,0,43.37,23.78,75.31,56.89,75.31,28.21,0,49.43-21,49.43-66C758.8,1396.7,732.92,1370.82,702.38,1370.82Z"/><path d="M948.11,1479.7c-3.26,11.19-9.32,28-12.82,35.21-6.76,1.4-24.95,5.59-42.67,5.59-55.72,0-84.16-37.07-84.16-77.87,0-47.56,36.13-80.44,88.36-80.44,20,0,36.37,4.2,44.07,5.36.93,10.5,2.56,24.48,4.43,36.14l-7.23,1.63c-4.66-15.62-10.26-25.18-22.15-30.07-6.06-2.8-15.62-4.43-24.48-4.43-38.47,0-58.76,28.44-58.76,66.91,0,45,23.32,73.91,61.09,73.91,23.78,0,35.44-11,47.33-34.27Z"/><path d="M1049.77,1362.19c39.86,0,75.54,30.54,75.54,76.94,0,50.13-34,81.37-76.94,81.37-44.77,0-77.41-34-77.41-77.87C971,1400.89,1000.57,1362.19,1049.77,1362.19Zm-4.67,8.63c-26.11,0-49.89,21.91-49.89,65.51,0,43.37,23.78,75.31,56.89,75.31,28.21,0,49.43-21,49.43-66C1101.53,1396.7,1075.65,1370.82,1045.1,1370.82Z"/><path d="M1265,1478.3c-1.4,7.23-8.39,31.48-10.73,38.71H1145.82v-6.53c21.22-2.1,23.08-3.27,23.08-23.09v-92.56c0-19.82-2.33-21-21-22.85v-6.52h62.48V1372c-18.65,1.87-21.22,2.8-21.22,22.85v94.9c0,14.22,1.87,17.48,15.16,17.72.23,0,17,.23,18.42.23,11.89,0,15.39-1.4,20.75-7.23,5.83-6.06,10.72-15.39,14.22-24Z"/><path d="M1373.37,1517v-6.53c15.16-1.87,17-4.2,13.76-13.06-3-9.09-7.69-20.75-12.59-35.44h-50.36c-3.73,10.49-7.23,19.59-10.49,29.15-5.14,15.15-1.87,17,17.25,19.35V1517h-53.86v-6.53c14.69-1.87,18.42-3.5,26.58-24.48l48.26-122.41,7.46-1.4c14.69,39.87,30.78,83.94,45.47,124.27,7.46,20.29,9.56,22.15,26.11,24V1517Zm-23.31-124.28c-7.46,20.06-15.39,41.27-22.38,59.69h43.59Z"/><path d="M1544.27,1402.06c-2.09-7.46-4.89-15.15-7.46-19.35-3.73-6.3-6.06-7.93-18.88-7.93h-23.32v113.55c0,18.18,1.87,20.75,24,22.15V1517h-67.85v-6.53c21.68-1.4,23.55-3.73,23.55-22.15V1374.78h-21.22c-12.82,0-16.55,1.4-20.52,8.4-2.79,4.66-4.66,10.25-7.69,18.88h-7c1.4-14.22,2.8-28.91,3.5-42h5.36c3.5,5.6,6.07,5.37,12.6,5.37h92.32c6.53,0,8.4-.94,11.89-5.37h5.6c0,11,.93,27.75,2.1,41.27Z"/><path d="M1691.39,1479.93c-1.4,6.07-7.69,30.08-10,37.08H1568.05v-6.53c21.69-1.64,23.32-3.73,23.32-22.85v-92.1c0-20.75-2.57-21.91-20-23.55v-6.52h71.34c21.92,0,31-.24,33.81-.47.23,5.83,1.16,23.31,2.1,35.67l-7,1.17a77.8,77.8,0,0,0-7-17.72c-3.73-7.7-9.1-9.33-23.08-9.33h-22.15c-7.23,0-7.7.7-7.7,7.46v51.53h25.88c17.49,0,18.65-3.5,21.45-19.35h7.23v48H1659c-3-16.79-4.89-19.12-21.68-19.12h-25.65v46.4c0,16.32,5.13,17.72,16.79,18h21.68c14.22,0,16.56-2.1,21.68-8.16,4.44-4.9,9.33-14.46,12.6-21.45Z"/><path d="M796.29,606.06c-2.27,7.77-6.47,19.42-8.9,24.44-4.69,1-17.32,3.88-29.61,3.88-38.68,0-58.42-25.73-58.42-54,0-33,25.08-55.83,61.33-55.83,13.91,0,25.24,2.92,30.58,3.73.65,7.28,1.78,17,3.08,25.08l-5,1.13C786.09,543.6,782.21,537,774,533.57c-4.21-1.94-10.84-3.08-17-3.08-26.7,0-40.78,19.74-40.78,46.45,0,31.23,16.18,51.3,42.39,51.3,16.51,0,24.6-7.61,32.85-23.79Z"/><path d="M907.78,633.25c-2.11,0-3.89-.16-6-.32C890,632.12,883.66,629,876.54,619c-6-8.25-11.81-18.45-17-26.7-3.24-5.18-5.34-6.15-13.59-6.15h-5.67v25.41c0,13.75,1.78,14.56,14.73,15.86V632H811.81v-4.53c13.43-1.46,14.57-2.11,14.57-15.86V547c0-13.76-1.78-14.24-14.57-15.7v-4.53h41.27c11.81,0,19.74,1.46,25.89,5.5,6.63,4.21,11,11.49,11,21.36,0,13.92-8.9,22.66-20.87,27.84,2.91,5,9.87,15.86,14.72,23.14,6,8.58,9.07,12.62,12.79,16.67,4.37,4.69,8.09,6.47,11.81,7.44Zm-59.72-52.59c8.42,0,13.76-1.3,17.8-4.69,6.31-4.7,8.9-11.17,8.9-19.91,0-17.31-11.49-23.63-24-23.63-4.69,0-7.44.65-8.57,1.62-1.46,1.14-2,2.75-2,7v39.65Z"/><path d="M977,632v-4.53c10.51-1.3,11.81-2.92,9.54-9.07-2.1-6.31-5.34-14.4-8.73-24.59h-35c-2.59,7.28-5,13.59-7.28,20.22-3.56,10.52-1.3,11.82,12,13.44V632H910.19v-4.53c10.2-1.3,12.79-2.43,18.45-17l33.5-84.95,5.18-1c10.19,27.68,21.36,58.26,31.55,86.26,5.18,14.08,6.64,15.37,18.13,16.67V632ZM960.84,545.7c-5.18,13.92-10.68,28.65-15.53,41.43h30.26Z"/><path d="M1119.58,606.06a204,204,0,0,1-8.9,24.44c-4.69,1-17.31,3.88-29.61,3.88-38.68,0-58.42-25.73-58.42-54,0-33,25.08-55.83,61.33-55.83,13.92,0,25.24,2.92,30.59,3.73.64,7.28,1.78,17,3.07,25.08l-5,1.13c-3.23-10.84-7.12-17.47-15.37-20.87-4.21-1.94-10.84-3.08-17-3.08-26.7,0-40.78,19.74-40.78,46.45,0,31.23,16.18,51.3,42.4,51.3,16.5,0,24.59-7.61,32.85-23.79Z"/><path d="M1135.11,526.77h43.2v4.53c-12.62,1.13-14.88,2.27-14.88,16.67V575.8c3.23-.32,7-2.91,11.65-7.44,9.06-8.58,19.9-19.58,27.35-28,4.85-5.5,4.36-7.6-2.59-8.57l-4.53-.49v-4.53h39.32v4.53c-12.14,1.46-16.35,2.27-27.19,13.43-4.85,4.7-17.47,17-27.83,27.19,12.3,14.56,30.26,35.28,38.67,44.18,8.26,8.9,10.36,10.19,20.4,11.33V632h-25.9c-12.46-14.08-25.57-29.78-40.29-46.93-3.72-4.53-6.48-4.86-9.06-4.7v30.75c0,14.08,1.45,15.21,14.88,16.35V632h-43.2v-4.53c13.27-1.14,14.56-2.27,14.56-16.35V548c0-14.57-1.13-15.7-14.56-16.67Z"/><path d="M1330.42,606.23c-1,4.2-5.34,20.87-7,25.73h-78.65v-4.53c15-1.14,16.19-2.59,16.19-15.86V547.65c0-14.41-1.78-15.22-13.92-16.35v-4.53h49.52c15.21,0,21.52-.16,23.46-.32.16,4,.81,16.18,1.46,24.76l-4.86.81a53.34,53.34,0,0,0-4.85-12.3c-2.59-5.34-6.31-6.48-16-6.48h-15.38c-5,0-5.34.49-5.34,5.18v35.77h18c12.13,0,12.94-2.43,14.89-13.44h5v33.34h-5c-2.11-11.65-3.4-13.27-15-13.27h-17.81V613c0,11.33,3.56,12.3,11.66,12.46h15c9.87,0,11.48-1.45,15-5.66,3.08-3.4,6.48-10,8.74-14.89Z"/><path d="M1437.7,633.25c-2.1,0-3.88-.16-6-.32-11.81-.81-18.12-3.89-25.24-13.92-6-8.25-11.82-18.45-17-26.7-3.23-5.18-5.34-6.15-13.59-6.15h-5.66v25.41c0,13.75,1.78,14.56,14.72,15.86V632h-43.2v-4.53c13.43-1.46,14.56-2.11,14.56-15.86V547c0-13.76-1.78-14.24-14.56-15.7v-4.53H1383c11.82,0,19.75,1.46,25.9,5.5,6.63,4.21,11,11.49,11,21.36,0,13.92-8.9,22.66-20.88,27.84,2.92,5,9.88,15.86,14.73,23.14,6,8.58,9.06,12.62,12.78,16.67,4.37,4.69,8.09,6.47,11.82,7.44ZM1378,580.66c8.42,0,13.76-1.3,17.81-4.69,6.31-4.7,8.9-11.17,8.9-19.91,0-17.31-11.49-23.63-24-23.63-4.7,0-7.45.65-8.58,1.62-1.46,1.14-1.94,2.75-1.94,7v39.65Z"/><path d="M1502.9,551.37c-2.75-10.68-7.28-21.2-22.49-21.2-12.62,0-17,9.22-17,17.64,0,11.16,7.12,16.83,20.55,23.79,19.42,10,27.83,17.47,27.83,32.85,0,17-14.72,29.93-35.6,29.93-9.71,0-18.12-2.75-24.76-5.34-1.29-4.53-3.24-15.53-4.37-24.27l5-1.29c3.24,10.84,10.36,24.92,27.19,24.92,11.65,0,18.77-8.09,18.77-18.61,0-12.46-6.64-17.48-20.88-25.25-17-9.22-26.54-17-26.54-32,0-14.4,12-28,33.34-28,9.06,0,18,2.43,21.36,3.08.65,5.82,1.3,12.3,2.59,22.82Z"/><path d="M398.36,213.18c38.8,0,73.5,29.72,73.5,74.86,0,48.77-33.12,79.17-74.86,79.17-43.55,0-75.31-33.12-75.31-75.77C321.69,250.84,350.5,213.18,398.36,213.18Zm-4.53,8.4c-25.41,0-48.55,21.32-48.55,63.74,0,42.19,23.14,73.27,55.35,73.27,27.45,0,48.09-20.42,48.09-64.2C448.72,246.76,423.54,221.58,393.83,221.58Z"/><path d="M607.74,326.15c-1.36,7-8.17,30.63-10.44,37.66H491.82v-6.35c20.64-2,22.46-3.18,22.46-22.46V244.94c0-19.28-2.27-20.41-20.42-22.23v-6.35h60.8v6.35c-18.15,1.82-20.65,2.72-20.65,22.23v92.33c0,13.83,1.82,17,14.75,17.24.23,0,16.56.22,17.92.22,11.57,0,15-1.36,20.19-7,5.67-5.9,10.43-15,13.84-23.36Z"/><path d="M622.71,363.81v-6.35c18.6-2,20.41-2.95,20.41-22.23V245.17c0-19.51-1.81-20.42-20.41-22.46v-6.35H683.5v6.35c-18.83,2-20.64,2.95-20.64,22.46v90.06c0,19.5,1.81,20.18,20.64,22.23v6.35Z"/><path d="M846.83,222.71c-15.2,2-19.06,4.08-27.22,24.5-6.13,15-37.43,91-48.55,119.09h-7.49c-13.38-36.52-32.89-89.6-45.82-123.17-6.35-16.79-10.21-19.06-24-20.42v-6.35h57.62v6.35c-16.79,1.82-17.7,4.54-14.52,12.93,5.67,16.56,22.23,61.7,36.52,99.36,12-29.26,27-66.24,37.65-94.82,5-13.16,2.27-15.2-16.33-17.47v-6.35h52.18Z"/><path d="M973.4,327.74c-1.36,5.9-7.48,29.26-9.75,36.07H853.4v-6.35c21.1-1.59,22.69-3.63,22.69-22.23V245.62c0-20.19-2.5-21.32-19.51-22.91v-6.35H926c21.32,0,30.17-.23,32.89-.45.23,5.67,1.14,22.68,2,34.7l-6.81,1.14a75,75,0,0,0-6.81-17.24c-3.62-7.49-8.84-9.08-22.45-9.08H903.31c-7,0-7.49.68-7.49,7.26v50.13H921c17,0,18.15-3.4,20.87-18.82h7v46.73h-7c-3-16.34-4.76-18.6-21.1-18.6H895.82v45.14c0,15.88,5,17.24,16.33,17.46h21.1c13.84,0,16.11-2,21.1-7.94,4.31-4.76,9.07-14.06,12.25-20.86Z"/><path d="M1068,250.84c-3.85-15-10.21-29.72-31.53-29.72-17.69,0-23.82,12.93-23.82,24.73,0,15.65,10,23.59,28.81,33.35,27.22,14.06,39,24.49,39,46,0,23.82-20.64,42-49.91,42-13.61,0-25.4-3.86-34.7-7.49-1.82-6.35-4.54-21.77-6.13-34l7-1.82c4.54,15.2,14.52,34.94,38.11,34.94,16.33,0,26.32-11.34,26.32-26.09,0-17.47-9.3-24.5-29.27-35.39-23.81-12.93-37.2-23.82-37.2-44.91,0-20.19,16.79-39.25,46.73-39.25,12.7,0,25.18,3.41,29.94,4.31.91,8.17,1.82,17.24,3.63,32Z"/><path d="M1341.13,256c-1.9-5.9-3.58-10.95-6.53-15.59-4-7.17-7.17-8.85-19-8.85h-22.55c-6.11,0-6.75.63-6.75,6.74V287h26.14c15.17,0,16.23-2.53,19.39-17.29h6.32v44.05h-6.53c-2.74-14.75-4.22-18.12-19.18-18.12h-26.14v37.72c0,18.34,2.11,19.18,21.29,20.87v5.9H1249v-5.9c17.07-1.27,19-2.74,19-20.87V249.86c0-18.33-2.11-19.18-19-20.86v-5.9h66.81c19,0,26.13-.21,29.72-.43.21,7.59,1,22.35,2.1,32.46Z"/><path d="M1490.55,361.78c-2.74,0-5-.21-7.79-.42-15.39-1.06-23.61-5.06-32.88-18.13-7.8-10.75-15.39-24-22.13-34.78-4.22-6.74-7-8-17.71-8h-7.37v33.08c0,17.92,2.31,19,19.18,20.66v5.9h-56.28v-5.9c17.5-1.9,19-2.74,19-20.66V249.44c0-17.91-2.32-18.55-19-20.44v-5.9h53.75c15.38,0,25.71,1.89,33.72,7.16,8.64,5.48,14.33,15,14.33,27.82,0,18.13-11.59,29.51-27.19,36.25,3.8,6.54,12.86,20.66,19.18,30.14,7.8,11.17,11.8,16.44,16.65,21.71,5.69,6.11,10.54,8.43,15.39,9.7Zm-77.77-68.5c11,0,17.92-1.69,23.19-6.11,8.22-6.11,11.59-14.55,11.59-25.93,0-22.55-15-30.77-31.19-30.77-6.12,0-9.7.85-11.18,2.11-1.89,1.48-2.52,3.58-2.52,9.06v51.64Z"/><path d="M1634.71,229c-13.28.84-18.13,4.21-18.55,13.91-.21,4.84-.63,13.7-.63,33.09v22.76c0,21.5-2.53,37.94-14.76,50.79-9.9,10.33-24.23,13.49-38.78,13.49-12.22,0-25.29-2.53-34.56-9.69-12.65-9.7-18.76-24.24-18.76-48.9V250.71c0-19-1.68-20.24-18.55-21.71v-5.9h55.44V229c-16.87,1.05-18.55,2.74-18.55,21.71V303.4c0,30.77,14.54,47.63,39.83,47.63,29.93,0,39.41-18.55,39.41-53.54V276c0-19.39-.63-27.4-1-33.09-.63-9.49-5.48-13.07-21.08-13.91v-5.9h50.59Z"/><path d="M1646.5,360.09v-5.9c17.28-1.9,19-2.74,19-20.66V249.86c0-18.12-1.69-19-19-20.86v-5.9H1703V229c-17.5,1.89-19.18,2.74-19.18,20.86v83.67c0,18.13,1.68,18.76,19.18,20.66v5.9Z"/><path d="M1834.28,256.19c-1.89-6.75-4.42-13.7-6.74-17.5-3.37-5.69-5.48-7.16-17.07-7.16h-21.08V334.17c0,16.44,1.69,18.75,21.71,20v5.9h-61.33v-5.9c19.6-1.27,21.29-3.37,21.29-20V231.53h-19.18c-11.6,0-15,1.26-18.55,7.58-2.53,4.22-4.22,9.28-7,17.08h-6.32c1.26-12.86,2.53-26.14,3.16-37.94h4.85c3.16,5.06,5.48,4.85,11.38,4.85h83.46c5.9,0,7.59-.85,10.75-4.85h5.06c0,9.9.84,25.08,1.9,37.3Z"/><path d="M304,624.89h-5.53c-1.58-16.2-2.77-16.79-23.91-16.59l-80.6-.2c36.15,16.2,92.65,42.28,110,49.19v5.14c-18,6.71-72.31,29-108.07,44.05,69.15,3.36,84.76,3.56,88.51,3.56,11.06-.2,12.64-5.14,14-18.57H304v46.82h-5.53c-1.19-11.46-3.56-16.2-14.23-17.78-8.69-1.19-15.8-1.38-87.91-6.52-10.28-.79-13.63,1.18-15.21,18.57h-5.53V698.18l100.16-43.66L175.59,607.7V573.13h5.53c2,17,3.75,19.16,17.58,18.77l75.86-.79c21.14-.79,22.13-1.39,23.91-18.77H304Z"/><path d="M272.59,452c5.13,1.19,25.48,6.52,31.41,8.5v96h-5.53c-1.39-18.37-3.16-19.76-19.36-19.76h-78c-17.58,0-18.57,2.18-19.95,17h-5.53V493.31c0-18.57-.2-26.27-.4-28.65,4.94-.19,19.76-1,30.23-1.77l1,5.92a66.14,66.14,0,0,0-15,5.93c-6.52,3.16-7.9,7.7-7.9,19.56v18.77c0,6.12.59,6.52,6.32,6.52h43.66V497.66c0-14.82-3-15.81-16.4-18.18v-6.12h40.7v6.12c-14.23,2.57-16.2,4.15-16.2,18.37v21.74h39.31c13.83,0,15-4.35,15.22-14.23V487c0-12.05-1.78-14-6.92-18.37C285,464.86,276.93,460.71,271,458Z"/><path d="M304,371.61h-5.53c-1.58-12.84-3.56-14.42-11.07-11.66-7.7,2.57-17.58,6.52-30,10.67v42.67c8.89,3.17,16.6,6.13,24.7,8.9,12.84,4.34,14.42,1.58,16.4-14.62H304V453.2h-5.53c-1.58-12.44-3-15.61-20.75-22.52L174,389.79l-1.18-6.33c33.78-12.44,71.12-26.07,105.3-38.52,17.19-6.32,18.77-8.1,20.35-22.13H304ZM198.7,391.37c17,6.32,35,13,50.57,19V373.39Z"/><path d="M206.6,226.79c-6.32,1.78-12.84,4.15-16.4,6.33-5.33,3.16-6.71,5.13-6.71,16v19.75H279.7c15.41,0,17.58-1.58,18.77-20.34H304V306h-5.53c-1.19-18.37-3.16-19.95-18.77-19.95H183.49v18c0,10.86,1.18,14,7.11,17.38,4,2.38,8.69,4,16,6.52v5.93c-12-1.18-24.5-2.37-35.56-3v-4.55c4.74-3,4.55-5.13,4.55-10.66V237.46c0-5.53-.79-7.11-4.55-10.07v-4.74c9.29,0,23.51-.8,35-1.78Z"/><path d="M176.05,1450.92c1.29,13.44,2.1,14.73,15.69,14.73h64.9c13.59,0,14.07-1.46,15.53-14.73h4.53v43.37h-4.53c-1.62-13.43-1.94-14.72-15.53-14.72H224.27v55.34h32.37c13.43,0,13.91-1.29,15.53-14.56h4.53v43.2h-4.53c-1.46-13.1-1.94-14.56-15.53-14.56h-64.9c-13.59,0-14.4,1.46-15.69,14.56h-4.54v-43.2h4.54c1.13,12.94,2.26,14.56,15.69,14.56h25.73v-55.34H191.74c-13.43,0-14.56,1.78-15.69,14.72h-4.54v-43.37Z"/><path d="M169.25,1380.87c0-27.67,21.2-52.43,53.4-52.43,34.79,0,56.48,23.62,56.48,53.4,0,31.07-23.63,53.72-54,53.72C196.11,1435.56,169.25,1415,169.25,1380.87Zm6,3.23c0,18.13,15.21,34.63,45.47,34.63,30.1,0,52.27-16.5,52.27-39.48,0-19.58-14.56-34.31-45.8-34.31C193.2,1344.94,175.24,1362.9,175.24,1384.1Z"/><path d="M176.05,1200.93c1.13,10.36,2.75,13.76,10.19,14.24,5.18.16,12,.49,27,.49h64.89v6.15l-84.64,69.26H234c14.56,0,21.85-.49,26.54-.81,8.25-.32,10.68-4.37,11.65-16h4.53v39.32h-4.53c-.81-10-3.24-13.91-11.17-14.56-5.17-.49-12.46-.81-27.18-.81H192.55c-4.53,0-7.12.32-10.68,3.24-4,3.07-5,6.47-5.82,14.4h-4.54v-24.28l81.4-68.61H213.27c-15.05,0-22,.32-26.87.81-7.28.48-9.55,4.21-10.35,17.15h-4.54v-40Z"/><path d="M251,1104c4.21,1,20.88,5.34,25.73,7v78.65h-4.53c-1.13-15-2.59-16.19-15.86-16.19H192.39c-14.4,0-15.21,1.78-16.34,13.92h-4.54v-49.52c0-15.21-.16-21.52-.32-23.46,4.05-.16,16.18-.81,24.76-1.46l.81,4.86a53.71,53.71,0,0,0-12.3,4.85c-5.34,2.59-6.47,6.31-6.47,16V1154c0,5,.48,5.35,5.18,5.35h35.76v-18c0-12.13-2.43-12.94-13.43-14.88v-5h33.34v5c-11.66,2.1-13.28,3.39-13.28,15v17.81h32.21c11.33,0,12.3-3.56,12.46-11.66v-15c0-9.87-1.46-11.49-5.67-15.05-3.39-3.07-10-6.47-14.88-8.73Z"/><path d="M176.05,1005.47c1.29,11.33,3.07,13.27,13.43,19.74,11.81,7.28,23,13.27,37.38,21.2a17.19,17.19,0,0,0,9.55,2.43h19.9c13.43,0,14.4-1.46,15.86-16.51h4.53v46.45h-4.53c-1.94-14.73-2.26-15.86-15.86-15.86H235.44c-3.24,0-4.7.65-9.39,3.23-10.52,5.67-20.71,11.17-35.92,19.91-11,6.31-12.95,7.93-14.08,18.93h-4.54v-39.81h4.54c1.61,11.65,3.72,11,9.22,8.09,12.46-6.79,27-14.4,39.16-21.2-10.84-5.82-28.48-15-37.38-19.58-8.09-3.72-9.71-3.23-11,9.55h-4.54v-36.57Z"/><path d="M1718,761.37c1.45,12.62,2.43,13.92,16,13.92h59.87c21.37,0,32.53,3.39,42.24,14.24a53.25,53.25,0,0,1,9.39,15.05l-4.86,2.59A28.64,28.64,0,0,0,1819.32,791c-7.77-1.45-17.15-1.61-30.75-1.61H1734c-13.59,0-14.73,1.45-16,14.72h-4.53V761.37Z"/><path d="M1792.94,664.28c4.21,1,20.88,5.34,25.73,7v78.65h-4.53c-1.13-15-2.59-16.18-15.86-16.18h-63.92c-14.4,0-15.21,1.78-16.34,13.91h-4.53V698.1c0-15.21-.16-21.52-.33-23.46,4-.16,16.19-.81,24.76-1.46l.81,4.86a53.71,53.71,0,0,0-12.3,4.85c-5.34,2.59-6.47,6.31-6.47,16v15.38c0,5,.49,5.34,5.18,5.34h35.76v-18c0-12.13-2.43-12.94-13.43-14.88v-5h33.34v5c-11.65,2.1-13.27,3.39-13.27,15v17.81h32.2c11.33,0,12.3-3.56,12.46-11.66v-15c0-9.88-1.45-11.5-5.66-15.06-3.4-3.07-10-6.47-14.89-8.73Z"/><path d="M1791.81,571.73c5,1,21.85,5.82,26.86,7.44v75.25h-4.53c-1.45-14.73-2.26-16-16-16h-64.24c-13.76,0-14.57,1.62-15.86,14.56h-4.53V609.59H1718c1.29,12.95,1.94,14.73,15.86,14.73h65.86c9.87,0,12.14-1.29,12.3-10.52,0-.16.16-11.81.16-12.78,0-8.26-1-10.68-5-14.4-4.2-4-10.68-7.45-16.66-9.88Z"/><path d="M1791.81,479.82c5,1,21.85,5.82,26.86,7.44v75.25h-4.53c-1.45-14.72-2.26-16-16-16h-64.24c-13.76,0-14.57,1.62-15.86,14.57h-4.53V517.69H1718c1.29,12.94,1.94,14.72,15.86,14.72h65.86c9.87,0,12.14-1.29,12.3-10.52,0-.16.16-11.81.16-12.78,0-8.25-1-10.68-5-14.4-4.2-4-10.68-7.45-16.66-9.87Z"/><path d="M1718,389.69c1.29,11.33,3.07,13.27,13.43,19.74,11.81,7.28,23,13.27,37.38,21.2a17.21,17.21,0,0,0,9.55,2.43h19.9c13.44,0,14.41-1.46,15.86-16.51h4.53V463h-4.53c-1.94-14.73-2.26-15.86-15.86-15.86h-20.87c-3.24,0-4.69.64-9.39,3.23-10.52,5.67-20.71,11.17-35.92,19.91-11,6.31-12.95,7.93-14.08,18.93h-4.53V449.4H1718c1.62,11.65,3.72,11,9.22,8.09,12.46-6.79,27-14.4,39.16-21.2-10.84-5.82-28.48-15.05-37.38-19.58-8.09-3.72-9.71-3.23-11,9.55h-4.53V389.69Z"/><path d="M1713.49,1799.14c0-11.49,2.1-20.72,7-27.35,4.69-6.31,12.3-10.68,23-10.68,23.63,0,33.18,20.23,33.18,35.6a28.76,28.76,0,0,1-.32,4.37l-2.92,11.17h25.25c13.59,0,13.92-1.14,15.53-16h4.53v44.66h-4.53c-1.45-13.92-2.42-14.56-15.86-14.56H1734c-14.4,0-14.73,1.78-16,14.56h-4.53Zm54.21,13.11c1-2,2.1-6.31,2.1-11.82,0-10.84-5.5-24.27-25.89-24.27-17.8,0-24.92,11.65-24.92,25.24,0,4.7.81,8.1,1.94,9.07,1.13,1.29,3.08,1.78,7.45,1.78Z"/><path d="M1820,1651.72c0,2.11-.16,3.89-.33,6-.81,11.81-3.88,18.13-13.91,25.25-8.26,6-18.45,11.81-26.7,17-5.18,3.24-6.15,5.34-6.15,13.59v5.67h25.4c13.76,0,14.57-1.78,15.86-14.73h4.53v43.21h-4.53c-1.45-13.43-2.1-14.57-15.86-14.57h-64.56c-13.76,0-14.25,1.78-15.7,14.57h-4.53v-41.27c0-11.81,1.45-19.74,5.5-25.89,4.21-6.64,11.49-11,21.36-11,13.92,0,22.66,8.91,27.83,20.88,5-2.91,15.86-9.87,23.14-14.73,8.58-6,12.63-9.06,16.67-12.78,4.7-4.37,6.48-8.09,7.45-11.81Zm-52.59,59.72c0-8.42-1.3-13.76-4.7-17.8-4.69-6.31-11.16-8.9-19.9-8.9-17.32,0-23.63,11.49-23.63,24,0,4.69.65,7.44,1.62,8.57,1.13,1.46,2.75,2,7,2h39.65Z"/><path d="M1792.94,1561.44c4.21,1,20.88,5.34,25.73,7V1647h-4.53c-1.13-15-2.59-16.18-15.86-16.18h-63.92c-14.4,0-15.21,1.78-16.34,13.92h-4.53v-49.52c0-15.21-.16-21.52-.33-23.47,4-.16,16.19-.81,24.76-1.45l.81,4.85a54.14,54.14,0,0,0-12.3,4.86c-5.34,2.59-6.47,6.31-6.47,16v15.37c0,5,.49,5.34,5.18,5.34h35.76v-18c0-12.14-2.43-13-13.43-14.89v-5h33.34v5c-11.65,2.1-13.27,3.4-13.27,15v17.8h32.2c11.33,0,12.3-3.56,12.46-11.65v-15.05c0-9.87-1.45-11.49-5.66-15-3.4-3.07-10-6.47-14.89-8.74Z"/><path d="M1738.89,1464.84c-5.17,1.45-10.51,3.4-13.43,5.18-4.37,2.58-5.5,4.2-5.5,13.1v16.19h78.81c12.62,0,14.4-1.3,15.37-16.67h4.53v47.09h-4.53c-1-15-2.59-16.35-15.37-16.35H1720v14.73c0,8.9,1,11.49,5.83,14.24,3.23,1.94,7.12,3.24,13.1,5.34v4.86c-9.87-1-20.06-2-29.13-2.43v-3.72c3.89-2.43,3.73-4.21,3.73-8.74v-64.08c0-4.54-.65-5.83-3.73-8.26v-3.88c7.61,0,19.26-.65,28.65-1.46Z"/><path d="M1791,1358.53c5.5,1.13,20.72,5,27.67,6.63v84.15l-2.59,1.46c-31.07-22.5-63.27-45-96.12-67.81v31.88c0,14.4,1,16.83,6,20.23,2.1,1.62,7.44,4,13.59,6.15l-.16,4.85c-8.42-.81-22.49-2.75-29.62-3.07v-4.21c3.89-1.78,3.73-3.72,3.73-8.58v-65.37l2.59-1.3c31.55,22.5,63,44.34,95.64,66.67.32-5,.48-15.53.48-26.54,0-21.19-.81-26.05-5.82-30.58-3.4-3.4-9.71-7-16.51-9.87Z"/><path d="M1792.94,1262.74c4.21,1,20.88,5.34,25.73,7v78.65h-4.53c-1.13-15-2.59-16.18-15.86-16.18h-63.92c-14.4,0-15.21,1.78-16.34,13.92h-4.53v-49.52c0-15.21-.16-21.53-.33-23.47,4-.16,16.19-.81,24.76-1.45l.81,4.85a53.68,53.68,0,0,0-12.3,4.86c-5.34,2.58-6.47,6.31-6.47,16v15.37c0,5,.49,5.34,5.18,5.34h35.76v-18c0-12.14-2.43-12.95-13.43-14.89v-5h33.34v5c-11.65,2.1-13.27,3.4-13.27,15v17.8h32.2c11.33,0,12.3-3.56,12.46-11.65v-15c0-9.87-1.45-11.49-5.66-15.05-3.4-3.08-10-6.47-14.89-8.74Z"/><path d="M1791.81,1170.18c5,1,21.85,5.83,26.86,7.44v75.25h-4.53c-1.45-14.72-2.26-16-16-16h-64.24c-13.76,0-14.57,1.62-15.86,14.57h-4.53v-43.37H1718c1.29,12.94,1.94,14.72,15.86,14.72h65.86c9.87,0,12.14-1.29,12.3-10.52,0-.16.16-11.81.16-12.78,0-8.25-1-10.68-5-14.4-4.2-4-10.68-7.45-16.66-9.87Z"/><path d="M1738.08,1100.6c-10.68,2.76-21.19,7.29-21.19,22.5,0,12.62,9.22,17,17.63,17,11.17,0,16.83-7.12,23.79-20.55,10-19.42,17.48-27.84,32.85-27.84,17,0,29.94,14.73,29.94,35.61,0,9.71-2.75,18.12-5.34,24.75-4.53,1.3-15.53,3.24-24.27,4.37l-1.3-5c10.85-3.24,24.92-10.36,24.92-27.19,0-11.65-8.09-18.77-18.61-18.77-12.46,0-17.47,6.63-25.24,20.88-9.22,17-17,26.53-32,26.53-14.4,0-28-12-28-33.33,0-9.06,2.43-18,3.08-21.36,5.82-.65,12.3-1.3,22.81-2.59Z"/><path d="M633.25,1082.55c21,0,37.76,3.83,49.85,12.68,11.5,8.55,19.47,22.42,19.47,41.88,0,43.07-36.87,60.47-64.89,60.47a52.73,52.73,0,0,1-8-.59l-20.35-5.31v46c0,24.78,2.07,25.37,29.2,28.32v8.25h-81.4V1266c25.36-2.66,26.54-4.43,26.54-28.91V1120c0-26.25-3.24-26.84-26.54-29.2v-8.26Zm-23.89,98.81c3.54,1.76,11.51,3.83,21.54,3.83,19.76,0,44.24-10,44.24-47.19,0-32.45-21.24-45.42-46-45.42-8.56,0-14.75,1.47-16.52,3.53-2.36,2.07-3.25,5.61-3.25,13.57Z"/><path d="M727,1274.26V1266c24.19-2.66,26.55-3.84,26.55-28.91V1120c0-25.37-2.36-26.55-26.55-29.2v-8.26h79.05v8.26c-24.48,2.65-26.84,3.83-26.84,29.2V1237.1c0,25.37,2.36,26.25,26.84,28.91v8.25Z"/><path d="M1010.78,1227.07c-4.13,14.16-11.8,35.4-16.22,44.54-8.56,1.77-31.56,7.08-54,7.08-70.49,0-106.48-46.9-106.48-98.51,0-60.17,45.72-101.76,111.79-101.76,25.37,0,46,5.31,55.75,6.78,1.18,13.27,3.24,31,5.6,45.72L998.1,1133c-5.9-19.76-13-31.85-28-38-7.67-3.54-19.77-5.61-31-5.61-48.67,0-74.33,36-74.33,84.65,0,56.93,29.49,93.5,77.28,93.5,30.08,0,44.83-13.86,59.87-43.36Z"/><path d="M1039.09,1082.55h78.75v8.26c-23,2.06-27.14,4.13-27.14,30.38v50.73c5.9-.59,12.69-5.31,21.24-13.57,16.52-15.63,36.28-35.69,49.85-51,8.84-10,8-13.86-4.72-15.63l-8.26-.88v-8.26h71.67v8.26c-22.12,2.65-29.79,4.13-49.55,24.48-8.85,8.55-31.86,31-50.73,49.55,22.41,26.54,55.15,64.3,70.49,80.52,15,16.22,18.88,18.58,37.17,20.65v8.25h-47.2c-22.71-25.66-46.6-54.27-73.44-85.53-6.78-8.26-11.8-8.85-16.52-8.55v56c0,25.66,2.66,27.72,27.14,29.79v8.25h-78.75V1266c24.18-2.07,26.54-4.13,26.54-29.79v-115c0-26.55-2.06-28.61-26.54-30.38Z"/><path d="M1390.07,1225.3c-1.77,9.15-10.62,39.82-13.57,49H1239.35V1266c26.84-2.66,29.2-4.13,29.2-29.2v-117.1c0-25.07-3-26.54-26.54-28.9v-8.26h79v8.26c-23.59,2.36-26.84,3.54-26.84,28.9v120c0,18,2.36,22.12,19.17,22.41.3,0,21.54.3,23.3.3,15,0,19.47-1.77,26.26-9.15,7.37-7.67,13.56-19.46,18-30.38Z"/><path d="M1562.61,1227.37c-1.77,7.67-9.73,38.05-12.68,46.89H1406.59V1266c27.43-2.07,29.49-4.72,29.49-28.91V1120.6c0-26.25-3.24-27.73-25.37-29.79v-8.26H1501c27.72,0,39.23-.3,42.77-.59.29,7.37,1.47,29.49,2.65,45.12l-8.85,1.48a97.9,97.9,0,0,0-8.85-22.42c-4.71-9.73-11.5-11.79-29.19-11.79h-28c-9.15,0-9.74.88-9.74,9.43V1169h32.74c22.12,0,23.6-4.43,27.14-24.48h9.14v60.76h-9.14c-3.84-21.24-6.2-24.19-27.43-24.19h-32.45v58.7c0,20.64,6.49,22.41,21.24,22.71h27.43c18,0,20.94-2.66,27.43-10.33,5.6-6.19,11.8-18.28,15.93-27.13Z"/><path d="M1685.6,1127.38c-5-19.47-13.27-38.64-41-38.64-23,0-31,16.81-31,32.15,0,20.35,13,30.68,37.46,43.36,35.39,18.28,50.73,31.85,50.73,59.87,0,31-26.84,54.57-64.89,54.57-17.69,0-33-5-45.12-9.73-2.36-8.26-5.9-28.32-8-44.25l9.15-2.36c5.9,19.76,18.87,45.43,49.55,45.43,21.23,0,34.21-14.75,34.21-33.92,0-22.71-12.09-31.86-38-46-31-16.81-48.37-31-48.37-58.4,0-26.25,21.83-51,60.76-51,16.52,0,32.74,4.42,38.93,5.6,1.19,10.62,2.36,22.42,4.72,41.59Z"/><path d="M269.28,892.41c-2.94,10.09-8.41,25.24-11.57,31.76-6.1,1.26-22.51,5.05-38.49,5.05-50.28,0-75.94-33.45-75.94-70.26,0-42.91,32.6-72.57,79.72-72.57,18.09,0,32.82,3.79,39.76,4.84.84,9.46,2.31,22.09,4,32.6l-6.52,1.48c-4.2-14.1-9.25-22.72-20-27.14-5.47-2.52-14.09-4-22.09-4-34.7,0-53,25.67-53,60.37,0,40.6,21,66.68,55.11,66.68,21.45,0,32-9.88,42.7-30.92Z"/><path d="M435.87,795.23c-17.45,1.68-19.14,2.73-19.14,20.4V900c0,17.67,1.9,18.3,19.14,20.19v5.89H379.5v-5.89c17.46-2.1,19.14-2.52,19.14-20.19V857.91H326.7V900c0,17.46,1.69,18.09,18.93,20.19v5.89H289.47v-5.89c17-1.89,18.93-2.52,18.93-20.19V815.63c0-17.67-1.89-18.72-18.93-20.4v-5.89h56.16v5.89c-16.82,1.47-18.93,2.94-18.93,20.4v33.44h71.94V815.63c0-17.46-2.31-18.93-19.14-20.4v-5.89h56.37Z"/><path d="M566.29,892.62c-1.26,5.47-6.94,27.13-9,33.44H455v-5.89c19.57-1.47,21-3.36,21-20.61V816.47c0-18.72-2.31-19.77-18.09-21.24v-5.89h64.37c19.77,0,28-.21,30.5-.43.21,5.26,1,21,1.89,32.19l-6.31,1a70.22,70.22,0,0,0-6.31-16c-3.37-6.94-8.2-8.41-20.82-8.41h-20c-6.52,0-6.94.63-6.94,6.73V851H517.7c15.78,0,16.83-3.16,19.35-17.46h6.52v43.33h-6.52c-2.73-15.14-4.42-17.25-19.56-17.25H494.35v41.86c0,14.73,4.63,16,15.14,16.2h19.57c12.83,0,14.93-1.89,19.56-7.36,4-4.42,8.41-13,11.36-19.36Z"/><path d="M690.19,892.62c-1.27,5.47-7,27.13-9.05,33.44H578.91v-5.89c19.56-1.47,21-3.36,21-20.61V816.47c0-18.72-2.32-19.77-18.1-21.24v-5.89h64.37c19.78,0,28-.21,30.5-.43.21,5.26,1,21,1.89,32.19l-6.31,1a70.26,70.26,0,0,0-6.3-16c-3.37-6.94-8.21-8.41-20.83-8.41h-20c-6.52,0-7,.63-7,6.73V851h23.35c15.78,0,16.83-3.16,19.36-17.46h6.52v43.33H661c-2.74-15.14-4.42-17.25-19.57-17.25H618.24v41.86c0,14.73,4.63,16,15.15,16.2H653c12.83,0,14.94-1.89,19.57-7.36,4-4.42,8.41-13,11.35-19.36Z"/><path d="M777.9,821.31c-3.58-13.88-9.47-27.56-29.24-27.56-16.41,0-22.09,12-22.09,22.93,0,14.52,9.26,21.88,26.72,30.92,25.24,13,36.18,22.72,36.18,42.7,0,22.09-19.14,38.92-46.28,38.92-12.62,0-23.56-3.58-32.18-6.94-1.68-5.89-4.21-20.2-5.68-31.56l6.52-1.68c4.21,14.09,13.46,32.4,35.34,32.4,15.14,0,24.4-10.52,24.4-24.2,0-16.19-8.63-22.71-27.14-32.81-22.08-12-34.49-22.09-34.49-41.65,0-18.72,15.56-36.39,43.33-36.39,11.78,0,23.35,3.16,27.77,4,.84,7.57,1.68,16,3.36,29.66Z"/><path d="M916.73,892.62c-1.26,5.47-6.94,27.13-9,33.44H805.45v-5.89c19.57-1.47,21-3.36,21-20.61V816.47c0-18.72-2.32-19.77-18.09-21.24v-5.89h64.37c19.77,0,28-.21,30.5-.43.21,5.26,1.05,21,1.89,32.19l-6.31,1a70.22,70.22,0,0,0-6.31-16c-3.37-6.94-8.2-8.41-20.83-8.41h-20c-6.52,0-6.94.63-6.94,6.73V851h23.35c15.77,0,16.83-3.16,19.35-17.46H894v43.33h-6.52c-2.73-15.14-4.42-17.25-19.56-17.25H844.79v41.86c0,14.73,4.63,16,15.15,16.2H879.5c12.83,0,14.93-1.89,19.56-7.36,4-4.42,8.42-13,11.36-19.36Z"/><path d="M1254,767.9c-14.08,1.54-18.7,3.74-19.36,13.87-.22,7-.66,16.28-.66,36.75v88.26h-8.37l-94.2-115.11v55c0,19.81.66,29.72,1.11,36.1.43,11.22,5.94,14.52,21.79,15.85v6.16h-53.49v-6.16c13.65-1.11,18.93-4.41,19.81-15.19.66-7,1.1-17,1.1-37V790.35c0-6.16-.44-9.68-4.4-14.52-4.18-5.51-8.8-6.83-19.59-7.93v-6.16h33l93.32,110.7V818.52c0-20.47-.44-29.93-1.1-36.53-.66-9.91-5.72-13-23.33-14.09v-6.16H1254Z"/><path d="M1422.59,767.9c-13.86.88-18.92,4.4-19.37,14.53-.22,5.06-.66,14.3-.66,34.55v23.77c0,22.45-2.64,39.62-15.4,53-10.35,10.79-25.31,14.09-40.5,14.09-12.76,0-26.41-2.64-36.09-10.13-13.21-10.12-19.59-25.31-19.59-51.06V790.57c0-19.81-1.76-21.13-19.37-22.67v-6.16h57.88v6.16c-17.6,1.1-19.36,2.86-19.36,22.67v55c0,32.14,15.18,49.74,41.59,49.74,31.26,0,41.16-19.36,41.16-55.9V817c0-20.25-.66-28.61-1.1-34.55-.66-9.91-5.72-13.65-22-14.53v-6.16h52.82Z"/><path d="M1556.2,796.29c-2-7-4.63-14.3-7-18.26-3.52-5.95-5.72-7.49-17.82-7.49h-22V877.73c0,17.16,1.76,19.58,22.67,20.91v6.16h-64v-6.16c20.47-1.33,22.23-3.53,22.23-20.91V770.54h-20c-12.11,0-15.63,1.32-19.37,7.93-2.64,4.4-4.4,9.68-7.26,17.82h-6.6c1.32-13.42,2.64-27.29,3.3-39.61h5.06c3.3,5.28,5.72,5.06,11.88,5.06h87.16c6.16,0,7.92-.88,11.23-5.06h5.28c0,10.34.88,26.19,2,39Z"/><path d="M1658.54,795.19c-3.74-14.52-9.9-28.83-30.59-28.83-17.17,0-23.11,12.55-23.11,24,0,15.19,9.69,22.89,28,32.35,26.41,13.65,37.86,23.77,37.86,44.68,0,23.11-20,40.72-48.42,40.72-13.21,0-24.65-3.74-33.67-7.26-1.76-6.17-4.41-21.13-6-33l6.83-1.76c4.4,14.75,14.08,33.9,37,33.9,15.85,0,25.53-11,25.53-25.31,0-16.95-9-23.77-28.39-34.34-23.11-12.54-36.1-23.11-36.1-43.58,0-19.58,16.29-38.07,45.34-38.07,12.33,0,24.43,3.3,29,4.18.89,7.92,1.77,16.73,3.53,31Z"/><path d="M1013.28,893.26c-5-8-11.43-10.78-18.5-8-4.93,2-7.69,5.69-8.92,10.81-.28,1.17-1.46,2.82-2.47,3-21.39,4.27-42.83,8.37-64.25,12.49a5,5,0,0,1-1.14-.14V895c0-5.14.16-10.29,0-15.42-.18-4.67.12-8,5.34-10.86,9-5,7.43-18.61-2.17-22.67-2.78-1.17-3.24-2.6-3.16-5.11.13-4.1,0-8.2,0-12.63l190.28-36.84c.09,1.41.22,2.62.22,3.82,0,25.31,0,50.62.06,75.93,0,2.76-.6,3.92-3.6,4.49-29.89,5.65-59.73,11.51-89.59,17.3C1014.75,893.14,1014.12,893.17,1013.28,893.26Zm77.81-63.61c.08-8.48-5.55-15.49-12.93-16.11s-13.86,5-15.07,13c-1.32,8.68,3.63,17,11.22,18.59a12.42,12.42,0,0,0,11.41-3.16A16.37,16.37,0,0,0,1091.09,829.65ZM987.4,858.58c6.7,0,12.19-6.25,12.09-13.79s-5.46-13.4-12-13.4-12.16,6.17-12.1,13.75C975.4,852.5,980.85,858.57,987.4,858.58ZM1047,861.3c0-7.08-4.9-12.73-11.12-12.78s-11.33,5.79-11.33,12.67,5.05,12.73,11.22,12.77S1047,868.39,1047,861.3Zm-93,28.08c5.15,0,9.45-4.54,9.48-10.1s-4.15-10.19-9.34-10.22-9.42,4.42-9.45,10.08S948.81,889.34,954,889.38Z"/><path d="M919.65,821c1.77-1.4,3.54-2.81,5.33-4.19q37.86-29.43,75.77-58.8a8.87,8.87,0,0,1,5.11-2c35.25.88,68.57,8.91,99.07,27.18.77.46,1.52,1,2.25,1.48.15.11.15.43.34,1L920,821.84Zm118.61-52.91c-4.12,1.53-8.33,2.45-11.82,4.57-4.7,2.85-4.47,7.73-.09,11.1,6,4.64,18,4.65,24,0,4.46-3.43,4.55-8.54-.35-11.36C1046.56,770.41,1042.46,769.56,1038.26,768.07Zm-48.74,15.45c-2.89,1.05-5.72,1.61-8,3-4,2.43-3.85,6.66-.07,9.38,4.35,3.13,12.07,3.08,16.28-.1,3.63-2.74,3.8-6.75,0-9.14C995.29,785.17,992.34,784.57,989.52,783.52Z"/><path d="M1047.11,944.6c-5.12-1.37-5.12-1.37-5.63-5l1.24,3.87,3.8-3.47Z"/><path d="M686.7,555.39c-1.48,9.77-3.87,19.51-4.24,29.32-.87,22.57-8.68,32-31.47,31.16-16.26-.59-32.54-4.21-48.55-7.66-22.76-4.91-45.6-6.51-67.53,1.49-38.51,14.07-78.48,18-118.87,19.92-25.28,1.23-50.58,2.36-75.88,2.82-11.32.21-19.65-5.77-24.28-16.38V602.58c.75-7.2,1-14.49,2.39-21.57s2.29-15.13,6.25-20.73C330,552.53,338,546.48,345.21,540c11.05-9.85,21.73-20.3,33.78-28.77,7.19-5,16.67-9.31,25.18-9.44,15.55-.25,28.83-4.46,42.46-11.66,32.6-17.23,65.81-20.93,98.79.24,17.8,11.43,37.55,15.91,58.72,15.55a341.94,341.94,0,0,1,41.36,1.68c20,2.08,35.47,11.05,41.2,32Zm-323.5,34c12.88-1.58,23-2.31,32.89-4.13,46.94-8.6,92.82-22.07,141.09-24.78,26.83-1.51,52.56-2.22,78.71,4.59,12.3,3.2,25.76,3.88,38.48,2.92,10.3-.77,17.51-8.48,18.08-19.77.55-10.87-4.6-18.69-14.77-22.74-4.12-1.65-8.48-3.28-12.84-3.65-12.27-1-24.61-2.18-36.88-1.89-25.72.61-49.71-4.35-71.57-18.47-28.22-18.22-56.82-13.26-83.91,1.51A98.44,98.44,0,0,1,408,515.55c-7.65.33-15.81,5.14-22.42,9.8-10,7-18.86,15.62-28.06,23.73-7.79,6.87-15.87,13.55-22.87,21.18-5.18,5.65-3.24,11.85,4,14C347.41,587,356.68,588.13,363.2,589.43Zm82.36,28.1c23.6,1.92,27.78.19,28.91-10.41.5,2.16,1.26,5.38,2,8.59l3.17-.31V582.75C447.45,584,447,584.49,445.56,617.53Zm75-40.37-33.62,2.37v34.65c5.48-1.41,10.28-2.22,14.74-3.92,4.26-1.63,9.56-3.26,11.79-6.63,2-3,.42-8.37.42-12.69l1.36.07q.32,6.6.62,13.19l2.47-.08C519,595.69,519.72,587.25,520.55,577.16ZM409.74,620.41c30.05,1.18,34.26-2.81,31.25-28.77C403.89,598.5,410.9,592.86,409.74,620.41Zm214.17-38.18-32-8.06c-.5,8.38-.91,15.28-1.37,23l31.32,5.74C622.62,595.39,623.2,589.49,623.91,582.23Zm-69.62-9.48V595.3h26.53V572.75ZM403.37,621.87c.8-7.46,1.54-14.28,2.43-22.57l-26.7,3c-.38,8.29-.71,15.45-1.08,23.67Zm-29.51-18.4-23.92-1.3c-.83,8.05-1.53,14.9-2.35,22.92,8.17-1.59,17.13,6.84,21.35-4.74.39,1,1.08,2.69,1.77,4.42l1.83-.37C372.93,618.15,373.33,611.9,373.86,603.47Zm274,3.36V585.14l-18.68-2.22c-.75,7.66-1.42,14.48-2.2,22.49Zm-122.75-4.67c20.37-3.3,21.43-5,16.6-26.32C523.59,575.51,523.59,575.51,525.07,602.16Zm143.29-23.55L654,583.17v23.55C670.42,604.9,671.25,603.33,668.36,578.61Zm-341,17.74c-4.88,18-2.45,23.76,10.23,25.77C341.26,601.59,340.82,600.41,327.34,596.35Z"/><path d="M634.92,566c-17.11-3.73-34.11-8.07-51.35-11a154.82,154.82,0,0,0-34.43-2.29c-37.29,2.13-74,7.1-110.46,16.72-25.39,6.7-52.28,8.06-78.61,10.67-5.09.5-13.73-3-15.42-6.86-3.4-7.9,4-12.49,10.53-15.87,12.56-6.54,25.31-12.71,37.75-19.47,4.87-2.65,9.86-5.79,13.48-9.88,7.55-8.54,16.26-11.57,27.67-11.51,7.37,0,15.47-3,22-6.75,27.08-15.57,53.75-18.79,81.23-1,17.42,11.26,36.92,15.12,57.6,15.47,14.85.25,29.71,2.31,44.45,4.4,5,.7,11.07,2.75,14,6.34,4,5,8.37,12.62,7.32,18.11-.87,4.61-8.92,8.46-14.46,11.33-3,1.53-7.33.27-11.06.27Zm1.57-5c8-1.18,17.78.67,19.68-9.57,2-10.67-7.26-14.42-15.59-17.37a48.44,48.44,0,0,0-11.93-2.94c-13-1.09-26.11-2.2-39.19-2.42-18.34-.31-35.8-3.8-51.15-14-26.81-17.87-53-16.19-80.12-.4-7.64,4.45-17.54,5.05-26.42,7.35-4.93,1.28-11.4.84-14.6,3.88-17.12,16.31-37.43,26.92-58.78,36.24-3.68,1.61-5.9,6.6-8.79,10,4,1.3,8.16,4.1,11.94,3.64,25.58-3.08,51.87-4,76.39-11.06,37.81-10.84,76.46-13.22,115-17.71,6.55-.77,13.5,0,20,1.27C594.17,552,615.31,556.63,636.49,561Z"/><path d="M448.59,555.45c-2.88,1.94-5.54,5-8.68,5.64-13.1,2.65-26.3,5.28-39.58,6.35-4.57.37-9.52-3.82-14.29-5.92,3.14-3.77,5.55-9.37,9.55-11,14.09-5.61,28.51-10.77,43.27-14,4.49-1,10.45,4.65,15.74,7.25l-6.38,12.06c.62-4.38,3.19-11.28,1.47-12.61-3.57-2.74-9.9-4.34-14.23-3.18-12.9,3.47-25.48,8.24-37.95,13.1-3.27,1.27-5.68,4.73-8.48,7.19l1.33,3.13C410.28,565.61,429.43,560.45,448.59,555.45Z"/><path d="M405.14,558.56c8.36-10.58,22.38-14.44,33.55-10C434.11,556.93,421.37,560.89,405.14,558.56Z"/><path d="M347.62,1254c-3.19,1.12-6,3.09-8.55,2.81-10.72-1.13-30.52-21.51-30.35-32,.06-3.3,4.51-6.53,8.65-12.06-3.64-18.47-3.64-18.47,12.39-18.5-1.1-4.48-2.91-8.89-3.06-13.35-.11-3.34,1.41-9.36,3.09-9.69,8.51-1.67,16.66-6.59,23.84-7.81,11.46-2,24.24-9.78,37-1.3,1.76,1.17,8.62-2.93,11.39-6.09,26.4-30.11,52.12-60.8,78.69-90.74,11.34-12.77,23.39-25.22,36.72-35.79,8-6.37,20.11-11.86,29.2-1.81,8.28,9.15,3.24,20.42-3.38,28.16a258.32,258.32,0,0,1-33.8,32.83c-30.42,24.53-61.52,48.21-92.45,72.1-10.34,8-15.66,17-8.86,30,1.3,2.51.62,6,1,10.69-23.41-1.41-31.45-22.1-46.89-35.72,1.93,15.46,16.38,31.84,31.79,40.37,3.89,2.15,6.15,7.24,9.15,11-5.34,0-12.51,2.22-15.71-.4-12.1-9.93-23-21.34-34.16-32.39-3-3-5.35-6.59-9.83-12.22,1,18.91,21.6,43.17,41.22,52,5.1,2.3,14.31,2.67,9.77,10.94-1.8,3.28-12.79,5.45-16.32,3.14-13.07-8.6-24.88-19.15-36.93-29.25-3.34-2.81-5.85-6.62-10.13-8.79,4.45,15.75,15.16,26.85,28.77,34.33,8.79,4.84,12.79,10.86,14.59,20.2,2.47,12.82,6.31,25.37,9,38.15.55,2.58-1.4,5.68-2.2,8.53-2.56-2-5.8-3.55-7.47-6.13s-2-6.18-2.56-9.39c-3.42-18.79-7.06-36.6-28.64-44.74-8.34-3.15-14.39-12.38-21.48-18.83l-3.15,3.29Z"/><path d="M1479.36,1697.14a17.47,17.47,0,0,0,7.86,11.81c8.36,5.38,14.21,13.33,21.56,19.7,4,3.46,8.48,6.38,13.19,9.88-2.55,0-5.31.77-7.32-.13-10.45-4.68-21.92-7.75-30.39-17,.53,1.44.74,3.12,1.64,4.28,6.12,7.91,12.89,15.36,16.74,24.8,1.77,4.32,3.47,8.57,3.46,13.48,0,4.65,1,9.29,1.62,13.94-7.6-3.3-7.56-3.32-10.4-10.87a64.41,64.41,0,0,0-4.27-10.1c-1.91-3.25-4.6-6-6.9-9.06-5.52-7.25-11.18-14.36-16.31-21.93-3.3-4.87-7.81-9.57-15.55-8.84v-10c4.54-3.41,9.8-1.45,14.39-2,2,1.46,3.74,2.75,5.58,3.93a2.76,2.76,0,0,0-.3.28l1.39,1.62.63-.62a11.29,11.29,0,0,0-1.72-1.28c-.09-1.22.44-2.9-.17-3.82-3.73-5.63-3.86-11.83-4-18.28s.66-17,2.68-23.13c5-15.31,16.09-25.51,28.92-34.16,5.15-3.47,10.48-6.68,15.77-9.92.4-.24,1.2.18,2.28.38l-2.16,10.43c3.26,2.57,8.32-1.38,10.09,5.86,0,.7,1.33,3.74-2.39,6.57l8,.84c3.53,4.49,7.1,9,2.57,15.06.8,4,1.41,8,2.47,11.91.75,2.73,7.71,9.92,10.25,12.58,7.4,7.76,17.41,12.61,23.75,21.5,2,2.77,3.87,5.59,6,8.68-5.64,3.37-13.43.56-16.63,7.53l-2,2-2,2c-5.71,2.07-4.26,7.76-5.9,11.86-.43,1.06-.07,2.45-.07,4-8.19.43-14.28-2.82-20.39-6.74l7.7-15.54c-7.08,3-7.51,10.09-12.57,12.41-6.49.74-9.23-5.82-14.6-6.71l12.88-24.6c-6,.92-6.13,5.9-8.87,8.54-3.07,3-6,6-9.25,9.22-4.68-1.6-4.73-6.27-6.91-9.4-2.49-3.58-4.2-7-3.73-10.14,4.79-6.84,9-12.75,13.07-18.73a5,5,0,0,0,.5-3.57c-5,5.41-8.49,12.35-17.45,13.87.91-7.79-3.48-14.57-2.11-22.19l.29.3,1.62-1.38-.63-.63a11.38,11.38,0,0,0-1.28,1.71c-2.56.11-1.85,2.14-1.86,3.57,0,9.12,0,18.24,0,26.71l2.55,4.8c-1.46.36-2.67,1.06-3.15.72-2.55-1.82-4.92-3.9-8.13-5.86-.2,0,.38,0,1-.06-.25-1.3-.51-2.59-.76-3.89l-1.29.16A7,7,0,0,0,1479.36,1697.14Zm1,19.64-.39.39,1.38,1.63.63-.63a3.17,3.17,0,0,0-2-1l.38-.39-1.38-1.62-.63.62A3.07,3.07,0,0,0,1480.32,1716.78Z"/><path d="M1561.64,1721c3.86.28,7-3.31,11-2.08,2.8-3.48,5.26-1.4,8.36-.06,5.67,2.45,5.83,2.08,8.08,8,.12-2.71.3-5.41.36-8.12.06-3,0-5.9,0-8.68l-4.07-4.07,5.56-4,7.23,2.28-4.57,6.19v10.77c8.22-3.7,16.57-1.6,24.88-2.3-.21-4.11,5.79-5.23,4.77-9.83,1.51.3,3.81-1,4,2-3.82.45-.94,3.87-2.4,5.37l-4,1.44c1.16,2.44,2.23,4.7,3.38,7.1l4.42-4.43,6.32,2.33v7c-1.65,3.27-4.37,3.09-7,3.28-.14,0-.22.86-.33,1.33l5.49,1v5.34c-5.35,3.59-4.61,9.94-5.65,14.9-2.86,13.5-9.29,23.89-21.55,30.94-3.67-1-8.07,1.61-11.92-2-1-1-4.52-.86-5.62.14-3.28,3-6.83,1-9.73,1.71-3.9-2.39-7.49-4.29-10.73-6.65-7.66-5.57-9.38-14.54-12.22-22.73-1.32-3.8-1.62-8-2.06-12.06-.77-7.1,3.07-13.38,3.94-20.21l2-2Zm37.77,8c-2,.76-5-1.84-5.62,2.91l-10.11-4.61-.2,2.75c3.32.55,5.85,4.85,10,.94,2-.76,5,1.84,5.76-2.17l.38.39,1.63-1.39-.63-.62A5.85,5.85,0,0,0,1599.41,1728.92Zm-5.62-2.35,1.7-.11-.72-3.32-1,.13Z"/><path d="M1591.37,1671.37c-.13,3.3,2,5.74,3.61,8.37s3.27,5.21,5,8l-6,12.39c-4.1-3.48-8-6-9.53-12.66-.46,5.25.23,7.91,2.72,12.63l-4.26,5,4.79,10.8c-5.82,1.14-7.1.82-8.14-3-2.41-8.93-7.51-15.22-15.37-20.47-8.3-5.55-15.28-13.07-23.29-20.13,1.11-2.57,2.08-4.82,3-6.83h9.26c.27-1.75.55-3.53.9-5.75l6.74-4,2.09,1.65,2.94-9.06,7.56-3.6c.07-1.35.18-3.54.32-6.42l5.74-4.57,4.15-.46v-11.29c1.34-.15,2.3-.52,2.55-.25,7.81,8.68,18.72,13.72,26.53,22.28,11,12,17.91,26,16.4,42.77a51.66,51.66,0,0,1-4.62,15.91c-1,2.29-.88,4.31-1.18,6.47l-7.64,7.29-14.57-2c8.44-3.84,15-8.87,18.23-17.21,4.14-1.46,4.86-5.28,5.93-8.77.81-2.63,1.27-5.36,1.91-8.14-2.14-2.29-5.3-2-8.05-2s-5.75.91-9.37,1.56c-.13-3.58-.11-6.75-.44-9.88-.1-.9-1.24-1.69-2.68-2.51-.2,0,.38,0,1-.06l-.76-3.89-1.29.17a7,7,0,0,0,1.1,3.78,79.41,79.41,0,0,1,.78,13.7l-4.34.25c-3.87-3.35-7.72-6.68-11.66-9.9a2.76,2.76,0,0,0,.3-.28l-1.39-1.63-.62.63A10.74,10.74,0,0,0,1591.37,1671.37Z"/><path d="M1446.34,1721l8.65-1.59,5.38,2,.2-.41a5.14,5.14,0,0,1,1.58.94c6,7.42,12.18,14.74,17.92,22.37a179.9,179.9,0,0,1,10.82,16.35,47.82,47.82,0,0,1,7.21,25.82c0,1.74.85,3.51,1.39,5.56-2.46,2.19-4.65-.7-7.22-1.41a47.43,47.43,0,0,1-21.69-12.45,172.12,172.12,0,0,1-22.46-28.44c-2.2-3.44-5.28-6.32-7.74-9.21a70.63,70.63,0,0,1,.07-8.43,52.19,52.19,0,0,1,1.91-7.13l2-2Z"/><path d="M1537.89,1746.9c3.53,2.17,7.17,4.43,11.21,6.93,1,1.51,2.4,3.56,4.53,6.72-.18,4.33,1.18,10.09-2.21,14.94l-6.81,4.75c-2.85-2.47-5.36,1.34-8.38.55s-6.57.1-9.82-.27c-3-.34-6-1.38-9.7-2.29l-6.76-7.62c0-.6.11-2.55,0-4.47-.34-5.28,2.29-9.17,6-12.3,3.09-2.6,6.59-4.7,10-7.13a2.76,2.76,0,0,0-.3.28l1.39,1.63.62-.63a11.38,11.38,0,0,0-1.71-1.28c-.09-.87-.09-1.84-.09-2.82l11.93-1.2c0,1.71,0,2.92.1,4.21a2.76,2.76,0,0,0-.28-.3L1536,1748l.63.63A12,12,0,0,0,1537.89,1746.9Zm1.7,6.08.39-.38-1.38-1.63-.63.63a3.17,3.17,0,0,0,2,1l-.38.39,1.38,1.62.63-.63A3.17,3.17,0,0,0,1539.59,1753Zm-15.06,13.71h.67v-2h-.67Zm15.24-.66v-.66h-2v.66Zm-13.25,12.59h.66v-2h-.66Zm10.6-2h-.66v2h.66Z"/><path d="M1529.83,1638.63v-7l-4.31-3.13c18-6.77,31.87-6.87,52.2,2.16l-5.76,4.12a16.16,16.16,0,0,0-2,3.38,20.1,20.1,0,0,0-.66,4.59c-4.43,1.79-8.34,3.87-7.62,10.12l-8,.87c-1.44,2.72-3,5.69-4.89,9.2H1540v-16.69Z"/><path d="M1442.36,1724.94h-9.17l-1.22-3.65h-4.66l-1.37-4-4.36,2.26-1.72-4.22-5-.55v-6.85l5.08-2.61,2,3.73h5.53l1.85,4a30,30,0,0,0,3.16-.11,3.75,3.75,0,0,0-.29.29l1.38,1.62.63-.63a11,11,0,0,0-1.72-1.28,33,33,0,0,1-1.89-3l2.11-2.47H1427c-.32-2.08-.59-3.86-.86-5.66l-3.89-1.59,1.49-6.63-1.39-1.62,7.81-3.28c-1.76,4.41.47,7.3.87,10.44h3.34v6c2.32,0,4.14,0,6.06-.1l-.3.28,1.38,1.63.63-.63a11.38,11.38,0,0,0-1.71-1.28,10.87,10.87,0,0,1-2.19-7.5c0-.75-1.22-1.56-1.88-2.34l2-6h7.95v4c-.76.94-1.51,1.89-3.17,4h5.16v2l-2,1.5,2,2.48,2,2-1.89,3.26c.77,3,1.59,6.24,2.33,9.13l-4.42,3.52-2,2h-2l-2-2c-.17-3-2.47-1.69-4.07-1.89a2.76,2.76,0,0,0,.3-.28l-1.39-1.62-.62.62a10.74,10.74,0,0,0,1.71,1.28c.26,2.87,2.56,1.59,4.07,1.89l2,2Zm3.64-10V1709l-5.8.37Z"/><path d="M1627.25,1711l4.69-3.45-2.62-3.72c.73-2.34,1.55-5,2.65-8.5,1.09-1.1,4.12-.64,8.51,2.12l-1.89,9-2.65,1c.61,3,1.21,5.94,2.08,10.23.6-1.85,1-2.68,1.13-3.55s.22-1.84.35-3h6.86l2.75,2.75v5l-5.59,5.34,3.64,1.35c-1,3.15-1.94,6.21-2.88,9.21h-5.11c-2.88-3.58-1.92-7.61-1.87-11.42l4-1.31-3.27-3.27h-10.83Z"/><path d="M1649.11,1719l4.94-4.82c-.34-3-.77-6.73-1.24-10.84h7.81c.25,1.66.53,3.46.91,5.89l4.88-4.29c4.36,3.22,4.36,3.22,4.41,9.67h-7l-1.93-4-4.18,2.56c.63,3.1,1.15,5.74,1.74,8.68l-4.86,3.75c3.24,2.07,2.33,4.84,2.44,7.33a16.48,16.48,0,0,0-2,1.52c-.73.75-1.34,1.63-2,2.45-.4-4.15-4.77-.35-6.09-3.32,1.17-3.07,2.43-6.41,3.54-9.33Z"/><path d="M1657.07,1732.9c3.77-.46,1-3.8,2.62-5.65l2.82-.56a29.77,29.77,0,0,1-1.41-4.5,32.21,32.21,0,0,1-.06-5h7.53v7.23l-3.16,2.6c.81,2.7,1.41,4.72,1.94,6.47l-4,4c2.4,4.09,3.14,8.06-2,11.63l-5.26-4-10.95,2.11v-6.46c1-1.32,2.07-2.63,3.13-4h4.82l1.93,2.65,4.76-1.65Z"/><path d="M1448.33,1695.12l5.48,1.4.69-2.26-4.16-2v-4.13l-4.4-2.08,1.86-4.1-4.1-4.73,5.21-5.64,5.49,2.58-1.34,6.56,3.55,1.39-2,4.31,4,4.25-2.2,3.82,4.09,1.51c-1,2.37-2,4.71-3.08,7.12l-3.15-2.58v6.52l-4-2-2-2v-4l1.65-.65-1.65-1.34Z"/><path d="M1619.29,1697.11c-4.37-.44-7.52,2.73-10.93,4.42s-5.83,1.47-9.06,1.18l2.1-3.61,2-2c3.08.32,5.18-.83,6-4l2-2,2-2c3.08.32,5.18-.84,6-4l2-2c2.38.09,2.24,1.66,1.73,3.2C1621.84,1690,1620.54,1693.54,1619.29,1697.11Z"/><path d="M1601.4,1699.1h-3.83l6.4-13.16,9-4.59c2.06,1,5.83-2.16,8.28,1.85l-2,2c-3.08-.31-5.18.84-6,4l-2,2-2,2c-3.08-.32-5.18.83-6,4Z"/><path d="M1437.17,1688.58l-6.82-4.7,2.62-6.2a5,5,0,0,1,6.67,1.83c.83,1.16,1.31,2.61,2.26,3.63.64.69,1.84.85,5,2.17Z"/><path d="M1674.67,1729.16c.66.88,1,1.37,1.73,2.32l-2.1,5.18h-4.92v-5.34l3.74-3.1c-2.94-5.21-2.92-5.21,2.12-9.69l3.41,3.07Z"/><path d="M1645.14,1740.85c-3.69.47-1.2,3.56-2.44,5.57h-7.77l-1.72-5.57a14.54,14.54,0,0,0,2-1.49c1.38-1.45,2.67-3,4-4.48a14.64,14.64,0,0,0,1.49,2C1642.11,1738.23,1643.64,1739.52,1645.14,1740.85Z"/><path d="M1648.24,1708.85h-6.65c-.48-3.62-1.76-7.19,2.87-9.56h6.08C1651.52,1703,1652,1706.39,1648.24,1708.85Z"/><path d="M1667.47,1746.51c-1.62-4.15.65-6,4.23-9,1.3,1.84,2.33,3.32,3.38,4.82C1674.05,1746.09,1671.71,1747.53,1667.47,1746.51Z"/><path d="M1680.49,1711.59l-2.11,5.09h-4.71c-1.81-1.71-1.05-3.78,3.45-7.84.68.48,1.43,1,2.12,1.52C1679.73,1710.76,1680.15,1711.26,1680.49,1711.59Z"/><path d="M1688.81,1718.05l-2.71,2.71h-4.89v-5C1684.4,1713.5,1686.71,1715.39,1688.81,1718.05Z"/><path d="M1677.07,1726.72l5.56-4.61,4,3.42-2.64,5.4Z"/><path d="M1682.75,1739.19v5.3h-5.46c-.11-1.37-.26-3.14-.45-5.3Z"/><path d="M1685.8,1736.68h-6.46v-5.77c1.19,0,2.9-.49,3.46.1C1684,1732.24,1684.48,1734,1685.8,1736.68Z"/><path d="M1691.85,1739.2l-6.21,4.59c-.39-2-.61-3.07-.92-4.59Z"/><path d="M1692.35,1725.44l-3.73-3.73,3.73-2.53Z"/><path d="M1686.91,1733.07h3.54c.2,1,.37,1.89.56,2.92C1688.38,1737.53,1686.73,1737.5,1686.91,1733.07Z"/><path d="M1434.41,1699.1c-.73-1.71-1.45-3.43-2.69-6.33l4.68,2.35C1436.1,1696.63,1437.39,1698.93,1434.41,1699.1Z"/><path d="M1689.4,1731.4c-.32-1.67-.48-2.55-.73-3.86l5.64-1.19Z"/><path d="M1446.34,1693.14l2,2Z"/><path d="M1800.93,1006l7,9.18c-22.83,18-48,29.31-77.73,25.51-37.87-4.82-54.87-44.76-33.22-78.28,4.74-7.33,12.12-13,18.36-19.31,1.78-1.82,3.8-3.42,5.71-5.12q8.17-5.34,16.37-10.66c2.61-1.08,5.12-2.53,7.82-3.16,9-2.07,17.91-4.23,27-5.41,1.94-.24,4.39,3.54,6.61,5.47L1760.53,949c-8.32,6.73-16.67,13.43-25,20.2-3.86,3.15-7.92,6.13-11.34,9.71-7.23,7.56-8.61,14.95-4.69,22.94,4.22,8.62,12,10.39,20.58,10.1,11.12-.38,20.93-4.71,29.86-11.09,6.17-4.4,12.19-9,18.27-13.53Z"/><path d="M1737.46,927.29q-8.19,5.33-16.37,10.66c-2.94-.56-6.24-.44-8.75-1.8-21-11.31-26.78-29.8-23.94-52.53,5.28,1.47,8.2.14,5.84-6.71l-4.75,2.52a9.5,9.5,0,0,1-.36-2.44c2.86-18.7,16-28.08,32.25-33.17,31.81-10,60.1.2,86.69,17.45.7.45.81,1.83,1.2,2.77q-5.41,9-10.81,18l-3.6,5.58c-20.07-11.83-41-17.83-63.87-14.16-8.17,1.31-15.28,4.67-17.61,13.63s2.21,15.44,8.95,20.3c7.22,5.19,15,9.67,22.64,14.57Z"/><path d="M1798.46,882q5.4-9,10.81-18c11.49-2.93,20.15,4.74,18.77,17.18-.75,6.68-2.6,13.24-4,19.86q-1.75,6.28-3.49,12.57l-20.64,39-14.11,11.63c-11.78,4.4-23.14,5.79-32.9-4.16l7.58-11.09,18.35-24.84Z"/><path d="M1820.6,913.65q1.74-6.28,3.49-12.57,3.33-8.67,6.67-17.34c25.41,29.3,25,77.22-1.2,107.2l-5.49-4.86q-5.41-9.58-10.82-19.2c-2.63-3.69-1.14-6.62.64-10.44a69.19,69.19,0,0,0,5.54-19.09C1820.54,929.56,1820.27,921.56,1820.6,913.65Z"/><path d="M1813.25,966.88q5.41,9.61,10.82,19.2c1.13,2.33,2.37,4.61,3.37,7,3,7.13,1.13,14.12-4.64,18-6.36,4.24-12,3.48-18.18-2.34a36.71,36.71,0,0,0-3.69-2.74l-12.69-18.61-10.35-17.46,8-5.62q7.07-5.81,14.11-11.63c1.82,1.41,3.91,2.59,5.42,4.28C1808.18,960.09,1810.64,963.55,1813.25,966.88Z"/><path d="M1709.12,1942.65H290.88c-128.77,0-233.53-104.76-233.53-233.53V290.88c0-128.77,104.76-233.53,233.53-233.53H1709.12c128.77,0,233.53,104.76,233.53,233.53V1709.12C1942.65,1837.89,1837.89,1942.65,1709.12,1942.65ZM290.88,86.57c-112.66,0-204.31,91.65-204.31,204.31V1709.12c0,112.66,91.65,204.31,204.31,204.31H1709.12c112.66,0,204.31-91.65,204.31-204.31V290.88c0-112.66-91.65-204.31-204.31-204.31Z"/></svg>

