<?xml version="1.0" encoding="utf-8"?>
<!-- Generator: Adobe Illustrator 28.2.0, SVG Export Plug-In . SVG Version: 6.00 Build 0)  -->
<svg version="1.1" xmlns="http://www.w3.org/2000/svg" xmlns:xlink="http://www.w3.org/1999/xlink" x="0px" y="0px"
	 viewBox="0 0 720 352.8" style="enable-background:new 0 0 720 352.8;" xml:space="preserve" width="500" height="500">
<path d="M25.4,8.8c-0.1-1.6,1.7-1.8,3-1.9C33.6,6.6,38.8,6.6,44,7.4c1.2,0.2,2.8,0.7,2.5,2.1c-0.3,1.4-1.9,1.2-3.1,0.9
	c-2.4-0.7-3,0.1-2.8,2.5c0.3,2.7,0.1,5.4,0.1,8.1c0,0,0,0,0.1,0c0.4,11.2,0.9,22.4,1.3,33.6c0.1,1.9,0.7,2.7,2.7,2.6
	c1.7,0,4.5-0.5,4.6,1.7c0.1,2.3-2.8,2.1-4.6,2.2c-3.8,0.2-7.6,0.5-11.3,1.6c-0.7,0.2-1.4,0.3-2.1,0.2c-1.1-0.1-2.3-0.5-2.5-1.8
	c-0.2-1.2,0.9-2,1.8-2.1c3.7-0.5,3.8-2.7,3.5-5.7c-1.2-13.3-1.7-26.7-1.3-40.1c0.1-2.5-0.8-3.3-3.2-2.6c-0.3,0.1-0.6,0.1-0.9,0.1
	C27.3,10.5,25.5,10.6,25.4,8.8z M58,63.1c0.5,4,2.3,5.4,5.6,5.2c2.7-0.2,3.4-1.3,3.1-5.6c-0.4-6.1-1-12.1-1.5-18.2
	c-0.1-1.4-0.7-3.3,1.6-3.5c2.3-0.2,4.6-0.9,6.9-0.5c1.4,0.3,3.2,0.6,3.5-1.2c0.4-1.8-1.5-2.4-2.9-2.8c-2.3-0.7-4.6-0.4-6.9-0.1
	c-1.5,0.2-2.8,0.1-3-1.9c-0.7-6.5-1.4-13.1-1.7-19.7c-0.1-2.1,0.9-2.7,2.8-3c5.1-0.8,10.1-1.8,15.2-2.8C81.7,8.6,83,8.3,83,6.9
	c0-1.4-1.2-1.7-2.3-2c-2.9-0.7-5.8-0.6-8.7-0.2c-3.9,0.5-7.7,1.4-11.7,1.5c-5.5,0.1-6.8,1.4-6.9,6.8c0,0.8,0,1.6,0,2.4
	c0,0-0.1,0-0.1,0c0.4,5.4,0.8,10.7,1.4,16.1C55.7,42,56.8,52.6,58,63.1z M121.3,41.5c5.2-5.2,9.1-11.4,12.8-17.8
	c0.6,8,0,15.9-1.6,23.7c-1,4.7-2.4,9.3-5.5,13.2c-2.5,3.2-3.8,3.2-7,0.9c-1.9-1.4-4.1-1.8-5.8-0.1c-1.6,1.5-0.3,3.4,0.7,4.9
	c1,1.5,2.5,2.2,4.3,2.6c6.2,1.5,13.4-1.2,17-6.5c2.5-3.6,3.7-7.7,4.5-12c1.8-9.8,1.8-19.7,1.1-29.6c-0.2-2.8-0.7-5.6-1.2-8.3
	c-0.4-2-1.7-3.4-3.8-3.7c-2.2-0.3-3,1.3-3.7,2.9c-1.3,2.9-2.7,5.8-4,8.7c-3,6.6-6.3,13-11.7,18c-1.8,1.7-2.6,1.3-3.1-1
	c-1-5-1.5-10.1-1.5-15.2c0-3.3-0.2-6.6-0.4-9.9c-0.1-1.9-1.3-2.9-3.2-3c-2-0.1-2.5,1.2-2.6,2.9c-0.2,2.9-0.7,5.7-0.9,8.6
	c-0.4,5.8,0,11.6,1.6,17.2C109.3,45.9,115.5,47.3,121.3,41.5z M153.1,53.4c-5.7-10.8-6.4-30.1,2.9-41.7c6.1-7.7,16.8-6.9,21.6,1.7
	c3.5,6.2,4.4,13,4.4,21.3c-0.2,6-1.4,13.1-5.7,19.4C170,63.3,158.3,63.1,153.1,53.4z M161.7,52c2.7,4,4.7,4.1,7.4,0.1
	c4.1-6.2,5.3-13.1,5.3-21.8c0.3-3.6-0.9-8.4-2.9-13c-0.6-1.4-1.4-2.7-2.3-3.8c-2.1-2.7-4.3-2.6-6.5,0.1c-0.7,0.9-1.2,1.9-1.7,2.8
	c-2.5,4.8-3.5,10-3.7,15.3C157,38.7,157.5,45.7,161.7,52z M214.1,55.5c0.9,2.4,2.5,4.1,5.4,3.9c1.9-0.1,3.2-0.9,2.1-3.1
	c-0.7-1.5-1-3-1.2-4.6c-1.6-12.2-1.9-24.5-1.8-36.8c0-2.1-0.1-4.2-0.3-6.3c-0.2-2.4-1.7-3.9-4.2-3.9c-2.4,0-2.6,2-3,3.8
	c-2.7,11.8-5.2,23.6-9.6,34.9c-0.8,1.9-1.5,3.9-3.4,5.9c-1.2-4.4-1.7-8.4-1.8-12.4c-0.1-7.8-0.3-15.6,0.4-23.3
	c0.3-2.9-1.1-4.4-3.8-4.8c-2.7-0.3-3.8,1.1-4.3,3.5c-0.8,3.6-1.1,7.3-1.4,11c-0.6,9-0.9,18,2,26.7c1.3,3.8,3.7,6.5,7.9,6.8
	c4.3,0.3,6.6-2.3,8.3-5.7c2.6-5.2,3.9-10.8,5.6-17c0.3,3.2,0.3,5.7,0.7,8.2C212.3,46.7,212.4,51.2,214.1,55.5z M252.3,57.4
	c4,8.4,15,12.4,21.7,7.6c6.8-4.8,8-12.3,8.9-19.8c0.1-1.1-0.6-1.9-1.7-2.2c-1.2-0.3-2.3,0-2.8,1.2c-0.5,1.1-0.9,2.2-1.2,3.4
	c-1,3.5-2,6.9-4.2,9.9c-1.7,2.3-3.5,5-6.9,4.7c-3.5-0.3-5-3.3-6.1-6.1c-4.5-11.3-5.2-23-2.5-34.7c2.1-8.8,8.2-12.3,17.1-10.8
	c0.8,0.1,1.7,0.5,2.2-0.4c0.5-1.1-0.4-1.7-1.1-2.2c-2.5-1.9-5.5-2.4-7.8-2.5c-9.3,0.1-15.8,4.6-18.7,12.7c-2.5,7-2.5,14.3-1.7,21.6
	C248.4,45.9,249.7,51.8,252.3,57.4z M287.9,65.5c0.9-13.3,2.9-26.3,6.3-39.2c1.8-6.9,4.2-13.5,7.2-20c1.3-2.7,3-4.5,6.3-4.2
	c3.3,0.3,5.8,1.9,6.8,5.1c1,3.5,1.9,7.2,2.5,10.8c2.2,13.9,3.4,27.9,5,41.9c0.1,0.7,0.2,1.4,0.3,2.1c0.2,1.4,1.6,3-0.4,4
	c-2,1-4.1,0.8-5.9-0.8c-0.9-0.8-1.3-1.8-1.5-2.9c-0.5-2.4-1.2-4.9-1.5-7.3c-0.3-2.7-1.3-4.1-4.3-3.4c-3.7,0.5-7.4,0.6-11.1,0.5
	c-2.2,0-3.3,1-3.7,3.1c-0.5,2.9-1.2,5.9-1.8,8.8c-0.2,0.8-0.3,1.6-0.6,2.3c-0.4,1-0.9,1.9-2.2,1.6C288,67.5,287.8,66.6,287.9,65.5z
	 M296.8,47.8c4.2-0.3,8.5,0,12.7-0.6c1.7-0.2,2.2-0.8,2-2.5c-0.5-4-0.9-7.9-1.4-11.9c-0.8-6.7-1.7-13.4-2.6-20.1
	c-6,10.7-9.1,22.3-11.8,33.9C295.5,47.7,295.9,47.8,296.8,47.8z M327.7,26.5c-0.1,10.6,0.5,21.1,1.8,31.7c0.2,1.8,0.4,3.8,3,3.7
	c2.5-0.1,2.5-2.2,2.7-4c0.1-0.9,0-1.8,0-2.7c0-9.3,0-18.6,0-27.9c0-1-0.4-2.2,0.5-3.1c0.9,0.1,1.1,0.9,1.4,1.5
	c1.8,3.4,3.6,6.9,5.5,10.4c4.1,7.6,8.1,15.2,13.1,22.2c1.6,2.2,3.6,3.4,6.4,3.5c3.4,0.2,4.8-1.2,5.3-4.6c0.6-5,0-10,0.2-15
	c0.4-12.7,0.5-25.4-0.3-38c-0.2-2.7-1.7-4.2-4.1-4.1c-2.8,0.1-2.7,2.1-2.7,4.1c-0.4,10.2-0.8,20.3-1.3,30.5
	c-0.1,3.3-0.4,6.5-0.6,10.6c-1.7-2.9-3-5.1-4.3-7.2c-4.9-8.5-8.9-17.5-14.5-25.6c-1.8-2.6-4.3-3.9-7.4-4.1c-3.3-0.3-4.6,1-4.6,4.3
	C327.7,17.3,327.8,21.9,327.7,26.5z M394.6,54.4c-0.2-11.9-0.7-23.7-0.5-35.6c0.1-2.4,0.1-4.8,0.2-7.2c0-1.8,0.9-2.7,2.6-3.5
	c4.5-2,8.9-3.6,13.9-2.9c14.3,2.1,20.4,14.8,12.9,27c-3.1,5.1-7.2,9.4-11.9,13c-0.8,0.6-1.8,1-2.2,2.6c3.1,0,5.9,0,8.7,0
	c1.2,0,2.4-0.1,3.6,0.4c1.2,0.5,2.3,1.1,2.3,2.5c0,1.5-1.4,1.8-2.6,2c-5.1,1.1-10.3,0.4-15.3-0.3c-2.3-0.3-3.5,0-3.4,2.6
	c0,0.8-0.3,1.6-0.4,2.3c-0.2,1.9-1.3,2.9-3.2,3c-1.8,0-3.4-0.6-4-2.5C395,56.8,394.6,55.6,394.6,54.4z M400.7,13.6
	c0.7,8.2,1.3,16.5,2.1,24.7c0.2,1.6-0.7,4.1,0.9,4.6c1.5,0.5,2.7-1.7,4-2.7c5.2-3.8,9.5-8.5,12.2-14.2c4.5-9.6-0.1-16.2-11.1-16.3
	c-1.8,0.1-4,0.5-6.2,1C401.1,11.1,400.6,12.1,400.7,13.6z M464.2,61.8c-1-2.5-3.5-1.1-5.3-0.3c-3.9,1.7-7.9,2.4-12.1,2.4
	c-2.2,0-3.4-0.9-3.7-3.1c-0.5-4.1-1-8.1-1.6-12.2c-0.2-1.7,0.6-2.4,2.2-2.5c2.8-0.2,5.6-0.8,8.2-1.8c1.2-0.5,2.8-1,2.2-2.6
	c-0.4-1.3-1.9-1.2-3.2-1c-2.5,0.4-5,0.6-7.5,1.1c-2,0.4-2.8-0.5-2.8-2.4c-0.1-9.5,0.3-19,1.2-28.4c0.3-2.8,1.8-3.9,4.6-4
	c2.8,0,5.6-0.4,8.4-0.7c0.7-0.1,1.8-0.4,1.7-1.4c0-0.7-0.9-1.1-1.5-1.3c-3-1-6.1-1.1-9-1c-0.8,0-1.3,0-1.8,0
	c-8.3,0.1-10.5,1.7-11.4,9.9c-1.8,16.1-1.9,32.3,1.1,48.4c1,5.4,3.3,7.5,9,7.9c6.2,0.4,12-0.9,17.6-3.4
	C462.5,64.6,465.1,63.8,464.2,61.8z M466.4,65.5c0.9-13.3,2.9-26.3,6.3-39.2c1.8-6.9,4.2-13.5,7.2-20c1.3-2.7,3-4.5,6.3-4.2
	c3.3,0.3,5.8,1.9,6.8,5.1c1,3.5,1.9,7.2,2.5,10.8c2.2,13.9,3.4,27.9,5,41.9c0.1,0.7,0.2,1.4,0.4,2.1c0.2,1.4,1.6,3-0.4,4
	c-2,1-4.1,0.8-5.9-0.8c-0.9-0.8-1.3-1.8-1.5-2.9c-0.5-2.4-1.2-4.9-1.5-7.3c-0.3-2.7-1.3-4.1-4.3-3.4c-3.7,0.5-7.4,0.6-11.1,0.5
	c-2.2,0-3.3,1-3.7,3.1c-0.5,2.9-1.2,5.9-1.8,8.8c-0.2,0.8-0.3,1.6-0.6,2.3c-0.4,1-0.9,1.9-2.2,1.6C466.6,67.5,466.3,66.6,466.4,65.5
	z M475.3,47.8c4.2-0.3,8.5,0,12.7-0.6c1.7-0.2,2.2-0.8,2-2.5c-0.5-4-0.9-7.9-1.4-11.9c-0.8-6.7-1.7-13.4-2.6-20.1
	c-6,10.7-9.1,22.3-11.8,33.9C474,47.7,474.5,47.8,475.3,47.8z M532.7,15.8c10.9,13.1,10,30.4-2.3,43.7c-2.9,3.2-6,6.3-9.3,9
	c-4.9,4-10,2.2-11.3-3.9c-2.1-10-2.9-20.2-3.6-30.3c-0.3-5.1-1-10.2-0.8-15.3c0-1.8,0.2-3.6,0-5.4c-0.7-5.2,2.8-6.9,7.1-7.2
	C520.9,5.7,527.5,9.5,532.7,15.8z M525.6,16.1c-2.6-2.9-5.7-5.3-10-5.5c-2.6-0.1-3.3,0.8-3.1,3.3c0.7,7.1,1.1,14.1,1.7,21.2
	c0.8,9.3,1.3,18.7,2.7,28.8c5.3-5.3,9.7-10.4,12.8-16.5C534.8,37.1,533.3,24.6,525.6,16.1z M567,10c1.1,0.8,2.3,1.2,3.6,1.3
	c1.4,0.1,2.8,0.1,4.2,0.1c2,0,3,0.9,2.7,3c-0.9,7.2-0.2,14.4-0.5,19c0,8.7,0,14.8,0,20.8c0,1.7,0.2,3.4,0.8,5c0.9,2.3,3.6,3.5,6,2.9
	c2.7-0.6,2-2.5,1.9-4.3c-0.1-0.9-0.1-1.8,0-2.7c0.1-7.4,0.3-14.8,0.4-22.2c0.1-6.2,0.1-12.4,0.1-18.6c0-1.7,0.7-2.6,2.6-2.4
	c2.5,0.3,5,0.5,7.5,0.7c1.5,0.2,3.3,0.8,3.9-1.1c0.5-1.8-0.9-3-2.3-3.9c-1.2-0.8-2.7-1-4-1.2c-3.5-0.5-7-1-10.5-1.2
	c-5-0.4-10.1-0.3-15.1,0c-1.1,0.1-2.3,0.3-2.7,1.6C565.2,8.3,566.1,9.2,567,10z M633.1,56.5c0.2,2.1,0.6,4.2,2.6,5.4
	c1.3,0.8,2.7,0.8,4,0c1.3-0.7,0.8-1.8,0.8-2.9c-0.3-7.3-0.9-14.6-0.9-21.9c0-8.8-0.4-17.6-0.6-26.4c-0.1-2.6-1.3-4.2-4-4.3
	c-2.7-0.1-2.7,2.2-3.1,4c-0.2,0.9-0.1,1.8-0.1,2.7c0,4.9,0,9.8,0,14.7c0.1,0,0.2,0,0.2,0c0,5.3-0.1,10.6,0,15.9
	c0,1.7-0.5,2.5-2.1,2.6c-4.6,0.2-9.3,0.5-13.9,0.7c-1.7,0.1-2.3-0.7-2.4-2.3c-0.4-6.2-0.7-12.4-1.3-18.5c-0.5-5.8-0.6-11.6-0.5-17.4
	c0-2.5-1.4-3.6-3.7-3.9c-2.4-0.3-3.2,1.1-3.4,3.2c-0.1,1.4-0.3,2.8-0.4,4.2c-0.5,13.2,0.7,26.4,2,39.5c0.3,3.5,0.6,7,1.8,10.3
	c0.7,2.1,3.3,3.4,5.4,2.7c2.3-0.7,1.9-2.4,1.6-4.2c-0.3-2-0.4-4-0.7-5.9c-0.3-2.2,0.3-3.4,2.9-3.3c3,0.1,6,0,9.1-0.4
	C632.6,50.2,632.6,50.3,633.1,56.5z M647,10.6c0.3,0,0.6,0,0.9-0.1c2.4-0.7,3.3,0.1,3.2,2.6c-0.4,13.4,0.1,26.8,1.3,40.1
	c0.3,3,0.2,5.2-3.5,5.7c-0.9,0.1-2,0.9-1.8,2.1c0.2,1.3,1.4,1.6,2.5,1.8c0.7,0.1,1.4,0,2.1-0.2c3.7-1.1,7.5-1.4,11.3-1.6
	c1.8-0.1,4.7,0.1,4.6-2.2c-0.1-2.1-2.8-1.7-4.6-1.7c-2,0-2.6-0.7-2.7-2.6c-0.4-11.2-0.8-22.4-1.3-33.6c0,0,0,0-0.1,0
	c0-2.7,0.2-5.4-0.1-8.1c-0.2-2.4,0.4-3.2,2.8-2.5c1.2,0.4,2.8,0.6,3.1-0.9c0.3-1.4-1.3-1.9-2.5-2.1c-5.2-0.9-10.5-0.9-15.7-0.5
	c-1.2,0.1-3.1,0.3-3,1.9C643.8,10.6,645.6,10.5,647,10.6z M685.4,47.1c0.7,1.7,1.3,3.3,0.8,5.2c-0.4,1.6-1.2,1.9-2.6,1.2
	c-1.7-0.9-3-2.3-4.2-3.8c-1.2-1.6-2.8-1.4-4.4-0.7c-1.4,0.6-2,1.6-1.6,3.2c0.8,3.3,6.2,7.5,10,7.9c5.1,0.5,8.9-1.7,10.8-5.9
	c2-4.4,0.6-8.4-1.5-12.3c-2.3-4.2-5.4-8-8.5-11.6c-4.5-5.3-6.3-11.3-5.2-18.1c0.5-3.3,2.4-4.6,5.8-4.3c3.6,0.3,5.1,2.9,6.5,5.6
	c2.7,5.2,2.8,10.7,1.8,16.4c-0.1,0.8-0.5,1.7,0.3,2.2c0.9,0.6,1.8,0.1,2.5-0.4c1.1-0.7,1.6-1.7,2.2-2.8c1.2-2.4,0.9-5.1,1.1-7.7
	c0-5.4-0.9-9.1-3.2-12.6c-3.2-4.9-8.7-6.9-15.2-5.5c-6,1.3-9.8,5-10.7,10.7c-1.3,8,1.2,15,6.6,21C680,38.4,683.3,42.4,685.4,47.1z
	 M183.5,147.3c-3.9,9.6-9.3,17.8-18.4,23.4c-7.6,4.7-22.3,0.2-22-12.4h0c0-0.7,0-1.3,0-2c0-0.3,0-0.6,0-0.9c-1.8,3-3.8,6-6.4,8.5
	c-3.9,3.8-8.5,3.7-12.5-0.2c-1-1-2-2.1-3-3.1c-3.2-3.1-6.1-2.6-8.1,1.5c-1.8,3.7-2.3,7.8-3.2,11.8c-0.3,1.5-0.8,2.7-2.4,3
	c-1.8,0.4-3.7,0.6-5.1-1c-1.2-1.3-2.1-2.8-2.9-4.4c-2.3-4.9-4.3-9.8-5.8-14.9c-3.7,9.1-6.8,18.5-14.4,25.5c-6.8,6.2-14.4,4.7-18-3.8
	c-2.6-6.2-3.1-12.8-3.4-19.4c-0.1-2.2,0-4.3,0-6.5c-0.2-10.2,1.2-20.3,2.8-30.4c0.3-1.6,0.3-3.3,0.7-4.9c0.6-2.1-0.4-2.2-2.1-1.9
	c-5.7,1-11.5,2-17.2,2.9c-4.8,0.8-9.5,1.3-14.4,1.1c-4.2-0.2-8.2-1.1-11.4-4.1c-1.6-1.5-2.5-3.4-2.2-5.6c0.1-1.1,0.6-2.1,1.4-2.8
	c0.7-0.6,1.4-0.4,2.1,0.1c0.8,0.6,0.1,0.9-0.1,1.4c-1.5,3.4-0.6,5.3,3,6.5c3.1,1,6.3,1,9.5,0.7c10.8-0.9,21.3-3.6,31.9-5.3
	c1.3-0.2,1.6-1,1.9-2c1.1-3.7,2.2-7.4,3.8-10.9c0.7-1.5,1.6-2.3,3.3-2.2c2.1,0.1,3.1,1.2,2.7,3.3c-0.6,2.8-1.2,5.5-2,8.3
	c-0.5,1.7-0.1,2.2,1.8,2.1c5.7-0.4,11.5-0.7,17.2-0.6c1.8-7.2,5.2-13.6,10.4-18.9c4.2-4.4,9.1-7.3,15.6-5.4c7,2,10.6,7.1,11.9,13.9
	c1.7,9.2-0.5,17.7-4.5,25.9c-4.8,9.9-12.3,17.3-21.9,22.7c-1.7,1-2.1,1.9-1.6,3.7c1.6,6.3,3.2,12.6,5.9,18.6
	c0.3-3.9,1.1-7.6,2.9-11.1c3-6.1,9.6-6.9,14.1-1.8c1.2,1.3,2.1,2.8,3.3,4.1c2.8,3.1,4.8,3.2,8.1,0.8c3.5-2.5,5.8-6,8-9.6
	c0.3-0.5,0.6-1,0.9-1.5c0.8-4.8,2.4-9.3,5.8-13.2c3.2-3.8,7.2-6.2,12.5-5.9c6.2,0.4,8.5,4.3,5.6,9.7c-3.2,5.9-7.7,10.3-14.7,11.4
	c-0.8,0.1-1.5,0.2-1.5,1.2c-0.1,3.7-0.6,7.3,0.5,10.9c1.5,4.8,4.7,6.3,9.4,4.2c6.6-3,11.1-8.3,14.8-14.2c1.6-2.6,3-5.2,4.5-7.8
	c0.6-1,1.2-1.6,2.4-1.1C184.1,145.4,183.8,146.5,183.5,147.3z M151.8,150c6.3-1.2,9.7-5.2,12.1-10.3c0.7-1.4,2.1-3.6,0.4-4.8
	c-1.6-1.1-3.5,0.5-4.9,1.6C155.1,139.9,153,144.4,151.8,150z M92.5,152.8c-1.6-5.9-2.6-12-3.2-18.1c-0.6-7.5-0.9-15,0.3-22.4
	c-4.3,0.1-8.6,0.4-12.9,0.7c-0.1,0-0.2,0-0.3,0c-6.7,0.7-6.9,0.7-7.9,7.4c-1,6.8-1.6,13.8-2.4,20.6c-1,8.8-1.4,17.6-0.5,26.5
	c0.4,4.1,0.7,8.2,2.4,12c1.9,4,3.8,4.4,7.2,1.7c3.7-2.9,6.6-6.5,8.6-10.7c2.7-5.6,5.4-11.3,8.1-17C92.3,153.3,92.4,153,92.5,152.8z
	 M100.9,143.8c14.2-10.1,21.9-23.7,22.6-41c0.2-4.3-0.5-8.5-2.9-12.2c-1.8-2.8-4-3.5-7.1-2.2c-2.6,1-4.8,2.8-6.6,4.9
	c-3.9,4.7-6.5,9.8-8,15.3c4.7,0.5,9.1,2.1,13.5,3.6c0.8,0.3,1.4,0.9,1.8,1.7c0.5,1.2,0.3,2-1.3,1.8c-0.3,0-0.7-0.1-1-0.2
	c-4.6-1.7-9.3-2.5-14-2.9c-0.6,3.2-0.9,6.6-0.8,10c0.1,6.9,0.9,13.8,2.1,20.6C99.3,144.4,99.8,144.6,100.9,143.8z M247.9,137
	c-0.1,13.5-12.6,25.9-26.3,25.8c-1.6,0-1.5,0.8-1.6,1.8c-0.5,8.6,0.2,17.2,1.3,25.7c0.4,3.1,0.8,6.3,1.2,9.4
	c0.4,3.2-0.4,4.1-4.4,4.9c-2.4,0.5-3.3-0.1-4-3.2c-1.1-5.1-1.6-10.4-2.1-15.6c-1.6-17.6,1-35,3.6-52.3c0.3-2,2.2-3.3,4.1-3.1
	c1.1,0.1,1,1,1,1.7c0,2.3,0,4.7,0,7.6c2-2.9,3.5-5.4,5.5-7.5c1.8-1.9,3.8-3.5,6.2-4.7C240.2,123.5,248,128.3,247.9,137z
	 M242.8,134.8c0-0.2,0-0.9-0.1-1.5c-0.5-3.4-2.1-4.3-5.3-3.1c-2.3,0.9-4.3,2.3-6.1,4c-6.6,6.4-8.9,14.7-10.4,23.4
	c-0.4,2.3,0.6,2.1,2.1,1.8C233.3,157,242.6,145.7,242.8,134.8z M439.6,194c0,0.7-0.7,0.9-1.2,1.1c-2.7,1.1-5.6,1.3-8.5,1.2
	c-5.2-0.1-10.4-0.6-15.6-1.6c-1.9-0.4-2.8-0.1-3.3,2c-2,8.1-5.7,15.5-10.8,22.1c-12.2,15.7-30,18-45.7,5.7
	c-7.8-6.1-13.5-13.8-15.6-23.6c-1.9-8.6,2-17.1,9.3-20.5c0.8-0.4,1.5-0.6,2.3-0.9c-0.2-0.3-0.3-0.7-0.5-1
	c-2.6-6.2-3.1-12.8-3.4-19.4c-0.1-2.2,0-4.3,0-6.5c-0.1-4.6,0.2-9.2,0.6-13.7c-3.6,0.5-6.8-0.8-9.7-2.7c-4-2.6-4.9-2.7-8.2,0.8
	c-5.7,5.9-9,12.9-9.7,21.2c-0.4,4.4,0.2,8.6,0.5,13c0.2,3-0.4,4.1-2.4,4.4c-3.2,0.5-5.1-0.6-5.5-3.3c-0.7-4.7-1.1-9.3-1.4-14
	c-2.1,4.8-4.5,9.4-8.4,13.2c-5.7,5.7-12.3,5.9-18.3,0.4c-5-4.6-6.6-10.5-7-16.9c-0.1-1.5,0-2.9,0-4.4c-2.9,3.7-4.9,7.6-7.8,11
	c-4.4,5.2-7.6,6.4-12.1,4.5c-5-2.1-7.1-6.2-6.3-12.6c1-8,4.9-14.1,11.9-18.2c5.7-3.4,11.5-3.4,17.1,0.4c1.4,1,1.8,0.5,2.3-0.7
	c0.5-1.1,1.2-2.2,1.7-3.4c0.6-1.6,1.8-1.8,3.3-1.5c2.9,0.5,3.2,1,2.3,3.8c-3.3,10.2-4.4,20.5-1.6,31c0.6,2.1,1.5,4.1,2.9,5.8
	c1.4,1.8,3.1,2.2,5.1,0.9c3.6-2.2,6.3-5.3,8.5-8.8c2.5-4,4.4-8.3,6.5-12.4c0.2-9.3,1.4-18.6,3.9-27.8c0.6-2.4,2.3-1.9,3.7-1.6
	c1.6,0.3,2.8,0.9,2.4,3c-1,5.8-1.9,11.7-2,17.6c0,0.3,0,0.7,0,1.8c2.2-3.5,4.1-6.4,6.6-8.7c4.9-4.7,8.4-4.9,13.8-0.9
	c2.4,1.8,4.8,3.4,8.1,2.1c0.1,0,0.2,0,0.3-0.1c0.5-4.5,1.2-9.1,1.9-13.6c0.3-1.6,0.3-3.3,0.7-4.9c0.5-2.1-0.4-2.2-2.1-1.9
	c-5.7,1-11.5,2-17.2,2.9c-4.8,0.8-9.5,1.3-14.4,1.1c-4.2-0.2-8.2-1.1-11.4-4.1c-1.6-1.5-2.5-3.4-2.2-5.6c0.1-1.1,0.6-2.1,1.4-2.8
	c0.7-0.6,1.4-0.4,2.1,0.1c0.8,0.6,0.1,0.9-0.1,1.4c-1.5,3.4-0.6,5.3,3,6.5c3.1,1,6.3,1,9.5,0.7c10.8-0.9,21.3-3.6,31.9-5.3
	c1.3-0.2,1.6-1,1.9-2c1.1-3.7,2.2-7.4,3.8-10.9c0.7-1.5,1.6-2.3,3.3-2.2c2.1,0.1,3.1,1.2,2.7,3.3c-0.6,2.8-1.2,5.5-2,8.3
	c-0.5,1.7-0.1,2.2,1.8,2.1c8.4-0.7,16.8-1,25.3-0.2c4.8,0.5,9.2,2.1,13.6,3.6c0.8,0.3,1.4,0.9,1.8,1.7c0.5,1.2,0.3,2-1.3,1.8
	c-0.3,0-0.7-0.1-1-0.2c-11.5-4.2-23.3-3.2-35-2.3c-0.1,0-0.2,0-0.3,0c-6.7,0.7-6.9,0.7-7.9,7.4c-1,6.8-1.6,13.8-2.4,20.6
	c-1,8.8-1.4,17.6-0.5,26.5c0.4,3.6,0.6,7.3,1.9,10.7c2.5-0.2,5,0,7.6,0.5c0.8,0.1,1.6,0.3,2.4,0.5c2.6-2.5,4.8-5.4,6.4-8.8
	c2.4-4.9,4.7-9.9,7.1-14.9c-1.9-4.3-2-9-2.5-13.6c-0.3-3.1,0.4-6.2,0.5-9.2c0.1-2,1.4-2.9,3.3-3c2.1-0.2,3.2,0.8,3.5,2.7
	c0.8,4.9,0.8,10,1.8,14.9c0.5,2.6,0.9,5.3,1.5,7.9c0.7,3.1,1.5,3.3,4,1.2c3-2.5,4.7-5.8,6.8-9c2.4-3.8,4.3-7.9,6.3-12
	c1.1-2.2,2.9-2.3,4.9-2.2c2.1,0.1,2.2,1.9,2.3,3.3c1,16.1,2.6,32.1,1,48.3c-0.2,1.6-0.4,3.1-0.8,4.7c-0.4,1.6-0.2,2.5,1.7,2.7
	c4.9,0.7,9.8,1.6,14.8,1.7c2.5,0.1,4.9,0,7.2-0.9c0.5-0.2,1.2-0.2,1.7-0.2C438.7,193,439.5,193.2,439.6,194z M276.8,136.6
	c-1.9-0.9-3.8-0.9-5.6-0.1c-2.3,1-4.2,2.5-5.7,4.4c-4,4.9-5.8,10.6-6,16.3c0,1,0,1.4,0,1.8c0.1,2.6,0.6,2.9,3,1.9
	c1.9-0.8,3.2-2.3,4.6-3.9c4.2-4.8,7.4-10.3,11.1-15.4C280.2,138.9,279.9,138,276.8,136.6z M357.9,180.9c1.6,2.5,3.5,2.6,6.3,0.3
	c-1.6-0.2-3.1-0.4-4.8-0.4C358.9,180.9,358.4,180.9,357.9,180.9z M400.8,191.9c-8.7-2.2-17.1-5.2-25.7-7.9c-2.3-0.7-4.6-1.4-7-2
	c-0.1,0-0.1,0.1-0.2,0.1c-5.6,5.1-11.8,5-15.8,0c-6.9,2.8-10.6,9.7-8.9,18.1c2.1,9.9,8.2,17.3,16.3,23c11.5,8.2,22,6.6,31-4.3
	c6-7.3,9.3-15.7,11.5-24.7C402.5,193.1,402.3,192.3,400.8,191.9z M405.4,145c-1.9,3.4-3.5,6.4-5.1,9.2c-0.9,1.5-1.9,3-3,4.3
	c-4.4,5.2-11.5,4.9-15.5-0.1c-3,7.6-5.9,15.3-11.6,21.5c9.1,2.2,17.8,5.6,26.8,8.1c0.5,0.1,1,0.3,1.5,0.4c5,1.4,4.9,1.4,5.4-3.6
	c1.2-11,1.4-22,1.5-33C405.4,149.9,405.4,147.8,405.4,145z M459.3,125.4c-1.9-0.2-2.7,0.3-2.7,1.7c-0.1,1.4,0.9,2.1,2.2,2.3
	c1.3,0.2,2.5-0.6,2.6-1.8C461.4,126.1,460,125.6,459.3,125.4z M528,145.6c0.6,1.4-0.8,1.4-1.5,1.8c-5.5,2.8-10.1,6.9-15,10.5
	c-0.5,0.4-1.2,0.7-0.5,1.6c3.2,3.9,2.8,8.5,1.8,12.9c-2.6,11.5-9.2,20.4-19,27c-0.8,0.6-1.8,1-2.7,1.3c-6,2.3-10-0.8-9.5-7.1
	c0.7-8.9,5.3-16,10.6-22.8c1.8-2.3,3.6-4.6,6-6.3c-1.9-0.5-3.1,1-4.6,1.6c-3,1.2-5.9,2.5-9.3,1.5c-4.2-1.3-6.5-3.8-6.9-7.5
	c-1.5,2.9-3,5.8-4.8,8.5c-1,1.5-2.2,3-3.5,4.2c-4.9,4.7-11.1,3.3-13.6-3.1c-1.6-4-1.6-8.2-1.7-12.4c-0.1-5.5,0.7-11,1.7-16.4
	c0.3-1.8,0.9-3.1,3-2.8c2,0.3,3.3,1.3,3.2,3.7c-0.2,3.9,0,7.8,0,10.8c-0.4,5.9-0.5,10.9,0.1,15.9c0.1,1.3,0,3,1.3,3.6
	c1.4,0.5,2.4-0.9,3.4-1.7c2.8-2.2,4.8-5.1,6.5-8.2c2.1-3.8,4.3-7.5,6.4-11.3c0.7-1.6,1.6-3.2,2.5-4.8c0.5-1,1.1-2,1.5-3.1
	c0.2-0.4,0.4-0.8,0.7-1c0.4-0.3,0.7-0.9,1.2-1c3.3-4.7,7.3-8.7,12-11.9c0.6-0.4,1.2-0.9,1.9-1.2c1.3-0.7,2.2,0,3.1,0.9
	c1,1,0.4,1.7-0.4,2.5c-5.4,5.5-9.9,11.5-13.4,18.4c-1.7,3.4-3.2,6.8-3.5,10.6c-0.2,3.1,0,3.3,2.9,2.1c3.4-1.3,6.7-2.7,10.1-4
	c2.1-0.8,4.3-1.5,6.6-1.4c1.1,0,1.9-0.6,2.7-1.2c3.7-2.9,7.3-5.9,11.3-8.4c2.1-1.3,4.3-2.4,6.7-2.9
	C526.5,144.2,527.5,144.6,528,145.6z M498.1,164.5C498.1,164.5,498.1,164.5,498.1,164.5c0-0.1-0.1-0.1-0.1-0.2
	C498,164.4,498.1,164.4,498.1,164.5z M507.7,161.6c-0.7-0.1-1,0.2-1.3,0.5c-4.5,4-8.8,8.2-12.5,13c-3.9,5-7.1,10.3-8,16.7
	c-0.3,2.3-1.3,5.4,1,6.7c1.8,1,3.9-1.3,5.7-2.5c0.1,0,0.1-0.1,0.2-0.2c7.4-6.6,12.2-14.7,14.7-24.2
	C508.1,168.3,508.1,164.9,507.7,161.6z M585.7,134c7.4,9.4,5.5,26.6-3.6,34.4c-6.3,5.4-17.2,3.8-21.8-2.1c-3.1-4.1-4.5-8.7-4.5-12.4
	c0-8.2,2.3-14.2,6.2-19.6C568,125.9,579.4,125.9,585.7,134z M584.1,147c-0.1-4.2-0.8-8.5-3.5-12.3c-2.4-3.2-5.1-3.7-8.6-1.7
	c-1.8,1-3.3,2.4-4.4,4c-5.7,7.9-5.4,16.5-1.9,25c2.8,7,7.9,7.5,12.8,1.7C582.4,159,583.9,153.4,584.1,147z M626.2,128.5
	c-1.6-0.5-1.7,0.7-1.9,1.6c-2.1,7.5-4,15.1-6.1,22.6c-1.3,4.7-2.4,9.5-4.7,14.5c-0.6-1.3-1-2.2-1.4-3c-4.5-10.3-8.9-20.7-12-31.6
	c-0.7-2.5-2.4-2-4.2-1.8c-2.3,0.2-1.3,1.8-1.1,2.9c1.6,9.9,4,19.6,7.4,29c1,2.8,2.2,5.6,4,8.1c1.9,2.6,4.6,3.2,7.6,3.1
	c2.9-0.2,3.9-2.3,4.8-4.5c0.4-1.1,0.9-2.2,1.1-3.3c2.7-11.6,5.3-23.3,8.1-34.9C628,129.5,627.4,128.9,626.2,128.5z M704.5,138.7
	c-3.9,0.8-7.3-0.5-10.5-2.6c-4-2.6-4.9-2.7-8.2,0.8c-5.7,5.9-9,12.9-9.7,21.2c-0.4,4.4,0.2,8.6,0.5,13c0.2,3-0.4,4.1-2.4,4.4
	c-3.2,0.5-5.1-0.6-5.5-3.3c-0.9-5.8-1.3-11.5-1.5-17.2c-3.5,6.3-8.2,11.8-14.8,15.8c-7.6,4.7-22.3,0.2-22-12.4c0-0.7,0-1.3,0-2
	c0.2-7.2,1.6-14.1,6.4-19.8c3.2-3.8,7.2-6.2,12.5-5.9c6.2,0.4,8.5,4.3,5.6,9.7c-3.2,5.9-7.7,10.3-14.7,11.4
	c-0.8,0.1-1.5,0.2-1.5,1.2c-0.1,3.7-0.6,7.3,0.5,10.9c1.5,4.8,4.7,6.3,9.4,4.2c6.6-3,11.1-8.3,14.8-14.2c1.4-2.2,2.7-4.5,3.9-6.8
	c0.4-8.2,1.6-16.4,3.8-24.6c0.6-2.4,2.3-1.9,3.7-1.6c1.6,0.3,2.8,0.9,2.4,3c-1,5.8-1.9,11.7-2,17.6c0,0.3,0,0.7,0,1.8
	c2.2-3.5,4.1-6.4,6.6-8.7c4.9-4.7,8.4-4.9,13.8-0.9c2.4,1.8,4.8,3.4,8.1,2.1c1-0.4,2.5-0.2,2.8,1C707,138.2,705.5,138.5,704.5,138.7
	z M639.2,150c6.3-1.2,9.7-5.2,12.1-10.3c0.7-1.4,2.1-3.6,0.4-4.8c-1.6-1.1-3.5,0.5-4.9,1.6C642.5,139.9,640.4,144.4,639.2,150z
	 M504.8,278.9c-0.7-0.6-2.1-1.2-3.9,2.5c-1.8,3.7-2.3,6.2-2.6,11.5c-0.3,6.3,0.8,12.9,2.4,15.5c2,3.1,4,3.3,5.6,1.5
	c0.4-0.6,0.8-1.2,0.9-1.7c1.1-2.3,1.6-4.9,1.8-8.3c0.3-3.3-0.7-12.3-1.5-15.3C507,282.4,506,280.2,504.8,278.9z M442.5,278.9
	c-0.7-0.6-2.1-1.2-3.9,2.5c-1.8,3.7-2.3,6.2-2.6,11.5c-0.3,6.3,0.8,12.9,2.4,15.5c2,3.1,4,3.3,5.6,1.5c0.4-0.6,0.8-1.2,0.9-1.7
	c1.1-2.3,1.6-4.9,1.8-8.3c0.3-3.3-0.7-12.3-1.5-15.3C444.7,282.4,443.7,280.2,442.5,278.9z M379,278.9c-0.7-0.6-2.1-1.2-3.9,2.5
	c-1.8,3.7-2.3,6.2-2.6,11.5c-0.3,6.3,0.8,12.9,2.4,15.5c2,3.1,4,3.3,5.6,1.5c0.4-0.6,0.8-1.2,0.9-1.7c1.1-2.3,1.6-4.9,1.8-8.3
	c0.3-3.3-0.7-12.3-1.5-15.3C381.2,282.4,380.2,280.2,379,278.9z M603.8,294.5l17.4,41.3H99.5l17.4-41.3l-17.4-41.3h521.7
	L603.8,294.5z M166.6,277.3c1.1-0.4,3.3,0.3,3.3-2.1c0-1.5-1.5-1.4-2.8-1.3c-3.3,0.2-5.2,0-8.3,0c-1.9-0.1-3.5-0.2-3.5,1.4
	c0,1.5,0.9,1.7,2.1,1.8c2.1,0,1.8,2,1.8,4.3c0,4.9,0.1,20.9,0.3,26.1c0.1,4.1-0.1,4.5-1.8,4.7c-0.6,0-2.4-0.3-2.4,1.5
	c-0.1,1.9,1.5,1.8,3.1,1.8c2,0.1,5.9-0.1,8.5,0c1.1,0.1,2.9,0,3-1.8c0-1.4-1.3-1.6-2.8-1.5c-1.5,0.1-1.2-1.6-1.3-3.2
	c-0.3-4.2-0.4-15.7-0.4-22.6C165.4,285,165.2,277.5,166.6,277.3z M191.8,275.1c0-1.5-2-1.6-4.5-1.3c-3.3,0.2-5.7,0.1-8.7,0.1
	c-2.4,0-5.4-0.6-5.4,1.5c0,1.6,1.6,1.8,4,1.8c0,0,1.9-0.1,2.1,1.5c0.4,3.1,0.6,31.9,0.5,34.3c-0.1,2.2,1.3,2.2,2.7,2.3
	c0.1,0.1,0.3,0.1,0.4,0.1c1.6,0.1,3.3-0.6,3.3-2.3c0-1.6-0.9-29.5-0.7-33c0.1-2.5,0.4-3,1.2-3c0.2-0.1,0.4-0.1,0.6-0.1
	C189.3,276.9,191.8,277,191.8,275.1z M201.1,276.3c-0.1-1.8-1-3.3-3.1-3.3c-2.1,0-3.6,1.4-3.6,3.3c0,2,1.1,3.1,2.8,3.1
	c0,0.6-0.1,1-0.4,1.3c-0.6,0.9,0.8,0.8,1.6,0.5c1.3-0.4,2.7-2.1,2.7-4.5C201.1,276.6,201.1,276.5,201.1,276.3z M217.6,291.3
	c-4.6-5.7-9.5-12.3-6.2-13.8c1.3-0.4,2.6-0.3,3.9,0.3c2.3,1.1,2.6,2.8,2.3,5.8c0,0.8,0.1,1.8,1.6,2c0.1,0,0.1,0,0.1,0
	c1.2,0,1.8-1.3,1.8-2.3c0.4-4.1-1.1-7.2-4.5-8.7c-3.5-1.5-6.6-1.1-9.7,1.3c-0.8,0.6-1.4,1.6-1.8,2.7c0,0-0.4,0.8-0.5,2.1
	c0,0.1,0,0.1,0,0.1c-0.1,0.2-0.1,0.3-0.1,0.5c0,1,0.1,2,0.4,3c0.1,0.3,0.2,0.6,0.3,0.8c0.6,2,1.9,4.2,4,6.9
	c6.9,8.4,9.6,18.6,5.7,19.7c-1.6,0.2-3.2-0.4-4.5-1.8c-1.1-0.9-1.8-3.1-1.6-4.7c0.1-0.9,0.3-1.6,0.4-2.1c0.2-0.8,0.3-1.3,0.1-2.1
	c-0.1-0.8-0.8-1.5-1.8-1.5h-0.1c-0.8,0-1.6,1-1.8,1.8c-0.5,1.3-0.9,3.9-0.6,6c0.4,3.5,1.4,5.1,4,6.9c1.3,0.9,3.1,1.3,4.9,1.3
	c2.3,0,4.8-0.8,6.7-2.3c1.1-1,2.2-2.5,2.6-5.4C224.1,303.5,223.2,298.3,217.6,291.3z M257.7,275.1c0-1.5-2-1.6-4.5-1.3
	c-3.3,0.2-5.7,0.1-8.7,0.1c-2.4,0-5.4-0.6-5.4,1.5c0,1.6,1.6,1.8,4,1.8c0,0,1.9-0.1,2.1,1.5c0.4,3.1,0.6,31.9,0.5,34.3
	c-0.1,2.2,1.3,2.2,2.7,2.3c0.1,0.1,0.3,0.1,0.4,0.1c1.6,0.1,3.3-0.6,3.3-2.3c0-1.6-0.9-29.5-0.7-33c0.1-2.5,0.4-3,1.2-3
	c0.2-0.1,0.4-0.1,0.6-0.1C255.2,276.9,257.7,277,257.7,275.1z M271.6,277.3c1.1-0.4,3.3,0.3,3.3-2.1c0-1.5-1.5-1.4-2.8-1.3
	c-3.3,0.2-5.2,0-8.3,0c-1.9-0.1-3.5-0.2-3.5,1.4c0,1.5,0.9,1.7,2.1,1.8c2.1,0,1.8,2,1.8,4.3c0,4.9,0.1,20.9,0.3,26.1
	c0.1,4.1-0.1,4.5-1.8,4.7c-0.6,0-2.4-0.3-2.4,1.5c-0.1,1.9,1.5,1.8,3.1,1.8c2,0.1,5.9-0.1,8.5,0c1.1,0.1,2.9,0,3-1.8
	c0-1.4-1.3-1.6-2.8-1.5c-1.5,0.1-1.2-1.6-1.3-3.2c-0.3-4.2-0.4-15.7-0.4-22.6C270.4,285,270.2,277.5,271.6,277.3z M305.2,305.9
	c-0.1-1.8-0.2-3.5-0.3-5.4c0.1-2.1,0-3.8,0-5.3c-0.1-2.1-0.1-3.9,0-6.3c0-2.1,0-4.8,0-7.2c0-1.8,0-3.4,0.1-4.5
	c-0.1-2-0.1-3.1-1.5-3.5c-1.1-0.4-1.6,0.2-3,2l-0.2,0.3c-1.4,2.3-1.9,3-3,4.3c-0.6,0.8-1,1.2-1.5,1.8c-0.4,0.4-0.8,0.9-1.4,1.6
	c-0.4,0.5-0.8,0.7-1.1,0.7c-0.4,0-0.8-0.3-1.3-0.8c-0.9-0.9-2-2.3-3.1-3.8c0,0-4.2-6.2-6-6.2c-4.4,0-4,0.4-3.9,7.6
	c0.1,4.6-0.1,27.5-0.1,30.5c0,3.8,0,4.3,3.3,4.3c5.2,0.1,4.2-0.4,4-7c0,0-0.2-26.7-0.4-27.4c1.6,1.8,4.5,5.6,5.9,7.5
	c0.5,0.7,1,1.1,1.6,1.1c0.6,0,1.1-0.4,1.7-1.1c1.4-2,2.5-3.3,3.6-4.7c0.8-0.9,1.6-2,2.6-3.4c0.3,0.9,0.2,4.4,0.2,6.5
	c0,0.9-0.1,1.8-0.1,2.5c0,2.8,0.1,5.7,0.1,8.4c0.1,5.2,0.3,10.1-0.1,15.3c-0.1,0.6,0.1,1.6,0.8,2.1c0.3,0.3,0.7,0.4,1.1,0.4
	c0.1,0,0.3,0,0.3,0c1.1-0.2,1.6-0.9,1.6-2.1C305.5,311,305.3,308.4,305.2,305.9z M317.3,301.6v-24c0,0,0.1,0,0.1,0
	c2.8,0.1,5.5-0.2,8.3,0c0.6,0,1.8-0.5,1.8-1.5c0-1.6-1.2-2-2.8-2c-2.2,0.1-13.2-0.1-13.5,0c-1.4,0.4-1.8,1.3-1.1,2.5
	c0.7,1.1,0.6,32.6,0.5,35.3c0,2.5-0.3,3,2.2,3.5c4.4,0.8,7.7-0.1,11.8-0.5c1.5-0.3,2.7-0.4,2.8-1.8c0.1-1-0.9-2.1-2.3-1.8
	c-1.4,0.3-3,0.9-6,1.1c-0.7,0.1-1.3,0.1-1.8,0.1v-7.5c2.5-0.1,4.1-0.1,7.1,0.1c1.9,0.3,2.3-0.6,2.1-2c-0.1-1.2-0.9-1.7-2.5-1.5
	C321.8,301.7,319.5,301.7,317.3,301.6z M362,275.1c0-1.5-2-1.6-4.5-1.3c-3.3,0.2-5.7,0.1-8.7,0.1c-2.4,0-5.4-0.6-5.4,1.5
	c0,1.6,1.6,1.8,4,1.8c0,0,1.9-0.1,2.1,1.5c0.4,3.1,0.6,31.9,0.5,34.3c-0.1,2.2,1.3,2.2,2.7,2.3c0.1,0.1,0.3,0.1,0.4,0.1
	c1.6,0.1,3.3-0.6,3.3-2.3c0-1.6-0.9-29.5-0.7-33c0.1-2.5,0.4-3,1.2-3c0.2-0.1,0.4-0.1,0.6-0.1C359.6,276.9,362,277,362,275.1z
	 M386.6,300.6c0.1-5.2-0.3-10.6-1.4-16.5c-0.5-2.7-1.7-5.2-3.7-7.7c-1.3-1.6-3.3-2.5-5.4-2.5c-2.3,0-4.5,1.2-6,3.1
	c-3.2,4.5-4.2,7.6-4.6,14.2c-0.1,3.8,0.1,6.9,0.5,9.5c0.8,4.7,1.7,8.9,5.1,12.1c1.8,1.6,3.8,2.6,5.9,2.6c0.4,0,0.8-0.1,1.3-0.1
	c2.5-0.4,4.6-2.2,6-4.8C385.6,307.4,386.5,304.1,386.6,300.6z M425.7,291.4c-0.2-1.1-0.9-1.5-2.1-1.3c-2.5,0.4-4.9,0.3-7,0.2
	c-0.8-0.1-1.4,0.1-2,0.6c-0.4,0.4-0.6,0.9-0.6,1.6c0,0.4,0.1,0.8,0.3,1c0.4,0.4,1.3,0.4,2.4,0.4c1.6-0.1,1.8,0.5,2,2.3
	c0.2,1.8,0.5,9.9-0.9,13c-0.4,1.2-1.3,2.1-2.3,2.6c-2.6,0.8-5.4-3.3-5.5-17.5c-0.1-15.9,4.2-16.9,5.3-16.7c1.6,0.4,2.5,1.2,3.1,2.8
	c0.3,0.6,0.3,1.1,0.3,1.6c0.1,0.3,0.1,0.7,0.1,1c0.1,0.7,0.3,1.2,0.6,1.4c0.3,0.3,0.6,0.4,1,0.3c0.9-0.1,1-0.9,1.1-1.4
	c0.5-3-1.3-6.9-3.8-8.4c-2.6-1.5-5.6-2-8-0.2c-2.2,1.6-3.6,3.9-4.5,6.5c-2.4,8.1-2.5,14.3-1.3,22.2c0.3,2.3,1.2,6.2,2.7,8.4
	c1.5,2.1,3.6,3.5,6.8,3.7c0.5,0.1,1.1-0.1,1.7-0.2c3-0.6,4.3-2,5.7-5.7c1.1-3.6,0.9-7.7,0.9-10.8c0-0.9-0.1-1.8,0-2.5V296
	c0-2.1,0-2.1,2.3-2.5C425.3,293.2,425.9,292.4,425.7,291.4z M450.1,300.6c0.1-5.2-0.3-10.6-1.4-16.5c-0.5-2.7-1.7-5.2-3.7-7.7
	c-1.3-1.6-3.3-2.5-5.4-2.5c-2.3,0-4.5,1.2-6,3.1c-3.2,4.5-4.2,7.6-4.6,14.2c-0.1,3.8,0.1,6.9,0.5,9.5c0.8,4.7,1.7,8.9,5.1,12.1
	c1.8,1.6,3.8,2.6,5.9,2.6c0.4,0,0.8-0.1,1.3-0.1c2.5-0.4,4.6-2.2,6-4.8C449.2,307.4,450,304.1,450.1,300.6z M486.9,311.1
	c-0.4-4.2-0.2-13.7-0.3-17.2c-0.1-2.7-0.2-8.4-0.1-16.4v-0.1c0.1-0.9,0.1-2.4-0.1-3c-0.3-0.8-1.4-0.9-2.3-0.6
	c-0.9,0.4-0.9,1.8-0.9,3.6c-0.1,3.6,0.1,16.9,0,20.1c-0.1,2,0.2,3.4-2.6,3.4c-1.3,0-3.2-0.1-4.8-0.1c-0.7-0.1-1.2-0.6-1.2-1.3
	c0.1-6.5,0.2-13.9,0.1-15.3c-0.1-2.3,0.8-9.9-1.1-10.3c-1.5-0.4-4.6-0.3-5.3,0c-0.9,0.3-0.9,0.8-0.9,1.6c0.1,8.2,0.1,16.5,0.2,23.5
	c-0.1,5.3-0.3,9.2-0.3,13.1c0,2.1,0.1,2.9,1.6,3.2c1.3,0.4,3,0.3,4,0.1c2.3-0.4,1.8-0.6,1.8-6.6c-0.1-0.9-0.1-2.1-0.1-3.5
	c0-0.7,0.6-1.3,1.3-1.3c2,0.1,3.5,0.1,5.3,0.2c2-0.1,2.2,0.5,2.5,2.5c0.1,2,0,3-0.1,4.6c-0.1,1.9-0.3,4.2,2,4
	C487.3,315.7,486.9,313,486.9,311.1z M512.4,300.6c0.1-5.2-0.3-10.6-1.4-16.5c-0.5-2.7-1.7-5.2-3.7-7.7c-1.3-1.6-3.3-2.5-5.4-2.5
	c-2.3,0-4.5,1.2-6,3.1c-3.2,4.5-4.2,7.6-4.6,14.2c-0.1,3.8,0.1,6.9,0.5,9.5c0.8,4.7,1.7,8.9,5.1,12.1c1.8,1.6,3.8,2.6,5.9,2.6
	c0.4,0,0.8-0.1,1.3-0.1c2.5-0.4,4.6-2.2,6-4.8C511.5,307.4,512.3,304.1,512.4,300.6z M543,305.9c-0.1-1.8-0.2-3.5-0.3-5.4
	c0.1-2.1,0-3.8,0-5.3c-0.1-2.1-0.1-3.9,0-6.3c0-2.1,0-4.8,0-7.2c0-1.8,0-3.4,0.1-4.5c-0.1-2-0.1-3.1-1.5-3.5c-1.1-0.4-1.6,0.2-3,2
	l-0.2,0.3c-1.4,2.3-1.9,3-3,4.3c-0.6,0.8-1,1.2-1.5,1.8c-0.4,0.4-0.8,0.9-1.4,1.6c-0.4,0.5-0.8,0.7-1.1,0.7c-0.4,0-0.8-0.3-1.3-0.8
	c-0.9-0.9-2-2.3-3.1-3.8c0,0-4.2-6.2-6-6.2c-4.4,0-4,0.4-3.9,7.6c0.1,4.6-0.1,27.5-0.1,30.5c0,3.8,0,4.3,3.3,4.3
	c5.2,0.1,4.2-0.4,4-7c0,0-0.2-26.7-0.4-27.4c1.6,1.8,4.5,5.6,5.9,7.5c0.5,0.7,1,1.1,1.6,1.1c0.6,0,1.1-0.4,1.7-1.1
	c1.4-2,2.5-3.3,3.6-4.7c0.8-0.9,1.6-2,2.6-3.4c0.3,0.9,0.2,4.4,0.2,6.5c0,0.9-0.1,1.8-0.1,2.5c0,2.8,0.1,5.7,0.1,8.4
	c0.1,5.2,0.3,10.1-0.1,15.3c-0.1,0.6,0.1,1.6,0.8,2.1c0.3,0.3,0.7,0.4,1.1,0.4c0.1,0,0.3,0,0.3,0c1.1-0.2,1.6-0.9,1.6-2.1
	C543.3,311,543.1,308.4,543,305.9z M555.1,301.6v-24c0,0,0.1,0,0.1,0c2.8,0.1,5.5-0.2,8.3,0c0.6,0,1.8-0.5,1.8-1.5
	c0-1.6-1.2-2-2.8-2c-2.2,0.1-13.2-0.1-13.5,0c-1.4,0.4-1.8,1.3-1.1,2.5c0.7,1.1,0.6,32.6,0.5,35.3c0,2.5-0.3,3,2.2,3.5
	c4.4,0.8,7.7-0.1,11.8-0.5c1.5-0.3,2.7-0.4,2.8-1.8c0.1-1-0.9-2.1-2.3-1.8c-1.4,0.3-3,0.9-6,1.1c-0.7,0.1-1.3,0.1-1.8,0.1v-7.5
	c2.5-0.1,4.1-0.1,7.1,0.1c1.9,0.3,2.3-0.6,2.1-2c-0.1-1.2-0.9-1.7-2.5-1.5C559.6,301.7,557.3,301.7,555.1,301.6z M681.1,273.9
	c-1.7,8.1-10.1,12.4-17.9,10.1c-2.5,9.9-10.7,17.6-21.3,14.1c-2.1,4.1-5.7,7.3-9.7,9.4l-3.6-5.3c2.9-1.3,5.5-3.4,7.1-6.1
	c-6.8-2.5-9.9-14-2.5-17.5c8-3,12.6,6.8,10.7,13.6c2.3,0.8,6.3,0.5,7.4-0.5c0.6-0.5,1.4-0.9,1.8-1.5c2-2.4,3.1-5.3,4.1-8.2
	c-29.6-15.2,8.2-32.9,7.4-4c10.7,3.3,11.4-9.4,9.4-17.4c-0.2-1-0.7-1.8-1.3-2.7l6.1-2.3C681.8,261.1,682.7,267.8,681.1,273.9z
	 M659.4,276.5c-0.4-1.4-0.6-2.8-0.9-4.3c-0.3-1.1-0.5-2.2-1.1-3.1c-0.5-0.7-1.3-1.3-2.1-1.7c-0.8-0.3-1.9-0.6-2.7-0.4
	c-0.9,0.2-1.6,1.1-1.6,1.8c-0.1,0.5,0.1,1,0.3,1.4c0.2,0.5,0.5,0.9,0.9,1.3C654.2,273.7,656.5,275.6,659.4,276.5z M639.4,291.7
	c0-2.1,0.4-4.1-0.2-6.2c-0.1-0.6-0.4-1.2-0.8-1.6c-0.9-1.1-2.8-1.6-3.8-0.5c-0.4,0.3-0.6,0.7-0.7,1.1c-0.2,0.9-0.1,1.9,0.2,2.8
	c0.3,0.7,0.6,1.3,1.1,1.7c0.4,0.4,0.8,0.7,1.3,1C637.5,290.5,638.5,291.1,639.4,291.7z M655.2,303.2
	C655.4,303.1,655.4,303.1,655.2,303.2L655.2,303.2z M642.3,334.5l7.1,2c6.1,1.7,11.7,4.7,16.5,8.9l8.5,7.4l7.9-15l-7.3-3
	c-8.9-3.7-18.6-4.2-27.9-1.6L642.3,334.5z M646.3,196.6l-4.1,7.8c-0.2,0.4-0.8,0.7-1.3,0.9l-8.8,1c-1.4,0.2-2.1,1.8-1.1,3l6.1,6.4
	c0.5,0.4,0.6,1,0.5,1.5l-1.8,8.6c-0.3,1.4,1.2,2.6,2.5,2l7.9-3.8c0.5-0.3,1.1-0.3,1.6,0l7.7,4.4c1.3,0.7,2.8-0.3,2.6-1.8l-1.2-8.6
	c-0.1-0.5,0.1-1.1,0.5-1.5l6.5-5.9c1.1-0.9,0.6-2.8-0.9-3l-8.6-1.5c-0.5-0.1-1.1-0.5-1.3-1l-3.6-8
	C649,195.6,647.1,195.6,646.3,196.6z M714.6,234l-23,3.6l2.2-17.5l23-1.8L714.6,234z M702.9,281.8l-3.9,7.3
	c-0.2,0.5-0.7,0.7-1.3,0.9l-8.2,0.9c-1.4,0.2-2,1.7-1.1,2.8l5.8,6c0.4,0.4,0.5,0.9,0.4,1.4l-1.6,8.2c-0.2,1.3,1.1,2.4,2.4,1.8
	l7.4-3.6c0.5-0.3,1-0.3,1.5,0l7.2,4.1c1.3,0.7,2.7-0.3,2.5-1.6l-1.1-8.2c-0.1-0.5,0.1-1.1,0.5-1.4l6.1-5.5c1-0.8,0.5-2.6-0.9-2.8
	l-8.2-1.4c-0.5-0.1-1.1-0.4-1.3-0.9l-3.4-7.5C705.3,281,703.6,280.9,702.9,281.8z M18,188.6l24.9,1.9l2.4,19l-24.9-3.9L18,188.6z
	 M7.7,305.2l19.6-12L39.5,306l-20.7,10.6L7.7,305.2z M58.6,322.7l-9.9,5.3l10.6,14.2l5.5-6c6.6-7.3,10.8-16.8,11.9-26.9
	C76.8,309.3,64.1,319.8,58.6,322.7z M93,205.1l6.5-0.2c-0.3,1-0.4,2-0.2,3c1.2,8.2,6.8,19.6,15.4,12.4c-11.9-26.3,29.7-24.6,8.4,0.8
	c2,2.3,4.2,4.6,7,6c0.7,0.4,1.6,0.5,2.3,0.7c1.4,0.5,5.2-0.8,7-2.4c-4.4-5.5-3.9-16.3,4.6-16.7c8.2,0.4,9.8,12.2,4.5,17.1
	c2.6,1.9,5.8,2.9,8.9,2.9L156,235c-4.6-0.3-9.1-1.9-12.6-4.8c-8.4,7.4-19,3.4-25.1-4.7c-6.3,5.1-15.7,4.4-20.4-2.4
	C94,217.9,92.2,211.5,93,205.1z M123.6,209.7c0.2-0.5,0.3-1,0.3-1.5s0-1.1-0.3-1.4c-0.4-0.7-1.4-1.2-2.2-1.1
	c-0.8,0.1-1.7,0.8-2.3,1.4c-0.6,0.7-1.1,1.5-1.3,2.4c-0.2,1,0.1,2.2,0.2,3.3c0.3,1.4,0.7,2.8,0.9,4.3
	C121.2,215,122.6,212.4,123.6,209.7z M145.2,220.5c0.3-0.4,0.6-0.9,0.8-1.4c0.2-0.6,0.3-1.3,0.3-2c-0.1-0.9-0.3-1.9-0.9-2.6
	c-0.2-0.4-0.6-0.7-1-0.8c-1.4-0.6-3,0.5-3.3,1.9c-0.2,0.6-0.2,1.2-0.1,1.8c0.2,2.1,1.4,3.8,2.2,5.8
	C143.8,222.3,144.5,221.4,145.2,220.5z M11.7,235l-3.1,5.7c-0.2,0.4-0.6,0.6-1,0.7l-6.5,0.7c-1.1,0.2-1.6,1.3-0.8,2.2l4.6,4.7
	c0.3,0.3,0.4,0.7,0.3,1.1l-1.3,6.4c-0.2,1,0.9,1.9,1.9,1.4l5.8-2.8c0.4-0.3,0.8-0.3,1.2,0l5.6,3.3c1,0.6,2.1-0.3,2-1.3l-0.9-6.4
	c-0.1-0.4,0.1-0.8,0.4-1.1l4.8-4.3c0.8-0.6,0.4-2-0.7-2.2l-6.4-1.1c-0.4-0.1-0.8-0.3-1-0.7l-2.7-5.9C13.5,234.4,12.2,234.3,11.7,235
	z M588.1,215.1l-3.1,5.7c-0.2,0.4-0.6,0.6-1,0.7l-6.5,0.7c-1.1,0.2-1.6,1.3-0.8,2.2l4.6,4.7c0.3,0.3,0.4,0.7,0.3,1.1l-1.3,6.4
	c-0.2,1,0.9,1.9,1.9,1.4l5.8-2.8c0.4-0.3,0.8-0.3,1.2,0l5.6,3.3c1,0.6,2.1-0.3,2-1.3l-0.9-6.4c-0.1-0.4,0.1-0.8,0.4-1.1l4.8-4.3
	c0.8-0.6,0.4-2-0.7-2.2l-6.4-1.1c-0.4-0.1-0.8-0.3-1-0.7l-2.7-5.9C589.9,214.5,588.6,214.4,588.1,215.1z M255.8,207.9l-1.5,6.3
	c-0.1,0.4-0.4,0.7-0.8,0.9l-6.1,2.3c-1,0.4-1.2,1.7-0.3,2.3l5.6,3.4c0.4,0.2,0.6,0.6,0.6,1l0.4,6.5c0.1,1,1.3,1.6,2.2,0.9l4.9-4.2
	c0.3-0.3,0.7-0.4,1.2-0.3l6.3,1.7c1.1,0.3,2-0.8,1.6-1.7l-2.5-6c-0.2-0.4-0.1-0.8,0.1-1.2l3.5-5.4c0.6-0.8-0.2-2-1.2-1.9l-6.5,0.5
	c-0.4,0.1-0.9-0.1-1.1-0.5l-4.1-5C257.5,206.9,256.1,207.1,255.8,207.9z M532.5,228l-23,3.6l2.2-17.5l23-1.8L532.5,228z M190.7,200
	L198,222l-17.6,0.7l-5.6-22.4L190.7,200z M437.1,236.7l4.8-3.5c4.1-3,9.2-5,15-5.7l10.2-1.3l-10.3-13.9l-5.8,3.1
	c-7.1,3.7-11.6,9.8-13.1,17.4L437.1,236.7z M64.6,253.9l-4.3,8.1c-0.2,0.5-0.8,0.8-1.4,0.9l-9.1,1c-1.5,0.2-2.2,1.9-1.2,3.1l6.4,6.6
	c0.4,0.4,0.6,1,0.4,1.6l-1.8,9c-0.2,1.5,1.2,2.7,2.6,2l8.2-4c0.5-0.4,1.1-0.4,1.7,0l7.9,4.6c1.4,0.8,3-0.4,2.8-1.8l-1.2-9
	c-0.1-0.6,0.1-1.2,0.6-1.6l6.7-6.1c1.1-0.9,0.5-2.8-0.9-3.1l-9-1.6c-0.6-0.1-1.2-0.4-1.4-1l-3.8-8.3C67.2,253,65.3,252.9,64.6,253.9
	z"/>
</svg>


