<?xml version="1.0" encoding="utf-8"?>
<!-- Generator: Adobe Illustrator 18.0.0, SVG Export Plug-In . SVG Version: 6.00 Build 0)  -->
<!DOCTYPE svg PUBLIC "-//W3C//DTD SVG 1.1//EN" "http://www.w3.org/Graphics/SVG/1.1/DTD/svg11.dtd">
<svg version="1.1" xmlns="http://www.w3.org/2000/svg" xmlns:xlink="http://www.w3.org/1999/xlink" x="0px" y="0px"
	 viewBox="0 0 864 864" enable-background="new 0 0 864 864" xml:space="preserve" width="500" height="500">
<g>
	<path d="M496.1,312.6c1.4-1.1,2-3,1.3-4.7l-3.4-9c-0.2-0.5,0-1,0.4-1.3c0.4-0.3,0.9-0.3,1.4,0l7.8,5.5
		c1.5,1.1,3.5,1,4.9-0.1l7.4-5.7c0.4-0.3,0.9-0.3,1.3-0.1s0.6,0.7,0.5,1.2l-2.6,12c-0.1,0.4,0.1,0.9,0.4,1.2l9.9,7.4
		c0.4,0.3,0.6,0.8,0.4,1.3s-0.6,0.8-1.1,0.8h-11.4c-0.5,0-1,0.4-1.1,0.9l-2.9,11c-0.1,0.5-0.5,0.8-1,0.9c-0.5,0-0.9-0.3-1.1-0.7
		l-4.6-11.5c-0.2-0.4-0.6-0.7-1-0.7l-12.3-0.4c-0.5,0-0.9-0.3-1-0.8c-0.1-0.5,0-1,0.4-1.3L496.1,312.6z"/>
	<path d="M352,308.4c1-0.8,1.4-2.2,1-3.5l-2.5-6.6c-0.1-0.3,0-0.7,0.3-1s0.7-0.2,1,0l5.7,4c1.1,0.8,2.5,0.8,3.6-0.1
		l5.4-4.2c0.3-0.2,0.7-0.2,1,0c0.3,0.2,0.4,0.5,0.4,0.9l-1.9,8.7c-0.1,0.3,0.1,0.7,0.3,0.8l7.2,5.4c0.3,0.2,0.4,0.6,0.3,0.9
		c-0.1,0.3-0.4,0.6-0.8,0.6h-8.3c-0.4,0-0.7,0.3-0.8,0.6l-2.1,8c-0.1,0.3-0.4,0.6-0.8,0.6c-0.4,0-0.7-0.2-0.8-0.5l-3.4-8.4
		c-0.1-0.3-0.4-0.5-0.7-0.5l-8.9-0.3c-0.4,0-0.7-0.2-0.8-0.6c-0.1-0.3,0-0.7,0.3-0.9L352,308.4z"/>
	<path d="M147.6,456c1-0.8,1.4-2.2,1-3.5l-2.5-6.6c-0.1-0.3,0-0.7,0.3-1s0.7-0.2,1,0l5.7,4c1.1,0.8,2.5,0.8,3.6-0.1
		l5.4-4.2c0.3-0.2,0.7-0.2,1,0c0.3,0.2,0.4,0.5,0.4,0.9l-1.9,8.7c-0.1,0.3,0.1,0.7,0.3,0.8l7.2,5.4c0.3,0.2,0.4,0.6,0.3,0.9
		c-0.1,0.3-0.4,0.6-0.8,0.6h-8.3c-0.4,0-0.7,0.3-0.8,0.6l-2.1,8c-0.1,0.3-0.4,0.6-0.8,0.6s-0.7-0.2-0.8-0.5l-3.4-8.4
		c-0.1-0.3-0.4-0.5-0.7-0.5l-8.9-0.3c-0.4,0-0.7-0.2-0.8-0.6s0-0.7,0.3-0.9L147.6,456z"/>
	<path d="M488.4,615.4c1-0.8,1.4-2.2,1-3.5l-2.5-6.6c-0.1-0.3,0-0.7,0.3-1c0.3-0.2,0.7-0.2,1,0l5.7,4
		c1.1,0.8,2.5,0.8,3.6-0.1l5.4-4.2c0.3-0.2,0.7-0.2,1,0c0.3,0.2,0.4,0.5,0.4,0.9l-1.9,8.7c-0.1,0.3,0.1,0.7,0.3,0.8l7.2,5.4
		c0.3,0.2,0.4,0.6,0.3,0.9c-0.1,0.3-0.4,0.6-0.8,0.6H501c-0.4,0-0.7,0.3-0.8,0.6l-2.1,8c-0.1,0.3-0.4,0.6-0.8,0.6s-0.7-0.2-0.8-0.5
		l-3.4-8.4c-0.1-0.3-0.4-0.5-0.7-0.5l-8.9-0.3c-0.4,0-0.7-0.2-0.8-0.6c-0.1-0.3,0-0.7,0.3-0.9L488.4,615.4z"/>
	<g>
		<path d="M709.3,536.5c7.8-2,15.4-4.6,22.9-7.6c7.1-2.9,15.2-5.4,21.2-10.4c1.7-1.4,0.3-3.7-1.6-3.6c-7.8,0.3-15.2,4.8-22.1,8.2
			c-7.1,3.4-14.1,6.8-21.5,9.6C706.1,533.5,707.1,537.1,709.3,536.5z"/>
		<path d="M774.5,569c-20.7-7.2-42.7-6.2-64.1-4.7c-2.2,0.2-2.1,3.7,0.1,3.8c21,0.9,42.4,7.1,63.5,4.7
			C776,572.6,776.3,569.6,774.5,569z"/>
		<path d="M703.7,598.3c-2.1-1.1-4,2.4-2,3.6c12,7.5,23.9,21.7,38.6,22.9c1.8,0.2,3.4-2.1,2-3.6
			C732.4,610.9,716.4,604.8,703.7,598.3z"/>
		<path d="M715.4,550.1c-1.9,0.5-1.9,3.1,0.1,3.5c3.7,0.6,7.5,0.6,11.2,1c3,0.3,4.4-4.5,1.3-5.3
			C723.9,548.2,719.5,549.1,715.4,550.1z"/>
		<path d="M718.5,594.5c2.3,1.1,3.8-2.2,2.1-3.7c-2.6-2.3-6.5-2.9-9.9-3.2c-2.5-0.2-2.9,3.5-0.4,3.9
			C713.2,592.1,715.7,593.3,718.5,594.5z"/>
		<path d="M700.1,620.5c-0.2-0.3-0.4-0.6-0.7-0.9c-0.4-0.5-0.6-0.9-0.9-1.4c-1-2.4-4.6-0.8-3.6,1.6c0.4,0.9,0.9,1.8,1.6,2.5
			c0.4,0.4,0.9,0.9,1.5,1.1c0.3,0.1,0.7,0.2,1,0.1c0.5-0.2,0.6-0.2,0.3-0.1c0.8-0.1,1.3-0.9,1.2-1.7c0,0.3,0,0.1,0-0.4
			C700.4,621,700.3,620.7,700.1,620.5z"/>
	</g>
	<g>
		<path d="M665.8,543.7c0.6,0.4,1.1,0.3,1.5,0.3c2.6,0,5.2,0,7.8,0c2.7,0,2.8,0.2,2.1,2.8c-0.7,2.6-2.5,4.5-4.3,6.3
			c-7.9,7.9-15.8,15.7-23.6,23.6c-3.7,3.7-7.3,7.3-11,11c-1.3,1.3-2,2.7-2,4.7c0.1,10.7,0,21.3,0,32c0,2.2,0.6,3,2.7,3.6
			c5.3,1.4,10.7,2.8,16.1,4.2c2.8,0.7,5.6,1.5,8.4,2.2c1.2,0.3,2.2,1,2.8,2.1c0.5,0.9,0.2,1.2-0.7,1.2c-0.9,0-1.8,0-2.6,0
			c-21,0-42,0-63.1,0c-0.7,0-1.8,0.4-2-0.4c-0.3-0.9,0.6-1.5,1.3-2.1c0.7-0.7,1.6-0.8,2.5-1.1c7.9-2,15.7-4.1,23.6-6.1
			c2.3-0.6,2.8-1.3,2.8-3.6c0-10.6,0-21.3,0.1-31.9c0-2-0.7-3.5-2-4.8c-7-7-14-14-21-20.9c-5-5-10-10-15-15
			c-1.5-1.5-2.7-3.3-3.1-5.5c-0.4-2.1-0.3-2.2,1.8-2.2c24,0,48-0.1,72.1-0.1c1.2,0,2-0.4,2.6-1.3c0.8-1.1,1.6-2.1,2.5-3.2
			c0.5-0.6,0.5-1,0-1.6c-2-2.2-3-4.8-2.8-7.9c0.3-3.1,2.4-5.6,5.5-6c2.4-0.4,4.7-0.2,6.8,1.2c0.9,0.6,1.4,0.4,2-0.4
			c1.9-2.5,3.8-4.9,5.8-7.3c0.6-0.7,1.2-1.3,2.1-0.6c1,0.7,0.5,1.5-0.1,2.1c-1.9,2.5-3.9,5.1-5.9,7.5c-0.5,0.7-0.6,1.1,0,1.7
			c1,1.2,1.7,2.5,2.2,4c1.9,6-2.3,10.8-8.5,9.7c-1.2-0.2-2.4-0.6-3.5-1.2c-0.3-0.2-0.7-0.6-1.1-0.1
			C667.4,541.6,666.6,542.7,665.8,543.7z M591.6,547.7c0.4,0.4,0.6,0.6,0.8,0.8c5.4,5.2,10.8,10.4,16.1,15.6
			c0.5,0.5,1.1,0.6,1.7,0.6c11.6,0,23.2,0,34.8,0c0.9,0,1.4-0.3,2-1c3.6-4.8,7.3-9.5,11-14.3c0.4-0.5,0.8-1.1,1.3-1.8
			C636.6,547.7,614.3,547.7,591.6,547.7z M672.3,548c0-0.1-0.1-0.2-0.1-0.3c-2.9,0-5.9,0-8.8,0c-0.5,0-0.7,0.4-1,0.7
			c-3.6,4.5-7.1,9.1-10.7,13.6c-0.6,0.8-1.9,1.6-1.6,2.5c0.3,0.7,1.9,0.1,2.9,0.2c1.4,0.2,2.4-0.4,3.4-1.3c4.4-4.4,8.9-8.7,13.4-13
			C670.7,549.6,671.5,548.8,672.3,548z M673.4,532.6c-3.4,0-5,2.3-3.7,4.6c1.1,2.1,4,3.1,6.2,2.2c1.6-0.7,2.3-2.4,1.6-4
			C676.6,533.5,675,532.7,673.4,532.6z"/>
	</g>
	<g>
		<g>
			<path d="M285.6,193.1c-1.8,0.2-4.3,0.6-7.4,1.1c-3.1,0.5-5.6,1.2-7.5,2.1c-2.3,1.1-3.9,2.8-4.9,4.9c-1,2.1-1.4,4.6-1.4,7.4v12.6
				c0,9.2,0.1,15.3,0.2,18.6c0.1,3.2,0.2,5.8,0.4,7.9c-10.2,4.6-20.3,8.1-30.3,10.5c-10.1,2.4-20,3.7-29.7,3.7
				c-10.4,0-20.4-2-30-5.8c-9.6-3.9-18-9.4-25.2-16.6c-7.3-7.3-13-16.1-17.3-26.5c-4.3-10.4-6.4-22-6.4-34.8c0-12.4,2-23.9,6.1-34.4
				c4.1-10.6,9.9-19.8,17.3-27.6c7.2-7.6,15.9-13.6,25.9-17.8c10-4.2,20.8-6.4,32.2-6.4c9.2,0,17.1,1.1,23.9,3.3
				c6.8,2.2,12.8,4.9,18,8l4.7-7.8h9.2l1,56.8h-9.4c-1.6-6.3-3.6-12.4-6-18.5c-2.4-6.1-5.4-11.5-9.2-16.3
				c-3.7-4.8-8.3-8.6-13.7-11.5c-5.4-2.9-11.8-4.3-19.3-4.3c-8.2,0-15.5,1.7-21.9,5c-6.4,3.3-12,8.3-16.7,14.8
				c-4.7,6.3-8.3,14.3-10.8,23.7c-2.5,9.5-3.8,20.1-3.8,31.7c0,10.3,1.2,20,3.7,29.2c2.5,9.1,6.1,17,10.8,23.7
				c4.7,6.8,10.7,12.1,17.8,16c7.1,3.9,15.2,5.8,24.2,5.8c6.7,0,12.9-1,18.4-3.1c5.5-2.1,9.5-4.2,11.8-6.5c0.6-4,0.9-8,1-12
				c0-4,0.1-7.5,0.1-10.3v-8.9c0-3.2-0.4-6-1.3-8.5s-2.7-4.3-5.4-5.4c-2.5-1.1-5.9-2-10.3-2.6c-4.3-0.6-7.7-0.9-10.1-1.1v-8.4h71.2
				V193.1z"/>
			<path d="M437.7,103.5c-1.3,0.1-3.4,0.6-6.2,1.5c-2.8,1-4.9,1.9-6.1,2.8c-3,1.8-5,3.2-6.1,4.2c-1.1,1-3.1,3.6-6.2,7.8
				c-6,8.4-11.4,16.9-16.5,25.5c-5,8.6-11.3,19.6-18.9,32.9c-2.8,4.9-4.7,8.8-5.6,11.8c-0.9,3-1.4,7.3-1.4,12.9v31
				c0,2.7,0.6,5.1,1.7,7.2c1.1,2,3,3.6,5.7,4.9c1.6,0.6,4.5,1.4,8.6,2.2c4.1,0.9,7.4,1.4,10,1.4v8.1h-76v-8.1
				c2.1-0.2,5.3-0.4,9.6-0.9c4.3-0.4,7.3-1,8.9-1.7c2.8-1.1,4.6-2.7,5.7-4.7c1-2,1.5-4.4,1.5-7.3v-39.5c0-1.2-0.7-3.5-2.2-6.7
				c-1.5-3.2-3.3-6.9-5.3-10.8c-4.6-8.9-9.7-18.4-15.2-28.7c-5.6-10.3-10.4-19.1-14.5-26.5c-2.5-4.4-4.7-7.6-6.7-9.8
				c-1.9-2.2-4.2-4.2-6.7-5.8c-1.8-1.1-4-2-6.6-2.6c-2.6-0.6-4.9-1-6.9-1.1v-8.1h69.3v8.1c-7.8,0.2-13.3,0.7-16.5,1.6
				c-3.2,0.9-4.8,2.2-4.8,3.9c0,0.5,0.2,1.3,0.7,2.4c0.5,1.1,1.1,2.6,1.9,4.3c1,2,2.2,4.3,3.5,6.8c1.4,2.6,2.7,5,3.9,7.4
				c3.6,6.8,7.2,13.6,11,20.3c3.7,6.8,8.6,15.6,14.6,26.4c12-19.3,21.1-34.4,27.4-45.2c6.3-10.8,9.4-17.3,9.4-19.4
				c0-1.8-0.7-3.2-1.9-4.2c-1.3-1.1-3-1.9-5.2-2.5c-2.2-0.6-4.6-1-7.2-1.2c-2.6-0.2-5-0.4-7.2-0.6v-8.1h56.5V103.5z"/>
			<path d="M638.4,257.9h-71.8v-8.1c2.6-0.1,5.9-0.3,10-0.8c4.1-0.5,6.9-1.1,8.4-1.9c2.4-1.4,4.1-3.1,5.2-5c1.1-1.9,1.7-4.2,1.7-7
				V116.8h-1.7l-55.4,138.5H529L476.2,114h-1.5v97c0,9.4,0.6,16.5,1.8,21.4c1.2,4.9,3,8.4,5.4,10.5c1.7,1.6,5.2,3.1,10.4,4.6
				c5.3,1.5,8.7,2.2,10.3,2.3v8.1H437v-8.1c3.4-0.3,7-0.9,10.8-1.7c3.8-0.8,6.7-2.1,8.8-3.8c2.7-2.1,4.5-5.4,5.5-9.8
				c1-4.4,1.5-11.8,1.5-22.2v-83.1c0-4.8-0.6-8.7-1.7-11.8c-1.1-3.1-2.8-5.5-4.9-7.4c-2.4-2.1-5.3-3.6-8.7-4.6
				c-3.4-1-6.8-1.6-10.2-1.7v-8.1h55.4l46.5,122l39.7-102c1.4-3.7,2.7-7.7,3.7-11.7c1-4.1,1.6-6.8,1.7-8.2h53v8.1
				c-2.1,0.1-4.9,0.4-8.2,1c-3.3,0.6-5.7,1.2-7.3,1.7c-2.6,0.9-4.4,2.4-5.3,4.6c-0.9,2.1-1.4,4.5-1.4,7V235c0,2.7,0.5,4.9,1.4,6.8
				c0.9,1.8,2.7,3.4,5.3,4.8c1.4,0.8,3.8,1.5,7.3,2.1c3.5,0.7,6.3,1,8.4,1.1V257.9z"/>
			<path d="M737.3,105.6c4.2,4.4,7.3,9.4,9.3,15c2,5.5,3,11.6,3,18.1c0,14.1-4.5,25.7-13.5,34.6c-9,8.9-21.4,14.3-37.1,16.2v25.3
				h-10.5v-43.4c4.8-0.4,9.6-1.2,14.3-2.4c4.7-1.2,9-3.1,12.7-5.8c3.9-2.8,6.9-6.3,9.1-10.3s3.3-9.6,3.3-16.8
				c0-11.5-2.4-20.3-7.3-26.4c-4.9-6.1-11.9-9.2-21.2-9.2c-3.5,0-6.6,0.5-9.2,1.5c-2.6,1-4.6,2-5.8,2.9c0.4,1.8,0.9,4.5,1.5,7.9
				c0.6,3.4,1,6.1,1,7.9c0,2.8-1.2,5.4-3.7,7.7c-2.4,2.3-6,3.5-10.6,3.5c-4.1,0-7.1-1.4-8.8-4.2c-1.8-2.8-2.6-6.1-2.6-9.8
				c0-3.1,0.8-6,2.5-9c1.7-2.9,4.3-5.8,7.9-8.5c3.1-2.4,7.2-4.5,12.4-6.3c5.2-1.8,10.7-2.6,16.3-2.6c8.1,0,15.3,1.3,21.5,3.8
				C728.1,97.9,733.3,101.3,737.3,105.6z M709.8,244.7c0,4.3-1.5,7.9-4.6,10.9c-3.1,3-6.8,4.5-11,4.5c-4.3,0-8-1.5-11.1-4.5
				c-3.1-3-4.6-6.7-4.6-10.9s1.5-8,4.6-11.1c3.1-3.1,6.8-4.6,11.1-4.6c4.3,0,8,1.5,11,4.6C708.3,236.8,709.8,240.5,709.8,244.7z"/>
		</g>
	</g>
	<g>
		<path d="M147.2,396.2c-3.1,10.6-18.4,37.8-31.3,26.9c-3.2-3.5-4.7-8.2-4.3-13c0.2-8.3,1.2-16.5,3-24.6c0.9-5.8-8-8-9.4-2.3
			c-2.9,14.7-7.5,33.6,3.4,45.5c18.6,20.5,41.7-12,46.7-30.4C157.2,392.7,149,390.6,147.2,396.2z"/>
		<path d="M113.4,374.3c4.7-0.2,8.4-4.1,8.4-8.8s-3.7-8.6-8.4-8.8c-4.7,0.2-8.4,4.1-8.4,8.8S108.7,374.1,113.4,374.3z"/>
		<path d="M769.6,322.3c-20-2.2-38.9,4.2-58,8.8c2.1-7.6,4.5-15.1,7.1-22.5c1.9-5.6-6.9-8-8.8-2.4c-3.1,9-5.8,18-8.2,27.2
			c-17.6,3.3-38,3.4-51.9-9.4c-4.3-4-10.8,2.5-6.5,6.5c16.7,15.4,36,15.9,56.1,12.4c-4,17.3-6.1,35-6.4,52.7
			c-0.3,0.4-0.5,0.9-0.6,1.5c-3.6,13.5-6.9,26.9-10.9,40.4c-2.4,8.3-9.1,30.5-20.7,17.4c-8.5-9.6-10.2-23.9-14.7-35.4
			c-10.3-26.4-29.1-19.8-40.8,1.7c-1.2-10.3-2.4-20.6-3.3-30.9c12.7-19.7,41-89.2,26.1-109.1c-2-3-5.2-5.1-8.8-5.8
			c-3.6-0.7-7.3,0.1-10.3,2.2c-23.8,17.5-21.3,72.5-16.3,116.3c-10.2,6.5-19.7,14-28.5,22.3c-2.2-16.4-0.5-33.2,5.2-48.7
			c2.2-5.5-6.7-7.9-8.8-2.4c-1.3,3.4-2.4,6.8-3.3,10.3c-13.6-10.4-28.1-3.6-33.5,11.4c-1.5,4.1-2.4,9.1-2.1,13.8
			c-2.8,18.2-12.3,72.2-30,61.1c-5.5-3.5-6.7-10.6-7.2-16.6c-1.8-22.1,0.5-44.4,6.7-65.7c0.4-1.5,0-3-1-4.2c-1-1.1-2.5-1.7-4-1.5
			c-2-0.1-3.8,1.2-4.3,3.2c-2.3,8.7-4.2,17.6-6.5,26.4c-3.7,14-13.4,40.1-15.9,8.1c-0.7-9.2,0.3-18.5,3-27.3c0.7-2.4-0.8-5-3.2-5.6
			c-2.4-0.7-5,0.8-5.6,3.2c-1.5,4.8-2.5,9.7-3,14.7c-6.4,7.1-14.7,12.4-23.9,15.2c6.1-20,5.1-44.5-10.4-60c-9-9-23.1-12.7-33.8-4.3
			c-12.4,9.8-14.2,26-9.8,40.5c-0.9,0.8-1.5,1.9-1.6,3.1c-0.2,2.4-0.3,4.8-0.4,7.2c-3.5,13.2-6.8,26.3-10.7,39.4
			c-2.4,8.3-9.1,30.5-20.7,17.4c-8.5-9.6-10.2-23.9-14.7-35.4c-10.3-26.4-29.1-19.8-40.8,1.7c-1.2-10.3-2.4-20.6-3.3-30.9
			c12.7-19.7,41-89.2,26.1-109.1c-2-3-5.2-5.1-8.8-5.8c-3.6-0.7-7.3,0.1-10.3,2.2c-11.2,8.2-16.6,24.8-18.6,44.5
			c-15.7,0.6-30.9,5.5-46.2,9.2c2.1-7.6,4.5-15.1,7.1-22.5c1.9-5.6-6.9-8-8.8-2.4c-3.1,9-5.8,18-8.2,27.2c-17.6,3.3-38,3.4-51.9-9.4
			c-4.3-4-10.8,2.5-6.5,6.5c16.7,15.4,36,15.9,56.1,12.4c-6.9,29.9-8.3,60.8-4.1,91.3c2,13.9,4.9,34.2,17.6,42.9
			c16,10.9,32.8-5.7,38.6-19.6c4.6-12.5,8.5-25.2,11.8-38c0.9,6.8,1.7,12.9,2.3,17.9c0.1,0.9,0.2,1.9,0.4,2.8
			c0.6,2.1,2.5,3.4,4.7,3.4c2.1,0,4-1.5,4.6-3.5c1.6-6.5,4.3-12.7,8.1-18.3c11.3-16.8,17.8-12.4,23.2,5c2,6.2,3.9,12.5,6.2,18.6
			c11,28.7,33.8,31.5,43.3,0c1.8-6.1,3.5-12.3,5-18.5c0.3,2,0.5,4,0.9,5.9c2.2,11.4,7.4,25.4,21.5,24c17.8-1.8,23.1-21.3,28.8-35.4
			c9.9-1.8,19.1-6.3,26.6-12.8c-0.2,7.9,1.6,15.6,5.2,22.6c2.4,3.3,6.3,5.1,10.3,4.7c4-0.4,7.5-2.9,9.2-6.6
			c-0.1,14-0.8,34.8,14.5,41.5c6.6,2.6,14,1.2,19.2-3.6c5.4-5.5,9.2-12.3,11.1-19.7c3.5-11.1,6.3-22.4,8.4-33.8
			c8.6,6.4,21.4-1.2,26.4-10c0.2,7,0.7,14,1.7,21c-26,30.2-53,68.2-49.8,109.9c2.1,27.4,29,45.3,50.9,23.9
			c35.1-34.3,15-88.5,8.6-130.9c8.5-9,18-17.1,28.1-24.2c1.6,13.3,3.3,25.2,4.3,34c0.1,0.9,0.2,1.9,0.4,2.8c0.6,2.1,2.5,3.4,4.7,3.4
			c2.1,0,4-1.5,4.6-3.5c1.6-6.5,4.3-12.7,8.1-18.3c11.3-16.8,17.8-12.4,23.2,5c2,6.2,3.9,12.5,6.2,18.6c11,28.7,33.8,31.5,43.3,0
			c2-6.8,3.8-13.6,5.5-20.5c0.3,3.1,0.6,6.2,1.1,9.4c2,13.9,4.9,34.2,17.6,42.9c16,10.9,32.8-5.7,38.6-19.6
			c7.1-19.2,12.6-38.9,16.6-59c0.4-1.5,0-3.1-1.1-4.2c-1.1-1.1-2.7-1.5-4.2-1.1c-1.5,0.4-2.6,1.7-2.9,3.2
			c-3.5,14.4-7.5,28.5-11.8,42.7c-1.9,8.4-5.2,16.5-9.8,23.8c-14.7,16.5-25.6,6.5-30.1-11.4c-8.7-36.4-8.4-74.3,1-110.5
			c20.5-4.6,41.4-11.5,60.5-9.4C775.5,332.1,775.4,323,769.6,322.3z M297.2,284.6c7.1,2.8,4.5,16.6,3.5,22.3
			c-3.8,23.1-11.1,45.5-21.5,66.4c-0.8-14-0.9-28-0.5-42c0.7,0.1,1.3,0.1,2,0.2c5.9,0.6,5.8-8.5,0-9.2c-0.5-0.1-1-0.1-1.4-0.1
			C280.7,309.4,286.4,280.4,297.2,284.6z M271,396.3c-3.5,14.4-7.5,28.5-11.8,42.7c-1.9,8.4-5.2,16.5-9.8,23.8
			c-14.7,16.5-25.6,6.5-30.1-11.4c-8.7-36.4-8.4-74.3,1-110.5c16.1-3.6,32.5-8.6,48.1-9.6c-1.1,20.6,0.8,43.6,3.1,64
			C271.2,395.6,271.1,395.9,271,396.3z M399.8,445.3c-19.4,13.1-20-31.9-20.1-43c7.5,11.6,20,18.8,33.8,19.5
			C409.8,430,407.5,440.1,399.8,445.3z M416.5,413.2c-24.1,1.2-43.7-28.1-34.6-50.3c4.3-10.5,14.7-14.9,24.3-8
			C424.4,367.8,423.1,394.1,416.5,413.2z M549.6,393L549.6,393c-2.3,5.9-12,18.9-17,12.4c-1.5-1.9-2.2-4.5-2.1-7.4
			c0-0.2,0.1-0.4,0.1-0.6c0.1-0.6,0.1-1.1,0-1.7c1.3-11,11.6-23.2,22.1-12.3C551.8,386.7,550.8,389.8,549.6,393z M563.4,531.3
			L563.4,531.3c-8.4,26.8-38.6,41.5-47.2,6.8c-8.9-35.8,20.3-75.1,41.8-102c0.7,3.8,1.4,7.5,2.1,11.2
			C565.5,474.6,572,503.8,563.4,531.3z M600.5,326.5c0.3-8.3,6-46.7,18.4-41.8c7.1,2.8,4.5,16.6,3.5,22.3
			c-3.8,23.1-11.1,45.5-21.5,66.4C599.8,357.7,599.7,342.1,600.5,326.5z"/>
	</g>
	<g>
		<g>
			<path d="M208.7,511.8c-1,0.1-2.6,0.5-4.8,1.2c-2.2,0.7-3.8,1.5-4.7,2.2c-2.3,1.4-3.9,2.5-4.7,3.3c-0.8,0.8-2.4,2.8-4.8,6
				c-4.6,6.5-8.9,13.1-12.8,19.8c-3.9,6.7-8.8,15.2-14.7,25.5c-2.2,3.8-3.6,6.8-4.4,9.2s-1.1,5.7-1.1,10v24.1c0,2.1,0.4,4,1.3,5.6
				c0.9,1.6,2.3,2.8,4.4,3.8c1.2,0.5,3.5,1.1,6.7,1.7c3.2,0.7,5.8,1.1,7.7,1.1v6.3h-59v-6.3c1.7-0.1,4.1-0.3,7.5-0.7
				c3.3-0.3,5.6-0.8,6.9-1.3c2.1-0.9,3.6-2.1,4.4-3.6c0.8-1.5,1.2-3.4,1.2-5.7v-30.7c0-0.9-0.6-2.7-1.7-5.2
				c-1.2-2.5-2.5-5.3-4.1-8.4c-3.6-6.9-7.5-14.3-11.8-22.3c-4.3-8-8.1-14.8-11.3-20.5c-2-3.4-3.7-5.9-5.2-7.6
				c-1.5-1.7-3.2-3.2-5.2-4.5c-1.4-0.9-3.1-1.6-5.1-2c-2-0.5-3.8-0.8-5.4-0.9v-6.3h53.8v6.3c-6,0.1-10.3,0.5-12.8,1.2
				c-2.5,0.7-3.7,1.7-3.7,3c0,0.4,0.2,1,0.5,1.9c0.4,0.9,0.9,2,1.5,3.4c0.8,1.5,1.7,3.3,2.8,5.3c1.1,2,2.1,3.9,3,5.7
				c2.8,5.3,5.6,10.5,8.5,15.8c2.9,5.2,6.7,12.1,11.4,20.5c9.3-15,16.4-26.7,21.3-35.1c4.9-8.4,7.3-13.4,7.3-15.1
				c0-1.4-0.5-2.5-1.5-3.3c-1-0.8-2.3-1.5-4-2c-1.7-0.5-3.6-0.8-5.6-0.9c-2-0.1-3.9-0.3-5.6-0.5v-6.3h43.9V511.8z"/>
			<path d="M314.5,520.4c5.6,5.8,9.9,12.8,13.1,21c3.1,8.2,4.7,17.3,4.7,27.2c0,10-1.6,19.1-4.8,27.3c-3.2,8.2-7.6,15.1-13.3,20.9
				c-5.5,5.7-11.9,10.1-19.2,13.2s-15.1,4.6-23.3,4.6c-8.8,0-16.9-1.6-24.3-4.9c-7.4-3.3-13.8-7.9-19.2-13.7
				c-5.3-5.7-9.5-12.7-12.6-20.9c-3.1-8.2-4.6-17-4.6-26.4c0-10.3,1.6-19.4,4.8-27.4c3.2-8,7.6-15,13.2-20.8
				c5.6-5.8,12-10.3,19.4-13.3c7.4-3.1,15.1-4.6,23.2-4.6c8.4,0,16.2,1.6,23.6,4.7C302.7,510.3,309.1,514.7,314.5,520.4z
				 M301.3,609.8c3.3-5.4,5.7-11.5,7.2-18.3c1.5-6.8,2.3-14.4,2.3-22.8c0-8.7-0.8-16.6-2.5-23.8c-1.7-7.2-4.2-13.4-7.4-18.5
				c-3.3-5-7.3-9-12.3-11.8c-4.9-2.8-10.6-4.2-16.9-4.2c-7.1,0-13.2,1.6-18.1,4.9c-5,3.3-9,7.6-12.2,13.1c-3,5.2-5.2,11.3-6.6,18.3
				c-1.5,7-2.2,14.3-2.2,22c0,8.5,0.8,16.2,2.3,23.1c1.5,6.9,4,13,7.3,18.3c3.2,5.2,7.2,9.3,12.1,12.2c4.9,2.9,10.7,4.4,17.4,4.4
				c6.3,0,12.1-1.5,17.2-4.4C293.9,619.3,298.1,615.2,301.3,609.8z"/>
			<path d="M475.7,511.8c-1.7,0.1-4.1,0.4-7.3,1.1c-3.2,0.7-5.8,1.6-7.8,2.9c-2,1.4-3.4,4.2-4.2,8.4c-0.8,4.3-1.2,9.5-1.2,15.6v54.9
				c0,7-1.5,13.1-4.4,18.2c-2.9,5.2-6.7,9.4-11.5,12.7c-4.7,3.2-9.6,5.5-14.8,6.9c-5.2,1.4-10.2,2.1-14.9,2.1c-7.6,0-14.3-1-20.3-3
				c-5.9-2-10.9-4.7-14.9-8c-4-3.4-7-7.2-9-11.6c-2-4.4-3-8.9-3-13.6v-74.6c0-2.1-0.3-3.8-1-5.2c-0.7-1.4-2.1-2.7-4.1-3.9
				c-1.5-0.8-3.4-1.5-5.7-2c-2.3-0.5-4.2-0.8-5.7-0.9v-6.3h52.5v6.3c-1.7,0.1-3.7,0.3-6.3,0.8c-2.5,0.5-4.4,0.9-5.6,1.3
				c-2,0.7-3.4,1.9-4,3.6c-0.7,1.7-1,3.5-1,5.4v69.6c0,3.4,0.4,6.9,1.1,10.6c0.7,3.7,2.2,7.2,4.4,10.3c2.3,3.3,5.5,5.9,9.4,8
				c4,2.1,9.4,3.1,16.4,3.1c6.5,0,12-1,16.4-3.1c4.4-2.1,7.9-4.8,10.4-8.2c2.4-3.2,4.1-6.5,5.2-10c1-3.5,1.5-7,1.5-10.6V541
				c0-6.6-0.5-11.9-1.4-16.1c-0.9-4.2-2.3-6.9-4.2-8.2c-2.1-1.5-4.9-2.6-8.5-3.5c-3.6-0.8-6.3-1.3-8.2-1.4v-6.3h51.6V511.8z"/>
		</g>
	</g>
	<g>
		<g>
			<path d="M165.8,721.5c2.2,2.5,3.9,5.2,4.9,8.1c1.1,3,1.6,6.4,1.6,10.3c0,9.3-3.4,17-10.3,23.1c-6.9,6-15.4,9.1-25.7,9.1
				c-4.7,0-9.4-0.7-14.1-2.2c-4.7-1.5-8.8-3.2-12.2-5.3l-3.2,5.4h-6l-1-36.1h6c1.2,4.5,2.7,8.5,4.4,12.1c1.7,3.6,3.9,7,6.6,10.1
				c2.6,2.9,5.6,5.3,9,7c3.4,1.7,7.4,2.6,12,2.6c3.4,0,6.4-0.4,9-1.3s4.6-2.2,6.2-3.8c1.6-1.6,2.8-3.6,3.5-5.8
				c0.8-2.2,1.2-4.8,1.2-7.6c0-4.2-1.2-8.2-3.6-11.8c-2.4-3.6-5.9-6.4-10.6-8.3c-3.2-1.3-6.9-2.7-11.1-4.3c-4.2-1.6-7.8-3-10.8-4.4
				c-5.9-2.7-10.6-6.2-13.9-10.5c-3.3-4.3-4.9-10-4.9-17c0-4,0.8-7.8,2.5-11.2c1.6-3.5,4-6.6,7-9.3c2.9-2.6,6.3-4.6,10.2-6.1
				c3.9-1.5,8-2.2,12.3-2.2c4.9,0,9.2,0.7,13.1,2.2c3.8,1.5,7.4,3.2,10.5,5.2l3.1-5.1h5.9l0.6,35h-6c-1.1-4-2.3-7.9-3.7-11.5
				c-1.4-3.7-3.1-7-5.3-10c-2.1-2.9-4.7-5.2-7.8-6.9s-6.8-2.6-11.3-2.6c-4.7,0-8.7,1.5-12,4.5c-3.3,3-5,6.7-5,11.1
				c0,4.6,1.1,8.3,3.2,11.3c2.1,3,5.2,5.5,9.3,7.4c3.6,1.7,7.2,3.2,10.7,4.5c3.5,1.3,6.9,2.6,10.2,4.1c3,1.3,5.8,2.8,8.6,4.4
				C161.3,717.4,163.7,719.3,165.8,721.5z"/>
			<path d="M283.9,769.9h-43.9v-5.3c3.9-0.2,7.1-0.7,9.6-1.5c2.6-0.7,3.8-1.7,3.8-2.8c0-0.4-0.1-1-0.1-1.6s-0.2-1.2-0.4-1.7
				l-8.7-23.7h-37c-1.4,3.5-2.5,6.5-3.4,9.1c-0.9,2.6-1.7,5-2.3,7.1c-0.6,2.1-1.1,3.9-1.3,5.2c-0.2,1.3-0.4,2.4-0.4,3.3
				c0,2,1.6,3.5,4.7,4.6c3.1,1.1,6.6,1.7,10.6,1.9v5.3h-39.7v-5.3c1.3-0.1,2.9-0.4,4.8-0.9c1.9-0.5,3.5-1.1,4.8-1.9
				c2-1.3,3.5-2.7,4.6-4.2c1.1-1.5,2.2-3.5,3.2-6.1c5.3-13.2,11.2-28.1,17.6-44.6c6.4-16.5,12.1-31.2,17.1-44.1h5.9l35.2,91
				c0.7,1.9,1.6,3.5,2.5,4.7c0.9,1.2,2.3,2.4,3.9,3.5c1.1,0.7,2.6,1.3,4.5,1.7c1.8,0.5,3.4,0.7,4.6,0.8V769.9z M241.5,726.8l-16-41
				l-15.8,41H241.5z"/>
			<path d="M333.8,769.9h-47.5v-5.3c1.3-0.1,3.3-0.2,5.8-0.4c2.5-0.2,4.3-0.5,5.4-0.9c1.6-0.6,2.8-1.5,3.6-2.6
				c0.7-1.1,1.1-2.7,1.1-4.6v-76.5c0-1.7-0.3-3.2-0.8-4.3c-0.5-1.2-1.8-2.1-3.9-2.9c-1.5-0.6-3.4-1.2-5.6-1.7
				c-2.3-0.5-4.1-0.8-5.5-0.9v-5.3h47.5v5.3c-1.5,0.1-3.4,0.2-5.5,0.6c-2.1,0.3-4,0.7-5.6,1.2c-1.9,0.6-3.1,1.6-3.8,2.9
				c-0.6,1.3-1,2.8-1,4.5v76.4c0,1.6,0.4,3.1,1.1,4.4c0.7,1.3,1.9,2.3,3.7,3c1,0.4,2.7,0.8,5.1,1.3c2.4,0.5,4.3,0.7,6,0.8V769.9z"/>
			<path d="M448.2,717.8c0,9-1.7,16.8-5.1,23.4c-3.4,6.6-7.8,12-13.2,16.2c-5.5,4.2-11.6,7.4-18.4,9.4c-6.8,2.1-13.8,3.1-21,3.1
				h-43.7v-5.3c1.4,0,3.3-0.1,5.6-0.4c2.3-0.3,3.8-0.6,4.6-0.9c1.5-0.6,2.6-1.6,3.2-2.9c0.7-1.3,1-2.8,1-4.6v-76.2
				c0-1.7-0.3-3.2-0.9-4.5c-0.6-1.3-1.7-2.4-3.4-3.2c-1.5-0.7-3.2-1.3-5-1.6c-1.8-0.3-3.3-0.6-4.6-0.7v-5.3h46.1
				c6.3,0,12.6,1,18.7,2.9c6.1,2,11.5,4.6,16.1,7.9c6.2,4.4,11.1,10.2,14.6,17.3C446.4,699.7,448.2,708.1,448.2,717.8z M429.9,717.8
				c0-7.1-0.9-13.5-2.8-19.2c-1.9-5.7-4.6-10.7-8.3-15c-3.4-4.1-7.6-7.3-12.6-9.6c-5-2.3-10.5-3.5-16.6-3.5c-2,0-4.3,0-6.9,0.1
				c-2.6,0.1-4.5,0.1-5.7,0.2v81.1c0,4.5,1.3,7.6,3.9,9.4c2.6,1.7,6.7,2.6,12.1,2.6c6.3,0,11.8-1.1,16.5-3.3
				c4.7-2.2,8.5-5.3,11.5-9.3c3.1-4.2,5.3-9,6.7-14.5C429.2,731.3,429.9,725,429.9,717.8z"/>
			<path d="M600,727.9c-1.2,0.1-2.8,0.4-4.8,0.7c-2,0.3-3.6,0.8-4.9,1.4c-1.5,0.7-2.5,1.8-3.2,3.2c-0.6,1.4-0.9,3-0.9,4.8v8.2
				c0,5.9,0,10,0.1,12c0.1,2.1,0.2,3.8,0.3,5.1c-6.6,3-13.2,5.3-19.7,6.8c-6.5,1.6-13,2.4-19.3,2.4c-6.7,0-13.2-1.3-19.5-3.8
				c-6.2-2.5-11.7-6.1-16.4-10.8c-4.7-4.7-8.5-10.4-11.2-17.2c-2.8-6.7-4.2-14.3-4.2-22.6c0-8,1.3-15.5,4-22.4
				c2.7-6.9,6.4-12.8,11.3-17.9c4.7-5,10.3-8.8,16.8-11.6c6.5-2.8,13.5-4.1,20.9-4.1c5.9,0,11.1,0.7,15.5,2.2
				c4.4,1.4,8.3,3.2,11.7,5.2l3.1-5.1h5.9l0.7,36.9h-6.1c-1-4.1-2.3-8.1-3.9-12c-1.5-3.9-3.5-7.5-6-10.6c-2.4-3.1-5.4-5.6-8.9-7.5
				c-3.5-1.9-7.7-2.8-12.5-2.8c-5.3,0-10.1,1.1-14.2,3.2c-4.2,2.2-7.8,5.4-10.9,9.6c-3,4.1-5.4,9.3-7,15.4c-1.6,6.2-2.5,13-2.5,20.6
				c0,6.7,0.8,13,2.4,18.9c1.6,5.9,4,11.1,7,15.4c3.1,4.4,6.9,7.9,11.5,10.4c4.6,2.5,9.9,3.8,15.7,3.8c4.4,0,8.4-0.7,12-2
				c3.6-1.3,6.1-2.8,7.6-4.2c0.4-2.6,0.6-5.2,0.6-7.8c0-2.6,0-4.9,0-6.7v-5.8c0-2.1-0.3-3.9-0.9-5.5c-0.6-1.6-1.7-2.8-3.5-3.5
				c-1.6-0.7-3.9-1.3-6.7-1.7c-2.8-0.4-5-0.6-6.6-0.7v-5.4H600V727.9z"/>
			<path d="M654.5,769.9h-47.5v-5.3c1.3-0.1,3.3-0.2,5.8-0.4c2.5-0.2,4.3-0.5,5.4-0.9c1.6-0.6,2.8-1.5,3.6-2.6
				c0.7-1.1,1.1-2.7,1.1-4.6v-76.5c0-1.7-0.3-3.2-0.8-4.3c-0.5-1.2-1.8-2.1-3.9-2.9c-1.5-0.6-3.4-1.2-5.6-1.7
				c-2.3-0.5-4.1-0.8-5.5-0.9v-5.3h47.5v5.3c-1.5,0.1-3.4,0.2-5.5,0.6c-2.1,0.3-4,0.7-5.6,1.2c-1.9,0.6-3.2,1.6-3.8,2.9
				c-0.6,1.3-1,2.8-1,4.5v76.4c0,1.6,0.4,3.1,1.1,4.4c0.7,1.3,1.9,2.3,3.7,3c1,0.4,2.7,0.8,5.1,1.3c2.4,0.5,4.3,0.7,6,0.8V769.9z"/>
			<path d="M776,669.7c-1.4,0.1-3.5,0.4-6.4,1.2c-2.9,0.7-4.9,1.5-6.2,2.3c-1.8,1.2-3,3.6-3.6,7.1c-0.6,3.5-0.9,8-0.9,13.4V771h-6.5
				l-64-86.3v54.4c0,6.1,0.4,10.8,1.2,14.1c0.8,3.3,1.9,5.6,3.5,7c1.1,1.1,3.5,2.1,7.1,3c3.6,0.9,5.9,1.4,7.1,1.5v5.3H664v-5.3
				c1.3-0.1,3.6-0.6,6.8-1.5c3.2-0.9,5.2-1.6,5.9-2.3c1.7-1.4,2.9-3.5,3.6-6.4c0.6-2.9,1-7.7,1-14.6v-52c0-2.3-0.4-4.6-1.2-6.8
				c-0.8-2.3-1.9-4-3.2-5.3c-1.8-1.6-4.2-3-7.3-4.2c-3.1-1.2-5.5-1.8-7.4-1.9v-5.3h30.2l59.3,80.5v-50.2c0-6.1-0.4-10.9-1.2-14.2
				c-0.8-3.3-1.9-5.5-3.4-6.6c-1.4-0.9-3.7-1.9-6.8-2.8c-3.2-0.9-5.5-1.4-7.2-1.5v-5.3H776V669.7z"/>
		</g>
	</g>
</g>
</svg>


