<?xml version="1.0" standalone="no"?>
<!DOCTYPE svg PUBLIC "-//W3C//DTD SVG 20010904//EN"
 "http://www.w3.org/TR/2001/REC-SVG-20010904/DTD/svg10.dtd">
<svg version="1.0" xmlns="http://www.w3.org/2000/svg"
 width="1063.000000pt" height="1063.000000pt" viewBox="0 0 1063.000000 1063.000000"
 preserveAspectRatio="xMidYMid meet">

<g transform="translate(0.000000,1063.000000) scale(0.100000,-0.100000)"
fill="#000000" stroke="none">
<path d="M6033 9941 c-73 -25 -126 -65 -167 -124 -53 -79 -69 -141 -64 -246 7
-150 72 -252 195 -308 74 -34 72 -55 -14 -130 -36 -32 -79 -76 -95 -97 -52
-73 -30 -142 53 -166 84 -24 175 -1 289 75 162 107 248 266 269 497 26 275
-57 448 -239 502 -70 21 -162 20 -227 -3z"/>
<path d="M8325 9914 c-125 -22 -358 -28 -549 -14 -440 34 -608 2 -741 -142
-133 -143 -215 -375 -215 -604 0 -163 34 -295 116 -458 80 -157 166 -255 419
-481 341 -303 468 -468 511 -664 19 -84 15 -184 -10 -242 -20 -47 -77 -96
-121 -105 -75 -14 -178 22 -317 111 -106 68 -170 136 -249 261 -38 62 -81 120
-96 129 -72 47 -174 21 -232 -60 -68 -95 -101 -197 -132 -410 -40 -274 -36
-392 17 -594 44 -168 103 -249 224 -309 53 -26 59 -27 195 -23 197 5 481 5
755 0 265 -5 292 -1 428 62 226 104 382 284 487 564 85 225 87 540 4 790 -108
327 -342 629 -787 1013 -187 162 -237 229 -267 354 -30 126 -16 215 43 280 45
50 85 68 154 68 136 0 307 -147 423 -361 59 -110 93 -139 165 -139 91 0 163
84 197 229 25 107 26 431 1 511 -29 92 -76 161 -136 196 -47 29 -74 36 -177
49 -16 2 -66 -3 -110 -11z"/>
<path d="M2299 9910 c-271 -26 -386 -112 -418 -311 -18 -111 0 -214 94 -540
62 -215 102 -399 111 -511 12 -141 -21 -290 -140 -633 -109 -316 -150 -528
-150 -780 1 -181 20 -294 73 -430 95 -246 250 -389 470 -432 170 -34 309 13
442 147 193 194 275 474 248 848 -17 245 -52 411 -139 652 -96 269 -131 423
-131 575 0 136 15 214 96 525 76 290 93 370 105 500 14 152 -9 252 -71 304
-36 30 -127 65 -199 76 -88 14 -297 19 -391 10z"/>
<path d="M3272 9901 c-95 -33 -159 -99 -188 -195 -48 -160 -53 -336 -14 -511
39 -173 94 -245 194 -253 50 -4 56 -2 93 31 22 20 59 72 82 116 24 44 65 104
93 135 59 67 189 156 226 156 47 0 90 -34 102 -82 7 -24 36 -133 66 -243 121
-443 132 -569 71 -805 -20 -74 -58 -200 -87 -280 -195 -553 -218 -1026 -64
-1333 123 -246 291 -367 508 -367 267 0 464 165 575 482 44 127 61 240 61 412
0 260 -53 512 -180 856 -90 243 -104 315 -98 515 5 149 5 152 87 470 91 356
95 365 170 365 83 0 250 -150 317 -283 60 -119 89 -146 157 -147 55 0 98 22
140 70 46 54 64 108 82 246 18 138 19 205 0 325 -18 123 -46 196 -95 252 -78
88 -169 101 -469 63 -247 -31 -284 -32 -442 -5 -106 18 -152 20 -314 16 -123
-3 -220 -11 -275 -22 -109 -22 -334 -16 -500 14 -141 26 -228 26 -298 2z"/>
<path d="M3165 5789 c-27 -6 -120 -9 -205 -8 -342 6 -380 2 -522 -53 -87 -33
-205 -106 -274 -170 -51 -47 -151 -173 -202 -253 -74 -119 -148 -303 -177
-444 -17 -83 -35 -339 -35 -511 0 -201 42 -476 106 -698 91 -314 321 -591 564
-681 122 -45 187 -55 345 -51 268 5 328 4 430 -4 82 -7 111 -6 156 7 99 29
175 126 216 277 22 79 24 358 4 485 -35 220 -122 365 -220 365 -65 0 -119 -48
-250 -224 -153 -204 -274 -244 -399 -131 -79 71 -154 237 -197 435 -25 117
-33 595 -11 717 58 335 222 563 404 563 30 0 70 -8 90 -17 63 -29 162 -139
223 -248 45 -80 63 -104 92 -118 46 -23 86 -16 132 25 65 56 102 224 92 413
-11 217 -88 321 -244 330 -37 2 -90 -1 -118 -6z"/>
<path d="M4392 5775 c-159 -38 -309 -153 -416 -317 -177 -273 -283 -622 -348
-1148 -19 -157 -16 -492 6 -615 74 -414 294 -675 661 -781 112 -32 304 -43
422 -24 367 58 621 281 736 646 143 455 4 1340 -290 1844 -77 131 -224 278
-338 337 -44 23 -108 48 -141 57 -74 19 -217 20 -292 1z m61 -847 c31 -22 87
-113 87 -142 0 -28 15 -9 30 37 14 45 61 102 101 123 62 32 122 12 187 -61 50
-57 66 -113 60 -210 -7 -113 -64 -220 -175 -336 -47 -48 -109 -104 -138 -125
l-54 -37 -58 34 c-67 40 -176 144 -222 212 -57 83 -83 162 -89 262 -4 78 -1
98 17 142 29 66 69 103 128 119 55 14 86 9 126 -18z"/>
<path d="M5775 5772 c-85 -55 -123 -131 -137 -279 -13 -128 1 -291 32 -361 38
-85 104 -131 169 -117 36 8 60 34 100 110 17 33 49 81 71 107 74 86 252 188
330 188 41 0 87 -43 101 -93 22 -83 -11 -317 -65 -460 -81 -215 -263 -503
-526 -832 -201 -252 -282 -392 -326 -560 -35 -136 -31 -272 9 -356 30 -63 121
-155 183 -187 114 -58 222 -69 439 -43 305 36 432 43 978 48 563 6 783 -1
1137 -37 200 -19 271 -16 338 19 84 43 143 136 179 276 24 95 24 367 0 474
-32 144 -111 264 -192 291 -49 16 -84 -3 -199 -109 -80 -74 -118 -100 -200
-140 -125 -61 -256 -104 -400 -134 -102 -20 -138 -22 -431 -22 -262 1 -356 5
-519 23 -217 24 -238 31 -262 88 -13 31 -12 45 6 133 41 201 73 272 350 756
401 702 486 911 439 1080 -15 54 -76 110 -142 130 -83 26 -370 31 -532 10
-146 -19 -430 -21 -565 -5 -47 6 -141 13 -210 16 -112 5 -128 3 -155 -14z"/>
<path d="M7601 5765 c-128 -36 -166 -116 -125 -270 26 -101 145 -300 351 -588
l85 -118 -35 -107 c-55 -166 -70 -257 -64 -386 5 -126 27 -200 82 -283 116
-175 386 -193 526 -35 148 168 168 405 59 715 l-41 115 106 148 c305 427 387
619 312 732 -16 25 -44 49 -74 63 -45 23 -58 24 -238 24 -176 0 -193 -2 -231
-22 -71 -38 -78 -59 -68 -187 17 -207 3 -357 -44 -496 -37 -107 -70 -59 -107
154 -19 112 -19 155 0 289 14 99 14 111 -3 159 -14 45 -24 57 -62 78 -42 23
-56 25 -210 27 -123 2 -179 -1 -219 -12z"/>
<path d="M2637 2614 c-5 -5 -138 -9 -295 -9 -276 0 -289 -1 -328 -22 -112 -60
-196 -251 -179 -408 17 -162 92 -287 266 -441 208 -184 277 -280 286 -398 11
-132 -61 -180 -180 -120 -96 49 -134 82 -183 158 -48 76 -84 102 -122 89 -34
-12 -72 -58 -92 -111 -28 -75 -53 -262 -46 -343 7 -82 39 -187 67 -223 31 -39
96 -69 149 -68 25 0 169 2 320 4 l275 3 73 39 c86 46 150 113 197 206 112 222
92 457 -57 685 -49 75 -197 232 -359 380 -79 73 -103 119 -104 202 0 55 3 65
29 92 16 16 41 33 57 36 67 15 186 -77 245 -189 67 -128 166 -88 195 78 26
151 -8 299 -78 339 -35 20 -124 33 -136 21z"/>
<path d="M3153 2610 c-164 -25 -187 -119 -107 -435 72 -286 71 -349 -11 -605
-24 -74 -50 -173 -59 -219 -20 -104 -21 -297 -2 -368 30 -114 92 -202 174
-251 55 -32 111 -34 332 -15 188 17 1008 26 1140 13 58 -5 135 -13 172 -16 86
-9 143 16 187 82 43 66 56 131 56 279 -1 112 -4 138 -24 190 -28 71 -80 125
-120 125 -17 0 -57 -22 -114 -64 -139 -102 -234 -139 -446 -172 -188 -29 -589
-17 -727 22 -67 18 -107 63 -133 149 -23 74 -47 243 -56 390 -5 96 -5 99 11
70 46 -86 127 -165 167 -165 23 0 114 87 143 136 52 89 55 158 8 214 -36 42
-82 42 -118 -1 -14 -17 -26 -35 -26 -40 0 -5 -4 -9 -10 -9 -5 0 -10 7 -10 15
0 9 -11 27 -25 40 -33 34 -78 33 -112 -1 l-26 -26 7 78 c10 104 40 254 60 292
32 63 92 66 200 13 69 -34 121 -83 163 -156 94 -162 214 -38 201 206 -4 64
-12 101 -31 142 -36 79 -63 91 -186 83 -245 -16 -345 -18 -418 -8 -123 17
-204 21 -260 12z"/>
<path d="M4204 2606 c-71 -32 -81 -92 -33 -201 21 -48 33 -93 36 -142 7 -89
-9 -125 -102 -237 -37 -44 -77 -98 -90 -120 -54 -94 -71 -236 -39 -331 52
-152 256 -205 376 -97 65 59 81 105 88 265 6 138 14 165 44 154 13 -5 16 -27
16 -130 0 -162 15 -216 79 -278 143 -138 364 -59 401 143 22 115 -19 238 -121
370 -33 42 -74 107 -91 143 -26 58 -30 74 -25 121 3 31 19 85 36 121 42 89 42
150 2 195 -27 31 -34 33 -93 33 -77 0 -145 -35 -184 -95 l-26 -40 -29 40 c-60
83 -168 121 -245 86z m251 -292 c23 -25 24 -25 34 -5 25 46 85 37 107 -16 14
-33 14 -38 -8 -81 -13 -27 -42 -61 -66 -79 -41 -31 -45 -32 -70 -19 -58 31
-112 106 -112 157 0 26 44 69 70 69 12 0 32 -12 45 -26z"/>
<path d="M5937 2614 c-5 -5 -138 -9 -295 -9 -276 0 -289 -1 -328 -22 -112 -60
-196 -251 -179 -408 17 -162 92 -287 266 -441 208 -184 277 -280 286 -398 11
-132 -61 -180 -180 -120 -96 49 -134 82 -183 158 -48 76 -84 102 -122 89 -34
-12 -72 -58 -92 -111 -28 -75 -53 -262 -46 -343 7 -82 39 -187 67 -223 31 -39
96 -69 149 -68 25 0 169 2 320 4 l275 3 73 39 c86 46 150 113 197 206 112 222
92 457 -57 685 -49 75 -197 232 -359 380 -79 73 -103 119 -104 202 0 55 3 65
29 92 16 16 41 33 57 36 67 15 186 -77 245 -189 67 -128 166 -88 195 78 26
151 -8 299 -78 339 -35 20 -124 33 -136 21z"/>
<path d="M6715 2597 c-64 -22 -105 -46 -158 -96 -142 -132 -240 -361 -297
-695 -77 -451 -26 -759 155 -940 202 -202 551 -230 796 -65 112 76 201 214
241 375 18 74 22 117 21 254 -1 300 -74 613 -201 865 -36 71 -63 107 -126 170
-111 110 -169 138 -296 142 -60 2 -110 -2 -135 -10z m296 -550 c19 -12 44 -42
57 -67 30 -57 25 -136 -14 -212 -29 -58 -129 -167 -182 -200 l-33 -20 -56 38
c-109 75 -183 200 -183 310 0 97 37 151 109 161 53 7 83 -13 115 -75 14 -26
25 -41 26 -34 1 30 35 85 64 103 40 24 56 24 97 -4z"/>
<path d="M7660 2599 c-48 -19 -88 -59 -105 -104 -24 -60 -17 -112 45 -351 66
-253 65 -331 -5 -534 -131 -379 -123 -654 26 -815 59 -63 108 -87 195 -93 92
-6 131 8 197 68 99 91 141 204 140 385 0 139 -20 242 -85 441 -46 143 -52 170
-55 269 -4 88 -1 114 11 130 19 26 46 11 58 -31 28 -99 81 -401 103 -589 14
-121 32 -262 40 -312 36 -224 159 -363 323 -363 77 0 117 16 177 71 53 49 86
101 117 185 18 49 22 82 22 194 1 156 -19 263 -84 453 -48 141 -64 231 -57
311 4 34 27 142 52 241 57 226 65 304 37 367 -33 76 -56 83 -257 83 -163 0
-172 -1 -214 -25 -93 -53 -105 -153 -45 -375 75 -283 79 -306 66 -397 -20
-139 -54 -142 -97 -7 -40 126 -71 260 -114 484 -22 116 -44 222 -49 235 -14
36 -51 67 -97 79 -49 13 -311 13 -345 0z"/>
</g>
</svg>
