<?xml version="1.0" encoding="utf-8"?>
<!-- Generator: Adobe Illustrator 18.0.0, SVG Export Plug-In . SVG Version: 6.00 Build 0)  -->
<svg version="1.2" baseProfile="tiny" xmlns="http://www.w3.org/2000/svg" xmlns:xlink="http://www.w3.org/1999/xlink"
	 x="0px" y="0px" viewBox="0 0 1080 1296" xml:space="preserve" width="500" height="500">
<g>
	<g>
		<path fill="#231F20" d="M878.5,658.6c-17.8,0-35.7,0.1-53.5-0.1c-3.5,0-8.7,1.3-10.1-1.7c-1.3-2.7,0.6-5.2,5.2-6.6
			c6.2-1.9,12.5-3.8,19.1-5.2c17.9-3.9,26.1-10.4,25.8-21.2c-0.6-23.7-0.6-47.5-4.7-71.2c-1.1-6.5-4.8-12.4-14.3-16.3
			c-40.4-16.8-46-39.2-35.4-64.1c9.7-22.8,14.5-45.9,15.7-69.3c0.2-3.5,1.9-4.8,8.8-4.8c29.3,0.2,58.7,0.1,88,0c5.5,0,8.8,0.3,8.9,4
			c0.4,28.2,11.5,55.6,19.4,83.2c5.3,18.6-4.4,34.8-32,47c-14,6.2-20.8,14-22,23.8c-2.9,22.9-3.8,45.7-3.9,68.6
			c-0.1,9.6,7.6,15.7,23.5,19.4c7.2,1.7,14.3,3.7,21.2,5.7c4.8,1.4,6.4,4,5.2,6.6c-1.3,3-6.6,1.7-10.1,1.7
			C915,658.7,896.7,658.6,878.5,658.6z M877.9,450.1c13.9,0,27.7-0.1,41.6,0c5.8,0.1,7.7-1,6.7-4.1c-3.8-12.2-4.9-24.6-6.2-37
			c-0.4-3.5-2.9-4.2-8.7-4.2c-21.4,0.1-42.7,0.2-64.1,0c-6.8-0.1-8.7,1.3-8.9,4.8c-0.9,12.2-2.5,24.3-6.1,36.3
			c-1,3.2,0.8,4.2,6.6,4.2C851.8,450,864.8,450.1,877.9,450.1z M860.8,534.4c10.6,8.2,12.1,16.4,13.2,24.7
			c2.8,20.9,2.3,41.9,3.3,62.8c0.6,12.9-6.5,22.6-28.6,28.3c-0.4,0.1-0.3,0.7-0.4,1c20.6,0,41.2,0,63.1,0
			c-29.7-11.9-30.1-12.2-30.1-31.8c0-12-0.9-24,0.8-35.9c2.3-16.6-2.6-33.9,15.4-49.7C885.4,535.3,874.3,534.9,860.8,534.4z"/>
	</g>
	<g>
		<path fill="#231F20" d="M205.3,658.6c-17.8,0-35.7,0.1-53.5-0.1c-3.5,0-8.7,1.3-10.1-1.7c-1.3-2.7,0.6-5.2,5.2-6.6
			c6.2-1.9,12.5-3.8,19.1-5.2c17.9-3.9,26.1-10.4,25.8-21.2c-0.6-23.7-0.6-47.5-4.7-71.2c-1.1-6.5-4.8-12.4-14.3-16.3
			c-40.4-16.8-46-39.2-35.4-64.1c9.7-22.8,14.5-45.9,15.7-69.3c0.2-3.5,1.9-4.8,8.8-4.8c29.3,0.2,58.7,0.1,88,0c5.5,0,8.8,0.3,8.9,4
			c0.4,28.2,11.5,55.6,19.4,83.2c5.3,18.6-4.4,34.8-32,47c-14,6.2-20.8,14-22,23.8c-2.9,22.9-3.8,45.7-3.9,68.6
			c-0.1,9.6,7.6,15.7,23.5,19.4c7.2,1.7,14.3,3.7,21.2,5.7c4.8,1.4,6.4,4,5.2,6.6c-1.3,3-6.6,1.7-10.1,1.7
			C241.8,658.7,223.5,658.6,205.3,658.6z M204.7,450.1c13.9,0,27.7-0.1,41.6,0c5.8,0.1,7.7-1,6.7-4.1c-3.8-12.2-4.9-24.6-6.2-37
			c-0.4-3.5-2.9-4.2-8.7-4.2c-21.4,0.1-42.7,0.2-64.1,0c-6.8-0.1-8.7,1.3-8.9,4.8c-0.9,12.2-2.5,24.3-6.1,36.3
			c-1,3.2,0.8,4.2,6.6,4.2C178.6,450,191.6,450.1,204.7,450.1z M187.6,534.4c10.6,8.2,12.1,16.4,13.2,24.7
			c2.8,20.9,2.3,41.9,3.3,62.8c0.6,12.9-6.5,22.6-28.6,28.3c-0.4,0.1-0.3,0.7-0.4,1c20.6,0,41.2,0,63.1,0
			c-29.7-11.9-30.1-12.2-30.1-31.8c0-12-0.9-24,0.8-35.9c2.3-16.6-2.6-33.9,15.4-49.7C212.2,535.3,201.1,534.9,187.6,534.4z"/>
	</g>
	<g>
		<path fill="#231F20" d="M203.4,949.4c0,1.1,0.1,2.4,0.2,3.8c0,5-0.2,12.3-0.5,21.8c-0.9,28.1-1.7,55.7-2.3,82.6
			s-0.8,49.5-0.6,67.8c-0.8,4-3.8,6.7-8.8,8c-2,0.6-4.6,1-7.7,1s-6-0.6-8.6-1.8c-1.8-0.6-3.4-2-4.7-4.1c-1.4-2.1-2.5-5.8-3.4-11.1
			s-1.4-13-1.7-23.2c-0.2-12.1-0.1-26.6,0.2-43.5c0.4-16.9,0.8-33.3,1.3-49.1c0.3-9.5,0.5-17.9,0.6-25.2c0.1-3.5,0.2-6.7,0.3-9.6
			c0.1-7.2,0.3-12.6,0.5-16.3V950c-6.3,0.1-12.1,0.1-17.4,0c-4.8-0.1-8.7-0.2-11.6-0.4c-2.9-0.2-5.1-0.4-6.5-0.7
			c-1.5-0.2-2.5-0.5-3.2-0.8c-0.6-0.3-1.1-0.6-1.4-0.9c-1.4-1.2-2.2-2.5-2.4-4c-0.2-1.6,0.5-3.4,2.1-5.3c0.4-0.6,1.3-1.3,2.5-1.9
			c1.3-0.6,3.4-1.2,6.5-1.8c3.1-0.6,7.7-1,13.8-1.5c9.9-0.6,21.9-1,35.9-1.2c14-0.2,26.3-0.2,36.7,0c6.3,0.2,11.3,0.4,14.8,0.6
			c3.6,0.2,6.2,0.5,7.9,0.9c1.7,0.4,2.9,0.8,3.6,1.3c2.5,1.5,3.8,3.2,3.8,5.3c0.2,2.2-0.5,4.1-2.1,5.8c-0.5,0.6-1.4,1-2.7,1.4
			c-1.3,0.4-3.5,0.7-6.8,1c-3.3,0.3-8.2,0.6-14.7,0.8C220.3,948.9,212.3,949.1,203.4,949.4z"/>
		<path fill="#231F20" d="M365.1,1013c0.1-3.9,0.2-7.7,0.3-11.5c0.3-9.5,0.5-17.9,0.6-25.2l0.3-9.6c0.1-7.2,0.2-12.6,0.4-16.3
			s0.4-6.3,0.9-8c0.4-1.7,1.1-3.1,2.1-4.2c1.5-2,3.4-3.5,5.9-4.5c2.5-1,5-1.4,7.5-1.4c2.7,0,5.3,0.5,7.7,1.4c2.4,1,4.1,2.3,5.3,4
			c0.8,1,1.4,2.5,1.8,4.7c0.4,2.1,0.6,5.7,0.6,10.7c0,5,0,12.3-0.2,21.8c-0.8,28.1-1.5,55.7-2,82.6c-0.5,26.9-0.7,49.5-0.6,67.8
			c-0.7,4-3.4,6.7-7.9,8c-1.9,0.6-4.2,1-7,1c-2.8,0-5.4-0.6-7.8-1.8c-1.6-0.6-3-2-4.3-4.1c-1.3-2.1-2.3-5.8-3.1-11.1
			c-0.8-5.3-1.3-13-1.5-23.2c-0.1-12.1,0-26.6,0.3-43.5c0.1-6.7,0.3-13.3,0.5-20c-5.2,0.4-11,0.7-17.5,0.8c-8.4,0.2-15.9,0.2-22.4,0
			c-5.5-0.2-9.6-0.5-12.3-0.8c-0.3,9.2-0.5,18.3-0.6,27.3c-0.6,26.9-0.8,49.5-0.6,67.8c-0.8,4-3.8,6.7-8.8,8c-2,0.6-4.5,1-7.7,1
			c-3.1,0-6-0.6-8.6-1.8c-1.8-0.6-3.4-2-4.7-4.1c-1.4-2.1-2.5-5.8-3.4-11.1c-0.9-5.3-1.4-13-1.7-23.2c-0.2-12.1-0.1-26.6,0.2-43.5
			c0.4-16.9,0.8-33.3,1.3-49.1c0.3-9.5,0.5-17.9,0.6-25.2c0.1-3.6,0.2-6.7,0.3-9.6c0.1-7.2,0.3-12.6,0.5-16.3c0.2-3.7,0.5-6.3,1-8
			c0.4-1.7,1.2-3.1,2.2-4.2c1.7-2,3.9-3.5,6.6-4.5c2.7-1,5.5-1.4,8.4-1.4c2.9,0,5.7,0.5,8.4,1.4c2.6,1,4.6,2.3,5.8,4
			c1,1,1.6,2.5,2.1,4.7c0.4,2.1,0.7,5.7,0.7,10.7c0.1,5-0.1,12.3-0.4,21.8c-0.4,13.3-0.8,26.5-1.3,39.5c2.1-0.2,4.8-0.4,8-0.6
			c6.7-0.4,14.8-0.8,24.2-1.1C352.6,1013.1,359.3,1013,365.1,1013z"/>
		<path fill="#231F20" d="M474.5,1134.8c-3.1,0-5.9-0.6-8.5-1.8c-1.8-0.6-3.4-2-4.7-4.1c-1.4-2.1-2.5-5.8-3.3-11.1
			c-1.3-6.9-1.9-19-1.9-36c0-19.4,0.6-46,1.7-79.7c0.3-9.5,0.5-17.9,0.6-25.2l0.3-9.6c0.2-13.1,0.7-21.2,1.4-24.3
			c0.4-1.7,1.2-3.1,2.2-4.2c1.7-2,3.9-3.5,6.6-4.5c2.7-1,5.5-1.4,8.4-1.4c2.9,0,5.7,0.5,8.4,1.4c4.4,1.6,7,4.5,7.9,8.6
			c0.4,2.3,0.6,7.3,0.6,14.9c0,4.6-0.1,10.5-0.3,17.7c-1,28.1-1.7,55.7-2.2,82.6c-0.4,20.2-0.6,37.9-0.6,53.3v14.5
			c-0.8,4-3.8,6.7-8.8,8C480.2,1134.5,477.7,1134.8,474.5,1134.8z"/>
		<path fill="#231F20" d="M630.6,1073.2c0.1-7,0.2-14.6,0.3-22.9c0.3-17.7,0.7-34.6,1.3-50.9c0.2-9.1,0.4-17.1,0.5-24.1
			c0.1-3.6,0.2-6.7,0.3-9.6c0.1-7.1,0.2-12.5,0.4-16.1s0.3-6.8,0.6-9.4c0.2-2.6,1.2-4.6,2.8-6.1c1.7-1.5,4.1-2.3,7.2-2.5
			c3.1-0.2,5.9,0.2,8.3,1.2c2.4,1,4.2,2.3,5.4,4c0.8,1,1.4,2.5,1.8,4.7c0.4,2.1,0.6,5.7,0.6,10.6c0,5-0.1,12.2-0.4,21.8
			c-0.7,28.1-1.4,56-2,83.6c-0.6,27.6-0.8,50.5-0.6,68.8c-0.7,4-3.4,6.7-8.1,8.1c-1.8,0.6-4.1,0.8-6.8,0.8c-2.4,0-4.9-0.2-7.3-0.7
			c-2.5-0.5-5-1.7-7.7-3.5c-1.2-0.8-2.3-2.2-3.5-4.2c-1.2-2-2.6-5.4-4.2-10.2c-1.6-4.8-3.9-11.8-6.7-21c-4.1-14-8.7-31.7-13.9-53.1
			c-4.2-17.3-8.2-32.5-11.8-45.7c-0.6,20.6-1.2,41-1.6,61c-0.6,26.9-0.8,49.5-0.6,67.8c0.1,3-1.4,5.2-4.7,6.7
			c-3.2,1.5-6.8,2.2-10.7,2.2c-3.9,0-6.9-0.5-9.2-1.4c-2.2-0.9-4-2.4-5.4-4.5c-1.4-2.1-2.5-5.8-3.4-11.1c-0.9-5.3-1.4-13-1.7-23.2
			c-0.2-12.1-0.1-26.6,0.2-43.5c0.4-16.9,0.8-33.3,1.3-49.1c0.3-9.5,0.5-17.9,0.6-25.2c0.1-3.6,0.2-6.7,0.3-9.6
			c0.1-7.2,0.3-12.6,0.5-16.3s0.5-6.3,1-8c0.4-1.7,1.2-3.1,2.2-4.2c1.7-2,3.9-3.5,6.6-4.5c2.7-1,5.5-1.4,8.4-1.4
			c2.9,0,5.7,0.5,8.4,1.4c8.2,3,14,7.8,17.3,14.3c3.3,6.6,6.7,14.7,10.2,24.5c5.7,17.9,11.3,41.1,16.9,69.7
			C626.3,1053.9,628.5,1064,630.6,1073.2z"/>
		<path fill="#231F20" d="M769.2,1132c-4.4,0-9.2-0.7-14.4-2.2c-5.2-1.5-10.1-3.8-14.8-7.1c-11-7.8-18.8-18.8-23.4-33
			c-4.4-15.5-6.6-31.1-6.6-46.9l0.2-6.9c0.2-20.8,3.6-41.2,10.3-61.3c4.8-13.8,11.5-24.9,20-33.4c8.5-8.5,19.6-13.1,33.4-13.8h1.4
			c10.1,0,19.1,2.4,27,7.3c12.8,8.3,19.3,23.5,19.3,45.7c0,4.7-0.4,9.4-1.1,14.1l-0.2,0.5c-0.4,2.4-1,4.9-1.8,7.3
			c-0.8,2.5-2.1,4.7-4,6.8c-1.7,1.9-3.9,2.8-6.8,2.8c-1.3,0-2.5-0.3-3.8-0.8c-4.1-2.4-6.5-6.3-7.3-11.7c-0.4-4.4-0.6-8.7-0.6-13.2
			l0.2-10c0-3.7-0.2-7.5-0.6-11.3c-0.5-5.9-2.6-10.4-6.2-13.5c-1.9-1.7-4.3-2.5-7.1-2.5c-1.5,0-2.9,0.3-4.4,0.8
			c-5.2,2.5-9.1,6.9-11.7,13.3c-4.8,11.6-8.1,23.5-9.8,35.8c-3.2,18-4.7,36-4.7,54.2c0,12.7,1.3,25.4,3.8,37.9l0.2,0.8
			c0.8,5,2.7,9.6,5.7,13.9c1.9,2.4,4.6,4,8.1,4.8c1.4,0.3,2.7,0.5,3.9,0.5c2,0,4-0.4,6-1.1c6.4-3.9,10.7-8.9,12.9-15.1
			c2.5-6.8,4-13.7,4.6-20.9c0.4-1,0.6-3.3,0.6-7c0-3.7-0.5-7.4-1.4-11c-1.5-5.2-5.9-8.3-13.4-9.6c-2.6-0.3-5-1.1-7.1-2.3
			c-1.7-1.2-2.5-2.7-2.5-4.5c0-1.5,0.7-2.7,2.1-3.8c2.3-1.4,4.9-2.2,7.7-2.4l4.3-0.2c3.9,0,8.6,0.6,14,1.7c3.3,0.6,6.3,1.8,9,3.4
			c5.3,4.3,8.4,9.6,9.3,15.6c0.5,3.5,0.8,6.9,0.8,10.4c0,11.6-3.2,24.3-9.5,38.2c-5.1,11.1-11.9,19.3-20.7,24.4
			C783.9,1130.2,777,1132,769.2,1132z"/>
		<path fill="#231F20" d="M891.1,1136c-4.5,0-9.1-0.6-13.6-1.9c-5.6-1.8-10.3-4.4-14.3-7.8c-3.9-3.4-7-7.2-9.2-11.3
			c-4.9-9.3-7.4-20.5-7.4-33.6v-3.1l0.2-1.5c0-5.4,1-10.6,3.2-15.7c0.5-1.5,1.6-2.7,3.1-3.6c1.5-0.9,3.1-1.3,4.8-1.3
			c2.4,0,4.4,0.8,6,2.5c1.2,1.4,1.9,2.8,2.4,4.3c1.4,5.1,2.2,10.2,2.4,15.4c0.1,2.7,0.4,5.4,0.8,8.1c0.4,4.8,1.3,9.4,2.5,13.8
			c1,3.1,2.9,6.1,5.4,8.8c2.6,2.7,5.9,4.7,10,5.9c1.5,0.3,2.9,0.5,4.4,0.5c1.9,0,4.1-0.4,6.7-1.2c2.6-0.8,5-2.2,7.3-4.1
			c4.7-4.3,8.1-9.1,10.1-14.6c1.2-2.8,1.7-5.7,1.7-8.7c0-1.8-0.2-3.5-0.6-5.3c-2.2-8.7-8.3-17.5-18.2-26.4
			c-3.4-3.1-6.8-6.1-10.3-9.1c-8-6.4-15.2-13.2-21.5-20.4c-9.8-12-14.7-25.7-14.7-41.1c0-1.9,0.1-3.9,0.3-5.9
			c0.7-12.3,4.6-22.8,11.5-31.4c8.7-10.5,21.2-16.2,37.4-17.2h2.2c3.3,0,6.5,0.3,9.8,0.8c12,2.6,20.9,8.2,26.7,16.8
			c5.4,8.4,8.1,18.7,8.1,31v2.3c0,5.5-0.8,10.9-2.5,16.2c-0.4,1.5-1.3,2.8-2.7,3.9c-1.4,1-2.9,1.6-4.7,1.6h-0.8
			c-3.8-0.6-6.1-2.8-6.9-6.7c-0.5-3.2-1-6.4-1.3-9.6c-1.4-13.3-4.6-22.7-9.6-28.2c-2.7-3-6.5-4.5-11.2-4.5c-1.2,0-2.4,0.1-3.6,0.4
			c-4,0.9-7.4,2.5-10.2,4.9c-2.8,2.4-4.8,5.1-5.9,8.2c-1.4,3.6-2.1,7.1-2.1,10.8c0,2,0.4,5,1.3,8.9c0.8,3.9,3.2,8.4,7.1,13.4
			c5.8,6.6,12.2,12.9,19.1,18.9c4.3,3.7,8.5,7.6,12.5,11.6c14.2,13.4,21.3,29,21.3,46.9c0,7.7-1.5,15.5-4.4,23.2
			c-2.3,6-5.8,11.5-10.4,16.8c-4.6,5.2-10.4,9.5-17.2,12.9C908.3,1134.1,899.9,1136,891.1,1136z"/>
	</g>
	<g>
		<path fill="#231F20" d="M141.9,885.6c0-31.4,0.2-62.8,0.6-94.1c0.4-31.3,0.6-62.7,0.6-94.1c0-1.9,0.8-3.4,2.5-4.7
			c1.7-1.2,3.7-2.2,6.1-3c2.4-0.7,4.9-1.2,7.6-1.6c2.7-0.3,5.1-0.5,7.2-0.5c2.1,0,4.4,0.2,6.8,0.5c2.5,0.3,4.8,0.9,7,1.7
			c2.2,0.8,4,2,5.4,3.6c1.4,1.6,2.2,3.5,2.2,5.8c0,30.4-0.2,60.6-0.6,90.8c-0.4,30.2-0.6,60.4-0.6,90.8c0,3.5-0.5,6.3-1.6,8.4
			c-1,2.1-2.5,3.6-4.4,4.7c-1.9,1-4.2,1.7-6.9,2c-2.7,0.3-5.6,0.5-8.7,0.5c-1.5,0-3.5-0.1-6.1-0.2c-2.6-0.1-5.2-0.5-7.8-1.2
			c-2.6-0.7-4.8-1.8-6.7-3.3C142.8,890.4,141.9,888.3,141.9,885.6z M150,820.1c0,2.5,1.4,3.7,4,3.7c2.5,0,3.7-1.2,3.7-3.7
			c0.2-1.2-0.1-2.2-0.9-2.8c-0.8-0.6-1.8-0.9-2.8-0.9C151.8,816.3,150.4,817.6,150,820.1z M150,831.9c0,2.5,1.4,3.7,4,3.7
			c2.5,0,3.7-1.2,3.7-3.7c0.2-1.2-0.1-2.2-0.9-2.8c-0.8-0.6-1.8-0.9-2.8-0.9C151.8,828.2,150.4,829.4,150,831.9z M151.6,722.4
			c-0.4,2.3-0.6,5.3-0.5,8.9c0.1,3.6,0.2,6.8,0.2,9.5c0,1.5-0.1,4.1-0.2,8c-0.1,3.9-0.2,8.2-0.3,13.1c-0.1,4.9-0.2,10.1-0.3,15.6
			c-0.1,5.5-0.2,10.6-0.2,15.3s0,8.7,0,12c0,3.3,0.2,5.3,0.6,5.9c0.4,1,1.3,1.6,2.8,1.6c2.3,0,3.4-1,3.4-3.1c0-2.9,0.1-7.1,0.3-12.6
			c0.2-5.5,0.4-11.3,0.5-17.3c0.1-6,0.2-11.9,0.2-17.5c0-5.6-0.1-10.1-0.3-13.4v-25.6c0-0.6-0.4-1.2-1.1-1.9c-0.7-0.6-1.4-0.9-2-0.9
			C153,719.9,152,720.7,151.6,722.4z"/>
		<path fill="#231F20" d="M314.3,896.5c-7.9,0-13.7-1.5-17.4-4.4c-3.7-2.9-5.6-8.3-5.6-16.2V698.4c0-1.9,0.8-3.4,2.5-4.7
			c1.7-1.2,3.7-2.2,6.1-3c2.4-0.7,4.9-1.2,7.5-1.6c2.6-0.3,4.9-0.5,7-0.5c2.1,0,4.4,0.2,6.8,0.5c2.5,0.3,4.9,0.9,7.2,1.7
			c2.3,0.8,4.2,2,5.8,3.6c1.6,1.6,2.3,3.5,2.3,5.8c0,1.2-0.1,4.6-0.2,10c-0.1,5.4-0.2,11.8-0.3,19.2c-0.1,7.4-0.2,15.3-0.3,23.9
			c-0.1,8.5-0.2,16.5-0.2,24c5.4-5.8,10.9-12.8,16.5-20.9c5.6-8.1,10.7-16.2,15.4-24.3c4.7-8.1,8.6-15.6,11.8-22.6
			c3.2-7,5.1-12.2,5.8-15.8c0.4-1.7,1.9-3,4.5-4.1c2.6-1,5.7-1.6,9.2-1.6c2.7,0,5.4,0.3,8.1,0.9c2.7,0.6,5.2,1.6,7.5,3
			c2.3,1.4,4.1,3.1,5.6,5.3c1.4,2.2,2.2,4.8,2.2,8c0,3.3-1.3,8.5-3.9,15.6c-2.6,7.1-6.3,14.8-11,23.2c-4.8,8.4-10.4,17.1-17,25.9
			c-6.5,8.8-13.8,16.7-21.9,23.6c4.1,8.3,9,17,14.5,25.9c5.5,8.9,10.8,17.2,16,24.8c5.2,7.6,9.9,14,14.2,19.2c4.2,5.2,7.3,8.2,9.2,9
			c2.3,1,3.5,2.9,3.6,5.5c0.1,2.6-0.8,5.3-2.8,8.1c-2,2.8-5,5.3-9,7.3c-4,2.1-9,3.1-14.8,3.1c-3.1,0-6.5-1.5-10.3-4.4
			c-3.7-2.9-7.5-6.7-11.2-11.4c-3.7-4.7-7.5-9.9-11.2-15.8c-3.7-5.8-7.3-11.7-10.7-17.6c-3.4-5.9-6.5-11.6-9.3-17.2
			c-2.8-5.5-5.1-10.1-7-13.9l-3.7,3.7c0,5.8,0,11.9,0.2,18.3c0.1,6.3,0.2,12.4,0.3,18.1c0.1,5.7,0.2,10.8,0.3,15.1
			c0.1,4.4,0.2,7.5,0.2,9.4c0,3.5-0.6,6.3-1.7,8.4c-1.1,2.1-2.7,3.6-4.7,4.7c-2,1-4.3,1.7-7,2C320.3,896.3,317.4,896.5,314.3,896.5z
			 M299.4,726.1c0.4,2.5,1.8,3.7,4,3.7c1,0,2-0.3,2.8-0.9c0.8-0.6,1.1-1.6,0.9-2.8c0-2.5-1.2-3.7-3.7-3.7
			C300.7,722.4,299.4,723.7,299.4,726.1z M299.4,738c0.4,2.5,1.8,3.7,4,3.7c1,0,2-0.3,2.8-0.9c0.8-0.6,1.1-1.6,0.9-2.8
			c0-2.5-1.2-3.7-3.7-3.7C300.7,734.3,299.4,735.5,299.4,738z M300.3,833.2c0.4,1.7,1.4,2.5,3.1,2.5c0.6,0,1.3-0.3,2-0.9
			c0.7-0.6,1.1-1.2,1.1-1.9v-25.6c0.2-3.3,0.3-7.7,0.3-13.1c0-5.4,0-11,0-16.7c0-5.7-0.1-11.2-0.2-16.4c-0.1-5.2-0.2-9.3-0.2-12.2
			c0-2.1-1.1-3.1-3.4-3.1c-1.5,0-2.4,0.5-2.8,1.6c-0.2,0.6-0.4,2.6-0.6,5.8c-0.2,3.2-0.3,7.1-0.3,11.5c0,4.5,0,9.4,0.2,14.7
			c0.1,5.3,0.2,10.3,0.3,15c0.1,4.7,0.2,8.9,0.2,12.6s0,6.3,0,7.8c0,2.7,0,5.9-0.2,9.5C299.7,827.9,299.9,830.9,300.3,833.2z"/>
		<path fill="#231F20" d="M427.9,701.8c0-2.7,0.9-4.9,2.8-6.7c1.9-1.8,4.1-3.2,6.7-4.2c2.6-1,5.3-1.8,8.3-2.2
			c2.9-0.4,5.3-0.6,7.2-0.6c3.9,0,7.9,0.6,11.8,1.9c3.9,1.2,7.2,3.5,9.6,6.9c1.9,2.3,3.6,5.1,5.1,8.4c1.6,3.3,3.1,6.8,4.7,10.3
			c1.6,3.5,3,7.1,4.4,10.6c1.4,3.5,2.6,6.7,3.9,9.4c6,13.7,12.1,27.3,18.2,40.6c6.1,13.3,12.6,26.5,19.4,39.6
			c-0.4-3.5-0.7-7.1-0.8-10.6c-0.1-3.5-0.2-7.1-0.2-10.6c0-16.2-0.3-32.4-0.8-48.5c-0.5-16.1-0.8-32.3-0.8-48.5c0-2.1,1-3.8,3.1-5.1
			c2.1-1.4,4.5-2.4,7.3-3.1c2.8-0.7,5.5-1.2,8.2-1.4c2.7-0.2,4.8-0.3,6.2-0.3c2.1,0,4.3,0.2,6.7,0.5c2.4,0.3,4.6,0.9,6.7,1.9
			c2.1,0.9,3.8,2.2,5.1,3.9c1.3,1.7,2,3.9,2,6.6c0,30.6-0.6,61-1.9,91.4c-1.2,30.4-1.9,60.8-1.9,91.4c0,3.3-0.6,5.9-1.9,7.8
			c-1.2,1.9-2.9,3.2-4.8,4.1c-2,0.8-4.3,1.3-6.8,1.4c-2.6,0.1-5.1,0.2-7.6,0.2c-4.2,0-8-1.1-11.5-3.3c-3.5-2.2-6.5-4.9-9-8.3
			c-4.4-5.6-8.2-12.1-11.7-19.3c-3.4-7.3-6.7-14.1-9.8-20.6c-6-12.1-12-24.1-17.9-36.2c-5.9-12.1-12-24-18.2-35.9
			c1,18.1,1.7,36.2,2,54.3c0.3,18.1,0.5,36.2,0.5,54.3c0,6-2.1,10.1-6.4,12.2c-4.3,2.1-8.9,3.1-13.8,3.1c-1.9,0-4.2-0.2-6.8-0.5
			c-2.7-0.3-5.3-0.9-7.9-1.7c-2.6-0.8-4.8-2-6.7-3.6c-1.9-1.6-2.8-3.6-2.8-6.1V701.8z M436.6,729.9c-0.4,2.3-0.6,5.3-0.5,8.9
			c0.1,3.6,0.2,6.8,0.2,9.5c0,1.5,0,4.6,0,9.4c0,4.8,0,10.4-0.2,16.7c-0.1,6.3-0.2,13.1-0.2,20.1c0,7.1,0,13.6,0,19.7
			c0,6,0.1,11.2,0.3,15.4c0.2,4.3,0.4,6.7,0.6,7.3c0.4,1,1.3,1.6,2.8,1.6c2.3,0,3.4-1,3.4-3.1c0-2.9,0-8.1,0.2-15.4
			c0.1-7.4,0.2-15.3,0.2-23.7c0-8.4-0.1-16.4-0.2-24c-0.1-7.6-0.3-13-0.5-16.4v-25.6c0-0.6-0.4-1.2-1.1-1.9s-1.4-0.9-2-0.9
			C438.1,727.4,437,728.2,436.6,729.9z M436.6,846.3c0,2.5,1.4,3.7,4,3.7c2.5,0,3.7-1.2,3.7-3.7c0.2-1.2-0.1-2.2-0.9-2.8
			c-0.8-0.6-1.8-0.9-2.8-0.9C438.4,842.5,437,843.8,436.6,846.3z M536.8,787.9c0,0.8,0.4,1.5,1.2,1.9c0.8,0.4,1.7,0.6,2.5,0.6
			c0.6,0,1.3-0.3,2-0.9c0.7-0.6,1.1-1.3,1.1-1.9c0-8.7,0-16.1,0-22s0-11.1,0-15.6c0-4.5-0.1-8.5-0.2-12.2c-0.1-3.6-0.2-7.5-0.2-11.7
			c0-2.1-1.1-3.1-3.4-3.1c-1.5,0-2.4,0.5-2.8,1.6c-0.2,0.6-0.4,2.4-0.6,5.5c-0.2,3-0.3,6.6-0.3,10.8c0,4.2,0,8.7,0.2,13.6
			c0.1,4.9,0.2,9.6,0.2,14c0,4.5,0,8.5,0.2,12C536.8,784,536.8,786.5,536.8,787.9z M536.8,715.2c0.4,2.5,1.8,3.7,4,3.7
			c1,0,2-0.3,2.8-0.9c0.8-0.6,1.1-1.6,0.9-2.8c0-2.5-1.2-3.7-3.7-3.7C538.2,711.5,536.8,712.7,536.8,715.2z"/>
		<path fill="#231F20" d="M669.7,901.2c-23.9,0-42.3-8.6-55.2-25.7c-13-17.2-19.5-40.9-19.5-71.3c0-16.2,1.2-31.6,3.6-46
			c2.4-14.5,6.4-27.1,12-37.9c5.6-10.8,13.1-19.4,22.4-25.7c9.3-6.3,21.1-9.5,35.2-9.5c14.1,0,25.9,2.6,35.3,7.6
			c9.4,5.1,17.1,12.2,22.9,21.4c5.8,9.2,10,20,12.4,32.6c2.5,12.6,3.7,26.4,3.7,41.3c0,18.5-1.1,34.8-3.4,49
			c-2.3,14.1-6.2,25.9-11.7,35.4c-5.5,9.5-12.9,16.6-22.3,21.5C695.9,898.7,684,901.2,669.7,901.2z M600.3,816c0,2.5,1.4,3.7,4,3.7
			c2.5,0,3.7-1.2,3.7-3.7c0-2.7-1.2-4.1-3.7-4.1C601.7,811.9,600.3,813.3,600.3,816z M600.9,805.4c0,2.1,1,3.1,3.1,3.1
			c1.7,0,2.7-1,3.1-3.1c0.4-2.3,0.6-4.8,0.5-7.5c-0.1-2.7,0-5.2,0.2-7.5c0.4-5.6,1-11.7,1.7-18.3c0.7-6.6,1.8-13,3.3-19.5
			c1.4-6.4,3.4-12.6,5.8-18.6c2.4-5.9,5.2-11.2,8.6-15.8c0.8-1,2.4-2.8,4.7-5.1c2.3-2.4,3.4-4.1,3.4-5.1c0-2.1-1-3.1-3.1-3.1
			c-1,0-2.4,0.9-4.2,2.7c-1.8,1.8-3,3.2-3.6,4.2c-4.8,6.2-8.7,13.2-11.7,20.9c-3,7.7-5.4,15.7-7.2,23.9c-1.8,8.2-3,16.5-3.6,24.8
			C601.3,789.7,600.9,797.7,600.9,805.4z M601.3,827.5c0,2.5,1.3,3.7,4,3.7c2.5,0,3.7-1.2,3.7-3.7c0-2.7-1.2-4.1-3.7-4.1
			C602.6,823.5,601.3,824.8,601.3,827.5z M641.7,803.2c0,17.9,2.3,32.2,6.8,43.1s11.7,16.2,21.5,16.2c5,0,9.2-1.7,12.6-5
			c3.4-3.3,6.2-8,8.2-14c2.1-6,3.5-13.3,4.4-21.8c0.8-8.5,1.2-18.1,1.2-28.7c0-8.1-0.4-16.2-1.2-24.2c-0.8-8-2.3-15.1-4.5-21.4
			c-2.2-6.2-5.1-11.3-8.7-15.1c-3.6-3.8-8.1-5.8-13.5-5.8c-4.8,0-8.9,2.2-12.3,6.7c-3.4,4.5-6.2,10.3-8.4,17.6
			c-2.2,7.3-3.7,15.5-4.7,24.6C642.2,784.6,641.7,793.8,641.7,803.2z"/>
		<path fill="#231F20" d="M778.6,886.2c-1.7-8.1-3.3-17.7-4.8-28.7c-1.6-11-3-22.6-4.2-34.6c-1.2-12.1-2.4-24.1-3.4-36.2
			c-1-12.1-1.9-23.2-2.6-33.4c-0.7-10.2-1.3-19-1.7-26.4c-0.4-7.4-0.6-12.4-0.6-15.1c0-4.6,0.5-8.3,1.6-11.1c1-2.8,2.6-5,4.8-6.6
			c2.2-1.6,4.8-2.7,7.9-3.3c3.1-0.6,6.7-0.9,10.9-0.9c1.2,0,2.6,0.1,4.2,0.3c1.6,0.2,3.1,1.1,4.7,2.7c1.6,1.6,3,4,4.2,7.3
			c1.2,3.3,2.1,8.1,2.5,14.4c0,1,0.2,4.6,0.6,10.8c0.4,6.1,0.8,12.9,1.1,20.4c0.3,7.5,0.6,14.7,0.9,21.7c0.3,7,0.5,11.9,0.5,14.8
			c0,2.5,0.1,6.4,0.3,11.7c0.2,5.3,0.5,11,0.8,17.2c0.3,6.1,0.6,12.3,0.8,18.6c0.2,6.2,0.3,11.7,0.3,16.2c0.8-2.5,2.1-7.3,3.9-14.3
			c1.8-7.1,3.7-15.2,5.9-24.5c2.2-9.3,4.6-19,7.2-29.2c2.6-10.2,5.1-19.7,7.5-28.5c2.4-8.8,4.6-16.3,6.7-22.3
			c2.1-6,3.8-9.5,5.3-10.3c2.5-1.7,5.6-2.5,9.3-2.5c3.9,0,7.1,0.8,9.3,2.5c1.9,1.2,4,4.8,6.4,10.8c2.4,5.9,4.8,13.2,7.3,21.7
			c2.5,8.5,5,17.7,7.5,27.6c2.5,9.9,4.8,19.3,6.8,28.2c2.1,8.9,3.9,16.9,5.4,23.9c1.6,7,2.6,11.7,3.3,14.2c0.6-8.9,1.2-19,1.7-30.3
			c0.5-11.2,0.9-22.6,1.2-34.2c0.3-11.5,0.7-22.9,1.2-34c0.5-11.1,1.1-21.2,1.7-30.1c0.4-5.4,1.2-9.7,2.5-12.9
			c1.2-3.2,2.8-5.7,4.7-7.3c1.9-1.7,4-2.8,6.5-3.4c2.5-0.6,5.2-0.9,8.1-0.9c7.3,0,12.3,1.4,15.1,4.1c2.8,2.7,4.2,7.1,4.2,13.1
			c0,3.5-0.4,9.8-1.1,18.7c-0.7,8.9-1.7,19.1-2.8,30.6c-1.1,11.4-2.3,23.6-3.6,36.3c-1.2,12.8-2.4,24.9-3.6,36.2
			c-1.1,11.3-2.1,21.2-3,29.6c-0.8,8.4-1.4,14-1.6,16.7c-0.4,7.1-2.2,13-5.4,17.9c-3.2,4.9-8.1,7.3-14.8,7.3
			c-6.4,0-11.3-0.6-14.5-1.7c-3.2-1.2-6-2.8-8.2-4.8c-2.3-2.1-4.8-6.3-7.5-12.6c-2.7-6.3-5.6-14.2-8.7-23.6
			c-3.1-9.4-6.4-19.9-9.8-31.5c-3.4-11.6-6.9-23.9-10.4-36.8c-3.7,13.1-7,25.5-9.7,37.1c-2.7,11.7-5.2,22.2-7.6,31.5
			c-2.4,9.4-4.6,17.2-6.7,23.4c-2.1,6.2-4.3,10.4-6.5,12.5c-2.3,2.1-5.5,3.7-9.5,4.8c-4,1.1-7.5,1.7-10.4,1.7
			c-2.1,0-4.3-0.4-6.7-1.1c-2.4-0.7-4.7-1.8-6.9-3.1s-4-2.9-5.6-4.7C780,889.9,779.1,888.1,778.6,886.2z M768.7,730.5
			c-0.2,2.3-0.1,5.3,0.3,8.9c0.4,3.6,0.7,6.7,0.9,9.2c0.2,1.5,0.5,4.6,0.8,9.4c0.3,4.8,0.7,10.3,1.2,16.7c0.5,6.3,1,13,1.6,20
			c0.5,7,1,13.5,1.6,19.7c0.5,6.1,1,11.3,1.6,15.4c0.5,4.2,1,6.5,1.4,7.2c0.6,0.8,1.7,1.2,3.1,1.2c2.1-0.2,3.1-1.2,3.1-3.1
			c-0.2-2.9-0.6-8.1-1.1-15.4c-0.5-7.4-1.2-15.3-2-23.7c-0.8-8.4-1.6-16.4-2.3-23.9c-0.7-7.5-1.3-12.9-1.7-16.2
			c0-0.8-0.2-2.6-0.5-5.3c-0.3-2.7-0.6-5.6-0.8-8.6c-0.2-3-0.4-5.7-0.6-8c-0.2-2.3-0.3-3.5-0.3-3.7c0-0.6-0.4-1.2-1.2-1.7
			c-0.8-0.5-1.6-0.8-2.2-0.8C769.6,728.1,768.7,729.1,768.7,730.5z M778.6,846.3c0,1.2,0.5,2.1,1.4,2.6c0.9,0.5,1.9,0.8,3,0.8
			c2.3-0.4,3.4-1.8,3.4-4.1c0-2.3-1.4-3.4-4-3.4C779.9,842.4,778.6,843.8,778.6,846.3z M861.1,798.2c0.6,1.9,1.8,2.8,3.4,2.8
			c0.2,0,0.4,0,0.6-0.2c0.2-0.1,0.5-0.2,0.9-0.2c1-0.4,1.8-1,2.3-1.9c0.5-0.8,0.6-1.8,0.2-2.8c-0.6-1.9-1.8-2.8-3.4-2.8
			c-0.4,0-0.7,0.1-0.8,0.2c-0.1,0.1-0.3,0.2-0.5,0.2c-1.2,0.4-2.1,1-2.6,1.9C860.8,796.2,860.7,797.2,861.1,798.2z M882.3,867.8
			c0.4,1,1.4,1.6,2.8,1.6c0.6,0,1.1-0.1,1.6-0.3c0.6-0.2,1.2-0.7,1.7-1.6c0.5-0.8,0.7-1.5,0.5-1.9c-2.5-8.3-4.6-15.3-6.4-21.1
			c-1.8-5.7-3.3-10.7-4.7-14.8c-1.4-4.2-2.6-8-3.7-11.5c-1.1-3.5-2.3-7.3-3.6-11.2c-0.8-1.7-1.9-2.5-3.1-2.5c-0.2,0-0.4,0.1-0.5,0.2
			c-0.1,0.1-0.3,0.2-0.5,0.2c-1.7,0.4-2.5,1.2-2.5,2.5c0,0.6,0.4,2.4,1.1,5.3c0.7,2.9,1.7,6.3,3,10.3c1.2,4,2.6,8.3,4,13
			c1.4,4.7,2.8,9.2,4.2,13.4s2.6,8.1,3.7,11.4C881.1,863.9,881.9,866.3,882.3,867.8z"/>
	</g>
	<g>
		<path fill="#231F20" d="M337.2,525.2c-0.8,14.2-1.4,29.1-1.8,44.6c-0.5,18.8-1.3,34.4-2.1,46.9c-0.7,8.4-1.5,14.6-2.5,18.7
			c-1,4.1-2.1,6.8-3.3,8.1c-1.2,1.4-2.5,2.2-3.9,2.4c-4.4,1.2-8.3,0.9-11.8-1.1c-0.9-0.5-1.6-1.3-2.2-2.5c-0.6-1.2-1.1-3.2-1.5-6.1
			c-0.4-2.9-0.6-7-0.7-12.4c-0.1-5.4-0.1-12.6,0.2-21.6c0.3-19.3,1.5-42.9,3.6-70.6c2.1-27.7,5.6-52,10.5-73
			c5.1-19.3,11.6-32.5,19.4-39.9c7.8-7.3,16.2-11.2,25.1-11.4c9.1-1.1,17.8,1.4,26.2,7.6c8.4,6.2,15.4,18.9,20.9,38.2
			c5.2,21.1,8.7,45.9,10.5,74.6c1.7,28.7,2.3,53.1,1.8,73.3c-0.4,12.4-1.2,21.7-2.3,27.8s-2.4,10.3-3.9,12.4
			c-1.5,2.1-3.2,3.5-5.1,3.9c-5.5,2-10.7,1.9-15.9-0.4c-1.6-0.5-3.1-1.7-4.4-3.6c-1.3-2-2.5-5.6-3.4-10.9c-1-5.3-1.7-13.3-2.1-24
			c-0.7-16.4-1-36.3-1-59.8c0-7.4-0.1-14.6-0.2-21.4c-5.2,0.4-11.2,0.7-18,0.9c-8.4,0.2-15.8,0.2-22.3,0
			C343.1,525.6,339.8,525.5,337.2,525.2z M387.1,504.7c-0.2-10.2-0.5-19.8-0.8-28.7c-1-17.6-2.5-30.1-4.7-37.3
			c-2.1-7.2-4.8-11.5-8.1-12.7c-3.3-1.6-6.8-1.3-10.6,1c-3.8,2.3-7.3,6.6-10.7,12.9c-6.5,11.5-11.2,33.8-13.9,66.8
			c1.4-0.1,3-0.2,4.7-0.4c6.8-0.5,14.8-0.9,24.1-1.1C374.6,504.8,381.3,504.7,387.1,504.7z"/>
		<path fill="#231F20" d="M564.3,575.1c0.1-8.3,0.2-17.3,0.3-27c0.3-20.9,0.8-40.9,1.3-60.2c0.2-10.8,0.4-20.3,0.5-28.4
			c0.1-4.2,0.2-8,0.3-11.3c0.1-8.4,0.2-14.7,0.4-19.1c0.2-4.3,0.4-8,0.6-11.1c0.2-3.1,1.2-5.5,3-7.2c1.7-1.8,4.2-2.7,7.4-2.9
			c3.2-0.2,6.1,0.3,8.6,1.4c2.5,1.1,4.4,2.7,5.6,4.7c0.9,1.1,1.5,3,1.9,5.5c0.4,2.5,0.6,6.7,0.7,12.6c0.1,5.9-0.1,14.5-0.4,25.8
			c-0.8,33.3-1.4,66.2-2,98.8s-0.8,59.7-0.6,81.3c-0.8,4.8-3.6,8-8.3,9.6c-1.9,0.7-4.2,1-7,1c-2.5,0-5-0.3-7.6-0.9
			c-2.6-0.6-5.2-2-7.9-4.1c-1.2-1-2.4-2.6-3.6-4.9c-1.2-2.3-2.6-6.3-4.3-12c-1.7-5.7-4-13.9-7-24.8c-4.3-16.6-9.1-37.5-14.4-62.8
			c-4.4-20.4-8.5-38.4-12.3-54c-0.7,24.4-1.2,48.4-1.6,72.1c-0.6,31.8-0.9,58.6-0.6,80.2c0.1,3.5-1.5,6.2-4.8,7.9
			c-3.3,1.8-7,2.6-11,2.6c-4,0-7.2-0.5-9.5-1.6c-2.3-1.1-4.1-2.9-5.6-5.4c-1.4-2.5-2.6-6.8-3.5-13.1c-0.9-6.2-1.5-15.4-1.7-27.4
			c-0.2-14.3-0.1-31.5,0.2-51.5c0.4-20,0.8-39.4,1.4-58c0.3-11.2,0.5-21.2,0.7-29.7c0.1-4.2,0.2-8,0.3-11.3
			c0.1-8.5,0.3-14.9,0.5-19.2c0.2-4.3,0.5-7.5,1-9.5c0.4-2,1.2-3.7,2.3-5c1.7-2.4,4-4.1,6.9-5.3s5.7-1.7,8.7-1.7
			c3.1,0,5.9,0.6,8.7,1.7c8.5,3.5,14.5,9.2,17.9,16.9c3.4,7.8,7,17.4,10.6,28.9c5.9,21.2,11.7,48.6,17.5,82.3
			C559.8,552.2,562.1,564.2,564.3,575.1z"/>
		<path fill="#231F20" d="M690.3,635.3v2c-0.9,4.8-3.9,7.9-9.2,9.4c-2.1,0.8-4.7,1.1-7.9,1.1c-3.2,0-6.2-0.7-8.9-2.1
			c-1.9-0.8-3.5-2.4-4.9-4.9c-1.4-2.5-2.6-6.8-3.5-13.1c-0.9-6.2-1.5-15.4-1.7-27.4c-0.2-14.3-0.1-31.5,0.2-51.5
			c0.4-20,0.8-39.4,1.4-58c0.3-11.2,0.5-21.2,0.6-29.7c0.1-4.2,0.2-8,0.3-11.3c0.1-8.5,0.3-14.9,0.5-19.2c0.2-4.3,0.5-7.5,1-9.5
			c0.4-2,1.2-3.7,2.3-5c1.7-2.4,4-4.1,6.9-5.3c2.8-1.1,5.7-1.7,8.7-1.7c3.1,0,5.9,0.6,8.7,1.7c2.7,1.1,4.7,2.7,6.1,4.7
			c1,1.1,1.7,3,2.1,5.4c0.1,1,0.2,2.1,0.3,3.3c5.5-6.7,13.5-11.1,24.2-13.3c6.3-1.2,13.1-1.2,20.5,0.2c7.3,1.4,14.2,5,20.8,10.7
			c6.5,5.8,11.8,14.6,15.9,26.5c5.8,19.3,8.2,42.6,7.1,70.1c-1,27.5-4.8,51.5-11.2,72.1c-4.3,12.8-9.3,22.7-15.1,29.9
			s-11.9,12.2-18.1,15.3c-6.2,3.1-12.2,4.9-17.8,5.4c-8.4,0.8-15.4,0.1-21.1-2.1C695.3,638,692.6,636.7,690.3,635.3z M690.2,622.1
			c14.3,1,24.7-0.7,31.1-4.9c6.4-4.2,11.7-13.1,15.9-26.7c3.8-14.9,6-33,6.6-54.3s0.3-40.4-0.9-57.2c-1.1-15.6-2.7-27.2-4.8-34.6
			c-2.1-7.4-4.7-12.6-7.8-15.6c-6.7-6.6-13.5-7.1-20.6-1.6c-3.4,3.1-6.3,7.3-8.7,12.8c-2.4,5.5-4.2,11.4-5.4,17.7
			c-1.4,8.7-2.2,16.5-2.3,23.6c-1.2,29.6-2,54.9-2.3,75.8C690.4,581.8,690.2,603.5,690.2,622.1z"/>
	</g>
	<g>
		<path fill="#231F20" d="M142.3,361.7c0-31.4,0.2-62.8,0.6-94.1c0.4-31.3,0.6-62.7,0.6-94.1c0-1.9,0.8-3.4,2.5-4.7
			c1.7-1.2,3.7-2.2,6.1-3c2.4-0.7,4.9-1.2,7.6-1.6c2.7-0.3,5.1-0.5,7.2-0.5c2.1,0,4.4,0.2,6.8,0.5c2.5,0.3,4.8,0.9,7,1.7
			c2.2,0.8,4,2,5.4,3.6c1.4,1.6,2.2,3.5,2.2,5.8c0,30.4-0.2,60.6-0.6,90.8c-0.4,30.2-0.6,60.4-0.6,90.8c0,3.5-0.5,6.3-1.6,8.4
			c-1,2.1-2.5,3.6-4.4,4.7c-1.9,1-4.2,1.7-6.9,2c-2.7,0.3-5.6,0.5-8.7,0.5c-1.5,0-3.5-0.1-6.1-0.2c-2.6-0.1-5.2-0.5-7.8-1.2
			c-2.6-0.7-4.8-1.8-6.7-3.3C143.2,366.5,142.3,364.4,142.3,361.7z M150.4,296.2c0,2.5,1.4,3.7,4,3.7c2.5,0,3.7-1.2,3.7-3.7
			c0.2-1.2-0.1-2.2-0.9-2.8c-0.8-0.6-1.8-0.9-2.8-0.9C152.1,292.5,150.8,293.7,150.4,296.2z M150.4,308.1c0,2.5,1.4,3.7,4,3.7
			c2.5,0,3.7-1.2,3.7-3.7c0.2-1.2-0.1-2.2-0.9-2.8c-0.8-0.6-1.8-0.9-2.8-0.9C152.1,304.3,150.8,305.6,150.4,308.1z M151.9,198.5
			c-0.4,2.3-0.6,5.3-0.5,8.9c0.1,3.6,0.2,6.8,0.2,9.5c0,1.5-0.1,4.1-0.2,8c-0.1,3.9-0.2,8.2-0.3,13.1c-0.1,4.9-0.2,10.1-0.3,15.6
			c-0.1,5.5-0.2,10.6-0.2,15.3s0,8.7,0,12c0,3.3,0.2,5.3,0.6,5.9c0.4,1,1.3,1.6,2.8,1.6c2.3,0,3.4-1,3.4-3.1c0-2.9,0.1-7.1,0.3-12.6
			c0.2-5.5,0.4-11.3,0.5-17.3c0.1-6,0.2-11.9,0.2-17.5c0-5.6-0.1-10.1-0.3-13.4v-25.6c0-0.6-0.4-1.2-1.1-1.9c-0.7-0.6-1.4-0.9-2-0.9
			C153.4,196,152.3,196.9,151.9,198.5z"/>
		<path fill="#231F20" d="M291.6,203.5c0-8.5,0.7-15.6,2.2-21.4c1.5-5.7,4.1-10.3,7.9-13.7c3.8-3.4,9.1-5.9,15.9-7.3
			c6.7-1.5,15.5-2.2,26.3-2.2c5.2,0,10.7,0.5,16.6,1.4c5.9,0.9,11.8,2.7,17.6,5.3c5.8,2.6,11.5,6.3,17,11.2
			c5.5,4.9,10.3,11.2,14.5,19c4.1,7.8,7.5,17.4,10,28.7c2.5,11.3,3.7,24.8,3.7,40.4c0,12.3-1,25-3.1,38.2
			c-2.1,13.2-6.1,25.3-12,36.3c-5.9,11-14.1,20.1-24.4,27.1c-10.4,7.1-24,10.6-40.8,10.6c-2.7,0-6.8-0.4-12.4-1.1
			c-5.6-0.7-11.2-2.1-16.8-4.2c-5.6-2.1-10.6-5-14.9-8.9c-4.4-3.8-6.6-8.9-6.8-15.1c0-2.3,0-6.2,0-11.7c0-5.5,0-11.4,0.2-17.8
			c0.1-6.3,0.2-12.5,0.3-18.6c0.1-6,0.2-10.6,0.2-13.7c0-4.8-0.1-10.5-0.2-17.2c-0.1-6.7-0.2-13.7-0.3-21.2
			c-0.1-7.5-0.2-15.1-0.3-22.8C291.7,217.4,291.6,210.2,291.6,203.5z M300.7,322.7c0.4,1.7,1.4,2.5,3.1,2.5c0.6,0,1.3-0.3,2-0.9
			c0.7-0.6,1.1-1.2,1.1-1.9v-25.6c0.2-3.3,0.4-7.8,0.5-13.6c0.1-5.7,0.3-11.6,0.5-17.6c0.2-6,0.3-11.8,0.3-17.3c0-5.5,0-9.7,0-12.6
			c0-2.1-1.1-3.1-3.4-3.1c-1.5,0-2.4,0.5-2.8,1.6c-0.2,0.2-0.4,1.1-0.5,2.8c-0.1,1.7-0.2,3.4-0.2,5.3s0,3.7,0,5.6s0,3.3,0,4.4
			c0,4.4-0.1,8.3-0.2,11.7c-0.1,3.4-0.2,7-0.2,10.8c0,3.7-0.1,8-0.2,12.6c-0.1,4.7-0.3,10.4-0.5,17c0,2.7,0,5.9-0.2,9.5
			C300.1,317.5,300.3,320.4,300.7,322.7z M301.6,224.8c0.4,2.5,1.8,3.7,4,3.7c1,0,2-0.3,2.8-0.9c0.8-0.6,1.1-1.6,0.9-2.8
			c0-2.5-1.2-3.7-3.7-3.7C303,221,301.6,222.3,301.6,224.8z M302.9,214.5c0,0.8,0.4,1.5,1.1,2c0.7,0.5,1.5,0.8,2.3,0.8
			c0.6,0,1.3-0.3,2-0.9c0.7-0.6,1.1-1.2,1.1-1.9c0-0.8,0-2.2,0.2-4.1c0.1-1.9,0.2-3.8,0.3-5.9c0.1-2.1,0.2-3.9,0.3-5.6
			c0.1-1.7,0.2-2.8,0.2-3.4c0-2.1-1.1-3.1-3.4-3.1c-1,0-1.9,0.4-2.5,1.1c-0.6,0.7-0.9,1.3-0.9,1.7c-0.2,2.7-0.4,5.7-0.5,9
			C302.9,207.5,302.9,210.9,302.9,214.5z M337.4,333.6c0.2,0.2,0.3,0.7,0.3,1.6c0,3.1,1.3,5.3,4,6.6c2.7,1.2,5.4,1.9,8.1,1.9
			c6.2,0,11.1-2.9,14.6-8.7c3.5-5.8,6.2-12.9,8.1-21.2c1.9-8.3,3-16.9,3.4-25.7c0.4-8.8,0.6-16.3,0.6-22.3c0-13.9-0.7-25.2-2-33.9
			c-1.4-8.6-3.5-15.4-6.4-20.3c-2.9-4.9-6.7-8.2-11.4-9.8c-4.7-1.7-10.3-2.5-17-2.5H338c-0.4,21.8-0.6,44.3-0.6,67.2
			C337.4,289.4,337.4,311.8,337.4,333.6z"/>
		<path fill="#231F20" d="M434.8,203.5c0-6.4,0.4-12.3,1.1-17.5c0.7-5.2,2.7-9.7,5.9-13.4c3.2-3.7,8.1-6.6,14.6-8.6
			c6.5-2,15.7-3,27.5-3c8.9,0,18.1,0.8,27.5,2.3c9.4,1.6,18,4.6,25.7,9.2c7.7,4.6,14,11,18.8,19.2c4.9,8.2,7.3,19.1,7.3,32.6
			c0,9.2-1.4,17.7-4,25.7c-2.7,8-6.4,15.1-11.1,21.2c-4.7,6.1-10.3,11.2-16.8,15.3c-6.5,4.1-13.6,6.8-21.3,8.3
			c6.2,6,12.3,12.2,18.2,18.4c5.9,6.2,11.4,12,16.3,17.3c5,5.3,9.3,9.7,12.9,13.3c3.6,3.5,6.2,5.6,7.6,6.2c2.7,1.2,4,3.2,4,5.8
			c0,2.6-1.1,5.3-3.4,8c-2.3,2.7-5.6,5.1-10,7.2c-4.4,2.1-9.4,3.1-15.3,3.1c-6.4,0-12.6-2.3-18.4-6.9c-5.8-4.6-11.3-10.2-16.5-16.8
			c-5.2-6.7-10.1-13.8-14.6-21.4c-4.6-7.6-8.8-14.4-12.8-20.4c0,5.2,0,10.3,0.2,15.3c0.1,5,0.2,9.7,0.3,14c0.1,4.4,0.2,8.2,0.3,11.5
			c0.1,3.3,0.2,5.8,0.2,7.5c0,3.5-0.5,6.3-1.6,8.4c-1,2.1-2.4,3.6-4.2,4.7c-1.8,1-3.7,1.7-5.9,2c-2.2,0.3-4.4,0.5-6.7,0.5
			c-17.8,0-26.8-5.4-26.8-16.2c0-25.6,0.1-51.1,0.3-76.4C434.7,254.6,434.8,229.1,434.8,203.5z M442.9,202.9c0.4,2.5,1.8,3.7,4,3.7
			c1,0,2-0.3,2.8-0.9c0.8-0.6,1.1-1.6,0.9-2.8c0-2.5-1.2-3.7-3.7-3.7C444.2,199.2,442.9,200.4,442.9,202.9z M442.9,214.8
			c0.4,2.5,1.8,3.7,4,3.7c1,0,2-0.3,2.8-0.9c0.8-0.6,1.1-1.6,0.9-2.8c0-2.5-1.2-3.7-3.7-3.7C444.2,211,442.9,212.3,442.9,214.8z
			 M443.8,309.9c0.4,1.7,1.4,2.5,3.1,2.5c0.6,0,1.3-0.3,2-0.9c0.7-0.6,1.1-1.2,1.1-1.9V284c0.2-3.3,0.3-7.7,0.3-13.1
			c0-5.4,0-11,0-16.7c0-5.7-0.1-11.2-0.2-16.4c-0.1-5.2-0.2-9.3-0.2-12.2c0-2.1-1.1-3.1-3.4-3.1c-1.5,0-2.4,0.5-2.8,1.6
			c-0.2,0.6-0.4,2.6-0.6,5.8c-0.2,3.2-0.3,7.1-0.3,11.5c0,4.5,0.1,9.4,0.2,14.7c0.1,5.3,0.2,10.3,0.3,15c0.1,4.7,0.2,8.9,0.2,12.6
			c0,3.7,0,6.3,0,7.8c0,2.7-0.1,5.9-0.2,9.5C443.3,304.7,443.4,307.6,443.8,309.9z M479,199.2c-0.2,10-0.4,20.9-0.6,32.6
			c-0.2,11.8-0.3,22.6-0.3,32.6c1.7,1.7,3.8,2.7,6.4,3c2.6,0.3,4.1,0.5,4.5,0.5c5.4,0,9.9-1,13.5-3c3.6-2,6.6-4.6,9-8
			c2.4-3.3,4.1-7.2,5.1-11.5c1-4.4,1.6-8.8,1.6-13.4c0-10.8-2.3-19.5-7-26.2c-4.7-6.7-11.5-10-20.4-10
			C486.9,195.7,482.9,196.9,479,199.2z"/>
		<path fill="#231F20" d="M578.6,361.7c0-31.4,0.2-62.8,0.6-94.1c0.4-31.3,0.6-62.7,0.6-94.1c0-1.9,0.8-3.4,2.5-4.7
			c1.7-1.2,3.7-2.2,6.1-3c2.4-0.7,4.9-1.2,7.6-1.6c2.7-0.3,5.1-0.5,7.2-0.5c2.1,0,4.4,0.2,6.8,0.5c2.5,0.3,4.8,0.9,7,1.7
			c2.2,0.8,4,2,5.4,3.6c1.4,1.6,2.2,3.5,2.2,5.8c0,30.4-0.2,60.6-0.6,90.8c-0.4,30.2-0.6,60.4-0.6,90.8c0,3.5-0.5,6.3-1.6,8.4
			c-1,2.1-2.5,3.6-4.4,4.7c-1.9,1-4.2,1.7-6.9,2c-2.7,0.3-5.6,0.5-8.7,0.5c-1.5,0-3.5-0.1-6.1-0.2c-2.6-0.1-5.2-0.5-7.8-1.2
			c-2.6-0.7-4.8-1.8-6.7-3.3C579.5,366.5,578.6,364.4,578.6,361.7z M586.7,296.2c0,2.5,1.4,3.7,4,3.7c2.5,0,3.7-1.2,3.7-3.7
			c0.2-1.2-0.1-2.2-0.9-2.8c-0.8-0.6-1.8-0.9-2.8-0.9C588.4,292.5,587.1,293.7,586.7,296.2z M586.7,308.1c0,2.5,1.4,3.7,4,3.7
			c2.5,0,3.7-1.2,3.7-3.7c0.2-1.2-0.1-2.2-0.9-2.8s-1.8-0.9-2.8-0.9C588.4,304.3,587.1,305.6,586.7,308.1z M588.2,198.5
			c-0.4,2.3-0.6,5.3-0.5,8.9c0.1,3.6,0.2,6.8,0.2,9.5c0,1.5-0.1,4.1-0.2,8c-0.1,3.9-0.2,8.2-0.3,13.1c-0.1,4.9-0.2,10.1-0.3,15.6
			c-0.1,5.5-0.2,10.6-0.2,15.3s0,8.7,0,12c0,3.3,0.2,5.3,0.6,5.9c0.4,1,1.3,1.6,2.8,1.6c2.3,0,3.4-1,3.4-3.1c0-2.9,0.1-7.1,0.3-12.6
			c0.2-5.5,0.4-11.3,0.5-17.3c0.1-6,0.2-11.9,0.2-17.5c0-5.6-0.1-10.1-0.3-13.4v-25.6c0-0.6-0.4-1.2-1.1-1.9c-0.7-0.6-1.4-0.9-2-0.9
			C589.7,196,588.6,196.9,588.2,198.5z"/>
		<path fill="#231F20" d="M649.5,178c0-2.7,0.9-4.9,2.8-6.7c1.9-1.8,4.1-3.2,6.7-4.2c2.6-1,5.3-1.8,8.3-2.2c2.9-0.4,5.3-0.6,7.2-0.6
			c3.9,0,7.9,0.6,11.8,1.9c3.9,1.2,7.2,3.5,9.6,6.9c1.9,2.3,3.6,5.1,5.1,8.4c1.6,3.3,3.1,6.8,4.7,10.3c1.6,3.5,3,7.1,4.4,10.6
			c1.4,3.5,2.6,6.7,3.9,9.4c6,13.7,12.1,27.3,18.2,40.6c6.1,13.3,12.6,26.5,19.4,39.6c-0.4-3.5-0.7-7.1-0.8-10.6
			c-0.1-3.5-0.2-7.1-0.2-10.6c0-16.2-0.3-32.4-0.8-48.5c-0.5-16.1-0.8-32.3-0.8-48.5c0-2.1,1-3.8,3.1-5.1c2.1-1.4,4.5-2.4,7.3-3.1
			c2.8-0.7,5.5-1.2,8.2-1.4c2.7-0.2,4.8-0.3,6.2-0.3c2.1,0,4.3,0.2,6.7,0.5c2.4,0.3,4.6,0.9,6.7,1.9c2.1,0.9,3.8,2.2,5.1,3.9
			c1.3,1.7,2,3.9,2,6.6c0,30.6-0.6,61-1.9,91.4c-1.2,30.4-1.9,60.8-1.9,91.4c0,3.3-0.6,5.9-1.9,7.8c-1.2,1.9-2.9,3.2-4.8,4.1
			c-2,0.8-4.3,1.3-6.8,1.4c-2.6,0.1-5.1,0.2-7.6,0.2c-4.2,0-8-1.1-11.5-3.3c-3.5-2.2-6.5-4.9-9-8.3c-4.4-5.6-8.2-12.1-11.7-19.3
			c-3.4-7.3-6.7-14.1-9.8-20.6c-6-12.1-12-24.1-17.9-36.2c-5.9-12.1-12-24-18.2-35.9c1,18.1,1.7,36.2,2,54.3
			c0.3,18.1,0.5,36.2,0.5,54.3c0,6-2.1,10.1-6.4,12.2c-4.3,2.1-8.9,3.1-13.8,3.1c-1.9,0-4.2-0.2-6.8-0.5c-2.7-0.3-5.3-0.9-7.9-1.7
			c-2.6-0.8-4.8-2-6.7-3.6c-1.9-1.6-2.8-3.6-2.8-6.1V178z M658.3,206c-0.4,2.3-0.6,5.3-0.5,8.9c0.1,3.6,0.2,6.8,0.2,9.5
			c0,1.5,0,4.6,0,9.4c0,4.8,0,10.4-0.2,16.7c-0.1,6.3-0.2,13.1-0.2,20.1c0,7.1,0,13.6,0,19.7c0,6,0.1,11.2,0.3,15.4
			c0.2,4.3,0.4,6.7,0.6,7.3c0.4,1,1.3,1.6,2.8,1.6c2.3,0,3.4-1,3.4-3.1c0-2.9,0-8.1,0.2-15.4c0.1-7.4,0.2-15.3,0.2-23.7
			s-0.1-16.4-0.2-24c-0.1-7.6-0.3-13-0.5-16.4v-25.6c0-0.6-0.4-1.2-1.1-1.9c-0.7-0.6-1.4-0.9-2-0.9
			C659.7,203.5,658.7,204.4,658.3,206z M658.3,322.4c0,2.5,1.4,3.7,4,3.7c2.5,0,3.7-1.2,3.7-3.7c0.2-1.2-0.1-2.2-0.9-2.8
			c-0.8-0.6-1.8-0.9-2.8-0.9C660,318.7,658.7,319.9,658.3,322.4z M758.5,264.1c0,0.8,0.4,1.5,1.2,1.9c0.8,0.4,1.7,0.6,2.5,0.6
			c0.6,0,1.3-0.3,2-0.9c0.7-0.6,1.1-1.3,1.1-1.9c0-8.7,0-16.1,0-22c0-5.9,0-11.1,0-15.6c0-4.5-0.1-8.5-0.2-12.2
			c-0.1-3.6-0.2-7.5-0.2-11.7c0-2.1-1.1-3.1-3.4-3.1c-1.5,0-2.4,0.5-2.8,1.6c-0.2,0.6-0.4,2.4-0.6,5.5c-0.2,3-0.3,6.6-0.3,10.8
			c0,4.2,0,8.7,0.2,13.6c0.1,4.9,0.2,9.6,0.2,14c0,4.5,0,8.5,0.2,12C758.4,260.1,758.5,262.6,758.5,264.1z M758.5,191.4
			c0.4,2.5,1.8,3.7,4,3.7c1,0,2-0.3,2.8-0.9c0.8-0.6,1.1-1.6,0.9-2.8c0-2.5-1.2-3.7-3.7-3.7C759.8,187.6,758.5,188.9,758.5,191.4z"
			/>
		<path fill="#231F20" d="M842.8,372.6c-7.9,0-13.7-1.5-17.4-4.4s-5.6-8.3-5.6-16.2V174.5c0-1.9,0.8-3.4,2.5-4.7
			c1.7-1.2,3.7-2.2,6.1-3c2.4-0.7,4.9-1.2,7.5-1.6c2.6-0.3,4.9-0.5,7-0.5s4.4,0.2,6.8,0.5c2.5,0.3,4.9,0.9,7.2,1.7
			c2.3,0.8,4.2,2,5.8,3.6c1.6,1.6,2.3,3.5,2.3,5.8c0,1.2-0.1,4.6-0.2,10c-0.1,5.4-0.2,11.8-0.3,19.2c-0.1,7.4-0.2,15.3-0.3,23.9
			c-0.1,8.5-0.2,16.5-0.2,24c5.4-5.8,10.9-12.8,16.5-20.9s10.7-16.2,15.4-24.3c4.7-8.1,8.6-15.6,11.8-22.6c3.2-7,5.1-12.2,5.8-15.8
			c0.4-1.7,1.9-3,4.5-4.1c2.6-1,5.7-1.6,9.2-1.6c2.7,0,5.4,0.3,8.1,0.9c2.7,0.6,5.2,1.6,7.5,3c2.3,1.4,4.1,3.1,5.6,5.3
			c1.4,2.2,2.2,4.8,2.2,8c0,3.3-1.3,8.5-3.9,15.6c-2.6,7.1-6.3,14.8-11,23.2c-4.8,8.4-10.4,17.1-17,25.9
			c-6.5,8.8-13.8,16.7-21.9,23.6c4.1,8.3,9,17,14.5,25.9c5.5,8.9,10.8,17.2,16,24.8c5.2,7.6,9.9,14,14.2,19.2c4.2,5.2,7.3,8.2,9.2,9
			c2.3,1,3.5,2.9,3.6,5.5c0.1,2.6-0.8,5.3-2.8,8.1c-2,2.8-5,5.3-9,7.3c-4,2.1-9,3.1-14.8,3.1c-3.1,0-6.5-1.5-10.3-4.4
			s-7.5-6.7-11.2-11.4s-7.5-9.9-11.2-15.8c-3.7-5.8-7.3-11.7-10.7-17.6c-3.4-5.9-6.5-11.6-9.3-17.2c-2.8-5.5-5.1-10.1-7-13.9
			l-3.7,3.7c0,5.8,0,11.9,0.2,18.3c0.1,6.3,0.2,12.4,0.3,18.1c0.1,5.7,0.2,10.8,0.3,15.1c0.1,4.4,0.2,7.5,0.2,9.4
			c0,3.5-0.6,6.3-1.7,8.4c-1.1,2.1-2.7,3.6-4.7,4.7c-2,1-4.3,1.7-7,2C848.8,372.5,845.9,372.6,842.8,372.6z M827.9,202.3
			c0.4,2.5,1.8,3.7,4,3.7c1,0,2-0.3,2.8-0.9c0.8-0.6,1.1-1.6,0.9-2.8c0-2.5-1.2-3.7-3.7-3.7C829.2,198.5,827.9,199.8,827.9,202.3z
			 M827.9,214.1c0.4,2.5,1.8,3.7,4,3.7c1,0,2-0.3,2.8-0.9c0.8-0.6,1.1-1.6,0.9-2.8c0-2.5-1.2-3.7-3.7-3.7
			C829.2,210.4,827.9,211.6,827.9,214.1z M828.8,309.3c0.4,1.7,1.4,2.5,3.1,2.5c0.6,0,1.3-0.3,2-0.9c0.7-0.6,1.1-1.2,1.1-1.9v-25.6
			c0.2-3.3,0.3-7.7,0.3-13.1c0-5.4,0-11,0-16.7c0-5.7-0.1-11.2-0.2-16.4c-0.1-5.2-0.2-9.3-0.2-12.2c0-2.1-1.1-3.1-3.4-3.1
			c-1.5,0-2.4,0.5-2.8,1.6c-0.2,0.6-0.4,2.6-0.6,5.8c-0.2,3.2-0.3,7.1-0.3,11.5c0,4.5,0,9.4,0.2,14.7c0.1,5.3,0.2,10.3,0.3,15
			c0.1,4.7,0.2,8.9,0.2,12.6c0,3.7,0,6.3,0,7.8c0,2.7,0,5.9-0.2,9.5C828.2,304,828.4,307,828.8,309.3z"/>
	</g>
</g>
</svg>


