<?xml version="1.0" encoding="utf-8"?>
<!-- Generator: Adobe Illustrator 18.0.0, SVG Export Plug-In . SVG Version: 6.00 Build 0)  -->
<svg version="1.2" baseProfile="tiny" xmlns="http://www.w3.org/2000/svg" xmlns:xlink="http://www.w3.org/1999/xlink"
	 x="0px" y="0px" viewBox="0 0 1080 1296" xml:space="preserve" width="500" height="500">
<g>
	<g>
		<path fill="#231F20" d="M879.2,767.4c-3.5-5.9-8.3-10.2-13.9-13.5c-9.8-5.9-19.6-0.7-20.6,10.7c-0.8,9.5,3.2,17.2,9.1,24.1
			c6.9,8.2,15.2,15,22.8,22.6c4.4,4.4,8.8,8.6,13.2,12.9c0.8,0.8,1.7,1.5,2.7,2.1c2.3,1.3,4.6,0.9,6.3-1.1c1.1-1.2,2-2.6,2.5-4.1
			c4.4-11.9,9.4-23.6,11.2-36.4c1.5-11,1.8-22-2.1-32.6c-1.9-5.2-4.9-9.6-10.6-11.2c-5.4-1.5-10.1-0.4-13.9,3.9
			c-5.1,5.8-6.4,12.9-6.7,20.3C879.1,765.8,879.2,766.6,879.2,767.4z"/>
	</g>
	<g>
		<path fill="#231F20" d="M692.7,772c-44-3.5-88.1,3.4-116.1,18.2c-1.7,0-3.4,0.1-5.1,0.1c-25.4,0.1-50.7-2-75.8-4.6
			c32.2-3.4,60.2-11.6,80.2-23.7c1.7-1-0.6-2.7-3.3-2.7c-42.3-0.3-81.1,8.3-105,23.3c-2.1-0.2-4.1-0.5-6.2-0.7
			c-18.1-2.1-36.4-4-54.8-5.7c31.5-4.3,57.9-13.5,75.1-26.3c1.4-1.1-0.4-2.7-3.3-2.7c-38.9-0.4-75.8,9.2-91.9,24.9
			c-0.8,0.8-1.6,1.6-2.3,2.3c-23.6-1.7-47.2-2.7-70.8-2.7c28.9-6.4,58.8-13.6,72.4-27.5c1.4-1.4-0.9-2.9-4.4-2.7
			c-40.6,1.7-74.7,13.6-89.1,30.4c-18.8,0.5-37.5,1.6-56,3.7c-4.3,0.5-8.5,1-12.7,1.6c23.6-8.3,42.5-18.9,55.6-31.3
			c1.3-1.2-0.9-3.1-4.4-2.7c-43,4.8-75.2,20.2-84.4,39.6c-24.6,5-47.2,11.7-66.6,20.3c-3.5,1.5,2,4.2,5.5,2.6
			c16.5-7.3,35.1-13.1,55.2-17.6c0,0,0,0.1,0,0.1c10.2,20.4,51.8,33.9,96.6,31.7c3.3-0.2,3.4-1.9,1.8-2.9
			c-22.5-13.6-48.7-26.9-86.2-30.4c0.1-0.4,0.3-0.8,0.4-1.1c28.9-5.6,60.3-8.6,92.5-9.7c-0.2,0.2-0.3,0.5-0.2,0.8
			c4.6,20.6,41.6,38.1,87,41.1c2.9,0.2,5-1.4,3.4-2.6c-21.5-15-44.5-30.4-79.2-39.5c19.1-0.4,38.5,0,57.6,0.9c7,0.3,14,0.8,21,1.3
			c2.5,18.9,29.2,36.1,68.2,44c2.8,0.6,5.5-0.8,4.8-2c-4.7-8.3-11.3-16.5-21.4-23.9c-4.7-3.4-10-6.7-16.2-9.6
			c-5.8-2.7-12.9-4.5-18.8-7c-0.2-0.1-0.4-0.2-0.6-0.3c21.6,1.8,42.9,4.2,64.3,6.6c0,0.1,0,0.2,0,0.3c3.8,19.8,38.9,36.8,82.4,39.9
			c3.2,0.2,4.6-1.4,3.4-2.6c-14.8-14.4-34.8-28.5-66.7-35.5c31.1,3.5,62.8,6.6,94.6,6.4c0.6,0,1.3,0,1.9,0c0.1,0,0.2,0.1,0.3,0.1
			c-1.3,20.5,63.9,26.7,98,26.4c3.1,0,5.6-1.8,2.8-2.9c-21.8-9-49.2-19.9-78.5-24.6c34.8-2.6,65.9-9.7,96.6-17.4
			C698.2,774.5,696.5,772.3,692.7,772z"/>
	</g>
	<g>
		<path fill="#231F20" d="M210.7,912.4c-0.4,11.4-2.3,20.9-6,28.6c-3.6,7.7-8.4,13.9-14.4,18.5c-6,4.7-12.9,8.1-20.7,10.3
			c-7.9,2.2-16.2,3.4-25,3.6c-3.9,0.1-7.4,0.3-10.7,0.4c-3.3,0.2-6.1-0.1-8.4-0.8c-2.3-0.7-4.2-2-5.5-3.9c-1.3-1.9-1.9-4.7-1.9-8.6
			c0-1.2,0-3.8,0-7.8s0-8.8-0.1-14.4c-0.1-5.6-0.2-11.6-0.3-18.2c-0.1-6.6-0.3-13-0.5-19.3c-0.2-6.3-0.6-12.1-1-17.6
			c-0.4-5.5-0.9-9.9-1.3-13.3c-0.7-4.2-0.2-7.6,1.6-10c1.8-2.5,4-4.3,6.6-5.5c2.6-1.2,5.4-2,8.3-2.5c2.9-0.4,5.1-0.6,6.8-0.6
			c3.2-0.1,6.3-0.2,9.4-0.4c3.1-0.1,6.2,0,9.4,0.3c3.2,0.3,6.4,0.8,9.6,1.5c3.2,0.7,6.5,1.8,9.8,3.3c11.4,5.2,20.1,12.5,26.3,22.2
			C208.7,887.9,211.4,899.3,210.7,912.4z M147.1,883c-0.6,4.6-1,9.4-1.3,14.6c-0.3,5.2-0.4,10.3-0.4,15.3c0,5,0.1,9.8,0.4,14.4
			c0.3,4.6,0.8,8.6,1.5,12c0.5,2.2,1.8,3.9,4.1,4.9c2.3,1.1,4.9,1.3,7.8,0.9c2.9-0.5,5.8-1.8,8.7-3.9c2.9-2.1,5.1-5.2,6.8-9.1
			c1.8-4.3,2.9-8.8,3.5-13.4c0.6-4.6,0.6-9.1,0.2-13.4c-0.5-4.3-1.4-8.4-2.9-12c-1.5-3.7-3.3-6.9-5.5-9.6c-1.9-2.2-4.1-3.8-6.6-4.7
			c-2.5-0.9-5-1.4-7.3-1.3c-2.3,0.1-4.4,0.6-6.1,1.5C148.3,879.9,147.3,881.3,147.1,883z"/>
		<path fill="#231F20" d="M219.2,863.3c0-3.2,0.5-5.4,1.4-6.6c0.9-1.2,2.1-2.3,3.5-3.1c3.5-1.8,7.6-2.6,12.1-2.6c4.6,0,8.6,1,12,3
			c2.9,1.6,4.3,4.4,4,8.3c-1.5,18.1-2.7,35.6-3.4,52.7c-0.8,17.1-0.3,33.8,1.3,50.1c0.2,2.7-0.8,4.7-3.2,6c-2.3,1.3-5.1,2.1-8.3,2.5
			c-3.2,0.4-6.4,0.4-9.6,0c-3.2-0.4-5.5-0.8-6.9-1.2c-1.6-0.6-2.9-1.6-3.8-3.2c-0.9-1.5-1.3-4.2-1.1-7.9c0.1-7.5,0.3-15.5,0.5-24.1
			c0.2-8.6,0.5-17.1,0.7-25.8c0.2-8.6,0.4-17.1,0.6-25.3C219.3,877.8,219.3,870.2,219.2,863.3z"/>
		<path fill="#231F20" d="M297.6,885.5c0,2.8,1.3,5.3,3.8,7.6c2.5,2.2,5.7,4.4,9.5,6.6c3.8,2.2,7.9,4.5,12.4,6.9
			c4.5,2.4,8.6,5.2,12.4,8.4c3.8,3.2,7,6.9,9.5,11.2c2.5,4.2,3.8,9.2,3.8,14.9c0,6.5-1.1,11.8-3.3,16c-2.2,4.2-5.2,7.6-9,10.1
			c-3.8,2.5-8.1,4.3-13,5.3c-4.9,1-10.1,1.5-15.6,1.5c-8.3,0-15.2-1.4-20.7-4.3c-5.5-2.9-9.9-6.4-13.3-10.5
			c-3.3-4.1-5.7-8.4-7.1-12.9c-1.4-4.5-2.1-8.5-2.1-11.9c0-2,0.8-3.8,2.5-5.5c1.6-1.6,3.7-3,6.2-4c2.5-1.1,5.1-1.8,7.9-2.1
			c2.8-0.4,5.4-0.3,7.6,0.3c2.3,0.5,4.1,1.6,5.5,3.1c1.4,1.5,1.9,3.6,1.6,6.2c-0.6,4.1-0.4,7.6,0.5,10.4c0.9,2.8,2.2,4.7,3.9,5.6
			c1.6,1.1,3.5,1.7,5.5,2c2,0.3,4,0.2,5.8-0.4s3.3-1.5,4.4-3c1.1-1.5,1.6-3.5,1.3-6.2c-0.4-3.4-1.8-6.3-4.5-8.8
			c-2.6-2.5-5.8-4.7-9.6-6.8c-3.8-2-7.8-4.1-12-6.2s-8.3-4.5-12-7.3c-3.7-2.8-6.7-6.2-9.1-10c-2.4-3.9-3.6-8.6-3.6-14.2
			c0-7.4,1.2-13.4,3.6-18.2c2.4-4.7,5.5-8.4,9.3-11.1c3.8-2.6,8-4.5,12.7-5.5c4.6-1,9.2-1.5,13.6-1.5c5.3,0,10.4,1,15.4,3
			c5,2,9.3,4.7,13.1,8.3c3.7,3.5,6.7,7.7,8.9,12.6c2.2,4.9,3.1,10.2,2.7,16.1c-0.1,2.2-1.1,3.8-2.9,4.8c-1.8,1-3.7,1.6-5.7,1.8
			c-5.9,0.7-11.3,0.1-16.4-1.9c-0.8-0.4-1.6-0.8-2.5-1.2c-0.8-0.5-1.6-1-2.3-1.6c-0.7-0.6-1.3-1.3-1.7-2.1c-0.4-0.8-0.6-1.8-0.4-2.8
			c0.3-4.7-0.3-8.1-2-10.1c-1.7-2-3.6-3-5.8-3c-2.2,0.1-4.2,1-6,2.9C298.5,879.8,297.6,882.3,297.6,885.5z"/>
		<path fill="#231F20" d="M390.2,941.6c0.1,1.6,0.2,3.5,0.4,5.5c0.1,2,0.2,4,0.3,6.2c0.1,2.1,0.2,4.2,0.3,6.2c0.1,2,0.1,3.8,0.1,5.4
			c-0.2,3.4-1.7,5.7-4.4,6.9c-3.8,1.6-7.6,2.5-11.6,2.6c-4,0.1-7.9-0.8-11.6-2.6c-1.5-0.6-2.7-1.6-3.4-3.1c-0.8-1.5-1.1-3-1-4.7
			c0.7-6.6,1.2-13.8,1.6-21.7c0.4-7.9,0.5-16,0.4-24.3c-0.1-8.3-0.3-16.4-0.6-24.4c-0.3-8-0.8-15.4-1.2-22.2
			c-0.2-2.7,0.1-5.1,1.1-7.2c0.9-2.1,2.2-3.9,3.8-5.5c1.6-1.5,3.5-2.8,5.6-3.8c2.2-1,4.5-1.7,6.9-2.2c4.3-0.8,9.1-1.3,14.3-1.5
			c5.2-0.2,10.5,0.2,15.8,1c5.3,0.8,10.5,2.2,15.5,4.2c5,2,9.4,4.6,13.3,7.9c3.9,3.3,7,7.4,9.3,12.2c2.3,4.9,3.5,10.6,3.5,17.3
			c0,7.3-0.9,13.6-2.8,19c-1.9,5.4-4.4,10-7.5,13.8c-3.1,3.8-6.7,6.9-10.7,9.2s-8.2,4.1-12.6,5.2c-4.3,1.1-8.6,1.7-12.9,1.8
			C397.8,942.8,393.9,942.4,390.2,941.6z M396,918.5c8.4-0.5,14.5-2.8,18.2-6.9c3.7-4.1,5.7-9.5,5.9-16.2c0.2-8.6-2.2-14.5-7.3-17.8
			c-5.1-3.3-12-4.6-20.8-4c-1.6,0.1-2.5,0.8-2.7,2c-0.2,1.2-0.3,2.6-0.4,4c-0.2,4.3-0.3,9.1-0.3,14.3c0.1,5.2,0,11.2-0.1,17.8
			c-0.1,2.7,0.4,4.5,1.7,5.5C391.4,918.4,393.3,918.8,396,918.5z"/>
		<path fill="#231F20" d="M494.5,875.1c-0.7,4.1-1.3,8.2-1.7,12.1c-0.4,4-0.9,8-1.3,12.1c1.5-0.2,3.4-0.5,5.5-0.9
			c2.2-0.4,4.5-0.6,6.9-0.9c2.4-0.2,4.9-0.4,7.5-0.6c2.6-0.2,5.1-0.2,7.6-0.1c2,0.1,3.6,0.9,4.7,2.5s2,3.4,2.6,5.7
			c0.6,2.3,0.9,4.7,0.9,7.4c0,2.6-0.3,5.1-0.9,7.3c-0.6,2.2-1.4,4-2.5,5.5c-1.1,1.4-2.4,2-4,1.9c-2.6-0.2-5-0.6-7.3-1
			c-2.3-0.4-4.6-0.8-6.9-1.1c-2.4-0.4-4.8-0.7-7.2-1c-2.5-0.3-5.2-0.4-8.1-0.4c-0.2,2.2-0.4,4.5-0.4,6.9s0.1,4.7,0.2,6.8
			c0.1,2.1,0.3,4,0.4,5.6c0.2,1.6,0.4,2.9,0.6,3.7c1.1,0.7,2.8,1,5.2,1c2.4-0.1,5.1-0.3,8.2-0.8c3-0.5,6.3-1.1,9.7-1.8
			c3.4-0.8,6.6-1.6,9.7-2.5c3-0.9,5.8-1.7,8.2-2.4c2.4-0.7,4.2-1.3,5.4-1.8c2.5-0.9,4.5-0.4,6.1,1.8c0.9,1.3,1.7,2.8,2.2,4.7
			c0.5,1.8,0.8,3.7,1,5.6c0.1,1.9,0.1,3.8-0.1,5.7c-0.2,1.9-0.4,3.6-0.8,5.1c-1.2,4.1-3.1,7-5.9,8.8c-2.8,1.8-6.2,2.8-10.3,3.2
			c-7.5,0.6-15.3,0.8-23.3,0.6c-8-0.2-15.6-0.3-22.6-0.4c-2,0-4-0.1-6.1-0.4c-2-0.2-4-0.7-5.8-1.4c-1.8-0.7-3.4-1.7-4.7-3.1
			c-1.3-1.3-2.1-3.2-2.5-5.5c-0.2-1.8-0.5-3.5-0.7-5.3c-0.2-1.8-0.4-3.5-0.5-5.3c-0.6-6.7-1.1-13.4-1.4-20c-0.4-6.7-0.5-13.4-0.4-20
			c0.1-7.7,0.2-15.3,0.4-22.6c0.1-7.3,0.6-14.9,1.6-22.6c0.5-3.6,2.2-6.5,5.3-8.7c3-2.2,6.3-3.5,9.7-4.1c3.6-0.7,8-1.3,13-1.9
			c5-0.6,10.2-1,15.6-1.2c5.3-0.2,10.6-0.3,15.7-0.1s9.8,0.6,13.9,1.3c2.1,0.5,3.7,1.5,4.7,3.1c1,1.6,1.7,3.4,2.2,5.4
			c0.8,3,1.1,6.2,0.9,9.4c-0.2,3.2-1.2,6.2-2.8,9.1c-1.3,2.2-3.2,3.1-5.6,2.6c-6.9-1.2-13.8-2.4-20.7-3.7
			C508.5,877,501.5,875.9,494.5,875.1z"/>
		<path fill="#231F20" d="M627.4,864c-0.2-1.5-0.4-2.9-0.5-4c-0.1-1.2,0-2.2,0.4-3.2c0.4-0.9,1-1.8,2-2.5c1-0.7,2.5-1.3,4.7-1.9
			c3.6-1.1,7.4-1.5,11.4-1.3c4,0.2,7.7,1.1,11.1,2.9c1.8,0.9,2.8,2.2,3.3,3.9c0.4,1.6,0.6,3.4,0.4,5.3c-0.2,7.6-0.4,15.8-0.4,24.4
			c-0.1,8.7-0.2,17.4-0.5,26.2c-0.3,8.8-0.8,17.5-1.5,26s-1.8,16.5-3.2,23.9c-0.4,2.1-1.1,3.8-2.4,5.2c-1.2,1.4-2.7,2.4-4.4,3.1
			c-1.7,0.7-3.5,1.2-5.5,1.4c-1.9,0.2-3.8,0.4-5.7,0.4c-2.2-0.1-4.7-0.3-7.4-0.5c-2.7-0.2-4.9-1.1-6.5-2.6c-2-1.6-4-4-6.1-7
			c-2-3-4-6.3-6-9.8c-1.9-3.5-3.8-6.9-5.5-10.3c-1.7-3.4-3.1-6.3-4.3-8.6c-1.1-2-2.3-4.3-3.6-6.9c-1.4-2.6-2.6-5.2-3.9-7.6
			c-1.2-2.4-2.4-4.5-3.4-6.3c-1.1-1.8-1.8-3-2.3-3.4c-0.9-0.9-1.5-0.6-1.8,1.1c-0.2,1.6-0.3,4-0.1,7c0.2,3,0.5,6.6,1,10.5
			c0.5,4,1,7.9,1.5,11.6c0.5,3.7,1,7.1,1.5,10.2c0.5,3,0.8,5.2,1.1,6.3c0.1,0.9,0.4,1.9,0.7,3c0.4,1.1,0.6,2.1,0.8,3.1
			c0.2,1,0.2,1.9,0,2.8c-0.2,0.9-0.7,1.7-1.5,2.4c-1.6,1.4-3.7,2.5-6.1,3.3c-2.4,0.8-4.9,1.4-7.6,1.7c-2.6,0.3-5.2,0.3-7.7,0
			c-2.5-0.3-4.7-0.8-6.6-1.7c-1.3-0.6-2.3-1.5-2.9-2.9c-0.6-1.3-1.1-2.8-1.5-4.5c-0.4-1.6-0.6-3.3-0.7-5c-0.1-1.7-0.2-3.1-0.4-4.3
			c-0.5-4.7-0.8-11-1.1-18.8c-0.2-7.8-0.3-16.3-0.3-25.2c0.1-9,0.3-18,0.8-27.2c0.5-9.2,1.2-17.5,2.3-24.9c0.2-1.6,1-2.9,2.4-3.9
			c1.3-0.9,2.7-1.7,4.1-2.3c1.5-0.7,3.5-1.2,6.1-1.6c2.5-0.4,5.1-0.4,7.7-0.3c2.6,0.2,5.1,0.8,7.4,1.8c2.3,1,3.9,2.5,4.8,4.5
			c2.1,4.2,4.6,9.3,7.4,15.1c2.8,5.9,5.8,11.9,8.9,18.1c3.1,6.2,6.2,12.2,9.3,17.8s5.9,10.5,8.5,14.3c0.8,1.2,1.5,0.9,1.9-0.8
			c0.5-1.7,0.8-4.2,1.1-7.6c0.2-3.4,0.4-7.4,0.4-12s-0.1-9.2-0.2-14c-0.1-4.7-0.3-9.3-0.6-13.6C628.1,870.4,627.8,866.8,627.4,864z"
			/>
		<path fill="#231F20" d="M706.2,885.5c0,2.8,1.3,5.3,3.8,7.6c2.5,2.2,5.7,4.4,9.5,6.6c3.8,2.2,7.9,4.5,12.4,6.9
			c4.5,2.4,8.6,5.2,12.4,8.4c3.8,3.2,7,6.9,9.5,11.2c2.5,4.2,3.8,9.2,3.8,14.9c0,6.5-1.1,11.8-3.3,16c-2.2,4.2-5.2,7.6-9,10.1
			c-3.8,2.5-8.1,4.3-13,5.3c-4.9,1-10.1,1.5-15.6,1.5c-8.3,0-15.2-1.4-20.7-4.3c-5.5-2.9-9.9-6.4-13.3-10.5
			c-3.3-4.1-5.7-8.4-7.1-12.9c-1.4-4.5-2.1-8.5-2.1-11.9c0-2,0.8-3.8,2.5-5.5c1.6-1.6,3.7-3,6.1-4c2.5-1.1,5.1-1.8,7.9-2.1
			c2.8-0.4,5.4-0.3,7.6,0.3c2.3,0.5,4.1,1.6,5.5,3.1c1.4,1.5,1.9,3.6,1.6,6.2c-0.6,4.1-0.4,7.6,0.5,10.4c0.9,2.8,2.2,4.7,3.9,5.6
			c1.6,1.1,3.5,1.7,5.5,2c2,0.3,4,0.2,5.8-0.4c1.8-0.5,3.3-1.5,4.4-3c1.1-1.5,1.6-3.5,1.3-6.2c-0.4-3.4-1.8-6.3-4.5-8.8
			c-2.6-2.5-5.8-4.7-9.6-6.8c-3.8-2-7.8-4.1-12-6.2c-4.3-2-8.3-4.5-12-7.3c-3.7-2.8-6.7-6.2-9.1-10c-2.4-3.9-3.6-8.6-3.6-14.2
			c0-7.4,1.2-13.4,3.6-18.2s5.5-8.4,9.3-11.1c3.8-2.6,8-4.5,12.7-5.5c4.6-1,9.2-1.5,13.6-1.5c5.3,0,10.4,1,15.4,3
			c5,2,9.3,4.7,13.1,8.3c3.8,3.5,6.7,7.7,8.9,12.6c2.2,4.9,3.1,10.2,2.7,16.1c-0.1,2.2-1.1,3.8-2.9,4.8c-1.8,1-3.7,1.6-5.7,1.8
			c-5.9,0.7-11.3,0.1-16.4-1.9c-0.8-0.4-1.6-0.8-2.5-1.2c-0.8-0.5-1.6-1-2.3-1.6c-0.7-0.6-1.3-1.3-1.7-2.1c-0.4-0.8-0.6-1.8-0.4-2.8
			c0.4-4.7-0.3-8.1-2-10.1c-1.7-2-3.6-3-5.8-3c-2.2,0.1-4.2,1-6,2.9C707.1,879.8,706.2,882.3,706.2,885.5z"/>
		<path fill="#231F20" d="M800.6,875.1c-0.7,4.1-1.3,8.2-1.7,12.1c-0.4,4-0.9,8-1.3,12.1c1.5-0.2,3.4-0.5,5.5-0.9s4.5-0.6,6.9-0.9
			c2.4-0.2,4.9-0.4,7.5-0.6s5.1-0.2,7.6-0.1c2,0.1,3.6,0.9,4.7,2.5c1.2,1.5,2,3.4,2.6,5.7c0.6,2.3,0.9,4.7,0.9,7.4
			c0,2.6-0.3,5.1-0.9,7.3c-0.6,2.2-1.4,4-2.5,5.5c-1.1,1.4-2.4,2-4,1.9c-2.6-0.2-5-0.6-7.3-1c-2.3-0.4-4.6-0.8-6.9-1.1
			c-2.3-0.4-4.7-0.7-7.2-1c-2.5-0.3-5.2-0.4-8.1-0.4c-0.2,2.2-0.4,4.5-0.4,6.9s0.1,4.7,0.2,6.8c0.1,2.1,0.3,4,0.4,5.6
			c0.2,1.6,0.4,2.9,0.6,3.7c1.1,0.7,2.8,1,5.2,1c2.4-0.1,5.1-0.3,8.2-0.8c3-0.5,6.3-1.1,9.7-1.8c3.4-0.8,6.6-1.6,9.7-2.5
			c3-0.9,5.8-1.7,8.2-2.4c2.4-0.7,4.2-1.3,5.4-1.8c2.5-0.9,4.5-0.4,6.2,1.8c0.9,1.3,1.7,2.8,2.2,4.7c0.5,1.8,0.8,3.7,1,5.6
			c0.1,1.9,0.1,3.8-0.1,5.7c-0.2,1.9-0.4,3.6-0.8,5.1c-1.2,4.1-3.1,7-5.9,8.8c-2.8,1.8-6.2,2.8-10.3,3.2c-7.5,0.6-15.3,0.8-23.3,0.6
			c-8-0.2-15.6-0.3-22.6-0.4c-2,0-4-0.1-6.1-0.4c-2.1-0.2-4-0.7-5.8-1.4c-1.8-0.7-3.4-1.7-4.7-3.1c-1.3-1.3-2.1-3.2-2.5-5.5
			c-0.2-1.8-0.5-3.5-0.7-5.3c-0.2-1.8-0.4-3.5-0.5-5.3c-0.6-6.7-1.1-13.4-1.4-20c-0.4-6.7-0.5-13.4-0.4-20
			c0.1-7.7,0.2-15.3,0.4-22.6c0.1-7.3,0.6-14.9,1.6-22.6c0.5-3.6,2.2-6.5,5.3-8.7c3-2.2,6.3-3.5,9.7-4.1c3.6-0.7,8-1.3,13-1.9
			c5-0.6,10.2-1,15.6-1.2c5.3-0.2,10.6-0.3,15.7-0.1c5.2,0.2,9.8,0.6,13.9,1.3c2.1,0.5,3.7,1.5,4.7,3.1c1,1.6,1.7,3.4,2.2,5.4
			c0.8,3,1.1,6.2,0.9,9.4c-0.2,3.2-1.2,6.2-2.8,9.1c-1.3,2.2-3.2,3.1-5.6,2.6c-6.9-1.2-13.8-2.4-20.7-3.7
			C814.6,877,807.6,875.9,800.6,875.1z"/>
		<path fill="#231F20" d="M917.4,933.8c2.8,2.2,5.5,4.2,7.9,6c2.5,1.8,4.7,3,6.9,3.8c2.1,0.8,4,0.9,5.8,0.4c1.8-0.5,3.3-1.8,4.7-4
			c1.2-1.8,2.3-2.7,3.4-2.8c1.1-0.1,2.1,0.3,3,1.1c0.9,0.9,1.6,2,2.1,3.4c0.5,1.4,0.9,2.7,1.1,3.9c0.5,3.3,0.2,6.7-0.8,10.3
			c-1,3.6-2.7,6.9-5,9.9c-2.6,3.6-5.5,5.9-8.8,6.8c-3.3,0.9-6.6,1.3-10,1.3c-3,0-6.1-1.1-9.1-3.4c-3-2.3-6-5.1-8.8-8.4
			c-2.8-3.3-5.5-6.9-8-10.8c-2.5-3.9-4.7-7.4-6.6-10.5c-1.5-2.6-2.2-2.9-2.1-0.9c0.4,3.5,0.5,7.6,0.5,12.2c0,4.6,0.2,8.7,0.7,12.2
			c0.1,1.8-0.3,3.3-1.1,4.5c-0.9,1.2-2.1,2.2-3.6,3c-1.5,0.8-3.3,1.3-5.2,1.7c-1.9,0.4-3.8,0.5-5.5,0.5c-2.1,0-4.2-0.1-6.2-0.4
			c-2.1-0.3-3.9-0.8-5.5-1.5c-1.6-0.7-2.8-1.6-3.8-2.7c-0.9-1.1-1.3-2.5-1.1-4.1c0.7-6.6,1.2-14,1.6-22.2c0.4-8.3,0.5-16.6,0.5-25.1
			c0-8.5-0.2-16.8-0.5-25c-0.4-8.1-0.9-15.4-1.6-21.7c-0.4-3.6,0.3-6.7,2-9.2c1.7-2.5,4.1-4.5,7.3-6.1c3.2-1.5,6.9-2.6,11.2-3.3
			c4.3-0.7,8.8-1.1,13.6-1.2c5.6-0.1,11.7,0.4,18.3,1.5c6.6,1.1,12.6,3.2,18.2,6.3c5.6,3.1,10.2,7.5,14,13.1
			c3.8,5.6,5.6,12.9,5.6,21.8c0,5.7-0.9,11-2.7,15.6c-1.8,4.7-4.3,8.7-7.5,12.1c-3.2,3.4-6.9,6.2-11.2,8.3
			C926.9,932.1,922.3,933.4,917.4,933.8z M898.5,914.5c3.6,0,7-0.8,10.2-2.4c3.2-1.6,5.8-3.7,7.9-6.5c2.1-2.7,3.6-6,4.4-9.7
			c0.8-3.7,0.8-7.8-0.2-12.2c-0.5-2.2-1.5-4.1-3.1-5.6c-1.6-1.5-3.4-2.7-5.4-3.5c-2-0.8-4-1.4-6.2-1.7c-2.1-0.3-3.9-0.4-5.5-0.3
			c-3.3,0.2-5.5,0.8-6.8,1.8c-1.2,1-2,3-2.4,6.1c-0.2,1.8-0.4,3.8-0.4,6.2c-0.1,2.4-0.1,4.9-0.1,7.5s0.1,5.1,0.2,7.6
			c0.1,2.5,0.2,4.6,0.4,6.3c0,0.6,0,1.3,0.1,2c0.1,0.8,0.3,1.5,0.8,2.1c0.5,0.6,1.2,1.2,2.1,1.6
			C895.6,914.3,896.9,914.5,898.5,914.5z"/>
	</g>
	<g>
		<path fill="#231F20" d="M232.4,604.1c-6.4,32-22.1,62.5-40.3,89.3c-7,10.3-15.5,21.4-27.4,26.1c-10.1,4-24.1,4-32.3-3.8
			c-9.5-9.1-13.3-24-15.2-36.6c-2.5-15.8-2.5-31.4-0.5-47.3c3.6-28.5,12.1-62.7,37.9-79.3c9.9-6.4,24.5-7.8,30.6,4.2
			c2.9,5.6,3,12.5,3.4,18.6c0.5,7.8,0.5,15.5-0.3,23.3c-0.3,2.6-5,3.7-4.8,0.7c0.6-7,3-41.3-8.3-40.2c-4.2,0.4-8.5,8.2-10.5,11.4
			c-2.9,4.6-5.3,9.7-7.2,14.8c-7.9,21-13.5,43-14,65.6c-0.2,12,0.8,23.7,2.1,35.6c0.6,5.1,1.4,9.9,2.6,14.9c0.9,3.5,1.8,9,4.1,11.8
			c8.2,9.6,24.7-9,29.4-14.9c7.1-9,13.1-19.1,18.8-29.1c11.8-20.7,21-42.5,27.1-65.6C228.4,601,233,600.9,232.4,604.1z"/>
		<path fill="#231F20" d="M331.9,610.3c-11.4,10.8-25.9,16.6-41,20.1c-0.8,12.9-3.9,25.9-10.6,36.9c-6.5,10.5-16.6,23.1-30.2,22.4
			c-15-0.8-24.1-17.6-27.5-30.4c-4.6-16.9-3.2-34.9,0.7-51.8c0.7-3.1,2.3-5.7,4.3-7.6c-1.5-15.3,6-31.4,22.7-35.5
			c12.4-3.1,23.9,5,30,15.3c7.8,13,10.7,29.3,10.8,44.3c0,0.5,0,1,0,1.5c2.3-0.6,4.7-1.2,6.9-1.9c11.1-3.3,21.8-8,30.5-15.7
			C330.6,605.9,334.2,608.1,331.9,610.3z M285.2,617.1c-0.8-11.9-3.6-25-10-35.2c-7-11-20.5-17.8-32-8.8
			c-7.2,5.6-10.9,14.7-10.8,23.6c8.9-3.7,20.6,0.5,18.8,13.3c-0.6,4.5-1.2,9-1.7,13.5c3.6,1.9,7.5,3.2,11.6,3.9
			c8,1.4,16.2,0.8,24.3-0.8C285.5,623.5,285.4,620.3,285.2,617.1z M285.1,631.7c-12,2.2-25,2.5-36.2-2.3c-0.5,5.9-0.7,11.9-0.3,17.9
			c0.5,7.7,1,25,10,28.5c11.4,4.4,20-16.1,22.6-23.9C283.3,645.3,284.6,638.5,285.1,631.7z"/>
		<path fill="#231F20" d="M469.2,608.9c-6.9,24.2-16,48.1-27,70.7c-4.7,9.6-10,19.7-17.5,27.4c-5.5,5.7-14.7,12.4-23,9.8
			c-10.9-3.3-16.4-17.7-19.1-27.6c-3.4-12.4-4.6-25.5-4.8-38.4c0-1.1,0-2.3,0-3.4c-1.9,6.9-4.2,13.6-6.8,20.3
			c-2.8,6.8-5.6,16.1-12.8,19.6c-7.3,3.5-16,1-22.1-3.9c-8.2-6.6-10.7-18.2-12.2-28c-3.9-24.6-0.6-51.2,5.1-75.3
			c1.6-6.9,8.6-11.7,15.4-12c5.8-0.2,13.3,4.3,12.5,11.2c-2.4,20.4-6.5,40.4-6.9,61c-0.2,9-0.3,18,0.5,26.9
			c0.3,3.4,0.5,7.1,1.7,10.3c2.6,7.1,6.8,1.6,8.9-2.4c9.4-18.2,14.1-38.2,18.1-58.4c1.6-15.4,4.4-30.8,8.4-45.1
			c2-7.1,8.6-12.1,15.9-12.4c6.1-0.2,13.5,4.5,12.9,11.5c-2.1,21.9-7.1,43.4-8.3,65.4c-1.1,21.1,0,42.3,1.9,63.3
			c0.2,2,0.3,3.8,1.2,5.6c1.1,2.5,1.6,2.6,3.9,2.2c3.6-0.6,8.5-8.1,10.5-10.9c5.9-8.2,10.4-17.3,14.6-26.4
			c9.3-20,16.9-40.7,23.9-61.6C465.1,605.6,470.2,605.5,469.2,608.9z"/>
		<path fill="#231F20" d="M591.6,614.2c-9.5,22.5-17.3,45.6-26.9,68.1c-4.7,11.2-9.9,22.2-15.8,32.8c-4.4,7.8-8.9,17.7-17.9,20.8
			c-24.8,8.6-32.7-23.8-33.3-41.8c-0.9-26.1,3.6-52.4,9.3-77.8c0.2-0.9,0.5-1.8,0.9-2.7c-3.2,0.5-6.4,1-9.7,1.4
			c-4.9,0.6-9.2,1.7-14.1,0.6c-10.9-2.4-19-9.9-23.4-19.9c-8-18.1-2.5-43,11.8-56.5c7.2-6.8,17.3-12.6,27.1-7.5
			c7.1,3.8,8.4,12.3,9,19.6c1.6,19.3-7,37.6-19.4,52c0.9,0.9,1.9,1.7,3,2.4c6.4,4.5,14,2.8,21.2,1.1c9.2-6,24.2-2.4,21.9,12
			c-3.4,21.2-8,42.2-10.1,63.6c-1,9.9-1.3,19.9-1,29.9c0.2,4.3-0.1,9.3,1.9,13.3c3.7,7.1,9.1-0.4,11.7-4.5
			c21.6-33.5,33-72.4,48.8-108.8C588.2,609.3,593.1,610.8,591.6,614.2z M503.4,562.8c0.3-4.1,0.7-26-8.7-21.6
			c-4,1.9-8.5,9.5-10.7,13.3c-6.5,11-8.2,23.6-3.4,35.7c1.4,3.6,3.2,6.7,5.4,9.6C495.2,589.3,502.2,576.9,503.4,562.8z"/>
		<path fill="#231F20" d="M722.6,607.1c-7,21.6-17.1,42.2-27.3,62.4c-6,11.9-17.8,38.2-35.7,32.7c-20.2-6.3-21.1-37.8-20.7-54.8
			c0.1-4.9,0.4-9.8,0.8-14.8c-3.2,8.9-6.5,17.7-10.3,26.3c-6.4,14.7-21.9,42.1-41.2,26.8c-17.5-13.9-17.5-43.7-14.2-63.5
			c3.6-21.5,15.3-45.6,37.4-52.8c9.5-3.1,20.3-2.2,28.2,4.3c3.8,3.1,6.5,7.4,8.4,12.1c0.9-3.1,1.9-6.2,3-9.3c2.4-6.8,8-11.7,15.4-12
			c6-0.2,13,4.3,12.4,11.1c-1.7,18.9-7.1,37.1-9.4,55.9c-2.2,17.8-2.5,35.8-1.6,53.8c0.2,3-0.4,9,3.7,8.8c3.6-0.2,8.4-8.4,10.1-10.9
			c5.1-8,9.3-16.5,13.5-25c8.4-16.9,16.8-33.8,22.9-51.7C718.9,604.2,723.5,604.2,722.6,607.1z M644.5,600.1
			c-3.5-7.9-11.8-19.4-21.6-17c-7.2,1.7-11.8,13.1-14.6,18.9c-9,18.2-10.3,38.2-7.8,58.2c0.9,7,3,28.7,13.1,16.1
			c7.2-9,11.8-20.4,15.9-31c4.7-12.3,9.1-24.7,13.5-37.1C643.4,605.5,643.9,602.8,644.5,600.1z"/>
		<path fill="#231F20" d="M885.4,604.6c-21,12.8-40.7,27.4-58.7,43.9c2.7,21.4,4.7,42.8,4.9,64.4c0.2,23.5-1.7,47.3-7.3,70.2
			c-4.8,19.4-12.9,39.9-30.3,51.3c-15.2,10-31.6,8.6-44.5-4.2c-13.2-13.1-14.3-33.9-11.6-51.2c3.2-20.6,12.6-39.8,23.1-57.6
			c9.7-16.5,20.8-32.1,33.2-46.7c1.4-1.7,2.9-3.3,4.3-5c-1.8-15.1-3.9-30.1-6.1-45.1c-1.1-7.2-2.3-14.5-3.4-21.7c0,0,0,0-0.1,0
			c-6.2,18.9-12.4,37.9-20.3,56c-6.4,14.7-21.9,42.1-41.2,26.8c-17.5-13.9-17.5-43.7-14.2-63.5c3.6-21.5,15.3-45.6,37.5-52.8
			c9.5-3.1,20.3-2.2,28.2,4.3c3.2,2.6,5.5,6,7.3,9.7c-0.9-7.7-1.7-15.4-1.9-23.1c-0.2-7.4,6-13.4,12.6-15.3
			c5.8-1.6,14.7,0.5,16.1,7.5c5.3,26.6,8.3,53.9,12,80.8c0.4,2.8,0.8,5.7,1.2,8.5c17.4-15.7,36.6-29.5,57.1-40.7
			C885.7,599.7,888.2,603,885.4,604.6z M784.1,601.7c-3-7.8-11.7-21.1-22.3-18.6c-7.2,1.7-11.8,13.1-14.6,18.9
			c-9,18.2-10.3,38.2-7.8,58.2c0.9,7,3,28.7,13.1,16.1c7.2-9,11.8-20.4,15.9-31C773.8,630.9,779,616.3,784.1,601.7z M800.1,685.9
			c-0.3-2.9-0.6-5.7-0.9-8.6c-1.2,1.4-2.4,2.8-3.6,4.2c-22.2,27.1-44.9,60.6-51,95.8c-2.9,16.7-2.3,43.7,15.8,52.2
			c19.4,9.1,31.1-11.4,35.2-27C805.5,765.1,804,723.9,800.1,685.9z"/>
		<path fill="#231F20" d="M972.6,605.4c-13.5,32.3-26.6,66.3-46.9,95.2c-7,10-17.8,19-30,21.8c-6.9,1.6-12.7-0.5-18.5-4.2
			c-5.8-3.6-8.7-8.5-11.5-14.6c-12.7-27.5-9.7-64.4,0.8-92.2c5.3-14,12.8-27.3,24.6-36.9c9.9-8,22.9-15.4,35.2-8.1
			c10,5.9,8.3,17.9,1.2,25.5c-7.4,7.8-17.6,10.2-27.8,10.5c-7.2,15.3-11.5,32.2-12.6,49.1c-0.7,10.8-0.4,21.7,1.3,32.5
			c0.8,5.2,2,10.4,3.4,15.4c1,3.3,0.9,7,3.6,9.6c16.2,15.9,38.7-33.1,44-43.3c10.4-20.2,19.3-41.2,28.1-62.1
			C968.9,600.2,974.2,601.7,972.6,605.4z M902.3,597c4.9-0.1,9.7-0.8,14.2-2.8c3.7-1.6,7.4-4.3,9.5-7.8c2.3-3.9,2.6-9.6-2.5-11.3
			c-4.7-1.6-10.3,5.8-13,9.1c-2.9,3.7-5.5,7.8-7.7,11.9C902.6,596.4,902.5,596.7,902.3,597z"/>
	</g>
	<g>
		<path fill="#231F20" d="M166,461.5c2,1.3,5.4,1.9,10,1.9c4.6,0,9.8-0.4,15.7-1.3c5.8-0.9,12-2.2,18.4-4c6.5-1.8,12.4-3.9,18-6.4
			c2.7-1.2,5.5-1.9,8.4-2c3-0.1,5.3,0.8,6.9,2.8c2.2,2.5,3.9,5.5,4.9,9.1c1,3.6,1.6,7.3,1.7,11.2c0.1,3.9-0.2,7.7-0.9,11.4
			c-0.7,3.7-1.7,6.9-2.9,9.8c-1,2.1-2.3,4.1-3.8,5.7c-1.5,1.7-3.6,2.8-6.3,3.3c-6.8,1.2-14.8,2.2-24.3,2.8c-9.4,0.6-19,1-28.9,1.1
			c-9.8,0.1-19.4-0.1-28.7-0.5c-9.3-0.4-17.3-1.1-24.1-2c-4.7-0.5-8.4-1.5-11.1-2.8c-2.7-1.3-4.6-3-5.8-5.1c-1.2-2-2-4.5-2.3-7.2
			c-0.3-2.8-0.5-6-0.5-9.8c0.2-13.5,0.2-26.2-0.2-38.1c-0.3-11.8-0.7-23.5-1.1-34.9c-0.4-11.4-0.9-22.8-1.5-34.3
			c-0.6-11.5-1-23.6-1.2-36.2c0-3,0.7-5.4,2.1-7.2c1.4-1.8,3.6-3.4,6.5-4.8c3.3-1.2,7-2.2,11.1-2.9c4.1-0.7,8.3-1,12.6-0.8
			c4.3,0.2,8.5,0.7,12.6,1.5c4.1,0.8,7.8,2,11.1,3.6c3.9,2.1,5.8,5.3,5.8,9.3c-0.2,6.4-0.6,13.8-1.2,22.2c-0.6,8.4-1.3,17.1-2,26.2
			c-0.7,9.1-1.4,18.1-2,27c-0.6,8.9-1,17-1.1,24.3c-0.1,7.3,0.2,13.4,0.8,18.3C163.2,457.5,164.3,460.4,166,461.5z"/>
		<path fill="#231F20" d="M263,338.9c0-4.8,0.8-8.1,2.5-10c1.6-1.9,3.7-3.4,6.1-4.7c6.1-2.7,13.2-4,21.2-4c8,0,14.9,1.5,20.9,4.5
			c5.1,2.5,7.5,6.7,7.1,12.6c-2.7,27.4-4.7,54.2-6,80.2c-1.3,26-0.6,51.4,2.3,76.2c0.4,4.1-1.4,7.1-5.5,9.1c-4.1,2-8.9,3.2-14.4,3.7
			c-5.5,0.5-11.1,0.5-16.7,0c-5.6-0.5-9.7-1.2-12.1-1.9c-2.9-0.9-5.1-2.5-6.6-4.8c-1.5-2.3-2.2-6.3-2-12c0.2-11.4,0.5-23.6,0.9-36.6
			c0.4-13,0.8-26.1,1.2-39.1c0.4-13.1,0.8-25.9,1.1-38.5C263.2,360.9,263.2,349.4,263,338.9z"/>
		<path fill="#231F20" d="M446.3,501.6c-11.5,4.1-22,5.9-31.6,5.3c-9.6-0.5-18.3-2.8-25.9-6.7c-7.7-3.9-14.4-9.3-20.3-16
			c-5.8-6.8-10.6-14.3-14.4-22.7c-3.8-8.4-6.7-17.2-8.6-26.5c-1.9-9.3-2.9-18.4-2.9-27.5c0-12.8,1.9-24.6,5.7-35.3
			c3.8-10.7,9.3-19.9,16.4-27.5c7.2-7.7,15.8-13.6,25.9-17.9c10.1-4.3,21.6-6.4,34.5-6.4c29.1,0,51,7,65.9,21
			c14.8,14,22.3,33.7,22.3,59.2c0,15.9-1.8,29.3-5.5,40.2c-3.7,11-10,20.2-19,27.7c3.1,3,6.1,4.8,9.2,5.2c3.1,0.4,6.5,0.2,10.1-0.7
			c2.9-0.5,4.8,0.2,5.7,2.3c0.9,2,1.3,4.1,1.1,6c-0.4,2.9-1.5,6-3.4,9.5s-4.1,6.8-6.9,9.9c-2.8,3.1-5.8,5.9-9.1,8.3
			c-3.3,2.4-6.5,4.1-9.5,4.9c-4.3,1.2-8.2,1.7-11.7,1.5c-3.5-0.3-6.8-1-10-2.3c-3.2-1.2-6.2-2.9-9.1-4.9
			C452.3,506.1,449.4,503.9,446.3,501.6z M454,438c2-5.5,3.5-11.4,4.3-17.8c0.8-6.3,1.2-12.7,1.2-19.1c0-5.5-0.6-11.4-1.8-17.8
			c-1.2-6.3-3.2-12.2-6-17.5c-2.8-5.3-6.3-9.8-10.7-13.4c-4.4-3.6-9.8-5.3-16.1-5.3c-4.3,0-7.9,1.3-10.9,3.9c-3,2.6-5.5,5.9-7.7,9.9
			c-2.2,4-3.9,8.6-5.2,13.6c-1.3,5.1-2.4,10-3.1,14.8c-0.7,4.8-1.2,9.3-1.4,13.4c-0.2,4.1-0.3,7.3-0.3,9.6c0,7.5,0.6,14.4,1.7,20.8
			c1.1,6.4,2.8,12.1,4.9,17c2.1,4.9,4.7,8.9,7.7,12c3,3.1,6.4,5.1,10.3,6c-2-2.8-3.9-5.6-5.7-8.1c-1.7-2.6-3.2-5.2-4.3-7.9
			c-1.1-2.7-1.8-5.4-2.1-8.3c-0.3-2.8-0.1-6.1,0.8-9.6c1.4-6.9,5.4-12.6,12-16.8c3.3-2.3,6.4-2.8,9.4-1.6c3,1.2,5.8,3.3,8.6,6
			c2.8,2.8,5.4,5.7,7.8,9C449.7,434,451.9,436.4,454,438z"/>
		<path fill="#231F20" d="M614.3,506.9c-6.6,0-13.3-0.7-20.1-2c-6.9-1.3-13.4-3.4-19.5-6.3c-6.1-2.9-11.6-6.5-16.4-11
			c-4.8-4.5-8.4-9.9-10.9-16.1c-1-2.3-1.8-5.1-2.3-8.2c-0.5-3.1-0.9-6.3-1.2-9.5c-0.3-3.2-0.5-6.4-0.6-9.6c-0.1-3.2-0.2-6.1-0.2-8.6
			c-0.2-6.9-0.4-13.9-0.6-21c-0.2-7-0.5-14-0.9-21c-0.4-9.1-1-18.1-1.7-27.1c-0.7-9-1.3-18-1.7-27.1c-0.2-3,0.5-6,2.2-9
			c1.6-2.9,3.9-5.1,6.8-6.5c5.3-2.5,11.6-3.7,18.7-3.7c7.2,0,13.4,1.1,18.7,3.2c3.7,1.4,6.5,3.6,8.6,6.4c2,2.9,2.9,6.1,2.5,9.6
			c-1,8.2-1.9,16.1-2.8,23.6c-0.8,7.6-1.5,15.1-2,22.7c-0.5,7.6-0.8,15.2-0.8,22.8c0,7.7,0.4,15.7,1.2,24.1c0.2,3,0.7,6.1,1.5,9.1
			c0.8,3,2.1,5.7,3.8,8.2c1.7,2.4,4,4.4,6.9,5.9c2.9,1.5,6.5,2.3,10.7,2.3c4.3,0,7.9-0.8,10.7-2.3c2.9-1.5,5.1-3.5,6.8-5.9
			c1.6-2.4,2.9-5.1,3.7-8.2c0.8-3,1.3-6.1,1.5-9.1c0.8-8.4,1.2-16.4,1.2-24.1c0-7.7-0.3-15.3-0.8-22.8c-0.5-7.6-1.2-15.1-2-22.7
			c-0.8-7.6-1.6-15.5-2.5-23.6c-0.4-3.6,0.4-6.8,2.3-9.6c1.9-2.8,4.8-5,8.4-6.4c5.5-2.1,11.8-3.2,18.9-3.2c7.1,0,13.3,1.2,18.6,3.7
			c3.1,1.4,5.4,3.6,6.9,6.5c1.5,2.9,2.2,5.9,2,9c-0.4,9.1-1,18.1-1.7,27.1c-0.7,9-1.3,18-1.7,27.1c-0.4,6.9-0.7,13.9-0.8,21
			c-0.1,7-0.4,14-0.8,21c0,2.5-0.1,5.3-0.2,8.6c-0.1,3.2-0.3,6.4-0.6,9.6c-0.3,3.2-0.7,6.4-1.2,9.5c-0.5,3.1-1.2,5.9-2,8.2
			c-2.5,6.3-6.1,11.6-10.9,16.1c-4.8,4.5-10.3,8.2-16.4,11c-6.1,2.9-12.6,5-19.5,6.3C627.5,506.3,620.8,506.9,614.3,506.9z"/>
		<path fill="#231F20" d="M716.8,338.9c0-4.8,0.8-8.1,2.5-10c1.6-1.9,3.7-3.4,6.1-4.7c6.1-2.7,13.2-4,21.2-4c8,0,14.9,1.5,20.9,4.5
			c5.1,2.5,7.5,6.7,7.1,12.6c-2.7,27.4-4.7,54.2-6,80.2c-1.3,26-0.6,51.4,2.3,76.2c0.4,4.1-1.4,7.1-5.5,9.1c-4.1,2-8.9,3.2-14.4,3.7
			c-5.5,0.5-11.1,0.5-16.7,0c-5.6-0.5-9.7-1.2-12.1-1.9c-2.9-0.9-5.1-2.5-6.6-4.8c-1.5-2.3-2.2-6.3-2-12c0.2-11.4,0.5-23.6,0.9-36.6
			c0.4-13,0.8-26.1,1.2-39.1c0.4-13.1,0.8-25.9,1.1-38.5C717,360.9,717,349.4,716.8,338.9z"/>
		<path fill="#231F20" d="M964.3,413.4c-0.6,17.3-4.1,31.8-10.4,43.4c-6.3,11.7-14.7,21.1-25.2,28.2c-10.4,7.1-22.5,12.3-36.2,15.6
			c-13.7,3.3-28.2,5.1-43.6,5.5c-6.8,0.2-13,0.4-18.7,0.7c-5.7,0.3-10.6-0.1-14.7-1.2c-4.1-1.1-7.3-3-9.5-5.9
			c-2.3-2.8-3.4-7.2-3.4-13.1c0-1.8,0-5.7,0-11.9c0-6.1-0.1-13.4-0.2-21.9c-0.1-8.5-0.3-17.7-0.5-27.7c-0.2-10-0.5-19.7-0.9-29.3
			c-0.4-9.5-1-18.4-1.7-26.7c-0.7-8.3-1.5-15-2.3-20.2c-1.2-6.4-0.3-11.5,2.8-15.2c3.1-3.7,6.9-6.5,11.5-8.4
			c4.6-1.9,9.4-3.1,14.4-3.7c5-0.6,9-0.9,11.8-0.9c5.5-0.2,11-0.4,16.4-0.5c5.4-0.2,10.9,0,16.4,0.4c5.5,0.5,11.1,1.2,16.7,2.3
			c5.6,1.1,11.3,2.8,17,5.1c19.9,7.8,35.2,19.1,45.9,33.7C960.8,376.2,965.5,393.5,964.3,413.4z M853.1,368.8
			c-1,6.9-1.8,14.3-2.3,22.2c-0.5,7.8-0.8,15.6-0.8,23.2c0,7.7,0.3,15,0.8,21.9c0.5,7,1.4,13,2.6,18.2c0.8,3.4,3.2,5.9,7.2,7.5
			s8.5,2,13.7,1.3c5.1-0.7,10.2-2.7,15.2-5.9c5-3.2,9-7.8,11.8-13.9c3.1-6.6,5.1-13.4,6.1-20.4c1-7,1.1-13.8,0.3-20.4
			c-0.8-6.6-2.5-12.7-5.1-18.3c-2.6-5.6-5.8-10.5-9.7-14.6c-3.3-3.4-7.1-5.8-11.5-7.2c-4.4-1.4-8.7-2.1-12.7-2
			c-4.1,0.1-7.6,0.8-10.6,2.3C855.2,364.1,853.5,366.1,853.1,368.8z"/>
	</g>
</g>
</svg>


