<?xml version="1.0" encoding="utf-8"?>
<!-- Generator: Adobe Illustrator 18.0.0, SVG Export Plug-In . SVG Version: 6.00 Build 0)  -->
<svg version="1.2" baseProfile="tiny" xmlns="http://www.w3.org/2000/svg" xmlns:xlink="http://www.w3.org/1999/xlink"
	 x="0px" y="0px" viewBox="0 0 1080 1296" xml:space="preserve" width="500" height="500">
<g>
	<g>
		<path fill="#231F20" d="M752.7,898.2c-2.3-3.8-5.4-6.5-8.9-8.7c-6.3-3.8-12.5-0.5-13.2,6.9c-0.5,6.1,2,11,5.8,15.5
			c4.4,5.2,9.8,9.6,14.6,14.5c2.8,2.8,5.6,5.5,8.5,8.3c0.5,0.5,1.1,1,1.7,1.3c1.5,0.8,2.9,0.6,4.1-0.7c0.7-0.8,1.3-1.7,1.6-2.6
			c2.8-7.6,6.1-15.2,7.2-23.3c1-7.1,1.1-14.1-1.3-20.9c-1.2-3.3-3.2-6.1-6.8-7.2c-3.4-1-6.5-0.2-8.9,2.5c-3.3,3.7-4.1,8.3-4.3,13
			C752.7,897.1,752.7,897.6,752.7,898.2z"/>
	</g>
	<g>
		<path fill="#231F20" d="M574.7,932.6c-16.4,11.3-34.7,15.7-54.1,15.8c-12.2,0.1-24.1-2-35.9-4.9c-29.7-7.3-33.6-5.6-49,20.8
			c0.3-11.4,4.7-20.8,9.8-29.5c8.7-15.1,20.4-19.3,37.9-14.7c10,2.6,19.6,6.4,29.4,9.4C533.1,935.8,553.7,937.3,574.7,932.6z"/>
	</g>
	<g>
		<path fill="#231F20" d="M574.7,892.8c-16.4,11.3-34.7,15.7-54.1,15.8c-12.2,0.1-24.1-2-35.9-4.9c-29.7-7.3-33.6-5.6-49,20.8
			c0.3-11.4,4.7-20.8,9.8-29.5c8.7-15.1,20.4-19.3,37.9-14.7c10,2.6,19.6,6.4,29.4,9.4C533.1,896,553.7,897.5,574.7,892.8z"/>
	</g>
	<g>
		<path fill="#231F20" d="M128.2,1043.8c-0.8-3,16-4.6,17.2,0c3,10.5,17.4,9.3,36.5,3.6c0.6-3,1-6.2,1.6-8.9
			c3.9-24.8,11.2-49,20.3-72.3c9.9-25.6,21.9-50.4,36.1-73.8c5.7-9.5,11.6-20,19.3-28.2c1.6-1.8,6.1-7.3,8.9-8.1
			c1.2-0.4,12.2-2.4,13.6-0.6c2.2-0.6,6.5-0.6,7.3,0.6c10.7,18.1,0.8,48-0.4,68.3c-1.4,24.6-2,49-1.4,73.6
			c0.2,5.8,0.2,11.5,0.4,17.5c13-1,23.7,1.4,29.6,9.5c2.2,3.2-12.8,3.6-15.2,2c-3.6-2.4-8.3-3.4-14-3.2c0.6,17.9,1.8,35.5,5.1,53.2
			c4.3,24.2,18.2,56.6,24.3,80c1,3.8-14.6,2.4-16.6,0.8c-31.4-28-43.8-84-46.4-126.1c-16.8,5.8-35.5,13.7-53.5,20.2
			c-2,11.5-3.6,23.4-4.5,35.1c-1,12.7,0.4,25.6-3.6,37.7c-0.6,1.4-7.9,1.4-8.5,0c-8.5-18.5-7.1-43.9-4.1-66.3
			C154.4,1065.6,133.3,1065.4,128.2,1043.8z M203.2,1040.4c16.2-6,34.1-12.7,50.9-17.9c-0.4-7.1-0.6-14.3-0.8-21
			c-0.4-26.8-0.8-54.2,2.8-80.8c1-7.9,2.2-16.7,3.9-25c-1.8,2.8-3.6,5.4-4.9,7.9c-11.8,20.8-22.3,42.3-31,64.5
			C215.2,991.4,208.1,1015.8,203.2,1040.4z"/>
		<path fill="#231F20" d="M331.2,950.9c6.5-23.8,20.1-52.2,47.5-53.6c1-0.2,8.3,1,7.7,2c12,3.2,11.6,14.1,11,25.4
			c-2.8,44.3-20.9,89.1-45.4,126.3c-0.4,18.5,1,38.9,14.2,45.9c9.5,5.2,12.4,0.8,19.3-6.4c2.8-2.8,5.3-6,7.7-9.3
			c7.3-10.1,10.9-21,14.8-32.8c0.4-0.6,5.3-0.6,5.5,0c5.1,27-14.8,59.2-43,61.9c-30,3-45-19.9-46.4-47.4
			C322.3,1026.7,321.3,986,331.2,950.9z M353.3,1017.6c5.7-12.3,11.4-24.8,16.2-37.7c4.9-13.3,9.3-27.2,12.4-41.1
			c2-8.3,6.9-37.3-7.3-33.2C361,919.1,358,950.9,356,966.2C353.9,983.1,353.5,1000.3,353.3,1017.6z"/>
		<path fill="#231F20" d="M440.1,1045.2c-0.2,9.3-1.2,26.4,3.9,34.7c9.3,14.7,32.6-13.5,40.4-23.2c1.2-1.6,10.5-0.6,10.1,0.2
			c-8.3,19.7-37.3,40.9-57.2,39.3c-26.4-2-31.2-23.8-30-47.4c1.4-24,9.7-55.4,34.5-64.7c14.2-5.4,37.5-5.4,42.4,12.3
			c0,0.2-4.5,0.6-4.9,0C451.3,969,440.5,1027.5,440.1,1045.2z"/>
		<path fill="#231F20" d="M488.4,1043.8c1-18.9,7.5-40.7,19.7-55.6c4.1-5,10.3-9.9,16-12.3c1.6-0.6,17.2-3.4,23.1-1.6
			c3.6-0.4,7.5-0.4,11.6,0.4c35.3,6.4,37.7,52.8,27,84.4c5.5,0.4,11-0.6,15-3.8c4.1-3.4,21.9-1,17.2,2.4c-9.3,6.8-21.9,9.1-34.7,8.1
			c-2,4.4-4.1,8.1-6.3,11.5c-9.3,12.9-25.1,21.2-40.6,23c-2,0.2-7.5,0.2-13-0.6C500.2,1100.4,487.4,1064.5,488.4,1043.8z
			 M532.2,1093.8c0.6,0,1.2,0,2,0.2c9.9-2,20.1-9.5,25.1-15.9c3.6-4.6,6.3-9.7,8.5-15.1c-16.2-4.4-31.2-13.5-38.9-25
			c-2.2-3.6-4.1-7.3-5.3-11.3C520.3,1045.4,517.6,1078.9,532.2,1093.8z M540.1,1023.8c3,10.9,10.1,20,19.5,26c3,2,6.7,4,10.9,5.6
			c0.4-1.6,1-3,1.4-4.6c4.3-17.5,3.6-36.7-4.1-53.2c-1.2-4-3.2-7.5-5.9-10.5c-6.1-0.2-12-0.6-18.2-0.8c-2.8,1.8-3.9,10.3-4.5,13.5
			C537.5,1007.5,537.9,1016.2,540.1,1023.8z"/>
		<path fill="#231F20" d="M617.6,1087.3c-8.7-15.9-7.3-34.3-7.5-52.2c-0.4-18.3,0-36.5,1-55c1.6-25.8-0.2-68.9,23.7-85.8
			c2.4-1.8,14.4-3.6,15.4,0.6c3.2,13.3-3,30.8-4.1,44.7c-1.6,16.1-2.6,32.4-3.2,48.6c-0.2,7.7-0.4,15.7-0.4,23.4c1-2.4,2-4.8,3-7.1
			c6.1-13.5,13.6-28.4,30-28.8c46-0.8,6.1,107.4,39.5,129.4c5.9,4.2-12.8,5.8-16,4.4c-33.9-14.3-20.7-74-20.5-102.4
			c0-3.8,1.4-13.5-0.4-17.5c-3.9-8.5-6.1-5.2-11-1.2c-8.1,6.4-12.8,24.4-16,34.1c-3.8,11.5-5.7,23.6-7.9,35.5
			c0.4,9.9,0,19.8-3.8,29.4C637.3,1092.4,620,1091.6,617.6,1087.3z"/>
		<path fill="#231F20" d="M711.1,1043.8c1-18.9,7.5-40.7,19.7-55.6c4.1-5,10.3-9.9,16-12.3c1.6-0.6,17.2-3.4,23.1-1.6
			c3.6-0.4,7.5-0.4,11.6,0.4c35.3,6.4,37.7,52.8,27,84.4c5.5,0.4,11-0.6,15-3.8c4.1-3.4,21.9-1,17.2,2.4c-9.3,6.8-21.9,9.1-34.7,8.1
			c-2,4.4-4.1,8.1-6.3,11.5c-9.3,12.9-25.1,21.2-40.6,23c-2,0.2-7.5,0.2-13-0.6C722.9,1100.4,710.1,1064.5,711.1,1043.8z
			 M754.9,1093.8c0.6,0,1.2,0,2,0.2c9.9-2,20.1-9.5,25.1-15.9c3.6-4.6,6.3-9.7,8.5-15.1c-16.2-4.4-31.2-13.5-38.9-25
			c-2.2-3.6-4.1-7.3-5.3-11.3C743,1045.4,740.3,1078.9,754.9,1093.8z M762.8,1023.8c3,10.9,10.1,20,19.5,26c3,2,6.7,4,10.9,5.6
			c0.4-1.6,1-3,1.4-4.6c4.3-17.5,3.6-36.7-4.1-53.2c-1.2-4-3.2-7.5-5.9-10.5c-6.1-0.2-12-0.6-18.2-0.8c-2.8,1.8-3.9,10.3-4.5,13.5
			C760.2,1007.5,760.6,1016.2,762.8,1023.8z"/>
		<path fill="#231F20" d="M841.3,950.9c6.5-23.8,20.1-52.2,47.5-53.6c1-0.2,8.3,1,7.7,2c12,3.2,11.6,14.1,11,25.4
			c-2.8,44.3-20.9,89.1-45.4,126.3c-0.4,18.5,1,38.9,14.2,45.9c9.5,5.2,12.4,0.8,19.3-6.4c2.8-2.8,5.3-6,7.7-9.3
			c7.3-10.1,10.8-21,14.8-32.8c0.4-0.6,5.3-0.6,5.5,0c5.1,27-14.8,59.2-43,61.9c-30,3-45-19.9-46.4-47.4
			C832.4,1026.7,831.4,986,841.3,950.9z M863.4,1017.6c5.7-12.3,11.4-24.8,16.2-37.7c4.9-13.3,9.3-27.2,12.4-41.1
			c2-8.3,6.9-37.3-7.3-33.2c-13.6,13.5-16.6,45.3-18.6,60.5C864,983.1,863.6,1000.3,863.4,1017.6z"/>
	</g>
	<g>
		<path fill="#231F20" d="M220.9,841.4v1.6c-0.9,3.9-4.1,6.4-9.6,7.7c-2.2,0.6-5,0.9-8.3,0.9s-6.5-0.6-9.4-1.7c-2-0.6-3.7-1.9-5.2-4
			c-1.5-2-2.7-5.6-3.7-10.7c-1-5.1-1.6-12.5-1.8-22.3c-0.2-11.7-0.1-25.6,0.3-42c0.4-16.3,0.9-32.1,1.5-47.3
			c0.3-9.2,0.6-17.2,0.7-24.2c0.1-3.4,0.2-6.5,0.3-9.2c0.1-6.9,0.3-12.1,0.5-15.7c0.2-3.5,0.6-6.1,1-7.8c0.5-1.6,1.3-3,2.4-4.1
			c1.8-1.9,4.2-3.4,7.2-4.3c3-0.9,6-1.4,9.1-1.4c3.2,0,6.2,0.5,9.1,1.4c2.9,0.9,5,2.2,6.4,3.8c1,0.9,1.8,2.4,2.2,4.4
			c0.1,0.8,0.2,1.7,0.3,2.7c5.7-5.4,14.2-9,25.4-10.8c6.6-1,13.8-1,21.5,0.2c7.7,1.1,15,4,21.8,8.7c6.9,4.7,12.4,11.9,16.7,21.6
			c6.1,15.7,8.6,34.7,7.5,57.2c-1.1,22.4-5,42-11.8,58.8c-4.5,10.4-9.8,18.5-15.9,24.4c-6.1,5.8-12.5,10-19,12.5
			c-6.5,2.5-12.8,4-18.7,4.4c-8.8,0.6-16.2,0-22.2-1.7C226.2,843.6,223.4,842.6,220.9,841.4z M220.8,830.7c15,0.8,25.9-0.6,32.7-4
			c6.8-3.5,12.3-10.7,16.7-21.7c4-12.1,6.3-26.9,7-44.3c0.6-17.4,0.3-32.9-0.9-46.6c-1.1-12.7-2.8-22.1-5.1-28.2
			c-2.2-6.1-5-10.3-8.2-12.7c-7-5.4-14.2-5.8-21.7-1.3c-3.6,2.5-6.6,6-9.1,10.4c-2.5,4.5-4.4,9.3-5.7,14.4
			c-1.5,7.1-2.3,13.5-2.4,19.2c-1.3,24.2-2.1,44.8-2.4,61.8C221.1,797.9,220.8,815.6,220.8,830.7z"/>
		<path fill="#231F20" d="M382.4,751.7c-0.8,11.6-1.4,23.7-1.9,36.4c-0.6,15.3-1.3,28-2.2,38.2c-0.7,6.8-1.5,11.9-2.6,15.2
			c-1,3.3-2.2,5.5-3.4,6.6c-1.3,1.1-2.6,1.8-4.1,1.9c-4.6,1-8.7,0.7-12.4-0.9c-0.9-0.4-1.7-1.1-2.3-2c-0.6-1-1.1-2.6-1.5-5
			c-0.4-2.3-0.7-5.7-0.8-10.1c-0.1-4.4-0.1-10.3,0.2-17.6c0.3-15.8,1.6-34.9,3.8-57.5c2.2-22.6,5.8-42.4,11-59.5
			c5.4-15.7,12.2-26.5,20.4-32.5c8.2-6,17-9.1,26.4-9.3c9.5-0.9,18.7,1.1,27.5,6.2c8.8,5.1,16.2,15.4,22,31.1
			c5.5,17.2,9.2,37.5,11,60.8c1.8,23.4,2.5,43.3,1.9,59.8c-0.5,10.1-1.3,17.7-2.4,22.7c-1.1,5-2.5,8.4-4.1,10.1
			c-1.6,1.7-3.4,2.8-5.3,3.2c-5.7,1.6-11.3,1.5-16.7-0.3c-1.7-0.4-3.3-1.4-4.6-3c-1.4-1.6-2.6-4.6-3.6-8.9c-1-4.4-1.8-10.9-2.2-19.6
			c-0.7-13.4-1-29.6-1-48.7c0-6.1-0.1-11.9-0.2-17.5c-5.5,0.3-11.8,0.5-18.9,0.7c-8.8,0.2-16.6,0.2-23.4,0
			C388.6,752.1,385.2,751.9,382.4,751.7z M434.9,735c-0.2-8.3-0.5-16.1-0.9-23.4c-1-14.4-2.7-24.5-4.9-30.4
			c-2.2-5.9-5.1-9.4-8.5-10.4c-3.4-1.3-7.1-1.1-11.1,0.8c-4,1.9-7.7,5.4-11.3,10.5c-6.9,9.4-11.8,27.5-14.6,54.4
			c1.5-0.1,3.2-0.2,5-0.4c7.1-0.4,15.5-0.7,25.3-0.9C421.8,735.1,428.8,735,434.9,735z"/>
		<path fill="#231F20" d="M621,792.4c0.1-6.8,0.2-14.1,0.3-22c0.3-17,0.8-33.4,1.4-49.1c0.2-8.8,0.4-16.5,0.5-23.2
			c0.1-3.4,0.2-6.5,0.3-9.2c0.1-6.8,0.3-12,0.4-15.6c0.2-3.5,0.4-6.5,0.6-9c0.2-2.5,1.3-4.4,3.1-5.9c1.8-1.4,4.4-2.2,7.8-2.4
			c3.4-0.2,6.4,0.2,9,1.2c2.6,0.9,4.6,2.2,5.8,3.8c0.9,0.9,1.6,2.4,2,4.5c0.4,2.1,0.6,5.5,0.7,10.3c0.1,4.8-0.1,11.8-0.4,21
			c-0.8,27.1-1.5,54-2.1,80.5c-0.6,26.6-0.8,48.7-0.6,66.3c-0.8,3.9-3.7,6.5-8.8,7.8c-2,0.5-4.4,0.8-7.4,0.8c-2.6,0-5.3-0.2-8-0.7
			s-5.5-1.6-8.3-3.4c-1.3-0.8-2.5-2.1-3.8-4c-1.3-1.9-2.8-5.2-4.6-9.8c-1.8-4.6-4.2-11.4-7.3-20.2c-4.5-13.5-9.5-30.6-15.1-51.2
			c-4.6-16.6-8.9-31.3-12.9-44.1c-0.7,19.9-1.3,39.5-1.7,58.7c-0.7,26-0.9,47.7-0.7,65.4c0.1,2.9-1.6,5-5.1,6.5
			c-3.5,1.4-7.4,2.2-11.6,2.2c-4.2,0-7.6-0.4-10-1.3c-2.4-0.9-4.4-2.4-5.8-4.4c-1.5-2-2.7-5.6-3.7-10.7c-1-5.1-1.6-12.5-1.8-22.3
			c-0.2-11.7-0.1-25.6,0.3-42c0.4-16.3,0.9-32.1,1.5-47.3c0.3-9.2,0.6-17.2,0.7-24.2c0.1-3.4,0.2-6.5,0.3-9.2
			c0.1-6.9,0.3-12.1,0.5-15.7c0.2-3.5,0.6-6.1,1-7.8c0.5-1.6,1.3-3,2.4-4.1c1.8-1.9,4.2-3.4,7.2-4.3c3-0.9,6-1.4,9.1-1.4
			c3.2,0,6.2,0.5,9.1,1.4c8.9,2.9,15.2,7.5,18.8,13.8c3.6,6.3,7.3,14.2,11.1,23.6c6.2,17.2,12.3,39.6,18.4,67.1
			C616.3,773.7,618.7,783.5,621,792.4z"/>
		<path fill="#231F20" d="M768.2,849c-2.6,0-5.3-0.2-8.1-0.6c-8.6-1.2-17.1-4.6-25.4-10.3c-8.3-5.7-15-14.4-20.2-26
			c-5.5-13.9-8.3-30.7-8.3-50.5c0-13.4,1.3-26.3,3.8-38.9c6.2-29.8,17.2-50.3,33.2-61.7c8-5.3,16.3-8.3,24.9-9.1
			c2.2-0.2,4.3-0.2,6.4-0.2c6.2,0,11.9,0.8,17.2,2.3c13.4,4.1,22.1,11.7,26.1,22.7c2.9,8.5,4.3,16.8,4.3,24.9c0,3.3-0.2,6.5-0.7,9.7
			c-1.2,10.4-4.1,16.7-8.8,19c-0.9,0.4-1.8,0.6-2.7,0.6c-1.6,0-3.4-0.7-5.5-2.2c-3.2-2.3-4.8-8.7-4.8-19.2l0.3-10.8
			c0-3-0.1-6.3-0.4-10.1c-0.3-3.8-1.3-7.5-3-11.1c-3.4-5.7-8.4-8.6-14.8-8.6c-5.7,0-11.1,3-16.2,9.1c-8.4,11.7-14.3,33-17.9,63.7
			c-1.3,11.4-1.9,20.9-1.9,28.4c0,7.6,0.4,14.5,1.2,20.7c0.6,6.5,1.5,12.8,2.7,18.8c2.5,12,7.4,19,14.6,21.2
			c2.6,0.8,5.1,1.2,7.4,1.2c5.8,0,10.6-1.7,14.3-5.1c3.9-2.7,7.6-7.3,11-13.9c1.3-3.1,2.4-6.4,3.4-9.9c1.4-4.6,2.9-8.5,4.6-11.9
			c3.1-4.5,6.4-6.8,9.8-6.8c2.9,0,4.8,1.2,5.8,3.5c0.6,1,0.9,2.4,0.9,4.2c0,5.8-2.3,13.7-7,23.8c-3.2,6.9-7.5,13.2-12.7,18.9
			C792.9,844.3,781.6,849,768.2,849z"/>
		<path fill="#231F20" d="M894.4,735c4.2-0.2,8.8-0.3,13.8-0.5c10.1-0.2,18.7-0.3,26-0.2c4.5,0.2,7.8,0.4,10.1,0.6
			c2.2,0.3,3.8,0.6,4.7,0.9c0.9,0.3,1.6,0.7,2.1,1.1c1.6,1.2,2.5,2.4,2.6,3.8c0.2,1.6-0.5,3.3-2.2,5.1c-0.7,1-2.2,2-4.5,2.9
			c-2.3,0.9-6.5,1.6-12.5,2.2c-6.6,0.6-14.6,1-23.7,1.2c-6.2,0.1-11.9,0.1-17,0.1l-0.7,16.3c-0.7,15.1-1.1,27.9-1.4,38.3
			c-0.1,8.8,0.1,15.1,0.8,19.1c0.6,3.9,1.8,6.3,3.5,7.2c1.7,0.9,4.2,1.3,7.6,1.1c5.8-0.2,12.8-0.4,21-0.8c6.6-0.2,12.7-0.4,18-0.6
			c5.5-0.2,9.7-0.1,12.5,0.1c2.9,0.2,4.9,0.8,6.2,1.7c2.7,2,3.2,4.6,1.2,7.8c-0.8,1.6-2.8,3-6,4.3c-3.2,1.3-8.8,2.3-16.7,3.1
			c-8.6,0.9-18.7,1.3-30.3,1.2c-11.6,0-21.9-0.7-30.9-1.9c-5.6-0.8-10.2-2.3-13.8-4.4c-3.6-2.2-6.2-5.9-7.9-11.2
			c-1.7-5.3-2.8-13-3.3-23c-0.6-16.3-0.3-35.7,0.9-58c1.2-22.4,2.5-41.3,4-56.9c0.7-7.1,1.3-12.9,1.9-17.1c0.6-4.3,1.1-7.5,1.6-9.7
			c0.5-2.2,1.4-4.4,2.7-6.7c1.3-2.3,3.8-4,7.4-5.2c3.6-1.2,14.8-2.1,33.4-2.7c18.7-0.7,31.6-1,38.9-0.9c4.5,0.2,7.8,0.4,10.1,0.6
			c2.2,0.3,3.8,0.6,4.7,0.9c0.9,0.3,1.6,0.7,2.1,1.1c1.6,1.2,2.5,2.4,2.6,3.8c0.2,1.6-0.5,3.3-2.2,5.1c-0.7,1-2.2,2-4.5,2.9
			c-2.3,0.9-6.5,1.6-12.5,2.2c-6.6,0.6-14.6,1-23.7,1.2c-9.1,0.2-17.1,0.2-24.1,0c0,0.2,0.1,0.5,0.2,0.7c0,2.3-0.1,5.7-0.2,10
			c-0.1,4.3-0.3,10-0.7,17l-1.2,25.5C894.8,727.9,894.6,731.4,894.4,735z"/>
	</g>
	<g>
		<path fill="#231F20" d="M191.5,617.2c-0.4-17.4-0.7-33.5-1-48.3c-0.3-14.8-0.3-27.1-0.1-37c-0.6-0.3-0.8-0.6-0.6-0.7
			c-2.8-3.7-6.5-8.8-11.2-15.1c-4.7-6.3-9.7-13-15-20.1c-5.3-7.1-10.5-14.1-15.5-21.1c-5-7-9.1-13-12.2-18c-1.2-2.1-1.2-4.5,0-7.1
			c1.2-2.6,3-4.9,5.6-6.9c2.6-2,5.4-3.4,8.4-4.1c3-0.7,5.8-0.3,8.1,1.3c3.3,4.2,7.2,9.5,11.6,15.8c4.4,6.3,8.8,12.8,13.1,19.3
			c4.3,6.5,8.4,12.7,12.2,18.5c3.8,5.9,6.8,10.3,9,13.4c0.8-1.3,2.5-4.1,5-8.3c2.6-4.2,5.6-9.3,9-15.4c3.4-6,7.1-12.6,10.9-19.6
			c3.8-7.1,7.5-14,11.1-20.8l-0.3-0.2c1-1.3,2.3-2.2,4-2.8c1.7-0.6,3.4-0.9,5.2-0.9c2.6,0,5.1,0.5,7.5,1.6c2.5,1.1,4.6,2.4,6.3,4.1
			c1.8,1.7,3,3.5,3.8,5.5c0.8,2,0.6,3.7-0.6,5.4v-0.2l-46.9,75.8c0.2,6.7,0.3,13.2,0.4,19.6c0.1,6.4,0.1,13,0.1,19.9
			s-0.1,14.1-0.3,21.8c-0.2,7.7-0.4,16.2-0.6,25.5c-0.4,1.3-1.7,2.3-4,2.9c-2.3,0.7-4.9,1-7.8,1c-3.5,0-7-0.4-10.3-1.2
			C193.2,619.8,191.5,618.7,191.5,617.2z"/>
		<path fill="#231F20" d="M338.6,434.9c11.4-0.2,21.5,3.2,30.2,10c8.7,6.8,15.1,15.8,19,27.1c2.7,7.8,4.4,15.4,4.9,22.8
			c0.5,7.4,0.7,14.7,0.7,22.1c0,1.3,0,2.6-0.1,4c-0.1,1.4-0.1,2.8-0.1,4.3c-0.2,3.9-0.5,8.9-0.9,14.9c-0.4,6-1.2,12.5-2.4,19.4
			c-1.2,6.9-2.9,13.9-5.2,20.8c-2.3,7-5.3,13.4-9.1,19.3c-3.8,5.9-8.6,10.7-14.3,14.6c-5.7,3.9-12.6,6.1-20.6,6.6
			c-10.6,0.5-19.6-0.8-27-3.8c-7.4-3-13.4-7-18.1-12.1c-4.7-5-8.4-10.7-11.1-17.1s-4.6-12.6-5.9-18.9c-1.3-6.3-2.1-12-2.5-17.3
			c-0.4-5.3-0.7-9.5-0.9-12.6c-0.2-1.6-0.3-3.4-0.3-5.4c0-2,0-3.7,0-5.4c0-4.7,0.1-9.6,0.4-14.7c0.3-5.1,0.8-10.2,1.5-15.2
			c0.7-5,1.6-9.9,2.8-14.6c1.2-4.7,2.7-8.9,4.4-12.7c3.9-7.3,7.8-13.3,11.5-17.9c3.7-4.6,7.7-8.2,11.9-10.8
			c4.2-2.6,8.8-4.4,13.9-5.5C326.4,435.7,332.1,435.1,338.6,434.9z M338.6,458.3c-5.9-0.6-11.1,1.2-15.5,5.5
			c-4.4,4.3-8.1,10.2-10.9,17.5c-2.8,7.4-5,15.9-6.5,25.5c-1.5,9.6-2.2,19.3-2.2,29c0,12,1.4,23.6,4.1,34.6c0.6,2.1,1.5,4.8,2.8,8
			c1.3,3.3,2.9,6.5,4.9,9.6c2,3.2,4.4,5.9,7.2,8.3c2.8,2.4,6.2,3.6,10.2,3.8c4.3-0.3,8-1.3,10.9-2.9c2.9-1.6,5.4-3.6,7.2-5.9
			c1.9-2.3,3.4-4.6,4.6-7.1c1.2-2.4,2.1-4.6,2.7-6.6c1.4-4.2,2.7-10,4.1-17.4c1.4-7.4,2.5-15.4,3.2-24.1c0.8-8.7,1.1-17.5,0.9-26.6
			c-0.2-9-1.2-17.2-3.1-24.6c-1.9-7.4-4.8-13.6-8.7-18.5C350.6,461.5,345.3,458.8,338.6,458.3z"/>
		<path fill="#231F20" d="M458.3,622.4c-6.3-0.2-12.7-0.8-19.2-1.8c-6.5-1.1-12.3-2.8-17.4-5.1c-5.1-2.4-9.3-5.5-12.5-9.5
			c-3.2-4-4.9-9.1-4.9-15.2c0-0.3-0.1-7.9-0.1-22.8c-0.1-14.9-0.1-36.7-0.1-65.4c0-8.3,0-15.5,0.1-21.6c0.1-6.1,0.2-11.4,0.3-15.8
			c0.1-4.5,0.2-8.4,0.4-11.8c0.2-3.4,0.5-6.7,0.9-10c0.2-0.8,1-1.6,2.4-2.4c1.4-0.8,5.2-1.4,11.5-1.7c1.4,0,3,0.1,4.9,0.2
			c1.9,0.2,3.6,0.4,5.3,0.7c1.7,0.3,3.1,0.8,4.3,1.5c1.2,0.7,1.8,1.3,1.8,2c0,2-0.1,4.8-0.3,8.5c-0.2,3.7-0.4,9.3-0.6,16.7
			s-0.4,17.1-0.6,29.1c-0.2,12-0.3,27.4-0.3,46.1c0,7.8,0,14.2,0.1,19.3c0.1,5,0.2,9,0.4,11.9c0.2,2.9,0.3,5,0.4,6.1
			c0.1,1.1,0.1,1.6,0.1,1.5c0,2,0.2,4.1,0.6,6.5c0.4,2.4,1.3,4.6,2.8,6.8c1.5,2.2,3.7,4,6.8,5.5c3,1.5,7.3,2.2,12.8,2.2
			c6.7-0.2,11.8-1,15.5-2.4c3.6-1.5,6.3-3.2,8.1-5.2c1.8-2,2.8-4.2,3.1-6.5c0.3-2.3,0.4-4.3,0.4-6.1c0-10.4,0-21.9,0-34.4
			c0-12.5,0.1-25,0.3-37.5c0.2-12.5,0.4-24.6,0.6-36.3c0.2-11.7,0.5-22.1,0.9-31.2c0-1.3,1.5-2.4,4.6-3.4c3-1,6.2-1.5,9.6-1.5
			c5.7,0,9.6,0.5,11.8,1.5c2.2,1,3.2,3.3,3.2,6.8c0,6.8,0,14.3,0,22.5c0,8.2,0,16.6,0,25.2c0,8.6,0,17.3,0,26c0,8.7,0,16.9,0,24.7
			c0,7.8-0.1,15-0.1,21.6c-0.1,6.6-0.3,12-0.4,16.2c0,6.7-1.5,12.5-4.4,17.4c-2.9,5-7,9.1-12.2,12.3c-5.2,3.3-11.3,5.7-18.3,7.2
			C473.9,622.1,466.4,622.7,458.3,622.4z"/>
		<path fill="#231F20" d="M709.8,600.7c-7.5,13.6-19.9,20.5-37.4,20.5c-7.5,0-14-1.3-19.5-3.8c-5.5-2.5-10.2-5.6-14-9.4
			c-3.8-3.7-6.8-7.8-9-12.2c-2.2-4.4-3.4-8.5-3.8-12.4c-1-8.8-1.5-17.6-1.6-26.6c-0.1-8.9-0.1-17.8-0.1-26.6v-5.9
			c0-7.6,0-15.6,0.1-23.9c0.1-8.3,0.6-16.6,1.6-24.9c0.4-3.6,1.5-7.7,3.4-12.3s4.6-8.9,8.3-12.9c3.6-4,8.4-7.3,14.3-10.1
			c5.9-2.8,13.2-4.1,21.8-4.1c9.8,0,17.4,1.7,22.7,5.1c5.3,3.4,10.2,8.7,14.7,15.8c0.2,0.3,0.3,0.8,0.3,1.5c0,1.1-0.5,2.4-1.5,3.9
			c-1,1.5-2.2,2.8-3.7,4c-1.5,1.2-3.2,2.3-5.2,3.2c-2,0.9-3.8,1.3-5.6,1.3c-2,0-3.7-0.4-5.3-1.3c-1.6-0.9-2.9-2.7-3.8-5.5
			c-1.6-3.9-3.4-6.5-5.6-7.9c-2.2-1.4-4.3-2.1-6.5-2.1c-3.5,0-6.8,1-9.9,2.9c-3,2-5.1,4.4-6,7.3c-0.6,2.1-1.2,5.6-1.8,10.5
			c-0.6,4.9-1.1,10.6-1.5,17.1c-0.4,6.5-0.7,13.6-0.9,21.2c-0.2,7.6-0.3,15.3-0.3,22.9c0,11.1,0.1,20.7,0.4,29
			c0.3,8.3,1.2,15.2,2.7,20.8c1.5,5.6,3.7,9.8,6.8,12.7c3,2.8,7.3,4.3,12.8,4.3c1.6,0,3.1-0.5,4.7-1.6c1.6-1.1,3.2-3.2,5-6.5
			c1-2.3,2.3-3.9,4-4.8c1.7-0.9,3.4-1.3,5.2-1.3c3.5,0,6.8,1.2,9.9,3.7c3,2.4,4.6,4.6,4.6,6.6C710.1,599.8,710,600.3,709.8,600.7z"
			/>
		<path fill="#231F20" d="M751.1,617.7c-0.4,0.7-1.8,1.2-4.1,1.6c-2.4,0.4-5.1,0.6-8.3,0.6c-2,0-4-0.1-6-0.4
			c-2.1-0.2-3.9-0.6-5.6-1.1c-1.7-0.5-2.9-1.2-3.8-2.1c-0.9-0.9-1.2-2-1-3.3l0.9-5.4c0.2-1.3,0.8-5.1,1.8-11.3
			c1-6.3,2.2-14,3.7-23.3c1.5-9.3,3.2-19.5,5.2-30.8c2-11.3,3.9-22.6,5.9-34c2-11.4,3.9-22.3,5.9-32.8c2-10.5,3.7-19.6,5.3-27.4
			c0.2-1.5,1.1-2.8,2.8-3.9c1.7-1.1,3.5-2.1,5.6-2.8c2.1-0.7,4.2-1.3,6.5-1.7c2.3-0.4,4.2-0.6,5.7-0.6c1.8,0,4.1,0.2,6.9,0.5
			c2.8,0.3,5.6,0.9,8.4,1.6c2.7,0.7,5.2,1.7,7.4,2.9c2.2,1.2,3.5,2.6,4.1,4.3c0.2,1.5,0.8,4.8,1.8,10.1c1,5.3,2.2,11.8,3.5,19.5
			c1.4,7.7,2.8,16.3,4.4,25.6c1.6,9.3,3.2,18.8,4.9,28.5c1.7,9.7,3.3,19.1,4.9,28.3c1.6,9.2,2.9,17.4,4.1,24.7
			c1.2,7.3,2.1,13.3,2.8,17.9c0.7,4.6,1,7.2,1,7.7v1.2c0,0.3,0,0.6,0.1,0.7c0.1,0.2,0.1,0.4,0.1,0.7c0.2,1.3-0.2,2.4-1.2,3.2
			c-1,0.8-2.3,1.5-3.8,2c-1.6,0.5-3.3,0.9-5.3,1.1c-2,0.2-3.9,0.4-5.9,0.4c-3.1,0-5.9-0.2-8.3-0.6c-2.4-0.4-3.7-0.9-4.1-1.6
			c-0.4-1.3-0.7-3-0.9-5.1c-0.2-2.1-0.3-4.5-0.3-7.1c-0.2-4.1-0.4-8.2-0.7-12.6c-0.3-4.3-1.2-8-2.8-11.1c-0.2-0.5-1-0.9-2.4-1.2
			c-1.4-0.3-3-0.6-5-0.9c-2-0.2-4.1-0.4-6.3-0.6c-2.3-0.2-4.4-0.2-6.3-0.2c-2.8,0-5.8,0.2-9,0.5c-3.2,0.3-5.1,0.9-5.5,1.7
			c-0.8,2-1.4,4.6-1.8,7.8c-0.4,3.3-0.8,6.5-1.2,9.7c-0.4,4.2-0.9,8.1-1.6,11.7C752.9,614,752,616.4,751.1,617.7z M760.8,554.8
			c-0.2,1.3,0.6,2.7,2.4,4.1c1.8,1.5,5.5,2.2,11.2,2.2c5.5,0,9.1-0.9,10.9-2.7c1.8-1.8,2.7-3.3,2.7-4.6c0-1.8-0.3-5.4-0.7-10.7
			c-0.5-5.4-1.1-11.2-1.8-17.7c-0.7-6.4-1.4-12.7-2.2-18.9c-0.8-6.2-1.5-11-2.1-14.4c-0.2-0.8-1.1-1.7-2.8-2.8c-1.7-1.1-3-1.7-4-1.8
			c-0.8,0.3-2,1-3.7,2c-1.7,1-2.6,1.9-2.8,2.7c-0.6,3.4-1.3,8.2-2.1,14.4c-0.8,6.2-1.6,12.5-2.4,18.9c-0.8,6.4-1.4,12.3-1.9,17.7
			c-0.5,5.4-0.7,8.9-0.7,10.7V554.8z"/>
		<path fill="#231F20" d="M839.2,571.9c-0.2-11.7-0.3-22.3-0.4-31.9c-0.1-9.6-0.1-19-0.1-28.3c0-9.3,0-18.8,0-28.8
			c0-9.9,0-21.1,0-33.6c-0.2-1.8,0.4-3.4,1.8-4.9c1.4-1.5,3.1-2.7,5.3-3.7c2.2-1,4.6-1.7,7.4-2.3c2.7-0.6,5.5-0.9,8.3-0.9
			c2,0,4.2,0.2,6.8,0.5c2.5,0.3,5,0.9,7.2,1.6s4.2,1.6,5.9,2.7c1.7,1.1,2.7,2.4,3.1,4c0,0.5,0.5,2.6,1.5,6.5c1,3.8,2.3,8.7,4,14.7
			c1.7,6,3.5,12.8,5.5,20.5c2,7.6,4,15.5,6.2,23.5c2.2,8,4.3,16,6.5,23.8c2.2,7.8,4.1,14.9,5.9,21.2c1.8,6.3,3.3,11.7,4.6,16
			c1.3,4.3,2.1,7,2.5,8.2v-0.2c-0.4-8.6-0.7-18.2-0.9-28.9c-0.2-10.6-0.4-21.5-0.6-32.7c-0.2-11.1-0.4-22-0.6-32.5
			c-0.2-10.6-0.4-20.1-0.6-28.5c0-3.7,0-6.8,0-9.3c0-2.4,0.2-4.2,0.6-5.4c0.4-1.8,1.8-3.1,4.3-4c2.5-0.9,5.6-1.3,9.3-1.3
			c3.3,0,6.8,0.4,10.5,1.1s5.5,1.9,5.5,3.5c0,7.5,0,16.2,0,26.2c0,10-0.1,20.5-0.1,31.6c-0.1,11.1-0.3,22.3-0.4,33.8
			c-0.2,11.5-0.4,22.3-0.6,32.5c-0.2,10.2-0.4,19.5-0.7,27.9c-0.3,8.4-0.5,15.1-0.7,20.1c-0.6,1-1.8,1.9-3.5,2.7
			c-1.8,0.8-3.8,1.5-6.2,2.1c-2.4,0.6-4.9,1-7.5,1.2c-2.7,0.2-5.2,0.4-7.5,0.4c-4.9,0-9.3-0.5-13.1-1.5c-3.8-1-6-2.4-6.6-4.1
			c-3.3-11-6.3-21.4-8.8-31.2c-2.6-9.7-5.1-19.5-7.5-29.1c-2.5-9.7-5-19.6-7.7-29.9c-2.7-10.2-5.8-21.4-9.3-33.6
			c-1.2,0.5-1.7,1.5-1.5,3.2v2.7c0,10.6,0.1,20.4,0.3,29.6c0.2,9.2,0.4,17.9,0.7,26.2c0.3,8.3,0.5,16.3,0.7,24.1
			c0.2,7.8,0.3,15.6,0.3,23.4c0,3.7,0,6.8,0,9.3c0,2.4-0.2,4.2-0.6,5.4c-0.4,1.8-2.1,3.1-5,4c-2.9,0.9-6.3,1.3-10,1.3
			c-3.3,0-6.3-0.4-9-1.1c-2.7-0.7-4-1.9-4-3.5c0-6-0.1-12.7-0.1-20C839.6,588.7,839.4,580.7,839.2,571.9z"/>
	</g>
	<g>
		<path fill="#231F20" d="M303.1,162.6c0.9,2.3-4.4,5.2-11.7,4.8c-21.9-1.2-44-1.1-66.2,0.9c0.5-0.2-6.4,57.3-7.1,63.2
			c-3,23.1-4.8,46.6-4.8,70.1c-0.4,28.8,4.4,57.3,4.6,86c0.2,8.9-24.6,9.3-27.1,1.8c-10.3-32.4-8.8-68.9-7.8-102.5
			c1.1-35.8,4.8-71.6,12.7-106.4c0.5-3,1.1-6.1,1.6-9.1c-0.5,0.2-1.2,0.2-1.9,0.4c-10.6,1.6-21.6,3.4-32.2,5.9
			c-6.4,1.6-12.9,3.4-19.5,5.2c-4.4,1.4-8.7,2.7-13.3,3.2c-0.9,0.2-1.8,0.5-2.7,0.7c-1.4,0.2-15-0.2-11-2.5
			c24.6-14.6,55.7-20.6,83.8-24.7c0.5-1.8,1.2-3.6,1.8-5.3c0.4,0.2,0.7,0.2,1.1,0.4c3.7-4.1,19.6-7.7,20.9,0.9c0,0.4,0,0.7,0,1.1
			c23.9-2.3,48.3-2.5,71.6,0.7C302.8,158,304.4,160.5,303.1,162.6z"/>
		<path fill="#231F20" d="M311.3,291.5c1.1-2,11.5-31.9,3.4-32.7c-3.9-0.4-12.7,23.7-14.3,27.6c-6.2,15.1-12.4,29.7-13.3,46.3
			c-0.4,9.3,1.6,18.5,0.7,27.8c-0.7,8.4-15.6,7.8-20.9,5.7c-10.6-4.1-11.5-16.7-11.3-26.7c0.2-24.9-1.8-56.2,11.1-78.3
			c2.3-3.7,17.9-4.1,18.7,1.1c1.6,8.5,1.9,17.1,1.9,25.6c0.2-0.4,0.4-0.9,0.5-1.4c3.9-10,9-27.9,19.8-32.2c24.8-9.6,26,24,19.8,39
			C326,297,309.5,295.2,311.3,291.5z"/>
		<path fill="#231F20" d="M384.9,329.6c6.5-23.8,1.4-50.4,17.2-71.4c1.4-2,14.5-1.2,15.7,0.7c11.3,19.4,3,39.7,3.5,61.2
			c0.4,16.9-2.8,49.1,12.2,60.7c0.7,0.5-1.1,1.1-1.2,1.1c-21.2,5.2-31.5-8.9-36.4-27.9c-1.1-3.7-1.9-7.7-2.8-11.6
			c-5.5,21.9-32.4,32-47.6,12.1c-8.3-10.9-8.1-26.3-8.1-39.5c-0.2-15.8,1.6-31.7,5.3-47.2c0.7-2.5,1.4-5.2,3.2-7.3
			c1.6-2,4.6-3.2,7.1-2c3.4,1.6,3.4,6.4,3,10.1c-2.3,20.8-4.4,42-2.8,62.8c0.7,7.5,1.8,15,5.3,21.5c1.9,3.7,5.7,7.5,9.9,6.6
			c1.8-0.4,3.2-1.6,4.6-2.8C380.7,349.2,382.2,339.6,384.9,329.6z"/>
		<path fill="#231F20" d="M473,283.3c2.1-5,7.1-8.7,6.4-14.6c-0.2-1.1-0.5-2.1-1.4-2.7c-0.7-0.4-1.4-0.2-2.3-0.2
			c-17.5,2.8-18.9,26.9-16.4,40.8c2.3,13.5,9.6,24.6,17.9,34.9c0.3-0.2,0.9-0.4,1.4-0.5c9.9-4.3,19.8-7.1,30.4-8.4
			c0.9-0.2,7.8,0.5,5.8,1.2c-10.8,3.6-22.8,7.1-34.1,12.1c0.3,0.4,0.7,0.7,1.1,1.2c11,13,24.9,34.9,4.2,47.2
			c-10.3,6.1-26.5,3.4-35.9-3.6c-18.2-13.5-5.7-31.5,9.6-40.8c-3-3.9-5.8-8-8.3-12.5c-1.6-2.3-3-4.1-3.4-4.4
			c-4.2-6.4-7.6-13.2-9.4-20.6c-3.5-16.4,4.9-36.7,17.2-47.5c9.9-8.9,38-11.7,37.9,7.5c0,7.3-4.4,12.8-11.3,14.2
			c-1.6,0.2-8.5,0.9-9.2-1.6c-0.2-0.4-0.2-0.7-0.4-1.2L473,283.3z M455.3,379.8c2.1,8.4,15,21.4,21.4,4.6c1.6-3.9-0.7-11-2.7-15.3
			c-3.5-3.6-6.5-8-9.6-12.3C458.3,362.9,452.7,369.1,455.3,379.8z"/>
		<path fill="#231F20" d="M570,395.3c-6.4,6.9-20,4.4-27.8,1.6c-18.6-6.8-24.2-23.7-27.1-41.8c-4.4-28.7-3-59.1-1.8-87.9
			c0.2-1.6,0.2-3.4,0.2-5.2c-3.9,1.2-8,2.5-12,3.9c-1.9,0.7-16.8-0.4-12.2-3c7.4-4.4,15.9-7.1,24.6-8.7c0.7-21.7,2.1-48.8,15.6-63.2
			c2.3-2.5,13.4-3,14.9,0.7c5.3,14.1-1.1,32.8-2.1,47.5c-0.3,4.5-0.7,8.7-0.9,13.2c8.7,0.2,18.2,1.8,21.4,6.9
			c0.7,1.2-2.8,1.2-3.4,1.4c-6.4,0.4-12.2-0.5-18.4-1.2c-0.5,11.9-0.7,23.8-1.1,35.6c-0.2,16.4-7.6,106.8,24.9,99.7
			C565.4,394.5,570.3,394.7,570,395.3z"/>
		<path fill="#231F20" d="M646.1,357c-7.3-58-4.4-117.1,8-174.3c2.3-10.9,5.3-21.9,12-30.8c2.1-2.8,5-5.5,8.5-5.5
			c3.7,0,6.7,3.2,8,6.8c1.1,3.4,0.7,7.3,0.4,11c-2.1,21.2-4.2,42.5-6.4,63.7c1.2-12.8,24.4-62.8,43.2-74.9
			c15.7-10.3,31.3,2.7,35.2,18.7c3,12.8,0.4,26.3,1.4,39.7c3-8,5.8-16,9-24c10.1-24.2,29.7-63.2,66.5-44
			c17.7,9.3,18.9,15.7,19.6,32.8c1.1,29-4.8,58.7-8.1,87.4c-12.4,102.7-3.2,122.3-3.4,136c-0.2,6.1,2.1,16,0.5,21.7
			c-0.2,1.2-2.8,1.2-3.7,1.2c-41.9,1.8-33.4-71.9-31.5-99c3.7-48.1,9.7-92.6,18.6-139.9c1.9-9.8,8.5-31.3-7.8-32.7
			c-6.7-0.7-12.2,5.3-15.9,10.3c-20.7,28.1-30.1,62.7-39.1,96.5c-7.3,26.7-14.5,53.8-14,81.5c0,5.9,0.4,12.1-2.7,17.1
			c-2.8,5.2-10.6,7.8-14.7,3.6c-2.5-2.5-2.7-6.6-2.5-10.3c0.5-43.1,7.6-84.9,10.6-127.8c0.9-13.2,8-45.7-3.2-55.5
			c-13.3-11.9-27.6,31.1-31.1,38.1c-8,15.7-14.1,32-18.9,48.9c-9,33.3-12,68.2-7.8,102.3c1.2,10.1,1.4,23.3-8,27.1
			c-6.2,2.5-13.4-1.1-17.2-6.6C648,370.5,646.9,363.6,646.1,357z"/>
		<path fill="#231F20" d="M864.6,322.3c1.2-21.5,8.7-49.7,31-58c12.4-4.6,32.4-4.8,37.5,9.8c5.8,10.3-6.4,25.6-13.6,32.6
			c-7.3,6.8-16.1,12.5-25.6,15.1c-0.2,8.5-0.5,21.7,3.7,28.5c8.3,13.2,29.2-13.4,36.3-22.1c1.1-1.4,9.4-0.5,9,0.2
			c-7.4,17.6-33.4,37.9-51.3,36.5C867.7,363,863.3,343.5,864.6,322.3z M894.1,315.2c5.3-2.8,10.3-6.4,14.7-10.7
			c5.1-5,10.1-10.9,12.2-18c1.6-5.9,0.2-11-0.3-16.9C903.3,263.5,895.5,298.6,894.1,315.2z"/>
	</g>
</g>
</svg>


