<?xml version="1.0" encoding="utf-8"?>
<!-- Generator: Adobe Illustrator 18.0.0, SVG Export Plug-In . SVG Version: 6.00 Build 0)  -->
<svg version="1.2" baseProfile="tiny" xmlns="http://www.w3.org/2000/svg" xmlns:xlink="http://www.w3.org/1999/xlink"
	 x="0px" y="0px" viewBox="0 0 1080 1296" xml:space="preserve" width="500" height="500">
<g>
	<g>
		<path fill="#231F20" d="M888.4,841.6c-11.3,0-22.7,0-34,0c-2.2,0-5.5,0.8-6.4-1.1c-0.8-1.7,0.4-3.2,3.3-4.1
			c3.9-1.2,7.9-2.3,12.1-3.2c11.4-2.4,16.6-6.5,16.4-13.2c-0.4-14.7-0.4-29.5-3-44.2c-0.7-4-3.1-7.7-9.1-10.2
			c-25.7-10.5-29.2-24.3-22.5-39.8c6.1-14.2,9.2-28.5,10-43c0.1-2.2,1.2-3,5.6-3c18.6,0.1,37.3,0.1,56,0c3.5,0,5.6,0.2,5.6,2.5
			c0.3,17.5,7.3,34.5,12.3,51.7c3.4,11.6-2.8,21.6-20.3,29.2c-8.9,3.9-13.2,8.7-14,14.8c-1.8,14.2-2.4,28.4-2.5,42.6
			c0,6,4.8,9.8,15,12.1c4.6,1,9.1,2.3,13.5,3.6c3,0.9,4,2.5,3.3,4.1c-0.9,1.9-4.2,1.1-6.4,1.1C911.6,841.7,900,841.6,888.4,841.6z
			 M888.1,712.2c8.8,0,17.6-0.1,26.4,0c3.7,0,4.9-0.6,4.3-2.6c-2.4-7.6-3.1-15.3-4-23c-0.2-2.2-1.9-2.6-5.5-2.6
			c-13.6,0.1-27.2,0.1-40.8,0c-4.3,0-5.5,0.8-5.7,3c-0.6,7.5-1.6,15.1-3.8,22.6c-0.6,2,0.5,2.6,4.2,2.6
			C871.4,712.1,879.8,712.2,888.1,712.2z M877.2,764.5c6.7,5.1,7.7,10.2,8.4,15.4c1.8,13,1.4,26,2.1,39c0.4,8-4.1,14-18.2,17.6
			c-0.2,0.1-0.2,0.4-0.3,0.6c13.1,0,26.2,0,40.1,0c-18.9-7.4-19.1-7.6-19.1-19.7c0-7.4-0.5-14.9,0.5-22.3c1.5-10.3-1.6-21,9.8-30.8
			C892.8,765.1,885.8,764.8,877.2,764.5z"/>
	</g>
	<g>
		<path fill="#231F20" d="M170.7,841.6c-11.3,0-22.7,0-34,0c-2.2,0-5.5,0.8-6.4-1.1c-0.8-1.7,0.4-3.2,3.3-4.1
			c3.9-1.2,7.9-2.3,12.1-3.2c11.4-2.4,16.6-6.5,16.4-13.2c-0.4-14.7-0.4-29.5-3-44.2c-0.7-4-3.1-7.7-9.1-10.2
			c-25.7-10.5-29.2-24.3-22.5-39.8c6.1-14.2,9.2-28.5,10-43c0.1-2.2,1.2-3,5.6-3c18.6,0.1,37.3,0.1,56,0c3.5,0,5.6,0.2,5.6,2.5
			c0.3,17.5,7.3,34.5,12.3,51.7c3.4,11.6-2.8,21.6-20.3,29.2c-8.9,3.9-13.2,8.7-14,14.8c-1.8,14.2-2.4,28.4-2.5,42.6
			c0,6,4.8,9.8,15,12.1c4.6,1,9.1,2.3,13.5,3.6c3,0.9,4,2.5,3.3,4.1c-0.9,1.9-4.2,1.1-6.4,1.1C193.9,841.7,182.3,841.6,170.7,841.6z
			 M170.3,712.2c8.8,0,17.6-0.1,26.4,0c3.7,0,4.9-0.6,4.3-2.6c-2.4-7.6-3.1-15.3-4-23c-0.2-2.2-1.9-2.6-5.5-2.6
			c-13.6,0.1-27.2,0.1-40.8,0c-4.3,0-5.5,0.8-5.7,3c-0.6,7.5-1.6,15.1-3.8,22.6c-0.6,2,0.5,2.6,4.2,2.6
			C153.7,712.1,162,712.2,170.3,712.2z M159.4,764.5c6.7,5.1,7.7,10.2,8.4,15.4c1.8,13,1.4,26,2.1,39c0.4,8-4.1,14-18.2,17.6
			c-0.2,0.1-0.2,0.4-0.3,0.6c13.1,0,26.2,0,40.1,0c-18.9-7.4-19.1-7.6-19.1-19.7c0-7.4-0.5-14.9,0.5-22.3c1.5-10.3-1.6-21,9.8-30.8
			C175.1,765.1,168,764.8,159.4,764.5z"/>
	</g>
	<g>
		<path fill="#231F20" d="M179.3,930.1c0.1-2.8,0.1-5.5,0.2-8.3c0.2-6.8,0.3-12.9,0.3-18.1l0.2-6.9c0.1-5.2,0.1-9.1,0.2-11.7
			c0.1-2.6,0.2-4.6,0.5-5.8c0.2-1.2,0.6-2.2,1.1-3c0.8-1.4,1.9-2.5,3.3-3.2c1.4-0.7,2.7-1.1,4.1-1.1c1.5,0,2.9,0.4,4.2,1.1
			c1.3,0.7,2.3,1.7,2.9,2.9c0.5,0.7,0.8,1.8,1,3.4c0.2,1.5,0.3,4.1,0.4,7.7c0,3.6,0,8.8-0.1,15.7c-0.5,20.3-0.8,40.1-1.1,59.5
			c-0.3,19.4-0.4,35.7-0.3,48.9c-0.4,2.9-1.9,4.8-4.3,5.7c-1,0.5-2.3,0.7-3.9,0.7c-1.5,0-3-0.4-4.3-1.3c-0.9-0.5-1.6-1.4-2.3-3
			c-0.7-1.5-1.3-4.2-1.7-8c-0.4-3.8-0.7-9.4-0.8-16.7c-0.1-8.7,0-19.2,0.2-31.4c0.1-4.8,0.1-9.6,0.3-14.4c-2.8,0.3-6.1,0.5-9.6,0.6
			c-4.6,0.1-8.8,0.1-12.3,0c-3-0.2-5.3-0.4-6.8-0.6c-0.2,6.6-0.3,13.2-0.3,19.7c-0.3,19.4-0.5,35.7-0.3,48.9
			c-0.5,2.9-2.1,4.8-4.9,5.8c-1.1,0.5-2.5,0.7-4.2,0.7c-1.7,0-3.3-0.4-4.7-1.3c-1-0.5-1.9-1.4-2.6-3c-0.8-1.5-1.4-4.2-1.9-8
			c-0.5-3.8-0.8-9.4-0.9-16.7c-0.1-8.7-0.1-19.2,0.1-31.4c0.2-12.2,0.4-24,0.7-35.4c0.2-6.9,0.3-12.9,0.3-18.1
			c0.1-2.6,0.1-4.8,0.2-6.9c0.1-5.2,0.1-9.1,0.3-11.7c0.1-2.6,0.3-4.6,0.5-5.8c0.2-1.2,0.6-2.2,1.2-3c0.9-1.5,2.1-2.5,3.6-3.2
			c1.5-0.7,3-1,4.6-1c1.6,0,3.2,0.3,4.6,1c1.4,0.7,2.5,1.7,3.2,2.9c0.5,0.7,0.9,1.8,1.1,3.4c0.2,1.5,0.4,4.1,0.4,7.7
			c0,3.6,0,8.8-0.2,15.7c-0.2,9.6-0.5,19.1-0.7,28.5c1.2-0.2,2.6-0.3,4.4-0.4c3.7-0.3,8.1-0.6,13.3-0.8
			C172.5,930.1,176.2,930.1,179.3,930.1z"/>
		<path fill="#231F20" d="M233.9,943c-0.4,8.7-0.7,17.7-1,27.2c-0.3,11.4-0.7,21-1.1,28.6c-0.3,5.1-0.8,8.9-1.3,11.4
			c-0.5,2.5-1.1,4.1-1.7,5c-0.6,0.8-1.3,1.3-2.1,1.4c-2.3,0.8-4.4,0.5-6.3-0.7c-0.5-0.3-0.9-0.8-1.2-1.5c-0.3-0.7-0.6-2-0.8-3.7
			c-0.2-1.7-0.3-4.3-0.4-7.6c-0.1-3.3,0-7.7,0.1-13.2c0.2-11.8,0.8-26.1,1.9-43s3-31.7,5.6-44.5c2.7-11.7,6.2-19.8,10.3-24.3
			s8.6-6.8,13.3-7c4.8-0.7,9.4,0.8,13.9,4.6c4.5,3.8,8.2,11.5,11.1,23.3c2.8,12.8,4.6,28,5.6,45.5c0.9,17.5,1.2,32.4,1,44.7
			c-0.2,7.6-0.6,13.2-1.2,16.9c-0.6,3.7-1.3,6.3-2.1,7.6c-0.8,1.3-1.7,2.1-2.7,2.4c-2.9,1.2-5.7,1.1-8.4-0.3c-0.9-0.3-1.7-1-2.3-2.2
			c-0.7-1.2-1.3-3.4-1.8-6.7c-0.5-3.3-0.9-8.1-1.1-14.6c-0.3-10-0.5-22.1-0.5-36.4c0-4.5,0-8.9-0.1-13.1c-2.8,0.2-6,0.4-9.6,0.5
			c-4.5,0.1-8.4,0.1-11.8,0C237,943.3,235.3,943.2,233.9,943z M260.4,930.6c-0.1-6.2-0.3-12.1-0.4-17.5c-0.5-10.7-1.3-18.3-2.5-22.7
			s-2.6-7-4.3-7.8c-1.7-1-3.6-0.8-5.6,0.6c-2,1.4-3.9,4-5.7,7.8c-3.5,7-5.9,20.6-7.4,40.7c0.8-0.1,1.6-0.1,2.5-0.3
			c3.6-0.3,7.9-0.5,12.8-0.7C253.8,930.6,257.3,930.6,260.4,930.6z"/>
		<path fill="#231F20" d="M341.5,1017.3h-5.6c-3.3,0-7.3-0.5-12-1.4c-3-0.6-5.4-1.7-7.3-3.3c-1.8-1.6-3.2-4.4-4.2-8.4
			c-1-4-1.7-9.7-2.1-17.2c-0.3-7.8-0.5-16.6-0.5-26.3c0-20.6,0.4-40.5,1.3-59.6c0.5-10.2,1-16.8,1.5-20c0.3-2.4,1-4.1,1.8-5
			c1.5-1.5,3.3-2.5,5.3-3c0.8-0.2,1.5-0.3,2.2-0.3c1.2,0,2.3,0.2,3.5,0.7c1.9,0.8,3.4,2.1,4.6,4.2c0.2,0.4,0.4,1,0.6,1.8
			c0.1,0.8,0.2,2.1,0.3,3.8c0.1,1.7,0.1,4.2,0.1,7.4c0,10-0.1,19.4-0.3,28.1c-0.3,27.9-0.4,45.1-0.4,51.6c0,14.9,0.3,24.3,0.8,28.1
			c0.3,3,1,4.8,2,5.5c0.8,0.5,1.9,0.8,3.1,0.8c1.6,0,5.5-0.2,11.7-0.6c6.8-0.3,11-0.5,12.6-0.5c1.4,0,2.7,0.1,3.9,0.2
			s2.1,0.6,2.8,1.3c0.9,0.9,1.3,1.9,1.3,3c0,0.9-0.2,1.8-0.7,2.9c-0.4,1.1-1.5,2.1-3.2,3c-1.7,1-4.6,1.7-8.7,2.3
			C351.7,1017,346.9,1017.3,341.5,1017.3z"/>
		<path fill="#231F20" d="M401.7,943.5c0,9.6,0,18.9,0.1,27.9v15.3c0.1,5.2,0.1,9.5,0,12.7c0,3.2-0.1,5.7-0.2,7.4
			c-0.1,1.7-0.2,3-0.4,3.8c-0.1,0.8-0.3,1.4-0.6,1.9c-1,2-2.5,3.3-4.3,4.1c-1.7,0.8-3.4,0.9-5.2,0.4c-1.9-0.5-3.6-1.5-5-3
			c-0.3-0.4-0.6-0.9-0.9-1.5c-0.3-0.7-0.6-1.8-0.8-3.4c-0.2-1.6-0.4-4-0.7-7.2s-0.4-7.5-0.6-12.8c-0.4-11.6-0.7-25.8-0.8-42.5
			c-0.1-16.7,0.1-31.2,0.7-43.4c0.5-11.1,1.7-18.5,3.7-22.3c1.9-3.8,5-6,9.1-6.6c4.4-0.9,9.4-1.4,15.1-1.4c5.7,0,10.6,0.3,14.8,0.9
			c3.8,0.6,6.5,1.4,8.1,2.3c1.6,1,2.5,2,3,3.2c0.9,2.4,0.7,4.3-0.6,5.8c-0.6,0.7-1.6,1.1-3,1.3c-1.4,0.2-3.4,0.2-6.1,0.1
			c-2.6-0.1-5.6-0.3-8.9-0.4c-3.9-0.3-7.3-0.5-10.2-0.6c-1.6-0.1-2.9,0.2-3.7,0.8c-0.9,0.7-1.5,2.5-1.9,5.4
			c-0.4,2.9-0.6,7.7-0.7,14.2c-0.2,6.9-0.3,15.2-0.3,24.7c2-0.1,4.2-0.2,6.4-0.4c5.1-0.2,9.5-0.2,13.1-0.2c2.3,0.1,4,0.3,5.1,0.5
			c1.1,0.2,1.9,0.4,2.4,0.7s0.8,0.5,1,0.8c0.8,0.9,1.2,1.8,1.3,2.9c0.1,1.2-0.3,2.4-1.1,3.8c-0.4,0.8-1.1,1.5-2.3,2.1
			c-1.2,0.7-3.3,1.2-6.3,1.6c-3.4,0.5-7.4,0.8-12,0.9C406.5,943.4,404,943.5,401.7,943.5z"/>
		<path fill="#231F20" d="M525.8,930.6c2.1-0.1,4.5-0.2,7-0.4c5.1-0.2,9.5-0.2,13.1-0.2c2.3,0.1,3.9,0.3,5.1,0.5
			c1.1,0.2,1.9,0.4,2.4,0.7c0.5,0.3,0.8,0.5,1,0.8c0.8,0.9,1.2,1.8,1.3,2.9c0.1,1.2-0.3,2.4-1.1,3.8c-0.3,0.8-1.1,1.5-2.3,2.1
			c-1.2,0.7-3.3,1.2-6.3,1.6c-3.4,0.5-7.4,0.8-12,0.9c-3.1,0.1-6,0.1-8.6,0.1l-0.3,12.2c-0.3,11.3-0.6,20.9-0.7,28.7
			c-0.1,6.6,0.1,11.3,0.4,14.2s0.9,4.7,1.8,5.4c0.9,0.7,2.1,0.9,3.8,0.8c3-0.1,6.5-0.3,10.6-0.6c3.4-0.2,6.4-0.3,9.1-0.4
			c2.8-0.1,4.9-0.1,6.3,0.1c1.4,0.2,2.5,0.6,3.1,1.3c1.4,1.5,1.6,3.5,0.6,5.8c-0.4,1.2-1.4,2.2-3,3.2c-1.6,1-4.4,1.7-8.4,2.3
			c-4.3,0.6-9.4,0.9-15.3,0.9c-5.9,0-11.1-0.5-15.6-1.4c-2.8-0.6-5.2-1.7-7-3.3c-1.8-1.6-3.1-4.4-4-8.4c-0.9-4-1.4-9.7-1.7-17.2
			c-0.3-12.2-0.1-26.7,0.5-43.4s1.3-30.9,2-42.5c0.3-5.3,0.7-9.6,1-12.8c0.3-3.2,0.6-5.6,0.8-7.2c0.3-1.6,0.7-3.3,1.4-5
			c0.7-1.7,1.9-3,3.7-3.9c1.8-0.9,7.5-1.6,16.9-2c9.4-0.5,16-0.7,19.6-0.7c2.3,0.1,4,0.3,5.1,0.5c1.1,0.2,1.9,0.4,2.4,0.7
			c0.5,0.3,0.8,0.5,1,0.8c0.8,0.9,1.2,1.8,1.3,2.9c0.1,1.2-0.3,2.4-1.1,3.8c-0.3,0.8-1.1,1.5-2.3,2.1c-1.2,0.7-3.3,1.2-6.3,1.6
			c-3.4,0.5-7.4,0.8-12,0.9c-4.6,0.1-8.6,0.1-12.2,0c0,0.2,0,0.4,0.1,0.5c0,1.7,0,4.2-0.1,7.5c-0.1,3.2-0.2,7.4-0.3,12.7l-0.6,19.1
			C526,925.2,526,927.9,525.8,930.6z"/>
		<path fill="#231F20" d="M648.2,871.6c3-0.2,5.1-0.1,6.5,0.5c1.4,0.6,2.7,3.1,4,7.3c1.2,4.2,2,11.7,2.1,22.6
			c0.1,8.7,0.1,19.1-0.1,31.3c-0.2,12.1-0.4,23.9-0.7,35.3c-0.2,6.8-0.3,12.8-0.4,18.1l-0.1,6.9c-0.1,5.1-0.1,9-0.2,11.6
			c-0.1,2.6-0.3,4.6-0.5,5.8c-0.2,1.2-0.6,2.2-1.2,3.1c-0.9,1.4-2,2.5-3.4,3.2s-2.9,1-4.4,1c-1.3,0-2.2-0.3-2.8-0.9
			c-0.6-0.6-1.2-1.4-1.7-2.4c-0.1-0.2-0.1-0.4-0.3-0.6c-0.5-0.7-0.8-1.8-1-3.4c-0.2-1.5-0.4-4.1-0.4-7.7c0-3.6,0-8.8,0.2-15.7
			c0.3-26.8,0.2-52.1-0.5-75.9c-0.2,1.2-0.5,2.4-0.7,3.6c-1.6,7.4-3,14-4.4,19.8c-1.5,6.2-2.8,10.5-3.7,12.8c-1,2.4-2,3.9-2.9,4.6
			c-1,0.7-2.2,1.1-3.8,1.1c-1.6,0.1-2.9-0.2-4-0.9c-1.1-0.6-2.4-2.2-4-4.6c-1.5-2.4-3.5-6.7-5.8-12.8c-2.4-7-5.1-14.7-7.9-23.3
			c-0.3-1.2-0.7-2.4-1.1-3.6c-0.5,18.4-0.8,36.3-1.1,53.9c-0.4,19.4-0.5,35.7-0.4,48.9c-0.5,2.9-2.1,4.8-5,5.8
			c-1.2,0.5-2.6,0.7-4.4,0.7c-1.8,0-3.4-0.4-5-1.3c-1-0.5-2-1.4-2.7-3c-0.8-1.5-1.4-4.2-2-8c-0.5-3.8-0.8-9.4-1-16.7
			c-0.1-8.7-0.1-19.2,0.1-31.4c0.2-12.2,0.4-24,0.7-35.4c0.2-6.9,0.4-12.9,0.4-18.1c0.1-2.6,0.1-4.8,0.2-6.9
			c0.1-5.2,0.1-9.1,0.3-11.7c0.1-2.6,0.3-4.6,0.5-5.8c0.2-1.2,0.7-2.2,1.3-3c1-1.5,2.3-2.5,3.8-3.2c1.6-0.7,4.5-1,8.9-1
			c4.4,0.1,7.5,0.9,9.4,2.5c0.5,0.5,1,1.2,1.6,2.1c0.5,0.9,1.1,2.4,1.9,4.4c0.7,2,1.7,4.9,2.9,8.6c2,6,4.3,13.3,6.9,21.7
			c2.5,8.4,4.7,15.7,6.3,22c1.7-8.4,3.6-17.9,5.7-28.5c1.2-6.2,2.2-11.5,3-15.9c0.8-3.7,1.4-6.4,1.8-8.4c0.4-1.9,0.7-3.3,1-4.1
			s0.7-1.4,1-1.8C642.8,873,645.2,871.8,648.2,871.6z"/>
		<path fill="#231F20" d="M708.1,957.7v4.8c-0.3,19.4-0.5,35.7-0.3,48.9c-0.5,2.9-2.1,4.8-4.9,5.8c-1.1,0.5-2.5,0.7-4.2,0.7
			c-1.7,0-3.3-0.4-4.7-1.3c-1-0.5-1.9-1.4-2.6-3c-0.8-1.5-1.4-4.2-1.9-8c-0.5-3.8-0.8-9.4-0.9-16.7c-0.1-8.7-0.1-19.2,0.1-31.4
			c0.2-12.2,0.4-24,0.7-35.4c0.2-6.9,0.3-12.9,0.3-18.1c0.1-2.6,0.1-4.8,0.2-6.9c0.1-5.2,0.1-9.1,0.3-11.7c0.1-2.6,0.3-4.6,0.5-5.8
			c0.2-1.2,0.6-2.2,1.2-3c0.9-1.5,2.1-2.5,3.6-3.2c1.5-0.7,3-1,4.6-1c1.6,0,3.2,0.3,4.6,1c1.4,0.7,2.5,1.7,3.2,2.9
			c0.5,0.7,0.9,1.8,1.1,3.4c0.2,1.5,0.4,4.1,0.4,7.7c0,3.6-0.1,8.8-0.3,15.5c0.6-3.4,1.4-6.9,2.3-10.3c1-3.7,2.4-7.3,4.3-10.6
			c3.6-6.1,8.9-9.5,15.9-10.2c4.5-0.2,8.5,1.1,12.1,3.9c2.4,2.1,4.3,4.6,5.7,7.4c1.4,2.9,2.4,5.9,3,8.9c2.2,11.4,2.5,22.9,0.9,34.5
			c-0.6,4.8-1.7,9.4-3.1,14c-1.4,4.6-3.6,8.8-6.3,12.8c-2.2,3-4.9,5.5-8.1,7.5c-3.2,2-6.7,3-10.4,3.2c-3.2,0.1-6.3-0.5-9.2-1.7
			C713.3,961,710.6,959.5,708.1,957.7z M731.2,883.3c-1-0.1-1.9,0.2-2.7,0.9c-2.9,2.4-5,5.5-6.3,9.1c-3.1,8.1-5.1,16.4-6.2,25
			c-0.9,5.5-1.6,11.1-2.3,16.6c-0.6,5.3-1.4,10.7-2.2,16c2.3,1,4.7,1.9,7.2,2.5c1,0.2,2.1,0.4,3,0.5c2.8,0.2,5.1-0.9,6.9-3.1
			c1.4-2.1,2.6-4.4,3.4-6.9c0.8-2.4,1.5-4.9,2-7.4c2.2-10,3.4-20.2,3.6-30.5c0.3-6-0.4-11.9-2.1-17.7c-0.4-1.1-0.9-2.2-1.6-3.2
			C733.4,884.2,732.4,883.6,731.2,883.3z"/>
		<path fill="#231F20" d="M805.7,884.2c0,0.8,0,1.7,0.1,2.7c0,3.6-0.1,8.8-0.3,15.7c-0.5,20.3-0.9,40.1-1.3,59.5
			c-0.3,19.4-0.4,35.7-0.3,48.9c-0.5,2.9-2.1,4.8-4.9,5.7c-1.1,0.5-2.5,0.7-4.2,0.7c-1.7,0-3.3-0.4-4.7-1.3c-1-0.5-1.9-1.4-2.6-3
			c-0.8-1.5-1.4-4.2-1.9-8c-0.5-3.8-0.8-9.4-0.9-16.7c-0.1-8.7-0.1-19.2,0.1-31.4c0.2-12.2,0.4-24,0.7-35.4
			c0.2-6.8,0.3-12.9,0.3-18.1c0.1-2.6,0.1-4.9,0.2-6.9c0.1-5.2,0.1-9.1,0.3-11.8v-0.4c-3.5,0.1-6.7,0.1-9.6,0
			c-2.7-0.1-4.8-0.2-6.4-0.3c-1.6-0.1-2.8-0.3-3.6-0.5c-0.8-0.2-1.4-0.4-1.7-0.6c-0.3-0.2-0.6-0.4-0.8-0.7c-0.8-0.9-1.2-1.8-1.3-2.9
			c-0.1-1.2,0.3-2.4,1.1-3.8c0.2-0.5,0.7-0.9,1.4-1.4c0.7-0.5,1.9-0.9,3.6-1.3c1.7-0.4,4.2-0.8,7.6-1.1c5.4-0.5,12-0.8,19.8-0.9
			c7.7-0.1,14.5-0.1,20.2,0c3.5,0.1,6.2,0.3,8.2,0.4c2,0.2,3.4,0.4,4.3,0.7c0.9,0.3,1.6,0.6,2,0.9c1.4,1,2.1,2.3,2.1,3.8
			c0.1,1.6-0.3,3-1.1,4.2c-0.3,0.4-0.8,0.7-1.5,1c-0.7,0.3-1.9,0.5-3.7,0.7c-1.8,0.2-4.5,0.4-8.1,0.6
			C815,883.9,810.6,884.1,805.7,884.2z"/>
		<path fill="#231F20" d="M888.6,932c-0.4,2.2-0.8,4.3-1.2,6.4c-1.3,6.3-2.6,10.8-3.9,13.5c-1.3,2.7-2.6,4.8-4.1,6.4
			c-1.4,1.9-3.2,3.6-5.3,5.1c-2.1,1.5-4.8,2.5-8,2.8c-3.5,0.3-7.1-0.5-10.9-2.5s-6.8-5.9-8.9-11.7c-1.9-6.3-2.7-13.8-2.6-22.5
			c0.1-8.7,0.6-16.7,1.3-24c1-13.1,2.3-21.5,3.7-25.2c1.6-4.4,4-6.9,7.2-7.6c3.4-1,6.4,0,8.9,3c1.2,1.5,1.8,3.5,1.9,5.8
			c0,2.4-0.3,6.4-1,12.2v0.3c-1.6,12.6-2.7,25.3-3.2,38.2c-0.4,12.5,1,19.8,4.2,21.9c1.7,1,3.7,0.1,5.9-2.6c2.3-2.7,4.4-7.7,6.5-15
			c2.5-11.4,4.6-24,6.3-37.6c0.8-5.9,1.4-10.8,2.1-14.7c0.5-3,1-5.3,1.5-7c0.2-1,0.5-1.8,0.8-2.4c0.1-0.2,0.1-0.5,0.3-0.7
			c0.9-1.6,2.1-2.8,3.6-3.7c1.6-0.8,3.2-1.3,5-1.4c3.2-0.3,5.9,0.8,8,3.3c1,1.6,1.6,3.4,1.7,5.3c0.2,1.9,0.2,3.8,0,5.7
			c-0.4,11.5-0.6,23-0.6,34.5c0,4.1,0,8.1-0.1,12.1c-0.1,8.4-0.3,16.7-0.8,25.1c-0.5,8.4-1.4,16.7-2.8,25c-0.8,4.6-1.8,9.2-3.3,13.8
			c-1.4,4.5-3.5,8.8-6.1,12.7c-4.6,6.7-10.9,11.1-18.7,13c-6.8,1.6-13.4,0.9-19.8-2.1c-4.9-2.6-8.3-6.6-10.2-12
			c-1.6-3.9-2.2-8-2-12.2c0.2-1.3,0.7-2.5,1.5-3.5c0.8-1,1.9-1.6,3.3-1.9c1.2-0.1,2.3,0.2,3.3,1c1,0.8,1.7,1.7,2,3
			c0.3,1.5,0.6,2.9,0.9,4.4c0.3,2.8,1.1,5.4,2.4,7.8c1.4,2,3.3,3.4,5.6,4c2.3,0.6,4.6,0.6,6.9-0.1c2.6-0.9,4.9-2.3,6.7-4.4
			c1.9-2,3.4-4.3,4.6-6.9c1.7-3.7,2.9-7.5,3.7-11.4c0.8-3.9,1.4-7.9,1.9-11.9C888,959.6,888.6,945.8,888.6,932z"/>
		<path fill="#231F20" d="M936.8,1018.5c-2.8,0-5.1-0.9-7.1-2.8c-1.9-1.9-2.9-4.2-2.9-6.8c0-2.6,1-4.9,2.9-6.7
			c1.9-1.9,4.3-2.8,7.1-2.8c2.8,0,5.1,0.9,7.1,2.8s2.9,4.1,2.9,6.7c0,2.7-1,5-2.9,6.8C941.9,1017.5,939.6,1018.5,936.8,1018.5z
			 M935.7,990c-0.4,0-1-0.1-2-0.3c-1-0.2-2.1-1.3-3.4-3.5c-2-3.7-3-10.2-3-19.6c0-6.3,0.6-12.2,1.7-17.7c1-5.1,3.2-10.1,6.4-15.2
			c3.3-4.7,7.2-9.4,11.6-14c5.4-5.5,9.9-11.1,13.5-16.8c3-5.5,4.4-11,4.4-16.4c0-4.6-0.9-8.5-2.8-11.6c-1.9-3.1-4.2-5.2-7.1-6.1
			c-1-0.3-2.1-0.4-3-0.4c-1.7,0-3.3,0.5-4.8,1.4c-2.1,1.6-3.8,4.1-5,7.3c-1.2,3.2-2,6.5-2.4,9.7c-0.5,3-0.8,5.7-1,8
			c-0.2,2.3-0.5,4.2-0.8,5.7c-0.7,2.2-1.6,3.2-2.7,3.2c-1,0-1.9-0.8-2.5-2.3c-0.9-2-1.3-5.6-1.3-11c0-2.4,0.2-5.5,0.5-9.3
			c0.3-3.8,1.3-7.9,2.9-12.3c3.6-8.7,9.6-13.6,18.1-14.7l2.3-0.1c3.6,0,7.4,1,11.4,3.1c4,2.1,7.4,6,10.2,11.8
			c2.7,6.2,4.1,13.5,4.1,22c-0.1,8.5-1.7,16.6-5,24.2c-2.8,5.9-6.1,10.9-10,15.1c-3.9,4.2-7.8,7.9-11.6,11.1
			c-6.7,5.9-10.7,10.2-12.1,12.9c-1,2.1-1.5,4-1.6,5.7l-0.1,10c0,5.8,0.1,9.4,0.2,10.7l0.1,2.4c0,1.2-0.1,2.2-0.2,3.2
			c-0.1,1-0.7,1.9-1.7,2.7C938,989.6,936.9,990,935.7,990z"/>
	</g>
	<g>
		<path fill="#231F20" d="M281.2,837.2c-2,0-4.1-0.1-6.1-0.4c-8-1-14.9-5.1-20.9-12.2c-4.5-5.7-7.9-13-10.3-22.1
			c-2.6-9.6-3.9-19.8-3.9-30.5c0-10.6,1.1-21.1,3.2-31.5c2.1-10.4,5.1-19.4,9.1-27.2c4.1-7.5,8.8-13,14-16.7
			c6.1-4.2,12.5-6.3,19.1-6.3c9.1,0,17.4,4.7,24.8,14.1c4.1,5.3,7.7,12.1,10.7,20.2c3.9,10.7,5.8,22.7,5.8,36
			c0,7.9-0.8,16.7-2.4,26.2c-1.6,9.6-4.2,18.4-7.9,26.4C308.7,829.2,297,837.2,281.2,837.2z M288.8,822.1c0.7,0,1.5-0.1,2.3-0.2
			c4.3-0.6,8.1-3.5,11.5-8.8c5.2-9.1,8.2-22.2,9.1-39.4c0.1-2.8,0.2-5.6,0.2-8.3c0-14.2-1.6-26.8-4.9-37.8c-2-5.8-4.3-10.3-6.9-13.2
			c-3.4-3.7-6.9-5.5-10.5-5.5c-4.7,0-9,3.4-13.1,10.1c-2.4,4-4.4,9.1-6.2,15.2c-2.9,9.7-4.4,20.9-4.4,33.5c0,13.3,1.3,24.9,4,34.7
			c1.7,6,3.9,10.4,6.5,13.3C279.8,820,284,822.1,288.8,822.1z"/>
		<path fill="#231F20" d="M370.4,804.2c-0.1,0.2-0.1,0.4-0.1,0.7c-0.1,0.8-0.2,1.6-0.3,2.4c-0.6,6.3-1.9,12.4-4,18.3
			c-0.6,1.6-1.6,3-2.8,4.2c-1.3,1.2-2.8,1.8-4.6,1.9c-1.6,0.2-3.1-0.2-4.5-1c-1.3-0.8-2.4-1.9-3-3.3c-1.2-2.9-1.9-5.9-2.1-9.1
			c-0.1-3.1-0.1-6.2,0.1-9.2c0-0.3,0-0.5,0.1-0.8c1-14.2,1.8-28.3,2.5-42.5c0.4-8.2,0.8-16.4,1.2-24.7c0.4-10.7,1-21.4,1.6-32
			c0.1-0.9,0.1-1.8,0.2-2.7c0.1-2.7,0.4-5.3,0.9-7.8c-0.4-1.5-0.4-3,0.1-4.4c0.8-1.7,2.4-3,4.8-3.8l0.5-0.2c0.6-0.2,1.2-0.4,1.8-0.5
			c1.8-0.5,3.8-0.9,5.9-1.2c6-1.1,12.6-1.5,19.9-1.2c3.6,0.1,7.3,0.7,11.1,2c3.7,1.3,7.2,3.7,10.6,7.2c3.3,3.7,6,8.7,8,14.9
			c2,6.2,2.9,13.3,2.5,21.3c-0.5,8-2.5,16-5.9,24c-3.4,8-8.1,14.5-14.1,19.6c-6.3,4.8-13,7.8-20,8.9c-1.7,0.3-3.3,0.5-4.9,0.6
			l1.3,1.2c3.2,3.1,6.4,6,9.8,8.7c3.5,2.7,6.9,4.9,10.1,6.5c3.3,1.7,6.4,3,9.4,4c1,0.4,1.9,0.7,2.8,1c2.4,0.8,4.4,1.7,6.1,2.5
			c1.7,0.8,2.9,1.8,3.5,2.8c0.7,1.4,0.5,2.9-0.6,4.6c-1.2,1.6-3.2,3-6.2,4c-3.1,1.1-6.9,1.5-11.4,1.1c-4.5-0.4-9.4-2.1-14.6-5.1
			c-5.3-3.3-10.4-7.5-15.3-12.6L370.4,804.2z M373.5,701.9c0.2,1,0.3,1.9,0.3,2.9c0.9,12.8,1.1,25.6,0.5,38.5
			c-0.2,9.4-0.6,18.9-1.2,28.3c3.8-1.2,7.7-2.7,11.8-4.6c4.5-2.2,8.3-5.5,11.4-9.8c3.8-6.4,5.8-13.9,6-22.7c0.2-8.8-1-16.2-3.4-22.3
			c-2.5-5.5-5.6-9-9.4-10.3c-3.8-1.4-7.6-1.7-11.4-0.9C376.5,701.1,374.9,701.5,373.5,701.9z"/>
		<path fill="#231F20" d="M518.5,834.9h-0.8c-1.3,0-2.5-0.4-3.7-1.1c-1.2-0.8-2.2-1.8-2.9-3.2c-1.2-3-1.9-6.2-2-9.4l-0.1-3.2
			c0-2.1,0.1-4.2,0.3-6.3v-0.8c1.6-24.9,2.9-48.1,3.7-69.5c0.4-11.1,1-22.1,1.6-33.2l0.2-2.8c0.1-4.2,0.8-8.2,2.1-12.1
			c0.6-1.6,1.5-2.9,2.9-3.8c1.4-1,3-1.5,4.8-1.5c2.6,0,4.7,1.2,6.1,3.5c1.8,3.8,2.9,7.9,3.1,12.1c0.6,8.2,0.8,16.3,0.8,24.5
			c0,5.1-0.1,10.2-0.3,15.3c-0.5,21.4-1.8,42.7-4,63.9l-0.3,2.4c-0.5,6.5-1.8,12.8-4,18.9c-0.6,1.7-1.5,3.1-2.7,4.4
			C521.9,834.1,520.4,834.7,518.5,834.9z"/>
		<path fill="#231F20" d="M582.6,837c-2.7,0-5.3-0.4-7.7-1.1c-5.9-2-10.6-5.5-14-10.4c-3.4-4.9-5.3-9.7-5.6-14.4v-0.6
			c0-4.2,1.1-7.2,3.3-9.1c1.3-1.1,2.6-1.7,4-1.7c1.1,0,2.2,0.3,3.4,1c1.2,0.9,2.4,2.2,3.6,4c1.1,1.8,2.3,3.7,3.4,5.9
			c1.9,3.9,4,7.2,6.4,9.8c2.1,1.9,4.3,2.9,6.5,2.9c0.7,0,1.9-0.2,3.7-0.6c1.8-0.4,3.7-2.5,5.8-6.2c2.1-3.7,3.2-8.4,3.2-14.2
			c-0.1-5.8-2-11.8-5.7-18c-3.9-5.5-8.8-10.9-14.7-16.4c-3.4-3.2-6.6-6.4-9.6-9.8c-8.2-8.9-12.4-18.5-12.4-28.7c0-0.8,0.1-3.1,0.4-7
			c0.3-3.9,1.8-8.6,4.7-14.2c2.8-5.3,6.1-9.6,10.1-12.7c5.9-4.7,12.5-7,19.7-7c5.8,0,11.1,1.6,15.9,4.7c5.9,4.2,9.6,9.6,11.3,16.2
			c0.8,3.9,1.3,7.5,1.3,10.8c0,2.5-0.3,4.9-0.8,7.1c-1,4.3-2.7,6.7-5,7.1c-0.4,0.1-0.9,0.2-1.3,0.2c-0.7,0-1.6-0.2-2.5-0.6
			c-1-0.4-1.8-1.5-2.5-3.3c-0.7-2-1.2-4.6-1.5-7.6c-0.3-2.8-0.8-5.5-1.5-8.3c-1.5-6.1-4.7-10.6-9.7-13.7c-2.4-1.3-4.9-1.9-7.7-1.9
			c-0.3,0-1.3,0.1-3,0.2c-1.7,0.1-3.8,1.7-6.3,4.6c-2.6,3.3-4,7.7-4.2,13.4v0.8c0,5.5,2,11.2,6,17.4c4.1,5.5,9.5,11,16,16.7
			c4.1,3.7,8,7.5,11.9,11.5c9.6,10.1,14.5,20.8,14.5,32.1c0,1.5-0.3,4.7-0.8,9.6c-0.5,4.9-3.2,10.4-8.1,16.6c-5,6-11,10.3-17.9,12.7
			C590.4,836.2,586.4,837,582.6,837z"/>
		<path fill="#231F20" d="M722,834.9h-0.8c-1.3,0-2.5-0.4-3.7-1.1c-1.2-0.8-2.2-1.8-2.9-3.2c-1.2-3-1.9-6.2-2-9.4l-0.1-3.2
			c0-2.1,0.1-4.2,0.3-6.3v-0.8c1.6-24.9,2.9-48.1,3.7-69.5c0.4-11.1,1-22.1,1.6-33.2l0.2-2.8c0.1-4.2,0.8-8.2,2.1-12.1
			c0.6-1.6,1.5-2.9,2.9-3.8c1.4-1,3-1.5,4.8-1.5c2.6,0,4.7,1.2,6.1,3.5c1.8,3.8,2.9,7.9,3.1,12.1c0.6,8.2,0.8,16.3,0.8,24.5
			c0,5.1-0.1,10.2-0.3,15.3c-0.5,21.4-1.8,42.7-4,63.9l-0.3,2.4c-0.5,6.5-1.8,12.8-4,18.9c-0.6,1.7-1.5,3.1-2.7,4.4
			C725.5,834.1,723.9,834.7,722,834.9z"/>
		<path fill="#231F20" d="M779.5,706.5c-4.1,0.2-8.2,0.3-12.4,0.4h-1.3c-2,0.2-3.9-0.2-5.9-1.1c-0.8-0.3-1.5-1-2.1-2
			c-0.6-1-1-2.2-1.2-3.5c-0.4-2.4-0.1-4.2,0.8-5.6c1.6-1.7,3.3-2.8,5.2-3.3c6-1.5,12.1-2.4,18.3-2.7c9.9-0.8,19.9-0.9,29.9-0.4
			l1.2,0.2c3,0.1,6.1,0.8,9.2,2.2c0.8,0.5,1.6,1.2,2.4,2.2c0.7,1,1.2,2.2,1.5,3.7c0.4,2.8,0.1,4.9-1.2,6.4c-1.2,1.2-2.6,1.9-4,2.2
			c-1.5,0.3-2.9,0.4-4.5,0.4c-0.1,0.1-0.3,0.1-0.4,0.1c-5.3,0-10.6,0.1-15.9,0.2c0.1,2.5,0,5.1-0.2,7.6v0.8c-1,14.7-1.8,29.4-2.5,44
			c-0.5,8.5-0.8,17.1-1.2,25.6c-0.5,11.1-1,22.2-1.6,33.3c-0.1,1-0.2,1.9-0.3,2.8c-0.1,4.2-0.8,8.2-2.1,12.1
			c-0.5,1.6-1.4,2.8-2.7,3.8s-2.8,1.4-4.4,1.5c-2.9,0.2-5.1-1-6.6-3.5c-1.8-3.8-2.9-7.9-3.1-12.1c-0.9-13.3-1.1-26.5-0.5-39.8
			c0.5-21.4,1.8-42.8,4-64.1l0.3-2.4C778.6,712.3,778.9,709.4,779.5,706.5z"/>
	</g>
	<g>
		<path fill="#231F20" d="M149.3,479.6c-0.1,0-0.1,0-0.2,0c0,0.1,0,0.1,0.1,0.2c0.4,1.4,0.1,5.3-0.5,14.8c-1,14.5-2.5,38.9-2.5,71.7
			c0,39.3,1.8,80.2,2.1,87.4c0.3,0,0.7,0,1.2-0.1c2.3-0.1,3.8-0.2,4.7,0.1c1.6,0.6,2.7,2,2.6,3.7c0.1,1.2-0.7,2.3-1.9,2.7
			c-1.3,0.4-25.4,2.9-27.5,2.9c0,0-0.1,0-0.1,0c-1.8-0.2-2.9-2.1-3.1-3.7c-0.2-1.6,0.5-2.9,1.8-3.4c1.9-0.5,3.9-0.8,5.9-0.9
			c-1.9-12.7-7.3-63.4-7.3-103c0-35.8,1.6-62.8,3.2-70.9c-1.6,0-5.9,0.3-10.1,0.5c-5.7,0.3-9.4,0.5-10.6,0.5c-0.1,0-0.2,0-0.2,0
			c-1.5-0.1-2.8-1.3-3.2-3.2c-0.4-1.5-0.2-3.6,1.4-4.4c2.1-1,51.9-4.2,71-3.1c3.2,0.2,4.9,2.1,5.1,3.8c0.2,1.7-1,3.3-2.8,3.7
			c-0.8,0.2-3.9,0.3-16.9,0.5C156,479.4,150.4,479.5,149.3,479.6z"/>
		<path fill="#231F20" d="M258.4,559.8c-5.7,9.2-17.8,17.3-30.6,25.7c-4.2,2.8-8.5,5.6-12.5,8.5c7.9,5.1,14.9,11,14.9,21.2
			c0,6.5-3.2,12.6-8.9,17.2c-5,4-11.4,6.3-18,6.5c-11,0-18.7-6.1-18.7-14.8c0-9.9,7-18.6,16.5-26.5c-2.1-1.3-4.3-2.5-6.6-3.8
			c-11.5-6.3-24.5-13.5-24.5-29.7c0-16.7,16.6-29.7,30.9-29.7c15.9,0,23.1,10.7,23.1,18.3c0,3.3-1.2,8.5-2.7,10
			c-1.3,1.2-3.2,1.4-4.8,0.5c-1.3-0.6-1.9-2-1.5-3.3l0.1-0.2c0.7-2,1.2-4.1,1.3-6.2c0-4.5-3-8.9-6.1-8.9c-6.1,0-10.5,5.6-12.6,8.9
			c-3.2,5.1-5.2,11.8-5.2,17c0,9.6,8.4,14.7,17.4,20.1c5-3.5,10.3-6.9,15.4-10.2c12.5-8,24.3-15.5,28.2-22.8
			c0.8-1.4,1.9-2.3,3.1-2.3c0.8,0,1.6,0.4,2,1.1C259.2,557.6,259.1,558.9,258.4,559.8z M214.1,615.1c0-6.1-3.2-10.4-7.9-14.1
			c-8,6.8-13.6,14.1-13.6,22.2c0,5.3,2.1,8.4,5.5,8.4C204.3,631.7,214.1,624.1,214.1,615.1z"/>
		<path fill="#231F20" d="M423,642.1c-0.4,2.8-4.8,14.3-16.5,14.3c-4.8,0-13.9-2.6-21.3-19.7c-6.4-14.9-9.8-37.5-9.8-65.3
			c0-0.4,0-0.7,0-1.1h-1.6c-10.9,0-24.5,0.4-37.5,0.9c-1.5,31.5-7.3,56-17.1,72.8c-4.1,7.1-8.9,12.5-14,16.2
			c-3.8,2.6-7.7,4.2-10.7,4.2c-4.2,0-4.9-2-5-2.9c-0.2-0.9,0.1-1.9,0.8-2.6c0.6-0.6,1.4-0.9,2.2-0.9c0.6,0,1.2,0.2,1.7,0.4
			c0.2,0.1,0.3,0.1,0.5,0.2c2-0.9,19.8-11.3,22.9-86.5c-5.6,0.3-10.8,0.5-15,0.7c-7.3,0.4-9.8,0.5-10.6,0.5c-0.1,0-0.2,0-0.3,0
			c-1.9-0.1-3.2-2-3.3-3.5c-0.1-1.7,1.2-3.1,3-3.3c1.1-0.2,12.4-0.6,26.4-1c0.1-5.2,0.2-10.7,0.2-16.6c0-39.8-5.2-59.9-7.1-67.4
			c-0.3-1.2-0.6-2.1-0.7-2.8c-0.4-2,0.9-3.8,3.1-4.6c3.9-1.4,10.2,0.5,14.9,7.8c2.6,4,8.5,18.8,8.5,71c0,4.1-0.1,8.1-0.2,12
			c18.4-0.5,36.1-0.9,39-1c0.6-38.2,5.9-87.4,8.5-91.1c1.9-2.7,7.4-2.9,11.5-1.8c3.5,1,5.5,2.8,5.5,4.9c0,1-0.3,3.9-0.9,10.3
			c-1.6,15.7-4.8,46.6-5.5,77.9c8.5,0.2,13.6,0.6,14.4,0.7c1.3,0.2,2.2,1.3,2.2,2.5c-0.1,1.2-1.1,2.2-2.3,2.3
			c-0.9,0.1-7.1,0.3-14.4,0.4c0,2,0,4,0,6c0,68.7,13.7,74,14.3,74.1c1.7,0,7.2-0.8,9.1-9.5c0.1-0.6,0.5-1.2,1-1.6
			c0.6-0.4,1.2-0.5,1.9-0.4C422.4,639.1,423.4,640.6,423,642.1z"/>
		<path fill="#231F20" d="M502.3,556.4c0,0.8-2.3,14.1-6,27.9c-5.1,19.1-10.7,31.6-16.5,37.3c-2.4,2.4-5,3.6-7.6,3.6
			c-11.1,0-21.1-15.8-23.6-35.5c-1,3-2,6-2.8,8.6c-3.6,11.5-6.4,20.5-15,20.5c-8.5,0-20.4-11.6-20.4-37.5
			c0-23.4,10.8-39.1,26.9-39.1c4.8,0.1,9.5,1.5,13.4,4.1c0.2-0.7,0.4-1.4,0.6-2c1.1-3,6-3.6,10.1-3c4.9,0.8,8,3.2,8,6.3
			c-0.1,1.3-0.2,2.6-0.4,3.9c-1.5,11-2.2,22-2.2,33.1c0,21.2,5.7,31.4,7.3,33.2c1.5-0.6,6-4.4,14.2-29.3c4.9-15,8.8-30.6,9-32.1
			c0-1.3,1.1-2.4,2.5-2.4h0C501.1,554.1,502.2,555.1,502.3,556.4z M448.9,556.7c0,0-0.1-0.1-0.1-0.1c-0.9-1.5-4.1-4.5-5.9-4.5
			c-2.1,0.2-13.6,8.3-13.6,39.4c0,12.5,2.1,18.3,3.1,19.5c0.8-0.6,3.6-3.7,8.6-20.6c3.1-10.3,6-22.2,7.4-29.1
			C448.7,559.6,448.8,558.1,448.9,556.7z"/>
		<path fill="#231F20" d="M560.9,554.5c0.5,0.6,0.7,1.3,0.6,2c-2.3,13.8-5.4,27.5-9.3,41c-8.1,27.2-17.1,40.9-27,40.9
			c-17.7,0-30-26.1-30-63.4c0-56.4,21.6-111.7,43.7-111.7c9.7,0,14.8,5.3,14.8,15.4c0,29.6-24.1,72-36.6,82.9
			c-0.1,0.1-0.1,0.1-0.2,0.1c-0.7,7.3-1.2,15-1.2,23c0,36.7,8.1,46.1,10.1,46.5c6.8,0,16.4-27.9,19.1-36.5
			c6.1-19,10.6-38.1,10.7-38.9c0.1-0.7,0.5-1.3,1.1-1.7c0.6-0.4,1.4-0.6,2.1-0.4C559.7,553.6,560.4,554,560.9,554.5z M528.4,507
			c-4.7,14.6-8.1,29.5-10.3,44.7c6.3-6,29-45.1,29-70.2c0-7.1-1.8-9.2-2.4-9.5C542.8,473.2,535.7,484.4,528.4,507L528.4,507z"/>
		<path fill="#231F20" d="M623.6,557.8c-2.2,4.2-19.8,23.7-43.3,31.9c1.8,1.2,14.1,5.9,14.1,36.3c0,2.6-0.5,27.2-13.3,27.2
			c-12,0-26.6-23.4-26.6-74.5c0-62.1,20.8-105.4,42.6-105.4c12.8,0,14.9,10.9,14.9,17.6c0,34.1-27.3,71.6-38.4,76.3
			c-0.4,5.7-0.6,11.6-0.6,17.7c0,0.1,0,0.3,0,0.4c26.3-7,44.5-28.3,47-30.4C621.8,553.4,624.7,555.8,623.6,557.8z M573.1,592.3
			c0.9,30.8,7.3,54.4,9.5,54c2.3-0.3,6.2-16.7,6.2-20.6C588.9,602.1,577.3,592.3,573.1,592.3z M574.1,560.7c7.8-4,31.3-43,31.3-66.7
			c0-3.7-0.9-12.7-3.9-12.7C596.6,481.3,578.7,510.1,574.1,560.7z"/>
		<path fill="#231F20" d="M729,483.8c-4-0.5-8-0.9-11.7-1.4c0.3,1.4,0.1,4.9-0.5,13.2c-0.9,12.5-2.4,32.6-2.7,60.9l2.3,0
			c10.7-0.1,15.6-0.1,17.5,0.3c1.9,0.3,3.3,1.8,3.4,3.6c0,1.3-1,2.4-2.4,2.6c-1,0.2-10.1,0.6-20.9,1c0,0.7,0,1.5,0,2.2
			c0,24.9,0.8,56,2.4,87.7l0,0.5c0.2,3.7-2.3,6.3-6.6,7c-0.6,0.1-1.2,0.1-1.8,0.1c-3.5,0-7-1.4-7.8-3.9c-1.1-3.8-6.6-51.3-7.6-92.9
			c-7.1,0.2-13,0.3-15.6,0.3c-0.5,0-0.9,0-1.4,0c-2.2-0.3-3.8-2.2-3.7-4.3c0-1.7,0.9-2.9,2.3-3c1.6-0.2,14.9-0.9,18.4-1
			c0-1.6,0-3.2,0-4.8c0-36.4,2.2-63.2,3.9-71h-0.2c-12.3,0-31.4,14.9-31.4,22.5c0,0.7-0.2,1.4-0.7,1.9c-0.5,0.5-1.2,0.8-2,0.8
			c-2.9,0-7.4-4.2-7.4-9.3c0-9.7,15-23.8,38.6-23.8c6.9,0,15,1.1,24.3,2.4c12.2,1.7,26,3.6,41.1,3.6c22.5,0,32.4-2.8,36.4-10.3
			c0.6-1.3,2.2-2.1,3.7-1.7c2.3,0.5,4.6,3.2,4.6,7.5c0,8.2-12.7,12.4-37.8,12.4C755.6,486.9,742.1,485.3,729,483.8z"/>
		<path fill="#231F20" d="M842.7,558.5c-4.7,34.9-11.4,67.3-29.2,67.3c-14.7,0-25.6-17.6-27.7-43.7c-0.3,1.1-0.7,2.4-1,3.8
			c-3.7,13.5-9.3,33.8-21,33.8c-5.2,0-10-3.3-13.5-9.3c-3.6-6.2-5.5-14.8-5.5-24.7c0-9.4,2.6-34.5,3.9-38.4c1-2.8,5.5-3.5,9.5-3
			c5,0.7,8.4,3.1,8.5,6.1c-0.1,1.5-0.2,3-0.5,4.5c-2,13.8-3,27.7-2.9,41.6c0,12.4,1.7,16.3,2.5,16.8c0.8-0.1,5-1.7,12.3-24.8
			c4-12.6,7.1-26.1,7.7-29.5c0.3-6.2,0.8-11.6,1.9-14.1c1.3-3.1,5.4-4.4,10.6-3.2c4.1,0.9,8.5,3.3,8.2,6.4c-0.1,0.7-0.2,1.7-0.3,2.9
			c-1.2,9.3-1.8,18.6-1.8,28c0,30.9,8.7,39.5,10.9,40c5.2-0.1,11-10.5,16.1-28.7c2.8-10.3,5-20.8,6.5-31.4c0.1-2.1,1.2-2.8,1.7-3
			c0.8-0.4,1.7-0.3,2.4,0.2C842.5,556.5,842.9,557.5,842.7,558.5z"/>
		<path fill="#231F20" d="M902.7,554.5c0.5,0.6,0.7,1.3,0.6,2c-2.3,13.8-5.4,27.5-9.3,41c-8.1,27.2-17.1,40.9-27,40.9
			c-17.7,0-30-26.1-30-63.4c0-56.4,21.6-111.7,43.7-111.7c9.7,0,14.8,5.3,14.8,15.4c0,29.6-24.1,72-36.6,82.9
			c-0.1,0.1-0.1,0.1-0.2,0.1c-0.7,7.3-1.2,15-1.2,23c0,36.7,8.1,46.1,10.1,46.5c6.8,0,16.4-27.9,19.1-36.5
			c6.1-19,10.6-38.1,10.7-38.9c0.1-0.7,0.5-1.3,1.1-1.7c0.6-0.4,1.4-0.6,2.1-0.4C901.5,553.6,902.2,554,902.7,554.5z M870.2,507
			c-4.7,14.6-8.1,29.5-10.3,44.7c6.3-6,29-45.1,29-70.2c0-7.1-1.8-9.2-2.4-9.5C884.6,473.2,877.5,484.4,870.2,507L870.2,507z"/>
		<path fill="#231F20" d="M962,554.5c0.5,0.6,0.7,1.3,0.6,2c-2.3,13.8-5.4,27.5-9.3,41c-8.1,27.2-17.1,40.9-27,40.9
			c-17.7,0-30-26.1-30-63.4c0-56.4,21.6-111.7,43.7-111.7c9.7,0,14.8,5.3,14.8,15.4c0,29.6-24.1,72-36.6,82.9
			c-0.1,0.1-0.1,0.1-0.2,0.1c-0.7,7.3-1.2,15-1.2,23c0,36.7,8.1,46.1,10.1,46.5c6.8,0,16.4-27.9,19.1-36.5
			c6.1-19,10.6-38.1,10.7-38.9c0.1-0.7,0.5-1.3,1.1-1.7c0.6-0.4,1.4-0.6,2.1-0.4C960.9,553.6,961.6,554,962,554.5z M929.6,507
			c-4.7,14.6-8.1,29.5-10.3,44.7c6.3-6,29-45.1,29-70.2c0-7.1-1.8-9.2-2.4-9.5C943.9,473.2,936.9,484.4,929.6,507L929.6,507z"/>
	</g>
	<g>
		<path fill="#231F20" d="M125,299.9c-4.5,0.2-8.9,0.3-13.5,0.5h-1.4c-2.1,0.2-4.3-0.2-6.4-1.2c-0.9-0.4-1.6-1.1-2.2-2.2
			c-0.6-1.1-1.1-2.4-1.3-3.9c-0.4-2.6-0.1-4.6,0.9-6.2c1.7-1.9,3.6-3.1,5.7-3.6c6.5-1.7,13.2-2.6,20-2.9c10.8-0.9,21.7-1,32.6-0.5
			l1.3,0.2c3.3,0.1,6.6,0.9,10,2.4c0.9,0.5,1.8,1.3,2.6,2.3c0.8,1.1,1.3,2.4,1.6,4c0.5,3.1,0.1,5.4-1.3,7c-1.3,1.3-2.8,2.1-4.4,2.4
			c-1.6,0.3-3.2,0.5-4.9,0.5c-0.1,0.1-0.3,0.1-0.5,0.1c-5.7,0-11.5,0.1-17.3,0.2c0.1,2.8,0,5.5-0.2,8.3v0.8c-1,16-2,32-2.8,48
			c-0.5,9.3-0.9,18.6-1.3,27.9c-0.5,12.1-1.1,24.2-1.7,36.3c-0.1,1-0.2,2.1-0.3,3c-0.1,4.5-0.8,8.9-2.3,13.2c-0.5,1.7-1.5,3.1-3,4.1
			c-1.4,1-3,1.5-4.8,1.6c-3.1,0.2-5.5-1.1-7.2-3.8c-2-4.2-3.2-8.6-3.4-13.2c-1-14.5-1.2-28.9-0.5-43.4c0.5-23.3,2-46.6,4.3-69.8
			l0.4-2.6C124,306.2,124.4,303.1,125,299.9z"/>
		<path fill="#231F20" d="M212.1,366.5l-0.5,11.8c-0.5,12.1-1.1,24.1-1.7,36.2c-0.1,1-0.1,2-0.2,3c-0.1,4.5-0.8,8.9-2.3,13.1
			c-0.5,1.7-1.5,3.1-3,4.1c-1.4,1-3,1.6-4.8,1.7c-3.2,0.1-5.6-1.1-7.3-3.8c-2-4.2-3.1-8.6-3.3-13.2c-1-14.4-1.2-28.8-0.5-43.3
			c0.5-23.3,2-46.5,4.3-69.6c0.1-0.9,0.2-1.8,0.3-2.7c0.6-7.1,2.1-14,4.4-20.6c0.7-1.8,1.7-3.4,3.1-4.8c1.4-1.3,3-2.1,5-2.2
			c1.8-0.2,3.4,0.2,4.9,1.1c1.5,0.9,2.6,2.1,3.3,3.7c1.3,3.2,2.1,6.6,2.2,10.2c0.2,3.5,0.1,7-0.1,10.4c0,0.3,0,0.6-0.1,0.9
			c-0.9,14.5-1.8,28.9-2.6,43.5c0.5-0.1,1.1-0.1,1.7-0.2c5.1-0.5,10.5-0.6,16.3-0.4c5.4,0.2,10.1,0.8,14.1,1.7l0.5-12.7
			c0.5-12.1,1.1-24.1,1.7-36.2c0.1-1,0.1-2,0.2-3c0.1-4.5,0.9-8.9,2.3-13.1c0.6-1.7,1.5-3.1,3-4.1c1.4-1,3.1-1.6,4.9-1.7
			c3.1-0.2,5.5,1.1,7.2,3.8c2,4.2,3.1,8.6,3.4,13.2c1,14.4,1.1,28.8,0.5,43.3c-0.5,23.3-2,46.5-4.2,69.6c-0.1,0.9-0.2,1.7-0.4,2.7
			c-0.6,7.1-2.1,14-4.4,20.6c-0.6,1.8-1.6,3.4-3,4.8c-1.4,1.3-3.1,2.1-5,2.2c-1.8,0.2-3.4-0.2-4.9-1.1s-2.6-2.1-3.3-3.7
			c-1.3-3.3-2.1-6.7-2.2-10.2c-0.1-3.5-0.1-7,0.1-10.4c0.1-0.3,0.1-0.6,0.1-0.9c1-15,1.8-30,2.6-45c-2.5,0.2-5.4,0.3-8.8,0.3
			c-2.8,0.1-5.8,0.2-8.9,0.3l-6.4,0.4C217.3,366.2,214.6,366.4,212.1,366.5z"/>
		<path fill="#231F20" d="M305.4,439.8h-0.9c-1.4,0-2.8-0.4-4.1-1.2c-1.3-0.8-2.4-2-3.2-3.5c-1.3-3.3-2-6.7-2.2-10.2l-0.1-3.5
			c0-2.3,0.1-4.6,0.3-6.9v-0.9c1.8-27.1,3.1-52.4,4-75.7c0.5-12.1,1.1-24.1,1.7-36.2l0.2-3c0.1-4.5,0.9-8.9,2.3-13.1
			c0.6-1.7,1.7-3.1,3.2-4.2c1.5-1.1,3.3-1.6,5.3-1.6c2.9,0,5.1,1.3,6.7,3.8c2,4.2,3.2,8.6,3.4,13.2c0.6,8.9,0.9,17.8,0.9,26.6
			c0,5.5-0.1,11.1-0.4,16.6c-0.5,23.3-2,46.5-4.3,69.6l-0.4,2.7c-0.5,7.1-2,14-4.4,20.6c-0.6,1.8-1.6,3.4-3,4.8
			C309.1,438.9,307.4,439.7,305.4,439.8z"/>
		<path fill="#231F20" d="M375.2,442.1c-2.9,0-5.7-0.4-8.4-1.2c-6.5-2.2-11.6-6-15.3-11.3c-3.7-5.4-5.8-10.6-6.1-15.7v-0.6
			c0-4.5,1.2-7.8,3.6-9.9c1.4-1.2,2.8-1.8,4.3-1.8c1.2,0,2.4,0.4,3.7,1.1c1.3,1,2.6,2.4,3.9,4.4c1.3,1.9,2.5,4.1,3.7,6.4
			c2.1,4.3,4.4,7.8,7,10.7c2.3,2.1,4.7,3.1,7.1,3.1c0.7,0,2.1-0.2,4-0.7c1.9-0.5,4-2.7,6.4-6.7c2.3-4,3.5-9.2,3.5-15.5
			c-0.1-6.3-2.1-12.8-6.2-19.6c-4.2-5.9-9.6-11.9-16-17.8c-3.7-3.4-7.1-7-10.5-10.7c-9-9.7-13.5-20.2-13.5-31.2
			c0-0.9,0.1-3.4,0.4-7.6c0.3-4.2,2-9.4,5.1-15.4c3-5.8,6.7-10.4,11-13.9c6.5-5.1,13.6-7.6,21.4-7.6c6.4,0,12.1,1.7,17.3,5.1
			c6.4,4.5,10.5,10.4,12.3,17.6c0.9,4.2,1.4,8.1,1.4,11.8c0,2.8-0.3,5.3-0.8,7.7c-1.1,4.7-2.9,7.3-5.4,7.7c-0.5,0.1-1,0.2-1.5,0.2
			c-0.8,0-1.7-0.2-2.8-0.7c-1-0.5-2-1.7-2.8-3.6c-0.7-2.2-1.3-5-1.6-8.3c-0.4-3-0.9-6-1.7-9.1c-1.6-6.6-5.1-11.6-10.5-14.9
			c-2.6-1.4-5.4-2.1-8.4-2.1c-0.3,0-1.4,0.1-3.3,0.2s-4.2,1.8-6.9,5.1c-2.8,3.6-4.3,8.4-4.6,14.6v0.9c0,5.9,2.2,12.3,6.5,18.9
			c4.5,5.9,10.3,12,17.4,18.2c4.5,4,8.8,8.2,12.9,12.5c10.5,11,15.8,22.6,15.8,35c0,1.7-0.3,5.1-0.9,10.4
			c-0.6,5.3-3.5,11.3-8.8,18.1c-5.4,6.6-11.9,11.2-19.5,13.9C383.7,441.2,379.4,442.1,375.2,442.1z"/>
		<path fill="#231F20" d="M525.7,287.7c-0.2-0.2-0.3-0.5-0.4-0.8c-0.7-1.6-0.9-3.2-0.6-4.8c0-1.6,0.6-3,1.8-4.2
			c1.2-1.2,3.6-2.1,7.2-2.6c4-0.4,8.9-0.5,14.7-0.3c5.8,0.2,11.2,0.8,16.3,1.7c9.7,1.7,15.5,4.6,17.7,8.5c1.1,2.1,1.3,4.3,0.5,6.3
			c-0.8,2.1-2.5,3.6-5.3,4.4c-2.2,0.6-4.9,0.7-8.1,0.4c-3.2-0.3-6.6-0.7-10.3-1.3l-6.4-0.9c-2.8-0.3-5.4-0.6-7.8-0.8
			c0,1.3-0.1,2.7-0.2,3.9v3c-0.5,12.1-1,24.1-1.7,36.2c-0.2,3.3-0.3,6.6-0.5,10l3.1,0.2c2.8,0.1,5.4,0.1,8,0.2
			c6-0.1,10.8,0.3,14.2,1.2c2.2,0.9,3.6,2.1,4.3,3.6c0.6,1.5,0.8,3.1,0.6,4.7c-0.1,1.6-0.7,3-1.8,4.3c-1.1,1.3-3.4,2.3-6.9,3.1
			c-3.8,0.7-8.5,1.2-14,1.4c-2.9,0.1-5.6,0.2-8.3,0.1c-0.7,15.7-1.2,31.4-1.6,47v0.9c-0.1,3.5-0.4,7-0.9,10.4
			c-0.5,3.5-1.5,6.8-3.2,9.9c-0.9,1.5-2.1,2.7-3.7,3.4c-1.5,0.7-3.2,1-4.9,0.6c-2-0.3-3.6-1.2-4.8-2.7c-1.3-1.5-2.1-3.1-2.6-5
			c-1.7-6.9-2.5-13.9-2.5-21c0-0.9,0-1.7-0.1-2.6c-0.1-15.6,0.2-31.2,0.9-46.9c-0.5-0.5-0.9-1-1.2-1.7c-1.1-2-1.3-4-0.5-6.2
			c0.4-1.2,1.2-2.3,2.3-3.1c0.2-4,0.5-8,0.7-12c0.7-14.4,2.2-28.7,4.5-43C524.6,291.5,525.1,289.6,525.7,287.7z"/>
		<path fill="#231F20" d="M622,440.9c-2.6,0-5.5-0.2-8.7-0.7c-3.1-0.5-6.2-1.6-9.2-3.5s-5.3-4.2-7-7c-1.6-2.8-2.9-5.7-3.7-8.7
			c-1.2-4.8-2-9.7-2.3-14.7c-0.3-4.9-0.5-9.8-0.5-14.7c0.3-18.5,1.3-36.9,2.9-55.3c1-13.4,2.7-26.6,4.9-39.9l0.3-1
			c0.8-5.1,2.4-10.1,4.9-14.9c1-1.4,2.2-2.7,3.8-3.9c1.6-1.2,3.5-1.7,5.9-1.7c4.6,0,7.7,1.8,9.3,5.4c1.6,3.6,2.5,9.4,2.5,17.4
			c0,3.2-0.2,6.4-0.5,9.6c0,0.5,0,0.9-0.1,1.4c-1.2,13.3-2.6,26.6-4.3,39.8c-3.5,26-5.2,44.6-5.2,55.9c0,3.1,0.1,6.2,0.3,9.4
			c0,3.6,1,6.8,2.9,9.8c0.9,1.2,2.3,1.7,4.2,1.7s5.9-0.9,12-2.8c7.1-2.2,12.7-3.3,16.7-3.3c0.7,0,1.9,0,3.5,0.1
			c1.6,0.1,3.3,0.7,5.1,1.8c1.8,1.1,2.7,2.7,2.7,4.5c0,0.9-0.2,1.8-0.7,2.8c-1.1,1.8-2.6,3.3-4.6,4.5c-2,1.2-4,2.2-6.2,3.1
			C641.4,439.2,631.8,440.9,622,440.9z"/>
		<path fill="#231F20" d="M699.8,377.2c-0.4,4.6-0.7,9.1-1.1,13.6c-0.5,7.8-1.1,14.6-1.6,20.5c-0.7,7.3-1.3,12.8-1.9,16.5
			c-0.6,3.7-1.2,6.3-1.8,7.7c-0.6,1.4-1.3,2.3-1.9,2.6c-1,0.7-2.1,0.9-3.2,0.8c-1.1-0.1-2.1-0.5-3-1.1c-0.4-0.2-0.8-0.7-1.2-1.3
			c-0.4-0.6-0.7-1.8-0.9-3.5c-0.2-1.7-0.4-4.3-0.5-7.6c-0.1-3.4-0.1-7.9,0-13.6c0.1-12.3,0.7-27.5,1.8-45.4
			c1.1-18,2.9-33.8,5.3-47.5c2.5-12.6,5.6-21.6,9.3-26.9c3.7-5.3,7.6-8.8,11.7-10.5c8.1-4,16.3-4.2,24.7-0.6
			c2.8,1.1,5.5,2.9,8.2,5.5c2.7,2.6,5.1,6.4,7.3,11.6c2.2,5.1,4,12.1,5.4,20.9c2,14.3,3.1,30.8,3.3,49.5c0.1,18.7-0.4,34.7-1.8,47.8
			c-0.9,8.1-2,14.1-3.3,18.1c-1.3,4-2.8,6.7-4.4,8c-1.6,1.4-3.2,2.1-4.9,2.1c-2.6,0.4-4.9-0.1-7-1.7c-2.1-1.5-3.6-4.6-4.5-9.3
			c-0.7-6.2-0.8-15-0.2-26.4c0.3-6.3,0.5-13.3,0.5-20.9c0-2.8,0-5.5,0-8.3H734c-6,0.3-12.4,0.4-19.2,0.2
			C709.1,378,704.1,377.7,699.8,377.2z M733.8,363.8c-0.5-14.1-1.6-27.6-3.2-40.4c-1.2-9-2.6-16.1-4.2-21.3c-1.7-5.2-3.6-8.2-6-9.1
			c-2.3-0.9-4.8,0.9-7.5,5.6c-2.7,4.6-5.1,12.9-7.2,24.9c-1.5,9.4-2.8,20.1-3.9,32.2c-0.2,3-0.5,5.9-0.8,8.8
			c2.9-0.1,6.1-0.2,9.7-0.1c3.2,0,6.4,0,9.8-0.1c2.5-0.1,5-0.2,7.6-0.4C730,363.9,731.9,363.8,733.8,363.8z"/>
		<path fill="#231F20" d="M811.7,442.1c-2.9,0-5.7-0.4-8.4-1.2c-6.5-2.2-11.6-6-15.3-11.3c-3.7-5.4-5.8-10.6-6.1-15.7v-0.6
			c0-4.5,1.2-7.8,3.6-9.9c1.4-1.2,2.8-1.8,4.3-1.8c1.2,0,2.4,0.4,3.7,1.1c1.3,1,2.6,2.4,3.9,4.4c1.3,1.9,2.5,4.1,3.7,6.4
			c2.1,4.3,4.4,7.8,7,10.7c2.3,2.1,4.7,3.1,7.1,3.1c0.7,0,2.1-0.2,4-0.7s4-2.7,6.4-6.7c2.3-4,3.5-9.2,3.5-15.5
			c-0.1-6.3-2.1-12.8-6.2-19.6c-4.2-5.9-9.6-11.9-16-17.8c-3.7-3.4-7.1-7-10.5-10.7c-9-9.7-13.5-20.2-13.5-31.2
			c0-0.9,0.1-3.4,0.4-7.6c0.3-4.2,2-9.4,5.1-15.4c3-5.8,6.7-10.4,11-13.9c6.5-5.1,13.6-7.6,21.4-7.6c6.4,0,12.1,1.7,17.3,5.1
			c6.4,4.5,10.5,10.4,12.3,17.6c0.9,4.2,1.4,8.1,1.4,11.8c0,2.8-0.3,5.3-0.8,7.7c-1.1,4.7-2.9,7.3-5.4,7.7c-0.5,0.1-1,0.2-1.5,0.2
			c-0.8,0-1.7-0.2-2.8-0.7c-1-0.5-2-1.7-2.8-3.6c-0.7-2.2-1.3-5-1.6-8.3c-0.4-3-0.9-6-1.7-9.1c-1.6-6.6-5.1-11.6-10.5-14.9
			c-2.6-1.4-5.4-2.1-8.4-2.1c-0.3,0-1.4,0.1-3.3,0.2c-1.9,0.1-4.2,1.8-6.9,5.1c-2.8,3.6-4.3,8.4-4.6,14.6v0.9
			c0,5.9,2.2,12.3,6.5,18.9c4.5,5.9,10.3,12,17.4,18.2c4.5,4,8.8,8.2,12.9,12.5c10.5,11,15.8,22.6,15.8,35c0,1.7-0.3,5.1-0.9,10.4
			c-0.6,5.3-3.5,11.3-8.8,18.1c-5.4,6.6-11.9,11.2-19.5,13.9C820.2,441.2,815.8,442.1,811.7,442.1z"/>
		<path fill="#231F20" d="M900.3,376.3c-0.1,0.6-0.1,1.3-0.1,1.9c-0.5,12.1-1.1,24.1-1.7,36.2c-0.1,1-0.2,2-0.3,3
			c-0.1,4.5-0.8,8.9-2.3,13.1c-0.5,1.7-1.5,3.1-3,4.1c-1.4,1-3,1.6-4.8,1.7c-3.1,0.1-5.5-1.1-7.2-3.8c-2-4.2-3.2-8.6-3.4-13.2
			c-1-14.4-1.2-28.8-0.5-43.3c0.5-23.3,2-46.5,4.3-69.6c0.1-0.9,0.2-1.8,0.4-2.7c0.5-7.1,2-14,4.4-20.6c0.6-1.8,1.6-3.4,3-4.8
			c1.4-1.3,3.1-2.1,5.1-2.2c1.8-0.2,3.4,0.2,4.8,1.1c1.4,0.9,2.5,2.1,3.3,3.7c1.3,3.2,2,6.6,2.2,10.2c0.2,3.5,0.1,7-0.1,10.4v0.9
			l-1.1,17.6c1.3-1.8,2.8-3.6,4.3-5.5c5.5-6.9,10.9-13,16.3-18.6c10.2-10.5,17.9-15.7,23.1-15.5c2.7,0.1,4.6,1.4,5.6,3.7
			s0.6,5.5-1.2,9.5c-1.6,3-4,6.3-7.1,10c-3.2,3.7-6.6,7.5-10.5,11.6l-6.6,7.2c-3.1,3.5-6.1,6.9-8.9,10.1c-5.5,6.6-10.2,11.6-14,15.1
			c1,0.9,2,1.8,2.8,2.9c5.7,7.7,10.9,15.8,15.5,24.2c7.7,13.3,14.7,27,21.1,41c0.2,0.6,0.4,1.1,0.6,1.6c2,4.2,3.3,8.7,3.9,13.5
			c0.2,1.3,0,2.6-0.6,3.9c-0.6,1.3-1.6,2.5-3.1,3.3c-2.8,1.7-5.3,1.9-7.8,0.7c-2.1-1.3-3.8-2.9-5.1-4.8c-1.3-1.9-2.5-3.9-3.6-5.9
			c-0.1-0.2-0.2-0.4-0.3-0.6c-4.8-9.4-9.6-18.8-14.6-28.1l-8.8-16.2C902.9,381,901.6,378.7,900.3,376.3z"/>
	</g>
</g>
</svg>


