<?xml version="1.0" standalone="no"?>
<!DOCTYPE svg PUBLIC "-//W3C//DTD SVG 20010904//EN"
 "http://www.w3.org/TR/2001/REC-SVG-20010904/DTD/svg10.dtd">
<svg version="1.0" xmlns="http://www.w3.org/2000/svg"
 width="3000.000000pt" height="3000.000000pt" viewBox="0 0 3000.000000 3000.000000"
 preserveAspectRatio="xMidYMid meet">

<g transform="translate(0.000000,3000.000000) scale(0.100000,-0.100000)"
fill="#000000" stroke="none">
<path d="M21163 22497 c-53 -20 -119 -72 -168 -134 -89 -113 -210 -387 -284
-647 l-28 -99 -174 2 c-96 1 -263 -3 -372 -9 -109 -7 -201 -9 -205 -6 -3 4 5
87 17 186 23 177 23 180 4 212 -49 86 -176 85 -223 -2 -5 -9 -18 -94 -29 -190
-12 -96 -23 -189 -26 -206 l-5 -30 -188 -23 c-246 -30 -654 -98 -702 -117 -86
-35 -102 -147 -29 -208 40 -34 58 -33 313 9 116 19 294 46 395 59 l184 23 -6
-86 c-3 -47 -15 -212 -26 -366 -75 -1025 -46 -1913 74 -2280 49 -150 122 -252
209 -295 56 -27 155 -27 214 0 130 59 287 291 383 568 17 51 33 91 35 89 2 -1
12 -79 23 -172 33 -275 58 -430 75 -463 41 -80 167 -82 221 -5 8 11 22 69 30
129 54 361 186 787 360 1162 51 107 135 252 147 252 4 0 8 -12 9 -27 5 -322
20 -632 33 -695 8 -42 31 -115 51 -162 59 -137 132 -190 260 -189 163 1 320
126 515 412 41 61 78 110 81 111 3 0 9 -25 13 -55 16 -137 97 -325 194 -446
258 -325 614 -363 929 -97 175 148 368 465 552 909 84 204 94 246 66 298 -17
34 -70 61 -119 61 -63 0 -94 -42 -167 -225 -70 -176 -198 -440 -281 -579 -240
-402 -501 -492 -737 -256 -105 105 -173 253 -195 429 -6 49 -5 53 11 47 65
-25 156 -38 246 -34 90 5 104 8 181 46 155 77 291 250 336 428 25 96 26 241 4
328 -35 135 -126 254 -231 304 -52 24 -70 27 -163 27 -95 0 -111 -3 -162 -28
-85 -42 -159 -106 -232 -203 -67 -91 -142 -229 -175 -325 -22 -66 -245 -440
-357 -599 -140 -201 -282 -331 -322 -298 -47 40 -61 137 -72 510 -12 405 -25
482 -99 561 -39 43 -74 57 -139 57 -47 0 -67 -6 -103 -28 -145 -93 -320 -407
-479 -862 -52 -148 -59 -161 -64 -130 -10 62 -26 310 -33 512 l-6 197 73 78
c260 279 515 757 655 1232 186 629 142 1215 -99 1327 -57 26 -138 31 -193 11z
m133 -355 c25 -106 25 -374 0 -532 -44 -289 -158 -632 -312 -945 -70 -142
-181 -331 -232 -392 l-23 -28 6 110 c8 155 41 449 70 622 27 167 63 344 70
352 3 2 33 -1 66 -7 49 -9 68 -9 94 2 49 21 75 61 75 117 0 67 -33 104 -111
126 -42 12 -59 21 -59 33 0 27 67 230 111 336 60 145 114 244 156 288 l37 38
18 -21 c9 -12 25 -56 34 -99z m-706 -778 c26 -6 31 -10 26 -28 -14 -50 -67
-353 -85 -486 -35 -254 -52 -487 -57 -800 -6 -372 -23 -482 -130 -844 -91
-305 -230 -602 -312 -667 l-27 -21 -27 31 c-51 57 -97 243 -123 501 -50 498
-39 1289 30 2088 8 95 15 179 15 187 0 20 37 24 250 34 247 11 401 12 440 5z
m2470 -1162 c79 -79 94 -254 33 -382 -37 -79 -99 -151 -161 -188 -41 -24 -57
-27 -127 -26 -88 1 -191 33 -203 62 -11 29 37 184 88 287 89 180 195 285 288
285 38 0 50 -5 82 -38z"/>
<path d="M7230 22478 c-25 -12 -79 -56 -120 -97 -154 -154 -305 -452 -445
-877 -54 -160 -147 -498 -161 -579 -9 -52 -25 -82 -19 -35 3 19 12 112 21 205
30 331 77 635 131 853 34 139 24 181 -54 221 -52 26 -130 0 -157 -52 -52 -103
-129 -566 -181 -1082 -49 -491 -69 -1240 -46 -1678 l13 -225 -59 -88 c-157
-235 -235 -446 -249 -669 -18 -277 104 -493 341 -606 377 -179 1027 -3 1554
421 486 391 776 901 798 1400 23 532 -217 895 -667 1010 -211 54 -491 52 -734
-4 -38 -9 -70 -15 -72 -13 -2 2 30 87 70 189 142 357 288 839 330 1090 61 361
34 558 -84 618 -54 27 -149 27 -210 -2z m67 -375 c-15 -287 -116 -661 -330
-1223 -67 -176 -121 -301 -183 -419 -40 -76 -46 -94 -40 -125 10 -50 59 -103
108 -117 39 -10 46 -8 132 35 195 98 346 130 601 130 153 0 193 -3 270 -22
205 -52 340 -154 414 -314 60 -129 76 -214 75 -408 -1 -151 -3 -175 -31 -280
-114 -429 -441 -844 -888 -1125 -188 -118 -431 -220 -625 -261 -125 -26 -325
-24 -403 4 -110 40 -187 114 -222 212 -21 59 -22 204 -1 292 15 66 75 233 81
226 2 -2 13 -68 25 -147 22 -149 33 -182 69 -215 29 -26 100 -32 139 -12 62
32 63 36 56 438 l-7 363 95 91 c223 213 473 360 704 415 97 23 126 38 142 75
28 59 9 133 -40 165 -46 29 -128 20 -277 -30 -185 -62 -364 -160 -535 -295
-33 -25 -61 -44 -63 -42 -6 5 24 337 48 546 81 695 271 1416 484 1841 69 136
183 314 204 318 2 1 1 -52 -2 -116z"/>
<path d="M13103 22425 c-65 -30 -143 -101 -196 -179 -62 -91 -172 -328 -221
-477 -152 -456 -236 -958 -267 -1609 -10 -204 -14 -236 -29 -247 -10 -7 -41
-68 -70 -135 -96 -224 -176 -372 -301 -558 -193 -286 -368 -456 -528 -512 -80
-29 -205 -22 -281 15 -146 70 -247 237 -281 466 -16 111 -6 356 20 482 67 329
243 605 400 626 142 19 240 -166 241 -455 0 -79 1 -84 33 -118 28 -30 42 -37
83 -41 89 -9 134 51 134 179 0 251 -64 444 -189 569 -89 89 -150 114 -281 113
-75 0 -108 -5 -153 -23 -163 -64 -326 -257 -425 -503 -25 -64 -48 -104 -70
-124 -29 -25 -37 -44 -62 -149 -69 -288 -197 -576 -341 -768 -45 -60 -116
-117 -146 -117 -40 0 -129 159 -162 290 -56 222 -50 650 14 988 19 98 11 137
-36 177 -24 19 -42 25 -81 25 -43 0 -54 -4 -82 -32 -18 -18 -35 -39 -37 -46
-3 -10 -18 -7 -61 13 -254 116 -499 44 -665 -197 -165 -239 -244 -560 -230
-932 6 -169 16 -236 53 -348 63 -192 186 -291 323 -258 101 24 175 107 275
307 56 112 162 360 206 481 13 34 24 61 26 60 1 -2 9 -58 18 -124 40 -309 160
-545 314 -621 112 -55 237 -32 359 66 69 56 169 182 229 289 l49 86 8 -35 c24
-92 53 -171 89 -241 75 -146 228 -281 381 -337 64 -23 86 -26 207 -26 128 0
139 2 212 31 260 105 554 410 775 805 l58 104 12 -215 c21 -370 76 -914 103
-1020 22 -82 119 -124 187 -81 60 38 65 55 79 264 16 226 43 462 70 589 l5 27
92 -70 c105 -81 261 -161 362 -185 91 -22 241 -22 324 1 156 41 290 124 441
275 210 209 381 481 469 746 26 76 29 96 20 127 -20 74 -123 110 -188 65 -29
-19 -42 -42 -81 -143 -26 -66 -63 -152 -83 -191 -116 -229 -340 -485 -507
-580 -176 -101 -343 -89 -537 38 -67 44 -75 52 -58 59 11 5 56 22 100 38 420
159 692 719 525 1078 -56 122 -122 181 -230 209 -52 13 -73 14 -128 4 -261
-45 -477 -356 -652 -936 -28 -91 -50 -171 -50 -179 0 -8 -4 -15 -8 -15 -9 0
-22 287 -22 469 l0 94 78 81 c369 387 720 1195 783 1805 14 136 6 354 -15 430
-64 228 -233 336 -403 256z m139 -266 c58 -116 48 -394 -24 -694 -64 -268
-209 -644 -342 -887 -68 -122 -184 -308 -193 -308 -8 0 4 163 28 380 76 694
261 1306 458 1513 19 20 40 36 46 34 5 -2 18 -19 27 -38z m256 -2016 c30 -43
44 -99 45 -176 1 -96 -16 -164 -68 -272 -90 -187 -238 -310 -430 -360 -100
-25 -97 -29 -65 80 74 253 192 514 283 625 98 120 193 162 235 103z m-3933
-77 c77 -20 118 -44 110 -64 -4 -9 -49 -129 -100 -267 -185 -499 -330 -837
-388 -910 l-24 -29 -22 42 c-44 86 -55 163 -55 377 0 151 4 222 17 289 55 274
174 493 301 552 58 27 90 29 161 10z"/>
<path d="M16050 22063 c-8 -3 -27 -17 -42 -31 -32 -29 -40 -66 -63 -267 -9
-77 -18 -152 -21 -166 -5 -25 -6 -26 -192 -48 -241 -29 -645 -96 -699 -116
-89 -34 -106 -147 -32 -209 40 -34 58 -33 313 9 116 19 294 46 395 59 l184 23
-6 -86 c-3 -47 -15 -212 -26 -366 -75 -1028 -46 -1912 75 -2282 48 -148 132
-262 219 -299 50 -20 151 -18 203 6 134 61 291 297 389 587 21 62 40 113 43
113 3 0 18 -29 33 -63 57 -129 161 -238 258 -272 54 -19 165 -19 219 0 142 50
285 253 345 488 26 106 55 266 55 311 0 17 4 36 8 42 4 6 61 25 127 42 188 48
379 137 454 212 36 36 48 88 31 130 -34 82 -130 106 -206 51 -64 -47 -194
-108 -288 -135 -100 -29 -116 -31 -116 -13 0 36 -33 222 -51 287 -42 155 -140
325 -236 410 -27 24 -77 57 -113 74 -89 42 -216 49 -302 16 -111 -41 -214
-169 -247 -304 -15 -62 -15 -223 0 -291 10 -45 9 -55 -5 -77 -9 -14 -28 -92
-41 -174 -74 -440 -229 -899 -376 -1116 -22 -31 -49 -64 -61 -73 -22 -15 -24
-14 -50 14 -31 34 -70 149 -92 272 -82 446 -82 1374 -1 2317 8 95 15 179 15
186 0 21 26 24 315 36 306 13 526 4 688 -30 86 -17 102 -18 131 -6 77 32 103
132 50 195 -67 80 -452 118 -927 92 -121 -7 -221 -10 -225 -7 -3 4 5 87 17
185 21 166 22 181 7 210 -9 17 -27 38 -41 47 -26 17 -91 27 -115 17z m1159
-1742 c121 -62 215 -263 246 -525 l7 -58 -54 7 c-192 24 -341 116 -387 239
-32 85 -30 205 5 274 40 81 104 103 183 63z m-119 -743 c95 -46 180 -70 298
-83 72 -8 70 -2 46 -139 -44 -254 -156 -466 -246 -466 -94 0 -197 227 -214
470 -7 99 3 274 14 268 4 -2 50 -24 102 -50z"/>
<path d="M3590 17700 c-946 -61 -1765 -747 -2119 -1772 -180 -522 -215 -1097
-101 -1658 146 -724 545 -1341 1110 -1715 393 -261 794 -389 1283 -411 291
-13 553 45 779 172 31 18 59 30 62 26 3 -3 6 -50 6 -104 l0 -98 490 0 490 0 0
945 0 945 225 0 225 0 0 495 0 495 -1050 0 -1050 0 0 -494 0 -493 158 -6 c288
-10 412 -74 412 -213 0 -72 -54 -178 -122 -239 -58 -52 -186 -118 -273 -140
-106 -27 -246 -38 -327 -26 -399 61 -643 563 -674 1387 -20 537 97 1026 321
1340 66 93 182 195 267 237 99 48 165 61 285 55 174 -10 344 -88 474 -217 132
-132 148 -190 149 -523 l0 -198 490 0 490 0 0 1045 0 1045 -490 0 -490 0 0
-80 c0 -44 -1 -80 -3 -80 -2 0 -47 29 -100 64 -269 180 -527 241 -917 216z"/>
<path d="M7848 17583 l-1278 -3 0 -614 0 -613 79 -16 c98 -20 241 -73 317
-118 93 -55 187 -149 220 -221 l29 -63 0 -1075 0 -1075 -27 -58 c-77 -164
-312 -306 -580 -352 l-38 -6 0 -614 0 -615 1230 0 1230 0 0 1160 c0 638 4
1160 8 1160 15 0 72 -47 103 -86 100 -125 141 -297 179 -739 28 -331 47 -490
76 -628 132 -628 501 -893 1205 -863 520 22 910 163 1155 418 147 153 223 308
232 469 7 139 -26 199 -110 199 -46 0 -65 -9 -138 -66 -81 -63 -157 -95 -244
-101 -150 -12 -269 33 -320 120 -38 65 -54 156 -66 387 -21 394 -68 603 -186
830 -119 228 -356 413 -652 506 -7 2 23 37 69 81 211 202 364 477 431 774 20
91 23 131 23 314 0 183 -3 223 -23 314 -68 302 -197 536 -417 757 -226 227
-489 365 -800 419 -119 21 -204 22 -1707 18z m1305 -968 c91 -19 197 -77 267
-146 221 -217 223 -566 6 -783 -93 -93 -251 -166 -360 -166 l-36 0 0 555 0
555 28 0 c15 0 57 -7 95 -15z"/>
<path d="M9140 16075 l0 -444 42 15 c97 34 193 116 237 202 47 92 64 238 40
341 -33 143 -143 268 -277 315 l-42 15 0 -444z"/>
<path d="M12330 16966 l0 -613 79 -16 c98 -20 241 -73 317 -118 93 -55 187
-149 220 -221 l29 -63 0 -1075 0 -1075 -27 -58 c-77 -164 -312 -306 -580 -352
l-38 -6 0 -614 0 -615 1555 0 1555 0 0 614 0 614 -64 11 c-147 26 -322 102
-428 186 -70 56 -133 148 -147 215 -15 71 -15 2089 0 2159 15 70 77 161 146
215 110 87 279 161 426 186 l67 12 0 614 0 614 -1555 0 -1555 0 0 -614z"/>
<path d="M16020 16961 l0 -619 68 -6 c120 -12 364 -67 499 -111 162 -53 277
-112 350 -178 102 -94 93 24 93 -1187 0 -1023 -1 -1062 -19 -1098 -85 -167
-466 -323 -943 -387 l-48 -6 0 -615 0 -614 1310 0 1310 0 0 614 0 613 -137 6
c-152 6 -234 21 -398 74 -206 66 -368 165 -435 264 l-35 52 -2 1111 c-2 1049
-1 1110 15 1087 9 -13 558 -877 1218 -1920 l1202 -1896 608 -5 c335 -3 925 -3
1312 -1 l702 4 0 612 0 612 -67 7 c-224 23 -517 126 -659 231 -65 49 -100 89
-130 150 l-24 50 0 1046 c0 946 2 1050 17 1095 24 73 132 175 248 236 155 80
386 150 541 164 l74 7 0 613 0 614 -1310 0 -1310 0 0 -615 0 -615 58 0 c93 0
323 -38 489 -80 168 -43 301 -92 403 -148 85 -47 182 -144 198 -198 9 -31 12
-298 11 -1085 0 -1035 0 -1044 -20 -1019 -10 14 -592 864 -1292 1890 l-1272
1865 -1313 3 -1312 2 0 -619z"/>
<path d="M23280 16966 l0 -613 79 -16 c98 -20 241 -73 317 -118 93 -55 187
-149 220 -221 l29 -63 0 -1075 0 -1075 -27 -58 c-77 -164 -312 -306 -580 -352
l-38 -6 0 -615 0 -615 1673 4 c1809 3 1710 0 1965 56 927 202 1577 1004 1741
2146 95 659 26 1247 -206 1775 -361 816 -1068 1367 -1863 1450 -58 6 -719 10
-1702 10 l-1608 0 0 -614z m2895 -631 c356 -74 614 -468 697 -1065 20 -146 17
-594 -5 -745 -76 -513 -256 -883 -514 -1055 -119 -80 -172 -92 -410 -98 l-203
-4 0 1491 0 1491 183 0 c121 0 206 -5 252 -15z"/>
<path d="M25850 15745 l0 -495 125 0 c153 0 255 -19 350 -66 80 -39 172 -111
229 -179 60 -73 142 -209 178 -296 17 -43 35 -79 39 -79 12 0 17 261 8 430
-30 586 -190 976 -459 1119 -91 49 -156 61 -322 61 l-148 0 0 -495z"/>
<path d="M3832 16290 c-111 -29 -183 -73 -265 -160 -162 -173 -272 -436 -322
-770 -20 -131 -32 -510 -20 -646 l7 -89 23 60 c95 255 285 484 481 583 225
114 473 76 672 -103 l50 -45 566 0 566 0 0 135 0 135 -538 0 -539 0 -10 313
c-11 358 -13 366 -103 461 -120 127 -360 180 -568 126z"/>
<path d="M6570 15746 l0 -494 68 -12 c151 -28 342 -115 433 -197 l39 -35 0
453 c0 519 3 499 -90 589 -82 80 -327 190 -422 190 l-28 0 0 -494z"/>
<path d="M12330 15746 l0 -494 68 -12 c151 -28 342 -115 433 -197 l39 -35 0
453 c0 519 3 499 -90 589 -82 80 -327 190 -422 190 l-28 0 0 -494z"/>
<path d="M15315 16221 c-198 -59 -349 -159 -399 -266 -14 -28 -16 -96 -16
-485 l0 -451 58 44 c99 78 229 136 388 177 l41 10 7 72 c23 246 36 452 42 670
l7 248 -34 -1 c-19 0 -61 -8 -94 -18z"/>
<path d="M16020 15746 l0 -494 88 -12 c299 -40 658 -157 789 -256 17 -13 34
-24 37 -24 10 0 7 917 -3 943 -35 91 -251 200 -547 277 -131 34 -273 60 -326
60 l-38 0 0 -494z"/>
<path d="M20071 15954 l0 -289 147 -215 147 -214 140 -32 c243 -55 456 -133
561 -204 25 -16 47 -30 50 -30 2 0 4 212 4 470 l0 470 -41 45 c-78 85 -322
186 -604 251 -90 21 -155 28 -262 32 l-143 4 1 -288z"/>
<path d="M22484 16220 c-297 -67 -532 -199 -563 -316 -8 -28 -10 -187 -9 -483
l3 -441 54 40 c138 104 432 206 650 226 l71 7 0 493 0 494 -62 -1 c-35 0 -99
-9 -144 -19z"/>
<path d="M23280 15747 l0 -495 68 -12 c151 -28 342 -115 433 -197 l39 -35 0
454 0 454 -25 51 c-29 57 -88 116 -157 157 -65 38 -244 103 -306 112 l-52 7 0
-496z"/>
<path d="M17721 15193 l0 -448 403 -630 403 -630 104 -5 104 -5 3 -167 2 -168
663 -1042 663 -1043 370 -7 c203 -3 793 -4 1312 0 l942 5 0 495 0 495 -930 -7
c-511 -4 -1114 -4 -1339 0 l-409 7 -1142 1798 c-628 990 -1144 1799 -1146
1799 -2 0 -4 -201 -3 -447z"/>
<path d="M10766 15417 c-56 -133 -171 -308 -275 -419 l-44 -48 39 -16 c59 -25
167 -90 238 -143 l64 -49 7 32 c10 50 17 616 8 665 l-8 45 -29 -67z"/>
<path d="M9140 13713 c0 -405 1 -432 19 -454 38 -49 94 -175 116 -263 29 -116
42 -223 55 -466 37 -686 136 -1006 384 -1237 89 -83 247 -168 388 -208 465
-131 1120 -22 1503 251 177 125 313 294 366 453 19 54 24 97 28 236 8 239 7
615 -2 648 -8 29 -8 28 -49 -35 -53 -83 -214 -242 -308 -305 -203 -136 -443
-222 -750 -270 -88 -13 -176 -17 -370 -18 -241 0 -261 2 -365 27 -528 125
-807 468 -879 1078 -8 69 -22 224 -31 345 -18 251 -45 456 -76 565 -11 41 -22
77 -25 79 -2 2 -4 -189 -4 -426z"/>
<path d="M1306 13940 c32 -847 206 -1420 585 -1927 99 -132 339 -371 472 -470
273 -203 594 -358 906 -438 203 -52 271 -60 521 -60 205 0 248 3 335 22 145
32 253 69 371 128 58 28 107 49 109 46 3 -2 5 -46 5 -98 l0 -93 490 0 490 0 0
495 0 495 -540 0 -540 0 0 70 c0 39 -2 70 -4 70 -3 0 -37 -13 -78 -29 -202
-81 -389 -115 -638 -115 -730 1 -1459 363 -1944 965 -211 262 -371 561 -487
909 l-59 175 6 -145z"/>
<path d="M28681 13935 c-7 -33 -33 -120 -58 -194 -273 -828 -824 -1402 -1541
-1604 -360 -102 -586 -111 -2484 -101 l-1318 6 0 -496 0 -496 1624 0 c1072 0
1659 4 1727 11 486 49 932 252 1268 574 418 401 670 954 760 1665 23 181 44
512 39 620 l-3 75 -14 -60z"/>
<path d="M3940 13720 l0 -213 61 7 c111 13 241 67 320 133 36 31 79 114 79
155 0 41 -44 85 -103 103 -32 10 -111 18 -204 22 l-153 6 0 -213z"/>
<path d="M5700 13435 l0 -495 170 0 170 0 0 495 0 495 -170 0 -170 0 0 -495z"/>
<path d="M6570 11545 l0 -495 1230 0 1230 0 0 495 0 495 -1230 0 -1230 0 0
-495z"/>
<path d="M12330 11545 l0 -495 1555 0 1555 0 0 495 0 495 -1555 0 -1555 0 0
-495z"/>
<path d="M16020 11545 l0 -495 1310 0 1310 0 0 495 0 495 -1310 0 -1310 0 0
-495z"/>
</g>
</svg>
