<?xml version="1.0" standalone="no"?>
<!DOCTYPE svg PUBLIC "-//W3C//DTD SVG 20010904//EN"
 "http://www.w3.org/TR/2001/REC-SVG-20010904/DTD/svg10.dtd">
<svg version="1.0" xmlns="http://www.w3.org/2000/svg"
 width="3000.000000pt" height="3000.000000pt" viewBox="0 0 3000.000000 3000.000000"
 preserveAspectRatio="xMidYMid meet">

<g transform="translate(0.000000,3000.000000) scale(0.100000,-0.100000)"
fill="#000000" stroke="none">
<path d="M20285 25121 c-248 -142 -650 -899 -1065 -2006 -39 -104 -76 -202
-81 -216 l-11 -27 -156 -4 c-184 -6 -227 -18 -301 -84 -57 -51 -91 -114 -91
-167 0 -46 -6 -44 229 -90 101 -20 186 -38 187 -40 2 -2 -12 -50 -32 -108
-145 -428 -342 -1118 -445 -1554 -38 -162 -45 -174 -172 -286 -90 -80 -253
-196 -262 -188 -2 3 14 88 36 190 47 214 92 475 110 639 19 172 17 484 -4 597
-91 493 -373 794 -838 894 -141 31 -430 34 -559 5 -187 -41 -368 -122 -540
-244 -189 -134 -427 -398 -585 -652 -138 -220 -287 -552 -385 -855 -23 -71
-63 -172 -90 -225 -26 -52 -123 -252 -215 -445 -489 -1021 -744 -1484 -921
-1668 -104 -109 -170 -115 -210 -21 -180 419 707 3400 1466 4929 210 423 452
785 525 785 20 0 45 28 45 50 0 26 -98 129 -178 188 -226 166 -517 274 -743
276 -105 1 -106 1 -190 -41 -282 -142 -701 -631 -1249 -1458 -535 -809 -1095
-1788 -1607 -2810 -225 -450 -235 -461 -147 -158 53 184 113 354 391 1118 438
1204 593 1683 672 2085 61 307 42 544 -60 759 -112 236 -291 390 -546 468 -79
24 -103 27 -248 27 -127 0 -183 -4 -273 -22 -718 -144 -1521 -648 -1960 -1230
-238 -316 -365 -620 -402 -960 -35 -325 96 -657 368 -932 190 -191 455 -334
557 -300 36 12 55 35 55 66 0 9 -22 40 -49 69 -94 100 -131 209 -131 394 0
312 112 705 298 1036 210 377 525 734 881 1000 228 171 443 284 539 285 37 0
44 -3 53 -27 28 -71 -21 -292 -145 -666 -41 -122 -174 -494 -296 -827 -281
-766 -435 -1197 -543 -1520 -351 -1048 -519 -1766 -534 -2280 -6 -221 2 -273
62 -395 63 -130 178 -234 346 -315 95 -45 258 -90 330 -90 46 0 49 2 73 43 14
23 189 375 389 782 972 1975 1613 3153 2210 4063 66 100 121 181 123 179 2 -2
-24 -75 -57 -163 -545 -1442 -986 -3167 -1025 -4006 -25 -558 177 -969 544
-1102 368 -132 687 25 1061 524 199 266 357 546 605 1074 l23 50 11 -103 c50
-435 223 -757 510 -948 256 -171 609 -223 936 -138 402 104 754 424 1071 970
32 55 100 185 150 288 l93 188 93 45 c110 53 230 130 317 203 38 32 62 46 62
37 0 -8 -9 -84 -20 -168 -52 -411 -29 -724 73 -996 99 -264 288 -456 528 -536
216 -72 422 -52 604 58 415 250 882 960 1261 1913 258 649 370 1214 207 1041
-72 -77 -150 -212 -458 -793 -502 -945 -712 -1285 -916 -1485 -137 -133 -248
-131 -315 7 -24 47 -28 72 -32 163 -14 346 101 968 324 1745 81 281 284 896
387 1170 l64 170 64 -1 c35 -1 143 -3 239 -5 169 -4 177 -3 225 20 81 40 195
162 244 262 40 82 71 181 71 225 0 56 -22 66 -81 37 -26 -13 -72 -18 -220 -21
-103 -3 -217 -1 -253 3 -63 6 -66 8 -60 28 21 69 195 452 319 702 201 408 364
684 511 870 101 127 127 153 167 170 21 9 40 22 44 30 30 80 -264 301 -539
405 -128 48 -282 80 -385 80 -68 0 -85 -4 -128 -29z m-2860 -3015 c51 -55 69
-133 68 -311 0 -334 -91 -804 -264 -1371 -27 -89 -56 -178 -64 -198 l-15 -36
-93 0 c-54 0 -115 -6 -144 -15 -116 -34 -205 -164 -212 -308 -4 -95 15 -152
64 -196 33 -28 89 -51 128 -51 25 0 18 -21 -56 -155 -98 -179 -193 -312 -296
-415 -110 -110 -176 -150 -260 -157 -93 -9 -154 36 -194 143 -20 54 -22 76
-22 259 1 173 4 221 28 358 127 723 501 1675 853 2168 86 122 216 249 293 287
90 45 142 44 186 -2z"/>
<path d="M3275 19441 c-248 -142 -650 -899 -1065 -2006 -39 -104 -76 -202 -81
-216 l-11 -27 -156 -4 c-184 -6 -227 -18 -301 -84 -57 -51 -91 -114 -91 -167
0 -46 -6 -44 229 -90 101 -20 186 -38 187 -40 2 -2 -12 -50 -32 -108 -123
-363 -299 -969 -403 -1385 -275 -1101 -314 -1661 -148 -2102 99 -264 289 -456
528 -536 111 -37 251 -52 345 -38 295 46 607 324 929 828 41 65 77 119 78 121
2 1 3 -79 3 -180 -1 -161 2 -191 22 -260 81 -282 294 -488 540 -522 75 -10
127 18 199 107 99 122 206 316 548 998 426 847 573 1118 808 1485 89 139 271
400 286 409 4 3 -21 -88 -56 -201 -165 -532 -267 -1034 -295 -1444 -32 -482
73 -879 294 -1107 140 -145 300 -219 514 -237 196 -17 364 65 575 282 53 54
124 134 159 178 117 149 287 414 395 617 l53 101 7 -39 c59 -364 171 -609 374
-814 222 -225 494 -342 861 -370 323 -24 580 64 860 295 394 327 779 965 1065
1765 139 388 263 887 253 1020 -4 59 -24 62 -78 14 -65 -59 -130 -176 -418
-749 -408 -812 -587 -1102 -851 -1377 -220 -230 -438 -347 -647 -348 -88 0
-146 23 -215 87 -145 135 -216 414 -189 739 11 130 51 398 61 408 2 2 36 -6
75 -20 152 -51 313 -55 531 -13 647 124 1090 638 1164 1352 42 394 -124 836
-398 1062 -83 69 -218 139 -320 167 -63 17 -106 21 -223 21 -159 0 -228 -14
-377 -73 -526 -210 -1032 -895 -1335 -1805 -63 -190 -83 -236 -213 -486 -370
-712 -585 -1066 -748 -1236 -103 -107 -163 -128 -216 -75 -107 106 -37 712
163 1419 163 577 448 1308 629 1615 55 92 91 135 135 157 47 25 15 109 -71
187 -141 127 -370 217 -623 245 -59 6 -130 8 -157 5 -228 -31 -584 -411 -1072
-1146 -326 -492 -621 -993 -939 -1602 -43 -82 -79 -148 -81 -148 -8 0 77 330
166 644 111 389 222 728 444 1356 145 411 427 1108 625 1545 110 242 309 639
405 805 162 282 330 504 403 533 22 9 43 21 47 27 35 57 -162 228 -400 347
-245 123 -525 176 -644 122 -130 -58 -331 -339 -535 -746 -400 -801 -911
-2264 -1237 -3543 l-70 -275 -141 -265 c-495 -931 -788 -1330 -959 -1307 -55
7 -94 39 -125 104 -24 47 -28 72 -32 163 -15 353 115 1035 342 1810 77 261
276 858 369 1105 l64 170 64 -1 c35 -1 143 -3 239 -5 169 -4 177 -3 225 20 81
40 195 162 244 262 40 82 71 181 71 225 0 56 -22 66 -81 37 -26 -13 -72 -18
-220 -21 -103 -3 -217 -1 -253 3 -63 6 -66 8 -60 28 21 69 195 452 319 702
201 408 364 684 511 870 101 127 127 153 167 170 21 9 40 22 44 30 30 80 -264
301 -539 405 -128 48 -282 80 -385 80 -68 0 -85 -4 -128 -29z m6419 -3161 c69
-83 38 -327 -70 -542 -85 -169 -201 -324 -379 -507 -249 -255 -523 -448 -705
-494 -40 -11 -56 -11 -58 -3 -1 6 22 85 53 175 56 165 157 389 255 563 184
326 432 626 623 751 100 66 148 86 209 86 39 1 50 -3 72 -29z"/>
<path d="M28375 19441 c-248 -142 -650 -899 -1065 -2006 -39 -104 -76 -202
-81 -216 l-11 -27 -156 -4 c-184 -6 -227 -18 -301 -84 -57 -51 -91 -114 -91
-167 0 -46 -6 -44 229 -90 101 -20 185 -38 187 -40 2 -1 -26 -92 -62 -201
-291 -890 -519 -1808 -593 -2391 -53 -420 -31 -730 72 -1003 99 -264 288 -456
528 -536 216 -72 422 -52 604 58 414 250 883 961 1261 1913 258 649 370 1214
207 1041 -72 -77 -150 -212 -458 -793 -502 -945 -712 -1285 -916 -1485 -137
-133 -248 -131 -315 7 -24 47 -28 72 -32 163 -14 346 101 968 324 1745 81 281
284 896 387 1170 l64 170 64 -1 c35 -1 143 -3 239 -5 169 -4 177 -3 225 20 81
40 195 162 244 262 40 82 71 181 71 225 0 56 -22 66 -81 37 -26 -13 -72 -18
-220 -21 -103 -3 -217 -1 -253 3 -63 6 -66 8 -60 28 21 69 195 452 319 702
201 408 364 684 511 870 101 127 127 153 167 170 21 9 40 22 44 30 30 80 -264
301 -539 405 -128 48 -282 80 -385 80 -68 0 -85 -4 -128 -29z"/>
<path d="M22170 17619 c-30 -5 -91 -27 -136 -49 -145 -71 -252 -211 -320 -420
-24 -74 -28 -101 -28 -215 -1 -123 1 -133 26 -181 15 -28 41 -64 59 -78 l32
-27 -56 -177 c-31 -97 -81 -262 -111 -367 -187 -647 -358 -1009 -592 -1255
-90 -94 -206 -189 -212 -172 -1 5 6 54 17 109 35 172 62 411 68 613 18 582
-109 1040 -361 1308 -172 181 -358 271 -628 303 -370 43 -697 -91 -1029 -421
-327 -324 -579 -757 -763 -1313 -203 -609 -275 -1291 -185 -1731 30 -144 62
-235 129 -371 186 -377 522 -587 940 -588 312 0 606 148 920 463 237 238 452
548 626 902 l67 137 66 6 c399 40 701 300 961 830 139 283 231 540 419 1165
60 201 114 377 120 391 l10 27 72 -14 c164 -31 300 -79 367 -131 33 -25 34
-28 29 -77 -7 -67 -44 -178 -222 -661 -81 -220 -178 -492 -216 -605 -229 -677
-287 -1274 -166 -1710 115 -412 379 -648 757 -676 142 -10 259 28 400 132 128
93 285 262 406 434 31 44 59 80 62 80 4 0 16 -21 26 -48 59 -147 199 -321 331
-409 198 -132 431 -202 735 -219 485 -27 824 174 1047 621 180 359 265 779
308 1525 32 551 85 978 171 1378 30 140 53 228 127 473 47 159 -307 387 -658
424 -53 6 -69 3 -135 -25 -173 -74 -325 -182 -496 -354 -355 -356 -651 -851
-1039 -1744 -99 -227 -439 -857 -617 -1144 -230 -371 -391 -514 -471 -419 -40
49 -51 115 -44 290 11 298 73 642 194 1081 95 347 211 674 432 1218 135 332
155 398 149 502 -10 172 -129 282 -398 368 -166 53 -367 85 -754 121 -114 11
-210 22 -212 24 -3 2 3 46 13 98 12 65 17 147 18 269 0 167 -1 177 -25 224
-14 28 -36 58 -50 68 -31 23 -107 30 -180 17z m-2071 -1337 c63 -66 76 -130
76 -377 -1 -230 -12 -328 -71 -615 -40 -200 -91 -397 -149 -585 -68 -217 -44
-192 -182 -197 -138 -5 -174 -19 -241 -92 -113 -123 -128 -332 -30 -423 29
-27 89 -53 123 -53 14 0 25 -2 25 -5 0 -13 -97 -198 -147 -280 -169 -278 -334
-431 -479 -443 -182 -15 -267 183 -236 552 70 841 639 2190 1047 2482 77 55
123 73 184 74 38 0 49 -5 80 -38z m5168 -459 c-34 -149 -51 -340 -72 -818 -33
-747 -60 -1017 -131 -1298 -64 -256 -168 -423 -304 -486 -47 -22 -69 -26 -150
-26 -86 0 -101 3 -164 33 -134 63 -248 219 -320 438 l-27 82 305 613 c315 633
454 893 617 1156 102 166 251 384 257 378 2 -2 -3 -34 -11 -72z"/>
<path d="M17663 17138 c-6 -7 -18 -49 -28 -93 -58 -272 -200 -734 -355 -1155
-353 -960 -955 -2133 -1268 -2471 -98 -106 -149 -124 -202 -71 -71 72 -75 261
-14 637 103 632 363 1432 800 2466 57 136 104 256 104 267 0 95 -479 244 -790
246 -102 1 -131 -2 -157 -17 -121 -66 -336 -509 -558 -1147 -107 -309 -435
-1102 -626 -1515 -287 -622 -508 -966 -617 -965 -160 2 -151 437 23 1145 139
569 356 1186 706 2011 54 129 99 240 99 248 0 36 -117 99 -280 150 -304 95
-604 122 -696 61 -62 -40 -198 -263 -308 -502 -403 -876 -677 -2089 -617
-2733 59 -641 365 -1027 843 -1065 226 -19 406 86 595 345 100 138 232 383
344 639 l54 123 8 -83 c39 -438 245 -804 530 -944 128 -63 198 -79 337 -79
133 0 203 16 327 74 390 182 821 662 1276 1420 485 810 969 1949 1072 2524 17
94 17 101 0 155 -14 46 -31 69 -94 131 -62 62 -96 85 -181 127 -149 74 -299
106 -327 71z"/>
<path d="M8830 10155 l0 -1535 605 0 605 0 0 185 0 185 -422 2 -423 3 0 525 0
525 358 3 357 2 0 185 0 185 -360 0 -360 0 0 450 0 450 423 2 422 3 3 183 2
182 -605 0 -605 0 0 -1535z"/>
<path d="M10300 10155 l0 -1535 185 0 185 0 1 1043 1 1042 138 -960 c76 -528
144 -997 150 -1042 l12 -83 184 0 c140 0 184 3 185 13 0 6 67 476 148 1042
l149 1030 1 -1042 1 -1043 185 0 185 0 0 1535 0 1535 -275 0 c-151 0 -275 -1
-275 -2 0 -2 -65 -460 -145 -1018 -79 -558 -147 -1035 -150 -1058 -4 -24 -8
-42 -10 -40 -2 2 -69 465 -149 1028 -80 564 -148 1040 -151 1058 l-6 32 -274
0 -275 0 0 -1535z"/>
<path d="M12270 10155 l0 -1535 185 0 185 0 0 720 0 720 134 0 c116 0 146 3
214 25 219 69 392 260 464 510 21 73 23 100 23 310 0 262 -7 302 -77 445 -75
154 -220 270 -398 319 -68 19 -102 21 -402 21 l-328 0 0 -1535z m568 1159
c130 -26 210 -90 254 -203 19 -51 21 -73 19 -234 -1 -154 -5 -186 -23 -235
-27 -72 -102 -153 -177 -189 -48 -24 -71 -28 -163 -32 l-108 -3 0 456 0 456
60 0 c34 0 96 -7 138 -16z"/>
<path d="M13740 10155 l0 -1535 605 0 605 0 0 185 0 185 -420 0 -420 0 0 1350
0 1350 -185 0 -185 0 0 -1535z"/>
<path d="M15573 11670 c-85 -22 -95 -27 -191 -93 -112 -77 -200 -206 -239
-349 -16 -57 -17 -155 -20 -1035 -4 -938 -3 -975 16 -1069 35 -173 118 -300
253 -391 93 -62 160 -88 265 -103 244 -33 490 96 607 320 68 130 67 100 64
1240 l-3 1025 -23 67 c-29 85 -108 204 -175 263 -60 53 -165 107 -253 129 -83
21 -212 19 -301 -4z m262 -369 c49 -23 88 -63 112 -116 17 -38 18 -100 21
-1000 2 -654 -1 -976 -8 -1010 -24 -110 -113 -179 -230 -179 -111 0 -191 54
-226 151 -21 59 -20 1949 1 2019 17 58 63 109 120 135 54 25 157 25 210 0z"/>
<path d="M16500 11658 c5 -18 99 -363 210 -767 l200 -733 0 -769 0 -769 185 0
185 0 0 778 0 777 205 748 c113 411 205 752 205 757 0 7 -65 9 -181 8 l-181
-3 -116 -422 c-64 -233 -119 -417 -123 -410 -4 6 -55 190 -113 407 -59 217
-109 403 -112 413 -5 15 -23 17 -189 17 l-183 0 8 -32z"/>
<path d="M17870 10155 l0 -1535 605 0 605 0 0 185 0 185 -422 2 -423 3 0 525
0 525 358 3 357 2 0 185 0 185 -360 0 -360 0 0 450 0 450 423 2 422 3 3 183 2
182 -605 0 -605 0 0 -1535z"/>
<path d="M19340 10155 l0 -1535 605 0 605 0 0 185 0 185 -422 2 -423 3 0 525
0 525 358 3 357 2 0 185 0 185 -360 0 -360 0 0 450 0 450 423 2 422 3 3 183 2
182 -605 0 -605 0 0 -1535z"/>
<path d="M20800 10863 c0 -713 3 -875 20 -1163 11 -184 23 -354 26 -377 l5
-43 134 0 134 0 5 53 c3 28 10 131 16 227 6 96 15 249 20 340 6 91 10 531 10
978 l0 812 -185 0 -185 0 0 -827z"/>
<path d="M20800 8805 l0 -185 185 0 185 0 0 185 0 185 -185 0 -185 0 0 -185z"/>
<path d="M16826 7595 c-352 -7 -669 -16 -705 -19 -36 -3 -212 -11 -391 -16
-407 -12 -748 -27 -1430 -60 -107 -5 -348 -17 -535 -25 -187 -8 -443 -22 -570
-30 -126 -8 -320 -19 -430 -25 -203 -11 -559 -31 -850 -49 -88 -6 -288 -17
-445 -26 -157 -9 -346 -20 -420 -26 -74 -5 -205 -14 -290 -19 -85 -6 -236 -17
-335 -25 -176 -15 -318 -25 -640 -45 -88 -6 -245 -17 -350 -25 -104 -8 -228
-17 -275 -20 -330 -20 -794 -55 -933 -70 -26 -3 -157 -6 -290 -5 -236 0 -309
6 -582 45 -139 20 -174 15 -252 -39 -97 -66 -130 -193 -84 -317 47 -124 158
-192 385 -233 167 -31 386 -35 721 -12 116 8 289 20 385 26 403 24 505 31 695
45 110 8 310 22 445 30 249 16 629 43 1000 70 211 16 533 37 840 55 96 5 195
12 220 15 25 3 162 12 305 20 581 32 658 36 860 51 206 14 313 20 920 49 165
8 370 19 455 24 206 13 322 18 720 31 184 5 524 17 755 25 1306 46 2922 60
3815 35 344 -10 666 -27 1065 -55 116 -8 251 -17 300 -21 219 -14 634 -55 761
-74 366 -57 515 -82 579 -100 39 -11 120 -31 180 -46 124 -30 270 -86 300
-115 20 -20 20 -20 -6 -43 -67 -58 -673 -168 -1249 -226 -113 -11 -279 -30
-370 -40 -91 -11 -291 -31 -445 -45 -154 -14 -329 -32 -390 -39 -60 -8 -191
-22 -290 -31 -99 -9 -277 -27 -395 -40 -118 -13 -285 -31 -370 -40 -85 -9
-220 -25 -300 -35 -80 -11 -239 -31 -355 -45 -115 -14 -232 -30 -260 -35 -47
-9 -153 -26 -445 -70 -388 -59 -1013 -188 -1310 -270 -286 -80 -317 -89 -432
-134 -300 -116 -502 -263 -575 -415 -104 -221 48 -523 362 -718 246 -153 650
-283 882 -283 132 0 286 54 350 122 48 51 65 130 42 199 -38 113 -152 180
-404 239 -222 52 -257 62 -355 98 -252 92 -295 145 -166 206 144 68 405 145
716 211 41 9 127 27 190 41 255 55 587 117 800 149 124 19 232 36 240 39 8 3
103 17 210 31 107 14 258 34 335 45 77 11 203 26 280 35 132 14 307 33 490 54
44 6 161 17 260 26 99 9 239 23 310 31 116 13 289 30 640 64 61 5 126 12 145
15 19 3 119 14 223 25 170 18 391 42 647 70 440 48 879 135 1210 239 266 83
427 196 505 354 37 75 39 83 39 176 0 91 -2 102 -35 172 -97 203 -348 359
-809 501 -138 43 -179 54 -435 112 -162 37 -381 70 -835 126 -167 21 -775 62
-1160 80 -129 6 -325 15 -435 21 -299 17 -2205 19 -2949 4z"/>
</g>
</svg>
