<?xml version="1.0" standalone="no"?>
<!DOCTYPE svg PUBLIC "-//W3C//DTD SVG 20010904//EN"
 "http://www.w3.org/TR/2001/REC-SVG-20010904/DTD/svg10.dtd">
<svg version="1.0" xmlns="http://www.w3.org/2000/svg"
 width="3000.000000pt" height="3000.000000pt" viewBox="0 0 3000.000000 3000.000000"
 preserveAspectRatio="xMidYMid meet">

<g transform="translate(0.000000,3000.000000) scale(0.100000,-0.100000)"
fill="#000000" stroke="none">
<path d="M6463 22435 c-65 -20 -127 -60 -171 -110 -113 -128 -141 -311 -102
-665 52 -476 31 -967 -50 -1182 -45 -120 -122 -197 -196 -198 -59 0 -122 96
-157 240 -9 36 -30 146 -48 245 -27 157 -31 203 -31 355 0 98 7 230 16 300 47
372 -11 765 -132 893 -82 87 -272 136 -459 117 -189 -19 -316 -73 -423 -180
-119 -118 -163 -245 -164 -465 -1 -198 22 -274 130 -432 107 -156 200 -387
268 -666 19 -78 64 -261 100 -407 124 -506 165 -750 173 -1046 7 -247 -4 -375
-62 -719 -69 -411 -77 -516 -49 -653 43 -214 181 -365 382 -421 275 -76 672 5
860 174 68 62 100 111 133 205 21 58 23 84 23 235 1 116 -5 202 -16 270 -34
199 -47 566 -28 785 34 378 97 682 282 1355 107 393 180 621 247 770 27 61 65
146 85 191 59 131 77 218 83 399 6 178 -8 286 -52 382 -71 156 -248 244 -489
242 -62 0 -130 -6 -153 -14z"/>
<path d="M24350 22439 c-347 -46 -527 -258 -571 -674 -28 -267 48 -556 179
-682 106 -102 204 -129 310 -83 99 43 152 128 233 372 71 216 146 358 189 358
54 0 80 -120 80 -380 0 -373 -19 -775 -70 -1505 -16 -231 -34 -496 -40 -590
-22 -350 -57 -596 -110 -785 -49 -178 -64 -273 -64 -425 0 -154 14 -225 63
-331 69 -149 203 -235 432 -279 111 -21 320 -21 424 0 298 59 455 275 455 625
0 134 -10 204 -60 420 -83 357 -99 514 -165 1580 -50 815 -65 1211 -53 1429 8
140 29 238 53 248 47 18 132 -125 204 -344 83 -251 137 -340 237 -389 108 -53
212 -25 316 84 109 114 167 277 175 490 4 83 1 162 -7 210 -16 104 -72 271
-117 351 -51 92 -161 200 -244 239 -142 68 -111 65 -989 68 -437 1 -824 -2
-860 -7z"/>
<path d="M12165 22426 c-179 -29 -312 -92 -416 -195 -109 -110 -143 -208 -159
-458 -28 -438 -84 -884 -171 -1368 -49 -271 -94 -455 -265 -1090 -273 -1009
-349 -1391 -315 -1591 15 -89 62 -185 109 -224 66 -54 131 -72 287 -77 88 -4
167 -1 212 6 208 36 345 182 393 421 11 59 29 242 45 480 45 681 53 737 108
797 31 35 113 49 204 35 100 -16 147 -43 175 -101 22 -45 22 -52 24 -536 2
-510 7 -589 50 -750 22 -79 66 -171 104 -217 63 -76 226 -126 441 -135 175 -7
303 8 442 54 220 73 329 183 399 403 19 64 23 95 22 205 -1 212 -70 500 -249
1045 -219 667 -321 1052 -450 1710 -62 316 -110 614 -140 872 -30 251 -45 316
-94 423 -71 152 -189 245 -356 280 -107 22 -299 28 -400 11z m58 -1836 c46
-54 90 -225 121 -468 21 -161 21 -271 1 -299 -41 -58 -225 -55 -296 4 l-31 26
4 126 c4 122 51 423 83 532 33 113 69 137 118 79z"/>
<path d="M15753 22426 c-83 -20 -162 -65 -223 -126 -154 -154 -188 -304 -205
-885 -11 -387 -56 -893 -105 -1186 -33 -198 -108 -403 -165 -448 -39 -30 -59
-34 -98 -17 -46 19 -93 112 -106 211 -32 234 -36 509 -15 1290 14 532 -45 825
-200 993 -97 104 -199 143 -439 164 -355 33 -654 -94 -767 -326 -59 -120 -74
-189 -74 -336 0 -216 52 -419 223 -873 186 -494 252 -726 355 -1257 115 -592
130 -705 130 -955 0 -184 -1 -195 -39 -360 -34 -151 -38 -185 -38 -305 -1
-151 14 -222 64 -323 84 -164 278 -260 554 -274 407 -19 762 124 869 351 60
125 69 236 41 461 -48 377 -27 582 115 1154 145 583 292 1066 442 1451 185
474 264 757 287 1019 19 211 -14 340 -116 451 -28 31 -74 68 -102 83 -95 52
-270 71 -388 43z"/>
<path d="M1180 22419 c-119 -24 -226 -115 -273 -232 -46 -114 -60 -221 -54
-407 6 -175 25 -301 76 -501 104 -406 119 -715 65 -1399 -45 -575 -105 -1008
-188 -1349 -52 -212 -69 -345 -70 -526 0 -237 32 -364 118 -470 90 -109 297
-159 500 -120 137 26 237 85 306 183 89 124 104 276 55 537 -89 468 -129 983
-113 1475 9 316 41 492 95 527 21 14 25 13 51 -14 50 -50 105 -231 162 -533
94 -506 108 -892 41 -1165 -75 -306 -66 -597 23 -749 52 -88 188 -188 315
-231 133 -45 224 -57 352 -45 170 16 235 28 314 59 198 77 312 209 366 422 29
112 22 225 -25 414 -79 321 -81 489 -10 945 88 573 180 873 261 858 98 -18
145 -716 84 -1243 -21 -177 -46 -335 -97 -610 -34 -185 -42 -366 -20 -459 33
-141 110 -248 229 -319 83 -50 172 -70 304 -65 97 3 115 6 175 35 110 52 210
161 258 283 48 122 63 338 36 520 -8 52 -35 174 -60 270 -74 289 -89 400 -131
940 -63 824 -71 1103 -41 1387 19 181 35 265 86 476 56 227 73 347 73 527 -1
370 -99 534 -347 581 -67 12 -585 11 -666 -2 -86 -14 -186 -68 -250 -135 -98
-103 -136 -225 -175 -549 -44 -374 -184 -867 -266 -941 -27 -25 -45 -12 -86
63 -83 151 -146 519 -173 1003 -14 256 -44 345 -149 444 -56 51 -129 89 -207
107 -61 14 -880 21 -944 8z"/>
<path d="M9555 22421 c-574 -6 -556 -5 -658 -64 -59 -35 -104 -88 -137 -162
-48 -107 -55 -153 -55 -380 1 -224 8 -282 65 -520 89 -375 114 -588 107 -895
-9 -350 -79 -964 -182 -1580 -37 -224 -63 -429 -76 -615 -28 -396 24 -566 209
-688 142 -94 286 -123 557 -113 271 9 396 46 493 143 88 88 126 205 125 383
-1 135 -14 229 -68 475 -95 439 -128 718 -129 1105 -1 316 4 353 56 400 62 57
140 59 333 5 161 -45 245 -30 319 56 65 76 80 133 81 300 l0 146 -35 68 c-26
52 -47 78 -84 104 -70 50 -135 53 -339 12 -173 -34 -222 -38 -271 -17 -75 31
-104 110 -118 325 -21 313 20 604 104 747 51 87 225 139 383 114 174 -28 240
-102 331 -376 85 -259 148 -365 247 -415 138 -71 315 26 407 224 60 130 81
228 87 407 8 239 -29 428 -118 601 -51 98 -94 147 -160 184 l-54 30 -445 1
c-245 0 -683 -2 -975 -5z"/>
<path d="M17544 22419 c-134 -22 -324 -101 -455 -189 -78 -53 -277 -250 -347
-345 -212 -287 -377 -714 -451 -1165 -82 -497 -78 -1192 10 -1705 92 -539 320
-1021 613 -1291 259 -240 581 -354 892 -314 643 81 1086 641 1243 1575 67 398
85 1051 41 1485 -59 580 -225 1069 -479 1410 -77 103 -221 251 -311 319 -229
173 -525 259 -756 220z m112 -535 c165 -107 313 -563 363 -1124 16 -167 13
-571 -4 -730 -36 -344 -105 -551 -204 -617 -43 -29 -73 -29 -136 1 -106 49
-185 180 -255 421 -54 189 -94 410 -122 685 -20 197 -17 708 5 848 48 301 122
469 232 526 43 22 75 20 121 -10z"/>
<path d="M19595 22421 c-143 -37 -247 -157 -292 -337 -13 -53 -17 -112 -17
-254 0 -209 9 -277 79 -565 81 -331 106 -628 87 -1019 -25 -516 -85 -1023
-186 -1581 -54 -297 -69 -434 -70 -615 0 -186 13 -261 65 -368 98 -202 338
-299 672 -272 358 29 587 165 668 396 49 138 43 309 -21 624 -52 255 -63 351
-64 550 0 128 3 180 17 230 21 78 63 149 99 169 62 35 132 -42 183 -202 72
-224 88 -492 48 -782 -33 -231 -34 -249 -34 -394 1 -208 39 -337 131 -435 58
-63 103 -91 194 -120 117 -39 209 -48 360 -36 266 21 416 71 527 177 111 106
159 249 159 475 -1 386 -122 812 -451 1581 -50 117 -97 222 -104 234 -13 20
-9 26 69 105 171 171 282 395 331 668 23 128 31 425 16 576 -37 357 -149 630
-345 833 -181 187 -369 282 -671 338 l-140 26 -640 3 c-352 1 -653 -1 -670 -5z
m1270 -685 c63 -29 144 -115 184 -195 110 -218 102 -635 -17 -880 -73 -150
-177 -217 -303 -193 -120 22 -199 95 -259 239 -57 136 -74 242 -74 458 -1 212
11 278 67 394 82 168 257 245 402 177z"/>
<path d="M22873 22416 c-184 -35 -286 -95 -365 -212 -27 -40 -56 -100 -70
-144 -20 -67 -23 -95 -23 -260 0 -204 2 -219 71 -433 110 -342 120 -499 74
-1157 -11 -151 -31 -453 -45 -670 -35 -549 -53 -694 -120 -980 -54 -233 -69
-348 -69 -520 0 -170 12 -237 63 -345 58 -123 149 -197 301 -246 171 -55 371
-49 585 18 215 67 347 196 401 393 14 49 18 100 18 210 -1 156 -20 284 -74
500 -60 237 -81 409 -110 890 -11 190 -32 523 -47 740 -15 222 -26 487 -26
605 -1 249 12 326 98 580 66 196 79 282 73 468 -4 116 -10 156 -31 219 -58
179 -171 285 -357 333 -87 23 -257 28 -347 11z"/>
<path d="M27035 22420 c-148 -20 -249 -90 -310 -213 -55 -114 -69 -208 -62
-421 6 -191 18 -265 91 -586 68 -295 80 -402 80 -710 0 -187 -5 -323 -17 -425
-9 -82 -30 -283 -47 -445 -40 -385 -72 -630 -120 -925 -62 -375 -73 -482 -73
-685 -1 -209 13 -294 63 -396 57 -116 154 -180 309 -205 46 -7 329 -9 857 -6
866 4 880 5 1025 66 85 36 183 105 239 168 67 76 169 235 204 320 49 116 64
196 76 421 22 401 -29 719 -159 987 -64 131 -121 211 -173 243 -49 30 -179 55
-252 50 -118 -10 -194 -62 -310 -213 -79 -102 -108 -149 -191 -312 -85 -166
-152 -245 -227 -268 -72 -21 -203 -20 -248 3 -88 43 -116 191 -107 547 14 509
92 604 420 516 211 -56 272 -53 346 19 84 82 115 185 109 360 -4 129 -24 189
-81 248 -80 84 -161 94 -372 47 -159 -35 -249 -38 -291 -8 -95 68 -141 289
-131 632 6 191 18 266 58 368 51 128 202 194 413 180 203 -13 283 -99 382
-409 93 -291 191 -408 344 -408 247 0 427 375 390 812 -14 166 -48 298 -109
423 -53 109 -105 171 -173 207 l-43 23 -925 1 c-509 1 -952 -2 -985 -6z"/>
<path d="M11733 16866 c-118 -29 -237 -114 -303 -216 -103 -161 -115 -415 -38
-820 11 -58 28 -152 39 -210 29 -152 36 -453 15 -582 -21 -130 -69 -276 -109
-334 -60 -87 -161 -117 -253 -75 -75 34 -142 141 -171 274 -29 132 -18 465 22
692 43 235 49 590 16 785 -44 254 -98 353 -224 415 -105 51 -174 66 -307 66
-237 -1 -386 -55 -521 -190 -120 -121 -166 -236 -176 -441 -11 -239 27 -379
202 -740 309 -638 374 -938 375 -1725 0 -396 -20 -628 -90 -1040 -71 -417 -76
-568 -25 -720 35 -106 67 -158 136 -227 64 -63 166 -118 269 -145 91 -24 370
-24 493 0 162 33 329 105 438 191 183 144 238 434 150 790 -39 154 -51 238
-51 351 0 235 86 665 146 730 51 56 85 22 128 -129 35 -120 75 -349 82 -475 8
-128 -5 -244 -47 -411 -62 -254 -79 -553 -39 -683 38 -122 123 -214 271 -292
115 -60 241 -88 394 -89 241 0 407 38 536 122 135 89 213 200 261 369 29 104
28 300 -1 498 -63 419 -71 515 -71 898 0 351 12 572 41 782 38 270 70 371 261
819 225 530 290 783 291 1131 0 131 -4 176 -22 249 -41 170 -121 280 -249 343
-73 36 -81 38 -194 42 -98 2 -129 0 -186 -18 -179 -54 -304 -197 -364 -416
-21 -78 -22 -96 -23 -630 -1 -465 -3 -569 -18 -675 -41 -295 -95 -460 -166
-507 -124 -84 -303 64 -367 302 -25 93 -29 278 -10 445 21 177 46 298 96 455
107 337 118 633 31 810 -58 118 -178 200 -335 230 -93 18 -261 18 -333 1z"/>
<path d="M4940 16855 c-444 -81 -837 -444 -1070 -989 -140 -328 -224 -671
-266 -1096 -25 -245 -25 -843 -1 -1090 51 -517 144 -868 323 -1221 134 -265
310 -482 501 -619 114 -81 285 -164 409 -197 87 -23 118 -26 259 -27 141 0
173 3 265 26 490 124 829 487 1047 1123 181 526 241 1429 147 2195 -71 584
-285 1117 -582 1455 -294 335 -688 502 -1032 440z m129 -553 c138 -86 275
-434 345 -872 48 -304 65 -782 37 -1045 -43 -408 -129 -646 -245 -685 -94 -31
-218 62 -294 220 -96 200 -171 532 -214 940 -18 171 -18 754 0 875 52 348 145
548 270 585 32 9 68 3 101 -18z"/>
<path d="M15110 16855 c-267 -49 -536 -212 -735 -444 -330 -388 -531 -933
-601 -1641 -25 -245 -25 -843 -1 -1090 51 -517 144 -868 323 -1221 134 -265
310 -482 501 -619 114 -81 285 -164 409 -197 86 -23 119 -26 254 -27 92 0 179
5 215 12 260 56 459 165 650 357 195 194 333 433 452 780 163 476 231 1282
168 2002 -62 700 -270 1270 -603 1648 -294 335 -688 502 -1032 440z m129 -553
c138 -86 275 -434 345 -872 48 -304 65 -782 37 -1045 -43 -406 -129 -646 -245
-685 -94 -31 -218 62 -294 220 -96 200 -171 532 -214 940 -18 171 -18 754 0
875 52 348 145 548 270 585 32 9 68 3 101 -18z"/>
<path d="M17265 16861 c-154 -38 -269 -177 -311 -376 -36 -169 -19 -460 40
-710 13 -55 35 -149 50 -210 54 -227 70 -398 70 -755 0 -524 -66 -1172 -188
-1845 -91 -496 -105 -747 -56 -940 50 -194 174 -320 370 -374 124 -35 227 -43
376 -31 261 21 443 89 570 215 183 181 208 410 99 893 -39 172 -57 342 -58
532 -1 226 19 309 94 395 58 66 118 37 178 -87 99 -204 138 -553 96 -858 -38
-283 -47 -396 -42 -520 15 -325 126 -477 402 -551 143 -39 452 -23 633 32 99
31 174 74 239 139 70 69 104 129 135 235 33 115 32 391 -1 580 -61 347 -183
717 -431 1300 -40 94 -87 200 -105 236 l-33 65 63 57 c168 150 306 408 359
667 40 197 49 511 21 727 -82 626 -426 1028 -980 1143 -212 45 -316 50 -955
49 -333 -1 -618 -4 -635 -8z m1333 -722 c192 -95 293 -377 262 -729 -21 -249
-72 -397 -174 -508 -60 -65 -107 -87 -192 -86 -194 0 -324 165 -379 479 -21
119 -22 383 -2 485 40 198 129 326 259 371 82 28 153 25 226 -12z"/>
<path d="M23875 16860 c-292 -33 -420 -251 -402 -680 7 -152 27 -277 86 -530
47 -204 76 -370 92 -529 15 -141 6 -549 -15 -746 -8 -77 -29 -273 -46 -435
-42 -407 -73 -649 -125 -965 -66 -408 -79 -526 -79 -735 0 -137 5 -204 17
-260 23 -104 76 -211 118 -240 19 -13 49 -36 67 -52 17 -15 65 -38 105 -50
l72 -23 845 0 c901 0 935 2 1087 50 182 58 346 213 472 445 69 129 99 238 111
396 15 204 12 475 -5 611 -41 319 -154 618 -285 754 -71 74 -129 94 -280 94
-95 0 -110 -3 -156 -27 -69 -36 -104 -67 -173 -152 -82 -100 -159 -222 -223
-352 -64 -130 -100 -184 -160 -240 -50 -48 -87 -62 -183 -71 -103 -8 -177 15
-211 66 -43 66 -54 130 -61 356 -11 381 33 633 122 703 62 49 158 53 305 12
125 -34 223 -51 262 -45 53 9 122 58 158 113 82 124 101 362 39 501 -24 55
-80 115 -131 142 -53 27 -153 25 -296 -7 -73 -17 -151 -27 -209 -28 -89 -1
-92 0 -123 29 -95 90 -138 312 -127 659 8 252 46 394 124 468 69 66 215 104
362 95 217 -13 299 -99 407 -425 84 -256 148 -357 257 -408 74 -34 138 -32
215 7 123 61 216 204 269 414 25 100 27 126 27 290 0 129 -5 205 -17 267 -50
250 -156 444 -279 510 l-43 23 -960 1 c-528 1 -991 -2 -1030 -6z"/>
<path d="M26835 16861 c-154 -38 -269 -177 -311 -376 -36 -169 -19 -460 40
-710 13 -55 35 -149 50 -210 54 -227 70 -398 70 -755 0 -340 -10 -509 -60
-965 -28 -259 -79 -608 -124 -855 -98 -531 -112 -805 -51 -1000 32 -101 30
-100 103 -52 140 91 360 162 504 162 80 0 222 -29 292 -60 112 -50 233 -168
276 -270 l12 -30 47 31 c25 17 69 55 96 85 160 174 180 411 76 872 -39 172
-57 342 -58 532 -1 226 19 309 94 395 58 66 118 37 178 -87 99 -204 138 -553
96 -858 -38 -283 -47 -396 -42 -520 15 -325 126 -477 402 -551 145 -39 451
-23 635 33 97 30 173 74 237 138 70 69 104 129 135 235 33 115 32 391 -1 580
-61 347 -183 717 -431 1300 -40 94 -87 200 -105 236 l-33 65 63 57 c168 150
306 408 359 667 40 197 49 511 21 727 -82 626 -426 1028 -980 1143 -212 45
-316 50 -955 49 -333 -1 -618 -4 -635 -8z m1333 -722 c192 -95 293 -377 262
-729 -21 -249 -72 -397 -174 -508 -60 -65 -107 -87 -192 -86 -194 0 -324 165
-379 479 -21 119 -22 383 -2 485 40 198 129 326 259 371 82 28 153 25 226 -12z"/>
<path d="M2014 16845 c-202 -23 -478 -128 -651 -247 -334 -230 -580 -690 -712
-1328 -84 -408 -125 -922 -102 -1290 61 -986 276 -1617 683 -2006 290 -276
620 -385 1075 -355 322 22 537 90 711 225 165 128 362 409 432 615 48 145 67
542 35 740 -35 214 -112 429 -210 586 -68 110 -108 140 -222 166 -202 47 -326
0 -452 -169 -73 -99 -124 -202 -170 -339 -64 -195 -96 -245 -173 -278 -93 -38
-202 -8 -261 73 -112 154 -234 535 -291 907 -84 553 -58 1262 60 1613 55 165
152 315 227 351 79 38 187 55 273 42 181 -27 260 -116 359 -401 106 -305 206
-420 367 -420 67 0 92 10 175 67 142 99 218 290 216 548 -1 165 -20 253 -83
382 -128 260 -366 433 -695 505 -120 26 -421 33 -591 13z"/>
<path d="M20700 16843 c-70 -12 -181 -48 -233 -75 -116 -62 -211 -197 -243
-348 -20 -92 -23 -312 -5 -425 7 -44 37 -156 67 -248 87 -268 98 -348 98 -687
-1 -219 -8 -384 -32 -710 -18 -234 -36 -510 -42 -615 -20 -363 -56 -655 -106
-870 -78 -335 -101 -506 -90 -667 12 -178 61 -314 148 -413 53 -60 200 -138
300 -159 85 -18 154 -21 162 -7 3 4 10 53 16 107 16 145 29 204 56 251 42 73
160 122 261 108 92 -13 283 -65 350 -95 37 -17 72 -29 78 -26 19 7 55 132 64
225 14 136 -7 331 -64 581 -41 179 -58 332 -59 525 0 221 10 260 90 343 l52
54 65 -4 c120 -7 188 -85 222 -257 24 -117 16 -424 -14 -558 -50 -222 -61
-285 -72 -408 -20 -228 4 -408 72 -536 20 -38 60 -86 105 -128 134 -125 285
-178 539 -188 163 -6 313 14 355 47 66 53 160 111 210 129 49 18 61 28 97 84
94 143 121 306 104 631 -17 324 -55 567 -126 800 -163 537 -444 919 -839 1142
-100 55 -120 82 -120 160 -1 96 84 237 377 629 66 88 140 184 165 214 80 94
266 346 307 417 90 153 133 288 142 449 9 167 -32 290 -126 378 -97 91 -229
138 -389 139 -156 2 -254 -35 -361 -136 -148 -140 -238 -359 -300 -726 -46
-273 -104 -463 -219 -718 -148 -326 -353 -584 -432 -542 -40 21 -55 108 -55
320 0 271 29 465 106 699 66 204 74 252 74 466 0 151 -4 203 -18 254 -58 211
-192 338 -404 385 -67 15 -266 20 -333 9z"/>
<path d="M7169 14865 c-133 -27 -256 -111 -308 -212 -61 -120 -87 -341 -57
-482 43 -204 156 -321 353 -367 52 -12 102 -15 218 -11 159 5 237 20 365 73
85 34 192 61 297 74 135 17 290 -9 479 -81 150 -56 250 -72 419 -66 192 6 286
40 383 138 87 88 127 212 126 394 0 245 -82 413 -241 494 -112 56 -283 75
-460 50 -43 -6 -146 -32 -228 -59 -333 -107 -473 -108 -781 -5 -72 25 -171 51
-219 60 -105 18 -255 18 -346 0z"/>
<path d="M26931 11845 c-35 -8 -110 -37 -165 -64 -489 -240 -811 -931 -843
-1808 l-6 -183 130 0 131 0 68 46 c212 144 570 476 735 684 301 378 450 697
453 975 1 99 -2 115 -25 165 -35 72 -90 126 -168 163 -53 25 -78 30 -155 33
-56 2 -116 -2 -155 -11z"/>
<path d="M20990 11811 c0 -108 -41 -295 -103 -477 -67 -195 -145 -366 -377
-834 -130 -261 -262 -534 -294 -605 -65 -145 -159 -277 -325 -455 -224 -241
-345 -237 -311 12 27 197 133 484 362 981 l91 197 164 0 c179 0 214 8 251 55
45 57 37 137 -19 191 -29 28 -34 29 -145 32 -63 2 -114 5 -114 6 0 1 29 65 64
142 113 248 135 332 100 382 -20 28 -74 56 -143 72 -76 18 -279 8 -351 -17
-53 -19 -55 -22 -63 -64 -22 -124 -88 -317 -158 -464 l-24 -50 -220 -5 c-155
-4 -227 -9 -243 -18 -59 -33 -81 -136 -43 -198 32 -53 71 -64 230 -64 78 0
141 -4 141 -8 0 -5 -49 -110 -110 -234 -397 -819 -533 -1250 -476 -1517 37
-176 149 -267 356 -293 72 -9 94 -9 140 5 149 44 327 215 597 573 l22 29 0
-51 c2 -128 52 -265 131 -356 75 -86 220 -166 332 -183 l46 -7 7 48 c53 414
133 695 278 979 130 255 324 481 482 562 100 52 195 72 231 48 20 -13 24 -23
24 -68 0 -99 -31 -187 -208 -582 -226 -508 -245 -573 -208 -713 39 -144 144
-238 295 -264 89 -15 149 2 254 72 75 50 250 223 322 318 l40 53 6 -88 c7 -99
24 -153 68 -216 77 -112 240 -172 359 -133 122 41 279 178 455 396 55 69 103
126 107 128 4 1 12 -23 19 -53 18 -81 92 -221 151 -287 88 -99 229 -177 375
-209 88 -20 314 -17 395 5 170 45 285 110 390 223 226 242 262 644 89 1012
-21 46 -84 159 -139 251 -96 160 -130 231 -130 271 0 17 2 17 35 3 96 -40 178
18 160 113 -24 129 -124 200 -269 191 -91 -6 -153 -39 -199 -105 -18 -26 -146
-181 -284 -347 -219 -261 -261 -306 -315 -339 -87 -52 -161 -135 -211 -236
-34 -68 -61 -104 -137 -181 -53 -54 -120 -111 -150 -129 -88 -50 -120 -40
-120 40 0 92 62 248 277 694 141 292 193 411 193 442 0 90 -164 154 -355 139
-143 -12 -225 -41 -225 -80 0 -65 -80 -286 -245 -675 -71 -167 -85 -193 -153
-275 -98 -118 -229 -248 -288 -286 -51 -32 -98 -39 -107 -15 -11 28 23 127
114 328 106 234 161 393 185 527 44 252 -37 436 -219 500 -135 48 -301 33
-456 -41 -119 -56 -200 -117 -318 -236 l-103 -104 39 83 c21 46 102 217 179
380 144 303 209 450 244 548 59 165 86 305 67 343 -34 65 -128 129 -260 175
-67 24 -201 52 -245 52 -2 0 -4 -18 -4 -39z m2958 -1771 c122 -295 152 -402
152 -528 -1 -100 -55 -179 -153 -222 -107 -47 -218 -33 -291 37 -60 58 -71 87
-71 183 0 102 25 166 99 248 69 78 60 120 -30 144 -24 7 -44 15 -44 18 0 8
251 322 254 318 2 -1 40 -91 84 -198z"/>
<path d="M23165 11577 c-64 -22 -105 -46 -156 -94 -97 -91 -150 -208 -152
-333 -4 -268 271 -356 480 -153 221 215 176 571 -74 589 -33 2 -75 -2 -98 -9z"/>
<path d="M9995 10666 c-348 -67 -686 -346 -886 -731 -75 -143 -158 -255 -279
-375 -147 -146 -256 -207 -350 -197 -52 6 -83 36 -99 95 -22 78 -15 111 63
273 90 189 171 375 292 672 l93 227 -174 0 -173 0 -31 -35 c-120 -137 -261
-421 -335 -673 -32 -108 -66 -267 -66 -308 0 -38 -58 -120 -161 -228 -111
-118 -199 -163 -244 -126 -36 30 -11 170 104 575 118 419 150 599 117 663 -34
65 -176 117 -356 128 l-97 7 -6 -33 c-4 -18 -7 -46 -7 -62 0 -74 -57 -302
-132 -527 -73 -220 -87 -252 -131 -310 -136 -181 -312 -363 -387 -401 -24 -12
-55 -20 -73 -18 -29 3 -32 7 -35 40 -7 77 68 245 303 683 180 335 191 373 131
430 -36 34 -109 59 -207 70 -68 7 -213 -10 -283 -34 -50 -17 -51 -18 -58 -66
-4 -27 -14 -69 -23 -93 l-17 -43 -42 74 c-143 251 -289 344 -478 307 -273 -53
-594 -363 -801 -775 -67 -132 -183 -282 -341 -441 -114 -114 -172 -154 -225
-154 -92 0 -32 171 233 663 161 301 187 356 194 414 4 39 2 46 -31 76 -67 64
-254 90 -418 58 -97 -19 -125 -39 -132 -94 -4 -25 -14 -64 -23 -86 l-16 -42
-46 81 c-112 199 -252 310 -389 310 -151 0 -332 -92 -501 -254 -517 -496 -768
-1412 -477 -1735 70 -77 225 -132 331 -117 109 15 259 118 447 307 70 70 127
125 127 120 0 -4 -40 -88 -89 -187 -176 -353 -336 -551 -520 -642 -65 -32 -84
-37 -168 -40 -117 -5 -190 8 -317 59 -54 22 -111 39 -125 37 -52 -6 -64 -85
-35 -226 32 -156 108 -305 207 -407 188 -190 448 -190 687 2 159 127 260 276
472 699 l162 321 65 -4 c122 -9 215 42 381 207 63 63 158 171 210 239 52 68
102 132 110 143 14 17 15 6 15 -114 1 -195 34 -305 119 -396 70 -74 188 -122
303 -122 108 0 265 101 459 295 l142 141 7 -60 c11 -100 41 -164 110 -233 53
-53 71 -64 134 -83 98 -30 176 -24 257 19 126 67 284 225 460 459 47 61 86
112 87 112 1 0 2 -51 2 -113 1 -136 25 -225 85 -315 132 -197 364 -228 587
-79 120 80 277 250 395 427 14 21 19 23 35 13 67 -45 77 -48 178 -47 203 3
362 72 569 246 l39 32 -7 -69 c-21 -216 57 -451 191 -581 54 -51 179 -116 266
-138 195 -50 492 -18 712 77 290 124 561 373 805 737 107 161 261 420 255 429
-11 18 -75 41 -115 41 -51 0 -55 -4 -192 -190 -201 -271 -424 -466 -621 -542
-149 -58 -367 -84 -490 -59 -125 27 -197 124 -205 279 -3 47 -1 83 4 80 5 -2
38 -18 74 -36 109 -53 197 -63 328 -36 302 61 565 310 652 616 27 94 36 251
20 346 -25 153 -124 285 -248 333 -72 28 -251 35 -357 15z m204 -412 c40 -51
18 -196 -45 -295 -100 -159 -308 -275 -546 -303 -59 -7 -59 -4 -17 104 57 149
181 308 317 408 147 108 250 139 291 86z m-5978 -135 c24 -25 29 -40 29 -80 0
-222 -354 -764 -570 -874 -62 -32 -100 -32 -137 -1 -83 70 -66 242 46 471 148
301 378 513 559 515 36 0 49 -5 73 -31z m2071 2 c30 -27 33 -34 32 -88 -2
-228 -349 -759 -567 -868 -89 -44 -143 -28 -173 51 -59 154 84 507 300 741 75
81 148 134 232 168 83 34 135 33 176 -4z"/>
<path d="M13862 10670 c-78 -14 -191 -61 -279 -116 -93 -57 -295 -255 -367
-359 -27 -38 -52 -74 -56 -78 -4 -5 9 41 30 102 46 135 59 235 36 279 -34 65
-180 118 -358 129 l-96 6 -6 -49 c-20 -160 -85 -354 -233 -694 -198 -455 -243
-597 -243 -759 0 -136 45 -258 131 -355 83 -93 211 -163 330 -181 l46 -7 12
104 c70 585 313 1133 621 1395 84 72 189 128 269 143 69 13 96 5 112 -32 28
-68 -17 -204 -208 -633 -204 -455 -232 -541 -213 -643 14 -80 55 -154 115
-211 60 -57 111 -85 192 -106 94 -25 87 -34 111 138 27 192 80 408 134 546 79
204 190 437 256 536 93 142 250 297 357 352 102 53 195 72 232 48 24 -16 25
-21 21 -84 -7 -87 -47 -204 -159 -457 -275 -624 -288 -665 -258 -806 25 -115
97 -205 204 -255 48 -22 75 -27 135 -27 65 -1 83 4 136 31 156 81 317 248 551
570 l59 82 11 -117 c26 -269 128 -439 318 -533 100 -49 169 -66 293 -75 172
-11 390 27 557 99 290 124 561 373 805 737 107 161 261 420 255 429 -11 18
-75 41 -115 41 -51 0 -55 -4 -192 -190 -110 -148 -281 -328 -391 -411 -98 -74
-236 -141 -347 -169 -106 -27 -292 -37 -373 -21 -125 27 -197 124 -205 279 -3
47 -1 83 4 80 5 -2 38 -18 74 -36 109 -53 197 -63 328 -36 302 61 565 310 652
616 27 94 36 251 20 346 -25 152 -123 284 -248 334 -50 20 -74 23 -197 22
-114 0 -156 -4 -225 -23 -190 -51 -370 -160 -530 -321 -125 -125 -217 -252
-301 -415 -75 -145 -202 -309 -368 -476 -115 -116 -177 -159 -226 -159 -21 0
-25 5 -25 30 0 44 23 104 126 332 109 239 156 374 180 508 53 307 -75 501
-349 526 -188 17 -381 -62 -578 -237 l-67 -59 -10 60 c-22 120 -70 176 -182
211 -75 23 -229 33 -308 19z m2907 -416 c40 -51 18 -196 -44 -294 -101 -160
-310 -276 -547 -304 -59 -7 -59 -4 -17 104 57 149 181 308 317 408 147 108
250 139 291 86z"/>
<path d="M25773 9486 c-135 -31 -286 -139 -364 -259 -58 -89 -83 -175 -84
-282 0 -82 3 -96 33 -157 125 -255 478 -263 723 -17 288 288 187 704 -176 725
-40 2 -97 -2 -132 -10z"/>
</g>
</svg>
