<?xml version="1.0" standalone="no"?>
<!DOCTYPE svg PUBLIC "-//W3C//DTD SVG 20010904//EN"
 "http://www.w3.org/TR/2001/REC-SVG-20010904/DTD/svg10.dtd">
<svg version="1.0" xmlns="http://www.w3.org/2000/svg"
 width="3000.000000pt" height="3000.000000pt" viewBox="0 0 3000.000000 3000.000000"
 preserveAspectRatio="xMidYMid meet">

<g transform="translate(0.000000,3000.000000) scale(0.100000,-0.100000)"
fill="#000000" stroke="none">
<path d="M15487 27776 c-89 -33 -201 -148 -324 -331 -451 -674 -1075 -2329
-1623 -4305 -36 -128 -60 -196 -78 -220 -47 -63 -195 -211 -272 -273 -72 -58
-221 -159 -227 -154 -1 2 18 93 42 202 116 525 164 967 136 1245 -70 681 -462
1081 -1120 1141 -477 44 -897 -124 -1281 -510 -455 -459 -796 -1175 -956
-2006 l-27 -139 -79 -131 c-216 -353 -483 -691 -773 -980 -448 -448 -883 -686
-1252 -685 -184 1 -313 50 -428 165 -164 164 -224 384 -212 779 25 803 296
1744 771 2671 578 1129 1309 1902 1825 1931 95 6 120 -2 155 -49 37 -50 18
-198 -56 -427 -130 -402 -399 -905 -906 -1690 -236 -365 -361 -566 -399 -638
-32 -62 -42 -102 -25 -102 15 0 165 95 287 182 478 340 982 816 1282 1210 247
327 413 658 470 945 25 129 23 365 -5 499 -57 268 -170 496 -329 665 -273 289
-701 407 -1158 318 -444 -85 -914 -378 -1342 -835 -1191 -1271 -1941 -3528
-1663 -5005 84 -444 251 -797 499 -1051 193 -199 397 -313 664 -370 135 -29
402 -31 552 -4 490 88 951 358 1412 829 221 226 402 450 576 714 45 67 82 121
83 120 2 -2 10 -50 19 -107 52 -355 185 -634 401 -841 160 -153 333 -241 579
-295 112 -24 398 -24 510 0 204 45 389 126 555 244 115 81 330 293 430 422
166 216 314 462 462 767 l89 182 92 44 c153 73 341 200 416 281 14 14 28 26
31 26 4 0 -13 -80 -36 -177 -104 -426 -231 -1020 -309 -1453 -127 -701 -187
-1224 -188 -1640 -1 -209 1 -247 21 -340 62 -283 210 -491 426 -595 207 -100
400 -96 586 12 91 53 252 216 329 333 231 348 385 853 423 1383 29 400 -49
776 -192 931 l-39 42 72 12 c87 15 206 72 298 141 91 69 260 247 352 370 42
57 77 100 77 96 0 -4 -24 -127 -54 -274 -155 -758 -246 -1392 -277 -1916 -19
-331 3 -544 76 -722 73 -181 208 -330 369 -408 207 -100 400 -96 586 12 91 53
252 216 329 333 200 301 350 742 406 1190 61 498 -8 942 -175 1124 l-39 42 70
12 c138 24 266 100 423 251 143 140 316 363 421 544 30 52 45 49 45 -6 0 -47
39 -223 71 -326 42 -131 124 -298 199 -403 75 -106 228 -256 330 -325 214
-144 444 -219 748 -245 303 -26 546 39 812 217 287 192 595 554 830 977 36 65
68 117 73 118 4 0 7 -9 7 -21 0 -39 41 -222 71 -318 42 -131 124 -298 199
-403 75 -106 228 -256 330 -325 224 -151 487 -232 803 -249 271 -15 508 55
757 221 521 348 1028 1168 1374 2220 172 523 270 1015 203 1015 -28 0 -87 -53
-134 -122 -71 -102 -148 -249 -392 -743 -116 -236 -246 -493 -288 -570 -427
-784 -789 -1187 -1173 -1306 -58 -18 -99 -24 -180 -24 -95 0 -110 3 -162 28
-147 72 -255 275 -288 541 -23 179 4 551 55 773 l5 21 85 -29 c130 -44 237
-55 397 -41 410 37 737 188 1006 466 254 263 404 587 458 991 20 148 14 329
-16 477 -100 490 -396 846 -782 938 -596 142 -1224 -275 -1723 -1144 -165
-288 -334 -683 -431 -1006 -28 -94 -67 -185 -156 -363 -500 -1002 -904 -1494
-1338 -1628 -58 -18 -99 -24 -180 -24 -95 0 -110 3 -162 28 -147 72 -255 275
-288 541 -23 179 4 551 55 773 l5 21 85 -29 c130 -44 237 -55 397 -41 410 37
737 188 1006 466 254 263 404 587 458 991 20 148 14 329 -16 477 -100 490
-396 846 -782 938 -541 129 -1110 -201 -1583 -920 -252 -382 -465 -853 -595
-1315 -46 -163 -94 -265 -274 -578 -381 -665 -699 -1015 -999 -1102 -32 -9
-60 -15 -63 -12 -7 6 51 275 106 496 221 879 662 2201 1098 3291 359 898 715
1625 982 2003 84 120 222 263 282 293 26 13 49 28 53 34 27 43 -68 155 -210
249 -275 181 -731 325 -892 282 -91 -25 -211 -143 -340 -336 -451 -675 -1077
-2333 -1623 -4304 -68 -246 -73 -260 -161 -430 -515 -991 -892 -1462 -1252
-1566 -32 -9 -60 -15 -63 -12 -7 6 51 275 106 496 221 879 662 2201 1098 3291
359 898 715 1625 982 2003 84 120 222 263 282 293 57 29 61 36 52 76 -16 75
-193 213 -409 318 -268 131 -596 208 -708 166z m-3247 -3345 c61 -63 75 -131
74 -351 0 -193 -14 -329 -60 -580 -57 -310 -152 -687 -256 -1010 l-54 -165
-129 -6 c-119 -5 -135 -7 -183 -34 -68 -37 -116 -91 -156 -174 -28 -59 -31
-75 -31 -161 0 -79 4 -102 22 -137 33 -60 87 -101 155 -115 l56 -12 -48 -95
c-185 -369 -414 -635 -589 -688 -135 -40 -227 13 -274 162 -20 64 -22 89 -21
285 1 185 5 236 28 364 107 605 331 1272 627 1866 290 582 551 887 758 890 38
0 49 -5 81 -39z m7626 -136 c101 -70 73 -358 -60 -623 -195 -388 -669 -858
-1055 -1046 -85 -41 -195 -76 -206 -64 -8 8 99 315 151 433 256 584 655 1110
964 1270 84 44 170 56 206 30z m3070 0 c101 -70 73 -358 -60 -623 -195 -388
-669 -858 -1055 -1046 -85 -41 -195 -76 -206 -64 -8 8 99 315 151 433 256 584
655 1110 964 1270 84 44 170 56 206 30z m-8899 -3777 c64 -70 78 -152 77 -433
-2 -657 -215 -1422 -409 -1471 -33 -8 -50 -1 -72 33 -28 42 -25 327 6 528 64
428 230 1117 315 1309 28 63 49 71 83 34z m2020 0 c64 -70 78 -152 77 -433 -2
-657 -215 -1422 -409 -1471 -33 -8 -50 -1 -72 33 -28 42 -25 327 6 528 64 428
230 1117 315 1309 28 63 49 71 83 34z"/>
<path d="M9967 19604 c-4 -4 -7 -767 -7 -1696 l0 -1688 205 0 205 0 -2 1693
-3 1692 -196 3 c-107 1 -198 -1 -202 -4z"/>
<path d="M11265 19604 c-243 -33 -436 -170 -539 -380 -56 -113 -61 -155 -61
-464 0 -318 7 -373 70 -522 63 -149 187 -288 375 -418 264 -184 348 -262 409
-380 63 -121 73 -180 69 -420 -3 -205 -3 -205 -32 -257 -33 -59 -82 -98 -152
-119 -61 -18 -98 -18 -163 2 -64 19 -127 73 -155 134 -18 40 -21 69 -24 253
l-4 207 -199 0 -199 0 0 -197 c0 -155 4 -218 19 -290 36 -172 131 -312 281
-412 343 -230 788 -108 966 264 52 108 64 193 64 450 0 303 -25 444 -110 612
-85 167 -176 258 -435 431 -175 117 -262 203 -314 311 -62 128 -73 197 -69
418 3 186 3 189 32 241 100 180 385 169 470 -18 17 -39 21 -71 24 -247 l4
-203 199 0 199 0 0 194 c0 213 -14 320 -55 411 -81 185 -252 331 -440 379 -65
16 -182 26 -230 20z"/>
<path d="M17267 19603 c-4 -3 -7 -766 -7 -1695 l0 -1688 205 0 205 0 1 1153 1
1152 166 -1152 165 -1153 203 0 202 0 10 73 c6 39 80 556 164 1147 l153 1075
3 -1147 2 -1148 205 0 205 0 -2 1693 -3 1692 -302 3 c-208 1 -303 -1 -303 -8
0 -26 -331 -2324 -335 -2329 -3 -2 -5 0 -5 5 0 5 -74 529 -165 1164 -91 635
-165 1158 -165 1162 0 10 -594 11 -603 1z"/>
<path d="M19300 19595 c0 -8 101 -385 225 -838 l225 -823 0 -857 0 -857 205 0
205 0 0 850 0 851 171 622 c94 342 197 719 230 838 32 119 59 219 59 223 0 3
-91 5 -201 4 l-202 -3 -19 -70 c-112 -418 -233 -852 -238 -858 -4 -4 -64 204
-135 463 l-128 470 -199 0 c-168 0 -198 -2 -198 -15z"/>
<path d="M8108 19275 c-3 -6 -67 -221 -142 -480 -75 -258 -140 -479 -145 -491
-7 -17 -91 -44 -505 -165 -273 -79 -496 -146 -496 -149 0 -3 222 -69 493 -148
270 -79 495 -147 499 -150 4 -4 71 -226 149 -492 78 -267 144 -488 148 -492 4
-5 72 216 152 489 l146 498 496 145 c274 80 497 147 497 150 0 3 -223 70 -496
150 l-497 145 -143 488 c-167 572 -149 513 -156 502z"/>
<path d="M3575 17492 c-468 -223 -1378 -2539 -2040 -5194 -309 -1238 -489
-2265 -527 -3001 -18 -352 6 -519 103 -717 45 -90 64 -117 138 -190 143 -142
309 -209 485 -197 158 11 289 81 432 229 261 272 462 789 524 1347 16 139 13
449 -5 566 -29 192 -79 328 -156 425 -21 27 -39 51 -39 53 0 2 22 7 50 10 246
29 545 318 847 819 l32 53 1 -85 c2 -624 233 -1054 635 -1185 115 -37 257 -52
348 -37 327 56 716 498 1139 1294 55 103 101 188 102 188 0 0 1 -109 1 -243 0
-257 9 -341 51 -512 110 -443 395 -704 798 -731 157 -11 278 31 438 151 249
187 532 577 810 1115 l75 145 6 -180 c16 -485 121 -809 332 -1020 148 -149
291 -208 505 -209 123 -1 192 15 305 72 372 185 882 779 1373 1599 556 928
1082 2132 1128 2580 6 57 4 69 -25 127 -58 118 -220 235 -409 296 -89 29 -184
39 -208 22 -5 -4 -20 -45 -33 -92 -86 -321 -349 -1022 -586 -1565 -360 -825
-790 -1651 -1079 -2075 -94 -138 -211 -260 -249 -260 -96 0 -145 194 -117 465
73 720 381 1701 914 2914 89 203 90 195 -22 254 -253 133 -791 222 -914 150
-173 -100 -494 -871 -693 -1663 -40 -158 -43 -165 -453 -940 -436 -825 -686
-1180 -833 -1180 -76 0 -109 80 -109 264 0 563 267 1459 673 2260 109 214 239
427 290 475 15 13 37 29 49 35 18 10 23 20 22 50 -3 101 -189 247 -422 330
-102 36 -254 65 -380 73 -101 5 -110 4 -157 -20 -28 -14 -79 -55 -114 -92 -35
-36 -67 -63 -71 -58 -4 4 -29 42 -56 83 -159 244 -389 389 -708 447 -131 24
-412 23 -526 -1 -125 -27 -222 -62 -344 -124 -483 -246 -901 -828 -1193 -1662
-93 -266 -449 -926 -690 -1280 -242 -354 -473 -571 -676 -636 -44 -13 -81 -23
-83 -21 -6 6 54 281 106 488 250 985 768 2490 1222 3549 432 1010 802 1633
1022 1725 31 13 36 20 36 50 0 91 -241 265 -525 380 -215 87 -467 127 -550 87z
m2412 -3083 c55 -27 132 -113 177 -198 39 -74 86 -225 86 -276 0 -20 -19 -68
-51 -126 -28 -52 -171 -321 -316 -599 -628 -1197 -864 -1611 -1084 -1902 -230
-302 -347 -289 -366 42 -34 600 391 1859 868 2572 263 392 514 570 686 487z
m-3768 -3774 c90 -77 107 -425 41 -870 -80 -540 -238 -935 -375 -935 -99 0
-97 290 6 820 95 487 244 1010 288 1010 5 0 23 -11 40 -25z"/>
<path d="M14028 17494 c-197 -47 -355 -217 -414 -444 -37 -139 -17 -333 47
-462 74 -151 167 -239 559 -528 169 -125 342 -261 389 -307 l85 -82 91 87 c50
48 225 185 390 307 420 309 528 421 588 610 18 58 22 93 22 210 0 120 -3 150
-23 210 -34 101 -90 191 -169 266 -133 129 -290 174 -462 134 -199 -47 -368
-229 -419 -452 l-18 -78 -18 78 c-31 136 -109 262 -218 354 -116 97 -280 134
-430 97z"/>
<path d="M23983 17500 c-112 -15 -150 -50 -252 -229 -242 -427 -449 -1035
-411 -1207 30 -137 187 -262 400 -320 79 -21 232 -25 276 -6 36 15 38 18 309
527 290 543 413 757 484 838 18 20 36 50 41 66 20 70 -65 156 -217 220 -197
83 -474 132 -630 111z"/>
<path d="M25800 17488 c-265 -131 -715 -990 -1183 -2258 l-35 -95 -168 -5
c-156 -5 -173 -8 -226 -32 -104 -48 -184 -157 -176 -238 2 -18 10 -36 18 -40
8 -4 103 -24 210 -45 107 -21 198 -40 202 -42 3 -2 -16 -70 -43 -151 -161
-477 -339 -1099 -459 -1607 l-47 -200 -108 -205 c-447 -853 -691 -1253 -857
-1407 -122 -112 -209 -96 -239 44 -15 72 -7 319 16 486 91 680 415 1704 756
2392 107 217 170 312 222 340 50 26 57 56 27 112 -48 90 -201 201 -365 264
-181 70 -458 116 -543 91 -224 -67 -591 -815 -861 -1755 -59 -205 -62 -210
-202 -480 -385 -739 -595 -1107 -757 -1327 -184 -249 -313 -306 -369 -163 -15
40 -18 75 -17 203 2 350 119 915 328 1585 231 743 529 1400 668 1471 41 21 48
31 48 70 0 65 -80 140 -198 184 -200 76 -491 120 -1162 175 -173 14 -316 27
-317 29 -2 2 6 56 18 122 30 165 37 404 15 471 -24 73 -63 105 -131 111 -113
9 -252 -37 -353 -117 -104 -83 -198 -242 -243 -411 -18 -65 -23 -112 -24 -200
0 -106 2 -119 28 -172 15 -31 44 -71 64 -88 43 -38 53 6 -94 -420 -376 -1089
-673 -1790 -998 -2355 -343 -596 -545 -817 -647 -707 -44 47 -53 92 -52 267 2
246 43 520 134 892 155 635 411 1349 661 1843 98 195 146 267 201 306 56 40
60 72 18 136 -62 94 -219 195 -399 258 -129 46 -239 68 -376 77 -123 7 -152
-4 -237 -88 -202 -200 -512 -882 -703 -1544 -20 -71 -50 -152 -65 -180 -15
-27 -123 -232 -240 -455 -533 -1017 -770 -1399 -936 -1508 -92 -62 -160 -31
-184 84 -28 134 9 542 81 879 142 672 436 1527 710 2065 88 172 136 243 192
279 32 21 37 30 37 62 0 107 -243 282 -492 353 -173 50 -378 69 -443 42 -222
-93 -593 -879 -849 -1800 l-53 -188 -73 -80 c-41 -44 -107 -109 -149 -145 -83
-71 -238 -179 -246 -172 -2 3 4 41 15 86 141 590 189 1094 135 1406 -67 383
-267 676 -565 827 -253 128 -633 170 -922 101 -295 -70 -537 -217 -793 -482
-478 -495 -828 -1328 -930 -2219 -22 -191 -30 -540 -16 -675 41 -377 161 -663
366 -871 383 -387 1032 -432 1528 -104 327 216 593 554 870 1108 l111 223 95
45 c113 53 259 149 355 233 38 34 71 60 73 58 1 -2 -6 -62 -16 -133 -59 -400
-52 -736 20 -1009 113 -430 397 -684 793 -711 195 -13 342 55 545 251 213 206
433 523 647 930 l79 150 7 -170 c19 -432 122 -729 322 -930 205 -204 546 -289
782 -193 199 80 445 325 683 681 167 250 319 536 543 1027 337 735 503 1142
835 2045 46 127 87 233 91 237 8 8 292 -62 356 -88 58 -22 96 -53 96 -75 0
-10 -18 -62 -40 -113 -59 -139 -172 -451 -241 -668 -266 -842 -396 -1517 -375
-1952 26 -521 209 -888 520 -1041 132 -66 225 -88 371 -88 108 -1 127 2 189
26 284 112 608 484 927 1067 l74 135 7 -120 c30 -524 208 -872 524 -1026 154
-75 355 -106 486 -75 294 69 632 428 967 1025 l77 139 12 -132 c58 -635 381
-1014 887 -1042 201 -11 374 63 594 255 185 161 439 500 639 850 58 102 72
120 76 100 2 -13 14 -75 25 -138 83 -443 330 -787 696 -966 176 -86 312 -124
525 -146 229 -23 425 9 616 100 149 71 271 159 417 301 267 258 464 544 696
1010 268 540 509 1259 566 1691 24 180 0 207 -91 106 -71 -79 -134 -194 -398
-728 -327 -660 -478 -930 -672 -1196 -277 -379 -522 -574 -793 -628 -231 -47
-382 52 -474 310 -66 187 -75 503 -23 814 15 85 28 157 31 159 2 2 39 -7 82
-22 119 -39 202 -50 322 -42 728 46 1252 509 1408 1245 24 111 27 148 27 311
0 211 -18 321 -81 490 -213 576 -713 827 -1253 629 -316 -116 -660 -429 -932
-849 -226 -349 -407 -750 -537 -1185 -46 -153 -59 -183 -182 -412 -319 -596
-534 -946 -707 -1153 -83 -100 -132 -144 -198 -179 -91 -49 -173 -11 -226 104
-22 47 -23 62 -22 240 0 119 7 238 18 320 77 570 253 1270 521 2070 92 274
257 730 268 741 3 3 98 -2 211 -12 195 -16 209 -16 268 0 83 23 145 64 217
143 109 119 200 341 171 417 -11 31 -25 32 -71 9 -30 -16 -66 -18 -296 -18
-144 0 -264 3 -268 7 -4 3 25 80 63 170 215 502 460 980 660 1288 138 212 263
362 318 380 76 25 65 69 -44 172 -175 165 -469 309 -721 352 -135 23 -216 21
-271 -6z m-12366 -3139 c63 -50 86 -143 86 -349 0 -250 -55 -602 -160 -1013
-49 -195 -129 -468 -172 -587 l-23 -65 -125 -5 c-103 -4 -132 -9 -166 -27 -58
-31 -129 -114 -154 -180 -71 -190 -3 -353 159 -379 l40 -6 -40 -80 c-114 -226
-244 -413 -372 -534 -134 -127 -248 -169 -340 -125 -59 28 -92 79 -117 175
-102 400 166 1455 589 2321 167 343 312 566 466 721 139 139 259 188 329 133z
m14949 -159 c77 -91 51 -319 -63 -555 -179 -372 -652 -843 -1014 -1010 -74
-35 -171 -63 -181 -53 -9 8 100 315 155 438 254 570 646 1066 935 1185 85 35
136 33 168 -5z"/>
<path d="M8211 9559 c-110 -14 -193 -45 -288 -108 -145 -95 -242 -234 -283
-402 -19 -81 -20 -117 -20 -1174 0 -1051 1 -1093 20 -1172 46 -193 168 -350
342 -443 115 -61 266 -88 390 -69 87 13 207 55 268 94 63 40 146 121 190 185
108 160 120 220 120 643 l0 327 -199 0 -199 0 -4 -327 c-3 -307 -4 -331 -24
-373 -44 -96 -137 -146 -258 -138 -102 7 -168 44 -210 119 l-31 54 0 1100 0
1100 22 42 c49 91 127 136 233 135 115 0 206 -55 249 -151 13 -30 16 -90 19
-363 l4 -328 199 0 199 0 0 319 c0 424 -15 502 -124 656 -140 195 -385 305
-615 274z"/>
<path d="M9841 9559 c-110 -14 -193 -45 -288 -108 -145 -95 -242 -234 -283
-402 -19 -81 -20 -117 -20 -1174 0 -1051 1 -1093 20 -1172 46 -193 168 -350
342 -443 163 -87 353 -98 538 -30 92 33 147 67 219 134 104 98 174 230 200
380 7 39 11 425 11 1125 0 1138 -1 1152 -49 1282 -28 74 -105 182 -175 247
-130 118 -342 184 -515 161z m196 -430 c56 -27 107 -88 124 -147 12 -38 14
-241 14 -1117 0 -1210 6 -1125 -80 -1204 -84 -77 -215 -91 -320 -32 -62 35
-111 110 -120 185 -3 28 -5 526 -3 1106 l3 1055 29 52 c66 119 224 164 353
102z"/>
<path d="M12498 9565 c-4 -5 27 -289 238 -2160 63 -566 121 -1074 126 -1127
l11 -98 241 0 241 0 164 1158 c90 636 167 1160 170 1164 3 4 80 -509 170
-1140 89 -631 165 -1155 168 -1164 4 -17 24 -18 243 -18 l239 0 6 43 c3 23 86
767 185 1652 99 886 182 1629 185 1653 l6 42 -203 -2 -203 -3 -22 -200 c-197
-1768 -243 -2166 -243 -2087 0 15 -319 2242 -325 2270 -5 22 -6 22 -204 22
-198 0 -199 0 -204 -22 -3 -13 -76 -527 -163 -1143 -86 -616 -160 -1123 -164
-1127 -4 -6 -262 2250 -260 2285 0 8 -393 10 -402 2z"/>
<path d="M15641 9559 c-113 -15 -195 -46 -291 -110 -145 -97 -240 -233 -280
-400 -19 -81 -20 -117 -20 -1174 0 -1051 1 -1093 20 -1172 46 -193 168 -350
342 -443 163 -87 353 -98 538 -30 92 33 147 67 219 134 104 98 174 230 200
380 7 39 11 425 11 1125 0 1138 -1 1152 -49 1282 -28 74 -105 182 -175 247
-130 118 -342 184 -515 161z m196 -430 c56 -27 107 -88 124 -147 12 -38 14
-241 14 -1117 0 -1210 6 -1125 -80 -1204 -84 -77 -215 -91 -320 -32 -62 35
-111 110 -120 185 -3 28 -5 526 -3 1106 l3 1055 29 52 c66 119 224 164 353
102z"/>
<path d="M16677 9563 c-4 -3 -7 -766 -7 -1695 l0 -1688 205 0 205 0 0 790 0
790 79 0 79 0 67 -272 c51 -208 274 -1131 310 -1285 5 -23 6 -23 205 -23 141
0 200 3 200 11 0 6 -90 385 -200 841 -111 457 -200 831 -198 832 89 50 220
187 270 281 91 174 118 299 118 540 0 343 -54 510 -220 675 -78 78 -154 125
-257 161 -128 44 -179 49 -522 49 -180 0 -331 -3 -334 -7z m715 -440 c118 -55
188 -152 209 -288 7 -42 7 -121 1 -228 -10 -187 -27 -239 -103 -322 -83 -90
-174 -125 -326 -125 l-93 0 0 501 0 501 123 -4 c111 -3 128 -7 189 -35z"/>
<path d="M18310 7875 l0 -1695 205 0 205 0 0 434 0 435 64 173 c36 95 67 166
70 158 3 -8 93 -282 201 -607 l196 -593 199 0 c110 0 200 3 200 8 0 4 -132
408 -295 897 l-294 891 65 174 c74 198 438 1187 490 1328 l33 92 -202 0 -202
0 -260 -707 -260 -706 -3 706 -2 707 -205 0 -205 0 0 -1695z"/>
<path d="M19887 9563 c-4 -3 -7 -766 -7 -1695 l0 -1688 665 0 665 0 0 205 0
205 -460 0 -460 0 0 580 0 580 390 0 390 0 0 205 0 205 -390 0 -390 0 0 500 0
500 460 0 460 0 0 205 0 205 -658 0 c-362 0 -662 -3 -665 -7z"/>
<path d="M21497 9563 c-4 -3 -7 -766 -7 -1695 l0 -1688 205 0 205 0 0 790 0
790 79 0 79 0 67 -272 c51 -208 274 -1131 310 -1285 5 -23 6 -23 205 -23 141
0 200 3 200 11 0 6 -90 385 -200 841 -111 457 -200 831 -198 832 89 50 220
187 270 281 91 174 118 299 118 540 0 343 -54 510 -220 675 -78 78 -154 125
-257 161 -128 44 -179 49 -522 49 -180 0 -331 -3 -334 -7z m715 -440 c118 -55
188 -152 209 -288 7 -42 7 -121 1 -228 -10 -187 -27 -239 -103 -322 -83 -90
-174 -125 -326 -125 l-93 0 0 501 0 501 123 -4 c111 -3 128 -7 189 -35z"/>
<path d="M24808 9155 c-3 -6 -67 -221 -142 -480 -75 -258 -140 -479 -145 -491
-7 -17 -91 -44 -505 -165 -273 -79 -496 -146 -496 -149 0 -3 223 -70 496 -149
414 -121 498 -148 505 -165 5 -12 70 -232 145 -491 75 -258 139 -473 143 -477
4 -5 72 216 152 489 l146 498 496 145 c274 80 497 147 497 150 0 3 -223 70
-496 150 l-497 145 -143 488 c-167 572 -149 513 -156 502z"/>
<path d="M10860 7875 l0 -205 670 0 670 0 0 205 0 205 -670 0 -670 0 0 -205z"/>
<path d="M17090 5135 c-382 -7 -794 -18 -915 -24 -121 -6 -357 -16 -525 -21
-382 -12 -695 -25 -1205 -50 -220 -11 -557 -27 -750 -35 -192 -9 -496 -24
-675 -35 -179 -11 -413 -24 -520 -30 -470 -25 -738 -40 -780 -45 -25 -3 -130
-9 -235 -15 -400 -21 -747 -41 -935 -55 -107 -8 -240 -17 -295 -20 -55 -3
-208 -15 -340 -25 -132 -11 -379 -29 -550 -40 -170 -11 -431 -29 -580 -40
-148 -11 -344 -24 -435 -30 -244 -15 -552 -38 -662 -50 -318 -35 -721 -29
-1020 14 -97 14 -203 26 -235 26 -154 0 -284 -145 -270 -300 7 -80 50 -171
104 -221 74 -68 166 -104 351 -139 195 -36 351 -39 712 -15 250 17 628 40 880
55 91 6 248 16 350 24 102 8 228 17 280 21 250 15 718 46 825 55 66 6 194 14
285 20 91 5 253 17 360 25 178 13 534 36 785 51 55 3 181 11 280 19 99 8 227
16 285 19 349 18 703 39 965 56 295 20 417 26 1005 55 162 8 412 21 555 29
300 17 710 33 1040 41 127 3 397 12 600 20 646 25 1216 35 2860 51 1027 10
2073 -32 3165 -126 579 -50 1282 -180 1528 -282 123 -52 148 -80 99 -113 -60
-39 -552 -140 -877 -180 -69 -9 -132 -18 -141 -20 -14 -5 -251 -31 -494 -55
-60 -6 -182 -20 -270 -30 -88 -11 -212 -24 -275 -30 -309 -27 -561 -51 -615
-60 -33 -5 -208 -23 -390 -40 -181 -16 -361 -34 -400 -40 -38 -5 -216 -26
-395 -45 -179 -19 -413 -46 -520 -60 -107 -14 -248 -32 -313 -40 -65 -8 -157
-21 -205 -29 -105 -19 -310 -51 -447 -71 -110 -16 -200 -32 -565 -99 -539
-100 -1074 -236 -1385 -353 -307 -115 -541 -286 -618 -451 -57 -122 -47 -268
29 -412 134 -255 396 -440 829 -585 221 -74 408 -109 540 -102 200 11 360 93
400 206 39 113 0 210 -118 290 -73 49 -149 77 -315 116 -276 66 -347 87 -471
138 -125 51 -191 95 -191 126 0 10 10 27 23 39 21 20 202 102 272 123 60 19
503 128 625 154 69 14 175 37 235 50 61 13 173 35 250 50 77 14 185 35 240 47
54 11 189 33 300 49 110 16 234 36 275 44 41 8 181 28 310 44 129 17 278 37
330 45 52 8 187 24 300 36 113 12 275 30 360 40 85 11 182 22 215 25 183 16
512 48 660 65 94 10 204 22 245 25 122 9 712 71 965 100 72 8 236 26 365 40
483 51 918 123 1215 200 304 79 448 133 600 225 247 149 338 406 225 636 -51
104 -111 171 -222 245 -165 111 -369 204 -633 287 -154 48 -208 62 -505 130
-124 29 -377 72 -510 87 -30 3 -136 17 -235 30 -230 30 -241 31 -545 54 -391
30 -537 39 -895 56 -181 8 -427 20 -545 26 -326 17 -2295 19 -3100 4z"/>
</g>
</svg>
