<?xml version="1.0" encoding="UTF-8" standalone="no"?>
<!-- Created with Inkscape (http://www.inkscape.org/) -->

<svg
   width="210mm"
   height="297mm"
   viewBox="0 0 210 297"
   version="1.1"
  
   inkscape:version="1.3.2 (091e20e, 2023-11-25, custom)"
   sodipodi:docname="logo.svg"
   xmlns:inkscape="http://www.inkscape.org/namespaces/inkscape"
   xmlns:sodipodi="http://sodipodi.sourceforge.net/DTD/sodipodi-0.dtd"
   xmlns="http://www.w3.org/2000/svg"
   xmlns:svg="http://www.w3.org/2000/svg">
  <sodipodi:namedview
    
     pagecolor="#505050"
     bordercolor="#ffffff"
     borderopacity="1"
     inkscape:showpageshadow="0"
     inkscape:pageopacity="0"
     inkscape:pagecheckerboard="1"
     inkscape:deskcolor="#505050"
     inkscape:document-units="mm"
     inkscape:zoom="0.69219276"
     inkscape:cx="396.56583"
     inkscape:cy="330.11036"
     inkscape:window-width="1920"
     inkscape:window-height="991"
     inkscape:window-x="-9"
     inkscape:window-y="1341"
     inkscape:window-maximized="1"
     inkscape:current-layer="layer1"
     showguides="true">
    <sodipodi:guide
       position="-3.057915,255.71815"
       orientation="0,-1"
      
       inkscape:locked="false" />
  </sodipodi:namedview>
  <defs
     />
  <g
     inkscape:label="Layer 1"
     inkscape:groupmode="layer"
    >
    <path
       style="fill:#0b0a09;stroke:none;stroke-width:0.731621"
       d="M 1.3331979,37.966779 V 225.95416 H 210.34373 V 37.966779 H 1.3331979 M 150.53896,84.596463 v 6.976089 h -20.20708 v 13.585028 h 11.63438 l 5.91925,0.18358 -0.20412,6.60893 h -17.34951 v 13.95219 h 20.20708 v 6.79251 h -29.3921 v -0.18357 c 6.78681,-4.15235 8.85259,-12.68214 5.28455,-19.27605 -0.67174,-1.2414 -1.55476,-2.32516 -2.63188,-3.30447 -0.63515,-0.57747 -1.73079,-1.21822 -1.97546,-2.03582 -0.45315,-1.51436 -0.0649,-3.55683 -0.0649,-5.12386 V 91.572552 h -9.18503 c -2.52138,0 -5.62921,-0.28885 -7.96037,0.718739 -4.18212,1.807635 -4.59308,6.603034 -1.42058,9.361099 6.66949,5.79824 18.7942,5.00552 22.23921,14.15291 0.46516,1.23512 0.78094,2.54689 0.81425,3.85521 0.0427,1.68076 -0.35667,3.37183 -0.94969,4.9567 -0.73622,1.96757 -1.9245,3.83159 -3.54582,5.32117 -5.98412,5.49788 -17.16471,4.87418 -23.26072,-0.0291 -1.557954,-1.25314 -2.728582,-2.77315 -3.796544,-4.37409 -0.521909,-0.78237 -1.019537,-2.10603 -1.94001,-2.56504 -1.189782,-0.59331 -3.542407,-0.18868 -4.877262,-0.18868 -4.098345,0 -8.369022,-0.31432 -12.449877,0.0108 -1.334756,0.10633 -1.668717,1.42474 -2.128685,2.37578 -1.028066,2.12569 -1.940439,5.32644 -3.586135,7.10133 -0.563052,0.60725 -1.667846,0.42552 -2.450601,0.42552 h -6.531579 l 14.837166,-29.55661 5.194144,-10.28057 3.03333,-5.8746 c 2.179876,2.914632 3.484402,6.70446 5.074448,9.913396 2.828838,5.708984 5.803764,11.362354 8.629394,17.073074 1.589641,3.21273 2.883591,6.97362 5.374001,9.72982 4.33202,4.79435 16.39324,3.72762 15.15168,-4.0388 -0.71634,-4.48091 -6.97165,-6.25242 -10.96077,-7.78776 -3.23123,-1.24363 -6.69005,-2.48871 -9.389147,-4.5673 -4.127055,-3.17825 -5.643716,-8.081038 -4.571886,-12.795597 0.482996,-2.124502 1.624896,-4.071504 3.230514,-5.683791 4.470469,-4.489043 11.142789,-4.229599 17.262099,-4.229599 h 36.94424 m -66.948685,19.276047 -5.919244,12.11638 c 3.569603,0.94901 8.518325,0.18358 12.246711,0.18358 l -4.019237,-8.07759 -2.30823,-4.22237 m 58.988325,41.4894 v 0.18358 l -2.04112,1.65224 h -0.20412 c -1.21891,-1.03704 -2.58347,-1.5366 -4.28635,-1.2219 -0.95346,0.17621 -2.01275,1.02471 -1.52595,1.97946 0.58997,1.15709 2.56599,1.35942 3.77119,1.6569 2.8427,0.70167 4.8502,2.06547 4.45266,4.92879 -0.6721,4.84087 -9.97823,4.81568 -12.0048,0.91791 l 2.44934,-1.46865 c 1.09449,1.38497 2.60473,2.01635 4.49046,1.80182 1.07957,-0.12282 2.42643,-0.82655 2.14775,-1.98271 -0.2644,-1.09687 -1.73577,-1.4181 -2.76008,-1.68071 -1.89198,-0.48505 -4.21765,-0.944 -5.10894,-2.72794 -1.23083,-2.46349 0.41334,-5.15735 3.27193,-5.77812 2.68132,-0.58229 5.32959,0.0834 7.34803,1.73933 m -85.522866,12.6671 c -0.819955,0 -2.27194,0.2507 -2.91899,-0.29435 -1.098637,-0.92544 -0.64472,-2.86254 -2.592186,-2.98291 -1.054439,-0.0651 -3.769846,-0.29146 -4.667171,0.16218 -1.106526,0.55939 -0.867911,2.04961 -1.675418,2.82073 -0.60519,0.57792 -2.237512,0.29435 -3.046401,0.29435 1.117458,-3.68211 3.037706,-7.28933 4.612992,-10.8313 0.377698,-0.84924 0.892659,-3.13896 1.964418,-3.4297 2.416664,-0.65553 2.795534,1.34374 3.510692,2.87895 1.647271,3.53615 4.089107,7.60338 4.812064,11.38205 m 14.491941,-14.31935 v 2.57014 h -7.552138 v 3.85521 l 6.735691,-0.18358 v 2.57014 l -4.694573,-6.9e-4 -1.706602,0.14264 -0.191037,1.51016 0.06064,3.85535 H 61.137974 V 143.7097 h 10.409704 m 16.124836,0 v 2.57014 H 82.77383 v 11.74921 h -2.857569 v -11.74921 h -4.694572 v -2.57014 h 12.450823 m 14.696058,0 v 2.57014 h -7.552144 l -0.204111,3.12088 6.939805,0.18358 v 2.57014 h -6.735694 v 3.48804 h 7.552144 l -0.20412,2.57015 -10.409701,-0.18358 V 143.7097 h 10.613821 m 13.47137,8.8119 3.46991,5.50745 -2.956,-0.18868 -3.81734,-4.76292 -2.4117,-0.18869 v 5.14029 h -2.85756 V 143.7097 c 2.91792,0 7.44971,-0.76479 9.9933,0.75883 3.29415,1.97319 2.20109,7.11251 -1.42061,8.05307 m 34.49491,-8.8119 v 14.31935 h -2.85757 V 143.7097 h 2.85757 m 11.02203,4.58953 h 0.40823 c 0.60393,-1.16208 1.94824,-3.96537 3.30359,-4.47876 0.84233,-0.31908 2.12212,-0.11077 3.02387,-0.11077 l -3.26578,4.77311 -1.34626,2.12507 1.48234,2.28088 3.53793,5.14029 -3.36422,-0.18868 -3.98381,-4.76802 c -0.50388,1.23785 -2.15516,4.29607 -3.53636,4.84592 -0.81877,0.32595 -2.11269,0.11078 -2.99521,0.11078 l 3.4699,-5.14029 1.34105,-2.20298 -1.22356,-2.01939 -3.58739,-4.95669 c 1.00331,0 2.49487,-0.2503 3.42706,0.11077 1.27937,0.49552 2.83006,3.34316 3.30862,4.47876 m -51.23207,-2.38656 v 4.58954 c 1.38994,0 3.6382,0.38389 4.88972,-0.21645 1.45478,-0.69783 1.54413,-3.00438 0.19088,-3.82064 -1.3581,-0.81919 -3.53173,-0.55245 -5.0806,-0.55245 m -60.825327,1.46865 -2.041118,5.14028 h 4.694572 l -2.24523,-5.14028 h -0.408224 m -2.041118,17.25666 h 7.552138 v 1.83581 h -5.51102 v 2.57014 h 4.898685 v 1.83581 l -4.898685,-0.18357 v 2.75372 h 5.51102 v 1.65223 h -7.75625 v -7.15968 l 0.204112,-3.30446 m 20.411185,7.15967 -0.204111,-5.14028 0.327271,-1.83071 1.917959,-0.18868 v 10.46414 c -4.044178,-4.2e-4 -5.067727,-4.82824 -7.756251,-6.97611 v 6.9761 h -2.24523 L 59.9133,164.63796 c 3.602654,0.003 5.466769,5.00663 7.75625,7.15968 m 17.349508,-5.14028 -2.041119,0.9179 c -3.253381,-3.53136 -7.95067,0.92319 -5.834037,4.40583 1.506938,2.47944 5.741319,2.02469 6.038149,-0.91778 h -3.061678 v -1.46865 h 5.102796 c 0,1.57858 0.06482,3.30788 -1.291763,4.50355 -2.953374,2.60308 -8.38774,0.9504 -9.370876,-2.48416 -1.592237,-5.56243 6.528552,-9.92972 10.458528,-4.95669 m 11.634375,4.58954 2.653455,3.85521 c -0.701255,0 -1.725396,0.16473 -2.343661,-0.18868 -2.14036,-1.22349 -1.617585,-3.35636 -4.596142,-3.66653 v 3.85521 h -2.245231 v -10.46415 c 2.143492,0 5.464184,-0.43581 7.344875,0.68433 2.508917,1.49431 1.67367,4.94009 -0.813296,5.92461 m 17.145397,3.85521 c -0.68179,0 -1.74946,0.17535 -2.2824,-0.29436 -0.55518,-0.48933 -0.52094,-1.33455 -1.23334,-1.71994 -0.74827,-0.4048 -2.17179,-0.21842 -3.01506,-0.18514 -1.66912,0.0658 -1.15463,1.31589 -2.18521,2.01076 -0.51631,0.3481 -1.49405,0.18868 -2.10192,0.18868 l 4.28635,-10.46415 1.90866,0.18868 1.39855,2.74862 3.22437,7.52685 m 6.9398,-2.93731 h 0.40823 l 1.97828,-5.32386 1.0226,-2.0143 2.10191,-0.18868 -3.05081,7.52684 -1.33964,2.74863 -2.14113,0.18868 -4.08224,-10.46415 2.10192,0.18868 0.95976,2.0143 2.04112,5.32386 m 11.83849,-7.52684 v 10.46415 h -2.24524 v -10.46415 h 2.24524 m 12.85905,7.15968 v -7.15968 h 2.04111 v 10.46415 c -4.13352,-4.1e-4 -4.80803,-4.83519 -7.75625,-6.79252 v 6.79252 h -2.04112 v -10.46415 c 3.55444,0.003 5.54457,4.99353 7.75626,7.15968 m 17.3495,-5.14028 c -2.35377,1.4193 -3.81421,-1.24514 -6.32669,-0.0997 -2.39701,1.09278 -2.69281,4.94239 -0.5917,6.40593 2.10701,1.46767 4.93259,0.39664 5.28549,-1.90026 h -3.06167 v -1.65223 h 5.10279 c 0,1.67867 0.12881,3.40738 -1.32011,4.68516 -3.59092,3.16674 -9.25059,0.16538 -9.66695,-3.76725 -0.36106,-3.41018 2.49546,-5.69497 6.08837,-5.69103 1.80092,0.002 3.66331,0.43834 4.49047,2.0194 M 92.367085,166.2902 v 3.48804 c 1.035259,0 2.520664,0.2397 3.45872,-0.21644 1.160743,-0.56443 1.300036,-2.21233 0.16946,-2.87881 -0.994908,-0.5865 -2.500563,-0.39279 -3.62818,-0.39279 m 15.716615,1.10149 -1.42878,3.85521 h 3.26579 l -1.42879,-3.85521 z"
       />
  </g>
</svg>

