<?xml version="1.0" encoding="utf-8"?>
<!-- Generator: Adobe Illustrator 22.1.0, SVG Export Plug-In . SVG Version: 6.00 Build 0)  -->
<svg version="1.1" xmlns="http://www.w3.org/2000/svg" xmlns:xlink="http://www.w3.org/1999/xlink" x="0px" y="0px"
	 viewBox="0 0 1143.8 1058.1" style="enable-background:new 0 0 1143.8 1058.1;" xml:space="preserve" width="500" height="500">
<g>
	<g>
		<path d="M575,186.4c4.9,0,10.4-3.2,16.4-9.7c6.1-6.5,9.1-13.9,9.1-22.3c0-7.2-3.1-13.3-9.2-18.1c-6.2-4.8-12.2-7.2-18.1-7.2
			c-4.9,0-8.8,3-11.6,9.1c-2.8,6.1-4.3,13.1-4.3,21.1c0,6.9,1.5,13.1,4.4,18.6C564.7,183.6,569.1,186.4,575,186.4z"/>
		<path d="M1137.9,238.9c-3.3,0-6.2,3.8-8.5,11.4c-8.2,28.2-20.6,50.3-37.3,66.3c-6.3,6.1-12.5,11.7-18.8,17
			c-2.5-4.5-5.3-9-8.2-13.5c-5.1-7.8-9.9-16-14.5-24.7c-4.6-8.6-8.4-17.8-11.4-27.4c-3-9.7-4.5-20.4-4.5-32.1
			c0-12.9,4-24.5,11.9-34.6c7.9-10.2,16-15.3,24.2-15.3c10,0,15,7.8,15,23.5c0,10.8-2.5,20.6-7.3,29.6c-1.2,2.3-1.8,4.1-1.8,5.3
			c0,2,0.8,2.9,2.3,2.9c2.7,0,6.7-3,11.7-9.1c7-8.6,10.6-17.9,10.6-27.9c0-11.2-3.7-21.3-11.2-30.5c-9-11.2-20.5-16.7-34.6-16.7
			c-22.7,0-40.3,10-52.8,29.9c-10.4,16.4-15.6,36.2-15.6,59.3c-12.8,45-27.9,79.7-45.3,104.2c-17.7,24.9-33.3,37.3-46.8,37.3
			c-14.3,0-21.4-14.3-21.4-42.9c0-20.2,2.6-42.4,7.9-66.6c17.4-2.1,33.9-8.8,49.6-20c21.3-15.1,32-33.1,32-54
			c0-12.5-4.9-23.5-14.8-33c-9.9-9.5-21.4-14.2-34.5-14.2c-25.4,0-45.9,19.6-61.3,58.7c-6.2,15.8-11,32.4-14.4,49.8
			c-10.6,37.3-21,68.9-31.2,94.8c-12,30.6-21.2,45.9-27.4,45.9c-8.6,0-13.8-7.3-15.7-21.9c-1.9-14.6-2.8-28.3-2.8-41.2
			c0-49.3,7.2-107.8,21.7-175.5c14.7-1.4,29.1-6.4,43.1-15c23.9-14.3,41.6-35,53.1-62.2c6.5-15.5,9.7-32.1,9.7-49.9
			c0-14.5-5.8-26.3-17.3-35.5C861.5,3.7,850.6,0,838.3,0c-17,0-33,9.1-47.8,27.3c-22.5,27-40.6,67.7-54.3,122.1
			c-4.1-2.7-7.8-6.1-11.2-10c-11.3-13.3-17-29.5-17-48.7c0-6.3,0.8-11.8,2.3-16.7c1.6-4.9,2.3-9.9,2.3-15c0-4.9-1.2-8.7-3.7-11.3
			c-2.4-2.6-5.2-4-8.4-4c-9.6,0-14.4,7.3-14.4,22c0,20,3.5,38.2,10.6,54.6c8.4,19.6,20.4,34,36.1,43.1c-2.5,10.8-4.8,21.8-6.8,33.2
			c-8.8-8.6-18.8-12.9-29.9-12.9c-29.5,0-53.6,30.5-72.2,91.6c-4.5,14.6-7.8,28.1-10.1,40.5C596,370.6,581.5,398,570.6,398
			c-4.1,0-6.2-5.6-6.2-16.7c0-19.4,3-47.2,9.1-83.4c5.3-31.9,7.9-51.9,7.9-59.9c0-8-5.3-14.2-15.8-18.5c-6.7-2.9-11.2-4.4-13.5-4.4
			c-4.7,0-8.4,3.8-11.2,11.4c-2.9,7.7-5.8,18.9-8.5,33.6c-11.7,42.4-23.4,77.8-35.3,106.2c-12.8,30.6-22.5,45.9-28.9,45.9
			c-2.3,0-4.4-1.7-6-5.1c-1.7-3.4-2.5-7.3-2.5-11.6c0-18.4,2.2-37.6,6.6-57.5c4.4-20,8.9-38.3,13.4-54.9c6.5-23.9,9.7-38.7,9.7-44.6
			c0-12.9-6.9-23.6-20.8-32c-6.3-3.7-13.1-7.3-20.4-10.7c-7.3-3.4-14.3-7.2-21-11.3c3.7-18,5.6-31.3,5.6-39.9
			c0-16.2-6.3-24.4-18.8-24.4c-5.7,0-10.5,1.9-14.5,5.6c-4,3.7-7,8.3-9.1,13.8c-2.1,5.5-3.1,10.8-3.1,15.8
			c0,10.6,5.8,20.7,17.3,30.5l7.9,6.5c-3.5,14.5-8.6,33.8-15.3,57.8c-6.9,24.5-17.9,44.3-33.2,59.6c-4.7,4.7-9.5,9.1-14.4,13.2
			c-3.9-41.7-29.5-65.7-76.6-72.2c30.9-18,61.5-50.7,91.9-98c20.5-31.9,30.8-61.5,30.8-88.9c0-18.4-5.8-33.7-17.3-45.8
			C366.8,6.1,352.1,0,334.3,0C320,0,305.2,5.4,290,16.3s-29.7,27.8-43.4,50.9c-7.4,12.7-14.3,27.3-20.5,43.7
			c-1-30.3-8.1-55.9-21.4-76.6C189.9,11.4,165.7,0,132.1,0c-23.9,0-45.3,8.9-64.1,26.7C49.1,44.5,33.9,66.3,22.3,92.2
			C7.8,124.4,0.6,155.6,0.6,185.5c0,51.3,19.3,76.9,57.8,76.9c14.3,0,27.2-4.8,38.7-14.5c11.5-9.7,21.2-21.9,29.1-36.5
			c11.5-22.1,17.3-43.9,17.3-65.5c0-26.4-8.1-43.6-24.4-51.7c-2.9-1.4-5.4-2.1-7.3-2.1c-3.7,0-5.6,1.7-5.6,5c0,1.8,0.9,3.5,2.6,5.3
			c7.8,8.2,11.7,21.3,11.7,39.3c0,20.4-4.8,41.1-14.4,62.2c-12.9,28.2-28.9,42.3-47.8,42.3c-17.2,0-25.8-13.9-25.8-41.7
			c0-20.9,4.7-45.3,14.1-73.1c11.7-35.4,26.5-64,44.3-85.7c15.9-19.6,31.3-29.4,46.4-29.4c9.2,0,16.6,4.7,22.3,14.1
			c9.8,16.4,14.7,38.4,14.7,65.7c0,30.9-2.7,61.8-8.2,92.7c-5.3,29.7-11.3,58.5-17.9,86.3c-5.5,23.5-10.2,46-14.2,67.5
			c-4,21.5-6,42.2-6,61.9c0,30.5,8.5,51.8,25.5,64c4.5,3.1,8.3,4.7,11.4,4.7c2.9,0,5.4-0.7,7.5-2.1c2.1-1.4,3.1-3.3,3.1-5.9
			c0-3.7-0.3-7.9-0.9-12.6c-0.6-4.7-0.9-8.5-0.9-11.4c0-21.3,7-61.6,21.1-120.9c8.8-37.2,15.7-69.7,20.8-97.4
			c7.2-40.7,13.8-70.5,19.7-89.5c12.5-39.9,30.7-71.9,54.6-96c12.1-12.3,24.3-18.5,36.4-18.5c13.1,0,19.7,11.1,19.7,33.2
			c0,20.9-6.9,46.3-20.5,76c-13.7,29.7-29.5,56.8-47.3,81.3c-12.1,16.8-24.4,29.6-36.7,38.4c-17.6,0-26.4,4.1-26.4,12.3
			c0,4.5,3.9,6.7,11.7,6.7c9.2,0,18.5-2.2,27.9-6.7c15.9,2.2,27.5,7.7,35.1,16.7c7.5,9,11.3,20.2,11.3,33.5
			c0,15.5-2.7,30.9-8.2,46.4c-12.1,5.7-24.2,10.8-36.1,15.3c-13.9,5.3-26.4,10.6-37.6,15.8c-11.2,5.3-20.1,11.3-26.9,17.9
			c-6.8,6.7-10.1,14.8-10.1,24.4c0,7.4,2.1,14.2,6.5,20.3c4.3,6.1,9.5,11,15.7,14.7c6.2,3.7,12.2,5.6,18.1,5.6
			c21.5,0,42-6.5,61.5-19.4c19.5-12.9,35.4-29.7,47.7-50.5c11.3-19,17.5-39.2,18.5-60.8c8.6-6.5,16.8-13.8,24.7-22
			c16-16.4,27.9-37.9,35.5-64.3c5.5-20.5,10-38.4,13.5-53.7c4.5,3.3,8.6,6.7,12.3,10c4.7,4.3,7,9,7,14.1c0,6.5-3.1,22.6-9.4,48.4
			c-10.6,43.6-15.8,73.9-15.8,90.7c0,21.7,4.6,37.8,13.8,48.3c9.2,10.5,21.3,15.7,36.4,15.7c7.4,0,15-5.1,22.7-15.3
			c7.7-10.2,16.2-27.9,25.5-53.1c2.2-5.8,4.4-12.2,6.7-19.1c0,2-0.1,4-0.1,5.9c0,21.7,4.7,38.3,13.9,49.7
			c9.3,11.4,20.5,17.2,33.6,17.2c14.4,0,27.9-15.1,40.6-45.3c1.3,10.3,3.9,19.7,7.8,28.2c6.9,14.9,17.1,22.3,30.8,22.3
			c18.2,0,34.2-17.8,48.1-53.4c5.7-14.5,12.3-34.8,20-61c0.8,51.9,9,87.6,24.7,107.1c8.8,11.2,21,16.7,36.7,16.7
			c7.4,0,14.8-5.1,22.2-15.3c7.3-10.2,15.5-27.9,24.4-53.1c2-5.6,4-11.6,6.1-18.2c0.7,14.4,5.8,28.5,15.2,42.2
			c11.7,17,27.7,25.5,47.8,25.5c38.3,0,70.8-42,97.5-125.9c2.8,7.8,6.2,15.5,10.2,22.9c4.5,8.2,9.3,16.2,14.4,24.1
			c6.8,10.4,12.9,20.8,18.2,31.4c-7.6,5.3-14.8,10.5-21.4,15.6c-8.2,6.7-14.8,13.8-19.8,21.6c-5,7.7-7.5,16.9-7.5,27.4
			c0,10,3.3,18.3,10,25.1c6.6,6.8,14.7,10.1,24.1,10.1c21.9,0,39.1-7,51.5-21c12.4-14,18.6-31.8,18.6-53.6c0-12.3-2.5-23.8-7.6-34.3
			l-2.9-5.9c8.4-6.8,16.7-14.5,24.9-22.9c16.2-16.4,28.8-39.5,37.6-69.3c0.8-2.7,1.2-5.1,1.2-7
			C1143.8,241.6,1141.8,238.9,1137.9,238.9z M911.6,202.2c6.8-10.8,13.8-16.1,20.8-16.1c3.5,0,6.4,2.2,8.7,6.5
			c2.2,4.3,3.4,10,3.4,17c0,18.4-8.4,33.7-25.2,45.8c-10.8,7.8-22.4,13.1-34.9,15.9C891.8,241.7,900.9,218.7,911.6,202.2z
			 M824.5,45.5c10.2-19.2,20.4-28.8,30.8-28.8c9.6,0,14.4,7.9,14.4,23.8c0,36.6-9.8,66.2-29.4,88.9c-5.5,6.5-11.7,11.8-18.8,16.1
			c-11.5,7.2-23.5,11.7-35.8,13.5C796.7,111.7,809.6,73.9,824.5,45.5z M249.2,428.2c-14.1,14.3-26.7,21.4-37.9,21.4
			c-8.6,0-12.9-5.1-12.9-15.3c0-7.8,2.8-14.6,8.4-20.3c5.6-5.7,13.5-11,23.6-15.8c7.2-3.3,25.5-11,54.9-22.9
			C275.3,396.3,263.3,413.9,249.2,428.2z M416.5,175.8c-7.2-7.4-10.9-16-10.9-25.8c0-5.3,0.7-10,2.1-14.2c1.4-4.2,3.4-6.3,6.2-6.3
			c4.3,0,6.5,5.6,6.5,16.7C420.3,153.8,419,163.7,416.5,175.8z M716.5,252.1c0.8,0,1.9-0.5,3.2-1.5l-0.6,10.6
			c-11.5,42.5-25.1,80.5-40.8,114.2c-8.6,18.6-17.1,27.9-25.5,27.9c-5.9,0-8.8-4.9-8.8-14.7c0-5.7,1-15.3,2.9-28.8
			c4.9-34.6,12.4-67.8,22.6-99.5c11.9-37.6,24.8-56.4,38.7-56.4c9,0,13.5,5,13.5,15c0,8.2-2,17.3-5.9,27.3c-0.6,1.8-0.9,3.1-0.9,4.1
			C715,251.5,715.5,252.1,716.5,252.1z M1036.2,432.8c-5,8.9-10.2,13.4-15.7,13.4c-4.1,0-7.7-1.4-10.7-4.3c-3-2.8-4.5-7-4.5-12.5
			c0-10.2,2.3-19,7-26.4c5.5-8.8,14.9-18.3,28.2-28.5c2.2,6.9,3.2,13.9,3.2,21.1C1043.7,411.5,1041.2,423.9,1036.2,432.8z"/>
	</g>
	<g>
		<path d="M994.1,743.5c23.9-14.3,41.6-35,53.1-62.2c6.5-15.5,9.7-32.1,9.7-49.9c0-14.5-5.8-26.3-17.3-35.5
			c-9.6-7.4-20.5-11.2-32.9-11.2c-17,0-33,9.1-47.8,27.3c-22.5,27-40.6,67.7-54.3,122.1c-4.1-2.7-7.8-6.1-11.2-10
			c-11.3-13.3-17-29.5-17-48.7c0-6.3,0.8-11.8,2.3-16.7c1.6-4.9,2.3-9.9,2.3-15c0-4.9-1.2-8.7-3.7-11.3c-2.4-2.6-5.2-4-8.4-4
			c-9.6,0-14.4,7.3-14.4,22c0,20,3.5,38.2,10.6,54.6c8.4,19.6,20.4,34,36.1,43.1c-2.5,10.8-4.8,21.8-6.8,33.2
			c-8.8-8.6-18.8-12.9-29.9-12.9c-29.5,0-53.6,30.5-72.2,91.6c-4.5,14.6-7.8,28.1-10.1,40.5c-17.9,54.8-32.3,82.1-43.3,82.1
			c-4.1,0-6.2-5.6-6.2-16.7c0-19.4,3-47.2,9.1-83.4c5.3-31.9,7.9-51.8,7.9-59.9c0-8-5.3-14.2-15.8-18.5c-6.7-2.9-11.2-4.4-13.5-4.4
			c-4.7,0-8.4,3.8-11.2,11.4c-2.9,7.7-5.8,18.9-8.5,33.6c-27.7,101.4-47,152.2-57.8,152.2c-4.1,0-6.2-5.6-6.2-16.7
			c0-22.1,0.9-41.6,2.6-58.4c3.7-38.2,6.8-64.5,9.1-79c1.6-9.2,2.3-15.9,2.3-20.3c0-8-5.3-14.3-15.9-18.8
			c-6.3-2.7-10.7-4.1-13.2-4.1c-1.8,0-3.6,0.8-5.6,2.3c3.9-6.5,5.9-13.3,5.9-20.5c0-8.2-2.8-15.8-8.5-22.7
			c-5.7-6.9-14.4-10.4-26.1-10.4c-21.3,0.2-41.6,20.2-60.8,59.9c-10,20.7-18.1,43.1-24.4,67.2c-2.5,9.5-4.3,18-5.5,25.4
			c-7,22.1-14.2,42.8-21.6,62.2c-14.4,37.7-24.8,56.5-31.3,56.5c-9,0-13.5-16.3-13.5-49c0-26.6,2.7-52.8,8.1-78.5
			c5.4-25.7,11.6-51.3,18.6-76.8c6.7-24.7,12.6-49.4,17.8-74.1c5.2-24.8,7.8-49.6,7.8-74.7c0-12.1-2.2-24.6-6.6-37.3
			c-4.4-12.7-11.3-23.3-20.5-31.8c-9.3-8.5-21.3-12.8-36-12.8c-23.9,0-44.6,28.4-62.2,85.1C344,713.7,326.2,794.4,304.1,912
			c-1.4-5.7-2.1-13.1-2.1-22.3c0-14.1,1.8-36.9,5.3-68.4c4.1-35.8,6.2-65.4,6.2-88.6c0-19.6-2.9-36.7-8.8-51.4
			c-7.8-19.2-21-28.8-39.6-28.8c-14.3,0-27.5,15.3-39.6,45.8c-2.3-74.9-34-112.4-94.8-112.4c-23.5,0-44.6,8.7-63.4,26.1
			c-18.8,17.4-34,39-45.5,64.9C7.2,709,0,740.1,0,770.2c0,51.3,19.3,76.9,57.8,76.9c14.3,0,27.2-4.8,38.7-14.5
			c11.5-9.7,21.2-21.9,29.1-36.5c11.5-22.1,17.3-43.9,17.3-65.5c0-26.4-8.1-43.6-24.4-51.7c-2.9-1.4-5.4-2.1-7.3-2.1
			c-3.7,0-5.6,1.7-5.6,5c0,1.8,0.9,3.5,2.6,5.3c7.8,8.2,11.7,21.3,11.7,39.3c0,20.4-4.8,41.1-14.4,62.2
			C92.7,816.9,76.8,831,57.8,831C40.6,831,32,817.1,32,789.3c0-20,4.7-44.3,14.1-73.1c6.5-19.6,14.5-38.1,24.1-55.5
			c9.6-17.4,20.1-31.6,31.6-42.6c11.4-11,23.1-16.4,35.1-16.4c9.2,0,16.5,4.5,22,13.5c10,16.4,15,38.4,15,65.7
			c0,30.9-2.7,61.8-8.2,92.7c-5.3,29.7-11.3,58.5-17.9,86.3c-5.5,23.5-10.2,46-14.2,67.5c-4,21.5-6,41.5-6,59.9
			c0,31.9,8.5,53.9,25.5,66c4.5,3.1,8.3,4.7,11.4,4.7c2.9,0,5.5-0.7,7.6-2.2c2.2-1.5,3.2-3.5,3.2-6c0-2.5-0.3-5.6-1-9.2
			c-0.7-3.6-1-8.4-1-14.2c0-21.3,7-61.7,21.1-121.2c7.6-32.3,14.7-65.8,21.1-100.7c16.4-90.2,33-135.3,49.6-135.3
			c4.3,0,6.5,6.1,6.5,18.2c0,23.5-2.8,61.9-8.5,115.3c-3.5,34.2-5.3,60-5.3,77.2c0,11.5,1.7,22.8,5,33.9c3.3,11.1,8,20.2,13.9,27.3
			c6,7.1,13,10.7,21,10.7c7.2,0,12.4-3.3,15.6-10c3.5-7.6,10.4-34.8,20.5-81.6c19-87.5,33.3-147.5,42.9-180.2
			c15.3-51.7,29.6-77.5,43.1-77.5c7,0,10.6,9.3,10.6,27.9c0,26.6-2.9,54.5-8.7,83.8c-5.8,29.3-12.1,58.1-18.9,86.4
			c-6.3,25.2-11.7,49.3-16.3,72.1c-4.6,22.8-6.9,43.3-6.9,61.5c0,27,4.4,49.7,13.2,68.1c11,23.3,28.1,34.9,51.4,34.9
			c15,0,32.9-30.4,53.7-91.1c1.4,6.2,3.2,11.9,5.6,16.9c6.5,13.3,15.7,20,27.9,20c15.9,0,32.3-18.6,49.3-55.8
			c4.5-9.8,9.7-22.6,15.6-38.4c-2.2,18.8-3.2,32.7-3.2,41.7c0,14.5,2.1,27.9,6.3,40.2c4.2,12.3,10.1,22.3,17.6,29.9
			c7.5,7.6,16.3,11.4,26.3,11.4c7.8,0,15-5.1,21.6-15.3c6.6-10.2,13.9-27.9,22-53.1c1.6-4.8,3.2-10,4.9-15.6c0,0.8,0,1.6,0,2.4
			c0,21.7,4.7,38.3,13.9,49.7c9.3,11.4,20.5,17.2,33.6,17.2c14.4,0,27.9-15.1,40.6-45.3c1.3,10.3,3.9,19.7,7.8,28.2
			c6.9,14.9,17.1,22.3,30.8,22.3c18.2,0,34.2-17.8,48.1-53.4c5.7-14.5,12.3-34.8,20-61c0.8,51.9,9,87.6,24.7,107.1
			c8.8,11.2,21,16.7,36.7,16.7c7.4,0,14.8-5.1,22.2-15.3c7.3-10.2,15.5-27.9,24.4-53.1c8.9-25.2,19.3-60.3,31.3-105.1
			c0.8-2.7,1.2-5.2,1.2-7.3c0-5.1-2-7.6-5.9-7.6c-3.5,0-6.4,3.8-8.5,11.4c-12.7,46.8-25.1,85.5-37.1,116.1
			c-12,30.6-21.2,45.9-27.4,45.9c-8.6,0-13.8-7.3-15.7-21.9c-1.9-14.6-2.8-28.3-2.8-41.2c0-49.3,7.2-107.8,21.7-175.5
			C965.6,757.1,980,752.1,994.1,743.5z M992.9,630.2c10.2-19.2,20.4-28.8,30.8-28.8c9.6,0,14.4,7.9,14.4,23.8
			c0,36.6-9.8,66.2-29.4,88.9c-5.5,6.5-11.7,11.8-18.8,16.1c-11.6,7.2-23.5,11.7-35.8,13.5C965.1,696.4,978.1,658.6,992.9,630.2z
			 M607.6,821.6c-5.9,20.4-13.1,41.1-21.7,62.2c-9.6,23.5-19.3,43.4-29.2,59.9c-9.9,16.4-18.3,24.7-25.4,24.7c-2.5,0-3.8-3-3.8-9.1
			c0-8,1.5-19.5,4.4-34.3c6.6-33.9,16.1-67,28.5-99.5c14.3-37.6,27.1-56.4,38.4-56.4c6.3,0,9.4,4.6,9.4,13.8c0,9.4-2.3,18.9-7,28.5
			c-0.8,1.6-1.2,2.8-1.2,3.8c0,1.4,0.5,2.1,1.5,2.1c2.2,0,5.7-2.9,10.6-8.8C610.6,811.7,609.1,816.1,607.6,821.6z M884.9,836.8
			c0.8,0,1.9-0.5,3.2-1.5l-0.6,10.6c-11.5,42.5-25.1,80.5-40.8,114.2c-8.6,18.6-17.1,27.9-25.5,27.9c-5.9,0-8.8-4.9-8.8-14.7
			c0-5.7,1-15.3,2.9-28.8c4.9-34.6,12.4-67.8,22.6-99.5c11.9-37.6,24.8-56.4,38.7-56.4c9,0,13.5,5,13.5,15c0,8.2-2,17.3-5.9,27.3
			c-0.6,1.8-0.9,3.1-0.9,4.1C883.5,836.2,883.9,836.8,884.9,836.8z"/>
	</g>
	<path d="M826.3,595.5c-6.3-15.5-21-21.5-37.5-15.5c-7.7,2.8-13.4,9-16.9,13.3c-3.6,4.4-6.6,9.1-9.3,13.6
		c-6.8,11.1-12,20.6-16.3,29.8c-1.1-5.5-2.8-11-5.2-16.9c-4.8-12-11-21.7-19-29.6c-9.8-9.7-18.7-15.1-29-17.3
		c-18.7-4.2-34.9,4.7-43.3,23.5c-4.1,9.1-4.9,19.4-2.4,31.5c2.8,14.1,8.7,26.9,14.1,37.5c5.1,10.1,11,20.2,18,31.1
		c8.3,12.8,17,25.6,25.4,38l3.1,4.6c4.4,6.5,9,13,13.4,19.4l2.6,3.8c3,4.2,6.3,7.3,10.1,9.2c2.2,1.1,4.4,1.7,6.5,1.7
		c4.4,0,8.4-2.4,10.9-6.8c2.8-5,6.2-10,9.4-14.8c2.7-4,5.4-8.1,7.9-12.3c2.6-4.3,5.4-8.6,8.2-12.7c2.1-3.1,4.3-6.4,6.3-9.7
		c4.5-7.2,8.9-14.7,12.8-21.3c1.3-2.3,2.7-4.5,4-6.8c5.1-8.5,10.3-17.3,14.8-26.5c6.8-13.9,11.1-25.7,13.5-37.2
		C830.8,614.7,830.1,604.7,826.3,595.5z M744,750.2c-0.2-0.4-0.4-0.8-0.7-1.3c-0.4-0.8-0.9-1.6-1.4-2.4c-2-3.1-4-6.2-5.9-9.3
		c-4.7-7.3-9.5-14.9-14.5-22.3c-4-5.9-7.9-12.1-11.6-18c-1.4-2.2-2.7-4.4-4.1-6.5c-7.5-11.8-13.3-21.8-18.4-31.4
		c-5.6-10.7-9.4-19.1-12.1-27.4c-3.1-9.3-4.2-17.6-3.4-25.3c0.6-4.9,5.8-12.9,9.9-13.7c1.4-0.3,2.8-0.4,4.2-0.4c1.5,0,3,0.2,4.4,0.5
		c4.8,1.2,9.3,3.6,14.7,8c5.3,4.2,9.9,9.8,14.1,17c4.7,8.1,8.2,17.5,10.6,29c0.1,0.7,0.3,1.3,0.4,2c0.8,4,1.7,8.6,4.5,12.6
		c0,0.1,0,0.1,0,0.2c0,4.2,2.3,7.1,6.2,7.8c3.8,0.7,8.2-2.2,9.1-6c0.4-1.9,1.3-3.6,2.3-5.5c0.6-1.2,1.2-2.5,1.7-3.8
		c2.7-6.8,6.5-13.2,10.1-19.1c5.2-8.6,11.5-16.9,18.6-24.8l1.2-1.3c3.3-3.7,6.4-7.2,10.6-9.1c3.3-1.5,8.1-3,12.2-1.1
		c4,1.9,5.9,6.3,6.7,9.8c1.2,4.5,1,9.2,0.6,13.6c-0.9,11.3-5.5,21.7-10.4,32.3c-4.1,8.8-9,17.4-13.6,25.8l-0.9,1.6
		c-3.9,7-8.6,15.3-14.1,23.4c-2.5,3.7-4.9,7.4-7.2,11.1c-2.7,4.2-5.5,8.5-8.3,12.7C753.5,737.6,748.7,744.2,744,750.2z"/>
</g>
</svg>


