<?xml version="1.0" encoding="utf-8"?>
<!-- Generator: Adobe Illustrator 22.1.0, SVG Export Plug-In . SVG Version: 6.00 Build 0)  -->
<svg version="1.1" xmlns="http://www.w3.org/2000/svg" xmlns:xlink="http://www.w3.org/1999/xlink" x="0px" y="0px"
	 viewBox="0 0 1001.4 909.6" style="enable-background:new 0 0 1001.4 909.6;" xml:space="preserve" width="500" height="500">
<g>
	<g>
		<g>
			<path d="M995.9,238.9c-3.7,0-6.7,3.8-8.8,11.4c-12.9,46-28.2,81.4-45.9,106.2c-17.7,24.9-33.3,37.3-46.8,37.3
				c-14.3,0-21.4-14.3-21.4-42.9c0-20.2,2.6-42.4,7.9-66.6c17.4-2.1,33.9-8.8,49.6-20c21.3-15.1,32-33.1,32-54
				c0-12.5-4.9-23.5-14.8-33c-9.9-9.5-21.4-14.2-34.5-14.2c-25.4,0-45.9,19.6-61.3,58.7c-6.2,15.8-11,32.4-14.4,49.8
				c-10.6,37.3-21,68.9-31.2,94.8c-12,30.6-21.2,45.9-27.4,45.9c-8.6,0-13.8-7.3-15.7-21.9c-1.9-14.6-2.8-28.3-2.8-41.2
				c0-49.3,7.2-107.8,21.7-175.5c14.7-1.4,29.1-6.4,43.1-15c23.9-14.3,41.6-35,53.1-62.2c6.5-15.5,9.7-32.1,9.7-49.9
				c0-14.5-5.8-26.3-17.3-35.5C861,3.7,850,0,837.7,0c-17,0-33,9.1-47.8,27.3c-22.5,27-40.6,67.7-54.3,122.1
				c-4.1-2.7-7.8-6.1-11.2-10c-11.3-13.3-17-29.5-17-48.7c0-6.3,0.8-11.8,2.3-16.7c1.6-4.9,2.3-9.9,2.3-15c0-4.9-1.2-8.7-3.7-11.3
				c-2.4-2.6-5.2-4-8.4-4c-9.6,0-14.4,7.3-14.4,22c0,20,3.5,38.2,10.6,54.6c8.4,19.6,20.4,34,36.1,43.1c-2.5,10.8-4.8,21.8-6.8,33.2
				c-8.8-8.6-18.8-12.9-29.9-12.9c-29.5,0-53.6,30.5-72.2,91.6c-4.5,14.6-7.8,28.1-10.1,40.5C595.4,370.6,580.9,398,570,398
				c-4.1,0-6.2-5.6-6.2-16.7c0-19.4,3-47.2,9.1-83.4c5.3-31.9,7.9-51.8,7.9-59.9c0-8-5.3-14.2-15.8-18.5c-6.7-2.9-11.2-4.4-13.5-4.4
				c-4.7,0-8.4,3.8-11.2,11.4c-2.9,7.7-5.8,18.9-8.5,33.6c-11.7,42.4-23.4,77.8-35.3,106.2c-12.8,30.6-22.5,45.9-28.9,45.9
				c-2.3,0-4.4-1.7-6-5.1c-1.7-3.4-2.5-7.3-2.5-11.6c0-18.4,2.2-37.6,6.6-57.5c4.4-20,8.9-38.3,13.4-54.9
				c6.5-23.9,9.7-38.7,9.7-44.6c0-12.9-6.9-23.6-20.8-32c-6.3-3.7-13.1-7.3-20.4-10.7c-7.3-3.4-14.3-7.2-21-11.3
				c3.7-18,5.6-31.3,5.6-39.9c0-16.2-6.3-24.4-18.8-24.4c-5.7,0-10.5,1.9-14.5,5.6c-4,3.7-7,8.3-9.1,13.8
				c-2.1,5.5-3.1,10.8-3.1,15.8c0,10.6,5.8,20.7,17.3,30.5l7.9,6.5c-3.5,14.5-8.6,33.8-15.3,57.8c-6.9,24.5-17.9,44.3-33.2,59.6
				c-4.7,4.7-9.5,9.1-14.4,13.2c-3.9-41.7-29.5-65.7-76.6-72.2c30.9-18,61.5-50.7,91.9-98c20.5-31.9,30.8-61.5,30.8-88.9
				c0-18.4-5.8-33.7-17.3-45.8C366.2,6.1,351.5,0,333.7,0c-14.3,0-29.1,5.4-44.3,16.3c-15.3,10.9-29.7,27.8-43.4,50.9
				c-7.4,12.7-14.3,27.3-20.5,43.7c-1-30.3-8.1-55.9-21.4-76.6C189.3,11.4,165.1,0,131.5,0c-23.9,0-45.3,8.9-64.1,26.7
				C48.5,44.5,33.3,66.3,21.7,92.2C7.2,124.4,0,155.6,0,185.5c0,51.3,19.3,76.9,57.8,76.9c14.3,0,27.2-4.8,38.7-14.5
				c11.5-9.7,21.2-21.9,29.1-36.5c11.5-22.1,17.3-43.9,17.3-65.5c0-26.4-8.1-43.6-24.4-51.7c-2.9-1.4-5.4-2.1-7.3-2.1
				c-3.7,0-5.6,1.7-5.6,5c0,1.8,0.9,3.5,2.6,5.3c7.8,8.2,11.7,21.3,11.7,39.3c0,20.4-4.8,41.1-14.4,62.2
				c-12.9,28.2-28.9,42.3-47.8,42.3c-17.2,0-25.8-13.9-25.8-41.7c0-20.9,4.7-45.3,14.1-73.1c11.7-35.4,26.5-64,44.3-85.7
				c15.8-19.6,31.3-29.4,46.4-29.4c9.2,0,16.6,4.7,22.3,14.1c9.8,16.4,14.7,38.4,14.7,65.7c0,30.9-2.7,61.8-8.2,92.7
				c-5.3,29.7-11.3,58.5-17.9,86.3c-5.5,23.5-10.2,46-14.2,67.5c-4,21.5-6,42.2-6,61.9c0,30.5,8.5,51.8,25.5,64
				c4.5,3.1,8.3,4.7,11.4,4.7c2.9,0,5.4-0.7,7.5-2.1c2.1-1.4,3.1-3.3,3.1-5.9c0-3.7-0.3-7.9-0.9-12.6c-0.6-4.7-0.9-8.5-0.9-11.4
				c0-21.3,7-61.6,21.1-120.9c8.8-37.2,15.7-69.7,20.8-97.4c7.2-40.7,13.8-70.5,19.7-89.5c12.5-39.9,30.7-71.9,54.6-96
				c12.1-12.3,24.3-18.5,36.4-18.5c13.1,0,19.7,11.1,19.7,33.2c0,20.9-6.9,46.3-20.5,76c-13.7,29.7-29.5,56.8-47.3,81.3
				c-12.1,16.8-24.4,29.6-36.7,38.4c-17.6,0-26.4,4.1-26.4,12.3c0,4.5,3.9,6.7,11.7,6.7c9.2,0,18.5-2.2,27.9-6.7
				c15.8,2.2,27.5,7.7,35.1,16.7c7.5,9,11.3,20.2,11.3,33.5c0,15.5-2.7,30.9-8.2,46.4c-12.1,5.7-24.2,10.8-36.1,15.3
				c-13.9,5.3-26.4,10.6-37.6,15.8c-11.2,5.3-20.1,11.3-26.9,17.9s-10.1,14.8-10.1,24.4c0,7.4,2.2,14.2,6.5,20.3
				c4.3,6.1,9.5,11,15.7,14.7c6.2,3.7,12.2,5.6,18.1,5.6c21.5,0,42-6.5,61.5-19.4c19.5-12.9,35.4-29.7,47.7-50.5
				c11.3-19,17.5-39.2,18.5-60.8c8.6-6.5,16.8-13.8,24.7-22c16-16.4,27.9-37.9,35.5-64.3c5.5-20.5,10-38.4,13.5-53.7
				c4.5,3.3,8.6,6.7,12.3,10c4.7,4.3,7,9,7,14.1c0,6.5-3.1,22.6-9.4,48.4c-10.6,43.6-15.8,73.9-15.8,90.7c0,21.7,4.6,37.8,13.8,48.3
				c9.2,10.5,21.3,15.7,36.4,15.7c7.4,0,15-5.1,22.7-15.3c7.7-10.2,16.2-27.9,25.5-53.1c2.2-5.8,4.4-12.2,6.7-19.1
				c0,2-0.1,4-0.1,5.9c0,21.7,4.6,38.3,13.9,49.7c9.3,11.4,20.5,17.2,33.6,17.2c14.4,0,27.9-15.1,40.6-45.3
				c1.3,10.3,3.9,19.7,7.8,28.2c6.9,14.9,17.1,22.3,30.8,22.3c18.2,0,34.2-17.8,48.1-53.4c5.7-14.5,12.3-34.8,20-61
				c0.8,51.9,9,87.6,24.7,107.1c8.8,11.2,21,16.7,36.7,16.7c7.4,0,14.8-5.1,22.2-15.3c7.3-10.2,15.5-27.9,24.4-53.1
				c2-5.6,4-11.6,6.1-18.2c0.7,14.4,5.8,28.5,15.2,42.2c11.7,17,27.7,25.5,47.8,25.5c42.5,0,77.8-51.6,106-154.7
				c0.8-2.7,1.2-5.4,1.2-7.9C1001.4,241.3,999.6,238.9,995.9,238.9z M911,202.2c6.8-10.8,13.8-16.1,20.8-16.1c3.5,0,6.4,2.2,8.7,6.5
				c2.2,4.3,3.4,10,3.4,17c0,18.4-8.4,33.7-25.2,45.8c-10.8,7.8-22.4,13.1-34.9,15.9C891.2,241.7,900.3,218.7,911,202.2z
				 M823.9,45.5c10.2-19.2,20.4-28.8,30.8-28.8c9.6,0,14.4,7.9,14.4,23.8c0,36.6-9.8,66.2-29.4,88.9c-5.5,6.5-11.7,11.8-18.8,16.1
				c-11.5,7.2-23.5,11.7-35.8,13.5C796.1,111.7,809,73.9,823.9,45.5z M248.6,428.2c-14.1,14.3-26.7,21.4-37.9,21.4
				c-8.6,0-12.9-5.1-12.9-15.3c0-7.8,2.8-14.6,8.4-20.3c5.6-5.7,13.5-11,23.6-15.8c7.2-3.3,25.5-11,54.9-22.9
				C274.7,396.3,262.7,413.9,248.6,428.2z M415.9,175.8c-7.2-7.4-10.9-16-10.9-25.8c0-5.3,0.7-10,2.1-14.2c1.4-4.2,3.4-6.3,6.2-6.3
				c4.3,0,6.5,5.6,6.5,16.7C419.7,153.8,418.4,163.7,415.9,175.8z M715.9,252.1c0.8,0,1.9-0.5,3.2-1.5l-0.6,10.6
				c-11.5,42.5-25.1,80.5-40.8,114.2c-8.6,18.6-17.1,27.9-25.5,27.9c-5.9,0-8.8-4.9-8.8-14.7c0-5.7,1-15.3,2.9-28.8
				c4.9-34.6,12.4-67.8,22.6-99.5c11.9-37.6,24.8-56.4,38.7-56.4c9,0,13.5,5,13.5,15c0,8.2-2,17.3-5.9,27.3
				c-0.6,1.8-0.9,3.1-0.9,4.1C714.4,251.5,714.9,252.1,715.9,252.1z"/>
		</g>
		<path d="M653.9,107.7L627,80.8c-0.9-0.9-2.2-1.5-3.6-1.5h-100c-1.4,0-2.6,0.5-3.6,1.5l-26.9,26.9c-0.2,0.2-0.4,0.5-0.6,0.8
			l-0.1,0.2c-0.1,0.2-0.2,0.4-0.3,0.6l-0.1,0.3c-0.1,0.2-0.1,0.4-0.2,0.6c-0.1,0.3-0.1,0.7-0.1,1c0,0.3,0,0.7,0.1,1
			c0,0.2,0.1,0.4,0.1,0.5l0.1,0.4c0.1,0.2,0.2,0.4,0.3,0.5l0.2,0.4c0.2,0.3,0.4,0.5,0.6,0.8l76.9,76.9c1,1,2.2,1.5,3.6,1.5
			c1.4,0,2.6-0.5,3.6-1.5l76.9-76.9C655.9,112.9,655.9,109.7,653.9,107.7z M615.2,116.3h22.9l-46.3,46.3L615.2,116.3z M603.9,116.3
			l-30.4,59.9l-30.4-59.9H603.9z M508.7,116.3h23.1l23.8,46.9L508.7,116.3z M549.2,89.4l-16.3,16.8h-24.1l16.8-16.8H549.2z
			 M546.9,106.2l16.3-16.8h20.6l16.3,16.8H546.9z M614.3,106.2L598,89.4h23.4l16.8,16.8H614.3z"/>
	</g>
	<g>
		<path d="M215.5,506.3c-4.3-3.5-9.6-5.2-15.7-5.2H52.7c-6.1,0-11.4,1.8-15.7,5.2c-4.6,3.7-7,8.5-7,14s2.4,10.3,7,14
			c4.3,3.5,9.6,5.2,15.7,5.2H102c0,161.5,1.2,279.7,3.4,351.3c0.3,5.4,2.8,10.1,7.3,13.7c4.3,3.4,9.5,5.1,15.6,5.1
			c6.4,0,11.7-1.9,15.8-5.5c4.2-3.8,6.5-8.7,6.5-14.2c0-9.5-0.6-34.5-1.7-76.6c-1.1-40.7-1.7-132.8-1.7-273.7h52.7
			c6.1,0,11.4-1.8,15.7-5.2c4.6-3.7,7-8.5,7-14C222.5,514.9,220.1,510,215.5,506.3z"/>
		<path d="M368.3,705.7c15.1-19.3,26.6-41,34.2-64.5c7.5-23.4,11.3-45.6,11.3-66c0-19.8-5-36.7-14.8-50.3
			c-11.2-15.8-27.5-23.8-48.2-23.8c-27.3,0-51,12.8-70.6,38.1v-18.9c0-5.5-2.5-10.4-7.2-14.1c-4.4-3.4-9.6-5.2-15.4-5.2
			c-6.1,0-11.4,1.7-15.7,5.2c-4.7,3.7-7.2,8.5-7.2,14.1c0,171.5,1.1,296.2,3.4,370.5c0.3,5.4,2.8,10.1,7.2,13.5
			c4.2,3.3,9.5,4.9,15.8,4.9c6.4,0,11.6-1.8,15.6-5.2c4.2-3.6,6.4-8.3,6.4-13.6l-1-57.8c1.4,1.9,2.9,3.8,4.3,5.6
			c20.5,25.9,42.6,39.1,66,39.1c21.5,0,40.6-13,56.6-38.4c1.8-2.7,2.7-5.8,2.7-9.3c0-8.2-4.7-14.4-13.1-17.4
			c-3.2-1.2-6.5-1.8-9.8-1.8c-8.6,0-15.5,3.5-20,10.4c-4.6,7.4-9,12.8-13.1,15.9c-2.3,1.9-3.4,2.1-3.3,2.1c-5.1,0-14.2-4-28.7-22.7
			c-13.3-17.2-25-36.9-34.8-58.7C319.7,750.9,346.4,733.5,368.3,705.7z M350.8,539.6c4.3,0,7.7,1.8,10.4,5.5
			c4.9,7.3,7.5,17.4,7.5,30.1c0,17-3.2,35.6-9.5,55.2c-6.3,19.5-15.7,37.5-28,53.4c-14.5,18.6-31.4,30.6-50.3,35.7
			c0.1-21.2,1.4-43.9,4-67.4c3.8-34.6,13.8-63.6,29.7-86.4C326.6,548.3,338.8,539.6,350.8,539.6z"/>
		<path d="M484.1,501.1c-6.2,0-11.6,1.6-15.9,4.9c-4.6,3.5-7.1,8.3-7.4,13.9c-0.8,23.7-2.1,53.5-3.7,88.4
			c-5.5,112.1-8.3,207-8.3,282c0,5.3,2.4,10.1,6.9,13.8c4.3,3.6,9.6,5.4,15.7,5.4s11.4-1.8,15.7-5.4c4.5-3.8,6.9-8.5,6.9-13.8
			c0-76.2,2.8-170.6,8.3-280.5c2.5-47.2,3.7-77.3,3.7-89.3c0-5.5-2.2-10.2-6.5-14C495.5,503,490.2,501.1,484.1,501.1z"/>
		<path d="M708.6,705.3C724.1,686,736,664.3,744,641c8-23.3,12-45.4,12-65.8c0-19.8-5-36.8-14.8-50.5c-11-15.6-27.3-23.6-48.2-23.6
			c-26.4,0-49.4,11.8-68.4,35.2v-15.9c0-5.5-2.5-10.4-7.2-14.1c-4.4-3.4-9.6-5.2-15.4-5.2c-6.1,0-11.4,1.8-15.7,5.2
			c-4.6,3.7-7,8.5-7,14c0,76.2-3.1,170.5-9.2,280.5c-2.1,34.3-3.1,64.3-3.1,89.1c0,5.6,2.3,10.5,6.7,14.3c4.2,3.6,9.5,5.4,15.6,5.4
			c106.5,0,160.5-23.8,160.5-70.9c0-13.5-5-27.2-14.9-40.9c-16.3-22.3-39.2-41-68.3-55.7C681.9,733.2,696,720.8,708.6,705.3z
			 M613.1,870.8l5-106.3c16.2,4.8,33.1,13.7,50.3,26.5c10.7,7.8,19.5,16.2,26.3,25c6.4,8.2,9.6,15.9,9.6,22.8
			C704.3,858,672.8,869,613.1,870.8z M619.9,719.2c1.8-46.6,3.8-74.6,6.1-83.2c6.8-27.5,17.1-51.2,30.7-70.4
			c12.1-17.3,24.3-26,36.3-26c4.3,0,7.7,1.8,10.4,5.5c4.9,7.3,7.5,17.4,7.5,30.1c0,16.8-3.4,35.2-10.1,54.7
			c-6.7,19.5-16.5,37.4-29.2,53.3C656.3,701.8,638.9,713.9,619.9,719.2z"/>
		<path d="M964.2,517.8c-4.4-3.4-9.7-5.2-15.8-5.2c-13.9,0-34-1.8-59.8-5.4c-28.1-4-52.1-6-71.4-6c-6.1,0-11.4,1.8-15.7,5.2
			c-4.6,3.7-7,8.5-7,14c0,131.2,2.3,232.8,6.8,302c2.8,42.2,10.4,68,23.3,78.8c6.5,5.6,14.3,8.5,23.4,8.5c13.3,0,28.5-2.1,45.3-6.1
			c15.5-3.7,34.3-9.1,55.9-16.1c9.4-3,14.6-9.4,14.6-18.3c0-7.2-2.9-19.2-22.3-19.2c-2.6,0-5.4,0.5-8.3,1.5
			c-37.1,12.1-64.6,18.6-81.8,19.4c-0.3-1.5-0.7-3.9-1.2-7.6c-1.7-11-3.1-25.8-4.3-44.1h55.8c6.1,0,11.4-1.8,15.8-5.4
			c4.7-3.8,7.1-8.6,7.1-13.9c0-5.5-2.5-10.4-7.2-14.1c-4.4-3.4-9.7-5.2-15.8-5.2H844c-2.5-57.2-3.9-137.9-4.1-240.2
			c11.6,0.8,25.6,2.4,41.8,4.6c28.1,4,50.5,6,66.7,6c6.1,0,11.4-1.8,15.8-5.4c5.9-4.8,7.1-10.2,7.1-13.9
			C971.4,526.3,968.9,521.4,964.2,517.8z"/>
	</g>
</g>
</svg>


