<?xml version="1.0" encoding="utf-8"?>
<!-- Generator: Adobe Illustrator 23.0.2, SVG Export Plug-In . SVG Version: 6.00 Build 0)  -->
<svg version="1.1" id="Слой_1" xmlns="http://www.w3.org/2000/svg" xmlns:xlink="http://www.w3.org/1999/xlink" x="0px" y="0px"
	 viewBox="0 0 864 864" style="enable-background:new 0 0 864 864;" xml:space="preserve">
<path d="M604.9,133.3c-5.5,0.4-10.1,1.4-15,3.4c-9.4,3.8-17.2,9.3-23.4,16.7c-1,1.2-2.3,2.6-2.9,2.9c-1,0.7-1.4,1.5-0.8,1.8
	c0.1,0.1,1.7-0.1,3.6-0.5c5.3-1,13.3-1.8,16.9-1.6c4.2,0.2,9.1,1.3,18.9,4.3c4.3,1.3,11.3,3.1,15.1,3.9c2.3,0.5,4.5,0.7,7.7,0.8
	l4.4,0.2l-2.5,0.2c-3.7,0.3-11.6,1.4-15.5,2.2c-15.7,3-29.6,8.8-43.6,18c-7.1,4.7-10.5,5.5-21.4,5.2c-3.2-0.1-7.1-0.3-8.9-0.5
	c-10.6-1.3-22.7-1.1-30.2,0.4c-5.3,1.1-11.4,3.6-17.5,7.2c-4.2,2.5-5.9,3.7-16.5,11.4c-8.4,6.1-10.2,7.4-11.8,8.2
	c-1.5,0.7-1.5,1.5-0.1,1.3c0.2,0,1.2-0.4,2.2-0.8c2.1-0.9,5.2-1.6,9.8-2.2c1.9-0.2,5.1-0.7,6.9-0.9c1.9-0.3,4.9-0.6,6.8-0.8
	c1.9-0.2,5.8-0.6,8.7-0.9s9.4-0.9,14.3-1.3c16.2-1.2,18.8-1.7,26.3-5.3c2-1,3.7-1.7,3.7-1.7c0,0.1-1.2,1.1-2.7,2.3
	c-6.8,5.5-11.5,10.1-14.6,14.1c-1.4,1.8-2.1,2.5-4.5,4c-5.9,3.9-20,14.7-23.9,18.3c-4.6,4.4-9.8,10.7-13.3,16.3
	c-5.3,8.6-10.1,20.9-13.5,35.2c-1.6,6.5-2.5,12.3-3.5,22.9c-0.5,5-1.3,9.6-2.2,13.8c-0.4,3.2-0.1,4,0.3,4.1c0.6,0.2,1.6-1.4,3.8-4.1
	c0.9-1.1,1.9-2.2,4.1-4.4c1.9-1.9,3.9-3.7,7.3-6.6c8.2-7,11.9-10.7,15.8-15.7c5.7-7.4,9.9-16.7,14.5-32.5
	c3.6-12.4,7.8-25.3,11.3-34.7c1.8-4.8,5.8-13.3,7.1-15c2.8-3.6,8.2-8.8,16.8-16.3c6.1-5.2,8.7-7.2,13.5-10c2.5-1.5,5.4-3.3,6.6-4
	c2.7-1.8,6.2-3.7,7.9-4.5l1.4-0.6l-1.2,1.4c-3.7,4.3-7.1,11.4-9.4,19.1c-2.2,7.5-5.6,22.2-7.6,33.1c-2.4,13-3.8,16.6-8,21.2
	c-1.3,1.4-2.3,2.7-2.3,2.9c0.3,1.4,2.8-0.5,8.5-6.1c10.4-10.4,18.2-22.5,21.6-33.8c2.4-7.9,3.3-12.9,4-22.9c0.3-4.7,0.5-5.8,1-7.3
	c1.1-2.8,3.3-6.4,5-8c1.8-1.7,6.9-5,9.1-6c3.3-1.5,23.1-7.6,31.9-9.9c4-1,11.9-2.7,12-2.5c0.1,0.1-1,0.5-2.3,1.1
	c-8.3,3.5-15.1,9.6-24,21.1c-4.5,5.8-10,12.1-14.1,16.2c-4.9,4.7-7.5,6.9-10.1,8.2c-2,1-2.3,1.7-0.8,1.6c1.1-0.1,10.3-3.4,14.6-5.2
	c8.5-3.7,18.3-9.1,21.7-11.9c2.6-2.2,6.5-6.3,10.8-11.4c9.8-11.6,14.2-16.1,18.8-19.1l1.1-0.7l3.1,0.4c18.1,2.5,38.7,10.8,54.8,22.1
	c4.2,2.9,9.9,7.2,13.3,10c4.5,3.6,4.6,3.7-2.6-0.8c-9-5.7-20.5-9.4-32.7-10.8c-3.7-0.4-11.1-0.4-13.7,0c-5.2,0.8-10.7,2.6-14.6,4.9
	c-1.1,0.7-4.7,3.1-8,5.4c-9.1,6.4-10.9,7.5-20.4,11.7c-2.7,1.2-4.9,2.3-4.8,2.4c0.2,0.6,11.7,3,17.7,3.7c8,0.9,26.2,1.4,37.7,1
	c9.8-0.3,15.3-1,24.4-2.8c14.2-2.8,16.2-2.8,25.3-0.4c1.6,0.4,2.9,0.9,2.9,1c0,0.1-0.5,0.3-1.1,0.5c-1.4,0.4-5.3,2.3-7.3,3.6
	c-5.6,3.6-13.7,11.4-22.9,22.4c-4.6,5.5-6.9,7.7-10.1,9.9c-4,2.7-5.7,3.5-8,4c-2.9,0.6-2.8,1,0.1,1.6c1.7,0.4,3,0.4,6,0.3
	c3.3-0.1,4.3-0.2,7.8-1.1c11-2.8,20.5-8.5,25.6-15.3c0.8-1,2.7-4,4.3-6.7c4.9-8.3,5.7-9.4,7.7-12.3c1.4-2,2.3-3,3.2-3.4
	c0.6-0.4,1.3-0.9,1.4-1.1c0.4-0.7,6,6.9,9.7,13c5.3,8.8,10.6,20.8,14.5,32.6c8.5,26.2,12,59.7,9.4,90.7c-0.8,9.1-1.5,13.7-4,23.5
	c-1.4,5.4-4.5,16.3-4.6,16.2c-0.1-0.1,0.1-1.3,0.3-2.7c0.8-4.6,1-7.2,1.1-13.5c0.4-17.7-2.7-32.6-9.9-47c-2-3.9-6.6-11.5-11.5-18.9
	c-4.4-6.5-5.5-8.6-7.7-13.6c-1.2-2.8-1.6-3.3-2.3-3.3c-0.7,0-0.9,0.4-1.6,3.4c-0.4,1.4-1.8,5.3-3.1,8.6c-3.5,8.7-5.1,13.7-6.6,20.7
	c-1.4,7-1.7,9.8-1.9,17.1c-0.3,15.7,1.4,21.8,11.3,39.6c1.9,3.4,4.9,9.1,6.8,12.7c1.9,3.6,4.4,8.3,5.7,10.6
	c4.3,7.4,6.9,13.8,6.9,16.5c0,0.5-0.3,1.9-0.8,3.3c-0.4,1.4-1,3.5-1.3,4.7c-0.7,2.9-3.6,10.6-6.2,16.7c-1.1,2.7-2.3,5.6-2.6,6.5
	c-0.7,2.1-6.1,12.5-8.8,16.9c-6.2,10.3-12.8,19.3-29.2,40.2c-2.6,3.3-7.9,10.1-11.7,15.1c-6.7,8.7-16,20.5-16.2,20.5
	c-0.1,0,0.4-1.2,1-2.7c2.7-6.4,4.7-14.2,6-23.1c0.4-2.5,1.4-10.4,2.2-17.5c4.1-33.6,5.6-41,10.4-52.1c1.3-2.9,1.6-3.9,1.5-4.5
	c-0.2-0.9-0.9-1.1-1.4-0.4c-0.2,0.2-1.8,1.6-3.5,3c-2.9,2.5-21.5,20.9-25.3,25.2c-4.4,5-9.2,12.2-12.1,18.1
	c-4.8,9.8-7.6,22-7.6,33.3c0,6.4,0.6,10.9,2.7,20.1c1.3,5.5,2.1,10.4,2.6,14.6c0.4,3.5,0.5,9.9,0.3,11.4c-0.1,0.5-1,1.7-2.8,3.6
	l-2.7,2.8l-0.2-1.3c-0.7-5.2-2.3-10.4-5.1-16.5c-4.8-10.7-7.4-14.9-14.8-25c-5.2-6.9-6.5-9.3-9.4-15.9c-3.1-7.5-4.8-14-4.9-19.3
	c-0.1-2.2-0.2-3.4-0.4-3.5c-0.5-0.2-0.7,0.9-1.4,6.5c-0.9,7.2-1.1,10.7-0.7,16.1c0.3,5.5,0.8,8.4,2.1,15.2c1.9,9.2,3.4,14,7.2,21.5
	c2.5,5.1,4.6,8.4,7,11.3c1.6,1.9,9.2,11.2,10.6,13c0.5,0.7,1.4,2,1.9,3l1,1.8l-2.2,2.1c-10.4,9.9-13.3,12.6-18,16.7
	c-8.9,7.9-15.8,13.6-29.3,23.9c-2.9,2.2-8.5,6.5-12.4,9.6c-3.9,3.1-7.9,6.2-8.9,6.9l-1.7,1.3l1-1.1c5.2-6.3,8.4-11,11.3-16.8
	c2.4-4.9,3.2-7,6-16.2c3.7-12.1,4.1-13,8.5-22c5.4-11.1,8.1-17.5,10-23.5c0.5-1.6,1.3-3.7,1.6-4.5c0.6-1.3,0.6-1.6,0.3-1.9
	c-0.5-0.6-1.3-0.3-3,1.5c-0.9,0.9-2.6,2.3-3.9,3.2c-3.5,2.5-22.3,19.9-25.9,24.2c-3.7,4.2-10.1,12.7-11.8,15.3
	c-5.1,8.1-10,20.3-11.7,29.1c-0.4,2.1-1.1,6.8-1.6,10.4c-0.9,7.1-2,12.1-3.9,17.4l-1.1,3l-2.3,1.7c-8.4,6.2-15.2,11.6-27.5,21.8
	c-4.5,3.8-8.3,6.9-8.4,6.9c-0.1,0,0.2-1.2,0.7-2.7c1.4-5.1,2.5-12.3,2.9-19.6c0.3-4.4-0.3-10.9-2.4-25.4c-0.4-2.7-0.8-6.9-0.8-9.4
	c-0.2-3.8-0.3-4.7-0.6-5.1c-0.9-0.9-1.7-0.1-5.2,5.5c-3.4,5.5-7.7,14.2-9.9,20.5c-3.2,8.9-4.2,14.9-4.3,25.6c0,3.8-0.1,5.3-0.3,5
	c-2.2-3.7-7.1-9.9-11.1-13.9c-1.4-1.4-4.2-4-6.4-5.9c-4.5-3.9-6.3-6.1-7.8-9.1c-0.8-1.6-1.2-2.1-1.6-2.1c-0.7,0-0.9,0.8-0.9,4.3
	c-0.1,8.4,1.7,16.7,5,23c1.6,3.1,4.8,7.5,7.5,10.1c1.1,1.1,4.2,3.7,6.8,5.8c5.7,4.5,7.5,6.1,8.8,8l1,1.5l-0.9,0.7
	c-3.9,3.2-15.7,13-20.2,16.6c-3,2.4-6.7,5.6-8.2,6.9c-2.9,2.6-10.1,9.9-13.9,14c-1.8,2-5.8,5.6-6.1,5.6c-0.3,0-4.3-3.6-6.1-5.6
	c-3.8-4.1-11-11.4-13.9-14c-1.5-1.4-5.2-4.5-8.2-6.9c-4.9-4-17.2-14.1-20.2-16.6l-1.1-0.9l0.8-1.1c1.1-1.5,3.1-3.3,8.5-7.6
	c2.6-2.1,5.7-4.6,6.8-5.8c2.6-2.6,5.8-7,7.5-10.1c3.3-6.2,5.1-14.6,5-23c0-3.5-0.2-4.3-0.9-4.3c-0.4,0-0.8,0.5-1.6,2.1
	c-1.5,3-3.3,5.1-7.8,9.1c-2.1,1.9-5,4.5-6.4,5.9c-4,4.1-8.9,10.3-11.1,13.9c-0.2,0.3-0.3-1.2-0.3-5c-0.1-10.7-1.1-16.7-4.3-25.6
	c-2.2-6.3-6.5-15-9.9-20.5c-3.5-5.6-4.3-6.4-5.2-5.5c-0.3,0.4-0.4,1.3-0.6,5.1c-0.1,2.6-0.5,6.8-0.8,9.4c-2,14.5-2.7,21-2.4,25.4
	c0.4,6.8,1.5,14.5,2.7,18.8c0.3,1,0.5,1.9,0.4,1.9c-0.1,0.1-3.2-2.5-7.1-5.7c-11.3-9.4-16.6-13.7-26.7-21.2c-2.1-1.6-3.9-3-4.2-3.3
	c-0.6-0.6-2.1-5.2-3.1-9.5c-0.4-1.7-1.1-6-1.6-9.5c-0.4-3.5-1.1-8.1-1.6-10.3c-1.7-8.8-6.7-21-11.7-29.1
	c-1.7-2.7-8.1-11.1-11.8-15.3c-3.6-4.3-22.4-21.7-25.9-24.2c-1.3-0.9-3.1-2.3-3.9-3.2c-1.7-1.8-2.5-2.1-3-1.5
	c-0.3,0.3-0.2,0.7,0.3,1.9c0.4,0.8,1.1,2.8,1.6,4.5c1.9,6,4.6,12.4,10,23.5c4.4,9,4.7,9.9,8.5,22c1.3,4,2.7,8.4,3.2,9.8
	c2.2,5.8,5.8,12.4,9.4,17.2c1.1,1.5,2.2,2.9,2.4,3.2c0.5,0.7,1.1,1.2-7-5.3c-3.7-2.9-9-7-11.9-9.2c-19.8-15.1-28.1-22.3-47.6-40.9
	l-2.2-2.1l0.6-1.2c0.3-0.7,1.1-1.8,1.7-2.6c1.3-1.7,8.8-10.9,10.7-13.2c2.5-2.9,4.5-6.2,7-11.3c3.7-7.6,5.3-12.3,7.2-21.5
	c1.4-6.7,1.8-9.7,2.1-15.2c0.3-5.4,0.2-9-0.7-16.1c-0.7-5.5-0.9-6.6-1.4-6.5c-0.2,0.1-0.3,1.3-0.4,3.5c-0.1,5.3-1.7,11.8-4.9,19.3
	c-2.8,6.7-4.2,9-9.4,15.9c-7.5,10-10,14.3-14.9,25c-2.3,5-3.7,9.2-4.5,13.2c-0.3,1.7-0.7,3.1-0.8,3.1c-0.1,0-1.4-1.3-2.9-3l-2.8-2.9
	v-3.5c0-5.7,1-12.5,3-21.6c2.1-9.2,2.7-13.7,2.7-20.1c0-11.2-2.8-23.4-7.6-33.3c-2.9-6-7.7-13.2-12.1-18.1
	c-3.8-4.3-22.3-22.7-25.3-25.2c-1.7-1.4-3.3-2.8-3.5-3c-0.6-0.7-1.3-0.5-1.4,0.4c-0.1,0.7,0.2,1.6,1.5,4.5
	c4.8,11.1,6.3,18.5,10.4,52.1c2,16.5,2.7,21.1,3.8,26.3c0.9,4,2.7,10.2,3.8,12.7c0.3,0.7,0.4,1.2,0.4,1.2c-0.2,0-6.9-8.6-14.1-17.9
	c-3.9-5-9.1-11.8-11.7-15.1c-21.8-27.6-28.9-38.1-37.1-54.5c-4.8-9.7-12.3-27.1-11.9-27.9c0.1-0.2-0.1-1.5-0.3-2.9
	c-0.4-2.5-0.4-2.7,0.1-4.9c0.7-2.8,3.3-8.4,6.4-13.9c1.3-2.2,3.8-7,5.7-10.6c1.9-3.6,4.9-9.3,6.8-12.7c7.8-14.1,10.2-20.5,11.2-29.7
	c0.4-4.4,0.2-16-0.5-20.3c-0.8-4.9-1.8-9.7-3-13.8c-1.4-5-2-6.7-4.8-13.6c-1.3-3.3-2.7-7.2-3.1-8.6c-0.8-3-1-3.4-1.6-3.4
	c-0.8,0-1.1,0.5-2.3,3.3c-2.2,5.1-3.3,7.1-7.7,13.6c-9.1,13.6-13.3,21.3-16.3,30.1c-4.3,12.4-6.1,27.3-4.9,41.4
	c0.2,2,0.2,3.7,0.2,3.7c-0.2,0.2-3.3-11.6-4.7-18.3c-3.2-14.9-3.8-39.9-1.6-62c2.7-26.2,8.9-48.4,19.1-68.6
	c3.5-6.9,8.5-14.8,12.2-19.1l0.8-1l1.4,0.9c1,0.7,1.9,1.5,3.4,3.6c2,2.8,2.8,4,7.7,12.3c1.6,2.7,3.5,5.7,4.3,6.7
	c4,5.2,10.9,10,19.1,13.3c1.4,0.5,4.3,1.4,6.5,2c3.6,0.9,4.5,1,7.8,1.1c3,0.1,4.3,0,6-0.3c2.9-0.6,3-1.1,0.1-1.6c-2.3-0.5-4-1.3-8-4
	c-3.2-2.2-5.5-4.4-10.1-9.9c-9.3-11-17.3-18.9-22.9-22.4c-2-1.3-5.9-3.2-7.3-3.6c-0.6-0.2-1.1-0.4-1.1-0.5c0-0.1,1.3-0.6,2.9-1
	c9-2.5,11-2.5,25.3,0.4c9.1,1.8,14.6,2.4,24.4,2.8c11.5,0.4,29.7-0.1,37.7-1c6-0.7,17.5-3.1,17.7-3.7c0.1-0.1-2.1-1.2-4.8-2.4
	c-9.5-4.2-11.4-5.3-20.4-11.7c-6.7-4.8-9-6.1-12.7-7.6c-5.4-2.1-10.1-3-16.4-2.9c-6.8,0-12,0.7-18.9,2.4c-8.4,2.1-14.8,4.8-21.4,8.9
	c-1.9,1.2-3.9,2.4-4.3,2.7c-0.8,0.5-0.8,0.5-0.3,0c2.3-2.1,10.9-8.7,16.4-12.6c10-7,22.4-13.2,34.6-17.3c6.6-2.2,16-4.4,20.5-4.9
	l1.8-0.2l2.1,1.6c5.2,3.9,8.5,7.3,18,18.5c4.3,5.1,8.2,9.2,10.8,11.4c3.4,2.8,13.2,8.2,21.7,11.9c4.3,1.9,13.5,5.2,14.6,5.2
	c1.5,0.1,1.2-0.6-0.8-1.6c-2.6-1.3-5.2-3.5-10.1-8.2c-4.1-4.1-9.6-10.4-14.1-16.2c-9.9-12.9-16.8-18.6-27.3-22.5
	c-2.8-1-2.4-1.1,2.5-0.2c8.8,1.6,15.5,3.4,31.9,8.5c11.9,3.7,14.5,4.7,16.6,6.3c3.2,2.4,5.5,4.9,6.6,7.3c1.5,3.1,2,5.7,2.5,12
	c0.7,9.9,1.6,15,4,22.8c3.4,11.2,11.1,23.3,21.6,33.8c5.7,5.7,8.2,7.5,8.5,6.1c0-0.2-1-1.5-2.3-2.9c-4.2-4.6-5.6-8.2-8-21.2
	c-1.5-8.5-2.6-13.5-4.9-22.6c-2.3-9.4-3.3-12.8-5.1-17.2c-2.5-6.1-4.7-9.9-8-13.4c-2-2.2-2-2.2,1.6-0.5c5.2,2.4,18.1,10.1,20.1,11.9
	c1.4,1.3,4.5,5.3,8.7,11.1c3.5,4.9,4.2,6.5,8.7,20.9c3.5,11.5,7.1,20.8,9.6,25.2c5.8,10.3,12,17.2,24.6,27.3
	c2.6,2.1,5.5,4.4,6.5,5.3c1.8,1.5,2.7,1.9,2.9,1.1c0.1-0.2-0.5-2.2-1.3-4.4c-1.9-5.1-2.3-6.7-3.7-13.9c-0.7-3.3-1.5-6.8-1.9-8
	c-0.9-2.8-2.7-6.4-4.4-9c-0.8-1.2-1.7-2.7-2-3.3c-0.3-0.6-1.2-1.9-2-2.9c-0.8-1-3.2-4-5.2-6.7c-7-9.2-10.7-13.3-20.5-22.8
	c-4.6-4.5-7.2-7.2-8.2-8.6c-0.8-1.1-2.2-3-3.1-4.2c-0.9-1.1-1.7-2.3-1.8-2.5c-0.4-0.6,3.8,2.7,6.1,4.9c1.1,1.1,3.9,3.3,6.1,4.9
	c12.6,9.3,23.7,19.9,34.9,33.1c7.2,8.5,13.8,17,19.2,24.9c4,5.7,4.3,6.3,6.1,11.1c5.1,13.9,7.6,24.2,9.2,36.7
	c1.6,13.3,2.1,16.3,3.7,21c2.2,6.7,9.4,19.1,17.2,29.6c3.2,4.3,15.3,19.4,18.4,23.1c3.1,3.5,6.4,6.7,7.1,6.7c1.4,0,1.1-1.8-0.9-7.4
	c-0.6-1.6-1.6-5.9-2.7-10.8c-7.5-36.2-11.8-51.8-17.1-62.5c-4.6-9.2-10.2-16.8-17.7-24c-8.7-8.4-9.8-9.6-10.9-11.5
	c-6.6-12-16.7-26.3-28.5-40.2c-1.5-1.8-2.7-3.3-2.7-3.3c0-0.1,0.6,0.3,1.4,0.9c0.7,0.6,2.6,1.7,4.1,2.5c2.7,1.4,14.2,6.3,20.9,8.9
	c1.9,0.8,4.4,1.7,5.3,2.2c2.1,1,12.4,4.4,15.8,5.3c2.5,0.7,3.2,0.5,3.3-0.5c0.1-0.7-0.3-1.3-2.7-3.1c-1-0.8-4.9-4.5-8.6-8.2
	c-7.3-7.3-16.9-16-21.1-19.1c-2.5-1.9-3.9-2.6-11.7-6.3c-8.1-3.8-15.6-5.5-23.6-5.5c-2.5,0-4.6-0.2-5.7-0.4
	c-1.7-0.4-2.1-0.6-4.9-2.8c-8.3-6.6-24.1-17.1-34.7-23.1c-1.7-0.9-4.8-2.9-7-4.4c-17-11.6-33.2-17.8-53.3-20.6
	c-3.7-0.5-4.4-0.7-3.5-0.8c4.6-0.8,6.6-1.1,10.7-2.2c2.6-0.6,6.4-1.7,8.5-2.3c15.6-4.7,18.5-5.1,28.1-4.1c2.9,0.3,6.7,0.8,8.6,1.2
	c1.9,0.4,3.4,0.6,3.6,0.5c0.5-0.3,0.2-1.2-0.8-1.8c-0.6-0.4-1.9-1.7-2.9-2.9c-6.3-7.5-14.2-13.1-23.8-16.9
	c-6.2-2.4-11.4-3.3-19.3-3.3c-9.1,0-14.9,1-23.6,3.9c-6,2-10.6,4.1-15.5,7.3c-5.1,3.2-8.3,5.6-12.4,9.3c-4.3,3.9-8.4,7-10.8,8.2
	c-1.3,0.6-2.8,1.1-5.2,1.6c-4.5,0.9-10.6,2.6-16.7,4.7c-5.7,2-8.3,3-12.3,5.1c-1.6,0.9-2.9,1.5-2.9,1.4c0-0.1,0.4-0.7,1-1.4
	c2.5-3,5.5-7.9,7.1-11.5c1.5-3.5,2.2-5.7,4.2-12.5c1.7-6.1,2.8-9.5,4.3-12.9c0.6-1.4,0.6-1.6,0.3-1.9c-0.5-0.5-0.9-0.1-1.9,1.3
	c-0.9,1.4-5.3,5.9-8.6,8.8c-7.2,6.2-9.8,9.3-13.4,15.9c-2.6,4.7-4.1,8.3-9.1,20.9c-2.7,6.9-3.2,7.6-9.8,14.3
	c-7.4,7.6-15.6,16.9-19.7,22.4c-2.1,2.9-4.7,6.7-6.9,10.4l-1.7,3l-0.3-1c-0.1-0.5-0.9-3.5-1.7-6.5c-1.7-6.3-2.5-10.5-3.1-14.9
	c-0.5-3.6-0.9-9.8-0.9-12.7c0-2.1-0.4-3.1-1.3-3.1c-0.7,0-1.1,0.7-2.1,3c-0.5,1.1-2.5,5.1-4.5,8.9c-3.3,6.2-8.6,16.9-11,22.3
	c-2.6,5.9-4.3,11.6-5.2,18c-0.8,4.9-0.8,13.1-0.1,18c1.6,11.9,4.4,18.6,10.1,25.1l1.5,1.7l-0.5,5.9c-1.5,16.8-1.4,27.8,0.5,44.8
	c0.4,3.9,1.3,10.5,2,14.5c0.1,0.5-0.7-1.2-1.7-3.8c-2.2-5.7-3.4-8-7-13.5c-2.2-3.4-3.3-4.8-5.8-7.2c-1.7-1.7-4-3.6-5.1-4.4
	c-2.9-1.9-7.5-4.1-13-6.1c-10-3.7-14.9-5.8-16.9-7.2c-1.6-1.1-1.9-1.2-2.4-0.6c-0.3,0.3,0,0.8,1.4,2.5c2.1,2.7,4.1,4.6,8.2,7.7
	c3.5,2.7,6.8,6,8.7,8.8c1.8,2.7,5.1,9.2,7.1,14.1c3.4,8.2,6.6,13.8,11.6,20.3c2.5,3.3,8.1,8.9,10.9,10.9c2.4,1.7,6.8,4,8,4.3
	l0.8,0.2l0.7,4.5c4.1,25.9,12,52.5,23,77.6c1.1,2.5,1.9,4.6,1.9,4.6c-0.1,0.1-0.6-0.6-1.3-1.5c-2.2-2.9-8.8-10.1-14.9-16.4
	c-6.9-7-8.1-8.3-11.2-12.6c-4.8-6.5-8-12.3-9.6-17.4c-0.5-1.5-0.9-2.8-1.1-3c-0.4-0.4-1.8-0.4-2.5,0.1c-1.3,0.8-4.4,8.6-5.5,13.6
	c-0.6,2.8-0.7,13-0.1,17.1c0.8,5.7,2.8,12,5.4,16.3c2.7,4.6,10.6,14.5,15.6,19.5c3.9,4,10.8,9.2,19.7,15.1c7.7,5.1,12,7.6,22.1,12.7
	c8.6,4.4,11.1,5.7,11.7,6.5c0.2,0.2,0.5,0.4,0.7,0.4c0.6,0,2.5,2.2,6.6,7.7c15,20.2,34.2,41.8,65.9,73.9c6.1,6.2,7.1,7.3,4.9,5.5
	c-2.9-2.5-11.2-8.6-13.8-10.1c-5-3-10.9-5.2-18.3-6.6c-3.7-0.7-15.9-2.7-23.5-3.8c-12-1.7-16.3-2.6-19.7-3.8
	c-1.5-0.5-1.9-0.5-1.9,0.1c0,0.4,0.4,0.7,1.4,1.2c1.6,0.8,5.1,3,13.6,8.5c10.4,6.8,16.1,9.3,27.4,11.8c7.9,1.8,11.6,2.7,19.8,5.3
	c4,1.2,7.7,2.3,8.2,2.5c3.2,0.9,13,4.7,16.3,6.3c4.7,2.3,8.9,5.3,14.9,10.7c15,13.4,23.7,20.6,37.3,31
	c13.6,10.4,22.7,16.8,38.1,27.1c5.8,3.9,10.8,7.2,10.9,7.3c0.2,0.2-1.1-0.2-3.4-1.2c-1.1-0.4-4.3-2.4-8.4-5.1c-1.5-1-4.6-3-6.9-4.5
	c-2.3-1.5-6.4-4-9-5.7c-5.3-3.4-9.4-5.6-15.5-8.1c-7.8-3.3-13.4-5.2-21.1-7.4c-4.5-1.3-5.6-1.5-25-6.1c-6.7-1.6-13.7-3.3-15.5-3.8
	c-1.8-0.5-3.3-0.8-3.5-0.7c-0.6,0.3-0.2,1.2,1,2c2.3,1.6,7.3,5.9,9,7.8c0.9,1.1,3.5,4,5.7,6.6c8,9.3,17.4,18,25.7,23.7
	c5.9,4.1,11.5,6.9,17.7,9.1c6.5,2.2,10.6,2.9,18.7,2.9c7.3,0,11.6-0.3,20.3-1.5c5.9-0.8,8-0.9,11.7-0.9c4.1,0,4.8,0.1,7.1,0.7
	c3.7,1,4.7,1.5,9.8,5.3c8.6,6.3,22.4,17.2,24.2,19.2c0.6,0.7,1.5,1.4,2,1.5c0.8,0.3,1.8,1,1.3,1c-0.1,0-0.9-0.2-1.8-0.4
	c-4.3-1-17-1.2-21.9-0.3c-4.7,0.9-12.4,3.9-15.9,6.2c-4.3,2.9-8.3,7-11.6,11.9c-4,6-7,13.9-5.6,14.5c0.2,0.1,1.2-0.1,2.3-0.5
	c1.9-0.6,3.5-0.9,9.8-1.4c4.2-0.4,6.1-0.8,10.7-2.5c2.1-0.8,6.5-2.3,9.9-3.5c3.4-1.2,6.9-2.5,7.8-2.9c3.2-1.5,7-4.2,16.5-12.1
	c2.2-1.8,4.4-3.1,6-3.5c1-0.3,1.1-0.2,3.5,1.5c5.8,4.1,15.5,10.4,22.7,14.6c1.8,1,3.5,2.1,3.8,2.2c0.5,0.3,8.2,7.1,8.2,7.3
	c0,0.1-0.6,0.9-1.3,1.8c-1.8,2.4-3.4,5.1-4.1,7c-1,2.7-1.2,5.9-0.3,5.9c0.2,0,0.6-0.6,1-1.3c0.9-1.6,5.9-8.3,7.1-9.4l0.9-0.9
	l1.3,1.4c1.6,1.7,6.2,8,6.8,9.2c0.9,1.8,1.6,0.7,1.2-2c-0.4-2.9-2-6.4-4.9-10.1c-0.7-0.9-1.3-1.7-1.3-1.8c0-0.2,7.7-7,8.2-7.3
	c0.3-0.2,2-1.2,3.8-2.2c7.4-4.3,17.7-11,23.2-15l2.4-1.8l1.9,0.9c1,0.5,2.8,1.7,3.9,2.6c9.4,7.7,13.4,10.6,16.6,12.1
	c0.9,0.4,4.4,1.7,7.8,2.9c3.4,1.2,7.8,2.8,9.9,3.5c4.6,1.7,6.5,2.1,10.7,2.5c6.3,0.5,8,0.8,9.8,1.4c1,0.4,2.1,0.6,2.3,0.5
	c1.5-0.5-1.5-8.5-5.6-14.5c-3.3-4.9-7.3-9.1-11.6-11.9c-3.5-2.3-11.2-5.3-16.1-6.2c-2-0.4-3.8-0.5-9.9-0.5c-4.4,0-8.3,0.2-9.5,0.3
	c-1.1,0.2-2.1,0.3-2.1,0.2c-0.2-0.2,16.7-13.6,22.5-17.8c2.9-2.1,6.7-4.9,8.4-6.1c2.8-2,3.4-2.2,5.3-2.7c3.6-0.8,9.2-0.7,18,0.5
	c8.7,1.2,13,1.5,20.3,1.5c8.1,0,12.2-0.7,18.7-2.9c6.2-2.2,11.8-5,17.7-9.1c8.3-5.7,17.7-14.3,25.7-23.7c2.2-2.6,4.8-5.6,5.7-6.6
	c1.7-1.9,6.7-6.2,9-7.8c1.1-0.8,1.6-1.6,1-2c-0.1-0.1-1.7,0.2-3.5,0.7c-1.7,0.5-8.7,2.2-15.5,3.8c-19.4,4.6-20.5,4.9-25,6.1
	c-5.6,1.6-8.4,2.5-13.1,4.2c-10.1,3.7-16.5,6.8-22.6,10.6c-3.8,2.5-5.6,3.4-5.9,3.2c-0.1-0.1,1.2-1,2.8-2.2
	c15.1-10.4,34.8-25.5,48-36.8c4-3.4,6.8-5.9,20.2-17.9c3.9-3.4,4.2-3.7,7.7-5.4c3.1-1.5,13-5.3,16-6.2c0.5-0.1,4.2-1.3,8.2-2.5
	c8.2-2.5,11.9-3.5,19.8-5.3c11.4-2.5,17-5,27.4-11.8c8.5-5.5,11.9-7.7,13.6-8.5c0.9-0.5,1.4-0.8,1.4-1.2c0-0.6-0.4-0.7-1.9-0.1
	c-3.4,1.2-7.7,2-19.7,3.8c-20.6,3-29,4.7-34.6,6.9c-4.9,2-6.8,3.1-12.7,7.3l-3.9,2.8l10.7-11.1c16.3-16.9,21.8-22.7,30.9-33
	c11.9-13.4,21.2-24.9,30.9-38.4c0.8-1.1,1.9-2.1,2.7-2.7c0.8-0.5,5.4-2.9,10.2-5.4c10.1-5.1,14.5-7.6,22.2-12.7
	c8.9-5.9,15.8-11.1,19.7-15.1c5-5,12.9-14.8,15.6-19.5c2.6-4.3,4.6-10.5,5.4-16.3c0.5-4,0.5-14.3-0.1-17.1c-1.1-5-4.2-12.8-5.5-13.6
	c-0.7-0.4-2.1-0.5-2.5-0.1c-0.1,0.2-0.6,1.5-1.1,3c-1.6,5.1-4.8,10.9-9.6,17.4c-3.1,4.2-4.3,5.6-11.2,12.6
	c-3.3,3.4-7.8,8.1-9.9,10.5c-2.1,2.4-3.9,4.4-4,4.4s0.1-0.4,0.3-0.9c11.5-26.9,18.5-50.4,22.7-76.2c0.5-3.2,1-6,1-6.3
	c0.1-0.3,0.5-0.7,1.1-0.9c3.7-1.3,8.4-4.6,12.7-9c6.9-6.9,12.1-15.1,16.7-26.1c2-4.9,5.3-11.4,7.1-14.1c1.9-2.8,5.2-6.1,8.7-8.8
	c4-3.1,6.1-5,8.2-7.7c1.4-1.8,1.6-2.2,1.4-2.5c-0.5-0.6-0.8-0.5-2.4,0.6c-2,1.4-6.9,3.5-16.9,7.2c-5.4,2-10,4.2-13,6.1
	c-1.1,0.8-3.4,2.7-5.1,4.4c-2.5,2.4-3.5,3.8-5.8,7.2c-3.3,4.9-4.7,7.6-6.1,11.1c-0.5,1.4-1,2.5-1.1,2.6c-0.1,0.1-0.1-0.4,0-1
	c0.4-2.9,1.5-11.5,1.9-15.5c0.5-5.2,1.1-7,3.4-10.2c2.4-3.3,4.4-6.8,7.9-13.8c6-12.1,8.4-18,11.1-26.9c0.9-2.9,2.8-8.8,4.2-13.1
	c3.4-10.3,3.7-11.9,3.7-20.3c0-5.1-0.1-6.7-0.4-8.6c-1.5-7.2-4.2-12.9-12-24.5c-4-6-5.9-8.3-9.3-11.6c-3.2-3.1-6.6-5.7-11.6-8.7
	c-4.1-2.5-6.7-4.5-7.7-6c-0.7-1-1.3-1.2-1.5-0.5c-0.3,1.2-0.7,12.3-0.6,16.3c0.2,5.3,0.9,9.1,2.5,13.9c1,2.9,1.9,4.9,7.3,16.4
	c4.7,10,6.8,16,8.7,25.2c1.7,8.4,2.5,22.4,1.6,29.2c-0.2,1.5-0.9,4.6-1.5,6.9c-0.7,2.2-1.4,5.1-1.7,6.3c-0.3,1.2-1.1,3.9-1.8,5.9
	l-1.2,3.7l-0.2-3.1c-0.6-9.9-0.8-13-1.3-17.6c-2-19.4-5.2-32.5-11.9-48.2c-3.8-8.8-9.1-18.2-14.5-25.9c-4.1-5.7-12.3-15.3-19.9-23
	l-5-5.1l-1.5-3.9c-0.8-2.2-2-5.7-2.6-7.9c-0.6-2.2-1.4-4.7-1.7-5.6c-1.6-3.6-5.9-10.5-9.1-14.5c-2.5-3.2-7.2-7.8-11.2-10.9
	c-4.8-3.9-13.8-11.8-15.5-13.6c-1-1.1-1.6-1.5-2-1.5c-0.8,0.2-0.8,1.1,0.2,2.5c0.5,0.7,1.6,2.6,2.5,4.3c0.9,1.6,2.3,4.2,3.1,5.7
	c2.4,4.4,3.7,7.2,5.5,11.5c2.7,6.7,4.7,10.2,8.3,14.7c0.9,1.1,1.8,2.2,1.9,2.4c0.1,0.2-1.1-0.4-2.7-1.2c-4.1-2.1-6.6-3.2-12.4-5.1
	c-5.7-2-11.9-3.7-16.6-4.7c-5.6-1.2-9.5-3.5-17-10.3c-5.8-5.2-12.9-10.1-19.4-13.2c-3.9-1.9-12.2-4.7-16.6-5.7
	C619.6,133.6,610.7,132.9,604.9,133.3z M620.9,138.4c6.2,1,15.5,3.8,20.8,6.4c4.1,2,10.3,5.6,13.3,7.8c2.6,1.9,9.2,7.2,9.1,7.3
	c-0.1,0-2.4-0.9-5.2-2.1c-2.8-1.1-8.1-3.1-11.7-4.3c-3.6-1.2-7.9-2.7-9.5-3.4c-4.3-1.8-14.1-5.4-16.7-6.2
	c-8.1-2.6-15.2-2.9-23.9-1.2c-6.5,1.3-10.9,2.9-20.1,7.3c-3.8,1.9-7,3.3-7.1,3.3c-0.2-0.2,4.4-3.8,7.6-5.9c7.4-4.9,16-8.2,24.8-9.4
	C605.2,137.7,617.8,137.9,620.9,138.4z M274,138.6c8.8,1.1,17.6,4.4,25.1,9.4c3.2,2.1,7.9,5.7,7.6,5.9c0,0.1-3.2-1.4-7.1-3.3
	c-7.3-3.5-10.1-4.7-14.7-6c-6.3-1.8-11.1-2.5-16.8-2.3c-4.5,0.1-7.8,0.7-12.4,2.2c-2.6,0.8-12.4,4.5-16.7,6.2
	c-1.6,0.7-5.9,2.2-9.5,3.4c-3.6,1.2-8.9,3.1-11.7,4.3c-2.8,1.2-5.2,2.1-5.2,2.1c-0.1-0.1,6.4-5.3,9-7.2c4.3-3.2,12.2-7.5,17-9.4
	c5.9-2.3,13.9-4.4,19.3-5.1C261.2,138.3,271,138.2,274,138.6z M179.7,142.4c-0.4,0.8-1.6,4.4-2.8,7.9c-2.4,7.2-3.4,9.6-4.7,12.3
	c-2.6,5.2-7.9,12.4-11.9,16.3c-2.9,2.8-6.3,5.9-6.5,5.9c-0.1,0,0.3-1,0.8-2.2c0.5-1.2,1.6-4.1,2.6-6.4c3.9-10.3,7.7-17.9,11.3-22.6
	c1.1-1.5,11.7-12.7,12-12.7C180.3,140.9,180,141.6,179.7,142.4z M696.9,144.3c9.5,8.6,15.6,15.5,21.4,24.1c3.1,4.7,4.2,6.8,6.3,12.3
	c0.9,2.5,2.1,5.2,2.5,6.1c0.4,0.9,0.8,1.7,0.7,1.7c-0.2,0.2-9-7.5-12.9-11.5c-6.6-6.6-9.4-10.6-12.4-17.8c-2.1-4.8-4.8-10.2-7-14.1
	c-0.9-1.6-1.9-3.2-2-3.5c-0.3-0.6-0.3-0.6,0.2-0.2C693.9,141.6,695.3,142.9,696.9,144.3z M612.2,145.5c6.1,0.9,9.6,1.9,23.4,6.4
	c5.7,1.9,12.2,4,14.6,4.7c2.3,0.7,6.1,2.1,8.3,3.1l4.1,1.7l-10,0.2c-7.2,0.1-11.3,0.3-14.3,0.7c-5.8,0.7-14.4,0.7-17.3,0.1
	c-2.7-0.6-10.9-2.9-16.1-4.6c-5.9-1.9-13.5-3.9-16.8-4.4c-3.4-0.5-7-0.4-11.1,0.4c-1.5,0.3-2.7,0.5-2.8,0.4
	c-0.1-0.1,0.5-0.3,1.1-0.6c0.7-0.3,2.9-1.3,5-2.2c7.2-3.2,13.9-5.1,21-6C603.4,145,609.9,145.1,612.2,145.5z M278.8,146.2
	c6.2,1.1,11.6,2.8,17.6,5.5c2.1,0.9,4.3,1.9,5,2.2c0.7,0.3,1.2,0.6,1.1,0.6c-0.1,0.1-1.3-0.1-2.8-0.4c-4-0.8-7.7-0.9-11.1-0.4
	c-3.3,0.5-10.9,2.5-16.8,4.4c-5.2,1.7-13.4,4-16.1,4.6c-2.9,0.6-11.6,0.6-17.3-0.1c-3.1-0.3-7.2-0.5-14.3-0.7l-10-0.2l4.1-1.7
	c2.2-1,6-2.3,8.3-3.1c2.3-0.7,8.9-2.8,14.6-4.7c13.5-4.4,17-5.4,23.2-6.4C267.3,145.5,275.6,145.6,278.8,146.2z M216.2,166.9
	c-7.9,1.8-10.3,2.5-14.5,3.8c-14.5,4.7-26.5,10.7-38.9,19.5c-9.5,6.8-16.5,12.6-23.1,19.1c-9.5,9.5-15.8,18.4-21.9,30.7l-2.7,5.4
	l-0.3-3.4l-0.3-3.4l1.7-3.1c5.2-9.4,9.5-15.3,17.9-25c8.1-9.3,12.9-14,20.9-20.7c11.3-9.5,18.4-13.6,30.4-17.5
	c12.1-4,21.1-5.6,30.5-5.7l1.7,0L216.2,166.9z M670.4,167.1c10,1.1,25,5.6,33.5,9.9c7.5,3.8,15.9,10.1,25.7,19.1
	c5.1,4.7,14.2,14.6,19.9,21.7c4.6,5.8,17,23.5,24.6,49.9c5.6,19.4,6.6,36.6,6.3,49.2c-1.5-10.8-7.3-50.8-21.4-78.2
	c-4.5-8.7-9.4-15.5-9.4-15.5c-6.9-9.5-15.4-18.1-26.8-26.9c-4.9-3.8-11.6-8.5-15.5-11c-12.1-7.5-27.3-14-40.3-17
	c-8-1.9-7.7-1.7-3.5-1.6C665.3,166.7,668.5,166.9,670.4,167.1z M647.6,168.8c-4.5,3.7-7.9,7.3-14.6,15.4c-6.6,8-7.8,9.3-10.2,11.5
	c-5,4.7-9.5,7.7-18.6,12.2c-5,2.5-11.1,5.3-11.3,5.1c-0.1,0,0.9-0.8,2-1.7c6.4-5.1,15.4-14,21.3-21c9.1-11,12.8-14.2,20.5-18
	c3.2-1.6,9.9-4,10.9-4h0.7L647.6,168.8z M232.7,169.8c7.1,2.4,13,5.7,17.6,9.7c2.7,2.3,5,4.9,10.3,11.3c5.8,7,14.8,15.9,21.3,21
	c1.1,0.9,2.1,1.7,2,1.7c-0.2,0.2-6.3-2.6-11.3-5.1c-9.1-4.6-13.6-7.5-18.6-12.2c-2.4-2.2-3.5-3.6-10.2-11.5
	c-5.1-6.1-9.5-11-11.8-12.9c-1.2-1-2.5-2.2-2.9-2.5c-0.4-0.4-0.7-0.7-0.5-0.7S230.5,169.1,232.7,169.8z M296.9,185.1
	c5.1,4.6,7.5,7.6,9.8,12.3c3,6.2,4.4,11.5,9.1,34.6c0.8,3.9,1.7,8.3,2.1,9.7c1.5,5.9,3.8,11.8,6,15.7c0.9,1.6,0.9,1.6,0.3,1
	c-1.1-1-5.6-6.4-7.3-8.9c-5.3-7.4-9.9-17.3-12.2-26.1c-1.7-6.6-2.3-10.8-2.9-19.5c-0.2-3.4-0.6-7.1-0.8-8.2c-0.9-4.4-2.6-8-4.8-10.3
	c-1-1-1.1-1.3-0.7-1.1C295.8,184.2,296.4,184.6,296.9,185.1z M579.9,185.3c-1.1,1.4-2.5,4-3.2,5.9c-1,3-1.4,5.7-1.8,12.1
	c-0.5,8.7-1.1,12.9-2.9,19.5c-2.3,8.9-6.9,18.8-12.2,26.1c-1.7,2.4-6.2,7.8-7.3,8.9c-0.7,0.6-0.6,0.5,0.3-1c2.2-3.9,4.4-9.7,6-15.7
	c0.4-1.4,1.3-5.7,2.1-9.7c3.6-17.7,5.1-23.9,6.7-28.6c2.2-6.3,4.7-10.8,8.5-14.7c1.7-1.8,4-3.7,4.5-3.7
	C580.5,184.5,580.3,184.8,579.9,185.3z M544.7,193c2.7,0.1,5.8,0.1,7.9-0.1c1.9-0.2,3.5-0.3,3.5-0.2c0.1,0.1-1.8,1.2-4.1,2.6
	c-4.5,2.7-16.8,8.9-20.7,10.5c-4.5,1.8-11.3,3.1-22.6,4.3c-4,0.4-9.1,1.1-11.3,1.4c-2.3,0.4-6.2,0.9-8.7,1.2s-5.6,0.7-6.8,0.9
	c-1.2,0.2-4.7,0.7-7.7,1.2c-3.1,0.4-5.7,0.8-6,0.9c-0.3,0.1,0.1-0.2,0.9-0.7c0.8-0.5,4.2-2.7,7.7-5c13.7-9,20.4-12.5,28.6-14.9
	c4.2-1.2,6.5-1.6,15.9-2.3C522.8,192.6,538.9,192.8,544.7,193z M688.9,193.1c3.7,0.3,9.5,1.3,13.6,2.3c7.1,1.7,12.5,3.9,19,7.7
	c4.5,2.6,10.3,6.3,10.3,6.5c0,0.1-0.4,0-0.8-0.2c-0.5-0.2-1.6-0.7-2.5-1.1c-2.5-1-5.2-1.9-9.7-3c-10.5-2.6-14.7-3.2-22.4-3.2
	c-8.9,0-14,0.8-23.8,3.8c-9.3,2.8-22.1,5.9-28.2,6.8c-4.6,0.7-11.5,1.1-12.7,0.8c-0.9-0.2-0.7-0.3,3.9-2c7.8-2.9,10.2-4.1,20-10.3
	c6-3.8,8.4-5,12.5-6.4C674.3,192.7,679.8,192.3,688.9,193.1z M202.9,193.8c3.3,0.6,7.6,1.9,10.7,3.3c1.2,0.6,4.6,2.6,7.6,4.5
	c9.8,6.2,12.2,7.5,20,10.3c4.6,1.7,4.8,1.8,3.9,2c-1.2,0.3-8.1-0.2-12.7-0.8c-6.1-0.9-18.9-4-28.2-6.8c-9.8-3-15-3.8-23.8-3.8
	c-7.7,0-12,0.6-22.4,3.2c-4.5,1.1-7.3,2-9.7,3c-0.9,0.4-2,0.9-2.5,1.1c-0.5,0.2-0.9,0.3-0.9,0.2c0-0.3,5.8-3.9,10.3-6.5
	c8.3-4.8,15.4-7.3,25.9-9.1C189.4,193.1,196.8,192.8,202.9,193.8z M780.1,200.1c3.4,2.8,7.6,6.9,9.7,9.6c1.3,1.6,9.5,14.1,12.6,19
	c2.1,3.3,4.8,8.9,5.7,11.7c1.1,3.4,1.5,6.2,1.6,12.1c0.2,7.9-0.1,9.5-3.2,19.8c-0.9,3-2.5,8.4-3.5,11.9c-2.2,7.7-3,10-5.8,16.4
	c-4.1,9.5-11.4,23.6-11.9,23.1c-0.1-0.1,0-1,0.1-2.1c0.4-3,2.7-8.6,7.2-17.6c4.3-8.6,5.1-10.5,6.4-16.7c2-9.4,2.4-14.9,1.9-28.2
	c-0.4-9.5-1-13.3-3.3-20.2c-2.2-6.8-5.6-13.1-13.5-24.8c-5.5-8.3-8.1-12.8-10.4-18.6l-0.5-1.3l1.8,1.6
	C776,196.7,778.3,198.6,780.1,200.1z M776.6,205.7c1.3,2.7,3.6,6.9,5.1,9.5c7.7,13.1,10.4,18.7,12.6,26.2c1.9,6.5,2.2,8.7,2.9,21.3
	c0.7,12.4,0.3,18.9-1.6,28c-0.4,1.7-1,3.9-1.3,4.8c-0.8,2-2.8,6.3-2.9,6.2c-0.1-0.1,0.4-1.6,1.1-3.4c2-5.7,2.7-11.5,2.3-19
	c-0.5-8.9-1.4-14.3-3.6-21.5c-2.2-7.4-4.5-12.7-10.1-23.1c-8-14.9-9.9-22-9-34.4l0.3-5l1,2.8C773.8,199.6,775.3,203.1,776.6,205.7z
	 M103.7,203.9c-0.5,8.5-1.6,15.2-5.3,30.3c-3.4,14-3.7,15.9-3.9,24.7c-0.2,9.1,0.4,14.3,2.2,20.6c1.1,3.7,2.2,6.3,3.9,8.5
	c1.1,1.5,1.2,1.7,1,2.6c-0.3,1.8-0.4,1.8-2.2-0.1c-5.7-6.1-8.5-10.7-10.3-17.3c-1.8-6.5-2.6-12.8-2.6-19.6c0-10.7,1.7-17.2,8.5-33.1
	c1.7-4.1,8.3-17.7,8.6-17.7C103.7,202.7,103.7,203.3,103.7,203.9z M707.2,206.2c4.4,0.7,11.6,2.2,14.6,3c2.7,0.7,7.5,2.3,7.4,2.5
	c-0.1,0-1.1-0.2-2.4-0.4c-4.7-1-12.4-0.5-22.5,1.5c-8.6,1.7-14.2,2.4-25.3,3.2c-20.6,1.5-32.3,1.4-42.7-0.5c-1.7-0.3-3-0.6-2.9-0.7
	c0.1-0.1,1.7-0.2,3.6-0.3c6.8-0.4,26.5-3.6,36.2-5.8c11.3-2.6,14.7-3,24.3-2.9C702.4,205.8,705.3,205.9,707.2,206.2z M189.2,206.5
	c4.9,0.5,7.3,1,14.3,2.6c9.7,2.2,29.5,5.4,36.2,5.8c1.9,0.1,3.5,0.3,3.6,0.3c0.1,0.1-1.3,0.4-2.9,0.7c-10.4,1.9-22.1,2.1-42.7,0.5
	c-11.1-0.8-16.7-1.5-25.3-3.2c-10.1-2-17.7-2.5-22.5-1.5c-1.3,0.3-2.4,0.5-2.4,0.4c-0.2-0.2,4.6-1.8,7.4-2.5
	c3.5-0.9,12.4-2.7,15.7-3.1c1.3-0.2,2.6-0.3,3-0.4C175.5,206,186,206.2,189.2,206.5z M107.8,221.8c0.6,2.2,1.5,5.7,2.1,7.8
	c2,7.2,2.8,13.1,2.5,18.7c-0.2,3.4-0.7,5.4-3.5,13.6c-2.2,6.4-4.9,16.1-5.8,21c-0.3,1.6-0.6,3.1-0.7,3.1c-0.2,0.2-2-6.1-2.6-9.1
	c-1.5-7.5-1.9-13-1.5-21c0.3-6.8,0.7-9.3,2.4-17.2c2.4-11.3,3.9-19.9,4.6-25.7l0.2-1.7l0.6,3.3C106.4,216.3,107.2,219.5,107.8,221.8
	z M350.9,226.7c9.2,9.9,22.1,27,25.3,33.5c1.8,3.7,2.5,5.7,3.7,11.9c1.6,8.2,2.2,10.2,4.3,15c0.4,1,0.4,1,0,0.6
	c-0.3-0.2-2.2-1.8-4.3-3.5c-12.3-10-18.4-16.9-24.1-27.2c-2.9-5.3-5.3-11.5-9.3-23.8c-1.1-3.6-2.8-8.7-3.6-11.2l-1.5-4.6l3.4,3.2
	C346.6,222.3,349.4,225.1,350.9,226.7z M736.6,219.7c-1.7,1.8-4.2,5.5-8.7,13c-4.7,7.8-7.1,10.9-10.3,13.5
	c-6.3,5.1-14.6,9.3-21.6,10.9c-2.8,0.7-7.4,1.1-9.3,0.9l-1.6-0.2l1.8-0.3c2.3-0.4,9.7-4.1,13-6.4c2.8-2,10.3-9.4,15.4-15.2
	c6.3-7.2,12-12.4,16.5-14.8c1.7-1,5.1-2.5,5.7-2.5C737.6,218.6,737.2,219.1,736.6,219.7z M141.1,219.9c6,2.4,12.2,7.4,20.2,16.6
	c5.1,5.9,12.6,13.2,15.4,15.2c3.3,2.3,10.7,5.9,13,6.4l1.8,0.3l-1.6,0.2c-2,0.2-6.5-0.2-9.3-0.9c-7-1.6-15.3-5.9-21.6-10.9
	c-3.2-2.6-5.6-5.7-10.3-13.5c-4.6-7.6-7-11.3-8.7-13c-0.6-0.6-1-1.1-0.9-1.1C139.3,219.2,140.2,219.5,141.1,219.9z M369.7,220.9
	c6.9,1.1,14.9,3.9,20.5,7.3c2.5,1.5,10.4,7,14.1,9.8c3.6,2.7,8,6.7,11.9,10.6c6.9,7.1,7.4,7.7,3.3,4.6c-5.3-4.1-10.1-7.6-12.4-9.1
	c-1.5-1-8.9-4.8-18.5-9.5c-8.7-4.3-16.9-8.3-18-9c-2-1.1-7.5-4.7-8.1-5.2C362.2,220.1,366.3,220.4,369.7,220.9z M518.9,226.8
	c-1.6,2.1-9.1,12.5-10,13.9c-0.6,0.9-2.1,3.4-3.5,5.7c-1.3,2.3-3.9,6.5-5.7,9.4c-3.1,4.9-7.1,12.2-8.6,15.5
	c-2.9,6.4-6.5,15.4-9.1,22.2c-1.7,4.5-3.8,9.9-4.6,12c-2.4,5.7-11,22.7-11.3,22.3c-0.1-0.1,0.1-1.6,0.4-3.3c0.3-1.7,0.9-6.3,1.3-10
	c1.5-13,2.6-18.2,6.8-32.2c5.9-19.5,13.9-31.9,28.3-43.9c4.9-4,15.9-12.4,16.5-12.4C519.5,225.9,519.2,226.3,518.9,226.8z
	 M395,241.3c5.6,2.8,10,5.2,12.1,6.7c1.9,1.2,3.3,2.2,3.2,2.2c-0.1,0-3.2-1.4-6.9-3c-3.7-1.7-8.2-3.7-10-4.5
	c-4.4-1.9-7.5-3.5-9.3-4.6c-1.4-0.9-6.4-5.2-6.4-5.5c0-0.1,1.9,0.9,4.3,2.1C384.4,235.9,390.2,238.9,395,241.3z M515.9,238.5
	c-3,7-8.7,22.9-12.2,34.3c-6.6,21.1-10.6,28.6-20.8,38.7c-3,3-11.5,10.6-11.5,10.3c0-0.1,0.8-1.7,1.9-3.6c3.3-6.1,6-12,9.2-20.4
	c2.9-7.7,4.6-11.6,7.3-17.5c4.9-10.5,6.9-14.2,12.8-23.1c2.1-3.2,5.1-7.7,6.5-10.1c2.2-3.6,7.9-11.8,8.1-11.8
	C517.3,235.3,516.7,236.8,515.9,238.5z M100.7,296.5c-0.6,3.4-1.9,15.6-2.5,23.9c-0.2,2.5-0.2,0.8-0.2-6.9
	c0.1-8.9,0.3-13.9,0.8-17.8l0.1-1.1l0.9,0.5C100.7,295.6,100.8,295.8,100.7,296.5z M427.8,305.7c8.2,11,12.3,20.1,17.1,37.9
	c1.9,7.2,6.8,25.3,8,30.1c4.3,16.5,4.3,16.5,6.3,20.9c0.7,1.4,1.1,2.6,1,2.7c-0.1,0.2-0.9-0.7-3.6-4c-3.7-4.5-8.2-14.1-11.3-24.2
	c-0.3-1.1-0.9-2.8-1.3-3.9c-0.7-1.8-2.7-10.7-4.5-19.3c-1.2-5.9-2.6-11.7-3.6-14.3c-1-2.9-5.9-14.3-7.7-17.9
	c-1.2-2.4-9-16.1-10.6-18.5C416.6,293.2,425.7,302.8,427.8,305.7z M417,301.9c1,2.1,3,5.8,4.4,8.3c1.4,2.5,4.6,8.8,7.1,14.1
	c4.6,9.7,5.8,12.5,7.7,19.6c2.5,9.2,5.5,18.9,7,23c0.9,2.5,2.3,6.2,3,8.1c0.7,1.9,1.5,4.1,1.8,4.8c0.3,0.7,0.4,1.1,0.2,0.8
	c-9.5-14.1-19.1-29.9-22.4-36.8c-3.3-7-4.1-9.9-6.7-26.5c-0.9-5.7-3.2-16.1-4.2-18.6c-0.1-0.2-0.1-0.4,0-0.4
	C415,298.2,415.9,299.9,417,301.9z M738,302.9c1.4,4.1,3.2,7.8,6.3,13c5.3,8.8,8.5,14.5,10.3,18.1c6.8,13.7,10,28.2,10,45.2
	c0,8.7-0.7,14.3-2.6,23.4c-0.9,4-3.1,12.3-3.3,12.2c-0.1-0.1,0-1.6,0.2-3.3c0.3-3.5,0.2-12.2-0.3-16.8c-0.6-5.8-1.8-11.5-3.3-16
	c-0.8-2.5-3.7-9.7-6.5-16.7c-4.8-11.7-7.7-20.5-10.5-31.5c-2.4-9.5-2.7-11.5-2.7-14.9c0-5.3,0.7-16.4,1-16.1
	C736.7,299.3,737.3,301,738,302.9z M140.7,307.5c0.6,11.1,0.6,11.4-2.4,23.4c-2.7,11-5.7,19.8-10.5,31.5c-2.9,7-5.7,14.2-6.5,16.7
	c-1.5,4.5-2.7,10.3-3.3,16c-0.5,4.6-0.6,13.3-0.3,16.8c0.2,1.8,0.3,3.3,0.2,3.3c-0.2,0.2-2.4-8.1-3.3-12.2c-2-9-2.6-14.7-2.6-23.4
	c0-17,3.2-31.4,10-45.2c1.8-3.6,5-9.3,10.3-18.1c3.2-5.3,4.9-8.9,6.4-13.1l1.3-3.7l0.2,1.2C140.3,301.5,140.6,304.4,140.7,307.5z
	 M734.3,311.3c-0.8,5.2-0.4,10,2.1,22.2c2.4,11.8,5,19.9,11.4,36.3c4.3,10.9,5.6,14.8,6.5,20.5c0.9,5.7,1.2,8.4,1.4,15.1
	c0.2,5.6-0.2,12.4-0.7,13.3c-0.1,0.2-0.8-1-1.7-3c-0.8-1.8-2.8-5.6-4.3-8.3c-1.5-2.7-4.3-8-6.3-11.7s-4.8-9.1-6.4-11.9
	c-6.3-11.4-8.8-17.8-10.2-26.1c-0.6-3.5-0.7-17.2-0.1-21.2c1.2-8.5,3.6-18,6.3-25c0.9-2.2,1.7-4.5,1.9-5l0.3-0.9l0.1,1.6
	C734.7,308,734.5,309.9,734.3,311.3z M145.2,314.5c2.2,5.9,4.3,15,5.4,22.6c0.5,3.9,0.5,17.6-0.1,21.2c-1.4,8.2-3.9,14.6-10.2,26.1
	c-1.6,2.8-4.4,8.1-6.4,11.9c-2,3.7-4.8,9-6.3,11.7c-1.5,2.7-3.5,6.5-4.3,8.3c-1,2-1.6,3.2-1.7,3c-0.5-0.9-0.8-7.7-0.7-13.3
	c0.2-6.7,0.4-9.4,1.4-15.1c0.9-5.7,2.2-9.6,6.5-20.5c6.5-16.4,9.1-24.5,11.4-36.3c2.5-12.2,2.9-17.2,2.1-22.2
	c-0.2-1.3-0.4-3.1-0.4-4l0-1.7l1,2.6C143.6,310.2,144.6,312.8,145.2,314.5z M821.4,320.3c-1.4,1.3-3.5,2.9-6,4.4
	c-9.2,5.7-17.2,11.3-20.8,14.6c-4.5,4.3-10,13.3-13.9,22.7c-2.4,6,0.3-2.5,3.5-11.1c2.7-7.1,6.9-13.9,11.3-18.3
	c4.4-4.4,8.6-6.8,18.4-10.5c2.9-1.1,6.2-2.4,7.3-2.9s2-0.9,2.1-0.9C823.6,318.3,822.6,319.2,821.4,320.3z M55.3,319.7
	c1.1,0.5,4.4,1.8,7.4,2.9c9.7,3.7,14,6.1,18.4,10.5c4.4,4.4,8.6,11.2,11.3,18.3c2.1,5.5,4.6,13,4.5,13.1c-0.1,0.1-0.5-0.8-1-2
	c-3.8-9.4-9.3-18.4-13.9-22.7c-3.6-3.4-11.5-9-20.8-14.6c-2.5-1.5-4.6-3.1-6-4.4c-1.2-1.1-2.1-2-2.1-2
	C53.2,318.8,54.2,319.2,55.3,319.7z M811.2,330.3c-0.1,0.2-1,1.5-1.9,2.9c-3.1,4.7-4.5,7.3-7.3,13.2c-3.3,6.9-4.7,9.5-7.7,14
	c-6.2,9.3-10.9,14-17.5,17.9c-0.7,0.4-0.1-1.5,0.9-3.2c1.5-2.2,2.6-4.6,5.3-11.1c3-7.3,5.3-11.9,8.4-16.5c3-4.6,5.2-6.9,10.4-10.8
	c3.4-2.6,9.3-6.8,9.6-6.8C811.4,330,811.3,330.2,811.2,330.3z M70.1,333.8c4.6,3.3,9.1,6.8,10.9,8.7c2.4,2.5,6.1,8,8.6,12.9
	c1,2,2.9,6.1,4.2,9.3c2.6,6.3,4.2,9.5,5.7,11.8c0.6,0.8,1.2,1.9,1.5,2.3l0.4,0.9l-0.9-0.4c-0.5-0.2-1.8-1.1-3-1.9
	c-5.3-3.5-9.4-8-15-16.3c-3-4.5-4.5-7.1-7.7-14c-2.8-5.9-4.2-8.4-7.3-13.2c-0.9-1.4-1.8-2.8-1.9-2.9
	C65.2,330.5,67.5,331.9,70.1,333.8z M115,423c7.2,20.3,15.5,38.5,24.3,53.1c5.8,9.7,12.9,19.4,27.2,37.7c3.3,4.3,9.3,12,13.1,17.1
	c14.3,18.9,20.3,26.2,32.6,39.7l4.7,5.2l3.5,7c2,3.8,3.8,7.4,4.1,7.9c0.3,0.5,0.5,0.9,0.5,0.9c-0.1,0-3.6-3.6-7.8-8
	c-27.3-28.5-43.3-47.5-59.8-71c-10.4-14.7-16.1-24.4-23.1-38.5c-8.2-16.5-14.6-33.1-19.9-51c-0.6-1.9-1.1-3.8-1.2-4
	c-0.1-0.3-0.1-0.5,0-0.4C113.4,418.8,114.2,420.7,115,423z M763.4,421.5c-0.3,1.1-1.2,4.1-2,6.6c-8.4,27-20.5,53.1-34.4,74.2
	c-17,25.7-36.4,49.5-64.4,78.8c-6.1,6.4-13.7,14.2-13.7,14.1c0-0.1,0.8-1.3,1.7-2.8c1-1.5,3.1-5.3,4.7-8.5c2.7-5.3,3.2-6,5.1-8.1
	c14-15.1,22-24.6,37.4-44.9c3.9-5.1,9.8-12.8,13.1-17.1c20.2-25.7,27.3-36.4,35.8-53.4c5.8-11.6,12.1-26.6,16.2-38.7
	c0.5-1.4,0.9-2.5,0.9-2.4C763.9,419.4,763.7,420.4,763.4,421.5z M790.5,424.1c1.9,6.9,2.2,9.4,2,15.2c-0.2,7.7-1.1,12.8-3.3,18.3
	c-1.7,4.4-4.3,8.3-10.8,16.5c-6.3,7.9-8.6,10.1-17.8,17c-6.2,4.6-13.3,9.4-19.2,13c-4.6,2.7-15.4,8.6-15.6,8.5
	c-0.1-0.1,3.1-4.2,6.3-8.1c3.1-3.8,5.7-6.1,10.4-9.4c7.8-5.5,14-10,16.6-12c4.1-3.3,11.8-11.2,14.6-14.9c7.3-9.8,12.2-21.5,14-33.5
	c0.7-4.5,1.2-10.4,1.2-12.4c-0.1-2.3,0-3,0.2-2.8C789.1,419.3,789.8,421.5,790.5,424.1z M87.8,422.2c-0.2,2.9,0.9,12.8,2.2,18.3
	c2.1,9.6,6.8,19.8,12.9,28c2.7,3.7,10.5,11.6,14.6,14.9c2.6,2,8.8,6.6,16.6,12c4.7,3.3,7.4,5.7,10.4,9.4c3.2,3.9,6.4,8,6.3,8.1
	c-0.2,0.2-11-5.7-15.6-8.5c-5.9-3.5-13-8.3-19.2-13c-9.2-6.9-11.5-9.1-17.8-17c-6.5-8.2-9.1-12.1-10.8-16.5
	c-2.4-6.1-3.2-11.2-3.2-19.6c0-6.5,0.1-7.2,2.2-14.8C87.6,419.6,88,419.1,87.8,422.2z M785.3,433.6c-1.6,7.9-3.5,13.6-6.6,19.7
	c-4.3,8.6-8.7,14.6-15.8,21.7c-5.4,5.4-10.4,9.4-22.4,18.2c-1.8,1.3-3.9,3-4.7,3.8c-0.8,0.7-1.4,1.3-1.4,1.2c0-0.1,0.9-1.7,2.1-3.6
	c2.8-4.8,4.2-7.2,7.9-14.3c2-3.8,4-7.3,5.4-9.2c2.6-3.7,10-11.5,16.8-17.7c9.7-8.9,13.6-13.6,18.2-22c0.6-1.2,1.2-2,1.2-1.9
	C786.1,429.5,785.7,431.4,785.3,433.6z M95.2,437.5c3.5,5.4,6.9,9.2,14.8,16.4c5,4.6,13.5,13.2,15.3,15.6c3.8,4.9,8.8,13,12.6,20.2
	c1.2,2.2,2.4,4.5,2.7,5c0.3,0.5,1.1,2,1.6,3.1l1,2.2l-1.9-1.9c-1-1-3.4-3-5.2-4.3c-6.3-4.6-13.6-10.3-16.3-12.5
	c-3.5-3-9.1-8.6-11.7-11.7c-7-8.4-12.1-17.9-15-27.9c-0.9-3.2-2.6-10.9-2.6-11.8c0-0.2,0.7,0.9,1.6,2.5
	C93.1,434,94.4,436.3,95.2,437.5z M693.9,455.3c-4.5,9-7.1,21.2-11.9,55.9c-2.5,18-3.7,24.1-6.7,31.8c-1.5,4-3,6.8-6.6,12.4
	c-1.8,2.8-3.6,5.5-3.9,6.1c-0.3,0.5-0.6,1-0.7,1c-0.1,0,0.3-1.4,0.7-3.1c1.5-6,4.7-23.6,6.2-34.1c3.3-22.3,5.9-35,9.1-43.2
	c4.5-11.7,8.1-20.1,10.3-23.6c1.1-1.8,4.1-5.5,4.3-5.2C694.7,453.3,694.4,454.2,693.9,455.3z M186.2,458.9
	c2.2,3.6,5.7,11.8,10.3,23.7c3.2,8.2,5.8,20.9,9.1,43.2c1.5,10.5,4.7,28.1,6.2,34.1c0.4,1.7,0.7,3.1,0.7,3.1c0,0-0.3-0.4-0.7-1
	c-0.3-0.5-2.1-3.3-3.9-6.1c-3.6-5.6-5.1-8.4-6.6-12.4c-2.9-7.8-4.2-13.8-6.7-31.8c-4.7-34.7-7.3-47-11.8-55.9c-0.5-1-0.9-2-0.9-2.1
	C181.9,453.3,185.1,457.1,186.2,458.9z M687.2,462.2c-0.3,0.5-4.3,9.1-6.8,14.7c-3.7,8.1-5,12-7.8,23.5c-2.6,10.7-4.4,20.2-9.2,49.3
	c-1.4,8.3-4.2,20.1-5,21c-0.1,0.1-0.2,0.4-0.2,0.7c0,0.5-2.1,6-2.2,5.9c0-0.1,0-0.8,0.2-1.6c0.3-2.2,0.3-10.4,0-13.4
	c-0.5-4.9-1.3-10.2-2.2-14.9c-1.3-6.9-1.5-9.4-1.5-14.8c0-5.3,0.4-8.2,1.6-14c3.5-15.9,9.8-28.4,21.1-41.8
	c8.4-10,10.3-12.3,11.2-13.5C687.3,461.7,687.7,461.4,687.2,462.2z M191.6,465.2c1.1,1.4,3.6,4.4,5.6,6.8c7.1,8.4,8.9,10.8,12,15.4
	c6.7,10,10.7,19.5,13.4,31.6c1.3,5.8,1.6,8.7,1.6,14c0,5.4-0.3,7.9-1.5,14.8c-0.9,4.7-1.6,10.1-2.2,14.9c-0.3,3-0.4,11.3,0,13.4
	c0.1,0.9,0.2,1.6,0.2,1.6c-0.6-1.4-1.5-3.7-2.5-6.6c-3.3-9.8-4.4-17.6-5-21c-4.8-29.1-6.5-38.6-9.2-49.3
	c-2.8-11.5-4.1-15.3-7.8-23.5c-2.3-5-6.5-14.1-6.8-14.7C189,461.9,189.4,462.3,191.6,465.2z M614.1,513.4c1,6.5,3.7,16.2,5.5,20.5
	c1.7,3.9,3.2,6.2,8.3,12.5c6.1,7.5,9.2,12.2,13,19.8c3.7,7.2,5.2,13.1,5.2,20.1c0,2.3-0.1,4.7-0.2,5.5l-0.2,1.3l-0.6-2.3
	c-0.7-2.7-1.3-4.5-2.4-6.9c-0.9-2-6.9-10.1-10.4-14c-4.6-5.2-7.7-10-11-16.8c-3.8-7.9-6.8-18.1-8.2-27.8c-0.5-3.3-0.6-16.1-0.2-17
	c0.2-0.5,0.3-0.4,0.4,0.3C613.4,509,613.7,511.2,614.1,513.4z M263.9,516c0,7.7-0.3,10-1.8,17.1c-2.3,10.6-5.5,19-10.5,27.3
	c-2.3,3.9-4.1,6.3-7.3,10c-3.4,3.9-9.4,12.1-10.4,14c-1.1,2.4-2.2,5.6-2.6,7.6c-0.3,1.6-0.3,1.6-0.6,0.9c-0.1-0.4-0.2-2.9-0.3-5.5
	c0-4.1,0.1-5.1,0.7-8c1-4.9,2.1-8,4.5-12.7c3.9-7.6,6.9-12.3,13-19.8c6.5-8,8.1-10.8,10.2-17.7c2.1-6.8,4.3-17.3,4.3-20.1
	c0-0.6,0.1-0.7,0.3-0.4C263.9,508.9,263.9,510.7,263.9,516z M603.1,570.8c-1.8,4.4-5.7,12.3-9.8,19.6c-2.1,3.7-4.1,7.6-4.7,8.9
	c-1.1,2.6-3.5,9.7-5.6,16.8c-3.9,13.2-8.5,21.6-17.8,32.6c-4.4,5.2-7.1,7.8-12.5,11.8c-2.8,2-5,3.6-5,3.4c0-0.1,0.2-0.7,0.5-1.3
	c0.8-1.4,2.6-6.8,3.3-9.7c0.3-1.4,1.1-5.1,1.8-8.3c0.7-3.2,1.5-7.2,2-8.8c2.7-10.1,9.6-26.1,14.4-33.1c1.8-2.7,4.9-6.6,7.9-10
	c3.1-3.5,13.8-14,17.7-17.2c1.5-1.3,4.1-3.5,5.9-5.1c1.7-1.5,3.2-2.7,3.2-2.7C604.2,567.8,603.7,569.2,603.1,570.8z M281.5,576.1
	c3.8,3.2,14.5,13.6,17.7,17.2c3,3.4,6.1,7.3,7.9,10c4.7,7,11.7,23.1,14.4,33.1c0.4,1.6,1.3,5.5,2,8.8c0.7,3.2,1.5,7,1.8,8.3
	c0.6,2.5,2.5,8.3,3.1,9.2c0.3,0.5,0.2,0.5-0.5-0.1c-11.7-8.5-13-9.6-15.6-12.6c-9.5-11.1-14.5-20.1-18.5-33.5
	c-2.1-7.1-4.5-14.3-5.6-16.8c-0.5-1.2-2.6-5.2-4.7-8.9c-4.1-7.4-8.1-15.2-9.8-19.6c-0.6-1.6-1.1-2.9-1.1-3c0-0.1,1.4,1.1,3.2,2.7
	C277.4,572.5,280.1,574.9,281.5,576.1z M228.3,589.9c0.1,1.4,0.3,2.7,0.4,3.1c0.1,0.3,0.1,0.6,0,0.6c-0.2,0-3.2-5.4-3.5-6.3
	c-0.2-0.5-0.4-1.4-0.4-2.1l-0.2-1.2l1.7,1.7l1.7,1.7L228.3,589.9z M713,584.7c0,0.1-1.3,0.9-2.9,1.9c-1.6,1-4.4,2.7-6.2,3.9
	c-10.4,6.8-14.5,8.4-29,11.5c-9.9,2.1-23.7,6-31.9,8.9c-2,0.7-3.6,1.3-3.6,1.2s1.9-1.6,4.3-3.4c8-6.1,15.6-10.6,21.3-12.6
	c2.6-0.9,8.9-2.4,17.1-4.1c9.4-2,28.4-6.4,30.1-7.1C713.1,584.6,713,584.6,713,584.7z M175.9,588.4c8.4,2,14.4,3.3,21.7,4.9
	c13.9,2.9,17.8,4.4,26.4,9.9c3.7,2.3,13.1,9.2,13.1,9.5c0,0.1-1.6-0.5-3.6-1.2c-8.2-2.9-22-6.8-31.9-8.9c-14.5-3.1-18.6-4.7-29-11.5
	c-1.8-1.1-4.6-2.9-6.2-3.9c-1.6-1-2.9-1.8-2.9-1.8c0-0.1,1.1,0.2,2.6,0.6C167.6,586.3,172,587.4,175.9,588.4z M651.4,586.6
	c-0.3,0.9-3.4,6.4-3.5,6.3c0-0.1,0.1-1.1,0.3-2.4l0.3-2.3l1.5-1.6c0.8-0.9,1.6-1.4,1.6-1.3C651.7,585.5,651.6,586.1,651.4,586.6z
	 M239.9,599c14.1,13.5,23,21.1,40.4,34.4c4,3.1,10.3,7.9,13.8,10.7c9.7,7.6,11.3,8.8,20,15.1c19.6,14.3,31.7,23.8,49.5,38.6
	l10.4,8.7l1.3,2.3c0.7,1.3,1.7,3,2.2,3.9c0.5,0.9,0.9,1.6,0.9,1.6c-0.1,0-1.2-0.9-2.5-1.9c-8.2-6.5-16.4-12.3-32.9-23.5
	c-21-14.1-26.6-18.1-40.7-28.7c-17.3-13-24.7-19.2-43.6-36.2c-10.2-9.2-17.7-16.2-22.4-20.9c-4.2-4.1-4.1-3.8-2.7-8.9l0.3-1l1.1,1
	C235.5,594.8,237.8,596.9,239.9,599z M643.5,595.5c0.6,2.7,0.5,3.2-1.1,5.1c-0.8,1-1.7,1.9-2.1,2.2c-0.3,0.2-1.4,1.3-2.4,2.4
	c-3.6,4.2-8.9,9.3-18,17.5c-20.3,18.4-27.2,24.2-44.9,37.4c-14.1,10.6-19.7,14.6-40.7,28.7c-17,11.4-25.4,17.5-34.9,25.1
	c-1.4,1.1-2.6,2.1-2.7,2c-0.1,0,0.5-1,1.2-2.1c0.7-1.1,1.8-2.9,2.4-3.9c0.6-1,1.4-2.1,1.7-2.3c0.3-0.3,5.5-4.6,11.5-9.6
	c17.8-14.8,29.7-24.2,49.7-38.7c8.7-6.3,10.3-7.5,20-15.1c3.6-2.8,9.8-7.6,13.8-10.7c17.8-13.6,26.1-20.7,41.2-35.2
	c2.6-2.5,4.7-4.5,4.8-4.4C643.1,593.9,643.4,594.7,643.5,595.5z M505.5,643.5c0,4.3,0.2,10.1,0.4,13.4c0.9,12.5,0.9,15.8-0.4,25.6
	c-1.3,10.2-3.1,16.4-7.6,25.3c-2.2,4.4-5.6,10.4-5.8,10.4c0,0,0-1.2,0.1-2.7c0.1-1.8-0.1-4.1-0.4-7.1c-2-16.3-2.1-29.6-0.3-38.4
	c2.2-10.9,6.4-21.6,12.2-31.2c0.9-1.5,1.7-2.8,1.7-2.8S505.5,639.4,505.5,643.5z M372.8,641.5c0.8,2,2.4,7.7,3.3,11.9
	c1.1,4.9,1.4,18.5,0.5,27c-0.6,6.5-0.4,13.2,0.5,18.5c0.5,3.1,1.9,8.8,2.6,11.3c0.1,0.3-0.7-1.2-1.8-3.3c-3.8-7.5-5.7-14.2-6.9-23.9
	c-1.2-9.8-1.3-12.9-0.4-25.7c0.2-3.3,0.4-9,0.4-12.7C371.2,637.1,371.1,637.2,372.8,641.5z M378.7,650.5c4.8,11.3,6.9,19.5,7.5,28.9
	c0.5,9.3,0.1,17.9-1.5,31.2l-0.5,3.8l-0.4-1.4c-0.8-2.8-2-7.9-2.5-11c-1.2-7.4-1.4-12.4-0.5-20.6c0.6-5.8,0.5-9.6-0.4-15.1
	c-0.5-3.1-2.8-13.3-3.5-15.4c-0.3-0.9-0.8-2.8-1.2-4.3c-0.3-1.5-0.8-3.2-1-3.8c-0.2-0.6-0.4-1.2-0.4-1.3
	C374.2,641.1,377.3,647.1,378.7,650.5z M633.3,653.8c-0.3,0.4-5.2,3.6-8.5,5.4c-1.6,0.9-3.3,2-3.8,2.3c-1.1,0.8-5.3,2.7-7.9,3.6
	c-1.1,0.4-4.2,1-6.8,1.5c-13.4,2.2-22.9,6-42.1,16.5c-8.5,4.6-14.9,7.9-18.2,9.2c-2.1,0.8-7.8,2.5-8.6,2.5c-0.1,0,1.1-0.8,2.9-1.8
	c5-2.8,11-6.6,20.3-12.8c4.7-3.2,7.2-4.6,11.7-6.8c10.7-5.2,18.9-8.7,26-10.8c3.1-1,33.8-8.9,34.8-9
	C633.4,653.5,633.4,653.6,633.3,653.8z M260.3,658.3c18.8,4.7,22.9,6,33.5,10.7c10.4,4.6,15.6,7.4,23.1,12.3
	c8.7,5.7,11.5,7.5,16,10.3c1.9,1.2,3.3,2.1,3,2c-4.2-1.1-7.3-1.9-12.7-3c-19-4-34.2-9.2-47-16c-4.5-2.4-12.2-7.5-17.9-11.8
	c-3.2-2.4-5.5-3.9-7.8-5.1c-1.9-1-3.6-2-3.9-2.3c-0.5-0.5-0.5-0.6,0-0.4C247,655,253.1,656.5,260.3,658.3z M257.8,665.6
	c4.5,3.7,9.9,7.6,14,10.1c9,5.5,24,11.3,37.6,14.6c4.7,1.2,7.4,1.7,15.7,3.1c5.7,1,15.5,3.2,21.1,4.7l1.3,0.4l-3.5,0.2
	c-1.9,0.1-5.8,0.4-8.6,0.7c-13.9,1.4-26,1.2-33.1-0.6c-8.1-2.1-17.5-7.1-25.6-13.6c-5.2-4.1-8.4-7.1-18.5-17.1
	c-8.8-8.8-9.3-9.3-7.2-7.8C252.2,661.1,255.3,663.5,257.8,665.6z M618.1,668c-9.6,9.5-12.8,12.5-18,16.7
	c-10.5,8.4-21.3,13.4-32,14.8c-4,0.5-17,0.4-23.7-0.3c-3.2-0.3-6.7-0.6-7.9-0.7c-1.2-0.1-2.1-0.2-2-0.3c0.1-0.1,1-0.3,2.1-0.3
	c3.1-0.3,8.2-1.4,11-2.4c3.4-1.3,9.2-4,13.5-6.6c2-1.1,6.4-3.7,9.7-5.6c14.7-8.6,25-12.9,35.8-15.2c2.4-0.5,5.4-1.3,6.5-1.7
	c2.9-1,7.1-3,8.6-4.1c0.9-0.7,5.1-3.2,5.3-3.2C627.1,659,623.1,663,618.1,668z M463.1,666.8c0.5,0.6,2.8,3.1,5.1,5.5
	c6.8,7,13.2,15.2,15.8,20.1c1.3,2.6,3.1,6.8,3.8,9.2c0.4,1.4,1.5,7.5,1.5,8.3c0,0.3-0.4-0.1-1.3-1.1c-1.6-2-4-4.1-9.8-8.5
	c-11.4-8.8-16.4-17.4-17.7-30.7c-0.1-1.5-0.3-3.8-0.3-5.2l0-2.5l1,1.9C461.8,664.9,462.6,666.2,463.1,666.8z M416.2,669.9
	c-1,10.6-4.1,17.7-11.2,25.4c-1,1.1-3.9,3.6-6.4,5.6c-5.7,4.4-8.1,6.5-9.8,8.5c-1.5,1.8-1.5,1.8-0.8-2.7c1.5-9.1,5-15.9,13.6-26.3
	c1.5-1.8,4.6-5.2,6.9-7.6c4.5-4.6,6.1-6.6,7.1-8.9l0.7-1.4l0.1,2.1C416.4,665.7,416.3,668.1,416.2,669.9z M393.9,723.1
	c3,2.4,8.7,6.9,12.5,10c7.2,5.7,11.9,9.7,13.3,11.2l0.8,0.9l-1.2-0.7c-3-1.9-8.8-5.7-12.3-8c-7.1-4.9-17.7-13-18.2-13.9
	c-0.4-0.7-1.4-3.8-1.4-4.2c0-0.3,0.1-0.3,0.5,0C388.2,718.5,390.9,720.6,393.9,723.1z M488.5,720.2c-1.1,3.2-1.6,3.9-4.5,6.2
	c-7.9,6.2-17.1,12.6-25.9,18l-1.2,0.7l0.8-0.9c1.5-1.6,6-5.4,17-14.1c6-4.8,11.7-9.4,12.5-10.1c0.9-0.7,1.6-1.3,1.6-1.2
	C488.9,718.9,488.8,719.5,488.5,720.2z M510.5,729.5c2.7,0.5,7.1,1.9,10.1,3.2c5.6,2.4,11.4,7.7,16,14.7c1.7,2.6,3.9,6.8,4.2,8.2
	c0.2,0.8,0.2,0.8-0.3,0.4c-0.3-0.2-1.5-1.2-2.7-2.2c-1.2-1-3.3-2.7-4.7-3.9c-11.6-9.9-21.7-15.6-31.4-17.8c-2.3-0.5-8-1.4-11.7-1.8
	l-1.8-0.2l1.3-0.2C495.4,728.8,505.8,728.7,510.5,729.5z M384.9,730.1c1.8,0.2,4.2,0.7,5.3,1l2.1,0.6l-5.9,0.2
	c-7.7,0.2-11.6,1-18.8,3.8c-7.5,2.9-17.3,8.8-23.5,14c-1.2,1-3.3,2.7-4.7,3.7c-1.4,1-2.8,2.2-3.1,2.6l-0.6,0.7l0.2-0.7
	c0.4-1.4,2.6-5.7,4.2-8.1c4.6-7,10.4-12.3,16-14.7c4.4-1.9,8.9-3.1,13.6-3.7C371.7,729.3,381.7,729.7,384.9,730.1z M391.6,734.2
	c0,0.1-0.7,0.6-1.6,1.2c-0.9,0.6-3.1,2.2-4.9,3.4c-4.5,3.3-8.1,5.5-10.5,6.7c-1.1,0.6-5.2,2-9,3.3c-3.8,1.2-8.7,2.9-10.7,3.8
	c-4.2,1.7-7,2.6-11.5,3.4c-1.6,0.3-3.8,0.8-4.7,1.1c-0.9,0.3-1.7,0.5-1.8,0.5c-0.4,0,1.7-2.2,3.7-3.7c1.3-1,3.2-2.5,4.3-3.3
	c3.7-3,15.9-9.7,21.7-11.9c6.3-2.4,13.9-4.1,19.6-4.3c2.2-0.1,4.4-0.2,4.8-0.2C391.3,734.1,391.6,734.2,391.6,734.2z M490.8,734.4
	c7.3,0.7,16.1,2.8,21.9,5.5c4.7,2.1,11.4,6.4,18.4,11.6c1.4,1.1,3.4,2.6,4.5,3.3c1,0.8,1.9,1.4,1.8,1.4c-0.1,0.1-8-1.5-9.9-2
	c-1.1-0.3-3.7-1.2-5.7-2.1c-2.1-0.8-6.9-2.6-10.7-3.8c-3.8-1.3-7.9-2.7-9-3.3c-2.3-1.1-6-3.4-9.7-6.1c-1.4-1-3.5-2.5-4.7-3.3
	l-2.2-1.5h1.2C487.2,734.1,489.1,734.2,490.8,734.4z M339.3,451v-0.4h3.2l7.5,18l7.3-18h3.7v0.4c-1.3,0-1.7,0.7-1.7,2.9v13.8
	c0,2.3,0.5,2.9,1.7,2.9v0.4h-5.4v-0.4c1.2,0,1.7-0.6,1.7-2.4v-15.6l-6.9,16.9v0l-0.6,1.5H349l-7.2-17.1v14.7c0.1,1.5,0.6,2,1.7,2
	v0.4h-4.2v-0.4c1.3,0,1.7-0.7,1.7-2.9v-15.5C340.6,451.6,340,451,339.3,451z M371.5,471.1h-5.4v-0.4c1.2,0,1.7-0.6,1.7-2.4v-14.9
	c-0.1-1.8-0.5-2.4-1.7-2.4v-0.4h9.4c2.9,0,5.3,2.4,5.3,5.3c0,3.4-2.8,6.1-6.1,6.1h0l4.3,5.8v0l0,0l0.7,1c1.3,1.4,2.7,1.9,3.7,1.9
	v0.4H381c-1.4,0-2-0.1-2.6-0.8l-6.1-8.3h-2.5v5.8c0,2.3,0.5,2.9,1.7,2.9V471.1z M369.8,461.1h4.2c2.6-0.2,4.7-2.4,4.7-5.2
	c0-2.4-1.9-4.4-4.3-4.4h-4.6V461.1z M554.5,459.2c2.7,2.3,9.4,3,9.4,6.3c0,6.2-10.4,5-10.4,0H553v3.6l0.9,0
	c8.1,4.8,15.2-3.3,10.1-7.7c-2.7-2.3-9.4-3-9.4-6.3c0-5.8,9.4-5.3,9.4,0h0.4v-3.6l-0.9,0C556.4,446.5,549.6,454.9,554.5,459.2z
	 M505.3,451.5V467c0,2.3-0.5,2.9-1.7,2.9v0.4h4.2v-0.4c-1.1,0-1.6-0.5-1.7-2v-14.7l7.2,17.1h0.9l0.6-1.5v0l6.9-16.9v15.6
	c-0.1,1.8-0.5,2.4-1.7,2.4v0.4h5.4v-0.4c-1.3,0-1.7-0.7-1.7-2.9v-13.8c0-2.3,0.5-2.9,1.7-2.9v-0.4h-3.7l-7.3,18l-7.5-18h-3.2v0.4
	C504.2,450.3,504.8,450.8,505.3,451.5z M535.8,470.3h-5.4v-0.4c1.2,0,1.7-0.6,1.7-2.4v-14.9c-0.1-1.8-0.5-2.4-1.7-2.4v-0.4h9.4
	c2.9,0,5.3,2.4,5.3,5.3c0,3.4-2.8,6.1-6.1,6.1h0l4.3,5.8v0l0,0l0.7,1c1.3,1.4,2.7,1.9,3.7,1.9v0.4h-2.4c-1.4,0-2-0.1-2.6-0.8
	l-6.1-8.3H534v5.8c0,2.3,0.5,2.9,1.7,2.9V470.3z M534,460.4h4.2c2.6-0.2,4.7-2.4,4.7-5.2c0-2.4-1.9-4.4-4.3-4.4H534V460.4z
	 M610.4,479.1c0,0.8-0.6,1.4-1.4,1.4l-331.6-1c-0.8,0-1.4-0.6-1.4-1.4c0-0.8,0.6-1.4,1.4-1.4l171.4,0.5c-1.7-0.7-3.3-1.6-4.8-2.6
	c-0.5-0.3-0.9-0.4-1.4-0.2c-2.1,0.8-4.3,1.3-6.5,1.7c-2.4,0.4-4.8,0.5-7.2,0.3c-2.4-0.2-4.8-0.6-7-1.5c-1.6-0.6-3-1.3-4.3-2.4
	c-3.4-2.7-4.7-6.3-4.2-10.6c0.3-2.2,1.1-4.2,2.2-6c1.5-2.5,3.5-4.7,5.7-6.6c1.9-1.6,3.8-3.1,5.7-4.7c0.2-0.1,0.3-0.3,0.5-0.4
	c0.4-0.2,0.5-0.5,0.5-1c0-1.7-0.1-3.4,0-5.1c0.3-7,2.4-13.3,6.6-19c2.3-3.1,4.9-5.9,8.1-8.1c2.1-1.5,4.4-2.6,6.9-3.1
	c1.1-0.2,2.3-0.4,3.4-0.2c0.8,0.1,1.6,0.4,2.3,0.8c1.4,0.8,2.1,2,2.3,3.6c0.1,1.3-0.1,2.5-0.5,3.8c-0.8,2.5-2,4.9-3.4,7
	c-2.2,3.2-4.8,6-7.6,8.6c-3.1,2.8-6.5,5.3-9.9,7.7c-1.6,1.1-3.2,2.3-4.8,3.4c-0.1,0.1-0.2,0.2-0.4,0.3c0,0.3,0,0.7,0,1
	c0.5,3.9,1.4,7.7,2.8,11.3c1.6,4.2,3.7,8.1,6.5,11.5c1.5,1.8,3.1,3.4,5,4.8c0.2,0.1,0.4,0.2,0.6,0.4c0.2-0.1,0.4-0.1,0.5-0.2
	c6.6-3.2,12.1-7.7,16.3-13.7c2.1-3,3.6-6.2,4.4-9.7c0.3-1.2,0.5-2.5,0.4-3.8c-0.1-1-0.3-1.9-0.8-2.8c-0.6-1.1-1.6-1.7-2.8-1.7
	c-0.9-0.1-1.9,0.1-2.8,0.4c-2.8,0.9-5.3,2.5-7.5,4.5c-1.3,1.2-2.5,2.6-3.4,4.1c-0.4,0.7-0.9,1.4-1.1,2.4c-0.2,1,0,1.9,0.2,2.4
	c-0.5-0.1-0.7-0.4-0.8-0.7c-0.2-0.6-0.2-1.2-0.1-1.8c0.2-0.9,0.5-1.7,1-2.4c1.1-1.9,2.5-3.5,4.1-4.9c2.1-1.9,4.5-3.3,7.1-4.2
	c1-0.3,2-0.6,3.1-0.5c1.8,0,3.2,0.9,4.1,2.5c0.7,1.2,0.8,2.6,0.8,4c-0.1,1.4-0.3,2.8-0.7,4.1c-1.2,4.2-3.2,8-6,11.3
	c-3.8,4.7-8.4,8.3-13.7,11.1c-0.4,0.2-0.7,0.3-1.1,0.6c0.2,0.1,0.3,0.2,0.4,0.3c3,1.9,6.2,3.1,9.7,3.5c2.1,0.2,4.3,0.1,6.4-0.3
	c4-0.8,7.7-2.2,11-4.4c1.5-1,2.9-2.2,4.1-3.6c1.1-1.3,1.9-2.7,2.4-4.3c0.3-1,0.5-2.1,0.4-3.2c-0.3-2.2-1.5-3.7-3.4-4.8
	c-1.2-0.7-2.6-1-4-1c-0.8,0-1.5,0.2-2.2,0.7c-0.2,0.1-0.4,0.2-0.6,0.4c0-0.6,0.3-0.9,0.6-1.2c0.5-0.4,1.1-0.7,1.8-0.7
	c3.2-0.3,7.3,1.1,8.7,5.2c0.6,1.6,0.5,3.3,0.1,4.9c-0.5,2-1.5,3.7-2.7,5.3c-1.4,1.8-3.1,3.2-5,4.5c-2,1.4-4.2,2.4-6.4,3.3l140.6,0.4
	C609.7,477.7,610.4,478.4,610.4,479.1z M430.7,441.8c0.4-0.2,0.6-0.4,0.8-0.5c1.3-0.9,2.5-1.8,3.8-2.7c3.5-2.5,6.9-5,10.1-7.8
	c2.6-2.4,5-4.9,7-7.7c1.6-2.2,2.8-4.5,3.6-7.1c0.3-0.9,0.5-1.8,0.5-2.7c0.1-2.2-0.9-3.6-2.9-4.2c-0.8-0.3-1.7-0.3-2.6-0.2
	c-1,0.1-2,0.3-3,0.7c-2.3,0.8-4.3,2.1-6.1,3.6c-4.7,4-8,9-9.9,14.9c-0.9,2.8-1.4,5.8-1.5,8.7C430.6,438.3,430.7,439.9,430.7,441.8z
	 M442.2,473.4c-0.2-0.2-0.4-0.3-0.5-0.4c-3.1-2.5-5.6-5.4-7.6-8.8c-3.2-5.5-5.1-11.3-5.9-17.6c-0.1-0.5-0.1-1-0.2-1.5
	c-0.3,0.1-0.4,0.2-0.6,0.3c-2.4,1.8-4.8,3.7-6.9,5.8c-1.5,1.5-2.8,3.1-4,4.8c-1.2,2-2.1,4.1-2.3,6.4c-0.3,3.7,0.9,6.7,3.7,9.1
	c0.9,0.8,2,1.3,3,1.8c2.6,1.2,5.4,1.7,8.2,1.9c3.8,0.2,7.5-0.2,11.1-1.3C440.9,473.9,441.5,473.7,442.2,473.4z"/>
</svg>
