<?xml version="1.0" encoding="utf-8"?>
<!-- Generator: Adobe Illustrator 25.1.0, SVG Export Plug-In . SVG Version: 6.00 Build 0)  -->
<svg version="1.1" id="Слой_1" xmlns="http://www.w3.org/2000/svg" xmlns:xlink="http://www.w3.org/1999/xlink" x="0px" y="0px"
	 viewBox="0 0 2000 2000" style="enable-background:new 0 0 2000 2000;" xml:space="preserve">
<path d="M688.7,907.3c0.6,0.2,3.6-7.8,9.4-17.7c1-1.7,4.8-8.2,10.8-15.9c2.9-3.7,6-7.2,9-10.7c3.2-3.7,6.8-7,10.3-10.3
	c2.5-2.3,5.2-4.3,8.1-6.2c1.9-1.3,4-2,6.2-2.4c2-0.4,3.8,0.5,5.3,2c0.5,0.5,1,1.2,1.3,1.9c0.8,2.3,1.2,4.7,1,7.1
	c0,0.7-0.1,1.4-0.1,2c0,2.4-0.5,4.8-0.9,7.2c-0.7,5.4-2,10.7-3,16c-0.7,3.6-1.6,7.2-2.3,10.8c-1.2,6.1-2.6,12.1-3.6,18.3
	c-0.8,5.1-1.7,10.1-2.5,15.2c-0.5,3.3-0.8,6.6-1.2,9.8c-0.5,3.9-0.7,7.7-1.1,11.6c-0.3,3.6-0.3,7.2-0.3,10.8c0,2.6-0.6,5.2-0.2,7.9
	c0.4,3,0.3,6,0.7,9c0.7,5.7,1.4,11.4,3.7,16.7c0.7,1.6,1.5,3.2,2.6,4.6c1.9,2.5,4.8,2.9,7.1,0.8c1-0.9,1.9-2,2.7-3.1
	c2.2-3.1,3.9-6.5,5.3-10c4.3-10.3,8-20.8,11.7-31.4c1.9-5.6,3.7-11.2,5.5-16.9c1.7-5.3,3.1-10.6,4.4-16c0.9-4,1.9-7.9,2.9-11.9
	c0.3-1.3,0.3-2.4-0.2-3.7c0,0-0.2-0.6-1-3.3c-0.2-0.8-1.3-4.8,0.6-6.6c1-1,2.8-1.4,3.6-0.8c0.1,0.1,0.3,0.3,0.4,0.5
	c0.2,0.4,0.3,0.9,0.3,1.4c0.1,1.2,0,2.3,0.1,3.5c0.2,2.8,1.3,5,3.7,6.6c1.4,0.9,2.8,1.7,4.4,2.2c2.4,0.7,4.8,1.5,7.2,2.2
	c2.5,0.8,4.9,1.8,7.1,3.4c3.2,2.3,5.1,5.5,6.1,9.3c0.9,3.2,0.5,6.4-0.2,9.5c-0.7,3.5-1.9,6.9-3.3,10.2c-1.8,4.4-3.7,8.8-5.5,13.2
	c-2.4,5.8-4.3,11.8-5.8,18c-1.3,5.5-1.7,11.1-1.2,16.8c0.1,1.7,0.6,3.3,1.5,4.7c1,1.6,2.1,2.6,4.7,1.5c1.7-0.8,3.2-1.9,4.6-3.1
	c1.9-1.7,3.5-3.7,4.9-5.8c3.8-5.7,6.9-11.7,9.7-18c1.4-3.2,2.8-6.4,4.2-9.6c1.7-4.1,3.4-8.3,5.1-12.4c0.3-0.8,0.7-1.6,1.1-2.4
	c0.3-0.6,0.9-0.9,1.1-0.7c0.2,0.2,0.5,0.6,0.5,0.9c0,0.9-0.1,1.8-0.3,2.6c-0.8,2.7-1.7,5.4-2.7,8c-3.1,8.3-6.8,16.4-10.7,24.3
	c-2.1,4.2-4.4,8.2-7.3,11.9c-2,2.6-4.2,5.1-7,6.9c-0.8,0.5-1.7,0.9-2.6,1.3c-3.5,1.5-6.8-0.1-8.6-2.4c-1.1-1.4-2-2.9-2.6-4.6
	c-0.7-1.9-1.2-3.9-1.5-5.9c-0.2-1.9-0.6-3.8-0.6-5.8c0-3.9,0.5-7.7,1.2-11.6c1.4-7.3,3.8-14.2,6.8-21c1.8-4,3.5-8,5.3-12
	c0.7-1.6,1.2-3.3,1.8-4.9c1-2.5,1.1-5.1,0.9-7.8c-0.2-3.2-1.8-5.7-4.3-7.5c-1.2-0.9-2.5-1.4-3.9-1.9c-2.4-0.7-4.8-1.5-7.2-2.3
	c-2.9-0.9-5.6-2.3-8-4.5c-0.4,1.9-0.9,3.6-1.2,5.3c-1.1,5.5-2.6,10.9-4.1,16.4c-1.8,6.4-3.7,12.7-5.9,18.9
	c-1.9,5.4-3.8,10.8-5.8,16.2c-2.5,6.7-5,13.3-7.7,19.8c-1.6,3.9-3.4,7.6-5.7,11.1c-1.3,1.9-2.7,3.5-4.8,4.6
	c-2.3,1.2-4.6,1.1-6.9-0.2c-2.1-1.2-3.5-3.1-4.7-5.1c-1.4-2.3-2.6-4.8-3.5-7.4c-1.4-4-2.6-8.1-3.3-12.4c-0.5-3-0.9-5.9-1.3-8.9
	c-1-7.2-0.7-14.4-0.7-21.6c0.7-3.2,0.2-6.4,0.8-9.6c0.3-2,0.4-4.1,0.6-6.1c0.4-3.6,1-7.1,1.5-10.7c1.6-11,4.3-21.7,6.8-32.4
	c1.2-5.2,2.6-10.3,3.8-15.5c0.4-1.9,1.1-5.2,2.4-12c0.6-3.2,1.3-7.1-0.2-7.9c-0.4-0.2-0.8-0.2-1.5-0.1c-1.5,0.1-2.4,1-3.9,1.9
	c-1.2,0.7-2.4,1.6-3.5,2.6c-1.8,1.5-3.6,3-5.2,4.7c-4.5,4.4-8.9,9-12.9,13.9c-5.6,7-10.8,14.3-15.3,22c-3.3,5.7-6.3,11.6-9,17.7
	c-4.8,10.8-8.6,21.8-11.1,33.4c-1.1,5.1-2.1,10.3-2.8,15.5c-0.6,4.2-1.4,8.4-2.1,12.6c-0.1,0.9-0.4,1.7-0.6,2.5
	c-0.1,0.3-0.2,0.6-0.5,0.7c-0.3,0.2-0.7,0.3-1.1,0.2c-0.2,0-0.5-0.3-0.6-0.5c-0.1-0.7-0.2-1.3-0.2-2c0-0.8-0.3-1.5-0.8-2.1
	c-2-2.6-2.7-5.6-2.7-8.8c0-3.4,0.3-6.8,0.7-10.2c0.2-1.8,0.4-3.7,0.7-5.5c0.6-3.7,1.2-7.5,1.9-11.2c1.5-8.6,3.6-17.1,5.7-25.5
	c1.1-4.6,2.4-9.2,3.6-13.8c2.2-8.2,4.6-16.2,6.5-24.5c1.3-6,2.4-12,1.9-18.2c-0.1-1.8-0.6-3.5-1.4-5c-1.2-2.4-3.3-3.3-5.8-2.2
	c-1.6,0.7-3.1,1.6-4.6,2.5c-0.9,0.6-1.7,1.2-2.5,2c-3.4,3.3-6.8,6.7-9.8,10.4c-5.1,6.3-9.6,13-13.9,19.8c-3.6,5.8-6.9,11.7-10,17.8
	c-2.2,4.4-4.3,8.9-6.4,13.4c-3.1,6.8-5.9,13.8-8.3,20.8c-1.4,4.2-2.9,8.5-4.2,12.7c-2.2,7-4,14.2-5.5,21.4c-1.1,5.3-2.2,10.6-3.1,16
	c-0.2,1-0.3,2.1-0.5,3.1c-0.8,5.3-0.5,6.3-1.3,9.2c-0.6,2.3-1.4,5.4-3.2,5.8c-0.5,0.1-1.2,0.1-1.8-0.2c-1.1-0.5-1.6-1.4-1.9-2.2
	c-0.4-1.1-0.8-2.2-0.8-3.4c-0.1-3.8-0.1-7.6,0.3-11.4c0.4-3.4,0.9-6.7,1.2-10.1c0.3-2.4,0.7-4.8,1.1-7.2c0.6-3.6,1.3-7.2,2-10.9
	c0.7-3.8,1.4-7.6,2.2-11.4c1.2-6,2.5-12,3.8-17.9c1.5-7,3.2-14,4.7-21c1.6-7.7,3.4-15.3,4.7-23.1c0.6-3.6,1.4-7.2,1.9-10.9
	c0.5-3.6,0.7-7.3,1.2-11c1.1-7.7,1.1-15.5,0.6-23.3c-0.4-6.4-1.6-12.7-4.4-18.6c-1.9-4.2-4.5-7.9-8.6-10.5c-3-1.9-6.2-3.1-9.8-3.4
	c-1.6-0.1-3.3-0.6-4.9-0.3c-3.8,0.5-7.5,1-11.1,2.3c-5.1,1.8-9.8,4.3-14.3,7.3c-4.9,3.2-9.5,6.8-13.6,11c-1.6,1.6-3.3,3-4.8,4.7
	c-4.7,5.2-9.2,10.6-13.1,16.4c-4.8,7.1-9.2,14.4-12.7,22.2c-4.2,9.3-7.6,18.9-9.8,28.9c-0.8,3.6-1.5,7.2-2,10.8
	c-0.5,3.8-0.8,7.5-0.6,11.3c0.1,1.3,0.1,2.5,0.1,3.8c0.1,4.7,0.9,9.3,2,13.8c1.3,5,3.1,9.8,5.5,14.4c1.7,3.1,3.8,5.9,6.2,8.4
	c2.6,2.6,5.6,4.7,9,5.7c5.3,1.7,10.4,0.8,15-2.4c3-2.1,5.3-4.8,7.3-7.9c3-4.6,5.3-9.5,7.3-14.6c2.6-6.5,4.3-13.3,5.8-20.1
	c0.8-3.6,1.3-7.3,1.8-10.9c0.6-3.8,1.1-7.7,1.4-11.5c0.3-3.1,0.5-6.2,0.5-9.3c0-6.9,0.3-11-0.2-16.1c-0.3-3.3-1-7.8-2.5-13.2
	c0-0.2,0-0.4,0.1-0.6c0.4-0.9,2.2-1,3.1-0.6c1.2,0.4,2.1,1.7,3.1,5.4c1.2,4.5,1.4,8.1,1.5,8.6c0.7,4.9,0.7,9.7,0.6,14.6
	c-0.1,4.1-0.2,8.2-0.7,12.2c-0.2,1.8-0.3,3.7-0.5,5.5c-0.8,7.5-2.1,15-4,22.3c-1.2,4.8-2.9,9.5-4.7,14.1c-1.8,4.3-3.8,8.5-6.2,12.5
	c-1.6,2.8-3.6,5.4-5.8,7.7c-3.2,3.3-6.8,6.1-11.3,7.4c-5.3,1.6-11.1,0.7-15.4-1.8c-5-2.9-8.8-7-11.8-11.9c-3.4-5.6-5.5-11.8-7-18.1
	c-0.7-3-1.1-6.1-1.4-9.2c-0.2-2.5-0.6-5-0.5-7.5c0.2-3.4,0.4-6.8,0.8-10.1c0.4-3.4,1-6.7,1.6-10c0.8-4.8,2.2-9.4,3.7-14
	c1.7-5.6,3.8-11,6.1-16.4c3.6-8.4,7.9-16.5,12.9-24.1c2.9-4.4,6-8.6,9.4-12.6c3.1-3.7,6.3-7.1,9.8-10.5c6.6-6.4,13.8-12,22-16.1
	c4.4-2.2,9.1-3.9,14-4.7c2.6-0.4,5.2-0.6,7.8-0.5c6.4,0.3,12.2,2.6,16.9,7c3.2,3,5.6,6.7,7.3,10.8c2.1,5.1,3.3,10.3,4,15.8
	c0.7,5.5,0.7,11.1,0.7,16.6c0,3.6-0.4,7.2-0.8,10.7c-0.2,2.1-0.3,4.3-0.6,6.4c-0.5,3.2-0.7,6.4-1.2,9.5c-0.6,3.6-1.3,7.3-1.9,10.9
	c-0.7,3.9-1.4,7.8-2.2,11.7c-0.3,1.8-1.2,6.3-3.3,16.2c-2.9,14-4.1,18.7-3.7,18.8c0.3,0.1,1.5-4.4,4.5-12.3c2.5-6.6,4.7-11.5,6-14.6
	c2.4-5.7,5.2-11.3,8.1-16.8c5.1-9.9,10.9-19.5,17.6-28.5c2.7-3.6,5.5-7.1,8.5-10.4c2.1-2.3,4.3-4.5,6.6-6.6c2.6-2.4,5.5-4.4,8.8-5.7
	c3.8-1.6,7.5-1.5,11,1.1c1.3,0.9,2.2,2.2,3,3.5c1.4,2.3,2.2,4.8,2.4,7.4c0.2,3.6,0.3,7.2,0.1,10.8c-0.1,2.6-0.7,5.2-1.2,7.8
	c-1.4,7.3-3.1,14.5-5,21.6c-0.6,2.5-1.2,4.6-2.2,8.7C688.6,906.7,688.5,907.2,688.7,907.3z"/>
<path d="M1531.3,936.2c-0.7,0-1.3,0.1-1.8-0.1c-2-0.6-3.9-0.3-5.7,0.4c-1.2,0.4-2.4,0.9-3.5,1.5c-7.7,3.8-14.5,8.7-20.5,14.9
	c-3.8,4-6.9,8.5-8.8,13.7c-1.7,4.5-2.4,9.2-1.3,14c2,8.2,9.2,14.2,17.7,14.5c3.7,0.2,7.2-0.4,10.6-1.7c12.7-4.8,19.9-14.1,22.3-27.4
	c1.5-8.7,0.6-17.3-1.8-25.7c-1.8-6.1-4.2-11.9-6.8-17.7c-2.1-4.6-4.2-9.2-6.1-13.9c-2.5-5.9-4.3-11.9-5.3-18.2
	c-0.1-0.6-0.2-1.1-0.4-1.7c0-0.2-0.2-0.3-0.4-0.6c-1,0.6-1.4,1.6-1.9,2.5c-8.5,12.9-17,25.9-25.6,38.8c-6.6,9.8-13.5,19.6-20.5,29.2
	c-3,4.2-6.4,8.1-9.8,11.9c-2.5,2.7-5.3,5.2-8.2,7.5c-1.6,1.3-3.6,2.3-5.6,3c-4.3,1.6-7.8,0.3-10.4-3.5c-1.7-2.5-2.4-5.3-2.9-8.2
	c-0.9-5.1-0.5-10.1,0.1-15.1c1.2-9.6,3.9-18.9,7.1-28c1.7-4.9,3.4-9.7,5-14.7c0.9-2.7,1.5-5.4,1.5-8.3c0-2.9-0.9-5.4-2.9-7.4
	c-1.4-1.4-3.1-2.7-4.8-3.8c-1.9-1.3-4-2.4-6-3.6c-3.1-1.9-6-4-8.2-7c-0.2-0.2-0.4-0.4-0.9-0.8c-0.3,1-0.6,1.9-0.7,2.8
	c-3.2,20.1-9.2,39.4-17.3,58.1c-3.5,8.2-7,16.5-11.3,24.4c-1.9,3.4-4,6.7-6.3,9.8c-1.7,2.5-3.9,4.6-6.4,6.3
	c-5.6,3.7-10.4,2.5-13.6-3.4c-2.1-3.9-3.1-8.2-3.7-12.6c-1.3-9.3-1-18.7-0.2-28c1.8-19.5,5.7-38.7,9.5-57.9
	c1.7-8.7,3.3-17.4,4.9-26.1c0.3-1.9,0.4-3.9,0.5-5.8c0.1-1.2,0-2.3-0.5-3.4c-1.3-0.3-2.2,0.3-3.1,1c-1.5,1.2-3.1,2.4-4.5,3.8
	c-3.7,4-7.5,7.9-11,12.1c-21.9,27.3-36,58.2-42.4,92.5c-0.8,4.5-1.2,9.1-1.8,13.6c-0.1,0.7-0.2,1.4-0.4,2c-0.3,1.1-1.3,1.5-2.3,1.1
	c-1-0.4-1.7-1.1-2-2c-0.3-1.2-0.7-2.5-0.6-3.7c0.3-4.9,0.6-9.7,1.2-14.5c3.2-24.7,7.9-49.2,13.4-73.5c1.7-7.5,3.2-15.1,3.7-22.8
	c0.2-2.8,0.1-5.6-0.1-8.5c-0.1-1.1-0.5-2.3-0.9-3.4c-0.7-1.8-2.2-2.8-4.1-2.7c-1.4,0.1-2.9,0.3-4.3,0.7c-2.8,0.8-5.3,2.4-7.8,4
	c-7.1,4.8-12.9,10.9-18.1,17.7c-8.9,11.6-15.4,24.5-20.8,38.1c-3.8,9.5-6.2,19.5-8.7,29.4c-3.8,14.7-6.2,29.7-7.6,44.9
	c-0.2,2.4-0.6,4.8-0.7,7.3c-0.1,2,0,4.1,0.2,6.1c0.1,1.9-0.8,2.8-2.6,2.2c-1.5-0.5-2.6-1.5-3-3c-0.6-1.8-1.1-3.7-1.3-5.7
	c-0.5-5.2-0.1-10.3,0.6-15.4c2.1-16.7,5.7-33.2,9.7-49.6c3-12.2,5.8-24.5,7.7-36.9c1.8-11.9,2.8-23.8,2.1-35.8
	c-0.5-8.1-2.2-16-5.2-23.6c-1.3-3.2-2.8-6.2-4.9-9c-4.5-6.1-10.5-8-17.8-6.5c-3.5,0.7-6.7,2.1-9.8,3.7c-7.9,4.2-14.8,9.8-21,16.1
	c-11.8,12.1-21.3,25.8-29.2,40.7c-7.6,14.4-13,29.5-15.9,45.6c-1.3,7.2-1.7,14.5-1.2,21.8c0.4,5.4,1.7,10.6,3.9,15.5
	c1.1,2.4,2.4,4.7,4.2,6.6c3.5,3.7,7.7,4.7,12.5,3.2c2.4-0.7,4.4-2,6.3-3.6c3.3-2.7,6-5.9,8.3-9.4c5-7.6,8.8-15.8,11.8-24.4
	c3.9-11.2,6.3-22.7,8.2-34.3c1.2-7.5,2-15.1,2.4-22.7c0.2-4.4,0.2-8.8-0.5-13.1c-0.2-1.3-0.2-2.7-1.5-3.5c0.6-0.9,1.2-0.8,1.5-0.3
	c0.6,0.8,1.3,1.7,1.6,2.7c1,2.9,1.3,5.9,1.4,8.9c0.3,5.8,0.1,11.7-0.4,17.5c-1.2,12.8-3.4,25.5-7,37.9c-3,10.1-6.9,19.9-12.2,29
	c-2.5,4.3-5.3,8.4-8.9,11.9c-2.5,2.4-5.1,4.5-8.3,5.8c-2.5,1.1-5.2,1.7-8,1.4c-4-0.5-7.2-2.4-9.7-5.4c-2.2-2.5-3.7-5.5-4.9-8.6
	c-3-7.7-4-15.6-3.6-23.8c0.8-17.3,5.6-33.6,12.4-49.3c8.6-19.9,20.2-37.7,35.3-53.3c5.5-5.7,11.6-10.7,18.4-14.8
	c4.1-2.5,8.4-4.5,13.1-5.6c9.4-2.2,17.1,0.4,23.2,7.9c3.3,4.1,5.6,8.7,7.4,13.5c3.2,8.6,4.6,17.5,5,26.6c0.5,10-0.2,19.9-1.4,29.7
	c-0.5,4.1-1.2,8.3-1.8,12.7c1-0.7,1.2-1.7,1.5-2.5c4.6-9.8,10-19.2,16.4-27.9c4.3-5.8,9-11.2,14.6-15.9c2.9-2.4,6-4.7,9.4-6.3
	c2.3-1.1,4.7-2,7.1-2.5c4.6-1,8.6,1.1,10.4,5.5c0.8,2,1.3,4.3,1.6,6.5c0.7,5.8,0.2,11.7-0.6,17.5c-1.6,12.1-4.1,24-6.4,35.9
	c-0.4,2.2-0.9,4.4-1.3,6.8c1-0.6,1.1-1.6,1.5-2.4c8.1-18.5,18.7-35.5,31.7-51c2.9-3.5,6.2-6.8,9.4-10c1.4-1.5,3-2.8,4.7-3.9
	c1.2-0.8,2.5-1.5,3.9-2c3.2-1.1,6.1,0.2,7.4,3.4c0.7,1.8,1.1,3.8,1.2,5.7c0.3,4.4-0.4,8.8-1.2,13.1c-2,10.4-4.1,20.8-6.3,31.2
	c-2.9,13.5-5.5,27.1-7.1,40.8c-1,8.2-1.8,16.5-1.5,24.8c0.2,4.2,0.7,8.3,1.4,12.5c0.3,2.1,1.2,4.1,2.1,6c1.3,2.7,3,3.1,5.4,1.4
	c1.6-1.1,3.1-2.5,4.2-4c2-2.5,3.8-5.2,5.4-8c2.3-4.3,4.5-8.6,6.5-13.1c6.1-13.5,11.7-27.2,16.4-41.3c4.5-13.4,7.2-27.3,9.4-41.2
	c0.2-1,0.1-1.9,0.2-2.9c0.1-0.7,0.2-1.4,0.6-1.9c1-1.6,3.1-1.6,4.1-0.1c0.3,0.5,0.5,1.1,0.6,1.6c0.1,0.5,0.1,1,0.1,1.5
	c0.7,6.7,3.7,11.8,9.9,14.8c2.3,1.1,4.5,2.3,6.6,3.7c2.1,1.4,4.2,2.8,6.1,4.5c4,3.7,5.7,8.4,5.1,13.7c-0.3,3.1-0.8,6.2-1.7,9.2
	c-1.9,6.1-4,12.2-6.1,18.3c-2.9,8.3-5.7,16.6-7,25.3c-0.7,4.3-1.2,8.7-0.2,13.1c0.2,1,0.5,2.1,1,3.1c1.2,2.7,3,3.4,5.7,2.3
	c1.5-0.6,3-1.5,4.2-2.5c2.2-1.8,4.3-3.7,6.1-5.8c3.3-3.8,6.6-7.7,9.6-11.7c11.1-14.9,21.6-30.3,31.9-45.8
	c6.5-9.7,12.7-19.6,19.1-29.4c0.9-1.4,1.4-2.9,1.5-4.6c0.2-5,1-9.9,3-14.5c0.8-1.9,1.8-3.7,3-5.3c0.8-1.1,1.9-2,3.1-2.5
	c2.3-1.1,4.9,0.1,5.7,2.5c0.3,1,0.5,2.2,0.3,3.1c-0.4,1.9-0.9,3.8-1.7,5.5c-1.5,3.1-3.2,6-5,8.9c-1.1,1.8-1.5,3.5-1.3,5.5
	c0.6,6.4,1.9,12.7,4.6,18.6c2.5,5.6,5.2,11.1,7.9,16.6c3.2,6.5,6.3,13,8.5,19.9c2.1,6.5,3.5,13.2,3.5,20.1
	c-0.1,6.5-1.1,12.8-3.7,18.8c-5.9,13.6-16.2,21.9-30.3,25.6c-5.9,1.5-11.8,1-17.4-1.6c-9.1-4.2-14.3-14-13.5-23.6
	c0.7-8.1,3.9-15.1,8.9-21.3c7-8.7,15.9-14.9,26.1-19.1c2.2-0.9,4.5-1.5,6.8-1.2C1529.3,933.4,1530.8,934,1531.3,936.2z"/>
<path d="M1039.3,1077c-3.7-0.6-4.8-2.6-5.6-4.8c-1.5-4.1-1.4-8.3-0.6-12.5c1.2-5.8,3.6-11.2,6.6-16.3c7.4-12.7,16.9-23.7,27.8-33.4
	c14.2-12.6,30.1-22.3,48.2-28.4c6.8-2.3,13.8-3.9,21.1-3.7c12.5,0.3,21.8,5.8,27.6,16.9c4.4,8.4,5.7,17.6,5.2,27
	c-0.5,9.5-2.2,18.8-4.8,28c-7.9,28.5-21.9,53.8-40.5,76.6c-25.6,31.5-56.9,56.2-92.9,74.9c-2.4,1.2-5,2.1-7.3,4.3
	c1,0.8,1.7,1.5,2.6,2.1c20.1,12.6,41.8,21.1,65.4,23.7c14.5,1.6,29.1,0.9,43.5-1.9c26.8-5.2,51.7-15,74.6-30.1
	c10.4-6.9,19.9-14.9,28-24.5c7.2-8.7,13.1-18.1,16.5-28.9c2.3-7.1,3.5-14.3,2.5-21.8c-2-14.7-10.1-25.3-22.8-32.3
	c-8.3-4.5-17.3-6.6-26.7-6.5c-5.4,0.1-10.4,1.4-14.7,4.8c-1.1,0.9-2.4,1.4-4.3,2.5c0.1-4,2-6.1,4.1-8c3.5-3,7.7-4.5,12.1-5
	c21.4-2.2,49.1,7.3,58.7,35.3c3.7,10.9,3.4,22,0.7,33c-3.3,13.3-9.8,25.1-18.3,35.7c-9.5,12-20.9,21.9-33.6,30.4
	c-26,17.3-54.4,28.6-85.2,33.6c-31.2,5.1-61.3,0.5-90.3-11.6c-11.5-4.8-22.5-10.6-32.8-17.7c-3.1-2.1-5.7-2.5-9.3-1.2
	c-14.3,5.2-28.9,9.1-44,11.4c-16.1,2.5-32.3,3.2-48.5,2c-16.3-1.2-32.1-4.3-47.5-9.9c-10.5-3.9-20.6-8.8-29.3-15.9
	c-22.9-18.6-32.1-42.7-28.6-71.7c1.8-14.7,7.3-28.1,15-40.6c10.4-17.1,23.6-31.9,38.6-44.9c12.5-10.9,25.7-21.1,38.7-31.6
	c1.1-0.9,2.3-1.9,3.5-2.6c2.6-1.6,3.4-3.7,3.3-6.8c-0.3-11.6-0.5-23.2,0-34.8c2.1-47.1,16.4-90.1,44.5-128.3
	c15.5-21,33.3-39.7,54.9-54.7c14.3-9.9,29.8-17.5,47-21.1c7.7-1.6,15.4-2.4,23.2-1.1c5.5,0.9,10.7,2.5,15.4,5.3
	c9.2,5.4,14.2,13.6,15.2,24.1c0.9,8.7-0.5,17.2-3.1,25.6c-5.2,17.1-13.2,32.8-23.2,47.6c-14.6,21.6-32.3,40.5-51.6,57.9
	c-21,19-43.8,35.7-66.9,52c-10.9,7.6-21.7,15.3-32.6,22.9c-0.9,0.6-1.7,1.3-2.7,2.1c0,2.2-0.2,4.5,0.1,6.7
	c3.4,26.2,9.3,51.9,18.7,76.6c10.8,28.1,24.8,54.5,44,77.9c9.9,12.1,21.1,23,33.6,32.5c1.2,0.9,2.4,1.6,3.8,2.6
	c1.2-0.4,2.4-0.7,3.5-1.2c44.5-21.6,81.7-51.9,110-92.7c14-20.1,24.2-42,29.7-65.9c2-8.4,3.3-17,2.8-25.7
	c-0.4-6.6-1.9-12.9-5.3-18.7c-4.3-7.3-10.6-11.2-19.1-11.6c-6.4-0.3-12.6,0.7-18.7,2.7c-19.2,6.2-35.9,16.7-50.6,30.2
	c-8.9,8.2-16.6,17.3-23.1,27.6c-2.9,4.6-6.2,9.2-7.4,16C1036.9,1067.7,1038.2,1073.5,1039.3,1077z M992.1,1210.4
	c-1.7-1.5-2.4-2.2-3.2-2.8c-20.9-16.6-37.8-36.6-51.3-59.5c-21.6-36.9-34.5-76.7-39.7-119c-0.4-3.3-0.9-6.6-1.4-10.5
	c-1.7,1-2.9,1.4-3.8,2.2c-16.3,12.3-32.3,25-46.8,39.5c-10,10-19.2,20.7-26.7,32.7c-8.4,13.4-14.2,27.7-15.7,43.6
	c-2.3,24.9,6,45.5,25.2,61.6c6.2,5.2,13.2,9,20.6,12.3c17.7,7.8,36.5,11.7,55.7,12.9c25.5,1.5,50.5-1.4,74.9-8.9
	C983.6,1213.3,987.4,1212,992.1,1210.4z M914.5,996.6c2.6-1.6,4.2-2.5,5.6-3.6c8.6-6.1,17.2-12.2,25.8-18.2
	c23.6-16.6,46.9-33.6,68.4-53.1c17.5-15.9,33.8-32.9,47.5-52.3c10.5-14.9,19.1-30.7,24.6-48.2c1.9-6.1,3.2-12.2,3.4-18.6
	c0.5-14.8-6.1-24.4-19.8-28.6c-5.7-1.7-11.6-2.3-17.5-1.7c-6.9,0.8-13.7,2.2-20.3,4.6c-15.2,5.6-28.8,13.9-41,24.5
	c-31.7,27.3-54.3,60.8-67.1,100.7c-6.2,19.2-9.2,38.9-10,59C913.5,972.5,914.2,983.9,914.5,996.6z"/>
<path d="M1854.7,779.2c-1.8-0.8-5.9,4.5-7.1,5.9c-9.3,11.7-18.8,15.6-37,31.2c-10,8.6-25.8,23.5-47.8,49.1c0.2-1.5,0.3-3,0.5-4.4
	c1.5-12.9,3.9-22.5,6.1-31.7c1.8-7.2,3.4-14.1,4.5-21.8c0.5-3.6,0.8-7.4,1.1-11c0.7-7.9,1.4-16.1,4-23.5
	c6.6-8.4,30.6-40.7,28.6-87.4c-1.1-26-12.6-45.5-35.5-84.5c-1.8-3.1-5.5-9.1-8.3-8.5c-2.8,0.7-4.2,7.9-4.2,59.5
	c0,6.7,0,12.2,0.1,15.9l-16.9-29.6c-10.8-22-14.7-43.6-11.7-64.2c3.5-18,3.6-36.6,3.7-54.6c0-3.2,0.2-9.3,0.1-12.1
	c-0.9-50.2-66.9-114.7-74.4-109.3c-0.6,0.4-0.8,1.3-0.3,5.3c2.3,20.5,10.5,35.4,12.5,39c12.9,23.4,19.3,35,22,43
	c2.6,7.8,2,8.8,8.4,35c2.5,10.1,5,20.3,7.6,30.5c-5.9-10.2-11.9-20.5-18-30.8c-6.4-10.8-9.7-15.8-11.4-18.5
	c-1.9-2.9-2.1-3.2-2.7-5.3l-1.2-4.2c-5.3-18.5-10.7-37.6-20.3-54.7c-2.5-4.4-5-8.7-7.7-13c-5.5-8.6-8.1-11.6-10-17.5
	c-1.6-5-1.7-9.5-1.6-12.4c0.4-6.1,0.1-16.2-5-27c-2.5-5.3-4.5-9.6-7-9.5c-5.7,0.3-11.6,24.3-4.5,33.4c0.6,0.8,1.6,3.5,5.7,6.9
	c2.4,2,4.6,3.9,5.5,7.1c3,8.2,7.3,16.3,14,26.3c12.4,19.1,20.8,38.7,25.1,58.3c-4.1-4.5-8-9.3-11.8-13.9
	c-10.4-12.7-21.2-25.8-35.4-34.9c-3.8-2.5-7-6-10-11.1c-12.6-25.7-26.6-43.1-44.1-54.7c-16.7-11.1-37.3-17.8-66.9-21.6
	c-3.5-0.4-6.3-1.9-10-3.6c-4.1-1.8-5.1-2.8-5.4-2.5c-1.1,1.2,14.2,21.5,38.5,37.4c8.5,5.6,10.2,6.4,24.4,13.4
	c13.4,6.7,27.2,13.6,38.1,24.6c-11.5-4-23.5-6.6-35.2-9.2c-17.9-3.9-36.5-7.9-52.8-17.1c-12.5-7-24.3-12.3-35.9-16.2
	c-11.1-3.8-22.8-5.3-35.7-4.6c-2.4,0.1-4.5,0-6.4-0.7c-1.3-0.5-2.1-1.1-2.3-1.2c-4.9-3.3-42.1-11.7-45.7-2.6c-0.6,1.6,0,3.2,0.8,5.5
	c2.5,6.6,8.8,9.7,10.4,10.5c9.5,4.5,21.6,3.8,28.8-1.7c6-3.8,12.7-5.7,20.5-5.7c0.1,0,0.1,0,0.2,0c20.8,0.3,42.5,7.7,68,23.2
	c-11.3-0.1-23-0.4-35.1-1.2c-4.7-0.3-9.2-0.6-13.7-1c5.2-0.8,12.7-1.8,22-2.7c5-0.5,6.1-0.6,6.1-0.8c0-1-16.7-4.4-35-0.8
	c-2.6,0.5-4.8,1.1-6.3,1.5c-6.4,2.2-11.4,0.7-17.8-1.2c-1.8-1-2.5-1-2.7-0.8c-0.6,0.6,0.5,2.9,2.1,4.4c0.7,0.7,1.5,1.1,2,1.3
	c-34.3,13.7-42.1,10.2-57.3,3.2c-7.6-3.4-17-7.7-32.2-11.1c-0.5-0.1-11.3-2.7-21.2-3.9c-28-3.4-36.2,5.3-64.6,1.3
	c-10.6-1.5-14.3-3.4-15-2c-2.2,4.3,29.1,32.6,67.2,37.9c17.1,2.4,35,0.1,39.7-0.6c6.6-0.9,13.2-2.3,19.6-4.1c-3.1,1.3-6.4,2.6-10,4
	c-16.9,6.8-38,15.2-59.9,28.2c-2.1,1.2-4.2,2.5-6.2,3.8c-10.1,6.3-19.7,12.3-31.8,12.1c-37.9,0.9-80.9,2-114.9,25.9
	c-9,6-15.6,14.6-21.4,23c-19.1,37.6-22.1,48.3-20.2,49.5c3.5,2.2,19.8-29.2,56.5-39.7c4.5-1.3,2.2-0.5,13.5-2.7
	c24.7-4.9,50.3-9.9,69.2-27.4c0.9-0.8,4.4-4.2,9.5-8.4c6-5.1,14.4-11.6,14.8-11.1c0.7,0.8-22.7,22.1-38.2,38.7
	c-3.6,3.9-6.6,7.1-9.1,9.9c-7,7.8-10.9,12-19,18.6c-12.1,9.9-27.7,19.4-47.6,31.3c-7.5,4.5-15.3,9.2-23.7,14.4
	c-7.3,4.5-17.2,10.7-26.6,22.2c-4,4.9-6.4,8.9-8.7,12.8l-0.1,0.1c-4,6.7-8,13.4-12.1,20.2c-4.8,7.9-9.6,15.8-14.4,23.6
	c28.8-6.7,43.8-19.1,51.6-27.7c9.1-10,24-32.8,29.9-41.8c4-6.2,7.2-11.2,8.9-13.4c2.3-3.1,4.9-5.9,5-5.9c0,0,2.4-2.6,5-5
	c4.5-4.1,12-8.4,16.6-11c2.7-1.6,2.3-1.3,3.4-2c11.1-6.8,17.1-13.4,17.4-13.1c0.4,0.4-7.9,8.7-16.8,19.5
	c-6.6,8.1-11.4,14.3-12.3,15.7c-11,16.1-19,37.5-24.4,65.5c-1.2,6.3-0.8,5.4-1.8,10c-6.4,29.7-18.7,44.2-15.7,46.9
	c2.8,2.5,16.2-7.4,26.5-16.5c13.4-11.9,35.7-35.2,48.1-70c4.8-13.6,5.8-28,6.8-41.9c0.5-6.8,1-13.9,1.9-20.7
	c2.6-19.1,13.3-32.4,21.2-42.1c1.8-2.2,3.4-4.2,4.8-6.1c19.7-26.7,45.7-48.3,77.3-64.2c-5.7,5.6-10.6,11.7-14.6,18.3
	c-5.6,9.2-17.7,32.7-24.2,45.4c-1.8,3.6-3.2,6.2-3.7,7.2c-0.4,0.7-1.4,2.6-3.4,3.8c-0.8,0.4-1.6,0.7-2.6,0.9
	c-3.2,0.6-10.5,4.7-14.3,11.1c-2.8,4.8-4.8,12.8-1.5,15.7c1.9,1.6,5.1,1.3,6.6,1.1c0.8-0.1,3.5-0.4,6.4-2.4
	c6.7-4.4,10.9-14,11.4-21.1c0.3-2.9,1.3-5.1,2.3-7.1c3.9-6.9,7.6-14.1,11.1-21.1c5.1-10,10.4-20.4,16.5-30.1
	c12.1-18.8,27.2-31.6,43.6-36.9c5-1.7,10-3.4,14.8-5.2c12.2-4.4,24.9-8.9,37.7-11.8c5.6-1.2,11.1-3.1,16.5-4.9
	c9-3.1,18.3-6.2,27.8-6.1c10.3,1.9,19.6,1.7,29.4,1.5c2.2,0,4.5-0.1,6.8-0.1c-5.5,1.2-10.9,2-16.2,2.8c-5.4,0.8-11,1.6-16.7,2.9
	c-14.4,3-27.7,9-42.3,16c-1.3,0.6-3.3,1.4-5.9,2.2c-10.2,3-15.9,0.6-23.9,2.4c-3.5,0.8-8.4,2.5-14,7.1c-1.2,1.5-1.5,3.1-0.9,4.7
	c1.4,3.7,7.2,6.2,9.9,6.7c14.4,3.6,29.5-3.3,35.2-16.1c0.5-1,1.6-1.1,1.8-1.3c24.2-17.9,83.8-23.2,84-21.4c0.1,0.5-3.7,0.8-13.9,4.6
	c-3.8,1.4-6.5,2.6-8.8,3.7c-2.6,1.2-4.4,2.1-5.6,2.8c0,0-4.4,2.3-14.1,6.7c-12.6,5.7-25.7,9.9-39.3,14.3c-3,1-6.1,1.9-9.2,2.9
	c-2,0.9-3.2,2-3.4,3.3c-1.1,5.6,15.2,13.6,26.9,16.9c7.6,2.2,15.6,3.1,23.6,2.9c20.1-0.6,36-7.7,49.4-14.3
	c22.4-11.1,32.3-18.7,38.9-23.8c6.2-4.7,9.6-7.4,18-8.7c26.5-4.3,50.9,12.6,65.5,22.7c1.4,1,2.8,1.9,4,2.8
	c10.5,7.1,18.7,17.2,26.6,26.9c2.7,3.4,5.6,6.8,8.4,10.1c17.7,20.3,29.6,37.9,39.7,58.9c0.3,0.6,0.5,1.1,0.8,1.6
	c-4.2-3.4-7.8-8-11.3-12.6c-1.2-1.5-2.4-3.1-3.6-4.5c-9.1-10.8-16.8-20.8-23.7-30.5c-2.2-3-4.1-6.3-5.9-9.5c-0.5-0.9-1-1.7-1.5-2.6
	c-5.5-9.7-14.3-16.7-22.7-23.4c-0.9-0.7-1.8-1.4-2.7-2.1c-4.1-3.3-8.3-4.2-10-4.7c-15.8-4.7-23.7-7-29.5-9.9c-3-1.5-4-2.2-4.4-1.8
	c-2.4,2.1,15.6,25.9,29.2,43.9c7.8,10.3,11.9,15.2,13.6,17.5c11.1,14.7,27.4,23.5,43.2,31.9c9,4.8,18.3,9.8,26.5,15.8
	c8,5.8,13.3,12.5,16.2,20.2c0.9,3,2.2,5.9,3.5,8.7c1.5,3.2,3,6.6,3.8,10c-13.7-15.4-30.4-28.1-46.6-40.4c-3.9-3-7.9-6-11.8-9.1
	c-13.4-10-23.5-15.3-32.4-20c-16.2-8.5-27.8-14.6-46.5-43.4l-0.6-0.9l-0.6,1c-1.8,2.9-1.3,5.8-0.7,8.5c0.2,0.8,0.3,1.6,0.4,2.5
	c4.8,27.9,15.6,50.3,32.1,66.5c16.7,19.5,40.5,27,63.6,34.2c13.1,4.1,26.7,8.4,38.7,14.8c6.8,4.3,11,10,13.2,17.8
	c2.2,7.7,5,18.9,7.6,29.8c2.5,10.3,3.8,18.4,7.2,28.3c4.8,14,11.1,26.2,11.7,26c0.3-0.1-0.7-2.9-2.2-7.9c-2.5-8-3.8-13.5-6.4-24.6
	c-2.4-9.9-4.5-20-6.3-29.9c1.6,2.1,3.1,4.3,4.6,6.5c11.2,16.9,18.3,35,21.5,55.3c4.2,26.1,7.8,53.8,2.8,81
	c-1.6-27.6-8.5-51.6-20.5-71.6c-6.7-11.1-13-17.8-19.1-24.3c-8-8.4-15.5-16.4-23.6-33.1l-0.4-0.8c-2.6-5.4-7-14.4-11.7-13.9
	c-3.7,0.4-6.7,7.2-8.9,20c-4.8,28.4-10.3,60.6,6.3,95.1c9.1,18.9,22.1,34.6,33.6,48.5c11.2,13.6,21.8,26.4,27,39.9
	c2.3,6.1,4.5,13.2,1.1,19.7c-2.4,4.7-4.6,9.5-6.8,14.2c-1.5,3.3-3.1,6.7-4.7,10c-3.6,7.1-7.1,14.4-10.5,21.4
	c-6.7,13.9-13.6,28.2-21.8,41.6c-0.9-2.5-1.8-5-2.6-7.5c-3.2-9.3-6.3-18-10.4-26.9c-2.6-5.6-2-4.8-2.4-5.9
	c-6.8-18.6-2.9-30.8-6.3-31.8c-4.2-1.3-13.9,17.3-20.2,29.4c-1.2,2.2-2.3,4.4-3.7,7.4c-17.6,36.8-26.9,68.8-19,114.7
	c1,5.6-2.1,10.2-5,14.7c-1.1,1.7-1.9,3-2.1,3.3c-8.3,11.8-30.6,64.7-22,86.5c0.4,0.9,1.5,3.7,2.4,3.6c1.8-0.3,0.7-11.2,1.5-21.9
	c1.3-16.1,6.6-28,13.5-43.3c3-6.6,7.3-15.1,13.3-24.7c0.7,4.2,1.6,8.6,2.4,12.7c3.8,19.3,7.7,39.2,3.3,58.6
	c-18.9,38.4-52.4,65.4-84.8,91.4c-17.2,13.8-34.9,28-50.3,43.9c2.5-4.7,6.4-11.5,11.6-19.3c10.1-15.1,19.4-25,38-45
	c12.7-13.6,15-15.1,17.3-16.3c3.1-1.7,10.7-4.5,17.5-11.4c1-1,2-2,3-3c3.8-4.1,5.9-9.3,6.6-16c0.3-3-0.5-5-2.3-6
	c-5.9-3.2-21.1,7.2-23.6,9.2c-7.3,5-8.6,10.9-10,17.2c-1.5,6.9-3.1,14.1-12.3,21.8c-14.8,14-26.2,26.4-36,39.1
	c-1.8,2.6-3.2,5.3-4.6,8c-1.7,3.2-3.4,6.5-5.7,9.4c1-5.3,2.9-10.2,4.7-14.9c2-5.2,4.1-10.5,5-16.5c1-4.9,3.2-9.9,6.6-14.7
	c4.9-7,15.7-30.9,20.8-45.1c8.3-23,0.1-24,8-67.9c3.5-19.8,7.4-32.1,4.2-33.5c-3.2-1.4-11.2,8.6-15.7,16.3
	c-4.2,7.3-6.5,16.4-11,34.4c-1.6,6.5-2.4,9.8-3.3,14.3c-1.6,9.1-2.4,18.4-3.1,27.4c-0.8,10-1.7,20.4-3.7,30.3c-1.1,4-2.3,8-3.5,11.9
	c-2.4,7.7-4.9,15.7-6,24c-1.7,9.6-4.5,18.4-7.4,27.7c-0.7,2.2-1.4,4.3-2.1,6.6c-1.9-4.7-1.8-10-1.8-15.1c0-0.7,0-1.4,0-2.1
	c0.9-16.6-1.2-31-6.4-44c-8.8-18.4-17.9-37.5-22.5-58.2c-0.9-3.8-2.2-7.5-3.5-11c-0.7-1.9-1.4-3.8-2-5.8c-1.1-3.4-1.7-5.3-2.2-7
	c-2.5-7.9-3.7-11.8-4.9-11.9c-3.2-0.2-12.2,26.4-9,56.2c3.2,29.9,17.9,53.1,21.5,59.5c2.8,5,6.3,9.9,9.7,14.8
	c9.5,13.5,19.3,27.4,17,44.2c-0.3,3-1.4,5.2-3.4,7.1c-20.2,19.8-36.2,38.5-48.8,57.4c-8.2,12.5-13.5,22.4-17.8,30.3
	c-12.4,23.1-16.7,31.1-59.9,46.5c6.2-9.1,10.7-17.9,14-26.5c4.7-12.2,5.8-20.1,10.4-60.9c3.7-32.5,5.4-47.6,2.6-48.3
	c-0.7-0.2-1.4,0.7-2.3,1.7c-4.9,5.9-10.3,11.5-15.4,17c-8.6,9.1-17.4,18.5-24.7,29c-4.2,6.2-9.1,12.4-13.8,18.4
	c-12.9,16.4-26.2,33.3-29.7,54.4c-10.9,2.2-19.4,13.3-18.9,25.1c0.1,2.1-0.3,7.6-2.4,14c-0.8,2.5-1.7,4.4-2.1,5.4
	c-6.8,14.8-10.2,22.2-12.5,26.2c-4.6,7.8-10.2,15.3-16.6,22.3c1.3-3.1,3.1-7.7,4.8-13.4c2.5-8.4,11.7-40.3,2-75.1
	c-4-14.4-8.2-18.2-13.2-39.1c-1.6-6.9-2.6-12.6-4-12.5c-3.2,0.1-5.1,31.3-5.4,37c-0.4,6.3-0.8,16.1-3.1,29.7
	c-0.4,2.1-0.6,3.5-0.8,4.5c-6.4,35.3-4.6,69.4-4.6,69.4c0,18.9,2.3,19.4,0.5,26c-5.4,19.7-23.6,30.5-24.9,31.2
	c-1.6,0.9-6.4,2.5-15.6,6.4c-8.1,3.5-16.4,7-24.8,9.5c3.1-8.7,6.9-17.3,10.5-25.6c2.5-5.8,5.2-11.8,7.6-17.8c1.2-3,1.2-3.1,1.9-4.7
	c4-9.5,7-12.8,5.9-14.2c-1.3-1.7-7.2,0.9-8,1.3c-30.6,13.5-60.2,64-63,70.9c-0.1,0.2-0.7,1.4-1.4,3.1c-1.1,2.6-2.3,5.3-4.1,7.1
	c-3.4,3.4-6.7,4.7-20,10.3c0,0-4.2,1.8-7.5,3.3c-4.3,2-8.3,4.2-12,6.5c3.1-17.5-0.9-31.2-8.7-35.3c-4.5-2.4-11.9-2.7-17.7-0.6
	c-5.8,2.1-10.4,5.8-14.6,10.2c-7.2,7.6-12.1,16.7-16,26.3c-1.2,3-2.4,5.9-4.5,11.1c-2-5.3-3-8.1-4.1-10.9
	c-3.9-9.6-8.7-18.7-15.9-26.3c-4.6-4.9-8.7-8.9-15.5-10.6c-7-1.8-15.7-0.8-21.1,3.4c-8.6,6.7-8.2,21.2-6.1,33.1
	c-3.8-2.4-8.1-4.8-12.6-6.9c-3.3-1.5-7.5-3.3-7.5-3.3c-13.3-5.6-16.6-6.9-20-10.3c-1.8-1.8-3-4.5-4.1-7.1c-0.7-1.7-1.3-2.9-1.4-3.1
	c-2.9-6.9-32.5-57.4-63-70.9c-0.9-0.4-6.7-2.9-8-1.3c-1.1,1.4,1.9,4.7,5.9,14.2c0.7,1.6,0.7,1.6,1.9,4.7c2.4,6,5,12,7.6,17.8
	c3.7,8.3,7.4,16.9,10.5,25.6c-8.5-2.5-16.8-6.1-24.8-9.5c-9.2-3.9-14-5.5-15.6-6.4c-1.3-0.8-19.5-11.5-24.9-31.2
	c-1.8-6.6,0.5-7.2,0.5-26c0,0,1.8-34.1-4.6-69.4c-0.2-0.9-0.4-2.3-0.8-4.5c-2.3-13.6-2.7-23.4-3.1-29.7c-0.3-5.7-2.2-36.9-5.4-37
	c-1.4,0-2.4,5.6-4,12.5c-5,20.9-9.2,24.7-13.2,39.1c-9.8,34.8-0.5,66.8,2,75.1c1.7,5.7,3.5,10.3,4.8,13.4c-6.4-7-12-14.5-16.6-22.3
	c-2.3-4-5.7-11.4-12.5-26.2c-0.4-0.9-1.3-2.8-2.1-5.4c-2.1-6.4-2.5-11.9-2.4-14c0.5-11.8-8-22.9-18.9-25.1
	c-3.6-21.1-16.9-38-29.7-54.4c-4.7-6-9.5-12.1-13.8-18.4c-7.3-10.5-16.2-19.9-24.7-29c-5.2-5.5-10.5-11.1-15.4-17
	c-0.8-1-1.6-1.9-2.3-1.7c-2.7,0.6-1.1,15.7,2.6,48.3c4.6,40.7,5.7,48.6,10.4,60.9c3.3,8.6,7.8,17.4,14,26.5
	c-43.2-15.4-47.5-23.4-59.9-46.5c-4.3-7.9-9.6-17.8-17.8-30.3c-12.6-18.9-28.5-37.6-48.8-57.4c-2-1.8-3.1-4.1-3.4-7.1
	c-2.3-16.8,7.5-30.7,17-44.2c3.4-4.8,6.9-9.8,9.7-14.8c3.6-6.4,18.3-29.6,21.5-59.5c3.2-29.8-5.9-56.4-9-56.2
	c-1.2,0.1-2.4,4-4.9,11.9c-0.5,1.7-1.1,3.6-2.2,7c-0.6,2-1.3,3.9-2,5.8c-1.3,3.6-2.6,7.3-3.5,11c-4.6,20.7-13.7,39.8-22.5,58.2
	c-5.2,13-7.3,27.4-6.4,44c0,0.7,0,1.4,0,2.1c0.1,5.1,0.1,10.5-1.8,15.1c-0.7-2.2-1.4-4.4-2.1-6.6c-3-9.3-5.7-18.1-7.4-27.7
	c-1.1-8.2-3.6-16.2-6-24c-1.2-3.9-2.4-7.9-3.5-11.9c-2-9.9-2.9-20.3-3.7-30.3c-0.7-9-1.5-18.3-3.1-27.4c-0.8-4.5-1.6-7.7-3.3-14.3
	c-4.5-18-6.8-27.2-11-34.4c-4.5-7.8-12.6-17.8-15.7-16.3c-3.2,1.5,0.7,13.7,4.2,33.5c7.8,43.8-0.4,44.8,8,67.9
	c5.1,14.2,15.9,38.1,20.8,45.1c3.4,4.8,5.6,9.8,6.6,14.7c0.9,5.9,3,11.3,5,16.5c1.8,4.7,3.7,9.6,4.7,14.9c-2.3-3-4-6.3-5.7-9.4
	c-1.4-2.7-2.9-5.4-4.6-8c-9.8-12.7-21.2-25.1-36-39.1c-9.2-7.7-10.8-14.9-12.3-21.8c-1.4-6.3-2.7-12.3-10-17.2
	c-2.5-2-17.7-12.4-23.6-9.2c-1.8,1-2.6,3-2.3,6c0.7,6.7,2.8,11.9,6.6,16c1,1,2,2,3,3c6.8,6.9,14.4,9.7,17.5,11.4
	c2.3,1.2,4.6,2.7,17.3,16.3c18.6,20,27.9,29.9,38,45c5.2,7.8,9.1,14.6,11.6,19.3c-15.4-15.8-33.1-30.1-50.3-43.9
	c-32.4-26-65.9-53-84.8-91.4c-4.4-19.3-0.5-39.3,3.3-58.6c0.8-4.2,1.7-8.5,2.4-12.7c6.1,9.6,10.4,18.1,13.3,24.7
	c6.9,15.3,12.3,27.2,13.5,43.3c0.8,10.7-0.3,21.7,1.5,21.9c0.9,0.1,2.1-2.7,2.4-3.6c8.6-21.8-13.6-74.7-22-86.5
	c-0.3-0.4-1-1.6-2.1-3.3c-3-4.5-6.1-9.1-5-14.7c7.9-45.9-1.4-77.9-19-114.7c-1.4-3-2.5-5.2-3.7-7.4c-6.3-12.1-16-30.6-20.2-29.4
	c-3.3,1,0.6,13.2-6.3,31.8c-0.4,1.1,0.2,0.3-2.4,5.9c-4.1,8.8-7.1,17.6-10.4,26.9c-0.9,2.5-1.7,5-2.6,7.5
	c-8.2-13.4-15.1-27.7-21.8-41.6c-3.4-7-6.9-14.3-10.5-21.4c-1.6-3.3-3.2-6.7-4.7-10c-2.2-4.7-4.4-9.5-6.8-14.2
	c-3.5-6.5-1.3-13.6,1.1-19.7c5.1-13.5,15.7-26.3,27-39.9c11.5-13.9,24.5-29.6,33.6-48.5c16.6-34.4,11.1-66.6,6.3-95.1
	c-2.2-12.8-5.2-19.5-8.9-20c-4.8-0.5-9.2,8.5-11.7,13.9l-0.4,0.8c-8.1,16.7-15.6,24.7-23.6,33.1c-6.1,6.5-12.5,13.2-19.1,24.3
	c-12,19.9-18.9,44-20.5,71.6c-5-27.2-1.4-54.8,2.8-81c3.2-20.3,10.3-38.4,21.5-55.3c1.5-2.2,3-4.4,4.6-6.5c-1.8,9.9-3.9,20-6.3,29.9
	c-2.7,11.1-4,16.6-6.4,24.6c-1.5,5-2.5,7.8-2.2,7.9c0.6,0.2,6.9-12,11.7-26c3.4-9.9,4.7-17.9,7.2-28.3c2.6-10.9,5.4-22.1,7.6-29.8
	c2.3-7.9,6.5-13.5,13.2-17.8c12-6.4,25.6-10.7,38.7-14.8c23-7.3,46.9-14.8,63.6-34.2c16.5-16.2,27.3-38.6,32.1-66.5
	c0.1-0.9,0.3-1.7,0.4-2.5c0.5-2.7,1.1-5.6-0.7-8.5l-0.6-1l-0.6,0.9c-18.7,28.8-30.4,34.9-46.5,43.4c-8.9,4.7-19,10-32.4,20
	c-3.9,3-7.9,6.1-11.8,9.1c-16.2,12.3-32.9,25-46.6,40.4c0.8-3.5,2.3-6.8,3.8-10c1.3-2.8,2.6-5.7,3.5-8.7c2.9-7.8,8.2-14.4,16.2-20.2
	c8.2-6,17.5-11,26.5-15.8c15.8-8.5,32.1-17.2,43.2-31.9c1.7-2.3,5.9-7.3,13.6-17.5c13.6-18,31.6-41.8,29.2-43.9
	c-0.5-0.4-1.4,0.3-4.4,1.8c-5.8,2.9-13.7,5.2-29.5,9.9c-1.7,0.5-5.9,1.4-10,4.7c-0.9,0.7-1.8,1.4-2.7,2.1
	c-8.5,6.7-17.3,13.6-22.7,23.4c-0.5,0.8-1,1.7-1.5,2.6c-1.8,3.2-3.8,6.5-5.9,9.5c-6.9,9.7-14.7,19.7-23.7,30.5
	c-1.2,1.5-2.4,3-3.6,4.5c-3.5,4.5-7.1,9.1-11.3,12.6c0.2-0.5,0.5-1,0.8-1.6c10.1-21,22-38.6,39.7-58.9c2.9-3.3,5.7-6.8,8.4-10.1
	c7.9-9.7,16.1-19.8,26.6-26.9c1.2-0.8,2.6-1.8,4-2.8c14.6-10.1,39-27,65.5-22.7c8.4,1.4,11.8,4,18,8.7c6.6,5,16.5,12.7,38.9,23.8
	c13.4,6.6,29.3,13.7,49.4,14.3c8.1,0.3,16-0.7,23.6-2.9c11.7-3.3,28.1-11.3,26.9-16.9c-0.3-1.3-1.4-2.4-3.4-3.3
	c-3.1-0.9-6.2-1.9-9.2-2.9c-13.6-4.4-26.8-8.6-39.3-14.3c-9.7-4.4-14.1-6.7-14.1-6.7c-1.3-0.7-3-1.6-5.6-2.8c-2.3-1.1-5-2.2-8.8-3.7
	c-10.2-3.8-13.9-4.1-13.9-4.6c0.2-1.8,59.8,3.5,84,21.4c0.2,0.2,1.3,0.3,1.8,1.3c5.7,12.8,20.8,19.7,35.2,16.1
	c2.8-0.5,8.6-3,9.9-6.7c0.6-1.6,0.3-3.2-0.9-4.7c-5.5-4.6-10.5-6.3-14-7.1c-8-1.7-13.7,0.6-23.9-2.4c-2.6-0.8-4.7-1.6-5.9-2.2
	c-14.6-7-27.9-13-42.3-16c-5.7-1.3-11.3-2.1-16.7-2.9c-5.3-0.8-10.7-1.5-16.2-2.8c2.3,0,4.6,0.1,6.8,0.1c9.8,0.2,19.1,0.3,29.4-1.5
	c9.5-0.2,18.8,3,27.8,6.1c5.4,1.8,11,3.7,16.5,4.9c12.8,2.9,25.5,7.4,37.7,11.8c4.8,1.7,9.9,3.5,14.8,5.2
	c16.4,5.3,31.5,18.1,43.6,36.9c6.1,9.7,11.4,20,16.5,30.1c3.5,7,7.2,14.1,11.1,21.1c1.1,2,2.1,4.2,2.3,7.1
	c0.6,7.1,4.7,16.6,11.4,21.1c2.9,1.9,5.6,2.3,6.4,2.4c1.5,0.2,4.7,0.5,6.6-1.1c3.3-2.9,1.4-10.9-1.5-15.7
	c-3.8-6.4-11-10.5-14.3-11.1c-1-0.2-1.8-0.5-2.6-0.9c-2.1-1.2-3.1-3.1-3.4-3.8c-0.5-1-1.9-3.6-3.7-7.2
	c-6.5-12.6-18.5-36.1-24.2-45.4c-4-6.5-8.8-12.6-14.6-18.3c31.6,15.9,57.6,37.5,77.3,64.2c1.4,1.9,3.1,4,4.8,6.1
	c7.8,9.7,18.6,22.9,21.2,42.1c0.9,6.9,1.4,13.9,1.9,20.7c1,13.9,1.9,28.3,6.8,41.9c12.4,34.8,34.8,58.1,48.1,70
	c10.3,9.1,23.7,19,26.5,16.5c3-2.7-9.3-17.2-15.7-46.9c-1-4.7-0.6-3.8-1.8-10c-5.4-28-13.4-49.4-24.4-65.5
	c-0.9-1.4-5.7-7.6-12.3-15.7c-8.8-10.8-17.1-19.1-16.8-19.5c0.3-0.3,6.3,6.4,17.4,13.1c1.1,0.7,0.6,0.4,3.4,2
	c4.5,2.6,12.1,6.9,16.6,11c2.6,2.3,4.9,4.9,5,5c0,0,2.6,2.9,5,5.9c1.7,2.2,4.9,7.1,8.9,13.4c5.8,9,20.8,31.8,29.9,41.8
	c7.8,8.6,22.8,21,51.6,27.7c-4.8-7.8-9.6-15.6-14.4-23.6c-4.1-6.8-8.1-13.5-12.1-20.2l-0.1-0.1c-2.3-3.9-4.7-7.9-8.7-12.8
	c-9.4-11.5-19.3-17.7-26.6-22.2c-8.4-5.2-16.2-9.9-23.7-14.4c-19.8-12-35.5-21.4-47.6-31.3c-8.1-6.6-11.9-10.9-19-18.6
	c-2.5-2.8-5.4-6-9.1-9.9c-15.5-16.6-38.9-37.9-38.2-38.7c0.4-0.5,8.8,6.1,14.8,11.1c5.1,4.3,8.6,7.6,9.5,8.4
	c18.9,17.5,44.5,22.5,69.2,27.4c11.4,2.2,9,1.4,13.5,2.7c36.7,10.5,53,41.9,56.5,39.7c1.9-1.2-1.1-11.8-20.2-49.5
	c-5.8-8.4-12.4-16.9-21.4-23c-34-23.9-77-25-114.9-25.9c-12.1,0.2-21.7-5.8-31.8-12.1c-2-1.3-4.1-2.6-6.2-3.8
	c-21.9-13-43-21.4-59.9-28.2c-3.5-1.4-6.8-2.7-10-4c6.5,1.8,13,3.1,19.6,4.1c4.7,0.7,22.6,3,39.7,0.6c38.1-5.3,69.4-33.5,67.2-37.9
	c-0.7-1.4-4.4,0.5-15,2c-28.4,4-36.6-4.8-64.6-1.3c-9.9,1.2-20.7,3.8-21.2,3.9c-15.2,3.5-24.6,7.7-32.2,11.1
	c-15.2,6.9-23,10.4-57.3-3.2c0.5-0.2,1.3-0.6,2-1.3c1.6-1.5,2.7-3.8,2.1-4.4c-0.2-0.2-0.9-0.3-2.7,0.8c-6.4,1.9-11.4,3.3-17.8,1.2
	c-1.6-0.4-3.7-1-6.3-1.5c-18.3-3.6-35-0.2-35,0.8c0,0.3,1.1,0.3,6.1,0.8c9.2,0.9,16.7,2,22,2.7c-4.5,0.4-9.1,0.7-13.7,1
	c-12.1,0.8-23.8,1.2-35.1,1.2c25.5-15.5,47.2-22.9,68-23.2c0.1,0,0.1,0,0.2,0c7.8,0,14.5,1.9,20.5,5.7c7.1,5.4,19.2,6.1,28.8,1.7
	c1.7-0.8,8-3.9,10.4-10.5c0.8-2.3,1.4-3.9,0.8-5.5c-3.6-9.1-40.8-0.7-45.7,2.6c-0.2,0.1-1,0.7-2.3,1.2c-2,0.8-4,0.9-6.4,0.7
	c-12.9-0.7-24.5,0.9-35.7,4.6c-11.7,3.9-23.4,9.2-35.9,16.2c-16.3,9.1-34.9,13.2-52.8,17.1c-11.7,2.5-23.7,5.2-35.2,9.2
	c10.9-10.9,24.7-17.8,38.1-24.6c14.1-7.1,15.8-7.8,24.4-13.4c24.4-15.9,39.6-36.2,38.5-37.4c-0.3-0.3-1.3,0.7-5.4,2.5
	c-3.7,1.6-6.5,3.1-10,3.6c-29.6,3.8-50.2,10.4-66.9,21.6c-17.4,11.6-31.5,29-44.1,54.7c-2.9,5-6.1,8.6-10,11.1
	c-14.2,9.1-25,22.2-35.4,34.9c-3.8,4.6-7.7,9.4-11.8,13.9c4.3-19.6,12.7-39.2,25.1-58.3c6.7-10,11-18.1,14-26.3
	c0.9-3.1,3.1-5,5.5-7.1c4.1-3.4,5.1-6.1,5.7-6.9c7.1-9.1,1.2-33-4.5-33.4c-2.5-0.1-4.5,4.3-7,9.5c-5.1,10.8-5.4,20.9-5,27
	c0.1,3-0.1,7.4-1.6,12.4c-1.9,5.9-4.5,8.9-10,17.5c-2.7,4.3-5.3,8.6-7.7,13c-9.6,17.1-15,36.2-20.3,54.7l-1.2,4.2
	c-0.6,2-0.8,2.4-2.7,5.3c-1.8,2.7-5.1,7.7-11.4,18.5c-6.1,10.3-12.1,20.6-18,30.8c2.6-10.1,5.1-20.4,7.6-30.5
	c6.4-26.2,5.8-27.2,8.4-35c2.7-7.9,9.1-19.6,22-43c2-3.6,10.3-18.6,12.5-39c0.4-4,0.3-4.8-0.3-5.3c-7.5-5.4-73.4,59.1-74.4,109.3
	c0,2.8,0.1,8.9,0.1,12.1c0.1,18,0.2,36.5,3.7,54.6c3.1,20.5-0.8,42.1-11.7,64.2l-16.9,29.6c0-3.7,0.1-9.2,0.1-15.9
	c0.1-51.7-1.3-58.9-4.2-59.5c-2.8-0.6-6.5,5.4-8.3,8.5c-22.9,39-34.4,58.5-35.5,84.5c-2,46.7,22,79,28.6,87.4
	c2.7,7.4,3.4,15.6,4,23.5c0.3,3.6,0.6,7.4,1.1,11c1.1,7.7,2.8,14.6,4.5,21.8c2.3,9.3,4.6,18.8,6.1,31.7c0.2,1.5,0.3,3,0.5,4.4
	c-22-25.6-37.7-40.5-47.8-49.1c-18.2-15.6-27.7-19.5-37-31.2c-1.1-1.4-5.3-6.7-7.1-5.9c-1.8,0.8-0.3,7.4,0.2,10.1
	c3.8,18.1,0.7,20.8,4.1,40.3c4.1,23.5,7.1,40.5,19.3,57.5c16.9,23.6,43.3,35.8,57,39.2c1.3,0.3,9.4,3.3,21,5.6
	c16,3.2,27.6,5.5,41.7,33.1c-1.2,9.4-2,21.5-1.1,35.6c0.2,2.6,1.2,17.6,5.6,35.3c8.1,32.3,23.8,58.5,34,73.4
	c-13.8-12.3-25.2-22.6-34-30.5c0,0-7.4-5.4-19.5-18.9c-1.3-1.5-2.5-2.8-3.7-4c-6.1-6.4-9.5-9.9-7.6-20.8c2.2-12.2,0.2-29.3-8-38.1
	c-1.3-1.3-4.9-5.1-10-5.4c-0.9-0.1-3.1-0.2-5.4,1c0,0-2.3,1.2-4,3.7c-6.6,9.9-1.8,24.2,0.3,29.6c1.1,3.1,2.9,7.7,7,12.4
	c3.7,4.3,7.4,6.4,10,8c6.5,4.1,7.5,6.7,19,19c2.1,2.2,16.3,16,44.7,43.5c0,0,0,0,0.1,0.1c0,0,0,0,0,0c0.1,0.1,0.1,0.1,0.2,0.2
	c0,0,0.1,0.1,0.1,0.1c0,0,0,0,0,0c0,0,0,0,0,0c0,0,0.1,0.1,0.1,0.1c0,0-0.1-0.1-0.1-0.1c0.1,0.1,0.2,0.2,0.3,0.3
	c-0.1-0.1-0.1-0.1-0.2-0.1c11.2,10.8,14.1,13.5,18,18.1c2.7,3.2,4,4.8,3.7,5.2c-0.9,1.1-13.9-10.8-32.6-21.6
	c-18.2-10.5-39.1-18.3-41.4-14.7c-0.6,0.9,0.4,2,2.4,7c2.9,7.1,3.7,11.9,4.6,15c8.3,29.9,30,50,30,50c14.7,13.7,31.5,19.9,39.4,21.4
	c6.1,1.2,12.5,1.5,18.9,1.1c1.2,0,2.5-0.1,3.8-0.1c13.6-0.4,27.7-0.9,37.8,8.9c10.2,9.9,16.4,10.9,47.2,37
	c18.4,15.6,29.7,24.5,28.8,25.8c-1.1,1.6-17.6-12.9-40.8-17.9c-20.8-4.5-40,0.2-54.5,5.9c-0.6,0.4-1.7,0.8-2.8,1.3
	c-4.8,2-7.6,3.8-7.5,5.1c0.2,2.1,8.4,2.8,9.2,2.9c3.6,0.3,6.2-0.2,7.1-0.1c6,1,12,2.3,17.7,3.6c13.2,2.9,26.9,6,40.9,4.7
	c15.9-1.4,35.5,6.8,45.8,21.6c3.7,5.4,6,11.9,15.4,25.1c2.2,3.1,3.9,3.9,6.7,9.4c3.4,6.5,8,12.5,12.4,18.3c3.9,5.1,7.9,10.4,11,16
	c-14.9-6.9-29.3-14.4-42.9-22.4c-0.1-0.1-11-6.4-35.3-26.8c-0.7-0.6-1.3-1.2-1.8-2c-1.1-1.5-1.5-3-1.6-3.3
	c-0.6-2-5.4-14.1-14.5-20.4c-9.1-6.3-19.2-4.6-21.7-3c-1.5,0.9-2,2.2-2,2.2c-0.5,1.2-0.3,2.7,0.5,4.3c5.2,9.4,14.7,16.7,26.9,20.8
	c8.3,2.5,14.6,7.7,19.7,12.4c14.2,12.9,30.8,22.6,45.7,30.6c-31.1-6-63.5-14.2-92.1-32c-1-5.8-3.7-13.9-10.6-20.3
	c-0.5-0.4-11.8-10.8-17.7-7.1c-1.4,0.9-2.3,2.5-2.8,4.7c-1.1,5.2,0.7,12.7,4.2,17.9c8,11.7,24.3,11.3,27.1,11.1
	c20.7,12,43.4,23.6,69.1,27.1c3.3,0.6,6.7,1.1,10,1.5c13.4,1.9,27.3,3.9,38.8,11.7c3.4,2.4,7.4,4.5,12.1,6.6
	c2.4,1,10.7,6.3,23.8,15.9c8.7,6.4,12,9.4,14.9,11.5c-2.3-0.7-4-0.9-4.7-0.1c-1.6,1.8,3,7.7,15.8,26.2
	c25.7,36.9,27.7,53.8,48.6,62.9c2.1,0.9,11.2,6.9,12.1,9.8c-22.5-11.1-42.1-21.9-54.8-40.4c-11.9-17.7-24.2-34.4-37.9-52.9
	c-5.3-7.1-11.7-12.9-19-17.5c-15.1-9.5-33.8-21.3-53.6-17.7l-1.2,0.2l0.7,0.9c2.3,2.9,2.5,3,5.4,4.4l0.3,0.2
	c26.1,12,40,31.6,54.7,52.3c16,22.6,32.6,45.9,66.2,58.3c7.3,2,13.9,5.9,20.2,9.7c6.2,3.7,12.6,7.6,19.8,9.6
	c8.5,2.3,17.6,4.9,26.3,9c2.2,0.8,4.5,1.5,7.1,2.2c4.2,1.2,8.4,2.3,11.3,4.3c-9.4,0-16.9,1.4-22,2.6c-10.6,2.6-18.4,4.5-25.8,10.2
	c-3.2,2.5-7.9,6.8-15.6,8.7c-2.7,0.6-3.6,0.5-3.6,0.9c-0.6,3,47,20.9,74.8,8.9c0.4-0.2,4.6-1.8,10.1-4.3c9.2-4,18.6-8.2,29-7.9
	c2.7-0.1,5.3,0.3,7.6,1c1.8,0.7,3.8,1.4,5.7,2c5.4,1.8,10.9,3.7,15.3,7.2c3.5,3.2,7.2,6.3,10.7,9.2c5.6,4.7,11.3,9.5,16.6,14.9
	c-11.1-2.2-27-4.1-45.9-2c-23,2.5-43.2,10.1-42.8,12.2c0.2,1.2,7.4,0,24,1.8c4.7,0.5,8.2,1.2,10.7,1.4c12.3,1.3,24.4,4.8,36.2,8.2
	c4.8,1.4,9.7,2.8,14.7,4.1c12.5,3.6,20.7,0.9,26.6-1.2c0,0,5.1-0.7,11.7-0.2c13.5,1.1,31.5,15.6,34,17.6c0,0,17,13.5,52.8,21.4
	c8.2,12.1,21.5,27.6,42.9,43.4c0.8,0.6,2.6,1.9,5,1.8c2.1-0.1,3.6-1.2,4.2-1.7c17.9-13.6,31.3-30.4,39.8-43.3
	c36.5-8,53.9-21.7,53.9-21.7c2.5-2,20.6-16.5,34-17.6c6.6-0.6,11.7,0.2,11.7,0.2c6,2,14.2,4.8,26.6,1.2c4.9-1.3,9.9-2.7,14.7-4.1
	c11.7-3.4,23.8-6.8,36.2-8.2c2.5-0.3,6-0.9,10.7-1.4c16.6-1.8,23.8-0.6,24-1.8c0.4-2.1-19.7-9.7-42.8-12.2c-18.9-2-34.8-0.1-45.9,2
	c5.2-5.3,11-10.2,16.6-14.9c3.5-3,7.2-6.1,10.7-9.2c4.4-3.5,10-5.4,15.3-7.2c1.9-0.6,3.8-1.3,5.7-2c2.3-0.7,4.9-1.1,7.6-1
	c10.4-0.3,19.8,3.9,29,7.9c5.6,2.5,9.8,4.1,10.1,4.3c27.8,12,75.3-5.9,74.8-8.9c-0.1-0.4-0.9-0.2-3.6-0.9
	c-7.8-1.9-12.5-6.2-15.6-8.7c-7.4-5.7-15.2-7.6-25.8-10.2c-5.1-1.2-12.6-2.6-22-2.6c2.9-2,7.2-3.2,11.3-4.3c2.5-0.7,4.9-1.4,7.1-2.2
	c8.7-4.1,17.7-6.7,26.3-9c7.2-2.1,13.6-5.9,19.8-9.6c6.3-3.8,12.8-7.7,20.2-9.7c33.6-12.4,50.2-35.7,66.2-58.3
	c14.7-20.7,28.6-40.3,54.7-52.3l0.3-0.2c2.9-1.4,3.1-1.5,5.4-4.4l0.7-0.9l-1.2-0.2c-19.8-3.6-38.6,8.2-53.6,17.7
	c-7.3,4.6-13.7,10.4-19,17.5c-13.7,18.5-26,35.2-37.9,52.9c-12.7,18.5-32.3,29.3-54.8,40.4c0.9-2.9,10.1-8.9,12.1-9.8
	c20.8-9,22.8-25.9,48.6-62.9c12.9-18.5,17.5-24.4,15.8-26.2c-0.7-0.7-2.4-0.6-4.7,0.1c2.8-2.1,6.2-5.1,14.9-11.5
	c13.1-9.6,21.4-14.9,23.8-15.9c4.7-2.1,8.7-4.2,12.1-6.6c11.5-7.8,25.4-9.8,38.8-11.7c3.3-0.5,6.7-1,10-1.5
	c25.7-3.5,48.4-15.1,69.1-27.1c2.7,0.2,19.1,0.6,27.1-11.1c3.5-5.2,5.3-12.7,4.2-17.9c-0.4-2.2-1.4-3.8-2.8-4.7
	c-5.8-3.7-17.2,6.6-17.7,7.1c-6.9,6.4-9.6,14.5-10.6,20.3c-28.6,17.7-61,26-92.1,32c14.9-7.9,31.5-17.7,45.7-30.6
	c5.1-4.7,11.4-9.9,19.7-12.4c12.2-4,21.8-11.4,26.9-20.8c0.8-1.6,0.9-3.1,0.5-4.3c0,0-0.5-1.3-2-2.2c-2.6-1.6-12.7-3.2-21.7,3
	c-9.2,6.3-14,18.5-14.5,20.4c-0.1,0.3-0.5,1.8-1.6,3.3c-0.5,0.7-1.1,1.4-1.8,2c-24.4,20.3-35.2,26.7-35.3,26.8
	c-13.6,8-28,15.6-42.9,22.4c3.1-5.6,7.1-10.8,11-16c4.4-5.8,8.9-11.8,12.4-18.3c2.9-5.5,4.6-6.3,6.7-9.4
	c9.4-13.3,11.7-19.8,15.4-25.1c10.3-14.9,29.9-23,45.8-21.6c14.1,1.2,27.7-1.8,40.9-4.7c5.8-1.3,11.8-2.6,17.7-3.6
	c0.9-0.1,3.6,0.4,7.1,0.1c0.8-0.1,9-0.8,9.2-2.9c0.1-1.3-2.6-3-7.5-5.1c-1.2-0.5-2.3-1-2.8-1.3c-14.4-5.7-33.6-10.4-54.5-5.9
	c-23.2,5-39.7,19.5-40.8,17.9c-0.9-1.3,10.4-10.2,28.8-25.8c30.8-26.1,37-27.1,47.2-37c10.1-9.8,24.2-9.4,37.8-8.9
	c1.3,0,2.6,0.1,3.8,0.1c6.4,0.5,12.7,0.1,18.9-1.1c7.9-1.5,24.7-7.7,39.4-21.4c0,0,21.7-20.1,30-50c0.9-3.1,1.7-7.8,4.6-15
	c2-5,3-6.1,2.4-7c-2.3-3.6-23.2,4.2-41.4,14.7c-18.6,10.8-31.6,22.7-32.6,21.6c-0.3-0.4,1-2,3.7-5.2c3.8-4.6,6.8-7.2,18-18.1
	c-0.1,0.1-0.1,0.1-0.2,0.1c0.1-0.1,0.2-0.2,0.3-0.3c0,0-0.1,0.1-0.1,0.1c0,0,0,0,0,0c0,0,0.1-0.1,0.1-0.1c0,0,0,0,0,0c0,0,0,0,0,0
	c0,0,0.1-0.1,0.1-0.1c0.1-0.1,0.2-0.2,0.2-0.2c0,0,0,0,0,0c0.1-0.1,0.1-0.1,0.1-0.1c28.4-27.5,42.6-41.3,44.7-43.5
	c11.5-12.3,12.5-14.9,19-19c2.6-1.6,6.3-3.7,10-8c4.1-4.7,5.8-9.3,7-12.4c2-5.4,6.8-19.8,0.3-29.6c-1.7-2.6-4-3.7-4-3.7
	c-2.3-1.2-4.6-1.1-5.4-1c-5.1,0.3-8.7,4.1-10,5.4c-8.2,8.8-10.2,25.9-8,38.1c1.9,10.8-1.5,14.4-7.6,20.8c-1.2,1.3-2.4,2.6-3.7,4
	c-12,13.4-19.5,18.9-19.5,18.9c-8.7,7.9-20.2,18.3-34,30.5c10.2-15,25.9-41.2,34-73.4c4.4-17.7,5.5-32.7,5.6-35.3
	c0.9-14.1,0.1-26.2-1.1-35.6c14.1-27.5,25.7-29.8,41.7-33.1c11.5-2.3,19.7-5.3,21-5.6c13.7-3.4,40.1-15.6,57-39.2
	c12.2-17,15.1-34,19.3-57.5c3.4-19.5,0.3-22.1,4.1-40.3C1855.1,786.6,1856.5,780,1854.7,779.2z M1397.5,384.9
	c-7.2-0.7-12-4.4-13.7-5.8c3.7,1.2,7.6,2,11.9,2.5c3.3,0.4,7.9,1,13.9,0.4c1.5-0.2,2.7-0.3,3.5-0.5
	C1411.2,382.5,1405.4,385.7,1397.5,384.9z M1215,479.4c4.6-0.2,9.1-0.2,13.4,0c-15.7,3.7-30.9,7.9-45.3,12.5
	c-8.4,2.7-16.3,5.3-26.5,9.6c-0.1,0-5.7,2.4-26.9,12.7C1148,499.6,1177.4,481.4,1215,479.4z M1248.3,482c-0.1,0.1-9.5,7.1-18.5,12.9
	c-13,8.3-34.5,14.3-48.8,18.3l-2,0.6c-16.1,4.5-32.6,9.5-49.2,14.8c4.4-3.4,9.1-6.6,13.8-9.5c10.5-6.5,16.2-8.6,47.8-20.2
	c5.9-2.1,12.6-4.6,20.4-7.5l0.2-0.1c6.4-2.4,17.1-6.3,31.6-10.3c3-0.8,6.1-1.6,9.1-2.4C1251.3,479.7,1249.8,480.8,1248.3,482z
	 M1133.4,603.2c-21.4,29.6-27.7,36.5-34.6,41.7c-1.3,1-4.6,3-10.4,6.8c-6.5,4.2-11.9,7.6-15.3,9.8c4.9-7.6,9.3-13.8,12.7-18.4
	c3.7-5.1,6.3-8.6,10.1-13.2c3.9-4.7,8.4-9.5,13-13.9c10.4-10.1,22.1-19.2,35-27.1C1140.3,593.5,1136.9,598.4,1133.4,603.2z
	 M1147.4,686.3c1.6-22.5,6.7-44.4,15.1-65.3c8-19.8,19-38.2,32.5-54.7c-3.8,10.5-6.7,21.5-9.6,32.1c-3.1,11.8-6.4,24.1-10.9,35.7
	l-1.9,4.2C1165.6,654.8,1158.2,671.7,1147.4,686.3z M1179.2,655.1c-5.8,9.4-12.6,18.2-20.4,26.2c11.5-21.3,21.6-43.7,29.8-66.7
	c7.7-21.4,11.5-37,13.6-45.4c0.7-3,1.4-5.6,1.8-6.9C1205.3,569.3,1204.6,613.9,1179.2,655.1z M1290.8,396.4c2.7-0.3,5.5-0.6,8.2-0.8
	c18.5-0.4,39.1,3.7,59.9,12c-4.9-0.8-9.8-1.7-14.6-2.6c-13.4-2.5-27.2-5.1-41.1-5.1c-4.2,0-8.5,0.2-12.8,0.8l-1.5,0.1
	c-11.2,0.5-21.9,0.9-32.7-3C1267.9,398.8,1279.1,397.6,1290.8,396.4z M1265.1,406.2c8.2,1.4,16.9,1.6,27.7,0.7
	c21.4-2.1,43,1.5,63.8,5c4.6,0.8,9.3,1.6,14,2.3C1340.2,425.7,1289.4,421.8,1265.1,406.2z M1426.9,444.9c15-4.5,30.6-9.2,44.3-18.4
	c15.5-9,35.6-12.6,59.9-10.7c-0.3,0.1-0.7,0.2-1.1,0.3c-9,1.5-16.2,3.8-22.4,7.1c-3.1,1.4-6.3,2.8-9.5,4.3
	c-26.8,12.3-60.1,27.4-88.7,23C1415.1,448.4,1421.1,446.6,1426.9,444.9z M1525.3,430c-11.2,7.8-30,20.9-46.5,26.9
	c-12.4,4.5-32.6,7.9-60.1,0.3c13.9,0.5,28.4-1.6,44-6.4c8-2.5,14-5.5,20.9-8.9c6.7-3.4,14.3-7.2,25.7-11.4c9-3.4,18.2-6.3,27.4-8.7
	C1533,424.5,1529.1,427.3,1525.3,430z M1602,424.7l-0.4-0.3c-1-0.8-2-1.7-3-2.5c-4.4-3.8-9-7.7-13.8-11.3c-9.5-6-19.8-11-29.8-15.8
	c-18.8-9.1-38.3-18.5-52.7-34.9c50.7,9.1,81,17.4,105.1,67.9C1604.8,427.1,1604.3,426.8,1602,424.7z M1686.2,539.3
	c-18-10.4-36.5-21.2-51-36.5c-4.9-5.9-9.9-11.6-14.8-17.2c-8.5-9.7-17.3-19.8-25.3-30.5c7.4,3.8,13.4,4.9,18.3,5.8
	c1.5,0.3,2.9,0.5,4.1,0.8c6.5,1.6,10.6,5.1,16.9,10.4c1.4,1.2,2.9,2.4,4.5,3.8c6.5,5.4,11,12.5,15.4,19.4c0.6,1,1.2,1.9,1.8,2.9
	c5.2,8.6,11.8,16.1,18.2,23.4c5.5,6.4,11.2,12.9,16,20.1C1688.9,540.9,1687.6,540.1,1686.2,539.3z M1684,587.4
	c-9.8-3.3-20-6.7-29.5-11c-20.3-9.1-34.3-20.2-47-37.1c-10.2-13.5-17.1-29.2-20.6-46.6c1.4,1.8,2.9,3.7,4.5,5.4
	c13.4,15.8,25.5,25.7,31.7,29.4c27,15.9,52.4,34.9,77.1,53.4c7.8,5.9,15.7,12.5,20.9,21.1C1709.2,595.8,1696.4,591.5,1684,587.4z
	 M1726.7,569.5c-6.7-15-10.5-31.2-14.2-46.9c-4.8-20.4-9.8-41.5-21.1-60.2l-0.1-0.2c-10.1-16-20.5-32.5-24.1-51.5
	c18.1,12.7,29.8,26.2,36.8,35.6c5.8,7.8,12.9,17.5,18,32c4.8,13.6,5.4,24.3,6.2,42.4C1728.8,533.1,1728.8,549.7,1726.7,569.5z
	 M1798.9,686.4c3.2,25.2-2.9,51-16.9,71.4c2.6-12.1,5-22.8,8.3-34.4c6.3-24.9-1.4-49.5-8.9-73.4c-2.6-8.3-5.3-16.9-7.3-25.3
	c-0.1-0.4-0.2-0.8-0.3-1.1c-0.5-1.5-1-3.1-0.9-4.9C1784.6,640.7,1795.7,661.5,1798.9,686.4z M1767,666.4
	c-2.9-19.4-3.3-35.6-1.3-50.5c3.5,16.7,7.9,33.1,12.1,49c2,7.5,4.1,15.2,6,22.9c3.3,12.4,2.9,24.6-1.1,37.2
	c-1.5-11.9-5.2-23.3-8.8-34.4C1771.4,682.7,1768.8,674.6,1767,666.4z M1579.5,1167.8c1.6-4,3.9-6.6,5.1-8c6-6.7,14.3-9.5,17.4-10.4
	c-3.3,3.9-6.1,6.9-8,9c-1.6,1.7-2.8,2.9-8.4,8.5c-3.1,3.1-5.8,5.7-7.8,7.7C1578,1172.8,1578.4,1170.4,1579.5,1167.8z M1534.3,1186.2
	c2.2-8.9,4.5-18.1,4-27.7c0-4.9,0.4-9.8,0.7-14.7c0.1-1.6,0.2-3.1,0.3-4.6c2.9-31.6,9.2-55.1,19.1-71.7c-2.6,8.8-4.4,17.7-5.4,26.8
	c-1.1,9.6-1,17.5-0.9,21.7c0,1.3,0,2.2,0,2.9c-1,31-7.4,55.3-19.4,74.2C1533.2,1190.8,1533.7,1188.5,1534.3,1186.2z M1502.2,1230.7
	c-20.9-34.7-44.5-73.9-34.5-115.1c5.6,21.5,11.7,42.6,23,63.4c8.6,16.1,12.8,33.1,13.2,54.7
	C1503.4,1232.7,1502.8,1231.7,1502.2,1230.7z M556.7,1179c11.3-20.8,17.4-41.8,23-63.4c10,41.2-13.6,80.4-34.5,115.1
	c-0.6,1-1.2,2-1.8,2.9C544,1212,548.1,1195.1,556.7,1179z M495.4,1118.9c0-0.6,0-1.6,0-2.9c0.1-4.2,0.2-12-0.9-21.7
	c-1-9-2.9-18-5.4-26.8c10,16.5,16.2,40,19.1,71.7c0.1,1.5,0.2,3.1,0.3,4.6c0.3,4.8,0.7,9.8,0.7,14.7c-0.5,9.7,1.8,18.8,4,27.7
	c0.6,2.2,1.1,4.5,1.7,6.8C502.8,1174.1,496.4,1149.8,495.4,1118.9z M461.9,1166.9c-5.6-5.5-6.9-6.8-8.4-8.5c-1.9-2.1-4.7-5.1-8-9
	c3.1,0.9,11.4,3.8,17.4,10.4c1.3,1.4,3.5,3.9,5.1,8c1,2.6,1.5,5,1.7,6.7C467.6,1172.6,465,1170,461.9,1166.9z M373.3,521.5
	c6.4-7.3,12.9-14.9,18.2-23.4c0.6-0.9,1.2-1.9,1.8-2.9c4.4-6.9,8.9-14,15.4-19.4c1.6-1.3,3.1-2.6,4.5-3.8
	c6.2-5.3,10.4-8.8,16.9-10.4c1.3-0.3,2.7-0.6,4.1-0.8c4.9-0.9,10.9-2,18.3-5.8c-8,10.7-16.8,20.8-25.3,30.5
	c-4.9,5.6-9.9,11.3-14.8,17.2c-14.5,15.3-33,26.1-51,36.5c-1.3,0.8-2.7,1.6-4,2.3C362,534.4,367.7,527.9,373.3,521.5z M938.7,615.9
	c4.5,4.4,9,9.2,13,13.9c3.8,4.5,6.4,8.1,10.1,13.2c3.4,4.6,7.7,10.8,12.7,18.4c-3.4-2.2-8.8-5.6-15.3-9.8c-5.8-3.8-9.1-5.8-10.4-6.8
	c-6.9-5.2-13.2-12.1-34.6-41.7c-3.5-4.8-6.9-9.6-10.3-14.4C916.6,596.7,928.4,605.8,938.7,615.9z M884.9,621.1
	c8.5,20.9,13.6,42.8,15.1,65.3c-10.7-14.6-18.1-31.6-25.3-47.9l-1.9-4.2c-4.5-11.6-7.8-23.8-10.9-35.7c-2.8-10.6-5.7-21.6-9.6-32.1
	C865.9,582.9,876.8,601.3,884.9,621.1z M843.5,562.4c0.4,1.3,1.1,3.8,1.8,6.9c2.1,8.4,5.9,24,13.6,45.4
	c8.2,22.9,18.2,45.3,29.8,66.7c-7.8-8.1-14.6-16.9-20.4-26.2C842.8,613.9,842.1,569.3,843.5,562.4z M832.4,479.4
	c37.7,2,67,20.2,85.3,34.8c-21.2-10.3-26.8-12.7-26.9-12.7c-10.2-4.3-18.1-6.9-26.5-9.6c-14.3-4.6-29.5-8.8-45.3-12.5
	C823.4,479.2,827.8,479.2,832.4,479.4z M803.8,480.9c14.6,4,25.3,8,31.6,10.3l0.2,0.1c7.8,2.9,14.6,5.4,20.4,7.5
	c31.6,11.6,37.3,13.6,47.8,20.2c4.7,2.9,9.4,6.1,13.8,9.5c-16.6-5.3-33.2-10.3-49.2-14.8l-2-0.6c-14.3-4-35.8-10.1-48.8-18.3
	c-9-5.7-18.4-12.8-18.5-12.9c-1.5-1.1-3-2.3-4.5-3.4C797.7,479.3,800.8,480.1,803.8,480.9z M748.4,395.6c2.7,0.3,5.4,0.6,8.2,0.8
	c11.8,1.3,23,2.4,34.6,1.4c-10.7,3.9-21.4,3.4-32.7,3l-1.5-0.1c-4.3-0.5-8.5-0.8-12.8-0.8c-14,0-27.7,2.6-41.1,5.1
	c-4.8,0.9-9.7,1.8-14.6,2.6C709.4,399.3,730,395.1,748.4,395.6z M690.8,411.9c20.9-3.5,42.4-7.1,63.8-5c10.8,1,19.6,0.8,27.7-0.7
	c-24.3,15.6-75.1,19.5-105.5,8C681.5,413.4,686.2,412.6,690.8,411.9z M637.9,381.9c5.9,0.6,10.5,0,13.9-0.4
	c4.2-0.5,8.2-1.3,11.9-2.5c-1.7,1.5-6.5,5.1-13.7,5.8c-7.8,0.8-13.6-2.3-15.5-3.5C635.3,381.6,636.5,381.7,637.9,381.9z
	 M576.3,426.5c13.7,9.1,29.2,13.8,44.3,18.4c5.8,1.7,11.8,3.5,17.5,5.6c-28.6,4.5-61.8-10.7-88.7-23c-3.3-1.5-6.5-3-9.5-4.3
	c-6.2-3.3-13.3-5.6-22.4-7.1c-0.4-0.1-0.7-0.1-1.1-0.3C540.7,413.9,560.8,417.5,576.3,426.5z M538.2,430.4
	c11.4,4.3,19,8.1,25.7,11.4c6.9,3.4,12.8,6.4,20.9,8.9c15.6,4.8,30.1,7,44,6.4c-27.5,7.7-47.7,4.2-60.1-0.3
	c-16.5-6-35.3-19.1-46.5-26.9c-3.9-2.7-7.7-5.5-11.5-8.4C520,424.1,529.2,427,538.2,430.4z M545.1,360
	c-14.3,16.3-33.8,25.7-52.7,34.9c-10,4.8-20.3,9.8-29.8,15.8c-4.8,3.6-9.4,7.5-13.8,11.3c-1,0.9-2,1.7-3,2.5l-0.4,0.3
	c-2.4,2-2.8,2.4-5.5,3.1C464.2,377.3,494.4,369.1,545.1,360z M347.4,580.9c24.7-18.4,50.1-37.5,77.1-53.4
	c6.2-3.7,18.2-13.5,31.7-29.4c1.5-1.8,3-3.6,4.5-5.4c-3.5,17.4-10.4,33-20.6,46.6c-12.7,16.9-26.8,28-47,37.1
	c-9.6,4.3-19.7,7.7-29.5,11c-12.4,4.1-25.2,8.4-37,14.6C331.7,593.4,339.5,586.8,347.4,580.9z M319.2,520.8
	c0.8-18.1,1.4-28.8,6.2-42.4c5.1-14.5,12.2-24.2,18-32c7-9.5,18.7-23,36.8-35.6c-3.5,19-14,35.5-24.1,51.5l-0.1,0.2
	c-11.3,18.7-16.3,39.8-21.1,60.2c-3.7,15.7-7.5,31.9-14.2,46.9C318.6,549.7,318.7,533.1,319.2,520.8z M248.6,686.4
	c3.2-24.9,14.2-45.7,26-67.8c0.1,1.8-0.4,3.4-0.9,4.9c-0.1,0.4-0.2,0.8-0.3,1.1c-2,8.4-4.7,17-7.3,25.3
	c-7.5,23.8-15.2,48.5-8.9,73.4c3.3,11.7,5.7,22.4,8.3,34.4C251.5,737.4,245.4,711.6,248.6,686.4z M264.7,724.9
	c-4-12.6-4.3-24.8-1.1-37.2c2-7.7,4-15.4,6-22.9c4.3-15.9,8.7-32.3,12.1-49c2,14.9,1.6,31.1-1.3,50.5c-1.8,8.1-4.4,16.2-7,24.1
	C269.9,701.6,266.2,713,264.7,724.9z M354.9,667.7c10.5,28.3,0.5,60.8-8.3,89.5c-7.2,17.7-19.1,33.1-30.7,47.9
	c-8.9,11.4-18,23.2-25.1,36.2c-2-25.1,10.6-48,20.5-63.2c10-14.7,15.7-31.6,21.3-48c3.8-11.3,7.8-23,13.1-33.9l0,0
	C349.5,687.8,352.5,678.5,354.9,667.7z M325.9,690.6c0.1-0.1,0.4-0.5,0.9-1c2.2-2.2,7.3-7.5,13.2-14.8c4-4.9,7.7-10,11.2-15.2
	c-1.4,13.8-7.4,27-13.2,39.8l-0.7,1.6c-3.4,7.1-6.6,14.4-9.6,21.5c-6.1,14.2-12.4,28.8-21,42c-10,16.9-19.9,35-21,55.2
	c-0.3,2.9-0.3,5.9-0.3,8.8c0,3.4,0,6.9-0.5,10.3C276.3,786.7,291.8,730.3,325.9,690.6z M266,912.4l-2.7-1.3
	c-14.5-7.2-26-12.8-35.7-25.4c-13.8-17.8-22-42-22.6-67c9.2,20.1,21.4,42,41.9,56.1c6.6,4.6,11.2,8.3,21.2,16.4l5,4
	c13,10.5,25.5,21.6,37.4,33C295,924.7,280,919.4,266,912.4z M293,905.9c-12.8-12.2-26.1-24.7-41.1-34.8
	c-19.7-14.4-34.7-36.7-45.7-68.2c21,14.2,40.2,30.8,57.1,49.6c18.9,21,34.9,44.5,47.5,69.8C304.7,917,298.8,911.4,293,905.9z
	 M357.8,1025.6c0.4,16.3,1.7,32.7,3.9,48.7c-16-36.9-22.2-73.9-18.2-107.4c2.7-16.6,8.9-32.8,14.9-48.6c1.5-3.8,3-7.7,4.4-11.6
	c-1.7,28.6-3.2,56.6-4.4,83.5C357.9,999.8,357.4,1010.8,357.8,1025.6z M304.6,1038.4c-5.9-12.9-11.2-25.8-12.2-40.8
	c3.9,2.9,9.8,8.5,12.8,17.7C308.3,1025.3,306.2,1034,304.6,1038.4z M368.6,986c2-25.1,4.1-50.9,0.7-75.8c15.7,34,29,67.4,26.8,102.3
	c-0.2,3-0.4,6-0.6,9c-1.6,22.6-3.2,45.9-7.1,68.6c-1.2,5.5-1.3,10.7-1.4,16.1c0,2.1-0.1,4.3-0.2,6.5
	C361.5,1073.8,365.1,1029.2,368.6,986z M384.3,1179.6c-31.9-7.4-48.4-35.3-54.3-47.7c12.7,15,28.5,27.4,45.9,35.9
	c11.8,5.8,24.4,9.9,37.5,12.3C403.5,1181.9,393.7,1181.8,384.3,1179.6z M350.3,1140.5c-9.6-8.6-15.9-18.9-22.6-29.9
	c-0.7-1.2-1.5-2.4-2.2-3.7c7.2,3,13.9,6.4,20.9,9.9c3.1,1.6,6.3,3.2,9.6,4.8c20.6,11.3,40.3,28.7,60.1,53.1
	C393.1,1170.1,371.6,1158.8,350.3,1140.5z M464,1258.2l-0.6-0.1c-4.5-0.9-15-2.9-29-2.5c-2,0.1-4.1,0.2-6.1,0.3
	c17.2-5.7,41.3-9.7,66.5-1.2c5.2,1.7,10.3,4,15.2,6.7C492.2,1261.7,476.7,1260.7,464,1258.2z M457.1,1319c-6.8,0.8-12.9-8.2-14-10.1
	c-0.9-1.4-1.6-2.8-2.2-4.3c1.6,1.6,3.3,3.2,5,4.7c3.8,3.4,7.9,6.6,12.1,9.5C457.7,1318.9,457.4,1319,457.1,1319z M601,1362.9
	c-1.9-1.9-3.9-3.8-6-5.4c-4.6-3.9-8.5-8.1-11.7-12.9l-8.2-12.2c-8-11.8-16-23.7-24-35.5c-2.9-4.4-4.4-9.4-6-15.1
	c4.9,3.9,8.9,8.5,13,13.3c1.2,1.4,2.4,2.8,3.7,4.2c16.6,20.9,33.7,43.8,46.3,69.5C605.5,1367.4,603.2,1365.1,601,1362.9z
	 M609.2,1429c-0.8-1.2-1.6-2.5-2.5-4c-5-8-11.8-19-24.5-30.6c-5.3-4.8-11-9.2-17.1-13.1c0.7,0.2,1.5,0.6,2.2,1
	c0.2,0.1,0.4,0.2,0.6,0.3c8.5,4.3,15.5,7.8,22.8,11.7c13.1,6.8,22.4,18.6,31.5,29.9l0.9,1.2c5.7,7.5,11.2,15,16.5,22.2
	c5.4,7.3,10.9,14.9,16.8,22.6C635.5,1459,619.6,1445.1,609.2,1429z M780.3,1404.2c1.5-4.8,3-9.5,4.4-14.2c2.4-7.8,4.7-15.2,7.2-23.1
	c1.3,11.4,2,22.8,2.7,34c0.9,15.2,1.9,31,4.5,46.5c1.9,12.8,1.5,24.9,1.1,37.7c-0.3,7.2-0.5,14.7-0.3,22.3
	C778.3,1471.1,771.3,1434.5,780.3,1404.2z M752.8,1450.4c2.6,7,5.3,14.2,10.5,20.8c0.3,0.4,0.9,1.1,1.7,1.9c3,3.3,9.1,10,14.9,19.7
	c0.3,0.4,0.5,0.9,0.8,1.4c-0.8-0.7-1.7-1.4-2.5-2.1c-4.1-3.4-8.2-7-12.6-10.2c-18.4-14-30.6-36-32.8-58.8
	C745.1,1429.6,748.8,1439.7,752.8,1450.4z M730.8,1406.9c4.4,3.7,7.6,8.3,9.3,13.3c0.3,0.8,0.5,1.5,0.7,2.3c-1-1.1-2.1-2.2-3.2-3.3
	C733.8,1415.6,730.3,1412,730.8,1406.9z M689,1341.5c6.2,8.6,12.6,17.6,19.1,26.2c6.9,9,10.1,17.5,13.4,29
	c1.9,6.7,2.4,11.3,2.9,16.2c0.4,3.4,0.8,6.9,1.6,11.4c2.2,11.5,6.5,22.8,12.7,33.9c-23.8-22.7-42.9-49.3-56.7-79
	c-11.2-24.1-18.6-49.8-22.1-76.3C670.3,1315.3,679.8,1328.6,689,1341.5z M668.7,1388c-10.3-21.7-13.2-43.7-16.8-70.7
	c-0.3-2-2.7-20-1.9-20.2c0.5-0.1,2.1,7.4,2.5,9.4c4,18.4,14.2,53.4,27.2,81.7c7.8,17,17.5,33.5,28.9,49.1
	C691,1423.3,677.6,1406.7,668.7,1388z M677.1,1464.7c-7.6-8.8-10.2-15.4-20.6-33.3c-3.9-6.7-7.1-12-9.3-15.5
	c8.9,8.9,17.1,18.6,24.3,28.9c7.2,10.2,13.5,21,18.8,32.2C684.3,1472.5,680,1468.1,677.1,1464.7z M692,1468.3
	c-6.7-15.3-12.7-22.5-20.3-31.5c-1.7-2-3.4-4-5.2-6.3c-3.1-3.9-6.4-7.6-9.8-11.2c0.6,0.5,1.2,0.9,1.9,1.4
	c11.2,8.3,19.5,14.7,19.6,14.7c18.1,13.9,25.5,37,29.8,56.2C699.8,1485,695.8,1476.8,692,1468.3z M738.6,1527
	c15-2.3,27.7,0.7,35.9,3.7c-2.7-0.2-5.3-0.3-7.9-0.3c-15.5,0-30.5,3.7-45.2,7.4c-5.2,1.3-10.6,2.6-16,3.8
	C712.5,1535.8,723.6,1529.3,738.6,1527z M759.1,1547.9c-7,2.1-18.8,5.7-33.8,4c-6.7-0.7-13.3-2.4-19.6-5c50.1-9.7,65.6-10.3,77-9.6
	C775.3,1541.9,767.4,1545.4,759.1,1547.9z M758.6,1516.7c-10.5-4.1-21.4-8.4-32.2-12.3c-7.2-2.7-11.4-7.6-12.9-15.1
	c-5.5-24.6-14.2-51.7-37.1-65.6c-0.7-0.4-1.8-1.2-4.1-2.8c-4.1-2.7-12.4-8.3-20.5-13.1c4,1.6,6.8,2.5,6.8,2.5
	c6.5,2.1,8.1,2,12.2,4.2c4.7,2.6,8.6,5.5,11.7,9c1.9,2.1,3.9,4.4,6.2,6.2c5.1,4.4,10.6,8.5,16,12.5c10.3,7.6,20.9,15.4,28.5,26
	c3,4.3,4.7,7.7,9.7,13.3c5.1,5.7,11.3,11.2,11.8,10.8c0.1-0.1-0.3-0.7-1-1.9c-2.4-3.8-2.6-5.6-4.7-9.8c-0.8-1.6-2-4-3.8-6.8
	c27.4,18.7,51,39.9,70,63C795.9,1531.3,776.9,1523.9,758.6,1516.7z M839.7,1588.7l-2.2-0.8c-14.6-5.5-28.3-8.5-42.8-9.4
	c3.3-1.2,6.3-1.4,9.7-1.8c0.9-0.1,1.8-0.2,2.8-0.3c21.3-0.8,48.5,0.5,70.4,17C864.8,1597.6,852,1593.1,839.7,1588.7z M893.8,1594.4
	c-0.3-0.2-0.5-0.4-0.8-0.5c-17.5-10.7-34.1-23.3-52.1-39.3c6.2,1.9,12.1,4.3,17.8,6.8c4.5,1.9,9.1,3.8,13.9,5.5
	c1.2,0.5,2.2,1.1,3.1,1.8c1.3,1.2,2,2.5,2.2,2.9c1.3,2.5,7,10.3,17.6,23.7C894.9,1595.2,894.4,1594.9,893.8,1594.4z M892.9,1576.8
	c-6.5-7.9-10.7-14.5-14-19.7c-10.2-16.1-18.5-33.4-24.5-51.6c5.2,3.4,9.9,7.8,14.4,12c0.5,0.5,2.2,2,4.2,3.9c0,0,9.1,8.7,16.6,17.8
	c8.4,10.1,11.2,19.6,18.9,35.2c4.1,8.4,10.6,20.2,20,34C918.9,1602.2,905.6,1592.1,892.9,1576.8z M972.4,1630.4
	c-8.1-2.2-13.5-4.4-17-6c-9.1-4.1-13.6-6.1-17-10c-3.5-3.9-6.3-10.8-11.9-24.5c-0.4-0.9-0.7-1.7-0.9-2.2
	c11.6,3.9,20.1,8.2,25.9,11.5c3.8,2.2,7.7,4.4,11.6,6.5c0.7,3.3,1.5,6.3,2.1,8.5c0,0,1.6,6.3,7.4,16.2
	C972.5,1630.4,972.5,1630.4,972.4,1630.4z M1092,1624.4c-3.5,1.6-8.9,3.8-17,6c-0.4,0.1-0.8,0.2-1.2,0.3c4.5-7.4,6.8-12.3,6.8-12.3
	c1.9-4.5,3.3-8.8,4.3-13c3.7-2.1,7.4-4.2,11.1-6.3c5.8-3.3,14.3-7.7,25.9-11.5c-0.2,0.5-0.5,1.3-0.9,2.2
	c-5.7,13.8-8.5,20.6-11.9,24.5C1105.6,1618.3,1101.1,1620.3,1092,1624.4z M1119,1608.4c9.4-13.8,15.9-25.6,20-34
	c7.7-15.6,10.5-25.1,18.9-35.2c7.5-9,16.6-17.7,16.6-17.8c2-1.9,3.7-3.4,4.2-3.9c4.5-4.3,9.1-8.7,14.4-12
	c-6.1,18.2-14.3,35.5-24.5,51.6c-3.3,5.2-7.5,11.8-14,19.7C1141.8,1592.1,1128.6,1602.2,1119,1608.4z M1240.2,1576.5
	c1,0.1,1.9,0.2,2.8,0.3c3.4,0.3,6.5,0.6,9.7,1.8c-14.4,0.8-28.1,3.8-42.8,9.4l-2.2,0.8c-12.4,4.4-25.1,8.9-38,4.8
	C1191.7,1577,1218.9,1575.7,1240.2,1576.5z M1154.4,1593.9c-0.3,0.2-0.5,0.3-0.8,0.5c-0.6,0.5-1.1,0.8-1.7,0.9
	c10.6-13.4,16.3-21.2,17.6-23.7c0.2-0.4,0.8-1.7,2.2-2.9c0.8-0.8,1.9-1.4,3.1-1.8c4.8-1.7,9.4-3.6,13.9-5.5
	c5.7-2.4,11.6-4.9,17.8-6.8C1188.5,1570.6,1171.9,1583.2,1154.4,1593.9z M1407.8,1447.7c5.3-7.2,10.8-14.7,16.5-22.2l0.9-1.2
	c9-11.4,18.4-23.1,31.5-29.9c7.2-3.9,14.3-7.5,22.8-11.7c0.2-0.1,0.4-0.2,0.6-0.3c0.8-0.4,1.5-0.8,2.2-1
	c-6.1,3.9-11.8,8.3-17.1,13.1c-12.7,11.6-19.5,22.6-24.5,30.6c-0.9,1.4-1.7,2.8-2.5,4c-10.4,16.1-26.3,29.9-47.2,41.3
	C1396.8,1462.6,1402.4,1455,1407.8,1447.7z M1397.4,1297.2c0.7,0.1-1.6,18.1-1.9,20.2c-3.6,27-6.5,49-16.8,70.7
	c-8.9,18.7-22.3,35.3-39.9,49.4c11.4-15.7,21.1-32.2,28.9-49.1c13-28.3,23.2-63.2,27.2-81.7
	C1395.3,1304.5,1396.9,1297.1,1397.4,1297.2z M1321.4,1424.3c0.9-4.5,1.3-8,1.6-11.4c0.5-4.9,1-9.4,2.9-16.2
	c3.2-11.6,6.5-20,13.4-29c6.6-8.6,13-17.5,19.1-26.2c9.2-12.9,18.7-26.2,29-38.6c-3.4,26.5-10.9,52.2-22.1,76.3
	c-13.8,29.7-32.9,56.2-56.7,79C1314.9,1447.1,1319.1,1435.7,1321.4,1424.3z M1307.4,1420.3c1.7-5,4.9-9.6,9.3-13.3
	c0.6,5.1-3,8.7-6.8,12.4c-1.1,1.1-2.2,2.1-3.2,3.3C1306.9,1421.8,1307.1,1421,1307.4,1420.3z M1267.6,1492.8
	c5.8-9.6,11.9-16.4,14.9-19.7c0.8-0.9,1.4-1.5,1.7-1.9c5.2-6.6,7.9-13.9,10.5-20.8c4-10.7,7.7-20.7,20-27.4
	c-2.2,22.9-14.4,44.8-32.8,58.8c-4.3,3.2-8.5,6.8-12.6,10.2c-0.8,0.7-1.7,1.4-2.5,2.1C1267.1,1493.7,1267.3,1493.2,1267.6,1492.8z
	 M1248.3,1447.5c2.6-15.5,3.6-31.3,4.5-46.5c0.7-11.1,1.4-22.6,2.7-34c2.5,7.9,4.8,15.3,7.2,23.1c1.4,4.7,2.9,9.3,4.4,14.2
	c9,30.3,2.1,66.8-19.6,103.2c0.2-7.6-0.1-15-0.3-22.3C1246.8,1472.3,1246.3,1460.2,1248.3,1447.5z M1322.1,1551.9
	c-15,1.7-26.8-1.9-33.8-4c-8.2-2.5-16.2-6-23.6-10.6c11.4-0.7,26.9-0.1,77,9.6C1335.4,1549.5,1328.8,1551.2,1322.1,1551.9z
	 M1308.9,1527c14.9,2.3,26,8.8,33.3,14.5c-5.4-1.2-10.8-2.5-16-3.8c-14.6-3.6-29.7-7.4-45.2-7.4c-2.6,0-5.3,0.1-7.9,0.3
	C1281.2,1527.7,1293.9,1524.7,1308.9,1527z M1321.1,1504.4c-10.8,3.9-21.7,8.2-32.2,12.3c-18.3,7.2-37.3,14.6-56.3,20.3
	c19-23.2,42.6-44.3,70-63c-1.8,2.8-3,5.1-3.8,6.8c-2,4.2-2.3,6-4.7,9.8c-0.7,1.2-1.2,1.7-1,1.9c0.4,0.4,6.7-5.1,11.8-10.8
	c4.9-5.6,6.6-9,9.7-13.3c7.6-10.7,18.2-18.5,28.5-26c5.4-4,10.9-8.1,16-12.5c2.3-1.8,4.3-4.1,6.2-6.2c3.1-3.4,7-6.4,11.7-9
	c4-2.2,5.7-2.1,12.2-4.2c0,0,2.8-0.9,6.8-2.5c-8.1,4.8-16.4,10.4-20.5,13.1c-2.3,1.5-3.4,2.4-4.1,2.8c-23,13.9-31.7,41-37.1,65.6
	C1332.5,1496.8,1328.3,1501.8,1321.1,1504.4z M1339.4,1491.6c4.3-19.1,11.7-42.3,29.8-56.2c0.1-0.1,8.4-6.4,19.6-14.7
	c0.7-0.5,1.3-1,1.9-1.4c-3.4,3.6-6.7,7.4-9.8,11.2c-1.8,2.3-3.5,4.3-5.2,6.3c-7.6,9.1-13.5,16.2-20.3,31.5
	C1351.7,1476.8,1347.6,1485,1339.4,1491.6z M1391,1431.4c-10.4,17.9-13,24.5-20.6,33.3c-3,3.4-7.3,7.8-13.2,12.3
	c5.3-11.2,11.7-22.1,18.8-32.2c7.2-10.3,15.4-20,24.3-28.9C1398.2,1419.4,1394.9,1424.8,1391,1431.4z M1601.6,1309.4
	c1.7-1.5,3.4-3.1,5-4.7c-0.6,1.5-1.4,3-2.2,4.3c-1.2,1.8-7.3,10.9-14,10.1c-0.3,0-0.6-0.1-0.9-0.2
	C1593.7,1316,1597.8,1312.8,1601.6,1309.4z M1496.3,1297c-8,11.8-16,23.7-24,35.5l-8.2,12.2c-3.2,4.7-7,9-11.7,12.9
	c-2.2,1.6-4.1,3.5-6,5.4c-2.2,2.2-4.5,4.4-7.1,6.1c12.6-25.7,29.7-48.6,46.3-69.5c1.2-1.4,2.4-2.8,3.7-4.2c4.1-4.9,8.1-9.5,13-13.3
	C1500.8,1287.7,1499.3,1292.7,1496.3,1297z M1552.6,1254.6c25.3-8.5,49.3-4.5,66.5,1.2c-2-0.2-4.1-0.3-6.1-0.3
	c-14-0.4-24.5,1.7-29,2.5l-0.6,0.1c-12.7,2.5-28.2,3.5-46,3.1C1542.3,1258.6,1547.4,1256.4,1552.6,1254.6z M1742.3,1015.3
	c2.9-9.2,8.8-14.8,12.8-17.7c-1,15-6.3,27.9-12.2,40.8C1741.3,1034,1739.2,1025.3,1742.3,1015.3z M1663.1,1179.6
	c-9.4,2.2-19.1,2.3-29,0.5c13.1-2.3,25.7-6.5,37.5-12.3c17.4-8.5,33.1-20.9,45.9-35.9C1711.6,1144.3,1695,1172.3,1663.1,1179.6z
	 M1691.6,1121.7c3.3-1.6,6.5-3.2,9.6-4.8c7-3.5,13.6-6.9,20.9-9.9c-0.8,1.2-1.5,2.4-2.2,3.7c-6.7,11-13.1,21.3-22.6,29.9
	c-21.3,18.4-42.8,29.6-65.7,34.3C1651.3,1150.3,1670.9,1132.9,1691.6,1121.7z M1660.7,1112.6c-0.1-2.2-0.2-4.4-0.2-6.5
	c-0.1-5.4-0.2-10.5-1.4-16.1c-3.9-22.7-5.5-46-7.1-68.6c-0.2-3-0.4-6-0.6-9c-2.2-34.9,11.1-68.4,26.8-102.3
	c-3.4,24.9-1.3,50.7,0.7,75.8C1682.3,1029.2,1685.9,1073.8,1660.7,1112.6z M1685.7,1074.3c2.2-16.1,3.5-32.4,3.9-48.7
	c0.4-14.8-0.1-25.8-0.6-35.5c-1.2-26.8-2.7-54.9-4.4-83.5c1.4,3.9,2.9,7.8,4.4,11.6c6,15.7,12.2,32,14.9,48.6
	C1708,1000.4,1701.7,1037.4,1685.7,1074.3z M1707.4,674.9c5.9,7.3,11,12.5,13.2,14.8c0.5,0.5,0.8,0.8,0.9,1
	c34.1,39.6,49.6,96.1,40.9,148.3c-0.5-3.4-0.5-6.8-0.5-10.3c0-2.9,0-5.9-0.3-8.8c-1.1-20.2-10.9-38.3-21-55.2
	c-8.6-13.2-14.9-27.8-21-42c-3-7.1-6.2-14.4-9.6-21.5l-0.7-1.6c-5.8-12.8-11.8-26-13.2-39.8C1699.7,664.9,1703.4,670,1707.4,674.9z
	 M1731.5,805.1c-11.5-14.8-23.5-30.2-30.7-47.9c-8.8-28.7-18.8-61.2-8.3-89.5c2.4,10.8,5.4,20.1,9.2,28.5l0,0
	c5.3,10.9,9.3,22.6,13.1,33.9c5.5,16.3,11.2,33.3,21.3,48c9.8,15.2,22.5,38.1,20.5,63.2C1749.6,828.4,1740.4,816.6,1731.5,805.1z
	 M1784.2,852.5c16.9-18.8,36.1-35.4,57.1-49.6c-11.1,31.5-26,53.8-45.7,68.2c-15,10-28.3,22.6-41.1,34.8
	c-5.8,5.5-11.7,11.1-17.7,16.4C1749.3,897,1765.2,873.5,1784.2,852.5z M1819.9,885.8c-9.8,12.5-21.2,18.2-35.7,25.4l-2.7,1.3
	c-14,6.9-29,12.3-44.5,15.9c11.8-11.4,24.4-22.5,37.4-33l5-4c10-8.1,14.6-11.9,21.2-16.4c20.5-14.1,32.7-36,41.9-56.1
	C1841.9,843.7,1833.7,868,1819.9,885.8z"/>
</svg>
