<?xml version="1.0" encoding="utf-8"?>
<!-- Generator: Adobe Illustrator 25.1.0, SVG Export Plug-In . SVG Version: 6.00 Build 0)  -->
<svg version="1.1" id="Слой_1" xmlns="http://www.w3.org/2000/svg" xmlns:xlink="http://www.w3.org/1999/xlink" x="0px" y="0px"
	 viewBox="0 0 2000 2000" style="enable-background:new 0 0 2000 2000;" xml:space="preserve">
<g>
	<path d="M185.3,870.8h1469.5c2.3,0,4.3-1.9,4.3-4.3c0-2.3-1.9-4.3-4.3-4.3h-131.4c1.4-2.1,2.6-4.4,3.7-6.8c2.8-6.2,4-12.7,4.2-19.4
		c0.2-7.2-1.2-14.1-3.3-20.9c-2.1-7.2-5.3-14-8.5-20.7c-2.7-5.8-5.5-11.5-8-17.4c-2.6-6.2-3.9-12.7-4.4-19.4
		c-0.2-2.1,0.2-3.9,1.4-5.7c1.9-3,3.7-6,5.3-9.2c0.9-1.8,1.4-3.8,1.9-5.7c0.2-1,0-2.2-0.3-3.3c-0.8-2.5-3.4-3.8-5.8-2.7
		c-1.2,0.6-2.5,1.5-3.3,2.6c-1.3,1.7-2.3,3.6-3.2,5.5c-2.1,4.8-3.1,9.8-3.4,15c-0.1,1.8-0.6,3.3-1.6,4.8
		c-6.8,10.1-13.4,20.2-20.3,30.2c-11,15.9-22.1,31.7-33.9,47c-3.2,4.2-6.7,8.1-10.2,12c-2,2.2-4.2,4.1-6.5,5.9
		c-1.3,1.1-2.9,1.9-4.4,2.5c-2.9,1.1-4.6,0.3-5.9-2.4c-0.4-1-0.7-2.1-0.9-3.2c-1-4.5-0.4-9.1,0.4-13.6c1.6-9,4.6-17.6,7.7-26.1
		c2.3-6.3,4.6-12.5,6.7-18.9c1-3.1,1.6-6.3,1.9-9.5c0.6-5.5-1-10.4-5.1-14.3c-1.9-1.8-4.1-3.3-6.2-4.8c-2.2-1.5-4.5-2.8-6.8-3.9
		c-6.4-3.2-9.4-8.6-10-15.5c0-0.5,0-1-0.1-1.5c-0.1-0.6-0.3-1.2-0.6-1.7c-1-1.6-3.2-1.7-4.3,0c-0.4,0.6-0.5,1.3-0.6,2
		c-0.1,1-0.1,2-0.2,3c-2.5,14.4-5.6,28.8-10.4,42.6c-5.1,14.5-11.1,28.6-17.7,42.5c-2.2,4.6-4.5,9.1-7,13.5
		c-1.6,2.9-3.6,5.6-5.7,8.2c-1.2,1.6-2.8,2.9-4.5,4.1c-2.5,1.8-4.3,1.3-5.6-1.5c-0.9-2-1.8-4.1-2.1-6.3c-0.6-4.3-1.1-8.6-1.2-13
		c-0.2-8.6,0.7-17.2,1.9-25.7c2-14.2,4.9-28.3,8.1-42.3c2.5-10.7,4.8-21.5,7.1-32.3c0.9-4.4,1.7-9,1.5-13.5c-0.1-2-0.4-4.1-1.1-5.9
		c-1.3-3.3-4.3-4.7-7.6-3.6c-1.4,0.4-2.8,1.1-4.1,2c-1.7,1.2-3.4,2.5-4.9,4c-3.4,3.3-6.8,6.7-9.9,10.3c-13.7,15.9-25,33.3-33.7,52.3
		c-0.4,0.8-0.5,1.8-1.6,2.4c0.5-2.5,1-4.7,1.5-7c2.6-12.4,5.4-24.7,7.3-37.2c0.9-6,1.5-12.1,0.9-18.1c-0.2-2.3-0.7-4.6-1.5-6.8
		c-1.8-4.6-5.9-6.8-10.7-5.8c-2.5,0.5-5,1.5-7.4,2.5c-3.6,1.6-6.8,3.9-9.9,6.4c-5.9,4.7-10.9,10.3-15.4,16.2
		c-6.9,8.9-12.6,18.5-17.5,28.7c-0.4,0.8-0.6,1.8-1.6,2.5c0.7-4.6,1.5-8.8,2.1-13.1c1.4-10.2,2.3-20.5,2-30.8
		c-0.3-9.4-1.6-18.7-4.7-27.7c-1.8-5.1-4.1-9.9-7.4-14.2c-6.2-7.9-14.2-10.7-23.9-8.6c-4.9,1-9.4,3.1-13.7,5.5
		c-7.1,4.1-13.5,9.2-19.4,15c-16,15.9-28.3,34.2-37.6,54.7c-7.3,16.2-12.6,33-13.7,51c-0.5,8.5,0.4,16.8,3.3,24.8
		c1.2,3.2,2.7,6.3,5,9c2.6,3.2,5.9,5.2,10,5.7c2.9,0.4,5.6-0.2,8.3-1.3c3.3-1.3,6.2-3.5,8.7-5.9c3.8-3.6,6.7-7.8,9.4-12.2
		c5.7-9.4,9.9-19.4,13.2-29.9c4-12.8,6.5-25.9,7.9-39.2c0.7-6,0.9-12.1,0.8-18.2c-0.1-3.1-0.3-6.3-1.3-9.3c-0.3-1-1-2-1.6-2.8
		c-0.4-0.5-1-0.7-1.6,0.3c1.2,0.9,1.3,2.3,1.4,3.7c0.6,4.5,0.5,9.1,0.2,13.6c-0.5,7.9-1.5,15.7-2.8,23.5c-2.2,12.1-4.8,24-9.1,35.5
		c-3.3,8.8-7.3,17.3-12.6,25.1c-2.5,3.6-5.3,6.9-8.8,9.6c-2,1.6-4.2,2.9-6.6,3.6c-5,1.5-9.4,0.4-12.9-3.5c-1.9-2-3.2-4.4-4.3-6.9
		c-2.2-5.2-3.4-10.6-3.8-16.2c-0.4-7.6,0.1-15.1,1.6-22.6c3.2-16.6,9.1-32.2,17.3-47c8.4-15.3,18.5-29.4,31-41.7
		c6.6-6.5,13.8-12.2,22.1-16.4c3.3-1.7,6.6-3,10.2-3.7c7.6-1.5,13.8,0.6,18.3,7c2.1,2.9,3.7,6.1,4.9,9.4c3,7.9,4.6,16.1,5,24.6
		c0.6,12.5-0.7,24.8-2.8,37.1c-2.2,12.9-5.3,25.5-8.6,38.1c-4.4,16.9-8.4,33.9-10.9,51.3c-0.8,5.3-1.3,10.7-0.8,16
		c0.1,1.4,0.4,2.7,0.7,4.1H903c26.6-19.5,52.5-39.8,77.4-61.6c42.8-37.4,82.2-78,114.9-124.7c22.3-31.9,40.3-66,52.4-103.1
		c5.9-18.1,9.2-36.6,7.7-55.7c-1.9-23.2-12.5-41.1-32.4-53.3c-10.3-6.3-21.6-10-33.6-12.1c-17.1-3-34-1.7-50.8,1.6
		c-37.6,7.4-71.7,23.4-103.4,44.5c-47.6,31.8-87.2,72.1-121.8,117.5c-56.3,73.8-88.4,156.5-99,246.9H617c1.5-1.4,2.8-2.9,4-4.5
		c3-3.8,5.5-8,7.7-12.3c4.2-8.2,8.1-16.5,11.5-25c1.1-2.7,2-5.5,2.9-8.3c0.3-0.8,0.3-1.8,0.4-2.7c0-0.3-0.2-0.7-0.5-1
		c-0.2-0.3-0.9,0.1-1.2,0.7c-0.4,0.8-0.8,1.6-1.1,2.5c-1.8,4.3-3.6,8.5-5.5,12.8c-1.5,3.3-3,6.6-4.5,9.9c-3,6.4-6.3,12.7-10.3,18.5
		c-1.5,2.2-3.2,4.2-5.2,5.9c-1.4,1.3-3,2.4-4.8,3.1c-0.3,0.1-0.5,0.2-0.7,0.3h-2.3c-0.8-0.3-1.3-1-1.8-1.9c-0.9-1.5-1.3-3.1-1.5-4.9
		c-0.4-5.9,0.1-11.7,1.6-17.4c1.6-6.4,3.7-12.6,6.3-18.6c1.9-4.5,3.9-9.1,5.9-13.6c1.5-3.4,2.8-6.9,3.6-10.6
		c0.7-3.2,1.2-6.5,0.4-9.9c-1-4-2.8-7.3-6.1-9.8c-2.2-1.7-4.7-2.7-7.3-3.6c-2.5-0.8-5-1.6-7.5-2.4c-1.6-0.5-3.1-1.3-4.6-2.3
		c-2.4-1.7-3.6-4-3.7-6.9c0-1.2,0-2.4,0-3.6c0-0.5-0.1-1-0.3-1.5c-0.1-0.3-0.3-0.5-0.4-0.6c-0.7-0.6-2.7-0.2-3.7,0.8
		c-2,1.9-1,6-0.7,6.9c0.7,2.9,0.9,3.5,0.9,3.5c0.5,1.3,0.6,2.5,0.2,3.8c-1.1,4.1-2.2,8.2-3.2,12.3c-1.4,5.6-3,11.1-4.8,16.5
		c-1.9,5.8-3.9,11.6-6,17.4c-3.9,10.9-8,21.7-12.6,32.4c-1.6,3.6-3.4,7.1-5.7,10.3c-0.8,1.1-1.8,2.2-2.8,3.1
		c-0.2,0.2-0.4,0.3-0.6,0.5h-5.4c-0.5-0.4-0.9-0.8-1.3-1.4c-1.1-1.5-1.9-3.1-2.6-4.8c-2.2-5.6-2.9-11.5-3.5-17.4
		c-0.3-3.1-0.2-6.2-0.5-9.4c-0.3-2.7,0.3-5.4,0.4-8.2c0.1-3.7,0.1-7.5,0.5-11.2c0.4-4,0.7-8,1.3-12c0.5-3.4,0.8-6.8,1.4-10.2
		c0.9-5.3,1.9-10.5,2.9-15.7c1.1-6.3,2.7-12.6,4-18.9c0.8-3.7,1.8-7.4,2.6-11.2c1.1-5.5,2.6-11,3.4-16.6c0.4-2.5,1-4.9,1-7.5
		c0-0.7,0.1-1.4,0.2-2.1c0.2-2.5-0.1-5-0.9-7.4c-0.3-0.7-0.7-1.5-1.3-2c-1.5-1.5-3.3-2.5-5.4-2.1c-2.3,0.4-4.5,1.1-6.5,2.4
		c-3,1.9-5.9,3.9-8.5,6.3c-3.7,3.4-7.5,6.7-10.9,10.5c-3.2,3.6-6.5,7.2-9.5,11c-6.3,7.9-10.4,14.6-11.5,16.3
		c-6.2,10.2-9.5,18.5-10.1,18.2c-0.1-0.1-0.1-0.6,1-4.7c1.1-4.2,1.7-6.3,2.5-9c2-7.4,3.9-14.8,5.5-22.4c0.6-2.7,1.2-5.3,1.3-8
		c0.2-3.7,0.3-7.5,0.1-11.2c-0.1-2.7-0.9-5.4-2.3-7.7c-0.8-1.4-1.7-2.7-3-3.7c-3.6-2.7-7.4-2.9-11.4-1.3c-3.4,1.3-6.5,3.3-9.2,5.8
		c-2.4,2.2-4.7,4.4-7,6.7c-3.2,3.4-6.2,6.9-9,10.6c-7.1,9.2-13.2,19.1-18.7,29.3c-3.1,5.7-6,11.4-8.7,17.3c-1.4,3.2-3.8,8.2-6.4,15
		c-3.2,8.1-4.5,12.8-4.8,12.7c-0.3-0.1,0.9-5,4.2-19.5c2.3-10.3,3.3-15,3.7-16.8c0.9-4,1.7-8.1,2.5-12.1c0.8-3.7,1.5-7.5,2.2-11.3
		c0.6-3.3,0.9-6.6,1.4-9.9c0.4-2.2,0.4-4.4,0.7-6.6c0.5-3.7,0.9-7.4,1-11.1c0.1-5.7,0.2-11.5-0.4-17.2c-0.6-5.6-1.8-11.1-3.8-16.4
		c-1.7-4.3-4.1-8.1-7.4-11.3c-4.8-4.7-10.8-7.1-17.4-7.5c-2.7-0.2-5.4,0-8.1,0.4c-5.1,0.8-10,2.4-14.6,4.6
		c-8.6,4.2-16.2,9.9-23.1,16.4c-3.6,3.4-7.1,6.9-10.3,10.7c-3.6,4.1-6.9,8.4-9.9,13c-5.3,7.9-9.9,16.1-13.8,24.8
		c-2.5,5.5-4.7,11.1-6.6,16.9c-1.6,4.8-3.1,9.6-4,14.5c-0.7,3.5-1.4,6.9-1.9,10.4c-0.5,3.5-0.7,7-1,10.5c-0.2,2.6,0.2,5.2,0.4,7.8
		c0.2,3.2,0.6,6.4,1.3,9.6c1.5,6.6,3.5,13,7,18.9c3,5.2,6.9,9.5,12,12.5c4.4,2.7,10.5,3.7,16,2.1c4.7-1.4,8.5-4.1,11.9-7.5
		c2.3-2.4,4.4-5,6.1-7.9c2.5-4.1,4.8-8.4,6.7-12.9c2-4.7,3.8-9.6,5.1-14.5c2.1-7.6,3.5-15.3,4.5-23.1c0.2-1.9,0.3-3.8,0.6-5.7
		c0.6-4.2,0.8-8.4,1-12.7c0.2-5,0.3-10.1-0.4-15.1c-0.1-0.5-0.2-4.3-1.4-8.9c-1-3.9-1.9-5.3-3.1-5.7c-1-0.3-2.8-0.3-3.3,0.6
		c-0.1,0.2-0.1,0.5-0.1,0.6c1.4,5.6,2,10.3,2.3,13.7c0.4,5.3,0,9.5-0.1,16.7c-0.1,3.2-0.3,6.4-0.7,9.7c-0.4,4-1,8-1.7,12
		c-0.6,3.8-1.2,7.6-2.1,11.3c-1.6,7.1-3.5,14.1-6.3,20.8c-2.2,5.2-4.6,10.3-7.8,15c-2.1,3.1-4.6,5.9-7.7,8
		c-4.8,3.3-10.1,4.1-15.6,2.3c-3.6-1.2-6.7-3.4-9.3-6.1c-2.5-2.6-4.6-5.6-6.3-8.8c-2.5-4.8-4.3-9.8-5.5-15
		c-1.1-4.7-1.9-9.5-1.9-14.3c0-1.3,0-2.6,0-3.9c-0.1-3.9,0.2-7.9,0.8-11.8c0.6-3.8,1.4-7.5,2.2-11.2c2.4-10.3,6.1-20.2,10.7-29.8
		c3.8-8,8.4-15.6,13.6-22.8c4.2-5.9,9-11.4,13.9-16.7c1.6-1.7,3.4-3.1,5.1-4.8c4.4-4.2,9.2-7.9,14.3-11.1c4.7-3,9.6-5.5,14.9-7.3
		c3.8-1.2,7.6-1.7,11.5-2.2c1.7-0.2,3.4,0.3,5.1,0.4c3.7,0.4,7,1.7,10.1,3.7c4.1,2.7,6.8,6.6,8.7,11c2.7,6.2,3.9,12.7,4.2,19.4
		c0.4,8.1,0.3,16.1-1,24.2c-0.6,3.8-0.9,7.6-1.5,11.4c-0.6,3.8-1.5,7.5-2.2,11.3c-1.4,8-3.4,15.9-5.2,23.9
		c-1.6,7.3-3.5,14.5-5.2,21.7c-1.5,6.2-2.9,12.3-4.2,18.5c-0.9,3.9-1.7,7.9-2.5,11.8c-0.8,3.7-1.5,7.5-2.3,11.2
		c-0.5,2.5-0.9,4.9-1.3,7.4c-0.5,3.5-1,7-1.5,10.5c-0.5,3.9-0.5,7.8-0.5,11.8c0,0.6,0.1,1.1,0.2,1.6H185.3c-2.3,0-4.3,1.9-4.3,4.3
		C181,868.8,182.9,870.8,185.3,870.8z M1357.2,860.9c2.7-1.7,5-3.9,6.8-6.4c2.4-3.3,4.7-6.6,6.7-10.1c4.7-8.1,8.3-16.6,12.2-25.1
		c8.7-19.2,15.2-39.1,18.9-60c0.2-0.9,0.5-1.8,0.8-2.9c0.5,0.4,0.7,0.6,0.9,0.8c2.2,3.1,5.1,5.4,8.4,7.4c2.1,1.3,4.2,2.4,6.2,3.8
		c1.7,1.2,3.4,2.6,4.9,4.1c2,2.1,3,4.7,2.9,7.7c-0.1,3-0.7,5.8-1.7,8.6c-1.7,5.1-3.6,10.1-5.4,15.1c-3.5,9.4-6.5,18.9-7.8,28.9
		c-0.7,5.2-1.2,10.4-0.3,15.7c0.5,3,1.2,5.9,2.9,8.5c2.6,4,6.2,5.4,10.7,3.8c2.1-0.7,4.1-1.7,5.9-3.1c3-2.3,6-4.9,8.6-7.6
		c3.7-3.9,7.2-7.9,10.4-12.2c7.4-9.9,14.7-19.8,21.7-29.9c9.2-13.2,18.2-26.5,27.2-39.8c0.6-0.9,1-1.9,2.1-2.5
		c0.2,0.3,0.3,0.4,0.4,0.6c0.1,0.6,0.3,1.2,0.4,1.8c0.9,6.5,2.8,12.8,5.2,18.9c2,4.9,4,9.7,6.1,14.5c2.6,6,5,12.1,6.7,18.5
		c2.4,8.8,3.2,17.7,1.5,26.7c-1.1,6-3.3,11.2-6.4,15.5h-45.9c-0.1-0.4-0.2-0.9-0.3-1.3c-1.1-5-0.3-9.9,1.5-14.5
		c2.1-5.3,5.4-10,9.4-14c6.3-6.3,13.5-11.3,21.5-15.1c1.2-0.6,2.4-1,3.7-1.5c1.9-0.7,3.9-1,6-0.3c0.5,0.2,1.1,0.1,1.9,0.1
		c-0.5-2.2-2-2.9-3.8-3.1c-2.5-0.3-4.8,0.2-7.1,1.1c-10.7,4.2-20,10.5-27.4,19.4c-5.3,6.3-8.8,13.6-9.6,21.9
		c-0.2,2.5-0.1,4.9,0.4,7.3h-109.4C1355.4,861.9,1356.3,861.5,1357.2,860.9z M1226.5,858.6c0.2-2.5,0.6-5,0.8-7.5
		c1.7-15.7,4.5-31.2,8.7-46.4c2.8-10.2,5.5-20.5,9.6-30.3c5.8-14,12.8-27.3,22.2-39.2c5.5-6.9,11.6-13.2,19.1-18
		c2.6-1.7,5.2-3.2,8.1-4c1.4-0.4,3-0.6,4.5-0.7c2,0,3.5,1,4.2,2.9c0.4,1.1,0.9,2.3,0.9,3.5c0.1,2.9,0.2,5.9-0.1,8.8
		c-0.7,8-2.3,15.8-4.2,23.6c-6.1,25.2-11.4,50.5-15.1,76.1c-0.7,5-1.1,10-1.5,15.1c-0.1,1.3,0.3,2.6,0.6,3.9c0.3,1,1,1.7,2,2.1
		c1.1,0.4,2.1,0,2.4-1.1c0.2-0.7,0.3-1.4,0.4-2.1c0.7-4.7,1.2-9.4,2.1-14.1c7.2-35.6,22.3-67.4,45.5-95.3c3.6-4.3,7.6-8.3,11.6-12.4
		c1.4-1.4,3.1-2.6,4.7-3.8c0.9-0.6,1.8-1.3,3.2-1c0.5,1.1,0.6,2.3,0.5,3.5c-0.1,2-0.2,4.1-0.6,6c-1.8,9-3.6,18-5.5,27
		c-4.3,19.8-8.7,39.7-10.9,59.9c-1.1,9.7-1.5,19.4-0.3,29c0.6,4.5,1.4,9,3.6,13.1c1.3,2.5,2.9,4.2,4.7,5.1h-121.4
		C1226.4,861,1226.4,859.8,1226.5,858.6z M775.8,743.3c29.5-86.7,80.1-159,150.3-217.6c27.1-22.6,57.1-40.4,90.5-52
		c14.4-5,29.3-7.9,44.5-9.4c13-1.3,25.8,0.3,38.2,4.3c29.8,9.6,43.9,30.7,42.3,63.1c-0.7,13.9-3.8,27.3-8.2,40.5
		c-12.5,38-31.9,72.3-55.4,104.5c-30.6,41.9-66.8,78.4-105.7,112.5c-29.8,26.1-61.1,50.1-93.2,73.1H752.4
		C755.4,821.7,762.7,781.9,775.8,743.3z M558,860.7c2.5-3.6,4.4-7.4,6.1-11.4c2.9-6.8,5.7-13.6,8.3-20.4c2.1-5.5,4.3-11.1,6.3-16.7
		c2.3-6.4,4.5-12.9,6.4-19.5c1.6-5.6,3.3-11.2,4.5-16.9c0.4-1.7,0.9-3.5,1.4-5.5c2.5,2.4,5.2,3.8,8.2,4.8c2.5,0.8,5,1.6,7.5,2.5
		c1.4,0.5,2.8,1.1,4,2c2.6,2,4.2,4.5,4.4,7.9c0.1,2.7,0,5.4-1.1,8c-0.7,1.7-1.2,3.4-2,5.1c-1.8,4.1-3.7,8.3-5.7,12.4
		c-3.2,7-5.9,14.1-7.5,21.7c-0.8,4-1.4,7.9-1.5,12c0,2,0.3,4,0.5,6c0.2,2.1,0.8,4.2,1.4,6.2c0.4,1.2,1,2.4,1.7,3.5h-44.3
		C557.3,861.8,557.7,861.2,558,860.7z M413.1,860.7c0.8-3,0.6-4.1,1.5-9.6c0.2-1.1,0.4-2.2,0.6-3.3c1.1-5.5,2.2-11,3.5-16.5
		c1.7-7.5,3.7-14.8,6.1-22.1c1.4-4.4,3-8.8,4.6-13.1c2.6-7.3,5.6-14.5,9-21.5c2.2-4.7,4.4-9.3,6.8-13.8c3.3-6.3,6.9-12.3,10.7-18.3
		c4.5-7.1,9.3-13.9,14.7-20.3c3.2-3.8,6.7-7.3,10.4-10.6c0.8-0.8,1.7-1.5,2.6-2c1.6-0.9,3.2-1.8,4.8-2.5c2.6-1.1,4.8-0.2,6,2.4
		c0.8,1.6,1.2,3.4,1.3,5.2c0.4,6.4-0.8,12.7-2.3,18.8c-2.1,8.5-4.7,16.9-7.1,25.3c-1.3,4.7-2.7,9.5-4,14.2
		c-2.3,8.8-4.6,17.5-6.4,26.4c-0.8,3.9-1.5,7.7-2.1,11.6c-0.3,1.9-0.5,3.8-0.8,5.7c-0.5,3.5-0.9,7-0.9,10.5c0,3.3,0.7,6.4,2.7,9.1
		c0.5,0.7,0.8,1.4,0.8,2.2c0,0.7,0.1,1.4,0.2,2.1c0,0.2,0.4,0.5,0.6,0.6c0.4,0,0.8,0,1.1-0.2c0.2-0.1,0.4-0.5,0.5-0.7
		c0.3-0.9,0.5-1.7,0.7-2.6c0.8-4.4,1.7-8.7,2.4-13.1c0.8-5.4,2-10.7,3.2-16c2.7-11.9,6.9-23.4,12.1-34.5c2.9-6.2,6.1-12.3,9.7-18.2
		c4.8-8,10.3-15.5,16.2-22.6c4.2-5.1,8.8-9.8,13.6-14.3c1.8-1.7,3.6-3.2,5.5-4.8c1.2-1,2.4-1.8,3.7-2.6c1.6-0.9,2.6-1.8,4.1-1.9
		c0.7,0,1.1-0.1,1.5,0.2c1.5,0.9,0.8,4.9,0.1,8.2c-1.4,7-2.2,10.5-2.7,12.4c-1.3,5.4-2.9,10.7-4.2,16.1c-2.8,11.1-5.8,22.2-7.6,33.6
		c-0.6,3.7-1.3,7.3-1.7,11c-0.3,2.1-0.3,4.2-0.7,6.3c-0.6,3.3-0.2,6.7-1,9.9c0,7.5-0.5,14.9,0.4,22.4c0.4,3.1,0.8,6.2,1.2,9.3
		c0.6,4.4,1.8,8.7,3.2,12.9c0.9,2.7,2.1,5.3,3.5,7.7c0.5,0.9,1.1,1.8,1.7,2.6H412.7C412.8,861.7,413,861.2,413.1,860.7z"/>
	<path d="M1654.7,1036.2H185.3c-2.3,0-4.3,1.9-4.3,4.3c0,2.3,1.9,4.3,4.3,4.3h440.4c-5.4,4.4-10.9,8.8-16.2,13.4
		c-33.2,28-62.6,59.9-85.9,96.8c-17.2,27.2-29.7,56.2-34.1,88.3c-8.7,63.3,10.5,116.3,59.8,157.7c18.9,15.9,40.6,27,63.5,35.8
		c33.3,12.8,67.9,20,103.4,23.3c35.5,3.3,70.8,2.4,106.1-2.6c32.9-4.6,65.1-12.5,96.5-23.4c7.9-2.7,13.7-1.8,20.3,3
		c22.2,15.8,46,28.9,71,39.8c63,27.6,128.5,38.7,196.9,28.6c67.5-9.9,130-33.4,187.4-70.3c28.1-18.1,53.4-39.4,74.6-65.2
		c18.9-23.1,33.5-48.5,41.3-77.4c6.5-24,7.5-48.3-0.2-72.2c-20-61.4-80.1-83.1-127-79.2c-9.7,0.8-19,4-26.6,10.5
		c-4.8,4.1-9,8.7-9.3,17.4c4.2-2.3,7.2-3.4,9.6-5.2c9.6-7.4,20.5-10,32.4-10c20.7,0,40.3,4.9,58.2,15.1c27.6,15.8,44.9,39,48.7,71.3
		c1.9,16.4-1.1,32.1-6.3,47.5c-7.9,23.5-21,44-37.1,62.6c-17.9,20.8-38.9,37.9-62,52.5c-50.4,32-105.3,52.6-164,63.1
		c-31.5,5.6-63.4,6.6-95,2.5c-51.6-6.6-98.6-25.9-142-54.2c-1.8-1.2-3.3-2.7-5.5-4.6c5.2-4.6,10.9-6.4,16.2-9
		c79.3-39.6,148.5-92.3,205.6-160.3c41.3-49.2,72.9-104,91.1-166c2.9-9.8,5.3-19.6,7.3-29.5h350.6c2.3,0,4.3-1.9,4.3-4.3
		C1659,1038.2,1657.1,1036.2,1654.7,1036.2z M886.6,1427.4c-53.6,15.4-108.4,21-163.9,16.7c-42-3.2-82.8-12.4-121.3-30.1
		c-15.9-7.3-31.2-16-44.5-27.5c-41.4-35.8-58.9-81.1-52.9-135.4c3.8-34.6,17.1-65.7,35.8-94.7c16.8-26.1,37.2-49.1,59.5-70.6
		c14.9-14.4,30.6-28,46.7-41h71.4c11.8,83.4,37.7,162.3,79.4,236.2c28.6,50.6,64.9,94.9,109.9,131.8c1.7,1.4,3.3,3,6.9,6.3
		C903.2,1422.3,894.9,1425,886.6,1427.4z M1285.1,1053.6c-12.9,52.1-36.1,99.5-67.3,142.9c-63.4,88-145.6,153-243.6,198.6
		c-2.4,1.1-5.1,1.7-7.7,2.5c-3-2.1-5.7-3.8-8.3-5.7c-27-21.1-51-45.3-72.2-72.1c-41-51.8-70.7-109.8-93.3-171.7
		c-12.3-33.8-21.5-68.3-28.3-103.3h266.4c-2.4,3.6-4.8,7.3-7.1,11c-6.7,11.1-12.3,22.7-15,35.5c-2,9.1-2.4,18.3,0.8,27.3
		c1.7,4.8,3.9,9.3,12,10.6c-2.3-7.7-4.9-20.3-2.2-35.1c2.7-14.9,10.2-24.9,16.6-34.8c3.3-5,6.7-9.8,10.2-14.6h241
		C1286.5,1047.7,1285.8,1050.7,1285.1,1053.6z"/>
</g>
<g>
	<path d="M530,1012.4l-7.7-35.2l-16.3-69.4c-1.3-5.5-2.6-8.6-4.1-9.2c-1.4-0.6-4.4-1.3-9.1-1.8l-0.7-0.7v-3.7l0.7-0.8
		c8.1,0.5,15.3,0.7,21.5,0.7c4.7,0,11.5-0.2,20.4-0.7l0.8,0.8v3.7l-0.7,0.7c-6.2,0.2-10,0.5-11.3,0.9c-1.3,0.4-1.9,1.3-1.9,2.8
		c0,1.2,0.6,4.9,1.7,11.2c1.1,6.3,2.1,11.4,3,15.3l13.2,58.5l20.8-51.9c5.5-13.7,10.8-28.1,16.1-43.1h5.4
		c4.5,14.1,9.1,27.8,13.9,41.1l19.8,55l14.3-50.4c1.5-5.3,3.3-12.2,5.4-20.8c2.1-8.6,3.2-13.6,3.2-14.9c0-1.5-0.7-2.5-2.1-2.8
		c-1.4-0.4-5.5-0.6-12.2-0.8l-0.7-0.8v-3.7l0.7-0.7c9.6,0.5,15.3,0.7,17.3,0.7c1.8,0,7.6-0.2,17.6-0.7l0.7,0.7v3.8l-0.7,0.6
		c-3.2,0.1-5.3,0.4-6.4,0.9c-1.1,0.5-2,1.2-2.8,2.2c-0.8,1-1.9,3.9-3.4,8.6l-4.9,15.7l-8.7,28.4c-1.2,4.1-3.5,12.4-6.8,25l-9.4,34.9
		h-8.6c-5.9-17.4-10.7-31.4-14.5-41.9l-19.2-52.1l-16.8,41.7l-9,23.6c-2.4,6.2-4.2,11.3-5.7,15.3l-4.6,13.3H530z"/>
	<path d="M668.1,891.6l10.5,0.3c6.9,0.2,11.4,0.3,13.6,0.3c1.9,0,10-0.2,24.2-0.7l0.7,0.6v4.2l-0.7,0.6c-3.9,0.1-6.9,0.3-9,0.5
		c-2.1,0.2-3.6,0.6-4.6,1.3c-1,0.6-1.6,2.1-1.9,4.3c-0.3,2.3-0.5,5.4-0.5,9.5l-0.2,19.4v39.1l0.1,16.5c0.1,6.4,0.2,10.5,0.5,12.3
		c0.3,1.9,0.7,3.1,1.2,3.7c0.5,0.6,1.6,1.1,3.1,1.6s5.3,0.7,11.2,1l0.7,0.5v4.2l-0.7,0.7c-0.3,0-5.2-0.2-14.9-0.5
		c-4-0.1-7.1-0.2-9.4-0.2c-1.7,0-9.8,0.2-24.1,0.7l-0.7-0.7v-4.2l0.7-0.5c5.2-0.2,8.7-0.5,10.5-0.8c1.7-0.3,2.9-0.8,3.5-1.3
		c0.6-0.5,1.1-1.7,1.4-3.4c0.4-1.7,0.6-5.6,0.6-11.6l0.1-17.8V932l-0.2-16.5c-0.1-6.4-0.2-10.5-0.5-12.4c-0.3-1.9-0.6-3.1-1.2-3.7
		c-0.5-0.6-1.6-1.1-3.1-1.5c-1.5-0.4-5.3-0.7-11.2-0.9l-0.7-0.6v-4.2L668.1,891.6z"/>
	<path d="M724.5,892.2l0.7-0.6c14,0.5,22,0.7,24.1,0.7c1.9,0,10-0.2,24.2-0.7l0.7,0.6v4.2l-0.7,0.6c-3.9,0.1-6.9,0.3-9,0.5
		c-2.1,0.2-3.6,0.6-4.6,1.3c-1,0.6-1.6,2.1-1.9,4.3c-0.3,2.3-0.5,5.4-0.5,9.5l-0.2,19.4v37.3c0,9.3,0.1,15.9,0.2,19.6l0.4,14.6h17.2
		c13.7,0,22.3-0.2,25.7-0.5c3.4-0.3,6.7-1.2,9.8-2.4c0.6-1.4,1.5-4.6,2.7-9.7c1.2-5.1,1.8-8,1.8-8.8l0.8-0.7h4.1l0.6,0.7
		c-0.5,2.3-0.9,6.6-1.4,13.1c-0.5,6.5-0.7,11.7-0.7,15.7l-0.7,0.7c-10.7-0.3-24.7-0.5-42.1-0.5l-24.6-0.2c-5.6,0-11.4,0.2-17.2,0.7
		l-0.7-0.7v-2.8l0.7-0.8c3.5-1.8,5.4-2.9,5.7-3.3c0.3-0.4,0.7-4,1.1-10.9c0.4-6.9,0.5-15.1,0.5-24.8V932l-0.2-16.5
		c-0.1-6.4-0.2-10.5-0.5-12.4c-0.3-1.9-0.6-3.1-1.2-3.7c-0.5-0.6-1.6-1.1-3.1-1.5c-1.5-0.4-5.3-0.7-11.2-0.9l-0.7-0.6V892.2z"/>
	<path d="M830,892.2l0.7-0.6c14,0.5,22,0.7,24.1,0.7c1.9,0,10-0.2,24.2-0.7l0.7,0.6v4.2l-0.7,0.6c-3.9,0.1-6.9,0.3-9,0.5
		c-2.1,0.2-3.6,0.6-4.6,1.3c-1,0.6-1.6,2.1-1.9,4.3c-0.3,2.3-0.5,5.4-0.5,9.5l-0.2,19.4v37.3c0,9.3,0.1,15.9,0.2,19.6l0.4,14.6h17.2
		c13.7,0,22.3-0.2,25.7-0.5c3.4-0.3,6.7-1.2,9.8-2.4c0.6-1.4,1.5-4.6,2.7-9.7c1.2-5.1,1.8-8,1.8-8.8l0.8-0.7h4.1l0.6,0.7
		c-0.5,2.3-0.9,6.6-1.4,13.1c-0.5,6.5-0.7,11.7-0.7,15.7l-0.7,0.7c-10.7-0.3-24.7-0.5-42.1-0.5l-24.6-0.2c-5.6,0-11.4,0.2-17.2,0.7
		l-0.7-0.7v-2.8l0.7-0.8c3.5-1.8,5.4-2.9,5.7-3.3c0.3-0.4,0.7-4,1.1-10.9c0.4-6.9,0.5-15.1,0.5-24.8V932l-0.2-16.5
		c-0.1-6.4-0.2-10.5-0.5-12.4c-0.3-1.9-0.6-3.1-1.2-3.7c-0.5-0.6-1.6-1.1-3.1-1.5c-1.5-0.4-5.3-0.7-11.2-0.9l-0.7-0.6V892.2z"/>
	<path d="M937.4,891.6l10.5,0.3c6.9,0.2,11.4,0.3,13.6,0.3c1.9,0,10-0.2,24.2-0.7l0.7,0.6v4.2l-0.7,0.6c-3.9,0.1-6.9,0.3-9,0.5
		c-2.1,0.2-3.6,0.6-4.6,1.3c-1,0.6-1.6,2.1-1.9,4.3c-0.3,2.3-0.5,5.4-0.5,9.5l-0.2,19.4v39.1l0.1,16.5c0.1,6.4,0.2,10.5,0.5,12.3
		s0.7,3.1,1.2,3.7c0.5,0.6,1.6,1.1,3.1,1.6c1.5,0.4,5.3,0.7,11.2,1l0.7,0.5v4.2l-0.7,0.7c-0.3,0-5.2-0.2-14.9-0.5
		c-4-0.1-7.1-0.2-9.4-0.2c-1.7,0-9.8,0.2-24.1,0.7l-0.7-0.7v-4.2l0.7-0.5c5.2-0.2,8.7-0.5,10.5-0.8c1.7-0.3,2.9-0.8,3.5-1.3
		c0.6-0.5,1.1-1.7,1.4-3.4c0.4-1.7,0.6-5.6,0.6-11.6l0.1-17.8V932l-0.2-16.5c-0.1-6.4-0.2-10.5-0.5-12.4c-0.3-1.9-0.6-3.1-1.2-3.7
		c-0.5-0.6-1.6-1.1-3.1-1.5c-1.5-0.4-5.3-0.7-11.2-0.9l-0.7-0.6v-4.2L937.4,891.6z"/>
	<path d="M994.4,1011.5l-0.8-0.7v-4.4l0.8-0.7c4.1-0.1,6.8-0.3,7.9-0.6c1.2-0.4,2.2-1.1,3.2-2.2c0.9-1.1,2.8-4.7,5.6-10.8l8.9-19.2
		l23-52c4.3-10.2,8.6-20.4,12.9-30.5h5.5l36,84.7l4.8,11.3c1.4,3.2,3,6.7,4.9,10.5c1.8,3.8,3.1,6,3.8,6.7c0.7,0.7,1.6,1.2,2.6,1.6
		c1,0.4,3.4,0.6,7,0.6l0.7,0.7v4.4l-0.7,0.7c-6-0.5-11.3-0.8-16.1-0.8c-9.3,0.3-18.7,0.5-28,0.8l-0.7-0.7v-4.4l0.7-0.7
		c6.3-0.1,10.2-0.4,11.8-0.8c1.6-0.4,2.4-1.4,2.4-2.9c0-1.2-0.4-2.9-1.2-4.9l-10.4-25.7H1030l-9.2,21.6c-1.6,3.9-2.4,6.7-2.4,8.5
		c0,1.4,0.8,2.4,2.3,3.1c1.5,0.7,5.3,1,11.5,1.1l0.8,0.7v4.4l-0.7,0.7c-7.3-0.5-13.6-0.7-19.1-0.7
		C1006.9,1010.8,1000.7,1011,994.4,1011.5z M1032.9,964.1h42.7l-21.2-50.9L1032.9,964.1z"/>
	<path d="M1283.8,891.8l0.8,0.7v4.1l-0.7,0.6c-6.2,0.2-10,0.5-11.5,0.9c-1.5,0.5-2.5,1.2-3.2,2.2c-0.6,1-1,3.1-1.1,6.1
		c-0.1,3-0.2,11.6-0.5,25.7v38.9c0,5.6,0.1,12,0.3,19.1c0.2,7.1,0.5,11.2,1.1,12.4c0.5,1.2,1.5,2,2.9,2.5c1.4,0.5,5.4,0.9,12,1.1
		l0.7,0.6v4.1l-0.8,0.7c-9.2-0.5-17.2-0.8-24-0.8c-4.6,0-12.5,0.3-23.5,0.8l-0.8-0.7v-4l0.7-0.7c6.2-0.2,10-0.5,11.5-0.9
		c1.5-0.4,2.5-1.2,3.2-2.2c0.6-1,1-3.1,1.1-6.2c0.1-3.1,0.3-11.6,0.4-25.7v-61.9l-29.1,60.9c-7.3,15.2-13.7,29.6-19.2,43h-3.3
		c-3.2-7.3-5.7-13-7.8-17.4l-40.3-83.8v59c0,5.5,0.1,11.9,0.2,19c0.1,7.2,0.5,11.3,1.1,12.4c0.6,1.1,1.5,2,3,2.5
		c1.4,0.6,5.4,0.9,12,1l0.7,0.7v4.1l-0.8,0.8l-5.4-0.3c-5.6-0.3-10.4-0.4-14.3-0.4c-1.8,0-8.5,0.2-20.2,0.7l-0.7-0.7v-4.1l0.7-0.8
		c6.2-0.1,10-0.4,11.5-0.8s2.5-1.2,3.2-2.3c0.6-1.1,1-3.1,1.1-6c0.1-2.9,0.2-11.6,0.4-25.9v-38.6c0-5.1-0.1-11.3-0.2-18.7
		c-0.1-7.3-0.5-11.6-1-12.7c-0.5-1.2-1.5-2-2.9-2.6c-1.4-0.6-5.4-0.9-12-1l-0.7-0.7v-4.1l0.8-0.8c3.9,0.3,9.1,0.4,15.7,0.4
		c6.2,0,11.6-0.1,16.2-0.4c4.7,10.9,9.3,20.8,13.6,29.6l32,65.7l28.9-60.2c7.8-16.3,13.1-28,15.8-35.1c5.4,0.3,10.7,0.4,15.9,0.4
		C1271.9,892.2,1277.4,892.1,1283.8,891.8z"/>
	<path d="M1295.2,981.8l0.7-0.7h4.1l0.7,0.7c0.3,7.2,0.7,11.6,1.1,13.2c0.5,1.6,2,3.3,4.6,5.1c2.6,1.8,6,3.2,10.2,4.3
		c4.2,1.1,8.5,1.7,12.9,1.7c6,0,11.3-1.1,16.1-3.3c4.8-2.2,8.5-5.4,11.1-9.7c2.6-4.2,4-9,4-14.3c0-3.7-0.6-6.9-1.9-9.7
		c-1.3-2.8-3-5-5.3-6.6c-2.3-1.7-4.9-2.9-7.8-3.7c-2.9-0.8-7.3-1.7-13.1-2.7c-5.6-0.9-10-1.7-13.2-2.4c-3.2-0.7-6.3-1.9-9.5-3.4
		c-3.2-1.5-5.8-3.4-7.9-5.8c-2.1-2.3-3.8-5.2-5.1-8.6c-1.3-3.4-1.9-7-1.9-10.9c0-10.5,3.7-19.1,11-25.9c7.3-6.7,17.1-10.1,29.5-10.1
		c4.9,0,10.2,0.6,16,1.8c5.8,1.2,11,3,15.7,5.4l0.6,1c-1.2,5.2-2,12.5-2.3,22.1l-0.8,0.7h-4.4l-0.7-0.6c-0.1-6.8-0.3-11-0.5-12.7
		c-0.2-1.7-2.8-3.9-7.7-6.5c-4.9-2.6-10.2-3.9-15.9-3.9c-4.8,0-9.3,1-13.4,2.9c-4.2,1.9-7.3,4.9-9.5,9c-2.1,4.1-3.2,8.3-3.2,12.6
		c0,3.3,0.6,6.3,1.9,8.8c1.3,2.6,3,4.6,5,6.1c2.1,1.5,4.4,2.6,7.2,3.3c2.7,0.7,7.7,1.6,15,2.7c10,1.4,17.2,3.1,21.7,5.1
		c4.5,2,8.2,5.2,10.9,9.5c2.7,4.3,4.1,9.6,4.1,15.7c0,12-4.9,22-14.6,30c-9.8,8-21.6,12-35.5,12c-11.6,0-21.9-2.1-30.6-6.2l-0.5-1.1
		C1294.5,1003,1294.9,994.8,1295.2,981.8z"/>
</g>
</svg>
