<?xml version="1.0" encoding="utf-8"?>
<!-- Generator: Adobe Illustrator 25.2.0, SVG Export Plug-In . SVG Version: 6.00 Build 0)  -->
<svg version="1.1" id="Слой_1" xmlns="http://www.w3.org/2000/svg" xmlns:xlink="http://www.w3.org/1999/xlink" x="0px" y="0px"
	 viewBox="0 0 864 864" style="enable-background:new 0 0 864 864;" xml:space="preserve">
<style type="text/css">
	.st0{fill:#010202;}
</style>
<path d="M835.4,475.9c-7.2,1.7-14.7,3.4-21.9,5.7c-0.2,0.1-0.4-0.1-0.4-0.3c1.4-12.4,2.1-24.9,2.1-37.5c0-90.2-35.9-175-101-238.8
	c0,0-0.1-0.1-0.1-0.1c-5.3-6.5-10.8-12.9-16.6-19c-60.9-64.9-142-100.7-228.2-100.7c-73.9,0-144,26.3-200.9,74.7
	c-0.2,0.2-0.6-0.1-0.4-0.3c11.8-24.4,3.7-52.6-2.7-77.6c-0.8-3.1-4.9-2.4-5,0.7c-0.6,11.7-2.8,23.1-6.5,34
	c-3.7,11.1-9.4,21.1-15.3,30.9c-10.4,17.3-21.3,37.4-16.5,58.9c0,0.1,0,0.1,0,0.2c-1,1.7-2,3.4-2.9,5.1c0,0,0,0,0,0.1
	c-1.1,1.5-2.2,3-3.4,4.4c0,0,0,0,0,0c-17.1,18.3-31.9,38.2-44.3,59.4c-0.1,0.2-0.5,0.1-0.5-0.1c0.1-5.3-0.2-10.6-1.3-15.9
	c-2.3-11.4-7.4-22.1-11.9-32.7c-5.1-11.7-10.3-23.3-17.6-33.8c-1.1-1.6-3.6-0.2-2.6,1.5c6.4,11,2.8,24.3-2.5,35
	c-5.2,10.7-11.5,20.8-15.2,32.2c-1.7,5.2-5.3,18-2.9,33.7c0.8,5.2,4,22,16,36.3c2.7,3.2,5.8,6.3,8.8,9.5c0.1,0.1,0.1,0.2,0.1,0.3
	c-5.4,16.7-9.4,33.8-12.1,51.2c0,0.3-0.5,0.3-0.5,0c-2.3-14.8-3.4-22.5-3.6-24.3c-1.8-13.2-4.3-26.3-8.9-38.9
	c-0.5-1.5-3.1-1.5-3.6,0.1c-2,7-4.8,13.7-8.8,19.9c-4,6.2-9.1,11.5-13.6,17.4c-8.8,11.5-12.9,25.4-14.2,39.6
	c-1.3,15,1,30.3,8.1,43.7c6.5,12.5,16.3,23.1,27.7,31.5c5.4,4,11.1,7.5,17.1,10.5c0.1,0,0.1,0.1,0.1,0.2
	c2.6,17.4,6.5,34.5,11.8,51.2c0.1,0.3-0.4,0.5-0.5,0.2c-1.7-3.4-3.3-6.9-4.7-9.8c-5.1-10.2-12-21.3-17.3-27.8
	c-14.2-17.2-34.5-26.5-55.7-31.9c-12.1-3.1-24.5-4.9-36.8-7c-1.8-0.3-3,2-1.3,3.1c10.1,6.3,19.4,14,25.6,24.3
	c6.1,10.1,9.7,21.5,16.6,31.2c11.8,16.8,29.2,29.2,48.7,35.6c10.8,3.5,22.1,5.2,33.4,4.7c0.1,0,0.2,0.1,0.3,0.2
	c11.5,28.8,27,56,46.4,80.9c0.2,0.3-0.2,0.6-0.4,0.4c-10.2-10.3-20.7-20.2-32.4-27.4c-32.2-19.8-65.6-8.7-95,8.2
	c-0.2,0.1-0.1,0.5,0.1,0.5c25.1,0.3,50.1,7.5,74,20.9c25.1,14.1,53.8,34,80.8,28.4c0.1,0,0.2,0,0.3,0.1c1.3,1.3,2.5,2.5,3.8,3.8
	c65.1,63.8,151.6,98.9,243.7,98.9c87.4,0,169.8-31.7,233.6-89.4c0.1-0.1,0.2-0.1,0.2-0.1c3,0.6,6.1,1.3,9,2
	c11.2,2.5,22.5,4,33.7,0.5c10.9-3.5,20.4-10.6,28.1-18.9c8.2-8.8,13.9-19.1,20.8-28.9c6.8-9.7,16.7-19.4,29.4-19.1c2,0,2-2.8,0.1-3
	c-12.7-1.4-25.4-0.3-38.1,1c-9.3,0.9-18.8,1.6-28,3.7c-0.2,0.1-0.4-0.2-0.3-0.4c24.6-36.7,41.5-77.5,49.9-120.6c0,0,0-0.1,0-0.1
	c2.3-3.8,4.9-7.4,7.8-10.8c5.8-6.8,12.5-12.6,20.1-17.3C839,478.6,837.8,475.4,835.4,475.9z M809.6,443.8c0,13.5-0.9,26.9-2.5,40
	c0,0.1-0.1,0.2-0.2,0.2c-8,3.2-15.3,7.6-21,14.1c-0.2,0.2-0.5,0.1-0.5-0.2c4.3-22.5,6.5-45.7,6.5-69.2c0-63.9-16.3-125.1-46.7-178.3
	c-0.2-0.3,0.3-0.6,0.5-0.3C785.9,304.7,809.6,371.6,809.6,443.8z M725.3,646.6c-6.9,5.4-13.4,11.4-20,17.3c-0.3,0.2-0.6-0.1-0.4-0.4
	c8.1-9.2,15.7-18.8,22.7-28.7c4-5,8.1-10.9,12-17.5c2-3.4,3.9-6.8,5.6-10.1c9.8-17,18.1-34.9,24.8-53.4c0-0.1,0.1-0.1,0.2-0.2
	c12.9-3.7,21.2-14.3,27.7-25.6c0.2-0.3,0.6-0.1,0.5,0.2c-10.1,37.6-26.8,72.6-48.8,103.8c0,0-0.1,0.1-0.1,0.1
	C740.8,635.5,732.8,640.8,725.3,646.6z M671.5,168.6c0.3,0.2-0.1,0.6-0.3,0.4c-58.1-40.9-127.6-62.9-200.5-62.9
	c-77.9,0-151.9,25.2-212.2,71.6c-0.3,0.2-0.6-0.2-0.4-0.4c56.1-53.7,130.2-86.4,211.4-86.4C546.1,90.9,616.6,120.1,671.5,168.6z
	 M220.3,220.2C220.3,220.1,220.3,220.1,220.3,220.2c62.1-66.6,151.3-108.4,250.3-108.4c93.2,0,177.8,37.1,239.2,96.9c0,0,0,0,0,0
	c47.7,59.1,76.6,136,76.6,219.9c0,47.6-9.3,92.9-26,134c0.3-2,0.4-4,0.5-5.8c0.9-23.4-9.4-46-5.8-69.5c0.2-1.5-1.6-3.2-2.9-1.7
	c-8.4,9.7-15.9,20.1-21.9,31.5c-10.6,20.2-16.9,42.6-18,65.3c-1.2,23.5,1.8,33.6,1.9,33.9c0,0,0,0,0,0c1.1,6.6,3.6,19.4-0.3,27.1
	c0,0,0,0,0,0.1c-58.2,75.1-146.1,123-244.4,123c-98.2,0-186.1-47.9-244.3-122.8c0,0-0.1-0.1-0.1-0.1c-0.8-4.6,1.3-10.3,1.6-14.5
	c0.6-6.9-0.3-14-2-20.7c-3.7-14.3-10.5-27.5-15.5-41.4c-9.6-26.7-13.2-58.6,3.4-83.3c7.7-11.5,18.5-21.1,21.7-35.1
	c0.4-1.7-1.5-2.6-2.7-1.6c-12.8,10.6-29,16.1-41.2,27.5c-6.5,6.1-10.4,13.7-13.8,21.9c-1.9,4.8-3.8,9.5-6.2,14
	c-1.8,3.4-3.7,6.7-5.6,10c-0.1,0.2-0.5,0.2-0.5-0.1c-5.8-21.9-9.6-44.7-11.1-68.2c0-0.1,0-0.1,0.1-0.2
	c14.9-19.2,36.8-31.3,52.3-49.8c7.6-9.1,13.7-19.5,15.8-31.3c2.2-12.1,1.1-24.4,0-36.6c-1.2-14.1-2.3-28.1,1.9-41.8
	c0.4-1.4-1.5-2.6-2.5-1.5c-7.8,9.5-16.4,18.4-25.2,27c-8.3,8-16.8,15.7-23.6,25.1c-6.6,9.2-11.4,19.5-14.8,30.2
	c-0.1,0.3-0.6,0.2-0.5-0.1c4-25.9,10.8-50.7,20-74.2c0.1-0.1,0.3-0.3,0.4-0.4c6.9-9.3,17.6-14.2,28-18.4c10.6-4.2,21-8.4,30.9-14.3
	c19.5-11.7,36.3-27.8,49.1-46.7c7.2-10.6,12.8-22.1,17.5-34.1c0.7-1.8-1.7-2.6-2.9-1.7c-19,14.2-43.8,15.8-64.1,27.6
	c-7.8,4.6-14.8,10.3-21,16.9C216.6,225.3,218.4,222.7,220.3,220.2z M184.5,267.3c-7,13.9-13,28.3-18.1,43.2
	c-0.2,0.5-0.8,0.3-0.7-0.2c1.4-6.2,2.8-12.4,3.7-18.7c0,0,0,0,0-0.1c4.5-8.4,9.3-16.6,14.4-24.6
	C184.1,266.5,184.8,266.8,184.5,267.3z M152,357c0.1,0.2,0.6,1.9,1.2,3.3c0,0,0,0.1,0,0.2c-4.2,22.2-6.3,45-6.3,68.2
	c0,17.9,1.3,35.5,3.8,52.8c0,0.3-0.4,0.4-0.5,0.1c-6.3-14.6-9.9-27.1-12.1-36.7c-1.8-7.9-3.2-16.4-5.2-29c0,0,0,0,0-0.1
	c2-23.7,6.6-46.6,13.4-68.6c0.1-0.2,0.4-0.3,0.5-0.1C149,350.3,150.9,353.5,152,357z M154.4,503.3c1.8,8.6,3.9,17.1,6.2,25.5
	c0,0.1,0,0.1,0,0.2c-4.5,10.5-6.6,21.9-6.2,33.1c0,0.3-0.4,0.4-0.5,0.1c-8.2-21.1-14.3-43.2-18.1-66c0-0.2,0.2-0.4,0.4-0.3
	c5.9,2.7,11.9,5.1,18.1,7.2C154.4,503.2,154.4,503.2,154.4,503.3z M470.6,775.9c-119.1,0-224-60.4-284.5-151.6
	c-0.2-0.3,0.1-0.6,0.4-0.4c3.1,2.2,6.3,4.3,9.5,6.3c8.3,5,16.8,9.7,23.9,16.4c0,0,0,0,0,0c6.7,8.7,13.8,17,21.3,25
	c60.9,64.9,142,100.7,228.2,100.7c75.6,0,147.1-27.5,204.7-78c0,0,0,0,0.1,0c6.9-3.9,14.5-4.3,22.1-3.5c0.2,0,0.3,0.3,0.2,0.5
	C636.5,743.8,557.3,775.9,470.6,775.9z"/>
<g>
	<path d="M387.2,397.5c-0.2-1.2-0.5-2.1-0.6-3c-1.1-5.7-0.7-11.3,0.8-16.9c1-3.6,2.4-7,4.1-10.4c1.8-3.5,3.8-6.8,5.9-10
		c1.1-1.8,2.3-3.6,3.4-5.4c0.8-1.4,1.5-2.9,2.2-4.4c0.4-0.9,0.6-1.8,0.7-2.8c0.3-1.6-0.4-2.8-1.7-3.7c-1-0.7-2.1-1.1-3.2-1.3
		c-1.6-0.3-3.2-0.6-4.9-0.9c-2-0.3-3.8-0.9-5.6-1.9c-0.1,0-0.2,0-0.4-0.1c-0.2,0.4-0.3,0.8-0.5,1.3c-4.1,12.1-9.1,23.9-14.8,35.3
		c-1.3,2.6-2.7,5.2-4.4,7.6c-1,1.5-2,2.9-3.4,4c-0.7,0.6-1.4,1.2-2.2,1.6c-1.6,0.9-3.2,0.6-4.5-0.7c-0.7-0.7-1.3-1.6-1.7-2.5
		c-0.9-1.9-1.5-4-1.9-6.1c-0.9-4.5-0.9-9.1-0.5-13.7c0.7-7.9,2.8-15.6,5.5-23.1c2-5.5,4-11,6-16.5c1.4-3.9,2.7-7.7,3.5-11.8
		c0.2-0.8,0.2-1.6,0.3-2.4c0-0.3-0.1-0.6-0.1-1c-0.4,0.1-0.8,0.1-1.1,0.2c-1,0.5-2,1.1-2.9,1.7c-2,1.4-3.8,3.1-5.4,4.9
		c-5.1,5.4-9.2,11.6-12.7,18.1c-4.2,7.9-7.3,16.2-9.5,24.8c-0.9,3.5-1.9,7-2.3,10.6c0,0.3-0.2,0.6-0.3,0.9c-0.2,0.4-0.7,0.6-1.1,0.5
		c-1.4-0.3-2.5-1-3-2.4c-0.4-1.2-0.6-2.5-0.6-3.8c0-1.6,0-3.2,0.1-4.8c0.7-8.2,2.3-16.3,4.1-24.4c1.1-4.7,2.1-9.3,3.1-14
		c0.3-1.6,0.6-3.3,0.7-4.9c0.1-0.9,0.1-1.8,0-2.7c-0.1-0.7-0.5-0.9-1.1-0.6c-0.6,0.3-1.2,0.5-1.7,0.9c-1,0.8-2.1,1.7-3,2.6
		c-2.5,2.5-4.7,5.2-6.7,8.1c-4.8,7.1-8.4,14.7-11.3,22.6c-1.1,2.9-2,6-2.6,9c-0.9,4.3-1.9,8.5-2.6,12.8c-0.7,4-1,8-0.5,12.1
		c0.2,1.3,0.4,2.5,0.9,3.7c0.4,1.1,1.1,1.8,2.4,1.7c0.3,0,0.5,0,0.8,0.1c0.5,0.1,0.7,0.5,0.5,1c-0.5,1.1-1.3,1.8-2.5,1.9
		c-1.2,0.1-2.2-0.2-3.1-0.9c-0.9-0.7-1.6-1.6-2.1-2.6c-1.1-2.2-1.6-4.5-1.9-6.9c-0.6-5.5-0.4-10.9,0.5-16.4c1-6.5,2.5-13,3.8-19.4
		c1.3-6.2,2.5-12.5,3.2-18.9c0.6-4.6,1-9.2,0.7-13.9c0-0.9-0.2-1.8-0.3-2.7c-0.1-0.8-0.3-1.6-0.9-2.1c-0.7-0.6-0.2-1.5,0.4-1.9
		c0.5-0.3,1.1-0.3,1.7-0.2c0.9,0.3,1.6,0.8,2.2,1.5c0.7,0.9,1.1,1.8,1.4,2.8c0.6,1.9,0.9,3.8,0.9,5.8c0.2,4,0,8.1-0.4,12.1
		c-0.5,4.8-1.1,9.6-2,14.4c0,0.1,0,0.3,0,0.7c0.4-0.8,0.6-1.4,0.9-2c2.1-5,4.5-9.8,7.3-14.4c1.6-2.6,3.3-5.1,5.2-7.4
		c1.7-2.1,3.6-4.1,5.8-5.7c0.8-0.6,1.7-1.1,2.6-1.5c2.2-0.9,4,0,4.9,2.2c0.4,1.1,0.6,2.2,0.6,3.3c0.1,2.2-0.2,4.5-0.5,6.7
		c-0.8,5.4-2,10.8-3.2,16.1c-0.5,2.2-0.9,4.5-1.5,7c0.6-0.7,0.8-1.3,1-1.9c1.8-4.8,4-9.4,6.4-13.9c3-5.5,6.5-10.7,10.7-15.5
		c2-2.3,4.2-4.6,6.6-6.4c1.2-0.9,2.5-1.7,3.9-2.5c0.9-0.5,1.9-0.8,2.9-0.9c2.2-0.3,4,0.8,4.7,2.9c0.5,1.6,0.4,3.3,0.1,4.9
		c-0.4,2.7-1.1,5.4-2,8.1c-1.8,5.3-3.6,10.6-5.4,15.9c-2.3,6.7-4.6,13.4-6.3,20.3c-1.1,4.4-2,8.9-2.3,13.5
		c-0.2,3.4-0.2,6.8,0.5,10.2c0.2,0.9,0.5,1.8,0.8,2.7c0.2,0.5,0.5,1,0.8,1.4c0.7,0.9,1.4,1.1,2.4,0.6c0.7-0.4,1.4-0.8,1.9-1.4
		c1-1,1.9-2.1,2.8-3.3c1.5-2,2.7-4.2,3.8-6.5c3.3-6.4,6.2-13.1,8.9-19.8c2.3-5.7,4.4-11.5,6.6-17.3c0.4-0.9,0.5-1.8,0.1-2.8
		c-0.6-1.7-0.1-3.2,1-4.6c0.4-0.5,0.8-0.8,1.4-1c0.7-0.3,1.4-0.1,1.9,0.4c0.4,0.3,0.6,0.8,0.2,1.3c-0.4,0.5-0.5,1.1-0.6,1.8
		c-0.1,0.5,0.2,0.9,0.6,1c0.5,0.2,1.1,0.4,1.7,0.5c1.8,0.2,3.7,0.4,5.6,0.6c1.6,0.2,3.3,0.4,4.8,1c0.8,0.3,1.5,0.6,2.2,0.9
		c4.1,2.2,6,6.1,5.3,10.7c-0.3,1.9-0.8,3.6-1.7,5.3c-0.9,1.8-1.8,3.5-2.9,5.2c-1.6,2.5-3.3,5-4.8,7.5c-1.6,2.6-3.2,5.3-4.7,8
		c-2.2,3.9-3.8,8.1-4.8,12.5c-0.9,4.1-1.1,8.3-0.5,12.5c0,0.2,0.1,0.3,0.1,0.5c0.5,0.3,1.1,0.4,1.6,0.5c1.7,0.4,3.4,0.8,5,1.6
		c0.7,0.3,1.3,0.7,1.9,1.2c1.8,1.5,1.8,3.5,0,4.9c-1.9,1.5-4.1,1.7-6.3,0.7c-1.6-0.7-2.7-2.1-3.6-3.5c-0.6-0.9-1-1.9-1.5-2.8
		c-0.7-0.2-1.4-0.1-2,0c-3.6,0.3-7,1.1-10.5,1.9c-7.8,2-15.5,4.5-23.2,7c-3.3,1.1-6.6,2.2-10,2.9c-3,0.6-6.1,1-9.2,0.6
		c-2.3-0.3-4.6-0.9-6.7-1.9c-3.4-1.6-6.7-3.5-9.8-5.7c-0.5-0.4-1-0.8-1.5-1.2c-0.5-0.4-0.8-1-0.8-1.6c0.5-0.3,0.7,0,1,0.2
		c2.1,1.5,4.3,2.7,6.6,3.8c4.9,2.5,10,3,15.2,1.7c3.8-0.9,7.5-2,11.2-3.2c6-1.9,12-3.6,18.2-4.8c4.6-0.9,9.3-1.8,14-2.3
		c1.6-0.2,3.2-0.2,4.8-0.2C386.1,397.5,386.5,397.5,387.2,397.5z M391.8,400.4c0.3,1.5,0.8,2.6,1.6,3.7c0.7,1,1.6,1.5,2.8,1.4
		c0.8-0.1,1.6-0.4,2.3-0.9c0.7-0.5,0.7-1.1,0.2-1.8c-0.1-0.2-0.3-0.3-0.5-0.4C396.3,401.1,394.2,400.5,391.8,400.4z"/>
	<g>
		<path d="M438.6,348.7c-0.3-0.2-0.5-0.4-0.7-0.5c-3-2.1-4.6-4.9-5.1-8.5c-0.5-3,0.2-5.8,1.5-8.5c1.7-3.6,4.3-6.6,7.7-8.7
			c1.9-1.2,4-2,6.2-2.3c2.4-0.3,4.7,0.1,6.4,2c1.1,1.2,1.6,2.6,1.8,4.2c0.1,1.2,0,2.4-0.4,3.6c-0.5,1.5-1.3,2.7-2.6,3.5
			c-1.3,0.9-2.7,1.5-4.2,1.9c-0.5,0.1-0.9,0.1-1.4,0.1c-0.2,0-0.5-0.1-0.7-0.3c-0.3-0.2-0.3-0.8,0.1-0.9c0.4-0.2,0.8-0.3,1.2-0.5
			c1-0.5,2-1,3-1.6c2.6-1.7,3-4.4,2.4-7c-0.4-1.7-1.7-2.5-3.4-2.8c-0.9-0.1-1.8-0.1-2.7,0.1c-2.2,0.5-4.1,1.4-5.9,2.7
			c-2.8,2-4.9,4.5-6.2,7.7c-2.2,5.2,0,11.2,4.4,13.9c0.8,0.5,1.6,0.8,2.6,0.7c0.7-0.1,1.4,0,2.1,0c0.6,0.1,1.2,0.3,1.7,0.8
			c0.2,0.2,0.1,0.7-0.2,0.8c-1,0.2-1.9,0.6-2.9,0.7c-1,0.1-1.8,0.5-2.7,1c-2.8,1.6-5.2,3.7-7.3,6.1c-1.8,2.1-3.4,4.4-4.5,6.9
			c-1.2,2.7-1.9,5.5-1.8,8.5c0.1,3,1.1,5.6,3.1,7.8c1.7,1.8,3.8,2.8,6.4,2.9c2,0.1,3.8-0.4,5.6-1.2c6.7-3.2,11.2-8.3,13.1-15.6
			c0.5-2,0.8-4.1,0.2-6.1c-0.2-0.8-0.5-1.5-1-2.2c-0.3-0.3-0.6-0.5-1-0.4c-0.4,0.1-0.7,0.1-1.1,0.2c-1.1,0.2-2.1,0-3.1-0.5
			c-0.9-0.4-1.3-1.2-1.1-1.9c0.2-0.7,1-1.4,1.9-1.4c0.6,0,1.3,0.1,1.9,0.3c0.7,0.2,1.4,0.1,2-0.3c1.7-1,3.2-2.2,4.5-3.5
			c1.7-1.6,3.1-3.3,4.6-5.1c1.3-1.5,2.7-3,4.1-4.5c1.6-1.7,3.4-3,5.4-4.2c1.2-0.7,2.4-1.1,3.7-1.4c1.6-0.3,3.1-0.1,4.5,0.5
			c0.6,0.2,1.1,0.6,1.5,1.2c0.4,0.5,0.5,1.2,0.3,1.8c-0.2,0.7-0.9,1.1-1.5,0.7c-1.4-0.8-2.8-0.6-4.1-0.1c-2.6,0.9-4.8,2.5-6.9,4.3
			c-2.4,2-4.6,4.3-6.8,6.5c-1.6,1.6-3.1,3.2-4.9,4.5c-0.6,0.5-1.3,0.9-2,1.3c-0.2,0.1-0.4,0.3-0.6,0.4c0,0.2,0,0.3,0,0.4
			c1.7,2.7,2.1,5.6,1.6,8.7c-1,6.5-4.3,11.6-9.3,15.7c-1.9,1.6-4,2.9-6.3,3.7c-5.4,1.9-10.2,1-14.3-3c-2.4-2.4-3.7-5.2-4.2-8.6
			c-0.5-3.4,0.1-6.6,1.4-9.7c1-2.5,2.5-4.7,4.2-6.8c1.8-2.2,3.9-4.2,6.2-5.9c0.8-0.6,1.7-1.1,2.5-1.7
			C437.9,349.1,438.2,349,438.6,348.7z"/>
	</g>
	<g>
		<path d="M625.5,360.6c-0.7-1.4-3-4.6-3.8-5.4c-0.2,0.3-0.4,0.5-0.5,0.8c-4.4,8.5-9.5,16.5-15.1,24.2c-1.5,2.1-3.2,4.1-4.9,6.1
			c-1,1.2-2.2,2.3-3.5,3.2c-0.9,0.7-1.9,1.2-3,1.6c-2.1,0.7-4,0.3-5.6-1.2c-1.3-1.1-2.1-2.5-2.7-4.1c-0.7-1.9-1-3.8-1.1-5.8
			c-0.2-4.3,0.5-8.4,2-12.4c1.3-3.3,2.8-6.5,4.5-9.7c1-1.8,2-3.6,3-5.5c0.6-1.1,1.2-2.3,1.6-3.5c0.8-2.1,0.5-2.7-1.4-3.7
			c-0.9-0.4-1.9-0.8-2.8-1.2c-1.2-0.6-2.4-1.1-3.6-1.8c-2.1-1.2-4-2.9-5.3-5c-0.1-0.2-0.3-0.3-0.5-0.6c-0.2,0.5-0.4,1-0.6,1.4
			c-3.2,8.4-6.4,16.8-9.6,25.2c-1.1,2.9-2.4,5.7-3.8,8.5c-0.9,1.8-2,3.5-3.1,5.2c-0.7,1.1-1.6,2.1-2.7,3c-2.3,1.9-4.6,1.7-6.5-0.6
			c-0.9-1.1-1.6-2.3-2.1-3.6c-1.1-2.7-1.8-5.4-2.2-8.3c-0.8-5.3-0.6-10.6,0.2-15.9c1-7,2.8-13.9,4.8-20.7c1.1-3.7,2.1-7.4,3.2-11
			c0.5-1.9,0.9-3.8,1.3-5.8c0.2-1,0.3-2.1,0.1-3.3c-0.4,0.1-0.7,0-0.9,0.2c-1.1,0.6-2.2,1.2-3.1,1.9c-2.5,1.8-4.7,4-6.8,6.2
			c-5.5,6-9.7,12.8-13.1,20.1c-3.6,7.9-6.3,16-8.3,24.4c-0.7,2.9-1.3,5.7-1.9,8.6c0,0.2-0.1,0.3-0.1,0.5c-0.2,0.7-0.3,1.4-1,1.7
			c-0.9,0.4-1.8,0.4-2.6,0c-0.9-0.4-1.5-1.1-2-2c-0.6-1.1-0.8-2.3-1-3.5c-0.3-2.5-0.2-5,0.2-7.5c0.9-6.8,2.5-13.4,4.5-19.9
			c1.7-5.8,3.6-11.5,5.4-17.2c1.4-4.4,2.7-8.9,3.5-13.4c0.2-0.8,0.2-1.7,0.3-2.5c0-0.1-0.1-0.3-0.1-0.5c-0.3,0.1-0.6,0.2-0.9,0.3
			c-1.1,0.8-2.2,1.5-3.2,2.4c-3.2,2.8-5.9,6.1-8.5,9.5c-5.5,7.4-10,15.4-13.7,23.9c-0.4,0.9-0.7,1.9-1,2.9
			c-1.4,6.3-3.2,12.5-4.9,18.7c-1.2,4.4-2.2,8.8-2.5,13.3c-0.1,1.8-0.2,3.5,0.1,5.3c0.1,0.9,0.5,1.7,1.2,2.4
			c0.2,0.2,0.4,0.5,0.6,0.7c0.5,0.7,0.5,1.4-0.1,2c-1,1-2.2,1.3-3.5,0.9c-1.2-0.3-2.2-1.1-2.9-2.1c-0.7-1-1.3-2.1-1.5-3.3
			c-0.3-1.5-0.6-2.9-0.7-4.4c-0.2-3.2,0.1-6.4,0.4-9.6c1-8.1,2.9-16,5.1-23.9c1.4-4.9,2.6-9.8,3.5-14.7c0.9-4.7,1.5-9.4,1.4-14.1
			c0-1.6-0.3-3.3-0.5-4.9c-0.2-1.5-0.8-2.8-1.8-4c-0.2-0.2-0.3-0.4-0.5-0.7c0.4-1.1,1.2-1.6,2.3-1.7c0.9-0.1,1.8,0.2,2.6,0.7
			c1.3,0.8,2.2,1.9,2.8,3.2c1.1,2.1,1.6,4.3,1.8,6.6c0.4,3.1,0.4,6.3,0.1,9.4c0,0.6-0.1,1.3-0.1,2c0.6-0.3,0.7-0.8,0.9-1.2
			c1.6-2.9,3.3-5.7,5.1-8.5c3.1-4.5,6.5-8.8,10.6-12.5c1.3-1.2,2.8-2.3,4.3-3.3c1.1-0.6,2.3-1.2,3.6-1.3c2.4-0.3,4.4,0.8,5.5,3
			c0.6,1.4,0.8,2.9,0.8,4.4c0,2.1-0.3,4.2-0.7,6.3c-0.7,4-1.8,7.9-2.9,11.8c-0.1,0.5-0.2,1-0.5,1.8c0.7-0.7,1-1.3,1.3-1.9
			c2.9-4.9,6.3-9.4,10.3-13.3c1.9-1.9,4-3.7,6.3-5.2c1.2-0.8,2.5-1.6,3.9-2.1c0.9-0.3,1.8-0.6,2.8-0.6c2.2,0,3.8,1.2,4.4,3.2
			c0.2,0.8,0.3,1.6,0.3,2.4c0.1,2.1-0.3,4.2-0.9,6.3c-1.2,4.8-2.5,9.7-3.8,14.5c-1.6,5.9-3.3,11.8-4.5,17.8
			c-1,5.2-1.8,10.5-1.7,15.8c0,2.6,0.3,5.2,0.9,7.8c0.3,1.3,0.7,2.6,1.4,3.7c1.2,2.2,2.5,2.5,4.4,0.7c1.2-1.1,2.1-2.4,2.9-3.8
			c1.3-2.1,2.5-4.4,3.4-6.7c1.9-4.8,3.9-9.6,5.7-14.4c2.3-6,4.4-12,6.6-18c0.4-1.1,0.6-2.1,0.5-3.3c-0.3-3.1,0.6-5.9,2.7-8.2
			c0.4-0.4,0.8-0.7,1.2-1c0.2-0.2,0.6-0.3,0.9-0.3c0.5-0.1,1,0.3,1,0.8c0,0.5-0.1,0.9-0.3,1.4c-0.4,1.3-0.7,2.7-0.8,4.1
			c-0.2,3.1,0.8,5.8,3.2,7.8c1.1,0.9,2.3,1.7,3.5,2.5c1.2,0.7,2.4,1.3,3.7,2c1,0.6,2,1.2,2.9,2c1.4,1.4,1.9,3,1.7,4.9
			c-0.1,1.1-0.4,2.2-0.9,3.2c-0.7,1.4-1.3,2.9-2.1,4.3c-1.4,2.6-2.9,5.1-4.3,7.6c-1.6,2.9-3.1,5.9-4.2,9.1c-1,3-1.5,6.1-1.4,9.3
			c0,1.4,0.2,2.8,0.6,4.1c0.3,1,0.8,2,1.6,2.8c0.9,1,2,1.3,3.3,0.9c1-0.3,1.9-0.8,2.7-1.4c1.2-1,2.3-2,3.4-3.2
			c1.4-1.6,2.7-3.2,3.9-4.9c5.7-8.2,10.9-16.8,15.5-25.7c1.1-2.2,0.9-1.6,0-3.5c-1.3-2.7-2.3-5.5-2.7-8.5c-0.2-2.1-0.1-4.1,0.5-6.2
			c0.6-1.9,1.7-3.6,3.1-4.9c0.8-0.8,1.8-1.4,2.9-1.7c1.7-0.5,3.1,0.1,3.9,1.6c0.4,0.7,0.6,1.5,0.7,2.3c0.2,2.1-0.1,4.1-0.5,6.2
			c-0.6,2.5-1.3,5-2.2,7.5c-0.2,0.4-0.3,0.9-0.5,1.4c2.1,3.5,4.7,6.7,7,10c0.4,0,0.8-0.1,1.2-0.1c3.2-0.3,6.3,0.2,9.2,1.3
			c0.9,0.3,1.8,0.9,2.6,1.4c0.7,0.5,1.2,1.2,1.5,2c0.4,1.3,0,2.3-1.4,3.1c-0.1-0.3-0.3-0.5-0.3-0.8c0.1-1.4-0.8-2.2-2-2.6
			c-0.8-0.3-1.7-0.6-2.6-0.8c-1.9-0.3-3.9-0.6-5.8-0.1c-0.3,0.4,0.1,0.7,0.2,1c1.1,2,2,4,2.6,6.2c0.9,3,1.2,6,0.6,9.1
			c-0.6,2.7-1.8,5-3.6,7c-2.9,3.2-6.4,5.5-10.7,6.2c-1,0.2-2,0.2-3,0c-2.6-0.3-4.5-1.7-5.8-4c-1-1.9-1.4-3.9-1.5-6
			c-0.1-3.6,0.7-7.1,2.4-10.3c2.2-4.2,5.3-7.7,9.5-10c0.2-0.1,0.4-0.2,0.5-0.3C625.3,360.8,625.4,360.7,625.5,360.6z M627.5,363.5
			c-6,2.6-10.1,6.8-11.6,13.1c-0.5,2.1-0.5,4.2,0,6.3c0.3,1.2,0.7,2.2,1.5,3.2c0.8,1,1.8,1.5,3,1.5c1.3,0,2.4-0.3,3.5-0.9
			c2.5-1.3,4.3-3.2,5.8-5.5c1.6-2.4,2.2-5.1,1.7-7.9C631,369.7,629.5,366.6,627.5,363.5z M623.1,345.4c0.1-0.1,0.2-0.2,0.2-0.4
			c0.8-2.2,1.5-4.4,1.8-6.8c0.2-1.1,0.3-2.3,0.1-3.8c-0.2-1.6-0.6-1.8-0.7-1.9c-0.3-0.1-0.7,0.3-1,0.6c-0.2,0.2-0.4,0.4-0.4,0.5
			c-1,1.2-1.6,2.7-1.8,4.2c-0.4,2.6,0.2,5.1,1.5,7.4C622.8,345.3,623,345.4,623.1,345.4z"/>
		<g>
			<path d="M625.1,409.6c-0.5-1.3-1.6-1.9-2.7-2.5c-3.3-1.6-6.7-2.6-10.3-3.2c-7.1-1.2-14.2-1.6-21.3-1.4c-8.3,0.2-16.6,1-24.8,2.2
				c-9.3,1.4-18.5,3.4-27.7,5.4c-5.1,1.1-10.3,2.2-15.5,2.9c-3.4,0.5-6.8,0.7-10.2,0.5c-1.7-0.1-3.4-0.4-5-1c-1.6-0.5-3-1.4-4.1-2.6
				c-1.1-1.2-1.7-2.6-1.6-4.2c0-0.6,0.2-1.1,0.5-1.7c0.2-0.5,0.7-0.8,1.2-1c0.9-0.2,1.6,0.3,1.6,1.2c0,0.1,0,0.1,0,0.2
				c-0.4,2.1,0.8,3.3,2.6,4.1c1.1,0.5,2.2,0.8,3.4,1c2.1,0.3,4.1,0.3,6.2,0.2c6.4-0.3,12.7-1.4,19-2.5c8.5-1.5,16.9-3.1,25.4-4.5
				c6.4-1.1,12.8-1.7,19.2-2.1c5.2-0.3,10.3-0.4,15.5-0.2c5.9,0.1,11.8,0.7,17.6,1.9c3,0.6,5.8,1.6,8.5,3c0.9,0.5,1.7,1.1,2.5,1.7
				c0.4,0.3,0.7,0.8,0.9,1.3C626.1,408.7,626,409.2,625.1,409.6z"/>
		</g>
	</g>
</g>
<g id="Example">
	<path d="M312.4,458.8l33.7,91.6h-16.2l-14.6-40h-20.5l-13,40h-4.6l32.8-91.6H312.4z M295.8,507.1h18.3l-9.1-25.2L295.8,507.1z"/>
	<path d="M385.6,458.8c26.7,0,46.3,18.3,46.3,45.1c0,26.4-19.8,46.4-46.3,46.4h-29.7v-91.6H385.6z M385.6,547.2
		c22.3,0,31.3-24.4,31.3-43.2c0-18.9-8.9-42.2-31.3-42.2h-14.7v85.4H385.6z"/>
	<path d="M475.2,458.8l33.7,91.6h-16.2l-14.6-40h-20.5l-13,40H440l32.8-91.6H475.2z M458.7,507.1h18.3l-9.1-25.2L458.7,507.1z"/>
	<path d="M582,458.8H597v91.6h-15v-81.8l-28.5,79.6H551l-29.2-79.5v81.7h-3.1v-91.6h15.7l24.1,66.2L582,458.8z"/>
	<path d="M607.4,532.4h11.3c4.2,8.7,11.2,16.8,21.6,16.8c9.3,0,17-6.7,17-16.1c0-22.8-46.3-23.8-46.3-52.3
		c0-17.1,15.2-23.8,30.2-23.8c14.9,0,22.8,6.1,29.4,19.1h-13.1c-3.8-7.8-8.4-16.1-18.3-16.1c-8.7,0-13.3,7.4-13.3,15.4
		c0,24.8,46.6,25.2,46.6,54.4c0,17-18.3,22.6-32.5,22.6C624.7,552.3,614.8,545.6,607.4,532.4z"/>
</g>
<g>
	<path d="M433.7,619.1h-7.9v7.4h8.9v2.2h-11.5v-20.4h11v2.2h-8.4v6.5h7.9V619.1z"/>
	<path d="M437.5,626c0.8,0.5,2.2,1.1,3.5,1.1c1.9,0,2.9-1,2.9-2.2c0-1.3-0.8-2-2.7-2.7c-2.6-0.9-3.9-2.4-3.9-4.2
		c0-2.4,1.9-4.3,5.1-4.3c1.5,0,2.8,0.4,3.6,0.9l-0.7,1.9c-0.6-0.4-1.6-0.8-3-0.8c-1.6,0-2.5,0.9-2.5,2c0,1.2,0.9,1.8,2.8,2.5
		c2.5,1,3.9,2.2,3.9,4.4c0,2.6-2,4.4-5.5,4.4c-1.6,0-3.1-0.4-4.1-1L437.5,626z"/>
	<path d="M453.1,609.8v4.2h3.8v2h-3.8v7.9c0,1.8,0.5,2.8,2,2.8c0.7,0,1.2-0.1,1.5-0.2l0.1,2c-0.5,0.2-1.3,0.4-2.4,0.4
		c-1.2,0-2.2-0.4-2.9-1.1c-0.8-0.8-1-2.1-1-3.8v-8h-2.3v-2h2.3v-3.5L453.1,609.8z"/>
	<path d="M459.2,627.1c0-1.1,0.8-1.9,1.8-1.9c1.1,0,1.8,0.8,1.8,1.9c0,1.1-0.7,1.9-1.8,1.9C460,629,459.2,628.2,459.2,627.1z"/>
	<path d="M471.7,628.7v-1.6l2.1-2c5-4.8,7.3-7.3,7.3-10.3c0-2-1-3.9-3.9-3.9c-1.8,0-3.3,0.9-4.2,1.7l-0.8-1.9c1.4-1.2,3.3-2,5.6-2
		c4.2,0,6,2.9,6,5.7c0,3.6-2.6,6.6-6.8,10.6l-1.6,1.5v0.1h8.9v2.2H471.7z"/>
	<path d="M500.4,618.6c0,6.7-2.5,10.4-6.9,10.4c-3.9,0-6.5-3.6-6.5-10.1c0-6.6,2.8-10.2,6.9-10.2C498,608.7,500.4,612.4,500.4,618.6
		z M489.7,619c0,5.1,1.6,8,4,8c2.7,0,4-3.2,4-8.2c0-4.9-1.2-8-4-8C491.4,610.7,489.7,613.6,489.7,619z"/>
	<path d="M502.8,628.7v-1.6l2.1-2c5-4.8,7.3-7.3,7.3-10.3c0-2-1-3.9-3.9-3.9c-1.8,0-3.3,0.9-4.2,1.7l-0.8-1.9c1.4-1.2,3.3-2,5.6-2
		c4.2,0,6,2.9,6,5.7c0,3.6-2.6,6.6-6.8,10.6l-1.6,1.5v0.1h8.9v2.2H502.8z"/>
	<path d="M524.2,611.5L524.2,611.5l-3.5,1.8l-0.5-2l4.3-2.3h2.3v19.7h-2.6V611.5z"/>
</g>
<path class="st0" d="M271.9,434.9L271.9,434.9c0,1.1,0.9,1.9,1.9,1.9l402.2,0.9c1.1,0,1.9-0.9,1.9-1.9l0,0c0-1.1-0.9-1.9-1.9-1.9
	L273.8,433C272.7,433,271.9,433.8,271.9,434.9z"/>
</svg>
