<?xml version="1.0" encoding="utf-8"?>
<!-- Generator: Adobe Illustrator 23.0.2, SVG Export Plug-In . SVG Version: 6.00 Build 0)  -->
<svg version="1.1" id="Слой_1" xmlns="http://www.w3.org/2000/svg" xmlns:xlink="http://www.w3.org/1999/xlink" x="0px" y="0px"
	 viewBox="0 0 864 864" style="enable-background:new 0 0 864 864;" xml:space="preserve">
<path d="M130.7,270.7c-0.1,0.2-0.4,1-0.5,1.8c-0.6,3.2-2.9,8.6-5.5,13c-1.8,3.1-5.6,8.2-8.5,11.7c-1.4,1.6-4.8,5.4-7.7,8.4
	C95.6,319,92,323.3,88.6,329c-3,5.1-5.9,13.5-7.2,20.7c-1.1,6.2-1.3,9.3-1.3,18.3c0,12.7,0.8,20.6,3.2,30c1.8,7.2,3,10.8,7.2,20.6
	c3.4,8.1,4.8,11,7.5,15.5c1.6,2.7,2.1,3.8,2.7,5.9l0.8,2.6l0,11.4c0,6.3,0.2,13.5,0.3,16c0.5,8.9,1.6,19.6,2.7,26.2
	c0.2,1.2,0.3,2.1,0.3,2.2c-0.1,0.1-10.6-3.4-13-4.3c-2.9-1.1-2.9-1.2-3.9-4.4c-0.5-1.5-0.6-2.1-0.6-7.4c0-6.3-0.2-7.4-1.5-9.7
	c-1.1-2-4.9-5.3-10.8-9.3c-6.4-4.3-9.4-6.8-14.7-12.3c-4-4.1-5.9-6.5-7.7-9.7c-1.4-2.5-1.6-3.1-2-4.5c-0.3-1.3-0.6-1.7-1.3-1.7
	c-0.8,0-1.1,0.8-0.8,2.3c0.1,0.7,0.3,3.7,0.4,6.6s0.3,6.3,0.4,7.5c0.7,6.2,4.3,16.1,7.9,21.5c2.6,3.9,6.5,8.1,9.8,10.6
	c4.1,3.1,10.2,6.5,18.3,9.9c2.3,1,3.9,1.8,3.6,1.8c-1.1,0-5.5,1.3-7.8,2.3c-2.2,1-11.3,5.5-16.6,8.3c-1.4,0.7-3.5,2-4.8,2.9
	c-3.1,2-3.8,2.3-6.6,2.6c-2.6,0.3-3.2,0.5-3.2,1.2c0,1.9,5.1,3.9,10.1,3.9c2.3,0,6.6-0.8,9.6-1.6c2.3-0.7,4.1-1.6,6.4-3.5
	c1.6-1.3,2-1.8,4.7-5.5c2.9-3.9,6-6.1,10.2-7.1c3-0.8,7.1-0.6,9.5,0.5c0.6,0.2,1.8,0.7,2.7,1.1c0.9,0.4,1.7,0.7,1.8,0.8
	c0.1,0.1,0.6,2.5,1.2,5.4c2.7,13.3,6.8,27.7,11.7,40.9c4.9,13.2,8,20.5,11.7,27.3c4.3,7.9,7.2,11.9,8.1,11.4c0.1-0.1,0-0.5-0.4-1
	c-2.3-2.9-6.7-11.7-10.2-20.4c-5.4-13.5-14.2-41.1-14.2-44.5c0-0.5,0.2-2.2,0.5-3.7c1.1-6.7,0.1-11.1-3.2-14.4l-1.5-1.5l-0.4-2.9
	c-0.6-3.6-1.3-9.3-1.8-14c-1.3-13.1-1.8-33.1-0.9-41c0.8-7.8,1.2-10.2,1.5-10.5c0.5-0.6,3.3-2,5.6-2.8c4.8-1.7,10.6-2.4,19.1-2.4
	c6.2,0,9.4,0.3,13.5,1.4c11.6,3,13,3.3,20.5,3.3c4,0,6.4-0.1,8.6-0.4c11.6-1.6,22.2-5,34.3-11.1c21.1-10.6,35.7-26.3,43.9-47
	c1.4-3.6,4.1-12.5,5.7-18.4c1.5-6.1,1.9-10,1-10.6c-0.3-0.2-1,0.4-4.4,3.6c-4.2,4.1-9.3,8.6-12.4,11c-9.2,6.9-25.9,16.1-40.4,22.1
	c-12.2,5.1-27.7,9.7-43.7,13c-12.7,2.6-20.6,4.7-26.3,6.9c-6.9,2.7-12.5,6.5-17.4,11.8c-3.5,3.7-7.4,9.8-9.6,14.8
	c-1.2,2.9-1.5,2.8-1.3-0.2c0.3-5.2,3.2-12,7.7-18.4c2.1-2.9,5.3-5.9,10.1-9.7c6.6-5.1,9.1-6.7,17.9-11.6c10-5.6,15.1-9.2,22.3-15.9
	c4.3-4,10.5-11.2,13.8-16.1c2.9-4.3,5.6-10.3,8-17.5c3.1-9.3,4.2-17.5,3.9-29.1c-0.2-8.1-0.7-13.5-2.4-23.3
	c-1.3-7.6-2-10.1-3.3-10.8c-0.7-0.4-1.6,0.3-2,1.4c-0.1,0.5-0.5,1.8-0.8,2.8c-1,3.6-5.8,14-11,24.1c-5,9.5-8.2,14.7-12.8,20.4
	c-3.2,4-6.6,7.6-14,14.5c-9.3,8.8-13.8,13.2-16.3,16.3c-1.3,1.6-2.5,2.9-2.6,3.1c-0.1,0.1,0.9-2.1,2.4-5.1
	c5.4-11.2,7.3-17.4,8.3-27.9c0.5-4.8,0.3-15.9-0.4-29.3c-0.4-8.7-0.6-13.6-0.5-18.1l0.1-6.2l-0.6-0.1
	C131.2,270.4,130.9,270.5,130.7,270.7z M182.4,283c2.7,15.2,2.8,29.8,0.5,41.4c-1.3,6.8-3.2,12.1-6.8,19.4
	c-2.9,5.9-5.3,9.3-11.2,15.9c-4.9,5.5-9.5,9.7-15.4,14.1c-3.8,2.9-6,4.2-13.1,8.3c-10.1,5.8-16.8,10.7-23.3,17l-2.1,2l1.3-2.6
	c0.7-1.4,2.2-3.9,3.3-5.5c3.9-5.8,7.4-9.5,18.7-19.7c16.9-15.2,25.8-25.1,31.2-34.4c4.9-8.6,10.6-24.8,10.9-31.6
	c0.1-1.6,0-2.5-0.1-2.5c-0.1,0-0.3,0.7-0.4,1.6c-0.3,3.2-2.8,11.9-5.1,17.6c-1.5,3.7-4.2,9.1-6,11.9c-4.8,7.8-12.3,15.5-27.6,28.9
	c-3.1,2.7-7.3,6.4-9.3,8.2c-2,1.8-4.5,4-5.5,4.9c-2.9,2.4-5.6,5.3-9,9.8c-1.7,2.3-3.3,4.5-3.6,4.9c-0.3,0.4-0.5,0.8-0.5,0.7
	c0-0.4,2.8-7.6,3.7-9.7c2.7-6,6-11.9,10.1-18.2c4.6-7,6.6-9.3,18.8-21.7c14.1-14.4,18.2-19.6,24.8-32c4.1-7.7,12.3-24.8,13.9-29.4
	c0.4-1.2,0.9-2.2,0.9-2.2C181.9,280.1,182.2,281.4,182.4,283z M130.1,298.5c0.2,15.3,0.1,19.3-0.8,25.7c-0.9,6.5-2.4,12.2-4.7,17.6
	c-0.5,1.3-2.8,6-5.1,10.4c-8.3,16.3-10.7,22.3-13.2,32.3c-4.8,19.9-5,20.6-5.7,26.1c-0.2,1.6-0.4,4.4-0.5,6.2l-0.2,3.4l-0.6-1.8
	c-0.7-2.3-2.3-8.3-2.7-10.6c-1.9-9.5-1.8-23,0.2-35.3c1.5-8.8,4.7-19.2,9-29.1c3.5-7.9,7.1-15.2,9.6-18.9c0.7-1.1,1.2-2.1,1.2-2.2
	c-0.1-0.4-3.6,4.2-5.5,7.5c-2.2,3.7-7.9,15-10.7,21.1c-5,11.2-7.9,19.8-9.5,28.6c-1.3,7-1.6,10.4-1.6,17.1c0,6.5,0.1,8.4,1.2,13.5
	c0.3,1.6,0.5,2.9,0.5,2.9c-0.1,0.1-2.2-5.7-3-8.6c-2.9-10.1-4.1-18.1-4.7-30.6c-0.5-11.7,0.5-22.5,3.1-30.9
	c2.8-9.3,5.7-14.6,12.5-22.5c1.2-1.4,5.3-5.9,9.1-10c7.3-7.8,9.6-10.5,12.3-14c3.5-4.6,6.9-10.3,8.5-13.9l0.8-1.9l0.1,1.8
	C129.8,283.2,130,290.5,130.1,298.5z M258.7,347.6c-0.6,3.6-2.3,10.2-4.6,17.6c-5,16.2-14.9,30.2-28.2,40.2
	c-13.6,10.3-33.4,18.1-50.6,20.1c-9,1-15.1,0.6-25.5-1.8c-6.4-1.5-8.4-1.7-14.5-1.7c-9.4,0-16.9,1.1-22.4,3.3
	c-1.1,0.4-2.1,0.8-2.1,0.7c-0.1-0.1,1.2-1.4,2.8-3c3.5-3.4,7.2-6,11.9-8.3c8.6-4.2,18.4-6.6,35.3-8.7c21.2-2.7,28.2-4.2,42.7-9.1
	c13.1-4.5,20-7.9,27.2-13.7c3.7-3,6.2-5.6,7.5-8.2c0.6-1.1-0.2-0.5-1.4,1.1c-2.8,3.7-10.3,9.4-16.8,12.7c-5,2.5-12.5,5.3-21.2,7.8
	c-11.5,3.3-18.2,4.5-31.9,5.8c-14.6,1.4-17.2,1.7-23.6,3c-13.7,2.7-24.9,8-31.5,14.9c-1.6,1.7-1.4,1.2,0.6-1.5
	c2.2-3,4.2-5.1,6.9-7.4c8.3-7,17.4-10.5,39.2-15.1c10.3-2.1,23.7-5.9,32.1-9c15.4-5.6,29.2-12.6,44.4-22.3c7.4-4.8,13-9.3,20-16.2
	c2.1-2,3.8-3.7,3.8-3.7C259,345.2,258.9,346.3,258.7,347.6z M52.8,446.2c1.9,3.1,7.4,9.4,11.8,13.7c3.3,3.2,6.2,5.4,13.3,10.2
	c2.8,1.9,5.4,3.8,5.8,4.3c1.3,1.6,2,4.5,2.3,10.2c0.1,2.7,0.3,3.5,0.9,5.3c0.4,1.2,0.7,2.2,0.5,2.2c-0.1,0-2.4-1-5-2.3
	c-7.9-3.9-12.2-6.7-16.4-10.9c-2.9-2.8-5.7-6.4-7.2-9.1c-2.2-3.9-5-11.4-5.9-15.6c-0.7-3.3-1.4-9.4-1.1-9.4
	C51.9,444.8,52.3,445.4,52.8,446.2z M93.2,496.8c0.3,0.2,0.2,0.2-0.2,0.2c-1,0-3.8,0.9-5.9,1.9c-2.6,1.3-4.7,3-7.2,6
	c-4.5,5.4-6.7,6.8-14.3,8.7c-4.4,1.1-5,1.2-7.4,1.2c-1.4,0-3.1-0.2-3.8-0.3c-1.2-0.3-3.1-1.2-2.9-1.3c0-0.1,1.2,0.2,2.5,0.5
	c3.9,1,5.9,0.8,10.1-1.2c3.5-1.6,5.7-3.3,8.6-6.8c3.6-4.3,8.9-7.4,15.2-8.8C89.2,496.6,92.7,496.5,93.2,496.8z M111.2,507.3
	c0.4,1.3,0.7,6.9,0.3,6.1c-0.2-0.4-1.9-8.4-1.9-8.9C109.7,504,110.9,506.1,111.2,507.3z M732.8,277.2l-0.6,0.1l0.1,6.2
	c0.1,4.5-0.1,9.5-0.5,18.1c-0.7,13.4-0.9,24.5-0.4,29.3c1.1,10.5,2.9,16.7,8.3,27.9c1.4,2.9,2.5,5.2,2.4,5.1
	c-0.1-0.1-1.3-1.5-2.6-3.1c-2.6-3.1-7-7.5-16.3-16.3c-7.4-7-10.8-10.5-14-14.5c-4.6-5.7-7.8-10.9-12.8-20.4
	c-5.3-10.1-10.1-20.5-11-24.1c-0.3-1-0.6-2.3-0.8-2.8c-0.3-1.1-1.3-1.8-2-1.4c-1.2,0.8-1.9,3.2-3.3,10.8c-1.7,9.9-2.2,15.2-2.4,23.3
	c-0.2,11.6,0.9,19.8,3.9,29.1c2.4,7.2,5.1,13.1,8,17.5c3.3,4.9,9.5,12.1,13.8,16.1c7.2,6.7,12.3,10.2,22.3,15.9
	c8.8,4.9,11.3,6.5,17.9,11.6c4.9,3.7,8,6.7,10.1,9.7c4.6,6.4,7.4,13.2,7.7,18.4c0.2,3-0.1,3.1-1.3,0.2c-2.1-5-6.1-11.1-9.6-14.8
	c-4.9-5.2-10.6-9-17.4-11.8c-5.7-2.3-13.7-4.4-26.3-6.9c-16.1-3.3-31.5-7.9-43.7-13c-14.5-6-31.2-15.2-40.4-22.1
	c-3.2-2.4-8.3-6.9-12.4-11c-3.3-3.3-4-3.8-4.4-3.6c-0.9,0.5-0.5,4.5,1,10.6c1.5,5.9,4.2,14.9,5.7,18.4c8.2,20.8,22.8,36.4,43.9,47
	c12.1,6.1,22.6,9.5,34.3,11.1c2.2,0.3,4.6,0.4,8.6,0.4c7.5,0,8.9-0.2,20.5-3.3c4.1-1.1,7.3-1.4,13.5-1.4c8.5,0,14.3,0.7,19.1,2.4
	c2.3,0.8,5,2.2,5.6,2.8c0.3,0.4,0.6,2.7,1.5,10.5c0.8,7.9,0.4,27.9-0.9,41c-0.5,4.7-1.2,10.4-1.8,14l-0.4,2.9l-1.5,1.5
	c-3.3,3.3-4.3,7.7-3.2,14.4c0.3,1.6,0.5,3.3,0.5,3.7c0,3.4-8.8,31-14.2,44.5c-3.5,8.7-7.9,17.6-10.2,20.4c-0.4,0.5-0.6,0.9-0.4,1
	c0.9,0.6,3.8-3.5,8.1-11.4c3.7-6.8,6.8-14,11.7-27.3c4.9-13.2,9-27.6,11.7-40.9c0.6-2.9,1.2-5.4,1.2-5.4c0.1-0.1,0.9-0.4,1.8-0.8
	c0.9-0.4,2.1-0.8,2.7-1.1c2.4-1,6.5-1.2,9.5-0.5c4.2,1.1,7.4,3.3,10.2,7.1c2.7,3.6,3.2,4.1,4.7,5.5c2.3,1.9,4.1,2.8,6.4,3.5
	c3.1,0.9,7.4,1.6,9.6,1.6c5,0,10.1-1.9,10.1-3.9c0-0.6-0.6-0.8-3.2-1.2c-2.8-0.3-3.5-0.6-6.6-2.6c-1.3-0.8-3.4-2.1-4.8-2.9
	c-5.3-2.8-14.4-7.3-16.6-8.3c-2.2-1-6.6-2.3-7.8-2.3c-0.3,0,1.4-0.8,3.6-1.8c8-3.4,14.2-6.8,18.3-9.9c3.3-2.5,7.2-6.8,9.8-10.6
	c3.6-5.3,7.2-15.3,7.9-21.5c0.1-1.2,0.3-4.6,0.4-7.5s0.3-5.9,0.4-6.6c0.3-1.6,0-2.3-0.8-2.3c-0.7,0-1,0.4-1.3,1.7
	c-0.3,1.4-0.6,2-2,4.5c-1.8,3.2-3.7,5.7-7.7,9.7c-5.3,5.4-8.3,7.9-14.7,12.3c-5.9,4-9.7,7.3-10.8,9.3c-1.2,2.3-1.4,3.4-1.5,9.7
	c0,5.3-0.1,5.9-0.6,7.4c-1.1,3.2-1.1,3.3-3.9,4.4c-2.4,0.9-12.8,4.4-13,4.3c0,0,0.1-1,0.3-2.2c1.1-6.6,2.2-17.3,2.7-26.2
	c0.2-2.5,0.3-9.7,0.3-16l0-11.4l0.8-2.6c0.6-2.1,1.1-3.2,2.7-5.9c2.7-4.5,4.1-7.4,7.5-15.5c4.1-9.8,5.4-13.3,7.2-20.6
	c2.4-9.4,3.2-17.3,3.2-30c0-9-0.2-12.1-1.3-18.3c-1.2-7.2-4.1-15.5-7.2-20.7c-3.4-5.7-7-10-19.9-23.3c-2.9-3-6.4-6.7-7.7-8.4
	c-2.9-3.5-6.6-8.7-8.5-11.7c-2.6-4.4-4.9-9.8-5.5-13c-0.1-0.8-0.4-1.6-0.5-1.8S733.1,277.1,732.8,277.2z M682.6,286.8
	c0.1,0,0.5,1,0.9,2.2c1.7,4.7,9.8,21.8,13.9,29.4c6.7,12.4,10.7,17.6,24.8,32c12.2,12.5,14.2,14.8,18.8,21.7
	c4.1,6.2,7.4,12.2,10.1,18.2c0.9,2.1,3.7,9.4,3.7,9.7c0,0.1-0.2-0.2-0.5-0.7c-0.3-0.4-1.9-2.7-3.6-4.9c-3.4-4.5-6.1-7.5-9-9.8
	c-1-0.9-3.5-3.1-5.5-4.9c-2-1.8-6.2-5.5-9.3-8.2c-15.3-13.3-22.8-21.1-27.6-28.9c-1.7-2.8-4.5-8.3-6-11.9
	c-2.3-5.7-4.9-14.4-5.1-17.6c-0.1-0.9-0.2-1.6-0.4-1.6s-0.2,0.9-0.1,2.5c0.4,6.7,6,23,10.9,31.6c5.3,9.3,14.3,19.2,31.2,34.4
	c11.4,10.2,14.8,13.9,18.7,19.7c1.1,1.6,2.5,4.1,3.3,5.5l1.3,2.6l-2.1-2c-6.5-6.4-13.1-11.2-23.3-17c-7-4.1-9.2-5.4-13.1-8.3
	c-5.9-4.4-10.5-8.6-15.4-14.1c-5.9-6.6-8.3-10-11.2-15.9c-3.6-7.4-5.5-12.7-6.8-19.4c-2.3-11.7-2.1-26.2,0.5-41.4
	C682.2,288.1,682.5,286.8,682.6,286.8z M734.6,288.9l0.1-1.8l0.8,1.9c1.6,3.6,5,9.3,8.5,13.9c2.6,3.5,5,6.2,12.3,14
	c3.8,4.1,7.9,8.6,9.1,10c6.8,7.9,9.7,13.2,12.5,22.5c2.5,8.4,3.6,19.1,3.1,30.9c-0.6,12.5-1.8,20.5-4.7,30.6c-0.8,2.9-2.9,8.8-3,8.6
	c0,0,0.2-1.3,0.5-2.9c1-5.1,1.2-7,1.2-13.5c0-6.7-0.3-10.1-1.6-17.1c-1.6-8.8-4.5-17.4-9.5-28.6c-2.7-6.1-8.5-17.4-10.7-21.1
	c-2-3.3-5.4-7.9-5.5-7.5c0,0.1,0.5,1.1,1.2,2.2c2.5,3.8,6.1,11,9.6,18.9c4.4,10,7.6,20.4,9,29.1c2.1,12.3,2.1,25.8,0.2,35.3
	c-0.5,2.3-2,8.3-2.7,10.6l-0.6,1.8l-0.2-3.4c-0.1-1.9-0.3-4.7-0.5-6.2c-0.7-5.5-0.8-6.2-5.7-26.1c-2.5-10.1-4.9-16.1-13.2-32.3
	c-2.2-4.4-4.5-9.1-5.1-10.4c-2.3-5.4-3.8-11-4.7-17.6c-0.9-6.4-1-10.4-0.8-25.7C734.4,297.2,734.5,289.9,734.6,288.9z M605.4,351.9
	c0,0,1.8,1.6,3.8,3.7c7,6.9,12.6,11.4,20,16.2c15.1,9.8,29,16.7,44.4,22.3c8.4,3.1,21.8,6.8,32.1,9c21.8,4.6,30.9,8.1,39.2,15.1
	c2.7,2.3,4.7,4.4,6.9,7.4c2,2.7,2.2,3.2,0.6,1.5c-6.6-6.9-17.8-12.2-31.5-14.9c-6.4-1.2-9-1.6-23.6-3c-13.8-1.3-20.4-2.5-31.9-5.8
	c-8.7-2.5-16.2-5.2-21.2-7.8c-6.4-3.3-14-9-16.8-12.7c-1.2-1.6-1.9-2.2-1.4-1.1c1.3,2.6,3.8,5.2,7.5,8.2c7.1,5.7,14.1,9.2,27.2,13.7
	c14.5,4.9,21.4,6.4,42.7,9.1c17,2.1,26.7,4.5,35.3,8.7c4.6,2.3,8.4,4.9,11.9,8.3c1.6,1.6,2.9,2.9,2.8,3c0,0.1-1-0.2-2.1-0.7
	c-5.4-2.1-13-3.3-22.4-3.3c-6,0-8,0.2-14.5,1.7c-10.3,2.4-16.4,2.8-25.5,1.8c-17.2-2-36.9-9.8-50.6-20.1
	c-13.3-10-23.2-24.1-28.2-40.2c-2.3-7.5-4.1-14.1-4.6-17.6C605.5,353,605.3,351.9,605.4,351.9z M812.5,451.5c0.3,0-0.4,6.1-1.1,9.4
	c-0.9,4.3-3.8,11.8-5.9,15.6c-1.5,2.7-4.4,6.3-7.2,9.1c-4.2,4.2-8.5,7-16.4,10.9c-2.6,1.3-4.9,2.3-5,2.3c-0.1,0,0.1-1,0.5-2.2
	c0.7-1.9,0.8-2.7,0.9-5.3c0.3-5.6,0.9-8.6,2.3-10.2c0.4-0.5,3-2.4,5.8-4.3c7.1-4.8,10-7,13.3-10.2c4.4-4.3,9.9-10.6,11.8-13.7
	C812,452.1,812.5,451.5,812.5,451.5z M776.5,503.5c6.3,1.5,11.6,4.6,15.2,8.8c2.9,3.5,5,5.2,8.6,6.8c4.2,1.9,6.2,2.1,10.1,1.2
	c1.3-0.3,2.4-0.6,2.5-0.5c0.2,0.2-1.7,1.1-2.9,1.3c-0.7,0.1-2.4,0.3-3.8,0.3c-2.3,0-2.9-0.1-7.4-1.2c-7.6-1.9-9.7-3.2-14.3-8.7
	c-2.5-3-4.6-4.7-7.2-6c-2-1-4.9-1.9-5.9-1.9c-0.5,0-0.5,0-0.2-0.2C771.6,503.2,775.2,503.3,776.5,503.5z M754.7,511.2
	c0,0.5-1.7,8.5-1.9,8.9c-0.4,0.8-0.1-4.8,0.3-6.1C753.5,512.8,754.6,510.7,754.7,511.2z M173,446c0-1,0.8-1.8,1.8-1.8H679
	c1,0,1.8,0.8,1.8,1.8s-0.8,1.8-1.8,1.8H174.8C173.8,447.8,173,447,173,446L173,446 M409.3,375.9c-0.6-0.5-1.1-0.9-1.5-1.3
	c-1.7-1.6-2.5-3.6-2.6-5.9c-0.1-2.1,0.4-3.9,1.3-5.7c1.5-2.9,3.7-5.1,6.7-6.5c1.1-0.5,2.2-0.8,3.4-1c1.1-0.1,2.2,0.1,3.2,0.6
	c1.6,0.9,2.2,2.3,2.4,4c0.1,1.1-0.2,2.1-0.6,3c-0.3,0.7-0.8,1.3-1.4,1.7c-1,0.7-2.1,1.2-3.2,1.4c-0.3,0.1-0.7,0.1-1,0
	c-0.2,0-0.3-0.2-0.5-0.3c-0.1-0.1-0.1-0.3,0-0.4c0.2-0.1,0.3-0.2,0.5-0.2c0.8-0.3,1.5-0.6,2.2-1c1.4-0.9,2.2-2.1,2.4-3.8
	c0.1-0.7-0.1-1.4-0.5-2.1c-0.5-0.9-1.3-1.4-2.3-1.5c-0.9-0.1-1.8,0-2.7,0.3c-3.8,1.3-6.6,3.8-8,7.6c-1.2,3.2-0.4,6,1.8,8.5
	c0.3,0.4,0.8,0.7,1.2,1c0.6,0.5,1.3,0.7,2.1,0.6c0.7-0.1,1.4-0.1,2,0.2c0.2,0.1,0.3,0.2,0.5,0.3c0.2,0.2,0.1,0.5-0.1,0.6
	c-0.7,0.2-1.5,0.4-2.2,0.5c-0.5,0.1-0.9,0.2-1.3,0.4c-1.1,0.6-2.1,1.3-3.1,2.1c-2.6,2.2-4.7,4.8-6,7.9c-0.9,2.1-1.3,4.2-1.1,6.5
	c0.3,2.9,1.8,5.2,4.5,6.4c1.4,0.6,2.8,0.6,4.3,0.3c2-0.5,3.7-1.4,5.4-2.7c3.1-2.3,5-5.3,6-9c0.4-1.5,0.6-3.1,0.2-4.6
	c-0.2-0.7-0.5-1.4-1.1-1.9c-0.4,0.1-0.7,0.1-1.1,0.2c-0.7,0.2-1.3,0-1.9-0.2c-0.5-0.2-0.8-0.4-1-0.8c-0.2-0.3-0.2-0.7,0.1-1
	c0.3-0.4,0.7-0.6,1.1-0.6c0.3,0,0.7,0,1,0.1c0.3,0.1,0.6,0.2,0.9,0.3c0.5-0.1,1-0.4,1.5-0.7c0.9-0.6,1.8-1.3,2.6-2.1
	c1.4-1.3,2.6-2.7,3.8-4.1c1.2-1.4,2.4-2.8,3.8-4c1-0.9,2.1-1.6,3.3-2.2c0.7-0.4,1.5-0.6,2.3-0.7c1.1-0.2,2.1,0,3,0.5
	c0.3,0.2,0.6,0.4,0.8,0.6c0.3,0.3,0.4,0.7,0.4,1.1c-0.1,0.5-0.6,1-1.1,0.7c-0.9-0.6-1.8-0.4-2.6-0.1c-1.1,0.3-2.1,0.9-3.1,1.5
	c-1.2,0.8-2.3,1.7-3.4,2.7c-1.3,1.2-2.5,2.5-3.7,3.7c-1,1-2,2.1-3.2,3c-0.5,0.4-1.1,0.8-1.7,1.2c-0.2,0.1-0.3,0.2-0.5,0.4
	c0.1,0.2,0.2,0.4,0.3,0.5c1,1.6,1.3,3.4,1.1,5.2c-0.6,6.3-5,11.8-10.3,14.3c-1.4,0.7-2.8,1.1-4.4,1.1c-2.3,0-4.3-0.8-6.1-2.3
	c-2.2-1.9-3.4-4.3-3.7-7.2c-0.2-2.4,0.3-4.7,1.3-6.9c1-2.1,2.1-3.5,3.1-4.7C403.9,380,406,377.9,409.3,375.9 M467,362.3
	c0.3-0.4,0.6-0.8,0.8-1.3c2.2-4.6,4.7-9.1,7.7-13.2c1.9-2.7,3.9-5.2,6.3-7.5c1.4-1.3,2.8-2.5,4.6-3.3c0.8-0.4,1.8-0.7,2.7-0.9
	c2.1-0.4,4.5,0.6,5.6,2.9c0.7,1.3,1,2.8,1,4.2c0.2,2.7,0,5.5-0.4,8.2c-0.8,5.8-2,11.5-3.1,17.3c-0.1,0.4-0.1,0.8-0.2,1.3
	c0.2-0.3,0.5-0.7,0.8-1.2c2.1-3.3,3-5.3,4-6.9c2.2-3.6,4.8-6.9,7.9-9.8c0.9-0.8,1.8-1.7,2.8-2.4c0.8-0.6,1.6-1.1,2.4-1.5
	c0.4-0.2,0.9-0.4,1.3-0.5c2.4-0.6,4.5,0.6,5.1,3c0.3,1.3,0.3,2.5,0.2,3.8c-0.4,2.8-1,5.6-1.8,8.3c-1.4,4.9-2.9,9.7-4.4,14.5
	c-1.6,5.2-3.2,10.5-4.3,15.9c-1,5.2-1.5,10.4-1.3,15.6c0.1,1.9,0.3,3.8,0.9,5.6c0.3,1,0.7,1.9,1.2,2.9c0.2,0.4,0.5,0.8,0.9,1.1
	c0.4,0.4,0.9,0.5,1.4,0.2c0.4-0.2,0.8-0.5,1-0.8c0.7-0.8,1.4-1.5,2-2.4c1.1-1.6,2.1-3.3,3-5c2.6-4.9,4.8-9.9,6.9-15.1
	c2.7-6.6,5.2-13.3,7.3-20.1c0.7-2.3,1.3-4.6,2-6.8c0.2-0.7,0.1-1.3-0.2-1.9c-1.1-2.3-1.8-4.7-2-7.3c-0.1-1.1,0.1-2.3,0.4-3.4
	c0.2-0.5,0.4-1,0.7-1.4c1.3-1.9,3.7-1.8,4.9,0.2c0.3,0.4,0.5,0.9,0.6,1.4c0.2,0.7,0.3,1.5,0.3,2.2c0.1,2.1,0,4.2-0.5,6.2
	c-0.3,1.3,0,2.2,0.9,3.1c1.1,1.1,2.3,1.9,3.7,2.7c1,0.5,1.9,1,2.9,1.6c0.8,0.5,1.6,1,2.3,1.6c1.8,1.6,2.5,3.7,2.2,6.1
	c-0.2,1.7-0.6,3.4-1.3,4.9c-1.1,2.7-2.4,5.5-3.5,8.2c-1.6,3.6-2.9,7.2-3.9,11c-0.5,2.2-0.9,4.3-1,6.6c0,0.9,0.1,1.9,0.2,2.8
	c0,0.2,0.2,0.5,0.2,0.7c0.2,0.5,0.6,0.6,1.1,0.4c0.7-0.3,1.4-0.7,1.9-1.1c1.1-0.9,2.2-1.9,3.2-3c2.6-2.8,4.8-5.9,7-8.9
	c4.3-6.1,8.3-12.4,12-18.9c0.5-0.8,0.6-1.6,0.4-2.5c-0.7-2.6-0.9-5.2-0.7-7.9c0.1-1.7,0.6-3.3,1.4-4.7c0.5-0.8,1.1-1.6,1.9-2
	c1.6-0.9,3.4-0.5,4.5,1c0.6,0.8,1,1.8,1.1,2.9c0.1,1.5,0,2.9-0.5,4.3c-0.5,1.7-1.1,3.4-2,5c-0.5,1-0.6,1.8-0.1,2.8
	c1.3,2.6,2.5,5.3,3.8,7.9c1.1,2.4,2.3,4.7,3.4,7c0.1,0.2,0.2,0.4,0.3,0.6c0.5,0.3,1.1,0.2,1.6,0.2c1.1,0,2.1,0.2,3,0.6
	c0.8,0.3,1.4,0.8,1.8,1.5c0.3,0.6,0.4,1.3,0.1,1.9c-0.3,0.5-0.7,0.6-1.2,0.3c-0.2-0.1-0.4-0.3-0.6-0.4c0,0-0.3-0.3-1-0.5
	c-0.8-0.3-1.8-0.2-2.2-0.1c0.7,2.2,1.3,5,1.4,8.3c0,4.9-1.3,8.3-1.5,9c-0.5,1.1-1,2.2-1.7,3.2c-0.7,1.1-1.6,2-2.5,2.8
	c-2,1.6-4.2,2.6-6.8,2.5c-3.2-0.1-5.6-1.5-7.2-4.3c-1.1-2-1.5-4.2-1.4-6.4c0.3-5.7,3.1-10,7.4-13.5c1.2-1,2.6-1.8,3.9-2.6
	c0.3-0.2,0.7-0.4,1.1-0.6c-0.1-0.3-0.1-0.7-0.2-0.9c-0.8-2-1.7-4-2.5-6c-0.7-1.6-1.4-3.2-2.1-4.8c-0.1-0.2-0.3-0.5-0.4-0.8
	c-0.5,0.4-0.7,0.9-1,1.3c-3.7,6.3-7.7,12.4-12.1,18.2c-2.1,2.7-4.2,5.4-6.6,7.7c-0.9,0.9-1.9,1.7-2.9,2.5c-1,0.8-2.1,1.3-3.3,1.6
	c-1.8,0.5-3.4-0.2-4.4-1.8c-0.8-1.4-1.1-2.9-1.3-4.4c-0.5-4.4,0.2-8.7,1.3-12.9c0.8-3.2,2.1-6.3,3.4-9.3c1-2.2,1.9-4.4,2.7-6.7
	c0.4-1,0.6-2.1,0.8-3.1c0.3-1.2-0.2-2.2-1.3-2.9c-0.8-0.5-1.1-0.9-2-1.3c-1-0.5-2.5-1.3-4.8-3.3c-0.5,0.2-0.5,0.6-0.5,0.9
	c-1.1,4.1-2.4,8.1-3.8,12.1c-2.6,7.4-5.4,14.7-8.6,21.9c-1.4,3.2-3,6.3-4.9,9.3c-1,1.5-2,3-3.3,4.2c-0.8,0.8-1.7,1.4-2.7,1.8
	c-2,0.8-3.8,0.5-5.4-0.9c-0.8-0.7-1.4-1.6-1.9-2.5c-0.9-1.7-1.5-3.6-1.9-5.5c-0.9-4.6-1.1-9.2-0.8-13.8c0.5-8.4,2.8-16.5,5.4-24.5
	c1.6-5,3-10,4.5-14.9c0.5-1.7,2.1-6.7,1.3-7.1c-0.1,0-0.2-0.1-0.7,0.3c-1.3,0.8-2.1,1.7-2.1,1.7c-3.2,3-5.9,6.4-8.3,10.1
	c-6.4,9.7-10.9,20.2-13.8,31.4c-0.5,2-0.8,4-1.2,6c-0.2,0.8-0.2,1.5-0.6,2.2c-0.5,0.7-1,0.8-1.6,0.2c-0.4-0.4-0.7-0.8-0.8-1.3
	c-0.2-0.7-0.3-1.4-0.3-2.1c-0.1-2.2,0.2-4.3,0.4-6.5c0.9-8.1,2.5-16.2,4-24.2c0.9-5,1.9-10,2.8-15.1c0.5-3.2,1-6.4,1.1-9.7
	c0-1,0-2.1-0.1-3.1c-0.2-1.5-0.8-1.8-2.1-1.1c-1.1,0.6-2.1,1.3-3,2.2c-2.5,2.3-4.7,5-6.6,7.8c-3,4.3-5.5,8.9-7.7,13.7
	c-4,8.6-7,17.7-9.3,26.9c-1.1,4.5-2.3,9.1-3.4,13.6c-0.3,1.3-0.7,2.6-1.1,3.8c-0.3,0.8-0.3,1.2-0.3,1.5c-0.2,1.8,0.5,2.7,0.1,3.1
	c-0.5,0.4-2.1-0.1-3-1.2c-0.3-0.4-1.2-1.4-1.1-5.1c0.1-1.4,0.2-2.8,0.4-4.2c0.7-5.3,1.8-10.6,3.1-15.9c1.4-6.2,2.9-12.4,4-18.7
	c1-5.7,1.8-11.5,1.7-17.3c-0.1-2-0.2-4.1-0.7-6c-0.2-0.8-0.6-1.7-1-2.5c-0.6-1.2-1.7-1.9-3.1-2c-0.6-0.1-1.2,0.2-1.9,0.2
	c-0.1-0.2-0.2-0.4-0.2-0.7c0-0.5,0.4-1,0.8-1.3c1.2-1.1,2.5-1.4,4.1-1.2c1.9,0.3,3.3,1.3,4.5,2.7c1,1.2,1.6,2.6,2.1,4
	c0.7,2.1,1,4.3,1.1,6.6c0.1,1.4-0.1,3.9-0.4,8.6C467.2,360.9,467.1,361.8,467,362.3 M572.2,401.6c-2.2,1-4,2.2-5.6,3.9
	c-2.2,2.3-3.6,5-4,8.1c-0.2,2.1,0.1,4,1.3,5.7c0.9,1.3,2.1,2,3.8,1.7c0.8-0.1,1.4-0.5,2-1c1.1-0.9,1.9-2,2.4-3.3
	c1.2-2.6,1.8-5.4,1.6-8.3c-0.2-2.2-0.6-4.3-1.2-6.4C572.4,401.9,572.3,401.9,572.2,401.6 M336.4,355c-0.7-0.4-7.2,8-12.4,16.7
	c0,0-6.9,11.7-10.8,24.2c-0.5,1.6-0.9,3.2-1.4,4.8c-0.2,0.8-0.3,1.6,0,2.4c0.2,0.5,0.3,1.1-0.1,1.5c-0.5,0.5-1.1,0.1-1.6-0.2
	c-1.2-0.6-1.9-1.5-2.3-2.7c-0.6-1.9-0.8-3.8-0.7-5.7c0.2-3.8,1.1-7.6,1.9-11.3c1.4-6.2,3.3-12.2,5.1-18.3c1.6-5.3,3.4-10.6,4.8-16
	c0.8-3.2,1.6-6.3,2.1-9.6c0.2-1.5,0.3-3.1,0.2-4.7c-0.2-1.5-0.6-1.8-2.1-1.3c-1.1,0.4-2,1-2.9,1.7c-1.9,1.4-3.6,3-5.2,4.8
	c-3.4,3.8-6.3,7.9-8.9,12.3c-5,8.3-9,17-11.9,26.2c-1.9,5.9-3.5,12-5,18c-0.9,3.8-1.8,7.6-2.7,11.4c-0.2,0.6-0.2,1.2-0.1,1.8
	c0.2,0.8-0.2,1.3-1,1.6c-0.8,0.3-1.5,0.1-2.2-0.3c-0.6-0.4-1.1-0.9-1.4-1.6c-0.4-0.8-0.8-1.6-1-2.5c-0.3-1.4-0.5-2.8-0.6-4.2
	c-0.2-3.1,0.2-6.2,0.6-9.3c0.5-4.1,1.2-8.2,2.4-12.2c0.9-3.2,1.8-6.5,2.8-9.7c1.2-4.2,2.4-8.4,3.2-12.7c0.5-2.9,1-5.9,1.1-8.8
	c0.1-1.7,0.1-3.4-0.1-5.1c-0.2-1.1-0.5-2.1-0.8-3.2c-0.2-0.6-0.5-1.1-1-1.5c-0.7-0.6-1.4-0.7-2.2-0.2c-0.2,0.1-0.4,0.3-0.6,0.4
	c-0.6,0.3-1.3-0.1-1.3-0.8c0-0.7,0.3-1.3,0.8-1.8c1.3-1.4,2.9-1.8,4.8-1.4c1.5,0.4,2.6,1.3,3.5,2.5c1,1.4,1.6,3.1,1.9,4.8
	c0.2,1.1,0.3,2.2,0.4,3.4c0.3,5.9-1,12.5-1,12.8c-0.5,2.7-1.1,6.2-2,10.3c0.1-0.2,0.3-0.5,0.4-0.8c2.7-6.8,5.9-13.4,9.8-19.7
	c2.7-4.3,5.6-8.5,9.1-12.4c1.8-2.1,3.9-3.9,6.1-5.5c1.1-0.8,2.4-1.5,3.7-2.1c0.9-0.4,1.8-0.5,2.8-0.5c2,0,3.3,0.9,4.2,2.7
	c0.6,1.2,0.8,2.5,0.8,3.9c0.1,2.6-0.3,5.1-0.7,7.6c-1.1,6-2.8,12-4.5,17.9c-0.5,1.9-1.7,5.8-3.1,10.9c0.2-0.5,0.5-0.9,0.7-1.3
	c2.7-5.2,5.9-10.1,9.5-14.8c1.7-2.2,3.6-4.3,5.7-6.2c0.6-0.6,1.3-1.1,2-1.6c0.6-0.4,1.2-0.7,1.9-0.9c2.2-0.7,4.2,0.6,4.4,2.9
	c0.1,1,0,2.1-0.1,3.1c-0.4,2.6-1.1,5.2-1.9,7.7c-1.5,5.2-3.1,10.4-4.3,15.7c-1.1,4.6-1.9,9.2-2.5,14c-0.5,3.6-0.6,7.2-0.5,10.8
	c0.1,2.4,0.4,4.8,1.1,7.1c0.2,0.7,0.5,1.3,0.8,2c0.2,0.3,0.4,0.7,0.6,0.9c0.6,0.8,1.2,0.8,2,0.2c0.5-0.4,0.8-0.8,1.2-1.2
	c1-1.3,1.7-2.7,2.4-4.2c1.8-3.8,3.3-7.8,4.6-11.7c2.5-7.5,5-15.1,7.1-22.7c0.5-1.7,0.8-3.4,1.3-5.1c0.2-0.8,0.1-1.6-0.2-2.4
	c-0.3-1-0.5-2-0.8-3c-0.2-0.8-0.1-1.5,0.2-2.2c0.1-0.3,0.2-0.5,0.3-0.8c0.8-1.3,2.3-1.3,3.1-0.1c0.4,0.7,0.6,1.4,0.6,2.2
	c0,0.8,0,1.7,0,2.6c0,0.6,0.1,1.1,0.5,1.6c0.6,0.8,1.3,1.5,2.1,2c1.7,1.1,3.6,1.9,5.5,2.7c1.2,0.5,2.5,0.9,3.7,1.4
	c1.8,0.8,3.4,1.8,4.9,3.1c2.5,2.5,3.5,5.5,3.1,9.1c-0.3,2.6-1.2,5.1-2.3,7.4c-1,2-2.1,4-3.2,6c-1.1,1.9-2.2,3.8-3.3,5.6
	c-1.3,2.3-2.4,4.7-3.3,7.2c-1.3,3.7-1.8,7.4-1.6,11.3c0,0.5,0.2,1,0.2,1.5c0.1,0.4,0.2,0.7,0.2,1.1c0.1,1-0.5,1.6-1.5,1.6
	c-0.5,0-1-0.2-1.4-0.6c-0.5-0.5-0.9-1.1-1.1-1.8c-0.7-1.8-0.9-3.6-0.9-5.4c-0.2-4.8,0.8-9.4,2.6-13.8c1.1-2.7,2.5-5.2,4-7.7
	c1.4-2.5,2.8-5,4.1-7.5c0.9-1.7,1.5-3.5,1.9-5.5c0.5-2.4-0.2-4.3-2.1-5.8c-1.1-0.9-2.2-1.7-3.4-2.3c-1.1-0.6-2.3-1.1-3.4-1.7
	c-2.1-1-4.1-2.2-5.7-3.9c-0.1-0.1-0.2-0.1-0.3-0.1c-0.1,0.3-0.2,0.6-0.3,0.9c-1.4,5.8-3.2,11.5-5,17.2c-1.6,5.1-3.3,10.3-5.2,15.3
	c-0.9,2.5-2,4.9-3.2,7.2c-0.7,1.3-1.5,2.6-2.6,3.7c-0.5,0.5-1,0.9-1.5,1.2c-1.4,0.8-2.8,0.8-4.1-0.2c-0.6-0.5-1.1-1-1.6-1.6
	c-0.8-1.1-1.4-2.4-1.9-3.8c-0.9-2.4-1.3-4.8-1.6-7.3c-0.3-2.9-0.4-5.8-0.3-8.6c0.2-4.3,0.7-8.6,1.5-12.8c1-5.8,2.5-11.4,4.3-17
	c3.2-10.3,1-3.4,2.3-7.6C336.4,355.5,336.5,355.1,336.4,355"/>
</svg>
