<?xml version="1.0" encoding="utf-8"?>
<!-- Generator: Adobe Illustrator 23.0.2, SVG Export Plug-In . SVG Version: 6.00 Build 0)  -->
<svg version="1.1" id="Слой_1" xmlns="http://www.w3.org/2000/svg" xmlns:xlink="http://www.w3.org/1999/xlink" x="0px" y="0px"
	 viewBox="0 0 2000 2000" style="enable-background:new 0 0 2000 2000;" xml:space="preserve">
<path d="M1895.5,1105.2H118c-2.3,0-4.3,1.9-4.3,4.3c0,2.3,1.9,4.3,4.3,4.3h227.6c7.2,7,14.4,14,21.5,21.1c8.8,8.7,18.6,17.3,18,18.1
	c-0.7,0.8-11.2-8.3-28-17.5c-15.8-8.7-39.2-18.7-42.3-14.1c-1.3,1.8,1.2,5.5,2.4,7.3c21.1,32.5,13.5,45.1,34.7,65.2
	c16,15.2,34,20.5,40.5,21.7c6,1.1,12.1,1.4,18.3,0.9c1.3,0,2.6-0.1,3.9-0.1c13.5-0.4,27.4-0.9,37.3,8.7c11.8,11.4,17.1,12.3,47.3,37
	c16.4,13.4,27.7,21.6,26.8,23c-1.1,1.7-18.2-13.6-45.6-17.5c0,0-22.5-3.2-50.3,8.5c-2.8,1.2-8.2,3.6-7.8,5.5c0.3,2,6.4,2.1,17,3.8
	c8.5,1.4,8.6,1.9,17.7,3.6c17.3,3.2,23.2,2.4,41.1,4.8c6.1,0.8,15.3,2.2,26.6,4.7c11.1,7.5,23.5,17.4,36,30
	c22.2,22.5,36.3,45.5,45,63c-9.1-4.4-33.4-16.2-58.8-31c0,0-10.2-5.8-35.2-26.7c-0.7-0.6-1.2-1.2-1.7-1.8c-1-1.4-1.4-2.8-1.5-3.1
	c-0.5-1.8-5.4-14.2-14.7-20.7c-9.1-6.3-19.5-5.1-22.6-3.1c-0.5,0.3-1.7,1.1-2.3,2.5c-0.6,1.4-0.4,3.1,0.5,5
	c5.2,9.5,14.9,17,27.3,21.1c8.2,2.5,14.4,7.6,19.4,12.2c13,11.7,27.9,20.9,41.8,28.4c-29.5-5.9-60-14.1-87-30.8
	c-1.1-5.9-3.8-14-10.8-20.4c-0.5-0.5-12.3-11.2-18.5-7.2c-1.5,1-2.6,2.8-3.1,5.1c-1.1,5.4,0.7,13.1,4.4,18.5
	c8,11.8,24.1,11.6,27.5,11.4c20.7,12,43.5,23.6,69.2,27.1c3.3,0.6,6.7,1.1,10,1.5c13.3,1.9,27.1,3.9,38.5,11.6
	c3.5,2.4,7.5,4.5,12.2,6.6c8.7,4,16.3,10,23.7,15.8c5.4,4.3,11,8.8,17.2,12.5c-5.9-2-12.4-4-13-2.7c-0.5,1,3.2,3.6,6.4,6.4
	c0,0,3.9,3.5,11.4,13.1c7.9,10,12.6,21.8,14.7,26.7c12.6,28.5,39.2,43.3,38.1,44.7c-1.1,1.3-23.4-9.3-41.8-31.6
	c-10.6-12.9-27.8-39.2-37.9-52.9c-5.7-7.8-11.5-12.3-19.2-17.7c-20.8-14.6-43.1-17.1-56.5-17.3c1,1.1,2.4,2.8,4.2,4.8
	c24.3,28.2,38.5,51.6,42.1,57.1c10.3,15.8,32,36.2,82.2,55.4c0,0,0.1,0,0.1,0c10.1,3.2,16.8,7.7,19.9,9.6c7.3,4.6,13.5,8,20,9.7
	c8.5,2.3,17.5,4.9,26.2,9c2.1,0.8,4.7,1.5,7.1,2.2c3.1,0.9,6.3,1.8,8.9,3c-8.7,0.2-15.7,1.6-20.9,2.9c-9.2,2.3-15.5,5.4-24.7,10
	c-11.7,5.8-17.6,8.6-17.6,10.6c0.1,8.9,48.8,20.2,73.6,9.2c3.4-1.5,5.7-2.3,10.2-4.3c9.5-4.2,18.5-8.2,28.7-7.9
	c3.1,0.1,5.4,0.6,7.3,1c5.3,1.1,9.9,2.9,20.8,9.1c6.4,3.6,10.4,5.8,16.1,9.6c5.3,3.5,11.8,8.1,19,14c-12.1-2.7-31.4-5.6-54.7-2.7
	c-23.2,3-43.6,10.9-43.2,13.2c0.3,1.4,7.8,0.2,25.8,2.2c1,0.1,5.3,0.9,10.7,1.4c12.3,1.3,24.4,4.8,36.1,8.2c4.8,1.4,9.8,2.8,14.6,4
	c12.7,3.7,21,0.9,27.1-1.2c4.7-1.6,7.9-2.7,11.1-0.2c10,7.6,41.3,27.1,73,38c8.2,10.3,19.8,22.1,36.1,34.1c0.8,0.6,2.6,1.9,5,1.8
	c2.1-0.1,3.6-1.2,4.2-1.7c13.8-10.4,24.8-22.8,33.1-33.8c32.2-10.8,64.2-30.8,74.3-38.5c3.3-2.5,6.4-1.4,11.1,0.2
	c6.1,2.1,14.4,4.9,27.1,1.2c4.9-1.2,9.8-2.7,14.6-4c11.7-3.4,23.8-6.8,36.1-8.2c5.5-0.6,9.7-1.3,10.7-1.4c18-2,25.5-0.8,25.8-2.2
	c0.4-2.3-19.9-10.3-43.2-13.2c-23.3-3-42.6,0-54.7,2.7c7.2-5.9,13.7-10.5,19-14c5.7-3.7,9.7-6,16.1-9.6c10.9-6.1,15.5-7.9,20.8-9.1
	c1.8-0.4,4.1-0.9,7.3-1c10.2-0.3,19.2,3.7,28.7,7.9c4.5,2,6.8,2.8,10.2,4.3c24.9,11,73.6-0.2,73.6-9.2c0-1.9-5.8-4.8-17.6-10.6
	c-9.2-4.5-15.5-7.6-24.7-10c-5.1-1.3-12.2-2.6-20.9-2.9c2.6-1.2,5.8-2.1,8.9-3c2.4-0.7,4.9-1.4,7.1-2.2c8.7-4.1,17.7-6.7,26.2-9
	c6.5-1.7,12.6-5.2,20-9.7c3.1-1.9,9.8-6.4,19.9-9.6c0,0,0.1,0,0.1,0c50.2-19.3,71.9-39.6,82.2-55.4c3.5-5.5,17.8-28.9,42.1-57.1
	c1.7-2,3.2-3.7,4.2-4.8c-13.3,0.2-35.7,2.7-56.5,17.3c-7.7,5.4-13.4,9.9-19.2,17.7c-10.1,13.7-27.3,40.1-37.9,52.9
	c-18.3,22.3-40.7,32.9-41.8,31.6c-1.2-1.4,25.5-16.2,38.1-44.7c2.1-4.9,6.8-16.7,14.7-26.7c7.6-9.5,11.4-13.1,11.4-13.1
	c3.1-2.7,6.9-5.3,6.4-6.4c-0.6-1.2-7.1,0.7-13,2.7c6.2-3.7,11.8-8.2,17.2-12.5c7.3-5.8,14.9-11.9,23.7-15.8
	c4.8-2.1,8.8-4.3,12.2-6.6c11.4-7.7,25.2-9.7,38.5-11.6c3.3-0.5,6.7-1,10-1.5c25.7-3.5,48.4-15.1,69.2-27.1
	c3.4,0.2,19.5,0.4,27.5-11.4c3.6-5.3,5.5-13.1,4.4-18.5c-0.5-2.4-1.5-4.2-3.1-5.1c-6.3-4-18,6.7-18.5,7.2c-7,6.4-9.7,14.5-10.8,20.4
	c-27,16.7-57.4,24.9-87,30.8c13.9-7.5,28.8-16.7,41.8-28.4c5-4.7,11.3-9.8,19.4-12.2c12.4-4.1,22.1-11.6,27.3-21.1
	c0.9-1.9,1.1-3.6,0.5-5c-0.6-1.4-1.8-2.2-2.3-2.5c-3.1-1.9-13.6-3.2-22.6,3.1c-9.3,6.5-14.2,18.9-14.7,20.7
	c-0.1,0.3-0.4,1.7-1.5,3.1c-0.5,0.7-1,1.3-1.7,1.8c-25,20.9-35.2,26.7-35.2,26.7c-25.4,14.8-49.7,26.6-58.8,31
	c8.7-17.5,22.8-40.5,45-63c12.5-12.6,24.9-22.5,36-30c11.2-2.5,20.4-3.9,26.6-4.7c17.9-2.4,23.8-1.6,41.1-4.8
	c9.1-1.7,9.1-2.2,17.7-3.6c10.6-1.7,16.6-1.8,17-3.8c0.3-1.9-5-4.3-7.8-5.5c-27.8-11.7-50.3-8.5-50.3-8.5
	c-27.4,3.9-44.5,19.2-45.6,17.5c-0.9-1.3,10.4-9.5,26.8-23c30.2-24.7,35.5-25.7,47.3-37c10-9.6,23.9-9.2,37.3-8.7
	c1.3,0,2.6,0.1,3.9,0.1c6.2,0.5,12.4,0.2,18.3-0.9c6.5-1.2,24.4-6.5,40.5-21.7c21.2-20.1,13.7-32.7,34.7-65.2
	c1.2-1.9,3.6-5.5,2.3-7.3c-3.1-4.5-26.5,5.4-42.3,14.1c-16.8,9.3-27.3,18.4-28,17.5c-0.7-0.8,9.2-9.4,18-18.1
	c7.1-7.1,14.3-14.1,21.5-21.1h227.6c2.3,0,4.3-1.9,4.3-4.3C1899.7,1107.2,1897.8,1105.2,1895.5,1105.2 M780.6,1497.7
	c1,3.4,2.2,6.7,3.5,9.9c-5.3-6.1-10-12.6-13.9-19.3c-2.3-3.9-5.7-11.4-12.5-26.1c-0.4-0.9-1.3-2.7-2.1-5.2
	c-2.1-6.3-2.4-11.7-2.4-13.7c0.5-11.9-8-23.3-19-25.7c-3.3-18.6-14-34-25.3-48.5c13,10.3,27.8,17.8,43.3,23.7
	c10.5,4,21.1,7.3,31.9,9.9C775.4,1428.5,769.8,1462.5,780.6,1497.7 M781.6,1515.7c-3.8-3.2-7.7-6.5-11.8-9.6
	c-17.9-13.7-29.9-34.8-32.4-57c11.1,6.5,14.7,16.2,18.5,26.3c2.6,7,5.3,14.3,10.6,21c0.3,0.4,0.9,1.1,1.7,2
	C771,1501.5,776.3,1507.4,781.6,1515.7 M743.9,1376.2c-11.5-5.3-22.5-11.6-32.2-19.9c-30-25.9-42.6-58.7-38.3-98
	c2.8-25,12.4-47.5,25.9-68.5c12.2-18.8,26.9-35.5,43.1-51.1c9-8.7,18.5-17,28.1-25h58c8.8,58.6,27.3,114.1,56.8,166.2
	c20.7,36.6,46.9,68.6,79.5,95.4c1.3,1,2.4,2.2,5,4.6c-7.6,2.3-13.6,4.3-19.6,6c-38.8,11.1-78.4,15.2-118.6,12.1
	c-10.6-0.8-21.1-2.2-31.4-4.1c-2.3-13-4.2-23.2-5.5-23.1c-0.9,0.1-0.4,4.7-3,12.3c-1.1,3.4-2.4,6.1-3.6,8.3
	C773.1,1387.7,758.3,1382.8,743.9,1376.2 M949.8,1308c-29.7-37.5-51.2-79.5-67.5-124.2c-8.4-22.9-14.7-46.3-19.5-70.1h188.7
	c-0.7,1.1-1.4,2.2-2.1,3.3c-4.8,8-8.9,16.4-10.9,25.7c-1.4,6.6-1.8,13.2,0.5,19.7c1.2,3.5,2.8,6.7,8.7,7.7
	c-1.7-5.6-3.5-14.7-1.6-25.4c2-10.8,7.4-18,12-25.1c1.3-2,2.7-4,4-5.9h176.6c-0.1,0.6-0.3,1.2-0.4,1.8c-9.4,37.7-26.1,72-48.7,103.4
	c-45.8,63.6-105.3,110.7-176.2,143.6c-1.8,0.8-3.7,1.2-5.6,1.8c-2.2-1.5-4.2-2.7-6-4.1C982.5,1344.9,965.2,1327.4,949.8,1308
	 M373.4,1130.3c-1.1,0.8-6.4-5.8-17.4-16.6h8.3C370,1123.6,374.4,1129.6,373.4,1130.3 M465.4,1221.3c-4.2-3.2-5.8-4.4-9-7
	c-27.2-21.9-45.1-45.7-56.9-65.2c-2.6-11.6-2.2-23.5-0.7-35.4h22.7c4.2,11.4,9.1,28,10.9,47.6c0.6,6.2,0.6,10,1,10
	c1,0,6.1-22.2,1-47c0,0-0.9-4.2-2.9-10.6h57.4c0.1,1.5,0.2,3.1,0.3,4.6l0,0.4c0.5,20.8,1,42.3,7.5,62.6
	c4.6,14.5,11.5,22.3,20.9,45.3c6.3,15.6,10.4,28.8,12.9,37.7c-1.3-2.5-3.2-6-5.8-9.9c-12.7-19.2-33.5-37-36.1-39.2
	c-9-7.5-10.5-14.6-12-21.4c-1.9-8.9-3.3-10.3-4.4-12.1c-2.3-3.9-5.1-6.2-6.6-7.5c-6.2-5.3-18.3-11.7-23.6-7.3
	c-2.1,1.7-2.9,4.4-2.7,6.7c0.7,6.8,2.9,12.2,6.8,16.5c1,0.9,2,1.9,3,3c4.9,4.9,10.4,10.5,17.9,11.6c4.9,0.7,9.4,6.9,19.3,16.1
	c6.5,6.1,18.2,17.2,30.2,34.3c4.7,6.7,10.4,15.6,15.9,26.9C506.7,1255.3,483.7,1235.6,465.4,1221.3 M615.4,1386.4
	c-4.3-7.9-9.6-17.8-17.8-30.4c-12.6-18.9-28.6-37.7-48.9-57.5c-1.9-1.7-2.9-3.8-3.2-6.6c-2.3-16.5,7.4-30.3,16.9-43.6
	c3.4-4.8,6.9-9.8,9.7-14.7c3.5-6.2,18.8-29.9,21.7-60c2.9-31.1-7.9-59.5-11.4-59.2c-1.3,0.1-1.2,4.1-3.9,14.7
	c-2,7.9-3.9,13.3-7.8,23.9c-13.3,36.6-17.9,38.2-22.5,58.2c-3.5,15.4-5.2,33.4-6.4,46.3c-0.5,5.3-0.8,9.7-1,12.8
	c-0.3-1-0.8-2.6-1.4-4.5c-8.2-26.3-13.5-43.2-16.9-63.4c-2.3-13.7-3.5-28.2-3.7-30.2c-0.7-9-1.5-18.4-3.2-27.4
	c-0.8-4.8-2.1-9.7-3.3-14.3c-0.9-3.5-1.9-7.1-2.6-10.7l-0.5-1.6c-0.4-1.4-0.8-2.8-1.3-4.3h247.7c-2,1.7-4,3.3-6,5
	c-24,20.3-45.2,43.3-62.1,70c-12.4,19.7-21.5,40.7-24.7,63.8c-3.5,25.3-0.8,48.3,8.3,68.8c-1.8-1.9-3.6-3.8-5.4-5.7
	c-5.2-5.5-10.5-11.1-15.3-16.9c-0.6-0.8-2.4-3.2-5.4-1.4l-0.9,0.5l0.2,1c3.4,16.9,4.3,32.1,5.2,46.9c1.7,28.4,3.3,55.3,23.4,86
	C631.8,1417,627.5,1408.9,615.4,1386.4 M762.7,1540.9c-10.5-4.1-21.5-8.4-32.2-12.3c-3.5-1.3-6.3-3.1-8.4-5.6
	c-3.1-3.6-3.8-7.6-4.2-9c-2-9.5-7.8-17.8-11.6-26.8c-3.7-8.8-14.6-24.3-47.5-53.3c5.1,2.1,10.2,4.1,15.3,6.2l0.1,0
	c2.1,1.2,4.1,2.3,6.2,3.5c4.2,4.9,8.2,9.1,11.9,12.6c19.2,18.4,34.4,24.5,43.9,37.4c9.1,12.3,9.7,13.2,9.7,13.2
	c1.4,2.5,3.6,4.6,5.1,7.1c0.4,0.7,1.2,2.2,3,2.9c0.5,0.2,2.1,0.9,2.8,0.2c1.6-1.4-1.8-8-3.7-11.8c-0.9-1.7-1.7-3.1-2.2-4.1
	c25.5,17.7,47.6,37.6,65.7,59.3C798.4,1554.9,780.3,1547.8,762.7,1540.9 M940.7,1634.7c-5.8-7.4-8.4-15-9.7-20.2
	c5.4,1.7,10.2,3.6,14.7,5.6c0.8,3.7,1.6,6.9,2.3,9.3c0,0,1.9,7.3,8.9,18.7C950.8,1644.8,945.4,1640.7,940.7,1634.7 M1072.8,1634.7
	c-5.3,6.7-11.4,11-18.1,14.4c5.8-9.2,8.7-15.5,8.7-15.5c1.9-4.7,3.4-9.2,4.5-13.6c4.4-2,9.3-3.9,14.6-5.5
	C1081.1,1619.7,1078.5,1627.3,1072.8,1634.7 M1182.5,1565c-6.1,3.2-12.6,6.3-19.7,9.4c-8.2,3.6-16,6.6-23.4,9.1
	c4.3-10.1,7.7-18.4,10-24.2c4.3-10.6,6-15.3,9.4-22.5c3.7-7.8,7.3-13.9,9.7-17.9c-6,1.4-10.4,3.1-12.8,4.1c0,0-40.8,16.8-63.3,71.3
	c-0.1,0.2-0.6,1.5-1.4,3.1c0,0-1.8,3.7-4,6.9c-2,2.9-9.3,5.9-18,9.4c2.6-16.8-1.3-29.9-8.9-33.9c-4.5-2.4-11.9-2.7-17.7-0.6
	c-5.8,2.1-10.4,5.8-14.6,10.2c-7.2,7.6-12.1,16.7-16,26.3c-1.2,3-2.4,5.9-4.5,11.1c-2-5.3-3-8.1-4.1-10.9
	c-3.9-9.6-8.7-18.7-15.9-26.3c-4.6-4.9-8.7-8.9-15.5-10.6c-7-1.8-15.7-0.8-21.1,3.4c-8.2,6.4-8.2,19.8-6.4,31.4
	c-8.8-3.6-16.2-6.6-18.2-9.5c-2.2-3.3-4-6.9-4-6.9c-0.8-1.6-1.3-2.9-1.4-3.1c-22.5-54.5-63.3-71.3-63.3-71.3
	c-2.4-1-6.9-2.7-12.8-4.1c2.5,4,6,10.2,9.7,17.9c3.4,7.2,5.2,11.8,9.4,22.5c2.3,5.8,5.7,14.1,10,24.2c-7.4-2.5-15.2-5.5-23.4-9.1
	c-7-3.1-13.6-6.2-19.7-9.4c-7.4-5.7-16.7-14.7-20.5-27.9c-2.5-8.5-1.4-14.4-0.5-25.1c0,0,3.2-36.5-1.5-72.7c-1.1-8.7-1-4.1-5.8-31.7
	c-0.1-0.5-0.2-1-0.3-1.5c8.1,1.4,16.3,2.5,24.6,3.2c25.7,2.4,51.2,1.7,76.7-1.9c23.8-3.3,47.1-9,69.8-16.9c5.7-2,9.9-1.3,14.7,2.1
	c16.1,11.4,33.3,20.9,51.3,28.8c45.6,20,93,28,142.5,20.7c7.8-1.1,15.6-2.5,23.2-4.2c-0.1,0.4-0.1,0.8-0.2,1.2
	c-4.7,36.2-1.5,72.7-1.5,72.7c0.9,10.7,2,16.5-0.5,25.1C1199.2,1550.3,1189.9,1559.3,1182.5,1565 M1307.1,1487.3
	c-3.7,9-9.5,17.3-11.6,26.8c-0.3,1.4-1.1,5.4-4.2,9c-2.1,2.4-4.8,4.2-8.4,5.6c-10.8,3.9-21.7,8.2-32.2,12.3
	c-17.6,6.9-35.8,14-54,19.6c18.1-21.7,40.2-41.5,65.7-59.3c-0.5,0.9-1.3,2.3-2.2,4.1c-1.9,3.7-5.3,10.4-3.7,11.8
	c0.8,0.6,2.4,0,2.8-0.2c1.7-0.7,2.6-2.2,3-2.9c1.5-2.5,3.7-4.5,5.1-7.1c0,0,0.5-0.9,9.7-13.2c9.6-12.9,24.8-19,43.9-37.4
	c3.7-3.5,7.7-7.7,11.9-12.6c2.1-1.2,4.1-2.3,6.2-3.5l0.1,0c5.1-2.1,10.2-4.1,15.3-6.2C1321.7,1463.1,1310.7,1478.5,1307.1,1487.3
	 M1236.3,1429.8c15.1-4.8,29.8-10.6,44-17.5c-0.4,1.7-0.8,3.4-1.1,5.1c-11,2.5-19.5,13.8-19,25.7c0.1,2-0.3,7.5-2.4,13.7
	c-0.8,2.5-1.7,4.3-2.1,5.2c-6.8,14.8-10.2,22.2-12.5,26.1c-3.9,6.7-8.6,13.1-13.9,19.3c1.3-3.2,2.4-6.5,3.5-9.9
	C1240.2,1473.8,1239.9,1450.5,1236.3,1429.8 M1276,1449.2c-2.5,22.2-14.5,43.3-32.4,57c-4.1,3-8,6.3-11.8,9.6
	c5.3-8.3,10.6-14.2,13.3-17.2c0.8-0.9,1.4-1.5,1.7-2c5.3-6.7,8-14,10.6-21C1261.3,1465.3,1264.8,1455.7,1276,1449.2 M1472.6,1270.3
	c-0.2-3.1-0.5-7.5-1-12.8c-1.2-12.9-2.8-31-6.4-46.3c-4.6-19.9-9.2-21.5-22.5-58.2c-3.8-10.6-5.8-16-7.8-23.9
	c-2.6-10.6-2.6-14.6-3.9-14.7c-3.5-0.3-14.4,28.1-11.4,59.2c2.8,30.1,18.1,53.8,21.7,60c2.8,4.9,6.3,9.9,9.7,14.7
	c9.4,13.4,19.2,27.2,16.9,43.6c-0.3,2.8-1.3,4.9-3.2,6.6c-20.3,19.8-36.3,38.6-48.9,57.5c-8.2,12.5-13.5,22.4-17.8,30.4
	c-12.1,22.5-16.4,30.6-57.5,45.4c18.3-27.9,21.2-52.7,22.9-78.3c2.8-3,5.5-6.1,8.1-9.3c13.7-16.7,24.2-35.1,29.9-56
	c4.7-17.4,5.5-34.9-0.2-52.2c-14.4-44.4-58-60.1-91.9-57.3c-7,0.6-13.7,2.9-19.3,7.6c-3.5,3-6.5,6.3-6.8,12.6
	c3.1-1.6,5.2-2.4,6.9-3.8c6.9-5.4,14.8-7.2,23.4-7.2c15,0,29.2,3.6,42.1,10.9c20,11.4,32.5,28.2,35.2,51.6
	c1.4,11.8-0.8,23.2-4.6,34.4c-4.7,14-11.9,26.5-20.8,38c0.8-7.7,1.8-15.6,3.5-23.9l0.2-1l-0.9-0.5c-3-1.8-4.8,0.6-5.4,1.4
	c-4.9,5.8-10.2,11.4-15.3,16.9c-8.6,9.1-17.4,18.5-24.8,29.1c-4.2,6.2-9.1,12.4-13.8,18.3c-3.9,4.9-7.8,9.9-11.5,15.1
	c-21.4,11.8-43.8,20.9-67.1,27.6c-1.5-4.7-3.1-9.2-4.7-13.5c-1.3-2.2-2.8-5.3-4.1-9.3c-2.5-7.6-2.1-12.2-3-12.3
	c-1.7-0.1-4.6,18.2-7.8,36.9c-0.2,1.1-0.4,2.2-0.6,3.2c-4.7,1-9.4,2-14.2,2.8c-22.8,4.1-45.8,4.8-68.7,1.8
	c-37.3-4.8-71.3-18.7-102.8-39.2c-1.3-0.8-2.4-2-4-3.3c3.7-3.3,7.9-4.6,11.7-6.5c57.4-28.6,107.4-66.8,148.7-116
	c29.9-35.6,52.7-75.2,65.9-120c1.6-5.5,3.1-11.1,4.3-16.7h254c-0.4,1.5-0.9,2.9-1.3,4.3l-0.5,1.6c-0.7,3.6-1.7,7.2-2.6,10.7
	c-1.2,4.7-2.5,9.5-3.3,14.3c-1.6,9.1-2.4,18.4-3.2,27.4c-0.2,2.1-1.4,16.5-3.7,30.2c-3.4,20.2-8.7,37.1-16.9,63.4
	C1473.4,1267.7,1472.9,1269.2,1472.6,1270.3 M1614,1149.1c-11.8,19.6-29.7,43.3-56.9,65.2c-3.2,2.6-4.8,3.8-9,7
	c-18.3,14.3-41.4,34-66.9,60.6c5.6-11.2,11.3-20.2,15.9-26.9c12-17.1,23.8-28.3,30.2-34.3c9.9-9.2,14.3-15.4,19.3-16.1
	c7.5-1.1,13-6.7,17.9-11.6c1-1,2-2,3-3c3.9-4.3,6.1-9.6,6.8-16.5c0.2-2.2-0.6-5-2.7-6.7c-5.3-4.3-17.4,2.1-23.6,7.3
	c-1.5,1.3-4.2,3.6-6.6,7.5c-1.1,1.8-2.5,3.1-4.4,12.1c-1.5,6.8-3,13.9-12,21.4c-2.6,2.2-23.4,20-36.1,39.2c-2.6,3.9-4.5,7.3-5.8,9.9
	c2.5-8.9,6.5-22.1,12.9-37.7c9.4-23,16.3-30.7,20.9-45.3c6.5-20.4,7-41.9,7.5-62.6l0-0.4c0-1.5,0.1-3.1,0.3-4.6h57.4
	c-2,6.4-2.9,10.6-2.9,10.6c-5.1,24.8,0,47,1,47c0.4,0,0.4-3.8,1-10c1.8-19.6,6.7-36.2,10.9-47.6h22.7
	C1616.2,1125.6,1616.6,1137.5,1614,1149.1 M1640.1,1130.3c-1-0.8,3.3-6.7,9.1-16.6h8.3C1646.5,1124.5,1641.1,1131.2,1640.1,1130.3
	 M118,893.8h1777.5c2.3,0,4.3-1.9,4.3-4.3c0-2.3-1.9-4.3-4.3-4.3h-88.1c4.2-13,5.3-24.5,5.9-30.7c1.3-13.5-0.5-22.4,4.1-40.3
	c1.4-5.7,3.2-10.9,1.5-11.9c-2.8-1.7-11.2,10.6-28.7,25.1c-7.8,6.5-12.6,9.8-17.8,13.1c-18.6,11.8-32.4,28.2-44.6,44.6h-1.5
	c1.9-13.7,4.1-23.9,6-31c1.1-4.1,3.1-11.5,4.5-21.9c0.5-3.6,0.8-7.4,1.1-11.1c0.7-7.9,1.4-16,4-23.3c33.9-48.2,38-95.3,12.1-140.1
	c-1-1.7-6.8-12-19.1-32.5c-2.1-3.6-3.4-5.6-4.9-5.5c-6.4,0.5-8.6,37.8-8.9,56.9c-0.1,5.6,0,10.2,0.1,13.2l-15.6-27.4
	c-10.7-21.8-14.6-43.3-11.6-63.7c3.5-18,3.6-36.6,3.7-54.6c0-4,0-8.1,0.1-12.1c0.6-47.8-36.9-82-73.6-109.1l-2-1.5
	c-0.3,2.1-0.4,4.3-0.4,6.6c0,12.2,4.4,22.1,8,28.3l0.1,0.1c2.1,3.7,4.3,7.5,6.4,11.1c8.5,14.5,16.6,28.2,20,42.6
	c2.8,11.6,5.6,23.4,8.4,35c2.1,8.5,4.2,17.1,6.4,25.6c-5.1-8.8-10.3-17.6-15.5-26.4c-6-10.2-9.2-15.2-9.7-15.9
	c-0.6-0.7-2.3-2.8-3.7-6c-1.1-2.4-1.5-4.5-1.8-5.9c-5.3-18.5-10.7-37.7-20.4-54.9c-0.6-1-3.6-5.9-7.8-13c-4.5-7.6-8-13.8-10.1-17.6
	c1.8-4.6,5-15,1.7-26.9c-2.9-10.7-11.2-23.3-16.9-22.1c-7.1,1.5-8.9,24.5-4.2,34.2c2,4.1,5.1,7.9,5.1,7.9c2.2,2.7,4.4,4.7,6.1,6.1
	c3,8.2,7.4,16.4,14.1,26.4c11.7,18.2,19.9,36.8,24.4,55.3c-3.4-3.9-6.7-7.9-10-11.9c-10.5-12.7-21.3-25.8-35.6-35
	c-3.7-2.4-6.8-5.9-9.7-10.8c-12.7-25.8-26.8-43.2-44.3-54.9c-6.3-4.2-26.5-10.2-67.2-21.7c-7.2-2-13.1-3.7-17.2-4.8
	c-0.5,9.5,39.4,37.1,39.8,37.4c7.8,5.1,16.3,9.4,24.4,13.5c12.4,6.2,25.2,12.6,35.6,22.2c-10.6-3.5-21.6-5.8-32.2-8.2
	c-17.9-3.9-36.4-7.9-52.6-17c-12.6-7-24.4-12.3-36-16.2c-11.2-3.8-23-5.3-35.9-4.7c-3.2,0.2-5.7-0.1-8.3-1.8
	c-6.5-4.1-40.6-9.9-46.7-2.5l-0.3,0.4l0,0.5c0.3,6.9,4.5,12.7,11.8,16.1c9.7,4.6,22.1,3.8,29.5-1.7c5.9-3.8,12.5-5.6,20.2-5.5
	c19.9,0.3,40.6,7.2,64.9,21.4c-9.2,0-18.8-0.2-28.7-0.7c-5.4-0.3-10.8-0.6-16-1c4-1.3,9.8-2.9,17-4c4.9-0.7,7-0.7,7-1
	c0-0.8-15.1-2.9-32.1,0.5c-2.6,0.5-4.7,1.1-6.2,1.5l-0.2,0c-6.2,2.1-11.1,0.7-17.3-1.2c-1.3-0.4-2.7-0.8-4-1.2c0,0.8,0.2,2,0.8,3.3
	c0.8,1.8,2.1,2.8,2.7,3.3c-32.8,12.9-40.5,9.4-55.3,2.7c-7.6-3.4-17-7.7-32.3-11.2c-1.5-0.3-11.8-2.8-21.3-3.9
	c-14.7-1.7-24.2,0-35.7,0.9c-10.8,0.8-26.4,1.1-46.1-1.9c1.5,1.4,37.3,35.6,69.2,39.6c22,2.7,39.9-0.6,39.9-0.6
	c4.5-0.8,9.1-2,9.3-1.4c0.5,1.5-34,12.8-60,28.3c-2.1,1.2-4.2,2.5-6.2,3.8c-10,6.3-19.5,12.2-31.4,12c-38.1,0.9-81.2,2-115.4,26.1
	c-9.1,6.1-15.7,14.7-21.5,23.1c-2.4,2.2-8.5,13.8-13,23.6c-6.8,14.9-9.2,23.9-7.3,26.7c0.3,0.4,0.6,0.7,1,0.9
	c7.6,4.2,23.2-29.9,56.2-40.3c3.9-1.2,1.5-0.4,13.6-2.7c24.8-4.9,50.5-9.9,69.6-27.6c4.8-4.4,9.3-8.7,9.5-8.4
	c0.3,0.3-9.2,9.8-24.4,26.6c-3,3.3-6.1,6.6-9.1,9.9c-7,7.7-10.9,12-18.9,18.6c-12,9.9-27.7,19.3-47.5,31.3
	c-7.5,4.5-15.3,9.2-23.7,14.4c-7.3,4.5-17.3,10.8-26.8,22.4c-1,1.2-1.6,2.1-2.9,3.8c-9,12-12.9,20.4-18.1,29.5
	c-5.8,10.1-10.1,16-12.7,19.5c-13.7,5.7-26.7,12.9-39.2,21.3c-34.5,23-63.1,52.1-88.1,85c-20.8,27.3-37,56.3-49,86.8H723.9
	c0.6-0.7,1.1-1.3,1.6-1.9c2.3-2.9,4.4-6.3,6.5-10.4c3.8-7.3,6.9-14.1,9.6-20.8c0.9-2.3,1.7-4.8,2.4-6.9c0.3-0.9,0.3-1.7,0.4-2.6
	c0-0.9-0.5-1.6-0.8-1.9c-0.4-0.4-0.9-0.6-1.5-0.5c-0.7,0.1-1.4,0.7-1.8,1.4c-0.3,0.7-0.7,1.4-1,2.1c-0.6,1.3-1.1,2.6-1.7,3.9
	c-1,2.2-1.9,4.4-2.9,6.7c-1.2,2.7-2.4,5.5-3.7,8.2c-3,6.3-5.5,11-8.4,15.1c-1.3,1.9-2.6,3.4-4.1,4.7c-1.3,1.1-2.4,1.9-3.6,2.4
	c-1.4,0.6-1.6,0.3-2.2-0.8c-0.6-1-0.9-2.1-1-3.4c-0.3-4.8,0.1-9.5,1.2-13.9c1.3-5.2,3-10.3,5.1-15.2c1.4-3.2,2.8-6.5,4.2-9.7
	l0.7-1.5c1.5-3.4,2.5-6.3,3.1-9c0.6-2.6,1.1-5.6,0.3-8.8c-0.9-3.9-2.8-6.8-5.6-8.9c-1.1-0.9-2.7-1.9-6.4-3.2c-3.9-1.4-7.2-2-9.6-3.8
	c-0.6-0.4-1.2-1-1.7-1.8c-0.5-0.8-0.7-1.7-0.8-2.8c0-0.5,0-1,0-1.5c0-0.5,0-1,0-1.5c0-0.6-0.1-1.2-0.3-1.7c-0.2-0.4-0.4-0.7-0.8-1
	c-1.3-1.1-3.7-0.5-5,0.7c-1.5,1.4-1.8,3.9-1,7.1c0.6,2.3,0.8,2.9,0.8,3.1c0.3,0.8,0.3,1.4,0.1,2.2c-0.8,3-1.7,6.2-2.7,10.2
	c-1.1,4.4-2.4,9-4,13.5c-1.4,4.3-3.1,9.4-4.9,14.4c-2.9,8.1-6.4,17.5-10.4,26.7c-1.5,3.4-2.9,6-4.6,8.2c-0.7,1-1.4,1.8-2.1,2.4
	c-0.3,0.2-0.6,0.4-0.9,0.6h-1.9c-0.4-0.2-0.9-0.6-1.2-1.1c-0.8-1.1-1.4-2.2-2-3.6c-1.8-4.4-2.3-9.1-2.8-14c-0.1-1.2-0.2-2.3-0.2-3.5
	c0-1.4-0.1-2.8-0.3-4.2c-0.2-1.3,0-2.6,0.1-4c0.1-0.8,0.2-1.6,0.2-2.5c0-0.7,0-1.3,0.1-2c0.1-2.3,0.1-4.8,0.4-7.1
	c0.1-1.1,0.2-2.2,0.3-3.3c0.2-2.2,0.4-4.4,0.7-6.6c0.2-1.1,0.3-2.2,0.4-3.3c0.2-1.7,0.4-3.4,0.7-5c0.4-2.5,0.9-5.1,1.4-7.6
	c0.3-1.8,0.7-3.6,1-5.4c0.7-3.8,1.5-7.7,2.4-11.4c0.3-1.4,0.6-2.8,0.9-4.2c0.3-1.3,0.6-2.6,0.9-4c0.4-1.7,0.9-3.5,1.2-5.3
	c0.3-1.6,0.7-3.2,1-4.8c0.7-2.9,1.3-6,1.8-9c0.1-0.6,0.2-1.2,0.3-1.7c0.3-1.5,0.5-3,0.6-4.6c0-0.4,0-0.8,0.1-1.2l0-0.5
	c0.2-2.3-0.1-4.6-0.9-6.7c-0.3-0.8-0.8-1.6-1.4-2.2c-1.7-1.8-3.7-2.5-5.7-2.2c-2.3,0.4-4.2,1.1-5.9,2.2c-3.1,1.9-5.3,3.6-7.2,5.4
	c-0.5,0.5-1.1,1-1.6,1.5c-2.5,2.3-5.2,4.7-7.5,7.3c-0.8,0.9-1.5,1.7-2.3,2.6c-1.9,2.1-3.8,4.3-5.6,6.5c-2.4,3.1-6.1,7.9-9.6,13.7
	c-1.1,1.9-2.1,3.6-3,5.3c1.6-6.3,3.1-12.6,4.7-18.9l0-0.2c0.5-2.2,1-4.4,1.1-6.7c0.2-3,0.2-6.2,0.1-9.4c-0.1-2.4-0.9-4.9-2.1-7.1
	c-0.7-1.2-1.6-2.5-2.9-3.5c-3.2-2.4-6.8-2.8-10.8-1.3c-2.9,1.1-5.6,2.8-8,5c-1.9,1.7-3.9,3.6-5.8,5.6c-2.6,2.8-5.2,5.7-7.6,8.9
	c-5.6,7.4-10.8,15.4-15.6,24.4c-2.3,4.2-4.9,9.2-7.2,14.4c-0.2,0.5-0.5,1.1-0.8,1.7c-0.6,1.4-1.3,3-2.2,4.9c1-4.3,1.8-7.9,2.3-10.6
	c0.7-3.2,1.1-5.4,1.3-6.4c0.3-1.6,0.6-3.1,0.8-4.1l0.8-4c0.5-2.3,1-4.7,1.4-7.1c0.2-1.4,0.4-2.8,0.6-4.2c0.2-1.3,0.4-2.6,0.6-3.9
	c0.2-1.1,0.3-2.2,0.4-3.3c0,0,0.1-1.1,0.2-2.2c1.5-15.1,0.5-23.8,0.5-23.8c-0.5-4.2-1.2-8.6-3.3-13.9c-1.5-3.9-3.7-7.2-6.5-9.9
	c-4.1-4-9.3-6.2-15.3-6.6c-2.3-0.2-4.6-0.1-7,0.3c-4.2,0.6-8.4,2-12.5,3.9c-6.6,3.2-13,7.7-19.5,13.8c-3.1,2.9-6,5.9-8.6,8.9
	c-3,3.5-5.8,7.2-8.3,10.8c-4.4,6.6-8.3,13.6-11.5,20.7c-2.2,5-4,9.6-5.5,14.1c-1.2,3.7-2.6,7.8-3.4,12.2l-0.3,1.7
	c-0.4,2.3-0.9,4.6-1.2,7c-0.4,2.9-0.6,5.9-0.8,8.8c-0.1,1.7,0,3.4,0.2,5.1c0,0.5,0.1,1.1,0.1,1.6c0.2,3,0.6,5.7,1.1,8.1
	c1.4,6.4,3.3,11.5,5.9,16c2.8,4.8,6.2,8.3,10.4,10.9c4.3,2.5,9.6,3.2,14.3,1.9c3.7-1.1,7-3.2,10.4-6.6c2-2,3.7-4.3,5.3-6.8
	c2.1-3.4,4-7.1,5.6-10.8c1.8-4.3,3.2-8.2,4.3-12.2c2.4-8.6,3.3-15.6,3.8-19.3c0.2-2,0.5-4.2,0.5-4.7c0.5-4.8,0.7-7.2,0.8-10.6
	c0.1-4.5,0.2-8.5-0.3-12.7c0-0.1,0-0.2,0-0.3c-0.1-1.1-0.3-3.9-1.2-7.3c-0.8-3-1.6-5.1-3.5-5.7c-1.3-0.4-3.6-0.4-4.4,1.2
	c-0.2,0.4-0.3,0.8-0.3,1.3c1.3,4.8,1.8,8.6,1.9,11.3c0.2,2.8,0.1,6,0,9.2c0,1.3-0.1,2.8-0.1,4.4c-0.1,2.4-0.2,5-0.6,7.9
	c-0.3,2.9-0.8,6.1-1.4,9.8c-0.5,3.1-1,6.2-1.7,9.2c-1.1,4.7-2.7,11-5.2,17c-1.5,3.5-3.5,8-6.3,12.1c-1.9,2.7-3.8,4.8-6,6.3
	c-3.6,2.5-7.5,3.1-11.6,1.7c-2.5-0.8-4.9-2.4-7.1-4.7c-2-2.1-3.7-4.4-5-7c-1.9-3.7-3.4-7.8-4.4-12.1c-1.1-4.5-1.5-8.1-1.5-11.5
	l0-0.4c0-1,0-2,0-3c-0.1-2.8,0.1-5.8,0.6-9.5c0.5-3.4,1.2-6.7,1.8-9.2c1.9-8.1,4.8-16,8.7-24.3c2.9-6.1,6.6-12.3,11.1-18.7
	c3-4.2,6.5-8.4,11.4-13.7c0.7-0.8,1.5-1.5,2.4-2.3c0.6-0.5,1.2-1.1,1.8-1.6c3.3-3.2,7-6.1,11.6-9c4.2-2.7,8.1-4.6,12-5.9
	c2.9-1,5.9-1.3,9.3-1.7c0.8-0.1,1.6,0,2.5,0.2c0.5,0.1,0.9,0.1,1.4,0.2c2.7,0.3,5.2,1.2,7.7,2.8c2.8,1.8,4.9,4.5,6.7,8.5
	c2,4.4,3.1,9.5,3.4,15.5c0.4,7.6,0.1,13.8-0.8,19.7c-0.2,1.5-0.4,3.1-0.6,4.6c-0.2,1.6-0.4,3.2-0.6,4.8c-0.3,1.7-0.6,3.5-1,5.2
	c-0.3,1.4-0.6,2.7-0.8,4.1c-0.9,4.8-2,9.7-3.1,14.4c-0.4,1.7-0.8,3.5-1.2,5.2c-0.8,3.6-1.7,7.2-2.5,10.7c-0.6,2.4-1.2,4.8-1.7,7.2
	c-1.2,4.9-2.3,9.9-3.5,15.3c-0.6,2.7-1.2,5.5-1.7,8.2l-0.3,1.6c-0.6,3.1-1.3,6.2-1.9,9.3c-0.4,2-0.8,4.1-1.1,6.2
	c-0.2,1.6-0.4,3.1-0.7,4.7c-0.2,1.3-0.4,2.6-0.6,3.9c-0.4,3.2-0.4,6.4-0.4,9.5v0.4c0,0.2,0,0.3,0,0.5H298c0.1-5.7,0.8-9.9,1.4-11.5
	c5.1-13.3,15.7-26.1,26.8-39.7c11.5-13.9,24.5-29.7,33.7-48.7c16.7-34.6,11.2-67,6.4-95.5c-1.7-10-5-20.2-9.5-20.6
	c-5.3-0.4-7.3,13-23.3,32.8c-6.3,7.8-13,15.2-13,15.2c-6.2,6.5-12.5,13.3-19.2,24.4c-11.2,18.6-17.9,40.7-20.1,65.8
	c-3.5-25.1-0.1-50.6,3.8-74.7c3.2-20.2,10.2-38.2,21.4-55c0.9-1.3,1.8-2.6,2.7-3.9c-1.7,8.9-3.6,17.9-5.7,26.8
	c-1,4.2-3.9,12.7-6.4,24.6c-1.3,6-2.1,9.9-1.5,10.1c1.2,0.4,7.7-13.8,12.3-27.8c3.8-11.6,5.6-21.8,7.2-28.3
	c2.6-10.9,5.4-22.1,7.6-29.8c2.2-7.7,6.3-13.2,12.9-17.4c12-6.4,25.5-10.7,38.6-14.8c23.1-7.3,47-14.8,63.9-34.4
	c7.7-9,31.2-32.9,32.3-66.9c0.2-4.7-0.1-8.7-0.4-11.4c-10.4,16.7-21.2,25.9-28.9,31.1c-3.5,2.4-11,7.4-19.8,12
	c-8.9,4.7-19.1,10-32.5,20.1c-3.9,3-7.9,6.1-11.8,9.1c-15.4,11.7-31.3,23.8-44.7,38.2c0.8-2.3,1.8-4.6,2.9-7
	c1.3-2.8,2.6-5.7,3.5-8.7c2.8-7.7,8.1-14.2,16-20c8.2-6,17.5-11,26.4-15.8c15.9-8.5,32.3-17.3,43.5-32.1c3.4-4.6,7.1-8.6,13.6-17.5
	c13.6-18.6,29.6-44,26.9-46.1c-0.3-0.3-1.1-0.3-3.1,1c-8.1,2.6-18.1,6.3-29.2,11.7c-5.9,2.9-9,4.3-12.9,7c0,0-15,10.1-22.9,23.5
	c-0.5,0.9-1,1.7-1.5,2.6c-1.8,3.2-3.8,6.5-5.9,9.5c-6.9,9.7-14.7,19.7-23.7,30.5c-1.2,1.5-2.4,3-3.6,4.5c-2.7,3.5-5.5,7.1-8.5,10
	c9.9-20.2,21.6-37.3,38.8-57c2.9-3.3,5.7-6.8,8.4-10.1c7.9-9.7,16.1-19.7,26.5-26.8c1.3-0.8,2.6-1.8,4-2.8
	c14.5-10,38.7-26.8,65-22.6c8.2,1.3,11.4,3.8,17.7,8.6c6.6,5.1,16.5,12.7,39,23.8c13.4,6.6,29.5,13.8,49.7,14.4
	c8.1,0.3,16.2-0.7,23.8-2.9c9.2-2.6,28.8-10.7,27.4-17.7c-0.3-1.6-1.6-2.8-3.9-3.8l-0.1-0.1c-3-0.9-6.1-1.9-9.1-2.8
	c-10.9-3.5-24.4-7.8-39.3-14.2c-7-3-10.8-4.9-14.1-6.7c-3.9-2-7.2-3.7-14.5-6.5c-3.8-1.4-7.1-2.5-9.8-3.4
	c19.6,3.3,59.6,12.6,79.4,21.5c1.2,0.5,1.4,0.9,1.4,1c5.8,13.1,21.3,20.2,35.9,16.5c3.4-0.6,9.1-3.3,10.5-7.1
	c0.5-1.3,0.7-3.2-1.1-5.4l-0.1-0.1c-7.9-7.7-19.8-8.4-30.3-9l-2.2-0.1l-0.1,0c-3.5,0-7.5-0.2-11.2-2.5l-0.1-0.1
	c-14.6-7-27.9-13-42.4-16c-5.7-1.3-11.4-2.1-16.8-2.9c-2.8-0.4-5.5-0.8-8.4-1.3c9.4,0.2,18.4,0.2,28.3-1.6c9.3-0.2,18.6,3,27.5,6
	c5.4,1.8,11,3.7,16.6,4.9c12.8,2.9,25.4,7.4,37.6,11.7c4.8,1.7,9.9,3.5,14.8,5.2c16.3,5.3,31.2,17.9,43.2,36.6
	c6.1,9.6,11.4,20,16.5,30c3.5,7,7.2,14.2,11.1,21.1c1.4,2.6,2.1,4.6,2.3,6.8c0.1,1.6,2.1,15.2,11.7,21.6c0.9,0.6,8.7,5.7,12.9,2.8
	c4.2-2.9,2.9-12.4-0.4-18.2c-3.9-6.8-11.9-11-14.8-11.5c-0.9-0.2-1.6-0.4-2.3-0.8c-1.9-1.1-2.8-2.8-3.2-3.5c-0.5-1-1.9-3.6-3.7-7.2
	c-6.5-12.6-18.6-36.1-24.2-45.4c-3.3-5.4-7.2-10.5-11.6-15.3c29.7,15.7,54.3,36.5,73.2,62c1.4,1.9,3.1,4,4.9,6.2
	c8.2,10.1,18.4,22.8,21,41.7c0.9,6.8,1.4,13.9,1.9,20.7c1,14,2,28.4,6.8,42c9.3,26,19,27.7,48.3,70.3c0.6,0.9,8.9,13,24,20.6
	c5.5,2.8,6.7,2.3,7.2,1.9c3.7-3.2-12.2-21.3-19.3-53.4c-1-4.7-0.5-3.2-1.8-10.1c-5.4-28.1-13.4-49.6-24.5-65.8
	c-1-1.4-5.7-7.6-12.3-15.7c-4.5-5.5-8.7-10.3-12.1-14.2c3.3,2.7,7.2,5.7,11.8,8.9c0.6,0.4,1.8,1.1,3.4,2c4.5,2.5,12,6.8,16.4,10.9
	c2.5,2.3,4.9,4.9,4.9,4.9l0,0c0.3,0.3,2.7,3,4.9,5.9c1.7,2.2,4.8,7.1,8.9,13.3c5,7.7,19.2,30.1,30,41.9
	c20.5,22.4,50.4,32.6,53.6,28.3c1.6-2-4.3-5.7-15.3-25c-5.2-9.1-9.1-17.5-18.1-29.5c-1.3-1.7-1.9-2.5-2.9-3.8
	c-9.4-11.6-19.5-17.8-26.8-22.4c-8.4-5.2-16.2-9.9-23.7-14.4c-19.8-12-35.5-21.4-47.5-31.3c-8-6.6-11.9-10.8-18.9-18.6
	c-3-3.3-6.1-6.6-9.1-9.9c-15.2-16.8-24.7-26.3-24.4-26.6c0.2-0.2,4.7,4,9.5,8.4c19.1,17.7,44.7,22.7,69.6,27.6
	c12.1,2.4,9.6,1.5,13.6,2.7c33,10.5,48.7,44.5,56.2,40.3c0.4-0.2,0.7-0.5,1-0.9c2-2.8-0.5-11.8-7.3-26.7c-4.5-9.8-10.6-21.4-13-23.6
	c-5.8-8.4-12.4-17-21.5-23.1c-34.2-24.1-77.3-25.1-115.4-26.1c-11.9,0.2-21.4-5.7-31.4-12c-2-1.3-4.1-2.6-6.2-3.8
	c-26-15.5-60.5-26.7-60-28.3c0.2-0.6,4.8,0.6,9.3,1.4c0,0,17.9,3.3,39.9,0.6c31.8-3.9,67.7-38.2,69.2-39.6
	c-19.6,2.9-35.3,2.7-46.1,1.9c-11.4-0.9-20.9-2.7-35.7-0.9c-9.5,1.1-19.8,3.6-21.3,3.9c-15.3,3.5-24.7,7.8-32.3,11.2
	c-14.8,6.7-22.5,10.2-55.3-2.7c0.7-0.5,1.9-1.5,2.7-3.3c0.6-1.3,0.8-2.5,0.8-3.3c-1.3,0.4-2.7,0.8-4,1.2c-6.2,1.8-11.2,3.3-17.3,1.2
	l-0.2,0c-1.5-0.4-3.7-1-6.2-1.5c-16.9-3.4-32.1-1.3-32-0.5c0,0.3,2.1,0.3,7,1c7.2,1.1,13,2.7,17,4c-5.2,0.4-10.6,0.7-16,1
	c-9.9,0.5-19.5,0.7-28.7,0.7c24.2-14.3,45-21.1,64.9-21.4c7.7,0,14.3,1.8,20.2,5.5c7.4,5.6,19.8,6.3,29.5,1.7
	c7.3-3.5,11.5-9.2,11.8-16.1l0-0.5l-0.3-0.4c-6.1-7.4-40.2-1.6-46.7,2.5c-2.5,1.7-5,2-8.3,1.8c-12.9-0.7-24.7,0.9-35.9,4.7
	c-11.7,4-23.5,9.3-36,16.2c-16.2,9.1-34.7,13.1-52.6,17c-10.7,2.3-21.7,4.7-32.2,8.2c10.4-9.6,23.2-16,35.6-22.2
	c8.2-4.1,16.6-8.3,24.4-13.5c0.4-0.3,40.3-27.9,39.8-37.4c-4,1.1-10,2.7-17.2,4.8c-40.7,11.5-60.9,17.5-67.2,21.7
	c-17.5,11.7-31.6,29.2-44.3,54.9c-2.9,5-6,8.4-9.7,10.8c-14.3,9.2-25.1,22.3-35.6,35c-3.2,3.9-6.5,8-10,11.9
	c4.4-18.6,12.6-37.2,24.4-55.3c6.7-10,11.1-18.2,14.1-26.4c1.7-1.4,3.9-3.4,6.1-6.1c0,0,3.1-3.8,5.1-7.9c4.7-9.7,2.9-32.7-4.2-34.2
	c-5.6-1.2-14,11.4-16.9,22.1c-3.3,11.9,0,22.3,1.7,26.9c-2.1,3.8-5.6,10-10.1,17.6c-4.1,7.1-7.2,12-7.8,13
	c-9.6,17.2-15.1,36.4-20.4,54.9c-0.2,1.4-0.7,3.5-1.8,5.9c-1.4,3.2-3.2,5.3-3.7,6c-0.6,0.7-3.7,5.7-9.7,15.9
	c-5.2,8.8-10.4,17.6-15.5,26.4c2.1-8.5,4.3-17.1,6.4-25.6c2.8-11.6,5.7-23.3,8.4-35c3.4-14.5,11.5-28.2,20-42.6
	c2.1-3.6,4.3-7.4,6.4-11.1l0.1-0.1c3.7-6.2,8.1-16,8-28.3c0-2.3-0.2-4.5-0.4-6.6l-2,1.5c-36.8,27.1-74.2,61.3-73.6,109.1
	c0.1,4,0.1,8,0.1,12.1c0.1,18,0.2,36.6,3.7,54.6c3.1,20.4-0.8,41.9-11.6,63.7l-15.6,27.4c0.1-3.1,0.2-7.7,0.1-13.2
	c-0.3-19.1-2.5-56.3-8.9-56.9c-1.5-0.1-2.8,1.9-4.9,5.5c-12.2,20.5-18.1,30.8-19.1,32.5c-25.9,44.8-21.8,91.9,12.1,140.1
	c2.6,7.3,3.3,15.4,4,23.3c0.3,3.7,0.6,7.4,1.1,11.1c1.5,10.4,3.5,17.8,4.5,21.9c1.9,7,4.1,17.2,6,31h-1.5
	c-12.2-16.5-26-32.8-44.6-44.6c-5.2-3.3-9.9-6.6-17.8-13.1c-17.4-14.5-25.9-26.8-28.7-25.1c-1.7,1,0.1,6.2,1.5,11.9
	c4.6,17.8,2.8,26.7,4.1,40.3c0.6,6.1,1.7,17.6,5.9,30.7H118c-2.3,0-4.3,1.9-4.3,4.3C113.7,891.8,115.6,893.8,118,893.8
	 M1374.3,873.7c0.3,1.3,1.3,2.3,2.5,2.7c0.8,0.3,1.7,0.3,2.4,0c0.7-0.3,1.2-0.9,1.5-1.7c0.2-0.6,0.3-1.2,0.4-1.7l0-0.3
	c0.2-1.3,0.4-2.6,0.5-3.8c0.3-2.6,0.7-5.2,1.2-7.8c3.3-16.3,8.7-31.7,16-46.1c6.9-13.4,13.2-21.6,21.6-32.6
	c9.7-12.6,12.8-14.4,14.1-13.8c1.4,0.7,0.8,4.6,0.5,6.4c-3,17.7-11.6,55.2-14.6,72.3c-0.7,4.2-1.9,11.1-0.2,24.5
	c0.4,3.5,1.1,7.5,3.1,11.4c0.4,0.8,0.9,1.5,1.3,2.1h-95.8c0-0.5,0-1,0-1.5c0.1-1.3,0.3-2.7,0.4-4c0.1-0.7,0.2-1.4,0.3-2.2
	c1.5-13.8,3.9-26.4,7.2-38.4l0.5-1.8c2.1-7.7,4.3-15.7,7.4-23.2c5.3-12.9,11.3-23.4,18.3-32.3c5.1-6.5,10.1-11.1,15.6-14.7
	c2.3-1.5,4.2-2.6,6.4-3.2c1.1-0.3,2.2-0.5,3.4-0.5c1.1,0,1.8,0.5,2.2,1.5c0.3,0.8,0.6,1.7,0.7,2.4c0.1,2.2,0.1,4.7-0.1,7.1
	c-0.6,6.8-2.1,13.6-3.5,19.4c-5.8,24-9.8,44.1-12.6,63.4c-0.6,3.9-0.9,7.8-1.2,11.6l-0.1,1C1373.7,871.3,1374,872.5,1374.3,873.7
	 M1570.6,873.5c-0.9,4.5-2.4,8.4-4.7,11.7h-36.4c-0.8-3.5-0.4-7.2,1.2-11.2c1.6-4,4.1-7.8,7.5-11.2c5-5,10.9-9.2,17.5-12.3
	c0.6-0.3,1.6-0.8,2.9-1.1c3.2-0.9,6.1-0.5,7.9,0l-0.4-1.8c-0.8-3.2-3.5-3.6-4.4-3.7c-2-0.3-4.2,0.1-6.6,1
	c-9.5,3.7-17.4,9.3-23.4,16.6c-4.8,5.8-7.6,12.2-8.3,19c-0.2,1.6-0.1,3.2,0.1,4.8h-27.6c0.6-0.4,1.3-0.8,1.8-1.2
	c3-2.3,5.3-4.4,7.3-6.5c3.6-3.8,6.4-7.1,8.8-10.3c6.9-9.2,12.8-17.4,18.1-25c5.1-7.3,10.2-14.8,15.2-22.1c2.5-3.6,4.9-7.2,7.4-10.9
	c0.8,5,2.2,10,4.3,15.2c1.4,3.5,2.9,7.1,4.4,10.5l0.7,1.6c1.9,4.4,4,9.7,5.5,15.2C1571.5,859.7,1571.9,866.7,1570.6,873.5
	 M1479.2,875.5c0.4,2.4,1,5.2,2.6,7.6c0.5,0.8,1.1,1.5,1.8,2.1h-44.5c1.5-1.2,2.8-2.6,4-4.2c1.6-2.3,3.8-5.3,5.6-8.5
	c3.5-6,6.3-12.3,9.1-18.5l1.1-2.5c7.7-17.1,12.9-33.5,15.8-50c1.6,1.8,3.6,3.4,6.3,5.1c0.6,0.3,1.1,0.7,1.7,1
	c1.2,0.7,2.3,1.4,3.4,2.1c1.6,1.1,2.8,2.1,3.8,3.2c1.4,1.4,2.1,3.3,2,5.4c0,2.1-0.5,4.2-1.3,6.7c-1.4,4-2.9,8.2-4.5,12.6
	c-3.6,9.5-5.6,17.1-6.6,24.4C1478.8,866.9,1478.5,871.1,1479.2,875.5 M1165.4,648.1c4.9-13.6,5.9-28.1,6.8-42
	c0.5-6.8,1-13.9,1.9-20.7c2.6-19,12.8-31.6,21-41.7c1.8-2.2,3.4-4.2,4.9-6.2c18.9-25.5,43.5-46.3,73.2-62
	c-4.5,4.8-8.4,9.9-11.6,15.3c-5.6,9.3-17.7,32.8-24.2,45.4c-1.8,3.6-3.2,6.2-3.7,7.2c-0.4,0.7-1.3,2.4-3.2,3.5
	c-0.7,0.4-1.4,0.7-2.3,0.8c-2.8,0.5-10.9,4.7-14.8,11.5c-3.3,5.8-4.6,15.3-0.4,18.2c4.2,2.9,12-2.2,12.9-2.8
	c9.7-6.5,11.6-20,11.7-21.6c0.2-2.2,0.9-4.2,2.3-6.8c3.9-6.9,7.6-14.1,11.1-21.1c5.1-10,10.4-20.4,16.5-30
	c12-18.7,27-31.3,43.2-36.6c5-1.7,10-3.5,14.8-5.2c12.2-4.3,24.8-8.8,37.6-11.7c5.6-1.2,11.2-3.1,16.6-4.9c8.9-3,18.2-6.2,27.5-6
	c9.9,1.8,18.9,1.7,28.3,1.6c-2.8,0.5-5.6,0.9-8.4,1.3c-5.4,0.8-11.1,1.6-16.8,2.9c-14.5,3-27.7,9-42.4,16l-0.1,0.1
	c-3.7,2.3-7.8,2.6-11.2,2.5l-0.1,0l-2.2,0.1c-10.5,0.6-22.5,1.3-30.3,9l-0.1,0.1c-1.7,2.1-1.5,4.1-1.1,5.4c1.4,3.8,7.1,6.5,10.5,7.1
	c14.6,3.7,30.1-3.4,35.9-16.5c0-0.1,0.2-0.4,1.4-1c19.8-8.9,59.8-18.2,79.4-21.5c-2.7,0.9-6,2-9.8,3.4c-7.3,2.8-10.6,4.5-14.5,6.5
	c-3.3,1.7-7.1,3.6-14.1,6.7c-14.9,6.4-28.4,10.7-39.3,14.2c-3,1-6.1,1.9-9.1,2.8l-0.1,0.1c-2.3,0.9-3.6,2.2-3.9,3.8
	c-1.4,7,18.3,15.1,27.4,17.7c7.7,2.2,15.7,3.2,23.8,2.9c20.2-0.6,36.3-7.8,49.7-14.4c22.5-11.1,32.4-18.8,39-23.8
	c6.3-4.8,9.4-7.3,17.7-8.6c26.3-4.2,50.5,12.5,65,22.6c1.4,1,2.8,1.9,4,2.8c10.4,7,18.6,17.1,26.5,26.8c2.7,3.4,5.6,6.8,8.4,10.1
	c17.2,19.7,28.9,36.9,38.8,57c-3-3-5.8-6.6-8.5-10c-1.2-1.5-2.4-3.1-3.6-4.5c-9.1-10.8-16.8-20.8-23.7-30.5c-2.1-3-4-6.3-5.9-9.5
	c-0.5-0.9-1-1.7-1.5-2.6c-7.9-13.5-22.9-23.5-22.9-23.5c-4-2.6-7-4.1-12.9-7c-11.1-5.3-21.1-9.1-29.2-11.7c-2-1.3-2.8-1.3-3.1-1
	c-2.7,2.1,13.4,27.5,26.9,46.1c6.5,8.9,10.2,12.9,13.6,17.5c11.2,14.9,27.6,23.7,43.5,32.1c9,4.8,18.3,9.8,26.4,15.8
	c7.9,5.7,13.1,12.3,16,20c0.9,2.9,2.2,5.9,3.5,8.7c1.1,2.4,2.1,4.7,2.9,7c-13.4-14.4-29.3-26.5-44.7-38.2c-3.9-3-7.9-6-11.8-9.1
	c-13.4-10.1-23.6-15.4-32.5-20.1c-8.8-4.6-16.3-9.7-19.8-12c-7.6-5.2-18.4-14.4-28.9-31.1c-0.3,2.7-0.6,6.7-0.4,11.4
	c1.1,34,24.6,57.9,32.3,66.9c16.8,19.6,40.7,27.1,63.9,34.4c13.1,4.1,26.6,8.4,38.6,14.8c6.6,4.2,10.7,9.7,12.9,17.4
	c2.2,7.7,5,18.9,7.6,29.8c1.6,6.5,3.4,16.7,7.2,28.3c4.6,14.1,11.1,28.2,12.3,27.8c0.6-0.2-0.2-4.1-1.5-10.1
	c-2.5-11.9-5.4-20.4-6.4-24.6c-2.1-8.9-4.1-17.9-5.7-26.8c0.9,1.3,1.8,2.6,2.7,3.9c11.2,16.9,18.2,34.9,21.4,55
	c3.9,24.2,7.2,49.6,3.8,74.7c-2.2-25.1-9-47.2-20.1-65.8c-6.7-11.1-13.1-17.9-19.2-24.4c0,0-6.7-7.4-13-15.2
	c-16-19.9-18-33.2-23.3-32.8c-4.6,0.4-7.8,10.6-9.5,20.6c-4.8,28.5-10.3,60.9,6.4,95.5c9.1,19,22.2,34.8,33.7,48.7
	c11.2,13.6,21.8,26.4,26.8,39.7c0.6,1.6,1.4,5.9,1.4,11.5h-138.2c0.7-1.2,1.3-2.4,1.8-3.6c2.3-5,3.4-10.5,3.6-16.7
	c0.1-5.4-0.7-11-2.8-17.8c-1.8-6-4.4-11.7-7.1-17.5l-0.3-0.6c-2.1-4.5-4.3-9.1-6.3-13.7c-2-4.6-3.1-9.7-3.6-15.7
	c-0.1-1.5,0.2-2.7,1-3.9c1.6-2.5,3.2-5.1,4.5-7.8c0.9-1.7,1.4-3.6,1.7-5.1c0.3-1.3,0-2.7-0.3-3.4c-0.4-1.4-1.5-2.5-2.8-3.1
	c-1.3-0.6-2.7-0.6-4.1,0.1c-1.3,0.6-2.5,1.5-3.3,2.6c-1,1.4-2,3-2.8,4.8c-1.7,3.8-2.7,8-2.9,13c-0.1,1.2-0.4,2.2-1.1,3.3
	c-2,3-4,6-6,9c-3.5,5.3-7.2,10.8-10.9,16.2c-10.2,14.7-18.9,27-28.2,39c-2.3,3-4.9,6-8.4,9.9c-1.7,1.8-3.6,3.4-5.2,4.8
	c-0.9,0.7-2.1,1.4-3.3,1.9c-1.7,0.7-2.3,0.4-3.1-1.3c-0.3-0.7-0.5-1.6-0.7-2.4c-0.8-3.7-0.2-7.5,0.3-10.7c1.3-7.6,3.9-14.8,6.4-21.5
	c2.1-5.6,3.9-10.6,5.6-15.8c0.8-2.4,1.3-5,1.7-8.2c0.6-5.1-1-9.7-4.7-13.1c-1.7-1.6-3.7-3-5.4-4.1c-1.8-1.2-3.7-2.3-5.8-3.4
	c-4.6-2.3-7.1-6.2-7.6-11.8c0-0.1,0-0.2,0-0.4c0-0.3,0-0.7-0.1-1.1c-0.1-0.6-0.3-1.2-0.7-1.8c-0.7-1.1-1.8-1.7-3-1.7h0
	c-1.2,0-2.3,0.6-3,1.7c-0.5,0.7-0.6,1.6-0.7,2.2c-0.1,0.5-0.1,0.9-0.1,1.3c0,0.4,0,0.8-0.1,1.1c-1.7,9.8-4.2,22.8-8.6,35.3
	c-3.9,11.1-8.7,22.6-14.7,35.3c-1.9,3.9-3.8,7.7-5.7,11.1c-1.2,2-2.6,4.1-4.6,6.6c-0.9,1.1-2,2.1-3.4,3.1c-0.7,0.5-1.2,0.7-1.5,0.6
	c-0.3-0.1-0.7-0.6-1.1-1.3c-0.9-1.8-1.4-3.4-1.6-4.8c-0.6-4.1-0.9-7.4-1-10.6c-0.2-7.3,0.7-14.4,1.6-21.1
	c1.4-10.2,3.6-21.3,6.7-35.1c2.1-8.9,4.1-18,5.9-26.9c0.7-3.4,1.4-7.5,1.2-11.6c-0.1-2-0.4-3.8-1-5.3c-1.3-3.4-4.6-5-8.1-3.9
	c-1.8,0.6-3.2,1.4-3.8,1.8c-16.9,13.1-30.9,37-30.9,37c-1.6,2.7-3.9,6.8-6.5,11.8c0.1-0.6,0.3-1.6,0.6-2.7c1.7-7.8,3.4-16,4.6-24.1
	c0.7-4.5,1.3-9.9,0.7-15.4c-0.2-2.2-0.7-4.3-1.4-6c-1.7-4.4-5.9-6.7-10.5-5.7c-2,0.4-4,1.1-6.5,2.2c-3.2,1.4-6,3.5-8.6,5.5
	c-4.4,3.5-8.6,7.9-13.1,13.7c-4.4,5.7-8.4,12-12.1,19c0.1-1,0.3-1.9,0.4-2.9c1.4-9.7,1.9-18.1,1.7-25.9c-0.3-8.8-1.6-16.4-4-23.5
	c-1.7-4.9-3.8-8.9-6.4-12.2c-5.4-6.9-12.6-9.5-21.3-7.7c-3.8,0.8-7.7,2.4-11.8,4.8c-5.8,3.3-11.1,7.5-16.4,12.7
	c-13,12.9-23.6,28.4-31.6,45.9c-6.9,15.3-10.7,29.3-11.5,42.9c-0.5,7.8,0.5,14.7,2.9,21.2c1.2,3.2,2.6,5.8,4.4,7.9
	c2.5,3,5.6,4.8,9.2,5.3c2.4,0.3,4.8-0.1,7.6-1.2c2.6-1,5.1-2.7,7.7-5.2c2.8-2.7,5.3-5.9,8.1-10.5c4.5-7.4,8.1-15.7,11.1-25.2
	c3.2-10.1,5.3-20.9,6.6-32.9c0.6-5.1,0.8-10.3,0.6-15.3c-0.1-2.6-0.3-5.4-1.2-8.1c-0.2-0.5-0.4-1.8-1.5-2.8c-0.3-0.2-1.1-1-1.8-0.8
	c-0.6,0.1-0.9,0.8-1,1c-1.4,2.9,0,15.1-0.4,22.5c0,0.5-0.1,1.9-0.3,3.6c-0.3,2.8-0.7,5.3-1.3,8.4c-2.1,12-4.5,21-7.5,29.3
	c-3,8-6.4,14.7-10.4,20.6c-2.2,3.2-4.5,5.7-7,7.7c-1.8,1.4-3.4,2.3-5,2.8c-3.7,1.1-6.8,0.3-9.3-2.5c-1.3-1.4-2.4-3.2-3.3-5.4
	c-1.8-4.1-2.8-8.5-3-13c-0.3-6.1,0.1-12.3,1.3-18.5c2.6-13.3,7.4-26.3,14.2-38.8c7.4-13.4,15.8-24.7,25.5-34.4
	c5.8-5.8,11.7-10.2,18-13.4c2.9-1.5,5.5-2.4,8.2-2.9c6-1.2,10.5,0.6,13.8,5.3c1.6,2.2,2.9,4.7,3.9,7.5c2.4,6.3,3.7,13,4.1,20
	c0.4,9.1-0.3,18.8-2.3,30.6c-1.7,10.1-4.1,19.9-7.1,31.6c-3.2,12.5-6.9,27.4-9.1,42.8c-0.6,4-1.1,8.8-0.7,13.6
	c0,0.6,0.1,1.2,0.3,1.8h-253.8c12.3-13.6,23.9-27.8,34.5-43c16.1-23.1,29.2-47.7,37.9-74.6c4.3-13.1,6.7-26.5,5.5-40.3
	c-1-11.8-5.1-21.8-12.5-29.7C1150.2,674.2,1157.9,669,1165.4,648.1 M1075.6,669.4c10.8-11.8,25-34.2,30-41.9
	c4-6.2,7.2-11.1,8.9-13.3c2.2-2.9,4.6-5.6,4.9-5.9l0,0c0,0,2.4-2.6,4.9-4.9c4.4-4.1,11.9-8.3,16.4-10.9c1.6-0.9,2.8-1.6,3.4-2
	c4.6-3.2,8.5-6.2,11.8-8.9c-3.4,3.9-7.5,8.7-12.1,14.2c-6.6,8.1-11.4,14.3-12.3,15.7c-11.1,16.2-19.1,37.7-24.5,65.8
	c-0.5,2.5-0.7,3.9-0.9,4.9c-3-0.9-6.1-1.6-9.2-2.2c-11.3-2-22.4-1.4-33.5,0.6C1067.6,677.3,1071.8,673.6,1075.6,669.4 M978.8,733.6
	c19.6-16.3,41.3-29.2,65.5-37.6c10.5-3.6,21.2-5.7,32.2-6.8c9.4-0.9,18.6,0.2,27.5,3.1c-7.5,29.1-21.6,45.5-18.1,48.5
	c0.5,0.4,1.7,0.9,7.2-1.9c15.1-7.6,23.4-19.7,24-20.6c3.1-4.5,6-8.6,8.7-12.2c6.6,8,9.6,18.6,8.9,31.8c-0.5,10-2.8,19.7-5.9,29.3
	c-9.1,27.5-23.1,52.3-40.1,75.6c-11,15-23,29.1-35.7,42.5H872.1C893.8,825.1,929.6,774.6,978.8,733.6 M678.6,876
	c2.2-5.1,4.5-10.7,6.9-16.9c2-5.3,3.7-9.7,5.2-13.8c2.1-5.7,3.8-11,5.3-16.2c1.4-4.7,2.7-9.4,3.8-14.1c0.2-0.8,0.4-1.5,0.6-2.3
	c2.3,1.5,4.2,2.3,5.5,2.8c3.9,1.5,6.3,1.4,9.1,3.5c1.1,0.8,2,1.8,2.6,3.1c0.3,0.7,0.5,1.5,0.5,2.3c0.1,1.8,0,4-0.8,6
	c-0.3,0.7-0.5,1.3-0.8,2c-0.3,0.8-0.5,1.5-0.9,2.2c-1.4,3.3-3,6.6-4.7,10.2c-3,6.5-5.1,12.4-6.3,18.2c-0.8,3.8-1.2,7.1-1.2,10.2
	c0,1.3,0.1,2.5,0.3,3.7c0.1,0.5,0.1,1,0.2,1.5c0.2,2,0.7,3.8,1.2,5.4c0.2,0.5,0.4,1,0.6,1.5h-32.1C675.4,882.7,677,879.7,678.6,876
	 M553.8,885.2c0.4-1.5,0.5-2.4,0.7-3.8c0.1-1,0.3-2.3,0.6-4.3c0.1-0.9,0.3-1.8,0.5-2.7c0.8-4.3,1.8-8.8,2.9-13.6
	c1.5-6.6,3.2-12.6,5-18.2c1.1-3.3,2.3-6.7,3.5-9.9l0.3-0.9c2-5.7,4.5-11.5,7.3-17.6c2.1-4.5,3.9-8.1,5.6-11.4
	c2.6-4.9,5.4-9.8,8.8-15c4.1-6.5,8.1-11.9,12.1-16.7c2.8-3.3,5.8-6.2,8.4-8.7c0.7-0.6,1.3-1.1,1.9-1.5c1.3-0.7,2.5-1.5,3.8-2
	c1.5-0.6,2.5-0.2,3.2,1.3c0.6,1.1,0.9,2.4,1,3.8c0.3,5.2-0.7,10.4-1.8,15.1c-1.2,4.8-2.5,9.5-3.9,14.2c-0.8,2.8-3.1,10.5-5.2,18.4
	c0,0-2.9,10-5.3,21.9c-0.7,3.4-1.2,6.5-1.8,9.6c-0.2,1-0.3,2-0.4,2.9c-0.1,0.6-0.2,1.2-0.2,1.8c-0.5,3.5-0.8,6.3-0.8,8.9
	c0,3.3,0.8,6.1,2.5,8.4c0.3,0.4,0.4,0.7,0.4,1c0,0.6,0.1,1.3,0.2,2c0.2,0.8,0.9,1.5,1.7,1.6c0.6,0.1,1.2,0,1.8-0.3
	c0.7-0.4,1-1.1,1.1-1.4c0.2-0.8,0.5-1.5,0.6-2.3l0.5-2.6c0.5-2.7,1-5.5,1.5-8.3c0.7-4.7,1.7-9.3,2.6-13.1c2-9,5.3-18.2,9.9-28.2
	c2.3-5,4.9-10,7.9-14.9c3.8-6.3,8.1-12.3,13.3-18.5c3.1-3.8,6.8-7.6,11.1-11.7c1.2-1.2,2.7-2.4,4.5-3.9c1-0.8,1.9-1.5,2.9-2
	c0.4-0.2,0.7-0.4,1-0.6c0.8-0.5,1.2-0.7,1.8-0.8c0.2,0,0.3,0,0.4,0c0.3,0.1,1,1.1-2.8,15.4c-0.4,1.5-0.8,3.2-1.7,6.5
	c-0.6,2.2-1.2,4.5-1.8,6.8c-0.4,1.8-0.9,3.5-1.3,5.3c-1.9,7.3-3.8,14.9-5,22.5c-0.2,1-0.3,1.9-0.5,2.9c-0.3,2-0.7,4.2-1,6.3
	c-0.1,0.7-0.1,1.4-0.2,2.1c-0.1,1.1-0.2,2.1-0.4,3.1c-0.3,1.4-0.3,2.7-0.4,4.1c-0.1,1.4-0.1,2.8-0.4,4.1l0,0.3c0,1.5,0,2.9-0.1,4.4
	c-0.1,4.7-0.2,9.5,0.4,14.3c0.3,2.8,0.7,5.3,1,7.7c0.5,3.4,1.4,7,2.7,10.9c0.8,2.3,1.8,4.5,3,6.6c0.1,0.2,0.2,0.3,0.3,0.5
	L553.8,885.2C553.8,885.2,553.8,885.2,553.8,885.2"/>
</svg>
