<?xml version="1.0" encoding="utf-8"?>
<!-- Generator: Adobe Illustrator 23.0.2, SVG Export Plug-In . SVG Version: 6.00 Build 0)  -->
<svg version="1.1" id="Слой_1" xmlns="http://www.w3.org/2000/svg" xmlns:xlink="http://www.w3.org/1999/xlink" x="0px" y="0px"
	 viewBox="0 0 864 864" style="enable-background:new 0 0 864 864;" xml:space="preserve">
<style type="text/css">
	.st0{fill:#1D1D1B;}
</style>
<path class="st0" d="M701.4,273.5c-33.9-15.7-72.9-28.1-115.2-37c2.3-5.2,4.1-10.3,5-14.6c2.8-13.6-0.8-22.9-8.9-22.9
	c-1.5,0-2.8,0.3-3.9,0.8c-6.1,2.6-13.5,11.2-17.5,20.5l-1.3,2.9l-0.9-2.4c-4.1-11.1-9.6-15.6-15.8-12.7c-3.5,1.7-6.4,5.7-8,11.4
	c-0.5,1.8-0.8,4.8-0.9,8c-34.9-4.7-71.4-7.1-108.7-7.1c-104.3,0-202.4,18.8-276.2,53C74.7,307.9,33.8,353.8,33.8,402.9
	c0,49,40.9,95,115.3,129.4c61.3,28.4,139.4,46.2,223.9,51.4c5,13,11.3,25.2,18.5,35.3c5,7,12.1,15.3,14,16.3
	c1.3,0.7,2.6,0.7,3.8,0.1c1.1-0.6,3-3.9,11.1-18.6c3.1-5.7,7.1-12.9,8.9-16.1c2.1-3.6,5.3-9.9,8.1-15.5c18.9-0.3,37.6-1.2,55.9-2.7
	c3.9,5.1,8.2,9.7,12.7,13.2c2.1,1.7,4.1,3,4.5,3c1.4,0,6.7-8.6,12.1-19.1c16.9-2,33.5-4.5,49.6-7.6c1.6,4.1,3.7,8.2,5.8,11.4
	c3.4,5.3,8.3,9.7,10.5,9.7c0.3,0,1.4-0.6,2.4-1.4c5.2-4,13.2-14.8,17.5-23.7c0.7-1.5,1.4-2.9,2-4.3c33.1-8.3,63.8-18.8,91.1-31.5
	c74.3-34.4,115.3-80.4,115.3-129.4C816.7,353.8,775.7,307.9,701.4,273.5z M542.8,217.7c2.4-5,5-4.4,7.9,1.7
	c2.7,5.6,4.2,11.9,4.7,18.5c0.2,3.4,0.4,4.4,1,5.4c0.9,1.5,1.6,1.9,3,1.9c2.3,0,3-1.4,3.1-5.6c0.1-6.8,3.5-16,8.6-23.9
	c3-4.6,9-9.9,11.1-9.9c0.3,0,0.8,0.2,1.2,0.5c1.7,1.2,2.3,7.8,1.2,13.5c-2.1,11.1-11.6,29.7-20.3,39.7c-4,4.6-8,8.6-8.6,8.6
	c-0.8,0-3.7-3.2-5.5-5.9c-3-4.8-6-12-7.8-19.3c-1.5-6-1.8-8.4-1.8-13.8C540.6,223.5,541.1,221.2,542.8,217.7z M425.2,593.7
	c-6.2,11.1-14.7,26.7-16.2,29.5c-2.7,5-2.3,4.8-4.7,1.9c-2.9-3.5-7.3-9.8-10.8-15.3c-12-19.2-20-40.8-22.9-61.9
	c-0.8-6.1-0.8-21,0-25.7c1.6-8.6,4-14.7,7-17.9c3.3-3.4,6.1-3.3,9.5,0.4c4.1,4.6,7.4,14.6,9.8,30.2c0.6,4.2,0.9,7.2,1,13.3
	c0.1,4.5,0.3,8.2,0.5,8.7c0.5,1.4,2.2,2,3.7,1.4c1.5-0.6,2.1-2.1,2.7-7.2c1.5-11.7,7-26.5,14.2-38.2c8.7-14.2,19.7-22.8,25.8-20.2
	c3,1.3,5.2,5.3,6.4,11.9c0.7,3.7,0.8,13.2,0.1,17.8c-2.1,16.1-9.4,37.8-20.1,59.5C429.2,586.1,426.5,591.4,425.2,593.7z
	 M508.8,590.1c-0.6,0-6.5-6.4-9-9.6c-8.6-11.4-14.9-25.7-16.4-37.3c-0.9-7.3,0.6-15.6,3.1-17.2c0.5-0.3,0.9-0.1,2.7,1.8
	c3.5,3.7,6.6,9,9.3,15.9c2.6,6.6,3.3,7.6,5.2,7.6c0.9,0,1.5-0.2,2.1-0.8c0.7-0.7,0.8-1.1,1-5.6c0.1-2.9,0.5-5.9,0.8-7.6
	c2.6-10.9,8.6-21.6,14.7-25.8c2.8-2,4.9-2.2,6.6-0.8c3.9,3.3,4.4,15.8,1.3,30.2c-2,9.3-4.1,15.4-9,25.9
	C517.7,574.4,509.4,590.1,508.8,590.1z M587.3,585.2c-1-0.4-4.5-5.6-6.2-9.2c-2.8-5.8-5.2-13.4-6.1-19.3c-1-6.5,0.1-13.7,2.7-17.6
	c1.3-2,2.2-2.2,3.2-0.8c1.7,2.4,4,11.3,4.6,18.3c0.4,4.3,0.7,5.1,2.4,6.7c1,0.9,1.6,1.3,2.4,1.3c2.4,0,2.9-0.9,3.3-5
	c0.8-9.4,4.9-19.6,10.1-24.8c1.5-1.5,3.3-2.7,4.1-2.8c0.1,0,0.5,0.6,0.8,1.2c0.5,1,0.6,2.3,0.6,6.4c0,4.4-0.1,5.6-0.9,8.6
	c-2.4,9.5-6.7,19.1-11.9,26.3C591.4,581.8,588.1,585.6,587.3,585.2z M612.3,558.7c3.8-10.2,4.9-19.3,3.2-26.1
	c-1.4-5.7-4.9-8.2-9.7-7c-5.3,1.4-11.5,8.6-14.6,16.9l-0.7,1.9l-0.8-2.6c-1-3.5-2.7-7-4.2-8.7c-3.5-4-8.8-3.6-12.5,1.1
	c-5.2,6.5-6.4,18.6-3,31c0.2,0.9,0.5,1.7,0.8,2.6c-14.8,2.8-30.1,5.1-45.7,7.1c1.6-3.4,3.3-6.8,4.7-10.2c6.2-14.2,10-31.4,9.4-42.9
	c-0.4-8.3-2.2-13.2-5.9-16.4c-2.7-2.3-7.3-2.9-11-1.4c-7.6,3.1-15.2,13.2-18.9,24.9c-0.7,2.2-1.3,4.1-1.4,4.4
	c-0.1,0.3-0.7-0.4-1.5-1.7c-2.4-4.1-4.1-6.4-6.8-9.1c-2.8-2.7-4.7-3.8-6.8-3.8c-4.1,0-7.8,4.1-9.5,10.6c-0.9,3.2-1.1,11.8-0.4,16.5
	c1.6,10.6,6.5,22.4,13.3,32.5c-16.6,1.3-33.6,2.1-50.9,2.4c1.1-2.3,2-4.3,2.6-5.6c7.7-17.5,13.8-36.4,15.6-48.6
	c0.9-5.8,1.2-15,0.7-19.8c-1.1-10.3-4.6-17-10.2-19.9c-1.7-0.8-2.4-1-5.2-1.1c-3-0.1-3.6,0-6,0.9c-7.8,2.8-14.9,9.5-22.6,21.3
	c-2.9,4.4-7.8,14-9.6,18.6c-0.6,1.6-1.2,3.1-1.3,3.5c-0.2,0.5-0.4-0.3-0.8-2.5c-1.4-7.8-3.9-16.5-6.1-20.7
	c-8.6-17.2-23.7-14.8-30.2,4.8c-4.8,14.4-4.1,36.3,1.7,56.8c1,3.7,2.2,7.3,3.4,10.9c-188-12.1-333.2-86.6-333.2-176.3
	c0-98.2,173.7-178.1,387.2-178.1c37.7,0,74.2,2.5,108.7,7.2c0.1,1.8,0.2,3.4,0.4,4.9c1.6,10.9,5.9,22.1,11.2,29.7
	c2.8,4,9.2,9.7,10.9,9.7c1.2,0,6.4-4.9,12.5-11.8c5.5-6.3,11.1-15.2,15.4-24c134.4,28,228.1,90.2,228.1,162.3
	C812.4,469.9,731.5,528.4,612.3,558.7z"/>
<path class="st0" d="M493.7,467.9h-2.8c-0.3-23.8-8.4-39.5-19.3-51.8c-10.8,16.2-26.8,30-46.9,30.4c-21.7,0.4-42.7-10.6-43.3-34.7
	c-0.6-23.5,18.4-37.9,32.6-49.4c-2.8-4.6-4.8-9.7-5.5-15.6c-4.8-39.8,30.1-43.6,31.6-18.1c0.6,11.7-7.2,21-15.3,28.5
	c5.8,9.1,15,16.3,25.5,24.9c8.7,7.2,16.9,14.8,23.8,23.8c12-22.9,15.4-51.1,4-68.9l2.5-1.6c12.1,19.2,8.4,49.3-4.6,73.2
	C486.5,423.2,493.5,441.6,493.7,467.9z M469.4,413.9c-8.5-9.1-18.7-16.5-28.2-24.1c-9.9-8.2-19.3-15.7-25.5-24.6
	c-9.6,9.1-23.7,25.8-23.1,46.1c0.4,18.9,12.9,32.3,31.7,32.2C443.5,443.4,459.3,429.3,469.4,413.9z M423.2,354.6
	c7.2-6.7,14.5-15.3,13.9-25.8c-0.9-15.7-19.6-20.4-19.9,0.1C417,339.6,419.3,347.7,423.2,354.6z"/>
</svg>
