<?xml version="1.0" encoding="utf-8"?>
<!-- Generator: Adobe Illustrator 23.0.2, SVG Export Plug-In . SVG Version: 6.00 Build 0)  -->
<svg version="1.1" id="Слой_1" xmlns="http://www.w3.org/2000/svg" xmlns:xlink="http://www.w3.org/1999/xlink" x="0px" y="0px"
	 viewBox="0 0 864 864" style="enable-background:new 0 0 864 864;" xml:space="preserve">
<style type="text/css">
	.st0{fill:#1D1D1B;}
</style>
<path transform="translate(0.000000,3600.000000) scale(0.100000,-0.100000)" class="st0" d="M3087.9,34047.8
	c-93.4-7.2-194.4-58.2-279.9-141.2c-73.3-71.2-126.3-155.9-161.5-257.6c-19.9-58-30.9-110.2-38.2-182.7c-4-39.7-3.9-134.3,0-172.7
	c17.2-163.7,69.9-332.6,162.8-519.8c91.6-184.8,194.1-327.5,348.5-484.9c67.8-69.3,138-129.8,231.4-199.9
	c36.3-27.2,102-72.6,122.3-84.7c13.2-7.7,39.5-19.6,55.9-25.2c18-6.1,26-4.2,69.3,16.4c54.5,26.2,80.8,42.4,135,82.6
	c15.1,11.2,40,29.2,55.4,40.2c69.3,49,87.1,63.5,128.1,103.2c32.9,32,86.9,80,89.8,80c1.1,0,11.2-12.5,22.8-27.6
	c72.3-96.4,170.5-196,279.9-284.2c121.8-98.3,249.9-177.9,350.3-217.6c64-25.4,148.1-47.7,205.7-54.5c52.1-6.3,49.3-6.1,58.5-3.4
	c4.8,1.4,13,5.3,18.2,8.7c14.6,9.6,48.8,38.9,74.4,63.6c12.9,12.4,38.6,36.8,57,54.1c49.5,46.3,128.2,126.5,155.9,158.8
	c22.3,26,55,66.2,71,87.6c33.1,43.9,99.3,147.2,130.3,203.4c7.2,12.9,15.6,28.1,18.8,33.7c10,17.8,47.9,94.8,55.8,113.1
	c7.7,18.3,27.3,67.6,35.4,90c14.6,39.5,38.1,118.7,51.9,174.3c4,16.4,8,32.3,8.8,35.3c0.8,3.1,3.2,17.2,5.5,31.3
	c2.4,14.1,5,29.4,5.8,33.7c1.4,7.7,4.3,33.7,8,72.8c3.7,39.9,1.1,181.4-4,210c-1.4,8-4,22.8-5.8,32.9c-3.5,20.2-3.5,20.2-11.7,51.7
	c-13.5,52.1-39.5,107.7-68.6,146.2c-23.6,31.5-75.7,77-105.1,91.8c-10.6,5.3-36.8,16.2-45,18.8c-3.5,1.1-10.6,3.7-15.7,5.8
	c-13.5,5.8-25.2,8.5-47.7,11.4c-25.1,3.1-87.9,3.5-102,0.6c-26.5-5.5-51.6-12.5-65.9-18.6c-2.6-1.1-8-3.4-12.1-5
	c-15.1-6.1-62.5-32.1-75.5-41.3c-41-29.1-77.6-62.5-121.2-111c-39.8-44.5-56.1-66.7-88.9-121.5c-23.6-39.7-32.3-55.6-63.6-118.1
	c-24.3-48.2-27.6-55.9-37.1-85.5c-13-40.7-21.9-71.7-28.9-101.7c-3.5-15.1-6.1-23.3-7.4-23.3c-1.1,0-5,6.9-8.4,15.3
	c-14.8,35.8-30.4,69.7-52.7,114.9c-26.2,53-45.3,87.4-68.6,122.9c-8.5,12.9-15.3,24.7-15.3,26.5s6.7,19.4,15.3,39.4
	c53.8,127.9,84.8,232.5,99.8,337.4c6.3,43.7,7.9,71,6.9,117.8c-1.1,57-6.3,88.9-22.3,137.5c-37.6,113.6-121.5,188-234.3,207.6
	c-24.3,4.2-72.3,5.8-101.1,3.2c-90.6-8-181.6-42.3-269.6-101.6c-169.5-113.9-331.3-329.1-417.5-555c-5-13.2-9.8-24.7-10.4-25.5
	c-1.8-1.9-2.2-0.2-8,40.8c-15.3,104.9-42.3,224.8-68.5,302.9c-19.4,58.3-40.2,108.8-64.9,157.5c-37.6,74.2-73.9,126.3-121.2,173.5
	c-36.6,36.6-71.2,61.4-115.9,82.9c-38.1,18.5-75,28.6-117.1,32C3117.8,34049.7,3113.2,34049.7,3087.9,34047.8z M3150,33921.8
	c61.7-10.8,121.6-52.1,174-119.7c36.3-47.1,75.4-121.8,103.8-198.4c33.3-90.1,51.7-166.9,82.3-342.3
	c16.1-92.6,22.8-126.9,48.2-246.3c4.8-23.1,10.3-51.6,12.1-63.1c1.6-11.4,4.5-28.3,6.3-37.3c1.6-9,4-22.5,5-30
	c1.1-7.6,3.1-14.9,4.5-16.4c3.7-4.3,9.3-3.5,12.9,1.6c6.1,8.7,19.9,51.1,30.9,95.1c39,156,68.3,248.9,104.4,330.2
	c67.3,152.2,174.8,308.2,278.1,404.3c118.1,109.6,230.1,160.4,346.1,156.8c54.5-1.6,92.7-12.4,128.1-36c23.1-15.3,50-46.6,64-74.2
	c32.9-65.7,38.4-155.2,15.9-263.7c-15.6-74.9-50.1-185.4-84.4-269.5c-1.4-3.9-3.7-6.9-5-6.9c-1.1,0-7.7,5.3-14.6,11.7
	c-68.8,64.3-151.4,105.4-236.5,117.6c-24.4,3.5-68,4.8-90.8,2.6c-43.1-4.2-76.2-13.3-110.9-30.7c-62.2-31-115.5-86.4-150.7-156.8
	c-32-63.9-51.1-143.6-53.8-224.8c-3.9-107.8,11.6-218,46.1-332.1c15.3-50,34.4-98.2,60.7-152.6l13.8-28.6l-4.7-5
	c-7.6-8-61.4-55.9-86.3-76.6c-50.3-41.9-164.7-132.7-206.5-163.9c-24.6-18.2-50.9-38.2-59-44.7c-15.1-12.1-34.7-24.7-38.2-24.7
	c-1.1,0-10,6.6-19.6,14.6c-22,18.3-48.5,38.7-82.4,63.1c-134.3,97.1-243.8,199.4-351.9,328.8c-183,219.2-325.5,529.1-356.9,776.1
	c-12.9,101.2-5.5,212.7,20.2,301.3c17,59.1,48.2,123.7,82.1,170.3c65.9,90.6,157.3,155.1,242.1,170.2
	C3096.8,33924.7,3132.6,33924.8,3150,33921.8z"/>
<path class="st0" d="M502.1,576.8h-3.3c-3.6-4.5-7.1-9.1-10.4-13.5c-0.5,1.1-1.1,2.2-1.8,3.2c-8.3,13.4-26.9,18.1-39,8.1
	c-7.3-6-11-15.4-11.1-24.7c-0.2-18.4,9.3-27.6,25.1-33.7l0.4-0.2c-0.6-2.1-1-4.2-1.2-6.2c-0.1-1-0.2-2-0.2-3
	c-0.1-5.2,1.1-10.1,3.6-13.8c2.5-3.7,6.3-6.6,11.4-7.4c3.2-0.7,6.5-0.5,9.5,0.7c7.7,3.2,11,13.8,7.2,21c-2.1,4-6.2,6.8-10.2,8.8
	c-4.4,2.3-9.3,4.1-13.9,6l-0.6,0.3c2.4,7.2,6,14.1,9.1,19.1c3.3,5.3,7,10.8,11,16.4c0.9-2.6,1.5-5.3,1.8-8c0.3-2.5,0.4-5.1,0.2-7.6
	h2.6c0.1,2.6,0.1,5.3-0.2,7.9c-0.4,3.5-1.2,7-2.5,10.2C493.5,565.9,497.7,571.3,502.1,576.8z M484.4,565.1c0.8-1.3,1.6-2.7,2.2-4.2
	c-4.5-6.1-8.6-12.2-12.1-18c-4.1-6.7-7.5-13.1-9.9-19.2l-0.4,0.1l0,0l-0.4,0.2l0,0c-2.6,1.1-5.2,2.3-7.7,3.7
	c-9.8,5.5-16.5,16.5-15.2,27.9c0.7,6.4,3.8,11.9,8.8,16C460.5,580.4,477,577,484.4,565.1L484.4,565.1z M465.6,514.8l1-0.4
	c0.4-0.1,0.8-0.3,1.3-0.4c4.6-1.5,9.3-3,13.6-5.1c16.6-8.3,8.3-19.8-2.2-18.3c-0.3,0.1-0.6,0.1-0.9,0.2l-0.1,0
	C465.9,494.1,463.7,504.1,465.6,514.8z"/>
</svg>
