<?xml version="1.0" encoding="utf-8"?>
<!-- Generator: Adobe Illustrator 23.0.2, SVG Export Plug-In . SVG Version: 6.00 Build 0)  -->
<svg version="1.1" id="Слой_1" xmlns="http://www.w3.org/2000/svg" xmlns:xlink="http://www.w3.org/1999/xlink" x="0px" y="0px"
	 viewBox="0 0 864 864" style="enable-background:new 0 0 864 864;" xml:space="preserve">
<style type="text/css">
	.st0{fill:#1D1D1B;}
</style>
<path class="st0" d="M299,359.8c-0.2-0.4-0.7-0.6-1.1-0.5c-0.3,0.1-0.9,0.5-2.1,1.2c-4.6,2.8-18.4,11.2-22.1,8.5
	c-1-0.7-1.2-2.4-0.5-4.9c0.3-1,1.3-2.8,1.9-3.8c1.7-0.1,3.8-0.4,5.5-1.2c0.9-0.4,2.1-1.4,2.5-2.6c0.2-0.7,0.2-1.3-0.1-1.9
	c-0.5-1-1.7-1.4-3-1.2c-3.4,0.5-6.5,3.8-8,6.9c-3.6,2.2-9,6.3-12.8,9.1c-4.2,3.1-8.5,6.4-9.7,6.6c-0.4,0.1-0.7,0-0.8-0.1
	c-0.2-0.1-0.3-0.3-0.3-0.6c-0.2-1,0.9-3.2,2-5.4c1.6-3.2,3.2-6.5,2.5-8.5c-0.2-0.6-0.7-1.1-1.3-1.3c-2.3-1-6.7,3.5-11.3,8.7
	c-1,1.1-1.8,2-2.3,2.5c-0.8,0.7-1.4,1.1-1.8,1.2c0,0,0-0.1,0-0.1c1.3-3.7,4.6-9.1,7.1-13c7-4.7,14.2-7.8,20.6-10.5
	c8.2-3.5,13.8-7,17.3-10.7c2.5-2.7,4.6-7,3.7-10.8c-0.6-2.5-2.4-4.3-5.3-5.3c-5.2-1.8-12.5,2.4-21.8,12.6c-4-0.6-8.1-1.4-12.1-2.1
	c-1.7-0.3-3.3-0.6-5-0.9c1.6-2.3,4.9-6.4,8.5-7.8c0.6-0.2,1.6-0.5,2.7-0.4l0.7,0l-0.2-0.6c-0.3-1.2-2.4-1.3-3.6-1.1
	c-4.7,0.9-8.5,5.3-11.7,9.4c-7.6-1.3-21.2-3.5-29.2,1.2c-2.9,1.7-5,4.1-5.8,6.7c-0.9,2.6-0.5,5.3,1,8.1c0.1,0.2,0.3,0.4,0.5,0.4
	c0.2,0.1,0.5,0,0.7-0.1c0.2-0.1,0.4-0.3,0.4-0.5s0-0.5-0.1-0.7c-1.3-2.3-1.6-4.5-0.9-6.7c1-2.9,3.6-4.8,5-5.7
	c7.4-4.4,19.9-2.5,27.2-1.2c-0.8,1.1-1.5,2.1-2.1,3c-0.3,0.5-0.6,0.9-0.9,1.3c-2.4,3.4-4.7,6.9-6.9,10.3c-1.4,2.1-2.7,4.1-4.1,6.2
	c-8.1,11.9-14.6,19.5-19.8,23.2l-0.9,0.6l1.1,0.2c0.1,0,0.2,0,0.3,0.1c0.5,0.1,1.1,0.3,1.8,0.3c0.5,0,0.9-0.1,1.5-0.3
	c2.3-0.8,5.6-3.8,9-7.9c6.6-7.9,12-16.5,17.3-24.9c2.4-3.8,4.9-7.8,7.5-11.7c1.8,0.3,3.7,0.7,5.5,1l0.2,0c3.4,0.6,7.3,1.4,11.1,2
	c-7.5,8.5-14,18.4-15.3,20.4c-7.7,12.6-8,15.4-7.6,16.4c0.4,0.9,1,1.2,1.4,1.3c1.3,0.3,3-0.9,4.1-1.9c0.5-0.5,1.4-1.4,2.5-2.7
	c2.2-2.4,7.1-8,8.8-8c0,0,0,0,0,0c-0.1,0.6-0.9,2.1-1.6,3.4c-1.8,3.5-4,7.8-3.3,10.1c0.5,1.6,2.4,2.8,4.2,2.5
	c1.6-0.3,5-2.8,10.4-6.9c3.1-2.3,7.4-5.5,10.8-7.8c-0.1,0.6-0.2,1.1-0.3,1.6c-0.2,3,0.5,5.1,2.2,6.1c4.8,2.9,16.3-4,22.4-7.8
	c1.6-0.9,2.8-1.7,3.3-1.9c0.2-0.1,0.4-0.3,0.5-0.5C299.1,360.3,299.1,360,299,359.8z M276.5,358.5c0.7-0.7,1.4-1.4,2.2-2
	c0.4-0.3,1-0.7,1.6-0.9c0.5-0.2,0.8-0.3,1-0.3c0.1,0,0.1,0,0.1,0c0.1,0.1,0.1,0.2,0.1,0.4c-0.1,0.6-1,1.5-1.6,1.8
	C279.1,358,278,358.3,276.5,358.5z M279,323.7c2.3,0.7,3.7,2.1,4.2,4c0.7,2.8-0.8,6.7-3.6,9.5c-3.4,3.4-8.9,6.7-16.4,9.9
	c-5.5,2.3-11.6,5-17.7,8.6c3.1-4.8,8.3-12.5,14-19.3c4.1,0.5,7.7,0.8,10.9,0.7c4-0.1,7.1-0.8,9.1-2.1c1.1-0.7,1.8-1.6,2.2-2.6
	c0.3-1,0.3-2-0.1-3.1c-0.5-1.3-1.7-2.6-3.3-3.6l-0.1,0c-0.5-0.2-1,0.1-1.1,0.5c-0.2,0.4,0,0.8,0.3,1c1.3,0.8,2.2,1.8,2.6,2.8
	c0.3,0.7,0.3,1.3,0.1,1.9c-0.2,0.6-0.7,1.2-1.5,1.7c-1.2,0.8-3.6,1.7-8.2,1.8c-2.8,0-5.9-0.1-9.5-0.6
	C268.7,326.2,274.8,322.4,279,323.7z"/>
<path class="st0" d="M499.2,524.8c0-0.6,0.2-1.2,0.7-1.6c0.4-0.4,1-0.7,1.6-0.7c1.2,0,2.2,1,2.2,2.2s-1,2.2-2.2,2.2
	S499.2,526,499.2,524.8z M603.1,528.2c0,0.2-0.1,0.5-0.3,0.6c-12,10.2-25.3,13.6-35.6,15.4l-0.8,1.2c-8.6,13.9-21.5,35-39.5,36
	c-3.3,0.2-6.5-0.4-9.2-1.7c-2.8-1.3-4.9-3.2-6.3-5.6c-1.7-3-2-6.5-1-10.2c1.4-5,4.4-8.9,9.1-11.9c-0.3-4.3,1.2-10.4,4.3-17.8
	c-8.3,8.2-24.1,21.8-31.3,21.9c-1,0-1.8-0.2-2.5-0.6c-0.9-0.5-1.6-1.3-2-2.3c-1.5-3.4,0.1-10.2,2.5-16.3
	c-7.5,8.1-24.2,25.4-31.4,25.5c-1,0-1.8-0.2-2.5-0.6c-0.9-0.5-1.6-1.3-2-2.3c-2-4.5,1.5-13,4.5-20.4c1.6-3.9,3.1-7.5,3.6-10.1
	c0.2-1,0.1-1.6-0.3-1.8c-2-1.1-9.3,3.7-10.6,4.8c-1.1,2.3-2.8,4.8-4.6,7.3c-0.8,0.8-1.8,0.9-2.6,0.3c-0.6-0.4-1-1.2-0.7-1.9
	c0.6-1,1.4-2.1,2.2-3.3l0.2-0.2c4.1-5.6,4.1-7.4,3.8-8.1c-0.2-0.4-0.7-0.5-1.6-0.5c-1.3,0.1-3.3,0.9-5.7,2.4
	c-3.9,2.4-8.9,6.5-15,12.1c-0.8,0.8-2,0.8-2.6,0.2c-0.2-0.2-0.4-0.5-0.4-0.7c-7.1,7-19.8,18.5-26.2,18.6c-0.9,0-1.8-0.2-2.5-0.6
	c-0.9-0.5-1.6-1.3-2-2.3c-2.2-5,0.8-13.5,3.5-19.2c-2.7,2.5-4.8,3.6-6.4,3.2c-1.1-0.3-1.9-1.2-2.3-2.7c-0.4-1.4-0.1-3.2,0.7-5.1
	c-10.7,6.6-25.6,11.7-35.1,6.2c0.4,13.4-1.6,24-6.4,33.2c-3.6,6.9-7.7,10.7-12.1,11.2c-0.2,0-0.3,0-0.5,0c-0.8,0-1.5-0.2-2.1-0.7
	c-0.9-0.7-1.4-1.9-1.6-3.6c-0.9-9.4,10.9-29.9,16-38.2c5.2-8.7,21-31.9,31-35.5c1.8-0.6,3.4-0.5,4.6,0.4c1.1,0.8,1.5,2.3,1.4,4
	c-0.8,7.2-15.4,14.8-21.6,18.1c-0.6,0.3-1.2,0.6-1.6,0.9l-1.5,0.8c-0.5,0.7-1,1.4-1.6,2.1c-1.2,1.7-2.6,3.5-3.7,5.2
	c9.5,7,29.3-2.3,37.1-7.8c2.2-2.8,5.8-5.5,8.8-5.1c1.1,0.1,2.5,0.7,3.5,2.6c0.2-0.3,0.5-0.5,0.7-0.7c0.3-0.3,0.8-0.5,1.3-0.4
	c0.6,0.1,1.1,0.6,1.3,1.1c0.1,0.4,0,0.7-0.2,1c-5.6,5.7-13.2,21.7-11.2,28.1c0.3,0.6,0.7,1.1,1.2,1.4c0.4,0.2,1,0.4,1.6,0.4
	c6.3,0,22-14.7,30.2-23.4c2.1-3.3,4.1-6.1,6.3-8.6c0.8-1.1,2.1-1,2.8-0.5c0.7,0.5,0.8,1.3,0.4,1.9c-2.2,2.7-4.2,5.3-5.9,7.8
	c3.6-3.1,6.8-5.4,9.4-7.1c2.9-1.8,5.2-2.7,6.9-2.7c1.3,0,2.4,0.5,3.2,1.5c0.7,0.9,1,2.2,0.9,3.5c3.6-2.3,8.1-4.7,10.9-3.4
	c1.2,0.6,1.9,1.8,2.1,3.7c0.2,2.5-1.8,7.3-4.2,12.9c-3,7-6.4,14.9-4.6,17.6c0.4,0.6,1.1,0.9,2.1,0.9c6.7,0,25.5-19.6,34.6-30
	c0.7-1.1,1.4-2.1,2.1-2.7c1.5-1.4,2.8-1.1,3.4-0.4c0.8,0.8,0.8,2,0.1,2.8c-2.8,3.1-10.8,18.3-8.8,22.8c0.4,0.8,1,1.2,2.1,1.2
	c7.5,0,27.3-18.1,33.6-25.1c11.2-23.1,35.7-53.6,50.4-48.5c3.5,1.2,5.7,3.5,6.5,6.5c1.1,4.7-1.5,10.1-4.5,13.4
	c-4.3,4.6-11.4,8.9-21.6,13.3c-8,3.4-17.1,7.3-25.8,13.2c-1.6,2.6-7.7,15.7-8.9,23.5c5.4-2.6,11.7-3.7,17.8-4.7
	c0.4-0.1,0.9-0.1,1.3-0.2l0.2,0c7.5-6.5,15.3-14.7,18-18c0.2-0.2,0.4-0.3,0.7-0.3c0.5-0.7,1-1.3,1.5-1.8c1.5-1.3,2.6-1.2,3.2-0.6
	c0.7,0.7,0.6,1.8-0.1,2.6c-1,1.1-2.6,3.1-3.9,5.2c-1.2,2-2.2,5.3-1.7,6.4c0.1,0.2,0.2,0.2,0.3,0.2c1,0.1,4.1-2,13.4-12.9l0.7-0.8
	c0.8-1.1,2.1-1.1,2.8-0.5c0.6,0.5,0.8,1.2,0.3,1.8c-2.1,4.2-4.7,8.6-7.2,12.8c-0.5,0.8-0.9,1.6-1.4,2.4c9-1.7,21.8-5.1,33.1-14.7
	c0.2-0.2,0.4-0.2,0.7-0.2c0.2,0,0.5,0.1,0.6,0.3C603,527.7,603.1,528,603.1,528.2z M560.7,547.3c0.5-0.8,1-1.5,1.5-2.2
	c-3.7,0.5-7.4,0.9-10.9,1.3c-3.2,0.4-6,0.7-8.7,1c-8.2,7.1-14.2,10.8-17.8,10.8c-1,0-1.8-0.2-2.5-0.6c-0.9-0.5-1.6-1.3-2-2.3
	c-0.1-0.4-0.3-0.8-0.4-1.2c-3.9,2.6-6.4,6-7.6,10.3c-0.9,3.2-0.6,6.2,0.8,8.8c1.2,2.1,3,3.7,5.5,4.8h0
	C535.4,585.8,551.9,560.8,560.7,547.3z M539,548c-5.5,0.9-11.1,2-15.9,4.3v0c-0.3,0.1-0.6,0.3-0.9,0.4c0,1.5,0.3,2.6,0.9,3.1
	c0.4,0.4,0.9,0.5,1.6,0.5C527.5,556.3,532.4,553.4,539,548z M557.3,533.2c-3.2,3.4-7.5,7.8-12.2,12.1c1.9-0.2,3.9-0.5,5.9-0.7
	c4.1-0.5,8.3-0.9,12.6-1.6c1.9-2.8,3.6-5.8,5.2-8.7c-4.6,4.9-7.8,7.2-9.6,6.9c-0.9-0.1-1.6-0.7-2-1.5
	C556.5,538.1,556.5,535.7,557.3,533.2z M556.3,512.1c9.4-4,16.3-8.2,20.5-12.4c3.5-3.5,5.4-8.5,4.5-12c-0.6-2.4-2.4-4.2-5.3-5.1
	c-0.7-0.2-1.5-0.3-2.3-0.3c-12.7,0-32.5,29.5-40,41C541.5,518.5,549.3,515.1,556.3,512.1z M391.6,537.6c1.6,0.4,8.4-6.9,10.3-9.5
	l0.1-0.1c0.2-0.3,0.5-0.6,0.7-0.9c-0.5-1.1-1.1-1.7-2-1.8c-1.9-0.2-4.7,2-6.8,5.4c-1.3,2.1-2.2,4-2.4,5.2
	C391.3,537.1,391.4,537.6,391.6,537.6z M352.6,538.9c-13.5,22.5-20.4,37.7-18.4,40.9c0.2,0.3,0.5,0.6,1.5,0.5
	c3.7-0.4,7.3-3.7,10.5-9.8C350.8,561.9,352.9,551.5,352.6,538.9z M362.4,524.9c5.9-3.1,19.7-10.5,20.4-16.4c0.1-1.2-0.1-2.1-0.8-2.5
	c-0.6-0.4-1.5-0.3-2.6,0.3C376,508.1,370.1,514.6,362.4,524.9z"/>
<path class="st0" d="M773.8,322.9c-10.6-30.4-26.3-59.3-46-85.5c2.1-3.7,4.2-7.8,6.4-12.4c9.5-20,13.6-33.4,14.2-47.1
	c0.2-5.8,0-8.3-1.1-11.8c-1-3-2.4-4.9-4.4-5.9c-3.7-1.9-8.2-0.6-9.9,0.1c-11.7,4.2-17.8,20.6-21.1,29.8c-3,8.5-4.8,16.3-5.9,21.3
	c-0.5,1.9-0.8,2.9-1,2.9c-0.2,0-0.3-1.4-0.1-4.1c0.1-2.8,0.1-6.4-0.3-10.7c-0.3-3.1-0.6-5.2-0.7-6c-1.5-7.6-4.2-14-7.6-17.3
	c-2-1.9-3.4-2-5.5-0.2c-2.9,2.4-5.1,7.5-6.4,14.3c-8.7-7.8-17.7-15.1-27.2-22c-3.6-2.6-7.3-5.1-10.9-7.6c0.1-0.2,0.1-0.4,0.2-0.7
	c1.5-4.8,1.7-5.9,2.1-9.5c0.7-5.9,0.4-11.5-1-15.4c-0.9-2.7-2-3.8-4.2-4.6c-1.7-0.6-2.8-0.6-4.7,0.1c-6.8,2.4-10.9,13.2-12.4,17.8
	c-3-1.7-6-3.4-9.1-5c-0.9-1.6-1.9-2.8-3.1-3.6c-1-0.6-2.3-0.9-3.2-0.7c-0.3,0.1-0.7,0.3-1.1,0.6c-44.1-21.8-92.2-33.2-141.5-33.2
	H468c-63.7,0.1-126,19.4-180,55.8c-11.8,8-23.1,16.7-33.7,26c-40.9,34.3-67.2,74.8-68.5,76.8c-24.4,38-40.4,79.7-47.5,123.8
	c-8.7,53.7-1.6,113.5,20.2,168.5c24.5,61.9,65.8,113.8,119.7,150.2c0.3,1.1,0.7,2.2,1.1,3.4c6.1,18.1,18.7,37.9,28.8,45.7l1.4,1.1
	l1.6-1.8c0.9-1,3.4-4.2,5.6-7c4-5.2,7.2-9.8,10-14.3c39.2,17.6,81.8,27.4,125.5,28.6c3.1,0.1,6.3,0.1,9.4,0.1
	c57.2,0,112.5-14.6,160.2-42.5c44.7-26,81.1-62.6,108.7-109c9.2-12.4,17.4-25.5,24.7-39.1C765.8,552.4,816.8,445.6,773.8,322.9z
	 M644.7,164.8c13.7,9.1,26.7,19.2,38.8,30.3c-0.1,0.9-0.2,1.9-0.3,2.8c-12.6-10.2-26.2-19.4-40.8-27.7
	C643.3,168.5,644,166.8,644.7,164.8z M625.1,152.7c-0.9,3.2-1.3,5.7-1.6,7.5c-0.6-0.3-1.2-0.6-1.8-0.8c-0.3-1.9-0.8-4.5-1.5-7.5
	c-0.2-0.8-0.4-1.5-0.6-2.3C621.5,150.7,623.3,151.7,625.1,152.7z M468.1,110.6h0.3c48.8,0,96.3,11.7,139.1,32.8
	c-0.3,1.1-0.6,2.5-0.8,4.4c-0.3,2.2-0.3,3.2-0.3,4.8c-19.6-8.2-40.4-14.8-62.4-19.7c-77.2-17.2-160.3-10.9-224.2,15.4
	C362.7,125.3,412.8,110.6,468.1,110.6z M142.5,389.5c6.4-39.4,20-76.9,40.4-111.5c-2,3.9-4,7.9-5.8,11.8
	c-12.4,26.9-27.6,70.9-29.3,127.4c-0.4,11.5-1.3,42.1,5.9,79.8c8.6,44.9,25.9,85.4,51.5,120.4c20.6,28.3,44.6,50.2,69.4,67.1
	c0.1,3,0.3,6.2,0.8,9.5c0.4,2.7,0.8,5,1.2,7.2C162.6,621.6,127.1,484.5,142.5,389.5z M619.6,717.1c-88.3,51.5-197.6,55.7-290.8,13.8
	c2.5-4.4,4.7-8.9,6.8-13.8c54.5,21.9,102.9,25.1,117.7,25.6c3.3,0.1,6.6,0.2,9.9,0.2c55.1,0,112-14.2,161.2-40.4
	c30.3-16.1,57.3-36.5,80.3-60.3C681.1,672.7,652.6,697.8,619.6,717.1z M727,609.2c-59.6,80.2-157.9,129.3-263,129.3
	c-3.5,0-7-0.1-10.6-0.2c-14.6-0.5-62.4-3.6-116.2-25.3c0.9-2.2,1.8-4.6,2.7-7c8.2-22.7,10.9-37.5,9.5-52c-0.6-6.1-1.3-8.7-3.3-12.2
	c-1.6-2.9-3.6-4.7-6.2-5.4c-4.7-1.3-9.9,0.8-11.9,1.8c-6.4,3.1-16.1,14.7-20.5,35.1c-3.1,14.4-2.1,26.3-3.3,26.3
	c-0.7,0-1-4.7-3.9-15.3c-0.8-3.1-1.2-4.6-1.9-6.2c-3-7.7-7.3-14-11.8-16.8c-2.7-1.7-4.4-1.5-6.6,0.8c-3.2,3.2-5.1,9.4-5.5,17.2
	c-23.6-16.5-46.3-37.6-66-64.5c-39.9-54.8-59-121.2-56.6-197.5c1.8-55.8,16.7-99.2,28.9-125.7c17.6-38.2,48-77.6,88.5-109.9
	c3.7-2.8,7.5-5.5,11.4-8.1c65-43.2,168-57.5,262.3-36.6c22.4,5,43.7,11.8,63.7,20.3c0.8,6.3,2.9,11.9,7.1,19.1
	c3.5,6,5.8,9.2,10.7,14.2l1.9,1.9l0.7-0.6c2.2-1.9,7.7-8.9,11-13.9c0.9-1.4,1.7-2.7,2.4-4c15.2,8.6,29.4,18.4,42.4,29.1
	c0,0.5,0,1,0,1.6c-0.1,6.3,0.2,10.1,1.2,16.2c2.8,17.7,10.5,37.9,17.8,46.6l1,1.2l1.5-1.4c0.9-0.8,3.3-3.4,5.5-5.8
	c5.6-6.1,9.8-11.4,13.6-17c6.3,8,12.2,16.4,17.5,25.1C810.4,383.7,769.3,513.8,755,551C747,571.9,737.7,591.3,727,609.2z
	 M752.4,568.7c2.3-5.3,4.5-10.7,6.6-16.1c7.2-18.7,19.8-57.2,23.9-105.5c3-35.6,0.9-69.1-6.3-100.4
	C805.2,454.7,764,546.1,752.4,568.7z"/>
</svg>
