<?xml version="1.0" encoding="utf-8"?>
<!-- Generator: Adobe Illustrator 23.0.2, SVG Export Plug-In . SVG Version: 6.00 Build 0)  -->
<svg version="1.1" id="Слой_1" xmlns="http://www.w3.org/2000/svg" xmlns:xlink="http://www.w3.org/1999/xlink" x="0px" y="0px"
	 viewBox="0 0 864 864" style="enable-background:new 0 0 864 864;" xml:space="preserve">
<style type="text/css">
	.st0{fill:#1D1D1B;}
</style>
<path d="M433.1,176c-2.3,0.6-4.7,2.5-6.4,5.1c-1.8,2.7-3.2,7.1-3.9,12c-0.3,1.9-0.4,7.3-0.2,9.4c0.9,9.7,4.6,20,9.4,26
	c1.2,1.4,3.4,3.8,4.6,4.7c1.7,1.4,3.3,2,4.3,1.7c0.8-0.2,1.4-1.2,1.2-1.9c-0.1-0.2-1-1.2-2.2-2.4s-2.4-2.5-2.9-3.1
	c-5-6.3-9.2-16.9-10.1-25.8c-0.3-2.5-0.3-7.1,0-9.3c0.5-4.3,1.7-7.9,3.3-10.2c1.2-1.7,3.1-3,4.4-3c0.8,0,1.7,0.4,2.4,1
	c2.1,1.9,4,7,4.5,11.7c0.1,0.8,0.1,3.2,0.1,6.4c0,5.2,0,6.2,0.4,6.6c0.3,0.3,0.8-0.1,1.1-0.9c0.2-0.4,0.4-1,0.6-1.4
	c0.5-1,0.9-2.5,1.1-4.2c0.2-1.9,0.3-2.1,0.9-3.7c2.4-6,6.1-10.3,10.4-12.4c1.6-0.7,2.7-1,4.5-1.1c2.5-0.1,4.1,0.4,5.5,1.9
	c0.9,0.9,1.7,2.4,2,3.7c1,3.8,0.1,9.1-2.7,16.2c-2.3,5.7-5.6,11.7-10.8,19.1c-5.2,7.6-8.6,11.1-14.5,15.1c-0.9,0.6-1.9,1.2-2.1,1.4
	c-0.9,0.5,0.2,0.6,1.6,0.2c1.7-0.5,3.9-1.8,7-4.2c1.7-1.4,5.5-5.1,7.2-7.2c7.8-9.4,14.2-21.1,16.3-29.9c1.4-5.6,1.3-9.8-0.2-13.1
	c-1.8-3.7-4.5-5.5-8.6-5.5c-2.2,0-3.9,0.4-6,1.5c-3.7,1.9-7,5.3-9.7,10.2l-0.5,0.8l-0.2-1.4c-0.5-3.1-1.3-5.9-2.5-8.2
	c-1.6-3.2-3.9-5.3-6.2-6C435.5,175.8,433.9,175.8,433.1,176z M401.8,214.3c-3.4,0.9-6.4,5.1-8.6,11.7c-0.6,1.7-1.3,4.7-1.5,6.2
	c-0.1,0.5-0.2,1.1-0.2,1.2l-0.1,0.3l-0.1-0.4c-1.1-3.3-2.7-6.3-4.5-8.2c-2.9-3.1-6.5-2.9-8.1,0.4c-0.7,1.5-0.8,2.3-0.8,5.5
	c0,2.1,0.1,3.2,0.2,4.2c0.7,4.6,2.1,8.5,4.5,12.7c2.2,3.8,4.5,7.1,6.6,9.4c1.9,2.1,5.1,4.8,6.7,5.7l0.7,0.4l-0.8,0.8
	c-0.9,0.9-1.5,1.7-1.5,1.9c0,0.1,0.1,0.2,0.6,0.1c0.8-0.1,1.6-0.5,2.5-1.2c0.9-0.7,3.3-3.1,4.2-4.3c3.2-4.2,6.8-11.3,8.5-16.5
	c1.3-4.1,2-8.5,2-13.1c0-3.1-0.1-4.5-0.8-7.5c-1.1-5.4-2.8-8.3-5.4-9.3C404.9,214.2,402.7,214.1,401.8,214.3z M404.4,215.7
	c1.7,0.4,2.5,1.1,3.4,3c1.3,2.7,2.1,6.8,2.1,11.1c0,2.6-0.1,3.4-0.7,7.1c-1,5.6-2.2,9.5-4.4,14c-1.9,3.9-5.3,9.4-6.8,11.1l-0.5,0.5
	l-1.5-1.2c-4-3.3-6-5.3-9.1-9.4c-4.4-5.9-6.5-10.2-7.5-16c-0.3-1.6-0.3-2.2-0.3-4.2c0-2.6,0.2-3.8,0.7-5c0.3-0.7,1.1-1.6,1.6-1.8
	c0.6-0.2,1.6-0.1,2.4,0.2c1.9,0.9,4.1,4.4,5.5,8.4c0.9,2.5,1.9,6.7,2.1,8.5c0.1,0.9,0.2,1.9,0.3,2.1c0.1,0.5,0.6,0.9,0.9,0.7
	c0.5-0.1,0.5-0.7,0.4-3.2c-0.2-4-0.1-8,0.2-9.9c1.1-7.4,4.4-13.9,7.7-15.6C402.2,215.6,403.1,215.5,404.4,215.7z M448.1,247.9
	c-2.5,0.4-4.9,2.1-7.3,5.1c-1.7,2.2-3,4.5-3.9,7c-0.4,1-0.5,1.2-0.5,0.9c-0.5-1.9-0.8-2.6-1.3-3.5c-1.5-3.1-3.8-4.4-6-3.4
	c-2.7,1.3-4.5,5.1-5.4,11.3c-0.3,2.1-0.3,6.6,0,8.9c0.6,4.9,1.6,8.6,3.4,12.7c1.5,3.6,3.2,6.3,5,8.1c0.9,0.9,1,1.1,1,1.4
	c0,0.5,0.3,0.8,1.1,0.9c0.5,0,0.8,0,1.3-0.3c2-1,6.8-6.2,9.7-10.6c4.4-6.6,8.3-16.4,9.6-24.1c0.4-2.2,0.5-5.8,0.3-7.4
	c-0.4-2.9-1.5-5.2-3.1-6.3C451.2,248,449.5,247.7,448.1,247.9z M450.4,250.1c0.8,0.4,1.4,1.2,1.8,2.4c0.5,1.4,0.6,2.4,0.5,4.8
	c-0.2,5.5-1.8,11-5.5,19.2c-2.9,6.3-5.2,9.9-9.7,15c-0.9,1-1.8,2-2.2,2.4l-0.6,0.6l-0.4-0.5c-3-3.5-6.2-11.7-7.5-18.8
	c-0.4-2.5-0.5-4-0.5-6.6c0-5.7,1.2-10.1,3-11.8c0.8-0.7,1.4-0.7,2.2,0.1c1.4,1.3,2.5,3.9,3.2,7c0.4,2.1,0.4,2.8,0.1,4.7
	c-1,5.8-1.3,9.6-0.7,9.5c0.1,0,0.4-0.3,0.6-0.7c0.9-1.2,1.7-3.6,2.1-6c0.3-1.6,0.4-5.1,0.2-7l-0.1-1.6l0.4-1.2
	c1.9-5.3,5.7-10.2,9.1-11.5C447.8,249.6,449.3,249.6,450.4,250.1z"/>
<path d="M670.3,411.3c5.1,2.7,7.3,5.1,7.3,8c0,1.3-0.7,2.8-1.4,3.1c-0.5,0.2-1.3-0.1-1.3-0.5c0-0.4-4.9-2.6-7.8-3.6
	c-3.2-1.1-13.9-3.6-18.3-4.3c-7.6-1.3-11.8-1.6-20.2-1.6c-8.5,0-14.3,0.5-22.2,1.9c-7,1.3-19,4.7-30.8,8.7
	c-29.9,10.2-37.7,12.1-52.5,12.4c-7,0.2-10.8-0.1-15.2-1.2c-6.7-1.7-14.6-6.7-18.3-11.7c-1.4-2-2.3-4.4-1.8-5.2
	c0.5-0.9,0.8-0.7,1.8,1.4c2.4,5,11,10.9,18.7,13c2.5,0.6,3.7,0.8,9.1,0.9c8.3,0.2,14.5-0.5,23.2-2.7c6.9-1.7,12.8-3.9,28.4-10.4
	c14.6-6.1,26.9-10.2,36.3-12.3c5.6-1.2,15.7-2.5,21-2.8C643.7,403.6,660.6,406.2,670.3,411.3z M162.2,411.3c-5.1,2.7-7.3,5.1-7.3,8
	c0,1.3,0.7,2.8,1.4,3.1c0.5,0.2,1.3-0.1,1.3-0.5c0-0.4,4.9-2.6,7.8-3.6c3.2-1.1,13.9-3.6,18.3-4.3c7.6-1.3,11.8-1.6,20.2-1.6
	c8.5,0,14.3,0.5,22.2,1.9c7,1.3,19,4.7,30.8,8.7c29.9,10.2,37.7,12.1,52.5,12.4c7,0.2,10.8-0.1,15.2-1.2c6.7-1.7,14.6-6.7,18.3-11.7
	c1.4-2,2.3-4.4,1.8-5.2c-0.5-0.9-0.8-0.7-1.8,1.4c-2.4,5-11,10.9-18.7,13c-2.5,0.6-3.7,0.8-9.1,0.9c-8.3,0.2-14.5-0.5-23.2-2.7
	c-6.9-1.7-12.8-3.9-28.4-10.4c-14.6-6.1-26.9-10.2-36.3-12.3c-5.6-1.2-15.7-2.5-21-2.8C188.9,403.6,172,406.2,162.2,411.3z"/>
<path d="M650.8,508.4c-14.4,1.1-27.1,4.7-53.8,15.2c-20.4,8-28.2,10-38.7,10.3c-4.3,0.1-6.1,0.1-8.7-0.4c-6.4-1-14-3.7-18.2-6.5
	c-1.2-0.8-3.3-2.5-4.6-3.8c-4.3-4.2-6.4-7.4-7.3-11.7c-0.3-1.2-0.7-2.4-0.9-2.7c-0.4-0.4-0.5-0.4-1.1,0.2s-0.6,1-0.6,3.4
	c0,2.6,0.1,2.8,1.2,5.2c4.8,9.7,16.5,17.6,30.5,20.7c2.7,0.6,3.9,0.6,10.1,0.6c6.1,0,7.6-0.1,10.8-0.6c8.7-1.6,14.6-3.4,31-9.5
	c15.4-5.7,24.5-8.6,33.2-10.4c24.3-5.1,48.4-2.3,62.8,7.3c2.7,1.8,2.9,1.8,3.7,0.1c1.7-3.4-2-8.4-8.7-11.8
	c-4.4-2.2-12.5-4.4-20.3-5.5C667.1,508.3,655.5,508.1,650.8,508.4z M644.8,526c-0.5,0.1-3.7,0.5-7.1,0.9c-12.1,1.5-20.8,3.9-25,6.9
	c-0.7,0.5-1.2,1.1-1.1,1.2c0.1,0.1,1.7-0.1,3.5-0.6c5.3-1.4,8.7-1.8,15.9-1.9c7.8,0,17.6,0.5,21.1,1.1c3.4,0.6,9.1,2.2,12.4,3.6
	c3.2,1.3,11.1,5.9,12.7,7.3c1.6,1.4,2.4,1.7,3.4,1.3c1.9-0.8,2.4-3.4,1.1-6.2c-2-4.3-8.1-8.5-16.2-11.2c-5.7-1.9-8.7-2.4-14.6-2.5
	C648,525.9,645.3,525.9,644.8,526z M618.6,539.6c-4.8,0.8-10.3,2.5-10.5,3.3c-0.1,0.8,0.9,0.9,5.7,0.5c8.5-0.6,15.3,0.2,22.4,2.5
	c3.8,1.3,5.2,1.9,11.8,5.6c5.9,3.3,6,3.3,6.8,2.2c1.6-2.4-2.3-7.2-8.2-10c-4-2-7.2-2.9-12-3.5C630.3,539.5,621,539.3,618.6,539.6z
	 M193,508.8c-7.8,1.1-15.9,3.2-20.3,5.5c-6.7,3.4-10.5,8.4-8.7,11.8c0.9,1.7,1.1,1.7,3.7-0.1c14.4-9.6,38.5-12.4,62.8-7.3
	c8.6,1.8,17.8,4.7,33.2,10.4c16.4,6.1,22.3,7.9,31,9.5c3.2,0.6,4.7,0.6,10.8,0.6c6.2,0,7.4-0.1,10.1-0.6c13.9-3.1,25.7-11,30.5-20.7
	c1.2-2.4,1.2-2.6,1.2-5.2c0-2.4-0.1-2.8-0.6-3.4s-0.7-0.6-1.1-0.2c-0.2,0.2-0.6,1.4-0.9,2.7c-0.9,4.2-3,7.5-7.3,11.7
	c-1.4,1.3-3.4,3-4.6,3.8c-4.2,2.8-11.8,5.5-18.2,6.5c-2.5,0.4-4.4,0.5-8.7,0.4c-10.5-0.3-18.3-2.4-38.7-10.3
	c-26.7-10.5-39.5-14.1-53.8-15.2C208.6,508.1,197.1,508.3,193,508.8z M213.4,525.9c-5.9,0.1-8.9,0.6-14.6,2.5
	c-8.1,2.7-14.2,6.9-16.2,11.2c-1.3,2.7-0.8,5.4,1.1,6.2c1,0.4,1.8,0.1,3.4-1.3c1.6-1.5,9.5-6,12.7-7.3c3.3-1.4,9-3,12.4-3.6
	c3.5-0.6,13.3-1.1,21.1-1.1c7.2,0,10.6,0.4,15.9,1.9c1.8,0.5,3.3,0.8,3.5,0.6c0.1-0.1-0.4-0.6-1.1-1.2c-4.3-3.1-12.9-5.5-25-6.9
	c-3.4-0.4-6.6-0.8-7.1-0.9C218.9,525.9,216.2,525.9,213.4,525.9z M229.6,540.1c-4.8,0.6-8,1.6-12,3.5c-6,2.9-9.8,7.6-8.2,10
	c0.8,1.2,0.9,1.1,6.8-2.2c6.5-3.6,8-4.3,11.8-5.6c7.1-2.3,14-3.1,22.4-2.5c4.8,0.4,5.8,0.3,5.7-0.5c-0.1-0.8-5.7-2.5-10.5-3.3
	C243.2,539.3,233.9,539.5,229.6,540.1z"/>
<path class="st0" d="M479.8,545h-2.5c-0.3-21.1-7.4-35.1-17.1-46c-9.6,14.4-23.8,26.6-41.6,27c-19.3,0.4-37.9-9.4-38.4-30.8
	c-0.5-20.9,16.3-33.6,29-43.9c-2.5-4.1-4.3-8.6-4.9-13.8c-4.3-35.4,26.7-38.7,28-16.1c0.5,10.4-6.4,18.6-13.6,25.3
	c5.2,8.1,13.3,14.5,22.6,22.1c7.7,6.4,15,13.2,21.1,21.1c10.6-20.3,13.7-45.3,3.6-61.1l2.3-1.5c10.8,17,7.4,43.7-4.1,65
	C473.4,505.3,479.6,521.6,479.8,545z M458.2,497c-7.6-8.1-16.6-14.6-25-21.4c-8.8-7.3-17.1-14-22.6-21.8c-8.5,8.1-21,22.9-20.5,40.9
	c0.4,16.7,11.4,28.7,28.2,28.6C435.2,523.2,449.2,510.7,458.2,497z M417.2,444.4c6.4-6,12.9-13.6,12.4-22.9
	c-0.8-14-17.4-18.1-17.7,0.1C411.7,431.1,413.7,438.3,417.2,444.4z"/>
<path d="M408.2,373.5c-1,0-3.8-0.1-4.9-0.3c0.5-1,0.7-2.7,0.7-4.4c0-2.2-0.4-4.7-1.2-6.4c-0.1-0.2-0.2-0.5-0.2-0.7
	c0-0.6,0.3-1,0.7-1.5c2-2.2,5-5.1,5-7.6c0-1.8-0.6-3.4-2.8-3.4c-3.9,0-6,4.4-6,7c0,1.7,0,2.5,0.3,4.1c-0.3,0.3-0.6,0.7-1,1
	c-0.2,0.1-0.4,0.3-0.7,0.5c-0.3,0.1-0.5,0.3-0.9,0.7c-0.1,0.1-0.2,0.2-0.4,0.4c-1.3,1.1-2.7,2.4-3.2,3.1c-6.9,6.7-9.9,8.8-22.9,14.7
	c0.2-0.8,10.3-20.1,10.3-20.8c0-0.7-1.8-1.5-2.8-1.5c-3.2,0-5.5,8.4-7.8,10.9c-3.4,3.8-9.8,10-12,10c-0.2,0-0.3-0.1-0.3-0.4
	c0-1.5,2.3-6,3.6-8.1c1.7-2.6,5-7.3,5-9.1c0-0.8-2.2-2.7-3.6-2.7c-2.3,0-1,1.4-2.5,3.9c-0.3,0.5-0.6,0.9-0.8,1.4
	c-2.9,2.8-6.6,6.5-10.7,10c-1.4,1.2-5.6,4.4-9.5,4.4c-0.7,0-1.3-0.2-1.3-0.9c0-2.2,1.2-4.8,2.4-7c2.2-3.8,7.1-8.9,7.1-11.5
	c0-1.2-1-2.7-2.1-2.7c-1.7,0-3.7,3-5.1,3.3c-1.3-2.3-2.7-2.5-4.9-2.5c-4,0-9.3,5.1-12.5,10.3c-1.4,1.3-2.8,2.2-4,2.2
	c-3,0-5.4-4.1-6.3-9.5c-0.3-1.4-1.6-2-3.5-2.2c-0.6,0-0.8,0.1-0.8,0.4c0,0.3,0.4,0.9,0.4,1.9c0,0.8-0.4,1.5-0.8,2.3
	c-2.3,3.8-14.1,16.7-16.9,16.7c-0.4,0-0.6-0.2-0.6-0.8c0-1.4,1.4-3.9,2.2-5.4c1.7-3.1,6.8-10,6.8-11.3c0-2-2.2-3.1-3.4-3.1
	c-0.8,0-3.2,3.7-4.4,5.8c-3,5-12.9,14.7-14.9,14.7c-0.3,0-0.4-0.2-0.4-0.6c0-1.4,1.7-4.5,2.4-5.7c4.6-8.1,6.8-10.2,6.8-12.2
	c0-1.2-1.6-2.9-3.5-3.2c-0.4,2-1.4,4-2.5,5.9c-1.8,1.5-4.5,4.2-9,8.7c-6.2,6.2-12.4,9.6-15.3,9.6c-1.7,0-2.2-1.5-2.2-3.5
	c0-4.7,3.1-12.7,4.4-13.3c8.2-4.5,23.9-23.3,23.9-30.9c0-1.7-0.9-3.1-2.7-3.1c-7.5,0-19.7,18.2-25.8,32.8
	c-5.9,5.3-19.5,19.2-24.6,19.2c-1.7,0-2.2-1.5-2.2-3.4c0-1.2,0.2-2.5,0.6-3.6c2.5-7.6,5.1-14.9,9-22c0.5-0.9,1-1.3,2-1.3
	c1.5,0,3,0.1,4.7,0.1c3,0,5.6-2.5,5.6-4.9c0-0.9-0.4-1.7-1-2.5c-1.2,2.4-3.8,3.3-6.5,3.3c-0.7,0-1.4-0.1-2-0.2
	c1.2-2.3,4.7-7.2,4.7-10c0-2.5-2-3.6-3.7-3.6c-3.4,0-8.6,5.6-12.4,10.7c-4.8-1.8-7.9-2.8-12.8-2.8c-3.9,0-7.7,1.7-7.7,6.9
	c0,0.6,0.2,1.6,0.7,1.6c0.4,0,0.4-0.4,0.4-0.6c0-4.2,2.7-5.4,6.5-5.4s6.9,1.3,11.1,3.3c-5,7.4-10.1,14.8-15.6,21.9
	c-0.9,1-3,2.9-4.1,2.9c-0.4,0-0.7-0.3-0.7-0.9c0-2.1,3-7.3,3-9c0-0.7-1.6-3-3-3c-2.2,0-4.1,6-4.1,9.2c0,3.6,1.6,6.5,4.2,6.5
	c3,0,7.1-3,22.1-26.9l4.8,1.9c-3.8,7.5-8.7,18-8.7,26.7c0,3.7,1,7.1,4.8,7.1c5.7,0,15.8-9.4,22.9-16.2c-1.2,3.6-2,6.8-2,9.2
	c0,3.9,1.2,6.5,5.7,6.5c5.9,0,13.6-6.6,19.7-12.5c-1.1,2-1.8,4-1.8,6.1c0,1.5,0.9,4.2,2.8,4.2c2.5,0,7.7-4.4,11.4-9.4
	c-0.6,1.4-1,3.4-1,5.2c0,2.5,0.9,4.7,3.9,4.7c5.8,0,16.2-12.1,21.3-20.7c1.5,7,5.1,10,7.9,10c0.8,0,1.6-0.2,2.3-0.5
	c-0.5,1.4-0.8,2.7-0.8,3.8c0,1.2,0,4.2,2.5,4.2c2.4,0,10.8-9.8,16.1-15.1c0.2-0.2,0.3-0.2,0.4-0.2s0.1,0.1,0.1,0.1
	c0,0.2,0,0.3-0.1,0.4c-1.6,3.6-4.1,6.3-4.1,10.4c0,2.5,1,5.4,3.8,5.4c5.7,0,10.6-3.4,16.3-8.7c-1.1,2.3-1.9,4.6-1.9,6.8
	c0,1.8,1,4.4,2.8,4.4c3.3,0,8.7-5.1,12.2-9.3c-0.8,2.6-4,12.1-6.4,13.4c-7.1,3.4-17.8,10-17.8,16.9c0,1.8,1.7,3.9,4.2,3.9
	c3.7,0,6.5-1.7,8.3-3.5c5.4-5.4,8.2-12,11.3-18.8c0.9-2,3.1-3.2,5.1-4.1c12.1-5.4,14.7-6.7,22.6-14.5c1.4-1,3.2-2.6,4.3-3.4
	c0.4,0.9,0.6,1.9,0.6,3c0,2.4-0.9,4.6-2.5,6.3c-0.9,0-1.8-0.1-2.7-0.1c-3,0-8.7,1.6-8.7,5.5c0,2.7,2.6,2.9,4.1,2.9
	c5.8,0,7.7-2.3,11.6-6.3c1.4,0.3,4.1,0.6,5.4,0.6c0.5,0,0.9-0.5,0.9-0.9S408.7,373.6,408.2,373.5z M229.7,346.2
	c4.2-6.3,7.3-8.9,8.1-8.9c0.1,0,0.1,0.1,0.1,0.3c0,1.3-2.2,6.6-3.7,9.5L229.7,346.2z M278.6,332.8c0.9,0,1.2,0.7,1.2,1.7
	c0,0.8-0.2,1.8-0.6,2.3c-4.4,8.7-11.6,17.5-19.9,23.6C266.9,345,274.6,332.8,278.6,332.8z M339.3,361c-1.4,1.8-13.4,14.6-15.1,14.6
	c-0.2,0-0.4-0.1-0.4-0.4c0-2.5,9.5-15.6,13-15.6c0.8,0,2.5,0.8,2.5,1.3C339.3,361,339.3,361,339.3,361z M355.1,401.4
	c-1.7,2.4-3.3,3.9-6.5,3.9c-1.2,0-1.6-1-1.6-2c0-5.4,14.7-14.3,15.1-14.3C362.1,389.2,357.8,397.7,355.1,401.4z M389.9,379.2
	c-1.2,0-2-0.2-2-1.2c0-2.5,5.9-4.4,7.9-4.4c1,0,1.5,0.1,2,0.3C395.5,376.9,391.8,379.2,389.9,379.2z M401,356.1c0-3.2,2.6-6,4.6-6
	c1.2,0,1.5,1,1.5,1.8c0,3.3-3.3,5.5-5.2,7.6C401.3,358.2,401,357.1,401,356.1z M645,370.9c-0.4,0-0.7,0.2-1,0.6
	c-3.8,4.9-7.6,9.2-12.1,9.2c-0.9,0-1.4-0.6-1.4-1.2c0-2.2,4.7-7.1,7.1-9.8c1.8-2.2,4.4-4.5,4.4-7.1c0-2.2-2.7-3.9-5.2-5.4
	c1.7-2,2.6-4.1,2.6-6.3c0-1.7-0.5-3.1-2.4-3.1c-2.6,0-4.4,2.2-4.4,5c0,1.8,1.2,3.3,2.3,4.3c-1.2,2-2.5,3.3-4.2,5
	c-0.2,0-0.3,0.1-0.4,0.1c-3.9,3.4-9,9.2-15.1,12.6c-3.9,2.2-8.4,3.4-11.4,3.4c-3.6,0-6.6-2.1-6.6-4.8c0-1.5,0.3-3,1.5-5.2
	c4.9-1,14.9-4.3,14.9-10.8c0-1.7-2.5-2.6-4.7-2.6c-3.6,0-9.5,5.1-12.8,10.6c-2.6,2.7-5.2,5.9-7.4,5.9c-2.2,0-3.6-1.5-4.5-3.4
	c1.9-3.4,3-6.6,3-8.7c0-1.2-0.7-2.6-2.3-2.6c-2,0-3.4,2.2-3.4,6.3c0,1.5,0.2,3,0.8,4.5c-3.6,6-9.3,13-14.1,13
	c-0.4,0-0.6-0.2-0.6-0.7c0-2,3-7.4,5-10.8c0.9-1.6,2.7-4.1,3.5-5.9c0,0,0,0,0,0c0.2-0.6,0.4-1,0.4-1.4c0-1.2-0.7-2.2-2.6-2.2
	c-0.9,0-1.5,0.1-1.8,1c-0.9,2.4-2.4,4.9-3.9,7.4c-2.8,2.6-5.9,5.2-9.2,7.1c-3.9,2.2-8.4,3.4-11.4,3.4c-3.6,0-6.6-2.1-6.6-4.8
	c0-1.5,0.3-3,1.5-5.2c4.9-1,14.9-4.3,14.9-10.8c0-1.7-2.5-2.6-4.7-2.6c-3.6,0-9.4,5-12.7,10.5c-1.7,1.8-3.7,4-5.8,6.3
	c-7.4,8.4-11.3,10.9-13.4,10.9c-0.8,0-1.2-0.6-1.2-1.2c0-0.4,0.1-0.7,0.3-1.2c2.5-4.8,9.5-13.9,9.5-16.4c0-2.8-3.1-3.9-6.3-5.7
	c1.2-2.7,1.9-4.9,1.9-6.9c0-1.2-1.2-2.4-2.6-2.4c-2.2,0-3.8,1.8-3.8,4.1c0,1.4,0.6,3,2.2,4.4c-1.7,2.4-2.8,3.8-3.8,4.9
	c-0.1,0.1-0.2,0.1-0.3,0.2c-5.7,5.7-12.6,11.1-18.6,11.1c-0.7,0-1.2-0.1-1.7-0.1c2.6-4.4,4.3-9.7,4.3-13.4c0-4.2-2.1-7-6.5-7
	c-5.9,0-10.6,5.9-10.6,9.8c0,1.4,0.4,2.7,1.3,4.2c-6.9,5.9-8,5.8-23.2,8.5c2-3.4,6.8-11.3,11.2-18.9c1.8,0.2,3.4,1.1,4.6,1.1
	c0.6,0,0.6-0.6,0.6-0.9c0-1-1.3-2.2-3.7-2.6c4.6-7.5,8.6-13.6,9.5-13.6c2.2,0.4,4.5,0.9,6.3,0.9c5.2,0,9.6-2.8,9.6-7
	c0-0.9-0.6-1.3-1.1-1.3c-1.4,2.5-3.3,3.8-5.8,3.8c-7.1,0-13.8-2-23.6-2c-8.3,0-17.7,1.7-17.7,10.7c0,4.7,3.3,7.4,7.5,7.4
	c3.2,0,8.2-2.4,8.2-3.6c0-0.4-0.4-1.5-1-1.5c-1.3,0-4.1,3-7.3,3c-3.1,0-5.8-1.3-5.8-5.5c0-5.3,7.1-6.8,14-6.8
	c4.2,0,7.6,0.4,11.8,1.2l-8.5,14c-6,0.5-10.1,3.3-17.2,9.5c-0.3,0.3-0.6,1-0.6,1.7c0,0.5,0.1,0.9,0.6,0.9c0.3,0,0.7-0.2,1.3-0.8
	c3.4-3.4,10.3-8.5,14.6-9c-4.4,7.4-9.1,15.1-12.5,20.1c-6,1.4-11.1,3.1-11.1,5.9c0,2.5,1.7,3.4,4.1,3.4c3.7,0,8.2-4.6,10.7-8
	c13.5-2.5,17.4-2.2,23.7-6.9c-1.1,1.9-2,4.2-2,6c0,2.2,0.9,4.9,4.2,4.9c3.4,0,6.7-2.8,9.3-6.7c0.7,0.2,1.6,0.2,2.6,0.2
	c8.2,0,13.3-4.6,17.2-8.5c0.3-0.1,0.6-0.3,1-0.7c4.1-3.6,4.9-4.9,6.3-6.9c2,1.2,3.2,1.9,3.2,3c0,0.4-0.1,0.7-0.4,1.2
	c-1.6,2.8-8.9,11.4-8.9,16.8c0,2.2,1.2,4.6,3.5,4.6c5.2,0,11.6-7.4,16-12c0.6-0.6,1.2-1.3,1.8-1.9c-0.1,0.5-0.1,1-0.1,1.5
	c0,5.6,4.6,7.8,10.2,7.8c6.4,0,11.8-2.5,17.8-7.3c-0.8,2-1.3,3.9-1.3,6c0,1.8,0.8,4.6,2.8,4.6c5.5,0,12.1-7.3,16.4-14.2
	c1.4,2.2,3.3,3.8,5.7,3.8c1.8,0,3.1-0.8,4.8-2.5c-0.1,0.6-0.2,1.3-0.2,1.8c0,5.6,4.6,7.8,10.2,7.8c9.7,0,17-5.7,27.5-16.4
	c0.2-0.2,0.7-0.7,0.9-0.9c0.4-0.5,0.9-1,1.4-1.6c0.7-0.7,2-2.7,2.2-2.9c1,0.9,3.1,1.6,3.1,2.5c0,2.2-3.1,4.7-4.9,7
	c-2.5,3.1-6.2,6.6-6.2,10.1c0,1.7,0.5,4.2,3.4,4.2c6,0,10-4.5,13.9-9.8c0.2-0.3,0.2-0.6,0.2-0.8C645.9,371.1,645.6,370.9,645,370.9z
	 M452.4,382.6c-0.7,0.9-1.7,1.3-3.1,1.3c-0.9,0-1.4-0.2-1.4-0.8c0-1.2,2.7-3.5,7.1-4.3L452.4,382.6z M487.6,378.5
	c-0.7,0-1-0.4-1-1.2c0-1.5,1.3-4.2,2.7-5.9c0.4,0.4,1.8,2,4.4,3C492,376.9,489.9,378.5,487.6,378.5z M494.8,372.9
	c-2.9-0.8-3.8-2.5-4.1-2.9c1.5-2.2,5.6-6,5.6-7.8c0-1.2-0.6-3-2.3-3c-1.2,0-2.7,1.6-4.5,4c-1.2,1-2.2,1.9-3.1,2.8
	c-0.5-0.5-0.7-1.4-0.7-2.8c0-3.1,3.9-8.3,9-8.3c2.9,0,4.2,2.4,4.2,5.8C498.9,363.2,497.3,368.7,494.8,372.9z M521.9,355.7
	c-0.8-0.7-1.1-1.8-1.1-2.8c0-1.7,0.8-3.1,2-3.1c0.7,0,1,0.4,1,1.2C523.8,352.3,522.9,354.3,521.9,355.7z M554,356.3
	c0.6,0,1,0.4,1,1.3c0,4.7-6,7.6-10.5,8.5C545.9,363.3,551.5,356.3,554,356.3z M583.6,362.6c0-2.4,1.2-4.1,1.8-4.1
	c0.4,0,0.6,0.4,0.6,1c0,1-0.7,3.2-2.2,5.7C583.6,364.3,583.6,363.4,583.6,362.6z M610.1,356.3c0.6,0,1,0.4,1,1.3
	c0,4.7-6,7.6-10.5,8.5C602,363.3,607.6,356.3,610.1,356.3z M636,356c-0.5,0-1.3-1-1.3-3.1c0-1.5,1-4.4,2.8-4.4
	c0.7,0,0.9,0.7,0.9,1.7C638.4,351.8,636.3,356,636,356z M436.8,363.4c0,3-2.4,5.4-5.4,5.4s-5.4-2.4-5.4-5.4s2.4-5.4,5.4-5.4
	S436.8,360.4,436.8,363.4z"/>
</svg>
