<?xml version="1.0" encoding="utf-8"?>
<!-- Generator: Adobe Illustrator 22.0.0, SVG Export Plug-In . SVG Version: 6.00 Build 0)  -->
<svg version="1.1" id="Layer_1" xmlns="http://www.w3.org/2000/svg" xmlns:xlink="http://www.w3.org/1999/xlink" x="0px" y="0px"
	 viewBox="0 0 1080 1080" style="enable-background:new 0 0 1080 1080;" xml:space="preserve">
<g>
	<g>
		<path d="M587.5,438.4c-2.3-3.2-5.1-6.1-8.2-8.4c-3.1-2.3-6.6-4.1-10.1-5.2c-7.1-2.2-14.7-2-21.1,0.6c-3.2,1.3-6.2,3.1-8.5,5.4
			c-2.4,2.3-4.2,4.9-5.6,7.7c-2.7,5.5-3.4,11.6-2.1,17c0.7,2.7,1.8,5.1,3.2,7.2c1.4,2.1,3.1,3.8,5,5.2c3.7,2.8,7.8,4.2,11.6,4.5
			c3.8,0.3,7-0.6,9.6-1.7c2.6-1.2,4.5-2.6,5.9-4c2.7-2.8,3.2-4.8,3.1-4.8c-0.3-0.2-1.3,1.5-4.1,3.6c-1.4,1-3.3,2.1-5.7,3
			c-2.4,0.8-5.3,1.3-8.4,0.8c-3.1-0.4-6.5-1.8-9.4-4.3c-2.9-2.5-5.3-6.1-6.1-10.4c-0.9-4.3-0.1-9.2,2.3-13.6c1.2-2.2,2.8-4.3,4.7-6
			c1.9-1.7,4.3-3.1,6.8-4c5.2-1.9,11.3-1.9,17.1,0c5.8,1.9,10.9,6,14.7,11.4c3.7,5.5,6.1,12.3,6.3,19.3c0.1,3.5-0.2,7.2-1,10.7
			c-0.9,3.6-2.2,7.1-4,10.4c-3.6,6.6-9,12.5-15.7,16.2c-6.8,3.8-15,5.5-23.3,5.4c-8.3-0.2-16.9-2.1-25-5.4
			c-8.1-3.3-15.9-8-23.4-13.3c-5.5-3.9-10.7-8-15.9-12.2c-0.6-1.3-1.3-2.7-2-4.3c-1.7-4-3.6-8.8-4.9-14.4
			c-1.3-5.5-2.3-11.8-1.4-17.6c0.9-5.8,4-10.8,8-12.9c2-1.1,4.2-1.6,6.2-1.6c2,0,3.9,0.7,5.2,1.6c1.4,0.9,2.4,2.3,3.1,3.6
			c0.7,1.3,1,2.6,1.2,3.7c0.3,2.2-0.1,3.6,0.5,3.9c0.4,0.3,1.9-0.7,2.7-3.6c0.4-1.4,0.5-3.3,0-5.4c-0.5-2.1-1.6-4.4-3.7-6.5
			c-2.1-2.1-5-3.5-8.3-3.9c-3.3-0.5-6.9,0-10.3,1.6c-3.4,1.6-6.4,4.2-8.5,7.5c-2.2,3.2-3.6,7-4.2,10.9c-0.6,3.9-0.5,7.7,0,11.2
			c0.5,3.5,1.3,6.7,2.2,9.7c0.9,2.8,1.9,5.4,3,7.8c-5.6-4.3-11.2-8.5-17-12.3c-15.1-10-30.7-18-46.2-24.2
			c-7.7-3.1-15.5-5.8-23.6-7.1c-4-0.6-8.2-0.9-12.3-0.6c-4.1,0.3-8.1,1.2-11.8,2.8c-7.5,3.1-13.4,8.9-16.8,15.5
			c-1.7,3.3-2.9,6.8-3.4,10.4c-0.5,3.5-0.5,7,0.1,10.4c1.1,6.7,4.1,12.7,8.3,17.1c4.2,4.4,9.5,7.4,15,8.1c2.7,0.4,5.5,0.2,8-0.5
			c2.5-0.7,4.7-1.9,6.6-3.3c3.8-2.8,6.1-6.9,6.5-10.8c0.2-2,0-3.9-0.6-5.5c-0.5-1.6-1.3-3-2.2-4.2c-1.7-2.3-3.8-3.7-5.7-4.5
			c-1.8-0.7-3.4-0.7-4.3-0.7c-1,0.2-1.4,0.3-1.4,0.5c0,0.1,0.5,0.2,1.4,0.4c0.9,0.2,2.2,0.5,3.7,1.3c1.4,0.8,3.1,2.3,4.3,4.3
			c0.6,1,1.1,2.3,1.5,3.6c0.3,1.3,0.4,2.8,0.1,4.2c-0.5,3-2.5,6-5.6,8.1c-1.5,1-3.4,1.9-5.3,2.3c-2,0.4-4,0.5-6.2,0.1
			c-4.3-0.8-8.6-3.4-11.9-7.1c-3.3-3.8-5.7-8.9-6.4-14.4c-0.8-5.6,0.1-11.6,3.1-16.9c2.9-5.3,7.8-9.9,13.8-12.2
			c6-2.4,13.1-2.6,20.3-1.4c7.2,1.3,14.5,3.9,22,7c14.9,6.1,30,14,44.5,23.8c7.3,4.9,14.4,10.3,21.5,16.1
			c7.2,5.7,14.4,11.7,22.3,17.3c7.9,5.6,16.2,10.6,25.2,14.2c9,3.6,18.4,5.7,27.9,5.8c9.5,0.1,19.1-1.9,27.2-6.6
			c8.2-4.6,14.5-11.7,18.6-19.6c2-3.9,3.5-8.1,4.5-12.3c0.9-4.2,1.3-8.5,1-12.7C595,452.9,592,444.9,587.5,438.4z"/>
		<path d="M875.7,446.2c-0.6-3.5-1.8-7-3.6-10.3c-3.6-6.5-9.6-12.2-17.2-15.1c-3.8-1.5-7.8-2.3-11.9-2.5c-4.1-0.2-8.2,0.1-12.2,0.9
			c-8.1,1.5-15.9,4.4-23.5,7.7c-15.3,6.5-30.8,14.8-45.6,25.2c-5.7,4-11.3,8.3-16.7,12.7c1-2.4,2-5,2.8-7.8c0.9-3,1.6-6.3,2-9.8
			c0.4-3.5,0.5-7.3-0.3-11.2c-0.7-3.9-2.2-7.7-4.5-10.8c-2.2-3.2-5.2-5.8-8.7-7.3c-3.4-1.5-7-1.9-10.3-1.3c-3.3,0.5-6.2,2-8.2,4.1
			c-2,2.1-3.1,4.4-3.5,6.5c-0.5,2.1-0.3,4,0.1,5.4c0.9,2.9,2.4,3.8,2.8,3.6c0.5-0.3,0.1-1.7,0.4-3.9c0.1-1.1,0.4-2.4,1.1-3.7
			c0.6-1.3,1.7-2.7,3-3.6c1.3-0.9,3.1-1.6,5.2-1.7c2-0.1,4.3,0.3,6.3,1.4c4,2.1,7.3,7,8.3,12.7c1.1,5.8,0.2,12.1-1,17.6
			c-1.2,5.6-2.9,10.4-4.5,14.5c-0.6,1.6-1.3,3-1.9,4.3c-5.1,4.3-10.3,8.6-15.6,12.6c-7.4,5.5-15.1,10.4-23.1,13.9
			c-8.1,3.4-16.5,5.5-24.9,5.9c-8.3,0.3-16.5-1.2-23.4-4.9c-6.9-3.6-12.4-9.3-16.1-15.9c-1.8-3.3-3.3-6.8-4.2-10.3
			c-0.9-3.6-1.3-7.2-1.3-10.7c0.1-7.1,2.3-13.9,5.9-19.5c3.6-5.6,8.7-9.8,14.4-11.8c5.7-2.1,11.9-2.2,17.1-0.4
			c2.6,0.9,5,2.2,6.9,3.9c2,1.7,3.6,3.7,4.8,5.9c2.5,4.3,3.4,9.3,2.6,13.5c-0.7,4.3-3.1,8-5.9,10.5c-2.9,2.6-6.2,4-9.3,4.6
			c-3.1,0.5-6,0.1-8.4-0.6c-2.4-0.8-4.3-1.8-5.7-2.8c-2.8-2.1-3.9-3.7-4.2-3.5c-0.2,0.1,0.4,2.1,3.2,4.8c1.4,1.3,3.3,2.7,5.9,3.8
			c2.6,1.1,5.9,1.9,9.7,1.5c3.7-0.3,7.9-1.8,11.4-4.7c1.8-1.4,3.5-3.2,4.8-5.3c1.4-2.1,2.5-4.6,3-7.3c1.2-5.4,0.3-11.5-2.5-16.9
			c-1.4-2.7-3.4-5.3-5.8-7.5c-2.4-2.2-5.4-4-8.6-5.2c-6.5-2.4-14-2.5-21.1-0.1c-3.5,1.2-7,3-10,5.4c-3.1,2.4-5.7,5.3-8,8.6
			c-4.4,6.6-7.2,14.6-7.4,23.1c-0.2,4.2,0.3,8.5,1.3,12.7c1,4.2,2.6,8.3,4.8,12.2c4.2,7.7,10.7,14.7,19,19.1
			c8.2,4.5,17.9,6.3,27.4,6c9.5-0.4,18.9-2.7,27.8-6.5c8.9-3.8,17.1-9.1,24.8-14.8c7.7-5.8,14.9-11.9,21.9-17.8
			c7-5.9,13.9-11.5,21.1-16.6c14.3-10.1,29.2-18.4,44-24.9c7.4-3.3,14.6-6.1,21.8-7.5c7.2-1.4,14.3-1.4,20.4,0.9
			c6.1,2.2,11,6.7,14.1,11.9c3.1,5.2,4.1,11.2,3.5,16.8c-0.6,5.6-2.9,10.7-6.1,14.6c-3.2,3.9-7.5,6.5-11.7,7.4
			c-2.1,0.5-4.2,0.5-6.2,0.1c-2-0.4-3.8-1.2-5.4-2.2c-3.2-2-5.2-5-5.8-8c-0.3-1.4-0.3-2.9,0-4.2c0.3-1.3,0.8-2.6,1.4-3.6
			c1.2-2.1,2.8-3.6,4.2-4.5c1.4-0.9,2.8-1.2,3.6-1.4c0.9-0.1,1.4-0.3,1.4-0.4c0-0.1-0.4-0.3-1.4-0.4c-1,0-2.5,0-4.3,0.8
			c-1.8,0.8-3.9,2.2-5.6,4.6c-0.9,1.2-1.6,2.6-2.1,4.2c-0.5,1.6-0.7,3.5-0.4,5.5c0.5,3.9,2.9,7.9,6.7,10.6c1.9,1.4,4.1,2.5,6.6,3.1
			c2.5,0.6,5.3,0.8,8,0.3c5.5-0.9,10.7-4,14.8-8.5c4.1-4.5,7-10.6,7.9-17.3C876.4,453.3,876.3,449.8,875.7,446.2z"/>
	</g>
	<path d="M1000.3,581.5c-9.5-6.4-21.5-9.5-36-9.5c-18.1,0-40.4,5.1-66.7,15.2c-9.1,3.5-20.8,8.4-34.8,14.6c-8.8,4-15.5,6.8-20.3,8.6
		c-3.3,1.4-6.4,2-9,2c-0.2,0-0.6,0-1.2,0c-0.6,0-1.1-0.3-1.6-0.8c-1-1.1-1.5-2.8-1.5-5.2c0-4.5,1.1-11,3.4-19.5
		c2.1-8,3.2-14.4,3.2-19.1c0-1.1,0-2-0.1-2.9c-0.4-2.8-1.7-5.2-3.9-7.2c-2.2-2-5.2-3-9-3c-11.7,0-25,10-39.8,30.1
		c-2.7,3.6-5.4,7.2-8,10.9l-7.1,9.5c-0.6,0.9-1.3,1.7-1.9,2.5c0.4-2.4,0.9-5.4,1.7-8.8l1.4-5.8c2.2-7.8,3.4-13.5,3.7-17.1
		c0.3-3.6,0.4-5.8,0.4-6.6c0-5.3-1.6-9.2-4.9-11.8c-2.3-1.7-5.3-2.5-8.8-2.5c-11.1,0-24.2,9.7-39.3,29.2
		c-3.3,4.2-8.1,10.4-14.3,18.7c-1,1.3-2,2.5-3,3.8c1-5.3,3-12.2,6-20.9c1.8-5.1,2.6-8.3,2.6-9.4c0-1-0.3-1.8-0.8-2.4
		c-0.2-0.5-0.4-1-0.8-1.5c-0.4-0.4-1.1-0.8-2-1.2c-1-0.4-1.8-0.5-2.6-0.5c-0.8,0-1.7,0.2-2.8,0.5c-1.1,0.4-1.9,0.8-2.6,1.3
		c-7.6,5.9-15.2,11.6-23,16.9c-6,4.1-11.8,7.7-17.4,10.7c-5.6,3.1-11.1,5.4-16.5,7.1c-5.4,1.7-10.9,2.6-16.5,2.6
		c-4-0.1-7.3-0.4-10-0.9c-2.7-0.5-4.5-1.1-5.4-1.6c1.8-1.8,3.8-4.5,5.8-8c2-3.6,3.7-7.5,5.1-11.7c1-3.1,1.6-6.1,1.8-9.1l0.1-2.6
		c0-4.2-0.9-8.1-2.7-11.7c-1.8-3.6-4.4-6.5-7.8-8.7c-3.4-2.2-7.5-3.3-12.3-3.3c-2,0-4.3,0.3-6.7,1c-2.4,0.6-4.7,1.6-6.9,2.9
		c-2.9,1.8-5.3,4-7.2,6.5c-1.8,2.5-3.1,4.9-3.8,7.4c-0.4,1.5-0.7,2.7-0.9,3.6c-7.1,5.6-14.4,10.9-21.7,15.9
		c-6,4.1-11.8,7.7-17.4,10.7c-5.6,3.1-11.1,5.4-16.5,7.1c-5.4,1.7-10.9,2.6-16.5,2.6c-4-0.1-7.3-0.4-10-0.9
		c-2.7-0.5-4.5-1.1-5.4-1.6c1.8-1.8,3.8-4.5,5.8-8c2-3.6,3.7-7.5,5.1-11.7c1-3.1,1.6-6.1,1.8-9.1l0.1-2.6c0-4.2-0.9-8.1-2.7-11.7
		c-1.8-3.6-4.4-6.5-7.8-8.7c-3.4-2.2-7.5-3.3-12.3-3.3c-2,0-4.3,0.3-6.7,1c-2.4,0.6-4.7,1.6-6.9,2.9c-2.9,1.8-5.3,4-7.2,6.5
		c-1.8,2.5-3.1,4.9-3.8,7.4c-0.4,1.3-0.6,2.3-0.8,3.2c-10.3,7.1-21.1,13.6-32.4,19.4c-12,6.1-23.9,10.9-35.7,14.4
		c-4,1.2-8.1,2.2-12,2.9c-4,0.8-7.8,1.2-11.4,1.2c-2.8,0-5.2-0.3-7.3-0.8s-3.6-1.5-4.5-3c-0.6-1.1-0.9-2.3-0.9-3.6
		c0-1.3,0.3-2.8,0.8-4.4c1.2-3.5,2.9-6.9,5-10.4c2.3-3.7,4.2-7.6,5.6-11.6c0.4-1.5,0.7-2.9,0.9-4.2c0-0.5,0.1-1,0.1-1.5
		c0-2.8-0.8-5.2-2.3-7.3c-1.5-2-3.3-3.8-5.3-5.2c-2-1.4-3.7-2.5-5.1-3.3c-0.7-0.4-1.3-0.7-1.8-1c1-1,2.4-2.6,4.2-4.8
		c1.8-2.2,3.2-4.1,4.1-5.7c0.8-1.3,1.7-2.9,2.6-4.6c0.9-1.8,1.6-3.5,2.2-5.3c0.5-1.6,0.8-3.2,0.8-4.9c0-2-0.5-3.7-1.6-5.2
		c-0.9-1.1-2.2-1.9-3.7-2.4c-1.6-0.6-3-0.8-4.5-0.8c-2.4,0.1-4.8,0.8-7,1.9c-2.2,1.1-4.1,2.3-5.5,3.6c-5.6,4.6-9.5,10-11.7,16.2
		c-0.7,2.3-1,4.5-1,6.5v0.6c0.3,2.2,0.8,4.1,1.5,5.7c0.7,1.6,1.3,2.6,1.7,2.9c-1.8,1.9-4.3,4.2-7.4,6.8c-3.1,2.6-6.3,5.1-9.7,7.5
		c-0.4,0.3-0.8,0.7-1.2,1.1c-8.7,6-17.5,10.8-26.6,14.6c-10,4.2-20,7.5-30,9.9c-10,2.4-19.6,4.5-29,6.3l-12,2.4
		c3.9-6.8,7.4-13.6,10.6-20.4c10.2-22.1,19.4-46.4,27.6-72.7c5.9-19.2,10.5-37,13.8-53.4c2.1-10.9,3.2-19.6,3.2-26.2
		c0-2.7-0.4-5.2-1.1-7.5c-1.3-3.9-3.9-5.9-7.9-5.9c-4.7,0-9.7,3.3-15,10c-2.7,3.4-6,8.2-10,14.3c-4.1-8.2-10-14.4-17.7-18.4
		c-6.2-3.2-13.5-4.8-22-4.8c-6.9,0.2-14,1.5-21,4c-15.3,5.6-29.8,15.7-43.3,30.1c-12.7,13.6-23.4,28.9-32.3,46
		c-6.3,12.1-11.1,23.6-14.4,34.4c-3.9,12.2-5.8,23.2-5.8,32.9c0,8.4,1.3,15.5,4,21.3c2,4.5,5.2,8.2,9.5,10.9
		c4.7,2.9,10.3,4.3,16.7,4.3c3.7,0,7.7-0.5,11.9-1.6c15.3-4.4,30.3-14.9,45-31.5c12.5-13.7,25.4-31.2,38.7-52.5
		c6.7-10.6,14.7-23.8,23.9-39.6c3-5.1,7.5-12.6,13.4-22.3c6-9.8,10.3-16.6,13.1-20.4l0.3-0.4c0,2.6-0.3,6-1,10.3
		c-1.9,13.8-5.4,29.6-10.4,47.4c-9,32.3-19.7,61.9-32.2,88.8c-3.5,7.4-7.2,14.6-11.1,21.6c-0.7,1.2-1.3,2.3-1.9,3.2
		c-0.6,0.9-1,1.5-1.2,1.9c-37.9,9.2-63.7,18.6-77.5,28.3c-7.6,5.3-11.3,10.2-11.3,14.7c0,3.2,1.9,5.8,5.6,7.7
		c4,2.1,8.8,3.1,14.4,3.1c5.3,0,11.4-0.9,18.3-2.6c15.5-3.8,29.5-11,41.9-21.6c6.6-5.6,12.2-12.3,17-20.2c7.7-1.8,15.4-3.4,23.4-4.9
		c10-1.9,20.1-4.1,30.4-6.7c10.3-2.6,20.7-6.1,31.2-10.6c10.5-4.5,21.1-10.6,31.8-18.3c0.6-0.4,1-0.9,1.4-1.3
		c6-4.5,11.1-8.9,15.3-13.2l2,1.2c1.6,0.9,3.1,2,4.4,3.1c1.3,1.1,2.1,2.4,2.3,3.8l0.1,0.3l-0.1,0.4c-0.1,0.8-0.2,1.6-0.5,2.2
		c-1.3,3.7-3.1,7.4-5.5,11.1l-1.7,3.1c-1.4,2.6-2.5,5.2-3.4,7.8c-0.8,2.6-1.3,5.1-1.3,7.5c0,2.8,0.7,5.4,2,7.9
		c1.4,2.2,3.3,4,5.8,5.3c2.4,1.3,5.1,2.3,8,2.8c2.9,0.6,5.7,0.9,8.4,0.9c4.6,0,9.3-0.5,14.2-1.4c4.9-0.9,9.6-2,14.1-3.4
		c12.8-3.8,25.7-8.9,38.7-15.6c3.6-1.8,7.1-3.7,10.5-5.6c-0.5,2.1-0.7,4.1-0.7,6.1c0,2.1,0.3,4.1,0.8,6c1.4,4.3,4.1,7.6,8,10
		c3.9,2.4,8.4,3.6,13.4,3.6c3.9,0,7.7-0.6,11.5-1.9c3.7-1.2,6.5-2.5,8.2-3.8c2.2,1.2,5.5,2.4,9.9,3.4c4.4,1,9.2,1.5,14.3,1.5
		c7.1,0,14.2-1.2,21.3-3.5c7.1-2.3,14.2-5.5,21.3-9.4c4.8-2.7,9.5-5.6,14.3-8.7c-0.1,0.9-0.2,1.9-0.2,2.8c0,2.1,0.3,4.1,0.8,6
		c1.4,4.3,4.1,7.6,8,10c3.9,2.4,8.4,3.6,13.4,3.6c3.9,0,7.7-0.6,11.5-1.9c3.7-1.2,6.5-2.5,8.2-3.8c2.2,1.2,5.5,2.4,9.9,3.4
		c4.4,1,9.2,1.5,14.3,1.5c7.1,0,14.2-1.2,21.3-3.5c7.1-2.3,14.2-5.5,21.3-9.4c7.1-3.9,14-8.3,20.9-13.2c1.6-1.1,3.2-2.3,4.7-3.4
		c-0.6,2.1-1.2,3.9-1.7,5.6c-2.1,6.7-3.1,12.2-3.1,16.4c0,1.1,0.1,2.1,0.2,3.1c0.4,2.6,2.1,4.5,4.9,5.8c1.2,0.4,2.4,0.6,3.5,0.6
		c4.8,0,9.6-2.8,14.4-8.3c3.1-3.6,7-8.6,11.7-14.9c6.5-8.5,12-15.3,16.4-20.2c8-9,14-13.4,18.1-13.4c1.5,0,2.2,1.5,2.2,4.6
		c0,3.7-1.3,10.4-3.8,20.1c-2.8,10.2-4.2,17.7-4.2,22.3l0.1,1.5c0.2,3.2,1.7,5.6,4.4,7.3c1.6,0.9,3.6,1.3,5.9,1.3
		c3.8-0.4,7.3-2.2,10.4-5.6c2.4-2.5,4.6-5.1,6.7-7.8c2.6-3.5,5.1-6.9,7.7-10.4c5.8-8.1,11-14.8,15.5-20c7-8.2,12.8-12.8,17.4-13.9
		c0.3,0,0.7-0.1,1.3-0.1c0.7,0.7,1.1,2,1.1,3.7c0,1-0.1,2.2-0.3,3.5c-0.6,4.4-1.5,8.9-2.7,13.4c-2.5,9.5-3.7,16.6-3.7,21.1
		c0,5,1.3,9,3.9,11.8c3,2.9,7.1,4.4,12.3,4.4c4.7,0,9.7-1.1,15.2-3.2c3.7-1.4,10.7-4.4,21-9c11.9-5.3,23.2-10.1,33.9-14.2
		c18.8-7.3,35.4-11.8,49.9-13.4c3.7-0.5,7.2-0.7,10.6-0.7c11.3,0,20.5,2.3,27.7,6.8c1.3,1.1,2.8,1.6,4.5,1.6c2,0,4-0.8,5.9-2.5
		c1.8-1.5,2.7-2.9,2.7-4.2C1002.6,583.7,1001.9,582.5,1000.3,581.5z M214.4,477.2c-15.7,27.1-29.4,48.8-41,65
		c-11.5,16.1-22.7,28.8-33.6,38.1c-10.7,9.2-20.7,13.8-30,13.8c-8,0-13.3-3.5-16.1-10.4c-1.4-3.4-2.2-6.5-2.3-9.2
		c-0.1-2.7-0.2-4.7-0.2-6c0-9.5,1.8-19.8,5.3-31c4.1-13.2,9.9-26.5,17.3-39.7c7.5-13.2,16.3-25.3,26.6-36.3
		c17.1-18.6,34.7-28.1,52.7-28.5c5.9,0,10.9,1.2,15,3.5c4.1,2.3,7.5,5.7,10.4,10.1c1.3,2.1,2.5,4.5,3.7,7.1c1.1,2.6,1.9,4.8,2.2,6.5
		L214.4,477.2z M169.5,640.3c-7,4.3-14.1,7.5-21.5,9.6c-7.3,2.1-13.7,3.1-18.9,3.1c-3.1,0-5.1-0.1-5.9-0.4c-0.9-0.3-1.3-0.6-1.3-1
		c0-1.8,2.5-4.3,7.7-7.6c10.6-6.8,29.8-13.5,57.5-20.2C182.3,630.6,176.5,636.1,169.5,640.3z M343.9,537.3c-0.7,1.5-1.4,2.7-1.9,3.6
		c-0.8,1.4-1.7,2.8-2.7,4.2c0.1-0.5,0.2-1,0.4-1.6c0.4-1.3,1-2.6,1.6-3.8c1-1.7,2.2-3.2,3.6-4.5
		C344.6,535.9,344.3,536.6,343.9,537.3z M464.9,610c-0.7,0.2-1.6,0.4-2.6,0.5c-0.8,0.1-1.6,0.2-2.4,0.2c-2.7,0-4.9-0.5-6.5-1.5
		c-1.6-1-2.7-2.7-3.4-5.2c-0.4-1.2-0.6-2.5-0.6-3.8c0-1.5,0.3-3.1,0.8-4.7c0.4-1.2,0.8-2.3,1.3-3.3c0.5-0.9,1.1-1.9,1.8-2.9
		c0.5,1.6,1.3,3.4,2.3,5.4c1.8,3.7,3.6,6.5,5.5,8.6c1.9,2,3.2,3.4,3.9,4.1c0.7,0.7,1.2,1.1,1.5,1.4c0.3,0.2,0.5,0.4,0.6,0.4
		C466.2,609.6,465.5,609.9,464.9,610z M485.2,586.7c-1.1,3.4-2.4,6.5-4,9.3c-1.2,2.1-2.4,3.9-3.5,5.2l-0.7-0.7
		c-1.2-1.2-2.1-2.1-2.7-2.8c-2.5-2.8-4.5-6-6-9.6c-1.5-3.6-2.3-7.5-2.3-11.6v-0.7c0.1-1.6,0.4-3.1,0.8-4.7c1.5-4.9,4.4-7.4,8.7-7.4
		c2.1,0,3.7,0.5,5,1.4c4.1,2.6,6.1,6.7,6.1,12.3C486.8,580.2,486.3,583.3,485.2,586.7z M587.8,610c-0.7,0.2-1.6,0.4-2.6,0.5
		c-0.8,0.1-1.6,0.2-2.4,0.2c-2.7,0-4.9-0.5-6.5-1.5c-1.6-1-2.7-2.7-3.4-5.2c-0.4-1.2-0.6-2.5-0.6-3.8c0-1.5,0.3-3.1,0.8-4.7
		c0.4-1.2,0.8-2.3,1.3-3.3c0.5-0.9,1.1-1.9,1.8-2.9c0.5,1.6,1.3,3.4,2.3,5.4c1.8,3.7,3.6,6.5,5.5,8.6c1.9,2,3.2,3.4,3.9,4.1
		c0.7,0.7,1.2,1.1,1.5,1.4c0.3,0.2,0.5,0.4,0.6,0.4C589.1,609.6,588.4,609.9,587.8,610z M608.1,586.7c-1.1,3.4-2.4,6.5-4,9.3
		c-1.2,2.1-2.4,3.9-3.5,5.2l-0.7-0.7c-1.2-1.2-2.1-2.1-2.7-2.8c-2.5-2.8-4.5-6-6-9.6c-1.5-3.6-2.3-7.5-2.3-11.6v-0.7
		c0.1-1.6,0.4-3.1,0.8-4.7c1.5-4.9,4.4-7.4,8.7-7.4c2.1,0,3.7,0.5,5,1.4c4.1,2.6,6.1,6.7,6.1,12.3
		C609.7,580.2,609.2,583.3,608.1,586.7z"/>
</g>
</svg>
