<?xml version="1.0" encoding="utf-8"?>
<!-- Generator: Adobe Illustrator 22.0.0, SVG Export Plug-In . SVG Version: 6.00 Build 0)  -->
<svg version="1.1" id="Layer_1" xmlns="http://www.w3.org/2000/svg" xmlns:xlink="http://www.w3.org/1999/xlink" x="0px" y="0px"
	 viewBox="0 0 1080 1080" style="enable-background:new 0 0 1080 1080;" xml:space="preserve">
<g>
	<g>
		<path d="M319.2,691.8c-0.5-0.5-0.8-1.2-0.8-1.9v-49.2c0-0.8,0.3-1.4,0.8-2c0.5-0.5,1.2-0.8,1.9-0.8h32.8c0.8,0,1.4,0.3,2,0.8
			c0.5,0.5,0.8,1.1,0.8,1.9c0,0.7-0.3,1.4-0.8,1.9c-0.5,0.5-1.2,0.7-2,0.7h-30.1v19.3h21.9c0.8,0,1.4,0.3,2,0.8
			c0.5,0.5,0.8,1.1,0.8,1.9c0,0.7-0.3,1.4-0.8,1.9c-0.5,0.5-1.2,0.8-1.9,0.8h-21.9v19.5h30.1c0.8,0,1.4,0.2,2,0.7
			c0.5,0.5,0.8,1.1,0.8,1.9c0,0.7-0.3,1.4-0.8,1.9c-0.5,0.5-1.2,0.8-2,0.8h-32.8C320.3,692.6,319.7,692.3,319.2,691.8z"/>
		<path d="M407.9,638.6c0.4,0.5,0.7,1.1,0.7,1.8c0,0.5-0.1,1-0.4,1.5l-20.9,48.9c-0.5,1.2-1.3,1.8-2.5,1.8c-0.6,0-1.1-0.1-1.5-0.4
			c-0.4-0.3-0.7-0.7-1-1.4l-20.8-48.7c-0.3-0.7-0.4-1.3-0.4-1.8c0-0.7,0.2-1.3,0.7-1.8c0.5-0.4,1.1-0.7,1.9-0.7
			c1.2,0,2.1,0.6,2.5,1.8l18.6,44.4l18.5-44.3c0.3-0.7,0.6-1.2,1.1-1.5c0.4-0.3,1-0.4,1.7-0.4C406.9,637.9,407.5,638.1,407.9,638.6z
			"/>
		<path d="M417.8,691.8c-0.5-0.5-0.8-1.2-0.8-1.9v-49.2c0-0.8,0.3-1.4,0.8-2c0.5-0.5,1.2-0.8,1.9-0.8h32.8c0.8,0,1.4,0.3,2,0.8
			c0.5,0.5,0.8,1.1,0.8,1.9c0,0.7-0.3,1.4-0.8,1.9c-0.5,0.5-1.2,0.7-2,0.7h-30.1v19.3h21.9c0.8,0,1.4,0.3,2,0.8
			c0.5,0.5,0.8,1.1,0.8,1.9c0,0.7-0.3,1.4-0.8,1.9c-0.5,0.5-1.2,0.8-1.9,0.8h-21.9v19.5h30.1c0.8,0,1.4,0.2,2,0.7
			c0.5,0.5,0.8,1.1,0.8,1.9c0,0.7-0.3,1.4-0.8,1.9c-0.5,0.5-1.2,0.8-2,0.8h-32.8C418.9,692.6,418.3,692.3,417.8,691.8z"/>
		<path d="M500.2,690.3c0,0.7-0.3,1.3-0.8,1.7c-0.5,0.4-1.2,0.6-2,0.6c-0.6,0-1-0.1-1.4-0.4c-0.4-0.2-0.7-0.6-1-1.1l-12.6-20h-1.2
			h-10.4v18.7c0,0.8-0.3,1.4-0.8,2c-0.5,0.5-1.2,0.8-2,0.8c-0.8,0-1.4-0.3-2-0.8c-0.5-0.5-0.8-1.2-0.8-2v-49.2c0-0.8,0.3-1.4,0.8-2
			c0.5-0.5,1.2-0.8,2-0.8h13.1c3.4,0,6.4,0.7,9.1,2.1c2.7,1.4,4.7,3.4,6.3,6c1.5,2.6,2.3,5.5,2.3,8.8c0,3.6-1,6.7-2.9,9.5
			c-1.9,2.7-4.6,4.6-7.9,5.8l11.5,18.3C500,689.1,500.2,689.7,500.2,690.3z M481.2,665.9c2.3,0,4.4-0.5,6.3-1.4c1.9-1,3.4-2.3,4.4-4
			c1.1-1.7,1.6-3.6,1.6-5.7c0-2.2-0.5-4.2-1.6-6c-1.1-1.8-2.5-3.2-4.4-4.1c-1.9-1-4-1.5-6.4-1.5h-10.4v22.8H481.2z"/>
		<path d="M591,689.8c0,0.7-0.3,1.4-0.8,1.9c-0.5,0.5-1.2,0.8-1.9,0.8c-1.2,0-2.1-0.6-2.6-1.7l-4.7-11.3h-27.1l-4.7,11.3
			c-0.4,1.1-1.2,1.7-2.5,1.7c-0.8,0-1.4-0.3-1.9-0.8c-0.5-0.5-0.7-1.2-0.7-1.9c0-0.5,0.1-0.9,0.2-1.2l20.6-48.9
			c0.5-1.3,1.4-1.9,2.7-1.9c1.3,0,2.1,0.6,2.6,1.9l20.7,48.9C590.9,689,591,689.4,591,689.8z M555.9,674.8h23.2l-11.6-28.1
			L555.9,674.8z"/>
		<path d="M595.4,691.8c-0.5-0.5-0.8-1.2-0.8-1.9v-49.2c0-0.8,0.3-1.4,0.8-2c0.5-0.5,1.2-0.8,1.9-0.8h32.8c0.8,0,1.4,0.3,2,0.8
			c0.5,0.5,0.8,1.1,0.8,1.9c0,0.7-0.3,1.4-0.8,1.9c-0.5,0.5-1.2,0.7-2,0.7h-30.1v19.3H622c0.8,0,1.4,0.2,2,0.7
			c0.5,0.5,0.8,1.1,0.8,1.9c0,0.7-0.3,1.4-0.8,1.9c-0.5,0.5-1.2,0.8-2,0.8h-21.9v22.1c0,0.7-0.3,1.4-0.8,1.9c-0.5,0.5-1.2,0.8-2,0.8
			C596.6,692.6,595.9,692.3,595.4,691.8z"/>
		<path d="M679.8,638.6c0.5,0.5,0.7,1.1,0.7,1.8c0,0.7-0.2,1.3-0.7,1.8c-0.5,0.5-1.1,0.7-1.8,0.7h-16.7v47c0,0.7-0.3,1.4-0.8,1.9
			c-0.5,0.5-1.2,0.8-2,0.8c-0.7,0-1.4-0.3-1.9-0.8c-0.5-0.5-0.8-1.2-0.8-1.9v-47h-16.6c-0.7,0-1.4-0.2-1.8-0.7
			c-0.5-0.5-0.7-1.1-0.7-1.8c0-0.7,0.2-1.4,0.7-1.8c0.5-0.5,1.1-0.7,1.8-0.7H678C678.7,637.9,679.3,638.1,679.8,638.6z"/>
		<path d="M689.4,691.8c-0.5-0.5-0.8-1.2-0.8-1.9v-49.2c0-0.8,0.3-1.4,0.8-2c0.5-0.5,1.2-0.8,1.9-0.8h32.8c0.8,0,1.4,0.3,2,0.8
			c0.5,0.5,0.8,1.1,0.8,1.9c0,0.7-0.3,1.4-0.8,1.9s-1.2,0.7-2,0.7H694v19.3h21.9c0.8,0,1.4,0.3,2,0.8c0.5,0.5,0.8,1.1,0.8,1.9
			c0,0.7-0.3,1.4-0.8,1.9c-0.5,0.5-1.2,0.8-1.9,0.8H694v19.5h30.1c0.8,0,1.4,0.2,2,0.7c0.5,0.5,0.8,1.1,0.8,1.9
			c0,0.7-0.3,1.4-0.8,1.9c-0.5,0.5-1.2,0.8-2,0.8h-32.8C690.5,692.6,689.9,692.3,689.4,691.8z"/>
		<path d="M771.8,690.3c0,0.7-0.3,1.3-0.8,1.7c-0.5,0.4-1.2,0.6-2,0.6c-0.6,0-1-0.1-1.4-0.4c-0.4-0.2-0.7-0.6-1-1.1l-12.6-20h-1.2
			h-10.4v18.7c0,0.8-0.3,1.4-0.8,2c-0.5,0.5-1.2,0.8-2,0.8c-0.8,0-1.4-0.3-2-0.8c-0.5-0.5-0.8-1.2-0.8-2v-49.2c0-0.8,0.3-1.4,0.8-2
			c0.5-0.5,1.2-0.8,2-0.8h13.1c3.4,0,6.4,0.7,9.1,2.1c2.7,1.4,4.7,3.4,6.3,6c1.5,2.6,2.3,5.5,2.3,8.8c0,3.6-1,6.7-2.9,9.5
			c-1.9,2.7-4.6,4.6-7.9,5.8l11.5,18.3C771.6,689.1,771.8,689.7,771.8,690.3z M752.8,665.9c2.3,0,4.4-0.5,6.3-1.4
			c1.9-1,3.4-2.3,4.4-4s1.6-3.6,1.6-5.7c0-2.2-0.5-4.2-1.6-6c-1.1-1.8-2.5-3.2-4.4-4.1c-1.9-1-4-1.5-6.4-1.5h-10.4v22.8H752.8z"/>
	</g>
	<g>
		<path d="M666.2,493.6c1.3,0,3.9-0.9,3.9-4.2c0-3.3-2.6-4.2-3.9-4.2c-1.3,0-3.9,0.9-3.9,4.2C662.3,492.7,664.9,493.6,666.2,493.6z"
			/>
		<path d="M971.8,505.1c-1.7-1.2-4.1-0.8-5.4,0.8c-5.1,6.7-16.4,11.8-29.6,17.6c-10,4.5-21.2,9.4-31.8,16.1
			c-0.8-22.6-4-43.5-8.4-52.1c-2.1-4.1-4.6-6.1-7.7-6.1c-7,0-9.6,9.1-13.3,21.8c-3.3,11.4-7.9,27.1-14.8,27.1
			c-1.8,0-3.2-0.7-4.5-2.3c-4.8-6-4.4-20.4-3.8-22.6c0.7-1.9-0.3-4-2.3-4.7c-2-0.7-4.2,0.3-4.9,2.2c-0.2,0.4-0.3,1.1-0.4,1.9
			c-0.3,0.1-0.5,0.3-0.7,0.5c-2.1,1.7-4.1,3.6-6.2,5.5c-10.1,9.4-21.6,20.1-45.4,20.1c-12.3,0-21.8-6.3-28.2-18.6
			c-0.7-1.3-1.3-2.7-1.9-4.1c5.4-7.6,11.7-26.1,15.5-41.3c3.5-13.9,8.5-39,3.2-50.9c-2.8-6.3-7.6-7.2-10.2-7.2
			c-6.8,0-12.7,7-17,20.2c-3.7,11.3-5.8,26.1-5.8,40.5c0,10.1,1,23.7,5.3,36.4c0,0,0,0,0,0c-2.6,3.1-26.6,25.1-48.7,25.1
			c-16.6,0-25.2-5.7-29.6-10.4c-4.4-4.8-6.4-10.9-5.7-17.1c0.2-2-1.3-3.9-3.4-4.1c-2.1-0.3-4,1.2-4.3,3.3c-0.1,1-0.2,2.1-0.2,3.1
			c-8.8,4.8-40.5,14.9-64,22c0.8-8.9-1.4-17.7-8.7-22.6c-5.2-3.5-11.4-3.8-17.5-0.9c-4.3,2.1-8.1,5.6-11.2,9.6
			c0.1-2.7,0.3-5.2,0.4-7.6c0.1-2-1.5-3.8-3.6-3.9c-1.7-0.1-3.1,0.8-3.7,2.2c-0.4,0.1-0.9,0.3-1.3,0.5c-7.1,4.5-40.6,15.1-65,22.6
			c0.8-8.9-1.4-17.7-8.7-22.6c-5.2-3.5-11.4-3.8-17.5-0.9c-4.3,2.1-8.1,5.6-11.2,9.6c0.1-2.7,0.3-5.2,0.4-7.6c0.1-2-1.5-3.8-3.6-3.9
			c-1.7-0.1-3.1,0.8-3.8,2.2c-0.8,0.2-1.6,0.6-2.1,1.3c-2.6,3.1-26.6,25.1-48.7,25.1c-20.3,0-30.2-14.3-33.7-24.7
			c-1.1-3.2-1.6-6.1-1.6-8.1c0-2.1-1.7-3.7-3.8-3.7c-2.1,0-3.8,1.7-3.8,3.7c0,1,0.1,2.2,0.2,3.3c-6.7-1.6-14.7-0.2-21.4,2.9
			c-1,0-1.9,0.3-2.7,0.9c-0.6,0.6-1.3,1.1-2,1.7c-0.9,0.6-1.8,1.3-2.6,2c-0.5,0.4-1,0.8-1.4,1.3c-11.6,9.1-29.2,20.1-46.5,20.1
			c-15.7,0-27.6-4.7-36.1-14.4c-6.7-7.5-11-17.7-13.5-29.3c19.6-2.4,35.6-4.3,41.4-4.7c2.1-0.1,3.7-1.9,3.5-4c-0.1-2-2-3.6-4.1-3.4
			c-5.8,0.4-22.1,2.3-42.1,4.8c-4.1-27.4-0.2-61,4-87.6c0.3-2-1.1-3.9-3.2-4.2c-2.1-0.3-4,1.1-4.4,3.1c-4.3,27.1-8.2,61.2-3.9,89.7
			c-19.4,2.4-41.2,5.3-60,7.9c-0.1-38.4-0.1-88,0.1-96.9c0.1-2-1.6-3.8-3.7-3.8c-2.1-0.1-3.9,1.6-3.9,3.6c-0.2,9-0.2,59.5-0.1,98.2
			c-18.4,2.6-32.7,4.8-36.8,5.8c-2,0.5-3.3,2.5-2.8,4.5c0.4,1.7,2,2.8,3.7,2.8c0.3,0,0.6,0,0.9-0.1c4-1,17.5-3,35-5.5
			c0,8.5,0,16.2,0.1,22.5c0,7.9,0,13.5,0,15.1c0,2,1.7,3.7,3.8,3.7c2.1,0,3.8-1.7,3.8-3.7c0-1.7,0-7.2,0-15.2c0-6.5,0-14.5-0.1-23.5
			c19.1-2.6,41.5-5.6,61.3-8.1c2.7,13.1,7.5,24.6,15.2,33.2c10,11.2,24.1,16.9,42,16.9c14.6,0,28.8-6.4,40.9-14.3
			c0.2,2.2,1,4.4,2.4,6.5c2.5,3.9,6.8,5.9,12,5.9c2.7,0,5.7-0.5,8.8-1.6c7.8-2.7,15.5-8.5,19.2-15.2c6.6,10.3,18.3,19.3,36.1,19.3
			c20.4,0,40.8-15,50-23.3c-0.2,5.1-0.4,11.5-0.5,18.6c-0.2,29.1,2.4,70.2,17.2,82.8c3.2,2.7,6.8,4,10.8,4c1.1,0,2.3-0.1,3.4-0.3
			c6.3-1.2,8.7-4.9,9.6-7.8c5.1-16-23.5-45.7-32.3-54.4c-0.1-0.1-0.2-0.1-0.2-0.2c-0.5-8-0.7-16.1-0.6-23.9c0,0,0-0.1,0-0.1
			c0.3-7.4,7-19,15.1-22.9c3.6-1.7,6.8-1.6,9.7,0.3c5.3,3.5,6.3,11.3,4.9,18.9c-5,1.5-9.3,2.8-12.5,3.7c-8.8,2.6-10.5,8.2-10.8,10.4
			c-0.6,4,1.3,8,4.6,10c2.1,1.3,4.2,1.9,6.4,1.9c4.8,0,9.6-3,13.5-8.7c2.2-3.3,4.1-7.3,5.4-11.6c26.5-8,55.4-17.2,67.1-22.7
			c-0.3,5.3-0.5,12.5-0.5,20.5c-0.2,29.1,2.4,70.2,17.2,82.8c3.2,2.7,6.8,4,10.8,4c1.1,0,2.3-0.1,3.4-0.3c6.3-1.2,8.7-4.9,9.6-7.8
			c5.1-16-23.5-45.7-32.3-54.4c-0.1-0.1-0.2-0.1-0.2-0.2c-0.5-8-0.7-16.1-0.6-23.9c0,0,0-0.1,0-0.1c0.3-7.4,7-19,15.1-22.9
			c3.6-1.7,6.8-1.6,9.7,0.3c5.3,3.5,6.3,11.3,4.9,18.9c-5,1.5-9.3,2.8-12.5,3.7c-8.8,2.6-10.5,8.2-10.8,10.4c-0.6,4,1.3,8,4.6,10
			c2.1,1.3,4.2,1.9,6.4,1.9c4.8,0,9.6-3,13.5-8.7c2.2-3.3,4.1-7.3,5.4-11.6c26.1-7.9,54.5-16.9,66.6-22.4c1.2,4.4,3.5,8.4,6.8,12
			c5.4,5.9,15.9,12.9,35.3,12.9c21.8,0,43.7-17.3,51.8-24.9c0.3,0.7,0.7,1.5,1.1,2.2c7.7,14.9,19.8,22.7,35.1,22.7
			c26.9,0,40.1-12.3,50.7-22.1c0.5-0.4,0.9-0.9,1.4-1.3c0.4,5.8,1.8,12.5,5.1,17c2.8,3.8,6.6,5.9,11.1,5.9
			c12.8,0,17.8-17.3,22.2-32.5c1.6-5.5,4-13.7,5.9-16c2.9,3.5,7.1,19.7,8.3,47.3c0.1,2.8,0.2,5.5,0.2,8.3
			c-9.6,7.1-18.3,16.1-24.9,27.8c-7.7,13.8-9.8,29.4-5.2,38.8c2.3,4.7,6.1,7.6,10.9,8.6c0.8,0.2,1.8,0.3,2.7,0.3
			c3.5,0,7.8-1.3,11.6-6.2c9.2-11.5,12.7-38.8,12.5-65.5c11.3-7.9,23.8-13.4,34.8-18.3c14.1-6.3,26.3-11.7,32.6-20
			C973.9,508.6,973.5,506.3,971.8,505.1z M334,527.2c-2.1,0.7-9.1,2.8-11.7-1.2c-2.6-4-0.7-7.6,1.8-10.2c1.3-1,2.5-2,3.7-3
			c4.4-2.9,10.2-4.8,15.3-4.8c2.8,0,5.3,0.6,7.4,1.8C351,516.5,342.4,524.4,334,527.2z M475.1,610.1c-0.3,1-1,2.1-3.7,2.7
			c-2.9,0.6-5.3-0.1-7.6-2c-7.2-6.1-11.1-22.5-13-41.4C469.1,588.8,476.9,604.3,475.1,610.1z M473.7,543.3c-1.9,2.7-5.6,7-9.4,4.6
			c-0.6-0.3-1.3-1.5-1.1-2.8c0.3-1.8,2.2-3.4,5.5-4.3c2.5-0.7,5-1.5,7.6-2.3C475.5,540.3,474.7,541.9,473.7,543.3z M585.7,610.1
			c-0.3,1-1,2.1-3.7,2.7c-2.9,0.6-5.3-0.1-7.6-2c-7.2-6.1-11.1-22.5-13-41.4C579.7,588.8,587.5,604.3,585.7,610.1z M584.3,543.3
			c-1.9,2.7-5.6,7-9.4,4.6c-0.6-0.3-1.3-1.5-1.1-2.8c0.3-1.8,2.2-3.4,5.5-4.3c2.5-0.7,5-1.5,7.6-2.3
			C586.1,540.3,585.2,541.9,584.3,543.3z M761.3,431c3.9-11.8,8-15,9.7-15c0.7,0,2,0,3.2,2.7c6.4,14.5-6,61.7-14.8,79.9
			c-2.3-8.6-3.5-18.6-3.5-29.3C755.9,455.6,757.9,441.6,761.3,431z M890.1,603.6c-2.9,6.9-6.4,10-10.2,9.2c-2.5-0.5-4.3-1.9-5.5-4.5
			c-3.5-7.1-1.3-20.6,5-32.1c4.8-8.7,11.1-15.8,18.1-21.7C897.1,575.3,894.5,593.3,890.1,603.6z"/>
	</g>
	<polygon points="813.7,643.5 818.5,658.5 834.3,658.5 821.6,667.8 826.4,682.8 813.7,673.5 800.9,682.8 805.8,667.8 793,658.5 
		808.8,658.5 	"/>
	<polygon points="281.1,643.5 286,658.5 301.8,658.5 289,667.8 293.9,682.8 281.1,673.5 268.3,682.8 273.2,667.8 260.4,658.5 
		276.2,658.5 	"/>
</g>
</svg>
