<?xml version="1.0" encoding="utf-8"?>
<!-- Generator: Adobe Illustrator 22.0.0, SVG Export Plug-In . SVG Version: 6.00 Build 0)  -->
<svg version="1.1" id="Layer_1" xmlns="http://www.w3.org/2000/svg" xmlns:xlink="http://www.w3.org/1999/xlink" x="0px" y="0px"
	 viewBox="0 0 1080 1080" style="enable-background:new 0 0 1080 1080;" xml:space="preserve">
<g>
	<g>
		<path d="M320.2,598.3c-0.3-0.3-0.7-0.4-1.2-0.4h-24.6c-0.5,0-0.9,0.1-1.2,0.4c-0.3,0.3-0.4,0.7-0.4,1.2c0,0.4,0.1,0.8,0.4,1.1
			c0.3,0.3,0.7,0.4,1.2,0.4H305v29.9c0,0.5,0.2,0.9,0.5,1.2c0.3,0.3,0.7,0.5,1.2,0.5c0.5,0,0.9-0.2,1.2-0.5s0.5-0.7,0.5-1.2V601
			h10.6c0.5,0,0.9-0.1,1.2-0.4c0.3-0.3,0.4-0.7,0.4-1.1C320.7,599,320.5,598.6,320.2,598.3z"/>
		<path d="M347.4,599.7c-2.7-1.5-5.8-2.3-9.1-2.3c-3.4,0-6.4,0.8-9.1,2.3c-2.7,1.5-4.8,3.7-6.3,6.4c-1.5,2.7-2.3,5.7-2.3,9.1
			c0,3.4,0.8,6.4,2.3,9.2c1.5,2.7,3.6,4.8,6.3,6.4c2.7,1.5,5.7,2.3,9.1,2.3c3.4,0,6.4-0.8,9.1-2.3c2.7-1.5,4.8-3.7,6.4-6.4
			c1.5-2.7,2.3-5.8,2.3-9.2c0-3.4-0.8-6.4-2.3-9.1C352.3,603.4,350.1,601.3,347.4,599.7z M350.8,622.6c-1.2,2.2-3,4-5.1,5.2
			c-2.2,1.3-4.6,1.9-7.3,1.9c-2.7,0-5.2-0.6-7.4-1.9c-2.2-1.3-3.9-3-5.1-5.2c-1.2-2.2-1.9-4.7-1.9-7.4c0-2.7,0.6-5.2,1.9-7.4
			c1.2-2.2,3-4,5.1-5.2c2.2-1.3,4.6-1.9,7.4-1.9c2.7,0,5.1,0.6,7.3,1.9c2.2,1.3,3.9,3,5.1,5.2c1.2,2.2,1.9,4.7,1.9,7.4
			C352.7,618,352,620.4,350.8,622.6z"/>
		<path d="M398.7,597.9h-24.6c-0.5,0-0.9,0.1-1.2,0.4c-0.3,0.3-0.4,0.7-0.4,1.2c0,0.4,0.1,0.8,0.4,1.1c0.3,0.3,0.7,0.4,1.2,0.4h10.6
			v29.9c0,0.5,0.2,0.9,0.5,1.2c0.3,0.3,0.7,0.5,1.2,0.5c0.5,0,0.9-0.2,1.2-0.5s0.5-0.7,0.5-1.2V601h10.6c0.5,0,0.9-0.1,1.2-0.4
			c0.3-0.3,0.4-0.7,0.4-1.1c0-0.5-0.1-0.9-0.4-1.2C399.6,598,399.2,597.9,398.7,597.9z"/>
		<path d="M432.4,597.9c-0.5,0-0.9,0.2-1.2,0.5c-0.3,0.3-0.5,0.7-0.5,1.2v13.9h-21.7v-13.9c0-0.5-0.2-0.9-0.5-1.2
			c-0.3-0.3-0.7-0.5-1.2-0.5c-0.5,0-0.9,0.2-1.2,0.5c-0.3,0.3-0.5,0.7-0.5,1.2v31.3c0,0.5,0.2,0.9,0.5,1.2s0.7,0.5,1.2,0.5
			c0.5,0,0.9-0.2,1.2-0.5c0.3-0.3,0.5-0.7,0.5-1.2v-14.3h21.7v14.3c0,0.5,0.2,0.9,0.5,1.2c0.3,0.3,0.7,0.5,1.2,0.5
			c0.5,0,0.9-0.2,1.2-0.5c0.3-0.3,0.5-0.7,0.5-1.2v-31.3c0-0.5-0.2-0.9-0.5-1.2C433.3,598,432.9,597.9,432.4,597.9z"/>
		<path d="M465.7,601.2c0.5,0,0.9-0.2,1.2-0.5c0.3-0.3,0.5-0.7,0.5-1.2s-0.2-0.9-0.5-1.2c-0.3-0.3-0.7-0.5-1.2-0.5h-20.9
			c-0.5,0-0.9,0.2-1.2,0.5c-0.3,0.3-0.5,0.7-0.5,1.2v31.3c0,0.5,0.2,0.9,0.5,1.2c0.3,0.3,0.8,0.5,1.2,0.5h20.9
			c0.5,0,0.9-0.2,1.2-0.5c0.3-0.3,0.5-0.7,0.5-1.2s-0.2-0.9-0.5-1.2c-0.3-0.3-0.7-0.5-1.2-0.5h-19.1v-12.4h13.9
			c0.5,0,0.9-0.2,1.2-0.5c0.3-0.3,0.5-0.7,0.5-1.2c0-0.5-0.2-0.9-0.5-1.2c-0.3-0.3-0.7-0.5-1.2-0.5h-13.9v-12.3H465.7z"/>
		<path d="M521.7,597.9c-0.9,0-1.5,0.4-1.7,1.2l-7.7,27.1l-7.3-26.1c-0.1-0.4-0.3-0.6-0.6-0.8c-0.3-0.2-0.6-0.3-1-0.3
			c-0.4,0-0.7,0.1-1,0.3c-0.3,0.2-0.5,0.5-0.6,0.8l-7.3,26.1l-7.7-26.8c-0.3-0.9-0.9-1.3-1.7-1.3c-0.5,0-0.9,0.2-1.2,0.5
			c-0.3,0.3-0.4,0.7-0.4,1.2c0,0.2,0,0.5,0.1,0.8l9.1,30.9c0.1,0.4,0.3,0.8,0.6,1c0.3,0.3,0.7,0.4,1.1,0.4c0.4,0,0.8-0.1,1.1-0.4
			c0.3-0.3,0.5-0.6,0.7-1.1l7.2-26.3l7.2,26.3c0.1,0.4,0.3,0.8,0.6,1c0.3,0.3,0.7,0.4,1.1,0.4c0.4,0,0.8-0.1,1.1-0.4
			c0.3-0.3,0.5-0.6,0.7-1.1l9.1-30.8c0.1-0.3,0.1-0.6,0.1-0.8c0-0.5-0.1-0.9-0.4-1.2C522.6,598,522.2,597.9,521.7,597.9z"/>
		<path d="M551.3,601.2c0.5,0,0.9-0.2,1.2-0.5c0.3-0.3,0.5-0.7,0.5-1.2s-0.2-0.9-0.5-1.2c-0.3-0.3-0.7-0.5-1.2-0.5h-20.9
			c-0.5,0-0.9,0.2-1.2,0.5c-0.3,0.3-0.5,0.7-0.5,1.2v31.3c0,0.5,0.2,0.9,0.5,1.2c0.3,0.3,0.7,0.5,1.2,0.5h20.9
			c0.5,0,0.9-0.2,1.2-0.5c0.3-0.3,0.5-0.7,0.5-1.2s-0.2-0.9-0.5-1.2c-0.3-0.3-0.7-0.5-1.2-0.5h-19.1v-12.4h13.9
			c0.5,0,0.9-0.2,1.2-0.5c0.3-0.3,0.5-0.7,0.5-1.2c0-0.5-0.2-0.9-0.5-1.2c-0.3-0.3-0.7-0.5-1.2-0.5h-13.9v-12.3H551.3z"/>
		<path d="M578.2,600.1c-2.6-1.5-5.6-2.2-9-2.2h-8c-0.5,0-0.9,0.2-1.2,0.5c-0.3,0.3-0.5,0.7-0.5,1.2v31.3c0,0.5,0.2,0.9,0.5,1.2
			c0.3,0.3,0.7,0.5,1.2,0.5h8c3.4,0,6.4-0.7,9-2.2c2.6-1.5,4.7-3.5,6.2-6.2c1.5-2.6,2.2-5.6,2.2-9c0-3.4-0.7-6.3-2.2-9
			C582.9,603.6,580.9,601.6,578.2,600.1z M581.4,622.6c-1.2,2.2-2.8,3.9-4.9,5.1c-2.1,1.2-4.5,1.8-7.2,1.8H563V601h6.3
			c2.7,0,5.1,0.6,7.2,1.8c2.1,1.2,3.8,2.9,4.9,5.1c1.2,2.2,1.8,4.6,1.8,7.3C583.2,618,582.6,620.4,581.4,622.6z"/>
		<path d="M612.5,600.1c-2.6-1.5-5.6-2.2-9-2.2h-8c-0.5,0-0.9,0.2-1.2,0.5c-0.3,0.3-0.5,0.7-0.5,1.2v31.3c0,0.5,0.2,0.9,0.5,1.2
			c0.3,0.3,0.7,0.5,1.2,0.5h8c3.4,0,6.4-0.7,9-2.2s4.7-3.5,6.2-6.2c1.5-2.6,2.2-5.6,2.2-9c0-3.4-0.7-6.3-2.2-9
			C617.2,603.6,615.1,601.6,612.5,600.1z M615.7,622.6c-1.2,2.2-2.8,3.9-4.9,5.1c-2.1,1.2-4.5,1.8-7.2,1.8h-6.3V601h6.3
			c2.7,0,5.1,0.6,7.2,1.8c2.1,1.2,3.8,2.9,4.9,5.1c1.2,2.2,1.8,4.6,1.8,7.3C617.5,618,616.9,620.4,615.7,622.6z"/>
		<path d="M629.8,597.9c-0.5,0-0.9,0.2-1.2,0.5c-0.3,0.3-0.5,0.7-0.5,1.2v31.3c0,0.5,0.2,0.9,0.5,1.2s0.7,0.5,1.2,0.5
			c0.5,0,0.9-0.2,1.2-0.5c0.3-0.3,0.5-0.7,0.5-1.2v-31.3c0-0.5-0.2-0.9-0.5-1.2C630.7,598,630.3,597.9,629.8,597.9z"/>
		<path d="M666.5,597.9c-0.5,0-0.9,0.2-1.2,0.5c-0.3,0.3-0.5,0.7-0.5,1.2v26.8l-21.3-28c-0.4-0.4-0.8-0.6-1.3-0.6
			c-0.5,0-0.9,0.2-1.2,0.5c-0.3,0.3-0.5,0.7-0.5,1.2v31.3c0,0.5,0.2,0.9,0.5,1.2c0.3,0.3,0.7,0.5,1.2,0.5c0.5,0,0.9-0.2,1.2-0.5
			s0.5-0.7,0.5-1.2v-26.8l21.3,28c0.3,0.4,0.7,0.6,1.3,0.6c0.5,0,0.9-0.2,1.2-0.5c0.3-0.3,0.5-0.7,0.5-1.2v-31.3
			c0-0.5-0.2-0.9-0.5-1.2C667.4,598,667,597.9,666.5,597.9z"/>
		<path d="M685.8,602.7c2.1-1.3,4.5-2,6.9-2c1.8,0,3.4,0.2,4.8,0.7c1.4,0.5,2.6,1.2,3.8,2.3c0.3,0.3,0.7,0.4,1.1,0.4
			c0.2,0,0.5-0.1,0.7-0.2c0.2-0.1,0.3-0.3,0.4-0.5c0.2-0.1,0.4-0.2,0.5-0.4c0.1-0.2,0.2-0.4,0.2-0.6c0-0.4-0.2-0.8-0.5-1
			c-1.6-1.4-3.3-2.4-5.1-3c-1.8-0.6-3.7-0.9-5.8-0.9c-3.2,0-6.1,0.8-8.7,2.4c-2.6,1.6-4.7,3.8-6.3,6.5c-1.5,2.7-2.3,5.7-2.3,8.9
			c0,3.2,0.8,6.2,2.3,8.9c1.6,2.7,3.7,4.9,6.3,6.5c2.6,1.6,5.5,2.4,8.7,2.4c4.5,0,8.1-1.3,10.9-3.8c0.3-0.3,0.5-0.7,0.5-1.2v-11
			c0-0.5-0.2-0.9-0.5-1.2c-0.3-0.3-0.7-0.5-1.2-0.5h-8.6c-0.5,0-0.9,0.1-1.2,0.4c-0.3,0.3-0.5,0.6-0.5,1.1c0,0.4,0.2,0.8,0.5,1.1
			c0.3,0.3,0.7,0.4,1.2,0.4h6.9v8.9c-2.5,1.7-5.1,2.5-8,2.5c-2.5,0-4.9-0.7-7-2c-2.1-1.3-3.8-3.1-5.1-5.3c-1.2-2.2-1.9-4.7-1.9-7.3
			c0-2.6,0.6-5,1.9-7.2C682,605.8,683.7,604,685.8,602.7z"/>
		<path d="M749.7,599.7c-2.7-1.5-5.8-2.3-9.1-2.3c-3.4,0-6.4,0.8-9.1,2.3c-2.7,1.5-4.8,3.7-6.3,6.4c-1.5,2.7-2.3,5.7-2.3,9.1
			c0,3.4,0.8,6.4,2.3,9.2c1.5,2.7,3.6,4.8,6.3,6.4c2.7,1.5,5.7,2.3,9.1,2.3c3.4,0,6.4-0.8,9.1-2.3c2.7-1.5,4.8-3.7,6.4-6.4
			c1.5-2.7,2.3-5.8,2.3-9.2c0-3.4-0.8-6.4-2.3-9.1C754.6,603.4,752.4,601.3,749.7,599.7z M753.1,622.6c-1.2,2.2-3,4-5.1,5.2
			c-2.2,1.3-4.6,1.9-7.3,1.9c-2.7,0-5.2-0.6-7.4-1.9c-2.2-1.3-3.9-3-5.1-5.2c-1.2-2.2-1.9-4.7-1.9-7.4c0-2.7,0.6-5.2,1.9-7.4
			c1.2-2.2,3-4,5.1-5.2c2.2-1.3,4.6-1.9,7.4-1.9c2.7,0,5.1,0.6,7.3,1.9c2.2,1.3,3.9,3,5.1,5.2c1.2,2.2,1.9,4.7,1.9,7.4
			C754.9,618,754.3,620.4,753.1,622.6z"/>
		<path d="M786.6,598.4c-0.3-0.3-0.7-0.5-1.2-0.5h-20.9c-0.5,0-0.9,0.2-1.2,0.5c-0.3,0.3-0.5,0.7-0.5,1.2v31.3
			c0,0.5,0.2,0.9,0.5,1.2s0.8,0.5,1.2,0.5c0.5,0,0.9-0.2,1.2-0.5c0.3-0.3,0.5-0.7,0.5-1.2v-14h13.9c0.5,0,0.9-0.2,1.2-0.5
			c0.3-0.3,0.5-0.7,0.5-1.2c0-0.5-0.2-0.9-0.5-1.2c-0.3-0.3-0.7-0.5-1.2-0.5h-13.9v-12.3h19.1c0.5,0,0.9-0.2,1.2-0.5
			c0.3-0.3,0.5-0.7,0.5-1.2S787,598.7,786.6,598.4z"/>
	</g>
	<path d="M1006.4,517.2c-19.7-17.8-67.3-23.2-103.2-20.6c0,0,0,0,0,0c0,0-0.1,0-0.1,0c-37.6,4.2-65.7,16.9-88.2,27.1
		c-16.6,7.5-29.7,13.3-40.6,13.2c-6.7-0.1-7.2-7-7.2-9.1c0-0.1,0-0.1,0-0.2c0.9,0.2,2,0.3,3.2,0.3c3.1-0.1,8.9-1.1,8.9-4.9
		c0-6.5-3.8-9.4-7.6-9.4c-3.2,0-6.5,2-8.5,5.9c0,0,0,0,0,0c-4.4,3.5-17.8,14.3-47.7,14.3c-10.4,0-12.4-4.9-14.2-9.3
		c-1-2.6-2.3-5.8-6-5.8c-3,0-5.6,2.2-8,5.3c-0.3-1.3-0.8-2.5-1.7-3.5c-1.1-1.2-2.6-1.8-4.4-1.8c-3.7,0-7.2,4-9.9,8.6V519
		c0-1.5-1.3-2.8-2.8-2.8c-1.3,0-2.5,0.9-2.8,2.1c-0.2,0.2-0.5,0.3-0.7,0.6c-2,2.3-19.8,18.6-36.1,18.6c-8.8,0-14.6-2.1-18.3-4.6
		c0.5-1.5,0.7-3.1,0.7-4.8c0-7.3-4.8-13.3-10.8-14c-0.1,0-0.2,0-0.3,0c-0.2,0-0.3,0-0.5,0c-0.1,0-0.2,0-0.3,0c-3.6,0-6.8,1.9-9,4.9
		c-24,16.6-44.6,19.9-52.1,18c-5.2-1.3-7.9-4.4-7.9-9.2c0-2.2,0.4-3.9,0.9-5.2c0.4-0.4,0.6-0.9,0.7-1.4c0.9-1.4,2.1-2.1,2.9-2.1
		c1.3,0,1.9,1.9,1.9,3.9c0,1.5,1.3,2.8,2.8,2.8c1.6,0,2.8-1.2,2.8-2.8c0-6.5-3.8-9.4-7.6-9.4c-2.7,0-5.4,1.5-7.3,4
		c-0.4,0.5-0.7,1-1,1.6c-1.3,1.1-2.5,2.2-3.9,3.5c-7.5,7-16,14.9-33.7,14.9c-9.1,0-16.2-4.6-20.9-13.8c-0.5-1-1-2-1.4-3
		c4-5.6,8.6-19.4,11.5-30.7c2.6-10.3,6.3-28.9,2.4-37.8c-2.1-4.7-5.6-5.4-7.6-5.4c-5.1,0-9.4,5.2-12.6,15
		c-2.7,8.4-4.3,19.4-4.3,30.1c0,7.5,0.8,17.5,3.9,26.9c-24.1,16.7-44.8,20-52.3,18.1c-5.2-1.3-7.9-4.4-7.9-9.2c0-0.1,0-0.1,0-0.2
		c0.9,0.2,2,0.3,3.2,0.3c3.1-0.1,8.9-1.1,8.9-4.9c0-6.5-3.8-9.4-7.6-9.4c-2.7,0-5.4,1.5-7.3,4c-0.7,1-1.3,2.1-1.7,3.3
		c-8.9,11.5-29.2,18.2-43.7,14c-2.6-0.7-5.3-2-7.7-3.9c2.9-7.5,4.1-17.1,1.5-21.3c-1.7-2.6-4.7-4-7.4-3.2c-2.5,0.7-5.4,3.2-5.4,11.2
		c0,5.7,1.6,10.6,4.6,14.5c-0.2,0.3-0.3,0.6-0.5,1c-1.1,1.8-3.2,5-5.7,5c-0.7,0-1.7-0.2-2.8-1.6c-3-3.9-3.7-12.3-3.6-16.5
		c0.1-1,0.2-1.9,0.3-2.7c0,0,0-0.1,0-0.1c0-0.1,0-0.2,0-0.3c0-0.1,0-0.2,0-0.3c0-0.1,0-0.1,0-0.2c0,0,0-0.1,0-0.1c0-0.1,0-0.1,0-0.2
		c-0.1-0.3-0.3-0.6-0.5-0.9c-0.1-0.1-0.2-0.3-0.3-0.4c-0.2-0.1-0.3-0.3-0.5-0.4c-0.1,0-0.1-0.1-0.2-0.1c-0.1-0.1-0.3-0.1-0.4-0.2
		c0,0,0,0,0,0c-0.1,0-0.2-0.1-0.3-0.1c0,0,0,0,0,0c0,0-0.1,0-0.1,0c-0.1,0-0.2,0-0.2,0c0,0,0,0-0.1,0c-0.1,0-0.2,0-0.2,0
		c-0.1,0-0.1,0-0.2,0c-0.1,0-0.1,0-0.2,0c-0.1,0-0.2,0-0.2,0.1c-0.1,0-0.1,0-0.2,0.1c-0.1,0-0.1,0.1-0.2,0.1
		c-0.3,0.1-0.5,0.3-0.7,0.5c-0.1,0.1-0.3,0.3-0.4,0.4c0,0.1-0.1,0.1-0.1,0.2c0,0.1-0.1,0.1-0.1,0.2c0,0.1-0.1,0.2-0.1,0.2
		c0,0,0,0,0,0c-0.2,0.7-0.3,1.8-0.4,3.2c-1.3,9-4,15.4-6.8,15.4c-1.3,0-2.3-0.5-3.2-1.7c-3.2-4.1-3.1-13.6-2.6-15.4
		c0.4-1.5-0.4-3-2-3.4c-0.3-0.1-0.6-0.1-0.9-0.1c-0.2,0-0.4,0-0.7,0c-1.1,0.2-2.9,0.6-5.1,1c-114.9,22.8-192.4,24-218.3,3.5
		c-6.6-5.2-9.8-11.6-9.8-19.7c0-1.5-1.3-2.8-2.8-2.8c-1.6,0-2.8,1.2-2.8,2.8c0,9.7,4,17.7,11.9,24c13.3,10.5,38.1,15.8,73.5,15.8
		c38,0,88.2-6.1,149.5-18.2c0.6-0.1,1.1-0.2,1.6-0.3c-0.1,4.7,0.6,11.8,4,16.1c2,2.5,4.6,3.9,7.7,3.9c3.9,0,6.6-2.6,8.5-6.3
		c0.7,2.2,1.7,4.2,2.9,5.9c2.5,3.1,5.4,3.8,7.4,3.8c2.8,0,6.8-1.3,10.4-7.4c2.4,1.7,5.3,3.1,8.5,4c14.2,4.1,32.7-0.6,44.3-10.2
		c0.8,6.1,5.1,10.5,12,12.3c1.6,0.4,3.6,0.6,5.9,0.6c10.7,0,29.2-4.7,49.9-18.8c0.3,0.7,0.7,1.4,1,2.1c5.7,11,14.7,16.8,26,16.8
		c18.2,0,28-7.6,35.6-14.5c0.3,6.9,4.7,11.8,12.1,13.7c1.6,0.4,3.6,0.6,5.9,0.6c9.8,0,26.1-3.9,44.7-15.4c0,0.2,0,0.4,0,0.7
		c0,7.8,5.3,14.1,11.9,14.1c3.4,0,6.4-1.7,8.6-4.4c4.6,2.9,11.3,5.2,20.9,5.2c14.8,0,29.7-10.8,36.7-16.9v14.7c0,0.1,0,0.2,0,0.3
		c0,0.1,0,0.2,0,0.3c0.1,0.6,0.5,1.1,0.9,1.5c0.1,0,0.1,0.1,0.2,0.1c0.1,0.1,0.2,0.1,0.2,0.2c0.1,0,0.1,0.1,0.2,0.1
		c0.2,0.1,0.3,0.1,0.5,0.2c0.1,0,0.1,0,0.2,0c0.1,0,0.2,0,0.3,0c0.1,0,0.2,0,0.3,0c0.1,0,0.2,0,0.3,0c0.1,0,0.2,0,0.3,0
		c0.2,0,0.4-0.1,0.5-0.2c0.1,0,0.1,0,0.2-0.1c0.3-0.1,0.5-0.3,0.7-0.5c0.1-0.1,0.2-0.2,0.3-0.3c0.2-0.2,0.3-0.5,0.4-0.8
		c0-0.1,0.1-0.2,0.1-0.3c0,0,0,0,0,0c0.8-4.1,7.2-16.7,9.9-17.2c0.1,0,0.1,0,0.1,0c0.3,0.3,0.8,1.7,0.3,6.7
		c-0.1,0.8-0.2,1.4-0.2,1.9c0,1.4,0.8,2.5,2.1,2.8c2.3,0.6,3.3-1,4.9-3.5c3.7-5.7,5.5-7.4,6.5-7.8c0.3,0.5,0.7,1.5,1,2.2
		c1.8,4.5,5.2,12.8,19.5,12.8c24.1,0,38.4-6.7,46-11.6c0,0,0,0,0,0c0,6.6,3.4,14.4,12.8,14.6c0.2,0,0.5,0,0.7,0
		c12,0,25.5-6.1,42.4-13.7c22.2-10,49.8-22.5,86.5-26.6h0c35.8-2.5,81.1,3.3,98.8,19.2c5,4.5,7.6,9.7,7.6,15.3
		c0,1.5,1.3,2.8,2.8,2.8c1.6,0,2.8-1.2,2.8-2.8C1015.8,529.3,1012.7,522.8,1006.4,517.2z M339.9,525.5c-0.9-2.1-1.5-4.7-1.5-7.8
		c0-4.9,1.2-5.8,1.2-5.9c0.1,0,0.7,0.3,1,0.8C341.6,514.1,341.5,519.7,339.9,525.5z M404.5,519.1c1,0,1.6,1.2,1.8,2.7
		c-1.3,0.5-3.7,0.7-4.9,0.4c0.2-0.4,0.3-0.8,0.3-1.2C402.6,519.7,403.7,519.1,404.5,519.1z M466,463.5c2.9-8.8,5.9-11.1,7.2-11.1
		c0.5,0,1.5,0,2.4,2c4.7,10.8-4.5,45.8-11,59.3c-1.7-6.4-2.6-13.8-2.6-21.7C461.9,481.8,463.4,471.4,466,463.5z M599.4,536.7
		c-3.4,0-6.2-3.9-6.2-8.6c0-2,0.5-3.8,1.4-5.3c0.5-0.4,0.8-0.8,1-1.3c0.4-0.5,0.9-0.9,1.4-1.2c0.3,4.8,2.3,9.4,5.7,13.2
		c0.3,0.3,0.6,0.6,0.9,0.9C602.5,535.9,601,536.7,599.4,536.7z M605.6,528.2c-1.6-2.2-2.6-4.6-2.9-7.2
		C604.5,522.6,605.6,525.2,605.6,528.2C605.6,528.2,605.6,528.2,605.6,528.2z M771.7,519c0.3,0,0.7,0.1,1.1,0.6
		c0.2,0.3,0.6,1,0.8,2.1c-1.4,0.5-3.8,0.7-5,0.4c0.2-0.4,0.3-0.8,0.4-1.2C769.8,519.6,770.9,519,771.7,519z"/>
</g>
</svg>
