<?xml version="1.0" encoding="utf-8"?>
<!-- Generator: Adobe Illustrator 22.0.0, SVG Export Plug-In . SVG Version: 6.00 Build 0)  -->
<svg version="1.1" id="Layer_1" xmlns="http://www.w3.org/2000/svg" xmlns:xlink="http://www.w3.org/1999/xlink" x="0px" y="0px"
	 viewBox="0 0 1080 1080" style="enable-background:new 0 0 1080 1080;" xml:space="preserve">
<g>
	<g>
		<path d="M272.1,654.8h-15.5v-5.6h37.8v5.6h-15.6v45.4h-6.7V654.8z"/>
		<path d="M341.6,674.2c0,17.6-10.7,26.9-23.7,26.9c-13.5,0-23-10.5-23-25.9c0-16.2,10.1-26.8,23.7-26.8
			C332.6,648.4,341.6,659,341.6,674.2z M302,675c0,10.9,5.9,20.7,16.3,20.7c10.5,0,16.4-9.6,16.4-21.2c0-10.1-5.3-20.8-16.3-20.8
			C307.5,653.7,302,663.8,302,675z"/>
		<path d="M442,674.2c0,17.6-10.7,26.9-23.7,26.9c-13.5,0-23-10.5-23-25.9c0-16.2,10.1-26.8,23.7-26.8C433,648.4,442,659,442,674.2z
			 M402.4,675c0,10.9,5.9,20.7,16.3,20.7c10.5,0,16.4-9.6,16.4-21.2c0-10.1-5.3-20.8-16.3-20.8C407.8,653.7,402.4,663.8,402.4,675z"
			/>
		<path d="M457.1,649.2v30.2c0,11.4,5.1,16.3,11.9,16.3c7.6,0,12.4-5,12.4-16.3v-30.2h6.7V679c0,15.7-8.3,22.1-19.3,22.1
			c-10.5,0-18.3-6-18.3-21.8v-30.1H457.1z"/>
		<path d="M499.5,649.9c3.3-0.7,8.1-1.1,12.6-1.1c7,0,11.6,1.3,14.8,4.2c2.6,2.3,4,5.8,4,9.7c0,6.7-4.2,11.2-9.6,13v0.2
			c3.9,1.4,6.3,5,7.5,10.3c1.7,7.1,2.9,12,3.9,14H526c-0.8-1.4-2-5.8-3.4-12.2c-1.5-7-4.2-9.7-10.2-9.9h-6.2v22.1h-6.6V649.9z
			 M506.1,673.1h6.7c7,0,11.5-3.9,11.5-9.7c0-6.6-4.8-9.5-11.7-9.5c-3.2,0-5.5,0.3-6.5,0.6V673.1z"/>
		<path d="M588.4,649.9c2.9-0.6,7.4-1.1,12-1.1c6.6,0,10.8,1.1,14,3.7c2.7,2,4.2,5,4.2,9c0,4.9-3.3,9.2-8.6,11.2v0.2
			c4.8,1.2,10.5,5.2,10.5,12.8c0,4.4-1.7,7.7-4.3,10.2c-3.6,3.3-9.3,4.8-17.6,4.8c-4.5,0-8-0.3-10.2-0.6V649.9z M595,670.8h6
			c7,0,11.1-3.6,11.1-8.6c0-6-4.5-8.3-11.2-8.3c-3,0-4.8,0.2-5.8,0.5V670.8z M595,695.2c1.3,0.2,3.2,0.3,5.5,0.3
			c6.8,0,13.1-2.5,13.1-9.9c0-7-6-9.8-13.2-9.8H595V695.2z"/>
		<path d="M655.9,676.3h-19.8v18.4h22.1v5.5h-28.7v-51.1H657v5.5h-21v16.1h19.8V676.3z"/>
		<path d="M705.6,698c-3,1.1-8.8,2.8-15.7,2.8c-7.7,0-14.1-2-19.1-6.7c-4.4-4.2-7.1-11.1-7.1-19c0.1-15.2,10.5-26.4,27.6-26.4
			c5.9,0,10.5,1.3,12.7,2.3l-1.6,5.4c-2.7-1.2-6.1-2.2-11.3-2.2c-12.4,0-20.5,7.7-20.5,20.5c0,13,7.8,20.6,19.7,20.6
			c4.3,0,7.3-0.6,8.8-1.4v-15.2h-10.4v-5.3h16.8V698z"/>
		<path d="M722.2,649.2v51.1h-6.6v-51.1H722.2z"/>
		<path d="M733.8,700.2v-51.1h7.2l16.4,25.8c3.8,6,6.7,11.4,9.2,16.6l0.2-0.1c-0.6-6.8-0.8-13-0.8-21v-21.4h6.2v51.1h-6.7
			l-16.2-25.9c-3.6-5.7-7-11.5-9.5-17l-0.2,0.1c0.4,6.4,0.5,12.6,0.5,21.1v21.8H733.8z"/>
		<path d="M783.6,700.2v-51.1h7.2l16.4,25.8c3.8,6,6.7,11.4,9.2,16.6l0.2-0.1c-0.6-6.8-0.8-13-0.8-21v-21.4h6.2v51.1h-6.7L799,674.3
			c-3.6-5.7-7-11.5-9.5-17l-0.2,0.1c0.4,6.4,0.5,12.6,0.5,21.1v21.8H783.6z"/>
		<path d="M840,649.2v51.1h-6.6v-51.1H840z"/>
		<path d="M851.5,700.2v-51.1h7.2l16.4,25.8c3.8,6,6.7,11.4,9.2,16.6l0.2-0.1c-0.6-6.8-0.8-13-0.8-21v-21.4h6.2v51.1h-6.7L867,674.3
			c-3.6-5.7-7-11.5-9.5-17l-0.2,0.1c0.4,6.4,0.5,12.6,0.5,21.1v21.8H851.5z"/>
		<path d="M940.2,698c-3,1.1-8.8,2.8-15.7,2.8c-7.7,0-14.1-2-19.1-6.7c-4.4-4.2-7.1-11.1-7.1-19c0.1-15.2,10.5-26.4,27.6-26.4
			c5.9,0,10.5,1.3,12.7,2.3l-1.6,5.4c-2.7-1.2-6.1-2.2-11.3-2.2c-12.4,0-20.5,7.7-20.5,20.5c0,13,7.8,20.6,19.7,20.6
			c4.3,0,7.3-0.6,8.8-1.4v-15.2h-10.4v-5.3h16.8V698z"/>
	</g>
	<g>
		<path d="M319.4,441.2c4.5-9.7,8.2-19.3,11.2-28.6c1.2-3.9,2.3-7.9,3.2-12.1c0.9-4.2,1.3-8.3,1.3-12.1c0-2.3-0.2-4.4-0.6-6.4
			c-0.3-0.8-0.9-1.5-1.9-2.1c-1-0.6-2-0.9-3-0.9c-0.3,0-0.7,0-1.2,0.1c-0.5,0.1-0.9,0.2-1.4,0.3c-0.9,0.4-1.7,1-2.4,1.7
			c-0.7,0.7-1.2,1.3-1.4,1.9c-0.1,0.4-0.2,0.8-0.2,1.2c0,0.3,0,0.5,0.1,0.7c0.4,1.6,0.5,3.3,0.5,5.2c0,3.3-0.4,6.8-1.2,10.6
			c-0.8,3.7-1.8,7.3-2.9,10.8c-2.2,7.1-4.9,14.2-7.9,21.2c-5.1,11.7-10.9,23.6-17.5,35.7c-6.5,12.2-13.3,23.9-20.3,35.1
			c-7.6,12.4-15.8,25-24.6,37.9c-8.9,12.9-18,25.2-27.5,37c-7,9-14.7,17.5-23.1,25.7c-2.1,2.1-4.6,4.3-7.4,6.6
			c-2.8,2.3-4.7,3.4-5.9,3.5c-1.2,0-2-0.4-2.4-1.3c-0.5-0.9-0.8-1.8-0.9-2.5c-0.5-2.6-0.7-5.3-0.8-8c0-0.3-0.1-0.6-0.1-0.8l-0.1-3.2
			c0-6,0.3-12.2,0.9-18.6c0.6-6.4,1.3-12.7,2.1-18.8c0-0.2,0-0.3,0.1-0.5c2.1-15.3,4.3-30.5,6.8-45.4c3-18.6,5.5-36,7.5-52.2
			c0.4-3,0.7-6.2,0.9-9.5c0.3-3.3,0.4-6.6,0.4-9.8l-0.1-2.7c0-1.1-0.2-2.5-0.5-4.3c-0.3-1.8-0.9-3.4-1.7-5c-0.9-1.6-2.3-2.7-4.2-3.3
			c-0.3-0.1-0.6-0.1-1-0.2c-0.4-0.1-0.8-0.1-1.1-0.1c-1.6,0-3.1,0.4-4.5,1.2c-1.4,0.8-2.6,1.7-3.7,2.8c-1.1,1.1-2,2.2-2.8,3.4
			c-0.8,1.1-1.4,2.1-1.8,2.9c-3.5,6.1-6.6,12.2-9.2,18.3c-4,9-7.9,18-11.6,27c-1.4,3.2-2.8,6.4-4.2,9.8c-4.9,11.9-10.2,24-15.8,36.3
			c-5.6,12.4-11.5,23.9-17.8,34.6c-1.6,2.7-3.6,5.9-6,9.5c-2.4,3.6-5.1,6.9-7.9,10.1c-2.9,3.1-5.7,5.4-8.6,6.8
			c-0.7,0.4-1.3,0.6-1.7,0.7c-0.5,0.1-1,0.2-1.5,0.2c-1.7,0-3-0.9-4-2.8c-1-1.8-1.7-4.1-2.2-6.7c-0.5-2.7-0.9-5.3-1.1-8.1
			c-0.2-2.7-0.3-5-0.4-6.9l-0.1-3.2c0-7.8,0.4-15.7,1.2-23.6c1.6-16.1,3.4-32.1,5.7-47.8c2.2-15.3,3.9-29.8,5.1-43.3
			c0-0.2,0-0.4,0.1-0.7c0.4-4.4,0.6-8.8,0.6-13.1c0-2.4-0.1-4.7-0.4-6.9c-0.1-1.2-0.4-2.6-0.8-4.3c-0.5-1.7-1.3-3.2-2.5-4.6
			c-1.2-1.4-3-2.2-5.4-2.4c-2.1,0-4.1,0.4-6,1.3c-0.8,0.4-1.4,0.9-2.1,1.6c-0.6,0.7-1,1.2-1.2,1.7c-0.1,0.4-0.2,0.7-0.2,1.1
			c0,0.5,0.1,0.9,0.2,1.3c0.3,0.7,0.9,1.3,1.9,1.8c1,0.5,1.9,0.8,2.8,0.8c0.3,0,0.6,0,1-0.1c0.1,0.4,0.3,0.8,0.4,1.2
			c0.3,1.2,0.4,2.1,0.5,2.7v0.1c0.2,2.2,0.3,4.4,0.3,6.6c0,4.1-0.2,8.3-0.7,12.7c-1.4,15.1-3.2,30.5-5.5,46.1
			c-1.1,7.8-2.1,15.6-3.1,23.3c-1,7.7-1.8,15.3-2.4,22.8c-0.6,7.5-0.9,14.7-0.9,21.7l0.1,4.7c0,3.4,0.3,6.9,0.7,10.6
			c0.4,3.6,1.2,7,2.3,10.1c0.6,1.7,1.5,3.4,2.7,5.1c1.2,1.7,2.7,3.2,4.6,4.4c1.9,1.2,4.2,1.8,7,1.8c3.3,0,6.5-0.8,9.6-2.3
			c3.1-1.6,6-3.6,8.8-6.1s5.4-5.3,7.8-8.3c2.4-3,4.6-6,6.6-9c2-3,3.7-5.7,5.1-8.1c4.7-7.9,9-16,12.9-24.2
			c8.9-18.8,17.2-37.5,24.8-56.3c0.9-2,1.7-4.1,2.6-6.2c4.1-10.2,8.6-20.2,13.4-30.1c0.4-0.8,0.9-1.7,1.3-2.6
			c0.8-1.8,1.6-3.4,2.4-4.8c0.2-0.4,0.4-0.8,0.6-1.1l0.1,1.2l0.1,3.2c0,2-0.1,4-0.2,6c-0.8,9.5-1.9,19.7-3.5,30.6
			c-1.6,10.9-3.2,21.6-4.9,31.8c-0.7,4.4-1.4,8.7-2,12.8c-0.2,1.2-0.4,2.3-0.5,3.5c-1.6,9.8-3,20-4.4,30.4
			c-1.4,10.4-2.3,20.5-2.8,30.2c-0.2,3-0.3,6-0.3,8.9c0,4.5,0.3,8.9,1,13.1c0.3,1.3,0.7,2.8,1.4,4.5c0.7,1.7,1.7,3.3,3.2,4.7
			c1.4,1.4,3.4,2.2,5.8,2.5h0.5c1.6,0,3.3-0.3,5.1-0.9c5-2,10.4-5.6,16.2-10.8c5.8-5.2,11.2-10.7,16.3-16.5
			c5.1-5.8,9.1-10.5,11.9-14.1c9.4-11.7,18.3-23.6,26.6-35.7c17.7-25.5,33.7-51.4,47.8-77.7C310.3,460.2,314.9,451,319.4,441.2z"/>
		<path d="M1003.6,532.2c-0.9-1-2-1.4-3.4-1.4c-0.6,0-1.4,0.1-2.2,0.4c-0.9,0.3-1.6,0.7-2.2,1.1c-7.1,5.2-14.2,9.8-21.2,13.9
			c-7,4.1-14.2,7.5-21.7,10.2c-5.1,1.8-10.3,3.4-15.8,4.7c-5.5,1.3-10.6,1.9-15.3,1.9c-4.7,0-8.9-0.7-12.6-2.1
			c-3.7-1.4-6.3-3.8-7.9-7.2c-0.8-1.7-1.1-3.4-1.1-5.2c0-1.6,0.3-3.3,0.8-5c0.1-0.2,0.2-0.5,0.3-0.8c0.2-0.7,0.5-1.4,0.7-2.2
			c7-0.5,12.8-1.7,17.6-3.7c4.8-2,8.5-3.9,11.2-5.9c2.7-2,4.7-4.3,5.9-6.8l0.3-0.8c0.3-0.8,0.4-1.6,0.4-2.3c0-2.3-1-4.1-3-5.5
			c-2-1.4-4.3-2.1-7-2.1c-2.7,0-6,0.6-9.7,1.9s-7.4,3.1-11,5.5c-4.2,2.9-7.7,6.2-10.6,10c-0.3,0.4-0.6,0.8-0.8,1.2
			c-7.2,4.8-14.7,9.3-22.4,13.5c-7.8,4.3-15.7,8-23.6,11.2c-4,1.6-8.4,3.1-13,4.4c-4.6,1.3-8.8,2-12.5,2c-0.5,0-1.1,0-1.6-0.1H822
			c-3.1-0.3-5.3-1.2-6.6-2.7c-1.2-1.5-1.9-3.6-1.9-6.1c0-2.6,0.4-5.8,1.3-9.4c0.4-1.6,0.7-3.2,1.1-4.9c0.8-2.8,1.4-5.5,1.8-8.3
			c0.3-1.5,0.4-3.1,0.4-4.8c0-1.3-0.2-2.6-0.5-3.9c-0.3-1.3-0.9-2.4-1.8-3.4c-0.8-0.9-1.8-1.7-3.1-2.3c-1.3-0.6-2.6-0.9-3.9-1.1
			c-0.3,0-0.5-0.1-0.9-0.1c-0.3,0-0.7,0-1,0c-1,0-2,0.1-3.1,0.3c-3.1,0.7-6.1,1.9-8.9,3.7c-2.8,1.8-5.2,3.7-7.3,5.7
			c-4.8,4.8-9.2,9.7-13.1,15c-2.1,2.7-4.1,5.5-6.1,8.2c-2.1,2.9-4.2,5.8-6.4,8.6c-0.5,0.7-1,1.3-1.6,2c0-0.2,0-0.3,0.1-0.5
			c0.3-2.3,0.8-4.5,1.3-6.6l1.9-7.8c1.3-4.7,2.1-9.5,2.5-14.3l0.1-1.5c0-1.8-0.3-3.6-0.8-5.5c-0.6-1.9-1.7-3.5-3.3-4.7
			c-1.3-0.9-2.8-1.5-4.6-1.8c-0.8-0.1-1.6-0.2-2.3-0.2c-0.7,0-1.4,0-1.9,0.1c-0.2,0-0.4,0.1-0.6,0.1c-3.2,0.6-6.2,1.7-9.1,3.5
			c-2.9,1.8-5.3,3.6-7.4,5.6c-5,4.6-9.5,9.5-13.4,14.7c-2.6,3.2-5,6.4-7.4,9.6c-1.5,2-3,4-4.6,6c-0.5,0.7-1.2,1.6-2.2,2.7
			c0.5-2.8,1.3-5.8,2.3-8.9c0.8-2.5,1.4-4.5,1.8-5.9c0.5-1.4,1-2.9,1.5-4.5c0.3-0.8,0.6-1.7,0.9-2.7c0.1-0.4,0.2-0.8,0.3-1.2
			l0.1-0.5l0.1-0.5c0-1.1-0.5-2-1.6-2.8s-2.3-1.2-3.7-1.2c-0.4,0.1-0.9,0.1-1.3,0.3c-0.4,0.1-0.8,0.2-1.3,0.3
			c-0.9,0.3-1.6,0.7-2.2,1.1c-6.2,4.9-12.5,9.5-18.8,13.9c-4.9,3.4-9.7,6.3-14.3,8.8c-4.6,2.5-9.1,4.5-13.6,5.9s-9,2.1-13.5,2.1
			c-3.2-0.1-6-0.3-8.2-0.8c-2.2-0.4-3.7-0.9-4.5-1.3c1.5-1.5,3.1-3.7,4.8-6.6c1.7-2.9,3.1-6.1,4.2-9.6c0.8-2.5,1.3-5,1.5-7.5
			l0.1-2.1c0-3.5-0.7-6.7-2.2-9.6c-1.5-2.9-3.6-5.3-6.4-7.1c-2.8-1.8-6.1-2.7-10.1-2.7c-1.7,0-3.5,0.3-5.5,0.8
			c-2,0.5-3.9,1.3-5.7,2.4c-2.4,1.5-4.4,3.3-5.9,5.3c-1.5,2-2.5,4-3.1,6c-0.3,1.2-0.6,2.1-0.7,2.8c-12.9,10.1-26.8,17.9-41.8,23.3
			c-5,1.8-10.2,3.4-15.6,4.6c-5.4,1.3-10.5,1.9-15.3,1.9c-0.8,0-1.5,0-2.2-0.1c-4.3-0.2-8.1-0.9-11.3-2.3c-3.2-1.4-5.6-3.6-7.1-6.8
			c-0.7-1.7-1.1-3.5-1.1-5.4c0-1.7,0.3-3.4,0.9-5.3c0.7-2.2,1.6-4.2,2.9-6.1c2.6-4,6-7.1,10.1-9.3c2.7-1.5,5.4-2.2,8-2.2
			c0.3,0,0.5,0,0.8,0c0.2,0,0.5,0,0.8,0.1c3.1,0.4,5.1,2.3,5.8,5.6c0.3,0.8,0.9,1.5,1.8,2c1,0.6,1.9,0.9,2.8,0.9
			c0.4,0,0.9-0.1,1.5-0.2c0.6-0.1,1.1-0.3,1.5-0.5c0.8-0.4,1.6-0.9,2.2-1.7c0.7-0.7,1.1-1.4,1.3-1.9c0.1-0.5,0.2-0.9,0.2-1.3
			l-0.1-0.8c-0.8-2.9-2.4-5.3-4.7-7.4c-2.3-2.1-5.2-3.4-8.6-4c-1.2-0.2-2.4-0.3-3.5-0.3c-4.7,0-9.6,1.3-14.8,3.9
			c-5.7,3.1-10.4,7.2-14,12.1c0,0-0.1,0-0.1,0.1c-6.4,4.7-13,9.2-19.7,13.4c-6.8,4.2-13.6,7.9-20.6,11.1c-5.1,2.4-10.2,4.4-15.4,6
			c-5.2,1.6-10.2,2.4-14.9,2.4c-4.4,0-7.9-0.8-10.7-2.3c-2.8-1.5-4.9-3.6-6.4-6.2c-1.5-2.6-2.5-5.6-3-9c-0.5-3.4-0.6-7-0.4-10.8
			c12-9.3,24-20.2,36.1-32.5c12.1-12.4,22.8-25,32-38c3.1-4.3,6.1-9,9.1-14c2.9-5,5.2-10,6.8-15c1.1-3.5,1.7-6.9,1.7-10.3
			c0.1-3.4-0.6-6.5-2-9.2c-1.4-2.7-3.6-4.9-6.8-6.4c-2.7-1.1-5.3-1.6-7.9-1.6c-3.9,0-7.8,0.8-11.8,2.5c-4,1.7-7.7,3.8-11.3,6.4
			c-3.6,2.6-6.8,5.3-9.6,8.1c-4.3,4.2-8.1,8.8-11.7,13.6c-3.5,4.8-6.7,9.6-9.4,14.5c-4.2,7.4-7.9,14.8-11,22.4
			c-3.1,7.5-5.9,15.3-8.4,23.3c-2.2,7-4.1,14.5-5.7,22.7c-0.7,3.6-1.1,7.1-1.4,10.5c-6.6,4.8-13.2,9.1-19.8,12.9
			c-7,4.1-14.2,7.5-21.7,10.2c-5.1,1.8-10.3,3.4-15.8,4.7c-5.5,1.3-10.6,1.9-15.3,1.9c-4.7,0-8.9-0.7-12.6-2.1
			c-3.7-1.4-6.3-3.8-7.9-7.2c-0.8-1.7-1.1-3.4-1.1-5.2c0-1.6,0.3-3.3,0.8-5c0.1-0.2,0.2-0.5,0.3-0.8c0.2-0.7,0.5-1.4,0.7-2.2
			c7-0.5,12.8-1.7,17.6-3.7c4.8-2,8.5-3.9,11.2-5.9c2.7-2,4.7-4.3,5.9-6.8l0.3-0.8c0.3-0.8,0.4-1.6,0.4-2.3c0-2.3-1-4.1-3-5.5
			c-2-1.4-4.3-2.1-7-2.1c-2.7,0-6,0.6-9.7,1.9c-3.7,1.3-7.4,3.1-11,5.5c-4.2,2.9-7.7,6.2-10.6,10c-2.9,3.8-5,7.6-6.1,11.4
			c-0.8,2.7-1.2,5.3-1.2,7.9c0,2.9,0.5,5.6,1.6,8.1c1.6,3.3,3.9,6,7,8.1c3.1,2.1,6.6,3.6,10.6,4.6c4,1,7.9,1.4,11.9,1.4
			c5.6,0,11.6-0.7,18-2.2c6.4-1.5,12.4-3.2,18-5.3c8.3-3,16.3-6.8,24.2-11.2c4.8-2.8,9.6-5.7,14.2-8.9c0,0.5,0,1.1,0.1,1.6
			c0.5,7.5,2.9,13.8,7,18.8c2.7,3,6.1,5.3,10.1,6.8s8.3,2.2,12.9,2.2c3.9,0,7.9-0.5,12.1-1.4c4.2-0.9,8.3-2.1,12.4-3.6
			c4.1-1.5,8-3.1,11.7-4.8c7.4-3.5,14.7-7.4,22-11.9c2.7-1.7,5.4-3.4,8-5.1c-0.1,0.8-0.1,1.6-0.1,2.4c0,2.9,0.5,5.6,1.6,8.1
			c2.3,4.8,5.9,8.3,10.9,10.5c5,2.2,10.2,3.5,15.8,3.8c0.9,0,1.8,0.1,2.7,0.1c5.6,0,11.6-0.7,18-2.2c6.4-1.5,12.4-3.2,18-5.3
			c8.7-3.1,17-7,25.1-11.6c-0.2,1.3-0.3,2.5-0.3,3.8c0,1.7,0.2,3.3,0.6,4.9c1.2,3.5,3.3,6.2,6.5,8.2c3.2,2,6.9,3,11,3
			c3.2,0,6.3-0.5,9.4-1.5c3.1-1,5.3-2,6.8-3.1c1.8,1,4.5,1.9,8.1,2.8c3.6,0.8,7.6,1.2,11.8,1.2c5.8,0,11.6-1,17.5-2.9
			s11.7-4.5,17.5-7.7c5.8-3.2,11.5-6.8,17.2-10.8c1.4-1,2.7-2,4-2.9c-0.3,0.9-0.6,2-1,3.2c-1.2,3.7-2,7.6-2.5,11.4l-0.1,1.8
			c0,0.9,0.1,1.9,0.3,2.9c0.2,1,0.6,2,1.2,2.8c0.6,0.9,1.5,1.5,2.7,2c0.4,0.1,0.9,0.3,1.5,0.3c0.5,0.1,1,0.1,1.4,0.1
			c1,0,2-0.2,3.1-0.5c1.1-0.4,2-0.7,2.7-1.2c2.1-1.2,4.1-2.9,6.1-5.2c2-2.3,3.5-4.1,4.6-5.6c1.4-1.7,2.7-3.5,4-5.3
			c2.6-3.5,5.3-6.9,8-10.3c1.7-2.1,3.7-4.6,6.1-7.3c2.4-2.7,4.9-5.2,7.4-7.4c2.5-2.2,4.9-3.5,7-3.9h1l0.1,0.1
			c0.4,0.3,0.7,0.8,0.8,1.6c0.2,0.7,0.2,1.6,0.2,2.5l-0.1,1.5c-0.4,4-1.1,8.1-2.2,12.4c0,0.1-0.1,0.3-0.1,0.5l-1,4
			c-1,3.7-1.8,7.5-2.5,11.2c-0.2,1.2-0.3,2.5-0.3,4c0,1.5,0.3,3.1,0.8,4.6c0.5,1.5,1.5,2.7,3.1,3.6c1.6,0.7,3.1,1,4.6,1
			c1.9-0.2,3.6-0.7,5-1.7c1.5-1,2.6-1.9,3.5-2.8c2.1-2.2,3.9-4.3,5.5-6.5c2.3-3,4.5-6,6.7-9c2-2.8,4.1-5.6,6.2-8.3
			c1.7-2.2,3.7-4.6,6-7.4c2.3-2.8,4.8-5.3,7.3-7.5c2.5-2.2,4.8-3.6,7-4.1c0.3,0,0.4,0,0.5-0.1h0.3v-0.1c0.1,0,0.1,0.1,0.2,0.1
			c0.2,0,0.4,0.1,0.6,0.1l0.1,0.1c0.4,0.6,0.7,1.5,0.7,2.6s-0.1,2.4-0.4,3.8c-0.5,2.8-1.1,5.7-1.9,8.6l-1.1,4.4
			c-0.4,1.6-0.7,3.4-0.9,5.1c-0.3,1.8-0.4,3.6-0.4,5.3c0,2.8,0.5,5.4,1.4,7.9c1.4,2.8,3.4,4.9,6.2,6.4c2.8,1.5,5.8,2.4,9.2,2.7
			c1,0.1,1.9,0.1,2.9,0.1c3.2,0,6.6-0.4,10.3-1.2c3.6-0.8,7.2-1.7,10.7-2.8c3.5-1.1,6.8-2.3,9.7-3.5c8.4-3.4,16.8-7.3,25.2-11.9
			c3.8-2.1,7.6-4.2,11.2-6.4c-0.2,1.1-0.3,2.3-0.3,3.4c0,2.9,0.5,5.6,1.6,8.1c1.6,3.3,3.9,6,7,8.1c3.1,2.1,6.6,3.6,10.6,4.6
			c4,1,7.9,1.4,11.9,1.4c5.6,0,11.6-0.7,18-2.2c6.4-1.5,12.4-3.2,18-5.3c8.3-3,16.3-6.8,24.2-11.2c7.8-4.5,15.4-9.5,22.8-15
			c0.5-0.4,0.9-0.9,1.3-1.4c0.4-0.5,0.6-0.9,0.7-1.3c0.1-0.2,0.1-0.5,0.1-0.8C1005,534.2,1004.5,533.2,1003.6,532.2z M911.9,529
			c2.8-2.2,5.3-3.7,7.5-4.6c2.3-0.9,4.1-1.3,5.7-1.3h0.1c-0.8,1.6-3.3,3.4-7.6,5.6c-2.7,1.3-5.7,2.3-9,3.2
			C909.8,530.8,910.9,529.9,911.9,529z M417,513c1.2-4.7,2.7-9.7,4.4-15c4.3-13.9,10.2-27.5,17.6-41c2.6-4.5,5.4-8.9,8.6-13.2
			c3.2-4.3,6.7-8.4,10.5-12.2c2.5-2.5,5-4.7,7.8-6.7c2.7-2,5.5-3.6,8.5-4.8c2.1-0.9,4.1-1.3,6.2-1.3c0.6,0,1.2,0,1.7,0.1
			c0.5,0.1,0.9,0.2,1.4,0.5c2.5,1.1,3.8,3.4,4,6.9c0.3,3.1-0.2,6.3-1.3,9.7c-0.8,2.7-1.8,5.2-3,7.6c-3.2,6.4-7,12.7-11.5,18.8
			c-5.6,7.8-11.6,15.4-18,22.7c-12.3,14-25.3,26.8-38.9,38.2C415.4,519.9,416.2,516.4,417,513z M319.7,529c2.8-2.2,5.3-3.7,7.5-4.6
			c2.3-0.9,4.1-1.3,5.7-1.3h0.1c-0.8,1.6-3.3,3.4-7.6,5.6c-2.7,1.3-5.7,2.3-9,3.2C317.6,530.8,318.7,529.9,319.7,529z M614.2,562.9
			c-0.6,0.2-1.3,0.3-2.2,0.4c-0.7,0.1-1.3,0.2-1.9,0.2c-2.2,0-4-0.4-5.3-1.2c-1.3-0.8-2.2-2.2-2.8-4.2c-0.3-1-0.5-2-0.5-3.1
			c0-1.3,0.2-2.6,0.6-3.9c0.3-1,0.7-1.9,1.1-2.7c0.4-0.7,0.9-1.5,1.5-2.4c0.4,1.3,1.1,2.8,1.9,4.4c1.5,3,3,5.4,4.5,7
			c1.5,1.7,2.6,2.8,3.2,3.4c0.6,0.6,1,0.9,1.2,1.1c0.2,0.2,0.4,0.3,0.5,0.3C615.3,562.5,614.7,562.7,614.2,562.9z M630.9,543.7
			c-0.9,2.8-1.9,5.3-3.2,7.6c-1,1.8-1.9,3.2-2.9,4.3l-0.6-0.6c-1-1-1.7-1.8-2.2-2.3c-2-2.3-3.7-4.9-4.9-7.9c-1.2-3-1.9-6.2-1.9-9.5
			v-0.6c0.1-1.3,0.3-2.6,0.7-3.8c1.3-4,3.6-6,7.1-6c1.7,0,3.1,0.4,4.1,1.2c3.4,2.1,5,5.5,5,10.1
			C632.1,538.4,631.7,540.9,630.9,543.7z"/>
	</g>
</g>
</svg>
