<?xml version="1.0" encoding="utf-8"?>
<!-- Generator: Adobe Illustrator 22.0.0, SVG Export Plug-In . SVG Version: 6.00 Build 0)  -->
<svg version="1.1" id="Layer_1" xmlns="http://www.w3.org/2000/svg" xmlns:xlink="http://www.w3.org/1999/xlink" x="0px" y="0px"
	 viewBox="0 0 1080 1080" style="enable-background:new 0 0 1080 1080;" xml:space="preserve">
<g>
	<g>
		<path d="M389.8,654.4c-0.2,0.5-0.5,1-0.8,1.7c-0.7,1.4-1.1,2.4-1.3,3c0,0.2-0.1,0.3-0.2,0.4c-0.1,0.1-0.2,0.1-0.3,0.1
			c-0.1,0-0.2-0.3-0.2-0.9c0-0.5-0.1-0.8-0.1-1c-0.1-0.4-0.4-0.8-0.8-1c-0.5-0.3-0.9-0.4-1.4-0.4c-0.2,0-0.6,0-1.4,0
			c-2.1,0-4.3,0-6.6,0l-0.2,3.2c-0.2,1.9-0.2,4.4-0.2,7.5c0,1.1,0,2.2,0,3.3v3c0,4.2,0.1,8.7,0.4,13.5c0.1,1,0.3,1.9,0.7,2.6
			c0.4,0.7,1.1,1.3,2,1.7v0.4c-2-0.2-3.6-0.2-5.1-0.2s-3,0.1-4.6,0.2v-0.4c0.8-0.4,1.4-0.9,1.8-1.6c0.5-0.7,0.7-1.5,0.8-2.4
			c0.1-3,0.1-7.6,0.1-13.6c0-3.2,0-5.9,0-8c0-2.2,0-4.4-0.1-6.6l0-2.5c-1.9,0-3.6,0-4.9,0.1c-1.4,0.1-2.7,0.3-4.1,0.6
			c-0.5,0.1-1,0.3-1.6,0.6c-0.6,0.3-1.1,0.6-1.6,1c-0.2,0.1-0.3,0.3-0.6,0.5c-0.5,0.5-0.9,0.8-1.2,0.8c-0.2,0-0.3-0.1-0.3-0.3
			c0-0.3,0.3-0.9,0.9-1.7c0.5-0.7,0.8-1.1,0.9-1.4l0.4-0.7c0.5-1.1,0.8-1.8,0.9-2.3h0.5c0.4,0.5,1.3,0.8,2.7,0.8c2.5,0,6.2,0,11.2,0
			c1.6,0,4.2-0.1,7.7-0.2c1.3,0,2.5-0.1,3.8-0.1c0.7,0,1.5-0.2,2.4-0.6c0.3-0.1,0.5-0.2,0.7-0.2h0.4
			C390.1,653.5,390,654,389.8,654.4z"/>
		<path d="M430.4,655.1c2.4,1,4.4,2.3,6,4.1c1.6,1.7,2.9,3.8,3.7,6.1c0.8,2.3,1.3,4.8,1.3,7.4c0,2.7-0.5,5.3-1.5,7.6
			c-1,2.4-2.3,4.4-4.1,6.1c-1.7,1.7-3.7,3-6.1,4c-2.3,0.9-4.8,1.4-7.3,1.4c-2.6,0-5-0.5-7.3-1.5c-2.3-1-4.3-2.3-6.1-4.1
			c-1.7-1.8-3.1-3.8-4.1-6.1c-1-2.3-1.5-4.8-1.5-7.3s0.5-5,1.5-7.3c1-2.3,2.3-4.4,4.1-6.1c1.7-1.8,3.8-3.1,6.1-4.1
			c2.3-1,4.7-1.5,7.3-1.5C425.4,653.6,428.1,654.1,430.4,655.1z M416.8,657c-1.7,0.8-3.2,1.8-4.5,3.2c-1.3,1.4-2.3,3-3,5
			c-0.7,1.9-1,4-1,6.3c0,2.3,0.4,4.5,1.1,6.7c0.7,2.1,1.7,4.1,3,5.8c1.3,1.7,2.8,3,4.5,4c1.7,1,3.6,1.4,5.6,1.4c2.1,0,4-0.4,5.8-1.1
			c1.8-0.7,3.3-1.7,4.7-3.1c1.3-1.3,2.4-2.9,3.1-4.8c0.7-1.9,1.1-4,1.1-6.2c0-2.8-0.4-5.4-1.1-7.7c-0.7-2.3-1.8-4.2-3.1-5.8
			c-1.3-1.6-2.9-2.8-4.6-3.6c-1.8-0.8-3.7-1.2-5.8-1.2C420.4,655.9,418.5,656.3,416.8,657z"/>
		<path d="M504.8,655.1c2.4,1,4.4,2.3,6,4.1c1.6,1.7,2.9,3.8,3.7,6.1c0.8,2.3,1.3,4.8,1.3,7.4c0,2.7-0.5,5.3-1.5,7.6
			c-1,2.4-2.3,4.4-4.1,6.1c-1.7,1.7-3.7,3-6.1,4c-2.3,0.9-4.8,1.4-7.3,1.4c-2.6,0-5-0.5-7.3-1.5c-2.3-1-4.3-2.3-6.1-4.1
			c-1.7-1.8-3.1-3.8-4.1-6.1c-1-2.3-1.5-4.8-1.5-7.3s0.5-5,1.5-7.3c1-2.3,2.3-4.4,4.1-6.1c1.7-1.8,3.8-3.1,6.1-4.1
			c2.3-1,4.7-1.5,7.3-1.5C499.8,653.6,502.4,654.1,504.8,655.1z M491.1,657c-1.7,0.8-3.2,1.8-4.5,3.2c-1.3,1.4-2.3,3-2.9,5
			c-0.7,1.9-1,4-1,6.3c0,2.3,0.4,4.5,1.1,6.7c0.7,2.1,1.7,4.1,3,5.8c1.3,1.7,2.8,3,4.5,4c1.7,1,3.6,1.4,5.6,1.4c2.1,0,4-0.4,5.8-1.1
			c1.8-0.7,3.3-1.7,4.7-3.1c1.3-1.3,2.4-2.9,3.1-4.8c0.7-1.9,1.1-4,1.1-6.2c0-2.8-0.4-5.4-1.1-7.7c-0.7-2.3-1.8-4.2-3.1-5.8
			c-1.3-1.6-2.9-2.8-4.6-3.6c-1.8-0.8-3.7-1.2-5.8-1.2C494.8,655.9,492.9,656.3,491.1,657z"/>
		<path d="M540.2,691.4c-1.4-0.2-2.8-0.7-4-1.5c-1.2-0.8-2.3-1.9-3.1-3.4s-1.2-3.5-1.3-5.9c0-0.2,0-1.3,0-3.2
			c-0.1-2-0.1-3.2-0.1-3.9c0-0.9,0-2.5,0.1-4.9c0-2.2,0-3.9,0-5.2c0-1.6,0-2.9-0.1-4.1c-0.1-1.1-0.3-2-0.6-2.9c-0.3-0.8-1-1.6-2-2.2
			v-0.3c2,0.2,3.6,0.3,4.8,0.3c0.7,0,1.8-0.1,3.1-0.2c0.7,0,1.3-0.1,1.7-0.1v0.3c-0.8,0.4-1.4,1.1-1.8,2c-0.4,0.9-0.6,2-0.7,3.2
			c0,0.6-0.1,1.3-0.1,1.9c0,0.7,0,1.6,0,2.8c0,1.4,0,4.4,0,9c0,0.9,0,1.9,0,2.8c0,0.9,0.1,2.2,0.1,3.7c0.1,2.1,0.4,3.8,0.9,5.1
			c0.5,1.3,1.2,2.3,2,3c0.8,0.7,1.7,1.1,2.8,1.4c1,0.2,2.2,0.3,3.4,0.3c1.7,0,3.2-0.1,4.4-0.4c1.2-0.3,2.2-0.8,3.1-1.5
			c0.8-0.8,1.5-1.9,2-3.3c0.5-1.5,0.8-3.3,0.8-5.7c0-0.5,0-1,0-1.6c0-1.3,0-2.6,0-3.7c0-1.2,0-2.5,0-4.1c0-1.9,0-3.4,0-4.3
			c0-2.2,0-4-0.1-5.6c-0.1-1.4-0.3-2.4-0.6-3.1c-0.4-0.7-1.1-1.4-2.3-2v-0.3c0.3,0,0.8,0,1.4,0.1c0.9,0.1,1.6,0.1,2,0.1
			c0.7,0,1.8-0.1,3.1-0.2c0.7,0,1.3-0.1,1.7-0.1v0.3c-0.9,0.5-1.6,1.1-1.9,1.8c-0.3,0.7-0.5,1.9-0.6,3.5c-0.1,1.9-0.1,3.9-0.2,6.1
			c0,2.1,0,4.7,0,7.7c0,0.2,0,0.9,0,2c0,1.1,0,1.7,0,2c0,3.3-0.3,6-1,7.9s-1.5,3.5-2.7,4.4c-1.2,0.9-2.5,1.6-4,1.8
			c-1.5,0.3-3.4,0.4-5.6,0.4C543.1,691.7,541.6,691.6,540.2,691.4z"/>
		<path d="M583.8,654.1c1.7-0.1,3-0.2,3.9-0.2c1,0,2.2,0.2,3.6,0.5c1.3,0.3,2.4,0.7,3.3,1.3c1.4,0.9,2.5,2.1,3.3,3.6
			c0.7,1.5,1.1,3.1,1.1,4.8c0,1.7-0.4,3.4-1.2,4.9c-0.8,1.5-1.8,2.8-3.2,3.7c-0.7,0.5-1.4,0.8-2.1,1c0.3,0.5,0.9,1.4,1.8,2.9
			c1.3,2.2,2.5,4,3.5,5.4c1,1.5,2.1,2.9,3.2,4.3c1.2,1.4,2.4,2.5,3.6,3.3c1.2,0.8,2.5,1.3,3.8,1.3c0.3,0,0.6,0,1-0.1
			c0.4,0,0.8,0,1,0c0.2,0,0.3,0.1,0.3,0.3c0,0.2-0.2,0.4-0.4,0.6c-0.3,0.2-0.7,0.4-1.1,0.6c-0.5,0.2-0.9,0.3-1.4,0.4
			c-0.5,0.1-0.9,0.1-1.2,0.1c-1.7,0-3.2-0.3-4.5-0.9c-1.4-0.6-2.6-1.5-3.7-2.5c-1.1-1.1-2.1-2.2-3-3.4c-0.9-1.2-1.9-2.7-3.2-4.6
			c-1.1-1.7-2-3.1-2.7-4c-0.7-1-1.4-1.9-2.3-2.8h-2.4c-0.3,0-0.9,0-1.7,0.1c-0.8,0.1-1.3,0.1-1.7,0.1c0,4.5,0.1,8.5,0.4,12.1
			c0.1,1.2,0.3,2.1,0.7,2.7c0.4,0.6,1,1.1,2,1.5v0.4c-2-0.2-3.6-0.2-5.1-0.2c-0.8,0-1.7,0-2.7,0.1c-1,0-1.8,0.1-2.5,0.2v-0.4
			c0.9-0.5,1.6-1,2.2-1.7c0.6-0.7,0.9-1.4,1-2.3c0.1-3,0.1-7.6,0.1-13.6c0-2.3,0-4.7-0.1-7.1c-0.1-2.4-0.2-4.7-0.3-7
			c-0.1-1.1-0.3-2-0.7-2.7c-0.4-0.8-1.1-1.4-2.1-2v-0.4c0.9,0.1,1.7,0.2,2.6,0.2c0.9,0,1.7,0.1,2.4,0.1
			C580.3,654.4,581.8,654.3,583.8,654.1z M581.5,661.3c0,0.6,0,1.5,0,2.6c0,1.3,0,4.2,0,8.5c0.5,0,1.3,0,2.4,0c1,0,1.6,0,1.8,0
			c3.3,0,5.6-0.7,6.8-2c1.3-1.4,1.9-3.5,1.9-6.6c0-1.3-0.3-2.5-0.9-3.7c-0.6-1.2-1.4-2.2-2.5-2.9c-0.7-0.5-1.6-0.8-2.5-0.9
			c-1-0.1-2.1-0.2-3.3-0.2c-0.6,0-1.4,0-2.3,0.1c-0.4,0-0.7,0.1-0.9,0.1c-0.2,0.5-0.3,1.2-0.4,2.3c0,0.5,0,0.8,0,0.9
			C581.6,660,581.5,660.6,581.5,661.3z"/>
		<path d="M696.9,653.8c0.8,0,1.3-0.1,1.8-0.1l-0.1,0.3c-1.1,0.4-2,1.1-2.7,2.1c-0.8,1-1.4,2-1.9,3.2c-0.9,2.1-1.9,4.3-2.9,6.8
			c-1,2.4-2,4.8-3,7c-0.4,1.1-1.1,2.6-2,4.6c-1,2.4-1.9,4.5-2.8,6.5c-0.8,2-1.8,4.3-2.9,7.1c-0.2,0.3-0.3,0.5-0.6,0.5
			s-0.4-0.2-0.6-0.7c-0.5-1.4-1.2-3-2-4.8s-1.9-4.4-3.4-7.7c-0.2-0.6-0.5-1.2-0.9-1.9c-0.2,0.3-0.3,0.6-0.3,0.7
			c-1.1,2.5-2,4.7-2.9,6.7c-0.8,2-1.8,4.4-2.9,7.1c-0.2,0.3-0.3,0.5-0.6,0.5c-0.2,0-0.5-0.2-0.6-0.7c-0.5-1.2-1.1-2.7-1.9-4.5
			c-0.8-1.8-1.8-4.2-3.2-7.3c-1.3-2.9-2.2-4.8-2.7-6c-0.9-2.2-2-4.6-3.1-7.2c-1.2-2.6-2.2-5-3.2-7.2l-0.2-0.4
			c-0.5-1.1-0.9-1.9-1.5-2.6c-0.5-0.7-1.4-1.3-2.5-1.9l-0.1-0.4c0.2,0,0.5,0,0.8,0c1.8,0.2,3.2,0.3,4.1,0.3c1.1,0,2.7-0.1,4.9-0.2
			l0.2,0.4c-0.7,0.5-1.1,1.2-1.1,2.4c0,0.9,0.2,1.8,0.5,2.7c0.9,2.4,1.8,4.8,2.7,7.2c0.9,2.4,1.8,4.6,2.7,6.6
			c0.6,1.4,1.2,2.9,1.8,4.2c1.3,3,2.2,5.2,2.9,6.8h0.4c0.9-2.2,2.2-5.4,3.9-9.6c0,0,0.1-0.1,0.1-0.3c0.1-0.2,0.1-0.3,0.2-0.5
			c0-0.1-0.1-0.1-0.1-0.2c0-0.1-0.1-0.1-0.1-0.2c-0.8-1.9-1.6-3.8-2.4-5.7c-0.8-1.9-1.9-4.3-3.2-7.1L665,659l-0.2-0.4
			c-0.4-1.1-0.9-1.9-1.5-2.6c-0.5-0.7-1.4-1.3-2.5-1.9l-0.1-0.4c0.2,0,0.5,0,0.8,0c1.8,0.2,3.2,0.3,4.1,0.3c1,0,2.7-0.1,4.9-0.2
			l0.2,0.4c-0.7,0.5-1.1,1.2-1.1,2.4c0,0.9,0.2,1.8,0.5,2.7c1.1,3.1,2.3,6.1,3.4,8.9c0.4-1.1,0.9-2.4,1.5-4.1c0.7-2,1.3-3.6,1.7-4.6
			c0.2-0.5,0.3-1,0.5-1.5c0.1-0.5,0.2-1,0.2-1.4c0-0.7-0.2-1.2-0.5-1.7c-0.3-0.5-0.9-0.8-1.8-0.9l0.1-0.3c2,0.2,3.6,0.3,4.8,0.3
			c0.6,0,1.7-0.1,3.2-0.2c0.7,0,1.3-0.1,1.8-0.1L685,654c-1,0.4-1.9,1.1-2.7,2c-0.8,0.9-1.4,2-2,3.2c-0.6,1.3-1.3,2.8-2,4.5
			c-0.7,1.7-1.5,3.7-2.5,6.1l-0.8,1.8c0.1,0.2,0.1,0.3,0.2,0.5c0.2,0.5,0.3,0.9,0.4,1.1c1,2.4,2.6,6.1,4.8,11h0.5
			c0.9-2.2,2.2-5.4,3.9-9.6c0.5-1.2,1-2.6,1.5-4c0.5-1.4,1.2-3.2,2-5.5c1-2.6,1.6-4.5,2-5.5c0.2-0.5,0.3-1,0.5-1.5
			c0.1-0.5,0.2-1,0.2-1.4c0-0.7-0.2-1.2-0.5-1.7c-0.3-0.5-0.9-0.8-1.8-0.9l0.1-0.3c2,0.2,3.6,0.3,4.8,0.3
			C694.3,654,695.4,653.9,696.9,653.8z"/>
		<path d="M715.8,691c-0.8,0.1-1.7,0.1-2.9,0.2l-0.4,0v-0.7c0.4-0.2,0.7-0.5,1.1-0.9c0.4-0.4,0.8-0.8,1.1-1.4
			c0.3-0.5,0.6-1.1,0.8-1.6c0.2-0.5,0.3-1,0.3-1.5c0.1-2.3,0.1-4.2,0.1-5.7c0-1.5,0-3.6,0-6.4c0-2.3,0-4.7-0.1-7.1
			c-0.1-2.4-0.2-4.7-0.3-7c-0.1-0.9-0.4-1.8-0.9-2.7c-0.5-0.8-1.4-1.6-2.6-2.2l-0.1-0.5l0.3,0c1.4,0.1,2.7,0.2,3.9,0.3
			c1.2,0.1,2.1,0.1,2.7,0.1c0.5,0,1.1,0,2,0c0.8,0,1.9-0.1,3.1-0.1l1.3-0.1c2.2-0.1,3.8-0.2,4.8-0.2c1.3,0,2.3,0.1,3.2,0.2
			c0.8,0.1,1.2,0.4,1.2,0.8c0,0.7,0.1,1.5,0.2,2.4c0.1,0.8,0.1,1.3,0.1,1.8c0,0.3-0.1,0.4-0.3,0.4c-0.2,0-0.4-0.2-0.6-0.6
			c-0.1-0.3-0.2-0.5-0.3-0.6c-0.4-0.7-1.3-1.2-2.5-1.7s-2.9-0.7-5.2-0.7c-0.6,0-1.6,0.1-2.9,0.2c-1.2,0.1-2.1,0.2-2.7,0.2
			c-0.2,0.5-0.3,1.3-0.3,2.4l0,0.8c-0.1,1.2-0.1,2.6-0.1,4.1c0,1.5,0,4,0,7.5c0.8,0,1.8,0,3.1,0c1.4,0.1,2.4,0.1,2.9,0.1
			c0.3,0,0.6,0,0.9,0c0.5,0,0.8,0,0.9,0c1.1-0.1,2-0.3,2.9-0.6c0.8-0.3,1.6-1,2.2-2h0.3c0,0.4-0.1,0.8-0.1,1.3
			c-0.1,0.5-0.1,0.9-0.1,1.3c0,0.4,0,0.8,0,1.3c0,0.8,0,1.4,0,1.7c0,0.3,0,0.9,0.1,1.8h-0.3c-0.4-0.8-1.1-1.4-2-1.8
			c-0.9-0.4-2-0.6-3.2-0.7c-1.5-0.1-4-0.2-7.4-0.2v0.1c0,2.1,0,4.1,0.1,5.8c0.1,1.7,0.2,3.9,0.3,6.4c0,0.8,0.3,1.5,0.8,2
			c0.5,0.5,1.2,0.9,2,1.2c0.8,0.3,1.6,0.5,2.5,0.6c0.9,0.1,1.8,0.2,2.7,0.2c1.4,0,2.6-0.1,3.6-0.3c1-0.2,1.9-0.6,2.7-1.3
			c0.8-0.6,1.6-1.6,2.7-2.8c0.7-0.8,1.1-1.2,1.2-1.2c0.3,0,0.4,0.1,0.4,0.4c0,0.3-0.1,0.6-0.2,0.9c-0.2,0.3-0.4,0.8-0.8,1.5
			c-0.7,1.3-1.2,2.2-1.3,2.8v0.1c-0.2,0.5-0.4,1-0.7,1.3c-0.3,0.3-1,0.5-2,0.5h-6.8c-1.9,0-3.6,0-5,0c-2,0-3.3,0-4.1,0
			C717.3,690.9,716.6,690.9,715.8,691z"/>
		<path d="M777.9,654.9c2.4,0.8,4.4,1.9,6.2,3.4c1.8,1.5,3.2,3.3,4.2,5.4c1,2.1,1.5,4.4,1.5,7c0,2.9-0.5,5.7-1.5,8.2
			c-1,2.5-2.5,4.7-4.4,6.6c-1.9,1.9-4.2,3.3-6.9,4.3c-2.7,1-5.6,1.5-8.8,1.6c-1,0-2.7-0.1-5-0.2c-2.3-0.2-4-0.2-5-0.2
			c-0.8,0-1.7,0-2.8,0.1c-1.1,0-1.9,0.1-2.6,0.2v-0.4c0.8-0.4,1.6-1.1,2.3-2c0.7-0.9,1.1-1.8,1.1-2.7c0-0.7,0-1.5,0-2.5
			c0-3,0-6.5,0-10.4c0-2.3,0-4.7-0.1-7.1c-0.1-2.4-0.2-4.7-0.3-7c-0.1-1.7-1.3-3.3-3.6-4.9v-0.3c0.8,0.1,1.8,0.1,2.9,0.2
			c1.2,0.1,2.2,0.1,2.9,0.1c1.1,0,2,0,2.8,0c0.8,0,1.8-0.1,2.9-0.2c1.2-0.1,2.3-0.1,3.3-0.2c1,0,2.1-0.1,3.4-0.1
			C773,653.7,775.5,654.1,777.9,654.9z M764,656.1c-1.7,0.1-2.9,0.4-3.5,0.8c-0.1,0.4-0.1,1-0.1,1.8c0,0.3,0,0.5,0,0.6
			c0,0.6-0.1,1.3-0.1,1.9c0,0.7,0,1.6,0,2.8c0,1.4,0,4.4,0,9c0,4.2,0.1,8.7,0.4,13.5c0,0.2,0,0.5,0.1,0.8c0.8,0.7,2,1.1,3.6,1.4
			c1.6,0.2,3.6,0.4,6.2,0.4c2,0,3.9-0.4,5.7-1.3c1.8-0.9,3.4-2,4.7-3.6c1.4-1.5,2.4-3.3,3.2-5.3c0.8-2,1.1-4.1,1.1-6.4
			c0-2.4-0.4-4.7-1.1-7c-0.8-2.3-1.8-4.1-3.2-5.6c-1.3-1.4-2.8-2.4-4.6-3c-1.8-0.6-3.7-0.9-5.8-0.9C767.8,655.9,765.7,656,764,656.1
			z"/>
		<path d="M828.9,654.9c2.4,0.8,4.4,1.9,6.2,3.4c1.8,1.5,3.2,3.3,4.2,5.4c1,2.1,1.5,4.4,1.5,7c0,2.9-0.5,5.7-1.5,8.2
			c-1,2.5-2.5,4.7-4.4,6.6c-1.9,1.9-4.2,3.3-6.9,4.3c-2.7,1-5.6,1.5-8.8,1.6c-1,0-2.7-0.1-5-0.2c-2.3-0.2-4-0.2-5-0.2
			c-0.8,0-1.7,0-2.8,0.1c-1.1,0-1.9,0.1-2.6,0.2v-0.4c0.8-0.4,1.6-1.1,2.3-2c0.7-0.9,1.1-1.8,1.1-2.7c0-0.7,0-1.5,0-2.5
			c0-3,0-6.5,0-10.4c0-2.3,0-4.7-0.1-7.1c-0.1-2.4-0.2-4.7-0.3-7c-0.1-1.7-1.3-3.3-3.6-4.9v-0.3c0.8,0.1,1.8,0.1,2.9,0.2
			c1.2,0.1,2.2,0.1,2.9,0.1c1.1,0,2,0,2.8,0c0.8,0,1.8-0.1,2.9-0.2c1.2-0.1,2.3-0.1,3.3-0.2c1,0,2.1-0.1,3.4-0.1
			C824,653.7,826.5,654.1,828.9,654.9z M814.9,656.1c-1.7,0.1-2.9,0.4-3.5,0.8c-0.1,0.4-0.1,1-0.1,1.8c0,0.3,0,0.5,0,0.6
			c0,0.6-0.1,1.3-0.1,1.9c0,0.7,0,1.6,0,2.8c0,1.4,0,4.4,0,9c0,4.2,0.1,8.7,0.4,13.5c0,0.2,0,0.5,0.1,0.8c0.8,0.7,2,1.1,3.6,1.4
			c1.6,0.2,3.6,0.4,6.2,0.4c2,0,3.9-0.4,5.7-1.3c1.8-0.9,3.4-2,4.7-3.6c1.4-1.5,2.4-3.3,3.2-5.3c0.8-2,1.1-4.1,1.1-6.4
			c0-2.4-0.4-4.7-1.1-7c-0.8-2.3-1.8-4.1-3.2-5.6c-1.3-1.4-2.8-2.4-4.6-3c-1.8-0.6-3.7-0.9-5.8-0.9
			C818.8,655.9,816.6,656,814.9,656.1z"/>
		<path d="M854.4,691.2v-0.4c0.8-0.4,1.4-0.9,1.8-1.6c0.5-0.7,0.7-1.5,0.8-2.4c0.1-3,0.1-7.6,0.1-13.6c0-2.3,0-4.7-0.1-7.1
			c-0.1-2.4-0.2-4.7-0.3-7c-0.1-1.1-0.3-2-0.6-2.9c-0.3-0.8-1-1.6-2-2.2v-0.3c2,0.2,3.6,0.3,4.8,0.3c0.7,0,1.8-0.1,3.1-0.2
			c0.7,0,1.3-0.1,1.7-0.1v0.3c-0.8,0.4-1.4,1.1-1.8,2c-0.4,0.9-0.6,2-0.7,3.2c0,0.6-0.1,1.3-0.1,1.9c0,0.7,0,1.6,0,2.8
			c0,1.4,0,4.4,0,9c0,4.2,0.1,8.7,0.4,13.5c0.1,1,0.3,1.9,0.7,2.6c0.4,0.7,1.1,1.3,2,1.7v0.4c-2-0.1-3.6-0.2-5.1-0.2
			S856,691.1,854.4,691.2z"/>
		<path d="M905.7,653.7c0.8,0.2,1.4,0.2,1.8,0.2c0.7,0,1.8-0.1,3.1-0.2c0.7,0,1.3-0.1,1.7-0.1v0.3c-0.8,0.4-1.4,1.1-1.8,2
			c-0.4,0.9-0.6,2-0.7,3.2c0,0.6-0.1,1.3-0.1,1.9c0,0.7,0,1.6,0,2.8c0,1.4,0,4.4,0,9c0,0.9,0,2.5,0,4.9c0,2.6,0,4.6,0,6
			c0,2.2,0,3.9,0.1,5.2c0,0.3,0,0.5,0,0.8c0,0.7,0,1.2,0,1.4c0,0.6-0.1,0.9-0.4,0.9c-0.2,0-0.6-0.4-1.4-1.3L883.1,662h-0.3
			c-0.1,1.4-0.1,2.9-0.1,4.8c0,0.8,0,1.8,0,3.3c0,1,0,2,0,2.9c0,4.2,0.1,8.7,0.4,13.5c0.1,1,0.3,1.9,0.7,2.6c0.4,0.7,1.1,1.3,2,1.7
			v0.4c-2-0.2-3.6-0.2-5.1-0.2c-0.6,0-1.1,0-1.3,0c-0.2,0-0.6,0-1,0.1c-0.2,0-0.4,0.1-0.8,0.1v-0.4c0.8-0.4,1.4-0.9,1.8-1.6
			c0.5-0.7,0.7-1.5,0.8-2.4c0.1-3,0.1-7.6,0.1-13.6c0-0.8,0-2.3,0-4.6c0-2,0-3.6,0-4.9c0-1.8,0-3.4-0.1-4.7v-0.3
			c-0.1-1-0.3-1.8-0.7-2.6c-0.4-0.8-1.1-1.5-2-2.1l-0.1-0.4c1,0.1,1.9,0.2,2.5,0.2c0.7,0.1,1.3,0.1,2,0.1l24.8,29.3h0.4
			c0-2.3,0-5.6,0-10.1c0-2.3,0-4.7-0.1-7.1c-0.1-2.4-0.2-4.7-0.3-7c-0.1-1.2-0.2-2.2-0.5-2.9c-0.3-0.8-0.9-1.5-1.9-2.1v-0.4
			C904.7,653.6,905.2,653.6,905.7,653.7z"/>
		<path d="M958.6,688.2c-0.1,0.3-0.2,0.5-0.3,0.6c-0.4,0.2-1,0.4-1.9,0.7c-0.8,0.2-1.3,0.4-1.6,0.5c-1.5,0.6-3.1,1-4.8,1.3
			c-1.6,0.3-3.5,0.4-5.5,0.4c-2.6,0-5-0.5-7.3-1.5c-2.3-1-4.3-2.3-6.1-4.1c-1.7-1.8-3.1-3.8-4.1-6.1c-1-2.3-1.5-4.8-1.5-7.3
			c0-2.6,0.5-5.1,1.4-7.5c0.9-2.4,2.3-4.5,4.1-6.3c1.8-1.8,3.9-3.2,6.3-4.2c2.4-1,5.1-1.5,7.9-1.5c1.1,0,2.3,0.1,3.6,0.2
			c1.3,0.2,2.7,0.4,4.1,0.7c0.3,0.1,0.8,0.2,1.4,0.5c0.8,0.4,1.4,0.5,1.9,0.5c0.4,0,0.8,0,1.3-0.1c0.2,0,0.4,0,0.5,0
			c0.1,0,0.2,0.1,0.2,0.3c0,0.1,0,0.2,0,0.5c0,0.4,0,0.7,0,1c0,0.5,0,1.1,0.1,2c0,0.8,0,1.3,0,1.6c0,0.3,0,0.6-0.1,0.9
			c-0.1,0.3-0.1,0.5-0.2,0.5c-0.1,0-0.4-0.3-0.8-0.9c-0.6-0.8-1.1-1.6-1.7-2.2c-0.6-0.6-1.3-1.2-2.1-1.6c-2.2-1.1-4.5-1.6-7.1-1.6
			c-2.4,0-4.6,0.4-6.6,1.2c-2,0.8-3.6,1.9-5,3.4c-1.4,1.5-2.4,3.2-3.2,5.2c-0.7,2-1.1,4.1-1.1,6.4c0,2.3,0.4,4.5,1.1,6.7
			c0.8,2.2,1.8,4.1,3.2,5.8c1.4,1.7,2.9,3.1,4.7,4c1.8,1,3.7,1.5,5.7,1.5c1,0,2.2-0.2,3.6-0.6c1.4-0.4,3-0.9,4.7-1.6
			c0.5-0.2,0.8-0.5,0.9-1c0.1-0.5,0.2-1.1,0.2-1.9v0c0-0.3,0-0.8,0-1.4c0-2-0.1-3.4-0.1-4.3c-0.1-1.4-0.3-2.4-0.6-3.1
			c-0.3-0.6-1-1.3-2-2v-0.3c2,0.2,3.6,0.3,4.8,0.3c0.6,0,1.4-0.1,2.5-0.2c0.7-0.1,1.3-0.1,1.8-0.1l0,0.3c-0.8,0.4-1.2,1-1.5,1.7
			c-0.2,0.8-0.4,1.8-0.4,3l0,0.6c-0.1,1.4-0.1,2.7-0.2,3.8c0,1.1,0,2.7,0,4.7C958.7,687.6,958.7,687.8,958.6,688.2z"/>
	</g>
	<g>
		<path d="M409.2,387.4v-1.3c0-1.4-0.3-2.6-1-3.5c-0.7-0.9-1.3-1.4-2-1.5c-0.7,0-1.2-0.1-1.3-0.1c-0.9,0-1.9,0.4-2.7,1.1
			c-0.9,0.7-1.4,1.8-1.6,3.3c-0.7,20.1-9.2,54.1-25.7,102.1c-15.6,45.5-32,86.7-49.2,123.5c-11.7,24.9-20.9,41.4-27.6,49.5
			c-3.9,4.8-7.4,7.2-10.4,7.2c-3.6,0-6.4-2.6-8.4-7.7c-3.4-8.3-5.1-22.1-5.1-41.6c0-11.1,0.2-21.5,0.7-31.3c0.5-9.8,1-19.1,1.5-27.9
			c0.9-14.4,1.4-24.8,1.4-31.2c0-7.2-0.8-11.6-2.5-13.2c-1-0.9-2.1-1.4-3.2-1.4c-5.7,0-15.4,10.5-29.1,31.4
			c-11.4,17.4-23.5,38.5-36.4,63c-5.3,10-9.7,18.4-12.9,25c-5.9,12.6-13.2,26.7-21.8,42.5c-10.6,19.7-17.9,30.7-21.9,33.1
			c-0.3-1.1-0.4-2.5-0.4-4.2c0-4.2,0.6-9.7,1.8-16.5c4-22.1,12.1-52.9,24.3-92.3c4.6-14.9,8.1-25.9,10.4-32.9
			c1.2-3.8,4-11.3,8.3-22.5c7.1-19.1,14.7-39.9,22.8-62.3c9.2-25.8,16.5-48.1,21.9-67c4.4-15.8,6.6-26.8,6.6-33.1
			c0-2.3-0.3-3.9-0.8-4.9c-2.4-3.9-5.8-5.9-10.1-5.9c-5.4,0-12.2,2.6-20.4,7.9c-19.4,12.3-40.2,31-62.3,56.1
			c-21.6,24.3-37,46.1-46.3,65.3c-7,15.2-10.6,28.6-10.6,40.2c0,7.8,1.5,14.4,4.5,19.8c5.2,9.6,13.9,15.5,26.3,17.9
			c2.8-0.1,4.2-1.5,4.2-4.1c0-1.8-0.8-3-2.4-3.5c-17.6-3.2-26.5-13.8-26.5-31.9c0-6.8,1-13.6,3-20.7c1.7-5.8,3.7-11,5.9-15.6
			c4-8.2,10-17.9,18-29.3c17.8-25.4,37.2-48,58.1-67.7c20.4-19.2,36.4-29,48.3-29.3c2.5,0.1,3.9,1.3,4.1,3.7
			c0.2,2.3,0.3,3.9,0.3,4.6c0,14.4-9.2,46.4-27.7,96c-7.7,20.6-14.8,39.1-21.4,55.4c-5.9,15-9.7,25-11.3,30l-0.7,2
			c-5,14.1-10.6,31.3-16.7,51.8c-9,29.5-14.7,53.6-17.2,72c-0.7,4.4-1,8.3-1,11.8c0,8.9,2,13.6,6.1,14.1h0.3c3.3,0,8-4.7,14.2-14.2
			c5.3-8.1,10.9-18.1,17-30.1l10.8-21.7c21.9-41.3,33.3-62.6,34.2-64c10-18.5,19.2-33.4,27.4-44.9c7.3-10.2,12.1-16.2,14.4-17.9
			c1.4-1.2,2.5-1.8,3.4-1.8c1.3,0,2.2,1,2.5,3.1c0.2,1.4,0.3,3.3,0.3,5.8c0,5.1-0.8,16.2-2.3,33.3c-1.9,22-3,37.8-3.4,47.1
			c-0.3,6.4-0.4,11.6-0.4,15.8c0,13.3,0.8,24,2.5,32.1c2.6,12.4,7.5,18.6,14.6,18.6c2.5,0,5.3-1,8.3-3.1c5.2-3.6,9.9-8.7,14.2-15.5
			c8.2-12.5,17.4-30.5,27.9-54c10.4-23.5,20.8-49,31.2-76.5c10.4-27.5,19.4-53.6,27.2-78.4C400.9,422.3,406.2,402.4,409.2,387.4z"/>
		<path d="M982.8,547.2c-5.9-2.4-13.4-3.7-22.4-3.7c-29.3,0-84.2,9.3-164.9,28c-40.3,10.1-67.5,15.2-81.5,15.2
			c-10.2,0-17.8-1.6-22.8-4.9c-2.7-1.8-4.1-4.8-4.1-9.1c0-3.2,0.7-7.2,2.1-12c2,0.6,3.9,0.8,5.9,0.8c4.5,0,9.1-1.2,13.6-3.5
			c5.3-2.7,9.4-6.2,12.2-10.4c1.7-2.8,2.5-5.3,2.5-7.5c0-0.9-0.2-1.8-0.6-2.7c-1-2.7-2.6-4.3-4.8-4.9c-2.2-0.5-3.8-0.8-4.9-0.8
			c-6.6,0-14.1,4.2-22.5,12.7c-1.5,1.5-3,3.3-4.4,5.3c-0.6,0.7-1.2,1.6-1.8,2.6c-0.1,0.2-0.3,0.5-0.4,0.7c-0.6,1-1.2,1.9-1.7,3
			c-3.9,6.4-8.2,12.2-13,17.2c-5.7,6-10.6,8.9-14.7,8.9c-0.8,0-1.5-0.1-2.1-0.3c-2.8-1-4.4-2.6-4.6-4.7c-0.3-2.1-0.4-3.6-0.4-4.4
			c0-6.8,2.4-15.3,7.3-25.5c2.1-4.3,3.1-8.8,3.2-13.5c0-2.3-0.5-4.1-1.6-5.3c-1.1-1.2-2.6-1.8-4.6-1.8c-3.3,0-6.8,1.5-10.4,4.5
			c-2.8,2.3-5.6,5-8.3,8l-7.2,8.2c0.6-2.8,0.8-5.3,0.8-7.5c0-2.6-0.4-4.8-1.3-6.5c-1.5-2.6-3.7-3.9-6.6-3.9c-3.1,0-6.5,1.4-10.3,4.2
			c-4.8,3.7-10.3,9.3-16.5,16.9l-1.5,1.8c1.6-3.8,3-6.9,4.4-9.4c0.5-1,0.9-2,1.3-2.8c0.4-0.8,0.8-1.6,1.3-2.4c1.7-3.3,2.5-5.6,2.5-7
			c0-2-1-3-3.1-3c-1.9,0-3.5,1-4.9,3c-2.2,3.4-5.3,9.1-9.1,17.2c-0.8,0.3-1.8,0.8-2.8,1.7c-3.9,3.1-7.4,4.9-10.3,5.3
			c-2.9,0.5-4.9,0.7-5.9,0.7c-3.5,0-6.4-0.8-8.9-2.5c0.5-1.8,0.7-3.6,0.7-5.5c0-3.8-0.8-7.3-2.4-10.3c-2.3-3.9-5.7-5.9-10.4-5.9
			c-3.7,0-7,1.6-10,4.8c-7,7.5-12.1,14.5-15.4,20.8c-4.4,5.7-8.9,10.7-13.5,15.1c-7.6,7.2-14.7,10.8-21.2,10.8
			c-4.6,0-7.5-1.4-8.7-4.2c-0.8-2-1.3-3.9-1.3-5.8c0-7.2,2.4-14.6,7.3-22.2c2.8-4.5,6.5-8.4,11-11.8c3.7-2.6,7-3.9,9.8-3.9
			c3.1,0,4.6,1.4,4.6,4.2c0,1.7-0.5,3.5-1.4,5.5c-0.2,0.5-0.3,0.9-0.3,1.3c0,1.1,0.5,1.7,1.5,1.7c1-0.2,1.8-0.9,2.4-2.3
			c0.8-1.8,1.1-3.4,1.1-4.8c0-3-1.1-5.3-3.4-7c-1.7-1.2-3.6-1.8-5.6-1.8c-7,0-14.8,4.3-23.4,12.8c-1,1-2,2.1-3,3.4
			c-1.2,0.6-2.4,2.1-3.8,4.5c-4.9,8.3-10,15.2-15.3,20.8c-5.7,6-10.6,9-14.6,9c-2.8,0-4.8-1.5-5.9-4.5c-0.8-2.3-1.3-4.5-1.3-6.9
			c0-5.7,1.2-12.6,3.5-20.7c2.9-12.8,13.4-35.5,31.5-68.1c9.7-16.1,17.2-28.5,22.7-37.1c5.4-8.6,10.3-16.8,14.6-24.6
			c4-6.5,6.1-10.8,6.1-13.1c-0.1-1.5-1.1-2.5-3.1-3c-2,0.1-3.8,1.4-5.6,3.8c-4.1,6.8-16.6,29.1-37.4,66.7
			c-10.9,21-18.2,35.6-22,43.7c-3.8,8.1-7.3,16.2-10.4,24.3c-1,2.5-1.8,5-2.5,7.6c-5.9,8.5-12,15.7-18.3,21.6
			c-7.5,7.1-14.4,10.7-20.8,10.7c-5,0-8-1.4-9.1-4.2c-0.8-2-1.1-3.9-1.1-5.9c0-3.2,0.7-7.2,2.1-12c2,0.6,3.9,0.8,5.9,0.8
			c4.5,0,9.1-1.2,13.6-3.5c5.3-2.7,9.4-6.2,12.2-10.4c1.7-2.8,2.5-5.3,2.5-7.5c0-0.9-0.2-1.8-0.6-2.7c-1-2.7-2.6-4.3-4.8-4.9
			c-2.2-0.5-3.8-0.8-4.9-0.8c-6.6,0-14.1,4.2-22.5,12.7c-3.4,3.4-6.5,7.9-9.4,13.6c-2.4,5-3.7,9.4-3.7,13.2c0,4.6,1.3,8.2,3.9,10.7
			c3.1,3.1,7.5,4.6,13.2,4.6c7,0,14.3-3,21.8-9.1c5.3-4.3,11.2-10.1,17.7-17.6c-0.5,3.1-0.9,6.2-1.1,9.5c0,7,2.2,12.1,6.5,15.2
			c2.2,1.3,4.4,2,6.6,2c6.2,0,14-5.6,23.6-16.8c-0.1,0.6-0.1,1.2-0.1,1.8c0,4.3,1.4,7.8,4.1,10.4c3.1,3.1,7.5,4.6,13.1,4.6
			c7.1,0,14.4-3,21.9-9.1c3.5-2.8,7.3-6.4,11.4-10.7c-0.4,1.8-0.6,3.5-0.6,5.2c0,0.9,0,1.8,0.1,2.7c1.4,8.1,5.8,12.1,13.1,12.1
			c6.8,0,12.8-3.9,18.1-11.7c4.8-7.2,7.8-13.3,9.1-18.3c3.9,1.6,7.7,2.4,11.4,2.4c4.6,0,9.3-1.2,13.9-3.6c-1,2.1-1.9,4.2-3,6.5
			c-5.2,11.5-7.7,18.5-7.7,20.8c0,2.3,0.9,3.8,2.7,4.2h0.4c2.1,0,3.8-1.2,5.1-3.5l2.3-4.4c6.3-11.6,11.1-19.6,14.5-23.9
			c11.4-13.6,18.8-20.4,22.1-20.4c1.3,0,2,1.1,2,3.4c0,5-3.1,15-9.4,30c-2.8,6.3-4.2,10.6-4.2,12.9c0,1.9,0.8,3.1,2.4,3.8
			c0.8,0.4,1.6,0.6,2.4,0.6c2.3,0,4.4-2,6.2-5.9c0.9-2,1.6-3.8,2.1-5.3c3.3-8.9,8.3-18.1,15.2-27.7c6.7-9.1,11.9-13.6,15.6-13.6
			c0.6,0,1.1,0.2,1.5,0.7c0.5,0.5,0.7,1.2,0.7,2.3c0,1.7-0.9,4.8-2.8,9.3c-2.1,4.1-3.6,9.1-4.6,14.9c-0.7,3.7-1,6.7-1,9
			c0,6.9,2.2,12,6.5,15.2c2.2,1.4,4.4,2.1,6.6,2.1c6.3,0,14-5.3,23-15.8c0,0.2,0,0.4,0,0.6c0.1,5.7,2.7,10.4,7.7,14.1
			c5.1,3.7,14.2,5.5,27.3,5.5h1c11.3,0,27.5-2.4,48.8-7.3l65.8-15.2c54.6-11.3,94.5-16.9,119.9-16.9c10.5,0,18.9,0.9,25.3,2.8
			c3.7,1.2,5.9,1.8,6.6,1.8c3.3-0.3,4.9-1.9,4.9-4.8C985.2,550.1,984.4,548.7,982.8,547.2z M399,538.9c3.2-2.3,5.6-3.4,7.1-3.6
			c1.5-0.1,2.5-0.2,2.9-0.2c2.2,0,3.6,0.8,4.2,2.3c0.3,0.5,0.4,1,0.4,1.7c0,1.6-0.8,3.7-2.5,6.4c-1.6,2.7-3.9,5-6.8,7
			c-2.9,2-5.3,3.1-7.2,3.4c-1.9,0.2-3.2,0.4-3.7,0.4c-2.5,0-5-0.9-7.3-2.7C389.3,547.9,393.6,543.1,399,538.9z M540.1,572.6
			c-4.5,6.4-8.1,9.6-10.8,9.6c-3.6,0-5.3-2.9-5.3-8.6c0-3.8,0.9-8.5,2.8-14.1c2.5-7.5,5.3-12.9,8.2-16.3c0.8,1.1,2.4,3,5.1,5.7
			c2.6,2.7,5.6,4.8,8.9,6.4C547.4,560.7,544.5,566.5,540.1,572.6z M550.3,550.9c-2.4-0.9-5.1-3.4-7.9-7.5c-1.4-2.1-2.1-3.8-2.1-5.2
			c0-1.7,1.6-2.5,4.9-2.5c4.1,0,6.2,2.7,6.2,8C551.4,546,551,548.4,550.3,550.9z M705.3,538.9c3.2-2.3,5.6-3.4,7.1-3.6
			c1.5-0.1,2.5-0.2,2.9-0.2c3.1,0,4.6,1.3,4.6,3.9c0,1.6-0.8,3.7-2.5,6.4c-1.6,2.7-3.9,5-6.8,7c-2.9,2-5.3,3.1-7.2,3.4
			c-1.9,0.2-3.2,0.4-3.7,0.4c-2.5,0-5-0.9-7.3-2.7C695.6,547.9,699.9,543.1,705.3,538.9z"/>
	</g>
</g>
</svg>
