<?xml version="1.0" encoding="utf-8"?>
<!-- Generator: Adobe Illustrator 24.1.0, SVG Export Plug-In . SVG Version: 6.00 Build 0)  -->
<svg version="1.1" id="Layer_1" xmlns="http://www.w3.org/2000/svg" xmlns:xlink="http://www.w3.org/1999/xlink" x="0px" y="0px"
	 viewBox="0 0 2200 3000" style="enable-background:new 0 0 2200 3000;" xml:space="preserve">
<style type="text/css">
	.st0{fill:#FBB03B;}
</style>
<path d="M1951.4,2174.2c9.5-6.3,20-10.2,30.6-13.6c42-13.1,60.4-53.7,66.5-90.5c1-5.7-2.5-9.2-8.3-6.8c-34,14-70.7,24.1-86.6,63.3
	c-4.1,10.1-9.4,20.1-19.4,29.1c-0.3-10.9,5.9-17.9,7.2-26.1c4.3-27.2,15-51.2,30.6-74c12.7-18.4,13.2-40.8,11.7-62.6
	c-1.3-19.2-5.7-37.7-14.4-55.1c-5.1-10.1-7.2-10.5-13.9-1c-14,20.2-27,40.5-31.2,65.7c-3.4,20.8,5.2,39.2,7.3,58.8
	c2.9,25.5-3.7,49.5-13.8,72.9c1.3-17.8,2.5-35.4-1-53c-4.2-21.6-16.6-37.8-32.4-51.8c-4.1-3.6-10.9-6.8-10.8,3.3
	c0.1,17.4-1.5,34.9,1.2,52.3c1.8,11.2,3.8,22.4,10.8,31.5c22.7,29.5,20,61.3,7.8,93.4c-4.7,12.4-4.2,27.2-16.2,37.2
	c-2.1-16.4-2.7-32.3-3.1-48.2c-3.1-114-43.3-212.9-121.6-296.1c-16.3-17.3-34-32.9-54.3-45.4c-5.2-3.2-10-6.2-3.8-13.4
	c4.3-4.9,5.9-11.7,14.8-4.9c22.6,17.5,49.6,24.5,76.9,30.7c10,2.3,14.1-1.3,13.5-11.4c-3.4-54.7-22.7-101.6-67.1-136.2
	c-5.9-4.6-11.3-9.8-16.7-14.9c-7.2-6.7-10.6-13.1,1.1-19.1c6.6-3.4,1.9-7.5,0-11.4c-1.7-3.5-6-6.9-1.7-11.1
	c3.8-3.8,8.3-2.6,12.8-0.6c10.9,4.8,16.4,13.2,18.1,24.9c4.4,30.6,33.2,53.5,63.6,51c7.5-0.6,10.9-3.9,8.7-11.4
	c-6.8-23.3-17.2-43.3-43.1-50.4c-7.3-2-13.1-6.9-17.6-13.1c16.7-8.7,46.6-0.3,59.4,17c7.8,10.5,15.3,20.6,30.2,21.7
	c5.7,0.4,10.8-0.2,15.7-2.3c9.2-3.8,11-10.7,5.4-19c-9.5-14-23.9-18.8-39.5-20.9c-8.3-1.1-21-2-19.9-10.2c1.2-9.1,13.5-4.8,21.5-4.4
	c35.6,2,68.2-3.7,89.9-36.4c8.7-13,7.1-17.5-7.6-21.8c-25.9-7.6-46.5,0.6-63.2,20.8c-9.1,10.9-20.2,18.9-33.8,25.7
	c-1-6.8,3-8.3,5.7-10.1c13.1-8.7,21-20.9,25.8-35.6c3-9.1,2.9-18.9-5.8-23.2c-8.4-4.2-15.8,3-20.6,9.8c-6.8,9.6-7.8,21.7-12.3,32.5
	c-7.6,18.2-20.2,28.9-40.1,30.6c-2.7,0.2-6,3-7.6-0.9c-1.5-3.8,2.7-4.9,4.9-6c20.5-9.4,32.5-24.8,36.4-47.2c1.4-7.9,2-16-5.3-19.8
	c-8-4.2-13.3,3.5-17.1,8.9c-12.3,17.3-22.5,35.9-31.9,54.8c-5.7,11.7-22.2,21.5-34.6,19.1c-1.7-0.3-3.8-0.7-3.3-2.7
	c0.4-1.8,1.9-3.7,3.5-4.7c9.8-6.5,18.5-13.9,25.3-23.8c5.1-7.5,7.3-15.8,8-24.5c0.5-6.4-2.2-11.6-7.6-14.8c-5.4-3.2-10.3-0.8-15,2.6
	c-10.8,7.7-16.7,18.1-18.2,31.3c-0.5,4.6-0.5,11.7-7.1,10.8c-6-0.8-11.2-4.8-12-12.4c-1.6-16.1,11.2-34,29.8-40.1
	c15.4-5,31-9.6,46.6-13.9c45.2-12.4,70.9-43.7,81.4-87.4c5.8-24,16.8-46,22.5-69.8c4-16.9,2.6-18.7-14-20.1c-36-3-66,9.1-90.9,35
	c-3.8,3.9-7.4,7.9-11.5,11.4c-3.6,3.1-6.2,10.1-11.4,7.9c-5-2.1-3-9.2-2.2-13.6c5.9-36.7,24.1-72.8,64.8-80.7
	c5.3-1,10.8-1.8,16.1-1.2c26.3,2.7,45.7-10.7,62.5-28c9.8-10,17.4-22.3,25-34.2c5.6-8.7,3.1-13.1-7.2-14
	c-41.8-3.6-78.8,4.3-102.9,43.2c-4.3,7-10.5,12.8-16,19.1c-0.7,0.8-2.2,0.8-5.5,1.9c5.8-19.6,12.6-36.9,21.9-53.6
	c12.2-21.8,32.6-36.6,46.9-56.4c21.4-29.5,22.9-62.2,14.6-96.3c-2.1-8.8-6.4-9.4-13.2-3.9c-30.2,24.7-49,54.9-48.2,95.3
	c0.4,21.1,2.4,42.6-9.5,61.9c-1.2,2-1.4,4.9-7.3,5.3c3.1-11,2.9-21.8,2.8-32.6c-0.1-26.1-7.3-49.9-22.9-71.1
	c-8.4-11.3-11.5-11.3-17,2.3c-12.2,30.3-11.9,60.6,0.9,90.8c14.2,33.5,10.3,66.5-4.6,98.8c-1.1,2.3-2.3,4.4-5.7,5
	c-5.3-8.4-4.8-18.4-5.3-27.4c-2.4-38.9-14.9-74.8-30.9-109.7c-31.2-68.3-78.6-121.8-145.2-157.4c-14-7.4-28.7-12.9-43.6-18.4
	c-12.1-4.5-26.1-8-27.7-24.8c-0.2-2-0.5-4.7,0.5-5.9c2.1-2.6,4.6,0,6.5,1c4.8,2.5,9.3,5.6,14,8.1c13.1,7.1,21.1,2.4,20.6-12.8
	c-0.3-8.2-2.8-16.3-4-24.5c-0.9-6-1.6-12.2,2-20.2c8.9,14.9,18.6,27.4,24.4,41.6c6.9,16.8,18.3,25.3,35.1,29.9
	c16.4,4.4,32.8,5.7,49.4,4.2c11.9-1.1,14.3-5.3,10.7-16.5c-8-25.2-20.3-48.3-35.2-69.9c-9.2-13.4-24.2-20-38.2-27.3
	c-8.1-4.2-16.6-8-22.9-14.9c-3.4-3.7-6.6-8.9-3-13.4c3.8-4.9,8.6-0.1,12,1.9c9.2,5.6,17.9,12,26.9,18.2c8.2,5.6,17.1,8.6,27.1,7.2
	c9.6-1.3,12.5-7.7,7.4-15.9c-5.6-8.9-14.5-13.5-23.9-17c-7.7-2.9-15.4-5.6-22.9-12.2c15.1-4.8,28.7-4.9,42,0.2
	c9.7,3.7,16.7,10.2,18.5,21.5c1.5,9.4,3.8,18.8,7.1,27.7c5,13.6,16.9,19.1,27.3,13.8c12.4-6.3,14.8-18.3,6.8-31.5
	c-4.9-8-12.3-13.5-18.2-20.5c-3.3-3.9-8.4-7-7.3-14c16.9,0.5,31,7.3,44.9,16c16,9.9,27.8,5.6,34.8-11.4c5-11.9,1-20.4-11.5-23.7
	c-8.7-2.3-17.3-0.7-25.6,2.7c-17.2,7-24.3,7.3-45.9,1.6c8.3-2.9,15.4-4.9,22-7.8c12.9-5.7,19.4-19,15.3-30.2
	c-2.3-6.1-5.7-11-12.8-12.3c-7.6-1.3-13,2.1-16.9,8.1c-4.7,7.4-9.1,14.9-13.2,22.6c-8.3,15.2-17.5,19.1-36.8,14.5
	c3.8-5.4,8.9-8.7,13.8-12c4.4-3.1,9.3-6,11.8-10.9c2.9-5.8,10.1-11.6,0.8-18.1c-7-4.8-18.5-3-23.3,4.1c-2.3,3.4-3.8,7.3-5.4,11.2
	c-10.2,24-16.4,28.4-46.8,31.4c8.8-11.6,17.2-21.6,20.3-34.5c0.6-2.4,1.8-4.7,2.5-7.1c6.4-21.4,6.4-20.5,27.6-21.1
	c19.2-0.5,37.9-4.9,55.5-12.8c7.3-3.2,13.2-9.7,12.1-17.3c-1.1-7.9,2.1-11.3,7.2-15.5c3.5-2.8,6.5-6.4,9.2-10.1
	c12.1-16.7,15.8-37.1,24.5-55.3c4-8.4-0.7-11.9-8-14.5c-12.2-4.4-23.7-1.9-35.3,2.2c-6.5,2.3-13.3,5.9-15-6.4
	c-1-7.1-9.1-7.4-15.3-8.1c-14.5-1.4-26.2,6.1-38.2,13.6c0.4-29.9,27.9-52.3,56.4-46.8c6.1,1.2,12.3,2.3,18.2,4.3
	c26.8,9.3,63.1-9.8,76.1-40c3.1-7.2,1.7-12-6.7-13.5c-29-5.3-57.1-6.7-81.3,14.7c-7.7,6.8-16.5,12.1-26.3,16.4
	c-1.5-5.6,2.1-8.3,4.5-11.3c16.5-20.4,33.4-40.2,56.5-53.8c32.1-19,39.3-50.8,41.2-84.6c0.5-9.3-6-9.1-13-6.4
	c-36.4,14-58.8,39.5-64.5,78.5c-2.4,16.1-10.2,28.9-23.8,39c2.9-14.5,5.8-29,8.6-43.5c2.2-11,0.6-21.5-4.3-31.5
	c-2.6-5.3-6-6.7-10.6-2.2c-9.9,9.8-18.5,19.8-17.7,35.4c0.8,15.7,0.3,31.4,3.1,47.2c3,16.6-5.6,29.9-14.1,45
	c-7.9-12.9-5.6-25.5-8.7-37c-23.9-87.2-71.8-156.2-150.3-203.1c-50.8-30.3-104.7-51-164.2-52.1c-31.6-0.6-62.8,6.1-92.6,17
	c-8.5,3.1-15.1,2.1-22-3.1c-20.3-15.2-34.4-37.1-46.1-59.3c-13.3-25.3-21.2-50.6-38-74.3c-33.8-47.9-83.4-92.5-141.6-106.8
	c-35.3-8.7-54.8,6.2-54.8,41.4c0,6.9,2,11.4,8.7,14.8c47.9,24.2,83.8,66.2,99.9,117.4c6.1,19.3,9.7,44.8-4.2,61.7
	c-4,4.8-7.9,9.6-11.8,14.5c-11.5,14.4-24.5,16.5-42.8,11.4C849,359.4,773,371.3,702.6,414.4C611.2,470.3,564.1,555,547.9,658.8
	c-1.2,7.6-0.2,15.5-1.9,23.5c-8-10-12.4-21.5-15.5-33.1c-8.9-33-31.1-52-62.8-61.4c-13.4-3.9-15.9-0.6-13.9,13.5
	c5.1,35.4,24.1,60.8,53.8,79.8c18.8,12,34.5,27.4,42.3,49.2c1.3,3.9,3.9,7.5,0.7,12.8c-29.5-30-65.6-34.8-104.6-27.2
	c-4.3,0.8-10,0.4-11.4,5.7c-1.2,4.5,3.4,7.3,6.3,10.1c26.7,25.2,55.2,47,94.3,47.9c12.1,0.3,20.6,5.1,20.3,19.1
	c0,1.2,0.8,2.3,1.1,3.6c4.9,21.2,4.8,20.9-15.6,28.5c-15.3,5.7-29.3,14-41.7,24.6c-9.9,8.4-9.1,13.2,2.7,17.6
	c25.6,9.5,50.8,20.4,79,20c5.1-0.1,9.3,3,12.3,7.6c8.9,13.5,17.4,27.4,30.2,37.8c4.9,4,1.1,6.2-1.3,8.9
	c-13.1,14.5-25.8,29.4-41.1,41.7c-2.9,2.3-5.8,4.9-7.8,8c-4.3,6.7-4.6,12.6,5,15c19.4,4.9,37.2,14.3,56.1,20.7
	c22.3,7.6,45.1,5.3,67.7,0.2c14.2-3.2,28.1-5.7,43.2,1.1c-7.9,7.9-17.8,6.7-26.2,8.4c-55.8,11.6-103,39.5-144.5,77.3
	c-71.3,65-103.7,149.7-119.5,242.3c-1.1,6.5-1.8,13.1-2.8,19.7c-0.3,1.6-0.6,3.4-2.8,3.7c-2.1,0.3-2.9-1.2-3.6-2.7
	c-9.7-22.6-20.7-45-6.8-70.1c12.9-23.2,11.5-47.9,6.8-72.8c-0.7-3.6-2.4-7-4-10.4c-4.1-8.7-9.1-9.9-15.7-2
	c-9.3,11-15.9,22.8-16.3,37.9c-0.8,24.5,2.2,48.8,2,73.7c-11.3-23-23.7-45.4-23.5-72c0.2-20,0.4-39.9-12.7-57.2
	c-8.7-11.5-20.3-18.5-33.3-23.2c-11.3-4.1-18.6,0.1-19.2,12c-2,36.8,1.9,71.5,36.6,94.7c27.3,18.2,38.3,47.6,52.4,79
	c-12-6.7-17.1-15.1-22.6-22.9c-18.4-26.2-43.3-35.7-74.6-32.1c-11.9,1.4-13.6,7.2-11.5,16.9c5.5,25.9,30.3,46.2,57.6,47
	c10.8,0.3,21.6-0.3,32.5,0.3c19.5,1,34.6,10.3,46.2,25.7c3,3.9,4.6,8.5-2.8,7.9c-15-1.2-23.1,6.9-28.2,20.7
	c-6.5-6.2-10.8-13.3-19.5-15.4c-16.3-4-28.4,3.5-32.7,22.9c-1.8,8.1-5.1,12.5-11.9,17.8c-19.1,14.6-18.3,30-0.4,46.8
	c3.8,3.5,9.2,5.6,14.2,7.7c15.5,6.6,15.3,6.3,3.5,19.3c-6.1,6.7-11.9,14-16.7,21.7c-10.6,16.9-2.2,36.9,17.2,42.1
	c3.3,0.9,6.1,1.1,7.6,5c8.5,22.3,18.2,27.8,39.2,18.9c10.5-4.5,13.8-2.4,19,6.9c14.3,25.8,29.5,29.9,53.6,15c6.5-4,9.5,0.9,12.9,3.1
	c4.2,2.7,2.4,7.3-0.6,10.8c-0.3,0.3-0.5,0.7-0.9,0.9c-27.2,16.7-37.7,45.6-52.4,71.5c-8,14.2-18.4,26.7-27.8,39.9
	c-12.3,17.2-9.4,24.3,10.6,29.9c24.2,6.7,48.4,6.5,72.7,1.5c6.8-1.4,12.9-3,16.6,5.7c2.3,5.4,7.5,5.2,12.9,4.4
	c24.2-3.5,44.4-16.2,65-27.7c6.3-3.5,10.8-5.8,15.8,0.8c0.5,0.7,1.1,1.3,1.8,1.7c6.1,3.8,16.7,6.2,15.5,13.6
	c-0.8,5.3-12,5.5-18.6,7.7c-150.5,49.3-242.8,153.9-287.6,303.3c-10,33.3-19.6,66.8-22.7,101.3c-5.7,1.3-7.1-2.6-8.3-5.2
	c-13.2-27.5-22.4-55.2-10.1-86.1c6.3-15.9,9-32.8,4.7-50.1c-1.9-7.7-4.2-15.1-10.1-21c-11.7-11.7-20.2-10.2-25.3,5.7
	c-6.3,20-3,40.3,0.3,60.4c0.6,3.8,3.1,7.9-1.5,12.4c-10.2-13.3-14.5-28.7-18.3-44.1c-3.2-12.9-6.1-25.9-13.1-37.5
	c-9.4-15.6-23.3-24.5-41.1-27.4c-9.4-1.5-14.3,2.1-14.2,12.1c0.4,31,12.6,55.4,39.8,71.5c32.3,19.2,51.9,48,64,85.3
	c-8.1-3.5-10.9-9.7-15.2-14.1c-16.5-17.3-33.7-33.3-58.4-38.3c-18.1-3.7-30.5-1.2-35.1,7.7c-4.5,8.8,0.8,31.8,10.1,40.5
	c16.4,15.3,35.9,22.4,58.3,19.6c35.1-4.3,69.4,26.7,68.4,62.3c-0.1,4.3-0.4,8.4-4,11.4c-13.2,11-9.8,24.3-4.6,37.5
	c4.3,11,13.7,19.7,14.6,32.7c-26.8-9.6-42-30.7-42-58.2c0-15.2-6.7-26.1-19.7-33.7c-12.1-7-23.2-4.4-34.1,2.3
	c-12.2,7.6-16.9,26.1-11.2,43.8c5.8,18.4,18.3,28.4,34.3,26.7c6.5-0.7,12.7-1.1,17.5,3.6c16.8,16.5,37.7,27.3,56,41.7
	c1.9,1.6,4.2,2.7,5.3,7.2c-13.4,0.5-26-0.8-37.9-6.7c-5.9-3-11.6-6.6-17.5-9.6c-11-5.5-22.4-3.2-30.3,5.9c-8.3,9.5-8.7,25-0.9,35.9
	c7.7,10.8,19.5,15.3,30.3,10.7c5.7-2.4,11.5-5.4,16-9.5c10.8-9.9,23.6-11.2,37.2-10.9c8.5,0.2,12.1,4.1,14.2,12.4
	c2.5,9.9,0.1,14.1-9.8,16.3c-14.5,3.2-24,12.3-28.5,26.8c-5,16,4.1,27.5,20.8,26.1c8.3-0.7,14.9-4.9,21.5-9.3
	c7.3-4.9,11.9-5.6,14.9,4.9c3.1,10.7,8.2,20.8,12.4,31.2c3.4,8.3,2.2,14.7-5.6,20.3c-16.1,11.6-28.5,26.6-37.9,44.1
	c-11.6,21.5-5.1,33,19.2,32.1c28.7-1,51.9,11,71.2,30.4c13.2,13.3,27.4,22.7,46.1,24.6c6.3,0.6,9.4,4.8,12.2,9.5
	c27.4,45.9,65.6,80.2,113.4,103.5c16.2,7.9,16.4,17.3,16.3,33.5c-0.1,20.6-3.1,51,3.6,70.1c18-4.8,33.9-16,50.6-23.9
	c22.6-10.7,38.6-26.3,64.9-28.9c20.2-2,40.5,1.6,60.5,5.1c83.8,15,167.6,30.5,252,41.7c80.1,10.6,159.4,17.9,238.4,11.9
	c102.6-7.8,203.9-32.6,296.6-77.8c3.3-1.6,6.9-3.4,10.6-2.9c4.7,0.5,8.4,4.1,11.7,7.5c23.7,23.7,52.8,42,84.3,53.2
	c-4.7-1.7,0-92.8,0-100.8c-0.1-20.1,15.2-30.9,26.5-46.2c4.8-6.5,8.6-6.5,13.6-0.5c5.3,6.4,11.1,12.4,16.5,18.7
	c13.2,15.2,31,21.5,49.6,26.9c6.8,1.9,12.3,1.3,16.5-4.6c4.2-5.9,10.2-7.5,16.6-5.6c20.6,6.1,41.6,7,62.8,7.5
	c10.6,0.2,21.3,3.6,31.8,5.7c14,2.8,18.4-1.1,14.1-15.1c-10.5-34.1-21.5-68.1-38.5-99.8c-3.3-6.1-5.5-11.5-3.2-18.7
	c2.5-7.8,1.4-16.5-3.1-22.9c-7.7-11-2-18.5,4.9-25.7c6.9-7.2,14-13.9,17-24.1c2.4-8.3,7-2.8,10,0c10.5,9.7,22.5,15.5,37,15.3
	c12.2-0.1,19.6-6.9,22.1-18.1c1.7-7.5,4.6-10.6,12.4-12.7c24.5-6.3,34-45.7,16.3-65.4c-4.1-4.5-9-8.3-14.6-13.4
	c9.5-4.9,18.6-9.5,25.6-17c8.8-9.4,14.6-20.1,15.5-33.2c0.8-11.9-4-20.8-14.2-27.1c-6-3.7-11.1-7.5-10.8-16.4
	c0.6-18.8-3.8-25.7-16.4-29.8c-13.3-4.3-28.7,0.7-37.8,12.4c-1.2,1.6-2.3,3.2-5.2,7.4c-2.7-12.9-5.4-23.4-6.7-34
	c-0.5-4.6,4.6-5,8.5-4.9c47,1.1,77.3-22.9,96.1-64c5.7-12.5,11-25.1,14.6-38.4c3-10.9,0-14.5-10.5-11.9
	c-21.3,5.4-42.8,10.4-63.7,17.1c-22,7.1-39.6,20.7-51.8,40.8c-3.6,6-6.7,12.4-15.5,18.2C1901.6,2237.6,1914.3,2198.6,1951.4,2174.2z
	 M1966.3,2255.2c-12.7,19.5-32.4,28.2-50.8,39.9C1916.4,2281.5,1949.7,2255.4,1966.3,2255.2z M1820.3,2173.8
	c0.2-1.6,2.3-3.8,3.9-4.1c2.2-0.5,3.5,1.7,3.9,3.9c3.8,18.7,5,37.3-2.5,55.6C1818.8,2211.1,1818.2,2192.5,1820.3,2173.8z
	 M1719.7,1952.9c35.5,45.7,64.1,94.7,78.7,154c-14.4-7.9-26.1-15.8-39.4-20.7c-8.2-3-12-2.3-10.3,7.3c0.7,4.1,1.2,8.2,2.2,12.2
	c7.7,31.2,9.8,63.1,12.8,94.8c0.5,5.2,2.2,9.6,4.5,14.1c7.6,14.4,17.3,27.4,26.5,40.7c4.4,6.5,9,13.1,12.3,20.2
	c6.8,15,5.5,16.7-10.7,16.2c-14.5-0.4-25.9,4.8-33.4,17.5c-2.4,4-4.9,7.8-8.9,10.2c-4.5,2.8-10.2,3.9-14,0.4
	c-4.7-4.3,0.7-8.1,3-11.6c14.1-20.5,22.8-42,17.3-67.8c-4.2-19.7-15.7-31.8-34.2-37.2c-7.9-2.3-11.7-5.2-11.8-14.1
	c-0.1-8.1-2.1-16.6-4.7-24.3c-6.4-18.6-19.4-29.5-39.6-30.8c-10.2-0.7-16.3-2.9-19-15.6c-17.8-80.4-47.4-155.6-101.4-219.4
	c-5.1-6-10.6-11.7-15.8-17.7c-2.2-2.5-4.9-5.2-2.3-8.7c2.3-3.2,5.7-5.7,9.7-3.9c20.5,9.6,39.6,3.9,58.5-4.9
	c5.5-2.6,10.5,0.5,15.4,2.7C1657.6,1885.9,1691.1,1916.2,1719.7,1952.9z M1812.3,2230.2c-4.5,0.2-6.3-1.7-7.5-3.9
	c-10.2-20.2-17.4-41.2-17.8-64.1c0-2.9-1.7-7.7,2.8-8.3c3.8-0.5,4.8,4.1,6,6.9C1804.7,2182.9,1808.6,2206.1,1812.3,2230.2z
	 M1787.2,2450.7c-1.2-6,2.9-13.9,8.7-14.4c8.8-0.8,17.9,2.1,26.9,3.6c1.6,0.3,3,1.4,2.8,6c-0.5,0.3-2.6,1.7-4.6,3
	c-6.4,4-13.3,6.6-20.4,9C1793.1,2460.5,1788.3,2456.3,1787.2,2450.7z M1796.8,2591.1c-18.4,0.4-33.1-3.3-47.6-7.6
	c-5.3-1.5-7.7-6.7-6.2-11.9c1.5-5.2,6.5-4.4,10.5-3C1768,2573.6,1784.2,2575.2,1796.8,2591.1z M1825,2430.6c-4.4,0.9-9,0.8-15.5,1.4
	c-3.7-0.7-9.7-2.7-9.4-8.8c0.4-8.9,2.7-17.8,5.1-26.6c1.1-4.1,4.7-2.1,7.1-0.6c9.4,6,15.1,15.1,19.2,25
	C1833.2,2425.4,1830,2429.7,1825,2430.6z M1577.8,2311.9c-6.1,3-13.4,10.8-18.9,4.7c-6.2-6.9,3.7-12,7.6-17.3
	c14.1-19,28.5-37.8,42-57.5c-17.7,7.4-31.1,20.9-45.8,32.3c-5.7,4.4-11.2,15.2-17.6,10.5c-5.6-4.1,2.2-13.6,5.6-19.5
	c17.3-30.2,30.8-62.8,57.1-87.2c12.1-11.2,25.8-18.1,41.3-21.7c14.8-3.5,30.6,6.7,34.8,21.2c4.2,14,1.1,27.1-3.7,40.1
	c-1.5,4.1-5.2,7.6-3.6,12.8c6.5,1.5,12.6-0.7,18.1-3.2c19.4-8.6,47.7,12.9,40.1,37.4c-6,19.3-16.1,33.1-32.4,43.6
	c-27.1,17.6-58,24.2-88.9,31c-7.7,1.7-15.4,3.4-23.1,4.8c-4.4,0.9-9.2-0.4-11.1-4c-2.1-4.2,3.1-6.1,5.8-8.3
	c20-16.7,40.1-33.3,59.8-50.8C1621.5,2289.1,1599.9,2301,1577.8,2311.9z M1322.9,2370.6c-30.8,3.6-60-1.1-92.9-1.5
	c16.5,10.6,31.5,14.4,46.5,18.3c8,2.1,16.2,3.7,24.1,6.2c5.7,1.8,6.8,5,2.2,10c-8.4,9.1-19.7,9.9-30.7,11.5
	c-28.3,4.1-56.5,10-85.1,1.1c-14.8-4.6-28.5-10.8-40.2-21.5c-11.1-10-17.7-21.9-13.6-36.4c4.1-14.4,16.5-21.7,30.1-25.4
	c10.2-2.8,20.5-6.1,31.6-6.7c-10.7-9.1-23.1-14.1-31.9-24.6c-13.3-15.9-17.9-35.8-10.2-48c7.2-11.3,29.3-15.5,48.1-12
	c32.9,6.2,58,25.8,83.4,45.4c14.4,11.2,28.4,23,42.4,34.7c2.5,2.1,7.1,4.2,4.3,9c-2.6,4.4-6.8,4.4-11,3.3c-4.4-1.2-8.7-2.8-12.9-4.5
	c-18.8-7.9-38.4-12.8-62-14.9C1270.7,2336.2,1302.6,2344.3,1322.9,2370.6z M1010.5,2601.4c4,10.7,7.7,21.8-1.8,31.4
	c-10.1,10.2-22.8,14-36.6,9.7c-29.7-9.1-48.8-30.6-62.9-56.9c-5.4-10.2-8.7-21.5-12.7-32.4c-1.8-5-1.2-9.5,3.8-13.1
	c5.1-3.8,8.3-0.8,12,1.9c14.6,10.5,27.8,23.5,48.2,26.8c-6.5-12.6-16.3-21.6-23.6-32.3c-3.8-5.5-10.4-12-5-17.4
	c5.2-5.2,12.3,1.4,17.1,5.2c10.3,8.3,20.8,16,35.6,21.6c-7.8-12.4-15.4-22-23.8-31c-2.7-2.9-7.1-5.7-4.4-10.5
	c2.3-4.2,6.7-2.7,10.2-2c33.2,6.4,59,23.3,75.4,53.5c5.3,9.9,5.1,20,1.5,30.1c-4.5,12.7-13.2,15.4-33.2,10.9
	C1008.7,2598.5,1009.9,2599.9,1010.5,2601.4z M863.9,2472.2c2.6-1.2,4.6,1.1,6.6,2.4c9.8,6.4,18,14.7,25,24c5.2,7,4.2,14.4-2.6,19.9
	c-7.2,5.8-13.8,3.5-19.8-2.6c-9.9-10-10.4-23-11.3-37.6C862,2477.3,860.7,2473.8,863.9,2472.2z M720.6,2015
	c-0.9-2.7-1.9-5.5-3.2-8.1c-6.4-13.9-10.6-14.7-21.9-4.5c-28,25.3-34.2,57.6-29.9,93.3c0.6,5.4,1,10.8,1.3,16.2c0.1,2-0.2,4-1.6,6.6
	c-15.4-21.4-39.1-38-36.9-68.9c0.1-1.7,0.2-3.5-0.5-4.9c-9.8-21.2-0.8-38.2,9.9-56.5c29.1-49.7,69.9-86.1,120.1-112.8
	c5-2.6,6.8-2.1,6.6,3.6c-0.1,5.4-0.3,10.9,0.3,16.2c1.4,12.7,10.6,17.7,21.8,11.5c33.7-18.5,68.9-22.7,106-13
	c11.9,3.1,12.4,4.1,5.4,14c-39,54.7-66.6,114.9-84.5,179.5c-5.1,18.6-6,38.4-9.2,57.6c-1,6-2,12.7-10.6,13
	c-9.1,0.4-14.7-1.5-13.6-12.9c1.2-12.4,0.5-24.9,0.3-37.4c-0.1-6.2,0-13.7-5.9-16.8c-6.5-3.4-11.8,3.2-16.2,6.8
	c-22.3,18.9-32.4,44.7-38.8,72.2c-3.1,13.5-4.6,27.3-6.9,41c-1.2,0-2.4-0.1-3.6-0.1c-10.4-34.3-16.9-68.5,1.2-103.1
	C725.7,2078.2,731.4,2047.4,720.6,2015z M503.3,2353.7c4.2,6.3,3.6,13.5,3.7,20.4c0.1,17.4,0.7,34.8,4.6,51.8c0.6,2.7,1.9,6-1.5,7.7
	c-2.1,1.1-3.8-0.9-5.3-2.3C490,2417.2,488.9,2368.7,503.3,2353.7z M483.2,2327.9c-0.9-0.2-1.7-0.5-2.6-0.8
	c-0.8-8.2-1.1-16.5-2.4-24.6c-3.1-19.4,8.5-31.1,21.4-42.2c5.1-4.4,7.3-2.1,7.7,3.6c1.1,13.9,0.6,27.2-8.8,39
	C492.6,2310.6,488.3,2319.6,483.2,2327.9z M558.9,2535.8c2.8,0.2,7.7,0.5,7.9,4.5c0.3,4.8-4.8,5.9-8.1,5.9
	c-27.2,0.3-54.4,0.2-84.1,0.2c7.8-8.9,16-8.5,23.4-9.8C518.3,2533.2,538.6,2534.5,558.9,2535.8z M583.5,2592.9
	c2.7,23.3-21.1,47.6-52.4,54.8C546.1,2626.1,563.7,2610.1,583.5,2592.9z M574,2493.5c-16.9-9.5-33.7-19.2-50.6-28.8
	c-2.5-1.4-5.7-2.8-5-6.2c0.9-4.5,5.3-4.1,8.1-3.3c17.8,4.7,33.9,13.1,46.3,26.6c3.5,3.8,7.6,7.9,11.2,11.8
	C579.4,2497.9,576.5,2495,574,2493.5z M574.7,2405.7c2.9,6.9,5,14,5.7,22.8c-11.7-3.5-21.2-7.6-22.4-21.2c-2.4-28.1-5-56.1-2.9-84.4
	c1.8-23.6,0.6-47.3,3-71c2.7-26,5.4-52,12.4-77.3c2.1-7.5,4.2-7.4,8.3-1.8c15.4,20.9,36.1,28.4,61.8,27.8
	c21.7-0.5,38.6,10.3,52.2,30.8c-12.5,0.5-22.2,2.2-31.8,4.9c-13.6,3.8-24,11.4-29.8,24.4c-2.2,5-4.9,8.7-10.7,8.8
	c-31,0.8-44.1,32.1-45.4,56.5c-0.8,14.9-0.1,29.6-4.4,44.4C567.2,2381.9,569.9,2394.3,574.7,2405.7z M586.2,2120.2
	c1.1-3.6,2.3-7.1,3.5-10.6c5.6-17,6.9-17.6,23.3-10.8c13.2,5.4,22.8,15.3,31.7,25.7c13.3,15.5,26.5,31.3,34.9,54
	c-13.3-7.5-18.5-18.4-26.9-26.1c-17.4-16.1-36.6-27.4-61.2-25.1C584.5,2128,584.9,2124.8,586.2,2120.2z M721.6,1689.1
	c-1.9,5-3.9,10.1-6.7,14.7c-8.9,14.5-18,28.9-27.2,43.2c-2.1,3.2-3.5,9.3-8.2,7.8c-4.9-1.6-3.4-7.8-3.9-12.2c-0.1-7.8,3-14.8,6.9-21
	c8.7-13.8,20.5-25,31.4-37.1c1.6-1.8,3.8-4.1,6.4-2.3C722.6,1683.8,722.5,1686.8,721.6,1689.1z M722.4,1738.8
	c3.4,13.1,2.7,25.8-0.4,38.3c-5.2,20.9-9.1,42-10.2,63.6c-0.2,2.4-1.1,4.8-1.6,7.3c-0.5,2-1,4.5-3.3,4.7c-3.5,0.3-3.3-2.9-3.8-5.2
	c-4.6-21.7-0.7-42.9,3.7-64C710,1768.1,712.7,1752.3,722.4,1738.8z M729.9,1383.5c1.1,2.2,3.4,4.3,1.5,6.7c-2,2.5-5.1,0.7-6.8-0.1
	c-23.4-12-45.8-25.7-62.6-46.2c-13.1-16-16.7-35.9-16.4-56.4c0.2-8.8,2.2-16.7,10.3-21.4c8.4-4.9,16.1-1.1,23.2,3.7
	c6.8,4.6,13.4,9.6,22.1,15.8c-0.6-6.6-0.7-11.3-1.6-16c-4.4-23.5,13.9-39.3,37-31.9c10.5,3.4,17.9,10.6,23.4,19.6
	c16.8,27.6,25.9,58.3,34.5,89.2c0.7,2.6,2.6,6.4-2.2,10c-8.9-14.6-17.8-29.1-28-45.8c-4.6,20.6,11.9,33.2,10.8,52
	c-22-14.5-28-40.5-51.1-55.2c6.7,21.3,16.9,37.3,24.6,54.5c1.9,4.2,8.7,9.5,1.4,14c-6.6,4-9.2-4-12.5-7.2
	c-9.2-8.9-16-20.3-27.5-26.9c-1.3-0.7-2.8-1.1-5.4-2C709.5,1357.4,722.3,1368.9,729.9,1383.5z M671.8,1419.7
	c13.9,7.1,28.8,12.6,40.5,27.2c-21.2,2-40.8,0.6-62.9,8c22.6,10.3,44.3,8.2,63.4,14.5c0.9,3.3-0.8,4.8-2.5,5.7
	c-34.8,20.5-70,38.8-112.2,23.4c-19-6.9-28.2-18.5-28-35.4c0.2-17.3,15.5-20.8,26.5-28.2c3.1-2.1,7.5-1.1,10.4-4.4
	c-6.7-4.2-14.4-7.9-18.9-14.8c-5.5-8.6-9.3-18.2-4.6-28.2c5.4-11.2,14.8-18.2,27.4-18.7c24.2-1.1,47.1,4.5,68.1,16.3
	c13.7,7.7,26.7,16.9,38.2,27.7c1.8,1.6,4.7,3.3,3.8,5.9c-1.2,3.4-4.8,2.9-7.6,2.3c-5.7-1.2-11.3-2.7-16.9-4.2
	c-7.2-2-14.3-4.6-21.6-6.1c-3.2-0.6-8.3-2.5-9.6,2.5C664.4,1417.1,669.1,1418.3,671.8,1419.7z M768.9,836.9
	c27.8,8.9,44.4,30.6,60.4,53C801.6,881.1,782,862.9,768.9,836.9z M847.3,932.4c-23.7-6.4-44.9-13.9-63-30.8
	C805.4,896.9,836.3,912,847.3,932.4z M777,925.3c3.2-2,6.6,0.4,9,2.6c17.9,16.3,41.2,20.6,62.9,28.3c7.4,2.6,15.3,3.5,23.3,3.3
	c3.7,0,7.6-0.4,10.7,2.3c5.4,4.8,11,11.4,9.9,17.8c-1.2,7-9.8,2.9-15.1,3.6c-14.3,2-28.7,3.5-43.1,5.3c-7,0.8-13.2-1.2-18.7-5.4
	c-17-13-31-28.5-38.2-49.2C776.7,931.2,772.9,927.9,777,925.3z M876.6,662.6c-3.9-4.5-3.8-7.4,2.7-8.1c5.6-0.6,11.2-0.9,17.1-1.3
	c-3.8-5.3-13.3-3.9-13.7-9.9c-0.4-5.9,8.8-2.7,11.6-7c-6.9-5.2-14.1-0.8-21.3-0.2c-1.9,0.1-4.9,0.2-5.7-0.9c-2-2.5,0.7-4.4,2.3-6.1
	c15.1-16.6,35.3-20.9,56.4-21.8c8.6-0.4,14.8,10.5,12.1,20.7c-2.2,8-2.5,14.6,2.8,22.1c7,9.8,3.3,19.3-7.6,24.4
	C917.6,681.6,888,675.4,876.6,662.6z M911.4,713.9c-1,4-3.1,7.7-4,11.7c-0.8,3.8-0.6,7.8-1.1,15.2c-7.7-15.4-9.6-28.9-13.2-41.8
	c-0.7-2.5,0-4.9,3.8-4.4C903.6,695.4,913,707.3,911.4,713.9z M822.9,586.8c-0.4-11,3.1-21.4,6.6-31.5c4.6-13.3,16.7-16.1,27-6.7
	c3,2.8,5.4,5.6,9.3,2c5.7-5.1,11.4-4,17-0.1c6.4,4.5,9.1,10.7,8,18.4c-1.7,11.4-5.8,21.6-14.9,29.3c-7.6,6.4-16.3,11.6-21.3,20.7
	c-1.2,2.1-3.5,4.2-6.2,2.7c-3-1.6-0.8-4.4-0.7-6.7c0.1-7.5,1-14.9-2-22.1c-1.1-2.6-1.2-6.4-5-5.9c-3,0.4-4.9,3.2-5.5,6.2
	c-1.5,6.4-2.7,12.9-4.2,20.5C820.5,605.4,823.3,595.7,822.9,586.8z M826.1,637.9c16.1,0,16.1,25,0,25S810,637.9,826.1,637.9z
	 M825.9,693.6c1.3-2.3,2.9-5.8,6.3-5.1c3.3,0.8,3.1,4.7,3.8,7.2c1.8,6.7,3.6,13.4,8.3,20.9c2.1-11.6,4.4-20.8,3.8-30.5
	c-0.2-2.8-0.3-6.3,3-7.6c3.5-1.4,5.3,1.7,6.7,4.1c8.7,15,17.4,30.1,23.6,46.3c3,7.9-4.7,18-13.2,16.5c-8.4-1.5-12.8,2.3-18.2,7.2
	c-14.5,13.1-27.5,8.8-32.7-10.3C812.3,724.7,817.2,708.8,825.9,693.6z M924.3,894.6c6.1,29.6,12.1,59.1,22,87.7c1,3,1.5,6.2,2.3,9.3
	c-26.5-22.3-47.9-47.5-54.4-82.3c-1.5-8.1,1-14.9,5.4-20.9c4.5-6.1,12-5.3,18.4-4.7C923.5,884.3,923.4,890.3,924.3,894.6z
	 M1170.5,650.4c-18.1,3.8-36.2,5.1-54.3,0c-1.7-0.5-4.2-2.4-4.3-3.8c-0.2-2.7,2.7-3.7,5-4.7C1136.1,633.8,1153.7,638.5,1170.5,650.4
	z M1116,556.3c18.7,4.9,42.5,34.3,44.7,55.4C1141.5,596,1127.2,578.2,1116,556.3z M1231.4,713.6c12.3,9.3,20.1,23.1,28.3,36.1
	c1.6,2.5,3.3,5.8,1,8c-2.9,2.9-6.2,0.3-8.9-1.5c-8.6-5.8-17-11.9-25.6-17.7c-3.5-2.3-7.4-3.7-14.3-1.3c11,10.5,21.1,20.1,31.1,29.8
	c1.8,1.7,3.6,3.4,5.2,5.3c2.3,2.7,6.8,5.8,4.5,9.3c-2.5,4-6.8,0.6-10.1-0.8c-13.3-5.8-26.5-11.5-43.8-13.3
	c14.5,12,28.8,19.3,41,32.9c-19.6,2.1-36.6-5.8-55-6.2c2.3,8.1,8.9,9.8,14.8,12c9.4,3.4,19.2,5.5,28,10.4c3.8,2.1,7.8,4.5,6.8,9.3
	c-0.9,4.1-5.6,2.3-8.6,2.8c-22.3,3.5-44.6,5-65.7-5.5c-22.9-11.5-29.2-28.1-20.2-52.2c1.3-3.4,1.4-6.3-0.4-9.4
	c-9.3-15.7-3.4-29.5,5.6-42.8c0.7-1,1.6-1.9,2.5-2.8C1183,680.5,1189.6,682.2,1231.4,713.6z M1192.2,576.1
	c7.3,16.2,13.5,32.6,15,51.6C1192.9,618.8,1187.5,600.7,1192.2,576.1z M1314.7,550.2c-7.8-9.6-11.2-22.3-22.2-30.6
	c-3.3,11.3,3.9,20.6,5.3,32.7c-16.3-13.7-25.7-50.1-18.8-67.7c3-7.8,7.2-10,13.2-2.6C1308.1,501.7,1314.2,524.8,1314.7,550.2z
	 M1305.6,425.9c3.3-1.3,5.5,0.3,7.5,2.7c0.5,0.7,1.1,1.3,1.3,2.1c7.2,19.4,8.5,39.6,8.4,60.1c-14.4-17.1-18.5-37.5-20.1-58.6
	C1302.5,429.8,1302.7,427.1,1305.6,425.9z M1303.7,616.2c4.2,2,6.6,7.3,12.9,4.1c3-1.5,4.9,2.3,6.7,4.4c6.7,8.3,10.5,17.7,10.9,28.5
	c0.8,21.2-1.5,42.2-5.2,63.1c-0.8,4.6-1.3,9.6-6.4,15c-8.2-22.3-9.5-44.9-19.4-65.1c-3.3,22.7,3.7,45.9-3.7,70.5
	c-13.4-20.7-16.4-44.2-29.9-64c-3.6,13.9,0.2,25.7,3.8,37.4c2.7,8.7,5.4,17.4,7.7,26.3c0.4,1.7-0.2,4.4-1.4,5.6
	c-1.7,1.7-4.2,0.5-5.3-1.3c-14.1-23.8-37.5-43.7-34.2-75c2.2-21.1,14-38.1,28.3-52.7C1280.3,601.1,1292.4,610.9,1303.7,616.2z
	 M1368.1,654.1c5.6-8.1,13-14.1,22.4-17c18.2-5.6,29.2,3,28.4,22.2c-0.1,3.6-0.7,7.1-1.1,11.2c8-4.2,15-8.9,22.6-11.8
	c18.1-6.9,31-0.2,36.6,18.3c6.7,22-2,49.1-20.3,62.6c-3.6,2.7-7.6,5.1-11.5,7.4c-14.4,8.3-28.8,16.4-44.5,25.3
	c0.7-12.2,8.8-18.6,13.1-26.9c4.2-8.1,9.2-15.7,13.8-23.6c1.5-2.5,3.5-5.6,0.2-7.7c-3.3-2.2-5.1,1.3-7,3.2
	c-12.1,12.6-24.3,25.1-36.4,37.7c-2.2,2.3-4.1,6.9-7.6,5.1c-3.9-2.1-2.3-6.9-0.7-10c7.9-15,6.9-32.3,13.1-47.8
	c0.8-2.1,0.1-4.7,0.1-10c-9.9,13.3-18.3,24.4-24.1,37.2c-1.4,3-2.3,6.3-4.1,9.1c-2.8,4.4-4.6,11.9-10.6,10.6
	c-5.8-1.3-3.2-8.6-3.3-13.2C1347.1,706.9,1350.9,678.8,1368.1,654.1z M1347.5,598.4c14.6-14.4,28.8-28.3,45.1-39.9
	c3.4-2.4,7.6-5.7,11.3-2.8c5,3.7,0.8,8.8-1.1,12.2c-9.3,16.7-23.3,28-41.9,32.8C1356.9,601.7,1352.1,602.6,1347.5,598.4z
	 M1297.4,800.1c-6.5,0.5-19.6-13.7-19.2-20.8c0.4-7.4,6.3-12.2,12.4-11.3c10.9,1.5,10.2,12.5,13.1,21
	C1299.3,791.3,1305,799.5,1297.4,800.1z M1306.3,864.6c-3,7.8-2.7,19.4-14.3,20.2c-7,0.5-10.1-6.1-9.5-13.3
	c0.6-8.2,9.6-16.8,17.2-16.7C1306.6,854.8,1306.5,859.4,1306.3,864.6z M1290.7,812.4c0.4,5.3-0.7,12.4-9.8,11
	c-8.1-1.3-17.4-1.6-18.1-12.9c-0.5-7.7,4.5-11.6,11.9-11C1282.6,800.2,1289.9,803.7,1290.7,812.4z M1273.3,831.8
	c7.5,0,15.8,2.2,15.9,10.2c0.1,8.3-9,8-14.9,9.1c-7.8-0.1-15.3-2.9-15.7-9.9C1258.1,832.8,1266.4,831.8,1273.3,831.8z M1279.9,919.8
	c1.9-2.1,3.8-5.4,7-3.7c2.8,1.5,2.4,5.2,1.7,7.9c-3.2,13.3-6.7,26.6-9.9,39.9c-0.5,2.3-2,4.8,1.7,8.2c10.4-12.9,15.7-27.9,23-41.7
	c1.8-3.4,2.7-9.3,8-7.8c4.4,1.2,2.7,6.5,2.4,9.9c-1.4,16.8-3.5,33.6-1.3,53c11.1-13.1,11.2-27.5,14.4-40.7
	c1.8-7.2,1.9-14.8,2.7-22.2c0.4-3.1-0.9-7.8,3.3-8.4c5.1-0.8,5,4.4,6.1,7.7c3.3,9.5,3.9,19.5,5.4,29.3c0.5,3.5,0.3,10,5.4,9.7
	c4.7-0.3,4.6-6.2,4.7-10.2c0.2-6.7-0.3-13.3-0.1-20c0.1-3-1-7.4,3.5-8.2c3.8-0.7,6.2,2.5,7.6,5.5c10.1,22.3,17,45.2,11.2,69.9
	c-3.4,14.2-8.2,28-19.9,38.1c-16.1,13.9-31.6,12.8-44.5-4.1c-4.6-6-6.8-5.7-11.9-0.2c-16.8,18.4-34.9,16.3-47.1-5.7
	c-14.4-26.1-11.2-51.9,3.4-76.9C1263.1,938.3,1271.6,929.1,1279.9,919.8z M1327.5,866.8c7.1,0.1,9.9,4.8,9.8,16.5
	c-0.1,9.1-7.6,16.2-18.5,15.9c-7.1-0.2-10.8-6-11.3-12.7C1306.7,876.1,1316.7,866.6,1327.5,866.8z M1307.5,774.8
	c3.2-8.4,2-21.1,12.5-21c8.8,0,8.7,11.4,9.4,19.3c0.2,2.4,0.3,5-0.4,7.3c-2.1,6.2-7.4,10.1-13.2,9.2
	C1307.7,788.2,1310.3,779.6,1307.5,774.8z M1347.6,872.7c0.1-8.7,8.4-7.1,12.3-8.6c6.5-2.5,17,9.7,16.8,18.8
	c0.3,7.3-4.4,11.1-12.1,11.3C1356.2,894.3,1347.5,882.5,1347.6,872.7z M1370.2,855.9c-3.8-2.7-7.2-6.8-5.8-11.4
	c1.7-5.8,7.6-5.3,13.6-5.2c2.7,0.5,6.3,1.6,9.9,1.9c7.4,0.5,12.1,3.5,10.7,11.6c-1.5,8.6-8.1,11.4-15.6,10.1
	C1378.5,862,1374.2,858.7,1370.2,855.9z M1365.4,821.9c-0.9-4.9,15.6-15.2,22.7-14.3c6.2,0.8,11,4.1,10.7,11.2
	c-0.5,10.9-8.7,12.7-17.5,14.2C1374.9,831,1367.1,830.3,1365.4,821.9z M1363.4,774c6,0,15.5,11,15.2,17.5
	c-0.2,6.1-12.1,16.1-18.6,15.8c-4.8-0.2-18.9-11.7-18.4-15C1342.6,785.4,1356.1,773.9,1363.4,774z M1330.2,840.9c-16.1,0-16-25,0-25
	C1346.3,815.9,1346.3,840.9,1330.2,840.9z M1184.3,847.1c12.8-1,25.7-0.3,38.6-0.1c2.6,0,6.5-1.1,7.5,2.6c1,3.5-1.4,6.5-4.4,8.2
	c-6.5,3.7-13.2,7-19.9,10.2c-9.8,4.8-18.7,10.5-27,23.1c18.8-6.4,34.4-11.7,50.1-17.1c5.4-1.8,10.6-4.8,16.7-4
	c2.3,0.3,5.2-0.8,6,2.7c0.6,2.5-1.5,3.8-3,5c-9.8,7.6-20,14.9-29.6,22.7c-7.1,5.8-13.7,12.4-20.5,18.6c20.1-4.8,36.5-16.3,54.5-24.3
	c3.3-1.5,6.7-4.7,10.2-1.4c3.5,3.3,1,7-0.8,10.2c-15.3,28-34.6,51.6-67.1,61c-15.1,4.3-29.4,7.6-39.5-9c-1.9-3.2-5.1-3.4-8.7-3.4
	c-15,0.1-24.8-8.2-26.5-23.5c-1.2-10.7-1.3-21.6,1-32.2C1128.5,864.8,1146.9,850,1184.3,847.1z M1201,997.4
	c-29.3,32.4-54.1,68-75.7,105.9c-1.7,2.9-2.8,7.3-9.8,6.6c13.3-53,41.4-94.6,87.4-125.4C1205.7,990,1203.9,994,1201,997.4z
	 M1141,985.4c-11.1,16.1-29.2,16.3-42.1,28.7C1100.5,996.3,1115,986.9,1141,985.4z M1116.9,1146.2c12.7-13.1,24-27.5,38.8-38.6
	c24.8-18.6,35-18.1,56.8,3.4c32.8,32.3,50,73,63.9,115.6c3.8,11.8,8.8,23.3,10.5,35.8c0.9,6.9-0.5,9.9-7.9,5.9
	c-7.3-3.9-14.9-7.1-23.4-8.2c-8.8-1.2-13.4,2-14.2,11c-2.5,27.5,5.7,52.4,19.5,75.7c2.6,4.4,2.8,6.7-0.2,10.7
	c-8.3,11.1-7.5,13.7,5.7,18.3c18.6,6.4,36.1,17.4,57.1,15c4.7-0.5,5.3,2.9,5.7,6.4c1.6,11.5,3.5,22.9,4.7,34.4
	c1.1,10.6-6.8,16.8-13.4,22.7c-5.7,5.1-10.6,16-17.3,14.2c-7.1-1.9-5.5-13.6-6.9-21c-3.5-19.4-15.7-31.3-32.2-40.2
	c-7.1-3.8-9.6-2.3-10,5.6c-0.8,17.9,2.1,35.3,8.2,54.1c-9.1-3-11.7-8.9-14.6-14.7c-6.9-13.6-10.3-29-20.5-41
	c-8.4-9.8-17.8-17.4-31.2-18.6c-7.6-0.7-12,1.8-11.7,10.3c0.9,27.6,8.6,51.5,34.6,66c13.8,7.7,27.5,15.6,41.1,23.5
	c2.4,1.4,6.1,2.9,4.5,6.4c-1.7,3.7-5,1.1-7.6,0.4c-16-4.1-31.6-8.7-48.8-5.3c-15.1,3-19.1,14.7-24.3,25.7c-2.5,5.2,2.4,6.5,5.7,7.6
	c23.5,7.9,46.3,18.2,72.2,7.5c7.9-3.3,18.9-5.6,26.9,5.9c-9.7,4.2-18.8,7.3-27,12c-19.3,10.9-25.5,24.2-21.4,45.7
	c1.5,7.6-0.2,14.1-3.7,20.1c-18.7,33-18.1,43,5.5,72.6c-10.6,2.2-20.6,3.8-30.4,6.2c-14.2,3.6-27.2,9.7-38.5,19.5
	c-9.1,7.8-11.2,15.9-4.9,26.1c5,8.1,4.3,15.3-4.4,20c-26.8,14.3-41.5,38.8-55,64.3c-10.2,19.3-10.2,19.3-31.4,13.6
	c-30.8-8.3-31.3-9.1-25.7-41.2c2.6-15.1,0.7-29.8-4.1-44.2c-1.6-4.7-3.2-8.7,2.3-13.1c6.9-5.6,2.8-13.2-0.1-19.4
	c-15.1-32.2-34.2-60.9-68.4-76.1c-2.9-1.3-6.2-2.5-7.8-5.8c19.5-14.3,51.1-3.5,61.2,20.8c3.8,9.2,5.8,19.1,11.8,27.3
	c8.9,12.3,21.1,11.4,28.5-2c2.2-4,4-8.1,6.5-13.4c5.7,6.8,9.6,12.8,10.6,20.9c0.6,4.9,2.1,9.8,4.4,14.1c5,9.2,11.9,16.4,23.7,14.5
	c10.9-1.8,18.1-9.1,21.4-18.9c3.7-10.8-1.6-19.8-10.4-25.8c-17.9-12.1-36-24-58.4-26.4c-1.6-0.2-3.3-0.6-4.9-1
	c-3.9-1.2-8.3-1.7-7.6-7.8c0.6-5.2,3.7-7.3,8.3-7.4c15-0.2,29.9,0,44.8-2.2c5.7-0.8,7.8,3.7,10.4,7.5c11.2,16.5,23.4,18.9,39.8,7.7
	c16.4-11.2,23.5-27.1,16.2-36.6c-10.1-13-37.8-14.1-52.5-1.6c-9.6,8.1-19.5,13.8-33.8,10.8c4.6-7.2,11.9-9.3,17.7-13
	c14.9-9.4,25.1-22.8,33.4-37.9c4.2-7.8,2.3-13.2-5.5-17.3c-16.7-9-28.7-4.9-38.4,14c-5.7-2.7-7.7-9.5-13.2-12.3
	c-5.2-2.6-10.3-3.7-15.4-1.1c-5.3,2.7-5.5,8-5,13.1c0.9,9.9,3,19.7,2.5,29.8c-0.3,5.8-1.7,10.9-6.4,14.2
	c-14.6,10.2-30.1,17.6-48.8,12.9c0.1-1,0-2.2,0.4-2.4c19.3-11.3,27-29.5,29.5-50.3c1.5-12.7,12.2-19.5,17.2-29.7
	c7-14.4,17.1-21.9,32.7-26.7c20-6.2,33.9-22.1,44.4-40.1c5.8-10,11.1-20.4,16.4-30.8c3.4-6.8,2.5-11.8-6.2-13.7
	c-18.8-4.1-37.8-6.5-56.9-4.7c-20,1.9-37.1,10.6-47.7,28.1c-6.9,11.4-14,10-23.4,4.5c-7-4-5.5-6.9,0.3-10.3c9.8-5.6,18.8-12.3,27-20
	c24.6-22.8,23-51.8-3.9-71.4c-3.2-2.3-8.6-4.5-5.3-9.5c4.3-6.5,6.7,1.2,9.7,2.5c13.9,6.2,28.1,9.8,43.3,7.3c5.9-1,11.6-2.9,13.2-9.7
	c1.5-6.4-1.9-10.9-6.3-15.2c-14-13.9-31-20.6-50.4-21.2c-9.7-0.3-10.7-3.8-5-11.1c6-7.7,18.5-10.9,29.4-6.5c4.6,1.8,9,4.3,13.4,6.7
	c19.5,10.4,45.9,4.5,59.5-13.2c5.5-7.2,5-12.7-3.5-17c-20.7-10.2-41.3-16.2-61.6,0.9c-1.8,1.5-3.7,3.5-7.3,1.8
	c2.3-7,7.9-11,13.5-14.8c13.1-9,24.5-19.9,34.4-32.3c8.5-10.6,10.7-23.3,9.2-36.5c-1.1-9.5-8.7-14.9-17.8-12.3
	c-17.7,5-35.9,13-32.8,39.4c0.9,7.9,1.5,16.7-8.5,23.2c-0.1-11.5,3.3-21.7-0.5-31.7c-3.4-8.9-4.5-19.6-17.5-19.1
	c-9,0.4-15.3,10.4-15.8,23.6c-0.5,13.5,1.8,26.3,7.6,38.7c6.3,13.4,0.6,28.4-12.5,35c-7.1,3.5-6.5-2.1-6.6-6
	c-0.2-12.1,0-24.1-0.1-36.2c-0.2-11.8-3.7-22.8-7.8-33.8c-2.9-7.8-7.5-8.8-14.4-4.1c-21.4,14.5-27.8,41.1-15,63.8
	c5.7,10,4.3,12.8-7.5,13.6c-8,0.6-15.4,3-22.8,5.9c-2.3,0.9-4.6,2.9-6.8,0.8c-2.1-2.1-0.5-4.7,0.4-7c6.6-18.1,6-36.1,2.1-55
	c-3.9-19.3,2.3-37.9,10.7-55.4c12-24.8,30.3-44.4,51.6-61.5c15.5-12.4,33.1-18,53-19.1c10.4-0.6,14.2,3.1,15.5,12.4
	c1.9,13.8,7.6,26.3,13.2,38.8C1103.2,1155.7,1107.2,1156.3,1116.9,1146.2z M1307.1,1345.6c0.7,2.8,5.7,5.4,1.3,8.4
	c-3.8,2.6-8.1,1.4-11.6-1.5c-10.9-8.7-19.3-19.4-24.9-32.2c-3.1-7-8.5-15.9-2.5-22c5.5-5.6,14.5-0.5,21.1,2
	c16,6.3,27.8,17.7,34.3,34c0.9,2.3,2.2,4.9-0.1,6.9c-2.3,2-4.6,0.2-6.6-1.2c-5.4-3.7-10.8-7.4-16.6-11.4
	C1301.2,1335.6,1305.7,1340,1307.1,1345.6z M1545,1371.4c6.5-0.7,6.1,8.4,7.5,13.6c2.1,7.5,2.9,15.4,4.2,23.1
	c0.4,2.4,1.2,5.3-2.2,6.1c-2.3,0.5-3.5-1.5-4.8-3.2c-5.7-7.6-9.3-15.7-7.6-25.6C1543.3,1380.6,1539.5,1372,1545,1371.4z
	 M1593.6,1427.5c3.8,1.5,5.9-2.3,8.2-4.4c8.3-7.8,18.3-13.9,24.9-24c-5.4,33-39.1,41.9-55,66.8c-0.4-47.5,8.3-92.9,20.6-137.7
	c5.3,6.2,2,12.2,1.9,18.2c-0.6,24.1-0.6,48.2-2.9,72.2C1591,1421.6,1589.6,1425.9,1593.6,1427.5z M1582.3,1485.3
	c4-2.2,8.2-4.2,12.5-5.4c11.9-3.2,23-2.5,31.9,7.6c8.3,9.5,5.1,19.4,1.4,29.2c-5.1,13.5-5.3,13.2,9.5,13.2
	c10.5,0,16.9,5.7,19.7,15.7c6.9,24.2-4.3,46.5-28.6,52.7c-22.9,5.9-46.4,9.3-69.6,13.7c-2.6,0.5-6.3,1.4-7.7-2
	c-1.3-3.1,1.4-5.5,3.3-7.5c11.4-11.8,26.9-18,39.2-28.7c3-2.7,7.2-4,8.5-10.3c-23.7,4.5-42.4,17.2-65.8,28.3
	c6.7-24.2,30.3-32.1,38.4-52.9c-20.1,6.4-32.3,23.2-52.1,32.3c3.8-15.2,11.1-25.7,16.9-36.7
	C1550.3,1515.2,1562,1496.5,1582.3,1485.3z M1483,2355.9c3.4-14.2,9.2-27.1,18.3-38.2c5.6-6.8,12.6-13.1,22.3-7.9
	c10.3,5.4,9.5,15.7,6.8,24.1c-4.8,15.2-19.1,22.1-31.6,29.9c-4.1,2.5-4.8-1.6-3.6-4.6c1.2-3.3,3.2-6.3,5.2-10.1
	C1493.8,2350.5,1490.6,2357,1483,2355.9z M1464.3,2319.6c-5.5-1.5-4.4,4.4-6.1,7.3c-2.3,4,0.2,10.4-6.8,12.7
	c-5.2-16.2-5.6-31.6,3.4-46.5c3.2-5.3,7.3-9.8,13.7-9.1c7.2,0.7,11.8,5.6,14.2,12.4c4.8,13.6-3.7,41.9-16.2,52.3
	c-2.5-6.8-1.3-13,0-19.4C1467.2,2325.9,1469.1,2320.9,1464.3,2319.6z M1526.8,2264.1c-2.4,3.5-5,7.7-11.8,8.6
	c2.8-28.3,6.1-55.9,11.5-83.4c-12.8,19.1-21.6,39.8-30.9,60.4c-1.3,2.9-0.7,9.2-6,7.7c-3.5-1-3.3-6.4-3.2-10.1
	c0.9-20.3,4.5-40.5,3.4-61c-0.1-1.6-0.3-3.2-0.6-7.1c-12.7,12.3-13.2,27.7-17.4,41.3c-2,6.7-2.1,13.9-2.8,20.9
	c-0.6,5.1-1.9,9.8-5.7,13.4c-1.7,1.6-2.9,4.6-5.9,3.9c-3.2-0.8-2.3-4-2.5-6.3c-2.8-24.3-1.9-48.8-2.5-73.3c-0.2-6.3-0.3-12.5-4-19.7
	c-10.5,16.4-6.6,34.3-9.1,50.9c-2.4,16.6,2.3,34.1-4.5,50.4c-5.5,0.6-5.1-4.1-6.1-6.7c-18.5-49.5-27.6-99.9-13.9-152.4
	c3-11.6,9.4-21.3,17.4-29.8c13.4-14,29.5-11.4,38.8,5.6c11.3,20.7,12.5,43.7,15.3,66.3c0.2,1.6,0.5,3.2,1.2,8.2
	c9.1-11.3,15-21.2,19.7-31.7c7.2-16,18.9-27.1,34.7-34.1c16.2-7.2,32.2,0.5,36.6,17.9c5.5,21.9,3.1,43.6-3.1,65.1
	C1565.4,2204,1547.2,2234.6,1526.8,2264.1z M1423.7,2355.2c-0.4,1.9,0.1,4.3-2.3,5.3c-2.4,1-3.8-0.8-5.4-2.1
	c-12.8-10.4-20.7-38.2-15.1-53.8c2.5-6.9,6.3-12.7,14.3-14.1c7.9-1.4,10.4,5.2,14.3,9.8c10.9,13,9.5,28.6,9.2,43.9
	c-0.1,2.9-0.7,6.4-4.2,6.7c-2.7,0.2-3.7-2.9-4.9-5c-2.2-4-4.3-8-10.8-11.3C1420.1,2342.8,1425,2348.3,1423.7,2355.2z M1387.5,2370.6
	c3.7,5.3,4,11.3,5.1,19.4c-15.6-9.4-34.9-10.6-41-30.7c-4-13-0.4-24.6,9.6-29c9.2-4.1,20.4,0.5,27.2,11.6c3.8,6.1,7,12.6,10.7,19.3
	c-2.2,0.4-2.9,0.6-3.7,0.6c-3.8-0.2-6.2-7.1-11-2.3C1378.9,2364.9,1385.3,2367.4,1387.5,2370.6z M1393.6,2254.3
	c-12.3-22.1-23.7-44.8-45-62.3c0.7,9.6,4.6,16.8,7.9,24.1c7.3,16.3,13.8,32.9,18,50.4c0.8,3.4,4,8-0.3,9.9c-3.7,1.7-6.3-3.1-8.5-6
	c-14.9-19.7-34.3-34.4-55.5-47.6c10.6,19.7,21.4,39.3,31.7,59.1c3.8,7.2,11.8,16.7,6.4,22.3c-5.1,5.3-14-3.8-20.1-7.7
	c-40.6-25.6-81-51.7-94-102.7c-3.3-13-2-25.8,1.9-38.1c5-15.4,22.3-20.6,39.7-14.2c7.7,2.9,14.2,13.2,21.5,9.8
	c6.1-2.9,3.2-14.4,6.3-21.7c8.2-19.5,21.6-23.8,41.2-11.8c19.2,11.7,31.1,29.6,39.3,50.2c10.7,26.8,14,55.4,19.9,83.3
	c0.8,3.7,2.7,9.3-2.7,10.9C1395.6,2263.9,1395.4,2257.7,1393.6,2254.3z M1562.9,2059.6c-20.3-1.1-37.3,7.2-52.8,19
	c-9,6.9-12.8,3.9-14.7-5.7c-3.6-18-12.6-32.2-29.2-41.2c-16.6-8.9-31.9-6.5-45.4,6.9c-17.9,17.9-27,40.6-34.2,64
	c-2.9,9.5-5.3,12-13.2,4c-19.5-19.7-42.4-28.5-70.2-20.2c-7,2.1-7.7-2.6-8.2-7.4c-1.6-15.3-6.4-30-9.4-45
	c-7.7-39.2-28.2-72.6-48.2-106c-5.7-9.5-3.7-12.3,5.8-15.1c10.7-3.1,21.5-6.7,31.5-11.5c10.7-5.2,13.3-0.2,14.1,8.9
	c2,22.1,8.3,43,17.5,63.2c5.5,12,13.3,21.9,22.3,31.3c5.2,5.5,8.8,4.4,13-1.1c14.1-18.9,28.8-37.5,42.7-56.7
	c4.4-6,7.5-10.6,15.6-5.6c6,3.7,10.2,0,13.2-5.2c5.5-9.3,9.6-19.3,13.7-29.3c5.5-13.4,9.9-14.9,21.3-6.7
	c54.3,39,95.6,88.3,118.8,151.7c0.4,1.2,0.9,2.3,1.3,3.2C1569.1,2060.1,1565.8,2059.8,1562.9,2059.6z M1278.2,1618.2
	c-10.8-6.1-17.6-20.9-15.5-32.5c1.9-10.6,13.2-21.3,26-21.9c37.5-1.7,67.1,15.1,92,41.7c1.5,1.6,3.9,3.8,2.6,6.5
	c-1.7,3.7-5.1,2.1-7.7,1.6c-8.6-1.6-17.1-3.5-25.6-5.1c-5.1-1-10.4-1.7-16.7,0.4c7.4,8.7,17.5,9.5,25.7,13.6
	c6.4,3.2,16.6,4.5,16.3,12.4c-0.2,4.2-11.2,4-17.6,5.3c-12.1,2.5-24.9,3.1-38.5,9.5c11.1,5.9,20.4,6,29.9,6c6.7,0,13.3,0,20,0.3
	c2,0.1,4.3,0.2,5.3,2.5c1.2,3.1-1.2,4.5-3.2,5.9c-2.4,1.6-4.9,3.2-7.6,4.1c-24.8,8.2-49.4,16.9-76.1,16.9
	c-11.3,0-20.2-4.4-27.6-12.2c-15.2-15.9-10.1-33.8,11.2-39.4c8-2.1,16-4,26.5-6.6C1289.4,1623.5,1283.6,1621.2,1278.2,1618.2z
	 M1343.7,1478.3c-3.9-9.1-0.9-18.5,6.1-25.2c6.6-6.4,15-8.2,24.3-5.5c10.3,3,19.6,7.9,25.9,16.4c19.9,26.9,24.2,59.9,34.6,90.8
	c-18.8-12.7-26.8-37-51.5-45.7c8.2,16.6,17,30.4,26.1,44.2c1.8,2.8,3.7,5.5,5.5,8.3c1.9,3,1,5.8-1.1,8c-3.3,3.4-5.1-0.4-7.1-2
	c-14.8-12.1-29.5-24.4-44.2-36.5c-2.5-2.1-5.2-3.8-10.6-7.7c7.8,15.5,16.4,26.4,25.4,37.1c6.2,7.3,12.6,14.4,18.9,21.6
	c1.6,1.9,4.1,3.8,2.5,6.5c-1.6,2.6-4.6,1.9-6.7,0.6c-23.2-14.5-48.2-26.5-68.5-45.4c-10.5-9.8-14.5-22.9-15.3-37
	c-0.4-7.4,2.9-12.9,10.3-15.1c6-1.8,11.9-3.8,18.3-3.1C1345.3,1489.4,1347.5,1487.3,1343.7,1478.3z M1477.2,1597.9
	c-2,4.5-5,10.7-9.6,10c-6.5-1-4.8-8.4-5.3-11.6c-0.6-9.6,1.9-16,8.6-19.9c3.1-1.8,5.5,1.1,7.4,3.2
	C1484.2,1586,1479.8,1592,1477.2,1597.9z M1474.5,1722.9c-3.2,2.1-5.2,0.3-7.4-2c-3.6-3.8-5.3-8.2-5.2-13.5c0.4-2.8,0.5-5.8,1.4-8.5
	c1-3.3,3.4-6.7,7.1-5.4c7.3,2.8,6.3,10.8,8.6,16.6C1481.1,1715.5,1479.2,1719.8,1474.5,1722.9z M1466.7,1641.9c16.1,0,16.1,25,0,25
	C1450.6,1666.9,1450.6,1641.9,1466.7,1641.9z M1462.4,1739.7c7.7,16.6,7,33.3,9.9,51.1c6.6-7.1,6.5-14.7,7.3-21.9
	c0.8-7.5-1.8-15.6,4.3-24.6c8.8,20.4,14.6,39.3,17.7,59.3c2.7,17.2,3,33.9-3.7,50.1c-4.6,11.1-10.7,21.1-24.5,21.6
	c-14.3,0.6-18.7-10.1-22.9-20.8c-0.5-1.4-1.2-2.8-1.9-4.3c-4.9,2-5.6,6.6-7.9,9.8c-4.1,5.7-8.6,10.6-16.2,9.4
	c-7.9-1.2-13.5-6.1-16.3-13.7c-6.3-17.2-3.6-34.4,0.6-51.4c5.1-20.3,15.7-38.3,23.7-57.4c1.1-2.8,2.5-7.3,6.6-6
	c3.8,1.3,2.4,5.8,2.2,8.8c-0.8,17.3-4.2,34.5-1.3,54.5C1456.3,1784.6,1446.7,1758.8,1462.4,1739.7z M1517.2,1668.8
	c6.6,3.1,16.4,2.9,16.2,14c-0.1,3.5-2.1,6.4-6.3,6.2c-5.6-0.1-20.2-12.1-19.3-15.9C1509.1,1668.1,1513.5,1669.2,1517.2,1668.8z
	 M1508.5,1651.8c0.7-5.5,9.5-6,15.3-6.6c4.8-0.5,9.6,2.1,9.2,7.5c-0.5,6.1-6.4,6.5-11.4,7.4
	C1515.9,1659.1,1507.8,1657.8,1508.5,1651.8z M1516.1,1640c-4.8-0.4-11.3,2.2-11.2-6.9c0.1-9,8.4-17.5,17.8-16.7
	c6.4,0.5,11.4,3.5,10.8,10.9C1532.6,1637.7,1526,1641.3,1516.1,1640z M1508.7,1597c-1,7.7-4.5,13.5-12.6,14.6
	c-3.7,0.5-6.8-2.6-5.4-6.3c2.6-7.1,3.7-16.4,12.9-17.8C1508.3,1586.8,1508.9,1592.7,1508.7,1597z M1499.4,1686.7
	c8.2,0.7,13.8,8.1,14.7,16.1c0.9,7.9-5.4,13.9-12.7,13.8c-8.9-0.1-10.2-9.2-12.3-14C1488.5,1692.9,1491.7,1686.1,1499.4,1686.7z
	 M1334.8,1827.2c-9.5-4.9-10.6-14.2-10-23.8c0.2-2.9-0.2-5.8,0.1-8.7c0.8-9.1-0.4-13.9-12.2-11c-15.8,4-27-6.3-27.7-23.4
	c-1.1-29,15.5-47.3,38.8-60.5c17.6-10,37.4-13.2,57.5-14.2c2.3-0.1,5.5-1.3,6.8,1.5c1.5,3.4-1.5,5.3-3.8,7
	c-10.3,7.8-20.7,15.4-30.9,23.2c-5.6,4.3-10.5,9.3-13.9,16.9c15.6-3,28.9-9.4,42.1-16.3c4.9-2.5,11.5-8.5,15.7-4
	c5.3,5.7-2.6,11.1-5.6,15.8c-7.2,10.9-19.3,18-25.4,32.4c14.9-8.4,28-15.9,38.2-27.7c2.6-3.1,6.1-8.2,9.6-6.3
	c5.3,2.9,0.5,8.3-0.6,12.1c-9,32.6-25.7,60.2-54,79.8C1352.3,1825.1,1344.9,1832.4,1334.8,1827.2z M1356.1,1858.5
	c-3,32.4-9.6,63.9-22.9,93.8C1323.8,1916.6,1336.8,1886.7,1356.1,1858.5z M1418,1648.1c5,0.2,10,1.5,10.7,8
	c0.4,5.2-3.7,8.4-5.8,12.2c-2.5,4.6-7.3,7.6-7.1,13.9c0.1,3.3-2.9,4.9-6.1,4.7c-3.8-0.2-4.6-2.9-4.7-6.1c-0.3-8.5,0.1-17.1-3.7-25.1
	c-0.3-0.7-0.5-1.9-0.1-2.3C1405.4,1647.6,1411.9,1647.9,1418,1648.1z M1402.5,1622.2c-0.3-8.4,4.9-11.6,12.7-11.3
	c9.8-0.4,17.5,6.3,18,13.4c0.4,6.4-9.1,10.6-16.9,10.5C1408.4,1634.7,1402.8,1630.7,1402.5,1622.2z M1453.7,1690.6
	c-1.8,7.5-2.9,18.1-14.3,19.3c-7.9,0.8-10.3-5.2-10.2-11c0.1-8.2,3.9-14.9,12.7-18.2C1446.5,1683.6,1455.2,1684.5,1453.7,1690.6z
	 M1441.6,1609.8c-4.8,0.4-14.1-11.7-13.4-17.4c0.7-5.5,4.8-7.4,9.7-7.6c6.7-0.3,8.5,2.9,8.5,15
	C1445.3,1603,1449.1,1609.2,1441.6,1609.8z M1265.4,1799.5c-1.6,5.5-3.8,10.9-6.6,16c-6.1,11.4-12.1,23-22.2,31.9
	c2.7-18.7,10.3-35.4,18.3-51.9c1.3-2.7,3.9-6.5,7.5-4.9C1265.4,1792,1266.4,1796.4,1265.4,1799.5z M1260.6,1739.7
	c-21.4-1.9-43.4,4.1-65.4-5.3C1210.5,1724.1,1245.8,1726.5,1260.6,1739.7z M1240.9,1772.1c3.4-1,8.2-4,10.3-0.7
	c2.9,4.4-2.2,7.8-5.2,9.8c-29.8,19.7-60.1,38.3-96.9,51.9c1.9-4.4,2-6.4,3-7.2C1179.8,1804.8,1206.3,1781.7,1240.9,1772.1z
	 M1503.7,1749.7c-0.6-3.9-3.5-8.9,1.1-11.1c4.2-2.2,7.8,2.2,10.4,5.3c8.4,9.6,14.4,21.3,25.8,28.2c2.1,1.2,3.8,3.3,7.9,1.3
	c-7-12.2-14-24.2-20.6-36.4c-2-3.7-7.3-8.5-3.4-11.9c4.9-4.3,9,2.1,12.4,5c10.3,9,21,17.4,35.9,26.9c-4.5-12.7-11.8-19.6-18-27.2
	c-4.6-5.6-15-11.4-10.7-17.5c4.1-5.8,15-0.8,21.7,2.6c16.6,8.5,33.2,17.2,46.3,31.1c10.4,11,16.4,23.8,18.1,38.7
	c2.3,19.7-11,32.2-30.4,27.4c-7.5-1.8-9.1,0.8-10.4,6.8c-8.7,40-26.7,33.4-50.8,13.2c-4.6-3.9-8.7-9.3-11.1-14.9
	C1518.4,1795.3,1507.5,1773.8,1503.7,1749.7z M1544.1,1464.1c0,10.3-2,20-6.4,28.9c-9.9,20.1-20.6,39.8-31.1,59.6
	c-1.4,2.6-2.6,7.4-6.8,5.8c-4-1.5-2.3-5.9-1.6-8.8c3.3-14.3,2.7-28.8,3.8-43.3c0.2-3.1,1.1-7.4-3.3-8.3c-4.5-0.9-5.4,3.5-6.2,6.4
	c-3.2,11.1-5.8,22.4-8.7,33.7c-1.2,4.7-2.3,9.5-7,14.1c-6.5-14.8-5.1-29.3-5.9-43.5c-0.1-2.4,0.4-4.9,0.7-7.3
	c0.6-6.1-5.2-6.7-8.2-7.4c-4.4-0.9-4.3,4.1-4.3,7.2c-0.2,15-0.1,29.9-0.2,44.9c0,2.4-0.4,4.9-0.6,7.1c-3.2,1.1-4.7-0.7-5.3-2.5
	c-9.3-27.5-22.6-53.6-29.4-82c-2.9-12.1-1.8-24.1,2.1-35.6c2.5-7.7,7.4-15,15.8-16.2c8.6-1.2,14.6,5,19.2,11.6
	c8.5,12.2,9.9,27,14,42.6c8.5-9.9,14.7-20.1,23.8-27.7c9.3-7.7,19.1-9.9,30-5.3C1540,1442.9,1544.1,1451.9,1544.1,1464.1z
	 M1503.5,1394.7c-0.3,13.8-9.8,23-17.8,34.9c-5.4-8.7-7.4-17.6-15-23.7c-23.1-18.5-48.2-13.8-61.9,12.6c-1.5,2.9-2.6,6.1-3.8,9.2
	c-1.4,3.4-1.6,8.5-5.5,9.2c-4.6,0.8-5-4.9-6.5-7.9c-3.6-7-9.5-8.8-16.5-8.8c-9,0-7.9-4.5-3.5-9c8.9-8.8,17.4-17.8,23.5-28.8
	c1.3-2.4,3.4-3.4,6.2-3.5c34.1-1.2,61.9-16.3,86.2-39.2c2.8-2.7,5.6-7.8,10.1-5.9c4.3,1.7,2.6,7.3,3.3,11.2
	C1505.3,1361.5,1503.8,1378.1,1503.5,1394.7z M1480.3,1319.3c-14.1,18.3-32.4,30.4-54.8,36.2c-7.1,1.8-14.1,3.8-24.6,6.6
	c17-19.4,30.4-37.2,50.5-48.2c7.5-4.1,15.5-5.5,23.9-5.3C1484.3,1308.9,1485.5,1312.7,1480.3,1319.3z M1424.3,1307.4
	c-4.4,9.7-12,18-20.1,25.2c-3.5,3.1-7.5,9.4-12.2,5.9c-4.8-3.5,0-8.9,2.1-13.3c3.2-6.9,8.2-13.2,9.1-22.8
	c-12.1,8-16.3,21.9-29.4,27.4c-2.5-7.9,0.8-14.4,3.1-20.7c3.8-10.5,9.7-20.5,11.9-31.3c2.9-13.9,12.1-21.4,22.5-28.4
	c10.6-7.1,16.9-4.6,20.4,7.5C1436.9,1274.8,1431.5,1291.6,1424.3,1307.4z M1375.8,1376.2c-2.5,5.9-1.1,15.7-11.7,17
	c-5.3,0.7-16.6-13.8-16.8-20.4c-0.3-9.6,5.2-14.7,13.8-16.2C1367.9,1355.4,1375.7,1365.8,1375.8,1376.2z M1356,1325
	c-6.8-16.4-1.9-34.1-8.5-53c-2.3,15.8-4.1,28.6-6,41.5c-0.4,2.8,0.3,6.7-3.3,7.3c-4.3,0.8-5.1-3.7-6-6.5c-9.1-27.5-7-54.1,8.5-78.7
	c7.3-11.5,18.9-10.1,25.6,1.9c1.4,2.5,2.5,5.3,3.3,8C1375.3,1263.3,1367.9,1308,1356,1325z M756.8,1406.9
	c-3-10.7,6.3-14.6,12.3-19.3c6-4.7,11,1.2,14.3,5.5c4.5,6.1,7.7,13.1,12.3,21.1c-10.6-2.3-18.2-2.8-14.8,10.7c1,3.9-2.9,7.3-8.3,3.3
	C765,1422.8,759.4,1416,756.8,1406.9z M770.3,1446c-1.9,7.8-11,6.3-15.8,8.7c-12.2,0.3-21.8-6.5-20.9-14.6
	c0.8-6.9,4.1-12.9,12.1-13.7C754.4,1425.6,772,1439,770.3,1446z M785.9,1491.4c6.1,2.5,7.3,10.5,7.8,17.3c0.4,4.4-1.5,8.1-3.4,11.7
	c-4.1,7.8-9.1,14.8-19.3,10.5c-8.1-3.5-10.3-14.9-5.3-24c1.4-2.5,3.2-4.8,5.1-7C774.9,1495.1,780.2,1489.1,785.9,1491.4z
	 M779.7,1560.9c1.1-2.1,1.1-5.3,4.5-5.1c3.3,0.2,2.9,3.6,4,5.6c5.5,10.1,3.8,21.1,4,31.8c0.2,9.5-1.4,19.2,4.3,29.9
	c6.8-16.2,8.2-32.1,13.1-47c1.2-3.6,0.8-9.6,6.3-9.5c6.3,0.2,5.3,6.4,6,10.5c2.3,12.9,4.2,25.9,6.4,39.9
	c15.7-12.7,8.6-28.4,8.7-42.5c0.1-8-6-20,2.5-22.4c7.5-2,11.5,10.7,14.5,18.5c4.2,11.2,10.2,21.4,16.6,34.4
	c4.3-12.7,1.1-22.2-1.1-31.6c-1.8-7.7-5.1-15-3.6-23.2c0.5-2.8-0.1-6.6,3.2-7.5c3.2-0.8,5.1,2.3,6.9,4.5
	c24.7,28.5,38.1,60.1,27.7,98.6c-2.5,9.2-4.5,18.4-10.3,26.4c-12.5,17.4-30.9,17.2-42.4-0.7c-1.5-2.4-2.6-5.2-4.1-7.6
	c-1.4-2.3-1.2-6.7-5.2-5.7c-1.8,0.4-3.4,3.4-4.4,5.5c-4.8,10.2-9.3,20.3-18.1,28.1c-12.8,11.3-24.6,11-37.3-0.4
	c-22.3-19.9-23.2-46-20.8-72.5C763.2,1598.4,769.9,1579,779.7,1560.9z M862.6,1245c5.1,1.5,8.1-6,11.8-9.7
	c5.2-5.3,9.7-11.5,14.9-16.8c6.6-6.7,15.1-9,24.1-6.5c9,2.4,11.5,10.4,12.4,18.4c4.4,36.6-0.7,71.3-22.8,102
	c-6.8,9.4-13.1,19.3-22,27c-1.9,1.6-3.8,4.1-6.4,2.6c-2.3-1.4-2.2-4.7-1.3-6.9c2.6-7,5.7-13.8,8.6-20.6c3.9-9.2,5.9-18.8,4.7-30.5
	c-10.6,15.3-17.1,31.1-30.9,46.1c1.9-23.2,8.1-42.6,6.6-66.1c-12.5,16-16.6,32-22.3,47.2c-2,5.5-1.4,15.9-7.6,14.9
	c-7.4-1.2-4.2-11.2-4.6-17.5c-0.9-15.1,1.4-30.4-2.7-45.6c-4.6,11.1-7.1,22.6-8.4,34.3c-0.4,3.5,0,8.6-4.7,8.8
	c-3.6,0.2-4.9-4.6-5.4-7.6c-6.6-34.1-7.9-67.7,11.9-98.7c3.4-5.3,7.7-9.9,13.4-12.8c12.6-6.4,24.8-0.4,27.2,13.5
	c0.5,3.3-0.1,6.7,0.5,9.9C860.5,1235.6,856.6,1243.2,862.6,1245z M1024.9,1365.1c19.1,11.6,22.6,25.6,8.9,43.5
	c-14.5,18.9-35.1,29-58,33.9c-17.3,3.6-34.8,1.9-52.1,0.1c-3.5-0.4-8.5-0.6-9.1-4.6c-0.3-2.1,3.4-5.6,6-7.2
	c11.9-7.5,24.2-14.6,36.3-21.9c4.4-2.6,8.7-5.6,12.4-9.7c-21.8-0.8-40.8,11.1-63.7,13.7c10.2-19.2,27.3-30.3,38.1-48.5
	c-14,1.6-22.6,10.5-32.9,15.7c-6.3,3.2-12.1,7.3-18.1,11c-1.9,1.2-4,2-5.7,0.5c-2.2-2-1.5-4.5,0-6.8c24-38.9,55.6-68.1,101.5-78.3
	c15.3-3.4,23.5,5.6,20.3,21.2c-2,9.9-7.5,18.2-13.8,27.2C1005.8,1357.7,1016,1359.6,1024.9,1365.1z M836.6,1484.7
	c9.9-3.4,31,13.5,30,24.8c-1.8,6.4-4.8,14.1-12.3,16.5c-6.5,2-11.1-3.9-15.4-8.6c-6.8-7.4-5.9-17-7.9-25.7
	C829.9,1487.2,833.7,1485.7,836.6,1484.7z M825.1,1396.7c-1-0.4-2.8,1.5-4.3,2.2c-11.8,5.3-15.3,2.9-15.3-10.4
	c-0.4-8.3,3.5-14.4,10.3-18.5c5.5-3.3,10.3-0.3,14.9,2.8c6.1,4.2,4.6,10.4,3.3,15.8C833,1392.4,833.6,1400,825.1,1396.7z
	 M837.2,1408.2c0.1-10.7,10.3-26.2,17.8-25.5c8.6,0.8,9.8,7.5,9.7,14.6c-0.1,12.4-7.7,22.9-16.3,22.4
	C841.1,1419.3,837.1,1416,837.2,1408.2z M842.9,1462.3c12.1-1.7,22.2-4.7,32.5-3.2c8,1.2,13.2,4.8,10.4,14.3
	c-2.6,8.8-7.1,14-17.1,10.2C858.5,1479.8,850.6,1472.9,842.9,1462.3z M878.8,1445.4c-4,0.9-8.1,1.3-11.3,1.9
	c-4.2-0.3-8,0.4-10.7-0.9c-4.4-2.2-9.3-6-3.4-11.1c5.2-4.5,11.3-8.3,17.3-11.8c8.6-5,16.3-2.2,19.4,6.3
	C893.2,1438.4,887.1,1443.5,878.8,1445.4z M810.4,1437.8c16.1,0,16.1,25,0,25C794.3,1462.8,794.3,1437.8,810.4,1437.8z
	 M824.5,1522.6c-0.7,8.5-1.8,17.4-13.4,17.1c-7.6-0.2-13.4-10.7-12.2-20.3c1.4-11.5,7.2-20.4,16.3-28.6
	C820.7,1501.1,825.5,1511,824.5,1522.6z M805.8,1790.7c1.9-4.3,6-2.9,9.8-3c12.5-0.4,13.8-10.2,14.7-19.4c1.4-14,1.3-28.2,3.3-42.1
	c1.4-9.6,3.5-24,14-23.5c11,0.4,8.3,14.8,9.5,23.9c3.6,28,12.5,54.2,28.2,77.7c6.4,9.6,11.7,9,17.4-1.3c9.3-16.9,8.8-34.2,0.8-51.2
	c-9.2-19.7-5.4-44,12.4-61.3c-1.4,17.6-3.3,32.3-3.5,47.2c-0.7,34,5.9,66.1,28.3,93.2c5.4,6.5,2.6,9.8-4.6,12.3
	c-38.4,13-103.3-8.9-126.2-42.7C807.6,1797.5,803.9,1794.8,805.8,1790.7z M908,1556.4c-6.5-9-11.3-19.3-16.8-29.1
	c-1.2-2.1-3.6-4.4-1.7-6.7c2.6-3.2,5.4-0.3,7.7,1c14.2,7.7,27.6,17,43.3,21.9c4.3,1.3,8.6,2.7,12.8,4c-9.8-14-24.6-20.8-35.9-31.8
	c-3.7-3.6-10.6-6.7-7.8-12.8c3-6.2,9.9-4.1,15.7-3.3c11.4,1.5,22.1,7.7,34.1,6.1c2.7-0.4,6.4,0.8,7.2-3.2c0.7-3.6-2.6-5.1-5.1-6.2
	c-14.4-6.3-28.9-12.4-43.5-18.5c-3.4-1.4-8.2-1.9-7.6-6.6c0.4-3.6,5.2-3.9,8.1-4.5c34-7.2,66.9-3,98.6,10.9
	c11,4.9,18.9,13.6,23.2,25c7.1,18.9-1.1,36.3-20.7,42.4c-8.2,2.6-10.2,5.1-6.8,13.5c3.4,8.5,2.6,18.1,0.2,27
	c-4.2,15.8-23.6,23.7-43.4,17.4C943.8,1594.6,923.6,1578.2,908,1556.4z M1006.1,1796.5c-22.9-33.7-47.6-64.8-58-105
	C973.9,1698.3,1016.5,1774.3,1006.1,1796.5z M1057.8,1480.9c2.6-8.7,9.1-10.1,14.4-12.8c8.1-4.2,16.1-8.4,23.2-14.2
	c2.2-1.8,5.3-3.7,7.8-1c2.5,2.7,0.1,5.4-1.8,7.6C1090.3,1473.3,1076.1,1479.7,1057.8,1480.9z M1020.5,1024.8
	c-14.3-11.2-25.9-24.8-31.8-42.4c-3.2-9.6-5.6-19.8-4.6-30.5c0.6-6.5,0.8-8.9,7.4-4.3c11,7.6,21.1,14.2,21.9,30.4
	c0.8,15,6.5,29.7,10,44.5C1022.4,1023.3,1021.5,1024,1020.5,1024.8z M963.9,897.8c-2-3.3-3.6-6.4-3.5-10.3c0.1-4.5,1.9-6.6,6.1-3.9
	c16.3,10.5,33.2,20.7,34.4,47.1C988.1,917,972.4,911.8,963.9,897.8z M946.3,812.8c16.1,14.6,28,29.2,31.9,49.1
	C959.3,851.9,948.4,836.7,946.3,812.8z M930.7,1038.1c4.4,0.7,8.8,1.2,14.5,1.9c-9-7.5-19.6-10.1-26.7-17.9
	c-2.6-2.8-7.3-5.9-3.4-10.4c3.4-3.8,6.7,0,9.9,1.6c10.9,5.4,20.1,13.3,29.6,20.6c4.9,3.8,9.1,7.5-1.5,9.9
	c-12.1,2.7-24.1,6.1-35.8,10.2c-22.3,7.6-36,26.1-52,41.7c-3.2,3.1-5.6,7.3-12.5,9c9.1-25.8,29.1-40.2,48.2-56.9
	c-21.3-7.5-42-6.7-62.7-8.3c11.2-9.6,24.4-11.6,38.3-9.7C894.7,1032.2,912.7,1035.3,930.7,1038.1z M810.7,1103
	c3,8.5-1.3,15.1-1.2,22.1c0.1,11.1,5,16.2,15.7,16.3c53.3,0.4,102.9-10.6,144.2-48.1c2.9,5-1.1,7.5-2.8,10
	c-17,25.5-36.9,49.4-43.5,80.5c-0.7,3.1-2.1,6.3-6.9,5c-13.2-3.4-24.5,1.9-35.4,8.3c-5.3,3.1-7.8,3-11.3-3.4
	c-8.1-15.2-21.7-19.2-38.1-13.1c-24.5,9.1-34.5,29.7-41.4,52.6c-1.3,4.3-0.9,10.5-5.4,11.6c-5.3,1.4-6.6-5.2-9.5-8.5
	c-12.3-14.4-25.7-26.1-46.7-23.5c-7.1,0.9-7.9-3.2-5-8.4C745.3,1165,769.5,1127.6,810.7,1103z M733.9,1480.9
	c1.2-6.7,6-10.9,12.7-11.9c4.5-0.6,9.1-0.1,13.6-0.1v-0.5c3.3,0,6.6,0.1,9.9,0c2.6-0.1,5.1,0.1,6,3c0.8,2.5-1.4,3.5-2.8,5
	c-5.9,6.1-7.2,15.6-16,19.8c-5.4,2.6-10.6,6.4-15.9,2.2C736.1,1494.2,732.6,1488,733.9,1480.9z M777.2,1781.7
	c-9.7-22.7-15.3-44.8-21.5-67.3C770.8,1717.5,783.8,1757.5,777.2,1781.7z M759.7,2215c3.3-11.1,10.1-19.1,18.5-25.9
	c11.5-9.3,23.1-7.9,35.4,4.5c6.9,7,10.1,6.4,13.4-2.7c2.4-6.6,5.7-12.9,9.5-18.9c12.5-20.1,34.6-19.6,46.9,0.7
	c6.5,10.8,8.4,22.9,8,34.8c-1.3,34.7-10.2,68-19.9,101.1c-0.4,1.4-1.9,2.5-4,5.2c-7.3-15.1-3.8-29.5-4-43.4c-0.2-14,0-28.1-1.2-42.3
	c-9.2,16.6-11.5,34.8-14.9,52.6c-1.2,6.4-0.8,16.7-7,16.7c-6.4,0-5.4-10.6-7.3-16.7c-3.9-12.5-5.8-25.7-14.3-39.3
	c-4.2,16.7,0.6,30.7,1.6,44.7c0.5,7.4,2.9,14.7,3.8,22c0.6,4.7,3,11.8-1.8,13.6c-5.6,2.1-7.4-5.2-9.5-9.3
	c-4.1-8.1-7.6-16.6-11.4-24.9c-1.3-2.8-1.2-7.6-6.1-6.1c-5.5,1.6-2.7,6-2.1,9.4c1.7,8.5,3.7,17,5.2,25.6c0.6,3.3,0.4,7.3-2.6,9.1
	c-3.7,2.1-6.4-1.5-8.1-3.9C766,2289.4,747.4,2256.5,759.7,2215z M984.4,2234.1c5.9,4.9,12.9-2.9,19.8-3.8
	c22.9-3.2,31.5,6.9,25.3,29.8c-12.3,45.3-43.1,74.7-82.7,96.4c-2.6,1.4-6,4.5-8.7,0.1c-1.9-3.2-3.1-6.9,0-10.4
	c6.4-7.2,12.6-14.4,19-21.5c5.8-6.4,12-12.5,13.7-23.8c-15.8,11-30,20.9-44.1,30.8c-3,2.1-5.7,5.5-9.8,2.3c-5-3.8,0-6.8,1.3-9.4
	c6.4-13.1,13.3-25.8,19.9-38.8c2-3.9,5.7-7.5,2.8-14.1c-20.8,13.7-28.2,38.5-48.4,53c-2-6.5-1-11.4,0.4-15.9
	c8.1-24.9,15.4-50,25.2-74.2c7.6-18.9,23.4-31,43-37.1c12-3.7,20.1,2.6,21,15.2C982.7,2220,978.5,2229.2,984.4,2234.1z
	 M911.3,2446.6c-2.3,0-4,0.2-5.6,0c-8-0.9-19.8,0-21-8.5c-1.1-7.6,9.5-12.5,16.9-16.1c6.3-3.1,13.4-4.1,20.4-4.9
	c6.9-0.7,14.1-1.1,16.6,7c2.3,7.5-2.1,13.7-7.7,18.4C925,2447.3,917.8,2447.1,911.3,2446.6z M924.6,2485.9c-2.4,4.4-4.3,9.5-9.7,8
	c-12.9,0.1-33.9-20.1-34.6-31.8c-0.2-3.9,1.8-4,4.5-3.8c14.7,0.9,27,7.6,38.3,16.3C926.9,2477.6,926.8,2481.8,924.6,2485.9z
	 M897.1,2370.9c8.9-5.3,17-1.2,22.3,6.7c5.3,7.9,4.3,15.8-4.3,21.3c-8.1,5.1-17,8.4-25.5,10c-11.2,0.4-16.6-7.9-11.7-17.4
	C882.3,2382.9,889,2375.7,897.1,2370.9z M809.8,2417.8c-8.1,3.3-6.3,15.8-14.7,16.2c-15.1,0.7-29.7-11.5-29.4-22.7
	c0.2-9.7,6.8-16.4,16.3-16.5C788,2394.7,811.9,2417,809.8,2417.8z M779.7,2442.5c7,1.8,15.1,3.5,23,5.8c5.3,1.6,4.9,4.5,1,8
	c-6.2,5.6-12.3,10.8-20.6,13.5c-7,2.3-13.1,2.6-18-3.5c-3.8-4.7-6.4-10.3-3.5-16.1C764.9,2443.2,771.8,2442.5,779.7,2442.5z
	 M782.3,2488.3c6.1-12.7,19.8-15.9,30.7-22.1c4.3-2.4,4.4,6.8,6.2,10.1c-1.9,13-4.6,24.7-16.2,31.7c-5.9,3.6-12.3,6-18.2-0.1
	C779.3,2502.1,779,2495.2,782.3,2488.3z M805.9,2389.8c-4.7-6.4-7-14.2-7.7-22c-1.3-13.4,8.2-20,20.8-14.8
	c9.1,3.8,14.9,14.5,14.7,26.8c-0.1,1.3,0.1,2.6-0.3,3.7c-2.2,5.4,2.2,14.4-5.8,16.1C818.9,2401.5,811.1,2397,805.9,2389.8z
	 M839.8,2474.9c3.4-2.6,5.2-2.5,7.4,1.8c4.8,9.8,7.3,20,7.4,30.8c-0.1,7.9,0.4,16.2-8.6,20.2c-5.9,2.6-11.3,1.3-16.1-2.9
	c-1.9-1.6-3.5-3.3-4.2-5.9C823.6,2510.8,833.5,2479.8,839.8,2474.9z M848.9,2391c-4.8-0.8-3.2-5.1-3.4-8.1
	c-0.6-6.6-0.8-13.2-1.4-22.1c0.3-1.8,0.4-6.1,1.8-9.9c2.8-7.8,6.7-14.8,17-12.3c9.7,2.3,12.5,9.7,11.2,18.1
	c-1.8,12.2-9,22.1-16.2,31.8C855.7,2391.6,852,2391.6,848.9,2391z M956,2473.7c-5.1-2.8-3.5-5.2,1.3-7.6c10.2-5.2,21.1-4.1,31.8-4
	c9.2,0.1,18.2-0.3,30.1-4.1c-18.1-5.5-33.2-9.9-48.1-14.7c-2.7-0.9-7.6-0.6-7.4-4.9c0.1-3.7,3.9-5.3,7.1-6.1
	c10-2.5,20.2-4.6,30.3-6.9c4.9-1.1,9.5-2.9,14.3-7.8c-11.9-4.3-23-5.3-34.4-5.4c-5.6,0-14.4,2.5-15.8-2.9c-1.7-6.5,7-9.1,12.2-12
	c9.6-5.5,20.5-8.6,30-16.6c-5.8-2.2-10.4-1.5-15.1,0.2c-7.8,2.8-15.6,5.9-23.7,7.6c-4.9,1.1-11.8,6.3-14.7,0.9
	c-2.3-4.1,2.4-11.8,6.5-14.7c27.5-19.6,55.6-38.9,92-34.3c12.7,1.6,24.2,8,29,20.8c4.4,11.7-3.2,20.6-10.1,29
	c-1.9,2.2-3.7,4.5-5.8,6.5c-3.4,3.2-4.7,6,0.8,8.2c15.5,6.1,25.3,15.2,24.8,34.2c-0.7,24.8-12.4,41.7-34.2,49.9
	C1021,2502.7,987.7,2491.3,956,2473.7z M1045.4,2312.3c-9-0.6-9.2-3-5.2-9.2c7.5-11.7,11.1-24.9,15.3-37.9c4-12.4,1.1-24-2.9-35.2
	c-6.5-17.8-20.3-25.6-41.6-24.1c-5.1,0.4-7.4-0.5-9.5-5c-14.3-28.9-34.4-36.2-63.6-23.3c-16.7,7.4-16.8,7.4-25-8.8
	c-11.2-22-29.5-33-53.8-34.2c-4.6-0.2-8.4,0.5-6.5-6.5c16.2-58.3,28.4-118.1,64.7-168.7c33.5-46.7,80.6-72,135.8-71.3
	c1.5,0.1,6.1,0.1,10.6,0.8c16.9,2.2,16.9,2.3,13.9,18.8c-0.9,5.2-0.6,10.1,3.9,13.6c4.5,3.4,8.8,1,12.8-1.1
	c5.2-2.7,10.1-5.9,15.2-8.6c30.6-16.2,39.5-18,70.5,10.7c31.8,29.4,49.4,67.3,61.6,108c6.2,20.7,9.7,41.9,13.2,63.2
	c1.1,6.6,0.5,9.8-6.8,11.4c-28.2,6.3-37.6,27.9-41,53.1c-2.2,16-2.2,32.5,2.7,48.2c2.5,8.2-1.6,8.5-7.3,7.9c-12-1.3-23.7-1.3-35.6,2
	c-35.2,9.7-51.8,36.7-37.8,70.2c8.9,21.2,5.5,34.5-12.1,46.5c-1,0.7-1.9,1.7-2.6,2.6c-5.4,7.6-9.7,8.7-16.8,0.6
	C1083.9,2320.7,1065.4,2313.7,1045.4,2312.3z M1333.3,2395c5-5.9,11-8.4,18.8-6.8c10.7,2.1,20.4,6.8,30.3,10.9
	c2.6,1.1,6.2,2.4,6.1,5.6c-0.1,4.1-4.5,4.2-7.5,5.3c-6.8,2.6-14.8,2-20.4,8.9c7-1.9,13.9-0.4,20.7,0.2c2,0.2,4.9,2.4,5.6,4.3
	c1.2,3.4-2.6,3.7-4.6,4.3c-10.2,3.3-20.4,7-31.4,6.4c-10.4-0.6-16.3-7.4-20.4-15.9C1326.4,2409.9,1327.2,2402,1333.3,2395z
	 M1358.1,2458.2c10-10.8,24.2-14,36.8-20.1c2.2-1.1,5.1-0.7,6.6,1.9c1.3,2.4,0.3,5.1-1.1,7c-4.5,6.4-9.4,12.5-16.1,21.3
	c10.7-3.2,16.5-10,24.9-11.4c-2,16-18.7,35.2-31.9,37.1c-9.3,1.3-17.7,0.1-22.1-9.5C1350.8,2475.4,1350.4,2466.4,1358.1,2458.2z
	 M1402.5,2505.8c2-16.9,6.3-33.1,22.4-44.4c3.2,10.8-3.8,20.4,0.8,32.1c2.2-11.4,4.9-19.7,10.6-26.5c1.7-2,4.2-4.5,7.5-3.2
	c2.7,1.1,2.4,4.1,2.5,6.5c0.6,14.6-0.1,29.1-5,43c-4.4,12.5-12.1,17.4-23.4,15.4C1406.8,2526.9,1400.9,2519.2,1402.5,2505.8z
	 M1452.4,2380.6c33.8,0,33.8,52.5,0,52.5C1418.6,2433.1,1418.7,2380.6,1452.4,2380.6z M1459.4,2471.2c2.9-4.8,4.9-5.4,7.4,0
	c1.9,4,4.1,7.8,6.3,11.9c2.3-2.4,0.8-4.3,0.4-6.2c-0.5-2.1-0.9-4.3,1.2-5.6c2.2-1.2,4,0.3,5.2,2c9.9,12.9,16.5,27,13.4,43.8
	c-1.1,6.4-5.6,10.5-11.8,11.3c-7.3,0.9-14.1-1.3-19-7C1454.5,2512,1452.9,2482.2,1459.4,2471.2z M1484.3,2454.4
	c5.6,2.7,8.9,4.3,12.2,5.9c1.4,0.6,3.5,2.6,4.2,0.9c5.8-12.6,12.2-3,17.4,0c6.4,3.7,12.4,8.1,17.4,13.9c9.3,10.8,9.4,18.9-0.2,27.8
	c-6.9,6.3-21.2,5.2-28-3.2C1497,2487.1,1489.3,2473.1,1484.3,2454.4z M1540.5,2455.6c-13.7-4.9-26.2-11.8-37.7-25
	c8.4-0.5,14.4-0.8,20.5-1.2c-0.2-1.5,0-2.3-0.4-3c-2-3.8-10.1-3.7-7.9-9.3c1.5-3.9,7.5-1.6,11.4-2.4c6.6-1.4,13.3-1.1,19.6,0.9
	c7.9,2.5,13.9,7.3,15.5,16.1c1.6,9-3.4,15.9-8.2,22.4C1550.5,2457.9,1545,2457.2,1540.5,2455.6z M1554.1,2394.1
	c-16.3,5.9-32.9,7.7-50.3,0.9c4-6.9,10.5-6.8,15.5-9.5c4.5-2.4,9.5-4.2,16-7c-9.1-3.4-15.9-2.5-22.8-2.2c-2.3,0.1-5.3,0.8-6.3-2.3
	c-0.8-2.4,1.3-3.7,2.8-5c12.1-9.8,24.4-18.4,41.6-13.9c10.7,2.8,16.9,8.9,17.8,19.5C1569.3,2384.7,1562.9,2390.9,1554.1,2394.1z
	 M1664,1764.2c12.1,11.6,17.9,25,20.9,48C1673.3,1809,1661,1780.8,1664,1764.2z M1709.1,1739.7c2.7-2.5,5.4,0.3,7.7,1.8
	c12.8,8.4,21.7,20,26.3,35c-13-7.5-24.4-16.7-32.7-29.2C1709,1745.2,1706.2,1742.3,1709.1,1739.7z M1760.8,1836.8
	c-29.8-12.5-77.4-69.8-74.9-91.1C1712.9,1774.9,1739.1,1803.1,1760.8,1836.8z M1677.8,1672.4c-6.1,5.1-9.5,8.7-3.3,17.1
	c10.9,14.8,3.5,34.4-14.3,39.7c-19.6,5.9-38.5,5-55.9-7.2c-14.2-10-28.8-19.5-43.1-29.5c-3.2-2.3-8-4.7-5.2-9.8
	c2.3-4.3,6.8-1.7,10.1-1.1c14.9,2.5,30,4.5,45,8.2c-11.3-17.4-36.1-14.6-48.8-32.5c20.5-3.2,39-6.8,58.1-8
	c-16.9-10.7-35.9-10.9-55-11c-1.8-2.8,0.6-4.6,2.4-6c24.3-19.2,81.2-22.3,106.8-5.8C1695.8,1640,1697,1656.6,1677.8,1672.4z
	 M1804.2,1478c-9.7,18.5-28.6,16.1-45,19.3c9.9-12.6,21.6-22.4,34.6-30.5c4.1-2.5,9.2-5.2,13.6-0.4
	C1812.2,1471.5,1806,1474.6,1804.2,1478z M1815.1,1420.1c-11.9,26.8-39.7,37-59.6,55.4C1771.9,1453.3,1787.8,1430.7,1815.1,1420.1z
	 M1728.2,1488.6c4.6-7.6,5.9-16.3,9.8-24c1.3-2.5,0.5-8,5.3-6.9c4.1,1,2.1,5.6,2.6,8.8c-0.6,9.5-3.6,18.5-8.3,26.8
	c-1.4,2.5-3.6,6.2-6.2,4.8C1728.3,1496.6,1725.9,1492.3,1728.2,1488.6z M1767.8,1519.3c-17.9,18-39.9,24.1-61.5,35.5
	C1715.5,1526.7,1734.2,1516.1,1767.8,1519.3z M1702.3,1482.6c1.4-2.5,2.8-6,6-5.4c4.6,0.9,2.1,5.4,3.2,9.1
	c-2.9,15.1-11.4,28.2-20.1,41.1c-1,1.5-2.4,2.2-4.1,1c-1.8-1.3-2.6-3.2-2.2-5.4c1.5-7.6,2.4-15.4,6.8-22.3
	C1695.5,1494.8,1698.8,1488.7,1702.3,1482.6z M1491.4,1130.8c4.3-9.6,0.3-22,4.2-33.7c26.9,13.7,50.3,31.4,71.1,52.3
	c55.3,55.6,94.4,120.9,112.9,197.5c9,37.2,16.7,74.9-1.1,112.1c-4,8.4-8.3,16.7-14.3,24.7c0.7-12.5,1.2-24.5-2-36.2
	c-0.7-2.8-0.3-6.9-2.1-8.2c-12.9-9.6-5.4-19.7-1.7-30.2c6.5-18.9,3.9-37.8-1.7-56.3c-4-13.2-7.9-14.4-19.6-7.2
	c-2.4,1.5-3.8,4.6-9.2,4c4.3-25.8,0.6-50.6-7.3-74.8c-1.9-6-3.2-13.6-11.3-14.7c-7.8-1.1-13,3.5-17.9,9.2
	c-9.3,10.8-16.6,22.8-24.6,34.5c-2.8,4.1-5.3,8.4-8.6,12.2c-3.8,4.4-8.1,9.7-14.4,8.5c-6.1-1.1-4.9-8.2-6.2-12.5
	c-10.9-37.8-17.7-77.2-37.1-111.9C1488.2,1177.6,1479.9,1156.6,1491.4,1130.8z M1485.5,1279c2.2,8.2,0,9-7.1,9c-25,0-25,0.2-26-24.9
	c-0.2-6.2-0.7-12.4-2.4-18.5c-6.3-22.6-23.8-29.7-43.4-15.9c-9.1,6.4-14.4,6.9-20.2-3.2c-5-8.7-13.7-14.3-20.5-21.4
	c-7-7.2-13.8-6.9-20.8-1.1c-5.4,4.5-10.5,9.5-15,14.9c-6.1,7.2-9.8,6.1-12.5-2.4c-6.8-21.4-15.4-42.1-25.3-62.2
	c-4.7-9.6-9.8-19-16.6-31.9c5.6,2.6,7.8,3.5,9.9,4.6c20.9,10.9,30.5,7.2,38.2-15.5c2.6-7.8,3.9-16.1,5.4-24.2c1-5.7,3.1-7.2,8.2-3.9
	c17.3,11.4,35.6,21.5,42.3,43.5c3,9.8,9.7,18.1,19.3,21.9c25.1,9.7,38.7,30.6,52,51.7C1466.6,1224.1,1478,1250.7,1485.5,1279z
	 M1409.5,1028.1c7.1,20.5,8.8,41.4,4.4,62.8c-0.3,1.4-1.9,3.9-2.2,3.8c-1.9-0.6-4.2-1.4-5.1-2.9c-1.2-2-1.7-4.7-1.6-7.1
	C1405.4,1065.8,1402.4,1046.6,1409.5,1028.1z M1433,1023.2c21,11.9,35.9,91.2,21.8,115.7C1447.7,1101.1,1440.5,1063.3,1433,1023.2z
	 M1513.3,943c-2.1,14.9-16.3,25-30.8,21.8c-8.1-1.7-10.8-2.1-9,8c4.7,26.1-9.7,38-35.8,31.3c-12.3-3.2-21.8-10-29-20.2
	c-12.3-17.1-18.3-37.2-25.9-56.5c-1.6-4-2.6-10.2,1.8-12.5c4.1-2.2,6.8,3.3,9.8,5.9c12.8,11,23.5,24.8,44,30.2
	c-11-13.1-20.1-23.8-29-34.7c-2.6-3.2-5.4-6.5-6.7-10.3c-3.1-8.7,0.7-12.4,9.7-9.9c10,2.7,19.9,6,29,11.1c4,2.3,7.9,4.2,13.5,3.9
	c-0.8-6.2-4.8-9.2-8.8-11.9c-6.9-4.7-14.3-8.6-20.9-13.6c-3.9-2.9-12.5-3-10.2-10.3c2-6.3,9.1-6.3,14.9-6
	c27.5,1.5,52.1,9.4,71.1,30.7C1512.3,912.7,1515.5,927.2,1513.3,943z M1546.6,964.6c23.6,13.6,40.4,33.9,55.3,56.1
	c1.5,2.3,3.5,4.8,1.2,9c-27.4-12.6-45.9-34.3-63.7-56.7c-2.2-2.7-5.5-6.7-2.8-9.9C1539.5,959.4,1543.5,962.8,1546.6,964.6z
	 M1540.4,835.9c-6.2,22.1-27.6,34.2-50.2,31.1c-20.8-2.8-39.7-11.8-59.7-16.8c-2.8-0.7-7.5-1.2-7.6-5.2c-0.1-4.5,4.7-4.1,7.6-4.8
	c15.4-4,30.9-7.7,48.5-12c-17.6-6.6-33.6-7.7-49.8-7.3c-2.7,0-6.4,1.1-7.6-2.4c-1.5-3.9,2.8-4.6,4.8-6.1
	c10.6-8.3,23.9-11.4,35.6-17.6c5.1-2.7,10.4-4.7,14.4-9.6c-17.8-0.2-34.7,3.1-51.2,8.7c-3.2,1.1-6.2,2.5-8.4-1.8
	c-1.7-3.4,0-5.7,2.2-7.6c23.8-19.9,48.1-38.5,81.6-37.8c25.9,0.5,40.8,24.6,28.3,47.6c-4.7,8.6-5.6,13.1,4.5,17.8
	C1543.3,816.7,1542.9,826.8,1540.4,835.9z M1498.6,669.2c-9.9-33.3,0.7-64.6,9.5-96.1C1507.2,605.4,1511.8,638.3,1498.6,669.2z
	 M1626.2,780.5c-0.4,4.1-5.9,3.8-9.2,4.6c-10,2.5-19.6-0.8-29-3.6c-2.1-0.6-5.5-0.4-5.3-3.9c0.2-3.4,3.3-3.1,5.7-3.4
	c3.7-0.4,7.4-0.7,12.9-1.1c4.4,0.7,10.6,1.3,16.6,2.8C1620.7,776.8,1626.6,775.3,1626.2,780.5z M1569.5,758.9
	c12.9-13.1,24.1-27.1,31.3-44.3c4.1-9.7,11.8-16.7,25.1-17.7c-9.1,14.1-17.6,27.3-27.2,42.4c19.7-3.4,35.8-11.1,53.4-9.7
	c2.9,0.2,5.8,0.7,8.9,4.7c-10.6,7.9-23.1,9.8-34.8,13.2c-17.1,4.9-34.3,9-49.1,20c-3.7,2.7-9.6,6.5-13.2,1.5
	C1561.3,765.2,1566.8,761.7,1569.5,758.9z M1532,658.8c3.1-18.5,4.2-37.4,6.3-56.5c25,26,13.6,92.6-25.7,110.4
	C1518.5,693.6,1528.9,677.3,1532,658.8z M1437.5,441.9c29.3,24.9,55.9,52.1,71.8,87.9c3,6.8,7.6,14.1-6,14.8c-2.9,0.2-6.1,4.1-8.3,7
	c-10.2,13.6-20.1,27.4-30.1,41.2c-7,9.6-11.8,19.9-11.2,32.3c0.2,3.8,1.1,8.9-4.3,10.5c-4,1.2-7.2-0.8-9.9-3.8
	c-18.1-20.3-39.3-22.5-63-11.1c-0.8,0.4-1.5,0.6-2.3,0.8c-3.7,1-8.7,4.6-10.5-1c-1.5-4.7,4-5,7.4-6.3c9.3-3.6,18.3-7.9,27.7-11
	c13.2-4.5,21.3-13.9,27.4-25.7c4.6-8.8,8.7-17.9,13.8-26.5c4.7-7.9,1.7-10.7-5.8-13.3c-25.5-8.7-48.8-5.2-70.1,11.4
	c-1,0.8-2.1,1.3-3.2,1.9c-0.3,0.2-0.8,0-3,0c1.3-10.2,6.3-17.8,14.5-20.9c42-16.2,61.1-46.5,57.1-90.7
	C1434,436.9,1435.7,440.3,1437.5,441.9z M1411.1,440.8c2.6,1.1,1.7,3.2,1.4,5.2c-5.2,29-23.5,47.9-49.1,64.2
	c6.4-29.2,21.1-50.3,42.3-67.3C1407.2,441.6,1408.8,439.8,1411.1,440.8z M1330.4,386.4c17.7,5.2,33.9,13.3,49.9,22.3
	c1.4,0.8,3.1,1.5,4.2,2.7c5.1,5.3,16.8,0,17.5,8.1c0.4,3.6-10.2,8-15.5,12.5c-16.3,13.7-26.4,31.7-33.9,51.3c-1,2.6-0.2,8.1-5.2,6.9
	c-4-1-2.2-5.6-2.5-8.7c-1-11.6-1.1-23.2-2.9-34.7c-3-18.8-13.3-32.7-30.7-41.1c-16.9-8.1-34.5-14.1-52.6-18.7c-4-1-8.3-1.1-12.4-5.8
	C1275.8,373,1303.1,378.4,1330.4,386.4z M1169.1,420.3c37.1-9,70.8-1.5,100.1,23.6c7.3,6.3,9.6,11.1,1.5,20.1
	c-16.4,18.4-13.8,40.6-7.2,62.4c4.2,13.7,12.4,25.3,20.5,36.8c1.8,2.6,5.5,5.2,3.4,8.6c-1.7,2.8-5.3,1.1-8.1,0.9
	c-12.4-0.8-20.9,6-28.7,14.6c-9.2,10.4-14.4,23-20.9,35.5c-4.1-17.4-1-34.8-3.9-52.1c-7.7-45.8-29.9-84.1-59-119.1
	c-1.6-1.9-3.4-3.6-5.1-5.5C1146.4,429.3,1147.2,425.6,1169.1,420.3z M1025.7,435.5c20.1-12.5,40.1-16.3,61.2-6.3
	c36.2,17,63.9,43.1,78.5,81.1c6.1,15.8,4.2,32.8,6,49.3c0.2,2,0.5,4.5-2,5.3c-3.1,1-4.6-1.6-5.7-3.7c-15.7-32.6-46.3-38.9-77.5-44.2
	c-12-2-12.8,7.7-13.9,14.9c-4.3,29,6.1,53,26.8,72.9c8.9,8.6,19.6,14.8,30.9,20l-1.1,3c-9-0.5-18-1.5-27-1.6
	c-10.2-0.1-19.8,2.9-28,8.9c-8.2,6-9.2,13.2-2.3,21.3c10.7,12.4,26,15.8,40.5,20.4c13.8,4.4,28.1,5.7,43.2,3.4
	c-10.7,7.8-20.7,15.1-28.3,25.4c-11.5,16-19.7,32.3-15.5,53.1c1.6,8.1,2.7,17.7-7.5,22.9c-2.7,1.3-2.6,4.2-1.3,6.6
	c7.5,14.2,9.4,31.4,23.5,41.8c6.2,4.5,3.7,7.3-0.9,11.3c-24.8,21.6-32.9,49-26.9,80.9c1.6,8.3,0.1,15.3-6,21.7
	c-17.9,18.9-28.9,41.3-32.9,67.1c-0.8,4.9-1.1,9.9-6.7,13.7c-8.9-13.6-9.9-29.5-15.2-43.9c-5.3-14.7-1.9-26,8.5-37.2
	c7.3-7.9,12.1-18,11.5-29.5c-0.4-9.6-4.9-12.9-13.7-9.5c-5.5,2.1-10.4,5.2-13.9,10.2c-1.8,2.6-3.6,6.6-7.5,5c-3.7-1.6-2.1-5.9-2.3-9
	c-0.7-13.9,4.9-24.7,15.3-33.8c17.8-15.7,35.3-31.4,42.4-55.7c5.8-20,0.4-36-13.3-50.1c-9.8-10.1-17.2-10.1-28.4-1
	c-22.1,18.2-34.2,41.4-34.3,70.3c0,7.4,0,14.8,0,23.5c-17.2-18.2-19-60.3-4.3-77.9c9.4-11.2,18.5-22.4,22.3-37
	c2.3-8.7,2.6-17.1-0.3-25.7c-6.2-17.9-17.1-22.2-33.7-12.9c-16.5,9.2-23.1,24.2-20.4,42.8c2.5,17.2,3,34.6,0.6,53.2
	c-8.4-4.7-10.7-12.2-12.9-19.3c-8.2-26.1-7.1-53.4-9.8-80.2c-0.4-4.5,2.4-6.8,5.2-9.3c8.4-7.6,15.4-16.5,20.7-26.4
	c5.8-10.9,6.4-22-3.7-30.6c-5.3-4.4-4.5-7.5-1.9-12.5c11.1-20.6,11-21-9.3-32.5c-4.3-2.5-3.6-6.2-3.8-9.7
	c-0.8-12.2,1.9-24.2,5.1-35.6C967.8,505.5,982.6,462.2,1025.7,435.5z M1020.8,869.2c4-20.3,8.1-37,18.2-53
	C1044.5,832.4,1036.8,855.9,1020.8,869.2z M849.5,442c12.8-7.3,15.3-5.9,17.5,8.4c2.7,17,6.3,18.6,20.3,9.1
	c18.5-12.7,36.8-25.9,59.4-30.8c0.4-0.1,0.8-0.3,1.2-0.4c7.4-1.7,17.4-4.4,21.5,0.1c4.7,5.3-3.9,12.3-7.1,18.1
	c-17.9,32.1-34,64.7-41.1,101.2c-0.7,3.8-1.3,8.5-6.7,10.5c-0.9-1.6-2.3-3.2-2.9-5c-6.6-21.9-20.8-32.3-43.9-29.5
	c-3,0.3-5.5-0.9-8.2-2.3c-22.6-11.3-42.6-2.7-50,20.8c-1.8,5.6,0.2,14.8-5.8,16.1c-4.4,1-6.3-8.5-10.5-12.5
	c-8.1-7.8-17.9-11.6-29.6-12.4c5.8-17.7,16.4-31.6,28-44.5C808.4,470.5,827.6,454.5,849.5,442z M770.4,676.6
	c1.5,4.5-6.4,3.9-4.8,9.5c11.2-0.7,21.9-6,33.3-4.9c-4.5,23.9-28.4,51.4-45,47.5c-3.6-0.8-9.2,0.1-10.2-3.2
	c-4.7-15.4-20.2-25.4-22.6-40.8c-4.1-26.6,25.4-45.1,51.9-34.2c0.4,0.2,0.8,0.3,1.1,0.6c3.3,3.4,11.4,2.4,10.8,8.3
	c-0.4,4.3-6.6,5.4-11,7c-5.4,2-11,3.8-15.9,8.3C762,679.2,767.2,672,770.4,676.6z M796,615.1c-6-5.2-12.6-9.3-22.1-11.1
	c4.3,9.6,11.1,15.9,16.1,23.5c1.7,2.6,5,5.5,2.5,8.9c-2.4,3.2-6,1.9-9.1,0.5c-13.1-5.9-27.8-8.7-38.4-19.7
	c-9.3-9.7-9.8-18.6,0.6-26.1c4.8-3.5,6.2-6.1,5.5-12c-1.1-8.9-2.7-18.9,8.4-23.6c8.7-3.7,24.2,0.7,30.4,9.4
	c9.9,13.7,16.3,28.7,14.8,46.4C804.1,618.9,801.8,620.1,796,615.1z M575.7,711.7c0.1-53.3,14.9-103.1,36.9-151.2
	c23-50,58.9-88.2,105-117c35.9-22.4,75.1-36.6,119.5-38.6c-3.6,7.1-9.1,10-14.4,13.1c-40.2,23.9-70.5,56.4-88.8,99.8
	c-3,7.2-5.2,16.3-16.2,7.2c-4.2-3.5-9-0.8-11.1,4.1c-6.1,14.4-11.8,28.7-0.5,43.5c2.6,3.5,3.8,8.3,4.8,12.7
	c1.8,8.1-3.7,13.3-11.8,11c-11-3.1-21.8-4.9-32.9-0.3c-9.7,4-14,11.5-14.3,21.4c-0.3,9.7,2.5,18.1,12.3,22.6
	c1.1,0.5,2.2,1.1,3.4,1.6c22.9,10.6,22.5,10.6,22.1,35.3c-0.4,20.4,0.2,40.8,0.3,61.2c0,2.9,1.1,5.8-2.1,8.9c-4.5-1.1-6.3-5.6-8.7-9
	c-5-7-9.1-7.3-11.4,1.5c-10.5,38.3-11.5,76.1,6.6,112.8c1.7,3.5,1.8,3.5,1.7,10.3c-4.8-0.8-6.5-5-8.8-8.2
	c-8-11.1-15.1-22.9-23.6-33.7c-18.7-23.8-19.6-48.2-7.5-75.7c11.5-26.1,13.3-53.8,3.5-81.5c-3.8-10.9-7.1-22.1-11.3-32.9
	c-3.1-7.9-6.9-10.7-13.7-1.8c-14.7,19.3-20.1,41.6-22.3,65c-1.9,19.9-2.1,39.8,2.3,59.5c0.6,2.6,0.1,5.4,0.1,11.5
	C582.2,746.9,575.7,730.4,575.7,711.7z M589.2,787c22.5,19.2,37.7,42.6,59.6,64.6C611.7,843.4,591.9,824.1,589.2,787z M634.7,879.4
	c5.8-0.5,11.5,0,17.2,1.8c11.5,3.8,43.9,27.8,53.2,40.2c-11.6,0-21.6-0.7-31.4,0.1c-18.2,1.6-43.2-18.2-45-36.1
	C628.3,880.9,631.3,879.8,634.7,879.4z M725.4,987.9c-6,4.9-12.4,9.2-19.2,13.1c-14,7.9-28.6,12.6-44.7,13.4
	c22.3-17.6,44.6-35.5,79.2-40.6C737.3,974.3,728.7,985.2,725.4,987.9z M728.6,961.5c-28.8,6-56.5,15.8-84.3,25
	c-3.6,1.2-6.9,2.7-13.7-0.8c33.6-13.1,58.1-41.8,96.1-36.7c6.3,0.8,15.6-1.4,16.6,6.5C743.7,959.8,734,960.3,728.6,961.5z
	 M734.4,856.6c-3.7-23.2-13.1-45.6-10.8-69.8c0.2-2.5-0.3-5.1,0.4-7.5c2.4-8.9-1.5-19.6,4.1-26.7c6.3-8.2,16.1,0.4,24.6-0.7
	c11.5-1.5,21.9-5.3,31-12c7.3-5.4,9.6-3.8,10.7,4.6c1.6,12.4,4.1,24.4,15.9,32.2c14.7,9.6,29.5,11.1,44.3,1.5
	c6.7-4.4,10.9-3.8,16.1,1.6c10.5,10.8,22.2,19.7,37.2,23.8c8,2.1,13.2,24.8,8,31.7c-2.7,3.6-4.9,0.6-7.3-0.5
	c-8.2-3.9-16.4-8-24.8-11.6c-10.5-4.5-16.4,0.5-19.8,10.3c-4.3,12.2,0,23.8,1.7,35.6c2,13.5,4.6,27,6.8,40.5
	c0.3,1.6,0.2,3.4-2.8,4.7c-12.4-11-16.1-26.8-21.2-41.8c-2.3-6.6-4.2-13.6-4.8-20.6c-2.1-27.9-18.8-42.9-43.7-51.2
	c-12.9-4.3-25.8-8.6-37.6-16.1c-10.6-6.8-13.9-5-14.6,7.7c-1.1,18.7-0.5,37.4-0.9,56.1c-0.2,12.9,1.5,26-1.1,42.2
	C737.7,878.2,736.1,867.3,734.4,856.6z M493.8,1403.8c9.5-66.2,24.8-130.7,60.7-188.2c27.7-44.4,60.3-84.8,107.2-110.7
	c31.7-17.5,65.5-28.4,102.3-26.1c3.5,0.2,8.6-1.6,10.1,2.6c1.6,4.7-3.5,7.1-6.7,9.3c-20.7,14.8-40.1,31.2-55.8,51.2
	c-18.1,22.9-32.6,48.1-39.9,76.8c-2.8,10.9-8.7,17.1-21,16.9c-11.8-0.2-18,7.9-20.8,18.2c-8.2,30-12.2,60.2,0.9,90.6
	c-5,2.6-9.1,0.2-13.2-0.8c-11.4-2.9-22.7-5.6-33.8,1.1c-1.5,1-4.4,1.5-5.7,0.8c-2.7-1.5-1.1-4.3-0.5-6.7c1.4-6.4,4.4-11.4,9.8-15.4
	c5.3-4,10.6-8.2,14.8-13.2c2.5-3,8.8-6.2,4.9-11.2c-3.3-4.2-8.8-3.9-13.8-1.5c-1.5,0.7-3.1,1-4.9,1.5c-3.1-4.9,0.3-8.9,1.6-12.8
	c4.8-14.2,4.5-28.6,2.4-43.1c-0.4-2.6-1.2-6.4-4.5-6.8c-3.6-0.4-4,3.4-5.3,5.9c-9.1,17.1-12.5,35.6-15.3,55
	c-2.3-7.7-4.5-15.5-7-23.1c-1.7-4.9-4.5-9.7-10.8-7.6c-5.7,1.9-6.6,6.3-5.1,12.1c2.9,11.4,7.5,21.9,13.6,31.8
	c8.3,13.6,5.3,27.4,1.1,43.5c-4.2-11.6-7.4-20.9-11-30.1c-3.4-8.6-10.8-12.3-19.3-14c-4-0.8-6.4,1.7-7.5,5.1
	c-2.9,9,1.2,16.3,6.8,22.7c3.5,4,7.7,7.7,12.3,10.4c15.9,9.5,20.1,23.2,15.5,43.1c-7.5-10.3-14.7-18.6-26.2-22
	c-12-3.6-14.8-1.8-14.6,10.9c0.3,14.4,10,21,21,26.7c9.5,5,18.9,10.2,28.4,15.2c5,2.7,4.3,5.8,0.3,8.4
	c-19.7,12.8-22.7,31.6-18.7,52.6c1.2,6.5-0.6,6.9-6.3,5.8c-15.8-2.9-16.1-4.3-14.5-21.1c2.1-22.3,4.9-41.2-26.6-54.8
	C494.2,1410.8,493.2,1408,493.8,1403.8z M505.6,1535.4c-8.9-3.6-18.1-11.9-17.1-18.6c1.2-7.9,14-9.9,22.3-12.8
	c9-3.1,17.2-0.4,23,7.6c0.7,1,2.3,2.3,2.1,2.9c-4.6,13.8,6.8,25.1,6.3,37.9c-0.4,12.1-11.3,13-19.3,12.1
	c-15.3-1.6-27.4-9.9-37.2-24.6c8.2-0.7,14.3-1.3,20.5-1.8C506,1536.7,506,1535.5,505.6,1535.4z M379,1449.6c0.7-3.5,2.4-7.3,6.2-7.2
	c5.1,0.5,7.7,3.1,10.4,5.8c4.2,4.3,6.6,9.7,8.3,15.1c1.7,5.2,7,11.9,1.2,15.9c-4.6,3.2-10.8-1.6-16-4.3
	C378.2,1469.4,376.9,1460.1,379,1449.6z M361.6,1494.2c-4.8-3.8-10-8.6-6.9-15.7c3.3-7.3,10.5-5.4,16.4-4.9c7,0.5,11.4,6.2,16.8,10
	c2.7,1.9,4.9,4.4,7,7c2.6,3.2,9.5,4.5,7.2,9.8c-1.7,3.8-7.5,1.7-11.7,2.6C380.1,1502.8,370.1,1500.8,361.6,1494.2z M432.7,1565.9
	c-2.9,12.2-7.3,23.7-17.2,32.4c-10.5,9.1-17.6,8.3-22.8-4.2c-3-7.2-8.9-9.3-14.7-12.3c-16.8-8.8-18.9-18.2-6.4-32.2
	c12.6-14.1,29.4-21.1,47.3-25.5c2.3-0.5,5.3-1,6.7,1.7c1.5,3.1-1.7,4.1-3.4,5.8c-6.9,7-14.7,13.3-20.5,22.4
	c6.6,2.3,10.4-0.4,14.5-2.4c5.6-2.7,10.7-8.7,17.7-2.2C440.7,1555.5,434,1560.7,432.7,1565.9z M435.1,1483.8
	c-3.2-6.6-5.3-14-6.3-21.3c-2.4-17.6,8.6-29.2,26.1-28.3c6.1,0.3,10.1,3.8,12.1,9.2c1.8,4.6,2.7,9.5,4.3,15
	c5.7-3.1,5.8-9.1,8.1-13.5c3.3-6.2,8.1-9.3,15.1-8.5c6.7,0.9,8.6,6.4,9.5,11.7c2.5,14.4-1.4,28.2-4.4,46.9
	c-5.9-16.9-10.9-14.3-16.5-5.2c-2.2,3.5-5.7,6-11.5,7.5c2-17.2-8.7-20-22.1-19.4c-0.2,0.8-0.5,1.6-0.5,2.4
	c-0.1,6.4,4.1,16.4-2.1,18.1C439.9,1500.2,437.8,1489.5,435.1,1483.8z M483.7,1618.1c-5.4-1.6-7.6,0.7-10.6,3.6
	c-11.3,10.9-22.1,7.9-27.2-6.7c-6.9-19.9,3.3-35.7,11.3-52.2c4.5,9.6,6.4,19.5,15.2,28c-1.1-12.8-2.3-24-6.7-34.6
	c-0.8-1.9-2.2-3.7-0.5-5.7c1.4-1.5,3.5-1.2,4.3,0.1c11.6,17.6,30.7,31.2,30.4,55.3C499.7,1618.4,495.6,1621.8,483.7,1618.1z
	 M548.5,1768.6c4.3-17.9,13-32.5,23.2-46.5c1.2-1.6,3-2.9,5.4-2.2c1.9,0.6,1.9,2.3,2,4C579.8,1736.7,562.2,1763.3,548.5,1768.6z
	 M474.5,1767.5c23.9-29.2,59.1-44.2,89.8-70.4c-21.7,1.6-40.3,2.9-62,4.5c31.1-23.8,67.7-12.1,99.8-22.8
	C560.6,1709.6,526,1750.4,474.5,1767.5z M550.4,1660.8c0.6-4,6.1-3.8,9.4-3.8c9.1,0.1,18.2,1.2,26.7,4.9c2.1,0.9,5.6,1.3,5.5,4.2
	c-0.3,3.9-4,3.5-6.8,3.6c-2.9,0.2-5.8,0-8.7,0c-6.3,0.7-12.3-0.8-18.3-2.5C554.4,1666.3,549.7,1664.9,550.4,1660.8z M605.3,1533.1
	c-11.9,14.8-21.5,30.4-23.8,49.9c-1.7,14.5,0.1,28,7.5,40.7c1.1,2,3.2,4.3,1,6.8c-1.4,1.5-3.1,0.8-4.5,0
	c-15.2-9.2-32.8-14.7-45.1-28.5c-1.6-1.8-3.3-3.7-4.7-5.3c0.6-4.8,4.3-5.3,7.1-6.6c24.8-11.4,28.4-17.6,26.7-44.9
	c-0.1-2,0-4.2,0.6-6.1c2.5-8.1-4.1-20.7,5.4-23.9c10.3-3.4,21.3,4.7,32,7.6C614.6,1524.7,607.7,1530.1,605.3,1533.1z M608.1,1592.8
	c-3.2-29.6,14.8-47,35.9-62.4c18.4-13.5,40.1-19.7,61-27.8c5.1-2,10-1.1,12.3,2.6c3.4,5.6-3.4,6.6-6.3,8.3
	c-12.5,7.1-23.2,16-32.6,26.7c-3,3.4-6.2,6.4-6.6,12.5c14.8-3.8,26-12.5,38.6-18.5c7.3-3.4,19-11.5,21.7-7.5
	c5,7.4-6.6,13.2-10.9,19.7c-7.9,12.1-17.1,23.3-24.9,37.9c14.9-5.5,23.4-16.7,34.3-24.4c6.2-4.4,13.1-14.1,19.2-10
	c5.7,3.8-1.9,13.5-3.3,20.6c-4.4,22.4-13.1,43.1-27.9,60.5c-13.9,16.3-31.1,27.1-53.8,26.9c-9.7-0.1-13.9-5-13.5-13.8
	c0.4-7.9,1.1-15.9,3.3-23.4c2.8-9.5-1.4-11-9.2-10.5c-6.2,0.3-12.5,0.2-18.7,0.3C614.7,1610.4,609.3,1603.9,608.1,1592.8z
	 M617.5,1735.9c-4.1-16.6,6.2-45.6,19.1-54.1c1.6-1,3.8-2,5.6-1.8c2.6,0.3,2.2,3,2.3,4.9C644.7,1694.4,626.2,1729.5,617.5,1735.9z
	 M346.1,2265.9c0.7-32.5,5.8-64.5,14.1-95.8c17.6-66.8,43.8-129.9,83.7-186.6c48.3-68.7,112.3-114.8,195.6-131.6
	c6.1-1.2,14.7-4.8,17.2,4.1c2.9,10.2,14.6,21.5,2.7,31.9c-36.1,31.5-61.2,70.9-82.9,112.8c-1.8,3.5-4.2,5.7-8.5,6.4
	c-15.9,2.8-23,14.2-25.1,28.7c-1.4,9.8-1.5,19.9,1,29.8c1.8,7.1,1.4,14-1.4,20.8c-13.4,32.5-19.4,66.8-25.2,101.2
	c-1.3,7.9-2.7,13.9-12.8,16.5c-11.7,3-18.5,13.2-21.9,25.2c-3.1,11-3.7,22.7-9.1,33.8c-16.3-26.7-15.6-58.2,2.4-81.3
	c14.6-18.8,20.7-38.8,12.3-61.7c-4.9-13.4-9.4-14-19-3.9c-14.3,15.1-15.5,34.2-16.6,53.5c-0.6,10.8,2,21.9-3.1,36
	c-4.4-12.8-5.6-22.7-6.1-32.8c-1-19.8-4.5-39-17.8-54.7c-4.2-5-9.6-10.6-17-6.7c-7.3,3.9-8.1,11.4-5.7,18.6
	c1.8,5.5,3.8,11.5,7.6,15.6c15.6,17.6,20,39.7,25.9,61.3c0.4,1.5,0.4,3.3,0.4,4.9c0,0.3-0.5,0.7-0.8,1.1c-4.6,1-5.1-3.3-6.9-5.7
	c-5.2-7.2-11.2-13.4-19.3-17.3c-5.9-2.9-12.2-7.4-18.1-0.8c-5.5,6.1-5.8,13.6-2.3,21c2.5,5.5,6.8,9.5,12.2,12c4.1,2,8.4,3.5,12.7,5
	c32.4,11.4,43.4,26.7,44.5,62.3c-5.3,0.7-6.8-4-9.1-6.9c-8.2-10.6-17.8-19.8-28.8-27.5c-4.7-3.3-10.1-7.2-15.9-3.6
	c-5.8,3.5-5.4,10.1-4.7,15.9c1.4,11.3,5.2,21.1,18.2,23.8c45.5,9.2,57.6,42.7,53,91.9c-7.7-7.1-10.3-16.1-14-24.4
	c-5.4-12.4-12.3-23.6-22.4-32.6c-7.8-6.9-13.8-5.8-18.9,3.5c-7.1,13.1-3.3,33.7,8.5,42.8c3,2.3,6,4.8,9.4,6
	c28.3,9.9,36.7,35.6,47.5,59.3c1.3,2.9,1.8,6.3-0.1,10.7c-18.9-7.8-37-16.8-51.8-30.9c-28-26.6-47-58.2-48.1-98
	c-0.8-29.4-2.8-33.3-30.4-42.7C344.6,2274.6,346,2270,346.1,2265.9z M380.6,2442.4c10.1-3.8,20.9-4.2,30.6-1.3
	c11.7,3.3,22.5,9.8,36.4,16.1c-19.8,6.4-35.7,14.2-51.1,23c-4.5,2.6-7.7,0.9-11-2.2c-7.5-6.9-10.1-16-11.9-25.5
	C372.7,2447.2,375.6,2444.3,380.6,2442.4z M354.1,2340.9c1.1-0.4,2.2-0.7,3.3-1.1c10.5,18.2,20.9,36.4,31.3,54.6
	c0.7,1.3,0.9,3.5,0.3,4.7c-1.2,2.4-3.4,1-5.4,0.5c-16.6-4.3-26.5-15.8-28.5-33.1C353.9,2358,353,2349.4,354.1,2340.9z M435.3,2557
	c-24.7,6.1-49.5,12.3-76.8,8.4c5.6-8,12.7-8.5,18.9-9.6c17.9-3.1,35.9-5.6,53.8-8c3.4-0.4,8.1-1.3,9.4,3.6
	C441.5,2555.1,438.2,2556.3,435.3,2557z M426.6,2502.7c10.7-20.8,48.7-14.6,73.9,4.4C476.1,2504.1,452,2499.1,426.6,2502.7z
	 M522.6,2572.6c-2.7,6.2-6.4,11.7-11.1,16.4c-16.7,16.9-37.6,25.9-59.6,32.9l-1.6-3.1c22.3-17.1,44.5-34.2,66.8-51.3
	c1.6-1.2,3.5-2.6,5.5-0.6C524.4,2568.7,523.4,2570.7,522.6,2572.6z M579.5,2712c-2,5.1-5.2,9.7-12.2,5.7
	c-13.1-7.5-23.9-17.6-34-28.7c-1.6-1.8-3.8-4.1-1.9-6.5c3.6-4.6,9-5.3,17.3-5.4c9.8,1.9,22.4,4.2,34.9,6.6c1.6,0.3,4,0.8,4.5,1.9
	C593,2696.8,582.8,2703.4,579.5,2712z M600.5,2368.6c6.5-2.1,7.8-6,6.5-12.4c-2.3-11.4-1.6-23.1-3.3-34.7
	c-2.2-14.6,6.7-23.6,21.6-23.9c9.2-0.2,17.8,3,26.7,4.9c-6.8-29.7,9.1-44.8,40.5-38.8c27.9,5.3,44.2,25.1,58,47.4
	c9.9,15.9,17.6,32.9,23.4,50.8c1.1,3.5,3.3,8,0,10.3c-3.4,2.3-6.8-1.7-9.6-3.8c-17.9-13.4-35.2-27.8-55.4-37.9
	c-1.9-0.9-3.5-2.1-6.9-1c11,14.8,23.5,27.7,36.1,40.6c4.7,4.8,14.2,10.4,10.6,16.1c-3.7,5.7-11.7-2.1-17.6-4.2
	c-17.6-6.3-35.2-12.5-54.1-14.4c-0.3,3.9,3.1,4.4,5.3,5.7c15.9,9.7,32,19.3,48,28.9c3.8,2.3,10.3,4.4,8.6,9
	c-1.9,5.3-8.8,3.1-13.3,2.1c-16.6-3.5-32.8-9.1-49.8-10.8c-2.4-0.3-4.9-1.6-8,1.1c18.9,15.2,43.8,18.3,63,33.1
	c-38.2,6.6-76.2,17.3-112.1-8c-16.1-11.4-24.9-26.3-26.8-45.5C591,2376.5,593.4,2370.9,600.5,2368.6z M639.9,2794.4
	c1.9-23.8,9.1-46,19.7-67.2c3.1-6.3,6-12.7,8.8-19.2c0.9-2.1,3-4.7,0.7-6.9c-2.7-2.6-5.9-0.7-7.9,1.1c-9.2,8.4-18,17.1-27,25.8
	c-3.1,3-5.2,7.4-12.1,7.4c13.1-40.5,49.5-56.4,78.8-79.7C686.9,2705,665.9,2750.6,639.9,2794.4z M732.1,2597.8
	c-15.7,18.5-36.7,25.1-60,25.4c-20.3,0.2-31.2-15.6-25.3-38.4c3-11.8,2.3-15.8-11.4-16.3c-23.1-0.8-38.1-23.5-33.1-46.1
	c5.8-26.2,25.4-39,47.5-48.9c23.1-10.4,47.8-9.2,72.4-8.4c3.3,0.1,7.3,1.1,7.6,4.8c0.3,3.7-3.8,4.9-6.6,6.7
	c-18.1,11.3-38.8,18.7-55.5,35.1c14.5-1.8,26.8-6.3,39.1-10.6c12.4-4.3,24.7-9.6,40.5-9.2c-15.3,18.3-35.1,30.5-48.4,50.8
	c12.1-3.6,19.6-12.5,29.5-16.9c6.8-3.1,14.3-13.1,20.4-6.7c6.1,6.4-4.2,13.7-7.8,20.1c-5.4,9.5-13.2,17.7-16.3,29.1
	c19-7.7,29.4-26.3,46.3-37.8c3.1,10.1-3.5,15.5-6.8,21.7C755.5,2568.6,744.2,2583.5,732.1,2597.8z M763.7,2622.9
	c3.8-26.8,13.9-51.2,32.1-71.7c2.1-2.4,4-6.4,7.8-4.8c4.5,1.8,3.6,6.6,2.5,9.8c-5.1,15-4.3,30.3-1.7,46.5
	c6.2-15.9,12.5-31.8,19.5-49.8c12.1,22.3-3.1,45,6.8,66.9c8.8-17.1,9.1-34.9,14.1-51.3c0.5-1.6,0.2-3.4,0.8-4.9
	c1.7-4.4,1.6-11.7,7.4-11.5c5.6,0.2,3.7,7.4,5,11.5c3.4,11.2,1.9,23.4,7,35.1c6.5-5.7,4.3-12.4,5.5-18.2c1-4.7,1.1-11.2,6.7-12.2
	c6-1,7.9,5.2,9.5,9.8c12,33.6,15.2,67.1-1,100.5c-1.1,2.2-2.2,4.5-3.6,6.5c-6.2,9.2-13.2,18.4-25.3,17.9
	c-12.5-0.5-17.4-11.1-21.9-21.3c-2.3-5.1-2.3-14-7.6-14.4c-5.8-0.5-6.3,8.5-9.3,13.2c-3.4,5.3-7.8,9.6-12.8,13.5
	c-8.9,6.7-16.6,5.7-24.2-2.3C762.8,2671.9,760.2,2647.8,763.7,2622.9z M886.9,2810c-5.4-0.4-10.7-1-16.1-1.5
	c-35.9,0-67.8-13.7-99.1-29.3c-5.3-2.6-7.2-5.6-4.5-11.8c5.6-12.9,10-26.3,10.9-40.6c0.3-4.1,2.2-7.4,6-4.1c13.3,11.4,25,4,36.1-3
	c7.9-5,11.4-2.7,15.2,4.5c15.1,28.7,32.2,56.1,54.9,79.6c1,1.1,2,3,1.7,4.2C891.4,2810.5,888.9,2810.1,886.9,2810z M1017.1,2804.6
	c-2.4,9-5.3,12.1-15.2,9.7c-49.8-12-83.2-42.9-104.4-88.5c-2.1-4.6-1.1-7.7,1.9-11.2c13.6-16.1,23.5-34.2,29.2-54.5
	c1.8-6.5,4.9-9.7,11.1-3.9c1.2,1.1,2.9,1.7,4.2,2.6c29.9,20.5,54.3,14.9,79-9.6c11.8-11.7,23.2-24,33.2-37.2c16.7-22,22-46,9.1-72.3
	c-9-18.2-8.8-18.7,9.4-28.5c29.7-15.9,44.3-40.5,42.8-74.1c-0.4-10.3-1.8-20.7-7.2-29.9c-2-3.3-3.7-6.4-0.3-13.6
	c12.6,27.7,39.7,32.3,61.8,45.7c-16.7,11.9-30.8,24.4-41.2,40.9c-13.8,21.8-18,44.5-9.4,68.8c2.7,7.5,1.5,11.2-5.3,14.9
	c-14.6,7.9-25.3,19.9-34.6,33.5c-8.1,11.9-6.2,20.7,7.6,25.4c16.9,5.7,34.1,7.1,51.2,0.2c3.4-1.4,7.1-2.2,10.6-3.4
	c5.5-1.9,9.6-1.9,10.9,5.2c1.5,8.3,8.1,14.3,11.4,23.3c-21.9-2.9-42.4-7.7-63.7-6.8c-35.2,1.7-62.9,16.9-83.2,45.3
	c-7.8,10.8-5.6,17,6.7,22.2c13.8,5.8,27.6,3.7,41.4-0.8c17.9-5.9,33.5-16.5,50.5-24.2c4.8-2.2,9.2-5.6,18.3-4.5
	c-12,11.8-21.7,22.7-34.7,29.8c-12,6.6-24.1,13.2-36.4,19.1C1039.8,2743.8,1025.6,2772.3,1017.1,2804.6z M1064.1,2800.4
	c8.9-25.6,44.3-64.9,64.9-73.4C1117,2759.4,1091.6,2778.3,1064.1,2800.4z M1281.8,2754.9c-37.8,39.5-82.9,64.7-137.7,71.2
	c-10.7,1.3-21.4,2.9-32.1,4.3c-1.6,0.2-3.3-0.3-5.7-0.6c1.5-7.9,7.5-10.4,11.6-14c20-17.7,25.4-42.2,32-66.1
	c7-25.5,15.5-50.1,37-67.7c4.4-3.6,8.2-8.3,16.2-7.8c-1.9,7.3-6,12.9-9.6,18.6c-18.8,29.6-28.4,61.6-26.9,96.9
	c0.8,17.7,6.1,20.3,21.5,12.7c29-14.2,40.8-40.4,49-68.8c4.8-16.6,7.1-34,10.3-51.1c1.3-6.5,2.8-12.9,8.3-21.5
	c1.2,16.3,0.8,30.1,5.7,43.2c4.7,12.6,9.3,25.2,19.8,34C1288.7,2744.3,1288.1,2748.2,1281.8,2754.9z M1264.1,2606.7
	c-16.9,12.9-35.8,19-57.2,14.5c-10.7-2.3-16.9-8.7-16.8-19.9c0.1-17.3,4.8-33.3,15.2-49c-11,1.1-20.9,3.1-30.8,0.7
	c-25.7-6.3-35.3-26.5-23.9-50.4c11.6-24.2,31.8-39.1,55.4-49.7c25.7-11.7,53.5-14.2,81.3-16.7c8.6-0.8,15.6,4.6,24,5.5
	c5.6,0.7,1.5,5.7-2,7.3c-12.4,5.9-24.7,11.8-37.3,17.1c-13.6,5.6-23.6,15.8-34.8,24.9c21-6.4,42.2-11,63.2-16.2
	c5.3-1.3,10.4-2.5,15.9-2.3c7.9,0.2,9.1,3.8,4,8.9c-9.9,10-20.4,19.6-30.8,29c-7.3,6.6-14.8,13-21.7,22.1c7.2,1.9,11.3-2,15.6-4.3
	c15.3-8.3,30.5-17,45.6-25.7c4.2-2.4,7.6-2.4,11.2,1.1c3.6,3.5,1.9,6.7-0.1,10C1319.4,2548.5,1296.8,2581.7,1264.1,2606.7z
	 M1306.7,2721.3c-13.7-6.2-17.8-19.2-19-32.9c-2.7-30,2.7-58.6,16-85.9c13.3-27.2,31.1-51,54.6-70.3c3.2-2.6,7-6.5,10.9-4.3
	c5,2.9,2.3,8.3,0.7,12.2c-8.1,20-14.7,40.6-20.1,61.5c-1.8,6.7-4.9,13.3-2.6,21.9c6.2-6.7,8.7-14.4,11.8-21.6
	c7-16.1,16.6-30.6,26-45.3c2.1-3.3,4.9-9.3,10.1-6.9c4.2,2,2.1,7.3,1.5,11.4c-2.6,18.5-5.1,37-7.4,55.5c-0.5,4-1.1,8.1,2.8,13.8
	c8.8-16.1,12.7-31.8,17.9-47c3-8.8,5-23.3,13.3-23.2c8.8,0.1,5.3,14.5,6.9,22.4c9.2,45,10.7,89.8-8.5,133.1c-1,2.3-1.7,4.7-2.9,6.9
	c-9.1,17.7-23.7,26.6-38.5,23.6c-12.1-2.4-22.2-19.3-22.8-37.8c-0.1-2.8-0.5-5.6-0.8-9.4c-7,2.7-9.8,8.9-14.8,12.2
	C1331.2,2718.5,1320.7,2727.7,1306.7,2721.3z M1444.3,2770.8c-35.3,20.9-72.1,37.3-113.1,42.8c-2,0.3-4.1,0.9-6.8,1.5
	c-5.7,0.3-5.5-3.4-2.7-6.9c10.9-14.1,22.1-28,33.1-42c2.8-3.5,5-2.7,8.3-0.4c23.2,16.4,34.8,15.9,55.7-3
	c6.1-5.5,11.7-11.8,16.7-18.4c4.2-5.5,6.6-5.4,9.2,0.9c1,2.3,2.6,4.2,4.1,6.2C1454.9,2759.8,1454.5,2764.7,1444.3,2770.8z
	 M1536.7,2716.1c-4.2,12.7-13.3,22.9-27.5,24.3c-14.6,1.5-26.5-5.5-35.5-17.1c-15-19.2-20.6-41.8-20.9-65.3
	c-0.5-28.3,1.3-56.5,2.1-84.8c0.1-4.2,1.1-8,4-11.4c19.6,16.3,18.8,42.1,30.5,62.6c4.3-10.3,3.7-20.5,2.1-30
	c-1.9-11,1.3-21.5,0.8-32.2c-0.1-3.2,1.1-7.1,4.8-7.7c3.4-0.5,4.6,3.1,5.9,5.7c18.7,39.1,34.8,79,37.9,122.9
	C1541.7,2694.2,1540.1,2705.7,1536.7,2716.1z M1611.2,2787.1c-19.3-24.4-23.4-52.9-29.7-82.5
	C1598.8,2716.1,1616.9,2766.4,1611.2,2787.1z M1704.1,2604.8c-10,13.4-25,13.7-39.8,10.9c-17.2-3.3-17.1-3.6-12,13.5
	c3.8,12.6,8,26-3.4,36.2c-10.6,9.5-24.2,7.3-36.8,3.5c-20.1-6-33.7-21.1-46.2-36.6c-20.2-24.9-32.3-54-41.4-84.5
	c-0.9-3.1-2.7-6.7,1.1-8.9c3.1-1.8,5.6,1,7.6,2.7c12.1,10.9,23.8,22,35.9,32.9c3.8,3.4,7,8.3,14.4,8.1
	c-7.7-12.5-14.7-24.5-22.3-36.2c-3.9-6.1-7-12.3-8.7-19.2c-0.8-3.4-4-7.8-0.6-10.5c3.4-2.7,6.8,1.3,9.9,3
	c17.5,9.6,35.2,18.7,51.1,31c3.3,2.5,7.2,4,14.2,7.9c-13.4-21.2-30.4-35.1-43.6-52.1c-1.3-1.6-2.9-3-4.2-4.6
	c-2.7-3.6-6.7-7.2-4-12.1c2.9-5.2,8.1-5.3,13.2-3.8c7.1,2.1,14.4,4.1,21.3,6.8c37.9,15.3,71.1,36.3,91.2,73.6
	C1707.6,2578.9,1713.8,2591.7,1704.1,2604.8z M1629.1,2483.2c-10.4-5.2-20.3-11.3-30.3-17.3c-4.7-2.8-12-4.9-9-12.7
	c2.8-7.3,9.8-7.9,16.7-7.6c17.7,0.7,35.5,1.2,53.2,1.6c2.7,0.1,6.8,1.1,7.7-2.3c1-4.2-3.2-5.3-6.3-6.1c-14.8-3.9-29.7-7.5-44.5-11.5
	c-4.4-1.2-8.5-3.3-12.7-5c-5-2-12-3.9-11.4-9.6c0.6-5.3,7.9-6.2,12.9-8.1c17.2-6.6,35.8-7,53.4-11.8c3.9-1.1,7.8-2.2,14.7-4.1
	c-23.5-9.5-44.1-8.1-64.9-5.7c-5,0.5-12.3,3.8-14.4-2.6c-2.2-6.6,3.5-11.6,9.5-14.3c35.2-16.6,71.9-27.6,111.2-28.6
	c8.4-0.2,16.4,2.2,24.4,4.6c20.2,6.1,32.3,20,33.6,38.7c1.1,16.7-11.7,38.4-28.7,44.5c-11.4,4.1-10.8,7.6-3.5,15.4
	c9.2,9.8,17,21,13.9,35.5c-4.2,19.5-17.3,29.6-38.7,30.2C1684.8,2507.4,1656.5,2496.8,1629.1,2483.2z M1719.6,2641.2
	c11.8,24.8,17.2,51.8,25.7,78.8C1726.6,2711.5,1712.1,2667.6,1719.6,2641.2z M1823.4,2707.6c-18.1-13.2-35.7-27-49.3-45.3
	c-9.2-12.3-19.5-23.8-32-33c-2.8-2.1-6.6-4.7-4.5-9.2c1.7-3.7,5.7-2.8,8.9-2.8c17.4,0,33.8,3,47.5,15c4.1,3.6,7.8,7.3,8.8,14.4
	c-9.9-1.7-17.8-6.1-29.7-5.1c23.1,22.8,46.4,42.8,61.2,70.1C1829.3,2713.7,1826.4,2709.8,1823.4,2707.6z M1858.9,2544.9
	c-2.3,7.1-5.3,13.2-13.8,13.9c-8.1,0.7-12.4-4.6-15-10.9c-3.5-8.6-8.2-13.4-18.5-11.7c-6.9,1.1-10.6-1.7-10.8-10.8
	c-0.4-19.2,4.8-35,19.4-47.6c2.4-2.1,3.8-5.4,5.6-8.1c2.8-4.4,5.1-12.8,10.1-10.6c5.8,2.5,1.7,10.2,0.6,15.6
	c-1.9,9.3-3.8,18.5-5.8,27.8c8.2-7,14.9-14.3,14.2-25.4c-0.2-3.6,1.3-8.7,4.8-9.3c4.9-0.9,6.6,4.6,7.6,8.4
	C1863.2,2498.9,1866.5,2521.8,1858.9,2544.9z M1874.7,2447c-2.3,5-5.5,6.7-8.8,6.2c-7.5-1.1-15.5-13.1-14.9-20.7
	c0.9-12.8,16.1-16.3,22.1-4C1875.7,2433.8,1877.3,2441.4,1874.7,2447z M1901.2,2410c7.3-9.2,12.4-19.7,18.6-29.5
	c4.6-7.4,12.3-11.3,21.4-10.2c8.8,1,9.2,8.1,9.9,14.9c0.6,5.7,5,6.4,9.6,7.9c7.8,2.6,16.6,5.4,17.3,15.6
	c0.8,10.3-3.6,18.5-12.5,24.1c-19.9,12.5-40.7,10.2-63.6,4.2c11.3-12.2,26.5-13.6,38.4-23.2c-9.2-4.4-16,0.9-23.1,1.2
	c-4.1,0.1-8.2,1.3-12.3,1.5C1899.8,2416.8,1897.6,2414.6,1901.2,2410z M1900.4,2471.1c-2.1-3.3-6.8-6.3-3.4-10.7
	c3.4-4.6,8.1-2.1,12.5-0.8c17.5,5.5,30.7,17.8,44.4,29c7.2,5.9,7.3,14.3,4.3,22.9c-3,8.5-10.8,9-17.4,9c-9.3,0-15.4,0.2-15.5,12.6
	c-0.1,10.1-9.5,13-18.3,6.9c-9.2-6.4-14.2-16.1-18.2-26.1c-3.4-8.4-6.2-17.1-8.9-25.8c-1-3-2-7.3,0.9-9.3c3.4-2.3,6,1.6,8.3,3.6
	c6.7,6,13.2,12.1,22.3,16.8C1912.6,2487,1905.6,2479.4,1900.4,2471.1z M1893,2350c1.5,18-3.9,34.4-14.2,49.1
	c-2.4,3.4-6.9,6.8-10.6,4.3c-3.9-2.6-1.3-7.5,0.4-11.2c1.9-4.4,4.9-9.1-2.1-11.6c-6.3-2.3-5.5,4.4-7.8,7c-1.3,1.5-1.9,3.7-2.9,5.5
	c-1.6,2.9-3.2,6.5-7.1,5.9c-3.3-0.5-3.7-3.9-4.5-6.8c-1-3.5-1.6-7.3-6.1-10.7c-5.1,9.2-0.4,17.6-0.1,26.2
	c-17-10.2-34.2-47.8-31-65.8c1.4-7.4,5.5-12.1,12.9-13.2c7.5-1.1,14.4,0.7,17.9,8c3,6.3,4.7,13.2,7.1,19.9c0.8,2.2,0.7,5.3,4.2,5.1
	c2.6-0.2,3-2.7,3.6-4.5c2.2-6.4,6.4-11.6,10.6-16.7c4-4.9,9-9.8,15.9-7C1886.3,2336.4,1892.3,2342,1893,2350z"/>
</svg>
