<?xml version="1.0" encoding="utf-8"?>
<!-- Generator: Adobe Illustrator 18.0.0, SVG Export Plug-In . SVG Version: 6.00 Build 0)  -->
<!DOCTYPE svg PUBLIC "-//W3C//DTD SVG 1.1//EN" "http://www.w3.org/Graphics/SVG/1.1/DTD/svg11.dtd">
<svg version="1.1" xmlns="http://www.w3.org/2000/svg" xmlns:xlink="http://www.w3.org/1999/xlink" x="0px" y="0px"
	 viewBox="0 0 432 432" enable-background="new 0 0 432 432" xml:space="preserve" width="500" height="500">
<g>
	<g>
		<g>
			<path d="M122.8,198c-3.8,0-7.4-0.9-10.6-2.7c-3.2-1.8-5.8-4.3-7.8-7.7c-1.9-3.3-2.9-6.8-2.9-10.3c0-5.7,2-10.8,6.1-15.4
				c8.4-9,20.2-15.4,35.5-19c2.3-0.6,4.6-0.8,6.8-0.8c1.1,0,2.4,0.1,3.8,0.4c1.4,0.3,2.5,1.1,3.2,2.5c0.1,0.3,0.2,0.6,0.2,0.9
				c0,1.7-0.8,2.6-2.5,2.6c-1,0-1.7-0.4-2.2-1.1c-0.4-0.1-0.8-0.2-1.5-0.2c-2.8,0-5.5,0.3-8.2,1c-13.5,3.6-23.9,9.3-31.2,17.1
				c-3.2,3.5-4.8,7.3-4.8,11.6c0,2.7,0.7,5.4,2.2,8c1.5,2.6,3.4,4.6,5.9,5.9c2.5,1.3,5.2,2,8.1,2c5.6,0,11.1-1.1,16.5-3.2
				c12.2-4.9,22.3-14.2,30.4-27.9c11.6-19.8,17.4-41.3,17.4-64.6c0-27.1-7.3-47.5-21.8-61.2c-9.9-9.4-22.4-14.1-37.6-14.1
				c-7.1,0-13.9,1.8-20.3,5.5c-6.4,3.7-12,8.2-16.7,13.5C78.2,55.1,71.8,71.7,71.3,90.7l0.7-0.1c0.6,0,1.2,0.2,1.7,0.7
				c0.5,0.5,0.8,1.1,0.9,1.8c0,0.7-0.2,1.3-0.6,1.7c-0.4,0.5-0.9,0.9-1.5,1.2c-0.6,0.3-1.3,0.5-2,0.5c-0.5,0-0.9-0.1-1.4-0.2
				c-1.9-0.6-2.9-2.1-2.9-4.4c0-20.5,6.9-38.7,20.8-54.6c3.3-3.8,7.2-7.3,11.6-10.4c9.6-6.8,19.3-10.2,29.1-10.2
				c16.6,0,30.3,5.1,41.3,15.4c5.4,5.1,9.7,10.9,13.1,17.3c6.8,13.4,10.2,29.3,10.2,47.5c0,24.4-6.1,46.9-18.3,67.6
				c-8.6,14.6-19.6,24.6-32.9,30C135.2,196.8,129.1,198,122.8,198z M115.5,149.4c-0.7,0-1.3-0.2-1.8-0.6c-0.5-0.4-0.7-1-0.7-1.7
				c-1-19.2-1.5-38.5-1.5-57.9c0-19.6,0.6-37.1,1.9-52.4c0.1-1.5,1.2-2.2,3.1-2.2c2.2,0,3.3,0.8,3.3,2.3v0.3
				c-1.7,23.7-2.6,47.9-2.6,72.4c0,14.3,0.2,26.7,0.7,37.4C118.1,148.6,117.2,149.4,115.5,149.4z"/>
			<path d="M236,154.6c-2.4,0-3.7-8.7-3.7-26c-3.1,1.7-6.2,2.8-9.5,3.2v3.9c0,5.3-1.3,9.7-3.9,13.3c-2.6,3.6-5.7,5.3-9.3,5.3
				c-1.9,0-3.6-0.5-5.2-1.6c-4.4-2.9-6.6-7.9-6.6-15.1c0-5.4,1.4-10.1,4.1-14.2c0-1.2,0.2-2.2,0.6-3c1.5-3,4-4.5,7.7-4.5
				c1.4,0,2.8,0.4,4.2,1.1c4,2.1,6.5,5.5,7.5,10.1c5.2-0.9,8.8-2.6,10.9-5.1c0.5-0.6,1.1-0.9,1.9-0.9c0.5,0,1,0.2,1.6,0.6
				c0.6,0.4,0.8,1,0.8,1.8l0.1,12.7c1.9-5.7,4.2-10.6,6.9-14.6c2.9-4.3,5.6-6.5,8.4-6.5c4.9,0,7.5,5.6,7.9,16.9
				c0.6,9.7,2,14.5,4.1,14.5c1.2,0,2.5-1.1,4.1-3.2c2.7-3.8,4.8-7.9,6.3-12.3c0.3-1,1.1-1.6,2.2-1.6c1.5,0,2.3,0.7,2.3,2.2
				c0,1-1,3.8-3.1,8.4c-3.5,7.6-7.4,11.4-11.7,11.4c-2.6,0-4.7-1.4-6.1-4.1c-1.4-2.7-2.3-7.2-2.6-13.4v-1
				c-0.6-8.5-1.6-12.7-3.2-12.7c-0.6,0-1.3,0.3-2,1c-1.9,1.9-3.6,4.4-5,7.4c-3.8,7.6-6.2,15.6-7.4,24c-0.1,1.2-0.8,1.8-1.9,2
				C236.2,154.6,236.1,154.6,236,154.6z M209.6,149.5c2.1,0,3.9-1.1,5.5-3.3c1.9-2.6,2.8-6.1,2.8-10.4v-3.4
				c-6.3,0-10.8-1.2-13.6-3.7c-1.2,2.8-1.8,5.9-1.8,9.3c0,5.2,1.4,8.8,4.2,10.8C207.7,149.2,208.6,149.5,209.6,149.5z M217.2,127.6
				c-0.8-2.9-2.4-5-4.8-6.3c-0.8-0.4-1.5-0.6-2.3-0.6c-0.8,0-1.6,0.2-2.3,0.7c-0.7,0.5-1,1-1,1.6c0,1.3,0.8,2.3,2.3,3
				C211.1,127.1,213.8,127.6,217.2,127.6z"/>
			<path d="M282.3,80.8c-0.6-0.1-1.2-0.3-1.6-0.8c-0.5-0.5-0.7-1-0.7-1.6c0.1-20.4,0.6-30.9,1.3-31.6c0.4-0.4,1-0.6,1.7-0.6
				c0.7,0,1.3,0.2,1.7,0.7c0.4,0.5,0.6,1,0.6,1.7c-0.3,10-0.5,19.9-0.5,29.9C284.7,79.9,283.9,80.7,282.3,80.8z"/>
			<path d="M301.9,179.4c-2,0-3.6-0.9-4.7-2.6c-2.9-4.2-4.8-11.5-5.6-21.6c-0.8-8.8-1.1-19.9-1.1-33.1c0-9.7,0.2-19.3,0.5-28.9
				c-9.2,0.4-15.5,0.6-18.8,0.6l-7.1-0.2c-1.5-0.1-2.3-0.8-2.3-2.3c0-0.7,0.2-1.3,0.7-1.7c0.5-0.5,1-0.7,1.7-0.7h10.7
				c5.6,0,10.8-0.2,15.4-0.5c0.4-10.4,1-20.7,1.7-31.1c0.1-1.5,1.1-2.2,3-2.2c1.9,0,2.8,0.6,2.8,1.8v0.5
				c-1.6,10.4-2.5,20.6-2.7,30.7c18.2-1.2,36.5-3.3,54.8-6.4c1.7,0,2.5,0.7,2.5,2.2c0,1.3-0.7,2.1-2,2.3
				c-19.4,3.4-37.9,5.6-55.6,6.7c-0.3,8.1-0.4,16.3-0.4,24.3v15.2c0.2,19.3,1.7,32.4,4.4,39.3c0.8,1.9,1.5,2.8,2.1,2.8
				c0.7,0,1.5-0.6,2.5-1.9c4.6-5.9,10.6-19.2,18-39.9l0.6-1.7c0.4-1,1.1-1.5,2.1-1.5c1.7,0,2.6,0.7,2.6,2.1c0,0.3-0.1,0.6-0.3,1.1
				c-0.2,0.5-0.4,1-0.6,1.5c-7,19.6-12.9,33.1-17.9,40.3C306.7,177.8,304.4,179.4,301.9,179.4z"/>
		</g>
	</g>
	<path d="M117.1,186.3c1.7,0.9,3.6,1.4,5.6,1.4c4.9,0,9.8-1,14.6-2.9c1-0.4,1.9-0.8,2.9-1.3H114
		C114.9,184.7,115.9,185.6,117.1,186.3z"/>
	<g>
		<path d="M94.5,221.4c-0.4,0-0.6,0.3-0.8,0.8c-1.8,7.5-2.7,11.5-2.7,12c0,0.5,0.3,0.8,0.8,0.8h5.6c0.5,0,0.8-0.3,0.8-0.8
			c0-0.4-1-4.3-2.9-12C95.2,221.6,94.9,221.4,94.5,221.4z"/>
		<path d="M150.8,285c-0.8,0.2-1.7,0.5-2.6,0.8h13.2c-2.3-1-4.5-1.2-6.4-1.2C153.5,284.6,152.1,284.7,150.8,285z"/>
		<path d="M163.7,269.1c0.1,0,0.1,0,0.2,0.1c3.7,1,7.5,2.8,11.4,5.4c3.8,2.5,7.1,5.4,9.8,8.5c0,0,0.1,0.1,0.1,0.1
			c0.7,0.8,1.3,1.7,1.9,2.5h28.6c0.6-0.6,1.2-1.2,1.8-1.8c3.9-3.7,8.3-6.5,13.2-8.3c7.1-2.7,13.6-3.5,19.6-2.1c2,0.5,3.9,1.1,5.4,2
			c1.5,0.8,3.1,2,4.7,3.4c0.1,0.1,0.2,0.1,0.2,0.2c2,2,3.7,4.2,5.2,6.6h135.8l-20-50.2l20-52h-95c-1.5,0.7-3.1,1.1-4.8,1.1
			c-1.7,0-3.3-0.4-4.7-1.1H166c-6.8,7-14.5,12.3-23.1,15.7c-6.4,2.6-13.2,3.9-20.2,3.9c-4.7,0-9.1-1.1-13.1-3.3
			c-4.1-2.2-7.4-5.5-9.8-9.6c-1.3-2.2-2.2-4.4-2.8-6.7H30.3l23,53.6l-23,48.7h84.1c7.1-7,15.3-12,24.6-15
			C147.9,268,156.3,267.4,163.7,269.1z M338.9,209.1c0-1.1,0.4-2,1.2-2.7c0.8-0.7,1.7-1.1,2.7-1.1h28c1,0,1.9,0.4,2.6,1.1
			c0.8,0.7,1.2,1.6,1.2,2.7v4.9c0,1-0.4,1.9-1.1,2.7c-0.8,0.8-1.6,1.1-2.7,1.1H364c-0.2,0-0.4,0.1-0.5,0.2s-0.2,0.3-0.2,0.5V259
			c0,1-0.4,1.9-1.1,2.6c-0.7,0.8-1.6,1.2-2.7,1.2h-5.5c-1,0-1.9-0.4-2.7-1.1c-0.8-0.8-1.1-1.6-1.1-2.7v-40.4c0-0.2-0.1-0.4-0.2-0.5
			s-0.3-0.2-0.5-0.2h-6.7c-1,0-1.9-0.4-2.7-1.1c-0.8-0.8-1.1-1.6-1.1-2.7V209.1z M303.9,212.6c1.6-2.6,3.7-4.5,6.4-5.9
			c2.7-1.4,5.7-2.1,9.1-2.1c5.5,0,10.3,1.5,14.4,4.4c1.2,0.8,1.7,1.9,1.7,3.2c0,0.7-0.2,1.3-0.5,1.9c-0.5,0.9-1.4,2.3-2.5,4.2
			c-0.8,1.3-1.9,1.9-3.3,1.9c-0.8,0-1.5-0.2-2.2-0.7c-2.8-1.9-5.4-2.8-7.9-2.8c-1.1,0-2.2,0.3-3.1,1c-1,0.7-1.4,1.7-1.4,2.9
			c0,2.7,2.6,5.4,7.9,7.9c9.5,4.6,14.2,10.6,14.2,18c0,3.5-0.8,6.5-2.4,9c-1.6,2.5-3.7,4.5-6.4,5.9c-2.7,1.4-5.7,2.1-9.1,2.1
			c-5.5,0-10.3-1.5-14.5-4.4c-1.1-0.8-1.7-1.8-1.7-3.2c0-0.7,0.2-1.3,0.5-1.9c1-1.7,1.8-3.1,2.5-4.2c0.8-1.3,1.9-1.9,3.3-1.9
			c0.8,0,1.5,0.2,2.2,0.7c2.9,1.9,5.5,2.8,7.9,2.8c1.1,0,2.2-0.3,3.1-1c1-0.7,1.4-1.6,1.4-2.9c0-1.3-0.4-2.4-1.3-3.4
			c-1.3-1.5-3.5-3-6.6-4.5c-2.4-1.2-4.9-2.8-7.4-4.8c-4.5-3.7-6.8-8.1-6.8-13.3C301.5,218.2,302.3,215.2,303.9,212.6z M256.3,209.1
			c0-1,0.4-1.9,1.2-2.7c0.8-0.7,1.7-1.1,2.7-1.1h5.4c1,0,1.9,0.4,2.7,1.1c0.8,0.8,1.2,1.6,1.2,2.7v33.3c0,2.4,0.6,4.4,1.7,6
			c1.2,1.7,2.9,2.6,5,2.6c2.2,0,3.9-0.9,5.1-2.6c1.1-1.6,1.7-3.6,1.7-6v-33.3c0-1.1,0.4-2,1.2-2.7c0.8-0.7,1.7-1.1,2.7-1.1h5.5
			c1,0,1.9,0.4,2.6,1.1c0.8,0.8,1.2,1.6,1.2,2.7v33.3c0,5.7-1.6,10.5-4.9,14.4c-1.8,2.2-4.1,3.9-6.7,5c-2.6,1.1-5.4,1.6-8.2,1.6
			c-2.8,0-5.5-0.5-8.2-1.6c-2.6-1.1-4.9-2.8-6.7-5c-3.3-3.9-4.9-8.7-4.9-14.4V209.1z M217.9,254.1l2.5-4.1c0.8-1.3,1.9-1.9,3.3-1.9
			c0.8,0,1.7,0.4,2.6,1.1c1.8,1.4,3.5,2.1,5.1,2.1c2.3,0,3.4-1.6,3.4-4.9v-37.1c0-1,0.4-1.9,1.2-2.7c0.8-0.7,1.7-1.1,2.7-1.1h5.5
			c1,0,1.9,0.4,2.7,1.1c0.8,0.7,1.2,1.6,1.2,2.7v35.7c0,3.5-0.5,6.6-1.6,9.5c-2.3,6.1-7,9.2-14.3,9.2c-2.4,0-4.7-0.4-6.8-1.1
			c-5.3-1.9-7.9-4.1-7.9-6.4C217.4,255.3,217.6,254.7,217.9,254.1z M159.5,209.1c0-1.1,0.4-2,1.2-2.7c0.8-0.7,1.7-1.1,2.7-1.1h5.4
			c1,0,1.9,0.4,2.7,1.1c0.8,0.7,1.1,1.6,1.1,2.7v14.7c0,0.8,0.2,1.1,0.5,1.1c0.3,0,0.6-0.2,0.9-0.7l11.6-17.3
			c0.7-1.1,1.7-1.6,2.9-1.6h6.3c1.1,0,2,0.3,2.7,0.9c0.7,0.6,1,1.4,1,2.6c0,1-0.3,1.9-0.8,2.7c-7,10.5-11.8,17.4-14.2,20.7
			c-0.5,0.7-0.8,1.3-0.8,1.8c0,0.5,0.3,1.2,0.8,1.9c2.4,3.3,7.2,10.2,14.2,20.7c0.6,0.8,0.8,1.7,0.8,2.7c0,1.2-0.3,2-1,2.6
			c-0.7,0.6-1.6,0.9-2.7,0.9h-6.3c-1.2,0-2.2-0.5-2.9-1.6L174,243.9c-0.3-0.5-0.6-0.7-0.8-0.7c-0.4,0-0.6,0.4-0.6,1.1V259
			c0,1-0.4,1.9-1.1,2.7c-0.8,0.8-1.7,1.1-2.7,1.1h-5.4c-1,0-1.9-0.4-2.7-1.1c-0.8-0.7-1.1-1.6-1.1-2.7V209.1z M113.5,262.7h-5.3
			c-1.8,0-3-1-3.5-3l-3.1-11.8c-0.1-0.4-0.4-0.6-0.7-0.6H88.5c-0.4,0-0.6,0.2-0.6,0.6l-3,11.8c-0.5,2-1.7,3-3.4,3h-5.8
			c-2.4,0-3.6-1.1-3.6-3.3c0-0.9,0.1-1.8,0.3-2.7l12-48.5c0.5-1.9,1.6-2.9,3.4-2.9h13.5c1.8,0,2.9,1,3.4,2.9l12,48.5
			c0.2,0.9,0.3,1.8,0.3,2.7C117,261.6,115.8,262.7,113.5,262.7z M121.7,259.1c-1.1-0.8-1.7-1.8-1.7-3.2c0-0.7,0.2-1.3,0.5-1.9
			c1-1.7,1.8-3.1,2.5-4.2c0.8-1.3,1.9-1.9,3.3-1.9c0.8,0,1.5,0.2,2.2,0.7c2.9,1.9,5.5,2.8,7.9,2.8c1.1,0,2.2-0.3,3.1-1
			c1-0.7,1.4-1.6,1.4-2.9c0-1.3-0.4-2.4-1.3-3.4c-1.3-1.5-3.5-3-6.6-4.5c-2.4-1.2-4.9-2.8-7.4-4.8c-4.5-3.7-6.8-8.1-6.8-13.3
			c0-3.4,0.8-6.4,2.3-9c1.6-2.6,3.7-4.5,6.4-5.9c2.7-1.4,5.7-2.1,9.1-2.1c5.5,0,10.3,1.5,14.4,4.4c1.2,0.8,1.7,1.9,1.7,3.2
			c0,0.7-0.2,1.3-0.5,1.9c-0.5,0.9-1.4,2.3-2.5,4.2c-0.8,1.3-1.9,1.9-3.3,1.9c-0.8,0-1.5-0.2-2.2-0.7c-2.8-1.9-5.4-2.8-7.9-2.8
			c-1.1,0-2.2,0.3-3.1,1c-1,0.7-1.4,1.7-1.4,2.9c0,2.7,2.6,5.4,7.9,7.9c9.5,4.6,14.2,10.6,14.2,18c0,3.5-0.8,6.5-2.4,9
			c-1.6,2.5-3.7,4.5-6.4,5.9c-2.7,1.4-5.7,2.1-9.1,2.1C130.7,263.5,125.9,262,121.7,259.1z"/>
	</g>
	<g>
		<g>
			<path d="M189,415.3c-2.4-0.1-4-2.1-4.8-5.8c-0.5-3-0.7-6.5-0.7-10.6c0-5.7,0.4-11.6,1.3-17.9l0.8-5.5c0.3-2.9,0.7-5.7,1.3-8.5
				c0.4-6.1,0.5-10.1,0.5-11.8c0-4.9-0.2-10.5-0.6-16.9c-1.2-19.3-4.3-33.8-9.2-43.7c-5.4-10.7-12.9-16.1-22.5-16.1
				c-1.9,0-3.7,0.2-5.5,0.5c-2.9,0.7-6,1.9-9.5,3.7c-3.5,1.8-6.7,4.1-9.7,7c-5.8,5.7-10.6,12.5-14.4,20.6c-4.2,8.7-7.1,18-8.6,28
				c-0.5,3.8-0.7,8.3-0.7,13.4l0.1,4.7c0.2,4.4,1.1,8.6,2.5,12.6c1.4,4,2.8,7.2,4.3,9.7c1.2,2,3.1,4.1,5.7,6.2
				c3.4,2.7,7.3,4.1,11.7,4.1c4.7,0,9.2-1.7,13.7-5.2c4.9-3.8,9.1-8.7,12.6-14.5c3.5-5.8,5.9-12.3,7.2-19.3c0.5-3.2,0.7-6.3,0.7-9.3
				c0-7.1-1.2-13.3-3.6-18.4c-1.9-3.8-4.2-5.7-7-5.7c-1.7,0-3.6,0.7-5.6,2.1c-3.2,2.1-5.9,4.9-8.2,8.3c-2.3,3.4-3.8,7.5-4.6,12.2
				c-0.3,1.6-0.5,3.2-0.5,4.7c0,7,2.9,12.1,8.8,15.2c1.6,0.9,2.5,1.6,2.5,2.2c0,0.8-1,1.6-3,2.4c-2,0.8-3.6,1.2-4.8,1.2
				c-0.7,0-1.4-0.1-2.3-0.3c-3.9-0.7-7-2.7-9.3-6c-2.3-3.3-3.5-7.2-3.5-11.8c0-1,0.1-2,0.2-3.1c0.8-6.6,3.1-12.6,6.8-17.9
				c3.8-5.3,8.5-9.2,14-11.6c3.1-1.5,6-2.2,8.8-2.2l1.6,0.1c5.4,0.2,9.7,2.8,12.9,7.8c3.4,5,5.1,11.5,5.1,19.2
				c0,2.6-0.2,5.3-0.5,8.1c-2.4,15-8.2,27.2-17.5,36.6c-7.3,6.9-15.5,10.6-24.7,10.9l-2.9,0.1c-1.6,0-3.2-0.2-4.8-0.7
				c-3.6-1-7-2.6-10.2-4.7c-9.2-5.8-14.8-16.9-16.9-33.2c-0.2-2.6-0.4-5.6-0.4-8.9c0-4.4,0.2-8.4,0.6-11.8
				c2.5-16.3,8.9-30.4,19.3-42.3c7.1-8.1,15.6-13.8,25.5-17c5-1.6,9.7-2.4,14.1-2.4c2.6,0,5,0.3,7.3,0.8c3.1,0.9,6.3,2.4,9.7,4.7
				c3.4,2.3,6.2,4.7,8.6,7.5c4.5,5.5,8.3,12.9,11.5,22.4c1.2,3.6,1.9,5.4,1.9,5.5c0.1,0.1,0.5,2.2,1.4,6.3l1.6,8.7
				c6.3-18.3,14.5-32.1,24.5-41.4c3.3-3.2,7.1-5.5,11.3-7.1c4.2-1.6,8-2.4,11.6-2.4c1.6,0,3.1,0.2,4.6,0.5c1.5,0.3,2.8,0.8,3.9,1.4
				c1.1,0.6,2.3,1.5,3.5,2.6c4.4,4.4,7.1,10,8.3,16.8c0.4,2.9,0.5,6.3,0.5,10.2c0,4-0.2,7.4-0.5,10.2c-2.6,16-8.5,28.7-17.7,38
				c-3.6,3.9-8.2,7.1-13.6,9.6c-6,3.1-11.6,4.7-16.6,4.7c-2.3,0-4.7-0.3-7-1c-1.9-0.5-3.5-1-4.6-1.5c-1.1-0.5-2-1.1-2.7-1.8
				c-0.9-0.9-1.4-1.9-1.4-3c0-1.4,0.4-2.4,1.1-3.1c0.7-0.6,1.4-1,2.1-1c0.4,0,0.8,0.1,1.1,0.4c0.3,0.2,0.5,0.4,0.5,0.5
				c0,0.2-0.1,0.4-0.4,0.7c-0.3,0.3-0.4,0.5-0.4,0.6c0,0.2,0.3,0.3,1,0.3c2.2,0,5.4-0.7,9.7-2.1c17.8-6.1,28.9-18.9,33.4-38.3
				c0.8-3.3,1.4-6.4,1.8-9.3c0.4-3.1,0.6-7.4,0.6-12.8c0-2.7-0.1-4.8-0.4-6.3c-0.3-1.6-0.8-2.9-1.5-4.1c-2.2-3.5-5.2-5.2-9.1-5.2
				c-1.9,0-3.8,0.5-5.7,1.6c-7.5,4-14.7,11.8-21.5,23.3c-2.5,4.1-5,9.1-7.4,14.8c-2.5,5.7-4.3,10.5-5.4,14.3l-2.1,7.8v3.2
				c0,3-0.2,5.9-0.5,8.8c-0.3,2.4-0.5,4.7-0.5,6.7l0.1,2c0.5,4.4,0.8,9.1,0.8,14.2c0,8-0.9,16.4-2.6,25.3c-0.5,2.1-1.4,3.8-2.6,5.3
				C191.8,414.6,190.5,415.3,189,415.3z"/>
			<path d="M276,391.1c-0.7,0-1.3,0-1.9-0.1c-4.2-0.4-7.8-4-10.9-10.7c-1.7-3.8-2.6-8.1-2.6-12.9c0-4.6,0.8-9.3,2.5-14.3l0.8-2.6
				l-1-2c-0.8-1.8-1.3-3.6-1.3-5.6c0-0.8,0.1-1.6,0.2-2.6c0.7-4,2.4-7.1,5.1-9.5c2.7-2.4,5.9-3.6,9.8-3.6c3.6,0,6.8,0.9,9.6,2.6
				c2.8,1.7,5,4.1,6.5,7.1c1.6,3.6,2.7,7.7,3.3,12.4c0.1,1.1,0.2,2.4,0.2,3.8c0,5.2-0.4,9.5-1.1,12.8c-0.3,1.4-0.5,2.4-0.5,2.9
				c0,0.4,0.2,0.6,0.5,0.6l0.8-0.1c4.9-0.8,8.1-5.7,9.8-14.6l1.1-6.2c0.4-0.5,1.1-0.7,2.1-0.7c0.6,0,1.2,0.1,1.7,0.4
				c0.5,0.3,0.8,0.9,0.8,1.8c0,0.8-0.2,2.2-0.5,4.1c-1.3,7.5-3.7,12.9-6.9,16.3c-2.6,2.6-5.6,4.2-9.1,4.9l-2.2,0.4l-1.4,2.6
				c-3.2,5.7-6.7,9.5-10.7,11.6c-0.8,0.4-1.5,0.7-2.1,0.8C277.9,391.1,277.1,391.1,276,391.1z M286.6,368.2c0.4,0,0.8-0.2,1-0.6
				c0.2-0.4,0.5-1,0.7-1.9c1.2-3.3,1.7-7.1,1.7-11.3c0-4.7-0.4-8.3-1.1-10.8c-0.7-2.1-1.7-3.8-3-5.3c-2-2.2-4.2-3.4-6.6-3.4
				c-1.3,0-2.7,0.3-4.2,1c-3,1.3-4.5,3.9-4.5,7.8c0,0.7,0.1,1.1,0.3,1.1c0.1,0,0.2,0,0.3-0.1c0.2-0.1,0.5-0.1,1-0.2
				c1.5-0.2,2.4-0.3,2.7-0.3s0.7,0.1,0.9,0.2c1.3,0.9,2,1.9,2,3.3c0,0.6-0.2,1.2-0.5,1.8c-0.3,0.6-0.7,1.5-1,2.6
				c-0.4,1.2-0.8,2.3-1.1,3.4c-0.3,1.1-0.5,1.8-0.5,2.1c0,1.3,1,3,3,5c2,2,4.2,3.5,6.5,4.6C285.3,368,286.1,368.2,286.6,368.2z
				 M278,384c0.2,0,0.5-0.1,0.8-0.4c1.1-0.7,2.3-2,3.6-3.9c0.9-1.3,1.8-3,2.6-4.9l-2.6-0.8c-3.1-1-5.7-2.5-7.7-4.3
				c-1-0.9-1.6-1.4-1.8-1.4c-0.1,0-0.2,0.6-0.2,1.9c0,1,0,2.1,0.1,3.3c0.1,1.2,0.2,2.2,0.3,3c0.5,1.9,1.2,3.7,2.1,5.2
				C276.3,383.3,277.2,384,278,384z"/>
			<path d="M345.1,398c-4.9,0-8.3-5.2-10.2-15.5c-0.4-2.2-0.5-3.8-0.5-4.8c0-1-0.1-1.5-0.3-1.5c-0.1,0-0.4,0.8-1.1,2.3
				c-0.9,2.6-2.1,5-3.6,7.4c-1.5,2.4-2.8,4.1-4,5.1c-0.7,0.5-1.7,1-2.8,1.4c-1.1,0.4-2.2,0.5-3.2,0.5l-0.8-0.1
				c-3.9-0.6-7-3.7-9.4-9.3c-2.4-5.6-3.6-12.6-3.6-21c0-5.8,0.3-10.1,1-12.9c0.7-2.8,2.1-4.8,4.2-6c0.8-0.4,1.7-0.6,2.6-0.6
				c1.1,0,2.2,0.2,3.3,0.7c0.8,0.3,1.4,0.7,1.7,1.1c0.3,0.4,0.5,1.3,0.5,2.6c0,1.2-0.1,2.9-0.3,5.1c-0.3,4.5-0.5,8.9-0.5,13.2
				c0,3.9,0.1,7,0.4,9.2c0.9,5.6,2.2,8.5,3.9,8.6c1,0,2.3-1.7,3.9-5.2c1.4-3,2.7-7,3.9-11.9c1.2-4.9,2.5-11.8,3.9-20.6
				c0.7-4.4,1.3-7.5,1.7-9.2c0.4-1.2,0.9-2.2,1.6-3c0.7-0.8,1.4-1.2,2.1-1.2c0.7,0,1.4,0.2,2.2,0.6c0.8,0.4,1.5,0.9,2,1.5
				c0.5,0.6,0.8,1.4,0.8,2.5c0,1.2-0.3,3.3-0.8,6.1c-0.6,3.4-1,6.8-1.2,10.1c-0.2,3.3-0.3,7.5-0.3,12.5c0,4.7,0.1,8.2,0.4,10.5
				c0.2,2.3,0.8,4.9,1.7,7.6c1.2,3.4,2.2,5.1,3.3,5.1c0.6,0,1.4-1.2,2.3-3.6c1.5-3.7,3.1-10.4,4.9-20.1c1.1-5.7,1.9-10.4,2.4-14
				c0.1-0.9,0.3-1.5,0.6-2c0.7-1.1,1.4-1.6,2-1.6c1.6,0,2.4,0.9,2.4,2.6c-0.1,1.2-1.1,6.5-3,15.8c-1.4,6.9-2.7,12.6-4,17.1
				c-1.2,4.5-2.4,8-3.6,10.4C349.9,396.5,347.7,398,345.1,398z"/>
			<path d="M379,392.2c-4,0-7.3-1.7-9.8-5.2c-1.4-1.9-2.4-4.1-2.9-6.6c-0.2-1.6-0.4-3.5-0.4-5.8c0-7.3,2.4-17,7.2-29
				c0.9-2,1.8-4.3,2.7-6.8c-1.3,0.2-2.7,0.6-4.1,1c-0.7,0.1-1.5,0.2-2.4,0.4c-0.9,0.1-2.1,0.2-3.6,0.2c-1.1,0-1.7,0-1.9,0.1
				c-0.2,0.1-0.4,0.9-0.6,2.5c-0.3,1.6-0.6,3.8-1,6.7c-0.3,1.8-0.7,3.1-1,3.8c-0.4,0.7-1.1,1.1-2.2,1.1c-1.3,0-1.9-1-1.9-2.9
				l0.1-1.1c0.8-4.8,1.2-8.3,1.2-10.6c0-1.3,0-2.1-0.1-2.2l-1.4-2.2c-1.8-2.9-2.7-5.5-2.7-8c0-2.7,1.1-4.8,3.4-6.2
				c0.6-0.3,1.2-0.5,1.7-0.5c1.5,0,2.9,0.8,4.1,2.5c1.2,1.7,1.9,4,2.2,7c0.1,1.7,0.3,2.6,0.5,2.8c0.2,0.2,0.6,0.2,1.1,0.2h1.1
				c3-0.1,6.8-2,11.3-5.7c1.4-1.2,2.5-2,3.2-2.5c0.8-0.5,1.5-0.7,2.1-0.7c0.5,0,1.2,0.2,1.9,0.5c1.5,0.6,2.3,1.7,2.3,3.3
				c0,0.7-0.2,1.6-0.5,2.5c-3.1,9.3-5.3,16.4-6.5,21.2c-1.7,6.6-2.6,12.6-2.6,18.1c0,7.4,1.3,11.1,4,11.1c0.5,0,1.1-0.2,1.6-0.5
				c1.4-1,2.9-3.6,4.5-7.7c1.4-3.6,2.6-7.8,3.7-12.8l0.8-4.6c0.5-3,0.9-4.8,1-5.4c0.2-0.6,0.5-1.1,1-1.6c0.5-0.4,1.2-0.6,2-0.6
				c1.3,0,2,0.6,2,1.8v0.4c-0.6,3.8-1.3,7.5-2.2,10.9l-0.6,3.1c-3.4,16.6-8.3,25.8-14.7,27.5C381.7,392,380.4,392.2,379,392.2z"/>
		</g>
	</g>
</g>
</svg>


