<?xml version="1.0" encoding="utf-8"?>
<!-- Generator: Adobe Illustrator 18.0.0, SVG Export Plug-In . SVG Version: 6.00 Build 0)  -->
<!DOCTYPE svg PUBLIC "-//W3C//DTD SVG 1.1//EN" "http://www.w3.org/Graphics/SVG/1.1/DTD/svg11.dtd">
<svg version="1.1" xmlns="http://www.w3.org/2000/svg" xmlns:xlink="http://www.w3.org/1999/xlink" x="0px" y="0px"
	 viewBox="0 0 432 432" enable-background="new 0 0 432 432" xml:space="preserve" width="500" height="500">
<g>
	<path fill="#221F1F" d="M336.3,218.8c0,1.6,0.2,3,0.2,4.6c0.6,4.4,1.8,8.7-0.4,12.9c-2,3.4-1.2,6.9-1.2,10.7c0,4.4,0,8.5,0.4,12.9
		c0.2,4-0.2,8.3,1.4,11.9c0.4,1.2,1.2,2.4,1.8,3.4c6-0.2,25.4,3.4,20.4,10.7c-1.6,2.2-4.6,3.2-7.1,3.8c-2.6,0.8-5.2,1.2-7.7,1.4
		c-10.3,1.2-20.8,1.4-31.1-0.4c-2.8-0.6-12.3-2-10.7-6.7c1.2-3,5.8-5,8.3-6c3.8-1.6,7.9-2.8,12.1-2.6c0.8-1.2,1.4-2.2,2-3.6
		c1.6-3.6,1.2-7.9,1.4-11.9c0.4-4.4,0.4-8.5,0.4-12.9c0-3.8,0.8-7.3-1.2-10.7c-2.2-4.2-1-8.5-0.4-12.9c0.2-1.6,0.2-3,0.2-4.6
		c0,0-0.2,0-0.4,0c-1.4-0.6-2.8-1.2-4.2-1.2H320c-0.6-0.8-1.2-0.6-1.6-0.8c-2.6-1-5-2.4-7.3-4c-4.8-2.8-9.1-6.5-11.9-11.5
		c-3.2-5.6-3-11.7-1.6-18.1c1-5,1.8-9.9,3-14.9c0-1.4,0.4-2.8,0.8-4.2c-0.2-0.6,0-1.4,0.6-1.8c0.2-0.4,0.4-0.8,0.6-1.2
		c0,0,0-0.2,0.2-0.2c0-0.2,0.2-0.4,0.2-0.4c1.2-1.6,2.6-2.8,4.8-3.8c6.9-3,15.1-4,22.6-4.2c7.7,0,17.1,0.2,23.8,4.4
		c1.6,1,2.8,2.2,3.8,3.6c0.2,0,0.6,0,0.6,0.4c0.2,0.4,0.4,1,0.6,1.4c1,2.2,1.6,4.6,1.8,6.9c1.2,4.6,2,9.3,2.8,13.9
		c1.4,6.3,1.6,12.5-1.6,18.1c-2.8,5-7.1,8.7-11.9,11.5c-2.4,1.6-4.8,2.8-7.3,3.8c0,0,0,0-0.2,0c-0.4,0.4-1,0.6-1.6,1
		C339.6,218.2,337.8,219,336.3,218.8z M340.8,212.8c2.4-0.8,4.6-1.8,6.5-3c4.4-2.6,8.3-6,10.9-10.3c3.2-5.2,2.4-11.1,1.4-16.7
		c-0.8-4.8-1.2-9.3-1.8-14.1c-0.2-0.6-0.4-1-0.6-1.4c-9.9,5.8-22.6,5-33.7,4.2c-4.6-0.4-9.3-0.8-13.9-1.8c-2.2-0.6-4.4-1.2-6.2-2.6
		c-0.6,5.2-1.2,10.5-2,15.7c-1,5.6-1.8,11.5,1.4,16.7c2.6,4.4,6.5,7.7,10.9,10.1c2,1.4,4.2,2.4,6.5,3.2c1.6,0.6,3.8,0.8,5.2,2
		c1,0.4,2,1.2,2,2h0.6c0,1.6,0,2.8-0.2,4.2c-0.2,2.6-0.6,5.2-0.8,7.7c-0.2,2.6,0,4.2,1.2,6.3c2,3.8,1.2,7.5,1.2,11.3
		c0,4.6-0.2,9.1-0.4,13.7c-0.4,4,0,8.5-1.6,12.3c-1.2,2.8-3.4,5.2-5.2,7.5c0.6,0.2,1.4,0.4,2.2,0.4c1,0.2,2,0.2,2.6,0.8
		c0.4,0.4,0.2,0.8-0.2,1c-1,0.4-2.4,0.2-3.6-0.2c-1-0.2-1.8-0.6-2.4-1.4c-0.2-0.2-0.4-0.4-0.4-0.8c0.2-1.2,0.6-2,1.2-3
		c-4.4,0.6-8.7,1.8-12.5,3.8c-0.8,0.4-2.6,1.2-3.8,2.2c0.8,4,6.9,4,10.1,4.2c5,0.2,9.9,0,14.9,0c5.6-0.2,11.1-0.4,16.7-1
		c2-0.2,4-0.6,5.9-1.2c1.2-0.4,2.6-1,3.6-2c-1.6-2.2-5.6-3-7.9-3.6c-2.8-0.6-6-1.6-8.9-1.6c0.4,0.8,0.6,1.4,0.8,2.2
		c0.2,0.6-0.6,1-1,0.8c0,0.2,0,0.4-0.2,0.4c-1,1.2-3,0.6-4.4,0.6c-0.8,0-0.8-1.2,0-1.2c1.2-0.2,2.8-0.6,4-0.2c-0.6-1-1.4-1.8-2-2.6
		c-0.2-0.2-0.2-0.4-0.4-0.6c-1.2-1.4-2.2-2.8-3-4.6c-1.6-3.8-1.2-8.3-1.6-12.3c-0.2-4.6-0.4-9.1-0.4-13.7c0-3.8-0.8-7.5,1.2-11.3
		c1.2-2.2,1.4-3.8,1.2-6.3c-0.2-2.6-0.6-5.2-0.8-7.7c-0.2-1.4-0.2-2.6-0.2-4.2h1c0,0,0.4-1,1-1.2c0-0.2,0.2,0,0.2-0.2
		C336.5,213.8,339,213.6,340.8,212.8z M352.3,286.6c-1.4,0.4-2.8,0.4-3.8,0.4c-6.2,0.4-12.5,1-18.7,1c-5.6,0-11.5,0.4-17.1-0.4
		c-3-0.4-7.3-1-7.9-4.6c-1.2,1.2-1.8,2.4,0.2,3.4c2.4,1.4,5.2,2,7.7,2.4c10.5,1.6,20.8,1,31.1-0.4c2.6-0.4,5.2-0.8,7.7-1.6
		C351.9,286.8,352.1,286.8,352.3,286.6z M311.1,200.3c0.2,1.4,0.6,2.8,0.8,4c-2.8-2.2-5.8-5-7.1-8.1c-1-2.6-1-4.6-0.6-7.3
		c0.2-2.6,0.6-5,0.8-7.5c1.2,1.2,3.2,1.6,5,2C309.7,189,310.1,194.8,311.1,200.3z M304.9,164c1.4,2.4,5.6,3,7.9,3.6
		c4.6,0.8,9.3,1,13.9,1c9.7,0.2,20.4,1,29-4.4c0,0,0,0,0-0.2c-1-1.6-2.4-3.2-4.6-4.2c-6.3-3-13.9-3.4-20.8-3.2
		c-6.5,0-13.5,0.8-19.6,3c-2,0.6-3.8,1.4-5.2,3C305.3,163,305.1,163.4,304.9,164z M309.7,181.1c-1.2-0.2-2.4-0.4-3.4-1
		c1.2-0.4,2.4-0.8,3.8-1.2c0,0.8-0.2,1.6-0.2,2.2H309.7z M320,201.1c1,3.2,2.4,6.3,3.8,9.3c-1.4-0.4-2.8-0.8-4.2-1.4
		c-1-3.2-1.8-6.3-2.6-9.7c-0.8-5-1.2-10.1-1.2-15.1c0.6,0,1.2,0,1.8,0.2c0,1.4,0,2.8,0,4.2C318,193,318.6,197.2,320,201.1z
		 M316.8,182.1c-0.4,0-0.6,0-0.8-0.2c0-1.4,0-2.8,0.2-4.4c0.6,0,1-0.2,1.6-0.2c-0.2,1.6-0.2,3.2-0.2,4.8
		C317.2,182.1,317,182.1,316.8,182.1z M319.6,182.3c0-1.8,0.2-3.6,0.2-5.4c3.6-0.4,7.1-0.6,10.7-0.6c4.4,0,8.9,0,13.3,0.6
		c3.8,0.4,7.5,1.6,11.5,2.6c0,0.2,0.2,0.2,0.2,0.2c-2.8,2-6.7,2-10.1,2.2c-4.8,0.4-9.5,0.8-14.3,0.8
		C327.3,182.7,323.4,182.7,319.6,182.3z M346.2,206.7c-4.2,2.8-8.7,4.2-13.7,4.8c-0.4,0-1,0.2-1.6,0.2c0,0-0.2,0-0.2-0.2
		c0,0.2-0.2,0.2-0.2,0.2c-0.6,0-1.2-0.2-1.8-0.2c-0.8-0.2-1.6-0.2-2.6-0.4c-1.2-3.2-2.6-6.1-3.8-9.3c-1.4-4.2-2.2-8.5-2.6-13.1
		c0-1.2-0.2-2.6-0.2-4c3.4,0.2,6.7,0.4,10.1,0.4c5.2,0.2,10.5-0.2,15.7-0.4c3.8-0.4,7.9-0.4,11.1-2.4c0.2,2.2,0.6,4.4,0.8,6.5
		c0.2,2.8,0.4,4.8-0.8,7.3C354.7,200.5,349.9,204.1,346.2,206.7z"/>
	<path fill="#221F1F" d="M94.6,218.8c0,1.6,0.2,3,0.2,4.6c0.6,4.4,1.8,8.7-0.4,12.9c-2,3.4-1.2,6.9-1.2,10.7c0,4.4,0,8.5,0.4,12.9
		c0.2,4-0.2,8.3,1.4,11.9c0.4,1.2,1.2,2.4,1.8,3.4c6-0.2,25.4,3.4,20.4,10.7c-1.6,2.2-4.6,3.2-7.1,3.8c-2.6,0.8-5.2,1.2-7.7,1.4
		c-10.3,1.2-20.8,1.4-31.1-0.4c-2.8-0.6-12.3-2-10.7-6.7c1.2-3,5.8-5,8.3-6c3.8-1.6,7.9-2.8,12.1-2.6c0.8-1.2,1.4-2.2,2-3.6
		c1.6-3.6,1.2-7.9,1.4-11.9c0.4-4.4,0.4-8.5,0.4-12.9c0-3.8,0.8-7.3-1.2-10.7c-2.2-4.2-1-8.5-0.4-12.9c0.2-1.6,0.2-3,0.2-4.6
		c0,0-0.2,0-0.4,0c-1.4-0.6-2.8-1.2-4.2-1.2h-0.4c-0.6-0.8-1.2-0.6-1.6-0.8c-2.6-1-5-2.4-7.3-4c-4.8-2.8-9.1-6.5-11.9-11.5
		c-3.2-5.6-3-11.7-1.6-18.1c1-5,1.8-9.9,3-14.9c0-1.4,0.4-2.8,0.8-4.2c-0.2-0.6,0-1.4,0.6-1.8c0.2-0.4,0.4-0.8,0.6-1.2
		c0,0,0-0.2,0.2-0.2c0-0.2,0.2-0.4,0.2-0.4c1.2-1.6,2.6-2.8,4.8-3.8c6.9-3,15.1-4,22.6-4.2c7.7,0,17.1,0.2,23.8,4.4
		c1.6,1,2.8,2.2,3.8,3.6c0.2,0,0.6,0,0.6,0.4c0.2,0.4,0.4,1,0.6,1.4c1,2.2,1.6,4.6,1.8,6.9c1.2,4.6,2,9.3,2.8,13.9
		c1.4,6.3,1.6,12.5-1.6,18.1c-2.8,5-7.1,8.7-11.9,11.5c-2.4,1.6-4.8,2.8-7.3,3.8c0,0,0,0-0.2,0c-0.4,0.4-1,0.6-1.6,1
		C98,218.2,96.2,219,94.6,218.8z M99.2,212.8c2.4-0.8,4.6-1.8,6.5-3c4.4-2.6,8.3-6,10.9-10.3c3.2-5.2,2.4-11.1,1.4-16.7
		c-0.8-4.8-1.2-9.3-1.8-14.1c-0.2-0.6-0.4-1-0.6-1.4c-9.9,5.8-22.6,5-33.7,4.2c-4.6-0.4-9.3-0.8-13.9-1.8c-2.2-0.6-4.4-1.2-6.2-2.6
		c-0.6,5.2-1.2,10.5-2,15.7c-1,5.6-1.8,11.5,1.4,16.7c2.6,4.4,6.5,7.7,10.9,10.1c2,1.4,4.2,2.4,6.5,3.2c1.6,0.6,3.8,0.8,5.2,2
		c1,0.4,2,1.2,2,2h0.6c0,1.6,0,2.8-0.2,4.2c-0.2,2.6-0.6,5.2-0.8,7.7c-0.2,2.6,0,4.2,1.2,6.3c2,3.8,1.2,7.5,1.2,11.3
		c0,4.6-0.2,9.1-0.4,13.7c-0.4,4,0,8.5-1.6,12.3c-1.2,2.8-3.4,5.2-5.2,7.5c0.6,0.2,1.4,0.4,2.2,0.4c1,0.2,2,0.2,2.6,0.8
		c0.4,0.4,0.2,0.8-0.2,1c-1,0.4-2.4,0.2-3.6-0.2c-1-0.2-1.8-0.6-2.4-1.4c-0.2-0.2-0.4-0.4-0.4-0.8c0.2-1.2,0.6-2,1.2-3
		c-4.4,0.6-8.7,1.8-12.5,3.8c-0.8,0.4-2.6,1.2-3.8,2.2c0.8,4,6.9,4,10.1,4.2c5,0.2,9.9,0,14.9,0c5.6-0.2,11.1-0.4,16.7-1
		c2-0.2,4-0.6,5.9-1.2c1.2-0.4,2.6-1,3.6-2c-1.6-2.2-5.6-3-7.9-3.6c-2.8-0.6-6-1.6-8.9-1.6c0.4,0.8,0.6,1.4,0.8,2.2
		c0.2,0.6-0.6,1-1,0.8c0,0.2,0,0.4-0.2,0.4c-1,1.2-3,0.6-4.4,0.6c-0.8,0-0.8-1.2,0-1.2c1.2-0.2,2.8-0.6,4-0.2c-0.6-1-1.4-1.8-2-2.6
		c-0.2-0.2-0.2-0.4-0.4-0.6c-1.2-1.4-2.2-2.8-3-4.6c-1.6-3.8-1.2-8.3-1.6-12.3c-0.2-4.6-0.4-9.1-0.4-13.7c0-3.8-0.8-7.5,1.2-11.3
		c1.2-2.2,1.4-3.8,1.2-6.3c-0.2-2.6-0.6-5.2-0.8-7.7c-0.2-1.4-0.2-2.6-0.2-4.2h1c0,0,0.4-1,1-1.2c0-0.2,0.2,0,0.2-0.2
		C94.8,213.8,97.4,213.6,99.2,212.8z M110.7,286.6c-1.4,0.4-2.8,0.4-3.8,0.4c-6.2,0.4-12.5,1-18.7,1c-5.6,0-11.5,0.4-17.1-0.4
		c-3-0.4-7.3-1-7.9-4.6c-1.2,1.2-1.8,2.4,0.2,3.4c2.4,1.4,5.2,2,7.7,2.4c10.5,1.6,20.8,1,31.1-0.4c2.6-0.4,5.2-0.8,7.7-1.6
		C110.3,286.8,110.5,286.8,110.7,286.6z M69.4,200.3c0.2,1.4,0.6,2.8,0.8,4c-2.8-2.2-5.8-5-7.1-8.1c-1-2.6-1-4.6-0.6-7.3
		c0.2-2.6,0.6-5,0.8-7.5c1.2,1.2,3.2,1.6,5,2C68,189,68.4,194.8,69.4,200.3z M63.2,164c1.4,2.4,5.6,3,7.9,3.6c4.6,0.8,9.3,1,13.9,1
		c9.7,0.2,20.4,1,29-4.4c0,0,0,0,0-0.2c-1-1.6-2.4-3.2-4.6-4.2c-6.3-3-13.9-3.4-20.8-3.2c-6.5,0-13.5,0.8-19.6,3
		c-2,0.6-3.8,1.4-5.2,3C63.6,163,63.4,163.4,63.2,164z M68,181.1c-1.2-0.2-2.4-0.4-3.4-1c1.2-0.4,2.4-0.8,3.8-1.2
		c0,0.8-0.2,1.6-0.2,2.2H68z M78.3,201.1c1,3.2,2.4,6.3,3.8,9.3c-1.4-0.4-2.8-0.8-4.2-1.4c-1-3.2-1.8-6.3-2.6-9.7
		c-0.8-5-1.2-10.1-1.2-15.1c0.6,0,1.2,0,1.8,0.2c0,1.4,0,2.8,0,4.2C76.3,193,76.9,197.2,78.3,201.1z M75.2,182.1
		c-0.4,0-0.6,0-0.8-0.2c0-1.4,0-2.8,0.2-4.4c0.6,0,1-0.2,1.6-0.2c-0.2,1.6-0.2,3.2-0.2,4.8C75.5,182.1,75.4,182.1,75.2,182.1z
		 M77.9,182.3c0-1.8,0.2-3.6,0.2-5.4c3.6-0.4,7.1-0.6,10.7-0.6c4.4,0,8.9,0,13.3,0.6c3.8,0.4,7.5,1.6,11.5,2.6
		c0,0.2,0.2,0.2,0.2,0.2c-2.8,2-6.7,2-10.1,2.2c-4.8,0.4-9.5,0.8-14.3,0.8C85.7,182.7,81.7,182.7,77.9,182.3z M104.5,206.7
		c-4.2,2.8-8.7,4.2-13.7,4.8c-0.4,0-1,0.2-1.6,0.2c0,0-0.2,0-0.2-0.2c0,0.2-0.2,0.2-0.2,0.2c-0.6,0-1.2-0.2-1.8-0.2
		c-0.8-0.2-1.6-0.2-2.6-0.4c-1.2-3.2-2.6-6.1-3.8-9.3c-1.4-4.2-2.2-8.5-2.6-13.1c0-1.2-0.2-2.6-0.2-4c3.4,0.2,6.7,0.4,10.1,0.4
		c5.2,0.2,10.5-0.2,15.7-0.4c3.8-0.4,7.9-0.4,11.1-2.4c0.2,2.2,0.6,4.4,0.8,6.5c0.2,2.8,0.4,4.8-0.8,7.3
		C113,200.5,108.3,204.1,104.5,206.7z"/>
	<g>
		<path d="M80.2,349.4c-7,2.8-12.9,7.1-18.5,11.3c-4.4,3.3-10.9,7.4-11.2,12.5c0,0.7,0.8,1.2,1.7,1.2c6.3-0.5,11.3-5.2,15.7-8.2
			c5.6-3.9,11.9-7,17.5-10.8C89.1,352.9,84.9,347.5,80.2,349.4z"/>
		<path d="M73.7,333.9c4.7,3.1,6.5,5.5,12.6,5.3c1.4,0,2.6-1.2,2.7-2.2C89,329.8,75,324.4,68,320.4c-6.8-3.9-17.4-12.5-26.4-11.8
			c-0.5,0-1,0.4-1,0.8c0.1,6.9,12.6,12.2,19.1,16C64.5,328.2,69.2,331,73.7,333.9z"/>
		<path d="M347.1,338.2c-0.8,2.2,2,4.4,5,3.5c7.4-2.3,12.8-9.4,17.9-14c3.9-3.6,13.5-9.3,12.1-14.4c-0.1-0.4-0.5-0.6-0.9-0.6
			c-6.9-1.2-13,6.1-17,9.4C358.6,326.6,349.2,332.2,347.1,338.2z"/>
		<path d="M389.5,373.3c-0.7-5.3-6.6-10.8-11.4-14.6c-2.9-2.3-6.1-4.4-9.2-6.6c-3.3-2.3-5.9-5-10.5-5c-2.5,0-4,1.2-3.8,3.2
			c0.4,3.1,2.9,4.2,5.8,6.3c3.4,2.3,6.9,4.5,10.1,7c4.9,3.7,8.7,8.9,14.1,12.1C387.1,377,389.7,375.2,389.5,373.3z"/>
		<path d="M365.3,384.9c-0.3-0.7-1-1.4-1.6-1.9c-12.7-10.8-25.4-21.8-39-32c-1-0.8-4.5-4.4-6-4.4c0.9,0,3.8-4,4.3-4.5
			c7.1-7.5,14.3-15,21.4-22.5c1.7-1.8,17-15,11.8-16.7c-10.9-3.5-23.2-4.2-34.8-4.6c-11.6-0.5-23.2-0.3-34.7-0.1
			c-24.1,0.3-48.3,0.2-72.4,0.1c-24.5-0.1-49-0.3-73.5-0.5c-11.8-0.1-23.6-0.2-35.4-0.1c-12.1,0.1-24.1-0.5-36.2-0.5
			c-4,0,0.8,4.1,1.8,5.1c4.2,4.3,8.6,8.5,12.8,12.8c5.6,5.8,10.8,11.7,15.9,17.8c2.6,3.1,6,6.1,7.3,9.6c2.3,5.9-5.1,12.3-8.8,16.9
			c-3.8,4.8-7.7,9.5-11.8,14.2c-0.8,1-9.3,10.5-5.8,10.8c23.1,2.2,46.6,2.1,69.8,2.6c24.3,0.5,48.5,1,72.8,1.5
			c23.1,0.5,46.1,1,69.2,1.1c13.5,0,27-0.3,40.5-0.7c6.7-0.2,13.5-0.4,20.2-0.7C355.7,388.2,366.6,388.6,365.3,384.9z M237.1,370.4
			c0,9.2-13.5,10.2-13.7,0.1c0.1-12.6,3.1-55.6-4.4-55.6c-7.4,0-9.8,46.3-9.8,54.8c0,10.4-14.3,10-13.9,0.8c0.3-8,4.3-56.6-6.7-56.8
			c-2.1,0-4.1,2.6-5.7,8.4c-3,11.4-4.1,35.2-4.5,47.2c0.4,10.5-13.6,12.8-13.6,0.4v-56.2c0-10.6,13.7-10.2,13.7,0v2.5
			c3.1-7,6.9-10.4,11.9-10.4c9.6,0,13.9,7.9,16.5,18.3c2.1-9.3,6.3-18.1,14-18.1C242.4,305.7,237.1,345.2,237.1,370.4z M270.1,339.5
			c7.1,0,7.1,7.4,0,7.4h-11.3v23.3h18.7c7,0,7.1,7.4,0,7.4H252c-1.8,0-3.5-0.6-4.8-1.9c-1.4-1.4-2.1-3.4-2.1-6.1v-56.2
			c0-3.5,1.2-5.8,3.5-7c1-0.5,2.1-0.8,3.4-0.8h25.5c7.1,0,7,7.5,0,7.5h-18.7v26.4H270.1z"/>
	</g>
	<g>
		<g>
			<path d="M95.4,68.1c3.7,16,3,32.2-2.1,48.2c-4.9,16.2-14.1,24.2-27.7,24.2c-3.3,0-5.7-0.9-7.1-2.4c-3.1,2.4-6.3,3.1-9.9,1.9
				c-3.7-1.4-5.4-4.7-5.4-9.9V54.5c0-5.6,1.9-8.9,5.7-10.1c4-1.2,7.5-0.3,10.3,2.8C62,45,66,43.8,71.5,43.8
				C83.7,43.8,91.5,51.9,95.4,68.1z M68,54c-2.3,0-4.9,0.9-6.6,3.5c-0.5,9.2,0.2,26.3,0.2,40v31c1.2,1.2,2.8,1.9,4.5,1.9
				C86.8,130.4,92.4,54,68,54z"/>
			<path d="M131,108.6c-1.9,0.2-4,0.3-6.1,0.3v21c0,4.5-1.6,7.7-4.7,9.2c-3,1.6-6.1,1.6-9,0.2c-3.1-1.6-4.7-4.7-4.7-9.4V54.5
				c0-5.7,3.7-10.8,12.5-10.8c28.4,0,40.7,8.9,41.1,31c0.2,14.1-5.9,24.5-16.4,29.9c4.2,10.1,7.8,20,12.3,29.9
				c1.6,6.3-8.5,10.8-12.2,4.9C139.4,129.7,134.8,118.7,131,108.6z M124.9,99.4c16.5,0,23.8-11.8,24.2-24.7
				c0.2-11.8-6.4-18.6-24.2-18.6V99.4z"/>
			<path d="M203.9,48.4c-0.5,0.5-1.2,0.9-2.1,0.9h-5.4c-0.2,28.5-0.3,57.1-0.3,85.4h5.7c0.9,0,1.6,0.3,2.1,0.9c0.7,0.5,1,1.2,1,1.9
				c0,0.7-0.3,1.4-1,1.9c-0.5,0.5-1.2,0.9-2.1,0.9h-29.6c-0.9,0-1.6-0.3-2.1-0.9c-0.7-0.5-0.9-1.2-0.9-1.9c0-0.7,0.2-1.4,0.9-1.9
				c0.5-0.5,1.2-0.9,2.1-0.9h5.4c0-28.4,0.2-56.9,0.2-85.4h-5.6c-0.9,0-1.6-0.3-2.1-0.9c-0.7-0.5-0.9-1.2-0.9-1.9
				c0-0.7,0.2-1.4,0.9-1.9c0.5-0.3,1.2-0.7,2.1-0.7h29.6c0.9,0,1.6,0.2,2.1,0.7c0.7,0.5,1,1.2,1,1.9
				C204.9,47.2,204.6,47.9,203.9,48.4z"/>
			<path d="M269.1,130.7c0,12.7-18.6,12.7-18.6,0c0.3-16.9,4.2-74.6-5.7-74.6c-10.1,0-12.3,62.1-12.3,73.6c0,14.3-18.4,13.9-18.4,0
				V54.2c0-4.5,1.6-7.7,4.7-9.2c3-1.6,6.1-1.6,9,0.2c3.1,1.6,4.7,4.5,4.7,9v3.7c3.1-9.2,9-14.1,14.8-14.1
				C276.1,43.8,269.1,97.2,269.1,130.7z"/>
			<path d="M298.9,111.8v18.1c0,14.1-18.4,14.4-18.4,0V54.4c0-14.3,18.4-13.7,18.4,0v32.7c6.6-11.7,15.7-27,22.3-38.1
				c5-8.7,13.2-5.6,9.7,4.5c-1.6,4.5-26.1,44.7-26.6,45.9c6.3,8.7,17.7,21.6,23.5,30.4c5.6,8.7-3.3,14.4-9,6.4
				C313.1,128.5,304.8,119.6,298.9,111.8z"/>
			<path d="M342.7,61c7.8-25,47-24.9,41.6,0.5c-0.9,3.8-6.6,4.3-6.6-0.7c0-14.3-19.3-11.5-18.1,4.5c1.7,21.2,35,23.7,31.5,50.6
				c-2.1,16.7-15,25-28.2,24.9c-11.5,0-22.4-6.6-24-22.8c-0.3-4.3,7.7-8,8.7,0.2c2.6,19.7,28.5,13.2,27.8-1.7c-0.3-4.5-2.8-9.2-8-13
				C351.9,92.3,337.3,78,342.7,61z"/>
		</g>
	</g>
	<g>
		<g>
			<path d="M209.4,227.3c-0.6,6-1.3,11.9-2.5,17.8c-1.2,6.1-2.8,12.3-5.5,18.2c-1.7,3.8-3.7,7.5-7.1,10.5c-1.6,1.4-3.3,2.5-5.4,3.2
				c-2.4,0.9-4.9,1.1-7.5,1.2c-1.8,0.1-4.3-0.3-6-0.8c-1.2-0.4-2.4-0.8-3.5-1.3c-2-1.1-3.9-2.4-5.5-4c-3-2.9-5.1-6.3-6.9-9.8
				c-2.1-4.2-3.6-8.6-5.1-13c-0.5-1.4-0.8-2.9-1.2-4.3c-0.3-1.1-0.6-2.1-0.8-3.2c-1.1-5.8-2.2-11.5-2.6-17.3c-0.2-3-0.4-6-0.5-9
				c0-1.6-0.1-3.2-0.1-4.7c0.1-1.4,0.1-2.9,0.2-4.3c0.2-3,0.5-6,0.9-9.1c0.1-1.2,0.4-2.3,0.6-3.4c0.3-1.5,0.6-3.1,1-4.6
				c1.1-4,2.3-8.1,4.2-12c1.7-3.3,3.6-6.8,6.6-9.4c1.7-1.5,3.5-2.8,5.7-3.8c4.9-2.1,11.4-3.7,16.9-3c2.4,0.3,4.6,0.8,6.7,1.7
				c1.6,0.7,3,1.5,4.3,2.5c2.6,2,4.7,4.4,6.3,7c2,3.4,3.4,7.1,4.3,10.8c1.1,4.8,2,9.7,2.3,14.6C210.2,207.5,210.3,217.4,209.4,227.3
				z M198.7,196.3c-0.4-3-0.8-6-1.4-9c-0.6-2.7-1.4-5.3-2.3-7.8c-1.6-3.8-6-12.9-12.2-12.5c-7.2,0.5-10,8.2-11.9,12.8
				c-0.6,1.5-1.1,3-1.5,4.6c-0.7,2.5-1.3,4.9-1.7,7.4c-0.3,1.4-0.6,2.7-0.7,4.1c-0.3,2.7-0.7,5.4-0.8,8.2c-0.1,2.9-0.3,5.9-0.3,8.8
				c0,3,0.1,5.9,0.3,8.9c0.8,11.9,2.9,23.8,7.1,35.2c2.1,5.2,4.6,10.5,9.1,14.6c0.1,0.1,0.2,0.2,0.4,0.2c0.5-0.3,0.9-0.5,1.3-0.9
				c4.7-4.2,7.1-9.6,9.2-14.9c0,0.1,0,0.1-0.1,0.2c1-3.1,1.8-6.1,2.6-9.2c0.7-2.7,1.1-5.4,1.6-8.1c0.4-2.7,0.9-5.3,1.1-8
				c0.6-5.9,1-11.8,1-17.8C199.5,207.6,199.4,201.9,198.7,196.3z"/>
			<path d="M278.7,208.6c-0.3,10.9-0.7,21.8-1,32.7c-0.1,5.6-0.3,11.1-0.4,16.7c0,2.8-0.1,5.5-0.1,8.3c0,1.5-0.1,3-0.2,4.5
				c-0.1,1.6-0.6,3.1-1.1,4.6c-0.1,0.7-0.5,1.2-1.3,1.6c-0.5,0.2-0.9,0.4-1.4,0.6c-1.3,0.4-2.5,0.5-3.9,0.5c-1.7,0-3.8-0.2-5.3-1.1
				c-0.8-0.4-1.2-0.9-1.3-1.6c-0.4-1.7-0.8-3.3-0.9-5.1c-0.1-1.5-0.1-3-0.1-4.5c0-2.9,0.1-5.8,0.2-8.7c0.2-5.8,0.4-11.6,0.6-17.4
				c0.5-11,1.2-22.1,1.7-33.1c0.3-5.7,0.4-11.3,0.5-17c0-2.5,0-5-0.1-7.5c-0.3-5.1-0.5-10.3-2.3-15.3c0,0,0,0,0,0
				c-2.1,2.6-3.5,5.6-4.8,8.5c-0.7,2-1.5,4-2.1,6c-0.7,2.4-1.3,4.8-1.8,7.2c-1,4.7-1.7,9.4-2.3,14.2c-1.4,11.1-2.1,22.3-2.8,33.5
				c-0.3,5.2-0.5,10.4-0.9,15.5c-0.2,2.9-0.4,5.7-0.7,8.6c-0.2,2-0.3,4.1-0.6,6.1c-0.1,0.9-0.3,1.7-0.4,2.6
				c-0.1,0.7-0.1,1.4-0.3,2.1c-0.2,0.6-0.3,1.6-0.8,2.1c-0.5,0.5-1.2,1-1.8,1.5c-1,0.5-2.1,0.8-3.3,1c-1.4,0.2-2.8,0.2-4.2,0
				c-1.4-0.2-3.4-0.6-4.2-1.7c-0.8-1-1.3-2-1.7-3.1c-0.3-0.8-0.5-1.6-0.7-2.4c-0.2-0.9-0.4-1.8-0.6-2.8c-0.4-1.5-0.6-3-0.9-4.6
				c-0.5-2.9-0.9-5.7-1.2-8.6c-0.7-6.6-1.3-13.2-1.8-19.9c-0.9-11.3-1.5-22.5-1.9-33.8c-0.2-5.1-0.3-10.3-0.2-15.4
				c0.1-3.1,0.1-6.2,0.3-9.3c0.1-1.4,0.2-2.7,0.3-4.1c0.1-0.9,0.2-1.9,0.5-2.8c-0.2-0.8,1.4-1.4,2-1.6c0.9-0.3,1.9-0.4,2.9-0.4
				c1.5,0,3.7,0.3,4.7,1.4c0.5,0.6,0.7,1.4,0.8,2c0.2,0.7,0.3,1.3,0.4,2c0.2,1.6,0.4,3.3,0.5,4.9c0.3,2.9,0.4,5.8,0.6,8.8
				c0.4,6.5,0.8,13,1.2,19.5c0.5,7.2,1,14.3,1.6,21.5c0.9-10.7,1.9-21.4,3.7-32c0.9-5.3,2.2-10.6,4-15.7c0.8-2.3,1.6-4.6,2.7-6.8
				c1.6-3.2,3.3-6.6,6.5-8.9c1-0.7,2.1-1.4,3.3-1.7c1.4-0.4,2.7-0.6,4.2-0.7c0.3,0,0.6,0,0.9,0c1,0,2,0.1,3,0.2
				c1.1,0.2,2.7,0.6,3.6,1.2c1.6,1,3,2.2,3.8,3.7c0.9,1.5,1.5,3.2,2,4.8c1.4,4.6,1.8,9.2,2.3,13.8c0.2,2.4,0.3,4.9,0.3,7.4
				C278.9,196.6,278.8,202.6,278.7,208.6z"/>
		</g>
	</g>
</g>
</svg>


