<?xml version="1.0" standalone="no"?>
<!DOCTYPE svg PUBLIC "-//W3C//DTD SVG 20010904//EN"
 "http://www.w3.org/TR/2001/REC-SVG-20010904/DTD/svg10.dtd">
<svg version="1.0" xmlns="http://www.w3.org/2000/svg"
 width="5000.000000pt" height="5000.000000pt" viewBox="0 0 5000.000000 5000.000000"
 preserveAspectRatio="xMidYMid meet">

<g transform="translate(0.000000,5000.000000) scale(0.100000,-0.100000)"
fill="#000000" stroke="none">
<path d="M35803 41455 c-220 -40 -386 -142 -501 -308 -83 -120 -163 -294 -198
-427 -25 -97 -24 -247 3 -335 84 -271 371 -477 787 -567 135 -29 442 -32 551
-5 161 40 275 128 393 305 150 225 233 479 233 715 1 282 -108 437 -364 516
-91 28 -376 89 -501 106 -123 18 -306 18 -403 0z"/>
<path d="M41065 41415 c-211 -44 -382 -219 -393 -403 -7 -97 14 -139 131 -260
108 -113 130 -150 171 -295 68 -236 105 -485 113 -767 6 -203 -3 -440 -16
-440 -3 0 -51 41 -106 91 -270 245 -459 369 -669 438 -127 42 -189 51 -342 51
-186 0 -364 -36 -555 -114 -467 -188 -910 -556 -1221 -1011 -98 -145 -151
-238 -242 -425 -152 -315 -241 -624 -282 -976 -23 -197 -15 -580 15 -749 59
-329 157 -580 323 -830 393 -590 1041 -958 1683 -956 251 0 493 46 770 146
154 55 431 187 594 284 250 148 260 147 388 -4 122 -144 226 -228 373 -304
416 -215 885 -166 1252 129 289 233 443 586 384 880 -41 199 -168 333 -363
385 -139 37 -361 13 -544 -60 -50 -20 -92 -35 -94 -33 -5 5 -53 408 -69 583
-35 362 -41 520 -41 1020 1 640 11 799 105 1605 27 234 54 477 60 541 30 318
28 759 -5 914 -60 288 -187 467 -373 526 -57 18 -106 22 -337 30 -574 19 -636
19 -710 4z m-774 -2545 c201 -21 439 -93 559 -170 70 -45 154 -140 189 -214
37 -77 58 -162 71 -295 12 -118 -3 -1043 -20 -1181 -36 -307 -192 -493 -541
-646 -126 -56 -380 -143 -509 -175 -128 -31 -391 -34 -485 -6 -321 99 -583
422 -671 827 -27 127 -30 335 -6 476 62 360 247 703 546 1011 249 258 462 368
737 382 15 0 73 -4 130 -9z"/>
<path d="M4630 41254 c-292 -35 -501 -96 -735 -214 -489 -246 -786 -629 -877
-1129 -30 -165 -30 -488 0 -682 52 -339 133 -614 248 -839 96 -189 190 -316
351 -471 282 -272 630 -465 1363 -754 295 -117 388 -160 494 -229 143 -93 244
-214 289 -345 27 -78 33 -217 13 -311 -9 -42 -36 -116 -62 -169 -38 -78 -62
-110 -133 -182 -73 -73 -100 -93 -181 -132 -436 -210 -938 -68 -1369 389 -240
254 -454 600 -595 964 -75 192 -89 221 -128 265 -121 139 -351 76 -453 -125
-71 -140 -99 -365 -99 -800 -1 -308 1 -345 23 -465 88 -494 289 -816 613 -985
249 -131 504 -176 1245 -221 246 -15 729 -7 871 15 471 72 860 248 1180 536
136 122 220 219 317 365 315 472 389 1087 189 1583 -87 219 -206 394 -394 583
-324 325 -698 533 -1400 779 -220 78 -431 179 -537 259 -138 104 -241 240
-290 384 -37 110 -39 248 -5 349 55 160 194 304 387 401 92 46 219 90 325 113
123 27 478 27 600 0 324 -71 549 -226 680 -468 50 -94 87 -202 146 -428 83
-322 126 -420 198 -454 136 -64 280 65 340 304 27 110 65 355 81 519 16 160
21 550 10 682 -32 375 -72 550 -156 680 -119 186 -373 244 -507 116 -19 -18
-52 -62 -74 -99 -22 -37 -58 -83 -79 -103 -60 -53 -102 -50 -291 26 -328 131
-656 225 -943 270 -109 17 -192 22 -380 24 -132 2 -256 1 -275 -1z"/>
<path d="M9171 41189 c-175 -21 -290 -69 -380 -158 -104 -101 -136 -192 -205
-591 -125 -725 -197 -1371 -241 -2175 -8 -148 -20 -288 -26 -310 -36 -127
-142 -217 -290 -245 -30 -6 -138 -15 -242 -20 -195 -10 -253 -19 -326 -53 -95
-44 -178 -167 -169 -251 7 -58 32 -93 102 -138 108 -70 289 -115 630 -158 181
-23 247 -39 297 -72 72 -49 87 -131 54 -313 -91 -513 82 -1060 455 -1435 311
-313 768 -488 1220 -467 417 20 711 166 710 354 0 68 -35 110 -170 208 -142
101 -322 271 -415 390 -245 314 -409 725 -410 1032 0 105 1 113 25 138 14 15
41 35 60 45 76 38 134 44 470 46 363 1 386 4 518 71 89 44 188 137 223 208 34
70 34 180 0 248 -57 116 -189 195 -362 217 -68 8 -125 6 -307 -11 -348 -32
-456 -11 -514 100 -37 71 -36 118 7 371 121 693 171 1236 181 1940 7 437 -4
704 -31 781 -46 132 -173 202 -425 233 -166 20 -348 27 -439 15z"/>
<path d="M32029 39935 c-246 -40 -445 -116 -635 -243 -386 -259 -654 -693
-715 -1157 -15 -114 -6 -374 15 -475 68 -311 211 -582 425 -804 133 -138 246
-222 412 -310 136 -71 264 -113 544 -176 373 -84 524 -143 662 -260 172 -144
255 -327 226 -496 -17 -99 -56 -169 -139 -251 -107 -106 -262 -175 -478 -213
-90 -15 -310 -12 -385 5 -128 31 -222 104 -283 222 -46 88 -71 177 -108 398
-49 284 -67 345 -139 469 -105 180 -306 327 -529 388 -105 29 -319 31 -407 5
-243 -74 -406 -215 -511 -443 -64 -139 -79 -215 -78 -424 0 -171 2 -193 28
-285 57 -207 175 -396 351 -563 277 -262 676 -444 1110 -508 149 -22 528 -25
690 -6 583 70 1284 285 1666 512 482 287 690 696 593 1170 -81 393 -370 736
-798 944 -154 75 -276 116 -580 192 -375 94 -504 149 -635 270 -84 78 -142
167 -177 271 -36 107 -32 221 11 309 55 112 183 205 352 255 104 32 300 37
424 11 168 -35 330 -114 461 -225 84 -72 163 -179 230 -314 35 -69 78 -141 95
-159 85 -86 200 -32 254 120 31 90 50 315 56 666 6 364 -12 671 -47 781 -34
110 -101 169 -193 169 -58 0 -93 -28 -140 -113 -40 -70 -69 -101 -110 -116
-72 -28 -137 -5 -324 114 -216 139 -365 202 -593 252 -96 21 -148 25 -315 29
-140 2 -226 -1 -286 -11z"/>
<path d="M15715 39854 c-11 -2 -45 -9 -75 -15 -30 -6 -93 -29 -140 -51 -151
-73 -260 -209 -276 -348 -14 -123 29 -189 188 -289 125 -78 147 -96 199 -161
78 -96 135 -250 163 -442 31 -212 78 -1047 97 -1733 18 -654 4 -1922 -27
-2390 l-5 -90 -127 0 c-103 -1 -140 -5 -196 -23 -115 -37 -185 -80 -272 -167
-132 -132 -194 -281 -194 -466 0 -209 91 -409 261 -576 137 -135 289 -222 463
-268 472 -122 1056 198 1340 735 107 203 152 392 143 595 -7 150 -28 227 -112
406 -35 75 -74 166 -86 200 -39 117 -36 220 10 278 l19 25 43 -18 c132 -55
195 -78 273 -100 300 -87 657 -93 1001 -15 379 85 772 290 1046 545 603 561
938 1402 940 2364 1 552 -93 931 -312 1260 -77 116 -250 291 -372 377 -232
163 -533 276 -840 313 -127 16 -421 8 -547 -15 -484 -88 -918 -316 -1343 -707
-54 -50 -99 -89 -101 -87 -2 2 -27 47 -56 99 -281 503 -597 751 -980 765 -58
2 -114 2 -125 -1z m2508 -984 c189 -59 328 -205 441 -467 197 -454 236 -969
112 -1461 -113 -446 -359 -847 -587 -955 -41 -19 -105 -42 -144 -50 -183 -41
-628 -55 -742 -24 -197 53 -271 162 -305 455 -18 162 -18 1784 1 1867 27 120
79 192 215 297 184 143 388 264 525 312 165 59 346 69 484 26z"/>
<path d="M36025 39533 c-170 -14 -798 -102 -876 -123 -150 -41 -219 -118 -219
-247 0 -95 37 -170 118 -243 61 -55 95 -75 252 -147 107 -50 119 -66 131 -186
16 -162 10 -663 -11 -1031 -44 -764 -45 -1112 -5 -1436 86 -691 345 -1104 787
-1259 207 -72 409 -64 593 23 197 93 317 270 286 422 -17 90 -53 138 -221 304
-125 124 -166 171 -204 236 -146 253 -196 571 -196 1244 0 507 32 880 125
1440 52 318 60 409 45 521 -32 238 -151 404 -331 460 -60 19 -190 29 -274 22z"/>
<path d="M13100 39453 c-227 -21 -463 -90 -663 -192 -557 -285 -987 -868
-1254 -1696 -100 -311 -133 -487 -133 -710 0 -213 27 -390 96 -635 101 -357
277 -687 476 -896 156 -163 274 -227 658 -354 454 -152 801 -213 1205 -213
404 0 760 71 1009 201 108 56 219 159 260 240 54 108 61 155 60 427 -1 375
-30 672 -75 774 -83 189 -298 208 -537 48 -51 -34 -139 -115 -262 -240 -212
-216 -290 -280 -410 -335 -127 -59 -203 -76 -350 -76 -136 0 -230 20 -336 70
-248 117 -432 374 -461 645 -11 109 38 177 144 200 46 9 95 9 243 -2 232 -18
800 -18 970 -1 275 28 583 76 700 109 183 52 273 159 301 362 21 146 -5 630
-46 874 -110 640 -430 1106 -895 1299 -199 83 -475 123 -700 101z m85 -1124
c96 -11 267 -42 326 -59 58 -16 102 -52 137 -110 85 -143 127 -359 86 -446
-53 -112 -217 -199 -419 -223 -169 -20 -635 -9 -803 20 -190 33 -251 97 -223
236 26 131 161 378 271 495 54 58 74 72 115 83 62 17 382 19 510 4z"/>
<path d="M45620 39453 c-153 -14 -346 -59 -489 -114 -560 -214 -1026 -733
-1322 -1475 -61 -155 -152 -435 -184 -568 -70 -287 -74 -550 -14 -851 109
-551 395 -1067 703 -1269 126 -83 393 -187 709 -276 652 -185 1285 -193 1797
-24 219 73 389 193 454 322 54 108 61 155 60 427 -1 375 -30 672 -75 774 -83
189 -298 208 -537 48 -51 -34 -139 -115 -262 -240 -212 -216 -291 -280 -410
-335 -125 -58 -212 -77 -355 -76 -130 0 -227 21 -331 70 -248 117 -432 374
-461 645 -11 109 38 177 144 200 46 9 95 9 243 -2 232 -18 800 -18 970 -1 275
28 583 76 700 109 183 52 273 159 301 362 21 146 -5 630 -46 874 -110 641
-430 1106 -895 1299 -199 83 -475 123 -700 101z m85 -1124 c96 -11 267 -42
326 -59 58 -16 102 -52 137 -110 85 -143 127 -359 86 -446 -53 -112 -217 -199
-419 -223 -169 -20 -635 -9 -803 20 -190 33 -251 97 -223 236 26 131 161 378
271 495 54 58 74 72 115 83 62 17 382 19 510 4z"/>
<path d="M26560 39394 c-474 -73 -884 -289 -1182 -621 -171 -191 -280 -423
-295 -628 -17 -216 89 -418 273 -521 219 -122 464 -88 639 90 96 98 130 169
166 353 41 207 75 266 189 323 92 46 172 64 295 64 132 0 205 -17 325 -76 217
-106 367 -359 358 -603 l-3 -80 -135 -7 c-731 -39 -1236 -156 -1635 -380 -399
-225 -703 -572 -828 -949 -48 -143 -67 -266 -67 -428 0 -323 93 -564 292 -757
297 -290 825 -408 1388 -310 435 75 791 249 1069 524 129 128 165 152 224 152
47 0 75 -25 153 -138 164 -238 332 -397 537 -510 305 -169 648 -169 935 0 31
18 95 71 142 118 131 130 190 261 190 422 0 261 -193 523 -433 588 -34 9 -80
11 -161 6 -128 -8 -158 -1 -180 43 -47 89 -66 399 -64 1011 2 524 -4 611 -62
857 -161 678 -724 1248 -1405 1422 -147 37 -275 51 -462 50 -98 -1 -216 -7
-263 -15z m992 -2516 c11 -76 13 -106 4 -114 -12 -12 -746 -413 -957 -523 -74
-38 -180 -88 -237 -111 l-102 -42 -228 32 c-125 17 -228 33 -230 34 -4 5 24
80 46 122 52 101 89 130 442 344 l235 142 150 39 c83 21 222 58 310 83 211 59
379 91 501 94 l51 2 15 -102z"/>
<path d="M9990 32804 c-25 -2 -103 -9 -175 -15 -595 -50 -1176 -248 -1655
-564 -661 -435 -1075 -1019 -1269 -1791 -182 -728 -166 -1633 44 -2429 190
-724 523 -1347 989 -1858 510 -558 1250 -882 2188 -958 197 -15 773 -7 968 15
741 83 1132 220 1403 490 298 296 446 727 464 1346 10 364 -23 593 -112 776
-154 317 -443 362 -712 110 -98 -91 -157 -165 -365 -454 -241 -334 -324 -438
-463 -577 -225 -225 -449 -356 -695 -407 -134 -28 -318 -21 -445 16 -331 99
-622 365 -799 731 -154 317 -246 727 -313 1395 -25 253 -25 981 0 1230 27 259
53 442 97 660 106 528 225 810 435 1029 96 101 175 158 288 211 108 51 200 72
312 72 256 1 428 -122 485 -347 19 -75 20 -105 18 -480 -2 -292 1 -426 10
-495 59 -420 187 -705 421 -941 301 -304 654 -397 1028 -274 196 65 328 148
484 304 120 120 190 218 260 365 125 262 178 548 166 891 -25 659 -254 1179
-633 1431 -322 214 -1059 426 -1739 499 -134 15 -590 27 -685 19z"/>
<path d="M25660 32764 c-25 -2 -184 -13 -355 -24 -698 -46 -2826 -200 -2900
-211 -321 -45 -468 -206 -399 -438 8 -30 42 -118 74 -198 165 -404 263 -827
316 -1368 21 -220 30 -973 15 -1316 -12 -265 -102 -1930 -121 -2239 -19 -293
-53 -525 -101 -670 -11 -36 -54 -148 -94 -250 -88 -220 -110 -315 -103 -447 4
-78 10 -103 37 -157 129 -263 551 -335 1266 -215 248 41 684 131 780 160 383
117 521 344 410 675 -14 42 -66 160 -115 264 -179 373 -247 661 -270 1139 -12
253 9 911 30 911 4 0 244 -117 535 -260 290 -143 555 -270 589 -281 160 -55
301 26 370 213 54 145 60 210 61 623 0 243 -5 425 -13 505 -28 271 -83 597
-122 724 -25 79 -83 148 -145 172 -68 26 -183 16 -266 -23 -104 -48 -166 -115
-304 -323 -136 -206 -196 -270 -298 -319 -140 -69 -256 -61 -345 23 -66 62
-92 144 -92 296 0 112 85 1654 96 1730 13 96 71 154 186 187 85 23 326 29 433
9 333 -62 629 -251 802 -513 64 -97 88 -149 182 -393 71 -182 115 -262 192
-344 208 -223 482 -198 629 58 39 70 85 211 105 326 31 184 46 1159 20 1335
-44 294 -168 471 -397 567 -123 52 -229 69 -448 73 -107 1 -215 1 -240 -1z"/>
<path d="M30840 32749 c-1950 -137 -2958 -211 -3020 -220 -269 -40 -410 -152
-410 -329 0 -70 17 -124 125 -400 161 -413 259 -908 295 -1500 13 -212 13
-788 0 -1090 -15 -344 -118 -2224 -131 -2370 -26 -321 -64 -486 -173 -758
-102 -255 -111 -290 -111 -442 0 -121 1 -128 32 -191 133 -270 548 -339 1294
-214 237 40 678 132 769 161 192 59 335 165 396 289 27 56 29 68 29 180 0 146
-6 165 -142 454 -215 459 -276 761 -276 1366 0 263 17 682 29 694 2 2 246
-115 543 -262 296 -146 565 -273 597 -283 106 -30 213 -1 279 77 116 139 152
364 142 884 -8 370 -34 619 -98 940 -36 177 -67 253 -123 301 -51 44 -102 57
-194 52 -102 -7 -199 -56 -278 -141 -60 -64 -76 -87 -199 -277 -117 -179 -235
-274 -374 -300 -129 -24 -237 33 -293 155 -19 41 -23 71 -26 175 -4 141 83
1735 98 1790 33 122 130 168 380 177 111 4 166 1 235 -11 387 -72 719 -315
875 -641 16 -33 56 -131 89 -217 80 -210 130 -304 206 -385 203 -219 459 -212
608 15 69 106 102 199 133 377 21 120 41 1080 26 1245 -36 400 -213 616 -567
692 -134 29 -421 32 -765 7z"/>
<path d="M33420 32619 c-192 -22 -402 -78 -482 -128 -71 -45 -102 -99 -106
-185 -5 -92 22 -164 119 -323 143 -233 192 -348 224 -528 37 -210 38 -386 28
-2675 -9 -1924 -13 -2224 -26 -2285 -33 -151 -68 -224 -207 -424 -225 -326
-160 -537 183 -597 114 -20 372 -14 552 12 158 23 468 23 660 0 77 -10 280
-39 450 -66 332 -53 580 -83 820 -100 415 -29 1531 -19 1731 15 120 21 214 65
269 127 69 77 80 122 79 328 -3 326 -84 1243 -140 1571 -37 220 -123 357 -247
394 -98 29 -181 10 -277 -62 -80 -59 -155 -150 -283 -341 -206 -307 -410 -489
-712 -637 -236 -116 -454 -171 -710 -181 -151 -6 -388 15 -409 36 -8 8 52 707
100 1180 24 232 59 342 134 423 72 79 171 110 267 84 74 -20 150 -69 265 -172
251 -224 327 -275 441 -296 197 -36 390 132 441 383 21 103 21 265 -4 813 -22
503 -32 620 -61 731 -40 155 -107 258 -200 309 -46 26 -65 30 -129 30 -102 0
-166 -33 -261 -132 -62 -65 -79 -94 -164 -267 -52 -106 -115 -220 -140 -253
-93 -125 -250 -189 -374 -153 -87 25 -146 103 -157 206 -4 34 16 365 46 789
41 584 55 737 68 765 27 56 67 70 202 70 325 0 659 -79 965 -229 151 -74 227
-121 405 -252 63 -46 144 -98 180 -114 59 -27 75 -30 166 -30 96 0 103 2 179
39 201 99 309 297 337 619 16 189 -11 861 -43 1062 -48 295 -228 419 -558 386
-57 -6 -510 -66 -1005 -133 -1201 -162 -1148 -162 -1524 1 -262 113 -447 166
-674 190 -111 13 -308 12 -418 0z"/>
<path d="M38950 32619 c-163 -19 -362 -69 -451 -115 -82 -41 -139 -128 -139
-211 0 -74 49 -187 158 -362 114 -185 160 -300 200 -505 14 -72 16 -335 19
-2331 3 -1455 0 -2307 -6 -2410 -16 -255 -52 -363 -180 -545 -103 -146 -149
-235 -167 -321 -41 -199 65 -310 335 -350 106 -15 362 -7 526 17 156 22 459
23 650 0 77 -9 282 -39 455 -66 464 -73 642 -92 1030 -110 415 -19 1358 -4
1524 25 212 37 318 131 346 308 19 123 -28 794 -101 1422 -44 382 -71 487
-148 590 -81 108 -219 142 -341 84 -104 -48 -220 -175 -362 -394 -160 -247
-345 -426 -585 -568 -176 -103 -401 -186 -608 -223 -169 -31 -576 -21 -632 14
-13 8 97 1220 122 1352 48 257 205 390 391 332 80 -25 153 -76 309 -217 213
-193 317 -250 448 -249 166 3 318 148 372 359 28 106 28 263 1 837 -27 561
-37 666 -77 788 -79 243 -258 346 -443 256 -121 -59 -185 -142 -314 -406 -71
-146 -102 -198 -147 -247 -152 -168 -394 -178 -477 -20 -17 33 -23 63 -25 142
-5 139 91 1475 109 1511 27 56 59 69 181 72 306 10 679 -75 982 -223 121 -59
215 -118 470 -295 130 -90 198 -114 310 -108 114 6 194 45 291 142 100 100
152 206 185 371 31 154 13 973 -26 1207 -35 208 -117 319 -273 369 -130 41
-203 35 -1242 -105 -514 -69 -978 -128 -1031 -132 -173 -12 -297 17 -549 128
-239 106 -448 165 -670 188 -112 11 -314 11 -420 -1z"/>
<path d="M17225 32209 c-742 -68 -1361 -310 -1895 -738 -223 -179 -450 -408
-650 -656 -993 -1233 -1253 -2715 -695 -3955 216 -481 566 -895 1003 -1187
155 -104 441 -246 618 -306 619 -213 1371 -264 2449 -166 990 89 1700 327
2225 745 126 100 323 303 422 434 338 448 531 963 615 1640 25 203 25 739 0
958 -94 826 -341 1507 -716 1972 -516 639 -1510 1121 -2571 1246 -160 19 -658
27 -805 13z m148 -994 c577 -49 884 -132 1156 -312 123 -82 299 -261 390 -397
249 -374 381 -828 480 -1651 73 -609 73 -1038 0 -1405 -120 -601 -501 -1094
-972 -1259 -175 -61 -268 -75 -512 -75 -239 0 -360 14 -659 75 -719 146 -1194
449 -1480 945 -118 205 -208 490 -251 804 -22 160 -31 550 -16 735 47 581 235
1152 544 1652 134 216 373 506 548 664 261 235 345 260 772 224z"/>
<path d="M34056 23959 c-164 -21 -306 -131 -306 -236 0 -55 9 -73 81 -151 97
-106 149 -239 170 -435 12 -105 5 -411 -16 -722 -8 -115 -22 -316 -30 -445
-32 -467 -19 -884 36 -1165 34 -176 31 -185 -100 -284 -115 -88 -192 -190
-233 -310 -28 -83 -30 -250 -4 -320 51 -138 160 -205 332 -203 139 1 270 47
410 142 41 28 87 53 103 56 21 4 58 -7 137 -41 342 -149 693 -138 1049 34 685
330 1162 1152 1086 1866 -52 478 -283 884 -639 1121 -358 239 -845 289 -1208
124 -37 -16 -68 -30 -68 -30 -1 0 -2 120 -2 268 -1 258 -10 390 -36 473 -16
57 -79 123 -144 154 -73 34 -301 91 -419 104 -104 12 -101 12 -199 0z m1508
-1670 c49 -13 115 -74 149 -137 15 -27 42 -102 61 -168 109 -382 91 -806 -50
-1176 -122 -322 -287 -479 -504 -479 -100 -1 -173 27 -245 92 -107 99 -132
188 -180 664 -42 402 -46 551 -21 640 41 139 127 248 296 373 232 173 369 226
494 191z"/>
<path d="M9170 23890 c-143 -39 -230 -112 -308 -259 -88 -165 -109 -281 -73
-397 11 -38 37 -90 56 -116 119 -161 398 -269 660 -255 158 9 235 44 323 150
57 69 137 233 162 332 25 99 28 241 5 304 -31 90 -106 155 -210 186 -240 69
-481 91 -615 55z"/>
<path d="M16281 23895 c-95 -21 -169 -61 -231 -125 -58 -59 -126 -177 -160
-276 -104 -302 99 -548 513 -620 110 -19 267 -14 342 12 106 36 187 121 266
279 62 126 89 232 90 350 0 139 -36 217 -129 276 -129 81 -527 142 -691 104z"/>
<path d="M29260 23860 c-146 -18 -241 -54 -312 -118 -57 -51 -215 -292 -223
-340 -10 -62 28 -224 76 -322 104 -211 292 -310 503 -267 126 26 216 74 305
165 168 168 183 326 61 619 -92 222 -197 289 -410 263z"/>
<path d="M40859 23859 c-107 -9 -228 -41 -342 -90 -406 -173 -605 -507 -633
-1065 -4 -95 1 -333 16 -715 13 -316 21 -586 17 -600 -4 -15 -15 -31 -24 -35
-10 -5 -88 -9 -173 -9 -137 0 -160 -2 -194 -21 -87 -45 -107 -126 -51 -205 41
-59 98 -85 245 -113 144 -28 155 -36 166 -124 11 -87 -3 -316 -26 -422 -11
-52 -38 -146 -59 -210 -61 -179 -73 -229 -78 -315 -9 -142 29 -213 126 -234
63 -13 136 -2 283 45 151 48 229 53 393 24 161 -29 240 -25 314 16 60 32 90
68 98 118 15 93 -40 175 -136 202 -77 22 -96 43 -120 132 -56 207 -109 549
-97 616 17 88 98 127 225 107 149 -23 201 -12 259 53 57 66 67 152 26 235 -31
61 -81 102 -156 127 -42 13 -71 15 -169 9 -117 -7 -119 -6 -143 18 -36 36 -41
98 -40 492 0 352 10 501 50 775 24 164 21 158 55 116 16 -19 60 -55 97 -79
226 -149 500 -124 683 64 177 181 206 421 84 686 -139 301 -364 431 -696 402z"/>
<path d="M3765 23725 c-90 -20 -130 -40 -184 -93 -66 -64 -85 -120 -131 -397
-72 -424 -119 -834 -140 -1235 -13 -246 -22 -303 -55 -350 -49 -71 -98 -87
-298 -101 -184 -12 -235 -30 -278 -98 -89 -140 18 -221 352 -266 200 -27 227
-33 266 -68 l36 -31 -9 -101 c-5 -55 -8 -165 -8 -245 1 -124 5 -159 28 -244
29 -107 94 -247 152 -329 244 -341 686 -497 1097 -385 169 45 261 159 196 242
-11 14 -63 58 -115 97 -192 145 -333 334 -417 559 -41 110 -67 225 -69 310 -1
50 2 64 22 85 13 14 40 30 59 36 20 7 144 15 276 18 219 7 244 9 290 30 116
52 194 156 182 243 -8 57 -49 113 -109 147 -72 41 -151 53 -273 41 -152 -15
-268 -12 -314 6 -81 32 -91 81 -57 276 81 466 110 796 110 1288 l1 385 -25 50
c-14 28 -40 60 -58 72 -92 61 -375 92 -527 58z"/>
<path d="M5348 23701 c-98 -39 -178 -135 -178 -211 1 -40 34 -101 94 -168 81
-91 114 -166 135 -302 27 -169 69 -1368 78 -2190 l6 -615 -29 -34 c-15 -19
-53 -45 -82 -58 -77 -34 -118 -68 -143 -119 -41 -85 -2 -182 90 -229 69 -34
259 -49 455 -35 160 11 390 50 466 79 212 81 251 204 149 469 -123 321 -144
458 -136 894 5 294 11 334 64 446 36 76 193 232 291 289 238 140 440 117 538
-62 45 -80 108 -278 139 -431 38 -186 55 -374 55 -609 0 -371 -43 -549 -181
-762 -64 -98 -64 -172 0 -260 35 -48 123 -96 216 -116 114 -25 335 -41 575
-42 253 0 299 8 386 68 70 48 107 113 112 193 4 57 0 72 -30 136 -20 40 -78
130 -130 199 -163 218 -228 372 -280 664 -20 108 -22 161 -24 528 -1 224 -5
437 -9 473 -32 303 -228 585 -502 723 -138 70 -270 96 -444 88 -159 -6 -253
-34 -437 -126 -141 -70 -224 -101 -274 -101 l-29 0 8 163 c4 89 8 293 8 452 0
346 -5 374 -74 446 -55 57 -102 72 -271 89 -63 7 -173 27 -245 46 -167 45
-298 53 -367 25z"/>
<path d="M11590 22941 c-210 -46 -359 -129 -506 -282 -186 -194 -288 -443
-286 -702 2 -125 13 -196 47 -296 88 -261 288 -485 528 -596 74 -34 148 -55
342 -100 239 -55 362 -118 444 -228 193 -258 -23 -527 -429 -530 -232 -3 -317
81 -365 358 -44 254 -70 321 -167 421 -102 106 -247 168 -393 167 -249 -2
-435 -173 -483 -443 -38 -215 35 -436 201 -609 154 -159 404 -288 657 -337
117 -22 366 -30 498 -14 151 17 332 55 508 105 525 151 795 339 890 621 24 72
26 89 22 204 -3 104 -9 139 -32 205 -72 210 -233 383 -466 500 -101 51 -152
68 -375 126 -228 59 -333 106 -405 179 -95 97 -134 234 -96 335 47 121 230
206 414 192 127 -10 234 -52 334 -129 78 -61 132 -129 177 -223 53 -111 93
-140 152 -110 67 35 89 142 96 470 9 390 -14 566 -79 609 -64 42 -119 23 -158
-55 -52 -100 -117 -96 -295 20 -85 56 -193 103 -303 133 -113 30 -355 35 -472
9z"/>
<path d="M18670 22941 c-210 -46 -359 -129 -506 -282 -141 -146 -232 -324
-274 -532 -14 -71 -14 -261 0 -337 69 -368 361 -687 715 -779 44 -11 136 -34
205 -50 165 -39 249 -71 326 -127 151 -107 211 -268 150 -399 -40 -86 -142
-164 -266 -201 -79 -24 -229 -36 -299 -25 -175 28 -232 109 -285 404 -31 172
-47 224 -91 292 -97 151 -280 249 -460 248 -249 -2 -435 -173 -483 -443 -38
-215 35 -436 201 -609 154 -159 404 -288 657 -337 117 -22 366 -30 498 -14
151 17 332 55 508 105 525 151 795 339 890 621 24 72 26 89 22 204 -3 104 -9
139 -32 205 -72 210 -233 383 -466 500 -101 51 -152 68 -375 126 -228 59 -333
106 -405 179 -95 97 -134 234 -96 335 47 121 230 206 414 192 127 -10 234 -52
334 -129 78 -61 132 -129 177 -223 53 -111 93 -140 152 -110 67 35 89 142 96
470 9 390 -14 566 -79 609 -64 42 -119 23 -158 -55 -52 -100 -117 -96 -295 20
-85 56 -193 103 -303 133 -113 30 -355 35 -472 9z"/>
<path d="M31655 22813 c-502 -64 -921 -310 -1170 -688 -316 -480 -349 -1110
-84 -1626 192 -373 515 -619 924 -704 467 -97 961 45 1366 390 273 233 485
589 564 945 23 101 31 385 15 504 -34 256 -115 503 -213 645 -182 266 -587
480 -1002 530 -84 10 -333 13 -400 4z m171 -668 c275 -70 485 -241 567 -463
41 -110 51 -170 50 -302 -2 -249 -83 -535 -198 -696 -81 -113 -183 -173 -355
-210 -121 -26 -427 -26 -520 -1 -257 72 -401 237 -466 532 -25 111 -29 320
-10 460 63 453 224 658 556 706 94 13 268 1 376 -26z"/>
<path d="M42795 22813 c-502 -64 -921 -310 -1170 -688 -269 -408 -335 -932
-178 -1405 252 -759 1011 -1128 1798 -874 44 15 134 52 200 84 477 231 836
684 950 1200 23 101 31 385 15 504 -34 256 -115 503 -213 645 -182 266 -587
480 -1002 530 -84 10 -333 13 -400 4z m171 -668 c275 -70 485 -241 567 -463
41 -110 51 -170 50 -302 -2 -249 -83 -535 -198 -696 -81 -113 -183 -173 -355
-210 -121 -26 -427 -26 -520 -1 -257 72 -401 237 -466 532 -25 111 -29 320
-10 460 63 453 224 658 556 706 94 13 268 1 376 -26z"/>
<path d="M9240 22689 c-36 -5 -130 -18 -210 -30 -259 -36 -315 -58 -345 -132
-43 -106 21 -206 180 -282 50 -24 97 -50 104 -59 8 -10 17 -67 23 -148 10
-131 5 -280 -23 -803 -14 -248 -6 -580 16 -720 42 -272 135 -480 269 -603 209
-190 505 -213 680 -52 79 73 106 164 71 246 -8 19 -63 83 -122 142 -121 121
-158 179 -197 314 -40 138 -51 271 -51 618 0 375 16 552 81 935 34 200 31 313
-13 406 -34 73 -76 120 -137 151 -34 18 -60 22 -151 24 -60 2 -139 -2 -175 -7z"/>
<path d="M16330 22689 c-36 -5 -130 -18 -210 -30 -259 -36 -315 -58 -345 -132
-43 -106 21 -206 180 -282 50 -24 97 -50 104 -59 8 -10 17 -67 23 -148 10
-131 5 -280 -23 -803 -14 -248 -6 -580 16 -720 42 -272 135 -480 269 -603 209
-190 505 -213 680 -52 79 73 106 164 71 246 -8 19 -63 83 -122 142 -121 121
-158 179 -197 314 -40 138 -51 271 -51 618 0 375 16 552 81 935 34 200 31 313
-13 406 -34 73 -76 120 -137 151 -34 18 -60 22 -151 24 -60 2 -139 -2 -175 -7z"/>
<path d="M28765 22660 c-115 -20 -185 -88 -185 -182 0 -51 17 -74 113 -151 80
-64 93 -103 131 -392 86 -647 97 -1264 36 -1905 -24 -245 -65 -545 -85 -616
-21 -73 -64 -126 -151 -185 -108 -72 -150 -114 -169 -164 -14 -36 -15 -50 -5
-79 25 -78 144 -144 275 -153 124 -9 260 53 439 199 169 137 276 289 339 480
14 42 48 174 76 295 125 547 174 909 173 1293 0 226 -9 329 -53 589 -48 289
-39 384 51 559 28 53 53 114 57 134 15 95 -32 161 -139 197 -72 24 -310 54
-603 76 -214 16 -238 16 -300 5z"/>
<path d="M24086 22620 c-283 -35 -528 -148 -723 -333 -88 -84 -182 -219 -212
-308 -65 -187 -22 -361 112 -453 103 -70 228 -82 332 -30 110 55 167 137 196
279 23 116 42 159 83 189 146 108 398 77 532 -66 68 -73 107 -164 112 -264 l4
-81 -123 -7 c-604 -35 -993 -174 -1265 -452 -187 -191 -278 -401 -277 -639 0
-195 48 -333 157 -452 219 -240 662 -309 1090 -168 195 63 326 141 473 279
134 125 148 125 239 -6 197 -283 481 -428 732 -374 107 22 197 70 267 141 68
69 101 128 116 209 27 149 -63 326 -203 395 -56 28 -70 31 -159 31 -92 0 -100
2 -114 23 -28 43 -37 162 -45 602 -9 461 -13 508 -61 655 -117 356 -419 659
-774 778 -141 47 -349 69 -489 52z m570 -1547 c4 -21 8 -53 8 -71 l1 -33 -320
-174 c-176 -96 -358 -191 -404 -210 l-85 -36 -133 17 c-73 10 -138 21 -145 26
-19 11 36 111 82 151 21 18 110 76 198 129 174 105 133 90 505 188 64 17 152
35 195 39 42 5 80 9 84 10 4 0 10 -16 14 -36z"/>
<path d="M45100 22623 c-205 -20 -291 -49 -316 -108 -30 -72 3 -117 136 -186
118 -62 165 -133 189 -284 30 -196 38 -1542 10 -1725 -13 -82 -37 -123 -138
-232 -91 -99 -111 -132 -111 -182 0 -71 116 -136 281 -157 139 -18 391 15 701
91 198 49 231 131 139 349 -85 202 -128 370 -151 596 -18 165 -15 719 4 842
15 102 55 198 104 254 35 40 113 86 156 91 29 3 30 2 51 -84 73 -287 161 -451
301 -556 99 -75 158 -95 274 -96 84 -1 102 2 154 27 157 73 274 236 332 462
65 257 31 443 -106 575 -139 134 -387 215 -696 227 -261 11 -443 -38 -560
-149 l-32 -30 -37 57 c-67 100 -198 179 -347 209 -70 15 -239 19 -338 9z"/>
<path d="M17425 18164 c-696 -56 -1263 -259 -1760 -629 -618 -460 -969 -1094
-1079 -1945 -78 -606 -24 -1288 149 -1883 209 -718 603 -1372 1070 -1775 422
-363 965 -579 1670 -664 148 -18 777 -18 940 0 588 64 898 148 1150 310 337
217 533 609 585 1167 13 141 13 434 0 550 -32 284 -137 488 -289 562 -45 22
-69 28 -131 28 -116 0 -222 -49 -338 -158 -53 -50 -212 -257 -416 -539 -54
-75 -135 -181 -181 -235 -524 -625 -1139 -706 -1630 -215 -265 265 -421 662
-505 1287 -101 743 -84 1427 51 2095 105 518 243 805 477 991 265 212 609 233
792 50 109 -110 137 -241 120 -577 -15 -310 2 -525 61 -752 76 -290 211 -513
414 -679 97 -80 248 -161 350 -189 82 -22 280 -30 369 -14 218 39 420 152 591
331 229 240 347 554 362 965 16 439 -92 877 -289 1166 -60 89 -187 218 -274
278 -109 75 -263 144 -484 217 -386 127 -692 196 -1060 239 -129 14 -605 27
-715 18z"/>
<path d="M10831 18109 c-232 -17 -506 -82 -705 -165 -180 -75 -274 -180 -263
-292 9 -84 55 -141 217 -269 130 -103 178 -168 199 -273 29 -146 110 -1348
141 -2090 31 -752 43 -2304 19 -2477 -21 -161 -89 -252 -309 -421 -159 -122
-231 -196 -272 -280 -42 -86 -46 -181 -9 -251 49 -94 176 -180 315 -216 85
-21 90 -22 1736 -71 1683 -50 1853 -53 1985 -29 177 31 296 86 375 171 88 97
120 195 120 365 0 98 -53 1143 -65 1284 -20 233 -92 387 -210 447 -22 11 -67
23 -101 26 -54 4 -71 1 -127 -26 -116 -54 -214 -174 -357 -442 -127 -236 -205
-343 -378 -522 -173 -177 -348 -293 -517 -338 -63 -18 -99 -21 -181 -18 -92 3
-107 6 -175 40 -195 97 -302 298 -339 632 -12 115 -13 1883 0 3086 8 867 8
857 80 1006 32 66 63 106 155 205 142 151 180 219 180 319 -1 146 -116 273
-350 386 -342 164 -775 243 -1164 213z"/>
<path d="M43711 18109 c-232 -17 -506 -82 -705 -165 -180 -75 -274 -180 -263
-292 9 -84 55 -141 217 -269 130 -103 178 -168 199 -273 29 -146 110 -1348
141 -2090 31 -752 43 -2304 19 -2477 -21 -161 -89 -252 -309 -421 -159 -122
-231 -196 -272 -280 -42 -86 -46 -181 -9 -251 49 -94 176 -180 315 -216 85
-21 90 -22 1736 -71 1683 -50 1853 -53 1985 -29 177 31 296 86 375 171 88 97
120 195 120 365 0 98 -53 1143 -65 1284 -20 233 -92 387 -210 447 -22 11 -67
23 -101 26 -54 4 -71 1 -127 -26 -116 -54 -214 -174 -357 -442 -127 -236 -205
-343 -378 -522 -173 -177 -348 -293 -517 -338 -63 -18 -99 -21 -181 -18 -92 3
-107 6 -175 40 -195 97 -302 298 -339 632 -12 115 -13 1883 0 3086 8 867 8
857 80 1006 32 66 63 106 155 205 142 151 180 219 180 319 -1 146 -116 273
-350 386 -342 164 -775 243 -1164 213z"/>
<path d="M33410 18063 c-269 -11 -558 -71 -811 -167 -133 -50 -144 -55 -222
-108 -74 -50 -133 -125 -153 -196 -29 -98 -1 -190 118 -392 110 -186 144 -334
154 -670 14 -487 32 -2241 24 -2271 -12 -41 -54 -86 -94 -99 -75 -24 -462 -78
-756 -105 -373 -34 -896 -45 -1230 -26 -146 8 -180 18 -214 64 -19 26 -22 49
-30 265 -9 246 5 1115 24 1477 27 505 64 986 86 1090 21 107 53 160 149 254
117 114 130 140 130 266 0 92 -3 105 -32 165 -117 240 -427 354 -1003 367
-372 9 -653 -29 -977 -132 -146 -46 -219 -127 -210 -231 8 -82 45 -143 216
-353 99 -122 150 -236 193 -431 38 -171 35 -444 -26 -2440 -30 -998 -58 -1864
-61 -1925 -11 -190 -22 -225 -155 -490 -127 -252 -157 -337 -146 -412 12 -87
71 -156 181 -208 313 -150 853 -120 1462 80 260 86 363 145 415 242 60 110 58
182 -17 518 -73 330 -145 761 -145 870 0 80 31 116 110 129 19 3 487 33 1040
67 1102 67 1066 67 1122 7 38 -41 46 -78 59 -279 18 -277 -2 -509 -57 -675
-42 -127 -69 -172 -209 -354 -122 -159 -138 -317 -49 -492 102 -201 283 -320
569 -374 118 -22 683 -32 848 -15 274 29 447 88 606 209 190 144 281 332 267
552 -6 102 -23 172 -133 565 -288 1022 -434 2026 -450 3085 -8 527 11 802 73
1078 54 241 95 340 292 712 151 285 156 461 16 590 -112 103 -357 167 -724
190 -91 5 -169 9 -175 8 -5 -1 -39 -3 -75 -5z"/>
<path d="M5908 18030 c-158 -40 -320 -200 -456 -450 -70 -130 -2663 -5500
-2709 -5612 -153 -370 -60 -566 307 -645 119 -25 532 -25 738 0 503 62 633
106 696 230 39 77 32 117 -50 273 -83 159 -104 236 -111 394 -9 199 39 433
146 722 78 210 113 248 228 248 65 0 1328 -219 1441 -250 179 -49 274 -133
334 -296 32 -86 31 -329 -1 -544 -62 -414 25 -653 268 -731 63 -21 95 -22 631
-31 311 -5 795 -7 1075 -6 476 3 513 4 555 22 148 63 228 187 238 367 5 108
-5 169 -47 274 -42 105 -92 183 -401 630 -723 1046 -1114 1683 -1455 2370
-395 797 -620 1461 -760 2240 -20 110 -47 243 -61 295 -60 225 -173 384 -328
461 -71 35 -94 41 -162 44 -43 3 -96 0 -116 -5z m-460 -2812 c5 -7 24 -71 42
-143 17 -71 92 -312 165 -535 134 -403 205 -638 205 -672 0 -11 -14 -25 -34
-35 -32 -15 -55 -15 -238 -4 -532 30 -693 43 -715 57 -19 12 -23 23 -23 67 0
79 20 136 145 407 96 209 357 756 401 843 16 29 35 35 52 15z"/>
<path d="M24145 17633 c-417 -20 -843 -122 -1210 -290 -962 -440 -1813 -1564
-2039 -2693 -48 -238 -60 -367 -60 -640 0 -334 28 -544 109 -830 135 -471 365
-862 701 -1191 440 -429 944 -647 1699 -736 123 -15 232 -18 605 -18 486 0
656 10 1066 60 1140 139 1859 527 2306 1242 381 612 523 1451 397 2348 -47
336 -158 740 -280 1021 -136 314 -279 526 -508 754 -217 217 -439 373 -761
534 -632 318 -1341 472 -2025 439z m17 -908 c654 -54 961 -164 1239 -444 338
-341 507 -831 613 -1781 40 -353 51 -740 27 -950 -49 -426 -187 -768 -418
-1035 -193 -222 -420 -350 -713 -401 -142 -24 -463 -15 -665 19 -575 99 -949
258 -1233 523 -287 268 -445 597 -518 1079 -21 138 -30 569 -15 721 66 656
305 1259 693 1746 171 215 413 440 528 491 108 48 195 54 462 32z"/>
<path d="M38495 17633 c-417 -20 -843 -122 -1210 -290 -962 -440 -1814 -1566
-2039 -2693 -49 -246 -60 -358 -60 -635 0 -339 27 -547 109 -835 135 -471 365
-862 701 -1191 440 -429 943 -647 1699 -736 124 -15 231 -18 615 -18 489 1
694 13 1100 65 1105 140 1822 533 2262 1237 381 612 523 1451 397 2348 -47
336 -158 740 -280 1021 -136 314 -279 526 -508 754 -217 217 -439 373 -761
534 -631 318 -1342 472 -2025 439z m15 -908 c658 -55 963 -164 1241 -444 338
-341 507 -831 613 -1781 40 -353 51 -740 27 -950 -49 -426 -187 -768 -418
-1035 -193 -222 -420 -350 -713 -401 -142 -24 -463 -15 -665 19 -575 99 -949
258 -1233 523 -287 268 -445 597 -518 1079 -21 138 -30 569 -15 721 66 655
305 1259 692 1745 110 138 306 338 404 412 166 125 247 140 585 112z"/>
</g>
</svg>
