<?xml version="1.0" standalone="no"?>
<!DOCTYPE svg PUBLIC "-//W3C//DTD SVG 20010904//EN"
 "http://www.w3.org/TR/2001/REC-SVG-20010904/DTD/svg10.dtd">
<svg version="1.0" xmlns="http://www.w3.org/2000/svg"
 width="3000.000000pt" height="3000.000000pt" viewBox="0 0 3000.000000 3000.000000"
 preserveAspectRatio="xMidYMid meet">

<g transform="translate(0.000000,3000.000000) scale(0.100000,-0.100000)"
fill="#000000" stroke="none">
<path d="M3310 26940 c-526 -31 -782 -124 -877 -319 -28 -55 -28 -59 -28 -241
1 -215 15 -318 80 -575 88 -348 95 -426 95 -1095 0 -661 -8 -753 -91 -1083
-71 -284 -93 -448 -87 -648 3 -110 6 -131 31 -184 72 -155 275 -256 601 -300
61 -8 235 -20 388 -27 304 -13 682 -2 918 27 531 66 911 240 1136 518 124 154
207 363 235 590 16 125 5 366 -21 489 -66 314 -238 581 -477 740 l-52 34 45
45 c110 106 217 279 268 431 50 148 59 211 59 398 0 158 -2 185 -26 275 -49
181 -136 335 -262 460 -252 253 -653 405 -1195 455 -163 14 -569 20 -740 10z
m665 -535 c276 -58 484 -229 566 -465 30 -89 38 -269 15 -360 -31 -123 -80
-206 -180 -305 -73 -73 -108 -99 -176 -132 -149 -74 -206 -85 -447 -90 l-213
-5 0 686 0 686 183 0 c120 0 206 -5 252 -15z m105 -1845 c199 -24 325 -83 455
-214 73 -73 99 -107 133 -176 60 -124 85 -236 85 -390 -1 -249 -68 -425 -221
-577 -59 -60 -91 -82 -175 -122 -160 -77 -213 -86 -537 -86 l-275 0 -3 775
c-1 426 0 781 3 788 6 15 409 17 535 2z"/>
<path d="M24195 26915 c-94 -17 -183 -54 -260 -110 -79 -56 -125 -111 -167
-201 -27 -58 -33 -83 -36 -161 -6 -127 24 -223 109 -353 80 -122 299 -342 579
-582 278 -238 296 -257 529 -541 l203 -248 -5 -362 c-5 -406 -9 -438 -90 -757
-72 -280 -103 -570 -78 -715 25 -145 108 -257 234 -315 83 -39 206 -54 432
-53 302 0 415 27 516 120 113 105 145 208 136 438 -8 181 -32 332 -91 565 -74
294 -78 332 -83 804 l-5 418 165 247 c222 333 325 461 622 771 229 239 407
456 459 557 30 60 56 152 56 198 0 57 -30 135 -67 176 -68 75 -168 109 -317
109 -159 0 -274 -57 -414 -204 -131 -139 -204 -261 -447 -751 -215 -431 -357
-695 -375 -695 -22 0 -184 296 -251 459 -93 227 -180 395 -297 576 -294 454
-683 679 -1057 610z"/>
<path d="M9215 26908 c-44 -4 -105 -15 -135 -24 -114 -32 -215 -125 -262 -241
-21 -54 -23 -72 -23 -243 0 -212 15 -321 75 -555 96 -375 103 -458 97 -1210
-4 -669 -4 -664 -87 -1000 -63 -253 -80 -361 -87 -560 -8 -225 18 -323 111
-418 90 -93 170 -121 402 -138 158 -12 370 -2 487 22 121 26 224 108 278 222
41 89 52 185 39 358 -13 189 -31 295 -85 504 -86 335 -89 373 -90 1075 0 445
4 643 13 716 15 117 50 290 87 424 59 216 95 549 75 691 -25 175 -135 310
-290 353 -121 34 -415 46 -605 24z"/>
<path d="M22935 26889 c-79 -11 -191 -51 -263 -94 -134 -80 -248 -215 -342
-409 -72 -149 -115 -272 -185 -531 -80 -298 -160 -522 -408 -1140 -123 -308
-239 -600 -257 -650 -18 -49 -36 -93 -40 -97 -3 -5 -73 169 -155 385 -420
1108 -445 1178 -535 1482 -74 251 -116 367 -182 499 -149 300 -329 464 -583
532 -98 27 -390 27 -485 0 -171 -47 -282 -139 -321 -268 -20 -64 -21 -86 -16
-237 6 -185 29 -335 82 -536 86 -327 95 -434 95 -1111 0 -670 -7 -752 -94
-1104 -47 -187 -60 -256 -76 -390 -13 -108 -12 -312 0 -368 27 -114 97 -204
198 -254 66 -33 68 -33 212 -33 144 0 146 0 212 33 105 51 173 142 199 265 15
67 6 338 -15 471 -9 55 -30 154 -47 220 -105 406 -102 377 -105 1221 -3 662
-2 727 12 696 9 -19 232 -631 496 -1360 264 -729 491 -1348 506 -1374 83 -154
282 -230 464 -177 61 18 153 86 192 143 27 39 156 378 537 1412 276 748 507
1376 515 1395 11 30 13 -80 10 -735 -3 -870 2 -810 -91 -1177 -62 -246 -79
-370 -79 -573 l-1 -171 37 -76 c46 -92 103 -147 201 -194 119 -56 194 -68 422
-68 228 0 304 12 420 68 130 62 208 158 235 291 28 136 -7 462 -80 740 -85
325 -85 322 -85 1095 0 768 -1 760 76 1057 70 276 107 549 96 721 -9 146 -81
253 -217 322 -143 73 -372 105 -555 79z"/>
<path d="M15250 26875 c-523 -86 -980 -443 -1244 -971 -182 -366 -260 -718
-260 -1179 0 -258 15 -406 59 -609 179 -826 706 -1418 1381 -1553 132 -26 366
-23 503 6 168 36 355 116 484 208 l48 34 53 -54 c60 -61 122 -100 203 -128
171 -59 322 -19 377 101 20 43 21 66 27 465 5 410 6 422 31 515 14 53 42 135
62 184 157 379 88 675 -179 771 -41 14 -94 18 -295 22 -369 8 -500 -12 -608
-90 -60 -43 -104 -101 -133 -174 -19 -49 -23 -76 -22 -178 0 -132 18 -212 86
-397 51 -136 77 -270 84 -430 7 -162 15 -152 -122 -152 -269 -1 -522 205 -721
587 -262 504 -380 1289 -273 1819 82 408 305 671 608 718 115 18 200 -6 261
-76 59 -67 82 -135 146 -429 35 -163 69 -266 115 -356 178 -343 540 -421 789
-170 77 78 113 142 140 247 41 159 18 331 -70 510 -178 367 -558 650 -998 745
-128 27 -408 35 -532 14z"/>
<path d="M6775 26870 c-181 -10 -310 -24 -472 -51 -227 -37 -345 -94 -399
-192 l-29 -52 0 -180 c1 -207 16 -318 75 -550 92 -360 100 -447 100 -1131 0
-646 -12 -790 -85 -1064 -65 -242 -95 -443 -95 -635 0 -146 14 -197 72 -254
93 -94 300 -148 688 -182 200 -17 906 -23 1155 -10 572 31 762 64 834 146 44
51 56 97 55 220 -2 133 -22 223 -71 317 -69 131 -170 191 -323 190 -118 0
-202 -29 -450 -156 -113 -57 -233 -113 -267 -124 -117 -38 -525 -93 -546 -73
-4 4 -6 261 -5 572 l3 564 116 31 c155 43 267 61 450 74 194 14 321 34 393 60
168 63 258 191 260 370 1 70 -3 93 -22 133 -50 100 -138 142 -297 140 -187 -2
-377 -62 -711 -228 -102 -50 -187 -89 -189 -86 -3 2 -5 370 -5 818 l0 813 29
0 c63 0 271 -31 369 -56 123 -30 193 -59 385 -159 80 -42 183 -90 229 -107 74
-29 95 -32 193 -32 135 -1 188 19 263 98 93 99 133 219 135 408 1 110 0 119
-29 174 -25 50 -38 63 -84 86 -90 46 -253 70 -660 98 -209 14 -879 21 -1065
10z"/>
<path d="M10713 26856 c-218 -41 -332 -121 -379 -266 -14 -43 -16 -79 -11
-223 6 -191 28 -337 82 -542 86 -327 95 -434 95 -1111 0 -670 -7 -752 -94
-1104 -47 -187 -60 -256 -76 -390 -13 -108 -12 -312 0 -368 27 -114 97 -204
198 -254 66 -33 68 -33 212 -33 144 0 146 0 212 33 101 50 171 140 198 254 14
64 12 268 -5 407 -16 128 -36 226 -80 391 -35 132 -62 284 -75 431 -7 84 -10
415 -8 1022 l3 898 940 -1627 c1037 -1795 975 -1699 1121 -1771 74 -36 83 -38
173 -38 74 0 104 4 131 19 49 26 88 64 113 111 l22 40 5 1330 c7 1478 3 1388
76 1675 73 283 104 486 104 680 0 174 -38 282 -127 360 -82 72 -120 84 -278
88 -125 3 -146 1 -200 -18 -81 -30 -172 -121 -206 -205 -23 -56 -24 -72 -23
-255 1 -220 12 -304 75 -548 87 -338 101 -488 97 -1005 l-3 -378 -505 863
c-673 1151 -681 1165 -735 1232 -108 132 -273 234 -460 283 -90 23 -122 26
-310 29 -147 2 -231 -1 -282 -10z"/>
<path d="M10293 22470 c-68 -14 -188 -75 -236 -119 -25 -23 -54 -61 -65 -84
-32 -70 -436 -1366 -625 -2007 -75 -253 -91 -298 -146 -398 -251 -459 -456
-724 -771 -1002 -200 -175 -261 -208 -305 -163 -32 31 -38 67 -37 208 1 164
29 330 91 550 56 197 266 818 484 1430 234 660 276 808 296 1038 10 120 6 141
-31 172 -92 77 -273 68 -428 -22 -93 -55 -114 -91 -144 -243 -38 -191 -81
-330 -236 -755 -138 -379 -350 -975 -365 -1025 -26 -84 -180 -363 -311 -560
-118 -178 -231 -316 -365 -445 -86 -83 -230 -195 -251 -195 -4 0 12 37 38 83
180 323 254 561 254 814 0 156 -51 286 -145 371 -31 29 -58 64 -69 91 -36 93
-153 221 -260 285 -112 67 -172 81 -341 80 -293 -2 -524 -69 -722 -210 -111
-79 -284 -250 -330 -325 -23 -38 -50 -81 -61 -97 -11 -15 -49 -86 -84 -157
-124 -253 -331 -538 -548 -755 -123 -124 -144 -140 -237 -188 -269 -138 -565
-189 -708 -121 -62 29 -114 81 -145 144 -18 39 -25 72 -28 146 -8 172 49 375
174 619 90 176 132 231 269 352 174 153 307 208 326 134 4 -15 3 -53 -2 -83
-17 -91 1 -127 81 -169 44 -23 202 -26 275 -5 75 21 179 76 207 109 35 42 54
182 38 273 -14 75 -52 150 -95 186 -40 34 -155 88 -230 108 -227 60 -635 -9
-895 -152 -328 -180 -604 -592 -712 -1063 -18 -78 -22 -127 -22 -270 0 -166 1
-179 28 -259 57 -172 112 -251 231 -336 217 -155 517 -200 870 -130 387 77
687 245 930 521 39 43 75 79 80 79 6 0 24 -41 41 -92 94 -277 268 -458 487
-507 286 -65 591 -32 838 89 50 24 60 26 95 16 21 -7 84 -14 139 -18 127 -7
223 15 365 86 141 69 243 145 400 298 l137 132 11 -127 c14 -152 38 -239 90
-312 67 -97 169 -147 349 -171 153 -20 342 10 478 76 98 48 241 158 395 308
90 86 131 120 127 105 -56 -259 -118 -572 -126 -638 -22 -173 -12 -302 34
-467 54 -190 144 -322 257 -377 102 -50 257 -51 360 -2 162 77 371 333 371
456 1 149 -162 230 -289 144 -20 -14 -44 -24 -53 -22 -9 2 -27 25 -40 52 -22
44 -25 62 -24 170 1 259 63 613 199 1131 159 606 281 1016 672 2260 135 427
246 844 237 886 -12 54 -45 71 -142 75 -48 2 -107 -1 -130 -6z m-4003 -2332
c60 -41 60 -50 -1 -115 -125 -136 -192 -270 -251 -508 -41 -166 -27 -522 28
-677 13 -37 12 -38 -19 -62 -45 -33 -88 -54 -138 -66 -121 -27 -245 89 -293
275 -74 289 -20 540 182 845 79 118 219 257 302 298 81 39 142 42 190 10z
m263 -440 c-10 -99 -34 -182 -96 -338 l-62 -155 -3 54 c-7 121 44 332 101 416
20 30 58 75 63 75 2 0 1 -24 -3 -52z"/>
<path d="M24072 21369 c-83 -41 -157 -122 -178 -196 -37 -129 1 -232 106 -286
49 -26 63 -28 131 -25 90 5 149 31 213 93 69 67 90 115 90 210 1 64 -4 88 -22
122 -58 111 -210 147 -340 82z"/>
<path d="M11425 20614 c-165 -24 -258 -49 -432 -116 -405 -156 -777 -606 -898
-1087 -38 -151 -49 -236 -48 -376 0 -111 4 -143 27 -220 42 -139 88 -218 181
-311 69 -69 98 -90 186 -133 122 -60 249 -94 408 -111 192 -20 357 2 581 77
299 100 497 231 779 517 l95 95 23 -81 c81 -278 257 -459 504 -514 112 -26
320 -24 430 4 174 43 312 108 398 188 l61 56 0 -43 c1 -211 316 -310 640 -203
120 40 216 107 357 249 67 68 124 120 127 117 3 -3 6 -13 6 -21 0 -9 16 -50
35 -91 65 -134 205 -245 358 -284 161 -41 285 -40 473 4 85 20 219 69 260 96
13 9 27 15 29 13 5 -5 -26 -146 -51 -236 -16 -60 -20 -64 -73 -94 -129 -73
-293 -193 -356 -261 -228 -246 -318 -551 -250 -846 53 -229 256 -422 445 -422
152 0 323 111 425 275 144 231 238 508 315 925 11 63 29 147 39 185 l17 70
180 134 c230 173 428 369 661 656 l32 40 1 -70 c1 -204 74 -341 217 -414 99
-50 172 -64 298 -58 179 8 339 74 455 187 28 28 53 50 54 50 2 0 6 -27 9 -60
11 -102 58 -169 147 -209 35 -16 66 -21 136 -21 141 0 265 45 422 153 83 57
146 122 264 273 76 97 83 103 91 82 47 -123 94 -197 172 -274 68 -68 99 -90
186 -133 226 -111 503 -145 774 -94 112 20 332 96 447 153 219 109 432 288
682 570 213 241 360 461 524 780 79 156 84 168 80 217 -5 56 -41 121 -82 148
-55 36 -166 30 -215 -11 -17 -14 -56 -73 -87 -132 -267 -501 -541 -865 -799
-1061 -84 -64 -258 -149 -375 -185 -369 -111 -636 -79 -721 85 -19 39 -39 139
-39 202 l0 37 138 0 c396 0 678 87 893 276 193 171 340 389 390 583 27 99 36
261 20 343 -25 125 -86 200 -216 264 -108 53 -181 68 -330 68 -180 0 -299 -26
-532 -116 -156 -60 -358 -198 -470 -321 -18 -20 -38 -39 -46 -44 -14 -8 -31
-32 -141 -194 -60 -87 -143 -242 -176 -329 -18 -46 -127 -218 -258 -405 -105
-151 -242 -329 -248 -323 -1 2 18 80 42 173 25 94 68 265 95 380 28 116 85
336 126 489 105 394 114 487 57 555 -67 80 -271 83 -430 5 -66 -31 -101 -59
-118 -92 -7 -15 -46 -146 -86 -292 -132 -488 -233 -812 -290 -935 -49 -107
-164 -276 -236 -348 -96 -97 -163 -119 -211 -71 l-26 26 6 131 c7 162 28 250
167 696 124 399 156 520 170 647 12 109 2 194 -26 226 -30 32 -98 57 -189 69
-113 15 -192 -2 -274 -59 -87 -59 -97 -78 -93 -178 5 -132 -20 -205 -145 -429
-194 -348 -363 -606 -551 -842 -84 -105 -351 -386 -383 -404 -18 -9 8 112 181
846 111 473 140 610 140 658 0 73 -40 131 -112 161 -36 15 -36 16 -26 53 22
80 -12 172 -76 206 -37 20 -54 22 -184 20 -331 -4 -645 -71 -897 -192 -246
-117 -405 -260 -567 -511 -59 -90 -159 -285 -198 -385 -51 -131 -275 -419
-492 -633 -118 -116 -120 -111 -58 159 26 117 62 268 79 334 48 190 118 514
131 604 17 116 9 228 -19 274 -37 60 -162 95 -237 67 -35 -14 -38 -9 -19 26
21 41 19 100 -6 151 -40 83 -87 100 -311 112 -656 36 -1115 -135 -1400 -519
-71 -95 -156 -244 -204 -354 -91 -213 -409 -605 -619 -765 -84 -64 -258 -149
-375 -185 -369 -111 -636 -79 -721 85 -19 39 -39 139 -39 202 l0 37 138 0
c396 0 678 87 893 276 193 171 336 384 389 580 27 101 37 262 21 346 -16 80
-54 151 -106 195 -50 43 -162 98 -239 118 -61 15 -246 27 -301 19z m2625 -410
c0 -3 -22 -38 -49 -77 -86 -124 -135 -242 -185 -447 -141 -575 -301 -823 -593
-921 -131 -43 -216 -12 -273 102 -48 94 -63 175 -64 339 -1 129 2 156 27 244
103 370 360 621 732 714 128 33 405 64 405 46z m-2562 -36 c18 -18 14 -101 -7
-150 -33 -75 -141 -230 -215 -306 -124 -128 -293 -224 -428 -242 -118 -17
-119 -15 -48 126 100 200 252 378 417 487 124 83 246 120 281 85z m9400 0 c18
-18 14 -101 -7 -150 -33 -75 -141 -230 -215 -306 -124 -128 -293 -224 -428
-242 -118 -17 -119 -15 -48 126 100 200 252 378 417 487 124 83 246 120 281
85z m-4515 -80 c-80 -261 -213 -574 -353 -828 -79 -144 -322 -436 -414 -497
-87 -59 -154 -41 -181 50 -49 165 -15 381 99 623 128 269 385 540 626 656 60
29 199 77 227 78 l21 0 -25 -82z m-614 -2689 c-50 -227 -104 -348 -123 -277
-11 42 -6 134 10 189 26 87 136 290 150 276 2 -2 -14 -87 -37 -188z"/>
<path d="M25393 20579 c-204 -30 -382 -102 -481 -194 -77 -71 -112 -141 -121
-242 -6 -73 -12 -88 -84 -223 -180 -334 -476 -770 -665 -978 -107 -118 -230
-242 -241 -242 -24 0 34 220 219 835 163 542 189 648 197 800 5 97 5 101 -21
132 -40 48 -96 66 -201 66 -104 -1 -187 -25 -270 -78 -79 -50 -95 -79 -105
-190 -13 -130 13 -40 -219 -775 -160 -506 -195 -666 -189 -845 4 -113 23 -178
70 -247 67 -98 422 -153 584 -90 158 60 395 283 628 591 92 122 310 445 416
616 40 66 76 124 80 128 9 10 283 -260 302 -298 34 -65 32 -104 -7 -183 -68
-135 -324 -367 -515 -468 -81 -42 -145 -95 -166 -136 -20 -38 -20 -128 -1
-165 21 -39 55 -69 100 -88 54 -23 242 -31 363 -16 207 26 507 122 652 210
154 92 402 322 561 521 140 174 370 534 506 794 63 118 67 131 63 177 -7 64
-48 124 -108 157 -38 20 -55 23 -104 19 -97 -9 -92 -4 -258 -307 -108 -196
-263 -434 -383 -583 -47 -60 -88 -107 -90 -105 -2 1 1 24 6 51 12 65 -13 193
-53 276 -32 67 -80 118 -325 351 -123 117 -163 173 -163 229 0 71 37 107 138
137 100 29 151 100 152 207 0 53 -3 60 -41 102 -22 24 -52 46 -67 49 -63 12
-101 14 -159 5z"/>
<path d="M24365 16436 c-95 -18 -183 -56 -260 -111 -79 -56 -125 -111 -167
-201 -27 -58 -33 -83 -36 -161 -12 -259 135 -458 688 -934 279 -240 297 -259
529 -542 l203 -248 -5 -362 c-5 -406 -9 -438 -90 -757 -72 -280 -103 -570 -78
-715 25 -145 108 -257 234 -315 83 -39 206 -54 432 -53 304 0 414 26 515 120
114 105 146 207 137 438 -8 181 -32 332 -91 565 -74 294 -78 332 -83 804 l-5
418 165 247 c222 333 325 461 622 771 229 239 407 456 459 557 30 60 56 152
56 198 0 57 -30 135 -67 176 -67 74 -168 109 -311 109 -162 0 -260 -46 -402
-189 -145 -146 -211 -254 -465 -766 -215 -431 -357 -695 -375 -695 -23 0 -203
335 -268 500 -98 245 -264 536 -402 705 -78 95 -221 232 -299 284 -94 64 -209
119 -298 142 -101 26 -248 33 -338 15z"/>
<path d="M6195 16428 c-44 -4 -105 -15 -135 -24 -114 -32 -215 -125 -262 -241
-21 -54 -23 -72 -23 -243 0 -212 15 -321 75 -555 96 -375 103 -458 97 -1210
-4 -669 -4 -664 -87 -1000 -28 -110 -57 -245 -66 -300 -21 -136 -30 -405 -15
-473 34 -158 144 -277 295 -316 103 -27 347 -40 506 -27 177 14 231 26 303 63
112 60 187 176 207 319 8 54 8 120 1 220 -13 182 -32 291 -86 504 -24 94 -51
212 -60 262 -18 106 -35 324 -26 335 4 4 68 23 144 43 149 38 291 58 517 75
80 5 174 17 209 25 149 36 258 115 309 223 l27 57 3 -175 c6 -331 -20 -561
-97 -863 -22 -84 -46 -195 -55 -247 -24 -144 -37 -370 -26 -458 24 -183 148
-325 316 -360 199 -43 597 -35 737 14 114 40 211 145 249 267 19 63 20 86 15
246 -6 202 -25 323 -90 581 -78 306 -80 320 -84 980 -6 746 0 825 97 1202 52
206 70 331 77 531 7 196 -5 260 -67 355 -102 159 -274 211 -655 199 -272 -9
-366 -33 -459 -118 -109 -99 -140 -188 -138 -393 2 -186 23 -331 82 -571 27
-110 56 -242 64 -293 23 -142 38 -370 34 -532 l-3 -145 -19 38 c-45 90 -138
132 -291 130 -186 -1 -376 -62 -712 -228 -142 -70 -186 -88 -190 -77 -3 8 -3
152 0 321 7 340 22 477 78 693 70 272 84 354 99 569 12 175 2 266 -39 355 -51
109 -141 187 -251 218 -118 33 -418 45 -605 24z"/>
<path d="M22215 16425 c-190 -36 -315 -119 -378 -253 l-32 -67 0 -185 c0 -212
15 -321 75 -555 92 -360 100 -447 100 -1131 0 -665 -8 -757 -91 -1087 -71
-285 -94 -449 -87 -648 4 -140 18 -181 83 -237 123 -109 404 -161 967 -182
490 -18 1273 22 1481 76 144 37 187 82 208 213 11 77 0 216 -25 302 -75 253
-278 349 -546 260 -52 -18 -171 -72 -265 -121 -196 -102 -301 -141 -452 -170
-116 -21 -293 -41 -305 -33 -12 6 -9 2045 2 2212 11 163 38 333 75 471 71 268
96 432 98 640 1 139 -2 161 -22 213 -60 153 -192 246 -397 282 -107 19 -390
19 -489 0z"/>
<path d="M15955 16394 c-343 -46 -644 -169 -901 -370 -333 -259 -571 -638
-689 -1098 -109 -424 -110 -935 -4 -1366 97 -391 292 -738 561 -996 436 -419
1078 -590 1724 -459 781 158 1340 784 1483 1664 91 553 18 1125 -199 1578
-107 222 -202 358 -368 527 -292 297 -675 479 -1104 525 -130 15 -380 12 -503
-5z m276 -521 c102 -40 179 -92 275 -188 281 -280 502 -845 603 -1541 63 -432
50 -826 -35 -1079 -117 -349 -355 -529 -674 -512 -184 11 -331 86 -490 253
-273 287 -468 799 -572 1504 -19 133 -22 196 -23 450 0 246 3 312 19 395 66
358 207 589 422 694 99 48 163 61 289 57 94 -2 121 -7 186 -33z"/>
<path d="M3310 16389 c-274 -13 -601 -38 -715 -55 -303 -45 -377 -117 -362
-355 19 -291 149 -456 370 -467 133 -7 231 26 468 154 167 90 260 128 362 147
l78 15 -3 -1147 c-4 -1300 2 -1190 -92 -1563 -62 -245 -80 -369 -80 -573 l-1
-171 37 -76 c46 -92 103 -147 201 -194 119 -56 194 -68 422 -68 228 0 304 12
420 68 90 43 154 100 192 173 45 85 57 161 50 318 -9 180 -31 318 -83 525 -94
371 -88 262 -92 1562 l-3 1146 84 -18 c103 -23 151 -43 397 -168 225 -114 303
-137 429 -130 226 13 360 204 361 514 0 90 -3 106 -27 155 -25 47 -36 58 -93
87 -110 55 -298 83 -775 113 -221 14 -1306 20 -1545 8z"/>
<path d="M10375 16390 c-181 -10 -310 -24 -472 -51 -227 -37 -345 -94 -399
-192 l-29 -52 0 -180 c1 -207 16 -318 75 -550 92 -360 100 -447 100 -1131 0
-646 -12 -790 -85 -1064 -65 -242 -95 -443 -95 -635 0 -146 14 -197 72 -254
93 -94 300 -148 688 -182 200 -17 906 -23 1155 -10 572 31 762 64 834 146 44
51 56 97 55 220 -2 133 -22 223 -71 317 -69 131 -170 191 -323 190 -118 0
-202 -29 -450 -156 -113 -57 -233 -113 -267 -124 -117 -38 -525 -93 -546 -73
-4 4 -6 261 -5 572 l3 564 116 31 c155 43 267 61 450 74 194 14 321 34 393 60
168 63 258 191 260 370 1 70 -3 93 -22 133 -50 100 -138 142 -297 140 -187 -2
-377 -62 -711 -228 -102 -50 -187 -89 -189 -86 -3 2 -5 370 -5 818 l0 813 29
0 c63 0 271 -31 369 -56 123 -30 193 -59 385 -159 80 -42 183 -90 229 -107 74
-29 95 -32 193 -32 135 -1 188 19 263 98 93 99 133 219 135 408 1 110 0 119
-29 174 -25 50 -38 63 -84 86 -90 46 -253 70 -660 98 -209 14 -879 21 -1065
10z"/>
<path d="M18673 16376 c-218 -41 -332 -121 -379 -266 -14 -43 -16 -79 -11
-223 6 -191 28 -337 82 -542 86 -327 95 -434 95 -1111 0 -670 -7 -752 -94
-1104 -47 -187 -60 -256 -76 -390 -13 -108 -12 -312 0 -368 27 -114 97 -204
198 -254 66 -33 68 -33 212 -33 144 0 146 0 212 33 101 50 171 140 198 254 14
64 12 268 -5 407 -16 128 -36 226 -80 391 -35 132 -62 284 -75 431 -7 84 -10
415 -8 1022 l3 898 940 -1627 c1037 -1795 976 -1699 1121 -1771 74 -36 83 -38
173 -38 74 0 104 4 131 19 49 26 88 64 113 111 l22 40 5 1330 c7 1478 3 1388
76 1675 73 283 104 486 104 680 0 174 -38 282 -127 360 -82 72 -120 84 -278
88 -125 3 -146 1 -200 -18 -81 -30 -172 -121 -206 -205 -23 -57 -24 -71 -23
-255 1 -222 13 -311 74 -548 87 -335 102 -487 98 -1005 l-3 -378 -505 863
c-677 1158 -682 1166 -735 1232 -108 132 -273 234 -460 283 -90 23 -122 26
-310 29 -147 2 -231 -1 -282 -10z"/>
<path d="M13004 11931 c-87 -30 -186 -90 -216 -131 -10 -15 -51 -166 -99 -365
-44 -187 -82 -341 -84 -343 -2 -2 -74 -12 -162 -23 -285 -35 -418 -82 -457
-163 -33 -70 -11 -171 50 -228 56 -52 115 -60 207 -29 54 19 256 56 263 48 2
-2 -37 -179 -87 -393 l-90 -389 -78 -150 c-224 -431 -426 -723 -665 -960 -164
-163 -317 -263 -457 -299 -64 -16 -388 -31 -406 -19 -8 6 14 101 83 353 152
557 285 945 420 1231 71 151 76 179 37 218 -33 33 -115 61 -177 61 -135 0
-300 -54 -385 -126 -34 -28 -76 -105 -131 -237 -129 -312 -544 -956 -787
-1225 -116 -127 -230 -242 -241 -242 -25 0 31 213 218 835 163 542 189 648
197 800 5 97 5 101 -21 132 -40 48 -96 66 -201 66 -104 -1 -187 -25 -270 -78
-78 -49 -95 -79 -105 -183 -15 -157 -18 -165 -138 -380 -200 -361 -368 -618
-560 -859 -84 -105 -351 -386 -383 -404 -18 -9 9 115 181 846 110 469 140 609
140 658 0 73 -40 131 -112 161 -36 15 -36 16 -26 53 22 80 -12 172 -76 206
-37 20 -54 22 -184 20 -344 -4 -648 -72 -918 -203 -148 -72 -254 -151 -369
-273 -212 -225 -406 -608 -461 -912 -21 -114 -15 -378 11 -469 54 -194 205
-341 398 -390 161 -41 285 -40 473 4 85 20 219 69 260 96 13 9 27 15 29 13 5
-5 -26 -146 -51 -236 -16 -60 -20 -64 -73 -94 -129 -73 -293 -193 -356 -261
-188 -203 -290 -468 -271 -702 21 -255 129 -434 318 -528 145 -73 322 -33 466
106 74 70 129 155 206 316 90 188 150 395 220 760 49 253 26 215 231 369 194
145 365 306 537 508 l96 112 4 -127 c4 -131 20 -191 70 -264 67 -98 422 -153
584 -90 110 42 310 206 449 370 33 39 61 70 62 68 1 -1 -16 -67 -37 -146 -145
-531 -247 -1119 -257 -1476 -8 -268 16 -386 93 -454 41 -36 85 -48 194 -56
128 -9 258 15 325 60 116 77 232 204 392 431 108 152 245 419 297 578 59 182
70 415 25 545 -11 35 -19 65 -17 68 3 2 38 13 79 23 283 72 520 239 775 542
l81 97 6 -147 c4 -123 10 -161 32 -225 28 -86 67 -149 116 -190 170 -143 589
-141 882 4 268 134 608 459 885 847 187 262 415 673 415 748 0 53 -32 107 -86
146 -34 25 -49 29 -105 29 -98 0 -116 -15 -196 -167 -148 -279 -327 -552 -494
-752 -108 -129 -318 -333 -420 -409 -164 -121 -316 -190 -376 -170 -47 16 -55
26 -72 84 -14 50 -14 62 5 172 15 88 439 1909 467 2003 3 11 28 19 92 29 233
34 520 127 623 202 121 87 81 258 -76 324 -50 20 -86 13 -178 -36 -123 -66
-357 -130 -357 -97 0 7 34 155 76 328 80 334 86 382 47 421 -27 26 -81 38
-183 38 -68 0 -102 -6 -166 -29z m-5011 -2023 c-80 -261 -213 -574 -353 -828
-79 -144 -322 -436 -414 -497 -87 -59 -154 -41 -181 50 -49 165 -15 381 99
623 128 269 385 540 626 656 60 29 199 77 227 78 l21 0 -25 -82z m2698 -1846
c94 -60 125 -136 116 -285 -8 -137 -75 -334 -170 -498 -67 -117 -218 -341
-225 -335 -8 9 77 524 135 814 55 270 70 332 83 332 9 0 36 -13 61 -28z
m-3312 -843 c-50 -227 -104 -348 -123 -277 -11 42 -6 134 10 189 26 87 136
290 150 276 2 -2 -14 -87 -37 -188z"/>
<path d="M9812 11189 c-83 -41 -157 -122 -178 -196 -37 -129 1 -232 106 -286
49 -26 63 -28 131 -25 90 5 149 31 213 93 69 67 90 115 90 210 1 64 -4 88 -22
122 -58 111 -210 147 -340 82z"/>
<path d="M19139 10385 c-246 -35 -421 -107 -591 -244 -175 -141 -315 -317
-409 -517 -70 -148 -74 -156 -143 -264 -241 -379 -504 -658 -819 -869 -43 -29
-80 -51 -81 -49 -2 1 102 399 230 883 128 484 233 890 234 902 0 32 -46 81
-88 93 -20 5 -78 10 -128 10 -111 0 -221 -26 -324 -78 -69 -34 -77 -42 -102
-92 -50 -102 -130 -314 -209 -552 -82 -251 -133 -370 -239 -560 -86 -156 -132
-217 -264 -353 -86 -89 -124 -120 -169 -141 -70 -32 -100 -27 -116 17 -14 41
-14 155 0 256 27 199 159 614 321 1018 107 265 121 307 122 361 1 47 -3 67
-18 83 -56 62 -273 76 -422 28 -127 -42 -141 -59 -225 -277 -280 -729 -372
-1065 -373 -1370 0 -155 13 -227 59 -327 67 -148 231 -236 440 -237 195 0 374
77 583 253 58 49 71 57 67 39 -3 -13 -20 -83 -38 -157 l-32 -134 -85 -45
c-200 -106 -407 -261 -565 -423 -240 -248 -335 -444 -335 -693 0 -180 34 -272
139 -377 103 -102 217 -149 367 -149 208 0 431 109 564 275 163 206 256 436
401 999 l64 248 115 58 c172 86 379 210 487 291 109 83 307 270 402 382 l65
76 31 -92 c64 -194 185 -363 315 -442 77 -47 156 -71 295 -90 242 -34 505 6
716 110 50 24 60 26 95 16 21 -7 84 -14 139 -18 127 -7 223 15 365 86 134 66
240 143 377 275 l113 108 0 -78 c1 -212 71 -349 217 -423 99 -50 172 -64 298
-58 179 8 339 74 455 187 28 28 53 50 54 50 2 0 6 -27 9 -60 11 -102 58 -169
147 -209 35 -16 66 -21 136 -21 142 0 265 44 422 153 116 80 227 211 489 577
165 230 206 294 365 573 223 390 233 418 179 497 -47 70 -92 95 -170 95 -98
-1 -118 -16 -193 -154 -150 -280 -326 -565 -504 -817 -103 -146 -234 -317
-239 -312 -2 2 17 80 41 173 25 94 68 265 95 380 28 116 85 336 126 489 105
394 114 487 57 555 -67 80 -271 83 -430 5 -66 -31 -101 -59 -118 -92 -7 -15
-46 -146 -86 -292 -132 -488 -233 -812 -290 -935 -49 -107 -164 -276 -236
-348 -96 -97 -163 -119 -211 -71 l-26 26 6 131 c7 162 28 250 167 696 124 399
156 520 170 647 12 109 2 194 -26 226 -49 53 -223 90 -326 69 -101 -21 -196
-84 -223 -145 -8 -20 -11 -56 -8 -105 8 -127 -44 -272 -189 -536 -149 -270
-344 -532 -529 -710 -86 -83 -230 -195 -251 -195 -4 0 12 37 38 83 180 323
254 561 254 814 0 156 -51 286 -145 371 -31 29 -58 64 -69 91 -25 63 -65 117
-142 192 -78 74 -137 111 -233 147 -83 31 -265 38 -412 17z m151 -427 c59 -41
60 -52 9 -105 -128 -134 -199 -273 -257 -503 -24 -95 -27 -122 -26 -285 0
-180 17 -313 50 -407 13 -37 12 -38 -19 -62 -45 -33 -88 -54 -138 -66 -90 -20
-199 50 -252 163 -56 118 -85 306 -68 447 29 231 165 495 356 685 142 143 262
189 345 133z m263 -440 c-10 -99 -34 -182 -96 -338 l-62 -155 -3 54 c-7 121
44 332 101 416 20 30 58 75 63 75 2 0 1 -24 -3 -52z m-3335 -2090 c-39 -143
-98 -281 -181 -426 -69 -123 -194 -199 -238 -145 -20 24 -15 130 10 206 27 81
67 143 161 253 64 74 262 253 281 254 4 0 -11 -64 -33 -142z"/>
<path d="M21090 6014 c-290 -36 -463 -166 -516 -390 -19 -81 -21 -262 -4 -399
13 -112 49 -278 95 -455 56 -211 65 -290 75 -685 11 -422 27 -573 90 -810 77
-292 185 -446 333 -477 167 -35 314 116 416 429 85 258 111 460 121 933 9 409
8 397 84 677 87 318 118 623 81 781 -47 197 -172 317 -390 372 -79 20 -303 34
-385 24z"/>
<path d="M17935 5974 c-236 -23 -347 -50 -467 -110 -95 -48 -180 -130 -221
-213 l-32 -66 0 -180 c1 -201 17 -329 65 -515 101 -388 103 -404 107 -1050 6
-689 -2 -781 -88 -1123 -71 -284 -93 -448 -88 -648 4 -117 6 -129 37 -191 101
-206 377 -299 928 -315 469 -13 874 65 1229 237 607 294 949 814 1047 1590 20
159 17 632 -5 790 -97 696 -395 1170 -924 1468 -273 154 -643 263 -1042 307
-142 15 -468 27 -546 19z m798 -568 c160 -48 263 -112 382 -238 209 -222 332
-566 376 -1048 16 -183 13 -596 -6 -775 -39 -372 -130 -665 -268 -870 -57 -85
-170 -199 -249 -251 -144 -96 -282 -135 -483 -138 l-130 -1 -3 1679 -2 1679
147 -6 c120 -4 165 -10 236 -31z"/>
<path d="M12265 5960 c-416 -25 -680 -76 -790 -154 -101 -73 -120 -132 -112
-359 6 -184 28 -325 86 -549 83 -323 90 -415 91 -1089 0 -676 -7 -756 -94
-1109 -67 -268 -86 -401 -86 -595 0 -146 14 -197 72 -254 93 -94 300 -148 688
-182 198 -17 895 -23 1150 -10 421 22 666 51 763 93 55 24 99 71 118 125 19
53 16 241 -5 327 -52 216 -181 329 -376 328 -119 0 -184 -23 -465 -163 -198
-99 -256 -123 -330 -139 -105 -22 -299 -48 -400 -52 l-70 -3 0 570 0 570 116
32 c159 43 270 60 500 78 276 21 386 53 486 140 85 73 138 236 114 352 -22
112 -87 173 -211 199 -183 38 -426 -28 -816 -221 -102 -50 -187 -89 -189 -86
-3 2 -5 370 -5 818 l0 813 29 0 c63 0 271 -31 369 -56 123 -30 193 -59 385
-159 80 -42 183 -90 229 -107 74 -29 95 -32 193 -32 135 -1 188 19 263 98 93
98 133 218 135 407 2 110 1 118 -28 175 -26 50 -38 63 -85 86 -90 46 -252 70
-660 98 -210 14 -880 21 -1065 10z"/>
<path d="M15185 5960 c-185 -11 -313 -25 -472 -51 -227 -37 -345 -94 -399
-192 l-29 -52 0 -180 c1 -207 16 -318 75 -550 92 -360 100 -447 100 -1131 0
-670 -7 -752 -94 -1104 -67 -268 -86 -401 -86 -595 0 -146 14 -197 72 -254 93
-94 300 -148 688 -182 199 -17 896 -23 1149 -10 572 30 768 64 840 146 44 51
56 97 55 220 -2 133 -22 223 -71 317 -69 131 -170 191 -323 190 -119 0 -184
-23 -465 -163 -198 -99 -256 -123 -330 -139 -105 -22 -299 -48 -400 -52 l-70
-3 0 570 0 570 116 32 c159 43 270 60 500 78 276 21 386 53 486 140 85 73 138
236 114 352 -22 112 -87 173 -211 199 -183 38 -426 -28 -816 -221 -102 -50
-187 -89 -189 -86 -3 2 -5 370 -5 818 l0 813 29 0 c63 0 271 -31 369 -56 123
-30 193 -59 385 -159 80 -42 183 -90 229 -107 74 -29 95 -32 193 -32 135 -1
188 19 263 98 93 98 133 218 135 407 2 110 1 118 -28 175 -26 50 -38 63 -85
86 -90 46 -252 70 -660 98 -210 14 -880 21 -1065 10z"/>
<path d="M8233 5946 c-218 -41 -332 -121 -379 -266 -14 -43 -16 -79 -11 -223
6 -194 26 -328 86 -559 83 -323 90 -415 91 -1089 0 -676 -7 -756 -94 -1109
-47 -187 -60 -256 -76 -390 -13 -108 -12 -312 0 -368 27 -114 97 -204 198
-254 66 -33 68 -33 212 -33 144 0 146 0 212 33 101 50 171 140 198 254 14 64
12 268 -5 407 -16 128 -36 226 -80 391 -35 132 -62 284 -75 431 -7 84 -10 415
-8 1022 l3 898 940 -1627 c1037 -1795 975 -1699 1121 -1771 74 -36 83 -38 173
-38 74 0 104 4 131 19 49 26 88 64 113 111 l22 40 5 1330 c7 1478 3 1388 76
1675 73 283 104 486 104 680 0 174 -38 282 -127 360 -82 72 -120 84 -278 88
-125 3 -146 1 -200 -18 -81 -30 -172 -121 -206 -205 -23 -57 -24 -71 -23 -255
1 -222 13 -311 74 -548 87 -335 102 -487 98 -1005 l-3 -378 -505 863 c-673
1151 -681 1165 -735 1232 -108 132 -273 234 -460 283 -90 23 -122 26 -310 29
-147 2 -231 -1 -282 -10z"/>
<path d="M21062 2550 c-95 -25 -166 -66 -229 -133 -88 -93 -123 -188 -123
-331 1 -107 11 -159 48 -234 79 -163 256 -262 467 -262 274 0 469 159 505 413
38 271 -104 493 -352 552 -88 20 -227 18 -316 -5z"/>
</g>
</svg>
