<?xml version="1.0" standalone="no"?>
<!DOCTYPE svg PUBLIC "-//W3C//DTD SVG 20010904//EN"
 "http://www.w3.org/TR/2001/REC-SVG-20010904/DTD/svg10.dtd">
<svg version="1.0" xmlns="http://www.w3.org/2000/svg"
 width="1063.000000pt" height="1063.000000pt" viewBox="0 0 1063.000000 1063.000000"
 preserveAspectRatio="xMidYMid meet">

<g transform="translate(0.000000,1063.000000) scale(0.100000,-0.100000)"
fill="#000000" stroke="none">
<path d="M3295 9606 c-55 -26 -128 -98 -165 -164 -23 -40 -27 -43 -57 -37
-337 63 -693 1 -919 -160 -128 -92 -236 -246 -269 -386 -19 -82 -19 -239 0
-312 49 -189 211 -349 381 -377 145 -24 329 52 424 175 58 75 81 142 88 251 6
110 -18 202 -70 275 -68 96 -134 133 -233 132 -88 0 -166 -29 -228 -84 -69
-60 -99 -159 -50 -159 12 0 24 16 37 45 10 25 36 60 57 79 116 99 276 60 343
-84 18 -38 21 -64 21 -160 0 -112 -1 -117 -34 -178 -41 -76 -94 -124 -181
-166 -57 -27 -76 -31 -150 -31 -71 0 -94 4 -142 27 -115 54 -195 169 -219 316
-22 134 19 269 121 397 126 158 300 252 528 285 86 13 441 9 473 -4 14 -6 15
-13 3 -64 -57 -241 -74 -647 -48 -1102 l7 -105 -93 -18 c-154 -29 -276 -101
-362 -211 l-41 -53 -45 13 c-59 18 -193 18 -262 -1 -143 -38 -300 -154 -363
-269 -121 -219 -124 -478 -10 -713 54 -112 177 -235 290 -291 115 -57 211 -76
337 -69 126 8 198 26 301 76 342 169 526 584 529 1199 1 178 2 183 21 178 88
-21 263 -38 369 -34 99 3 130 8 171 26 104 48 157 130 135 211 -19 71 -63 59
-53 -14 11 -87 -55 -145 -167 -144 -58 0 -192 22 -373 61 -90 19 -109 26 -112
43 -8 38 -85 790 -95 930 -5 77 -10 182 -10 233 0 83 2 92 19 92 10 0 110 -16
222 -35 387 -67 597 -69 757 -10 130 49 222 159 222 267 0 64 -23 118 -49 118
-28 0 -31 -9 -17 -65 26 -101 -22 -193 -130 -246 -62 -31 -73 -33 -200 -37
-81 -3 -166 0 -212 8 -90 14 -584 119 -591 125 -2 3 2 24 9 47 17 58 82 122
140 138 25 7 51 14 58 16 6 2 12 13 12 24 0 17 -6 20 -37 20 -21 0 -60 -11
-88 -24z m-280 -1996 c-1 -296 -12 -435 -45 -566 -45 -174 -103 -277 -225
-399 -104 -105 -198 -159 -308 -178 -144 -24 -299 33 -422 157 -118 119 -168
250 -168 441 0 140 30 239 104 350 221 329 712 288 814 -69 47 -161 -27 -325
-180 -401 -100 -50 -81 -98 19 -52 157 72 270 296 238 470 -24 127 -105 247
-216 319 l-60 38 60 58 c82 80 206 123 344 119 l45 -2 0 -285z"/>
<path d="M7161 9139 c-57 -23 -140 -118 -191 -219 -66 -131 -122 -352 -156
-620 -18 -136 -25 -466 -14 -670 5 -90 3 -99 -28 -177 -36 -88 -109 -183 -143
-183 -38 0 -62 66 -79 219 -10 89 -6 221 16 562 l7 97 -29 18 c-40 27 -168 27
-208 0 l-29 -18 6 -267 c5 -213 11 -288 28 -376 28 -141 27 -168 -11 -355 -38
-184 -49 -214 -89 -234 -66 -35 -70 -5 -51 459 18 433 -21 679 -121 770 -45
41 -73 49 -139 43 -129 -13 -226 -153 -284 -410 -12 -53 -25 -100 -29 -104 -4
-4 -7 40 -7 97 -1 203 -40 328 -119 384 -36 25 -52 30 -104 30 -75 0 -107 -19
-160 -97 -39 -56 -64 -120 -102 -257 l-24 -86 0 90 c0 50 4 134 9 188 11 112
6 129 -41 146 -64 22 -159 3 -173 -35 -17 -44 -29 -279 -30 -589 l-1 -350 -28
-57 c-47 -95 -101 -88 -132 15 -19 65 -19 244 0 442 8 83 15 160 15 172 0 34
-47 53 -128 53 -103 0 -107 -5 -132 -175 -11 -77 -25 -156 -30 -176 -15 -52
-51 -102 -83 -113 -64 -23 -91 59 -92 274 0 124 3 156 23 220 57 183 191 280
281 204 41 -34 54 -59 61 -114 4 -37 9 -46 28 -48 28 -4 36 16 28 72 -14 91
-95 169 -210 202 -197 56 -398 -101 -467 -365 -32 -121 -13 -242 58 -372 56
-103 181 -189 256 -175 46 9 101 59 136 124 l28 54 7 -69 c23 -223 125 -363
267 -363 37 0 48 6 83 43 23 23 49 65 59 93 l18 51 67 -1 c48 -1 75 4 94 16
25 16 26 23 33 125 14 234 38 377 87 533 55 174 123 274 168 250 10 -6 22 -15
26 -22 4 -6 6 -206 5 -444 -2 -409 -1 -433 16 -442 36 -20 170 -19 197 1 15
11 21 46 37 208 28 287 59 428 125 564 41 85 53 100 89 119 35 18 73 3 82 -32
3 -14 2 -118 -3 -231 -5 -113 -9 -309 -8 -436 1 -317 22 -418 110 -514 45 -51
81 -65 151 -59 50 4 60 9 93 45 46 48 73 120 100 260 11 59 23 119 26 132 l5
24 37 -35 c70 -67 116 -74 200 -32 62 31 110 84 148 164 16 33 31 56 35 52 3
-4 12 -36 19 -72 84 -422 276 -635 485 -536 116 54 205 196 271 433 l38 133
30 -31 c66 -68 152 -87 225 -49 53 27 106 92 130 159 l19 56 1 -166 1 -165
-126 -114 c-157 -143 -302 -308 -387 -442 l-36 -56 23 -16 c24 -15 25 -14 73
62 27 42 84 118 127 169 74 88 273 285 308 304 14 8 17 0 23 -67 9 -93 -10
-436 -30 -563 -12 -74 -13 -102 -4 -130 6 -20 15 -40 19 -44 4 -4 17 29 29 75
46 168 69 202 146 215 30 5 34 9 39 47 16 111 26 252 32 466 l7 235 59 65
c135 148 258 374 262 480 1 38 -2 45 -18 45 -15 0 -23 -14 -37 -65 -26 -93
-100 -237 -168 -327 -108 -144 -99 -168 -93 245 l5 358 -28 22 c-22 18 -41 22
-97 22 -63 0 -72 -3 -98 -28 -31 -32 -35 -53 -45 -254 -7 -139 -28 -284 -56
-389 -37 -137 -109 -188 -163 -116 -19 25 -21 41 -19 135 1 59 11 215 22 347
21 234 21 241 3 265 -23 30 -48 38 -128 39 -47 1 -67 -4 -85 -18 -24 -19 -24
-20 -27 -271 -3 -160 1 -281 8 -333 7 -45 12 -94 11 -108 -2 -59 -66 -252
-120 -364 -60 -125 -112 -187 -166 -201 -79 -20 -171 48 -199 146 -39 138 -48
222 -53 538 l-5 312 80 123 c245 373 353 714 297 932 -20 76 -60 149 -102 186
-29 25 -41 29 -91 28 -31 0 -68 -5 -81 -10z m158 -88 c34 -34 51 -79 63 -161
30 -202 -69 -516 -252 -800 l-55 -85 -3 60 c-5 97 27 627 44 722 17 101 35
168 58 211 34 66 106 92 145 53z"/>
<path d="M6392 8534 c-47 -24 -65 -65 -60 -135 5 -69 30 -103 90 -121 51 -15
108 2 143 44 24 29 27 38 23 95 -3 55 -8 68 -35 95 -39 38 -109 48 -161 22z"/>
<path d="M3330 6475 c-10 -13 -12 -85 -6 -348 4 -182 11 -336 15 -340 5 -5 19
-7 32 -5 l24 3 0 343 c0 294 -2 344 -15 352 -21 14 -36 12 -50 -5z"/>
<path d="M3556 6479 c-91 -22 -138 -77 -138 -160 0 -69 30 -104 172 -199 120
-80 156 -114 167 -158 15 -62 -41 -112 -127 -112 -53 0 -121 29 -143 60 -20
29 -61 24 -65 -8 -9 -60 72 -113 186 -120 132 -9 212 43 220 142 9 106 -28
149 -243 290 -50 33 -83 61 -89 78 -23 65 31 118 120 118 65 0 112 -30 139
-88 17 -36 24 -42 45 -40 22 3 25 7 24 44 -2 105 -141 185 -268 153z"/>
<path d="M4600 6475 c-10 -11 -11 -89 -8 -330 2 -173 1 -311 -3 -307 -4 4 -39
93 -79 197 -81 214 -154 389 -176 423 -25 39 -52 28 -78 -33 -45 -100 -236
-602 -236 -618 0 -22 31 -38 52 -26 9 5 28 42 43 82 15 39 35 90 45 112 l17
40 132 -5 133 -5 41 -104 c45 -112 64 -134 97 -114 12 8 21 9 25 3 3 -6 17
-10 30 -10 18 0 26 7 31 25 4 14 5 140 2 280 -2 140 -3 255 -2 255 2 0 217
-293 324 -442 63 -88 90 -118 106 -118 46 0 47 10 40 338 l-8 307 43 -65 c23
-36 73 -116 111 -178 67 -111 68 -114 69 -185 2 -138 12 -201 32 -205 41 -8
48 14 46 148 l-2 126 95 144 c137 209 156 244 139 264 -29 35 -47 18 -157
-154 -60 -93 -111 -170 -115 -170 -3 0 -10 10 -16 23 -19 40 -182 294 -199
308 -11 9 -20 10 -32 2 -12 -7 -22 -7 -34 0 -12 8 -21 7 -32 -2 -14 -12 -16
-49 -16 -283 l0 -270 -97 133 c-309 428 -330 453 -363 414z m-240 -257 l48
-123 -49 -3 c-26 -2 -72 -2 -102 0 l-54 3 50 128 c28 70 52 125 54 123 3 -2
26 -60 53 -128z"/>
<path d="M5813 6472 c-90 -32 -150 -90 -195 -188 -20 -42 -23 -66 -23 -169 0
-114 1 -122 30 -173 38 -71 111 -136 170 -152 72 -20 183 -9 239 24 56 33 108
108 131 190 23 80 16 219 -14 298 -54 139 -207 217 -338 170z m165 -81 c48
-25 77 -56 100 -111 54 -124 28 -305 -55 -381 -49 -46 -144 -63 -210 -38 -38
14 -100 75 -126 124 -32 58 -31 198 2 271 24 54 76 111 126 137 42 22 118 21
163 -2z"/>
<path d="M6215 6477 c-3 -6 -4 -162 -3 -346 3 -305 4 -335 21 -345 12 -8 22
-8 35 0 16 11 17 33 14 285 -2 172 1 270 7 264 9 -11 273 -372 355 -487 50
-71 84 -88 104 -51 13 22 3 664 -10 681 -12 14 -27 15 -48 2 -13 -8 -14 -49
-12 -282 2 -166 0 -269 -6 -263 -5 6 -44 60 -87 120 -218 307 -318 435 -342
435 -13 0 -26 -6 -28 -13z"/>
<path d="M6808 6479 c-11 -7 -12 -657 -1 -685 4 -12 37 -14 217 -12 l211 3 0
30 0 30 -176 3 -176 2 -7 92 c-3 50 -6 108 -6 130 l0 38 164 0 c136 0 167 3
180 16 20 19 20 29 0 48 -13 13 -44 16 -180 16 l-164 0 0 110 0 110 183 2 182
3 3 28 c2 16 -2 29 -10 32 -21 7 -409 11 -420 4z"/>
<path d="M7430 6480 c-12 -7 -12 -18 -2 -67 14 -71 169 -588 183 -615 7 -13
19 -18 37 -16 26 3 30 12 107 258 45 140 83 261 86 268 2 8 20 -40 38 -105 62
-213 120 -395 132 -409 20 -25 49 -16 64 19 7 17 50 151 95 297 45 146 85 272
88 280 4 8 9 -124 12 -295 3 -170 7 -311 8 -312 1 -2 13 -3 26 -3 45 0 49 19
43 180 l-5 150 189 0 189 0 0 -148 c0 -162 7 -187 51 -180 l24 3 3 155 c2 85
0 241 -3 347 -7 178 -9 193 -27 198 -41 14 -48 -8 -48 -161 l0 -144 -187 2
-188 3 -3 140 c-1 77 -7 144 -13 150 -14 14 -106 16 -117 2 -5 -7 -45 -127
-88 -267 -42 -140 -80 -258 -84 -263 -3 -4 -35 91 -70 210 -104 360 -92 328
-123 331 -33 4 -26 21 -122 -293 -42 -137 -78 -251 -80 -253 -3 -3 -38 111
-106 343 -28 99 -56 186 -62 193 -11 14 -26 15 -47 2z"/>
<path d="M9075 6481 c-50 -13 -112 -49 -149 -87 -98 -101 -134 -301 -77 -430
26 -58 106 -143 158 -166 92 -41 244 -17 310 50 101 101 129 317 61 474 -49
114 -188 187 -303 159z m122 -82 c38 -14 90 -66 116 -114 26 -50 36 -194 17
-260 -32 -114 -103 -175 -205 -175 -94 0 -174 58 -210 154 -26 68 -17 204 18
272 55 108 167 160 264 123z"/>
<path d="M2041 6029 c-57 -23 -140 -118 -191 -219 -134 -266 -213 -874 -166
-1275 31 -266 88 -493 159 -629 121 -234 311 -282 470 -120 62 64 127 196 168
344 18 63 35 119 39 123 4 5 17 -7 29 -27 28 -45 85 -90 156 -122 47 -22 67
-26 123 -22 81 5 129 27 187 85 90 89 139 244 133 417 l-3 95 42 -2 c24 -1 43
-4 43 -7 0 -3 5 -44 10 -90 21 -171 81 -342 145 -419 37 -43 137 -91 190 -91
57 1 113 30 167 87 52 57 79 105 118 213 27 72 29 75 66 83 22 5 54 15 73 23
18 8 34 14 35 12 1 -2 7 -35 14 -75 47 -286 227 -418 431 -316 114 57 222 193
330 414 l56 116 108 -100 c59 -55 107 -103 107 -108 0 -4 -24 -15 -52 -25
-212 -69 -328 -191 -328 -343 0 -82 22 -133 80 -185 55 -49 128 -82 211 -95
121 -20 239 20 329 109 60 61 96 133 118 238 19 95 9 183 -33 278 -14 31 -25
58 -25 59 0 1 26 18 58 38 138 85 310 327 233 327 -13 0 -29 -18 -49 -52 -49
-87 -111 -157 -185 -209 -39 -27 -75 -49 -81 -48 -6 0 -29 23 -51 52 -22 28
-101 99 -175 159 -182 146 -211 203 -158 308 54 106 201 121 258 27 39 -64 16
-150 -51 -193 -41 -25 -44 -54 -7 -54 27 0 82 35 101 64 65 98 24 227 -90 283
-44 21 -69 26 -128 26 -172 0 -286 -122 -288 -308 -1 -58 4 -81 27 -130 16
-33 28 -67 27 -75 -5 -33 -115 -249 -166 -325 -114 -171 -223 -225 -298 -147
-39 41 -50 104 -44 250 7 172 25 275 46 267 38 -15 114 -17 158 -4 68 19 129
82 138 143 19 127 -98 235 -241 223 -182 -14 -332 -205 -369 -469 -5 -39 -12
-50 -39 -67 -18 -12 -48 -24 -66 -28 l-33 -6 7 34 c37 178 47 334 25 414 -24
88 -97 141 -160 115 -33 -14 -80 -64 -105 -111 -30 -59 -43 -152 -32 -236 15
-127 64 -209 145 -245 24 -10 43 -23 43 -28 0 -5 -11 -39 -25 -76 -54 -144
-107 -209 -180 -221 -62 -10 -95 36 -128 181 -17 79 -20 132 -23 396 l-3 305
-28 17 c-37 24 -169 25 -201 2 -21 -15 -22 -21 -22 -170 l0 -154 -32 0 c-45 0
-53 7 -72 66 -18 56 -75 155 -109 192 -12 13 -42 36 -67 50 -39 23 -56 27
-125 27 -96 0 -140 -20 -226 -101 -63 -61 -110 -145 -135 -243 -21 -84 -16
-252 11 -334 l19 -57 -32 -118 c-43 -155 -134 -344 -190 -394 -72 -65 -139
-63 -208 6 -80 79 -104 216 -111 634 l-5 312 80 123 c245 373 353 714 297 932
-20 76 -60 149 -102 186 -29 25 -41 29 -91 28 -31 0 -68 -5 -81 -10z m158 -88
c34 -34 51 -79 63 -161 30 -202 -69 -516 -252 -800 l-55 -85 -3 60 c-5 97 27
627 44 722 17 101 35 168 58 211 34 66 106 92 145 53z m1659 -944 c30 -31 42
-78 42 -157 0 -68 -22 -229 -40 -292 -10 -35 -12 -36 -40 -27 -46 16 -97 81
-116 146 -32 110 -1 266 66 333 27 27 62 25 88 -3z m691 -22 c34 -17 41 -32
41 -92 0 -38 -5 -50 -33 -78 -43 -43 -102 -60 -158 -45 -39 11 -41 13 -35 43
10 48 52 134 80 162 28 28 64 32 105 10z m-1584 -45 c8 -7 15 -25 15 -41 0
-39 33 -106 74 -151 33 -36 34 -41 41 -142 8 -110 -5 -196 -40 -279 -23 -55
-90 -123 -140 -142 -39 -15 -45 -15 -73 -1 -41 21 -68 69 -91 158 -56 219 -23
487 71 582 36 36 41 38 83 34 25 -3 52 -11 60 -18z m2205 -634 c39 -77 51
-175 31 -249 -17 -59 -73 -133 -128 -168 -93 -58 -224 -31 -288 60 -26 37 -30
52 -29 104 0 99 58 182 176 251 50 29 177 77 193 72 6 -1 26 -33 45 -70z"/>
<path d="M8297 5070 c-49 -15 -54 -26 -61 -123 -13 -175 -47 -502 -57 -545
-22 -98 -70 -155 -131 -155 -55 0 -61 19 -53 188 3 83 16 249 28 369 19 180
20 221 9 232 -20 21 -81 34 -154 34 -95 0 -98 -5 -98 -192 l0 -148 -27 0 c-40
0 -48 9 -67 66 -18 56 -75 155 -109 192 -12 13 -42 36 -67 50 -39 23 -56 27
-125 27 -96 0 -140 -20 -226 -101 -100 -96 -149 -226 -149 -395 l0 -98 -59
-74 c-33 -41 -64 -78 -69 -81 -6 -3 -7 130 -4 352 l5 358 -28 22 c-22 18 -41
22 -97 22 -63 0 -72 -3 -98 -28 -31 -32 -35 -53 -45 -254 -7 -139 -28 -284
-56 -389 -37 -137 -109 -188 -163 -116 -19 26 -21 41 -19 136 1 58 11 214 23
346 20 234 20 241 2 265 -23 30 -48 38 -128 39 -47 1 -67 -4 -85 -18 -24 -19
-24 -20 -27 -271 -4 -272 5 -383 38 -453 40 -86 124 -147 200 -147 85 0 173
75 209 179 l19 56 1 -166 1 -165 -125 -114 c-69 -62 -151 -142 -183 -178 -73
-84 -192 -235 -192 -244 0 -5 13 -8 28 -8 24 0 39 13 92 83 63 82 322 347 359
366 18 10 20 6 26 -63 4 -41 3 -155 -2 -253 l-10 -178 76 -102 c42 -56 79
-102 82 -103 8 0 45 176 59 278 13 94 30 396 30 540 l0 113 59 67 c33 37 68
78 78 90 l19 24 43 -88 c53 -106 109 -165 197 -206 57 -26 73 -30 132 -26 81
5 129 27 187 85 90 90 139 244 133 419 l-3 96 29 -6 c16 -4 31 -8 34 -11 2 -2
8 -56 13 -120 12 -167 29 -220 91 -290 80 -92 183 -98 271 -16 38 35 55 68 76
154 l18 72 7 -75 c20 -207 50 -325 106 -413 87 -137 240 -110 323 58 42 84 66
171 112 400 74 375 78 411 38 403 -20 -4 -20 -4 -69 -278 -63 -354 -112 -509
-185 -574 -45 -42 -59 -44 -85 -15 -17 19 -19 41 -22 258 -2 130 3 360 11 511
9 176 11 282 5 293 -20 40 -119 58 -191 37z m-762 -140 c8 -7 15 -25 15 -41 0
-39 33 -106 74 -151 33 -36 34 -41 41 -142 8 -110 -5 -196 -40 -279 -23 -55
-90 -123 -140 -142 -39 -15 -45 -15 -73 -1 -41 21 -69 69 -92 160 -56 221 -19
502 77 587 32 27 42 31 80 26 23 -2 50 -10 58 -17z"/>
<path d="M1378 3433 c-23 -6 -26 -20 -32 -198 -13 -344 41 -514 174 -554 177
-53 332 9 375 151 24 79 35 262 27 443 -7 157 -7 160 -30 163 -13 2 -30 -2
-39 -10 -14 -11 -15 -34 -9 -173 8 -205 -5 -362 -36 -424 -34 -68 -89 -94
-184 -88 -88 6 -123 24 -150 74 -42 75 -49 134 -47 375 2 206 1 229 -15 236
-9 5 -25 7 -34 5z"/>
<path d="M1969 3418 c-7 -16 -8 -134 -2 -388 l8 -365 23 -3 c13 -2 30 2 39 10
14 11 15 45 8 305 -4 161 -3 293 2 292 4 0 39 -44 78 -97 38 -53 136 -190 218
-304 119 -167 153 -208 172 -208 47 0 48 5 40 395 -7 331 -9 367 -25 375 -12
6 -24 4 -40 -7 l-23 -16 7 -296 c5 -239 4 -293 -6 -279 -7 9 -79 108 -160 220
-244 336 -281 383 -305 386 -16 2 -26 -4 -34 -20z"/>
<path d="M2825 3431 c-206 -54 -313 -359 -208 -593 67 -150 241 -216 385 -145
67 33 130 100 154 164 l18 45 27 -55 c33 -64 102 -136 156 -163 24 -12 67 -20
118 -22 173 -8 277 77 320 260 27 113 13 255 -34 346 -28 53 -98 117 -156 143
-143 63 -326 -21 -401 -185 -28 -63 -47 -191 -38 -260 6 -47 5 -49 -11 -33
-30 30 -41 22 -83 -63 -50 -102 -147 -148 -250 -119 -186 52 -229 373 -71 544
102 111 262 75 339 -75 23 -44 53 -52 74 -18 13 21 -17 88 -64 141 -60 69
-190 110 -275 88z m765 -101 c48 -25 85 -66 112 -125 20 -43 23 -66 23 -160 0
-99 -3 -116 -29 -172 -32 -71 -55 -95 -111 -119 -51 -21 -151 -22 -191 -1 -39
20 -112 99 -129 140 -35 84 -26 227 20 317 46 90 152 155 235 143 19 -3 50
-13 70 -23z"/>
<path d="M3852 3428 c-17 -17 -17 -739 0 -756 21 -21 57 -14 63 11 3 12 4 149
3 305 -2 155 0 281 4 280 7 -3 276 -373 397 -545 36 -51 49 -63 71 -63 16 0
30 7 34 16 8 21 8 537 -1 653 -5 75 -10 94 -24 102 -14 7 -23 5 -37 -9 -18
-18 -18 -36 -14 -313 l4 -294 -159 220 c-244 339 -274 379 -291 393 -20 15
-35 15 -50 0z"/>
<path d="M5085 3424 c-16 -17 -17 -42 -10 -384 4 -201 9 -368 12 -372 9 -16
53 -7 63 12 8 14 9 119 4 345 l-7 325 116 0 117 0 1 -122 c1 -68 4 -222 8
-343 6 -220 6 -220 29 -223 54 -8 54 -6 51 353 l-4 330 118 3 117 3 0 -329 c0
-354 2 -367 51 -360 l24 3 3 360 c1 198 0 370 -3 381 -6 27 -38 36 -62 19 -12
-9 -23 -10 -36 -4 -10 6 -126 9 -280 7 -144 -2 -269 1 -278 5 -11 5 -22 2 -34
-9z"/>
<path d="M6079 3427 c-179 -50 -279 -214 -267 -439 6 -103 29 -160 98 -232 73
-77 130 -99 239 -94 129 7 199 52 255 164 37 75 49 144 43 253 -8 164 -63 262
-177 318 -78 38 -129 46 -191 30z m142 -90 c47 -20 98 -73 122 -127 29 -62 35
-216 13 -293 -20 -70 -70 -136 -120 -161 -49 -24 -149 -25 -199 -1 -45 21
-103 84 -128 139 -23 51 -26 190 -5 260 29 95 102 170 186 192 52 13 84 11
131 -9z"/>
<path d="M6492 3428 c-9 -9 -12 -99 -12 -373 0 -389 1 -400 51 -393 l24 3 5
305 5 305 220 -305 220 -305 65 0 64 0 21 55 c12 30 34 88 50 128 l27 73 145
-3 146 -3 46 -119 c49 -126 67 -149 101 -128 16 10 25 10 43 -1 17 -10 69 -12
237 -7 118 3 222 3 230 0 8 -3 112 -3 230 0 l215 5 0 30 c0 25 -5 30 -35 37
-19 4 -106 6 -193 5 -134 -2 -157 0 -157 13 0 8 -3 161 -6 340 -5 264 -9 327
-21 336 -19 16 -51 6 -59 -18 -3 -12 -3 -167 1 -347 l7 -326 -193 2 -194 2 -5
336 c-5 315 -6 338 -24 350 -13 10 -24 11 -37 4 -18 -9 -19 -31 -21 -364 l-3
-355 -94 248 c-168 441 -199 500 -241 456 -18 -19 -97 -213 -212 -518 l-63
-170 -2 340 c-3 331 -3 339 -24 356 -16 14 -25 15 -40 7 -19 -10 -19 -22 -17
-309 2 -164 0 -296 -3 -294 -4 2 -59 77 -123 166 -317 445 -339 471 -374 436z
m946 -293 l50 -130 -53 -3 c-30 -2 -81 -2 -113 0 l-59 3 55 138 c30 76 58 135
62 130 5 -4 31 -66 58 -138z"/>
<path d="M8448 3429 c-10 -5 -18 -17 -18 -26 0 -8 40 -79 88 -157 179 -286
162 -245 169 -408 3 -79 10 -149 16 -155 15 -20 45 -15 58 9 8 15 10 59 5 149
l-7 127 104 159 c168 254 184 290 140 307 -31 12 -30 12 -225 -296 -24 -37
-47 -66 -52 -65 -5 2 -57 81 -116 176 -95 153 -122 191 -140 191 -3 -1 -13 -5
-22 -11z"/>
<path d="M4483 3411 c-14 -13 -15 -57 -8 -365 4 -213 11 -356 17 -363 24 -29
281 -7 364 31 165 75 233 281 162 490 -40 121 -108 180 -243 211 -89 21 -270
19 -292 -4z m332 -90 c67 -30 101 -64 125 -127 48 -129 32 -265 -41 -348 -54
-61 -117 -85 -238 -93 l-98 -6 -6 123 c-4 68 -7 204 -7 303 l0 180 108 -5 c82
-3 119 -10 157 -27z"/>
<path d="M5053 2266 c-215 -70 -327 -354 -224 -571 53 -113 108 -165 394 -375
93 -68 194 -147 224 -176 l57 -53 66 62 c36 34 149 123 250 197 226 164 308
243 353 337 31 65 32 73 32 188 0 116 -1 123 -33 187 -40 81 -102 147 -173
184 -46 24 -66 28 -139 29 -73 0 -93 -4 -142 -28 -98 -48 -191 -174 -205 -277
-6 -42 -23 -45 -23 -5 0 89 -105 231 -206 281 -66 32 -167 41 -231 20z"/>
</g>
</svg>
