<?xml version="1.0" standalone="no"?>
<!DOCTYPE svg PUBLIC "-//W3C//DTD SVG 20010904//EN"
 "http://www.w3.org/TR/2001/REC-SVG-20010904/DTD/svg10.dtd">
<svg version="1.0" xmlns="http://www.w3.org/2000/svg"
 width="1063.000000pt" height="1063.000000pt" viewBox="0 0 1063.000000 1063.000000"
 preserveAspectRatio="xMidYMid meet">

<g transform="translate(0.000000,1063.000000) scale(0.100000,-0.100000)"
fill="#000000" stroke="none">
<path d="M3958 9960 c-258 -14 -628 -40 -782 -55 -159 -16 -186 -26 -186 -71
0 -45 26 -57 110 -51 347 28 521 39 526 34 3 -3 -20 -97 -51 -209 -308 -1104
-414 -1514 -418 -1616 -2 -56 1 -66 22 -83 29 -24 43 -24 71 -1 18 14 22 30
25 82 5 93 117 525 413 1590 l68 245 39 6 c93 16 552 29 629 18 69 -9 80 -8
97 7 28 26 25 70 -8 91 -23 16 -53 18 -218 19 -104 1 -256 -2 -337 -6z"/>
<path d="M4501 9744 c-100 -43 -240 -210 -370 -441 -142 -253 -253 -580 -296
-876 -16 -115 -13 -137 26 -157 34 -19 54 -2 124 103 89 133 226 317 237 317
4 0 6 -11 2 -25 -3 -14 -7 -83 -8 -153 -1 -138 6 -162 59 -212 24 -22 35 -25
104 -25 66 0 85 4 143 33 36 18 97 61 136 97 38 36 72 65 74 65 3 0 10 -17 16
-38 7 -21 27 -54 45 -73 117 -121 365 -48 605 178 l53 50 19 -32 c26 -43 26
-46 -16 -74 -95 -65 -164 -174 -148 -236 17 -70 132 -89 215 -36 79 50 125
132 117 211 l-4 42 76 38 c103 51 252 106 330 120 36 7 75 19 88 26 50 32 9
111 -51 99 -142 -28 -275 -74 -412 -141 -78 -39 -65 -45 -122 59 -18 33 -33
70 -33 83 0 26 52 74 82 74 23 0 65 -42 90 -88 13 -25 24 -32 47 -32 35 0 61
23 61 53 0 33 -55 122 -92 148 -23 17 -50 24 -95 27 -54 4 -69 1 -108 -22 -63
-37 -100 -96 -101 -160 0 -49 -2 -51 -79 -124 -102 -96 -194 -158 -274 -182
-78 -25 -132 -25 -160 -2 -47 38 -47 152 1 277 19 51 20 56 4 80 -11 17 -25
25 -46 25 -34 0 -53 -23 -75 -90 -18 -55 -125 -191 -198 -253 -93 -79 -188
-114 -221 -82 -15 15 -17 38 -14 189 3 165 2 172 -20 203 -60 84 -133 50 -262
-121 -35 -47 -65 -84 -67 -82 -3 3 21 97 48 186 19 62 21 66 70 89 74 34 201
133 304 236 154 153 236 280 271 415 44 174 -43 292 -175 234z m67 -167 c-7
-78 -54 -175 -136 -278 -86 -108 -294 -300 -309 -286 -9 10 120 262 189 367
68 105 213 260 242 260 17 0 18 -6 14 -63z m943 -1216 c-14 -26 -72 -73 -80
-65 -5 5 75 84 86 84 2 0 -1 -9 -6 -19z"/>
<path d="M4860 8985 c-18 -22 -15 -66 6 -82 56 -41 127 32 78 81 -20 20 -68
21 -84 1z"/>
<path d="M4942 8153 c-38 -7 -49 -42 -71 -213 -12 -91 -32 -250 -46 -355 -67
-523 -135 -1192 -141 -1400 -7 -206 8 -541 25 -558 15 -15 87 -15 103 1 7 7
14 45 16 90 11 277 46 766 67 927 13 105 40 336 60 515 20 178 38 326 40 328
5 6 12 -22 55 -233 75 -362 115 -507 180 -652 32 -70 66 -97 136 -108 88 -13
158 27 199 112 39 82 50 123 180 638 64 253 121 478 127 500 l11 40 8 -35 c5
-19 15 -195 24 -390 31 -735 36 -829 51 -970 27 -268 130 -820 158 -848 23
-23 118 -28 139 -7 23 22 22 25 -18 322 -84 629 -92 723 -135 1633 -20 422
-31 544 -51 582 -21 39 -108 59 -163 38 -55 -20 -69 -63 -236 -686 -72 -269
-145 -536 -162 -594 -32 -111 -74 -210 -88 -210 -5 0 -15 21 -24 48 -25 79
-172 839 -221 1147 -26 160 -52 300 -60 311 -19 30 -89 41 -163 27z"/>
<path d="M2384 8106 c-17 -13 -20 -34 -27 -248 -5 -128 -9 -514 -10 -858 -2
-749 10 -969 74 -1323 22 -121 38 -151 89 -162 39 -8 107 12 120 35 13 25 24
108 60 465 34 329 56 470 100 645 69 273 216 634 240 589 20 -37 40 -175 55
-384 40 -563 53 -683 101 -922 66 -332 214 -642 362 -758 117 -92 291 -139
435 -118 98 14 175 50 243 115 77 73 157 175 151 193 -8 20 -72 30 -106 15
-16 -6 -52 -40 -81 -76 -62 -76 -109 -115 -181 -149 -65 -30 -112 -31 -180 -6
-114 44 -182 118 -280 305 -144 276 -202 542 -249 1135 -38 485 -52 569 -104
667 -36 69 -72 91 -162 100 -106 10 -141 -22 -212 -193 -121 -287 -174 -453
-233 -725 -18 -87 -37 -158 -41 -158 -5 0 -8 66 -8 148 -1 81 -2 484 -3 895
l-2 749 -24 19 c-28 23 -98 26 -127 5z"/>
<path d="M6702 8079 c-80 -40 -195 -216 -251 -387 -112 -339 -142 -927 -71
-1397 49 -322 150 -626 235 -708 67 -65 193 -84 275 -42 125 64 322 489 444
955 20 74 36 143 36 152 0 12 -13 21 -41 28 -39 11 -44 10 -64 -12 -12 -13
-32 -59 -45 -103 -71 -250 -166 -500 -255 -675 -64 -123 -167 -271 -182 -262
-14 9 -74 154 -107 260 -54 174 -92 416 -116 747 -16 230 -19 215 45 253 112
67 186 167 280 379 50 111 90 243 106 347 23 145 -7 342 -64 427 -39 58 -147
76 -225 38z m127 -189 c32 -113 29 -239 -8 -382 -48 -184 -164 -435 -233 -503
l-30 -30 6 120 c21 385 80 640 189 817 23 37 45 64 49 60 3 -4 16 -41 27 -82z"/>
<path d="M3949 8008 c-148 -51 -213 -105 -277 -233 -73 -147 -148 -456 -178
-735 -13 -128 -15 -214 -10 -485 8 -358 14 -431 52 -574 69 -266 204 -418 399
-452 121 -21 240 5 313 67 73 62 157 216 222 403 62 182 114 670 113 1076 0
292 -10 407 -54 626 -24 124 -51 174 -122 231 -89 71 -168 101 -272 105 -80 3
-100 0 -186 -29z m267 -83 c89 -26 137 -104 174 -280 29 -140 46 -597 31 -855
-26 -444 -70 -661 -181 -896 -81 -172 -162 -274 -216 -274 -64 0 -161 85 -211
185 -87 170 -124 438 -125 890 0 345 38 627 118 894 58 191 126 295 219 337
40 18 130 17 191 -1z"/>
<path d="M7799 7786 c-88 -31 -146 -105 -156 -198 -4 -48 3 -82 31 -148 5 -13
-1 -15 -34 -12 -93 9 -188 -46 -230 -133 -18 -37 -21 -59 -18 -115 4 -81 35
-135 107 -185 39 -27 50 -30 121 -30 l78 0 -15 -28 c-21 -41 -27 -116 -13
-167 28 -105 161 -184 270 -161 98 21 171 94 186 188 l6 41 43 -33 c116 -88
273 -57 345 68 65 113 26 259 -84 318 l-44 23 44 29 c81 53 122 165 95 263
-14 52 -74 122 -125 145 -49 22 -143 25 -190 5 -18 -7 -48 -28 -68 -45 l-36
-31 -10 43 c-33 131 -177 208 -303 163z m271 -495 c37 -26 51 -60 46 -106 -11
-90 -119 -128 -188 -66 -29 26 -33 36 -33 79 0 56 19 85 70 108 35 16 69 11
105 -15z"/>
<path d="M8205 5938 c-200 -70 -501 -592 -588 -1020 -17 -87 -31 -128 -52
-159 -72 -103 -224 -253 -320 -314 -140 -89 -261 -87 -312 7 -15 28 -18 58
-18 197 l0 163 35 27 c274 208 549 584 606 826 37 160 -28 268 -141 235 -200
-59 -510 -585 -595 -1010 -25 -122 -42 -152 -147 -256 -89 -89 -190 -144 -265
-144 -60 0 -83 11 -105 53 -27 49 -24 202 6 354 24 119 24 123 6 143 -21 24
-58 26 -79 5 -8 -8 -34 -49 -57 -90 -24 -41 -46 -75 -49 -75 -4 0 -13 11 -20
25 -58 109 -226 60 -312 -91 -85 -151 -329 -300 -561 -343 l-49 -9 7 37 c4 20
19 74 34 120 24 77 28 84 54 87 41 4 85 40 227 183 297 299 480 592 480 768 0
49 -18 113 -38 136 -8 9 -32 22 -52 28 -31 10 -44 8 -83 -9 -186 -82 -504
-590 -671 -1071 -129 -370 -171 -800 -95 -959 36 -73 117 -93 166 -39 106 115
124 402 38 600 -5 13 -2 17 12 17 73 0 268 76 373 145 46 30 85 55 87 55 2 0
3 -9 3 -20 0 -35 39 -99 70 -115 92 -47 188 18 318 217 20 31 40 57 45 58 4 0
7 -26 7 -58 0 -165 91 -272 231 -272 50 0 153 33 214 69 28 16 78 54 112 85
l62 57 6 -38 c24 -147 57 -209 135 -248 28 -14 73 -29 100 -32 133 -16 316 83
495 266 33 33 62 61 66 61 3 0 9 -24 12 -52 9 -76 53 -156 104 -191 149 -99
352 -34 582 187 76 73 174 193 201 247 24 46 14 85 -25 95 -37 9 -49 1 -89
-59 -74 -112 -229 -267 -331 -332 -141 -89 -261 -87 -312 7 -15 28 -18 58 -18
197 l0 163 35 27 c214 163 428 424 545 664 95 197 95 353 0 393 -39 16 -49 16
-90 2z m29 -241 c-56 -174 -266 -476 -428 -618 l-39 -34 7 30 c14 55 78 209
132 315 95 188 232 375 309 421 l30 19 3 -41 c2 -22 -4 -64 -14 -92z m-800
-40 c-56 -174 -266 -476 -428 -618 l-39 -34 7 30 c14 55 78 209 132 315 95
188 232 375 309 421 l30 19 3 -41 c2 -22 -4 -64 -14 -92z m-1566 -14 c-6 -112
-85 -257 -258 -472 -91 -113 -277 -307 -286 -298 -9 8 151 332 219 445 31 52
82 130 114 174 62 87 185 218 204 218 8 0 10 -21 7 -67z m151 -807 c6 -7 14
-33 17 -57 5 -38 1 -50 -28 -94 -18 -27 -59 -77 -90 -110 l-56 -60 -11 29
c-24 61 22 196 89 267 39 41 60 48 79 25z m-828 -681 c13 -78 7 -175 -17 -254
-12 -41 -18 -51 -27 -42 -14 14 -17 349 -3 396 l9 30 13 -30 c7 -16 18 -61 25
-100z"/>
<path d="M3030 4935 c-18 -22 -15 -66 6 -82 56 -41 127 32 78 81 -20 20 -68
21 -84 1z"/>
<path d="M1876 4898 c-52 -14 -131 -92 -145 -144 -16 -58 -13 -114 9 -161 l19
-43 -58 0 c-186 0 -291 -215 -178 -364 15 -19 52 -47 82 -62 47 -23 64 -26
110 -21 30 3 55 4 55 2 0 -1 -7 -20 -16 -41 -24 -58 -15 -141 22 -200 104
-169 376 -118 409 77 l7 40 34 -26 c85 -65 186 -69 271 -12 134 91 131 292 -6
374 l-53 32 29 14 c73 38 115 110 115 197 0 70 -26 124 -82 173 -87 74 -204
71 -298 -8 l-30 -25 -12 48 c-8 35 -24 59 -60 94 -67 65 -131 80 -224 56z
m270 -492 c46 -46 48 -104 5 -146 -49 -50 -105 -52 -158 -6 -24 21 -28 32 -28
76 0 46 4 55 33 81 47 43 102 41 148 -5z"/>
<path d="M3646 4848 c-65 -43 -100 -106 -92 -165 5 -41 5 -42 -72 -114 -101
-95 -192 -155 -271 -179 -78 -25 -132 -25 -160 -2 -47 38 -47 152 1 277 19 51
20 56 4 80 -22 33 -69 34 -91 2 -53 -82 -79 -254 -52 -348 37 -125 141 -173
292 -134 117 31 198 78 332 194 l80 70 19 -35 19 -34 -25 -17 c-14 -9 -53 -44
-87 -78 -65 -66 -90 -120 -77 -170 17 -70 132 -89 215 -36 79 50 125 132 117
211 l-4 42 76 38 c103 51 252 106 330 120 36 7 75 19 88 26 50 32 9 111 -51
99 -142 -28 -275 -74 -412 -141 -78 -39 -65 -45 -122 59 -18 33 -33 70 -33 83
0 26 52 74 82 74 23 0 65 -42 90 -88 13 -25 24 -32 47 -32 35 0 61 23 61 53 0
33 -55 122 -92 148 -24 18 -50 25 -98 27 -60 4 -69 1 -114 -30z m25 -537 c-14
-25 -72 -73 -80 -66 -6 6 72 85 84 85 3 0 1 -9 -4 -19z"/>
<path d="M8240 4429 c-116 -23 -254 -123 -354 -256 -188 -251 -404 -820 -540
-1423 -70 -307 -154 -739 -180 -915 -36 -241 -39 -248 -59 -158 -65 281 -104
652 -127 1188 -26 643 -44 814 -90 844 -22 15 -22 15 12 30 18 9 33 23 33 31
0 29 -63 37 -235 28 -177 -9 -256 -4 -308 18 -31 12 -33 16 -27 48 6 28 3 36
-16 50 -29 20 -91 21 -130 1 -79 -41 -236 -478 -269 -751 -16 -129 -6 -598 15
-743 42 -289 142 -557 232 -617 60 -40 178 -42 241 -4 77 47 168 248 217 480
23 107 45 327 45 446 0 290 -62 566 -189 837 -28 59 -51 111 -51 116 0 4 57
13 128 20 70 7 147 15 172 17 42 5 44 5 20 -8 -31 -17 -31 -21 -7 -380 10
-142 22 -409 27 -595 13 -449 25 -614 62 -848 22 -143 108 -446 136 -485 26
-34 59 -50 109 -50 89 0 135 36 163 128 30 98 77 310 105 482 33 195 97 549
136 745 99 501 316 1097 501 1380 29 44 88 117 133 163 68 69 86 82 113 82 26
0 36 -7 56 -37 14 -21 32 -57 41 -80 20 -50 37 -58 102 -42 71 17 86 34 79 88
-9 66 -48 125 -98 149 -52 25 -137 34 -198 21z m-1892 -837 c121 -199 183
-433 198 -749 10 -208 -22 -446 -86 -644 -35 -107 -114 -279 -128 -279 -12 0
-54 94 -85 191 -54 163 -97 462 -97 661 0 132 17 364 36 493 29 205 87 437
104 419 5 -5 31 -46 58 -92z"/>
<path d="M4342 3999 c-86 -43 -157 -157 -191 -309 -31 -132 -40 -262 -48 -663
-6 -342 -7 -348 -27 -352 -12 -2 -89 -11 -172 -19 -158 -16 -208 -28 -201 -49
7 -21 78 -26 240 -15 87 6 160 9 162 7 12 -13 29 -532 30 -899 0 -459 -4 -511
-48 -640 -40 -119 -155 -205 -247 -185 -43 10 -93 55 -115 107 -26 60 -42 77
-81 84 -24 4 -42 1 -60 -11 -23 -15 -25 -21 -19 -53 10 -54 51 -119 96 -152
67 -48 224 -70 338 -46 162 34 258 137 304 326 36 145 40 257 32 775 -4 275
-8 545 -9 600 l-1 100 130 7 c213 11 247 20 211 56 -14 15 -42 17 -184 17
l-167 0 -7 140 c-15 292 10 771 48 905 19 67 68 161 99 190 30 28 49 22 109
-37 79 -79 142 -233 162 -395 6 -52 9 -58 29 -58 39 0 50 26 49 114 -1 100
-53 297 -94 358 -31 46 -96 93 -149 108 -64 18 -171 12 -219 -11z"/>
<path d="M5593 3991 c-12 -6 -24 -18 -27 -29 -33 -104 -55 -1133 -37 -1737 15
-499 21 -555 83 -759 49 -163 120 -172 487 -61 176 53 221 73 221 100 0 39
-77 32 -298 -26 -164 -44 -195 -50 -206 -38 -17 18 -54 180 -66 289 -27 250
-33 523 -26 1371 5 727 4 868 -7 878 -19 15 -97 23 -124 12z"/>
<path d="M8142 3889 c-80 -41 -195 -217 -251 -387 -112 -339 -142 -927 -71
-1397 49 -322 150 -626 235 -708 67 -65 193 -84 275 -42 125 64 322 489 444
955 20 74 36 143 36 152 0 12 -13 21 -41 28 -39 11 -44 10 -64 -12 -12 -13
-32 -59 -45 -103 -71 -250 -165 -499 -256 -676 -63 -123 -165 -270 -181 -261
-14 9 -74 154 -107 260 -54 173 -92 416 -116 747 -16 229 -19 215 43 252 101
60 163 135 241 290 163 326 200 631 99 833 -32 64 -59 80 -142 87 -44 3 -65 0
-99 -18z m123 -164 c11 -33 19 -92 22 -170 4 -110 2 -130 -25 -235 -49 -185
-164 -435 -233 -505 l-29 -30 0 40 c0 78 21 321 36 415 20 129 50 250 86 340
33 85 109 213 119 202 3 -4 14 -29 24 -57z"/>
<path d="M3049 3818 c-148 -51 -213 -105 -277 -233 -73 -147 -148 -456 -178
-735 -13 -128 -15 -214 -10 -485 8 -358 14 -431 52 -574 69 -266 204 -418 399
-452 121 -21 240 5 313 67 73 62 157 216 222 403 62 182 114 670 113 1076 0
292 -10 407 -54 626 -24 124 -51 174 -122 231 -89 71 -168 101 -272 105 -80 3
-100 0 -186 -29z m267 -83 c89 -26 137 -104 174 -280 29 -141 46 -589 31 -850
-25 -447 -69 -665 -181 -901 -81 -173 -162 -274 -217 -274 -41 0 -91 29 -139
83 -140 156 -195 436 -196 992 0 345 38 627 118 894 58 191 126 295 219 337
40 18 130 17 191 -1z"/>
</g>
</svg>
