<?xml version="1.0" standalone="no"?>
<!DOCTYPE svg PUBLIC "-//W3C//DTD SVG 20010904//EN"
 "http://www.w3.org/TR/2001/REC-SVG-20010904/DTD/svg10.dtd">
<svg version="1.0" xmlns="http://www.w3.org/2000/svg"
 width="5000.000000pt" height="5000.000000pt" viewBox="0 0 5000.000000 5000.000000"
 preserveAspectRatio="xMidYMid meet">

<g transform="translate(0.000000,5000.000000) scale(0.100000,-0.100000)"
fill="#000000" stroke="none">
<path d="M27320 33141 c-204 -45 -324 -140 -432 -339 -89 -163 -127 -318 -108
-440 42 -273 334 -481 745 -531 121 -15 176 -14 281 4 116 21 181 52 253 120
171 163 293 456 294 700 0 111 -22 191 -70 262 -66 98 -158 139 -450 199 -217
45 -386 53 -513 25z"/>
<path d="M38560 33141 c-203 -45 -324 -139 -433 -339 -54 -100 -102 -240 -111
-328 -29 -269 201 -516 567 -609 100 -25 242 -45 323 -45 79 0 223 28 282 55
133 61 287 272 356 491 36 116 49 188 49 289 0 111 -22 191 -70 262 -66 98
-158 139 -450 199 -217 45 -386 53 -513 25z"/>
<path d="M21090 33119 c-124 -21 -251 -113 -301 -216 -31 -63 -37 -158 -15
-205 10 -20 51 -70 92 -112 85 -87 108 -130 147 -281 50 -195 69 -336 74 -566
3 -119 2 -246 -1 -283 l-8 -65 -113 101 c-279 249 -480 350 -720 364 -422 25
-953 -261 -1331 -716 -282 -339 -465 -747 -540 -1205 -28 -167 -25 -527 4
-692 28 -156 63 -274 114 -392 170 -388 499 -716 890 -888 377 -166 770 -168
1207 -7 121 45 365 164 497 243 56 33 113 63 128 67 43 10 81 -13 148 -93 137
-164 309 -272 507 -319 95 -23 256 -29 348 -14 376 60 703 380 741 726 36 323
-174 525 -504 484 -90 -11 -197 -41 -256 -71 l-37 -19 -5 33 c-60 360 -91 880
-83 1392 6 408 18 576 77 1080 22 187 45 390 52 450 7 65 13 234 13 410 0 293
-1 302 -27 396 -35 128 -79 211 -147 279 -90 91 -127 101 -406 111 -126 4
-288 10 -360 13 -71 3 -155 1 -185 -5z m-510 -2044 c302 -63 438 -164 506
-375 36 -113 28 -1028 -11 -1175 -57 -219 -202 -346 -534 -470 -360 -134 -570
-149 -765 -55 -162 77 -319 266 -395 476 -131 360 -45 770 242 1154 85 114
227 258 319 323 81 58 194 111 268 126 30 6 64 13 75 15 37 9 219 -3 295 -19z"/>
<path d="M2935 32945 c-203 -38 -315 -134 -315 -269 0 -58 20 -107 90 -226 89
-151 148 -303 180 -470 37 -189 41 -276 50 -990 12 -1021 12 -1999 0 -2100
-19 -155 -51 -238 -175 -450 -116 -198 -127 -350 -32 -448 66 -70 165 -100
352 -109 166 -7 334 8 640 58 132 22 371 53 530 70 886 90 1295 182 1685 379
466 233 786 598 1004 1142 240 598 314 1248 205 1793 -128 641 -499 1119
-1094 1411 -329 161 -668 233 -1050 221 -323 -10 -570 -57 -876 -167 -196 -71
-216 -70 -412 13 -175 75 -331 117 -521 143 -130 17 -168 17 -261 -1z m2014
-729 c154 -34 264 -93 386 -208 178 -168 290 -398 342 -704 15 -91 18 -163 17
-439 0 -429 -23 -658 -90 -920 -83 -322 -255 -601 -477 -772 -167 -129 -471
-236 -672 -236 -110 -1 -161 16 -211 68 -65 67 -79 140 -78 390 1 110 7 247
14 305 10 78 15 401 19 1265 6 1140 6 1160 26 1187 11 15 38 35 60 44 101 41
511 53 664 20z"/>
<path d="M33753 32745 c-108 -29 -165 -73 -202 -155 -37 -80 -22 -162 36 -211
17 -14 68 -41 114 -60 152 -63 168 -94 193 -380 40 -456 43 -818 16 -2104 -10
-488 -4 -857 21 -1203 7 -92 10 -178 6 -192 -8 -32 -37 -49 -111 -67 -118 -27
-191 -94 -223 -202 -26 -92 1 -195 61 -232 74 -46 333 -102 546 -120 204 -16
451 2 649 47 147 33 237 98 287 208 60 132 58 281 -10 561 -69 289 -71 393 -7
525 31 65 110 148 166 175 51 24 147 32 161 14 6 -8 16 -63 23 -124 35 -325
113 -770 161 -918 40 -124 90 -207 180 -297 146 -146 350 -238 605 -271 107
-14 286 -6 366 16 388 105 704 545 651 906 -32 219 -159 387 -340 451 -182 64
-398 35 -583 -78 -124 -75 -240 -190 -353 -349 l-49 -70 -124 485 c-68 267
-126 508 -130 537 -7 67 0 95 38 133 17 17 304 257 638 532 333 276 640 536
682 578 102 103 143 184 143 285 0 143 -86 245 -208 245 -17 0 -87 -12 -156
-27 -111 -24 -147 -27 -320 -27 -163 -1 -215 3 -315 22 -234 45 -355 37 -435
-27 -92 -73 -112 -201 -52 -323 38 -78 125 -164 231 -229 39 -24 71 -47 71
-51 0 -11 -287 -262 -405 -353 -201 -156 -423 -303 -640 -424 -61 -33 -115
-61 -122 -61 -26 0 -19 952 11 1380 22 309 40 495 82 835 21 171 34 311 31
341 -14 133 -104 213 -277 244 -61 11 -834 50 -969 49 -47 0 -110 -7 -138 -14z"/>
<path d="M46513 31860 c-278 -23 -584 -137 -823 -308 -191 -136 -398 -372
-515 -587 -86 -158 -157 -371 -186 -560 -16 -103 -16 -347 0 -450 29 -189 103
-403 192 -560 98 -174 215 -309 421 -487 77 -67 93 -98 113 -215 29 -174 104
-304 234 -407 168 -133 297 -189 601 -264 91 -23 192 -50 224 -61 225 -78 366
-253 297 -367 -25 -41 -163 -144 -244 -182 -216 -102 -430 -119 -651 -50 -132
41 -161 75 -182 213 -36 247 -122 438 -262 586 -118 125 -256 195 -407 206
-231 16 -413 -137 -509 -431 -91 -281 -40 -572 132 -749 121 -124 249 -193
683 -366 419 -167 591 -208 919 -218 469 -14 926 90 1370 312 367 184 560 390
642 684 15 55 22 115 25 216 4 125 2 150 -21 237 -46 179 -119 302 -256 430
-103 98 -214 164 -350 211 -94 31 -98 32 -280 32 -169 -1 -202 -4 -385 -37
-274 -51 -401 -62 -517 -48 -144 17 -203 64 -167 129 20 35 67 55 179 76 509
92 906 454 1085 987 92 276 110 496 79 989 -11 171 26 241 171 327 89 53 97
59 129 106 48 71 26 150 -50 182 -55 23 -123 17 -237 -21 -107 -35 -182 -44
-230 -26 -13 5 -69 48 -123 96 -265 232 -537 349 -878 375 -67 5 -123 9 -126
8 -3 0 -46 -4 -97 -8z m123 -1014 c204 -95 341 -417 313 -738 -20 -235 -133
-471 -282 -590 -102 -81 -260 -136 -358 -125 -206 25 -320 289 -289 673 23
282 93 499 204 636 120 148 282 205 412 144z"/>
<path d="M31240 31805 c-377 -64 -712 -274 -1029 -643 l-54 -62 -35 57 c-136
227 -360 400 -580 449 -113 25 -292 16 -392 -21 -183 -67 -340 -224 -340 -340
0 -61 35 -120 109 -183 156 -135 215 -202 264 -302 95 -194 135 -416 188
-1055 21 -253 38 -1038 25 -1128 -11 -69 -45 -103 -161 -157 -193 -91 -275
-203 -244 -333 10 -42 23 -63 69 -109 48 -48 68 -60 131 -80 70 -22 88 -23
354 -23 311 1 405 12 569 66 178 59 282 135 333 244 24 52 28 72 27 145 -1 79
-6 102 -87 340 -142 420 -181 612 -180 900 0 140 5 196 22 280 103 488 475
850 876 851 126 1 206 -26 278 -91 72 -66 110 -147 158 -336 66 -262 92 -486
110 -952 12 -307 7 -445 -20 -578 -36 -172 -97 -271 -224 -363 -45 -32 -94
-72 -109 -88 -119 -125 -48 -363 135 -453 110 -53 173 -64 362 -63 310 1 615
51 931 154 281 91 359 160 357 319 -1 130 -42 207 -216 405 -90 103 -137 173
-174 265 -48 119 -53 177 -63 645 -14 702 -70 1147 -187 1485 -35 101 -112
261 -165 340 -55 83 -175 205 -258 261 -206 139 -515 200 -780 154z"/>
<path d="M42480 31805 c-374 -63 -713 -274 -1029 -643 l-54 -62 -35 57 c-136
227 -360 400 -580 449 -113 25 -292 16 -392 -21 -183 -67 -340 -224 -340 -340
0 -61 35 -120 109 -183 156 -135 215 -202 264 -302 95 -194 135 -415 188
-1055 21 -253 38 -1038 25 -1128 -11 -69 -45 -103 -161 -157 -193 -91 -275
-203 -244 -333 10 -42 23 -63 69 -109 48 -48 68 -60 131 -80 70 -22 88 -23
354 -23 311 1 405 12 569 66 177 59 283 137 334 246 23 50 27 70 26 143 -1 79
-6 102 -87 340 -122 361 -165 552 -182 810 -33 491 201 952 579 1142 223 112
468 107 599 -12 72 -66 110 -147 158 -336 66 -264 91 -480 110 -954 12 -311 7
-442 -20 -577 -36 -170 -97 -270 -224 -362 -45 -32 -94 -72 -109 -88 -119
-125 -48 -363 135 -453 110 -53 173 -64 362 -63 312 1 615 51 931 154 281 91
359 160 357 319 -1 130 -42 207 -216 405 -90 103 -137 173 -174 265 -48 119
-53 177 -63 645 -14 702 -70 1147 -187 1485 -35 101 -112 261 -165 340 -55 83
-175 205 -258 261 -206 138 -513 199 -780 154z"/>
<path d="M12315 31684 c-141 -9 -400 -38 -535 -60 -237 -39 -338 -82 -407
-172 -40 -52 -57 -112 -49 -171 13 -97 63 -138 204 -165 239 -46 413 -215 587
-571 75 -154 655 -1416 761 -1656 87 -198 155 -395 186 -539 33 -154 33 -408
-1 -534 -47 -181 -113 -299 -231 -416 -47 -47 -108 -97 -136 -112 l-51 -28 -6
108 c-3 68 -12 127 -25 162 -82 231 -248 396 -482 476 -42 15 -83 19 -175 19
-109 0 -128 -3 -214 -33 -122 -42 -195 -87 -267 -164 -183 -198 -203 -517 -54
-835 183 -391 571 -626 948 -573 282 39 519 166 763 409 184 184 277 316 408
580 98 194 152 335 301 776 268 793 432 1233 831 2235 147 371 273 700 280
729 58 271 -145 452 -550 492 -197 20 -556 -2 -696 -42 -112 -32 -225 -121
-240 -190 -21 -93 30 -169 170 -255 170 -105 202 -132 231 -191 23 -46 26 -61
20 -106 -11 -81 -172 -459 -350 -822 l-83 -170 -56 86 c-140 217 -247 493
-293 759 -19 108 -24 336 -13 650 4 125 2 138 -18 176 -32 60 -84 100 -160
125 -61 19 -93 22 -303 24 -129 1 -262 1 -295 -1z"/>
<path d="M27360 31604 c-261 -35 -512 -76 -560 -90 -104 -31 -159 -112 -146
-218 12 -101 85 -182 226 -247 128 -60 133 -64 155 -105 19 -37 20 -58 20
-379 0 -226 -7 -436 -19 -625 -22 -330 -26 -802 -7 -960 31 -268 84 -477 163
-635 138 -277 382 -453 653 -472 263 -17 518 157 518 353 0 84 -31 134 -168
269 -162 159 -215 244 -265 427 -42 153 -52 267 -57 658 -7 503 11 744 94
1240 54 327 50 469 -19 604 -31 61 -105 133 -167 163 -51 24 -68 27 -186 29
-72 2 -177 -4 -235 -12z"/>
<path d="M38600 31604 c-261 -35 -512 -76 -560 -90 -104 -31 -159 -112 -146
-218 12 -101 85 -182 226 -247 128 -60 133 -64 155 -105 19 -37 20 -58 20
-379 0 -226 -7 -436 -19 -625 -22 -330 -26 -802 -7 -960 31 -268 84 -477 163
-635 138 -277 382 -453 653 -472 263 -17 518 157 518 353 0 84 -31 134 -168
269 -162 159 -216 246 -264 427 -43 159 -53 267 -58 658 -7 503 11 744 94
1240 54 327 50 469 -19 604 -31 61 -105 133 -167 163 -51 24 -68 27 -186 29
-72 2 -177 -4 -235 -12z"/>
<path d="M9225 31519 c-204 -20 -364 -67 -560 -163 -305 -150 -553 -402 -648
-659 -28 -75 -31 -93 -31 -207 -1 -120 0 -128 30 -190 39 -83 83 -133 157
-181 83 -54 153 -72 257 -67 108 5 196 45 273 122 71 71 102 138 131 284 26
132 54 192 103 228 48 35 125 62 209 74 324 47 614 -201 614 -527 0 -65 -2
-73 -19 -73 -57 0 -344 -22 -461 -36 -568 -65 -970 -235 -1274 -537 -231 -230
-351 -488 -363 -782 -11 -264 58 -465 216 -628 73 -76 129 -117 226 -165 172
-85 353 -123 589 -123 236 0 441 39 670 127 186 72 320 158 471 304 118 115
140 130 180 130 44 0 65 -18 145 -131 174 -243 362 -389 585 -454 112 -32 192
-39 288 -26 348 49 588 317 538 600 -33 182 -166 340 -326 386 -46 14 -78 16
-152 11 -89 -7 -94 -6 -117 17 -16 16 -27 44 -35 88 -22 128 -33 384 -28 629
8 373 -12 649 -59 820 -124 443 -458 829 -876 1011 -228 100 -494 143 -733
118z m714 -2010 c10 -67 10 -83 -1 -91 -46 -30 -770 -420 -853 -459 -166 -78
-149 -76 -355 -48 l-181 24 6 25 c14 55 52 115 106 164 72 66 461 301 514 310
22 4 126 31 230 60 164 47 277 73 375 89 14 2 52 5 86 6 l61 1 12 -81z"/>
<path d="M23402 31515 c-245 -28 -342 -80 -342 -185 0 -64 42 -106 175 -176
110 -58 163 -106 198 -178 73 -148 82 -312 81 -1441 0 -792 -2 -898 -17 -964
-22 -96 -46 -135 -163 -261 -120 -130 -154 -181 -154 -234 0 -57 36 -98 123
-140 120 -59 181 -71 362 -71 181 1 269 13 595 82 292 62 344 84 390 165 42
76 29 157 -58 354 -83 186 -142 419 -174 679 -9 78 -13 248 -13 585 1 449 2
480 23 574 11 55 36 129 53 165 44 89 138 182 213 210 81 30 93 28 105 -16
107 -418 177 -571 326 -718 243 -238 546 -258 772 -51 133 121 244 341 289
571 24 123 24 310 0 390 -96 319 -435 505 -991 544 -324 23 -582 -37 -749
-175 -33 -26 -61 -43 -63 -37 -2 6 -18 32 -34 57 -74 112 -232 215 -394 257
-104 28 -374 34 -553 14z"/>
<path d="M39613 26096 c-84 -20 -176 -70 -222 -123 -51 -57 -126 -206 -141
-279 -16 -77 -8 -167 21 -228 75 -159 319 -277 575 -278 173 -1 253 36 338
155 136 191 185 440 112 574 -47 85 -98 112 -302 158 -144 32 -294 40 -381 21z"/>
<path d="M16210 26084 c-138 -27 -240 -126 -240 -232 0 -55 10 -74 77 -144 62
-66 75 -94 104 -215 42 -182 62 -453 41 -565 l-7 -37 -75 66 c-168 147 -274
209 -408 239 -240 53 -554 -61 -835 -303 -446 -386 -661 -1047 -522 -1600 97
-382 419 -712 811 -829 119 -36 326 -44 458 -20 175 33 347 100 531 206 166
96 167 96 245 6 97 -113 235 -195 373 -221 98 -19 153 -19 242 0 212 44 413
223 470 419 20 67 22 165 6 223 -17 61 -69 124 -131 158 -52 28 -62 30 -160
29 -88 0 -116 -4 -175 -27 -38 -14 -73 -23 -76 -19 -8 8 -34 242 -50 442 -15
178 -14 676 0 865 7 83 28 285 48 450 32 263 36 330 37 540 1 206 -2 248 -17
300 -41 130 -101 207 -188 238 -27 10 -95 18 -179 21 -74 3 -184 8 -245 10
-60 3 -121 2 -135 0z m-305 -1429 c88 -24 181 -73 217 -114 17 -19 43 -60 57
-91 26 -55 26 -55 29 -365 4 -354 -5 -469 -45 -557 -50 -113 -175 -200 -395
-277 -245 -85 -412 -78 -550 24 -95 70 -189 219 -225 355 -24 94 -22 253 5
359 74 286 323 589 549 668 61 21 80 23 183 19 63 -3 142 -12 175 -21z"/>
<path d="M32760 26084 c-138 -27 -240 -126 -240 -232 0 -55 10 -74 77 -144 29
-32 61 -74 69 -94 59 -140 103 -542 76 -686 l-7 -37 -75 66 c-168 147 -274
209 -408 239 -240 53 -554 -61 -835 -303 -446 -386 -661 -1047 -522 -1600 97
-382 419 -712 811 -829 119 -36 326 -44 458 -20 175 33 347 100 531 206 166
96 167 96 245 6 124 -145 318 -236 498 -236 79 0 183 28 271 71 135 66 263
207 310 339 21 58 29 151 19 210 -18 98 -59 155 -148 201 -39 21 -58 24 -150
23 -88 0 -116 -4 -175 -27 -38 -14 -73 -23 -76 -19 -8 8 -34 242 -50 442 -15
178 -14 676 0 865 7 83 28 285 48 450 32 263 36 330 37 540 1 206 -2 248 -17
300 -41 130 -101 207 -188 238 -27 10 -95 18 -179 21 -74 3 -184 8 -245 10
-60 3 -121 2 -135 0z m-305 -1429 c88 -24 181 -73 217 -114 17 -19 43 -60 57
-91 26 -55 26 -55 29 -365 4 -354 -5 -469 -45 -557 -50 -113 -175 -200 -395
-277 -245 -85 -412 -78 -550 24 -95 70 -189 219 -225 355 -24 94 -22 253 5
359 74 286 323 589 549 668 61 21 80 23 183 19 63 -3 142 -12 175 -21z"/>
<path d="M42830 26004 c-61 -20 -121 -54 -155 -89 -22 -22 -61 -54 -87 -72
-63 -43 -73 -61 -100 -183 -21 -96 -23 -126 -21 -365 1 -177 7 -289 17 -350
17 -101 31 -236 51 -500 9 -118 23 -212 39 -275 13 -52 27 -120 31 -150 11
-93 34 -219 66 -352 29 -119 33 -129 69 -162 98 -89 240 -63 301 55 22 44 54
231 64 369 4 52 10 217 15 365 5 149 13 308 19 355 6 47 18 162 26 255 9 94
25 265 36 380 32 333 31 358 -20 501 l-44 121 -82 51 c-78 49 -86 52 -146 51
-35 0 -71 -3 -79 -5z"/>
<path d="M41294 25946 c-106 -25 -170 -69 -208 -145 -28 -56 -38 -96 -76 -326
-59 -362 -92 -653 -115 -1035 -8 -135 -20 -259 -26 -277 -13 -39 -75 -97 -120
-112 -19 -6 -95 -15 -170 -20 -151 -10 -200 -27 -239 -81 -26 -37 -36 -90 -21
-118 29 -55 156 -98 371 -126 175 -23 217 -45 223 -116 1 -14 -4 -77 -12 -141
-17 -143 -5 -257 41 -397 75 -226 225 -402 433 -506 131 -66 215 -87 371 -93
244 -10 414 47 460 154 23 53 4 84 -96 158 -237 177 -386 417 -436 702 -12 67
-13 92 -3 120 19 58 51 66 299 73 203 6 218 8 270 32 200 93 206 294 10 363
-34 12 -86 15 -257 13 l-214 -3 -30 33 c-37 42 -38 89 -4 290 63 372 87 672
88 1078 1 310 1 311 -24 360 -13 27 -39 59 -57 71 -74 49 -336 77 -458 49z"/>
<path d="M35370 25143 c-288 -44 -464 -108 -661 -239 -277 -185 -476 -472
-554 -799 -143 -599 91 -1204 574 -1484 288 -167 672 -203 1015 -94 525 166
948 645 1041 1179 51 293 -20 703 -161 936 -149 245 -491 439 -869 493 -90 13
-322 18 -385 8z m140 -584 c163 -37 349 -151 433 -267 143 -193 160 -473 51
-807 -55 -169 -145 -290 -257 -345 -211 -102 -583 -99 -767 7 -216 125 -319
445 -265 824 47 336 169 525 376 583 132 37 279 39 429 5z"/>
<path d="M7140 25081 c-45 -15 -84 -39 -111 -68 -80 -85 -85 -178 -20 -378
127 -390 170 -797 152 -1415 -9 -281 -9 -284 -94 -379 -31 -34 -61 -78 -68
-98 -37 -112 50 -216 207 -247 96 -20 332 -36 516 -36 233 0 317 30 360 128
18 39 19 50 8 86 -7 23 -16 46 -20 51 -20 24 -99 196 -119 255 -62 193 -86
421 -77 747 8 295 7 293 126 373 48 32 151 119 227 192 107 101 158 143 213
171 75 38 132 47 171 26 57 -30 126 -208 153 -389 33 -226 50 -848 27 -985
-19 -107 -59 -172 -163 -261 -113 -96 -142 -144 -135 -220 11 -110 90 -199
210 -236 60 -18 85 -20 176 -15 227 13 586 137 669 231 64 73 56 150 -32 336
-36 74 -76 171 -89 215 -49 159 -75 364 -80 630 -2 131 0 154 17 185 44 80
254 248 419 336 79 41 94 46 135 41 60 -7 96 -47 142 -155 91 -217 115 -355
115 -682 0 -271 -10 -361 -46 -433 -12 -22 -76 -94 -144 -161 -97 -95 -130
-134 -151 -179 -60 -133 3 -244 166 -295 45 -14 95 -17 275 -17 314 0 499 28
642 95 106 49 203 157 203 225 0 34 -28 87 -85 160 -101 130 -153 259 -181
450 -14 94 -16 164 -10 480 5 243 3 403 -4 465 -43 385 -207 608 -525 716 -72
24 -95 27 -220 28 -148 0 -195 -9 -312 -60 -172 -76 -333 -233 -423 -413 l-32
-65 -36 69 c-85 161 -252 287 -452 341 -87 23 -262 23 -350 0 -136 -36 -239
-85 -356 -173 -70 -52 -178 -159 -210 -208 -22 -33 -31 -31 -38 8 -9 48 -69
168 -114 230 -93 125 -243 232 -387 277 -77 23 -205 34 -245 21z"/>
<path d="M22150 25081 c-45 -15 -84 -39 -111 -68 -80 -85 -85 -178 -20 -378
127 -390 170 -797 152 -1415 -9 -281 -9 -284 -94 -379 -31 -34 -61 -78 -68
-98 -37 -112 50 -216 207 -247 96 -20 332 -36 516 -36 233 0 317 30 360 128
24 54 18 85 -41 189 -51 92 -89 188 -117 303 -42 171 -49 258 -48 571 0 373
-2 364 124 449 48 32 151 119 227 192 107 101 158 143 213 171 75 38 132 47
171 26 57 -30 126 -208 153 -389 33 -226 50 -848 27 -985 -19 -107 -59 -172
-163 -261 -113 -96 -142 -144 -135 -220 11 -110 90 -199 210 -236 60 -18 85
-20 176 -15 227 13 586 137 669 231 64 73 56 150 -32 336 -36 74 -76 171 -89
215 -49 159 -75 364 -80 630 -2 131 0 154 17 185 44 80 254 248 419 336 79 41
94 46 135 41 60 -7 96 -47 142 -155 91 -217 115 -355 115 -682 0 -271 -10
-361 -46 -433 -12 -22 -76 -94 -144 -161 -97 -95 -130 -134 -151 -179 -60
-133 3 -244 166 -295 45 -14 95 -17 275 -17 314 0 499 28 642 95 106 49 203
157 203 225 0 34 -28 87 -85 160 -101 130 -153 259 -181 450 -14 94 -16 164
-10 480 5 243 3 403 -4 465 -43 385 -207 608 -525 716 -72 24 -95 27 -220 28
-148 0 -195 -9 -312 -60 -172 -76 -333 -233 -423 -413 l-32 -65 -36 69 c-85
161 -252 287 -452 341 -87 23 -262 23 -350 0 -136 -36 -239 -85 -356 -173 -70
-52 -178 -159 -210 -208 -22 -33 -31 -31 -38 8 -9 48 -69 168 -114 230 -93
125 -243 232 -387 277 -77 23 -205 34 -245 21z"/>
<path d="M39725 25043 c-156 -17 -448 -65 -483 -78 -103 -42 -120 -152 -36
-245 20 -22 65 -52 113 -74 44 -20 85 -44 92 -52 32 -39 32 -272 -2 -905 -22
-423 24 -740 139 -949 107 -195 330 -315 523 -282 116 20 207 81 248 166 43
87 24 134 -107 269 -107 110 -140 163 -171 277 -32 114 -43 256 -43 535 0 244
16 489 41 635 71 413 67 498 -28 619 -19 24 -53 52 -76 62 -43 19 -143 30
-210 22z"/>
<path d="M18581 24985 c-147 -33 -285 -95 -392 -175 -258 -193 -463 -525 -579
-936 -63 -222 -63 -384 -1 -619 83 -313 236 -543 427 -638 68 -34 265 -102
384 -132 375 -94 752 -83 996 30 104 48 147 85 183 157 31 61 31 63 31 222 0
404 -38 512 -178 510 -89 -1 -144 -35 -307 -194 -93 -91 -161 -148 -196 -166
-253 -128 -529 -21 -630 247 -28 72 -28 144 0 173 33 35 66 38 277 25 220 -14
428 -4 659 32 302 46 342 90 338 369 -7 435 -98 709 -303 910 -79 78 -167 131
-275 167 -68 22 -102 26 -225 29 -101 3 -164 -1 -209 -11z m211 -610 c115 -17
157 -33 186 -70 33 -42 64 -135 66 -197 1 -74 -20 -103 -109 -148 l-70 -35
-240 0 c-202 0 -249 3 -297 18 -103 31 -112 86 -39 231 52 104 107 176 151
198 45 23 213 24 352 3z"/>
<path d="M27461 24985 c-147 -33 -285 -95 -392 -175 -258 -193 -463 -525 -579
-936 -63 -222 -63 -384 -1 -619 83 -313 236 -543 427 -638 68 -34 265 -102
384 -132 375 -94 752 -83 996 30 104 48 147 85 183 157 31 61 31 63 31 222 0
404 -38 512 -178 510 -89 -1 -144 -35 -307 -194 -93 -91 -161 -148 -196 -166
-253 -128 -529 -21 -630 247 -28 72 -28 144 0 173 33 35 66 38 277 25 220 -14
428 -4 659 32 302 46 342 90 338 369 -7 435 -98 709 -303 910 -79 78 -167 131
-275 167 -68 22 -102 26 -225 29 -101 3 -164 -1 -209 -11z m211 -610 c115 -17
157 -33 186 -70 33 -42 64 -135 66 -197 1 -74 -20 -103 -109 -148 l-70 -35
-240 0 c-202 0 -249 3 -297 18 -103 31 -112 86 -39 231 52 104 107 176 151
198 45 23 213 24 352 3z"/>
<path d="M12466 24970 c-238 -38 -448 -144 -613 -312 -132 -134 -193 -259
-193 -397 0 -130 55 -221 164 -272 140 -66 304 -17 380 114 14 23 34 84 45
135 25 116 42 144 105 179 47 26 59 28 161 28 100 0 115 -3 166 -28 117 -57
198 -181 207 -314 l5 -73 -59 0 c-98 0 -292 -19 -414 -41 -199 -35 -357 -87
-498 -165 -209 -114 -390 -317 -457 -510 -70 -200 -52 -423 45 -574 178 -277
646 -358 1089 -189 112 43 240 126 338 220 115 111 131 109 219 -16 103 -147
249 -262 389 -305 217 -67 467 26 557 208 19 39 23 63 23 137 0 84 -2 95 -34
153 -66 121 -157 175 -290 170 -52 -1 -75 2 -86 12 -27 29 -37 144 -41 480 -2
184 -9 378 -15 430 -51 436 -378 806 -804 911 -92 23 -298 33 -389 19z m537
-1337 c3 -5 8 -31 11 -58 l7 -50 -288 -157 c-158 -86 -320 -170 -360 -186
l-71 -30 -121 17 c-67 10 -123 20 -126 23 -9 9 47 108 76 132 37 32 326 206
341 206 6 0 87 21 180 46 93 25 190 49 216 54 63 10 130 12 135 3z"/>
<path d="M42810 23331 c-69 -16 -150 -34 -181 -40 -47 -10 -67 -22 -118 -67
-72 -66 -109 -124 -127 -203 -37 -155 11 -365 107 -469 63 -70 214 -110 339
-92 36 6 117 17 180 25 86 12 131 23 177 46 101 49 183 158 218 290 61 227
-77 454 -310 512 -111 28 -152 28 -285 -2z"/>
</g>
</svg>
