<?xml version="1.0" standalone="no"?>
<!DOCTYPE svg PUBLIC "-//W3C//DTD SVG 20010904//EN"
 "http://www.w3.org/TR/2001/REC-SVG-20010904/DTD/svg10.dtd">
<svg version="1.0" xmlns="http://www.w3.org/2000/svg"
 width="5000.000000pt" height="5000.000000pt" viewBox="0 0 5000.000000 5000.000000"
 preserveAspectRatio="xMidYMid meet">

<g transform="translate(0.000000,5000.000000) scale(0.100000,-0.100000)"
fill="#000000" stroke="none">
<path d="M33170 45690 c-417 -41 -695 -214 -897 -558 -379 -644 -307 -1155
211 -1504 406 -272 1060 -390 1519 -273 34 9 100 35 147 57 214 103 474 459
599 821 161 466 136 875 -66 1089 -115 121 -224 173 -517 243 -461 111 -761
148 -996 125z"/>
<path d="M8120 45399 c-445 -42 -879 -203 -1059 -393 -72 -77 -96 -132 -96
-226 1 -133 52 -204 292 -396 153 -124 226 -202 292 -318 83 -146 146 -374
171 -621 33 -329 57 -2796 41 -4260 -6 -583 -16 -1125 -21 -1205 -21 -298 -57
-471 -151 -721 -137 -365 -156 -518 -83 -666 84 -172 399 -290 964 -362 350
-45 675 -49 1029 -15 178 17 462 64 569 94 261 73 389 249 367 505 -14 167
-69 328 -212 625 -259 535 -402 965 -508 1525 -101 536 -139 1000 -139 1700 0
634 30 1148 125 2165 38 409 72 611 135 792 65 187 129 293 280 467 196 224
254 311 289 435 34 118 6 270 -72 396 -129 205 -360 330 -718 389 -164 27
-511 68 -738 86 -199 16 -610 18 -757 4z"/>
<path d="M16914 43395 c-111 -20 -183 -44 -275 -91 -243 -125 -392 -346 -376
-559 11 -141 77 -227 257 -332 203 -118 280 -190 365 -339 82 -143 139 -345
169 -594 24 -193 70 -917 96 -1490 62 -1386 62 -2852 -1 -4180 -6 -129 -12
-236 -14 -238 -1 -1 -46 3 -99 9 -117 15 -244 2 -368 -37 -312 -99 -525 -320
-624 -649 -24 -80 -27 -107 -28 -240 -1 -165 16 -254 75 -398 140 -340 470
-641 849 -775 146 -51 238 -66 405 -66 169 1 287 21 461 79 479 159 930 566
1164 1050 114 235 168 441 177 681 10 259 -25 404 -171 712 -100 211 -130 291
-146 394 -15 90 -8 145 25 213 43 89 45 90 105 60 187 -95 466 -179 730 -220
142 -22 512 -31 666 -16 766 77 1473 410 2009 946 701 701 1126 1704 1215
2864 13 175 13 634 -1 798 -74 899 -389 1512 -989 1925 -524 361 -1212 512
-1873 413 -540 -81 -1092 -321 -1591 -694 -149 -111 -235 -183 -404 -339 -62
-58 -114 -103 -116 -101 -2 2 -26 45 -53 94 -170 307 -313 508 -491 689 -253
258 -504 393 -807 435 -100 14 -252 12 -341 -4z m3561 -1374 c266 -68 466
-255 625 -586 137 -283 226 -589 276 -945 26 -179 26 -633 0 -815 -55 -397
-150 -711 -317 -1045 -186 -371 -376 -603 -578 -704 -183 -93 -450 -130 -926
-131 -295 0 -359 10 -482 70 -170 84 -263 267 -292 575 -42 439 -39 2526 4
2699 46 187 173 318 560 577 364 243 637 340 930 329 75 -2 150 -12 200 -24z"/>
<path d="M33295 42943 c-251 -24 -975 -128 -1139 -164 -227 -49 -333 -151
-344 -330 -8 -131 33 -234 132 -337 80 -84 173 -145 312 -203 194 -82 218 -99
248 -171 46 -109 47 -956 2 -1673 -41 -659 -49 -901 -43 -1290 7 -456 31 -703
97 -1024 71 -347 186 -637 347 -879 73 -110 272 -312 375 -381 234 -156 476
-233 728 -233 269 0 493 82 667 246 140 132 199 258 191 409 -8 150 -72 246
-302 458 -249 228 -352 381 -441 656 -94 289 -131 625 -142 1288 -12 751 44
1451 177 2208 61 342 70 418 70 587 0 179 -19 291 -70 412 -93 225 -257 370
-468 413 -69 14 -287 18 -397 8z"/>
<path d="M36535 42784 c-16 -2 -86 -9 -155 -15 -392 -34 -536 -71 -641 -166
-57 -51 -79 -100 -79 -171 0 -122 65 -188 310 -317 83 -44 177 -100 208 -125
153 -123 238 -348 262 -693 35 -509 54 -1832 40 -2711 -13 -815 -22 -1024 -49
-1128 -37 -143 -75 -199 -305 -444 -206 -220 -256 -298 -256 -401 0 -89 69
-169 208 -241 314 -162 730 -179 1367 -56 243 47 690 144 760 165 148 44 247
113 301 211 27 50 29 60 29 163 0 131 -10 163 -125 425 -206 465 -303 896
-351 1550 -15 204 -15 1038 0 1355 12 244 28 379 62 510 84 329 312 565 589
609 l36 6 48 -197 c86 -351 184 -622 298 -825 181 -323 464 -560 773 -650 69
-20 102 -23 240 -23 153 1 164 2 255 33 173 58 333 166 458 312 269 312 440
775 458 1245 10 240 -38 452 -142 628 -65 110 -228 274 -350 354 -295 193
-708 314 -1234 364 -159 15 -508 15 -625 0 -367 -48 -639 -162 -841 -353 l-52
-49 -40 73 c-166 300 -533 508 -984 557 -89 10 -400 13 -473 5z"/>
<path d="M27270 42773 c-322 -30 -577 -90 -846 -198 -834 -335 -1434 -1027
-1434 -1655 0 -144 19 -230 82 -359 44 -91 61 -116 137 -190 96 -96 188 -153
316 -198 74 -25 91 -27 230 -27 137 0 156 3 224 27 264 95 452 301 511 557 11
47 30 143 44 214 51 270 144 370 412 448 70 20 100 23 264 22 173 0 191 -2
275 -28 314 -96 538 -311 641 -614 39 -115 59 -249 51 -350 -3 -41 -7 -75 -9
-77 -2 -2 -100 -8 -218 -14 -911 -49 -1515 -173 -2068 -423 -668 -302 -1203
-862 -1402 -1467 -122 -371 -127 -802 -15 -1137 128 -383 409 -674 813 -846
731 -310 1780 -207 2552 251 163 97 285 195 470 376 193 189 229 212 315 203
66 -8 106 -44 197 -181 333 -503 767 -822 1224 -902 112 -19 317 -19 430 0
396 69 723 312 857 635 97 235 71 503 -75 752 -55 93 -209 249 -298 301 -139
81 -264 102 -485 83 -86 -7 -105 -6 -133 8 -46 24 -70 79 -92 214 -41 246 -44
331 -45 1127 -1 796 -4 873 -45 1132 -74 461 -239 849 -524 1227 -100 133
-298 342 -426 451 -505 427 -1110 650 -1744 643 -83 0 -167 -3 -186 -5z m1219
-3593 c13 -83 22 -152 20 -154 -6 -6 -956 -524 -1229 -671 -232 -125 -440
-223 -577 -271 l-51 -18 -321 44 c-207 28 -321 48 -321 56 0 24 41 128 71 182
48 85 168 197 289 270 58 35 233 141 391 236 284 172 286 173 388 195 56 12
244 62 418 111 315 89 487 129 638 149 126 17 136 18 201 20 l60 1 23 -150z"/>
<path d="M29860 34884 c-816 -109 -926 -130 -1094 -213 -124 -62 -203 -123
-255 -201 -124 -187 -129 -419 -10 -554 44 -51 85 -75 201 -120 170 -65 240
-138 290 -301 42 -140 42 -127 15 -3015 -26 -2792 -26 -2897 8 -3175 52 -413
180 -776 359 -1015 79 -105 226 -248 328 -318 158 -108 405 -210 588 -243 106
-19 364 -17 460 5 285 63 513 203 639 392 64 96 91 180 91 288 0 161 -47 282
-230 600 -167 290 -260 509 -339 800 -102 371 -156 755 -182 1291 -13 274 -7
1255 11 1585 32 612 101 1746 170 2812 44 672 46 750 25 889 -34 231 -133 384
-298 463 -162 78 -361 85 -777 30z"/>
<path d="M33950 34913 c-109 -13 -869 -116 -945 -129 -285 -48 -494 -145 -610
-284 -44 -52 -91 -151 -106 -220 -17 -77 -7 -224 19 -282 44 -99 98 -139 294
-219 138 -55 214 -148 260 -316 19 -71 22 -108 25 -398 2 -176 -7 -1438 -20
-2805 -13 -1406 -20 -2556 -16 -2648 43 -888 324 -1450 869 -1731 383 -198
773 -222 1133 -71 110 46 216 119 308 210 69 69 94 102 130 174 l44 89 0 131
c0 112 -3 141 -24 201 -30 87 -97 224 -189 380 -322 554 -460 1067 -524 1950
-17 239 -17 1331 0 1670 34 670 95 1674 168 2785 51 775 53 938 15 1083 -61
232 -202 371 -428 421 -68 15 -303 20 -403 9z"/>
<path d="M20525 32479 c-222 -23 -422 -106 -541 -224 -122 -121 -187 -284
-187 -470 0 -169 56 -303 160 -379 59 -43 109 -61 227 -82 237 -40 302 -139
239 -364 -13 -47 -794 -1924 -827 -1988 -10 -20 -70 141 -510 1365 -506 1413
-565 1564 -660 1697 -59 82 -160 178 -222 209 -91 46 -158 60 -263 55 -70 -4
-111 -11 -151 -28 -193 -82 -364 -257 -525 -539 -111 -195 -500 -1094 -735
-1701 -138 -355 -277 -735 -396 -1078 l-97 -283 -19 28 c-97 145 -248 464
-322 685 -138 405 -194 783 -183 1221 10 394 46 594 194 1072 34 110 37 130
37 245 1 122 0 127 -31 191 -86 174 -277 273 -584 301 -105 10 -293 7 -1110
-16 -541 -15 -1028 -32 -1083 -37 -313 -32 -546 -157 -592 -317 -31 -106 -4
-215 71 -280 74 -66 177 -105 405 -152 243 -51 299 -75 397 -171 67 -65 131
-161 185 -276 21 -48 516 -1259 1099 -2692 583 -1433 1074 -2630 1092 -2660
66 -110 167 -169 272 -158 81 8 160 52 246 137 85 84 139 160 198 276 21 44
303 706 625 1473 323 767 590 1401 595 1409 6 10 15 -7 30 -59 55 -186 191
-587 278 -819 174 -465 331 -822 569 -1300 241 -482 333 -635 438 -727 260
-229 672 -80 869 313 48 95 95 249 162 534 107 454 199 756 352 1165 196 522
381 930 918 2025 569 1162 735 1543 765 1757 38 277 -118 471 -450 557 -173
46 -608 98 -784 95 -39 -1 -107 -5 -151 -10z"/>
<path d="M25280 32294 c-668 -44 -1248 -311 -1740 -804 -496 -496 -883 -1207
-1130 -2077 -95 -333 -130 -551 -130 -806 0 -658 270 -1477 656 -1994 75 -100
229 -260 322 -334 108 -87 194 -133 400 -215 1136 -456 2225 -560 3132 -299
385 111 631 273 749 495 77 145 98 339 81 776 -14 396 -42 700 -76 831 -64
250 -250 359 -504 294 -192 -48 -347 -155 -595 -411 -366 -377 -447 -446 -630
-536 -60 -30 -155 -66 -210 -81 -93 -25 -114 -27 -300 -27 -222 0 -271 9 -441
78 -371 151 -671 563 -691 951 -5 85 -3 93 24 145 25 48 37 59 97 90 l69 35
156 -1 c86 0 212 -6 281 -13 182 -18 828 -26 1050 -12 369 23 713 64 1023 122
280 52 407 106 506 213 45 50 101 160 119 236 56 232 25 977 -58 1417 -190
999 -744 1675 -1530 1867 -186 45 -457 71 -630 60z m-110 -1589 c227 -11 568
-73 667 -121 64 -31 107 -82 160 -189 105 -211 144 -463 89 -580 -44 -96 -186
-203 -338 -256 -170 -58 -233 -64 -673 -63 -419 0 -588 11 -760 45 -227 46
-295 111 -282 273 3 39 15 100 27 136 34 105 142 316 229 447 127 192 211 271
316 298 39 10 300 23 385 19 36 -2 117 -6 180 -9z"/>
<path d="M22766 25234 c-313 -48 -565 -196 -727 -427 -231 -328 -352 -714
-309 -987 48 -302 262 -557 616 -733 297 -148 614 -220 964 -219 338 0 549 70
716 237 327 327 550 912 513 1346 -27 328 -176 517 -486 618 -158 52 -578 141
-776 166 -148 18 -391 18 -511 -1z"/>
<path d="M27095 24846 c-130 -22 -204 -44 -305 -93 -79 -38 -108 -59 -180
-132 -144 -145 -179 -239 -265 -716 -194 -1084 -314 -2164 -365 -3285 -12
-264 -25 -351 -64 -436 -33 -71 -122 -164 -194 -202 -116 -61 -209 -77 -543
-91 -129 -6 -259 -17 -305 -26 -161 -34 -273 -112 -343 -244 -93 -175 -23
-316 206 -411 177 -74 355 -112 766 -165 287 -37 357 -52 422 -90 126 -73 153
-181 107 -431 -91 -494 -22 -988 203 -1449 244 -500 629 -870 1126 -1084 309
-132 599 -191 942 -191 201 0 294 9 469 45 251 51 421 127 529 235 121 120
141 245 58 358 -19 26 -86 82 -167 139 -227 162 -363 280 -504 440 -394 446
-639 990 -699 1548 -10 96 -10 118 5 167 28 97 100 148 261 185 70 16 133 18
525 19 520 0 550 4 730 94 254 127 397 341 361 542 -33 189 -176 323 -418 393
-129 38 -269 42 -518 16 -294 -31 -388 -35 -493 -22 -161 20 -242 63 -289 154
-23 44 -27 68 -31 152 -3 86 3 140 47 390 142 807 220 1543 251 2375 20 538 7
1287 -25 1419 -55 227 -227 331 -635 387 -159 21 -560 27 -665 10z"/>
<path d="M30711 24800 c-196 -52 -357 -174 -433 -328 -27 -55 -34 -80 -37
-149 -5 -135 35 -219 184 -383 107 -119 147 -173 195 -265 104 -203 145 -422
170 -890 80 -1531 133 -3368 147 -5035 6 -757 5 -819 -11 -875 -31 -106 -84
-153 -260 -231 -166 -72 -263 -158 -318 -281 -17 -37 -22 -67 -23 -133 0 -74
4 -93 31 -150 54 -115 175 -219 298 -255 27 -8 113 -22 190 -30 498 -51 1059
-13 1586 106 321 74 494 162 594 303 90 125 118 256 93 428 -20 130 -56 243
-169 528 -215 542 -268 880 -268 1720 0 707 23 915 126 1139 157 342 580 710
974 849 136 48 233 66 355 66 130 0 192 -13 301 -64 175 -84 289 -242 402
-560 153 -432 249 -885 298 -1410 21 -233 30 -902 15 -1110 -41 -542 -148
-892 -382 -1252 -103 -156 -138 -241 -139 -328 0 -129 53 -243 165 -356 161
-163 345 -222 850 -269 483 -45 1080 -66 1280 -46 151 16 282 49 376 95 266
130 407 360 372 605 -25 170 -110 326 -340 624 -174 226 -262 359 -341 513
-202 398 -313 821 -369 1404 -15 156 -17 260 -13 655 10 1100 6 1203 -52 1475
-146 687 -671 1283 -1328 1508 -238 81 -423 112 -685 112 -204 0 -332 -15
-514 -61 -179 -44 -291 -91 -612 -252 -156 -79 -321 -156 -366 -170 -87 -29
-270 -64 -280 -54 -3 3 2 127 11 274 45 743 44 1700 -3 1890 -49 197 -154 320
-331 386 -85 32 -216 54 -430 72 -220 18 -287 31 -590 110 -135 36 -288 71
-340 80 -132 21 -287 19 -379 -5z"/>
<path d="M19248 22574 c-115 -17 -255 -65 -347 -117 -192 -110 -311 -324 -312
-562 0 -157 34 -256 117 -345 60 -64 126 -93 277 -123 147 -29 195 -54 227
-118 32 -62 35 -123 12 -215 -17 -70 -821 -2007 -841 -2027 -4 -4 -193 511
-421 1145 -564 1575 -584 1628 -639 1745 -98 204 -213 337 -348 401 -301 142
-617 -25 -885 -468 -64 -106 -103 -187 -224 -458 -362 -812 -698 -1667 -969
-2467 -32 -93 -61 -174 -65 -178 -10 -11 -95 135 -180 308 -247 504 -364 1050
-347 1620 7 228 25 387 67 595 29 141 45 197 125 460 36 117 39 133 39 255 1
128 0 132 -32 197 -85 174 -284 271 -607 297 -128 11 -2084 -42 -2203 -59
-284 -40 -475 -138 -544 -278 -18 -37 -23 -63 -23 -122 1 -89 21 -136 86 -194
77 -70 170 -103 483 -170 145 -31 223 -66 299 -135 67 -63 152 -186 202 -296
20 -43 507 -1235 1082 -2649 575 -1414 1060 -2603 1078 -2643 54 -117 138
-195 229 -212 169 -31 368 123 508 394 25 50 308 713 628 1475 321 762 588
1398 595 1414 12 28 13 28 34 -45 93 -311 278 -834 414 -1171 197 -484 509
-1134 700 -1457 129 -217 261 -318 429 -328 221 -14 454 130 582 359 74 133
116 262 191 588 152 658 375 1292 720 2045 131 286 244 522 530 1105 488 996
710 1485 763 1685 95 355 -49 579 -432 675 -301 76 -767 110 -998 74z"/>
<path d="M23030 22504 c-19 -2 -96 -11 -170 -20 -336 -37 -898 -121 -1037
-154 -228 -54 -332 -175 -321 -375 4 -71 10 -95 41 -158 77 -155 197 -248 462
-358 106 -43 148 -71 174 -112 40 -65 46 -158 46 -722 -1 -460 -4 -587 -28
-965 -61 -982 -64 -1462 -11 -1930 100 -897 411 -1481 932 -1748 281 -145 577
-186 843 -118 347 88 600 342 599 600 -1 141 -57 243 -220 400 -242 234 -298
293 -347 366 -181 269 -265 586 -305 1150 -17 235 -17 1128 0 1365 22 304 52
610 83 842 28 213 40 288 110 688 36 210 50 477 30 605 -15 97 -69 253 -112
327 -51 87 -180 211 -260 250 -105 50 -169 64 -329 68 -80 2 -161 1 -180 -1z"/>
<path d="M22875 14965 c-279 -49 -512 -173 -660 -352 -117 -141 -243 -375
-309 -573 -128 -383 -71 -686 179 -948 286 -301 802 -492 1330 -492 242 0 395
28 545 101 72 35 101 58 191 148 290 292 489 755 506 1178 9 230 -21 371 -109
510 -80 126 -225 222 -421 278 -120 34 -465 110 -617 136 -162 28 -514 35
-635 14z"/>
<path d="M29850 12575 c-476 -67 -936 -282 -1365 -640 -187 -155 -418 -390
-576 -584 l-35 -44 -48 81 c-74 127 -191 277 -301 388 -215 216 -460 362 -725
431 -133 35 -384 44 -527 18 -243 -44 -453 -148 -609 -301 -184 -182 -239
-347 -165 -498 38 -77 108 -149 277 -287 179 -146 257 -238 348 -410 120 -226
190 -495 250 -964 106 -829 163 -1797 154 -2600 -6 -429 -7 -438 -96 -525 -48
-47 -76 -64 -182 -108 -252 -105 -402 -237 -455 -400 -25 -77 -18 -200 17
-275 70 -150 236 -258 459 -298 119 -21 864 -19 1038 4 656 84 1042 307 1122
647 17 74 15 218 -6 314 -9 43 -43 156 -76 250 -124 352 -191 556 -234 711
-284 1017 -196 1828 264 2446 329 441 779 684 1236 667 111 -5 144 -10 222
-36 286 -96 405 -279 527 -803 103 -446 150 -875 176 -1629 24 -680 5 -963
-81 -1208 -81 -228 -176 -348 -390 -493 -197 -134 -257 -220 -267 -384 -9
-158 53 -310 177 -435 121 -121 280 -191 512 -226 94 -13 161 -16 374 -11 566
12 1105 109 1661 297 337 115 460 193 531 337 35 70 38 84 41 178 9 240 -70
397 -371 737 -238 269 -311 390 -372 618 -52 199 -56 258 -65 955 -10 764 -26
1032 -96 1585 -110 877 -286 1416 -591 1822 -284 377 -691 609 -1179 673 -141
18 -441 18 -574 0z"/>
<path d="M19359 12305 c-414 -70 -651 -317 -652 -680 -1 -205 79 -353 227
-421 29 -13 102 -33 161 -44 138 -24 190 -51 230 -115 27 -43 30 -56 29 -124
-1 -52 -9 -98 -26 -146 -28 -80 -817 -1966 -828 -1978 -4 -4 -222 592 -485
1325 -263 733 -495 1377 -517 1431 -161 410 -376 603 -648 584 -152 -10 -260
-67 -411 -217 -179 -178 -269 -331 -494 -840 -324 -732 -660 -1588 -910 -2320
-42 -123 -80 -231 -84 -238 -15 -27 -180 277 -271 498 -241 587 -318 1248
-218 1875 25 157 72 351 133 545 57 182 69 251 63 360 -4 70 -11 99 -36 151
-81 170 -283 271 -594 299 -166 15 -2135 -42 -2268 -65 -250 -44 -425 -139
-491 -265 -19 -36 -24 -61 -24 -125 0 -96 21 -142 90 -203 66 -58 162 -94 394
-146 121 -27 228 -57 265 -74 116 -55 229 -184 312 -360 20 -42 513 -1249
1096 -2680 582 -1432 1070 -2626 1084 -2654 85 -168 240 -230 393 -158 121 58
273 233 355 411 19 41 298 702 621 1469 323 767 588 1396 589 1397 1 1 32 -94
69 -212 228 -729 558 -1524 914 -2200 152 -287 213 -386 290 -466 106 -111
221 -157 358 -146 220 19 415 164 534 397 67 130 103 242 171 535 224 958 460
1553 1265 3190 422 857 681 1424 740 1618 112 371 -13 603 -385 710 -266 77
-815 120 -1041 82z"/>
<path d="M23125 12234 c-366 -40 -1061 -141 -1193 -175 -158 -40 -252 -109
-292 -217 -18 -47 -21 -73 -18 -147 3 -79 8 -100 40 -165 19 -41 52 -94 72
-117 78 -89 218 -175 415 -253 103 -41 153 -86 169 -153 36 -143 40 -927 8
-1454 -9 -139 -23 -367 -32 -505 -22 -347 -30 -1084 -15 -1319 82 -1259 499
-1962 1280 -2157 143 -35 360 -37 492 -4 191 47 316 112 435 224 89 85 139
158 172 252 20 59 24 84 20 153 -8 152 -79 257 -327 485 -174 158 -245 249
-326 413 -169 340 -220 675 -232 1510 -11 802 39 1421 182 2245 61 353 69 426
62 603 -5 162 -23 249 -72 367 -85 201 -238 342 -430 396 -59 16 -318 27 -410
18z"/>
<path d="M36795 12123 c-376 -44 -647 -125 -950 -282 -802 -415 -1444 -1312
-1798 -2511 -190 -644 -203 -1051 -52 -1651 147 -583 398 -1082 709 -1406 182
-190 293 -263 554 -368 1150 -460 2225 -564 3142 -305 405 115 655 287 765
525 63 136 70 191 69 565 -1 418 -32 842 -75 1008 -80 313 -338 403 -674 235
-137 -68 -223 -141 -525 -444 -304 -304 -370 -360 -519 -434 -169 -85 -319
-119 -521 -119 -328 0 -587 109 -811 341 -99 103 -158 188 -219 316 -65 135
-101 273 -103 392 -2 115 21 164 101 212 89 52 159 59 412 39 793 -62 1451
-32 2171 99 371 68 506 143 596 330 51 109 64 184 70 415 13 496 -50 1062
-161 1447 -98 340 -262 666 -454 904 -98 122 -290 300 -408 379 -252 168 -549
274 -869 310 -84 9 -382 12 -450 3z m185 -1598 c211 -29 398 -71 466 -105 77
-37 125 -95 179 -215 69 -150 114 -363 101 -467 -24 -175 -227 -325 -523 -385
-127 -26 -908 -26 -1118 0 -295 37 -405 87 -436 200 -34 128 64 392 252 677
147 222 232 292 378 310 105 14 570 4 701 -15z"/>
</g>
</svg>
