<?xml version="1.0" standalone="no"?>
<!DOCTYPE svg PUBLIC "-//W3C//DTD SVG 20010904//EN"
 "http://www.w3.org/TR/2001/REC-SVG-20010904/DTD/svg10.dtd">
<svg version="1.0" xmlns="http://www.w3.org/2000/svg"
 width="3000.000000pt" height="3000.000000pt" viewBox="0 0 3000.000000 3000.000000"
 preserveAspectRatio="xMidYMid meet">

<g transform="translate(0.000000,3000.000000) scale(0.100000,-0.100000)"
fill="#000000" stroke="none">
<path d="M11085 22780 c-469 -8 -641 -17 -911 -50 -1042 -127 -1695 -500
-2023 -1157 -134 -266 -196 -533 -208 -888 -12 -359 42 -651 165 -890 128
-248 414 -537 698 -705 294 -174 567 -280 1033 -400 748 -193 1106 -315 1374
-466 124 -70 228 -169 271 -258 61 -127 67 -294 16 -429 -59 -157 -255 -262
-564 -303 -221 -29 -599 -9 -966 52 -523 86 -1036 219 -1815 470 -126 41 -238
77 -248 80 -16 5 -17 -55 -15 -1193 l3 -1198 145 -22 c221 -34 827 -110 1080
-134 184 -18 289 -23 575 -23 357 0 503 9 795 45 765 94 1376 362 1747 764
248 269 404 614 468 1035 26 163 31 536 11 690 -38 283 -116 497 -252 687
-263 365 -614 619 -1139 826 -186 73 -275 101 -636 197 -873 233 -1092 305
-1359 440 -228 116 -320 242 -320 435 0 267 177 406 615 482 139 24 631 24
860 -1 511 -54 1197 -182 1850 -345 l310 -77 3 1164 c1 641 -1 1168 -4 1171
-8 9 -1041 9 -1559 1z"/>
<path d="M1934 22763 c9 -30 35 -183 45 -268 24 -185 31 -403 41 -1185 17
-1405 42 -1898 131 -2605 202 -1603 631 -2715 1229 -3186 152 -119 287 -187
469 -237 l96 -26 715 -4 c507 -2 743 0 810 8 251 31 474 148 698 364 131 127
210 223 321 386 360 534 624 1301 765 2220 75 488 101 923 141 2345 27 973 44
1405 66 1710 10 151 42 402 59 463 l9 32 -222 -5 c-775 -21 -792 -23 -947 -98
-69 -33 -102 -58 -176 -132 -80 -80 -98 -104 -143 -195 -95 -196 -115 -355
-87 -705 96 -1226 106 -1662 50 -2305 -85 -993 -323 -1714 -685 -2079 -123
-124 -246 -199 -406 -248 -78 -23 -105 -26 -243 -27 -178 -1 -259 16 -383 82
-87 45 -217 166 -284 264 -297 431 -508 1270 -575 2283 -17 262 -13 1008 8
1515 10 239 19 554 19 700 0 245 -2 272 -23 355 -13 50 -46 137 -74 194 -87
182 -236 307 -423 357 -60 15 -236 24 -778 38 -215 6 -228 5 -223 -11z"/>
<path d="M13090 22775 c0 -2 22 -22 50 -44 89 -70 284 -285 352 -387 311 -469
497 -1170 548 -2064 62 -1105 -151 -2501 -617 -4030 -75 -249 -237 -738 -299
-903 -18 -50 -31 -93 -29 -95 2 -2 1177 -1 2610 3 l2606 8 -4 826 c-3 801 -4
829 -25 920 -68 302 -193 422 -426 408 -149 -8 -249 -52 -586 -256 -443 -269
-834 -395 -1174 -378 -471 23 -900 326 -1136 802 -109 220 -151 367 -172 607
-30 352 58 633 257 816 217 199 535 242 962 131 357 -93 767 -291 1011 -488
l62 -51 0 1020 c0 561 -3 1020 -6 1020 -3 0 -26 -14 -51 -31 -83 -57 -325
-198 -442 -258 -237 -120 -475 -211 -678 -256 -153 -35 -336 -44 -441 -21
-298 63 -452 319 -452 753 0 248 39 446 119 608 129 260 344 386 686 402 229
10 433 -23 715 -117 225 -75 389 -144 675 -285 247 -122 320 -149 444 -164
260 -33 448 114 525 410 39 146 46 257 46 694 l0 405 -2565 0 c-1411 0 -2565
-2 -2565 -5z"/>
<path d="M22734 22688 c182 -225 304 -494 369 -813 29 -147 31 -473 4 -670
-131 -930 -675 -2620 -1717 -5330 -106 -275 -203 -528 -216 -563 l-24 -63
1082 3 c1082 3 1083 3 1161 25 212 60 348 196 401 398 47 181 43 397 -13 735
-45 269 -54 368 -54 590 1 403 70 762 196 1020 88 181 219 288 412 337 110 28
429 25 549 -5 220 -55 339 -145 433 -328 194 -382 267 -994 189 -1589 -33
-246 -41 -430 -27 -572 35 -348 151 -510 418 -586 78 -22 80 -22 1121 -25 573
-1 1042 0 1042 3 0 3 -41 110 -91 238 -471 1203 -982 2586 -1224 3314 -180
540 -346 1109 -470 1608 -227 915 -246 1284 -90 1753 73 218 169 395 294 540
l63 72 -1941 0 -1941 0 74 -92z m1967 -1496 c137 -87 327 -405 492 -823 167
-421 239 -758 192 -898 -47 -142 -241 -247 -515 -281 -108 -13 -312 -13 -420
0 -299 37 -511 154 -556 306 -54 185 97 736 330 1204 171 342 307 520 401 520
17 0 51 -13 76 -28z"/>
<path d="M3452 14773 c-4 -2 -162 -7 -352 -12 -330 -8 -349 -10 -435 -35 -211
-62 -467 -223 -620 -389 -213 -231 -376 -549 -443 -867 -41 -192 -43 -256 -40
-1225 4 -832 6 -940 21 -1025 97 -524 327 -897 711 -1151 65 -44 124 -79 130
-79 7 0 27 30 45 68 79 161 223 349 349 454 204 171 400 261 662 304 173 29
413 -2 546 -69 121 -61 227 -165 286 -281 30 -58 68 -220 68 -288 l0 -60 42
34 c316 249 517 607 593 1058 26 150 31 456 11 560 -45 227 -190 396 -377 439
-64 15 -199 14 -203 -1 -2 -7 -16 -53 -31 -103 -103 -347 -362 -622 -670 -710
-80 -23 -463 -33 -574 -15 -185 30 -357 125 -503 279 -169 177 -273 396 -313
661 -19 124 -19 425 0 550 73 483 384 854 783 935 127 26 507 17 612 -14 281
-84 537 -338 655 -653 l18 -48 86 0 c156 0 268 46 361 148 75 81 95 141 94
287 0 116 -1 123 -41 225 -93 242 -202 417 -361 582 -194 200 -424 344 -648
403 -58 16 -435 46 -462 38z"/>
<path d="M7025 14771 c-6 -5 -131 -11 -280 -13 -259 -4 -274 -6 -360 -32 -215
-65 -467 -222 -620 -389 -200 -217 -359 -515 -430 -809 -55 -225 -56 -256 -52
-1275 3 -1012 2 -987 58 -1208 107 -417 335 -752 664 -971 128 -85 243 -141
370 -181 l90 -28 555 0 c643 0 617 -3 835 105 159 80 286 171 420 305 273 271
432 629 475 1065 8 80 10 396 7 1045 -4 989 -3 958 -52 1160 -55 221 -174 482
-292 640 -210 281 -544 506 -828 558 -179 34 -536 51 -560 28z m136 -935 c91
-20 204 -65 275 -111 78 -52 230 -204 283 -285 100 -153 171 -333 211 -536 35
-172 53 -792 29 -1001 -61 -547 -434 -945 -909 -970 -466 -25 -838 334 -942
909 -21 115 -23 152 -23 548 0 460 4 511 62 710 29 101 114 282 174 371 56 84
169 196 247 247 174 113 403 158 593 118z"/>
<path d="M9980 14752 c0 -5 9 -17 20 -27 37 -33 122 -166 165 -258 172 -363
151 -715 -91 -1561 -54 -188 -209 -684 -245 -781 -10 -27 -58 -165 -107 -305
-171 -487 -395 -1091 -626 -1689 -58 -150 -106 -275 -106 -277 0 -3 321 -3
713 -2 794 4 766 1 874 74 156 106 192 318 121 713 -19 105 -23 162 -23 346 0
139 5 248 13 295 85 478 222 621 582 607 265 -10 388 -89 471 -302 99 -253
136 -626 92 -932 -10 -72 -17 -187 -17 -293 -1 -154 2 -183 21 -245 41 -129
104 -196 228 -242 46 -17 99 -18 744 -21 564 -2 693 0 688 10 -2 7 -23 58 -45
113 -105 262 -401 1041 -539 1420 -274 749 -421 1205 -553 1720 -143 552 -176
812 -134 1056 36 212 134 428 247 547 l41 42 -1267 0 c-697 0 -1267 -4 -1267
-8z m1326 -1021 c162 -99 454 -775 454 -1052 0 -75 -17 -115 -65 -158 -83 -72
-232 -111 -424 -111 -303 1 -501 106 -501 266 0 311 343 1074 483 1074 12 0
36 -9 53 -19z"/>
<path d="M15470 14749 c-814 -48 -1331 -307 -1568 -784 -130 -263 -168 -660
-92 -961 74 -293 315 -551 675 -724 158 -76 282 -119 558 -191 697 -182 965
-301 1041 -462 47 -101 43 -240 -9 -319 -79 -120 -283 -176 -595 -165 -374 14
-864 119 -1518 327 -107 34 -200 64 -208 67 -12 4 -14 -107 -14 -775 l0 -780
63 -11 c87 -15 502 -67 682 -86 331 -34 691 -29 1000 16 698 100 1148 398
1323 875 113 305 120 740 17 999 -77 192 -243 386 -447 523 -216 144 -417 226
-817 333 -546 146 -687 191 -857 274 -170 83 -234 163 -234 295 0 83 19 129
75 186 56 56 130 88 275 120 115 26 502 26 695 0 333 -43 765 -126 1127 -217
109 -27 200 -49 203 -49 3 0 5 342 5 760 l0 760 -622 -1 c-343 -1 -684 -6
-758 -10z"/>
<path d="M17140 13995 l0 -765 108 74 c410 280 752 399 977 341 86 -23 149
-61 212 -129 130 -140 187 -369 163 -650 -38 -438 -200 -1265 -413 -2101
l-101 -400 -1 -130 c0 -127 1 -132 33 -197 52 -107 138 -165 267 -182 l51 -7
78 116 c138 204 202 259 334 286 119 25 286 -28 425 -134 73 -56 159 -157 179
-213 6 -19 17 -34 23 -34 27 0 117 55 151 92 78 87 114 226 95 367 -5 42 -64
276 -131 520 -341 1250 -481 1910 -484 2281 -1 210 30 321 115 415 219 239
725 155 1283 -213 56 -37 113 -75 129 -85 l27 -19 0 766 0 766 -1760 0 -1760
0 0 -765z"/>
<path d="M20993 14658 c113 -112 179 -203 249 -343 180 -358 270 -848 269
-1460 0 -628 -112 -1327 -341 -2136 -48 -170 -242 -769 -275 -851 -7 -17 11
-18 291 -18 l299 1 65 101 c82 128 176 225 255 264 53 25 71 29 150 29 158 0
301 -62 425 -185 58 -57 107 -133 125 -194 4 -15 12 -18 43 -12 20 3 421 6
890 6 l852 0 0 538 c0 572 -3 611 -50 721 -28 64 -94 126 -152 141 -102 28
-213 -7 -427 -135 -226 -136 -363 -198 -541 -246 -70 -19 -111 -23 -230 -23
-138 0 -149 1 -242 33 -338 116 -585 429 -644 814 -53 344 71 612 323 699 59
20 86 23 203 22 116 -1 151 -5 251 -32 217 -56 465 -171 624 -289 l85 -63 0
661 c0 363 -3 659 -7 657 -5 -1 -63 -36 -129 -76 -396 -236 -748 -336 -957
-272 -115 35 -195 129 -234 271 -27 98 -24 366 5 472 73 268 247 396 537 397
231 0 475 -73 855 -256 203 -98 256 -116 351 -116 158 0 256 98 304 302 15 60
19 135 23 378 l4 302 -1676 0 -1676 0 103 -102z"/>
<path d="M25605 14733 c-583 -13 -1062 -26 -1064 -29 -2 -2 26 -31 62 -64 75
-69 193 -245 263 -395 105 -224 185 -527 231 -880 27 -215 25 -767 -5 -1040
-86 -789 -260 -1582 -497 -2272 -30 -89 -58 -169 -61 -178 -6 -15 44 -16 572
-13 575 3 579 3 635 26 114 46 180 133 198 263 13 96 -1 191 -63 427 -85 321
-171 700 -211 926 -60 338 -47 474 55 576 49 49 104 73 177 78 94 6 155 -18
229 -92 97 -98 156 -217 270 -548 137 -398 305 -729 502 -991 93 -123 250
-282 362 -366 88 -66 219 -136 231 -123 3 4 23 66 44 137 45 158 52 172 110
223 45 40 111 65 206 78 71 10 197 -15 371 -72 39 -13 166 314 207 531 36 193
50 416 33 552 l-7 52 -60 -40 c-162 -106 -424 -162 -611 -128 -148 26 -316
103 -469 216 -109 80 -362 332 -467 463 l-75 95 111 12 c279 28 464 111 637
283 93 92 146 165 201 275 211 419 206 1074 -13 1507 -127 252 -356 442 -614
509 -118 31 -281 31 -1490 2z m1135 -751 c190 -68 342 -215 404 -391 24 -68
33 -227 17 -300 -19 -90 -60 -161 -130 -231 -76 -75 -154 -119 -266 -152 -77
-22 -92 -23 -470 -23 -363 0 -394 1 -433 19 -93 42 -105 103 -106 526 -1 312
0 328 22 398 26 83 82 149 142 169 24 8 148 11 395 10 348 -2 362 -3 425 -25z"/>
<path d="M3502 10669 c-237 -31 -461 -145 -648 -333 -228 -227 -361 -522 -409
-906 -14 -110 -16 -180 -11 -380 3 -135 8 -261 11 -280 6 -34 4 -36 -100 -120
-130 -103 -339 -317 -418 -428 -224 -313 -283 -626 -165 -870 48 -100 167
-215 278 -269 149 -74 224 -88 450 -88 177 1 206 3 312 28 64 15 149 39 188
52 l71 24 32 -37 c134 -159 302 -275 482 -332 98 -31 293 -39 397 -16 213 47
394 198 468 388 42 107 41 108 -22 91 -38 -10 -88 -13 -173 -10 -136 6 -248
33 -374 93 -75 35 -171 99 -171 114 0 5 51 42 113 82 289 191 489 400 597 622
60 125 79 194 86 316 11 169 -41 314 -147 415 -65 62 -125 93 -198 102 -75 9
-84 2 -60 -44 42 -82 16 -241 -67 -407 -64 -127 -134 -225 -243 -338 -110
-115 -208 -192 -326 -254 l-84 -45 -38 58 c-82 127 -212 449 -276 681 -29 104
-30 115 -15 126 9 6 78 54 153 106 546 378 902 783 1007 1145 18 65 23 103 22
205 0 144 -16 198 -88 303 -112 164 -354 243 -634 206z m252 -313 c53 -31 83
-76 98 -148 9 -44 8 -67 -6 -132 -44 -196 -217 -434 -491 -675 -115 -101 -371
-301 -386 -301 -12 0 -17 154 -8 278 27 389 136 665 338 854 79 74 169 128
247 147 66 17 157 7 208 -23z m-1234 -2060 c0 -29 71 -261 121 -394 28 -75 75
-188 104 -249 l53 -113 -64 -20 c-159 -49 -365 -54 -459 -12 -236 107 -181
382 142 720 78 80 103 97 103 68z"/>
<path d="M3538 10216 c-106 -43 -211 -148 -278 -278 l-41 -78 180 0 180 0 20
29 c12 16 39 67 62 114 51 106 58 187 20 218 -31 25 -73 24 -143 -5z"/>
<path d="M27805 10316 c-54 -15 -89 -48 -104 -99 -224 -772 -581 -2158 -581
-2260 0 -72 83 -146 187 -167 98 -21 174 7 203 73 25 57 153 418 303 857 206
601 304 882 399 1139 66 179 88 250 83 270 -30 121 -324 233 -490 187z"/>
<path d="M18835 10095 c-23 -8 -58 -33 -81 -59 -78 -85 -214 -298 -338 -528
l-47 -88 -110 0 c-103 0 -112 -2 -134 -24 -31 -31 -41 -85 -23 -123 13 -27 16
-28 101 -31 48 -1 87 -6 87 -11 0 -4 -18 -49 -40 -100 -62 -142 -164 -429
-214 -602 -132 -456 -334 -800 -521 -885 -217 -100 -400 93 -356 376 15 92 19
99 41 62 23 -38 74 -76 122 -91 60 -20 167 -15 234 10 89 33 187 135 248 259
66 136 89 228 90 375 1 180 -38 289 -139 384 -156 148 -400 174 -577 62 -132
-84 -274 -263 -388 -490 -188 -375 -241 -755 -141 -1022 56 -149 175 -285 306
-350 179 -88 342 -88 531 2 128 61 266 202 370 379 l31 53 7 -64 c11 -104 27
-170 56 -234 36 -80 80 -128 146 -161 49 -24 62 -26 147 -22 79 3 100 8 146
33 55 30 138 104 180 160 l23 30 21 -30 c81 -113 205 -204 342 -251 69 -24 95
-28 195 -28 138 0 211 17 328 75 265 133 420 433 382 738 -17 132 -47 230
-147 481 -96 239 -113 293 -113 363 0 71 41 134 98 152 52 16 127 -37 186
-132 15 -25 36 -45 50 -49 77 -19 194 81 220 188 19 82 -95 182 -257 225 -88
23 -250 21 -348 -5 -163 -44 -322 -148 -442 -290 -96 -114 -177 -245 -279
-452 -77 -154 -102 -196 -154 -252 -74 -79 -126 -180 -148 -288 -15 -77 -31
-99 -86 -121 -19 -8 -27 -7 -37 7 -17 23 -16 57 2 175 46 307 219 823 396
1185 l59 120 172 -4 c151 -4 176 -3 205 13 63 34 107 170 67 209 -12 13 -41
16 -150 16 -74 0 -134 3 -134 8 0 4 30 42 68 85 70 81 152 153 208 183 29 16
34 24 34 57 0 114 -171 279 -335 322 -72 18 -108 18 -160 0z m-1235 -1281 c39
-101 -49 -378 -152 -482 -44 -45 -68 -56 -114 -50 -22 2 -33 12 -48 42 -18 37
-18 42 -3 115 24 113 104 267 177 341 50 52 63 60 94 60 30 0 38 -5 46 -26z
m1647 -223 c0 -99 14 -157 73 -306 26 -66 53 -139 59 -162 51 -190 19 -389
-79 -484 -76 -74 -168 -83 -239 -23 -97 81 -70 281 45 337 46 22 50 22 148
-10 18 -6 19 -2 14 61 -10 126 -81 212 -193 237 -53 12 -56 14 -50 38 10 40
110 244 146 298 28 42 69 93 74 93 1 0 2 -35 2 -79z"/>
<path d="M26655 10095 c-23 -8 -58 -33 -81 -59 -78 -85 -214 -298 -338 -528
l-47 -88 -110 0 c-103 0 -112 -2 -134 -24 -31 -31 -41 -85 -23 -123 13 -27 16
-28 102 -31 78 -2 88 -5 83 -20 -3 -9 -33 -84 -66 -165 -72 -175 -167 -454
-211 -619 -17 -65 -57 -182 -90 -261 -167 -411 -288 -617 -360 -617 -73 0 -56
89 105 531 110 300 165 499 165 593 0 259 -236 447 -625 498 -93 12 -105 18
-105 54 0 38 -60 142 -100 174 -76 60 -186 77 -265 41 -56 -25 -111 -90 -129
-152 -20 -66 -20 -92 -1 -156 16 -52 77 -126 116 -138 23 -8 23 -9 0 -115 -86
-382 -322 -942 -467 -1108 -68 -78 -137 -93 -162 -37 -64 139 114 739 302
1019 57 85 62 105 41 150 -52 110 -295 201 -395 149 -45 -23 -74 -81 -255
-505 -248 -582 -360 -776 -443 -766 -38 4 -52 40 -52 134 0 189 129 550 294
821 31 50 56 103 56 118 0 84 -127 186 -267 215 -64 14 -124 0 -160 -36 -47
-47 -188 -370 -273 -624 -41 -124 -184 -432 -256 -553 -115 -192 -201 -229
-198 -84 2 72 32 179 110 391 131 353 157 437 162 522 4 73 1 88 -23 143 -36
80 -130 169 -212 202 -47 19 -77 24 -158 24 -86 0 -107 -3 -150 -25 -105 -51
-275 -259 -395 -482 -23 -43 -43 -78 -46 -78 -7 0 85 251 147 399 175 421 389
735 567 829 68 36 75 52 51 123 -58 171 -353 323 -487 251 -183 -97 -432 -584
-665 -1297 -176 -538 -337 -1230 -337 -1448 0 -48 4 -61 30 -90 76 -88 301
-123 426 -68 23 10 45 24 49 30 3 7 17 64 30 129 61 300 248 868 357 1086 109
217 242 376 317 376 19 0 41 -32 41 -59 0 -43 -24 -107 -146 -383 -117 -264
-201 -495 -228 -630 -21 -101 -21 -258 0 -329 44 -152 161 -238 334 -247 70
-3 95 0 142 18 118 44 237 161 332 327 22 40 44 73 49 73 4 0 7 -17 7 -37 1
-103 52 -233 117 -294 80 -77 172 -102 266 -75 133 39 284 245 432 591 26 61
51 113 54 118 4 4 2 -27 -5 -70 -7 -43 -13 -123 -13 -178 -2 -312 155 -485
439 -485 261 0 449 193 651 671 100 237 285 799 334 1013 22 101 23 101 51 98
47 -5 131 -48 150 -77 50 -76 27 -188 -128 -609 -176 -482 -215 -641 -190
-788 17 -95 41 -147 98 -208 79 -84 200 -127 331 -117 112 8 205 56 303 155
64 66 86 97 142 209 l67 132 6 -47 c13 -99 28 -159 55 -217 57 -128 141 -185
269 -185 98 0 136 11 211 62 116 77 240 258 348 508 70 164 232 594 232 618 0
33 -47 63 -94 60 l-40 -3 -111 -220 c-151 -302 -251 -449 -323 -476 -21 -8
-29 -7 -39 7 -17 23 -16 57 2 175 46 307 219 823 396 1185 l59 120 172 -4
c151 -4 176 -3 205 13 63 34 107 170 67 209 -12 13 -41 16 -150 16 -74 0 -134
3 -134 8 0 4 30 42 68 85 70 81 152 153 208 183 29 16 34 24 34 57 0 114 -171
279 -335 322 -72 18 -108 18 -160 0z"/>
<path d="M13468 9131 c-114 -37 -206 -109 -312 -245 -159 -203 -274 -443 -336
-698 -25 -101 -41 -143 -94 -240 -76 -139 -138 -223 -179 -244 -26 -14 -31
-14 -48 2 -45 41 -17 165 124 546 53 141 105 296 117 345 39 152 13 251 -90
353 -112 111 -271 155 -410 114 -118 -35 -267 -229 -442 -579 -55 -110 -96
-186 -92 -170 18 80 81 274 126 395 64 171 70 215 32 259 -96 115 -310 148
-369 57 -44 -67 -172 -402 -250 -658 l-36 -116 -49 -21 c-79 -34 -81 -32 -73
52 13 119 7 335 -10 417 -23 105 -88 233 -152 296 -122 122 -306 164 -500 114
-93 -24 -151 -56 -222 -123 -66 -63 -108 -127 -141 -219 -22 -62 -26 -90 -26
-189 l-1 -117 -62 -5 c-111 -11 -132 -32 -192 -196 -16 -42 -42 -131 -57 -197
-24 -102 -28 -141 -28 -279 -1 -124 3 -175 17 -225 73 -269 248 -395 547 -395
180 0 292 47 426 180 124 122 226 293 314 527 l33 87 51 15 c28 8 51 14 52 13
1 -1 -13 -67 -32 -147 -44 -187 -84 -426 -84 -498 0 -40 6 -67 20 -90 38 -62
188 -110 303 -97 114 12 151 40 167 124 52 256 270 835 422 1121 127 240 257
395 311 374 43 -16 21 -95 -108 -389 -198 -451 -254 -634 -255 -832 0 -212 71
-326 241 -383 92 -31 210 -25 294 15 111 54 256 219 359 407 l29 53 17 -50
c57 -168 173 -306 315 -376 181 -89 342 -88 534 3 70 33 100 56 176 132 173
172 288 388 430 806 30 90 55 169 55 177 0 8 -11 25 -25 38 -27 28 -89 34
-117 13 -9 -7 -35 -60 -58 -118 -167 -422 -358 -651 -543 -651 -177 0 -283
172 -248 401 15 92 19 99 41 62 42 -68 120 -104 228 -103 107 0 172 29 258
115 82 82 150 207 185 341 29 108 31 293 5 380 -49 163 -167 277 -331 321 -70
19 -189 17 -257 -5z m-2856 -298 c65 -62 107 -181 115 -333 5 -100 -9 -246
-25 -262 -13 -13 -106 38 -139 75 -80 91 -124 215 -126 352 -1 104 13 156 51
186 35 27 84 20 124 -18z m3168 -19 c39 -101 -49 -378 -152 -482 -44 -45 -68
-56 -114 -50 -22 2 -33 12 -48 42 -18 37 -18 42 -3 115 24 113 104 267 177
341 50 52 63 60 94 60 30 0 38 -5 46 -26z m-3364 -800 c42 -20 101 -38 146
-45 l76 -12 -14 -39 c-25 -71 -83 -173 -130 -226 -159 -182 -301 -112 -298
148 1 81 20 177 50 248 l14 34 42 -37 c24 -20 75 -52 114 -71z"/>
<path d="M8061 9110 c-89 -24 -149 -57 -218 -123 -66 -63 -108 -127 -141 -219
-22 -62 -26 -90 -26 -189 l-1 -117 -62 -5 c-110 -11 -131 -31 -188 -184 -15
-37 -37 -112 -50 -166 -35 -144 -166 -366 -238 -403 -26 -14 -31 -14 -48 2
-45 41 -17 165 124 546 53 141 105 296 117 345 39 152 13 251 -90 353 -112
111 -271 155 -410 114 -118 -35 -267 -229 -442 -579 -55 -110 -96 -186 -92
-170 18 80 81 274 126 395 64 171 70 215 32 259 -97 116 -310 148 -370 56 -29
-45 -129 -293 -187 -465 -144 -430 -271 -959 -283 -1185 -5 -79 -3 -94 16
-123 44 -70 205 -115 331 -93 94 17 124 43 139 119 52 257 269 835 422 1122
127 240 257 395 311 374 43 -16 21 -95 -108 -389 -198 -451 -254 -634 -255
-832 0 -212 71 -326 241 -383 92 -32 210 -25 294 16 99 48 223 176 308 318 37
62 38 62 57 1 69 -222 253 -340 530 -340 180 0 292 47 426 180 124 122 226
293 314 527 l33 86 65 22 c157 51 338 224 318 304 -7 29 -59 66 -93 66 -13 0
-39 -18 -65 -46 -42 -45 -125 -94 -161 -94 -15 0 -16 7 -10 73 13 119 7 335
-10 417 -23 105 -88 233 -152 296 -122 122 -310 164 -504 114z m191 -277 c65
-62 107 -181 115 -333 5 -100 -9 -246 -25 -262 -13 -13 -106 38 -139 75 -80
91 -124 215 -126 352 -1 104 13 156 51 186 35 27 84 20 124 -18z m-196 -819
c42 -20 101 -38 146 -45 l76 -12 -14 -39 c-25 -71 -83 -173 -130 -226 -159
-182 -301 -112 -298 148 1 81 20 177 50 248 l14 34 42 -37 c24 -20 75 -52 114
-71z"/>
<path d="M15743 9095 c-373 -84 -775 -708 -834 -1293 -37 -372 109 -615 378
-630 75 -4 87 -2 145 25 156 74 262 244 419 666 41 109 75 194 77 189 11 -34
-116 -514 -185 -697 -149 -396 -314 -568 -559 -583 -106 -6 -169 14 -230 73
-25 23 -47 38 -50 33 -13 -21 -16 -159 -4 -209 32 -136 127 -253 256 -315 184
-88 388 -84 582 11 169 84 280 223 382 477 73 183 121 374 220 868 110 548
155 724 228 892 35 80 102 176 154 222 42 37 50 48 44 69 -9 37 -80 103 -144
134 -49 23 -70 27 -147 28 -79 0 -97 -4 -146 -28 -31 -15 -75 -48 -98 -72 -23
-25 -43 -45 -45 -45 -1 0 -17 20 -35 45 -82 115 -256 175 -408 140z m227 -270
c21 -22 22 -31 17 -87 -20 -220 -275 -737 -448 -910 -45 -45 -64 -58 -88 -58
-22 0 -32 6 -37 23 -53 162 201 805 389 986 80 77 126 90 167 46z"/>
<path d="M27075 7604 c-88 -45 -186 -160 -227 -266 -70 -185 81 -380 297 -382
184 -2 291 130 290 359 -1 86 -5 108 -26 155 -14 30 -38 69 -53 87 -63 75
-186 96 -281 47z"/>
</g>
</svg>
