<?xml version="1.0" standalone="no"?>
<!DOCTYPE svg PUBLIC "-//W3C//DTD SVG 20010904//EN"
 "http://www.w3.org/TR/2001/REC-SVG-20010904/DTD/svg10.dtd">
<svg version="1.0" xmlns="http://www.w3.org/2000/svg"
 width="3000.000000pt" height="3000.000000pt" viewBox="0 0 3000.000000 3000.000000"
 preserveAspectRatio="xMidYMid meet">

<g transform="translate(0.000000,3000.000000) scale(0.100000,-0.100000)"
fill="#000000" stroke="none">
<path d="M19218 26311 c-174 -56 -340 -213 -450 -426 -123 -238 -210 -610
-242 -1035 -23 -296 -26 -320 -41 -320 -25 0 -128 124 -157 190 -46 102 -51
112 -79 133 -56 41 -225 31 -250 -14 -31 -59 51 -219 176 -344 70 -70 129
-113 235 -170 l75 -40 7 -250 c15 -578 85 -956 228 -1233 128 -249 259 -346
463 -345 66 0 86 5 142 32 92 45 128 101 160 247 14 64 14 81 1 172 -17 113
-77 306 -143 460 -69 164 -143 287 -235 394 -27 32 -46 62 -43 68 4 6 67 10
158 10 335 0 617 50 798 141 l56 28 7 -102 c11 -162 53 -433 91 -583 83 -333
197 -444 454 -444 161 0 239 88 379 430 74 180 83 200 94 200 4 0 8 -3 8 -7 0
-5 9 -62 20 -128 30 -177 100 -749 100 -810 l0 -53 -100 1 c-80 2 -102 -1
-116 -14 -24 -25 -9 -54 41 -78 92 -43 636 -103 722 -79 26 7 33 14 33 33 0
31 -33 53 -119 81 l-66 21 -8 669 c-8 731 -4 1065 18 1340 38 466 40 531 22
569 -20 42 -60 68 -147 96 -97 31 -195 29 -262 -4 -53 -27 -53 -27 -78 -7
-133 104 -253 151 -405 158 -248 11 -421 -100 -549 -353 -65 -130 -122 -341
-141 -527 -4 -38 -11 -68 -17 -68 -6 0 -45 -35 -88 -79 -193 -195 -361 -254
-765 -268 -139 -4 -201 -3 -228 6 l-37 13 1 81 c0 45 3 100 7 121 7 39 9 40
97 76 252 100 442 287 575 565 142 298 252 702 254 935 1 218 -75 394 -202
463 -119 64 -331 87 -454 48z m262 -396 c19 -73 20 -90 10 -200 -21 -224 -65
-433 -135 -635 -72 -205 -153 -345 -273 -470 -68 -71 -92 -81 -92 -38 0 20 28
182 71 418 53 290 149 610 239 795 54 113 137 232 151 218 5 -5 18 -45 29 -88z
m1394 -830 c45 -35 103 -120 167 -245 72 -144 72 -149 -25 -475 -134 -447
-265 -827 -367 -1062 -50 -116 -69 -153 -80 -153 -16 0 -67 237 -95 445 -25
184 -25 623 0 785 46 302 139 532 267 662 36 38 74 68 83 68 10 0 32 -11 50
-25z m-1863 -1660 c160 -341 215 -641 136 -749 -12 -17 -17 -12 -49 50 -91
173 -145 412 -164 714 -7 111 -6 114 11 100 10 -8 40 -60 66 -115z"/>
<path d="M12570 26300 c-72 -15 -146 -58 -193 -110 -123 -137 -198 -429 -184
-715 16 -298 89 -519 232 -695 l66 -80 -31 -143 c-48 -217 -244 -1046 -303
-1282 -40 -158 -57 -211 -69 -213 -13 -2 -25 24 -57 120 -141 435 -204 855
-276 1853 -27 377 -37 492 -61 684 -10 84 -11 127 -4 136 5 6 36 18 67 25 126
27 202 69 184 98 -17 27 -77 38 -163 30 -110 -11 -317 -51 -503 -97 -184 -47
-209 -57 -213 -92 -5 -42 37 -53 172 -45 112 7 114 6 120 -16 3 -13 15 -149
26 -303 74 -1029 83 -1136 121 -1405 58 -414 134 -718 255 -1018 111 -276 151
-316 309 -317 81 0 95 3 144 30 135 75 178 197 401 1160 84 363 157 665 162
671 5 8 22 9 51 3 23 -4 83 -8 133 -9 l92 0 -1 -122 c-2 -203 39 -326 143
-429 81 -82 162 -118 325 -145 l40 -6 -45 -36 c-95 -77 -234 -220 -280 -290
-72 -107 -112 -235 -118 -378 -7 -177 33 -272 139 -333 178 -102 468 -48 711
131 147 108 485 463 543 571 22 41 15 81 -17 98 -12 6 -56 12 -97 12 -100 1
-177 -32 -211 -89 -108 -180 -571 -610 -616 -573 -45 37 -63 213 -35 329 31
125 112 262 219 366 75 75 192 150 350 227 149 73 172 89 172 124 0 19 -10 28
-47 45 -45 20 -54 20 -183 9 -74 -6 -175 -18 -223 -26 -79 -14 -94 -14 -140
-1 -103 30 -168 119 -203 273 -50 225 78 618 296 913 164 220 399 408 485 386
37 -9 102 -79 115 -123 6 -21 13 -81 17 -133 7 -113 -13 -207 -82 -385 -56
-145 -106 -244 -226 -443 -54 -91 -99 -168 -99 -172 0 -4 9 -15 21 -26 17 -15
36 -19 103 -19 114 0 156 23 242 128 217 269 413 655 451 887 46 279 -60 447
-311 495 -354 68 -773 -104 -1044 -429 -145 -174 -265 -392 -336 -606 l-34
-105 -65 2 c-66 2 -166 33 -187 57 -8 11 2 98 44 363 79 500 89 582 90 738 0
149 -11 214 -58 318 -27 60 -56 90 -110 112 -47 20 -156 27 -216 15z m70 -369
c5 -37 5 -128 -1 -206 -10 -155 -57 -506 -68 -518 -5 -4 -16 18 -26 50 -23 78
-32 351 -15 477 12 90 51 240 72 279 10 19 11 19 20 3 6 -10 14 -48 18 -85z"/>
<path d="M15260 25989 c-216 -10 -371 -31 -406 -54 -58 -38 -14 -77 104 -90
l63 -7 -8 -157 c-12 -230 -8 -1150 6 -1421 17 -345 53 -693 115 -1120 30 -205
30 -189 1 -200 -14 -6 -58 -10 -97 -10 -115 0 -181 -31 -164 -76 18 -48 146
-54 603 -29 198 10 269 17 292 30 35 17 39 36 14 60 -28 28 -64 37 -178 44
l-110 6 0 225 c1 192 5 253 29 415 64 441 182 891 338 1288 75 191 240 531
308 637 36 55 44 62 54 48 17 -23 42 -251 71 -653 14 -192 31 -363 37 -378 16
-41 68 -60 163 -61 86 0 135 17 155 54 7 13 10 182 10 501 -1 462 -2 486 -25
615 -28 159 -50 206 -119 251 -67 46 -115 57 -236 57 -94 0 -111 -3 -168 -28
-125 -57 -246 -224 -396 -544 -112 -241 -138 -292 -148 -292 -9 0 0 596 11
689 l6 55 58 17 c101 30 124 74 58 113 -42 24 -165 29 -441 15z"/>
<path d="M10660 25650 c-172 -28 -411 -130 -555 -238 -320 -239 -598 -708
-660 -1112 -38 -245 0 -431 112 -551 76 -81 163 -119 316 -134 l67 -7 -52 -46
c-269 -234 -390 -453 -392 -712 -1 -123 16 -186 69 -247 54 -63 119 -87 240
-87 209 0 389 84 617 286 171 152 478 534 478 594 0 45 -25 56 -119 52 -113
-4 -173 -32 -216 -102 -84 -136 -407 -487 -538 -586 -65 -48 -79 -48 -107 6
-11 21 -15 62 -14 154 0 115 3 132 31 207 89 234 256 402 581 583 90 50 119
71 126 93 8 23 6 31 -12 50 -20 19 -32 22 -95 21 -40 -1 -142 -16 -227 -34
-192 -41 -229 -45 -275 -30 -108 36 -185 184 -187 357 -1 296 184 715 449
1013 81 92 231 214 290 236 l44 17 42 -29 c26 -18 51 -48 67 -79 23 -45 25
-62 25 -175 0 -102 -4 -139 -23 -200 -69 -221 -148 -397 -285 -633 -48 -82
-87 -159 -87 -171 0 -64 159 -59 259 7 41 27 114 120 217 275 119 179 281 526
320 687 20 83 23 252 6 312 -30 102 -124 189 -231 212 -71 15 -219 21 -281 11z"/>
<path d="M8745 25267 c-151 -39 -271 -146 -379 -340 -45 -79 -182 -433 -231
-592 -79 -262 -181 -722 -250 -1130 -15 -88 -29 -162 -31 -164 -9 -10 -15 10
-24 70 -38 257 -49 844 -26 1408 8 211 18 386 20 389 3 2 54 18 113 34 114 30
156 53 161 85 6 41 -99 57 -194 28 -27 -8 -90 -22 -139 -30 -121 -19 -236 -54
-423 -126 -182 -70 -232 -99 -232 -133 0 -13 7 -27 16 -30 31 -12 120 -5 173
13 30 11 60 17 66 14 13 -4 12 -34 -6 -178 -33 -264 -30 -897 6 -1200 51 -435
170 -893 274 -1057 54 -85 159 -110 293 -68 70 21 99 46 123 102 16 40 41 195
75 473 41 338 136 848 221 1189 69 278 166 552 278 787 49 105 74 139 85 120
7 -10 30 -493 45 -936 6 -162 19 -363 30 -455 34 -280 129 -919 186 -1259 30
-178 55 -327 55 -331 0 -4 -21 -15 -47 -25 -57 -21 -83 -42 -83 -65 0 -53 75
-55 391 -10 116 17 244 29 292 29 71 -1 93 2 141 24 71 33 75 57 14 83 -36 16
-65 19 -175 16 l-132 -2 -10 38 c-6 20 -17 109 -26 197 -9 88 -27 266 -40 395
-40 386 -50 540 -75 1250 -19 533 -42 807 -86 1029 -42 211 -95 307 -189 347
-52 22 -194 28 -260 11z"/>
<path d="M22604 25136 c-287 -65 -491 -277 -608 -629 -89 -271 -136 -590 -136
-927 1 -363 61 -648 195 -925 161 -333 331 -471 602 -492 140 -10 268 40 372
147 120 123 332 499 466 825 32 77 58 141 59 142 1 1 18 -19 38 -46 20 -26 67
-71 105 -99 58 -44 102 -67 237 -120 15 -7 1 -18 -74 -63 -130 -75 -236 -180
-282 -279 -84 -177 -92 -385 -21 -524 30 -58 107 -128 177 -162 103 -50 199
-68 320 -61 116 6 195 29 306 89 203 108 540 410 540 483 0 34 -44 71 -108 89
-112 31 -186 16 -235 -47 -112 -147 -506 -436 -579 -425 -37 5 -62 71 -66 173
-8 176 41 300 166 425 106 107 207 157 427 212 66 16 126 34 133 40 33 28 -7
91 -73 116 -44 17 -203 41 -336 51 -85 6 -126 14 -157 30 -165 84 -249 342
-196 598 69 338 306 667 577 804 131 65 166 66 224 7 52 -55 70 -90 82 -169
25 -152 5 -267 -83 -475 -50 -117 -111 -223 -225 -386 -45 -64 -81 -122 -81
-130 0 -39 100 -88 179 -88 77 0 105 16 203 118 148 154 260 327 352 543 60
138 80 237 73 354 -14 237 -142 376 -430 467 -64 21 -91 23 -252 22 -167 0
-187 -3 -270 -28 -120 -36 -244 -103 -337 -181 -181 -152 -343 -416 -407 -659
-25 -96 -43 -273 -35 -338 l7 -48 -45 0 c-24 0 -51 -6 -60 -12 -9 -7 -69 -134
-133 -283 -155 -358 -248 -547 -335 -679 -78 -117 -184 -232 -240 -259 l-35
-17 -45 48 c-46 49 -129 205 -176 331 -32 84 -69 232 -86 341 -17 110 -17 501
0 640 27 218 107 563 168 727 113 301 307 522 477 540 37 4 47 1 85 -32 96
-83 173 -326 157 -495 -16 -165 -78 -339 -149 -417 -34 -38 -40 -41 -101 -45
-74 -5 -101 -22 -92 -60 20 -76 248 -137 353 -93 116 48 230 223 289 440 25
92 30 253 12 360 -46 259 -122 366 -330 465 -45 22 -109 47 -142 56 -82 23
-337 29 -421 10z"/>
<path d="M5525 24913 c-57 -13 -421 -126 -495 -153 -170 -63 -239 -115 -201
-153 14 -14 107 -13 172 2 24 5 45 9 46 7 2 -2 -4 -250 -13 -552 -17 -597 -15
-954 10 -1434 24 -469 35 -760 30 -775 -3 -7 -22 -16 -42 -20 -46 -8 -120 -40
-144 -62 -26 -23 -23 -59 5 -67 52 -14 132 -3 422 59 330 70 388 89 393 136 2
15 -4 32 -13 39 -16 14 -51 11 -241 -17 l-31 -5 -8 424 c-5 232 -10 869 -10
1414 l-1 991 46 12 c61 16 150 57 178 83 37 35 29 55 -28 67 -28 6 -52 10 -53
10 -1 -1 -11 -3 -22 -6z"/>
<path d="M15060 19645 l0 -1835 98 0 c53 0 208 -3 344 -7 l248 -6 2 868 3 868
123 -658 c67 -362 124 -660 125 -661 1 -1 141 -7 311 -14 219 -9 310 -10 315
-2 3 6 60 302 126 659 l120 648 3 -877 2 -878 23 0 c25 0 410 -26 565 -38 l92
-8 0 1837 0 1836 -72 7 c-148 12 -690 47 -693 44 -1 -2 -107 -345 -235 -763
-128 -418 -235 -764 -238 -769 -3 -5 -111 346 -241 780 l-236 789 -140 6 c-77
4 -254 7 -392 8 l-253 1 0 -1835z"/>
<path d="M13363 21436 c-116 -6 -213 -13 -216 -16 -2 -3 -84 -286 -182 -630
-97 -344 -181 -631 -184 -638 -5 -8 -46 105 -99 265 -50 153 -141 431 -202
619 l-111 340 -27 -3 c-15 -1 -162 -14 -327 -29 -165 -14 -301 -27 -303 -29
-2 -1 692 -1833 718 -1893 6 -14 10 -337 10 -869 l0 -846 63 6 c34 3 182 14
330 23 l267 18 0 852 0 852 294 824 c162 452 322 899 355 992 34 93 61 171 61
172 0 7 -228 1 -447 -10z"/>
<path d="M18331 21330 c-148 -40 -264 -111 -367 -224 -105 -114 -169 -249
-194 -406 -8 -55 -10 -377 -8 -1215 l3 -1140 23 -80 c52 -179 138 -323 271
-455 194 -192 401 -281 656 -281 138 0 235 21 336 71 208 105 349 271 411 486
l23 79 0 1180 0 1180 -28 90 c-105 343 -361 605 -684 701 -124 37 -334 44
-442 14z m332 -651 c53 -14 110 -69 136 -129 l21 -50 -2 -1087 c-3 -1077 -3
-1088 -24 -1123 -11 -19 -36 -45 -55 -58 -29 -21 -44 -23 -106 -20 -94 4 -144
37 -188 123 l-30 59 -3 1039 c-2 681 1 1059 8 1095 23 127 118 186 243 151z"/>
<path d="M11405 21284 c-251 -28 -725 -88 -734 -93 -8 -5 -182 -904 -628
-3248 -53 -282 -94 -515 -91 -519 8 -7 650 84 659 94 3 4 32 151 64 327 32
176 61 324 65 329 12 13 699 96 700 85 0 -2 31 -141 69 -309 l68 -305 74 2
c90 3 578 48 584 55 4 4 -710 3571 -718 3588 -1 3 -51 0 -112 -6z m-209 -1566
c54 -433 95 -791 91 -794 -3 -3 -86 -17 -184 -30 -98 -13 -190 -26 -205 -28
-24 -5 -28 -2 -28 18 0 12 47 394 105 847 58 453 105 828 106 834 3 33 27
-143 115 -847z"/>
<path d="M19682 19298 l3 -1832 40 -8 c22 -4 159 -25 305 -48 146 -23 275 -44
288 -47 l22 -5 0 660 0 660 33 6 c17 3 55 8 83 12 l52 6 10 -48 c6 -27 70
-344 143 -705 l132 -657 319 -62 c175 -34 321 -60 323 -58 3 3 -67 369 -154
814 l-159 809 26 20 c15 11 59 51 97 90 78 78 130 167 167 285 23 74 23 82 23
510 0 425 -1 437 -24 524 -51 193 -131 337 -264 473 -169 174 -329 250 -642
308 -202 36 -765 125 -798 125 l-27 0 2 -1832z m773 1073 c50 -10 113 -30 140
-44 67 -33 132 -100 164 -167 26 -55 26 -57 29 -323 3 -266 3 -268 -21 -321
-54 -117 -176 -164 -347 -134 l-75 14 -3 497 c-2 394 0 497 10 497 7 0 54 -9
103 -19z"/>
<path d="M9030 20894 c-36 -5 -760 -150 -902 -181 l-78 -17 0 -1819 0 -1819
23 5 c12 2 235 48 495 101 260 52 506 107 548 121 96 32 203 86 279 140 69 49
187 169 232 236 48 69 109 196 138 284 57 174 56 158 53 1331 l-3 1079 -23 80
c-65 234 -207 378 -429 436 -77 20 -259 32 -333 23z m50 -669 c15 -8 38 -27
49 -41 21 -27 21 -27 21 -1062 0 -1024 0 -1036 -20 -1078 -25 -50 -91 -114
-152 -145 -38 -20 -205 -59 -250 -59 -17 0 -18 63 -18 1175 l0 1175 23 5 c174
43 301 54 347 30z"/>
<path d="M21600 18962 l0 -1837 318 -69 c174 -38 325 -72 335 -74 16 -4 17 47
17 964 0 594 4 963 10 953 9 -16 249 -661 592 -1589 104 -283 193 -518 197
-523 4 -4 115 -36 247 -71 131 -35 273 -74 314 -85 41 -12 80 -21 87 -21 11 0
13 357 13 1830 l0 1830 -22 10 c-25 10 -87 28 -411 114 -114 31 -214 56 -222
56 -13 0 -15 -126 -17 -997 l-3 -997 -194 480 c-291 717 -708 1734 -713 1739
-2 2 -119 29 -259 60 -140 30 -262 57 -271 59 -17 4 -18 -88 -18 -1832z"/>
<path d="M7525 20614 c-148 -36 -291 -70 -317 -76 l-48 -11 -2 -1006 -3 -1006
-136 265 c-75 146 -277 540 -449 875 -171 336 -315 614 -320 619 -4 4 -130
-27 -279 -70 l-271 -77 0 -1837 0 -1837 335 96 335 96 2 969 3 970 393 -866
393 -865 96 23 c52 13 184 44 292 69 108 26 213 51 234 56 l37 10 0 1834 c0
1462 -3 1835 -12 1834 -7 0 -134 -29 -283 -65z"/>
<path d="M23952 18375 l3 -1838 323 -97 322 -97 0 1837 0 1837 -312 93 c-172
51 -319 95 -326 98 -10 3 -12 -365 -10 -1833z"/>
<path d="M24812 18115 l3 -1838 310 -102 c171 -56 318 -106 327 -110 17 -7 18
44 20 961 l3 969 256 -735 c141 -404 314 -902 385 -1105 l128 -371 306 -118
c168 -65 313 -120 323 -123 16 -5 17 87 17 1830 l0 1835 -107 43 c-60 23 -206
79 -325 124 l-218 83 0 -1001 c0 -550 -2 -998 -5 -996 -2 3 -116 299 -253 659
-137 360 -336 880 -442 1156 l-192 501 -257 83 c-141 46 -262 85 -269 88 -10
3 -12 -365 -10 -1833z"/>
<path d="M4852 19910 c-216 -30 -428 -138 -596 -306 -181 -181 -306 -394 -374
-643 l-27 -96 0 -1175 c0 -1090 1 -1180 18 -1240 60 -224 206 -373 417 -426
94 -24 248 -15 360 21 181 58 321 146 470 295 170 170 277 338 344 540 19 58
40 141 46 185 8 56 10 415 8 1220 -4 1254 0 1168 -66 1308 -72 152 -216 269
-377 305 -76 17 -153 21 -223 12z m-33 -716 c17 -14 35 -42 41 -62 8 -26 10
-374 8 -1122 l-3 -1085 -27 -50 c-84 -160 -274 -208 -335 -85 -17 33 -18 103
-18 1125 l0 1090 23 45 c34 70 77 116 134 144 70 35 135 35 177 0z"/>
<path d="M3480 19369 c-342 -131 -540 -211 -544 -218 -3 -4 -82 -309 -176
-677 -270 -1055 -273 -1066 -280 -1052 -4 7 -103 310 -220 673 -117 363 -215
665 -219 672 -4 8 -73 -17 -226 -86 -298 -133 -488 -221 -498 -230 -4 -4 -6
-831 -5 -1838 l3 -1832 275 125 c151 68 294 133 317 144 l43 20 2 871 3 872
114 -604 c63 -332 116 -607 118 -611 2 -3 60 18 130 49 70 30 199 84 288 120
88 36 163 69 167 72 4 4 59 323 122 709 62 387 116 706 120 709 3 4 6 -386 6
-865 0 -480 2 -872 4 -872 2 0 117 44 257 99 140 54 282 109 317 121 l62 23 0
1833 c0 1461 -3 1834 -12 1833 -7 0 -83 -27 -168 -60z"/>
<path d="M27440 18944 c-146 -39 -261 -161 -329 -348 -64 -177 -62 -139 -58
-1362 3 -1105 3 -1109 25 -1207 114 -500 383 -842 794 -1011 431 -178 711 -45
806 381 15 70 17 146 17 712 l0 633 -175 80 c-152 69 -632 281 -668 295 -10 4
-12 -64 -10 -333 l3 -338 113 -50 112 -49 0 -271 c0 -149 -5 -287 -10 -307 -5
-19 -23 -48 -39 -63 -27 -26 -35 -28 -85 -24 -107 9 -208 103 -248 230 -17 57
-18 117 -18 1124 0 1145 -2 1104 51 1153 51 48 180 12 255 -71 20 -22 48 -66
63 -97 25 -55 26 -62 31 -309 l5 -253 295 -135 c162 -74 301 -138 309 -141 11
-5 12 45 8 293 -4 259 -7 312 -26 399 -64 290 -180 518 -360 707 -258 271
-624 425 -861 362z"/>
<path d="M14850 16700 c-235 -18 -333 -38 -351 -72 -14 -25 11 -54 52 -62 16
-3 43 -9 60 -12 l32 -6 -6 -117 c-3 -64 -10 -165 -16 -226 -49 -508 -84 -1017
-113 -1622 -14 -287 -1 -799 28 -1101 9 -95 14 -179 11 -186 -3 -8 -28 -17
-55 -21 -56 -7 -112 -37 -112 -60 0 -8 12 -23 27 -32 25 -16 52 -18 283 -15
140 1 278 7 306 13 56 11 88 37 78 62 -8 21 -76 47 -124 47 -38 0 -40 2 -40
30 0 16 5 52 11 80 10 48 14 52 77 89 143 83 312 222 483 398 246 252 395 527
467 863 49 229 53 403 12 535 -40 128 -118 175 -291 175 -123 0 -185 -24 -265
-104 -120 -122 -281 -371 -420 -653 -47 -95 -90 -173 -95 -173 -7 0 -8 34 -5
93 4 50 11 200 17 332 5 132 28 508 50 835 21 327 39 638 39 691 0 112 -3 109
98 109 123 1 176 20 169 60 -7 46 -178 67 -407 50z m774 -1589 c8 -63 -9 -249
-34 -363 -55 -251 -182 -515 -347 -718 -73 -89 -230 -246 -238 -238 -11 10 35
205 76 324 123 357 331 789 473 982 25 34 50 62 55 62 4 0 11 -22 15 -49z"/>
<path d="M12316 16219 c-291 -28 -541 -163 -821 -444 -227 -226 -372 -465
-486 -794 -61 -176 -89 -296 -135 -578 -5 -31 -7 -33 -49 -33 -72 0 -524 -90
-582 -115 -56 -25 -94 -68 -75 -87 16 -16 99 -21 160 -10 44 8 52 7 52 -6 0
-25 -314 -763 -388 -912 -15 -30 -32 -56 -39 -58 -30 -9 -68 205 -85 474 -11
180 -2 461 18 529 3 11 31 38 61 60 83 59 192 173 252 262 217 326 351 768
338 1113 -4 134 -15 173 -63 229 -45 54 -78 66 -184 65 -257 -2 -460 -166
-602 -487 -111 -251 -198 -532 -242 -782 -15 -82 -29 -162 -32 -176 -4 -23
-14 -29 -69 -44 -35 -9 -76 -28 -91 -42 -23 -21 -26 -30 -21 -64 7 -52 50
-114 108 -156 l47 -33 6 -138 c19 -393 80 -667 199 -896 71 -135 128 -176 250
-176 109 0 216 41 293 112 80 73 151 223 391 812 84 209 155 381 157 383 1 2
34 12 72 22 38 10 76 22 86 25 14 6 17 -2 23 -61 19 -206 61 -322 141 -392 70
-61 137 -83 280 -89 137 -5 224 6 475 64 356 82 458 90 522 41 150 -114 37
-420 -219 -594 -70 -48 -177 -103 -199 -103 -26 0 -28 28 -6 82 41 99 20 124
-95 115 -112 -8 -196 -69 -229 -166 -45 -133 21 -194 212 -193 236 2 578 166
793 381 101 101 152 182 184 290 45 153 -10 295 -137 354 -156 74 -339 67
-796 -29 -288 -61 -327 -61 -390 -8 -71 59 -99 247 -67 440 45 268 120 501
236 739 131 269 261 455 431 621 90 88 211 184 231 184 5 0 31 -21 58 -46 36
-34 63 -74 99 -148 68 -139 86 -223 85 -411 -1 -184 -20 -301 -80 -485 -57
-172 -198 -460 -234 -476 -14 -7 -79 -15 -144 -18 -85 -4 -124 -9 -134 -20
-45 -45 53 -116 161 -116 108 0 688 41 713 50 38 15 40 37 8 71 -34 36 -107
59 -186 59 -32 0 -58 3 -58 7 0 3 32 55 70 114 287 440 428 940 350 1240 -45
173 -136 325 -232 385 -90 57 -225 78 -392 63z m-2086 -782 c0 -240 -81 -555
-201 -787 -22 -41 -48 -86 -59 -100 l-20 -25 0 30 c-1 170 231 1024 271 999 5
-3 9 -56 9 -117z"/>
<path d="M17135 16150 c-343 -54 -621 -239 -827 -550 -188 -282 -277 -562
-265 -825 9 -175 54 -289 155 -389 71 -70 149 -112 263 -140 l91 -22 -95 -72
c-169 -128 -263 -248 -311 -392 -75 -228 -52 -419 64 -524 124 -112 366 -127
583 -36 148 62 346 218 538 425 164 177 196 225 180 268 -13 34 -65 51 -151
52 -98 0 -140 -21 -199 -100 -57 -76 -272 -291 -371 -371 -87 -71 -197 -144
-216 -144 -8 0 -24 19 -36 43 -20 37 -23 56 -23 162 1 104 4 129 27 187 37 97
83 170 161 254 101 109 229 188 430 265 139 53 166 90 99 135 -48 33 -120 38
-336 24 -185 -12 -195 -12 -237 7 -66 30 -102 65 -137 135 -82 164 -83 337 -2
580 96 288 316 595 527 733 145 96 184 105 246 54 54 -44 74 -91 86 -200 15
-136 -2 -225 -80 -421 -57 -143 -98 -222 -216 -410 -58 -92 -103 -175 -101
-185 9 -47 156 -71 236 -38 100 42 297 302 426 562 127 256 161 372 154 533
-4 86 -9 115 -30 162 -52 112 -148 184 -298 222 -79 20 -253 28 -335 16z"/>
<path d="M8870 16054 c-47 -13 -130 -33 -185 -45 -55 -11 -209 -56 -342 -100
-286 -95 -369 -141 -332 -185 22 -27 87 -19 262 33 48 14 90 23 93 20 11 -10
-12 -113 -107 -477 -227 -867 -356 -1292 -515 -1693 -160 -404 -311 -688 -352
-663 -23 14 -91 142 -116 216 -80 242 -122 863 -87 1275 23 261 96 832 122
946 l10 47 77 7 c42 4 97 16 122 26 85 38 118 92 63 105 -16 3 -36 8 -45 10
-58 16 -410 -44 -620 -105 -232 -68 -308 -106 -308 -152 0 -35 45 -44 134 -26
44 9 82 14 85 12 2 -3 -3 -47 -12 -98 -90 -486 -120 -789 -120 -1197 0 -276
13 -423 58 -649 57 -282 127 -444 239 -557 83 -83 132 -104 241 -104 239 0
440 130 594 385 81 134 251 547 371 902 72 213 100 281 100 246 0 -28 124
-795 156 -963 19 -102 55 -272 79 -379 25 -107 44 -195 43 -197 -2 -1 -43 -14
-91 -29 -126 -38 -200 -110 -135 -131 65 -20 160 -1 626 127 195 54 279 99
270 145 -7 38 -121 37 -210 0 -21 -9 -53 -16 -72 -16 -32 0 -36 3 -45 38 -50
187 -163 934 -201 1322 -18 189 -24 654 -11 875 18 287 85 873 103 890 1 2 41
10 87 19 93 17 166 54 184 93 9 21 8 27 -8 39 -28 21 -108 16 -205 -12z"/>
<path d="M18568 16025 c-230 -44 -417 -170 -553 -375 -76 -114 -120 -210 -169
-371 -77 -257 -115 -502 -123 -810 -10 -393 39 -674 168 -948 56 -120 159
-279 216 -333 54 -52 147 -105 228 -131 97 -30 256 -30 336 0 69 25 160 86
216 145 68 71 219 312 308 493 126 255 295 673 295 728 0 48 -77 89 -170 91
-90 1 -107 -12 -149 -115 -107 -262 -252 -593 -316 -719 -120 -237 -248 -412
-341 -466 l-45 -27 -45 44 c-56 55 -150 236 -199 382 -119 356 -108 833 31
1390 63 252 138 435 235 578 111 165 278 286 363 265 66 -16 143 -136 183
-286 51 -193 -6 -486 -126 -645 -38 -50 -42 -52 -96 -58 -141 -14 -140 -100 2
-143 26 -8 81 -14 123 -14 62 0 86 5 128 26 77 38 144 119 207 248 114 233
136 437 74 678 -26 104 -50 149 -111 214 -55 58 -170 121 -273 149 -84 23
-299 28 -397 10z"/>
<path d="M20118 15704 c-259 -62 -438 -323 -513 -745 -44 -243 -21 -726 50
-1084 47 -235 102 -382 172 -465 70 -81 247 -135 366 -110 124 25 202 127 321
417 82 202 91 221 101 211 17 -16 119 -764 127 -923 l3 -60 -102 -5 c-115 -6
-145 -20 -124 -59 19 -35 69 -52 225 -78 169 -27 505 -46 548 -31 69 24 23 82
-90 115 l-67 19 0 954 c0 851 2 975 19 1135 10 99 20 248 23 330 5 144 4 151
-17 178 -28 35 -83 63 -162 82 -101 24 -166 20 -232 -14 l-58 -29 -61 47
c-150 112 -356 158 -529 115z m268 -199 c77 -59 224 -319 224 -396 0 -76 -226
-809 -357 -1159 -59 -157 -128 -321 -152 -358 -20 -33 -30 -18 -57 94 -76 313
-101 736 -63 1064 38 335 168 646 312 751 49 35 52 35 93 4z"/>
<path d="M24225 15659 c-248 -22 -537 -166 -716 -356 -218 -232 -292 -494
-228 -806 54 -269 109 -375 511 -983 131 -199 238 -364 238 -368 0 -4 -48 -61
-107 -128 -234 -262 -251 -285 -301 -402 -29 -66 -35 -94 -36 -151 -1 -126 46
-188 199 -261 110 -53 183 -68 320 -68 195 0 335 47 435 144 72 70 102 140
108 254 7 136 -18 222 -123 433 -67 135 -84 176 -76 190 21 41 692 653 714
653 3 0 3 -39 0 -87 -20 -318 143 -586 427 -704 30 -12 59 -25 63 -29 4 -4
-31 -29 -79 -56 -93 -52 -207 -150 -254 -220 -17 -23 -43 -82 -59 -131 -110
-329 25 -593 339 -667 83 -20 226 -20 310 -1 96 23 251 104 374 196 120 91
309 271 320 306 20 63 -67 123 -190 131 -53 3 -78 0 -102 -12 -18 -9 -32 -21
-32 -26 0 -15 -98 -108 -200 -189 -156 -125 -333 -231 -386 -231 -64 0 -92
244 -45 380 28 82 75 154 146 223 89 89 232 151 435 192 47 9 95 23 108 31 45
29 17 86 -59 118 -49 20 -211 52 -339 67 -166 18 -237 67 -304 209 -91 192
-84 386 22 644 22 53 64 135 93 182 59 95 192 242 280 310 70 54 198 113 260
121 44 5 49 3 87 -35 23 -23 50 -58 60 -79 27 -53 46 -180 39 -267 -12 -163
-133 -433 -297 -661 -55 -76 -100 -144 -100 -151 0 -21 51 -62 97 -78 54 -18
129 -21 170 -5 61 23 243 226 332 372 151 247 223 466 206 621 -23 197 -114
322 -300 413 -161 78 -205 88 -410 88 -157 0 -190 -3 -258 -23 -225 -65 -397
-201 -548 -432 -37 -58 -74 -110 -81 -117 -7 -6 -80 -62 -163 -123 -241 -181
-467 -370 -701 -587 l-132 -122 -19 22 c-24 27 -115 169 -302 469 -151 243
-207 358 -249 508 -24 84 -27 113 -27 250 0 148 1 159 31 242 76 211 277 421
508 529 73 34 161 55 196 46 40 -10 110 -87 144 -157 30 -63 31 -69 31 -205 0
-103 -5 -160 -19 -215 -18 -75 -181 -507 -197 -524 -5 -6 -36 -3 -78 7 -90 22
-161 23 -161 1 0 -54 57 -87 265 -153 304 -97 426 -107 386 -33 -6 11 -38 37
-72 57 -40 25 -58 42 -55 51 3 8 37 67 75 132 200 341 286 601 261 786 -23
166 -121 285 -311 380 -159 78 -285 101 -474 85z m-10 -2841 c76 -166 72 -329
-10 -425 -62 -72 -181 -115 -226 -80 -79 60 -56 205 59 374 41 61 140 183 148
183 3 0 16 -24 29 -52z"/>
<path d="M5584 15382 c-71 -25 -103 -48 -119 -86 -32 -76 -52 -1380 -27 -1766
13 -213 59 -977 68 -1158 5 -98 9 -117 28 -139 32 -37 107 -42 212 -15 75 19
741 286 871 350 128 62 155 100 87 122 -76 26 -140 9 -459 -115 -342 -134
-359 -139 -377 -117 -10 12 -13 287 -14 1376 -1 978 -5 1376 -13 1416 -18 86
-31 119 -54 135 -30 21 -139 19 -203 -3z"/>
<path d="M21333 15344 c-23 -11 -33 -24 -33 -40 0 -26 26 -43 98 -65 37 -11
42 -16 38 -33 -4 -12 -15 -70 -25 -131 -58 -330 -64 -862 -16 -1260 55 -456
170 -845 294 -1002 99 -126 320 -153 434 -53 84 74 133 194 263 639 52 179 97
334 100 344 3 9 9 17 14 17 10 0 11 -7 40 -215 63 -464 200 -915 310 -1022 85
-83 271 -84 347 -2 35 38 96 179 166 384 79 229 138 388 216 583 79 196 77
186 46 210 -50 40 -152 49 -212 20 -33 -16 -68 -99 -330 -773 -26 -66 -48
-122 -50 -124 -20 -26 -87 229 -133 502 -70 421 -78 839 -25 1380 21 215 11
197 114 197 93 0 131 14 131 49 0 42 -70 66 -254 87 -322 37 -526 10 -487 -65
10 -18 92 -51 127 -51 7 0 16 -5 19 -10 9 -15 -364 -1304 -496 -1711 -62 -195
-88 -253 -105 -236 -26 26 -101 321 -128 507 -40 268 -56 726 -37 1065 15 271
42 605 52 631 7 19 12 20 91 12 69 -7 90 -5 121 8 44 20 51 55 15 78 -70 43
-303 85 -518 92 -132 4 -160 3 -187 -12z"/>
<path d="M4715 15034 c-315 -57 -571 -204 -883 -508 -78 -76 -145 -136 -148
-133 -8 8 25 406 36 433 6 16 26 26 80 39 70 17 120 48 140 86 16 30 -20 59
-72 59 -85 0 -319 -69 -495 -146 -164 -71 -253 -129 -253 -164 0 -40 45 -49
140 -29 28 6 54 8 57 5 3 -3 -4 -86 -16 -183 -68 -564 -77 -1055 -25 -1513 18
-165 67 -466 139 -865 64 -350 69 -371 97 -386 31 -17 134 -6 194 20 71 31
104 67 112 127 l7 48 110 48 c153 67 255 131 348 218 89 83 160 183 202 287
35 85 46 227 22 284 -28 68 -112 113 -233 125 -68 7 -76 14 -43 37 11 8 86 77
166 153 591 560 933 1125 933 1538 0 228 -130 381 -359 422 -95 17 -154 16
-256 -2z m70 -190 c133 -61 198 -228 166 -420 -57 -335 -293 -733 -688 -1159
-162 -175 -457 -445 -525 -481 -27 -14 -27 -13 -32 18 -24 145 -61 796 -54
942 4 74 10 105 37 168 117 276 440 647 728 835 177 115 273 141 368 97z
m-662 -2173 c73 -72 10 -315 -115 -447 -54 -57 -157 -129 -199 -139 -26 -6
-27 -6 -38 72 -6 43 -18 149 -27 237 l-16 159 28 23 c38 31 178 101 229 113
52 13 115 5 138 -18z"/>
<path d="M14075 12216 c-138 -31 -257 -98 -369 -205 -121 -117 -193 -236 -238
-396 l-23 -80 0 -1070 0 -1070 28 -90 c92 -293 317 -498 607 -551 99 -18 178
-17 286 1 341 60 620 356 663 705 15 115 15 1980 1 2087 -41 305 -245 558
-525 650 -69 22 -101 27 -225 29 -97 2 -165 -1 -205 -10z m234 -596 c42 -12
76 -43 104 -95 l22 -40 0 -980 0 -980 -27 -56 c-36 -73 -87 -104 -174 -104
-78 0 -131 32 -165 102 l-24 48 0 980 0 980 22 40 c50 95 142 134 242 105z"/>
<path d="M15260 10495 l0 -1675 148 0 c254 0 1254 -33 1340 -45 l32 -4 0 303
0 303 -72 6 c-40 3 -224 11 -408 17 -184 6 -354 14 -377 16 l-43 5 0 1368 0
1368 -157 6 c-87 4 -227 7 -310 7 l-153 0 0 -1675z"/>
<path d="M12417 12150 c-327 -59 -555 -267 -666 -607 -63 -192 -62 -188 -59
-1263 l3 -975 28 -100 c82 -303 253 -484 511 -540 105 -23 315 -16 430 14 224
59 401 200 506 403 100 191 120 299 120 644 l0 264 -62 0 c-35 0 -162 -7 -283
-15 -121 -8 -230 -15 -242 -15 l-23 0 0 -252 c0 -139 -5 -269 -10 -289 -25
-91 -101 -149 -193 -149 -54 0 -79 10 -119 48 -60 56 -59 24 -56 1098 l3 981
30 48 c39 64 97 95 175 95 71 0 116 -27 148 -90 21 -42 22 -56 22 -267 l0
-223 38 5 c20 2 123 9 227 15 105 6 225 13 268 16 l79 6 -4 277 c-4 267 -5
279 -32 366 -80 262 -240 429 -471 491 -70 19 -295 27 -368 14z"/>
<path d="M16940 10437 l0 -1673 203 -12 c339 -21 1130 -87 1275 -107 l42 -6 0
304 0 303 -107 11 c-60 7 -243 23 -408 38 -165 14 -319 28 -342 31 l-43 5 0
1369 0 1369 -32 5 c-44 7 -481 36 -540 36 l-48 0 0 -1673z"/>
<path d="M18600 10301 l0 -1671 23 -4 c12 -3 69 -10 127 -16 316 -33 1139
-144 1378 -185 l32 -6 0 310 0 311 -22 5 c-34 7 -536 80 -735 106 l-173 23 0
404 0 404 53 -7 c28 -4 178 -24 332 -46 154 -21 288 -39 298 -39 16 0 17 19
15 303 l-3 302 -290 41 c-159 23 -316 44 -347 48 l-58 7 0 341 0 340 58 -6
c31 -4 229 -32 438 -62 210 -30 387 -54 393 -54 8 0 11 89 11 308 l0 309 -212
32 c-308 46 -675 95 -973 130 -143 17 -279 33 -302 37 l-43 5 0 -1670z"/>
<path d="M10205 11830 c-143 -22 -268 -39 -277 -40 -17 0 -18 -52 -20 -915
l-3 -916 -414 841 c-320 649 -419 840 -432 840 -16 0 -297 -51 -446 -81 l-53
-10 0 -1675 c0 -921 2 -1674 4 -1674 3 0 96 18 208 39 112 21 249 47 305 57
l103 17 2 886 3 886 29 -60 c15 -33 179 -402 363 -820 184 -418 336 -762 338
-763 2 -2 141 16 309 40 l306 43 0 1673 0 1672 -32 -1 c-18 0 -150 -18 -293
-39z"/>
<path d="M20929 11628 c0 -2 -148 -727 -328 -1613 -285 -1398 -326 -1611 -312
-1617 26 -11 570 -100 583 -96 8 3 34 112 68 284 44 221 58 279 70 277 25 -3
615 -116 618 -118 1 -1 30 -137 63 -301 34 -165 65 -303 69 -308 9 -9 582
-137 588 -131 2 1 -45 259 -103 571 -58 313 -203 1087 -321 1719 -118 633
-216 1160 -219 1171 -4 20 -30 27 -297 78 -161 31 -326 63 -367 71 -68 14
-110 18 -112 13z m478 -1470 c51 -424 92 -773 90 -774 -2 -2 -380 66 -384 70
-4 4 192 1476 197 1476 3 0 47 -347 97 -772z"/>
<path d="M8110 11451 l-265 -57 -5 -1234 c-5 -1123 -7 -1241 -23 -1298 -35
-129 -91 -209 -179 -257 -45 -25 -64 -30 -125 -30 -65 0 -74 3 -109 31 -48 38
-79 97 -101 189 -15 63 -17 191 -20 1268 -3 700 -8 1197 -13 1197 -16 0 -494
-118 -522 -129 l-28 -11 0 -1117 c0 -615 5 -1185 10 -1268 31 -509 198 -792
510 -866 82 -20 232 -15 333 10 188 47 308 113 438 238 199 192 312 430 376
797 14 79 17 250 20 1344 4 1201 3 1252 -14 1251 -10 0 -137 -26 -283 -58z"/>
<path d="M22905 11249 c-76 -11 -187 -65 -247 -118 -92 -82 -168 -222 -211
-389 l-22 -87 0 -1010 c0 -1098 -1 -1070 57 -1255 117 -369 358 -603 715 -692
128 -32 312 -32 406 0 168 59 286 202 349 427 22 78 23 94 26 682 3 571 2 602
-15 607 -50 15 -420 112 -578 152 -99 25 -188 47 -197 50 -17 5 -18 -14 -18
-305 l0 -310 43 -11 c23 -6 71 -19 107 -29 l65 -18 3 -257 c2 -236 1 -261 -17
-301 -25 -57 -67 -79 -132 -72 -92 11 -159 63 -203 157 -21 45 -21 51 -21
1040 0 924 1 997 17 1027 29 52 64 73 122 73 88 -1 163 -49 210 -135 19 -37
21 -59 26 -275 l5 -235 285 -77 c157 -43 288 -78 293 -78 11 0 9 363 -3 479
-43 413 -263 737 -600 882 -158 68 -337 98 -465 78z"/>
<path d="M6465 11074 c-282 -76 -784 -218 -1045 -296 l-275 -83 -3 -1681 -2
-1681 152 47 c84 26 219 66 301 90 l147 43 0 717 0 717 233 66 c127 36 285 80
350 98 l117 31 0 303 0 303 -131 -34 c-72 -19 -230 -63 -352 -98 l-222 -63 -3
345 c-1 190 0 347 2 349 5 5 364 107 631 178 116 31 218 58 228 61 16 5 17 29
17 315 0 170 -3 309 -7 308 -5 0 -66 -16 -138 -35z"/>
<path d="M24080 9783 c0 -615 5 -1191 10 -1279 28 -461 157 -799 394 -1039
192 -193 439 -305 673 -305 154 0 258 45 361 154 113 121 189 332 212 587 8
85 10 493 8 1304 l-3 1180 -260 87 c-143 48 -265 87 -272 87 -10 1 -13 -267
-16 -1216 -3 -1321 -1 -1271 -57 -1371 -34 -60 -74 -82 -147 -82 -148 0 -269
128 -320 336 -16 62 -17 185 -20 1290 -3 1145 -5 1222 -21 1227 -9 2 -127 37
-262 76 -135 40 -253 75 -262 77 -17 5 -18 -53 -18 -1113z"/>
<path d="M3845 10263 c-259 -93 -893 -331 -1080 -406 l-160 -64 -3 -1680 -2
-1680 287 112 288 112 5 719 5 718 180 68 c99 37 253 94 342 125 l163 58 0
303 c0 166 -2 302 -4 302 -7 0 -347 -123 -524 -189 -89 -34 -165 -61 -167 -61
-3 0 -4 156 -3 347 l3 347 130 49 c72 27 265 98 430 157 l300 108 3 311 c1
171 -1 311 -5 310 -5 -1 -89 -30 -188 -66z"/>
<path d="M25882 8659 l3 -1671 220 -78 c321 -113 601 -217 935 -347 162 -63
305 -119 318 -124 l22 -9 -2 311 -3 311 -190 76 c-104 41 -304 118 -445 172
l-255 96 -3 402 c-1 221 1 402 5 402 7 0 306 -113 601 -226 l62 -24 -2 306 -3
306 -200 77 c-110 42 -260 99 -332 126 l-133 50 0 337 c0 193 4 338 9 338 10
0 420 -155 674 -254 93 -36 173 -66 178 -66 6 0 8 124 7 307 l-3 307 -145 58
c-280 113 -1291 488 -1316 488 -2 0 -3 -752 -2 -1671z"/>
<path d="M27866 9523 c-148 -45 -253 -167 -308 -360 -20 -69 -23 -100 -23
-273 0 -215 10 -281 70 -465 70 -216 143 -346 470 -840 269 -407 295 -449 334
-541 42 -99 54 -168 49 -268 -4 -79 -7 -89 -34 -117 -40 -42 -67 -52 -115 -39
-60 16 -105 63 -148 154 -48 100 -66 172 -86 345 -9 74 -17 135 -18 136 -10 5
-267 112 -411 171 l-179 74 7 -123 c14 -254 50 -417 140 -642 169 -423 441
-694 826 -821 72 -24 102 -28 195 -28 100 0 116 2 173 28 117 54 207 179 253
351 32 120 33 361 1 503 -75 336 -252 696 -542 1102 -182 255 -263 399 -315
560 -24 71 -28 103 -29 195 -1 122 14 165 67 195 26 14 31 13 75 -11 95 -52
151 -199 160 -421 3 -77 9 -132 16 -137 9 -8 412 -192 565 -258 l34 -15 -6
129 c-7 150 -25 259 -71 438 -77 297 -191 501 -383 686 -103 99 -195 162 -326
224 -168 80 -325 104 -441 68z"/>
<path d="M1845 9514 c-198 -42 -377 -143 -535 -303 -205 -206 -356 -501 -390
-763 -7 -57 -10 -414 -8 -1118 l3 -1035 23 -70 c72 -213 221 -326 432 -327
105 0 187 20 306 77 119 56 199 111 297 204 206 197 368 487 412 739 22 125
22 2112 0 2216 -50 236 -228 388 -448 385 -40 -1 -81 -3 -92 -5z m-56 -669
c22 -19 33 -40 41 -78 7 -37 10 -346 8 -1007 l-3 -955 -23 -57 c-41 -102 -144
-181 -236 -181 -51 0 -92 42 -101 105 -3 24 -5 475 -3 1003 l3 960 26 55 c37
78 71 114 141 149 74 38 107 39 147 6z"/>
<path d="M15135 7453 c-110 -8 -216 -18 -236 -23 -91 -24 -139 -93 -84 -118
14 -7 53 -12 87 -12 70 0 67 16 25 -140 -36 -137 -48 -245 -54 -506 -13 -545
61 -1013 207 -1293 87 -166 147 -205 325 -206 100 0 115 3 170 28 150 70 209
182 466 882 61 165 153 411 205 546 52 135 94 250 94 256 0 13 28 25 34 15 2
-4 10 -134 17 -289 10 -225 10 -369 0 -725 -7 -243 -17 -451 -22 -460 -5 -9
-47 -37 -92 -62 -304 -166 -494 -388 -591 -690 -39 -122 -49 -187 -44 -294 10
-198 97 -303 277 -334 61 -10 87 -10 167 4 117 20 187 53 265 126 144 133 246
340 329 668 26 104 66 322 85 466 l6 47 72 29 c105 43 309 108 450 142 124 31
283 58 291 49 2 -2 0 -67 -6 -144 -24 -342 24 -660 133 -884 88 -179 220 -285
415 -332 118 -28 296 -23 393 11 180 64 321 211 436 454 70 147 90 206 144
415 l46 176 95 25 c52 14 125 40 163 57 57 27 67 29 67 15 0 -46 34 -302 56
-422 74 -401 165 -651 280 -767 55 -55 90 -70 187 -80 39 -4 78 0 122 11 155
43 207 142 371 716 53 184 102 341 109 349 11 11 14 6 19 -30 59 -448 115
-701 215 -969 78 -207 148 -273 291 -273 77 0 155 34 190 83 35 50 79 155 147
355 79 231 174 489 243 659 28 69 50 134 48 144 -8 46 -160 72 -225 39 -19
-10 -39 -34 -53 -64 -20 -43 -157 -390 -286 -726 -27 -70 -52 -127 -56 -127
-13 0 -25 34 -61 175 -129 503 -157 1028 -91 1710 9 88 19 166 23 174 6 9 32
14 87 15 91 1 134 21 134 60 0 44 -71 62 -303 76 -202 13 -345 2 -409 -31 -70
-36 -43 -77 65 -99 31 -6 57 -13 57 -16 0 -6 -180 -634 -312 -1089 -113 -390
-250 -831 -269 -866 -18 -35 -33 -16 -67 86 -141 421 -173 1121 -91 1970 15
158 4 145 118 145 84 0 102 3 125 21 30 24 33 40 9 62 -46 40 -278 76 -513 79
-136 2 -160 0 -195 -17 -54 -27 -56 -62 -5 -87 19 -9 44 -17 55 -18 46 -1 50
-12 31 -97 -32 -148 -47 -309 -53 -561 l-6 -253 -40 -20 c-22 -12 -80 -54
-129 -95 -49 -41 -95 -74 -102 -74 -10 0 -14 39 -19 168 -11 300 -61 545 -179
882 -113 321 -280 568 -476 699 -203 136 -482 207 -713 181 -211 -24 -341 -81
-465 -205 -70 -69 -89 -97 -132 -186 -90 -185 -126 -391 -105 -601 29 -282
123 -503 289 -676 35 -37 64 -67 64 -68 0 -1 -35 -4 -77 -8 -111 -10 -204 -29
-397 -82 -118 -32 -172 -42 -179 -35 -7 7 -7 78 1 238 22 411 24 545 13 784
-12 274 -24 390 -53 547 -11 62 -19 114 -17 115 2 2 38 16 79 32 69 28 75 32
78 61 3 30 1 32 -45 44 -103 26 -483 38 -676 21 -119 -11 -190 -41 -195 -82
-4 -31 7 -37 86 -45 81 -8 102 -13 102 -25 0 -6 -33 -88 -74 -183 -41 -94
-178 -450 -306 -790 -238 -637 -299 -789 -324 -814 -13 -13 -16 -8 -30 39 -64
227 -96 839 -65 1257 11 151 53 505 63 532 4 8 41 33 84 55 64 34 77 44 77 65
0 54 -83 60 -460 33z m3019 -237 c94 -46 209 -150 286 -262 69 -100 169 -311
219 -461 44 -134 103 -385 123 -528 17 -120 17 -502 0 -532 -11 -20 -18 -22
-60 -17 -193 23 -454 102 -617 187 -97 51 -100 53 -103 89 -2 20 13 119 33
219 33 167 35 183 20 205 -21 33 -112 58 -187 51 -90 -8 -122 -32 -182 -138
l-19 -34 -38 80 c-22 44 -51 125 -66 180 -25 93 -27 115 -27 300 0 176 3 210
22 280 52 189 153 334 275 395 58 30 67 31 152 28 80 -3 99 -8 169 -42z m-11
-1855 c117 -36 295 -76 465 -105 73 -13 134 -25 137 -27 8 -8 -26 -152 -62
-264 -43 -132 -91 -245 -146 -340 -48 -83 -171 -214 -232 -246 l-44 -24 -36
35 c-86 83 -147 212 -195 414 -35 146 -50 283 -50 463 l0 135 36 -6 c19 -4 77
-20 127 -35z m-1813 -331 c0 -41 -52 -287 -86 -404 -49 -169 -158 -386 -195
-386 -19 0 -31 88 -26 195 7 185 79 361 216 535 63 80 91 98 91 60z"/>
<path d="M10490 7329 c-19 -5 -127 -20 -240 -34 -331 -41 -485 -71 -552 -108
-20 -11 -39 -26 -42 -33 -16 -41 72 -71 160 -55 84 16 86 13 81 -93 -3 -50
-10 -459 -16 -909 l-11 -818 -37 -57 c-45 -71 -311 -622 -384 -797 -29 -71
-63 -147 -75 -169 -20 -35 -23 -37 -32 -20 -15 28 -50 247 -67 424 -35 351
-30 689 20 1385 22 300 11 270 103 285 92 14 156 40 172 69 26 49 -24 55 -211
25 -221 -36 -382 -72 -486 -109 -112 -40 -143 -59 -143 -85 0 -28 37 -34 120
-19 38 7 72 10 74 8 2 -2 -7 -76 -19 -164 -13 -88 -28 -212 -34 -275 -14 -145
-14 -627 -1 -785 42 -491 173 -966 287 -1037 58 -35 152 -31 237 11 95 46 123
91 256 406 40 94 104 244 144 334 l71 165 7 -207 c4 -114 12 -275 17 -358 6
-83 9 -155 6 -159 -3 -5 -24 -11 -48 -15 -68 -10 -103 -24 -128 -51 l-23 -24
20 -21 c28 -27 110 -26 459 5 277 24 355 41 379 78 8 14 6 22 -12 40 -21 22
-29 23 -149 20 l-126 -3 7 75 c4 41 16 110 27 152 19 72 72 204 83 204 2 0 67
-30 143 -66 140 -67 213 -100 453 -207 123 -54 143 -60 221 -64 72 -4 94 -2
132 15 55 25 72 50 52 80 -8 11 -106 67 -218 124 -273 141 -601 328 -590 338
4 5 51 27 103 50 336 145 644 446 810 791 49 102 76 223 66 291 -16 103 -103
170 -233 176 -215 12 -389 -79 -583 -303 -101 -116 -221 -285 -315 -444 -42
-72 -82 -131 -88 -131 -10 0 -9 61 14 835 6 193 9 514 7 715 l-3 365 122 21
c156 27 211 47 220 82 10 42 -25 62 -106 61 -36 -1 -82 -5 -101 -10z m704
-1489 c-10 -76 -24 -122 -64 -205 -79 -163 -203 -327 -357 -466 -76 -69 -200
-155 -209 -146 -10 10 103 228 194 373 110 178 275 396 352 468 59 54 64 57
77 40 9 -13 12 -33 7 -64z"/>
<path d="M12748 7280 c-429 -90 -752 -363 -979 -825 -119 -244 -164 -433 -156
-655 5 -152 23 -218 82 -306 72 -110 226 -194 355 -194 69 0 66 -13 -25 -89
-231 -195 -355 -427 -355 -666 0 -232 113 -345 345 -345 149 0 308 56 463 162
103 72 309 272 439 429 130 157 163 206 163 241 0 47 -36 61 -138 56 -115 -5
-157 -28 -217 -118 -119 -177 -522 -570 -586 -570 -11 0 -25 17 -38 44 -27 55
-30 210 -6 301 65 247 251 439 595 615 122 62 151 88 136 125 -3 9 -23 23 -43
32 -33 14 -53 14 -155 4 -64 -6 -166 -20 -225 -32 -187 -36 -258 -5 -329 146
-64 134 -66 281 -8 482 78 270 209 504 406 724 71 79 212 188 281 219 42 19
49 19 75 6 16 -8 45 -32 64 -54 30 -33 38 -52 48 -113 21 -124 9 -225 -44
-384 -60 -177 -137 -338 -254 -533 -51 -83 -92 -163 -92 -177 0 -34 27 -45
108 -45 134 0 204 60 377 320 131 196 261 469 307 639 28 106 30 265 3 346
-26 81 -106 164 -186 193 -118 43 -271 52 -411 22z"/>
<path d="M8275 6962 c-101 -30 -134 -62 -148 -142 -12 -63 -36 -589 -43 -905
-7 -324 5 -719 32 -1060 8 -104 26 -343 39 -530 30 -421 37 -474 66 -497 28
-24 146 -24 213 0 92 32 89 10 75 473 -14 478 -9 742 31 1644 41 922 40 962
-23 1009 -39 29 -159 33 -242 8z"/>
<path d="M9045 6910 c-92 -36 -164 -118 -165 -188 0 -38 28 -86 61 -106 47
-28 177 -27 250 2 104 41 179 128 179 207 0 51 -13 70 -60 89 -58 23 -200 21
-265 -4z"/>
<path d="M21511 4191 c-41 -11 -59 -28 -63 -61 -5 -46 14 -245 25 -258 21 -26
89 -53 150 -59 76 -7 129 12 151 55 22 42 51 193 43 224 -16 63 -205 124 -306
99z"/>
</g>
</svg>
