<?xml version="1.0" standalone="no"?>
<!DOCTYPE svg PUBLIC "-//W3C//DTD SVG 20010904//EN"
 "http://www.w3.org/TR/2001/REC-SVG-20010904/DTD/svg10.dtd">
<svg version="1.0" xmlns="http://www.w3.org/2000/svg"
 width="5000.000000pt" height="5000.000000pt" viewBox="0 0 5000.000000 5000.000000"
 preserveAspectRatio="xMidYMid meet">

<g transform="translate(0.000000,5000.000000) scale(0.100000,-0.100000)"
fill="#000000" stroke="none">
<path d="M11135 38169 c-348 -26 -699 -113 -865 -214 -168 -102 -276 -264
-316 -472 -19 -99 -18 -343 1 -483 9 -61 36 -210 61 -333 241 -1198 373 -2264
434 -3507 15 -288 23 -1345 13 -1545 l-8 -160 -96 120 c-1301 1633 -2539 3453
-3629 5335 -277 478 -372 613 -541 775 -253 242 -539 324 -979 284 -280 -25
-1653 -192 -1731 -210 -208 -48 -320 -145 -364 -314 -31 -122 -15 -257 65
-550 126 -457 178 -832 201 -1444 8 -238 5 -867 -20 -3221 -17 -1609 -35
-3033 -40 -3165 -11 -283 -23 -341 -105 -509 -30 -61 -104 -192 -166 -291
-180 -291 -227 -407 -217 -530 21 -269 443 -524 970 -586 163 -19 512 -7 687
24 183 33 373 85 520 143 345 137 539 295 619 504 23 59 25 79 25 215 0 140
-3 169 -52 420 -355 1849 -439 3737 -251 5620 23 233 68 607 73 612 2 2 63
-114 136 -259 1141 -2269 2630 -4387 4411 -6273 439 -466 611 -619 804 -715
219 -110 437 -121 627 -31 181 86 363 282 446 482 115 276 132 460 119 1244
-10 568 -2 2284 12 2775 39 1300 111 2686 172 3300 46 464 120 757 255 1020
73 139 148 242 333 454 182 208 259 307 309 395 154 275 109 521 -128 700 -89
67 -200 123 -364 186 -446 168 -944 240 -1421 204z"/>
<path d="M36337 38059 c-198 -15 -452 -64 -627 -121 -279 -89 -386 -264 -311
-508 31 -100 74 -183 198 -383 187 -300 250 -458 297 -747 42 -254 41 -186 38
-3550 -2 -1774 -7 -3310 -12 -3415 -11 -226 -29 -342 -77 -488 -41 -123 -88
-207 -226 -399 -162 -227 -219 -359 -221 -518 -1 -111 20 -173 84 -243 83 -91
206 -142 412 -173 166 -24 495 -15 768 22 177 24 239 28 460 28 343 1 524 -18
1185 -124 750 -120 1086 -151 1808 -170 553 -15 1649 6 1890 36 275 34 453
134 532 299 54 116 62 227 41 590 -51 860 -162 1959 -226 2224 -74 304 -222
467 -436 479 -98 5 -163 -11 -252 -65 -144 -88 -265 -224 -472 -534 -149 -223
-238 -336 -369 -467 -411 -411 -987 -682 -1579 -743 -166 -17 -496 -7 -646 20
-66 12 -121 23 -123 25 -6 6 167 1842 183 1941 43 268 141 443 289 516 128 63
238 60 380 -11 101 -50 174 -105 355 -270 257 -234 361 -308 502 -357 99 -35
225 -36 313 -3 208 79 356 267 416 528 36 155 35 369 -5 1232 -20 426 -43 819
-51 872 -53 355 -171 571 -358 659 -165 77 -349 32 -515 -125 -99 -95 -169
-203 -274 -429 -103 -220 -162 -323 -234 -411 -59 -71 -99 -104 -181 -145
-225 -115 -462 -60 -544 125 -48 108 -48 112 35 1274 42 591 81 1094 88 1118
15 58 62 107 118 122 68 19 470 7 635 -18 367 -57 674 -153 995 -313 200 -99
345 -190 557 -346 276 -204 391 -252 576 -240 282 18 541 254 652 592 49 149
66 287 72 560 8 364 -27 1119 -63 1363 -46 316 -171 490 -408 569 -77 26 -91
27 -281 27 l-200 0 -1350 -182 c-742 -100 -1406 -187 -1475 -193 -287 -25
-439 8 -862 190 -139 60 -310 127 -380 149 -361 115 -743 160 -1121 131z"/>
<path d="M27217 37539 c-295 -29 -529 -135 -700 -320 -120 -129 -184 -258
-194 -395 -7 -88 8 -158 54 -246 35 -67 62 -96 292 -314 103 -98 159 -170 217
-278 109 -205 167 -447 193 -801 15 -198 49 -1542 71 -2755 18 -1032 30 -2184
31 -3145 l1 -950 -22 -70 c-41 -129 -104 -237 -298 -504 -189 -261 -225 -372
-160 -498 73 -143 397 -287 753 -335 133 -17 696 -18 860 0 335 36 657 86
1135 177 393 75 451 96 543 194 83 88 117 187 117 337 0 177 -42 342 -168 661
-185 466 -302 895 -366 1345 -45 315 -51 405 -51 813 0 644 22 757 164 824
l56 26 585 6 c618 7 739 14 1087 64 830 120 1476 391 1986 833 516 447 876
1119 988 1842 40 261 37 672 -7 935 -201 1199 -1232 2216 -2454 2424 -200 34
-382 44 -669 38 -284 -6 -383 -15 -916 -77 -517 -61 -629 -70 -905 -77 -390
-9 -530 6 -1105 122 -642 129 -836 151 -1118 124z m3036 -1240 c328 -49 623
-201 862 -443 532 -539 603 -1437 171 -2167 -116 -196 -339 -449 -537 -609
-276 -222 -632 -403 -824 -417 -107 -8 -171 13 -228 77 -56 62 -82 137 -98
275 -13 116 -7 225 26 560 30 292 32 335 95 1605 28 558 55 1032 60 1052 6 21
19 42 30 48 52 28 310 39 443 19z"/>
<path d="M19600 37463 c-248 -7 -604 -44 -850 -89 -1286 -236 -2315 -876
-3219 -2004 -724 -902 -1196 -1927 -1365 -2960 -53 -326 -60 -428 -60 -840 0
-338 3 -408 22 -569 202 -1652 1132 -2950 2541 -3546 519 -220 1162 -352 1924
-396 238 -13 1073 -7 1332 10 937 63 1519 145 2085 293 1534 400 2506 1237
3015 2593 175 466 276 947 327 1550 15 184 15 749 -1 945 -79 999 -340 1946
-722 2623 -79 139 -247 389 -346 512 -356 444 -882 849 -1512 1164 -738 370
-1535 601 -2361 686 -147 15 -588 37 -670 33 -25 -1 -88 -3 -140 -5z m-74
-1483 c616 -52 955 -116 1273 -240 822 -320 1316 -1048 1565 -2305 82 -414
159 -1006 208 -1610 16 -201 16 -775 0 -935 -49 -482 -142 -831 -317 -1186
-279 -567 -695 -959 -1201 -1134 -356 -123 -756 -142 -1304 -64 -975 139
-1663 427 -2149 899 -219 213 -366 415 -501 690 -96 196 -159 367 -215 590
-175 688 -175 1521 0 2306 162 724 478 1421 910 2004 297 401 710 807 935 920
76 38 151 63 218 75 87 14 338 10 578 -10z"/>
<path d="M44838 30544 c-290 -45 -620 -172 -847 -327 -169 -114 -337 -315
-431 -512 -117 -247 -173 -601 -137 -865 9 -63 19 -150 22 -194 19 -242 104
-556 208 -762 70 -138 186 -263 376 -403 209 -154 526 -311 734 -362 226 -55
713 -22 987 67 128 42 287 118 383 181 86 57 326 288 401 387 109 141 177 294
240 537 85 327 94 535 36 818 -54 255 -269 641 -469 841 -92 92 -308 252 -485
360 -114 69 -295 156 -386 184 -195 62 -436 81 -632 50z"/>
<path d="M34724 26036 c-117 -27 -219 -100 -250 -181 -22 -59 -9 -95 67 -182
181 -203 203 -414 139 -1302 -50 -677 -45 -997 21 -1368 28 -152 24 -164 -75
-237 -184 -137 -266 -281 -266 -470 0 -110 18 -179 63 -238 117 -154 410 -142
660 26 97 65 124 69 207 30 217 -103 419 -134 649 -100 152 23 250 55 406 132
337 166 643 482 830 855 188 373 240 767 150 1137 -82 339 -269 631 -524 821
-346 256 -826 320 -1200 158 l-76 -33 0 271 c-1 490 -29 551 -285 627 -199 58
-403 80 -516 54z m1534 -1620 c57 -39 97 -103 132 -212 127 -398 112 -825 -45
-1213 -54 -134 -98 -209 -170 -288 -106 -117 -257 -167 -391 -129 -145 42
-233 148 -269 326 -19 97 -85 747 -85 842 1 228 90 368 354 556 157 112 259
154 362 150 59 -3 78 -8 112 -32z"/>
<path d="M24295 25990 c-185 -26 -295 -110 -385 -293 -134 -274 -68 -484 194
-612 142 -70 224 -88 396 -89 128 0 152 3 202 23 127 50 247 220 306 436 22
80 22 256 0 306 -23 53 -75 107 -127 134 -119 60 -451 114 -586 95z"/>
<path d="M3745 25870 c-183 -20 -365 -90 -436 -168 -40 -43 -41 -46 -37 -100
5 -52 8 -58 64 -110 138 -127 161 -152 187 -205 42 -87 57 -168 67 -372 14
-263 13 -2082 0 -2212 -11 -110 -32 -195 -74 -312 -84 -231 -30 -310 256 -368
293 -59 737 -38 872 41 64 37 90 96 83 184 -6 82 -20 124 -102 300 -246 531
-302 1054 -220 2052 40 480 63 562 201 727 90 107 116 158 116 222 0 131 -113
236 -297 276 -172 37 -535 61 -680 45z"/>
<path d="M43814 25689 c-126 -16 -195 -77 -202 -180 -4 -57 -3 -61 30 -92 19
-17 62 -43 96 -56 60 -23 103 -58 116 -96 15 -39 36 -274 47 -515 8 -186 8
-394 -1 -865 -13 -639 -10 -1126 10 -1322 15 -148 14 -149 -110 -183 -99 -27
-168 -147 -141 -247 13 -49 43 -76 109 -97 244 -81 653 -88 888 -15 52 16 77
31 114 68 98 98 111 237 46 501 -34 138 -38 166 -34 250 3 73 9 105 26 137 51
97 126 153 206 153 53 0 48 13 71 -175 25 -208 81 -523 109 -611 51 -159 152
-273 310 -348 112 -54 184 -73 312 -86 225 -21 379 34 534 190 131 133 195
260 207 409 12 162 -68 333 -190 404 -136 80 -315 76 -481 -10 -79 -42 -239
-192 -291 -275 -17 -27 -33 -48 -36 -48 -8 0 -190 720 -196 774 -5 37 -1 47
27 79 18 21 251 219 519 441 267 222 498 420 513 439 53 68 73 118 73 182 0
79 -32 137 -90 165 -51 25 -60 25 -181 -1 -144 -31 -326 -31 -514 0 -159 26
-221 22 -287 -19 -71 -43 -93 -152 -49 -245 26 -56 107 -137 179 -179 26 -15
47 -31 47 -35 0 -11 -205 -192 -311 -275 -146 -114 -313 -222 -536 -347 l-31
-17 -8 116 c-8 136 1 653 16 892 14 204 44 513 71 725 27 214 17 275 -53 328
-64 49 -115 57 -413 72 -442 22 -457 22 -521 14z"/>
<path d="M18719 25004 c-257 -46 -492 -169 -677 -355 -180 -181 -297 -395
-359 -659 -25 -106 -25 -353 0 -470 58 -270 158 -445 377 -660 79 -78 141
-146 144 -160 3 -14 12 -57 20 -96 21 -102 58 -168 140 -250 104 -102 243
-169 466 -225 203 -50 310 -98 368 -165 83 -94 76 -149 -29 -229 -122 -92
-250 -135 -404 -135 -143 0 -275 40 -310 94 -9 13 -22 63 -30 112 -26 156 -70
266 -151 373 -105 139 -277 226 -413 206 -196 -27 -351 -262 -351 -531 0 -231
99 -383 325 -497 81 -41 423 -181 539 -221 427 -147 981 -97 1461 133 152 73
244 132 329 212 150 140 219 299 220 504 0 121 -14 185 -64 290 -81 169 -227
294 -415 357 -109 36 -283 33 -529 -11 -161 -28 -207 -32 -305 -29 -156 5
-205 31 -178 95 12 27 39 38 157 62 120 25 163 40 270 97 107 57 169 105 263
203 241 252 354 593 331 996 -10 190 -11 273 -1 307 11 41 61 93 122 128 108
62 145 141 91 195 -45 45 -93 43 -268 -10 -83 -25 -112 -16 -199 61 -177 157
-347 241 -567 279 -103 18 -271 18 -373 -1z m196 -753 c53 -24 126 -104 165
-181 155 -306 43 -733 -226 -866 -118 -59 -224 -60 -290 -2 -77 68 -117 194
-117 373 -1 135 13 231 50 355 34 114 65 173 125 236 91 97 199 128 293 85z"/>
<path d="M30139 25004 c-257 -46 -492 -169 -677 -355 -388 -390 -490 -963
-254 -1434 65 -130 131 -217 267 -350 73 -71 137 -139 143 -150 5 -11 15 -51
21 -90 18 -105 62 -188 146 -271 103 -102 242 -169 465 -225 203 -50 310 -98
368 -165 83 -94 76 -149 -29 -229 -122 -92 -250 -135 -404 -135 -143 0 -275
40 -310 94 -9 13 -22 63 -30 112 -26 156 -70 266 -151 373 -105 139 -277 226
-413 206 -196 -27 -351 -262 -351 -531 0 -231 99 -383 325 -497 81 -41 423
-181 539 -221 426 -147 981 -96 1461 133 152 73 244 132 329 212 150 140 219
299 220 504 0 121 -14 185 -64 290 -81 169 -227 294 -415 357 -109 36 -283 33
-529 -11 -161 -28 -207 -32 -305 -29 -154 5 -204 31 -180 94 9 27 38 38 179
68 199 44 362 138 512 294 163 171 265 377 314 637 18 94 23 289 14 535 -4
104 -2 130 12 155 21 39 62 76 120 109 102 59 137 138 84 191 -45 45 -93 43
-268 -10 -83 -25 -112 -16 -199 61 -177 157 -347 241 -567 279 -103 18 -271
18 -373 -1z m196 -753 c92 -42 187 -188 221 -339 35 -159 4 -367 -77 -509 -95
-167 -273 -267 -424 -239 -113 22 -188 184 -188 411 -1 135 13 231 50 355 34
114 65 173 125 236 91 97 199 128 293 85z"/>
<path d="M27229 24980 c-98 -12 -212 -46 -308 -91 -142 -66 -245 -143 -399
-295 l-142 -142 -46 68 c-125 187 -315 305 -509 317 -220 14 -455 -134 -455
-287 0 -58 18 -82 129 -180 169 -148 214 -267 260 -680 36 -321 42 -426 48
-790 7 -435 12 -411 -111 -471 -102 -50 -150 -88 -176 -140 -53 -102 2 -211
130 -259 49 -18 354 -25 480 -10 269 31 443 124 480 255 21 73 7 154 -54 335
-104 303 -137 464 -137 669 1 291 76 485 261 672 77 78 109 103 170 132 90 43
152 58 245 60 177 3 263 -74 320 -283 59 -219 83 -437 92 -825 5 -222 3 -272
-11 -345 -31 -153 -78 -227 -201 -314 -71 -52 -96 -93 -97 -165 0 -93 62 -185
154 -228 77 -37 156 -46 326 -40 228 8 421 43 637 114 180 59 228 89 260 165
43 105 0 208 -163 393 -75 84 -127 185 -146 280 -9 45 -16 179 -20 380 -14
746 -105 1183 -298 1430 -94 120 -269 230 -413 259 -94 20 -225 26 -306 16z"/>
<path d="M21780 24934 c-580 -88 -1051 -472 -1224 -999 -53 -164 -67 -249 -73
-450 -5 -164 -2 -207 16 -314 72 -420 306 -775 641 -971 224 -131 522 -195
791 -170 381 35 727 206 1013 500 331 341 501 795 457 1223 -22 215 -81 438
-155 585 -150 298 -536 534 -981 597 -125 18 -360 18 -485 -1z m190 -619 c176
-37 313 -109 430 -225 146 -145 200 -283 201 -510 0 -142 -22 -278 -71 -430
-81 -249 -206 -384 -402 -434 -157 -40 -435 -45 -563 -11 -151 42 -288 149
-357 280 -71 138 -100 271 -99 467 1 321 74 574 208 718 88 95 191 139 388
164 48 6 194 -5 265 -19z"/>
<path d="M10575 24857 c-28 -13 -65 -40 -83 -61 -82 -93 -84 -179 -13 -409
115 -370 155 -644 167 -1132 3 -143 2 -354 -4 -470 -10 -240 -12 -246 -105
-352 -64 -72 -81 -116 -75 -185 7 -65 46 -113 130 -155 91 -46 265 -65 618
-67 257 -1 267 0 315 22 87 40 135 101 135 173 0 20 -21 72 -54 133 -146 274
-187 487 -186 956 0 287 9 380 38 419 10 15 58 52 106 84 50 33 147 116 226
192 181 174 284 240 378 240 39 0 48 -5 82 -42 69 -78 127 -266 150 -488 29
-280 41 -844 21 -965 -23 -137 -68 -207 -208 -321 -145 -119 -162 -251 -47
-378 106 -118 261 -145 527 -90 200 40 478 152 544 219 79 79 70 174 -37 389
-118 236 -160 441 -176 852 -7 205 -3 232 47 295 76 96 310 271 454 340 145
70 201 39 282 -156 99 -236 130 -445 120 -810 -7 -249 -21 -339 -63 -404 -15
-23 -84 -97 -155 -166 -152 -149 -184 -203 -177 -300 5 -71 34 -119 98 -159
82 -53 137 -63 349 -69 445 -10 734 52 890 192 46 40 81 107 81 152 0 60 -8
77 -90 184 -87 116 -133 209 -165 335 -43 170 -48 248 -40 680 4 278 3 432 -5
504 -27 243 -99 424 -221 555 -156 167 -326 244 -564 253 -113 5 -142 2 -220
-17 -259 -64 -482 -249 -606 -499 l-37 -74 -21 48 c-81 183 -270 335 -501 401
-100 28 -309 26 -415 -4 -214 -62 -415 -195 -559 -370 l-59 -73 -27 79 c-48
143 -141 273 -267 373 -138 110 -264 159 -423 166 -95 4 -110 2 -155 -20z"/>
<path d="M41955 24839 c-588 -69 -1100 -566 -1211 -1174 -20 -113 -15 -400 11
-515 66 -298 214 -575 424 -793 129 -133 234 -213 366 -278 245 -120 498 -137
870 -58 391 82 574 179 656 345 26 52 32 79 36 151 5 90 -12 225 -42 329 -29
101 -116 143 -228 110 -56 -16 -113 -56 -222 -154 -108 -98 -192 -132 -339
-139 -130 -7 -190 5 -301 56 -150 70 -260 184 -346 356 -72 144 -99 251 -106
412 -13 289 67 506 244 663 146 130 345 146 450 37 53 -54 82 -115 123 -251
57 -193 103 -273 185 -322 62 -36 100 -45 187 -45 284 1 543 265 565 576 11
160 -35 284 -146 394 -136 135 -324 215 -641 270 -214 37 -390 47 -535 30z"/>
<path d="M24220 24815 c-422 -55 -470 -76 -470 -200 0 -94 51 -153 188 -218
116 -54 114 -49 114 -347 0 -129 -6 -318 -13 -420 -7 -102 -13 -322 -13 -490
1 -346 14 -452 79 -647 85 -255 240 -412 460 -468 183 -46 390 35 456 178 41
92 16 154 -121 289 -165 164 -208 279 -231 632 -22 341 0 686 72 1130 32 198
34 245 18 329 -26 128 -110 223 -219 246 -69 15 -117 13 -320 -14z"/>
<path d="M8520 24764 c-187 -21 -332 -60 -462 -125 -318 -159 -537 -451 -515
-686 12 -123 77 -217 186 -271 47 -23 69 -27 136 -27 72 0 86 3 143 34 104 57
151 127 178 270 20 102 45 150 95 183 56 37 131 52 228 46 193 -11 338 -144
372 -341 17 -103 8 -117 -78 -117 -267 0 -632 -70 -848 -161 -326 -139 -571
-403 -645 -694 -23 -89 -28 -253 -11 -341 50 -258 247 -433 556 -495 98 -19
327 -17 443 4 135 25 303 84 416 147 73 41 127 81 203 152 57 54 114 100 127
104 37 9 60 -9 122 -94 176 -241 376 -365 589 -366 199 -1 371 96 448 253 28
58 32 75 32 146 -1 65 -6 91 -28 138 -37 80 -95 147 -159 183 -48 26 -62 29
-151 30 -71 0 -102 4 -112 15 -29 29 -37 120 -45 539 -10 536 -23 620 -133
834 -166 324 -474 560 -809 620 -91 16 -223 26 -278 20z m494 -1501 c4 -27 9
-55 12 -64 4 -13 -65 -55 -308 -187 -325 -176 -442 -232 -487 -232 -14 0 -79
7 -144 17 -132 18 -130 15 -81 99 32 57 60 78 242 188 133 80 172 98 252 119
52 14 148 39 212 56 114 31 202 47 264 50 30 1 32 -1 38 -46z"/>
<path d="M38788 24760 c-271 -25 -517 -134 -707 -315 -165 -156 -252 -338
-238 -492 12 -123 77 -217 186 -271 47 -23 69 -27 136 -27 72 1 87 4 143 35
104 55 151 126 178 269 20 102 45 150 95 183 56 37 131 52 228 46 193 -11 338
-144 372 -341 17 -103 8 -117 -78 -117 -267 0 -632 -70 -848 -161 -326 -139
-571 -403 -645 -694 -23 -89 -28 -254 -11 -341 51 -259 247 -433 556 -495 98
-19 327 -17 443 4 248 46 452 144 618 299 58 54 116 101 129 104 36 9 60 -10
121 -94 176 -241 376 -365 589 -366 199 -1 371 96 448 253 28 58 32 75 32 146
-1 65 -6 91 -28 138 -37 80 -95 147 -159 183 -48 26 -62 29 -151 30 -71 0
-102 4 -112 15 -29 29 -37 120 -45 539 -10 536 -23 620 -133 834 -219 427
-659 678 -1119 636z m526 -1497 c4 -27 9 -55 12 -65 4 -13 -63 -53 -308 -186
-325 -177 -442 -232 -487 -232 -14 0 -79 7 -144 17 -132 18 -130 15 -81 99 32
57 60 78 242 188 133 80 172 98 252 119 52 14 148 39 212 56 114 31 202 47
264 50 30 1 32 -1 38 -46z"/>
<path d="M11184 20706 c-117 -27 -219 -100 -250 -181 -22 -59 -9 -95 67 -182
181 -203 203 -414 139 -1302 -50 -677 -45 -997 21 -1368 28 -152 24 -164 -75
-237 -187 -139 -266 -281 -266 -477 0 -160 47 -252 156 -305 145 -71 373 -30
567 100 97 65 124 69 207 30 217 -103 419 -134 649 -100 152 23 250 55 406
132 502 248 899 792 1001 1369 96 547 -125 1132 -545 1444 -346 256 -826 320
-1200 158 l-76 -33 0 271 c-1 490 -29 551 -285 627 -199 58 -403 80 -516 54z
m1534 -1620 c57 -39 97 -103 132 -212 127 -398 112 -825 -45 -1213 -54 -134
-98 -209 -170 -288 -106 -117 -257 -167 -391 -129 -145 42 -233 148 -269 326
-19 97 -85 748 -85 843 1 227 90 367 354 555 157 112 259 154 362 150 59 -3
78 -8 112 -32z"/>
<path d="M18795 20630 c-87 -22 -164 -85 -201 -165 -43 -91 -32 -138 56 -229
33 -34 68 -82 79 -107 27 -60 59 -199 76 -329 15 -112 20 -445 7 -454 -4 -2
-44 27 -87 66 -153 134 -282 216 -390 247 -226 64 -500 3 -773 -173 -363 -233
-637 -627 -753 -1079 -71 -278 -65 -652 14 -882 141 -408 480 -729 885 -835
328 -87 679 -13 1098 231 55 33 111 59 124 59 15 0 54 -31 120 -97 109 -111
188 -161 305 -199 292 -95 609 18 781 278 71 107 89 164 89 293 0 94 -3 116
-22 151 -34 63 -66 97 -125 129 -50 29 -59 30 -173 30 -107 0 -129 -3 -198
-28 -43 -16 -80 -27 -82 -25 -6 7 -46 401 -56 563 -15 213 -5 795 15 995 8 80
29 264 46 410 87 743 43 1024 -175 1121 -44 20 -75 23 -250 30 -248 10 -371 9
-410 -1z m-305 -1546 c219 -57 315 -158 342 -356 16 -125 -4 -743 -27 -818
-49 -157 -158 -248 -418 -344 -160 -60 -256 -79 -377 -74 -94 3 -112 7 -175
38 -131 63 -251 210 -312 385 -26 74 -28 92 -28 230 0 127 4 162 23 230 94
325 376 650 623 720 69 19 257 14 349 -11z"/>
<path d="M3965 20486 c-101 -26 -154 -59 -200 -125 -36 -53 -50 -102 -90 -335
-66 -385 -104 -721 -134 -1181 -21 -315 -28 -343 -99 -389 -53 -35 -99 -45
-255 -55 -159 -11 -213 -30 -252 -90 -35 -53 -40 -90 -16 -128 40 -64 164
-105 421 -138 200 -26 227 -47 216 -173 -16 -194 -18 -285 -7 -363 57 -387
328 -696 701 -798 155 -42 358 -45 505 -6 160 42 249 131 216 217 -6 15 -51
57 -108 101 -249 189 -414 446 -469 735 -27 142 -16 189 55 220 28 12 87 17
266 22 226 5 231 6 292 34 78 35 147 106 163 166 24 89 -23 169 -130 219 -52
25 -62 26 -185 22 -280 -9 -328 -7 -362 13 -62 38 -68 95 -33 291 52 293 84
595 100 950 12 249 6 571 -12 640 -14 56 -71 110 -138 129 -126 36 -346 47
-445 22z"/>
<path d="M6640 19604 c-580 -88 -1051 -472 -1224 -999 -53 -164 -67 -249 -73
-450 -4 -163 -2 -207 15 -310 37 -216 118 -421 235 -594 57 -84 192 -230 270
-290 256 -196 598 -292 931 -261 380 36 725 207 1010 500 331 341 501 795 457
1223 -22 215 -81 438 -155 585 -150 298 -536 534 -981 597 -125 18 -360 18
-485 -1z m190 -619 c176 -37 313 -109 430 -225 146 -145 200 -283 201 -510 0
-142 -22 -278 -71 -430 -81 -249 -206 -384 -402 -434 -157 -40 -435 -45 -563
-11 -151 42 -288 149 -357 280 -71 138 -100 271 -99 467 1 321 74 574 208 718
88 95 191 139 388 164 48 6 194 -5 265 -19z"/>
<path d="M15319 19450 c-387 -66 -711 -333 -928 -766 -88 -176 -175 -425 -206
-584 -80 -424 147 -1038 451 -1216 100 -59 387 -154 582 -194 296 -59 609 -54
848 16 127 37 206 79 268 144 83 87 90 122 83 390 -11 397 -43 480 -184 480
-106 0 -180 -45 -348 -216 -173 -175 -255 -222 -409 -232 -137 -8 -255 32
-352 121 -92 84 -153 206 -157 314 -2 45 2 56 26 80 31 32 -19 29 472 23 246
-2 349 5 580 42 162 25 223 47 268 97 56 63 62 92 61 316 0 159 -5 228 -23
335 -80 474 -320 767 -694 844 -80 17 -256 20 -338 6z m111 -665 c110 -8 217
-32 254 -58 46 -33 89 -136 94 -229 l5 -78 -44 -44 c-75 -74 -130 -89 -352
-94 -302 -7 -462 23 -477 88 -15 63 46 217 128 324 58 77 81 89 175 96 45 3
93 5 107 4 14 -2 63 -6 110 -9z"/>
<path d="M20715 17761 c-96 -19 -128 -32 -215 -91 -108 -74 -135 -115 -170
-263 -24 -100 -26 -227 -4 -310 24 -92 96 -229 138 -261 51 -39 152 -84 216
-97 67 -13 280 -13 372 0 51 7 81 18 124 47 139 92 241 234 264 365 l11 66
-76 169 c-84 189 -65 167 -236 265 -94 54 -275 129 -307 128 -15 -1 -67 -9
-117 -18z"/>
</g>
</svg>
