<?xml version="1.0" standalone="no"?>
<!DOCTYPE svg PUBLIC "-//W3C//DTD SVG 20010904//EN"
 "http://www.w3.org/TR/2001/REC-SVG-20010904/DTD/svg10.dtd">
<svg version="1.0" xmlns="http://www.w3.org/2000/svg"
 width="3000.000000pt" height="3000.000000pt" viewBox="0 0 3000.000000 3000.000000"
 preserveAspectRatio="xMidYMid meet">

<g transform="translate(0.000000,3000.000000) scale(0.100000,-0.100000)"
fill="#000000" stroke="none">
<path d="M14450 27924 c-30 -8 -79 -26 -109 -40 -50 -22 -75 -25 -335 -39
-781 -42 -1076 -98 -1436 -271 -333 -161 -531 -350 -665 -638 -65 -139 -87
-227 -86 -349 0 -160 43 -287 133 -393 218 -259 592 -256 884 9 62 57 159 174
168 205 11 35 -12 90 -44 107 -65 33 -81 24 -198 -113 -63 -73 -171 -152 -251
-184 -81 -31 -217 -31 -283 1 -154 75 -245 251 -218 424 28 185 166 423 323
560 138 121 336 228 558 302 246 81 516 120 1043 149 l89 5 -24 -27 c-14 -15
-49 -54 -80 -87 -168 -183 -299 -379 -708 -1055 -539 -891 -711 -1139 -966
-1394 -257 -257 -453 -355 -682 -344 -198 11 -306 90 -365 268 -18 55 -22 90
-22 230 -1 91 -5 171 -10 179 -5 7 -24 19 -42 27 -46 19 -95 -1 -120 -48 -26
-47 -26 -304 -1 -398 62 -236 212 -386 435 -436 99 -22 286 -15 387 15 100 29
240 101 337 173 106 78 352 323 455 453 150 191 377 542 731 1130 325 540 529
854 659 1016 85 106 204 223 277 274 49 34 68 40 131 46 110 11 183 35 222 74
29 29 33 40 33 83 0 44 -4 54 -31 76 -36 31 -99 34 -189 10z"/>
<path d="M18905 27416 c-26 -11 -57 -65 -235 -414 l-205 -402 -157 0 c-154 0
-157 0 -187 -26 -26 -21 -31 -33 -31 -67 1 -78 33 -97 170 -97 56 0 100 -4 98
-8 -20 -49 -469 -908 -491 -941 -68 -100 -362 -429 -373 -418 -2 2 3 37 11 78
9 43 19 184 25 334 5 143 12 296 15 340 12 167 58 294 130 361 39 36 45 47 45
82 0 29 -7 46 -25 65 -32 31 -56 36 -140 26 -150 -18 -240 -103 -409 -385 -49
-82 -131 -213 -183 -292 -51 -79 -93 -149 -93 -156 0 -15 -106 -157 -214 -286
-108 -130 -303 -321 -385 -379 -78 -54 -166 -87 -202 -76 -19 6 -20 12 -14 62
4 30 15 78 24 106 18 50 432 860 531 1037 136 243 154 304 106 349 -26 24 -88
31 -122 13 -11 -6 -59 -88 -108 -184 -294 -572 -726 -1163 -960 -1313 -120
-76 -243 -97 -291 -48 -22 22 -19 102 8 175 13 35 161 330 330 657 335 648
336 650 283 700 -31 30 -100 31 -128 4 -24 -24 -621 -1175 -659 -1271 -103
-257 -29 -441 191 -475 162 -25 329 49 524 233 l85 81 -6 -50 c-12 -100 35
-204 108 -242 150 -76 359 5 584 228 168 166 515 592 515 631 0 7 17 39 38 70
21 31 87 139 147 239 60 101 111 181 113 179 2 -3 -1 -37 -8 -78 -6 -40 -15
-183 -20 -318 -19 -514 -73 -694 -230 -763 -62 -28 -170 -29 -199 -3 -29 26
-27 71 4 101 13 14 31 25 39 25 26 0 56 50 56 92 0 143 -213 101 -286 -57 -28
-58 -32 -156 -10 -209 21 -50 85 -117 133 -138 102 -45 270 -29 418 41 73 35
190 114 294 199 l41 34 0 -59 c0 -78 15 -127 52 -169 49 -56 82 -68 178 -68
94 0 158 21 267 85 120 72 397 366 604 643 108 143 114 154 105 200 -9 45 -45
71 -98 70 -48 -2 -55 -8 -134 -120 -146 -211 -392 -485 -527 -588 -88 -67
-175 -108 -219 -104 -31 3 -33 6 -36 43 -2 22 6 67 16 100 11 33 188 386 394
785 l375 725 155 5 c134 4 159 8 177 24 46 42 31 135 -25 156 -14 6 -66 10
-115 10 -49 0 -89 2 -89 5 0 2 82 162 181 355 127 245 182 361 181 383 -2 60
-76 100 -137 73z"/>
<path d="M15250 26751 c-52 -27 -80 -74 -80 -135 0 -94 62 -156 155 -156 93 0
155 62 155 156 0 88 -67 154 -155 154 -22 0 -56 -8 -75 -19z"/>
<path d="M15154 26332 c-12 -2 -31 -13 -43 -26 -11 -12 -178 -332 -369 -712
-374 -739 -497 -967 -627 -1164 -109 -164 -193 -267 -304 -373 -153 -145 -295
-214 -466 -224 -112 -7 -167 7 -213 53 -34 34 -34 35 -30 107 5 85 26 134 83
193 38 39 63 51 148 69 57 12 89 72 67 126 -42 101 -235 64 -364 -71 -164
-172 -179 -433 -32 -568 90 -83 175 -107 345 -99 138 7 206 24 326 82 115 55
195 117 321 246 177 183 312 384 540 804 172 317 725 1419 731 1455 8 58 -51
112 -113 102z"/>
<path d="M10870 24064 c-268 -32 -537 -129 -725 -262 -138 -97 -275 -255 -350
-402 -81 -161 -115 -328 -115 -565 0 -409 111 -671 407 -955 163 -157 392
-312 748 -505 541 -293 777 -466 948 -694 85 -114 137 -221 174 -357 25 -92
27 -114 27 -309 0 -234 -13 -332 -65 -490 -98 -295 -331 -547 -611 -660 -385
-156 -822 -113 -1174 116 -162 106 -327 306 -393 479 -58 151 -66 196 -66 415
1 222 11 284 68 405 43 93 166 214 267 264 169 82 361 86 512 10 66 -34 147
-115 177 -179 43 -91 39 -248 -9 -361 -25 -57 -99 -130 -174 -170 l-58 -31 34
-19 c45 -27 153 -71 207 -85 62 -15 195 -13 263 5 204 54 383 231 439 431 22
80 17 310 -10 410 -93 347 -393 596 -811 671 -134 24 -363 22 -496 -4 -335
-67 -619 -247 -792 -504 -139 -206 -199 -411 -209 -713 -14 -424 77 -781 278
-1085 83 -125 282 -324 403 -404 240 -158 512 -259 811 -301 144 -21 425 -21
571 0 475 67 895 277 1182 591 149 163 283 383 351 578 70 197 109 496 96 736
-15 318 -61 521 -164 735 -138 287 -300 481 -577 691 -225 171 -305 220 -807
488 -191 103 -384 208 -427 235 -180 112 -340 255 -404 360 -107 176 -124 414
-41 586 65 135 233 262 410 310 95 26 277 31 369 11 182 -41 320 -148 396
-308 74 -157 73 -304 -6 -578 l-7 -24 39 29 c22 17 187 142 367 279 372 284
337 237 289 391 -113 365 -432 625 -881 716 -93 19 -376 33 -461 23z"/>
<path d="M14785 23804 c-310 -36 -554 -122 -783 -276 -380 -254 -635 -632
-724 -1070 l-23 -113 0 -1250 0 -1250 23 -113 c64 -316 203 -583 426 -819 246
-260 524 -416 888 -497 205 -46 408 -54 678 -25 369 40 675 174 896 394 213
211 332 472 384 845 6 41 15 159 20 262 7 154 12 194 29 233 12 26 21 49 21
51 0 2 -199 4 -441 4 l-441 0 6 -22 c38 -133 39 -140 33 -353 -9 -308 -40
-408 -163 -530 -133 -133 -362 -205 -642 -205 -240 1 -401 64 -570 225 -189
180 -281 374 -303 645 -7 80 -9 525 -6 1250 3 1028 5 1131 21 1199 47 198 138
365 270 495 186 184 412 262 686 236 385 -36 619 -197 685 -472 10 -39 18
-140 22 -268 6 -202 0 -259 -32 -342 -7 -17 18 -18 434 -18 243 0 441 2 441 3
0 2 -7 17 -15 34 -23 47 -35 126 -35 238 0 270 -53 533 -147 733 -114 242
-338 470 -582 592 -169 84 -400 150 -616 175 -115 13 -358 18 -440 9z"/>
<path d="M2485 23780 c-93 -4 -314 -11 -491 -15 l-320 -8 33 -81 c37 -94 59
-173 73 -271 14 -99 14 -4368 0 -4505 -13 -124 -45 -225 -109 -347 l-48 -93
559 0 558 0 -25 40 c-33 53 -88 187 -117 285 -22 80 -23 84 -26 756 l-3 677
288 6 c158 3 308 8 333 11 l45 6 54 -98 c30 -54 105 -190 168 -303 257 -459
531 -1009 548 -1101 5 -29 -17 -168 -41 -256 l-6 -23 577 0 c317 0 575 3 573
8 -1 4 -174 293 -384 642 -510 850 -784 1323 -784 1352 0 4 37 31 83 61 284
186 493 426 643 742 206 433 237 901 89 1342 -200 597 -739 1026 -1437 1142
-238 40 -436 47 -833 31z m700 -720 c257 -29 448 -121 615 -296 288 -301 366
-763 201 -1189 -133 -344 -429 -583 -807 -650 -58 -11 -181 -18 -356 -22
l-268 -6 0 695 c0 382 3 871 7 1086 l6 392 256 0 c141 0 297 -5 346 -10z"/>
<path d="M5605 23763 c4 -10 30 -78 57 -151 85 -231 80 -100 85 -2067 5 -1858
-4 -2609 -31 -2728 -8 -38 -40 -131 -71 -207 -30 -76 -55 -141 -55 -144 0 -3
682 -6 1515 -6 l1515 0 0 430 c0 270 -4 430 -10 430 -5 0 -65 -22 -132 -50
-134 -54 -206 -74 -313 -90 -42 -6 -386 -10 -852 -10 l-783 0 0 870 0 870 614
0 c790 0 846 -5 1093 -106 72 -30 134 -54 137 -54 3 0 6 213 6 474 l0 474 -82
-34 c-117 -50 -261 -91 -382 -109 -85 -12 -218 -15 -745 -15 l-641 0 0 770 0
770 493 -1 c270 0 641 -4 822 -9 384 -10 439 -19 637 -99 69 -28 129 -51 132
-51 3 0 6 194 6 430 l0 430 -1511 0 c-1435 0 -1511 -1 -1504 -17z"/>
<path d="M17090 23770 c0 -5 20 -55 45 -111 25 -55 56 -137 68 -182 l21 -82 6
-1775 6 -1775 22 -111 c45 -227 128 -427 257 -619 242 -360 577 -602 995 -718
411 -115 841 -76 1215 109 163 80 287 169 432 308 338 325 499 656 533 1099 6
81 10 768 10 1774 0 1783 -3 1677 55 1863 15 47 40 114 56 149 16 35 29 68 29
72 0 5 -261 9 -580 9 -319 0 -580 -2 -580 -5 0 -2 23 -57 51 -121 29 -66 61
-163 75 -223 l24 -106 0 -1725 c0 -1643 -1 -1729 -19 -1815 -23 -111 -59 -206
-120 -310 -61 -105 -229 -276 -326 -333 -195 -114 -439 -138 -655 -66 -284 95
-517 371 -593 699 -21 89 -21 108 -25 1775 -3 1525 -1 1694 13 1785 17 104 56
237 106 363 16 40 29 75 29 77 0 3 -259 5 -575 5 -374 0 -575 -3 -575 -10z"/>
<path d="M21335 23763 c4 -10 30 -78 57 -151 85 -231 80 -100 85 -2067 5
-1858 -4 -2609 -31 -2728 -8 -38 -40 -131 -71 -207 -30 -76 -55 -141 -55 -144
0 -3 682 -6 1515 -6 l1515 0 0 430 c0 270 -4 430 -10 430 -5 0 -65 -22 -132
-50 -134 -54 -206 -74 -313 -90 -42 -6 -386 -10 -852 -10 l-783 0 0 870 0 870
614 0 c790 0 846 -5 1093 -106 72 -30 134 -54 137 -54 3 0 6 213 6 473 l0 474
-107 -43 c-130 -52 -267 -88 -388 -103 -57 -7 -325 -11 -722 -11 l-633 0 0
772 0 771 763 -6 c430 -4 803 -11 857 -17 126 -15 190 -32 336 -91 67 -27 125
-49 128 -49 3 0 6 194 6 430 l0 430 -1511 0 c-1435 0 -1511 -1 -1504 -17z"/>
<path d="M24865 23738 c4 -13 25 -68 46 -123 81 -211 74 35 74 -2500 0 -2552
8 -2303 -81 -2528 -24 -62 -44 -116 -44 -120 0 -5 294 -6 653 -4 702 4 731 6
1007 63 594 122 1109 476 1463 1007 79 119 230 418 283 562 81 221 135 443
170 695 25 178 25 605 0 785 -62 455 -197 832 -417 1170 -97 149 -154 221
-279 348 -328 338 -744 555 -1210 631 -178 29 -345 35 -1008 36 l-663 0 6 -22z
m1445 -697 c320 -56 585 -195 820 -431 229 -228 376 -492 461 -827 64 -253 81
-576 44 -828 -99 -681 -455 -1214 -1005 -1508 -218 -116 -551 -197 -812 -197
l-68 0 0 1904 0 1905 38 4 c92 12 410 -2 522 -22z"/>
<path d="M20435 18746 c-26 -11 -57 -65 -235 -414 l-205 -402 -157 0 c-154 0
-157 0 -187 -26 -26 -21 -31 -33 -31 -67 1 -78 33 -97 170 -97 56 0 100 -4 98
-8 -1 -4 -104 -204 -227 -443 -241 -467 -276 -524 -483 -764 -126 -145 -331
-342 -401 -384 -73 -43 -134 -64 -165 -56 -23 6 -24 9 -19 58 3 29 13 73 21
99 9 26 163 330 341 675 184 355 325 639 325 654 0 60 -69 105 -130 85 -33
-10 -43 -27 -203 -336 -446 -863 -514 -1002 -532 -1084 -40 -182 16 -307 151
-337 139 -31 319 47 502 219 l62 58 0 -50 c0 -71 16 -121 52 -162 49 -56 82
-68 178 -68 94 0 158 21 267 85 133 80 446 420 657 714 52 72 57 84 53 119 -8
55 -35 79 -91 79 -25 0 -52 -6 -61 -13 -8 -7 -45 -55 -81 -106 -146 -211 -392
-485 -527 -588 -88 -67 -175 -108 -219 -104 -31 3 -33 6 -36 43 -2 22 6 67 16
100 11 33 188 386 394 785 l375 725 155 5 c174 6 192 12 204 75 7 37 -15 89
-45 105 -11 5 -63 10 -115 10 -53 0 -96 2 -96 5 0 2 82 162 181 355 127 245
182 361 181 383 -2 60 -76 100 -137 73z"/>
<path d="M14240 18081 c-52 -27 -80 -74 -80 -135 0 -94 62 -156 155 -156 93 0
155 62 155 156 0 88 -67 154 -155 154 -22 0 -56 -8 -75 -19z"/>
<path d="M19250 18081 c-52 -27 -80 -74 -80 -135 0 -94 62 -156 155 -156 93 0
155 62 155 156 0 88 -67 154 -155 154 -22 0 -56 -8 -75 -19z"/>
<path d="M13575 17731 c-31 -13 -51 -41 -70 -101 -54 -169 -210 -519 -316
-713 -125 -226 -265 -421 -409 -571 -137 -143 -263 -221 -406 -251 -117 -25
-114 -26 -114 53 0 69 24 185 58 282 11 30 144 296 296 590 152 294 276 545
276 558 0 66 -115 111 -161 64 -9 -9 -103 -183 -208 -387 l-192 -370 -126
-150 c-232 -277 -417 -477 -517 -557 -85 -68 -181 -107 -226 -93 -27 8 -27 65
-1 143 11 31 166 342 345 690 180 348 326 644 326 658 0 39 -16 60 -60 78 -63
25 -96 6 -141 -80 -637 -1226 -679 -1316 -679 -1444 0 -124 60 -207 164 -231
149 -33 326 57 565 287 87 83 101 93 94 68 -4 -16 -8 -67 -8 -114 0 -106 27
-168 94 -215 41 -29 47 -30 144 -29 179 3 354 76 517 216 161 138 387 435 540
707 95 168 274 578 330 757 22 67 22 72 6 106 -24 50 -71 69 -121 49z"/>
<path d="M23485 17731 c-31 -13 -51 -41 -70 -101 -54 -169 -210 -519 -316
-713 -125 -226 -265 -421 -409 -571 -137 -143 -263 -221 -406 -251 -117 -25
-114 -26 -114 53 0 69 24 185 58 282 11 30 144 296 296 590 152 294 276 545
276 558 0 66 -115 111 -161 64 -9 -9 -103 -183 -208 -387 l-192 -370 -126
-150 c-232 -277 -417 -477 -517 -557 -85 -68 -181 -107 -226 -93 -27 8 -27 65
-1 143 11 31 166 342 345 690 180 348 326 644 326 658 0 39 -16 60 -60 78 -63
25 -96 6 -141 -80 -637 -1226 -679 -1316 -679 -1444 0 -124 60 -207 164 -231
149 -33 326 57 565 287 87 83 101 93 94 68 -4 -16 -8 -67 -8 -114 0 -106 27
-168 94 -215 41 -29 47 -30 144 -29 179 3 354 76 517 216 161 138 387 435 540
707 95 168 274 578 330 757 22 67 22 72 6 106 -24 50 -71 69 -121 49z"/>
<path d="M4342 17659 c-146 -19 -239 -106 -406 -385 -49 -82 -131 -212 -181
-289 -50 -78 -94 -151 -98 -164 -19 -73 74 -138 144 -101 25 14 108 139 244
367 60 101 111 181 113 179 2 -3 -1 -37 -8 -78 -6 -40 -15 -183 -20 -318 -19
-514 -73 -694 -230 -763 -62 -28 -170 -29 -199 -3 -29 26 -27 71 4 101 13 14
31 25 39 25 26 0 56 50 56 92 0 75 -70 109 -154 74 -93 -39 -156 -137 -156
-244 0 -75 16 -116 67 -172 160 -179 514 -84 842 225 l71 67 0 -53 c0 -133 71
-250 182 -300 74 -33 244 -33 368 0 158 42 329 137 489 272 44 36 77 57 79 50
9 -27 59 -75 97 -92 76 -35 219 -17 335 41 33 16 62 30 65 30 3 0 -18 -45 -45
-101 -43 -85 -51 -108 -48 -147 3 -40 8 -49 38 -70 39 -26 80 -24 111 4 10 9
69 114 132 233 176 334 320 565 512 820 195 259 350 413 482 477 78 38 186 46
223 16 21 -17 24 -27 22 -69 -1 -27 -10 -74 -21 -104 -21 -64 -343 -682 -450
-869 -125 -215 -212 -388 -213 -420 -2 -70 82 -122 137 -86 15 10 33 30 41 44
16 30 170 303 271 482 128 226 322 506 481 693 204 241 352 347 487 347 106 0
130 -35 102 -146 -9 -34 -110 -243 -242 -499 -128 -250 -239 -479 -257 -530
-59 -173 -38 -304 60 -366 156 -99 394 -3 645 261 52 55 97 100 100 100 2 0 7
-28 9 -63 14 -175 141 -298 338 -328 224 -34 540 34 746 162 199 122 664 646
664 747 0 34 -25 70 -56 82 -32 12 -84 1 -91 -19 -13 -36 -204 -263 -312 -372
-266 -266 -506 -394 -781 -415 -155 -11 -258 21 -299 96 -47 84 -24 251 59
427 l38 82 64 -21 c47 -16 89 -21 168 -21 141 0 240 26 405 108 255 126 484
336 581 530 119 240 -24 407 -320 373 -183 -20 -372 -115 -581 -290 -162 -136
-290 -284 -430 -498 -188 -288 -485 -612 -667 -730 -60 -39 -138 -66 -163 -57
-20 8 -20 77 1 147 8 29 116 247 239 484 123 237 236 467 251 511 31 92 37
206 15 269 -17 49 -73 112 -122 137 -50 25 -150 38 -220 29 -120 -17 -255 -93
-398 -227 l-81 -75 0 35 c0 48 -24 123 -55 167 -52 76 -184 118 -310 99 -102
-16 -224 -83 -373 -205 l-34 -27 27 54 c30 59 36 119 14 145 -34 41 -110 47
-146 12 -6 -7 -110 -202 -229 -433 -119 -231 -232 -440 -251 -465 -120 -158
-309 -330 -419 -382 -74 -34 -162 -48 -175 -27 -15 24 -11 115 7 130 30 25
176 253 229 359 104 208 151 382 143 531 -5 99 -31 165 -86 222 -73 76 -162
100 -312 85 -336 -32 -735 -337 -1032 -789 -41 -63 -111 -158 -154 -210 -81
-97 -265 -292 -270 -286 -2 2 3 37 11 78 9 45 19 187 26 364 15 443 42 571
141 667 41 41 48 53 48 86 0 29 -7 46 -26 66 -15 14 -32 26 -40 26 -7 0 -18 2
-26 4 -7 2 -41 0 -76 -5z m1572 -219 c14 -17 28 -47 32 -66 16 -85 -21 -253
-86 -391 -32 -69 -43 -83 -62 -83 -30 0 -90 -37 -117 -72 -45 -56 -111 -230
-111 -289 0 -27 -222 -233 -328 -303 -148 -98 -249 -137 -394 -152 -91 -9
-154 13 -174 62 -35 85 -4 240 86 419 96 192 174 308 308 455 173 191 366 341
512 399 107 43 135 49 227 50 79 1 82 0 107 -29z m4110 15 c27 -28 -5 -98
-100 -216 -175 -216 -513 -409 -718 -409 -54 0 -126 16 -126 28 0 13 90 126
164 207 171 187 400 347 558 389 73 20 202 21 222 1z"/>
<path d="M14140 17656 c-33 -10 -43 -27 -203 -336 -446 -863 -514 -1002 -532
-1084 -52 -234 61 -375 271 -339 72 13 175 57 243 106 71 51 75 53 62 29 -30
-56 2 -123 69 -143 73 -22 84 -9 249 311 329 639 748 1169 993 1256 53 18 158
18 184 0 24 -18 24 -98 -1 -171 -9 -27 -117 -246 -240 -486 -123 -239 -234
-464 -246 -500 -14 -41 -24 -96 -26 -154 -4 -83 -2 -94 24 -145 82 -160 319
-142 550 42 34 27 107 96 161 154 55 57 101 104 104 104 3 0 7 -30 10 -68 13
-179 139 -303 338 -333 224 -34 539 34 746 162 198 122 664 646 664 747 0 34
-25 70 -56 82 -32 12 -84 1 -91 -19 -13 -36 -204 -263 -312 -372 -266 -266
-506 -394 -781 -415 -155 -11 -258 21 -299 96 -47 84 -24 251 59 427 l38 82
64 -21 c47 -16 89 -21 168 -21 141 0 240 26 405 108 255 126 484 336 581 530
119 240 -24 407 -320 373 -184 -20 -372 -114 -583 -291 -161 -136 -241 -229
-487 -572 -130 -181 -223 -293 -370 -444 -180 -184 -290 -260 -380 -264 -41
-2 -41 -2 -44 37 -2 22 2 60 8 85 6 25 112 240 235 478 122 237 234 460 248
495 78 195 55 355 -61 429 -157 99 -368 58 -573 -113 -33 -27 -59 -46 -59 -43
0 3 9 23 20 45 28 55 26 105 -5 134 -34 31 -68 37 -108 17 -28 -14 -58 -66
-244 -425 -225 -434 -251 -475 -446 -701 -124 -145 -330 -342 -400 -384 -73
-43 -134 -64 -165 -56 -23 6 -24 9 -19 58 3 29 12 73 21 99 9 25 162 329 341
675 184 355 325 639 325 654 0 60 -69 105 -130 85z m3034 -201 c27 -28 -5 -98
-100 -216 -175 -216 -513 -409 -718 -409 -52 0 -126 16 -126 27 0 3 24 38 54
77 185 246 469 467 668 520 73 20 202 21 222 1z"/>
<path d="M24635 17660 c-216 -19 -410 -111 -619 -296 -340 -300 -602 -811
-583 -1134 15 -257 178 -378 437 -326 143 29 262 90 401 202 l79 65 0 -59 c0
-211 214 -285 450 -155 130 71 279 212 482 456 107 129 268 340 268 353 0 4
26 48 58 98 32 50 101 162 152 248 52 87 96 156 98 154 2 -3 -1 -37 -8 -78 -6
-40 -15 -183 -20 -318 -19 -514 -73 -694 -230 -763 -62 -28 -170 -29 -199 -3
-29 26 -27 71 4 101 13 14 31 25 39 25 26 0 56 50 56 92 0 143 -213 101 -286
-57 -28 -58 -32 -156 -10 -209 21 -50 85 -117 133 -138 102 -45 270 -29 418
41 184 87 360 245 624 556 173 205 173 205 173 252 0 50 -46 93 -99 93 -41 0
-44 -3 -174 -168 -78 -99 -288 -326 -295 -319 -2 2 3 37 11 78 9 43 19 184 25
334 5 143 12 296 15 340 12 167 58 294 130 361 39 36 45 47 45 82 0 29 -7 46
-25 65 -32 31 -56 36 -140 26 -150 -18 -240 -103 -409 -385 -49 -82 -130 -212
-181 -289 -50 -77 -94 -147 -97 -155 -22 -57 -236 -319 -392 -478 -181 -185
-290 -261 -380 -265 l-41 -2 -3 44 c-2 24 4 67 13 95 9 28 114 240 233 471
463 902 445 864 436 898 -12 41 -54 71 -100 69 -47 -2 -73 -26 -109 -101 l-28
-60 -30 46 c-35 52 -104 100 -156 108 -68 11 -86 11 -166 5z m154 -209 c60
-60 52 -234 -16 -366 -181 -350 -491 -749 -686 -884 -160 -110 -366 -152 -425
-88 -49 54 -54 197 -13 344 42 145 144 346 258 506 70 98 233 264 328 335 144
107 312 170 458 171 63 1 80 -2 96 -18z"/>
<path d="M14880 15295 c-140 -7 -357 -14 -483 -14 l-228 -1 15 -27 c33 -65 78
-215 92 -303 12 -80 14 -434 14 -2281 0 -1452 -4 -2221 -10 -2289 -13 -124
-45 -225 -109 -347 l-48 -93 563 0 564 0 -30 47 c-60 95 -122 285 -140 433
-12 99 -14 1276 -2 1284 4 2 125 7 267 11 143 3 323 13 399 21 374 40 702 179
983 415 377 317 613 841 613 1359 0 637 -336 1220 -878 1524 -414 231 -833
301 -1582 261z m863 -730 c477 -72 805 -432 859 -941 29 -277 -56 -582 -222
-803 -138 -183 -344 -320 -564 -376 -136 -34 -257 -45 -517 -45 l-232 0 6 752
c4 413 7 904 7 1090 l0 338 283 0 c198 0 311 -5 380 -15z"/>
<path d="M18560 15295 c-140 -7 -357 -14 -483 -14 l-228 -1 15 -27 c33 -65 78
-215 92 -303 12 -80 14 -434 14 -2281 0 -1452 -4 -2221 -10 -2289 -13 -124
-45 -225 -109 -347 l-48 -93 563 0 564 0 -30 47 c-60 95 -122 285 -140 433
-12 99 -14 1276 -2 1284 4 2 125 7 267 11 143 3 323 13 399 21 374 40 702 179
983 415 377 317 613 841 613 1359 0 637 -336 1220 -878 1524 -414 231 -833
301 -1582 261z m863 -730 c477 -72 805 -432 859 -941 29 -277 -56 -582 -222
-803 -138 -183 -344 -320 -564 -376 -136 -34 -257 -45 -517 -45 l-232 0 6 752
c4 413 7 904 7 1090 l0 338 283 0 c198 0 311 -5 380 -15z"/>
<path d="M6595 15260 c-93 -4 -314 -11 -491 -15 l-320 -8 33 -81 c37 -94 59
-173 73 -271 14 -99 14 -4368 0 -4505 -13 -124 -45 -225 -109 -347 l-48 -93
559 0 558 0 -25 40 c-33 53 -88 187 -117 285 -22 80 -23 84 -26 756 l-3 677
288 6 c158 3 308 8 333 11 l45 6 54 -98 c30 -54 105 -190 168 -303 257 -459
531 -1009 548 -1101 5 -29 -17 -168 -41 -256 l-6 -23 577 0 c317 0 575 3 573
8 -1 4 -174 293 -384 642 -503 839 -784 1323 -784 1352 0 4 33 28 73 54 289
187 501 430 653 749 206 433 237 901 89 1342 -200 597 -739 1026 -1437 1142
-238 40 -436 47 -833 31z m695 -720 c258 -27 452 -120 620 -296 288 -301 366
-763 201 -1189 -133 -345 -428 -583 -807 -650 -58 -11 -181 -18 -356 -22
l-268 -6 0 695 c0 382 3 871 7 1086 l6 392 251 0 c138 0 294 -5 346 -10z"/>
<path d="M1470 14820 l0 -440 53 21 c28 11 83 34 121 50 181 77 295 89 849 89
l447 0 -3 -2062 c-4 -2345 5 -2128 -93 -2368 -30 -74 -58 -143 -61 -152 -5
-17 27 -18 576 -18 319 0 581 3 581 8 0 4 -19 50 -41 102 -70 163 -89 255 -99
500 -5 118 -9 1065 -10 2103 l0 1888 623 -3 c565 -3 627 -5 676 -22 72 -24
127 -61 141 -97 7 -16 17 -32 21 -35 5 -3 9 188 9 435 l0 441 -1895 0 -1895 0
0 -440z"/>
<path d="M21485 15243 c4 -10 30 -78 57 -151 85 -231 80 -100 85 -2067 5
-1858 -4 -2609 -31 -2728 -8 -38 -40 -131 -71 -207 -30 -76 -55 -141 -55 -144
0 -3 682 -6 1515 -6 l1515 0 0 430 c0 270 -4 430 -10 430 -5 0 -65 -22 -132
-50 -134 -54 -206 -74 -313 -90 -42 -6 -386 -10 -852 -10 l-783 0 0 870 0 870
614 0 c790 0 846 -5 1093 -106 72 -30 134 -54 137 -54 3 0 6 213 6 473 l0 474
-107 -43 c-130 -52 -267 -88 -388 -103 -57 -7 -325 -11 -722 -11 l-633 0 0
770 0 770 493 -1 c270 0 641 -4 822 -9 384 -10 439 -19 637 -99 69 -28 129
-51 132 -51 3 0 6 194 6 430 l0 430 -1511 0 c-1435 0 -1511 -1 -1504 -17z"/>
<path d="M25015 15218 c4 -13 25 -68 46 -123 81 -211 74 35 74 -2500 0 -2552
8 -2303 -81 -2528 -24 -62 -44 -116 -44 -120 0 -5 294 -6 653 -4 702 4 731 6
1007 63 437 90 829 303 1155 629 185 186 318 370 446 620 166 321 262 632 315
1015 25 178 25 605 0 785 -62 455 -197 832 -417 1170 -97 149 -154 221 -279
348 -328 338 -744 555 -1210 631 -178 29 -345 35 -1008 36 l-663 0 6 -22z
m1451 -697 c321 -60 581 -197 814 -431 229 -228 376 -492 461 -827 64 -253 81
-576 44 -828 -99 -681 -455 -1214 -1005 -1508 -218 -116 -551 -197 -812 -197
l-68 0 0 1904 0 1905 38 4 c93 12 419 -2 528 -22z"/>
<path d="M10890 15221 c0 -5 6 -14 14 -20 7 -6 26 -39 42 -74 27 -58 29 -70
28 -182 0 -83 -7 -152 -23 -223 -12 -57 -193 -660 -402 -1339 -208 -679 -467
-1528 -575 -1887 -198 -663 -234 -774 -331 -1021 -104 -264 -165 -358 -318
-493 l-48 -42 694 0 694 0 -38 31 c-123 101 -155 262 -98 494 34 138 197 719
211 753 l10 22 722 -2 723 -3 97 -340 c54 -187 108 -374 120 -415 18 -61 23
-100 23 -205 0 -124 -1 -133 -30 -188 -16 -33 -51 -78 -78 -103 l-49 -44 691
0 692 0 -67 62 c-206 193 -276 353 -560 1282 -91 297 -361 1178 -600 1956
-450 1463 -474 1550 -474 1714 0 73 20 163 46 204 8 12 21 33 30 47 l16 25
-581 0 c-327 0 -581 -4 -581 -9z m688 -1811 c56 -195 135 -476 177 -625 78
-279 244 -850 252 -872 4 -10 -100 -13 -531 -13 -295 0 -536 3 -536 7 0 37
527 1870 535 1861 2 -2 48 -163 103 -358z"/>
<path d="M16034 10523 c-12 -2 -30 -14 -41 -26 -11 -12 -159 -290 -328 -617
-169 -327 -309 -597 -312 -600 -2 -3 -9 4 -15 15 -23 43 -104 111 -148 124
-104 31 -318 6 -462 -55 -246 -102 -527 -368 -709 -669 -106 -176 -327 -444
-521 -630 -159 -153 -280 -227 -346 -210 -23 6 -24 9 -19 58 3 29 13 73 21 99
9 26 163 330 341 675 184 355 325 639 325 654 0 60 -69 105 -130 85 -32 -10
-42 -26 -143 -221 -324 -628 -325 -629 -412 -738 -84 -104 -294 -331 -301
-324 -2 2 3 37 11 78 9 43 19 184 25 334 5 143 12 296 15 340 12 167 58 294
130 361 39 36 45 47 45 82 0 29 -7 46 -25 65 -32 31 -56 36 -140 26 -150 -18
-240 -103 -409 -385 -261 -436 -441 -679 -690 -932 -172 -175 -282 -251 -370
-255 -41 -2 -41 -2 -44 37 -2 22 2 60 8 85 6 25 112 240 235 478 122 237 234
460 248 495 78 195 55 355 -61 429 -157 99 -368 58 -573 -113 -33 -27 -59 -46
-59 -43 0 3 9 23 20 45 28 55 26 105 -5 134 -34 31 -68 37 -108 17 -28 -14
-59 -69 -257 -450 -211 -406 -232 -442 -325 -560 -126 -159 -419 -454 -497
-500 -74 -43 -135 -64 -166 -56 -23 6 -24 9 -19 58 3 29 13 73 21 99 9 26 163
330 341 675 184 355 325 639 325 654 0 60 -69 105 -130 85 -33 -10 -43 -27
-203 -336 -446 -863 -514 -1002 -532 -1084 -52 -234 61 -375 271 -339 73 13
175 57 244 107 l47 34 -4 -41 c-6 -53 22 -92 77 -108 73 -22 84 -9 249 311
329 639 748 1169 993 1256 53 18 158 18 184 0 24 -18 24 -98 -1 -171 -9 -27
-117 -246 -240 -486 -123 -239 -234 -464 -246 -500 -14 -41 -24 -96 -26 -154
-4 -83 -2 -94 24 -145 82 -159 319 -142 548 40 121 96 349 350 524 585 126
168 174 240 306 462 60 101 111 181 113 179 2 -3 -1 -37 -8 -78 -6 -40 -15
-183 -20 -318 -19 -514 -73 -694 -230 -763 -62 -28 -170 -29 -199 -3 -29 26
-27 71 4 101 13 14 31 25 39 25 26 0 56 50 56 92 0 75 -70 109 -154 74 -93
-39 -156 -137 -156 -244 0 -75 16 -116 67 -172 72 -81 183 -106 334 -75 138
28 273 100 434 234 l60 50 6 -72 c14 -169 118 -248 285 -220 154 27 293 123
502 346 35 37 64 67 65 67 1 0 3 -36 5 -80 4 -115 30 -181 101 -251 48 -47 67
-58 124 -74 170 -46 409 32 609 199 l75 64 6 -64 c11 -113 63 -182 157 -204
170 -41 384 73 610 323 46 50 86 93 90 95 4 1 9 -32 12 -75 11 -189 133 -313
338 -344 224 -34 539 34 746 162 198 122 664 646 664 747 0 34 -25 70 -56 82
-32 12 -84 1 -91 -19 -13 -36 -204 -263 -312 -372 -266 -266 -506 -394 -781
-415 -155 -11 -258 21 -299 96 -47 84 -24 251 59 427 l38 82 64 -21 c47 -16
89 -21 168 -21 141 0 240 26 405 108 255 126 484 336 581 530 119 240 -24 407
-320 373 -184 -20 -372 -114 -583 -291 -115 -97 -224 -213 -319 -342 -41 -55
-92 -120 -114 -145 -22 -25 -80 -99 -128 -165 -177 -238 -403 -476 -538 -566
-111 -73 -204 -88 -204 -31 1 81 36 166 207 496 96 188 184 355 193 371 10 17
205 393 434 837 313 607 416 816 416 842 0 59 -54 100 -116 89z m-893 -1293
c47 -26 64 -140 38 -260 -19 -87 -163 -346 -297 -535 -269 -378 -494 -557
-726 -581 -129 -13 -171 34 -169 191 4 262 202 637 479 905 161 155 280 229
439 270 77 21 205 26 236 10z m1803 -5 c27 -28 -5 -98 -100 -216 -175 -216
-513 -409 -718 -409 -54 0 -126 16 -126 28 0 13 90 126 164 207 171 187 400
347 558 389 73 20 202 21 222 1z"/>
<path d="M10480 9851 c-52 -27 -80 -74 -80 -135 0 -94 62 -156 155 -156 93 0
155 62 155 156 0 88 -67 154 -155 154 -22 0 -56 -8 -75 -19z"/>
<path d="M13790 9851 c-52 -27 -80 -74 -80 -135 0 -94 62 -156 155 -156 93 0
155 62 155 156 0 88 -67 154 -155 154 -22 0 -56 -8 -75 -19z"/>
<path d="M19495 9430 c-216 -19 -410 -111 -619 -296 -340 -300 -602 -811 -583
-1134 15 -257 178 -378 437 -326 143 29 262 90 401 202 l79 65 0 -59 c0 -80
37 -153 94 -187 118 -69 297 -27 475 109 118 91 368 371 550 616 72 96 86 121
86 152 0 53 -39 91 -93 91 -22 0 -45 -4 -51 -8 -7 -4 -51 -59 -98 -123 -123
-167 -210 -270 -347 -410 -181 -185 -290 -261 -380 -265 l-41 -2 -3 44 c-2 24
4 67 13 95 9 28 114 240 233 471 463 902 445 864 436 898 -19 65 -110 93 -158
48 -12 -12 -35 -48 -51 -80 l-28 -60 -30 46 c-35 52 -104 100 -156 108 -68 11
-86 11 -166 5z m154 -209 c60 -60 52 -234 -16 -366 -181 -350 -491 -749 -686
-884 -160 -110 -366 -152 -425 -88 -49 54 -54 197 -13 344 42 145 144 346 258
506 71 98 233 264 328 335 147 109 311 170 458 171 63 1 80 -2 96 -18z"/>
<path d="M8860 7299 c-540 -37 -1038 -330 -1340 -790 -111 -168 -196 -376
-243 -587 -20 -95 -21 -119 -25 -1352 -4 -1355 -3 -1384 48 -1588 145 -577
565 -1024 1138 -1212 211 -69 315 -85 562 -85 184 0 231 4 328 23 371 75 685
248 945 522 245 258 393 559 449 910 19 123 19 2575 0 2700 -73 474 -334 884
-738 1160 -244 167 -543 276 -809 295 -162 11 -202 12 -315 4z m333 -635 c211
-48 401 -180 549 -381 56 -76 129 -217 156 -303 51 -155 52 -184 52 -1071 l0
-829 -77 38 c-156 78 -279 106 -458 106 -143 -1 -214 -14 -342 -64 -194 -74
-358 -234 -430 -417 -24 -61 -27 -82 -27 -193 -1 -146 15 -198 89 -299 79
-107 182 -171 304 -187 l51 -7 0 49 c0 105 87 220 210 278 56 26 76 30 140 30
101 -2 173 -30 247 -97 170 -156 210 -374 107 -585 -32 -65 -161 -199 -249
-259 -167 -112 -327 -164 -515 -164 -65 0 -146 6 -186 15 -374 77 -689 420
-759 823 -23 131 -22 2516 1 2647 44 256 148 459 316 622 160 155 318 237 510
264 80 11 223 4 311 -16z"/>
<path d="M11220 6760 l0 -440 53 21 c28 11 83 34 121 50 181 77 295 89 849 89
l447 0 -3 -2062 c-4 -2345 5 -2128 -93 -2368 -30 -74 -58 -143 -61 -152 -5
-17 27 -18 576 -18 319 0 581 3 581 8 0 4 -19 50 -41 102 -70 163 -89 255 -99
500 -5 118 -9 1065 -10 2103 l0 1888 623 -3 c565 -3 627 -5 676 -22 72 -24
127 -61 141 -97 7 -16 17 -32 21 -35 5 -3 9 188 9 435 l0 441 -1895 0 -1895 0
0 -440z"/>
<path d="M15480 6760 l0 -440 53 21 c28 11 83 34 121 50 181 77 295 89 849 89
l447 0 -3 -2062 c-4 -2345 5 -2128 -93 -2368 -30 -74 -58 -143 -61 -152 -5
-17 27 -18 576 -18 319 0 581 3 581 8 0 4 -19 50 -41 102 -70 163 -89 255 -99
500 -5 118 -9 1065 -10 2103 l0 1888 623 -3 c565 -3 627 -5 676 -22 72 -24
127 -61 141 -97 7 -16 17 -32 21 -35 5 -3 9 188 9 435 l0 441 -1895 0 -1895 0
0 -440z"/>
<path d="M23665 7183 c4 -10 30 -78 57 -151 85 -231 80 -100 85 -2067 5 -1858
-4 -2609 -31 -2728 -8 -38 -40 -131 -71 -207 -30 -76 -55 -141 -55 -144 0 -3
682 -6 1515 -6 l1515 0 0 430 c0 270 -4 430 -10 430 -5 0 -65 -22 -132 -50
-134 -54 -206 -74 -313 -90 -42 -6 -386 -10 -852 -10 l-783 0 0 870 0 870 614
0 c790 0 846 -5 1093 -106 72 -30 134 -54 137 -54 3 0 6 213 6 473 l0 474
-107 -43 c-130 -52 -267 -88 -388 -103 -57 -7 -325 -11 -722 -11 l-633 0 0
770 0 770 493 -1 c270 0 641 -4 822 -9 384 -10 439 -19 637 -99 69 -28 129
-51 132 -51 3 0 6 194 6 430 l0 430 -1511 0 c-1435 0 -1511 -1 -1504 -17z"/>
<path d="M19740 7184 c0 -3 24 -62 54 -132 30 -70 62 -161 71 -202 29 -130 37
-828 32 -2715 -4 -1519 -7 -1763 -21 -1845 -17 -105 -34 -159 -95 -301 -22
-53 -41 -99 -41 -103 0 -3 776 -6 1725 -6 l1725 0 0 390 c0 278 -3 390 -11
390 -6 0 -65 -23 -131 -50 -141 -60 -243 -86 -393 -100 -66 -6 -479 -10 -1042
-10 l-933 0 0 2099 c0 1854 2 2109 16 2182 19 107 55 227 98 329 l34 80 -544
0 c-299 0 -544 -3 -544 -6z"/>
<path d="M3350 7155 c0 -3 25 -60 55 -125 30 -65 65 -156 77 -202 l23 -83 3
-2165 c2 -1516 0 -2193 -8 -2260 -15 -133 -34 -198 -96 -332 -30 -64 -54 -119
-54 -122 0 -11 1641 -6 1785 5 358 26 629 93 865 214 317 163 501 346 640 638
99 207 135 392 127 647 -8 237 -45 417 -130 628 -167 417 -452 715 -786 823
l-83 27 77 37 c188 90 359 321 456 615 148 454 53 920 -251 1231 -175 179
-421 309 -700 370 -247 53 -225 52 -1142 56 -472 2 -858 1 -858 -2z m1640
-625 c178 -22 301 -70 410 -161 157 -131 240 -314 240 -533 0 -317 -185 -610
-458 -727 -118 -51 -189 -60 -519 -66 l-313 -6 0 745 c0 410 3 748 7 751 10
11 540 8 633 -3z m80 -2151 c278 -34 482 -130 666 -313 197 -197 283 -412 271
-680 -8 -185 -54 -324 -151 -460 -89 -125 -263 -262 -415 -326 -188 -80 -363
-106 -783 -116 l-308 -7 0 957 0 956 318 0 c175 0 356 -5 402 -11z"/>
</g>
</svg>
