<?xml version="1.0" standalone="no"?>
<!DOCTYPE svg PUBLIC "-//W3C//DTD SVG 20010904//EN"
 "http://www.w3.org/TR/2001/REC-SVG-20010904/DTD/svg10.dtd">
<svg version="1.0" xmlns="http://www.w3.org/2000/svg"
 width="5000.000000pt" height="5000.000000pt" viewBox="0 0 5000.000000 5000.000000"
 preserveAspectRatio="xMidYMid meet">

<g transform="translate(0.000000,5000.000000) scale(0.100000,-0.100000)"
fill="#000000" stroke="none">
<path d="M27775 49448 c-2 -7 -18 -78 -34 -158 -17 -80 -51 -242 -76 -360 -25
-118 -57 -267 -70 -330 -13 -63 -30 -146 -39 -185 -9 -38 -52 -241 -96 -450
-44 -209 -94 -441 -110 -515 -16 -74 -50 -234 -75 -355 -26 -121 -51 -224 -56
-229 -5 -6 -218 18 -531 59 -288 38 -549 68 -580 67 -146 -4 -242 -130 -204
-267 11 -40 403 -1109 918 -2500 38 -104 86 -235 105 -289 42 -121 80 -179
136 -208 51 -27 138 -29 182 -6 60 32 184 173 593 678 571 703 1188 1461 1349
1657 139 169 157 197 168 274 21 139 -62 255 -195 273 -25 4 -288 38 -585 76
-297 39 -543 74 -547 78 -5 5 21 145 57 313 36 167 70 324 75 349 10 52 229
1083 325 1530 65 303 72 350 57 350 -4 0 -59 11 -122 24 -63 14 -225 48 -360
76 -135 28 -253 53 -263 56 -9 3 -19 -1 -22 -8z"/>
<path d="M33585 44910 c-734 -54 -1532 -306 -2220 -700 -904 -519 -1714 -1348
-2307 -2361 -644 -1098 -1050 -2549 -1128 -4024 -13 -245 -13 -749 0 -985 42
-765 146 -1429 450 -2880 50 -239 125 -599 165 -800 72 -355 115 -524 157
-623 19 -43 24 -47 47 -43 14 3 445 75 956 161 512 85 941 158 954 161 21 5
23 9 17 47 -4 23 -29 137 -56 254 -93 394 -242 1165 -290 1493 -11 80 -23 160
-26 178 l-5 32 53 0 c29 0 987 -54 2128 -120 1141 -65 2174 -124 2295 -131
121 -7 224 -16 229 -20 5 -5 -130 -456 -319 -1063 -181 -581 -327 -1057 -324
-1059 2 -2 398 -178 879 -391 645 -286 879 -386 890 -379 21 14 84 124 121
212 68 164 659 1819 697 1951 5 19 40 129 76 244 323 1010 594 2207 731 3226
140 1043 173 2159 89 3000 -105 1054 -428 1998 -959 2800 -717 1083 -1598
1684 -2645 1805 -167 19 -495 27 -655 15z m515 -2063 c417 -98 721 -330 1023
-780 286 -425 496 -889 607 -1342 96 -394 130 -761 130 -1435 0 -601 -40
-1211 -121 -1855 -41 -322 -59 -424 -121 -665 l-53 -204 -100 2 c-148 4 -1162
40 -1610 57 -1128 44 -2182 97 -2995 150 -420 28 -795 55 -842 61 -54 7 -48
-10 -68 194 -33 338 -32 616 6 1050 128 1500 613 2681 1501 3655 275 301 633
577 1003 773 318 168 746 311 1070 358 151 21 437 12 570 -19z"/>
<path d="M11090 44803 c-29 -106 -33 -240 -60 -2208 -6 -412 -13 -765 -16
-782 l-5 -33 -772 -1 c-818 0 -1149 -8 -1234 -29 l-53 -13 0 -942 0 -941 40
-23 c151 -85 235 -92 1590 -142 179 -6 328 -14 332 -18 3 -3 13 -766 22 -1696
17 -1845 22 -2182 37 -2505 53 -1163 259 -1929 695 -2586 383 -579 900 -961
1484 -1098 479 -113 1017 -77 1543 103 476 162 972 463 1440 872 137 121 425
398 501 483 l67 74 -592 779 c-326 428 -593 779 -594 781 -1 2 -303 -222 -671
-498 -723 -541 -790 -584 -944 -616 -289 -60 -537 150 -675 570 -100 304 -213
1064 -260 1736 -58 841 -48 1693 37 3191 l22 396 1035 7 c570 4 1044 9 1054
12 16 5 17 60 17 979 0 917 -1 973 -17 980 -25 9 -211 19 -1153 60 -459 20
-845 38 -857 41 l-23 4 5 1443 c3 793 7 1490 10 1550 l5 107 -1000 0 -999 0
-11 -37z"/>
<path d="M22080 44413 c-887 -61 -1735 -423 -2473 -1055 -831 -712 -1444
-1749 -1757 -2973 -113 -440 -185 -899 -221 -1400 -16 -221 -16 -832 0 -1050
83 -1132 342 -2108 790 -2981 478 -929 1131 -1648 1951 -2144 180 -109 510
-272 703 -349 961 -380 1941 -420 2817 -115 945 328 1801 1043 2480 2070 125
189 257 403 281 457 10 23 10 30 -2 41 -8 7 -367 251 -798 541 l-784 529 -39
-45 c-112 -126 -261 -304 -398 -474 -239 -296 -354 -429 -500 -579 -343 -352
-656 -546 -1035 -640 -264 -65 -641 -62 -940 9 -678 160 -1251 581 -1692 1240
-161 242 -344 597 -468 908 -78 197 -214 601 -217 648 l-3 33 810 78 c2228
214 5852 587 6048 623 201 37 297 131 345 337 14 62 17 134 17 478 0 411 -8
567 -46 899 -144 1281 -597 2408 -1314 3271 -102 123 -371 397 -505 514 -474
416 -1025 737 -1589 926 -472 157 -1020 234 -1461 203z m495 -2039 c139 -22
290 -74 474 -164 946 -465 1541 -1234 1787 -2310 20 -88 25 -130 20 -179 -3
-35 -7 -65 -8 -66 -8 -7 -5149 -538 -5154 -533 -7 8 38 362 67 528 24 139 64
293 131 500 302 934 781 1561 1505 1964 422 235 801 318 1178 260z"/>
<path d="M44510 39854 c-168 -129 -388 -299 -490 -378 -102 -78 -459 -353
-795 -611 -335 -258 -650 -500 -700 -538 l-90 -69 -60 64 c-33 35 -227 248
-432 475 -416 459 -415 458 -533 458 -46 -1 -77 -7 -105 -22 -93 -49 -81 -23
-406 -904 -231 -627 -826 -2237 -915 -2479 -7 -19 -13 -62 -14 -94 0 -74 26
-133 81 -180 59 -50 109 -60 231 -49 57 5 598 101 1203 212 605 111 1369 251
1698 311 329 60 614 117 634 126 49 24 127 106 153 161 29 61 29 147 0 203
-11 22 -223 264 -470 537 -248 273 -450 500 -450 504 0 4 71 61 158 127 86 66
231 177 322 247 91 70 235 180 320 246 221 169 347 266 675 518 160 123 417
320 572 440 155 119 283 221 283 226 0 6 -44 67 -98 136 -53 69 -173 226 -267
347 -93 123 -176 222 -185 221 -8 0 -152 -106 -320 -235z"/>
<path d="M3748 39388 c-19 -24 -131 -167 -248 -318 -117 -151 -227 -292 -244
-313 l-31 -39 25 -20 c14 -12 246 -192 515 -401 270 -210 531 -413 580 -452
50 -39 341 -266 648 -504 306 -238 557 -437 557 -442 0 -8 -379 -426 -776
-855 -72 -78 -139 -159 -150 -180 -27 -55 -25 -155 3 -210 29 -54 101 -127
150 -152 21 -11 68 -26 104 -32 63 -11 1183 -223 2624 -496 697 -132 867 -159
930 -147 133 25 212 150 181 288 -8 33 -75 227 -149 430 -155 423 -791 2178
-934 2575 -52 146 -100 278 -106 295 -6 16 -27 47 -46 68 -69 76 -167 103
-260 72 -67 -22 -90 -45 -556 -555 -209 -228 -386 -415 -395 -414 -13 0 -188
132 -410 309 -36 28 -227 177 -425 330 -198 153 -409 317 -470 365 -60 47
-180 140 -265 207 -365 283 -796 617 -807 625 -7 6 -23 -6 -45 -34z"/>
<path d="M39460 32770 c-430 -42 -807 -152 -1200 -351 -697 -353 -1278 -941
-1615 -1634 -226 -463 -335 -937 -335 -1455 0 -451 83 -821 270 -1205 274
-562 761 -1067 1505 -1560 256 -170 447 -283 990 -590 496 -279 769 -441 995
-590 730 -479 1191 -955 1465 -1510 117 -236 180 -429 221 -670 21 -123 24
-415 5 -530 -42 -266 -142 -517 -301 -757 -364 -550 -999 -949 -1705 -1074
-744 -130 -1473 45 -2078 499 -546 410 -904 986 -1041 1673 -46 230 -57 347
-63 639 -6 298 2 451 38 713 12 84 19 154 17 156 -6 4 -1913 317 -1930 316
-10 0 -18 -2 -18 -4 0 -2 -14 -64 -30 -137 -38 -167 -74 -387 -97 -589 -24
-217 -24 -722 1 -945 159 -1448 888 -2702 2058 -3542 269 -193 688 -423 993
-544 385 -153 793 -254 1225 -305 187 -22 660 -30 858 -15 1297 100 2427 671
3167 1601 443 557 753 1257 875 1975 47 281 55 384 55 735 -1 352 -14 494 -70
772 -219 1080 -910 2055 -2080 2934 -449 338 -862 598 -1888 1190 -661 382
-740 430 -883 537 -257 193 -405 402 -460 650 -21 91 -23 305 -5 407 32 179
113 376 222 541 81 122 273 315 390 392 404 267 827 299 1236 93 168 -84 329
-209 460 -356 315 -356 486 -815 568 -1522 l6 -58 969 0 968 0 5 28 c4 15 12
102 19 194 25 349 -31 775 -159 1188 -199 644 -583 1265 -1074 1734 -558 534
-1223 865 -1929 961 -140 19 -490 27 -620 15z"/>
<path d="M9080 32704 c-19 -2 -91 -9 -160 -15 -1743 -155 -3450 -1204 -4749
-2919 -848 -1119 -1308 -2203 -1392 -3274 -16 -210 -7 -581 20 -782 136 -1017
635 -1873 1376 -2360 608 -400 1387 -550 2221 -429 875 127 1778 583 2654
1339 978 845 1864 1935 2505 3082 36 65 70 123 74 127 5 5 28 -52 51 -125 275
-864 432 -1743 476 -2655 l7 -142 -24 -5 c-13 -3 -98 -7 -189 -10 -329 -11
-683 -64 -1035 -156 -909 -235 -1671 -722 -2157 -1377 -458 -618 -665 -1472
-537 -2223 135 -794 591 -1400 1299 -1725 548 -251 1200 -310 1810 -164 719
172 1377 636 1862 1312 525 732 869 1770 987 2977 35 354 45 563 45 975 0
1064 -105 1787 -553 3800 -203 915 -246 1119 -326 1530 -139 722 -200 965
-316 1258 -172 433 -451 795 -849 1101 -631 485 -1457 785 -2354 856 -116 9
-659 12 -746 4z m698 -2033 c150 -23 309 -59 427 -98 71 -23 369 -156 387
-172 12 -12 -134 -462 -252 -776 -502 -1330 -1249 -2480 -2247 -3455 -403
-394 -676 -619 -978 -805 -515 -317 -1133 -491 -1485 -417 -182 37 -309 102
-432 220 -236 226 -362 587 -375 1077 -11 411 57 716 256 1149 244 530 537
995 891 1416 133 158 470 498 620 626 528 449 1128 800 1800 1054 330 124 550
179 820 204 106 10 439 -4 568 -23z m2156 -8114 c49 -49 38 -254 -23 -428 -70
-198 -145 -335 -356 -650 -194 -289 -254 -367 -354 -462 -207 -194 -428 -222
-773 -97 -177 64 -248 180 -248 403 1 355 281 726 748 991 274 155 624 253
945 265 27 1 44 -5 61 -22z"/>
<path d="M29265 31893 c-545 -45 -1029 -184 -1529 -441 -917 -470 -1662 -1244
-2171 -2255 -409 -813 -642 -1704 -716 -2747 -15 -211 -15 -796 0 -1010 78
-1112 326 -2072 760 -2940 631 -1259 1586 -2149 2791 -2598 713 -265 1483
-342 2168 -216 1043 191 2005 839 2788 1877 158 209 392 565 492 747 l42 76
-789 532 c-434 293 -796 534 -803 537 -19 7 -140 -130 -428 -485 -289 -356
-368 -448 -520 -604 -375 -385 -717 -582 -1155 -663 -113 -21 -407 -28 -535
-14 -499 57 -988 272 -1376 604 -437 375 -795 909 -1069 1597 -58 144 -225
638 -225 663 0 10 56 19 233 36 2609 247 6516 648 6676 686 164 39 253 134
296 315 15 61 19 133 23 393 24 1779 -515 3357 -1520 4447 -447 485 -1031 895
-1634 1149 -387 162 -851 277 -1257 310 -117 10 -445 12 -542 4z m443 -2024
c201 -21 364 -75 607 -199 342 -174 585 -347 844 -602 422 -416 706 -933 878
-1598 28 -112 37 -165 38 -232 0 -48 -4 -91 -10 -96 -11 -10 -5144 -547 -5151
-539 -13 13 71 563 108 712 78 314 216 691 348 955 255 509 606 914 1035 1196
470 308 913 446 1303 403z"/>
<path d="M19210 31770 c-673 -64 -1235 -323 -1780 -822 -573 -524 -1115 -1376
-1528 -2404 -379 -941 -637 -2005 -726 -2989 -41 -453 -46 -1106 -11 -1485
127 -1388 583 -2456 1376 -3225 543 -526 1208 -882 1915 -1024 286 -57 387
-66 749 -66 352 0 424 7 698 61 1068 211 1966 936 2724 2199 687 1144 1121
2444 1252 3750 58 577 53 1197 -14 1720 -183 1422 -778 2572 -1720 3326 -266
212 -508 366 -820 519 -461 227 -921 365 -1415 426 -147 18 -565 26 -700 14z
m712 -2081 c226 -40 518 -161 723 -297 532 -355 921 -936 1100 -1641 91 -360
126 -675 126 -1131 -1 -699 -103 -1368 -318 -2065 -151 -491 -397 -1046 -648
-1464 -443 -737 -951 -1149 -1567 -1273 -165 -33 -438 -33 -588 1 -388 86
-739 338 -984 706 -295 442 -466 1041 -527 1840 -14 191 -14 739 0 960 71
1077 312 2019 741 2890 340 691 679 1130 1034 1338 258 150 570 197 908 136z"/>
<path d="M5660 21120 c-471 -21 -1345 -57 -2305 -95 -346 -13 -654 -29 -682
-34 -62 -12 -125 -52 -182 -117 -68 -78 -81 -173 -33 -263 15 -29 186 -288
381 -575 195 -286 355 -530 355 -540 1 -20 -91 -74 -849 -501 -110 -62 -265
-150 -345 -195 -80 -45 -235 -133 -345 -195 -110 -62 -263 -149 -340 -192 -77
-44 -258 -146 -403 -228 -144 -82 -262 -154 -262 -161 0 -7 18 -44 40 -83 22
-38 49 -87 61 -108 12 -21 31 -56 44 -78 12 -22 71 -125 130 -230 59 -104 118
-209 132 -232 13 -24 29 -43 35 -43 11 0 218 116 868 485 41 24 197 111 345
195 149 84 335 190 415 235 80 45 307 173 505 285 198 112 389 220 424 241 35
20 69 35 75 33 10 -4 125 -173 559 -819 70 -104 145 -207 165 -229 50 -52 113
-79 184 -79 106 1 178 54 239 176 32 62 1179 2195 1437 2672 197 363 200 369
207 420 15 97 -37 195 -127 239 -75 36 -207 39 -728 16z"/>
<path d="M46680 19544 c-8 -1 -789 -5 -1735 -7 l-1720 -4 -53 -23 c-94 -41
-150 -133 -139 -233 7 -70 48 -155 171 -360 125 -208 493 -826 1164 -1952 275
-462 513 -858 529 -880 41 -57 144 -108 229 -113 132 -9 188 36 289 233 37 72
93 180 125 240 31 61 139 269 240 463 100 193 188 352 194 352 7 0 208 -122
447 -272 239 -149 479 -299 534 -333 55 -34 271 -169 480 -300 209 -131 450
-282 535 -335 85 -53 233 -145 328 -205 100 -62 177 -104 182 -99 14 14 470
746 470 755 0 4 -75 54 -167 111 -392 244 -1465 915 -1548 968 -49 31 -222
140 -384 241 -162 101 -331 207 -375 235 -48 29 -80 56 -79 65 3 13 401 786
514 996 82 154 93 250 39 339 -55 88 -173 140 -270 118z"/>
<path d="M6460 18936 c-29 -77 -182 -870 -274 -1421 -401 -2402 -603 -5044
-558 -7272 29 -1385 111 -2451 278 -3613 95 -657 253 -1500 282 -1500 18 0
1887 228 1930 235 l32 6 0 163 c0 280 -24 620 -100 1416 -73 773 -90 1041 -90
1445 0 311 10 501 41 760 121 1021 585 2012 1259 2685 379 380 800 634 1232
744 179 46 301 60 462 53 218 -9 377 -66 522 -186 256 -213 469 -727 568
-1371 39 -256 57 -486 63 -845 20 -1152 -162 -2498 -561 -4155 -25 -101 -43
-186 -41 -189 11 -11 2001 -607 2007 -601 13 10 76 264 113 455 20 99 60 353
91 565 30 212 68 457 84 545 164 893 272 1808 321 2715 16 287 16 1012 1 1240
-36 516 -94 905 -199 1315 -261 1025 -805 1867 -1505 2328 -344 227 -715 361
-1168 423 -155 22 -553 25 -715 6 -638 -75 -1233 -306 -1860 -721 -252 -166
-612 -449 -816 -640 -42 -39 -80 -71 -83 -71 -6 0 -5 28 14 410 52 1015 274
2751 545 4250 19 107 35 213 35 235 l0 40 -393 118 c-215 65 -643 194 -950
286 -552 167 -558 168 -567 147z"/>
<path d="M29840 18693 c-19 -1 -87 -8 -150 -14 -1145 -108 -2274 -728 -3071
-1684 -686 -825 -1080 -1794 -1218 -2995 -40 -349 -46 -482 -46 -1005 0 -527
5 -645 50 -1140 32 -347 55 -541 165 -1370 233 -1750 398 -2884 571 -3915 66
-396 207 -1179 213 -1187 2 -2 1866 286 1955 302 l34 6 -6 82 c-3 45 -15 134
-26 197 -30 172 -74 535 -136 1120 -72 679 -123 1102 -141 1161 -4 14 30 17
328 22 446 8 716 29 1122 88 336 48 784 143 1081 229 38 11 73 20 77 20 4 0
14 -26 23 -57 128 -443 429 -1340 658 -1963 162 -439 370 -977 386 -993 7 -7
1778 715 1792 731 3 4 -218 725 -493 1602 -371 1184 -501 1612 -505 1661 -10
123 18 167 214 336 406 353 722 730 1008 1203 107 178 293 554 370 750 440
1110 518 2315 225 3449 -94 361 -214 681 -385 1021 -680 1362 -1880 2193
-3369 2335 -143 13 -616 19 -726 8z m668 -2057 c355 -53 634 -154 873 -314
295 -199 509 -459 704 -857 337 -686 444 -1352 330 -2050 -60 -364 -166 -678
-348 -1029 -247 -478 -633 -920 -1089 -1245 -311 -223 -824 -479 -1214 -606
-610 -201 -1289 -253 -1944 -150 -52 8 -114 18 -138 21 -23 4 -45 11 -48 16
-7 11 -98 738 -144 1148 -58 519 -80 915 -80 1441 0 857 73 1377 261 1860 190
486 509 910 928 1228 392 298 859 498 1291 551 108 13 496 4 618 -14z"/>
<path d="M19475 18174 c-507 -42 -973 -171 -1445 -400 -1335 -649 -2318 -1941
-2745 -3609 -168 -656 -239 -1227 -239 -1940 0 -752 87 -1429 274 -2130 371
-1384 1098 -2522 2082 -3256 860 -641 1924 -983 2893 -929 367 21 663 76 991
186 633 211 1216 592 1764 1150 337 344 602 685 887 1144 124 199 159 269 141
285 -17 16 -1558 1056 -1574 1062 -15 6 -165 -167 -456 -524 -283 -348 -412
-496 -559 -638 -209 -202 -384 -330 -594 -431 -291 -141 -535 -191 -879 -181
-345 10 -641 86 -971 248 -269 132 -464 270 -688 488 -225 220 -398 440 -568
721 -106 176 -280 532 -364 743 -69 174 -208 585 -220 648 l-7 36 134 12
c1687 152 6615 658 6776 696 154 36 242 121 286 275 24 83 36 259 36 520 -1
1132 -226 2183 -659 3075 -372 767 -866 1378 -1492 1850 -661 498 -1380 792
-2164 886 -93 11 -551 20 -640 13z m426 -2024 c205 -21 358 -69 606 -193 575
-289 1014 -686 1328 -1202 187 -307 354 -736 435 -1117 19 -88 22 -118 14
-165 -7 -47 -13 -59 -29 -61 -11 -1 -859 -90 -1885 -197 -1026 -106 -2175
-226 -2553 -265 -378 -40 -691 -70 -694 -66 -6 6 39 366 68 531 34 200 136
541 241 808 68 172 218 472 307 616 89 142 213 308 324 432 417 469 1061 829
1570 878 121 12 154 12 268 1z"/>
<path d="M39800 18170 c-362 -34 -716 -116 -1060 -246 -187 -71 -547 -249
-722 -357 -1256 -776 -2122 -2120 -2458 -3817 -101 -509 -143 -959 -144 -1520
0 -370 10 -560 45 -885 177 -1648 798 -3063 1774 -4040 1136 -1138 2746 -1638
4148 -1289 1119 278 2144 1110 2924 2374 141 228 160 267 143 284 -18 17
-1558 1056 -1576 1063 -14 5 -162 -163 -372 -422 -507 -625 -709 -835 -996
-1033 -444 -307 -994 -398 -1571 -261 -805 192 -1472 773 -1934 1687 -97 192
-183 391 -267 620 -64 173 -164 482 -164 506 0 9 36 16 133 25 1713 154 6640
660 6781 697 124 32 205 97 252 199 46 100 55 170 61 485 19 1036 -166 2053
-533 2918 -486 1147 -1270 2016 -2299 2548 -470 243 -955 392 -1480 455 -120
14 -566 20 -685 9z m471 -2020 c206 -21 362 -71 611 -196 810 -407 1356 -1036
1643 -1897 79 -237 128 -441 129 -539 1 -48 -3 -91 -9 -96 -11 -11 -5143 -547
-5151 -539 -8 7 42 392 72 552 39 218 143 557 254 830 124 307 320 646 510
885 100 125 312 339 430 434 390 312 868 529 1243 565 121 12 154 12 268 1z"/>
<path d="M24380 6872 c-57 -29 -146 -107 -259 -225 -154 -162 -1792 -1871
-2135 -2227 -97 -102 -186 -202 -197 -222 -26 -52 -41 -161 -28 -218 15 -69
54 -126 104 -156 36 -21 173 -53 697 -165 359 -76 656 -139 661 -139 14 0 7
-40 -32 -167 -21 -70 -80 -267 -131 -438 -51 -170 -159 -533 -240 -805 -356
-1191 -421 -1412 -418 -1422 2 -6 69 -30 148 -54 80 -23 266 -79 414 -123 276
-83 291 -87 300 -73 5 9 118 378 176 577 21 72 64 216 95 320 182 606 362
1209 420 1405 158 532 172 575 186 578 8 1 289 -56 624 -128 644 -139 664
-141 737 -104 46 23 96 72 120 118 35 68 28 127 -40 366 -33 118 -122 436
-197 705 -75 270 -244 875 -375 1345 -131 470 -253 909 -270 975 -48 180 -88
244 -172 279 -51 22 -145 21 -188 -2z"/>
</g>
</svg>
