<?xml version="1.0" standalone="no"?>
<!DOCTYPE svg PUBLIC "-//W3C//DTD SVG 20010904//EN"
 "http://www.w3.org/TR/2001/REC-SVG-20010904/DTD/svg10.dtd">
<svg version="1.0" xmlns="http://www.w3.org/2000/svg"
 width="5000.000000pt" height="5000.000000pt" viewBox="0 0 5000.000000 5000.000000"
 preserveAspectRatio="xMidYMid meet">

<g transform="translate(0.000000,5000.000000) scale(0.100000,-0.100000)"
fill="#000000" stroke="none">
<path d="M11970 33549 c-321 -24 -610 -95 -847 -209 -197 -94 -310 -187 -360
-296 -21 -47 -25 -67 -21 -127 7 -133 56 -200 285 -383 79 -64 165 -141 191
-171 159 -183 247 -437 282 -813 24 -273 35 -1202 34 -3145 0 -2076 -3 -2252
-44 -2535 -25 -173 -53 -276 -135 -494 -88 -235 -109 -324 -110 -456 0 -99 2
-109 33 -172 37 -75 84 -121 178 -174 176 -98 609 -192 1044 -225 196 -15 647
-6 830 16 193 23 421 63 520 92 167 48 262 122 323 251 28 59 32 79 35 174 7
192 -38 345 -208 698 -150 313 -210 458 -300 730 -180 541 -278 1067 -330
1775 -18 237 -24 915 -11 1240 18 454 52 938 117 1630 71 774 139 967 469
1340 212 240 275 386 245 564 -20 120 -76 219 -184 326 -79 79 -105 98 -196
143 -167 82 -311 117 -670 161 -520 64 -875 82 -1170 60z"/>
<path d="M21865 33500 c-214 -18 -456 -69 -594 -125 -140 -57 -243 -146 -304
-263 -61 -116 -72 -173 -71 -377 1 -194 -3 -163 99 -685 178 -911 286 -1847
325 -2825 11 -278 12 -1177 2 -1242 l-7 -42 -136 173 c-1046 1323 -2010 2741
-2889 4245 -248 426 -261 447 -351 567 -138 184 -308 317 -472 369 -210 67
-354 62 -1196 -39 -348 -41 -659 -80 -691 -86 -243 -44 -350 -160 -351 -377 0
-103 10 -156 66 -362 73 -266 114 -501 146 -831 6 -63 13 -347 16 -630 6 -660
-43 -5086 -58 -5190 -20 -141 -72 -257 -223 -498 -173 -277 -207 -400 -146
-527 74 -153 366 -315 667 -371 119 -22 394 -29 535 -15 231 25 487 94 681
184 261 122 397 270 428 465 14 87 5 178 -46 447 -139 737 -218 1387 -267
2215 -17 287 -17 1343 0 1630 16 272 38 562 57 755 19 190 54 491 61 528 5 23
25 -10 131 -220 981 -1937 2244 -3714 3766 -5302 353 -368 511 -483 726 -526
350 -71 684 216 775 667 30 147 33 291 28 1353 -6 1379 10 2098 73 3305 21
393 62 1004 80 1187 37 369 98 612 211 833 63 123 125 207 289 395 258 294
321 410 314 578 -3 69 -10 94 -37 149 -39 79 -130 169 -226 223 -196 109 -540
212 -841 251 -143 18 -431 25 -570 14z"/>
<path d="M31205 33499 c-132 -11 -282 -35 -405 -64 -272 -66 -420 -165 -505
-339 -48 -98 -67 -195 -67 -346 0 -156 9 -221 83 -600 176 -897 280 -1711 329
-2585 27 -487 37 -1148 21 -1489 l-6 -140 -75 95 c-1122 1419 -2062 2797
-2975 4364 -109 187 -229 385 -266 441 -182 268 -361 413 -587 477 -68 19
-102 21 -292 21 -205 0 -244 -4 -860 -78 -355 -42 -676 -84 -715 -92 -149 -31
-263 -116 -302 -227 -25 -72 -23 -234 5 -342 11 -44 40 -159 65 -255 82 -317
119 -597 138 -1045 10 -220 7 -733 -15 -2790 -14 -1386 -30 -2576 -36 -2646
-5 -71 -18 -155 -31 -195 -25 -83 -99 -226 -201 -390 -130 -207 -168 -298
-168 -398 0 -116 62 -206 207 -302 231 -155 511 -222 873 -211 321 9 609 80
875 214 213 107 339 239 374 394 18 78 13 220 -15 366 -158 847 -239 1489
-284 2248 -29 488 -29 1332 0 1819 21 359 67 849 108 1161 l8 60 131 -260
c839 -1658 1915 -3239 3157 -4639 429 -483 867 -933 1001 -1028 251 -177 459
-211 670 -108 210 102 351 292 420 564 46 181 48 230 40 1196 -12 1557 28
2923 125 4320 39 561 74 785 157 1024 74 214 154 341 370 586 152 174 204 242
253 332 82 152 90 274 25 405 -67 136 -221 239 -501 336 -366 127 -753 177
-1129 146z"/>
<path d="M5930 33483 c-481 -19 -1028 -135 -1527 -322 -87 -33 -189 -65 -226
-72 -100 -19 -168 -2 -397 95 -360 154 -662 238 -1012 281 -237 29 -425 14
-610 -49 -229 -78 -364 -212 -388 -384 -17 -126 15 -219 156 -455 148 -246
218 -412 284 -672 72 -282 103 -533 119 -955 16 -415 35 -4456 21 -4618 -28
-341 -78 -500 -253 -790 -117 -195 -199 -361 -223 -452 -12 -44 -18 -102 -19
-181 0 -113 1 -116 38 -191 94 -191 309 -282 717 -303 255 -14 630 24 1229
125 243 40 456 69 671 90 919 90 1332 145 1800 240 866 175 1516 452 2040 868
212 169 494 477 662 722 500 730 842 1776 918 2805 13 180 13 573 0 746 -63
820 -321 1521 -771 2090 -101 129 -400 428 -532 533 -752 599 -1678 890 -2697
849z m-83 -1313 c219 -36 402 -106 570 -219 377 -254 647 -683 767 -1217 67
-297 91 -606 83 -1064 -17 -903 -101 -1462 -294 -1945 -136 -343 -300 -595
-542 -835 -166 -165 -280 -248 -476 -345 -309 -153 -655 -245 -920 -245 -284
0 -412 84 -470 305 -60 228 -59 639 2 1210 15 144 17 366 22 2160 7 2238 -1
2038 80 2107 54 46 121 65 302 83 374 39 659 41 876 5z"/>
<path d="M44490 33455 c-335 -38 -665 -106 -1062 -222 -462 -133 -501 -144
-603 -155 -131 -15 -227 1 -478 81 -355 113 -549 145 -887 144 -178 0 -255 -5
-370 -22 -196 -29 -409 -84 -497 -127 -128 -62 -180 -164 -148 -288 29 -109
85 -192 261 -387 60 -66 133 -155 162 -197 161 -232 249 -539 282 -982 11
-145 44 -5080 37 -5430 -10 -436 -37 -522 -310 -956 -225 -358 -292 -509 -285
-636 4 -75 21 -107 78 -146 63 -42 133 -56 280 -55 116 1 264 20 1040 132 504
72 949 141 1004 155 253 65 392 182 452 381 37 121 29 216 -145 1781 -95 855
-161 1490 -161 1546 0 58 6 111 15 139 32 95 117 159 208 159 40 0 53 -5 86
-36 49 -43 62 -82 96 -279 153 -896 575 -1815 1146 -2495 117 -140 340 -359
469 -462 219 -175 496 -332 726 -412 457 -157 939 -128 1359 80 351 175 608
471 696 801 25 93 30 294 10 388 -56 268 -195 476 -380 568 -133 67 -248 72
-451 22 -145 -37 -243 -43 -325 -20 -169 45 -321 212 -436 476 -145 335 -482
1342 -590 1763 -26 103 -28 200 -4 246 35 68 62 94 195 188 74 53 169 123 210
156 473 378 813 872 965 1400 149 519 103 1091 -125 1562 -296 611 -877 1000
-1690 1130 -145 23 -655 28 -830 9z m-780 -1055 c213 -17 520 -83 798 -171
303 -97 454 -236 543 -499 28 -82 33 -112 37 -226 5 -154 -5 -227 -54 -374
-65 -193 -176 -372 -346 -554 -243 -260 -545 -485 -863 -641 -232 -114 -410
-166 -582 -169 l-86 -1 -8 28 c-12 45 -39 300 -49 477 -14 236 -12 569 5 1085
9 248 19 559 23 692 6 221 9 243 27 263 49 54 145 77 415 98 8 1 71 -3 140 -8z"/>
<path d="M34475 33410 c-253 -21 -539 -89 -650 -154 -56 -33 -119 -104 -136
-152 -7 -21 -13 -70 -13 -109 2 -99 43 -197 165 -396 56 -90 116 -194 135
-232 66 -130 116 -311 145 -527 17 -120 22 -2173 10 -4190 -10 -1758 -8 -1691
-67 -1869 -34 -101 -77 -179 -185 -330 -146 -204 -196 -328 -187 -466 10 -153
108 -245 316 -298 78 -19 112 -22 327 -21 187 0 277 4 405 21 396 52 640 39
1327 -71 647 -104 908 -129 1507 -146 361 -10 1246 2 1497 20 414 31 578 172
579 498 0 310 -100 1468 -166 1922 -44 301 -128 466 -273 537 -48 24 -68 28
-141 28 -76 -1 -92 -4 -153 -34 -129 -64 -244 -191 -435 -478 -248 -371 -496
-593 -867 -773 -222 -109 -430 -172 -674 -206 -211 -29 -701 -2 -701 39 0 5
31 353 70 771 84 914 97 990 189 1132 66 104 160 157 276 158 130 2 242 -63
475 -274 185 -168 245 -213 350 -264 83 -40 88 -41 190 -41 99 0 109 2 171 33
193 97 302 299 324 597 7 98 -48 1377 -65 1530 -27 228 -102 418 -206 517 -97
92 -249 119 -368 65 -83 -38 -150 -91 -212 -165 -58 -71 -95 -137 -195 -349
-80 -169 -138 -261 -212 -330 -90 -85 -185 -124 -306 -124 -168 -1 -269 103
-279 286 -3 74 111 1763 124 1830 11 54 42 93 89 111 63 24 406 15 584 -15
487 -83 835 -239 1301 -581 155 -115 264 -160 385 -160 139 0 263 58 385 180
70 70 94 102 133 180 54 107 90 240 106 383 29 257 -7 1182 -54 1412 -64 310
-257 448 -600 431 -60 -3 -580 -68 -1155 -145 -575 -77 -1099 -147 -1165 -156
-154 -21 -367 -21 -462 -1 -105 23 -174 47 -403 146 -298 128 -507 188 -755
219 -121 15 -368 21 -480 11z"/>
<path d="M11780 23296 c-205 -39 -365 -126 -389 -212 -17 -62 1 -94 112 -197
181 -167 194 -213 208 -687 6 -184 8 -724 6 -1200 -5 -963 -1 -912 -77 -1131
-85 -246 -43 -322 208 -377 152 -34 244 -43 422 -42 230 0 417 30 497 79 46
29 73 88 73 158 0 80 -11 114 -97 303 -131 288 -196 521 -240 865 -21 170 -24
699 -4 950 25 332 51 583 67 660 21 108 80 225 153 308 89 100 114 148 114
216 0 134 -114 238 -303 276 -213 42 -602 58 -750 31z"/>
<path d="M14295 23304 c-395 -43 -731 -257 -885 -563 -96 -192 -114 -479 -49
-776 64 -290 148 -456 318 -626 176 -175 361 -281 801 -459 124 -50 255 -108
292 -130 162 -97 229 -220 207 -378 -42 -298 -374 -451 -702 -324 -257 100
-534 419 -678 780 -83 209 -105 236 -190 235 -165 -2 -232 -178 -232 -603 1
-492 164 -790 493 -900 165 -56 455 -85 845 -85 255 0 290 3 385 23 273 60
494 177 673 357 286 288 388 723 256 1085 -127 346 -449 606 -999 805 -258 94
-353 142 -439 221 -54 50 -80 84 -108 142 -34 67 -38 84 -38 151 1 102 33 172
115 251 116 112 292 172 501 171 215 -1 376 -58 492 -174 85 -84 124 -166 178
-372 51 -194 77 -251 124 -271 42 -17 76 -7 123 39 40 39 66 106 91 244 53
279 54 596 5 847 -34 177 -124 278 -249 279 -69 1 -105 -21 -157 -95 -24 -34
-56 -69 -71 -78 -25 -14 -32 -13 -105 14 -394 146 -554 184 -812 190 -80 2
-163 2 -185 0z"/>
<path d="M37585 23283 c-176 -7 -399 -51 -596 -119 -77 -26 -147 -44 -174 -44
-30 0 -81 15 -157 46 -246 101 -494 138 -635 96 -126 -39 -187 -102 -186 -195
1 -39 12 -68 66 -166 92 -169 132 -293 158 -501 16 -131 25 -2091 9 -2189 -17
-107 -34 -151 -103 -271 -96 -166 -115 -244 -81 -329 17 -44 68 -84 136 -108
59 -21 279 -28 409 -14 57 7 169 23 248 37 79 13 252 36 385 49 762 78 1121
176 1445 393 411 275 698 868 751 1555 20 249 -9 503 -84 732 -164 506 -599
879 -1162 995 -98 21 -314 37 -429 33z m0 -558 c281 -59 486 -323 541 -698 14
-92 15 -161 11 -387 -6 -270 -19 -412 -51 -555 -92 -399 -298 -655 -616 -765
-223 -76 -396 -65 -442 30 -40 82 -47 241 -23 510 12 129 15 343 15 972 0 489
4 817 10 832 20 54 104 73 345 75 89 0 165 -5 210 -14z"/>
<path d="M31210 23274 c-130 -17 -292 -52 -465 -101 -240 -69 -294 -72 -425
-29 -191 62 -372 79 -545 52 -199 -31 -266 -66 -267 -142 0 -53 15 -81 107
-189 120 -141 164 -247 184 -450 7 -60 12 -568 13 -1280 3 -971 1 -1189 -11
-1233 -8 -31 -47 -109 -94 -185 -126 -208 -153 -275 -131 -332 12 -31 65 -48
144 -48 78 1 720 91 846 118 126 28 191 90 209 200 3 25 -21 286 -65 675 -38
349 -70 657 -70 683 0 58 23 102 61 117 63 26 88 -7 114 -150 62 -343 229
-713 445 -985 71 -89 225 -234 307 -288 266 -176 539 -204 792 -81 213 104
332 298 299 487 -15 89 -51 159 -108 211 -68 60 -119 72 -218 51 -86 -18 -140
-19 -179 -4 -36 13 -98 73 -127 124 -52 89 -190 477 -261 734 -48 173 -48 176
88 278 191 144 314 290 402 476 72 152 90 235 90 417 -1 183 -17 257 -92 409
-39 78 -62 110 -137 186 -135 137 -286 217 -492 260 -77 17 -339 28 -414 19z
m-205 -464 c138 -27 277 -73 325 -107 76 -55 130 -167 130 -268 0 -61 -26
-149 -67 -229 -27 -52 -63 -97 -138 -171 -156 -155 -343 -269 -495 -301 -104
-21 -113 -18 -122 36 -25 152 -16 991 11 1023 32 39 198 47 356 17z"/>
<path d="M28245 23245 c-22 -8 -50 -27 -62 -42 -48 -59 -41 -131 26 -313 92
-250 125 -461 124 -795 0 -259 -14 -424 -63 -765 -77 -537 -143 -748 -293
-939 -129 -166 -368 -265 -558 -233 -230 40 -341 196 -405 569 -55 325 -74
564 -74 933 -1 393 22 637 102 1065 55 300 47 362 -54 435 -75 55 -136 61
-613 63 -419 2 -431 1 -470 -19 -29 -15 -43 -31 -53 -58 -13 -41 -14 -40 73
-235 68 -152 112 -336 135 -560 5 -57 10 -345 10 -650 0 -591 6 -698 55 -912
47 -207 133 -430 230 -595 345 -586 971 -828 1582 -613 340 120 601 347 759
661 139 276 194 557 239 1208 37 537 86 854 196 1275 54 207 58 296 16 368
-77 131 -220 167 -672 166 -138 0 -201 -4 -230 -14z"/>
<path d="M33309 23249 c-134 -14 -235 -46 -272 -87 -51 -56 -38 -127 48 -267
63 -102 90 -179 105 -297 14 -113 14 -2280 -1 -2419 -11 -113 -34 -177 -93
-258 -112 -154 -111 -263 2 -314 54 -24 154 -27 462 -13 167 8 185 7 385 -23
386 -58 425 -62 800 -68 573 -8 695 10 744 111 26 52 27 113 6 386 -21 286
-52 546 -75 621 -27 90 -78 139 -146 139 -25 0 -57 -6 -72 -14 -41 -22 -112
-101 -190 -212 -171 -243 -410 -383 -688 -401 -91 -6 -210 2 -231 15 -15 9 38
611 62 711 17 75 54 127 101 147 69 29 124 8 234 -90 136 -122 201 -155 275
-142 50 10 117 74 145 138 31 73 34 162 16 508 -16 313 -27 382 -76 449 -24
35 -87 71 -122 71 -38 -1 -101 -35 -136 -74 -18 -20 -55 -83 -83 -139 -29 -56
-63 -116 -76 -134 -32 -41 -98 -73 -152 -73 -36 0 -49 6 -77 34 -34 34 -34 35
-34 122 0 49 11 237 24 419 29 389 19 365 146 365 152 0 342 -46 485 -117 39
-20 113 -65 164 -101 118 -80 163 -102 221 -102 63 0 118 28 170 87 85 95 104
208 89 531 -14 305 -33 378 -111 429 -69 46 -131 43 -693 -32 -586 -79 -610
-79 -750 -21 -253 105 -411 135 -606 115z"/>
<path d="M18690 23060 c-60 -12 -107 -37 -155 -81 -61 -56 -89 -111 -88 -173
1 -57 20 -87 104 -164 76 -70 123 -163 144 -287 21 -127 34 -666 42 -1650 5
-651 3 -839 -6 -868 -7 -21 -46 -88 -87 -148 -59 -89 -74 -118 -74 -149 0
-100 160 -163 415 -163 153 0 224 8 480 54 201 36 247 54 277 112 34 67 22
149 -50 347 -65 177 -105 337 -123 491 -14 124 -8 446 9 476 24 43 46 47 267
49 493 5 813 99 1061 311 138 117 267 330 321 528 25 91 28 115 27 270 0 201
-15 271 -93 430 -107 219 -271 380 -496 491 -166 81 -250 99 -470 99 -124 0
-244 -8 -384 -24 -285 -33 -459 -27 -701 23 -178 36 -327 46 -420 26z m1200
-440 c129 -38 256 -146 317 -271 35 -71 63 -191 63 -268 0 -140 -63 -311 -156
-427 -116 -144 -310 -272 -419 -276 -105 -4 -125 60 -101 327 8 94 22 332 31
530 9 198 20 370 25 382 15 36 121 37 240 3z"/>
<path d="M23415 23040 c-603 -51 -1074 -342 -1446 -893 -131 -196 -264 -483
-313 -683 -71 -282 -79 -551 -25 -817 109 -538 476 -965 964 -1121 237 -76
422 -100 760 -99 1046 1 1635 243 1943 799 247 447 283 1097 91 1679 -84 254
-201 447 -370 610 -368 352 -1039 572 -1604 525z m115 -515 c80 -8 181 -22
225 -31 443 -90 661 -400 749 -1064 47 -357 54 -606 22 -785 -39 -214 -126
-393 -257 -524 -204 -205 -429 -249 -844 -166 -478 96 -746 322 -859 725 -61
215 -60 570 3 831 84 353 292 713 532 919 131 113 168 121 429 95z"/>
</g>
</svg>
