<?xml version="1.0" standalone="no"?>
<!DOCTYPE svg PUBLIC "-//W3C//DTD SVG 20010904//EN"
 "http://www.w3.org/TR/2001/REC-SVG-20010904/DTD/svg10.dtd">
<svg version="1.0" xmlns="http://www.w3.org/2000/svg"
 width="5000.000000pt" height="5000.000000pt" viewBox="0 0 5000.000000 5000.000000"
 preserveAspectRatio="xMidYMid meet">

<g transform="translate(0.000000,5000.000000) scale(0.100000,-0.100000)"
fill="#000000" stroke="none">
<path d="M36802 19437 l-143 -73 -62 -104 -62 -105 0 -126 0 -126 43 -55 c30
-40 57 -62 91 -76 36 -16 56 -34 84 -75 19 -30 57 -72 84 -92 26 -21 56 -47
66 -58 23 -26 22 -75 -4 -145 -47 -127 -60 -185 -48 -219 15 -46 53 -73 104
-73 62 0 97 16 125 57 14 21 63 78 110 128 78 83 198 245 213 288 4 9 13 60
22 113 8 52 24 113 36 135 17 34 21 62 22 177 l2 137 -48 99 c-26 54 -56 111
-67 127 -12 16 -64 50 -127 83 l-106 56 -96 -1 -96 0 -143 -72z"/>
<path d="M30525 19250 c-156 -28 -239 -95 -318 -258 -71 -147 -63 -287 23
-385 102 -116 283 -183 490 -181 87 0 114 4 158 23 147 65 272 316 260 520
-10 159 -72 210 -318 260 -120 24 -231 32 -295 21z"/>
<path d="M3025 19149 c-146 -19 -305 -84 -351 -144 -29 -38 -31 -89 -6 -127
10 -15 49 -53 86 -85 76 -64 116 -126 141 -218 24 -86 38 -819 31 -1515 -7
-592 -8 -612 -66 -781 -35 -101 -42 -172 -22 -210 46 -86 243 -134 547 -133
155 0 208 4 287 21 146 32 188 71 188 176 0 63 -20 123 -85 262 -204 437 -253
903 -179 1740 31 361 52 437 154 555 107 125 128 182 92 262 -55 125 -166 168
-507 198 -138 11 -211 11 -310 -1z"/>
<path d="M4725 19106 c-70 -17 -108 -39 -148 -86 -43 -50 -57 -101 -96 -335
-54 -327 -84 -591 -106 -943 -16 -252 -21 -273 -77 -315 -48 -35 -60 -38 -202
-47 -144 -10 -186 -25 -223 -80 -80 -116 39 -185 388 -225 68 -7 116 -35 125
-72 4 -15 2 -79 -5 -143 -45 -417 194 -776 589 -886 49 -14 101 -19 215 -19
131 0 159 3 220 23 116 39 173 94 161 157 -6 29 -21 45 -87 96 -154 117 -247
229 -318 381 -65 138 -106 330 -81 377 23 44 71 55 260 56 181 2 211 6 271 36
44 22 106 89 115 124 12 46 -3 105 -33 137 -64 68 -134 83 -301 68 -152 -15
-205 -8 -244 30 -35 35 -37 80 -9 231 55 300 84 639 84 1004 1 266 0 282 -21
328 -18 41 -29 51 -74 72 -93 42 -296 57 -403 31z"/>
<path d="M18495 19106 c-70 -17 -108 -39 -148 -86 -43 -50 -57 -101 -96 -335
-54 -327 -84 -591 -106 -943 -15 -236 -21 -268 -61 -303 -45 -39 -87 -51 -216
-60 -146 -9 -188 -24 -225 -79 -80 -116 39 -185 388 -225 68 -7 116 -35 125
-72 4 -15 2 -79 -5 -143 -45 -417 194 -776 589 -886 49 -14 101 -19 215 -19
131 0 159 3 220 23 116 39 173 94 161 157 -6 29 -21 45 -87 96 -154 117 -247
229 -318 381 -65 138 -106 330 -81 377 23 44 71 55 260 56 181 2 211 6 271 36
44 22 106 89 115 124 12 46 -3 105 -33 137 -64 68 -134 83 -301 68 -152 -15
-205 -8 -244 30 -35 35 -37 80 -9 231 55 300 84 639 84 1004 1 266 0 282 -21
328 -18 41 -29 51 -74 72 -93 42 -296 57 -403 31z"/>
<path d="M19795 19099 c-90 -22 -165 -101 -165 -174 0 -44 5 -52 92 -165 77
-99 91 -171 108 -560 24 -554 31 -791 36 -1325 5 -485 4 -563 -9 -579 -8 -11
-45 -36 -83 -56 -89 -47 -118 -86 -111 -153 5 -56 48 -109 106 -129 56 -20
412 -16 531 5 206 37 291 82 326 172 23 61 14 120 -42 270 -59 157 -81 252
-95 410 -14 154 -6 455 14 536 20 81 60 144 142 225 107 105 234 166 343 166
158 0 229 -93 302 -395 40 -164 60 -348 60 -547 0 -275 -36 -433 -133 -590
-38 -60 -47 -83 -47 -120 0 -93 82 -173 205 -198 151 -32 595 -48 672 -24 62
19 135 72 160 117 50 88 25 174 -96 335 -120 160 -185 308 -227 511 -13 66
-18 167 -23 479 l-7 395 -33 94 c-80 236 -246 400 -481 478 -25 8 -101 17
-170 20 -158 7 -246 -13 -405 -92 -128 -63 -186 -85 -227 -85 -28 0 -30 2 -24
28 3 15 9 167 12 337 7 333 2 395 -39 457 -34 51 -95 75 -232 92 -66 8 -165
26 -220 40 -123 31 -188 38 -240 25z"/>
<path d="M14635 18494 c-157 -32 -282 -88 -380 -172 -224 -189 -333 -482 -281
-756 61 -316 300 -553 636 -631 245 -57 319 -86 395 -156 87 -81 118 -193 76
-284 -24 -54 -100 -119 -166 -144 -133 -50 -291 -53 -370 -6 -78 45 -102 97
-140 297 -13 70 -34 151 -48 180 -37 81 -107 152 -190 193 -136 66 -247 69
-367 8 -142 -71 -219 -209 -220 -393 -1 -320 268 -580 695 -672 90 -19 378
-16 495 6 334 61 645 176 803 295 164 126 245 304 218 481 -24 154 -77 255
-192 365 -120 114 -245 179 -449 230 -234 59 -303 88 -373 157 -60 60 -88 120
-88 192 -2 127 104 213 276 223 193 13 371 -88 460 -259 49 -95 61 -108 101
-108 41 0 68 32 83 98 30 123 31 582 1 690 -11 41 -59 92 -86 92 -28 0 -51
-19 -89 -71 -36 -50 -38 -51 -80 -47 -28 4 -72 23 -131 60 -160 99 -298 139
-471 137 -54 -1 -107 -3 -118 -5z"/>
<path d="M38215 18494 c-157 -32 -282 -88 -380 -172 -224 -189 -333 -482 -281
-756 59 -307 303 -555 616 -626 320 -73 421 -126 485 -253 49 -98 27 -198 -60
-275 -111 -98 -357 -134 -469 -68 -80 46 -103 97 -141 298 -13 70 -34 151 -48
180 -37 81 -107 152 -190 193 -136 66 -247 69 -367 8 -142 -71 -219 -209 -220
-393 -1 -320 268 -580 695 -672 90 -19 378 -16 495 6 334 61 645 176 803 295
164 126 245 304 218 481 -24 154 -77 255 -192 365 -120 114 -245 179 -449 230
-234 59 -303 88 -373 157 -60 60 -88 120 -88 192 -2 127 104 213 276 223 193
13 371 -88 460 -259 49 -95 61 -108 101 -108 41 0 68 32 83 98 30 123 31 582
1 690 -11 41 -59 92 -86 92 -28 0 -51 -19 -89 -71 -36 -50 -38 -51 -80 -47
-28 4 -72 23 -131 60 -160 99 -298 139 -471 137 -54 -1 -107 -3 -118 -5z"/>
<path d="M32920 18406 c-214 -46 -410 -167 -578 -356 l-71 -80 -27 42 c-126
200 -341 314 -528 279 -81 -15 -156 -51 -211 -102 -54 -50 -75 -86 -75 -129 0
-48 24 -83 96 -141 73 -59 132 -140 164 -227 56 -149 110 -705 110 -1135 0
-205 -4 -215 -102 -262 -40 -19 -91 -52 -112 -74 -34 -34 -40 -48 -44 -93 -5
-68 22 -111 93 -147 48 -25 54 -26 250 -26 223 0 314 14 420 64 78 36 119 71
144 124 33 69 27 119 -34 300 -76 224 -105 355 -112 507 -6 130 5 233 33 317
69 208 228 380 402 433 148 46 278 13 338 -87 78 -131 124 -441 127 -863 2
-226 -5 -277 -55 -371 -22 -42 -47 -70 -99 -109 -79 -60 -101 -93 -101 -154 0
-110 78 -187 217 -216 110 -23 381 0 570 49 221 56 326 106 351 166 37 89 2
185 -115 319 -130 148 -151 215 -151 481 0 381 -42 759 -107 975 -102 340
-308 513 -623 525 -67 3 -129 -1 -170 -9z"/>
<path d="M10420 18319 c-136 -11 -227 -79 -252 -187 -9 -43 -9 -64 1 -100 19
-72 56 -103 138 -117 58 -9 87 -46 79 -97 -5 -32 -280 -703 -295 -720 -3 -4
-82 206 -175 465 -93 260 -179 495 -192 523 -36 78 -79 131 -123 154 -123 62
-250 -25 -356 -244 -101 -210 -274 -638 -360 -894 -43 -127 -38 -127 -99 -5
-135 269 -161 588 -71 896 46 159 28 228 -70 277 l-50 25 -350 -3 c-192 -1
-395 -6 -450 -11 -163 -14 -245 -62 -245 -143 1 -61 39 -89 165 -119 100 -23
142 -49 181 -110 13 -22 191 -450 395 -952 204 -501 381 -930 392 -951 49 -89
115 -98 187 -26 53 53 66 82 296 628 109 259 201 472 204 472 3 0 16 -35 29
-77 91 -311 348 -867 432 -935 66 -53 152 -47 227 18 61 52 86 110 142 322 83
316 150 485 383 967 188 389 273 574 298 647 37 111 19 191 -53 236 -68 42
-269 72 -408 61z"/>
<path d="M29315 18319 c-132 -12 -223 -81 -247 -187 -9 -43 -9 -64 1 -100 19
-72 56 -103 138 -117 58 -9 87 -46 79 -97 -5 -32 -280 -703 -295 -720 -3 -4
-82 206 -175 465 -93 260 -179 495 -192 523 -36 78 -79 131 -123 154 -123 62
-250 -25 -356 -244 -101 -210 -274 -638 -360 -894 -43 -127 -38 -127 -99 -5
-135 269 -161 588 -71 896 46 159 28 228 -70 277 l-50 25 -350 -3 c-192 -1
-395 -6 -450 -11 -163 -14 -245 -62 -245 -143 1 -61 39 -89 165 -119 100 -23
142 -49 180 -110 14 -21 192 -449 396 -951 204 -502 381 -931 392 -952 72
-130 182 -86 272 108 23 50 124 288 225 529 101 240 187 437 190 437 3 0 16
-35 29 -77 91 -313 348 -867 433 -936 91 -74 228 -25 294 105 14 27 47 134 74
236 85 326 149 484 429 1067 241 499 263 552 268 635 4 56 2 70 -19 99 -32 48
-97 78 -203 95 -121 20 -177 23 -260 15z"/>
<path d="M30600 18294 c-127 -16 -392 -56 -424 -65 -59 -16 -96 -61 -96 -116
0 -80 45 -134 156 -184 95 -42 94 -39 94 -289 0 -118 -5 -287 -11 -375 -16
-249 -14 -571 6 -699 32 -214 98 -370 200 -471 138 -138 320 -180 473 -110 69
32 109 67 133 120 39 83 23 123 -101 250 -157 163 -190 285 -190 720 0 236 17
444 56 680 43 269 34 375 -41 462 -52 61 -147 90 -255 77z"/>
<path d="M23425 18250 c-201 -32 -369 -122 -530 -284 -178 -178 -317 -440
-401 -752 -67 -248 -33 -511 102 -789 93 -193 191 -289 364 -356 293 -113 600
-165 834 -141 276 29 442 103 509 227 20 37 22 53 21 225 -2 354 -32 435 -159
434 -80 -2 -141 -41 -282 -181 -164 -163 -212 -188 -363 -188 -93 0 -111 3
-163 27 -119 56 -218 184 -232 302 -15 115 21 131 261 115 197 -13 408 -2 623
32 138 22 193 42 232 85 42 46 52 94 51 248 -2 208 -25 359 -78 508 -86 245
-257 414 -479 472 -75 20 -231 28 -310 16z m171 -565 c49 -9 100 -23 114 -33
34 -24 77 -116 86 -181 5 -42 3 -62 -10 -86 -23 -42 -87 -82 -154 -96 -73 -15
-443 -7 -492 11 -43 15 -70 44 -70 76 0 82 122 289 184 314 35 14 248 11 342
-5z"/>
<path d="M35345 18250 c-201 -32 -369 -122 -530 -284 -178 -178 -317 -440
-401 -752 -67 -248 -33 -511 102 -789 93 -193 191 -289 364 -356 293 -113 600
-165 834 -141 276 29 442 103 509 227 20 37 22 53 21 225 -2 354 -32 435 -159
434 -80 -2 -141 -41 -282 -181 -164 -163 -212 -188 -363 -188 -93 0 -111 3
-163 27 -119 56 -218 184 -232 302 -15 115 21 131 261 115 197 -13 408 -2 623
32 138 22 193 42 232 85 42 46 52 94 51 248 -2 208 -25 359 -78 508 -86 245
-257 414 -479 472 -75 20 -231 28 -310 16z m171 -565 c49 -9 100 -23 114 -33
34 -24 77 -116 86 -181 5 -42 3 -62 -10 -86 -23 -42 -87 -82 -154 -96 -73 -15
-443 -7 -492 11 -43 15 -70 44 -70 76 0 82 122 289 184 314 35 14 248 11 342
-5z"/>
<path d="M11950 18229 c-337 -40 -661 -270 -740 -527 -49 -158 -5 -287 121
-357 45 -25 65 -30 124 -30 59 0 79 5 123 30 88 48 125 108 152 245 15 77 40
113 97 141 40 20 63 24 138 24 76 0 98 -4 145 -26 110 -52 189 -169 191 -282
1 -32 0 -59 -2 -61 -2 -2 -74 -9 -160 -15 -431 -32 -702 -130 -913 -331 -168
-160 -246 -330 -246 -534 0 -151 41 -265 128 -358 176 -188 534 -240 874 -127
156 52 247 107 365 221 63 61 76 69 105 66 28 -3 41 -15 92 -83 109 -145 212
-227 345 -272 197 -67 425 16 508 186 54 109 28 242 -65 338 -59 61 -104 78
-195 76 -70 -2 -79 0 -92 20 -23 36 -35 201 -35 479 0 416 -31 554 -171 759
-134 198 -368 358 -585 403 -96 19 -216 25 -304 15z m464 -1250 c4 -29 3 -55
-1 -60 -16 -15 -506 -278 -569 -305 l-64 -27 -115 13 c-133 15 -135 18 -82 96
45 66 291 217 399 243 40 10 116 30 169 45 88 24 180 42 235 45 18 1 22 -6 28
-50z"/>
<path d="M7475 14804 c-1598 -107 -4275 -303 -4370 -319 -260 -44 -430 -140
-500 -282 -23 -46 -30 -75 -33 -143 -6 -112 8 -163 113 -425 136 -341 220
-607 290 -918 189 -840 233 -1723 160 -3172 -25 -489 -144 -2640 -155 -2805
-37 -526 -91 -785 -245 -1153 -130 -313 -165 -445 -165 -621 0 -183 46 -303
158 -413 250 -248 812 -295 1702 -143 305 52 878 170 1004 206 217 62 411 173
509 292 149 180 167 417 53 709 -18 49 -77 178 -130 288 -161 332 -233 539
-296 843 -72 353 -95 679 -86 1202 5 343 27 794 38 806 3 2 337 -160 742 -360
405 -201 767 -375 804 -388 99 -34 218 -32 292 4 174 85 279 309 309 653 51
587 1 1359 -129 1985 -42 204 -66 277 -110 339 -120 165 -375 176 -601 25 -98
-65 -151 -129 -327 -394 -213 -322 -305 -411 -493 -477 -135 -46 -278 -31
-372 41 -85 65 -142 200 -153 359 -7 104 118 2368 136 2476 31 182 147 252
465 282 486 45 1041 -182 1372 -562 147 -169 229 -319 348 -634 127 -335 196
-458 336 -589 298 -280 664 -212 848 159 69 140 117 315 141 520 18 152 41
1376 30 1560 -17 264 -67 461 -157 614 -49 82 -160 201 -236 253 -141 96 -344
164 -555 187 -133 14 -484 12 -737 -5z"/>
<path d="M29868 14780 c-336 -32 -681 -114 -979 -232 -218 -86 -359 -190 -417
-307 -22 -46 -27 -69 -27 -131 1 -140 65 -227 307 -414 209 -161 284 -256 322
-406 44 -178 161 -1825 210 -2960 53 -1207 77 -2737 57 -3595 -11 -493 -15
-529 -80 -660 -72 -146 -149 -223 -448 -449 -169 -128 -272 -226 -337 -324
-69 -104 -90 -168 -90 -277 -1 -81 2 -97 30 -155 17 -36 46 -83 63 -105 100
-123 290 -223 499 -261 55 -10 775 -35 2547 -89 2609 -81 2862 -85 3055 -50
352 64 564 193 670 410 96 194 97 253 31 1475 -50 922 -61 1050 -102 1200 -86
319 -337 489 -581 394 -195 -77 -347 -260 -578 -694 -195 -368 -362 -593 -631
-855 -260 -252 -514 -407 -776 -472 -107 -27 -298 -24 -393 6 -205 63 -367
205 -469 409 -43 85 -97 248 -120 363 -48 236 -46 115 -43 2959 2 1471 7 2779
12 2905 10 254 26 363 72 502 46 140 107 229 291 426 220 236 266 317 267 468
1 295 -296 542 -895 746 -200 68 -448 125 -695 159 -133 18 -634 27 -772 14z"/>
<path d="M13537 14664 c-274 -59 -529 -319 -755 -769 -164 -327 -4076 -8436
-4105 -8510 -69 -174 -82 -234 -82 -395 0 -143 1 -146 32 -213 160 -338 709
-446 1683 -331 259 31 607 87 710 115 167 45 297 135 342 236 26 59 28 158 4
228 -10 28 -49 108 -88 178 -80 145 -119 239 -151 364 -19 78 -22 113 -22 308
0 237 8 301 66 538 47 194 187 605 244 716 61 122 147 167 294 158 74 -5 1715
-288 2021 -348 427 -85 624 -263 680 -613 19 -117 7 -425 -24 -631 -83 -539
-37 -843 159 -1041 80 -81 155 -122 280 -155 114 -30 395 -36 1940 -44 1179
-6 1297 -5 1370 10 158 32 270 105 352 227 73 110 105 214 111 365 5 135 -5
213 -44 330 -65 195 -137 313 -656 1058 -1050 1509 -1696 2563 -2213 3610
-253 512 -423 901 -590 1350 -265 714 -425 1295 -555 2026 -61 340 -80 428
-121 555 -61 192 -143 337 -253 452 -186 194 -406 274 -629 226z m-729 -4282
c18 -14 31 -54 66 -192 61 -241 122 -437 285 -917 139 -408 212 -642 270 -861
l30 -112 -59 -30 -59 -30 -343 21 c-189 11 -497 31 -684 43 l-341 23 -37 28
c-33 25 -36 31 -36 79 0 58 29 187 58 262 80 202 799 1704 816 1704 6 0 21 -8
34 -18z"/>
<path d="M25165 14640 c-261 -20 -403 -130 -435 -338 -21 -131 11 -277 127
-582 192 -504 295 -961 349 -1540 34 -375 29 -1041 -12 -1530 -67 -810 -261
-2097 -390 -2588 -169 -648 -441 -1130 -799 -1419 -421 -339 -1000 -470 -1440
-326 -388 127 -643 433 -789 948 -106 372 -225 1148 -280 1825 -37 452 -41
561 -41 1215 0 653 3 753 41 1215 46 573 151 1290 269 1840 97 451 98 627 9
809 -89 181 -266 291 -549 342 -141 25 -640 38 -1655 41 -676 3 -729 2 -789
-15 -138 -39 -234 -111 -262 -195 -6 -20 -10 -68 -7 -112 4 -74 9 -86 111
-296 119 -246 167 -364 237 -574 210 -637 286 -1373 260 -2525 -5 -247 -13
-650 -16 -895 -16 -1105 66 -1770 308 -2510 428 -1308 1218 -2243 2256 -2669
282 -116 572 -190 912 -233 140 -17 609 -17 755 0 721 88 1369 359 1932 808
131 104 420 394 521 521 505 639 791 1415 936 2543 40 311 72 692 131 1565 87
1291 222 2142 520 3270 106 401 119 469 119 620 0 212 -53 346 -189 482 -72
71 -98 89 -196 137 -260 126 -455 150 -1299 161 -256 3 -483 7 -505 9 -22 2
-85 0 -140 -4z"/>
<path d="M38837 14370 c-782 -15 -1870 -63 -2287 -101 -322 -29 -563 -91 -739
-191 -202 -114 -391 -317 -501 -538 -164 -327 -241 -800 -212 -1299 34 -590
121 -880 319 -1061 290 -265 802 -168 1139 217 102 118 207 276 374 568 246
430 378 599 585 753 118 88 331 172 434 172 85 0 144 -36 161 -100 5 -20 46
-835 90 -1811 44 -976 103 -2273 131 -2884 66 -1446 64 -1650 -16 -1959 -38
-146 -95 -271 -210 -460 -243 -403 -345 -686 -317 -883 33 -236 216 -373 572
-429 307 -48 958 -18 1465 67 436 73 960 216 1160 317 157 78 266 177 323 291
35 70 37 81 37 165 -1 110 -18 167 -115 376 -363 780 -565 1596 -659 2655 -51
566 -59 827 -72 2175 -13 1508 -10 1986 15 2090 39 161 120 276 233 327 46 21
78 28 148 31 164 7 311 -50 440 -170 126 -117 198 -242 334 -575 107 -261 155
-352 272 -508 82 -110 247 -271 352 -343 395 -272 820 -248 1114 62 162 170
258 371 311 651 14 72 17 148 17 385 -1 520 -56 955 -155 1206 -168 425 -528
646 -1170 718 -559 63 -2442 108 -3573 86z"/>
<path d="M45738 7544 c-290 -45 -620 -172 -847 -327 -169 -114 -337 -315 -431
-512 -116 -246 -173 -602 -137 -865 9 -63 19 -150 22 -194 19 -242 104 -556
208 -762 64 -127 162 -237 337 -375 120 -96 413 -261 584 -329 200 -80 401
-104 681 -81 299 24 497 73 703 171 153 73 231 130 384 278 257 250 342 396
432 743 85 327 94 535 36 818 -36 173 -141 397 -290 620 -130 194 -208 269
-465 448 -232 162 -430 269 -585 317 -195 62 -436 81 -632 50z"/>
</g>
</svg>
