<?xml version="1.0" standalone="no"?>
<!DOCTYPE svg PUBLIC "-//W3C//DTD SVG 20010904//EN"
 "http://www.w3.org/TR/2001/REC-SVG-20010904/DTD/svg10.dtd">
<svg version="1.0" xmlns="http://www.w3.org/2000/svg"
 width="3000.000000pt" height="3000.000000pt" viewBox="0 0 3000.000000 3000.000000"
 preserveAspectRatio="xMidYMid meet">

<g transform="translate(0.000000,3000.000000) scale(0.100000,-0.100000)"
fill="#000000" stroke="none">
<path d="M16105 25418 c-22 -6 -232 -57 -467 -115 -259 -63 -428 -109 -428
-116 0 -13 -678 -5742 -683 -5767 -1 -9 -51 -29 -137 -55 l-135 -42 -3 -114
c-3 -116 -28 -1902 -27 -1906 2 -5 819 -65 1213 -89 l112 -7 0 1143 0 1143
-62 -7 c-35 -4 -87 -10 -116 -13 l-53 -6 6 84 c4 46 17 221 29 389 l21 305
305 76 c168 42 308 73 311 70 3 -3 20 -224 38 -491 18 -267 35 -515 38 -551
l6 -66 -92 -23 -91 -24 0 -942 0 -942 38 -6 c65 -10 1187 -96 1253 -96 10 0
10 818 0 1721 l-6 576 -144 -38 c-79 -22 -145 -38 -146 -37 -1 2 -52 433 -114
958 -392 3342 -581 4965 -581 4981 0 21 -20 23 -85 7z m-305 -2061 c0 -19 27
-492 59 -1053 33 -560 61 -1048 63 -1083 l3 -64 -233 -50 c-128 -27 -235 -47
-237 -45 -4 4 172 2269 177 2273 9 6 145 54 156 54 7 1 12 -12 12 -32z"/>
<path d="M13086 25378 c-3 -7 -12 -109 -22 -225 -9 -117 -20 -213 -23 -213 -4
0 -14 13 -24 29 -33 57 -169 191 -242 240 -41 27 -100 59 -132 71 -79 30 -207
37 -296 16 -372 -87 -685 -577 -802 -1251 -52 -303 -50 -168 -50 -2975 l0
-2625 32 -150 c104 -487 306 -802 605 -939 124 -58 186 -70 348 -70 137 -1
150 1 231 30 407 145 645 645 748 1569 45 404 61 797 61 1522 l0 552 -72 15
c-339 74 -683 145 -686 141 -3 -2 1 -226 8 -497 16 -679 17 -782 1 -853 -33
-148 -109 -228 -217 -228 -165 0 -263 148 -310 468 -21 137 -43 3030 -25 3198
30 280 131 414 322 425 129 7 191 -35 254 -173 74 -160 107 -454 88 -772 -7
-115 -6 -133 7 -133 8 0 173 40 365 88 l350 88 42 1205 c23 662 41 1242 40
1289 l-2 84 -255 38 c-140 20 -274 40 -298 43 -30 5 -43 3 -46 -7z"/>
<path d="M18400 25315 c-30 -8 -93 -34 -140 -57 -70 -34 -101 -58 -180 -137
-103 -104 -159 -190 -217 -335 -143 -358 -149 -895 -17 -1488 93 -419 213
-768 506 -1468 366 -874 494 -1220 577 -1560 54 -221 64 -294 59 -430 -3 -97
-8 -124 -30 -170 -42 -91 -106 -140 -183 -140 -115 0 -189 99 -237 315 -26
118 -36 511 -19 734 7 84 10 156 7 159 -6 5 -716 -174 -724 -183 -5 -5 -81
-3138 -77 -3143 5 -6 595 -76 599 -71 3 3 14 103 25 223 11 120 21 219 23 221
2 2 34 -32 71 -75 93 -111 195 -192 312 -250 118 -59 189 -79 305 -87 345 -22
604 262 780 855 109 367 164 788 165 1247 0 315 -10 391 -87 700 -117 468
-302 925 -798 1965 -389 816 -467 1015 -477 1216 -5 93 -3 106 20 156 30 66
75 103 144 119 63 15 107 7 166 -31 97 -61 174 -205 219 -411 21 -95 23 -130
23 -391 0 -185 4 -288 10 -288 17 0 706 137 709 141 3 3 67 1750 88 2369 l2
55 -300 82 c-164 45 -300 81 -300 80 -1 -1 -10 -87 -19 -192 -9 -104 -20 -200
-23 -212 -6 -20 -14 -14 -66 57 -143 194 -345 345 -551 410 -91 29 -283 37
-365 15z"/>
<path d="M9665 25143 c-11 -2 -166 -38 -345 -79 -515 -118 -1164 -275 -1174
-284 -8 -8 -59 -1570 -51 -1578 2 -3 73 26 157 63 84 37 159 70 166 72 9 4 12
-370 12 -1851 l0 -1856 -27 -1 c-16 -1 -80 -4 -143 -8 l-115 -6 2 -35 c0 -19
4 -447 8 -952 l7 -916 97 -6 c157 -10 574 -25 929 -32 l332 -7 0 990 0 990
-192 -1 -193 -1 -3 752 -2 752 52 -5 c333 -35 522 -291 598 -812 45 -312 49
-667 14 -1462 -19 -424 -14 -851 10 -1000 38 -238 119 -375 235 -396 31 -6
910 12 917 19 1 1 -22 443 -52 982 -29 539 -54 985 -54 991 0 7 -19 9 -54 6
-123 -10 -212 40 -259 146 -52 115 -54 137 -87 790 -25 504 -130 774 -360 927
-75 50 -196 99 -273 110 l-48 7 79 82 c341 351 544 900 592 1602 62 915 -186
1799 -556 1980 -42 20 -74 28 -127 30 -40 2 -81 0 -92 -3z m-171 -1637 c121
-71 182 -226 193 -496 15 -371 -69 -666 -218 -765 -33 -21 -72 -33 -178 -51
-74 -13 -141 -24 -148 -24 -15 0 -18 426 -6 977 5 281 8 322 22 327 9 2 54 19
101 36 102 37 166 36 234 -4z"/>
<path d="M20554 24548 c3 -227 8 -717 11 -1088 3 -371 8 -776 11 -899 l6 -224
87 6 c47 4 190 16 316 27 127 11 235 20 241 20 8 0 10 59 6 208 -8 346 24 616
86 726 41 71 70 90 136 89 106 -3 177 -65 217 -192 20 -62 22 -97 30 -536 42
-2469 42 -2506 30 -2618 -12 -110 -45 -232 -78 -285 -48 -77 -134 -141 -213
-157 -19 -3 -43 -9 -54 -12 -18 -5 -18 -25 -12 -642 3 -350 9 -797 12 -995 l6
-358 42 6 c121 20 1385 291 1393 300 5 5 -57 1741 -63 1784 -5 31 -7 32 -51
32 -136 0 -234 91 -277 256 -35 135 -37 257 -27 1504 12 1393 15 1540 35 1631
26 119 79 193 152 209 35 8 40 6 68 -24 17 -18 39 -55 49 -83 41 -115 49 -195
54 -576 l5 -368 67 6 c276 24 429 35 472 35 l49 0 0 43 c0 23 16 542 35 1152
19 611 35 1122 35 1137 0 33 25 28 -390 77 -577 69 -1140 125 -1655 166 -159
12 -800 55 -829 55 -5 0 -6 -172 -2 -412z"/>
<path d="M6120 24471 c-255 -103 -465 -192 -467 -197 -1 -5 -41 -272 -87 -594
-171 -1173 -562 -3765 -570 -3777 0 0 -59 -9 -131 -20 l-130 -18 -6 -325 c-4
-179 -8 -505 -10 -724 l-4 -400 235 -63 c338 -91 1003 -263 1018 -263 9 0 12
195 12 895 l0 895 -110 0 c-100 0 -110 2 -110 18 0 29 50 575 53 577 5 3 564
85 580 85 9 0 17 -6 17 -13 0 -7 16 -205 35 -440 19 -235 35 -431 35 -436 0
-5 -26 -12 -57 -15 -32 -4 -73 -10 -90 -13 l-33 -5 0 -754 c0 -415 2 -754 5
-754 3 0 148 -38 323 -84 174 -47 450 -119 612 -161 162 -41 303 -78 314 -81
18 -6 19 17 11 982 -4 544 -9 991 -11 993 -2 2 -66 -5 -141 -16 -76 -12 -139
-20 -140 -19 -1 1 -34 238 -73 526 -121 894 -285 2095 -384 2800 -52 371 -122
873 -156 1115 -34 242 -64 448 -68 457 -6 15 -69 -8 -472 -171z m159 -2405
c34 -483 60 -881 57 -884 -9 -8 -446 -80 -450 -73 -2 4 128 1386 166 1756 3
26 11 33 78 61 41 17 78 29 81 25 3 -3 34 -401 68 -885z"/>
<path d="M23980 24508 c0 -18 11 -314 25 -658 14 -344 25 -637 25 -651 0 -23
6 -28 43 -37 110 -28 178 -127 196 -282 6 -47 12 -362 16 -700 3 -338 10 -871
16 -1185 12 -591 9 -742 -16 -858 -38 -180 -133 -285 -285 -318 l-50 -11 0
-181 c0 -198 21 -1591 24 -1594 4 -5 1085 279 1331 349 l80 23 -2 40 c-2 22
-17 362 -34 755 -17 393 -32 724 -35 736 -3 18 -13 22 -73 27 -139 12 -214 80
-257 234 -25 91 -27 371 -10 1543 17 1148 17 1143 71 1236 28 48 75 74 132 74
l39 0 48 635 c27 350 46 639 42 642 -12 12 -676 120 -1096 178 -102 14 -195
28 -207 30 -20 5 -23 1 -23 -27z"/>
<path d="M4105 24044 c-11 -2 -121 -15 -245 -30 -124 -14 -226 -27 -228 -29
-1 -1 -11 -68 -21 -149 -11 -81 -21 -149 -23 -151 -1 -2 -32 15 -67 36 -242
146 -549 143 -856 -11 -294 -146 -488 -364 -572 -637 -23 -77 -26 -105 -26
-228 0 -152 12 -224 63 -378 71 -211 181 -405 491 -867 234 -350 338 -519 424
-695 121 -249 179 -437 174 -564 -4 -67 -8 -83 -33 -115 -38 -50 -86 -70 -152
-63 -130 13 -213 105 -249 275 -17 78 -19 323 -5 426 6 38 8 71 6 74 -7 6
-670 -68 -677 -76 -7 -8 -73 -1688 -68 -1715 3 -13 75 -47 279 -127 151 -60
275 -108 277 -106 1 1 10 54 19 117 8 63 17 119 19 126 2 6 53 -37 112 -95 60
-59 145 -133 190 -165 108 -77 266 -159 383 -198 82 -28 110 -32 200 -33 101
-1 108 0 180 35 41 20 96 55 123 79 135 120 249 361 310 656 41 194 51 297 52
514 0 179 -3 218 -23 310 -105 470 -369 966 -911 1710 -287 394 -351 501 -359
602 -7 97 51 167 167 202 78 23 129 20 189 -10 61 -30 107 -80 137 -148 42
-95 50 -152 50 -339 0 -97 3 -177 8 -177 16 0 662 163 669 169 6 5 88 1625 88
1741 0 40 0 40 -37 39 -21 -1 -47 -3 -58 -5z"/>
<path d="M26493 23915 c-139 -30 -295 -145 -390 -288 -89 -134 -152 -313 -190
-535 -17 -100 -18 -223 -18 -1967 l0 -1860 22 -81 c68 -254 183 -420 344 -497
94 -44 155 -57 277 -57 185 0 408 69 589 182 101 62 252 202 321 296 263 359
362 833 362 1738 l0 241 -57 7 c-32 3 -192 22 -356 42 -164 20 -299 35 -301
33 -1 -2 4 -175 12 -384 16 -413 13 -452 -33 -531 -36 -62 -98 -95 -186 -102
-151 -11 -230 64 -275 258 -13 53 -17 203 -25 800 -5 404 -8 881 -7 1060 3
309 4 328 26 381 41 104 107 144 232 143 230 -2 352 -156 374 -474 3 -41 2
-115 -3 -165 -4 -49 -7 -91 -6 -92 1 -2 455 23 600 33 l81 5 40 717 c23 394
40 719 38 721 -2 2 -129 55 -283 116 l-279 113 -11 -73 c-6 -40 -14 -98 -17
-129 -4 -31 -8 -56 -10 -56 -2 0 -50 46 -106 103 -247 248 -520 355 -765 302z"/>
<path d="M27795 18363 c-38 -8 -200 -57 -360 -109 -319 -105 -851 -270 -1156
-359 l-196 -57 -7 -122 c-3 -66 -9 -295 -12 -508 l-7 -387 34 9 c95 28 181 -2
229 -77 54 -85 55 -98 36 -736 -9 -320 -21 -766 -26 -992 -12 -511 -12 -510
-43 -571 -45 -89 -161 -174 -259 -190 -26 -5 -38 -12 -38 -23 2 -61 88 -1193
92 -1196 13 -14 1476 370 1665 436 412 146 677 469 785 959 l23 105 -3 1585
c-2 872 -8 1633 -12 1692 -26 308 -147 483 -377 542 -78 20 -272 20 -368 -1z
m-182 -1166 c94 -47 167 -144 203 -274 15 -51 17 -135 15 -728 -1 -389 -6
-708 -13 -760 -36 -313 -178 -586 -365 -705 -101 -64 -251 -89 -323 -52 -19 9
-45 32 -57 51 l-23 34 0 1026 c0 665 4 1049 11 1091 35 220 200 356 420 347
58 -3 90 -10 132 -30z"/>
<path d="M2487 18188 c-3 -13 -166 -732 -362 -1598 -197 -866 -358 -1576 -360
-1578 -1 -1 -65 11 -143 27 l-141 28 -5 -61 c-7 -77 -30 -1136 -25 -1140 5 -4
450 -190 649 -272 232 -94 743 -294 752 -294 5 0 7 307 6 683 l-3 682 -117 35
c-64 19 -119 38 -123 41 -7 8 45 421 55 432 5 6 648 -117 656 -126 4 -5 81
-682 78 -686 -5 -5 -158 17 -180 26 -12 4 -14 -75 -12 -563 l3 -568 85 -33
c286 -113 1288 -483 1307 -483 5 0 0 884 -6 1145 l-6 249 -155 24 c-85 13
-156 24 -157 25 -1 2 -373 1893 -621 3160 -71 362 -131 660 -134 662 -2 3
-112 25 -244 49 -131 25 -361 70 -510 101 -150 30 -274 55 -277 55 -3 0 -7
-10 -10 -22z m603 -1268 l25 -6 69 -687 c38 -378 67 -690 64 -692 -5 -6 -486
100 -495 109 -5 5 172 1251 183 1284 3 10 19 11 66 6 35 -4 74 -10 88 -14z"/>
<path d="M4433 17413 c4 -141 7 -381 7 -533 l0 -276 143 -49 c78 -26 143 -49
144 -49 1 -1 101 -507 222 -1126 388 -1978 550 -2803 554 -2806 13 -13 1047
-348 1053 -341 3 2 94 408 204 902 110 494 201 899 203 901 2 2 85 -418 186
-934 101 -515 187 -944 192 -953 5 -10 103 -42 281 -92 385 -108 777 -211 782
-206 2 2 176 780 387 1729 210 949 384 1727 386 1729 1 2 73 -10 160 -27 86
-18 157 -31 159 -29 1 1 5 304 9 674 l7 672 -33 5 c-19 3 -86 10 -149 16 -244
24 -1104 126 -1217 145 l-33 6 0 -586 c0 -322 4 -585 8 -585 12 0 316 -50 318
-53 4 -5 -401 -2257 -406 -2257 -4 0 -544 2374 -568 2496 l-4 22 104 -19 c56
-10 115 -20 129 -23 l26 -5 7 302 c3 166 6 426 7 577 l0 275 -63 12 c-35 7
-218 39 -408 73 -190 33 -480 88 -645 120 -166 33 -307 60 -314 60 -11 0 -12
-90 -6 -532 4 -293 8 -534 10 -536 1 -1 64 -20 140 -42 76 -22 139 -41 141
-43 3 -3 -391 -2319 -399 -2341 -2 -6 -12 34 -22 89 -10 55 -113 624 -230
1265 -117 641 -212 1166 -210 1168 1 2 59 -10 128 -26 l125 -28 6 190 c3 105
7 365 10 578 l4 387 -76 17 c-254 54 -738 169 -1063 250 -207 52 -382 94 -389
94 -11 0 -12 -47 -7 -257z"/>
<path d="M24275 17359 c-22 -5 -125 -36 -230 -69 -424 -131 -982 -294 -1376
-400 l-157 -42 -6 -92 c-15 -221 -48 -988 -42 -993 3 -3 85 28 183 70 l178 75
6 -396 c4 -219 7 -783 8 -1254 l1 -857 -52 -15 c-29 -9 -100 -28 -158 -44
l-105 -30 4 -468 c2 -258 6 -550 10 -650 l6 -181 215 59 c315 85 635 177 983
280 l307 92 0 644 0 644 -22 -6 c-13 -3 -109 -30 -214 -59 l-192 -54 -7 271
c-3 149 -5 372 -3 496 l3 224 35 8 c90 20 211 27 282 18 122 -15 183 -43 259
-119 172 -173 208 -433 158 -1147 -23 -332 -22 -589 4 -682 19 -66 59 -134 91
-155 40 -27 104 -37 160 -26 52 10 410 131 796 270 l215 77 -3 38 c-6 102
-112 1157 -116 1161 -2 2 -32 -5 -67 -17 -82 -28 -175 -36 -223 -20 -48 15
-91 74 -106 143 -6 29 -17 140 -25 247 -21 286 -52 388 -143 479 -94 93 -209
126 -417 118 -77 -4 -151 -9 -165 -12 -19 -5 -12 4 30 41 380 327 615 743 670
1187 17 136 8 405 -19 517 -77 333 -262 561 -508 625 -63 16 -185 18 -248 4z
m-189 -1138 c93 -42 144 -148 144 -298 0 -225 -85 -408 -233 -504 -42 -27
-111 -56 -220 -90 -87 -28 -161 -49 -163 -46 -2 2 -1 194 2 426 l7 422 31 16
c17 9 76 33 131 54 85 33 112 38 180 38 57 1 92 -5 121 -18z"/>
<path d="M20695 16584 c-137 -41 -371 -109 -520 -150 -148 -41 -273 -78 -276
-82 -3 -4 -130 -592 -282 -1307 -152 -715 -322 -1514 -378 -1776 l-102 -475
-144 -40 c-80 -21 -148 -41 -152 -44 -7 -4 -42 -1198 -35 -1210 5 -10 783 51
1219 95 132 14 241 25 243 25 1 0 2 308 2 685 l0 685 -22 -5 c-86 -20 -222
-44 -226 -40 -6 5 50 452 58 463 7 10 671 195 677 188 8 -7 85 -627 80 -640
-3 -7 -48 -25 -101 -40 l-96 -29 0 -563 0 -564 24 0 c66 0 935 97 1255 141 79
10 147 19 152 19 9 0 1 1180 -10 1306 l-6 81 -154 -49 c-84 -27 -156 -47 -158
-44 -3 3 -176 770 -384 1703 -208 934 -381 1708 -384 1721 -3 12 -11 22 -18
21 -6 -1 -124 -35 -262 -75z m-79 -1897 c41 -380 64 -631 58 -637 -8 -8 -506
-141 -511 -136 -3 2 184 1339 192 1373 4 17 24 28 92 51 l88 29 7 -26 c3 -14
36 -309 74 -654z"/>
<path d="M9906 16438 c-3 -7 -7 -241 -10 -519 l-6 -507 66 -11 c132 -23 223
-73 275 -148 78 -113 83 -175 65 -780 -9 -274 -21 -703 -27 -953 -6 -250 -15
-471 -20 -491 -23 -91 -94 -146 -203 -156 -51 -5 -66 -10 -66 -22 -1 -9 -16
-302 -34 -651 -19 -349 -33 -636 -31 -638 9 -10 1028 -103 1424 -130 l113 -8
-5 56 c-2 30 -26 335 -53 677 l-48 622 -41 7 c-99 16 -163 66 -196 153 -17 45
-23 94 -30 241 l-9 185 204 204 c113 113 208 203 211 200 3 -3 117 -212 254
-464 206 -379 248 -462 240 -478 -18 -32 -78 -49 -191 -55 l-108 -5 0 -79 c0
-43 -5 -304 -11 -579 -6 -275 -8 -503 -5 -506 15 -15 1539 -204 1551 -191 2 2
-71 1351 -74 1366 -1 1 -11 2 -23 2 -13 0 -46 11 -74 24 -39 18 -61 38 -90 81
-22 31 -238 324 -482 651 l-443 594 254 327 c139 181 342 444 450 586 l198
257 114 0 c103 0 115 2 115 18 0 9 20 222 45 472 24 249 43 455 42 456 -1 1
-148 11 -327 23 -311 21 -793 60 -1004 81 -55 6 -101 9 -102 7 -4 -4 -104
-968 -104 -1000 0 -22 3 -22 73 -19 137 7 238 -26 245 -80 4 -33 -61 -129
-241 -353 -165 -205 -705 -849 -716 -853 -8 -3 -21 488 -21 747 1 161 17 276
48 337 49 97 143 150 282 161 l77 6 6 56 c15 150 70 941 66 945 -3 3 -135 14
-294 26 -470 33 -1242 102 -1303 115 -13 3 -24 0 -26 -7z"/>
<path d="M18450 16329 c-179 -26 -497 -69 -707 -95 l-383 -48 0 -583 c0 -321
3 -583 8 -583 4 0 76 7 161 15 85 8 156 13 158 11 5 -5 -399 -2349 -406 -2358
-4 -4 -136 527 -294 1179 -158 652 -286 1187 -284 1189 1 2 61 8 132 14 71 6
130 12 131 13 1 1 4 262 8 581 l7 578 -58 -6 c-113 -13 -562 -45 -893 -66
-184 -11 -377 -23 -427 -26 l-93 -6 0 -196 c0 -109 3 -348 7 -533 l6 -336 141
-8 c78 -3 143 -9 145 -11 3 -2 -53 -347 -123 -767 -236 -1414 -283 -1683 -290
-1657 -18 72 -466 2384 -462 2387 2 2 62 7 133 10 l130 6 7 575 c3 316 5 577
3 579 -2 2 -141 -1 -308 -6 -167 -6 -522 -13 -788 -17 l-484 -7 6 -201 c4
-110 7 -350 7 -532 l0 -331 147 -12 c81 -7 149 -13 150 -14 1 -2 65 -302 143
-667 330 -1553 652 -3065 653 -3066 4 -2 601 -45 831 -60 131 -8 242 -12 246
-7 5 4 99 434 211 955 111 521 204 946 207 944 2 -3 88 -405 191 -895 103
-490 190 -894 194 -898 10 -9 434 -21 789 -22 265 -1 287 0 292 17 5 15 610
2868 723 3407 25 121 49 223 52 227 3 4 76 10 162 14 l156 7 6 225 c4 124 7
429 7 679 0 356 -3 453 -12 452 -7 -1 -159 -23 -338 -50z"/>
<path d="M28210 12848 c-280 -123 -903 -383 -1234 -513 l-249 -98 6 -76 c3
-42 21 -339 38 -661 18 -322 33 -587 35 -589 2 -2 71 24 155 58 83 34 152 61
154 59 1 -2 -46 -86 -106 -188 -60 -102 -198 -335 -306 -518 -108 -183 -200
-329 -204 -325 -4 4 -87 154 -184 333 -98 179 -195 357 -217 397 l-39 72 210
106 c197 98 211 107 211 133 1 43 -43 1207 -45 1210 -1 1 -139 -51 -306 -117
-523 -204 -1131 -428 -1626 -597 -141 -48 -143 -49 -143 -79 -1 -49 62 -1170
65 -1173 2 -2 85 30 185 71 l181 75 403 -482 c221 -264 479 -572 573 -683
l170 -203 7 -102 c15 -256 28 -601 29 -803 1 -256 -10 -323 -73 -451 -67 -136
-212 -252 -387 -309 l-53 -17 1 -691 c1 -381 5 -765 8 -854 l6 -162 385 128
c551 184 1564 547 1614 579 9 5 1 215 -30 810 -23 442 -44 805 -47 808 -2 3
-33 -3 -68 -12 -93 -26 -223 -24 -274 3 -48 25 -76 55 -103 108 -46 93 -47
115 -47 755 l0 605 304 483 c167 266 446 716 621 1000 l318 517 143 76 144 76
7 49 c9 68 10 1294 1 1293 -5 -1 -109 -46 -233 -101z"/>
<path d="M2095 12636 c-367 -73 -537 -340 -497 -780 28 -296 122 -606 307
-1006 119 -258 260 -515 608 -1112 393 -673 557 -983 671 -1274 80 -203 100
-281 100 -391 1 -102 -10 -127 -75 -171 -30 -21 -42 -23 -114 -20 -231 13
-399 197 -456 498 -17 89 -14 382 5 500 8 52 14 95 13 96 -1 1 -148 31 -327
68 -179 36 -402 83 -497 104 l-172 38 -5 -50 c-6 -58 -97 -2234 -96 -2312 l0
-51 258 -121 c464 -216 554 -255 561 -243 4 6 18 81 31 166 13 85 24 155 26
155 1 0 56 -55 121 -121 204 -210 412 -363 658 -484 246 -123 408 -168 595
-167 92 0 131 5 195 24 210 62 374 212 499 457 123 241 196 570 196 886 0 251
-81 516 -285 930 -178 363 -374 690 -808 1350 -522 793 -617 944 -714 1135
-89 174 -110 267 -77 336 24 50 65 68 149 67 214 -3 432 -158 544 -386 55
-112 74 -176 92 -312 11 -84 8 -247 -7 -335 l-6 -36 379 -62 c383 -63 627
-101 629 -98 1 0 27 408 58 906 31 498 59 934 62 970 l6 66 -73 28 c-41 16
-228 89 -417 163 -189 74 -346 133 -348 130 -3 -3 -17 -74 -31 -158 -14 -85
-27 -156 -29 -158 -1 -2 -47 41 -102 96 -320 323 -775 579 -1177 663 -130 27
-353 35 -450 16z"/>
<path d="M5201 11146 c1 -336 4 -645 8 -686 l6 -75 180 -55 180 -56 168 -845
c92 -464 314 -1580 493 -2479 178 -899 328 -1642 332 -1650 5 -8 51 -27 103
-43 388 -117 1213 -347 1243 -347 9 0 16 2 16 5 0 10 512 2320 515 2323 4 5 3
12 244 -1203 127 -638 233 -1169 236 -1181 4 -18 35 -28 272 -82 530 -122
1090 -238 1099 -229 3 3 227 1008 496 2234 270 1225 494 2231 497 2235 4 4 96
-5 206 -20 l200 -28 6 106 c4 58 7 446 8 862 l1 757 -42 5 c-24 3 -171 10
-328 16 -394 15 -1153 62 -1397 86 l-63 6 0 -745 0 -745 33 -5 c17 -4 109 -14
202 -23 94 -9 173 -20 177 -23 4 -4 -107 -652 -247 -1441 -267 -1500 -264
-1485 -270 -1479 -3 4 -174 745 -583 2532 -82 356 -147 649 -146 650 2 2 76
-6 164 -17 88 -10 162 -17 164 -15 7 7 27 1459 21 1469 -4 6 -19 10 -34 10
-76 0 -1006 123 -1521 201 -146 22 -271 41 -279 42 -12 2 -13 -103 -12 -678 2
-374 6 -682 11 -685 5 -3 90 -25 189 -50 166 -41 180 -46 176 -65 -3 -11 -118
-681 -255 -1490 -138 -808 -254 -1478 -258 -1488 -4 -10 -129 641 -301 1578
-162 877 -292 1597 -289 1600 3 4 77 -7 164 -23 l159 -28 2 45 c5 81 22 1425
19 1429 -2 1 -127 25 -277 52 -477 87 -1267 248 -1591 325 l-98 23 1 -612z"/>
<path d="M23835 11549 c-72 -23 -996 -253 -1255 -313 -802 -184 -1555 -333
-2413 -476 -225 -38 -410 -70 -411 -72 -3 -5 36 -2153 40 -2157 5 -5 780 151
919 185 20 5 21 10 17 189 -8 358 41 563 160 670 56 50 116 73 213 82 103 8
172 -14 222 -71 22 -25 45 -62 52 -83 9 -26 16 -155 21 -413 11 -449 26 -996
45 -1640 18 -580 14 -637 -62 -783 -65 -124 -185 -208 -360 -253 -53 -13 -97
-25 -98 -27 -4 -6 28 -1683 32 -1687 17 -18 2026 430 2054 459 6 6 -86 1609
-93 1616 -1 1 -46 -2 -99 -8 -82 -9 -107 -8 -165 6 -153 38 -219 131 -244 343
-6 50 -4 465 5 1124 18 1343 19 1378 43 1461 35 125 103 208 209 256 119 55
194 -9 239 -202 16 -69 19 -122 19 -377 0 -164 0 -298 0 -298 0 0 104 31 230
68 127 38 316 95 422 127 l192 59 5 60 c3 34 26 504 51 1046 24 542 47 1015
50 1053 3 37 2 67 -2 66 -5 0 -21 -5 -38 -10z"/>
<path d="M18600 10684 c-225 -54 -614 -139 -928 -204 -128 -26 -235 -50 -236
-52 -2 -1 -76 -340 -165 -753 -528 -2444 -805 -3711 -812 -3719 -4 -5 -91 -25
-194 -46 -102 -20 -187 -39 -189 -41 -3 -5 -37 -1341 -36 -1466 l0 -83 433 0
c431 0 1151 14 1345 26 l102 6 0 874 0 874 -22 -5 c-46 -9 -299 -37 -303 -33
-5 4 59 528 70 574 4 18 27 25 187 58 101 21 295 62 432 92 138 29 252 51 255
48 9 -9 110 -829 103 -835 -4 -4 -62 -19 -129 -35 l-123 -27 0 -724 0 -724
128 6 c70 3 237 10 372 15 400 17 1342 74 1345 83 0 1 -3 254 -6 562 -4 308
-7 705 -8 883 -1 250 -4 322 -13 322 -7 0 -100 -23 -206 -51 -106 -28 -195
-49 -198 -46 -5 5 -236 1044 -812 3657 -134 608 -181 805 -192 807 -8 0 -98
-19 -200 -43z m-335 -1606 c9 -56 175 -1607 175 -1638 0 -17 -2 -30 -5 -30 -3
0 -146 -27 -317 -60 -171 -33 -318 -60 -327 -60 -15 0 -3 100 109 874 69 481
128 877 131 881 7 6 196 63 216 64 7 1 15 -14 18 -31z"/>
<path d="M15250 10549 c-667 -33 -2121 -44 -2745 -21 -154 6 -281 10 -282 9
-1 -2 75 -1237 77 -1243 0 -1 23 -4 51 -8 161 -22 270 -119 297 -266 6 -30 13
-167 16 -305 4 -137 20 -605 37 -1040 37 -959 40 -1202 16 -1299 -23 -92 -61
-159 -120 -211 -72 -65 -138 -87 -281 -93 l-118 -5 6 -186 c14 -391 66 -1335
82 -1483 l6 -58 661 0 c634 0 1091 9 1577 30 460 20 855 43 863 49 7 7 118
2692 111 2700 -2 2 -126 -13 -276 -33 -150 -20 -347 -45 -438 -57 -90 -11
-165 -21 -166 -22 -1 -1 -7 -112 -13 -247 -17 -345 -25 -416 -54 -480 -65
-146 -191 -234 -372 -261 -217 -33 -412 88 -476 292 -17 55 -19 96 -19 463 l0
402 268 18 c337 21 645 46 651 51 4 5 81 699 78 700 -1 1 -233 -3 -515 -8
-282 -5 -515 -7 -518 -4 -3 3 8 236 25 517 34 556 37 576 101 663 35 48 97 92
149 107 55 15 191 12 252 -6 180 -53 309 -185 344 -351 14 -67 12 -186 -11
-541 l-7 -104 54 6 c30 4 160 18 289 31 129 13 317 34 418 46 164 20 182 24
182 41 0 22 88 2061 93 2156 l3 62 -71 -2 c-38 0 -140 -4 -225 -9z"/>
</g>
</svg>
