<?xml version="1.0" standalone="no"?>
<!DOCTYPE svg PUBLIC "-//W3C//DTD SVG 20010904//EN"
 "http://www.w3.org/TR/2001/REC-SVG-20010904/DTD/svg10.dtd">
<svg version="1.0" xmlns="http://www.w3.org/2000/svg"
 width="5000.000000pt" height="5000.000000pt" viewBox="0 0 5000.000000 5000.000000"
 preserveAspectRatio="xMidYMid meet">

<g transform="translate(0.000000,5000.000000) scale(0.100000,-0.100000)"
fill="#000000" stroke="none">
<path d="M3320 34054 c-333 -42 -613 -170 -827 -377 -233 -225 -333 -475 -333
-830 0 -361 114 -769 282 -1007 198 -283 495 -477 1098 -718 124 -49 250 -101
280 -114 142 -63 272 -174 320 -272 102 -212 -14 -512 -241 -623 -107 -53
-176 -66 -324 -61 -113 4 -142 8 -217 35 -242 84 -453 268 -653 568 -98 147
-160 265 -221 421 -61 157 -87 204 -131 234 -71 49 -182 24 -252 -56 -62 -70
-83 -142 -107 -364 -19 -183 -14 -486 10 -619 65 -353 208 -580 444 -704 48
-25 118 -55 156 -66 201 -62 555 -95 1001 -96 277 0 323 2 432 22 638 116
1118 564 1218 1137 19 112 19 318 0 428 -72 415 -366 754 -872 1007 -133 66
-233 107 -467 191 -88 32 -192 72 -230 89 -166 76 -296 193 -363 327 -37 75
-38 81 -38 184 0 99 2 109 33 172 66 134 239 255 442 310 74 20 108 23 270 23
161 0 195 -3 262 -22 251 -73 403 -204 484 -419 14 -38 46 -145 70 -239 25
-93 56 -193 68 -221 70 -154 225 -117 294 69 25 67 69 310 82 457 22 246 6
595 -36 781 -43 196 -143 305 -289 316 -87 6 -136 -21 -198 -112 -85 -125 -98
-128 -285 -56 -389 150 -616 200 -932 206 -107 2 -211 1 -230 -1z"/>
<path d="M31158 34050 c-162 -29 -291 -111 -304 -192 -9 -52 18 -100 93 -165
153 -135 180 -222 208 -668 26 -441 35 -746 35 -1267 0 -732 -30 -1393 -70
-1537 -26 -92 -26 -92 -121 -228 -100 -141 -132 -209 -133 -282 0 -97 43 -148
150 -176 81 -21 173 -19 364 9 452 67 593 58 860 -51 170 -70 205 -80 310 -93
61 -8 121 -8 215 0 583 50 986 199 1263 464 435 418 507 1092 170 1589 -82
120 -248 287 -334 335 -15 8 -6 21 57 83 124 123 211 271 262 449 122 420 -6
864 -346 1201 -407 405 -1008 563 -1731 454 -206 -30 -269 -31 -372 -4 -285
75 -311 80 -419 84 -60 2 -131 0 -157 -5z m1527 -674 c192 -62 338 -186 425
-361 49 -98 69 -173 77 -285 11 -165 -26 -249 -156 -353 -190 -151 -333 -219
-466 -220 -133 -2 -176 39 -189 183 -3 36 -24 272 -48 525 -47 515 -47 508 22
533 59 21 239 9 335 -22z m86 -1960 c217 -46 316 -183 348 -478 34 -311 -21
-449 -217 -541 -60 -28 -80 -32 -187 -37 -148 -6 -229 2 -257 26 -52 47 -53
55 -56 548 -3 421 -2 460 14 477 15 17 32 19 153 19 78 0 164 -6 202 -14z"/>
<path d="M12984 34020 c-192 -16 -365 -52 -674 -142 -229 -67 -283 -69 -455
-16 -174 54 -253 69 -405 75 -155 6 -313 -12 -440 -53 -61 -19 -85 -32 -110
-61 -29 -33 -32 -41 -28 -85 6 -57 44 -118 146 -232 107 -119 163 -240 198
-426 20 -106 32 -920 33 -2195 1 -931 0 -940 -54 -1050 -13 -27 -57 -102 -96
-165 -96 -153 -149 -264 -149 -312 0 -89 44 -118 179 -118 108 0 966 121 1062
150 95 28 157 73 191 139 24 46 28 65 28 140 0 48 -36 416 -81 817 -50 453
-79 756 -77 801 4 79 19 106 75 129 65 28 102 -10 123 -126 100 -563 363
-1088 716 -1431 163 -157 312 -251 500 -316 109 -38 109 -38 274 -38 194 0
265 16 414 93 125 64 248 184 299 292 53 110 66 199 45 302 -22 102 -57 176
-113 231 -81 82 -171 103 -303 73 -229 -52 -321 27 -455 389 -123 331 -247
741 -247 815 0 62 14 79 153 183 181 136 336 308 432 477 208 366 215 805 19
1141 -212 364 -670 562 -1200 519z m-333 -556 c119 -20 318 -77 386 -110 70
-34 130 -96 167 -174 25 -54 31 -80 34 -157 4 -79 1 -105 -22 -175 -57 -184
-206 -358 -446 -523 -162 -113 -309 -173 -436 -182 l-81 -6 -13 114 c-16 136
-18 419 -6 847 8 267 11 316 25 334 37 45 223 61 392 32z"/>
<path d="M17224 34020 c-192 -16 -365 -52 -674 -142 -229 -67 -283 -69 -455
-16 -174 54 -253 69 -405 75 -155 6 -313 -12 -440 -53 -61 -19 -85 -32 -110
-61 -29 -33 -32 -41 -28 -85 6 -57 44 -118 146 -232 107 -119 163 -240 198
-426 20 -106 32 -920 33 -2195 1 -931 0 -940 -54 -1050 -13 -27 -57 -102 -96
-165 -96 -153 -149 -264 -149 -312 0 -89 44 -118 179 -118 108 0 966 121 1062
150 95 28 157 73 191 139 24 46 28 65 28 140 0 48 -36 416 -81 817 -50 453
-79 756 -77 801 4 79 19 106 75 129 65 28 102 -10 123 -126 100 -563 363
-1088 716 -1431 163 -157 312 -251 500 -316 109 -38 109 -38 274 -38 194 0
265 16 414 93 125 64 248 184 299 292 53 110 66 199 45 302 -22 102 -57 176
-113 231 -81 82 -171 103 -303 73 -229 -52 -321 27 -455 389 -123 331 -247
741 -247 815 0 62 14 79 153 183 181 136 336 308 432 477 208 366 215 805 19
1141 -212 364 -670 562 -1200 519z m-333 -556 c119 -20 318 -77 386 -110 70
-34 130 -96 167 -174 25 -54 31 -80 34 -157 4 -79 1 -105 -22 -175 -57 -184
-206 -358 -446 -523 -162 -113 -309 -173 -436 -182 l-81 -6 -13 114 c-16 136
-18 419 -6 847 8 267 11 316 25 334 37 45 223 61 392 32z"/>
<path d="M21830 34013 c-201 -33 -330 -186 -285 -338 12 -44 29 -67 105 -143
57 -57 98 -108 111 -137 45 -103 32 -219 -45 -380 -34 -71 -524 -916 -542
-934 -15 -15 -195 205 -267 326 -48 78 -119 230 -145 309 -70 206 -93 375 -90
649 2 163 -1 210 -15 256 -38 126 -116 183 -273 199 -49 5 -320 17 -602 26
-544 18 -605 16 -698 -25 -95 -42 -174 -150 -174 -236 1 -90 43 -139 199 -231
114 -66 222 -170 313 -301 135 -193 560 -915 731 -1243 278 -532 323 -808 231
-1431 -13 -91 -31 -189 -39 -216 -17 -57 -67 -135 -159 -247 -80 -97 -101
-147 -93 -218 17 -142 148 -232 376 -258 107 -12 628 -13 817 0 209 13 288 49
341 157 25 51 28 69 28 153 0 129 -19 182 -134 370 -155 255 -196 365 -209
564 -18 267 33 491 179 787 102 205 190 334 798 1167 280 384 521 723 536 751
61 121 40 206 -79 318 -209 199 -505 315 -791 312 -55 -1 -111 -4 -125 -6z"/>
<path d="M28165 34011 c-97 -25 -199 -114 -277 -241 -67 -107 -1902 -3911
-1927 -3994 -40 -131 -26 -212 50 -280 114 -103 359 -129 739 -81 337 44 433
85 447 194 5 33 -4 57 -50 152 -59 120 -77 191 -77 295 0 173 104 530 176 602
27 27 39 32 78 32 64 0 946 -157 1020 -181 107 -36 167 -91 200 -187 28 -79
29 -157 5 -352 -19 -160 -21 -196 -11 -265 20 -139 88 -234 190 -266 39 -12
1109 -33 1377 -27 126 3 146 6 197 30 121 56 175 202 132 363 -23 91 -78 183
-283 479 -492 708 -762 1148 -1006 1641 -160 322 -244 520 -335 795 -86 259
-128 419 -180 690 -49 254 -62 304 -103 389 -74 152 -234 246 -362 212z m-315
-1943 c5 -13 19 -61 31 -108 11 -47 65 -220 119 -385 84 -254 130 -407 130
-428 0 -2 -13 -10 -28 -16 -23 -10 -83 -9 -273 3 -436 28 -410 20 -390 119 18
85 368 837 390 837 7 0 16 -10 21 -22z"/>
<path d="M42896 33985 c-21 -7 -51 -26 -67 -41 -65 -62 -64 -155 6 -348 130
-358 169 -597 169 -1021 -1 -262 -14 -434 -60 -780 -101 -766 -183 -1042 -385
-1290 -97 -119 -276 -229 -429 -261 -104 -22 -264 -15 -343 16 -135 52 -248
176 -308 340 -114 314 -196 1141 -169 1713 18 388 48 643 125 1048 49 262 53
309 29 388 -39 132 -151 191 -389 205 -204 12 -938 10 -983 -3 -62 -17 -102
-57 -109 -107 -4 -35 4 -61 60 -185 108 -239 158 -420 193 -704 15 -121 18
-239 19 -860 1 -779 2 -801 60 -1070 166 -770 616 -1331 1212 -1514 171 -53
261 -66 453 -66 228 0 399 31 589 107 574 227 922 669 1060 1343 48 235 73
457 106 955 40 584 104 1000 231 1487 83 319 79 411 -19 520 -71 78 -188 118
-387 133 -198 15 -617 12 -664 -5z"/>
<path d="M45740 33869 c-511 -19 -777 -41 -875 -74 -143 -48 -261 -146 -327
-270 -91 -173 -127 -436 -97 -713 19 -183 56 -289 124 -356 60 -60 89 -71 195
-71 86 0 101 3 163 32 121 58 198 146 343 395 35 61 84 138 108 173 90 126
217 213 325 222 100 9 84 145 152 -1339 32 -716 59 -1351 59 -1410 0 -213 -31
-336 -123 -491 -75 -127 -101 -181 -126 -261 -25 -81 -27 -133 -6 -184 49
-116 163 -155 450 -155 401 2 898 108 1045 224 115 91 121 158 32 356 -261
578 -330 1135 -320 2578 4 538 4 541 51 609 45 64 154 84 242 42 103 -48 146
-104 230 -301 61 -143 79 -176 148 -263 86 -109 216 -194 326 -211 70 -11 165
4 223 36 104 56 193 190 223 331 27 124 16 438 -21 627 -35 179 -122 300 -267
370 -139 66 -285 85 -837 105 -300 11 -1131 11 -1440 -1z"/>
<path d="M7880 33733 c-441 -45 -798 -182 -1135 -436 -106 -80 -341 -316 -445
-447 -372 -468 -578 -996 -597 -1525 -28 -770 349 -1445 984 -1764 303 -151
646 -215 1153 -215 820 1 1433 135 1835 402 618 411 897 1231 739 2172 -75
449 -235 830 -450 1070 -351 395 -961 674 -1613 740 -95 9 -390 11 -471 3z
m210 -628 c246 -26 377 -59 517 -127 250 -124 425 -361 527 -715 99 -344 162
-886 145 -1238 -18 -352 -131 -637 -334 -839 -87 -87 -142 -127 -238 -171
-126 -57 -192 -69 -382 -70 -184 0 -281 13 -503 66 -553 134 -861 440 -966
959 -50 252 -42 609 19 877 95 414 283 767 565 1056 183 189 234 216 405 216
61 1 171 -6 245 -14z"/>
<path d="M37000 33733 c-441 -45 -798 -182 -1135 -436 -106 -80 -341 -316
-445 -447 -372 -468 -578 -996 -597 -1525 -28 -770 349 -1445 984 -1764 303
-151 646 -215 1153 -215 820 1 1433 135 1835 402 618 411 897 1231 739 2172
-75 449 -235 830 -450 1070 -351 395 -961 674 -1613 740 -95 9 -390 11 -471 3z
m210 -628 c246 -26 377 -59 517 -127 250 -124 425 -361 527 -715 99 -344 162
-886 145 -1238 -18 -352 -131 -637 -334 -839 -87 -87 -142 -127 -238 -171
-126 -57 -192 -69 -382 -70 -184 0 -281 13 -503 66 -553 134 -861 440 -966
959 -50 252 -42 609 19 877 95 414 283 767 565 1056 183 189 234 216 405 216
61 1 171 -6 245 -14z"/>
<path d="M18714 28291 c-78 -36 -130 -129 -153 -279 -24 -149 38 -262 162
-296 28 -8 123 -17 210 -20 88 -4 167 -11 178 -16 26 -14 44 -53 58 -125 44
-232 59 -585 43 -1071 -7 -203 -17 -511 -22 -684 -14 -434 -29 -727 -42 -775
-22 -85 -64 -105 -225 -105 -200 -1 -267 -28 -317 -130 -39 -77 -49 -131 -43
-237 13 -257 69 -293 502 -327 482 -39 700 -43 946 -16 189 21 287 76 306 172
17 87 -17 320 -58 387 -29 48 -85 68 -221 79 -82 7 -128 16 -150 29 -52 29
-86 108 -103 238 -19 146 -19 225 4 510 29 357 44 749 37 946 -13 361 -17 696
-9 751 l8 57 307 -902 c169 -496 353 -1039 409 -1207 262 -787 455 -1135 665
-1196 95 -27 179 1 275 93 113 107 226 279 290 440 114 286 301 909 544 1813
144 535 318 1148 336 1183 17 31 26 18 47 -60 71 -268 76 -629 27 -1823 -25
-613 -34 -729 -59 -779 -24 -45 -57 -54 -236 -61 -184 -7 -206 -13 -259 -77
-64 -78 -89 -197 -71 -335 19 -142 62 -200 173 -232 140 -41 312 -55 867 -73
190 -6 382 6 533 32 184 32 227 122 176 368 -25 124 -47 177 -85 204 -38 26
-109 43 -181 43 -86 0 -132 17 -179 64 -95 95 -102 206 -59 936 25 418 29 693
15 950 -21 391 -12 801 20 860 19 35 53 43 206 50 128 6 158 10 198 30 86 41
123 130 111 265 -3 44 -11 97 -16 118 -14 55 -62 103 -127 129 -55 22 -66 22
-272 18 -118 -3 -318 -4 -445 -4 -200 2 -249 5 -377 28 -233 41 -355 32 -444
-32 -61 -45 -89 -109 -138 -318 -24 -104 -124 -484 -221 -844 -445 -1654 -535
-1991 -535 -2008 0 -18 -18 -42 -31 -42 -14 0 -46 103 -114 360 -169 645 -341
1216 -693 2295 -67 204 -126 396 -132 428 -8 39 -21 69 -41 91 -57 66 -194
102 -316 85 -37 -5 -189 -10 -338 -11 -228 0 -307 4 -509 26 -286 31 -375 33
-432 7z"/>
<path d="M43355 28269 c-429 -20 -734 -40 -785 -50 -121 -24 -135 -48 -135
-229 1 -154 20 -225 77 -282 65 -65 223 -98 469 -98 135 0 177 -9 197 -40 19
-31 30 -191 39 -565 11 -449 8 -598 -17 -983 -29 -458 -61 -680 -129 -912 -43
-146 -84 -224 -151 -291 -108 -108 -236 -151 -455 -153 -122 0 -153 3 -241 27
-418 111 -508 200 -617 607 -27 101 -57 284 -81 490 -36 311 -41 425 -41 1065
0 741 -4 705 85 724 28 6 72 11 98 11 138 0 292 37 364 86 82 57 130 180 132
339 1 79 -2 96 -24 135 -53 94 -135 111 -557 113 -416 3 -1245 -14 -1266 -25
-35 -18 -49 -74 -50 -207 -1 -205 41 -302 151 -349 50 -22 176 -45 311 -58 63
-5 79 -11 102 -33 l27 -27 5 -740 c4 -579 8 -777 21 -914 27 -290 72 -572 122
-772 68 -271 189 -499 365 -683 l89 -93 -47 -6 c-96 -14 -250 -58 -373 -106
-597 -236 -1258 -883 -1757 -1720 -380 -638 -659 -1315 -1007 -2445 -118 -385
-160 -548 -177 -685 -10 -83 -9 -103 5 -152 39 -135 169 -159 268 -50 20 22
84 135 143 251 249 489 473 749 887 1027 185 125 269 155 319 115 l24 -19 -18
-64 c-95 -342 -166 -666 -188 -858 -20 -179 9 -305 92 -395 82 -88 175 -125
319 -125 102 1 147 10 265 55 114 44 247 120 377 215 107 79 317 279 435 416
l71 82 43 -45 c111 -114 324 -220 529 -264 140 -30 427 -33 565 -5 246 48 408
112 612 238 217 135 446 317 547 433 59 69 113 157 127 208 l10 39 32 -25 c18
-13 43 -39 55 -58 31 -44 28 -66 -43 -294 -177 -570 -207 -876 -106 -1090 130
-278 494 -334 971 -150 402 155 755 407 1205 860 l201 202 63 -69 c124 -134
328 -241 551 -289 140 -30 427 -33 565 -5 246 48 408 112 612 238 315 196 559
412 642 568 44 81 49 136 21 195 -26 53 -61 75 -121 75 -73 0 -121 -32 -228
-154 -136 -155 -245 -254 -368 -337 -255 -170 -475 -246 -743 -256 -172 -6
-258 5 -345 46 -115 53 -234 196 -251 299 -8 49 -24 42 171 77 287 52 476 132
609 256 93 87 142 160 178 266 68 198 21 389 -131 525 -118 107 -268 153 -466
145 -448 -18 -837 -359 -926 -812 -18 -90 -18 -300 0 -389 l14 -69 -239 -231
c-381 -370 -500 -474 -701 -610 -256 -172 -541 -289 -662 -271 -60 9 -101 52
-101 105 0 21 50 237 111 481 61 244 113 476 116 515 13 160 -29 210 -385 458
-133 92 -242 171 -242 173 0 3 24 33 53 67 151 172 268 370 301 507 20 83 20
218 1 293 -63 243 -242 365 -475 326 -226 -38 -429 -230 -516 -485 -32 -96
-43 -262 -25 -371 27 -152 154 -355 306 -486 82 -71 84 -73 62 -87 -12 -8 -53
-48 -92 -90 -178 -193 -302 -308 -409 -380 -259 -172 -477 -248 -746 -258
-172 -6 -258 5 -345 46 -115 53 -234 196 -251 299 -8 49 -24 42 171 77 287 52
476 132 609 256 93 87 142 160 178 266 68 198 21 389 -131 525 -118 107 -268
153 -466 145 -448 -18 -836 -359 -926 -812 -27 -138 -16 -340 27 -491 8 -28
-151 -219 -296 -357 -302 -287 -643 -471 -729 -393 -38 35 -42 80 -22 221 26
176 69 356 136 565 73 229 92 341 76 434 -22 131 -80 223 -165 262 -158 74
-471 -28 -761 -246 -49 -38 -91 -67 -93 -65 -1 1 52 121 118 266 91 199 129
271 153 292 18 15 86 53 152 85 546 261 799 407 1118 644 498 372 911 821
1206 1313 219 365 280 589 216 800 l-14 47 27 -6 c15 -3 82 -11 149 -17 363
-37 780 89 1023 308 236 212 407 622 489 1174 36 238 42 324 71 918 22 454 24
630 10 906 -5 105 -6 204 -2 220 10 36 36 50 117 64 234 41 269 54 323 116 47
53 63 100 69 196 8 129 -25 207 -106 249 -95 48 -434 69 -826 49z m-1661
-4279 c18 -18 21 -33 21 -108 -1 -71 -7 -104 -33 -181 -213 -618 -988 -1426
-1882 -1961 -113 -67 -374 -210 -385 -210 -9 0 144 293 240 460 328 571 669
1032 1035 1400 176 177 320 299 490 412 97 65 293 168 386 203 49 18 101 12
128 -15z m1935 -2267 c21 -24 23 -33 17 -93 -17 -186 -133 -424 -241 -495
-111 -73 -185 30 -172 237 9 134 66 240 174 319 100 74 176 85 222 32z m-1564
-577 c101 -78 98 -227 -7 -321 -78 -71 -309 -161 -431 -167 -52 -3 -52 -3 -55
29 -3 34 40 128 127 275 97 164 170 222 273 215 43 -2 65 -10 93 -31z m4790 0
c101 -78 98 -227 -7 -321 -78 -71 -309 -161 -431 -167 -52 -3 -52 -3 -55 29
-3 34 40 128 127 275 97 164 170 222 273 215 43 -2 65 -10 93 -31z"/>
<path d="M8873 28234 c-23 -9 -56 -30 -74 -47 -95 -95 -129 -322 -66 -430 56
-94 117 -117 332 -123 218 -6 222 -9 255 -207 54 -316 54 -756 0 -1912 -11
-236 -22 -455 -26 -485 -8 -81 -30 -135 -61 -149 -14 -6 -89 -16 -167 -22
-170 -12 -221 -23 -265 -56 -91 -70 -127 -314 -70 -469 29 -76 75 -111 175
-132 82 -18 420 -50 651 -63 235 -13 573 0 696 26 87 18 162 59 189 103 54 87
16 381 -60 465 -26 29 -56 38 -186 53 -140 17 -189 38 -223 100 -34 60 -53
196 -53 368 0 144 33 640 46 693 4 13 18 29 31 34 26 9 579 -14 1184 -50 324
-19 331 -21 342 -79 3 -14 1 -83 -3 -154 -5 -70 -14 -250 -20 -400 -11 -269
-21 -367 -42 -413 -19 -42 -69 -57 -218 -65 -153 -9 -201 -19 -251 -53 -71
-48 -104 -162 -97 -336 5 -128 30 -182 105 -227 87 -52 151 -63 508 -85 548
-35 825 -29 992 22 128 40 159 97 150 272 -10 183 -54 291 -130 316 -18 6 -82
15 -143 20 -64 5 -126 16 -145 25 -66 31 -99 105 -120 271 -14 111 -10 220 22
710 25 386 28 645 10 1025 -16 356 1 722 37 782 23 40 51 46 222 51 208 5 226
14 270 143 44 126 21 271 -55 350 -52 54 -117 70 -265 64 -255 -12 -656 -3
-877 19 -246 23 -349 26 -406 10 -54 -15 -103 -62 -136 -133 -105 -223 -39
-416 157 -457 31 -6 116 -11 188 -11 121 1 134 0 159 -20 36 -28 50 -65 69
-174 26 -148 36 -342 36 -680 0 -262 -3 -324 -14 -340 -14 -18 -26 -19 -198
-16 -101 1 -394 11 -653 22 -258 11 -514 21 -568 23 -124 4 -129 9 -139 120
-15 183 -21 742 -9 881 19 230 26 236 256 236 160 0 197 9 233 54 34 44 56
132 56 231 1 77 -3 97 -24 138 -35 70 -87 113 -152 126 -75 15 -145 16 -381 3
-230 -13 -399 -6 -697 28 -204 23 -318 24 -377 4z"/>
<path d="M29225 28239 c-316 -40 -651 -203 -915 -448 -161 -148 -255 -299
-307 -491 -25 -95 -22 -309 5 -412 48 -179 141 -341 278 -487 194 -206 352
-279 825 -380 464 -99 610 -150 800 -276 311 -207 425 -541 269 -785 -44 -69
-112 -126 -197 -167 -107 -51 -167 -62 -346 -63 -435 -1 -765 92 -1082 302
-115 77 -115 78 -126 326 -15 364 -31 430 -119 488 -82 54 -209 70 -285 35
-46 -20 -100 -78 -124 -130 -21 -48 -27 -531 -11 -1031 11 -377 17 -436 56
-512 29 -57 65 -78 143 -85 70 -6 223 21 273 49 37 21 67 72 84 143 9 38 22
55 43 55 10 0 107 -34 217 -75 109 -42 205 -78 213 -80 8 -3 -19 -26 -64 -56
-561 -366 -1176 -1045 -1687 -1864 -400 -641 -647 -1240 -748 -1815 -31 -178
-39 -471 -15 -610 96 -576 511 -845 1124 -729 398 76 785 305 1255 742 85 79
108 96 103 76 -28 -111 -30 -294 -5 -399 33 -136 132 -277 236 -333 262 -142
695 -15 1130 332 118 94 355 319 492 468 52 56 96 101 97 99 2 -1 -2 -66 -9
-145 -33 -418 76 -711 304 -816 216 -99 469 -57 820 135 338 186 660 456 900
755 53 67 103 126 111 133 12 10 32 8 103 -13 153 -45 270 -58 444 -52 173 6
258 22 405 73 55 20 106 36 113 37 8 1 23 -23 36 -60 109 -296 375 -507 736
-584 140 -30 427 -33 565 -5 302 59 519 159 815 375 296 215 458 397 476 534
5 36 2 56 -16 92 -26 53 -61 75 -121 75 -73 0 -121 -32 -228 -154 -136 -155
-245 -254 -368 -337 -255 -170 -475 -246 -743 -256 -172 -6 -258 5 -345 46
-115 53 -234 196 -251 299 -8 49 -24 42 171 77 287 52 476 132 609 256 93 87
142 160 178 266 68 198 21 389 -131 525 -118 107 -268 153 -466 145 -450 -18
-854 -375 -925 -817 -6 -41 -13 -84 -15 -95 -3 -14 -29 -30 -92 -57 -232 -97
-448 -111 -632 -42 -36 14 -67 26 -69 29 -2 2 15 32 39 66 159 235 375 648
409 783 57 227 -6 414 -167 492 -79 39 -203 45 -301 15 -192 -58 -366 -271
-466 -573 -45 -133 -58 -216 -58 -358 0 -127 7 -170 54 -310 36 -111 35 -126
-21 -200 -305 -406 -658 -715 -1026 -897 -104 -52 -146 -65 -207 -65 -111 0
-136 86 -108 373 43 437 204 851 542 1392 114 182 138 237 138 312 0 95 -35
149 -125 191 -102 49 -233 27 -341 -57 -118 -91 -326 -420 -489 -775 l-53
-114 -293 -302 c-549 -566 -746 -757 -899 -869 -117 -86 -267 -150 -381 -164
l-56 -7 -8 48 c-14 96 -7 275 14 381 57 277 147 461 466 958 70 110 143 229
161 265 69 136 68 253 -4 332 -44 48 -71 60 -140 59 -91 -1 -180 -52 -305
-175 -108 -107 -198 -233 -340 -476 -51 -89 -79 -119 -424 -460 -361 -358
-476 -462 -651 -587 -319 -228 -666 -365 -932 -367 -86 -1 -99 1 -142 27 -87
51 -118 124 -118 278 0 191 120 724 261 1158 101 311 112 323 464 506 882 458
1601 971 2129 1516 177 183 257 279 351 419 226 339 293 677 181 912 -14 29
-24 53 -23 54 1 1 22 12 47 24 205 103 330 249 411 480 124 352 41 741 -218
1021 -146 157 -456 356 -716 459 -80 31 -242 75 -462 125 -193 44 -459 129
-521 166 -102 62 -190 176 -233 306 -25 74 -28 183 -6 263 61 229 287 455 547
548 111 39 278 42 410 8 158 -40 300 -124 467 -274 109 -98 113 -110 100 -316
-11 -175 0 -453 21 -529 15 -50 62 -103 108 -119 20 -7 75 -12 122 -12 236 0
280 112 254 644 -7 146 -16 402 -19 570 -4 168 -11 323 -17 344 -23 91 -125
140 -240 117 -85 -18 -120 -46 -174 -137 -10 -18 -24 -13 -195 74 -112 56
-217 102 -269 116 -149 42 -368 56 -535 35z m794 -4084 c16 -8 38 -34 50 -58
41 -84 23 -177 -66 -347 -301 -576 -938 -1162 -1838 -1689 -149 -88 -555 -294
-563 -287 -5 6 256 403 376 571 568 796 1112 1373 1550 1644 99 62 164 94 282
142 103 42 162 49 209 24z m3270 -2666 c-39 -142 -188 -421 -285 -534 l-26
-30 6 110 c9 181 54 307 145 407 41 45 168 134 178 125 1 -2 -7 -37 -18 -78z
m1906 -343 c101 -78 98 -227 -7 -321 -78 -71 -309 -161 -431 -167 -52 -3 -52
-3 -55 29 -3 34 40 128 127 275 97 164 170 222 273 215 43 -2 65 -10 93 -31z"/>
<path d="M32525 28239 c-316 -40 -651 -203 -915 -448 -161 -148 -255 -299
-307 -491 -25 -95 -22 -309 5 -412 48 -179 141 -341 278 -487 194 -206 352
-279 825 -380 464 -99 610 -150 800 -276 311 -207 425 -541 269 -785 -44 -69
-112 -126 -197 -167 -107 -51 -167 -62 -346 -63 -435 -1 -765 92 -1082 302
-115 77 -115 78 -126 326 -15 364 -31 430 -119 488 -82 54 -209 70 -285 35
-46 -20 -100 -78 -124 -130 -21 -48 -27 -531 -11 -1031 11 -377 17 -436 56
-512 29 -57 65 -78 143 -85 70 -6 223 21 273 49 37 21 67 72 84 143 9 38 22
55 43 55 9 0 112 -36 228 -80 296 -112 451 -149 683 -165 401 -27 959 146
1203 374 186 173 291 523 242 811 -61 369 -269 623 -710 872 -210 118 -343
164 -730 253 -194 45 -460 129 -521 166 -102 62 -190 176 -233 306 -25 74 -28
183 -6 263 61 229 287 455 547 548 111 39 278 42 410 8 158 -40 300 -124 467
-274 109 -98 113 -110 100 -316 -11 -175 0 -453 21 -529 15 -50 62 -103 108
-119 20 -7 75 -12 122 -12 236 2 280 112 254 644 -7 146 -16 402 -19 570 -4
168 -11 323 -17 344 -23 91 -125 140 -240 117 -85 -18 -120 -46 -174 -137 -10
-18 -24 -13 -195 74 -112 56 -217 102 -269 116 -149 42 -368 56 -535 35z"/>
<path d="M6090 28219 c-894 -13 -990 -21 -1025 -88 -19 -37 -23 -69 -40 -301
-43 -598 -50 -936 -21 -1065 35 -159 85 -218 200 -236 96 -15 196 3 242 44 85
74 99 155 114 632 12 399 14 422 40 475 41 81 92 101 275 107 158 6 286 -6
370 -36 67 -24 180 -95 201 -126 23 -35 52 -401 59 -745 6 -254 2 -443 -19
-975 -31 -775 -39 -900 -62 -948 -29 -60 -58 -70 -238 -77 -218 -9 -246 -23
-303 -145 -26 -56 -28 -68 -28 -195 0 -150 10 -192 57 -246 57 -65 231 -98
608 -117 527 -25 876 -10 988 44 57 28 91 88 105 184 9 64 8 84 -10 158 -12
46 -34 111 -50 143 -37 79 -72 95 -213 104 -154 10 -206 42 -246 151 -27 76
-31 292 -12 614 24 390 33 975 20 1390 -6 187 -7 410 -4 496 8 181 8 182 107
232 162 81 351 119 496 99 99 -14 138 -35 164 -87 19 -37 20 -67 26 -430 9
-576 35 -700 162 -767 60 -32 184 -32 244 0 47 24 88 85 97 142 4 19 11 215
16 435 6 220 15 445 20 500 5 55 13 199 16 320 6 194 5 224 -10 252 -9 18 -25
37 -36 43 -13 7 -184 12 -498 14 -262 2 -643 6 -847 9 -203 3 -638 1 -965 -4z"/>
<path d="M45720 28219 c-894 -13 -990 -21 -1025 -88 -19 -37 -23 -69 -40 -301
-43 -595 -50 -936 -21 -1065 34 -159 85 -218 200 -236 96 -15 196 3 242 44 85
74 99 155 114 632 12 399 14 422 40 475 41 81 92 101 275 107 158 6 286 -6
370 -36 67 -24 181 -95 201 -126 23 -35 52 -408 59 -750 6 -249 2 -441 -19
-970 -31 -775 -39 -900 -62 -948 -29 -60 -58 -70 -238 -77 -218 -9 -246 -23
-303 -145 -26 -56 -28 -68 -28 -195 0 -150 10 -192 57 -246 57 -65 231 -98
603 -117 526 -26 881 -10 993 44 57 28 91 88 105 184 9 64 8 84 -10 158 -12
46 -34 111 -50 143 -37 79 -72 95 -213 104 -154 10 -206 42 -246 151 -27 76
-31 292 -12 614 24 390 33 975 20 1390 -6 187 -7 410 -4 496 8 181 8 182 107
232 162 81 351 119 496 99 99 -14 138 -35 164 -87 19 -37 20 -67 26 -430 9
-576 35 -700 162 -767 60 -32 184 -32 244 0 47 24 88 85 97 142 4 19 11 215
16 435 6 220 15 445 20 500 5 55 13 199 16 320 6 194 5 224 -10 252 -9 18 -25
37 -36 43 -14 7 -181 12 -493 14 -259 2 -641 6 -847 9 -206 3 -643 1 -970 -4z"/>
<path d="M12982 28199 c-90 -45 -142 -141 -142 -265 0 -141 41 -230 128 -277
42 -23 75 -31 184 -43 155 -17 195 -26 232 -55 43 -33 64 -87 76 -195 14 -120
14 -695 0 -989 -26 -538 -84 -1495 -96 -1566 -9 -58 -39 -78 -141 -95 -140
-22 -240 -51 -278 -79 -44 -34 -69 -89 -90 -195 -21 -103 -14 -193 19 -266 34
-73 71 -93 199 -106 94 -10 124 -8 402 27 250 32 334 38 505 40 113 1 282 9
377 18 208 21 517 23 833 7 341 -17 710 2 815 41 72 27 125 87 153 173 38 114
74 476 92 921 11 249 10 263 -9 340 -25 96 -64 155 -111 172 -49 17 -193 16
-233 -1 -40 -17 -72 -51 -91 -97 -24 -58 -46 -238 -46 -385 -1 -235 -21 -378
-65 -464 -41 -79 -127 -147 -225 -178 -73 -24 -236 -33 -551 -33 -337 1 -431
8 -559 42 -125 34 -226 115 -276 222 l-24 52 0 475 c0 360 3 481 13 500 38 74
225 130 513 152 262 19 265 17 276 -235 8 -189 20 -274 48 -355 42 -118 111
-167 235 -165 158 2 233 79 256 264 12 101 19 1141 8 1320 -8 132 -22 185 -62
228 -61 66 -200 82 -295 35 -69 -34 -92 -76 -132 -234 -17 -69 -45 -151 -62
-182 -57 -108 -180 -195 -308 -218 -65 -11 -191 -16 -348 -12 -105 2 -115 4
-137 27 l-25 24 0 461 c0 518 -1 511 68 529 49 12 494 58 702 72 213 15 627 5
699 -16 126 -38 170 -131 215 -465 13 -96 29 -227 35 -290 13 -138 42 -263 68
-299 33 -44 82 -71 128 -71 101 0 202 57 240 135 27 59 43 157 71 450 23 244
25 309 20 500 -10 378 -44 490 -169 549 -113 53 -266 56 -1002 20 -516 -25
-1255 -6 -1830 46 -177 16 -253 13 -303 -11z"/>
<path d="M24252 28199 c-90 -45 -142 -141 -142 -265 0 -141 41 -230 128 -277
42 -23 75 -31 184 -43 155 -17 195 -26 232 -55 43 -34 64 -87 76 -195 14 -121
14 -698 0 -989 -26 -549 -84 -1494 -96 -1566 -9 -61 -37 -77 -165 -99 -265
-45 -306 -77 -344 -270 -21 -106 -14 -194 21 -267 35 -74 71 -92 197 -105 94
-10 124 -8 402 27 250 32 334 38 505 40 113 1 282 9 377 18 208 21 517 23 833
7 341 -17 710 2 815 41 72 27 125 87 153 173 38 114 74 476 92 921 11 249 10
263 -9 340 -25 96 -64 155 -111 172 -44 15 -189 16 -227 2 -103 -39 -129 -130
-143 -504 -12 -344 -31 -422 -123 -522 -105 -114 -217 -135 -717 -134 -337 1
-433 8 -560 42 -125 34 -226 115 -276 222 l-24 52 0 475 c0 360 3 481 13 500
38 74 225 130 513 152 262 19 265 17 276 -235 8 -189 20 -274 48 -355 42 -118
111 -167 235 -165 158 2 233 79 256 264 12 101 19 1141 8 1320 -8 132 -22 185
-62 228 -61 66 -200 82 -295 35 -69 -34 -92 -76 -132 -234 -17 -69 -45 -151
-62 -182 -57 -108 -180 -195 -308 -218 -65 -11 -191 -16 -348 -12 -105 2 -115
4 -137 27 l-25 24 0 461 c0 518 -1 511 68 529 20 6 177 25 347 43 287 30 335
32 650 32 372 0 421 -6 484 -60 35 -29 74 -108 96 -191 17 -66 57 -350 74
-523 13 -138 42 -263 68 -299 33 -44 82 -71 128 -71 101 0 202 57 240 135 27
59 43 157 71 450 23 244 25 309 20 500 -10 377 -44 490 -168 548 -108 51 -279
58 -778 30 -462 -26 -1165 -23 -1610 5 -190 13 -392 27 -450 32 -171 16 -249
13 -298 -11z"/>
<path d="M36671 28158 c-99 -17 -153 -89 -170 -222 -14 -124 7 -195 71 -228
36 -19 264 -47 383 -48 86 0 132 -15 149 -49 40 -76 62 -412 72 -1067 8 -525
-4 -859 -46 -1362 -31 -374 -35 -388 -98 -425 -24 -14 -66 -21 -174 -28 -224
-15 -329 -27 -382 -45 -102 -35 -163 -138 -173 -290 -4 -61 -2 -87 10 -111 42
-80 159 -93 942 -103 336 -5 651 -13 700 -19 210 -23 506 -11 749 29 482 81
794 211 1005 419 154 153 259 332 327 557 23 75 27 109 28 219 2 251 -68 441
-222 606 -115 123 -308 248 -468 303 -93 32 -196 78 -189 84 3 3 46 22 95 43
237 99 420 251 505 419 37 74 72 199 85 303 41 343 -140 685 -443 837 -162 82
-416 149 -637 169 -132 12 -2054 20 -2119 9z m1824 -508 c297 -24 477 -78 599
-179 92 -78 125 -142 126 -241 0 -90 -32 -154 -118 -239 -54 -54 -91 -79 -187
-128 -238 -120 -357 -158 -803 -253 -272 -59 -294 -62 -310 -47 -22 23 -26
112 -13 282 7 96 8 226 1 415 -11 315 -7 344 44 365 20 9 103 17 212 23 253
13 313 13 449 2z m-140 -1544 c349 -61 633 -177 860 -354 119 -92 186 -190
220 -323 62 -237 -71 -429 -386 -559 -220 -92 -431 -147 -644 -171 -157 -17
-669 -5 -702 16 -28 19 -29 44 -8 246 17 165 40 513 55 839 6 124 13 239 15
256 7 39 25 55 73 65 59 13 417 2 517 -15z"/>
<path d="M30028 22286 c-188 -49 -262 -303 -131 -455 47 -55 102 -82 167 -82
145 0 261 128 260 286 -1 79 -15 114 -71 176 -64 71 -141 96 -225 75z"/>
<path d="M20823 21885 c-188 -58 -338 -261 -412 -556 -23 -92 -41 -254 -34
-309 17 -149 43 -217 128 -344 59 -88 75 -140 57 -186 -13 -33 -150 -223 -270
-375 -121 -153 -352 -383 -463 -462 -206 -145 -348 -206 -484 -206 -213 0
-303 143 -275 434 31 329 116 600 295 942 46 89 78 164 86 202 11 55 10 65 -9
107 -24 55 -56 79 -115 85 -115 13 -187 -46 -349 -285 -334 -493 -588 -769
-891 -965 -107 -69 -147 -87 -199 -87 -140 0 -206 302 -133 608 36 150 120
338 258 578 128 222 137 247 117 320 -22 77 -102 139 -203 158 -98 18 -227
-46 -318 -158 -60 -73 -165 -282 -213 -422 -96 -281 -143 -559 -133 -789 10
-228 63 -378 173 -487 171 -171 405 -193 688 -64 148 68 401 235 521 346 87
80 86 79 69 18 -24 -90 -28 -222 -10 -327 49 -280 213 -477 447 -535 145 -36
366 -14 536 54 389 155 718 464 1093 1025 86 129 119 170 143 180 20 8 98 15
207 18 283 8 469 59 753 205 4 2 7 -30 7 -71 0 -485 301 -841 800 -948 140
-30 427 -33 565 -5 246 48 408 112 612 238 315 196 559 412 642 568 44 81 49
136 21 195 -26 53 -61 75 -121 75 -73 0 -121 -32 -228 -154 -136 -155 -245
-254 -368 -337 -255 -170 -475 -246 -743 -256 -172 -6 -258 5 -345 46 -118 55
-244 208 -248 302 l-2 42 172 32 c205 39 305 71 435 137 232 118 378 329 379
550 1 102 -19 177 -70 255 -76 118 -211 207 -361 239 -110 23 -287 14 -403
-20 -199 -59 -384 -181 -508 -333 -38 -47 -66 -71 -103 -87 -28 -13 -100 -56
-161 -96 -242 -160 -499 -260 -666 -260 l-78 0 18 53 c31 89 89 326 107 432
22 134 22 330 0 419 -43 179 -153 277 -310 275 -34 0 -80 -6 -103 -14z m103
-382 c4 -10 9 -89 12 -175 3 -121 0 -176 -13 -239 -20 -98 -49 -186 -79 -240
l-23 -39 -26 21 c-66 51 -107 160 -108 283 0 168 58 293 175 378 46 33 51 34
62 11z m2159 -357 c101 -78 98 -227 -7 -321 -78 -71 -309 -161 -431 -167 -52
-3 -52 -3 -55 29 -3 34 40 128 127 275 97 164 170 222 273 215 43 -2 65 -10
93 -31z"/>
</g>
</svg>
