<?xml version="1.0" standalone="no"?>
<!DOCTYPE svg PUBLIC "-//W3C//DTD SVG 20010904//EN"
 "http://www.w3.org/TR/2001/REC-SVG-20010904/DTD/svg10.dtd">
<svg version="1.0" xmlns="http://www.w3.org/2000/svg"
 width="3000.000000pt" height="3000.000000pt" viewBox="0 0 3000.000000 3000.000000"
 preserveAspectRatio="xMidYMid meet">

<g transform="translate(0.000000,3000.000000) scale(0.100000,-0.100000)"
fill="#000000" stroke="none">
<path d="M6980 21504 c-92 -33 -167 -102 -218 -197 l-27 -52 -3 -1697 -2
-1698 370 0 370 0 2 1018 3 1018 615 -939 c338 -516 632 -959 653 -983 80 -92
231 -134 353 -99 109 31 187 95 242 198 l27 52 3 1698 2 1697 -370 0 -370 0
-2 -1014 -3 -1015 -111 172 c-712 1097 -1122 1720 -1156 1755 -65 66 -135 95
-243 99 -65 2 -103 -1 -135 -13z"/>
<path d="M10471 21505 c-250 -56 -460 -190 -597 -381 -59 -83 -130 -234 -157
-336 l-22 -83 0 -1015 c0 -965 1 -1018 19 -1085 93 -345 329 -596 657 -700
127 -40 223 -47 552 -43 267 4 311 7 378 26 369 100 639 380 716 742 17 79 18
156 18 1065 0 772 -3 993 -13 1040 -82 375 -325 640 -689 752 -88 27 -89 27
-443 30 -277 2 -369 -1 -419 -12z m717 -758 c55 -36 90 -90 102 -159 7 -37 10
-359 8 -934 l-3 -879 -29 -53 c-34 -61 -98 -108 -160 -117 -22 -4 -147 -5
-276 -3 -199 3 -240 6 -266 20 -46 25 -94 77 -115 123 -18 38 -19 90 -19 940
0 564 4 913 10 936 13 48 70 112 122 138 41 21 54 21 314 19 l271 -3 41 -28z"/>
<path d="M12360 19690 l0 -1831 788 3 c774 4 788 4 865 25 271 77 471 243 599
498 84 165 103 298 95 654 -4 204 -8 259 -25 322 -27 99 -64 187 -113 264 -21
34 -39 65 -39 68 0 4 18 34 39 67 49 76 96 188 117 277 21 94 31 522 15 662
-20 165 -68 294 -164 435 -129 190 -355 334 -591 375 -38 7 -334 11 -823 11
l-763 0 0 -1830z m1524 1060 c72 -46 76 -62 76 -325 0 -249 -4 -272 -59 -318
-54 -45 -82 -48 -456 -45 l-350 3 -3 358 -2 357 373 0 373 0 48 -30z m0 -1460
c72 -46 76 -62 76 -325 0 -249 -4 -272 -59 -318 -54 -45 -82 -48 -456 -45
l-350 3 -3 358 -2 357 373 0 373 0 48 -30z"/>
<path d="M15811 21505 c-250 -56 -460 -190 -597 -381 -59 -83 -130 -234 -157
-336 l-22 -83 0 -1015 c0 -965 1 -1018 19 -1085 93 -345 329 -596 657 -700
127 -40 223 -47 552 -43 267 4 311 7 378 26 369 100 639 380 716 742 17 79 18
156 18 1065 0 772 -3 993 -13 1040 -82 375 -325 640 -688 752 l-89 27 -355 3
c-277 2 -369 -1 -419 -12z m717 -758 c55 -36 90 -90 102 -159 7 -37 10 -359 8
-934 l-3 -879 -29 -52 c-31 -56 -81 -97 -137 -113 -52 -15 -496 -12 -540 4
-57 20 -106 64 -134 119 l-25 51 0 900 c0 564 4 914 10 937 13 48 70 112 122
138 41 21 54 21 314 19 l271 -3 41 -28z"/>
<path d="M17700 19690 l0 -1831 788 3 c774 4 788 4 865 25 170 48 329 142 432
255 147 162 231 338 255 538 6 52 10 443 10 1015 0 572 -4 963 -10 1015 -49
404 -355 729 -754 799 -38 7 -334 11 -823 11 l-763 0 0 -1830z m1524 1060 c30
-19 52 -43 62 -65 12 -29 14 -180 14 -990 0 -1045 3 -996 -59 -1048 -54 -45
-82 -48 -456 -45 l-350 3 -3 1088 -2 1087 373 0 373 0 48 -30z"/>
<path d="M20118 21488 c11 -18 111 -199 222 -403 112 -203 342 -621 512 -928
l308 -558 0 -869 0 -870 370 0 370 0 0 867 0 867 436 795 c241 438 474 861
519 941 45 80 87 155 94 168 l12 22 -423 0 -423 0 -289 -525 c-159 -289 -292
-525 -295 -525 -3 0 -136 236 -295 525 l-289 525 -425 0 -424 0 20 -32z"/>
<path d="M1601 17235 c-250 -56 -460 -190 -597 -381 -59 -83 -130 -234 -157
-336 l-22 -83 0 -1015 c0 -965 1 -1018 19 -1085 93 -345 329 -596 657 -700
127 -40 223 -47 552 -43 274 5 310 7 382 27 245 69 443 210 573 409 104 160
148 307 159 534 l6 128 -370 0 -370 0 -6 -95 c-4 -77 -10 -103 -33 -145 -32
-59 -96 -106 -158 -115 -22 -4 -147 -5 -276 -3 -261 3 -267 5 -334 74 -70 72
-67 17 -64 1036 l3 916 30 43 c17 24 50 57 74 74 l43 30 271 3 c270 3 273 3
317 -21 88 -46 130 -133 130 -267 l0 -60 372 0 371 0 -6 128 c-9 181 -38 306
-102 432 -121 240 -332 414 -601 497 l-89 27 -355 3 c-277 2 -369 -1 -419 -12z"/>
<path d="M4291 17234 c-92 -33 -185 -116 -221 -197 -13 -30 -710 -3409 -710
-3442 0 -3 170 -5 378 -5 l377 0 63 318 c35 174 68 338 73 365 l11 47 354 0
c195 0 354 -1 354 -2 1 -2 34 -165 73 -363 l73 -360 378 -3 379 -2 -7 42 c-4
23 -160 790 -346 1703 -372 1819 -353 1740 -442 1821 -22 20 -66 48 -97 63
l-56 26 -295 2 c-247 2 -302 0 -339 -13z m428 -1684 c54 -261 96 -478 94 -482
-2 -5 -92 -8 -199 -8 -181 0 -194 1 -194 18 0 17 170 875 186 939 4 15 9 23
11 18 1 -6 47 -224 102 -485z"/>
<path d="M6190 15420 l0 -1830 370 0 370 0 0 730 0 731 358 -3 358 -3 42 -28
c54 -35 89 -89 102 -156 6 -33 10 -292 10 -662 l0 -609 370 0 370 0 0 628 c0
627 -5 750 -37 867 -19 71 -81 210 -124 276 l-30 47 34 49 c54 76 97 168 125
272 25 94 26 104 26 416 1 299 -1 326 -22 408 -87 346 -361 610 -704 681 -67
14 -183 16 -848 16 l-770 0 0 -1830z m1521 1067 c48 -32 77 -80 84 -141 4 -29
5 -138 3 -242 -4 -215 -10 -235 -80 -282 l-42 -27 -373 -3 -373 -3 0 361 0
360 374 0 c371 0 373 0 407 -23z"/>
<path d="M8860 15420 l0 -1830 1175 0 1175 0 0 370 0 370 -807 2 -808 3 -3
358 -2 357 465 0 465 0 0 370 0 370 -462 2 -463 3 -3 358 -2 357 810 0 810 0
0 370 0 370 -1175 0 -1175 0 0 -1830z"/>
<path d="M12250 17235 c-334 -69 -606 -324 -702 -660 -22 -76 -23 -96 -23
-425 0 -305 2 -353 18 -410 76 -269 246 -475 492 -596 167 -82 199 -87 610
-92 404 -4 411 -5 456 -79 23 -37 24 -43 24 -279 l0 -240 -27 -41 c-16 -24
-44 -49 -70 -62 -42 -20 -59 -21 -309 -21 -188 1 -274 5 -300 14 -57 20 -106
64 -134 119 -21 43 -25 65 -25 139 l0 88 -371 0 -372 0 6 -147 c8 -205 43
-329 143 -494 144 -238 406 -409 688 -448 42 -6 209 -11 370 -11 380 0 461 13
641 101 229 111 402 327 473 587 25 95 26 104 26 412 1 294 -1 321 -22 403
-87 344 -363 611 -704 681 -61 13 -146 16 -405 16 -297 0 -332 2 -368 19 -46
21 -79 54 -94 94 -15 38 -15 456 0 494 5 15 22 41 37 56 53 56 57 57 365 57
278 0 285 0 328 -23 87 -46 129 -134 129 -267 l0 -60 372 0 371 0 -6 128 c-9
181 -38 306 -102 432 -121 240 -332 414 -602 497 l-88 27 -380 2 c-286 2 -396
-1 -445 -11z"/>
<path d="M16621 17234 c-92 -33 -185 -116 -221 -197 -13 -30 -710 -3408 -710
-3442 0 -3 170 -5 378 -5 l377 0 63 318 c35 174 68 338 73 365 l11 47 354 0
c195 0 354 -1 354 -2 1 -2 34 -165 73 -363 l73 -360 378 -3 379 -2 -7 42 c-4
23 -160 790 -346 1703 -372 1819 -353 1740 -442 1821 -22 20 -66 48 -97 63
l-56 26 -295 2 c-247 2 -302 0 -339 -13z m428 -1684 c54 -261 96 -478 94 -482
-2 -5 -92 -8 -199 -8 -181 0 -194 1 -194 18 0 17 170 875 186 939 4 15 9 23
11 18 1 -6 47 -224 102 -485z"/>
<path d="M18520 15420 l0 -1831 788 3 c779 4 788 4 867 26 275 76 479 250 606
515 77 162 83 200 83 557 1 268 -2 325 -17 384 -25 97 -69 204 -116 279 -23
35 -41 67 -41 70 0 4 18 34 39 67 22 33 53 94 70 135 53 126 62 187 68 456 8
356 -11 489 -95 654 -137 273 -375 453 -666 504 -38 7 -334 11 -823 11 l-763
0 0 -1830z m1524 1060 c72 -46 76 -62 76 -325 0 -249 -4 -272 -59 -318 -54
-45 -82 -48 -456 -45 l-350 3 -3 358 -2 357 373 0 373 0 48 -30z m0 -1460 c72
-46 76 -62 76 -325 0 -249 -4 -272 -59 -318 -54 -45 -82 -48 -456 -45 l-350 3
-3 358 -2 357 373 0 373 0 48 -30z"/>
<path d="M21961 17235 c-250 -56 -460 -190 -597 -381 -59 -83 -130 -234 -157
-336 l-22 -83 0 -1015 c0 -965 1 -1018 19 -1085 93 -345 329 -596 657 -700
127 -40 223 -47 552 -43 267 4 311 7 378 26 369 100 639 380 716 742 17 79 18
156 18 1065 0 772 -3 993 -13 1040 -82 375 -325 640 -689 752 -88 27 -89 27
-443 30 -277 2 -369 -1 -419 -12z m700 -748 c59 -31 105 -93 119 -160 7 -37
10 -320 8 -938 l-3 -884 -29 -53 c-34 -61 -98 -108 -160 -117 -22 -4 -147 -5
-276 -3 -199 3 -240 6 -266 20 -46 25 -94 77 -115 123 -18 38 -19 90 -19 940
0 564 4 913 10 936 13 48 70 112 122 138 40 20 58 21 304 21 254 0 262 -1 305
-23z"/>
<path d="M23852 15823 c3 -1363 4 -1431 22 -1493 66 -228 191 -417 354 -538
120 -89 292 -166 420 -187 23 -4 42 -10 42 -14 0 -4 -18 -74 -40 -156 -175
-646 -480 -1893 -480 -1960 0 -32 36 -96 69 -123 9 -7 45 -27 80 -44 104 -51
227 -43 283 19 27 29 99 231 413 1158 161 473 324 949 375 1091 9 26 18 32 68
42 86 18 210 73 304 134 205 134 356 352 414 598 17 70 18 177 21 1488 l4
1412 -370 0 -371 0 -2 -1372 -3 -1373 -29 -53 c-34 -61 -98 -108 -160 -117
-22 -4 -147 -5 -276 -3 -199 3 -240 6 -266 20 -46 25 -94 77 -115 123 -18 38
-19 105 -19 1408 l0 1367 -370 0 -370 0 2 -1427z"/>
<path d="M26520 16880 l0 -370 400 0 400 0 0 -1460 0 -1460 375 0 375 0 0
1460 0 1460 400 0 400 0 0 370 0 370 -1175 0 -1175 0 0 -370z"/>
<path d="M14949 13989 c-73 -11 -113 -35 -183 -110 -121 -128 -248 -344 -390
-664 -82 -185 -216 -525 -216 -547 0 -6 -19 7 -43 29 -53 49 -115 85 -187 109
-79 27 -234 24 -315 -5 -377 -137 -761 -708 -891 -1327 -24 -111 -28 -153 -28
-304 -1 -195 11 -265 64 -376 47 -97 116 -166 218 -217 82 -40 90 -42 176 -42
116 0 179 27 272 117 121 116 215 284 334 598 120 316 160 406 139 309 -37
-162 -51 -476 -28 -605 44 -252 168 -412 359 -464 61 -17 207 -14 282 6 299
77 556 346 783 817 173 361 323 855 400 1320 4 28 11 37 25 37 38 0 133 -43
171 -77 94 -85 70 -223 -142 -825 -228 -648 -262 -818 -198 -1023 48 -157 165
-252 349 -287 69 -13 169 -4 243 21 153 53 294 185 388 364 l36 68 22 -58 c30
-78 72 -142 130 -196 58 -54 106 -80 192 -102 148 -39 267 1 387 130 118 127
192 272 341 670 46 121 87 224 92 230 5 5 1 -16 -10 -48 -56 -162 -88 -415
-71 -563 22 -196 95 -324 225 -392 46 -25 60 -27 165 -27 110 0 118 1 175 32
75 39 152 107 216 191 l49 65 0 -58 c0 -68 20 -104 80 -147 147 -106 427 -111
499 -9 10 14 29 75 41 135 96 474 442 1340 632 1580 97 123 192 130 174 13 -4
-22 -56 -171 -115 -331 -158 -421 -263 -789 -313 -1092 l-21 -133 29 -57 c96
-188 472 -248 586 -93 11 15 31 83 48 160 105 498 360 1183 546 1472 107 165
224 220 224 105 0 -53 -25 -124 -142 -398 -224 -526 -298 -775 -298 -999 1
-212 76 -348 234 -422 245 -115 488 -15 690 284 33 48 61 85 64 82 2 -2 15
-34 27 -70 29 -83 73 -151 134 -208 58 -54 106 -80 192 -102 148 -39 267 1
387 130 118 127 192 272 341 670 46 121 87 224 92 230 5 5 1 -16 -10 -48 -56
-162 -88 -415 -71 -563 22 -196 95 -324 225 -392 46 -25 60 -27 165 -27 111 0
117 1 180 34 131 68 263 233 385 478 115 235 351 856 341 898 -12 49 -100 82
-139 53 -9 -7 -66 -112 -125 -233 -173 -350 -297 -542 -378 -580 -42 -20 -60
-14 -82 26 -21 38 -8 261 22 389 94 397 268 773 432 935 l55 54 -20 39 c-26
50 -81 98 -151 131 -48 23 -68 26 -155 26 -92 0 -105 -3 -169 -33 -50 -23 -88
-52 -137 -102 l-67 -70 -21 34 c-33 54 -116 125 -182 156 -292 138 -616 -31
-909 -472 -135 -203 -263 -494 -320 -723 -25 -100 -39 -131 -116 -256 -57 -91
-131 -169 -163 -169 -43 0 -60 66 -42 162 19 98 55 211 166 518 131 364 148
424 149 525 1 70 -3 88 -30 146 -80 167 -253 274 -444 273 -239 -1 -387 -152
-633 -646 -48 -98 -90 -178 -93 -178 -3 0 -3 3 -1 8 3 4 28 88 57 186 49 167
52 184 48 265 -3 74 -9 95 -38 149 -120 225 -449 299 -619 139 -77 -73 -234
-360 -376 -690 -33 -75 -61 -133 -63 -129 -8 25 136 470 202 624 9 21 16 50
16 65 0 44 -41 104 -97 144 -136 95 -321 95 -377 0 -56 -97 -240 -597 -306
-836 -39 -140 -215 -468 -326 -606 -56 -71 -116 -109 -143 -92 -36 23 -42 54
-37 188 14 367 248 959 462 1170 l55 54 -20 39 c-26 50 -81 98 -151 131 -48
23 -68 26 -155 26 -92 0 -105 -3 -169 -33 -50 -23 -88 -52 -137 -102 l-67 -70
-21 34 c-33 54 -116 125 -182 156 -222 105 -460 34 -699 -209 -205 -208 -378
-509 -487 -845 -64 -199 -107 -309 -190 -479 -105 -214 -167 -297 -223 -297
-31 0 -42 40 -30 115 15 91 47 197 180 595 168 500 205 663 180 799 -32 176
-146 308 -348 403 -97 46 -273 93 -391 105 l-83 8 -23 72 c-38 122 -89 183
-188 228 -51 24 -68 27 -142 24 -74 -4 -88 -8 -126 -34 -57 -40 -94 -96 -115
-172 -21 -79 -14 -149 23 -223 25 -49 87 -110 125 -122 26 -9 -31 -290 -109
-533 -135 -421 -335 -797 -527 -991 -104 -106 -154 -130 -200 -100 -47 30 -60
71 -59 181 1 160 69 442 193 808 204 603 441 1058 669 1288 72 72 112 103 158
125 l63 29 0 46 c0 193 -309 413 -531 378z m2830 -1444 c35 -18 41 -32 41 -98
0 -226 -315 -876 -519 -1070 -67 -64 -102 -78 -131 -52 -58 52 13 373 156 703
99 231 227 429 317 491 62 42 93 49 136 26z m4880 0 c35 -18 41 -32 41 -98 0
-226 -315 -876 -519 -1070 -67 -64 -102 -78 -131 -52 -58 52 13 373 156 703
99 231 227 429 317 491 62 42 93 49 136 26z m-8714 -37 c27 -21 27 -24 22 -98
-7 -109 -60 -258 -172 -485 -129 -264 -273 -477 -368 -546 -50 -36 -81 -37
-103 -4 -54 82 44 452 200 759 158 311 319 454 421 374z"/>
<path d="M10346 13259 c-145 -36 -239 -214 -196 -369 16 -59 65 -125 114 -156
46 -29 46 -29 40 -74 -10 -75 -70 -299 -125 -461 -174 -523 -382 -929 -510
-995 -45 -23 -86 -18 -106 13 -15 22 -18 47 -17 133 3 284 184 818 374 1100
59 88 62 117 21 181 -80 127 -349 215 -455 150 -44 -28 -81 -103 -272 -556
-228 -544 -307 -708 -410 -852 -103 -144 -184 -117 -184 60 0 233 145 644 346
978 43 71 64 117 64 138 0 77 -74 159 -200 220 -69 33 -82 36 -162 36 -71 0
-91 -4 -115 -20 -57 -42 -226 -420 -333 -745 -45 -135 -51 -148 -94 -187 -44
-39 -117 -73 -159 -73 -15 0 -18 5 -12 23 3 12 9 114 12 227 4 181 3 217 -16
305 -60 294 -214 469 -456 520 -113 24 -199 17 -346 -26 -163 -47 -310 -194
-375 -375 -34 -91 -50 -234 -38 -318 l10 -66 -55 0 c-133 0 -175 -32 -231
-175 -97 -250 -143 -529 -121 -740 14 -133 33 -203 83 -305 95 -194 271 -294
539 -307 393 -19 674 243 899 839 l38 102 51 13 c28 7 70 22 92 34 l42 21 -7
-44 c-33 -204 -39 -261 -40 -398 -1 -243 43 -389 146 -486 62 -58 125 -86 210
-92 59 -4 74 -1 130 25 151 72 295 284 473 695 33 75 61 136 62 134 2 -2 -3
-45 -12 -97 -62 -383 48 -659 298 -743 87 -29 181 -39 269 -27 371 50 616 452
967 1586 38 121 83 283 101 360 18 77 34 145 35 152 3 9 15 8 52 -1 72 -19
128 -52 155 -88 20 -29 23 -44 22 -128 -1 -110 -21 -183 -129 -480 -212 -582
-265 -771 -265 -942 0 -164 36 -265 127 -356 121 -121 325 -163 499 -102 76
26 181 98 241 164 132 146 217 331 438 959 54 151 75 225 71 243 -13 49 -108
82 -149 52 -9 -7 -52 -101 -96 -208 -164 -406 -270 -612 -357 -691 -39 -35
-58 -40 -83 -23 -48 34 -21 153 123 551 118 326 162 461 192 593 50 222 20
367 -105 503 -141 152 -332 231 -663 272 l-47 6 -10 51 c-15 66 -66 162 -105
195 -73 62 -196 93 -280 72z m-2946 -738 c47 -37 105 -156 126 -256 20 -97 23
-283 5 -382 -15 -83 -23 -88 -93 -52 -126 64 -220 249 -235 459 -15 221 76
328 197 231z m-354 -890 c88 -77 242 -141 341 -141 53 0 54 -10 14 -107 -76
-185 -218 -334 -321 -337 -53 -1 -88 27 -124 97 -51 103 -47 273 11 450 14 42
28 77 30 77 3 0 25 -17 49 -39z"/>
<path d="M5983 12828 c-14 -7 -36 -44 -64 -107 -219 -504 -431 -943 -556
-1149 -123 -202 -230 -322 -288 -322 -50 0 -69 64 -54 175 30 230 162 613 346
1010 70 151 74 162 63 197 -23 81 -151 151 -277 152 -101 1 -112 -9 -204 -190
-127 -251 -258 -611 -333 -916 -164 -665 -87 -1043 220 -1083 61 -9 159 14
224 52 75 43 201 178 279 298 82 126 189 338 252 502 23 62 44 111 47 109 2
-2 -15 -75 -38 -163 -188 -725 -394 -1125 -645 -1249 -75 -37 -84 -39 -174
-39 -83 0 -104 4 -153 27 -72 33 -121 72 -156 122 l-27 39 -7 -39 c-39 -218
52 -467 215 -593 116 -89 241 -131 392 -131 361 0 632 255 805 757 81 234 128
449 230 1043 134 786 171 922 347 1263 9 16 12 39 9 53 -16 62 -127 143 -245
178 -61 18 -175 20 -208 4z"/>
<path d="M24173 11086 c-99 -32 -179 -102 -259 -227 -59 -91 -76 -140 -77
-224 -1 -75 20 -139 68 -201 31 -41 116 -97 179 -118 63 -22 173 -22 236 -1
99 33 183 142 210 272 18 84 8 245 -19 314 -26 69 -89 142 -144 171 -51 26
-139 32 -194 14z"/>
</g>
</svg>
