<?xml version="1.0" standalone="no"?>
<!DOCTYPE svg PUBLIC "-//W3C//DTD SVG 20010904//EN"
 "http://www.w3.org/TR/2001/REC-SVG-20010904/DTD/svg10.dtd">
<svg version="1.0" xmlns="http://www.w3.org/2000/svg"
 width="3000.000000pt" height="3000.000000pt" viewBox="0 0 3000.000000 3000.000000"
 preserveAspectRatio="xMidYMid meet">

<g transform="translate(0.000000,3000.000000) scale(0.100000,-0.100000)"
fill="#000000" stroke="none">
<path d="M20851 25590 c-46 -11 -82 -39 -108 -86 -143 -249 -248 -1098 -229
-1844 12 -462 39 -838 121 -1675 48 -482 74 -695 106 -864 50 -263 138 -553
174 -577 18 -12 43 -10 177 11 86 13 185 34 219 45 189 63 383 215 538 422 98
131 375 587 460 756 199 397 308 723 352 1052 18 137 16 468 -5 620 -70 517
-281 998 -629 1432 -233 292 -427 464 -656 582 -217 112 -396 155 -520 126z
m470 -310 c247 -168 603 -663 775 -1077 220 -529 265 -1036 139 -1568 -109
-464 -442 -1177 -726 -1558 -80 -107 -197 -227 -222 -227 -10 0 -17 13 -20 38
-3 20 -10 269 -16 552 -6 283 -16 666 -21 850 -19 633 -22 1316 -9 2030 7 388
14 768 15 845 1 77 3 143 3 148 2 15 24 6 82 -33z"/>
<path d="M13246 25519 c-212 -35 -311 -136 -352 -354 -22 -124 -30 -581 -15
-962 38 -973 56 -1334 82 -1660 l12 -142 -26 -58 c-14 -32 -47 -114 -72 -183
-59 -157 -149 -334 -182 -360 -14 -11 -35 -20 -47 -20 -55 0 -199 132 -318
291 -81 108 -260 384 -438 674 -232 379 -343 555 -452 718 -55 82 -97 154 -95
161 3 6 40 27 83 45 133 57 332 161 413 214 104 70 235 204 294 304 201 337
135 655 -176 847 -217 134 -425 189 -779 206 -386 18 -519 -19 -586 -162 -88
-185 -131 -452 -152 -933 -32 -752 1 -1263 150 -2340 90 -648 107 -732 178
-913 42 -107 86 -165 137 -182 51 -17 149 -14 213 6 65 21 132 79 132 115 0
13 -11 128 -25 254 -55 526 -81 925 -110 1705 -18 478 -17 467 -6 455 4 -6 43
-98 86 -205 219 -552 459 -951 745 -1241 167 -170 297 -246 458 -269 203 -28
406 77 536 278 24 37 51 85 61 107 9 22 19 36 21 30 2 -5 15 -99 29 -207 40
-311 89 -546 162 -773 57 -176 90 -228 175 -271 94 -48 320 -55 564 -19 260
39 329 71 303 142 -12 33 -68 44 -153 32 -105 -15 -447 -13 -457 2 -4 7 -10
38 -14 68 -10 97 -25 1235 -16 1244 5 5 134 12 288 14 291 6 320 10 343 52 20
38 12 68 -27 100 -77 64 -179 87 -431 100 -127 6 -167 11 -179 24 -18 17 -15
-19 -38 612 -16 432 -33 742 -65 1195 -45 639 -36 877 37 904 9 4 123 6 253 5
252 -2 284 3 337 53 29 27 31 87 5 111 -53 48 -354 154 -516 182 -94 16 -288
18 -370 4z m-1950 -554 c129 -23 239 -58 351 -114 206 -104 353 -251 353 -354
0 -43 -55 -109 -135 -162 -109 -72 -690 -355 -730 -355 -7 0 -15 6 -17 13 -2
6 1 188 5 402 7 276 6 415 -2 474 -8 62 -8 88 0 98 15 17 66 16 175 -2z"/>
<path d="M16876 25519 c-159 -26 -257 -94 -312 -214 -22 -47 -54 -198 -54
-252 0 -20 -3 -24 -17 -18 -124 54 -189 59 -578 46 -313 -10 -650 -36 -1200
-91 -337 -34 -395 -43 -471 -71 -125 -47 -125 -145 -1 -239 93 -71 219 -100
438 -100 l157 0 6 -172 c3 -95 8 -312 11 -483 12 -635 26 -1185 45 -1680 10
-280 22 -598 25 -705 13 -417 43 -627 115 -796 56 -130 316 -164 415 -54 19
21 20 42 27 379 4 196 12 588 17 871 6 283 16 607 23 720 14 255 15 1521 1
1785 -6 105 -8 195 -6 202 3 6 11 14 20 17 31 12 887 116 954 116 5 0 9 -80 9
-177 0 -233 47 -1418 70 -1778 34 -524 102 -1138 156 -1420 44 -227 120 -498
165 -586 49 -97 122 -143 252 -160 95 -13 289 -5 433 16 260 39 329 71 303
142 -12 33 -68 44 -153 32 -105 -15 -447 -13 -457 2 -4 7 -10 38 -14 68 -10
97 -25 1235 -16 1244 5 5 134 12 288 14 291 6 320 10 343 52 20 38 12 68 -27
100 -77 64 -179 87 -431 100 -127 6 -167 11 -179 24 -18 17 -15 -19 -38 612
-16 438 -34 756 -65 1190 -46 635 -36 882 37 909 9 4 123 6 253 5 252 -2 284
3 337 53 29 27 31 87 5 111 -53 48 -354 154 -516 182 -94 16 -288 18 -370 4z"/>
<path d="M8870 25359 c-239 -25 -362 -93 -428 -237 -59 -129 -136 -521 -167
-847 -53 -566 -44 -1566 21 -2195 45 -444 171 -1087 240 -1222 26 -51 69 -89
123 -107 79 -26 215 -1 265 48 29 29 31 36 30 99 0 37 -8 159 -17 272 -29 347
-37 626 -44 1436 -6 763 -6 782 13 791 10 5 51 18 89 28 188 49 393 150 650
320 282 186 394 297 485 480 58 118 80 200 80 310 0 103 -19 178 -75 290 -79
160 -207 276 -417 378 -275 135 -555 186 -848 156z m471 -442 c402 -106 664
-366 555 -551 -75 -127 -573 -469 -861 -593 -55 -23 -112 -43 -127 -43 -26 0
-26 0 -32 93 -3 50 -10 216 -16 367 -5 151 -15 377 -21 502 -7 125 -9 234 -5
243 6 16 25 17 209 12 175 -4 215 -8 298 -30z"/>
<path d="M18425 25161 c-59 -35 -134 -217 -179 -428 -60 -286 -110 -619 -141
-943 -24 -244 -34 -763 -34 -1715 -1 -1098 5 -1171 101 -1218 19 -10 64 -20
99 -23 56 -5 68 -3 99 18 53 35 67 76 79 228 22 273 61 824 81 1145 11 182 38
560 60 840 22 281 46 590 54 688 7 98 16 181 20 184 7 8 6 13 71 -236 175
-666 508 -1726 657 -2094 75 -187 199 -458 232 -507 35 -54 86 -75 176 -75
102 0 165 30 198 96 22 44 23 58 32 490 5 244 14 527 20 629 20 365 51 822 80
1190 16 206 41 521 55 700 14 179 32 378 40 442 21 161 20 165 -18 203 -24 24
-46 35 -81 40 -87 13 -92 1 -150 -407 -49 -339 -94 -733 -176 -1523 -74 -713
-87 -836 -94 -842 -5 -5 -9 7 -81 252 -107 361 -232 732 -426 1269 -140 385
-247 697 -393 1146 -64 199 -117 343 -134 371 -53 83 -177 124 -247 80z"/>
<path d="M6167 24948 c-41 -43 -53 -83 -77 -251 -42 -294 -65 -767 -56 -1167
8 -396 45 -1101 82 -1550 38 -481 115 -966 165 -1046 45 -74 163 -99 261 -56
62 27 66 46 57 249 -5 90 -10 828 -13 1640 -6 1626 -14 1946 -55 2037 -33 75
-56 100 -122 136 -50 26 -78 34 -136 38 -73 5 -73 5 -106 -30z"/>
<path d="M7490 21303 c-199 -129 -514 -733 -841 -1615 l-44 -118 -100 0 c-168
-1 -239 -29 -296 -117 -43 -69 -36 -123 16 -123 11 0 78 -12 148 -27 118 -25
128 -28 124 -47 -2 -12 -37 -122 -76 -246 -131 -409 -245 -825 -320 -1165
-143 -647 -161 -1017 -63 -1307 55 -164 156 -302 280 -384 116 -77 296 -118
423 -95 251 44 535 332 820 831 52 92 54 94 57 60 6 -91 37 -244 66 -331 49
-147 106 -239 216 -349 81 -81 109 -103 190 -143 145 -72 225 -90 405 -90 165
0 240 15 375 72 295 126 576 447 811 929 l70 142 66 30 c238 108 463 341 555
575 27 68 32 94 32 169 1 78 -1 90 -19 102 -19 12 -25 7 -93 -80 -40 -52 -112
-132 -161 -179 -88 -84 -223 -185 -229 -169 -1 5 11 70 27 144 72 324 108 624
97 805 -22 369 -174 631 -441 763 -223 109 -520 129 -760 49 -494 -165 -915
-740 -1110 -1519 -23 -93 -42 -135 -167 -365 -243 -450 -392 -684 -521 -822
-85 -89 -141 -120 -192 -103 -19 6 -46 26 -59 43 -40 53 -50 113 -43 271 18
401 166 1028 416 1766 83 247 174 497 184 506 2 3 75 -1 161 -7 141 -12 161
-11 210 4 124 40 251 210 272 366 5 42 4 52 -10 57 -10 4 -29 0 -43 -7 -20
-11 -74 -14 -219 -14 -106 0 -195 3 -199 6 -16 17 275 637 414 879 147 255
290 450 354 480 17 8 33 23 35 33 9 48 -148 178 -312 257 -129 63 -257 99
-371 106 -87 6 -92 5 -135 -23z m1907 -2329 c37 -41 48 -98 47 -249 -2 -258
-88 -694 -217 -1087 l-43 -133 -96 -6 c-125 -7 -176 -37 -225 -133 -68 -134
-20 -281 97 -301 l41 -7 -51 -96 c-158 -294 -323 -462 -457 -462 -54 0 -104
42 -130 108 -28 72 -25 336 5 497 122 647 467 1464 742 1758 129 139 229 177
287 111z"/>
<path d="M22343 21319 c-74 -22 -198 -170 -320 -382 -324 -563 -764 -1761
-1063 -2896 -59 -220 -61 -226 -161 -420 -289 -558 -502 -904 -611 -997 -73
-61 -131 -63 -159 -5 -36 75 -16 371 46 676 77 377 178 698 380 1200 140 347
155 393 155 470 0 227 -236 334 -865 391 -99 9 -182 18 -184 20 -2 2 4 55 14
118 24 157 18 307 -13 358 -29 46 -73 62 -145 53 -176 -24 -306 -146 -373
-351 -24 -73 -29 -106 -29 -184 0 -104 19 -158 70 -198 l25 -20 -26 -73 c-13
-41 -56 -180 -94 -309 -137 -465 -216 -660 -348 -860 -56 -85 -187 -226 -251
-270 l-34 -24 7 35 c110 537 81 1030 -80 1352 -107 213 -270 349 -490 408
-113 31 -326 31 -437 1 -375 -103 -726 -480 -970 -1042 -188 -434 -290 -938
-274 -1360 7 -184 32 -313 86 -452 138 -351 446 -557 803 -535 117 7 190 26
303 81 308 149 611 489 841 947 l64 126 65 7 c374 38 650 363 885 1041 31 90
207 658 247 798 6 21 8 21 113 -2 157 -35 260 -89 260 -135 0 -37 -32 -134
-175 -526 -172 -472 -207 -576 -249 -741 -131 -511 -124 -921 20 -1215 98
-201 285 -330 504 -350 232 -20 447 145 709 547 53 81 101 154 106 164 7 11 9
-22 7 -108 -4 -146 9 -213 64 -326 46 -93 145 -196 229 -239 71 -35 165 -55
198 -43 88 34 175 229 351 786 120 377 188 565 206 565 12 0 25 -45 64 -227
93 -427 195 -671 364 -871 169 -199 484 -301 693 -223 293 110 662 646 968
1403 166 414 284 847 252 930 -27 72 -90 -23 -391 -597 -378 -722 -549 -1010
-683 -1151 -52 -55 -69 -66 -103 -71 -36 -5 -43 -2 -68 27 -59 70 -143 267
-224 525 -64 201 -102 342 -94 349 3 3 26 6 52 6 56 0 172 29 259 64 155 63
353 232 478 409 122 173 226 412 270 617 26 123 23 328 -5 433 -78 287 -302
440 -585 399 -203 -29 -372 -119 -556 -296 -251 -242 -485 -615 -677 -1081
-18 -44 -33 -75 -34 -70 0 6 18 71 40 145 266 888 745 1997 1095 2535 99 152
188 261 225 274 132 46 -207 296 -503 370 -91 23 -203 32 -244 20z m570 -2369
c15 -28 17 -51 14 -120 -9 -151 -73 -308 -207 -507 -236 -352 -536 -577 -747
-560 -35 2 -67 7 -70 10 -12 13 190 367 330 577 202 303 424 557 537 613 76
38 119 34 143 -13z m-5113 -80 c45 -48 55 -104 54 -305 0 -149 -5 -206 -27
-331 -30 -171 -97 -444 -151 -616 l-37 -118 -82 0 c-104 0 -172 -30 -216 -93
-94 -140 -66 -302 60 -338 24 -7 46 -14 48 -15 7 -5 -91 -179 -157 -279 -182
-275 -377 -354 -469 -190 -121 217 26 935 328 1599 235 514 524 820 649 686z"/>
<path d="M15905 19528 c-2 -7 -24 -92 -49 -188 -134 -529 -362 -1127 -667
-1745 -288 -586 -545 -984 -653 -1011 -96 -24 -128 135 -87 422 72 505 283
1172 622 1969 86 202 96 232 85 250 -44 68 -419 175 -616 175 -96 0 -126 -14
-177 -83 -86 -117 -244 -469 -348 -776 -52 -152 -276 -713 -399 -996 -127
-292 -314 -664 -394 -785 -72 -110 -139 -180 -170 -180 -130 0 -121 354 23
930 105 419 254 850 502 1448 104 249 105 253 87 273 -87 96 -568 202 -704
156 -151 -52 -487 -854 -635 -1518 -101 -452 -134 -861 -90 -1114 77 -442 322
-697 670 -699 94 -1 105 1 168 32 185 92 313 276 540 786 13 28 14 25 25 -65
23 -186 76 -337 168 -476 96 -144 225 -236 379 -268 95 -20 157 -19 249 5 187
48 377 181 583 409 387 428 809 1159 1120 1941 123 309 243 707 243 807 0 83
-86 180 -220 248 -114 57 -244 84 -255 53z"/>
<path d="M25900 15648 c-39 -21 -51 -35 -87 -108 -86 -172 -158 -550 -205
-1080 -17 -193 -17 -1070 0 -1320 29 -422 101 -1216 152 -1685 40 -362 99
-661 180 -907 46 -143 61 -168 98 -168 46 0 324 49 377 66 138 46 272 131 404
259 127 122 207 232 405 555 346 562 533 1019 603 1470 27 173 24 555 -5 745
-87 560 -313 1047 -703 1516 -282 338 -528 522 -854 639 -76 28 -108 33 -205
37 -107 4 -118 3 -160 -19z m546 -317 c225 -159 567 -617 745 -998 112 -240
203 -531 246 -788 25 -151 25 -571 0 -723 -64 -393 -203 -785 -457 -1292 -166
-331 -350 -612 -493 -750 -58 -57 -92 -78 -104 -67 -11 12 -23 339 -33 927 -6
338 -15 737 -20 885 -13 377 -12 1904 1 2230 6 149 11 347 11 440 0 94 2 173
5 178 9 15 32 5 99 -42z"/>
<path d="M4595 15612 c-108 -51 -191 -229 -226 -484 -7 -51 -14 -94 -15 -96
-1 -2 -26 13 -54 32 -91 63 -125 69 -410 74 -254 4 -362 -1 -815 -39 -310 -25
-932 -87 -1012 -99 -109 -18 -189 -48 -217 -81 -45 -54 -31 -115 43 -182 51
-46 100 -71 192 -98 61 -18 108 -23 266 -26 l192 -5 5 -42 c3 -22 10 -324 16
-671 13 -761 24 -1166 50 -1845 10 -283 22 -596 25 -695 11 -330 36 -518 92
-689 41 -123 87 -163 214 -187 108 -20 220 15 252 78 11 22 17 145 26 598 19
911 30 1334 41 1570 13 305 13 1298 -1 1658 -8 197 -9 301 -2 308 12 12 515
79 818 109 116 11 223 23 238 26 l28 6 -5 -84 c-30 -441 -30 -916 -1 -1538 63
-1315 120 -1918 241 -2563 31 -160 46 -189 123 -229 125 -66 358 -15 390 84
33 105 47 700 32 1328 -6 250 -15 680 -21 955 -15 744 -27 1088 -51 1490 -12
200 -19 370 -16 379 5 13 21 16 74 16 133 0 668 -31 691 -40 27 -12 28 -34 7
-181 -34 -247 -56 -533 -80 -1039 -37 -812 -58 -1481 -59 -1910 0 -490 -1
-485 52 -534 30 -26 180 -68 217 -60 80 17 146 74 165 142 12 44 59 422 95
752 95 899 165 2122 165 2889 l0 437 -26 52 c-49 98 -143 156 -256 157 -56 0
-70 -4 -91 -23 -30 -29 -80 -174 -98 -286 -17 -110 -29 -121 -128 -112 -42 4
-218 11 -392 16 -203 5 -324 12 -337 19 -25 13 -29 27 -37 141 -10 136 -34
301 -50 351 -45 136 -231 227 -350 171z"/>
<path d="M7146 15600 c-242 -28 -365 -124 -411 -322 -52 -226 -49 -717 15
-2113 29 -647 108 -1463 176 -1835 50 -274 129 -554 187 -664 74 -140 211
-180 537 -156 162 12 396 52 441 75 72 38 72 105 0 125 -27 7 -60 7 -112 -1
-41 -6 -161 -11 -267 -11 -160 -1 -196 1 -208 14 -18 18 -30 350 -36 983 l-3
390 75 6 c41 4 173 7 293 8 231 1 274 8 296 49 21 40 13 79 -22 106 -87 67
-191 91 -442 106 -137 8 -194 15 -204 25 -11 11 -17 91 -27 382 -22 634 -40
963 -90 1681 -21 300 -16 658 10 719 27 64 42 67 300 59 188 -5 230 -4 276 10
104 31 142 107 81 162 -32 30 -159 85 -301 131 -188 61 -405 88 -564 71z"/>
<path d="M18046 15600 c-239 -27 -360 -120 -410 -316 -53 -210 -52 -595 9
-2004 14 -328 37 -685 54 -870 8 -85 8 -85 -36 -200 -24 -63 -58 -151 -75
-195 -76 -196 -165 -335 -216 -335 -54 0 -216 154 -340 321 -103 139 -247 364
-512 794 -128 209 -295 475 -372 591 -76 116 -138 215 -138 220 0 5 62 39 138
74 319 149 439 226 569 364 164 175 252 384 240 576 -15 244 -173 427 -481
557 -186 79 -350 110 -641 123 -305 14 -451 -7 -541 -75 -87 -67 -173 -359
-204 -695 -30 -335 -40 -1055 -20 -1400 21 -349 62 -748 120 -1165 16 -115 47
-343 70 -505 47 -340 69 -455 111 -595 62 -202 113 -281 197 -305 95 -26 245
6 308 65 31 29 34 38 34 90 0 31 -7 111 -15 178 -51 421 -91 1021 -120 1801
-17 462 -18 534 -6 521 4 -6 25 -55 46 -110 229 -604 497 -1068 803 -1387 110
-114 180 -171 273 -221 193 -106 412 -104 579 3 77 50 191 177 238 267 24 46
43 72 45 63 3 -8 15 -94 27 -190 38 -305 94 -577 167 -805 82 -256 148 -314
378 -330 168 -11 586 39 666 80 72 38 72 105 0 125 -27 7 -60 7 -112 -1 -41
-6 -161 -11 -267 -11 -160 -1 -196 1 -208 14 -18 18 -30 350 -36 983 l-3 390
75 6 c41 4 173 7 293 8 231 1 274 8 296 49 21 40 13 79 -22 106 -87 67 -191
91 -442 106 -137 8 -194 15 -204 25 -11 11 -17 91 -27 382 -22 643 -46 1084
-81 1533 -11 134 -17 328 -18 515 0 265 2 305 18 346 27 71 39 73 301 65 188
-5 230 -4 276 10 104 31 142 107 81 162 -32 30 -159 85 -301 131 -188 61 -405
88 -564 71z m-2003 -605 c285 -64 557 -235 636 -398 34 -69 28 -100 -26 -159
-68 -72 -134 -113 -413 -252 -290 -145 -447 -213 -459 -200 -4 5 -4 194 1 419
7 297 7 436 -1 504 -15 122 -12 125 87 116 40 -4 119 -17 175 -30z"/>
<path d="M21846 15600 c-283 -32 -405 -159 -432 -449 -6 -60 -10 -72 -23 -67
-9 3 -43 15 -76 28 -55 20 -81 22 -310 26 -311 5 -694 -21 -1470 -99 -347 -34
-400 -42 -488 -69 -212 -66 -121 -257 158 -336 43 -12 114 -18 252 -21 l192
-5 5 -42 c3 -22 10 -324 16 -671 13 -761 24 -1166 50 -1845 10 -283 22 -596
25 -695 3 -99 10 -232 16 -295 19 -212 77 -443 127 -502 93 -110 360 -111 415
-1 11 22 17 145 26 598 19 911 30 1334 41 1570 13 305 13 1298 -1 1658 -8 197
-9 301 -2 308 14 14 923 129 1020 129 5 0 9 -98 11 -218 3 -311 50 -1464 73
-1822 17 -277 67 -811 100 -1070 47 -377 98 -631 176 -875 82 -256 148 -314
378 -330 175 -12 596 41 670 84 65 37 65 97 0 119 -30 10 -56 10 -119 1 -45
-6 -166 -11 -269 -12 -155 0 -191 3 -203 15 -18 18 -30 351 -36 983 l-3 390
75 6 c41 4 173 7 293 8 231 1 274 8 296 49 21 40 13 79 -22 106 -87 67 -191
91 -442 106 -137 8 -194 15 -204 25 -11 11 -17 91 -27 382 -22 634 -40 963
-90 1681 -21 300 -16 658 10 719 27 64 42 67 300 59 188 -5 230 -4 276 10 104
31 142 107 81 162 -32 30 -159 85 -301 131 -188 61 -405 88 -564 71z"/>
<path d="M13336 15415 c-148 -24 -211 -51 -286 -121 -65 -61 -101 -141 -148
-329 -71 -286 -110 -580 -133 -999 -16 -302 -6 -1367 15 -1646 44 -570 122
-1059 237 -1477 37 -133 70 -186 139 -220 82 -42 257 -24 309 31 36 38 39 78
20 301 -9 116 -22 307 -29 425 -14 270 -31 1959 -19 1981 5 10 32 23 61 29
233 55 530 205 834 421 323 229 478 476 478 759 0 91 -4 116 -31 193 -17 48
-46 113 -64 144 -48 81 -169 205 -258 264 -145 97 -367 188 -559 230 -129 28
-435 35 -566 14z m429 -426 c471 -65 851 -382 722 -602 -83 -141 -639 -518
-940 -636 -84 -33 -115 -38 -122 -18 -2 6 -11 197 -20 422 -8 226 -20 501 -26
612 -9 161 -9 206 1 218 10 12 41 15 161 15 81 0 182 -5 224 -11z"/>
<path d="M23424 15226 c-91 -41 -167 -242 -239 -628 -73 -394 -119 -783 -135
-1152 -6 -121 -11 -714 -13 -1316 -2 -984 0 -1108 15 -1220 19 -138 31 -164
93 -194 58 -29 173 -29 212 0 53 40 60 65 77 274 23 279 62 841 86 1220 11
179 45 639 75 1023 30 384 55 701 55 704 0 4 4 3 9 -2 5 -6 34 -107 66 -225
187 -707 529 -1800 684 -2188 68 -171 210 -490 241 -539 10 -18 38 -45 61 -60
81 -54 246 -38 314 30 45 45 55 104 55 310 0 548 46 1389 130 2417 16 195 36
450 45 565 9 116 22 265 30 332 24 192 18 231 -36 258 -40 21 -103 29 -127 16
-27 -15 -37 -48 -67 -231 -56 -346 -113 -822 -200 -1675 -70 -677 -104 -987
-109 -993 -3 -2 -14 29 -26 70 -134 464 -279 903 -497 1503 -134 369 -251 712
-448 1314 -83 255 -94 282 -134 324 -56 61 -157 90 -217 63z"/>
<path d="M10440 15204 c-36 -15 -67 -58 -135 -194 -164 -321 -533 -906 -790
-1250 -156 -208 -368 -435 -401 -428 -16 3 -21 18 -31 83 -25 168 -33 479 -22
840 13 425 9 620 -16 689 -22 59 -83 123 -145 152 -55 26 -171 38 -225 23 -48
-13 -127 -90 -169 -164 -138 -245 -239 -733 -222 -1065 13 -244 49 -398 133
-570 50 -101 67 -125 142 -200 132 -132 258 -185 436 -184 181 0 300 60 464
230 185 192 319 384 706 1012 116 188 215 340 220 338 20 -5 50 -1006 41
-1391 -18 -824 -66 -1209 -196 -1590 -44 -128 -139 -337 -160 -350 -7 -4 -31
6 -59 25 -255 181 -367 230 -533 230 -142 0 -249 -63 -305 -179 -22 -46 -28
-74 -31 -152 -5 -117 9 -188 55 -280 136 -272 449 -371 768 -243 63 25 161 86
249 154 48 37 76 38 151 5 104 -47 202 -68 310 -69 150 -1 220 38 185 103 -19
36 -55 51 -145 62 -116 13 -285 78 -285 109 0 5 37 65 83 132 274 404 422 904
489 1648 20 226 17 1020 -5 1280 -37 426 -90 777 -138 917 -57 168 -179 268
-336 278 -37 3 -75 2 -83 -1z m-792 -4038 c50 -36 131 -92 181 -126 50 -33 91
-66 91 -74 0 -7 -35 -47 -79 -89 -79 -78 -162 -127 -211 -127 -69 1 -172 87
-212 178 -56 127 3 302 102 302 29 0 56 -14 128 -64z"/>
<path d="M6244 10712 c-22 -16 -59 -51 -82 -78 -151 -177 -388 -710 -601
-1355 l-42 -126 -119 -9 c-109 -9 -124 -13 -162 -40 -51 -36 -89 -98 -86 -139
l3 -29 139 -23 c77 -13 141 -25 143 -27 2 -2 -21 -91 -51 -197 -145 -513 -258
-1031 -312 -1439 -23 -167 -26 -523 -6 -615 69 -316 224 -509 458 -570 84 -22
211 -20 281 5 198 69 423 327 629 717 32 62 62 113 65 113 3 0 9 -28 12 -62 8
-87 41 -207 80 -297 90 -210 241 -352 442 -418 105 -34 301 -43 417 -19 352
72 644 378 878 918 l49 113 81 47 c114 66 167 107 246 190 147 156 234 334
234 484 0 47 -4 65 -19 78 -21 19 -16 25 -116 -111 -63 -85 -157 -181 -234
-237 -35 -25 -65 -45 -68 -43 -2 2 10 82 26 178 43 252 53 354 53 534 0 306
-66 497 -228 661 -57 58 -90 81 -165 117 -52 25 -130 54 -174 64 -107 24 -322
24 -418 0 -466 -116 -837 -604 -1016 -1337 -37 -150 -43 -164 -183 -445 -205
-410 -314 -595 -420 -710 -82 -90 -140 -107 -197 -59 -43 36 -61 104 -61 233
1 399 144 1075 396 1869 l55 173 152 -3 c135 -2 157 0 197 18 60 28 134 110
172 189 47 102 50 224 4 186 -20 -17 -140 -31 -268 -31 -65 0 -118 2 -118 5 0
12 102 270 160 405 172 402 383 764 477 820 18 10 33 25 33 32 0 63 -245 216
-430 268 -41 12 -118 24 -170 27 -93 5 -96 5 -136 -25z m1766 -1992 c76 -76
70 -388 -16 -820 -45 -229 -111 -472 -132 -487 -9 -7 -42 -13 -73 -13 -69 0
-104 -12 -142 -48 -62 -58 -92 -170 -68 -245 15 -45 60 -84 107 -93 42 -8 42
-12 -28 -144 -128 -241 -256 -370 -369 -370 -34 0 -47 6 -74 34 -49 52 -60
107 -59 291 1 250 61 547 189 930 193 582 442 985 607 985 24 0 45 -7 58 -20z"/>
<path d="M25624 9791 c-244 -39 -490 -225 -688 -521 -155 -230 -294 -539 -371
-825 -27 -100 -116 -298 -286 -638 -217 -432 -362 -633 -443 -613 -122 31 -66
608 123 1262 125 432 300 866 377 933 50 44 46 74 -16 131 -95 90 -269 154
-456 167 -84 5 -95 4 -149 -21 -106 -48 -252 -220 -413 -486 -118 -195 -234
-414 -532 -1000 -287 -565 -339 -664 -346 -658 -6 7 27 237 57 383 117 582
371 1310 502 1437 50 48 46 69 -24 132 -105 94 -291 157 -469 160 -122 1 -162
-17 -275 -128 -176 -174 -391 -492 -637 -946 -162 -298 -394 -775 -475 -977
-14 -35 -27 -62 -30 -60 -6 6 69 298 132 516 29 102 106 348 171 546 213 656
225 705 190 772 -47 91 -208 169 -430 208 -166 29 -280 14 -290 -37 -3 -13 -7
-79 -10 -148 -6 -149 -24 -240 -152 -765 -240 -986 -300 -1299 -292 -1521 3
-93 6 -107 41 -176 76 -155 263 -286 422 -296 124 -8 113 -24 318 468 75 179
163 388 197 465 86 196 295 616 380 765 91 158 234 373 226 340 -123 -533
-164 -781 -187 -1125 -25 -389 4 -529 144 -681 65 -71 153 -131 236 -160 98
-35 163 -30 199 15 24 31 95 189 224 496 176 419 270 630 394 885 104 212 265
513 272 506 1 -2 -6 -39 -17 -82 -34 -135 -79 -363 -100 -510 -81 -549 -21
-913 184 -1120 113 -114 234 -160 401 -152 122 6 186 40 315 168 116 115 233
287 348 510 66 127 81 150 85 130 3 -14 13 -56 21 -94 62 -279 259 -520 508
-619 163 -66 409 -86 561 -47 393 100 747 566 1005 1324 100 292 168 579 178
749 5 83 4 97 -10 97 -44 0 -114 -126 -287 -515 -260 -584 -423 -863 -620
-1055 -94 -92 -163 -139 -255 -171 -248 -87 -399 81 -412 456 -4 127 14 335
30 352 3 3 22 0 42 -7 105 -35 269 -29 422 16 392 113 655 445 703 887 42 393
-178 780 -491 862 -70 19 -181 26 -245 16z m383 -476 c69 -48 49 -245 -42
-425 -120 -235 -408 -532 -620 -637 -77 -38 -115 -48 -115 -30 0 8 21 78 46
156 83 255 248 556 406 741 111 129 197 189 298 209 3 1 15 -6 27 -14z"/>
<path d="M17944 9452 c-115 -73 -233 -338 -344 -772 -37 -148 -51 -183 -130
-340 -48 -96 -122 -249 -165 -340 -107 -228 -311 -638 -370 -740 -212 -371
-336 -435 -360 -185 -8 83 8 291 36 465 90 568 391 1465 531 1584 32 28 38 38
33 59 -17 68 -178 169 -329 207 -92 23 -219 35 -269 26 -103 -19 -243 -264
-382 -667 -55 -161 -165 -546 -165 -578 0 -21 -244 -534 -371 -781 -120 -234
-209 -377 -279 -451 -112 -118 -169 -85 -178 102 -19 386 177 1098 446 1624
44 85 83 147 115 179 26 28 47 57 47 65 0 25 -41 76 -91 113 -106 79 -278 128
-444 128 l-96 0 -61 -60 c-34 -33 -63 -60 -64 -60 -1 0 -16 23 -34 50 -18 28
-63 79 -101 113 -119 111 -260 164 -464 174 -283 13 -494 -73 -711 -291 -196
-199 -354 -480 -478 -851 -172 -513 -226 -1100 -132 -1415 92 -304 295 -469
566 -458 122 4 176 34 310 168 153 152 282 350 441 675 l79 160 0 -70 c0 -119
20 -294 45 -390 56 -222 188 -391 355 -455 81 -31 211 -46 281 -31 192 41 403
278 626 706 l73 140 0 -50 c0 -69 25 -217 51 -301 55 -179 162 -319 297 -387
92 -45 164 -60 272 -55 73 3 94 9 150 39 177 93 360 333 561 734 56 110 98
189 95 175 -27 -113 -61 -305 -91 -520 -45 -325 -84 -563 -93 -571 -4 -3 -92
-39 -197 -79 -390 -149 -536 -255 -634 -460 -32 -68 -36 -85 -39 -175 -3 -83
0 -111 18 -165 32 -96 81 -170 164 -247 132 -124 288 -177 455 -156 404 51
650 379 811 1080 16 69 30 126 32 127 2 1 48 37 103 81 317 251 605 631 795
1053 214 477 403 1102 376 1247 -17 87 -60 28 -228 -315 -500 -1018 -538
-1088 -691 -1290 -93 -122 -251 -288 -255 -268 -2 9 27 155 63 324 223 1042
388 1645 529 1939 54 113 97 175 122 175 9 0 14 11 14 30 0 50 -68 114 -174
165 -122 58 -189 75 -326 81 -102 5 -118 3 -146 -14z m-3220 -447 c57 -38 126
-158 147 -256 10 -45 8 -50 -44 -155 -30 -60 -121 -248 -202 -419 -479 -1008
-683 -1355 -795 -1355 -36 0 -53 28 -69 115 -70 378 215 1340 541 1822 63 95
169 207 226 240 75 44 136 47 196 8z m2309 -3197 c-62 -213 -170 -400 -254
-443 -37 -20 -94 -19 -113 1 -83 82 41 336 204 419 58 30 160 74 172 75 4 0 0
-24 -9 -52z"/>
<path d="M12262 9254 c-81 -21 -139 -60 -233 -153 -115 -116 -222 -281 -362
-559 -147 -292 -285 -613 -402 -935 -15 -42 -29 -76 -31 -74 -4 4 88 279 270
812 194 564 199 589 144 670 -74 108 -306 194 -521 195 -102 0 -149 -16 -170
-57 -8 -15 -17 -71 -20 -123 -8 -132 -33 -244 -242 -1075 -302 -1199 -410
-1706 -470 -2210 -22 -184 -31 -485 -16 -558 39 -184 227 -387 359 -387 22 0
45 6 51 14 6 8 30 102 52 210 48 240 121 552 183 786 49 183 176 622 182 629
2 2 25 -16 51 -41 99 -92 206 -132 394 -149 145 -12 314 1 414 31 423 131 776
637 959 1375 225 908 75 1517 -392 1601 -96 17 -133 16 -200 -2z m-13 -480
c33 -42 44 -124 38 -289 -9 -232 -66 -502 -177 -835 -209 -629 -503 -1070
-712 -1070 -106 0 -191 81 -219 209 -10 47 -8 56 41 188 297 794 770 1698 943
1804 43 25 62 24 86 -7z"/>
</g>
</svg>
