<?xml version="1.0" standalone="no"?>
<!DOCTYPE svg PUBLIC "-//W3C//DTD SVG 20010904//EN"
 "http://www.w3.org/TR/2001/REC-SVG-20010904/DTD/svg10.dtd">
<svg version="1.0" xmlns="http://www.w3.org/2000/svg"
 width="3000.000000pt" height="3000.000000pt" viewBox="0 0 3000.000000 3000.000000"
 preserveAspectRatio="xMidYMid meet">

<g transform="translate(0.000000,3000.000000) scale(0.100000,-0.100000)"
fill="#000000" stroke="none">
<path d="M8380 21623 c-63 -23 -151 -113 -173 -177 -52 -151 15 -314 157 -386
70 -35 87 -63 97 -157 4 -43 8 -79 8 -80 1 -2 12 -3 26 -3 55 0 176 144 244
292 64 138 76 225 45 328 -21 71 -107 159 -178 183 -61 21 -166 21 -226 0z"/>
<path d="M14526 21409 c-577 -80 -974 -549 -1015 -1202 -20 -313 34 -618 150
-849 60 -119 111 -191 203 -286 211 -218 476 -322 822 -322 208 0 366 34 529
113 269 131 467 370 570 687 61 190 70 257 70 530 -1 216 -3 257 -23 347 -114
521 -443 870 -912 968 -93 20 -302 27 -394 14z m135 -289 c311 -58 555 -506
599 -1101 35 -455 -97 -850 -317 -955 -150 -70 -336 -28 -475 108 -113 112
-208 281 -272 488 -135 437 -128 909 19 1207 100 203 252 289 446 253z"/>
<path d="M6767 21356 c-50 -46 -55 -139 -10 -188 9 -10 45 -32 79 -49 72 -34
124 -88 163 -169 l26 -55 0 -805 0 -805 -27 -57 c-37 -79 -98 -142 -174 -178
-76 -36 -98 -65 -98 -131 0 -54 23 -95 65 -116 18 -10 147 -13 524 -13 475 0
502 1 531 19 38 23 59 77 51 133 -7 50 -27 73 -99 109 -83 42 -123 81 -163
161 l-35 71 0 798 c0 781 0 799 21 853 28 77 97 150 180 192 77 38 99 68 99
134 0 47 -13 77 -44 102 -19 16 -63 18 -542 18 l-521 0 -26 -24z"/>
<path d="M9147 21356 c-50 -46 -55 -139 -10 -188 9 -10 45 -32 79 -49 72 -34
124 -88 163 -169 l26 -55 0 -805 0 -805 -27 -57 c-37 -79 -98 -142 -174 -178
-35 -16 -71 -42 -81 -56 -24 -37 -22 -117 4 -152 38 -51 44 -52 391 -52 355 0
367 2 397 60 8 16 15 49 15 74 0 59 -29 93 -115 135 -77 38 -132 101 -165 188
-21 56 -21 65 -18 662 3 646 5 675 48 636 28 -26 52 -85 364 -920 230 -613
302 -795 322 -812 23 -21 35 -23 149 -23 122 0 125 1 154 28 25 23 59 115 241
652 248 733 315 919 379 1055 49 104 74 136 92 118 24 -24 29 -176 27 -759
l-3 -609 -29 -58 c-37 -71 -108 -139 -180 -171 -67 -30 -91 -64 -91 -127 0
-52 24 -95 66 -116 18 -10 147 -13 522 -13 546 0 541 -1 572 60 19 37 19 103
0 140 -10 19 -36 38 -80 59 -81 39 -138 95 -176 174 l-29 62 0 806 0 806 30
59 c37 75 92 129 177 174 77 40 93 63 93 134 0 41 -5 53 -34 82 l-34 34 -434
0 -435 0 -22 -24 c-15 -15 -111 -285 -295 -822 -303 -887 -317 -924 -367 -924
-43 0 -60 40 -409 980 -191 517 -287 761 -301 773 -19 15 -54 17 -399 17
l-377 0 -26 -24z"/>
<path d="M16147 21356 c-50 -46 -55 -139 -10 -188 9 -10 45 -32 79 -49 72 -34
124 -88 163 -169 l26 -55 0 -805 0 -805 -27 -57 c-37 -79 -98 -142 -174 -178
-35 -16 -71 -42 -81 -56 -24 -37 -22 -117 4 -152 38 -51 44 -52 391 -52 355 0
367 2 397 60 8 16 15 49 15 74 0 59 -29 93 -115 135 -77 38 -132 101 -165 187
-21 56 -21 67 -18 678 3 564 5 624 20 652 22 40 42 48 77 30 67 -35 95 -73
1081 -1453 137 -191 255 -347 268 -352 13 -6 47 -11 76 -11 56 0 94 20 119 63
9 17 13 254 17 1037 l5 1015 28 53 c41 78 93 130 168 168 82 41 99 63 99 127
0 54 -12 84 -44 109 -19 16 -54 18 -368 18 l-346 0 -31 -31 c-28 -27 -31 -37
-31 -88 0 -74 20 -100 104 -141 74 -35 128 -90 165 -169 l26 -56 0 -410 c0
-225 -3 -422 -8 -437 -10 -37 -33 -57 -57 -51 -35 9 -109 101 -375 468 -143
197 -350 483 -460 634 l-200 276 -396 3 -396 2 -26 -24z"/>
<path d="M18987 21356 c-50 -46 -55 -139 -10 -188 9 -10 45 -32 79 -49 72 -34
124 -88 163 -169 l26 -55 0 -805 0 -805 -27 -57 c-37 -79 -98 -142 -174 -178
-76 -36 -98 -65 -98 -131 0 -54 23 -95 65 -116 18 -10 219 -13 873 -13 l849 0
45 -50 c39 -43 50 -50 83 -50 44 0 73 29 89 90 22 81 140 707 140 742 0 70
-38 128 -84 128 -51 0 -82 -42 -121 -168 -47 -148 -93 -237 -161 -307 -96
-100 -166 -115 -552 -115 -237 0 -259 2 -289 20 -66 40 -63 -10 -63 939 0 843
0 861 21 915 28 77 97 150 180 192 77 38 99 68 99 134 0 47 -13 77 -44 102
-19 16 -63 18 -542 18 l-521 0 -26 -24z"/>
<path d="M20908 21360 c-57 -45 -63 -141 -11 -190 15 -15 55 -38 88 -50 104
-41 165 -114 531 -635 181 -258 347 -504 369 -545 l40 -75 0 -295 0 -295 -27
-55 c-36 -74 -98 -134 -174 -170 -76 -35 -96 -63 -97 -130 -1 -55 21 -95 64
-117 18 -10 147 -13 522 -13 536 0 535 0 571 52 21 29 21 110 0 149 -11 21
-34 39 -77 58 -73 33 -131 88 -172 163 l-30 53 -3 280 c-3 291 4 374 37 451
23 51 579 929 637 1005 50 65 113 110 179 129 112 31 150 146 75 221 l-28 29
-350 0 c-335 0 -350 -1 -375 -20 -48 -38 -57 -120 -20 -178 8 -13 40 -35 71
-49 114 -50 168 -135 131 -206 -37 -71 -416 -641 -437 -657 -36 -29 -86 -26
-121 8 -43 40 -479 635 -496 676 -30 70 -13 127 47 157 20 10 42 19 49 19 27
0 83 36 100 64 11 18 19 50 19 75 0 36 -6 49 -34 77 l-34 34 -510 0 c-491 0
-510 -1 -534 -20z"/>
<path d="M3573 18446 c-21 -10 -43 -33 -63 -70 -17 -30 -37 -59 -45 -66 -29
-24 -84 -21 -260 15 -379 78 -733 53 -1021 -72 -245 -106 -425 -297 -478 -508
-57 -228 -12 -476 126 -690 137 -213 306 -372 768 -723 124 -93 258 -199 298
-234 188 -166 263 -311 249 -481 -11 -127 -75 -225 -180 -277 -198 -96 -486
-39 -712 140 -176 141 -297 323 -389 587 -44 127 -58 156 -90 177 -32 21 -85
21 -115 0 -27 -19 -60 -88 -61 -125 0 -14 41 -265 90 -558 93 -545 104 -591
152 -625 23 -16 83 -21 113 -10 19 8 55 75 55 104 0 32 53 80 88 80 16 0 96
-20 178 -45 332 -102 445 -121 669 -112 306 12 533 78 738 215 82 55 183 159
226 235 120 210 129 495 23 729 -40 88 -125 214 -214 318 -115 133 -246 244
-718 606 -113 87 -250 203 -306 258 -85 85 -108 115 -145 190 -42 85 -44 94
-44 175 0 69 5 97 24 138 66 147 263 229 456 190 128 -26 215 -75 321 -181
109 -109 188 -227 294 -438 46 -90 91 -165 106 -177 40 -32 103 -29 136 7 35
36 48 72 48 135 0 55 -140 892 -166 994 -24 94 -80 130 -151 99z"/>
<path d="M13700 18448 c-24 -13 -47 -43 -82 -107 -31 -57 -50 -58 -236 -23
-367 70 -624 63 -891 -24 -372 -122 -676 -398 -855 -775 -84 -178 -131 -338
-167 -574 -17 -105 -17 -465 0 -585 103 -762 535 -1287 1173 -1427 65 -14 127
-18 283 -18 188 0 207 2 310 29 274 71 492 204 646 394 153 190 201 369 123
462 -20 24 -34 30 -64 30 -49 0 -84 -28 -117 -93 -93 -187 -233 -299 -449
-362 -218 -63 -453 -35 -620 74 -230 149 -402 440 -484 816 -71 331 -79 713
-19 1005 66 323 221 565 431 671 139 70 361 95 493 55 252 -75 462 -307 638
-704 45 -100 114 -129 178 -75 40 34 59 79 59 139 0 54 -176 984 -195 1031
-23 56 -103 88 -155 61z"/>
<path d="M20043 18446 c-21 -10 -43 -33 -63 -70 -17 -30 -37 -59 -45 -66 -29
-24 -84 -21 -260 15 -438 90 -850 41 -1148 -136 -89 -53 -213 -171 -267 -254
-158 -242 -141 -596 42 -880 137 -213 305 -372 768 -723 265 -201 346 -269
418 -354 98 -116 140 -233 129 -361 -11 -127 -75 -225 -180 -277 -198 -96
-486 -39 -712 140 -176 141 -297 323 -390 590 -39 113 -56 145 -89 172 -27 22
-85 23 -115 2 -27 -19 -60 -88 -61 -125 0 -14 41 -265 90 -558 93 -545 104
-591 152 -625 23 -16 83 -21 113 -10 19 8 55 75 55 104 0 32 53 80 88 80 16 0
96 -20 178 -45 303 -93 421 -115 609 -115 384 0 706 111 910 315 75 74 98 105
132 175 60 123 76 201 76 350 -1 190 -42 319 -156 491 -147 220 -264 327 -847
775 -113 87 -250 203 -306 258 -85 85 -108 115 -145 190 -42 85 -44 94 -44
175 0 69 5 97 24 138 62 139 244 221 427 194 256 -38 437 -213 644 -623 46
-90 91 -165 106 -177 40 -32 103 -29 136 7 35 36 48 72 48 135 0 55 -140 892
-166 994 -24 94 -80 130 -151 99z"/>
<path d="M21015 18453 c-36 -10 -62 -33 -78 -71 -9 -20 -57 -251 -107 -512
-81 -426 -90 -479 -80 -523 13 -61 36 -96 75 -112 79 -34 128 15 180 181 49
157 113 287 183 369 123 146 223 185 475 185 167 0 185 -5 227 -68 l25 -36 0
-1121 0 -1121 -38 -77 c-49 -100 -115 -166 -211 -211 -87 -42 -122 -79 -132
-142 -12 -86 28 -165 94 -184 25 -8 242 -10 679 -8 l642 3 32 30 c61 58 75
135 38 212 -18 37 -31 48 -97 80 -130 62 -219 164 -256 294 -15 49 -16 170
-14 1150 l3 1094 23 38 c38 60 61 67 229 67 206 0 291 -22 388 -100 111 -89
197 -234 266 -452 47 -146 72 -182 139 -193 48 -8 81 9 105 56 35 66 31 103
-65 599 -51 261 -98 489 -105 507 -18 43 -60 68 -113 68 -41 0 -47 -4 -102
-65 l-58 -65 -1077 0 -1077 0 -56 63 c-57 63 -89 78 -137 65z"/>
<path d="M28250 18448 c-24 -13 -47 -43 -82 -107 -31 -57 -50 -58 -236 -23
-92 18 -221 37 -287 43 -455 39 -877 -116 -1182 -435 -239 -249 -388 -581
-445 -991 -16 -115 -16 -451 1 -575 41 -310 143 -598 289 -816 88 -130 128
-174 160 -174 43 0 207 -47 264 -76 130 -65 196 -138 219 -240 l12 -54 91 -29
c151 -48 215 -56 426 -56 182 0 202 2 305 29 274 71 492 204 646 394 153 190
201 369 123 462 -20 24 -34 30 -64 30 -49 0 -84 -28 -117 -93 -93 -187 -233
-299 -449 -362 -218 -63 -453 -35 -620 74 -230 149 -402 440 -484 816 -71 331
-79 713 -19 1005 66 323 221 565 431 671 139 70 361 95 493 55 252 -75 462
-307 638 -704 45 -100 114 -129 178 -75 40 34 59 79 59 139 0 54 -176 984
-195 1031 -23 56 -103 88 -155 61z"/>
<path d="M5293 18299 c-62 -39 -92 -118 -73 -188 12 -46 47 -83 116 -120 67
-36 98 -94 89 -170 -7 -51 -772 -2176 -817 -2268 -51 -103 -163 -192 -287
-229 -96 -28 -137 -85 -129 -177 5 -64 36 -113 84 -133 49 -20 879 -20 927 0
73 31 107 107 86 191 -15 58 -58 96 -142 124 -116 39 -190 126 -190 226 0 36
15 92 56 202 30 83 63 163 72 176 37 57 33 57 640 57 613 0 594 2 633 -62 11
-18 48 -105 83 -193 74 -189 85 -261 50 -318 -24 -39 -94 -78 -185 -103 -70
-18 -110 -54 -126 -113 -20 -76 10 -155 73 -184 30 -15 73 -17 291 -17 l257 0
54 41 c91 68 191 85 323 54 59 -14 175 -65 196 -86 6 -5 64 -9 130 -9 136 0
169 12 206 72 27 44 27 131 0 175 -25 41 -48 56 -140 89 -41 15 -94 39 -116
55 -58 40 -131 124 -164 189 -15 30 -258 636 -540 1345 -282 710 -521 1307
-531 1327 -36 71 -17 68 -479 68 -402 0 -416 -1 -447 -21z m439 -871 c16 -17
40 -52 53 -77 50 -100 314 -770 324 -822 18 -103 -23 -171 -112 -184 -23 -4
-170 -5 -327 -3 -253 3 -289 5 -318 21 -45 25 -66 76 -57 142 8 61 240 704
299 831 39 81 73 124 99 124 5 0 22 -14 39 -32z"/>
<path d="M8120 18293 c-57 -48 -77 -135 -46 -206 18 -43 39 -60 125 -102 123
-60 213 -176 241 -308 7 -37 10 -357 8 -1047 l-3 -995 -37 -77 c-51 -107 -111
-168 -215 -220 -110 -55 -128 -80 -128 -173 0 -56 4 -76 22 -101 48 -67 22
-65 743 -62 l652 3 33 37 c39 42 59 103 49 153 -11 61 -43 97 -121 135 -92 45
-141 85 -185 152 -72 109 -78 141 -78 401 0 222 1 234 23 271 32 57 68 80 125
80 67 0 111 -30 163 -112 24 -37 130 -190 237 -339 106 -150 204 -296 217
-325 35 -75 33 -137 -6 -206 -57 -101 -45 -197 31 -234 32 -16 81 -18 573 -18
477 0 543 2 573 16 89 42 113 174 46 253 -20 24 -49 40 -112 62 -167 58 -238
127 -480 470 -274 388 -276 397 -91 522 133 89 290 244 354 348 110 177 159
363 160 604 0 163 -16 271 -57 393 -110 321 -379 536 -786 625 -92 20 -125 21
-1046 24 l-952 4 -32 -28z m1711 -339 c137 -40 262 -149 327 -286 58 -120 76
-213 76 -388 0 -175 -18 -268 -76 -388 -65 -137 -190 -246 -327 -286 -44 -13
-105 -16 -304 -16 -283 0 -286 1 -326 83 -21 42 -21 56 -21 605 0 618 -1 605
61 663 l31 29 252 0 c202 0 263 -3 307 -16z"/>
<path d="M15363 18299 c-62 -39 -92 -118 -73 -188 12 -46 47 -83 116 -120 67
-36 98 -94 89 -170 -7 -51 -772 -2176 -817 -2268 -36 -72 -110 -147 -186 -186
-39 -21 -76 -37 -83 -37 -8 0 -32 -9 -54 -20 -36 -18 -37 -19 -10 -14 122 24
321 46 494 54 188 9 206 11 227 31 l23 22 -24 31 c-28 37 -48 115 -39 154 11
48 113 322 129 346 37 56 35 56 640 56 613 0 594 2 633 -62 11 -18 48 -105 83
-193 74 -189 85 -261 50 -318 -24 -39 -94 -78 -185 -103 -70 -18 -110 -54
-126 -113 -20 -76 10 -155 73 -184 32 -15 100 -17 704 -17 649 0 669 1 701 20
93 57 99 216 10 274 -13 8 -57 27 -98 42 -41 15 -94 39 -116 55 -58 40 -131
124 -164 189 -15 30 -258 636 -540 1345 -282 710 -521 1307 -531 1327 -36 71
-17 68 -479 68 -402 0 -416 -1 -447 -21z m439 -871 c16 -17 40 -52 53 -77 50
-100 314 -770 324 -822 18 -103 -23 -171 -112 -184 -23 -4 -170 -5 -327 -3
-253 3 -289 5 -318 21 -45 25 -66 76 -57 142 8 61 240 704 299 831 39 81 73
124 99 124 5 0 22 -14 39 -32z"/>
<path d="M24239 18293 c-56 -48 -75 -135 -45 -206 18 -43 39 -60 125 -102 123
-60 213 -176 241 -308 7 -37 10 -357 8 -1047 l-3 -995 -37 -77 c-51 -107 -111
-168 -215 -220 -104 -52 -126 -79 -131 -164 l-4 -61 48 -7 c66 -9 177 -49 225
-81 l39 -25 556 2 556 3 33 37 c39 42 59 103 49 153 -11 63 -43 97 -127 138
-102 49 -167 113 -215 215 l-37 77 0 1040 0 1040 32 68 c46 97 117 167 219
217 91 45 117 74 129 146 9 60 -9 117 -50 153 l-36 31 -664 0 -663 0 -33 -27z"/>
<path d="M15660 15664 c-150 -41 -322 -153 -482 -314 l-97 -97 -213 -6 c-315
-9 -543 -46 -793 -128 -444 -147 -755 -431 -855 -779 -27 -96 -38 -276 -20
-351 32 -137 114 -263 228 -349 204 -153 490 -180 688 -64 65 38 71 51 32 59
-56 12 -128 54 -173 101 -139 143 -147 381 -19 613 125 227 363 405 670 500
101 32 254 65 261 57 3 -2 -11 -28 -29 -58 -134 -211 -221 -420 -458 -1098
-273 -783 -409 -1081 -615 -1345 -163 -209 -351 -333 -559 -370 -158 -27 -270
-14 -393 48 -90 46 -162 111 -222 204 l-50 75 -16 -54 c-31 -105 -39 -191 -27
-286 47 -350 297 -630 653 -732 96 -28 302 -38 420 -20 511 74 869 488 1153
1330 80 240 137 438 261 915 181 696 262 950 371 1168 73 144 179 287 213 287
10 0 62 11 116 25 313 79 490 275 431 477 -21 72 -80 139 -154 174 -49 24 -71
28 -162 31 -71 2 -123 -2 -160 -13z"/>
<path d="M26303 15270 c-54 -11 -99 -35 -117 -63 -40 -61 -326 -1120 -535
-1982 -131 -541 -171 -715 -171 -750 0 -32 36 -96 69 -123 9 -7 45 -27 80 -44
104 -51 227 -43 283 19 27 29 100 233 408 1143 257 757 342 1003 449 1295 81
224 90 254 81 285 -26 92 -177 183 -360 216 -84 15 -125 16 -187 4z"/>
<path d="M6962 14990 c-234 -106 -614 -921 -892 -1910 -28 -102 -53 -191 -55
-197 -6 -19 -84 -15 -132 6 -72 33 -76 48 -42 181 62 243 96 561 70 657 -34
124 -169 167 -315 100 -121 -56 -195 -162 -223 -323 -19 -111 -13 -334 13
-481 l18 -102 -42 -128 c-92 -278 -225 -498 -335 -554 -56 -29 -133 -23 -159
12 -87 117 49 745 257 1189 l57 121 -17 44 c-54 144 -336 260 -471 195 -59
-29 -80 -77 -295 -668 -182 -501 -285 -734 -358 -815 -40 -44 -64 -45 -95 -4
-43 58 -33 283 25 518 55 227 150 482 234 633 53 95 46 144 -32 217 -55 53
-112 85 -200 115 -94 32 -186 31 -230 -2 -66 -50 -226 -515 -307 -898 -107
-499 -106 -891 3 -1120 45 -92 100 -149 186 -192 69 -34 78 -36 153 -33 74 4
84 7 137 43 31 22 83 73 116 115 74 94 199 342 273 541 l54 144 6 -89 c16
-235 49 -374 118 -507 49 -94 128 -177 206 -215 51 -25 67 -28 162 -28 99 0
109 2 173 34 208 104 399 384 614 900 35 86 65 157 67 158 1 1 31 -2 67 -8 40
-6 86 -7 122 -1 31 5 57 7 57 4 0 -2 -20 -96 -45 -208 -57 -255 -105 -532
-112 -649 -5 -83 -3 -93 19 -125 35 -52 94 -88 182 -110 127 -32 279 -23 353
21 37 23 40 30 59 134 50 269 229 860 349 1157 167 407 392 685 480 588 36
-40 12 -113 -164 -512 -199 -452 -281 -725 -281 -939 0 -217 76 -356 236 -431
191 -89 371 -50 539 117 90 90 153 180 233 333 l55 105 27 -74 c35 -97 63
-151 116 -225 155 -220 427 -332 677 -280 164 34 272 93 400 220 l90 88 -7
-63 c-10 -105 20 -166 106 -210 135 -69 373 -60 439 17 9 10 24 56 33 102 57
286 294 922 478 1284 147 291 301 484 368 463 52 -17 35 -96 -82 -363 -268
-619 -338 -843 -338 -1084 0 -164 31 -260 108 -342 131 -137 343 -172 521 -85
70 35 187 139 256 229 95 123 207 334 296 555 64 159 189 531 189 562 0 51
-107 86 -143 46 -8 -10 -42 -76 -75 -148 -197 -432 -330 -645 -402 -645 -36 0
-53 43 -47 118 7 89 44 212 165 542 140 386 170 504 152 601 -48 256 -351 432
-607 353 -104 -32 -234 -182 -387 -448 -64 -110 -157 -295 -201 -398 -16 -37
-30 -66 -32 -64 -11 10 129 449 197 621 22 54 30 89 26 109 -21 105 -173 199
-322 198 -82 -1 -120 -22 -156 -87 -68 -122 -216 -533 -313 -868 -125 -433
-390 -767 -608 -767 -84 0 -132 17 -186 66 -73 65 -103 142 -109 273 -5 105
12 241 29 241 5 0 9 -6 9 -13 0 -26 63 -87 118 -114 51 -25 67 -28 152 -27 74
0 108 5 153 23 224 88 397 419 397 760 -1 200 -47 328 -160 441 -165 165 -415
207 -625 105 -246 -119 -528 -554 -660 -1017 -77 -270 -301 -648 -384 -648
-28 0 -51 38 -51 85 1 94 41 230 187 630 154 422 167 510 101 652 -32 69 -142
176 -218 212 -120 57 -264 64 -365 17 -140 -65 -331 -296 -476 -578 -27 -54
-52 -98 -54 -98 -7 0 94 289 147 419 178 438 348 733 527 911 66 66 115 105
156 125 33 17 64 35 68 40 4 6 6 32 3 58 -23 214 -384 433 -574 347z m2019
-1479 c90 -73 -53 -527 -198 -625 -36 -25 -83 -33 -118 -20 -26 10 -45 59 -45
117 0 165 167 475 285 528 50 23 48 23 76 0z"/>
<path d="M24082 14999 c-44 -13 -166 -134 -229 -229 -236 -354 -521 -1085
-739 -1895 -59 -220 -299 -622 -400 -670 -42 -20 -60 -14 -82 26 -21 38 -8
261 22 389 94 397 268 773 432 935 l55 54 -20 39 c-26 50 -81 98 -151 131 -48
23 -68 26 -155 26 -92 0 -105 -3 -169 -33 -50 -23 -88 -52 -137 -102 l-67 -70
-21 34 c-34 54 -117 125 -184 156 -222 104 -458 33 -697 -209 -206 -208 -379
-509 -486 -845 -55 -169 -88 -244 -159 -353 -125 -191 -271 -303 -398 -303
-84 0 -132 17 -186 66 -73 65 -103 142 -109 273 -5 105 12 241 29 241 5 0 9
-6 9 -13 0 -26 63 -87 118 -114 51 -25 67 -28 152 -27 74 0 108 5 153 23 224
88 397 419 397 760 -1 200 -47 328 -160 441 -190 190 -484 213 -703 56 -259
-184 -530 -674 -618 -1115 -29 -148 -36 -359 -15 -479 53 -302 238 -536 495
-625 190 -66 398 -39 588 74 71 43 205 174 268 263 l49 69 16 -61 c25 -91 66
-167 125 -230 62 -67 124 -103 215 -127 149 -39 268 1 388 130 118 127 192
272 341 670 46 121 87 224 92 230 5 5 1 -16 -10 -48 -56 -162 -88 -415 -71
-563 22 -196 95 -324 225 -392 46 -25 60 -27 165 -27 110 0 118 1 177 32 73
38 163 119 218 197 22 30 42 56 45 56 3 0 4 -33 2 -72 -3 -89 14 -123 85 -169
78 -49 143 -64 278 -64 108 0 125 2 170 25 60 30 63 36 100 250 30 168 99 453
138 565 l24 70 6 -130 c8 -163 28 -280 68 -389 139 -385 489 -491 753 -229
117 116 246 332 372 618 93 214 224 563 224 600 0 43 -40 77 -84 73 -29 -3
-36 -12 -101 -144 -103 -205 -208 -358 -334 -486 -87 -87 -119 -113 -181 -142
-126 -61 -210 -47 -299 49 -38 41 -88 133 -105 191 -6 18 -1 22 25 28 17 3 50
6 73 6 89 0 243 50 347 110 328 194 546 618 463 901 -39 133 -138 254 -251
307 -52 24 -70 27 -163 27 -100 0 -109 -2 -175 -34 -141 -69 -335 -294 -506
-585 -40 -69 -75 -123 -77 -121 -6 6 83 264 145 419 166 421 343 727 522 906
66 66 115 105 156 125 33 17 64 35 68 40 14 18 -2 105 -28 154 -34 62 -124
150 -200 196 -109 65 -233 90 -323 64z m-1899 -1451 c36 -19 46 -40 47 -98 1
-227 -313 -877 -519 -1073 -67 -64 -102 -78 -131 -52 -74 67 69 572 256 910
134 240 264 358 347 313z m-1482 -37 c90 -73 -53 -527 -198 -625 -36 -25 -83
-33 -118 -20 -26 10 -45 59 -45 117 0 165 167 475 285 528 50 23 48 23 76 0z
m3759 -36 c26 -31 -26 -151 -131 -300 -87 -122 -287 -323 -358 -358 -64 -32
-101 -35 -101 -9 0 57 164 313 308 483 139 163 243 231 282 184z"/>
<path d="M17125 13865 c-144 -32 -269 -92 -392 -189 -171 -136 -314 -339 -494
-703 -66 -134 -124 -243 -129 -243 -20 0 -123 -139 -160 -215 -54 -113 -73
-198 -72 -330 0 -135 17 -209 76 -330 223 -454 849 -546 1233 -182 239 228
319 556 224 921 -18 66 -79 238 -136 383 -107 268 -135 355 -135 431 0 110 83
196 171 177 41 -9 104 -67 147 -135 43 -66 58 -79 95 -80 98 -1 237 144 237
248 0 46 -21 83 -76 131 -59 52 -148 94 -241 115 -87 19 -263 20 -348 1z
m-395 -642 c0 -112 16 -178 89 -366 71 -186 93 -275 93 -392 0 -207 -68 -356
-187 -411 -105 -49 -208 -16 -256 82 -44 90 -24 229 44 303 46 50 126 64 194
36 20 -8 39 -13 42 -9 3 3 6 34 5 68 -1 74 -34 154 -85 205 -38 38 -121 81
-159 81 -50 1 -51 10 -14 100 19 47 55 126 80 176 46 91 130 214 146 214 4 0
8 -39 8 -87z"/>
<path d="M18144 13800 c-92 -14 -118 -57 -230 -383 -275 -807 -693 -2552 -650
-2720 16 -64 99 -123 207 -147 85 -19 243 -9 296 18 53 28 59 39 67 136 8 92
51 360 102 631 40 214 122 612 130 635 4 8 12 -13 20 -48 41 -196 178 -328
369 -355 252 -36 480 130 690 504 111 196 221 485 284 740 54 220 65 302 66
479 l0 165 -32 68 c-60 126 -184 230 -322 271 -70 21 -185 20 -249 0 -135 -44
-271 -220 -477 -616 -41 -78 -75 -139 -75 -134 0 25 97 330 141 444 16 40 29
85 29 100 -1 116 -207 236 -366 212z m819 -378 c29 -32 40 -113 27 -210 -38
-298 -198 -687 -362 -884 -90 -108 -198 -141 -252 -77 -73 87 -2 379 178 725
140 268 296 464 371 464 12 0 29 -8 38 -18z"/>
<path d="M25483 12086 c-99 -32 -179 -102 -259 -227 -59 -91 -76 -140 -77
-224 -1 -75 20 -139 68 -201 31 -41 116 -97 179 -118 63 -22 173 -22 236 -1
99 33 183 142 210 272 18 84 8 245 -19 314 -26 69 -89 142 -144 171 -51 26
-139 32 -194 14z"/>
</g>
</svg>
