<?xml version="1.0" standalone="no"?>
<!DOCTYPE svg PUBLIC "-//W3C//DTD SVG 20010904//EN"
 "http://www.w3.org/TR/2001/REC-SVG-20010904/DTD/svg10.dtd">
<svg version="1.0" xmlns="http://www.w3.org/2000/svg"
 width="3000.000000pt" height="3000.000000pt" viewBox="0 0 3000.000000 3000.000000"
 preserveAspectRatio="xMidYMid meet">

<g transform="translate(0.000000,3000.000000) scale(0.100000,-0.100000)"
fill="#000000" stroke="none">
<path d="M16531 25654 c-66 -18 -104 -40 -153 -91 -86 -89 -109 -233 -55 -345
40 -81 114 -142 211 -173 16 -5 18 -12 12 -52 -10 -76 -24 -115 -60 -176 -23
-38 -31 -59 -23 -62 7 -2 39 -11 72 -19 l60 -15 64 67 c167 174 273 413 259
585 -16 195 -204 332 -387 281z"/>
<path d="M8980 25539 c-913 -65 -1716 -421 -2290 -1015 -195 -202 -344 -411
-455 -639 -116 -237 -172 -440 -182 -657 -17 -357 130 -619 440 -783 192 -102
404 -151 732 -170 l100 -5 213 367 212 368 -124 7 c-521 30 -843 211 -923 521
-32 125 -2 338 72 510 237 552 853 980 1635 1137 217 43 350 60 350 44 0 -20
-91 -456 -150 -719 -402 -1791 -912 -2698 -1648 -2929 -195 -61 -453 -72 -657
-27 -96 21 -288 80 -363 112 -25 11 -47 18 -49 15 -5 -4 75 -635 82 -646 9
-15 258 -92 373 -115 316 -65 641 -49 934 45 130 42 355 157 469 239 l95 69
185 7 c709 25 1242 120 1704 302 747 295 1205 801 1349 1491 42 200 50 295 50
537 -1 257 -20 419 -73 621 -94 356 -246 623 -488 855 -373 358 -894 508
-1593 458z m565 -294 c580 -88 911 -416 1011 -1000 21 -126 29 -425 15 -560
-64 -592 -342 -1037 -838 -1339 -295 -180 -681 -307 -1122 -372 -91 -13 -166
-22 -169 -20 -2 3 19 44 48 91 401 680 716 1794 844 2985 28 254 21 230 69
230 23 0 87 -7 142 -15z"/>
<path d="M20190 24986 c0 -2 -45 -127 -101 -277 -478 -1296 -727 -2128 -769
-2566 -19 -206 20 -453 95 -603 154 -306 502 -355 805 -113 118 94 239 243
345 423 40 68 50 80 56 64 5 -10 22 -54 39 -97 98 -254 320 -449 584 -517 211
-54 427 -28 655 76 253 116 548 402 726 702 26 45 50 82 53 82 2 0 2 -26 -2
-57 -9 -84 10 -284 38 -394 64 -252 206 -403 409 -432 142 -20 301 30 446 141
248 190 494 616 700 1215 l51 148 -76 -3 -76 -3 -49 -125 c-71 -182 -207 -451
-287 -571 -86 -129 -183 -228 -257 -264 -109 -54 -202 -15 -242 99 -29 82 -24
261 11 411 58 248 277 949 416 1328 l32 87 174 0 174 0 0 115 0 115 -130 0
c-76 0 -130 4 -130 10 0 5 45 125 101 267 56 142 103 265 106 275 4 13 -29 27
-189 78 -391 127 -433 139 -439 132 -6 -7 -78 -202 -207 -567 l-67 -190 -218
-3 -217 -2 0 -115 0 -115 175 0 c96 0 175 -4 175 -8 0 -5 -11 -42 -25 -83 -46
-134 -185 -579 -226 -723 -21 -77 -44 -143 -49 -146 -6 -3 -26 -46 -46 -96
-45 -110 -127 -276 -184 -368 -129 -212 -298 -380 -466 -464 -184 -92 -382
-88 -538 12 -79 50 -160 146 -206 240 -22 45 -40 86 -40 89 0 4 18 7 39 7 110
0 281 49 426 121 368 183 672 590 766 1024 17 81 17 295 0 365 -8 30 -26 82
-41 115 -136 300 -507 355 -932 138 -147 -75 -262 -158 -397 -288 -181 -175
-287 -321 -397 -550 -112 -232 -172 -457 -195 -730 -11 -125 -15 -146 -42
-195 -99 -179 -236 -338 -332 -385 -107 -53 -202 -16 -241 94 -22 62 -29 212
-15 297 69 403 485 1638 831 2467 34 82 58 152 54 157 -8 7 -627 160 -647 160
-4 0 -7 -2 -7 -4z m1869 -1520 c71 -68 60 -275 -29 -504 -115 -297 -390 -550
-620 -569 -60 -5 -68 -3 -95 20 l-30 25 1 134 c2 113 7 151 32 250 83 322 280
575 509 655 97 34 190 29 232 -11z"/>
<path d="M17677 24733 c-5 -9 -105 -287 -205 -568 l-67 -190 -218 -3 -217 -2
0 -115 0 -115 175 0 c96 0 175 -3 175 -6 0 -3 -36 -117 -80 -252 -207 -642
-311 -1050 -340 -1332 -20 -206 19 -459 95 -610 152 -303 490 -354 794 -122
248 190 494 616 700 1215 l51 148 -76 -3 -76 -3 -49 -125 c-71 -182 -207 -451
-287 -571 -86 -129 -183 -228 -257 -264 -109 -54 -202 -15 -242 99 -29 82 -24
261 11 411 58 248 277 949 416 1328 l32 87 174 0 174 0 0 115 0 115 -130 0
c-76 0 -130 4 -130 10 0 5 45 125 101 267 56 142 103 265 106 274 5 17 -82 47
-516 184 -47 15 -90 29 -97 32 -6 2 -14 1 -17 -4z"/>
<path d="M12444 24086 c-168 -32 -284 -80 -437 -182 -244 -163 -468 -434 -627
-759 -158 -322 -223 -581 -224 -885 0 -357 96 -619 298 -807 329 -307 872
-217 1288 215 383 397 633 1030 604 1527 -27 460 -245 796 -571 880 -85 22
-245 27 -331 11z m163 -481 c205 -61 319 -416 254 -792 -78 -457 -294 -845
-537 -964 -54 -27 -81 -33 -150 -37 -76 -4 -89 -2 -139 22 -133 66 -210 237
-222 497 -7 154 7 278 52 455 72 282 190 518 333 666 77 80 141 123 220 149
71 22 123 23 189 4z"/>
<path d="M15170 24066 c-201 -43 -401 -164 -574 -347 -47 -51 -86 -96 -86
-100 0 -5 -4 -9 -9 -9 -6 0 3 39 20 87 16 48 29 92 29 99 0 8 -122 42 -336 94
-184 45 -336 81 -338 79 -2 -2 -175 -605 -386 -1339 -211 -734 -385 -1341
-387 -1347 -4 -10 66 -13 330 -13 l335 0 32 103 c313 1012 509 1629 539 1698
116 264 334 479 486 479 96 0 132 -55 122 -189 -6 -82 -38 -215 -112 -461
-132 -443 -177 -722 -155 -975 21 -244 82 -407 195 -521 69 -70 118 -98 207
-119 79 -18 125 -19 213 0 354 74 663 492 949 1283 36 100 66 189 66 198 0 12
-13 14 -71 12 l-71 -3 -49 -125 c-164 -416 -382 -750 -541 -830 -171 -85 -268
19 -268 287 0 208 45 447 162 867 162 583 187 754 132 911 -24 67 -102 146
-169 169 -68 23 -186 28 -265 12z"/>
<path d="M27825 19775 c-478 -13 -1279 -33 -1780 -44 -1751 -42 -2862 -70
-3110 -81 -232 -10 -1226 -35 -2395 -60 -272 -6 -580 -15 -685 -20 -104 -5
-514 -16 -910 -25 -775 -17 -963 -22 -3645 -89 -971 -25 -2159 -54 -2640 -66
-481 -11 -981 -25 -1110 -30 -129 -5 -361 -12 -515 -15 -613 -13 -2256 -55
-2510 -64 -148 -6 -382 -13 -520 -16 -513 -12 -2212 -55 -2535 -65 -184 -5
-704 -19 -1155 -30 -451 -10 -1317 -31 -1925 -46 -608 -15 -1107 -29 -1109
-31 -6 -4 88 -3645 93 -3651 2 -2 483 8 1068 23 1958 48 4719 118 5883 150
303 8 978 26 1500 40 523 13 1204 31 1515 40 1229 32 5928 151 6545 166 1564
36 2144 51 2315 59 107 5 348 12 535 15 525 9 2311 54 2395 60 79 5 1416 40
2895 75 484 11 1326 32 1870 45 545 14 999 25 1010 25 20 0 20 8 -27 1803 -26
991 -47 1814 -47 1830 -1 27 -1 27 -68 26 -38 -1 -459 -12 -938 -24z m799
-627 c3 -73 7 -205 10 -294 l4 -161 -171 -6 c-95 -4 -311 -9 -482 -12 -170 -4
-321 -8 -334 -11 l-24 -5 6 -201 c3 -110 8 -202 11 -205 3 -3 168 -1 368 4
200 5 364 8 365 8 2 -1 6 -133 10 -293 l8 -292 -40 -4 c-22 -3 -188 -8 -370
-12 -181 -3 -330 -7 -331 -8 0 0 2 -94 4 -208 l4 -208 77 1 c42 0 268 6 503
12 l427 12 5 -55 c3 -30 7 -163 8 -295 l3 -240 -795 -20 c-437 -12 -796 -20
-798 -19 -3 2 -71 2598 -68 2601 2 2 1334 39 1497 42 l97 1 6 -132z m-2694 5
c0 -132 50 -1946 54 -1950 2 -2 156 1 342 6 187 6 342 7 345 3 4 -4 10 -136
13 -293 l7 -286 -108 -6 c-152 -9 -1172 -32 -1176 -26 -4 4 -68 2459 -67 2556
l0 42 98 4 c53 1 186 4 295 5 l197 2 0 -57z m-937 -130 c4 -91 7 -223 7 -293
l0 -127 -292 -8 c-161 -4 -294 -8 -295 -8 -1 -1 9 -409 23 -907 13 -498 24
-951 24 -1006 l0 -101 -291 -8 c-160 -4 -292 -5 -293 -4 -2 2 -13 405 -25 894
-11 490 -24 941 -27 1004 l-6 113 -293 -7 -292 -7 -7 148 c-3 82 -7 214 -8
294 l-1 145 74 3 c165 7 1395 39 1540 41 l156 1 6 -167z m-2110 -60 c4 -91 7
-223 7 -293 l0 -127 -292 -8 c-161 -4 -294 -8 -295 -8 -1 -1 9 -409 23 -907
13 -498 24 -951 24 -1006 l0 -101 -291 -8 c-160 -4 -292 -5 -293 -4 -2 2 -13
405 -25 894 -11 490 -24 941 -27 1004 l-6 113 -293 -7 -292 -7 -7 148 c-3 82
-7 214 -8 294 l-1 145 74 3 c165 7 1395 39 1540 41 l156 1 6 -167z m-2103 115
c3 -14 68 -2593 66 -2595 -3 -4 -579 -20 -584 -17 -2 1 -16 514 -32 1140 -16
627 -31 1212 -35 1301 l-5 162 117 4 c175 4 473 7 473 5z m-1680 -110 c0 -133
50 -1941 54 -1945 2 -2 156 1 342 6 187 6 342 7 345 3 4 -4 10 -136 13 -293
l7 -286 -108 -6 c-152 -9 -1172 -32 -1176 -26 -4 4 -68 2459 -67 2556 l0 42
98 4 c53 1 186 4 295 5 l197 2 0 -62z m-1990 16 c0 -3 -149 -300 -331 -661
l-331 -655 16 -645 c10 -355 14 -649 9 -653 -4 -4 -131 -10 -280 -13 l-273 -6
0 92 c0 51 -7 344 -15 652 l-16 560 -349 640 -349 640 142 6 c78 4 225 8 326
9 170 2 186 1 198 -16 7 -10 79 -144 159 -296 80 -153 149 -278 152 -278 4 0
69 137 146 305 l139 305 46 1 c50 2 460 14 554 17 31 1 57 -1 57 -4z m-2840
-136 c0 -135 50 -1941 54 -1945 2 -2 156 1 342 6 187 6 342 7 345 3 4 -4 10
-136 13 -293 l7 -286 -108 -6 c-152 -9 -1172 -32 -1176 -26 -4 4 -68 2471 -67
2561 l0 37 98 4 c53 1 186 4 295 5 l197 2 0 -62z m-1720 -40 c0 -133 50 -1941
54 -1945 2 -2 156 1 342 6 187 6 342 7 345 3 4 -4 10 -136 13 -293 l7 -286
-108 -6 c-152 -9 -1172 -32 -1176 -26 -4 4 -68 2459 -67 2556 l0 42 98 4 c53
1 186 4 295 5 l197 2 0 -62z m-1050 30 c3 -14 68 -2593 66 -2595 -3 -4 -579
-20 -584 -17 -2 1 -16 514 -32 1140 -16 627 -31 1212 -35 1301 l-5 162 117 4
c175 4 473 7 473 5z m-1590 -48 c242 -39 447 -170 557 -358 30 -50 73 -164 73
-191 0 -14 -52 -40 -238 -119 -131 -56 -245 -104 -253 -107 -11 -4 -21 10 -39
52 -28 67 -97 146 -154 175 -173 88 -363 -52 -284 -210 31 -64 152 -153 359
-266 335 -184 474 -299 595 -492 97 -156 140 -398 99 -557 -46 -176 -166 -312
-360 -408 -289 -142 -695 -150 -958 -18 -160 80 -282 199 -352 344 -74 150
-95 122 202 255 141 63 265 118 274 122 14 5 24 -5 50 -50 37 -66 120 -150
175 -178 61 -30 140 -25 199 11 26 17 56 46 66 65 26 49 25 125 -4 175 -40 71
-106 116 -529 365 -294 172 -433 333 -473 543 -63 330 76 604 380 752 184 90
418 126 615 95z m-2426 -182 c3 -73 7 -205 10 -294 l4 -161 -171 -6 c-95 -4
-311 -9 -482 -12 -170 -4 -321 -8 -334 -11 l-24 -5 6 -201 c3 -110 8 -202 11
-205 3 -3 168 -1 368 4 200 5 364 8 365 8 2 -1 6 -133 10 -293 l8 -292 -40 -4
c-22 -3 -188 -8 -370 -12 -181 -3 -330 -7 -331 -8 0 0 2 -94 4 -208 l4 -208
77 1 c42 0 268 6 503 12 l427 12 5 -55 c3 -30 7 -163 8 -295 l3 -240 -795 -20
c-437 -12 -796 -20 -798 -19 -3 2 -71 2598 -68 2601 2 2 1334 39 1497 42 l97
1 6 -132z m-2023 -1226 c18 -710 30 -1294 27 -1297 -2 -3 -135 -8 -295 -11
l-290 -7 -7 284 c-3 156 -9 382 -13 503 l-6 218 -341 -7 c-188 -4 -344 -10
-347 -14 -4 -3 -1 -229 7 -501 7 -272 11 -496 9 -498 -4 -5 -579 -22 -583 -17
-2 1 -16 515 -32 1141 -16 627 -31 1212 -35 1300 l-6 161 291 8 c160 4 293 5
296 2 3 -3 12 -229 19 -502 7 -273 15 -497 17 -498 6 -4 683 15 687 18 2 2 -2
227 -9 500 -7 272 -11 498 -8 500 7 7 572 22 579 15 4 -3 22 -587 40 -1298z
m-2228 1081 c4 -91 7 -223 7 -293 l0 -127 -292 -8 c-161 -4 -294 -8 -295 -8
-1 -1 9 -409 23 -907 13 -498 24 -951 24 -1006 l0 -101 -291 -8 c-160 -4 -292
-5 -293 -4 -2 2 -13 405 -25 894 -11 490 -24 941 -27 1004 l-6 113 -293 -7
-292 -7 -7 148 c-3 82 -7 214 -8 294 l-1 145 74 3 c165 7 1395 39 1540 41
l156 1 6 -167z"/>
<path d="M5615 14576 c-132 -42 -236 -142 -278 -270 -47 -138 5 -284 123 -350
49 -27 64 -31 136 -31 72 0 87 4 155 37 93 46 158 112 202 206 27 58 32 78 31
147 0 67 -4 89 -27 131 -61 119 -205 173 -342 130z"/>
<path d="M3072 13564 c-240 -813 -291 -975 -340 -1083 -150 -328 -318 -531
-441 -531 -87 0 -132 68 -139 210 -7 145 58 395 260 998 l122 362 143 0 143 0
0 95 0 95 -105 0 c-58 0 -105 3 -105 8 0 4 38 104 84 222 46 118 81 218 77
221 -15 16 -493 161 -501 153 -4 -5 -53 -135 -108 -289 -55 -154 -104 -288
-107 -297 -6 -16 -25 -18 -181 -18 l-174 0 0 -95 0 -95 140 0 c77 0 140 -3
140 -6 0 -3 -31 -104 -70 -224 -136 -427 -212 -710 -250 -937 -50 -291 0 -564
130 -706 117 -128 288 -150 470 -61 58 29 96 58 166 128 49 50 103 107 118
126 33 43 33 43 -28 -162 l-44 -148 269 0 268 0 30 93 c16 50 113 362 216 692
103 330 204 637 225 681 74 160 185 290 294 344 63 32 89 36 130 20 70 -26 72
-136 6 -370 -22 -80 -56 -201 -76 -270 -72 -259 -88 -357 -88 -555 -1 -211 13
-292 75 -414 108 -216 326 -278 553 -158 128 67 294 262 414 486 l49 91 6
-102 c12 -186 61 -326 147 -421 156 -171 411 -150 622 51 43 41 95 97 115 124
19 27 37 47 39 46 1 -2 -19 -79 -45 -171 l-49 -167 269 0 268 0 45 143 c24 78
122 391 216 696 95 304 185 582 201 618 70 157 189 296 299 351 67 34 93 38
134 22 70 -26 72 -136 6 -370 -22 -80 -56 -201 -76 -270 -72 -259 -88 -357
-88 -555 -1 -211 13 -292 75 -414 108 -216 326 -278 553 -158 78 41 226 186
295 290 l53 79 49 -100 c98 -200 256 -313 459 -328 243 -18 501 148 649 416
41 74 39 53 -9 -90 -124 -370 -302 -637 -522 -783 -229 -151 -517 -176 -871
-74 -65 19 -117 31 -117 28 -1 -27 105 -509 114 -518 16 -17 183 -59 307 -78
416 -60 758 49 1040 334 297 300 505 771 673 1526 36 164 76 372 166 875 28
157 58 311 65 343 10 44 11 59 2 62 -18 7 -508 125 -517 125 -4 0 -13 -34 -20
-75 -7 -41 -16 -75 -19 -75 -3 0 -14 18 -24 40 -23 49 -99 135 -147 165 -86
54 -233 70 -353 39 -246 -63 -519 -296 -701 -596 -170 -280 -266 -615 -266
-930 0 -60 -4 -75 -29 -111 -122 -178 -266 -253 -341 -178 -49 48 -64 124 -57
281 8 166 42 339 132 660 91 327 117 448 118 555 2 113 -14 173 -64 229 -94
107 -273 111 -474 12 -114 -56 -199 -121 -297 -224 l-76 -82 23 77 c14 43 21
80 17 84 -10 8 -532 133 -536 128 -2 -2 -77 -260 -166 -574 -141 -494 -170
-586 -220 -690 -142 -301 -301 -485 -419 -485 -52 0 -90 26 -114 78 -20 42
-22 64 -21 192 0 91 7 180 18 240 49 269 154 618 285 940 38 96 69 175 68 176
-1 1 -118 30 -260 64 -162 39 -262 59 -268 53 -33 -33 -212 -617 -273 -888
-20 -88 -40 -180 -46 -205 -28 -115 -205 -428 -305 -538 -98 -108 -206 -142
-265 -83 -49 48 -64 124 -57 281 8 166 42 339 132 660 91 327 117 448 118 555
2 113 -14 173 -64 229 -145 165 -479 80 -746 -190 -51 -51 -93 -91 -93 -89 0
2 67 218 149 481 83 263 148 480 146 483 -5 5 -515 131 -531 131 -6 0 -137
-430 -292 -956z m6128 -136 c47 -32 67 -64 85 -133 28 -110 15 -339 -40 -670
-38 -234 -110 -415 -218 -550 -154 -192 -350 -242 -475 -122 -41 39 -84 122
-103 197 -20 78 -17 320 5 440 47 261 177 521 341 686 150 149 317 212 405
152z"/>
<path d="M19647 14503 c-3 -10 -64 -178 -135 -374 -216 -588 -376 -1079 -468
-1434 -34 -132 -57 -196 -103 -290 -106 -216 -222 -372 -315 -425 -87 -50
-162 -35 -201 40 -26 51 -38 162 -25 245 27 176 153 603 314 1064 48 135 83
248 79 252 -6 5 -479 119 -496 119 -2 0 -30 -75 -62 -166 l-58 -166 -24 81
c-48 168 -128 276 -241 329 -48 22 -74 27 -162 30 -98 3 -111 1 -202 -31 -54
-19 -136 -58 -184 -88 -159 -99 -364 -316 -477 -506 -129 -215 -226 -503 -243
-721 -6 -67 -11 -85 -45 -137 -243 -380 -616 -492 -849 -256 -48 49 -120 168
-120 198 0 6 31 13 70 17 81 7 211 46 295 89 208 104 411 316 520 542 55 114
81 190 100 300 19 109 19 171 0 260 -19 91 -55 163 -107 215 -268 267 -872 25
-1209 -484 -167 -253 -268 -583 -269 -882 0 -45 -7 -61 -59 -140 -65 -99 -161
-197 -215 -219 -168 -70 -247 105 -181 400 42 187 106 400 237 793 l122 362
143 0 143 0 0 95 0 95 -105 0 c-58 0 -105 3 -105 8 0 4 38 104 84 222 46 118
81 218 77 221 -15 16 -493 161 -501 153 -4 -5 -53 -135 -108 -289 -55 -154
-104 -288 -107 -297 -6 -16 -25 -18 -181 -18 l-174 0 0 -95 0 -95 140 0 c77 0
140 -3 140 -6 0 -3 -31 -104 -70 -224 -136 -427 -212 -710 -250 -937 -50 -291
0 -564 130 -706 117 -128 287 -150 470 -61 102 50 240 188 338 338 55 84 73
104 78 90 3 -11 24 -56 46 -102 85 -172 248 -306 438 -358 104 -29 281 -24
395 10 226 68 449 237 623 474 59 80 62 82 68 55 42 -191 97 -306 194 -402
216 -216 548 -209 816 18 76 64 115 110 186 215 46 69 47 69 53 40 52 -229
114 -332 237 -394 242 -120 526 38 751 419 l62 105 8 -65 c23 -177 70 -297
147 -382 117 -128 287 -150 470 -61 96 47 239 188 329 324 72 108 172 303 236
459 36 88 135 364 135 377 0 2 -26 4 -58 4 l-59 0 -38 -97 c-167 -426 -369
-703 -514 -703 -85 0 -131 68 -139 205 -3 52 2 110 13 165 69 351 399 1322
664 1955 l50 120 -252 62 c-139 34 -259 62 -268 63 -9 0 -19 -8 -22 -17z
m-1704 -1067 c94 -40 136 -170 116 -362 -14 -135 -150 -669 -194 -763 -161
-339 -482 -469 -620 -251 -46 73 -60 143 -59 295 1 220 49 422 144 612 162
325 445 541 613 469z m-1718 -148 c64 -74 24 -319 -82 -508 -68 -120 -200
-253 -304 -304 -97 -48 -181 -59 -219 -28 -24 19 -25 25 -24 119 6 389 281
766 548 750 49 -3 63 -8 81 -29z"/>
<path d="M27070 13733 c-85 -70 -116 -102 -118 -121 -6 -44 17 -102 60 -148
l40 -44 -32 -142 c-119 -523 -322 -998 -520 -1221 -111 -125 -241 -141 -295
-37 -95 183 44 833 316 1472 18 43 31 80 28 82 -9 9 -519 129 -525 124 -3 -3
-27 -66 -54 -139 -142 -391 -260 -856 -291 -1149 -12 -108 -15 -118 -48 -160
-105 -134 -246 -255 -331 -285 -204 -72 -260 132 -164 602 50 244 172 622 289
896 26 60 45 110 43 112 -2 1 -119 31 -261 65 -158 38 -262 59 -268 53 -13
-13 -120 -323 -173 -504 -201 -683 -238 -1164 -111 -1433 77 -164 234 -247
407 -218 185 32 377 165 549 380 57 71 59 72 65 45 50 -230 113 -332 242 -395
61 -30 74 -33 157 -32 104 0 176 22 265 80 140 93 294 296 419 554 54 110 371
904 455 1138 l11 32 95 4 c52 2 115 11 140 19 24 9 46 15 47 13 2 -1 -11 -36
-27 -77 -96 -230 -211 -621 -247 -837 -26 -158 -24 -429 5 -533 47 -174 135
-295 255 -354 126 -62 249 -57 391 17 83 44 235 196 315 318 72 108 172 303
236 459 36 88 135 364 135 377 0 2 -26 4 -58 4 l-59 0 -38 -97 c-167 -426
-369 -703 -514 -703 -52 0 -90 26 -114 78 -20 42 -22 64 -21 192 0 91 7 180
18 240 49 269 154 618 285 940 38 96 69 175 68 176 -1 1 -109 36 -240 77
l-238 75 -34 -74 -34 -74 -58 0 c-109 0 -261 95 -321 201 l-28 47 -114 -95z"/>
<path d="M23775 13785 c-184 -35 -338 -120 -504 -279 -235 -226 -418 -567
-492 -916 -26 -124 -32 -375 -11 -475 73 -338 258 -542 525 -577 373 -50 776
233 1026 722 267 519 263 1072 -10 1364 -138 148 -317 202 -534 161z m200
-408 c112 -75 174 -262 162 -492 -19 -368 -224 -783 -438 -887 -257 -125 -434
80 -416 482 15 338 189 732 380 864 77 53 120 67 202 63 56 -2 78 -8 110 -30z"/>
<path d="M10828 13770 c-166 -20 -288 -79 -403 -195 -104 -103 -129 -157 -190
-400 -67 -267 -118 -422 -267 -800 l-130 -330 11 -52 c38 -193 232 -366 486
-434 109 -29 331 -32 455 -6 305 66 519 227 598 451 21 59 26 90 26 181 1 125
-12 188 -60 293 -67 147 -191 284 -434 479 -166 133 -245 217 -264 284 -36
119 27 244 153 309 41 21 139 46 199 52 l33 3 -54 85 c-58 94 -55 92 -159 80z
m-375 -1008 c34 -35 124 -120 200 -189 132 -120 209 -212 237 -280 7 -20 11
-57 8 -93 -5 -73 -40 -122 -114 -160 -43 -22 -61 -25 -154 -25 -99 0 -110 2
-171 32 -121 60 -218 189 -248 331 -16 75 -14 227 4 295 8 31 28 92 44 134 17
43 35 91 41 107 l10 29 41 -59 c23 -33 69 -88 102 -122z"/>
<path d="M13288 13770 c-166 -20 -288 -79 -403 -195 -104 -103 -129 -157 -190
-400 -67 -267 -118 -422 -267 -800 l-130 -330 11 -52 c38 -193 232 -366 486
-434 109 -29 331 -32 455 -6 305 66 519 227 598 451 21 59 26 90 26 181 1 125
-12 188 -60 293 -67 147 -191 284 -434 479 -166 133 -245 217 -264 284 -36
119 27 244 153 309 41 21 139 46 199 52 l33 3 -54 85 c-58 94 -55 92 -159 80z
m-375 -1008 c34 -35 124 -120 200 -189 132 -120 209 -212 237 -280 7 -20 11
-57 8 -93 -5 -73 -40 -122 -114 -160 -43 -22 -61 -25 -154 -25 -99 0 -110 2
-171 32 -121 60 -218 189 -248 331 -16 75 -14 227 4 295 8 31 28 92 44 134 17
43 35 91 41 107 l10 29 41 -59 c23 -33 69 -88 102 -122z"/>
<path d="M21305 13626 c-186 -408 -350 -883 -419 -1211 -94 -449 -34 -751 168
-850 241 -118 620 88 930 504 88 119 88 121 9 -120 -157 -481 -407 -809 -717
-938 -127 -53 -194 -65 -366 -66 -167 0 -276 18 -431 70 -40 14 -74 24 -75 22
-5 -5 106 -521 113 -528 11 -10 143 -45 248 -66 112 -21 409 -25 500 -5 495
107 833 469 1078 1157 118 330 204 694 322 1355 30 173 69 384 86 468 17 85
29 155 27 157 -6 6 -519 127 -523 124 -2 -2 -8 -92 -15 -199 -25 -452 -63
-762 -109 -900 -121 -360 -422 -663 -643 -648 -97 7 -128 54 -128 194 0 244
158 723 406 1233 52 107 93 195 92 197 -4 3 -499 124 -510 124 -5 0 -24 -33
-43 -74z"/>
<path d="M5440 10046 c0 -23 -23 -844 -50 -1826 -27 -982 -47 -1786 -46 -1788
2 -1 487 -16 1077 -32 591 -16 1164 -34 1274 -40 181 -10 2093 -63 2715 -75
140 -3 599 -14 1020 -25 421 -11 1204 -31 1740 -45 536 -14 1056 -29 1155 -35
204 -11 478 -18 930 -26 486 -7 2119 -52 2335 -64 182 -10 1376 -43 2000 -55
151 -3 673 -17 1160 -31 487 -13 1359 -38 1939 -54 580 -16 1057 -27 1061 -25
3 2 231 -3 505 -10 274 -8 500 -14 501 -12 3 3 104 3651 101 3653 -3 3 -799
24 -952 26 -149 1 -1693 42 -3145 82 -481 14 -1021 28 -1200 31 -179 4 -683
17 -1120 31 -2152 64 -2836 83 -3190 89 -212 4 -488 10 -615 15 -394 13 -1947
58 -2230 65 -148 3 -592 14 -985 25 -393 11 -854 22 -1025 25 -170 4 -843 22
-1495 41 -1615 47 -3123 91 -3307 96 l-153 5 0 -41z m688 -492 c38 -5 42 -8
42 -32 -1 -15 -7 -238 -14 -497 -8 -258 -12 -472 -10 -474 6 -7 662 -24 678
-18 10 4 14 70 20 299 3 161 9 385 13 497 l6 204 291 -7 c159 -3 292 -9 295
-12 6 -6 -63 -2592 -69 -2597 -5 -4 -582 12 -587 16 -1 2 4 228 12 502 8 274
13 500 12 501 -4 4 -682 20 -687 17 -4 -4 -28 -754 -29 -931 l-1 -73 -292 7
c-161 4 -294 8 -296 9 -4 3 53 2152 64 2438 l6 167 252 -5 c138 -3 270 -8 294
-11z m3005 -90 c158 -4 290 -10 292 -14 3 -4 156 -581 340 -1281 185 -701 340
-1289 345 -1306 l8 -33 -236 6 c-131 4 -282 9 -336 13 l-100 6 -106 340 -106
340 -84 7 c-47 3 -162 6 -255 7 l-170 1 -109 -297 c-60 -164 -116 -315 -124
-337 l-15 -38 -331 7 c-182 4 -332 9 -334 10 -2 2 170 540 381 1197 212 656
400 1237 417 1292 l32 98 101 -6 c56 -3 231 -9 390 -12z m2127 -54 c318 -10
381 -20 507 -83 132 -67 227 -164 297 -304 74 -149 102 -296 93 -502 -15 -383
-198 -664 -497 -766 -79 -26 -98 -29 -271 -33 l-186 -4 -7 -287 c-3 -157 -9
-362 -13 -455 l-6 -168 -296 7 c-163 4 -297 8 -299 10 -4 3 53 2154 64 2437
l7 168 161 -6 c88 -3 289 -9 446 -14z m1950 -50 c318 -10 381 -20 507 -83 132
-67 227 -164 297 -304 74 -149 102 -296 93 -502 -15 -383 -198 -664 -497 -766
-79 -26 -98 -29 -271 -33 l-186 -4 -7 -287 c-3 -157 -9 -362 -13 -455 l-6
-169 -296 8 c-163 4 -297 8 -299 10 -4 3 53 2154 64 2437 l7 168 161 -6 c88
-3 289 -9 446 -14z m1829 -56 l113 -6 -6 -167 c-4 -91 -20 -674 -37 -1296 -17
-621 -32 -1131 -34 -1134 -2 -2 -135 0 -294 4 l-291 8 0 36 c0 20 16 603 35
1296 19 693 35 1263 35 1267 0 7 261 3 479 -8z m966 -20 l110 -6 325 -638
c179 -351 326 -637 328 -635 2 2 11 282 20 623 10 341 20 624 24 627 4 4 144
4 312 0 l306 -8 0 -56 c0 -129 -69 -2544 -73 -2547 -5 -6 -588 14 -594 20 -3
2 -153 294 -334 648 -263 515 -329 636 -329 608 0 -19 -7 -258 -15 -530 -8
-272 -15 -544 -15 -604 l0 -108 -307 7 c-170 4 -311 10 -315 13 -4 4 9 563 27
1242 19 679 35 1263 35 1298 l0 62 193 -5 c105 -3 242 -8 302 -11z m2685 -80
c371 -8 685 -18 698 -20 l23 -5 -6 -232 c-3 -127 -8 -259 -11 -292 l-5 -60
-500 13 c-276 8 -502 12 -504 10 -2 -2 -5 -95 -6 -208 l-4 -205 345 -8 c190
-4 356 -10 369 -13 l24 -5 -7 -287 c-4 -158 -10 -289 -14 -292 -4 -3 -168 -1
-365 4 -197 5 -361 6 -365 2 -3 -4 -8 -96 -10 -206 l-4 -198 73 -6 c41 -3 189
-8 329 -11 140 -3 333 -8 429 -12 l174 -6 -7 -291 c-4 -159 -8 -292 -10 -293
-4 -4 -1590 38 -1594 42 -4 3 53 2155 64 2439 l7 168 101 -6 c55 -3 405 -13
776 -22z m2130 -69 c240 -42 454 -193 549 -387 43 -87 76 -197 63 -209 -13
-14 -505 -188 -513 -183 -5 3 -9 11 -9 17 0 33 -62 136 -104 175 -60 56 -101
72 -176 72 -132 0 -212 -93 -180 -209 13 -50 123 -154 245 -232 457 -292 564
-385 674 -591 62 -115 82 -194 88 -338 6 -148 -5 -213 -52 -308 -105 -207
-338 -345 -650 -383 -105 -13 -300 -6 -395 15 -230 50 -443 195 -549 373 -37
62 -99 220 -90 227 10 7 561 217 562 214 1 -1 15 -30 32 -63 33 -68 122 -163
177 -188 76 -36 188 -11 242 54 31 37 43 107 26 162 -22 75 -105 146 -388 334
-292 194 -403 289 -484 412 -61 94 -88 179 -95 306 -13 230 65 415 235 557
191 159 496 225 792 173z m2110 -60 c240 -42 454 -193 549 -387 43 -87 76
-197 63 -209 -13 -14 -505 -188 -513 -183 -5 3 -9 11 -9 17 0 33 -62 136 -104
175 -60 56 -101 72 -176 72 -132 0 -212 -93 -180 -209 13 -50 123 -154 245
-232 457 -292 564 -385 674 -591 62 -115 82 -194 88 -338 6 -148 -5 -213 -52
-308 -130 -257 -469 -410 -864 -389 -64 4 -145 13 -181 21 -229 50 -443 195
-549 373 -37 62 -99 220 -90 227 10 7 561 217 562 214 1 -1 15 -30 32 -63 33
-68 122 -163 177 -188 76 -36 188 -11 242 54 14 16 28 49 32 75 18 123 -47
192 -403 428 -441 291 -554 433 -570 711 -13 230 65 415 235 557 191 159 496
225 792 173z m1578 -21 c67 -4 102 -10 102 -17 1 -29 -111 -1735 -115 -1762
l-5 -30 -167 3 c-93 1 -196 5 -229 8 l-61 5 -7 652 c-3 359 -9 766 -12 904
l-6 253 198 -5 c110 -3 245 -8 302 -11z m-28 -2092 c7 -9 -6 -501 -13 -509 -3
-2 -107 -1 -231 3 l-225 7 5 246 c3 135 8 252 10 260 4 11 41 13 227 7 122 -4
224 -11 227 -14z"/>
</g>
</svg>
