<?xml version="1.0" standalone="no"?>
<!DOCTYPE svg PUBLIC "-//W3C//DTD SVG 20010904//EN"
 "http://www.w3.org/TR/2001/REC-SVG-20010904/DTD/svg10.dtd">
<svg version="1.0" xmlns="http://www.w3.org/2000/svg"
 width="3000.000000pt" height="3000.000000pt" viewBox="0 0 3000.000000 3000.000000"
 preserveAspectRatio="xMidYMid meet">

<g transform="translate(0.000000,3000.000000) scale(0.100000,-0.100000)"
fill="#000000" stroke="none">
<path d="M25040 27485 c-208 -68 -459 -340 -619 -669 -173 -356 -292 -829
-348 -1386 -26 -257 -26 -996 0 -1230 74 -665 252 -1223 523 -1636 85 -130
238 -280 334 -328 101 -49 168 -66 270 -66 264 0 448 156 534 453 58 200 147
715 177 1032 20 202 21 223 6 257 -21 49 -51 67 -144 83 -175 32 -344 7 -502
-72 -110 -55 -138 -88 -127 -148 8 -40 55 -99 98 -121 15 -8 77 -22 136 -30
59 -9 113 -21 120 -26 51 -42 -45 -703 -138 -950 -40 -107 -108 -148 -158 -95
-75 79 -234 592 -306 987 -128 698 -149 1506 -60 2280 63 550 206 1021 398
1309 79 119 94 132 151 139 50 5 75 29 75 69 0 34 -64 99 -128 130 -48 23 -71
28 -152 30 -63 2 -110 -2 -140 -12z"/>
<path d="M5765 27160 c-278 -8 -441 -19 -790 -51 -478 -43 -631 -82 -637 -163
-5 -78 34 -163 96 -208 89 -64 190 -71 509 -32 118 14 141 15 152 3 10 -11 15
-227 23 -1059 12 -1260 5 -1604 -44 -2085 -26 -261 -83 -603 -118 -703 l-13
-37 -35 55 c-69 108 -133 250 -248 547 -96 248 -128 316 -175 371 -51 59 -105
84 -191 90 -131 8 -227 -37 -267 -128 -32 -70 -36 -324 -9 -485 59 -345 210
-623 436 -801 305 -241 648 -243 893 -4 154 150 238 319 288 585 99 523 118
1140 59 1970 -8 116 -28 381 -44 590 -17 209 -37 470 -45 580 -9 110 -25 283
-35 385 -23 220 -26 213 92 224 123 12 521 77 555 91 37 16 49 46 38 102 -13
69 -49 124 -97 149 -39 20 -105 23 -393 14z"/>
<path d="M9370 26945 c-150 -34 -297 -139 -373 -266 -43 -73 -79 -182 -104
-319 -26 -141 -23 -445 6 -655 54 -390 131 -658 388 -1350 224 -601 303 -849
369 -1165 48 -229 41 -527 -13 -572 -13 -11 -21 -6 -55 32 -70 80 -180 252
-234 366 -55 117 -76 140 -148 164 -95 31 -246 -30 -246 -99 0 -36 62 -266
101 -376 84 -239 198 -374 358 -422 83 -26 236 -23 326 5 180 55 310 196 360
387 20 77 20 256 -1 394 -8 58 -40 203 -71 321 -158 613 -457 1810 -478 1915
-44 216 -56 317 -62 512 -9 299 21 469 107 600 77 117 131 140 186 81 84 -91
138 -183 184 -312 68 -195 110 -380 159 -698 44 -281 79 -358 191 -417 112
-59 242 -17 291 95 27 60 46 190 54 359 21 475 -99 824 -380 1100 -217 214
-451 320 -730 330 -84 4 -140 0 -185 -10z"/>
<path d="M14850 26945 c-150 -34 -297 -139 -373 -266 -43 -73 -79 -182 -104
-319 -26 -140 -23 -445 5 -651 55 -396 130 -657 389 -1354 224 -601 303 -849
369 -1165 48 -229 41 -527 -13 -572 -13 -11 -21 -6 -55 32 -70 80 -180 252
-234 366 -55 117 -76 140 -148 164 -95 31 -246 -30 -246 -99 0 -36 62 -266
101 -376 84 -239 198 -374 358 -422 83 -26 236 -23 326 5 180 55 310 196 360
387 35 135 14 381 -55 650 -138 540 -462 1830 -484 1926 -67 297 -93 641 -66
856 22 175 87 327 171 397 57 48 91 33 176 -79 120 -157 205 -443 282 -937 44
-281 79 -358 191 -417 82 -43 172 -35 237 22 78 69 105 201 106 517 1 245 -13
350 -68 517 -67 200 -160 350 -310 498 -217 214 -451 320 -730 330 -84 4 -140
0 -185 -10z"/>
<path d="M21794 26946 c-91 -41 -167 -242 -239 -628 -73 -394 -119 -783 -135
-1152 -6 -121 -11 -714 -13 -1316 -2 -984 0 -1108 15 -1220 19 -138 31 -164
93 -194 58 -29 173 -29 212 0 53 40 60 65 77 274 21 252 72 982 86 1220 12
201 54 761 100 1345 17 203 30 374 30 379 0 38 26 -39 75 -224 187 -707 529
-1800 684 -2188 68 -171 210 -490 241 -539 10 -18 38 -45 61 -60 81 -54 246
-38 314 30 45 45 55 104 55 310 0 553 43 1347 130 2417 16 201 37 457 45 570
9 113 22 260 30 327 8 67 15 137 15 157 0 74 -37 110 -124 122 -56 8 -80 -14
-95 -88 -48 -236 -131 -898 -226 -1823 -82 -791 -103 -987 -110 -993 -2 -2
-13 29 -25 70 -134 464 -279 903 -497 1503 -134 369 -251 712 -448 1314 -83
255 -94 282 -134 324 -56 61 -157 90 -217 63z"/>
<path d="M12140 26849 c-58 -4 -220 -18 -360 -29 -312 -26 -933 -87 -1017
-100 -33 -6 -91 -19 -126 -30 -212 -66 -121 -257 158 -336 43 -12 114 -18 252
-21 l192 -5 5 -42 c3 -22 10 -324 16 -671 13 -761 24 -1166 50 -1845 10 -283
22 -596 25 -695 11 -330 36 -518 92 -689 41 -123 87 -163 214 -187 108 -20
220 15 252 78 11 22 17 145 26 598 19 911 30 1334 41 1570 13 305 13 1298 -1
1658 -8 195 -8 302 -2 308 11 11 414 66 728 99 348 36 346 36 372 62 79 79 -3
213 -162 265 -41 14 -101 17 -350 19 -165 1 -347 -2 -405 -7z"/>
<path d="M19848 26843 c-260 -6 -522 -16 -583 -22 -60 -6 -171 -11 -246 -11
-182 0 -827 -50 -1409 -110 -317 -33 -396 -47 -468 -84 -97 -50 -78 -158 41
-240 105 -72 224 -98 452 -100 l170 -1 1 -95 c1 -52 4 -324 7 -605 5 -518 8
-615 52 -1750 39 -1010 69 -1354 134 -1527 43 -112 83 -137 230 -145 120 -7
169 6 210 52 l31 36 0 167 c0 201 35 1769 50 2252 22 675 23 881 6 1226 -21
444 -21 471 4 479 41 13 591 81 602 74 13 -8 11 -31 -26 -299 -14 -102 -30
-239 -36 -305 -28 -308 -41 -1282 -21 -1535 6 -69 15 -273 21 -455 27 -851 43
-1126 73 -1197 17 -41 64 -82 113 -98 47 -16 139 -9 186 14 48 23 68 55 78
125 16 102 97 1523 120 2086 6 143 15 364 20 490 12 282 16 744 11 1003 -4
144 -2 195 8 205 13 13 149 14 556 7 159 -2 212 0 260 13 33 8 61 15 61 14 1
-1 -2 -27 -7 -57 -29 -180 -59 -708 -59 -1039 0 -453 59 -1541 110 -2041 35
-337 101 -743 134 -821 17 -41 61 -84 100 -99 69 -26 184 -8 232 37 l27 25 -8
111 c-4 62 -11 859 -15 1772 -9 2060 -12 2141 -100 2247 -40 49 -145 100 -216
106 -38 3 -54 9 -54 19 0 8 -13 27 -28 43 -47 46 -138 50 -824 33z"/>
<path d="M16537 26730 c-15 -12 -36 -38 -46 -58 -35 -69 -67 -293 -93 -657
-16 -230 -16 -985 0 -1285 46 -829 69 -1158 103 -1455 34 -303 94 -657 123
-727 17 -40 61 -83 100 -98 69 -26 184 -8 232 37 l27 25 -8 111 c-4 62 -11
859 -15 1772 -9 2060 -12 2141 -100 2247 -72 87 -260 138 -323 88z"/>
<path d="M6813 26581 c-42 -26 -82 -113 -127 -276 -254 -935 -283 -1949 -79
-2750 74 -292 199 -601 297 -739 120 -169 257 -225 393 -162 166 78 274 321
488 1096 47 173 92 329 99 345 l14 30 6 -45 c3 -25 15 -171 26 -325 22 -306
52 -623 76 -810 23 -184 74 -506 85 -542 8 -26 25 -39 99 -77 120 -62 194 -81
265 -66 29 6 59 18 66 26 10 12 7 60 -14 247 -61 525 -78 802 -84 1429 -7 686
15 1203 77 1825 32 314 26 361 -54 431 -73 64 -177 83 -230 41 -67 -53 -142
-281 -221 -679 -51 -256 -70 -330 -145 -567 -28 -87 -139 -480 -246 -873 -290
-1061 -336 -1212 -356 -1176 -14 25 -36 180 -57 414 -48 512 -60 821 -71 1892
-6 492 -14 951 -19 1020 -13 177 -44 251 -121 290 -51 26 -125 26 -167 1z"/>
<path d="M11522 21710 c-262 -119 -731 -1151 -1153 -2537 -284 -936 -461
-1749 -463 -2128 -1 -133 2 -158 23 -224 63 -191 222 -343 388 -370 75 -12
106 1 165 69 75 86 164 247 430 775 321 639 438 857 602 1115 80 126 238 351
243 346 3 -2 -16 -69 -42 -147 -105 -328 -200 -779 -226 -1074 -47 -550 124
-934 466 -1051 102 -34 241 -39 322 -11 197 69 434 334 667 748 l75 132 6 -39
c70 -412 270 -682 603 -816 131 -52 239 -71 412 -72 180 -1 234 10 375 79 341
165 677 603 935 1220 35 83 100 236 146 340 154 354 298 718 469 1185 37 102
69 186 70 188 7 8 255 -62 290 -81 48 -26 54 -51 27 -104 -32 -62 -146 -375
-201 -550 -190 -609 -284 -1110 -267 -1419 24 -432 183 -702 471 -800 102 -34
241 -39 322 -11 199 69 438 338 672 757 l77 137 21 -111 c84 -434 346 -714
756 -808 125 -29 371 -31 467 -5 450 125 881 682 1195 1547 130 356 236 806
199 843 -16 15 -67 -29 -113 -99 -28 -42 -143 -259 -255 -483 -324 -647 -475
-891 -686 -1102 -195 -195 -406 -284 -562 -237 -90 27 -173 138 -215 288 -25
92 -23 390 4 540 22 121 12 115 138 80 67 -18 96 -21 180 -16 179 10 329 48
470 119 201 100 380 284 480 491 213 443 157 938 -140 1233 -117 116 -237 171
-407 189 -121 12 -287 -24 -423 -94 -373 -189 -733 -700 -950 -1347 -45 -132
-79 -208 -196 -430 -347 -663 -523 -930 -646 -981 -40 -17 -75 -4 -93 35 -31
64 -23 275 21 529 63 362 226 924 385 1325 116 293 252 540 314 572 61 31 39
108 -44 156 -129 74 -362 116 -896 159 -146 12 -266 23 -267 24 -1 1 7 56 17
121 22 131 26 259 10 316 -6 19 -22 46 -36 60 -22 21 -35 24 -92 23 -180 -4
-327 -133 -398 -350 -24 -73 -29 -106 -29 -184 0 -104 19 -158 70 -198 l25
-20 -81 -238 c-199 -588 -413 -1126 -600 -1509 -162 -332 -408 -656 -594 -782
-158 -106 -303 -145 -417 -111 -90 27 -173 138 -215 288 -25 92 -23 390 4 540
22 121 12 115 138 80 67 -18 96 -21 180 -16 557 31 954 387 1061 951 63 330
-35 677 -251 892 -117 116 -237 171 -407 189 -80 8 -202 -8 -295 -40 -433
-148 -838 -678 -1085 -1421 -46 -140 -81 -222 -155 -365 -403 -777 -616 -1079
-726 -1029 -37 17 -50 54 -55 162 -20 428 257 1409 585 2077 61 124 87 165
130 209 45 45 53 58 48 79 -11 43 -55 90 -131 141 -130 87 -306 140 -481 144
-82 2 -92 0 -148 -31 -118 -64 -266 -210 -446 -442 -293 -378 -665 -979 -994
-1607 -43 -84 -80 -151 -81 -150 -4 4 42 193 86 352 238 868 662 1989 1024
2713 188 376 378 663 462 698 18 7 35 18 39 24 10 15 -20 63 -67 106 -132 122
-348 226 -535 259 -112 20 -149 19 -201 -5z m3321 -2438 c64 -70 25 -298 -82
-480 -183 -313 -587 -669 -818 -720 -24 -6 -43 -6 -43 -2 0 30 94 271 154 395
193 399 454 720 657 808 49 22 112 21 132 -1z m4410 0 c64 -70 25 -298 -82
-480 -183 -313 -587 -669 -818 -720 -24 -6 -43 -6 -43 -2 0 30 94 271 154 395
193 399 454 720 657 808 49 22 112 21 132 -1z"/>
<path d="M12686 15600 c-239 -27 -360 -120 -410 -316 -53 -209 -50 -715 14
-2119 29 -647 108 -1463 176 -1835 50 -274 129 -554 187 -664 74 -140 217
-182 542 -156 160 13 393 53 436 75 72 38 72 105 0 125 -27 7 -60 7 -112 -1
-41 -6 -161 -11 -267 -11 -160 -1 -196 1 -208 14 -18 18 -30 350 -36 983 l-3
390 75 6 c41 4 173 7 293 8 231 1 274 8 296 49 21 40 13 79 -22 106 -87 67
-191 91 -442 106 -137 8 -194 15 -204 25 -11 11 -17 91 -27 382 -22 643 -46
1084 -81 1533 -11 134 -17 328 -18 515 0 265 2 305 18 346 27 71 39 73 301 65
188 -5 230 -4 276 10 104 31 142 107 81 162 -32 30 -159 85 -301 131 -188 61
-405 88 -564 71z"/>
<path d="M10481 15239 c-49 -30 -67 -55 -100 -139 -39 -100 -55 -167 -85 -345
-54 -323 -89 -733 -116 -1330 -43 -965 -48 -1280 -30 -1770 15 -410 51 -826
80 -935 17 -65 63 -123 121 -155 54 -30 55 -30 209 -30 146 1 169 4 405 52
905 186 1194 295 1125 422 -12 24 -81 51 -128 51 -21 0 -72 -11 -113 -25 -41
-14 -150 -41 -242 -60 -195 -39 -778 -121 -801 -112 -12 5 -16 21 -16 71 0 68
20 429 45 791 8 121 19 360 25 530 14 441 22 2629 11 2738 -16 144 -66 206
-200 247 -83 26 -147 26 -190 -1z"/>
<path d="M18961 15239 c-49 -30 -67 -55 -100 -139 -39 -100 -55 -167 -85 -345
-54 -323 -89 -733 -116 -1330 -43 -965 -48 -1280 -30 -1770 15 -410 51 -826
80 -935 17 -65 63 -123 121 -155 54 -30 55 -30 209 -30 146 1 169 4 405 52
905 186 1194 295 1125 422 -12 24 -81 51 -128 51 -21 0 -72 -11 -113 -25 -41
-14 -150 -41 -242 -60 -195 -39 -778 -121 -801 -112 -12 5 -16 21 -16 71 0 68
20 429 45 791 8 121 19 360 25 530 14 441 22 2629 11 2738 -16 144 -66 206
-200 247 -83 26 -147 26 -190 -1z"/>
<path d="M7600 15225 c-150 -34 -297 -139 -373 -266 -43 -73 -79 -182 -104
-319 -26 -140 -23 -445 5 -651 55 -396 130 -657 389 -1354 224 -601 303 -849
369 -1165 48 -229 41 -527 -13 -572 -13 -11 -21 -6 -55 32 -70 80 -180 252
-234 366 -55 117 -76 140 -148 164 -97 31 -246 -30 -246 -102 0 -34 68 -283
106 -388 80 -225 197 -360 353 -407 83 -26 236 -23 326 5 180 55 310 196 360
387 35 135 14 381 -55 650 -138 540 -462 1830 -484 1926 -67 297 -93 641 -66
856 22 175 87 327 171 397 57 48 91 33 176 -79 120 -157 205 -443 282 -937 44
-281 79 -358 191 -417 82 -43 172 -35 237 22 78 69 105 201 106 517 1 245 -13
350 -68 517 -67 200 -160 350 -310 498 -217 214 -451 320 -730 330 -84 4 -140
0 -185 -10z"/>
<path d="M14264 15226 c-91 -41 -167 -242 -239 -628 -73 -394 -119 -783 -135
-1152 -6 -121 -11 -714 -13 -1316 -2 -984 0 -1108 15 -1220 19 -138 31 -164
93 -194 58 -29 173 -29 212 0 53 40 60 65 77 274 23 279 62 841 86 1220 11
179 45 639 75 1023 30 384 55 701 55 704 0 4 4 3 9 -2 5 -6 34 -107 66 -225
187 -707 529 -1800 684 -2188 68 -171 210 -490 241 -539 10 -18 38 -45 61 -60
81 -54 246 -38 314 30 45 45 55 104 55 310 0 557 48 1430 135 2477 13 162 31
390 40 505 9 116 22 265 30 332 8 67 15 140 15 163 l0 43 46 -43 c25 -23 69
-52 97 -65 104 -48 162 -58 364 -62 l192 -5 5 -42 c3 -22 10 -324 16 -671 13
-761 24 -1166 50 -1845 10 -283 22 -596 25 -695 11 -330 36 -518 92 -689 41
-123 87 -163 214 -187 108 -20 220 15 252 78 11 22 17 145 26 598 19 911 30
1334 41 1570 13 305 13 1298 -1 1658 -8 195 -8 302 -2 308 11 11 414 66 728
99 348 36 346 36 372 62 79 79 -3 213 -162 265 -67 22 -484 30 -720 13 -399
-27 -1266 -107 -1412 -130 -176 -28 -249 -76 -240 -156 4 -40 4 -41 -14 -23
-18 18 -78 39 -112 39 -31 0 -55 -19 -66 -52 -40 -125 -131 -843 -236 -1863
-70 -677 -104 -987 -109 -993 -3 -2 -14 29 -26 70 -134 464 -279 903 -497
1503 -134 369 -251 712 -448 1314 -83 255 -94 282 -134 324 -56 61 -157 90
-217 63z"/>
<path d="M22250 15204 c-36 -15 -67 -58 -135 -194 -164 -321 -533 -906 -790
-1250 -156 -208 -368 -435 -401 -428 -16 3 -21 18 -31 83 -25 168 -33 479 -22
840 13 425 9 620 -16 689 -22 59 -83 123 -145 152 -55 26 -171 38 -225 23 -48
-13 -127 -90 -169 -164 -137 -243 -239 -734 -222 -1065 13 -244 49 -398 133
-570 50 -101 67 -125 142 -200 132 -132 258 -185 436 -184 181 0 300 60 464
230 185 192 319 384 706 1012 116 188 215 340 220 338 20 -5 50 -1006 41
-1391 -18 -824 -66 -1209 -196 -1590 -44 -128 -139 -337 -160 -350 -7 -4 -31
6 -59 25 -255 181 -367 230 -533 230 -142 0 -249 -63 -305 -179 -22 -46 -28
-74 -31 -152 -5 -117 9 -188 55 -280 93 -186 277 -298 489 -299 181 0 336 61
528 210 48 37 76 38 151 5 104 -47 202 -68 310 -69 150 -1 220 38 185 103 -19
36 -55 51 -145 62 -116 13 -285 78 -285 109 0 5 37 65 83 132 274 404 422 904
489 1648 20 226 17 1020 -5 1280 -37 426 -90 777 -138 917 -57 168 -179 268
-336 278 -37 3 -75 2 -83 -1z m-792 -4038 c50 -36 131 -92 181 -126 50 -33 91
-66 91 -74 0 -7 -35 -47 -79 -89 -79 -78 -162 -127 -211 -127 -69 1 -172 87
-212 178 -56 127 3 302 102 302 29 0 56 -14 128 -64z"/>
<path d="M9287 15010 c-15 -12 -36 -39 -47 -60 -57 -111 -110 -722 -110 -1259
0 -453 59 -1541 110 -2041 35 -337 101 -743 134 -821 17 -41 61 -84 100 -99
69 -26 184 -8 232 37 l27 25 -8 111 c-4 62 -11 859 -15 1772 -9 2060 -12 2141
-100 2247 -72 87 -260 138 -323 88z"/>
<path d="M7451 9390 c-62 -13 -87 -33 -133 -103 -133 -205 -306 -640 -339
-854 -11 -73 -10 -86 6 -129 47 -123 235 -224 418 -224 57 0 71 4 90 23 13 12
67 105 121 207 279 523 393 723 449 787 73 83 17 159 -171 229 -138 53 -349
83 -441 64z"/>
<path d="M13725 9386 c-210 -98 -560 -777 -903 -1746 -44 -124 -87 -250 -97
-280 -10 -30 -19 -57 -21 -59 -2 -2 -31 17 -64 43 -82 61 -170 102 -288 133
-85 23 -117 26 -262 26 -196 0 -268 -15 -425 -92 -364 -176 -687 -611 -894
-1204 -28 -82 -95 -221 -213 -445 -402 -769 -576 -1041 -704 -1103 -46 -22
-46 -22 -72 -2 -38 28 -51 74 -51 188 -2 240 69 608 198 1037 167 552 443
1182 541 1233 37 19 43 40 24 81 -57 119 -303 239 -544 264 -116 11 -150 3
-208 -53 -100 -96 -231 -335 -356 -650 -55 -138 -145 -401 -176 -514 -16 -57
-80 -186 -235 -478 -413 -777 -591 -1054 -714 -1110 -41 -18 -42 -18 -69 2
-38 28 -51 74 -51 188 -3 442 250 1341 554 1972 94 195 145 277 185 298 37 19
43 40 24 81 -39 82 -217 192 -379 234 -44 11 -124 25 -177 31 -146 15 -185 -8
-293 -170 -151 -227 -335 -679 -470 -1154 -46 -164 -52 -177 -212 -480 -282
-534 -408 -742 -566 -940 -93 -116 -319 -347 -324 -330 -8 22 226 924 362
1398 231 806 415 1258 544 1336 17 10 31 26 31 34 0 83 -182 214 -375 270
-120 35 -266 51 -323 36 -157 -43 -332 -408 -506 -1051 -103 -383 -173 -699
-362 -1630 -74 -366 -144 -705 -157 -754 l-22 -89 -225 -77 c-336 -114 -443
-165 -569 -270 -155 -129 -256 -344 -236 -505 34 -272 235 -501 500 -570 76
-19 215 -19 313 1 46 9 118 35 178 64 208 101 377 308 513 630 54 129 136 374
172 519 20 79 29 97 54 115 273 197 450 363 641 600 86 106 237 334 312 468
l59 107 11 -127 c35 -398 195 -651 465 -738 105 -34 245 -38 324 -11 217 76
482 388 737 867 l56 105 0 -76 c1 -558 249 -907 650 -913 69 -1 109 4 148 18
206 71 473 379 702 807 l55 102 12 -144 c24 -284 96 -473 233 -610 120 -120
250 -173 425 -173 81 -1 97 3 155 31 225 110 501 489 766 1050 77 164 90 186
80 138 -3 -16 -11 -94 -16 -172 -33 -474 104 -838 369 -976 100 -53 171 -71
286 -71 93 -1 105 1 170 32 221 105 454 387 692 837 l53 100 0 -66 c2 -552
253 -898 656 -903 100 -1 101 -1 190 43 79 39 103 58 214 170 203 204 358 440
576 876 69 138 127 252 129 254 2 1 -3 -26 -11 -60 -8 -35 -71 -343 -139 -684
-130 -648 -157 -771 -171 -785 -5 -4 -110 -43 -234 -85 -444 -151 -618 -270
-731 -500 -107 -218 -53 -468 142 -664 126 -126 251 -181 426 -189 237 -10
424 68 597 248 195 204 321 477 470 1020 15 54 18 57 133 141 340 250 620 573
860 996 l69 122 12 -132 c14 -169 50 -308 108 -427 84 -169 231 -290 404 -331
83 -20 215 -18 278 5 170 58 371 265 575 589 l59 92 -7 -80 c-14 -163 38 -300
159 -420 118 -116 256 -185 387 -193 73 -4 77 -3 111 27 41 36 129 204 323
616 272 579 513 1031 711 1333 104 159 234 341 257 360 9 8 -2 -40 -29 -126
-170 -549 -267 -1085 -250 -1388 24 -431 183 -702 471 -800 102 -34 241 -39
322 -11 205 72 458 363 697 802 l76 140 0 -62 c0 -33 5 -106 10 -162 48 -460
285 -731 646 -735 100 -1 101 -1 190 43 79 39 103 58 214 170 203 204 358 440
576 876 69 138 127 252 129 254 2 1 -3 -26 -11 -60 -8 -35 -71 -343 -139 -684
-130 -648 -157 -771 -171 -785 -5 -4 -110 -43 -234 -85 -444 -151 -618 -270
-731 -500 -107 -218 -53 -468 142 -664 126 -126 251 -181 426 -189 237 -10
424 68 597 248 195 204 321 477 470 1020 15 54 18 57 133 141 333 245 614 567
847 973 268 466 576 1294 576 1549 0 73 -11 88 -42 60 -49 -43 -125 -176 -436
-763 -326 -617 -423 -780 -593 -1000 -84 -109 -330 -361 -336 -344 -7 20 179
739 293 1134 84 289 201 647 271 825 108 274 232 493 303 533 104 59 -77 227
-327 306 -45 14 -131 31 -190 37 -140 15 -173 7 -251 -66 l-59 -54 -48 69
c-97 143 -250 254 -413 299 -228 63 -477 49 -682 -38 -363 -155 -700 -592
-920 -1195 -33 -91 -375 -752 -528 -1021 -246 -434 -389 -603 -475 -564 -37
17 -50 54 -55 162 -20 428 257 1409 585 2077 61 124 87 165 130 209 45 45 53
58 48 79 -11 43 -55 90 -131 141 -130 88 -306 140 -481 144 -78 2 -94 -1 -139
-25 -236 -124 -593 -580 -1038 -1327 -177 -297 -441 -781 -528 -968 -21 -46
-40 -83 -42 -83 -5 0 15 81 71 290 64 241 188 634 331 1050 147 428 210 627
218 691 13 94 -55 189 -183 256 -175 92 -473 144 -575 100 -53 -22 -68 -60
-78 -190 -12 -162 -51 -323 -222 -916 l-90 -313 -150 -287 c-386 -735 -568
-1021 -691 -1080 -84 -41 -118 -1 -125 146 -20 420 239 1356 558 2019 85 178
150 281 184 294 85 32 -13 158 -189 245 -108 53 -202 80 -335 95 -128 15 -151
8 -229 -76 -165 -176 -388 -687 -546 -1249 -34 -120 -51 -158 -219 -475 -289
-544 -392 -717 -557 -930 -84 -109 -330 -361 -336 -344 -7 20 179 739 293
1134 84 289 201 647 271 825 108 274 232 493 303 533 104 59 -77 227 -327 306
-45 14 -131 31 -190 37 -140 15 -173 7 -251 -66 l-59 -54 -48 69 c-97 143
-250 254 -413 299 -168 46 -381 51 -535 12 -434 -112 -807 -546 -1065 -1241
-22 -58 -53 -130 -70 -160 -16 -30 -103 -194 -192 -365 -327 -624 -483 -880
-613 -1003 -64 -60 -97 -75 -130 -63 -42 16 -52 61 -51 231 1 177 17 309 74
590 214 1060 806 2607 1255 3285 82 123 172 228 213 247 44 22 39 50 -19 108
-107 107 -306 215 -476 260 -105 27 -229 35 -268 16z m-1270 -2285 c59 -26
125 -115 125 -166 0 -13 -266 -609 -455 -1020 -120 -262 -350 -727 -425 -860
-263 -467 -393 -534 -408 -209 -24 555 414 1696 812 2112 133 139 253 188 351
143z m3201 3 c91 -44 189 -226 195 -364 2 -39 -7 -60 -60 -155 -35 -60 -167
-306 -294 -545 -254 -482 -392 -732 -505 -920 -160 -268 -286 -430 -357 -464
-34 -16 -38 -16 -61 -1 -49 32 -59 74 -59 250 1 179 19 305 81 543 80 310 192
608 349 927 133 272 254 456 384 586 141 142 239 185 327 143z m7840 0 c91
-44 189 -226 195 -364 2 -39 -7 -60 -60 -155 -35 -60 -167 -306 -294 -545
-254 -482 -392 -732 -505 -920 -160 -268 -286 -430 -357 -464 -34 -16 -38 -16
-61 -1 -49 32 -59 74 -59 250 1 179 19 305 81 543 80 310 192 608 349 927 133
272 254 456 384 586 141 142 239 185 327 143z m-17966 -3689 c0 -3 -15 -45
-34 -93 -42 -110 -108 -241 -157 -313 -89 -131 -204 -185 -266 -123 -23 23
-25 31 -21 87 5 90 60 201 136 276 62 62 121 97 242 142 75 28 100 34 100 24z
m9540 -4 c0 -19 -69 -189 -110 -272 -86 -176 -176 -268 -269 -277 -43 -4 -50
-2 -70 24 -34 44 -27 137 18 230 64 130 178 222 354 284 60 21 77 24 77 11z
m7840 0 c0 -19 -69 -189 -110 -272 -86 -176 -176 -268 -269 -277 -43 -4 -50
-2 -70 24 -34 44 -27 137 18 230 64 130 178 222 354 284 60 21 77 24 77 11z"/>
<path d="M18638 9391 c-53 -11 -82 -34 -127 -100 -152 -223 -351 -748 -351
-923 0 -92 70 -175 195 -233 91 -43 166 -59 249 -53 58 3 71 8 86 28 10 14 72
124 136 245 261 488 374 686 419 735 36 38 45 71 30 107 -33 79 -248 168 -465
193 -94 11 -118 11 -172 1z"/>
</g>
</svg>
