<?xml version="1.0" standalone="no"?>
<!DOCTYPE svg PUBLIC "-//W3C//DTD SVG 20010904//EN"
 "http://www.w3.org/TR/2001/REC-SVG-20010904/DTD/svg10.dtd">
<svg version="1.0" xmlns="http://www.w3.org/2000/svg"
 width="3000.000000pt" height="3000.000000pt" viewBox="0 0 3000.000000 3000.000000"
 preserveAspectRatio="xMidYMid meet">

<g transform="translate(0.000000,3000.000000) scale(0.100000,-0.100000)"
fill="#000000" stroke="none">
<path d="M18833 28410 c-85 -20 -109 -56 -135 -207 -11 -65 -25 -128 -30 -139
-17 -36 -52 -44 -196 -44 -160 0 -316 -21 -343 -46 -42 -38 -31 -86 24 -109
18 -7 128 -21 246 -31 238 -20 246 -23 237 -83 -13 -83 -37 -419 -47 -672 -16
-387 6 -815 56 -1114 58 -342 169 -552 335 -633 46 -22 71 -27 155 -30 133 -5
190 16 282 101 76 72 131 161 193 314 l44 109 53 -108 c117 -237 287 -343 569
-355 245 -11 426 61 601 239 104 105 162 186 233 327 55 111 62 115 222 129
176 16 392 62 520 111 39 15 61 52 49 83 -24 65 -136 67 -424 8 -114 -23 -214
-40 -222 -36 -19 7 -19 35 2 148 24 133 24 404 -1 518 -67 311 -214 523 -469
679 -151 93 -287 134 -442 133 -325 -1 -569 -195 -645 -515 -27 -112 -36 -275
-19 -352 23 -110 27 -93 -141 -686 -88 -313 -171 -489 -286 -607 -55 -56 -64
-63 -82 -53 -27 14 -75 117 -95 201 -53 218 -71 488 -64 969 4 352 27 902 43
1049 10 97 -4 94 362 90 342 -3 382 1 428 47 26 26 30 60 13 99 -23 50 -70 57
-441 65 -232 4 -310 9 -320 19 -9 9 -13 51 -13 150 0 156 -12 193 -75 224 -37
19 -118 22 -177 8z m1621 -950 c145 -76 258 -195 337 -355 95 -194 132 -398
111 -614 -20 -205 -44 -259 -107 -245 -63 13 -213 68 -280 101 -212 106 -361
277 -410 468 -19 75 -19 219 0 310 28 136 136 308 217 348 47 23 68 21 132
-13z m-248 -1246 c133 -62 277 -108 404 -129 150 -24 147 -23 154 -40 14 -38
-119 -237 -231 -347 -124 -120 -183 -137 -253 -70 -86 81 -142 215 -180 424
-24 133 -26 208 -6 208 7 0 58 -21 112 -46z"/>
<path d="M8401 28280 c-61 -13 -90 -35 -111 -83 -25 -58 -106 -660 -130 -972
-33 -439 -42 -718 -37 -1185 4 -350 8 -462 21 -524 20 -104 43 -182 67 -228
61 -120 206 -170 325 -112 47 23 53 51 28 127 -23 68 -31 290 -22 581 7 219
134 1619 178 1961 29 226 33 315 18 345 -17 31 -70 67 -117 79 -58 15 -172 20
-220 11z"/>
<path d="M16570 28111 c-71 -15 -108 -50 -134 -129 -9 -26 -35 -163 -59 -305
-29 -171 -49 -262 -58 -268 -8 -5 -23 -7 -34 -4 -108 30 -168 37 -295 32 -364
-13 -626 -178 -765 -480 -151 -330 -179 -758 -70 -1082 59 -177 177 -351 286
-424 85 -57 151 -74 284 -75 125 0 220 23 314 77 70 39 184 148 258 244 l57
75 17 -49 c43 -125 170 -337 234 -386 137 -108 331 -130 482 -57 102 50 169
143 266 370 114 268 256 815 260 1002 2 81 -17 109 -78 111 -69 2 -95 -52
-165 -353 -63 -267 -192 -614 -294 -788 -56 -96 -112 -163 -131 -156 -23 9
-83 165 -104 274 -39 206 -46 310 -46 730 0 444 11 615 66 1065 17 138 32 305
33 372 1 121 1 122 -28 152 -23 24 -41 32 -95 40 -105 16 -163 19 -201 12z
m-362 -917 c83 -41 87 -55 85 -274 -3 -457 -99 -826 -283 -1098 -68 -99 -82
-116 -128 -154 -88 -73 -178 5 -236 206 -47 162 -59 262 -53 450 8 259 54 463
144 638 90 176 201 257 354 258 51 0 77 -6 117 -26z"/>
<path d="M12535 27656 c-93 -22 -217 -70 -276 -108 -174 -111 -278 -321 -266
-533 10 -173 72 -310 210 -466 42 -49 77 -92 77 -96 0 -20 -148 -392 -195
-488 -94 -194 -236 -389 -279 -383 -27 4 -50 71 -66 198 -11 87 -16 962 -5
979 2 4 5 144 6 312 3 287 2 308 -17 339 -27 46 -77 70 -144 70 -116 0 -184
-42 -219 -134 -11 -30 -36 -130 -56 -222 -62 -290 -194 -701 -334 -1039 -82
-196 -211 -456 -234 -469 -42 -25 -70 54 -108 316 -18 124 -20 173 -16 368 6
241 24 416 82 782 19 120 32 226 29 235 -25 78 -77 104 -213 110 -149 7 -166
-11 -221 -219 -139 -528 -150 -1059 -28 -1438 53 -167 158 -304 270 -356 54
-25 75 -29 153 -29 79 0 97 4 148 28 107 53 178 166 304 481 l88 219 11 -104
c45 -409 146 -568 399 -634 113 -29 235 -12 315 45 17 12 32 21 33 19 1 -2 17
-34 35 -70 59 -118 157 -201 287 -242 60 -19 92 -22 230 -21 146 0 167 3 241
27 190 63 331 200 399 387 54 148 44 291 -31 465 -20 46 -34 90 -31 97 3 8 25
20 48 27 72 21 171 66 243 110 38 22 69 41 71 41 1 0 5 -37 9 -82 15 -186 73
-397 149 -542 110 -213 314 -326 567 -313 253 12 459 167 602 452 115 228 192
489 158 530 -15 18 -70 20 -93 3 -9 -7 -61 -105 -116 -218 -103 -212 -168
-321 -241 -403 -81 -91 -225 -187 -280 -187 -98 0 -203 298 -235 665 -8 93 1
108 70 119 156 27 304 107 446 243 126 122 209 230 271 358 68 140 91 241 86
370 -3 94 -6 108 -41 177 -51 105 -123 170 -220 200 -62 20 -94 23 -222 23
-146 0 -153 -1 -252 -36 -279 -98 -430 -273 -547 -636 -41 -127 -82 -322 -92
-436 l-7 -78 -54 -39 c-108 -77 -354 -190 -415 -190 -22 0 -38 14 -82 73 -30
39 -76 95 -102 124 -25 29 -43 56 -40 61 3 5 59 45 123 88 262 174 364 337
364 579 0 252 -97 394 -322 470 -73 24 -102 28 -224 31 -95 3 -159 -1 -200
-10z m214 -240 c40 -21 90 -81 120 -146 23 -49 26 -67 26 -171 0 -113 -1 -116
-38 -192 -27 -55 -61 -101 -121 -163 -82 -85 -85 -87 -108 -73 -56 37 -158
292 -158 396 0 107 87 273 174 331 54 36 65 38 105 18z m1647 -41 c12 -8 31
-38 44 -67 60 -140 1 -374 -154 -613 -84 -129 -183 -217 -256 -227 -24 -3 -25
-1 -28 67 -7 147 33 310 119 495 75 158 214 360 249 360 3 0 15 -7 26 -15z
m-1881 -1130 c116 -110 116 -105 -8 -154 -43 -17 -105 -45 -138 -62 -34 -17
-63 -29 -64 -27 -2 2 12 55 31 118 19 63 42 139 50 168 9 28 18 52 22 52 4 0
52 -43 107 -95z m216 -266 c24 -12 92 -149 116 -228 55 -191 -148 -491 -334
-491 -117 0 -248 118 -272 246 -30 156 80 297 331 424 65 33 123 60 129 60 6
0 19 -5 30 -11z"/>
<path d="M12535 24463 c-411 -38 -733 -224 -861 -498 -65 -141 -81 -240 -104
-640 -24 -418 -94 -985 -201 -1635 -81 -492 -141 -749 -370 -1605 -54 -203
-141 -528 -193 -722 -157 -585 -256 -1019 -312 -1368 -35 -217 -39 -450 -10
-560 40 -153 124 -264 241 -320 100 -47 172 -57 400 -58 183 -1 221 2 297 21
208 51 348 163 444 353 90 181 106 274 149 920 39 582 70 972 84 1061 16 92
60 166 116 192 88 42 271 40 389 -5 67 -25 128 -82 143 -134 18 -59 24 -275
27 -920 2 -481 6 -600 20 -695 48 -331 136 -548 262 -642 91 -70 291 -128 510
-149 147 -14 436 1 569 30 284 62 495 177 612 334 137 184 207 456 183 709
-32 337 -142 758 -420 1603 -189 574 -362 1181 -450 1580 -192 863 -316 1563
-385 2174 -27 245 -55 372 -108 497 -95 227 -267 380 -484 434 -170 42 -379
58 -548 43z m-27 -2715 c17 -18 42 -58 56 -89 94 -213 191 -926 142 -1043 -24
-58 -125 -83 -271 -67 -105 12 -170 41 -204 91 -22 34 -23 40 -18 180 3 95 14
190 31 275 14 72 35 191 46 265 58 369 123 485 218 388z"/>
<path d="M15713 24445 c-191 -42 -339 -182 -414 -393 -48 -136 -63 -254 -63
-482 0 -273 31 -479 124 -844 97 -380 133 -694 133 -1171 -1 -687 -104 -1686
-268 -2585 -132 -728 -154 -1081 -85 -1357 53 -209 190 -388 360 -470 168 -81
381 -119 610 -109 429 18 731 129 924 338 74 79 145 209 171 313 53 208 36
469 -61 910 -90 410 -115 886 -59 1107 22 86 70 179 113 222 65 66 143 42 211
-64 66 -101 112 -244 155 -480 51 -278 56 -481 20 -760 -8 -63 -24 -181 -34
-261 -60 -456 -39 -749 70 -957 81 -156 190 -246 373 -307 189 -63 323 -76
572 -55 252 22 418 61 564 132 91 43 117 62 191 137 131 130 191 267 219 496
47 384 -61 977 -296 1630 -113 313 -388 982 -489 1191 l-45 92 119 119 c284
283 441 629 508 1123 24 170 24 581 0 769 -67 547 -252 950 -572 1250 -259
242 -572 379 -1009 440 -263 37 -388 41 -1194 40 -622 0 -799 -3 -848 -14z
m1795 -989 c200 -54 358 -265 424 -567 19 -91 22 -132 22 -339 0 -328 -32
-499 -135 -708 -91 -187 -205 -280 -353 -290 -189 -12 -353 98 -450 301 -80
168 -119 334 -138 585 -28 396 44 706 204 878 73 77 130 113 218 136 80 21
139 22 208 4z"/>
<path d="M20355 24435 c-143 -26 -234 -74 -323 -169 -135 -144 -192 -349 -192
-686 0 -244 25 -433 101 -755 191 -813 209 -1188 104 -2140 -13 -121 -36 -337
-50 -480 -39 -391 -99 -855 -155 -1190 -116 -700 -146 -1017 -121 -1288 31
-335 134 -535 323 -621 163 -76 60 -70 1358 -74 1265 -3 1313 -1 1522 52 120
30 266 104 369 186 165 131 383 457 458 685 51 156 74 407 74 790 0 259 -17
425 -64 654 -82 395 -276 794 -433 890 -35 22 -156 55 -262 71 -94 15 -187 0
-283 -46 -57 -26 -93 -53 -156 -117 -151 -151 -275 -336 -409 -606 -88 -177
-140 -255 -224 -333 -76 -70 -142 -91 -292 -92 -172 -2 -231 27 -287 137 -41
82 -53 177 -60 482 -11 520 37 823 151 943 98 104 216 107 566 11 144 -39 263
-45 325 -14 58 28 157 131 188 195 50 102 69 201 70 355 1 153 -13 227 -59
323 -33 68 -108 143 -176 175 -99 48 -167 46 -439 -13 -182 -40 -316 -54 -369
-40 -174 47 -260 335 -260 872 0 317 31 514 105 664 77 157 251 234 527 234
143 0 225 -17 310 -62 129 -69 215 -213 324 -545 115 -350 203 -492 352 -565
59 -29 76 -33 152 -33 77 0 92 3 155 34 99 49 217 168 273 278 221 429 210
1092 -25 1545 -69 133 -145 220 -235 269 l-63 34 -1400 2 c-1113 1 -1414 -1
-1470 -12z"/>
<path d="M8285 24424 c-77 -7 -183 -24 -235 -38 -245 -62 -563 -203 -728 -321
-575 -413 -937 -1224 -1087 -2435 -47 -388 -58 -557 -59 -900 0 -633 87 -1346
224 -1829 138 -486 322 -868 563 -1166 90 -112 285 -297 398 -378 185 -132
441 -241 675 -287 402 -78 961 -36 1299 97 297 116 507 304 748 668 148 224
218 400 242 614 51 445 43 697 -30 1006 -93 392 -299 777 -453 843 -83 36
-247 65 -337 59 -143 -9 -273 -77 -369 -193 -130 -157 -218 -316 -276 -495
-22 -68 -59 -171 -82 -229 -70 -173 -156 -240 -308 -240 -88 0 -147 25 -210
90 -97 99 -195 316 -295 655 -153 520 -217 1008 -216 1655 0 487 42 882 127
1200 58 215 172 431 283 537 92 87 347 135 511 94 212 -52 317 -186 445 -561
72 -211 151 -372 222 -450 42 -45 75 -70 140 -102 76 -38 93 -42 157 -42 59 0
83 5 140 32 194 91 310 248 378 512 40 151 49 370 24 529 -80 508 -462 897
-1016 1036 -217 55 -554 70 -875 39z"/>
<path d="M10156 16520 c-51 -13 -90 -43 -109 -82 -8 -18 -24 -86 -35 -152 -13
-74 -26 -125 -36 -135 -14 -13 -50 -17 -199 -22 -206 -7 -308 -22 -332 -49
-10 -11 -15 -31 -13 -52 5 -54 40 -64 286 -84 118 -10 220 -23 228 -29 13 -9
13 -30 0 -165 -40 -409 -52 -947 -27 -1265 l12 -160 -40 -99 c-52 -127 -140
-293 -199 -376 -59 -83 -121 -150 -138 -150 -43 0 -73 149 -81 400 -3 96 0
446 6 778 12 577 12 604 -6 639 -48 100 -227 111 -320 21 -40 -39 -57 -88
-108 -323 -67 -306 -202 -713 -351 -1062 -81 -189 -168 -368 -192 -395 -20
-23 -49 -23 -61 0 -25 46 -60 237 -80 432 -19 180 11 557 79 993 17 105 30
210 30 233 0 80 -59 119 -197 130 -157 12 -181 -14 -243 -259 -72 -288 -100
-503 -100 -775 -1 -418 83 -733 235 -887 82 -84 137 -109 247 -113 216 -9 306
87 470 500 45 114 85 202 89 195 3 -6 9 -47 12 -89 9 -105 43 -257 79 -350 66
-172 233 -281 433 -282 95 0 161 26 239 93 83 72 125 130 191 266 36 72 65
122 65 113 0 -10 14 -62 31 -115 83 -261 205 -394 389 -422 136 -22 252 20
351 127 102 109 208 351 282 648 40 159 84 409 93 528 6 73 4 83 -14 99 -28
26 -81 25 -102 -1 -10 -12 -27 -59 -39 -104 -76 -288 -168 -607 -198 -688 -67
-181 -148 -317 -233 -394 -38 -34 -43 -36 -63 -23 -65 43 -118 254 -146 582
-23 257 -11 890 28 1538 12 198 -20 181 336 173 341 -8 410 0 458 54 23 26 27
37 22 63 -10 46 -37 69 -92 79 -26 5 -186 12 -355 16 -231 5 -310 10 -320 20
-9 9 -13 50 -13 145 0 145 -12 190 -62 223 -31 20 -132 27 -187 14z"/>
<path d="M14646 16520 c-51 -13 -90 -43 -109 -82 -8 -18 -24 -86 -35 -152 -13
-74 -26 -125 -36 -135 -14 -13 -50 -17 -199 -22 -206 -7 -308 -22 -332 -49
-10 -11 -15 -31 -13 -52 5 -53 40 -64 278 -83 113 -9 216 -20 229 -26 21 -9
23 -14 17 -57 -16 -127 -37 -425 -46 -669 -22 -541 25 -1086 116 -1368 80
-245 205 -377 384 -404 235 -37 399 104 536 461 20 51 37 94 39 96 1 1 23 -34
50 -79 65 -114 124 -173 209 -214 153 -72 295 -73 443 -4 118 56 164 119 259
356 27 68 53 123 57 123 9 0 6 8 42 -135 56 -229 142 -403 254 -516 91 -91
149 -113 291 -114 94 0 111 3 166 28 72 33 131 91 173 167 34 62 33 63 57 -65
9 -49 22 -101 29 -115 34 -65 100 -94 215 -93 86 1 141 19 166 57 20 32 17
121 -14 496 -25 288 -36 460 -29 460 2 0 51 -62 107 -137 118 -158 315 -361
408 -421 72 -47 158 -78 270 -98 225 -40 403 14 497 150 l37 54 51 -102 c40
-80 65 -115 121 -171 80 -80 145 -115 260 -145 236 -60 469 14 643 204 93 101
200 304 268 511 46 134 58 213 39 243 -16 25 -60 30 -87 10 -9 -7 -68 -117
-131 -244 -125 -252 -199 -362 -295 -442 -85 -71 -156 -113 -200 -119 -34 -5
-43 -2 -66 23 -54 58 -109 196 -139 344 -20 102 -46 292 -46 339 0 48 9 56 91
75 190 44 306 114 470 282 103 107 154 174 208 275 77 144 119 311 108 432
-16 167 -122 307 -270 353 -30 9 -105 18 -177 21 -155 6 -259 -15 -400 -84
-80 -39 -108 -59 -185 -137 -76 -76 -99 -108 -142 -191 -127 -251 -195 -525
-210 -853 -4 -88 -1 -181 7 -252 l12 -114 -51 -100 c-145 -287 -276 -305 -502
-70 -109 114 -552 709 -545 732 3 10 52 52 108 94 238 176 808 816 808 906 0
38 -32 60 -103 67 -36 4 -85 4 -108 0 -97 -16 -120 -36 -493 -407 -197 -197
-362 -358 -366 -358 -5 0 -6 256 -3 570 6 520 5 573 -11 614 -25 64 -64 81
-187 81 -111 0 -137 -10 -167 -64 -34 -59 -70 -351 -104 -826 -18 -251 -17
-826 2 -1045 24 -279 22 -307 -28 -432 -81 -201 -189 -336 -229 -285 -13 15
-46 112 -67 192 -51 200 -91 624 -126 1330 -16 333 -32 402 -101 429 -22 9
-50 16 -64 16 -13 0 -90 12 -172 26 -291 52 -487 31 -698 -74 -280 -139 -428
-347 -501 -703 -13 -62 -18 -139 -19 -299 l-1 -215 -37 -122 c-83 -276 -177
-457 -287 -557 -38 -34 -43 -36 -63 -23 -65 43 -118 254 -146 582 -23 257 -11
890 28 1538 12 198 -20 181 336 173 341 -8 410 0 458 54 23 26 27 37 22 63
-10 46 -37 69 -92 79 -26 5 -186 12 -355 16 -231 5 -310 10 -320 20 -9 9 -13
50 -13 145 0 145 -12 190 -62 223 -31 20 -132 27 -187 14z m5358 -1057 c39
-62 49 -108 43 -202 -6 -93 -38 -202 -89 -306 -41 -80 -128 -214 -173 -263
-44 -49 -120 -100 -163 -108 l-32 -6 0 93 c0 121 27 250 79 380 86 215 241
449 297 449 8 0 25 -17 38 -37z m-3570 -73 c19 -17 37 -43 41 -58 10 -48 -93
-511 -180 -809 -82 -282 -160 -480 -228 -580 -60 -90 -73 -92 -107 -15 -94
209 -137 586 -95 826 18 101 76 288 112 361 59 117 163 218 288 276 81 38 125
38 169 -1z"/>
<path d="M12650 16372 c-68 -34 -72 -49 -135 -522 -71 -527 -99 -1044 -92
-1685 4 -362 8 -467 21 -535 36 -185 83 -280 163 -327 40 -24 59 -28 118 -28
83 0 142 24 151 62 4 13 -1 48 -10 76 -31 93 -40 284 -27 576 11 259 128 1547
186 2040 27 237 25 274 -22 310 -42 34 -118 51 -222 51 -72 0 -105 -5 -131
-18z"/>
<path d="M6127 16240 c-54 -29 -93 -90 -126 -194 -113 -352 -175 -771 -202
-1356 -11 -258 -7 -442 17 -730 28 -341 93 -701 141 -782 36 -62 63 -73 176
-73 120 0 179 16 220 56 l30 30 -7 150 c-6 128 -5 150 8 155 8 3 50 -6 93 -20
213 -69 430 -62 649 23 330 127 544 407 609 800 14 81 16 140 12 279 -8 265
-47 446 -138 631 -94 192 -256 322 -455 367 -92 20 -263 15 -359 -11 -118 -32
-223 -93 -310 -180 -45 -44 -93 -96 -107 -115 -14 -19 -28 -33 -31 -30 -5 5
15 168 78 634 30 229 31 271 5 313 -30 49 -72 66 -175 70 -76 3 -96 0 -128
-17z m889 -879 c45 -28 76 -73 133 -191 90 -189 131 -376 131 -596 0 -215 -44
-411 -136 -599 -102 -211 -228 -305 -409 -305 -134 0 -250 44 -320 122 -77 86
-88 158 -60 387 44 354 167 726 312 943 89 134 233 258 298 258 11 0 34 -9 51
-19z"/>
<path d="M22685 15626 c-307 -50 -563 -229 -688 -481 -186 -373 -161 -930 57
-1280 78 -124 177 -195 314 -224 205 -43 418 49 501 218 15 31 50 111 77 178
27 68 53 123 57 123 9 0 6 8 42 -135 56 -229 142 -403 254 -516 91 -91 149
-113 291 -114 94 0 111 3 167 29 92 42 142 101 218 259 113 234 179 484 208
787 16 168 11 207 -31 216 -15 3 -31 7 -37 9 -23 6 -57 -17 -70 -48 -8 -19
-34 -133 -59 -254 -25 -121 -57 -260 -72 -309 -86 -299 -236 -541 -291 -471
-13 15 -46 112 -67 192 -51 200 -91 624 -126 1330 -16 333 -32 402 -101 429
-22 9 -50 16 -64 16 -13 0 -90 11 -171 25 -184 32 -306 38 -409 21z m259 -236
c19 -17 37 -43 41 -58 10 -48 -93 -511 -180 -809 -82 -282 -160 -480 -228
-580 -60 -90 -73 -92 -107 -15 -94 209 -137 586 -95 826 18 101 76 288 112
361 59 117 163 218 288 276 81 38 125 38 169 -1z"/>
<path d="M8111 12585 c-105 -24 -185 -67 -260 -142 -156 -157 -221 -370 -221
-724 0 -263 39 -526 130 -874 143 -548 165 -1167 75 -2150 -27 -294 -64 -611
-101 -870 -38 -275 -47 -329 -128 -805 -77 -454 -98 -649 -100 -905 0 -166 3
-229 17 -300 97 -479 468 -693 1102 -635 300 28 528 105 708 241 177 134 280
345 294 604 10 183 -22 393 -126 836 -130 552 -164 812 -150 1120 10 194 50
295 170 423 119 128 288 186 593 206 286 19 563 63 721 115 97 32 280 118 360
170 232 148 403 434 489 815 50 227 60 346 60 715 0 365 -7 457 -60 715 -119
578 -450 1025 -925 1249 -192 90 -402 144 -729 188 -177 23 -1819 30 -1919 8z
m1769 -928 c109 -40 226 -135 300 -242 116 -169 180 -430 180 -737 0 -317 -66
-532 -205 -674 -76 -77 -134 -111 -225 -130 -209 -43 -420 66 -528 273 -85
164 -122 348 -129 654 -10 390 40 617 166 760 101 116 282 155 441 96z"/>
<path d="M12595 12581 c-223 -48 -322 -95 -440 -215 -97 -98 -154 -200 -192
-344 -21 -81 -26 -128 -30 -279 -9 -282 13 -416 117 -723 87 -260 122 -440
140 -731 13 -208 4 -429 -50 -1159 -11 -146 -33 -483 -50 -750 -52 -837 -78
-1062 -170 -1450 -153 -649 -158 -1037 -16 -1325 109 -222 300 -346 616 -401
186 -32 472 -2 709 76 269 88 450 246 540 470 48 121 65 232 64 415 -1 220
-25 378 -113 740 -88 359 -117 587 -155 1217 -35 576 -92 1488 -106 1683 -16
222 -16 611 -1 715 32 219 62 330 166 625 55 157 76 277 83 472 7 193 -5 307
-43 441 -79 272 -251 438 -534 512 -123 32 -405 38 -535 11z"/>
<path d="M14835 12589 c-284 -39 -511 -183 -616 -390 -107 -214 -129 -601 -53
-939 8 -36 43 -153 78 -260 111 -339 131 -478 131 -900 -1 -327 -7 -441 -55
-1100 -16 -217 -36 -516 -45 -665 -8 -148 -20 -342 -26 -430 -17 -268 -79
-682 -158 -1062 -69 -325 -95 -523 -95 -718 0 -189 12 -279 56 -435 80 -283
217 -438 438 -494 46 -11 267 -14 1255 -17 1082 -3 1211 -1 1308 14 199 31
299 64 442 146 162 94 358 323 480 562 124 243 141 334 160 869 22 584 -112
1150 -356 1510 -90 133 -144 170 -300 204 -182 41 -285 31 -411 -36 -147 -78
-350 -343 -515 -673 -47 -93 -101 -194 -120 -224 -45 -71 -137 -167 -188 -197
-93 -54 -303 -73 -388 -36 -36 16 -47 28 -66 72 -45 105 -87 362 -111 675 -20
280 -30 574 -41 1312 -18 1130 -7 1253 155 1716 87 246 100 322 101 572 0 168
-4 227 -19 295 -74 340 -264 539 -585 611 -102 23 -351 33 -456 18z"/>
<path d="M19205 12589 c-283 -39 -511 -183 -616 -390 -70 -139 -105 -354 -96
-593 7 -201 33 -334 116 -590 117 -358 136 -490 136 -916 -1 -320 -7 -449 -50
-1035 -36 -491 -53 -745 -65 -990 -19 -386 -70 -754 -169 -1232 -69 -326 -95
-524 -95 -718 0 -189 12 -279 56 -435 80 -283 217 -438 438 -494 46 -11 267
-14 1255 -17 1082 -3 1211 -1 1308 14 199 31 299 64 442 146 162 94 358 323
480 562 99 194 131 310 145 539 33 528 19 802 -56 1140 -90 403 -291 789 -449
864 -54 26 -242 66 -310 66 -109 0 -223 -41 -312 -112 -120 -95 -312 -366
-440 -622 -47 -94 -101 -195 -120 -225 -45 -71 -137 -167 -188 -197 -93 -54
-303 -73 -388 -36 -36 16 -47 28 -66 72 -45 105 -87 362 -111 675 -20 280 -30
574 -41 1312 -18 1130 -7 1253 155 1716 87 246 100 322 101 572 0 168 -4 227
-19 295 -74 340 -264 539 -585 611 -102 23 -351 33 -456 18z"/>
<path d="M25227 5021 c-108 -23 -118 -46 -163 -386 -19 -148 -41 -317 -49
-375 -38 -288 -63 -726 -71 -1275 -7 -411 -2 -497 35 -581 11 -23 31 -50 45
-59 38 -25 132 -30 199 -11 65 19 87 44 87 98 0 49 83 793 120 1083 17 127 55
439 85 695 30 256 61 512 69 570 10 80 11 113 2 140 -12 38 -58 74 -115 90
-49 14 -197 21 -244 11z"/>
<path d="M10686 4850 c-51 -13 -90 -43 -109 -82 -8 -18 -24 -86 -35 -152 -13
-74 -26 -125 -36 -135 -14 -13 -50 -17 -199 -22 -206 -7 -308 -22 -332 -49
-10 -11 -15 -31 -13 -52 5 -53 40 -64 278 -83 113 -9 216 -20 229 -26 21 -9
23 -14 17 -57 -16 -127 -37 -425 -46 -669 -15 -372 1 -725 46 -1048 64 -454
210 -686 454 -724 224 -35 394 102 520 419 12 30 27 66 32 80 9 21 15 3 39
-120 47 -236 101 -379 160 -422 14 -11 57 -24 95 -30 90 -14 208 9 247 48 33
32 35 45 47 279 27 518 107 937 257 1355 94 260 198 444 320 566 82 82 99 82
130 3 31 -79 51 -203 68 -429 8 -107 24 -316 35 -465 40 -540 93 -808 191
-971 96 -160 291 -200 452 -93 55 36 127 140 177 254 l32 74 50 -82 c65 -108
118 -161 203 -202 152 -72 294 -73 442 -4 118 56 164 119 259 356 27 68 53
123 57 123 9 0 6 8 42 -135 56 -229 142 -403 254 -516 91 -91 149 -113 291
-114 94 0 111 3 167 29 82 37 141 102 195 210 23 47 45 86 48 86 3 0 20 -29
39 -65 42 -81 123 -165 193 -198 111 -55 248 -54 356 0 156 79 294 337 395
739 40 159 84 409 93 528 6 73 4 83 -14 99 -11 10 -35 19 -53 19 -39 1 -64
-26 -79 -85 -48 -190 -150 -554 -181 -650 -47 -145 -114 -288 -173 -371 -44
-62 -118 -136 -136 -136 -5 0 -20 15 -33 32 -140 187 -172 882 -98 2106 12
192 -19 176 336 168 341 -8 410 0 458 54 23 26 27 37 22 63 -10 46 -37 69 -92
79 -26 5 -186 12 -354 16 -245 6 -309 10 -323 22 -16 12 -17 26 -11 111 13
179 -23 260 -122 275 -59 9 -155 -9 -192 -35 -41 -29 -57 -70 -79 -205 -13
-74 -26 -125 -36 -135 -14 -13 -50 -17 -199 -22 -206 -7 -308 -22 -332 -49
-10 -11 -15 -31 -13 -52 5 -53 40 -64 278 -83 113 -9 216 -20 229 -26 21 -9
23 -14 17 -57 -16 -127 -37 -425 -46 -669 -15 -369 5 -798 50 -1076 8 -53 6
-66 -22 -145 -58 -165 -111 -265 -181 -339 -32 -35 -58 -41 -74 -21 -15 19
-52 130 -73 222 -49 209 -86 615 -120 1301 -16 333 -32 402 -101 429 -22 9
-50 16 -64 16 -13 0 -90 12 -172 26 -291 52 -487 31 -698 -74 -279 -139 -434
-356 -499 -701 -34 -180 -30 -425 10 -588 l14 -58 -74 -150 c-73 -147 -165
-291 -192 -302 -35 -13 -62 50 -89 207 -23 138 -35 313 -45 695 -13 474 -32
688 -81 895 -39 167 -107 263 -222 316 -53 24 -78 29 -168 32 -211 8 -346 -63
-492 -256 -89 -119 -160 -255 -248 -477 l-68 -170 0 260 c0 143 6 413 14 600
21 483 20 546 -6 579 -31 40 -113 60 -224 54 -144 -8 -192 -45 -234 -178 -11
-36 -25 -90 -31 -120 l-10 -55 -270 5 c-202 4 -272 8 -282 18 -9 9 -13 50 -13
145 0 145 -12 190 -62 223 -31 20 -132 27 -187 14z m790 -623 c1 -1 -3 -164
-8 -362 -5 -198 -8 -499 -5 -670 l5 -309 -60 -216 c-110 -396 -199 -588 -328
-704 -38 -34 -43 -36 -63 -23 -65 43 -118 254 -146 582 -23 257 -11 890 28
1538 12 197 -16 181 310 173 146 -4 266 -8 267 -9z m3218 -507 c19 -17 37 -43
41 -58 10 -48 -93 -511 -180 -809 -82 -282 -160 -480 -228 -580 -60 -90 -73
-92 -107 -15 -94 209 -137 586 -95 826 18 101 76 288 112 361 59 117 163 218
288 276 81 38 125 38 169 -1z"/>
<path d="M5312 4730 c-199 -28 -343 -140 -442 -344 -94 -193 -125 -385 -135
-846 -5 -210 -9 -280 -20 -296 -12 -19 -27 -23 -117 -29 -134 -9 -176 -20
-190 -50 -26 -57 19 -83 180 -107 88 -13 132 -24 144 -36 14 -14 20 -47 28
-157 11 -160 87 -874 102 -952 6 -32 18 -61 34 -76 69 -69 289 -55 341 21 16
25 18 53 17 332 -1 270 -15 651 -29 780 -9 76 -13 74 232 80 183 5 223 8 251
23 69 37 63 102 -13 141 -36 19 -62 22 -247 26 -143 3 -211 9 -219 17 -9 9
-13 99 -13 350 -1 333 -1 340 26 449 42 179 105 316 181 397 33 35 41 34 70
-5 67 -90 106 -206 122 -363 16 -152 45 -178 198 -179 98 -1 99 -1 127 31 34
38 44 95 43 263 0 184 -39 295 -139 396 -88 88 -206 132 -374 139 -52 2 -123
0 -158 -5z"/>
<path d="M6480 4143 c-294 -34 -513 -236 -575 -533 -25 -119 -30 -263 -11
-350 21 -99 20 -121 -8 -199 -49 -137 -61 -221 -60 -436 0 -173 3 -211 22
-278 100 -361 320 -537 672 -537 335 0 587 179 795 562 63 118 71 123 197 131
93 6 304 38 341 53 12 4 16 -8 22 -63 25 -274 79 -565 121 -652 34 -68 63 -81
181 -81 64 0 98 5 123 18 61 30 62 34 56 367 -5 307 3 461 40 735 45 337 137
619 255 784 47 66 68 70 93 19 10 -21 40 -75 67 -119 27 -45 49 -87 49 -93 0
-16 60 -80 89 -95 67 -34 162 -29 187 10 14 20 13 36 0 141 -28 211 -62 301
-141 371 -133 117 -382 106 -534 -25 l-44 -37 6 29 c4 17 10 69 13 117 11 143
-20 168 -212 168 -217 0 -231 -19 -284 -394 -43 -310 -59 -471 -72 -756 -6
-140 -12 -256 -12 -257 -4 -5 -352 -73 -376 -73 -39 0 -43 20 -24 110 24 119
30 405 10 520 -38 218 -120 390 -253 530 -208 219 -492 340 -733 313z m176
-238 c128 -65 253 -188 327 -325 46 -83 103 -253 118 -350 16 -105 6 -365 -18
-455 -25 -95 -38 -99 -172 -56 -322 102 -534 292 -596 536 -20 77 -19 227 1
318 39 176 173 357 265 357 14 0 47 -11 75 -25z m-247 -1241 c126 -61 273
-109 391 -129 161 -27 165 -28 168 -52 7 -49 -142 -260 -254 -362 -128 -116
-191 -113 -276 12 -71 105 -110 227 -142 446 -11 76 -13 108 -5 118 7 7 14 13
17 13 3 0 48 -21 101 -46z"/>
<path d="M20570 4143 c-300 -39 -512 -236 -575 -533 -25 -119 -30 -263 -11
-350 21 -98 20 -124 -5 -190 -38 -101 -60 -220 -66 -370 -5 -130 -9 -154 -38
-235 -18 -49 -49 -124 -68 -165 -38 -84 -132 -246 -147 -255 -17 -11 -29 36
-50 199 -16 126 -23 255 -30 620 -11 524 -14 585 -40 751 -32 204 -81 319
-165 393 -57 50 -117 71 -220 78 -178 13 -292 -32 -425 -165 -121 -121 -238
-308 -306 -486 l-19 -50 -6 195 c-8 274 -21 295 -192 306 -153 11 -190 -21
-227 -193 -64 -298 -83 -748 -49 -1143 21 -246 79 -529 124 -606 40 -68 137
-98 245 -75 124 27 156 63 145 165 -17 154 61 632 161 1001 65 235 142 416
249 581 57 88 169 214 191 214 19 0 32 -29 48 -107 25 -120 36 -258 56 -708
21 -475 22 -484 52 -684 30 -205 86 -363 159 -445 95 -109 302 -126 426 -37
49 36 109 132 160 257 19 49 37 90 38 92 2 2 15 -19 29 -48 114 -227 312 -340
596 -340 335 0 587 179 795 562 63 118 71 123 197 131 88 6 223 26 344 52 l30
7 12 -89 c26 -194 97 -419 167 -528 105 -165 388 -198 504 -59 46 55 111 195
167 361 45 130 64 169 64 128 0 -36 105 -328 154 -431 125 -260 199 -325 398
-354 152 -22 276 37 400 191 85 107 143 260 172 461 32 215 66 752 66 1039 0
90 4 149 11 156 7 7 80 9 227 6 196 -4 220 -3 252 14 25 13 36 26 38 46 7 58
-44 84 -280 141 -79 19 -186 52 -238 72 -90 37 -101 38 -210 39 -95 0 -121 -3
-143 -18 -46 -30 -52 -55 -34 -149 71 -362 80 -630 37 -1133 -21 -240 -30
-297 -61 -395 -37 -116 -128 -260 -164 -260 -61 0 -152 294 -194 631 -33 261
-43 439 -46 849 -4 461 -8 490 -78 527 -44 23 -209 24 -252 1 -57 -30 -64 -47
-96 -219 -26 -145 -116 -527 -225 -954 -62 -246 -126 -437 -140 -422 -12 12
-34 266 -45 519 -14 318 -2 614 31 814 11 65 23 164 26 219 6 93 5 102 -15
127 -49 61 -184 72 -281 23 -104 -53 -144 -133 -195 -397 -39 -204 -49 -312
-49 -549 l-1 -226 -180 -37 c-99 -20 -192 -36 -207 -36 -37 0 -41 21 -22 110
24 119 30 405 10 520 -38 218 -120 390 -253 530 -175 185 -406 301 -623 314
-41 2 -91 2 -110 -1z m228 -269 c180 -113 289 -269 368 -529 27 -86 28 -99 28
-295 0 -171 -4 -217 -20 -275 -26 -95 -39 -99 -173 -56 -322 102 -534 292
-596 536 -20 77 -19 227 1 318 22 97 73 203 131 267 96 107 135 112 261 34z
m-300 -1210 c129 -61 275 -109 392 -129 161 -27 165 -28 168 -52 7 -49 -142
-260 -254 -362 -128 -116 -191 -113 -276 12 -22 33 -51 85 -63 116 -49 121
-105 422 -84 448 7 7 13 13 15 13 3 0 48 -21 102 -46z"/>
<path d="M24875 2068 c-66 -39 -107 -138 -91 -223 16 -86 120 -149 246 -150
67 0 82 4 138 34 83 45 107 79 107 152 0 76 -41 143 -109 178 -42 22 -66 26
-150 29 -91 3 -105 0 -141 -20z"/>
</g>
</svg>
