<?xml version="1.0" standalone="no"?>
<!DOCTYPE svg PUBLIC "-//W3C//DTD SVG 20010904//EN"
 "http://www.w3.org/TR/2001/REC-SVG-20010904/DTD/svg10.dtd">
<svg version="1.0" xmlns="http://www.w3.org/2000/svg"
 width="1063.000000pt" height="1063.000000pt" viewBox="0 0 1063.000000 1063.000000"
 preserveAspectRatio="xMidYMid meet">

<g transform="translate(0.000000,1063.000000) scale(0.100000,-0.100000)"
fill="#000000" stroke="none">
<path d="M4683 8505 c-66 -20 -126 -59 -192 -126 -227 -230 -351 -665 -352
-1234 -1 -473 67 -780 199 -896 71 -62 162 -75 222 -31 108 80 121 374 25 568
-25 51 -53 89 -100 132 -36 34 -65 64 -65 66 0 3 21 12 48 19 102 31 234 98
337 172 20 14 20 12 20 -118 0 -117 3 -138 23 -182 27 -59 64 -100 112 -125
117 -59 218 -15 294 129 l34 64 7 -79 c15 -192 58 -316 130 -383 98 -91 187
-55 269 107 45 90 89 232 141 457 6 27 9 22 46 -65 46 -111 75 -142 127 -138
49 4 60 25 44 85 -23 84 -35 335 -23 464 17 185 71 355 131 417 21 22 23 22
41 6 63 -57 123 -403 154 -888 17 -266 20 -276 90 -276 64 0 72 17 78 180 8
208 83 528 149 639 29 48 69 91 85 91 39 0 68 -150 88 -448 18 -255 32 -338
73 -426 91 -195 266 -208 382 -29 l27 43 30 -49 c24 -38 41 -52 77 -66 43 -17
48 -17 90 -1 89 34 154 119 267 346 62 122 68 132 74 105 36 -172 60 -241 111
-321 77 -122 209 -167 329 -110 99 46 225 173 325 328 l37 57 30 -48 c101
-162 282 -173 427 -27 74 75 123 157 178 298 23 59 43 106 45 104 6 -5 40
-220 54 -330 l12 -99 -35 -31 c-19 -17 -90 -71 -159 -121 -342 -248 -502 -507
-461 -745 29 -169 120 -264 264 -277 239 -22 483 218 555 544 20 86 25 403 10
565 -9 101 -18 87 113 193 130 106 302 329 286 370 -12 32 -46 15 -94 -47
-119 -156 -169 -213 -239 -274 -42 -36 -79 -62 -83 -57 -4 4 -12 51 -19 103
-13 104 -75 425 -92 478 -18 54 -100 76 -146 39 -7 -5 -13 -27 -13 -48 0 -78
-54 -279 -106 -397 -82 -185 -220 -328 -290 -302 -116 44 -152 448 -69 769 23
89 18 122 -20 133 -44 12 -93 1 -110 -26 -60 -91 -106 -470 -76 -623 7 -39 5
-48 -32 -110 -132 -224 -340 -414 -418 -384 -58 22 -100 92 -123 201 -19 91
-42 330 -34 351 4 9 87 77 185 152 247 187 347 296 435 472 56 111 78 194 78
296 0 139 -45 232 -139 287 -41 24 -56 27 -141 27 -110 0 -165 -20 -258 -94
-208 -165 -347 -580 -341 -1019 l2 -143 -80 -162 c-155 -312 -264 -434 -311
-347 -10 18 -12 52 -8 125 6 123 25 226 77 416 22 80 37 154 33 163 -16 41
-89 49 -121 14 -65 -71 -135 -339 -132 -503 1 -79 -2 -97 -24 -140 -70 -138
-149 -189 -196 -129 -33 42 -39 81 -61 404 -22 325 -31 407 -54 483 -29 98
-102 157 -193 157 -103 -1 -176 -63 -246 -210 -23 -47 -42 -78 -43 -70 -2 8
-13 76 -24 150 -31 193 -61 282 -113 334 -41 40 -98 66 -148 66 -45 0 -110
-41 -140 -89 -47 -74 -98 -275 -100 -400 -1 -31 -4 -69 -8 -86 -7 -29 -19 20
-46 191 -6 38 -21 52 -63 60 -25 5 -36 1 -56 -19 -23 -23 -26 -35 -26 -91 0
-36 9 -111 20 -167 l20 -102 -35 -162 c-56 -258 -127 -447 -200 -532 l-32 -37
-16 31 c-54 104 -67 462 -28 772 21 168 21 221 -1 249 -14 16 -69 15 -93 -2
-16 -12 -26 -10 -74 13 -79 36 -180 41 -249 11 -64 -28 -140 -106 -181 -188
-25 -49 -47 -74 -116 -129 -116 -93 -226 -155 -345 -193 -128 -42 -130 -41
-130 84 0 59 5 98 13 108 6 8 48 34 92 57 221 117 396 307 524 570 78 159 95
225 96 361 0 133 -14 172 -85 232 -66 57 -163 73 -257 43z m127 -95 c10 -10
29 -38 42 -62 20 -38 23 -57 23 -168 0 -114 -3 -133 -32 -217 -91 -262 -245
-474 -445 -610 -42 -29 -80 -53 -84 -53 -21 0 23 337 66 514 72 286 209 522
347 595 48 25 58 26 83 1z m3710 -100 c36 -38 58 -86 72 -156 31 -154 -72
-409 -235 -581 -74 -79 -309 -273 -329 -273 -16 0 -4 184 21 330 59 342 198
604 366 693 45 24 74 21 105 -13z m-3259 -836 c61 -42 73 -67 66 -141 -17
-174 -187 -543 -252 -543 -22 0 -46 37 -67 102 -43 133 -18 350 57 483 71 128
120 152 196 99z m-895 -542 c114 -83 186 -218 200 -375 10 -121 -33 -287 -76
-287 -46 0 -128 225 -159 435 -17 119 -25 255 -14 255 6 0 28 -13 49 -28z
m5058 -179 c22 -153 13 -380 -19 -508 -37 -144 -100 -262 -189 -351 -108 -108
-193 -132 -260 -73 -48 42 -95 139 -102 214 -17 161 96 376 285 545 72 65 260
209 273 210 3 0 9 -17 12 -37z"/>
<path d="M1182 8242 c-214 -77 -396 -365 -478 -756 -18 -86 -27 -168 -31 -281
-8 -228 15 -379 78 -514 44 -95 89 -145 164 -182 61 -30 69 -31 152 -27 73 4
98 10 148 35 119 61 212 167 298 338 116 234 167 463 167 760 0 192 -21 310
-75 423 -73 154 -151 213 -290 219 -60 3 -93 -1 -133 -15z m154 -92 c66 -42
126 -161 160 -320 32 -154 16 -457 -35 -657 -67 -262 -175 -463 -302 -563 -70
-55 -104 -54 -165 2 -219 202 -208 846 22 1288 82 158 189 270 257 270 16 0
44 -9 63 -20z"/>
<path d="M2935 7846 c-34 -15 -55 -55 -80 -153 -36 -145 -48 -276 -50 -548
l-3 -270 -45 -137 c-50 -149 -118 -290 -171 -353 -41 -49 -56 -41 -80 43 -54
192 -36 426 60 781 l37 135 -27 23 c-20 17 -39 23 -71 23 -55 0 -61 -8 -108
-145 -49 -141 -69 -184 -127 -274 -80 -125 -196 -220 -238 -195 -25 15 -70
111 -82 173 -31 164 3 383 96 625 32 84 33 90 18 108 -22 23 -91 24 -123 1
-57 -39 -141 -297 -163 -501 -22 -200 23 -376 112 -441 58 -42 134 -58 204
-42 60 13 110 46 171 109 21 23 42 42 46 42 3 0 4 -54 1 -120 -7 -179 23 -298
98 -384 77 -87 173 -89 244 -5 41 48 95 160 142 294 41 117 42 119 49 82 14
-72 63 -105 115 -77 17 9 18 24 18 152 0 159 20 323 56 469 35 139 92 249 131
249 7 0 55 -20 105 -44 50 -25 111 -48 134 -51 52 -8 126 10 126 30 0 8 -3 15
-7 16 -5 0 -30 2 -56 4 -34 3 -76 19 -145 57 -81 43 -105 52 -147 52 -63 0
-107 -23 -145 -76 l-30 -41 0 29 c0 16 11 92 24 168 23 132 23 175 -1 189 -23
13 -61 14 -88 3z"/>
<path d="M7521 7664 c-28 -35 -26 -69 4 -99 30 -31 56 -32 91 -1 35 29 39 90
9 112 -32 23 -81 18 -104 -12z"/>
<path d="M6663 5800 c-70 -16 -67 3 -60 -385 5 -342 5 -350 26 -367 53 -42
208 -30 327 26 358 169 306 620 -82 720 -65 17 -156 19 -211 6z m220 -110 c84
-26 164 -96 197 -172 57 -133 -14 -286 -169 -359 -61 -29 -177 -47 -193 -31
-13 13 -26 536 -14 567 8 22 99 19 179 -5z"/>
<path d="M2654 5791 c-92 -23 -164 -109 -164 -193 0 -95 65 -172 209 -248 92
-50 171 -125 171 -163 0 -41 -35 -62 -99 -61 -63 1 -121 26 -190 82 -37 30
-47 34 -70 26 -42 -15 -41 -57 4 -100 45 -43 137 -90 202 -104 167 -38 299 88
234 223 -31 65 -90 118 -198 178 -160 91 -203 164 -132 230 62 58 156 47 239
-28 53 -47 80 -51 100 -12 21 39 -42 113 -128 150 -51 22 -134 31 -178 20z"/>
<path d="M7861 5786 c-10 -12 -12 -93 -10 -364 4 -373 6 -382 54 -382 48 0 50
15 47 284 -3 221 -2 249 11 231 8 -11 72 -114 142 -230 203 -333 189 -315 230
-315 23 0 37 6 44 18 16 29 27 713 12 740 -15 29 -66 30 -81 3 -6 -12 -10
-106 -11 -228 -1 -114 -4 -235 -8 -267 l-6 -59 -176 289 c-162 266 -179 289
-206 292 -18 2 -35 -3 -42 -12z"/>
<path d="M3437 5772 c-15 -16 -17 -53 -16 -318 1 -387 7 -433 56 -434 33 0 43
31 43 131 0 54 3 99 6 99 4 0 82 -47 173 -105 92 -57 174 -107 183 -110 9 -4
26 -1 38 5 16 9 20 19 18 42 -3 28 -17 40 -149 122 -80 50 -146 95 -148 100
-1 5 22 18 51 29 75 28 151 81 184 128 22 32 29 55 32 104 4 60 3 64 -31 102
-71 79 -194 123 -343 123 -66 0 -84 -3 -97 -18z m228 -98 c71 -18 111 -39 138
-76 20 -26 20 -30 4 -62 -27 -58 -153 -126 -252 -138 l-30 -3 -3 140 c-1 76 0
145 2 151 6 14 45 11 141 -12z"/>
<path d="M5443 5780 c-17 -7 -23 -18 -23 -39 0 -41 23 -51 114 -51 42 0 77 -1
78 -2 0 -2 4 -146 7 -321 6 -300 7 -319 25 -333 26 -18 41 -18 61 2 14 15 16
52 14 326 -1 170 2 312 6 316 3 4 47 7 97 7 77 0 92 3 104 19 18 25 18 37 0
61 -13 18 -31 20 -237 22 -129 2 -234 -1 -246 -7z"/>
<path d="M6031 5773 l-24 -16 6 -351 c6 -297 9 -353 22 -366 14 -13 45 -14
207 -11 106 1 202 7 215 12 17 6 23 16 23 38 0 50 -14 53 -189 50 -106 -3
-164 0 -171 7 -7 7 -10 52 -8 125 l3 114 106 5 c109 5 139 16 139 50 0 38 -31
49 -140 52 l-105 3 -3 103 -3 103 148 -2 c156 -3 187 2 197 28 22 57 -29 73
-239 73 -134 0 -165 -3 -184 -17z"/>
<path d="M2270 5765 c-10 -12 -11 -95 -8 -360 4 -334 4 -346 25 -366 25 -25
60 -18 72 14 5 12 5 173 2 358 -6 358 -8 369 -56 369 -12 0 -28 -7 -35 -15z"/>
<path d="M4254 5769 c-18 -5 -53 -24 -80 -42 -241 -166 -169 -611 113 -693
142 -41 291 35 362 185 23 50 26 68 26 171 0 109 -2 119 -32 183 -41 87 -113
158 -188 186 -59 22 -145 26 -201 10z m204 -123 c80 -55 121 -140 122 -252 0
-124 -45 -208 -134 -250 -89 -42 -156 -27 -232 50 -62 64 -84 122 -84 221 0
113 39 195 114 241 35 21 51 24 107 22 53 -3 75 -9 107 -32z"/>
<path d="M4984 5769 c-18 -5 -53 -24 -80 -42 -241 -166 -169 -611 113 -693
142 -41 291 35 362 185 23 50 26 68 26 171 0 109 -2 119 -32 183 -41 87 -113
158 -188 186 -59 22 -145 26 -201 10z m204 -123 c80 -55 121 -140 122 -252 0
-124 -45 -208 -134 -250 -89 -42 -156 -27 -232 50 -62 64 -84 122 -84 221 0
113 39 195 114 241 35 21 51 24 107 22 53 -3 75 -9 107 -32z"/>
<path d="M7640 5765 c-10 -12 -11 -95 -8 -360 4 -334 4 -346 25 -366 25 -25
60 -18 72 14 5 12 5 173 2 358 -6 358 -8 369 -56 369 -12 0 -28 -7 -35 -15z"/>
<path d="M4120 4737 c-196 -44 -355 -262 -435 -600 -74 -314 -51 -717 54 -926
42 -81 74 -116 137 -147 66 -32 134 -30 208 5 51 25 174 140 224 209 l31 43
11 -43 c47 -181 159 -278 322 -278 179 0 280 161 295 466 6 135 -6 227 -42
317 l-23 57 62 0 c33 0 78 5 99 11 22 6 40 9 42 7 2 -2 11 -57 20 -123 33
-247 102 -493 189 -679 47 -101 81 -136 131 -136 26 0 42 10 81 53 102 108
238 348 296 522 33 99 28 95 106 88 70 -6 204 15 268 42 l31 13 6 -77 c22
-270 145 -431 321 -419 74 5 121 27 187 86 65 58 124 141 192 272 62 118 86
185 70 201 -19 19 -40 -3 -83 -94 -95 -197 -236 -373 -319 -398 -36 -11 -47
-11 -69 2 -49 28 -125 166 -134 244 -3 24 5 32 62 67 128 78 200 175 236 317
27 108 0 187 -77 226 -40 21 -145 19 -194 -4 -79 -35 -151 -151 -180 -286 -7
-37 -18 -72 -23 -77 -29 -29 -152 -61 -251 -66 l-104 -5 5 29 c3 16 13 72 23
124 45 246 -34 440 -179 440 -66 0 -110 -29 -144 -94 -24 -46 -27 -61 -27
-156 0 -95 3 -111 28 -162 19 -39 51 -78 99 -122 l71 -65 -28 -78 c-56 -158
-220 -473 -245 -473 -5 0 -23 37 -40 81 -110 285 -170 589 -172 865 0 78 -3
146 -7 152 -18 30 -106 31 -135 2 -7 -7 -12 -59 -13 -133 -2 -118 -3 -121 -27
-134 -80 -42 -171 -22 -285 62 -85 63 -109 67 -187 31 -56 -26 -107 -81 -166
-178 -62 -101 -88 -185 -103 -330 -5 -45 -16 -72 -47 -118 -90 -136 -252 -280
-315 -280 -29 0 -79 44 -103 89 -26 52 -50 186 -57 321 l-5 115 151 114 c84
63 175 135 203 160 115 103 233 288 274 426 25 87 23 207 -5 270 -26 60 -93
131 -135 144 -55 18 -120 20 -176 8z m146 -102 c63 -64 89 -192 60 -305 -19
-74 -80 -209 -126 -275 -54 -78 -142 -166 -264 -263 -78 -62 -121 -91 -128
-84 -11 11 3 167 28 314 48 282 169 518 313 610 55 35 85 35 117 3z m1491
-504 c26 -39 43 -112 43 -190 0 -65 -27 -232 -39 -244 -15 -15 -70 43 -101
106 -37 75 -49 174 -30 241 13 48 75 129 94 123 6 -2 21 -18 33 -36z m822
-147 c59 -76 42 -196 -44 -315 -35 -47 -122 -119 -144 -119 -16 0 -14 152 4
228 21 88 59 165 101 201 42 38 57 39 83 5z m-1815 -87 c82 -101 126 -227 133
-387 8 -184 -32 -325 -117 -410 -49 -49 -88 -58 -138 -32 -87 45 -143 170
-150 339 -5 136 12 226 67 339 38 79 131 194 156 194 8 0 29 -19 49 -43z"/>
<path d="M4989 2577 c-125 -35 -209 -158 -196 -285 11 -101 65 -192 191 -318
61 -61 164 -151 229 -198 l117 -87 67 47 c203 145 373 316 431 433 33 67 37
83 37 150 -1 88 -20 134 -82 192 -50 48 -94 70 -157 76 -99 10 -204 -42 -260
-129 -17 -26 -33 -47 -36 -47 -3 -1 -14 15 -25 35 -23 43 -86 101 -130 120
-50 20 -134 25 -186 11z"/>
</g>
</svg>
