<?xml version="1.0" standalone="no"?>
<!DOCTYPE svg PUBLIC "-//W3C//DTD SVG 20010904//EN"
 "http://www.w3.org/TR/2001/REC-SVG-20010904/DTD/svg10.dtd">
<svg version="1.0" xmlns="http://www.w3.org/2000/svg"
 width="3000.000000pt" height="3000.000000pt" viewBox="0 0 3000.000000 3000.000000"
 preserveAspectRatio="xMidYMid meet">

<g transform="translate(0.000000,3000.000000) scale(0.100000,-0.100000)"
fill="#000000" stroke="none">
<path d="M10955 26176 c-96 -45 -173 -142 -277 -351 -30 -60 -77 -164 -103
-230 -52 -129 -76 -166 -301 -466 -239 -319 -477 -608 -738 -899 -167 -187
-605 -625 -721 -722 -324 -270 -601 -424 -877 -484 -101 -22 -294 -23 -377 -1
-133 36 -230 116 -272 225 -27 72 -36 219 -20 331 80 545 620 1257 1065 1406
171 56 391 25 458 -66 36 -48 48 -92 48 -171 0 -88 -14 -143 -60 -245 -89
-193 -229 -334 -346 -349 -66 -9 -83 -19 -100 -60 -12 -30 -12 -39 1 -69 20
-50 64 -67 141 -55 193 32 403 250 503 526 97 267 49 502 -127 621 -192 129
-493 117 -750 -30 -132 -76 -224 -149 -367 -292 -317 -316 -567 -757 -642
-1132 -24 -120 -23 -334 1 -423 54 -197 201 -339 411 -396 35 -9 118 -18 200
-21 118 -4 157 -1 245 17 503 103 1108 558 1831 1375 133 151 336 396 457 549
50 66 92 115 92 109 0 -5 -18 -70 -40 -144 -23 -74 -79 -267 -126 -429 -107
-371 -170 -572 -240 -772 -53 -147 -60 -161 -119 -230 -129 -148 -164 -240
-110 -293 18 -19 35 -25 68 -25 84 0 160 76 245 246 25 49 65 94 224 245 249
239 501 470 868 795 367 326 834 733 838 729 1 -1 -47 -80 -107 -176 -409
-655 -621 -1209 -622 -1621 0 -157 24 -267 82 -379 45 -87 143 -195 203 -223
67 -32 136 14 136 90 0 20 -17 42 -69 91 -118 109 -161 220 -161 419 0 359
174 832 518 1404 176 293 445 679 631 906 37 44 145 150 241 234 349 306 360
317 360 375 0 39 -50 85 -92 85 -92 -1 -274 -143 -482 -376 -45 -50 -129 -131
-186 -180 -454 -383 -1787 -1564 -2113 -1872 -49 -46 -91 -81 -94 -79 -2 3 14
63 36 134 22 70 101 335 175 588 136 464 207 692 270 873 28 81 50 121 127
230 114 160 246 366 305 476 55 101 58 143 13 180 -39 33 -87 34 -154 2z"/>
<path d="M21758 24948 c-33 -12 -128 -150 -152 -221 -19 -55 -21 -121 -5 -165
10 -29 6 -41 -50 -146 -105 -198 -302 -515 -441 -710 -178 -249 -449 -542
-584 -630 -66 -43 -140 -69 -173 -61 -28 7 -29 32 -8 124 15 64 335 707 543
1091 136 252 148 292 96 341 -30 28 -95 30 -125 3 -12 -11 -57 -90 -100 -176
-244 -488 -635 -1051 -867 -1250 -143 -123 -306 -172 -367 -111 -20 19 -19 85
1 154 9 30 156 329 327 664 337 661 337 660 286 711 -29 28 -80 35 -117 15
-12 -6 -94 -155 -206 -375 -109 -212 -200 -378 -219 -398 -17 -19 -59 -72 -92
-118 -79 -110 -274 -308 -354 -359 -76 -48 -159 -81 -207 -81 -28 0 -36 5 -44
26 -20 52 -12 82 45 159 154 208 279 466 321 664 19 92 17 234 -4 293 -71 194
-267 251 -546 157 -170 -57 -325 -160 -505 -333 -301 -292 -517 -654 -568
-953 -18 -110 -9 -213 26 -281 27 -52 87 -107 146 -134 44 -20 65 -23 170 -22
98 1 136 6 208 28 156 46 299 128 456 260 54 45 86 65 89 57 9 -26 68 -84 99
-97 101 -43 290 6 433 112 33 24 62 44 64 44 3 0 0 -15 -5 -32 -5 -18 -9 -67
-9 -109 0 -64 4 -85 28 -129 33 -64 87 -104 167 -125 75 -19 125 -19 200 0
112 30 226 103 356 230 l75 74 0 -77 c0 -67 3 -84 29 -130 43 -79 96 -107 200
-106 144 1 281 77 460 259 301 304 677 831 892 1251 28 54 42 72 53 68 48 -19
194 -35 328 -36 83 0 152 -2 152 -4 0 -3 -40 -64 -89 -137 -137 -206 -267
-425 -366 -622 -175 -345 -215 -569 -125 -693 104 -144 389 -110 620 75 189
151 610 661 610 739 0 41 -27 81 -63 93 -58 19 -84 2 -159 -107 -120 -173
-296 -381 -427 -504 -133 -125 -269 -198 -367 -198 -63 0 -78 19 -71 94 17
203 278 698 646 1226 59 84 101 154 101 167 0 71 -61 111 -133 87 -99 -35
-412 -43 -543 -14 l-52 11 25 77 c14 42 28 110 30 149 6 85 -8 116 -62 139
-39 16 -40 16 -77 2z m-2703 -574 c63 -68 41 -261 -52 -466 -31 -67 -39 -78
-61 -78 -83 0 -169 -123 -212 -305 -19 -77 -22 -81 -97 -158 -156 -158 -329
-275 -478 -323 -104 -34 -245 -39 -287 -11 -38 26 -52 76 -45 161 23 296 344
771 697 1033 158 117 294 171 433 172 72 1 80 -1 102 -25z"/>
<path d="M12960 24589 c-238 -21 -437 -126 -661 -349 -191 -189 -312 -366
-416 -608 -76 -175 -105 -291 -107 -427 -1 -130 16 -196 73 -271 72 -96 205
-133 358 -101 140 30 246 85 389 200 l84 67 0 -59 c0 -82 39 -157 100 -191 38
-21 57 -25 125 -24 140 1 266 67 425 220 l90 87 0 -48 c0 -146 101 -247 263
-262 123 -11 259 45 413 170 l88 70 -39 -69 c-126 -228 -261 -429 -392 -585
-169 -202 -345 -303 -549 -316 -159 -10 -224 39 -224 168 0 54 6 77 31 128 37
75 82 111 151 122 81 13 119 61 97 126 -31 95 -213 76 -327 -36 -102 -99 -147
-217 -140 -364 5 -110 27 -167 90 -229 105 -106 279 -133 497 -77 155 40 268
108 415 249 266 256 413 499 965 1595 99 198 215 423 256 500 90 169 109 216
101 249 -15 58 -90 90 -146 61 -25 -13 -49 -54 -140 -235 -254 -507 -625
-1037 -856 -1220 -104 -82 -173 -113 -255 -114 -111 -1 -131 39 -89 176 11 36
157 334 325 664 168 329 308 607 311 617 10 33 -6 86 -31 103 -37 24 -93 21
-120 -7 -13 -13 -106 -186 -206 -384 -102 -201 -208 -396 -240 -441 -230 -323
-503 -615 -649 -693 -66 -35 -134 -49 -145 -30 -12 19 -7 88 11 144 9 27 146
304 305 615 386 757 364 709 345 754 -11 26 -26 41 -51 52 -33 14 -40 13 -73
-3 -28 -14 -45 -34 -72 -85 l-36 -68 -19 36 c-54 100 -156 139 -325 123z m155
-213 c30 -31 39 -78 32 -182 -4 -69 -11 -97 -41 -160 -125 -263 -380 -621
-575 -806 -150 -143 -282 -209 -423 -212 -67 -1 -79 2 -101 22 -91 86 -47 357
105 642 76 143 161 261 271 376 162 170 291 261 437 308 100 33 103 34 193 35
70 1 80 -2 102 -23z"/>
<path d="M16894 24592 c-12 -2 -31 -13 -42 -25 -29 -32 -620 -1197 -654 -1292
-35 -95 -47 -204 -28 -270 17 -61 77 -127 140 -154 154 -66 327 -20 526 142
l88 70 -39 -69 c-126 -228 -261 -429 -392 -585 -169 -202 -345 -303 -549 -316
-159 -10 -224 39 -224 168 0 54 6 77 31 128 37 75 82 111 151 122 81 13 119
61 97 126 -31 95 -213 76 -327 -36 -102 -99 -147 -217 -140 -364 5 -110 27
-167 90 -229 105 -106 279 -133 497 -77 155 40 268 108 415 249 266 256 414
501 965 1595 99 198 215 423 256 500 90 169 109 216 101 249 -15 58 -90 90
-146 61 -25 -13 -49 -54 -140 -235 -254 -507 -625 -1037 -856 -1220 -104 -82
-173 -113 -255 -114 -111 -1 -131 39 -89 176 11 36 158 334 326 664 269 524
307 605 308 646 1 30 -5 53 -14 63 -19 18 -67 32 -96 27z"/>
<path d="M2750 21649 c-225 -19 -498 -130 -793 -326 -222 -147 -441 -425 -578
-733 -119 -266 -132 -393 -150 -1368 l-10 -623 -80 -131 c-43 -72 -79 -142
-79 -155 0 -14 21 -50 50 -86 101 -124 109 -189 130 -1072 19 -759 31 -856
142 -1110 203 -462 580 -813 1037 -965 462 -154 929 -126 1346 80 616 304
1012 942 982 1579 -8 165 -23 244 -59 312 -66 125 -229 282 -354 341 -187 88
-494 73 -669 -33 -68 -41 -115 -91 -115 -123 0 -13 23 -54 51 -92 93 -124 139
-262 139 -414 0 -304 -207 -595 -497 -695 -245 -85 -500 -37 -717 135 -225
179 -263 322 -273 1037 -9 668 17 837 160 1037 l36 49 -95 188 -94 189 0 722
0 723 66 110 c109 182 197 269 346 345 125 64 217 83 372 78 149 -6 231 -29
342 -99 109 -69 228 -217 259 -323 23 -77 19 -202 -9 -288 -33 -103 -49 -176
-42 -193 8 -23 61 -18 152 14 116 40 203 92 274 162 113 113 183 239 215 384
23 102 46 126 146 154 41 12 97 28 125 36 110 32 246 147 335 283 64 97 91
170 97 265 6 92 5 92 -95 47 -97 -44 -169 -60 -272 -60 -148 0 -207 28 -401
195 -279 239 -556 367 -908 420 -105 16 -339 18 -512 4z m131 -368 c32 -27 16
-55 -34 -59 -28 -2 -38 1 -47 18 -9 18 -8 25 6 41 22 24 46 24 75 0z m-283 -3
c7 -7 12 -21 12 -33 0 -28 -19 -45 -50 -45 -31 0 -50 17 -50 45 0 28 19 45 50
45 14 0 31 -5 38 -12z m1056 -80 c22 -48 37 -90 35 -93 -6 -6 -80 15 -96 28
-9 6 -13 36 -13 84 0 65 2 74 17 71 11 -2 33 -37 57 -90z m-1219 -13 c0 -34
-4 -41 -28 -49 -32 -11 -60 1 -65 27 -5 24 44 69 71 65 18 -3 22 -9 22 -43z
m749 -166 c13 -6 26 -20 29 -30 5 -20 -18 -59 -35 -59 -22 0 -48 33 -48 60 0
42 12 48 54 29z m-840 -40 c28 -22 36 -69 12 -69 -14 0 -66 54 -66 69 0 10 11
21 20 21 4 0 19 -9 34 -21z m425 -137 c7 -13 6 -23 -1 -30 -21 -21 -88 -12
-88 12 0 36 72 50 89 18z m765 -58 c22 -22 20 -57 -5 -80 -25 -22 -49 -11 -64
31 -8 23 -6 30 14 46 28 23 35 23 55 3z m344 -86 c4 -30 -24 -46 -45 -26 -11
11 -10 18 3 36 20 28 38 24 42 -10z m-2108 -84 c0 -26 -4 -34 -18 -34 -35 0
-43 21 -21 52 25 35 39 28 39 -18z m22 -371 c22 -20 23 -41 1 -65 -42 -47
-113 9 -77 61 18 25 51 27 76 4z m43 -253 c0 -34 -50 -42 -60 -11 -9 29 3 43
33 39 21 -2 27 -8 27 -28z m82 -695 c26 -18 22 -34 -20 -88 -38 -48 -108 -97
-142 -97 -45 0 -41 27 9 75 25 25 46 53 46 63 0 27 39 58 75 61 6 1 20 -6 32
-14z m-312 -636 c0 -16 -9 -28 -27 -37 -17 -8 -30 -24 -34 -40 -10 -46 -13
-52 -30 -59 -26 -10 -44 22 -33 59 10 36 33 64 74 89 37 23 50 20 50 -12z
m128 -1469 c33 -10 37 -14 37 -45 0 -40 -18 -61 -61 -70 -38 -9 -73 8 -88 42
-13 27 -15 76 -3 87 8 8 55 2 115 -14z m245 -762 c30 -30 -11 -85 -44 -57 -25
21 -11 69 21 69 6 0 16 -5 23 -12z m1753 -288 c26 -14 24 -32 -7 -60 -21 -21
-27 -22 -34 -10 -13 20 -12 37 0 61 12 22 15 23 41 9z m-670 -430 c27 -15 24
-48 -5 -56 -56 -14 -81 11 -47 45 24 24 26 24 52 11z"/>
<path d="M7020 21649 c-106 -14 -209 -39 -310 -76 -254 -95 -452 -225 -650
-429 -357 -368 -457 -601 -500 -1159 -5 -71 -14 -299 -20 -505 -21 -788 -39
-924 -140 -1075 -21 -33 -40 -69 -40 -80 0 -11 14 -40 31 -65 43 -63 85 -148
98 -197 26 -96 32 -218 41 -778 9 -629 19 -774 64 -973 67 -300 226 -583 456
-812 261 -262 583 -427 965 -496 148 -26 440 -24 597 4 221 40 490 145 651
254 163 110 361 304 479 469 83 115 186 321 227 451 74 235 90 410 101 1113
12 746 20 800 144 959 25 33 46 65 46 72 0 7 -19 34 -42 61 -52 60 -94 150
-113 240 -23 111 -35 359 -35 738 0 645 -30 920 -125 1154 -96 236 -228 441
-393 612 -280 291 -613 467 -969 514 -123 16 -450 19 -563 4z m-432 -712 c2
-9 -9 -29 -25 -44 -23 -23 -28 -25 -31 -11 -4 23 26 80 41 75 7 -2 13 -11 15
-20z m33 -123 c17 -21 0 -49 -32 -49 -18 0 -25 6 -27 24 -6 38 34 55 59 25z
m1869 -169 c17 -21 -4 -45 -40 -45 -36 0 -57 24 -40 45 7 8 25 15 40 15 15 0
33 -7 40 -15z m-1014 -15 c275 -70 500 -299 534 -545 29 -207 22 -1308 -10
-1474 -14 -74 -51 -151 -94 -197 -57 -61 -46 -121 52 -272 22 -35 46 -84 53
-110 17 -66 25 -1114 10 -1322 -20 -278 -48 -347 -205 -498 -163 -156 -305
-217 -511 -216 -87 0 -126 5 -185 23 -154 48 -296 141 -399 263 -150 177 -165
282 -159 1128 5 615 0 574 103 779 l65 130 -65 133 c-105 218 -100 171 -100
863 0 644 5 730 51 875 40 128 92 198 229 305 147 115 257 154 441 154 79 1
133 -5 190 -19z m1112 -1022 c7 -7 12 -21 12 -33 0 -28 -19 -45 -50 -45 -31 0
-50 17 -50 45 0 28 19 45 50 45 14 0 31 -5 38 -12z m-39 -257 c14 -9 20 -65 8
-77 -4 -4 -18 1 -32 10 -36 24 -33 70 5 75 3 0 11 -3 19 -8z m-2743 -298 c7
-28 1 -38 -21 -29 -19 7 -29 31 -21 51 8 21 35 7 42 -22z m2652 -75 c19 -19
15 -48 -7 -48 -24 0 -45 25 -37 45 7 18 27 20 44 3z m66 -101 c13 -10 16 -20
12 -35 -4 -12 -11 -22 -15 -22 -16 0 -43 40 -38 55 8 18 18 19 41 2z m141
-137 c12 -20 -6 -50 -30 -50 -15 0 -26 7 -30 20 -9 27 1 40 30 40 13 0 27 -5
30 -10z m123 -362 c16 -16 15 -83 -2 -97 -21 -18 -46 13 -46 58 0 51 20 67 48
39z m-360 -525 c-4 -33 -37 -43 -57 -19 -20 24 -6 46 29 46 28 0 31 -3 28 -27z
m60 -185 c15 -15 16 -53 2 -79 -14 -26 -55 -24 -74 3 -21 30 -20 44 4 68 23
23 50 26 68 8z m71 -132 c15 -18 1 -50 -28 -65 -23 -13 -31 -5 -31 29 0 44 35
65 59 36z m188 -198 c32 -41 19 -148 -18 -148 -37 0 -80 140 -46 153 23 10 55
7 64 -5z m-2927 -118 c0 -27 -3 -30 -30 -30 -27 0 -30 3 -30 30 0 27 3 30 30
30 27 0 30 -3 30 -30z m2554 -192 c29 -41 16 -157 -23 -201 -15 -18 -16 -18
-28 10 -13 29 -18 195 -6 206 13 14 42 6 57 -15z m316 -53 c20 -25 8 -50 -25
-50 -21 0 -31 5 -33 18 -4 21 14 47 33 47 7 0 18 -7 25 -15z m-106 -170 c21
-25 43 -45 51 -45 7 0 23 15 34 33 11 19 32 39 46 45 32 15 72 15 80 2 15 -24
-108 -200 -140 -200 -24 0 -134 89 -141 114 -6 26 12 96 26 96 4 0 24 -20 44
-45z m-2569 -90 c0 -25 -4 -30 -25 -30 -16 0 -26 6 -28 18 -6 30 6 49 30 45
18 -2 23 -9 23 -33z m2411 -329 c8 -35 -4 -66 -27 -66 -27 0 -45 41 -30 69 16
29 49 27 57 -3z m-2228 -24 c23 -30 15 -43 -25 -40 -27 2 -39 8 -41 21 -8 42
37 55 66 19z m2412 -97 c35 -18 38 -40 9 -55 -39 -21 -109 12 -109 52 0 14 8
18 35 18 20 0 49 -7 65 -15z m-288 -132 c10 -9 18 -26 18 -39 0 -23 23 -54 41
-54 20 0 7 -48 -19 -74 -36 -33 -44 -26 -66 60 -28 108 -18 147 26 107z m-137
-63 c4 -6 1 -34 -6 -61 -10 -38 -19 -53 -38 -60 -34 -13 -71 13 -71 49 0 38
11 51 56 67 48 17 51 18 59 5z m-161 -112 c14 -22 -3 -72 -27 -76 -11 -2 -21
6 -28 24 -20 55 25 99 55 52z m176 -105 c0 -30 -10 -54 -21 -47 -10 6 -12 77
-2 87 9 10 23 -13 23 -40z m-1425 -38 c31 -30 32 -69 3 -89 -19 -13 -25 -14
-42 -3 -31 21 -41 63 -22 92 21 31 31 31 61 0z m1139 -97 c13 -22 -5 -44 -28
-35 -22 9 -22 60 0 55 9 -2 22 -11 28 -20z m397 -29 c7 -14 8 -24 1 -31 -17
-17 -42 -1 -42 27 0 31 25 34 41 4z m-1709 -64 c15 -33 -1 -50 -36 -41 -30 7
-33 22 -9 48 22 24 31 23 45 -7z m543 15 c10 -16 -23 -60 -44 -60 -10 0 -24 7
-31 15 -10 13 -10 19 5 35 19 21 60 27 70 10z"/>
<path d="M7210 20579 c-95 -10 -174 -42 -270 -107 -224 -151 -276 -255 -301
-591 -15 -204 -6 -1159 11 -1225 7 -27 45 -113 85 -191 l72 -142 -63 -124
c-115 -224 -108 -173 -112 -789 -5 -693 8 -872 72 -998 22 -43 104 -147 111
-140 2 2 -3 32 -10 68 -29 136 -38 364 -32 855 7 577 7 575 106 786 l70 150
-65 132 c-102 209 -97 166 -101 762 -8 955 18 1071 289 1275 100 76 159 106
256 131 91 23 258 25 347 5 l60 -15 -35 29 c-115 95 -318 149 -490 129z"/>
<path d="M10036 21644 c-32 -8 -87 -28 -123 -45 -156 -74 -177 -150 -50 -179
154 -34 289 -173 341 -349 14 -49 16 -185 16 -1254 l0 -1200 -90 -142 c-49
-78 -90 -146 -90 -152 0 -5 18 -35 41 -66 84 -118 113 -211 129 -420 16 -189
8 -2083 -9 -2207 -30 -229 -66 -276 -294 -388 l-148 -72 48 -45 c104 -96 213
-129 428 -129 199 0 266 17 404 104 86 54 131 55 192 4 57 -47 86 -62 177 -85
219 -56 501 -24 621 71 53 42 72 80 51 105 -7 8 -43 24 -80 35 -126 37 -254
146 -315 265 l-27 55 -7 333 c-3 182 -4 690 -1 1127 l5 795 340 3 c423 3 554
-6 639 -46 108 -51 169 -119 253 -282 27 -51 56 -98 65 -103 37 -24 101 51
146 170 21 59 26 89 30 219 5 185 -10 257 -96 443 l-58 125 63 126 c37 72 72
158 83 204 24 96 26 234 5 326 -17 70 -90 227 -129 274 l-23 28 -22 -23 c-12
-13 -43 -66 -69 -118 -61 -121 -148 -218 -236 -261 -99 -49 -179 -57 -616 -65
l-395 -8 3 319 c1 176 6 587 10 914 l7 595 745 3 c499 1 762 -1 797 -8 34 -7
75 -28 121 -60 136 -95 229 -231 252 -367 14 -87 -3 -177 -55 -293 -47 -105
-45 -115 25 -114 111 1 295 97 410 213 133 134 160 226 185 626 37 584 69 646
397 788 20 9 41 25 47 35 27 51 -90 135 -239 173 -70 18 -103 20 -214 16 -179
-6 -319 -48 -391 -116 -16 -16 -40 -32 -52 -35 -34 -11 -102 12 -170 56 -34
22 -84 46 -110 54 -82 25 -310 33 -1139 40 l-801 7 -134 -70 c-74 -39 -151
-76 -172 -83 -37 -11 -41 -10 -115 32 -109 62 -144 76 -236 98 -97 24 -281 26
-370 4z m958 -3273 c16 -18 16 -20 -6 -35 -27 -19 -47 -20 -70 -2 -22 16 -22
20 -2 40 21 22 57 20 78 -3z m1105 -165 c13 -16 -1 -56 -19 -56 -33 0 -55 42
-33 63 11 12 40 8 52 -7z m-1129 -469 c0 -33 -25 -46 -47 -24 -14 14 -13 18 7
47 25 35 40 27 40 -23z m-86 -800 c23 -17 18 -70 -7 -75 -41 -8 -87 54 -60 81
11 11 48 8 67 -6z m-251 -539 c7 -21 -12 -48 -33 -48 -22 0 -25 12 -10 41 12
21 36 25 43 7z m67 -239 c0 -53 -41 -76 -73 -41 -15 16 -15 20 -1 40 21 30 74
31 74 1z"/>
<path d="M14856 21644 c-32 -8 -87 -28 -123 -45 -156 -74 -177 -150 -50 -179
154 -34 289 -173 341 -349 14 -49 16 -185 16 -1254 l0 -1200 -90 -142 c-49
-78 -90 -146 -90 -152 0 -5 18 -35 41 -66 84 -118 113 -211 129 -420 16 -189
8 -2083 -9 -2207 -30 -229 -66 -276 -294 -388 l-148 -72 48 -45 c104 -96 213
-129 428 -129 199 0 266 17 404 104 86 54 131 55 192 4 57 -47 86 -62 177 -85
219 -56 501 -24 621 71 53 42 72 80 51 105 -7 8 -43 24 -80 35 -126 37 -254
146 -315 265 l-27 55 -7 333 c-3 182 -4 690 -1 1127 l5 795 340 3 c423 3 554
-6 639 -46 108 -51 169 -119 253 -282 27 -51 56 -98 65 -104 25 -15 65 17 106
85 52 86 64 138 69 305 6 185 -9 257 -95 443 l-58 125 63 126 c37 72 72 158
83 204 24 96 26 234 5 326 -17 70 -90 227 -129 274 l-23 28 -22 -23 c-12 -13
-43 -66 -69 -118 -61 -121 -148 -218 -236 -261 -99 -49 -179 -57 -616 -65
l-395 -8 3 314 c2 173 6 584 10 914 l7 600 745 3 c499 1 762 -1 797 -8 34 -7
75 -28 121 -60 136 -95 229 -231 252 -367 14 -87 -3 -177 -55 -293 -47 -105
-45 -115 25 -114 111 1 295 97 410 213 133 134 160 226 185 626 37 584 69 646
397 788 20 9 41 25 47 35 27 51 -90 135 -240 173 -112 29 -317 23 -424 -11
-89 -28 -154 -61 -184 -93 -13 -15 -36 -29 -51 -32 -35 -8 -111 18 -175 62
-115 76 -174 80 -1241 89 l-801 7 -134 -70 c-74 -39 -151 -76 -172 -83 -37
-11 -41 -10 -115 32 -109 62 -144 76 -236 98 -97 24 -281 26 -370 4z m958
-3273 c16 -18 16 -20 -6 -35 -27 -19 -47 -20 -70 -2 -22 16 -22 20 -2 40 21
22 57 20 78 -3z m1105 -165 c13 -16 -1 -56 -19 -56 -33 0 -55 42 -33 63 11 12
40 8 52 -7z m-1129 -469 c0 -33 -25 -46 -47 -24 -14 14 -13 18 7 47 25 35 40
27 40 -23z m-86 -800 c23 -17 18 -70 -7 -75 -41 -8 -87 54 -60 81 11 11 48 8
67 -6z m-251 -539 c7 -21 -12 -48 -33 -48 -22 0 -25 12 -10 41 12 21 36 25 43
7z m67 -239 c0 -53 -41 -76 -73 -41 -15 16 -15 20 -1 40 21 30 74 31 74 1z"/>
<path d="M19650 21645 c-120 -33 -260 -122 -260 -165 0 -18 45 -50 70 -50 32
0 142 -68 198 -123 75 -73 108 -133 128 -231 25 -125 37 -695 30 -1441 -9
-1002 -17 -1076 -142 -1236 -24 -30 -44 -63 -44 -72 0 -21 22 -57 67 -111 79
-95 100 -223 113 -686 19 -675 7 -1775 -20 -1938 -6 -34 -20 -88 -32 -120 -29
-79 -123 -169 -226 -218 -42 -20 -92 -43 -109 -52 -66 -31 -28 -87 102 -151
98 -48 176 -65 300 -65 141 0 204 16 375 100 l135 66 145 -71 c88 -43 169 -75
205 -82 40 -7 361 -13 945 -16 l885 -4 159 86 158 87 137 -65 c154 -74 227
-96 351 -104 186 -12 416 71 466 169 15 30 15 32 -2 45 -10 7 -32 13 -50 13
-89 0 -272 139 -319 243 -42 92 -64 260 -85 644 -16 290 -44 371 -179 515
-116 124 -306 230 -416 232 -77 1 -79 -8 -26 -123 50 -107 65 -183 56 -275
-14 -146 -76 -246 -227 -369 l-95 -77 -801 0 -802 0 0 903 0 904 197 6 c249 9
513 8 624 -2 106 -9 167 -37 264 -118 84 -72 137 -146 173 -243 35 -94 53
-100 107 -38 43 50 108 181 125 253 14 62 15 224 0 289 -15 69 -49 149 -114
264 -31 56 -56 107 -56 113 0 5 19 37 41 71 91 133 131 268 131 438 1 174 -44
305 -135 393 -57 56 -64 54 -91 -28 -37 -113 -109 -208 -213 -279 -130 -88
-141 -90 -518 -94 -181 -2 -376 -1 -432 3 l-103 7 0 904 0 905 758 -3 757 -3
73 -27 c208 -76 296 -178 324 -381 14 -94 2 -178 -43 -325 -16 -52 -29 -99
-29 -105 0 -6 22 -8 58 -4 116 10 301 116 419 241 129 135 172 264 193 570 40
608 37 597 176 709 71 57 142 94 207 106 27 5 53 13 59 19 29 29 -38 100 -137
148 -115 55 -179 67 -334 62 -157 -6 -217 -23 -382 -113 l-96 -52 -125 63
c-213 107 -124 99 -1128 99 -677 0 -887 -3 -930 -13 -30 -7 -117 -43 -193 -79
l-138 -67 -112 56 c-163 82 -226 100 -382 104 -95 3 -145 0 -185 -11z m1466
-327 c-13 -69 -77 -113 -84 -59 -8 55 18 89 72 90 16 1 18 -4 12 -31z m-452
-10 c11 -16 13 -25 5 -35 -17 -19 -49 2 -49 32 0 31 23 33 44 3z m1780 -51
c25 -19 18 -71 -10 -75 -28 -4 -53 50 -34 73 15 18 21 19 44 2z m-1761 -147
c7 -29 -15 -54 -41 -46 -21 7 -31 44 -15 59 14 15 51 6 56 -13z m-333 -153 c0
-18 -7 -42 -15 -53 -13 -16 -16 -17 -25 -4 -14 21 -12 42 6 68 22 31 34 27 34
-11z m2439 -11 c13 -16 -1 -56 -19 -56 -33 0 -55 42 -33 63 11 12 40 8 52 -7z
m-2291 -332 c30 -21 26 -58 -6 -62 -13 -2 -32 4 -43 14 -46 42 -3 84 49 48z
m-43 -204 c10 -16 -14 -50 -35 -50 -22 0 -25 12 -10 41 11 20 35 25 45 9z m93
-2698 c4 -38 -11 -42 -34 -7 -18 27 -11 48 14 43 11 -2 18 -15 20 -36z m2040
-2083 c2 -13 -34 -39 -53 -39 -8 0 -6 46 2 54 12 12 48 2 51 -15z m382 -170
c17 -31 5 -51 -27 -47 -34 4 -43 36 -17 55 24 18 31 16 44 -8z"/>
<path d="M24550 21645 c-120 -33 -260 -122 -260 -165 0 -18 45 -50 70 -50 32
0 142 -68 198 -123 75 -73 108 -133 128 -231 25 -126 37 -697 30 -1441 -9
-1002 -17 -1076 -142 -1236 -24 -30 -44 -63 -44 -72 0 -21 22 -57 67 -111 79
-95 100 -223 113 -686 19 -675 7 -1775 -20 -1938 -6 -34 -20 -88 -32 -120 -29
-79 -123 -169 -226 -218 -42 -20 -92 -43 -109 -52 -66 -31 -28 -87 102 -151
98 -48 176 -65 300 -65 141 0 204 16 375 100 l135 66 145 -71 c88 -43 169 -75
205 -82 40 -7 361 -13 945 -16 l885 -4 159 86 158 87 137 -65 c154 -74 227
-96 351 -104 186 -12 416 71 466 169 15 30 15 32 -2 45 -10 7 -32 13 -50 13
-89 0 -272 139 -320 243 -40 89 -63 268 -84 644 -16 290 -44 371 -179 515
-116 124 -306 230 -416 232 -77 1 -79 -8 -26 -123 50 -107 65 -183 56 -275
-14 -146 -78 -250 -228 -370 l-94 -76 -802 0 -801 0 0 903 0 904 197 6 c253 9
526 8 630 -2 100 -10 164 -39 258 -118 84 -72 137 -146 173 -243 35 -94 53
-100 107 -38 43 50 108 181 125 253 14 62 15 224 0 289 -15 69 -49 149 -114
264 -31 56 -56 107 -56 113 0 5 19 37 41 71 91 133 131 268 131 438 1 174 -44
305 -135 393 -57 56 -64 54 -91 -28 -37 -113 -109 -208 -213 -279 -129 -87
-141 -90 -518 -94 -181 -2 -376 -1 -432 3 l-103 7 0 904 0 905 758 -3 757 -3
72 -26 c151 -55 255 -142 292 -242 53 -143 50 -271 -10 -464 -16 -53 -29 -100
-29 -106 0 -6 22 -8 58 -4 116 10 301 116 419 241 129 135 172 264 193 570 40
608 37 597 176 709 71 57 142 94 207 106 27 5 53 13 59 19 29 29 -38 100 -137
148 -115 55 -179 67 -334 62 -157 -6 -217 -23 -382 -113 l-96 -52 -125 63
c-213 107 -124 99 -1128 99 -677 0 -887 -3 -930 -13 -30 -7 -117 -43 -193 -79
l-138 -67 -112 56 c-163 82 -226 100 -382 104 -95 3 -145 0 -185 -11z m1466
-327 c-13 -69 -77 -113 -84 -59 -8 55 18 89 72 90 16 1 18 -4 12 -31z m-452
-10 c11 -16 13 -25 5 -35 -17 -19 -49 2 -49 32 0 31 23 33 44 3z m1780 -51
c25 -19 18 -71 -10 -75 -28 -4 -53 50 -34 73 15 18 21 19 44 2z m-1761 -147
c7 -29 -15 -54 -41 -46 -21 7 -31 44 -15 59 14 15 51 6 56 -13z m-333 -153 c0
-18 -7 -42 -15 -53 -13 -16 -16 -17 -25 -4 -14 21 -12 42 6 68 22 31 34 27 34
-11z m2439 -11 c13 -16 -1 -56 -19 -56 -33 0 -55 42 -33 63 11 12 40 8 52 -7z
m-2291 -332 c30 -21 26 -58 -6 -62 -13 -2 -32 4 -43 14 -46 42 -3 84 49 48z
m-43 -204 c10 -16 -14 -50 -35 -50 -22 0 -25 12 -10 41 11 20 35 25 45 9z m93
-2698 c4 -38 -11 -42 -34 -7 -18 27 -11 48 14 43 11 -2 18 -15 20 -36z m2040
-2083 c2 -13 -34 -39 -53 -39 -8 0 -6 46 2 54 12 12 48 2 51 -15z m382 -170
c17 -31 5 -51 -27 -47 -34 4 -43 36 -17 55 24 18 31 16 44 -8z"/>
<path d="M14238 21431 c-12 -22 -45 -43 -131 -85 -245 -117 -268 -170 -302
-691 -29 -445 -61 -546 -229 -702 -83 -78 -191 -143 -312 -188 l-83 -31 47
-45 c103 -97 91 -92 163 -75 179 41 368 169 462 311 59 89 88 226 106 496 40
598 62 654 312 778 62 31 119 66 127 79 14 21 11 25 -64 102 l-79 80 -17 -29z"/>
<path d="M19058 21431 c-12 -22 -45 -43 -131 -85 -245 -117 -268 -170 -302
-691 -29 -445 -61 -546 -229 -702 -83 -78 -191 -143 -312 -188 l-83 -31 47
-45 c103 -97 91 -92 163 -75 179 41 368 169 462 311 59 89 88 226 106 496 40
598 62 654 312 778 62 31 119 66 127 79 14 21 11 25 -64 102 l-79 80 -17 -29z"/>
<path d="M23840 21409 c-29 -33 -44 -41 -85 -48 -70 -10 -139 -47 -207 -110
-86 -79 -97 -127 -123 -548 -20 -335 -46 -463 -117 -584 -38 -64 -141 -173
-213 -225 -71 -50 -218 -125 -283 -145 l-43 -12 68 -69 c56 -56 73 -68 100
-68 79 0 269 98 385 199 196 169 230 270 258 764 11 191 30 346 52 421 8 29
33 61 82 111 79 78 169 132 240 141 25 4 51 13 58 21 17 21 -11 67 -80 136
l-57 56 -35 -40z"/>
<path d="M28740 21409 c-29 -33 -44 -41 -85 -48 -70 -10 -139 -47 -207 -109
-45 -42 -61 -65 -73 -105 -20 -66 -42 -261 -50 -442 -13 -286 -38 -425 -99
-550 -41 -83 -142 -197 -231 -260 -71 -51 -218 -126 -283 -146 l-43 -12 68
-69 c56 -56 73 -68 100 -68 79 0 269 98 385 199 196 169 230 270 258 764 11
191 30 346 52 421 8 29 33 61 82 111 79 79 169 132 240 141 88 12 80 57 -26
161 l-53 52 -35 -40z"/>
<path d="M5010 21048 c0 -78 -70 -248 -145 -353 -62 -87 -181 -195 -257 -234
-36 -18 -110 -44 -164 -57 -54 -13 -107 -32 -117 -42 -9 -10 -28 -59 -42 -110
-41 -154 -110 -268 -233 -384 -86 -81 -182 -139 -287 -175 l-79 -26 69 -64
c56 -51 75 -63 102 -63 83 0 295 96 370 168 110 106 189 243 224 389 11 48 25
96 30 105 15 27 59 46 161 69 136 31 196 66 313 184 145 145 214 277 215 410
l0 60 -80 73 c-70 64 -80 70 -80 50z"/>
<path d="M8954 20668 c153 -325 173 -464 186 -1318 5 -316 14 -609 20 -650 16
-118 44 -187 105 -263 30 -38 58 -80 61 -94 8 -31 -11 -74 -60 -132 -106 -127
-125 -262 -126 -876 -1 -823 -43 -1107 -211 -1424 -99 -186 -224 -347 -395
-511 -140 -134 -259 -221 -399 -290 -472 -233 -1003 -260 -1490 -76 -60 22
-66 23 -45 6 43 -34 240 -127 346 -163 448 -155 910 -122 1359 97 156 76 264
153 409 295 348 341 499 659 546 1151 6 63 15 365 20 670 9 567 16 675 50 791
20 68 78 165 124 208 14 14 26 28 26 33 0 5 -23 37 -50 71 -129 159 -138 217
-150 997 -9 597 -16 719 -51 895 -28 138 -60 228 -134 377 -53 107 -180 318
-190 318 -2 0 20 -51 49 -112z"/>
<path d="M2913 20580 c-223 -24 -358 -127 -536 -409 l-47 -75 0 -708 0 -708
98 -198 99 -197 -58 -77 c-69 -93 -94 -156 -122 -303 -19 -102 -21 -146 -21
-585 -1 -477 6 -613 39 -770 25 -121 52 -177 117 -243 33 -34 57 -54 54 -45
-35 110 -53 362 -62 851 -11 577 15 737 149 927 l46 65 -94 182 -95 182 0 727
0 726 56 96 c129 220 252 327 459 398 75 26 91 28 248 29 165 0 168 0 145 19
-39 31 -152 84 -214 99 -80 20 -174 26 -261 17z"/>
<path d="M11855 20580 l-530 -5 -7 -505 c-4 -278 -8 -657 -10 -843 l-3 -339
67 4 c37 2 71 7 75 12 4 4 12 353 17 774 4 422 10 769 13 772 3 3 338 5 745 5
l740 0 -42 37 c-74 66 -118 80 -264 89 -72 4 -162 7 -201 6 -38 -1 -308 -4
-600 -7z"/>
<path d="M16675 20580 l-530 -5 -7 -505 c-4 -278 -8 -657 -10 -843 l-3 -339
67 4 c37 2 71 7 75 12 4 4 12 353 17 774 4 422 10 769 13 772 3 3 338 5 745 5
l740 0 -42 37 c-74 66 -118 80 -264 89 -72 4 -162 7 -201 6 -38 -1 -308 -4
-600 -7z"/>
<path d="M21403 20583 l-493 -3 0 -835 0 -835 75 0 74 0 3 764 c2 420 7 768
11 773 11 10 1382 11 1462 0 l60 -8 -34 35 c-99 102 -229 114 -1158 109z"/>
<path d="M26303 20583 l-493 -3 0 -835 0 -835 75 0 74 0 3 764 c2 420 7 768
11 773 11 10 1382 11 1462 0 l60 -8 -34 35 c-99 102 -229 114 -1158 109z"/>
<path d="M12754 19112 c32 -61 56 -184 56 -281 0 -138 -20 -215 -94 -368 l-64
-132 52 -123 c72 -165 87 -228 93 -383 8 -199 -30 -336 -123 -451 l-42 -51 74
-74 c74 -73 75 -74 101 -59 42 23 89 92 115 167 21 61 23 86 23 238 0 198 -10
243 -100 432 l-53 112 64 128 c78 153 104 249 104 377 0 112 -25 208 -83 325
-39 79 -108 171 -128 171 -5 0 -3 -13 5 -28z"/>
<path d="M17574 19112 c32 -61 56 -184 56 -281 0 -138 -20 -215 -94 -368 l-64
-132 52 -123 c72 -165 87 -228 93 -383 8 -199 -30 -336 -123 -451 l-42 -51 74
-74 c74 -73 75 -74 101 -59 42 23 89 92 115 167 21 61 23 86 23 238 0 198 -10
243 -100 432 l-53 112 64 128 c78 153 104 249 104 377 0 112 -25 208 -83 325
-39 79 -108 171 -128 171 -5 0 -3 -13 5 -28z"/>
<path d="M22364 19084 c23 -60 37 -158 37 -264 0 -174 -24 -261 -118 -426
l-41 -72 64 -135 c36 -75 73 -171 84 -213 26 -102 26 -236 0 -338 -23 -89 -85
-215 -137 -276 l-36 -42 69 -69 c43 -44 77 -69 91 -69 28 0 75 56 119 145 49
99 64 164 64 283 0 146 -20 220 -101 380 -38 74 -69 139 -69 144 0 6 25 53 55
106 31 54 65 126 76 162 42 137 42 368 -1 483 -12 33 -48 91 -82 132 -64 80
-86 101 -74 69z"/>
<path d="M27264 19084 c23 -60 37 -158 37 -264 0 -174 -24 -261 -118 -426
l-41 -72 64 -135 c36 -75 73 -171 84 -213 26 -102 26 -236 0 -338 -23 -89 -85
-215 -137 -276 l-36 -42 69 -69 c43 -44 77 -69 91 -69 28 0 75 56 119 145 49
99 64 164 64 283 0 146 -20 220 -101 380 -38 74 -69 139 -69 144 0 6 25 53 55
106 31 54 65 126 76 162 42 137 42 368 -1 483 -12 33 -48 91 -82 132 -64 80
-86 101 -74 69z"/>
<path d="M20993 17743 l-83 -4 0 -834 0 -835 75 0 75 0 0 768 0 768 253 12
c142 7 328 10 427 6 l175 -6 -55 42 c-108 83 -103 83 -465 85 -176 1 -357 0
-402 -2z"/>
<path d="M25893 17743 l-83 -4 0 -834 0 -835 75 0 75 0 0 768 0 768 253 12
c144 7 327 10 427 6 l175 -7 -45 37 c-25 20 -69 48 -98 63 l-53 26 -322 2
c-177 1 -359 0 -404 -2z"/>
<path d="M11318 16878 c-3 -475 -2 -964 2 -1088 6 -216 8 -227 33 -276 23 -46
113 -151 122 -143 2 2 0 146 -4 319 -4 173 -5 675 -2 1115 l6 800 427 0 427 0
-37 38 c-85 88 -139 96 -633 97 l-336 0 -5 -862z"/>
<path d="M16138 16878 c-3 -475 -2 -964 2 -1088 6 -216 8 -227 33 -276 23 -46
113 -151 122 -143 2 2 0 146 -4 319 -4 173 -5 675 -2 1115 l6 800 427 0 427 0
-37 38 c-85 88 -139 96 -633 97 l-336 0 -5 -862z"/>
<path d="M4794 16989 c31 -144 31 -415 1 -582 -114 -630 -597 -1184 -1221
-1400 -270 -94 -547 -117 -849 -72 -110 17 -296 64 -376 95 -97 39 -61 12 73
-53 198 -97 360 -145 588 -172 438 -54 866 55 1230 313 124 87 337 300 422
422 165 233 264 489 299 764 14 120 6 396 -14 474 -15 54 -59 126 -123 197
-33 37 -35 38 -30 14z"/>
<path d="M23359 16419 c21 -59 32 -157 46 -404 16 -300 36 -457 65 -523 21
-48 121 -153 128 -134 2 6 -2 37 -8 69 -6 32 -15 148 -20 258 -20 405 -32 500
-75 586 -30 57 -151 190 -136 148z"/>
<path d="M28259 16419 c21 -59 32 -157 46 -404 16 -300 36 -457 65 -523 21
-48 121 -153 128 -134 2 6 -2 37 -8 69 -6 32 -15 148 -20 258 -20 405 -32 500
-75 586 -30 57 -151 190 -136 148z"/>
<path d="M11740 15121 c-14 -34 -92 -101 -154 -133 -105 -54 -286 -78 -451
-60 -60 7 -110 10 -112 8 -12 -12 106 -88 165 -106 237 -74 518 -44 658 68 84
68 83 79 -14 175 l-79 79 -13 -31z"/>
<path d="M16560 15121 c-14 -34 -92 -101 -154 -133 -105 -54 -286 -78 -451
-60 -60 7 -110 10 -112 8 -12 -12 106 -88 165 -106 237 -74 518 -44 658 68 84
68 83 79 -14 175 l-79 79 -13 -31z"/>
<path d="M23846 15115 c-36 -67 -150 -133 -304 -177 -60 -18 -103 -22 -197
-22 -149 0 -207 15 -382 96 l-132 60 -149 -81 -149 -81 -764 0 c-762 1 -1040
8 -1134 30 -28 7 -107 40 -178 73 l-127 61 -128 -62 c-70 -34 -154 -68 -188
-76 -83 -21 -215 -29 -299 -18 -38 5 -71 8 -73 7 -12 -10 125 -90 192 -112 71
-23 98 -27 211 -27 159 -1 226 17 394 106 l113 61 137 -67 c79 -38 161 -70
196 -77 41 -8 348 -13 956 -16 l896 -4 85 39 c46 21 117 58 158 82 l73 42 116
-56 c164 -79 245 -99 406 -100 150 -1 204 12 329 77 71 37 116 79 116 111 0 5
-35 44 -78 88 l-77 79 -19 -36z"/>
<path d="M28746 15115 c-36 -67 -150 -133 -304 -177 -60 -18 -103 -22 -197
-22 -149 0 -207 15 -382 96 l-132 60 -149 -81 -149 -81 -764 0 c-762 1 -1040
8 -1134 30 -28 7 -107 40 -178 73 l-127 61 -128 -62 c-70 -34 -154 -68 -187
-76 -84 -21 -217 -29 -300 -18 -38 5 -71 8 -73 7 -12 -10 125 -90 192 -112 71
-23 98 -27 211 -27 159 -1 226 17 394 106 l113 61 137 -67 c79 -38 161 -70
196 -77 41 -8 348 -13 956 -16 l896 -4 85 39 c46 21 117 58 158 82 l73 42 116
-56 c64 -31 152 -65 196 -77 111 -29 260 -35 355 -15 102 21 255 97 281 139
10 18 19 36 19 41 0 5 -35 44 -78 88 l-77 79 -19 -36z"/>
<path d="M10705 15058 c-11 -6 -43 -26 -71 -44 -119 -77 -311 -116 -479 -95
-55 7 -111 15 -125 18 -21 5 -19 1 15 -27 85 -69 203 -107 365 -117 183 -10
332 25 435 102 33 25 75 48 94 51 l34 7 -60 22 c-60 21 -109 51 -133 80 -15
17 -46 19 -75 3z"/>
<path d="M15525 15058 c-11 -6 -43 -26 -71 -44 -119 -77 -311 -116 -479 -95
-55 7 -111 15 -125 18 -21 5 -19 1 15 -27 85 -69 203 -107 365 -117 183 -10
332 25 435 102 33 25 75 48 94 51 l34 7 -60 22 c-60 21 -109 51 -133 80 -15
17 -46 19 -75 3z"/>
<path d="M6934 14313 c-12 -2 -31 -14 -41 -26 -11 -12 -329 -627 -707 -1367
-538 -1056 -686 -1354 -686 -1382 0 -55 36 -93 89 -93 28 0 47 7 60 20 10 11
108 194 217 408 l199 387 82 67 c149 122 253 173 354 173 61 0 94 -13 114 -44
16 -24 14 -31 -119 -293 -101 -200 -141 -290 -157 -352 -47 -186 6 -319 141
-351 136 -33 309 39 481 198 l66 61 7 -55 c8 -67 46 -145 83 -172 42 -30 111
-45 174 -38 141 14 272 95 452 278 l127 130 0 -44 c0 -97 57 -220 126 -273 94
-72 223 -102 394 -91 208 13 398 69 546 162 47 30 88 54 90 54 2 0 -7 -22 -21
-50 -32 -63 -32 -110 -1 -147 19 -21 33 -28 64 -28 22 0 47 6 56 14 8 7 79
138 157 290 265 518 259 507 349 581 146 119 250 170 351 170 61 0 94 -13 114
-44 16 -24 14 -31 -119 -293 -101 -200 -141 -290 -157 -352 -47 -186 6 -319
141 -351 133 -32 304 37 473 190 106 96 351 384 492 580 56 77 69 102 69 133
1 52 -38 90 -92 90 -22 0 -45 -3 -51 -7 -6 -4 -42 -52 -81 -106 -174 -245
-460 -555 -589 -638 -81 -51 -156 -72 -179 -48 -14 14 -15 24 -5 83 9 53 42
128 153 353 134 272 140 288 140 345 -1 74 -24 129 -74 173 -53 46 -108 72
-174 80 l-57 7 80 56 c238 168 437 260 599 279 99 12 126 32 126 96 0 31 -7
51 -24 70 -21 25 -29 27 -85 26 -201 -6 -474 -134 -834 -392 -11 -8 -18 -10
-16 -4 2 5 160 316 352 690 207 406 347 692 347 708 0 40 -17 66 -53 81 -40
16 -80 9 -105 -19 -11 -11 -248 -469 -527 -1016 -563 -1105 -526 -1041 -742
-1251 -248 -241 -466 -354 -727 -375 -150 -12 -254 22 -295 96 -44 79 -28 233
40 395 71 166 225 389 373 539 227 231 446 356 624 356 59 0 76 -4 92 -20 78
-78 -79 -367 -215 -395 -90 -19 -105 -26 -121 -57 -21 -41 -11 -91 24 -119 23
-18 36 -20 87 -16 90 7 167 47 251 131 224 224 243 542 39 641 -48 24 -67 27
-147 27 -226 -2 -467 -126 -722 -372 -126 -122 -202 -214 -311 -375 -153 -226
-270 -373 -446 -559 -176 -186 -339 -293 -411 -270 -18 5 -19 11 -13 61 10 80
29 126 152 368 485 949 523 1026 523 1058 0 17 -6 39 -13 48 -32 42 -104 54
-138 23 -10 -9 -110 -195 -220 -413 -111 -218 -220 -423 -242 -455 -138 -204
-462 -555 -586 -634 -81 -51 -156 -72 -179 -48 -14 14 -15 24 -5 83 9 53 42
128 153 353 134 272 140 288 140 345 -1 74 -24 129 -74 173 -53 46 -108 72
-174 80 l-57 7 80 56 c238 168 437 260 599 279 99 12 126 32 126 96 0 31 -7
51 -24 70 -21 25 -29 27 -85 26 -201 -6 -474 -134 -834 -392 -11 -8 -18 -10
-16 -4 2 5 160 316 352 690 207 406 347 692 347 708 0 40 -17 66 -55 82 -19 8
-36 13 -37 13 -2 -1 -13 -4 -24 -6z"/>
<path d="M16665 14306 c-27 -12 -81 -113 -505 -942 -819 -1605 -747 -1457
-760 -1551 -21 -157 23 -279 120 -333 41 -23 54 -25 160 -23 187 2 348 55 525
174 97 65 241 194 302 272 l30 38 44 -23 c38 -20 58 -23 139 -22 89 1 123 9
223 49 15 6 17 -1 17 -82 0 -289 177 -430 515 -410 225 14 409 71 573 177 60
39 62 39 67 17 4 -16 -54 -138 -206 -432 -116 -225 -238 -464 -270 -530 -56
-113 -59 -122 -48 -158 8 -30 18 -42 44 -53 48 -20 70 -18 99 9 14 12 140 247
280 522 140 275 258 499 263 498 4 -2 35 -13 68 -25 52 -19 80 -22 200 -21
117 0 156 4 236 26 218 58 417 160 586 304 l63 54 0 -39 c0 -58 20 -152 40
-192 26 -50 87 -105 145 -132 44 -20 65 -23 170 -22 98 1 136 6 208 28 156 46
299 128 456 260 54 45 86 65 89 57 9 -26 68 -84 99 -97 69 -29 207 -11 319 42
128 60 340 249 473 419 137 176 402 595 508 801 28 54 42 72 53 68 48 -19 194
-35 328 -36 83 0 152 -2 152 -4 0 -3 -40 -64 -89 -137 -216 -324 -430 -717
-489 -900 -82 -254 -58 -414 72 -477 182 -87 458 23 698 278 42 45 79 82 82
82 3 0 6 -15 6 -33 0 -50 28 -136 61 -189 83 -130 258 -185 506 -160 193 19
336 63 488 151 64 36 115 81 250 216 179 179 267 281 367 430 52 77 59 94 54
123 -3 19 -11 41 -18 49 -34 41 -109 37 -132 -7 -23 -46 -208 -270 -298 -361
-268 -269 -498 -393 -772 -415 -150 -12 -254 22 -295 96 -47 83 -23 252 59
427 l38 82 59 -20 c81 -30 247 -30 357 0 303 81 668 372 788 627 36 77 47 161
29 217 -18 54 -80 112 -141 132 -80 27 -213 22 -325 -10 -312 -91 -683 -424
-908 -814 -114 -199 -437 -561 -585 -655 -84 -55 -167 -86 -228 -86 -63 0 -78
19 -71 94 17 203 278 698 646 1226 59 84 101 154 101 167 0 71 -61 111 -133
87 -99 -35 -412 -43 -543 -14 l-52 11 25 77 c34 103 42 212 19 248 -26 38 -79
58 -122 44 -26 -9 -46 -30 -88 -93 -81 -122 -104 -213 -75 -295 10 -29 6 -41
-50 -146 -64 -121 -191 -333 -300 -503 -231 -356 -444 -574 -627 -643 -78 -29
-122 -27 -134 6 -20 52 -12 82 45 159 154 208 279 466 321 664 19 92 17 234
-4 293 -71 194 -267 251 -546 157 -172 -57 -327 -160 -510 -338 -136 -134
-210 -222 -321 -386 -209 -308 -374 -489 -557 -614 -74 -50 -235 -126 -324
-154 -149 -47 -313 -57 -411 -26 -18 6 -33 14 -33 19 0 4 24 22 53 38 287 164
848 846 1244 1512 270 455 379 756 332 923 -37 133 -218 188 -374 113 -91 -44
-233 -192 -312 -328 -35 -58 -233 -441 -441 -850 -357 -703 -383 -751 -459
-844 -192 -237 -411 -423 -605 -514 -196 -92 -446 -114 -567 -52 -22 11 -46
36 -60 62 -47 83 -23 252 59 427 l38 82 59 -20 c81 -30 247 -30 357 0 303 81
668 372 788 627 36 77 47 161 29 217 -18 54 -80 112 -141 132 -80 27 -213 22
-325 -10 -188 -55 -363 -171 -570 -379 -136 -136 -231 -255 -311 -391 -127
-214 -274 -333 -421 -343 -51 -4 -64 -1 -69 12 -3 9 19 64 54 133 188 370 229
756 96 911 -54 63 -103 85 -193 84 -101 0 -198 -24 -293 -72 -43 -21 -78 -36
-78 -33 0 4 124 251 275 549 151 299 275 551 275 559 0 29 -29 73 -52 80 -48
14 -54 14 -83 1z m3138 -267 c-6 -281 -494 -1099 -1012 -1699 -105 -122 -204
-230 -208 -226 -8 8 836 1651 893 1739 66 101 136 183 188 220 41 29 96 46
121 37 17 -7 20 -16 18 -71z m-3118 -1054 c56 -111 -13 -479 -110 -586 -43
-48 -71 -102 -90 -174 -36 -142 -288 -401 -484 -499 -98 -50 -195 -77 -296
-83 -114 -7 -120 -2 -118 105 2 75 2 77 103 274 56 109 140 268 188 353 252
448 487 660 722 652 l65 -2 20 -40z m1624 36 c43 -27 -52 -184 -193 -318 -213
-205 -464 -324 -648 -310 -105 9 -107 12 -50 88 254 333 567 549 797 549 44 0
86 -4 94 -9z m2546 -17 c63 -68 41 -261 -52 -466 -31 -68 -39 -78 -62 -78 -83
0 -168 -122 -211 -305 -19 -77 -22 -81 -97 -158 -156 -158 -329 -275 -478
-323 -104 -34 -245 -39 -287 -11 -38 26 -52 76 -45 161 23 296 344 771 697
1033 158 117 294 171 433 172 72 1 80 -1 102 -25z m3244 17 c43 -28 -51 -182
-193 -318 -213 -205 -464 -324 -648 -310 -105 9 -107 12 -50 88 254 333 567
549 797 549 44 0 86 -4 94 -9z"/>
<path d="M7869 13637 c-76 -51 -99 -133 -58 -206 30 -53 65 -74 129 -79 96 -6
160 55 160 154 0 120 -134 197 -231 131z"/>
<path d="M12659 13637 c-79 -53 -100 -134 -54 -212 58 -100 205 -101 265 -3
28 47 27 125 -2 168 -47 69 -144 91 -209 47z"/>
<path d="M12574 13223 c-12 -2 -30 -14 -41 -26 -25 -27 -642 -1241 -670 -1317
-28 -75 -45 -183 -38 -234 11 -69 54 -137 105 -166 38 -21 57 -25 125 -24 99
1 165 25 276 99 43 29 79 52 79 50 0 -1 -5 -16 -11 -32 -16 -48 8 -94 61 -118
42 -19 43 -19 79 0 33 18 50 47 181 305 187 366 339 605 565 887 159 199 298
323 407 365 60 22 155 24 186 2 27 -19 30 -75 6 -155 -9 -29 -119 -260 -246
-512 -237 -475 -268 -550 -268 -661 0 -79 18 -126 64 -172 63 -63 144 -79 256
-49 159 42 305 160 545 440 83 96 241 300 293 377 35 50 42 109 18 140 -30 39
-99 44 -139 9 -10 -8 -43 -51 -73 -94 -30 -43 -99 -133 -154 -200 -248 -309
-455 -485 -574 -490 l-41 -2 1 68 c1 75 -11 50 338 737 156 307 176 356 183
467 7 104 -8 160 -59 218 -53 60 -125 87 -233 87 -122 0 -227 -45 -368 -159
l-68 -55 17 39 c34 80 36 87 25 115 -20 51 -89 76 -139 49 -12 -6 -107 -180
-231 -423 -220 -431 -252 -482 -426 -688 -232 -274 -414 -429 -533 -455 -50
-11 -65 7 -57 68 4 28 15 71 24 97 9 25 159 326 334 668 324 635 336 662 303
704 -17 23 -75 45 -102 41z"/>
<path d="M1345 10676 c-118 -23 -217 -72 -264 -132 -37 -46 -24 -74 34 -74 38
0 181 -78 230 -126 54 -52 81 -108 103 -213 13 -65 16 -224 19 -1112 l4 -1035
-89 -180 -89 -179 48 -63 c64 -85 87 -135 107 -234 15 -74 17 -188 17 -1063 0
-1098 -1 -1110 -62 -1212 -65 -110 -204 -223 -274 -223 -43 0 -69 -12 -69 -30
0 -55 135 -138 270 -166 145 -31 300 -7 469 73 135 63 140 63 242 9 238 -127
536 -125 699 4 66 52 63 87 -8 108 -93 28 -252 157 -285 232 -46 104 -49 155
-54 1179 l-5 964 114 -8 c62 -4 114 -8 115 -8 1 -1 106 -265 233 -587 513
-1293 568 -1449 554 -1550 -15 -103 -84 -178 -206 -225 -27 -10 -48 -21 -48
-24 0 -4 12 -19 28 -33 103 -97 316 -159 493 -144 109 9 194 38 283 96 42 28
82 50 89 50 7 0 63 -23 126 -51 257 -114 472 -129 631 -42 125 68 144 109 63
139 -187 68 -276 118 -370 207 -103 97 -164 207 -317 569 -168 400 -499 1234
-622 1567 l-38 104 24 19 c14 11 79 52 145 90 313 182 462 309 634 538 84 111
205 347 251 490 171 527 94 1076 -212 1527 -171 252 -391 434 -711 588 -256
123 -360 149 -662 166 -231 13 -651 4 -747 -16 -37 -8 -123 -40 -190 -72
l-123 -59 -120 61 c-164 84 -312 110 -460 81z m1865 -287 c9 -16 8 -26 -5 -45
-8 -13 -19 -24 -23 -24 -17 0 -52 32 -52 49 0 41 61 57 80 20z m-1028 -81 c13
-28 27 -40 50 -46 23 -6 34 -15 36 -30 8 -52 -72 -26 -142 46 -46 49 -44 75 6
70 27 -2 36 -10 50 -40z m748 -2 c0 -21 -44 -81 -63 -84 -39 -8 -65 56 -35 86
17 17 98 16 98 -2z m-1130 -66 c48 -24 56 -36 33 -49 -22 -11 -118 4 -151 25
-19 12 -21 18 -11 35 9 18 17 20 51 15 22 -4 57 -15 78 -26z m1470 -49 c0 -36
-27 -62 -41 -40 -12 20 -11 31 7 57 19 28 34 20 34 -17z m346 -22 c32 -35 -5
-69 -62 -55 -24 6 -42 45 -29 65 11 19 71 12 91 -10z m-655 -105 c11 -14 10
-18 -6 -30 -23 -17 -67 -18 -83 -2 -9 9 -8 16 5 30 20 22 66 23 84 2z m-1146
-134 c0 -18 -6 -26 -23 -28 -24 -4 -38 18 -28 44 3 9 15 14 28 12 17 -2 23
-10 23 -28z m1105 -160 c274 -24 432 -97 599 -276 167 -179 229 -373 203 -631
-21 -211 -94 -366 -237 -509 -69 -70 -97 -89 -186 -132 -179 -87 -308 -111
-656 -119 l-253 -6 0 841 0 842 208 0 c114 0 259 -5 322 -10z m-925 -70 c0
-31 -3 -35 -25 -35 -19 0 -26 6 -28 23 -5 36 5 54 30 50 19 -2 23 -9 23 -38z
m1831 -43 c18 -16 25 -30 21 -40 -9 -24 -34 -21 -62 8 -50 49 -13 78 41 32z
m-1842 -80 c14 -40 -4 -53 -37 -27 -37 29 -37 62 0 58 20 -2 30 -11 37 -31z
m-175 -266 c19 -12 4 -51 -20 -51 -22 0 -34 22 -25 45 6 17 24 19 45 6z m2369
-96 c22 -65 3 -155 -33 -155 -30 0 -47 124 -23 175 16 36 40 27 56 -20z m203
-164 c51 -51 35 -87 -42 -97 -48 -6 -99 8 -99 28 0 20 76 98 95 98 9 0 30 -13
46 -29z m-2399 -435 c11 -25 6 -56 -10 -56 -16 0 -52 41 -52 60 0 30 47 27 62
-4z m178 -36 c13 -9 12 -13 -9 -30 -28 -24 -59 -25 -89 -4 -18 13 -21 19 -11
30 13 16 87 19 109 4z m1898 -182 c15 -15 -3 -48 -27 -48 -21 0 -33 22 -25 45
7 18 35 20 52 3z m162 -93 c15 -18 6 -45 -14 -45 -15 0 -25 27 -19 48 6 16 18
15 33 -3z m-2026 -201 c20 -8 21 -38 1 -54 -12 -10 -18 -10 -30 0 -18 15 -20
46 -2 53 6 3 13 6 14 6 1 1 8 -2 17 -5z m1284 -117 c3 -23 0 -27 -23 -27 -30
0 -43 24 -25 46 19 22 45 13 48 -19z m-1060 -349 c18 -18 15 -24 -17 -38 -22
-9 -34 -9 -50 0 -23 12 -23 12 -15 34 7 19 64 22 82 4z m662 -88 c12 -7 12
-13 4 -27 -14 -24 -73 -28 -99 -8 -20 15 -20 15 -1 30 22 17 73 20 96 5z m218
-107 c-3 -32 -44 -46 -54 -19 -10 26 4 46 31 46 23 0 26 -4 23 -27z m-183 -93
c0 -18 -6 -26 -23 -28 -24 -4 -38 18 -28 44 3 9 15 14 28 12 17 -2 23 -10 23
-28z m-351 -26 c33 -32 10 -78 -33 -67 -28 7 -46 49 -30 69 15 19 44 18 63 -2z
m-863 -28 c13 -29 -4 -69 -28 -64 -25 5 -34 42 -17 67 20 27 32 27 45 -3z
m1149 -181 c14 -17 7 -43 -15 -51 -34 -14 -102 24 -92 51 8 20 90 21 107 0z
m250 -340 c0 -29 -13 -38 -40 -30 -24 8 -26 41 -3 53 24 14 43 4 43 -23z m681
-1337 c10 -18 8 -24 -7 -35 -10 -7 -23 -13 -30 -13 -18 0 -28 39 -14 55 18 21
37 18 51 -7z"/>
<path d="M2457 9713 c-4 -3 -7 -352 -7 -775 l0 -768 65 0 65 0 0 717 0 716
278 -6 c247 -5 420 -20 487 -42 39 -13 -27 36 -98 71 -93 47 -207 73 -377 84
-168 11 -404 13 -413 3z"/>
<path d="M5652 10679 c-75 -13 -157 -43 -212 -79 -102 -65 -104 -93 -10 -130
99 -39 121 -53 191 -127 73 -77 91 -119 109 -258 16 -117 24 -1396 11 -1755
-14 -405 -32 -494 -121 -605 -54 -68 -54 -67 -3 -136 59 -81 82 -133 99 -228
25 -139 37 -652 31 -1371 -6 -673 -11 -787 -42 -895 -29 -101 -125 -192 -262
-249 -68 -27 -78 -35 -81 -59 -3 -23 5 -32 58 -66 208 -135 449 -132 705 8
l89 49 120 -60 c190 -95 135 -90 1057 -95 l805 -5 144 79 145 80 120 -58 c135
-66 206 -87 316 -96 141 -11 321 41 400 117 59 56 49 89 -29 90 -12 0 -42 10
-65 21 -115 58 -205 153 -232 242 -22 75 -43 257 -55 489 -16 291 -31 350
-123 473 -101 135 -369 288 -457 260 -28 -9 -25 -35 14 -118 60 -125 68 -262
20 -375 -26 -62 -90 -137 -176 -206 l-82 -66 -733 0 -733 0 2 818 3 817 235 8
c129 4 314 4 410 0 165 -8 179 -10 234 -37 33 -16 91 -60 133 -99 71 -67 87
-93 146 -229 10 -22 24 -38 33 -38 26 0 71 56 113 140 51 103 65 170 59 295
-6 117 -26 176 -112 334 l-57 103 51 79 c74 111 102 204 107 354 6 133 -8 208
-53 297 -26 52 -100 131 -117 125 -6 -2 -18 -25 -27 -53 -30 -87 -61 -137
-126 -201 -90 -90 -184 -134 -313 -144 -121 -10 -339 -11 -554 -2 l-167 6 0
817 0 818 404 7 c559 10 944 3 1016 -20 89 -28 186 -84 234 -135 92 -99 117
-293 61 -475 -15 -49 -30 -102 -33 -117 -4 -26 -2 -28 27 -28 82 0 263 95 367
193 157 147 192 252 214 646 14 236 34 400 54 438 44 82 212 203 284 203 13 0
32 5 43 10 66 36 -52 137 -217 186 -43 13 -91 18 -174 17 -138 -1 -224 -25
-364 -102 l-90 -49 -97 48 c-167 85 -195 91 -449 102 -280 13 -1307 4 -1405
-12 -49 -8 -108 -30 -200 -74 l-130 -62 -120 57 c-165 80 -317 111 -443 88z
m1275 -309 c-16 -78 -69 -106 -75 -38 -2 28 2 40 20 52 12 9 31 16 41 16 16 0
18 -5 14 -30z m-407 -10 c11 -20 6 -40 -9 -40 -19 0 -42 27 -35 43 8 23 31 22
44 -3z m1626 -65 c4 -14 1 -32 -6 -40 -19 -23 -50 -1 -50 35 0 25 4 30 25 30
18 0 26 -7 31 -25z m-1612 -110 c8 -22 -4 -45 -24 -45 -28 0 -45 27 -30 45 7
8 20 15 30 15 10 0 20 -7 24 -15z m-306 -152 c-2 -27 -8 -39 -20 -41 -14 -3
-18 3 -18 25 0 28 15 53 33 53 4 0 7 -17 5 -37z m2220 -7 c5 -26 -26 -50 -45
-35 -14 12 -17 41 -6 53 13 13 48 1 51 -18z m-2074 -302 c33 -33 5 -65 -37
-42 -25 13 -37 27 -37 46 0 17 56 15 74 -4z m-48 -179 c7 -18 -12 -45 -32 -45
-17 0 -18 32 -2 48 16 16 27 15 34 -3z m88 -2430 c3 -8 3 -22 -1 -30 -5 -14
-8 -14 -24 1 -11 9 -19 23 -19 31 0 18 36 17 44 -2z m1853 -1902 c3 -6 -10
-19 -26 -28 -30 -15 -31 -15 -31 8 0 13 3 27 7 31 11 10 46 3 50 -11z m343
-158 c16 -19 6 -45 -18 -45 -28 0 -43 20 -31 42 12 22 32 23 49 3z"/>
<path d="M11121 10679 c-117 -18 -290 -99 -308 -145 -8 -21 11 -39 83 -74 89
-45 156 -108 193 -182 37 -73 38 -97 11 -254 -77 -446 -367 -1906 -405 -2030
-18 -62 -73 -147 -154 -239 -34 -38 -64 -80 -67 -93 -4 -14 6 -53 25 -103 49
-123 58 -210 37 -349 -60 -402 -286 -1526 -386 -1920 -38 -150 -63 -201 -139
-282 -69 -74 -138 -118 -264 -168 -50 -20 -93 -42 -95 -48 -2 -6 15 -31 37
-55 83 -90 247 -132 426 -109 101 13 188 41 331 107 l93 43 53 -40 c126 -96
269 -132 436 -111 102 13 157 30 269 84 99 47 115 68 75 99 -15 12 -54 34 -87
49 -86 39 -130 82 -170 166 -31 63 -35 82 -35 148 0 78 34 276 72 422 60 231
164 339 328 339 116 1 201 -60 275 -194 47 -86 66 -99 96 -69 61 61 111 239
113 399 1 139 -22 225 -85 319 -68 103 -135 154 -314 241 -88 43 -167 85 -174
94 -12 14 -4 65 53 349 61 306 161 780 202 955 9 41 20 70 24 65 21 -22 170
-721 335 -1573 194 -999 250 -1329 240 -1405 -14 -113 -84 -208 -184 -252 -96
-42 -106 -49 -106 -80 0 -22 10 -34 48 -60 93 -62 213 -92 367 -93 154 0 247
25 348 93 l77 53 125 -54 c146 -63 243 -90 355 -98 148 -12 290 29 368 104 59
57 52 75 -40 106 -111 37 -183 81 -263 160 -96 95 -125 144 -154 262 -74 300
-333 1641 -381 1973 -20 135 -10 240 31 330 38 84 37 89 -62 219 -91 119 -113
161 -140 265 -35 140 -174 795 -269 1269 -171 859 -171 855 -116 955 41 77
113 150 183 188 94 50 105 68 66 106 -31 29 -170 93 -238 110 -31 8 -103 13
-165 12 -135 -1 -199 -19 -322 -93 -48 -30 -93 -53 -99 -53 -6 0 -51 22 -100
50 -49 28 -119 60 -156 71 -80 25 -210 34 -297 21z m650 -380 c9 -17 8 -23 -2
-30 -38 -24 -77 9 -47 39 18 18 36 15 49 -9z m-353 -303 c4 -53 -12 -83 -34
-65 -22 18 -27 67 -9 95 23 36 40 25 43 -30z m527 29 c32 -31 32 -55 2 -55
-30 0 -70 41 -61 63 9 24 31 21 59 -8z m23 -373 c4 -28 -24 -40 -45 -19 -21
21 -9 49 19 45 15 -2 24 -11 26 -26z m-33 -452 c0 -18 -6 -26 -23 -28 -24 -4
-38 18 -28 44 3 9 15 14 28 12 17 -2 23 -10 23 -28z m-662 -67 c9 -9 -22 -43
-40 -43 -13 0 -18 31 -6 43 8 9 38 9 46 0z m737 -173 c26 -26 25 -47 -1 -55
-15 -5 -28 -1 -41 13 -17 17 -18 22 -7 41 17 26 24 26 49 1z m-256 -231 c31
-24 33 -35 7 -42 -20 -5 -81 17 -81 31 0 12 22 32 36 32 6 0 23 -9 38 -21z
m-124 -185 c19 -22 1 -68 -28 -72 -33 -5 -72 24 -72 52 0 14 6 27 13 29 26 11
75 6 87 -9z m554 -126 c8 -13 7 -21 -2 -30 -10 -10 -17 -8 -33 9 -23 22 -18
46 8 41 9 -2 21 -11 27 -20z m-874 -225 c24 -24 25 -24 6 -39 -22 -15 -103
-19 -125 -5 -34 22 30 87 74 74 11 -3 31 -16 45 -30z m604 -54 c32 -37 33 -49
4 -49 -29 0 -58 28 -58 57 0 32 23 29 54 -8z m-986 -528 c20 -12 10 -45 -14
-49 -23 -3 -59 31 -49 47 7 13 45 14 63 2z m284 -46 c10 -21 9 -29 -5 -43 -15
-14 -19 -14 -31 -2 -14 15 -20 33 -17 58 2 22 41 13 53 -13z m1096 -897 c16
-16 15 -48 -2 -48 -20 0 -39 27 -32 45 7 18 18 19 34 3z m346 -64 c20 -8 21
-38 2 -53 -11 -9 -20 -10 -35 -1 -23 12 -43 44 -34 54 8 8 47 8 67 0z m78
-906 c10 -20 31 -46 48 -58 33 -24 39 -45 14 -54 -20 -8 -53 13 -96 60 -40 43
-49 65 -35 82 18 23 51 9 69 -30z m-251 -64 c11 -14 10 -18 -6 -30 -24 -18
-46 -18 -69 -1 -17 13 -17 14 -1 30 21 21 59 22 76 1z"/>
<path d="M14288 10680 c-69 -11 -200 -61 -250 -95 -41 -28 -57 -67 -38 -90 6
-8 35 -21 64 -29 71 -21 127 -60 223 -158 l82 -83 10 -1120 10 -1120 -71 -140
c-79 -158 -91 -209 -60 -252 37 -53 72 -133 88 -199 25 -111 33 -440 34 -1390
l0 -911 -114 -111 c-120 -116 -151 -137 -225 -156 -58 -14 -64 -37 -21 -81 72
-74 254 -131 395 -122 114 7 197 31 332 96 l117 57 144 -79 144 -79 807 5
c921 5 867 0 1056 94 l117 59 127 -63 c135 -67 230 -93 338 -93 161 1 383 96
383 165 0 29 -16 42 -78 60 -59 18 -144 79 -226 163 l-58 60 -19 298 c-29 478
-38 525 -124 654 -110 166 -338 315 -449 295 -60 -12 -64 -27 -27 -102 44 -90
59 -196 43 -305 -15 -106 -42 -158 -121 -238 -73 -74 -114 -96 -199 -111 -53
-9 -867 -28 -1239 -29 l-163 0 0 915 0 915 75 140 c41 77 76 144 78 148 1 4
-33 74 -76 156 l-78 148 4 1081 c5 1132 5 1145 49 1231 34 67 115 139 193 171
142 58 155 64 161 80 10 26 -25 55 -128 105 -124 61 -225 78 -361 61 -97 -13
-170 -38 -307 -106 l-85 -43 -113 58 c-63 32 -141 65 -175 73 -82 21 -198 28
-269 17z m609 -415 c36 -24 28 -42 -26 -60 -70 -23 -125 -23 -150 -1 -35 31
-27 44 24 38 41 -4 45 -3 55 23 9 24 14 27 42 21 18 -3 42 -13 55 -21z m-243
-420 c6 -17 -21 -48 -37 -42 -6 2 -15 11 -21 21 -9 13 -7 20 7 31 21 15 43 11
51 -10z m266 -37 c0 -13 -5 -30 -10 -38 -7 -11 -10 -5 -10 23 0 20 5 37 10 37
6 0 10 -10 10 -22z m131 -478 c28 -15 24 -55 -8 -80 -24 -18 -28 -19 -42 -6
-12 13 -12 22 -2 56 12 42 20 47 52 30z m-343 -262 c16 -16 15 -23 -4 -42 -21
-21 -31 -20 -44 5 -19 35 20 65 48 37z m432 -152 c0 -26 -35 -76 -54 -76 -7 0
-20 6 -30 13 -16 12 -17 16 -3 49 8 20 23 41 33 46 25 14 54 -3 54 -32z m-142
-69 c5 -23 -17 -97 -28 -97 -11 0 -14 79 -4 105 8 19 28 15 32 -8z m-238 -215
c21 -10 36 -26 38 -39 4 -29 -28 -46 -61 -34 -29 11 -97 69 -97 82 0 16 84 10
120 -9z m4 -385 c19 -14 13 -47 -10 -47 -16 0 -37 37 -29 50 8 13 18 13 39 -3z
m336 -276 c0 -5 2 -15 5 -23 9 -24 -10 -41 -33 -29 -22 12 -35 38 -26 52 7 12
54 12 54 0z m-305 -441 c0 -30 -32 -35 -49 -7 -8 14 -8 20 4 27 24 16 45 7 45
-20z m-36 -239 c13 -24 -9 -57 -33 -48 -26 10 -32 38 -11 53 25 18 32 18 44
-5z m193 -1056 c13 -28 -2 -75 -23 -75 -41 0 -65 70 -31 89 27 16 42 13 54
-14z m-52 -510 c27 -33 -71 -125 -132 -125 -34 0 -58 29 -48 56 9 23 57 44
101 44 18 0 32 7 39 20 13 24 23 25 40 5z m2330 -375 c18 -5 25 -13 25 -31 0
-22 -4 -24 -52 -27 -29 -2 -62 2 -73 8 -22 12 -28 56 -7 63 13 5 64 -2 107
-13z m-552 -141 c1 -9 -8 -20 -23 -27 -21 -10 -27 -9 -31 3 -8 20 15 47 35 43
9 -2 17 -10 19 -19z m-653 -68 c-16 -32 -45 -42 -45 -16 0 9 12 34 27 58 27
41 28 41 31 15 2 -15 -4 -40 -13 -57z"/>
<path d="M18605 10676 c-76 -14 -208 -71 -262 -112 -52 -40 -44 -56 46 -92
142 -59 235 -131 280 -221 38 -73 42 -176 48 -1246 l6 -1040 -71 -137 c-44
-84 -72 -150 -72 -169 0 -18 16 -58 39 -97 91 -154 94 -197 93 -1357 0 -983
-4 -1080 -41 -1153 -45 -88 -216 -222 -284 -222 -40 0 -57 -10 -57 -35 0 -37
37 -72 119 -114 185 -92 386 -79 643 41 l110 52 111 -56 c137 -69 197 -87 307
-95 147 -9 334 49 400 124 44 49 38 67 -27 81 -85 19 -208 115 -277 215 l-37
54 -10 243 c-6 139 -9 608 -6 1089 5 972 2 941 88 1107 l51 101 -16 58 c-10
31 -42 105 -72 164 l-55 106 4 1050 c4 1130 5 1142 57 1250 31 65 111 132 216
182 138 65 141 77 44 146 -79 55 -193 89 -310 90 -132 2 -205 -16 -348 -89
l-122 -63 -123 59 c-67 32 -149 66 -182 74 -89 23 -209 27 -290 12z m495
-1063 c0 -18 -39 -17 -46 2 -4 8 -3 22 0 31 6 15 8 15 26 -1 11 -10 20 -24 20
-32z m134 -908 c-6 -14 -39 -26 -48 -18 -3 3 2 19 11 36 14 29 16 30 29 13 7
-10 10 -24 8 -31z m264 -992 c2 -14 -3 -23 -17 -28 -30 -9 -61 3 -61 24 0 26
10 32 45 29 22 -2 31 -9 33 -25z m-228 -318 c16 -20 6 -45 -19 -45 -25 0 -34
14 -26 40 8 24 28 26 45 5z m-130 -274 c0 -13 -24 -31 -41 -31 -9 0 -22 7 -29
15 -10 12 -8 16 11 23 24 9 59 5 59 -7z m228 -1857 c12 -8 22 -19 22 -25 0
-12 -101 -11 -120 1 -13 9 -12 12 4 25 26 19 66 19 94 -1z"/>
<path d="M20680 10680 c-76 -12 -165 -45 -220 -80 -102 -65 -105 -95 -12 -127
79 -27 133 -62 198 -129 66 -69 101 -135 114 -217 6 -38 15 -184 20 -325 12
-317 25 -383 106 -509 100 -156 232 -247 412 -284 55 -12 64 -11 79 3 15 16
14 22 -10 90 -36 99 -50 194 -45 292 5 103 28 152 107 232 100 101 191 138
369 151 l95 6 -7 -919 -7 -919 -82 -144 c-45 -80 -81 -149 -79 -153 1 -5 41
-82 87 -171 l85 -161 0 -541 c-1 -297 -5 -747 -10 -1000 -15 -755 -24 -785
-269 -914 -74 -39 -121 -70 -121 -79 0 -26 76 -89 135 -111 81 -30 187 -44
290 -38 118 8 187 27 318 88 115 55 134 57 189 18 102 -73 291 -126 413 -116
124 11 296 78 349 136 27 29 14 49 -51 77 -125 53 -178 94 -244 187 -31 45
-52 88 -61 125 -10 45 -13 281 -11 1153 l2 1097 73 112 c89 138 91 157 31 246
-23 33 -48 77 -57 98 -52 126 -65 378 -66 1299 l0 627 103 0 c56 0 130 -7 165
-15 268 -63 432 -321 360 -565 -6 -19 -24 -66 -40 -103 -23 -54 -27 -71 -17
-83 50 -60 356 91 471 233 45 56 94 167 113 258 11 51 20 168 25 325 5 135 14
272 20 304 31 159 84 228 246 314 131 70 140 77 125 96 -22 26 -133 84 -217
112 -66 23 -96 27 -184 28 -127 0 -181 -15 -340 -91 -63 -31 -119 -56 -125
-56 -5 0 -74 35 -153 78 l-143 77 -787 -5 c-532 -3 -810 -9 -857 -17 -49 -8
-110 -31 -201 -74 l-131 -63 -112 57 c-62 32 -140 65 -174 73 -81 21 -198 28
-267 17z m1876 -255 c35 -23 49 -54 28 -62 -19 -7 -101 12 -121 29 -16 13 -17
40 -2 55 13 13 58 2 95 -22z m-362 -6 c34 -27 37 -84 5 -94 -41 -13 -102 57
-86 99 9 22 49 20 81 -5z m568 -6 c23 -21 23 -40 -1 -53 -28 -14 -57 -12 -71
5 -10 12 -9 20 4 40 19 29 42 32 68 8z m617 -29 c23 -30 51 -113 51 -154 0
-41 -16 -51 -58 -33 -20 8 -47 16 -60 18 -28 3 -47 19 -38 34 4 6 24 16 46 22
44 13 57 34 37 58 -23 26 -38 61 -32 71 11 18 33 11 54 -16z m-386 -22 c26
-23 22 -68 -8 -88 -23 -15 -27 -15 -50 0 -33 22 -35 78 -3 100 22 16 30 14 61
-12z m221 -9 c8 -20 -11 -43 -36 -43 -26 0 -34 27 -13 50 18 20 40 17 49 -7z
m-1070 -174 c60 -47 55 -82 -15 -94 -50 -9 -93 8 -108 42 -28 62 61 100 123
52z m1501 -34 c20 -19 25 -34 25 -77 0 -72 -20 -100 -68 -96 -27 2 -40 9 -49
28 -16 32 -17 142 -1 158 20 20 67 14 93 -13z m-864 -105 c12 -7 19 -21 19
-40 0 -24 -4 -30 -22 -30 -12 0 -30 7 -40 17 -41 37 -7 79 43 53z m-1495 -41
c22 -24 11 -49 -29 -63 -31 -11 -57 6 -57 38 0 47 52 62 86 25z m849 -30 c25
-25 -87 -82 -130 -65 -25 9 -19 65 8 76 26 12 107 4 122 -11z m363 -161 c3
-24 0 -28 -23 -28 -27 0 -41 20 -31 46 10 27 51 13 54 -18z m46 -90 c15 -24
-5 -42 -37 -34 -26 6 -42 31 -31 47 9 15 56 6 68 -13z m-134 -323 c0 -16 -42
-30 -65 -21 -8 3 -12 12 -9 21 8 20 74 21 74 0z m-192 -417 c20 -20 14 -56
-14 -75 -49 -32 -84 19 -43 63 25 27 39 30 57 12z m206 -127 c22 -24 17 -65
-7 -69 -20 -4 -67 34 -67 53 0 35 48 45 74 16z m-52 -158 c34 -42 42 -93 13
-93 -47 0 -101 55 -90 90 8 26 56 27 77 3z m219 -239 c11 -14 9 -20 -20 -46
-35 -31 -48 -32 -65 -5 -8 12 -5 22 14 42 27 29 52 32 71 9z m-281 -119 c6 -7
8 -20 4 -29 -7 -19 -74 -22 -92 -4 -18 18 -15 56 6 60 22 5 68 -10 82 -27z
m-68 -152 c36 -32 10 -86 -31 -63 -25 13 -44 47 -37 66 7 19 45 18 68 -3z
m236 -59 c17 -12 22 -25 22 -63 0 -59 -20 -92 -44 -72 -9 7 -16 19 -16 26 0 7
-23 21 -52 31 -66 24 -82 48 -49 75 29 24 107 26 139 3z m-180 -94 c37 -23 40
-35 12 -50 -43 -23 -128 28 -98 58 18 18 49 14 86 -8z m74 -174 c19 -28 -6
-52 -42 -41 -24 8 -32 32 -18 55 10 15 16 17 32 8 12 -6 24 -16 28 -22z m-206
-71 c7 -18 -13 -45 -33 -45 -17 0 -27 24 -19 45 7 20 45 19 52 0z m182 -198
c2 -17 -1 -27 -10 -27 -17 0 -41 38 -32 51 12 19 39 4 42 -24z m-83 -79 c34
-15 35 -55 1 -64 -37 -9 -61 -1 -64 22 -2 12 4 29 13 38 20 19 18 19 50 4z
m255 -145 c0 -22 -27 -14 -49 13 -12 15 -21 36 -21 47 0 19 4 17 35 -13 19
-19 35 -40 35 -47z m6 -158 c15 -23 15 -27 0 -50 -21 -32 -34 -32 -47 2 -7 19
-7 35 0 50 14 30 27 29 47 -2z m-91 -705 c0 -18 -6 -26 -23 -28 -24 -4 -38 18
-28 44 3 9 15 14 28 12 17 -2 23 -10 23 -28z m6 -135 c35 -78 36 -101 7 -116
-13 -6 -40 -28 -62 -48 -29 -27 -37 -31 -33 -16 20 69 19 90 -5 100 -40 17
-37 72 6 118 38 41 54 35 87 -38z m37 -417 c17 -17 15 -63 -3 -78 -20 -16 -43
-6 -57 26 -11 23 -10 28 11 45 27 22 33 23 49 7z"/>
<path d="M24927 10679 c-96 -14 -227 -99 -227 -147 0 -26 42 -49 150 -83 142
-44 310 -187 401 -339 102 -173 458 -1044 734 -1800 140 -383 157 -444 145
-507 -5 -29 -16 -68 -25 -89 -23 -55 -19 -77 25 -132 89 -112 105 -191 121
-587 14 -353 6 -1660 -11 -1780 -14 -103 -34 -164 -71 -214 -38 -53 -131 -122
-205 -151 -72 -28 -96 -48 -92 -74 5 -31 102 -93 192 -123 69 -22 99 -27 196
-27 156 0 253 28 390 112 49 31 70 28 180 -23 248 -113 439 -123 632 -32 84
40 134 79 124 95 -4 6 -51 37 -104 69 -126 74 -175 114 -218 177 -71 104 -76
137 -84 551 -4 204 -5 690 -2 1080 l5 710 68 113 c90 149 95 166 73 239 -38
129 -14 280 82 513 30 74 177 437 325 805 425 1052 451 1109 562 1223 68 70
193 151 292 191 155 61 173 84 108 141 -83 73 -222 102 -396 82 -121 -13 -209
-39 -335 -98 l-94 -43 -55 40 c-125 93 -281 131 -444 109 -111 -15 -294 -76
-333 -111 -27 -24 -29 -29 -19 -52 7 -14 45 -48 86 -76 87 -59 123 -98 137
-151 23 -84 -20 -227 -213 -716 -191 -482 -288 -701 -308 -689 -38 24 -385
860 -484 1165 -33 104 -36 122 -30 185 7 82 43 166 83 193 15 10 53 29 85 42
33 13 61 30 65 38 14 37 -136 117 -282 149 -98 22 -294 22 -367 0 -32 -9 -85
-38 -124 -67 -37 -27 -76 -50 -87 -50 -10 0 -71 22 -136 49 -131 55 -200 75
-315 90 -88 12 -117 12 -200 0z m2948 -413 c29 -29 24 -53 -11 -62 -31 -8 -54
11 -54 46 0 47 27 54 65 16z m-1975 -156 c11 -11 20 -25 20 -31 0 -18 -20 -49
-32 -49 -19 0 -78 62 -78 82 0 26 63 25 90 -2z m1587 -122 c12 -13 23 -34 25
-48 2 -20 -2 -26 -20 -28 -27 -4 -82 49 -82 79 0 28 51 25 77 -3z m-1722 -49
c0 -24 -5 -35 -18 -37 -23 -5 -32 23 -18 54 15 35 36 25 36 -17z m248 -451 c6
-18 -11 -48 -27 -48 -8 0 -19 7 -26 15 -10 12 -10 18 0 30 15 18 47 20 53 3z
m-19 -190 c19 -26 13 -38 -20 -38 -29 0 -42 24 -24 45 17 20 26 19 44 -7z
m1206 -448 c26 -26 18 -40 -21 -40 -31 0 -46 19 -35 45 8 21 32 19 56 -5z
m-702 -129 c4 -29 -15 -43 -40 -30 -21 11 -23 30 -6 47 19 19 43 10 46 -17z
m-124 -184 c17 -27 -8 -67 -42 -67 -33 0 -65 30 -60 57 8 40 78 48 102 10z
m550 -119 c9 -35 -12 -47 -35 -19 -21 26 -17 41 10 41 11 0 21 -10 25 -22z
m-270 -269 c43 -34 31 -69 -25 -69 -25 0 -43 44 -29 71 13 24 21 24 54 -2z
m23 -1485 c9 -24 -21 -48 -51 -40 -25 6 -35 33 -19 49 13 14 64 7 70 -9z m1
-140 c4 -37 -16 -57 -55 -52 -35 4 -40 27 -12 62 29 37 63 32 67 -10z m305
-436 c6 -18 -11 -48 -28 -48 -17 0 -34 30 -28 48 3 6 15 12 28 12 13 0 25 -6
28 -12z m-123 -228 c0 -22 -4 -28 -15 -24 -14 6 -35 35 -35 48 0 3 11 6 25 6
21 0 25 -5 25 -30z m63 -462 c8 -23 -14 -68 -33 -68 -24 0 -34 33 -20 60 12
22 46 27 53 8z"/>
<path d="M12572 10476 c-7 -15 -37 -36 -84 -59 -116 -55 -210 -176 -210 -271
0 -65 162 -898 323 -1661 110 -524 104 -504 183 -615 38 -52 72 -99 76 -103 4
-5 -3 36 -16 90 -65 266 -322 1515 -394 1913 -36 199 -35 234 9 324 42 86 114
159 198 198 43 21 69 40 71 52 3 12 -19 42 -64 87 -38 38 -71 69 -75 69 -3 0
-11 -11 -17 -24z"/>
<path d="M20079 10460 c-20 -21 -58 -46 -85 -56 -93 -34 -194 -120 -225 -189
-38 -87 -41 -168 -46 -1215 l-4 -1015 60 -127 c96 -202 99 -235 31 -346 -77
-128 -81 -173 -87 -987 -5 -744 7 -1378 28 -1417 17 -34 78 -107 97 -117 16
-9 17 49 14 944 -5 1207 -2 1255 90 1424 57 103 55 124 -26 291 l-66 135 0
961 c0 558 4 1015 10 1090 13 165 37 246 90 307 47 53 154 126 223 152 53 20
73 45 58 73 -5 9 -36 42 -68 73 l-58 56 -36 -37z"/>
<path d="M24402 10471 c-18 -15 -67 -45 -109 -66 -191 -98 -224 -153 -243
-415 -5 -74 -10 -180 -10 -235 0 -367 -112 -578 -388 -736 -40 -23 -100 -52
-133 -64 l-60 -21 61 -58 c60 -57 62 -58 109 -54 130 13 361 171 435 298 80
136 103 253 116 580 4 129 14 260 21 290 29 135 80 194 238 280 151 81 149 77
65 160 l-69 69 -33 -28z"/>
<path d="M28774 10479 c-24 -27 -54 -42 -154 -79 -137 -50 -259 -139 -330
-241 -69 -99 -137 -254 -478 -1099 -181 -448 -346 -854 -366 -902 -72 -170
-93 -316 -61 -408 19 -53 19 -121 1 -164 -7 -18 -42 -77 -77 -132 l-64 -99 0
-1050 c0 -1162 -3 -1112 65 -1229 31 -56 89 -117 76 -82 -26 72 -28 209 -21
1180 l7 1010 70 128 c38 71 72 144 75 163 3 19 -2 62 -12 99 -36 133 -8 264
115 542 34 77 183 441 331 811 292 729 367 905 437 1028 79 138 216 254 364
310 121 46 168 73 168 96 0 19 -104 139 -120 139 -4 0 -15 -9 -26 -21z"/>
<path d="M9415 10470 c-8 -27 -61 -60 -96 -60 -39 0 -87 -23 -155 -73 -104
-76 -115 -118 -139 -507 -18 -284 -39 -405 -89 -506 -42 -83 -133 -187 -221
-250 -64 -45 -206 -117 -258 -130 l-29 -7 63 -63 c69 -70 80 -73 156 -48 139
46 329 185 401 294 73 109 95 210 112 527 21 373 46 466 148 550 65 52 164
103 203 103 32 0 53 22 45 47 -3 10 -35 47 -70 82 -59 59 -64 62 -71 41z"/>
<path d="M15760 10465 c-12 -13 -61 -40 -109 -60 -47 -21 -104 -49 -126 -64
-49 -33 -101 -99 -115 -149 -20 -65 -29 -513 -30 -1379 l0 -843 84 -157 84
-158 -84 -161 -84 -161 0 -871 0 -872 70 0 70 0 0 793 -1 792 78 152 78 152
-77 149 -78 149 0 984 c1 1103 5 1223 46 1308 44 90 108 145 239 206 62 30
116 59 119 64 8 12 -50 78 -104 121 l-37 29 -23 -24z"/>
<path d="M26475 10450 c-10 -11 -45 -30 -77 -42 -34 -12 -69 -33 -83 -50 -49
-58 -58 -163 -24 -273 49 -159 303 -803 394 -1000 32 -70 38 -77 46 -58 6 17
-17 85 -106 307 -63 157 -140 360 -172 453 -53 155 -58 174 -57 250 2 137 59
222 166 248 14 4 34 15 43 25 21 23 13 39 -57 108 -54 52 -54 53 -73 32z"/>
<path d="M4520 9773 c36 -62 108 -238 135 -331 124 -434 70 -932 -147 -1342
-102 -193 -244 -373 -401 -510 -98 -86 -246 -189 -337 -235 -61 -31 -180 -104
-180 -111 0 -22 302 -799 478 -1229 244 -596 338 -800 407 -880 l35 -40 -44
95 c-95 206 -435 1047 -657 1624 l-103 269 33 28 c19 15 82 54 140 86 200 109
306 187 451 332 163 163 247 279 339 466 75 151 118 273 153 430 20 87 23 129
23 320 0 236 -7 294 -55 480 -49 186 -115 334 -219 493 -60 90 -94 128 -51 55z"/>
<path d="M21734 9710 c-145 -21 -269 -103 -326 -215 -36 -69 -30 -260 12 -366
11 -27 20 -72 20 -99 0 -41 -4 -52 -26 -69 -30 -23 -103 -28 -164 -11 l-35 9
35 -29 c19 -16 58 -40 85 -54 83 -42 230 -61 241 -32 3 8 -9 56 -27 108 -31
86 -33 102 -33 223 -1 118 1 134 23 174 37 71 119 145 209 190 l82 41 0 70 c0
79 6 75 -96 60z"/>
<path d="M22870 8996 c0 -932 9 -1047 91 -1178 70 -113 82 -142 75 -182 -4
-20 -28 -66 -53 -104 -26 -37 -59 -86 -75 -108 l-28 -41 0 -1044 c-1 -574 3
-1084 8 -1132 8 -77 14 -94 46 -141 20 -29 48 -63 62 -77 l26 -24 -9 60 c-4
33 -7 540 -5 1127 l2 1068 65 98 c98 150 101 166 44 249 -46 66 -78 143 -94
225 -22 110 -36 647 -33 1263 l3 540 94 3 c52 1 115 -1 139 -7 l44 -9 -24 25
c-57 61 -156 96 -300 107 l-78 6 0 -724z"/>
<path d="M7098 9703 l-358 -3 0 -760 0 -760 63 0 64 0 6 317 c4 174 7 491 7
705 l0 388 393 3 c580 3 875 0 940 -11 l58 -9 -27 28 c-39 41 -101 68 -191 85
-91 16 -426 22 -955 17z"/>
<path d="M8063 8335 c3 -11 11 -40 18 -65 17 -62 17 -251 -1 -330 -7 -36 -39
-115 -71 -177 l-58 -112 59 -128 c74 -161 91 -224 91 -338 0 -141 -47 -279
-133 -393 l-40 -54 58 -59 c66 -67 90 -73 129 -31 38 40 102 172 115 239 16
75 8 243 -15 308 -9 28 -44 103 -76 168 l-60 118 55 97 c73 130 87 181 93 337
6 152 -8 228 -60 313 -36 61 -113 139 -104 107z"/>
<path d="M11591 7477 c-56 -275 -141 -712 -141 -723 0 -4 151 -66 154 -63 2 2
38 171 80 375 l77 372 -46 198 c-25 109 -47 199 -49 201 -1 2 -35 -160 -75
-360z"/>
<path d="M12920 7644 c0 -18 -12 -63 -26 -100 -38 -100 -42 -213 -14 -390 50
-319 212 -1173 296 -1569 67 -315 91 -403 124 -449 28 -41 100 -115 100 -104
0 3 -13 61 -29 129 -89 373 -328 1615 -371 1921 -14 101 -3 190 36 299 13 37
24 75 24 86 0 18 -61 111 -119 183 l-21 25 0 -31z"/>
<path d="M2450 6428 c1 -741 11 -1167 31 -1258 6 -30 20 -71 29 -90 19 -37 86
-107 95 -99 2 3 0 41 -6 85 -7 50 -13 423 -16 1017 -4 820 -3 937 10 937 12 0
11 9 -6 55 l-20 55 -58 0 -59 0 0 -702z"/>
<path d="M6758 7123 c-17 -4 -18 -49 -18 -759 l0 -754 65 0 65 0 0 695 c0 615
2 696 15 701 9 4 184 7 391 8 l374 1 -32 27 c-18 15 -55 40 -83 55 l-50 28
-355 2 c-195 1 -363 -1 -372 -4z"/>
<path d="M12026 5985 c-16 -124 -68 -270 -122 -341 l-23 -30 67 -67 c37 -37
72 -67 78 -67 14 0 48 38 68 77 22 44 20 71 -23 293 l-38 195 -7 -60z"/>
<path d="M8965 5914 c19 -55 32 -176 40 -354 12 -285 33 -430 71 -496 23 -42
92 -109 101 -100 3 2 0 37 -6 77 -7 39 -16 167 -21 283 -18 390 -35 456 -143
571 l-56 60 14 -41z"/>
<path d="M17610 5889 c31 -91 39 -169 51 -489 6 -168 11 -305 12 -305 1 -1 33
-30 70 -65 l68 -64 -6 80 c-3 43 -10 167 -15 274 -18 340 -51 463 -154 577
l-44 48 18 -56z"/>
<path d="M11420 5865 c-68 -21 -128 -78 -162 -153 -36 -80 -90 -290 -113 -443
l-18 -117 23 -63 c23 -61 93 -149 118 -149 8 0 12 23 12 68 0 127 85 489 138
585 34 64 113 134 165 148 23 6 53 14 66 18 l23 7 -26 31 c-52 62 -150 91
-226 68z"/>
<path d="M9402 4739 c-35 -57 -118 -107 -248 -151 -59 -19 -89 -23 -204 -23
-155 0 -207 13 -361 91 -49 24 -94 44 -100 44 -7 0 -70 -32 -142 -71 l-129
-70 -831 4 c-941 4 -882 -1 -1057 87 -55 27 -107 50 -115 50 -8 0 -59 -22
-113 -49 -147 -75 -192 -86 -359 -86 l-142 0 20 -21 c53 -57 206 -104 339
-104 117 0 199 23 333 91 l120 61 111 -53 c185 -88 115 -82 1053 -86 l831 -4
99 49 c54 28 117 60 140 73 l41 23 109 -51 c144 -69 198 -84 328 -90 130 -6
207 9 319 62 73 34 116 73 116 103 0 8 -31 46 -68 85 l-69 70 -21 -34z"/>
<path d="M20106 4754 c-8 -26 -61 -81 -106 -109 -89 -56 -258 -90 -404 -82
-116 6 -176 25 -307 94 l-89 47 -73 -33 c-213 -98 -282 -115 -437 -108 -58 2
-114 8 -125 12 -44 18 29 -45 81 -70 79 -37 168 -55 280 -55 129 0 222 23 366
92 95 45 112 50 129 39 190 -118 407 -159 593 -111 142 36 252 114 226 159 -5
9 -36 45 -68 81 -52 57 -60 62 -66 44z"/>
<path d="M13700 4708 c-83 -93 -189 -137 -351 -145 -160 -8 -267 15 -453 101
-43 20 -83 36 -89 36 -6 0 -36 -17 -67 -39 -102 -72 -218 -96 -414 -88 -72 3
-142 8 -156 12 l-25 7 25 -23 c39 -34 140 -78 221 -95 56 -12 112 -15 229 -11
182 5 222 16 318 89 l65 50 61 -27 c224 -100 317 -125 458 -125 138 0 232 29
315 96 67 54 66 66 -13 145 -38 38 -71 69 -74 68 -3 -1 -25 -23 -50 -51z"/>
<path d="M18025 4727 c-68 -106 -272 -175 -485 -164 -122 6 -136 10 -292 85
l-118 56 -117 -57 c-65 -30 -143 -61 -173 -68 -41 -10 -263 -15 -883 -19
l-829 -5 109 -53 108 -53 830 4 c599 2 843 7 875 16 25 6 98 37 163 68 l118
57 102 -51 c152 -77 198 -88 357 -88 159 0 229 17 321 76 88 57 88 75 3 159
l-69 69 -20 -32z"/>
<path d="M2805 4699 c-96 -99 -201 -134 -395 -134 -161 0 -247 21 -381 92
l-87 45 -83 -37 c-46 -21 -122 -52 -169 -68 -78 -28 -96 -31 -215 -31 -71 -1
-145 2 -164 7 -34 7 -34 7 -16 -13 26 -29 130 -77 206 -95 84 -19 212 -19 302
1 39 9 123 39 187 67 63 28 129 50 145 50 17 0 56 -16 87 -35 186 -114 527
-133 672 -36 51 33 86 73 86 95 0 9 -28 44 -62 79 l-63 64 -50 -51z"/>
<path d="M11411 4714 c-47 -46 -151 -98 -246 -125 -62 -18 -107 -23 -200 -24
-66 0 -136 3 -155 7 l-35 8 25 -20 c50 -39 157 -89 218 -101 84 -16 246 -6
342 21 98 28 217 85 231 112 10 18 4 28 -60 89 -40 38 -75 68 -79 68 -4 -1
-22 -17 -41 -35z"/>
<path d="M23224 4717 c-34 -37 -145 -98 -231 -128 -38 -13 -95 -23 -163 -26
-135 -7 -235 16 -375 87 -55 28 -105 50 -111 50 -6 0 -54 -22 -106 -49 -130
-65 -214 -86 -358 -86 -63 0 -131 3 -150 7 l-35 7 42 -38 c69 -63 158 -86 323
-86 157 1 224 16 341 75 42 21 95 44 117 50 38 12 42 11 108 -28 38 -23 105
-53 149 -69 73 -25 93 -28 215 -27 114 0 144 4 195 22 72 27 194 98 202 118 4
12 -107 145 -126 151 -3 1 -20 -13 -37 -30z"/>
<path d="M4935 4702 c-39 -47 -102 -86 -184 -114 -57 -20 -86 -23 -211 -23
-171 1 -225 13 -379 86 -57 27 -108 49 -113 49 -5 0 -39 -20 -75 -45 -104 -71
-179 -90 -353 -89 -99 0 -162 6 -200 16 l-55 16 35 -29 c45 -38 137 -82 220
-105 49 -14 100 -19 205 -18 163 0 197 10 326 95 l79 52 143 -61 c263 -112
453 -122 617 -30 70 38 100 66 100 91 0 19 -104 148 -118 146 -4 0 -20 -17
-37 -37z"/>
<path d="M27610 4705 c-29 -31 -138 -87 -225 -117 -59 -19 -90 -23 -200 -23
-142 0 -221 18 -335 75 -30 15 -77 35 -104 44 l-48 16 -49 -30 c-130 -80 -276
-116 -439 -107 -58 3 -114 8 -125 12 -35 13 3 -20 69 -59 85 -51 181 -70 320
-63 147 7 246 38 390 125 27 16 48 10 182 -48 150 -65 239 -84 368 -78 65 4
123 13 162 26 70 24 183 89 191 109 6 16 -20 47 -88 104 l-46 38 -23 -24z"/>
<path d="M10412 4654 c-167 -72 -245 -89 -396 -88 l-130 1 39 -34 c21 -18 63
-43 94 -55 50 -20 73 -23 211 -23 148 1 159 2 245 32 50 17 126 48 170 69 l80
37 -44 19 c-25 10 -66 34 -93 53 -26 19 -54 35 -61 35 -6 -1 -58 -21 -115 -46z"/>
<path d="M14728 4644 c-149 -70 -229 -87 -373 -81 -60 3 -118 8 -128 12 -13 6
-16 3 -11 -9 9 -22 135 -82 214 -100 91 -22 240 -20 331 3 41 10 125 44 186
74 l113 55 -94 51 c-52 28 -101 51 -108 50 -7 0 -66 -25 -130 -55z"/>
</g>
</svg>
