<?xml version="1.0" standalone="no"?>
<!DOCTYPE svg PUBLIC "-//W3C//DTD SVG 20010904//EN"
 "http://www.w3.org/TR/2001/REC-SVG-20010904/DTD/svg10.dtd">
<svg version="1.0" xmlns="http://www.w3.org/2000/svg"
 width="1063.000000pt" height="1063.000000pt" viewBox="0 0 1063.000000 1063.000000"
 preserveAspectRatio="xMidYMid meet">

<g transform="translate(0.000000,1063.000000) scale(0.100000,-0.100000)"
fill="#000000" stroke="none">
<path d="M3808 9346 c-171 -70 -370 -305 -553 -654 -21 -40 -40 -71 -42 -68
-7 6 91 356 133 477 19 57 44 113 55 125 44 48 1 134 -61 119 -59 -15 -91 -77
-165 -321 -75 -245 -279 -1084 -336 -1382 -11 -61 -13 -63 -79 -112 -98 -73
-187 -172 -223 -248 -59 -126 -47 -261 29 -338 l35 -34 -316 0 -315 0 0 -200
c0 -110 2 -200 4 -200 2 0 28 11 57 24 89 39 148 46 380 46 l219 0 -2 -977 -3
-978 -31 -77 -32 -78 263 0 264 0 -25 63 c-14 34 -29 91 -34 127 -6 37 -10
462 -10 993 l0 927 274 0 c150 0 287 -3 305 -6 17 -4 42 -17 56 -30 l25 -23 0
194 0 195 -177 0 -178 1 90 33 c191 70 338 161 483 300 189 181 281 362 270
531 -7 95 -37 155 -119 237 -107 106 -280 178 -464 194 -38 4 -76 10 -82 13
-8 4 21 30 75 68 247 175 449 404 521 593 54 139 61 294 18 377 -54 103 -184
141 -309 89z m166 -135 c42 -46 41 -155 -4 -273 -81 -217 -381 -510 -693 -678
-43 -23 -81 -40 -84 -36 -9 9 88 221 179 391 210 392 408 614 549 615 23 0 42
-7 53 -19z m-374 -1146 c158 -24 260 -66 343 -143 89 -83 107 -165 64 -285
-86 -235 -372 -475 -687 -575 -168 -53 -250 -67 -420 -67 -166 0 -202 9 -242
59 -28 34 -23 103 12 172 28 58 110 150 110 126 0 -7 -9 -65 -21 -128 -11 -63
-17 -124 -14 -135 10 -30 48 -51 80 -43 33 8 51 36 60 94 12 76 55 314 61 333
7 23 134 86 255 128 52 17 100 38 108 45 20 19 18 70 -5 95 -26 28 -75 21
-207 -31 -55 -21 -103 -37 -106 -35 -6 7 32 132 77 254 44 119 33 111 182 135
113 19 234 19 350 1z"/>
<path d="M5060 9101 c-85 -26 -177 -108 -285 -252 -228 -305 -399 -708 -451
-1063 -20 -135 -15 -353 10 -433 50 -157 187 -239 358 -212 78 12 217 79 313
151 39 29 116 99 172 155 57 57 105 103 107 103 2 0 9 -13 16 -30 20 -49 101
-117 161 -134 190 -57 447 38 725 266 39 32 73 58 75 58 2 0 16 -21 29 -46
l25 -45 -30 -22 c-62 -44 -155 -141 -175 -182 -11 -23 -20 -61 -20 -84 0 -36
6 -49 34 -77 31 -31 39 -34 93 -34 151 0 287 149 270 295 l-4 43 114 56 c126
63 319 131 400 142 l51 6 31 -48 c17 -27 31 -54 31 -60 0 -6 -18 -24 -39 -39
-57 -39 -149 -139 -166 -179 -8 -20 -15 -54 -15 -77 0 -33 6 -47 34 -75 31
-31 39 -34 93 -34 151 0 287 149 270 295 l-4 43 111 55 c136 67 262 113 380
137 48 11 97 27 107 36 42 38 9 114 -50 114 -81 0 -347 -88 -505 -167 -48 -24
-89 -43 -91 -41 -16 19 -95 170 -100 191 -9 35 16 74 59 92 54 23 86 8 126
-59 19 -32 43 -62 53 -68 26 -14 64 -2 83 27 21 33 12 71 -37 144 -50 75 -99
101 -188 101 -124 0 -223 -87 -238 -209 -5 -48 -6 -49 -47 -55 -72 -12 -277
-85 -395 -142 -63 -30 -115 -53 -116 -52 -17 21 -95 170 -100 191 -9 35 16 74
59 92 54 23 86 8 127 -60 19 -32 45 -63 57 -68 47 -21 102 33 88 86 -3 13 -24
52 -46 85 -51 76 -99 102 -189 102 -130 0 -233 -95 -236 -218 -2 -54 -4 -58
-58 -108 -82 -76 -233 -179 -329 -223 -137 -64 -248 -78 -324 -41 -35 18 -62
46 -52 55 2 2 32 17 68 35 127 63 236 154 276 232 24 45 24 117 1 152 -10 15
-39 37 -65 48 -56 25 -145 21 -215 -10 -70 -31 -159 -121 -202 -205 -72 -139
-185 -274 -332 -397 -182 -152 -330 -201 -427 -141 -59 37 -79 91 -84 233 -2
64 -1 151 3 192 l7 75 56 42 c84 62 253 230 347 344 281 341 424 681 352 841
-27 59 -98 93 -157 75z m40 -180 c0 -122 -137 -391 -308 -606 -82 -102 -198
-229 -238 -260 l-35 -27 7 29 c30 127 186 455 298 623 72 109 231 280 260 280
12 0 16 -10 16 -39z m550 -1005 c0 -23 -111 -118 -179 -155 l-64 -34 7 29 c12
48 60 107 117 142 56 34 119 44 119 18z m1474 -463 c-26 -35 -72 -69 -81 -60
-3 4 15 28 42 52 51 48 72 52 39 8z m-800 -30 c-26 -35 -72 -69 -81 -60 -3 4
15 28 42 52 51 48 72 52 39 8z"/>
<path d="M7187 7020 c-103 -27 -191 -75 -263 -143 -109 -102 -152 -199 -161
-362 -9 -184 37 -319 154 -445 73 -78 180 -154 383 -270 217 -123 278 -165
355 -244 116 -118 163 -248 151 -417 -15 -203 -89 -346 -226 -438 -240 -160
-598 -88 -751 150 -48 75 -71 160 -71 264 -1 132 20 194 86 260 78 79 161 100
263 70 99 -29 150 -123 123 -223 -12 -46 -60 -107 -91 -117 -59 -19 74 -70
161 -62 73 6 127 35 179 93 64 73 82 151 60 269 -45 243 -316 390 -604 330
-221 -46 -385 -209 -429 -427 -30 -145 -14 -343 38 -482 61 -161 191 -303 348
-380 142 -70 225 -89 398 -90 118 0 161 4 233 22 219 55 402 181 514 354 85
131 123 276 123 461 -1 266 -69 439 -239 607 -109 108 -188 161 -440 300 -293
160 -360 211 -408 308 -36 75 -39 184 -5 248 68 131 272 191 414 121 58 -28
98 -72 124 -132 16 -40 18 -140 3 -204 -5 -24 -8 -45 -7 -47 2 -1 73 52 158
118 179 139 177 135 122 253 -57 121 -188 220 -347 260 -84 21 -261 19 -348
-5z"/>
<path d="M3900 6905 c0 -2 11 -30 25 -61 14 -31 29 -84 35 -117 7 -42 10 -397
8 -1077 l-3 -1015 -26 -65 c-15 -36 -30 -73 -34 -82 -7 -17 9 -18 238 -18
l246 0 -32 83 -31 82 -4 473 -3 472 401 0 401 0 -3 -482 -3 -483 -32 -72 -32
-73 246 0 c230 0 245 1 238 18 -4 9 -19 49 -34 87 l-26 70 -3 990 c-3 1028 -1
1072 39 1183 11 32 23 65 26 75 5 16 -11 17 -242 17 -194 0 -246 -3 -242 -12
3 -7 18 -42 34 -78 l28 -65 3 -422 3 -423 -401 0 -401 0 3 408 4 407 26 75
c14 41 29 83 33 93 7 16 -8 17 -239 17 -135 0 -246 -2 -246 -5z"/>
<path d="M5750 6905 c0 -2 11 -30 25 -61 14 -31 30 -84 35 -117 7 -42 10 -397
8 -1082 l-3 -1020 -31 -77 -32 -78 263 0 263 0 -24 58 c-13 31 -28 80 -34 107
-7 34 -10 383 -8 1075 l3 1025 31 88 32 87 -264 0 c-145 0 -264 -2 -264 -5z"/>
<path d="M3948 4250 c-308 -56 -566 -311 -618 -610 -8 -45 -10 -255 -8 -670
l3 -605 28 -80 c86 -245 251 -409 492 -491 104 -35 290 -44 405 -20 266 56
489 267 572 538 22 71 22 87 26 652 3 613 0 665 -43 789 -78 226 -285 418
-520 482 -69 19 -268 28 -337 15z m200 -270 c148 -28 278 -149 331 -308 20
-58 21 -84 21 -452 0 -214 -2 -390 -5 -390 -3 0 -23 9 -45 20 -98 50 -253 50
-357 -1 -150 -73 -221 -250 -149 -373 29 -50 82 -90 134 -101 29 -6 32 -4 32
18 0 29 35 83 71 109 96 71 244 -12 265 -148 25 -172 -212 -351 -418 -315
-157 27 -278 134 -341 299 -22 56 -22 63 -22 662 l0 605 23 65 c31 87 73 149
138 209 99 91 204 124 322 101z"/>
<path d="M5070 4215 c0 -3 12 -34 26 -68 25 -57 28 -79 36 -272 5 -115 8 -577
6 -1025 l-5 -815 -26 -75 c-14 -41 -29 -83 -32 -92 -7 -17 8 -18 230 -18 222
0 237 1 230 18 -4 9 -18 50 -31 90 l-24 73 0 771 0 771 147 -214 c138 -201
383 -551 429 -613 l20 -28 51 68 c40 55 235 333 535 764 16 24 17 -15 15 -760
l-2 -785 -27 -69 c-16 -37 -28 -72 -28 -77 0 -5 106 -9 235 -9 129 0 235 2
235 4 0 2 -11 29 -25 59 -13 31 -29 84 -35 119 -8 43 -10 370 -8 1043 3 1052
0 989 52 1108 l16 37 -207 0 -208 -1 -190 -311 c-184 -302 -400 -638 -408
-638 -9 0 -385 594 -546 863 l-52 87 -205 0 c-112 0 -204 -2 -204 -5z"/>
<path d="M1520 4205 c0 -3 12 -34 26 -68 24 -56 28 -80 36 -262 5 -110 8 -571
6 -1025 l-5 -825 -27 -75 c-15 -41 -30 -83 -33 -92 -5 -17 11 -18 231 -18 130
0 236 2 236 4 0 2 -12 35 -27 72 l-28 69 -3 468 -3 467 386 0 385 0 0 -452 0
-453 -26 -70 c-14 -38 -28 -78 -31 -87 -5 -17 11 -18 232 -18 222 0 237 1 230
18 -4 9 -19 49 -34 87 l-26 70 0 1005 0 1005 27 75 c14 41 30 83 33 93 7 16
-8 17 -229 17 -130 0 -236 -4 -236 -8 0 -5 12 -37 28 -73 l27 -64 3 -412 3
-413 -386 0 -386 0 3 408 c3 436 0 407 53 545 7 16 -8 17 -229 17 -130 0 -236
-2 -236 -5z"/>
<path d="M7324 4123 l30 -88 4 -815 c2 -448 -1 -909 -6 -1025 -8 -192 -11
-215 -36 -274 -14 -36 -26 -68 -26 -73 0 -4 298 -7 663 -6 l662 3 3 193 c1
105 1 192 -2 192 -2 0 -28 -11 -57 -24 -96 -42 -142 -46 -509 -46 l-350 0 0
391 0 391 313 -4 c310 -4 313 -4 387 -31 41 -15 83 -30 93 -34 16 -5 17 9 17
202 0 193 -1 207 -17 200 -135 -51 -119 -50 -465 -53 l-328 -3 0 340 0 341
338 0 c360 0 431 -6 519 -45 30 -14 57 -25 59 -25 2 0 4 86 4 190 l0 190 -663
0 -663 0 30 -87z"/>
</g>
</svg>
