<?xml version="1.0" standalone="no"?>
<!DOCTYPE svg PUBLIC "-//W3C//DTD SVG 20010904//EN"
 "http://www.w3.org/TR/2001/REC-SVG-20010904/DTD/svg10.dtd">
<svg version="1.0" xmlns="http://www.w3.org/2000/svg"
 width="1063.000000pt" height="1063.000000pt" viewBox="0 0 1063.000000 1063.000000"
 preserveAspectRatio="xMidYMid meet">

<g transform="translate(0.000000,1063.000000) scale(0.100000,-0.100000)"
fill="#000000" stroke="none">
<path d="M5129 7627 c-155 -58 -272 -232 -294 -438 -8 -79 14 -193 50 -254 58
-100 166 -161 304 -172 267 -20 441 135 441 391 0 67 -31 189 -66 257 -35 70
-126 165 -189 197 -61 31 -188 41 -246 19z m164 -200 c59 -68 77 -235 34 -312
-49 -88 -158 -81 -199 11 -56 127 26 363 117 338 11 -3 33 -20 48 -37z"/>
<path d="M8089 7627 c-155 -58 -272 -232 -294 -438 -8 -79 14 -193 50 -254 58
-100 166 -161 304 -172 267 -20 441 135 441 391 0 67 -31 189 -66 257 -35 70
-126 165 -189 197 -61 31 -188 41 -246 19z m164 -200 c59 -68 77 -235 34 -312
-49 -88 -158 -81 -199 11 -56 127 26 363 117 338 11 -3 33 -20 48 -37z"/>
<path d="M665 7624 c-93 -23 -106 -47 -65 -118 43 -76 57 -183 42 -320 -9 -87
-18 -116 -52 -186 -79 -165 -45 -228 131 -238 112 -6 180 10 214 50 35 41 32
80 -15 177 -49 101 -63 185 -58 335 3 111 7 123 54 203 22 38 14 60 -32 82
-29 15 -179 25 -219 15z"/>
<path d="M1590 7619 c-41 -13 -70 -36 -70 -57 0 -8 14 -39 31 -69 27 -47 32
-68 37 -143 8 -140 -30 -334 -72 -369 -7 -6 -19 -32 -26 -57 -11 -39 -11 -50
4 -80 29 -62 57 -68 344 -72 l254 -4 43 45 c55 57 87 140 88 227 2 82 -19 124
-67 140 -44 14 -73 0 -140 -69 -80 -82 -157 -79 -193 7 -11 27 -16 74 -17 167
l-1 131 37 73 c20 40 34 80 31 88 -3 7 -19 21 -37 30 -38 20 -195 27 -246 12z"/>
<path d="M2365 7615 c-22 -8 -41 -15 -42 -15 -1 0 -7 -9 -13 -20 -9 -17 -5
-31 19 -74 44 -77 58 -176 43 -314 -9 -93 -17 -120 -51 -192 -81 -167 -48
-228 130 -238 112 -6 180 10 214 50 35 41 32 80 -15 177 -49 101 -63 185 -58
335 3 111 7 123 54 203 22 38 14 60 -32 82 -42 21 -199 25 -249 6z"/>
<path d="M2795 7623 c-87 -19 -97 -50 -35 -116 21 -24 53 -72 69 -106 38 -80
86 -281 104 -433 21 -173 45 -199 186 -206 164 -8 201 19 201 146 0 182 101
495 189 587 71 74 75 106 14 126 -50 16 -163 6 -205 -18 l-33 -20 3 -89 c3
-80 -1 -103 -38 -227 -22 -76 -47 -152 -56 -168 -29 -58 -42 -34 -100 194 -36
138 -36 139 -21 200 20 79 9 100 -65 122 -48 14 -166 19 -213 8z"/>
<path d="M5764 7619 c-23 -6 -50 -19 -59 -29 -17 -19 -17 -22 12 -78 37 -71
53 -141 53 -237 0 -108 -24 -217 -63 -289 -45 -79 -51 -108 -33 -150 24 -57
62 -71 196 -71 177 0 199 23 155 160 -27 82 -53 279 -42 309 24 63 100 -141
127 -343 12 -87 15 -93 44 -109 24 -13 56 -17 141 -17 123 0 177 14 201 51 15
22 14 28 -25 106 -51 103 -74 238 -69 403 3 103 5 114 36 169 46 80 40 100
-35 122 -70 20 -203 15 -251 -10 -40 -21 -42 -51 -6 -111 29 -50 47 -149 38
-212 -12 -86 -39 -45 -94 142 -23 79 -49 148 -61 161 -38 41 -161 56 -265 33z"/>
<path d="M7108 7615 c-65 -21 -70 -46 -28 -121 28 -48 33 -68 38 -144 8 -140
-30 -334 -72 -369 -7 -6 -19 -32 -26 -57 -11 -39 -11 -50 4 -80 29 -62 57 -68
344 -72 l254 -4 43 45 c55 57 87 140 88 227 2 82 -19 124 -67 140 -44 14 -73
0 -140 -69 -80 -82 -157 -79 -193 7 -11 27 -16 74 -17 167 l-1 131 37 73 c20
40 34 80 31 88 -17 45 -200 68 -295 38z"/>
<path d="M8665 7623 c-87 -19 -97 -50 -35 -116 21 -24 53 -72 69 -106 38 -80
86 -281 104 -433 21 -173 45 -199 186 -206 166 -8 201 18 201 152 0 177 102
490 189 581 71 74 75 106 14 126 -50 16 -163 6 -205 -18 l-33 -20 3 -89 c3
-78 -1 -104 -33 -214 -43 -148 -70 -213 -87 -208 -15 5 -31 53 -74 221 -36
138 -36 139 -21 200 20 79 9 100 -65 122 -48 14 -166 19 -213 8z"/>
<path d="M3642 7604 c-30 -20 -28 -59 4 -105 33 -48 43 -94 44 -189 0 -131
-31 -273 -70 -322 -10 -13 -24 -43 -31 -66 -11 -37 -10 -47 4 -78 30 -63 58
-68 345 -72 l254 -4 43 45 c55 57 87 140 88 227 2 82 -19 124 -67 140 -44 14
-63 5 -136 -65 -67 -65 -111 -78 -153 -45 -36 29 -60 76 -53 106 5 19 13 24
40 24 19 0 45 -9 60 -21 36 -29 59 -21 74 26 17 50 8 117 -18 140 -19 17 -21
17 -58 -9 -44 -30 -59 -32 -90 -10 -32 22 -27 51 17 95 37 38 41 39 106 39
l68 0 51 -51 c59 -59 78 -71 101 -63 24 10 35 38 35 94 0 59 -21 114 -57 153
l-27 27 -276 0 c-233 0 -279 -2 -298 -16z"/>
<path d="M9512 7604 c-30 -20 -28 -59 4 -105 33 -48 44 -95 43 -194 0 -123
-22 -226 -68 -319 -46 -90 -48 -104 -25 -147 29 -57 61 -63 342 -67 l254 -4
43 45 c55 57 87 140 88 227 2 82 -19 124 -67 140 -44 14 -63 5 -136 -65 -67
-65 -111 -78 -153 -45 -36 29 -60 76 -53 106 5 19 13 24 40 24 19 0 45 -9 60
-21 36 -29 59 -21 74 26 17 50 8 117 -18 140 -19 17 -21 17 -58 -9 -44 -30
-59 -32 -90 -10 -32 22 -27 51 17 95 37 38 41 39 106 39 l68 0 51 -51 c59 -59
78 -71 101 -63 24 10 35 38 35 94 0 59 -21 114 -57 153 l-27 27 -276 0 c-233
0 -279 -2 -298 -16z"/>
<path d="M996 6519 c-119 -18 -244 -98 -288 -183 -13 -26 -23 -67 -25 -111 -5
-74 -4 -77 68 -202 l24 -41 -76 -74 c-91 -87 -114 -139 -114 -258 0 -61 5 -86
27 -132 84 -181 347 -292 583 -247 120 22 120 22 191 -6 140 -56 234 1 234
142 0 39 -5 53 -29 78 l-30 30 22 60 c18 49 22 82 22 185 0 110 -3 130 -22
167 -30 54 -58 73 -111 73 -38 0 -49 -6 -97 -51 l-53 -50 -55 43 c-31 24 -97
69 -147 101 -51 33 -100 72 -111 90 -41 65 3 147 77 147 42 0 72 -28 104 -98
29 -62 48 -82 77 -82 57 0 93 51 112 156 16 86 -5 190 -45 225 -37 33 -232 55
-338 38z m89 -696 c59 -61 79 -177 37 -210 -9 -7 -30 -13 -48 -13 -66 0 -116
99 -101 196 12 74 56 85 112 27z"/>
<path d="M2763 6519 c-78 -13 -155 -45 -200 -83 -76 -66 -124 -228 -93 -320
19 -59 119 -157 248 -242 64 -43 127 -87 140 -98 48 -43 11 -86 -74 -86 -60 0
-90 20 -157 105 -50 64 -69 74 -138 75 -65 0 -90 -18 -122 -89 -39 -88 -32
-263 13 -351 22 -42 73 -92 117 -114 89 -45 300 -60 434 -32 149 32 292 137
347 253 31 68 42 199 22 267 -31 104 -121 180 -320 269 -177 79 -198 103 -144
166 22 26 33 31 69 31 38 0 47 -5 68 -32 14 -18 34 -52 46 -75 12 -23 30 -47
40 -53 79 -42 142 48 145 207 1 88 -10 114 -66 156 -60 45 -245 68 -375 46z"/>
<path d="M3865 6523 c-163 -22 -322 -151 -416 -338 -58 -117 -80 -202 -86
-335 -6 -130 7 -200 57 -308 57 -123 185 -222 331 -257 84 -19 258 -19 334 0
175 46 245 145 245 346 0 157 -47 239 -138 239 -43 0 -47 -3 -132 -91 l-88
-92 -61 5 c-73 5 -111 35 -136 107 -63 186 25 471 146 471 46 0 64 -14 99 -77
43 -76 58 -93 87 -93 58 0 95 53 112 160 18 110 -12 205 -73 234 -53 25 -198
40 -281 29z"/>
<path d="M5710 6497 c-30 -7 -70 -21 -87 -30 -45 -24 -43 -59 7 -151 34 -61
43 -91 57 -182 28 -190 -9 -425 -88 -556 -23 -38 -46 -90 -51 -116 -5 -26 -20
-67 -33 -92 -39 -74 -56 -187 -65 -435 -5 -126 -10 -247 -10 -268 0 -37 -1
-37 -22 -23 -34 22 -98 29 -147 16 -66 -17 -125 -85 -200 -225 -161 -305 -317
-485 -418 -485 -86 0 -143 134 -204 475 -36 198 -48 232 -83 241 -61 15 -114
-68 -163 -256 l-28 -105 -12 90 c-7 50 -15 100 -18 112 -6 27 -40 47 -59 36
-8 -4 -39 -57 -69 -116 -149 -289 -315 -477 -420 -477 -87 0 -146 97 -169 280
-13 95 -20 110 -54 110 -31 0 -34 -8 -55 -121 -20 -115 -60 -210 -103 -245
-25 -22 -37 -25 -75 -21 -85 9 -131 98 -131 252 0 290 182 491 274 301 13 -28
29 -63 35 -78 19 -50 81 -32 81 23 0 74 -58 166 -124 198 -57 28 -101 26 -165
-5 -63 -32 -106 -87 -179 -229 -109 -212 -254 -400 -344 -446 -103 -53 -178 5
-224 172 -23 83 -27 367 -5 414 l13 30 14 -30 c7 -16 13 -45 14 -63 0 -25 6
-35 26 -44 23 -11 29 -10 45 11 20 25 19 56 -3 128 -12 40 -61 83 -95 83 -34
0 -88 -56 -102 -105 -19 -69 -24 -186 -12 -303 20 -192 74 -321 158 -374 58
-35 151 -33 218 6 66 39 158 133 225 229 l54 78 13 -77 c23 -133 68 -208 148
-245 51 -24 99 -24 151 0 46 21 108 89 126 138 7 18 15 33 18 33 3 0 16 -23
29 -50 41 -85 119 -140 202 -140 118 0 268 138 412 382 48 80 67 105 71 91 3
-10 12 -115 21 -233 10 -118 22 -221 28 -228 16 -20 50 -10 63 18 7 14 17 77
24 140 17 183 101 525 120 489 4 -8 13 -50 19 -94 38 -252 117 -467 194 -529
33 -26 47 -31 95 -31 40 0 72 7 105 24 63 31 160 127 233 232 l59 84 7 -60
c17 -137 70 -229 152 -266 54 -24 100 -24 153 2 49 24 84 62 119 131 l25 49
35 -71 c48 -96 87 -125 168 -125 39 1 75 8 101 20 91 45 237 213 336 390 l34
60 7 -40 c39 -222 58 -285 108 -354 37 -50 68 -71 117 -78 124 -17 279 112
420 349 32 54 61 98 64 98 3 0 9 -35 12 -78 12 -153 75 -294 154 -344 58 -35
151 -33 218 6 108 63 227 211 351 436 31 58 59 107 60 109 2 2 21 -12 42 -30
22 -19 72 -52 111 -74 39 -22 71 -42 71 -45 0 -3 -30 -16 -67 -29 -171 -60
-291 -148 -313 -229 -52 -195 341 -233 517 -51 23 24 49 61 58 81 19 48 19
121 0 159 -12 23 -13 30 -3 33 54 16 204 74 252 98 32 16 81 50 108 76 41 38
49 51 46 76 -5 49 -43 47 -96 -4 -55 -51 -138 -94 -276 -140 l-109 -36 -117
72 c-63 40 -126 84 -139 98 l-23 25 25 33 c90 120 108 258 42 324 -54 54 -147
11 -180 -84 -22 -62 -31 -191 -16 -232 10 -30 6 -40 -44 -139 -112 -218 -256
-405 -347 -452 -78 -40 -152 -10 -192 79 l-18 40 36 88 c69 174 89 296 62 386
-18 63 -61 108 -103 108 -31 0 -89 -56 -99 -96 -4 -16 -33 -81 -65 -144 -146
-287 -313 -480 -417 -480 -73 0 -132 132 -162 363 -17 133 -13 182 19 251 42
87 76 195 101 316 18 85 21 132 18 248 l-3 142 76 0 c140 0 238 30 258 78 14
34 4 71 -38 137 -65 102 -103 298 -104 540 -1 169 11 230 63 306 39 58 41 110
4 134 -87 57 -352 58 -437 1 -46 -31 -47 -65 -4 -135 52 -84 61 -123 62 -248
0 -119 -9 -148 -40 -123 -14 11 -74 190 -134 397 -23 79 -54 114 -119 133 -57
18 -219 21 -282 7z m340 -569 c47 -77 123 -366 137 -517 3 -36 10 -74 14 -83
6 -11 3 -53 -7 -110 -11 -65 -17 -186 -21 -402 l-6 -310 -59 -110 c-152 -282
-300 -446 -402 -446 -80 0 -142 160 -165 428 l-10 111 34 73 c40 88 79 206
100 308 21 95 30 278 18 350 l-9 55 137 -3 c265 -7 319 39 253 214 -14 38 -32
103 -40 144 -17 85 -30 290 -21 314 10 25 25 19 47 -16z m-452 -808 c4 -142
-16 -282 -52 -360 -15 -33 -15 -28 -10 115 5 146 19 316 31 384 12 68 27 -1
31 -139z m724 69 c16 -115 -2 -283 -46 -419 -14 -44 -14 -43 -15 80 0 113 7
233 25 378 9 70 22 55 36 -39z m1446 -418 c2 -21 -8 -55 -30 -99 l-32 -67 -4
45 c-4 47 13 126 30 148 17 20 33 8 36 -27z m-2386 -211 c114 -89 95 -472 -29
-580 -61 -54 -145 -34 -181 42 -73 150 -29 429 83 526 42 38 89 42 127 12z
m1653 -85 c0 -70 -30 -201 -48 -212 -14 -8 -3 256 12 292 12 29 13 29 24 10 7
-11 12 -51 12 -90z m981 -272 c7 -10 14 -38 14 -63 0 -66 -34 -111 -114 -150
-117 -58 -306 -51 -306 11 0 48 102 115 279 185 100 39 109 40 127 17z"/>
<path d="M9185 6505 c-5 -2 -22 -6 -38 -9 -72 -16 -86 -82 -35 -162 41 -64 57
-119 67 -229 17 -177 -19 -401 -79 -495 -44 -69 -60 -114 -60 -171 0 -46 4
-55 38 -89 56 -56 88 -62 347 -67 267 -6 365 6 472 57 131 61 204 144 250 285
22 68 26 97 25 195 0 139 -23 236 -84 360 -80 160 -242 291 -397 320 -48 9
-481 13 -506 5z m472 -255 c66 -40 112 -147 120 -281 7 -113 -14 -188 -67
-241 -34 -35 -42 -38 -92 -38 -88 0 -114 40 -129 201 -11 120 2 262 30 316 31
62 82 78 138 43z"/>
<path d="M4492 6480 c-50 -21 -49 -96 3 -164 54 -71 73 -199 55 -381 -14 -141
-41 -252 -74 -309 -64 -107 -70 -121 -70 -176 -1 -93 49 -140 172 -160 31 -6
197 -10 367 -10 304 0 311 1 347 23 95 57 168 222 168 378 -1 131 -45 189
-146 189 -45 0 -49 -3 -124 -80 -85 -87 -108 -100 -179 -100 -40 0 -52 5 -78
33 -65 68 -81 135 -38 163 33 21 74 13 129 -26 48 -35 69 -32 90 9 37 72 26
208 -20 237 -23 15 -26 15 -72 -15 -105 -67 -198 -19 -148 77 33 62 104 102
183 102 86 0 115 -15 191 -95 62 -66 75 -75 107 -75 51 0 75 42 75 132 0 85
-29 166 -79 219 l-38 39 -399 -1 c-219 0 -409 -4 -422 -9z"/>
<path d="M6869 6458 c-113 -114 -119 -358 -8 -358 24 0 45 14 100 68 68 65
120 102 146 102 52 0 79 -132 70 -349 -5 -139 -22 -226 -56 -291 -10 -19 -33
-62 -50 -94 -55 -104 -36 -191 51 -238 40 -21 55 -23 213 -23 156 0 173 2 211
22 95 51 110 153 39 261 -49 73 -71 141 -91 275 -30 204 -6 412 50 433 24 9
94 -37 161 -105 64 -66 106 -79 138 -43 63 70 27 270 -63 346 l-32 26 -423 0
-423 0 -33 -32z"/>
<path d="M7992 6480 c-50 -21 -49 -96 3 -164 54 -71 73 -199 55 -381 -14 -141
-41 -252 -74 -309 -64 -107 -70 -121 -70 -176 -1 -93 49 -140 172 -160 31 -6
197 -10 367 -10 304 0 311 1 346 23 97 59 169 220 169 377 -1 132 -45 190
-146 190 -45 0 -49 -3 -124 -80 -85 -87 -108 -100 -179 -100 -40 0 -52 5 -78
33 -65 68 -81 135 -38 163 33 21 74 13 129 -26 48 -35 69 -32 90 9 37 72 26
208 -20 237 -23 15 -26 15 -72 -15 -105 -67 -198 -19 -148 77 33 62 104 102
183 102 86 0 115 -15 191 -95 62 -66 75 -75 107 -75 51 0 75 42 75 132 0 85
-29 166 -79 219 l-38 39 -399 -1 c-219 0 -409 -4 -422 -9z"/>
<path d="M4904 3331 c-96 -25 -207 -118 -252 -213 -67 -139 -68 -296 -2 -430
55 -111 105 -158 424 -393 104 -76 214 -163 244 -192 31 -29 57 -53 57 -53 1
0 25 23 54 51 29 28 157 128 284 223 267 199 334 262 383 361 112 226 32 502
-179 616 -57 31 -69 34 -152 34 -82 0 -97 -3 -157 -33 -108 -53 -187 -157
-221 -289 l-13 -52 -18 70 c-31 122 -122 232 -230 280 -52 23 -170 34 -222 20z"/>
</g>
</svg>
