<?xml version="1.0" standalone="no"?>
<!DOCTYPE svg PUBLIC "-//W3C//DTD SVG 20010904//EN"
 "http://www.w3.org/TR/2001/REC-SVG-20010904/DTD/svg10.dtd">
<svg version="1.0" xmlns="http://www.w3.org/2000/svg"
 width="5000.000000pt" height="5000.000000pt" viewBox="0 0 5000.000000 5000.000000"
 preserveAspectRatio="xMidYMid meet">

<g transform="translate(0.000000,5000.000000) scale(0.100000,-0.100000)"
fill="#000000" stroke="none">
<path d="M18480 47269 c-138 -36 -225 -106 -284 -229 -26 -56 -31 -76 -31
-145 0 -69 5 -89 32 -148 43 -90 121 -167 200 -197 59 -22 179 -40 269 -40 69
0 151 -26 180 -57 14 -16 29 -53 40 -100 15 -70 15 -167 -5 -1567 -38 -2639
-189 -13474 -201 -14326 -20 -1527 -41 -2105 -86 -2340 -16 -87 -56 -175 -87
-192 -12 -7 -67 -15 -122 -19 -132 -8 -202 -35 -270 -103 -174 -174 -93 -533
140 -627 l60 -24 925 2 c1711 4 2021 30 2164 183 65 70 83 136 68 255 -23 178
-81 282 -187 331 -62 29 -110 30 -275 4 -119 -18 -126 -19 -160 -2 -151 74
-177 424 -166 2247 6 1203 21 2216 61 4305 48 2513 93 5370 140 8995 36 2765
35 2727 50 2799 34 164 101 199 420 217 326 18 412 57 457 204 25 81 31 262
10 330 -28 94 -94 160 -192 189 -151 46 -211 49 -937 53 -417 3 -693 8 -693
14 0 5 -285 9 -722 8 -684 0 -727 -1 -798 -20z"/>
<path d="M33873 47100 c-102 -15 -199 -41 -238 -63 -52 -29 -101 -103 -115
-174 -7 -31 -10 -100 -8 -153 4 -113 33 -185 98 -244 108 -98 220 -118 570
-102 162 7 178 6 209 -12 73 -40 115 -164 147 -442 14 -119 18 -274 21 -860 5
-746 -1 -1223 -42 -3185 -132 -6347 -184 -9719 -185 -11990 -1 -676 -5 -1345
-9 -1486 -7 -228 -11 -260 -30 -303 -11 -27 -21 -54 -21 -61 0 -17 -40 -52
-80 -69 -64 -26 -153 -37 -395 -46 -429 -15 -537 -60 -576 -235 -18 -82 -7
-248 21 -313 28 -66 87 -118 155 -137 165 -47 94 -46 2275 -44 1125 1 3118 5
4430 9 l2385 6 85 23 c185 48 308 135 368 261 101 213 125 480 111 1260 -12
734 -16 817 -34 884 -33 122 -106 215 -216 273 -47 24 -65 28 -139 28 -70 0
-94 -4 -135 -25 -111 -54 -198 -179 -230 -330 -18 -87 -34 -443 -35 -770 0
-129 -5 -309 -10 -400 -18 -303 -56 -375 -208 -399 -40 -6 -798 -18 -1877 -30
-995 -12 -1918 -23 -2050 -26 -469 -12 -1355 -9 -1485 4 -132 12 -234 34 -257
53 -8 6 -26 32 -41 57 l-27 46 3 240 c1 132 7 584 12 1005 26 1959 31 2516 40
4245 14 2739 28 3055 140 3175 28 30 33 32 82 26 29 -4 541 -11 1138 -15 976
-8 1206 -12 1277 -27 38 -7 82 -53 94 -97 8 -30 8 -129 -1 -377 -9 -254 -9
-358 -1 -430 40 -331 130 -427 389 -419 99 4 113 7 177 39 83 42 104 75 134
215 50 227 62 424 112 1770 44 1178 44 1173 -4 1274 -28 60 -94 123 -165 158
-50 25 -68 28 -152 28 -88 0 -101 -3 -165 -34 -80 -40 -151 -106 -183 -171
-43 -90 -51 -152 -66 -540 -24 -566 -27 -573 -266 -613 -108 -17 -1851 -17
-2039 1 -165 16 -273 36 -320 60 -50 25 -98 121 -110 221 -6 45 -6 251 0 525
9 477 32 1807 49 2841 22 1374 31 2106 40 3280 5 677 14 1298 20 1380 16 233
49 397 89 446 18 23 20 23 103 11 64 -9 652 -12 2484 -12 2330 0 2521 -2 2699
-31 108 -18 141 -34 173 -88 l27 -46 -2 -197 c-1 -109 -9 -291 -17 -405 -29
-398 -38 -687 -33 -983 8 -397 27 -493 113 -569 58 -51 131 -71 260 -71 121 0
185 17 241 65 82 70 131 177 157 347 35 224 55 763 59 1603 2 660 1 671 -67
810 -118 239 -337 302 -1201 347 -256 13 -7666 21 -7752 8z"/>
<path d="M7591 47068 c-148 -57 -240 -245 -212 -433 25 -168 84 -232 248 -268
88 -20 155 -51 193 -89 45 -44 61 -113 67 -278 2 -80 -45 -2685 -106 -5790
-132 -6748 -119 -6088 -131 -6895 -42 -2830 -95 -4702 -141 -5035 -24 -172
-81 -335 -128 -359 -11 -6 -44 -6 -92 1 -215 30 -356 -32 -425 -186 -36 -79
-39 -187 -8 -256 57 -125 160 -200 299 -220 93 -13 4888 -14 4913 -1 10 6 929
14 2367 21 1293 6 2432 15 2532 20 285 14 457 48 513 100 17 16 38 55 52 96
l23 69 3 910 c3 946 -2 1140 -37 1311 -32 153 -84 233 -180 278 -68 31 -251
29 -335 -4 -125 -48 -190 -144 -226 -330 -38 -192 -41 -358 -17 -951 l21 -545
-28 -48 c-48 -82 -92 -97 -351 -116 -230 -17 -1256 -30 -3285 -40 -1053 -5
-2133 -14 -2400 -20 -487 -10 -882 -26 -932 -36 -92 -19 -161 111 -188 352
-53 483 -32 2217 70 5549 11 358 31 1186 45 1840 129 6109 213 9601 245 10225
l9 175 34 32 c46 42 86 52 247 64 74 5 158 16 185 25 151 46 249 201 249 394
1 70 -4 94 -25 140 -51 110 -114 155 -272 195 -226 57 -610 80 -1847 110 -814
20 -881 19 -949 -7z"/>
<path d="M29037 46960 c-772 -4 -999 -8 -1005 -17 -6 -10 -498 -13 -2267 -16
-2433 -3 -2326 -1 -2520 -52 -174 -46 -252 -157 -243 -345 9 -185 109 -288
312 -321 121 -20 177 -61 204 -149 19 -63 19 -71 2 -1560 -22 -1891 -35 -3204
-61 -6030 -5 -613 -14 -2913 -19 -5110 -9 -3887 -17 -4851 -40 -5150 -15 -182
-42 -347 -66 -397 -30 -60 -102 -91 -239 -103 -151 -13 -208 -32 -260 -88 -79
-84 -73 -309 10 -418 47 -62 182 -115 380 -148 189 -33 343 -45 920 -76 305
-16 1764 -33 1850 -21 109 15 166 43 229 112 121 130 116 302 -10 419 -88 81
-299 160 -428 160 -91 0 -192 18 -236 40 -96 49 -136 246 -149 734 -7 272 7
1736 28 2951 17 902 30 2218 36 3495 4 635 10 1202 16 1259 11 126 39 197 91
229 83 51 108 53 793 62 690 10 1210 23 1810 45 603 23 656 21 762 -34 50 -25
106 -79 129 -122 43 -84 46 -106 33 -264 -12 -161 -14 -148 41 -349 39 -145
90 -221 182 -271 46 -25 66 -30 152 -33 194 -8 315 46 368 166 68 153 88 1934
28 2554 -17 169 -74 270 -182 319 -46 21 -68 24 -163 24 -80 0 -124 -5 -161
-18 -182 -63 -255 -271 -274 -787 -11 -304 -22 -340 -108 -380 -38 -18 -75
-24 -197 -31 -157 -8 -1612 -26 -2540 -31 -508 -3 -542 -2 -577 15 -140 70
-168 275 -170 1212 -1 873 52 7407 61 7505 15 160 41 189 190 215 193 34 321
35 3380 35 3417 0 3117 7 3197 -74 62 -61 64 -85 54 -466 -29 -1042 6 -1278
208 -1377 54 -26 65 -28 187 -28 115 0 136 3 183 24 64 29 125 95 147 160 58
176 67 367 63 1326 -5 857 -3 837 -67 964 -35 69 -74 105 -156 141 -123 55
-297 82 -654 100 -209 10 -1426 11 -3254 0z"/>
<path d="M15335 25454 c-364 -41 -641 -136 -900 -310 -432 -288 -707 -727
-800 -1275 -22 -130 -30 -435 -16 -589 84 -908 656 -1538 1551 -1709 342 -65
782 -52 1097 34 217 58 443 163 613 283 120 85 285 250 373 372 81 115 185
321 226 450 57 180 91 408 91 617 l0 103 -695 0 -695 0 0 -240 0 -240 350 0
c193 0 350 -4 350 -8 0 -31 -48 -181 -79 -248 -105 -224 -271 -388 -516 -509
-232 -115 -404 -150 -694 -142 -310 9 -512 69 -745 224 -420 278 -639 775
-605 1373 37 648 442 1150 1034 1282 128 28 388 36 520 15 147 -24 265 -61
402 -127 285 -137 499 -335 634 -584 l41 -76 244 0 244 0 0 625 0 625 -245 0
-245 0 0 -211 0 -210 -72 58 c-288 231 -622 366 -1023 412 -82 10 -368 13
-440 5z"/>
<path d="M24860 25450 c-171 -24 -377 -99 -493 -179 -103 -70 -208 -184 -270
-291 -101 -176 -154 -462 -128 -697 35 -306 163 -512 426 -686 187 -123 332
-179 815 -316 300 -86 373 -110 470 -158 255 -126 360 -305 331 -565 -23 -203
-102 -340 -255 -440 -118 -77 -310 -113 -504 -96 -294 26 -551 209 -749 535
l-53 86 0 169 0 168 -235 0 -235 0 0 -695 0 -695 235 0 235 0 0 155 c0 85 2
155 5 155 3 0 32 -22 63 -48 189 -157 432 -269 664 -307 105 -17 316 -19 428
-5 528 69 888 408 961 905 15 106 12 347 -6 461 -39 243 -103 373 -260 530
-137 135 -312 238 -545 319 -58 20 -253 76 -435 125 -372 100 -475 134 -589
193 -159 84 -235 184 -258 343 -22 150 22 293 119 392 57 57 155 110 258 138
81 22 332 30 431 14 240 -38 462 -179 609 -385 l35 -50 0 -127 0 -128 230 0
230 0 0 575 0 575 -230 0 -230 0 0 -125 c0 -69 -2 -125 -5 -125 -2 0 -42 24
-87 54 -156 101 -312 169 -478 207 -98 23 -391 34 -500 19z"/>
<path d="M6832 25163 l3 -238 233 -3 232 -2 0 -1425 0 -1425 -232 -2 -233 -3
-3 -238 -2 -238 817 4 c696 3 836 7 937 21 312 44 537 118 733 243 89 56 240
214 292 306 97 172 136 351 128 577 -7 181 -30 280 -97 415 -101 203 -267 356
-482 443 -37 15 -68 29 -68 32 0 3 28 21 62 40 77 43 221 185 267 262 99 169
136 355 119 592 -31 432 -284 701 -770 816 -217 51 -260 53 -1126 57 l-812 4
2 -238z m1653 -258 c247 -43 411 -166 467 -350 28 -89 30 -249 5 -344 -59
-222 -227 -348 -515 -386 -65 -9 -196 -15 -334 -15 l-228 0 -2 555 -3 555 261
0 c189 0 286 -4 349 -15z m80 -1589 c203 -37 326 -90 426 -183 120 -113 164
-227 163 -428 0 -198 -40 -320 -136 -416 -110 -110 -237 -165 -458 -199 -41
-7 -211 -14 -377 -17 l-303 -5 0 637 0 637 298 -5 c211 -3 323 -9 387 -21z"/>
<path d="M10002 25163 l3 -238 243 -3 242 -2 0 -1425 0 -1425 -242 -2 -243 -3
-3 -237 -2 -238 1585 0 1585 0 0 585 0 585 -235 0 -235 0 0 -345 0 -345 -815
0 -815 0 0 620 0 620 708 2 707 3 3 238 2 237 -710 0 -710 0 0 565 0 565 815
0 815 0 0 -315 0 -315 235 0 235 0 0 555 0 555 -1585 0 -1585 0 2 -237z"/>
<path d="M17990 25160 l0 -240 205 0 205 0 0 -1425 0 -1425 -205 0 -205 0 0
-240 0 -240 700 0 700 0 0 240 0 240 -205 0 -205 0 0 1425 0 1425 205 0 205 0
0 240 0 240 -700 0 -700 0 0 -240z"/>
<path d="M19672 25163 l3 -238 273 -3 272 -2 0 -1425 0 -1425 -272 -2 -273 -3
-3 -237 -2 -238 780 0 780 0 0 240 0 240 -270 0 -270 0 0 1362 c0 1135 2 1359
13 1343 8 -11 418 -741 912 -1622 l899 -1603 298 0 298 0 0 1685 0 1685 275 0
275 0 0 240 0 240 -780 0 -780 0 2 -237 3 -238 273 -3 272 -2 0 -1236 c0 -679
-3 -1233 -7 -1231 -5 3 -381 667 -838 1476 l-830 1470 -653 1 -652 0 2 -237z"/>
<path d="M28272 25163 l3 -238 225 -3 225 -2 485 -1683 485 -1682 267 -3 266
-2 11 32 c6 18 191 674 411 1458 221 784 408 1450 417 1480 13 45 17 51 24 35
9 -22 849 -2989 849 -2999 0 -3 122 -5 272 -4 l272 3 480 1682 480 1683 220 2
221 3 0 235 0 235 -697 3 -698 2 0 -240 0 -240 220 0 c143 0 220 -4 220 -10 0
-13 -699 -2473 -704 -2478 -5 -4 20 -94 -361 1283 -180 648 -330 1185 -332
1192 -4 10 41 13 221 13 l226 0 0 240 0 240 -875 0 -875 0 0 -240 0 -240 226
0 226 0 -5 -22 c-38 -150 -692 -2466 -696 -2462 -2 2 -163 561 -355 1242
l-351 1237 227 3 228 2 0 240 0 240 -730 0 -730 0 2 -237z"/>
<path d="M34170 25160 l0 -240 205 0 205 0 0 -1425 0 -1425 -205 0 -205 0 0
-240 0 -240 700 0 700 0 -2 238 -3 237 -202 3 -203 2 0 1425 0 1425 205 0 205
0 0 240 0 240 -700 0 -700 0 0 -240z"/>
<path d="M35900 24705 l0 -695 235 0 235 0 0 455 0 455 390 0 390 0 0 -1425 0
-1425 -240 0 -240 0 0 -240 0 -240 775 0 775 0 0 240 0 240 -245 0 -245 0 0
1425 0 1425 395 0 395 0 0 -455 0 -455 235 0 235 0 0 695 0 695 -1545 0 -1545
0 0 -695z"/>
<path d="M39302 25163 l3 -238 213 -3 212 -2 0 -1425 0 -1425 -212 -2 -213 -3
-3 -237 -2 -238 730 0 730 0 0 240 0 240 -225 0 -225 0 0 650 0 650 830 0 830
0 0 -650 0 -650 -222 -2 -223 -3 -3 -237 -2 -238 730 0 730 0 -2 238 -3 237
-217 3 -218 2 0 1425 0 1425 220 0 220 0 0 240 0 240 -730 0 -730 0 0 -240 0
-240 225 0 225 0 0 -535 0 -535 -830 0 -830 0 0 535 0 535 225 0 225 0 0 240
0 240 -730 0 -730 0 2 -237z"/>
<path d="M15610 20800 c-261 -25 -559 -90 -795 -175 -269 -96 -622 -292 -840
-465 -567 -452 -945 -1079 -1070 -1770 -59 -329 -59 -620 0 -951 57 -316 194
-662 370 -935 l62 -96 -19 -81 c-28 -121 -101 -375 -147 -512 -452 -1362
-1327 -2507 -2279 -2983 -421 -210 -850 -275 -1167 -175 -418 132 -660 502
-752 1153 -25 176 -25 765 0 990 88 785 290 1597 600 2410 541 1422 1251 2394
1772 2427 114 8 180 -9 269 -67 174 -113 299 -285 343 -469 22 -94 20 -247 -6
-343 -104 -397 -486 -632 -866 -533 -64 17 -208 82 -255 115 -37 26 -44 25
-93 -9 -127 -87 -225 -213 -272 -347 -36 -104 -45 -274 -21 -379 82 -352 356
-594 721 -635 208 -23 445 -5 609 47 538 169 849 695 823 1393 -7 184 -27 319
-72 496 -105 409 -340 828 -587 1045 -292 257 -700 416 -1203 469 -150 16
-498 13 -665 -5 -437 -48 -839 -175 -1159 -364 -921 -545 -1748 -1864 -2130
-3396 -100 -403 -164 -787 -208 -1245 -25 -265 -25 -996 0 -1190 60 -472 154
-811 317 -1145 356 -731 992 -1203 1850 -1375 248 -50 405 -64 700 -64 615 1
1059 100 1530 340 1000 510 1859 1569 2418 2979 87 220 221 622 283 845 23 85
43 157 45 158 1 2 59 -45 127 -104 l125 -107 6 -176 c16 -448 40 -751 87
-1075 249 -1743 983 -2754 2107 -2901 137 -18 408 -21 507 -5 477 75 904 388
1274 935 499 736 856 1866 980 3100 39 382 45 526 46 970 0 445 -7 586 -45
938 -103 948 -370 1738 -764 2261 -163 216 -313 357 -543 509 -396 263 -821
419 -1313 482 -147 19 -562 28 -700 15z m698 -619 c155 -24 364 -77 501 -127
227 -84 483 -231 661 -379 390 -325 678 -882 825 -1595 39 -190 66 -372 92
-615 23 -216 26 -990 5 -1235 -114 -1329 -491 -2502 -1010 -3146 -246 -306
-510 -463 -782 -466 -116 -2 -183 13 -275 61 -284 147 -454 567 -527 1306 -14
143 -19 1149 -5 1198 6 21 13 27 36 27 16 0 81 9 144 20 624 108 1150 478
1510 1061 180 291 314 625 417 1035 58 231 52 314 -32 409 -111 126 -296 138
-419 27 -64 -57 -82 -94 -113 -228 -134 -577 -359 -1018 -673 -1314 -151 -143
-312 -247 -497 -320 -86 -34 -256 -80 -297 -80 l-25 0 18 173 c53 515 151
1175 272 1852 78 432 80 442 80 640 0 206 -21 330 -78 471 -174 429 -629 562
-1113 324 -387 -190 -686 -572 -802 -1025 -25 -98 -91 -485 -125 -730 -45
-322 -96 -826 -96 -945 0 -27 -3 -51 -8 -53 -4 -3 -32 29 -62 71 l-55 77 -7
98 c-5 76 -12 110 -32 152 -29 59 -55 80 -110 90 -26 5 -41 15 -51 34 -21 41
-93 255 -115 340 -125 496 -67 1027 164 1496 127 257 262 442 472 645 392 380
883 606 1454 669 138 16 504 5 658 -18z"/>
<path d="M33805 20429 c-145 -18 -327 -59 -475 -109 -1168 -390 -2302 -1656
-2870 -3205 -29 -77 -57 -147 -64 -155 -7 -8 -47 -85 -89 -170 -95 -193 -194
-328 -367 -500 -590 -586 -1637 -1020 -2680 -1110 -160 -14 -540 -13 -540 1 0
20 149 752 209 1029 272 1249 610 2500 786 2910 72 168 112 379 102 535 -21
306 -189 527 -475 623 -71 24 -91 26 -247 26 -155 0 -178 -2 -255 -26 -182
-57 -349 -153 -460 -267 -75 -77 -203 -250 -318 -431 -447 -701 -878 -1749
-1223 -2980 l-44 -154 -75 -81 c-380 -406 -929 -729 -1620 -953 -503 -163
-980 -242 -1466 -242 l-204 0 0 23 c0 12 34 189 74 392 290 1444 677 2940 907
3511 77 191 100 292 106 460 6 171 -9 259 -67 379 -83 173 -236 298 -426 351
-79 22 -276 30 -370 14 -179 -28 -376 -121 -527 -247 -90 -75 -298 -363 -467
-648 -622 -1045 -1203 -2804 -1569 -4750 -193 -1022 -348 -2176 -426 -3165
-76 -977 -90 -2115 -35 -2995 115 -1852 487 -3324 1092 -4329 367 -609 844
-1059 1367 -1291 216 -96 466 -167 706 -201 160 -23 580 -26 750 -6 521 63
980 395 1318 955 262 433 451 1012 546 1672 l28 190 43 -130 c293 -883 732
-1609 1237 -2047 537 -466 1134 -676 1853 -655 264 8 399 27 550 77 819 268
1386 1195 1589 2595 57 392 75 728 68 1264 -6 428 -11 523 -48 900 -136 1394
-548 2922 -1194 4426 -354 826 -766 1618 -1258 2423 -54 90 -98 164 -96 166 2
1 65 8 139 14 486 43 1060 182 1550 377 173 68 501 226 655 315 143 82 336
210 460 304 54 42 100 74 102 73 1 -2 -4 -66 -12 -142 -8 -76 -20 -256 -26
-400 -36 -811 91 -1547 362 -2086 243 -486 612 -852 1080 -1073 524 -247 1176
-313 1882 -190 927 160 1820 826 2530 1884 103 152 260 413 327 543 25 48 47
87 50 87 3 0 13 -64 23 -142 49 -399 155 -762 316 -1093 302 -617 796 -1036
1446 -1225 467 -136 1007 -151 1572 -45 638 121 1262 486 1833 1071 791 811
1396 1984 1724 3344 94 387 109 474 110 615 1 123 -1 133 -27 187 -34 70 -66
92 -132 92 -63 0 -126 -34 -185 -101 -77 -87 -106 -163 -165 -422 -132 -587
-292 -1042 -541 -1541 -603 -1209 -1524 -2088 -2404 -2297 -128 -30 -346 -41
-460 -24 -375 58 -685 295 -855 653 -118 249 -169 526 -163 878 l3 175 60 7
c306 39 554 118 850 272 702 363 1395 1048 1827 1806 482 846 760 1837 709
2524 -34 450 -157 732 -441 1016 -654 653 -1624 638 -2631 -41 -834 -563
-1574 -1534 -2014 -2643 -203 -513 -333 -1002 -414 -1566 -26 -185 -31 -202
-85 -335 -74 -180 -256 -552 -348 -714 -578 -1013 -1368 -1745 -2132 -1975
-281 -85 -537 -88 -771 -10 -423 141 -708 513 -799 1046 -23 133 -37 370 -30
499 l7 117 103 11 c410 46 894 265 1349 611 346 262 705 625 965 973 533 717
926 1698 1015 2535 30 285 15 606 -40 823 -70 277 -182 466 -407 685 -241 236
-521 381 -848 440 -104 19 -386 26 -495 13z m869 -900 c117 -43 240 -191 290
-344 68 -213 66 -588 -5 -950 -126 -636 -452 -1376 -835 -1893 -490 -660
-1161 -1172 -1739 -1328 -139 -37 -129 -45 -122 101 28 546 286 1469 647 2315
568 1330 1208 2156 1646 2125 33 -2 86 -14 118 -26z m6236 -11 c227 -109 334
-391 316 -828 -20 -490 -174 -1038 -455 -1615 -126 -258 -199 -388 -327 -580
-472 -711 -1232 -1322 -1841 -1480 -146 -38 -137 -44 -129 78 72 1111 833
3047 1553 3953 122 153 290 318 400 391 189 126 338 151 483 81z m-16396
-4225 c-185 -846 -383 -2095 -488 -3083 -63 -590 -123 -1473 -127 -1880 -1
-96 -14 -210 -18 -160 0 8 -33 114 -72 235 -420 1302 -1023 2610 -1788 3870
l-139 230 136 12 c821 74 1696 365 2367 788 83 51 151 94 151 95 1 0 -9 -48
-22 -107z m-3077 -1243 c1320 -2129 2160 -4409 2392 -6500 71 -631 80 -1340
26 -1865 -137 -1311 -597 -2162 -1263 -2331 -122 -31 -274 -33 -384 -5 -623
159 -1022 1181 -1197 3061 -139 1489 -119 3657 55 5900 56 732 160 1745 200
1968 8 40 -10 64 171 -228z m5301 -10 c1043 -1685 1781 -3450 2167 -5180 137
-613 223 -1212 266 -1850 16 -228 16 -871 0 -1075 -89 -1174 -396 -1997 -887
-2381 -192 -150 -393 -224 -607 -224 -224 0 -387 77 -564 264 -409 432 -682
1395 -812 2866 -45 506 -67 952 -83 1687 -26 1245 37 2917 167 4473 48 565
105 1118 157 1523 21 165 22 168 39 146 10 -13 80 -125 157 -249z"/>
</g>
</svg>
