<?xml version="1.0" standalone="no"?>
<!DOCTYPE svg PUBLIC "-//W3C//DTD SVG 20010904//EN"
 "http://www.w3.org/TR/2001/REC-SVG-20010904/DTD/svg10.dtd">
<svg version="1.0" xmlns="http://www.w3.org/2000/svg"
 width="3000.000000pt" height="3000.000000pt" viewBox="0 0 3000.000000 3000.000000"
 preserveAspectRatio="xMidYMid meet">

<g transform="translate(0.000000,3000.000000) scale(0.100000,-0.100000)"
fill="#000000" stroke="none">
<path d="M2171 26079 c-92 -11 -249 -52 -316 -83 -117 -54 -229 -166 -290
-291 -61 -122 -77 -205 -82 -420 -7 -244 11 -357 98 -622 153 -470 166 -693
99 -1618 -11 -148 -36 -515 -55 -815 -54 -834 -67 -943 -179 -1430 -93 -402
-108 -732 -45 -961 53 -193 169 -340 331 -418 173 -84 396 -117 604 -91 166
20 355 73 474 132 90 44 118 64 190 137 200 201 257 463 194 891 -15 101 -62
327 -84 400 -36 124 -87 431 -110 670 -5 58 -28 404 -50 770 -22 366 -50 802
-62 970 -28 401 -30 813 -5 955 27 149 64 287 113 418 81 218 105 349 105 577
0 300 -61 482 -210 631 -118 119 -254 176 -471 199 -108 11 -145 11 -249 -1z"/>
<path d="M5730 26079 c-25 -5 -77 -24 -116 -44 -337 -166 -415 -711 -213
-1495 51 -200 83 -374 106 -580 24 -224 24 -819 0 -1130 -52 -648 -120 -1185
-223 -1750 -156 -860 -149 -1223 29 -1473 114 -160 271 -243 529 -281 124 -19
201 -20 358 -5 544 50 853 285 911 694 22 154 -3 394 -76 724 -65 300 -97 660
-76 864 20 188 87 346 160 377 102 42 211 -118 275 -402 50 -221 60 -311 60
-518 -1 -162 -6 -233 -32 -420 -71 -516 -61 -771 38 -971 87 -176 201 -261
435 -326 92 -25 114 -27 275 -26 570 1 890 158 1006 493 113 325 49 880 -181
1567 -102 305 -386 1007 -495 1223 l-40 80 46 42 c240 221 383 457 469 772
106 392 107 934 0 1351 -97 378 -302 698 -584 910 -169 128 -411 230 -647 274
-288 54 -283 54 -1154 57 -456 1 -835 -2 -860 -7z m1635 -904 c77 -20 141 -62
209 -135 134 -145 192 -325 203 -625 7 -195 -5 -330 -43 -484 -102 -413 -324
-581 -598 -453 -168 79 -287 310 -331 640 -17 127 -19 379 -5 492 46 351 225
570 475 579 17 1 58 -6 90 -14z"/>
<path d="M10810 26080 c-841 -5 -845 -5 -911 -27 -137 -47 -243 -140 -304
-268 -69 -143 -89 -284 -82 -558 6 -234 24 -354 111 -732 151 -652 164 -997
71 -1855 -13 -124 -36 -340 -50 -480 -39 -381 -79 -687 -140 -1061 -101 -618
-127 -897 -107 -1138 32 -371 136 -535 397 -623 l70 -23 1040 -3 c1212 -4
1289 0 1498 73 233 81 445 295 602 610 104 208 118 282 140 770 15 314 -44
736 -141 1006 -63 175 -175 381 -252 462 -21 21 -54 47 -74 58 -36 18 -160 50
-246 63 -101 15 -252 -34 -341 -110 -124 -107 -285 -337 -409 -586 -119 -239
-210 -348 -315 -380 -24 -8 -94 -13 -167 -13 -105 0 -131 3 -165 20 -54 27
-99 97 -119 184 -25 110 -38 413 -27 623 23 420 73 577 203 642 87 44 183 35
453 -39 135 -37 242 -39 303 -7 95 50 171 157 206 288 23 83 31 253 17 344
-16 100 -61 196 -119 253 -104 101 -193 116 -407 72 -224 -47 -268 -54 -350
-54 -66 -1 -86 3 -117 22 -129 79 -191 328 -191 777 -1 287 30 476 97 608 66
129 209 198 431 209 193 10 328 -29 419 -121 61 -61 141 -228 211 -439 103
-316 183 -443 320 -512 51 -25 72 -30 135 -30 65 0 85 5 140 32 169 84 280
248 350 519 39 152 54 299 46 466 -21 454 -178 824 -395 931 l-66 32 -460 0
c-253 1 -840 -2 -1305 -5z"/>
<path d="M17795 26081 c-233 -39 -386 -130 -490 -291 -57 -89 -80 -148 -105
-270 -20 -94 -21 -127 -17 -305 5 -213 26 -347 81 -522 78 -247 114 -467 123
-743 8 -284 -26 -627 -98 -963 -173 -820 -223 -1197 -223 -1712 0 -301 10
-409 60 -634 155 -694 638 -1168 1347 -1320 324 -70 807 -72 1157 -5 252 48
507 180 681 354 271 270 457 674 521 1130 16 119 16 534 0 720 -29 319 -66
690 -102 1030 -63 586 -100 1089 -100 1351 0 290 32 487 125 764 91 271 110
375 110 605 0 110 -5 213 -13 255 -53 280 -209 479 -422 538 -237 66 -527 -18
-690 -201 -110 -122 -159 -278 -167 -528 -8 -237 15 -398 101 -715 74 -274
132 -665 148 -993 18 -380 -7 -955 -57 -1289 -58 -385 -159 -681 -294 -859
-80 -106 -168 -158 -299 -178 -218 -34 -396 78 -522 329 -139 277 -240 894
-240 1463 0 492 59 998 169 1458 88 368 122 659 102 875 -32 338 -146 525
-367 599 -134 46 -406 75 -519 57z"/>
<path d="M26400 26080 c-841 -5 -845 -5 -911 -27 -137 -47 -243 -140 -304
-268 -69 -143 -89 -284 -82 -558 6 -234 24 -354 111 -732 97 -418 130 -677
129 -1015 0 -255 -6 -334 -69 -940 -85 -829 -102 -967 -180 -1441 -101 -620
-126 -897 -106 -1138 32 -374 140 -541 402 -623 l75 -23 1105 0 c1029 0 1113
1 1215 19 232 39 381 112 530 261 162 161 319 429 370 630 39 153 63 596 46
835 -32 435 -136 797 -306 1061 -101 159 -160 194 -377 229 -126 20 -268 -21
-367 -106 -124 -107 -285 -337 -409 -586 -119 -239 -210 -348 -315 -380 -24
-8 -94 -13 -167 -13 -105 0 -131 3 -165 20 -54 27 -99 97 -119 184 -25 110
-38 413 -27 623 23 420 73 577 203 642 87 44 183 35 453 -39 135 -37 242 -39
303 -7 95 50 171 157 206 288 23 83 31 253 17 344 -16 100 -61 196 -119 253
-104 101 -193 116 -407 72 -224 -47 -268 -54 -350 -54 -66 -1 -86 3 -117 22
-129 79 -191 328 -191 777 -1 287 30 476 97 608 66 129 207 197 431 209 192
10 327 -29 419 -121 61 -61 141 -228 211 -439 103 -316 183 -443 320 -512 51
-25 72 -30 135 -30 65 0 85 5 140 32 169 84 280 248 350 519 39 152 54 299 46
466 -21 454 -178 824 -395 931 l-66 32 -460 0 c-253 1 -840 -2 -1305 -5z"/>
<path d="M13910 26070 c-115 -15 -238 -68 -309 -133 -39 -36 -96 -128 -124
-199 -47 -116 -58 -190 -64 -401 -8 -287 9 -421 106 -843 117 -512 152 -835
131 -1234 -26 -503 -115 -1242 -245 -2035 -70 -428 -99 -684 -111 -985 -19
-469 93 -699 409 -845 137 -63 214 -77 467 -82 467 -11 669 36 826 192 76 76
118 148 151 265 15 53 18 100 18 255 -1 215 -12 295 -95 670 -108 489 -166
957 -177 1430 -8 381 10 502 88 568 90 77 175 77 474 -3 158 -42 248 -40 316
7 133 92 194 222 206 438 13 247 -63 421 -218 501 -77 40 -173 37 -391 -10
-341 -73 -420 -59 -489 87 -46 98 -54 171 -54 512 0 332 8 427 51 594 60 230
136 319 315 366 79 21 262 24 339 6 198 -48 285 -161 402 -516 111 -338 198
-481 334 -545 50 -24 75 -30 132 -30 59 0 79 5 138 35 173 87 282 247 350 511
38 150 47 250 41 458 -5 218 -25 342 -83 509 -77 221 -185 377 -302 434 l-57
28 -1260 1 c-693 1 -1285 -2 -1315 -6z"/>
<path d="M22945 26069 c-291 -30 -499 -96 -716 -228 -146 -89 -245 -169 -381
-309 -260 -268 -397 -567 -439 -958 -28 -258 39 -667 157 -961 129 -321 480
-823 868 -1242 253 -273 412 -490 485 -664 37 -89 37 -208 0 -288 -34 -72 -91
-135 -136 -150 -67 -22 -182 7 -259 66 -43 33 -102 152 -164 329 -28 82 -64
175 -80 206 -46 91 -143 231 -215 308 -143 155 -342 199 -549 122 -134 -51
-257 -185 -361 -395 -104 -210 -139 -368 -139 -635 -1 -446 147 -872 437
-1259 86 -116 317 -350 407 -413 128 -91 345 -186 530 -233 190 -48 296 -59
565 -60 225 0 262 2 365 24 567 116 1093 508 1310 974 87 188 156 413 185 603
19 129 19 381 0 531 -54 412 -222 848 -446 1159 -151 210 -462 529 -824 845
-558 487 -804 743 -894 932 -31 66 -61 229 -61 335 0 158 75 298 209 386 89
59 175 87 287 94 134 7 190 -12 269 -91 49 -50 73 -87 122 -187 34 -69 78
-172 98 -230 21 -58 68 -169 107 -248 87 -178 150 -252 266 -310 146 -71 260
-45 398 92 84 85 131 165 178 306 49 149 66 238 73 376 7 146 -7 255 -47 376
-151 452 -549 738 -1112 798 -112 12 -375 11 -493 -1z"/>
<path d="M1920 18350 c-258 -26 -439 -142 -540 -346 -80 -161 -124 -433 -102
-628 27 -226 95 -400 196 -498 111 -109 228 -140 338 -91 103 47 167 150 253
413 26 80 67 184 91 231 94 189 144 197 180 28 14 -64 15 -135 10 -504 -6
-476 -29 -930 -76 -1510 -5 -66 -17 -235 -25 -375 -31 -527 -66 -801 -129
-1020 -54 -186 -69 -286 -69 -455 -1 -185 13 -258 70 -372 44 -89 134 -178
225 -222 35 -16 108 -42 163 -57 93 -26 114 -28 305 -28 186 -1 213 1 285 22
112 33 190 77 263 148 144 143 207 398 168 680 -8 61 -33 191 -56 289 -92 398
-107 541 -179 1720 -49 794 -56 955 -56 1315 0 360 7 435 44 481 26 32 51 18
99 -55 56 -85 91 -166 140 -322 99 -311 199 -427 367 -428 76 -1 145 35 225
114 92 92 164 269 191 467 29 220 -41 533 -160 715 -114 175 -269 264 -500
287 -117 12 -1600 13 -1721 1z"/>
<path d="M5702 18329 c-267 -34 -577 -207 -773 -430 -187 -214 -299 -399 -412
-684 -172 -431 -248 -862 -263 -1475 -24 -984 152 -1732 534 -2269 201 -283
502 -490 812 -559 95 -21 335 -23 435 -3 310 61 611 252 807 512 180 240 328
575 413 933 143 603 160 1614 39 2241 -131 677 -410 1196 -805 1494 -151 115
-371 209 -549 236 -103 16 -142 17 -238 4z m99 -588 c119 -75 249 -378 323
-751 59 -296 70 -435 71 -835 0 -301 -4 -393 -18 -495 -69 -485 -184 -674
-362 -591 -206 95 -360 582 -416 1311 -15 210 -7 679 15 820 47 291 124 477
225 542 59 37 104 37 162 -1z"/>
<path d="M9392 18330 c-125 -26 -230 -107 -280 -219 -49 -106 -65 -203 -65
-391 0 -189 17 -329 70 -550 113 -475 127 -596 120 -1045 -10 -610 -50 -977
-187 -1730 -95 -521 -120 -878 -75 -1089 40 -188 163 -339 316 -387 65 -20 83
-20 785 -17 768 4 833 8 1044 59 522 128 833 527 926 1189 20 145 30 549 15
678 -31 281 -117 521 -272 752 -68 101 -244 290 -346 372 -35 27 -63 53 -63
56 1 4 30 25 66 47 36 22 100 76 143 121 201 208 292 487 292 900 0 403 -98
657 -345 892 -177 168 -409 280 -712 344 -106 22 -126 22 -749 24 -352 1 -659
-2 -683 -6z m1385 -696 c132 -63 218 -243 230 -484 7 -130 -14 -261 -59 -369
-41 -99 -128 -190 -200 -210 -104 -29 -239 8 -315 87 -93 96 -133 223 -140
452 -5 172 7 260 50 354 79 173 270 247 434 170z m-14 -1892 c123 -66 227
-245 269 -462 19 -99 15 -396 -6 -504 -50 -258 -142 -432 -257 -490 -143 -71
-314 11 -402 195 -143 297 -156 792 -27 1066 53 113 157 202 264 223 56 11
102 3 159 -28z"/>
<path d="M13205 18330 c-589 -5 -590 -5 -648 -28 -204 -83 -289 -260 -290
-607 -1 -181 14 -298 69 -536 110 -480 119 -554 118 -934 0 -249 -4 -349 -22
-510 -12 -110 -35 -330 -52 -490 -38 -365 -69 -597 -125 -945 -67 -413 -78
-514 -79 -725 -1 -149 3 -208 17 -274 45 -210 132 -312 312 -368 56 -17 114
-18 940 -18 939 0 970 1 1123 50 206 65 391 250 517 518 65 136 82 222 96 482
18 337 -6 585 -86 859 -54 185 -185 419 -264 471 -53 35 -209 68 -286 61 -80
-8 -174 -54 -231 -112 -112 -116 -226 -284 -302 -446 -50 -108 -104 -190 -160
-245 -54 -53 -122 -75 -230 -75 -175 0 -224 61 -244 310 -13 165 -4 460 17
590 50 301 136 352 457 268 219 -58 291 -48 376 50 73 82 108 214 100 372 -7
119 -34 197 -91 260 -89 95 -163 105 -407 53 -179 -38 -263 -40 -310 -8 -96
65 -150 291 -150 622 0 310 56 508 163 582 71 48 135 65 274 70 282 12 373
-70 497 -450 84 -255 146 -351 262 -408 55 -28 71 -31 118 -26 282 29 465 458
405 952 -35 290 -163 546 -308 617 -46 23 -47 23 -516 23 -258 1 -735 -1
-1060 -5z"/>
<path d="M19832 18329 c-143 -18 -329 -87 -468 -175 -276 -171 -521 -478 -683
-854 -192 -448 -282 -915 -297 -1560 -24 -984 152 -1732 534 -2269 201 -283
502 -490 812 -559 95 -21 335 -23 435 -3 310 61 611 252 807 512 179 239 329
576 413 933 143 603 160 1614 39 2241 -131 677 -410 1196 -805 1494 -151 115
-371 209 -549 236 -103 16 -142 17 -238 4z m99 -588 c119 -75 250 -380 323
-751 59 -301 70 -436 71 -835 0 -301 -4 -393 -18 -495 -69 -485 -184 -674
-362 -591 -206 95 -360 582 -416 1311 -15 210 -7 679 15 820 47 291 124 477
225 542 59 37 104 37 162 -1z"/>
<path d="M22087 18329 c-129 -19 -244 -103 -301 -222 -57 -116 -70 -193 -70
-422 0 -239 9 -305 79 -590 117 -474 131 -812 64 -1605 -51 -613 -106 -995
-202 -1400 -53 -222 -71 -362 -71 -550 -1 -193 17 -296 69 -407 81 -173 241
-252 485 -240 181 9 296 53 396 152 65 65 104 134 129 230 27 106 19 220 -35
500 -62 324 -100 740 -107 1175 -11 668 49 996 162 890 104 -98 265 -963 265
-1419 0 -162 -13 -276 -50 -431 -40 -169 -50 -256 -50 -423 1 -291 64 -427
257 -550 139 -89 283 -131 448 -131 296 1 514 69 662 207 81 76 143 197 175
339 20 90 21 106 10 200 -6 57 -25 157 -42 223 -91 357 -88 581 16 1195 59
351 118 582 176 691 72 137 126 90 162 -141 29 -181 38 -382 33 -677 -6 -377
-29 -572 -132 -1138 -34 -186 -42 -365 -21 -465 46 -214 184 -363 385 -415 48
-12 96 -16 190 -13 120 3 129 5 196 38 102 50 200 150 253 260 58 119 74 202
75 390 1 179 -11 257 -79 519 -66 254 -91 422 -124 816 -58 701 -74 968 -74
1285 -1 391 17 563 94 870 81 324 107 535 90 736 -25 317 -120 460 -340 515
-43 11 -133 13 -405 11 -394 -3 -424 -7 -525 -73 -167 -108 -233 -245 -270
-560 -27 -233 -53 -382 -101 -578 -70 -291 -162 -534 -213 -565 -15 -9 -23 -4
-51 27 -101 116 -190 562 -215 1082 -15 321 -45 420 -159 529 -135 128 -236
147 -799 145 -207 -1 -403 -5 -435 -10z"/>
<path d="M26845 18330 c-589 -5 -590 -5 -648 -28 -204 -83 -289 -260 -290
-607 -1 -181 14 -298 69 -536 110 -480 119 -554 118 -934 0 -249 -4 -349 -22
-510 -12 -110 -35 -330 -52 -490 -38 -365 -69 -597 -125 -945 -67 -413 -78
-514 -79 -725 -1 -149 3 -208 17 -274 45 -210 132 -312 312 -368 56 -17 114
-18 940 -18 939 0 970 1 1123 50 206 65 391 250 517 518 65 136 82 222 96 482
18 337 -6 585 -86 859 -54 185 -185 419 -264 471 -53 35 -209 68 -286 61 -79
-8 -169 -52 -228 -110 -110 -111 -228 -283 -305 -448 -50 -108 -104 -190 -160
-245 -54 -53 -122 -75 -232 -75 -143 -1 -202 50 -232 199 -19 95 -16 577 5
696 54 308 136 357 459 273 219 -58 291 -48 376 50 73 83 107 208 99 369 -5
122 -32 199 -90 263 -89 95 -163 105 -407 53 -179 -38 -263 -40 -310 -8 -96
65 -150 291 -150 622 0 310 56 508 163 582 71 48 135 65 274 70 282 12 373
-70 497 -450 84 -255 146 -351 262 -408 55 -28 71 -31 118 -26 282 29 465 458
405 952 -35 290 -163 546 -308 617 -46 23 -47 23 -516 23 -258 1 -735 -1
-1060 -5z"/>
<path d="M16790 18316 c-144 -16 -211 -32 -365 -88 -205 -75 -365 -171 -495
-299 -397 -387 -623 -1071 -691 -2084 -22 -328 16 -880 86 -1255 176 -947 620
-1534 1257 -1664 139 -29 316 -39 482 -27 463 32 711 151 939 449 131 171 219
332 252 458 27 106 48 365 42 534 -11 306 -111 630 -260 842 -54 78 -93 105
-184 129 -148 38 -271 23 -366 -44 -111 -79 -236 -278 -292 -462 -30 -101 -87
-229 -113 -258 -28 -31 -91 -58 -148 -64 -74 -8 -149 29 -199 97 -98 133 -226
517 -284 851 -102 590 -80 1358 51 1759 45 140 140 297 210 346 41 29 173 64
242 64 71 0 156 -22 209 -53 91 -54 153 -155 227 -372 88 -254 167 -370 283
-413 82 -31 141 -29 215 8 168 84 275 287 289 550 15 265 -71 499 -252 685
-156 160 -345 256 -593 301 -119 21 -388 26 -542 10z"/>
<path d="M9175 12043 c-170 -24 -305 -115 -374 -252 -63 -123 -94 -337 -71
-486 27 -180 83 -298 173 -366 90 -67 162 -71 245 -15 58 40 92 100 149 268
91 268 154 347 193 243 12 -33 15 -102 14 -390 -1 -338 -9 -536 -39 -940 -8
-104 -21 -300 -30 -435 -26 -421 -49 -590 -106 -805 -88 -333 -41 -592 127
-704 135 -89 415 -122 606 -70 187 50 295 199 313 432 8 99 -5 202 -50 397
-37 157 -58 292 -75 465 -11 117 -52 742 -70 1060 -5 105 -15 270 -20 368 -23
404 -5 677 45 677 36 0 101 -117 155 -279 53 -160 89 -230 140 -274 45 -38
115 -61 158 -51 113 27 199 130 254 304 32 103 32 305 0 425 -48 175 -143 314
-257 372 -113 58 -95 57 -800 59 -357 1 -663 0 -680 -3z"/>
<path d="M13593 12033 c-63 -22 -135 -92 -166 -160 -46 -102 -54 -212 -31
-426 25 -241 26 -655 1 -799 -34 -194 -93 -296 -183 -314 -25 -5 -36 0 -62 25
-41 42 -67 115 -97 279 -45 238 -51 326 -34 496 31 330 14 591 -47 726 -31 68
-56 95 -116 126 -107 55 -234 67 -376 38 -239 -49 -371 -202 -388 -452 -12
-161 12 -248 110 -399 106 -164 149 -286 251 -698 146 -596 170 -740 169
-1040 0 -228 -9 -308 -65 -605 -17 -86 -22 -155 -23 -275 -1 -155 0 -162 28
-229 51 -121 162 -213 296 -247 78 -19 257 -17 359 4 215 46 346 139 401 284
31 81 37 243 16 383 -65 420 -35 830 103 1371 146 575 225 831 321 1037 83
180 101 253 102 422 2 145 -10 216 -47 290 -43 84 -132 146 -243 169 -75 16
-228 13 -279 -6z"/>
<path d="M2633 12026 c-182 -59 -273 -207 -273 -444 0 -116 8 -174 53 -412 27
-143 31 -187 32 -335 0 -189 -15 -281 -64 -390 -85 -188 -271 -153 -339 65
-27 87 -22 383 9 560 20 115 23 167 23 355 0 207 -2 226 -27 320 -30 112 -67
179 -116 212 -134 91 -374 97 -546 14 -111 -53 -178 -129 -222 -248 -47 -129
-41 -333 14 -487 14 -39 69 -163 123 -276 126 -265 174 -395 219 -600 39 -174
45 -264 46 -650 0 -410 -7 -501 -66 -826 -35 -197 -48 -399 -30 -486 26 -123
110 -236 213 -289 107 -54 336 -71 496 -35 157 34 306 114 372 197 63 80 85
161 85 314 -1 110 -5 146 -28 235 -50 186 -47 366 9 620 30 138 59 204 92 208
32 5 64 -71 99 -233 23 -109 27 -154 27 -285 0 -136 -3 -168 -26 -260 -37
-142 -48 -224 -48 -361 0 -186 35 -263 157 -346 74 -49 143 -76 253 -99 71
-14 96 -14 203 -4 143 15 219 36 302 85 108 64 166 146 206 292 27 96 23 210
-16 467 -72 485 -49 1131 51 1447 14 44 65 174 114 288 148 348 193 482 225
666 22 126 26 358 6 435 -44 176 -156 282 -313 296 -209 20 -369 -94 -432
-306 -31 -104 -39 -231 -26 -435 19 -300 -10 -655 -69 -845 -50 -161 -174
-178 -277 -39 -46 63 -69 124 -84 224 -21 136 12 399 75 604 54 175 68 265 62
410 -5 142 -14 179 -60 248 -33 49 -110 103 -177 124 -57 18 -278 21 -327 5z"/>
<path d="M7860 12025 c-166 -33 -302 -122 -359 -233 -36 -70 -51 -146 -61
-306 -18 -285 -53 -572 -111 -921 -53 -321 -85 -456 -266 -1120 -132 -486
-204 -816 -219 -997 -12 -155 22 -262 103 -324 58 -44 127 -57 282 -52 101 4
138 9 185 28 106 41 184 141 221 285 9 35 26 207 40 415 40 584 45 608 114
637 52 22 177 13 222 -15 65 -40 63 -25 70 -497 7 -467 15 -538 72 -666 57
-130 161 -178 400 -187 199 -7 351 23 473 95 137 79 223 267 211 458 -11 166
-73 409 -211 832 -178 546 -260 868 -365 1428 -46 244 -73 423 -96 624 -38
334 -132 468 -363 516 -82 18 -254 18 -342 0z m97 -1471 c62 -113 119 -534 80
-588 -29 -39 -191 -33 -233 9 -21 21 -24 34 -24 97 0 40 14 149 30 243 34 190
35 195 57 248 23 53 58 49 90 -9z"/>
<path d="M23210 12025 c-166 -33 -302 -122 -359 -233 -36 -70 -51 -146 -61
-306 -23 -352 -88 -841 -161 -1201 -22 -109 -112 -460 -216 -840 -131 -485
-204 -816 -219 -997 -12 -155 22 -262 103 -324 58 -44 127 -57 282 -52 101 4
138 9 185 28 106 41 183 141 221 285 9 36 26 203 40 415 40 583 45 608 114
637 52 22 177 13 222 -15 65 -40 63 -25 70 -497 6 -334 10 -447 23 -504 26
-121 18 -113 84 -84 90 40 276 84 382 90 79 4 114 1 206 -20 132 -30 198 -59
281 -120 l62 -46 20 25 c34 44 72 132 88 207 35 167 -16 416 -201 984 -178
546 -260 868 -365 1428 -46 244 -73 423 -96 624 -38 334 -132 468 -363 516
-82 18 -254 18 -342 0z m97 -1471 c62 -113 119 -534 80 -588 -29 -39 -191 -33
-233 9 -21 21 -24 34 -24 97 0 40 14 149 30 243 34 190 35 195 57 248 23 53
58 49 90 -9z"/>
<path d="M4717 12009 c-98 -28 -137 -51 -195 -113 -131 -144 -148 -392 -47
-707 65 -203 79 -315 72 -594 -3 -126 -15 -349 -26 -495 -11 -146 -25 -348
-31 -450 -18 -324 -34 -437 -115 -805 -21 -94 -27 -150 -28 -260 -2 -158 9
-218 56 -308 100 -191 358 -263 654 -182 115 31 182 64 243 121 149 139 169
354 70 754 -54 220 -77 423 -86 775 l-7 240 26 30 25 30 169 3 c216 5 285 -2
321 -33 26 -22 27 -28 30 -137 8 -229 -29 -638 -74 -833 -58 -252 -65 -296
-71 -421 -10 -227 36 -352 167 -448 75 -55 144 -82 269 -103 228 -39 465 41
568 191 57 83 78 170 77 321 -2 145 -10 209 -59 470 -88 460 -131 868 -144
1365 -9 388 6 540 79 774 47 151 65 277 57 404 -18 295 -156 432 -438 432
-105 0 -217 -23 -290 -60 -63 -32 -142 -112 -171 -172 -40 -82 -53 -152 -52
-278 1 -123 9 -176 55 -340 43 -153 59 -264 66 -447 l6 -163 -35 -14 c-49 -21
-562 -28 -595 -8 -37 20 -46 80 -40 247 7 164 26 266 77 404 45 122 60 207 60
339 0 278 -93 421 -307 477 -82 22 -250 19 -336 -6z"/>
<path d="M15040 12009 c-93 -24 -224 -86 -305 -143 -84 -60 -231 -217 -298
-318 -114 -170 -225 -439 -282 -682 -107 -453 -111 -1155 -9 -1641 73 -346
244 -695 434 -885 266 -266 589 -349 923 -236 140 48 244 113 358 226 274 269
432 698 480 1301 16 208 7 775 -15 939 -73 532 -250 941 -519 1196 -232 221
-512 310 -767 243z m163 -407 c85 -57 184 -284 236 -547 116 -577 53 -1314
-120 -1409 -49 -27 -99 -16 -154 35 -109 100 -193 367 -242 769 -25 208 -25
636 1 775 56 307 164 452 279 377z"/>
<path d="M16850 12011 c-79 -25 -109 -43 -158 -92 -55 -56 -98 -145 -113 -233
-18 -107 -6 -290 26 -411 81 -298 101 -462 85 -670 -13 -165 -24 -232 -80
-515 -136 -680 -144 -1087 -26 -1401 48 -129 112 -233 200 -327 97 -102 174
-158 300 -218 167 -79 351 -114 596 -114 424 1 671 112 845 380 160 246 219
507 195 859 -6 86 -24 289 -41 451 -63 623 -70 702 -75 930 -7 275 3 364 65
549 56 165 65 220 65 361 0 194 -40 308 -136 395 -67 61 -126 78 -243 73 -78
-3 -102 -8 -156 -35 -109 -54 -173 -132 -203 -245 -37 -144 -28 -311 30 -535
85 -329 113 -625 95 -998 -16 -331 -42 -500 -102 -681 -68 -208 -158 -302
-298 -312 -242 -17 -374 248 -422 849 -22 278 16 752 81 1009 46 182 62 288
67 440 6 171 -2 232 -43 320 -46 101 -111 150 -233 176 -93 19 -252 17 -321
-5z"/>
<path d="M20990 12016 c-104 -14 -224 -50 -346 -106 -383 -173 -630 -635 -723
-1350 -32 -245 -44 -459 -37 -635 36 -874 255 -1440 662 -1711 45 -30 86 -54
91 -54 6 0 13 12 16 28 9 42 72 108 130 136 28 14 102 38 162 53 99 25 127 28
275 27 147 0 176 -3 264 -27 100 -27 180 -67 237 -119 24 -22 34 -26 49 -18
57 31 234 268 285 384 75 169 91 498 36 729 -58 244 -172 436 -277 466 -127
37 -228 20 -308 -50 -58 -52 -138 -172 -166 -252 -93 -265 -118 -297 -228
-297 -91 0 -145 57 -211 225 -133 341 -198 802 -172 1232 19 303 54 480 124
621 73 149 146 197 295 195 86 -1 167 -35 206 -86 34 -44 79 -139 106 -222 32
-99 92 -215 132 -252 66 -64 160 -81 233 -42 103 54 164 150 197 308 18 85 19
107 10 198 -34 313 -249 537 -586 609 -99 22 -328 26 -456 10z"/>
<path d="M25100 12023 c-197 -33 -317 -155 -350 -355 -24 -151 -7 -298 58
-498 61 -189 76 -311 68 -565 -3 -115 -13 -295 -21 -400 -8 -104 -21 -302 -30
-440 -22 -380 -39 -514 -95 -791 -66 -324 -73 -475 -29 -633 29 -103 59 -159
111 -207 89 -82 57 -79 813 -79 619 0 676 1 750 19 147 34 244 97 337 220 69
91 130 207 153 292 11 42 18 123 22 289 8 343 -23 520 -132 741 -85 174 -146
217 -305 219 -65 0 -82 -4 -128 -30 -89 -49 -189 -181 -296 -391 -63 -125
-126 -195 -192 -213 -57 -16 -146 -14 -171 4 -74 52 -104 395 -107 1210 -1
577 -3 561 69 771 53 155 65 217 65 344 0 172 -29 271 -107 367 -40 50 -150
108 -232 123 -52 10 -201 12 -251 3z"/>
<path d="M27440 12023 c-197 -33 -317 -155 -350 -355 -24 -151 -7 -298 58
-498 23 -69 48 -176 58 -240 21 -142 16 -342 -20 -865 -14 -198 -30 -432 -36
-520 -11 -170 -44 -402 -84 -594 -62 -291 -68 -455 -25 -610 29 -103 59 -159
111 -207 89 -82 57 -79 813 -79 619 0 676 1 750 19 147 34 244 97 337 220 69
91 130 207 153 292 11 42 18 123 22 289 8 343 -23 520 -132 741 -85 174 -146
217 -305 219 -65 0 -82 -4 -128 -30 -89 -49 -189 -181 -296 -391 -63 -125
-126 -195 -192 -213 -57 -16 -146 -14 -171 4 -74 52 -104 395 -107 1210 -1
577 -3 561 69 771 53 155 65 217 65 344 0 172 -29 271 -107 367 -40 50 -150
108 -232 123 -52 10 -201 12 -251 3z"/>
<path d="M23825 8175 c-191 -36 -386 -144 -563 -310 -370 -348 -622 -933 -711
-1655 -20 -159 -41 -460 -41 -581 l0 -59 158 0 159 0 89 62 c742 513 1369
1313 1488 1899 23 113 30 235 17 304 -47 257 -294 397 -596 340z"/>
<path d="M21036 8154 c-43 -8 -98 -23 -121 -33 -41 -18 -42 -20 -49 -77 -20
-178 -133 -458 -441 -1094 -444 -916 -591 -1245 -715 -1598 -33 -94 -34 -94
-155 -215 -163 -164 -273 -227 -318 -182 -57 57 30 277 326 827 235 435 268
518 233 586 -60 117 -399 159 -635 79 -70 -24 -66 -18 -91 -127 -7 -30 -19
-72 -28 -93 l-15 -38 -39 73 c-97 179 -227 322 -347 381 -126 62 -283 48 -466
-43 -132 -66 -246 -153 -380 -291 -175 -181 -315 -381 -439 -626 -38 -75 -86
-147 -158 -238 -259 -323 -458 -505 -553 -505 -72 0 -49 74 168 550 139 305
197 511 197 702 0 220 -78 366 -237 446 -89 45 -154 57 -288 56 -99 -1 -136
-6 -208 -28 -165 -49 -324 -145 -467 -282 l-77 -74 -6 63 c-20 210 -142 304
-417 323 -363 25 -733 -204 -1040 -643 -24 -35 -45 -61 -47 -60 -1 2 11 36 27
76 66 160 95 342 66 399 -46 89 -229 153 -481 169 l-102 6 -6 -74 c-14 -164
-90 -398 -251 -773 -73 -170 -93 -207 -162 -296 -296 -387 -565 -617 -637
-545 -57 56 31 272 338 831 177 320 227 424 254 524 54 195 0 291 -179 321
-91 15 -150 7 -392 -55 -214 -55 -385 -86 -473 -86 l-47 0 7 33 c11 48 40 100
100 178 72 93 89 152 61 208 -55 106 -266 206 -478 226 l-75 7 -8 -38 c-10
-54 -43 -115 -124 -229 -40 -55 -84 -124 -98 -154 -31 -62 -40 -146 -24 -207
24 -90 117 -187 235 -244 l45 -21 -45 -97 c-212 -457 -456 -801 -698 -984 -84
-64 -197 -123 -255 -134 -31 -7 -34 -5 -26 12 106 253 164 559 151 790 -22
405 -160 662 -421 789 -203 99 -510 107 -763 21 -390 -133 -722 -503 -885
-986 -32 -93 -46 -117 -121 -215 -233 -301 -454 -505 -549 -505 -64 0 -41 95
100 405 164 361 221 522 249 710 36 229 -17 430 -140 529 -99 80 -201 111
-366 110 -178 0 -327 -51 -509 -171 -118 -79 -309 -267 -417 -412 -49 -66 -90
-118 -91 -117 -1 1 11 35 27 75 66 160 95 342 66 399 -46 89 -229 153 -481
169 l-102 6 -6 -74 c-14 -169 -91 -402 -264 -803 -219 -508 -286 -687 -317
-855 -32 -167 -14 -315 56 -461 33 -70 56 -100 127 -170 58 -58 109 -97 156
-122 89 -46 202 -80 251 -76 l38 3 13 115 c82 734 410 1458 804 1773 131 105
271 167 381 167 39 0 50 -4 68 -27 20 -25 22 -36 17 -96 -10 -121 -70 -276
-335 -867 -188 -421 -223 -532 -204 -660 21 -144 77 -246 177 -322 74 -56 144
-80 251 -86 78 -4 98 -1 145 19 211 88 512 401 810 844 53 79 54 80 60 50 4
-16 7 -52 8 -80 4 -172 74 -396 166 -535 179 -269 534 -379 905 -279 235 63
495 247 680 483 71 90 77 96 120 101 181 26 371 104 516 213 203 154 419 419
561 692 28 52 86 156 130 230 43 74 106 182 138 240 32 58 59 106 60 108 1 1
58 -8 126 -22 68 -14 157 -28 197 -32 39 -4 72 -7 72 -9 0 -5 -120 -266 -205
-445 -216 -454 -320 -702 -371 -885 -24 -85 -29 -118 -28 -220 0 -101 4 -130
24 -180 50 -130 114 -200 235 -257 56 -25 83 -32 159 -35 77 -4 100 -2 149 17
169 64 383 265 624 587 l88 117 6 -80 c8 -112 25 -176 71 -274 34 -70 55 -100
127 -170 58 -58 109 -97 156 -122 89 -46 202 -80 251 -76 l38 3 13 115 c82
734 410 1458 804 1773 131 105 271 167 381 167 39 0 50 -4 68 -27 20 -25 22
-36 17 -96 -10 -121 -70 -276 -335 -867 -125 -279 -176 -410 -199 -513 -51
-225 115 -468 369 -542 32 -9 74 -15 95 -13 34 3 38 6 41 33 15 164 74 478
121 640 63 221 275 701 373 848 190 285 405 470 605 522 83 22 138 20 164 -6
20 -20 21 -29 16 -98 -9 -127 -73 -295 -327 -861 -179 -398 -215 -509 -207
-640 6 -108 27 -173 80 -252 48 -72 118 -128 197 -160 44 -18 75 -22 160 -23
102 0 107 1 176 37 173 90 373 291 620 623 l89 120 1 -170 c0 -196 15 -279 68
-392 79 -166 219 -257 417 -270 102 -7 157 8 264 70 118 68 233 163 393 325
l152 155 0 -50 c0 -168 111 -343 262 -413 77 -35 194 -53 257 -39 67 15 145
56 229 119 84 63 253 233 347 348 l60 73 7 -73 c20 -201 83 -319 210 -395 118
-71 328 -95 438 -50 225 93 510 401 874 946 175 262 358 560 351 572 -24 37
-143 56 -200 31 -19 -8 -61 -55 -117 -131 -201 -271 -395 -480 -503 -542 -67
-39 -125 -40 -154 -3 -18 22 -21 41 -21 115 0 287 188 769 790 2024 306 638
388 834 376 899 -7 36 -53 85 -104 111 -88 44 -298 57 -456 29z m-10689 -1943
c64 -32 109 -91 134 -172 40 -133 15 -366 -66 -609 -38 -114 -114 -274 -130
-274 -18 0 -106 118 -140 189 -58 122 -70 181 -69 360 0 175 14 250 72 390 63
151 61 148 114 142 26 -3 64 -15 85 -26z m8414 -187 c20 -10 38 -32 51 -60 18
-41 19 -52 8 -117 -17 -97 -51 -189 -122 -329 -181 -357 -476 -693 -650 -739
-118 -32 -188 60 -175 229 19 266 251 684 486 878 154 128 316 183 402 138z
m-9136 -240 c-63 -241 -30 -521 87 -717 48 -82 141 -179 221 -232 l57 -38 -39
-23 c-161 -91 -342 -97 -442 -15 -46 38 -94 130 -110 209 -33 170 27 483 133
697 39 79 101 185 105 181 2 -2 -3 -30 -12 -62z"/>
<path d="M22318 5195 c-239 -58 -449 -254 -523 -488 -48 -149 -43 -271 14
-394 117 -248 459 -315 751 -146 80 47 233 197 278 275 130 221 120 474 -25
629 -90 97 -198 140 -346 138 -51 0 -118 -7 -149 -14z"/>
</g>
</svg>
