<?xml version="1.0" standalone="no"?>
<!DOCTYPE svg PUBLIC "-//W3C//DTD SVG 20010904//EN"
 "http://www.w3.org/TR/2001/REC-SVG-20010904/DTD/svg10.dtd">
<svg version="1.0" xmlns="http://www.w3.org/2000/svg"
 width="5000.000000pt" height="5000.000000pt" viewBox="0 0 5000.000000 5000.000000"
 preserveAspectRatio="xMidYMid meet">

<g transform="translate(0.000000,5000.000000) scale(0.100000,-0.100000)"
fill="#000000" stroke="none">
<path d="M35484 40045 l-441 -225 -184 -306 -183 -306 -12 -96 c-40 -301 -38
-517 6 -689 18 -68 28 -85 137 -223 l118 -149 147 -67 147 -67 93 -141 c119
-181 228 -292 395 -404 121 -82 121 -82 132 -132 15 -72 13 -214 -4 -288 -8
-35 -33 -104 -54 -155 -50 -117 -115 -307 -142 -411 -52 -202 8 -355 169 -432
44 -22 76 -29 143 -32 76 -4 102 0 200 28 62 18 119 40 126 49 7 9 45 63 85
121 50 72 129 163 253 290 196 200 275 292 407 470 110 148 293 427 318 484
30 65 57 193 80 371 30 232 54 324 113 435 l50 95 8 130 c4 72 13 210 19 308
18 281 -6 442 -96 648 -56 130 -229 446 -283 519 l-48 65 -325 168 -325 167
-304 0 -304 -1 -441 -224z"/>
<path d="M32060 39123 c-196 -8 -472 -51 -635 -99 -278 -81 -426 -210 -502
-439 -22 -69 -27 -102 -31 -241 -5 -192 2 -250 73 -614 221 -1127 335 -2059
385 -3145 15 -326 22 -1059 13 -1304 l-8 -214 -199 253 c-1160 1476 -2163
2957 -3144 4640 -107 184 -217 369 -245 410 -307 459 -600 611 -1100 571 -195
-16 -1476 -168 -1572 -186 -191 -38 -312 -134 -350 -280 -31 -119 -17 -240 60
-520 111 -406 156 -733 176 -1295 9 -261 6 -789 -21 -3085 -17 -1523 -35
-2801 -40 -2840 -22 -160 -63 -252 -252 -565 -152 -252 -173 -303 -173 -425 0
-115 22 -162 121 -254 146 -136 375 -237 649 -287 143 -26 493 -26 660 0 261
40 491 113 696 218 319 164 442 359 410 651 -6 50 -29 187 -50 303 -155 817
-238 1508 -291 2409 -28 468 -23 1425 10 1960 25 388 98 1138 119 1211 9 29 9
28 39 -37 50 -108 305 -597 440 -844 885 -1622 1976 -3163 3211 -4535 419
-466 823 -877 964 -982 291 -215 570 -245 811 -88 195 128 331 334 391 594 39
168 38 163 40 1681 1 1410 4 1640 35 2450 24 613 61 1307 101 1880 47 685 104
976 249 1272 66 135 153 256 311 433 204 229 290 353 333 482 62 185 9 357
-152 491 -163 136 -580 283 -970 342 -105 16 -389 36 -457 33 -22 -1 -69 -3
-105 -5z"/>
<path d="M4435 39089 c-467 -49 -757 -298 -705 -607 15 -92 60 -190 158 -349
220 -358 337 -697 401 -1168 53 -391 58 -620 72 -3255 11 -2302 10 -2396 -27
-2610 -46 -261 -87 -362 -282 -688 -188 -316 -237 -455 -230 -657 3 -98 7
-117 34 -175 57 -119 146 -196 292 -253 326 -126 844 -116 1732 34 162 28 333
57 380 64 47 8 333 39 635 70 792 80 1181 130 1595 206 1753 322 2771 1006
3430 2304 341 671 576 1498 665 2340 22 206 31 738 16 946 -60 814 -280 1496
-671 2073 -266 392 -629 752 -1035 1023 -706 471 -1526 713 -2421 713 -627 0
-1226 -108 -1824 -331 -260 -96 -285 -103 -380 -103 -97 0 -158 19 -390 122
-349 155 -779 266 -1165 302 -123 11 -164 11 -280 -1z m3735 -1417 c369 -66
627 -205 890 -479 340 -353 536 -811 616 -1438 64 -511 24 -1582 -82 -2165
-117 -643 -338 -1142 -682 -1540 -278 -321 -603 -524 -1067 -664 -238 -72
-347 -90 -560 -90 -206 0 -247 8 -350 69 -222 130 -266 570 -163 1615 22 222
22 249 28 2360 l5 2135 25 45 c29 52 105 103 179 119 42 10 356 45 491 55 30
2 168 2 305 1 200 -2 273 -7 365 -23z"/>
<path d="M41890 38773 c-865 -23 -1733 -64 -2075 -99 -243 -24 -428 -68 -581
-139 -401 -184 -655 -581 -738 -1156 -59 -402 -26 -1003 71 -1313 123 -392
413 -567 784 -472 114 29 185 60 281 122 209 135 335 292 588 734 205 361 291
480 451 636 174 168 371 264 540 264 78 0 123 -24 145 -77 13 -29 38 -539 134
-2667 66 -1447 124 -2744 130 -2882 20 -478 -20 -801 -129 -1053 -20 -47 -83
-162 -140 -256 -223 -367 -311 -607 -298 -812 14 -227 176 -363 512 -430 128
-25 773 -25 1010 0 590 64 1270 224 1549 364 227 114 335 246 344 420 6 106
-14 171 -123 408 -387 842 -581 1731 -655 2995 -24 416 -32 956 -33 2214 -2
1260 -1 1345 16 1411 47 186 136 289 282 331 164 46 397 -33 537 -184 104
-113 169 -230 287 -519 88 -215 133 -305 210 -419 152 -225 338 -391 552 -493
150 -71 209 -85 364 -86 109 0 142 4 205 23 101 32 172 70 255 135 117 91 197
195 275 360 92 191 130 397 130 696 0 277 -38 711 -80 916 -80 389 -252 630
-555 780 -252 124 -494 170 -1065 199 -811 43 -1394 56 -2315 54 -423 -1 -813
-3 -865 -5z"/>
<path d="M18180 38469 c-908 -74 -1719 -370 -2393 -875 -433 -325 -819 -719
-1179 -1204 -649 -876 -1040 -1877 -1119 -2863 -17 -221 -7 -698 20 -907 99
-767 382 -1467 818 -2027 454 -583 1053 -1004 1758 -1235 729 -238 1617 -308
2855 -223 1700 117 2790 504 3545 1260 639 638 1025 1545 1119 2627 93 1066
-119 2271 -554 3138 -185 369 -358 609 -645 895 -310 309 -653 551 -1110 781
-705 355 -1491 573 -2284 634 -157 12 -678 11 -831 -1z m210 -1325 c646 -55
984 -133 1320 -305 375 -192 662 -499 880 -944 245 -499 381 -1102 489 -2156
36 -348 44 -532 38 -865 -6 -343 -21 -500 -73 -745 -149 -710 -557 -1295
-1092 -1567 -410 -209 -866 -243 -1582 -116 -688 122 -1192 325 -1585 641
-633 508 -936 1308 -912 2408 16 743 187 1429 521 2090 226 446 462 777 801
1124 306 313 463 417 676 450 76 12 278 6 519 -15z"/>
<path d="M3692 28375 c-73 -20 -107 -40 -151 -85 -70 -72 -125 -202 -156 -369
-46 -252 22 -429 199 -512 90 -42 134 -48 420 -55 360 -10 355 -7 407 -267 78
-393 99 -1213 54 -2192 -7 -176 -19 -475 -25 -665 -14 -464 -29 -873 -40
-1115 -18 -410 -54 -444 -475 -445 -308 -1 -385 -37 -474 -223 -59 -124 -75
-199 -74 -352 2 -271 81 -435 238 -494 110 -41 169 -52 435 -76 858 -79 1336
-91 1770 -44 309 33 473 119 516 267 13 45 15 82 10 186 -11 245 -61 445 -129
522 -60 69 -117 85 -377 103 -74 5 -156 17 -181 26 -132 46 -188 164 -224 472
-21 182 -19 384 10 723 40 485 75 1183 75 1511 0 118 -7 313 -16 434 -28 366
-23 1136 7 1083 9 -17 6 -7 419 -1218 530 -1553 607 -1781 724 -2147 410
-1273 717 -1901 1039 -2122 247 -169 487 -90 756 248 226 284 361 576 566
1231 242 771 459 1533 714 2503 143 544 269 997 391 1410 149 503 144 489 167
504 21 14 22 12 53 -83 39 -122 64 -267 86 -509 28 -288 26 -1274 -4 -1895
-12 -250 -28 -651 -36 -890 -23 -649 -24 -679 -42 -875 -19 -211 -37 -267
-101 -309 -57 -38 -122 -46 -358 -46 -187 0 -221 -2 -280 -21 -90 -27 -148
-85 -203 -200 -57 -117 -76 -221 -69 -373 10 -244 69 -390 179 -447 151 -77
560 -138 933 -139 77 0 228 -7 335 -16 490 -41 1180 1 1362 83 74 33 140 104
164 176 35 102 18 287 -51 553 -53 202 -122 249 -391 264 -170 10 -191 14
-255 46 -92 46 -149 136 -191 299 -37 147 -31 551 22 1400 45 723 50 1234 15
1720 -33 463 -11 1147 41 1270 26 64 66 74 354 84 245 10 293 19 372 71 52 35
89 84 121 161 19 48 22 71 21 199 -3 285 -42 383 -182 454 -125 63 -239 79
-475 66 -330 -19 -812 -28 -979 -19 -196 10 -356 30 -532 66 -108 22 -158 27
-281 27 -218 1 -322 -31 -421 -129 -85 -84 -116 -162 -183 -460 -32 -143 -156
-620 -274 -1060 -119 -440 -318 -1180 -442 -1645 -125 -465 -303 -1127 -396
-1472 -93 -345 -169 -639 -169 -653 0 -34 -15 -62 -41 -75 -18 -10 -22 -5 -50
55 -16 36 -68 213 -115 393 -333 1277 -619 2222 -1248 4127 -92 281 -162 508
-172 565 -22 121 -44 169 -106 225 -109 98 -316 142 -528 111 -91 -13 -204
-17 -540 -18 l-425 -2 -395 43 c-453 49 -638 58 -718 36z"/>
<path d="M39035 28334 c-38 -2 -187 -8 -330 -14 -512 -21 -1312 -70 -1390 -85
-115 -22 -179 -55 -204 -108 -44 -91 -52 -283 -21 -472 25 -144 65 -239 123
-292 115 -103 344 -149 802 -160 276 -6 297 -11 325 -77 31 -71 42 -228 51
-756 4 -283 13 -607 18 -720 9 -188 3 -526 -14 -720 -3 -36 -17 -250 -30 -477
-42 -689 -91 -1039 -200 -1418 -85 -298 -135 -395 -271 -532 -79 -80 -104 -98
-195 -142 -171 -84 -414 -128 -652 -118 -112 4 -157 11 -297 47 -232 59 -387
112 -515 175 -286 140 -395 307 -541 825 -40 141 -50 193 -88 440 -107 692
-129 1069 -130 2290 -1 1148 -7 1108 164 1140 30 6 132 15 225 20 256 15 401
50 523 130 150 96 226 271 239 546 5 115 3 139 -15 200 -25 83 -74 145 -141
179 -84 42 -192 55 -576 71 -371 14 -797 9 -1275 -17 -113 -5 -402 -9 -642 -7
-431 3 -437 3 -465 -18 -66 -49 -83 -122 -83 -359 -1 -251 34 -385 125 -484
101 -109 208 -142 578 -180 213 -22 249 -34 281 -96 19 -38 20 -55 18 -599 -1
-309 -5 -646 -8 -751 -9 -299 15 -1054 47 -1440 41 -504 142 -1114 240 -1445
92 -310 256 -631 443 -865 76 -95 244 -264 336 -338 234 -189 509 -326 803
-402 200 -51 341 -68 567 -68 682 0 1287 238 1653 651 281 316 524 894 646
1537 86 450 121 789 151 1465 6 129 19 411 30 625 32 649 33 716 16 1093 -19
416 -21 568 -7 605 7 17 24 34 45 42 36 15 201 49 321 66 175 24 272 65 356
148 87 88 124 184 135 346 14 210 -49 351 -188 421 -100 51 -402 92 -713 98
-110 2 -231 2 -270 0z"/>
<path d="M41125 28276 c-190 -46 -271 -168 -321 -486 -29 -184 -3 -297 91
-398 102 -110 199 -142 435 -141 80 0 179 4 220 9 130 15 207 -16 249 -99 20
-38 60 -201 85 -341 63 -352 92 -1000 82 -1835 -23 -1853 -25 -1963 -40 -2108
-16 -164 -31 -207 -86 -244 -54 -37 -95 -44 -295 -53 -212 -9 -254 -14 -339
-37 -79 -23 -140 -79 -188 -174 -60 -119 -73 -183 -72 -344 1 -243 41 -386
131 -465 73 -64 156 -85 543 -142 41 -6 201 -11 355 -13 154 -1 424 -5 600
-10 415 -10 732 13 1037 74 292 59 364 199 289 566 -16 83 -35 179 -41 214 -6
36 -20 81 -30 101 -23 44 -81 97 -128 117 -57 24 -190 43 -298 43 -115 0 -179
16 -246 60 -109 73 -159 218 -193 565 -15 153 -14 183 10 680 15 292 31 537
38 560 21 71 56 76 347 49 219 -21 754 -24 960 -5 676 59 1392 264 1742 498
412 275 698 733 789 1263 19 109 16 345 -6 460 -22 122 -118 414 -182 555
-102 226 -247 448 -378 580 -228 230 -485 335 -1050 429 -334 56 -589 75
-1115 83 -431 6 -757 -7 -1228 -48 -244 -21 -547 -25 -743 -9 -798 64 -927 70
-1024 46z m3460 -1030 c239 -30 547 -104 719 -173 364 -145 606 -336 676 -536
52 -147 7 -371 -127 -630 -154 -299 -549 -512 -1168 -631 -273 -52 -379 -60
-800 -58 -386 2 -515 -4 -691 -34 -82 -14 -95 -14 -128 0 -54 23 -63 54 -76
272 -11 200 -19 304 -50 689 -11 132 -20 260 -21 285 -1 60 21 606 27 647 6
38 45 88 87 109 30 16 224 35 677 69 241 17 702 13 875 -9z"/>
<path d="M21360 28269 c-574 -70 -1154 -360 -1614 -808 -255 -249 -412 -523
-473 -828 -27 -136 -24 -433 6 -573 71 -335 230 -624 500 -912 300 -320 614
-463 1335 -609 460 -92 832 -191 1026 -274 294 -124 572 -327 722 -529 170
-228 246 -531 189 -756 -60 -238 -204 -410 -436 -521 -192 -92 -333 -114 -655
-106 -427 12 -808 78 -1130 195 -259 95 -679 332 -759 429 -50 60 -61 115 -61
297 0 179 -14 425 -35 621 -12 112 -19 139 -50 202 -40 82 -99 139 -181 178
-135 64 -319 73 -427 21 -116 -56 -205 -180 -227 -316 -20 -132 -5 -1833 20
-2155 22 -286 87 -428 214 -472 103 -36 406 -8 538 49 85 36 140 121 170 262
5 28 17 59 26 69 21 24 72 22 140 -7 32 -13 132 -51 222 -84 91 -33 212 -78
270 -100 240 -92 508 -157 770 -188 197 -22 564 -15 765 16 462 70 932 237
1240 441 142 93 298 249 374 373 68 110 152 305 190 440 50 179 64 296 59 505
-8 280 -52 461 -173 706 -188 378 -504 669 -1075 988 -294 165 -603 278 -960
352 -436 90 -969 246 -1100 323 -132 76 -271 233 -353 397 -66 132 -82 203
-82 360 0 152 11 206 66 343 60 152 168 301 326 453 206 197 476 340 727 384
243 42 546 -9 801 -135 234 -116 590 -403 652 -525 31 -60 32 -90 14 -380 -20
-332 -1 -756 41 -880 46 -139 126 -198 294 -217 251 -29 427 56 478 230 56
190 65 352 42 792 -24 476 -36 838 -40 1220 -3 330 -4 348 -26 404 -29 75 -77
128 -143 157 -75 33 -223 33 -322 1 -102 -33 -151 -73 -194 -157 -49 -95 -59
-95 -209 -11 -363 201 -564 281 -817 322 -118 18 -560 28 -675 13z"/>
<path d="M26955 28273 c-500 -62 -929 -238 -1350 -553 -587 -439 -834 -897
-794 -1470 28 -406 203 -768 539 -1114 320 -330 588 -448 1368 -607 727 -147
1018 -248 1347 -467 318 -211 514 -498 556 -816 46 -353 -159 -679 -516 -817
-171 -67 -223 -74 -520 -73 -732 1 -1290 157 -1811 506 -115 76 -175 138 -192
196 -7 22 -12 88 -12 148 0 262 -38 759 -64 831 -38 108 -107 188 -205 237
-125 64 -314 74 -423 24 -115 -53 -201 -165 -229 -296 -14 -69 -6 -1787 10
-2077 20 -357 72 -504 199 -563 51 -24 68 -26 172 -26 189 1 396 49 458 107
34 31 70 107 92 190 25 99 29 106 56 113 42 11 22 18 509 -167 442 -168 715
-226 1107 -236 403 -10 749 43 1136 173 592 200 910 439 1088 820 175 375 217
760 125 1145 -75 318 -257 625 -504 854 -100 94 -330 264 -496 367 -401 251
-754 391 -1216 483 -343 69 -885 228 -1027 302 -151 79 -281 221 -373 408 -89
181 -111 312 -81 483 42 242 149 434 356 642 123 123 239 207 388 283 270 138
492 174 767 127 281 -49 476 -142 756 -360 179 -139 264 -223 300 -296 l32
-64 -13 -228 c-14 -245 -9 -681 10 -834 27 -222 116 -325 301 -349 170 -22
323 11 407 86 65 58 89 109 117 248 32 161 38 273 26 502 -28 502 -42 902 -47
1290 -2 231 -9 443 -14 470 -6 28 -23 73 -39 100 -76 134 -268 172 -475 95
-77 -29 -119 -68 -163 -152 -36 -70 -37 -70 -73 -65 -20 2 -87 34 -150 70
-469 265 -735 339 -1210 335 -107 0 -208 -3 -225 -5z"/>
<path d="M13047 28229 c-63 -15 -138 -59 -188 -110 -86 -89 -129 -211 -129
-369 1 -229 77 -393 218 -468 75 -40 117 -49 346 -73 268 -28 298 -36 372
-101 73 -65 94 -133 120 -403 25 -267 15 -1231 -20 -1815 -14 -239 -40 -687
-56 -995 -16 -308 -39 -675 -50 -815 -11 -140 -25 -334 -30 -430 -17 -268 -32
-289 -236 -315 -148 -19 -362 -70 -430 -101 -61 -29 -128 -97 -155 -160 -35
-78 -69 -268 -69 -385 0 -132 12 -197 50 -276 58 -117 137 -157 348 -174 153
-12 233 -6 537 35 512 71 619 80 990 81 209 1 374 6 410 13 89 17 410 41 670
52 226 8 422 4 880 -21 250 -13 952 -7 1135 10 363 35 483 109 560 347 73 227
128 798 161 1670 11 281 10 318 -5 394 -46 226 -109 326 -230 363 -24 7 -98
12 -181 12 -122 0 -146 -3 -185 -21 -58 -27 -114 -85 -145 -148 -52 -109 -85
-350 -85 -634 0 -375 -25 -609 -77 -742 -33 -84 -103 -190 -156 -236 -202
-174 -462 -211 -1347 -194 -469 9 -548 16 -757 65 -57 14 -129 38 -160 54
-165 83 -307 239 -353 390 -19 60 -20 96 -20 831 0 547 3 777 11 801 29 86 78
120 258 183 169 59 374 92 711 116 152 11 234 4 287 -24 76 -39 84 -76 93
-421 9 -304 19 -390 64 -521 53 -156 106 -228 204 -276 65 -32 69 -33 202 -33
128 0 138 2 197 29 72 33 154 113 183 179 69 155 77 327 75 1547 -2 1029 -4
1072 -46 1186 -29 78 -105 154 -180 182 -122 45 -306 35 -404 -22 -101 -59
-142 -137 -196 -373 -62 -270 -119 -385 -250 -507 -108 -100 -259 -167 -439
-196 -112 -17 -695 -10 -733 9 -59 31 -57 -2 -57 865 l0 795 30 35 c34 38 75
51 200 61 41 3 145 15 230 25 248 31 649 68 865 81 219 13 848 7 1021 -10 185
-18 270 -70 342 -209 67 -128 101 -273 147 -617 34 -257 33 -251 45 -415 17
-223 58 -438 101 -521 66 -130 175 -177 333 -144 217 45 323 166 366 417 10
64 29 222 40 350 11 128 27 289 35 357 40 342 40 760 0 1107 -33 284 -103 427
-243 502 -93 50 -202 71 -415 82 -192 10 -339 6 -952 -25 -648 -32 -788 -36
-1285 -36 -283 0 -621 5 -750 11 -381 17 -1221 71 -1498 95 -179 17 -268 18
-325 4z"/>
<path d="M45963 20099 c-114 -44 -196 -155 -229 -309 -15 -68 -15 -141 -4
-795 20 -1080 8 -2129 -35 -3096 -15 -333 -12 -426 15 -520 24 -85 111 -171
187 -185 90 -17 219 31 288 107 39 44 88 135 104 197 7 24 16 80 21 125 15
127 43 4123 30 4205 -16 95 -54 173 -110 226 -73 68 -166 84 -267 45z"/>
<path d="M33895 19873 c-203 -9 -393 -37 -605 -90 -143 -36 -148 -37 -355 -37
-195 -1 -213 -2 -250 -23 -132 -71 -159 -172 -185 -698 -6 -115 -22 -401 -35
-635 -34 -589 -43 -814 -56 -1350 -20 -860 12 -1940 86 -2945 25 -327 35 -394
71 -470 25 -54 97 -122 142 -135 20 -6 174 -26 342 -46 497 -59 705 -50 1007
47 702 225 1147 818 1083 1444 -11 115 -45 266 -80 356 -11 30 -20 60 -20 66
0 7 102 81 228 164 299 200 408 285 581 454 337 330 542 660 655 1052 130 453
100 986 -81 1428 -194 476 -549 837 -1078 1095 -271 133 -490 209 -760 265
-198 41 -500 66 -690 58z m505 -637 c232 -44 419 -106 635 -211 451 -219 730
-514 863 -912 91 -269 95 -597 11 -888 -116 -404 -354 -748 -699 -1009 -136
-104 -224 -158 -405 -252 -450 -232 -866 -352 -1528 -438 l-179 -23 -8 23
c-136 357 -111 2539 40 3447 11 65 20 120 20 122 0 9 254 85 362 109 208 47
303 55 563 51 165 -2 267 -8 325 -19z m-55 -4201 c137 -25 139 -25 148 -76 15
-83 2 -266 -27 -354 -144 -448 -682 -669 -1302 -535 l-50 11 -32 397 c-18 218
-32 400 -32 403 0 3 46 9 103 12 120 8 201 22 484 82 114 24 251 50 303 58
125 20 306 21 405 2z"/>
<path d="M15685 19759 c-367 -54 -554 -283 -629 -769 -32 -204 -51 -542 -67
-1175 -29 -1184 55 -2493 237 -3678 48 -316 75 -396 162 -489 52 -55 132 -100
219 -123 134 -36 222 -32 1223 54 520 45 984 88 1032 96 155 26 259 79 324
163 118 154 56 341 -145 436 -66 31 -66 31 -231 30 -154 0 -187 -4 -495 -58
-618 -107 -777 -126 -1116 -133 -146 -3 -290 -3 -321 1 l-55 7 -21 137 c-45
293 -70 534 -78 772 -6 161 -6 166 16 193 12 16 33 32 46 37 13 5 333 43 711
85 378 41 724 82 768 91 154 31 266 100 306 189 71 155 -67 344 -281 385 -95
18 -191 11 -898 -65 -383 -41 -702 -75 -707 -75 -12 0 -45 324 -71 690 -21
296 -30 1136 -15 1460 21 449 72 1037 96 1097 8 17 25 39 40 49 24 16 84 16
1023 4 1055 -13 1069 -13 1187 31 110 41 205 160 205 257 0 121 -105 239 -257
285 -67 21 -80 22 -1108 23 -572 1 -1067 -2 -1100 -7z"/>
<path d="M28903 19756 c-157 -38 -303 -160 -438 -366 -180 -275 -233 -385
-670 -1390 -927 -2131 -1645 -3826 -1680 -3965 -42 -168 26 -321 173 -387 58
-26 151 -26 222 1 114 43 82 -17 446 833 l331 773 1594 2 1594 3 254 -753
c140 -413 268 -779 284 -812 38 -78 112 -148 179 -171 137 -45 324 41 374 172
13 34 16 64 12 134 -5 87 -28 157 -593 1847 -323 967 -632 1886 -687 2043
-257 730 -468 1198 -744 1646 -104 168 -224 292 -334 346 -118 57 -210 70
-317 44z m175 -783 c349 -637 599 -1276 1060 -2708 l119 -370 -1345 -3 c-740
-1 -1347 0 -1349 2 -3 2 65 179 150 393 311 782 514 1256 795 1853 201 429
479 973 492 965 4 -3 39 -62 78 -132z"/>
<path d="M42295 19759 c-367 -54 -554 -283 -629 -769 -32 -203 -51 -539 -67
-1170 -29 -1181 55 -2498 237 -3684 38 -245 66 -354 112 -426 56 -89 152 -154
269 -185 132 -35 229 -31 1103 44 454 39 898 78 988 87 256 24 369 61 459 150
154 154 102 365 -116 468 -66 31 -66 31 -231 30 -154 0 -187 -4 -495 -58 -618
-107 -777 -126 -1116 -133 -146 -3 -290 -3 -321 1 l-55 7 -21 137 c-45 292
-70 533 -79 772 l-6 165 27 31 c14 18 36 34 49 38 13 3 331 39 708 81 376 41
720 82 764 91 153 31 266 100 306 189 71 155 -67 344 -281 385 -95 18 -191 11
-898 -65 -383 -41 -702 -75 -707 -75 -12 0 -45 324 -71 690 -21 298 -30 1136
-15 1460 22 462 72 1037 96 1097 8 17 25 39 40 49 24 16 84 16 1023 4 1055
-13 1069 -13 1187 31 110 41 205 160 205 257 0 121 -105 239 -257 285 -67 21
-80 22 -1108 23 -572 1 -1067 -2 -1100 -7z"/>
<path d="M13345 19711 c-104 -49 -168 -136 -207 -279 -20 -76 -20 -94 -19
-1884 l2 -1808 -1549 0 -1549 0 -6 188 c-4 103 -7 473 -7 822 0 842 15 1368
61 2180 11 195 17 380 14 410 -15 141 -49 225 -118 294 -101 101 -226 112
-338 32 -151 -111 -187 -308 -210 -1156 -6 -223 -8 -596 -4 -830 3 -234 10
-1010 16 -1725 10 -1421 22 -2038 39 -2129 23 -118 82 -210 163 -253 19 -10
64 -18 112 -21 68 -4 89 -1 133 18 65 28 123 90 153 166 l24 59 3 658 3 657
1532 -2 1532 -3 5 -510 c5 -488 6 -513 27 -573 113 -332 487 -282 570 77 23
99 25 499 15 3066 -9 2226 -9 2271 -29 2336 -62 209 -203 289 -368 210z"/>
<path d="M37755 19693 c-131 -32 -208 -294 -246 -838 -16 -222 -16 -924 -1
-1490 7 -247 17 -641 23 -875 15 -660 68 -2085 80 -2185 16 -129 43 -228 89
-321 111 -226 331 -346 730 -396 158 -20 608 -16 795 6 346 41 894 153 1305
267 221 61 350 184 350 333 -1 80 -24 130 -89 188 -79 71 -142 92 -276 92 -99
0 -134 -6 -350 -58 -288 -69 -566 -126 -810 -166 -778 -127 -1060 -106 -1116
83 -28 93 -94 1306 -119 2187 -13 438 -12 1806 0 2220 17 534 16 666 -4 734
-32 107 -88 170 -187 207 -46 18 -127 23 -174 12z"/>
<path d="M5876 19630 c-1246 -17 -2077 -33 -2134 -39 -52 -6 -117 -21 -144
-33 -101 -43 -156 -150 -145 -281 7 -85 36 -146 90 -192 85 -73 45 -70 1057
-67 694 2 926 0 995 -10 l90 -13 7 -2455 c4 -1483 11 -2500 17 -2568 15 -173
63 -257 184 -319 42 -22 66 -27 122 -28 88 0 144 26 229 106 l61 57 5 323 c6
368 -4 1595 -19 2324 -13 621 -14 1521 -1 1910 9 264 29 678 33 681 1 0 385 9
852 18 1057 21 1218 28 1305 55 125 39 190 127 191 257 1 133 -40 212 -133
258 -113 55 125 54 -2662 16z"/>
<path d="M24026 19630 c-1248 -17 -2076 -33 -2134 -39 -52 -6 -117 -21 -144
-33 -101 -43 -156 -150 -145 -281 7 -85 36 -146 90 -192 85 -73 45 -70 1057
-67 694 2 926 0 995 -10 l90 -13 7 -2455 c4 -1483 11 -2500 17 -2568 15 -173
63 -257 184 -319 42 -22 66 -27 122 -28 88 0 144 26 229 106 l61 57 5 323 c6
368 -4 1595 -19 2324 -13 621 -14 1521 -1 1910 9 264 29 678 33 681 1 0 385 9
852 18 1058 21 1218 28 1305 55 125 39 190 127 191 257 1 133 -40 212 -133
258 -113 55 126 53 -2662 16z"/>
<path d="M45925 14371 c-87 -23 -169 -92 -206 -175 -26 -61 -38 -159 -28 -235
23 -165 136 -278 291 -289 129 -9 215 58 309 241 43 83 53 111 53 152 0 100
-95 230 -205 280 -62 27 -162 40 -214 26z"/>
</g>
</svg>
