<?xml version="1.0" standalone="no"?>
<!DOCTYPE svg PUBLIC "-//W3C//DTD SVG 20010904//EN"
 "http://www.w3.org/TR/2001/REC-SVG-20010904/DTD/svg10.dtd">
<svg version="1.0" xmlns="http://www.w3.org/2000/svg"
 width="3000.000000pt" height="3000.000000pt" viewBox="0 0 3000.000000 3000.000000"
 preserveAspectRatio="xMidYMid meet">

<g transform="translate(0.000000,3000.000000) scale(0.100000,-0.100000)"
fill="#000000" stroke="none">
<path d="M6180 23480 l0 -50 -810 0 -810 0 0 -254 0 -255 57 -16 c106 -31 178
-84 202 -148 17 -46 15 -899 -3 -940 -24 -59 -131 -129 -218 -143 l-38 -7 0
-263 0 -264 1068 2 1067 3 0 505 0 505 -257 3 -258 2 0 -168 c0 -159 -1 -171
-23 -203 -25 -38 -80 -77 -147 -104 -37 -16 -79 -20 -232 -23 l-188 -4 0 256
0 256 215 0 215 0 0 120 0 120 -215 0 -215 0 0 255 0 255 170 0 c190 0 252
-13 337 -72 78 -53 83 -69 83 -255 l0 -163 260 0 260 0 -2 548 -3 547 -257 3
-258 2 0 -50z"/>
<path d="M16410 23480 l0 -50 -810 0 -810 0 0 -254 0 -255 57 -16 c106 -31
178 -84 202 -148 17 -46 15 -899 -3 -940 -24 -59 -131 -129 -218 -143 l-38 -7
0 -263 0 -264 1068 2 1067 3 0 505 0 505 -257 3 -258 2 0 -168 c0 -159 -1
-171 -23 -203 -25 -38 -80 -77 -147 -104 -37 -16 -79 -20 -232 -23 l-188 -4 0
256 0 256 215 0 215 0 0 120 0 120 -215 0 -215 0 0 255 0 255 170 0 c190 0
252 -13 337 -72 78 -53 83 -69 83 -255 l0 -163 260 0 260 0 -2 548 -3 547
-257 3 -258 2 0 -50z"/>
<path d="M24437 23464 c-228 -41 -435 -150 -602 -319 -527 -529 -429 -1418
199 -1820 438 -280 1030 -213 1401 160 559 561 411 1515 -291 1875 -207 106
-476 146 -707 104z m311 -540 c107 -53 200 -194 244 -369 32 -126 31 -362 0
-480 -46 -171 -140 -312 -243 -366 -60 -32 -166 -33 -224 -2 -113 60 -201 197
-248 382 -30 122 -29 350 2 466 46 174 150 328 253 375 64 29 151 27 216 -6z"/>
<path d="M21628 23433 l-528 -3 0 -254 0 -255 57 -16 c106 -31 178 -84 202
-148 17 -46 15 -899 -3 -940 -24 -59 -131 -129 -218 -143 l-38 -7 0 -258 0
-259 515 0 515 0 0 485 c0 267 4 485 8 485 15 0 51 -44 66 -82 24 -57 34 -111
51 -293 19 -207 36 -289 74 -371 86 -185 281 -255 582 -209 217 32 368 126
435 268 39 85 28 177 -22 177 -8 0 -37 -16 -65 -35 -45 -31 -59 -35 -113 -35
-111 0 -132 32 -146 224 -10 152 -28 233 -71 323 -37 77 -117 152 -209 195
l-68 32 53 59 c65 71 129 191 150 278 21 90 19 220 -5 313 -29 115 -73 189
-166 283 -65 67 -97 90 -166 123 -95 46 -207 71 -303 67 -33 -1 -297 -3 -587
-4z m567 -408 c49 -10 105 -56 136 -110 35 -61 39 -146 10 -211 -32 -69 -124
-134 -193 -134 -17 0 -18 18 -18 236 0 219 1 235 18 231 9 -3 31 -8 47 -12z"/>
<path d="M2170 23176 l0 -255 57 -16 c106 -31 178 -84 202 -148 17 -46 15
-899 -3 -940 -24 -59 -131 -129 -218 -143 l-38 -7 0 -263 0 -264 1068 2 1067
3 0 505 0 505 -257 3 -258 2 0 -168 c0 -159 -1 -171 -23 -203 -25 -38 -80 -77
-147 -104 -37 -16 -79 -20 -233 -23 l-187 -4 2 554 3 555 27 34 c30 40 120 92
191 109 l47 12 0 254 0 254 -650 0 -650 0 0 -254z"/>
<path d="M6960 22930 l0 -500 260 0 260 0 0 163 c0 186 5 202 83 255 68 47
153 72 247 72 l81 0 -3 -549 -3 -549 -31 -39 c-35 -43 -136 -100 -195 -109
l-39 -7 0 -258 0 -259 650 0 650 0 0 259 0 258 -37 7 c-52 8 -142 51 -176 84
-59 56 -57 34 -57 623 l0 542 75 -5 c94 -6 209 -59 252 -115 28 -36 28 -38 31
-205 l3 -168 255 0 254 0 0 500 0 500 -1280 0 -1280 0 0 -500z"/>
<path d="M11122 23173 l3 -257 80 -13 c102 -17 220 -56 272 -90 76 -49 73 -28
73 -520 0 -331 -3 -444 -13 -463 -29 -59 -182 -127 -339 -152 l-78 -12 0 -258
0 -258 550 0 550 0 0 260 0 260 -64 0 c-111 0 -294 71 -337 131 -18 26 -19 44
-17 480 l3 452 434 -791 434 -792 167 0 167 0 111 233 c115 240 731 1499 738
1506 2 2 4 -232 4 -522 l0 -525 -27 -33 c-47 -56 -212 -119 -353 -136 l-50 -6
0 -258 0 -259 550 0 550 0 0 260 0 260 -64 0 c-113 0 -267 59 -324 125 l-32
36 0 461 0 461 24 32 c50 65 235 135 358 135 l58 0 0 255 0 255 -550 0 -550 0
0 -255 0 -255 75 0 c41 0 75 -2 75 -5 0 -2 -108 -224 -240 -492 -216 -437
-242 -485 -253 -467 -8 10 -184 346 -392 747 l-379 727 -608 0 -608 0 2 -257z"/>
<path d="M18590 23176 l0 -255 57 -16 c106 -31 178 -84 202 -148 17 -46 15
-899 -3 -940 -24 -59 -131 -129 -218 -143 l-38 -7 0 -259 0 -259 728 4 c711 3
729 4 810 25 168 44 304 124 423 248 82 86 117 138 174 256 51 105 86 210 112
343 24 127 25 428 1 541 -51 235 -145 417 -296 576 -116 121 -240 200 -402
254 l-85 29 -732 3 -733 3 0 -255z m1237 -271 c165 -49 273 -281 273 -586 0
-246 -59 -444 -167 -560 -67 -71 -110 -89 -221 -89 l-92 0 0 625 0 625 78 0
c43 0 101 -7 129 -15z"/>
<path d="M26010 23176 l0 -255 57 -16 c106 -31 178 -84 202 -148 17 -46 15
-899 -3 -940 -24 -59 -131 -129 -218 -143 l-38 -7 0 -258 0 -259 650 0 650 0
0 259 0 258 -39 7 c-87 14 -185 75 -217 137 -10 20 -14 64 -14 156 l0 128 118
1 c135 1 220 24 339 89 80 45 193 156 241 237 83 140 112 325 78 488 -40 189
-177 366 -348 449 -145 71 -147 71 -840 71 l-618 0 0 -254z m1140 -196 c102
-53 153 -177 118 -292 -23 -78 -131 -168 -201 -168 l-27 0 0 246 0 246 37 -7
c20 -4 53 -15 73 -25z"/>
<path d="M11345 19985 c-135 -29 -187 -54 -429 -204 -209 -129 -251 -159 -331
-233 l-70 -66 -3 -1198 c-2 -883 1 -1206 9 -1227 6 -15 25 -39 41 -52 29 -25
31 -25 226 -25 229 0 481 28 546 61 21 11 39 19 41 17 1 -2 23 -66 49 -143 61
-176 67 -189 111 -210 35 -16 48 -16 235 0 193 15 202 17 357 69 87 29 173 61
191 70 36 19 62 66 62 115 0 17 -106 337 -235 712 l-235 683 93 95 c142 147
216 282 264 483 26 109 24 307 -5 422 -97 387 -410 649 -774 645 -46 0 -110
-7 -143 -14z m295 -127 c67 -16 199 -82 252 -126 78 -65 137 -142 183 -237 58
-119 75 -186 82 -325 10 -189 -34 -350 -138 -504 -44 -66 -168 -195 -231 -241
l-26 -20 244 -715 c134 -393 243 -721 242 -729 -2 -9 -64 -35 -161 -67 l-158
-53 -10 27 c-6 15 -114 331 -241 702 -127 371 -231 676 -233 678 -1 2 -41 -7
-89 -19 l-86 -21 0 -529 0 -529 -175 0 -175 0 0 1224 0 1224 58 52 c209 188
441 261 662 208z"/>
<path d="M11409 19511 c-30 -10 -74 -28 -97 -41 l-42 -24 0 -443 0 -443 73 26
c136 49 226 103 307 184 114 115 160 219 160 365 0 179 -99 340 -233 380 -64
19 -98 18 -168 -4z"/>
<path d="M7966 19777 c-104 -56 -198 -113 -208 -127 -13 -18 -43 -158 -107
-513 -48 -268 -90 -489 -92 -492 -3 -2 -27 77 -53 176 -45 164 -52 182 -83
209 -46 41 -80 39 -280 -16 -133 -37 -202 -63 -329 -124 -159 -77 -197 -105
-210 -155 -7 -29 520 -1962 544 -1995 11 -14 34 -30 53 -37 54 -19 470 -16
691 6 203 19 228 27 253 84 8 18 129 679 270 1471 280 1572 267 1477 206 1529
-23 19 -63 30 -207 55 -98 18 -197 32 -219 32 -32 0 -80 -22 -229 -103z m417
-52 l158 -28 -6 -36 c-4 -20 -118 -659 -254 -1421 l-247 -1385 -239 0 -240 0
-266 970 c-146 534 -269 982 -272 996 l-7 26 165 43 c91 24 167 41 169 39 2
-2 97 -346 211 -764 115 -418 211 -763 215 -767 3 -5 99 520 214 1165 114 644
209 1178 212 1186 2 7 10 11 17 8 6 -2 83 -17 170 -32z"/>
<path d="M14827 19771 c-91 -60 -172 -120 -181 -132 -13 -20 -16 -55 -16 -227
0 -300 -15 -286 313 -290 l237 -4 0 -1166 c0 -906 3 -1172 13 -1191 6 -13 25
-34 40 -45 26 -19 44 -21 210 -24 225 -3 548 25 589 52 61 40 58 -26 58 1229
l0 1144 83 6 c75 5 98 12 267 86 102 44 196 89 210 99 48 36 50 52 48 285 l-3
219 -37 34 -38 34 -814 0 -815 0 -164 -109z m1743 -191 l0 -170 -305 0 -305 0
0 -1280 0 -1280 -175 0 -175 0 0 1280 0 1280 -290 0 -290 0 0 170 0 170 770 0
770 0 0 -170z"/>
<path d="M12813 19761 c-275 -166 -416 -257 -442 -285 -14 -15 -25 -41 -28
-69 -5 -44 0 -54 281 -520 l286 -474 0 -814 c0 -799 0 -815 20 -847 11 -18 36
-40 55 -48 80 -33 715 -1 777 40 60 39 58 4 58 928 l0 844 350 473 c234 316
353 487 361 513 20 75 6 93 -177 229 -91 67 -180 125 -197 128 -47 11 -75 0
-272 -107 l-180 -98 -125 -166 c-69 -92 -127 -169 -130 -172 -3 -3 -75 112
-159 255 -84 142 -165 268 -178 279 -18 14 -41 20 -73 20 -43 0 -66 -11 -227
-109z m455 -397 c122 -203 233 -385 245 -406 l22 -36 295 404 c162 222 297
404 301 404 5 0 264 -182 276 -193 2 -2 -159 -224 -357 -493 l-359 -489 -1
-852 0 -853 -175 0 -175 0 0 861 0 862 -287 476 c-157 262 -293 486 -300 498
-14 21 -9 24 129 107 79 47 148 84 153 82 6 -1 110 -168 233 -372z"/>
<path d="M16985 19657 c-124 -77 -184 -121 -196 -142 -15 -27 -19 -164 -39
-1381 -20 -1221 -20 -1354 -6 -1381 31 -60 46 -64 289 -70 267 -6 531 19 592
57 61 38 63 50 70 579 3 261 8 478 11 483 6 9 178 11 212 2 l22 -6 -6 -527 -7
-526 23 -29 c42 -51 68 -56 312 -56 270 1 568 27 615 55 17 10 38 31 48 48 16
27 20 135 43 1451 24 1390 24 1422 6 1455 -11 19 -32 44 -47 55 -27 20 -44 21
-257 24 l-228 3 -209 -105 c-114 -58 -215 -111 -224 -118 -38 -31 -39 -49 -46
-513 l-6 -455 -120 0 -120 0 8 558 7 558 -27 32 c-50 60 -61 62 -312 62 l-228
0 -180 -113z m611 -30 c1 -1 -3 -198 -7 -437 -5 -239 -10 -508 -11 -596 l-3
-162 295 -6 c162 -3 361 -8 441 -11 l146 -5 7 408 c3 224 9 494 12 600 l7 192
183 0 184 0 0 -147 c0 -82 -9 -634 -20 -1228 -11 -594 -20 -1153 -20 -1242 l0
-163 -191 0 -192 0 7 218 c3 119 9 389 12 599 l7 381 -54 6 c-30 3 -228 8
-440 11 l-386 6 -7 -253 c-3 -139 -9 -410 -12 -601 l-7 -348 -183 3 c-100 2
-185 6 -189 9 -6 7 31 2441 41 2654 l6 120 186 -3 c103 -2 187 -5 188 -5z"/>
<path d="M23980 19540 c-159 -13 -305 -49 -443 -109 -54 -23 -324 -175 -455
-255 -279 -171 -473 -478 -547 -866 -23 -117 -31 -391 -16 -532 53 -493 321
-867 728 -1014 142 -51 246 -68 413 -67 144 1 469 36 623 68 273 57 536 208
704 404 53 63 66 86 89 160 l26 86 -11 175 c-32 479 -81 1010 -95 1038 -19 38
-60 64 -100 64 -17 1 -224 -27 -461 -61 l-430 -62 -195 -76 c-197 -77 -234
-99 -246 -149 -9 -35 44 -410 63 -447 9 -17 32 -37 58 -48 42 -19 49 -19 137
-5 169 28 223 34 229 28 5 -6 39 -362 39 -410 0 -7 -28 -31 -62 -53 -57 -37
-67 -40 -108 -34 -236 33 -391 181 -462 440 -19 70 -22 105 -22 285 0 180 3
215 22 285 33 120 95 239 161 307 l57 58 121 0 122 0 197 85 c108 46 208 94
220 106 13 12 28 36 33 53 13 39 41 316 41 397 0 58 -2 64 -38 99 -34 34 -44
39 -102 44 -139 12 -198 13 -290 6z m297 -177 c-3 -21 -12 -102 -18 -179 l-13
-141 -125 -6 c-145 -6 -256 -34 -388 -97 -258 -122 -367 -271 -419 -570 -20
-116 -23 -381 -5 -495 27 -167 88 -313 178 -423 45 -55 159 -135 232 -163 182
-68 426 -63 609 13 82 34 202 110 243 155 l26 28 -26 325 -26 325 -25 -2 c-14
-1 -108 -14 -210 -28 -102 -14 -194 -27 -205 -28 -18 -2 -22 12 -46 173 -15
96 -24 178 -20 181 7 8 832 132 837 126 2 -2 24 -253 48 -558 l44 -554 -31
-53 c-68 -116 -207 -263 -323 -343 -79 -54 -226 -117 -340 -146 -99 -25 -125
-28 -279 -27 -151 0 -181 4 -268 27 -247 66 -416 178 -560 372 -168 226 -242
485 -240 845 2 445 96 712 337 955 148 149 281 221 515 280 114 29 233 43 370
44 l134 1 -6 -37z"/>
<path d="M20825 19482 c-167 -47 -174 -50 -334 -147 -134 -81 -166 -105 -177
-132 -21 -49 -21 -2388 0 -2438 26 -62 50 -70 235 -73 176 -4 492 27 558 54
18 7 42 28 53 46 19 31 20 50 20 377 0 217 4 341 9 335 6 -5 58 -94 116 -199
173 -309 181 -321 219 -339 33 -15 44 -15 232 14 108 16 277 51 376 77 192 50
220 65 232 124 3 18 6 481 6 1031 0 1089 3 1031 -56 1077 -25 20 -39 21 -239
21 l-213 0 -189 -94 c-103 -51 -199 -105 -211 -119 -16 -16 -26 -43 -30 -76
l-7 -51 -140 247 c-77 136 -152 261 -166 277 -41 47 -93 44 -294 -12z m640
-846 l430 -758 3 651 2 651 170 0 170 0 -2 -982 -3 -981 -155 -42 c-85 -23
-157 -41 -160 -39 -3 1 -199 344 -435 762 l-430 759 -3 -898 -2 -899 -170 0
-170 0 0 1230 0 1229 43 12 c23 6 89 24 147 39 58 16 112 28 120 27 8 -1 205
-337 445 -761z"/>
<path d="M5830 19285 c-289 -18 -535 -34 -547 -34 -33 -1 -320 -199 -343 -237
-20 -31 -20 -32 45 -1105 36 -591 65 -1097 65 -1126 0 -41 5 -58 27 -83 14
-17 37 -36 50 -41 15 -5 227 4 589 26 445 27 595 40 707 60 78 14 156 28 174
31 36 5 79 50 90 92 3 15 1 108 -6 207 -12 195 -18 212 -78 247 -27 16 -44 17
-274 2 -134 -8 -293 -18 -354 -23 -60 -4 -111 -7 -113 -5 -4 3 -21 229 -22
287 0 47 0 47 33 47 34 0 287 84 362 120 73 35 75 49 55 330 -17 225 -20 228
-268 212 -97 -7 -187 -12 -199 -12 -27 0 -30 15 -37 181 l-6 115 179 11 179
12 160 80 c88 45 165 81 169 81 17 0 61 55 68 83 4 15 2 112 -5 214 l-13 187
-32 34 c-26 29 -39 35 -81 38 -27 1 -285 -13 -574 -31z m574 -117 c3 -18 8
-92 11 -163 l7 -131 -384 -23 c-211 -13 -385 -25 -387 -27 -4 -4 30 -666 34
-672 1 -1 109 5 240 13 130 9 238 15 240 13 2 -2 6 -75 10 -164 l8 -161 -226
-13 c-124 -7 -231 -16 -237 -20 -9 -6 -8 -84 6 -319 10 -171 21 -316 24 -321
5 -8 129 -3 401 13 217 13 396 23 398 21 6 -5 25 -313 20 -318 -9 -7 -1119
-70 -1126 -63 -7 7 -144 2289 -138 2295 2 2 241 19 532 37 290 18 536 33 545
34 12 1 19 -9 22 -31z"/>
<path d="M9580 19285 c-289 -18 -535 -34 -547 -34 -33 -1 -320 -199 -343 -237
-20 -31 -20 -32 45 -1105 36 -591 65 -1097 65 -1126 0 -41 5 -58 27 -83 14
-17 37 -36 50 -41 15 -5 227 4 586 26 446 27 593 40 707 60 80 14 159 28 177
31 36 5 79 50 90 92 3 15 1 108 -6 207 -12 195 -18 212 -78 247 -27 16 -44 17
-274 2 -134 -8 -293 -18 -354 -23 -60 -4 -111 -7 -113 -5 -4 3 -21 229 -22
287 0 47 0 47 33 47 30 0 231 65 354 115 80 32 83 50 63 335 -17 225 -20 228
-268 212 -97 -7 -187 -12 -199 -12 -27 0 -30 15 -37 181 l-6 115 179 11 179
12 160 80 c88 45 165 81 169 81 17 0 61 55 68 83 4 15 2 112 -5 214 l-13 187
-32 34 c-26 29 -39 35 -81 38 -27 1 -285 -13 -574 -31z m574 -117 c3 -18 8
-92 11 -163 l7 -131 -384 -23 c-211 -13 -385 -25 -387 -27 -4 -4 30 -666 34
-672 1 -1 109 5 240 13 130 9 238 15 240 13 2 -2 6 -75 10 -164 l8 -161 -226
-13 c-124 -7 -231 -16 -237 -20 -9 -6 -8 -84 6 -319 10 -171 21 -316 24 -321
5 -8 128 -4 401 13 217 13 396 23 398 21 6 -5 25 -313 20 -318 -9 -7 -1119
-70 -1126 -63 -7 8 -144 2289 -138 2295 2 2 241 19 532 37 290 18 536 33 545
34 12 1 19 -9 22 -31z"/>
<path d="M19540 19153 c-8 -3 -89 -46 -178 -96 -121 -66 -169 -98 -183 -121
-18 -30 -19 -67 -19 -1084 0 -959 1 -1057 16 -1089 30 -62 48 -68 239 -71 142
-3 202 1 359 23 104 14 204 32 222 40 19 8 43 29 54 47 20 33 20 47 20 1151 0
1228 3 1159 -60 1192 -23 12 -70 15 -242 14 -117 0 -220 -3 -228 -6z m400
-1198 l0 -1085 -170 0 -170 0 0 1085 0 1085 170 0 170 0 0 -1085z"/>
<path d="M15637 15414 c-228 -41 -435 -150 -602 -319 -527 -529 -429 -1418
199 -1820 438 -280 1030 -213 1401 160 559 561 411 1515 -291 1875 -207 106
-476 146 -707 104z m311 -540 c107 -53 200 -194 244 -369 32 -126 31 -362 0
-480 -46 -171 -140 -312 -243 -366 -60 -32 -166 -33 -224 -2 -113 60 -201 197
-248 382 -30 122 -29 350 2 466 46 174 150 328 253 375 64 29 151 27 216 -6z"/>
<path d="M24747 15414 c-228 -41 -435 -150 -602 -319 -527 -529 -429 -1418
199 -1820 438 -280 1030 -213 1401 160 559 561 411 1515 -291 1875 -207 106
-476 146 -707 104z m311 -540 c107 -53 200 -194 244 -369 32 -126 31 -362 0
-480 -46 -171 -140 -312 -243 -366 -60 -32 -166 -33 -224 -2 -113 60 -201 197
-248 382 -30 122 -29 350 2 466 46 176 149 328 253 375 64 29 151 27 216 -6z"/>
<path d="M17738 15383 l-528 -3 0 -254 0 -255 57 -16 c106 -31 178 -84 202
-148 17 -46 15 -899 -3 -940 -24 -59 -131 -129 -218 -143 l-38 -7 0 -258 0
-259 515 0 515 0 0 485 c0 267 4 485 8 485 15 0 51 -44 67 -82 23 -56 33 -117
50 -297 19 -200 36 -285 74 -367 86 -185 281 -255 582 -209 217 32 368 126
435 268 39 85 28 177 -22 177 -8 0 -37 -16 -65 -35 -45 -31 -59 -35 -113 -35
-111 0 -132 32 -146 224 -10 152 -28 233 -71 323 -37 77 -117 152 -209 195
l-68 32 53 59 c65 71 129 191 150 278 21 90 19 220 -5 313 -29 115 -73 189
-166 283 -65 67 -97 90 -166 123 -95 46 -207 71 -303 67 -33 -1 -297 -3 -587
-4z m567 -408 c49 -10 105 -56 136 -110 35 -61 39 -146 10 -211 -32 -69 -124
-134 -193 -134 -17 0 -18 18 -18 236 0 219 1 235 18 231 9 -3 31 -8 47 -12z"/>
<path d="M1500 15126 l0 -253 52 -7 c99 -13 142 -52 141 -124 -2 -56 -318
-943 -354 -991 -26 -36 -93 -85 -151 -111 -35 -16 -66 -20 -170 -20 l-128 0 0
-260 0 -260 545 0 545 0 0 259 0 259 -97 4 c-105 5 -156 22 -201 71 -40 42
-38 88 6 212 l40 110 263 0 263 0 28 -110 c34 -135 35 -173 6 -210 -24 -30
-110 -75 -145 -75 l-23 0 0 -260 0 -260 650 0 650 0 0 260 0 260 -92 0 c-143
1 -203 38 -246 152 -11 29 -105 402 -210 828 l-189 775 -592 3 -591 2 0 -254z
m684 -828 l6 -28 -185 0 c-102 0 -185 1 -185 3 0 7 211 580 217 590 6 9 119
-426 147 -565z"/>
<path d="M3602 15123 l3 -257 80 -13 c102 -17 220 -56 272 -90 76 -49 73 -28
73 -520 0 -331 -3 -444 -13 -463 -29 -59 -182 -127 -339 -152 l-78 -12 0 -258
0 -258 550 0 550 0 0 260 0 260 -64 0 c-111 0 -294 71 -337 131 -18 26 -19 44
-17 492 l3 465 509 -804 509 -804 549 0 548 0 0 260 0 260 -32 0 c-90 0 -271
78 -310 133 l-23 32 -3 435 c-2 289 0 447 8 472 20 68 133 136 279 166 l81 17
0 252 0 253 -550 0 -550 0 0 -254 0 -253 89 -12 c110 -14 252 -54 307 -86 23
-14 54 -39 68 -56 l26 -31 0 -444 c0 -244 -2 -444 -3 -444 -2 0 -246 356 -543
790 l-539 790 -553 0 -552 0 2 -257z"/>
<path d="M6650 15126 l0 -255 57 -16 c106 -31 178 -84 202 -148 17 -46 15
-899 -3 -940 -24 -59 -131 -129 -218 -143 l-38 -7 0 -259 0 -259 728 4 c711 3
729 4 810 25 168 44 304 124 423 248 82 86 117 138 174 256 94 193 129 358
130 618 0 194 -10 272 -56 411 -110 337 -358 591 -675 692 -68 21 -80 21 -801
25 l-733 3 0 -255z m1237 -271 c165 -49 273 -281 273 -586 0 -246 -59 -444
-167 -560 -67 -71 -110 -89 -221 -89 l-92 0 0 625 0 625 78 0 c43 0 101 -7
129 -15z"/>
<path d="M10460 15125 l0 -254 38 -6 c143 -24 305 -93 342 -145 15 -20 40
-142 100 -477 44 -248 80 -465 80 -482 0 -64 -52 -124 -119 -137 l-31 -6 0
-259 0 -259 655 0 655 0 0 255 c0 196 -3 257 -12 259 -7 3 -26 7 -41 11 -16 3
-40 17 -53 30 -49 49 -42 70 167 486 104 210 192 380 193 378 2 -2 86 -172
186 -377 198 -407 196 -400 143 -463 -29 -34 -72 -59 -103 -59 -20 0 -20 -5
-20 -260 l0 -260 665 0 c655 0 666 0 655 19 -6 12 -10 114 -10 260 l0 241 -49
0 c-61 0 -107 34 -117 84 -4 25 23 142 106 457 146 557 136 525 178 571 76 84
188 127 350 135 l112 6 0 253 0 254 -550 0 -550 0 0 -254 0 -254 67 -7 c109
-11 185 -40 238 -88 75 -68 75 -65 -46 -518 -57 -213 -107 -385 -110 -381 -3
4 -111 215 -240 469 -253 501 -247 482 -181 512 l32 15 0 253 0 253 -600 0
-600 0 0 -253 0 -253 70 -11 c128 -20 188 -73 175 -156 -6 -39 -442 -923 -451
-914 -3 2 -43 219 -89 481 -88 497 -89 513 -49 557 9 10 41 23 70 30 l54 12 0
254 0 253 -655 0 -655 0 0 -255z"/>
<path d="M19630 15126 l0 -255 57 -16 c106 -31 178 -84 202 -148 17 -46 15
-899 -3 -940 -24 -59 -131 -129 -218 -143 l-38 -7 0 -258 0 -259 650 0 650 0
0 259 0 258 -39 7 c-87 14 -185 75 -217 137 -9 18 -14 58 -14 113 l0 85 170
146 c93 80 172 145 174 145 10 0 49 -85 62 -134 7 -28 18 -102 23 -165 6 -64
15 -172 21 -241 37 -426 154 -585 445 -607 194 -14 412 45 533 144 85 70 142
190 128 268 -9 46 -39 53 -128 30 -114 -29 -184 -6 -207 69 -5 17 -12 141 -14
276 -4 177 -10 262 -21 308 -51 202 -184 300 -434 320 l-91 7 127 106 c145
122 230 179 311 210 49 20 80 23 249 27 l192 4 0 254 0 254 -550 0 -550 0 0
-255 0 -255 39 0 c37 0 71 -19 71 -40 0 -42 -51 -95 -265 -277 -126 -108 -243
-208 -258 -222 l-28 -26 3 206 c3 205 3 206 30 240 30 40 120 92 191 109 l47
12 0 254 0 254 -650 0 -650 0 0 -254z"/>
<path d="M26322 15123 l3 -257 80 -13 c102 -17 220 -56 272 -90 76 -49 73 -28
73 -520 0 -331 -3 -444 -13 -463 -29 -59 -182 -127 -339 -152 l-78 -12 0 -258
0 -258 550 0 550 0 0 260 0 260 -64 0 c-111 0 -294 71 -337 131 -18 26 -19 44
-17 492 l3 465 509 -804 509 -804 549 0 548 0 0 260 0 260 -32 0 c-90 0 -271
78 -310 133 l-23 32 -3 435 c-2 289 0 447 8 472 20 68 133 136 279 166 l81 17
0 252 0 253 -550 0 -550 0 0 -254 0 -253 89 -12 c110 -14 252 -54 307 -86 23
-14 54 -39 68 -56 l26 -31 0 -444 c0 -244 -2 -444 -3 -444 -2 0 -246 356 -543
790 l-539 790 -553 0 -552 0 2 -257z"/>
<path d="M9275 12195 c-135 -29 -187 -54 -429 -204 -209 -129 -251 -159 -331
-233 l-70 -66 -3 -1198 c-2 -883 1 -1206 9 -1227 6 -15 25 -39 41 -52 29 -25
31 -25 226 -25 229 0 481 28 546 61 21 11 39 19 41 17 1 -2 23 -66 49 -143 61
-176 67 -189 111 -210 35 -16 48 -16 235 0 193 15 202 17 357 69 87 29 173 61
191 70 36 19 62 66 62 115 0 17 -106 337 -235 712 l-235 683 93 95 c142 147
216 282 264 483 26 109 24 307 -5 422 -97 387 -410 649 -774 645 -46 0 -110
-7 -143 -14z m295 -127 c67 -16 199 -82 252 -126 78 -65 137 -142 183 -237 58
-119 75 -186 82 -325 10 -189 -34 -350 -138 -504 -44 -66 -168 -195 -231 -241
l-26 -20 244 -715 c134 -393 243 -721 242 -729 -2 -9 -64 -35 -161 -67 l-158
-53 -10 27 c-6 15 -114 331 -241 702 -127 371 -232 676 -233 678 -1 2 -41 -7
-89 -19 l-86 -21 0 -529 0 -529 -175 0 -175 0 0 1224 0 1224 58 52 c209 188
441 261 662 208z"/>
<path d="M9339 11721 c-30 -10 -74 -28 -97 -41 l-42 -24 0 -443 0 -443 73 26
c136 49 226 103 307 184 114 115 160 219 160 365 0 179 -99 340 -233 380 -64
19 -98 18 -168 -4z"/>
<path d="M14605 12195 c-135 -29 -187 -54 -429 -204 -209 -129 -251 -159 -331
-233 l-70 -66 -3 -1198 c-2 -883 1 -1206 9 -1227 6 -15 25 -39 41 -52 29 -25
31 -25 226 -25 229 0 481 28 546 61 21 11 39 19 41 17 1 -2 23 -66 49 -143 61
-176 67 -189 111 -210 35 -16 48 -16 235 0 193 15 202 17 357 69 87 29 173 61
191 70 37 19 62 66 62 115 0 17 -106 337 -235 712 l-235 683 93 95 c142 147
216 282 264 483 26 109 24 307 -5 422 -97 387 -410 649 -774 645 -46 0 -110
-7 -143 -14z m295 -127 c67 -16 199 -82 252 -126 78 -65 137 -142 183 -237 58
-119 75 -186 82 -325 10 -189 -34 -350 -138 -504 -44 -66 -168 -195 -231 -241
l-26 -20 244 -715 c134 -393 243 -721 242 -729 -2 -9 -64 -35 -161 -67 l-158
-53 -10 27 c-6 15 -114 331 -241 702 -127 371 -231 676 -233 678 -1 2 -41 -7
-89 -19 l-86 -21 0 -529 0 -529 -175 0 -175 0 0 1224 0 1224 58 52 c209 188
441 261 662 208z"/>
<path d="M14669 11721 c-30 -10 -74 -28 -97 -41 l-42 -24 0 -443 0 -443 73 26
c136 49 226 103 307 184 114 115 160 219 160 365 0 179 -99 340 -233 380 -64
19 -98 18 -168 -4z"/>
<path d="M27640 12083 c-198 -104 -206 -110 -227 -153 -21 -43 -23 -86 -68
-1193 -45 -1115 -46 -1149 -28 -1179 37 -63 61 -72 201 -78 138 -6 134 -9 -43
-35 -124 -19 -157 -36 -175 -91 -15 -44 -29 -336 -19 -382 9 -40 40 -76 77
-91 46 -17 390 -29 575 -19 253 13 255 14 298 57 43 42 45 53 54 293 6 160 2
180 -48 227 -28 25 -108 39 -242 41 -88 2 -80 5 77 29 76 11 141 27 160 38 71
41 63 -45 119 1290 29 666 49 1222 45 1236 -10 41 -54 86 -94 96 -20 5 -131
12 -247 16 l-210 6 -205 -108z m588 -49 c25 -4 32 -10 32 -27 -4 -172 -97
-2338 -101 -2341 -6 -6 -369 11 -375 17 -2 2 18 531 46 1175 27 645 50 1177
50 1183 0 10 269 5 348 -7z m-188 -2700 l105 -6 -3 -101 c-1 -56 -5 -126 -8
-154 l-5 -53 -77 0 c-42 0 -127 3 -187 6 l-110 7 2 106 c2 58 6 130 9 159 l5
52 82 -5 c45 -3 129 -8 187 -11z"/>
<path d="M2073 11971 c-275 -166 -416 -257 -442 -285 -14 -15 -25 -41 -28 -69
-5 -44 0 -54 281 -520 l286 -474 0 -814 c0 -799 0 -815 20 -847 11 -18 36 -40
55 -48 80 -33 715 -1 777 40 60 39 58 4 58 928 l0 844 350 473 c234 316 353
487 361 513 20 75 6 93 -177 229 -91 67 -180 125 -197 128 -47 11 -75 0 -272
-107 l-180 -98 -125 -166 c-69 -92 -127 -169 -130 -172 -3 -3 -75 112 -159
255 -84 142 -165 268 -178 279 -18 14 -41 20 -73 20 -43 0 -66 -11 -227 -109z
m455 -397 c122 -203 233 -385 245 -406 l22 -36 295 404 c162 222 297 404 301
404 5 0 264 -182 276 -193 2 -2 -159 -224 -357 -493 l-359 -489 -1 -852 0
-853 -175 0 -175 0 0 861 0 862 -287 476 c-157 262 -293 486 -300 498 -14 21
-9 24 129 107 79 47 148 84 153 82 6 -1 110 -168 233 -372z"/>
<path d="M20825 12059 c-22 -11 -105 -64 -185 -117 -122 -82 -147 -103 -157
-132 -15 -45 -18 -2855 -3 -2911 5 -19 24 -48 41 -65 l30 -29 647 -3 c511 -2
689 1 846 13 109 8 210 21 224 28 14 6 35 25 46 40 19 26 21 44 24 225 4 220
-2 257 -49 296 l-31 26 -444 0 -444 0 0 1273 c0 1191 -1 1274 -18 1307 -31 63
-60 70 -287 70 -182 0 -204 -2 -240 -21z m415 -1429 l0 -1320 485 0 485 0 0
-175 0 -175 -660 0 -660 0 0 1495 0 1495 175 0 175 0 0 -1320z"/>
<path d="M12693 11911 c-68 -11 -188 -48 -238 -73 -22 -12 -134 -77 -249 -145
-212 -126 -355 -232 -381 -284 -13 -24 -15 -192 -15 -1221 0 -1179 0 -1193 20
-1226 33 -53 68 -62 248 -62 186 0 508 32 552 55 67 35 65 17 68 570 l3 500
77 24 c111 35 313 141 413 215 196 148 314 323 371 553 31 124 31 352 -1 468
-45 168 -143 330 -269 445 -73 68 -208 140 -306 165 -74 18 -224 27 -293 16z
m321 -160 c292 -118 462 -410 443 -760 -21 -398 -324 -720 -796 -845 l-86 -23
-3 -531 -2 -532 -175 0 -175 0 0 1229 0 1229 89 73 c105 87 221 152 323 179
58 16 97 19 188 17 102 -3 124 -7 194 -36z"/>
<path d="M12688 11421 c-26 -10 -63 -28 -82 -41 l-36 -22 0 -439 0 -439 28 6
c68 16 187 69 254 113 136 89 224 214 254 364 38 186 -46 386 -191 453 -63 30
-158 32 -227 5z"/>
<path d="M19180 11844 c-157 -30 -245 -70 -507 -226 -196 -118 -391 -263 -407
-303 -3 -9 -6 -529 -6 -1154 0 -1126 0 -1139 20 -1164 25 -32 53 -40 220 -68
196 -32 399 -31 694 5 337 40 493 86 674 198 100 62 248 203 311 296 109 161
153 305 154 497 1 151 -13 216 -74 342 -69 144 -182 269 -325 360 l-72 45 34
48 c109 152 153 402 105 593 -35 136 -84 221 -186 322 -72 73 -107 99 -175
133 -47 23 -112 49 -145 58 -58 16 -265 27 -315 18z m269 -139 c216 -51 389
-230 436 -450 19 -90 19 -138 -1 -233 -28 -135 -119 -295 -211 -371 l-35 -29
39 -12 c69 -23 207 -99 270 -150 180 -146 275 -354 260 -570 -30 -414 -355
-723 -845 -805 -168 -28 -548 -11 -684 31 -17 5 -18 69 -18 1154 l0 1149 73
61 c136 115 270 189 401 221 89 22 231 23 315 4z"/>
<path d="M19195 11356 c-46 -15 -92 -37 -152 -75 l-43 -26 0 -282 c0 -227 3
-283 13 -283 7 0 52 13 99 29 315 106 487 309 424 499 -19 56 -73 118 -122
138 -41 17 -165 17 -219 0z"/>
<path d="M19067 10333 l-67 -4 2 -457 3 -457 150 2 c180 2 264 20 404 89 74
36 110 62 166 118 98 98 128 161 133 282 4 82 2 98 -21 147 -79 173 -277 268
-587 280 -63 2 -145 2 -183 0z m168 -288 c152 -73 197 -181 136 -321 -24 -54
-99 -127 -162 -160 -84 -42 -79 -59 -79 247 l0 271 28 -6 c15 -4 50 -18 77
-31z"/>
<path d="M26238 11739 c-111 -55 -210 -107 -219 -115 -9 -9 -106 -215 -215
-460 -110 -244 -201 -444 -204 -444 -3 0 -109 207 -235 461 -127 253 -240 471
-251 484 -43 47 -77 47 -282 2 l-187 -42 -146 -92 c-79 -51 -156 -104 -169
-118 l-25 -27 -3 -1195 c-3 -1339 -8 -1247 69 -1277 86 -35 645 -4 729 39 57
29 60 48 60 330 0 140 3 255 8 255 4 0 16 -7 26 -15 16 -12 62 -15 239 -15
205 0 229 2 364 30 79 17 148 30 152 30 5 0 11 -84 13 -187 5 -277 -8 -267
338 -260 261 4 491 27 549 55 22 10 40 29 52 56 18 39 19 94 19 1228 0 1292 2
1245 -54 1282 -19 12 -383 96 -416 96 -4 0 -100 -45 -212 -101z m387 -64 c66
-14 130 -27 143 -30 l22 -5 0 -1175 0 -1175 -175 0 -175 0 -2 757 -3 758 -245
-553 -244 -552 -186 0 -185 0 -267 533 -267 532 0 -847 -1 -848 -175 0 -175 0
2 1217 3 1218 155 37 c85 21 158 37 162 38 5 0 173 -330 374 -732 l367 -733
17 40 c40 92 659 1483 676 1517 14 29 22 36 38 33 12 -3 75 -16 141 -30z"/>
<path d="M23300 11495 c-289 -18 -535 -34 -547 -34 -33 -1 -320 -199 -343
-237 -20 -31 -20 -32 45 -1108 36 -592 65 -1099 65 -1126 0 -38 6 -55 27 -80
14 -17 37 -36 50 -41 15 -5 226 4 587 26 444 27 594 40 707 60 79 14 158 28
176 31 36 5 79 50 90 92 3 15 1 108 -6 207 -12 195 -18 212 -78 247 -27 16
-44 17 -274 2 -134 -8 -293 -18 -354 -23 -60 -4 -111 -7 -113 -5 -4 3 -21 229
-22 287 0 47 0 47 33 47 30 0 231 65 354 115 80 32 83 50 63 335 -17 225 -20
228 -268 212 -97 -7 -187 -12 -199 -12 -27 0 -30 15 -37 181 l-6 115 179 11
179 12 160 80 c88 45 165 81 169 81 17 0 61 55 68 83 4 15 2 112 -5 214 l-13
187 -32 34 c-26 29 -39 35 -81 38 -27 1 -285 -13 -574 -31z m574 -117 c3 -18
8 -92 11 -163 l7 -131 -384 -23 c-211 -12 -385 -25 -387 -27 -4 -4 30 -666 34
-672 1 -1 109 5 240 13 130 9 238 15 240 13 2 -2 6 -75 10 -164 l8 -161 -226
-13 c-124 -7 -231 -16 -237 -20 -9 -6 -8 -84 6 -319 10 -171 21 -316 24 -321
5 -8 111 -5 356 9 192 12 370 23 395 25 46 5 47 4 52 -27 3 -18 9 -91 13 -162
l6 -131 -560 -34 c-309 -19 -564 -31 -569 -27 -7 8 -144 2289 -138 2295 2 2
241 19 532 37 290 18 536 33 545 34 12 1 19 -9 22 -31z"/>
<path d="M4637 11465 c-123 -23 -220 -60 -372 -141 -323 -171 -413 -231 -525
-352 -109 -116 -159 -198 -218 -362 -54 -148 -65 -217 -66 -415 -1 -207 9
-274 65 -448 135 -417 440 -710 849 -818 141 -37 280 -36 567 5 247 36 356 62
446 107 406 206 623 643 604 1218 -10 306 -87 558 -240 779 -129 187 -365 347
-613 413 -104 28 -379 36 -497 14z m349 -116 c445 -62 774 -398 861 -883 20
-112 23 -406 4 -520 -30 -187 -86 -336 -174 -468 -126 -190 -287 -312 -494
-375 -78 -23 -105 -26 -238 -27 -125 0 -164 3 -233 22 -432 117 -750 462 -842
911 -54 265 -29 553 65 767 60 136 191 294 325 395 192 143 476 213 726 178z"/>
<path d="M4682 10990 c-177 -47 -333 -172 -410 -330 -65 -133 -77 -190 -76
-370 0 -178 20 -279 79 -406 127 -277 395 -463 665 -464 283 0 492 198 556
530 33 167 28 388 -12 545 -8 33 -36 102 -60 154 -82 169 -246 306 -415 346
-89 21 -237 18 -327 -5z m3 -272 c208 -69 337 -277 352 -570 12 -233 -35 -416
-140 -550 -16 -20 -36 -39 -43 -42 -19 -7 -128 33 -190 69 -59 35 -156 125
-196 183 -47 69 -95 174 -118 258 -30 109 -37 294 -16 394 25 120 104 258 160
280 29 12 120 1 191 -22z"/>
<path d="M16767 11465 c-123 -23 -220 -60 -372 -141 -330 -175 -417 -233 -531
-359 -111 -121 -153 -192 -212 -355 -54 -148 -65 -217 -66 -415 -1 -207 9
-274 65 -448 135 -417 440 -710 849 -818 141 -37 280 -36 567 5 247 36 356 62
446 107 407 207 624 645 604 1222 -10 303 -88 556 -240 775 -129 188 -365 347
-613 413 -104 28 -379 36 -497 14z m349 -116 c445 -62 774 -398 861 -883 20
-112 23 -406 4 -520 -30 -187 -86 -336 -174 -468 -126 -190 -287 -312 -494
-375 -79 -24 -104 -26 -238 -27 -124 0 -164 4 -232 22 -432 116 -751 462 -843
911 -54 265 -29 553 65 767 60 136 191 294 325 395 192 143 476 213 726 178z"/>
<path d="M16812 10990 c-177 -47 -333 -172 -410 -330 -65 -133 -77 -190 -76
-370 0 -178 20 -279 79 -406 127 -277 395 -463 665 -464 283 0 492 198 556
530 33 167 28 388 -12 545 -8 33 -36 102 -60 154 -82 169 -246 306 -415 346
-89 21 -237 18 -327 -5z m3 -272 c208 -69 337 -277 352 -570 12 -242 -44 -447
-154 -565 l-31 -33 -53 16 c-121 35 -258 136 -331 241 -47 70 -95 174 -118
259 -30 109 -37 294 -16 394 25 120 104 258 160 280 29 12 120 1 191 -22z"/>
<path d="M7605 11256 c-60 -29 -153 -73 -205 -99 -80 -38 -99 -52 -118 -85
l-22 -40 0 -673 c0 -731 -1 -746 -50 -734 -35 9 -91 55 -115 96 -19 33 -20 57
-25 689 -5 604 -6 658 -23 683 -35 55 -57 58 -305 55 l-227 -3 -176 -98 c-149
-84 -179 -104 -193 -133 -14 -31 -16 -99 -16 -634 0 -360 4 -630 10 -677 38
-279 204 -496 475 -616 205 -91 359 -101 705 -49 272 42 356 63 475 122 174
85 300 210 380 375 84 173 79 112 82 1002 l4 793 -35 37 -34 38 -239 2 -238 3
-110 -54z m522 -798 c-4 -783 -4 -777 -61 -920 -63 -155 -187 -298 -314 -362
-236 -119 -621 -110 -837 19 -122 73 -237 212 -294 356 -55 139 -56 150 -56
834 l0 630 185 0 185 0 5 -645 c5 -638 5 -646 27 -693 31 -66 114 -150 173
-176 120 -52 316 -49 427 5 92 45 162 150 182 275 7 40 11 317 11 732 l0 667
186 0 185 0 -4 -722z"/>
</g>
</svg>
