<?xml version="1.0" standalone="no"?>
<!DOCTYPE svg PUBLIC "-//W3C//DTD SVG 20010904//EN"
 "http://www.w3.org/TR/2001/REC-SVG-20010904/DTD/svg10.dtd">
<svg version="1.0" xmlns="http://www.w3.org/2000/svg"
 width="1063.000000pt" height="1063.000000pt" viewBox="0 0 1063.000000 1063.000000"
 preserveAspectRatio="xMidYMid meet">

<g transform="translate(0.000000,1063.000000) scale(0.100000,-0.100000)"
fill="#000000" stroke="none">
<path d="M2752 9300 c-255 -67 -468 -288 -658 -685 -38 -80 -53 -103 -53 -83
-1 15 19 147 45 293 42 250 44 268 29 291 -48 73 -213 50 -256 -36 -28 -55
-87 -261 -114 -394 -53 -269 -79 -554 -79 -876 0 -373 25 -615 105 -1015 50
-254 104 -463 127 -495 27 -37 80 -60 140 -60 100 0 145 37 128 106 -4 14 -4
34 -1 44 5 17 15 18 128 13 108 -5 129 -3 187 16 188 64 350 217 524 495 210
335 391 829 452 1231 26 169 26 525 1 644 -49 227 -163 408 -299 475 -64 31
-186 56 -271 55 -34 0 -95 -9 -135 -19z m226 -162 c36 -22 111 -123 137 -183
32 -78 66 -240 71 -350 22 -389 -130 -995 -366 -1464 -148 -296 -283 -478
-423 -572 -54 -35 -68 -40 -103 -36 -80 9 -172 98 -188 182 -6 35 -29 447 -28
517 1 26 8 64 18 83 21 46 112 116 211 163 69 33 88 37 174 40 114 5 176 -10
291 -70 58 -30 85 -39 115 -36 30 2 39 7 41 24 4 28 -40 65 -130 110 -93 47
-183 66 -303 66 -125 0 -215 -20 -313 -72 -89 -46 -102 -42 -95 28 39 435 116
751 252 1030 118 240 204 357 347 468 132 103 210 122 292 72z"/>
<path d="M3723 8099 c-63 -18 -101 -99 -77 -164 10 -25 58 -45 109 -45 81 0
135 43 135 108 0 52 -25 90 -68 101 -43 13 -56 13 -99 0z"/>
<path d="M8283 8099 c-47 -14 -90 -63 -108 -122 -31 -103 -56 -284 -62 -455
l-6 -172 -51 -86 c-186 -310 -379 -471 -520 -433 -61 17 -154 117 -205 221
-48 99 -89 234 -76 247 6 6 38 14 71 20 129 20 247 113 307 238 30 63 32 75
32 173 -1 142 -21 209 -84 271 -61 62 -132 84 -240 76 -135 -10 -227 -80 -309
-236 -81 -150 -113 -389 -76 -561 10 -47 18 -107 17 -135 -1 -79 -82 -306
-169 -474 -78 -150 -98 -181 -119 -181 -24 0 -33 25 -54 140 -33 186 -50 386
-61 727 -14 445 -32 537 -114 574 -56 25 -158 25 -211 -1 -54 -26 -64 -35
-123 -112 -72 -95 -120 -181 -193 -346 l-64 -144 -5 307 -5 306 -25 19 c-53
40 -126 44 -190 10 -33 -17 -58 -85 -70 -186 -14 -127 -12 -438 5 -578 l14
-119 -44 -135 c-28 -84 -74 -190 -121 -281 -78 -150 -98 -181 -119 -181 -24 0
-33 25 -54 140 -33 186 -50 386 -61 727 -14 445 -32 537 -114 574 -56 25 -158
25 -211 -1 -57 -27 -76 -45 -138 -132 -70 -99 -110 -172 -183 -336 l-59 -134
-5 307 -5 306 -25 19 c-53 40 -126 44 -190 10 -57 -30 -80 -165 -80 -470 0
-195 0 -195 -39 -345 -46 -175 -76 -262 -136 -391 -68 -146 -90 -140 -134 37
-56 219 -62 410 -24 757 l16 153 -22 22 c-18 19 -32 22 -89 20 -92 -2 -119
-14 -142 -65 -51 -116 -72 -527 -37 -713 31 -159 86 -305 144 -384 62 -82 219
-108 324 -53 46 24 60 38 95 100 23 40 56 118 74 175 l32 102 30 -100 c42
-143 85 -249 109 -271 28 -25 160 -28 184 -4 11 12 18 53 25 150 24 321 100
602 238 876 52 104 78 138 86 113 2 -8 7 -75 11 -149 24 -508 115 -975 213
-1092 79 -93 208 -87 298 15 43 48 136 221 175 325 13 34 26 62 29 62 3 0 22
-54 43 -119 44 -136 66 -177 105 -192 35 -14 140 -5 158 13 10 9 18 59 24 148
24 321 100 602 238 876 52 104 78 138 86 113 2 -8 7 -75 11 -149 25 -526 117
-984 221 -1100 78 -86 202 -77 290 22 70 81 178 307 219 461 10 37 21 67 24
67 3 0 18 -20 34 -44 15 -24 51 -66 80 -94 104 -98 224 -137 397 -129 127 5
206 30 302 93 68 45 152 143 215 251 l27 47 7 -29 c4 -17 15 -79 23 -140 9
-60 32 -173 50 -250 30 -122 38 -143 65 -167 37 -33 98 -38 158 -13 l36 15 -6
63 c-3 34 -13 116 -23 182 -12 89 -15 161 -11 275 9 258 81 584 133 604 8 3
37 -8 64 -25 85 -52 155 -72 255 -73 97 0 155 19 209 69 30 28 32 38 10 59
-23 23 -74 19 -130 -10 -79 -41 -109 -36 -216 34 -51 34 -106 66 -121 71 -36
14 -102 14 -147 1 -54 -16 -57 -5 -32 136 15 89 18 132 11 145 -21 40 -109 65
-166 48z m-873 -235 c11 -21 15 -61 15 -144 0 -108 -2 -119 -30 -175 -32 -64
-99 -125 -137 -125 -20 0 -21 4 -15 73 10 107 42 229 87 324 42 90 54 97 80
47z"/>
<path d="M2800 6007 c-109 -31 -206 -128 -280 -280 -125 -257 -179 -535 -189
-971 l-6 -268 -112 75 c-127 85 -167 101 -231 94 -74 -8 -75 -10 -68 -257 6
-183 4 -243 -14 -400 -23 -208 -64 -398 -87 -407 -26 -10 -41 20 -67 138 -38
169 -49 366 -40 684 11 383 12 376 -56 396 -33 10 -47 9 -85 -6 -25 -9 -53
-27 -61 -40 -8 -13 -40 -142 -69 -286 -95 -461 -235 -939 -274 -939 -23 0 -27
131 -11 390 12 192 28 321 72 588 l33 194 -27 23 c-36 31 -127 49 -207 41
-110 -10 -132 -37 -155 -197 -39 -272 -43 -557 -10 -762 52 -324 166 -479 323
-437 103 27 170 147 276 490 l33 105 11 -45 c85 -333 188 -476 329 -455 116
17 174 146 216 485 12 96 34 404 36 498 0 19 25 14 93 -17 34 -16 86 -34 114
-42 61 -15 56 0 73 -214 21 -263 72 -572 116 -707 27 -82 112 -130 192 -108
52 14 62 39 62 163 1 313 79 656 193 845 17 28 35 52 39 52 15 0 40 -113 74
-340 51 -340 81 -461 156 -616 43 -89 121 -178 175 -200 18 -8 56 -14 85 -14
147 1 220 102 298 414 l37 149 31 -45 c95 -139 243 -205 432 -195 214 11 344
99 483 331 l34 56 17 -87 c38 -193 110 -417 147 -454 15 -15 34 -19 84 -19 95
0 98 5 113 181 15 173 47 332 97 487 60 187 176 427 195 405 4 -4 12 -98 19
-207 26 -438 99 -808 183 -933 43 -63 138 -90 211 -59 53 21 112 100 177 230
66 135 115 287 154 480 29 141 26 156 -24 156 -15 0 -32 -6 -37 -12 -5 -7 -20
-58 -33 -113 -38 -164 -107 -351 -183 -498 -103 -197 -123 -196 -156 8 -31
197 -40 311 -51 646 -16 486 -33 536 -188 546 -60 4 -73 2 -122 -24 -43 -23
-67 -46 -113 -108 -54 -74 -177 -310 -208 -397 -7 -21 -17 -38 -21 -38 -4 0
-8 122 -8 271 0 156 -4 278 -10 288 -11 22 -79 51 -118 51 -37 0 -88 -33 -106
-69 -25 -47 -37 -161 -37 -348 l-1 -173 -54 -91 c-176 -298 -375 -451 -502
-385 -44 23 -128 118 -160 182 -44 87 -85 223 -72 239 6 7 33 16 61 19 162 22
305 177 317 344 7 98 -13 201 -49 256 -82 123 -315 138 -433 28 -37 -35 -106
-142 -133 -207 -54 -129 -71 -343 -38 -482 l16 -72 -31 -128 c-65 -267 -154
-488 -196 -488 -46 0 -96 176 -169 590 -75 425 -105 524 -181 582 -31 23 -49
28 -110 31 -40 2 -89 -1 -109 -8 -77 -25 -163 -132 -220 -272 l-32 -78 -7 37
c-3 21 -9 135 -13 253 -5 192 -4 216 10 229 9 7 52 17 95 22 248 28 495 176
573 344 71 151 75 391 9 586 -71 214 -176 297 -380 305 -59 2 -112 -1 -140 -9z
m175 -193 c32 -34 59 -95 80 -179 21 -83 25 -303 6 -379 -18 -76 -60 -156
-106 -202 -49 -49 -211 -133 -273 -141 -41 -5 -42 -5 -42 23 0 47 38 278 66
403 51 226 122 403 194 479 27 29 45 28 75 -4z m1133 -1190 c17 -63 10 -206
-13 -259 -21 -50 -59 -91 -108 -116 -50 -26 -54 -15 -32 112 18 107 39 178 75
249 43 86 58 89 78 14z"/>
<path d="M3740 5665 l0 -335 65 0 65 0 0 335 0 335 -65 0 -65 0 0 -335z"/>
<path d="M4019 5977 c-61 -32 -89 -88 -89 -180 0 -80 23 -133 72 -169 27 -19
50 -24 123 -28 l90 -5 3 -59 c4 -69 -2 -76 -70 -76 -50 0 -88 24 -88 55 0 12
-14 15 -65 15 -63 0 -65 -1 -65 -25 0 -31 25 -93 48 -119 32 -35 93 -56 169
-56 85 0 117 10 161 53 85 82 66 268 -34 324 -31 18 -55 23 -114 23 -46 0 -81
5 -88 12 -18 18 -15 94 4 112 18 18 95 22 125 6 11 -6 19 -21 19 -35 0 -24 2
-25 70 -25 66 0 70 1 70 23 -1 32 -25 95 -47 119 -53 61 -209 79 -294 35z"/>
<path d="M4690 5665 l0 -335 144 0 c151 0 185 7 225 43 57 52 79 175 46 254
-13 31 -13 40 0 80 31 90 15 190 -37 240 -49 47 -75 53 -234 53 l-144 0 0
-335z m274 199 c12 -5 16 -20 16 -64 0 -68 -3 -70 -96 -70 l-64 0 0 63 c0 35
3 67 7 70 8 9 116 9 137 1z m14 -325 c4 -72 -7 -81 -90 -77 l-63 3 -3 68 -3
68 78 -3 78 -3 3 -56z"/>
<path d="M5180 5665 l0 -335 215 0 215 0 0 65 0 64 -147 3 -148 3 -3 68 -3 67
86 0 85 0 0 65 0 65 -85 0 -86 0 3 68 3 67 148 3 147 3 0 64 0 65 -215 0 -215
0 0 -335z"/>
<path d="M5670 5935 l0 -65 75 0 75 0 0 -270 0 -270 65 0 65 0 0 270 0 270 75
0 75 0 0 65 0 65 -215 0 -215 0 0 -65z"/>
<path d="M6160 5935 l0 -65 75 0 75 0 0 -270 0 -270 65 0 65 0 0 270 0 270 75
0 75 0 0 65 0 65 -215 0 -215 0 0 -65z"/>
<path d="M6640 5665 l0 -335 215 0 215 0 0 65 0 64 -147 3 -148 3 -3 68 -3 67
86 0 85 0 0 65 0 65 -85 0 -86 0 3 68 3 67 148 3 147 3 0 64 0 65 -215 0 -215
0 0 -335z"/>
<path d="M7130 5665 l0 -335 65 0 65 0 0 135 0 135 68 0 c40 0 73 -5 80 -12 8
-8 12 -53 12 -135 l0 -123 70 0 70 0 0 125 c0 91 -4 135 -16 165 -15 37 -15
43 0 80 18 45 21 127 6 180 -11 41 -61 94 -103 109 -16 6 -93 11 -173 11
l-144 0 0 -335z m278 196 c9 -5 12 -26 10 -67 l-3 -59 -77 -3 -78 -3 0 64 c0
35 3 67 7 70 9 10 125 8 141 -2z"/>
<path d="M8757 4840 c-115 -29 -209 -129 -268 -287 -13 -35 -29 -63 -36 -63
-6 0 -61 33 -122 74 -125 84 -165 100 -229 93 -74 -8 -75 -10 -68 -257 6 -183
4 -243 -14 -400 -23 -208 -64 -398 -87 -407 -26 -10 -41 20 -67 137 -38 173
-49 360 -40 680 10 346 9 360 -17 382 -55 46 -167 20 -193 -44 -8 -18 -37
-145 -65 -283 -90 -442 -230 -925 -269 -925 -24 0 -28 128 -12 390 12 192 28
321 72 588 l33 194 -27 23 c-36 31 -127 49 -207 41 -110 -10 -132 -37 -155
-197 -39 -272 -43 -557 -10 -762 52 -324 166 -479 323 -437 103 27 170 147
276 490 l33 105 11 -45 c85 -333 188 -476 329 -455 116 17 174 146 216 485 12
96 34 404 36 498 0 18 30 15 72 -8 20 -10 66 -29 101 -40 l65 -21 0 -117 c-2
-281 132 -553 315 -641 168 -81 398 -63 554 45 104 71 252 307 337 536 39 105
44 145 21 154 -39 15 -60 -5 -105 -97 -202 -415 -445 -644 -598 -565 -44 23
-128 118 -160 182 -44 87 -85 223 -72 239 6 7 33 16 61 19 162 22 305 177 317
344 11 163 -36 280 -132 327 -59 29 -158 40 -219 25z m121 -216 c17 -63 10
-206 -12 -259 -21 -50 -60 -91 -109 -116 -50 -26 -54 -15 -32 112 18 107 39
178 75 249 43 86 58 89 78 14z"/>
<path d="M2760 2525 l0 -335 215 0 215 0 0 65 0 64 -147 3 -148 3 -3 68 -3 67
86 0 85 0 0 65 0 65 -85 0 -86 0 3 68 3 67 148 3 147 3 0 64 0 65 -215 0 -215
0 0 -335z"/>
<path d="M3391 2843 c-18 -15 -31 -67 -81 -313 -33 -162 -62 -305 -65 -317 -5
-22 -3 -23 63 -23 l68 0 14 68 15 67 65 0 65 0 14 -67 14 -68 69 0 c61 0 69 2
64 18 -3 9 -33 152 -66 317 -70 343 -66 335 -160 335 -40 0 -64 -5 -79 -17z
m100 -304 l16 -79 -40 0 c-27 0 -38 4 -34 13 2 6 10 45 17 85 7 39 16 69 19
66 3 -3 13 -41 22 -85z"/>
<path d="M3690 2795 l0 -65 75 0 75 0 0 -270 0 -270 65 0 65 0 0 270 0 270 75
0 75 0 0 65 0 65 -215 0 -215 0 0 -65z"/>
<path d="M4450 2795 l0 -65 75 0 75 0 0 -270 0 -270 65 0 65 0 0 270 0 270 75
0 75 0 0 65 0 65 -215 0 -215 0 0 -65z"/>
<path d="M5045 2841 c-92 -42 -105 -82 -105 -316 0 -193 7 -232 48 -279 67
-76 267 -75 335 2 38 43 46 90 46 277 0 187 -8 234 -46 277 -32 37 -93 58
-168 58 -47 0 -83 -7 -110 -19z m166 -121 c18 -10 19 -23 19 -195 0 -172 -1
-185 -19 -195 -33 -17 -99 -12 -121 10 -18 18 -20 33 -20 189 0 164 1 170 22
185 26 18 90 21 119 6z"/>
<path d="M5535 2841 c-92 -42 -105 -82 -105 -316 0 -193 7 -232 48 -279 67
-76 267 -75 335 2 35 39 46 92 47 220 l0 122 -105 0 -105 0 0 -65 0 -65 35 0
35 0 0 -60 c0 -48 -4 -61 -19 -70 -33 -17 -99 -12 -121 10 -18 18 -20 33 -20
189 0 164 1 170 22 185 26 18 90 21 119 6 11 -6 19 -21 19 -35 0 -24 2 -25 70
-25 66 0 70 1 70 23 -1 32 -25 95 -47 119 -32 37 -93 58 -168 58 -47 0 -83 -7
-110 -19z"/>
<path d="M5920 2525 l0 -335 215 0 215 0 0 65 0 64 -147 3 -148 3 -3 68 -3 67
86 0 85 0 0 65 0 65 -85 0 -86 0 3 68 3 67 148 3 147 3 0 64 0 65 -215 0 -215
0 0 -335z"/>
<path d="M6410 2795 l0 -65 75 0 75 0 0 -270 0 -270 65 0 65 0 0 270 0 270 75
0 75 0 0 65 0 65 -215 0 -215 0 0 -65z"/>
<path d="M6890 2525 l0 -335 65 0 65 0 0 135 0 135 80 0 80 0 0 -135 0 -135
70 0 70 0 0 335 0 335 -70 0 -70 0 0 -135 0 -135 -80 0 -80 0 0 135 0 135 -65
0 -65 0 0 -335z"/>
<path d="M7380 2525 l0 -335 215 0 215 0 0 65 0 64 -147 3 -148 3 -3 68 -3 67
86 0 85 0 0 65 0 65 -85 0 -86 0 3 68 3 67 148 3 147 3 0 64 0 65 -215 0 -215
0 0 -335z"/>
<path d="M7870 2525 l0 -335 65 0 65 0 0 135 0 135 68 0 c40 0 73 -5 80 -12 8
-8 12 -53 12 -135 l0 -123 70 0 70 0 0 125 c0 91 -4 135 -16 165 -15 37 -15
43 0 80 18 45 21 127 6 180 -11 41 -61 94 -103 109 -16 6 -93 11 -173 11
l-144 0 0 -335z m278 196 c9 -5 12 -26 10 -67 l-3 -59 -77 -3 -78 -3 0 64 c0
35 3 67 7 70 9 10 125 8 141 -2z"/>
<path d="M1875 2802 c-48 -23 -69 -45 -90 -95 -34 -83 -3 -170 102 -279 75
-78 214 -188 236 -188 23 0 185 130 245 195 71 77 102 140 102 206 0 176 -215
242 -319 99 l-30 -41 -16 30 c-37 73 -153 109 -230 73z"/>
<path d="M8685 2802 c-48 -23 -69 -45 -90 -95 -34 -83 -3 -170 102 -279 75
-78 214 -188 236 -188 23 0 185 130 245 195 71 77 102 140 102 206 0 176 -215
242 -319 99 l-30 -41 -16 30 c-37 73 -153 109 -230 73z"/>
</g>
</svg>
