<?xml version="1.0" standalone="no"?>
<!DOCTYPE svg PUBLIC "-//W3C//DTD SVG 20010904//EN"
 "http://www.w3.org/TR/2001/REC-SVG-20010904/DTD/svg10.dtd">
<svg version="1.0" xmlns="http://www.w3.org/2000/svg"
 width="3000.000000pt" height="3000.000000pt" viewBox="0 0 3000.000000 3000.000000"
 preserveAspectRatio="xMidYMid meet">

<g transform="translate(0.000000,3000.000000) scale(0.100000,-0.100000)"
fill="#000000" stroke="none">
<path d="M13905 29157 c-130 -33 -265 -117 -405 -253 l-95 -91 -160 -7 c-208
-9 -322 -21 -475 -52 -589 -118 -964 -446 -996 -874 -19 -243 144 -461 401
-536 128 -37 312 -14 409 52 36 24 38 28 20 35 -10 4 -34 13 -53 20 -54 20
-124 82 -152 135 -94 174 -40 405 140 596 157 168 358 270 629 322 51 10 70
10 65 2 -4 -6 -21 -33 -39 -61 -98 -155 -206 -413 -379 -905 -235 -672 -368
-952 -559 -1182 -153 -184 -359 -288 -568 -288 -168 0 -323 86 -417 230 l-35
55 -20 -60 c-25 -78 -27 -225 -3 -313 94 -349 438 -584 817 -558 257 18 436
102 616 288 181 187 322 443 453 823 72 208 116 356 221 755 113 425 156 577
215 750 87 256 233 510 303 526 196 43 306 90 383 165 63 61 88 117 89 192 0
146 -102 237 -275 243 -44 2 -103 -2 -130 -9z"/>
<path d="M15110 27603 c-123 -20 -237 -89 -366 -217 -218 -219 -401 -575 -475
-926 -27 -127 -33 -371 -10 -460 36 -145 132 -265 248 -311 87 -34 200 -33
269 3 142 74 257 259 404 648 34 91 66 172 72 180 7 12 8 10 3 -5 -58 -180
-81 -431 -51 -558 44 -189 153 -287 318 -287 124 0 174 24 286 136 l92 93 0
-38 c0 -55 35 -100 107 -137 149 -78 356 -64 400 27 6 13 28 94 48 179 108
454 393 1124 545 1283 59 60 95 72 120 42 20 -24 6 -79 -84 -312 -129 -335
-211 -608 -261 -864 -38 -195 -33 -240 32 -301 84 -78 253 -119 368 -87 22 6
56 28 76 48 29 29 38 48 48 101 36 195 147 557 253 828 78 201 195 432 255
507 130 160 209 129 139 -55 -13 -36 -67 -164 -119 -285 -150 -349 -206 -524
-228 -707 -26 -223 41 -373 200 -446 49 -23 69 -26 161 -27 100 0 109 2 175
34 174 85 343 326 488 696 72 184 147 408 147 439 0 49 -89 77 -122 39 -8 -10
-52 -99 -99 -197 -46 -99 -107 -220 -135 -270 -180 -314 -281 -243 -162 114
25 74 80 227 121 340 91 247 114 346 97 422 -22 106 -109 205 -228 261 -62 30
-75 32 -172 32 -96 0 -110 -2 -159 -29 -122 -64 -226 -198 -375 -486 -47 -91
-86 -161 -86 -156 0 6 19 71 42 145 51 164 55 245 19 328 -29 66 -112 145
-188 181 -50 23 -71 27 -148 26 -173 0 -231 -52 -382 -344 -39 -74 -99 -199
-134 -277 -35 -78 -65 -140 -67 -138 -9 8 87 305 169 521 20 54 21 64 10 92
-53 127 -294 200 -377 114 -47 -49 -183 -392 -269 -682 -74 -246 -274 -589
-372 -635 -34 -17 -36 -16 -57 4 -19 19 -21 33 -21 124 1 120 27 251 86 430
82 248 187 449 296 567 61 66 62 67 47 96 -25 47 -54 73 -122 106 -55 27 -75
32 -141 32 -100 0 -168 -31 -258 -116 -48 -46 -67 -59 -71 -48 -3 8 -27 38
-54 66 -84 89 -228 137 -348 117z m211 -255 c50 -53 -5 -259 -146 -543 -128
-259 -265 -452 -346 -486 -30 -12 -33 -11 -52 12 -17 21 -18 33 -13 95 23 251
233 731 383 876 72 70 135 86 174 46z"/>
<path d="M12940 25069 c-173 -20 -360 -94 -497 -198 -80 -60 -228 -218 -306
-326 -170 -236 -339 -635 -441 -1040 -152 -610 -233 -1568 -197 -2335 17 -368
49 -622 115 -932 176 -814 500 -1345 961 -1573 202 -101 420 -141 632 -117
334 37 579 192 780 495 74 110 216 383 308 592 162 366 310 823 385 1189 25
121 28 312 5 355 -17 34 -65 64 -148 92 -53 18 -75 20 -157 14 -134 -9 -189
-23 -221 -54 -25 -25 -26 -33 -32 -156 -5 -111 -13 -156 -52 -305 -147 -559
-413 -1193 -649 -1547 -131 -197 -264 -332 -329 -333 -10 0 -58 39 -105 88
-302 303 -472 825 -566 1727 -37 350 -47 917 -26 1393 27 592 128 1227 260
1632 105 322 260 630 394 785 l35 39 22 -19 c12 -11 44 -49 71 -85 179 -234
270 -688 224 -1115 -9 -82 -25 -238 -36 -345 -70 -669 -144 -1116 -250 -1502
-22 -80 -43 -153 -46 -161 -7 -19 63 -72 115 -87 20 -6 86 -14 146 -17 87 -5
123 -2 168 11 70 20 138 78 172 146 34 67 200 567 234 705 57 228 161 806 205
1135 87 649 86 811 -9 1096 -38 114 -117 279 -178 369 -150 222 -390 352 -712
384 -121 12 -166 12 -275 0z m-262 -471 c16 -34 6 -56 -78 -169 -160 -215
-287 -509 -421 -973 -167 -578 -222 -954 -259 -1781 -6 -137 -15 -260 -20
-272 -6 -13 -18 -23 -30 -23 -34 0 -51 42 -61 147 -12 137 -11 734 1 889 35
421 122 831 280 1306 89 267 159 431 240 563 55 90 191 265 242 311 48 43 86
44 106 2z m-740 -3453 c43 -36 58 -77 42 -115 -29 -69 -104 -91 -157 -46 -25
21 -28 31 -28 81 0 51 3 59 30 81 38 31 76 30 113 -1z m-10 -386 c36 -12 61
-62 45 -88 -5 -9 -26 -25 -45 -36 -30 -16 -40 -17 -62 -7 -49 22 -51 107 -2
130 27 14 28 14 64 1z m72 -284 c41 -21 60 -53 60 -101 0 -109 -144 -142 -195
-44 -30 57 -16 108 38 140 38 24 59 25 97 5z"/>
<path d="M27395 25070 c-177 -21 -363 -94 -502 -199 -80 -60 -228 -218 -306
-326 -170 -236 -339 -635 -441 -1040 -81 -325 -135 -694 -182 -1245 -33 -400
-28 -1113 11 -1469 107 -961 409 -1670 854 -2007 394 -298 929 -324 1306 -63
167 115 308 300 462 604 220 435 369 834 489 1310 52 202 57 232 61 362 4 104
2 151 -7 174 -16 37 -67 71 -152 100 -55 18 -76 20 -158 14 -134 -9 -189 -23
-221 -54 -25 -25 -26 -33 -32 -156 -5 -111 -13 -156 -52 -305 -149 -564 -412
-1193 -649 -1547 -131 -197 -264 -332 -329 -333 -10 0 -58 39 -105 88 -302
303 -472 825 -566 1727 -37 350 -47 917 -26 1393 27 592 128 1227 260 1632
105 322 260 630 394 785 l35 39 22 -19 c12 -11 44 -49 71 -85 179 -234 270
-688 224 -1115 -9 -82 -25 -238 -36 -345 -70 -669 -144 -1116 -250 -1502 -22
-80 -43 -153 -46 -161 -7 -19 63 -72 115 -87 20 -6 86 -14 146 -17 87 -5 123
-2 168 11 70 20 138 78 172 146 34 67 200 567 234 705 86 344 195 1003 252
1515 42 385 5 629 -142 921 -134 269 -277 403 -521 488 -159 55 -383 80 -553
61z m-267 -472 c16 -34 6 -56 -78 -169 -159 -215 -276 -484 -415 -954 -171
-579 -225 -945 -266 -1808 -8 -162 -17 -264 -24 -274 -15 -20 -60 -11 -70 14
-24 65 -35 759 -15 1009 35 421 122 831 280 1306 89 267 159 431 240 563 55
90 191 265 242 311 48 43 86 44 106 2z m-740 -3453 c43 -36 58 -77 42 -115
-29 -69 -104 -91 -157 -46 -25 21 -28 31 -28 81 0 51 3 59 30 81 38 31 76 30
113 -1z m-10 -386 c32 -11 59 -57 48 -84 -7 -18 -65 -55 -87 -55 -25 0 -48 23
-59 59 -8 30 -6 36 20 62 32 33 35 33 78 18z m72 -284 c41 -21 60 -53 60 -101
0 -109 -144 -142 -195 -44 -30 57 -16 108 38 140 38 24 59 25 97 5z"/>
<path d="M6345 25024 c-11 -2 -51 -12 -90 -20 -127 -29 -273 -118 -365 -221
-55 -61 -208 -294 -296 -447 -187 -328 -410 -875 -559 -1371 -244 -810 -364
-1590 -476 -3095 -15 -195 -6 -722 16 -950 28 -304 53 -339 255 -356 88 -7
211 9 255 34 16 10 39 35 50 57 19 37 20 66 25 410 l5 370 75 -1 c41 0 154 -5
250 -10 96 -6 247 -7 335 -3 336 15 705 9 939 -17 57 -6 59 -7 76 -48 10 -22
26 -104 35 -180 34 -284 71 -493 94 -525 48 -67 156 -104 306 -105 112 -1 225
22 278 58 68 46 67 31 56 611 -5 286 -16 610 -24 720 -27 350 -104 1748 -115
2075 -5 173 -15 504 -20 736 -11 465 -26 687 -70 994 -52 364 -101 578 -181
790 -54 142 -90 201 -184 296 -134 136 -282 192 -530 199 -66 2 -129 2 -140
-1z m92 -526 c25 -47 89 -331 123 -543 64 -398 96 -945 110 -1870 5 -330 14
-690 20 -800 30 -597 43 -817 66 -1074 13 -156 24 -331 24 -388 l0 -103 -602
0 c-558 0 -882 10 -968 28 l-35 8 2 110 c2 60 9 172 18 249 8 77 28 291 45
475 55 608 98 954 166 1324 143 785 351 1444 648 2051 139 284 323 590 350
582 5 -2 20 -23 33 -49z m423 -194 c16 -26 34 -72 40 -103 6 -31 20 -95 30
-143 53 -243 85 -561 160 -1563 27 -363 43 -909 35 -1165 -7 -197 -9 -219 -30
-260 l-23 -45 -11 28 c-20 52 -31 160 -46 477 -41 842 -149 2186 -199 2489
-49 293 -50 303 -30 318 29 21 43 15 74 -33z m254 -3448 c44 -18 76 -61 76
-102 0 -45 -57 -104 -101 -104 -62 0 -108 43 -109 102 0 51 17 84 54 102 38
19 39 19 80 2z m28 -307 c25 -18 29 -26 24 -52 -9 -45 -24 -57 -72 -57 -50 0
-74 19 -74 58 0 68 62 93 122 51z m23 -244 c31 -30 32 -73 4 -109 -16 -21 -29
-26 -64 -26 -35 0 -48 5 -64 26 -35 44 -24 91 27 118 40 22 70 19 97 -9z"/>
<path d="M16675 25024 c-11 -2 -51 -12 -90 -20 -127 -29 -273 -118 -365 -221
-53 -59 -206 -291 -291 -438 -158 -277 -365 -760 -497 -1165 -282 -862 -413
-1642 -533 -3170 -18 -234 -20 -323 -16 -600 6 -343 27 -619 53 -709 18 -64
56 -105 110 -120 108 -30 302 -21 369 17 16 10 39 35 50 57 19 37 20 66 25
410 l5 370 75 -1 c41 0 154 -5 250 -10 96 -6 247 -7 335 -3 336 15 705 9 939
-17 57 -6 59 -7 76 -48 10 -22 26 -104 35 -180 34 -284 71 -493 94 -525 48
-67 156 -104 306 -105 112 -1 225 22 278 58 68 46 67 31 56 611 -5 286 -16
610 -24 720 -27 350 -104 1748 -115 2075 -5 173 -15 504 -20 736 -11 465 -26
687 -70 994 -52 364 -101 578 -181 790 -54 142 -90 201 -184 296 -136 137
-281 192 -530 199 -66 2 -129 2 -140 -1z m92 -526 c25 -47 89 -331 123 -543
64 -398 96 -945 110 -1870 5 -330 14 -690 20 -800 30 -597 43 -817 66 -1074
13 -156 24 -331 24 -389 l0 -104 -717 5 c-694 5 -862 12 -888 38 -10 10 -1
128 60 784 63 674 103 996 171 1369 143 785 351 1444 648 2051 139 284 323
590 350 582 5 -2 20 -23 33 -49z m423 -194 c16 -26 34 -72 40 -103 6 -31 20
-96 31 -146 51 -240 98 -713 169 -1690 18 -261 32 -809 25 -1030 -7 -203 -9
-224 -30 -265 l-23 -45 -11 28 c-20 52 -31 160 -46 477 -41 842 -149 2186
-199 2489 -49 293 -50 303 -30 318 29 21 43 15 74 -33z m254 -3448 c44 -18 76
-61 76 -102 0 -45 -57 -104 -101 -104 -66 0 -109 43 -108 110 0 51 13 73 55
95 36 18 37 18 78 1z m28 -307 c25 -18 29 -26 24 -52 -9 -45 -24 -57 -72 -57
-50 0 -74 19 -74 58 0 68 62 93 122 51z m23 -244 c31 -30 32 -73 4 -109 -16
-21 -29 -26 -64 -26 -35 0 -48 5 -64 26 -35 44 -24 91 27 118 40 22 70 19 97
-9z"/>
<path d="M10460 24935 c-302 -64 -540 -246 -858 -653 -373 -479 -631 -972
-858 -1635 -64 -187 -94 -260 -114 -272 -26 -16 -8 286 60 1022 56 601 70 789
70 930 0 98 -5 195 -11 216 -33 121 -196 193 -418 185 -125 -4 -182 -23 -216
-70 -38 -54 -112 -330 -164 -613 -138 -748 -188 -1924 -120 -2835 41 -554 169
-1335 314 -1920 47 -189 164 -562 193 -616 43 -80 219 -143 371 -131 88 6 147
31 168 70 18 36 21 -11 -37 671 -22 263 -40 496 -40 516 0 22 8 47 18 60 l18
23 95 -67 c322 -226 485 -320 694 -399 114 -43 266 -83 371 -97 209 -28 433
45 540 175 34 42 35 44 20 73 -22 43 -82 89 -139 108 -32 11 -88 17 -160 18
-124 1 -137 -3 -233 -76 l-51 -38 -84 35 c-209 89 -307 154 -609 403 -213 176
-289 245 -290 264 0 3 51 23 113 43 315 104 572 269 836 535 459 464 768 962
1025 1654 184 494 314 1064 347 1519 12 174 0 418 -27 536 -40 174 -155 282
-369 347 -77 23 -112 27 -240 30 -102 2 -171 -1 -215 -11z m264 -287 c74 -201
54 -591 -59 -1153 -102 -507 -236 -912 -444 -1340 -166 -341 -330 -606 -537
-865 -141 -176 -391 -427 -522 -524 -98 -72 -256 -158 -315 -172 -25 -6 -28
-4 -23 17 3 13 8 69 11 124 7 108 47 366 96 615 174 881 471 1713 827 2315 94
159 247 383 348 510 97 122 339 368 426 434 46 34 140 79 170 81 3 0 13 -19
22 -42z m-2360 -530 c13 -13 32 -45 41 -72 19 -60 17 -115 -31 -761 -53 -717
-66 -937 -61 -972 4 -25 2 -33 -9 -33 -12 0 -14 -66 -14 -457 0 -252 -4 -463
-8 -470 -4 -6 -20 -16 -34 -22 -21 -8 -31 -7 -42 4 -27 27 -55 100 -73 190
-16 81 -18 154 -18 755 0 432 5 725 13 835 29 389 82 926 96 958 27 66 93 87
140 45z m-61 -3019 c43 -47 31 -119 -29 -164 -44 -33 -121 -10 -150 46 -57
112 92 211 179 118z m-8 -310 c23 -19 26 -26 20 -58 -9 -47 -31 -71 -67 -71
-68 0 -103 89 -52 129 34 27 64 27 99 0z m21 -290 c55 -52 11 -159 -65 -159
-46 0 -79 23 -97 66 -17 41 -7 72 33 104 35 27 93 23 129 -11z"/>
<path d="M24055 24680 c-45 -4 -103 -12 -130 -18 -28 -7 -455 -39 -950 -72
-495 -34 -920 -66 -945 -71 -147 -33 -201 -108 -119 -168 58 -43 173 -55 413
-41 198 11 307 8 335 -9 13 -8 6 -68 -59 -546 -76 -556 -120 -1221 -120 -1825
0 -570 25 -990 120 -2044 72 -785 88 -913 151 -1148 28 -102 63 -139 162 -170
152 -48 380 -20 442 54 19 23 25 38 20 56 -12 49 -55 338 -70 473 -18 163 -39
490 -57 864 -17 362 -17 1667 0 1955 23 397 61 882 102 1310 16 168 43 476 60
685 18 209 33 389 36 401 3 19 14 22 166 33 481 36 627 54 719 90 54 20 78 92
42 123 -66 58 -174 81 -318 68z m-1065 -750 c23 -23 23 -25 20 -265 -3 -280
-107 -2224 -122 -2280 -12 -45 -16 -50 -38 -47 -75 11 -75 14 -75 742 1 513 4
672 18 825 9 105 29 357 43 560 14 204 30 387 36 408 17 72 76 99 118 57z
m-105 -2804 c42 -18 69 -66 60 -106 -8 -36 -58 -80 -90 -80 -54 0 -105 47
-105 95 0 31 32 77 63 90 40 18 32 17 72 1z m28 -324 c9 -8 17 -22 17 -30 0
-17 -51 -102 -61 -102 -16 0 -69 73 -69 95 0 31 46 68 74 59 12 -4 29 -13 39
-22z m6 -247 c33 -16 41 -33 41 -80 0 -41 -49 -95 -86 -95 -35 0 -74 29 -89
65 -36 86 48 155 134 110z"/>
<path d="M3188 24670 c-439 -42 -871 -231 -1248 -547 -129 -108 -390 -367
-492 -488 -155 -186 -328 -434 -416 -595 -96 -179 -189 -474 -213 -680 -16
-143 -6 -396 20 -522 58 -268 208 -568 403 -802 33 -39 348 -363 701 -721 373
-378 668 -685 704 -732 81 -108 129 -196 167 -302 25 -73 30 -101 30 -186 1
-113 -15 -161 -74 -229 -68 -77 -126 -85 -229 -31 -179 95 -286 227 -356 442
-29 89 -44 109 -101 134 -140 63 -392 31 -433 -55 -11 -24 -11 -38 4 -100 39
-163 116 -290 246 -410 227 -210 587 -332 876 -298 139 16 204 35 318 91 147
73 230 159 278 290 31 85 30 269 -1 371 -51 163 -134 319 -252 480 -35 46
-273 337 -531 646 -591 712 -661 809 -770 1073 -132 321 -170 660 -108 976 66
342 267 750 542 1095 192 242 459 504 640 628 170 116 383 202 502 202 199 0
404 -291 436 -618 30 -318 -58 -655 -310 -1177 -107 -222 -226 -438 -388 -703
-68 -112 -144 -245 -169 -294 -52 -103 -50 -120 13 -159 51 -32 90 -39 211
-40 191 -1 193 0 419 381 388 651 675 1263 737 1571 70 344 24 715 -114 926
-138 211 -347 341 -598 372 -118 15 -346 21 -444 11z m-1038 -825 l23 -24 -27
-36 c-15 -20 -82 -95 -148 -168 -141 -154 -286 -333 -361 -445 -181 -271 -276
-582 -277 -907 0 -198 23 -335 90 -530 76 -220 180 -420 365 -700 141 -214
140 -211 126 -241 -6 -13 -19 -24 -29 -24 -89 0 -357 350 -517 675 -167 338
-224 574 -212 880 9 250 70 474 195 720 123 243 274 440 511 668 164 157 214
183 261 132z m-36 -3126 c33 -15 59 -71 51 -109 -9 -40 -58 -80 -98 -80 -50 0
-95 33 -103 75 -16 87 68 151 150 114z m167 -240 c38 -27 39 -69 3 -98 -34
-27 -62 -27 -91 1 -43 40 -21 118 35 118 13 0 37 -9 53 -21z m170 -168 c45
-45 40 -110 -12 -136 -42 -22 -67 -18 -100 14 -38 38 -40 91 -4 126 34 35 78
33 116 -4z"/>
<path d="M20498 24670 c-439 -42 -871 -231 -1248 -547 -129 -108 -390 -367
-492 -488 -155 -186 -328 -434 -416 -595 -96 -179 -189 -474 -213 -680 -16
-143 -6 -396 20 -522 58 -268 208 -568 403 -802 33 -39 348 -363 701 -721 373
-378 668 -685 704 -732 81 -108 129 -196 167 -302 25 -73 30 -101 30 -186 1
-113 -15 -161 -74 -229 -68 -77 -126 -85 -229 -31 -179 95 -286 227 -356 442
-29 89 -44 109 -101 134 -140 63 -392 31 -433 -55 -11 -24 -11 -38 4 -100 39
-163 116 -290 246 -410 158 -147 393 -258 616 -291 125 -19 208 -19 319 0 117
20 171 38 277 92 379 194 381 628 6 1133 -34 47 -273 338 -530 647 -591 710
-661 808 -770 1072 -132 321 -170 660 -108 976 66 342 267 750 542 1095 192
242 459 504 640 628 170 116 383 202 502 202 199 0 404 -291 436 -618 30 -318
-58 -655 -310 -1177 -107 -222 -226 -438 -388 -703 -68 -112 -144 -245 -169
-294 -52 -103 -50 -120 13 -159 51 -32 89 -39 210 -40 191 -2 193 0 420 381
388 651 675 1263 737 1571 70 344 24 715 -114 926 -138 211 -347 341 -598 372
-118 15 -346 21 -444 11z m-1038 -825 l23 -24 -27 -36 c-15 -20 -82 -95 -148
-168 -141 -154 -286 -333 -361 -445 -181 -271 -276 -582 -277 -907 0 -198 23
-335 90 -530 76 -220 180 -420 365 -700 141 -214 140 -211 126 -241 -6 -13
-19 -24 -29 -24 -89 0 -357 350 -517 675 -168 341 -224 576 -212 885 11 248
71 472 194 713 124 245 275 442 512 670 164 157 214 183 261 132z m-36 -3126
c33 -15 59 -71 51 -109 -9 -40 -58 -80 -98 -80 -50 0 -95 33 -103 75 -16 87
68 151 150 114z m167 -240 c38 -27 39 -69 3 -98 -34 -27 -62 -27 -91 1 -43 40
-21 118 35 118 13 0 37 -9 53 -21z m170 -168 c45 -45 40 -110 -12 -136 -42
-22 -67 -18 -100 14 -38 38 -40 91 -4 126 34 35 78 33 116 -4z"/>
<path d="M25173 24621 c-169 -46 -248 -126 -287 -292 -20 -82 -50 -337 -76
-649 -11 -135 -29 -339 -40 -455 -69 -746 -180 -2425 -185 -2795 -2 -151 -9
-448 -14 -660 -15 -541 -14 -785 4 -918 16 -127 37 -176 92 -221 127 -105 488
-119 650 -25 94 54 110 112 118 424 39 1544 69 2280 136 3280 20 304 146 1636
174 1845 31 228 16 315 -66 389 -74 66 -144 88 -304 92 -106 3 -143 0 -202
-15z m74 -875 c26 -23 28 -30 31 -115 4 -89 -15 -491 -43 -926 -7 -121 -17
-299 -20 -395 -4 -96 -26 -440 -49 -765 -39 -540 -44 -594 -65 -632 -15 -31
-28 -43 -44 -43 -55 1 -52 -26 -50 572 2 501 6 607 38 1128 19 316 44 694 55
840 11 146 20 272 20 280 0 8 9 30 20 48 25 40 66 43 107 8z m-201 -3055 c33
-20 64 -74 64 -111 0 -13 -17 -39 -39 -61 -47 -47 -85 -51 -130 -13 -65 55
-56 149 19 186 44 22 48 22 86 -1z m-4 -348 c53 -60 16 -143 -63 -143 -28 0
-79 53 -79 83 0 13 9 36 21 51 16 21 29 26 63 26 28 0 48 -6 58 -17z m-15
-260 c32 -21 53 -69 46 -105 -6 -33 -55 -84 -89 -92 -35 -9 -94 22 -117 62
-24 41 -15 82 25 122 35 35 92 41 135 13z"/>
<path d="M4312 18439 c-141 -70 -333 -418 -551 -1000 -175 -467 -372 -1117
-467 -1544 -45 -199 -44 -268 1 -316 92 -96 275 -106 350 -18 24 30 34 58 112
324 l38 130 7 -63 c10 -91 34 -154 82 -219 103 -140 288 -200 440 -143 325
122 639 665 697 1205 18 169 -2 328 -55 449 -33 73 -114 159 -185 193 -50 25
-67 28 -156 28 -90 0 -106 -3 -158 -28 -104 -52 -209 -163 -322 -343 -30 -48
-55 -85 -55 -81 0 17 106 271 161 387 167 349 344 586 498 669 59 31 61 33 61
72 0 55 -21 99 -72 155 -120 132 -316 197 -426 143z m285 -1289 c17 -35 16
-151 -3 -251 -54 -286 -251 -698 -367 -770 -48 -29 -96 -22 -120 18 -92 159
66 700 274 938 80 91 187 123 216 65z"/>
<path d="M21702 18442 c-210 -112 -514 -756 -763 -1612 -40 -140 -45 -150
-135 -287 -285 -433 -546 -642 -690 -554 -153 93 -174 411 -52 781 40 122 76
201 127 282 45 71 116 143 157 158 31 12 84 13 84 2 0 -4 -16 -47 -35 -95
-158 -392 -128 -649 87 -757 71 -35 145 -42 130 -12 -43 82 1 287 108 507 67
136 137 239 220 325 39 40 73 83 76 96 9 35 -30 107 -83 154 -61 53 -161 102
-223 108 -50 5 -51 4 -103 -49 -28 -30 -61 -67 -72 -82 l-20 -28 -81 42 c-99
51 -182 61 -284 35 -305 -78 -629 -532 -715 -1001 -13 -72 -27 -108 -67 -180
-65 -115 -124 -192 -161 -211 -26 -14 -31 -14 -48 2 -45 40 -17 164 123 544
119 322 132 366 132 465 0 64 -4 89 -23 128 -86 174 -309 275 -491 221 -118
-35 -267 -229 -442 -579 -55 -110 -96 -186 -92 -170 18 80 81 274 126 395 64
171 70 215 32 259 -97 116 -310 148 -370 56 -51 -78 -191 -456 -274 -740 -32
-109 -54 -164 -102 -248 -117 -205 -229 -313 -283 -273 -47 34 -23 255 55 500
72 222 146 384 248 539 44 65 45 69 33 106 -15 50 -75 104 -160 145 -58 27
-76 31 -152 31 -73 0 -90 -3 -109 -20 -32 -29 -80 -130 -225 -470 -206 -485
-298 -666 -380 -752 -48 -49 -85 -56 -109 -21 -23 32 -20 171 4 281 43 195
155 467 269 656 55 90 62 109 57 139 -10 64 -103 140 -214 177 -70 23 -172 18
-203 -10 -51 -47 -217 -430 -298 -690 -94 -304 -132 -509 -134 -715 -1 -262
58 -401 198 -466 64 -30 161 -32 222 -4 121 54 251 240 393 561 59 133 78 167
63 114 -15 -54 -8 -343 10 -424 22 -98 72 -197 120 -235 35 -28 47 -31 123
-35 76 -3 89 0 146 27 72 34 133 84 189 155 l39 49 0 -59 c0 -41 6 -68 20 -91
38 -62 188 -110 303 -97 114 12 151 40 167 124 52 257 269 833 422 1121 127
240 257 395 311 374 43 -16 21 -95 -108 -389 -198 -451 -254 -634 -255 -832 0
-212 71 -326 241 -383 92 -32 210 -25 294 16 108 53 244 200 330 357 21 38 41
65 45 60 4 -4 15 -29 24 -55 27 -74 107 -188 171 -245 65 -58 171 -114 255
-134 76 -18 221 -16 300 5 175 47 350 173 496 360 l30 39 -12 -84 c-7 -46 -13
-112 -13 -146 -1 -55 2 -66 29 -96 76 -88 301 -123 426 -68 23 10 45 24 49 30
3 7 17 64 30 129 47 229 209 749 300 962 107 250 249 456 338 489 37 14 43 14
61 -5 36 -36 23 -80 -130 -426 -117 -264 -201 -495 -228 -630 -21 -101 -21
-258 0 -329 44 -152 161 -238 334 -247 105 -5 172 17 263 87 72 55 175 186
232 294 22 42 41 74 42 73 2 -1 10 -41 18 -89 27 -156 88 -259 186 -312 43
-23 69 -30 134 -33 44 -2 99 1 122 7 63 17 160 87 217 157 l51 63 5 -63 c3
-36 13 -74 23 -90 38 -57 191 -104 300 -91 114 12 151 40 167 124 52 257 269
833 422 1121 127 240 257 395 311 374 43 -16 21 -95 -108 -389 -198 -451 -254
-634 -255 -832 0 -212 71 -326 241 -383 92 -32 210 -25 294 16 70 34 177 131
242 221 26 34 50 60 53 56 4 -5 13 -24 20 -43 22 -56 79 -137 120 -170 64 -51
127 -73 217 -78 75 -4 87 -2 145 25 156 74 262 244 419 666 41 109 75 194 77
189 11 -34 -116 -514 -185 -697 -149 -396 -314 -568 -559 -583 -106 -6 -169
14 -230 73 -25 23 -47 38 -50 33 -3 -5 -8 -42 -11 -82 -18 -236 147 -436 406
-491 149 -31 293 -12 439 60 169 84 280 223 382 477 72 182 121 374 216 848
110 550 159 745 232 912 35 80 102 176 154 222 42 37 50 48 44 69 -9 37 -80
103 -144 134 -49 23 -70 27 -147 28 -79 0 -97 -4 -146 -28 -31 -15 -76 -48
-99 -74 l-43 -46 -21 29 c-61 87 -152 143 -265 164 -177 32 -386 -74 -563
-287 -184 -220 -331 -523 -398 -818 -13 -55 -32 -116 -43 -135 -41 -69 -101
-141 -130 -156 -26 -14 -31 -14 -48 2 -45 40 -17 164 123 544 119 322 132 366
132 465 1 100 -24 156 -104 235 -112 111 -271 155 -410 114 -118 -35 -267
-229 -442 -579 -55 -110 -96 -186 -92 -170 18 80 81 274 126 395 64 171 70
215 32 259 -97 116 -310 148 -370 56 -49 -75 -212 -514 -274 -740 -23 -86
-111 -262 -194 -390 -94 -144 -154 -197 -197 -175 -31 17 -39 52 -39 162 0
239 120 622 259 826 48 71 53 112 18 163 -49 74 -201 149 -299 149 -75 0 -104
-23 -153 -121 -76 -150 -149 -340 -209 -539 -26 -85 -165 -380 -233 -494 -114
-191 -200 -227 -197 -83 2 72 32 179 110 391 131 353 157 437 162 522 4 73 1
88 -23 143 -36 80 -130 169 -212 202 -47 19 -77 24 -158 24 -86 0 -107 -3
-150 -25 -105 -51 -271 -253 -390 -472 -26 -49 -49 -88 -51 -88 -7 0 85 251
147 399 175 421 389 735 567 829 68 36 75 52 51 123 -58 171 -353 323 -487
251z m4208 -1257 c21 -22 22 -31 17 -87 -20 -220 -275 -737 -448 -910 -45 -45
-64 -58 -88 -58 -22 0 -32 6 -37 23 -51 158 195 792 381 981 78 78 134 95 175
51z"/>
<path d="M23222 17973 c-40 -20 -98 -132 -136 -267 -34 -117 -35 -203 -2 -239
43 -46 120 -74 171 -61 18 5 55 42 119 123 51 64 112 138 135 165 40 46 43 53
38 93 -15 132 -209 243 -325 186z"/>
<path d="M7547 17489 c-28 -30 -61 -67 -72 -82 l-20 -28 -81 42 c-99 51 -182
61 -284 35 -296 -76 -598 -485 -705 -954 -20 -86 -34 -119 -87 -209 -151 -254
-320 -360 -476 -298 -116 47 -180 209 -153 385 15 92 19 99 41 62 22 -36 74
-75 119 -91 57 -19 173 -14 238 11 88 32 186 135 247 258 66 136 89 228 90
375 1 180 -38 289 -139 384 -156 148 -400 174 -577 62 -132 -84 -274 -263
-388 -490 -188 -375 -241 -755 -141 -1022 56 -149 175 -285 306 -350 142 -70
265 -83 420 -43 171 44 350 200 470 408 l28 48 22 -61 c34 -94 83 -169 160
-246 208 -209 530 -228 802 -48 81 53 205 174 273 266 l59 78 6 -38 c26 -158
64 -241 146 -318 78 -71 148 -99 254 -99 68 -1 88 3 131 26 142 74 257 259
404 648 34 91 66 172 72 180 7 12 8 10 3 -5 -58 -180 -81 -431 -51 -558 44
-189 153 -287 318 -287 121 0 175 25 279 129 55 56 104 118 139 176 l54 89 13
-79 c34 -202 143 -315 303 -315 43 0 80 7 107 20 121 54 251 240 393 561 59
133 78 167 63 114 -15 -54 -8 -343 10 -424 22 -98 72 -197 120 -235 35 -28 47
-31 123 -35 77 -3 89 0 150 28 49 23 88 52 142 107 l74 76 16 -24 c71 -102
203 -198 337 -244 69 -24 95 -28 195 -28 138 0 211 17 328 75 265 133 420 433
382 738 -17 132 -47 230 -147 481 -96 239 -113 293 -113 363 0 71 41 134 98
152 52 16 127 -37 186 -132 15 -25 36 -45 50 -49 77 -19 194 81 220 188 19 82
-95 182 -257 225 -89 24 -250 21 -350 -6 -157 -41 -319 -147 -438 -286 -86
-101 -185 -261 -281 -455 -77 -154 -102 -196 -154 -252 -73 -79 -127 -182
-146 -280 -11 -61 -16 -69 -44 -83 -60 -28 -84 3 -84 105 0 131 72 403 165
627 50 118 95 203 163 306 44 65 45 69 33 106 -15 50 -75 104 -160 145 -58 27
-76 31 -152 31 -73 0 -90 -3 -109 -20 -32 -29 -80 -130 -225 -470 -206 -485
-298 -666 -380 -752 -48 -49 -85 -56 -109 -21 -23 32 -20 171 4 281 43 195
155 467 269 656 55 90 62 109 57 139 -10 64 -103 140 -214 177 -70 23 -172 18
-203 -10 -52 -47 -216 -429 -299 -695 -82 -260 -279 -599 -377 -645 -34 -17
-36 -16 -57 4 -19 19 -21 33 -21 124 1 120 27 251 86 430 82 248 187 449 296
567 61 66 62 67 47 96 -25 47 -54 73 -122 106 -55 27 -75 32 -141 32 -100 0
-168 -31 -258 -116 -48 -46 -67 -59 -71 -48 -3 8 -27 38 -54 66 -79 83 -220
134 -332 119 -134 -19 -246 -83 -386 -224 -112 -112 -207 -250 -299 -431 -35
-69 -106 -189 -157 -267 -240 -363 -464 -572 -614 -573 -148 0 -233 201 -200
475 48 406 243 775 409 775 17 0 31 -4 31 -8 0 -4 -16 -47 -35 -95 -158 -392
-128 -649 87 -757 71 -35 145 -42 130 -12 -43 82 1 287 108 507 67 136 137
239 220 325 39 40 73 83 76 96 9 35 -30 107 -83 154 -61 53 -161 102 -223 108
-50 5 -51 4 -103 -49z m1234 -281 c50 -53 -5 -259 -146 -543 -128 -259 -265
-452 -346 -486 -30 -12 -33 -11 -52 12 -17 21 -18 33 -13 95 23 251 233 731
383 876 72 70 135 86 174 46z m-2671 -34 c39 -101 -49 -378 -152 -482 -44 -45
-68 -56 -114 -50 -22 2 -33 12 -48 42 -18 37 -18 42 -3 115 24 113 104 267
177 341 50 52 63 60 94 60 30 0 38 -5 46 -26z m5487 -223 c0 -99 14 -157 73
-306 26 -66 53 -139 59 -162 51 -190 19 -389 -79 -484 -76 -74 -168 -83 -239
-23 -97 81 -70 281 45 337 46 22 50 22 148 -10 18 -6 19 -2 14 61 -10 126 -81
212 -193 237 -53 12 -56 14 -50 38 10 40 110 244 146 298 28 42 69 93 74 93 1
0 2 -35 2 -79z"/>
<path d="M13078 17491 c-114 -37 -206 -109 -312 -245 -82 -106 -124 -171 -186
-295 -126 -251 -190 -493 -190 -720 0 -229 66 -402 210 -547 113 -114 294
-184 440 -169 174 17 286 71 416 200 171 170 287 387 429 805 30 90 55 169 55
177 0 8 -11 25 -25 38 -27 28 -89 34 -117 13 -9 -7 -35 -60 -58 -118 -167
-422 -358 -651 -543 -651 -177 0 -283 172 -248 401 15 92 19 99 41 62 22 -36
74 -75 119 -91 57 -19 173 -14 238 11 88 32 186 135 247 258 66 136 89 228 90
375 1 180 -38 289 -139 384 -123 116 -311 161 -467 112z m312 -317 c39 -101
-49 -378 -152 -482 -44 -45 -68 -56 -114 -50 -22 2 -33 12 -48 42 -18 37 -18
42 -3 115 24 113 104 267 177 341 50 52 63 60 94 60 30 0 38 -5 46 -26z"/>
<path d="M15703 17440 c-134 -28 -243 -156 -433 -506 -45 -82 -79 -140 -76
-129 23 88 84 275 112 348 40 104 40 111 13 156 -28 46 -54 67 -119 99 -45 22
-69 27 -132 27 -100 0 -120 -15 -166 -121 -173 -405 -544 -1807 -626 -2371
-17 -116 -11 -151 31 -195 77 -80 322 -103 413 -38 24 17 29 29 35 87 19 188
185 1067 204 1086 5 5 11 -11 15 -35 17 -112 104 -226 209 -274 56 -26 73 -29
167 -29 98 0 109 2 172 33 142 69 288 243 407 483 145 293 244 640 258 905 5
106 3 129 -15 190 -27 88 -80 157 -160 211 -95 64 -216 92 -309 73z m34 -337
c28 -42 21 -171 -16 -315 -77 -298 -235 -592 -354 -662 -72 -42 -101 -44 -138
-7 -31 32 -31 32 -27 119 10 187 174 554 345 769 94 119 155 150 190 96z"/>
<path d="M15500 14614 c-92 -19 -147 -42 -185 -76 -57 -50 -63 -83 -69 -383
-3 -148 -14 -441 -25 -650 -111 -2062 -125 -3033 -57 -3855 14 -162 30 -383
36 -490 23 -391 24 -403 54 -453 21 -37 39 -52 89 -76 75 -36 189 -67 305 -82
244 -33 867 48 1105 142 86 35 107 56 107 109 0 47 -25 69 -115 105 -113 45
-192 45 -425 0 -148 -28 -211 -36 -263 -32 -37 2 -71 8 -75 12 -4 3 -5 228 -2
498 6 558 6 808 0 1532 -4 544 3 731 81 2280 31 617 47 1184 35 1249 -8 44
-56 100 -107 127 -108 54 -341 75 -489 43z m187 -470 c6 -8 18 -54 27 -102 15
-81 14 -115 -4 -467 -11 -209 -40 -652 -65 -985 -25 -333 -56 -791 -70 -1018
-27 -451 -32 -476 -82 -470 -14 2 -35 16 -47 31 -20 28 -21 41 -26 450 -5 435
0 580 40 1102 11 149 36 504 55 790 44 665 42 643 72 673 19 19 31 23 56 18
18 -3 37 -13 44 -22z m-137 -3249 c37 -19 50 -43 50 -95 0 -34 -6 -48 -34 -76
-39 -39 -76 -44 -119 -16 -57 38 -71 85 -42 142 28 54 90 73 145 45z m-5 -319
c40 -17 55 -42 55 -90 0 -48 -8 -65 -41 -81 -41 -22 -84 -18 -116 9 -50 44
-32 140 32 167 28 11 31 11 70 -5z m17 -313 c37 -40 41 -63 18 -101 -25 -41
-57 -54 -105 -41 -28 8 -40 19 -51 45 -38 91 72 167 138 97z"/>
<path d="M6742 14560 c-124 -23 -225 -71 -254 -123 -10 -16 -13 -98 -14 -312
0 -452 -29 -942 -99 -1725 -86 -962 -99 -1392 -64 -2190 15 -358 63 -803 104
-959 54 -209 131 -366 231 -471 88 -92 155 -133 287 -177 270 -90 515 -80 742
32 249 122 678 527 979 923 50 66 96 165 96 206 0 37 -17 74 -39 85 -11 6 -47
14 -80 18 -55 5 -67 3 -128 -27 -59 -29 -100 -65 -319 -284 -256 -257 -358
-350 -569 -519 -166 -134 -190 -136 -254 -23 -61 108 -142 438 -165 676 -42
420 -60 982 -46 1394 18 517 42 933 72 1224 10 101 13 113 32 117 12 3 128 16
258 30 367 39 524 69 636 122 96 45 90 98 -15 150 l-58 28 -230 -2 c-126 -1
-288 -6 -360 -11 -128 -9 -187 -4 -208 17 -7 7 -2 172 17 553 35 707 41 780
61 794 28 21 132 33 465 54 396 24 430 28 503 50 132 41 130 104 -3 163 -108
48 -174 56 -606 72 -225 8 -423 19 -439 23 -17 5 -54 21 -82 36 -29 14 -79 33
-110 41 -71 19 -269 27 -341 15z m171 -758 c37 -41 47 -125 47 -400 0 -224 -6
-332 -40 -720 -22 -251 -46 -547 -55 -657 -9 -110 -31 -359 -50 -554 -38 -385
-42 -401 -95 -401 -52 0 -53 11 -46 506 6 459 12 569 46 939 39 418 52 615 59
915 5 174 13 316 19 331 21 54 84 76 115 41z m-90 -2972 c44 -50 31 -116 -30
-145 -39 -19 -67 -13 -105 23 -35 32 -44 72 -24 111 22 41 44 52 91 47 28 -3
48 -14 68 -36z m-43 -345 c87 -45 63 -175 -33 -175 -29 0 -45 7 -68 29 -16 16
-29 39 -29 51 0 33 28 78 58 94 34 19 37 19 72 1z m-6 -366 c62 -29 53 -121
-13 -127 -24 -3 -40 3 -57 19 -44 42 -24 97 43 118 1 1 13 -4 27 -10z"/>
<path d="M17482 14560 c-124 -23 -225 -71 -254 -123 -10 -16 -13 -98 -14 -312
0 -452 -29 -942 -99 -1725 -86 -962 -99 -1392 -64 -2190 15 -358 63 -803 104
-959 54 -209 131 -366 231 -471 89 -92 155 -133 287 -177 273 -90 515 -80 742
32 249 122 678 527 979 923 48 64 96 167 96 208 0 35 -17 72 -39 83 -11 6 -47
14 -80 18 -55 5 -67 3 -128 -27 -59 -29 -100 -65 -319 -284 -256 -257 -358
-350 -569 -519 -166 -134 -190 -136 -254 -23 -61 108 -142 438 -165 676 -42
420 -60 982 -46 1394 18 516 42 933 72 1223 10 103 12 112 33 117 13 3 110 15
217 26 253 26 455 56 547 81 214 57 254 127 114 195 -53 26 -69 29 -188 32
-71 2 -233 -3 -360 -11 -146 -8 -246 -10 -272 -4 l-43 9 0 49 c0 77 59 1199
66 1252 4 29 12 51 23 56 35 19 146 31 461 51 395 24 430 28 503 50 132 41
130 104 -3 163 -108 48 -174 56 -606 72 -225 8 -423 19 -439 23 -17 5 -54 21
-82 36 -29 14 -79 33 -110 41 -71 19 -269 27 -341 15z m171 -758 c37 -41 47
-125 47 -402 0 -225 -6 -332 -39 -715 -22 -247 -47 -544 -56 -660 -34 -440
-84 -908 -100 -932 -11 -16 -25 -23 -45 -23 -52 0 -53 11 -46 506 6 459 12
569 46 939 39 418 52 615 59 915 5 174 13 316 19 331 21 54 84 76 115 41z
m-90 -2972 c44 -50 31 -116 -30 -145 -39 -19 -67 -13 -105 23 -35 32 -44 72
-24 111 22 41 44 52 91 47 28 -3 48 -14 68 -36z m-43 -345 c87 -45 63 -175
-33 -175 -29 0 -45 7 -68 29 -16 16 -29 39 -29 51 0 33 28 78 58 94 34 19 37
19 72 1z m-6 -366 c62 -29 53 -121 -13 -127 -24 -3 -40 3 -57 19 -44 42 -24
97 43 118 1 1 13 -4 27 -10z"/>
<path d="M25587 14484 c-170 -37 -275 -93 -390 -209 -375 -378 -703 -1123
-988 -2241 -33 -132 -64 -243 -69 -248 -5 -5 -15 -6 -23 -3 -21 8 -31 220 -30
667 1 343 14 690 48 1275 26 444 19 523 -56 609 -48 54 -110 81 -236 103 -82
13 -113 14 -193 5 -188 -22 -276 -65 -320 -157 -26 -54 -35 -160 -50 -620 -6
-170 -15 -400 -20 -510 -38 -794 -32 -1242 25 -1905 50 -573 153 -1415 211
-1715 52 -266 129 -552 202 -743 64 -171 158 -231 383 -248 104 -8 228 14 308
54 44 22 60 36 80 76 25 48 26 58 33 315 27 968 47 1313 109 1801 102 817 308
1621 605 2358 105 262 190 436 289 598 66 107 148 214 165 214 15 0 38 -91 74
-290 88 -485 100 -730 71 -1375 -39 -863 -46 -1104 -56 -1990 -5 -522 -9
-1058 -7 -1191 3 -281 0 -270 106 -302 91 -28 162 -34 252 -22 106 14 143 26
191 63 60 46 79 89 95 219 28 225 124 1139 144 1368 11 129 25 271 30 315 10
84 30 368 55 765 70 1145 57 1711 -51 2200 -33 149 -115 397 -155 466 -91 159
-242 261 -447 300 -94 18 -297 17 -385 -2z m-1823 -623 c10 -11 25 -45 34 -78
15 -52 17 -120 14 -658 -2 -330 4 -962 13 -1405 8 -443 13 -836 9 -873 -6 -65
-31 -117 -55 -117 -27 0 -66 57 -77 115 -10 47 -57 644 -107 1335 -3 41 1 417
8 835 13 666 16 765 31 800 9 22 24 46 33 53 25 18 77 15 97 -7z m49 -3274
c10 -6 20 -28 23 -48 5 -31 2 -39 -26 -63 -37 -31 -63 -28 -97 10 -30 32 -29
59 2 89 26 27 71 33 98 12z m50 -257 c51 -40 43 -114 -15 -150 -44 -27 -62
-25 -99 8 -25 23 -32 36 -33 71 -1 35 4 47 27 67 35 30 85 31 120 4z m29 -267
c22 -20 24 -85 4 -102 -8 -7 -34 -11 -57 -9 -35 2 -46 8 -58 29 -13 24 -12 29
8 63 18 29 29 36 54 36 17 0 39 -7 49 -17z"/>
<path d="M10815 14465 c-165 -31 -315 -91 -443 -178 -133 -91 -130 -90 -344
-111 -157 -16 -229 -47 -305 -129 -118 -130 -280 -495 -422 -952 -245 -786
-355 -1404 -386 -2180 -14 -327 38 -793 122 -1105 57 -212 184 -539 258 -665
23 -41 28 -44 98 -59 41 -9 105 -32 143 -50 71 -34 214 -139 214 -157 0 -6 22
17 49 49 56 67 155 138 207 148 19 3 34 7 34 9 0 1 -18 40 -39 87 -87 188
-142 396 -191 723 -6 39 -15 180 -20 315 -5 135 -14 319 -20 410 -37 535 64
1317 266 2065 54 199 90 274 149 315 23 16 47 35 53 43 7 8 21 66 32 127 75
435 265 746 592 964 l112 75 41 -22 c64 -35 157 -135 197 -212 40 -77 89 -232
112 -353 28 -151 39 -379 33 -719 -7 -424 -27 -610 -138 -1268 -203 -1210
-447 -1957 -815 -2492 -35 -51 -64 -96 -64 -100 0 -5 28 -24 62 -43 108 -61
248 -220 248 -282 0 -10 6 -18 14 -18 21 0 171 173 241 280 256 389 441 809
600 1363 167 578 362 1696 416 2378 16 211 7 855 -15 976 -23 130 -60 243
-119 358 -42 81 -67 116 -137 186 -119 120 -205 166 -400 210 -116 27 -329 33
-435 14z m-840 -890 c15 -14 25 -36 25 -53 0 -16 -33 -98 -74 -183 -139 -289
-249 -592 -331 -913 -60 -232 -83 -359 -159 -866 -94 -618 -84 -568 -112 -586
-17 -12 -31 -13 -51 -7 -46 16 -55 80 -43 313 30 564 101 1025 211 1385 80
257 237 612 352 790 96 150 131 172 182 120z m-651 -2766 c26 -31 30 -43 27
-89 -3 -32 -54 -80 -86 -80 -30 0 -93 56 -96 85 -3 43 2 58 32 86 43 40 88 40
123 -2z m-30 -330 c31 -25 33 -57 5 -93 -24 -30 -54 -33 -89 -9 -50 34 -51 50
-8 92 37 36 56 39 92 10z m31 -242 c71 -61 -4 -180 -86 -137 -21 12 -49 60
-49 86 0 10 12 31 27 46 33 34 72 36 108 5z"/>
<path d="M3700 14414 c-133 -25 -224 -73 -256 -135 -19 -37 -50 -187 -63 -304
-10 -87 -50 -650 -70 -980 -34 -563 -18 -1191 44 -1728 63 -535 232 -1416 376
-1950 80 -298 167 -566 212 -654 42 -79 135 -117 292 -117 109 0 175 17 232
61 29 21 33 30 33 68 0 24 -7 72 -15 107 -56 243 -124 923 -109 1089 l7 69 71
20 c319 91 578 200 755 317 118 78 269 227 343 338 184 274 345 711 447 1205
85 414 121 720 128 1078 10 473 -30 768 -132 977 -70 145 -170 227 -326 266
-118 30 -320 23 -427 -14 -232 -82 -365 -238 -587 -688 -188 -380 -283 -633
-460 -1221 -21 -71 -30 -88 -46 -88 -17 0 -19 8 -19 93 0 214 59 1337 80 1527
21 188 7 414 -32 513 -18 47 -94 105 -167 128 -65 21 -249 34 -311 23z m135
-551 c40 -39 44 -116 20 -335 -32 -299 -38 -467 -44 -1316 l-6 -874 -24 -19
c-37 -30 -58 -24 -90 26 -32 50 -31 46 -65 320 -43 342 -51 473 -51 850 0 442
27 811 80 1115 27 155 47 213 79 236 28 19 81 18 101 -3z m1640 -174 c51 -164
82 -565 65 -858 -26 -443 -105 -878 -246 -1361 -87 -294 -189 -542 -302 -737
-103 -177 -240 -307 -422 -402 -115 -60 -141 -62 -152 -11 -27 113 32 615 127
1095 173 873 550 1909 836 2298 27 37 54 65 59 62 5 -3 21 -42 35 -86z m-1666
-2621 c62 -64 45 -149 -36 -177 -51 -18 -96 -2 -124 43 -30 49 -25 92 15 132
47 47 100 48 145 2z m28 -300 c31 -29 37 -52 23 -93 -24 -72 -91 -86 -146 -31
-50 50 -44 108 14 141 34 19 78 12 109 -17z m38 -293 c52 -51 14 -139 -60
-139 -29 0 -43 7 -61 28 -28 31 -30 56 -9 96 17 32 27 38 73 39 22 1 41 -7 57
-24z"/>
<path d="M12510 14414 c-133 -25 -224 -73 -256 -135 -19 -37 -50 -187 -63
-304 -10 -87 -50 -650 -70 -980 -34 -563 -18 -1191 44 -1728 63 -535 232
-1416 376 -1950 80 -298 167 -566 212 -654 42 -79 135 -117 292 -117 109 0
175 17 233 61 28 21 32 30 32 68 0 24 -7 72 -15 107 -56 243 -124 923 -109
1089 l7 69 71 20 c319 91 578 200 755 317 118 78 269 227 343 338 189 281 350
721 453 1235 83 416 115 691 122 1042 10 478 -30 773 -132 983 -70 145 -170
227 -326 266 -118 30 -320 23 -427 -14 -111 -40 -180 -83 -262 -167 -93 -95
-172 -220 -311 -495 -194 -386 -292 -644 -474 -1247 -21 -71 -30 -88 -46 -88
-17 0 -19 8 -19 93 0 214 59 1337 80 1527 21 188 7 414 -32 513 -18 47 -94
105 -167 128 -65 21 -249 34 -311 23z m135 -551 c40 -39 44 -116 20 -335 -32
-299 -38 -467 -44 -1316 l-6 -874 -24 -19 c-37 -30 -58 -24 -90 26 -32 50 -31
46 -65 320 -43 342 -51 473 -51 850 0 442 27 811 80 1115 27 155 47 213 79
236 28 19 81 18 101 -3z m1640 -174 c51 -164 82 -565 65 -858 -26 -443 -105
-878 -246 -1361 -87 -294 -189 -542 -302 -737 -104 -178 -239 -306 -423 -402
-114 -60 -140 -62 -151 -11 -27 113 32 615 127 1095 173 873 550 1909 836
2298 27 37 54 65 59 62 5 -3 21 -42 35 -86z m-1666 -2621 c62 -64 45 -149 -36
-177 -51 -18 -96 -2 -124 43 -30 49 -25 92 15 132 47 47 100 48 145 2z m28
-300 c31 -29 37 -52 23 -93 -24 -72 -91 -86 -146 -31 -50 50 -44 108 14 141
34 19 78 12 109 -17z m48 -301 c38 -54 -3 -131 -70 -131 -29 0 -43 7 -61 28
-27 31 -30 53 -12 92 25 55 108 61 143 11z"/>
<path d="M22550 14410 c-188 -22 -301 -96 -350 -228 -26 -68 -53 -259 -80
-555 -93 -1040 -108 -1223 -174 -2257 -51 -797 -55 -887 -69 -1595 -19 -992
-13 -1065 101 -1152 83 -63 259 -95 415 -75 155 19 240 60 278 133 30 59 37
159 49 704 24 1059 67 2043 126 2880 17 242 148 1603 164 1699 16 101 12 235
-9 281 -55 121 -243 190 -451 165z m-45 -842 c42 -19 55 -56 55 -160 0 -95
-18 -455 -44 -883 -9 -132 -18 -310 -21 -395 -3 -85 -24 -401 -45 -701 -43
-596 -50 -641 -100 -647 -57 -6 -55 -29 -53 548 2 475 6 592 38 1108 37 609
62 978 71 1051 3 27 15 53 29 67 27 27 34 29 70 12z m-181 -2952 c43 -18 81
-91 67 -128 -23 -60 -110 -98 -151 -65 -72 56 -65 150 15 191 36 19 29 19 69
2z m9 -344 c26 -23 23 -96 -5 -116 -54 -38 -128 -2 -128 63 0 71 77 102 133
53z m-2 -261 c50 -50 31 -133 -38 -166 -42 -20 -76 -11 -113 31 -34 39 -38 77
-13 114 27 40 45 49 91 50 35 0 49 -6 73 -29z"/>
<path d="M9225 8935 c-23 -8 -58 -33 -81 -59 -78 -85 -214 -298 -338 -528
l-47 -88 -110 0 c-103 0 -112 -2 -134 -24 -31 -31 -41 -85 -23 -123 13 -27 16
-28 102 -31 78 -2 88 -5 83 -20 -3 -9 -33 -84 -67 -167 -215 -523 -345 -1093
-327 -1430 13 -230 79 -370 203 -431 49 -24 62 -26 147 -22 68 3 103 10 133
25 71 37 139 99 201 181 l60 80 -5 -87 c-5 -87 -4 -88 27 -123 56 -64 198
-106 321 -94 65 7 141 34 155 55 3 7 17 64 30 129 47 229 209 749 300 962 107
250 249 456 338 489 37 14 43 14 61 -5 36 -36 23 -80 -130 -426 -117 -264
-201 -495 -228 -630 -21 -101 -21 -258 0 -329 44 -152 161 -238 334 -247 70
-3 95 0 143 18 128 48 261 189 365 387 31 59 53 92 56 83 54 -154 97 -226 186
-316 113 -114 294 -184 440 -169 97 9 146 23 239 67 70 33 100 56 176 132 130
129 221 276 321 512 48 115 164 447 164 471 0 8 -11 25 -25 38 -27 28 -89 34
-117 13 -9 -7 -35 -60 -58 -118 -165 -418 -359 -651 -543 -651 -177 0 -283
172 -248 401 15 92 19 99 41 62 23 -38 74 -76 122 -91 60 -20 167 -15 234 10
89 33 187 135 248 259 66 136 89 228 90 375 1 180 -38 289 -139 384 -156 148
-400 174 -577 62 -132 -84 -274 -263 -388 -490 -64 -127 -112 -251 -140 -360
-20 -81 -95 -243 -168 -366 -112 -190 -199 -226 -196 -82 2 72 32 179 110 391
131 353 157 437 162 522 4 73 1 88 -23 143 -36 80 -130 169 -212 202 -47 19
-77 24 -158 24 -86 0 -107 -3 -150 -25 -105 -51 -271 -253 -390 -472 -26 -49
-49 -88 -51 -88 -7 0 85 251 147 399 175 421 389 735 567 829 68 36 75 52 51
123 -58 171 -353 323 -487 251 -96 -51 -211 -210 -339 -469 l-85 -173 -94 0
c-52 0 -94 3 -94 8 0 4 30 42 68 85 70 81 152 153 208 183 29 16 34 24 34 57
0 113 -173 280 -335 322 -72 18 -108 18 -160 0z m273 -900 c1 -1 -15 -49 -37
-106 -55 -151 -152 -448 -206 -633 -36 -127 -62 -191 -125 -315 -159 -311
-293 -476 -337 -415 -17 23 -16 57 2 175 46 308 219 823 397 1186 l59 121 122
-5 c67 -3 123 -7 125 -8z m2272 -381 c39 -101 -49 -378 -152 -482 -44 -45 -68
-56 -114 -50 -22 2 -33 12 -48 42 -18 37 -18 42 -3 115 24 113 104 267 177
341 50 52 63 60 94 60 30 0 38 -5 46 -26z"/>
<path d="M13835 8651 c-120 -30 -211 -143 -365 -456 -437 -888 -729 -2246
-577 -2684 54 -153 161 -271 291 -318 253 -91 521 50 617 324 88 251 70 720
-39 1046 l-28 84 50 18 c59 20 140 70 209 127 26 22 47 36 47 31 0 -5 -7 -56
-16 -114 -18 -120 -14 -302 10 -388 37 -135 131 -248 243 -292 87 -34 200 -33
269 3 142 74 259 262 404 648 34 91 66 172 72 180 7 12 8 10 3 -5 -58 -180
-81 -431 -51 -558 44 -189 153 -287 318 -287 113 0 172 25 264 113 80 75 137
154 207 286 l45 83 21 -64 c32 -96 88 -185 166 -263 179 -179 441 -221 691
-110 165 73 340 243 469 454 l39 63 18 -73 c64 -258 248 -445 488 -495 124
-26 266 -3 395 64 86 45 230 184 299 289 66 101 136 238 190 370 50 123 156
428 156 450 0 8 -11 25 -25 38 -27 28 -89 34 -117 13 -9 -7 -35 -60 -58 -118
-167 -422 -358 -651 -543 -651 -177 0 -283 172 -248 401 15 92 19 99 41 62 22
-36 74 -75 119 -91 57 -19 173 -14 238 11 88 32 186 135 247 258 66 136 89
228 90 375 1 180 -38 289 -139 384 -156 148 -400 174 -577 62 -94 -60 -208
-185 -301 -332 -48 -76 -137 -256 -172 -349 -17 -43 -68 -136 -122 -217 -282
-431 -545 -642 -689 -554 -153 93 -174 411 -52 781 40 122 76 201 127 282 45
71 116 143 157 158 31 12 84 13 84 2 0 -4 -16 -47 -35 -95 -158 -392 -128
-649 87 -757 71 -35 145 -42 130 -12 -43 82 1 287 108 507 67 136 137 239 220
325 39 40 73 83 76 96 9 35 -30 107 -83 154 -61 53 -161 102 -223 108 -50 5
-51 4 -103 -49 -28 -30 -61 -67 -72 -82 l-20 -28 -81 42 c-99 51 -182 61 -284
35 -260 -67 -533 -398 -660 -800 -80 -252 -241 -526 -337 -571 -34 -17 -36
-16 -57 4 -19 19 -21 33 -21 124 1 120 27 251 86 430 82 248 187 449 296 567
61 66 62 67 47 96 -25 47 -54 73 -122 106 -55 27 -75 32 -141 32 -100 0 -168
-31 -258 -116 -48 -46 -67 -59 -71 -48 -13 36 -106 119 -161 144 -117 52 -215
56 -336 12 -177 -64 -389 -281 -534 -547 -49 -89 -206 -257 -314 -333 -76 -54
-167 -95 -210 -96 -136 -1 -127 215 24 600 132 339 327 638 455 700 44 22 44
22 44 73 0 134 -141 291 -295 332 -64 16 -74 17 -120 6z m1261 -968 c43 -53
-18 -271 -151 -538 -128 -259 -265 -452 -346 -486 -30 -12 -33 -11 -52 12 -17
21 -18 33 -13 95 23 251 233 731 383 876 21 20 52 44 68 53 36 19 91 13 111
-12z m3094 -29 c39 -101 -49 -378 -152 -482 -44 -45 -68 -56 -114 -50 -22 2
-33 12 -48 42 -18 37 -18 42 -3 115 24 113 104 267 177 341 50 52 63 60 94 60
30 0 38 -5 46 -26z m-4682 -1126 c30 -62 44 -183 46 -373 1 -200 -10 -296 -46
-392 -38 -103 -107 -144 -145 -86 -49 75 9 657 83 843 19 47 42 50 62 8z"/>
<path d="M20172 8453 c-40 -20 -98 -132 -136 -267 -34 -117 -35 -203 -2 -239
46 -50 129 -77 178 -58 15 6 49 38 75 73 27 34 86 107 131 162 81 98 84 102
79 144 -14 131 -210 242 -325 185z"/>
<path d="M21155 7979 c-202 -31 -384 -137 -528 -307 -96 -114 -177 -245 -279
-452 -77 -154 -102 -196 -154 -252 -73 -78 -127 -182 -144 -278 -17 -90 -25
-107 -60 -125 -23 -12 -35 -13 -51 -5 -31 17 -39 52 -39 162 0 239 120 622
259 826 48 71 53 112 18 163 -49 74 -201 149 -299 149 -75 0 -104 -23 -154
-122 -95 -189 -181 -426 -244 -673 -137 -534 -93 -903 121 -1020 70 -37 189
-47 268 -20 66 22 156 88 208 153 l41 52 18 -28 c66 -101 202 -201 339 -248
69 -24 95 -28 195 -28 138 0 211 17 328 75 265 133 420 433 382 738 -17 132
-47 230 -147 481 -96 239 -113 293 -113 363 0 71 41 134 98 152 52 16 127 -37
186 -132 15 -25 36 -45 50 -49 77 -19 194 81 220 188 19 80 -95 183 -248 222
-74 20 -199 27 -271 15z m-388 -548 c0 -99 14 -157 73 -306 26 -66 53 -139 59
-162 51 -190 19 -389 -79 -484 -76 -74 -168 -83 -239 -23 -97 81 -70 281 45
337 46 22 50 22 148 -10 18 -6 19 -2 14 61 -10 126 -81 212 -193 237 -53 12
-56 14 -50 38 10 40 110 244 146 298 28 42 69 93 74 93 1 0 2 -35 2 -79z"/>
<path d="M2555 5609 c-299 -29 -728 -102 -815 -140 -65 -28 -74 -45 -54 -97
15 -37 15 -62 -5 -323 -11 -156 -23 -318 -26 -359 -3 -41 -12 -298 -20 -570
-9 -272 -22 -634 -31 -805 -42 -866 -20 -1959 42 -2090 24 -51 62 -67 175 -73
70 -3 110 0 152 12 96 28 91 0 99 526 3 250 9 469 12 485 10 51 35 437 46 710
6 143 15 321 20 395 20 278 31 525 39 863 4 191 10 349 13 352 16 16 150 27
364 30 258 3 300 9 333 51 42 53 -4 90 -144 119 -68 14 -116 16 -312 10 -222
-7 -233 -6 -233 11 0 11 -5 163 -10 338 -5 176 -8 321 -7 323 2 1 100 16 218
33 188 28 229 31 339 25 225 -13 242 -12 296 16 42 22 49 29 49 55 0 25 -7 33
-56 57 -103 51 -264 67 -484 46z m-579 -384 c15 -23 15 -50 5 -303 -7 -152
-17 -367 -22 -477 -6 -110 -14 -520 -17 -912 -5 -485 -10 -715 -18 -723 -7 -7
-15 -5 -26 7 -53 59 -69 1067 -28 1723 41 669 46 710 75 710 8 0 22 -11 31
-25z m-63 -2606 c17 -24 18 -30 6 -55 -31 -63 -119 -50 -119 18 0 68 72 91
113 37z m-18 -214 c34 -33 33 -77 -1 -104 -54 -42 -124 -14 -124 49 0 38 39
80 75 80 14 0 37 -11 50 -25z m3 -227 c7 -7 12 -26 12 -43 0 -37 -16 -55 -49
-55 -52 0 -78 54 -44 92 18 20 63 24 81 6z"/>
<path d="M8135 5597 c-75 -20 -124 -47 -140 -76 -16 -31 -26 -181 -56 -791
-38 -796 -37 -1268 6 -1935 47 -720 138 -1124 320 -1407 79 -122 146 -181 253
-220 84 -31 264 -31 344 1 177 69 225 210 379 1116 109 637 101 598 119 578 9
-10 47 -106 85 -213 116 -334 230 -592 336 -763 71 -115 183 -260 232 -302 89
-77 227 -124 327 -111 187 26 282 86 328 207 60 161 77 702 67 2114 -8 1085
-1 1300 51 1644 l16 104 -29 24 c-26 21 -36 23 -118 21 -73 -2 -100 -8 -139
-28 -91 -46 -82 -7 -127 -540 -5 -69 -14 -642 -19 -1275 -10 -1285 -22 -1645
-56 -1645 -20 0 -40 35 -114 207 -226 525 -410 1182 -525 1873 -25 151 -48
283 -51 292 -26 82 -239 113 -399 58 -73 -25 -139 -64 -160 -92 -8 -13 -15
-41 -15 -63 0 -39 31 -248 64 -437 l16 -87 -40 -218 c-21 -120 -53 -301 -70
-403 -98 -589 -259 -1409 -293 -1490 l-14 -33 -11 34 c-21 65 -61 235 -86 364
-46 243 -68 459 -92 930 -33 661 -30 1035 17 1905 29 531 29 552 3 587 -35 48
-121 75 -249 79 -69 2 -129 -1 -160 -9z m147 -304 c8 -10 18 -29 21 -42 3 -13
-3 -177 -13 -365 -28 -493 -40 -912 -41 -1396 0 -412 -8 -653 -21 -665 -10
-10 -46 13 -52 33 -17 54 -26 222 -37 719 -14 585 -9 793 30 1409 14 220 20
276 34 298 20 30 57 34 79 9z m-28 -2624 c20 -16 26 -29 26 -60 0 -34 -5 -42
-32 -59 -38 -23 -64 -19 -95 16 -29 31 -29 64 -2 98 25 32 66 34 103 5z m14
-235 c42 -29 18 -104 -34 -104 -29 0 -64 43 -57 70 6 21 39 50 58 50 6 0 21
-7 33 -16z m11 -208 c27 -29 21 -62 -14 -78 -48 -22 -91 32 -61 77 21 32 46
32 75 1z"/>
<path d="M5005 5430 c-75 -16 -177 -60 -249 -107 -221 -147 -548 -592 -736
-1003 -64 -141 -98 -225 -161 -407 -28 -81 -58 -161 -67 -178 -17 -30 -17 -29
-20 66 -2 59 15 287 43 585 25 269 47 552 48 629 3 172 -6 194 -97 239 -47 24
-75 31 -142 34 -156 8 -188 -11 -227 -135 -68 -214 -123 -574 -159 -1033 -17
-218 -17 -955 0 -1160 34 -414 121 -941 223 -1355 32 -128 109 -352 131 -380
35 -44 95 -68 184 -73 92 -5 148 9 165 40 9 16 3 118 -22 420 -30 364 -31 400
-17 414 17 18 30 11 170 -92 184 -135 419 -237 611 -264 79 -12 189 1 253 29
51 23 134 97 134 120 0 19 -42 62 -79 81 -13 7 -61 15 -106 17 -87 6 -119 -4
-178 -53 -32 -27 -41 -25 -158 34 -108 54 -167 97 -345 244 -152 126 -183 155
-184 170 0 3 37 19 83 33 107 35 273 122 362 188 141 105 345 321 483 512 321
446 573 1160 622 1762 11 133 2 312 -19 391 -40 146 -182 231 -401 238 -58 2
-123 -1 -145 -6z m183 -215 c25 -63 21 -342 -7 -525 -121 -798 -446 -1487
-912 -1935 -133 -127 -240 -200 -338 -230 l-24 -7 6 93 c14 198 106 646 198
959 171 585 402 1048 697 1401 133 158 296 293 346 287 12 -2 25 -18 34 -43z
m-1588 -335 c11 -11 22 -31 26 -46 10 -39 -1 -288 -31 -664 -14 -184 -27 -377
-28 -427 -1 -51 -5 -93 -9 -93 -5 0 -8 -139 -8 -308 0 -226 -3 -311 -12 -320
-23 -23 -46 -13 -66 31 -39 81 -45 177 -39 694 4 422 8 525 31 763 31 331 32
339 59 368 25 27 51 28 77 2z m-54 -2008 c13 -8 34 -46 34 -61 0 -5 -12 -23
-26 -40 -31 -37 -68 -40 -101 -9 -47 44 -19 118 45 118 20 0 42 -4 48 -8z m14
-228 c21 -25 1 -68 -33 -72 -16 -2 -35 2 -43 9 -17 14 -18 51 -2 67 17 17 63
15 78 -4z m-2 -180 c15 -10 22 -25 22 -46 0 -66 -69 -92 -109 -42 -27 34 -26
52 1 81 25 27 54 29 86 7z"/>
<path d="M20910 5365 c-70 -20 -102 -43 -116 -86 -7 -19 -21 -144 -33 -279
-29 -325 -79 -662 -196 -1327 -73 -411 -271 -1388 -305 -1502 -64 -216 -136
-391 -188 -460 l-25 -34 -24 48 c-58 112 -134 346 -174 528 -47 213 -88 658
-105 1127 -10 296 16 759 71 1240 27 235 27 350 0 417 -12 27 -23 35 -80 52
-80 25 -151 26 -224 3 -76 -24 -89 -46 -107 -183 -8 -62 -24 -166 -34 -229
-50 -294 -67 -518 -77 -1025 -8 -436 13 -739 78 -1125 67 -402 145 -636 287
-870 55 -91 93 -134 149 -167 101 -59 287 -75 395 -34 193 74 335 362 468 949
16 73 59 286 95 474 36 188 67 343 70 346 15 16 36 -93 60 -318 31 -294 30
-289 175 -1071 71 -386 115 -601 127 -622 28 -49 83 -71 178 -72 54 0 95 6
127 18 78 30 82 69 33 332 -28 148 -89 586 -105 750 -6 61 -19 187 -30 280
-33 283 -88 869 -100 1055 -5 96 -21 351 -35 565 -32 509 -35 573 -44 875 -6
170 -13 264 -21 282 -27 57 -186 91 -290 63z m-1284 -549 c14 -23 14 -47 -10
-313 -49 -542 -62 -750 -76 -1190 -9 -280 -15 -323 -46 -323 -33 0 -37 48 -38
460 0 461 11 678 59 1078 30 253 34 277 55 294 29 24 36 23 56 -6z m-64 -1933
c23 -21 24 -75 1 -95 -32 -28 -58 -30 -86 -7 -32 24 -36 72 -10 101 20 22 70
23 95 1z m20 -190 c10 -9 18 -27 18 -40 0 -28 -33 -63 -60 -63 -26 0 -60 34
-60 62 0 50 63 76 102 41z m3 -189 c32 -21 31 -30 -5 -49 -37 -19 -50 -13 -50
24 0 45 15 51 55 25z"/>
<path d="M15561 5325 c-126 -28 -137 -46 -145 -235 -9 -215 -33 -656 -56 -995
-21 -323 -43 -726 -61 -1110 -16 -364 -24 -1660 -10 -1711 25 -91 81 -120 251
-131 122 -7 202 12 283 67 56 38 62 40 135 40 206 0 453 72 628 183 125 78
326 272 438 421 305 406 510 1008 581 1706 23 218 31 632 16 811 -14 178 -59
406 -95 484 -39 85 -119 188 -179 229 -77 53 -161 77 -292 83 -210 10 -330
-40 -490 -202 -181 -183 -244 -294 -444 -783 -139 -338 -169 -407 -176 -400
-4 4 11 304 25 518 13 203 29 598 31 780 2 158 -4 180 -56 214 -67 44 -253 59
-384 31z m181 -412 c26 -30 29 -109 13 -358 -8 -132 -27 -519 -40 -860 -34
-826 -36 -849 -94 -830 -41 13 -46 39 -52 295 -7 262 6 624 42 1175 34 527 36
543 53 570 19 29 56 33 78 8z m1220 -158 c100 -302 103 -940 7 -1514 -49 -296
-173 -706 -278 -925 -100 -209 -230 -400 -372 -547 -74 -76 -274 -229 -345
-263 -44 -22 -51 -23 -66 -9 -35 31 -41 78 -35 282 3 109 12 232 21 276 54
284 282 1285 333 1460 108 373 309 810 513 1118 101 152 152 210 180 205 9 -2
26 -35 42 -83z m-1337 -2120 c14 -13 25 -36 25 -50 0 -33 -41 -75 -73 -75 -32
0 -64 28 -73 62 -5 22 0 33 24 58 37 36 65 38 97 5z m-24 -253 c28 -23 30 -73
4 -102 -27 -30 -78 -27 -104 6 -27 35 -26 59 4 89 29 30 64 32 96 7z m-3 -234
c33 -33 -2 -88 -55 -88 -45 0 -64 36 -39 75 18 28 72 35 94 13z"/>
<path d="M13846 5281 c-49 -66 -144 -153 -206 -188 -48 -27 -50 -29 -50 -73 0
-200 -37 -773 -80 -1255 -44 -495 -54 -729 -47 -1150 7 -390 15 -522 47 -777
58 -453 192 -629 524 -687 193 -35 371 20 561 171 197 158 501 491 552 607 38
85 23 120 -57 135 -71 12 -125 -26 -355 -253 -211 -208 -418 -386 -462 -397
-13 -4 -29 -1 -36 5 -48 39 -113 246 -142 446 -54 387 -54 1203 1 1805 8 90
17 167 20 169 2 3 95 15 207 28 233 26 337 45 404 74 77 32 89 69 34 102 -55
32 -108 36 -353 26 -155 -7 -243 -7 -255 -1 -18 10 -18 23 4 449 12 241 25
452 28 470 5 30 8 32 73 42 37 6 178 18 314 26 309 19 381 38 363 96 -9 26
-90 63 -171 78 -32 6 -184 15 -338 21 -262 9 -281 11 -330 34 -67 31 -121 46
-173 46 -38 0 -44 -4 -77 -49z m60 -511 c24 -67 17 -419 -16 -810 -53 -625
-92 -1025 -101 -1042 -6 -10 -21 -18 -34 -18 -18 0 -26 7 -31 27 -15 57 6 704
31 982 25 279 43 571 48 764 2 95 4 110 22 123 33 25 67 14 81 -26z m-95
-2021 c46 -24 45 -90 -2 -114 -48 -25 -99 8 -99 66 0 48 54 74 101 48z m11
-280 c16 -21 17 -30 8 -54 -13 -35 -26 -45 -59 -45 -56 0 -81 70 -40 111 26
26 66 22 91 -12z m-13 -243 c7 -8 11 -27 9 -43 -3 -25 -7 -28 -37 -28 -23 0
-38 7 -47 20 -28 43 43 90 75 51z"/>
<path d="M12550 5275 c-114 -26 -199 -75 -284 -166 -250 -266 -468 -763 -658
-1499 -27 -107 -53 -200 -57 -207 -4 -8 -11 -9 -21 -3 -25 15 -20 764 8 1242
23 399 21 450 -17 512 -41 66 -162 104 -299 93 -196 -16 -252 -68 -258 -241
-2 -50 -12 -260 -21 -466 -23 -505 -23 -1117 0 -1390 45 -521 118 -1118 168
-1362 32 -160 94 -382 134 -480 43 -105 93 -141 226 -161 68 -10 93 -9 162 6
155 32 159 40 169 357 13 425 28 739 44 915 66 729 233 1411 498 2035 69 163
186 368 239 418 l34 33 11 -28 c12 -29 54 -253 72 -383 20 -136 28 -412 19
-625 -5 -115 -16 -374 -24 -575 -22 -508 -33 -1913 -15 -1935 37 -45 177 -67
281 -45 66 14 123 54 140 97 12 32 91 726 114 1003 3 41 12 138 20 215 30 290
63 877 71 1235 11 480 -29 825 -127 1095 -29 79 -30 80 -84 104 -72 31 -148
88 -211 157 l-50 56 -110 4 c-72 2 -131 -1 -174 -11z m-1270 -425 c40 -21 45
-90 42 -526 -2 -226 2 -665 8 -974 14 -663 12 -690 -43 -676 -19 4 -29 16 -37
44 -6 20 -27 240 -46 487 l-36 450 7 535 c3 294 9 555 12 579 3 27 15 54 29
68 26 25 36 28 64 13z m58 -2319 c4 -26 -24 -61 -48 -61 -25 0 -52 35 -48 61
4 33 46 53 73 35 11 -7 21 -23 23 -35z m22 -151 c26 -26 25 -58 -2 -87 -21
-23 -53 -29 -74 -15 -15 10 -34 47 -34 66 0 24 37 56 65 56 14 0 34 -9 45 -20z
m20 -185 c6 -8 10 -26 8 -42 -3 -24 -8 -28 -38 -31 -24 -3 -38 2 -47 14 -17
23 -17 27 7 57 21 26 49 27 70 2z"/>
<path d="M27620 5275 c-114 -26 -199 -75 -284 -166 -250 -265 -469 -764 -658
-1499 -27 -107 -53 -200 -57 -207 -4 -8 -11 -9 -21 -3 -25 15 -20 764 8 1242
23 399 21 450 -17 512 -41 66 -162 104 -299 93 -196 -16 -252 -68 -258 -241
-2 -50 -12 -257 -21 -461 -23 -503 -23 -1123 0 -1395 45 -523 119 -1118 168
-1362 32 -160 94 -382 134 -480 43 -105 93 -141 226 -161 68 -10 93 -9 162 6
155 32 159 41 169 352 13 441 28 749 44 920 66 729 233 1411 498 2035 69 163
186 368 239 418 l34 33 11 -28 c12 -29 54 -253 72 -383 20 -136 28 -412 19
-625 -5 -115 -16 -374 -24 -575 -22 -508 -33 -1913 -15 -1935 37 -45 177 -67
281 -45 66 14 123 54 140 97 12 32 91 726 114 1003 3 41 12 138 20 215 30 290
63 877 71 1235 9 396 -13 670 -76 921 -73 296 -158 413 -338 470 -88 27 -252
34 -342 14z m-1270 -425 c40 -21 45 -90 42 -526 -2 -226 2 -665 8 -974 14
-663 12 -690 -43 -676 -19 4 -29 16 -37 44 -6 20 -27 240 -46 487 l-36 450 7
535 c3 294 9 555 12 579 3 27 15 54 29 68 26 25 36 28 64 13z m58 -2319 c4
-26 -24 -61 -48 -61 -25 0 -52 35 -48 61 4 33 46 53 73 35 11 -7 21 -23 23
-35z m22 -151 c26 -26 25 -58 -2 -87 -21 -23 -53 -29 -74 -15 -15 10 -34 47
-34 66 0 24 37 56 65 56 14 0 34 -9 45 -20z m20 -185 c6 -8 10 -26 8 -42 -3
-24 -8 -28 -38 -31 -24 -3 -38 2 -47 14 -17 23 -17 27 7 57 21 26 49 27 70 2z"/>
<path d="M6972 5255 c-88 -20 -192 -66 -281 -124 -83 -54 -93 -57 -229 -70
-163 -17 -217 -62 -316 -265 -103 -209 -195 -476 -285 -826 -175 -674 -216
-1322 -116 -1814 67 -335 228 -687 382 -838 115 -113 238 -165 408 -175 189
-10 302 34 428 167 201 213 405 639 541 1130 109 394 237 1131 276 1595 13
155 13 460 0 600 -32 336 -166 531 -420 607 -87 26 -299 33 -388 13z m209
-208 c112 -85 175 -242 200 -496 17 -173 6 -626 -21 -821 -117 -873 -292
-1553 -502 -1950 -90 -171 -252 -400 -282 -400 -22 0 -53 43 -105 147 -118
237 -158 435 -181 893 -23 470 -5 735 81 1180 36 186 122 527 144 572 9 18 36
51 61 73 42 38 45 44 58 126 19 115 72 269 127 364 57 100 168 219 271 289 45
31 87 56 94 56 7 0 32 -15 55 -33z m-743 -420 c12 -25 9 -35 -39 -135 -136
-281 -239 -600 -294 -907 -8 -49 -37 -236 -64 -414 -27 -178 -54 -328 -59
-333 -5 -5 -22 -8 -38 -6 -25 3 -30 8 -36 43 -8 48 6 316 27 510 47 423 133
732 292 1049 36 71 120 205 138 219 21 15 60 2 73 -26z m-463 -1907 c26 -29
24 -79 -4 -102 -32 -25 -48 -23 -82 11 -35 36 -36 54 -4 86 29 30 66 32 90 5z
m-15 -234 c15 -20 9 -56 -12 -70 -23 -14 -72 4 -76 27 -8 42 60 75 88 43z m19
-173 c47 -59 -27 -126 -79 -71 -25 28 -26 52 0 78 27 27 55 25 79 -7z"/>
<path d="M25062 5255 c-88 -20 -192 -66 -281 -124 -83 -54 -93 -57 -229 -70
-163 -17 -217 -62 -316 -265 -103 -209 -195 -476 -285 -826 -175 -674 -216
-1322 -116 -1814 67 -335 228 -687 382 -838 115 -113 238 -165 408 -175 189
-10 302 34 428 167 201 213 405 639 541 1130 109 394 237 1131 276 1595 13
155 13 460 0 600 -32 336 -166 531 -420 607 -87 26 -299 33 -388 13z m209
-208 c112 -85 175 -242 200 -496 17 -173 6 -626 -21 -821 -117 -873 -292
-1553 -502 -1950 -90 -171 -252 -400 -282 -400 -22 0 -53 43 -105 147 -118
237 -158 435 -181 893 -23 470 -5 735 81 1180 36 188 122 527 145 572 8 18 36
51 60 73 43 38 45 44 58 126 19 114 72 269 127 364 57 100 168 219 271 289 45
31 87 56 94 56 7 0 32 -15 55 -33z m-743 -420 c12 -25 9 -35 -39 -135 -136
-281 -239 -600 -294 -907 -8 -49 -37 -236 -64 -414 -27 -178 -54 -328 -59
-333 -5 -5 -22 -8 -38 -6 -25 3 -30 8 -36 43 -8 48 6 316 27 510 47 423 133
732 292 1049 36 71 120 205 138 219 21 15 60 2 73 -26z m-463 -1907 c26 -29
24 -79 -4 -102 -32 -25 -48 -23 -82 11 -35 36 -36 54 -4 86 29 30 66 32 90 5z
m-15 -234 c15 -20 9 -56 -12 -70 -23 -14 -72 4 -76 27 -8 42 60 75 88 43z m19
-173 c47 -59 -27 -126 -79 -71 -25 28 -26 52 0 78 27 27 55 25 79 -7z"/>
<path d="M21915 5217 c-153 -40 -163 -72 -206 -672 -40 -567 -36 -1058 12
-1490 66 -587 273 -1524 400 -1803 25 -56 33 -65 76 -84 105 -47 302 -19 318
45 4 14 -3 71 -14 127 -32 156 -62 449 -64 619 l-2 154 25 8 c471 141 662 259
813 501 164 263 281 661 359 1228 21 149 17 649 -5 770 -31 169 -80 285 -146
342 -66 58 -134 81 -252 86 -228 9 -360 -70 -497 -300 -157 -265 -290 -591
-422 -1035 -29 -97 -50 -99 -50 -5 0 156 39 874 60 1127 8 90 7 127 -7 200
-14 80 -20 94 -52 126 -20 20 -54 42 -76 49 -59 18 -211 22 -270 7z m131 -365
c38 -25 42 -80 18 -287 -13 -109 -18 -290 -23 -806 -6 -705 -6 -699 -52 -699
-34 0 -56 66 -78 236 -33 262 -44 479 -38 724 13 457 63 811 119 833 19 8 42
8 54 -1z m1149 -124 c54 -184 65 -554 24 -858 -54 -402 -169 -818 -299 -1085
-79 -163 -145 -254 -237 -324 -77 -60 -186 -116 -208 -108 -47 19 11 527 110
957 86 378 245 850 384 1145 75 158 178 325 201 325 5 0 16 -24 25 -52z
m-1158 -1830 c71 -76 -29 -177 -102 -103 -30 30 -32 64 -4 99 27 34 77 36 106
4z m20 -210 c28 -27 29 -48 2 -82 -28 -35 -61 -33 -93 5 -32 38 -32 44 -1 74
30 31 62 32 92 3z m31 -205 c6 -9 12 -26 12 -37 0 -52 -75 -76 -104 -34 -21
30 -20 40 5 72 17 22 27 26 48 21 14 -3 32 -13 39 -22z"/>
</g>
</svg>
