<?xml version="1.0" standalone="no"?>
<!DOCTYPE svg PUBLIC "-//W3C//DTD SVG 20010904//EN"
 "http://www.w3.org/TR/2001/REC-SVG-20010904/DTD/svg10.dtd">
<svg version="1.0" xmlns="http://www.w3.org/2000/svg"
 width="1063.000000pt" height="1063.000000pt" viewBox="0 0 1063.000000 1063.000000"
 preserveAspectRatio="xMidYMid meet">

<g transform="translate(0.000000,1063.000000) scale(0.100000,-0.100000)"
fill="#000000" stroke="none">
<path d="M3387 9449 c-173 -41 -314 -234 -431 -590 -122 -371 -135 -761 -35
-1070 98 -303 313 -531 537 -570 236 -41 464 151 576 485 52 157 70 289 71
526 0 225 -6 283 -52 465 -95 382 -315 695 -528 750 -65 17 -82 17 -138 4z
m122 -494 c44 -51 86 -139 131 -274 87 -263 100 -537 38 -786 -27 -106 -92
-240 -130 -269 l-28 -20 -34 25 c-80 57 -172 212 -212 359 -28 101 -26 378 4
526 33 168 116 416 153 461 19 22 46 15 78 -22z"/>
<path d="M6767 9449 c-173 -41 -314 -234 -431 -590 -122 -371 -135 -761 -35
-1070 98 -303 313 -531 537 -570 236 -41 464 151 576 485 52 157 70 289 71
526 0 224 -6 283 -51 461 -96 386 -315 698 -529 754 -65 17 -82 17 -138 4z
m122 -494 c44 -51 86 -139 131 -274 87 -261 100 -541 38 -789 -25 -100 -93
-238 -130 -266 l-28 -20 -34 25 c-55 39 -107 108 -152 204 -68 145 -78 194
-78 395 0 203 18 315 85 527 76 237 104 270 168 198z"/>
<path d="M1730 9430 c-19 -11 -73 -31 -120 -46 -154 -48 -214 -88 -251 -169
-32 -69 -19 -165 29 -218 28 -31 94 -60 141 -61 l43 -1 -5 -95 c-29 -559 -30
-616 -18 -818 18 -330 52 -506 126 -658 88 -181 233 -245 371 -163 124 73 350
316 484 519 111 169 172 316 206 497 23 122 15 373 -15 492 -64 253 -210 475
-387 591 -82 54 -228 105 -324 115 -36 4 -87 13 -114 21 -67 19 -124 17 -166
-6z m362 -452 c76 -40 129 -101 179 -203 59 -123 81 -219 81 -355 0 -141 -23
-236 -87 -365 -42 -85 -180 -281 -248 -353 -28 -29 -32 -31 -38 -14 -4 10 -13
102 -19 205 -20 288 -4 970 25 1095 7 31 35 28 107 -10z"/>
<path d="M8225 9379 c-222 -19 -643 -88 -708 -116 -47 -20 -91 -69 -107 -118
-28 -84 17 -198 93 -236 38 -20 52 -21 158 -16 l116 6 7 -417 c15 -926 50
-1135 200 -1203 56 -26 103 -24 164 7 98 49 121 122 92 289 -36 205 -42 309
-47 851 l-5 541 63 7 c35 4 123 6 194 5 142 -3 166 3 217 58 34 36 48 73 48
129 0 86 -45 148 -139 192 -64 29 -170 36 -346 21z"/>
<path d="M4833 9335 c-83 -42 -101 -78 -113 -225 -24 -303 -37 -1317 -21
-1617 7 -129 10 -145 34 -181 80 -122 284 -102 338 33 7 20 14 156 19 403 5
206 11 376 14 380 4 3 14 -14 23 -39 36 -93 125 -263 203 -388 194 -313 297
-411 432 -412 190 -3 303 133 354 422 42 240 -24 977 -116 1290 -39 131 -117
196 -226 187 -127 -11 -199 -131 -164 -273 73 -292 125 -718 118 -965 l-3
-125 -38 59 c-154 237 -235 429 -368 871 -106 352 -150 456 -230 537 -73 73
-164 88 -256 43z"/>
<path d="M2775 6449 c-117 -12 -181 -42 -216 -101 -24 -43 -24 -44 -21 -278 3
-178 -1 -274 -15 -395 -26 -230 -25 -696 0 -850 59 -348 197 -554 435 -648 65
-26 91 -30 162 -30 209 0 478 135 553 277 27 52 29 155 3 204 -35 68 -182 105
-259 66 -17 -9 -61 -39 -97 -67 -81 -63 -116 -77 -182 -77 -112 0 -161 61
-204 251 -20 88 -47 323 -39 336 1 2 41 10 90 18 187 33 267 100 268 224 0 64
-18 107 -62 144 -57 48 -122 56 -239 31 l-34 -7 7 154 c4 85 10 201 14 259 l6
105 190 -3 c226 -3 379 10 432 37 76 39 113 97 113 176 0 55 -14 92 -48 128
-54 57 -52 57 -424 56 -189 -1 -383 -6 -433 -10z"/>
<path d="M7845 6449 c-117 -12 -181 -42 -216 -101 -24 -43 -24 -44 -21 -278 3
-178 -1 -274 -15 -395 -26 -230 -25 -696 0 -850 59 -348 197 -554 435 -648 65
-26 91 -30 162 -30 209 0 478 135 553 277 27 52 29 155 3 204 -35 68 -182 105
-259 66 -17 -9 -61 -39 -97 -67 -81 -63 -116 -77 -182 -77 -112 0 -161 61
-204 251 -20 88 -47 323 -39 336 1 2 41 10 90 18 187 33 267 100 268 224 0 64
-18 107 -62 144 -57 48 -122 56 -239 31 l-34 -7 7 154 c4 85 10 201 14 259 l6
105 190 -3 c226 -3 379 10 432 37 76 39 113 97 113 176 0 55 -14 92 -48 128
-54 57 -52 57 -424 56 -189 -1 -383 -6 -433 -10z"/>
<path d="M1685 6431 c-54 -13 -95 -41 -122 -83 -27 -41 -28 -44 -35 -257 -4
-119 -17 -387 -28 -596 -12 -209 -24 -528 -27 -710 -9 -517 12 -625 132 -685
44 -22 61 -25 148 -23 175 4 562 60 621 90 74 37 109 92 110 173 1 73 -37 141
-95 171 -52 26 -119 26 -318 0 -84 -12 -163 -21 -174 -21 -20 0 -20 2 -14 338
3 185 11 504 18 707 6 204 9 465 7 581 -4 211 -4 212 -30 246 -42 55 -126 85
-193 69z"/>
<path d="M5897 6347 c-54 -17 -106 -63 -128 -111 -10 -23 -29 -98 -43 -166
-67 -335 -186 -1316 -189 -1570 -2 -113 0 -129 21 -167 56 -106 200 -134 292
-57 62 52 59 37 120 629 48 466 59 557 70 568 4 5 22 -35 39 -88 46 -144 129
-338 171 -403 43 -67 117 -138 165 -158 43 -18 146 -18 188 -1 114 48 197 201
282 518 20 74 41 138 46 144 5 5 9 6 9 2 0 -26 86 -575 116 -737 58 -325 99
-465 154 -532 96 -116 269 -97 331 37 26 55 24 87 -11 201 -56 180 -123 544
-175 943 -33 259 -50 354 -86 491 -82 310 -204 435 -376 385 -125 -37 -185
-151 -334 -639 -32 -103 -62 -193 -67 -198 -5 -5 -17 19 -31 64 -197 648 -300
833 -476 852 -28 3 -67 0 -88 -7z"/>
<path d="M4576 6339 c-219 -18 -642 -87 -709 -116 -47 -20 -91 -69 -107 -118
-28 -84 17 -198 93 -236 38 -20 52 -21 158 -16 l116 6 7 -417 c15 -926 50
-1135 200 -1203 56 -26 103 -24 164 7 38 19 59 38 76 67 36 63 38 99 16 221
-36 203 -42 307 -47 852 l-5 541 63 7 c35 4 123 6 194 5 142 -3 166 3 217 58
34 36 48 73 48 129 0 86 -45 148 -139 192 -64 30 -162 36 -345 21z"/>
<path d="M8356 3655 c-56 -20 -87 -45 -115 -94 -21 -38 -24 -62 -31 -199 -16
-312 -23 -1052 -10 -1142 25 -187 72 -278 158 -305 35 -10 107 -8 146 5 31 10
105 78 106 98 1 4 5 26 9 50 6 29 4 66 -7 115 -12 59 -14 138 -11 442 8 759 6
907 -13 942 -23 41 -72 78 -123 92 -50 14 -61 13 -109 -4z"/>
<path d="M5620 3645 c-19 -9 -45 -26 -58 -38 -52 -48 -54 -63 -63 -372 -30
-1042 -45 -1292 -85 -1418 -22 -68 -41 -59 -91 42 -73 149 -120 326 -150 564
-23 185 -22 569 2 687 36 178 31 248 -22 311 -96 113 -265 91 -335 -44 -67
-133 -90 -753 -39 -1072 67 -412 184 -706 343 -862 128 -126 311 -146 460 -52
151 97 248 342 277 704 26 310 51 1265 37 1376 -8 66 -42 124 -93 159 -44 30
-132 37 -183 15z"/>
<path d="M6265 3611 c-54 -13 -95 -41 -122 -83 -27 -41 -28 -44 -35 -262 -5
-122 -17 -387 -29 -591 -11 -203 -23 -521 -26 -705 -9 -522 11 -630 132 -690
44 -22 61 -25 148 -23 175 4 562 60 621 90 74 37 109 92 110 173 1 73 -37 141
-95 171 -52 26 -119 26 -318 0 -84 -12 -163 -21 -174 -21 -20 0 -20 2 -14 338
3 185 11 504 18 707 6 204 9 465 7 581 -4 211 -4 212 -30 246 -42 55 -126 85
-193 69z"/>
<path d="M2549 3590 c-21 -11 -53 -38 -72 -61 -40 -46 -29 -17 -315 -874 -104
-313 -228 -678 -275 -810 -101 -283 -116 -346 -99 -404 33 -109 149 -167 250
-125 82 34 110 79 192 304 29 80 58 150 64 157 21 23 263 55 420 57 l149 1 42
-100 c58 -140 90 -199 132 -246 97 -108 239 -116 327 -19 71 79 68 157 -10
267 -77 108 -139 277 -243 658 -38 138 -85 327 -106 420 -20 94 -52 241 -71
327 -67 307 -110 400 -205 449 -50 25 -132 25 -180 -1z m127 -1110 c38 -158
51 -226 43 -231 -16 -10 -259 -32 -267 -24 -4 3 26 104 67 223 85 254 90 267
97 260 2 -3 29 -106 60 -228z"/>
<path d="M3600 3570 c-19 -11 -73 -31 -120 -46 -154 -48 -214 -88 -251 -169
-32 -69 -19 -165 29 -218 28 -31 94 -60 141 -61 l43 -1 -5 -95 c-27 -518 -30
-620 -18 -819 18 -328 52 -505 126 -657 88 -181 233 -245 371 -163 124 73 350
316 484 519 111 169 172 316 206 497 23 122 15 373 -15 492 -64 252 -210 476
-387 591 -82 54 -228 105 -324 115 -36 4 -87 13 -114 21 -67 19 -124 17 -166
-6z m362 -452 c76 -40 129 -101 179 -203 59 -123 81 -219 81 -355 0 -142 -23
-238 -87 -365 -43 -86 -181 -282 -248 -353 -28 -29 -32 -31 -38 -14 -4 10 -13
102 -19 205 -20 288 -4 970 25 1095 7 31 35 28 107 -10z"/>
<path d="M7596 3519 c-219 -18 -642 -87 -709 -116 -47 -20 -91 -69 -107 -118
-28 -84 17 -198 93 -236 38 -20 52 -21 158 -16 l116 6 7 -412 c15 -930 50
-1140 200 -1208 56 -26 103 -24 164 7 38 19 59 38 76 67 36 63 38 99 16 221
-36 203 -42 307 -47 852 l-5 541 63 7 c35 4 123 6 194 5 142 -3 166 3 217 58
34 36 48 73 48 129 0 86 -45 148 -139 192 -64 30 -162 36 -345 21z"/>
<path d="M8302 1744 c-110 -55 -153 -195 -95 -309 44 -85 128 -145 203 -145
107 0 203 80 230 190 24 99 -40 218 -144 266 -68 32 -128 31 -194 -2z"/>
</g>
</svg>
