<?xml version="1.0" standalone="no"?>
<!DOCTYPE svg PUBLIC "-//W3C//DTD SVG 20010904//EN"
 "http://www.w3.org/TR/2001/REC-SVG-20010904/DTD/svg10.dtd">
<svg version="1.0" xmlns="http://www.w3.org/2000/svg"
 width="3000.000000pt" height="3000.000000pt" viewBox="0 0 3000.000000 3000.000000"
 preserveAspectRatio="xMidYMid meet">

<g transform="translate(0.000000,3000.000000) scale(0.100000,-0.100000)"
fill="#000000" stroke="none">
<path d="M20430 28781 c-94 -14 -200 -91 -253 -182 -39 -67 -60 -161 -55 -245
9 -142 94 -263 236 -337 100 -53 107 -66 107 -202 -1 -210 -84 -404 -215 -500
-52 -38 -71 -72 -49 -86 23 -14 160 -10 224 6 114 30 203 82 296 175 90 90
134 151 204 283 80 150 87 185 93 417 7 306 -8 367 -118 498 -66 79 -130 126
-204 152 -61 22 -196 33 -266 21z"/>
<path d="M5535 27979 c-27 -6 -88 -28 -134 -50 -131 -61 -150 -88 -83 -115
147 -59 244 -130 283 -206 10 -20 23 -68 29 -105 6 -41 10 -446 10 -1006 l0
-937 -60 -115 c-33 -63 -60 -125 -60 -137 0 -12 18 -52 40 -88 75 -125 73 -93
77 -1120 4 -920 1 -1036 -31 -1098 -41 -80 -208 -202 -277 -202 -49 0 -42 -46
13 -89 80 -63 220 -98 353 -87 104 8 167 27 286 86 l96 49 109 -55 c133 -67
224 -89 339 -80 126 10 251 57 294 113 30 37 23 56 -20 64 -20 3 -57 18 -83
33 -59 35 -167 140 -191 185 -27 54 -37 423 -32 1236 5 806 6 811 77 942 55
99 52 128 -25 278 l-57 110 5 925 c5 992 7 1034 56 1114 34 55 108 116 179
148 91 40 94 42 106 61 23 36 -81 104 -210 137 -148 38 -270 20 -437 -65
l-108 -55 -87 44 c-48 24 -118 54 -157 66 -81 25 -225 34 -300 19z m450 -926
c7 -19 -9 -38 -24 -29 -17 11 -14 57 3 50 8 -3 17 -13 21 -21z m123 -805 c-2
-15 -11 -24 -26 -26 -20 -3 -21 -1 -11 22 15 33 42 35 37 4z m237 -893 c0 -25
-46 -33 -64 -11 -19 22 -4 38 32 34 24 -2 32 -8 32 -23z m-201 -281 c10 -27 7
-34 -17 -34 -31 0 -38 9 -26 31 12 23 35 25 43 3z m-129 -244 c0 -18 -33 -26
-48 -11 -9 9 -8 14 3 21 21 14 45 8 45 -10z m216 -1640 c33 -18 21 -30 -30
-30 -49 0 -87 22 -59 33 23 9 69 7 89 -3z"/>
<path d="M9385 27976 c-86 -20 -147 -49 -195 -92 -56 -51 -52 -76 12 -86 62
-8 141 -52 198 -109 53 -53 77 -98 91 -172 6 -31 13 -434 16 -997 l5 -946 -40
-66 c-65 -106 -94 -169 -94 -203 0 -18 14 -54 32 -84 84 -137 92 -232 94
-1246 1 -953 3 -935 -101 -1046 -59 -63 -133 -110 -196 -124 -64 -14 -71 -34
-27 -75 67 -63 212 -110 340 -110 100 0 187 24 300 80 l104 52 115 -56 c157
-75 183 -79 581 -71 604 11 705 23 875 97 337 147 593 393 756 724 97 198 113
314 129 939 12 457 24 662 43 726 8 25 30 69 50 98 48 70 49 107 1 198 -79
152 -76 130 -85 693 -4 278 -12 552 -19 610 -36 334 -174 625 -410 860 -196
197 -441 330 -703 384 -152 31 -821 48 -1007 26 -73 -9 -101 -19 -202 -70
l-118 -60 -98 49 c-53 27 -122 56 -152 65 -77 23 -221 29 -295 12z m1120 -217
c12 -13 -20 -39 -48 -39 -24 0 -57 18 -57 31 0 26 80 32 105 8z m-306 -47 c7
-14 15 -57 18 -94 l6 -68 -29 0 c-16 0 -49 9 -73 21 -44 19 -46 33 -6 41 17 3
20 11 20 61 1 79 36 101 64 39z m-187 -42 c-6 -15 -11 -19 -16 -12 -10 17 4
56 15 45 6 -6 6 -19 1 -33z m916 28 c7 -7 12 -36 12 -64 0 -43 -4 -56 -21 -68
-22 -15 -22 -15 16 -51 l39 -36 -21 -21 -21 -21 -44 26 c-43 25 -140 120 -171
168 -20 30 -13 59 14 59 33 0 68 -22 95 -61 34 -50 55 -52 47 -5 -11 69 19
110 55 74z m-1103 -33 c0 -13 -8 -21 -22 -23 -19 -3 -23 1 -23 23 0 22 4 26
23 23 14 -2 22 -10 22 -23z m1444 -22 c0 -10 -4 -27 -9 -38 -7 -16 -9 -13 -9
18 -1 20 4 37 9 37 6 0 10 -8 9 -17z m285 -35 c30 -48 53 -172 37 -197 -8 -13
-12 -13 -27 0 -47 39 -82 177 -52 207 17 17 26 15 42 -10z m-1124 -88 c19 -12
21 -123 3 -141 -19 -19 -100 23 -113 57 -13 34 -13 37 11 68 21 27 69 35 99
16z m220 -90 c0 -27 -23 -82 -41 -97 -21 -17 -62 -25 -78 -14 -17 11 -4 37 46
92 39 43 73 52 73 19z m771 -10 c15 -55 8 -130 -12 -130 -17 0 -49 65 -49 101
0 59 47 81 61 29z m309 15 c16 -19 3 -55 -20 -55 -23 0 -36 36 -20 55 7 8 16
15 20 15 4 0 13 -7 20 -15z m-683 -51 c8 -21 -21 -44 -47 -37 -19 5 -27 33
-13 46 13 13 54 7 60 -9z m-1085 -46 c27 -22 30 -53 7 -73 -19 -18 -23 -18
-47 -4 -35 19 -40 52 -10 73 27 19 30 19 50 4z m1308 -28 c0 -19 -5 -30 -14
-30 -19 0 -29 30 -15 46 18 22 29 16 29 -16z m-1415 -70 c34 -38 -12 -102 -50
-70 -19 16 -19 40 1 68 19 27 26 27 49 2z m1159 -71 c115 -12 174 -30 236 -72
107 -73 224 -210 255 -296 24 -68 34 -255 41 -756 l7 -470 -72 -142 c-39 -79
-71 -147 -71 -152 0 -5 20 -33 45 -63 25 -30 52 -74 60 -98 28 -81 37 -283 32
-738 -6 -570 -13 -600 -157 -742 -129 -127 -221 -178 -367 -200 -37 -6 -205
-12 -373 -13 l-305 -2 -3 795 -3 795 72 145 71 146 -71 142 -71 142 0 801 0
802 288 -7 c158 -4 331 -11 386 -17z m736 -38 c17 -33 12 -53 -12 -49 -23 3
-34 28 -24 54 8 20 23 18 36 -5z m239 -37 c42 -35 40 -48 -6 -39 -46 8 -83 30
-83 50 0 25 55 18 89 -11z m-1839 -28 c0 -21 -6 -36 -15 -40 -21 -8 -30 20
-17 50 16 34 32 30 32 -10z m-400 -86 c0 -18 -40 -32 -56 -19 -23 19 -16 29
21 29 19 0 35 -4 35 -10z m2204 -83 c16 -25 -5 -51 -43 -55 -27 -3 -31 0 -31
22 0 14 9 31 22 40 26 18 37 17 52 -7z m-142 -194 c38 -34 9 -86 -37 -65 -33
15 -69 73 -52 84 17 12 67 1 89 -19z m-1838 -76 c8 -12 7 -20 -1 -28 -16 -16
-33 -2 -33 27 0 28 17 28 34 1z m2034 -34 c47 -29 8 -64 -54 -49 -24 6 -42 45
-29 65 7 13 50 5 83 -16z m-1969 -127 c15 -16 25 -42 28 -70 6 -46 5 -46 -24
-46 -37 0 -47 11 -62 74 -10 40 -10 51 1 57 21 14 33 10 57 -15z m-159 -211
c18 -21 4 -64 -25 -77 -21 -9 -28 -8 -45 7 -22 20 -26 55 -8 73 17 17 63 15
78 -3z m2214 -37 c19 -30 31 -78 19 -78 -16 0 -83 70 -83 85 0 24 48 18 64 -7z
m-2134 -178 c13 -24 5 -41 -15 -34 -26 10 -30 54 -5 54 5 0 14 -9 20 -20z
m1958 -81 c4 -48 -20 -70 -48 -44 -20 18 -27 65 -13 79 4 4 19 6 33 4 21 -3
25 -9 28 -39z m-58 -106 c8 -8 -40 -43 -59 -43 -18 0 -41 18 -41 32 0 22 80
31 100 11z m-1665 -653 c8 -24 -1 -40 -21 -40 -8 0 -14 10 -14 23 0 40 24 51
35 17z m1770 -221 c4 -12 2 -26 -4 -32 -15 -15 -46 16 -38 37 9 23 34 20 42
-5z m-1840 -40 c9 -13 -20 -45 -46 -52 -27 -7 -32 7 -15 48 13 31 18 35 35 25
11 -5 23 -15 26 -21z m-335 -49 c0 -42 -24 -56 -49 -31 -25 25 -27 54 -5 76
15 15 18 15 35 -1 11 -9 19 -29 19 -44z m150 41 c26 -50 2 -142 -34 -128 -12
5 -16 20 -16 70 0 35 3 67 7 70 12 13 32 7 43 -12z m107 -157 c5 -15 -31 -63
-41 -53 -5 5 -9 29 -7 52 1 22 39 23 48 1z m0 -110 c3 -8 1 -20 -6 -27 -8 -8
-15 -6 -26 9 -20 26 -19 34 5 34 11 0 23 -7 27 -16z m1953 -19 c16 -20 4 -35
-29 -35 -35 0 -56 21 -39 38 16 16 53 15 68 -3z m-201 -281 c10 -23 9 -25 -11
-22 -15 2 -24 11 -26 26 -5 31 22 29 37 -4z m-1755 -383 c9 -14 -22 -34 -40
-27 -13 5 -14 9 -4 21 14 17 36 20 44 6z m-160 -313 c9 -12 16 -28 16 -35 0
-18 -29 0 -53 33 -17 23 -17 24 2 24 11 0 27 -10 35 -22z m6 -297 c0 -15 -29
-33 -45 -27 -18 7 -20 43 -2 49 14 5 47 -10 47 -22z m294 13 c31 -12 5 -54
-33 -54 -15 0 -14 33 1 48 14 14 12 14 32 6z m-180 -100 c22 -8 20 -31 -4 -44
-14 -8 -26 -8 -40 0 -45 24 -6 63 44 44z m120 -10 c11 -29 6 -44 -14 -44 -14
0 -20 7 -20 23 0 37 23 51 34 21z m1117 -98 c23 -51 25 -96 4 -96 -29 0 -70
122 -49 143 11 11 25 -4 45 -47z"/>
<path d="M14350 27984 c-206 -24 -332 -60 -482 -135 -262 -131 -538 -405 -658
-654 -104 -214 -125 -375 -150 -1171 -14 -435 -32 -546 -108 -657 -18 -25 -32
-53 -32 -61 0 -9 18 -42 39 -74 87 -127 91 -153 101 -757 9 -529 18 -655 59
-816 48 -187 143 -368 279 -529 132 -156 275 -267 457 -356 223 -108 390 -147
640 -148 200 0 302 15 476 74 211 70 353 157 516 314 262 252 391 509 433 866
6 52 15 309 20 570 5 261 14 511 20 554 15 102 42 174 89 234 20 26 40 52 44
59 5 7 -10 34 -37 67 -53 65 -80 135 -96 242 -6 43 -15 300 -20 569 -11 599
-21 684 -101 890 -180 464 -596 819 -1055 900 -86 15 -363 28 -434 19z m-430
-582 c0 -25 -35 -58 -45 -42 -8 12 20 60 35 60 6 0 10 -8 10 -18z m25 -113 c0
-17 -6 -24 -20 -24 -23 0 -33 34 -13 46 20 13 33 5 33 -22z m1529 -124 c3 -8
-2 -19 -9 -25 -18 -15 -65 -4 -65 15 0 31 62 40 74 10z m-785 -21 c42 -14 101
-41 132 -59 108 -66 213 -195 246 -303 32 -105 40 -853 12 -1164 -10 -120 -29
-172 -83 -237 -43 -52 -42 -73 7 -161 81 -146 79 -140 88 -292 10 -187 10
-603 0 -843 -13 -288 -36 -352 -172 -479 -80 -76 -149 -118 -236 -146 -212
-66 -432 -8 -608 161 -45 43 -94 101 -109 128 -55 102 -59 141 -63 683 -3 320
-1 522 6 565 7 48 28 104 69 188 l59 120 -59 120 c-37 76 -62 142 -68 180 -13
82 -13 886 1 1021 21 214 73 312 221 424 92 70 138 92 219 109 30 6 63 13 74
15 47 11 190 -5 264 -30z m861 -809 c26 -32 -13 -81 -47 -59 -35 22 -23 74 17
74 10 0 23 -7 30 -15z m-22 -228 c2 -10 1 -25 -2 -33 -9 -22 -46 5 -46 34 0
19 5 23 22 20 13 -2 24 -11 26 -21z m-2248 -207 c13 -24 5 -41 -15 -34 -26 10
-30 54 -5 54 5 0 14 -9 20 -20z m2168 -88 c2 -14 -2 -22 -11 -22 -19 0 -40 26
-32 40 11 18 40 6 43 -18z m52 -66 c7 -10 8 -21 3 -31 -8 -14 -11 -14 -27 4
-10 11 -15 25 -11 30 9 15 20 14 35 -3z m114 -105 c10 -16 -5 -41 -24 -41 -23
0 -34 16 -26 35 6 16 42 20 50 6z m105 -307 c15 -33 6 -64 -19 -64 -19 0 -30
19 -30 54 0 44 31 50 49 10z m-301 -406 c-2 -15 -10 -23 -23 -23 -13 0 -21 8
-23 23 -3 18 1 22 23 22 22 0 26 -4 23 -22z m55 -160 c8 -12 8 -24 -1 -42 -19
-43 -72 -28 -72 21 0 40 52 55 73 21z m57 -106 c0 -21 -18 -42 -37 -42 -13 0
-18 41 -6 53 14 14 43 7 43 -11z m154 -158 c22 -57 -11 -143 -37 -99 -21 36
-36 85 -31 100 8 20 60 19 68 -1z m-2389 -84 c0 -18 -6 -26 -21 -28 -26 -4
-40 24 -23 45 18 21 44 11 44 -17z m2091 -176 c14 -56 -24 -170 -48 -146 -17
17 -23 159 -8 177 16 20 48 3 56 -31z m252 -41 c3 -19 -1 -23 -22 -23 -29 0
-39 11 -30 35 10 24 48 15 52 -12z m-92 -118 c14 -19 31 -35 36 -35 5 0 24 16
42 35 24 26 42 35 65 35 19 0 31 -5 31 -13 0 -19 -53 -98 -89 -131 l-31 -30
-42 31 c-67 48 -81 71 -66 111 7 17 16 32 20 32 4 0 19 -16 34 -35z m-2086
-69 c0 -25 -15 -37 -37 -28 -14 4 -18 34 -6 45 3 4 15 7 25 7 12 0 18 -7 18
-24z m1958 -274 c5 -32 -16 -56 -34 -41 -15 12 -19 51 -7 63 14 13 38 0 41
-22z m-1814 -14 c14 -20 14 -23 1 -31 -22 -12 -55 1 -55 22 0 37 31 42 54 9z
m1967 -78 c43 -23 8 -58 -45 -44 -23 5 -46 30 -46 48 0 10 70 6 91 -4z m-224
-132 c3 -16 15 -35 26 -43 18 -12 19 -18 9 -40 -13 -29 -39 -42 -53 -28 -14
14 -34 117 -26 136 9 25 37 9 44 -25z m-125 -23 c3 -3 1 -24 -4 -46 -12 -46
-38 -65 -69 -49 -29 16 -23 70 11 87 26 13 53 17 62 8z m-131 -92 c3 -49 -12
-73 -36 -53 -15 13 -21 51 -8 63 13 14 43 7 44 -10z m141 -70 c6 -24 -1 -53
-13 -53 -5 0 -9 16 -9 35 0 36 15 48 22 18z m-1158 -42 c10 -11 16 -31 14 -48
-2 -22 -8 -28 -28 -28 -32 0 -56 45 -40 75 13 25 32 26 54 1z m924 -89 c3 -19
-1 -23 -15 -20 -10 2 -19 14 -21 26 -3 19 1 23 15 20 10 -2 19 -14 21 -26z
m320 -4 c18 -18 14 -38 -8 -38 -15 0 -20 7 -20 25 0 27 9 32 28 13z m-1378
-79 c0 -14 -20 -20 -40 -14 -24 8 -25 18 -3 40 16 16 17 16 30 -1 7 -10 13
-21 13 -25z m430 31 c12 -7 12 -12 -4 -29 -11 -12 -25 -21 -33 -21 -19 0 -27
28 -13 45 14 17 29 19 50 5z"/>
<path d="M16591 27975 c-147 -27 -251 -83 -251 -137 0 -19 47 -48 77 -48 36 0
140 -59 190 -107 57 -56 74 -97 94 -233 8 -49 13 -377 16 -957 l5 -882 -83
-158 -82 -158 72 -118 71 -118 0 -1000 0 -1000 -40 -58 c-49 -73 -124 -134
-216 -177 -97 -45 -102 -54 -65 -97 69 -78 245 -121 412 -100 86 11 116 22
300 106 l55 25 68 -43 c103 -67 180 -89 306 -90 115 0 164 12 280 70 78 39
109 69 94 92 -5 9 -40 26 -77 38 -138 47 -213 113 -241 213 -35 125 -39 281
-39 1332 0 961 6 1320 22 1320 11 0 238 -544 603 -1445 467 -1151 476 -1172
589 -1290 268 -279 730 -406 1061 -291 133 46 176 107 101 139 -21 9 -54 21
-74 27 -47 14 -138 79 -171 122 -56 74 -68 111 -79 255 -5 76 -13 510 -16 964
l-6 826 79 149 c44 82 80 154 82 161 2 6 -15 35 -36 63 -22 29 -49 80 -60 114
-43 132 -47 220 -47 1166 l0 895 48 67 c51 72 128 134 234 187 34 17 64 35 67
40 12 18 -53 78 -112 104 -106 48 -258 58 -391 25 -25 -6 -95 -33 -154 -60
-120 -55 -128 -56 -205 -8 -26 15 -83 41 -127 56 -111 38 -264 40 -375 6 -121
-38 -199 -97 -183 -140 3 -6 31 -19 62 -28 111 -32 198 -90 241 -159 11 -18
27 -66 35 -107 28 -138 38 -645 31 -1558 -6 -844 -11 -1049 -27 -1033 -21 22
-246 558 -512 1218 -311 773 -525 1275 -589 1383 -39 66 -153 185 -222 232
-72 49 -271 145 -351 170 -153 47 -326 60 -464 35z m2519 -629 c0 -27 -28 -43
-36 -21 -6 16 12 45 27 45 5 0 9 -11 9 -24z m170 -1525 c14 -27 13 -31 -8 -31
-21 0 -42 18 -42 37 0 20 38 15 50 -6z m-1072 -359 c4 -24 -7 -29 -26 -10 -18
18 -15 40 6 36 9 -2 18 -13 20 -26z m-1157 -592 c22 -12 25 -38 5 -46 -19 -7
-56 13 -56 31 0 11 10 20 28 24 2 1 12 -4 23 -9z m1579 -764 c0 -47 -23 -64
-44 -34 -9 12 -16 27 -16 33 0 17 22 35 42 35 14 0 18 -8 18 -34z m316 -321
c10 -25 -5 -65 -24 -65 -22 0 -42 19 -42 40 0 35 55 56 66 25z m-36 -120 c16
-19 9 -49 -13 -53 -18 -4 -38 33 -30 56 7 16 28 15 43 -3z m-1814 -390 c4 -8
3 -23 0 -32 -6 -15 -9 -15 -28 4 -21 22 -18 43 8 43 8 0 17 -7 20 -15z m2229
-145 c0 -16 -6 -26 -18 -28 -19 -4 -32 20 -23 44 9 25 41 13 41 -16z"/>
<path d="M21404 27976 c-76 -17 -158 -56 -204 -95 -29 -25 -33 -32 -24 -48 6
-10 34 -25 62 -35 63 -20 125 -62 177 -119 93 -101 101 -136 115 -475 10 -262
20 -318 73 -418 41 -78 145 -182 223 -223 98 -52 236 -80 247 -50 2 6 -6 40
-19 75 -45 122 -51 302 -13 374 41 76 144 163 228 193 50 17 242 37 254 26 4
-4 4 -372 -1 -817 l-8 -809 -73 -124 c-67 -113 -72 -125 -61 -149 6 -14 43
-84 81 -156 l70 -130 -6 -715 c-7 -775 -17 -1098 -39 -1202 -29 -133 -64 -172
-229 -255 -103 -52 -108 -68 -39 -121 59 -44 128 -64 252 -70 134 -6 220 11
352 73 113 53 127 53 207 4 111 -69 263 -101 385 -82 127 20 281 95 281 137 0
20 -5 23 -110 71 -69 32 -148 106 -190 178 -28 47 -29 56 -37 230 -5 100 -6
555 -3 1011 l7 830 53 80 c91 138 93 147 38 226 -54 78 -81 162 -94 291 -7 73
-12 362 -13 808 l-1 695 55 3 c89 5 208 -15 277 -48 85 -39 165 -117 206 -199
29 -60 32 -74 32 -161 0 -87 -3 -102 -36 -177 -43 -97 -38 -108 39 -101 112
11 297 132 372 244 80 121 110 250 110 482 0 150 17 292 42 360 28 76 92 136
204 195 117 60 124 69 85 97 -47 33 -154 79 -224 95 -133 32 -247 13 -419 -68
l-116 -55 -128 70 -129 69 -730 -4 c-823 -5 -773 0 -943 -85 l-102 -52 -98 49
c-53 27 -122 57 -152 66 -77 23 -211 28 -286 11z m1717 -219 c48 -32 45 -52
-8 -50 -56 2 -83 18 -83 48 0 21 5 25 29 25 15 0 43 -10 62 -23z m-336 7 c8
-4 22 -19 30 -34 12 -23 12 -30 1 -46 -12 -15 -19 -17 -42 -9 -33 12 -60 54
-51 78 7 17 33 22 62 11z m526 -20 c17 -20 1 -48 -31 -52 -30 -5 -44 11 -36
42 7 30 45 36 67 10z m564 -45 c23 -44 37 -117 25 -138 -9 -18 -12 -18 -57 -3
-27 8 -54 17 -60 18 -26 7 -12 33 23 44 45 15 51 32 25 66 -24 30 -27 50 -8
57 16 6 35 -10 52 -44z m-363 4 c24 -21 23 -55 -2 -78 -18 -17 -21 -17 -45 -1
-17 11 -25 26 -25 44 0 49 37 67 72 35z m198 -8 c10 -12 10 -18 0 -30 -25 -30
-61 -7 -46 30 3 8 12 15 19 15 8 0 20 -7 27 -15z m-948 -165 c37 -38 34 -62
-12 -72 -62 -14 -110 11 -110 56 0 55 73 64 122 16z m1338 -20 c26 -26 28
-114 3 -142 -19 -22 -56 -23 -76 -4 -19 19 -30 107 -17 140 12 33 60 36 90 6z
m-759 -111 c9 -17 8 -25 -4 -37 -14 -14 -18 -13 -41 2 -14 9 -26 25 -26 36 0
29 55 28 71 -1z m-1363 -11 c30 -30 -11 -80 -52 -65 -33 13 -13 77 24 77 9 0
21 -5 28 -12z m753 -29 c20 -10 20 -11 3 -30 -25 -28 -89 -45 -109 -29 -51 42
41 94 106 59z m337 -143 c5 -24 -10 -38 -31 -30 -17 6 -23 35 -10 48 12 12 38
1 41 -18z m42 -81 c18 -22 -1 -39 -34 -31 -35 9 -36 46 -2 46 13 0 29 -7 36
-15z m-120 -290 c0 -18 -48 -31 -62 -17 -16 16 0 32 33 32 19 0 29 -5 29 -15z
m-170 -370 c16 -20 5 -62 -19 -70 -47 -15 -68 28 -31 65 24 24 33 25 50 5z
m184 -111 c20 -20 21 -53 1 -60 -34 -13 -83 45 -58 69 11 12 41 7 57 -9z m-30
-167 c25 -51 11 -68 -39 -44 -56 27 -61 91 -7 85 20 -2 32 -13 46 -41z m170
-173 c22 -8 20 -23 -6 -51 -26 -27 -53 -30 -63 -6 -4 12 2 25 20 40 29 26 28
25 49 17z m-253 -104 c43 -23 3 -69 -44 -51 -30 12 -41 27 -33 46 6 17 49 20
77 5z m-46 -154 c16 -24 11 -56 -9 -56 -21 0 -56 31 -56 49 0 38 42 43 65 7z
m212 -47 c7 -7 13 -32 13 -61 0 -60 -21 -74 -53 -35 -12 13 -33 27 -47 31 -14
3 -34 12 -45 20 -16 12 -18 18 -9 33 19 32 108 39 141 12z m-157 -87 c29 -23
19 -42 -21 -42 -41 0 -69 17 -69 40 0 16 7 20 34 20 19 0 44 -8 56 -18z m41
-132 c23 -13 25 -48 4 -57 -9 -3 -24 2 -35 12 -15 13 -17 22 -9 36 11 22 14
23 40 9z m-171 -75 c10 -12 10 -18 0 -30 -7 -8 -18 -15 -26 -15 -19 0 -29 41
-13 51 19 12 25 11 39 -6z m170 -173 c0 -28 -11 -34 -31 -16 -21 19 -16 34 12
34 12 0 19 -7 19 -18z m-61 -86 c28 -33 -35 -75 -66 -43 -12 11 -13 19 -4 36
13 24 53 28 70 7z m190 -85 c24 -33 26 -41 9 -41 -19 0 -48 31 -48 52 0 26 16
22 39 -11z m29 -184 c4 -36 -15 -62 -34 -46 -15 12 -19 61 -7 73 15 15 38 0
41 -27z m-81 -603 c3 -8 -2 -23 -11 -32 -14 -15 -18 -15 -31 -1 -9 9 -13 23
-9 32 8 21 43 22 51 1z m5 -134 c32 -66 34 -87 9 -95 -10 -3 -35 -22 -55 -42
l-36 -36 6 47 c6 41 4 49 -15 62 -25 18 -27 51 -4 84 38 56 60 51 95 -20z m43
-380 c8 -26 -11 -60 -34 -60 -23 0 -42 40 -29 63 13 24 55 22 63 -3z"/>
<path d="M4855 22364 c-106 -18 -225 -77 -240 -117 -8 -24 -6 -31 10 -43 11
-8 31 -17 45 -20 92 -19 186 -76 237 -142 72 -95 83 -257 83 -1281 l0 -764
-81 -156 -82 -156 72 -118 71 -118 0 -1000 0 -1000 -40 -58 c-49 -73 -124
-134 -216 -177 -97 -45 -102 -54 -65 -97 69 -78 245 -121 412 -100 86 11 116
22 300 106 l55 25 68 -43 c103 -67 180 -89 306 -90 115 0 164 12 280 70 78 39
109 69 94 92 -5 9 -40 26 -77 38 -138 47 -213 113 -241 213 -35 125 -39 281
-39 1332 0 964 6 1320 22 1320 11 0 284 -658 676 -1625 213 -526 363 -883 403
-960 45 -86 166 -215 260 -278 288 -192 646 -256 915 -162 83 29 137 67 137
99 0 24 -29 41 -111 66 -47 14 -138 79 -171 122 -56 73 -67 111 -79 250 -5 73
-13 507 -16 964 l-6 831 79 149 c44 82 80 154 82 161 2 6 -15 35 -36 63 -22
29 -49 80 -60 114 -43 132 -47 220 -47 1166 l0 895 48 67 c51 72 128 134 234
187 34 17 64 35 67 40 12 18 -53 78 -112 104 -106 48 -258 58 -391 25 -25 -6
-95 -33 -154 -60 -120 -55 -128 -56 -205 -8 -26 15 -83 41 -127 56 -111 38
-264 40 -375 6 -121 -38 -199 -97 -183 -140 3 -6 31 -19 62 -28 111 -32 198
-90 241 -159 36 -58 49 -165 61 -490 12 -315 4 -2003 -10 -2150 l-6 -70 -16
30 c-42 78 -207 472 -459 1095 -363 899 -566 1376 -632 1488 -39 66 -153 185
-222 232 -72 49 -271 145 -351 170 -155 47 -325 60 -470 34z m2525 -628 c0
-27 -28 -43 -36 -21 -6 16 12 45 27 45 5 0 9 -11 9 -24z m170 -1525 c14 -27
13 -31 -8 -31 -21 0 -42 18 -42 37 0 20 38 15 50 -6z m-1072 -359 c4 -24 -7
-29 -26 -10 -18 18 -15 40 6 36 9 -2 18 -13 20 -26z m-1157 -592 c22 -12 25
-38 5 -46 -19 -7 -56 13 -56 31 0 11 10 20 28 24 2 1 12 -4 23 -9z m1579 -764
c0 -47 -23 -64 -44 -34 -9 12 -16 27 -16 33 0 17 22 35 42 35 14 0 18 -8 18
-34z m316 -321 c10 -25 -5 -65 -24 -65 -22 0 -42 19 -42 40 0 35 55 56 66 25z
m-36 -120 c16 -19 9 -49 -13 -53 -18 -4 -38 33 -30 56 7 16 28 15 43 -3z
m-1814 -390 c4 -8 3 -23 0 -32 -6 -15 -9 -15 -28 4 -21 22 -18 43 8 43 8 0 17
-7 20 -15z m2229 -145 c0 -16 -6 -26 -18 -28 -19 -4 -32 20 -23 44 9 25 41 13
41 -16z"/>
<path d="M8775 22370 c-69 -15 -148 -49 -198 -86 -53 -39 -58 -61 -17 -80 14
-6 51 -24 83 -38 75 -34 150 -104 181 -170 48 -98 51 -168 51 -1041 0 -982 -6
-1063 -90 -1167 -71 -89 -71 -87 -15 -163 101 -137 105 -178 105 -1190 0 -859
-4 -936 -47 -1037 -28 -66 -105 -133 -206 -180 -45 -21 -85 -45 -89 -54 -14
-37 113 -114 234 -139 146 -31 258 -13 422 69 l111 56 103 -52 c169 -85 119
-80 942 -85 l730 -4 129 69 128 70 102 -48 c55 -26 126 -55 156 -64 134 -40
288 -29 407 29 110 53 159 125 86 125 -89 0 -254 130 -286 225 -23 66 -44 240
-57 463 -6 101 -15 205 -21 232 -29 134 -182 293 -354 370 -59 26 -149 38
-159 21 -4 -6 10 -48 31 -93 36 -79 38 -88 38 -183 0 -87 -3 -107 -26 -155
-34 -71 -67 -110 -157 -182 l-73 -58 -655 0 -654 0 0 724 0 724 123 7 c67 4
230 5 362 4 l240 -4 60 -29 c39 -19 86 -56 135 -105 63 -63 81 -88 104 -148
17 -46 33 -73 43 -73 45 0 134 157 153 271 21 125 4 207 -78 369 l-68 135 46
71 c110 169 130 394 49 561 -26 55 -86 123 -108 123 -5 0 -19 -28 -31 -62 -13
-35 -36 -82 -51 -105 -63 -91 -180 -165 -290 -183 -71 -11 -477 -14 -606 -3
l-83 6 0 722 0 722 509 8 c532 7 670 4 761 -22 125 -34 221 -107 261 -196 20
-45 24 -68 24 -167 0 -99 -4 -126 -27 -198 -16 -46 -28 -87 -28 -93 0 -18 76
-8 142 20 93 40 197 112 257 177 101 111 133 222 151 529 14 228 27 336 46
386 30 74 164 171 257 187 22 4 45 15 51 24 25 40 -108 127 -233 154 -148 31
-274 11 -434 -71 l-108 -55 -100 51 c-177 88 -131 84 -914 84 -548 0 -702 -3
-750 -14 -33 -7 -108 -38 -168 -67 l-107 -54 -88 44 c-48 24 -118 53 -157 65
-78 25 -217 35 -280 21z m1150 -298 c-11 -20 -27 -38 -36 -40 -40 -7 -27 72
13 87 37 14 46 -5 23 -47z m-357 26 c18 -18 14 -38 -7 -38 -23 0 -35 15 -27
35 7 18 18 19 34 3z m1460 -76 c3 -30 1 -33 -20 -30 -23 3 -34 27 -24 54 11
28 41 11 44 -24z m-1444 -88 c8 -21 -1 -34 -24 -34 -22 0 -34 15 -26 35 7 20
42 19 50 -1z m-278 -160 c-7 -19 -22 -18 -30 2 -4 9 2 29 11 43 l18 26 3 -28
c2 -16 1 -35 -2 -43z m1992 14 c-2 -15 -10 -23 -23 -23 -13 0 -21 8 -23 23 -3
18 1 22 23 22 22 0 26 -4 23 -22z m-1850 -282 c-4 -29 -33 -31 -59 -5 -21 21
-21 23 -5 35 25 18 68 -2 64 -30z m-48 -138 c0 -24 -18 -41 -34 -35 -14 5 -15
11 -6 27 12 22 40 27 40 8z m76 -2174 c-6 -16 -8 -16 -23 -2 -9 10 -13 23 -9
34 6 16 8 16 23 2 9 -10 13 -23 9 -34z m1662 -1662 c4 -12 -37 -33 -51 -25 -4
2 -2 13 4 24 11 22 40 22 47 1z m310 -146 c4 -21 -14 -37 -35 -29 -14 5 -18
35 -6 47 12 12 38 1 41 -18z"/>
<path d="M12585 22370 c-69 -15 -148 -49 -198 -86 -53 -39 -58 -61 -17 -80 14
-6 51 -24 83 -38 75 -34 150 -104 181 -170 48 -98 51 -168 51 -1041 0 -982 -6
-1063 -90 -1167 -71 -89 -71 -87 -15 -163 101 -137 105 -178 105 -1190 0 -859
-4 -936 -47 -1037 -28 -66 -105 -133 -206 -180 -45 -21 -85 -45 -89 -54 -14
-37 113 -114 234 -139 146 -31 258 -13 422 69 l111 56 103 -52 c169 -85 119
-80 942 -85 l730 -4 129 69 128 70 102 -48 c55 -26 126 -55 156 -64 134 -40
288 -29 407 29 110 53 159 125 86 125 -89 0 -254 130 -286 225 -23 66 -44 240
-57 463 -6 101 -15 205 -21 232 -29 134 -182 293 -354 370 -59 26 -149 38
-159 21 -4 -6 10 -48 31 -93 36 -79 38 -88 38 -183 0 -82 -4 -109 -22 -148
-32 -70 -77 -122 -161 -188 l-73 -59 -655 0 -654 0 0 724 0 724 123 7 c67 4
230 5 362 4 l240 -4 60 -29 c39 -19 86 -56 135 -105 63 -63 81 -88 104 -148
17 -46 33 -73 43 -73 45 0 134 157 153 271 21 125 4 207 -78 369 l-68 135 46
71 c110 169 130 394 49 561 -26 55 -86 123 -108 123 -5 0 -19 -28 -31 -62 -13
-35 -36 -82 -51 -105 -63 -91 -180 -165 -290 -183 -71 -11 -477 -14 -606 -3
l-83 6 0 722 0 722 513 8 c652 9 728 4 850 -57 79 -39 140 -98 168 -161 20
-45 24 -68 24 -167 0 -99 -4 -126 -27 -198 -16 -46 -28 -87 -28 -93 0 -18 76
-8 142 20 93 40 197 112 257 177 101 111 133 222 151 529 14 228 27 336 46
386 30 74 164 171 257 187 22 4 45 15 51 24 25 40 -108 127 -233 154 -148 31
-274 11 -434 -71 l-108 -55 -100 51 c-177 88 -131 84 -914 84 -548 0 -702 -3
-750 -14 -33 -7 -108 -38 -168 -67 l-107 -54 -88 44 c-48 24 -118 53 -157 65
-78 25 -217 35 -280 21z m1150 -298 c-11 -20 -27 -38 -36 -40 -40 -7 -27 72
13 87 37 14 46 -5 23 -47z m-357 26 c18 -18 14 -38 -7 -38 -23 0 -35 15 -27
35 7 18 18 19 34 3z m1460 -76 c3 -30 1 -33 -20 -30 -23 3 -34 27 -24 54 11
28 41 11 44 -24z m-1444 -88 c8 -21 -1 -34 -24 -34 -22 0 -34 15 -26 35 7 20
42 19 50 -1z m-278 -160 c-7 -19 -22 -18 -30 2 -4 9 2 29 11 43 l18 26 3 -28
c2 -16 1 -35 -2 -43z m1992 14 c-2 -15 -10 -23 -23 -23 -13 0 -21 8 -23 23 -3
18 1 22 23 22 22 0 26 -4 23 -22z m-1850 -282 c-4 -29 -33 -31 -59 -5 -21 21
-21 23 -5 35 25 18 68 -2 64 -30z m-48 -138 c0 -24 -18 -41 -34 -35 -14 5 -15
11 -6 27 12 22 40 27 40 8z m76 -2174 c-6 -16 -8 -16 -23 -2 -9 10 -13 23 -9
34 6 16 8 16 23 2 9 -10 13 -23 9 -34z m1662 -1662 c4 -12 -37 -33 -51 -25 -4
2 -2 13 4 24 11 22 40 22 47 1z m310 -146 c4 -21 -14 -37 -35 -29 -14 5 -18
35 -6 47 12 12 38 1 41 -18z"/>
<path d="M16375 22366 c-86 -20 -147 -49 -195 -92 -56 -51 -52 -76 12 -86 62
-8 141 -52 198 -109 53 -53 77 -98 91 -172 6 -31 13 -434 16 -997 l5 -946 -40
-66 c-65 -106 -94 -169 -94 -203 0 -18 14 -54 32 -84 85 -137 92 -232 93
-1256 2 -952 5 -924 -100 -1036 -59 -63 -133 -110 -196 -124 -64 -14 -71 -34
-27 -75 67 -63 212 -110 340 -110 100 0 187 24 300 80 l104 52 115 -56 c81
-39 137 -59 186 -66 77 -12 597 -6 886 11 200 11 291 34 453 115 167 83 268
156 396 284 128 128 210 242 291 406 97 198 113 314 129 939 12 457 24 662 43
726 8 25 30 69 50 98 48 70 49 107 1 198 -79 152 -76 130 -85 693 -4 278 -12
552 -19 610 -36 334 -174 625 -410 860 -196 197 -441 330 -703 384 -152 31
-821 48 -1007 26 -73 -9 -101 -19 -202 -70 l-118 -60 -98 49 c-53 27 -122 56
-152 65 -77 23 -221 29 -295 12z m1120 -217 c12 -13 -20 -39 -48 -39 -24 0
-57 18 -57 31 0 26 80 32 105 8z m-306 -47 c7 -14 15 -56 18 -93 7 -80 -1 -86
-78 -56 -56 23 -65 38 -27 48 21 4 23 11 23 63 1 78 36 100 64 38z m-187 -42
c-6 -15 -11 -19 -16 -12 -10 17 4 56 15 45 6 -6 6 -19 1 -33z m916 28 c7 -7
12 -36 12 -64 0 -43 -4 -56 -21 -68 -22 -15 -22 -15 16 -51 l39 -36 -21 -21
-21 -21 -44 26 c-43 25 -140 120 -171 168 -20 30 -13 59 14 59 33 0 68 -22 95
-61 34 -50 55 -52 47 -5 -11 69 19 110 55 74z m-1103 -33 c0 -13 -8 -21 -22
-23 -19 -3 -23 1 -23 23 0 22 4 26 23 23 14 -2 22 -10 22 -23z m1444 -22 c0
-10 -4 -27 -9 -38 -7 -16 -9 -13 -9 18 -1 20 4 37 9 37 6 0 10 -8 9 -17z m285
-35 c30 -48 53 -172 37 -197 -8 -13 -12 -13 -27 0 -47 39 -82 177 -52 207 17
17 26 15 42 -10z m-1124 -88 c19 -12 21 -123 3 -141 -19 -19 -100 23 -113 57
-13 34 -13 37 11 68 21 27 69 35 99 16z m220 -90 c0 -27 -23 -82 -41 -97 -21
-17 -62 -25 -78 -14 -17 11 -4 37 46 92 39 43 73 52 73 19z m771 -10 c15 -55
8 -130 -12 -130 -17 0 -49 65 -49 101 0 59 47 81 61 29z m309 15 c16 -19 3
-55 -20 -55 -23 0 -36 36 -20 55 7 8 16 15 20 15 4 0 13 -7 20 -15z m-683 -51
c8 -21 -21 -44 -47 -37 -19 5 -27 33 -13 46 13 13 54 7 60 -9z m-1085 -46 c27
-22 30 -53 7 -73 -19 -18 -23 -18 -47 -4 -35 19 -40 52 -10 73 27 19 30 19 50
4z m1308 -28 c0 -19 -5 -30 -14 -30 -19 0 -29 30 -15 46 18 22 29 16 29 -16z
m-1415 -70 c34 -38 -12 -102 -50 -70 -19 16 -19 40 1 68 19 27 26 27 49 2z
m1159 -71 c115 -12 174 -30 236 -72 107 -73 224 -210 255 -296 24 -68 34 -255
41 -756 l7 -470 -72 -142 c-39 -79 -71 -147 -71 -152 0 -5 20 -33 45 -63 25
-30 52 -74 60 -98 28 -81 37 -283 32 -738 -6 -570 -13 -600 -157 -742 -129
-127 -221 -178 -367 -200 -37 -6 -205 -12 -373 -13 l-305 -2 -3 795 -3 795 72
145 71 146 -71 142 -71 142 0 801 0 802 288 -7 c158 -4 331 -11 386 -17z m736
-38 c17 -33 12 -53 -12 -49 -23 3 -34 28 -24 54 8 20 23 18 36 -5z m239 -37
c42 -35 40 -48 -6 -39 -46 8 -83 30 -83 50 0 25 55 18 89 -11z m-1839 -28 c0
-21 -6 -36 -15 -40 -21 -8 -30 20 -17 50 16 34 32 30 32 -10z m-400 -86 c0
-18 -40 -32 -56 -19 -23 19 -16 29 21 29 19 0 35 -4 35 -10z m2204 -83 c16
-25 -5 -51 -43 -55 -27 -3 -31 0 -31 22 0 14 9 31 22 40 26 18 37 17 52 -7z
m-142 -194 c38 -34 9 -86 -37 -65 -33 15 -69 73 -52 84 17 12 67 1 89 -19z
m-1838 -76 c8 -12 7 -20 -1 -28 -16 -16 -33 -2 -33 27 0 28 17 28 34 1z m2034
-34 c47 -29 8 -64 -54 -49 -24 6 -42 45 -29 65 7 13 50 5 83 -16z m-1969 -127
c15 -16 25 -42 28 -70 6 -46 5 -46 -24 -46 -37 0 -47 11 -62 74 -10 40 -10 51
1 57 21 14 33 10 57 -15z m-159 -211 c18 -21 4 -64 -25 -77 -21 -9 -28 -8 -45
7 -22 20 -26 55 -8 73 17 17 63 15 78 -3z m2214 -37 c19 -30 31 -78 19 -78
-16 0 -83 70 -83 85 0 24 48 18 64 -7z m-2134 -178 c13 -24 5 -41 -15 -34 -26
10 -30 54 -5 54 5 0 14 -9 20 -20z m1958 -81 c4 -48 -20 -70 -48 -44 -20 18
-27 65 -13 79 4 4 19 6 33 4 21 -3 25 -9 28 -39z m-58 -106 c8 -8 -40 -43 -59
-43 -18 0 -41 18 -41 32 0 22 80 31 100 11z m-1665 -653 c8 -24 -1 -40 -21
-40 -8 0 -14 10 -14 23 0 40 24 51 35 17z m1770 -221 c4 -12 2 -26 -4 -32 -15
-15 -46 16 -38 37 9 23 34 20 42 -5z m-1840 -40 c9 -13 -20 -45 -46 -52 -27
-7 -32 7 -15 48 13 31 18 35 35 25 11 -5 23 -15 26 -21z m-335 -49 c0 -42 -24
-56 -49 -31 -25 25 -27 54 -5 76 15 15 18 15 35 -1 11 -9 19 -29 19 -44z m150
41 c26 -50 2 -142 -34 -128 -12 5 -16 20 -16 70 0 35 3 67 7 70 12 13 32 7 43
-12z m107 -157 c5 -15 -31 -63 -41 -53 -5 5 -9 29 -7 52 1 22 39 23 48 1z m0
-110 c3 -8 1 -20 -6 -27 -8 -8 -15 -6 -26 9 -20 26 -19 34 5 34 11 0 23 -7 27
-16z m1953 -19 c16 -20 4 -35 -29 -35 -35 0 -56 21 -39 38 16 16 53 15 68 -3z
m-201 -281 c10 -23 9 -25 -11 -22 -15 2 -24 11 -26 26 -5 31 22 29 37 -4z
m-1755 -383 c9 -14 -22 -34 -40 -27 -13 5 -14 9 -4 21 14 17 36 20 44 6z
m-144 -348 c0 -13 -2 -14 -17 -2 -35 28 -52 54 -40 61 14 9 57 -36 57 -59z
m-10 -262 c0 -15 -29 -33 -45 -27 -18 7 -20 43 -2 49 14 5 47 -10 47 -22z
m294 13 c31 -12 5 -54 -33 -54 -15 0 -14 33 1 48 14 14 12 14 32 6z m-180
-100 c22 -8 20 -31 -4 -44 -14 -8 -26 -8 -40 0 -45 24 -6 63 44 44z m120 -10
c11 -29 6 -44 -14 -44 -14 0 -20 7 -20 23 0 37 23 51 34 21z m1117 -98 c23
-51 25 -96 4 -96 -29 0 -70 122 -49 143 11 11 25 -4 45 -47z"/>
<path d="M23112 22369 c-114 -19 -273 -105 -260 -140 3 -9 36 -31 74 -50 78
-39 151 -106 179 -164 39 -79 29 -143 -179 -1180 -146 -728 -171 -838 -206
-903 -17 -31 -62 -93 -100 -137 -45 -52 -70 -89 -70 -104 0 -14 11 -52 24 -85
43 -107 50 -179 31 -308 -46 -315 -256 -1344 -346 -1698 -56 -217 -144 -311
-374 -400 -38 -15 -70 -31 -72 -36 -2 -5 10 -25 26 -45 61 -74 206 -117 356
-105 99 7 159 24 295 83 58 25 110 46 115 46 6 0 41 -21 78 -46 94 -64 156
-82 292 -81 121 0 182 14 300 68 86 40 111 62 93 83 -6 8 -46 32 -89 53 -90
46 -139 98 -170 179 -26 69 -22 147 16 331 62 298 120 394 263 436 60 18 116
12 173 -17 52 -26 93 -70 139 -150 58 -98 86 -92 134 27 113 278 52 538 -162
686 -23 16 -97 55 -165 87 -67 32 -128 64 -134 73 -10 12 -3 62 37 259 95 476
197 939 209 952 17 18 207 -874 396 -1861 133 -699 142 -780 97 -868 -28 -55
-99 -117 -158 -139 -98 -36 -105 -64 -28 -117 63 -44 156 -69 280 -75 176 -9
264 13 375 92 l47 33 134 -54 c142 -57 253 -84 346 -84 69 0 168 23 221 50 49
25 103 78 99 98 -2 10 -41 30 -100 52 -107 41 -145 66 -229 151 -97 98 -104
120 -234 759 -69 342 -177 913 -211 1120 -31 184 -28 265 12 363 17 41 24 74
21 89 -4 13 -41 69 -83 124 -42 54 -82 110 -89 124 -31 60 -383 1743 -401
1919 -13 120 62 240 196 316 41 24 76 50 78 58 8 37 -149 116 -274 138 -84 14
-217 5 -282 -19 -26 -10 -83 -39 -126 -64 l-79 -46 -102 54 c-147 78 -262 98
-413 73z m598 -328 c13 -26 13 -28 -5 -35 -35 -13 -58 17 -33 42 17 17 26 15
38 -7z m-312 -274 c2 -21 -2 -45 -9 -54 -12 -13 -14 -13 -26 3 -24 33 -13 97
16 92 11 -2 17 -16 19 -41z m474 26 c24 -21 24 -53 0 -53 -23 0 -66 45 -57 59
9 16 36 13 57 -6z m18 -328 c0 -18 -5 -25 -19 -25 -11 0 -23 5 -26 10 -11 18
3 40 25 40 15 0 20 -7 20 -25z m-25 -400 c0 -22 -31 -33 -47 -17 -17 17 -1 44
24 40 15 -2 23 -10 23 -23z m-601 -64 c9 -14 -22 -34 -40 -27 -13 5 -14 9 -4
21 14 17 36 20 44 6z m677 -163 c14 -27 -2 -42 -35 -34 -27 7 -35 33 -15 53
15 15 37 6 50 -19z m-239 -195 c25 -23 22 -33 -10 -33 -34 0 -68 23 -58 38 10
17 47 15 68 -5z m-118 -159 c19 -19 20 -25 3 -48 -17 -24 -65 -18 -84 10 -12
19 -12 24 2 38 21 20 59 21 79 0z m500 -111 c9 -24 -9 -39 -29 -23 -8 7 -15
19 -15 26 0 20 37 17 44 -3z m-790 -194 c14 -11 26 -24 26 -29 0 -15 -69 -32
-100 -25 -41 9 -46 22 -19 51 28 29 58 31 93 3z m543 -51 c27 -25 30 -48 6
-48 -23 0 -53 29 -53 52 0 24 19 23 47 -4z m-870 -484 c1 -5 -1 -15 -6 -23 -8
-12 -14 -13 -35 -3 -27 12 -35 37 -13 45 15 5 50 -7 54 -19z m243 -23 c13 -24
2 -53 -18 -49 -21 4 -36 32 -29 52 9 22 34 20 47 -3z m1000 -832 c0 -14 -26
-11 -39 5 -6 7 -8 21 -5 31 7 17 9 16 26 -5 10 -12 18 -26 18 -31z m284 -19
c26 -10 36 -43 16 -55 -26 -16 -80 30 -65 55 8 13 17 13 49 0z m74 -782 c7 -7
12 -20 12 -29 0 -9 16 -29 36 -44 32 -25 34 -29 21 -43 -14 -14 -19 -13 -44 3
-58 37 -97 98 -76 118 10 11 38 8 51 -5z m-220 -80 c16 -16 -3 -38 -33 -38
-30 0 -49 22 -33 38 7 7 21 12 33 12 12 0 26 -5 33 -12z"/>
<path d="M5402 16219 c-222 -25 -449 -150 -621 -342 -205 -228 -243 -352 -261
-852 -18 -517 -25 -586 -65 -665 -14 -27 -29 -51 -35 -55 -18 -11 -10 -42 24
-94 19 -28 39 -72 46 -98 6 -28 15 -215 20 -448 5 -220 14 -431 20 -470 35
-234 128 -413 296 -576 120 -115 222 -179 374 -233 265 -96 555 -83 807 34
228 106 413 298 514 534 64 149 78 267 89 746 9 416 13 443 75 525 19 25 35
47 35 50 0 3 -16 25 -35 50 -63 83 -66 108 -75 535 -11 504 -26 603 -117 784
-117 233 -328 429 -558 517 -44 17 -109 37 -145 45 -87 18 -285 25 -388 13z
m-262 -418 c0 -11 -29 -35 -35 -29 -10 9 7 38 21 38 8 0 14 -4 14 -9z m18 -84
c2 -12 -3 -17 -17 -17 -12 0 -21 6 -21 13 0 31 32 34 38 4z m549 -109 c111
-40 204 -125 251 -226 l27 -57 0 -425 c0 -466 -4 -500 -61 -565 -34 -39 -29
-79 22 -165 l39 -64 0 -431 c0 -514 1 -506 -100 -613 -184 -196 -433 -202
-634 -17 -121 113 -134 181 -129 690 l3 340 48 99 47 98 -40 81 c-22 45 -45
109 -51 142 -7 39 -9 184 -6 420 5 393 10 436 64 523 31 50 122 130 182 159
96 46 232 51 338 11z m559 21 c6 -10 -11 -29 -26 -29 -3 0 -11 4 -19 9 -17 11
-5 31 19 31 10 0 22 -5 26 -11z m59 -624 c0 -22 -31 -33 -47 -17 -17 17 -1 44
24 40 15 -2 23 -10 23 -23z m-17 -153 c2 -14 -2 -22 -12 -22 -19 0 -29 17 -22
36 8 22 30 12 34 -14z m-1635 -146 c3 -8 3 -17 0 -20 -9 -9 -34 15 -27 25 8
13 21 11 27 -5z m1577 -61 c0 -8 -7 -15 -15 -15 -8 0 -15 7 -15 15 0 8 7 15
15 15 8 0 15 -7 15 -15z m40 -61 c0 -17 -22 -14 -28 4 -2 7 3 12 12 12 9 0 16
-7 16 -16z m78 -77 c2 -12 -3 -17 -17 -17 -12 0 -21 6 -21 13 0 31 32 34 38 4z
m80 -230 c3 -23 0 -28 -15 -25 -11 2 -19 14 -21 31 -3 23 0 28 15 25 11 -2 19
-14 21 -31z m-223 -278 c0 -7 -8 -15 -17 -17 -18 -3 -25 18 -11 32 10 10 28 1
28 -15z m40 -110 c12 -18 -4 -61 -22 -57 -26 5 -39 34 -24 52 15 18 37 21 46
5z m45 -82 c0 -14 -20 -37 -32 -37 -10 0 -11 34 -1 43 11 12 33 8 33 -6z m104
-113 c18 -18 21 -52 6 -74 -9 -13 -13 -12 -30 9 -22 26 -26 67 -7 74 6 3 13 6
14 6 1 1 9 -6 17 -15z m-1734 -64 c0 -21 -24 -28 -35 -10 -8 14 3 30 21 30 8
0 14 -9 14 -20z m1521 -124 c9 -18 8 -35 -2 -66 -17 -50 -31 -53 -41 -8 -17
74 17 132 43 74z m187 -33 c-2 -10 -10 -18 -18 -18 -8 0 -16 8 -18 18 -2 12 3
17 18 17 15 0 20 -5 18 -17z m43 -101 c-7 -16 -25 -42 -41 -57 l-29 -28 -40
27 c-46 32 -52 43 -39 75 l9 24 30 -29 30 -28 22 26 c41 48 79 42 58 -10z
m-1631 -35 c0 -19 -10 -27 -26 -20 -21 8 -17 33 6 33 11 0 20 -6 20 -13z
m1425 -207 c0 -13 -6 -25 -12 -27 -16 -6 -27 21 -19 43 9 23 31 11 31 -16z
m-1317 -13 c2 -11 -3 -17 -17 -17 -23 0 -35 15 -26 31 10 15 39 6 43 -14z
m1426 -43 c21 -8 20 -30 0 -38 -20 -8 -67 21 -59 34 7 11 36 13 59 4z m-164
-89 c0 -8 9 -24 21 -36 20 -20 20 -22 3 -40 -23 -26 -30 -24 -43 12 -16 45
-14 79 4 79 8 0 15 -7 15 -15z m-80 -30 c0 -3 -7 -21 -14 -40 -17 -40 -40 -45
-57 -13 -10 18 -8 24 11 40 20 17 60 25 60 13z m-102 -86 c-3 -26 -18 -29 -32
-6 -7 10 -5 21 4 32 17 20 33 6 28 -26z m99 -56 c-3 -10 -5 -4 -5 12 0 17 2
24 5 18 2 -7 2 -21 0 -30z m-837 -8 c16 -19 9 -49 -12 -53 -20 -4 -40 30 -32
52 8 20 28 21 44 1z m670 -61 c0 -16 -16 -19 -25 -4 -8 13 4 32 16 25 5 -4 9
-13 9 -21z m238 -18 c3 -12 -1 -17 -10 -14 -7 3 -15 13 -16 22 -3 12 1 17 10
14 7 -3 15 -13 16 -22z m-1010 -39 c2 -12 -3 -17 -17 -17 -12 0 -21 6 -21 13
0 31 32 34 38 4z m320 11 c-6 -16 -36 -34 -44 -26 -3 4 -4 14 -1 23 7 17 51
21 45 3z"/>
<path d="M6795 16223 c-92 -20 -195 -72 -195 -99 0 -8 28 -27 63 -42 64 -30
137 -94 163 -144 20 -38 33 -151 34 -283 0 -143 13 -216 50 -292 39 -78 129
-164 202 -191 68 -25 134 -36 142 -24 3 5 -3 36 -14 68 -26 75 -35 178 -21
230 15 55 92 137 155 165 32 14 78 23 132 27 l83 5 -6 -589 -5 -589 -54 -96
-55 -96 61 -113 61 -113 -10 -661 c-11 -725 -14 -767 -69 -835 -15 -19 -60
-50 -100 -71 -99 -50 -102 -53 -63 -89 49 -45 92 -56 226 -56 127 0 117 -2
276 68 35 16 37 15 115 -24 102 -51 189 -67 276 -51 73 13 191 70 196 94 2 11
-18 26 -73 52 -83 41 -146 106 -165 174 -6 24 -10 292 -10 749 l0 712 51 78
c56 86 57 96 10 165 -63 95 -70 178 -71 806 l0 482 78 0 c43 0 101 -7 128 -15
69 -21 141 -79 178 -145 27 -48 31 -65 31 -131 0 -59 -5 -87 -24 -126 -31 -67
-24 -88 27 -80 51 9 155 63 207 109 105 93 133 174 145 433 13 286 24 307 190
398 35 19 66 40 68 45 5 17 -138 81 -205 93 -85 15 -166 0 -271 -51 -46 -22
-87 -40 -91 -40 -5 0 -49 23 -100 50 l-92 50 -447 -1 c-246 0 -497 -4 -557 -8
-101 -7 -119 -12 -200 -50 l-90 -42 -85 40 c-109 52 -201 70 -275 54z m1214
-158 c16 -8 31 -22 35 -31 6 -14 1 -16 -35 -11 -47 6 -64 19 -56 41 8 20 20
20 56 1z m-227 -12 c20 -18 24 -48 8 -58 -16 -10 -60 23 -60 44 0 34 23 41 52
14z m373 -18 c0 -21 -31 -33 -46 -18 -5 5 -7 17 -3 27 9 24 49 17 49 -9z m416
-30 c23 -52 22 -102 -1 -96 -8 2 -28 7 -44 10 -41 9 -44 29 -7 42 35 12 36 16
16 43 -19 26 -19 46 1 46 8 0 24 -20 35 -45z m-261 6 c13 -25 13 -27 -6 -45
-12 -12 -20 -13 -35 -6 -18 10 -26 50 -12 63 13 14 43 7 53 -12z m137 3 c8
-21 -13 -42 -28 -27 -13 13 -5 43 11 43 6 0 13 -7 17 -16z m-713 -104 c33 -12
54 -49 35 -61 -20 -13 -73 -11 -87 3 -16 16 -15 55 1 61 19 8 24 8 51 -3z
m1006 -39 c31 -60 -10 -133 -58 -102 -15 9 -28 82 -19 106 9 22 64 20 77 -4z
m-576 -57 c17 -6 22 -39 8 -48 -5 -3 -19 2 -31 10 -17 13 -20 19 -10 30 13 16
12 16 33 8z m-974 -29 c15 -18 -2 -45 -30 -45 -23 0 -34 28 -19 46 15 18 33
18 49 -1z m545 -19 c19 -13 18 -15 -17 -31 -41 -20 -68 -15 -68 14 0 31 51 42
85 17z m245 -106 c0 -21 -24 -28 -35 -10 -8 14 3 30 21 30 8 0 14 -9 14 -20z
m29 -54 c9 -10 9 -16 1 -21 -16 -10 -40 2 -40 20 0 19 24 20 39 1z m-84 -211
c0 -5 -10 -11 -22 -13 -16 -2 -23 2 -23 13 0 11 7 15 23 13 12 -2 22 -7 22
-13z m-119 -280 c7 -18 -13 -45 -33 -45 -17 0 -27 24 -19 45 7 20 45 19 52 0z
m118 -61 c20 -8 21 -54 2 -54 -20 0 -39 27 -32 45 6 17 8 17 30 9z m-24 -114
c22 -22 27 -60 7 -60 -22 0 -57 30 -57 49 0 36 21 40 50 11z m145 -150 c6 -10
-29 -50 -44 -50 -20 0 -22 22 -5 41 19 21 39 25 49 9z m-196 -69 c19 -12 6
-41 -17 -41 -23 0 -46 25 -37 40 8 12 35 13 54 1z m-35 -106 c17 -17 11 -45
-9 -45 -19 0 -38 28 -31 45 7 19 20 19 40 0z m154 -37 c18 -18 16 -88 -3 -88
-7 0 -18 6 -22 14 -4 8 -25 21 -45 29 -21 9 -38 21 -38 27 0 25 87 39 108 18z
m-104 -68 c12 -12 -2 -30 -23 -30 -26 0 -55 25 -46 39 7 13 52 7 69 -9z m33
-106 c3 -8 1 -20 -4 -25 -12 -12 -48 14 -39 29 10 17 36 15 43 -4z m-132 -54
c0 -8 -8 -16 -17 -18 -13 -2 -18 3 -18 18 0 15 5 20 18 18 9 -2 17 -10 17 -18z
m120 -110 c11 -17 -5 -32 -21 -19 -8 6 -14 15 -14 20 0 12 27 11 35 -1z m-35
-80 c0 -5 -10 -14 -21 -21 -17 -9 -24 -8 -36 4 -13 12 -12 16 2 31 12 12 21
13 36 6 10 -6 19 -15 19 -20z m135 -52 c9 -14 11 -24 5 -26 -14 -5 -40 17 -40
34 0 21 17 17 35 -8z m19 -123 c8 -21 -3 -45 -20 -45 -9 0 -14 11 -14 30 0 32
23 42 34 15z m-64 -455 c0 -21 -24 -28 -35 -10 -8 14 3 30 21 30 8 0 14 -9 14
-20z m13 -107 l16 -41 -27 -18 c-15 -10 -33 -25 -40 -33 -11 -14 -13 -12 -8
14 3 21 -2 36 -16 51 -18 21 -19 24 -4 52 28 55 51 48 79 -25z m22 -273 c0
-16 -6 -26 -18 -28 -19 -4 -32 20 -23 44 9 25 41 13 41 -16z"/>
<path d="M9485 16216 c-74 -19 -177 -74 -173 -93 2 -8 25 -24 52 -35 113 -44
180 -111 196 -197 6 -33 10 -316 10 -743 l0 -689 -46 -91 -47 -91 36 -66 c56
-103 58 -146 55 -906 -3 -757 4 -693 -87 -778 -52 -49 -104 -77 -141 -77 -11
0 -20 -6 -20 -13 0 -47 111 -105 218 -114 91 -7 166 9 268 56 l86 40 69 -35
c100 -50 179 -68 264 -60 69 7 161 41 197 73 25 22 23 53 -2 53 -33 0 -79 28
-138 84 -94 88 -86 26 -90 755 -4 741 -1 797 54 905 34 66 35 72 24 110 -6 23
-27 69 -46 104 l-35 62 3 698 c4 797 1 765 85 844 27 24 74 54 106 67 69 28
74 50 20 85 -80 53 -191 75 -288 57 -32 -6 -97 -29 -143 -52 l-85 -41 -86 40
c-125 59 -216 73 -316 48z m334 -669 c6 -8 8 -16 5 -20 -10 -9 -34 4 -34 19 0
18 14 18 29 1z m91 -587 c0 -11 -7 -20 -15 -20 -17 0 -18 2 -9 24 9 23 24 20
24 -4z m175 -650 c0 -18 -33 -26 -47 -12 -6 6 -7 15 -3 22 10 16 50 8 50 -10z
m-147 -213 c2 -12 -3 -17 -17 -17 -12 0 -21 6 -21 13 0 31 32 34 38 4z m-90
-169 c-3 -7 -13 -13 -23 -13 -10 0 -20 6 -22 13 -3 7 5 12 22 12 17 0 25 -5
23 -12z m160 -1206 c3 -10 -6 -12 -34 -10 -20 2 -39 9 -42 16 -3 10 6 12 34
10 20 -2 39 -9 42 -16z"/>
<path d="M11300 16220 c-25 -5 -81 -28 -126 -51 l-81 -41 -54 31 c-143 80
-382 82 -471 2 -19 -17 -29 -34 -26 -43 4 -8 32 -24 65 -36 74 -28 149 -85
189 -144 17 -25 41 -84 54 -130 75 -278 271 -1230 272 -1323 1 -55 -10 -95
-58 -201 -3 -6 15 -35 39 -65 107 -131 114 -154 237 -769 116 -579 154 -804
140 -843 -17 -52 -68 -106 -132 -138 -42 -21 -58 -35 -56 -47 4 -24 108 -71
199 -90 101 -21 184 -8 287 44 72 37 74 37 100 20 101 -65 212 -88 325 -67 70
13 169 55 194 83 17 19 17 20 -2 34 -11 8 -36 19 -56 24 -69 19 -129 110 -129
197 0 95 217 1192 275 1385 14 48 55 116 107 176 34 40 35 60 3 137 -13 33
-25 79 -25 102 0 110 239 1270 292 1410 31 83 95 146 199 195 63 30 89 47 89
60 0 27 -93 75 -173 88 -110 19 -195 3 -320 -61 l-61 -31 -85 41 c-178 85
-314 79 -457 -20 l-47 -32 69 -33 c79 -38 137 -95 151 -151 12 -48 2 -108
-128 -763 -131 -658 -227 -1118 -240 -1142 -17 -32 -27 -20 -44 55 -63 277
-298 1455 -341 1708 -15 88 -16 113 -6 147 15 50 76 114 142 147 27 14 50 32
50 40 0 17 -66 58 -130 80 -55 20 -171 27 -230 15z m750 -2280 c0 -21 -24 -28
-35 -10 -8 14 3 30 21 30 8 0 14 -9 14 -20z m-125 -170 c-10 -11 -22 -20 -27
-20 -15 0 -8 39 10 49 26 15 39 -5 17 -29z m-41 -1036 c8 -22 8 -24 -8 -24
-18 0 -29 16 -21 30 9 15 22 12 29 -6z"/>
<path d="M13720 16219 c-25 -5 -74 -23 -110 -41 -81 -41 -84 -59 -17 -97 63
-35 103 -74 129 -125 19 -38 20 -46 9 -121 -40 -261 -255 -1311 -280 -1370
-10 -22 -44 -71 -75 -108 -64 -75 -66 -86 -31 -177 34 -88 23 -178 -81 -700
-67 -334 -148 -698 -176 -788 -29 -94 -111 -175 -223 -221 -44 -18 -82 -35
-84 -37 -12 -11 38 -59 84 -80 111 -51 242 -42 403 28 l92 40 35 -27 c114 -87
276 -97 432 -29 108 48 112 67 21 106 -94 40 -145 132 -135 241 10 101 55 278
85 337 50 98 145 141 237 106 47 -19 89 -60 126 -125 25 -45 38 -50 62 -23 38
42 61 132 61 247 1 107 0 112 -33 173 -46 84 -93 123 -228 189 -87 42 -113 59
-113 74 0 37 174 857 184 867 10 10 59 -208 170 -755 96 -472 179 -912 200
-1052 19 -128 6 -179 -57 -237 -25 -22 -60 -45 -78 -50 -41 -12 -58 -36 -40
-58 7 -9 38 -28 68 -43 47 -23 72 -27 164 -31 130 -5 184 6 257 54 l54 36 85
-37 c199 -86 389 -82 472 8 31 34 23 50 -30 66 -64 19 -115 47 -160 88 -71 65
-97 113 -124 230 -55 247 -176 861 -225 1153 -23 134 -22 212 5 276 24 58 19
76 -49 165 l-64 84 -36 155 c-74 324 -236 1121 -251 1236 -12 86 39 172 134
228 76 44 74 62 -9 104 -137 68 -262 67 -397 -4 l-84 -44 -77 39 c-108 55
-199 70 -302 50z m443 -243 c6 -16 -10 -26 -30 -19 -15 6 -5 33 12 33 7 0 15
-6 18 -14z m127 -203 c0 -17 -11 -17 -35 1 -12 8 -16 19 -11 31 6 17 7 17 26
0 11 -10 20 -24 20 -32z m-352 12 c3 -26 -13 -50 -27 -41 -6 4 -11 21 -11 37
0 24 4 30 18 27 9 -2 18 -12 20 -23z m352 -225 c0 -23 -25 -27 -33 -6 -7 16 1
26 20 26 7 0 13 -9 13 -20z m-15 -290 c0 -8 -8 -16 -17 -18 -13 -2 -18 3 -18
18 0 15 5 20 18 18 9 -2 17 -10 17 -18z m-435 -50 c0 -12 -28 -25 -36 -17 -9
9 6 27 22 27 8 0 14 -5 14 -10z m490 -126 c0 -16 -36 -19 -45 -4 -4 6 -1 17 5
26 14 16 40 2 40 -22z m-174 -131 c17 -17 17 -18 0 -21 -25 -5 -46 5 -46 23 0
20 24 19 46 -2z m-86 -113 c12 -7 12 -13 4 -27 -15 -24 -38 -27 -58 -7 -30 29
16 59 54 34z m363 -84 c3 -8 3 -17 0 -20 -7 -7 -33 13 -33 25 0 15 27 10 33
-5z m-570 -144 c22 -24 13 -32 -40 -32 -44 0 -55 14 -31 38 18 18 53 15 71 -6z
m401 -44 c5 -9 7 -20 4 -23 -10 -10 -48 14 -48 31 0 20 29 14 44 -8z m-644
-342 c0 -22 -19 -30 -35 -16 -22 18 -18 30 10 30 15 0 25 -6 25 -14z m180 -26
c0 -11 -4 -21 -9 -24 -13 -8 -34 21 -27 39 7 20 36 8 36 -15z m719 -599 c-16
-5 -33 15 -24 30 6 9 12 7 22 -7 9 -13 10 -20 2 -23z m212 -11 c25 -14 25 -40
-1 -40 -20 0 -44 32 -33 44 8 8 11 8 34 -4z m59 -584 c5 -14 18 -30 30 -36 23
-12 27 -40 6 -40 -32 0 -94 69 -81 90 11 18 35 10 45 -14z m-160 -50 c0 -8 -7
-17 -16 -20 -19 -7 -47 12 -38 25 9 15 54 10 54 -5z"/>
<path d="M15070 16219 c-81 -16 -180 -68 -180 -95 0 -8 28 -27 63 -42 64 -30
137 -94 163 -144 20 -38 33 -151 34 -283 0 -146 15 -227 52 -298 40 -75 131
-159 200 -185 68 -25 134 -36 142 -24 3 5 -3 36 -14 68 -26 75 -35 178 -21
230 15 55 92 137 155 165 32 14 78 23 132 27 l83 5 -6 -589 -5 -589 -54 -96
-55 -96 61 -113 61 -113 -10 -661 c-13 -843 -9 -825 -171 -906 -43 -22 -81
-44 -85 -50 -9 -15 49 -66 93 -82 23 -8 83 -13 157 -13 127 0 117 -2 276 68
35 16 37 15 115 -24 102 -51 189 -67 276 -51 73 13 191 70 196 94 2 11 -18 26
-73 52 -83 41 -146 106 -165 174 -6 24 -10 292 -10 749 l0 712 51 78 c52 80
57 107 24 143 -8 9 -25 40 -39 71 -38 82 -46 215 -46 762 l0 477 78 0 c43 0
101 -7 128 -15 69 -21 141 -79 178 -145 27 -48 31 -65 31 -131 0 -59 -5 -87
-24 -126 -31 -67 -24 -88 27 -80 51 9 155 63 207 109 105 93 133 174 145 433
13 286 24 307 190 398 35 19 66 40 68 45 5 17 -138 81 -205 93 -85 15 -166 0
-271 -51 -46 -22 -87 -40 -91 -40 -5 0 -49 23 -100 50 l-92 50 -447 -1 c-246
0 -497 -4 -557 -8 -101 -7 -119 -12 -200 -50 l-90 -42 -85 40 c-119 57 -191
69 -290 50z m1229 -154 c16 -8 31 -22 35 -31 6 -14 1 -16 -35 -11 -47 6 -64
19 -56 41 8 20 20 20 56 1z m-227 -12 c20 -18 24 -48 8 -58 -16 -10 -60 23
-60 44 0 34 23 41 52 14z m373 -18 c0 -21 -31 -33 -46 -18 -5 5 -7 17 -3 27 9
24 49 17 49 -9z m416 -30 c23 -52 22 -102 -1 -96 -8 2 -28 7 -44 10 -41 9 -44
29 -7 42 35 12 36 16 16 43 -19 26 -19 46 1 46 8 0 24 -20 35 -45z m-261 6
c13 -25 13 -27 -6 -45 -12 -12 -20 -13 -35 -6 -18 10 -26 50 -12 63 13 14 43
7 53 -12z m137 3 c8 -21 -13 -42 -28 -27 -13 13 -5 43 11 43 6 0 13 -7 17 -16z
m-713 -104 c33 -12 54 -49 35 -61 -20 -13 -73 -11 -87 3 -16 16 -15 55 1 61
19 8 24 8 51 -3z m1006 -39 c31 -60 -10 -133 -58 -102 -15 9 -28 82 -19 106 9
22 64 20 77 -4z m-576 -57 c17 -6 22 -39 8 -48 -5 -3 -19 2 -31 10 -17 13 -20
19 -10 30 13 16 12 16 33 8z m-974 -29 c15 -18 -2 -45 -30 -45 -23 0 -34 28
-19 46 15 18 33 18 49 -1z m545 -19 c19 -13 18 -15 -17 -31 -41 -20 -68 -15
-68 14 0 31 51 42 85 17z m245 -106 c0 -21 -24 -28 -35 -10 -8 14 3 30 21 30
8 0 14 -9 14 -20z m29 -54 c9 -10 9 -16 1 -21 -16 -10 -40 2 -40 20 0 19 24
20 39 1z m-84 -211 c0 -5 -10 -11 -22 -13 -16 -2 -23 2 -23 13 0 11 7 15 23
13 12 -2 22 -7 22 -13z m-119 -280 c7 -18 -13 -45 -33 -45 -17 0 -27 24 -19
45 7 20 45 19 52 0z m118 -61 c20 -8 21 -54 2 -54 -20 0 -39 27 -32 45 6 17 8
17 30 9z m-24 -114 c22 -22 27 -60 7 -60 -22 0 -57 30 -57 49 0 36 21 40 50
11z m145 -150 c6 -10 -29 -50 -44 -50 -20 0 -22 22 -5 41 19 21 39 25 49 9z
m-196 -69 c19 -12 6 -41 -17 -41 -23 0 -46 25 -37 40 8 12 35 13 54 1z m-35
-106 c17 -17 11 -45 -9 -45 -19 0 -38 28 -31 45 7 19 20 19 40 0z m154 -37
c18 -18 16 -88 -3 -88 -7 0 -18 6 -22 14 -4 8 -25 21 -45 29 -21 9 -38 21 -38
27 0 25 87 39 108 18z m-104 -68 c12 -12 -2 -30 -23 -30 -26 0 -55 25 -46 39
7 13 52 7 69 -9z m33 -106 c3 -8 1 -20 -4 -25 -12 -12 -48 14 -39 29 10 17 36
15 43 -4z m-132 -54 c0 -8 -8 -16 -17 -18 -13 -2 -18 3 -18 18 0 15 5 20 18
18 9 -2 17 -10 17 -18z m120 -110 c11 -17 -5 -32 -21 -19 -8 6 -14 15 -14 20
0 12 27 11 35 -1z m-35 -80 c0 -5 -10 -14 -21 -21 -17 -9 -24 -8 -36 4 -13 12
-12 16 2 31 12 12 21 13 36 6 10 -6 19 -15 19 -20z m135 -52 c9 -14 11 -24 5
-26 -14 -5 -40 17 -40 34 0 21 17 17 35 -8z m19 -123 c8 -21 -3 -45 -20 -45
-9 0 -14 11 -14 30 0 32 23 42 34 15z m-64 -455 c0 -11 -6 -20 -14 -20 -18 0
-29 16 -21 30 11 18 35 11 35 -10z m13 -107 l16 -41 -27 -18 c-15 -10 -33 -25
-40 -33 -11 -14 -13 -12 -8 14 3 21 -2 36 -16 51 -18 21 -19 24 -4 52 28 55
51 48 79 -25z m22 -273 c0 -29 -32 -41 -41 -16 -9 24 4 48 23 44 12 -2 18 -12
18 -28z"/>
<path d="M17775 16216 c-74 -19 -177 -74 -173 -93 2 -8 25 -24 52 -35 113 -44
180 -111 196 -197 6 -33 10 -316 10 -743 l0 -689 -46 -91 -47 -91 36 -66 c56
-103 58 -146 55 -906 -3 -757 4 -693 -87 -778 -52 -49 -104 -77 -141 -77 -11
0 -20 -6 -20 -13 0 -47 111 -105 218 -114 91 -7 166 9 268 56 l86 40 69 -35
c100 -50 179 -68 264 -60 69 7 161 41 197 73 25 22 23 53 -2 53 -33 0 -79 28
-138 84 -94 88 -86 26 -90 755 -4 741 -1 797 54 905 34 66 35 72 24 110 -6 23
-27 69 -46 104 l-35 62 3 698 c4 797 1 765 85 844 27 24 74 54 106 67 69 28
74 50 20 85 -80 53 -191 75 -288 57 -32 -6 -97 -29 -143 -52 l-85 -41 -86 40
c-125 59 -216 73 -316 48z m338 -670 c3 -8 3 -16 0 -19 -9 -10 -33 5 -33 19 0
18 26 18 33 0z m87 -586 c0 -11 -7 -20 -15 -20 -17 0 -18 2 -9 24 9 23 24 20
24 -4z m175 -650 c0 -18 -33 -26 -47 -12 -6 6 -7 15 -3 22 10 16 50 8 50 -10z
m-147 -213 c2 -12 -3 -17 -17 -17 -12 0 -21 6 -21 13 0 31 32 34 38 4z m-90
-169 c-3 -7 -13 -13 -23 -13 -10 0 -20 6 -22 13 -3 7 5 12 22 12 17 0 25 -5
23 -12z m160 -1206 c3 -10 -6 -12 -34 -10 -20 2 -39 9 -42 16 -3 10 6 12 34
10 20 -2 39 -9 42 -16z"/>
<path d="M19902 16219 c-222 -25 -449 -150 -621 -342 -205 -228 -243 -352
-261 -852 -18 -517 -25 -586 -65 -665 -14 -27 -29 -51 -35 -55 -18 -11 -10
-42 24 -94 19 -28 39 -72 46 -98 6 -28 15 -215 20 -448 11 -501 25 -598 110
-767 53 -106 91 -159 183 -255 268 -280 654 -384 1044 -282 293 77 549 302
674 593 64 149 78 267 89 746 9 416 13 443 75 525 19 25 35 47 35 50 0 3 -16
25 -35 50 -63 83 -66 108 -75 535 -11 504 -26 603 -117 784 -117 233 -328 429
-558 517 -44 17 -109 37 -145 45 -87 18 -285 25 -388 13z m-262 -418 c0 -11
-29 -35 -35 -29 -10 9 7 38 21 38 8 0 14 -4 14 -9z m18 -84 c2 -12 -3 -17 -17
-17 -12 0 -21 6 -21 13 0 31 32 34 38 4z m549 -109 c111 -40 204 -125 251
-226 l27 -57 0 -420 c0 -461 -3 -492 -57 -566 -38 -52 -35 -80 18 -169 l39
-64 0 -431 c0 -514 1 -506 -100 -613 -184 -196 -433 -202 -634 -17 -121 113
-134 181 -129 690 l3 340 48 99 47 98 -40 81 c-22 45 -45 109 -51 142 -7 39
-9 184 -6 420 5 393 10 436 64 523 31 50 122 130 182 159 96 46 232 51 338 11z
m559 21 c6 -10 -11 -29 -26 -29 -3 0 -11 4 -19 9 -17 11 -5 31 19 31 10 0 22
-5 26 -11z m59 -624 c0 -22 -31 -33 -47 -17 -17 17 -1 44 24 40 15 -2 23 -10
23 -23z m-17 -153 c2 -14 -2 -22 -12 -22 -19 0 -29 17 -22 36 8 22 30 12 34
-14z m-1635 -146 c3 -8 3 -17 0 -20 -9 -9 -34 15 -27 25 8 13 21 11 27 -5z
m1577 -61 c0 -8 -7 -15 -15 -15 -8 0 -15 7 -15 15 0 8 7 15 15 15 8 0 15 -7
15 -15z m40 -61 c0 -9 -5 -14 -12 -12 -18 6 -21 28 -4 28 9 0 16 -7 16 -16z
m78 -77 c2 -12 -3 -17 -17 -17 -12 0 -21 6 -21 13 0 31 32 34 38 4z m80 -230
c3 -23 0 -28 -15 -25 -11 2 -19 14 -21 31 -3 23 0 28 15 25 11 -2 19 -14 21
-31z m-223 -278 c0 -7 -8 -15 -17 -17 -18 -3 -25 18 -11 32 10 10 28 1 28 -15z
m40 -110 c12 -18 -4 -61 -22 -57 -26 5 -39 34 -24 52 15 18 37 21 46 5z m45
-82 c0 -14 -20 -37 -32 -37 -10 0 -11 34 -1 43 11 12 33 8 33 -6z m104 -113
c18 -18 21 -52 6 -74 -9 -13 -13 -12 -30 9 -22 26 -26 67 -7 74 6 3 13 6 14 6
1 1 9 -6 17 -15z m-1734 -64 c0 -21 -24 -28 -35 -10 -8 14 3 30 21 30 8 0 14
-9 14 -20z m1521 -124 c9 -18 8 -35 -2 -66 -17 -50 -31 -53 -41 -8 -17 74 17
132 43 74z m187 -33 c-2 -10 -10 -18 -18 -18 -8 0 -16 8 -18 18 -2 12 3 17 18
17 15 0 20 -5 18 -17z m43 -101 c-7 -16 -25 -42 -41 -57 l-29 -28 -40 27 c-46
32 -52 43 -39 75 l9 24 30 -29 30 -28 22 26 c41 48 79 42 58 -10z m-1631 -35
c0 -19 -10 -27 -26 -20 -21 8 -17 33 6 33 11 0 20 -6 20 -13z m1425 -207 c0
-27 -22 -39 -31 -16 -8 22 3 49 19 43 6 -2 12 -14 12 -27z m-1317 -13 c2 -11
-3 -17 -17 -17 -23 0 -35 15 -26 31 10 15 39 6 43 -14z m1426 -43 c21 -8 20
-30 0 -38 -20 -8 -67 21 -59 34 7 11 36 13 59 4z m-164 -89 c0 -8 9 -24 21
-36 20 -20 20 -22 3 -40 -23 -26 -30 -24 -43 12 -16 45 -14 79 4 79 8 0 15 -7
15 -15z m-80 -30 c0 -3 -7 -21 -14 -40 -17 -40 -40 -45 -57 -13 -10 18 -8 24
11 40 20 17 60 25 60 13z m-102 -86 c-3 -26 -18 -29 -32 -6 -7 10 -5 21 4 32
17 20 33 6 28 -26z m102 -46 c0 -21 -3 -24 -9 -14 -5 8 -7 20 -4 28 8 21 13
15 13 -14z m-840 -18 c16 -19 9 -49 -12 -53 -20 -4 -40 30 -32 52 8 20 28 21
44 1z m670 -61 c0 -16 -16 -19 -25 -4 -8 13 4 32 16 25 5 -4 9 -13 9 -21z
m238 -18 c3 -12 -1 -17 -10 -14 -7 3 -15 13 -16 22 -3 12 1 17 10 14 7 -3 15
-13 16 -22z m-1010 -39 c2 -12 -3 -17 -17 -17 -12 0 -21 6 -21 13 0 31 32 34
38 4z m320 11 c-6 -16 -36 -34 -44 -26 -3 4 -4 14 -1 23 7 17 51 21 45 3z"/>
<path d="M21600 16221 c-116 -22 -191 -58 -198 -95 -5 -23 8 -31 74 -51 75
-22 149 -91 170 -158 18 -59 32 -507 33 -1089 l1 -328 -60 -112 c-33 -61 -60
-115 -60 -119 0 -4 22 -45 50 -91 l50 -83 0 -728 0 -728 -30 -44 c-37 -53 -87
-94 -163 -131 -31 -15 -57 -33 -57 -39 0 -40 110 -93 212 -101 94 -8 170 7
279 58 l87 40 53 -36 c121 -80 270 -85 410 -16 94 48 103 79 26 98 -24 7 -66
26 -93 44 -68 45 -92 97 -104 223 -11 115 -12 1681 -1 1765 l7 55 28 -60 c33
-70 224 -533 426 -1030 224 -553 319 -776 352 -827 40 -63 133 -148 216 -197
133 -79 336 -129 478 -117 127 10 254 70 238 111 -4 8 -31 22 -61 32 -66 21
-144 86 -174 146 -29 56 -38 277 -39 922 l0 520 56 105 c31 58 56 110 57 115
0 6 -14 30 -31 55 -66 94 -66 90 -70 867 l-3 703 30 43 c40 59 90 101 161 137
33 17 60 36 60 43 0 37 -82 82 -178 98 -93 15 -181 0 -293 -52 l-87 -39 -81
39 c-113 55 -200 68 -304 48 -98 -20 -172 -61 -172 -97 0 -20 8 -26 41 -36
103 -30 167 -83 190 -159 28 -92 36 -415 31 -1172 -3 -397 -9 -727 -13 -734
-5 -8 -12 -3 -21 15 -29 55 -150 343 -315 751 -237 586 -389 948 -444 1057
-66 131 -143 205 -292 282 -62 31 -145 65 -186 76 -88 22 -223 32 -286 21z
m1816 -470 c-8 -13 -36 -15 -36 -3 0 4 5 13 12 20 14 14 34 0 24 -17z m128
-1107 c3 -9 -1 -14 -14 -14 -21 0 -34 15 -25 30 7 12 32 2 39 -16z m-784 -254
c0 -11 -4 -20 -10 -20 -5 0 -10 2 -10 4 0 2 -3 11 -6 20 -4 11 -1 16 10 16 9
0 16 -8 16 -20z m-834 -441 c3 -6 2 -15 -3 -20 -13 -13 -43 -1 -43 17 0 16 36
19 46 3z m1142 -546 c2 -11 -4 -25 -12 -32 -21 -17 -44 23 -25 45 16 19 33 13
37 -13z m227 -253 c0 -29 -32 -41 -41 -16 -9 24 4 48 23 44 12 -2 18 -12 18
-28z m-21 -77 c8 -19 -8 -38 -23 -29 -16 10 -13 46 3 46 8 0 17 -8 20 -17z
m-1326 -287 c3 -12 -1 -17 -10 -14 -7 3 -15 13 -16 22 -3 12 1 17 10 14 7 -3
15 -13 16 -22z m1627 -96 c0 -8 -8 -16 -17 -18 -13 -2 -18 3 -18 18 0 15 5 20
18 18 9 -2 17 -10 17 -18z"/>
<path d="M25050 16219 c-25 -5 -74 -23 -110 -41 -81 -41 -84 -59 -17 -97 63
-35 103 -74 129 -125 19 -38 20 -46 9 -121 -40 -261 -255 -1311 -280 -1370
-10 -22 -44 -71 -75 -108 -64 -75 -66 -86 -31 -177 34 -88 23 -178 -81 -700
-67 -334 -148 -698 -176 -788 -29 -94 -111 -175 -223 -221 -44 -18 -82 -35
-84 -37 -12 -11 38 -59 84 -80 111 -51 242 -42 403 28 l92 40 35 -27 c114 -87
276 -97 432 -29 108 48 112 67 21 106 -94 40 -145 132 -135 241 10 101 55 278
85 337 50 98 145 141 237 106 47 -19 89 -60 126 -125 25 -45 38 -50 62 -23 38
42 61 132 61 247 1 107 0 112 -33 173 -46 84 -93 123 -230 189 l-113 55 6 44
c6 46 121 599 157 754 14 58 24 88 29 79 27 -49 316 -1478 364 -1798 19 -128
6 -179 -57 -237 -25 -22 -60 -45 -78 -50 -41 -12 -58 -36 -40 -58 7 -9 38 -28
68 -43 47 -23 72 -27 164 -31 130 -5 184 6 257 54 l54 36 83 -36 c119 -51 204
-69 293 -62 83 7 145 31 181 69 31 34 23 50 -30 66 -96 29 -173 85 -231 169
-34 49 -76 231 -188 812 -118 613 -124 672 -85 766 24 58 19 76 -49 165 l-64
84 -36 155 c-74 324 -236 1121 -251 1236 -12 86 39 172 134 228 76 44 74 62
-9 104 -137 68 -262 67 -397 -4 l-84 -44 -77 39 c-108 55 -199 70 -302 50z
m443 -243 c6 -16 -10 -26 -30 -19 -15 6 -5 33 12 33 7 0 15 -6 18 -14z m127
-203 c0 -17 -11 -17 -35 1 -12 8 -16 19 -11 31 6 17 7 17 26 0 11 -10 20 -24
20 -32z m-352 12 c3 -26 -13 -50 -27 -41 -6 4 -11 21 -11 37 0 24 4 30 18 27
9 -2 18 -12 20 -23z m352 -225 c0 -23 -25 -27 -33 -6 -7 16 1 26 20 26 7 0 13
-9 13 -20z m-15 -290 c0 -8 -8 -16 -17 -18 -13 -2 -18 3 -18 18 0 15 5 20 18
18 9 -2 17 -10 17 -18z m-435 -50 c0 -12 -28 -25 -36 -17 -9 9 6 27 22 27 8 0
14 -5 14 -10z m490 -126 c0 -16 -36 -19 -45 -4 -4 6 -1 17 5 26 14 16 40 2 40
-22z m-174 -131 c17 -17 17 -18 0 -21 -25 -5 -46 5 -46 23 0 20 24 19 46 -2z
m-86 -113 c12 -7 12 -13 4 -27 -15 -24 -38 -27 -58 -7 -30 29 16 59 54 34z
m363 -84 c3 -8 3 -17 0 -20 -7 -7 -33 13 -33 25 0 15 27 10 33 -5z m-570 -144
c22 -24 13 -32 -40 -32 -44 0 -55 14 -31 38 18 18 53 15 71 -6z m401 -44 c5
-9 7 -20 4 -23 -10 -10 -48 14 -48 31 0 20 29 14 44 -8z m-644 -342 c0 -22
-19 -30 -35 -16 -22 18 -18 30 10 30 15 0 25 -6 25 -14z m180 -26 c0 -11 -4
-21 -9 -24 -13 -8 -34 21 -27 39 7 20 36 8 36 -15z m719 -599 c-16 -5 -33 15
-24 30 6 9 12 7 22 -7 9 -13 10 -20 2 -23z m212 -11 c25 -14 25 -40 -1 -40
-20 0 -44 32 -33 44 8 8 11 8 34 -4z m59 -584 c5 -14 18 -30 30 -36 23 -12 27
-40 6 -40 -32 0 -94 69 -81 90 11 18 35 10 45 -14z m-160 -50 c0 -18 -37 -27
-50 -12 -13 16 -3 26 27 26 13 0 23 -6 23 -14z"/>
<path d="M27015 16220 c-87 -18 -175 -68 -175 -100 0 -13 14 -23 51 -35 37
-13 71 -36 124 -86 l72 -68 6 -722 6 -722 -43 -86 c-64 -126 -63 -122 -22
-204 26 -51 39 -94 46 -147 5 -41 10 -379 10 -751 l0 -676 -78 -74 c-69 -67
-94 -83 -154 -103 -46 -14 9 -68 102 -101 115 -40 232 -28 365 37 l81 41 96
-52 95 -51 474 0 c571 0 622 4 736 59 l84 41 70 -35 c97 -49 179 -69 259 -62
112 9 220 63 220 108 0 12 -15 22 -50 34 -33 11 -71 36 -116 78 l-67 62 -13
200 c-18 280 -21 302 -55 371 -54 112 -211 234 -301 234 -50 0 -57 -18 -28
-80 30 -64 31 -187 2 -252 -24 -55 -108 -133 -158 -148 -26 -8 -187 -14 -491
-17 l-453 -6 0 594 1 594 49 90 49 89 -50 93 -50 92 3 723 c3 685 4 725 22
761 26 53 91 106 167 137 90 36 87 53 -15 105 -77 38 -83 40 -175 39 -99 -1
-159 -17 -271 -74 l-43 -22 -86 41 c-119 56 -200 70 -296 51z m410 -262 c36
-16 26 -31 -30 -45 -43 -11 -52 -10 -75 5 l-25 17 33 3 c18 2 36 10 39 18 6
17 24 18 58 2z m-155 -278 c0 -11 -6 -20 -14 -20 -18 0 -29 16 -21 30 11 18
35 11 35 -10z m180 -17 c0 -5 -5 -15 -10 -23 -8 -12 -10 -11 -10 8 0 12 5 22
10 22 6 0 10 -3 10 -7z m88 -329 c4 -25 -24 -52 -39 -37 -6 6 -7 22 -3 37 8
32 37 32 42 0z m-228 -158 c0 -8 -5 -18 -11 -22 -14 -8 -33 11 -25 25 10 16
36 13 36 -3z m276 -80 c8 -22 -14 -56 -36 -56 -22 0 -26 20 -10 51 12 22 38
25 46 5z m-92 -84 c-4 -18 -10 -32 -15 -32 -11 0 -12 63 -2 74 13 13 23 -11
17 -42z m-139 -112 c34 -28 2 -60 -38 -39 -30 16 -57 40 -57 52 0 13 77 2 95
-13z m-5 -255 c0 -8 -7 -15 -15 -15 -8 0 -15 7 -15 15 0 8 7 15 15 15 8 0 15
-7 15 -15z m214 -172 c9 -22 -10 -41 -25 -26 -13 13 -5 43 10 43 5 0 12 -8 15
-17z m-196 -280 c-2 -10 -10 -18 -18 -18 -8 0 -16 8 -18 18 -2 12 3 17 18 17
15 0 20 -5 18 -17z m-24 -158 c3 -9 -1 -18 -10 -22 -19 -7 -39 11 -30 26 10
16 33 13 40 -4z m126 -689 c0 -32 -18 -43 -37 -23 -20 20 -10 47 17 47 15 0
20 -7 20 -24z m-34 -318 c9 -15 -59 -78 -85 -78 -10 0 -24 7 -31 15 -18 21 4
45 41 45 15 0 34 7 41 15 16 18 25 19 34 3z m1538 -248 c16 -16 -5 -30 -43
-30 -40 0 -68 21 -56 41 8 12 84 4 99 -11z m-380 -79 c3 -5 -1 -12 -10 -15
-22 -9 -24 -8 -24 9 0 16 25 21 34 6z m-414 -15 c0 -8 -9 -24 -20 -37 -16 -20
-19 -21 -20 -6 0 20 21 57 32 57 5 0 8 -6 8 -14z"/>
<path d="M750 16211 c-64 -21 -151 -73 -148 -88 2 -8 31 -26 66 -39 86 -32
115 -55 162 -126 l40 -59 0 -537 c-1 -593 -11 -870 -34 -947 -8 -28 -27 -66
-41 -85 -32 -43 -32 -66 1 -114 15 -22 33 -60 41 -85 21 -70 32 -360 32 -836
1 -459 -8 -646 -32 -692 -20 -37 -84 -97 -127 -118 -47 -23 -100 -64 -100 -76
0 -15 96 -56 175 -75 103 -24 179 -14 283 36 46 22 91 40 99 40 8 0 51 -16 95
-35 153 -68 280 -70 405 -8 82 40 83 63 5 98 -34 15 -79 47 -107 75 -81 82
-78 46 -82 985 -2 451 0 863 5 915 l9 95 36 -75 c44 -94 181 -422 339 -815
178 -444 238 -603 238 -634 0 -59 -138 -179 -284 -246 -41 -19 -78 -40 -81
-46 -20 -31 86 -84 205 -101 105 -16 213 -1 358 49 l112 38 97 -33 c138 -45
201 -55 338 -50 129 5 190 22 229 67 20 21 20 22 0 40 -10 10 -48 30 -84 44
-121 50 -260 174 -260 232 0 59 96 314 387 1024 209 512 210 514 222 507 11
-7 19 -1019 12 -1491 -6 -383 -7 -391 -30 -438 -29 -59 -117 -133 -178 -149
-55 -15 -56 -39 -5 -72 128 -85 285 -85 453 -1 l71 36 68 -35 c161 -85 324
-85 453 0 44 29 51 64 13 64 -31 0 -140 73 -170 113 -13 18 -29 48 -35 67 -19
52 -30 407 -31 948 l0 482 50 100 c28 55 50 107 50 116 0 9 -23 58 -50 109
l-50 92 1 449 c0 247 4 569 8 715 l8 265 30 45 c54 78 129 137 196 153 15 3
27 10 27 15 0 17 -70 70 -107 81 -61 18 -264 24 -335 10 -145 -28 -300 -109
-421 -220 -86 -79 -112 -136 -532 -1175 -137 -338 -298 -723 -391 -932 -15
-35 -30 -63 -34 -63 -4 0 -29 51 -55 113 -131 306 -285 677 -462 1112 -377
929 -403 973 -624 1081 -165 82 -184 86 -354 90 -82 2 -161 0 -175 -5z m624
-347 c3 -9 6 -30 6 -47 0 -18 7 -45 15 -61 19 -36 20 -32 -16 -45 -41 -14 -49
-8 -49 38 0 49 -8 56 -36 30 -28 -26 -69 -23 -69 6 0 14 11 23 40 33 22 7 51
24 65 37 29 29 36 31 44 9z m-237 -84 l2 -65 -25 51 c-25 54 -23 87 5 82 13
-3 16 -17 18 -68z m83 -134 c0 -17 -56 -66 -76 -66 -29 0 -15 35 26 63 30 21
50 22 50 3z m-120 -16 c0 -12 -28 -25 -36 -17 -9 9 6 27 22 27 8 0 14 -5 14
-10z m2288 -54 c3 -12 -1 -17 -10 -14 -7 3 -15 13 -16 22 -3 12 1 17 10 14 7
-3 15 -13 16 -22z m-2248 -29 c0 -19 -10 -27 -26 -20 -21 8 -17 33 6 33 11 0
20 -6 20 -13z m261 -27 c26 -14 24 -27 -6 -34 -18 -4 -28 -17 -36 -46 -15 -50
-45 -62 -71 -30 -26 32 -24 85 4 104 26 18 80 21 109 6z m169 -70 c0 -14 -37
-31 -54 -24 -30 12 -18 34 19 34 19 0 35 -4 35 -10z m-436 -22 c8 -14 7 -21
-5 -33 -28 -29 -73 11 -48 42 15 17 38 13 53 -9z m346 -22 c0 -8 -7 -16 -15
-20 -10 -4 -15 1 -15 14 0 11 7 20 15 20 8 0 15 -6 15 -14z m-250 -47 c0 -11
-16 -36 -35 -57 -28 -30 -37 -34 -44 -23 -11 18 11 80 35 98 21 15 44 6 44
-18z m165 -30 c0 -8 -10 -15 -22 -17 -25 -4 -33 22 -10 31 18 8 32 2 32 -14z
m170 1 c8 -13 -13 -40 -31 -40 -14 0 -19 31 -7 43 10 10 31 8 38 -3z m-70 -50
c8 -13 -4 -50 -16 -50 -13 0 -22 27 -15 45 6 17 22 20 31 5z m-240 -50 c0 -22
-39 -19 -43 3 -3 15 1 18 20 15 12 -2 23 -10 23 -18z m398 -46 c11 -12 -13
-44 -33 -44 -22 0 -34 15 -26 35 5 15 47 21 59 9z m-135 -45 c4 -37 -20 -54
-42 -30 -14 16 -15 23 -6 41 15 28 44 22 48 -11z m-142 -45 c-5 -13 -10 -14
-18 -6 -6 6 -8 18 -4 28 5 13 10 14 18 6 6 -6 8 -18 4 -28z m-298 -162 c2 -14
-2 -22 -11 -22 -17 0 -30 27 -21 41 9 16 29 4 32 -19z m163 -64 c42 -23 52
-48 19 -48 -22 0 -70 41 -70 60 0 14 7 13 51 -12z m197 -105 c-2 -10 -10 -18
-18 -18 -8 0 -16 8 -18 18 -2 12 3 17 18 17 15 0 20 -5 18 -17z m1282 -1199
c0 -8 -9 -14 -20 -14 -19 0 -27 19 -14 33 10 9 34 -4 34 -19z m-1600 -270 c0
-9 -5 -14 -12 -12 -18 6 -21 28 -4 28 9 0 16 -7 16 -16z m1300 -389 c-12 -15
-30 -12 -30 6 0 5 10 9 21 9 18 0 19 -2 9 -15z"/>
<path d="M7648 11729 c-294 -34 -555 -162 -791 -389 -121 -115 -209 -231 -282
-371 -133 -257 -147 -339 -165 -1019 -12 -430 -24 -643 -41 -704 -6 -22 -31
-69 -55 -104 -24 -35 -44 -72 -44 -81 0 -9 16 -43 35 -76 78 -133 81 -154 95
-540 29 -841 38 -959 80 -1087 87 -261 291 -543 513 -708 150 -112 367 -206
581 -252 132 -28 385 -31 524 -5 114 21 288 76 403 128 112 51 132 50 197 -5
72 -61 105 -81 197 -112 111 -38 274 -40 385 -6 154 49 267 147 343 301 35 70
42 96 45 157 5 86 8 82 -122 113 -49 12 -119 37 -157 57 -64 34 -219 155 -219
172 0 4 14 53 31 107 59 187 68 291 89 1025 13 454 16 477 80 608 27 57 50
111 50 120 0 9 -18 46 -40 82 -22 36 -47 87 -55 115 -20 67 -33 298 -45 815
-11 477 -20 576 -69 709 -114 313 -353 599 -638 761 -276 159 -604 225 -925
189z m933 -755 c11 -14 10 -18 -6 -30 -24 -18 -34 -18 -41 1 -15 38 21 60 47
29z m-596 -61 c163 -41 330 -175 406 -325 47 -93 52 -164 53 -713 1 -568 1
-562 -80 -712 -26 -46 -46 -95 -46 -108 0 -13 16 -50 36 -83 59 -97 75 -182
87 -457 11 -235 9 -559 -4 -571 -3 -3 -52 8 -109 26 -179 55 -356 49 -496 -17
-111 -52 -262 -229 -297 -346 -17 -59 -19 -89 -5 -137 10 -35 11 -36 113 -63
56 -15 129 -41 161 -58 112 -56 179 -130 147 -162 -15 -15 -143 -11 -230 7
-132 28 -258 113 -356 241 -71 92 -92 143 -105 251 -13 119 -13 999 1 1084 9
59 44 136 114 256 l18 31 -35 59 c-64 106 -87 161 -99 233 -7 48 -9 240 -6
584 4 563 4 556 68 678 62 117 212 244 334 283 144 47 208 50 330 19z m-902
-75 c7 -21 -4 -38 -23 -38 -23 0 -34 16 -26 35 7 18 43 20 49 3z m94 -52 c-8
-20 -37 -10 -37 13 0 10 3 21 7 25 11 11 36 -21 30 -38z m1524 -277 c8 -15 8
-24 0 -32 -15 -15 -46 16 -38 37 9 22 24 20 38 -5z m339 -163 c0 -27 -28 -43
-36 -21 -6 16 12 45 27 45 5 0 9 -11 9 -24z m34 -802 c34 -34 7 -76 -35 -54
-18 10 -26 50 -12 63 11 12 31 8 47 -9z m-304 -545 c0 -23 -44 -36 -65 -19
-21 17 -19 29 7 39 31 11 58 2 58 -20z m-1905 -24 c0 -22 -31 -33 -47 -17 -17
17 -1 44 24 40 15 -2 23 -10 23 -23z m2153 -8 c2 -18 -2 -29 -13 -34 -20 -7
-35 12 -35 45 0 19 5 23 23 20 16 -2 23 -11 25 -31z m-2270 -329 c16 -16 16
-78 0 -78 -33 1 -61 45 -47 72 11 21 30 23 47 6z m264 -1045 c31 -21 38 -32
36 -52 -5 -40 -46 -35 -75 8 -25 37 -30 71 -11 71 7 0 29 -12 50 -27z m1823
-128 c18 -14 44 -14 110 1 15 4 11 -3 -15 -26 -40 -35 -77 -38 -114 -9 -45 35
-27 68 19 34z m-95 -251 c11 -12 11 -18 -2 -30 -13 -13 -16 -12 -32 5 -19 21
-14 41 8 41 8 0 19 -7 26 -16z m192 -269 c-3 -31 -44 -109 -63 -120 -19 -12
-39 17 -39 55 0 51 41 102 79 98 22 -3 26 -7 23 -33z m-1449 -12 c5 -3 0 -14
-10 -25 -14 -16 -27 -19 -61 -15 -44 5 -86 32 -76 49 6 10 129 2 147 -9z m665
-15 c33 -33 -17 -78 -53 -48 -26 22 -10 60 25 60 9 0 21 -5 28 -12z"/>
<path d="M9895 11726 c-108 -25 -215 -89 -215 -129 0 -20 38 -46 132 -91 133
-63 169 -108 194 -245 33 -178 43 -1565 14 -1846 -16 -146 -36 -208 -92 -282
-26 -35 -48 -68 -48 -73 0 -4 33 -64 74 -133 l74 -124 11 -494 c20 -884 28
-938 164 -1184 83 -151 138 -226 242 -331 201 -202 458 -336 758 -396 147 -29
418 -32 544 -5 275 58 528 194 728 392 146 143 238 279 318 467 85 197 95 299
103 993 l6 520 75 142 74 142 -82 157 -82 156 12 966 13 967 36 54 c56 81 133
146 228 191 54 25 84 46 84 56 0 22 -51 68 -104 93 -54 26 -165 51 -231 51
-115 0 -262 -38 -348 -91 -26 -16 -61 -29 -77 -29 -17 0 -69 18 -117 39 -164
73 -287 94 -422 71 -74 -12 -216 -74 -242 -106 -24 -29 0 -51 92 -84 68 -25
124 -71 201 -168 l58 -73 0 -992 0 -992 -79 -133 -79 -133 54 -75 c103 -145
120 -269 111 -823 -8 -490 -23 -570 -128 -720 -109 -156 -281 -241 -489 -241
-233 0 -364 83 -538 339 l-57 83 0 542 c0 406 3 559 13 613 15 78 53 165 104
232 l33 43 -83 162 -83 161 10 890 c11 876 16 993 47 1088 24 74 56 103 184
167 65 32 120 67 124 76 5 12 -7 29 -38 59 -126 121 -445 123 -640 4 -77 -47
-91 -47 -193 4 -49 25 -118 53 -153 62 -88 23 -222 28 -295 11z m710 -441 c0
-13 -8 -21 -22 -23 -19 -3 -23 1 -23 23 0 22 4 26 23 23 14 -2 22 -10 22 -23z
m-95 -34 c5 -11 10 -48 10 -82 0 -45 5 -68 17 -81 16 -18 16 -20 -4 -39 -11
-11 -38 -23 -60 -26 -48 -6 -57 7 -42 62 14 49 1 62 -40 41 -62 -33 -79 -36
-95 -20 -24 23 -9 40 66 75 39 19 78 46 90 61 23 33 43 36 58 9z m2164 -153
c24 -39 -35 -76 -68 -43 -9 9 -16 20 -16 25 0 17 33 41 53 38 11 -2 25 -11 31
-20z m-174 -58 c0 -37 -93 -140 -125 -140 -47 0 -13 69 58 121 41 30 67 37 67
19z m-1985 -280 c11 -18 -25 -119 -54 -152 -33 -37 -52 -34 -81 14 -28 46 -26
93 5 123 19 20 34 25 74 25 27 0 53 -5 56 -10z m1940 -205 c0 -26 -52 -35 -62
-10 -7 20 14 36 42 33 12 -2 20 -11 20 -23z m-2150 -2 c4 -13 -4 -27 -29 -50
-31 -29 -66 -43 -66 -28 0 8 31 68 42 83 15 18 45 15 53 -5z m232 -39 c4 -11
-1 -22 -12 -31 -22 -16 -35 -13 -49 10 -8 13 -7 20 4 27 23 15 50 12 57 -6z
m-209 -126 c7 -7 12 -17 12 -24 0 -19 -32 -26 -47 -11 -15 15 -8 47 11 47 7 0
17 -5 24 -12z m362 -137 c0 -16 -30 -33 -46 -27 -13 5 -14 9 -4 21 13 16 50
21 50 6z m-170 -57 c11 -12 10 -18 -3 -31 -13 -13 -19 -14 -31 -3 -19 15 -21
36 -3 43 20 9 24 8 37 -9z m2002 -70 c42 -29 46 -39 22 -48 -23 -9 -54 -7 -96
5 -30 8 -38 15 -38 33 0 12 3 26 7 29 15 15 69 5 105 -19z m-2164 -291 c3 -19
-1 -23 -22 -23 -14 0 -30 8 -35 19 -13 23 -4 33 29 29 17 -2 26 -10 28 -25z
m237 -93 c10 -16 -14 -40 -40 -40 -26 0 -39 22 -22 39 14 14 54 14 62 1z m-29
-595 c-7 -18 -47 -17 -53 1 -2 7 4 19 13 29 15 15 19 15 32 1 8 -8 12 -22 8
-31z m-8 -982 c-2 -9 -8 -18 -15 -20 -14 -5 -37 33 -28 47 9 15 47 -9 43 -27z
m-30 -335 c16 -16 15 -45 -2 -51 -17 -7 -36 11 -36 33 0 30 18 38 38 18z m160
-355 c-3 -30 -25 -42 -34 -19 -6 17 11 46 28 46 5 0 8 -12 6 -27z m1112 -528
c16 -20 4 -35 -28 -35 -41 0 -59 15 -43 34 17 20 55 21 71 1z"/>
<path d="M14890 11734 c-272 -32 -445 -95 -655 -238 -165 -112 -381 -350 -469
-518 -108 -203 -138 -386 -156 -938 -22 -715 -33 -798 -118 -923 -18 -25 -32
-53 -32 -61 0 -9 18 -42 39 -74 87 -127 91 -153 101 -757 9 -529 18 -655 59
-816 96 -375 372 -707 736 -885 223 -108 390 -147 640 -148 200 0 302 15 476
74 211 70 353 157 516 314 262 252 391 509 433 866 6 52 15 309 20 570 5 261
14 511 20 554 15 102 42 174 89 234 20 26 40 52 44 59 5 7 -10 34 -37 67 -53
65 -80 135 -96 242 -6 43 -15 300 -20 569 -11 599 -21 684 -101 890 -180 464
-596 819 -1055 900 -86 15 -363 28 -434 19z m-430 -582 c0 -25 -35 -58 -45
-42 -8 12 20 60 35 60 6 0 10 -8 10 -18z m25 -113 c0 -17 -6 -24 -20 -24 -23
0 -33 34 -13 46 20 13 33 5 33 -22z m1529 -124 c3 -8 -2 -19 -9 -25 -18 -15
-65 -4 -65 15 0 31 62 40 74 10z m-785 -21 c42 -14 101 -41 132 -59 108 -66
213 -195 246 -303 32 -105 40 -853 12 -1164 -10 -120 -29 -172 -83 -237 -43
-52 -42 -73 7 -161 81 -146 79 -140 88 -292 10 -187 10 -603 0 -843 -13 -288
-36 -352 -172 -479 -80 -76 -149 -118 -236 -146 -212 -66 -432 -8 -608 161
-45 43 -94 101 -109 128 -55 102 -59 141 -63 683 -3 320 -1 522 6 565 7 48 28
104 69 188 l59 120 -59 120 c-37 76 -62 142 -68 180 -13 80 -13 885 0 1016 13
131 42 228 88 298 34 50 136 141 213 188 120 74 321 90 478 37z m861 -809 c26
-32 -13 -81 -47 -59 -35 22 -23 74 17 74 10 0 23 -7 30 -15z m-22 -228 c2 -10
1 -25 -2 -34 -6 -14 -9 -14 -26 2 -28 25 -27 57 2 53 13 -2 24 -11 26 -21z
m-2248 -207 c13 -24 5 -41 -15 -34 -26 10 -30 54 -5 54 5 0 14 -9 20 -20z
m2168 -88 c2 -14 -2 -22 -11 -22 -19 0 -40 26 -32 40 11 18 40 6 43 -18z m52
-66 c7 -10 8 -21 3 -31 -8 -14 -11 -14 -27 4 -10 11 -15 25 -11 30 9 15 20 14
35 -3z m114 -105 c10 -16 -5 -41 -24 -41 -23 0 -34 16 -26 35 6 16 42 20 50 6z
m105 -307 c15 -33 6 -64 -19 -64 -19 0 -30 19 -30 54 0 44 31 50 49 10z m-301
-406 c-2 -15 -10 -23 -23 -23 -13 0 -21 8 -23 23 -3 18 1 22 23 22 22 0 26 -4
23 -22z m55 -160 c8 -12 8 -24 -1 -42 -19 -43 -72 -28 -72 21 0 40 52 55 73
21z m57 -106 c0 -21 -18 -42 -37 -42 -13 0 -18 41 -6 53 14 14 43 7 43 -11z
m154 -158 c22 -57 -11 -143 -37 -99 -21 36 -36 85 -31 100 8 20 60 19 68 -1z
m-2389 -84 c0 -18 -6 -26 -21 -28 -26 -4 -40 24 -23 45 18 21 44 11 44 -17z
m2091 -176 c14 -56 -24 -170 -48 -146 -17 17 -23 159 -8 177 16 20 48 3 56
-31z m252 -41 c3 -19 -1 -23 -22 -23 -29 0 -39 11 -30 35 10 24 48 15 52 -12z
m-91 -118 c15 -19 32 -35 36 -35 5 0 23 16 41 35 24 26 42 35 65 35 19 0 31
-5 31 -13 0 -19 -53 -98 -89 -131 l-31 -30 -42 31 c-67 48 -81 71 -66 111 7
17 16 32 20 32 4 0 20 -16 35 -35z m-2089 -69 c4 -21 -14 -37 -35 -29 -14 5
-18 35 -6 47 12 12 38 1 41 -18z m1960 -274 c5 -32 -16 -56 -34 -41 -15 12
-19 51 -7 63 14 13 38 0 41 -22z m-1814 -14 c14 -20 14 -23 1 -31 -22 -12 -55
1 -55 22 0 37 31 42 54 9z m1967 -78 c43 -23 8 -58 -45 -44 -23 5 -46 30 -46
48 0 10 70 6 91 -4z m-226 -131 c4 -16 16 -36 28 -44 18 -12 19 -18 9 -40 -13
-29 -39 -42 -53 -28 -14 14 -34 117 -26 136 9 24 35 10 42 -24z m-123 -24 c3
-3 1 -24 -4 -46 -12 -46 -38 -65 -69 -49 -29 16 -23 70 11 87 26 13 53 17 62
8z m-131 -92 c3 -49 -12 -73 -36 -53 -15 13 -21 51 -8 63 13 14 43 7 44 -10z
m141 -70 c6 -24 -1 -53 -13 -53 -5 0 -9 16 -9 35 0 36 15 48 22 18z m-1158
-42 c10 -11 16 -31 14 -48 -2 -22 -8 -28 -28 -28 -32 0 -56 45 -40 75 13 25
32 26 54 1z m924 -89 c3 -19 -1 -23 -15 -20 -10 2 -19 14 -21 26 -3 19 1 23
15 20 10 -2 19 -14 21 -26z m320 -4 c18 -18 14 -38 -8 -38 -15 0 -20 7 -20 25
0 27 9 32 28 13z m-1378 -79 c0 -14 -20 -20 -40 -14 -24 8 -25 18 -3 40 16 16
17 16 30 -1 7 -10 13 -21 13 -25z m430 31 c12 -7 12 -12 -4 -29 -11 -12 -25
-21 -33 -21 -19 0 -27 28 -13 45 14 17 29 19 50 5z"/>
<path d="M16694 11726 c-76 -17 -158 -56 -204 -95 -29 -25 -33 -32 -24 -48 6
-10 34 -25 62 -35 63 -20 125 -62 177 -119 93 -101 102 -137 115 -476 10 -261
19 -316 73 -417 41 -78 145 -182 223 -223 98 -52 236 -80 247 -50 2 6 -6 40
-19 75 -45 122 -51 302 -13 374 41 76 144 163 228 193 50 17 242 37 254 26 4
-4 4 -372 -1 -817 l-8 -809 -73 -124 c-67 -113 -72 -125 -61 -149 6 -14 43
-84 81 -156 l70 -130 -6 -715 c-7 -775 -17 -1098 -39 -1202 -29 -133 -64 -172
-229 -255 -103 -52 -108 -68 -39 -121 59 -44 128 -64 252 -70 134 -6 220 11
352 73 113 53 127 53 207 4 111 -69 263 -101 385 -82 127 20 281 95 281 137 0
20 -5 23 -110 71 -69 32 -148 106 -190 178 -28 47 -29 56 -37 230 -5 100 -6
555 -3 1011 l7 830 53 80 c91 138 93 147 38 226 -54 78 -81 162 -94 291 -7 73
-12 362 -13 808 l-1 695 55 3 c89 5 208 -15 277 -48 85 -39 165 -117 206 -199
29 -60 32 -74 32 -161 0 -87 -3 -102 -36 -177 -41 -92 -38 -103 23 -103 70 0
240 88 325 168 48 45 109 145 132 215 26 80 41 203 41 345 0 150 17 292 42
360 28 76 92 136 204 195 117 60 124 69 85 97 -47 33 -154 79 -224 95 -133 32
-247 13 -419 -68 l-116 -55 -128 70 -129 69 -730 -4 c-823 -5 -773 0 -943 -85
l-102 -52 -98 49 c-53 27 -122 57 -152 66 -77 23 -211 28 -286 11z m1717 -219
c48 -32 45 -52 -8 -50 -56 2 -83 18 -83 48 0 21 5 25 29 25 15 0 43 -10 62
-23z m-336 7 c8 -4 22 -19 30 -34 12 -23 12 -30 1 -46 -12 -15 -19 -17 -42 -9
-33 12 -60 54 -51 78 7 17 33 22 62 11z m526 -20 c17 -20 1 -48 -31 -52 -30
-5 -44 11 -36 42 7 30 45 36 67 10z m559 -36 c26 -43 43 -124 30 -147 -9 -18
-12 -18 -57 -3 -27 8 -54 17 -60 18 -26 7 -12 33 23 44 45 15 51 32 25 66 -26
34 -27 54 -1 54 12 0 28 -13 40 -32z m-358 -5 c24 -21 23 -55 -2 -78 -18 -17
-21 -17 -45 -1 -17 11 -25 26 -25 44 0 49 37 67 72 35z m198 -8 c10 -12 10
-18 0 -30 -25 -30 -61 -7 -46 30 3 8 12 15 19 15 8 0 20 -7 27 -15z m-948
-165 c37 -38 34 -62 -12 -72 -62 -14 -110 11 -110 56 0 55 73 64 122 16z
m1338 -20 c26 -26 28 -114 3 -142 -19 -22 -56 -23 -76 -4 -19 19 -30 107 -17
140 12 33 60 36 90 6z m-759 -111 c9 -17 8 -25 -4 -37 -14 -14 -18 -13 -41 2
-14 9 -26 25 -26 36 0 29 55 28 71 -1z m-1363 -11 c30 -30 -11 -80 -52 -65
-33 13 -13 77 24 77 9 0 21 -5 28 -12z m753 -29 c20 -10 20 -11 3 -30 -25 -28
-89 -45 -109 -29 -51 42 41 94 106 59z m337 -143 c5 -24 -10 -38 -31 -30 -17
6 -23 35 -10 48 12 12 38 1 41 -18z m42 -81 c18 -22 -1 -39 -34 -31 -35 9 -36
46 -2 46 13 0 29 -7 36 -15z m-120 -290 c0 -18 -48 -31 -62 -17 -16 16 0 32
33 32 19 0 29 -5 29 -15z m-172 -367 c32 -32 -4 -87 -48 -73 -26 8 -25 40 0
65 23 23 31 25 48 8z m186 -114 c20 -20 21 -53 1 -60 -34 -13 -83 45 -58 69
11 12 41 7 57 -9z m-30 -167 c25 -51 11 -68 -39 -44 -56 27 -61 91 -7 85 20
-2 32 -13 46 -41z m170 -173 c22 -8 20 -23 -6 -51 -26 -27 -53 -30 -63 -6 -4
12 2 25 20 40 29 26 28 25 49 17z m-253 -104 c43 -23 3 -69 -44 -51 -30 12
-41 27 -33 46 6 17 49 20 77 5z m-46 -154 c16 -24 11 -56 -9 -56 -21 0 -56 31
-56 49 0 38 42 43 65 7z m212 -47 c7 -7 13 -32 13 -61 0 -60 -21 -74 -53 -35
-12 13 -33 27 -47 31 -14 3 -34 12 -45 20 -16 12 -18 18 -9 33 19 32 108 39
141 12z m-157 -87 c29 -23 19 -42 -21 -42 -41 0 -69 17 -69 40 0 16 7 20 34
20 19 0 44 -8 56 -18z m41 -132 c23 -13 25 -48 4 -57 -9 -3 -24 2 -35 12 -15
13 -17 22 -9 36 11 22 14 23 40 9z m-171 -75 c10 -12 10 -18 0 -30 -7 -8 -18
-15 -26 -15 -19 0 -29 41 -13 51 19 12 25 11 39 -6z m170 -173 c0 -28 -11 -34
-31 -16 -21 19 -16 34 12 34 12 0 19 -7 19 -18z m-61 -86 c28 -33 -35 -75 -66
-43 -12 11 -13 19 -4 36 13 24 53 28 70 7z m190 -85 c24 -33 26 -41 9 -41 -19
0 -48 31 -48 52 0 26 16 22 39 -11z m29 -184 c4 -36 -15 -62 -34 -46 -15 12
-19 61 -7 73 15 15 38 0 41 -27z m-81 -603 c3 -8 -2 -23 -11 -32 -14 -15 -18
-15 -31 -1 -9 9 -13 23 -9 32 8 21 43 22 51 1z m5 -134 c32 -66 34 -87 9 -95
-10 -3 -35 -22 -55 -42 l-36 -36 6 47 c6 41 4 49 -15 62 -25 18 -27 51 -4 84
38 56 60 51 95 -20z m43 -380 c8 -26 -11 -60 -34 -60 -23 0 -42 40 -29 63 13
24 55 22 63 -3z"/>
<path d="M20425 11730 c-69 -15 -148 -49 -198 -86 -53 -39 -58 -61 -17 -80 14
-6 51 -24 83 -38 75 -34 150 -104 181 -170 48 -98 51 -168 51 -1041 0 -982 -6
-1063 -90 -1167 -71 -89 -71 -87 -15 -163 101 -137 105 -178 105 -1190 0 -859
-4 -936 -47 -1037 -28 -66 -105 -133 -206 -180 -45 -21 -85 -45 -89 -54 -14
-37 113 -114 234 -139 146 -31 258 -13 422 69 l111 56 103 -52 c169 -85 119
-80 942 -85 l730 -4 129 69 128 70 102 -48 c55 -26 126 -55 156 -64 134 -40
288 -29 407 29 110 53 159 125 86 125 -89 0 -254 130 -286 225 -23 66 -44 240
-57 463 -6 101 -15 205 -21 232 -29 134 -182 293 -354 370 -59 26 -149 38
-159 21 -4 -6 10 -48 31 -93 36 -79 38 -88 38 -183 0 -82 -4 -109 -22 -148
-32 -70 -77 -122 -161 -188 l-73 -59 -655 0 -654 0 0 724 0 724 123 7 c67 4
230 5 362 4 l240 -4 60 -29 c39 -19 86 -56 135 -105 63 -63 81 -88 104 -148
17 -46 33 -73 43 -73 45 0 134 157 153 271 21 125 4 207 -78 369 l-68 135 46
71 c110 169 130 394 49 561 -26 55 -86 123 -108 123 -5 0 -19 -28 -31 -62 -13
-35 -36 -82 -51 -105 -63 -91 -180 -165 -290 -183 -71 -11 -477 -14 -606 -3
l-83 6 0 722 0 722 513 8 c652 9 728 4 850 -57 79 -39 140 -98 168 -161 20
-45 24 -68 24 -167 0 -99 -4 -126 -27 -198 -16 -46 -28 -87 -28 -93 0 -18 76
-8 142 20 93 40 197 112 257 177 101 111 133 222 151 529 14 228 27 336 46
386 30 74 164 171 257 187 22 4 45 15 51 24 25 40 -108 127 -233 154 -148 31
-274 11 -434 -71 l-108 -55 -100 51 c-177 88 -131 84 -914 84 -548 0 -702 -3
-750 -14 -33 -7 -108 -38 -168 -67 l-107 -54 -88 44 c-48 24 -118 53 -157 65
-78 25 -217 35 -280 21z m1150 -298 c-11 -20 -27 -38 -36 -40 -40 -7 -27 72
13 87 37 14 46 -5 23 -47z m-357 26 c18 -18 14 -38 -7 -38 -23 0 -35 15 -27
35 7 18 18 19 34 3z m1460 -76 c3 -30 1 -33 -20 -30 -23 3 -34 27 -24 54 11
28 41 11 44 -24z m-1444 -88 c8 -21 -1 -34 -24 -34 -22 0 -34 15 -26 35 7 20
42 19 50 -1z m-278 -160 c-7 -19 -22 -18 -30 2 -4 9 2 29 11 43 l18 26 3 -28
c2 -16 1 -35 -2 -43z m1992 14 c-2 -15 -10 -23 -23 -23 -13 0 -21 8 -23 23 -3
18 1 22 23 22 22 0 26 -4 23 -22z m-1850 -282 c-4 -29 -33 -31 -59 -5 -21 21
-21 23 -5 35 25 18 68 -2 64 -30z m-48 -138 c0 -24 -18 -41 -34 -35 -14 5 -15
11 -6 27 12 22 40 27 40 8z m76 -2174 c-6 -16 -8 -16 -23 -2 -9 10 -13 23 -9
34 6 16 8 16 23 2 9 -10 13 -23 9 -34z m1662 -1662 c4 -12 -37 -33 -51 -25 -4
2 -2 13 4 24 11 22 40 22 47 1z m310 -146 c4 -21 -14 -37 -35 -29 -14 5 -18
35 -6 47 12 12 38 1 41 -18z"/>
<path d="M13578 7038 c-137 -120 -491 -473 -645 -643 -296 -327 -852 -1035
-1136 -1445 -173 -251 -169 -246 -179 -219 -14 37 -56 88 -87 103 -93 49 -295
18 -476 -72 -204 -101 -391 -233 -485 -342 -96 -111 -123 -133 -306 -246 -259
-161 -491 -278 -580 -294 -76 -14 -135 -8 -153 14 -7 8 -16 42 -22 77 -8 50
-7 78 6 134 l15 71 103 16 c250 40 504 161 676 323 60 56 99 124 107 189 11
74 -3 114 -56 170 -169 179 -415 139 -707 -113 -40 -33 -77 -61 -84 -61 -6 0
-86 -56 -178 -124 -481 -357 -999 -666 -1167 -696 -76 -14 -135 -8 -153 14 -7
8 -16 42 -22 77 -8 50 -7 78 6 134 l15 71 103 16 c250 40 504 161 676 323 85
79 124 179 107 271 -9 46 -87 131 -150 162 -161 81 -352 27 -588 -165 -59 -48
-69 -53 -88 -43 -12 7 -30 10 -40 7 -16 -4 -501 -341 -849 -591 -89 -64 -165
-116 -167 -114 -2 3 33 54 79 115 82 110 228 318 384 547 46 67 83 131 83 143
0 29 -60 96 -105 117 -31 15 -38 15 -62 2 -43 -22 -206 -142 -448 -331 -121
-94 -285 -220 -365 -280 -80 -59 -204 -155 -277 -213 -72 -58 -154 -118 -183
-135 l-52 -30 32 63 c18 35 77 133 133 219 163 252 283 400 491 603 l120 117
-25 35 c-34 48 -97 96 -126 96 -41 0 -271 -228 -428 -425 -96 -120 -168 -224
-264 -383 -154 -254 -166 -359 -55 -461 52 -49 80 -61 139 -61 87 0 86 -1 655
431 282 214 271 210 179 72 -44 -65 -102 -145 -129 -178 -83 -98 -109 -179
-79 -238 35 -67 135 -127 214 -127 42 0 66 16 555 370 199 144 363 260 365
258 2 -2 -6 -41 -17 -88 -15 -64 -19 -109 -16 -181 3 -83 8 -104 36 -161 38
-77 83 -120 167 -159 110 -52 237 -60 370 -25 112 29 488 239 754 419 l138 94
-5 -106 c-10 -213 62 -331 246 -402 69 -27 224 -32 312 -10 61 15 252 108 404
196 l98 56 27 -24 c117 -110 408 -99 654 24 45 23 95 51 111 62 24 17 28 18
23 5 -3 -9 -90 -155 -193 -325 -277 -456 -375 -659 -354 -734 37 -127 239
-156 393 -56 41 26 326 302 856 829 438 435 797 797 799 804 5 19 -68 95 -107
111 -31 13 -35 13 -60 -9 -93 -82 -403 -380 -681 -653 -477 -470 -949 -919
-957 -912 -6 6 170 319 310 552 234 390 580 900 646 953 32 26 40 38 36 55 -7
25 48 105 307 450 435 578 935 1163 1365 1596 136 137 243 252 243 262 0 38
-92 119 -134 119 -9 0 -53 -32 -98 -72z m-4792 -2213 c13 -33 -10 -73 -85
-146 -132 -129 -327 -245 -488 -293 -29 -8 -53 -12 -53 -7 0 16 97 139 154
197 162 161 448 312 472 249z m1460 0 c13 -33 -10 -73 -85 -146 -132 -129
-327 -245 -488 -293 -29 -8 -53 -13 -53 -10 0 18 96 141 160 204 161 159 443
307 466 245z m1318 -163 c-368 -337 -500 -441 -659 -518 -120 -58 -305 -105
-305 -76 0 4 13 28 28 54 20 35 55 66 140 127 111 79 320 243 375 295 15 14
25 30 22 36 -8 12 71 51 170 83 106 34 108 35 195 36 l75 0 -41 -37z"/>
<path d="M5226 6888 c-8 -29 -45 -161 -82 -293 -283 -1026 -653 -2083 -1073
-3074 -50 -118 -91 -222 -91 -232 0 -37 134 -111 173 -96 15 6 177 379 332
767 335 837 620 1687 859 2565 97 356 98 333 -5 384 -87 43 -95 42 -113 -21z"/>
<path d="M21373 5961 c-115 -39 -167 -88 -477 -445 -207 -239 -398 -470 -593
-720 -17 -21 -57 -41 -160 -80 -94 -35 -139 -57 -141 -69 -2 -9 17 -39 44 -67
l47 -50 -43 -56 c-73 -97 -68 -94 -175 -94 -52 0 -95 2 -95 4 0 3 4 16 9 29 6
14 15 61 21 106 26 189 -47 333 -209 414 -81 40 -159 46 -268 22 -151 -34
-298 -105 -421 -205 -35 -28 -67 -48 -73 -45 -19 13 -550 -272 -939 -504 -244
-145 -449 -250 -505 -258 -79 -10 -89 53 -37 247 97 362 200 559 391 747 85
85 99 95 161 113 81 24 104 25 124 5 13 -14 13 -20 0 -57 -17 -48 -8 -69 48
-112 89 -67 108 -65 129 15 17 64 -6 121 -78 199 -135 146 -325 169 -471 57
-110 -84 -231 -236 -305 -382 -148 -295 -213 -531 -188 -683 23 -133 97 -239
205 -292 49 -23 122 -26 187 -7 25 8 198 99 384 204 424 237 575 320 599 329
16 6 17 4 7 -14 -25 -47 -4 -95 63 -143 64 -47 85 -41 126 38 102 198 326 415
535 520 118 60 199 83 289 83 l82 0 -4 -67 c-6 -104 -56 -284 -106 -388 -25
-51 -73 -129 -106 -174 -126 -166 -315 -311 -406 -311 -22 0 -34 4 -27 8 6 4
30 60 52 126 27 78 63 155 107 227 46 77 63 115 59 129 -11 35 -116 110 -155
110 -12 0 -153 -232 -184 -302 -54 -122 -54 -243 2 -323 35 -50 112 -109 162
-124 177 -53 401 89 588 375 37 56 72 108 77 117 8 11 25 13 77 10 l67 -5 -51
-76 c-28 -42 -136 -195 -240 -340 -279 -392 -771 -1140 -820 -1247 -10 -22 -7
-30 19 -63 35 -44 106 -86 130 -77 10 3 70 90 133 193 238 388 876 1322 1074
1573 l44 56 94 7 c419 32 971 135 1402 262 65 19 121 33 124 30 5 -6 -66 -104
-99 -137 -16 -16 -36 -19 -136 -20 -164 -1 -227 -10 -231 -31 -4 -20 60 -93
99 -114 16 -8 51 -14 79 -14 l51 0 -52 -77 c-29 -42 -137 -196 -241 -341 -279
-392 -771 -1140 -820 -1247 -10 -22 -7 -30 19 -63 35 -44 106 -86 130 -77 10
3 70 90 133 193 238 388 876 1322 1074 1573 l44 56 94 7 c344 27 772 99 1158
197 108 27 199 49 203 49 4 0 -6 -26 -22 -57 -52 -104 -65 -166 -66 -303 0
-122 1 -127 33 -192 38 -77 82 -120 167 -159 110 -52 237 -60 370 -25 112 29
488 239 754 419 l138 94 -5 -106 c-10 -213 62 -331 246 -402 69 -27 224 -32
312 -10 111 28 478 228 749 410 180 121 479 351 518 399 16 20 -4 58 -52 100
-65 58 -66 58 -252 -81 -483 -358 -1001 -667 -1169 -697 -76 -14 -135 -8 -153
14 -7 8 -16 42 -22 77 -8 50 -7 78 6 134 l15 71 103 16 c250 40 504 161 676
323 60 56 99 124 107 189 11 74 -3 114 -56 170 -169 179 -415 139 -707 -113
-40 -33 -77 -61 -84 -61 -6 0 -86 -56 -178 -124 -481 -357 -999 -666 -1167
-696 -76 -14 -135 -8 -153 14 -7 8 -16 42 -22 77 -8 50 -7 78 6 134 l15 71
103 16 c250 40 504 161 676 323 60 56 99 124 107 189 11 74 -3 114 -56 170
-167 177 -411 140 -700 -106 -54 -46 -70 -55 -95 -51 -19 3 -87 -13 -177 -41
-332 -103 -692 -184 -1018 -230 -260 -36 -261 -36 -252 -21 25 44 146 187 165
195 389 157 674 326 1047 622 191 151 286 282 297 407 7 73 -17 130 -83 202
-60 63 -110 93 -194 114 -106 27 -193 -2 -314 -107 -78 -68 -550 -615 -751
-871 l-170 -216 -80 -31 c-84 -33 -92 -34 -140 -24 -21 4 -75 -8 -180 -41
-340 -106 -771 -200 -1120 -244 -82 -10 -151 -18 -153 -16 -3 3 133 178 150
192 7 6 45 23 83 38 223 86 540 265 779 440 289 212 413 329 467 443 62 128
48 220 -47 323 -59 62 -110 93 -190 113 -77 20 -87 20 -151 -3z m246 -154 c15
-19 -28 -145 -73 -213 -59 -88 -212 -224 -447 -396 -134 -99 -381 -246 -363
-216 17 28 512 606 565 659 72 72 186 158 218 165 14 3 31 7 36 9 24 8 53 4
64 -8z m1670 0 c15 -19 -28 -146 -73 -212 -59 -89 -213 -226 -447 -397 -134
-99 -381 -246 -363 -216 17 28 512 606 565 659 72 72 186 158 218 165 14 3 31
7 36 9 24 8 53 4 64 -8z m797 -982 c13 -33 -10 -73 -85 -146 -132 -129 -327
-245 -488 -293 -29 -8 -53 -13 -53 -10 0 18 96 141 160 204 161 159 443 307
466 245z m1460 0 c13 -33 -10 -73 -86 -147 -92 -89 -261 -204 -363 -246 -88
-37 -177 -63 -177 -53 0 16 97 139 154 197 162 161 448 312 472 249z"/>
<path d="M14540 4819 c-105 -24 -227 -101 -361 -226 -228 -213 -379 -411 -379
-498 0 -75 83 -174 164 -196 79 -21 236 28 382 121 53 34 223 130 228 130 2 0
0 -38 -2 -85 -4 -77 -2 -88 21 -128 29 -49 81 -89 146 -112 96 -33 160 -15
338 97 65 41 226 139 358 217 431 256 635 385 635 400 0 8 -24 38 -53 68 -38
37 -62 53 -80 53 -26 0 -808 -453 -1010 -584 -47 -31 -104 -63 -126 -71 l-40
-14 18 42 c53 122 89 185 152 267 77 100 77 99 15 159 -33 32 -36 40 -36 88 0
68 -25 118 -86 172 -88 77 -205 119 -284 100z m193 -165 c3 -4 0 -22 -8 -41
-20 -48 -20 -51 21 -90 20 -19 35 -35 33 -37 -10 -8 -708 -376 -714 -376 -3 0
9 28 27 63 24 45 67 96 163 190 71 71 157 149 190 174 108 82 261 144 288 117z"/>
</g>
</svg>
