<?xml version="1.0" encoding="utf-8"?>
<!-- Generator: Adobe Illustrator 18.0.0, SVG Export Plug-In . SVG Version: 6.00 Build 0)  -->
<!DOCTYPE svg PUBLIC "-//W3C//DTD SVG 1.1//EN" "http://www.w3.org/Graphics/SVG/1.1/DTD/svg11.dtd">
<svg version="1.1" xmlns="http://www.w3.org/2000/svg" xmlns:xlink="http://www.w3.org/1999/xlink" x="0px" y="0px"
	 viewBox="0 0 864 864" enable-background="new 0 0 864 864" xml:space="preserve" width="500" height="500">
<g>
	<g>
		<path d="M151.5,271.3c-13.4,0-23.7-5.5-31.1-16.5c-9.2-13.6-13.8-34-13.8-61c0-36.6,8.6-60.1,25.7-70.4c5.6-3.4,12.7-5.1,21.1-5.1
			c12.5,0,21.5,4.9,27,14.7c4.5,8.2,6.8,19,6.8,32.5c0,8.5-0.4,14.7-1.3,18.5c-1.4,5.9-3.8,8.8-7.2,8.8c-2.2,0-3.8-0.7-4.9-2
			c-1-1.3-1.5-3.5-1.5-6.4c0-2.5,0.2-5.2,0.7-8.3c0.6-3.8,0.9-8.3,0.9-13.4c0-7.5-1-13.9-3-19.2c-2.9-7.7-7.4-11.6-13.6-11.6
			c-12.1,0-20,10-23.6,30c-1.5,8.1-2.3,17.2-2.3,27.1c0,20.2,2.1,36.6,6.3,49.3c3.9,11.7,9.4,17.6,16.6,17.6
			c10.4,0,17.3-7.1,20.5-21.2c0.9-4,3-6,6.3-6c1.4,0,2.7,0.5,3.7,1.5c1,1,1.6,2.4,1.6,4.2c0,8.8-3.3,17.1-9.8,25
			C170.3,267.3,161.8,271.3,151.5,271.3z"/>
		<path d="M222.9,245.7c-0.5,4.2-0.9,7.8-1.3,11.1c-1.1,9.7-6,14.5-14.6,14.5c-7.3,0-11-3.9-11-11.6c0-1.8,0.6-7.3,1.8-16.5
			c1.2-9.1,3-21.5,5.5-37c4.2-26.3,9.1-48.2,14.8-65.5c4.8-14.9,11.6-22.4,20.3-22.4c7.1,0,12.9,4.1,17.4,12.3
			c2.8,5.2,5.5,12.7,8.2,22.5c7,26.1,12.9,57.1,17.6,93.2c0.7,4.7,1,8.6,1,11.6c0,3.6-0.4,6.4-1.2,8.4c-1.3,3.3-3.8,5-7.6,5
			c-4.5,0-7.1-3.1-7.9-9.2c-0.9-8.6-2-17.3-3.1-26.2c-0.4-3.1-2.3-4.7-5.8-4.7h-27.4c-3.1,0-4.9,1.7-5.4,5.1
			C223.8,238.3,223.4,241.5,222.9,245.7z M255.6,218.5c2.8,0,4.1-1.3,4.1-4c0-0.7-1-7.4-2.9-20.3c-5.4-34.6-9.8-51.9-13.1-51.9
			c-2.2,0-6.4,17.2-12.4,51.5c-2.4,13.4-3.5,20.4-3.5,21c0,2.5,1.4,3.7,4.1,3.7H255.6z"/>
		<path d="M332.6,271.3c-14.5,0-24.8-6-30.9-17.9c-4.5-9-6.8-21.7-6.8-38.1v-78.9c0-2.8,0.2-5.5,0.6-8.2c0.9-6,4.5-8.9,10.8-8.9
			c3.3,0,5.8,0.8,7.7,2.4c3.3,2.8,4.9,7.5,4.9,14v82.2c0,6.7,0.4,12.5,1.1,17.6c1,7,2.9,12.2,5.9,15.5c2.7,3,6.5,4.5,11.5,4.5
			c12.4,0,18.6-12.4,18.6-37.1v-87.5c0-4.1,0.5-7.2,1.5-9.3c1-2.2,2.9-3.2,5.6-3.2c5.6,0,8.4,4.2,8.4,12.6v87.3
			C371.5,253.5,358.5,271.3,332.6,271.3z"/>
		<path d="M427,254.9c0,10.9-4.2,16.4-12.5,16.4c-3.7,0-6.3-0.8-7.9-2.6c-1.1-1.1-1.9-2.5-2.5-4c-0.8-2.3-1.2-5.8-1.2-10.6V136.3
			c0-1.6-0.8-2.4-2.3-2.4H390c-3.2,0-5.6-0.7-7.3-2c-1.7-1.3-2.5-2.8-2.5-4.3c0-2.4,0.8-4.2,2.4-5.3c1.6-1.1,3.5-1.8,5.7-2.1
			c2.2-0.3,4.3-0.4,6.1-0.4h41.1c1.8,0,3.9,0.1,6.1,0.4c2.2,0.3,4.1,1,5.7,2.1c1.6,1.1,2.4,2.9,2.4,5.3c0,1.6-0.8,3-2.5,4.3
			c-1.7,1.3-4.1,2-7.3,2h-10.6c-1.6,0-2.4,0.8-2.4,2.4V254.9z"/>
		<path d="M498.2,269.5h-33c-4.8,0-7.3-1.7-7.3-5.1c0-4.3,2.6-6.5,7.9-6.5c1.8,0,3-0.3,3.7-0.8c0.7-0.5,1.1-1.4,1.1-2.6V134.8
			c0-2.2-1-3.3-3.1-3.4c-2.9-0.1-5-0.5-6.1-1.1c-2.3-1.2-3.4-3-3.4-5.6c0-3.1,2.6-4.7,7.9-4.7h33.4c5.2,0,7.9,1.6,7.9,4.7
			c0,2.6-1.1,4.4-3.4,5.6c-1.2,0.6-3.3,1-6.5,1.1c-1.8,0.1-2.8,1-2.8,2.7v121.4c0,1.6,0.8,2.5,2.5,2.7c2.8,0.1,4.8,0.5,5.9,1.2
			c2.2,1.2,3.3,3.1,3.3,5.6C506.1,267.9,503.5,269.5,498.2,269.5z"/>
		<path d="M560,271.3c-7.9,0-14.5-1.7-19.9-5c-5.3-3.3-9.6-7.8-12.9-13.3c-3.3-5.5-5.8-11.6-7.6-18.4c-1.7-6.8-2.9-13.7-3.4-20.8
			c-0.6-7.1-0.8-13.8-0.8-20c0-24.5,4.3-43.6,12.8-57.2c7.6-12.2,18.7-18.3,33.4-18.3c20,0,33.2,13.1,39.5,39.2
			c2.2,9.5,3.3,19.8,3.3,30.9c0,16-1.2,30-3.7,42C595.1,257.6,581.5,271.3,560,271.3z M564.2,256.5c11,0,18.4-9.5,22.3-28.6
			c2-9.8,2.9-23.4,2.9-40.8c0-9.8-0.7-18.8-2.3-26.9c-1.8-10-4.7-17.5-8.8-22.5c-3.3-4.1-7.5-6.1-12.5-6.1
			c-8.3,0-14.5,5.2-18.7,15.6c-4.3,10.8-6.5,25.7-6.5,44.7c0,20.7,2.3,37,6.8,48.9C551.4,251.3,557,256.5,564.2,256.5z"/>
		<path d="M700.9,268.3c-4.3,0-8-2.5-10.9-7.4c-6.8-10.7-16.6-27.2-29.4-49.3c-6.7-11.5-10.4-17.2-11.2-17.2c-0.8,0-1.2,1.5-1.2,4.6
			v55.8c0,10.9-4.2,16.4-12.5,16.4c-3.9,0-6.8-1.1-8.7-3.4c-1.9-2.3-2.8-6.9-2.8-13.8V135.4c0-6.6,0.9-11.1,2.7-13.5
			c1.8-2.4,4.7-3.6,8.8-3.6c3.4,0,6.2,1.4,8.3,4.2c2.1,2.8,3.2,6.8,3.2,12.1c0,17,6.2,35.7,18.6,56l23.5,38.5
			c1.4,2.4,2.5,3.5,3.2,3.5s1.2-1.4,1.2-4.2v-97.6c0-4.1,0.5-7.2,1.5-9.3c1-2.2,2.9-3.2,5.6-3.2c5.6,0,8.5,4.2,8.5,12.6v127.8
			C709.4,265.1,706.6,268.3,700.9,268.3z"/>
		<g>
			<path d="M744.1,169.6c-3.7,0-6.6-1-8.9-2.9c-2.3-1.9-3.4-4.8-3.4-8.7c0-3.7,1-6.8,3.1-9.3c2.1-2.5,5.1-3.7,9-3.7
				c3.5,0,6.6,1.2,9.3,3.5c2.7,2.3,4,5.3,4,9c0,3.4-1.2,6.3-3.5,8.6C751.5,168.4,748.3,169.6,744.1,169.6z M744.1,246.7
				c-3.7,0-6.6-1-8.9-2.8c-2.3-1.9-3.4-4.8-3.4-8.7c0-3.7,1-6.8,3.1-9.3c2.1-2.5,5.1-3.7,9-3.7c3.5,0,6.6,1.2,9.3,3.5
				c2.7,2.3,4,5.3,4,9c0,3.4-1.2,6.3-3.5,8.6C751.5,245.5,748.3,246.7,744.1,246.7z"/>
		</g>
	</g>
	<g>
		<path d="M348.1,350.3c-2,13-13,20.9-18.3,25.2c1.4-12.9,1.1-37.2,1.3-42.1c0.7-8.8-9-8.4-10.9-6.6c-7.7,3.6-12.6,48.1-18.3,50.8
			c-5.6,2.4-4.8-27.6-4.1-32.6c1.1-7.3-10.6-9.1-13.2-2c-1.1,4.2-1.8,9.5-1.8,14.8c-3.1,10.5-9.3,29.2-14.3,30.1
			c-8.3,1.7,0.6-46.6,0.6-46.6c1-6.7-2.7-10.1-6.6-10.1c-3.5,0.1-7.1,2.9-8,8.7c-0.3,1.3-0.4,2.5-0.7,3.9c-1.8-6.2-5-11.5-11.2-10.6
			c-10.9,1.7-15.1,16.5-14.1,28.8c-4.3,11.4-12,28.3-17.1,27.7c-14,0.8,19.7-68.4-11.2-76.1c-8.8-2.2-23.9,11.6-30.8,32.6
			c0,0,6.3-49.4-8.8-56c-14.6-8.1-30.6,8.1-32.6,65.6c-2.2-16.2-4.5-35.7-3.6-47.6c0.7-11.8-17.6-15.5-18.5,0.4
			c-1.7,30.4,8.1,68.9,16,75.7c4.8,4.3,10.8,3.8,9.9-2.8v-0.1c0.8-8.8,4.6-85.4,18.9-84.8c8.7,0.4,0.3,64.1,0.1,65.9
			c-0.7,11.5,11.8,16.9,15,4.8c0.7-2.7,12.5-36.5,23.2-42.8c13.7-8,1.1,27.8,3.8,54c1.3,12.3,9.5,17.4,14.6,18.3
			c10,2.1,18.1-12.5,23.1-25.5c0.9,2.4,2.1,4.3,3.6,5.6c6.3,5.6,13.7-1.7,18.1-9.4c0.1,16.8,4.2,29,13.4,29
			c7.6,0,14.1-12.7,18.4-25.2c1.6,7.6,4.8,13.5,9.9,14.4c10.6,2,15.1-4.5,22.1-37.2c-0.6,13.4-1.1,27.7-1.7,38.6
			c-6.2,5.5-11.8,11.8-15.1,21c-4.1,11.2-0.6,22.8,9.1,22.7c15.5,0,19.5-22.7,21-48.3c11.3-9.9,22-15.3,24.1-32
			C353.4,347.4,348.7,345.7,348.1,350.3z M245.3,366c-4.3,1-1.7-24.6,1.7-24.5c2.5,0,4.3,8.3,5.3,12c0.1,0.7,0.3,1.3,0.3,1.7
			C252.8,355.5,246.5,365.7,245.3,366z M312.9,409.8c-2.1,20.3-13.6,20.4-9.1,1.7c1.4-5.9,5.2-10.9,10.1-15.7
			C313.6,401,313.3,405.9,312.9,409.8z"/>
		<path d="M667.9,333.2c3.9,0,7-3.1,7-6.9c0-3.8-3.1-6.9-7-6.9c-3.8,0-6.9,3.1-6.9,6.9C661.1,330.1,664.1,333.2,667.9,333.2z"/>
		<path d="M753.7,350.9c0,0-9,32-15.7,33.3c-6.3,1.3-3.6-21.1-2-32.3c2.2-10.8,1.4-21.1-10.6-22.8c-4.8-0.6-9.8,3.2-13.2,12.3
			c-2,5-7.8,22.7-11.1,32.5c-0.1-8.4,1.5-25.3,1.5-25.5c1-12-13-12.9-14.7-1c-0.3,2.6-0.5,5.5-0.5,8.5c-2.8,9-9.2,27.4-14.3,28.3
			c-8.3,1.5-0.8-38.5-0.8-38.5c1-6.7-2.7-10.1-6.6-10.1c-3.4,0-7.1,2.8-8,8.5c-0.9,5.5-1.5,10.7-1.8,15.4
			c-3.3,10.7-9.1,27.5-13.7,28.4c-8.3,1.7,0.6-46.6,0.6-46.6c1-6.7-2.7-10.1-6.6-10.1c-3.5,0.1-7.1,2.9-8,8.7
			c-0.3,1.3-0.4,2.5-0.7,3.9c-1.8-6.2-5-11.5-11.2-10.6c-9.7,1.5-14.2,13.6-14.3,25c-3.1,9.5-8.8,25.1-13.4,26
			c-6,1.1-2.8-36.4,1.5-63.1c16.9,2.1,30.4-1.5,28.7-16.7c-0.6-4.3-6.3-3.8-5.9,1.1c2.1,12-17.2,11.2-21.7,9.9l1.1-5.9
			c1.4-5-3.1-8.5-7.6-8.5c-3.2,0-6.4,1.8-7.4,6.3l-1.1,5.5c-19.6-5.6-32.5-6.3-37.5,6.6c-1.7,4.1,3.4,5.7,4.8,2.1
			c3.5-9,13.6-9,31.9-3.5c-2,12.3-4.3,28.3-4.4,42.4c-3.2,9.6-8.4,23-12.7,23.8c-6.3,1.3-3.6-21.1-2-32.3
			c2.2-10.8,1.4-21.1-10.6-22.8c-4.8-0.6-9.8,3.2-13.2,12.3c-2,5-7.8,22.7-11.1,32.5c-0.1-8.4,1.5-25.3,1.5-25.5
			c1-12-13-12.9-14.7-1c-0.2,1.8-0.4,3.8-0.4,5.8c-2.8,6-7.4,7.2-11,7.3c-0.4-17.1-7.4-34.7-18.3-34.7c-10.9,0-17.8,8.3-15.7,18.5
			c-0.4,0.1-1.5,0.8-1.8,1.1c-3.8,2.8-5.8,10.8-5.3,19.3c-4.1,15.3-13.1,38.4-30.7,37.2c-33.3-2.2-19.3-111.3,8.5-111.5
			c10.1,0,14.4,20.4-2.7,37.9c-3.8,3.9,1.5,9.2,6.4,4.2c19.9-20,15.5-47.7-3.6-47.9c-55.3-0.4-70.5,126.9-7.6,124.8
			c16.8-0.6,26.3-18.8,31.4-34.4c2.9,9.3,9.3,17.1,20.1,17.1c12.2,0,18.1-12,19-25.9c5-0.3,8.6-2.4,11.2-4.9
			c0.3,8.5,1.3,17.2,2.3,22.3c1.1,3.1,4.5,4.2,7.3,3.2c2.7-0.1,5.7-1.5,7.7-7.6c3.9-11.5,12.7-42.4,16.9-42.7
			c0.8,0,1.7,0.8,0.3,10.1c-4.1,28.1-0.6,46.2,13,46.2c6.7,0,12.3-8.8,16.4-18.7c1.5,11.1,5.5,18.8,13.8,18.7
			c7.6-0.2,13.8-11.5,18-22.9c1,3,2.3,5.5,4.1,7.1c6.3,5.6,13.7-1.7,18.1-9.4c0.1,16.8,4.2,29,13.4,29c6.8,0,12.7-10.2,17-21.3
			c1.5,11.1,6,17.5,14.1,17.5c7.5,0,13.6-11,17.8-22.2c0.5,5.1,1.1,9.7,1.7,12.9c1.1,3.1,4.5,4.2,7.3,3.2c2.7-0.1,5.7-1.5,7.7-7.6
			c3.9-11.5,12.7-42.4,16.9-42.7c0.8,0,1.7,0.8,0.3,10.1c-4.1,28.1-0.6,46.2,13,46.2c12.5,0,21.3-30.6,23.2-41.7
			C758.5,348.6,754.1,348.6,753.7,350.9z M481.6,384.2c-5.7,0.6-14-13.2-9.1-24.5c1.4,1.1,2.9,2.2,4.6,3.2c5,2.9,9.7,4.1,13.6,4.2
			C490,376,487.1,383.5,481.6,384.2z M482.5,359.3c-3.4-1.7-6-3.8-8-6.2c0.1-3.6-1.5-6-3.6-7.3c-1.7-6.6,1.3-12.6,7-13
			c8,0,12.7,14.8,13,28.5C487.9,361.2,485,360.5,482.5,359.3z M619.1,366c-4.3,1-1.7-24.6,1.7-24.5c2.5,0,4.3,8.3,5.3,12
			c0.1,0.7,0.3,1.3,0.3,1.7C626.6,355.5,620.3,365.7,619.1,366z"/>
	</g>
	<g>
		<g>
			<path d="M274.1,589.1c-3.6,0-6.1-0.8-7.7-2.3s-2.5-3.5-2.9-5.8c-0.4-2.4-0.6-4.9-0.6-7.5V465.8c0-10.3,5.5-15.5,16.6-15.5
				c12.7,0,23.8,3,33.1,8.9c10.9,7,16.3,17.7,16.3,32c0,10.4-1.9,19.9-5.7,28.5c-4.6,10.3-11.6,18.3-20.9,23.8
				c-3.6,2.1-7.5,3.5-11.6,4c-3.1,0.4-4.6,1.9-4.6,4.5v22.2C286.2,584.2,282.1,589.1,274.1,589.1z M288.9,537.2c2.5,0,6-2.3,10.4-7
				c4.4-4.6,7.7-10.1,9.8-16.4c2.5-7.1,3.8-14.3,3.8-21.7c0-5.1-0.8-9.7-2.5-13.9s-4.3-7.6-8-10.2c-3.4-2.3-7.8-3.5-13-3.5
				c-2.2,0.1-3.3,1-3.3,2.9V534C286.2,536.1,287.1,537.2,288.9,537.2z"/>
			<path d="M383.1,589.1c-7.7,0-14.1-1.5-19.3-4.5s-9.3-7-12.6-12c-3.2-5-5.7-10.6-7.4-16.7c-1.7-6.1-2.8-12.4-3.3-18.9
				c-0.5-6.4-0.8-12.5-0.8-18.2c0-22.2,4.1-39.5,12.4-51.9c7.4-11.1,18.2-16.6,32.5-16.6c19.5,0,32.3,11.9,38.4,35.6
				c2.2,8.6,3.2,18,3.2,28c0,14.5-1.2,27.2-3.6,38.1C417.1,576.8,404,589.1,383.1,589.1z M387.1,575.8c10.7,0,17.9-8.6,21.7-25.9
				c1.9-8.9,2.9-21.2,2.9-37c0-8.9-0.7-17.1-2.2-24.4c-1.7-9.1-4.6-15.9-8.6-20.4c-3.2-3.7-7.3-5.5-12.1-5.5
				c-8.1,0-14.1,4.7-18.1,14.2c-4.2,9.8-6.3,23.3-6.3,40.6c0,18.8,2.2,33.6,6.6,44.4C374.7,571,380.1,575.8,387.1,575.8z"/>
			<path d="M485,589.1c-7.7,0-14.1-1.5-19.3-4.5s-9.3-7-12.6-12c-3.2-5-5.7-10.6-7.4-16.7c-1.7-6.1-2.8-12.4-3.3-18.9
				c-0.5-6.4-0.8-12.5-0.8-18.2c0-22.2,4.1-39.5,12.4-51.9c7.4-11.1,18.2-16.6,32.5-16.6c19.5,0,32.3,11.9,38.4,35.6
				c2.2,8.6,3.2,18,3.2,28c0,14.5-1.2,27.2-3.6,38.1C519,576.8,505.8,589.1,485,589.1z M489,575.8c10.7,0,17.9-8.6,21.7-25.9
				c1.9-8.9,2.9-21.2,2.9-37c0-8.9-0.7-17.1-2.2-24.4c-1.7-9.1-4.6-15.9-8.6-20.4c-3.2-3.7-7.3-5.5-12.1-5.5
				c-8.1,0-14.1,4.7-18.1,14.2c-4.2,9.8-6.3,23.3-6.3,40.6c0,18.8,2.2,33.6,6.6,44.4C476.6,571,482,575.8,489,575.8z"/>
			<path d="M605.7,589.1c-4.3,0-8.8-3.4-13.5-10.3c-5-7.1-11.1-16.4-18.3-27.7c-1.3-1.5-2.2-2.3-2.5-2.3c-0.6,0-0.9,1.1-0.9,3.2
				v22.2c0,9.9-4,14.9-12.1,14.9c-3.6,0-6.1-0.8-7.7-2.3c-1.6-1.5-2.5-3.5-2.9-5.8c-0.4-2.4-0.6-4.9-0.6-7.5V465.8
				c0-10.3,5.5-15.5,16.6-15.5c12.7,0,23.8,3,33.1,8.9c10.9,7,16.3,17.7,16.3,32c0,10.4-1.9,19.9-5.7,28.5
				c-4.6,10.3-11.6,18.3-20.9,23.8c-0.5,0.3-0.8,0.7-0.8,1.1c0,0.6,2.3,3.4,6.8,8.4c1.7,1.9,3.3,3.7,4.8,5.5
				c10.8,12.8,16.2,20.7,16.2,23.7c0,2.2-0.7,3.9-2.1,5.1C610.1,588.5,608.1,589.1,605.7,589.1z M573.3,537.2c2.5,0,6-2.3,10.4-7
				c4.4-4.6,7.7-10.1,9.8-16.4c2.5-7.1,3.8-14.3,3.8-21.7c0-5.1-0.8-9.7-2.5-13.9c-3.7-9.1-10.7-13.6-21-13.6
				c-2.2,0.1-3.3,1-3.3,2.9V534C570.5,536.1,571.4,537.2,573.3,537.2z"/>
		</g>
	</g>
	<g>
		<path d="M379,639.6c5.6,0,10.1-4.4,10.1-9.9c0-5.4-4.4-9.9-10.1-9.9c-5.4,0-9.9,4.4-9.9,9.9C369.1,635.2,373.6,639.6,379,639.6z"
			/>
		<path d="M490.1,639.6c5.6,0,10.1-4.4,10.1-9.9c0-5.4-4.4-9.9-10.1-9.9c-5.4,0-9.9,4.4-9.9,9.9
			C480.3,635.2,484.7,639.6,490.1,639.6z"/>
		<path d="M752.4,664.6c-0.6,12.9-7.3,20-16.3,24.4c-6.1-13.5-18.6-25.2-27-34.1c0.8-5.2,1.8-16.1-5-20c-2.6-1.6-17.3-5.2-22.8,7.9
			c-2.2,5.4-2.4,13.7,4.2,21.4c0.4,0.4,0.7,0.7,1.1,1.1c-1,3.6-13.2,46-22.5,47.7c-9.1,1.8-5.2-30.5-2.8-46.6
			c3.2-15.5,2-30.5-15.3-32.9c-6.9-0.8-14.1,4.6-19,17.7c-2.8,7.3-11.3,32.7-15.9,46.8c-0.2-12.1,2.2-36.5,2.2-36.7
			c1.4-17.3-18.8-18.6-21.2-1.4c-0.3,2.6-0.5,5.4-0.6,8.4c-4,8.7-10.7,10.4-15.9,10.6c-0.6-24.6-10.7-50-26.4-50
			c-15.7,0-25.6,11.9-22.6,26.6c-0.6,0.2-2.2,1.2-2.6,1.6c-4.6,3.4-7.4,12.2-7.7,22.2c-4.6,13.7-12.1,32.5-18.3,33.7
			c-11.9,2.2-1.2-55.5-1.2-55.5c1.4-9.7-3.8-14.5-9.5-14.5c-4.8,0-10.3,4-11.5,12.3c-1.5,9.1-2.4,17.6-2.7,25.2
			c-5.6,0.1-12.3,0.7-19.3,2.2c-6.3-10.9-14.7-20.4-22-27.8c0.8-5.2,1.8-16.1-4.8-20c-2.8-1.6-6.3-2.6-9.9-2.6
			c-5.4,0.2-10.9,2.8-12.9,10.5c-2.2,5.4-2.6,13.7,4.2,21.4c0.4,0.3,0.8,0.7,1.1,1.1c-1,3.5-13.2,46-22.7,47.7
			c-11.9,2.2-1.2-55.5-1.2-55.5c1.4-9.7-3.8-14.5-9.5-14.5c-4.8,0-10.3,4-11.5,12.3c-1.5,9.3-2.4,17.8-2.7,25.5
			c-6.9,18.4-20.4,36.4-32,33.2c-16.5-4.4-12.3-60.3-3.6-67.2c3.2-2.4,9.1-7.3,7.9,11.1c0,2.4,7.7,6.9,8.9-0.6
			c4.2-24-13.5-28.6-24.6-25.4c-15.1,3.8-22.2,27.9-20.8,50.3c-5.5,19-15.6,37.5-22.9,34c-10.1-4.8-12.9-21.4-11.7-42
			c11.7,0.6,23-11.7,19.8-26.4c-2.2-10.1-10.3-13.7-17.7-13.7c-2.2,0.2-4.2,0.4-6.3,1c-10.8,3.3-17.6,20.9-18.4,39.8
			c-5.5,15.2-20,27.5-28.4,30c-3.8,1.2-7.9,1.6-11.9,1.8c27.2-47.8,33.3-123.4-3-131.9c-46.8-11.1-59.1,68.6-61.3,104.5
			c-4.8-11.7-6.7-65.6-0.2-95.8c2.6-11.5-10.7-14.9-13.5-14.5c-6.9-0.2-16.7,9.7-16.7,52c0,25.4,4.2,65.3,17.7,86.9
			c-12.3,13.1-6.3,37.3,25.4,37.7c18.2,0.4,34.5-12.5,47-31.5c6.1,0.2,11.7,0,17.1-1.6c10.8-3.1,21.2-11.4,28.5-23
			c1.9,14.2,7.5,27.3,17.7,33.7c5.2,3.2,14.1,5.2,20.4,2.8c7.9-3.1,15.5-13.4,21.1-27.6c2.6,9.3,6.9,17.1,13.2,21.2
			c15.3,7.9,35.4,4.2,48.8-21.8c1.8,17.5,8.3,27.7,20.6,27.7c16.2,0,28.1-36,32.4-54.7c5.8,6.1,11.3,13.1,15.8,20.2
			c-5.4,2.8-10.5,6.7-14.9,11.3c-19.2,19.8-3.8,45.4,17.3,42.4c27.6-4,32.1-26.8,27.2-45.4c-0.8-3.4-2-6.7-3.4-9.7
			c4.8-0.9,10-1.5,15.7-1.9c0.1,23.6,6.6,37.8,21,37.8c10,0,18.3-13.6,24.2-28.4c3.7,14.6,13.1,27.4,29.8,27.4
			c17.5,0,26-17.3,27.4-37.3c7.2-0.4,12.4-3.4,16.1-7.1c0.4,12.3,1.9,24.7,3.3,32.1c1.6,4.4,6.5,6.1,10.5,4.6
			c3.8-0.2,8.3-2.2,11.1-10.9c5.6-16.5,18.4-61.1,24.4-61.5c1.2,0,2.4,1.2,0.4,14.5c-5.8,40.5-0.8,66.6,18.8,66.6
			c16.2,0,28.2-36.1,32.4-54.8c8.7,8.5,16.1,16.6,21.3,26c-7.3,1.8-14.1,3.8-18.4,7.5c-21.2,17.3-3.6,43,17.3,39.9
			c27.8-4,34.3-31.7,26.2-48.2c10.3-5.4,18.6-14.1,20.2-30.5C759.8,660.2,752.8,657.8,752.4,664.6z M266.5,650.1
			c0.6-0.6,1.2-0.8,1.8-0.8c4.2,0,7.9,11.5-4.8,14.3C264.2,656.6,265.4,651.3,266.5,650.1z M148.1,735.6
			c-19,1.8-27.6-13.5-19.2-21.6l3.8,2.6c4.4,2,10.5-1,9.3-5.8l-0.8-3.6c2-0.4,3.8-0.4,6.3-0.4c5.6-0.2,17.5,2.6,25.6,4.4
			C167,724.7,155.5,734.8,148.1,735.6z M176.1,704.2c-10.1-2.2-23.8-6.1-35.3-5c3-41.5,13.7-111.5,42.4-111.5
			C198.7,590.8,195,663.6,176.1,704.2z M431.8,736.8c-15.3,3.4-21.8-17.7-11.5-28.8c4.4-4.6,9.1-8.3,13.9-11.1
			C444.8,715.5,447.4,733.2,431.8,736.8z M553.3,713c-8.3,0.8-20.2-19-13.1-35.3c2,1.6,4.2,3.2,6.7,4.6c7.3,4.2,13.9,5.9,19.6,6.1
			C565.4,701.4,561.1,712,553.3,713z M554.5,677.1c-4.8-2.4-8.7-5.4-11.5-8.9c0.2-5.2-2.2-8.7-5.2-10.5c-2.4-9.5,1.8-18.2,10.1-18.8
			c11.5,0,18.4,21.4,18.8,41.1C562.4,680,558.1,679,554.5,677.1z M711,736.8c-15.1,3.4-23.8-18.4-11.3-27c3.8-2.8,10.1-4.4,17.3-6.3
			C724.3,719.5,724.7,733.6,711,736.8z"/>
	</g>
	<g>
		<path d="M703.9,477.5c-0.9,1.3-2.8,3.5-4.2,4.9c-3.9,4-7.7,6.7-13.9,9.7c-6.9,3.4-11.3,5.1-17.3,6.5c-6.9,1.7-17.8,2.5-18.8,1.5
			c-0.7-0.7-1.2-1.7-1.2-2.3c0-1.4,0.7-2.1,4.1-3.8c4.2-2.2,5.8-3.4,12-8.7c6.3-5.5,11.1-10.4,13.2-13.5c1.9-2.8,3.8-6.8,5.2-10.8
			c4.2-11.7,6.3-15.3,10.5-17.3c1.9-0.9,2-0.9,4.5-0.9c1.4,0,3.1,0.2,3.9,0.4c4.2,1.1,8.3,5.4,9.3,9.7c0.7,3.2,0.3,8.1-1.1,12.4
			C709.1,468.5,705.8,474.9,703.9,477.5z"/>
		<path d="M640.5,492.3c-1.9,0.9-4.2,0.3-5.2-1.3c-0.6-0.9-0.7-3-0.1-4c1-1.9,3.3-2.9,5.3-2.2c0.9,0.3,2,1.3,2.4,2.2
			C643.9,488.8,642.8,491.2,640.5,492.3z"/>
		<path d="M686.1,513.5c-1.1,0-1.9-0.3-2.7-1.1c-0.7-0.7-0.7-2.9,0-3.7c0.3-0.3,0.6-0.5,0.8-0.5c0.2,0,0.3-0.1,0.3-0.2
			c0-0.1,0.2-0.2,0.4-0.2c0.2,0,0.5-0.1,0.7-0.2c0.3-0.3,6.4-2,11.2-3c2.2-0.5,6-1.5,8.5-2.2c12.4-3.5,20.4-4.8,26-4.3
			c1.4,0.1,4.6,0.8,5.9,1.2c4.2,1.3,7.6,4.1,9.2,7.5c0.8,1.7,0.9,2.1,1,4.3c0.3,7.6-4.4,13.3-12.6,15.4c-5.3,1.3-10.1,1.4-15.9,0.1
			c-8.5-1.8-15.5-4.5-21.6-8.4C692.6,515.1,688.6,513.5,686.1,513.5z"/>
		<path d="M637.3,512.9c-0.4-0.2-1-0.7-1.4-1.2c-0.7-0.8-0.7-1-0.7-2.3c0-1.5,0.3-2.4,1.3-3.3c1.3-1.2,2.9-1.6,4.3-1
			c1.5,0.7,2.6,2.2,2.6,3.6c0,0.7-0.8,2.6-1.5,3.5C641,513.2,638.6,513.5,637.3,512.9z"/>
		<path d="M647.9,521.9c0.1,0,0.3-0.2,0.4-0.6c0.2-0.7,1.4-1.4,2.5-1.4c0.5,0,1,0,1,0.1s2.5,0.5,5.4,0.8c14,1.9,21.5,4.1,32.8,9.5
			c7.8,3.8,13,7,16.1,10.1c4.6,4.5,6.8,9.7,6.4,15c-0.3,4.4-1.5,7.5-4,10.1c-3.4,3.6-7,4.6-12.9,3.6c-4.1-0.7-6.9-1.9-9.9-4.3
			c-4.8-3.8-7.1-7.1-14.2-19.8c-4.5-8-9.4-13.9-13.5-16.3c-0.9-0.5-4.1-1.8-7.1-2.8c-1.4-0.5-2.7-1.4-2.7-2c0-0.2-0.1-0.3-0.2-0.3
			c-0.1,0-0.2-0.4-0.2-1S647.7,521.9,647.9,521.9z"/>
		<path d="M636.8,524.9c1.2-0.5,2.9-0.4,4,0.2c1.3,0.7,1.8,1.1,2.2,2.1c1,2.3-0.1,4.7-2.7,6c-1.6,0.8-3.9,0.6-5.2-0.7
			c-0.7-0.6-1.4-2.2-1.4-3.1C633.6,527.7,635.1,525.6,636.8,524.9z"/>
	</g>
	<g>
		<path d="M165.3,461.8c0.9,1.3,2.8,3.5,4.2,4.9c3.9,4,7.7,6.7,13.9,9.7c6.9,3.4,11.3,5.1,17.3,6.5c6.9,1.7,17.8,2.5,18.8,1.5
			c0.7-0.7,1.2-1.7,1.2-2.3c0-1.4-0.7-2.1-4.1-3.8c-4.2-2.2-5.8-3.4-12-8.7c-6.3-5.5-11.1-10.4-13.2-13.5c-1.9-2.8-3.8-6.8-5.2-10.8
			c-4.2-11.7-6.3-15.3-10.5-17.3c-1.9-0.9-2-0.9-4.5-0.9c-1.4,0-3.1,0.2-3.9,0.4c-4.2,1.1-8.3,5.4-9.3,9.7
			c-0.7,3.2-0.3,8.1,1.1,12.4C160.2,452.8,163.4,459.2,165.3,461.8z"/>
		<path d="M228.7,476.6c1.9,0.9,4.2,0.3,5.2-1.3c0.6-0.9,0.7-3,0.1-4c-1-1.9-3.3-2.9-5.3-2.2c-0.9,0.3-2,1.3-2.4,2.2
			C225.4,473.1,226.5,475.5,228.7,476.6z"/>
		<path d="M183.2,497.8c1.1,0,1.9-0.3,2.7-1.1c0.7-0.7,0.7-2.9,0-3.7c-0.3-0.3-0.6-0.5-0.8-0.5s-0.3-0.1-0.3-0.2
			c0-0.1-0.2-0.2-0.4-0.2c-0.2,0-0.5-0.1-0.7-0.2c-0.3-0.3-6.4-2-11.2-3c-2.2-0.5-6-1.5-8.5-2.2c-12.4-3.5-20.4-4.8-26-4.3
			c-1.4,0.1-4.6,0.8-5.9,1.2c-4.2,1.3-7.6,4.1-9.2,7.5c-0.8,1.7-0.9,2.1-1,4.3c-0.3,7.6,4.4,13.3,12.6,15.4
			c5.3,1.3,10.1,1.4,15.9,0.1c8.5-1.8,15.5-4.5,21.6-8.4C176.7,499.4,180.6,497.8,183.2,497.8z"/>
		<path d="M232,497.2c0.4-0.2,1-0.7,1.4-1.2c0.7-0.8,0.7-1,0.7-2.3c0-1.5-0.3-2.4-1.3-3.3c-1.3-1.2-2.9-1.6-4.3-1
			c-1.5,0.7-2.6,2.2-2.6,3.6c0,0.7,0.8,2.6,1.5,3.5C228.2,497.5,230.7,497.8,232,497.2z"/>
		<path d="M221.4,506.2c-0.1,0-0.3-0.2-0.4-0.6c-0.2-0.7-1.4-1.4-2.5-1.4c-0.5,0-1,0-1,0.1s-2.5,0.5-5.4,0.8
			c-14,1.9-21.5,4.1-32.8,9.5c-7.8,3.8-13,7-16.1,10.1c-4.6,4.5-6.8,9.7-6.4,15c0.3,4.4,1.5,7.5,4,10.1c3.4,3.6,7,4.6,12.9,3.6
			c4.1-0.7,6.9-1.9,9.9-4.3c4.8-3.8,7.1-7.1,14.2-19.8c4.5-8,9.4-13.9,13.5-16.3c0.9-0.5,4.1-1.8,7.1-2.8c1.4-0.5,2.7-1.4,2.7-2
			c0-0.2,0.1-0.3,0.2-0.3c0.1,0,0.2-0.4,0.2-1S221.5,506.2,221.4,506.2z"/>
		<path d="M232.5,509.2c-1.2-0.5-2.9-0.4-4,0.2c-1.3,0.7-1.8,1.1-2.2,2.1c-1,2.3,0.1,4.7,2.7,6c1.6,0.8,3.9,0.6,5.2-0.7
			c0.7-0.6,1.4-2.2,1.4-3.1C235.6,512,234.2,509.9,232.5,509.2z"/>
	</g>
</g>
</svg>


