<?xml version="1.0" encoding="utf-8"?>
<!-- Generator: Adobe Illustrator 18.0.0, SVG Export Plug-In . SVG Version: 6.00 Build 0)  -->
<!DOCTYPE svg PUBLIC "-//W3C//DTD SVG 1.1//EN" "http://www.w3.org/Graphics/SVG/1.1/DTD/svg11.dtd">
<svg version="1.1" xmlns="http://www.w3.org/2000/svg" xmlns:xlink="http://www.w3.org/1999/xlink" x="0px" y="0px"
	 viewBox="0 0 864 864" enable-background="new 0 0 864 864" xml:space="preserve" width="500" height="500">
<g>
	<g>
		<path d="M151.6,198c-5.6,0-11.3,0-17-0.1h-5c-2.7,0-4.7-0.7-5.9-2c-1.2-1.3-1.7-2.7-1.7-4.3c0-1.1,0.3-1.9,0.9-2.5
			c0.6-0.6,1.3-1.2,2.2-1.7c1.3-0.8,2.4-2,3.4-3.5c0.7-1.7,1-9.8,1-24.2c0-9.5,0-16.1-0.1-19.9v-2.3c0-4.2-0.4-7-1.2-8.5
			c-0.8-1.5-2.6-2.6-5.4-3.1c-2-0.5-3.3-1.5-3.8-3c-0.1-0.4-0.2-0.8-0.2-1.2c0-1.3,0.6-2.8,1.9-4.5c2.9-3.4,7.2-6.3,12.8-8.6
			c5.6-2.3,11.1-3.7,16.3-4.2l1.1,0.1l1.1-0.1c0.7,0,3.2,0.3,7.4,1c4,0.7,7.5,1,10.6,1c3,0,5.8-0.7,8.4-2.1c2.6-1.5,4.8-2.3,6.7-2.3
			c2.3,0,4.5,1.4,6.6,4.3c2.1,2.9,4.2,9.7,6.3,20.5c0.2,0.9,0.3,1.7,0.3,2.5c0,1.9-0.5,3.4-1.4,4.5c-1.2,1.4-2.7,2.1-4.5,2.1
			l-2.1-0.1c-1.4-0.1-3.3-1.7-5.6-4.9c-2.1-2.7-4.2-5.4-6.5-8c-5.4-6.1-10.6-9.2-15.6-9.2h-8.1v32.2h2.9c3.6,0,6.3-1.6,8-4.8
			c0.7-1.3,1.5-3.3,2.5-5.8c1.3-3.2,2.7-4.8,4.3-4.8c1.6,0,2.9,1,3.9,3.1c1,2.1,1.5,5.1,1.5,9v17.3c0,3.9-0.5,6.9-1.5,9
			c-1,2.1-2.3,3.1-3.9,3.1c-1.6,0-3-1.6-4.3-4.8c-1-2.7-1.8-4.7-2.5-5.9c-1.7-3.2-4.3-4.7-8-4.7h-2.9v22.4c0,1.6,0.3,3,0.8,4
			c0.7,1.6,2,3,3.9,4.3c0.8,0.6,1.5,1.2,2.1,1.8c0.6,0.6,0.9,1.5,0.9,2.5c0,1.9-0.9,3.5-2.8,4.7C157.2,197.4,154.7,198,151.6,198z"
			/>
		<path d="M234.2,198c-5.6,0-11.3,0-17-0.1h-5c-2.7,0-4.7-0.7-5.9-2c-1.2-1.3-1.8-2.7-1.8-4.3c0-1.1,0.3-1.9,0.9-2.5
			c0.6-0.6,1.3-1.2,2.1-1.7c1.3-0.8,2.5-2,3.5-3.5c0.4-1.1,0.7-4.6,0.8-10.4c0.1-5.9,0.2-12.1,0.2-18.7l-0.1-17.2
			c0-4.2-0.4-7-1.2-8.5c-0.8-1.5-2.6-2.6-5.4-3.1c-2-0.5-3.3-1.5-3.8-3c-0.1-0.4-0.2-0.8-0.2-1.2c0-1.3,0.6-2.8,1.9-4.5
			c3.2-3.7,8-6.8,14.3-9.2c6.3-2.4,12-3.6,17-3.6c2.7,0,4.6,0.6,5.7,1.7c1.2,1.1,1.7,2.4,1.7,3.9c0,0,0,0.4,0,1.2
			c0,0.8-0.6,1.8-1.7,3c-1.1,1.2-2,2.6-2.5,4.2c-0.5,1.6-0.8,3.1-0.8,4.7v55.9c0,1.6,0.3,3,0.8,4c0.6,1.5,1.9,2.9,3.8,4.3
			c0.9,0.6,1.6,1.2,2.2,1.8c0.6,0.6,0.9,1.5,0.9,2.5c0,1.9-0.9,3.5-2.8,4.7C239.8,197.4,237.3,198,234.2,198z"/>
		<path d="M318.6,199.7c-9.4,0-17.3-3.5-23.8-10.6c-5.2-5.7-9.7-13.7-13.4-23.9v13.7c0,1.6,0.2,3,0.7,4c0.7,1.6,2.1,3,4,4.3
			c0.8,0.6,1.5,1.2,2.1,1.8c0.6,0.6,0.9,1.5,0.9,2.5c0,1.9-0.9,3.5-2.8,4.7c-1.9,1.2-4.4,1.8-7.6,1.8c-5.6,0-11.3,0-17-0.1h-5
			c-2.7,0-4.7-0.7-5.9-2c-1.2-1.3-1.7-2.7-1.7-4.3c0-1.1,0.3-1.9,0.9-2.5c0.6-0.6,1.3-1.2,2.1-1.7c1.3-0.8,2.4-2,3.4-3.5
			c0.7-1.7,1-9.8,1-24.2c0-9.1,0-16.1-0.1-21c0-4.9-0.5-8.2-1.3-9.7c-0.8-1.5-2.6-2.6-5.4-3.1c-2-0.5-3.2-1.5-3.8-3
			c-0.1-0.4-0.2-0.8-0.2-1.2c0-1.3,0.6-2.8,1.9-4.5c3.1-3.6,7.5-6.5,13.4-8.9c5.9-2.4,11.5-3.6,16.8-3.9c0.2,0,0.4-0.1,0.7-0.1
			c0.7,0,1.3,0,1.7,0.1l12.1-0.1c11.1,0,20.1,3.1,26.9,9.2c5.9,5.7,9,12.6,9.1,20.5c-0.1,8-3.1,14.8-9.1,20.5
			c-3.9,3.6-8.4,6.1-13.4,7.5c1.8,5.3,4.4,10.6,7.9,16c3.5,5.4,7.6,9.1,12.4,11.3c2.7,1.1,4.1,2.4,4.1,3.9c0,0.1-0.1,0.7-0.2,1.5
			c-0.1,0.9-1.4,2-3.7,3.2C324,199.1,321.4,199.7,318.6,199.7z M281.4,157.2c7.4-0.9,12.9-3.4,16.6-7.7c3.7-4.3,5.6-9.3,5.6-15
			c0-5.5-1.8-10.6-5.5-15.3c-3.7-4.7-9.2-7.9-16.7-9.7V157.2z"/>
		<path d="M373.3,198.3c-8.4,0-16.4-1.2-23.8-3.7c-7.5-2.5-12.8-6.4-16-11.6c-1.4-2.8-2.1-5.4-2.1-7.8c0-5,2.2-8.8,6.7-11.3
			c1.9-1.1,3.8-1.6,5.7-1.6c1.1,0,2.6,0.3,4.6,0.9c2,0.6,3.8,3.1,5.3,7.4c1.1,3.5,2.4,6.7,4,9.8c1.6,3.1,3.6,5.6,6,7.5
			c2.4,1.9,5.3,2.9,8.7,2.9c3.8,0,6.8-0.9,9-2.6c2.5-1.9,3.7-4.3,3.7-7.1c0-2.3-1-4.8-3-7.4c-2-2.6-5.4-5-10.2-7.2
			c-5-2.1-9.8-4.2-14.4-6.5c-3.8-1.9-7.4-4.2-10.6-6.9c-7.3-6-11-13.7-11-23.1c0-4.8,1.2-9.1,3.7-13c2.4-3.9,5.9-6.9,10.3-9.2
			c4.4-2.3,9.4-3.4,15.2-3.4c6.2,0,11.1,1.8,14.7,5.4c0-1.3,0.4-2.4,1.2-3.2s1.7-1.4,2.8-1.7c1.1-0.3,2.1-0.5,3.1-0.5
			c7.6,0,13.6,2.7,17.8,8.2c3,3.9,4.5,8.2,4.5,12.8c0,0.9-0.1,2.2-0.4,3.8c-0.3,1.6-1.1,3.2-2.6,4.7c-1.5,1.5-3.5,2.3-6,2.3
			c-2.5,0-4.8-0.7-7-2c-2.2-1.3-4.2-3.1-6-5.1c-1.9-2.1-3.7-4.2-5.4-6.3c-1.5-1.8-2.9-3.5-4.3-5c-1.4-1.5-2.8-2.8-4.2-3.8
			c-1.4-1-2.8-1.5-4.2-1.5c-2.4,0-4.3,0.9-5.7,2.6c-1.4,1.7-2.1,3.9-2.1,6.5c0,2.3,0.6,4.6,1.9,7c1.3,2.4,3.3,4.5,6.1,6.2
			c3.4,2,7.4,4,11.9,6.1c9.2,4.2,16.3,8.1,21.3,11.9c7,5.4,10.4,11.7,10.4,19c0,5-1.8,9.6-5.5,13.6c-3.7,4-8.5,7.2-14.5,9.5
			C386.8,197.2,380.3,198.3,373.3,198.3z"/>
		<path d="M463.7,198l-22-0.1c-2.7,0-4.7-0.7-5.9-2c-1.2-1.3-1.8-2.7-1.8-4.3c0-1.1,0.3-1.9,0.9-2.5c0.6-0.6,1.3-1.2,2.1-1.7
			c1.3-0.8,2.5-2,3.5-3.5c0.3-0.9,0.5-5.5,0.6-13.8c0.1-8.3,0.2-17.8,0.3-28.4c0.1-10.6,0.1-19.9,0.1-27.8c-4.5,0.7-7.4,2.2-8.6,4.6
			c-1.3,2.4-2,5-2.2,7.6c-0.1,1.4-0.4,2.7-0.7,3.9c-0.3,1.2-0.8,2.1-1.6,2.8c-0.8,0.7-2,1.1-3.6,1.1c-2.7,0-5.3-1.9-7.8-5.8
			c-2.6-3.9-3.8-7.9-3.8-12c0-7.9,5-11.9,15-11.9h51.7c10,0,15,4,15,11.9c0,4.1-1.3,8.1-3.9,12c-2.6,3.9-5.2,5.8-7.8,5.8
			c-1.6,0-2.9-0.4-3.6-1.1c-0.8-0.7-1.3-1.7-1.6-2.8c-0.3-1.2-0.5-2.5-0.7-3.9c-0.1-2.7-0.8-5.2-2.1-7.6c-1.3-2.4-4.2-3.9-8.7-4.6
			v64.9c0,1.6,0.2,3,0.7,4c0.7,1.6,2.1,3,4,4.3c0.8,0.6,1.5,1.2,2.1,1.8c0.6,0.6,0.9,1.5,0.9,2.5c0,1.9-0.9,3.5-2.8,4.7
			C469.4,197.4,466.9,198,463.7,198z"/>
		<path d="M600.3,198c-5.4,0-9.6-1.1-12.7-3.4c-3.1-2.3-5.6-5.3-7.5-9.2c-1.7-3.3-3.8-8.5-6.4-15.6h-26.8c-0.2,1.4-0.3,2.7-0.3,4
			c0,4.3,1.1,7.8,3.2,10.8c0.9,1.2,1.3,2.4,1.3,3.5c0,1-0.6,2.3-1.7,3.8c-1.1,1.5-3.3,2.9-6.4,4.2c-3.2,1.3-6.3,2-9.4,2
			c-4.4,0-7.5-1.1-9.4-3.4c-1.3-1.6-1.9-3.4-1.9-5.6c0-0.9,0.3-2.5,0.8-4.7c0.5-2.2,2.7-5.2,6.4-9c3.6-3.8,7.3-9.8,11.3-18.1
			c4-8.3,7.2-16.7,9.7-25.1c1.8-6.3,2.7-11.4,2.7-15.3c0-1.4-0.1-2.6-0.3-3.7c-0.2-0.7-0.3-1.3-0.3-2c0-4.6,4-6.9,12.1-6.9
			c3.7,0,6.8,1.1,9.5,3.3c2.7,2.2,5.1,5.1,7.1,8.7s3.9,7.7,5.6,12.2c1.6,4.5,3.2,9.1,4.7,13.9c1.4,4.4,2.8,8.7,4.3,12.9
			c1.5,4.2,3.2,8,4.9,11.4c1.1,2.1,2,3.8,2.7,5.3c1,2.1,2,3.8,2.8,5.2c0.9,1.4,2.1,2.8,3.5,4.2c2,1.9,3,3.9,3,6
			c0,0.4-0.1,1.3-0.4,2.8c-0.3,1.5-1.6,3.1-3.9,5C606.4,197,603.6,198,600.3,198z M570.5,160.9l-10.2-27.5
			c-5.1,9.3-8.9,18.5-11.5,27.5H570.5z"/>
		<path d="M645.9,198c-5.6,0-11.3,0-17-0.1h-5c-2.7,0-4.7-0.7-5.9-2c-1.2-1.3-1.8-2.7-1.8-4.3c0-1.1,0.3-1.9,0.9-2.5
			c0.6-0.6,1.3-1.2,2.1-1.7c1.3-0.8,2.5-2,3.5-3.5c0.4-1.1,0.7-4.6,0.8-10.4c0.1-5.9,0.2-12.1,0.2-18.7l-0.1-17.2
			c0-4.2-0.4-7-1.2-8.5c-0.8-1.5-2.6-2.6-5.4-3.1c-2-0.5-3.3-1.5-3.8-3c-0.1-0.4-0.2-0.8-0.2-1.2c0-1.3,0.6-2.8,1.9-4.5
			c3.2-3.7,8-6.8,14.3-9.2c6.3-2.4,12-3.6,17-3.6c2.7,0,4.6,0.6,5.7,1.7c1.2,1.1,1.8,2.4,1.8,3.9c0,0,0,0.4,0,1.2
			c0,0.8-0.6,1.8-1.7,3c-1.1,1.2-2,2.6-2.5,4.2c-0.5,1.6-0.8,3.1-0.8,4.7v55.9c0,1.6,0.3,3,0.8,4c0.6,1.5,1.9,2.9,3.8,4.3
			c0.9,0.6,1.6,1.2,2.2,1.8c0.6,0.6,0.9,1.5,0.9,2.5c0,1.9-0.9,3.5-2.8,4.7C651.5,197.4,649,198,645.9,198z"/>
		<path d="M701.7,198h-11.5l-22-0.1c-2.7,0-4.7-0.7-5.9-2c-1.2-1.3-1.8-2.7-1.8-4.3c0-1.1,0.3-1.9,0.9-2.5c0.6-0.6,1.3-1.2,2.1-1.7
			c1.3-0.8,2.4-2,3.4-3.5c0.5-1.1,0.8-4.6,0.9-10.4c0.1-5.9,0.2-12.1,0.2-18.7l-0.1-17.2c0-4.2-0.4-7-1.3-8.5
			c-0.8-1.5-2.6-2.6-5.3-3.1c-2-0.5-3.3-1.5-3.8-3c-0.1-0.4-0.2-0.8-0.2-1.2c0-1.3,0.6-2.8,1.9-4.5c2.7-3.2,6.8-6,12.1-8.3
			c5.3-2.3,10.5-3.7,15.6-4.3c0.3-0.1,5.1-0.2,14.2-0.2c6.4,0,12.4,1.2,18,3.6c5.6,2.4,10.5,6.2,14.6,11.2c3.6,4.5,6.3,9.5,8,15
			c1.7,5.5,2.6,11,2.6,16.6c0,12.6-3.5,23.4-10.6,32.5c-4.1,5-8.9,8.7-14.3,11.1C714,196.8,708.1,198,701.7,198z M693.1,191.7
			c8.8-2.9,15.5-8.1,19.9-15.6c4.5-7.5,6.7-15.9,6.7-25.1c0-9-2.2-17.3-6.6-24.7c-4.4-7.5-11.1-12.7-20-15.6V191.7z"/>
	</g>
	<g>
		<g>
			<path d="M281.8,361.4V230.9c0-5.1,4.6-9.2,10.2-9.2h47.7c5.6,0,10.2,4.1,10.2,9.2c0,5.1-4.6,9.2-10.2,9.2h-37.5v81.6h13.6
				c5.6,0,10.2,4.1,10.2,9.2c0,5.1-4.6,9.2-10.2,9.2h-13.6v21.2c0,5.1-4.6,9.2-10.2,9.2C286.4,370.7,281.8,366.5,281.8,361.4z"/>
			<path d="M456.2,345.3c-8.4,15.5-20.5,24.1-33.9,24.1c-13.5,0-25.5-8.6-33.9-24.1c-7.3-13.4-11.3-31.1-11.3-49.7
				c0-18.6,4-36.3,11.3-49.7c8.4-15.5,20.5-24.1,33.9-24.1c13.5,0,25.5,8.6,33.9,24.1c7.3,13.4,11.3,31.1,11.3,49.7
				C467.5,314.1,463.5,331.8,456.2,345.3z M447.1,295.5c0-33.8-14.7-55.4-24.7-55.4c-10.1,0-24.8,21.6-24.8,55.4
				c0,33.8,14.7,55.4,24.8,55.4C432.4,350.9,447.1,329.3,447.1,295.5z"/>
			<path d="M576.5,358.5c2.8,4.4,1.1,10.1-3.9,12.6c-1.6,0.8-3.3,1.2-5,1.2c-3.5,0-7-1.7-8.9-4.6c0,0,0,0,0,0
				c-1.2-1.8-9.4-11.8-15.3-19.1c-4-4.9-8-9.9-11.3-14c-4.9,2.3-9.1,4-12.2,5.3c-1.2,0.5-2.3,0.9-2.8,1.2c-0.7,0.3-1.3,0.5-2,0.7
				v19.7c0,5.1-4.6,9.2-10.2,9.2c-5.6,0-10.2-4.1-10.2-9.2V230.9c0-5.1,4.6-9.2,10.2-9.2c22.9,0,41,4.5,53.8,13.3
				c15,10.3,22.5,26.1,22.5,46.9c0,19-15.5,33.4-31.5,43.3c3,3.8,6.6,8.2,10.1,12.5C570.7,350.8,575.2,356.4,576.5,358.5z
				 M530.1,314.5c20.4-10.8,30.8-21.7,30.8-32.6c0-15-4.7-25.5-14.5-32.2c-7.4-5.1-17.8-8.1-31.2-9.1v81
				C520.6,319.2,525.6,316.8,530.1,314.5z"/>
		</g>
	</g>
	<g>
		<g>
			<path d="M160.4,508.1l-28-0.2c-3.4,0-5.9-0.8-7.4-2.5c-1.5-1.7-2.3-3.5-2.3-5.4c0-1.3,0.4-2.4,1.1-3.2c0.8-0.8,1.7-1.5,2.7-2.2
				c1.6-1,3.1-2.5,4.4-4.4c0.9-2.1,1.3-12.4,1.3-30.8c0-11.5,0-20.4-0.1-26.7c-0.1-6.3-0.6-10.4-1.7-12.3c-1-1.9-3.3-3.3-6.8-4
				c-2.5-0.6-4.1-1.9-4.9-3.8c-0.2-0.5-0.3-1-0.3-1.5c0-1.6,0.8-3.5,2.4-5.7c3.8-4.5,9.4-8.2,16.8-11.2c7.4-3,14.4-4.7,21.2-5
				c0.2-0.1,5.1-0.1,14.6-0.2c9.4,0,17.1,1.6,23.2,4.7c6.1,3.1,10.7,7,13.7,11.8c2.8,4.5,4.2,9.3,4.2,14.4c0,0.3,0,1.8-0.1,4.6
				c-0.1,2.8-1.8,6.5-5.1,11.2c-3.3,4.7-8.1,8.4-14.6,11.2c7.6,1.5,13.8,4,18.6,7.4c4.8,3.5,8.2,7.5,10.2,12.1
				c1.5,3.4,2.3,6.8,2.3,10.2c0,1.3-0.2,3.4-0.7,6.4c-0.5,3-2.4,6.6-5.9,10.7c-3.5,4.1-8.3,7.5-14.5,10c-6.2,2.6-13.7,3.8-22.6,3.8
				L160.4,508.1z M163.9,442.1c7.7-1.3,13.6-4.2,17.6-8.5c4-4.3,6.1-9.1,6.1-14.2c0-5.1-1.9-9.6-5.8-13.6c-3.9-4-9.8-6.4-17.9-7.3
				V442.1z M163.9,496.7c8.4-1.1,14.6-3.8,18.7-8.1c4.1-4.3,6.1-9.4,6.1-15.5c0-5.4-2.1-10.2-6.4-14.4c-4.3-4.2-10.4-6.4-18.4-6.6
				V496.7z"/>
			<path d="M286.1,508.1c-10.4,0-19.9-2.7-28.4-8c-8.5-5.3-15.3-12.5-20.4-21.5c-5.1-9-7.6-19-7.6-30c0-10.9,2.5-20.9,7.6-29.9
				c5.1-9,11.9-16.2,20.4-21.6c8.5-5.4,18-8.1,28.4-8.1c10.3,0,19.8,2.7,28.3,8.1c8.5,5.4,15.4,12.6,20.4,21.6
				c5.1,9,7.6,19,7.6,29.9c0,11-2.5,21-7.6,30c-5.1,9-11.9,16.2-20.4,21.5C305.8,505.4,296.4,508.1,286.1,508.1z M299.9,497.4
				c1.3,0,2.5-0.2,3.7-0.7c5.5-1.9,8.4-8.1,8.7-18.5c0-8.8-2.7-20.9-8.2-36.2c-6.2-16.6-12.5-28.1-18.7-34.7
				c-4.8-5-9.2-7.5-13.3-7.5c-1.3,0-2.5,0.2-3.7,0.7c-5.8,2-8.7,8.2-8.7,18.6c0,8.7,2.8,20.8,8.3,36.2
				C278.5,483.3,289.2,497.4,299.9,497.4z"/>
			<path d="M433.5,510.3c-11.9,0-22-4.5-30.2-13.5c-6.6-7.2-12.3-17.3-17.1-30.4v17.3c0,2.1,0.3,3.8,0.9,5.1c0.9,2,2.6,3.8,5.1,5.5
				c1,0.8,1.9,1.5,2.7,2.3c0.8,0.8,1.1,1.8,1.1,3.2c0,2.4-1.2,4.4-3.6,6s-5.6,2.3-9.6,2.3c-7.1,0-14.3-0.1-21.6-0.2h-6.4
				c-3.5,0-6-0.8-7.4-2.5c-1.5-1.7-2.2-3.5-2.2-5.4c0-1.3,0.4-2.4,1.1-3.2c0.8-0.8,1.7-1.5,2.7-2.2c1.6-1,3.1-2.5,4.4-4.4
				c0.9-2.1,1.3-12.4,1.3-30.8c0-11.5,0-20.4-0.1-26.7c-0.1-6.3-0.6-10.4-1.7-12.3c-1-1.9-3.3-3.3-6.8-4c-2.5-0.6-4.1-1.9-4.9-3.8
				c-0.2-0.5-0.3-1-0.3-1.5c0-1.6,0.8-3.5,2.4-5.7c3.9-4.5,9.6-8.3,17-11.3c7.5-3,14.6-4.6,21.4-4.9c0.2-0.1,0.5-0.1,0.9-0.1
				c0.9,0,1.7,0,2.2,0.1l15.3-0.2c14.1,0,25.5,3.9,34.2,11.7c7.6,7.3,11.4,15.9,11.5,26.1c-0.1,10.1-4,18.8-11.5,26.1
				c-4.9,4.5-10.6,7.7-17.1,9.5c2.3,6.7,5.6,13.4,10,20.3c4.4,6.8,9.7,11.6,15.8,14.3c3.5,1.5,5.2,3.1,5.2,5c0,0.2-0.1,0.8-0.3,2
				c-0.2,1.1-1.7,2.5-4.7,4.1C440.4,509.5,437.1,510.3,433.5,510.3z M386.2,456.2c9.4-1.1,16.4-4.4,21.1-9.8
				c4.7-5.4,7.1-11.8,7.1-19c0-7-2.3-13.4-7-19.4s-11.7-10.1-21.2-12.3V456.2z"/>
			<path d="M493,508.1c-7.1,0-14.3-0.1-21.6-0.2H465c-3.5,0-6-0.8-7.5-2.5c-1.5-1.7-2.3-3.5-2.3-5.4c0-1.3,0.4-2.4,1.1-3.2
				c0.8-0.8,1.7-1.5,2.7-2.2c1.7-1,3.2-2.5,4.4-4.4c0.5-1.4,0.9-5.8,1-13.2c0.2-7.4,0.3-15.4,0.3-23.8l-0.2-21.9
				c0-5.3-0.5-8.9-1.6-10.8c-1-1.9-3.3-3.3-6.8-4c-2.6-0.6-4.2-1.9-4.9-3.8c-0.2-0.5-0.3-1-0.3-1.5c0-1.6,0.8-3.5,2.4-5.7
				c4.1-4.7,10.1-8.6,18.1-11.7c8-3.1,15.2-4.6,21.6-4.6c3.4,0,5.8,0.7,7.3,2.1c1.5,1.4,2.2,3.1,2.2,4.9c0,0.1,0,0.6,0,1.5
				c0,1-0.8,2.2-2.2,3.8c-1.5,1.6-2.5,3.3-3.1,5.3c-0.6,2-1,4-1,5.9v71c0,2.1,0.3,3.8,1,5.1c0.8,1.9,2.4,3.7,4.9,5.5
				c1.1,0.8,2,1.5,2.7,2.3c0.7,0.8,1.1,1.8,1.1,3.2c0,2.4-1.2,4.4-3.6,6C500.2,507.3,497,508.1,493,508.1z"/>
			<path d="M598.7,510c-3.7,0-7.1-0.9-10.2-2.6c-3.2-1.7-6.3-5-9.4-9.9c-12.3-19.5-27.4-42.5-45.2-69v45.7c0,4.3,0.7,8.5,2,12.7
				c1.4,4.2,3.8,7,7.4,8.7c1.8,0.7,3.1,1.7,3.9,3.1c0.6,1,1,2.1,1,3.1c0,0.4-0.1,1-0.3,1.9c-0.2,0.9-1.1,1.9-2.7,2.9
				c-1.6,1-3.9,1.5-7,1.5h-18c-3.1,0-5.4-0.5-7-1.6c-2-1.2-3.1-2.8-3.1-4.9c0-2.7,1.6-4.7,4.9-6c6.3-2.8,9.4-10,9.4-21.3v-59.9
				l-9.8-15.3c-0.9-1.5-1.4-3-1.4-4.4v-1.3c0-0.8,0.5-1.7,1.6-2.8c1.1-1,2.7-1.6,4.8-1.6c11.7,0,19.1,0.3,22,0.9
				c2.9,0.6,5.4,2,7.5,4c2.1,2.1,4.3,5.3,6.7,9.7c5.2,9.2,13,21.7,23.2,37.6c7.9,12.3,14.5,22.9,19.9,31.8v-49.7
				c0-11.5-3.1-18.6-9.4-21.3c-3.2-1.3-4.8-3.4-4.8-6.2c0-0.4,0.1-1,0.3-1.9c0.2-0.9,1.1-1.9,2.7-2.9c1.6-1,3.9-1.5,7-1.5h18
				c3.1,0,5.4,0.5,7.1,1.5c1.9,1.3,2.9,2.8,2.9,4.7c0,2.8-1.6,4.9-4.9,6.3c-3.5,1.6-6,4.4-7.4,8.6c-1.4,4.2-2,8.4-2,12.8v71.3
				c0,5.3-0.7,9.2-2.1,11.7C604.8,508.8,602.3,510,598.7,510z"/>
			<path d="M730,510.8c-3.5,0-6-1.8-7.5-5.4c-1.5-4-3.4-6.7-5.7-8c-2.3-1.3-5.1-2-8.5-2c-8.3,8.4-19.1,12.6-32.5,12.6
				c-8.9,0-16.8-1.7-23.5-5.1c-13.1-6.5-22.2-17.4-27.3-32.7c-2.6-7.8-3.9-15.7-3.9-23.6c0-6.9,0.9-13.7,2.8-20.4s4.8-13,8.9-18.6
				c4.1-5.7,9.2-10.2,15.4-13.6c6.2-3.4,13.5-5.1,21.8-5.1c8.4,0,15,2.3,19.9,7c0-1.7,0.5-3.1,1.6-4.1c1-1,2.3-1.7,3.7-2.2
				c1.5-0.4,2.8-0.7,4.1-0.7c8.8,0,15.6,3.9,20.5,11.8c3.4,5.5,5.1,11.3,5.1,17.3c0,1.6-0.2,3.6-0.7,6.1c-0.5,2.5-1.8,4.8-3.9,7
				c-2.2,2.2-5.1,3.3-8.9,3.3c-4.5,0-8-1-10.6-3c-2.6-2-4.7-4.5-6.2-7.5c-1.5-3-2.8-6.2-3.8-9.4c-0.9-2.7-1.9-5.1-3-7.4
				c-1-2.3-2.4-4.1-4-5.5c-1.6-1.4-3.7-2.1-6.2-2.1c-4.6,0-8.4,1.6-11.3,4.9c-3,3.3-5.2,7.6-6.6,12.9c-1.5,5.3-2.2,11.2-2.2,17.6
				c0,13.7,2.6,26,7.9,36.8c5.8,11.9,13.4,17.9,22.7,17.9c7.7,0,13.8-4.3,18.5-12.9c-1.3-3.5-4.2-5.9-8.6-7.1
				c-3.4-0.9-5.1-2.7-5.1-5.4c0-1.6,0.8-3.5,2.4-5.7c4.1-4.7,10.1-8.6,18.1-11.7c8-3.1,15.2-4.6,21.7-4.6c3.3,0,5.7,0.7,7.2,2.1
				c1.5,1.4,2.3,3,2.3,4.8c0,0.1,0,0.6,0,1.6c0,1-0.8,2.3-2.2,3.8c-1.5,1.5-2.5,3.3-3.2,5.3c-0.7,2-1,4-1,6v34.6
				c0,3.1-0.6,5.4-1.9,7.1C734.4,509.7,732.3,510.8,730,510.8z"/>
		</g>
	</g>
	<g>
		<path d="M254.7,623.8c0,76.7-79.7,124.8-110.6,137l-0.2,0.1c-0.7,0.3-1.5,0.5-2.3,0.7c-0.3,0.1-0.5,0.1-0.8,0.2
			c-0.3,0.1-0.6,0.1-0.8,0.1c-0.2,0-0.5,0.1-0.7,0.1l-0.3,0c-0.4,0-0.8,0.1-1.3,0.1h0c-0.3,0-0.5,0-0.8,0c-0.2,0-0.4,0-0.6,0
			c-0.1,0-0.2,0-0.3,0l-0.6-0.1c-0.2,0-0.4-0.1-0.6-0.1c-0.2,0-0.4-0.1-0.5-0.1c0,0-0.1,0-0.1,0c-0.3-0.1-0.7-0.2-1-0.3
			c-0.7-0.2-1.4-0.4-2.1-0.7c-0.2-0.1-0.3-0.1-0.5-0.2c-0.2-0.1-0.3-0.1-0.5-0.2c-0.2-0.1-0.4-0.2-0.7-0.3c-0.2-0.1-0.4-0.2-0.6-0.4
			c-0.2-0.1-0.4-0.3-0.6-0.4c0,0-0.1,0-0.1-0.1c-0.4-0.3-0.7-0.5-1.1-0.8c-0.2-0.2-0.4-0.3-0.5-0.5c-0.2-0.2-0.3-0.3-0.5-0.5
			c0,0,0,0,0,0c-0.2-0.2-0.3-0.3-0.5-0.5c-0.2-0.2-0.3-0.4-0.5-0.5c-0.2-0.2-0.3-0.4-0.4-0.6c-0.1-0.2-0.3-0.4-0.4-0.6
			c-0.2-0.3-0.4-0.6-0.5-0.9c-0.2-0.3-0.3-0.6-0.5-0.9c-0.1-0.2-0.2-0.4-0.3-0.6c-0.1-0.3-0.2-0.6-0.4-1c-0.1-0.2-0.1-0.4-0.2-0.6
			c-0.1-0.2-0.1-0.4-0.2-0.7c0-0.2-0.1-0.4-0.1-0.6c0-0.1,0-0.2,0-0.3c0-0.2-0.1-0.4-0.1-0.6c0-0.1,0-0.2,0-0.3
			c0-0.4-0.1-0.8-0.1-1.2V544.5c0-7.9,7-14.4,15.7-14.4c35.1,0,62.8,6.9,82.4,20.6C243.1,566.8,254.7,591.3,254.7,623.8z
			 M223.4,623.8c0-23.3-7.3-39.7-22.2-50.2c-11.3-7.9-27.3-12.6-47.8-14.2v163.9C182.9,705.6,223.4,670.8,223.4,623.8z"/>
		<path d="M399.8,635.1c8.8,46,15.1,99.1,15.1,112.5c0,7.9-7,14.4-15.6,14.4c-8.6,0-15.6-6.4-15.6-14.4c0-3.3-0.6-10.7-1.7-21h-72.7
			c-0.9,9.7-1.4,17-1.4,21c0,7.9-7,14.4-15.6,14.4c-8.6,0-15.6-6.4-15.6-14.4c0-14.7,5.1-65.6,15.3-115
			c14.9-71.9,32-102.5,57.2-102.5c18.4,0,27.7,19.5,34.3,38.6C389,585,394.6,607.3,399.8,635.1z M378.4,697.9
			c-2-14.8-4.6-31.5-7.6-48.1c-10-55.6-18.8-78.2-23.4-87.1c-5.4,7.8-15.8,28.8-26.4,83.4c-3.5,18.1-6.3,36-8.4,51.8H378.4z"/>
		<path d="M568.3,549.9c-1.5,3.4-5.9,16.5-11,31.7c-11.1,32.9-27.7,82.2-42.9,117.7v46.4c0,7.9-7,14.4-15.6,14.4
			c-8.6,0-15.6-6.4-15.6-14.4v-46.3c-12.1-27.1-25.2-62.2-36.8-93.3c-9.1-24.6-17-45.8-21.8-55.8c-3.5-7.3,0.1-15.7,8.1-18.9
			c7.9-3.2,17.2,0.1,20.6,7.4c5.3,11.1,13.4,32.8,22.7,58c7.1,19.1,14.8,39.8,22.4,59c10.7-28.5,21.2-59.7,29-82.7
			c6.5-19.3,10-29.6,11.9-34c3.3-7.4,12.4-10.9,20.4-7.9C567.7,534.2,571.5,542.5,568.3,549.9z"/>
		<path d="M728,562.1c10.9,15.8,17.4,36.9,17.4,56.4c0,7.9-7,14.4-15.7,14.4c-8.6,0-15.6-6.4-15.6-14.4c0-24.1-14.5-59.7-45.7-59.7
			c-9.9,0-17.9,3.2-24.5,9.7c-12,12-16,32.3-14.7,47.1c1.7,18.8,24.5,30.9,48.6,43.7c12.6,6.7,25.6,13.6,35.7,21.8
			c13.4,11,19.9,22.9,19.9,36.4c0,12.1-5.8,23.6-16.3,32.3c-9.1,7.6-21,12.1-31.6,12.1c-24.6,0-38.1-8.2-45.2-15.1
			c-8-7.8-12.1-18.4-11.4-29c0.5-7.9,8-14,16.6-13.5c8.6,0.5,15.2,7.3,14.7,15.2c-0.1,1.6,0.1,4.8,3,7.6c4,3.9,11.9,6,22.4,6
			c5.5,0,16.6-6.8,16.6-15.7c0-12.2-19.4-22.5-40-33.4c-13.8-7.3-28.1-14.9-39.8-24.6c-15-12.4-22.9-26-24.3-41.6
			c-1.8-20.5,3.2-49.3,22.9-68.9c12.4-12.4,28.9-19,47.5-19C692.5,530.1,713.7,541.5,728,562.1z"/>
	</g>
	<g>
		<path d="M601.4,261.7c25.7-13.6,54.7-21.2,83.9-18.8c12.1,1,8.2,18.9-3.6,18.2c-26.1-1.5-50.4,1.6-74.6,11.9
			C600.4,276,595,265.1,601.4,261.7z"/>
		<path d="M605.6,300.2c25.3-7.1,49.9-7,75.5-2.2c11.4,2.2,17.6-15.1,5.9-17.6c-28.6-6.2-58.4-2.5-85.6,7.7
			C594.5,290.7,598.5,302.2,605.6,300.2z"/>
		<path d="M598.1,323.5c26.2-2.3,50.3,2.3,74.6,11.9c10.9,4.3,20.1-11.5,9-16.2c-26.9-11.4-56.9-13.3-85.5-8.4
			C589,312,590.9,324.1,598.1,323.5z"/>
		<path d="M719.4,242.6c-5.2,0-10.2,2.8-12.8,7.3c-2.7,4.6-2.6,10.3,0,14.9c0.1,0.3,0.3,0.5,0.4,0.8c2.5,4.4,7.3,7,12.4,7
			c4.9,0,9.9-2.7,12.4-7c0.1-0.3,0.3-0.5,0.4-0.8c2.6-4.6,2.7-10.3,0-14.9C729.5,245.4,724.6,242.6,719.4,242.6z"/>
		<path d="M719.4,285.5c-5.2,0-10.2,2.8-12.8,7.3c-2.7,4.6-2.6,10.3,0,14.9c0.1,0.3,0.3,0.5,0.4,0.8c2.5,4.4,7.3,7,12.4,7
			c4.9,0,9.9-2.7,12.4-7c0.1-0.3,0.3-0.5,0.4-0.8c2.6-4.6,2.7-10.3,0-14.9C729.5,288.3,724.6,285.5,719.4,285.5z"/>
		<path d="M713.2,327.4c-5.2,0-10.2,2.8-12.8,7.3c-2.7,4.6-2.6,10.3,0,14.9c0.1,0.3,0.3,0.5,0.4,0.8c2.5,4.4,7.3,7,12.4,7
			c4.9,0,9.9-2.7,12.4-7c0.1-0.3,0.3-0.5,0.4-0.8c2.6-4.6,2.7-10.3,0-14.9C723.3,330.2,718.3,327.4,713.2,327.4z"/>
	</g>
	<g>
		<path d="M260.3,261.7c-25.7-13.6-54.7-21.2-83.9-18.8c-12.1,1-8.2,18.9,3.6,18.2c26.1-1.5,50.4,1.6,74.6,11.9
			C261.2,276,266.7,265.1,260.3,261.7z"/>
		<path d="M256.1,300.2c-25.3-7.1-49.9-7-75.5-2.2c-11.4,2.2-17.6-15.1-5.9-17.6c28.6-6.2,58.4-2.5,85.6,7.7
			C267.1,290.7,263.1,302.2,256.1,300.2z"/>
		<path d="M263.5,323.5c-26.2-2.3-50.3,2.3-74.6,11.9c-10.9,4.3-20.1-11.5-9-16.2c26.9-11.4,56.9-13.3,85.5-8.4
			C272.7,312,270.8,324.1,263.5,323.5z"/>
		<path d="M142.3,242.6c5.2,0,10.2,2.8,12.8,7.3c2.7,4.6,2.6,10.3,0,14.9c-0.1,0.3-0.3,0.5-0.4,0.8c-2.5,4.4-7.3,7-12.4,7
			c-4.9,0-9.9-2.7-12.4-7c-0.1-0.3-0.3-0.5-0.4-0.8c-2.6-4.6-2.7-10.3,0-14.9C132.1,245.4,137,242.6,142.3,242.6z"/>
		<path d="M142.3,285.5c5.2,0,10.2,2.8,12.8,7.3c2.7,4.6,2.6,10.3,0,14.9c-0.1,0.3-0.3,0.5-0.4,0.8c-2.5,4.4-7.3,7-12.4,7
			c-4.9,0-9.9-2.7-12.4-7c-0.1-0.3-0.3-0.5-0.4-0.8c-2.6-4.6-2.7-10.3,0-14.9C132.1,288.3,137,285.5,142.3,285.5z"/>
		<path d="M148.5,327.4c5.2,0,10.2,2.8,12.8,7.3c2.7,4.6,2.6,10.3,0,14.9c-0.1,0.3-0.3,0.5-0.4,0.8c-2.5,4.4-7.3,7-12.4,7
			c-4.9,0-9.9-2.7-12.4-7c-0.1-0.3-0.3-0.5-0.4-0.8c-2.6-4.6-2.7-10.3,0-14.9C138.4,330.2,143.3,327.4,148.5,327.4z"/>
	</g>
</g>
</svg>


