<?xml version="1.0" encoding="utf-8"?>
<!-- Generator: Adobe Illustrator 18.0.0, SVG Export Plug-In . SVG Version: 6.00 Build 0)  -->
<!DOCTYPE svg PUBLIC "-//W3C//DTD SVG 1.1//EN" "http://www.w3.org/Graphics/SVG/1.1/DTD/svg11.dtd">
<svg version="1.1" xmlns="http://www.w3.org/2000/svg" xmlns:xlink="http://www.w3.org/1999/xlink" x="0px" y="0px"
	 viewBox="0 0 864 864" enable-background="new 0 0 864 864" xml:space="preserve" width="500" height="500">
<g>
	<g>
		<path d="M242.6,131.8c-1.1,0-2.3,0.5-3.1,1.6c-12.8,15.3-43.6,41.9-59.7,41.9c-2.6,0-5.3-0.4-6.3-3c-3.1-7.8,5.9-28,12.3-38.9
			c1.2-1.9,0.5-4.5-1.4-5.6c-0.7-0.4-1.5-0.7-2.2-0.7c-1.4,0-2.7,0.8-3.6,2c-1.9,3.3-18.7,32.1-12.8,46.3c1.5,4,4.6,6.6,8.7,7.7
			c1.5,0.3,3.1,0.5,4.8,0.5c22.7,0,57.4-35.1,66.1-45.3c1.4-1.8,1.4-4.1-0.4-5.6C244.4,132.1,243.5,131.8,242.6,131.8z"/>
		<path d="M195,106.7c0.3,0,0.7,0,1-0.1c1.6-0.3,2.9-1.6,3.1-3.3c0.7-1.4,3.6-5.7,4.4-7c1.4-1.2,1.6-3.1,0.8-4.9
			c-0.8-1.4-2.2-2.2-3.7-2.2c-0.7,0-1.4,0.3-1.9,0.5c-1.5,0.8-8.5,10.2-7.6,13.7C191.4,105.3,193.1,106.7,195,106.7z"/>
		<path d="M703.5,132.9c-0.7-0.5-1.6-0.8-2.5-0.8c-1.4,0-2.6,0.5-3.4,1.8c-9.1,12.2-38.4,41.5-47.8,41.5c-1.2,0-2-0.5-2.6-1.6
			c-2-5.7,5.9-20.6,9.7-27.7c3.7-7,4.8-9,3.4-11.6c-0.8-1.8-2.6-2.3-4.4-2.3c-1.2,0-2.7,0.1-4.6,0.4c-1.8,0.1-3.7,0.4-5.7,0.7
			c5.3-6.3,10.2-14.6,9-21c-1-4.5-5.1-7.9-9.6-7.9c-7,0-13.8,8.1-17.2,16.8c-3,7.9-2.3,14.3,1.8,17.5
			c-22.2,21.2-49.7,38.7-66.5,38.7c-3.8,0-7.1-0.8-9.6-2.7c-3.3-2.5-4.4-7-3.3-13.1s4.1-12.6,7.6-18c2.7,1.8,5.7,2.7,8.9,2.7
			c7.2,0,15.2-4.8,17.3-11.7c1.1-3.8,0.3-7.6-2.3-10.5c-2.2-2.2-4.8-3.3-7.8-3.3c-1.2,0-2.5,0.1-3.7,0.5c-5.6,1.7-11.8,7.2-17,14.2
			c-8.7,7.7-21.6,12-30.7,12c-2,0-4-0.3-5.6-0.7c1.1-1.8,2-3.4,2.9-5.1c4.5-8.6,5.7-14.1,3.8-17.6c-1.2-2.3-3.6-3.7-6.1-3.7
			c-9.2,0-14.6,12.2-14.6,19.9c-0.1,3.4,0.8,6.4,2.7,8.7c-8.9,13.4-21.2,28.3-26.8,31c-1-2.6-2.7-12.2,1.4-45.2l0.1-1.8
			c0.3-2.3-1.4-4.4-3.7-4.6c-0.1,0-0.3,0-0.4,0c-2.2,0-4,1.6-4.2,3.8l-0.1,1.4c-22.9,23.4-53.5,43.7-71.6,43.7
			c-3.8,0-7.1-0.8-9.6-2.7c-3.3-2.5-4.4-7-3.3-13.1s4.1-12.6,7.6-18c2.7,1.8,5.7,2.7,8.9,2.7c7.2,0,15.2-4.8,17.3-11.7
			c1.1-3.8,0.3-7.6-2.3-10.5c-2.2-2.2-4.8-3.3-7.8-3.3c-1.2,0-2.5,0.1-3.7,0.5c-6.4,1.9-13.7,8.9-19.3,17.5
			c-18.1,23.5-35.5,39.2-40,37.5c-1.6-3.3,2.2-15.2,4.9-23.1c4.8-14.6,9-27.3,1-31.8c-1-0.5-2-0.8-3.1-0.8c-7.9,0-19.1,13.1-38.7,38
			c-2.3,2.9-4.8,5.9-7,8.7c3.6-9.7,9-22.4,11.3-27.9c3.3-7.4,3.3-7.6,3.4-8.5c0.3-2.3-1.2-4.6-3.6-4.9c-0.1,0-0.4,0-0.5,0
			c-2,0-3.7,1.2-4.1,3.3c-0.1,0.7-1.2,3.3-2.9,6.8c-16.3,38.1-16.9,43.4-14.5,46.7c0.8,1.2,2.9,1.9,4.4,1.8c3.4-0.4,6.6-4.1,19.9-21
			c8.3-10.5,25.4-32.2,31.3-34.6c1.1,3.3-2.9,15-4.9,21.6c-4.1,12.4-7.6,23.1-4.5,29.5c1.5,2.9,4.5,4.8,7.8,4.8
			c8.3,0,20-10.7,30.4-22.4c-1.2,10.3,2.9,16,6.7,18.7c4.1,3.1,9,4.5,14.5,4.5c21.1,0,49.9-20.2,70.3-39.5
			c-3,30.2-0.2,37.7,2.8,40.8c1.8,1.6,3.3,1.9,5.6,1.9c7.6-1,23.1-19.4,33.5-34.7c2.9,1.1,6.1,1.6,9.7,1.6c7.2,0,15.4-2.2,23-6
			c-1.4,3.4-2.5,6.9-3.1,10.2c-2.2,11.9,2.3,18.2,6.4,21.2c4.1,3.1,9,4.5,14.5,4.5c22.8,0,54.6-23.6,75.1-44.2
			c1.3,0.1,2.6,0.2,4,0.2c2.9,0,5.6-0.3,8.1-0.5c-0.3,0.3-0.4,0.7-0.5,1c-7.1,13.4-13.2,26.1-10.1,34.6c1.5,4,5.5,7,9.7,7
			c18.6,0,54.1-44.4,54.5-44.9C705,136.7,705.3,134.1,703.5,132.9z M410.2,129.2c1.9-0.5,2.6,0,2.9,0.4c0.4,0.4,0.8,1.1,0.4,2.2
			c-1,3.4-5.6,6-9.2,6c-1.4,0-2.7-0.3-4-1.1C403.8,132.9,407.3,130,410.2,129.2z M511.4,139.9c0.3-5.1,2.7-8.6,4.6-10.2
			C515.5,132.1,513.9,135.8,511.4,139.9z M572.8,129.2c1.9-0.5,2.6,0,2.9,0.4c0.4,0.4,0.8,1.1,0.4,2.2c-1,3.4-5.6,6-9.2,6
			c-1.4,0-2.7-0.3-4-1.1C566.4,132.9,570,130,572.8,129.2z M635,132.2c-0.8-0.7-1-3.7,0.7-8.2c2.7-7.1,7.5-11.5,9.4-11.5
			c0.1,0,0.3,0,0.3,0.1c1,0.3,1.1,0.5,1.1,1C647.1,117.2,641.5,126.3,635,132.2z"/>
	</g>
	<g>
		<g>
			<path d="M239.3,384.9c-14.9,24.3-37.1,37.4-63,37.4c-3.5,0-6.9-0.3-10.4-0.7c-8.7-1.3-15.2-8.2-15.2-16.7V219.4
				c0-7.9,5.2-14.5,13.2-16.4c27-6.6,51.6,1.6,69.3,23.3C263.9,264.7,267,340.2,239.3,384.9z M223,304.8c-1-23.6-7.6-45.3-18-58.1
				c-5.5-6.9-11.8-11.2-19.1-12.1v153c7.3-2,15.6-7.2,22.9-19.4C218.5,352.4,223.7,329.1,223,304.8z"/>
			<path d="M312.4,404.9c0,9.2-8,16.4-17.7,16.4c-9.7,0-17.7-7.6-17.7-16.7c0-1.6,1.4-160.9,1.4-182.9c0-6.6,4.5-12.8,10.7-15.4
				c25.3-10.2,49.5-6.2,66.5,11.2c11.8,12.1,19.1,29.9,21.1,49.9c1.7,19.7-2.1,38.7-10.7,54.2c-6.6,12.1-15.9,21.3-27.4,27.3
				l35.7,46c5.9,7.6,4.2,18.1-3.8,23.3c-3.1,2.3-6.6,3.3-10.4,3.3c-5.5,0-10.7-2.3-14.2-6.9l-33.3-43
				C312.7,389.8,312.4,402.9,312.4,404.9z M313.1,321.5c0.3,0.3,0.3,0.3,0.7,0.3c9-1.6,15.9-6.6,21.1-15.8
				c11.1-20,8.7-51.9-5.2-65.7c-3.1-3.3-7.6-6.9-15.9-6.2C313.8,253.6,313.4,288.4,313.1,321.5z"/>
			<path d="M396.9,404.6V217.4c0-9.2,8-16.7,17.7-16.7c10,0,17.7,7.5,17.7,16.7v187.1c0,9.2-7.6,16.7-17.7,16.7
				C404.9,421.3,396.9,413.8,396.9,404.6z"/>
			<path d="M453.7,404.6V217.4c0-7.9,5.5-14.4,13.9-16.1c8-1.6,16.3,2.3,19.7,9.5L542,326.4v-109c0-9.2,7.6-16.7,17.7-16.7
				c9.7,0,17.7,7.5,17.7,16.7v187.1c0,7.9-5.9,14.8-14.2,16.4c-1,0.3-2.4,0.3-3.5,0.3c-6.9,0-13.5-3.6-16.3-9.9L489,295.9v108.7
				c0,9.2-8,16.7-17.7,16.7C461.3,421.3,453.7,413.8,453.7,404.6z"/>
			<path d="M705.5,418.7c-3.1,2-6.6,2.6-9.7,2.6c-5.9,0-11.4-2.3-14.9-7.2l-46.8-66.3v56.8c0,9.2-8,16.7-17.7,16.7
				s-17.7-7.6-17.7-16.7V217.4c0-9.2,8-16.7,17.7-16.7s17.7,7.5,17.7,16.7v44.7l35.7-52.2c5.5-7.9,16.3-10.2,24.6-5.3
				c8,5.3,10.4,15.4,5.2,23.3l-53,77.5l63.7,90C715.9,402.9,713.5,413.5,705.5,418.7z"/>
		</g>
	</g>
	<g>
		<g>
			<path d="M150.2,499.6v-56.4c0-2.2,1.8-4,4-4c2.2,0,4,1.8,4,4v56.4c0,2.2-1.8,4-4,4C151.9,503.6,150.2,501.8,150.2,499.6z"/>
			<path d="M192.3,487.3c0-2.2,1.8-4,4-4c2.2,0,4,1.8,4,4c0,4.9,2.4,7.8,4.8,7.8c1.4,0,2.5-1.1,3.1-1.9c1-1.4,2.2-4.1,2.2-9.2v-40.8
				c0-2.2,1.8-4,4-4c2.2,0,4,1.8,4,4V484c0,5.6-1.3,10.4-3.6,13.8c-2.4,3.4-5.9,5.3-9.6,5.3C198.8,503.1,192.3,497.5,192.3,487.3z"
				/>
			<path d="M233.9,498.8c-3.3-2.9-5.1-7-5.1-11.5v-44.1c0-2.2,2.1-4,4.7-4c2.6,0,4.7,1.8,4.7,4v44.1c0,5.1,3.8,7.8,7.5,7.8
				c2,0,3.8-0.8,5.2-2.2c1.9-2,2.9-5,2.9-8.9v-40.8c0-2.2,2.1-4,4.7-4c2.6,0,4.7,1.8,4.7,4V484c0,5.8-1.8,10.6-5.1,14
				c-3.2,3.3-7.6,5.1-12.3,5.1C241.3,503.1,237,501.5,233.9,498.8z"/>
			<path d="M307,448.1c2.8,4.4,4.4,10.2,4.4,15.7c0,2.2-1.8,4-4,4c-2.2,0-4-1.8-4-4c0-6.7-3.7-16.6-11.7-16.6
				c-2.5,0-4.6,0.9-6.2,2.7c-3.1,3.3-4.1,9-3.8,13.1c0.4,5.2,6.2,8.6,12.4,12.1c3.2,1.9,6.5,3.8,9.1,6.1c3.4,3,5.1,6.4,5.1,10.1
				c0,3.4-1.5,6.6-4.2,9c-2.3,2.1-5.3,3.4-8.1,3.4c-6.3,0-9.7-2.3-11.5-4.2c-2-2.2-3.1-5.1-2.9-8.1c0.1-2.2,2-3.9,4.2-3.7
				c2.2,0.1,3.9,2,3.7,4.2c0,0.5,0,1.3,0.8,2.1c1,1.1,3,1.7,5.7,1.7c1.4,0,4.2-1.9,4.2-4.4c0-3.4-5-6.2-10.2-9.3
				c-3.5-2-7.2-4.1-10.2-6.8c-3.8-3.4-5.9-7.2-6.2-11.6c-0.5-5.7,0.8-13.7,5.8-19.2c3.2-3.4,7.4-5.3,12.1-5.3
				C298,439.2,303.3,442.4,307,448.1z"/>
			<path d="M317.5,443.2c0-2.2,1.8-4,4-4h32c2.2,0,4,1.8,4,4c0,2.2-1.8,4-4,4h-11.8v52.5c0,2.2-1.8,4-4,4c-2.2,0-4-1.8-4-4v-52.5
				h-12.3C319.2,447.2,317.5,445.4,317.5,443.2z"/>
			<path d="M425.5,465.2c0,21.3-20.3,34.7-28.2,38.1l0,0c-0.2,0.1-0.4,0.1-0.6,0.2c-0.1,0-0.1,0-0.2,0c-0.1,0-0.1,0-0.2,0
				c-0.1,0-0.1,0-0.2,0l-0.1,0c-0.1,0-0.2,0-0.3,0h0c-0.1,0-0.1,0-0.2,0c0,0-0.1,0-0.1,0c0,0-0.1,0-0.1,0l-0.1,0c0,0-0.1,0-0.1,0
				c0,0-0.1,0-0.1,0c0,0,0,0,0,0c-0.1,0-0.2,0-0.3-0.1c-0.2-0.1-0.4-0.1-0.5-0.2c0,0-0.1,0-0.1-0.1c0,0-0.1,0-0.1-0.1
				c-0.1,0-0.1-0.1-0.2-0.1c-0.1,0-0.1-0.1-0.2-0.1c-0.1,0-0.1-0.1-0.2-0.1c0,0,0,0,0,0c-0.1-0.1-0.2-0.1-0.3-0.2
				c0,0-0.1-0.1-0.1-0.1c0,0-0.1-0.1-0.1-0.1c0,0,0,0,0,0c0,0-0.1-0.1-0.1-0.1c0,0-0.1-0.1-0.1-0.2c0,0-0.1-0.1-0.1-0.2
				c0-0.1-0.1-0.1-0.1-0.2c0-0.1-0.1-0.1-0.1-0.2c0,0,0-0.1,0-0.1c0-0.1-0.1-0.2-0.1-0.3c0-0.1,0-0.1-0.1-0.2c0-0.1-0.1-0.2-0.1-0.3
				c0-0.1,0-0.1,0-0.2c0-0.1,0-0.1,0-0.2c0-0.1,0-0.1,0-0.2c0,0,0-0.1,0-0.1c0-0.1,0-0.1,0-0.2c0,0,0,0,0-0.1c0-0.1,0-0.2,0-0.3
				v-56.5c0-2.2,1.8-4,4-4c9,0,16,1.9,21,5.7C422.5,449.4,425.5,456.2,425.5,465.2z M417.5,465.2c0-6.5-1.9-11-5.7-13.9
				c-2.9-2.2-7-3.5-12.2-3.9v45.5C407.1,488,417.5,478.3,417.5,465.2z"/>
			<path d="M435.5,499.6v-56.4c0-2.2,1.8-4,4-4c2.2,0,4,1.8,4,4v56.4c0,2.2-1.8,4-4,4C437.3,503.6,435.5,501.8,435.5,499.6z"/>
			<path d="M487.4,448.1c2.8,4.4,4.4,10.2,4.4,15.7c0,2.2-1.8,4-4,4c-2.2,0-4-1.8-4-4c0-6.7-3.7-16.6-11.7-16.6
				c-2.5,0-4.6,0.9-6.2,2.7c-3.1,3.3-4.1,9-3.8,13.1c0.4,5.2,6.2,8.6,12.4,12.1c3.2,1.9,6.5,3.8,9.1,6.1c3.4,3,5.1,6.4,5.1,10.1
				c0,3.4-1.5,6.6-4.2,9c-2.3,2.1-5.3,3.4-8.1,3.4c-6.3,0-9.7-2.3-11.5-4.2c-2-2.2-3.1-5.1-2.9-8.1c0.1-2.2,2-3.9,4.2-3.7
				c2.2,0.1,3.9,2,3.7,4.2c0,0.5,0,1.3,0.8,2.1c1,1.1,3,1.7,5.7,1.7c1.4,0,4.2-1.9,4.2-4.4c0-3.4-5-6.2-10.2-9.3
				c-3.5-2-7.2-4.1-10.2-6.8c-3.8-3.4-5.9-7.2-6.2-11.6c-0.5-5.7,0.8-13.7,5.8-19.2c3.2-3.4,7.4-5.3,12.1-5.3
				C478.3,439.2,483.7,442.4,487.4,448.1z"/>
			<path d="M502.4,499.6v-56.4c0-2.2,1.8-4,4-4c2.2,0,4,1.8,4,4v56.4c0,2.2-1.8,4-4,4C504.2,503.6,502.4,501.8,502.4,499.6z"/>
			<path d="M553.4,443.2v56.4v0c0,0.1,0,0.1,0,0.2c0,0,0,0.1,0,0.1c0,0.1,0,0.2,0,0.2c0,0,0,0.1,0,0.1s0,0.1,0,0.1c0,0,0,0.1,0,0.1
				c0,0.1,0,0.2-0.1,0.3c-0.1,0.3-0.2,0.5-0.3,0.8c-0.1,0.2-0.3,0.4-0.4,0.6c0,0-0.1,0.1-0.1,0.1c0,0,0,0,0,0c0,0-0.1,0.1-0.1,0.1
				c-0.1,0.1-0.1,0.1-0.2,0.1c0,0-0.1,0.1-0.1,0.1c-0.1,0.1-0.3,0.2-0.4,0.3c0,0-0.1,0-0.1,0.1c0,0,0,0,0,0c0,0-0.1,0-0.1,0.1
				c-0.2,0.1-0.4,0.2-0.6,0.3c0,0,0,0,0,0c-0.1,0-0.2,0.1-0.4,0.1c0,0-0.1,0-0.1,0c0,0-0.1,0-0.1,0c-0.1,0-0.2,0-0.2,0
				c-0.1,0-0.2,0-0.3,0h0c-0.1,0-0.1,0-0.2,0c0,0-0.1,0-0.1,0c-0.1,0-0.2,0-0.2,0c0,0-0.1,0-0.1,0c0,0-0.1,0-0.1,0
				c-0.1,0-0.2,0-0.3-0.1c0,0-0.1,0-0.1,0c-0.1,0-0.2-0.1-0.3-0.1c-0.1,0-0.2-0.1-0.3-0.1c-0.1-0.1-0.3-0.2-0.4-0.3
				c-0.1,0-0.1-0.1-0.2-0.1c0,0,0,0,0,0c0,0-0.1-0.1-0.1-0.1c0,0-0.1-0.1-0.1-0.1c0,0-0.1-0.1-0.1-0.1c0,0-0.1-0.1-0.1-0.1
				c0,0,0,0,0,0c0,0-0.1-0.1-0.1-0.1c0-0.1-0.1-0.1-0.1-0.2c0,0-0.1-0.1-0.1-0.1c0,0-0.1-0.1-0.1-0.1c-0.1-0.1-0.1-0.2-0.1-0.3
				c0-0.1-0.1-0.2-0.1-0.2c0,0,0,0,0-0.1c-0.6-1.3-1.7-4-3.2-7.5c-3.4-7.9-8.9-20.6-13.5-31.1v37.1c0,2.2-1.8,4-4,4
				c-2.2,0-4-1.8-4-4v-56.4v0c0-0.1,0-0.1,0-0.2c0-0.1,0-0.1,0-0.1c0,0,0-0.1,0-0.1c0-0.2,0.1-0.4,0.1-0.6c0-0.1,0.1-0.3,0.1-0.4
				c0-0.1,0.1-0.2,0.1-0.3c0,0,0-0.1,0.1-0.1c0.2-0.3,0.4-0.6,0.6-0.9c0,0,0.1-0.1,0.1-0.1c0,0,0.1-0.1,0.1-0.1s0.1-0.1,0.1-0.1
				c0,0,0.1-0.1,0.1-0.1c0.1-0.1,0.2-0.2,0.4-0.2c0,0,0.1-0.1,0.1-0.1c0,0,0.1,0,0.1-0.1l0.1,0h0c0,0,0.1,0,0.1-0.1c0,0,0,0,0.1,0
				c0,0,0.1,0,0.1,0c0.1,0,0.1-0.1,0.2-0.1c0.1,0,0.3-0.1,0.4-0.1c0.1,0,0.1,0,0.2,0c0.1,0,0.1,0,0.2,0c0,0,0,0,0,0
				c0.1,0,0.3,0,0.4,0h0c0.1,0,0.1,0,0.2,0c0.1,0,0.1,0,0.1,0c0,0,0.1,0,0.1,0c0.2,0,0.4,0.1,0.6,0.1c0.1,0,0.3,0.1,0.4,0.1
				c0.1,0,0.2,0.1,0.3,0.1c0,0,0.1,0,0.1,0.1c0.1,0,0.2,0.1,0.3,0.2c0.1,0,0.1,0.1,0.2,0.1s0.1,0.1,0.2,0.1c0.1,0.1,0.2,0.2,0.3,0.2
				c0.2,0.2,0.4,0.4,0.5,0.6c0.1,0.1,0.1,0.2,0.2,0.3c0.1,0.1,0.1,0.2,0.2,0.3c0,0.1,0.1,0.1,0.1,0.2c0,0,0,0,0,0
				c1.6,3.8,10.2,23.6,16.7,38.7v-37.2c0-2.2,1.8-4,4-4C551.6,439.2,553.4,441,553.4,443.2z"/>
			<path d="M564.1,499.6v-56.4c0-2.2,1.8-4,4-4h18.6c2.2,0,4,1.8,4,4c0,2.2-1.8,4-4,4h-14.7v35.3h5.3c2.2,0,4,1.8,4,4
				c0,2.2-1.8,4-4,4h-5.3v9.2c0,2.2-1.8,4-4,4C565.9,503.6,564.1,501.8,564.1,499.6z"/>
			<path d="M601.3,499.6v-56.4c0-2.2,1.8-4,4-4H624c2.2,0,4,1.8,4,4c0,2.2-1.8,4-4,4h-14.7v36.1h11.3c2.2,0,4,1.8,4,4
				c0,2.2-1.8,4-4,4h-11.3v4.4H624c2.2,0,4,1.8,4,4c0,2.2-1.8,4-4,4h-18.6C603.1,503.6,601.3,501.8,601.3,499.6z"/>
			<path d="M662.4,443c6.6,6.9,7.6,21.5,7.4,26.1c-0.1,2.2-1.9,3.9-4.1,3.8c-2.2-0.1-3.9-1.9-3.8-4.1c0.2-4.8-1.2-16.1-5.2-20.3
				c-1.2-1.2-2.2-1.4-3-1.4c-2.1,0-4.7,3.1-6.7,7.8c-2.3,5.6-3.8,13.1-3.8,20.1c0,6.1,1.1,11.5,3,15.2c1.9,3.6,4.5,5.4,8,5.4
				c1.8,0,3.3-0.7,4.5-2.1c1.9-2.1,2.4-5.1,2.3-6.2c-0.3-2.2,1.3-4.2,3.5-4.5c2.2-0.3,4.2,1.3,4.5,3.5c0.4,3.2-0.7,8.5-4.2,12.5
				c-2.7,3.1-6.4,4.8-10.5,4.8c-6.5,0-11.7-3.3-15-9.6c-3.2-6.1-3.9-13.7-3.9-18.9c0-8.1,1.6-16.6,4.4-23.2
				c3.4-8.2,8.4-12.7,14.1-12.7C657,439.2,660,440.5,662.4,443z"/>
			<path d="M673.8,443.2c0-2.2,1.8-4,4-4h32c2.2,0,4,1.8,4,4c0,2.2-1.8,4-4,4h-11.8v52.5c0,2.2-1.8,4-4,4c-2.2,0-4-1.8-4-4v-52.5
				h-12.3C675.6,447.2,673.8,445.4,673.8,443.2z"/>
		</g>
	</g>
	<g>
		<g>
			<path d="M249.1,606.1v-79.8c0-3.9,3.2-7.1,7.1-7.1c4.1,0,7.1,3.2,7.1,7.1v79.8c0,3.9-3.1,7.1-7.1,7.1
				C252.3,613.3,249.1,610,249.1,606.1z"/>
			<path d="M272,606.1v-79.8c0-3.4,2.2-6.2,5.6-6.9c3.2-0.7,6.6,1,8,4.1l22.1,49.3v-46.5c0-3.9,3.1-7.1,7.1-7.1
				c3.9,0,7.1,3.2,7.1,7.1v79.8c0,3.4-2.4,6.3-5.7,7c-0.4,0.1-1,0.1-1.4,0.1c-2.8,0-5.5-1.5-6.6-4.2l-22-49.3v46.4
				c0,3.9-3.2,7.1-7.1,7.1C275.1,613.3,272,610,272,606.1z"/>
			<path d="M369.7,533.7h-11.1v72.4c0,3.9-3.2,7.1-7.1,7.1c-3.9,0-7.1-3.2-7.1-7.1v-72.4h-10.9c-3.9,0-7.1-3.1-7.1-7.1
				c0-3.9,3.2-7.1,7.1-7.1h36.3c3.9,0,7.1,3.2,7.1,7.1C376.8,530.6,373.6,533.7,369.7,533.7z"/>
			<path d="M414.9,613.3c-2.5,0.3-5.3,0.6-8.1,0.6c-6,0-12.2-1.3-16.9-5.5c-9.4-8.3-9.2-23.8-9-52c0.1-8.7,0.1-18.6,0-29.8
				c0-2,0.7-3.8,2.1-5.2c1.3-1.4,3.1-2.1,5-2.1h24.5c3.9,0,7.1,3.2,7.1,7.1c0,3.9-3.2,7.1-7.1,7.1h-17.2c0,8.4,0,16.1-0.1,23
				c0,4.6,0,9.1,0,13.2h13.2c3.9,0,7.1,3.2,7.1,7.1c0,3.9-3.2,7.1-7.1,7.1h-12.7c0.4,6.9,1.5,11.8,3.8,13.7
				c2.1,1.8,6.6,2.2,13.7,1.4c3.9-0.6,7.6,2.2,8,6.2C421.6,609.2,418.8,612.7,414.9,613.3z"/>
			<path d="M439.4,606.3c0,3.9-3.2,7-7.1,7c-3.9,0-7.1-3.2-7.1-7.1c0-0.7,0.6-68.6,0.6-78c0-2.8,1.8-5.5,4.3-6.6
				c10.2-4.3,20-2.7,26.9,4.8c4.8,5.2,7.7,12.7,8.5,21.3c0.7,8.4-0.8,16.5-4.3,23.1c-2.7,5.2-6.4,9.1-11.1,11.6l14.4,19.6
				c2.4,3.2,1.7,7.7-1.5,9.9c-1.3,1-2.7,1.4-4.2,1.4c-2.2,0-4.3-1-5.7-2.9L439.6,592C439.6,599.8,439.4,605.4,439.4,606.3z
				 M439.7,570.7c0.1,0.1,0.1,0.1,0.3,0.1c3.6-0.7,6.4-2.8,8.5-6.7c4.5-8.5,3.5-22.1-2.1-28c-1.3-1.4-3.1-2.9-6.4-2.7
				C440,541.7,439.8,556.5,439.7,570.7z"/>
			<path d="M473.6,606.1v-79.8c0-3.4,2.2-6.2,5.6-6.9c3.2-0.7,6.6,1,8,4.1l22.1,49.3v-46.5c0-3.9,3.1-7.1,7.1-7.1
				c3.9,0,7.1,3.2,7.1,7.1v79.8c0,3.4-2.4,6.3-5.7,7c-0.4,0.1-1,0.1-1.4,0.1c-2.8,0-5.5-1.5-6.6-4.2l-22-49.3v46.4
				c0,3.9-3.2,7.1-7.1,7.1C476.7,613.3,473.6,610,473.6,606.1z"/>
			<path d="M573.6,571.1c1.4,18.2,1.3,34.6,1.3,35.3c0,3.9-3.2,7.1-7.1,7c-4.1,0-7.1-3.2-7.1-7.1c0-0.1,0-5.9-0.1-14.1h-15.3
				c0,8.3,0.1,13.9,0.1,14c0.1,3.9-2.9,7.1-6.9,7.3c-0.1,0-0.1,0-0.3,0c-3.8,0-7-2.9-7.1-6.9c0-0.7-0.4-17.1,0.6-35.3
				c1.8-34.7,7.4-44.3,11.3-48.3c3.4-3.4,6.9-4.1,9.2-4.1c2.4,0,5.9,0.7,9.2,4.1C565.3,527,571.1,536.4,573.6,571.1z M559.7,577.8
				c-0.1-2.2-0.3-4.6-0.4-7c-2-24.5-5.3-33.5-7.1-36.6c-1.7,3.1-4.9,12-6.3,36.7c-0.1,2.2-0.3,4.6-0.3,6.9H559.7z"/>
			<path d="M583.5,606.1v-79.8c0-3.9,3.2-7.1,7.1-7.1s7.1,3.2,7.1,7.1V599h15.4c4.1,0,7.1,3.2,7.1,7.1c0,3.9-3.1,7.1-7.1,7.1h-22.6
				C586.8,613.3,583.5,610,583.5,606.1z"/>
		</g>
	</g>
	<g>
		<g>
			<path d="M148.1,763.3V645.6c0-5.8,5.3-10.5,11.8-10.5c6.7,0,11.8,4.7,11.8,10.5v117.7c0,5.8-5.1,10.5-11.8,10.5
				C153.4,773.8,148.1,769,148.1,763.3z"/>
			<path d="M186.1,763.3V645.6c0-5,3.7-9.1,9.3-10.1c5.3-1,10.9,1.4,13.2,6l36.6,72.7v-68.5c0-5.8,5.1-10.5,11.8-10.5
				c6.5,0,11.8,4.7,11.8,10.5v117.7c0,5-3.9,9.3-9.5,10.3c-0.7,0.2-1.6,0.2-2.3,0.2c-4.6,0-9-2.3-10.9-6.2l-36.4-72.7v68.3
				c0,5.8-5.3,10.5-11.8,10.5C191.2,773.8,186.1,769,186.1,763.3z"/>
			<path d="M314.6,773.4c-14.8,0-26.9-8.5-32.9-23.3c-8.6-20.6-3.5-51,17.6-63.2c5.3-3.3,12.7-1.9,16.2,2.9c3.7,5,2.1,11.4-3.2,14.7
				c-10,5.8-14.1,24.8-8.6,38.4c2.8,6.8,6.9,9.9,12.3,9.5c16.9-1.9,14.8-50.6,12.3-96h-27.6c-6.7,0-11.8-4.7-11.8-10.5
				s5.1-10.5,11.8-10.5h38.9c6.3,0,11.3,4.3,11.8,9.9v3.7c1.9,31.8,3.5,59.2,0.9,80.3c-1.2,10.3-4.9,41.1-33.6,44
				C317.4,773.4,316,773.4,314.6,773.4z"/>
			<path d="M366.7,693.3c-0.5-25.8,2.3-48.3,2.3-49.1c0.7-5.8,6.5-10.1,13-9.5c6.5,0.6,11.1,5.8,10.7,11.6
				c-0.2,0.2-2.8,22.5-2.3,47.1c0.5,42.1,8.6,54.5,12,58c1.6,1.7,2.8,1.7,3.5,1.7c0.7,0,1.6,0,3.2-1.4c3.5-3.5,11.1-15.7,10.9-58
				c-0.2-24.6-3.2-46.9-3.2-47.1c-0.7-5.8,3.9-10.9,10.4-11.8c6.5-0.6,12.3,3.5,13,9.3c0.2,0.8,3.2,23.5,3.5,49.3
				c0.2,37-5.3,60.5-16.7,72c-5.8,5.8-13,8.7-21.1,8.7c-8.1,0-15.3-2.9-21.1-8.7C372.9,753.8,366.9,730,366.7,693.3z"/>
			<path d="M479.2,763.5c0,5.8-5.3,10.3-11.8,10.3c-6.5,0-11.8-4.7-11.8-10.5c0-1,0.9-101.2,0.9-115c0-4.1,3-8.1,7.2-9.7
				c16.9-6.4,33.1-3.9,44.5,7c7.9,7.6,12.7,18.8,14.1,31.4c1.2,12.4-1.4,24.4-7.2,34.1c-4.4,7.6-10.7,13.4-18.3,17.1l23.8,28.9
				c3.9,4.7,2.8,11.4-2.5,14.7c-2.1,1.4-4.4,2.1-6.9,2.1c-3.7,0-7.2-1.4-9.5-4.3l-22.2-27C479.5,754,479.2,762.2,479.2,763.5z
				 M479.7,711c0.2,0.2,0.2,0.2,0.5,0.2c6-1,10.7-4.1,14.1-9.9c7.4-12.6,5.8-32.6-3.5-41.3c-2.1-2.1-5.1-4.3-10.7-3.9
				C480.1,668.3,479.9,690.2,479.7,711z"/>
			<path d="M535.7,763.3V645.6c0-5.8,5.3-10.5,11.8-10.5c6.7,0,11.8,4.7,11.8,10.5v117.7c0,5.8-5.1,10.5-11.8,10.5
				C541,773.8,535.7,769,535.7,763.3z"/>
			<path d="M629.5,773.8c-4.2,0.4-8.8,0.8-13.4,0.8c-10,0-20.1-1.9-28-8c-15.5-12.2-15.3-35.1-14.8-76.6c0.2-12.8,0.2-27.5,0-44
				c0-2.9,1.2-5.6,3.5-7.6c2.1-2.1,5.1-3.1,8.3-3.1h40.5c6.5,0,11.8,4.7,11.8,10.5s-5.3,10.5-11.8,10.5h-28.5
				c0,12.4,0,23.7-0.2,33.9c0,6.8,0,13.4,0,19.4h21.8c6.5,0,11.8,4.7,11.8,10.5c0,5.8-5.3,10.5-11.8,10.5h-21.1
				c0.7,10.1,2.5,17.3,6.3,20.2c3.5,2.7,10.9,3.3,22.7,2.1c6.5-0.8,12.5,3.3,13.2,9.1C640.6,767.8,636,773,629.5,773.8z"/>
			<path d="M666.8,736.8c-2.1,4.1-1.9,9.3,0.5,12.8c1.6,2.5,3.9,3.9,7.2,4.1c4.6,0.2,9-1.2,12.3-4.1c4.2-3.7,6.3-9.5,5.6-15.9
				c-1.2-9.5-10.2-14.9-29.2-25.2c-15.1-8-23.6-22.5-22.9-38.4c0.7-14,8.8-26.2,21.1-31.6c11.6-5.2,25-3.9,34.7,2.9
				c10.2,7,14.4,19,11.1,32c-1.4,5.6-7.6,9.1-13.9,7.8c-6.5-1.2-10.4-6.8-9-12.4c1.2-5,0.2-8.9-2.5-10.9c-2.8-1.9-6.5-2.1-9.7-0.6
				c-4.6,2.1-7.6,7.4-8.1,13.8c-0.2,3.9,0.7,13.6,11.6,19.4c20.4,11.1,38.2,20.8,40.3,41.3c1.4,12.4-3,24.4-12,32.6
				c-7.4,6.6-17.6,10.3-27.8,10.3c-1.2,0-2.1,0-3.2-0.2c-10.9-0.6-20.1-6-25.7-14.2c-6.3-9.7-6.7-21.9-1.4-32.4
				c2.8-5.2,9.7-7.4,15.5-5.2C667,725.3,669.5,731.5,666.8,736.8z"/>
		</g>
	</g>
	<g>
		<path d="M221.1,559c9.9,6.7,9.3,4.6,9.3,4.6c-3.2-9.2-16.7-25.1-16.7-25.1c-8.1-8.6-12.4-7.7-12.4-7.7c-6.1,0.4-5.4,6-5.4,6
			C201.8,547.3,221.1,559,221.1,559z"/>
		<path d="M213.2,565.8l-14.1-5c-29.1-8.8-36.8-7-36.8-7c-18.7,2.9-11.8,15.7-11.8,15.7c5.1,12.4,28.2,8.3,28.2,8.3
			c11.4-0.8,35.3-8.9,35.3-8.9C220.1,567.8,213.2,565.8,213.2,565.8z"/>
		<path d="M229.2,573.2c-22.4,7.4-32.4,15.6-32.4,15.6c-9,6.8-1.4,11.5-1.4,11.5c5.5,4.8,17-4.6,17-4.6c7.1-4.6,19.1-20.2,19.1-20.2
			C234.7,571.5,229.2,573.2,229.2,573.2z"/>
	</g>
	<g>
		<path d="M633.5,559c-9.9,6.7-9.3,4.6-9.3,4.6c3.2-9.2,16.7-25.1,16.7-25.1c8.1-8.6,12.4-7.7,12.4-7.7c6.1,0.4,5.4,6,5.4,6
			C652.9,547.3,633.5,559,633.5,559z"/>
		<path d="M641.5,565.8l14.1-5c29.1-8.8,36.8-7,36.8-7c18.7,2.9,11.8,15.7,11.8,15.7c-5.1,12.4-28.2,8.3-28.2,8.3
			c-11.4-0.8-35.3-8.9-35.3-8.9C634.5,567.8,641.5,565.8,641.5,565.8z"/>
		<path d="M625.5,573.2c22.4,7.4,32.4,15.6,32.4,15.6c9,6.8,1.4,11.5,1.4,11.5c-5.5,4.8-17-4.6-17-4.6c-7.1-4.6-19.1-20.2-19.1-20.2
			C620,571.5,625.5,573.2,625.5,573.2z"/>
	</g>
</g>
</svg>


