<?xml version="1.0" encoding="utf-8"?>
<!-- Generator: Adobe Illustrator 18.0.0, SVG Export Plug-In . SVG Version: 6.00 Build 0)  -->
<!DOCTYPE svg PUBLIC "-//W3C//DTD SVG 1.1//EN" "http://www.w3.org/Graphics/SVG/1.1/DTD/svg11.dtd">
<svg version="1.1" xmlns="http://www.w3.org/2000/svg" xmlns:xlink="http://www.w3.org/1999/xlink" x="0px" y="0px"
	 viewBox="0 0 864 864" enable-background="new 0 0 864 864" xml:space="preserve" width="500" height="500">
<g>
	<path d="M303.9,605.4c1.3-1,1.7-2.7,1.2-4.2l-3-7.9c-0.2-0.4,0-0.9,0.3-1.2c0.4-0.3,0.8-0.3,1.2,0l6.9,4.9
		c1.3,0.9,3.1,0.9,4.3-0.1l6.5-5c0.3-0.3,0.8-0.3,1.2-0.1s0.5,0.6,0.4,1.1l-2.3,10.6c-0.1,0.4,0.1,0.8,0.4,1l8.8,6.5
		c0.3,0.3,0.5,0.7,0.4,1.1c-0.1,0.4-0.5,0.7-1,0.7h-10c-0.5,0-0.9,0.3-1,0.8l-2.5,9.7c-0.1,0.4-0.5,0.7-0.9,0.8
		c-0.4,0-0.8-0.2-1-0.6l-4.1-10.1c-0.1-0.4-0.5-0.6-0.9-0.6l-10.8-0.4c-0.4,0-0.8-0.3-0.9-0.7c-0.1-0.4,0-0.8,0.3-1.1L303.9,605.4z"
		/>
	<path d="M487.8,598.6c1.5,0.5,3.2-0.1,4.1-1.5l4.7-7c0.2-0.4,0.7-0.5,1.1-0.4c0.4,0.1,0.7,0.5,0.7,1l0,8.5
		c0,1.6,1,3,2.6,3.5l7.9,2.4c0.4,0.1,0.7,0.5,0.7,0.9s-0.2,0.8-0.6,1l-10,4.2c-0.4,0.2-0.6,0.5-0.6,0.9l-0.2,10.9
		c0,0.4-0.3,0.8-0.7,0.9s-0.9,0-1.1-0.4l-5.8-8.2c-0.3-0.4-0.8-0.5-1.2-0.4l-9.4,3.6c-0.4,0.2-0.9,0-1.1-0.3
		c-0.3-0.3-0.3-0.8-0.1-1.2l5.9-9.2c0.2-0.3,0.2-0.8,0-1.1l-6-9c-0.2-0.4-0.2-0.8,0-1.2c0.3-0.3,0.7-0.5,1.1-0.4L487.8,598.6z"/>
	<path d="M592.1,417.5c1.5,0.5,3.2-0.1,4.1-1.5l4.7-7c0.2-0.4,0.7-0.5,1.1-0.4c0.4,0.1,0.7,0.5,0.7,1l0,8.5
		c0,1.6,1,3,2.6,3.5l7.9,2.4c0.4,0.1,0.7,0.5,0.7,0.9c0,0.4-0.2,0.8-0.6,1l-10,4.2c-0.4,0.2-0.6,0.5-0.6,0.9l-0.2,10.9
		c0,0.4-0.3,0.8-0.7,0.9c-0.4,0.1-0.9,0-1.1-0.4l-5.8-8.2c-0.3-0.4-0.8-0.5-1.2-0.4l-9.4,3.6c-0.4,0.2-0.9,0-1.1-0.3
		c-0.3-0.3-0.3-0.8-0.1-1.2l5.9-9.2c0.2-0.3,0.2-0.8,0-1.1l-6-9c-0.2-0.4-0.2-0.8,0-1.2c0.3-0.3,0.7-0.5,1.1-0.4L592.1,417.5z"/>
	<path d="M434.8,419.7c1.1,0.3,2.4-0.1,3-1.1l3.5-5.2c0.2-0.3,0.5-0.4,0.8-0.3c0.3,0.1,0.5,0.4,0.5,0.7l0,6.3
		c0,1.2,0.8,2.2,1.9,2.6l5.8,1.8c0.3,0.1,0.5,0.4,0.5,0.7c0,0.3-0.2,0.6-0.4,0.7l-7.4,3.1c-0.3,0.1-0.4,0.4-0.5,0.7l-0.2,8.1
		c0,0.3-0.2,0.6-0.5,0.7c-0.3,0.1-0.6,0-0.8-0.3l-4.3-6c-0.2-0.3-0.6-0.4-0.9-0.3l-6.9,2.6c-0.3,0.1-0.6,0-0.8-0.2
		c-0.2-0.2-0.2-0.6-0.1-0.9l4.3-6.8c0.2-0.2,0.2-0.6,0-0.8l-4.4-6.7c-0.2-0.3-0.2-0.6,0-0.9s0.5-0.4,0.8-0.3L434.8,419.7z"/>
	<g>
		<path d="M506,232.2c8.4-18.5,18.1-36.1,28.9-53.3c10.3-16.2,20.2-35.1,34.9-47.7c4.2-3.6,9.2,0.8,8.2,5.5
			c-4.3,19.1-18.7,35.5-30,51c-11.6,15.9-23.2,31.9-33.3,48.8C511.9,241.5,503.7,237.4,506,232.2z"/>
		<path d="M454.7,57c8.6,54.3-3.6,108.1-16.8,160.3c-1.3,5.3-10.1,3.4-9.4-1.9c7.1-52.4,1.2-107.8,16.6-159
			C446.4,51.7,453.9,52.2,454.7,57z"/>
		<path d="M350.9,218.7c1.7,5.7-7.7,8.9-9.9,3.4c-13.1-32.9-43-68.5-39.6-105.5c0.4-4.5,6.8-7.4,9.8-3.3
			C332.4,142.4,340.6,184.6,350.9,218.7z"/>
		<path d="M475,211.2c-2.1,4.5-8.6,3.4-8.6-1.8c0.1-9.4,1.8-18.8,2.5-28.1c0.6-7.5,13-8.9,13.6-0.9C483.4,191,479.4,201.6,475,211.2
			z"/>
		<path d="M366.7,184c-1.6-6.3,7-8.3,10-3.4c4.6,7.5,4.3,17.4,3.5,25.8c-0.7,6.3-9.9,5.6-9.8-0.7C370.4,198,368.5,191.4,366.7,184z"
			/>
		<path d="M294.6,217.9c0.7,0.7,1.3,1.4,1.9,2c0.9,1.1,1.9,2,3.1,2.8c5.5,3.5-0.1,11.7-5.7,8.3c-2.1-1.3-4-3-5.5-5
			c-0.9-1.1-1.7-2.6-2-4.1c-0.2-0.9-0.1-1.7,0.2-2.5c0.7-1.2,0.8-1.4,0.4-0.8c0.7-1.9,2.8-2.8,4.7-2.2c-0.6-0.2-0.4-0.2,1,0.2
			C293.4,216.8,294,217.2,294.6,217.9z"/>
	</g>
	<g>
		<path d="M256.5,395.6c-6.7,39.7-51.7-0.9-85.6-20.5c27.2-26.3,20.5-76.3,20.8-107.5c54.7-8.8,65.8-102.6,33.3-106.7
			c-2.3-0.3-5-0.3-7.3-0.3c-47.9,0-60.8,61.4-61.4,92.6c-15.8-7-19.9-21.6-23.4-35.1c-2-8.5-13.2-5.3-10.8,4.4
			c3.2,13.2,9.6,34.5,33.9,42.7c1.8,29.5,7.6,79.5-7,100.5c-10.8-2.6-21.6-1.2-32.1,8.2c-6.4,3.8-3.5,11.1,4.1,7.9
			c15.8-15.5,37.1,14.3,61.4,36.5c26.6,24.5,84.2,34.8,84.5-21.6C267.3,389.1,255.9,388,256.5,395.6z M195.1,224.3
			c6.1-33.6,15.8-54.4,25.7-54.4c2,0,4.1,0.9,6.4,2.9c9.6,8.8,4.4,76.6-35.4,83.9C192.2,246.2,193.4,235.1,195.1,224.3z"/>
		<path d="M235.5,249.4c0,7.9,6.4,14.3,14.3,14.3c8.2,0,14.6-6.4,14.6-14.3c0-7.9-6.4-14.3-14.6-14.3
			C241.9,235.1,235.5,241.6,235.5,249.4z"/>
		<path d="M559.9,263.8c8.2,0,14.6-6.4,14.6-14.3c0-7.9-6.4-14.3-14.6-14.3c-7.9,0-14.3,6.4-14.3,14.3
			C545.6,257.3,552,263.8,559.9,263.8z"/>
		<path d="M724.4,298.5c0,0-18.1,82.4-32.1,85c-17.2,3.2-9.6-93.5-9.6-93.5c38-29.2,67.5-130.9,25.4-127.4
			c-29.8-0.3-49.4,52.3-55.5,108.4c-4.4-5.6-11.1-9.4-22.2-7.9c-19.9,2.8-29.5,27.6-30.6,51.4c-6.3,19.8-18.7,53.7-28.8,55.6
			c-17.2,3.2-1.8-80.4-1.8-80.4c2-14-5.6-21-13.7-21c-7,0-14.9,5.8-16.7,17.8c-2.1,13.2-3.4,25.4-3.9,36.4
			c-6,21.7-15.9,51.6-25,53.3c-17.2,3.2-2.9-96.4-2.6-98.5c2-13.7-5.6-21-13.7-20.7c-5.6,0-11.7,3.5-14.9,11.1
			c-10.8,18.4-23.7,90-35.1,95c-12,5-9.6-64-7.6-74.5c3.2-15.5-21-19.3-27.2-4.1c-3,9-4.6,20.3-4.8,31.8
			c-4.5,16.9-15,43.1-38.5,53.5c3.5-49.4,10.2-103.8,10.5-105.2c2-14-5.6-21-13.7-21c-7.3,0.3-14.9,6.1-16.7,17.8
			c-1.2,6.1-2,12.6-2.9,19c-5-10.8-13.7-19.9-26.6-18.4c-21.1,2.3-30.2,34.3-29.9,63c-6.8,19.4-16.8,43.6-25.3,45.2
			c-17.2,3.2-1.8-80.4-1.8-80.4c2-14-5.6-21-13.7-21c-7,0-14.9,5.8-16.7,17.8c-9.9,61.7-2.9,101.7,26.3,101.7
			c13.8,0,25.5-18.1,34-38.5c2,8,5,14.5,8.9,18.1c13.7,12.3,29.8-6.1,38.9-24.3c-0.6,10.8-0.9,21.3-0.9,31.9c-8.2,2-6.7,7.3,0,9.9
			c1.2,45.3,9.6,80.7,31.6,80.4c19.3-0.3,27.5-58.4-0.9-85c19.6-7.1,31.6-23.9,39-40.4c3,17.9,9.9,33,20.9,36.6
			c24,7.9,33.3-16.7,46.2-62c-1.5,44.4,8.5,79.5,31,79.5c13.4,0,24.4-18.7,32.4-40c3.4,21.5,12.8,33.9,29,33.9
			c15.8,0,28.8-23.5,37.4-47.2c2,6.7,4.9,12.2,8.7,15.4c13.4,11.1,30.7-6.1,40.3-23.1c3.5,38.3,14.9,68.1,36.2,68.1
			c26,0,42.4-78,44.7-101.1C732.3,295,725,293.9,724.4,298.5z M716,186c10.5-3.2-10.8,68.7-32.7,91.8C686.4,247.7,704,186.3,716,186
			z M339.2,312c-3.5,11.1-9.4,28.6-17.5,32.4c-9.4,2-4.7-59.9,3.2-65.8c9.1-4.4,14.6,22.2,15.2,24.8
			C339.8,306.4,339.5,309.1,339.2,312z M371.1,443.2c-6.4,0.6-7.6-21.3-6.7-50C376.3,409.9,376.6,442.6,371.1,443.2z M634.7,334.8
			c-9.1,1.8-3.2-49.4,3.8-49.1c6.1,0,9.1,12.3,10.2,19.9C649.6,306.1,637.3,334.2,634.7,334.8z"/>
	</g>
	<g>
		<path d="M153.6,569.6c-5.3,0-10.4-1-15.3-3.1c-5-2.1-9.2-5.2-12.7-9.3c-6.1-7.4-9.2-18.7-9.2-34c0-15.3,3.1-26.7,9.2-34
			c3.4-4.1,7.6-7.3,12.6-9.3c5-2.1,10.1-3.1,15.3-3.1c9,0,17.1,2.3,24.3,6.8c2,1.2,2.9,2.9,2.9,5c0,1.1-0.3,2.1-0.8,3l-3.9,6.6
			c-1.2,2-3,3.1-5.1,3.1c-1.2,0-2.4-0.4-3.4-1.1c-3.9-2.6-8.6-3.9-14.1-3.9c-5.4,0-9.6,2.1-12.5,6.3c-2.6,3.7-3.9,10.7-3.9,20.8
			c0,10,1.3,16.9,3.9,20.6c3,4.2,7.2,6.3,12.6,6.3c5.5,0,10.1-1.3,13.9-3.9c1-0.7,2.2-1.1,3.5-1.1c2.2,0,3.9,1,5.1,3.1l3.9,6.5
			c0.6,1,0.8,2,0.8,3c0,2.1-1,3.8-2.9,5C170.9,567.3,162.8,569.6,153.6,569.6z"/>
		<path d="M218.9,569.6c-5.3,0-10.4-1-15.4-3.1c-4.9-2.1-9.2-5.2-12.6-9.4c-6.1-7.3-9.2-18.7-9.2-34c0-15.3,3.1-26.6,9.2-34
			c3.4-4.1,7.6-7.3,12.6-9.3c5-2.1,10.1-3.1,15.3-3.1s10.4,1,15.3,3.1c5,2.1,9.2,5.2,12.6,9.3c6.1,7.4,9.2,18.7,9.2,34
			c0,15.3-3.1,26.7-9.2,34c-3.5,4.1-7.7,7.3-12.7,9.3C229.2,568.6,224.1,569.6,218.9,569.6z M218.9,550.2c5.5,0,9.7-2.1,12.6-6.3
			c2.6-3.7,3.9-10.6,3.9-20.7c0-10-1.3-16.9-3.9-20.7c-3-4.2-7.2-6.3-12.6-6.3c-5.5,0-9.7,2.1-12.6,6.3c-2.6,3.7-3.9,10.6-3.9,20.6
			c0,10.1,1.3,17,3.9,20.7C209.2,548.1,213.4,550.2,218.9,550.2z"/>
		<path d="M297,569.6c-4.4,0-8.7-0.9-12.9-2.6c-4.2-1.7-7.7-4.4-10.6-7.9c-5.1-6.2-7.7-13.8-7.7-22.8v-52.5c0-1.6,0.6-3,1.8-4.2
			c1.2-1.2,2.6-1.8,4.2-1.8h8.6c1.6,0,3,0.6,4.2,1.8c1.2,1.2,1.8,2.6,1.8,4.2v52.5c0,3.8,0.9,7,2.7,9.5c1.9,2.7,4.5,4.1,7.9,4.1
			c3.4,0,6.1-1.4,8-4.1c1.8-2.5,2.6-5.7,2.6-9.5v-52.5c0-1.7,0.6-3.1,1.8-4.2c1.2-1.2,2.6-1.7,4.2-1.7h8.6c1.6,0,2.9,0.6,4.2,1.8
			c1.2,1.2,1.8,2.6,1.8,4.2v52.5c0,9-2.6,16.6-7.7,22.8c-2.9,3.5-6.5,6.1-10.6,7.9C305.8,568.7,301.5,569.6,297,569.6z"/>
		<path d="M394.8,568.5H385c-2.4,0-4.1-1.1-5.2-3.4c-1.4-2.8-5.7-11.9-12.9-27.5c-0.6-1.2-1.2-1.8-2-1.8h-1.6
			c-0.4,0-0.6,0.1-0.9,0.4c-0.2,0.2-0.3,0.5-0.3,0.8v25.5c0,1.6-0.6,3-1.8,4.2c-1.2,1.2-2.6,1.8-4.2,1.8h-8.6c-1.6,0-3-0.6-4.2-1.8
			c-1.2-1.2-1.8-2.6-1.8-4.2v-78.7c0-1.6,0.6-3,1.8-4.2c1.2-1.2,2.6-1.8,4.2-1.8h25.8c6.1,0,11.6,1.6,16.3,4.7
			c3.3,2.2,5.8,5,7.7,8.4s2.8,8.7,2.8,15.9c0,7.2-0.9,12.5-2.8,15.9c-1.4,2.6-3.3,4.9-5.5,6.8c-0.7,0.6-1.4,1-2,1.4
			c-0.6,0.4-1.1,0.7-1.6,1c-0.7,0.4-1.1,1-1.1,1.6c0,0.5,0.2,1.2,0.7,2c8.1,16.6,12.2,25.7,12.2,27.3
			C400.1,566.6,398.4,568.5,394.8,568.5z M373.3,516.1c4.1,0,6.2-3.1,6.2-9.3c0-6.2-2.1-9.3-6.2-9.3h-9.9c-0.4,0-0.6,0.1-0.9,0.4
			c-0.2,0.2-0.3,0.5-0.3,0.8v16.3c0,0.3,0.1,0.6,0.3,0.8c0.2,0.2,0.5,0.4,0.9,0.4H373.3z"/>
		<path d="M469.4,568.5H461c-2.9,0-4.7-1.6-5.5-4.7l-4.8-18.7c-0.2-0.6-0.6-0.9-1.1-0.9H430c-0.6,0-0.9,0.3-1,0.9l-4.7,18.7
			c-0.8,3.1-2.6,4.7-5.4,4.7h-9.2c-3.7,0-5.6-1.8-5.6-5.3c0-1.4,0.2-2.8,0.5-4.2l19-76.5c0.8-3.1,2.6-4.6,5.4-4.6h21.3
			c2.8,0,4.6,1.5,5.4,4.6l19,76.5c0.3,1.4,0.5,2.9,0.5,4.2C475,566.7,473.1,568.5,469.4,568.5z M444.2,524.6c0.8,0,1.2-0.4,1.2-1.2
			c0-0.6-1.5-6.9-4.6-18.9c-0.2-0.9-0.6-1.3-1.2-1.3s-1,0.4-1.2,1.3c-2.9,11.9-4.3,18.2-4.3,18.9c0,0.8,0.4,1.2,1.2,1.2H444.2z"/>
		<path d="M514.6,569.6c-5.3,0-10.4-1-15.4-3.1c-4.9-2.1-9.2-5.2-12.6-9.4c-6.1-7.3-9.2-18.6-9.2-33.9c0-15.3,3.1-26.7,9.2-34
			c3.5-4.1,7.7-7.3,12.6-9.3c4.9-2.1,10.1-3.1,15.4-3.1c9,0,17.1,2.3,24.3,6.8c1.9,1.2,2.9,2.9,2.9,5c0,1.1-0.3,2.1-0.8,3l-4,6.6
			c-1.2,2-3,3-5.1,3c-1.3,0-2.4-0.4-3.5-1.1c-3.8-2.6-8.5-3.9-13.9-3.9c-5.4,0-9.6,2.1-12.5,6.3c-2.6,3.7-3.9,10.6-3.9,20.7
			c0,10,1.3,16.9,3.9,20.6c3,4.2,7.2,6.3,12.6,6.3c3.5,0,7-0.7,10.6-2.2c0.5-0.2,0.7-0.5,0.7-1v-13.1c0-0.3-0.1-0.6-0.4-0.8
			c-0.2-0.2-0.5-0.4-0.8-0.4h-6.9c-1.6,0-3-0.6-4.2-1.8c-1.2-1.2-1.8-2.6-1.8-4.2v-7.7c0-1.6,0.6-3.1,1.8-4.2
			c1.2-1.2,2.6-1.8,4.2-1.8h21.7c1.6,0,3,0.6,4.2,1.8c1.2,1.2,1.8,2.6,1.8,4.2v35.8c0,1.7-0.6,3.1-1.9,4.2c-4,3.7-8.5,6.4-13.6,8
			C525,568.8,519.8,569.6,514.6,569.6z"/>
		<path d="M603.5,568.5h-41.2c-1.6,0-3-0.6-4.2-1.8c-1.2-1.2-1.8-2.6-1.8-4.2v-78.7c0-1.6,0.6-3,1.8-4.2c1.2-1.2,2.6-1.8,4.2-1.8
			h41.2c1.6,0,3,0.6,4.2,1.8c1.2,1.2,1.8,2.6,1.8,4.2v7.7c0,1.6-0.6,3-1.8,4.2c-1.2,1.2-2.6,1.8-4.2,1.8h-25.4
			c-0.3,0-0.6,0.1-0.8,0.4c-0.2,0.2-0.4,0.5-0.4,0.8v13.2c0,0.3,0.1,0.6,0.4,0.8s0.5,0.4,0.8,0.4h22.5c1.7,0,3.1,0.6,4.3,1.8
			c1.2,1.2,1.8,2.6,1.8,4.2v7.7c0,1.6-0.6,2.9-1.8,4.2c-1.2,1.2-2.6,1.8-4.3,1.8h-22.5c-0.3,0-0.6,0.1-0.8,0.4
			c-0.2,0.2-0.4,0.5-0.4,0.8v13.7c0,0.3,0.1,0.6,0.4,0.8c0.2,0.2,0.5,0.4,0.8,0.4h25.4c1.6,0,3,0.6,4.2,1.8c1.2,1.2,1.8,2.6,1.8,4.2
			v7.7c0,1.6-0.6,3-1.8,4.2C606.5,567.9,605.1,568.5,603.5,568.5z"/>
	</g>
	<g>
		<path d="M255.4,656.9c5.2,0,9.3-4.1,9.3-9.1c0-5-4.1-9.1-9.3-9.1c-5,0-9.1,4.1-9.1,9.1C246.2,652.8,250.3,656.9,255.4,656.9z"/>
		<path d="M726,678.3c-2,24.9-12.7,52.9-18.8,51.8c-7.8-1.7-2.8-37.2-2.4-42.8c1.1-15.5-15.5-11-23.8-14c-0.4-9.5-2.4-22.5-9.9-22.5
			c-11.5,0.2-12.7,24.9-1.5,30.3c1.5,0.7,2.8,1.3,4.1,1.7c-3,20.6-15.6,48.9-24.2,44.8c-9.3-4.5-11.9-19.7-10.8-38.7
			c10.8,0.6,21.2-10.8,18.2-24.4c-2-9.3-9.5-12.7-16.4-12.7c-2,0.2-3.9,0.4-5.8,0.9c-10.5,3.2-16.9,21-17,39.4
			c-2.7,4.6-6.8,7.9-11.7,10.3c-5.6-12.5-17.1-23.3-24.9-31.5c0.7-4.8,1.7-14.9-4.7-18.4c-2.4-1.5-16-4.8-21,7.3
			c-2,5-2.2,12.7,3.9,19.7c0.4,0.3,0.7,0.7,1,1c-0.9,3.3-12.2,42.5-20.8,44.1c-8.4,1.7-4.8-28.1-2.6-43c3-14.3,1.9-28.1-14.1-30.3
			c-6.3-0.7-13,4.3-17.5,16.4c-2.6,6.7-10.4,30.2-14.7,43.2c-0.2-11.2,2-33.7,2-33.9c1.3-16-17.3-17.1-19.5-1.3
			c-0.5,4.3-0.7,9.3-0.7,14.4c-4.5,19.4-15.2,41.2-22.8,37.5c-9.3-4.5-11.9-19.7-10.8-38.7c10.8,0.6,21.2-10.8,18.2-24.4
			c-2-9.3-9.5-12.7-16.4-12.7c-2,0.2-3.9,0.4-5.8,0.9c-10.8,3.3-17.3,22.1-17,41.1c-3.3,4.8-9.3,9.7-20.2,11.6
			c8-16.4,10.2-43.8-11.7-43.6c-10.8,0.4-18.6,15.6-23.5,32.4c0.9-22.7,1.9-40.6,1.9-40.6c0.6-8.9-4.7-13.4-9.7-13.4
			c-4.7,0.2-9.1,3.9-9.9,11.5c-0.5,6-1.7,19.6-2.4,36.6c-2.4,6.7-7.3,11.1-13.5,14c-5.6-12.5-17.1-23.3-24.9-31.5
			c0.7-4.8,1.7-14.9-4.7-18.4c-2.4-1.5-16-4.8-21,7.3c-2,5-2.2,12.7,3.9,19.7c0.4,0.3,0.7,0.7,1,1c-0.9,3.3-12.2,42.5-21,44.1
			c-11,2-1.1-51.2-1.1-51.2c1.3-8.9-3.5-13.4-8.8-13.4c-4.5,0-9.5,3.7-10.6,11.4c-0.9,5.8-1.6,11.3-2.1,16.5
			c-4.6,14.8-18.7,26.9-26.8,29.3c-3.5,1.1-7.3,1.5-11,1.7c25.1-44.1,30.7-113.9-2.8-121.8c-43.2-10.2-54.6,63.3-56.6,96.4
			c-4.5-10.8-6.1-60.5-0.2-88.4c2.4-10.6-9.9-13.8-12.5-13.4c-6.3-0.2-15.5,8.9-15.5,48c0,23.5,3.9,60.3,16.4,80.2
			c-11.4,12.1-5.8,34.4,23.5,34.8c16.8,0.4,31.8-11.5,43.4-29c5.6,0.2,10.8,0,15.8-1.5c9.7-2.8,19-10.1,25.6-20.2
			c0.5,20.2,6.7,32.2,19.4,32.2c15,0,26-33.3,29.9-50.6c8,7.9,14.9,15.3,19.6,24c-6.7,1.7-13,3.5-16.9,6.9
			c-19.5,16-3.4,39.7,16,36.9c25.7-3.7,31.7-29.2,24.2-44.5c4-2.1,7.6-4.8,10.6-8.3c-0.6,24.6,0.1,53.8,4.6,78.1
			c2.4,13,15.3,15.8,14.7-2.2c-0.7-11.9-0.6-31.1,0-50.5c2.2,1.7,5.2,2.6,8,2.6c11.2,0,21.2-6.3,25.9-16.4c7.8-1.2,16.8-4,23.3-9.6
			c1.7,13.3,6.9,25.6,16.4,31.6c4.8,3,13,4.8,18.8,2.6c7.5-3,14.7-12.8,19.9-26.5c0.6,5.4,1.2,10.2,1.9,13.7c1.5,4.1,6,5.6,9.7,4.3
			c3.5-0.2,7.6-2,10.2-10.1c5.2-15.3,16.9-56.4,22.5-56.8c1.1,0,2.2,1.1,0.4,13.4c-5.4,37.4-0.7,61.4,17.3,61.4
			c15,0,26-33.3,29.9-50.6c8,7.9,14.9,15.3,19.6,24c-6.7,1.7-13,3.5-16.9,6.9c-19.5,16-3.4,39.7,16,36.9
			c25.7-3.7,31.7-29.2,24.2-44.5c3.6-1.9,6.9-4.2,9.7-7.2c1.5,13.6,6.7,26.4,16.5,32.5c4.8,3,13,4.8,18.8,2.6
			c11.7-4.6,22.6-25.8,26.4-52.3c4,0.6,5.7,0.4,5.5,3.4c-0.9,15.8-4.5,51.9,18.2,51.9c20.8,0,26.4-52.3,27.6-60.9
			C731.8,674.2,726,674.9,726,678.3z M642.1,666.6c0.6-0.6,1.1-0.7,1.7-0.7c3.9,0,7.3,10.6-4.5,13.2
			C640,672.5,641.1,667.7,642.1,666.6z M442.3,666.6c0.6-0.6,1.1-0.7,1.7-0.7c3.9,0,7.3,10.6-4.5,13.2
			C440.2,672.5,441.4,667.7,442.3,666.6z M154.3,745.5c-17.5,1.7-25.5-12.5-17.7-19.9l3.5,2.4c4.1,1.9,9.7-0.9,8.6-5.4l-0.7-3.4
			c1.9-0.4,3.5-0.4,5.8-0.4c5.2-0.2,16.2,2.4,23.6,4.1C171.8,735.4,161.2,744.8,154.3,745.5z M180.1,716.5c-9.3-2-22-5.6-32.6-4.7
			c2.8-38.4,12.7-103,39.1-103C201,611.8,197.6,679,180.1,716.5z M306,746.6c-14,3.2-22-16.9-10.4-24.9c3.5-2.6,9.3-4.1,16-5.8
			C318.3,730.6,318.7,743.6,306,746.6z M366.3,719.8c-3.4,0.6-2.4-4.5,1.7-6.1c2.6-0.9,6.5-1.3,6.5-1.3
			C372.1,715.7,369.7,718.9,366.3,719.8z M377.9,705.8c-3.4,0-8.7,1.3-12.8,3.4c5-15.6,14-36.7,18.8-36.3h0.4
			C389.8,674.6,382.9,700.8,377.9,705.8z M583.1,746.6c-14,3.2-22-16.9-10.4-24.9c3.5-2.6,9.3-4.1,16-5.8
			C595.3,730.6,595.7,743.6,583.1,746.6z M670.2,658.2c3.5,0,4.3,12.7,4.3,14.1C665.2,672.7,668,658.2,670.2,658.2z"/>
	</g>
	<g>
		<path d="M645.8,465.8c12.4-3.1,24.4-7.2,36.3-12c11.2-4.6,24-8.6,33.5-16.4c2.7-2.2,0.5-5.8-2.5-5.7c-12.3,0.6-24.1,7.6-35,13
			c-11.2,5.5-22.3,10.8-34,15.2C640.7,461.1,642.3,466.6,645.8,465.8z"/>
		<path d="M748.8,517.1c-32.8-11.4-67.5-9.8-101.3-7.4c-3.4,0.2-3.3,5.9,0.2,6c33.3,1.4,67,11.2,100.5,7.4
			C751.2,522.8,751.7,518.1,748.8,517.1z"/>
		<path d="M636.9,563.6c-3.4-1.7-6.4,3.8-3.2,5.8c18.9,11.8,37.7,34.3,61.1,36.3c2.8,0.2,5.4-3.4,3.1-5.7
			C682.2,583.5,656.9,573.7,636.9,563.6z"/>
		<path d="M655.4,487.3c-3,0.8-3.1,5,0.1,5.5c5.8,1,11.9,1,17.7,1.6c4.7,0.5,6.9-7.1,2.1-8.4C668.8,484.4,661.8,485.7,655.4,487.3z"
			/>
		<path d="M660.2,557.6c3.7,1.7,5.9-3.4,3.2-5.8c-4.1-3.7-10.3-4.6-15.6-5c-4-0.3-4.6,5.5-0.7,6.2
			C651.9,553.7,655.8,555.6,660.2,557.6z"/>
		<path d="M631.2,598.6c-0.3-0.5-0.7-0.9-1.1-1.4c-0.6-0.7-1-1.4-1.4-2.2c-1.6-3.8-7.3-1.2-5.8,2.6c0.6,1.4,1.4,2.8,2.5,4
			c0.6,0.7,1.4,1.3,2.3,1.7c0.5,0.2,1,0.3,1.6,0.2c0.8-0.3,1-0.3,0.5-0.1c1.3-0.2,2.1-1.4,1.9-2.7c0.1,0.4,0.1,0.2,0-0.6
			C631.7,599.4,631.5,599,631.2,598.6z"/>
	</g>
</g>
</svg>


