<?xml version="1.0" encoding="utf-8"?>
<!-- Generator: Adobe Illustrator 18.0.0, SVG Export Plug-In . SVG Version: 6.00 Build 0)  -->
<!DOCTYPE svg PUBLIC "-//W3C//DTD SVG 1.1//EN" "http://www.w3.org/Graphics/SVG/1.1/DTD/svg11.dtd">
<svg version="1.1" xmlns="http://www.w3.org/2000/svg" xmlns:xlink="http://www.w3.org/1999/xlink" x="0px" y="0px"
	 viewBox="0 0 864 864" enable-background="new 0 0 864 864" xml:space="preserve" width="500" height="500">
<g>
	<path d="M672.5,393.8c1.1-0.9,1.5-2.4,1-3.7l-2.6-7c-0.1-0.4,0-0.8,0.3-1c0.3-0.2,0.7-0.2,1.1,0l6.1,4.3
		c1.2,0.8,2.7,0.8,3.8-0.1l5.8-4.5c0.3-0.2,0.7-0.2,1,0c0.3,0.2,0.5,0.6,0.4,0.9l-2.1,9.4c-0.1,0.3,0.1,0.7,0.3,0.9l7.8,5.8
		c0.3,0.2,0.4,0.6,0.3,1c-0.1,0.4-0.5,0.6-0.8,0.6h-8.9c-0.4,0-0.8,0.3-0.9,0.7l-2.2,8.6c-0.1,0.4-0.4,0.6-0.8,0.7
		c-0.4,0-0.7-0.2-0.9-0.6l-3.6-9c-0.1-0.3-0.4-0.5-0.8-0.6l-9.6-0.3c-0.4,0-0.7-0.3-0.8-0.6c-0.1-0.4,0-0.8,0.3-1L672.5,393.8z"/>
	<path d="M177.2,425.6c1.1-0.9,1.5-2.4,1-3.7l-2.6-7c-0.1-0.4,0-0.8,0.3-1s0.7-0.2,1.1,0l6.1,4.3
		c1.2,0.8,2.7,0.8,3.8-0.1l5.8-4.5c0.3-0.2,0.7-0.2,1,0c0.3,0.2,0.5,0.6,0.4,0.9l-2.1,9.4c-0.1,0.3,0.1,0.7,0.3,0.9l7.8,5.8
		c0.3,0.2,0.4,0.6,0.3,1c-0.1,0.4-0.5,0.6-0.8,0.6h-8.9c-0.4,0-0.8,0.3-0.9,0.7l-2.2,8.6c-0.1,0.4-0.4,0.6-0.8,0.7
		c-0.4,0-0.7-0.2-0.9-0.6l-3.6-9c-0.1-0.3-0.4-0.5-0.8-0.6l-9.6-0.3c-0.4,0-0.7-0.3-0.8-0.6c-0.1-0.4,0-0.8,0.3-1L177.2,425.6z"/>
	<g>
		<path d="M711.4,346.7c3.5,3.8,5.3,2.3,7.9-1.7c3.3-5.3,6.2-10.7,8.7-16.4c3.8-8.9,6.7-19.1,2.6-27.8c-1.1-2.2-2.9-4.4-5.3-4.3
			c-0.9,0.1-1.8,0.4-2.6,0.9c-3.6,2.1-5.6,6.2-7.1,10.1c-2.3,5.9-3.8,12.2-5.2,18.4c-1.2-4.7-2.9-9.2-5-13.4
			c-1.2-2.5-2.8-5.1-5.4-5.7c-2.8-0.7-5.8,1.4-6.9,4c-1.1,2.6-0.9,5.7-0.2,8.5C695.6,329.5,704.2,339,711.4,346.7z"/>
	</g>
	<g>
		<path d="M712.9,471.9c2.9,3.1,4.4,1.9,6.5-1.4c2.7-4.3,5.1-8.8,7.2-13.6c3.2-7.3,5.5-15.8,2.1-23c-0.9-1.8-2.4-3.6-4.3-3.5
			c-0.7,0.1-1.5,0.3-2.1,0.7c-3,1.7-4.6,5.1-5.9,8.3c-1.9,4.9-3.1,10-4.3,15.2c-1-3.8-2.4-7.5-4.1-11.1c-1-2-2.3-4.2-4.5-4.7
			c-2.3-0.6-4.8,1.1-5.7,3.3c-0.9,2.2-0.7,4.7-0.1,7C699.8,457.6,706.9,465.5,712.9,471.9z"/>
	</g>
	<g>
		<path d="M152,380.8c-3.5,3.8-5.3,2.3-7.9-1.7c-3.3-5.3-6.2-10.7-8.7-16.4c-3.8-8.9-6.7-19.1-2.6-27.8c1.1-2.2,2.9-4.4,5.3-4.3
			c0.9,0.1,1.8,0.4,2.6,0.9c3.6,2.1,5.6,6.2,7.1,10.1c2.3,5.9,3.8,12.2,5.2,18.4c1.2-4.7,2.9-9.2,5-13.4c1.2-2.5,2.8-5.1,5.4-5.7
			c2.8-0.7,5.8,1.4,6.9,4c1.1,2.6,0.9,5.7,0.2,8.5C167.8,363.5,159.2,373,152,380.8z"/>
	</g>
	<g>
		<path d="M150.6,505.9c-2.9,3.1-4.4,1.9-6.5-1.4c-2.7-4.3-5.1-8.8-7.2-13.6c-3.2-7.3-5.5-15.8-2.1-23c0.9-1.8,2.4-3.6,4.3-3.5
			c0.7,0.1,1.5,0.3,2.1,0.7c3,1.7,4.6,5.1,5.9,8.3c1.9,4.9,3.1,10,4.3,15.2c1-3.8,2.4-7.5,4.1-11.1c1-2,2.3-4.2,4.5-4.7
			c2.3-0.6,4.8,1.1,5.7,3.3s0.7,4.7,0.1,7C163.7,491.7,156.5,499.5,150.6,505.9z"/>
	</g>
	<g>
		<g>
			<path d="M148.9,258.8c0,2.1,0.7,6,2,11.8c1.4,5.8,2.4,9.4,3.2,10.7c0.8,1.3,1.6,2.7,2.5,4c1.1,1.7,1.8,3.2,2,4.6
				c0.2,1.7,0.3,3.3,0.3,4.6c0,3.7-1.2,6.1-3.5,7c-1.9,0.7-5.5,0.3-10.2-0.5c-2.1-0.4-7.2-1.5-14.8-3.9c-2.9-0.9-5.9-2.5-9-4.8
				c-2.7-1.9-4.5-3.9-5.4-6c-0.8-1.5-1.2-3.2-1.2-4.9c0-0.3,0-0.6,0-0.9s0-0.7,0-1.2c0-1,0.5-1.8,1.4-2.6c0.8-0.6,1.6-1.2,2.5-1.9
				c2.2-8,3.7-15.8,4.7-23.1c0.8-5.9,1.4-11.4,1.6-16.4c0.4-7.3-0.5-12.1-3-14.4c-0.7-0.4-1.8-1-2.7-1.9c-0.9-0.8-1.3-2.3-1.3-3.9
				c0-3.1,1.9-5.3,5.7-6.8c3.1-1.3,7-1.9,11.6-1.8c8,0.2,13.1,1.5,15.4,4c3.4,2.7,6.5,9.1,9.3,19.3c3,11,6.1,18.6,9,22.3
				c0.7,0.9,1.5,1.2,2.4,0.9c0.9-1.2,1.3-3.1,1.3-5.7c0-1-0.1-2.5-0.3-4.5c0-0.2,0-0.4,0-0.7c0-0.1-0.1-0.2-0.1-0.3
				c-0.2-2.1-0.5-4.4-0.8-6.8c-1.2-5-3.3-9-6-11.8c-0.7-0.5-1.6-1.2-2.7-2.1c-0.8-1.1-1.2-2.6-1.2-4.5c0-3.6,1.9-6.2,5.7-7.9
				c3.1-1.5,7-2.2,11.6-2.1c6.4,0.1,11,1.1,13.7,3c2.2,1.5,3.3,3.8,3.3,6.9c0,1.9-0.3,3.2-1,4c-0.7,0.8-1.4,1.6-2.1,2.3
				c-0.7,0.7-1.3,1.7-1.8,3c-0.9,1.9-1.8,3.8-2.6,5.8c-1.3,3.3-2,7.1-2,11.2c0-0.2,0,0.4,0,1.8c0.1,5,1.3,12.6,3.4,22.9
				c2,9.8,3,17.4,3,22.7c0,7-0.5,11.8-1.4,14.3c-1.5,4-4.7,5.6-9.5,4.7c-5.3-1-10.2-6.1-14.5-15.1c-1.1-2.4-4.1-10.6-9-24.2
				c-3.1-8.6-5.9-12.9-8.3-13.3C149.3,256.8,148.9,257.4,148.9,258.8z"/>
			<path d="M267.4,277.8c0,12-3.5,21.9-10.4,29.6c-6.6,7.3-14.5,10.6-23.8,10c-10.4-0.7-18.7-6.8-25-17.7c-5.6-9.9-8.4-21.5-8.4-35
				c0-14.9,2.9-27.8,8.6-39c6.6-13,15.5-19.9,26.7-19.9c10.8,0,19.2,8.5,25.1,25.2C264.9,244.6,267.4,260.3,267.4,277.8z
				 M243.4,258.5c0-6.3-1.1-13.3-3.2-21.1c-2.6-9.7-5.9-14.6-9.8-14.7c-2.3,0-4,2.2-5.3,6.5c-1,3.3-1.4,6.9-1.4,10.7
				c0,6.5,0.8,12.5,2.4,18.2c2.2,7.6,5.4,11.5,9.7,11.6C240.8,270,243.4,266.2,243.4,258.5z"/>
			<path d="M311.6,251.2c0.7,8.5,1.8,16.7,3,24.5c1.4,8.9,2.5,14.1,3.4,15.7c0.9,1.3,2,2.6,3,4c1.1,1.4,1.6,2.9,1.6,4.3
				c0,7.5-1.5,12.1-4.6,14c-2.3,1.5-8.6,2.5-18.8,2.9c-8.1,0.3-13.5-0.7-16.3-2.7c-2.7-2.1-4.1-6.1-4.1-12.1c0-1.4,0.7-3,2.1-4.7
				c1.7-2.1,2.6-3.4,2.9-4.1c1.1-2.7,2.4-9.6,3.8-20.7c1.4-10.6,2.4-20.3,3-28.9c0.1-2.2,0.3-7.5,0.4-15.9c-0.7-0.4-1-0.5-1.6-0.9
				c-1,0-1.8,1.2-2.5,3.6c-1,3.4-1.9,5.7-2.7,6.8c-1.7,2.4-4.1,3.6-7.4,3.6c-2.7,0-4.5-1.2-5.3-3.6c-0.5-1.5-0.8-4.3-0.8-8.6
				c0-4.4,1-9.1,3-13.9c2.2-5.7,4.7-8.5,7.6-8.5c1,0,2.6,0.3,4.6,1c2,0.7,3.6,1,4.6,1c12.3,0,20.5-0.2,24.7-0.5
				c0.4-0.1,0.9-0.4,1.5-0.8c0.7-0.5,1.2-0.7,1.8-0.7c3.1,0,5.7,2.8,7.9,8.1c1.9,4.6,2.9,9.1,2.9,13.6c0,8.2-2.3,12.5-7,12.6
				c-2.6,0-4.8-2.2-6.5-6.9c-1.7-4.6-3.4-7-5-7c-0.4,0.2-0.7,0.4-1.1,0.6c0.2,3.2,0.7,9.5,1.5,18.6
				C311.3,248,311.4,249.1,311.6,251.2z"/>
			<path d="M448.3,259.8c0,3.8,0.5,6.3,1.5,7.4c1,0.8,1.9,1.6,3,2.5c1,0.9,1.5,1.9,1.5,3c0,4.6-0.8,7.9-2.5,9.8
				c-1.7,1.9-5.1,3.7-10.2,5.3c-1.2,0.6-2.7,1.1-4.6,1.6c-7.6,1.9-12.4,3-14.4,3.1c-2.5,0.2-4.2-0.3-5-1.5c-1.9-1.7-2.9-4.7-2.9-9.3
				c0-1.8,0.8-3.4,2.4-5c1.1-1.1,2.2-2.2,3.4-3.3c0.1-0.3,0.2-0.6,0.2-1.2c0-1.1-0.3-2.9-1-5.7c-1-4.3-1.5-6.9-1.8-7.8
				c-0.7-4.1-1.1-6.2-1.2-6.4c-0.9-3-2.1-4.3-3.6-4.1c-1.8,0.3-3.6,4.4-5.4,12.6c-1.7,7.6-2.5,12.1-2.5,13.2c0,1,0.1,1.7,0.4,2.2
				c0.9,0.9,1.9,1.9,3,2.9c1,1,1.5,2.2,1.5,3.4c0,5.9-1.2,9.9-3.6,12.1c-2.1,1.9-7.6,3.6-14.8,5.9c-1.2,0.4-3.8,1.2-7.8,2.1
				c-3.1,0.7-5.3,1-6.8,0.8c-4.1,0.4-6.9-0.3-8.4-2c-1.5-1.5-2.2-4.4-2.2-8.7c0-1.3,0.7-2.8,2.1-4.6c1.6-2.2,2.6-3.6,2.9-4.2
				c0.8-1.9,1.4-4.6,1.8-8.1c0-0.3,0-0.5,0-0.8c0.1-10.9-0.5-21.1-1.8-30.4c-1.4-10.6-3.3-17.5-5.8-20.4c-0.9-0.8-1.9-1.5-2.9-2.2
				c-1-0.7-1.5-2.3-1.5-4.6c0-3.9,2.1-6.8,6.3-8.7c2.9-1.3,6.3-1.9,10.3-1.9c11.9,0,17.9,2.8,17.9,8.6c0,1.9-0.5,3.3-1.4,4.3
				c-1.7,1.6-2.6,2.5-2.7,2.9c-0.2,0.7-0.3,1.3-0.3,2c0,0.9,0.6,3.1,1.8,6.6c2.3,6.8,4.1,9.9,5.4,9.8c1.5-0.2,3.1-1.5,4.8-3.9
				s2.6-4.5,2.6-6.3c0.1-3.1-0.4-5.6-1.5-7.7c-0.5-0.8-1.7-2-3.5-3.8c-1.3-1.3-2-2.6-2.1-3.9c-0.2-6,4.7-9,14.8-9
				c4,0,6.9,0.3,8.8,0.9c3.2,1,4.8,3.1,4.8,6.2c0,1.3-0.8,2.8-2.3,4.3c-1.5,1.5-2.3,2.7-2.3,3.4c0,1.4,0.5,3.3,1.5,5.7
				c1,2.4,1.9,4.1,2.8,5c0.6,0.8,1.2,1.5,1.9,2.2c0.7,0.7,1.5,1,2.4,0.9c0.4,0,1.6-2,3.6-5.8c2-3.8,3.1-6,3.1-6.8
				c0-1.3-0.9-2.3-2.7-2.9c-1.8-0.7-2.7-2.1-2.7-4.3c0-2.9,1.8-5.2,5.4-6.7c2.6-1.2,5.6-1.7,9-1.7c10,0,15,2.2,15,6.8
				c0,1.3-0.3,2.2-0.9,2.7c-0.9,0.4-1.8,0.9-2.6,1.4c-1.6,0.9-3.1,2.9-4.4,6.2c-1,2.6-1.7,5.1-2,7.5
				C450.4,242.5,449.7,248.2,448.3,259.8z"/>
			<path d="M542.2,256.6c-0.3,3.2-3.4,5.7-9.2,8.2c-3.8,1.7-8.4,3.2-13.9,4.4c-5.5,1.2-9.4,1.7-11.9,1.4c-4-0.4-6-2.5-6-6.2
				c0-1.4,0.3-3,0.8-4.9c3.3-3.4,4.9-7.7,4.9-13.1c0-1.9-1.6-3-4.8-3.6c-2.4-0.4-5-0.4-7.9,0c-1.2,0.4-1.8,0.5-3.1,0.9
				c-2.7,1.7-4.1,4.5-4.1,8.4c0,2.8,0.7,5.1,2.1,6.9c0.6,0.6,1.9,1.7,4.1,3.2c1.4,1,2.1,2.1,2.1,3.2c0,4.3-2.6,7.6-7.9,10.1
				c-2.6,1.2-7.2,2.7-13.9,4.3c-10.1,2.5-15.1,1.3-15.1-3.4c0-4.1,1.9-8,5.8-11.3c4.6-3.9,8.7-11.1,12.2-21c3-8.6,4.5-15.7,4.5-21.6
				c0-2.3-0.5-4.1-1.4-5.6c-0.5-0.8-1.4-1.7-2.5-2.6c-1-0.7-1.4-1.3-1.4-1.6c0-2.1,3.9-3.9,11.7-5.4c6.7-1.2,11.5-1.6,14.6-1.4
				c5.2,0.4,9.1,1.5,11.8,3.4c1.2,0.9,3.1,2.9,5.5,6c0.7,1,1.6,3,2.7,6c4.2,11.9,8.5,20.7,12.8,26.4c0.6,0.8,1.7,1.6,3.3,2.3
				c1.6,0.7,2.7,1.5,3.2,2.1C542,253,542.3,254.5,542.2,256.6z M503.4,229.7c0-0.5-0.6-1.9-2-4.4c-1.2-2.2-2.9-3.3-4.9-3.2
				c-1.2,0.1-2.6,1.4-4,4.1c-1.2,2.3-1.8,4.1-1.8,5.3c0,0.5,0.9,0.7,2.9,0.5c0.4,0,1.2-0.2,2.2-0.4c1-0.2,1.8-0.3,2.2-0.4
				c1.5-0.1,2.4-0.2,2.7,0C502.5,230.9,503.4,230.4,503.4,229.7z"/>
			<path d="M586.1,227.8c0.7,4.3,1.8,8.7,3,12.9c1.3,4.8,2.5,7.8,3.4,8.8c0.9,0.7,2,1.5,3,2.4c1.1,0.8,1.6,1.7,1.6,2.5
				c0,4.3-1.5,7-4.6,8c-2.3,0.8-8.6,1.2-18.8,1.4c-8.1,0.2-13.5-0.2-16.3-1.3c-2.7-1.1-4.1-3.5-4.1-6.9c0-0.8,0.7-1.7,2.1-2.7
				c1.7-1.2,2.6-2,2.9-2.4c1.1-1.6,2.4-5.5,3.8-11.5c1.4-5.7,2.4-10.7,3-15c0.1-1.1,0.3-3.8,0.4-7.8c-0.7-0.2-1-0.3-1.6-0.4
				c-1,0-1.8,0.6-2.5,1.8c-1,1.7-1.9,2.8-2.7,3.3c-1.7,1.2-4.1,1.8-7.4,1.9c-2.7,0-4.5-0.5-5.3-1.7c-0.5-0.7-0.8-2.1-0.8-4.2
				c0-2.2,1-4.4,3-6.7c2.2-2.7,4.7-4,7.6-4c1,0,2.6,0.1,4.6,0.4c2,0.3,3.6,0.4,4.6,0.4c12.3,0,20.5-0.1,24.7-0.2
				c0.4,0,0.9-0.2,1.5-0.4c0.7-0.2,1.2-0.3,1.8-0.3c3.1,0,5.7,1.3,7.9,3.8c1.9,2.2,2.9,4.4,2.9,6.7c0,4.1-2.3,6.1-7,6.1
				c-2.6,0-4.8-1.2-6.5-3.5c-1.7-2.3-3.4-3.4-5-3.4c-0.4,0.1-0.7,0.2-1.1,0.3c0.2,1.6,0.7,4.6,1.5,9.2
				C585.8,226.1,585.9,226.7,586.1,227.8z"/>
			<path d="M612.3,220.1c-0.4-2.5-1.3-4.1-2.6-4.8c-0.7-0.2-1.7-0.6-2.7-1.1c-0.8-0.4-1.3-1.4-1.3-2.4c0-1.9,1.9-3.4,5.7-4.3
				c3.1-0.8,7-1.2,11.6-1.1c0.9,0,2.2,0,4,0.1c1.8,0.1,3.2,0.2,4.1,0.2c2.5,0,6.5-0.1,12.2-0.4c5.6-0.2,9.6-0.4,12-0.4
				c3.1,0,5.6,1.4,7.4,4.2c1.3,2.2,2,4.6,2,7.2c0,1.6-0.4,3-1.3,4.1c-1.2,1.3-2.8,1.9-4.8,1.9c-2-0.1-3.7-0.8-5-2.2
				c-2-2-3.6-3.2-4.7-3.8c-2.7-1.4-6.7-2.1-12-2.2c-1.5,0-2.3,0-2.4,0c-0.7,0.2-1.2,0.8-1.5,1.8c-0.1,0.3-0.2,0.7-0.2,1
				c0,1.6,1.2,3,3.6,4.1c2.1,1,4.6,1.5,7.6,1.6c0.6,0,1.3-0.2,2.1-0.8c0.8-0.5,1.6-0.8,2.1-0.8c1.1,0,1.6,0.6,1.6,1.8
				c0,1.8-0.3,3.5-1,5.2c-1,2.3-2.3,3.4-4.2,3.3c-1.2-0.1-2.3-0.8-3.3-2.1c-1.1-1.3-2.6-2-4.7-2.1c-2.3-0.1-3.5,1.2-3.5,3.9
				c0,6.4,5.3,9.9,15.9,10.6c0.4,0,1.1,0,2.1-0.1c0.9-0.1,1.7-0.1,2.2,0.1c0.5,0.1,0.9,0.2,1.3,0.2c1.8,0.1,3.3-0.4,4.6-1.6
				c1.2-1.2,2.2-1.8,2.9-1.7c1.1,0.1,2,0.7,2.9,1.9c0.8,1.2,1.2,2.2,1.2,3.1c0,0.5,0.1,2,0.3,4.3c0.2,2.3,0.3,4.2,0.3,5.7
				c0,6.8-1.8,11-5.5,12.5c-1.4,0.5-6,0.3-13.9-0.5c-2.2-0.2-5.2-0.6-9-0.8c-3.1-0.2-6.2-0.4-9.2-0.7c-8.3-0.6-12.4-0.8-20.6-1.1
				c-3.7-0.2-5.6-1.5-5.6-4.1c0-1,0.5-1.9,1.6-2.7c1.8-1.3,2.9-2.1,3.1-2.4c0.8-0.9,1.3-1.4,2.1-2.3c1-1.2,1.6-4.1,1.9-8.8
				c0.4-7.9,0.5-11.8,0.9-19.4C612.3,222.7,612.4,221.3,612.3,220.1z"/>
			<path d="M700.8,243.2c1.5,8.7,3.1,14.3,4.7,16.4c0.9,1,1.9,2.2,3,3.4c1,1.2,1.5,2.3,1.5,3.3c0,5.1-1.5,7.9-4.5,8.4
				c-2.3,0.4-8.6-0.7-18.8-2.6c-8.3-1.6-13.9-3-16.6-4.7c-2.7-1.6-4-4.2-3.8-7.9c0.1-0.8,0.8-1.7,2.1-2.5c1.6-1,2.6-1.7,2.9-2.1
				c1-1.4,2.3-5.4,3.7-11.8c1.3-5.7,2.3-11.2,3-16.4c-0.2-5.7-1.2-9-3-10.2c-0.7-0.3-1.7-0.7-2.7-1.3c-0.8-0.5-1.3-1.6-1.3-2.8
				c0-2.2,1.9-3.8,5.7-4.9c3.1-0.9,7-1.3,11.6-1.3c1.7,0,3.2,0,4.6,0c6.5,0,10.6,0,12.3,0c6.1,0,11.4,1,16,3.2
				c5.7,2.6,8.6,6.6,8.6,11.6c0,6.3-3.7,10.9-11.2,13.6c0.7,2,2.3,3.7,4.7,5c3.6,1.9,5.4,2.9,5.5,2.9c3,2.7,5.2,5.5,6.7,8.3
				c1.3,2.5,2.4,5.8,3.3,9.8c1.2,6,3.1,11.4,5.6,16.2c0.1,0.3,1.1,1.6,2.9,4c1.3,1.8,2,3.2,2,4.1c0,0.7-0.6,1.2-1.9,1.5
				c-0.9,0.2-1.8,0.4-2.6,0.7c-1.3-0.4-3.5-0.9-6.5-1.3c-2.5-0.4-4.6-0.9-6.4-1.4c-7.6-2.4-12.8-6.5-15.7-12.4
				c-1.4-2.9-2.7-8.6-4-16.9c-1.1-6.9-3-11.6-5.6-13.9c-0.9-0.7-1.9-1-3.2-0.9C701.4,240.8,700.5,241.6,700.8,243.2z M701.2,215.7
				c-1,0-1.8,0.2-2.6,0.7c-0.8,0.5-1.1,1.2-0.9,1.9c0.4,3.6,0.5,5.4,0.9,9c0.1,1.5,0.8,2.3,2,2.4c2.2,0.2,4-0.5,5.3-2.1
				c1.2-1.5,1.8-3.2,1.8-5.1C707.5,218.2,705.4,215.9,701.2,215.7z"/>
		</g>
		<g>
			<path d="M268.5,461.2c0,4.6,1.5,14.7,4.5,24.2c3,9.5,5.4,15.1,7.1,17c1.7,1.8,3.6,3.7,5.5,5.5c2.5,2.2,4,4.4,4.4,6.6
				c0.5,2.8,0.7,5.4,0.7,7.7c0,6.3-2.6,10.9-7.9,13.8c-4.3,2.3-12.3,3.6-22.8,4.4c-4.9,0.4-16.1,1-33.1-0.9
				c-6.5-0.7-13.3-2.7-20.1-6.2c-6.1-2.9-10.1-6.4-12-10.1c-1.8-2.8-2.7-5.7-2.7-8.9c0-0.5,0-1.1,0-1.8c0-0.6,0-1.3,0-2.2
				c0-1.8,1.1-3.4,3.2-4.7c1.8-1.1,3.7-2.2,5.6-3.4c4.9-14.6,8.4-31.9,10.6-50c1.8-14.6,3-28.3,3.7-40.8c1-18.3-1.2-30.7-6.6-36.9
				c-1.5-1.2-4-3.1-6.1-5.5c-2-2.3-2.9-6.3-2.9-10.6c0-8.1,4.3-13.3,12.8-16.2c6.9-2.5,15.6-3.2,26-2.3c17.8,1.6,29.3,4.6,34.4,10.5
				c7.7,6.2,14.6,21,20.9,42.8c6.8,23.5,13.6,37.3,20.1,43c1.6,1.3,3.4,1.4,5.4,0.3c2-3,2.9-7.1,2.9-12.2c0-1.9-0.3-4.9-0.7-9
				c0-0.4,0-0.8,0-1.3c-0.1-0.2-0.2-0.3-0.3-0.5c-0.5-4.2-1.1-8.8-1.7-13.6c-2.8-9.9-7.3-17.5-13.5-22.9c-1.5-0.8-3.5-2.1-6.1-3.8
				c-1.8-2.2-2.7-5.5-2.7-9.8c0-8,4.3-14.3,12.8-18.9c6.9-3.8,15.6-6.1,26-8.4c14.4-3.2,24.6-4,30.7-2c4.9,1.6,7.4,5.3,7.4,11.2
				c0,3.6-0.7,6.4-2.2,8.5c-1.5,2.1-3,4.1-4.7,6.1c-1.6,2-2.9,4.4-3.9,7.2c-2,4.4-3.9,8.9-5.9,13.5c-2.9,7.6-4.4,15.5-4.4,23.6
				c0-0.4,0,0.8,0,3.4c0.3,9.6,2.9,23.2,7.6,40c4.5,16.1,6.6,28.3,6.6,37.7c0,12.3-1.1,21-3.2,26.4c-3.4,8.4-10.6,14.4-21.4,17.8
				c-12,3.8-22.7-0.8-32.4-13.2c-2.5-3.3-9.2-12-20.1-36.5c-6.9-15.4-13.1-23.7-18.7-23.3C269.4,456.4,268.5,458.1,268.5,461.2z"/>
			<path d="M533.6,388.6c0,20.4-7.8,41-23.3,61.2c-14.7,19-32.5,32.4-53.3,40.2c-23.2,8.8-41.9,7-56-5.2
				c-12.6-11.2-18.9-28.4-18.9-53c0-27.1,6.4-54.2,19.1-79.4c14.7-29.1,34.6-46.3,59.7-53.5c24.2-6.9,43,0.1,56.2,20.6
				C528.1,336.5,533.6,358.8,533.6,388.6z M479.9,376.5c0-10.4-2.4-20.8-7.1-31.5c-5.9-13.3-13.2-18.6-21.9-15.7
				c-5.1,1.7-9,6.7-11.8,15.2c-2.1,6.4-3.2,12.9-3.2,19.4c0,11,1.8,20.7,5.4,28.7c4.9,10.8,12.1,14.1,21.6,10.1
				C474.2,398.1,479.9,389.3,479.9,376.5z"/>
			<path d="M632.6,337.6c1.6,12,3.9,24.2,6.6,36.2c3,13.6,5.5,27.1,7.6,30.8c2.1,3,4.4,6.2,6.8,9.7c2.4,3.5,3.6,6.8,3.6,9.8
				c0,15.6-3.4,24.7-10.3,27.3c-5.2,2.1-19.2,1.4-42,1.4c-18.2,0-30.3-0.8-36.5-4.4c-6.1-3.5-9.2-11-9.2-22.6c0-2.7,1.6-5.9,4.7-9.7
				c3.8-4.6,5.9-7.5,6.4-8.8c2.5-5.6,5.3-20.2,8.6-37.8c3.2-17,5.5-31.2,6.6-43.4c0.3-3.2,0.7-10.6,1-21.9c-1.5-0.4-2.2-0.6-3.7-1
				c-2.1,0.1-4,1.8-5.7,5.2c-2.3,4.8-4.3,8.1-6.1,9.8c-3.8,3.7-9.2,6-16.4,6.9c-6.1,0.8-10-0.3-11.8-3.5c-1.2-2-1.7-6.1-1.7-12.1
				c0-6.3,2.2-13.1,6.6-20c4.9-8,10.6-11.9,16.9-12.2c2.3-0.1,5.7,0.1,10.3,0.8c4.6,0.7,8,1,10.3,1c27.5-0.4,45.9,1.1,55.2,1.6
				c0.8,0,2-0.3,3.4-0.7c1.5-0.4,2.8-0.5,3.9-0.4c6.9,0.8,12.8,5.1,17.7,13.1c4.3,6.8,6.4,13.5,6.4,19.7c0,11.3-5.2,15.6-15.7,13.7
				c-5.9-1.1-10.7-4.9-14.5-11.6c-3.8-6.7-7.5-10.1-11.3-10.4c-1,0.2-1.5,0.3-2.5,0.6c0.5,4.3,1.6,12.6,3.4,25.3
				C631.8,333,632.1,334.5,632.6,337.6z"/>
		</g>
		<g>
			<path d="M142.6,610.4c8.8,1.6,13.1-1.2,13.1-8.4c0-2.4-2.9-6.2-8.8-12c-8.8-8.9-14-15.2-15.8-17.7c-5.8-8-8.8-15.6-8.8-21.8
				c0-11.1,4.6-17.6,13.9-19.5c8.2-1.7,18.3,0.2,30.3,4.3c3.8,1.3,9.3,3.8,16.5,6.9c7.2,3.2,12.7,4.9,16.7,5.7
				c6.9,1.4,10.3,8.3,10.3,20.6c0,7.1-3.6,10.1-10.7,8.9c-4.9-0.8-9.7-4.6-14.2-11.5s-8.8-11.1-13-12.3c-9.3-2.7-13.9-1.5-13.9,4.3
				c0,3.4,5.2,9,15.6,15.6c14.1,8.8,23.7,14.4,28.7,18.5c10.4,8.4,15.6,17.3,15.6,27.6c0,11.2-5,19.7-14.9,26.6
				c-10,6.8-22.6,10.5-37.8,10.4c-15.6-0.1-28.3-3.3-38.1-10.9c-10.8-8.3-16.2-21-16.2-36.3c0-7.6,3.9-10.4,11.8-8.4
				c2.5,0.6,5.2,2.2,7.9,4.5C133.7,607.8,137.6,609.5,142.6,610.4z"/>
			<path d="M342.1,617.9c0,12.2-6,23.1-18.1,30.3c-11.4,6.8-25.2,9.9-41.3,9.9c-18,0-32.5-4.4-43.4-14.2c-9.8-8.9-14.7-20.4-14.7-34
				c0-15,4.9-28.1,14.8-39.3c11.4-13,26.8-19.8,46.2-21c18.8-1.2,33.3,6.9,43.6,22.1C337.8,584.3,342.1,600.1,342.1,617.9z
				 M300.4,602.9c0-6.2-1.8-13.2-5.5-20.9c-4.6-9.6-10.2-14.4-16.9-14.2c-3.9,0.1-7,2.5-9.1,7c-1.7,3.4-2.5,7.1-2.5,10.9
				c0,6.5,1.4,12.5,4.2,17.9c3.8,7.3,9.4,10.9,16.7,10.8C296,614.3,300.4,610.6,300.4,602.9z"/>
			<path d="M402.2,595.4c2.7,16.1,5.4,25.8,8.2,29c1.6,1.5,3.4,3.1,5.1,4.8c1.8,1.7,2.7,3.6,2.7,5.5c0,9.9-2.6,16.2-7.8,18.5
				c-4.1,1.8-14.9,2.8-32.5,2.9c-14.5,0.1-24.1-0.8-28.8-2.7c-4.8-1.9-6.9-5.6-6.6-11.7c0.1-1.4,1.3-3,3.6-4.9
				c2.8-2.3,4.4-3.9,5-4.6c1.8-2.9,3.9-10.1,6.5-22.6c2.3-11.2,4-22.2,5.1-32.7c-0.4-11-2.1-17.4-5.1-18.7c-1.1-0.2-3.1-0.4-4.8-1.1
				c-1.4-0.6-2.3-2.5-2.3-5c0-4.6,3.3-9,9.9-13.4c5.3-3.7,12.1-6.8,20.2-9.6c2.9-1,5.6-2,8-2.8c11.3-4,18.4-6.6,21.3-7.7
				c10.5-3.9,19.8-5.3,27.8-4c9.9,1.5,14.8,7.4,14.8,17.4c0,12.5-6.5,24.5-19.4,35c1.3,3.6,4,5.8,8.2,6.7c6.2,1.3,9.4,2.1,9.5,2
				c5.2,3.3,9.1,7.3,11.6,11.8c2.3,4.1,4.2,9.8,5.7,17.4c2.2,11.3,5.4,20.9,9.7,29.1c0.2,0.6,1.9,2.5,4.9,6.1c2.3,2.7,3.4,5.1,3.4,7
				c0,1.5-1.1,3-3.2,4.6c-1.5,1.1-3.1,2.2-4.6,3.4c-2.3,0.2-6,0.8-11.2,1.8c-4.3,0.9-8,1.3-11,1.3c-13.2,0-22.3-5.4-27.2-15.4
				c-2.4-4.9-4.6-15.3-6.9-30.8c-1.8-13-5.1-20.9-9.7-23.7c-1.5-0.9-3.4-0.8-5.5,0.2C403.2,590.2,401.7,592.5,402.2,595.4z
				 M402.8,540.3c-1.7,0.6-3.1,1.6-4.5,3.2c-1.3,1.6-1.9,3.1-1.6,4.5c0.6,7.1,0.9,10.6,1.5,17.6c0.3,3,1.4,4.2,3.4,3.6
				c3.8-1.1,6.9-3.6,9.1-7.7c2-3.7,3-7.5,3-11.4C413.8,541.1,410.1,537.8,402.8,540.3z"/>
			<path d="M543.8,567.4c2.7,22.5,5.4,36.9,8.2,41.9c1.6,2.3,3.4,4.8,5.1,7.5c1.8,2.7,2.7,5.4,2.7,8.1c0,13.9-2.6,22.7-7.8,25.9
				c-4.1,2.6-14.9,3.9-32.5,4.1c-14.5,0.1-24.1-1.5-28.8-4.7c-4.8-3.2-6.9-9.6-6.6-19.4c0.1-2.2,1.3-4.8,3.6-7.7
				c2.8-3.5,4.4-5.9,5-7c1.8-4.4,3.9-15.6,6.5-33.5c2.3-16.1,4-31.1,5.1-45.1c-0.4-14.7-2.1-22.8-5.1-24.8c-1.1-0.4-3.2-0.8-4.8-1.7
				c-1.4-0.8-2.3-3.3-2.3-6.4c0-5.7,3.3-11,9.9-15.9c5.3-4.1,12.1-7.4,20.2-9.7c2.9-0.9,5.6-1.7,8-2.4c11.3-3.3,18.4-3.8,21.3-4.2
				c10.5-1.3,19.8,0.3,27.8,4.8c9.9,5.5,14.8,14.3,14.8,26.1c0,14.7-6.5,26.6-19.4,35.8c1.3,4.9,4,8.5,8.2,10.8
				c6.2,3.5,9.4,5.3,9.5,5.3c5.2,5.5,9.1,11.4,11.6,17.4c2.3,5.4,4.2,12.8,5.7,22.1c2.2,13.8,5.4,25.7,9.7,35.5
				c0.2,0.7,1.9,3.1,4.9,7.4c2.3,3.2,3.4,5.9,3.4,8.1c0,1.7-1.1,3.4-3.2,5.1c-1.5,1.2-3.1,2.4-4.6,3.8c-2.3,0.2-6,0.8-11.2,2
				c-4.3,1-8,1.6-11,1.6c-13.2,0-22.3-7.2-27.2-21.2c-2.4-6.8-4.6-21.4-6.9-42.6c-1.8-17.8-5.1-29-9.7-33.9
				c-1.5-1.5-3.4-1.9-5.5-1.2C544.8,560.6,543.3,563.3,543.8,567.4z M544.4,496.4c-1.7,0.2-3.1,1-4.5,2.6c-1.3,1.5-1.9,3.4-1.6,5.2
				c0.6,8.9,0.9,13.4,1.5,22.7c0.3,3.9,1.4,5.8,3.4,5.6c3.8-0.3,6.9-2.7,9.1-7.2c2-4.1,3-8.6,3-13.4
				C555.4,500.7,551.7,495.6,544.4,496.4z"/>
			<path d="M707.1,565c3.8,29.8,7.2,46.8,10.1,51.7c1.7,2.2,3.4,4.6,5.1,7c1.8,2.5,2.7,4.8,2.7,7.1c0,11.6-2.7,18.6-8,21.2
				c-3.9,2.1-14.7,3.1-32.3,3c-14.2-0.1-23.7-2-28.4-5.7c-4.7-3.8-7-11-7-21.5c0-2.5,1.1-5.1,3.4-8c2.9-3.5,4.6-5.7,5.1-6.8
				c1.7-4.1,3.5-14,5.7-29.3c1.9-13.1,3.1-23,3.6-30c0-0.6-0.9-2.8-2.8-6.5c-2.4-4.6-4.3-9-5.5-13.4c-2.3-5.5-5-12.3-8.2-20.5
				c-1.3-2.2-3.1-4.5-5.5-7c-2.4-2.4-3.7-3.6-6.1-6c-1.1-0.9-2.7-2.2-4.8-4c-1.4-2-2.1-4.7-2.1-8.1c0-6.3,3.3-10.8,9.9-13
				c5.3-1.9,12.1-2.2,20.2-0.4c11.1,2.4,19.1,6.2,23.8,10.5c3.8,3.5,5.7,7.7,5.7,12.5c0,3-0.6,4.9-1.7,5.9c-1.1,1-2.4,2-3.6,2.8
				c-1.3,0.9-2.3,2.2-2.9,4c-0.7,1.8-0.9,3.8-0.5,6.2c1.5,9.7,4.9,15.1,10.1,16.3c1.9,0.5,4.2-1.6,7-6.1c0.6-2.5,1.7-5.2,3.2-8.2
				c1.1-2.3,1.7-3.8,1.7-4.7c0-0.4-0.2-0.9-0.7-1.3c-0.4-0.4-1.3-1.4-2.6-2.8c-1.5-2.2-2.3-5-2.3-8.2c0-11.2,10-14,30.1-4.1
				c15.5,7.6,23.2,16.7,23.2,24.6c0,2.5-0.6,4-1.8,4.5c-1.2,0.5-2.4,0.9-3.4,1.3c-1.1,0.4-3.1,0.4-6.2,0.3c-4.7-0.4-7.6-0.2-8.8,0.2
				c-1.2,0.4-2.8,1.7-4.9,4c-7.4,5.8-11.9,10.4-13.7,12.6c-4.6,5.4-6.9,10.9-6.9,16.2C707.1,562.3,707.1,563.5,707.1,565z"/>
		</g>
	</g>
</g>
</svg>


