<?xml version="1.0" encoding="utf-8"?>
<!-- Generator: Adobe Illustrator 18.0.0, SVG Export Plug-In . SVG Version: 6.00 Build 0)  -->
<!DOCTYPE svg PUBLIC "-//W3C//DTD SVG 1.1//EN" "http://www.w3.org/Graphics/SVG/1.1/DTD/svg11.dtd">
<svg version="1.1" xmlns="http://www.w3.org/2000/svg" xmlns:xlink="http://www.w3.org/1999/xlink" x="0px" y="0px"
	 viewBox="0 0 864 864" enable-background="new 0 0 864 864" xml:space="preserve" width="500" height="500">
<g>
	<path d="M639.1,382.3c1.1-0.8,1.5-2.2,1-3.5l-2.5-6.6c-0.1-0.3,0-0.7,0.3-1c0.3-0.2,0.7-0.2,1,0l5.8,4.1
		c1.1,0.8,2.6,0.8,3.6-0.1l5.5-4.2c0.3-0.2,0.7-0.2,1,0c0.3,0.2,0.4,0.5,0.4,0.9l-2,8.8c-0.1,0.3,0.1,0.7,0.3,0.9l7.3,5.4
		c0.3,0.2,0.4,0.6,0.3,0.9c-0.1,0.3-0.4,0.6-0.8,0.6h-8.4c-0.4,0-0.7,0.3-0.8,0.6l-2.1,8.1c-0.1,0.4-0.4,0.6-0.8,0.6
		c-0.4,0-0.7-0.2-0.8-0.5l-3.4-8.5c-0.1-0.3-0.4-0.5-0.8-0.5l-9.1-0.3c-0.4,0-0.7-0.2-0.8-0.6s0-0.7,0.3-0.9L639.1,382.3z"/>
	<path d="M222.6,395.8c1.1-0.8,1.5-2.2,1-3.5l-2.5-6.6c-0.1-0.3,0-0.7,0.3-1c0.3-0.2,0.7-0.2,1,0l5.8,4.1
		c1.1,0.8,2.6,0.8,3.6-0.1l5.5-4.2c0.3-0.2,0.7-0.2,1,0c0.3,0.2,0.4,0.5,0.4,0.9l-2,8.8c-0.1,0.3,0.1,0.7,0.3,0.9l7.3,5.4
		c0.3,0.2,0.4,0.6,0.3,0.9c-0.1,0.3-0.4,0.6-0.8,0.6h-8.4c-0.4,0-0.7,0.3-0.8,0.6l-2.1,8.1c-0.1,0.4-0.4,0.6-0.8,0.6
		c-0.4,0-0.7-0.2-0.8-0.5l-3.4-8.5c-0.1-0.3-0.4-0.5-0.8-0.5l-9.1-0.3c-0.4,0-0.7-0.2-0.8-0.6c-0.1-0.3,0-0.7,0.3-0.9L222.6,395.8z"
		/>
	<path d="M237.4,462.7c0.9-0.7,1.3-2,0.9-3.1l-2.2-5.9c-0.1-0.3,0-0.7,0.2-0.9c0.3-0.2,0.6-0.2,0.9,0l5.2,3.6
		c1,0.7,2.3,0.7,3.2-0.1l4.9-3.8c0.3-0.2,0.6-0.2,0.9,0s0.4,0.5,0.3,0.8l-1.8,7.9c-0.1,0.3,0,0.6,0.3,0.8l6.6,4.9
		c0.3,0.2,0.4,0.5,0.3,0.8c-0.1,0.3-0.4,0.5-0.7,0.5h-7.5c-0.3,0-0.6,0.2-0.7,0.6l-1.9,7.3c-0.1,0.3-0.4,0.5-0.7,0.6
		c-0.3,0-0.6-0.2-0.7-0.5l-3.1-7.6c-0.1-0.3-0.4-0.5-0.7-0.5l-8.1-0.3c-0.3,0-0.6-0.2-0.7-0.5s0-0.6,0.3-0.8L237.4,462.7z"/>
	<path d="M648.4,455c1-0.8,1.3-2,0.9-3.2l-2.3-6.1c-0.1-0.3,0-0.7,0.2-0.9c0.3-0.2,0.6-0.2,0.9,0l5.3,3.7
		c1,0.7,2.3,0.7,3.3-0.1l5-3.8c0.3-0.2,0.6-0.2,0.9,0c0.3,0.2,0.4,0.5,0.3,0.8l-1.8,8.1c-0.1,0.3,0,0.6,0.3,0.8l6.7,5
		c0.3,0.2,0.4,0.5,0.3,0.9c-0.1,0.3-0.4,0.5-0.7,0.5H660c-0.4,0-0.7,0.2-0.7,0.6l-1.9,7.4c-0.1,0.3-0.4,0.6-0.7,0.6
		c-0.3,0-0.6-0.2-0.8-0.5l-3.1-7.7c-0.1-0.3-0.4-0.5-0.7-0.5l-8.3-0.3c-0.3,0-0.6-0.2-0.7-0.5c-0.1-0.3,0-0.6,0.3-0.8L648.4,455z"/>
	<path d="M482.7,335.6c1.1-0.9,1.5-2.3,1-3.6l-2.6-6.9c-0.1-0.4,0-0.8,0.3-1s0.7-0.2,1,0l6,4.2
		c1.1,0.8,2.7,0.8,3.8-0.1l5.7-4.4c0.3-0.2,0.7-0.2,1,0c0.3,0.2,0.5,0.6,0.4,0.9l-2,9.1c-0.1,0.3,0.1,0.7,0.3,0.9l7.6,5.6
		c0.3,0.2,0.4,0.6,0.3,1c-0.1,0.4-0.5,0.6-0.8,0.6h-8.7c-0.4,0-0.7,0.3-0.8,0.7l-2.2,8.4c-0.1,0.4-0.4,0.6-0.8,0.6s-0.7-0.2-0.9-0.5
		l-3.5-8.8c-0.1-0.3-0.4-0.5-0.8-0.5l-9.4-0.3c-0.4,0-0.7-0.3-0.8-0.6c-0.1-0.3,0-0.7,0.3-1L482.7,335.6z"/>
	<g>
		<path d="M181.9,264c-26.7-28.3-56.4-58.4-55.2-99.5c0.7-23,10.6-47.8,30.8-60.5c16-10.1,38.1-11.6,53.7,0.4
			c17,13.1,16.4,37,7.5,54.7c-4.5,8.9-12.6,16.8-22.9,17.9c-11.3,1.2-21.5-5.7-26.9-15.2c-2.2-3.8-1.8-8.2,2.1-10.9
			c3.1-2.2,9.3-2.5,11.5,1.3c2.4,4.2,5.8,9.5,10.6,11.2c4.4,1.5,8.5-0.4,11.9-3.3c8.5-7,11.4-18.9,10.2-29.5
			c-2.6-22.4-28.9-30.3-45.9-17.6c-16.6,12.4-22.6,35.4-20.6,55.2c2.1,20.7,13.1,38.7,26,54.6c6.2,7.6,12.8,14.7,19.5,21.8
			c9.8-13.7,21.4-26.1,34.9-36.1c4.4-3.3,9.2,2.8,4.9,6.4c-12.8,10.7-24.2,22.8-33.7,36.3c6.3,6.7,12.5,13.5,18.3,20.6
			c12.8,15.8,26.5,36.9,26.3,58c-0.1,10.6-4.1,21-13.6,26.7c-8.5,5.1-19.4,6.1-29,4.9c-21.7-2.7-35.6-20.9-36.4-42.2
			C165,300.2,172.6,280.8,181.9,264z M185.5,344.2c7.3,7.2,20.3,10.9,30.3,7.8c4.3-1.4,8.6-3.8,10.5-8.2c1.7-4,1.4-9,0.5-13.2
			c-4.2-20-18.5-37.6-31.7-52.5c-2.1-2.4-4.3-4.8-6.6-7.3c-0.3,0.6-0.7,1.3-1,2C177.3,293.6,166.1,325.1,185.5,344.2z"/>
		<path d="M311.6,227.6c-8.2,21.6-17.2,43.1-30.3,62.2c-5.2,7.6-12.2,14.1-22.2,13.4c-10.5-0.8-17.8-8.5-21.7-17.7
			c-8.2-19.7-6.9-44.3,0.4-64.1c3.5-9.4,9-18.5,16.9-24.8c7.5-5.9,18.4-7.9,26.4-2c7.5,5.6,8.6,14.8,1,21.1
			c-6.5,5.3-15.4,8.3-23.7,10.1c-2.6,7.2-4,14.9-4.8,22.3c-0.7,7.3-0.5,14.9,0.6,22.2c1,6.4,2.3,13.9,5.8,19.4
			c1.7,2.6,4.4,4.4,7.3,2.6c2.5-1.6,4.3-4.2,5.9-6.6c4.4-6.3,8.3-13,11.8-19.7c7-13.5,12.7-27.6,18.5-41.6
			C305.6,219.5,313.6,222.3,311.6,227.6z M263.2,215.3c1.1-0.4,2.2-0.8,3.3-1.2c3.1-1.3,8.1-2.8,10.1-5.7c2.1-2.9-0.4-5.3-3.5-4.2
			c-2.6,0.9-4.8,3.7-6.4,5.8C265.4,211.7,264.3,213.5,263.2,215.3z"/>
		<path d="M370.4,227.5c-4.9,18.6-12.2,36.6-22.2,53.1c-4,6.6-8.7,13.7-15.1,18.4c-6.6,4.8-13.5,5.6-20.7,1.2
			c-7-4.3-10.7-14.2-12.6-21.8c-2.1-8.8-2.8-17.6-2.4-26.6c0.9-16.7,5.7-37.2,21.4-46.3c6.4-3.7,15.6-5.2,21.2,0.9
			c5.3,5.7,4.6,14.7,4.2,21.8c-0.3,4.8-9.3,5-9.1,0c0.2-3.8,0.5-7.9-0.6-11.6c-1.2-4-2.8-3.9-5.4-1.1c-4.4,5-6.5,12.1-8.2,18.4
			c-4,14.6-4.5,30.7-0.5,45.4c0.9,3.4,2.1,6.7,3.6,9.9c1.4,2.9,2.3,4.3,5.2,1.8c6-5.2,10.3-12.5,14.2-19.3
			c8.1-14.2,14.3-29.4,18.6-45.1C363.5,221.6,371.8,222.3,370.4,227.5z"/>
		<path d="M449.2,228.4c-1.7,8.3-5.1,16.6-7.8,24.6c-2.8,8-5.6,15.9-8.6,23.8c-2.8,7.3-5.6,14.6-9.3,21.5c-3.1,5.8-7.5,13-14.6,13.8
			c-7.2,0.9-13.6-4.4-17.1-10.2c-4.1-6.8-6.3-14.3-7.3-22.1c-2.1-15.8-1.1-32.1,1.2-47.8c-2.2,0.7-4.4,1.3-6.8,1.4
			c-5.9,0.4-13.5-1.2-18-5.2c-10.4-9.1-8.1-26.2-2.3-37.1c3.2-5.9,9-13,16.1-14.2c6.3-1,12.4,2.9,13,9.4c0.6,6.5-1.9,13.1-4.2,19.1
			c-2.5,6.6-5.6,12.9-9.3,19c1.9,0.8,4.8,0.5,6.7,0.2c2.5-0.4,5-1.4,7.3-2.5c2.4-3.2,6.8-5.1,10.7-4.6c5.8,0.8,8.9,5.7,8.4,11.2
			c-1.2,14-3.2,27.9-2.9,42c0.2,6.5,0.7,13.1,1.8,19.6c0.5,3.1,1.5,5.9,2.3,8.9c0.3,1.2,0.2,2.8,0.8,3.9c-0.1-0.5,0.3-0.8,1.1-1
			c8.1-10.5,12.4-23.7,17-36.1c2.4-6.6,4.8-13.2,7.1-19.8c2.3-6.6,4.1-13.5,6.8-19.9C443.1,222.4,450.2,223.8,449.2,228.4z
			 M369.6,214.6c3.1-5.9,5.6-12.2,7.4-18.6c0.5-1.8,0.6-3.7,0.9-5.6c-2.1,2.5-3.8,5.4-5.3,8.3C370.4,203.4,369,209.2,369.6,214.6z
			 M409.5,303.4C409.5,303.4,409.5,303.4,409.5,303.4C409.7,304,409.7,304,409.5,303.4z"/>
		<path d="M514.7,227.6c-8.2,21.6-17.2,43.1-30.3,62.2c-5.2,7.6-12.2,14.1-22.2,13.4c-10.5-0.8-17.8-8.5-21.7-17.7
			c-8.2-19.7-6.9-44.3,0.4-64.1c3.5-9.4,9-18.5,16.9-24.8c7.5-5.9,18.3-7.9,26.4-2c7.5,5.6,8.6,14.8,1,21.1
			c-6.5,5.3-15.4,8.3-23.7,10.1c-2.6,7.2-4,14.9-4.8,22.3c-0.7,7.3-0.5,14.9,0.6,22.2c1,6.4,2.3,13.9,5.8,19.4
			c1.7,2.6,4.4,4.4,7.3,2.6c2.5-1.6,4.3-4.2,5.9-6.6c4.4-6.3,8.3-13,11.8-19.7c7-13.5,12.7-27.6,18.5-41.6
			C508.7,219.5,516.7,222.3,514.7,227.6z M466.3,215.3c1.1-0.4,2.2-0.8,3.3-1.2c3.1-1.3,8.1-2.8,10.1-5.7c2.1-2.9-0.4-5.3-3.5-4.2
			c-2.6,0.9-4.8,3.7-6.4,5.8C468.5,211.7,467.4,213.5,466.3,215.3z"/>
		<path d="M576.1,229.6c-5.9,16.7-13.2,32.9-21.7,48.5c-3.1,5.6-6.2,12.1-12.3,14.9c-5.8,2.7-12.1,1.9-17.1-2
			c-6.1-4.7-9-12.2-11.1-19.4c-2.3-7.8-3.7-15.9-4.6-24c-1.7-15.8-1.6-31.7-0.7-47.5c0.4-8,1-16.1,2-24.1c-2.6,0.4-5.1,0.9-7.6,1.6
			c-5.5,1.6-12.8,4.3-14,10.7c-1,5.1-9.6,4.4-8.6-1.1c2.4-13.6,19.2-18.3,30.9-19.7c0.1,0,0.3,0,0.4,0c0.9-5.7,2-11.4,3.4-17
			c2.8-11.3,20.6-9.9,19.2,2.5c-0.5,4.8-1.1,9.5-1.7,14.3c0.3,0,0.6,0,0.8,0.1c6.7,0.5,16.4,3.1,21.8-2.2c4-3.9,11.3,1,7,5.2
			c-8.3,8.1-19.8,6.6-30.6,5.5c-1,8.3-1.9,16.7-2.4,25.1c-0.9,13.4-1.3,27-0.8,40.4c0.4,12.6,1.5,26.1,6.3,37.9
			c0.6,1.5,2.1,6.3,3.3,6.5c1.5,0.2,4.2-3.7,5.1-5.1c3.5-5.6,6.6-11.6,9.5-17.5c6-11.9,11.3-24.1,15.9-36.6
			C570.3,221.8,577.9,224.5,576.1,229.6z"/>
		<path d="M641.7,228.8c-4.5,16.4-9.3,32.9-15.5,48.7c-4.5,11.5-13.3,29.6-28.8,24.6c-13.8-4.5-19.7-18.1-23.2-31.1
			c-4-15-5.9-30.5-5.9-46c-0.1-28.4,3.6-58.6,20.7-82.2c7.4-10.3,22.2-23.1,35.1-13.8c5,3.6,5.6,10,5.5,15.6
			c-0.2,7.5-2.1,14.8-4.3,21.9c-8,26.4-21.6,50.6-35.6,74.3c0.6,9.1,1.7,18.2,3.4,27.1c1,5.5,2.1,11,3.9,16.3
			c1.2,3.5,2.6,10.7,7.7,9.6c5.5-1.2,8.9-8.8,11.1-13.3c2.5-5,4.4-10.3,6.2-15.6c4.3-12.3,8.2-24.8,11.7-37.3
			C634.8,223,643.1,223.7,641.7,228.8z M588.9,224.4c10.3-17.9,19.7-36.4,25.9-56.1c2-6.6,4-13.4,4.2-20.3c0.1-2,0.1-4-0.6-5.8
			c-0.4-1-0.9-1.6-1.6-2.4c-0.1-0.1,0-0.3,0.1-0.4c-0.2,0.1-0.4,0.2-0.7,0.4c-8.7,5-13.3,15.3-17,24.2
			C591,183,588.9,203.8,588.9,224.4z"/>
		<path d="M735.6,230.6c-11.7,8.7-22.6,18.4-32.2,29.3c0.7,9.5,1.2,19.1,1.3,28.7c0.1,12.9-0.3,26.1-3.1,38.8
			c-2.5,11.4-7.3,23.1-16.9,30.3c-7.8,5.9-19.6,8.3-27.4,1.1c-8.3-7.6-6.9-20.6-4.6-30.5c4.7-21,16.6-41,29.8-57.9
			c-0.8-10.3-1.7-20.6-2.8-30.8c-0.2-2.1-0.5-4.2-0.8-6.3c-1.1,4.3-2.3,8.7-3.7,12.9c-2,6.5-4.2,13.2-7.3,19.3
			c-2.4,4.8-6,10.4-11.5,12c-6.6,2-12.8-2.6-16.2-7.9c-3.8-5.9-5.3-13.1-5.9-20c-1.3-14.5,0.1-29.7,1.6-44.1c0.5-4.9,6-8,10.4-8.1
			c4.2,0,9.6,3.3,9.4,8.2c-0.6,12-1.7,23.9-1.7,35.9c0,5.1,0.2,10.1,1,15.1c0.4,2.3,0.9,4.5,1.5,6.7c0.2,0.8,0.8,1.8,0.9,2.6
			c0.7-0.9,1.6-2.1,1.7-2.3c0.6-1.1,1.2-2.2,1.8-3.3c1.2-2.5,2.3-5,3.3-7.6c2-5.3,3.6-10.7,5.2-16.2c2.8-9.9,5-19.9,6.7-30
			c0-0.1,0-0.3,0-0.4c-0.2-5.2,3.4-9.3,8.3-10.6c4.2-1.1,10.7,0.7,11.9,5.6c3.6,14.4,4.7,29.4,6.1,44.1c0.1,0.8,0.1,1.7,0.2,2.5
			c8.7-8.7,18.1-16.7,28.2-23.7C735.1,221,740.1,227.2,735.6,230.6z M683.5,286.5c-8.1,12.5-15.3,26.1-19.1,40.3
			c-1.9,7-5.7,21.4,2.6,26.1c9,5,12.7-11.3,13.9-16.7C684.5,319.9,684.4,303.1,683.5,286.5z"/>
	</g>
	<g>
		<g>
			<path d="M399.5,372.7c-7.3,20.3-15.2,40.4-24.6,59.8c-6.1,12.5-17.2,37.3-34.6,26.2c-7-4.5-11.4-13.9-13.7-21.7
				c-2.2-7.3-2.9-14.9-2.8-22.5c-2.4,7.2-5.3,14.8-11,19.4c-7,5.6-15.5,5.6-22.9,0.5c-15.7-10.7-15-36.6-11.5-52.9
				c3.6-17,14.9-41.7,35.3-42.1c8.1-0.2,15.3,1.3,21.6,6.5c0.1-0.2,0.1-0.4,0.2-0.6c2.2-7,8.3-12,16-11c6.9,0.9,12.3,7.4,10.9,14.5
				c-6.5,31.5-14.5,63.4-12.1,95.9c0.1,1.7,0.2,3.4,0.4,5.1c0,0.1,0,0.1,0,0.2c0.8-1.3,2.6-2.6,3.6-3.9c1.3-1.7,2.5-3.4,3.5-5.2
				c4.5-7.4,8.1-15.3,11.6-23.2c7.3-16.1,13.8-32.5,20.2-49C392,362.6,401.8,366.1,399.5,372.7z M331.3,360
				c-2.2-3.4-5.1-6.1-9.2-6.6c-6.6-0.8-12.6,8.9-15.3,13.8c-7.7,13.9-11.1,32-6.6,47.6c0.8,2.6,1.9,7.4,4.4,9
				c1.8,1.2,1.5,0.9,2.9-1.5c1-1.7,1.8-3.6,2.5-5.5c3.9-9.1,7-18.5,10.2-27.8c3-8.7,6.3-17.3,10.1-25.6
				C330.8,362.3,331.1,361.2,331.3,360z"/>
		</g>
	</g>
	<g>
		<g>
			<path d="M247.9,537.5c0,29.9-3.9,62.9-4.2,65.1c-1.1,8.5-23.6,9.6-23.9,0.6c-0.8-21.3,2.6-96.2,2.1-99.4
				C210,513.6,203,551,199,551.5c-0.2,6.5-25.6,8.5-26.1-2.7c-0.4-10.2,1.1-29.6,0.4-37.3c-10.9,20.8-16.6,74.8-18.8,87.3v0
				c0,1.7-0.1,3.3-0.3,5c-0.9,6.4-17.9,9.9-19.9,2.2c-10.6-40.8-6.7-111.6-6.1-116.7c1.2-10.2,27.6-4.1,26.7,4.1
				c-1,9.6-1.1,27-0.9,45.4c5.1-22.6,9.4-34.4,15.9-45.9c2.7-4.7,5.2-5.6,8.4-5.6c15.3,0,21.8,10.1,21.8,29c0,0.2,0,0.3,0,0.5
				c4.5-11.3,12.1-27.4,23.6-27.4C241.2,489.3,247.9,502.4,247.9,537.5z"/>
			<path d="M320.9,494.9c-1.7-0.3-25-1.6-36.7-1.4c-0.8,8.5-0.9,22.1-0.7,37c6.8,0,16.9,0.6,18.4,0.8c3.8,0.4,5,11,0.4,10.9
				c-2.4,0-13.2-0.6-18.7-0.9c0.3,21.3,0.9,43,0.8,54.4c11.3-0.2,33.7-0.3,34.5-0.2c4.8,0.3,4.3,11.9,0.7,12.3
				c-3.5,0.4-35.2,2.7-47.9,1.7v0c-3.6,0-6.8-1.2-7.6-4.3c-10.6-40.8-6.7-111.9-6.1-117c0.3-2.9,2.7-4.5,5.8-5.1
				c4.2-1.9,43.7-1.5,57.1,0.4C326.4,484,324.7,495.6,320.9,494.9z"/>
			<path d="M364.1,558.5c9.6,10.4,31,35.3,34,38.9c3.7,4.5-7.5,14.3-12,10.1c-4.3-3.9-21.8-25.3-30.3-36.7
				c0.2,16.2,0.4,29.3-0.2,33.1c-0.9,6.4-17.9,9.9-19.9,2.2c-10.6-40.8-6.7-111.6-6.1-116.7c0.9-8,17.5-5.9,24.1-0.7
				c2.6-0.9,6.5-1.7,12.1-1.7c16.1,0,37.3,11.3,37.3,33.1C403.2,538.3,382.2,554.6,364.1,558.5z M385,518.3c0-16.1-8.4-23.9-17-23.9
				c-4.4,0-8.7,1.1-12,2.1c-0.9,12.4-0.8,33.8-0.5,54.3C365.8,550.1,385,536.8,385,518.3z M355.7,559.6l0.2-0.2c-0.1,0-0.1,0-0.2,0
				L355.7,559.6z"/>
			<path d="M529.8,537.5c0,29.9-3.9,62.9-4.2,65.1c-1.1,8.5-23.6,9.6-23.9,0.6c-0.8-21.3,2.6-96.2,2.1-99.4
				C492,513.6,485,551,481,551.5c-0.2,6.5-25.6,8.5-26.1-2.7c-0.4-10.2,1.1-29.6,0.4-37.3c-10.9,20.8-16.6,74.8-18.8,87.3v0
				c0,1.7-0.1,3.3-0.3,5c-1,6.4-17.9,9.9-19.9,2.2c-10.6-40.8-6.7-111.6-6.1-116.7c1.2-10.2,27.6-4.1,26.7,4.1
				c-1,9.6-1.1,27-0.9,45.4c5.1-22.6,9.4-34.4,15.9-45.9c2.7-4.7,5.2-5.6,8.4-5.6c15.3,0,21.8,10.1,21.8,29c0,0.2,0,0.3,0,0.5
				c4.5-11.3,12.1-27.4,23.6-27.4C523.2,489.3,529.8,502.4,529.8,537.5z"/>
			<path d="M606,521.1c4.4,24.5,5.6,57.6,5.6,79.1c0,2.8-4.4,6.4-8.5,6.5c-4,0.1-7.3-3.2-7.7-5.2c-1-4.8-3-22.3-5.4-41.6
				c-7-0.2-19.2-0.1-25.6,0c-2.4,19.4-3,36-3.4,41c-0.9,10.4-25.3,11.9-25.3,0.5c0-34.8,12.4-119.6,42-119.6
				C597.2,481.8,601.8,497.8,606,521.1z M589,552.7c-2.9-23.5-6.1-47.6-8.3-54c-8,14.4-12.6,34.9-15.4,53.8
				C572,552.1,582.6,552.3,589,552.7z"/>
			<path d="M647.2,495c-0.9,7.2-4.5,96.7-4.6,102.2c-0.1,7.3-17.6,8.4-19.2,1.7c-0.8-3.3-6.2-85.4-2.4-108.4
				C622.6,480.5,648.3,485.6,647.2,495z"/>
			<path d="M737,536.7c0,43.9-18.9,65.8-44.1,65.8c-3.3-0.1-6.5-0.6-9.7-1.5c0,0.7-0.1,1.2-0.2,1.6c-0.9,6.4-17.9,10.2-19.9,2.5
				c-10.6-40.8-6.7-111.9-6.1-117c1.2-10.2,27.2-4.2,26.3,4c0,0.4-0.1,0.8-0.1,1.3c3.8-5.6,9.8-10,17.2-10
				C719,483.3,737,505.5,737,536.7z M711.6,530.5c0-22.5-5.8-38-8.5-38c-2.5,0-14.2,4-20.8,22.6c-0.2,25.1,1,59.3,1,77
				c1.3,0.8,2.7,1.2,4.2,1.1C690.1,593.2,711.6,589.8,711.6,530.5z"/>
		</g>
	</g>
	<g>
		<g>
			<path d="M271.8,667.5c0,26.2-26,50.8-53,49.2c-0.1,17.6-0.1,31.9-0.4,36.4c-0.9,10.8-21,12.4-23,3.3c-7.4-33.8-5.8-121.3-5-127.3
				c0.9-6.6,13.3-6.7,22.1-3.2C228.5,620.7,271.8,633.2,271.8,667.5z M243.1,667.7c0-19.4-8.2-32.3-22-31.4
				c-1.7,15.4-2.1,44-2.3,69.3C228.9,701.9,243.1,691.8,243.1,667.7z"/>
			<path d="M363.6,686.8c0,41.2-15.1,73.8-46.6,73.8c-21.2,0-41.8-18.7-41.8-63.8c0-43.4,17.5-72.3,42.7-72.3c0.9,0,1.9,0.2,2.8,0.5
				c0.7,0,1.4-0.1,2.2-0.1C351.9,625,363.6,652.4,363.6,686.8z M324.5,747c7.8-3.2,23-26.6,23-59.8c0-25.6-8.9-44.4-18.3-50.4
				c-5.1,3.6-22.6,20-22.6,62.1C306.6,713.7,311.3,736.1,324.5,747L324.5,747z"/>
			<path d="M441.4,639.1c-4.6,0.4-16.1,0.3-24.9,0.2c0.4,8.9-2.2,109.3-5.8,120.8c-3.3,10.4-23.3,9.5-24.3,1.7
				c-4.6-36-1.1-118.9-1.1-122.1c-4-0.2-13.9,0-19.3-0.5c-6-0.5-10.5-15.8-2.2-15.8c4.1,0,74,2,76.6,2.2
				C444.8,626,446,638.7,441.4,639.1z"/>
			<path d="M481.3,633.2c-1,8.4-5.2,112.2-5.3,118.6c-0.1,8.4-20.4,9.8-22.3,2c-0.9-3.8-7.2-99.1-2.8-125.8
				C452.8,616.4,482.6,622.3,481.3,633.2z"/>
			<path d="M577.1,686.8c0,41.2-15.1,73.8-46.6,73.8c-21.2,0-41.8-18.7-41.8-63.8c0-43.4,17.5-72.3,42.6-72.3c0.9,0,1.9,0.2,2.8,0.5
				c0.7,0,1.4-0.1,2.2-0.1C565.4,625,577.1,652.4,577.1,686.8z M538,747c7.8-3.2,23-26.6,23-59.8c0-25.6-8.9-44.4-18.3-50.4
				c-5.1,3.6-22.6,20-22.6,62.1C520.1,713.7,524.8,736.1,538,747L538,747z"/>
			<path d="M672.9,628.3c1,4,1.4,30.2,1.4,51.8c0,16.4-1.2,61.4-8,77.6c-2.6,6.2-11.3,8.9-16.6,8.9c-19.8,0-25.4-40.8-32.4-63.9
				c-0.1,1.4,0.8,48.7-0.3,57.5c-1.1,8.8-20.5,10.8-22.4,3.2c-10.9-43.9-9.9-125.4-7.5-136.7c1.1-4.8,6.7-5.8,13.8-5.8
				c9.7,0,12.8,4.7,15.7,7.5c7.3,6.9,30.7,103.1,31.2,95.3c0.5-7.8-0.9-85.4-0.7-93C647.4,622.9,670.7,619.1,672.9,628.3z"/>
		</g>
	</g>
	<g>
		<path d="M469.8,373.5c4.4,0.4,8.9,0.8,13.4,1.5c5.5,0.9,10.9,2,16.3,3.4c3.7,1,7.5,1.9,11.2,3.1c7.1,2.2,14.1,4.6,21.1,7
			c2.7,0.9,5.4,1.7,8.1,2.8c0.9,0.4,1.9,0.7,2.8,1.1c1.3,0.7,2.2,0.3,3.1-0.9c0.9-1.2,1.5-2.6,2.1-4c3.2-7,7.1-13.6,11.7-19.7
			c5.3-7.1,11.3-13.5,17.3-19.9c4.5-4.7,8.2-10,10.7-16.1c0.8-2.1,2.2-3.7,4.2-4.7c2.5-1.3,4.6-0.5,5.8,2c1.5,3.3,2.4,6.9,3.3,10.4
			c1.1,4.2,2.2,8.4,2.8,12.6c0.7,5.1,0.7,10.2-0.3,15.3c-1.3,6.9-4,13.1-8.4,18.5c-4.1,5.1-9.1,9-14.8,12c-3.9,2-7.9,3.9-12,5.6
			c-0.3,0.1-0.7,0.2-0.7,0.6c0,0.5,0.5,0.4,0.9,0.5c2.6,0.3,5.2,0.8,7.7,1.6c4.4,1.4,8.3,3.7,11.9,6.5c7.8,6.2,13.3,14.1,17.3,23.1
			c3,6.6,6.3,13,10.1,19.1c0.7,1.2,1.4,2.4,1.9,3.7c0.8,2.4-0.8,4.6-3.4,4.5c-0.9,0-1.8-0.2-2.5-0.7c-5.5-3.3-11.5-4.5-17.7-5.3
			c-6.1-0.8-12.1-2.1-17.7-4.6c-7.7-3.4-14-8.6-19.2-15.3c-3.1-4.1-5.7-8.5-8.3-12.9c-1.1-1.8-2.3-3.6-3.6-5.3
			c-1.6-2-3.6-3.1-6.1-3.5c-3.9-0.6-7.6,0.1-11.3,1.3c-7.9,2.5-15,6.4-22.1,10.6c-4.6,2.7-9,5.9-13.7,8.4
			c-5.7,2.9-11.6,5.3-17.7,7.3c-4.9,1.6-9.9,2.8-15.1,3.5c-9.4,1.2-18.6,0.6-27.5-3.1c-1.3-0.5-2.5-1.1-3-2.6
			c-0.3-0.9-0.1-1.6,0.7-2.3c8.9-7.6,14.5-17,15.1-29c0.3-6.6-1-13-4.5-18.7c-1.5-2.5-3-5.1-4.6-7.6c-0.7-1.1-1.6-2-2.6-2.7
			c-0.7-0.5-1.1-1-0.9-1.9c0.2-0.9,0.6-1.8,1.6-2.1c2.4-0.7,4.9-1.2,7.3-1.7c4.3-0.8,8.6-1.4,12.9-1.7
			C458.7,373.1,464.2,373.3,469.8,373.5z"/>
	</g>
</g>
</svg>


