<?xml version="1.0" encoding="utf-8"?>
<!-- Generator: Adobe Illustrator 18.0.0, SVG Export Plug-In . SVG Version: 6.00 Build 0)  -->
<!DOCTYPE svg PUBLIC "-//W3C//DTD SVG 1.1//EN" "http://www.w3.org/Graphics/SVG/1.1/DTD/svg11.dtd">
<svg version="1.1" xmlns="http://www.w3.org/2000/svg" xmlns:xlink="http://www.w3.org/1999/xlink" x="0px" y="0px"
	 viewBox="0 0 864 864" enable-background="new 0 0 864 864" xml:space="preserve" width="500" height="500">
<g>
	<g>
		<path d="M401.5,96.1c-1-3.4-4.2-5.1-6.4-4.9c-2.7,0-4.2,2.9-2.4,9.5c5.1,22.2-36.2,39.6-67.5,35.7c-0.2-18.3-23.5-24.9-32.3-10.3
			c-30.6-9.3-74.8-14.4-83.8,17.8c-2.4,12.2,9.8,12.7,10,3.2c9.8-25.9,46.2-17.6,70.6-10c-4.6,48.6,4.6,169.1,18.6,180.9
			c8.3,7.3,20.5,5.6,18.8-5.6c-2.2-16.1-7.8-122.7-2.9-166.2C371.4,150.1,409.8,127.6,401.5,96.1z"/>
		<path d="M466.8,218.8c6.8,0,12.2-5.4,12.2-12c0-6.6-5.4-12-12.2-12c-6.6,0-12,5.4-12,12C454.8,213.4,460.2,218.8,466.8,218.8z"/>
		<path d="M583.4,249.1c-0.7,15.6-8.8,24.2-19.8,29.6c-7.3-16.4-22.5-30.6-32.8-41.3c1-6.4,2.2-19.6-6.1-24.2
			c-3.2-2-21-6.4-27.6,9.5c-2.7,6.6-2.9,16.6,5.1,25.9c0.5,0.4,0.9,0.9,1.4,1.3c-1.2,4.4-16.1,55.7-27.5,57.8
			c-14.4,2.7-1.5-67.2-1.5-67.2c1.7-11.7-4.6-17.6-11.5-17.6c-5.9,0-12.5,4.9-13.9,14.9c-1.7,10.8-2.8,20.7-3.3,29.7
			c-5.6,19.1-15.2,47.5-23.1,49c-6.8,1.5-2.9-24.2-1.5-40.6c0-15.2,1-43-19.3-45.2c-11.7-1.5-24.7,14.4-31.3,34.5
			c0.5-6.6,1-14.2,1.7-24.4c34-18.1,57.4-103.4,21-103.9c-30.1-0.5-48.9,61.1-47.7,116.8c0.7,36.9,2.9,45.5,6.1,51.3
			c4.4,11,19.3,10,19.8-2.4c2.7-11.5,9.5-45.5,18.6-49.4c3.7-0.7,4.9,8.1,4.9,18.1c-1.2,32.3-4.9,58.4,21,60.4
			c12,0.8,22.8-18.1,30.5-38.4c2.7,18.8,10.6,29.6,24.5,29.6c19.7,0,34.1-43.7,39.3-66.4c10.6,10.3,19.5,20.1,25.8,31.5
			c-8.8,2.2-17.1,4.6-22.2,9c-25.7,21-4.4,52.1,21,48.4c33.7-4.9,41.6-38.4,31.8-58.4c12.5-6.6,22.5-17.1,24.4-36.9
			C592.4,243.7,583.9,240.8,583.4,249.1z M400,156.2c9.3,1-7.6,60.9-27.1,74.3C375.6,205.4,390,156.7,400,156.2z M533.3,336.6
			c-18.3,4.2-28.8-22.2-13.7-32.8c4.6-3.4,12.2-5.4,21-7.6C549.4,315.6,549.9,332.7,533.3,336.6z"/>
	</g>
	<g>
		<g>
			<path d="M262.2,374.2l29.4,145.3c0.4,1.9,0,3.9-1.2,5.4c-1.1,1.6-2.9,2.6-4.8,2.8l-21.8,2.6c-3.6,0.4-6.9-2-7.6-5.5
				c-4.9-24.1-9.8-48.2-14.6-72.3c-0.3-1.2-1.3-2.1-2.6-2.2c-1.3-0.1-2.4,0.8-2.8,2c-6.6,22.3-13.5,44.5-20.5,66.7
				c-0.9,2.9-3.6,4.9-6.7,4.8l-28.5-0.2c-3.1,0-5.9-2.2-6.6-5.2c-5.7-22.1-11.7-44.2-17.7-66.2c-0.3-1.2-1.5-2.1-2.8-2
				c-1.3,0.1-2.4,1-2.6,2.2c-4.6,23.3-9.2,46.7-13.8,70c-0.7,3.4-3.8,5.8-7.3,5.6l-22-1.5c-2-0.1-3.8-1.1-5-2.7
				c-1.2-1.6-1.7-3.6-1.3-5.5l28.2-142.7c0.6-3.2,3.4-5.5,6.6-5.6l29.3-0.8c3.2-0.1,6.1,2.1,6.9,5.2c6.7,26.2,13.9,52.2,21,78.3
				c0.3,1.2,1.4,2,2.6,2.1c1.2,0,2.3-0.8,2.7-2c7.8-26.1,15.5-52.3,23-78.4c0.8-2.9,3.5-5,6.5-5l27-0.4
				C258.7,368.6,261.6,370.9,262.2,374.2z"/>
			<path d="M303.7,409.5c-3.8-7.9-3.7-17.2,0.1-25.1c2.7-5.7,7.6-10,13.5-12c5.9-2,12.5-1.5,18,1.3c19,10.7,15.7,44.4-7.9,47.5
				C317.7,422.5,308,418.3,303.7,409.5z M340.1,435.7c1.3,1.3,2.1,3.1,2.1,4.9v73c0,1.9-0.7,3.6-2.1,4.9c-1.3,1.3-3.1,2-5,2l-22-0.3
				c-3.8-0.1-6.8-3.1-6.8-6.9V441c0-3.8,3-6.8,6.8-6.9l22-0.4C337,433.7,338.8,434.4,340.1,435.7z"/>
			<path d="M493.8,435.3c1.1,1.1,1.7,2.6,1.7,4.2l-0.2,23.9c0,1.5-1.2,2.7-2.8,2.7h-6.2c-1.5,0-2.8,1.3-2.8,2.8
				c-0.3,29.7-14.9,55-46.2,60.5c-98,15.4-103.8-157.1-13.8-167c31.7-2.9,51.3,18.7,57.8,46.7c0.5,2,0,4.2-1.3,5.8
				c-1.3,1.6-3.3,2.6-5.4,2.6l-21.2,0.2c-3.1,0-5.8-2-6.7-4.9c-4.5-14.3-15.1-20.7-30.8-12.6c-33.4,17.2-29.2,111.6,20.8,93.6
				c2.6-1.2,4.8-2.8,6.7-4.9c3.4-4.4,5.4-13.1,5.6-20c0-0.7-0.3-1.5-0.8-2c-0.5-0.5-1.2-0.8-2-0.8h-12.7c-3.2,0-5.9-2.6-5.9-5.8
				l-0.2-20.8c0-1.6,0.6-3.1,1.7-4.2c1.1-1.1,2.6-1.7,4.2-1.7h56.2C491.2,433.6,492.7,434.2,493.8,435.3z"/>
			<path d="M642.3,372.4c-3.8,50.9-7.5,101.8-11.3,152.6c-0.1,1.8-1,3.5-2.4,4.8c-1.4,1.2-3.2,1.8-5.1,1.6l-21.8-1.8
				c-3.8-0.3-6.6-3.6-6.3-7.4l3-40.9c0.1-0.8-0.2-1.5-0.7-2.1c-0.5-0.6-1.3-0.9-2-0.9h-43.2c-0.8,0-1.5,0.3-2,0.9s-0.8,1.3-0.7,2.1
				c0.9,13,1.9,26.1,2.8,39.1c0.3,3.8-2.5,7.1-6.3,7.4l-21.8,1.9c-1.8,0.2-3.7-0.4-5.1-1.6c-1.4-1.2-2.3-2.9-2.4-4.8
				c-3.6-49.6-7.1-99.3-10.7-148.9c-0.3-3.6,2.3-6.8,6-7.3l21.7-3c1.9-0.3,3.8,0.3,5.3,1.5c1.5,1.2,2.4,3,2.5,4.9l5,69.6
				c0.1,1.5,1.3,2.6,2.8,2.6h49.2c1.5,0,2.7-1.1,2.8-2.6l5.2-70.8c0.1-1.9,1-3.6,2.4-4.8c1.4-1.2,3.3-1.8,5.1-1.6l21.8,2.1
				C639.8,365.4,642.6,368.7,642.3,372.4z"/>
			<path d="M760.6,379.4c1.3,1.3,2,3.1,2,4.9l-0.1,22c0,3.8-3.1,6.9-6.9,6.9H725c-1.5,0-2.7,1.2-2.8,2.7c-0.7,33.1-1.4,66.3-2,99.4
				c-0.1,3.8-3.2,6.8-6.9,6.8h-22c-1.9,0-3.6-0.7-4.9-2.1c-1.3-1.3-2-3.1-2-5c0.7-33,1.4-66,2-99c0-0.7-0.3-1.5-0.8-2
				c-0.5-0.5-1.2-0.8-2-0.8h-26.4c-1.8,0-3.6-0.7-4.9-2c-1.3-1.3-2-3.1-2-4.9l0.1-22c0-3.8,3.1-6.9,6.9-6.9h98.2
				C757.5,377.4,759.3,378.1,760.6,379.4z"/>
		</g>
	</g>
	<g>
		<g>
			<path d="M166.6,651.6c-13.9,13.9-38.4,15.8-57.7,14.4c-2.4-0.2-4.2-2.1-4.3-4.5l-3.8-101.3c-0.1-2.5,1.8-4.6,4.2-4.8
				c18.6-1.8,43.5-1.6,53.1,16.2c4.6,9,4.4,19.7-0.6,28.4c-0.5,0.9-0.2,2,0.6,2.5c3.3,2,6.3,4.5,8.8,7.5
				C177.1,622.3,178,639.7,166.6,651.6z M126.5,592.3c0.4,0.3,1,0.5,1.5,0.4c12.3-2.9,13.5-12.5-0.5-13.8c-0.5,0-1.1,0.1-1.4,0.5
				c-0.4,0.4-0.6,0.9-0.6,1.4c0.1,3.4,0.2,6.7,0.3,10.1C125.8,591.5,126,592,126.5,592.3z M146,637.2c5.7-3.2,6.9-8.3,1.3-13.1
				c-4.4-3.7-11.9-5.2-18.5-6.3c-0.6-0.1-1.1,0.1-1.5,0.4s-0.7,0.9-0.6,1.5l0.6,20.4c0,0.5,0.2,1,0.6,1.3c0.4,0.3,0.9,0.5,1.4,0.5
				C135.1,641.3,141,640,146,637.2L146,637.2z"/>
			<path d="M254.4,655.9c0.1,1.3-0.4,2.5-1.3,3.4c-0.9,0.9-2.1,1.4-3.3,1.5c-20.2,0.1-40.4,0.3-60.6,0.4c-1.2,0-2.4-0.5-3.3-1.3
				c-0.9-0.9-1.4-2.1-1.4-3.3l-0.3-91.8c0-2.5,2-4.6,4.6-4.7c18.9-0.3,37.8-0.6,56.7-0.9c2.5,0,4.5,1.8,4.7,4.3l1.2,14.8
				c0.1,1.3-0.3,2.5-1.2,3.5c-0.9,1-2.1,1.5-3.4,1.5c-12.6,0.2-25.2,0.4-37.8,0.6c-0.5,0-1,0.2-1.3,0.6c-0.3,0.4-0.5,0.8-0.5,1.3
				c0.1,6.2,0.2,12.5,0.3,18.7c0,0.5,0.2,1,0.6,1.4c0.4,0.3,0.9,0.5,1.4,0.4c9-1,17.9-2.1,26.9-3.4c2.3-0.3,4.5,1.1,5.1,3.3
				l4.2,14.2c0.4,1.3,0.2,2.7-0.5,3.8c-0.7,1.1-1.9,1.9-3.3,2.1c-10.9,1.5-21.7,3-32.6,4.3c-1,0.1-1.7,1-1.6,2l0.2,2.7
				c0.1,1,0.9,1.8,1.9,1.8c13.1-0.1,26.2-0.2,39.3-0.3c2.5,0,4.6,1.9,4.7,4.4L254.4,655.9z"/>
			<path d="M370.6,559.2c0.8-2.2,3-3.5,5.3-3.1l14.6,2.9c1.3,0.3,2.5,1.1,3.2,2.3c0.7,1.2,0.8,2.6,0.3,3.9
				c-11.3,31.7-22.6,63.5-33.9,95.2c-0.7,1.8-2.4,3.1-4.3,3.1l-19.6,0.3c-2.2,0-4.1-1.4-4.6-3.5c-7.8-31.1-15.7-62.2-23.5-93.3
				c-0.6-2.5,0.9-5,3.3-5.6l14.3-3.8c1.2-0.3,2.5-0.1,3.6,0.5c1.1,0.6,1.9,1.7,2.1,2.9c4.8,19.8,9.7,43,14.5,63
				c0.2,0.8,0.9,1.4,1.7,1.4c0.8,0,1.6-0.5,1.8-1.3C356.5,603.5,363.6,579.5,370.6,559.2L370.6,559.2z"/>
			<path d="M440.7,656.4c-17.3,2.4-34.4-5.4-41.9-21.6c-7-14.9-6.3-31.5,0.2-46.3c9.3-21.1,34.8-31.2,55.7-19.7
				C488.2,588.6,482.4,650.6,440.7,656.4z M448.5,626.1c8.7-11.6,3-43.1-17-37.4c-8.8,2.5-13,12-13.7,20.4c-0.6,7.8,1.2,18.1,8.8,22
				C434.2,634.8,443.3,632.7,448.5,626.1L448.5,626.1z"/>
			<path d="M561.5,634.6c-15.9,24.8-43.5,30.5-70.7,29.9c-2.6-0.1-4.6-2.2-4.5-4.8l2-98.2c0-2.4,2-4.4,4.4-4.6
				c13.5-0.7,27.2,0,39.8,5c13.6,5.5,26.2,15,32.4,28.7C571.2,605,570,621.5,561.5,634.6z M515.2,581.9c-0.9-0.2-1.8,0.1-2.5,0.6
				c-0.7,0.6-1.1,1.4-1.1,2.3l-1.4,51.4c0,0.9,0.4,1.9,1.1,2.5c0.7,0.6,1.7,0.9,2.6,0.7c3.5-0.7,6.8-1.7,10-3.2
				C558,620.4,547.6,588.2,515.2,581.9z"/>
			<path d="M672.3,646.3l-5.2,13.7c-0.5,1.2-1.4,2.2-2.6,2.6c-1.2,0.5-2.5,0.5-3.7-0.1l-53.7-24.4c-0.6-0.3-1.3-0.2-1.8,0.2
				c-0.5,0.4-0.8,1-0.8,1.6c0.3,6.4,0.5,12.7,0.8,19.1c0.1,2.5-1.8,4.7-4.4,4.8l-14.7,0.9c-1.2,0.1-2.5-0.4-3.4-1.2
				c-0.9-0.8-1.5-2-1.5-3.3c-1.3-31.9-2.6-63.7-3.8-95.6c-0.1-2.5,1.8-4.6,4.3-4.8l14.7-1.1c1.3-0.1,2.5,0.3,3.4,1.2
				c0.9,0.8,1.5,2,1.6,3.3c0.4,9.4,0.8,18.7,1.1,28.1c0,0.8,0.5,1.5,1.3,1.7c0.7,0.2,1.6,0,2-0.6l33.7-43.1c0.8-1.1,2.1-1.7,3.4-1.8
				s2.7,0.4,3.6,1.4l10.2,10.6c1.6,1.7,1.7,4.3,0.3,6.1l-38.3,49c-0.4,0.5-0.5,1-0.3,1.6c0.1,0.6,0.5,1,1,1.3l50.4,22.9
				C672.1,641.4,673.2,644,672.3,646.3z"/>
			<path d="M762.4,659.7c-0.8,1.2-2,1.9-3.4,2.1l-15,1.6c-2.2,0.2-4.3-1.1-4.9-3.2l-5-16c-0.4-1.3-1.6-2.2-3-2.2h-25.7
				c-1.4,0-2.6,0.9-3,2.2c-1.6,5-3.2,10.1-4.8,15.1c-0.6,2.1-2.6,3.4-4.8,3.3l-15.1-1.2c-1.4-0.1-2.7-0.9-3.5-2s-1-2.6-0.6-4
				l28.7-93.3c0.6-1.9,2.3-3.2,4.3-3.3l21.9-0.5c2.1-0.1,3.9,1.3,4.6,3.3c9.9,31.4,19.8,62.8,29.7,94.3
				C763.4,657.1,763.2,658.6,762.4,659.7z M724.1,616.7c0.6-0.8,0.8-1.8,0.5-2.8c-1.7-5.4-3.4-10.8-5.1-16.3c-0.2-0.6-0.7-1-1.4-1
				c-0.6,0-1.2,0.4-1.4,1l-5,16.3c-0.3,0.9-0.1,2,0.5,2.8c0.6,0.8,1.5,1.3,2.5,1.3h6.9C722.6,618,723.5,617.5,724.1,616.7z"/>
		</g>
	</g>
	<path d="M186.3,269.4c19.4,12.9,31.2,27.4,26.7,33.7c-1.5,1.8-4.1,1.9-12.4,0.1c-15.3-4-25.2-7.7-39.8-15
		c-9.2-4.9-14.4-7.7-17.6-10.4c-9.2-6.9-13.7-12.9-12.7-17.6c1.2-7.1,10.8-9.7,24.3-6.1c5.4,1.4,15.5,5.7,23.7,10.5
		C181.3,266.2,184.1,267.7,186.3,269.4z M196.8,318.1c7,4.2,8.5,8.1,4.6,10.7c-3.1,2-14.8,6.5-20.1,7.8c-9.8,2-21.3,1.5-31.6-1.4
		c-6.6-2-9.4-3.5-11.6-6.2c-2.6-2.9-3.7-6.6-2.6-9.6c2.6-6.8,12.6-10.2,29-9.2c12.2,0.3,22.3,2.6,29.5,6.4
		C195.4,316.9,196.2,317.3,196.8,318.1z M234.9,272.6c0.4,16.6,0.3,18.7-1.3,19.8c-1.9,1.6-3.5,0.7-8.2-3.9
		c-16-15.2-25.7-35.7-25.2-55c0.6-17.6,9.7-29.8,18.9-24.9C228.6,213.8,234.1,236.3,234.9,272.6z M251.1,311.6
		c2.9,4.1,3.8,8.2,2.1,13.4c-1.8,5.2-3.2,7-7.9,9.1c-4.1,1.9-7.4,2.3-12.4,1.1c-4.7-0.9-6.4-2.4-8.6-5.1c-1.5-2.9-1.5-5.9-0.1-11.4
		c0.9-3.6,1.3-4.4,3.8-7.2c2.9-3.6,7.3-5.9,11.5-6.2c2.2-0.4,4.3-0.3,6.3,0.8S249.4,309.1,251.1,311.6z"/>
	<path d="M691.6,261.5c8.2-4.9,18.2-9.2,23.7-10.5c13.5-3.6,23.1-1,24.3,6.1c0.9,4.6-3.6,10.6-12.7,17.6c-3.2,2.7-8.4,5.5-17.6,10.4
		c-14.6,7.3-24.5,11-39.8,15c-8.3,1.8-10.9,1.7-12.4-0.1c-4.4-6.4,7.4-20.9,26.7-33.7C686,264.5,688.8,263,691.6,261.5z
		 M676.1,313.5c7.2-3.8,17.3-6.1,29.5-6.4c16.4-1,26.4,2.4,29,9.2c1.1,3,0,6.7-2.6,9.6c-2.2,2.7-5,4.2-11.6,6.2
		c-10.3,2.9-21.8,3.4-31.6,1.4c-5.3-1.3-17-5.9-20.1-7.8c-3.9-2.5-2.4-6.4,4.6-10.7C673.9,314.1,674.7,313.7,676.1,313.5z
		 M651.1,205.5c9.2-4.9,18.2,7.2,18.9,24.9c0.5,19.3-9.1,39.8-25.2,55c-4.8,4.6-6.4,5.4-8.2,3.9c-1.7-1.2-1.7-3.2-1.3-19.8
		C635.9,233.1,641.5,210.6,651.1,205.5z M624.3,303c2-1.1,4-1.1,6.3-0.8c4.3,0.3,8.6,2.6,11.5,6.2c2.5,2.8,2.9,3.6,3.8,7.2
		c1.4,5.4,1.4,8.5-0.1,11.4c-2.2,2.7-4,4.2-8.6,5.1c-5,1.1-8.3,0.8-12.4-1.1c-4.7-2.1-6.2-3.9-7.9-9.1c-1.7-5.2-0.8-9.3,2.1-13.4
		C620.7,305.9,622.3,304.1,624.3,303z"/>
	<path d="M600.7,724c2.8,3.3,5.6,6.5,7.5,10.4c3.2,6.8,4.7,13.9,2.8,21.4c-1.7,6.8-5.8,11.8-12.2,14.8c-10.8,5.1-22.3,0-25.6-11.5
		c-2.5-8.8-1-16.9,4.3-24.3c2-2.9,4.5-5.4,7.2-7.8c1.2-1,2.4-2.1,3.9-3.5c-4.9-3.3-10.1-4.6-15.5-5.3c-9.5-1.3-18.7,0.2-27.8,3.1
		c-11.3,3.6-21.7,8.9-32.3,14.2c-9.3,4.7-18.7,9.2-28.8,12.3c-7.4,2.3-14.8,3.7-22.5,3.8c-1.7,0-3.1,0.3-4.4,1.5
		c-12.1,10.6-26.6,15.8-42.3,18.3c-19.7,3.2-39,1.5-57.7-5.6c-11.3-4.3-21.5-10.2-29.8-19.1c-1.3-1.4-2.5-2.2-4.5-2.1
		c-17.2,0.6-33.1-4.3-48.4-11.7c-11.9-5.7-23.7-11.8-35.6-17.6c-10.6-5.2-21.7-9-33.5-10.7c-13-1.9-25.6-0.8-36.9,6.7
		c-6.8,4.6-11.9,10.6-13.4,18.9c-1.5,8.4,1.5,15.4,7.6,21.1c5.4,5.1,11.9,7.4,19.3,7.1c8.8-0.3,16.4-3.3,22.5-9.7
		c2.4-2.5,4-5.4,5-8.7c1.6-5.2-1.5-11.4-7.7-13.6c-1.7-0.6-3.4-0.3-5.2,0.2c-2.4,0.8-3.8,0.2-4.3-1.5c-0.7-2.1,0.8-3,2.2-3.8
		c5.1-3,10.2-2.4,15,0.7c6.6,4.2,9.4,12.2,7.1,20.2c-2.1,7.6-6.9,13.2-13.5,17.4c-9.4,6-19.6,7.9-30.4,5.5
		c-15.2-3.4-26.2-17.8-25.1-32.9c0.8-11.7,7.2-20.3,16.5-26.9c6.6-4.7,14.2-7,22.2-8c16.2-2.1,31.6,1.6,46.5,7.7
		c11.9,4.8,23,11.1,34.5,16.8c11.6,5.8,23.3,11.3,36.1,14c5.2,1.1,10.4,1.9,15.8,1.7c0.3-2-1-3.2-1.7-4.5c-5.6-11.5-7-23.3-2.9-35.5
		c4.8-14.1,16.8-22.5,31.6-22.1c15.9,0.5,27.8,13.2,25.7,30.3c-2.1,17.2-12.2,28.5-28.1,34.9c-3,1.2-6.1,2-9.3,3
		c0.3,2.1,2,2.9,3.3,3.9c9.6,7.7,20.5,12.6,32.4,15.5c20.2,5,40.2,4.4,60-2c5.3-1.7,10.4-4.2,15.1-7.1c1.2-0.8,2.6-1.3,3.4-3.1
		c-1.2-0.9-2.6-1-3.9-1.5c-12-4-21.4-11.2-26.2-23.1c-4.3-10.7-3.5-21.4,2.7-31.3c5.7-9.1,15.9-13.2,26.3-10.9
		c14.4,3.2,24.1,14.2,25.5,29c1,10-1,19.3-6,28c-0.6,1.1-1.7,2.1-1.8,3.8c3.8,0.8,7.4-0.5,11-1.3c12-2.7,23-8,33.9-13.5
		c11.6-5.8,23.1-11.7,35.6-15.2c10.9-3.1,21.9-4.2,33.1-1.5c4.5,1,8.8,2.5,12.7,4.9c2.3,1.4,3.8,1.1,6-0.2
		c14.8-8.9,30.8-14.5,48-16.6c14.3-1.7,28.5-1.4,42.2,3.6c7.4,2.7,14.1,6.6,19.5,12.5c18.4,19.8,5.4,48-14.5,53.4
		c-10.3,2.8-19.6,0.5-27.1-7.3c-7.2-7.5-7.9-19.2-1.8-27.6c4-5.5,9.6-7.7,16.3-6.3c6.9,1.4,12.2,6.7,13.3,13.2
		c0.3,1.9,0.2,3.6-1.8,4.4c-1.9,0.8-4-0.2-5-2.3c-0.3-0.7-0.4-1.4-0.7-2.1c-1.5-3.7-4.3-5.5-8.1-5.9c-3.8-0.4-6.6,1.3-8.5,4.4
		c-2.8,4.7-2.9,9.5-0.1,14.2c4.2,7,13.4,10.3,21.6,7.7c14.6-4.6,24.4-24.3,12.1-39.5c-5.8-7.2-13.7-10.9-22.4-13.3
		c-14.8-4.1-29.7-3.7-44.6-0.7c-11.7,2.4-22.8,6.7-33.3,12.5C602.2,722.3,601.3,722.6,600.7,724z M345,682
		c-11.4-0.1-21.2,7.3-24.5,18.7c-3.5,12.2-1,23.5,5.7,34.1c1.2,2,2.8,2.4,4.9,2c3.5-0.7,6.9-1.4,10.2-2.7
		c13.2-5.4,21.8-14.8,23.8-29.3C367,691.8,358.2,682.1,345,682z M467.6,717.2c0.3-12.7-7.1-23.4-18.7-27c-9.9-3.1-19.2,0.9-23.7,10
		c-5.1,10.5-3.3,23.5,4.5,32.1c6.4,7.1,14.6,10.7,23.8,12.4c2.1,0.4,3.3-0.6,4.5-2.1C463.9,735.2,467.3,726.8,467.6,717.2z
		 M578.2,752.1c0.1,0.9,0.2,2.2,0.4,3.5c0.9,5,3.4,8.9,8.5,10.2c5.4,1.4,10.1-0.2,13.8-4.5c1.9-2.3,3.2-4.9,3.9-7.8
		c2.2-10.1-1.9-18-8.8-24.9c-1.2-1.2-2.3-0.9-3.5,0c-4.8,3.5-8.9,7.6-11.7,12.9C579.1,744.6,578.4,748.1,578.2,752.1z"/>
</g>
</svg>


