<?xml version="1.0" encoding="utf-8"?>
<!-- Generator: Adobe Illustrator 18.0.0, SVG Export Plug-In . SVG Version: 6.00 Build 0)  -->
<!DOCTYPE svg PUBLIC "-//W3C//DTD SVG 1.1//EN" "http://www.w3.org/Graphics/SVG/1.1/DTD/svg11.dtd">
<svg version="1.1" xmlns="http://www.w3.org/2000/svg" xmlns:xlink="http://www.w3.org/1999/xlink" x="0px" y="0px"
	 viewBox="0 0 864 864" enable-background="new 0 0 864 864" xml:space="preserve" width="500" height="500">
<g>
	<g>
		<path d="M170.5,238.3c-0.6,3.8-1.4,7.6-2.6,11.3c-3.7,11.9-16.8,25.7-29.5,15.5c-9.7-7.8-12.5-23.5-14.3-35
			c-0.4-2.6-0.6-5.2-0.9-7.8c-0.8-8.1-0.9-16.2-0.7-24.3c0.1-2.9,0.2-5.7,0.3-8.5c0.3-7.7,1.7-21.3,2.5-28.9c0.3-2.9,0.3-7.6,1.8-10
			c0.7-1.1,1.6-1.9,2.9-2.4c0.7-0.2,1.5-0.5,2.2-0.7c1.7-0.3,3.4-0.3,5,0c1.8,0.4,4.1,1.3,5,3.1c0.4,0.7,0.5,1.5,0.3,2.2
			c-2.2,21.8-5,49.4-3.4,71.3c0.5,6.5,1.2,13.1,2.2,19.5c0.7,4.8,1.1,9.9,3.2,14.3c0.9,1.8,2.2,4,4.5,4.1c3.4,0.3,5.6-4,7-6.5
			c8-14.4,7.3-34.1,6.5-49.9c-0.5-10.9-1.3-21.8-2.5-32.7c-1.1-10.9-2.6-21.9-2.3-32.9c0.1-2.7,3.6-3.5,5.7-3.5
			c2.3,0,5.4,0.9,5.7,3.5c0,7.5,1,15.2,1.4,22.8c0.4,8.1,0.8,16.2,1.2,24.3C172.5,204.3,173.4,221.3,170.5,238.3z"/>
		<path d="M194,267.6c-2.5-2.5-3.5-7-4.5-10.3c-0.7-2.3-1.2-4.7-1.7-7.1c-0.9-4.4-1.7-8.8-2.3-13.2c-0.7-5.2-1.4-10.4-1.8-15.6
			c-0.5-5.9-0.9-12-1.2-17.8c-0.3-5.1-0.4-17.2-0.4-22.3c0-2.7,0-11.3,0-14.1c0.1-3,0.1-6.1,0.4-9c0.3-4.7,6.6-6,10.2-5.1
			c1.8,0.4,4,1.4,4.9,3.4c0.3,0.6,0.4,1.1,0.4,1.7c-0.1,13,0.5,26.3,1,39.3c0.1,1.7,0.1,3.5,0.2,5.2c0.3-1.8,0.6-3.6,0.9-5.4
			c1.4-8.1,3-16.1,5.1-24.1c1.4-5.4,2.8-10.8,4.6-16c2.3-6.6,4.4-13.9,8.9-19.4c3.5-4.3,9.4-7.1,14.9-4.9c7.3,3,8.9,12.2,10.2,19.1
			c2.9,15.8,1.3,32.1,0.8,48.1c-0.3,10.2-1.5,20.4-2.1,30.6c-0.4,5.7-0.7,11.5-0.9,17.2c-0.1,2.4-0.2,4.7-0.3,7.1
			c-0.2,3.3-1,6.6-1.2,9.9c-0.1,1-0.4,1.8-1.1,2.4c-2.5,2.2-7,2.5-9.5,0c-0.7-0.6-1.1-1.4-1.1-2.4c-0.5-3.8-0.8-7.5-0.6-11.4
			c0.5-10.3,1.3-20.6,2.2-30.9c1.1-12.8,2.3-25.6,3.2-38.4c0.9-12.8,1.4-25.9-1.3-38.6c-0.8-3.6-2.5-9.4-6-4.4
			c-3.5,5.1-5.1,11.1-6.6,17c-1.6,6.2-3.2,12.6-4.5,18.8c-2.7,12.4-4.8,25.1-6.2,37.7c-0.5,4.9-1,9.9-1.2,14.8
			c-0.2,5.2-0.5,10.4-0.5,15.6c0,4.5,0,9,0,13.5c0.1,4.4,1,10-4.5,11.3C199.8,270.4,195.9,269.5,194,267.6z"/>
		<path d="M301,225.5c-1.5,5.2-3,10.3-5.2,15.2c-2.2,4.8-4.7,9.5-8,13.6c-4.6,5.8-11.6,14.4-19.8,14.5c-2.3,0-4.7-0.7-5.9-2.7
			c-1.1-3.4-2-7-2.6-10.6c-0.4-2.4-0.7-4.7-1-7.1c-0.6-5.2-1.1-10.4-1.4-15.7c-0.7-10.7-1.1-21.4-1-32.1c0.1-19,1.6-37.9,4-56.7
			c0.4-2.9,0.9-5.8,2.2-8.4c1.1-2.3,2.4-3.2,4.9-3.7c10.7-2.2,21.1,7,26.6,15.1c3.2,4.7,5.7,9.9,7.4,15.3c0.9,2.9,1.7,5.8,2.3,8.8
			C307.1,189.1,306,208,301,225.5z M284.5,154.5c-1.4-2.6-3-5-4.8-7.3c-0.8-1.1-1.7-2.1-2.7-3c-0.4-0.4-3.4-2.6-3.3-2.9
			c-0.8,9.2-1.7,18.5-2.4,27.7c-0.1,1.2-0.1,2.4-0.2,3.6c-0.2,3.5-0.3,6.9-0.4,10.4c-0.5,16.2-0.3,32.4,0.9,48.5
			c0.4,5.5,0.9,11.1,1.5,16.6c0.2,2,0.5,4.1,0.7,6.1c0.4-0.4,0.8-0.7,1.2-1.1c5.1-5.1,8.7-12.3,11.2-19c3.3-8.9,4.8-18.6,5.8-28
			C293.8,188.7,293,170.1,284.5,154.5z"/>
		<path d="M390.1,161.4c-4,9-8,18-11,27.4c-3,9.8-5.9,19.6-8.5,29.5c-3.1,11.7-5.4,23.6-9,35.1c-2.8,8.6-7.8,22.6-19.7,18.7
			c-5.6-1.8-8.9-7.4-11.1-12.6c-0.7-1.6-1.2-3.2-1.9-4.8c-5.3-14-9.1-28.9-11.6-43.7c-3.6-21.9-8.5-48.5,4.6-68.5
			c1.2-1.9,2.6-3.7,4.1-5.4c0.9-1,1.9-2,3-2.8c5.8-4.6,13.3-6.1,20.4-3.9c9,2.7,16.4,10.4,19.3,19.2c2,6,2.3,13.3-1.1,18.9
			c-4.3,7.2-13.3,7.7-20.9,8.3c-5.2,0.4-10.7,0.5-15.8,0.4c-0.7,0-1.5,0-2.2,0c1,25.7,8.3,51.9,16,76.2c0.5,1.5,1,3.1,1.5,4.6
			c0.2,0.6,0.4,1.2,0.6,1.7c2.8-5.2,4.2-11.3,5.9-17c1.9-6.1,3.6-12.3,5.3-18.5c3.4-12,6.7-24.3,10.5-36.1
			c3.2-9.8,6.4-19.9,11.4-28.9c1.2-2.2,4.5-2.5,6.7-2.1C388.6,157.6,391.1,159.1,390.1,161.4z M328.7,170.9c0.6,0,1.2,0,1.8,0
			c2.2,0,4.3,0,6.5-0.1c6.7-0.2,19,1.4,22.6-6.1c1.5-3.1,1.4-6.7,0.7-10c-1.4-6.4-5.3-13.4-10.8-16.9c-4.4-2.8-9-1.1-12,2.8
			c-3.3,4.3-5.4,9.2-6.9,14.4C329.4,160.3,328.8,165.6,328.7,170.9z"/>
		<path d="M407.2,187c-1,0.1-1.9,0.2-2.9,0.3c7.5,15.5,13.2,32.1,18.4,48.5c3.4,10.5,6.6,21.2,8.4,32.1c0.2,1.3-1.4,2.4-2.3,2.8
			c-2,0.9-4.7,0.8-6.6,0c-0.9-0.4-1.5-0.9-2-1.7c-1.4-2.2-1.8-5.6-2.5-8.1c-0.8-3-1.5-6-2.3-9c-1.6-6.1-3.3-12.3-5.1-18.4
			c-3.6-12-7.8-23.9-13.1-35.3c-0.7-1.6-1.5-3.2-2.3-4.8c0,1.6,0.1,3.2,0.1,4.8c0.3,10.2,1.1,20.5,2.3,30.7
			c1.4,11.4,3.7,22.7,4.8,34.1c0.1,1.4-1.4,2.5-2.5,3c-2.2,1-4.9,0.9-7.2,0c-0.9-0.4-1.6-1-2.2-1.8c-1-3.1-2.1-6.2-2.8-9.4
			c-1.5-6.6-2.7-13.3-3.6-20c-1.2-9-2.1-18-2.7-27.1c-0.6-8.8-0.8-17.6-0.6-26.5c0.3-13.5,1-27,4.8-40c0.5-1.5,0.9-3,1.7-4.4
			c1.3-2.3,4.2-3.3,6.7-3.1c1.9,0.1,4.5,0.5,5.5,2.5c0.9,1.7,3.5,0.9,5.4,0.9c2.6,0.1,5.1,0.4,7.6,0.9c9.5,2,18.6,8.4,19.8,18.8
			c0.3,2.4,0.3,4.9-0.3,7.2C429,175.6,419.3,185.6,407.2,187z M412.6,175.1c3.3-2.8,6.3-7.3,7.2-11.5c1.1-4.9,0.6-10.7-3-14.5
			c-4.5-4.8-11.5-6.2-17.8-5.5c-0.2,0-0.5,0.1-0.7,0.1c-0.7,0.1-1.6,11.5-1.8,12.9c-0.5,4.8-1,9.5-1.2,14.3
			c-0.1,2.5-0.2,5.1-0.3,7.6c0.9-0.1,1.8,0,2.7,0.2c0.1,0,0.3,0,0.4,0C403.9,179.1,408,179.1,412.6,175.1z"/>
		<path d="M509,161.9c-2.2,5.9-4.3,11.7-6.2,17.7c-7.2,22.7-10.7,46.3-17.8,68.9c-1.8,5.7-3.7,12-8.7,15.7c-6,4.5-14.6,1.6-18.6-4.1
			c-1.4-2-2.6-4.2-3.6-6.4c-3.3-7.7-6.1-15.7-7.9-23.9c-3.3-14.3-5.6-28.7-6.2-43.4c-0.5-11.6,0.3-23.5,4.5-34.5
			c2.7-7.1,8.2-14.5,15.4-17.5c7.6-3.1,17.6,0.9,20,9.1c1.8,6.3,2.1,13.1,0.8,19.5c-0.5,2.5-0.9,6.4-3.3,7.9c-1.6,1-3.7,1.6-5.6,0.8
			c-0.9-0.4-1.3-1.3-2.3-1.6c-0.2-0.7-0.3-1-0.2-1.7c0.4-3,0.5-6.1,0.5-9.1c0-3.3,0.7-15.6-4.5-15.9c-4.9-0.3-6.5,8-7.5,11.5
			c-1.4,4.9-2.2,10-2.6,15.1c-0.7,10.1,0.2,20.5,1.5,30.4c2.3,17.9,6.9,35.2,12.2,52.4c0.4,1.4,0.9,2.8,1.5,4.2
			c2.1-3,3.6-6.4,4.8-9.9c6.4-17.7,9.6-36.6,14.5-54.6c1.5-5.4,3-10.9,4.7-16.3c1.7-5.5,3.4-11.1,5.5-16.5c0.8-2,4.4-2.2,6-1.9
			c1.1,0.2,2.5,0.8,3,1.9C509.3,160.6,509.3,161.3,509,161.9z"/>
		<path d="M573.5,168.5c-0.9,1.7-3.4,2.4-5.2,2.3c-2-0.1-20.3-4.6-20.3-4.9c0,0.6,0,1.2,0.1,1.9c0.1,2.9,0.2,5.7,0.2,8.6
			c0,2.7-0.1,5.5-0.2,8.2c-0.2,5.1-0.7,10.2-1.3,15.3c-0.3,2.5-0.6,4.9-0.9,7.4c-2.1,14.1-4.4,28.2-9.7,41.5
			c-3.3,8.4-9.4,17.8-19.9,16c-10.1-1.8-14.5-14.8-16.5-23.4c-0.3-1.5-0.7-3-1-4.4c-0.6-2.7-1.1-5.4-1.5-8.1
			c-3.7-22.6-1.7-46.1,3.8-68.2c1.2-4.6,2.3-9.5,7.7-10.7c2.4-0.5,5.2-0.3,7.5,0.7c4.4,2.1,3,5.2,2,9c-5.9,21.8-7.3,45.5-4.9,67.9
			c0.8,7.1,1.6,14.2,3.3,21.2c0.7,2.5,1.4,5.5,3,7.6c2.8-2.1,4.8-7.4,6-10.6c9.3-24.4,12.4-52,12.2-77.9c0-1.7-0.1-3.4-0.2-5.2
			c0-0.1-2.5-1-2.6-1.1c-3.9-1.8-7.7-3.9-11-6.7c-4-3.6-7.5-7.9-9.1-13.2c-1.4-4.8-1.4-10.2,2.9-13.5c2.7-2,6.2-2.4,9.4-1.8
			c10.8,1.9,15.5,13.6,18,22.9c0.8,2.9,1.4,5.9,1.9,8.9c0.1,1,9.6,2.9,10.6,3.2c4,1.1,8.1,2.2,12.3,2.9
			C571.9,164.5,574.6,166.3,573.5,168.5z M536.5,153.7c-1-5.1-2.9-9.9-5.6-14.4c-0.4-0.6-4.2-7.1-5.2-6c-1.2,1.3-0.6,4.4-0.3,6
			c0.9,3.1,2.5,6.1,4.6,8.6c0,0,0.1,0.1,0.1,0.1c1,1.2,2.1,2.2,3.2,3.2C533.8,151.7,536.4,153.2,536.5,153.7z"/>
		<path d="M620.9,139.4c-2.9,11.5-5.8,23-8.1,34.7c-4.6,23.4-8.2,47.1-11.6,70.7c-0.5,3.2-0.6,11.8-2.6,17.9
			c-1.6,4.7-4.3,7.9-9.3,5.7c-3.3-1.4-4.6-5.1-5.7-8.2c-0.4-1.3-0.9-2.6-1.4-3.8c-5.5-15.6-9.2-32-11.6-48.4
			c-0.8-5.7-1.6-11.3-2.4-17c-0.7-5.2-1.4-10.4-1.9-15.7c-0.6-5.6-1.1-11.1-1.5-16.7c-0.4-5-1-10.5-0.1-15.5
			c0.1-0.8,0.3-1.6,0.6-2.4c2.4-3.3,6.1-4.3,10-3.6c1.4,0.3,2.6,0.8,3.7,1.7c0.9,0.7,1.4,1.6,1.5,2.8c0.5,18.6,2.1,37.1,4.4,55.5
			c1.2,10.3,2.6,20.6,4.2,30.9c0.8,5.2,1.6,10.4,2.4,15.6c0.4-3.6,0.9-7.1,1.4-10.7c2.9-20.7,6.4-41.4,10.2-61.8
			c0.9-5,1.9-9.9,3-14.8c1.3-5.9,2.7-11.9,4.7-17.7c1.2-3.3,7.4-2.4,9.3-0.9C620.5,138,620.9,138.6,620.9,139.4z"/>
		<path d="M699.1,161.4c-4,9-8,18-11,27.4c-3,9.8-5.9,19.6-8.5,29.5c-3.1,11.7-5.4,23.6-9,35.1c-2.8,8.6-7.8,22.6-19.7,18.7
			c-5.6-1.8-8.9-7.4-11.1-12.6c-0.7-1.6-1.2-3.2-1.9-4.8c-5.3-14-9.1-28.9-11.6-43.7c-3.6-21.9-8.5-48.5,4.6-68.5
			c1.2-1.9,2.6-3.7,4.1-5.4c0.9-1,1.9-2,3-2.8c5.8-4.6,13.3-6.1,20.4-3.9c9,2.7,16.4,10.4,19.3,19.2c2,6,2.3,13.3-1.1,18.9
			c-4.3,7.2-13.3,7.7-20.9,8.3c-5.2,0.4-10.7,0.5-15.8,0.4c-0.7,0-1.5,0-2.2,0c1,25.7,8.3,51.9,16,76.2c0.5,1.5,1,3.1,1.5,4.6
			c0.2,0.6,0.4,1.2,0.6,1.7c2.8-5.2,4.2-11.3,5.9-17c1.9-6.1,3.6-12.3,5.3-18.5c3.4-12,6.7-24.3,10.5-36.1
			c3.2-9.8,6.4-19.9,11.4-28.9c1.2-2.2,4.5-2.5,6.7-2.1C697.7,157.6,700.1,159.1,699.1,161.4z M637.8,170.9c0.6,0,1.2,0,1.8,0
			c2.2,0,4.3,0,6.5-0.1c6.7-0.2,19,1.4,22.6-6.1c1.5-3.1,1.4-6.7,0.7-10c-1.4-6.4-5.3-13.4-10.8-16.9c-4.4-2.8-9-1.1-12,2.8
			c-3.3,4.3-5.4,9.2-6.9,14.4C638.4,160.3,637.9,165.6,637.8,170.9z"/>
		<path d="M716.3,187c-1,0.1-1.9,0.2-2.9,0.3c7.5,15.5,13.2,32.1,18.4,48.5c3.4,10.5,6.6,21.2,8.4,32.1c0.2,1.3-1.4,2.4-2.3,2.8
			c-2,0.9-4.7,0.8-6.6,0c-0.9-0.4-1.5-0.9-2-1.7c-1.4-2.2-1.8-5.6-2.5-8.1c-0.8-3-1.5-6-2.3-9c-1.6-6.1-3.3-12.3-5.1-18.4
			c-3.6-12-7.8-23.9-13.1-35.3c-0.7-1.6-1.5-3.2-2.3-4.8c0,1.6,0.1,3.2,0.1,4.8c0.3,10.2,1.1,20.5,2.3,30.7
			c1.4,11.4,3.7,22.7,4.8,34.1c0.1,1.4-1.4,2.5-2.5,3c-2.2,1-4.9,0.9-7.2,0c-0.9-0.4-1.6-1-2.2-1.8c-1-3.1-2.1-6.2-2.8-9.4
			c-1.5-6.6-2.7-13.3-3.6-20c-1.2-9-2.1-18-2.7-27.1c-0.6-8.8-0.8-17.6-0.6-26.5c0.3-13.5,1-27,4.8-40c0.5-1.5,0.9-3,1.7-4.4
			c1.3-2.3,4.2-3.3,6.7-3.1c1.9,0.1,4.5,0.5,5.5,2.5c0.9,1.7,3.5,0.9,5.4,0.9c2.6,0.1,5.1,0.4,7.6,0.9c9.5,2,18.6,8.4,19.8,18.8
			c0.3,2.4,0.3,4.9-0.3,7.2C738.1,175.6,728.4,185.6,716.3,187z M721.7,175.1c3.3-2.8,6.3-7.3,7.2-11.5c1.1-4.9,0.6-10.7-3-14.5
			c-4.5-4.8-11.5-6.2-17.8-5.5c-0.2,0-0.5,0.1-0.7,0.1c-0.7,0.1-1.6,11.5-1.8,12.9c-0.5,4.8-1,9.5-1.2,14.3
			c-0.1,2.5-0.2,5.1-0.3,7.6c0.9-0.1,1.8,0,2.7,0.2c0.1,0,0.3,0,0.4,0C713,179.1,717.1,179.1,721.7,175.1z"/>
	</g>
	<g>
		<g>
			<path d="M215,415c-12.2,13.8-31.1,22.2-49.1,14c-4.8-2.2-9.2-5.1-13.1-8.4c-1.7-1.5-3.3-3-4.9-4.7c0.1,1.7,0.2,3.3,0.3,5
				c0.9,15,4,29.8,7.1,44.4c0.9,4,2.9,9.4-0.1,13c-2.3,2.6-6.1,3.7-9.4,3.7c-3.6,0-9.5-1.4-10.6-5.6c-3.7-14.4-5.1-29.4-6.8-44.2
				c-2.6-21.8-3.5-44-3.6-65.7c-0.1-15.7,1-31.7,3-47.2c0.4-2.9,0.7-5.8,1.2-8.7c1.1-6,2.1-11.5,8.6-13.9c3.9-1.4,8.8-1.5,12.5,0
				c2.4,1,4.7,2.6,5.7,5.1c0.9,2.1,0.4,4-0.1,6.2c-0.5,2.6-1.2,5.2-1.8,7.8c0,0.1,0,0.2,0,0.2c6.3-8.6,14.5-15.9,24-20.5
				c6.5-3.1,13.5-4.9,21-4.9c6,0,12,1.3,17.4,4.5c10.6,6.3,17,18.2,19.7,29.9C243.1,355.4,235.8,391.5,215,415z M217.8,330.8
				c-1.3-6.1-3.3-12-6.4-17.5c-3.3-5.8-7.4-8.7-11.8-9.4c-12.4-2-27.2,12.7-33.6,22.8c-5.9,9.3-9.5,19.8-12.5,30.3
				c-3.1,10.9-4.9,22.7-1,33.6c3,8.5,8.3,16.3,15.2,22.1c2,1.7,4,3.1,6.2,4.4c13.3,6.3,25.4-6.8,31.6-17.4
				c5.7-9.8,9.3-20.6,11.6-31.8C219.4,355.8,220,343.2,217.8,330.8z"/>
			<path d="M356.1,380.7c-0.4,21.2-3.1,42.1-5.1,63.2c-1.1,11.2-1.9,22.7-6,33.3c-2.9,7.6-20.5,7.2-20.7-1.9
				c-0.1-5.5,0.3-10.8,1.3-16.2c0.7-3.9,1.5-7.8,2.3-11.7c-0.1,0.2-0.2,0.4-0.3,0.5c-1.7,2.7-3.2,5.4-5.1,8
				c-12.6,17.9-40.4,40.2-61.5,21.5c-4.7-4.2-7.9-10-8.8-16.3c-1.9-12.3,2.9-25,10.8-34.2c8.1-9.5,19.7-16.7,32.2-18.3
				c7.1-1,14.4-0.9,21.4,0.9c2.4,0.6,4.6,1.8,7,2.2c2.9,0.6,5.8,0.3,8.7,0.9c0.3,0.1,0.6,0.2,0.9,0.2c0.4-3.8,0.8-7.5,1.1-11.3
				c0.7-7.4,0.8-14.8,1-22.3c0.3-10.5-0.1-21.5-2.3-31.8c-2.7-12.6-7.3-25.9-18.9-33c-7.6-4.7-16.6-0.9-23.2,3.4
				c-24.5,16-28.9,52.1-24.8,78.5c0.6,3.6,1.7,7.6,0.1,11c-2.2,5-10.4,5.7-14.4,2.6c-0.8-0.6-1.7-1.2-2.3-2
				c-2.6-3.1-3.4-7.8-3.8-11.7c-0.5-4.4-0.7-8.8-0.7-13.2c0-9.1,1.3-18.8,3.5-27.4c2.8-11.1,7.2-21.9,13.7-31.3
				c6.3-9,14.5-17.1,24.6-21.7c3.3-1.5,6.8-2.7,10.4-3.4c6-1.3,12.3-1.4,18.3,0.1c22.2,5.7,33.9,25.2,38,46.4
				C355.7,357.2,356.3,369,356.1,380.7z M317.1,424.6c-2.2-1.1-4.5-2-6.9-2.8c-2-0.5-4-0.8-6-0.9c-8.4-0.5-16.8,2.4-23,8.3
				c-9.9,9.5-17.1,24.7-10.2,38c6.9,10.1,19,4.5,26.1-2.2c3.7-3.5,6.8-7.3,9.6-11.6c3.3-5.7,5.8-11.7,7.7-18c0.8-2.6,1.4-5.2,2-7.8
				C316.6,426.6,316.9,425.6,317.1,424.6z"/>
			<path d="M497.8,352.2c-1,27.1-16.3,53.6-41.1,65.5c-12.8,6.2-27.4,8.6-41.5,7.3c-2.7-0.2-5.3-0.5-8-0.9c1.1,2.8,2.4,5.6,3.6,8.3
				c2.4,5.6,5.3,11,8.4,16.3c0.9,1.4,12.2,16.6,12.8,15.7c2.9-4.5,3.7-10.7,4.8-15.9c0.4-1.7,2.5-3,3.9-3.5c2.1-0.8,4.4-1,6.6-0.6
				c3.8,0.7,6.8,3.3,6,7.3c-0.7,3.4-1.6,6.8-2.6,10.1c-2.3,7.3-5.8,14.2-14,15.9c-6.7,1.4-14-1.1-19-5.8c-3.6-3.4-6.4-7.4-9.1-11.5
				c-3.9-6-7.4-12.2-11-18.3c1.1,4.9,2.3,9.7,3.5,14.6c0.5,2,1,3.9,1.5,5.9c0.7,2.9,1.3,5.9,1.9,8.8c1.9,4.8-3.5,8.2-7.3,8.9
				c-2.7,0.5-5.6,0.3-8.1-0.7c-1.8-0.7-4.3-2.3-4.8-4.3c-1.8-6.4-3.2-12.9-4.4-19.4c-2.6-14.3-5.4-28.6-7.4-43
				c-3.9-28.4-5.4-57.4-3-86c0.4-4.5,0.8-9,1.5-13.5c1.1-6.5,1.6-15.4,8.8-18.3c1.5-0.6,3.3-1,5.2-0.9c2.9,0.1,5.9,1.1,7.7,3.2
				c0.5,0.6,0.9,1.2,1.1,1.9c2.9-1.4,6-2.6,9.1-3.5c7.3-2.1,14.8-3.6,22.4-4.2c14.8-1.1,30.1,1.7,43.2,8.8
				C487.1,310.9,498.6,330.6,497.8,352.2z M476.6,339.7c-1.2-5.2-3.1-10.1-5.7-14.8c-14.1-21.3-44.9-27.5-66.9-14.9
				c-3,1.7-5.8,3.7-8.5,5.9c-0.7,0.7-1.5,1.4-2.1,2.1c-0.6,0.7-1.2,1.4-1.8,2.1c-0.3,0.3-0.6,0.6-0.9,0.9c-0.4,2.8-0.7,5.6-1,8.3
				c-0.5,4.5-0.9,9-1.1,13.6c-0.7,19.3,0,38.5,2,57.8c0.1,1,0.2,2.1,0.4,3.1c2.2-0.3,4.5-0.1,6.7,0.3c4.8,0.7,9.5,3.3,14.1,4.9
				c5.7,2,11.8,2.7,17.8,2.1C461.4,407.8,483.6,369.6,476.6,339.7z"/>
			<path d="M562.6,300c-1.2,3.1-5.4,4.7-8.5,4.5c-4.1-0.3-8.1-0.6-12.2-0.8c-0.4,4.1-2.2,9-2.8,12.2c-1.1,5.8-2,11.7-2.7,17.6
				c-0.9,7.9-1.7,15.7-2.4,23.7c-1.2,14.8-1.6,29.7-1.7,44.6c0,4.5,0,9,0.2,13.5c0.4,10.1,1.1,20.2,2.2,30.2c1.1,10.5,3,21,3.8,31.6
				c0.1,2.1-1.5,4-3,5.1c-3.9,2.7-10.7,2.8-14.7,0c-1.9-1.3-2.7-2.8-3-5.1c-2.1-14.1-2.5-28.6-3.2-42.8c-0.7-14.9-1.1-29.8-1-44.7
				c0.1-9.8,0.2-19.6,0.7-29.3c0.5-10,1.1-20,1.9-30c0.4-5.3,0.9-10.6,1.4-15.9c0.2-2.4,0.4-4.8,0.7-7.2c0.1-0.8,0.1-1.7,0.2-2.6
				c-0.5,0.1-1.1,0.1-1.6,0.2c-5.3,0.9-10.9,2.9-16.3,1.9c-2.7-0.5-5.7-2-6.8-4.7c-1-2.7,0.4-5,2.5-6.5c2.6-2,6.1-2.4,9.2-2.9
				c6.8-1,13.6-1.5,20.4-1.7c10.2-0.3,20.4,0.3,30.6,1.5C559.9,293,564.1,296.2,562.6,300z"/>
			<path d="M734.8,405.9c-10.7,3.4-21.4,6.8-31.8,10.9c-2.6,1-5.1,2-7.7,3c-0.3,2-0.7,3.9-1,5.9c-2.1,12.1-5.7,24.2-11.4,35.1
				c-3.1,5.8-6.5,11.6-11,16.5c-2.6,2.7-5.3,5.5-8.5,7.6c-2.6,1.7-5.5,3.6-8.5,4.5c-3.3,1-6.8,1.7-10.3,1.8
				c-19.2,0.1-20.2-22.4-13.8-35.3c5.4-10.9,13.6-20.5,23.4-27.7c4.1-3,8.1-6.1,12.5-8.5c2.7-1.5,5.3-2.9,8-4.4c0,0,0-0.1,0-0.1
				c0.4-4,0.8-8.1,1.3-12.1c2.4-22.9,2.6-47.8-2.1-70.4c0,0,0-0.1,0-0.1c-0.4,0.7-0.9,1.4-1.3,2.1c-2.1,3.8-4.2,7.6-6.2,11.6
				c-2.1,4.1-4,8.4-5.9,12.6c-3.7,8.2-7.2,16.4-10.9,24.6c-4.8,11-9.9,22.2-15.6,32.6c-4.4,8.1-8.9,16.4-15.3,23.1
				c-1.8,1.9-3.7,3.9-5.9,5.3c-8.7,5.9-21.8,7-29.8-0.7c-2.1-2-3.9-4.4-5.2-7c-2.9-5.6-4.9-11.7-6.4-17.9
				c-1.5-6.4-2.9-12.9-3.6-19.5c-0.3-2.8-0.6-5.7-0.9-8.5c-1-9.3-1.4-18.6-1.5-27.9c-0.1-16.5,1-32.3,3.6-48.6
				c0.8-4.9,1.7-10.4,5.2-14.3c0.3-0.4,0.7-0.7,1-1c0,0,0,0-0.1,0c2.2-2.4,5.4-3.4,8.6-3.4c0.9,0,1.8,0.1,2.7,0.3
				c3.1,0.6,7.5,2.8,7.3,6.6c-0.3,8.9-2.6,17.6-3.9,26.4c-1.3,8.9-2,17.9-2.2,27c-0.3,12.5-0.2,25,0.6,37.6
				c0.6,8.1,1.3,16.3,3.1,24.2c0.8,3.3,3.5,17,7.8,17c3.4,0.1,6.5-5.3,8.2-7.7c9.6-13.7,17.1-29.2,24.1-44.3
				c3.9-8.3,7.6-16.7,11.3-25.1c4-9,7.7-18.2,11.8-27.1c3.6-7.9,7.4-18.9,16.3-22.2c5.2-1.9,11-1.2,15.7,1.7
				c2.6,1.6,4.5,4.1,5.7,6.9c2.5,5.7,3.5,12.1,4.4,18.2c2.7,19.8,3,40.2,1.5,60.2c-0.2,3.3-0.5,6.5-0.9,9.7
				c9.3-3.7,18.7-6.9,28.3-9.8c2.4-0.7,4.6-1.1,7-0.6c2,0.4,4.1,1.3,5.5,2.9C740.7,400.5,738.4,404.7,734.8,405.9z M671.2,432.6
				c-4.1,1.2-7.5,5.2-10.6,7.9c-8.3,7.1-15.2,16.7-17.8,27.3c-0.4,2.5-0.5,4.9-0.2,7.4c1.1,8.5,9.3-0.3,11.8-3.2
				c5.2-6.1,9.1-13.6,11.9-21c1.2-3.3,2.6-6.4,3.7-9.8C670.1,440.8,671.9,432.4,671.2,432.6z M645.9,479.2
				C646,479.1,646,479.1,645.9,479.2c-0.1,0-0.3,0.1-0.5,0.1C645.6,479.2,645.8,479.2,645.9,479.2z M646.9,478.8
				c-0.3,0.1-0.6,0.2-0.9,0.3c0,0,0,0-0.1,0C646.3,479.1,646.6,479,646.9,478.8z"/>
		</g>
	</g>
	<g>
		<path d="M211.7,706.6c-1.1-4.4-2.1-8.7-3.1-13.1c-3.4-15.2-5.5-31.1-6.2-46.6c-1.2-25.6-0.6-51,1.8-76.5c1.5-16,4.8-32.4,4.3-48.4
			c-0.2-5.1-2-10.5-8.8-11.7c-8.3-1.4-14.3,2.8-17.2,8.7c-0.6,1.2-1.3,2.4-1.9,3.6c-7.3,14.5-13.5,29.4-19.8,44.2
			c-1.7,4-3.1,8-4.6,12c-7.7,20.2-13.2,40.9-18.5,61.5c-1,4.1-1.8,8.2-2.7,12.4c-1.5,7-2.7,14.1-3.9,21.1
			c-1.3,7.5-2.4,14.9-3.1,22.5c-0.7,7.1-2,15.3-0.1,22.3c0.1,1,0.6,1.8,1.6,2.5c1.7,1.3,4.4,1.7,6.7,1.7c3.2,0,7.9-1,8.2-4.1
			c0.2-1.6,1.4-20.7,2.2-20.7c2.1-0.2,4.2-0.4,6.3-0.6c9.9-0.7,19.9-1,29.8-1.2c0.1,0.4,0.2,0.9,0.3,1.4c0.6,2.3,1.1,4.6,1.9,6.9
			c2.5,7.3,5.7,14.7,10.1,21.7c1,1.3,2.3,2.2,4.1,2.8c3.2,1.1,7,1.4,10.3,0.8c2.1-0.3,3.9-1,5.6-2.1c0.5-0.5,1.1-1,1.6-1.6
			c0.8-1.2,0.8-2.4,0-3.6C213.5,717.7,213,711.8,211.7,706.6z M178.8,673.9c0.5,4.4,1.2,8.7,2,13c-7.8,0-15.6,0.3-23.4,0.9
			c-3.2,0.3-6.4,0.5-9.6,0.8c0.8-6.1,1.7-12.1,2.8-18.1c0.7-4.1,1.4-8.2,2.2-12.2c2.6-12.2,5.1-24.4,8.4-36.5
			c4.7-17.2,10-34.2,16.2-51c1.5-4.1,3.3-8.1,5-12.1c-0.8,4.8-1.5,9.6-2.2,14.4c-2.8,20.5-4.4,41.4-4.3,62
			C176.1,648,177.2,661,178.8,673.9z"/>
		<path d="M350.6,571.2c-0.4-8.5-0.9-17.1-1.5-25.6c-0.4-4.9-0.9-9.9-1.6-14.8c-0.7-4.7-0.5-8.9-5.5-11.8c-4.4-2.6-11.3-2.8-15.7,0
			c-6.5,4.1-9.4,11-13.1,16.8c-1.2,1.8-2.4,3.7-3.5,5.5c-2.5-1-5.3-1.7-8-2.3c-12.1-2.7-25-1.6-36.4,2.7c-13.4,5-23,14.7-30,24.9
			c-10.2,14.8-16.8,33.2-15,50.3c0.2,2.2,0.7,4.4,1.4,6.6c1,3.3,2.6,6.4,4.9,9.2c4.9,6.2,14,8.2,22.6,7.1
			c13.1-1.8,22.6-10,29.6-18.6c8.4-10.3,14.8-21.5,21.7-32.5c5.7-9,10.9-18.2,16.3-27.3c0.3-0.5,0.6-1,0.9-1.4c0,0,3.9,0,4.3-0.1
			c1.6-0.3,3.3-1,4.6-1.8c0.6,7.4-0.2,15.1-0.3,22.6c-0.2,16.8-0.3,33.6-1.2,50.4c-0.6,11.3-1.6,22.6-3.1,33.8
			c-0.8,5.8-1.7,11.5-2.8,17.3c-1.5,8.6-3.3,17-6.8,25.2c-1.3-2.2-2.4-4.5-3.2-6.9c-4.1-12-3.4-25.5-2.8-37.9
			c0.6-13.1,2.6-26.2,4.7-39.2c-0.1-1.1-0.7-2.1-1.8-2.8c-4-2.6-11.1-2.6-15.1,0c-1.1,0.7-1.7,1.6-1.8,2.8
			c-2.3,9.4-4.2,18.9-5.5,28.4c-1.7,13.2-2.7,26.6-1.1,39.8c1.2,9.6,3.8,20.9,13,27.8c2.7,2.1,7.2,3.3,10.9,3.7
			c27,3,32.3-23.9,36.1-39.4c7.1-29.4,7-59.9,6-89.7C351.3,586.2,351,578.7,350.6,571.2z M294.4,565.6c-4,6.6-8,13.2-12.1,19.8
			c-8.2,12.9-16,26.2-27.3,37.6c-1.4,1.4-6.4,6.4-8.8,6.3c-2.1-0.1-2.8-2.9-3.2-4.2c-1.3-5.1-1.1-10.5-0.6-15.7
			c1.6-16.3,8.2-35.2,21.8-47.9c3.5-3.3,7.4-6.3,11.9-8.7c8.6-4.7,17.2-2.9,25.6,0.9C299.3,557.7,296.9,561.6,294.4,565.6z"/>
		<path d="M596.3,516.1c-10.3-3.4-21.6,0.9-28.2,7.5c-8.5,8.5-12.5,19.8-16.9,29.9c-3.5,8.1-6,16.4-8.8,24.6
			c-4.1,12.2-7.1,24.6-9.7,37c-0.6,2.8-1.2,5.5-1.7,8.3c-0.2-2.7-0.3-5.3-0.4-8c-1-20.1-2.1-40.5-1.9-60.6c0-0.9-0.2-1.7-0.7-2.6
			c-1.7-3-5.9-4.6-9.3-5.2c-6.9-1.3-18.9,0.5-19.4,7.8c-0.1,0.8-0.2,1.7-0.3,2.5c-9.2,13.7-15.3,28.9-21.2,43.7
			c-7.3,18.2-13.6,37-20,55.5c-3.3,9.5-6.6,19-10.1,28.4c-3.3,8.7-6,18.1-11.3,26.2c-0.5-0.8-0.9-1.7-1.2-2.6
			c-1-2.4-1.8-4.8-2.8-7.1c-14.6-37.4-28.5-77.8-30.4-117.3c1.4,0,2.8,0,4.2,0c9.7,0,20.1,0,30.1-0.7c14.4-0.9,31.5-1.6,39.7-12.7
			c6.4-8.6,5.9-19.8,2.1-29.1c-5.7-13.6-19.7-25.4-36.8-29.6c-13.5-3.3-27.7-1.1-38.8,6.1c-2.1,1.3-4,2.8-5.7,4.4
			c-2.9,2.6-5.5,5.3-7.8,8.2c-24.9,30.7-15.5,71.7-8.7,105.5c4.6,22.8,11.9,45.7,22,67.3c1.2,2.5,2.2,4.9,3.5,7.4
			c4.2,7.9,10.4,16.5,21.1,19.4c22.7,6,32.3-15.5,37.5-28.8c7-17.7,11.3-36.1,17.2-54.1c5-15.2,10.4-30.4,16.2-45.4
			c0.3-0.7,0.5-1.3,0.8-2c0.1,8.6,0.3,19.3,0.6,24.8c0.6,9,1.4,18.4,2.4,27.5c0.9,8,2.1,16.1,3.5,24.1c1.1,6.8,2.7,13.6,4.4,20.3
			c0.9,3.7,1.9,7.4,3.3,10.9c1.9,5.1,3.8,11.9,8.6,15.8c3.6,2.9,11.1,4.3,16,3.3c10.4-2,8.7-10.7,8.6-17.4
			c-0.1-6.9-0.2-13.9-0.1-20.8c0.1-8,0.6-16,1-23.9c0.4-7.6,1.1-15.2,2.2-22.7c2.7-19.3,6.7-38.9,11.7-58c2.5-9.5,5.5-19.4,8.6-29
			c2.9-9,5.9-18.4,12.6-26.1c6.6-7.7,10,1.1,11.4,6.7c5.1,19.5,4.2,39.7,2.4,59.4c-1.8,19.8-4,39.5-6.1,59.2
			c-1.7,15.9-3.3,31.7-4.2,47.6c-0.4,5.9,0.2,11.7,1.1,17.5c0.1,1.5,0.8,2.8,2.2,3.7c4.7,3.8,13.2,3.4,18,0c1.3-1,2.1-2.2,2.2-3.7
			c0.4-5.1,1.8-10.1,2.2-15.2c0.3-3.6,0.4-7.3,0.6-10.9c0.5-8.8,1.1-17.7,1.8-26.5c1.2-15.7,3.4-31.4,4-47.1c1-24.6,4-49.7-1.5-74
			C613.3,534.9,610.2,520.7,596.3,516.1z M405.3,550.1c2.8-8,6.8-15.6,13.1-22.2c5.7-6,14.5-8.6,22.8-4.3
			c10.5,5.5,18,16.3,20.6,26.1c1.3,5.1,1.5,10.6-1.3,15.4c-6.8,11.4-30.2,9.1-42.9,9.4c-4.1,0.1-8.3,0.1-12.4,0.1
			c-1.1,0-2.3,0-3.4,0C401.9,566.3,403,558.1,405.3,550.1z"/>
		<path d="M730.6,511.8c-18.4-1.6-37.5-2.6-56.2-2.8c-15.8-0.2-34.4-1.4-49.6,2.6c-1.3,0.4-2.5,0.8-3.6,1.6
			c-1.1,0.7-1.7,1.6-1.8,2.7c0,1.9,2,2.9,3.8,3.8c7.5,3.4,18.1,1,26.2,0.8c4.6-0.1,9.2-0.2,13.8-0.2c-0.2,1.8-0.4,3.7-0.5,5.5
			c-0.2,1.9-0.4,3.8-0.6,5.7c-0.5,4.4-1,8.9-1.5,13.3c-0.9,8-1.6,16-2.2,24c-3.5,45.3-3.3,91,1.6,136.3c0.9,8.3,4.1,16.4,4.7,24.6
			c0.1,1.5,0.9,2.6,2.3,3.5c2.5,1.8,6.3,2.4,9.6,2.4c0.1,0,0.1,0,0.2,0c2.4,0,4.7-0.4,6.9-1.1c2.3-0.9,4.9-2.5,4.9-4.8
			c-0.1-5.1-0.6-10.1-1.3-15.1c-6.8-44.9-6.6-89.8-2-134.9c0.4-3.6,0.8-7.3,1.2-10.9c1.8-15.9,2.9-32.6,6.4-48.2
			c11.6-0.1,23.2,0.5,34.8,0.8c0.1,0,0.3,0,0.4,0c3,0,7.2-1,8.7-3.3C738.6,514.8,734,512.1,730.6,511.8z"/>
	</g>
	<path d="M412.4,71.7c-6.3,2-12,6.6-15.4,12.2c-0.6,1-1.6,3.3-2.3,5.3l-1.2,3.5l-13.7,0l-13.7,0l-0.8-1.6c-1.1-2.4-4.1-5.6-6-6.6
		c-3.7-1.8-8.3-1.8-12.2,0.1c-2.4,1.2-4,2.7-6,6l-1.5,2.5l-16,0.4c-8.8,0.2-27.6,0.4-41.7,0.6c-14.2,0.1-31.1,0.4-37.7,0.6
		c-6.6,0.2-18.2,0.5-25.8,0.6c-7.6,0.1-17.5,0.5-22.1,0.6c-4.5,0.2-17.3,0.4-28.3,0.4c-12.9,0-20.5,0.2-21.2,0.5
		c-2.3,0.9-3,4.2-1.1,6.2l1.1,1.3l14.6,0.2c8,0.1,19.5,0.1,25.5-0.1c34.4-1.1,47.2-1.4,79-1.9c11.3-0.2,31.7-0.5,45.3-0.7
		c13.6-0.3,25.6-0.4,26.5-0.4c1.8,0,1.8,0.1,2.7,2c1.9,4,6.9,8.1,11.2,9c3.7,0.8,9.1-0.9,12.6-4c1.4-1.2,2.7-3.4,3.3-5.5l0.6-1.9
		l12.8,0.1l12.8,0.1l0.8,3.1c2,7.2,7.8,14.5,14.1,17.7c4.5,2.3,12.1,2.8,17.5,1.1c4.3-1.3,8.9-4.2,12.1-7.4
		c4.1-4.1,5.5-6.6,7.7-13.9c0.2-0.7,22.4-0.6,22.4,0.2c0,0.3,0.7,1.6,1.6,2.9c3,4.6,7.9,7.1,13.6,6.7c5.3-0.4,10.1-3.8,11.5-8.1
		l0.5-1.6l14.4,0.3c8,0.2,19.4,0.6,25.4,0.9c6.7,0.3,41,0.7,88.3,1.1c42.5,0.3,79.1,0.8,81.4,0.9c5,0.3,6.6-0.1,7.6-2.3
		c0.6-1.2,0.6-1.6,0.2-2.9c-0.3-0.8-0.9-1.8-1.4-2.1c-1.2-0.8-5.2-2-5.6-1.7c-0.6,0.4-131.8-0.3-149.3-0.8
		c-40.6-1.1-58.3-1.6-60.1-1.8c-1.9-0.2-2-0.2-3.1-2.3c-1.3-2.7-3.9-5.1-6.7-6.4c-1.9-0.9-2.7-1.1-5.9-1.1c-3.6,0-3.8,0.1-5.7,1.2
		c-2.4,1.5-4.3,3.5-5.8,6l-1.1,1.8L457,92.9l-11.2-0.1l-0.6-2c-1.8-6.4-7.9-13.2-14.8-17C424.5,70.8,417.9,70,412.4,71.7z"/>
	<path d="M416.5,740.7c-6.3,2-12,6.6-15.4,12.2c-0.6,1-1.6,3.3-2.3,5.3l-1.2,3.5l-13.7,0l-13.7,0l-0.8-1.6c-1.1-2.4-4.1-5.6-6-6.6
		c-3.7-1.8-8.3-1.8-12.2,0.1c-2.4,1.2-4,2.7-6,6l-1.5,2.5l-16,0.4c-8.8,0.2-27.6,0.4-41.7,0.6c-14.2,0.1-31.1,0.4-37.7,0.6
		c-6.6,0.2-18.2,0.5-25.8,0.6c-7.6,0.1-17.5,0.5-22.1,0.6c-4.5,0.2-17.3,0.4-28.3,0.4c-12.9,0-20.5,0.2-21.2,0.5
		c-2.3,0.9-3,4.2-1.1,6.2l1.1,1.3l14.6,0.2c8,0.1,19.5,0.1,25.5-0.1c34.4-1.1,47.2-1.4,79-1.9c11.3-0.2,31.7-0.5,45.3-0.7
		c13.6-0.3,25.6-0.4,26.5-0.4c1.8,0,1.8,0.1,2.7,2c1.9,4,6.9,8.1,11.2,9c3.7,0.8,9.1-0.9,12.6-4c1.4-1.2,2.7-3.4,3.3-5.5l0.6-1.9
		l12.8,0.1l12.8,0.1l0.8,3.1c2,7.2,7.8,14.5,14.1,17.7c4.5,2.3,12.1,2.8,17.5,1.1c4.3-1.3,8.9-4.2,12.1-7.4
		c4.1-4.1,5.5-6.6,7.7-13.9c0.2-0.7,22.4-0.6,22.4,0.2c0,0.3,0.7,1.6,1.6,2.9c3,4.6,7.9,7.1,13.6,6.7c5.3-0.4,10.1-3.8,11.5-8.1
		l0.5-1.6l14.4,0.3c8,0.2,19.4,0.6,25.4,0.9c6.7,0.3,41,0.7,88.3,1.1c42.5,0.3,79.1,0.8,81.4,0.9c5,0.3,6.6-0.1,7.6-2.3
		c0.6-1.2,0.6-1.6,0.2-2.9c-0.3-0.8-0.9-1.8-1.4-2.1c-1.2-0.8-5.2-2-5.6-1.7c-0.6,0.4-131.8-0.3-149.3-0.8
		c-40.6-1.1-58.3-1.6-60.1-1.8c-1.9-0.2-2-0.2-3.1-2.3c-1.3-2.7-3.9-5.1-6.7-6.4c-1.9-0.9-2.7-1.1-5.9-1.1c-3.6,0-3.8,0.1-5.7,1.2
		c-2.4,1.5-4.3,3.5-5.8,6l-1.1,1.8l-11.3-0.1l-11.2-0.1l-0.6-2c-1.8-6.4-7.9-13.2-14.8-17C428.5,739.7,422,738.9,416.5,740.7z"/>
</g>
</svg>


