<?xml version="1.0" encoding="utf-8"?>
<!-- Generator: Adobe Illustrator 23.0.5, SVG Export Plug-In . SVG Version: 6.00 Build 0)  -->
<svg height="500" width="500" version="1.1" xmlns="http://www.w3.org/2000/svg" xmlns:xlink="http://www.w3.org/1999/xlink" x="0px" y="0px"
	 viewBox="0 0 720 720" style="enable-background:new 0 0 720 720;" xml:space="preserve">
<style type="text/css">
	.st0{fill:#050002;}
	.st1{fill-rule:evenodd;clip-rule:evenodd;fill:#050002;}
	.st2{fill-rule:evenodd;clip-rule:evenodd;}
	.st3{fill:#221F1F;}
	.st4{fill:#231F20;}
	.st5{fill:#070808;}
	.st6{fill:#211E1F;}
	.st7{fill:#161616;}
	.st8{fill:#131313;}
	.st9{fill:#21201F;}
	.st10{fill:#2C2929;}
</style>
<g>
	<g>
		<g>
			<path class="st0" d="M158.9,188.3c-9.3,2.3-9.8,16.3-9.9,23.8c-0.2,12.2,3.1,24,9,34.6c0.7,1.3,2.5,0.3,2.2-0.9
				c0.1-0.1,0.2-0.3,0.3-0.5c4.5-13.1,8.3-26.9,9.9-40.8C171.2,197.7,168.5,186,158.9,188.3 M168,204.4c-0.5,4.5-1.4,9-2.3,13.5
				c-1.8,8.5-4.1,16.8-6.9,25c-3.5-6.9-5.8-14.1-6.8-21.8c-1-7.8-2.1-22,4-28.1c3.9-4,9.8-1.8,11.6,3.3
				C168.5,198.8,168.2,201.8,168,204.4z"/>
		</g>
	</g>
	<g>
		<g>
			<path class="st0" d="M168,204.4c-0.5,4.5-1.4,9-2.3,13.5c-1.8,8.5-4.1,16.8-6.9,25c-3.5-6.9-5.8-14.1-6.8-21.8
				c-1-7.8-2.1-22,4-28.1c3.9-4,9.8-1.8,11.6,3.3C168.5,198.8,168.2,201.8,168,204.4"/>
		</g>
	</g>
	<g>
		<g>
			<path class="st0" d="M625.3,349c-3.8-7.9-8.8-15.1-14.5-21.7c-12.1-13.8-27.2-24.5-42.3-34.8c-5.2-9.8-11.3-19.1-18.2-28
				c3.2,2.3,6.6,4.2,10.3,5.7c3.3,1.3,9.4,3.9,11.9-0.2c6.1-10.2-24-13.5-28.5-14.2c-0.3,0-0.5,0-0.7,0.1c-0.5-0.6-1.1-1.2-1.6-1.8
				c0.1-0.8-0.6-1.4-1.2-1.4c-15.1-16.7-32.9-31.3-52.2-43.5c6.7,0.8,22.6,1.1,20.7-7.6c-2.2-10.2-19.3,1.9-24.4,5.3
				c-11.2-6.8-22.9-12.9-34.8-18.1c10.4,1.7,21.2,0.4,30.7-4.5c7.8-4,14.4-12.1,9.6-21.1c-3.4-6.4-11.6-8.9-18-5.6
				c-11.2,5.7-12.3,30.9-27.9,26.9c-0.9-0.2-1.5,0.5-1.5,1.3c-8.1-3.3-16.3-6.1-24.5-8.6c-1.2-0.4-2.3-0.7-3.5-1
				c-0.3-0.2-0.5-0.5-0.7-0.7c-0.6-0.5-1.2-0.4-1.7,0.1c-1.2-0.3-2.4-0.6-3.6-1c7.2-0.5,14.4-1.8,20.3-6.1c4.1-3,8.6-8.5,6.1-13.8
				c-2.2-4.8-8.5-5.5-12.9-3.3c-9.3,4.6-10.2,19.7-21.9,20.1c-0.7,0-1,0.5-1.1,0.9c-3.6-0.8-7.2-1.6-10.9-2.2c0,0,0-0.1,0-0.1
				c-0.3-1.1-1.6-1-2.2-0.3c-8.1-1.5-16.2-2.6-24.4-3.4c-32.1-4.4-64.7-1.5-95.5,8.4c14.5-7.3,29.1-14.5,43.1-22.6
				c5.2-3,10.4-7.2,10.5-13.8c0.1-5.5-3.5-9.1-8.9-9.6c-7-0.7-15.1,2.6-21.3,5.4c-8,3.5-15.4,8.3-22.2,13.8
				c-14.2,11.6-25.4,26.4-36.2,41c-10,4.9-19.5,10.7-28.6,17.3c2.4-3.1,4.5-6.4,6-10.1c1.4-3.3,4.2-9.3,0.2-11.8
				c-10-6.4-14.2,23.5-15.1,27.9c0,0.3,0,0.5,0.1,0.7c-0.6,0.5-1.2,1-1.9,1.6c-0.8-0.1-1.4,0.5-1.4,1.2
				c-17.2,14.5-32.4,31.8-45.3,50.7c1-6.6,1.8-22.5-7-20.8c-10.3,1.9,1.3,19.3,4.6,24.5c-7.2,11-13.6,22.4-19.2,34.2
				c2-10.3,1-21.1-3.5-30.7c-3.8-8-11.7-14.7-20.8-10.2c-6.5,3.2-9.3,11.3-6.2,17.8c5.3,11.3,30.5,13.2,26.1,28.6
				c-0.3,0.9,0.5,1.5,1.2,1.5c-3.5,8-6.7,16-9.4,24.1c-0.4,1.2-0.8,2.3-1.1,3.5c-0.3,0.2-0.5,0.5-0.8,0.7c-0.5,0.5-0.4,1.2,0,1.7
				c-0.4,1.2-0.7,2.4-1.1,3.5c-0.3-7.2-1.4-14.4-5.5-20.5c-2.9-4.1-8.3-8.8-13.7-6.5c-4.9,2.1-5.8,8.3-3.7,12.7
				c4.3,9.4,19.4,10.7,19.5,22.4c0,0.6,0.4,1,0.9,1.1c-0.9,3.6-1.8,7.2-2.6,10.8c0,0,0,0-0.1,0c-1.1,0.3-1.1,1.6-0.4,2.1
				c-3,13.9-4.9,28-5.9,42.2c-0.1,0.1-0.1,0.3-0.1,0.4c-3.2,34.3,1.8,68.7,14.7,100.5c-8.3-13.9-16.6-27.9-25.6-41.3
				c-3.4-5-8-9.8-14.5-9.5c-5.5,0.3-8.9,4.1-9,9.5c-0.2,7,3.7,14.8,6.9,20.8c4.1,7.7,9.4,14.8,15.4,21.1
				C97,524,112.6,534,128.1,543.7c5.6,9.6,12.1,18.7,19.3,27.2c-3.2-2.2-6.7-4-10.5-5.3c-3.4-1.2-9.6-3.5-11.8,0.6
				c-5.7,10.4,24.5,12.5,29,13c0.3,0,0.5,0,0.7-0.1c0.6,0.6,1.1,1.2,1.7,1.8c-0.1,0.8,0.6,1.4,1.3,1.4c15.7,16.1,34.1,30,53.9,41.4
				c-6.7-0.5-22.6-0.2-20.3,8.5c2.6,10.1,19.2-2.7,24.2-6.3c11.5,6.4,23.4,12,35.5,16.7c-10.5-1.3-21.2,0.5-30.5,5.7
				c-7.7,4.3-13.9,12.7-8.8,21.4c3.6,6.2,11.9,8.4,18.2,4.9c11-6.1,11.1-31.3,26.7-28c0.9,0.2,1.5-0.6,1.4-1.3
				c8.2,2.9,16.5,5.5,24.8,7.6c1.2,0.3,2.4,0.6,3.6,0.9c0.3,0.2,0.5,0.5,0.8,0.7c0.6,0.5,1.3,0.3,1.7-0.1c1.2,0.3,2.4,0.5,3.6,0.8
				c-7.2,0.8-14.3,2.4-20.1,7c-3.9,3.1-8.3,8.8-5.6,14.1c2.4,4.7,8.7,5.1,13,2.8c9.1-5,9.4-20.1,21-20.9c0.6,0,1-0.5,1.1-1
				c3.6,0.7,7.3,1.3,10.9,1.8c0,0,0,0.1,0,0.1c0.4,1,1.7,0.9,2.2,0.2c6.1,0.9,12.2,1.5,18.3,2c33.1,4.2,66.6,0.8,98.1-10.1
				c-14.4,7.6-28.8,15.1-42.6,23.5c-5.1,3.1-10.2,7.5-10.2,14c0,5.5,3.7,9.1,9.1,9.4c7,0.5,15-2.9,21.2-5.8
				c8-3.7,15.2-8.6,21.9-14.3c14-11.9,24.8-26.9,35.3-41.8c9.9-5.1,19.3-11.1,28.2-17.9c-2.3,3.1-4.3,6.5-5.8,10.2
				c-1.3,3.3-4,9.4,0.1,11.8c10.2,6.1,13.7-23.8,14.5-28.2c0-0.3,0-0.5-0.1-0.7c0.6-0.5,1.2-1.1,1.8-1.6c0.8,0.1,1.4-0.5,1.4-1.2
				c16.9-14.8,31.7-32.5,44.2-51.6c-0.9,6.7-1.4,22.5,7.5,20.7c10.2-2.1-1.8-19.2-5.1-24.4c7-11.1,13.1-22.7,18.5-34.6
				c-1.8,10.4-0.6,21.1,4.2,30.6c4,7.9,12,14.4,21,9.8c6.4-3.3,9-11.5,5.8-17.9c-5.6-11.2-30.8-12.6-26.7-28
				c0.2-0.9-0.5-1.5-1.3-1.5c3.4-8,6.3-16.2,8.9-24.3c0.4-1.2,0.7-2.3,1.1-3.5c0.2-0.2,0.5-0.5,0.7-0.7c0.5-0.6,0.4-1.2,0-1.7
				c0.3-1.2,0.7-2.4,1-3.6c0.4,7.2,1.7,14.4,6,20.3c2.9,4.1,8.5,8.6,13.8,6.2c4.9-2.2,5.6-8.5,3.5-12.8c-4.5-9.3-19.7-10.3-19.9-22
				c0-0.6-0.4-1-0.9-1.1c0.9-3.6,1.6-7.2,2.4-10.8c0,0,0.1,0,0.1,0c1.1-0.3,1-1.6,0.3-2.1c3.4-17.5,5.2-35.3,5.4-53.2
				c0-0.1,0-0.2-0.1-0.3c0.4-25.6-3.9-51.1-12.5-75.2c7.7,14.2,15.5,28.6,24,42.3c3.2,5.1,7.6,10.1,14.1,10.1c5.5-0.1,9-3.8,9.4-9.1
				C631.8,363.1,628.3,355.2,625.3,349 M501.4,200.5c1.9-1.2,2.8-0.6,2.5,2.1c1.5,2,1.1,3.2-1.2,3.5c-1.6,0.6-3.3,0.8-5,1
				c-2.9,0.3-5.7,0.2-8.6-0.2C493,204.4,497.2,201.8,501.4,200.5z M475.3,158.9c5.9-1.5,12.1,2.1,13.5,8.1
				c1.7,7.3-3.9,12.3-9.8,15.3c-8.4,4.3-18,5.6-27.2,4.4C462.5,182.3,463.4,161.9,475.3,158.9z M198.8,632.9c-1.9,1.3-2.7,0.7-2.6-2
				c-1.5-2-1.2-3.1,1.1-3.5c1.6-0.7,3.3-0.9,5-1.2c2.9-0.4,5.7-0.4,8.6-0.2C207,628.8,203,631.5,198.8,632.9z M226.5,673.5
				c-5.8,1.7-12.1-1.7-13.8-7.5c-2-7.2,3.4-12.5,9.1-15.6c8.3-4.6,17.7-6.3,27-5.5C238.5,649.6,238.3,670,226.5,673.5z M566.6,294.1
				c1.5,3,3,6.1,4.3,9.2c-0.2,0.2-0.4,0.5-0.4,0.9c0,3,0.1,6.4-1.3,9.2c-0.8,1.6-3.4,4.2-5.6,3.7c-1.3-1.4-2.5-2.8-3.8-4.2
				c0-1.1,0.2-2.1,0.6-3.1c1.4-5.4,3.8-10.6,5.7-15.8C566.4,293.9,566.5,294,566.6,294.1z M555.7,260.5c2,0.5,4,1,6,1.6
				c1.3,0.4,2.6,0.8,3.9,1.2c2.7,0.1,3.2,1.3,1.4,3.5c0,2.5-0.8,3.2-2.6,2.1c-1-0.3-2-0.7-3-1.1c-1.8-0.7-3.5-1.5-5.2-2.5
				c-3.2-1.8-6.1-4-8.8-6.5C550.2,259.3,552.9,259.9,555.7,260.5z M520,331c-0.9,0.7-2,1.8-3,2.2c-6.9,2.7-7.2-2.1-7.5-5.7
				c-0.3-3.6,0.5-7.2,1.5-10.7c2.2-7.2,6.1-13.9,9.5-20.6l19.4-38.3C549.3,283.9,542,313.6,520,331z M485.8,213.4
				c6.4,7.6,12.6,15.5,17.5,24.2c4.6,8.3,11.8,23.9,6.1,33.2c-6.1,10-16-0.8-18.7-7.4c-2.3-5.4-3-11.3-3.7-17.1
				C485.7,235.4,485.4,224.4,485.8,213.4z M419.5,156.5c1.4-1.5,3.4-3.2,5.5-3.8c1.4,0,2.7,0,4.1-0.1c1.1,2.9,2.2,5.7,3.2,8.6
				c-0.6,3-5.4,5.8-8,7.1c-5.6,2.9-11.9,3.6-18.1,3.9C412.3,169.1,414.7,161.7,419.5,156.5z M299.1,133.2c3.5-1.1,8-2.6,11.7-2
				c8,1.4,8.1,8.6,4,13.7c-4.7,5.9-13.9,9-20.5,12.4c-15.1,7.8-30.2,15.7-45.3,23.5c-0.4,0.2-0.6,0.6-0.6,1c-4.2,1.5-8.3,3.2-12.4,5
				C252.7,164.4,271.5,141.5,299.1,133.2z M233,190.9c3.1-1.4,6.2-2.8,9.3-4.1c0.2,0.2,0.5,0.4,0.9,0.4c3,0.1,6.4,0.1,9.1,1.5
				c1.6,0.9,4.1,3.6,3.6,5.6c-1.4,1.2-2.9,2.4-4.3,3.7c-1.1-0.1-2.1-0.3-3.1-0.7c-5.3-1.6-10.5-4.1-15.7-6.2
				C232.8,191.1,232.9,191,233,190.9z M199,200.8c0.6-2,1.1-4,1.8-5.9c0.4-1.3,0.9-2.6,1.3-3.9c0.2-2.7,1.4-3.2,3.5-1.3
				c2.5,0,3.2,0.9,2,2.6c-0.3,1-0.7,2-1.2,3c-0.8,1.8-1.6,3.5-2.6,5.1c-1.9,3.2-4.2,6-6.8,8.6C197.6,206.2,198.3,203.5,199,200.8z
				 M137.2,253c-1.2-2-0.5-2.8,2.1-2.5c2.1-1.4,3.2-0.9,3.5,1.3c0.6,1.6,0.7,3.3,0.8,5c0.2,2.9,0,5.7-0.4,8.6
				C140.8,261.5,138.4,257.3,137.2,253z M94.7,277.7c-1.3-5.9,2.5-11.9,8.5-13.2c7.4-1.5,12.2,4.3,15,10.2c4,8.5,5,18.1,3.6,27.3
				C117.7,291.3,97.3,289.7,94.7,277.7z M90.6,333.3c-1.5-1.5-3.1-3.5-3.6-5.6l0-4.1c2.9-1,5.8-2,8.7-3c3,0.7,5.7,5.6,6.9,8.2
				c2.7,5.6,3.2,11.9,3.3,18.1C103,340.9,95.6,338.3,90.6,333.3z M67.6,480.3c-1.3-3.4-3.2-7.8-2.8-11.5c0.8-8.1,8.1-8.6,13.4-5
				c6.2,4.3,10,13.2,13.8,19.5c8.9,14.5,17.8,28.9,26.7,43.4c0.3,0.4,0.6,0.6,1,0.5c1.8,4.1,3.8,8,5.9,11.9
				C102,524.3,77.8,507.2,67.6,480.3z M117.9,509.5c0.4-3.9,1.1-7.7,2.3-11.5c0.6-1.8,1.2-3.5,2-5.2c1.7-4.9,5.1-4.7,10.3,0.6
				c-0.1,3.7-5.2,6.8-7.4,9c-3.3,3.1-5.5,6.5-6.4,10.2C118.4,511.5,118.1,510.5,117.9,509.5z M129.9,542.1c-1.7-2.9-3.2-5.9-4.7-9
				c0.2-0.2,0.3-0.5,0.3-0.9c-0.1-3-0.4-6.4,0.9-9.2c0.7-1.6,3.3-4.3,5.4-3.9c1.3,1.3,2.6,2.7,4,4c0,1.1-0.1,2.1-0.4,3.2
				c-1.2,5.4-3.3,10.8-5.1,16C130.2,542.2,130.1,542.1,129.9,542.1z M142.2,575.1c-2-0.4-4-0.9-6-1.4c-1.3-0.3-2.7-0.7-4-1
				c-2.7,0-3.3-1.2-1.6-3.4c-0.1-2.5,0.7-3.2,2.5-2.2c1,0.3,2.1,0.6,3.1,1c1.8,0.6,3.6,1.4,5.3,2.2c3.3,1.7,6.3,3.8,9.1,6.2
				C147.7,576.1,145,575.7,142.2,575.1z M175.1,503.3c0.8-0.7,1.9-1.9,2.9-2.3c6.8-3,7.3,1.8,7.7,5.4c0.4,3.6-0.2,7.2-1.1,10.7
				c-1.9,7.3-5.5,14.1-8.7,20.9l-17.8,39C147.6,551.5,153.8,521.6,175.1,503.3z M282.4,673.7c-1.4,1.6-3.3,3.4-5.3,4
				c-1.4,0.1-2.7,0.2-4.1,0.2c-1.2-2.8-2.4-5.7-3.6-8.5c0.5-3,5.2-6,7.7-7.5c5.4-3.1,11.7-4,17.9-4.6
				C289.2,660.8,287,668.3,282.4,673.7z M399.7,693.3c-3.5,1.1-8,2.8-11.6,2.2c-8.1-1.2-8.2-8.5-4.3-13.6c4.6-6,13.7-9.2,20.2-12.8
				c14.9-8.2,29.9-16.3,44.8-24.5c0.4-0.2,0.6-0.6,0.6-1c4.2-1.6,8.2-3.4,12.3-5.3C445.5,661.1,427.1,684.4,399.7,693.3z
				 M464.6,634.2c-3,1.5-6.1,2.9-9.2,4.2c-0.2-0.2-0.5-0.4-0.9-0.4c-3,0-6.4,0.1-9.2-1.4c-1.6-0.8-4.2-3.5-3.7-5.6
				c1.4-1.3,2.8-2.5,4.2-3.7c1.1,0.1,2.1,0.3,3.2,0.6c5.4,1.5,10.6,3.9,15.8,5.9C464.8,634,464.7,634.1,464.6,634.2z M498.4,623.6
				c-0.5,2-1.1,4-1.7,6c-0.4,1.3-0.8,2.6-1.3,3.9c-0.2,2.7-1.3,3.2-3.5,1.4c-2.5,0-3.2-0.8-2.1-2.6c0.3-1,0.7-2,1.1-3
				c0.7-1.8,1.6-3.5,2.5-5.1c1.8-3.2,4.1-6.1,6.6-8.7C499.6,618.2,499,620.9,498.4,623.6z M559,570.1c1.2,1.9,0.5,2.8-2.1,2.5
				c-2,1.4-3.2,1-3.5-1.2c-0.6-1.6-0.8-3.3-0.9-5c-0.3-2.9-0.2-5.7,0.3-8.6C555.3,561.7,557.8,565.8,559,570.1z M601.1,544.5
				c1.4,5.8-2.3,12-8.2,13.3c-7.3,1.7-12.3-4.1-15.2-9.9c-4.2-8.5-5.4-17.9-4.1-27.2C577.7,531.5,598.1,532.6,601.1,544.5z
				 M604,488.9c1.5,1.4,3.2,3.5,3.7,5.5c0,1.4,0,2.7,0,4.1c-2.9,1-5.8,2.1-8.7,3.1c-3-0.7-5.8-5.5-7.1-8c-2.8-5.6-3.5-11.9-3.7-18.1
				C591.4,481.5,598.9,484,604,488.9z M592.2,427.3c-0.1,0.5,0.1,0.9,0.4,1.1c-0.9,9.1-2.3,18.3-4.1,27.5
				c-8.5,2.4-34.1,9.3-25.6,20.9c3.5,4.8,10.1,1.8,13.8-1c4-2.9,7.2-6.5,9.8-10.6c-1.3,5.8-2.8,11.6-4.5,17.4
				c-0.2,0.2-0.4,0.4-0.6,0.6c-0.5-0.1-0.9,0.1-1.3,0.5c-0.3,0.5-0.7,0.9-1,1.4c-9.2,7.1-21,9.8-31.7,14.6
				c-8.1,3.6-21.6,11.1-17.2,22.2c4.4,11,17.2,4.2,22.7-1.4c10.1-10.2,19.2-21.7,27.7-33.4c-7,22.7-16.6,44.6-28.9,64.7
				c-0.5-0.2-1,0-1.4,0.4c0,0,0,0,0,0c-16.6-1.1-34.9-1.5-51.1,3c-8,2.2-22,10.8-15.7,21.1c5.8,9.3,22.2,4.7,30.1,1.7
				c13.6-5.1,25.1-14.3,36.2-23.4c0,0,0.1,0,0.2,0c-12.4,19.7-27.4,37.7-44.8,52.6c0,0-0.1,0-0.1-0.1c-0.2-0.3-0.5-0.5-0.9-0.5
				c-17.7-9.2-35.2-19-53.3-27.4c-6.8-3.2-14.8-6.2-22.4-4.6c-4.3,0.9-7.7,3.4-6.2,8.1c1.9,6,8.9,12.2,13.6,16
				c5.6,4.7,11.9,8.4,18.8,11.1c15.1,5.9,31.8,5.7,47,0.3c-10.3,8.5-21.5,16-33.6,22.2c-0.3-0.5-1-0.7-1.6-0.5c0,0-0.1-0.1-0.1-0.1
				c-5.9-2.2-12.5-5.8-18.8-6.7c-3.2-0.4-6.5,0.3-7.8,3.5c-1.2,2.9,0,6.5,2.1,8.6c2.3,2.3,5.5,3,8.7,3.2c-0.5,0.2-1,0.4-1.5,0.6
				c-0.3-0.2-0.6-0.3-1-0.2c-1.4,0.4-2.8,0.7-4.2,1.1c-0.1,0-0.1,0-0.2,0c-0.1,0-0.1,0-0.2,0c-0.8-0.1-1.7-0.3-2.5-0.4
				c-0.1,0.3-0.2,0.6-0.3,0.8c-6.5,0.6-11.1-2.8-15.2-8c-2-2.5-4-5.1-6.9-6.5c-3.6-1.7-8.6-1.3-10.6,2.6
				c-4.4,8.5,6.9,13.2,17.1,15.5c-2.3,0.4-4.5,0.7-6.8,1c-15.9-2.4-27.1-15.6-40.5-23.4c-6-3.5-26.3-10.8-24.5,3.6
				c0.7,5.9,6.4,11.4,11,14.7c7,5.1,15.5,7.5,24.1,8.4c10.1,1,20.6,0.6,30.9-0.8c0.4,0,0.8,0.1,1.2,0.1c0.5,0,0.8-0.2,0.9-0.4
				c3.7-0.5,7.4-1.2,11-1.9c0.7,0.1,1.3,0.2,1.9,0.2c-1.9,0.9-3.8,1.6-5.7,2.4c-0.5,0.2-0.9,0.3-1.4,0.5c-15.3,5-31.2,8.2-47.3,9.6
				c-15.4,1.4-32.5,1.1-47.7-1.1c-0.4-0.1-0.8-0.1-1.2-0.2c-0.1,0-0.2,0-0.4,0c-5.2-0.5-10.5-1.1-15.7-1.8
				c-2.8-8.3-11-33.5-22.2-24.5c-4.6,3.7-1.3,10.1,1.6,13.7c3.1,3.8,6.9,6.9,11.1,9.3c-5.9-1-11.8-2.2-17.7-3.6
				c-0.2-0.2-0.4-0.4-0.6-0.6c0.1-0.5-0.1-0.9-0.6-1.2c-0.5-0.3-1-0.6-1.5-1c-7.6-8.8-10.9-20.4-16.1-30.8c-4-7.9-12.2-21-23.1-16
				c-10.8,4.9-3.4,17.3,2.5,22.6c10.8,9.6,22.7,18.1,34.8,25.9c-23-5.8-45.5-14.4-66.3-25.6c0.1-0.5,0-1-0.5-1.3c0,0,0,0,0,0
				c0.3-16.6-0.2-34.9-5.5-50.8c-2.6-7.9-12-21.4-21.9-14.6c-9.1,6.2-3.6,22.3-0.3,30.1c5.8,13.3,15.6,24.3,25.2,34.9v0.1
				c-20.4-11.4-39.1-25.4-54.9-42c0,0,0-0.1,0-0.1c0.3-0.2,0.5-0.5,0.4-0.9c8.3-18.1,17.2-36,24.8-54.4c2.8-6.9,5.4-15,3.5-22.5
				c-1.1-4.2-3.7-7.5-8.4-5.8c-5.9,2.2-11.8,9.5-15.4,14.3c-4.4,5.8-7.9,12.3-10.2,19.2c-5.1,15.4-4.1,32,2,46.8
				c-9-9.9-17.1-20.7-23.9-32.3c0.5-0.3,0.7-1,0.4-1.6c0,0,0.1-0.1,0.1-0.1c2-6,5.2-12.7,5.8-19.1c0.3-3.2-0.6-6.4-3.9-7.6
				c-2.9-1.1-6.5,0.3-8.5,2.5c-2.2,2.4-2.7,5.7-2.8,8.9c-0.2-0.5-0.4-1-0.6-1.5c0.2-0.3,0.3-0.6,0.1-1c-0.4-1.4-0.9-2.7-1.3-4.1
				c0-0.1,0-0.1,0-0.2c0-0.1,0-0.1,0-0.2c0.1-0.8,0.2-1.7,0.3-2.5c-0.3-0.1-0.6-0.2-0.8-0.3c-0.9-6.5,2.3-11.2,7.3-15.6
				c2.4-2.1,5-4.2,6.2-7.2c1.5-3.6,0.8-8.6-3.1-10.4c-8.7-3.9-12.9,7.5-14.7,17.8c-0.5-2.2-0.9-4.5-1.3-6.7
				c1.6-16,14.3-27.8,21.4-41.5c3.2-6.2,9.5-26.7-4.8-24.2c-5.9,1-11.1,7-14.2,11.7c-4.8,7.3-6.8,15.8-7.2,24.4
				c-0.5,10.1,0.4,20.5,2.3,30.7c0,0.4-0.1,0.8-0.1,1.1c0,0.5,0.2,0.8,0.5,0.9c0.7,3.7,1.5,7.3,2.5,10.9c-0.1,0.7-0.1,1.3-0.1,1.9
				c-1-1.8-1.8-3.7-2.7-5.6c-10.7-27.4-15.6-56.6-14.3-86c0.2-0.2,0.3-0.4,0.3-0.8c0.6-17.6,2.8-35.5,6.7-53.3
				c8.5-2.2,34.3-8.6,26.1-20.4c-3.4-4.9-10-2-13.8,0.7c-4,2.8-7.4,6.4-10.1,10.4c1.5-5.8,3.1-11.6,4.9-17.3
				c0.2-0.2,0.4-0.4,0.6-0.6c0.5,0.1,1,0,1.3-0.5c0.4-0.5,0.7-0.9,1.1-1.4c9.4-6.9,21.2-9.4,31.9-13.9c8.2-3.4,21.9-10.7,17.7-21.9
				c-4.2-11.1-17.1-4.6-22.7,0.9c-10.4,10-19.7,21.3-28.4,32.8c7.5-22.5,17.6-44.3,30.3-64.1c0.5,0.2,1,0,1.4-0.4c0,0,0,0,0,0
				c16.5,1.5,34.9,2.2,51.2-1.9c8-2.1,22.3-10.4,16.1-20.7c-5.6-9.5-22-5.2-30.1-2.4c-13.7,4.8-25.4,13.8-36.7,22.6c0,0-0.1,0-0.1,0
				c12.8-19.5,28.1-37.1,45.9-51.7c0,0,0.1,0,0.1,0.1c0.2,0.3,0.5,0.5,0.9,0.5c17.5,9.5,34.8,19.7,52.7,28.5
				c6.7,3.3,14.6,6.5,22.3,5.1c4.3-0.8,7.7-3.2,6.4-7.9c-1.7-6-8.7-12.4-13.2-16.3c-5.5-4.8-11.8-8.7-18.5-11.5
				c-15-6.2-31.7-6.4-47-1.3c10.5-8.3,21.9-15.5,34-21.5c0.3,0.5,1,0.7,1.6,0.5c0,0,0.1,0.1,0.1,0.1c5.9,2.4,12.4,6.1,18.7,7.1
				c3.1,0.5,6.5-0.2,7.9-3.3c1.3-2.8,0.1-6.5-1.9-8.6c-2.3-2.3-5.5-3.1-8.7-3.4c0.5-0.2,1-0.4,1.6-0.5c0.3,0.2,0.6,0.3,1,0.2
				c1.4-0.4,2.8-0.7,4.2-1c0.1,0,0.1,0,0.2,0c0.1,0,0.1,0,0.2,0c0.8,0.2,1.7,0.3,2.5,0.5c0.1-0.3,0.2-0.5,0.3-0.8
				c6.5-0.5,11,3.1,15.1,8.3c1.9,2.5,3.9,5.2,6.8,6.6c3.5,1.7,8.6,1.4,10.7-2.4c4.5-8.4-6.6-13.3-16.8-15.8c2.3-0.3,4.5-0.6,6.8-0.8
				c15.9,2.7,26.8,16.1,40,24.2c6,3.6,26,11.3,24.6-3.1c-0.6-5.9-6.2-11.5-10.6-14.9c-6.9-5.2-15.4-7.8-23.9-8.9
				c-10.1-1.2-20.5-1-30.9,0.1c-0.4,0-0.8-0.1-1.1-0.2c-0.5,0-0.8,0.1-1,0.4c-3.7,0.5-7.4,1-11,1.7c-0.7-0.1-1.3-0.2-1.9-0.3
				c1.9-0.8,3.8-1.5,5.8-2.2c20.2-6.2,41.3-9.4,62.4-9.5c0.2,0.3,0.5,0.5,1,0.5c9.9,0,19.9,0.6,30,1.6c1.5,0.2,2.9,0.4,4.4,0.7
				c0.3,0,0.5,0,0.7-0.1c6.2,0.8,12.4,1.7,18.6,2.8c2.5,8.4,9.7,33.9,21.2,25.4c4.8-3.5,1.7-10.1-1.1-13.8
				c-2.9-3.9-6.6-7.2-10.7-9.7c5.9,1.3,11.7,2.7,17.5,4.3c0.2,0.2,0.4,0.4,0.6,0.6c-0.1,0.5,0.1,0.9,0.5,1.3c0.5,0.3,1,0.7,1.4,1
				c7.2,9.1,10.1,20.9,14.9,31.4c3.7,8,11.4,21.5,22.5,16.9c11-4.5,4.1-17.1-1.6-22.6c-10.4-10-22-19-33.8-27.3
				c22.8,6.7,44.9,16.2,65.2,28.2c-0.2,0.5,0,1,0.4,1.4c0,0,0,0,0,0c-1,16.5-1.2,34.9,3.5,50.9c2.3,8,11.1,21.9,21.3,15.4
				c9.3-5.9,4.5-22.1,1.5-30.1c-5.2-13.5-14.6-24.9-23.8-35.9c0,0,0-0.1,0-0.1c19.9,12.2,38,26.9,53.2,44.2c0,0,0,0.1,0,0.1
				c-0.3,0.2-0.5,0.5-0.5,0.9c-9,17.7-18.7,35.3-26.9,53.4c-3.1,6.8-6.1,14.8-4.4,22.4c0.9,4.2,3.4,7.6,8.1,6.1
				c6-1.9,12.1-9,15.9-13.7c4.6-5.6,8.3-12,10.9-18.8c5.7-15.2,5.4-31.8-0.1-46.9c8.6,10.2,16.2,21.3,22.6,33.2
				c-0.5,0.3-0.7,1-0.5,1.6c0,0-0.1,0.1-0.1,0.1c-2.2,6-5.7,12.5-6.6,18.8c-0.4,3.2,0.4,6.4,3.6,7.8c2.9,1.2,6.5,0,8.6-2.2
				c2.3-2.3,2.9-5.6,3.1-8.7c0.2,0.5,0.4,1,0.6,1.5c-0.2,0.3-0.3,0.6-0.2,1c0.4,1.4,0.7,2.8,1.1,4.1c0,0.1,0,0.1,0,0.2
				c0,0.1,0,0.1,0,0.2c-0.1,0.8-0.3,1.7-0.4,2.5c0.3,0.1,0.6,0.2,0.8,0.3c0.7,6.5-2.7,11.1-7.9,15.3c-2.4,2-5.1,4-6.5,7
				c-1.7,3.6-1.2,8.6,2.7,10.5c8.6,4.3,13.1-7,15.4-17.2c0.4,2.2,0.7,4.5,1,6.8c-2.2,15.9-15.4,27.2-23,40.7
				c-3.5,6.1-10.6,26.3,3.9,24.4c5.9-0.8,11.4-6.5,14.6-11.1c5-7.1,7.4-15.6,8.2-24.1c0.9-10.1,0.4-20.5-1.1-30.8
				c0-0.4,0.1-0.8,0.1-1.1c0-0.5-0.2-0.7-0.4-0.9c-0.6-3.7-1.2-7.3-2-11c0.1-0.7,0.2-1.3,0.2-1.9c0.9,1.9,1.7,3.8,2.4,5.7
				C593.2,361.3,596.6,394.5,592.2,427.3z M587.2,458.9c-1.8,4-4.2,7.7-7.2,10.8c-2.2,2.3-14.8,13.1-15.9,3
				c-0.7-6,8.1-8.5,12.3-10.1C580,461.3,583.6,460.1,587.2,458.9z M575.1,490.5c-5.7,7.6-11.8,14.9-18.1,22
				c-3.4,3.8-7,8.6-11.6,11.1c-5.2,2.9-13,2.3-13.4-5.4c-0.2-3.8,2.2-7.1,4.9-9.5C547.6,499.1,562.7,497.3,575.1,490.5z
				 M546.3,554.4c-7.7,6.3-15.7,12.4-24.4,17.2c-8.4,4.5-24.1,11.5-33.3,5.8c-9.9-6.1,0.9-15.9,7.6-18.6c5.4-2.2,11.4-2.9,17.2-3.5
				C524.2,554.1,535.2,553.9,546.3,554.4z M501,607.9c-26.1,9.2-55.7,1.6-73-20.5c-0.7-0.9-1.8-2-2.2-3c-2.7-6.9,2.1-7.2,5.8-7.4
				c3.6-0.2,7.2,0.5,10.7,1.6c7.2,2.3,13.9,6.2,20.5,9.7L501,607.9z M434.5,644c-1.1,0.2-2.1,0.4-3.2,0.6c-3.9-0.5-7.7-1.5-11.4-2.8
				c-1.8-0.6-3.5-1.4-5.1-2.2c-4.9-1.9-4.5-5.3,1.2-10.3c3.7,0.3,6.6,5.5,8.6,7.8C427.5,640.6,430.8,642.9,434.5,644z M411.1,647.5
				c-4.6,0.4-9.2,0.6-13.8,0.6c-8.9,0-17.9-1-26-4.9c-3.1-1.5-6.1-3.4-8.7-5.7c-1.7-1.5-3.2-3.2-4.5-5c-2-2.9-2.4-4.1-1.4-7.6
				c1-3.6,1.6-4.3,5.5-4.4c1.6,0,3.2,0.3,4.7,0.7c3.3,0.9,6.5,2.6,9.4,4.3c5.6,3.2,10.6,7.2,15.7,11
				C398.1,641,404.2,645.1,411.1,647.5z M311.6,655.5c-4.1-1.6-7.9-3.8-11.2-6.7c-2.4-2.1-13.9-14.1-3.8-15.7
				c5.9-1,8.9,7.7,10.7,11.8C308.9,648.4,310.3,651.9,311.6,655.5z M279.4,645c-7.9-5.3-15.6-11-23-17c-4-3.2-9-6.6-11.7-11
				c-3.1-5-2.9-12.9,4.8-13.7c3.8-0.4,7.2,1.8,9.8,4.4C269.4,618,272,633,279.4,645z M213.9,619.4c-6.7-7.4-13.2-15-18.4-23.5
				c-5-8.1-12.8-23.4-7.5-32.9c5.7-10.2,16,0.2,19,6.6c2.5,5.3,3.4,11.2,4.4,16.9C213.1,597.5,213.9,608.4,213.9,619.4z M114,489.5
				c-0.6-4.6-1.1-9.1-1.3-13.7c-0.4-8.8,0.1-17.9,3.6-26.1c1.3-3.2,3.1-6.3,5.3-8.9c1.4-1.7,3-3.4,4.8-4.7c2.8-2.1,4-2.6,7.5-1.8
				c3.7,0.8,4.4,1.4,4.6,5.3c0.1,1.6-0.1,3.2-0.5,4.7c-0.7,3.3-2.3,6.6-3.8,9.6c-3,5.7-6.7,10.9-10.3,16.2
				C119.9,476.2,116.1,482.5,114,489.5z M106.7,363.6c1.9-4,4.3-7.6,7.5-10.7c2.3-2.2,15-12.8,15.9-2.7c0.5,6-8.3,8.3-12.6,9.8
				C114,361.4,110.4,362.5,106.7,363.6z M119.4,332.3c5.9-7.5,12.1-14.7,18.6-21.7c3.5-3.7,7.2-8.4,11.8-10.8
				c5.2-2.8,13.1-2,13.3,5.7c0.1,3.8-2.3,7-5.1,9.4C147.2,324.3,132,325.8,119.4,332.3z M149.7,269c7.9-6.1,15.9-12.1,24.8-16.7
				c8.5-4.4,24.3-11,33.4-5.1c9.8,6.4-1.3,15.9-8,18.4c-5.5,2.1-11.4,2.6-17.2,3.1C171.7,269.7,160.7,269.7,149.7,269z M196,216.5
				c26.2-8.7,55.8-0.4,72.5,22c0.7,0.9,1.8,2,2.1,3.1c2.5,6.9-2.3,7.2-5.9,7.3c-3.6,0.2-7.2-0.7-10.6-1.8
				c-7.1-2.4-13.7-6.5-20.3-10.1L196,216.5z M263.3,181.7c1.1-0.2,2.1-0.4,3.2-0.5c3.9,0.6,7.6,1.6,11.3,3.1
				c1.7,0.7,3.4,1.5,5.1,2.3c4.8,2,4.4,5.4-1.4,10.2c-3.7-0.3-6.5-5.6-8.4-8C270.2,185.3,267,182.9,263.3,181.7z M286.7,178.8
				c4.6-0.3,9.2-0.4,13.8-0.3c8.9,0.2,17.9,1.4,25.9,5.4c3.1,1.5,6,3.5,8.6,5.9c1.6,1.5,3.2,3.3,4.4,5.1c1.9,2.9,2.3,4.1,1.3,7.6
				c-1.1,3.6-1.7,4.3-5.6,4.2c-1.6,0-3.2-0.4-4.7-0.8c-3.3-0.9-6.4-2.7-9.4-4.5c-5.5-3.3-10.4-7.4-15.5-11.4
				C299.6,185.5,293.6,181.3,286.7,178.8z M389.6,173.5c4,1.8,7.7,4.1,10.9,7.1c2.3,2.2,13.3,14.6,3.2,15.8c-6,0.7-8.6-8-10.2-12.2
				C392.1,180.7,390.8,177.1,389.6,173.5z M421.4,185.2c7.7,5.6,15.1,11.6,22.3,17.9c3.8,3.4,8.7,6.9,11.2,11.4
				c2.9,5.1,2.4,13-5.3,13.5c-3.8,0.2-7.1-2.1-9.6-4.8C430.3,212.6,428.3,197.5,421.4,185.2z M576.7,324c0.2,1,0.4,2.1,0.6,3.1
				c-0.5,3.9-1.4,7.7-2.7,11.4c-0.6,1.8-1.4,3.5-2.2,5.1c-1.8,4.9-5.3,4.5-10.3-1c0.2-3.7,5.4-6.6,7.8-8.7
				C573.3,331,575.7,327.7,576.7,324z M580.4,347.3c0.4,4.6,0.7,9.1,0.7,13.7c0.1,8.8-0.9,17.8-4.6,25.9c-1.5,3.1-3.3,6.1-5.6,8.7
				c-1.5,1.7-3.2,3.3-5,4.6c-2.8,2-4.1,2.4-7.6,1.5c-3.7-1-4.3-1.6-4.4-5.5c0-1.6,0.3-3.2,0.6-4.7c0.8-3.3,2.5-6.5,4.2-9.5
				c3.2-5.6,7.1-10.6,10.9-15.8C574,360.3,578.1,354.2,580.4,347.3z M628.8,369.8c-1.1,8-8.4,8.3-13.6,4.4c-6-4.5-9.4-13.6-13-20
				c-8.3-14.8-16.6-29.6-25-44.5c-0.2-0.4-0.6-0.6-1-0.6c-1.6-4.1-3.4-8.2-5.4-12.2c22.9,15.9,46.5,34,55.6,61.2
				C627.6,361.7,629.3,366.1,628.8,369.8z"/>
		</g>
	</g>
	<g>
		<g>
			<path class="st0" d="M210.9,626.1c-3.8,2.6-7.8,5.4-12,6.8c-1.9,1.3-2.7,0.7-2.6-2c-1.5-2-1.2-3.1,1.1-3.5c1.6-0.7,3.3-0.9,5-1.2
				C205.2,625.8,208,625.8,210.9,626.1"/>
		</g>
	</g>
	<g>
		<g>
			<path class="st0" d="M207.7,192.3c-0.3,1-0.7,2-1.2,3c-0.8,1.8-1.6,3.5-2.6,5.1c-1.9,3.2-4.2,6-6.8,8.6c0.6-2.7,1.2-5.5,1.9-8.2
				c0.6-2,1.1-4,1.8-5.9c0.4-1.3,0.9-2.6,1.3-3.9c0.2-2.7,1.4-3.2,3.5-1.3C208.2,189.7,208.8,190.6,207.7,192.3"/>
		</g>
	</g>
	<g>
		<g>
			<path class="st0" d="M143.2,265.5c-2.4-4-4.8-8.2-6-12.4c-1.2-2-0.5-2.8,2.1-2.5c2.1-1.4,3.2-0.9,3.5,1.3c0.6,1.6,0.7,3.3,0.8,5
				C143.9,259.8,143.7,262.7,143.2,265.5"/>
		</g>
	</g>
	<g>
		<g>
			<path class="st0" d="M255.9,194.4c-1.4,1.2-2.9,2.4-4.3,3.7c-1.1-0.1-2.1-0.3-3.1-0.7c-5.3-1.6-10.5-4.1-15.7-6.2
				c0.1-0.1,0.2-0.2,0.2-0.3c3.1-1.4,6.2-2.8,9.3-4.1c0.2,0.2,0.5,0.4,0.9,0.4c3,0.1,6.4,0.1,9.1,1.5
				C253.8,189.6,256.4,192.3,255.9,194.4"/>
		</g>
	</g>
	<g>
		<g>
			<path class="st0" d="M281.5,196.8c-3.7-0.3-6.5-5.6-8.4-8c-2.9-3.5-6.1-5.9-9.8-7.1c1.1-0.2,2.1-0.4,3.2-0.5
				c3.9,0.6,7.6,1.6,11.3,3.1c1.7,0.7,3.4,1.5,5.1,2.3C287.7,188.6,287.2,192,281.5,196.8"/>
		</g>
	</g>
	<g>
		<g>
			<path class="st0" d="M432.4,161.3c-0.6,3-5.4,5.8-8,7.1c-5.6,2.9-11.9,3.6-18.1,3.9c6-3.1,8.4-10.6,13.2-15.8
				c1.4-1.5,3.4-3.2,5.5-3.8c1.4,0,2.7,0,4.1-0.1C430.2,155.5,431.3,158.4,432.4,161.3"/>
		</g>
	</g>
	<g>
		<g>
			<path class="st0" d="M403.7,196.4c-6,0.7-8.6-8-10.2-12.2c-1.4-3.5-2.7-7.1-3.9-10.7c4,1.8,7.7,4.1,10.9,7.1
				C402.9,182.8,413.8,195.2,403.7,196.4"/>
		</g>
	</g>
	<g>
		<g>
			<path class="st0" d="M449.6,228c-3.8,0.2-7.1-2.1-9.6-4.8c-9.8-10.6-11.7-25.7-18.6-38c7.7,5.6,15.1,11.6,22.3,17.9
				c3.8,3.4,8.7,6.9,11.2,11.4C457.9,219.7,457.3,227.5,449.6,228"/>
		</g>
	</g>
	<g>
		<g>
			<path class="st0" d="M479.1,182.2c-8.4,4.3-18,5.6-27.2,4.4c10.6-4.3,11.6-24.7,23.5-27.7c5.9-1.5,12.1,2.1,13.5,8.1
				C490.6,174.2,484.9,179.3,479.1,182.2"/>
		</g>
	</g>
	<g>
		<g>
			<path class="st0" d="M502.7,206.1c-1.6,0.6-3.3,0.8-5,1c-2.9,0.3-5.7,0.2-8.6-0.2c3.9-2.5,8.1-5.1,12.3-6.3
				c1.9-1.2,2.8-0.6,2.5,2.1C505.4,204.6,505,205.8,502.7,206.1"/>
		</g>
	</g>
	<g>
		<g>
			<path class="st0" d="M567,266.8c0,2.5-0.8,3.2-2.6,2.1c-1-0.3-2-0.7-3-1.1c-1.8-0.7-3.5-1.5-5.2-2.5c-3.2-1.8-6.1-4-8.8-6.5
				c2.8,0.5,5.5,1,8.2,1.7c2,0.5,4,1,6,1.6c1.3,0.4,2.6,0.8,3.9,1.2C568.3,263.5,568.8,264.6,567,266.8"/>
		</g>
	</g>
	<g>
		<g>
			<path class="st0" d="M509.4,270.8c-6.1,10-16-0.8-18.7-7.4c-2.3-5.4-3-11.3-3.7-17.1c-1.3-10.9-1.6-21.9-1.2-32.9
				c6.4,7.6,12.6,15.5,17.5,24.2C507.9,246,515.1,261.5,509.4,270.8"/>
		</g>
	</g>
	<g>
		<g>
			<path class="st0" d="M520,331c-0.9,0.7-2,1.8-3,2.2c-6.9,2.7-7.2-2.1-7.5-5.7c-0.3-3.6,0.5-7.2,1.5-10.7
				c2.2-7.2,6.1-13.9,9.5-20.6l19.4-38.3C549.3,283.9,542,313.6,520,331"/>
		</g>
	</g>
	<g>
		<g>
			<path class="st0" d="M570.6,304.1c0,3,0.1,6.4-1.3,9.2c-0.8,1.6-3.4,4.2-5.6,3.7c-1.3-1.4-2.5-2.8-3.8-4.2c0-1.1,0.2-2.1,0.6-3.1
				c1.4-5.4,3.8-10.6,5.7-15.8c0.1,0.1,0.2,0.1,0.3,0.2c1.5,3,3,6.1,4.3,9.2C570.7,303.4,570.6,303.7,570.6,304.1"/>
		</g>
	</g>
	<g>
		<g>
			<path class="st0" d="M577.4,327.1c-0.5,3.9-1.4,7.7-2.7,11.4c-0.6,1.8-1.4,3.5-2.2,5.1c-1.8,4.9-5.3,4.5-10.3-1
				c0.2-3.7,5.4-6.6,7.8-8.7c3.4-3,5.8-6.2,6.8-10C577,325,577.2,326.1,577.4,327.1"/>
		</g>
	</g>
	<g>
		<g>
			<path class="st0" d="M628.8,369.8c-1.1,8-8.4,8.3-13.6,4.4c-6-4.5-9.4-13.6-13-20c-8.3-14.8-16.6-29.6-25-44.5
				c-0.2-0.4-0.6-0.6-1-0.6c-1.6-4.1-3.4-8.2-5.4-12.2c22.9,15.9,46.5,34,55.6,61.2C627.6,361.7,629.3,366.1,628.8,369.8"/>
		</g>
	</g>
	<g>
		<g>
			<path class="st0" d="M581.1,361c0.1,8.8-0.9,17.8-4.6,25.9c-1.5,3.1-3.3,6.1-5.6,8.7c-1.5,1.7-3.2,3.3-5,4.6
				c-2.8,2-4.1,2.4-7.6,1.5c-3.7-1-4.3-1.6-4.4-5.5c0-1.6,0.3-3.2,0.6-4.7c0.8-3.3,2.5-6.5,4.2-9.5c3.2-5.6,7.1-10.6,10.9-15.8
				c4.4-6,8.5-12.2,10.8-19C580.8,351.8,581.1,356.4,581.1,361"/>
		</g>
	</g>
	<g>
		<g>
			<path class="st0" d="M587.2,458.9c-1.8,4-4.2,7.7-7.2,10.8c-2.2,2.3-14.8,13.1-15.9,3c-0.7-6,8.1-8.5,12.3-10.1
				C580,461.3,583.6,460.1,587.2,458.9"/>
		</g>
	</g>
	<g>
		<g>
			<path class="st0" d="M607.8,498.5c-2.9,1-5.8,2.1-8.7,3.1c-3-0.7-5.8-5.5-7.1-8c-2.8-5.6-3.5-11.9-3.7-18.1
				c3.1,6,10.6,8.5,15.7,13.3c1.5,1.4,3.2,3.5,3.7,5.5C607.7,495.8,607.7,497.1,607.8,498.5"/>
		</g>
	</g>
	<g>
		<g>
			<path class="st0" d="M557,572.6c-2,1.4-3.2,1-3.5-1.2c-0.6-1.6-0.8-3.3-0.9-5c-0.3-2.9-0.2-5.7,0.3-8.6c2.5,3.9,5,8.1,6.2,12.3
				C560.3,572,559.6,572.9,557,572.6"/>
		</g>
	</g>
	<g>
		<g>
			<path class="st0" d="M592.8,557.9c-7.3,1.7-12.3-4.1-15.2-9.9c-4.2-8.5-5.4-17.9-4.1-27.2c4.2,10.7,24.6,11.8,27.6,23.7
				C602.5,550.4,598.8,556.5,592.8,557.9"/>
		</g>
	</g>
	<g>
		<g>
			<path class="st0" d="M575.1,490.5c-5.7,7.6-11.8,14.9-18.1,22c-3.4,3.8-7,8.6-11.6,11.1c-5.2,2.9-13,2.3-13.4-5.4
				c-0.2-3.8,2.2-7.1,4.9-9.5C547.6,499.1,562.7,497.3,575.1,490.5"/>
		</g>
	</g>
	<g>
		<g>
			<path class="st0" d="M546.3,554.4c-7.7,6.3-15.7,12.4-24.4,17.2c-8.4,4.5-24.1,11.5-33.3,5.8c-9.9-6.1,0.9-15.9,7.6-18.6
				c5.4-2.2,11.4-2.9,17.2-3.5C524.2,554.1,535.2,553.9,546.3,554.4"/>
		</g>
	</g>
	<g>
		<g>
			<path class="st0" d="M500.1,615.4c-0.5,2.7-1.1,5.5-1.8,8.2c-0.5,2-1.1,4-1.7,6c-0.4,1.3-0.8,2.6-1.3,3.9
				c-0.2,2.7-1.3,3.2-3.5,1.4c-2.5,0-3.2-0.8-2.1-2.6c0.3-1,0.7-2,1.1-3c0.7-1.8,1.6-3.5,2.5-5.1
				C495.3,620.9,497.6,618.1,500.1,615.4"/>
		</g>
	</g>
	<g>
		<g>
			<path class="st0" d="M501,607.9c-26.1,9.2-55.7,1.6-73-20.5c-0.7-0.9-1.8-2-2.2-3c-2.7-6.9,2.1-7.2,5.8-7.4
				c3.6-0.2,7.2,0.5,10.7,1.6c7.2,2.3,13.9,6.2,20.5,9.7L501,607.9"/>
		</g>
	</g>
	<g>
		<g>
			<path class="st0" d="M461.6,638.4c-16.1,22.7-34.5,46-61.9,54.9c-3.5,1.1-8,2.8-11.6,2.2c-8.1-1.2-8.2-8.5-4.3-13.6
				c4.6-6,13.7-9.2,20.2-12.8c14.9-8.2,29.9-16.3,44.8-24.5c0.4-0.2,0.6-0.6,0.6-1C453.5,642.1,457.6,640.4,461.6,638.4"/>
		</g>
	</g>
	<g>
		<g>
			<path class="st0" d="M464.8,633.9c-0.1,0.1-0.2,0.2-0.2,0.3c-3,1.5-6.1,2.9-9.2,4.2c-0.2-0.2-0.5-0.4-0.9-0.4
				c-3,0-6.4,0.1-9.2-1.4c-1.6-0.8-4.2-3.5-3.7-5.6c1.4-1.3,2.8-2.5,4.2-3.7c1.1,0.1,2.1,0.3,3.2,0.6
				C454.4,629.5,459.6,631.9,464.8,633.9"/>
		</g>
	</g>
	<g>
		<g>
			<path class="st0" d="M434.5,644c-1.1,0.2-2.1,0.4-3.2,0.6c-3.9-0.5-7.7-1.5-11.4-2.8c-1.8-0.6-3.5-1.4-5.1-2.2
				c-4.9-1.9-4.5-5.3,1.2-10.3c3.7,0.3,6.6,5.5,8.6,7.8C427.5,640.6,430.8,642.9,434.5,644"/>
		</g>
	</g>
	<g>
		<g>
			<path class="st0" d="M411.1,647.5c-4.6,0.4-9.2,0.6-13.8,0.6c-8.9,0-17.9-1-26-4.9c-3.1-1.5-6.1-3.4-8.7-5.7
				c-1.7-1.5-3.2-3.2-4.5-5c-2-2.9-2.4-4.1-1.4-7.6c1-3.6,1.6-4.3,5.5-4.4c1.6,0,3.2,0.3,4.7,0.7c3.3,0.9,6.5,2.6,9.4,4.3
				c5.6,3.2,10.6,7.2,15.7,11C398.1,641,404.2,645.1,411.1,647.5"/>
		</g>
	</g>
	<g>
		<g>
			<path class="st0" d="M311.6,655.5c-4.1-1.6-7.9-3.8-11.2-6.7c-2.4-2.1-13.9-14.1-3.8-15.7c5.9-1,8.9,7.7,10.7,11.8
				C308.9,648.4,310.3,651.9,311.6,655.5"/>
		</g>
	</g>
	<g>
		<g>
			<path class="st0" d="M295,657.4c-5.8,3.4-8,10.9-12.6,16.3c-1.4,1.6-3.3,3.4-5.3,4c-1.4,0.1-2.7,0.2-4.1,0.2
				c-1.2-2.8-2.4-5.7-3.6-8.5c0.5-3,5.2-6,7.7-7.5C282.6,658.9,288.8,657.9,295,657.4"/>
		</g>
	</g>
	<g>
		<g>
			<path class="st0" d="M248.9,644.9c-10.5,4.7-10.6,25.1-22.4,28.6c-5.8,1.7-12.1-1.7-13.8-7.5c-2-7.2,3.4-12.5,9.1-15.6
				C230.2,645.7,239.6,644,248.9,644.9"/>
		</g>
	</g>
	<g>
		<g>
			<path class="st0" d="M279.4,645c-7.9-5.3-15.6-11-23-17c-4-3.2-9-6.6-11.7-11c-3.1-5-2.9-12.9,4.8-13.7c3.8-0.4,7.2,1.8,9.8,4.4
				C269.4,618,272,633,279.4,645"/>
		</g>
	</g>
	<g>
		<g>
			<path class="st0" d="M213.9,619.4c-6.7-7.4-13.2-15-18.4-23.5c-5-8.1-12.8-23.4-7.5-32.9c5.7-10.2,16,0.2,19,6.6
				c2.5,5.3,3.4,11.2,4.4,16.9C213.1,597.5,213.9,608.4,213.9,619.4"/>
		</g>
	</g>
	<g>
		<g>
			<path class="st0" d="M150.5,576.5c-2.8-0.4-5.6-0.8-8.3-1.4c-2-0.4-4-0.9-6-1.4c-1.3-0.3-2.7-0.7-4-1c-2.7,0-3.3-1.2-1.6-3.4
				c-0.1-2.5,0.7-3.2,2.5-2.2c1,0.3,2.1,0.6,3.1,1c1.8,0.6,3.6,1.4,5.3,2.2C144.8,572,147.7,574.1,150.5,576.5"/>
		</g>
	</g>
	<g>
		<g>
			<path class="st0" d="M184.6,517c-1.9,7.3-5.5,14.1-8.7,20.9l-17.8,39c-10.5-25.5-4.3-55.4,16.9-73.7c0.8-0.7,1.9-1.9,2.9-2.3
				c6.8-3,7.3,1.8,7.7,5.4C186.1,509.9,185.6,513.6,184.6,517"/>
		</g>
	</g>
	<g>
		<g>
			<path class="st0" d="M135.8,523.1c0,1.1-0.1,2.1-0.4,3.2c-1.2,5.4-3.3,10.8-5.1,16c-0.1-0.1-0.2-0.1-0.3-0.2
				c-1.7-2.9-3.2-5.9-4.7-9c0.2-0.2,0.3-0.5,0.3-0.9c-0.1-3-0.4-6.4,0.9-9.2c0.7-1.6,3.3-4.3,5.4-3.9
				C133.2,520.4,134.5,521.7,135.8,523.1"/>
		</g>
	</g>
	<g>
		<g>
			<path class="st0" d="M132.4,493.4c-0.1,3.7-5.2,6.8-7.4,9c-3.3,3.1-5.5,6.5-6.4,10.2c-0.3-1-0.5-2.1-0.8-3.1
				c0.4-3.9,1.1-7.7,2.3-11.5c0.6-1.8,1.2-3.5,2-5.2C123.8,487.8,127.2,488,132.4,493.4"/>
		</g>
	</g>
	<g>
		<g>
			<path class="st0" d="M125.6,539.3c-23.5-15-47.8-32.1-58-59c-1.3-3.4-3.2-7.8-2.8-11.5c0.8-8.1,8.1-8.6,13.4-5
				c6.2,4.3,10,13.2,13.8,19.5c8.9,14.5,17.8,28.9,26.7,43.4c0.3,0.4,0.6,0.6,1,0.5C121.5,531.4,123.4,535.4,125.6,539.3"/>
		</g>
	</g>
	<g>
		<g>
			<path class="st0" d="M138.1,444.1c-0.7,3.3-2.3,6.6-3.8,9.6c-3,5.7-6.7,10.9-10.3,16.2c-4.2,6.2-8,12.5-10,19.5
				c-0.6-4.6-1.1-9.1-1.3-13.7c-0.4-8.8,0.1-17.9,3.6-26.1c1.3-3.2,3.1-6.3,5.3-8.9c1.4-1.7,3-3.4,4.8-4.7c2.8-2.1,4-2.6,7.5-1.8
				c3.7,0.8,4.4,1.4,4.6,5.3C138.7,441,138.5,442.6,138.1,444.1"/>
		</g>
	</g>
	<g>
		<g>
			<path class="st0" d="M130.1,350.2c0.5,6-8.3,8.3-12.6,9.8c-3.6,1.3-7.2,2.5-10.9,3.6c1.9-4,4.3-7.6,7.5-10.7
				C116.4,350.7,129.2,340.1,130.1,350.2"/>
		</g>
	</g>
	<g>
		<g>
			<path class="st0" d="M106,347c-3-6.1-10.4-8.7-15.4-13.7c-1.5-1.5-3.1-3.5-3.6-5.6l0-4.1c2.9-1,5.8-2,8.7-3
				c3,0.7,5.7,5.6,6.9,8.2C105.4,334.5,105.9,340.8,106,347"/>
		</g>
	</g>
	<g>
		<g>
			<path class="st0" d="M163.2,305.5c0.1,3.8-2.3,7-5.1,9.4c-10.9,9.4-26.1,10.9-38.6,17.4c5.9-7.5,12.1-14.7,18.6-21.7
				c3.5-3.7,7.2-8.4,11.8-10.8C155.1,297,162.9,297.8,163.2,305.5"/>
		</g>
	</g>
	<g>
		<g>
			<path class="st0" d="M121.7,302c-4-10.8-24.4-12.3-27.1-24.3c-1.3-5.9,2.5-11.9,8.5-13.2c7.4-1.5,12.2,4.3,15,10.2
				C122.2,283.3,123.2,292.8,121.7,302"/>
		</g>
	</g>
	<g>
		<g>
			<path class="st0" d="M199.9,265.6c-5.5,2.1-11.4,2.6-17.2,3.1c-11,1-22,1-33,0.2c7.9-6.1,15.9-12.1,24.8-16.7
				c8.5-4.4,24.3-11,33.4-5.1C217.7,253.6,206.6,263.1,199.9,265.6"/>
		</g>
	</g>
	<g>
		<g>
			<path class="st0" d="M340.6,202.5c-1.1,3.6-1.7,4.3-5.6,4.2c-1.6,0-3.2-0.4-4.7-0.8c-3.3-0.9-6.4-2.7-9.4-4.5
				c-5.5-3.3-10.4-7.4-15.5-11.4c-5.9-4.6-11.9-8.8-18.8-11.3c4.6-0.3,9.2-0.4,13.8-0.3c8.9,0.2,17.9,1.4,25.9,5.4
				c3.1,1.5,6,3.5,8.6,5.9c1.6,1.5,3.2,3.3,4.4,5.1C341.2,197.8,341.7,199,340.6,202.5"/>
		</g>
	</g>
	<g>
		<g>
			<path class="st0" d="M264.8,248.9c-3.6,0.2-7.2-0.7-10.6-1.8c-7.1-2.4-13.7-6.5-20.3-10.1L196,216.5c26.2-8.7,55.8-0.4,72.5,22
				c0.7,0.9,1.8,2,2.1,3.1C273.3,248.5,268.4,248.7,264.8,248.9"/>
		</g>
	</g>
	<g>
		<g>
			<path class="st0" d="M314.8,144.9c-4.7,5.9-13.9,9-20.5,12.4c-15.1,7.8-30.2,15.7-45.3,23.5c-0.4,0.2-0.6,0.6-0.6,1
				c-4.2,1.5-8.3,3.2-12.4,5c16.6-22.3,35.5-45.3,63.1-53.5c3.5-1.1,8-2.6,11.7-2C318.8,132.6,318.8,139.8,314.8,144.9"/>
		</g>
	</g>
	<g>
		<g>
			<path class="st0" d="M567,220.2c-2.5-9.2-16.6-9.2-24.2-9.1c-12.2,0.2-24,3.8-34.4,10c-1.2,0.7-0.2,2.5,1,2.2
				c0.1,0.1,0.3,0.2,0.5,0.3c13.3,4.1,27.3,7.5,41.2,8.6C557.9,232.7,569.5,229.7,567,220.2 M559.3,229.1c-2.5,1-5.6,0.8-8.2,0.6
				c-4.5-0.3-9.1-1.1-13.6-1.9c-8.6-1.5-17-3.6-25.3-6.1c6.8-3.7,14-6.2,21.7-7.4c7.8-1.2,22-2.7,28.3,3.1
				C566.4,221.2,564.4,227.1,559.3,229.1z"/>
		</g>
	</g>
	<g>
		<g>
			<path class="st0" d="M559.3,229.1c-2.5,1-5.6,0.8-8.2,0.6c-4.5-0.3-9.1-1.1-13.6-1.9c-8.6-1.5-17-3.6-25.3-6.1
				c6.8-3.7,14-6.2,21.7-7.4c7.8-1.2,22-2.7,28.3,3.1C566.4,221.2,564.4,227.1,559.3,229.1"/>
		</g>
	</g>
	<g>
		<g>
			<path class="st0" d="M548.1,611.3c-0.1-12.2-3.6-23.9-9.7-34.4c-0.7-1.3-2.5-0.3-2.2,1c-0.1,0.1-0.2,0.3-0.3,0.5
				c-4.2,13.2-7.8,27.1-9,41c-0.6,6.9,2.3,18.5,11.8,16C548,632.8,548.1,618.8,548.1,611.3 M541.5,630.6c-3.8,4.1-9.7,2-11.7-3
				c-1-2.6-0.7-5.6-0.5-8.2c0.4-4.5,1.2-9,2-13.5c1.6-8.5,3.8-16.9,6.3-25.2c3.6,6.8,6.1,14,7.2,21.7
				C546.1,610.2,547.4,624.3,541.5,630.6z"/>
		</g>
	</g>
	<g>
		<g>
			<path class="st0" d="M541.5,630.6c-3.8,4.1-9.7,2-11.7-3c-1-2.6-0.7-5.6-0.5-8.2c0.4-4.5,1.2-9,2-13.5c1.6-8.5,3.8-16.9,6.3-25.2
				c3.6,6.8,6.1,14,7.2,21.7C546.1,610.2,547.4,624.3,541.5,630.6"/>
		</g>
	</g>
	<g>
		<g>
			<path class="st0" d="M190,610.5c-0.1-0.1-0.3-0.2-0.5-0.2c-13.5-3.6-27.5-6.4-41.5-6.9c-6.9-0.3-18.4,3.2-15.4,12.6
				c2.9,9.1,17,8.6,24.5,8.1c12.2-0.7,23.8-4.7,34-11.4C192.2,611.8,191.2,610.1,190,610.5 M165.8,620.4c-7.7,1.5-21.9,3.6-28.4-2
				c-4.3-3.6-2.5-9.6,2.5-11.8c2.5-1.1,5.5-1,8.2-0.9c4.6,0.1,9.1,0.7,13.6,1.3c8.6,1.2,17.1,2.9,25.5,5.1
				C180.5,616.1,173.4,619,165.8,620.4z"/>
		</g>
	</g>
	<g>
		<g>
			<path class="st0" d="M187.1,612.2c-6.6,4-13.7,6.8-21.3,8.3c-7.7,1.5-21.9,3.6-28.4-2c-4.3-3.6-2.5-9.6,2.5-11.8
				c2.5-1.1,5.5-1,8.2-0.9c4.6,0.1,9.1,0.7,13.6,1.3C170.2,608.3,178.7,610,187.1,612.2"/>
		</g>
	</g>
</g>
<g>
	<g>
		<g>
			<g>
				<path class="st0" d="M469.4,505.4c-4.5-0.8-8.2-2-11.2-3.4c-4-2.1-8.1-4.7-12.1-8c-4.1-3.3-8.6-8.3-13.7-15.2
					c-11.6-15.6-21.4-28.8-29.3-39.7c-2.2-3-4.5-6.2-7-9.6h-42.8c7.7,10.3,15.1,20.4,22.1,30.4c11.7,16.6,24.9,36.3,39.4,59.2h65.7
					v-12.2C477.6,506.7,473.9,506.2,469.4,505.4z M265.8,291.6c4.2,1.6,6.9,4,8.1,7.1c1.1,3.1,1.7,6.6,1.7,10.7v51.4h36.6v-71.6
					h29.2c15.5,0,27.5,4.3,35.9,13c8.5,8.6,12.7,20.3,12.7,35.1c0,8.8-1.3,16.6-4,23.6h41.1c0.4-0.9,0.8-1.8,1.1-2.7
					c2.9-7.2,4.3-15.5,4.3-24.9c0-10.4-2.1-19.4-6.4-26.7c-4.2-7.4-9.9-13.4-17-18c-7.3-4.7-15.5-8.1-24.6-10.2
					c-9.1-2.1-18.7-3.2-29.1-3.2H242.9v12.2c3.2,0.2,7.1,0.8,11.7,1.6C259.2,289.7,262.9,290.6,265.8,291.6z M322.2,503.4
					c-4.1-1.6-6.8-3.9-8.1-7c-1.3-3-1.9-6.6-1.9-10.6v-56.3h-36.6v56.3c0,4.5-0.8,8.1-2.3,11c-1.5,2.9-4,5-7.5,6.5
					c-2.1,0.9-5.7,1.7-10.9,2.2c-5.2,0.6-9.2,1-12,1.2V519h103.2v-12.2c-3.6-0.1-7.9-0.5-13.1-1.2
					C327.9,504.9,324.3,504.2,322.2,503.4z"/>
			</g>
		</g>
	</g>
	<g>
		<g>
			<g>
				<g>
					<rect x="239.1" y="362.6" class="st0" width="216.5" height="3.9"/>
				</g>
			</g>
		</g>
		<g>
			<g>
				<g>
					<rect x="239.1" y="427.7" class="st0" width="216.5" height="3.9"/>
				</g>
			</g>
		</g>
	</g>
</g>
</svg>

