<?xml version="1.0" encoding="utf-8"?>
<!-- Generator: Adobe Illustrator 23.0.5, SVG Export Plug-In . SVG Version: 6.00 Build 0)  -->
<svg version="1.1" xmlns="http://www.w3.org/2000/svg" xmlns:xlink="http://www.w3.org/1999/xlink" x="0px" y="0px"
	 viewBox="0 0 720 720" style="enable-background:new 0 0 720 720;" xml:space="preserve" width="500" height="500">
<style type="text/css">
	.st0{fill:#050002;}
	.st1{fill-rule:evenodd;clip-rule:evenodd;fill:#050002;}
	.st2{fill-rule:evenodd;clip-rule:evenodd;}
	.st3{fill:#221F1F;}
	.st4{fill:#231F20;}
	.st5{fill:#070808;}
	.st6{fill:#211E1F;}
	.st7{fill:#161616;}
	.st8{fill:#131313;}
	.st9{fill:#21201F;}
	.st10{fill:#2C2929;}
</style>
<g>
	<g>
		<g>
			<path class="st0" d="M552.1,233.8c-1.4-8.8-3-15.1-4.5-17c-4.1-5.3-4.3,3.4-0.3,10.6c1.5,2.7,3.2,5.9,3.7,7.2
				C552.2,237.7,552.7,237.4,552.1,233.8L552.1,233.8z M200.7,220.9c0.9-4.8-0.4-7.1-2.6-4.7c-1.3,1.5-4,11.1-4.9,17.8
				c-0.4,3.1-0.3,2.9,3.2-3.1C198.2,227.7,199.7,224.4,200.7,220.9L200.7,220.9z M200,237.3c4.3-2.9,5.9-4.6,7.5-8
				c3.9-8,1.7-8.7-5-1.6c-4,4.2-9.8,13.3-8.5,13.3C196.1,239.9,198.1,238.6,200,237.3L200,237.3z M549.5,236.7
				c-4.5-8-11.4-14.9-13.2-13.1c-1.1,1.1,1.2,6.5,4,9.6c1.7,1.8,11,8.7,11.9,8.7C552.4,241.8,551.1,239.5,549.5,236.7z M169.4,265
				c3.3-10.2,4.6-20.7,3.8-31.4c-0.5-12.4-2.2-25.6-3.2-25c-0.4,0.2-0.5,7.5-0.2,16.2c0.7,20.2-0.3,29.8-4.9,49.8l-0.5,2.1l1.2-2.2
				C167.2,271.4,168.4,268.3,169.4,265z M579.8,272c-3.7-13.6-4.4-20.6-4.2-42.7c0.1-11.6-0.2-21-0.5-20.8
				c-1.2,0.8-2.9,18.3-2.8,30.4c0,9.7,0.4,13.8,1.8,19.4c1.6,6.4,6.5,19.9,7,19.3C580.8,275.8,580.4,273.9,579.8,272L579.8,272z
				 M584.6,258.8c-0.9-16.8-2.3-27.2-4.8-36.1l-1.4-5.1l-0.6,8.2c-1.1,14.5,0.1,26.4,4.6,45.2C585.6,284.1,585.9,282.3,584.6,258.8z
				 M162.1,274.6c4.1-15.4,5.1-22.2,5.5-39.2c0.3-11.1,0.2-16.6-0.4-16.6c-1,0-3.9,11.8-5,20.4c-1.2,8.9-2.9,42.8-2.1,41.9
				C161,279,161.6,276.8,162.1,274.6z M591,319.5c0-0.2-3-2.7-6.6-5.6c-3.6-2.9-14.4-12.5-23.8-21.1c-9.5-8.7-17.9-16.1-18.7-16.6
				c-3.7-2.1,9.8,16.3,17.2,23.5c6.6,6.4,11.1,9.5,21.9,15.3C589.2,319.4,591,320.2,591,319.5L591,319.5z M597,318.3
				c-8.7-13.9-20.6-26.8-31.6-34.3c-8.7-6-26.3-14.3-22-10.5c29.8,26.7,53.3,47.1,54.6,47.1C598.2,320.6,597.7,319.6,597,318.3z
				 M178.3,306.6c8.8-6.6,18-17.2,25.3-29.1l1.5-2.4l-2.4,1.8c-1.3,1-10,8.7-19.2,17.1c-9.3,8.4-19.8,17.8-23.4,20.7
				c-3.6,3-6.6,5.5-6.6,5.7C153.5,321.2,173.9,309.9,178.3,306.6z M157.4,312.9c4.1-3.4,15.2-13.1,24.6-21.5
				c9.4-8.4,18.1-16,19.2-16.9c1.1-0.9,1.9-1.8,1.7-2c-2.6,0.7-5.2,1.7-7.6,2.9c-17.7,7.8-32.3,20.9-45.8,41.4
				C146.2,321.7,147.3,321.2,157.4,312.9z M613.5,319.2c-0.5-11.2-1.6-25.6-2.4-31.9c-0.9-6.3-1.6-13.5-1.7-16
				c0-2.2-0.2-4.4-0.6-6.6c-0.5-1.7-0.7-1.2-1.5,2.9c-4.1,20.6-2.8,41.4,4,64.2c0.7,2.8,1.6,5.5,2.8,8.1
				C614.2,339.8,613.9,330.5,613.5,319.2z M135.4,327.6c5.9-22,6.6-38.3,2.7-60.2l-1-5.5l-0.7,6.6c-0.4,3.6-1.4,12.7-2.3,20.1
				c-1.3,10.6-3,39-3.1,50.5C131.1,342.2,132.5,338.3,135.4,327.6L135.4,327.6z M619.8,333.5c3.4-16.2,4.3-24.2,3.8-35.1
				c-0.5-12.5-1.7-17.7-7.1-31l-4.2-10.3l-0.2,7.2c0.1,6.8,0.5,13.7,1.5,20.4c1.9,16.1,3,32.2,3.2,48.4c0,4.9,0.3,8.8,0.7,8.8
				C617.7,341.9,618.8,338.1,619.8,333.5L619.8,333.5z M131.8,285.9c1-6.9,1.5-13.9,1.5-20.9l-0.2-8l-4.2,10.7
				c-6.1,15.6-7,19.8-6.9,34.8c-0.2,8,0.5,16,2.1,23.8c3.9,20.5,3.9,20.5,5-4.9C129.6,308.9,130.8,293.1,131.8,285.9L131.8,285.9z
				 M598.1,344.4c-1.8-4.2-7.2-10.1-7.8-8.5c-0.5,1.5,2.2,6.1,5.7,9.8c1,1.3,2.2,2.3,3.6,3.2C599.3,347.4,598.9,345.9,598.1,344.4z
				 M152.3,342.4c1.6-2.4,2.8-5,2.7-5.8c-0.5-2.4-5.4,2.6-7.6,7.6c-0.7,1.6-1.3,3.1-1.9,4.8C145.5,350.2,149.8,346.1,152.3,342.4z
				 M593,349.2c-5.4-2.7-9.5-3.2-8.7-1.1c0.8,2.2,4.5,3.6,9.1,3.6l4.4,0L593,349.2z M158.2,350.6c1.1-0.5,2.1-1.4,2.7-2.5
				c0.8-2.1-3.3-1.5-8.7,1.1l-4.8,2.4l4.2,0.1C153.9,351.8,156.1,351.4,158.2,350.6L158.2,350.6z M635.5,358.9
				c1.6-3,2.4-10,1.3-10.7c-1.2-0.7-3.1,3.3-4.5,9.5c-1.6,7-1.5,8.1,0.4,5.6C633.7,361.9,634.7,360.4,635.5,358.9z M113.4,359
				c-1.3-6.6-3.8-11.9-5.1-10.6c-1.4,1.4,0.5,9.1,3.1,13.2c1.2,1.9,2.4,3.2,2.6,3C114.1,362.6,113.9,360.8,113.4,359L113.4,359z
				 M640.6,361.1c1.4-1.6,2.4-3.2,2.1-3.5c-0.8-0.8-4.7,2.7-6.4,5.6c-1.5,2.7-1.5,2.7,0.1,1.8C638,363.9,639.4,362.6,640.6,361.1
				L640.6,361.1z M108.9,363.1c-1.7-2.9-5.6-6.2-6.4-5.4c-0.5,0.6,6.2,8,7.3,8C110.1,365.7,109.7,364.5,108.9,363.1z M609.8,433.9
				c-1.5-5.6-4.5-15.7-6.7-22.5c-3.4-10.5-5.9-19.8-7.5-27.2c-0.7-3.4-0.5,6.2,0.3,14.8c0.7,8.9,2.7,17.5,6,25.7
				c2.5,5.6,10.1,19.9,10.5,19.5C611.7,440.8,610.8,437.3,609.8,433.9L609.8,433.9z M143.9,423.9c4.3-11.6,6.4-23.6,6.3-36l0-4.5
				l-2,7.8c-1.1,4.3-3.7,13.3-5.9,20.1c-3.2,10.1-7,23.2-9.4,32.8C132.2,446.8,141.5,429.7,143.9,423.9L143.9,423.9z M107,433.9
				c-10-22.5-10-22.5-17.1-42.4c-5.8-16.2-11.6-29.6-11.7-26.8c-0.1,3.4,2.4,21,4,28.5c3.4,15.5,8.1,26.6,17.5,40.8
				c5.8,8.8,15.2,20.8,15.8,20.2C115.7,453.9,111.8,444.8,107,433.9z M634,449.8c9.7-11.8,18.2-25.2,22.6-35.3
				c4.8-11.2,9-29.8,10.1-44.7l0.5-6.2l-3.6,7.4c-2,4.1-5.6,13.3-8.1,20.5c-5,14.5-10.7,28.8-17.2,42.7c-8.3,18.6-9.9,22.4-9,21.3
				C629.6,455.1,631.7,452.5,634,449.8z M618,437.1c-0.5-22.6-2-27.4-15.4-51.7c-4.5-8.2-5.1-9-4.7-6.2c0.8,5.4,4.8,20.5,9.1,34.5
				c4,13,7.4,26.1,10.1,39.5C618.2,459.7,618.4,454.7,618,437.1L618,437.1z M131.8,437.5c1.7-7.2,5.3-20.1,8-28.7
				c4.2-13.6,8.6-31.3,7.9-32c-0.4-0.4-13.6,24.9-15.6,29.7c-3.7,9.1-4.5,15.4-4.8,33.5c-0.2,13,0,16.4,0.6,14
				C128.4,452.1,130.1,444.7,131.8,437.5z M631,442.8c13.7-31.3,15.9-36.8,20-48.8c2.3-6.8,6-16.4,8.2-21.3c2.2-5,4.2-9.6,4.4-10.3
				c0.9-2.2-5.9,6.9-11.4,15.2c-11.4,17.7-19.1,37-23.2,57.8c-1.2,5.6-2.6,12.1-3.2,14.4c-1.6,6.2-2.2,9.1-1.8,8.6
				C624.3,458.2,627.4,451.2,631,442.8L631,442.8z M119.1,447.7c-1.3-5.6-3.3-14.4-4.5-19.6c-5.3-22.1-14.7-42.2-28.3-60.3
				c-6-8.1-6-8-0.2,4.9c1.4,3.1,4,9.8,5.8,14.8c5.5,16,11.8,31.7,18.8,47c5.4,12.3,9.9,22.8,9.9,23.3c0,0.5,0.2,0.7,0.4,0.5
				C120.7,454.7,120.1,451.2,119.1,447.7L119.1,447.7z M605.7,474.6c1.8-5.5,1.6-12.9-0.3-12.9c-1.3,0-2.4,5.4-2.4,11.8
				C603,480.7,603.7,481,605.7,474.6L605.7,474.6z M142.5,469.9c-0.7-6.5-2.6-10-3.8-6.9c-0.9,2.5-0.5,6.7,1.3,12.4l1.8,5.6l0.6-3.7
				C142.6,474.9,142.7,472.4,142.5,469.9L142.5,469.9z M599.7,476.7c-1.6-5.2-4.8-11-5.6-10.4c-1.3,0.8,0,5.3,3.2,10.8
				C600.3,482.3,601.5,482.1,599.7,476.7L599.7,476.7z M150.3,473c0.8-1.7,1.3-3.5,1.5-5.4c0-1.9,0-1.9-1.5-0.6
				c-1.9,1.8-4.6,8-5.3,12.4l-0.5,3.3l2.1-3.1C148,477.4,149.2,475.3,150.3,473L150.3,473z M644.4,497.2c1.6-0.8,3-1.8,4.3-3
				c0.9-1.1,0.8-1.3-0.5-1.3c-3.3,0-9.1,2.7-12.4,5.8l-3.4,3.2l4.4-1.5C639.3,499.5,641.9,498.4,644.4,497.2z M110.4,499.2
				c-3.1-3.1-6.7-5.1-11-5.9c-2.4-0.5-3-0.4-2.7,0.5c0.5,1.5,4.6,3.9,10.6,6.2C113.8,502.4,113.9,502.4,110.4,499.2L110.4,499.2z
				 M631.6,498c4.6-4.6,6.6-7.4,7.8-11.5c0.4-1.5,0.2-1.8-1-1.8c-2.6,0-8.6,7.6-10.4,13.1c-0.6,1.6-1.1,3.2-1.4,4.9
				C626.7,502.8,628.9,500.6,631.6,498L631.6,498z M117.8,499.1c-0.5-1.9-1.2-3.7-2-5.5c-1.3-2.7-7.3-8.9-8.5-8.9
				c-1.6,0-1.2,3.4,0.8,6.7c1.7,2.8,9.1,10.9,10.3,11.2C118.6,502.7,118.4,501.1,117.8,499.1z M587,564.5c17-11.7,36.8-25.8,47.7-34
				c3.1-2.4,3.1-2.4,0.8-1.8c-8.9,2.1-27.2,10.6-33.7,15.7c-8.3,6.5-39.4,36.4-35.6,34.4C566.8,578.3,576.2,571.9,587,564.5z
				 M173.9,572.5c-8.3-8.7-26-25.1-30.7-28.5c-6.8-5-24.8-13.3-33.4-15.4c-2.7-0.6-3.9-1.6,20,15.8c15.2,11.1,49.3,34.7,50,34.7
				C178,576.7,176,574.5,173.9,572.5z M552.1,568.1c7-14.4,14.2-35.3,19.6-56.7c1.4-5.4,3.3-12.4,4.4-15.6c0.7-1.9,1.3-3.9,1.7-5.9
				c-0.4-0.4-13.1,19.1-16.7,25.6c-7.1,13-10.8,25.3-13,43.9c-0.9,7.9-2.2,15.7-4.1,23.4C543.2,586,545.4,582.1,552.1,568.1
				L552.1,568.1z M200.3,578.6c-0.7-2.7-2-10.6-2.9-17.6c-2.6-20.1-5.9-32-12.6-44.3c-2.7-5.1-17-27.1-17.5-27.1
				c0.2,1.2,0.5,2.4,1,3.5c0.7,1.9,2.8,9.6,4.8,17c7,26.4,12.7,42.9,20.5,59c2.3,5,4.8,9.9,7.6,14.7
				C201.2,582,200.9,580.3,200.3,578.6z M189.5,590.2c0-0.2-11.1-8-24.8-17.2c-13.6-9.3-30.3-21-37.1-26.1
				c-14.6-11-23-16.9-27.8-19.4l-3.5-1.8l6.7,8.1c16.2,19.6,19.7,23.5,24.7,27.6c10.1,8.4,18.2,12.5,45.3,23.2
				C188.4,590.5,189.5,590.9,189.5,590.2L189.5,590.2z M591.8,576.6c8.3-3.5,16.1-7.9,23.3-13.3c6.4-4.9,11.5-10.5,25.5-27.6
				c7-8.5,7.8-9.9,5.6-8.7c-4.1,2.2-18,11.9-29,20.2c-5.4,4.1-20.8,15-34.2,24.2c-13.4,9.2-25.3,17.4-26.4,18.3
				C554.8,591.1,573.1,584.3,591.8,576.6z M551.1,583.8c17-20.8,23.3-30.8,28-45.2c2.6-8,3.2-14.3,4.1-44.9l0.3-11.1l-3,9.8
				c-1.7,5.4-4.5,15.6-6.3,22.6c-7.4,28.6-14.5,46.8-27.2,70.4c-1.4,2.4-2.7,5-3.7,7.6C543.4,593,547,588.9,551.1,583.8L551.1,583.8
				z M197.5,583.8c-5.7-10.5-10.7-21.3-15.2-32.4c-3.2-8.5-9.8-30.5-12.7-42.5c-2.7-10.9-8.3-27.9-7.7-23.4
				c0.2,1.6,0.6,11.6,0.9,22.2c0.4,16,0.8,20.5,2.3,26.7c2.5,10.3,7.1,19.8,14.6,30.5c5.8,8.2,21.6,28.2,22.4,28.2
				C200.7,589.9,199.2,586.8,197.5,583.8L197.5,583.8z M509.1,597.2c2-5.1,2.9-10.1,2.2-12c-0.7-1.8-3.3-0.3-5.4,3.1
				c-1.2,2.1-1.6,4.1-1.6,9.6c0,6.8,0,6.9,1.5,5.3C507.2,601.4,508.3,599.4,509.1,597.2L509.1,597.2z M233.8,599.9
				c-2.6-4.7-9.5-12.1-12-12.8c-4.1-1.1-4.3,2.1-0.4,6.9c2.1,2.5,13.7,10.9,14.3,10.3C235.3,602.7,234.7,601.3,233.8,599.9
				L233.8,599.9z M522.2,595.7c5.8-5.6,6-10.7,0.3-7.9c-3.4,1.6-7.6,6.6-11.4,13.1l-2.6,4.5l5.4-3.4
				C516.8,600.1,519.6,598,522.2,595.7z M241.2,599.4c0-2.9-0.2-5.7-0.7-8.6c-0.6-2.8-4.9-7.1-6.2-6.3c-1.4,0.9-0.7,5.7,1.6,11.7
				c1.8,4.7,4.3,9.2,5.2,9.1C241.2,605.3,241.2,602.7,241.2,599.4L241.2,599.4z M543.8,623.3c3.5-2.8,5.9-6.9,4.7-7.7
				c-2.8-1.8-8.7,2.8-13.1,10l-2.1,3.5l3.7-1.6C539.4,626.3,541.7,624.9,543.8,623.3z M209,624.2c-3.3-5.5-6-7.9-9.8-8.7
				c-2.1-0.4-2.5-0.3-2.5,1.2c0,2.5,5.8,8.1,10.7,10.4c2.3,1.1,4.2,1.9,4.3,2C210.9,627.4,210,625.8,209,624.2L209,624.2z
				 M557.1,636.5c3.2-1.2,3.9-3.1,1.8-5.2c-2.3-2.4-15-2.9-19.7-0.9l-3.2,1.4l4,1.7c4.6,1.7,9.3,3,14.1,3.9
				C555.2,637.1,556.2,636.8,557.1,636.5L557.1,636.5z M202.5,634.3c2.2-0.6,4.2-1.4,6.2-2.4c0-1.3-6.3-2.8-12.2-2.8
				c-5.2,0-7.2,0.4-9.2,1.6c-3,1.9-3.2,2.5-1.2,4.3C188.9,637.6,192.7,637.5,202.5,634.3L202.5,634.3z M399.6,638.6
				c8.2-4.1,13.6-7.5,23.9-15.4c7.3-5.6,15.6-11.6,18.4-13.4c22.7-14.1,44-28.5,44-29.6c0-0.6-11,2.4-19.6,5.4
				c-25.3,8.5-46.7,23-64.2,43.5c-4.7,5.4-9.7,10.8-11.3,12.2c-1.5,1.4-2.6,2.5-2.3,2.5C388.8,643.9,393.8,641.5,399.6,638.6
				L399.6,638.6z M354.9,641.9c-1.4-1.1-6.4-6.5-11.2-12c-17.7-20.9-39.4-35.7-65.1-44.3c-8.4-2.9-20-6.1-19.2-5.3
				c2.6,2.7,17.9,13.2,32.2,22.2c10,6.3,23.6,15.6,30,20.5c6.5,5,12.8,9.7,14,10.5c2.2,1.5,20.6,10.4,21.4,10.4
				C357.2,643.9,356.3,643,354.9,641.9L354.9,641.9z M409.5,642.3c22-3.7,39.2-11.9,50.5-24c4-4.6,7.8-9.5,11.2-14.6
				c3.3-5,6.9-9.7,10.8-14.3c4.7-5.2,4.3-5.3-1.7-0.5c-2,1.6-10,7-17.6,11.8c-20.2,12.8-28.9,18.8-38,25.9c-7.3,6-15.2,11-23.6,15.1
				c-3.8,1.9-5.1,2.8-3.6,2.5C398.8,644.1,404.2,643.2,409.5,642.3L409.5,642.3z M340.5,639.6c-7.2-3.9-14-8.4-20.4-13.4
				c-5.9-4.6-19.6-14-30.4-20.8c-10.8-6.9-21.7-14.1-24.3-16.1c-4.6-3.5-5.2-2.6-0.9,1.4c3.3,3.9,6.3,8,9.1,12.3
				c8.7,12.8,13.7,18.4,21.3,23.8c11.5,8.1,24,12.8,42.5,16c6.1,1.1,11.5,1.9,11.9,2C346.5,642.7,343.6,641,340.5,639.6L340.5,639.6
				z M514.9,676.2c-40-19.7-49-22.3-72.9-21.3c-6.8,0.3-14.2,0.8-16.4,1.1c-3.6,0.5-3.1,0.7,6,1.6c19,2,32.3,5.4,58.5,14.8
				c9.9,3.6,25.1,7.2,30.9,7.4C521.7,680,519,678.3,514.9,676.2L514.9,676.2z M238.8,677.4c7.6-1.9,15.1-4.2,22.4-6.9
				c21.4-7.8,35.6-11.2,56.2-13.2l6.4-0.6l-4-0.6c-9.3-1.3-27.4-1.8-34.5-0.8c-13.6,1.8-22.4,5.1-48.1,17.7
				C221.3,680.8,221.4,681,238.8,677.4z M511.6,683.9l6-1l-6.8-1.1c-4.1-0.6-15.3-4-28-8.3c-22.8-7.8-34.2-10.6-51.3-12.7
				c-14.1-1.7-14-1.7-8.4,1.5c2.6,1.5,8.8,5,13.7,7.8c15.2,8.7,26.6,12.9,40.1,14.8C483.6,685.8,503.4,685.3,511.6,683.9
				L511.6,683.9z M267.3,684.9c10.5-1.3,20.5-4.3,30-8.9c10.1-5,30-16.5,28.4-16.5c-10.9,1-21.6,2.5-32.3,4.6
				c-13.6,3.4-27,7.6-40.1,12.6c-5.3,1.8-10.6,3.3-16,4.5l-8.8,1.8l6.8,0.9c3.7,0.5,7.9,1.1,9.2,1.2
				C252,685.8,259.7,685.7,267.3,684.9L267.3,684.9z M243.2,688.5c-2.9-0.3-24.7-4.1-27.8-4.8c-3-0.7-2.1-2.8,2-4.6
				c2.1-0.9,12.3-5.9,22.6-11c27.5-13.6,38-16.7,56.8-16.9l9.3-0.1l-8.4-2c-4.6-1.1-12.4-3.3-17.3-4.9c-7.6-2.5-10-2.9-16.4-2.9
				c-13.9,0-34.7-3.3-44.4-7c-4.7-1.8-5.4-1.9-7-0.8c-5.4,2.8-11,4.9-16.9,6.3c-5.1,1-8.7,0.3-11.3-2.2c-5.5-5.3,0.5-11.8,11.1-12
				l3.7-0.1l-2.8-3.3c-3.4-4.1-3.7-7.3-0.8-9.3c2.6-1.7,7-1,10.6,1.8c2.5,2.5,4.6,5.4,6.3,8.5c4,7.1,4.1,7.2,16,10.2
				c5.5,1.4,33.8,5.7,34.9,5.3c0.4-0.1-1.7-1.3-4.7-2.6c-15.4-6.7-34.7-18.5-50.5-31c-9-7.1-10-7.6-37.4-18.3
				c-21.4-8.3-29-11.9-37.3-17.4c-7.9-5.3-14.4-11.6-22.6-21.7c-3.7-4.6-9.6-12-13.3-16.5c-6.4-7.9-7.4-9.8-5.9-10.7
				c0.4-0.2,6.1,1.2,12.6,3.2c25.5,7.7,35,12.4,47.1,22.9l4.8,4.2l-1.9-3.3c-6.8-11.7-15-22.3-24.7-31.6c-9-8.6-10.2-9.4-18.6-11.8
				c-7.4-2.1-13-4.8-15.6-7.5c-1.9-2-1.6-5,0.5-5.6c3-0.3,5.9,0.2,8.7,1.5c0.8,0.5,0.9,0.3,0.4-0.9c-0.5-1.6-0.9-3.3-1-5.1
				c-0.3-2.7,0-3.6,0.9-4c2.2-0.9,5.3,0.4,8.8,3.8c3.5,3.3,5.8,7.8,8,15.6c1.1,3.9,1.9,5.1,5.8,8.2c4,3.5,7.7,7.2,11.3,11.1l6.8,7.4
				l-2.2-4.9c-5.3-11.6-9.9-23.4-13.7-35.6c-2-6.4-4.3-12.7-7-18.9c-1-1.6-6.1-8.1-11.2-14.4c-16.6-20.2-24.2-33.1-29.2-49.2
				c-3.8-12.2-7.3-35.8-7.3-49.4c0-8.3,1.2-7.5,12.9,8.3c13.1,17.8,20.2,31.2,26.1,49.1l3.5,10.8l0-9.8c0-4.9-0.2-9.9-0.8-14.8
				c-0.4-2.7-1-10.2-1.3-16.6l-0.5-11.7l-3.4-1.5c-9.1-4.1-15.8-15.8-8.4-14.7c2.4,0.4,2.4,0.4,2.4-3.8c0-9.5,6.3-7.8,9.8,2.6
				c1.2,3.8,1.7,8.5,2.3,22.4c0.4,9.7,0.9,17.8,1.1,18c0.2,0.2,0.4-0.6,0.4-1.9c0-3.4,3.6-21,6.2-30.2l2.3-8l-3-12.1
				c-4.7-19.3-5.8-27.1-5.8-40.8c0-14.8,1-19.1,8.8-37.8c2.8-6.8,5.2-12.8,5.2-13.2c0.2-0.8,0.6-1.4,1.3-1.9
				c1.7-1.4,2.2-0.6,4.8,7.8c4.9,16,6.7,40.5,4,55.1c-0.5,2.2-0.8,4.4-1,6.6c1.3-1.8,2.4-3.7,3.3-5.7c1.7-3.3,5-9.3,7.3-13.3
				l4.2-7.4l0.5-17.2c0.9-30,2.6-42.3,8-58.6c1.2-3.3,2.1-6.6,2.8-10c0.1-1,0.7-1.8,1.6-2.3c2.2-1.2,2.9,0.5,4.5,9.8
				c2.9,17.1,2.7,36.6-0.3,47.9c-0.8,3.1-1.3,5.3-1,4.9c0.3-0.4,4.4-6,9-12.6l8.4-11.9l0.9-8.4c1.4-12.6,4.6-19.9,8.7-19.9
				c2.3,0,3.5,2.2,3.5,6.5c-0.1,1.1,0,2.2,0.3,3.3c0.9-0.3,1.7-0.7,2.5-1.2c3.1-1.7,5.2-0.4,5.2,3.2c0,6.1-3.8,11.1-12.3,16.2
				c-3.2,1.9-6.3,4.2-9.1,6.6c-3.7,3.4-17.7,24.5-27.6,41.6c-8.8,15-8.8,15.1-0.8,6.5c10.6-11.5,20.6-18.2,37.1-24.9
				c9.2-3.8,12.7-4.6,12.7-2.9c0,3.9-12,22.1-20.8,31.4c-8.3,8.9-14.2,12.9-29.4,20.3c-5.7,2.7-11.1,5.7-16.5,9.1
				c-4.5,3.2-4.8,3.7-7.8,11.7c-4.8,12.6-11,33.2-10.2,33.9c1.5-2,2.9-4.1,4-6.3c2.1-3.7,4.6-7.2,7.4-10.5c2.2-2.1,3.7-4.6,4.5-7.6
				c2.5-10.7,10.1-19.6,14-16.4c1.6,1.4,1.1,5.6-1.2,8.8l-1.6,2.3l4.2-0.4c5.1-0.4,6.9,1,5.7,4.5c-1.2,3.4-5.4,5.5-11.5,5.6
				c-2.9-0.1-5.7,0.5-8.3,1.6c-3.9,2-9.4,9.5-15.3,21c-4.3,8.4-4.5,9.1-5.6,19.3c-1.5,12.7-1.5,25.3-0.2,38l1,9.5l0.5-11.1
				c0.7-14.5,2.2-21.3,6.9-31.5c5-10.7,17.6-32.5,19.1-33.1c0.7-0.3,1.4-0.2,2,0.3c0.4,0.4,1,6.1,1.3,12.6c0.9,21.1-2,36.4-9.5,50.8
				c-2.2,4.3-5.7,10.8-7.6,14.5c-3.6,7-6.7,17.2-6.7,22.4c0.7,4.5,1.7,8.8,3.2,13.1c3.3,10.3,11.3,31.5,11.7,31
				c-0.1-2.6-0.4-5.1-0.9-7.6c-0.7-4.4-1.1-8.8-1.2-13.3c0-5-0.3-6.4-2-8.9c-5.7-8.5-5.9-24.1-0.4-24.1c2,0,3.9,2.9,4.5,6.8l0.5,3.1
				l2.4-2.9c3.7-4.6,7-3.6,7,2.2c0,3.3-1.8,7.7-5.6,13.3c-3.5,5.3-3.9,7.6-3.1,15.7c2,20.5,4.5,29.4,11.8,42
				c5,8.7,17.2,26.4,18.2,26.4c-0.9-1.9-1.9-3.8-3.2-5.5c-11.1-17.6-13-26.4-13.6-62.3c-0.5-28.1-0.8-28,13.1-8.1
				c21.1,30.3,25.4,40.8,28.5,69.4c2.1,19.2,4.2,27.6,9.4,38.3c2.2,4.4,6.2,7.6,22.6,18.2c8.1,5.2,30.7,17,31.3,16.4
				c-1.8-2.1-3.9-4-6.1-5.6c-4.2-3.4-8.1-7.1-11.8-11.1c-3.4-4.1-7.5-7.2-12.4-9.4c-13.6-6.8-20.8-16.4-15.8-20.9
				c2.2-2.1,6.2-1.1,10.2,2.4l3.2,2.8l-0.1-3.1c-0.2-6.4,4.9-8,9.6-2.9c3.5,3.8,4.6,8,3.9,15.1c-0.8,8,0.2,10.3,7.5,17.5
				c11.9,11.6,23.5,20,31.4,22.6c11.8,3.6,23.8,6.5,36,8.8c18.1,3.6,30.2,5,35.9,4c7.4-1.3,4.1-2.6-12.7-5.2
				c-18.2-2.8-27.2-5.3-37.3-10.2c-15.2-7.4-22.4-13.9-33.8-30.9c-4.4-6.5-9.1-12.7-14.2-18.7c-3.8-4.3-6.7-8.3-6.6-9
				c0.9-5,30.3,2.8,51.5,13.7c15.6,8.5,29.4,19.3,41.5,32.5c12,13.6,18,19.4,22.4,21.5c5.5,2.6,8.2,2.6,14-0.4
				c4.8-2.5,8.3-5.8,22.4-21.8c9.2-9.9,19.5-18.5,30.7-25.9c20.3-13.1,60.4-25.8,61.6-19.5c0.1,0.8-2.8,4.8-6.9,9.5
				c-4.3,4.9-8.3,10.1-12,15.5c-12.1,18.5-19,25-34.2,32.7c-11.2,5.6-19.4,8-38.8,11.1c-16.2,2.6-19.7,3.9-13.4,5.2
				c8.6,1.7,36.2-2.8,65.5-10.6c9.2-2.5,11.7-3.5,17.2-7.2c11.9-8,26.7-21.6,28.4-26.3c0.6-3.3,0.8-6.5,0.7-9.8
				c-0.2-6,0.1-8.2,1.3-10.7c1.6-3.4,5.4-6.3,8.2-6.3c2.5,0,4.6,3.5,3.9,6.6l-0.5,2.5l3.5-2.9c5.9-4.9,11.7-4.7,11.7,0.4
				c0,5.8-6.4,12.4-17.4,18.1c-5.1,2.4-9.5,5.8-13.2,10.2c-3.7,3.9-7.6,7.6-11.8,11.1c-2,1.4-3.7,3-5.4,4.8
				c0.5,0.5,18.5-8.5,26.6-13.4c4.3-2.6,11.8-7.5,16.6-10.9c8-5.7,8.9-6.6,11.3-11.6c3.9-8.3,6.5-17.1,7.6-26.3
				c2.6-21.7,3.4-26.5,5.3-33.6c3.7-14.2,11.9-29.1,29-52.7c9.2-12.7,9.3-12.7,8.3,20c-0.6,21.8-1,26.7-2.4,32.2
				c-2.7,9.2-6.6,17.8-11.6,26l-2.9,4.5l2.8-3.3c7-9.2,13.4-18.9,19-29.1c4.3-8.1,6.3-16.3,8.2-32.8c1.4-12.3,1.1-14.3-3.3-20.3
				c-5.9-8-6.8-17.4-1.8-17.4c1.6,0.6,2.9,1.6,3.8,3.1c1.7,2.1,2.5,2.6,2.5,1.7c0-2.7,2.6-7.9,4.1-8.4c5.8-1.9,6.7,10.4,1.6,21.4
				c-1.8,3.8-2.7,7.7-2.9,11.9c-0.3,3.8-1,9.9-1.6,13.5c-0.5,2.2-0.7,4.5-0.8,6.8c0.5,0.5,7.1-16.8,11.1-28.9
				c3.7-11.3,4-12.7,3.5-17.7c-0.7-7.9-3.7-16.1-10.2-27.5c-10.7-19-13.1-28.6-13.1-51.7c0-25.7,0.6-25.7,15.1,0.2
				c3.4,6,6.6,12.2,9.3,18.6c3.3,9.5,4.9,19.4,4.8,29.5c0.1,8.4,0.2,8.8,0.9,5c0.7-7.8,1-15.6,0.9-23.4c0.1-24.7-0.5-28.5-6.8-41.1
				c-8.6-17.1-14.7-23-22.9-21.7c-4.6,0.7-10.1-1.8-11.5-5.3c-1.5-3.7,0.1-5.2,5.3-4.7l4.1,0.3l-1.9-3.3c-3.5-6.2-1.7-10.1,3.3-7.6
				c3.8,1.8,7.3,7.2,9.3,14.1c1,3.8,2.8,7.1,5.4,10c2.7,3.3,5.1,6.7,7.3,10.4c1.1,2.1,2.4,4.1,3.8,6c0.6-0.6-5.2-20.3-8.8-30.3
				c-4-11.1-4.2-11.4-8.4-14.7c-5.1-3.4-10.5-6.4-16.1-9.1c-6.2-3-12.3-6.4-18.2-10.1c-10.6-7.2-21.5-19.9-29.7-34.7
				c-4-7.2-4.2-8.4-1.6-8.4c3.2,0,22.4,8.5,29.9,13.2c6.7,4.2,20.7,17.3,25.1,23.3c6,8.3-14.4-26-24.5-41.2
				c-9.1-13.8-11-15.9-18.7-20.5c-9.5-5.7-13.6-10.9-13.6-17c0-3.9,2-5,5.7-3l2.7,1.5l-0.3-3.5c-0.3-4.3,0.9-7,3.4-7
				c4.4,0,7.9,8.3,9,21.4l0.6,6.7l7.7,10.8c4.2,5.9,8.3,11.7,9,12.8c1.1,1.7,1.1,1-0.4-4.1c-3.9-14.3-1.1-59.7,3.6-58.1
				c1.2,0.4,1.7,1.5,4.9,11.7c5.6,17.8,6.6,24.5,8.1,55.1c1.1,22.9,1.1,23.1,3.3,26.7c1.2,2,4.5,7.8,7.3,13c1.5,3,3.2,5.9,5.1,8.7
				c0-0.4-0.6-3.9-1.3-7.8c-1.8-9.5-1.1-31.7,1.3-42.3c1.8-8.3,4.7-17.6,5.8-19c1.3-1.6,2.8-0.4,3.8,3.2c0.5,1.9,2.7,7.5,4.8,12.5
				c7.5,17.7,9.4,26.7,8.6,41.9c-0.6,10.7-2,19.5-5.9,35.9l-2.9,12.1l2.5,9.7c2.9,11.3,5.7,24.9,5.7,28c0,1.2,0.2,1.9,0.4,1.6
				s0.8-8,1.1-17.2c0.7-18.1,2.1-25.2,5.7-29.1c3.6-3.9,6.7-1.7,6.6,4.6c-0.1,4,0,4,2.2,3.5c2.6-0.5,3.6,0.9,2.8,4.1
				c-0.7,2.7-5.5,7.4-10,9.7c-1.5,0.7-2.9,1.6-4.2,2.6c-0.6,4.2-1,8.5-1,12.7c-0.3,6.6-0.9,13.9-1.3,16.2c-0.5,4.8-0.8,9.6-0.7,14.4
				l0,10.3l2.6-8.6c6.3-20.6,13.3-33.8,29.1-54.8c10.8-14.4,11.6-14.4,10.5,0.2c-3.1,42.6-10.2,60.8-35.6,91.9
				c-12.8,15.6-13.6,17-16.8,27.9c-4.2,13.4-9.1,26.5-14.7,39.3l-3.3,7.2l7.8-8.1c4.3-4.4,9.5-9.6,11.5-11.4c2.4-1.7,3.9-4,4.6-6.9
				c2.3-9.3,6.3-15.8,11.3-18.5c5.3-2.8,8.4,0,6,5.7c-0.7,1.7-1.3,3.2-1.3,3.3c1.3-0.2,2.5-0.5,3.7-0.9c6.2-1.9,9.7,0.2,7.1,4.3
				c-1.6,2.5-11.2,7.1-18.7,9.1c-5.3,1.4-6.5,2.1-12.8,7.7c-10.7,9.5-22.9,24.6-27.6,33.9l-1.6,3.2l2.7-2.2
				c14.3-11.9,21.8-15.7,46.7-23.4c16.5-5.1,18.2-4.8,12.7,1.8c-1.7,2-7.6,9.4-13.3,16.4c-20.2,25.3-27.4,30.3-64.6,44.8
				c-28.1,10.9-28.1,10.9-36.5,17.7c-15,12-31.1,22.1-48.5,30.1c-4.4,2-7.6,3.7-6.9,3.8c4.1,0.9,41.7-6.3,46.1-8.8
				c2-2.1,3.6-4.5,4.9-7.2c3.8-6.8,7.1-9.7,11.7-10.6c1.7-0.4,3.3-0.2,4.7,0.8c2.9,2,2.7,5.5-0.7,9.3l-2.7,3.1l4.3,0.2
				c9.8,0.4,15,5.8,11.2,11.4c-3.3,4.8-14,3.9-26.2-2.4l-4.6-2.3l-5.1,2c-9.6,3.7-30.7,7-44.5,7c-4.3-0.2-8.4,0.4-12.4,1.7
				c-2.7,1-10.4,3.1-16.9,4.8l-12,3.1l12.4,0.5c13.9,0.5,20.2,1.9,32.7,7.1c9.5,3.9,45,21.3,46.5,22.7c1,0.9,0.8,1.2-0.8,1.9
				c-4.7,2-26.4,5.2-38.4,5.6c-24,0.8-35.7-2.8-67.3-21.1c-13.7-7.9-15.9-8.6-30-9.8c-6.6-0.5-14.4-1.5-17.2-2.1
				c-3.5-1-6.9-1-10.4,0c-2.9,0.6-10.4,1.5-16.8,2.1c-13.8,1.1-18,2.5-31.3,10.4c-27.8,16.4-41.7,21-63.1,20.7
				C250.6,688.9,244.8,688.7,243.2,688.5L243.2,688.5z"/>
		</g>
	</g>
</g>
<g>
	<path class="st0" d="M365.5,210.1c-4.7-0.4-9.1-2-13.9-2c-5,0-9.9,0.7-14.7,1.7c-5.1,1.1-10.1,2.5-15.2,3.8c-0.4,2.7-0.7,5.5-1,8.2
		c-1.6,13.1-2.9,26.1-3.5,39.3c-0.5,11.1-1.2,22.6-0.5,33.8c0.2,3,0.1,5.5,1.6,7.7c0.9,1.3,2.7,2.6,5.3,1.4c2.3-1.1,4-3.1,5.5-5.2
		c7.3-10,11.1-22.8,14.6-34.6c0.6-2,3.7-1,3.1,0.9c-4.1,13.6-8.8,29.3-18.8,39.8c-3.7,3.9-8.9,5.7-13.9,2.9c-3.7-2-6-6.9-7.1-9.6
		c-4.6-11.5-4.4-24.2-3.9-36.4c0.7-15.1,2-30.3,3.8-45.4c-12.5,1.4-27.8-0.6-34.9-12.1c-0.3-0.4,0.3-0.9,0.7-0.5
		c9.3,10.2,21.8,12.1,34.5,10.6c1.3-10.7,3-21.4,4.8-32c0.6-3.7,4.9-5.6,8.2-4.6c3.8,1.1,5.7,4.8,5.2,8.5
		c-1.1,8.4-2.3,16.7-3.5,25.1c7.1-1.9,14.2-3.9,21.5-4.8c6.7-0.8,16.5-1.7,22.4,2.4C366.2,209.2,366.2,210.1,365.5,210.1z"/>
	<path class="st0" d="M423.4,265.7c-2.9,7.3-6.2,14.2-10.7,20.6c-3.2,4.5-6.2,9.6-10.1,13.4c-6.3,6.1-16.2,9.1-23,1.7
		c-6.7-7.3-3.5-20.4-2.5-29.1c0.5-4.1,0.9-8.1,0.6-12.4c-0.1-1.8-0.9-5.8-3.3-5.2c-3.6,0.8-6.1,5.6-7.5,8.6c-2.9,6-5,12.5-6.6,19
		c0.3,1.6,0.6,3.3,1.2,4.9c0.6,1.5-1.4,2.3-2.4,1.3c-3.2-3.1-6.4-5.8-8.6-9.8c-2.1-3.9-3.8-8-5-12.3c-2.7-9.2-2.9-18.7-2.1-28.2
		c1.3-15.4,5.4-31,13.9-44.1c4.9-7.6,14.4-16.6,24.3-14c16.2,4.3,5.5,31.4,0.6,40.4c-6.5,11.9-15.7,22.3-25.7,31.5
		c0.1,5.3,0.5,10.7,1.2,15.8c0.3,2.1,0.7,4.2,1.1,6.3c1.1-4.7,2.5-9.3,4.4-13.8c1.8-4.1,3.8-8.8,7.2-11.7
		c8.2-7.1,17.9,2.2,20.3,10.3c2.8,9.4-0.8,19.6-1,28.8c0,1.1,0,2.3,0.1,3.4c0-0.2,0.4,1.6,0.4,1.8c0,0.1,0.1,0.4,0.2,0.6
		c0.2,0.6,0.5,1.1,0.7,1.7c0.1,0.3,0.6,1,0,0c0.2,0.3,0.4,0.8,0.7,1c2.7,2.2,6,0.7,8.7-0.9c5-3.1,8.3-7.4,11.1-12.5
		c3.4-6.1,6.3-12.6,8.9-19.1C421.1,261.7,424.2,263.7,423.4,265.7z M356.3,248.7c9.2-9.1,17.6-19.1,23.6-30.5
		c3.6-6.8,6-14.4,6.6-22.1c0.3-3.9,0.3-9.1-3.4-11.5c-2-1.3-4.9-1.6-7.1-0.7c-3.5,1.5-5.8,5.1-7.5,8.4c-2.4,4.7-4.3,9.9-5.8,15
		c-3.8,12.9-6.3,26.4-6.3,39.8C356.3,247.6,356.3,248.1,356.3,248.7z"/>
	<path class="st0" d="M473.3,265.4c-7.6,13.4-16.8,26.3-31.6,32.3c-5.8,2.4-11.1,4-16.9,0.6c-6.5-3.8-9.5-10.5-10.5-17.6
		c-1.7-11.8,3.1-26.9,14.7-32.3c6.4-2.9,15.3-3.2,19.9,3c3,4.1,3,11.4,0.6,15.7c-4,7.2-12.9,13.1-21.5,12.4c0.3,2.4,0.9,4.7,1.8,7
		c0.7,1.8,1.6,3.6,3,4.9c1.5,1.4,1.8,1.7,3.3,2.1c4.9,1.3,9.6-1.7,13.4-4.4c8.6-6.1,16.9-15.5,20.8-25.4
		C471.2,261.8,474.4,263.6,473.3,265.4z M427.9,276.4c3.6-0.2,7-0.7,10.4-2.6c3.9-2.2,7.8-6.2,8.5-10.8c0.8-5.1-3.7-6.5-7.8-5
		c-2.1,0.7-3.8,2.2-5.3,3.8c-1.4,1.4-1.7,1.9-2.6,3.5C429,268.8,428,272.5,427.9,276.4z"/>
</g>
<g>
	<path class="st0" d="M289.3,499.6c-6.6,7.3-16.3,14.6-26.5,12.8c0,0.3-0.1,0.5-0.1,0.8c5.4,5.5,9,13.6,11,20.7c1,3.8,2,8,1.4,12
		c-0.5,3.4-2,7.3-5.5,8.6c-3.8,1.4-8.1-0.4-10.6-3.4c-3-3.6-4.5-8.6-5.3-13.1c-3.6-20,0.6-41.1,5.4-60.5c1.5-6.1,10.5-3.1,9.4,2.7
		c-2,10.2-4.4,20.3-5.5,30.6c9.7,1.5,18.7-5.4,25.1-12.3C288.8,497.6,290,498.8,289.3,499.6z M262.4,517.6
		c-0.4,7.8,0.2,15.6,1.4,23.4c0.4,2.7,1.6,9.7,5.8,8.3c4.9-1.7,2.4-10.4,1.5-13.9c-1.1-4.4-2.9-8.7-5.1-12.6
		C264.9,520.9,263.7,519.2,262.4,517.6z"/>
	<path class="st0" d="M331.1,499.3c-0.8,4-2.7,8-4.6,11.6c-1.5,2.7-3.1,5.5-5.3,7.7c-2.5,2.6-7.4,5.7-11.1,4.4
		c-4.6-1.6-6.6-6.2-7.4-10.7c-1.8,4-4.1,7.8-7.4,9.8c-4.2,2.5-8.6-1-10.8-4.8c-3.4-5.8-2.7-13.4-0.6-19.5c1.9-5.6,5.9-12.4,12.4-11
		c3.1,0.7,5.6,2.4,7.3,5.2c0.2,0.3,0.3,0.5,0.5,0.8c0.3-1.1,0.6-2.2,0.9-3.3c1.8-6.1,11.2-3.1,9.5,2.8c-1.9,6.9-3.7,15.2-2.7,21.6
		c0.3,1.9,0.8,3.2,1.7,4.2c1.8,2.2,3.8,1.2,5.7-0.5c5.8-4.9,7.7-12.3,10.9-18.8C330.3,498.2,331.2,498.7,331.1,499.3z M303,497
		c-0.5-1.6-1.3-3.1-2.7-3.8c-1.9-0.9-4.8,2-5.8,3.2c-2.6,3.4-3.1,8.8-3.2,13.3c0,2.6,1.1,10.5,4.1,8.5c3.5-2.4,5.2-6.4,6.7-10.5
		C302,504.2,302.4,500.6,303,497z"/>
	<path class="st0" d="M398,500.1c-2.4,7.5-4.5,15.9-10.3,21.7c-5,5-13.3,8-18.2,1.2c-2.5-3.5-2.7-8.2-3-12.3
		c-0.4-4.7-0.6-9.1-0.3-13.9c0-0.5,0.2-1.4-0.1-1.9c-0.9-1.5-2.8,0.2-3.5,1c-1.4,1.6-2.4,3.6-3.3,5.5c-0.9,1.9-1.8,3.9-2.6,5.8
		c-0.7,1.7-1.1,3.4-2,5c0,0.1,0,0.1,0,0.2c-1.2,5.6-9.8,3.8-9.7-1.5c0-0.7,0.1-1.4,0.2-2.1c0-0.1,0-0.3,0.1-0.5
		c0.1-1.1,0.2-2.1,0.3-3.2c0.2-2.7,0.2-5.3,0.3-8c0-2.4,0.3-4.9-0.2-7.3c-0.1-0.3-0.3-1.5-0.7-1.8c-0.8-0.7-1.9,0.7-2.4,1.5
		c-2.9,4.1-3.9,9.9-5.2,14.7c-0.6,2.5-1.1,5.1-1.9,7.5c0.1,3.3,0.5,7.7-2,9.7c-1.9,1.5-4.1,1.5-5.9-0.2c-3-2.8-2-7.6-2-11.4
		c0-3.8-0.1-7.6,0.2-11.3c0.4-6.3,9.3-5.8,9.6,0.3c0.1,1,0.1,2,0.1,2.9c1.4-6,6.1-25.3,15.3-16.5c3.6,3.5,4.6,9.3,4.7,14.1
		c0,1.5,0.1,3,0,4.6c0.4-0.8,0.8-1.6,1.1-2.4c1.4-3.2,2.7-7.2,5.6-9.5c2.7-2.1,5.8-2,8.5,0c3.5,2.6,4.4,7.4,4.9,11.4
		c0.5,4.2,0.4,8.8,1.4,12.9c0.7,2.8,2.3,6.3,5.8,5.3c3.9-1.1,6.2-6,7.9-9.3c2-4.1,4-8.4,5-12.8C396,497.9,398.5,498.7,398,500.1z"/>
	<path class="st0" d="M422.6,499.3c-0.8,4-2.7,8-4.6,11.6c-1.5,2.7-3.1,5.5-5.3,7.7c-2.5,2.6-7.4,5.7-11.1,4.4
		c-4.8-1.6-6.8-6.5-7.5-11.1c-1.1-7.4,0.2-15.2,2.2-22.3c1.8-6.1,11.2-3.1,9.5,2.8c-1.9,6.9-3.7,15.2-2.7,21.6
		c0.3,1.9,0.8,3.2,1.7,4.2c1.8,2.2,3.8,1.2,5.7-0.5c5.8-4.9,7.7-12.3,10.9-18.8C421.8,498.2,422.7,498.7,422.6,499.3z M398.8,479.7
		c0-0.6,0.1-1.2,0.3-1.7c0.2-0.6,0.5-1.1,0.9-1.5c0.9-0.9,2.1-1.3,3.3-1.3c1.3,0,2.4,0.6,3.4,1.5c0.9,0.9,1.4,2.1,1.5,3.4
		c0,0.6-0.1,1.2-0.3,1.7c-0.2,0.6-0.5,1.1-0.9,1.5c-0.9,0.9-2.1,1.3-3.3,1.3c-1.3,0-2.4-0.6-3.4-1.5
		C399.3,482.2,398.9,480.9,398.8,479.7z"/>
	<path class="st0" d="M455.3,501.1c-2.8,6.4-6,13.2-11.1,18.2c-4.1,4-10.2,6.7-15,2.4c-3.8-3.4-5.7-8.3-7.3-13
		c-2-6.2-2.5-12.5-2.6-19c-0.2-12.4,0.6-25.6,5-37.3c0.4-1.1,0.5-1.4,0.3-0.7c0.1-0.3,0.3-0.7,0.4-1c0.1-0.2,0.2-0.4,0.3-0.7
		c0.2-0.5,0.5-0.9,0.7-1.4c0.9-1.6,0.8-1.5,1.9-2.8c1.5-1.8,3.7-3.3,5.9-4.2c6.9-3.2,13.1,2.5,13.3,9.3c0.2,6.4-2.5,13-5.1,18.8
		c-3.1,6.7-7.5,12.7-12.9,17.8c0,2.4,0,4.8,0.2,7.3c0.1,2.7,0.4,5.5,0.8,8.2c0.3,2.4,0.2,4.7,0.6,6.6c0.4,2,0.9,4,1.6,6
		c0.4,1.1,1.4,2.7,2,3.4c0.5,0.6,1.3,1.6,1.3,1.6c1.3,0.8,2.8,0.6,4.1,0c2.8-1.2,4.8-3.8,6.5-6.3c3-4.4,5.3-9.2,7.3-14.2
		C454,498.8,455.8,499.9,455.3,501.1z M429.2,484.4c4.5-4.9,8.3-10.3,11-16.4c2.4-5.6,5.9-13.6,3.8-19.6c-1-2.9-4.7-4.6-7.3-2.5
		c-0.9,0.7-1.5,1.8-1.9,2.8c0,0,0,0.1,0,0.1c0,0,0,0.1,0,0.1c-0.1,0.3-0.2,0.5-0.3,0.8c0-0.1,0-0.1-0.1,0.3
		c-1.2,3.9-2.2,7.8-2.8,11.8C430.3,469.3,429.4,476.7,429.2,484.4z"/>
	<path class="st0" d="M495,499.3c-4.4,4.4-9.3,8.3-14,12.4c-0.4,5-0.8,9.9-1.4,14.8c-1.2,10.6-2.6,24.2-11.9,31.3
		c-2.6,2-5.4,4-8.8,3.1c-3-0.8-5.4-3.4-6.5-6.2c-1.9-4.8-0.8-10.7,1.2-15.3c3.7-8.2,10.4-15.2,17-21.5c0-0.3,0.1-0.6,0.1-0.8
		c0.3-3.5,0.6-7,0.8-10.5c-1,3.8-2.2,7.6-3.9,11.1c-1.6,3.4-5.5,7.6-9.7,5.5c-5.7-2.9-6.9-10.9-6.9-16.6c0-5.2,0.8-10.5,1.8-15.6
		c1.3-6.3,10.7-3.2,9.6,2.8c-0.7,3.6-1.3,7.3-1.7,11c-0.4,3.9-1.3,9,0.2,12.8c0.6,1.4,1.3,2.4,2.7,1.2c1.3-1.2,2.2-2.9,3-4.4
		c2.7-5.2,3.9-11.2,5.2-16.8c0-0.1,0.1-0.2,0.1-0.3c0.1-1.9,0.1-3.7,0.2-5.6c0.2-6.5,10-5.9,9.8,0.3c-0.2,5.4-0.4,10.7-0.7,16.1
		c4-3.6,8.2-7.2,12.8-9.9C494.8,497.6,495.6,498.7,495,499.3z M468.7,533.6c0.6-3.9,1.2-7.9,1.6-11.9c-5.4,5.4-10.6,11.4-13.7,18.2
		c-1.8,4-2.5,10.7,0.2,14.4c2.1,3,5.4,2.6,7-0.6c1.1-2.1,1.8-3.7,2.3-5.9C467.2,543.3,467.9,538.4,468.7,533.6L468.7,533.6z"/>
</g>
</svg>


