<?xml version="1.0" encoding="utf-8"?>
<!-- Generator: Adobe Illustrator 23.0.5, SVG Export Plug-In . SVG Version: 6.00 Build 0)  -->
<svg version="1.1" xmlns="http://www.w3.org/2000/svg" xmlns:xlink="http://www.w3.org/1999/xlink" x="0px" y="0px"
	 viewBox="0 0 720 720" style="enable-background:new 0 0 720 720;" xml:space="preserve" width="500" height="500">
<style type="text/css">
	.st0{fill:#050002;}
	.st1{fill-rule:evenodd;clip-rule:evenodd;fill:#050002;}
	.st2{fill-rule:evenodd;clip-rule:evenodd;}
	.st3{fill:#221F1F;}
	.st4{fill:#231F20;}
	.st5{fill:#070808;}
	.st6{fill:#211E1F;}
	.st7{fill:#161616;}
	.st8{fill:#131313;}
	.st9{fill:#21201F;}
	.st10{fill:#2C2929;}
</style>
<g>
	<g>
		<path class="st0" d="M350.3,312.9c-17.4-8.4-30.7-19-39.9-31.9c-9.2-13-13.8-29.3-13.8-49.1c0-18.9,7.2-34.8,21.5-47.9
			c14.4-13.1,31.7-19.6,52.1-19.6c19.3,0,35.6,3.7,48.9,11.1c13.3,7.4,24.6,17.3,33.8,29.8c9.4,12.9,17.1,27.2,23,43.1
			c5.9,15.9,11.2,32.5,15.9,49.9h26.1l-2.6-151.5h-25.7l-13.2,21.9c-13.7-8.6-28.9-16.1-45.5-22.5c-16.6-6.4-35.4-9.6-56.5-9.6
			c-18.4,0-36.1,3.2-53.1,9.5c-16.9,6.3-31.6,15.1-44.1,26.2c-13.1,11.8-23.2,25.2-30.2,40.2s-10.6,31.2-10.6,48.6
			c0,19.8,3.1,37.1,9.2,52h-83.2v7.2h405v-7.2H350.3z"/>
	</g>
	<g>
		<path class="st0" d="M162.4,441.8h287c3.3,3.6,6.3,7.4,9,11.5c10.3,15.8,15.4,32.8,15.4,51c0,12.5-1.7,23.5-5,33
			c-3.3,9.6-8.4,17.9-15.3,25c-6.9,7.1-15.8,12.6-26.9,16.4c-11.1,3.9-24,5.8-38.8,5.8c-19.7,0-37-3.7-52-11.3
			c-14.9-7.5-27.9-17.6-39.1-30.2c-11.8-13.5-21.3-28-28.5-43.6c-7.2-15.5-13.5-33-18.8-52.3h-26.1l4.5,156.3h25.7l13.8-23.5
			c14.8,9,32.4,16.7,52.8,23c20.4,6.3,40.7,9.5,61.1,9.5c44.2,0,81.2-13.1,111-39.3c29.8-26.2,44.7-59.4,44.7-99.7
			c0-11.5-1.1-22.1-3.2-31.7h33.4v-7.2h-405V441.8z"/>
	</g>
</g>
</svg>


