<?xml version="1.0" encoding="utf-8"?>
<!-- Generator: Adobe Illustrator 23.0.5, SVG Export Plug-In . SVG Version: 6.00 Build 0)  -->
<svg version="1.1" xmlns="http://www.w3.org/2000/svg" xmlns:xlink="http://www.w3.org/1999/xlink" x="0px" y="0px"
	 viewBox="0 0 720 720" style="enable-background:new 0 0 720 720;" xml:space="preserve" width="500" height="500">
<style type="text/css">
	.st0{fill:#050002;}
	.st1{fill-rule:evenodd;clip-rule:evenodd;fill:#050002;}
	.st2{fill-rule:evenodd;clip-rule:evenodd;}
	.st3{fill:#221F1F;}
	.st4{fill:#231F20;}
	.st5{fill:#070808;}
	.st6{fill:#211E1F;}
	.st7{fill:#161616;}
	.st8{fill:#131313;}
	.st9{fill:#21201F;}
	.st10{fill:#2C2929;}
</style>
<g>
	<g>
		<path class="st0" d="M347.3,305.1V181.5c0-7.9,1.5-15,4.7-21.5c3.1-6.5,9.2-11.1,18.3-14c7.6-2.4,16.6-4.3,26.8-5.9
			c10.3-1.5,19.1-2.4,26.5-2.7V112H194.8v25.4c6.9,0.5,15.8,2,26.7,4.5c10.9,2.5,19.9,5.2,27,8.1c9.8,3.8,16,8.5,18.6,14.1
			c2.6,5.6,3.9,12.6,3.9,21v120H91.8v8.1h450.8v-8.1H347.3z"/>
	</g>
	<g>
		<path class="st0" d="M91.8,448.6H271v104.6c0,9.5-1.8,17-5.4,22.4c-3.6,5.4-9.3,9.6-17.2,12.7c-5,1.9-13.6,3.3-25.8,4.3
			c-12.2,1-21.5,1.7-27.9,2.1v25.4h228.8v-25.4c-7.9-0.2-17.5-1.5-28.8-3.8c-11.3-2.3-19.5-4.4-24.5-6.3
			c-8.4-3.6-14.3-8.4-17.7-14.5c-3.5-6.1-5.2-13.1-5.2-21V448.6h195.3v-8.1H91.8V448.6z"/>
	</g>
</g>
</svg>


