<?xml version="1.0" encoding="utf-8"?>
<!-- Generator: Adobe Illustrator 23.0.5, SVG Export Plug-In . SVG Version: 6.00 Build 0)  -->
<svg version="1.1" xmlns="http://www.w3.org/2000/svg" xmlns:xlink="http://www.w3.org/1999/xlink" x="0px" y="0px"
	 viewBox="0 0 720 720" style="enable-background:new 0 0 720 720;" xml:space="preserve" width="500" height="500">
<style type="text/css">
	.st0{fill:#050002;}
	.st1{fill-rule:evenodd;clip-rule:evenodd;fill:#050002;}
	.st2{fill-rule:evenodd;clip-rule:evenodd;}
	.st3{fill:#221F1F;}
	.st4{fill:#231F20;}
	.st5{fill:#070808;}
	.st6{fill:#211E1F;}
	.st7{fill:#161616;}
	.st8{fill:#131313;}
	.st9{fill:#21201F;}
	.st10{fill:#2C2929;}
</style>
<g>
	<g>
		<g>
			<path class="st0" d="M479,455.7c-4.3-0.8-7.3-1.7-9-2.6c-3.2-1.7-5.4-3.7-6.5-5.9c-1.1-2.3-1.7-5-1.7-8.3v-45.6h14.9V390H255.5
				v3.2h18.1v17.5c0,12.8-0.6,22-1.8,27.4c-1.2,5.5-3.5,9.5-6.8,12.2c-2.5,2.1-6.2,3.6-10.8,4.7c-4.7,1-9.1,1.7-13.4,2.1v10h81v-10
				c-2-0.1-6.2-1-12.7-2.8c-6.5-1.8-10.8-3.7-12.9-5.7c-3-2.6-5.3-7-6.7-13c-1.5-6-2.2-14.8-2.2-26.4v-15.9H328l26.4,70.6h7.1
				l28.3-70.6H432v45.6c0,3.5-0.7,6.4-2.1,8.7c-1.4,2.3-3.5,4.4-6.4,6.1c-1.9,1-5.3,1.8-10.4,2.4c-5,0.6-9.2,0.9-12.4,1v10h88.6v-10
				C486.8,456.9,483.4,456.5,479,455.7z M368,417l-9.1-23.8h18.4L368,417z"/>
		</g>
	</g>
	<g>
		<g>
			<path class="st0" d="M265.5,284.3c2.6,2.4,4.7,5.4,6.1,9.2c1.4,3.8,2.1,8.6,2.1,14.6v28.5h-18.1v3.2h221.1v-3.2h-14.9v-42.4
				c0-3.1,0.6-6,1.7-8.6c1.1-2.6,3.3-4.5,6.5-5.7c1.9-0.7,4.9-1.4,9-2.1c4.1-0.8,7.5-1.2,10.1-1.3v-10h-65.4
				c-0.1,1.7-0.8,5.1-2.1,10.1c-1.3,5-2.8,9.9-4.6,14.5l-17.7,45.5h-62.1l-26.7-70.1h-68.4v10c4.1,0.2,8.3,0.9,12.6,2.1
				C259,279.9,262.5,281.7,265.5,284.3z M429.8,292.9h2.1v43.6h-19.6L429.8,292.9z M287.4,289.4h1.8l17.6,47.2h-19.5V289.4z"/>
		</g>
	</g>
</g>
<g>
	<g>
		<g>
			<g>
				<path class="st0" d="M650.7,354.8c-0.5,0-0.9,0.2-1.1,0.6c-1,1.9-6.3,7.3-10.6,11.6c-7.5,7.4-10.7,10.9-13.8,20.4
					c0-6.3-0.2-12.7-0.6-19c1.4-6,4-12.7,7.2-13.9c0.3-0.2,0.6-0.4,0.9-0.5c4.6-2.2,9.8-3.7,14-6.8c8.6-6.3,13.2-17.4,12.8-31
					c-0.4-13-1.3-13.7-1.9-14.2c-1.6-1-2.5,1-3.9,2.8c-2.6,2.9-5.2,5.7-7.7,8.7c-2.8,3.2-6.1,5.7-8.8,9.1c-6.6,8.1-9.8,21-7.5,30.6
					c-2.3,1.7-4.2,4.9-5.6,8.6c-1.6-18.7-5.5-36.8-10.7-54.7c0.2-0.1,0.3-0.2,0.4-0.4c1.7-2.5,4.4-5.7,7.1-8.7
					c2.6-2.9,5.3-5.9,7-8.5c6.1-9,8-21.3,5.6-36.4c-0.7-3.4-0.1-14.2-3.5-15.5c-1.8-0.6-2.7,1.9-3.4,3.5c-1.3,3.1-4.2,6.3-6.6,8.9
					c-10.3,11.2-14.6,26.9-11.8,42.5c-3.5-9.4-12.1-26.2-12.6-28.7c-1.3-7-3-14.5-0.8-21.3c6.3-7.8,8-19.7,6.6-34.8
					c-0.8-7.8-3.1-12-7-12.4c-0.9-0.1-1.8,0.2-2.7,1c-2,1.7-3.1,4.4-4,6.8c-1.2,3.3-1.3,6.5-1.3,10c0,3.1,0.1,6.3,0.4,9.4
					c0.7,6.8,2.5,13.4,5.5,19.5c-1.6,5.1-1.3,10.3-0.5,15.5c-9.7-17.4-21.2-33.6-34.6-48.5c-0.5-5.6,11.8-10.8,13.6-16.3
					c4.3-10.9-2.6-21.4-8.1-29.8c-0.3-0.5-0.9-0.7-1.4-0.5c-0.5,0.2-0.9,0.7-0.8,1.2c0.5,8.8-5.1,16.7-7.8,25.1
					c-2.9-14.3-13.6-23.3-26.5-31.7c-2.2-1.2-6.5-4.5-7.9-2.8c-0.4,0.5-0.4,0.5,0.3,8.1c0.5,5.7,0.7,7.5,1.2,11.3
					c0.6,4.8,1.2,9.7,3.3,14.2c3.7,8.4,17.8,18.9,27.3,17.8c7.3,7.7,14.1,15.8,20.4,24.3c-6-2.6-13.6-4.4-18.5-4.1
					c0.8-4.7-2.3-8.1-5.8-9.4c-4.1-1.5-9.3-0.4-11.4,4.6c-1.4,5,2.6,9.5,7.2,10.8c3.5,1,7.4,0.2,9.2-3.5c5-0.8,17.3,2.4,22.6,6.1
					c16,22.5,28.2,47.3,36.4,73.5c-2.4-2.6-5.8-5.5-10.6-9c-2-1.7-5.6-3.4-7.9-5.1c-0.5-2.1-3.9-14.6-18.2-22.4
					c-4.3-2.5-10.4-3.5-13.6,0.3c-2.3,2.8-3,5.7-2,8.6c0.9,2.6,3,5,5,7c7.3,7.4,17.4,10.3,27.4,8.4c2.3,1.7,5.9,3.4,7.8,5.1
					c5,3.6,8.6,6.8,10.8,9.3c-2.9-0.9-5.7-2.2-8.7-2.7c-3.8-0.7-9.2-0.3-12.5-1.8c-2.3-1-4.1-3.3-6.4-4.6
					c-5.6-3.3-15.4-3.6-18.8,2.7c-0.6,1.1-0.6,2.4,0,3.7c1,2,3.3,4,5.3,4.4c2.2,0.4,4.2,0.5,5.9,0.5c8.1-0.1,10.3-2.7,13-4.5
					c3.7,1.6,9.1,1.2,13.1,1.9c3.9,0.7,7.7,2.8,11.7,3.5c6.2,17.9,8.6,37.3,10.1,56.5c0,1,0.3,2.1,0.2,2.7
					c-4.9-12-19.8-26.6-30.3-31c-0.4-0.2-0.9-0.1-1.2,0.2c-0.4,0.3-0.5,0.7-0.5,1.2c1.5,9.4,2.2,22.9,5.8,30.5
					c5.1,10.8,14.8,15,23.1,22.2c1.6,1.4,2.8,2.3,3.1,4.6c-1.1,21.4-4.8,42.2-10.7,61.9c-0.2-8.2-2.1-17.4-7.1-24.3
					c1.2-3.1,1.5-6.5,1.7-9.9c0.7-5.7,0.9-13.7-3.4-17.5c-1.8-1.5-4-1.9-6.5-1.3c-3.7,1-5.8,3.6-6.2,7.6c-0.6,8.3,6.6,21,13,23.1
					c6.3,9.4,7,22.7,5.6,31.8c-3.4,9.8-7.3,19.4-11.7,28.7c2.9-12.9,5.3-25.8-4.6-36.6c-4.1-5.1-5.9-5.3-7-5
					c-0.8,0.2-0.8,0.2-2.7,7.1c-0.6,2.3-1.3,4.7-1.5,5.3c-3.4,9.4-7.1,25.3,2.8,37.6c1.8,2.5,3.3,5,4.5,7.8
					c-13.3,23.3-30.1,44.7-49.7,63.1c1.6-4.4,2.6-9,4.7-13.1c5.6-10.2,13.9-19,9.3-31.8c-1.6-5.4-2.4-10.8-5.2-10
					c-0.4,0.2-1.4,0.6-6.1,8.8c-5.8,10.2-1.7,20,0.8,30.1c-2,3.4-3.2,7.2-4.3,10.8c-1,3.2-2,6.3-3.5,9.2
					c-9.6,8.6-19.9,16.5-30.7,23.7c10-10.6,17.4-25.3,11.3-43.6c-0.1-0.4-0.5-0.8-1-0.8c-0.9-0.1-1.1,0.2-2.9,2.5
					c-2.5,3.2-7.8,9.9-13.8,13.7c-15.1,9.5-21.3,24.6-16.5,41.8c-8.6,4.5-17.4,8.5-26.5,12.1c3.2-3.9,5.1-8.5,7-13
					c5.6-0.8,11.7-9,6.7-14c-2.2-2.3-5.7-3-8.7-1.7c-6.8,2.8-6.8,11.9-0.4,15.3c-2.6,6.1-5.1,11.9-10.5,15.7
					c-17,6.2-34.9,10.7-53.4,13.3c2.4-0.8,4.9-1.4,7.2-2.3c2.5-1.1,4.7-2.7,6.7-4.4c2.6-2.3,5.2-3.3,8.9-4.1c7-1,13.8-6.7,18-11.1
					c10-10.4-0.1-19-10.5-10.9c-5.5,4.2-11.2,9.5-13.1,16.6c-0.7,2.1-1.4,4.1-2.6,5.8c-2.7,2-5.3,4.5-8.4,5.7
					c-3,1.3-6.6,1.9-9.7,3.2c2.6-3.4,5-7.6,6-10.6c4.4-2.7,10.8-11.9,11.3-17.6c0.3-4.4-0.9-7.5-3.5-8.5
					c-7.9-2.6-16.6,18.5-9.9,24.5c-0.7,3.5-6.7,13-9.9,14.7c-7.7,0.8-15.6,1.3-23.5,1.4c5.6-3.2,12-8.1,10-15.8
					c-1.2-4.5-4.5-7.9-7.2-11.5c-0.6-0.9-2.2-0.4-2.2,0.7c-0.2,4.9-4.5,9.4-6.8,14c0.1-11.7-11.5-21.5-21.7-28.5
					c-3.6-2.3-4.3-2.4-5-1.9c-0.7,0.4-1.1,1.1-1.1,6.4c-0.2,15.9,2.9,33.2,22.2,36.6c-7.1-0.2-14.1-0.7-21-1.4
					c-7.2-2.9-18.4-11.5-22.2-18.5c2.7-2.1,2.7-7.3,1-8.8c-1-1.2-2.6-1.7-4.3-1.6c-3.3,0.2-5.7,3.4-6.1,6.5
					c-0.5,4.3,3.7,6.4,7.3,5.1c3.2,5.7,10.7,12.3,17.5,16.5c-6.6-0.9-13.1-2-19.5-3.4c-4.8-2.2-11.7-9.9-15.1-17.1
					c-0.7-2,0.4-4.7,0.6-7c0.4-5.8,0.4-10.3-3-15.6c-1.3-2-3.7-4.3-6.2-4.6c-1.4-0.2-2.7,0.3-3.8,1.3c-4.9,4.7-1.5,11.8-0.1,14.8
					c2.4,5,6.2,7.3,9.6,11c1.2,1.4,2.1,3.8,3.2,5.5c2.1,3.3,5.1,7.2,8.5,10.2c-12.5-3-24.7-6.8-36.4-11.5c-1-1.6-0.5-6.1,0.2-10.8
					c0.9-4.6,1.4-4.9,1.3-10.2c-0.2-11.3-9.6-17.4-20.9-25.1c-1.4-0.8-3.1-1.7-4.4-1c-1.1,0.6-0.8,2.1-0.5,3.7
					c0.5,3.3,0.1,6.5,0.5,9.8c0.8,7.6,3.4,19.8,11,28c-2.6-1.2-5.2-2.4-7.8-3.7c-9.4-8.3-17.1-22.1-19-34.1c1.5-0.8,3.5-2.5,3.9-6.4
					c0.6-5-2.9-8.3-6.7-8.9c-3.3-0.6-7.3,0.8-8.3,5.2c-1.6,5.8,2.9,11.5,8.7,10.8c1.7,10.1,7.2,21.4,14.5,29.8
					c-22.7-12.2-43.5-27.7-61.6-45.7c0.8-1.5,5.2-9.6,6.9-12.9c4.5-7.9,1.7-15.2-3.2-23.4c-3.4-5.6-4.6-6.2-5.8-4.6
					c-3,6.6-4.1,9.8-5.9,17c-1.7,7.1-1.5,11.4,1.3,17.1c-5.1-5.4-9.9-11.1-14.5-16.9c7.7-8.2,11.6-14.6,10.2-24.7
					c-0.3-1.9-3.3-12.3-6.4-13c-1.1-0.2-1.8,0.8-3.3,4.5c-3.8,9.5-5.5,19.1-4.6,27.7c-5.3-7-10.2-14.3-14.7-21.9
					c-1.4-4.9-0.3-14.2,2.3-18.6c3.8,0.3,7.2-2.4,7.2-6.4c0.5-11-13.6-11-14.5-1.4c-0.5,3.3,1.6,6.4,4.8,7.4c-1.6,3.4-2.8,9-2.8,14
					c-4.3-7.4-8.2-15.1-11.7-23c0.2-3.6,2-8.2,3.9-11.5c0.3-0.6,0.5-0.9,0.7-1.3c0.7-1.3,3.6-4.4,5.7-6.7c4.8-5.7,10.4-9.9,9-16.8
					c-1.7-4.7-7.3-5.1-12,1.7c-4.5,6.3-6.8,15.3-5.6,22.3c-1.3,2.4-2.6,5.4-3.4,8.4c-4.2-9.7-8-20.5-11-30.7
					c0.4-0.5,3.3-3.6,3.3-3.6c11-12.3,23.4-16.9,22.4-38.1c0.1-7.4-0.1-15-3-14.9c-1-0.4-3.2,2-11.2,12
					c-9.3,11.1-15.9,18.2-15.3,30.1c-4.1-16.5-6.1-33.8-6.6-51.2c-0.9-6.2,7.4-15.9,12.4-20.7c6.4,3.8,13.9-4.8,8.1-10.7
					c-5.5-5.6-14.9,3-10,9.1c-2.2,2.1-7.6,7.7-10.8,13.6c0-9.1,0.5-18.1,1.4-27c2.1-1.9,5.5-3.8,9.3-5.4c8.2-3.5,19.5-8.2,29-26.1
					c0.2-0.4,0.2-0.9-0.1-1.3c-0.3-0.4-0.7-0.6-1.2-0.5c-1.6,0.2-3.1,0.4-4.6,0.5c-15.1,1-24.1,5.6-31,21.1
					c1.3-9.4,3.1-18.7,5.4-27.7c2.9-5.5,6.5-7.7,12.5-9.8c0.2-0.1,0.6,0,0.7,0c11.8-2,27.6,3.4,36.8-5.1c3.3-3.2,5-7.9,5-14.3
					c0-0.4-0.2-0.8-0.5-1c-0.3-0.2-0.8-0.3-1.1-0.1c-4.9,2-9.7,2.3-14.4,2.5c-4.7,0.2-9.6,0.5-14.4,2.6c-5.6,2.5-8.5,8.4-12.2,12.9
					c-4.4,1.5-7.9,3.2-10.6,5.9c4-14.6,9.2-28.6,15.6-42.1c4.9-0.1,12.3,2.3,16.5,2.2c13.2,0,21-4.6,28.6-16.6
					c1.7-2.7,3.6-8,3.4-14.2c0-0.4-0.2-0.8-0.6-1c-0.6-0.4-0.9-0.3-2.5,0.4c-13.6,6.3-28.8,7.3-39.7,18.1
					c5.7-10.7,12.2-20.8,19.4-30.3c5.5-7.3,11.4-14.2,17.7-20.8c0.5-0.5,0.6-0.6,0.9-0.8c15.9,6.8,34.8,5.8,44.6-9.6
					c3.4-4.7,3.3-6.4,2.8-7.4c-0.3-0.5-0.9-1.4-2.7-1.1c-3.7,0.5-9.5,2.1-13,2.9c-5.3,0.9-10.9,1.5-16.1,2.9
					c14.7-8.1,26.5-14.5,24.2-33.7c-0.4-6.8-1.3-7.8-2.1-8.2c-1.2-0.6-2.1,0.3-4,2.5c-14.7,17.4-38.7,14.6-35.4,45.4
					c0,1.3,0.1,2.8-0.1,3.9c-5.3,5.4-10.2,11-15,17c1.5-8,0.6-15-0.4-18.6c5.6-2.7,5.8-11.5-1.4-11.4c-7.5,0.2-7.4,9.8-1.3,11.6
					c0.1,0.1,0.1,0.1,0.2,0.2c1.2,3.8,2.2,13.2-0.9,23.1c-9,11.9-17,24.9-23.8,38.8c3.8-18.2,12.3-30.4,3.5-49.4
					c-2.4-6.1-3.3-6.8-4.2-6.9c-1.3-0.2-1.9,0.9-4,5.2c-2,4.2-5.1,10.6-8.7,14.5c-10.3,11.4-6.5,30.5,5.1,40.5
					c1.4,1.3,2.5,3.2,4.3,4.2c-7.3,16.2-12.9,33-16.8,50.4c-2.1-4.6-5.1-8.5-6.1-13.7c0.4-2.6,1.3-5,2.3-7.6
					c8.1-18.7-1.9-26.1-13.2-36.2c-0.7-0.6-1.9-0.2-2,0.8c0,0.1-1.8,14.2-2.1,16c-1.1,5.7,1.2,12.4,4.5,17.8
					c-6.6-3.5-11.2-3-19.7,0.6c-0.4,0.2-0.7,0.6-0.7,1.1s0.3,0.9,0.7,1.1c2.5,1.1,5,2.7,7.4,4.2c6.2,4.1,13.2,7.9,20.8,5.2
					c0.1,0.1,0.2,0.1,0.4,0.2c1.7,5.4,5.5,9.8,6.9,15.1c-4.1,19.4-6,39.4-5.9,59.5c-3.6-14.6-10.3-24.5-25-32.1
					c-0.5-0.2-1-0.2-1.4,0.2c-0.4,0.4-0.5,0.9-0.3,1.4c2.2,4.9,0.8,11.4,1.2,16.9c0.5,10.1,0.9,16.7,9.9,24.8c2.3,2,10.6,7.7,16,5.9
					c0.1,0.1,0.2,0.1,0.3,0.2c0.7,9.6,1.9,19.1,3.6,28.5c-4.9-8.3-13.8-14.9-23.3-15c-0.5,0-0.9,0.3-1.1,0.7
					c-0.2,0.4-0.1,0.9,0.2,1.3c2.3,2.7,3.5,5.9,4.9,9.3c2.7,8.8,9.9,16.3,19,18.4c1.1,0.3,2.6,1,3.7,1.3c1,4.2,2.1,8.3,3.4,12.4
					c-1.6-1.1-3.3-1.9-4.8-2.4c-5-7-13.3-10.6-19.6-13c-2.4-0.9-5.5-1.8-7.9-0.7c-1.2,0.6-2,1.5-2.4,2.8c-1,3,2.9,6.1,5,7.8
					c5.4,4.5,15.9,8.9,23.4,5.1c2.3,0.7,5.5,2.1,7.7,4.9c2,6.1,4.1,12.2,6.5,18.2c-3.1-3.9-21-11.5-25.7-7.6c-1,0.9-0.1,2.3,0.9,3.5
					c0.7,1,1.7,2.3,3.1,3.9c1.9,2.3,3.8,4.6,5.8,6.7c1.9,2,3.9,3.9,6,5.6c2.1,1.7,4.2,3.1,6.6,4.4c2.4,1.3,4.9,2.3,7.4,3
					c0.7,0.2,1.3,0.3,2,0.5c0.5,0.1,1,0.2,1.5,0.3c0.5,0.1,0.9,0.2,1.6,0.3c3.9,7.8,8,15.1,12.6,22.4c-4.3-3-8.9-4-15.9-5.5
					c-2.1-0.4-4.4-1-7-1.6c-1.1-0.3-2,1.1-1.2,2c3.1,3.7,4.4,8.7,7.5,12.6c6.1,8.4,17.5,11.3,28,9.3c1.2,1.7,2.5,3.4,3.8,5
					c-3.9,0-10.9,1.9-15.9,3.1c-1.6-2.8-5-3.9-8.1-2.9c-2.8,0.9-4.7,3.2-5.2,6.4c-0.3,4.2,2.9,7.2,6,7.8c5,1.1,8.6-4,8.1-9
					c4.8-1.1,13.2-3.7,17.2-2.9c9.1,11.4,19.3,22.3,30.2,32.1c-11-3.5-20.5-1.5-33.1,3.5c-1.1,0.5-2.3,0.8-3.5,1.1
					c-1.9,0.5-3.8,1-5.7,2.2c-0.9,0.6-0.6,2.1,0.5,2.2c5.5,0.8,9.7,2.8,14.1,5c12.1,6.8,30.3,9.5,43.2-0.9c11.6,9,23.8,17,36.7,24
					c-2.6,0.5-5.9,1-8.1,2.5c0.4-0.3-1.9-2.6-2.1-2.7c-1.1-0.8-2.3-1.4-3.6-1.8c-2.5-0.8-5.5-0.9-8,0.1c-3.2,1.3-4.5,5.3-3.6,8.5
					c0.9,3.4,4,5.8,7.3,6.5c5.1,1.2,10.2-2.6,10.5-7.8c0.2-0.1,0.3-0.2,0.4-0.3c1.3-1.5,5.3-2.1,7.7-2.6c2.5-0.7,3.6,0.1,5.8,0.9
					c12.2,6.2,25.1,11.5,38.1,15.8c-4.7,1.7-14.6,1.5-18.8,3.4c-3.3,1.6-5.6,4.3-7.7,6.9c-1.9,2.3-3.6,4.4-6,5.7
					c-1.1,0.6-0.7,2.3,0.6,2.3c2.3,0,4.5,1.2,6.9,1.2c12.5,0.6,26.1-5.7,29.2-18.2c10.2,3.1,20.5,5.6,31,7.5
					c-3.9,2.1-7.3,5.5-10.5,8.3c-6.8-0.9-15.6,2.3-20.7,7.6c-3.8,3.9-4.8,7.8-2.7,10.9c2.4,3.9,7.6,2,10.2,0.6
					c5.9-3,10.8-8.3,14.5-16c0.1-0.3,0.6-1.1,0.5-1.4c4.3-3.6,9.5-9.5,14.8-9c-2.4,2.1-4.2,5.3-5.1,9.1c-5.2,2.2-10.8,9.3-10.5,15.7
					c0.5,8.9,8.3,11.5,11.3,2.6c2.3-5.8,2-11.8,1.5-17.6c1-4.4,3.2-7.8,6.2-9.4c15,2.2,30.5,3,45.9,2.6c-1.4,0.6-4.3,1.9-5.6,2.4
					c-11.3,4.1-15.5,11-18.2,15.5c-0.7,1.2-1.4,2.3-2,3.1c-0.6,0.7-0.1,1.9,0.9,2c9.6,0.5,25.6-1.2,31-9.5c2.9-4.7,2.3-9.1,3.5-14
					c2.3-0.1,4.6-0.3,6.9-0.5c4.2,0.7,7.6,3.6,10.8,6.6c-3.6,4.7,3.9,11.1,8.3,7.1c4.2-3.9-0.6-12.3-6.4-8.6c-2.2-2-4.5-4.2-7.2-5.7
					c8-0.9,15.9-2.1,23.7-3.7c5,1,6.3,2.2,9.6,3.7c17.1,7.1,28.1,10.6,43.2,12c3.2,0,6.1-0.8,7.3-3.5c0.7-1.7,0.8-3.4,0.1-5
					c-1.2-3-4.7-5.7-10.6-8.3c-16.4-6.8-24.8-3.4-36.9-1.7c18.3-4.6,36.3-11.3,53.3-19.8c1.9-1,4.5-0.5,7.1,0
					c2.8,0.6,5.2,0.6,7.9,0.5c4.4,5.4,11.3,20,17.5,19.9c1.6,0,3.1-0.9,4.2-2.7c4.9-8.6-8.4-15.1-15.6-17.9
					c4.3-0.6,8.6-1.5,12.9-1.8c6.7,2.1,21,3.8,26.8-1.5c1.7-1.6,3.4-4.5,1.8-9.5c-3.9-10.3-29.7,4.1-31.1,8.8
					c-8.5,0.8-16.8,3.7-25.3,1.6c-0.5-0.2-0.1-0.4,0.2-0.6c17.1-9,33.1-20,47.9-32.6c7.5-4,15.5-4,23.3-3.8c2.1,5,11.2,1.9,10.2-2.9
					c-1.3-5.6-10.4-5.9-10.7,0.4c-5.7-0.1-11.6-0.1-17.3,1.5c9-8.1,17.5-16.9,25.3-26.1c18.8-7.6,29.7,6.2,46.1-13.7
					c4.2-4.4,10-10.4,8.9-12.2c-0.4-1.2-1.7-0.9-2.6-0.8c-0.8,0.2-1.9,0.4-3.1,0.7c-3.8,0.9-9.6,2.2-13.9,2.4
					c-9.3,0.4-15.3,1.4-19.9,3.5c4.9-7,9.4-14.2,13.6-21.7c0.2-0.4,0.4-0.6,0.6-0.8c6.1-4.7,14.8-6.2,22.4-7.7
					c7.2,1,32.4,4.4,29.4-9.5c-1.1-4.6-7-5.1-10.6-4.4c-6,1.2-10.7,4.5-15.2,7.7c-1.8,1.2-3.6,2.5-5.5,3.7c-0.2,0.1-0.3,0.3-0.4,0.5
					c-6,1-12.6,2.5-18,5.4c1.5-2.8,3-5.7,4.4-8.5c4.4-5.5,12.3-9.8,17.9-13.8c4.6,3.4,10.4-1.4,8.7-6.5c-0.6-1.7-2.1-2.8-4-3.1
					c-4-1-7.4,4.2-6.1,7.7c-4.4,2.9-9,5.7-13.5,9.4c4.4-9.5,8.2-19.4,11.4-29.3c4-3.2,9.1-6.6,11.9-10.7
					c8.6-4.4,16.6-12.5,19.1-19.5c1.1-3.1,1.3-8.3-2.6-10c-5.3-2.4-9.7,3.1-14.7,12c-3.8,7-2.7,10.6-3.1,15c-2,3.5-5.9,6.4-9.3,9.1
					c5.4-17.8,8.9-36.2,10.5-54.8c0.1,0,1.2-0.7,1.9-1.1c5.8-3.1,12.8-2.4,17.7-8c6.6-7.4,10.2-17,10.4-27.9
					c0.2-8.6-1.9-15.3-2.4-16.6C651.6,355.2,651.2,354.9,650.7,354.8 M639.1,324.2c2.6-3.2,6-5.8,8.8-9c2.7-3.3,5.9-6.3,8.4-9.7
					c1,11.2,3.1,29.1-11,39.9c-3.7,2.7-8.3,4.2-12.5,6.1c1.5-9.4,7-18.1,14-24.4c0.6-0.5-0.2-1.6-0.8-1.1c-6.7,5-12,11.8-14.6,19.9
					C631.6,338.3,634.4,330,639.1,324.2z M589.3,208c0.2-1.3,0.4-2.5,0.9-3.8c0.7-2,1.7-4.8,3.6-6c0.2-0.1,0.4-0.2,0.5-0.3
					c2.5,0.2,4.2,3.8,4.8,10.2c1.4,13.6-0.3,24.3-5,31.7c-2.9-6.2-4.4-13-4.9-19.9c-0.2-2.2-0.2-4.4-0.2-6.6
					C589.1,211.6,589.1,209.8,589.3,208z M549.8,226.6c-1.1,3.3-4.2,3.7-6.7,3c-3.4-1-6.4-4.1-5.6-7.6c1.6-3.7,5.4-4.3,8.3-3.2
					C548.7,219.9,551,222.7,549.8,226.6z M554,195.7c1.1-9.9,8-18.1,9.1-28.1c4.7,7.3,9.2,15.9,5.8,24.4c-1.8,4.1-8.5,7.7-11.5,11.5
					c0-2.5,1-4.9,1.9-7.1c1.3-3.3,2.5-6.4,2.8-9.9c0-0.5-0.7-0.6-0.8-0.1c-1.2,6.6-6.5,11.9-6.1,19
					C554.5,202.7,553.8,196.7,554,195.7z M525.4,186.9c-1.9-4.2-2.5-8.9-3.1-13.5c-0.5-4-1.2-10.7-1.7-16.8
					c15,8.6,32.5,21.4,30.2,42.4c-4.8-8.8-12.5-15.3-18.9-22.9c-0.5-0.6-1.6,0.2-1.1,0.9c5.3,7.2,11.7,13.5,16.5,21.1
					c1,1.6,1.7,3.6,2.8,5.2C541.5,203.9,529.2,195,525.4,186.9z M621.8,251.9c2.9-3.2,6.3-7,7.7-11.1c1.2,4,0.9,8.6,1.6,12.8
					c2.3,14.5,0.6,26.2-5.2,34.7c-3,4.3-8.5,9.8-12.1,14.3c1.5-12.2,4-24.3,7.2-36.2c0.2-0.8-1-1.1-1.2-0.3
					c-3.4,10.6-6.2,21.4-7.9,32.4C607.4,282.1,610.4,264,621.8,251.9z M564.9,285.7c-4.5-4.6-6.5-8.1-2.9-12.4
					c1-1.2,2.5-1.6,4.1-1.6c2.3,0,4.7,0.9,6.5,1.9c11.9,6.5,15.8,16.6,16.8,19.9C580.1,295.1,571.5,292.3,564.9,285.7z M584.6,306.6
					c-1.7,1.4-5.8,4.6-16.1,2.9c-1.3-0.3-4.4-2.7-3.6-4.6c2.7-5.1,11.7-4.1,15.4-1.8C581.9,304.1,583.2,305.5,584.6,306.6
					C584.7,306.5,584.7,306.6,584.6,306.6z M592.1,416.9c0.3-3,1.7-4.8,4.4-5.5c1.5-0.4,3.1-0.3,4.3,0.7c2.5,2.2,3.4,7.8,2.9,12
					c-0.1,1.1-0.2,2.3-0.3,3.5c-0.2,3-0.5,6.2-1.4,8.8c-0.1,0.1-0.2,0.1-0.3,0.2C597.1,433.3,591.6,423.3,592.1,416.9z M543.1,534.6
					c1.5-2.7,3.5-5.8,4.5-7.1c0.5,1,1.2,3.2,2,6.4c3.3,8.7,1,15.3-3.5,22.6c0.4-5.1,0.3-9.9-0.7-14.9c-0.1-0.7-1.3-0.5-1.2,0.2
					c0.5,5.8,0.2,11.7-1,17.4C540.8,550.4,538.5,542.6,543.1,534.6z M456.1,611.6c0-3,2.8-5.6,5.8-5.6c3.8,0,6.1,3.6,4.6,6.6
					c-1.1,2.6-4.1,4.9-6.4,5C457.5,616.3,456,614,456.1,611.6z M414.1,633.1c1.8-6.7,7.1-11.5,12.3-15.6c1.7-1.3,4.3-2.7,6.7-2.7
					c1.3,0,2.5,0.4,3.4,1.5c3.6,5.6-11.1,16-14.6,17.4c-2.7,1.2-6.1,1.6-9,2.6C413.3,635.3,413.7,634.2,414.1,633.1z M301.8,629.9
					c-2.1-0.3-2.1-2.5-1.2-4.2c0.6-1.4,1.8-2.4,3.2-2.5c2.2-0.3,3.1,1.7,2.4,4.1C305.7,629.2,303.5,630.2,301.8,629.9z M285.8,621
					c-0.1,1.3-0.5,2.7-0.7,4.1c-2.9-2.9-6-5.2-7.8-9c-2-4.2-3.6-8.9-0.4-12c0.6-0.6,1.2-0.8,1.9-0.7c1.6,0.2,3.5,2,4.5,3.5
					C286.2,611.6,286.2,615.4,285.8,621z M213.5,585.9c-1-0.9-2.6-2.9-1.7-6.5c0.6-2.4,2.5-3.4,4.5-3.4c3.1,0.1,6.1,2.2,5.7,6.3
					c-0.3,2.4-1.4,4-3,4.7C217.1,587.7,215,587.2,213.5,585.9z M128.2,496.6c0.1-3,2.8-4.9,5.3-4.8c2.8,0.1,4.5,2.3,4.4,5.9
					c0,1.7-0.8,2.9-2.1,3.6C132.7,502.7,127.7,501,128.2,496.6z M125.3,461.4c4.5-6.9,10.3-4.5,6.8,3c-2,3.5-9.5,10.9-12.3,14.5
					C119.7,473,121.8,466.2,125.3,461.4z M106.2,364.7c4.3-4.2,9.2,1.8,5.8,5.6c-1.4,1.6-3.9,2.2-6,0.5
					C104,368.8,104.4,366.3,106.2,364.7z M102.2,339.9c7.5-10.7,15.7-10.8,26.9-12.1c-10.6,17.8-19.9,19.7-30.7,24.7
					c3.8-6.3,8.7-11.8,14.5-16.3c0.5-0.4,0-1.2-0.5-0.8c-6.4,4.3-11.9,10-16,16.6C97.5,347.7,99.1,344.2,102.2,339.9z M126.5,295.9
					c8.9-3.8,17.7-1.2,27-4.4c-0.6,18.9-20.3,14.7-34.1,14.7c6.1-2.7,12.4-5.6,19.1-6.2c0.7,0,0.7-1.1,0-1.1c-7.2,0.1-14,3-20.6,5.7
					C120.3,301.1,122.8,297.5,126.5,295.9z M140,197.6c0-0.7,0.2-3.1,3.4-3.1c1.7,0,2.8,0.7,3,2.2c0.2,1.8-1,4-3.2,4.7
					C141.2,201,140,199.2,140,197.6z M106.1,230.7c4.8-5.4,7.7-12.6,10.7-18.3c1.4,2.6,4.1,9.8,4.7,12c4.3,14.6-5.2,29.8-6.9,44.5
					c-3.3-5.5-3.6-10.1-3.8-17c-0.2-5,1.1-13.2,1.9-18.5c0-0.4,0.1-0.5,0.1-0.8c0.1-0.1-0.4-0.5-0.7-0.3c-0.4,0.4-0.2,0.2-0.3,0.3
					c0,0,0,0.1,0,0.1c-2.8,10.4-5.7,22.8-2.6,33.2C99.1,255.4,97.6,240,106.1,230.7z M111.8,232.7L111.8,232.7L111.8,232.7z
					 M112.8,233C112.8,233,112.8,233,112.8,233C112.8,233,112.8,233,112.8,233z M111.8,233C111.8,233,111.9,233.1,111.8,233
					C111.9,233,111.8,233,111.8,233z M111.9,233.1C111.9,233.1,111.9,233.1,111.9,233.1C111.9,233.1,111.9,233.1,111.9,233.1z
					 M112,233.2C112,233.2,112,233.2,112,233.2C112,233.2,112,233.2,112,233.2z M112.1,233.2c0.1,0.1,0.3,0.1,0.4,0.1
					C112.3,233.3,112.2,233.3,112.1,233.2z M125.9,260.7c10.5-10,25.2-11,38.3-17.1c-0.1,4.6-1.5,8.8-3,11.1
					c-7.3,11.7-14.6,15.7-27.5,15.5c-2-0.2-10-1.8-11.9-1.9c9.2-2.3,18.3-5.7,26.1-11.3c0.4-0.3,0-1-0.5-0.7
					c-7.7,4.8-16.5,7.6-25.4,9.3C123.3,263.9,124.5,262.1,125.9,260.7z M189.3,195.4c5.6-0.6,12.2-2.8,17.8-3.7
					c-0.1,0.5-0.6,2-2.8,5c-8.5,13.3-24,14.8-37,10.4c7.7-0.8,13.5-1.1,21.8-5.9c0.7-0.3,0.1-1.4-0.5-1.1c-9,3.9-14.5,3.1-22.5,4.3
					C172,198,180.8,196.6,189.3,195.4z M166.5,182.5c3.4-5.9,13.4-11.1,20.7-15.9c5.7-3.8,8.4-7.2,11.4-10.5
					c0.8,2.8,1,11.4,0.8,13.5c-1.8,17-23.3,21-34.5,31.2c2.1-3.4,5.1-6.3,8.3-9.3c4.9-4.6,10.4-9.4,13.4-15.4c0.4-0.6-0.7-1.3-1-0.6
					c-5.6,8.3-16.6,13.4-22.3,22.3C163.2,190.9,164.3,186.1,166.5,182.5z M78.1,283.9c0.3-1.5,1.3-9.8,1.9-13.9
					c13.3,11.9,17.5,16.8,9.7,34.9c-0.5-5.3-1.9-10.5-3.6-15.5c-0.7-2-1.4-3.9-2.2-5.9c-0.1-0.2-0.4-0.3-0.6-0.3
					c-0.2,0.1-0.4,0.4-0.3,0.6c2.7,7.3,4.9,15,5.2,22.9C83.2,303,76.5,292.3,78.1,283.9z M69.2,306.2c-1.7-1.1-3.5-2.2-5.3-3.2
					c5.6-2.1,8.8-2.2,13.4-0.6c1.7,0.6,5.1,3.6,7.6,5.8c-4.1-1.2-7.8-3.9-12.1-3.7c-0.4,0-0.3,0.5,0,0.6c5.3,1,9.6,4.9,15,5.8
					c0.1,0,0.1,0.1,0.2,0.1C80.7,313.5,75.1,310,69.2,306.2z M73.1,455.4c-2.8-2.2-5.1-4.6-4.6-5.4c0.4-1.3,1.4-1.7,2.7-1.7
					c1.7,0,3.7,0.8,4.5,1.1c5.6,2.1,12.6,5.2,17.4,10.8C87,463,77.7,459.1,73.1,455.4z M127.8,559.1c-0.9,2.3-2.6,3.4-4.6,3
					c-5-1.2-5.6-7.8-0.6-9.6C126.8,551.3,129.6,554.9,127.8,559.1z M219.8,628.8c-1.2,2.8-4.1,4.3-7.1,3.7c-2.9-0.6-5.6-3.1-5.7-6.2
					c0-1.9,0.6-3.5,2.4-4.2C213.9,620.4,222.4,622.8,219.8,628.8z M285,674.8c-3.8,1.9-5.9,2-7.1,0.2c-1.8-2.7,0.7-6.1,2.4-7.8
					c4.4-4.4,11.7-7.3,17.8-7c0.1,0,0.2,0,0.1,0.2C296.1,664.7,291.7,671.4,285,674.8z M309.3,677.2c-2.5,7-6.3,3.7-6.7-1.8
					c-0.2-4.8,4-10.7,8.1-13C311.2,667.3,311.2,672.5,309.3,677.2z M398.9,660.3c2.8,3.7-1.3,6.9-4.2,3.8c-0.7-0.7-1.1-1.8-0.7-2.8
					C394.8,659.6,397.7,658.7,398.9,660.3z M429.3,647.2c8.5-1.5,17.3-3.1,30.1,2.4c5.9,2.7,10.9,5.6,9.2,10.1
					c-1.3,3.1-8.1,1.9-11.7,1.2c-11.2-1.8-25.1-5.9-38.7-12.5C421.9,648.5,425.5,647.9,429.3,647.2z M399,616.4
					c4.7-6.7,7.5-3.5,7.1,2.3c-0.3,4-5,11.3-8.8,14.7c-0.2,0-0.3-0.1-0.5-0.3C393.1,629.3,396.2,620.2,399,616.4z M356.2,644.4
					c0.6-6.1,6.5-11.1,8.1-17c8.9,10.2,6.5,16.2-6,22.7c0.8-1.4,1.8-2.7,2.5-4.2c1.2-2.5,1.7-5.2,2.3-7.9c0.1-0.5-0.6-0.7-0.7-0.2
					c-0.8,2.7-1.6,5.6-3,8c-0.9,1.6-2.1,2.9-2.9,4.6C356.1,648.9,356.1,645.6,356.2,644.4z M343.4,646.3
					c-12.9-6.4-13.5-23-13.1-35.7c9.5,5.8,20.7,15.2,22.6,24.9c0.7,3.6-0.5,7.8-0.2,11.6c-6-6.9-9.1-15.8-14.9-22.9
					c-0.3-0.4-1.1,0.1-0.8,0.6c5.2,7.7,8.1,16.9,14.3,23.9C348.6,647.9,345.9,647.6,343.4,646.3z M238.4,594.1
					c0-2.1-0.1-4.2-0.5-6.4c0.3,0.1,0.8,0.4,1.4,0.7c19.2,12.7,21.2,17.7,19.2,29.3c-0.7,2.7-1.5,8-1.6,10.5c-2-3.8-3.7-7.8-5-11.9
					c-1.4-4.4-2.2-9-4.6-13.1c-0.4-0.6-1.3-0.1-1,0.6c1.9,3.6,2.5,7.9,3.6,11.8c1.4,5.1,3.4,10.1,5.9,14.8
					C241.7,622.8,238.9,605.8,238.4,594.1z M165,550.4c1.7-6.7,2.7-9.9,5.3-15.7c5.5,7.6,10.6,17.5,5.7,25.3
					c-1.3,2.4-4,7.4-5.6,10.5c-0.5-5.5,0.8-11,0.9-16.5c0-2.2-0.2-4.3-0.6-6.4c-0.1-0.5-0.9-0.4-0.9,0.1c0.6,7.5-1.9,14.9-1.3,22.4
					C163.7,563.2,163,558.4,165,550.4z M150.4,522.6c0.6-1.9,2.3-6.3,3.1-7.8c0.5,0.5,1.3,1.8,2.4,4.4c4.6,10.8,2.2,18.8-5.7,27.5
					c1.2-5.9,2.9-11.7,2.3-17.8c0-0.3-0.5-0.3-0.5,0c0.2,6.7-2.4,12.9-3.7,19.4C146.4,540.8,147.5,532.1,150.4,522.6z M114.5,419.6
					c3.3-4,10.9-13.3,11.4-13.5c1,2.6,0.8,9.4,0.8,12.2c1.3,20.6-12.5,24.8-22.8,37.8c0.8-10.1,4.6-19.9,10.3-28.3
					c0.4-0.6-0.5-1-0.9-0.5c-5.8,7.8-9.4,17-10.7,26.6C100.7,436.2,103.3,433.1,114.5,419.6z M76,397.5c-8.4-7.5-8.6-13.5-9.1-23.4
					c-0.2-4.7,0.6-9.9-0.4-14.5c16,9.2,19,20.1,22.7,35.5c0.5,2,1,3.8,1,6.9c-4.6-6.1-7.3-13.4-11.3-19.9c-1.4-2.2-2.9-4.3-4.7-6.2
					c-0.4-0.4-1,0.2-0.6,0.6c6.5,8,8.8,18.5,15.1,26.6C85,403.5,78.6,399.9,76,397.5z M96.5,447.1c-0.8-0.3-1.5-0.6-2.1-0.7
					c-6-1.3-12.2-6.1-15-11.5c-2.2-4.3-3.3-9-6-13.2c11.3,1.7,18.2,11.2,22,20.2c-3.6-3.8-7.9-6.9-11.9-10.3
					c-0.4-0.3-0.9,0.2-0.6,0.6c1.5,1.4,2.9,2.9,4.3,4.3c3.5,3.3,7.4,6.4,9.6,10.8C96.8,447.2,96.6,447.2,96.5,447.1z M94.9,490.2
					c-2.3-2.6-7.8-8.9-9.3-11.2c1.5-0.3,4.8-0.1,9.1,1.4c12.7,3.8,15.9,8.8,19.6,19.9c-1.6-1.8-3.4-3.5-5.2-5.1
					c-3.2-2.8-6.7-5.2-10.3-7.4c-0.6-0.4-1.2,0.6-0.6,1c5.6,3.8,10.5,8.4,15,13.5C106.3,500.2,100.5,496.4,94.9,490.2z M116,534.2
					c-2.3-3-3.6-6.7-5.6-9.9c12.8,2.8,19.6,3.1,27.7,15.6c-6.1-1.8-11.9-4.7-17-8.5c-0.5-0.4-1.1,0.5-0.7,0.9
					c3.1,2.6,6.4,4.8,10.1,6.5c2.9,1.4,6,2.5,9.1,3.4c0.1,0.2,0.3,0.4,0.4,0.6C132.4,543.8,122.6,542.8,116,534.2z M177.8,601.9
					c-18.2,1.8-23.4-5.9-37.2-9.9c1.8-0.5,3.6-0.8,5.4-1.6c17.8-7.5,31.5-6.7,40.7,2.4c-8.1-2.7-16.5,0.3-24.8,0.4c-0.6,0-0.6,1,0,1
					c9.5,0.5,20.1-3.3,28.5,2.8C186.8,599.5,181.5,601.6,177.8,601.9z M249.8,657.8c-1.2,0-2.6-0.4-3.8-0.7c1.5-1.3,2.8-2.9,4.1-4.5
					c2.1-2.5,4-4.9,6.9-6.2c3.7-1.6,12.4-1.7,16.9-2.9c-4.4,3.5-9.1,7.3-14.7,8.3c-0.6,0.1-0.5,1.2,0.2,1.1
					c6.3-0.8,11.6-4.8,16.4-8.7C271.3,654,260,658.1,249.8,657.8z M369.1,666c-3.9,6.3-17.4,8.6-26.6,8.4
					c6.8-11.9,11.2-13.5,26.9-19.8c-1.8,1.1-3.7,2.2-5.2,3.7c-2.6,2.7-4.8,5.8-7.1,8.7c-0.4,0.5,0.3,1.2,0.7,0.7
					c2.5-2.6,4.9-5.4,7.4-8c1.9-1.8,4.3-2.9,6.5-4.3C371.2,659.1,371.2,662.6,369.1,666z M511.7,637.9c1.3,2.2-0.4,5.9-2.4,5.9
					c-4.2-0.1-10.4-11.4-13.8-16.4C501.2,629.2,509.6,633.3,511.7,637.9z M533.9,611.6c2.7,0.2,3.2,1.5,3.3,1.9
					c4.1,13.1-18.5,10.1-25.8,7.9C514.9,617.5,527.4,611.2,533.9,611.6z M556.5,582.9c0.9-2.5,5.2-1.5,5.7,0.9
					c0.2,1.1-0.9,1.8-1.9,2.2C557.9,587.1,555.6,585.6,556.5,582.9z M500.4,587.2c-8.9,7.9-15.3,18-18.5,29.5
					c-2.8-14.6,2.9-27.1,16.3-35.6c6.6-4.3,11.8-11,14.7-14.7c6.5,25.1-11.7,43.2-28.8,52.4c2.4-11.6,8.8-22.4,17.4-30.5
					C502.1,587.6,501.1,586.6,500.4,587.2z M619.1,504.6c4.5-3.2,8.8-6.2,14.3-7.3c2.2-0.4,7-0.4,7.8,2.6c0.5,1.9,0.2,3.3-0.9,4.4
					c-3.8,4.1-16.7,3.3-24.1,2.3C617.1,506,618.1,505.3,619.1,504.6z M616.9,485.3c0.5-1.7,1.8-3.2,3.4-2.7c2.6,0.2,2.8,3.3,1.3,5
					C619.8,489.6,615.9,488.4,616.9,485.3z M581.3,499.8c-4-10.1-0.1-22.9,1.8-27.9c0.6-1.6,2.3-8.3,3.1-10.6c0.7,0.4,2,1.5,4.2,4.3
					c9.6,10.7,6.1,23.6,3.3,36.4c-0.6,2.9-1.6,5.5-3.4,9.1c-2.3-11.3,1.9-23-2.3-34c-0.3-0.8-1.5-0.5-1.2,0.3
					c3.1,10.8-0.7,22.1,1,33.1C585.5,506.9,582.8,503.6,581.3,499.8z M597.4,537.9c5.5-0.3,11.7-1.9,16.6-2.9c-1.3,2-4.6,5.4-6,6.9
					c-9.9,12.1-16.1,13.3-26.8,12.4c-3.7-0.2-7.7-0.4-12.2,0.3c6.9-6.2,16-8.9,24.9-11c0.9-0.2,0.5-1.5-0.4-1.4
					c-8.3,1.3-16.8,3.2-23.5,8.5c-1.1,0.9-2.1,1.6-3.2,2.3c2.4-3,4.8-6.1,7.1-9.2C579.1,539.8,585.8,538.4,597.4,537.9z
					 M628.3,441.1c5.5-9.6,8.1-12.3,11.6-11c2.4,1.1,1.9,5.2,1.3,7c-2,5.7-8.4,12.5-15.5,16.8C625.6,450.2,625.2,447,628.3,441.1z
					 M612.8,387.8c-18.4-12.2-17.3-22.1-20.1-43.1c10.8,5.6,25,20.1,27.6,31.2c1,4.3,0.8,8.9,0.7,13.3c-3.8-9.9-10.2-18.6-16.5-27.1
					c-0.4-0.6-1.4-0.1-1,0.6c6,9.5,12.4,19,15.4,29.9C617,390.8,614.9,389.3,612.8,387.8z M651.8,372.2c-0.2,10.4-3.5,19.3-9.8,26.3
					c-3.8,4.3-9.6,4.4-14.7,6.4c2.6-10.4,9.2-20.4,16.8-27.8c0.5-0.5-0.2-1.2-0.7-0.7c-9.1,7.1-14.8,16.1-18.7,26.9
					c0.2-9.1,3.8-20.1,8.7-26.6c3.4-4.1,13.5-13.7,16.9-17.9C651,361.5,651.9,366.4,651.8,372.2z"/>
			</g>
		</g>
	</g>
</g>
<g>
	<path class="st0" d="M357.6,158.7c-3.9-0.3-7.5-1.6-11.4-1.6c-4.1,0-8.1,0.5-12.1,1.4c-4.2,0.9-8.3,2-12.5,3.1
		c-0.3,2.2-0.6,4.5-0.9,6.7c-1.3,10.7-2.4,21.4-2.9,32.2c-0.4,9.1-1,18.6-0.4,27.7c0.1,2.4,0.1,4.5,1.3,6.3c0.8,1.1,2.2,2.2,4.4,1.2
		c1.9-0.9,3.3-2.5,4.5-4.2c6-8.2,9.1-18.7,12-28.3c0.5-1.6,3-0.8,2.5,0.7c-3.4,11.1-7.2,24-15.4,32.6c-3,3.2-7.3,4.6-11.4,2.4
		c-3-1.7-4.9-5.6-5.8-7.8c-3.8-9.4-3.6-19.8-3.2-29.8c0.5-12.4,1.6-24.8,3.1-37.2c-10.3,1.2-22.8-0.5-28.6-9.9
		c-0.2-0.4,0.3-0.7,0.6-0.4c7.6,8.3,17.9,9.9,28.2,8.7c1.1-8.8,2.4-17.5,3.9-26.2c0.5-3,4-4.6,6.7-3.8c3.1,0.9,4.6,3.9,4.2,7
		c-0.9,6.9-1.9,13.7-2.8,20.6c5.8-1.5,11.6-3.2,17.6-3.9c5.5-0.7,13.5-1.4,18.3,2C358.2,158.1,358.1,158.8,357.6,158.7z"/>
	<path class="st0" d="M405,204.3c-2.3,6-5.1,11.6-8.8,16.9c-2.6,3.7-5.1,7.8-8.3,11c-5.1,5-13.3,7.5-18.9,1.4
		c-5.5-6-2.9-16.7-2-23.8c0.4-3.3,0.7-6.7,0.5-10.1c-0.1-1.5-0.7-4.7-2.7-4.3c-3,0.7-5,4.6-6.2,7c-2.4,4.9-4.1,10.3-5.4,15.6
		c0.2,1.3,0.5,2.7,1,4c0.5,1.2-1.2,1.9-2,1.1c-2.6-2.6-5.2-4.7-7-8c-1.7-3.2-3.1-6.6-4.1-10.1c-2.2-7.6-2.4-15.3-1.7-23.1
		c1-12.6,4.4-25.4,11.3-36.1c4-6.2,11.8-13.6,19.9-11.4c13.3,3.5,4.5,25.7,0.5,33.1c-5.3,9.7-12.9,18.3-21.1,25.8
		c0.1,4.3,0.4,8.7,1,13c0.2,1.7,0.5,3.5,0.9,5.2c0.9-3.9,2-7.6,3.6-11.3c1.5-3.3,3.1-7.2,5.9-9.6c6.7-5.8,14.7,1.8,16.6,8.4
		c2.3,7.7-0.7,16.1-0.8,23.6c0,0.9,0,1.9,0.1,2.8c0-0.2,0.3,1.3,0.3,1.5c0,0.1,0.1,0.4,0.2,0.5c0.2,0.5,0.4,0.9,0.6,1.4
		c0.1,0.3,0.5,0.8,0,0c0.2,0.3,0.3,0.6,0.6,0.8c2.2,1.8,4.9,0.6,7.1-0.8c4.1-2.6,6.8-6.1,9.1-10.3c2.8-5,5.1-10.4,7.3-15.7
		C403.1,201.1,405.7,202.6,405,204.3z M350,190.3c7.5-7.5,14.5-15.6,19.3-25c2.9-5.6,4.9-11.8,5.4-18.1c0.2-3.2,0.2-7.5-2.8-9.4
		c-1.7-1.1-4-1.3-5.8-0.6c-2.9,1.2-4.8,4.2-6.2,6.9c-2,3.9-3.5,8.1-4.8,12.3C352,167,350,178,350,189.1
		C350,189.5,350,189.9,350,190.3z"/>
	<path class="st0" d="M445.9,204.1c-6.2,11-13.8,21.5-25.9,26.5c-4.8,1.9-9.1,3.3-13.9,0.5c-5.3-3.1-7.8-8.6-8.6-14.5
		c-1.4-9.7,2.5-22.1,12-26.5c5.2-2.4,12.5-2.6,16.3,2.5c2.5,3.3,2.5,9.3,0.5,12.9c-3.2,5.9-10.6,10.7-17.6,10.1
		c0.2,1.9,0.7,3.9,1.5,5.8c0.6,1.5,1.3,2.9,2.5,4c1.2,1.2,1.5,1.4,2.7,1.7c4,1,7.9-1.4,11-3.6c7-5,13.8-12.7,17.1-20.8
		C444.1,201.1,446.7,202.6,445.9,204.1z M408.7,213c2.9-0.2,5.8-0.6,8.5-2.1c3.2-1.8,6.4-5.1,7-8.8c0.6-4.2-3-5.3-6.4-4.1
		c-1.7,0.6-3.1,1.8-4.4,3.1c-1.1,1.2-1.4,1.6-2.1,2.8C409.6,206.8,408.7,209.9,408.7,213z"/>
</g>
<g>
	<path class="st0" d="M280.3,532.6c-6,6.5-14.8,13.2-23.9,11.5c0,0.2,0,0.5-0.1,0.7c4.9,5,8.2,12.3,9.9,18.7
		c0.9,3.4,1.8,7.2,1.3,10.8c-0.4,3.1-1.8,6.6-4.9,7.7c-3.5,1.2-7.3-0.4-9.6-3.1c-2.7-3.2-4-7.7-4.8-11.8c-3.3-18,0.6-37.1,4.9-54.6
		c1.4-5.5,9.5-2.8,8.5,2.5c-1.8,9.2-3.9,18.3-5,27.6c8.8,1.3,16.9-4.8,22.6-11.1C279.8,530.7,280.9,531.9,280.3,532.6z M256,548.8
		c-0.3,7.1,0.2,14.1,1.3,21.1c0.4,2.4,1.4,8.8,5.2,7.5c4.4-1.5,2.2-9.4,1.4-12.5c-1-4-2.6-7.8-4.6-11.4
		C258.3,551.8,257.2,550.3,256,548.8z"/>
	<path class="st0" d="M318,532.3c-0.7,3.6-2.4,7.2-4.1,10.5c-1.3,2.5-2.8,4.9-4.8,6.9c-2.3,2.3-6.6,5.1-10,4c-4.2-1.4-6-5.6-6.7-9.6
		c-1.6,3.6-3.7,7.1-6.7,8.8c-3.8,2.2-7.8-0.9-9.8-4.3c-3.1-5.2-2.5-12.1-0.5-17.6c1.7-5,5.3-11.2,11.2-9.9c2.8,0.6,5,2.2,6.6,4.7
		c0.1,0.2,0.3,0.5,0.4,0.8c0.3-1,0.5-2,0.8-3c1.6-5.5,10.1-2.8,8.6,2.5c-1.7,6.2-3.4,13.7-2.4,19.5c0.3,1.7,0.7,2.9,1.5,3.8
		c1.7,2,3.4,1.1,5.2-0.4c5.2-4.4,7-11.1,9.9-17C317.3,531.3,318.1,531.8,318,532.3z M292.7,530.3c-0.5-1.4-1.1-2.8-2.4-3.4
		c-1.7-0.8-4.3,1.8-5.2,2.9c-2.4,3-2.8,8-2.8,12c0,2.3,1,9.5,3.7,7.7c3.1-2.1,4.7-5.8,6-9.5C291.8,536.7,292.1,533.5,292.7,530.3z"
		/>
	<path class="st0" d="M378.4,533c-2.2,6.8-4.1,14.4-9.3,19.6c-4.5,4.5-12,7.3-16.4,1.1c-2.2-3.2-2.4-7.4-2.7-11.1
		c-0.4-4.3-0.6-8.2-0.3-12.5c0-0.5,0.2-1.3-0.1-1.7c-0.9-1.3-2.5,0.2-3.1,0.9c-1.2,1.4-2.1,3.3-3,4.9c-0.8,1.7-1.6,3.5-2.3,5.3
		c-0.6,1.5-1,3.1-1.8,4.5c0,0,0,0.1,0,0.2c-1.1,5.1-8.8,3.4-8.7-1.4c0-0.6,0.1-1.3,0.2-1.9c0-0.1,0-0.3,0-0.4c0.1-1,0.2-1.9,0.2-2.9
		c0.2-2.4,0.2-4.8,0.2-7.2c0-2.2,0.3-4.5-0.1-6.6c-0.1-0.3-0.3-1.3-0.6-1.6c-0.7-0.6-1.7,0.6-2.2,1.3c-2.6,3.7-3.5,9-4.7,13.3
		c-0.6,2.3-1,4.6-1.8,6.8c0.1,3,0.5,6.9-1.8,8.7c-1.7,1.3-3.7,1.3-5.3-0.2c-2.7-2.5-1.8-6.9-1.8-10.3c0-3.4,0-6.8,0.2-10.2
		c0.4-5.7,8.4-5.2,8.7,0.3c0,0.9,0.1,1.8,0.1,2.7c1.3-5.4,5.5-22.8,13.8-14.9c3.3,3.1,4.2,8.4,4.3,12.7c0,1.3,0.1,2.7,0,4.1
		c0.3-0.8,0.7-1.5,1-2.2c1.3-2.9,2.4-6.5,5-8.6c2.4-1.9,5.3-1.8,7.7,0c3.2,2.3,4,6.7,4.4,10.3c0.5,3.8,0.4,7.9,1.3,11.7
		c0.6,2.5,2,5.7,5.2,4.8c3.5-1,5.6-5.4,7.1-8.4c1.8-3.7,3.6-7.6,4.5-11.6C376.6,531,378.9,531.7,378.4,533z"/>
	<path class="st0" d="M400.6,532.3c-0.7,3.6-2.4,7.2-4.1,10.5c-1.3,2.5-2.8,4.9-4.8,6.9c-2.3,2.3-6.6,5.1-10,4
		c-4.3-1.5-6.1-5.9-6.8-10.1c-1-6.6,0.2-13.7,2-20.2c1.6-5.5,10.1-2.8,8.6,2.5c-1.7,6.2-3.4,13.7-2.4,19.5c0.3,1.7,0.7,2.9,1.5,3.8
		c1.7,2,3.4,1.1,5.2-0.4c5.2-4.4,7-11.1,9.9-17C399.9,531.3,400.7,531.8,400.6,532.3z M379.1,514.6c0-0.6,0.1-1.1,0.3-1.6
		c0.2-0.5,0.4-1,0.9-1.4c0.8-0.8,1.9-1.1,3-1.1c1.2,0,2.2,0.6,3,1.3c0.8,0.8,1.3,1.9,1.3,3c0,0.6-0.1,1.1-0.3,1.6
		c-0.2,0.5-0.4,1-0.9,1.4c-0.8,0.8-1.9,1.1-3,1.1c-1.2,0-2.2-0.6-3-1.3C379.6,516.9,379.2,515.7,379.1,514.6z"/>
	<path class="st0" d="M430.2,533.9c-2.5,5.8-5.5,11.9-10,16.4c-3.7,3.6-9.2,6-13.5,2.1c-3.4-3.1-5.2-7.5-6.6-11.7
		c-1.8-5.6-2.3-11.3-2.4-17.2c-0.2-11.2,0.5-23.1,4.5-33.6c0.4-1,0.5-1.3,0.2-0.7c0.1-0.3,0.2-0.6,0.4-0.9c0.1-0.2,0.2-0.4,0.3-0.6
		c0.2-0.4,0.4-0.9,0.6-1.3c0.8-1.5,0.8-1.4,1.7-2.5c1.4-1.6,3.4-2.9,5.3-3.8c6.2-2.8,11.8,2.3,12,8.4c0.2,5.8-2.2,11.8-4.6,16.9
		c-2.8,6.1-6.8,11.5-11.6,16c0,2.2,0,4.4,0.2,6.6c0.1,2.5,0.4,4.9,0.7,7.4c0.3,2.1,0.2,4.3,0.5,6c0.3,1.8,0.8,3.7,1.4,5.4
		c0.4,1,1.3,2.4,1.8,3c0.5,0.6,1.1,1.5,1.2,1.5c1.2,0.8,2.5,0.6,3.7,0c2.5-1.1,4.4-3.5,5.9-5.7c2.7-3.9,4.8-8.3,6.6-12.8
		C429,531.9,430.6,532.9,430.2,533.9z M406.6,518.8c4.1-4.4,7.5-9.3,9.9-14.8c2.2-5,5.4-12.3,3.4-17.7c-0.9-2.6-4.3-4.1-6.6-2.3
		c-0.8,0.7-1.3,1.6-1.7,2.6c0,0,0,0.1,0,0.1c0,0,0,0.1,0,0.1c-0.1,0.2-0.2,0.5-0.3,0.7c0-0.1,0-0.1-0.1,0.2c-1.1,3.5-2,7-2.6,10.7
		C407.5,505.2,406.8,511.9,406.6,518.8z"/>
	<path class="st0" d="M466,532.3c-4,3.9-8.4,7.5-12.6,11.1c-0.3,4.5-0.7,8.9-1.3,13.4c-1.1,9.6-2.4,21.9-10.8,28.2
		c-2.3,1.8-4.9,3.6-8,2.8c-2.7-0.8-4.8-3-5.9-5.6c-1.7-4.3-0.8-9.7,1.1-13.8C432,561,438,554.7,444,549c0-0.3,0.1-0.5,0.1-0.8
		c0.3-3.2,0.5-6.3,0.7-9.5c-0.9,3.5-2,6.9-3.5,10.1c-1.4,3.1-5,6.9-8.7,4.9c-5.1-2.6-6.3-9.8-6.3-15c0-4.7,0.7-9.5,1.6-14.1
		c1.1-5.7,9.7-2.9,8.6,2.5c-0.6,3.3-1.2,6.6-1.5,9.9c-0.4,3.5-1.2,8.1,0.2,11.5c0.5,1.3,1.2,2.2,2.4,1.1c1.2-1,2-2.6,2.7-4
		c2.4-4.7,3.5-10.1,4.7-15.2c0-0.1,0.1-0.2,0.1-0.3c0.1-1.7,0.1-3.3,0.2-5c0.2-5.9,9-5.3,8.9,0.3c-0.1,4.8-0.4,9.7-0.7,14.5
		c3.6-3.3,7.4-6.5,11.5-8.9C465.8,530.8,466.5,531.8,466,532.3z M443.6,552.6c-4.9,4.9-9.6,10.3-12.4,16.4c-1.7,3.6-2.2,9.7,0.2,13
		c1.9,2.7,4.9,2.4,6.3-0.5c1-1.9,1.6-3.3,2.1-5.3c1-4.2,1.7-8.6,2.4-12.9C442.8,559.8,443.2,556.2,443.6,552.6z"/>
</g>
</svg>


