<?xml version="1.0" encoding="utf-8"?>
<!-- Generator: Adobe Illustrator 23.0.5, SVG Export Plug-In . SVG Version: 6.00 Build 0)  -->
<svg height="500" width="500" version="1.1" xmlns="http://www.w3.org/2000/svg" xmlns:xlink="http://www.w3.org/1999/xlink" x="0px" y="0px"
	 viewBox="0 0 720 720" style="enable-background:new 0 0 720 720;" xml:space="preserve">
<style type="text/css">
	.st0{fill:#050002;}
	.st1{fill-rule:evenodd;clip-rule:evenodd;fill:#050002;}
	.st2{fill-rule:evenodd;clip-rule:evenodd;}
	.st3{fill:#221F1F;}
	.st4{fill:#231F20;}
	.st5{fill:#070808;}
	.st6{fill:#211E1F;}
	.st7{fill:#161616;}
	.st8{fill:#131313;}
	.st9{fill:#21201F;}
	.st10{fill:#2C2929;}
</style>
<g>
	<g>
		<rect x="71.7" y="298" class="st0" width="546.1" height="12.4"/>
	</g>
	<g>
		<rect x="67.2" y="412.5" class="st0" width="557.7" height="12.4"/>
	</g>
	<g>
		<g>
			<path class="st0" d="M344.8,140.2c106.2,0,198.9,64.9,238.4,157.8h8.4c-14.4-35.1-36.3-67.1-64.8-93.7
				c-49.6-46.3-114.3-71.9-182.1-71.9S212.3,158,162.7,204.3c-28.5,26.6-50.4,58.6-64.8,93.7h8.4
				C145.9,205.1,238.6,140.2,344.8,140.2z M631.6,483.8c-1.9-2-4.9-2.8-8.6-2.1c-2.2,0.4-4.6,1-7.3,1.8c-5,1.6-9.6,3.6-13.8,6.2
				c-5.1,3-9.5,6.8-13.2,10c-2.9,2.5-5.7,5.1-8.6,7.6c3.2-6.7,6.1-13.5,8.7-20.3c9.4-7.3,17.1-17.2,22.2-28.6
				c4.4-10,6.7-20.9,6.6-31.6c0-0.6,0-1.3-0.1-1.9h-9c0.1,2.5,0,4.9-0.2,7.4c-1.3,16.1-8.2,31.3-19.2,42.3c0-0.5,0.1-1,0.1-1.4
				c0.4-2.9,1-5.9,1.7-8.8l0.1-0.6c1.5-6.7,3.3-13.5,5.3-20.1c1.9-5.9,4-11.9,6.3-17.7c0.2-0.4,0.3-0.8,0.5-1.3h-9.7
				c-2.6,6.6-4.9,13.3-6.9,20c-1.9,6.4-3.6,13.1-5,19.9l-0.3,1.4c-1,4.9-2.2,10.4-0.2,15.5c-0.8,2.1-1.6,4.1-2.4,6.2
				c-3.2,7.9-6.7,15.7-10.6,23.3c0.1-1.4,0.2-2.8,0.3-4.3c0.3-4.8,0.4-10,0.4-16.2c0-2.7-0.1-5.4-0.2-8c0-0.6,0-1.1,0-1.7
				c0-1.9,0-3.9-0.4-5.9c-0.5-3.1-1.7-5.5-3.6-7.1c-2.4-2.1-5.8-2.5-8.9-1.1c-2.6,1.1-4.5,3.2-6.1,5.2c-1.7,2.1-3.1,4.4-4.2,7.1
				c-2.4,5.7-2.4,11.7-2.2,16.4c0.3,5.5,0.8,11.1,1.3,16.1c0.6,6.4,1.1,11.6,1.8,16.4l0.1,1.1c0.3,2.2,0.6,4.4,1.1,6.6
				c0.5,2.4,1.3,4.3,2.5,5.8c-6.9,10.1-14.4,19.7-22.4,28.7c3-8.2,4.9-16.8,5.6-25.3c0.2-3.2,0.3-6.4,0.2-9.6l0-1.3
				c-0.1-2.6-0.2-5.6-0.9-8.3c-1.3-4.5-5.3-6.9-9.4-5.8c-2.8,0.8-5.4,3.1-7.1,6.2c-3.1,5.6-5.8,12.3-8.3,20.3
				c-2,6.5-3.7,13.5-5.1,21.4c-0.6,3.4-1.1,6.9-1.6,10.6l-0.3,2.1c-0.3,2.7-0.7,5.6-1.3,8.2c-1.3,5.8-4,11.1-7.9,15.1
				c-7.7,6-15.8,11.5-24,16.4c-0.5,0.3-0.9,0.6-1.4,0.8l-0.4,0.2c-0.5,0.2-1,0.5-1.4,0.8c-1.1,0.6-2.2,1.2-3.3,1.9
				c1.9-2.3,3.6-4.7,5.3-7.2c6.6-9.7,12.2-21.2,17.8-36.1c0.2-0.6,0.5-1.3,0.7-1.9c0.9-2.3,1.8-4.6,2.3-7.1c0.7-3.7-0.8-8-5-9.1
				c-3.1-0.8-6.5,0.5-9.4,3.5c-2.3,2.4-4.4,5.1-6.3,7.7c-8.2,10.9-14.7,23-21,34.7c-5.5,10.2-11.3,20.8-18,30.4
				c-0.2,0.3-0.4,0.6-0.5,1c-5.3,2-10.7,3.9-16.2,5.6c-3.6,1.1-7.4,2.3-11.4,3.4c6-5.6,11.8-11.6,17.1-18.2
				c8-10.2,13.2-20.7,15.5-31l0-0.2c0.6-2.6,1.3-5.9-0.1-9.1c-1.2-2.7-3.7-4.8-6.8-5.6c-5.1-1.4-10.9,0.3-15.4,4.6
				c-4.2,4-6.4,9.2-8.5,14.2l-18,42.4l-2.1,4.9c-0.2,0.5-0.4,1-0.6,1.5c-0.4,0.6-0.7,1.2-0.9,1.8c-10.8,2.6-21.6,5.1-33.6,7.7
				c-0.4,0.1-0.8,0.2-1.1,0.4c-0.4-0.2-0.7-0.3-1.1-0.4h0c-12-2.6-22.8-5.1-33.6-7.7c-0.2-0.7-0.5-1.3-0.9-1.9
				c-0.2-0.5-0.4-1-0.6-1.5l-20.1-47.3c-2.1-5-4.3-10.2-8.5-14.2c-4.5-4.3-10.3-6-15.4-4.6c-3.1,0.9-5.6,3-6.8,5.6
				c-1.4,3.2-0.7,6.5-0.1,9.1l0,0.2c2.3,10.4,7.5,20.8,15.5,31c5.2,6.7,11.1,12.7,17.1,18.2c-4-1.1-7.8-2.3-11.4-3.4
				c-5.5-1.7-10.9-3.6-16.2-5.6c-0.1-0.3-0.3-0.7-0.5-1c-6.8-9.6-12.5-20.2-18-30.4c-6.3-11.7-12.9-23.8-21-34.7
				c-1.9-2.6-4-5.3-6.3-7.7c-2.9-3.1-6.3-4.4-9.4-3.5c-4.2,1.1-5.7,5.5-5,9.1c0.5,2.5,1.4,4.9,2.3,7.1c0.2,0.6,0.5,1.3,0.7,1.9
				c5.5,14.9,11.1,26.4,17.8,36.1c1.7,2.5,3.5,4.9,5.3,7.2c-1.1-0.6-2.2-1.2-3.3-1.9c-0.4-0.3-0.9-0.6-1.4-0.8l-0.3-0.2
				c-0.5-0.3-1-0.6-1.5-0.9c-8.2-4.9-16.3-10.4-24-16.4c-3.9-4.1-6.6-9.3-7.9-15.1c-0.6-2.7-0.9-5.5-1.3-8.2l-0.3-2.2
				c-0.5-3.8-1-7.3-1.6-10.6c-1.4-7.9-3.1-14.9-5.1-21.4c-2.5-8-5.2-14.7-8.3-20.3c-1.7-3.1-4.3-5.4-7.1-6.2
				c-4.1-1.2-8.1,1.3-9.4,5.8c-0.8,2.7-0.9,5.7-0.9,8.3l0,1.3c-0.1,3.2-0.1,6.4,0.2,9.6c0.6,8.5,2.5,17.1,5.6,25.3
				c-8-9-15.5-18.6-22.4-28.7c1.1-1.5,1.9-3.4,2.5-5.8c0.5-2.2,0.8-4.4,1.1-6.6l0.2-1.1c0.7-4.9,1.3-10.1,1.8-16.4
				c0.4-5,0.9-10.6,1.3-16.1c0.3-4.6,0.3-10.7-2.2-16.4c-1.1-2.6-2.5-5-4.2-7.1c-1.7-2-3.6-4.1-6.1-5.2c-3.1-1.4-6.5-1-8.9,1.1
				c-1.9,1.6-3,4-3.6,7.1c-0.3,2-0.3,4-0.4,5.9c0,0.6,0,1.1,0,1.7c-0.1,2.7-0.1,5.4-0.2,8c-0.1,6.2,0,11.4,0.4,16.2
				c0.1,1.5,0.2,2.9,0.3,4.3c-3.9-7.6-7.5-15.4-10.6-23.3c-0.8-2.1-1.6-4.1-2.4-6.2c2-5.1,0.8-10.6-0.2-15.5l-0.3-1.4
				c-1.4-6.8-3.1-13.5-5-19.9c-2-6.8-4.3-13.5-6.9-20h-9.7c0.2,0.4,0.3,0.8,0.5,1.3c2.3,5.8,4.4,11.7,6.3,17.7
				c2.1,6.6,3.9,13.4,5.3,20.1l0.1,0.6c0.6,2.9,1.3,5.9,1.7,8.8c0.1,0.5,0.1,0.9,0.1,1.4c-11-11.1-18-26.2-19.2-42.3
				c-0.2-2.5-0.2-5-0.2-7.4h-9c0,0.6-0.1,1.3-0.1,1.9c-0.1,10.7,2.2,21.6,6.6,31.6c5.1,11.5,12.7,21.4,22.2,28.6
				c2.6,6.9,5.5,13.7,8.7,20.3c-2.9-2.6-5.7-5.1-8.6-7.6c-3.7-3.3-8.1-7-13.2-10c-4.2-2.5-8.8-4.6-13.8-6.2c-2.7-0.8-5-1.4-7.3-1.8
				c-3.7-0.6-6.7,0.1-8.6,2.1c-1.4,1.5-3.2,4.7,0.1,9.7c1.3,2,2.9,4,4.8,6.1c7.1,7.6,16.2,12.7,24.9,17.2
				c10.8,5.6,22.2,10.5,33.7,14.7c0.3,0.1,0.5,0.2,0.8,0.2c1.4,2.4,2.9,4.8,4.3,7c4.5,7.1,9.4,14.1,14.6,20.9
				c-10.2-4.3-22.3-8-34.9-7.6c-4.5,0.1-10.9,1-13.3,6.5c-2.4,5.3,0.9,10.7,4.7,14c8.1,6.9,18.8,9.5,26.3,10.4
				c9.7,1.2,19.7,0.8,29.3,0.3c2.3-0.1,4.5-0.2,6.8-0.3c0.3,0,0.7-0.1,1-0.1c1,1.1,2,2.1,3.1,3.2c6,6.2,12.5,12.2,19.3,17.9l0.6,0.5
				c0.5,0.5,1.2,1.1,2,1.6c2.1,1.7,4.1,3.3,6.1,4.9l0.2,0.2c0.2,0.2,0.4,0.4,0.6,0.7c0.5,0.5,1,0.8,1.6,1c0.7,0.5,1.3,1,2,1.5
				c-3.7-0.9-7.3-1.7-10.9-2.5c-6.3-1.3-12.7-2.6-18.9-3.7l-1.2-0.2c-5.5-0.9-11.1-1.9-16.8-1.8c-5.8,0.1-13.6,1.7-18.3,8.2
				c-1.5,2-1.2,4.7,0.7,6.2c5.9,4.9,12.9,7.8,18.4,9.9c6.4,2.4,12.9,4.3,19.5,5.8c13,2.9,26.4,4.2,39.8,3.6
				c7.5-0.3,15.1-1.2,22.5-2.6c0.5-0.1,1-0.3,1.5-0.5c11.2,5.7,23.1,10.7,35.4,15c3.8,1.3,7.7,2.6,12,3.9
				c-5.2,1.4-10.2,2.9-14.6,4.3l-2.1,0.7c-11.1,3.5-22.5,7.1-32.4,13.7c-3.3,2.2-5.8,4.2-7.7,6.2c-1.5,1.6-2.3,3.4-2.1,5.3
				c0.3,3.2,2.9,4.7,4.2,5.5c3.2,1.9,7.2,2.9,11.6,2.9c1.3,0,2.7-0.1,4.1-0.3c5.1-0.6,10.1-2.2,14.8-3.7l0.7-0.2
				c5.4-1.7,11.2-3.6,17-5.9c7.1-2.9,13.1-6,18.1-9.4c2.9-2,5.6-4.2,8.2-6.6c0.7-0.7,1.4-1.4,2.1-2.2c0.4-0.5,0.9-0.9,1.4-1.4
				c0.9-0.9,1.5-1.3,2-1.3c0.6,0,1.1-0.1,1.6-0.3c7.7,1.9,16.1,3.9,26.9,6.3c2.7,0.6,5.4,1.2,8.1,1.8c1.1,0.2,2.1,0.1,2.9-0.4
				c0.9,0.5,1.9,0.6,2.9,0.4c2.7-0.6,5.4-1.2,8.1-1.8c10.8-2.4,19.2-4.3,26.9-6.3c0.5,0.2,1,0.3,1.6,0.3c0.5,0,1.1,0.4,2,1.3
				c0.5,0.5,0.9,0.9,1.4,1.4c0.7,0.7,1.4,1.5,2.1,2.2c2.6,2.4,5.3,4.7,8.2,6.6c5.1,3.5,11,6.6,18.1,9.4c5.7,2.3,11.6,4.2,17,5.9
				l0.7,0.2c4.8,1.5,9.7,3,14.8,3.7c1.4,0.2,2.7,0.3,4.1,0.3c4.5,0,8.4-1,11.6-2.9c1.3-0.8,4-2.4,4.2-5.5c0.2-1.8-0.6-3.7-2.1-5.3
				c-2-2.1-4.4-4-7.7-6.2c-9.9-6.6-21.3-10.2-32.4-13.7l-2.1-0.7c-4.4-1.4-9.4-3-14.6-4.3c4.2-1.3,8.2-2.6,12-3.9
				c12.3-4.2,24.1-9.2,35.4-15c0.5,0.2,1,0.4,1.5,0.5c7.4,1.4,15,2.3,22.5,2.6c13.4,0.5,26.8-0.7,39.8-3.6
				c6.6-1.5,13.1-3.4,19.5-5.8c5.5-2,12.5-5,18.4-9.9c1.8-1.5,2.1-4.2,0.7-6.2c-4.7-6.5-12.6-8-18.3-8.2c-5.7-0.2-11.4,0.8-16.8,1.8
				l-1.2,0.2c-6.3,1.1-12.7,2.3-18.9,3.7c-3.6,0.8-7.2,1.6-10.9,2.5c0.7-0.5,1.3-1,2-1.5c0.6-0.2,1.1-0.5,1.6-1
				c0.2-0.2,0.4-0.4,0.6-0.7l0.2-0.2c2-1.5,4-3.1,6.1-4.9c0.8-0.5,1.5-1.1,2-1.6l0.5-0.5c6.8-5.7,13.3-11.7,19.3-17.9
				c1-1.1,2.1-2.1,3.1-3.2c0.3,0.1,0.6,0.1,1,0.1c2.2,0.1,4.5,0.2,6.8,0.3c9.6,0.4,19.5,0.9,29.3-0.3c7.5-1,18.2-3.5,26.3-10.4
				c3.9-3.3,7.1-8.7,4.7-14c-2.5-5.5-8.8-6.4-13.3-6.5c-12.6-0.4-24.7,3.3-34.9,7.6c5.2-6.8,10.1-13.8,14.6-20.9
				c1.4-2.2,2.8-4.5,4.3-7c0.3,0,0.6-0.1,0.8-0.2c11.6-4.1,22.9-9.1,33.7-14.7c8.7-4.5,17.8-9.5,24.9-17.2c1.9-2.1,3.5-4.1,4.8-6.1
				C634.7,488.5,632.9,485.3,631.6,483.8z M97.2,511.5c-8.9-4.3-16.8-8.4-23.6-14.1c-2.7-2.3-4.8-4.4-6.4-6.4
				c1.2,0.3,2.3,0.6,3.3,0.9c4,1.2,8,2.9,11.9,5.1c4.3,2.5,8.2,5.7,11,8.2c3.6,3.2,7.2,6.4,10.8,9.6
				C101.8,513.7,99.5,512.6,97.2,511.5z M137.3,493.4c-0.1,3.7-0.5,7.5-0.8,11.2l-0.3,3.3c-0.5,6.5-1.1,11.7-1.7,16.4
				c-0.2,1.8-0.5,3.5-0.7,5c-4.5-14.7-4.5-30.5-4-46.8c0-0.5,0-1,0-1.5c0-1.6,0-3.1,0.3-4.5c0.1-0.6,0.2-1,0.3-1.2
				c0.4,0.3,1,0.9,1.3,1.2c1.3,1.3,2.4,2.9,3.3,4.6C136.7,484.5,137.5,488.4,137.3,493.4z M130.6,574.5c-9.6-0.6-17.3-2.7-23.6-6.4
				c-1.7-1-5.5-3.3-5.8-5.7c0-0.2,0-0.3,0-0.3c0.2-0.3,1.2-0.9,4.9-1.1c0.7,0,1.5,0,2.2,0c6.6,0,13.7,1.3,21.2,3.8
				c7.6,2.6,15.1,6.1,21.7,9.6C144.4,574.6,137.4,574.9,130.6,574.5z M173.1,574.1c-4.6-9.8-7.3-20.2-8-30.8
				c-0.2-2.7-0.2-5.5-0.1-8.2c0-1.2,0.1-2.4,0.2-3.5l0.1-0.9c0-0.2,0-0.3,0-0.5c0.8,1.1,1.4,2.4,1.9,3.7l0.5,1.1
				c4.7,10.3,8.2,22,10.5,36.1c0.4,2.5,0.8,5.1,1.1,7.7c0.3,2.6,0.7,5.3,1.1,8C177.7,582.7,175.2,578.5,173.1,574.1z M192.3,630.5
				c-12.8-0.9-25.2-3.5-36.9-7.5c-4.8-1.7-9.8-3.6-14.3-6.3c1.9-0.9,4.3-1.5,7.2-1.6c4.9-0.2,9.9,0.7,14.7,1.5l1.6,0.3
				c12.1,2.1,24.3,4.7,36.2,7.7c6.3,1.6,12.7,3.3,19.1,5.2C210.7,630.9,201.4,631.2,192.3,630.5z M216.3,584.4
				c-1.1-2.7-2.1-5.5-3.3-8.6c0.8,1.1,1.7,2.2,2.5,3.2l0.3,0.4c7.1,9.5,13.1,20.1,18.5,30.1l1.8,3.4c2.8,5.1,5.6,10.4,8.6,15.6
				C233.4,618.3,224.1,603.8,216.3,584.4z M289.6,664.8c-4,3.2-8.8,6-14.1,8.5c-4.5,2.1-9.6,4-16,6.2l-1.1,0.4
				c-4.6,1.5-9.3,3.1-14.1,4.2c-3.2,0.8-8,1.6-12.2,0.4c-0.1,0-0.1,0-0.2,0c1.4-1.1,2.9-2.1,4.2-3c8.8-5.8,19.3-9.1,29.5-12.3
				l2.9-0.9c6.3-2,13.7-4.3,21.2-5.9l0.3-0.1c1.1-0.2,2.2-0.5,3.3-0.7C292.2,662.7,290.9,663.8,289.6,664.8z M267.2,600.8
				c-0.4-1.3-0.7-2.5-0.9-3.6l-0.1-0.3c-0.2-0.9-0.4-1.9-0.3-2.6c0-0.3,0.6-0.7,1.4-0.9c0.3-0.1,0.6-0.1,0.9-0.1
				c2.8,0,5.6,2.4,7.2,4.6c1.5,2,2.6,4.4,3.6,6.6c0.8,1.9,1.6,3.8,2.4,5.6l12.9,30.3C282.5,629.2,271.7,616.6,267.2,600.8z
				 M408.2,610.2c0.8-1.9,1.6-3.7,2.4-5.6c1-2.2,2.1-4.6,3.6-6.6c1.6-2.2,4.4-4.6,7.2-4.6c0.3,0,0.6,0,0.9,0.1
				c0.8,0.2,1.4,0.6,1.4,0.9c0.1,0.7-0.1,1.7-0.3,2.6l-0.1,0.3c-0.2,1.1-0.5,2.3-0.9,3.6c-4.6,15.8-15.3,28.4-27.1,39.7L408.2,610.2
				z M421,668.2l2.9,0.9c10.1,3.2,20.6,6.5,29.5,12.3c1.4,0.9,2.8,1.9,4.2,3c-0.1,0-0.1,0-0.2,0c-4.2,1.2-9,0.4-12.2-0.4
				c-4.7-1.1-9.5-2.7-14.1-4.2l-1.1-0.4c-6.4-2.1-11.5-4.1-16-6.2c-5.4-2.5-10.1-5.3-14.1-8.5c-1.3-1-2.5-2.1-3.8-3.3
				c1.1,0.2,2.2,0.4,3.3,0.6l0.3,0.1C407.3,663.9,414.6,666.2,421,668.2z M444.8,628.4c3-5.2,5.8-10.4,8.6-15.5l1.8-3.4
				c5.5-10.1,11.4-20.7,18.5-30.1l0.3-0.3c0.8-1.1,1.6-2.2,2.5-3.2c-1.1,3.1-2.2,5.9-3.3,8.6C465.5,603.8,456.1,618.3,444.8,628.4z
				 M524.9,616.9l1.6-0.3c4.8-0.8,9.9-1.7,14.7-1.5c2.9,0.1,5.3,0.7,7.2,1.6c-4.4,2.7-9.4,4.6-14.3,6.3c-11.7,4.1-24.1,6.6-36.9,7.5
				c-9.1,0.7-18.4,0.4-27.7-0.8c6.4-1.9,12.8-3.7,19.1-5.2C500.6,621.5,512.8,619,524.9,616.9z M524.4,543.3
				c-0.7,10.6-3.3,21-8,30.8c-2.1,4.4-4.6,8.6-7.4,12.6c0.5-2.7,0.8-5.3,1.1-8c0.3-2.5,0.7-5.1,1.1-7.7c2.3-14,5.8-25.8,10.5-36.1
				l0.5-1.1c0.6-1.3,1.2-2.7,1.9-3.7c0,0.2,0,0.3,0,0.5l0.1,0.9c0.1,1.2,0.2,2.4,0.2,3.5C524.6,537.8,524.6,540.6,524.4,543.3z
				 M560,564.7c8.3-2.8,16.2-4.1,23.4-3.8c3.7,0.2,4.7,0.8,4.9,1.1c0,0,0.1,0.1,0,0.3c-0.3,2.4-4.2,4.7-5.8,5.7
				c-6.2,3.7-13.9,5.8-23.6,6.4c-6.8,0.4-13.8,0.1-20.7-0.2C545,570.9,552.4,567.3,560,564.7z M555.7,529.3c-0.2-1.5-0.5-3.2-0.7-5
				c-0.6-4.7-1.2-10-1.7-16.4l-0.3-3.3c-0.3-3.7-0.7-7.5-0.8-11.2c-0.2-5,0.6-8.9,2.3-12.2c0.9-1.7,2.1-3.3,3.4-4.7
				c0.2-0.3,0.8-0.8,1.2-1.1c0.1,0.3,0.2,0.7,0.3,1.2c0.2,1.4,0.3,2.9,0.3,4.5c0,0.5,0,1,0,1.5C560.2,498.8,560.2,514.6,555.7,529.3
				z M615.9,497.4c-6.8,5.7-14.7,9.7-23.6,14.1c-2.3,1.1-4.6,2.2-7,3.3c3.6-3.2,7.2-6.4,10.8-9.6c2.9-2.5,6.7-5.7,11-8.2
				c3.9-2.2,7.9-3.9,11.9-5.1c1-0.3,2.1-0.6,3.3-0.9C620.8,493,618.7,495.1,615.9,497.4z"/>
		</g>
	</g>
</g>
<g>
	<path class="st0" d="M346.2,190.5c-4.5-0.3-8.7-1.9-13.4-1.9c-4.7,0-9.5,0.6-14.1,1.6c-4.9,1-9.7,2.4-14.6,3.6
		c-0.3,2.6-0.7,5.2-1,7.9c-1.5,12.5-2.8,25-3.4,37.6c-0.5,10.6-1.1,21.7-0.5,32.3c0.2,2.8,0.1,5.3,1.6,7.3c0.9,1.3,2.6,2.5,5.1,1.4
		c2.2-1.1,3.9-3,5.3-4.9c7-9.6,10.7-21.8,14-33.1c0.6-1.9,3.5-0.9,3,0.9c-3.9,13-8.4,28.1-18,38.1c-3.5,3.7-8.5,5.4-13.3,2.8
		c-3.5-1.9-5.7-6.6-6.8-9.2c-4.4-11-4.3-23.1-3.7-34.8c0.6-14.5,1.9-29,3.7-43.4c-12,1.4-26.6-0.5-33.4-11.6
		c-0.3-0.4,0.3-0.8,0.6-0.5c8.9,9.8,20.9,11.6,33,10.1c1.3-10.3,2.8-20.5,4.6-30.6c0.6-3.5,4.7-5.4,7.9-4.4c3.6,1,5.4,4.6,4.9,8.2
		c-1.1,8-2.2,16-3.3,24c6.8-1.8,13.6-3.7,20.6-4.6c6.4-0.8,15.8-1.6,21.4,2.3C346.8,189.7,346.8,190.5,346.2,190.5z"/>
	<path class="st0" d="M401.6,243.8c-2.7,7-6,13.6-10.3,19.7c-3,4.3-5.9,9.2-9.7,12.8c-6,5.9-15.5,8.8-22,1.6
		c-6.4-7-3.4-19.5-2.4-27.8c0.5-3.9,0.8-7.8,0.6-11.8c-0.1-1.7-0.9-5.5-3.2-5c-3.5,0.8-5.8,5.4-7.2,8.2c-2.8,5.8-4.8,12-6.3,18.2
		c0.2,1.6,0.5,3.1,1.1,4.7c0.5,1.4-1.4,2.2-2.3,1.3c-3.1-3-6.1-5.5-8.2-9.3c-2-3.7-3.6-7.7-4.8-11.8c-2.5-8.8-2.8-17.9-2-27
		c1.2-14.7,5.1-29.7,13.3-42.2c4.7-7.3,13.8-15.9,23.3-13.4c15.5,4.1,5.3,30,0.5,38.7c-6.2,11.4-15,21.4-24.6,30.1
		c0.1,5.1,0.5,10.2,1.1,15.1c0.3,2,0.6,4.1,1,6.1c1.1-4.5,2.4-8.9,4.2-13.2c1.7-3.9,3.6-8.4,6.9-11.2c7.9-6.8,17.1,2.1,19.4,9.8
		c2.6,9-0.8,18.8-0.9,27.6c0,1.1,0,2.2,0.1,3.3c0-0.2,0.3,1.5,0.4,1.7c0,0.1,0.1,0.4,0.2,0.6c0.2,0.6,0.5,1.1,0.7,1.6
		c0.1,0.3,0.5,0.9,0,0c0.2,0.3,0.3,0.7,0.6,1c2.6,2.1,5.8,0.7,8.3-0.9c4.8-3,7.9-7.1,10.6-12c3.2-5.9,6-12.1,8.5-18.3
		C399.4,240,402.4,241.8,401.6,243.8z M337.3,227.4c8.8-8.7,16.9-18.3,22.6-29.2c3.4-6.5,5.7-13.8,6.3-21.2c0.3-3.7,0.2-8.7-3.3-11
		c-1.9-1.3-4.7-1.6-6.8-0.6c-3.4,1.5-5.6,4.9-7.2,8c-2.3,4.5-4.1,9.5-5.6,14.4c-3.7,12.4-6,25.2-6,38.1
		C337.3,226.5,337.3,226.9,337.3,227.4z"/>
	<path class="st0" d="M449.4,243.5c-7.3,12.8-16.1,25.2-30.3,30.9c-5.6,2.3-10.6,3.9-16.2,0.6c-6.2-3.6-9.1-10-10-16.9
		c-1.6-11.3,2.9-25.8,14.1-30.9c6.1-2.8,14.6-3.1,19,2.9c2.9,3.9,2.9,10.9,0.6,15.1c-3.8,6.9-12.4,12.5-20.5,11.8
		c0.3,2.3,0.8,4.5,1.7,6.7c0.7,1.8,1.5,3.4,2.9,4.7c1.5,1.4,1.7,1.6,3.2,2c4.6,1.2,9.2-1.6,12.8-4.3c8.2-5.9,16.2-14.9,19.9-24.3
		C447.3,240,450.4,241.7,449.4,243.5z M405.9,254c3.4-0.2,6.7-0.6,9.9-2.5c3.7-2.1,7.5-5.9,8.2-10.3c0.8-4.9-3.5-6.2-7.5-4.8
		c-2,0.7-3.7,2.1-5.1,3.6c-1.3,1.4-1.6,1.8-2.5,3.3C406.9,246.7,406,250.3,405.9,254z"/>
</g>
<g>
	<path class="st0" d="M255.4,499.7c-6.6,7.3-16.3,14.6-26.5,12.8c0,0.3-0.1,0.5-0.1,0.8c5.4,5.5,9,13.6,11,20.7c1,3.8,2,8,1.4,12
		c-0.5,3.4-2,7.3-5.5,8.6c-3.8,1.4-8.1-0.4-10.6-3.4c-3-3.6-4.5-8.6-5.3-13.1c-3.6-20,0.6-41.1,5.4-60.5c1.5-6.1,10.5-3.1,9.4,2.7
		c-2,10.2-4.4,20.3-5.5,30.6c9.7,1.5,18.7-5.4,25.1-12.3C254.9,497.6,256.1,498.9,255.4,499.7z M228.5,517.6
		c-0.4,7.8,0.2,15.6,1.4,23.4c0.4,2.7,1.6,9.7,5.8,8.3c4.9-1.7,2.4-10.4,1.5-13.9c-1.1-4.4-2.9-8.7-5.1-12.6
		C231,520.9,229.8,519.2,228.5,517.6z"/>
	<path class="st0" d="M297.2,499.4c-0.8,4-2.7,8-4.6,11.6c-1.5,2.7-3.1,5.5-5.3,7.7c-2.5,2.6-7.4,5.7-11.1,4.4
		c-4.6-1.6-6.6-6.2-7.4-10.7c-1.8,4-4.1,7.8-7.4,9.8c-4.2,2.5-8.6-1-10.8-4.8c-3.4-5.8-2.7-13.4-0.6-19.5c1.9-5.6,5.9-12.4,12.4-11
		c3.1,0.7,5.6,2.4,7.3,5.2c0.2,0.3,0.3,0.5,0.5,0.8c0.3-1.1,0.6-2.2,0.9-3.3c1.8-6.1,11.2-3.1,9.5,2.8c-1.9,6.9-3.7,15.2-2.7,21.6
		c0.3,1.9,0.8,3.2,1.7,4.2c1.8,2.2,3.8,1.2,5.7-0.5c5.8-4.9,7.7-12.3,10.9-18.8C296.4,498.3,297.3,498.8,297.2,499.4z M269.2,497.1
		c-0.5-1.6-1.3-3.1-2.7-3.8c-1.9-0.9-4.8,2-5.8,3.2c-2.6,3.4-3.1,8.8-3.2,13.3c0,2.6,1.1,10.5,4.1,8.5c3.5-2.4,5.2-6.4,6.7-10.5
		C268.2,504.2,268.5,500.6,269.2,497.1z"/>
	<path class="st0" d="M364.2,500.2c-2.4,7.5-4.5,15.9-10.3,21.7c-5,5-13.3,8-18.2,1.2c-2.5-3.5-2.7-8.2-3-12.3
		c-0.4-4.7-0.6-9.1-0.3-13.9c0-0.5,0.2-1.4-0.1-1.9c-0.9-1.5-2.8,0.2-3.5,1c-1.4,1.6-2.4,3.6-3.3,5.5c-0.9,1.9-1.8,3.9-2.6,5.8
		c-0.7,1.7-1.1,3.4-2,5c0,0.1,0,0.1,0,0.2c-1.2,5.6-9.8,3.8-9.7-1.5c0-0.7,0.1-1.4,0.2-2.1c0-0.1,0-0.3,0.1-0.5
		c0.1-1.1,0.2-2.1,0.3-3.2c0.2-2.7,0.2-5.3,0.3-8c0-2.4,0.3-4.9-0.2-7.3c-0.1-0.3-0.3-1.5-0.7-1.8c-0.8-0.7-1.9,0.7-2.4,1.5
		c-2.9,4.1-3.9,9.9-5.2,14.7c-0.6,2.5-1.1,5.1-1.9,7.5c0.1,3.3,0.5,7.7-2,9.7c-1.9,1.5-4.1,1.5-5.9-0.2c-3-2.8-2-7.6-2-11.4
		c0-3.8-0.1-7.6,0.2-11.3c0.4-6.3,9.3-5.8,9.6,0.3c0.1,1,0.1,2,0.1,2.9c1.4-6,6.1-25.3,15.3-16.5c3.6,3.5,4.6,9.3,4.7,14.1
		c0,1.5,0.1,3,0,4.6c0.4-0.8,0.8-1.6,1.1-2.4c1.4-3.2,2.7-7.2,5.6-9.5c2.7-2.1,5.8-2,8.5,0c3.5,2.6,4.4,7.4,4.9,11.4
		c0.5,4.2,0.4,8.8,1.4,12.9c0.7,2.8,2.3,6.3,5.8,5.3c3.9-1.1,6.2-6,7.9-9.3c2-4.1,4-8.4,5-12.8C362.1,497.9,364.6,498.7,364.2,500.2
		z"/>
	<path class="st0" d="M388.7,499.4c-0.8,4-2.7,8-4.6,11.6c-1.5,2.7-3.1,5.5-5.3,7.7c-2.5,2.6-7.4,5.7-11.1,4.4
		c-4.8-1.6-6.8-6.5-7.5-11.1c-1.1-7.4,0.2-15.2,2.2-22.3c1.8-6.1,11.2-3.1,9.5,2.8c-1.9,6.9-3.7,15.2-2.7,21.6
		c0.3,1.9,0.8,3.2,1.7,4.2c1.8,2.2,3.8,1.2,5.7-0.5c5.8-4.9,7.7-12.3,10.9-18.8C388,498.3,388.9,498.8,388.7,499.4z M364.9,479.7
		c0-0.6,0.1-1.2,0.3-1.7c0.2-0.6,0.5-1.1,0.9-1.5c0.9-0.9,2.1-1.3,3.3-1.3c1.3,0,2.4,0.6,3.4,1.5c0.9,0.9,1.4,2.1,1.5,3.4
		c0,0.6-0.1,1.2-0.3,1.7c-0.2,0.6-0.5,1.1-0.9,1.5c-0.9,0.9-2.1,1.3-3.3,1.3c-1.3,0-2.4-0.6-3.4-1.5
		C365.5,482.2,365,481,364.9,479.7z"/>
	<path class="st0" d="M421.5,501.2c-2.8,6.4-6,13.2-11.1,18.2c-4.1,4-10.2,6.7-15,2.4c-3.8-3.4-5.7-8.3-7.3-13
		c-2-6.2-2.5-12.5-2.6-19c-0.2-12.4,0.6-25.6,5-37.3c0.4-1.1,0.5-1.4,0.3-0.7c0.1-0.3,0.3-0.7,0.4-1c0.1-0.2,0.2-0.4,0.3-0.7
		c0.2-0.5,0.5-0.9,0.7-1.4c0.9-1.6,0.8-1.5,1.9-2.8c1.5-1.8,3.7-3.3,5.9-4.2c6.9-3.2,13.1,2.5,13.3,9.3c0.2,6.4-2.5,13-5.1,18.8
		c-3.1,6.7-7.5,12.7-12.9,17.8c0,2.4,0,4.8,0.2,7.3c0.1,2.7,0.4,5.5,0.8,8.2c0.3,2.4,0.2,4.7,0.6,6.6c0.4,2,0.9,4,1.6,6
		c0.4,1.1,1.4,2.7,2,3.4c0.5,0.6,1.3,1.6,1.3,1.6c1.3,0.8,2.8,0.6,4.1,0c2.8-1.2,4.8-3.8,6.5-6.3c3-4.4,5.3-9.2,7.3-14.2
		C420.1,498.9,422,500,421.5,501.2z M395.4,484.4c4.5-4.9,8.3-10.3,11-16.4c2.4-5.6,5.9-13.6,3.8-19.6c-1-2.9-4.7-4.6-7.3-2.5
		c-0.9,0.7-1.5,1.8-1.9,2.8c0,0,0,0.1,0,0.1c0,0,0,0.1,0,0.1c-0.1,0.3-0.2,0.5-0.3,0.8c0-0.1,0-0.1-0.1,0.3
		c-1.2,3.9-2.2,7.8-2.8,11.8C396.4,469.3,395.6,476.8,395.4,484.4z"/>
	<path class="st0" d="M461.2,499.3c-4.4,4.4-9.3,8.3-14,12.4c-0.4,5-0.8,9.9-1.4,14.8c-1.2,10.6-2.6,24.2-11.9,31.3
		c-2.6,2-5.4,4-8.8,3.1c-3-0.8-5.4-3.4-6.5-6.2c-1.9-4.8-0.8-10.7,1.2-15.3c3.7-8.2,10.4-15.2,17-21.5c0-0.3,0.1-0.6,0.1-0.8
		c0.3-3.5,0.6-7,0.8-10.5c-1,3.8-2.2,7.6-3.9,11.1c-1.6,3.4-5.5,7.6-9.7,5.5c-5.7-2.9-6.9-10.9-6.9-16.6c0-5.2,0.8-10.5,1.8-15.6
		c1.3-6.3,10.7-3.2,9.6,2.8c-0.7,3.6-1.3,7.3-1.7,11c-0.4,3.9-1.3,9,0.2,12.8c0.6,1.4,1.3,2.4,2.7,1.2c1.3-1.2,2.2-2.9,3-4.4
		c2.7-5.2,3.9-11.2,5.2-16.8c0-0.1,0.1-0.2,0.1-0.3c0.1-1.9,0.1-3.7,0.2-5.6c0.2-6.5,10-5.9,9.8,0.3c-0.2,5.4-0.4,10.7-0.7,16.1
		c4-3.6,8.2-7.2,12.8-9.9C460.9,497.7,461.8,498.7,461.2,499.3z M434.8,533.7c0.6-3.9,1.2-7.9,1.6-11.9
		c-5.4,5.4-10.6,11.4-13.7,18.2c-1.8,4-2.5,10.7,0.2,14.4c2.1,3,5.4,2.6,7-0.6c1.1-2.1,1.8-3.7,2.3-5.9
		C433.3,543.3,434,538.4,434.8,533.7L434.8,533.7z"/>
</g>
</svg>

