<?xml version="1.0" encoding="utf-8"?>
<!-- Generator: Adobe Illustrator 23.0.5, SVG Export Plug-In . SVG Version: 6.00 Build 0)  -->
<svg height="500" width="500" version="1.1" xmlns="http://www.w3.org/2000/svg" xmlns:xlink="http://www.w3.org/1999/xlink" x="0px" y="0px"
	 viewBox="0 0 720 720" style="enable-background:new 0 0 720 720;" xml:space="preserve">
<style type="text/css">
	.st0{fill:#050002;}
	.st1{fill-rule:evenodd;clip-rule:evenodd;fill:#050002;}
	.st2{fill-rule:evenodd;clip-rule:evenodd;}
	.st3{fill:#221F1F;}
	.st4{fill:#231F20;}
	.st5{fill:#070808;}
	.st6{fill:#211E1F;}
	.st7{fill:#161616;}
	.st8{fill:#131313;}
	.st9{fill:#21201F;}
	.st10{fill:#2C2929;}
</style>
<g>
	<g>
		<g>
			<rect x="62.5" y="342.2" class="st0" width="600.6" height="12"/>
		</g>
		<g>
			<rect x="56.2" y="505.5" class="st0" width="613.4" height="12"/>
		</g>
	</g>
	<g>
		<g>
			<path class="st0" d="M587.4,569.2c-1,1.1-0.8,2.9,0.4,4.1c0.7,0.7,1.6,0.7,2,0.7c1.2,0,1.9-0.7,2.3-1l0.2-0.2
				c11.1-16.5,20.3-34,27.6-52.3h-6.4C606.4,537.4,597.7,553.7,587.4,569.2z M591,261.4l-0.2-0.2c-0.7-0.7-1.5-1.1-2.4-1.1h0
				c-0.7,0-1.4,0.3-1.9,0.8c-1.2,1.2-1.4,3-0.4,4.1c16.3,23.9,28.6,49.9,36.5,77.2h6.3C620.9,313.5,608.1,286.3,591,261.4z
				 M114.5,520.5H108c7.5,18.9,17.2,37,28.9,54l0.2,0.2c0.5,0.5,1.5,1,2.3,1c0.4,0,1.2,0,2-0.7c1.2-1.2,1.4-3,0.4-4.1
				C130.8,554.9,121.7,538.1,114.5,520.5z M575.9,214c-2.9-1.4-6.8-0.7-9.3,1.8c-1.4,1.4-2.7,3.8-2.8,6.1c-1.4,0.5-2.9,1-3.9,1.2
				c-3.6-3.8-7.4-7.3-11.5-11c1.3-0.1,2.6-0.3,3.8-0.6c1.4,1,3.1,1.5,4.4,1.9l1.8,0c1.2,0,3-0.2,4.5-1.5c2.2-1.6,3-4.8,1.9-7.5
				c-0.8-2.6-3.3-4.5-6-4.5c-2.5-0.3-5,0.7-6.6,2.7c-0.5,0.8-1.4,2.1-1.8,3.6c-2.6,0.4-5.4,0.6-8.2,0.7
				c-9.6-8.1-18.7-14.9-27.5-20.7c2.9,0.5,5.8,0.9,8.7,1.4c1.8,0.3,3.6,0.5,5.4,0.7c1.7,0.2,3.4,0.4,5.1,0.7l0.9,0.4
				c3.5,2.3,7.1,4.7,11.2,6.2c6.7,2.6,13,3.9,18.5,3.9c1.8,0,3.9,0,5.8-0.3c2.7-0.4,4.8-1.2,6.4-2.3c2.6-1.9,3.7-5.2,2.6-7.9
				c-0.7-1.8-2.5-3.4-4.6-4.1c-1.7-0.7-3.7-0.7-4.9-0.7h-34.1c-3.7-0.6-7.5-1.2-10.9-1.4c-8.6-1.1-17.5-2.2-25-5.4
				c-17.7-10-35.9-17.9-54.4-23.5c4.9-0.2,10-0.6,14.9-0.9c5,1.8,10.3,2.9,15.9,3.2h2.3c8.8,0,17.3-2.4,24.8-6.9
				c4.3-2.4,4.5-5.1,4.3-6.5c-0.4-2.9-2.8-4.7-5-5.1c-1.6-0.3-3,0.1-4.2,0.4c-0.3,0.1-0.6,0.2-1.1,0.2l-18.9,5.2
				c-6.8,1.9-12.7,3.3-18,4c-12.7,0.8-25.8,1.7-35.8,0.6c-19.5-4.5-39.4-6.7-59.1-6.7h-1.2c-19.7,0-39.6,2.3-59.1,6.7
				c-10.6,1.1-23.7,0.3-36.3-0.6c-5.4-0.8-11.3-2.1-18.1-4l-18.9-5.3c-0.3-0.1-0.6-0.1-0.9-0.2c-1.3-0.3-2.9-0.7-4.3-0.4
				c-2.5,0.4-5,2.5-5.1,5.2c-0.4,3.4,2.2,5.3,4.2,6.4c7.5,4.5,16.1,6.9,24.9,6.9l2.4,0c5.4-0.3,11-1.4,15.8-3.2
				c4.6,0.3,9.9,0.7,15.3,0.9c-19.1,5.9-37.4,13.8-54.7,23.5c-7.6,3.2-16.4,4.3-25.1,5.4c-1.8,0.3-3.7,0.5-5.6,0.8
				c-1.7,0.2-3.5,0.4-5.2,0.7h-34.1c-1.5,0-3.2,0-4.8,0.7c-2.2,0.7-4,2.3-4.7,4.1c-1.2,2.7-0.1,6.1,2.5,7.9c2.1,1.7,4.5,2.1,6.5,2.4
				c1.9,0.3,3.9,0.3,5.8,0.3c6.3,0,12.6-1.3,18.5-3.9c4-1.6,7.9-4,11.2-6.2l0.9-0.4l1.2-0.2c3.2-0.5,6.2-1,9.2-1.2
				c1.3-0.2,2.7-0.4,4-0.6c1.6-0.2,3.2-0.4,4.7-0.7c-9.5,6.3-18.8,13.2-27.5,20.6c-2.7,0-5.3-0.2-8.2-0.7c-0.4-1.7-1.3-3.1-2-3.8
				c-1.9-1.9-4.4-2.8-6.5-2.5c-2.4,0.3-4.6,2-5.8,4.3l-0.1,0.3c-0.7,2.6,0,5.5,1.8,7.3c1.5,1.5,3.7,1.6,4.6,1.6h1.4l0.4,0
				c1.2-0.3,3.1-0.8,4.5-1.9c1.2,0.2,2.4,0.4,3.7,0.5c-4,3.5-7.8,7.1-11.4,10.9c-1.2-0.2-2.5-0.6-4-1.1c-0.2-2.6-1.7-5-2.8-6.1
				c-2.5-2.5-6.1-3.2-9.3-1.8c-3.4,1.5-5.2,5.5-4,8.9c1.2,3.5,4.5,5.1,7.1,5.4l1.1,0c0.9,0,3.6-0.1,5.7-1.3c0.7,0.3,1.4,0.6,2.1,0.8
				c-1.5,1.6-3,3.3-4.5,5c-0.8-0.2-1.6-0.4-2.7-0.6l-0.3,0c-2.5,0-4.6,0.8-6,2.2c-0.9,0.9-1.9,2.5-1.9,5.5c0,1.6,0,2.7,0.7,4.2
				c0.7,1.3,1.4,2.8,3,3.6c0.4,0.2,1.6,0.7,3,0.7c1.7,0,3.1-0.5,4.2-1.5c0.5-0.3,0.9-0.7,1.2-1.1c0.3,1.1,0.8,2.1,1.6,2.9
				c1.4,1.7,3.2,2.6,5.5,2.6c0.7,0,1.5,0,2.4-0.5c2.1-1.1,3.6-3.2,4-5.5l0-0.3c0-2.1-0.7-4.2-2.1-5.9l-0.4-0.4
				c-0.6-0.6-1.5-1.6-2.9-2.3c-0.2-1.7-0.2-3.4-0.2-5c1.8-2,3.7-3.8,5.6-5.6c0.2-0.1,0.3-0.3,0.5-0.4c0.1,0.5,0.1,1,0.3,1.5
				c-2.3,2.7-2.1,7-0.8,10.1c0.6,1.2,1.3,2.4,2.6,3.2c1.1,0.8,2.3,1.1,3.5,1.1h0.9l0.3,0c2-0.4,3.6-1.9,4.3-4.2c1.1-2.9,0.9-6-0.4-8
				c-1-1.7-3.2-3.3-5.2-3.8c-0.2-1.6,0-3.2,0.2-4.8c4.8-4.5,8.8-8.1,12.6-11.1c-0.3,1.8-0.5,3.4-0.5,5.1c-1.7,1.2-2.3,3.6-2.8,5.8
				l-0.1,1c-0.5,1.7-0.6,3.4-0.3,5.2c0.4,2.2,1.5,4.3,3,5.4c1.4,0.9,2.8,1.4,4,1.4c1,0,1.7-0.3,2.3-0.5l0.7-0.3
				c1.8-0.9,2.8-3,3.1-4.6c0.2-1.2,0.2-2.2,0.1-3.1c0-0.3-0.1-0.7-0.1-1l0-0.3c-0.7-3.3-1.6-7-4-8.8c0.1-3.9,0.9-7.6,2.3-10.8
				c15.6-12,32.8-22.5,51-31.1c-2,2.2-4,4.6-6.1,7.4c-8.3,4.6-14,11.8-17.6,16.9c-6.6,9-10.7,20-11.6,31.2c0,1.6,0,4.2,2,5.8
				c1,1,2.3,1,3.1,1c1.4,0,2.6-0.5,3-0.7l0.2-0.1c1.5-1.1,2.4-2.1,3-3.4c4.8-7.5,8.4-16,11.4-23.4c0.4-1,0.9-2.1,1.4-3.1
				c0.5-1.1,1-2.2,1.5-3.3c0.2-0.5,0.4-1,0.6-1.4c0.7-1.6,1.4-3.3,2.2-4.8l0.8-2c1.2-2.9,2.4-6,4.1-9c7.2-10,12.8-14,23.4-19.8
				c12.9-4.6,26.4-8.4,40.1-11.2c-0.6,0.4-1.2,0.9-1.8,1.4c-9.8,3.7-17.3,8.3-22.9,13.9c-7.8,7.8-12.1,17.9-11.8,27.6
				c0,2.3,1.1,4,2.9,4.4l0.1,0c0.2,0.1,0.6,0.3,1.1,0.3c1.6,0,2.9-1.1,3.8-2c6-6.6,11.2-14,16.4-21.7c4.2-6.2,8.6-12.6,13.4-18.4
				c5.3-4.2,10.5-7.1,16.1-8.9c10.3-1.3,21-2,32.7-2c9.5,0,20.2,0.7,32.8,2c5,1.3,10.2,4.2,16,8.9c4.8,5.7,9.2,12.2,13.4,18.4
				c5.2,7.7,10.3,15.1,16.4,21.8c1.3,1.3,2.5,1.9,3.7,1.9c0.3,0,1,0,1.6-0.5c1.8-0.7,2.2-2.7,2.5-4l0-0.2
				c0.6-9.8-3.7-19.9-11.8-27.7c-6-5.8-13.7-10.4-22.9-13.9c-1-0.8-2-1.6-3-2.3c13.6,2.5,27.5,6.4,42.4,11.7
				c10.5,5.7,16.2,9.8,23.3,19.7c0.4,0.9,0.8,1.7,1.2,2.6c1.3,2.8,2.5,5.4,3.6,8.3c0.2,0.5,0.4,0.9,0.6,1.4c0.7,1.7,1.4,3.4,2.3,5.1
				c0.4,1,0.9,2.1,1.4,3.2c0.5,1.1,1,2.2,1.4,3.2l1,2.2c3.2,7.2,6.4,14.6,10.4,21.1c0.6,1.2,1.6,2.7,3.2,3.6
				c1.2,0.8,2.2,0.8,3.1,0.8c1.2,0,2.1-0.4,2.7-0.7l0.3-0.2c2-1.6,2-4.3,2-6c-0.9-11-5-22-11.6-31.1c-4.7-6.2-10-12.6-17.6-16.8
				c-2.2-2.9-4.2-5.4-6.2-7.6c17.7,8.2,34.9,18.7,51.2,31.3c1.4,3.5,2.2,7.2,2.3,10.8c-2.4,1.9-3.7,5.8-4,8.8
				c-0.3,1.1-0.3,2.8,0,4.4c0.3,1.7,1.3,3.3,2.9,4.4l0.2,0.1c0.4,0.2,1.6,0.7,3,0.7c1.5,0,2.7-0.4,4.1-1.5c1.4-1.1,2.5-3.1,2.9-5.3
				c0.3-1.6,0.1-3.2-0.2-4.8l0-0.7L539,220c-0.5-2.2-1.1-4.6-2.8-5.8c0-1.6-0.2-3.3-0.5-5c4.8,4,8.9,7.5,12.6,11
				c0.2,1.6,0.2,3.3,0.1,4.8c-2.3,0.6-4.4,2.4-5.2,3.8c-1.3,2.4-1.5,5.5-0.4,7.9c0.7,2.2,2.5,3.4,4,4.1l0.3,0.2h1.2
				c1.2,0,2.3-0.4,3.5-1.1c1.3-0.8,2-2.1,2.6-3.3c1.3-2.8,1.1-7.3-0.9-10c0.1-0.6,0.2-1.1,0.3-1.7c1.2,1.2,2.4,2.4,3.6,3.7
				c0.8,0.9,1.6,1.7,2.4,2.5c0,1.6,0,3.2-0.2,4.8c-1.2,0.7-2.2,1.8-2.8,2.5l-0.4,0.5c-1.3,1.7-2.1,3.8-2.1,5.9l0,0.2
				c0.4,2.7,2,4.8,4.1,5.6c0.9,0.4,1.7,0.4,2.3,0.4c2,0,3.8-0.8,5.4-2.5l0.2-0.2c0.6-0.9,1-1.8,1.3-2.8c0.4,0.4,0.8,0.8,1.2,1.2
				c1.4,0.9,2.8,1.4,4,1.4c1,0,1.7-0.3,2.3-0.5l0.7-0.3c1.5-0.8,2.7-2.3,3.1-3.8c0.4-1.3,0.7-2.6,0.7-4c0-1.9-0.6-3.7-1.8-5.3
				l-0.1-0.2c-1.7-1.7-3.9-2.5-6.1-2.2c-1.1,0-2.1,0.2-3,0.5c-0.9-1-1.8-2-2.7-2.9c-0.6-0.6-1.2-1.3-1.8-1.9
				c0.8-0.3,1.5-0.6,2.2-0.8c2.1,1.2,4.8,1.3,5.7,1.3h0.9l0.2,0c3.6-0.5,6.2-2.4,7.1-5.5C581,219.3,579,215.4,575.9,214z
				 M556.4,206.2c0.5-0.5,1.4-0.8,2.1-0.9c0.7,0.2,1.3,0.7,1.6,1.1c0.1,0.6-0.1,1.2-0.3,1.3c-0.6,0.4-1.3,0.5-2.1,0.3
				c-1-0.2-1.6-0.4-2.1-0.6C555.9,207.1,556.2,206.6,556.4,206.2z M555.5,189.6l14,0c1.1,0,2.4,0,3.4,0.2c0.6,0.2,1.1,0.6,1.3,1.1
				c0.4,0.9-0.8,1.9-1,2c-1.1,0.9-2.4,1.1-3.7,1.4l-0.2,0c-6.5,1.1-13.8,0-21.5-3.1c-1.3-0.5-2.6-1.2-3.9-1.9
				C547.8,189.3,551.6,189.4,555.5,189.6z M476.7,149.3c1-0.3,2-0.5,3-0.8l18.8-5.2c1.3-0.3,2.3-0.5,3.1-0.5
				c0.3,0.1,0.5,0.3,0.7,0.3c-0.2,0.3-0.6,0.9-1.8,1.4c-7.5,4.4-16.2,6.5-24.3,5.9c-1-0.1-1.9-0.2-2.9-0.3
				C474.5,149.9,475.6,149.6,476.7,149.3z M252.9,150.7l-0.1,0c-8.2,0.6-16.8-1.5-24.3-5.9c-1.4-0.9-1.8-1.4-1.9-1.6
				c0.1-0.1,0.3-0.3,0.4-0.3h0.9c0.7,0,1.8,0.3,2.8,0.5l18.9,5.2c1.4,0.3,2.8,0.7,4.2,1.1c0.8,0.2,1.7,0.4,2.5,0.7
				C255.1,150.7,254,150.7,252.9,150.7z M181,191.3c-6.9,2.9-14.3,4-21.4,3.1l-0.4-0.1c-1.2-0.2-2.7-0.5-3.4-1.2l-0.2-0.1
				c-0.7-0.5-1-1.3-0.9-2.1c0.2-0.4,0.6-0.8,1.2-0.9c1-0.2,2.3-0.2,3.4-0.2h24.9C183.1,190.2,182,190.8,181,191.3z M171.3,208.4
				l-0.2,0c-0.7,0.2-1.4,0-2-0.4c-0.2-0.1-0.4-0.8-0.2-1.5c0.1-0.4,0.6-0.9,1.4-0.9h0.3c0.6,0,1.3,0.3,1.6,0.8l0.2,0.3l0.3,0.2
				c0.2,0.1,0.5,0.5,0.7,0.9C172.9,207.9,172.2,208.2,171.3,208.4z M156.4,222.9c-0.8,0-2.3-0.8-2.6-1.6c-0.2-0.5,0.4-1.8,1.3-2.4
				c0.9-0.3,2.4-0.1,3,0.7l0.2,0.2c1,0.8,1.6,1.9,1.6,2.6C159.2,222.6,157.8,222.9,156.4,222.9z M158.9,240.5
				c-0.2,1-0.8,1.8-1.4,2.2c-0.5,0.4-1.3,0.4-1.5,0.3l-0.2-0.1c-0.1-0.1-0.4-0.3-0.6-0.7c0-0.1,0-0.3,0-0.5c-0.1-0.5-0.1-0.9,0-1.5
				l0-0.4c0-1.4,0.3-1.7,0.4-1.8c0.5-0.5,1-0.7,1.5-0.7h0.3c0.7,0,1.2,0.1,1.4,0.2c0,0,0,0,0,0C159.2,238,159.2,238.7,158.9,240.5z
				 M169.9,244.8c0,0.5-0.5,1.1-0.7,1.2L169,246c-0.4,0.2-1.1-0.1-1.5-0.7c-0.6-0.8-0.7-1.8-0.4-2.9c0.2-0.4,0.4-1,0.6-1.5
				c0.5,0.3,1,0.8,1.3,1.3v0C169.7,243,169.9,243.8,169.9,244.8z M182,231.9c0.8,1.3,0.4,2.6-0.1,3.5c-0.2,0.5-0.4,0.7-0.5,0.9
				c-0.3,0-0.4,0-0.5-0.1l-0.2-0.2l-0.2-0.1c-0.1,0-0.4-0.4-0.6-0.8l-0.2-0.3c-0.6-1.5-0.3-3.6,0.2-4.4
				C180.7,230.6,181.7,231.4,182,231.9z M197.5,226.6c-0.2,0.6-0.4,1-0.6,1.3c-0.2,0.1-0.7-0.1-1.1-0.3c-0.4-0.3-0.8-1-0.8-1.6
				c0-1.1,0-2.2,0.3-3.5l0-0.7c0.2-1,0.4-1.6,0.6-2c0.4,0.6,1,2,1.6,4.8l0,0.2C197.7,225.1,197.8,225.6,197.5,226.6z M239.9,192.1
				L239.9,192.1c-0.4,1-0.9,2.2-1.3,3.3c-0.4,1.1-0.9,2.2-1.3,3.2c-0.3,0.7-0.6,1.5-1,2.2c-0.7,1.5-1.4,3-1.9,4.5
				c-3.4,7.7-6.9,15.6-11.2,22.8c-0.5,0.7-0.9,1.4-1.5,1.8c-0.1,0-0.1,0.1-0.2,0.1c-0.1-0.4-0.1-1-0.1-1.2
				c0.8-10.2,4.5-20,10.4-28.3c2.5-3.4,5.4-7.2,9-10.4C240.6,190.6,240.2,191.4,239.9,192.1z M297.7,173.8
				c-4.7,7-9.4,13.8-14.6,19.7c0.3-7.7,3.9-15.4,10-21.5c3.1-3.1,7-5.9,11.7-8.5C302.4,166.9,300,170.4,297.7,173.8z M435.6,171.7
				L435.6,171.7c6.4,6.1,9.9,13.9,10,21.6c-4.9-5.4-9.2-11.7-13.3-17.8l-1.3-2c-2.3-3.5-4.8-7-7.4-10.5
				C428.6,165.8,432.5,168.6,435.6,171.7z M496.9,200c6.2,8.6,9.9,18.6,10.4,28.2c0,0.3,0,0.9-0.1,1.3c-0.1,0-0.2,0-0.3,0
				c-0.6-0.4-1-1.1-1.5-1.8c-4.3-7.2-7.8-15.1-11.2-22.7c-0.5-1.2-1-2.4-1.5-3.5c-0.5-1.1-1-2.1-1.4-3.3c-0.4-1-0.9-2.1-1.3-3.2
				c-0.4-1.1-0.9-2.2-1.3-3.2c-0.3-0.6-0.5-1.2-0.8-1.9C491.5,193.2,494.3,196.7,496.9,200z M533.7,224.9c-0.2,0.9-0.6,1.7-0.9,2.1
				c-0.4,0.2-0.9,0.3-1,0.2l-0.1-0.1c-0.1-0.1-0.3-0.4-0.3-0.7v-0.2l-0.1-0.2c-0.1-0.3,0-0.9,0-1.4c0-0.2,0-0.4,0.1-0.6
				c0.2-0.4,0.4-0.9,0.6-1.5c0.3-0.8,0.7-1.9,1.2-2.8c0.1,0.4,0.3,0.9,0.4,1.5v0.4l0,0.3C533.6,222.8,533.9,224.3,533.7,224.9z
				 M549.2,234.9l0,0.1c-0.2,0.6-0.5,0.8-0.7,0.9c-0.2,0.1-0.5,0.3-0.7,0.3c-0.2-0.2-0.4-0.5-0.5-0.6c-0.1-0.1-0.1-0.2-0.2-0.2
				c-0.4-1.2-0.4-2.5,0-3.5c0.4-0.5,1.2-1.1,1.8-1.4C549.6,231.2,549.8,233.4,549.2,234.9z M561.5,245.6c-0.5,0.7-1.3,0.7-1.8,0.6
				c-0.2-0.1-0.7-0.6-0.7-1.2c0-1,0.3-1.8,0.9-2.6l0.1-0.1c0.4-0.6,0.9-1.1,1.3-1.3c0.2,0.3,0.4,0.9,0.5,1.4
				C562.1,243.8,562,245,561.5,245.6z M569.8,237.9c0.4-0.2,0.9-0.3,1.6-0.3c0.8,0,1.4,0.2,1.6,0.5l0.2,0.2c0.1,0.1,0.4,0.4,0.4,1.8
				c0,1.2,0,1.5-0.2,2.1c-0.2,0.6-0.6,0.8-0.7,0.9l-0.2,0.1c-0.2,0.1-0.7,0.1-1.5-0.3c-0.5-0.4-0.9-1.3-1.3-2.2V237.9z M574.9,221.3
				c-0.4,1.2-1.6,1.6-2.6,1.6l-0.2,0c-1.3,0.2-2.6-0.1-3.2-0.3c0-0.9,0.6-2.3,1.2-2.7l0.2-0.1c0.6-0.6,1.6-1,2.4-1
				c0.5,0,0.8,0,0.9,0.1C574.5,219.3,575.3,220.4,574.9,221.3z M558.1,612.8c1.4-0.2,2.9,0,4.6,0.7c0.1,2.6,1.7,5.1,2.8,6.2
				c1.6,1.6,3.7,2.5,6,2.5c1.1,0,2.2-0.4,3.2-0.7c3.3-1.5,5.2-5.5,4-8.9c-1.2-3.5-4.5-5.1-7.2-5.4c-0.5,0-4.2-0.2-6.7,1.3
				c-0.7-0.3-1.4-0.5-2.1-0.8c1.5-1.6,3-3.3,4.5-5c0.8,0.2,1.6,0.4,2.7,0.6l0.9,0c2.3,0,4.4-0.8,5.5-2.3c0.9-0.9,1.8-2.5,1.8-5.4
				c0-1.6,0-2.7-0.7-4.2c-0.7-1.3-1.4-2.8-3-3.6c-2.2-1.1-4.8-0.8-7.1,0.7c-0.3,0.3-0.7,0.6-1,0.9c-0.3-1.1-0.8-2-1.5-2.7
				c-1.9-2.3-5.3-3.3-8-2.1c-2.1,1.1-3.6,3.2-4,5.5l0,0.3c0,2.1,0.7,4.2,2.1,5.9l0.4,0.4c0.6,0.6,1.5,1.6,2.9,2.3
				c0.2,1.5,0.2,3.2,0.2,4.7c-1.8,1.9-3.7,3.8-5.6,5.6c-0.2,0.2-0.3,0.3-0.5,0.5c-0.1-0.5-0.1-1-0.3-1.5c2.3-2.7,2.1-7,0.8-10.1
				c-0.6-1.1-1.3-2.4-2.5-3.2c-1.9-1.4-3.7-1.4-4.7-1.2c-2,0.4-3.6,1.9-4.3,4.2c-1.1,2.9-0.9,6,0.4,8c1,1.7,3.2,3.3,5.2,3.8
				c0.2,1.6,0,3.1-0.2,4.8c-4.8,4.5-8.8,8.1-12.6,11.1c0.3-1.8,0.5-3.4,0.5-5.1c1.7-1.2,2.3-3.6,2.8-5.8l0.1-1
				c0.5-1.7,0.6-3.4,0.3-5.2c-0.4-2.2-1.5-4.3-2.9-5.3c-2-1.6-5-1.9-6.9-0.8c-1.8,0.9-2.8,3-3.1,4.6c-0.2,1.2-0.2,2.2-0.1,3.1
				c0,0.3,0.1,0.7,0.1,1l0,0.3c0.7,3.3,1.6,7,4,8.8c-0.1,3.8-0.9,7.6-2.3,11.1c-15.6,12-32.8,22.5-51,31.1c2-2.2,4-4.6,6.1-7.4
				c8.3-4.6,14-11.8,17.6-16.9c6.6-9,10.7-20,11.6-31.2c0-1.6,0-4.2-2.1-5.9c-1.7-1.3-4.4-1.3-6.4-0.1l-0.1,0.1
				c-1.2,0.9-1.9,1.8-2.6,2.8l-0.4,0.5c-4.8,7.5-8.4,16.1-11.4,23.5c-0.4,1-0.9,2.1-1.4,3.1c-0.5,1.1-1,2.2-1.5,3.3
				c-1,2.6-1.8,4.4-2.8,6.2l-0.8,2c-1.2,2.9-2.4,6-4.1,9c-7.2,10-12.8,14-23.4,19.8c-13.5,4.8-27.6,8.7-42,11.6
				c0.9-0.7,1.8-1.4,2.6-2.1c9.8-3.7,17.2-8.3,22.9-13.9c7.8-7.8,12.1-17.9,11.8-27.6c0-2.2-1-3.9-2.7-4.4c-1.2-0.5-3-0.6-5.2,1.6
				c-6,6.6-11.2,14-16.4,21.7c-4.2,6.2-8.6,12.6-13.4,18.4c-5.3,4.2-10.5,7.1-16.1,8.9c-10.3,1.3-21,2-32.7,2
				c-9.5,0-20.3-0.7-32.8-2c-4.9-1.2-10.5-4.1-15.7-8.3c-4.8-5.7-9.2-12.1-13.4-18.4c-5.2-7.7-10.3-15.1-16.4-21.8
				c-2.2-2.2-4-2-5.2-1.5c-1.3,0.5-2.2,1.9-2.7,4l0,0.2c-0.6,9.5,3.7,19.6,11.8,27.7c6,5.8,13.7,10.4,22.9,13.9c1,0.8,2,1.6,3,2.3
				c-13.6-2.5-27.5-6.4-42.4-11.7c-10.6-5.7-16.2-9.8-23.3-19.7c-0.4-0.9-0.8-1.7-1.2-2.6c-1.3-2.8-2.5-5.4-3.6-8.3
				c-0.2-0.5-0.4-0.9-0.6-1.4c-0.7-1.7-1.4-3.4-2.3-5.1c-0.4-1-0.9-2.1-1.4-3.1c-0.5-1.1-1-2.2-1.4-3.2l-1-2.2
				c-3.2-7.2-6.4-14.6-10.4-21.2c-0.6-1.2-1.6-2.8-3.2-3.5c-2-1.2-4.3-1.2-6.2,0l-0.2,0.1c-2,1.6-2,4.3-2,6c0.9,11,5,22,11.6,31.1
				c4.7,6.2,10,12.6,17.6,16.8c2.2,2.9,4.2,5.4,6.2,7.6c-17.7-8.2-34.9-18.7-51.2-31.3c-1.5-3.5-2.2-7.3-2.3-11.1
				c2.4-1.9,3.7-5.8,4-8.8c0.3-1.1,0.3-2.8,0-4.4c-0.3-1.7-1.3-3.3-2.9-4.4l-0.1-0.1c-2-1.2-5-0.9-6.9,0.7c-1.4,1.1-2.5,3.1-2.9,5.3
				c-0.3,1.6-0.1,3.2,0.2,4.8l0,0.7l0.1,0.7c0.5,2.2,1.1,4.6,2.8,5.8c0,1.6,0.2,3.3,0.5,5c-4.8-4-8.9-7.5-12.6-11
				c-0.2-1.6-0.2-3.3-0.1-4.8c2.3-0.6,4.4-2.4,5.2-3.8c1.3-2.4,1.5-5.4,0.4-7.9c-0.7-2.2-2.5-3.4-4-4.1l-0.3-0.1
				c-1.7-0.4-3.6,0-4.8,1.2c-1.2,0.8-1.9,2.1-2.5,3.2c-1.3,2.8-1.1,7.3,0.9,10c-0.1,0.6-0.2,1.1-0.3,1.7c-1.2-1.2-2.4-2.5-3.6-3.7
				c-0.8-0.8-1.6-1.7-2.4-2.5c0-1.6,0-3.2,0.2-4.7c1.4-0.8,2.6-2,3.1-2.5l0.1-0.1c1.3-1.7,2.1-3.8,2.1-5.9l0-0.2
				c-0.4-2.7-2-4.9-4.1-5.6c-2.6-1.1-5.9-0.2-7.9,2.2l-0.1,0.1c-0.6,0.9-1,1.9-1.3,2.9c-0.4-0.5-0.9-0.9-1.5-1.3
				c-2.3-1.5-4.9-1.8-7.1-0.7c-1.7,0.9-2.7,2.2-3.1,3.9c-0.4,1.3-0.6,2.6-0.6,3.9c0,2,0.6,3.7,1.8,5.3c1.1,1.5,3.2,2.4,5.6,2.4h0.6
				c1.2,0,2.2-0.2,3.1-0.5c0.9,1,1.8,2,2.7,2.9c0.6,0.6,1.2,1.3,1.8,1.9c-0.8,0.3-1.5,0.6-2.2,0.8c-1.9-1.1-4.5-1.3-6.6-1.3l-0.2,0
				c-3.6,0.4-6.2,2.4-7.1,5.4c-1.1,3.4,0.7,7.4,4.2,8.9c0.9,0.3,2,0.7,3.1,0.7c2.3,0,4.4-0.9,6-2.5c1.4-1.4,2.7-3.8,2.8-6.1
				c1.4-0.5,2.9-1,3.9-1.2c3.6,3.8,7.5,7.5,11.4,11c-1.3,0.1-2.5,0.3-3.7,0.6c-1.4-1-3.1-1.5-4.5-1.9c-2.3-0.4-4.7,0.1-6,1.1
				c-2.3,1.5-3.2,4.9-2,7.6c0.8,2.6,3.3,4.5,6.1,4.5h0.6c2,0,4.2-0.9,5.7-2.5l0.2-0.2c0.5-0.8,1.4-2.1,1.8-3.6
				c2.6-0.4,5.4-0.6,8.2-0.7c9.6,8.1,18.7,14.9,27.5,20.7c-2.9-0.5-5.8-0.9-8.7-1.4c-1.8-0.3-3.6-0.5-5.4-0.7
				c-1.7-0.2-3.4-0.4-5.1-0.7l-0.9-0.4c-3.5-2.3-7.1-4.7-11.2-6.2c-8.5-3.3-16.9-4.5-24.3-3.3c-1.8,0.3-4.4,0.9-6.4,2.3
				c-2.6,1.9-3.7,5.3-2.6,7.9c0.7,1.8,2.5,3.3,4.6,4.1c1.7,0.7,3.7,0.7,4.9,0.7h34.4c3.7,0.6,7.5,1.2,10.9,1.4
				c8.6,1.1,17.5,2.2,25,5.4c17.5,9.9,35.8,17.8,54.5,23.5c-5,0.2-10,0.6-15,0.9c-5-1.8-10.3-2.9-15.8-3.2
				c-9.4-0.6-19.1,1.8-27.2,6.6c-4.3,2.4-4.5,5.1-4.3,6.5c0.4,2.9,2.8,4.7,5,5.1l1.4,0c1.4,0,3-0.3,3.9-0.6l18.9-5.2
				c5.9-1.7,12-3.4,17.9-4c12.7-0.9,25.9-1.7,35.9-0.6c19.5,4.5,39.4,6.7,59.1,6.7h1.2c19.7,0,39.6-2.3,59.1-6.7
				c10.2-1.2,23.8-0.2,35.8,0.6c5.4,0.8,11.3,2.1,18.1,4l18.9,5.2c1.2,0.3,2.5,0.6,3.9,0.6h1.3l0.1,0c2.4-0.4,5-2.5,5.1-5.2
				c0.2-1.6-0.4-4-4.2-6.4c-8.1-4.8-18-7.2-27.2-6.6c-5.4,0.3-11,1.4-15.8,3.2c-5.1-0.3-10.2-0.7-15.3-0.9
				c19.1-5.9,37.5-13.8,54.8-23.5c7.6-3.2,16.4-4.3,25.1-5.4c1.8-0.3,3.7-0.5,5.6-0.8c1.7-0.2,3.5-0.4,5.2-0.7h34.4
				c1.5,0,3.2,0,4.8-0.7c2.2-0.7,4-2.3,4.7-4.1c1.2-2.7,0.1-6.1-2.5-7.9c-1.9-1.6-4.4-2-6.2-2.3L568,637c-7.4-1.2-15.8-0.1-24.3,3.3
				c-3.4,1.3-7.1,3.4-11,6.2l-0.8,0.4l-1.3,0.2c-3.2,0.5-6.1,1-9.2,1.2c-1.4,0.2-2.7,0.4-4,0.6c-1.6,0.2-3.1,0.4-4.7,0.7
				c9.5-6.3,18.8-13.2,27.5-20.6c2.7,0,5.3,0.2,8.2,0.7c0.3,1.4,1.1,2.5,1.6,3.3l0.3,0.4c1.3,1.7,3.4,2.6,5.8,2.6h0.6l0.2,0
				c2.4-0.3,4.6-2,5.8-4.3l0.1-0.3c0.7-2.6,0-5.5-1.8-7.3l-0.2-0.1c-1.5-1.1-4-1.9-6.2-1.1c-1.2,0.3-3.1,0.8-4.5,1.9
				c-1.2-0.2-2.4-0.4-3.7-0.5C550.5,620.5,554.4,616.7,558.1,612.8z M570.6,613h0.9c0.8,0,2.3,0.8,2.6,1.6c0.2,0.5-0.4,1.8-1.3,2.4
				c-0.9,0.3-2.4,0.1-3-0.7l-0.2-0.2c-1-0.8-1.6-2-1.6-2.6C568.5,613.2,569.6,613,570.6,613z M568.9,595.4c0.2-1,0.8-1.8,1.4-2.2
				c0.5-0.4,1.3-0.4,1.5-0.3l0.2,0.1c0.1,0.1,0.5,0.3,0.7,0.9l0.1,0.2c0.1,0.3,0.1,1.1,0.1,1.9c0,1.4-0.3,1.7-0.4,1.8
				c-0.3,0.3-1.1,0.7-1.8,0.7c-0.7,0-1.1-0.1-1.4-0.1l-0.2-0.3C568.8,597.7,568.7,597.3,568.9,595.4z M557.9,591.1
				c0-0.5,0.4-1,0.6-1.1c0.2-0.1,0.4-0.1,0.6-0.2c0.4,0.1,0.9,0.3,1.3,0.6c0.6,0.8,0.7,1.7,0.3,2.8c-0.2,0.5-0.5,1.2-0.7,1.7
				c-0.4-0.2-0.9-0.6-1.3-1.1C558.2,592.8,557.9,592,557.9,591.1z M488,643.8L488,643.8c0.4-1,0.9-2.1,1.3-3.2
				c0.4-1.1,0.9-2.2,1.3-3.2c0.4-1,0.9-2.1,1.4-3.2c0.5-1.1,1-2.2,1.5-3.2c3.4-7.7,6.9-15.6,11.2-22.8c0.5-0.8,1-1.5,1.6-1.9l0,0
				c0,0,0.1,0,0.1,0c0.1,0.4,0.1,1,0.1,1.2c-0.9,10.2-4.5,20-10.4,28.3c-2.5,3.5-5.5,7.3-9.2,10.6
				C487.2,645.5,487.6,644.7,488,643.8z M430.2,662c4.6-6.9,9.3-13.5,14.2-19.3c-0.4,7.6-4,15.1-10,21.1c-3.1,3.1-6.8,5.8-11.5,8.4
				C425.3,669.1,427.7,665.7,430.2,662z M292.3,664.2L292.3,664.2c-6.3-6-9.8-13.6-10-21.3c4.8,5.4,8.9,11.5,13,17.4l1.4,2
				c2.3,3.4,4.7,6.9,7.2,10.3C299,669.9,295.3,667.2,292.3,664.2z M231,635.6L231,635.6c-6.2-8.6-9.9-18.6-10.4-28.2
				c0-0.3,0-0.9,0.1-1.3c0.1,0,0.2,0.1,0.4,0.1c0.5,0.4,0.9,1,1.3,1.7c4.3,7.2,7.8,15.1,11.2,22.8c0.4,1,1,2.1,1.5,3.3
				c0.5,1.1,1,2.1,1.4,3.1c0.4,1,0.9,2.1,1.3,3.2c0.4,1.1,0.9,2.2,1.3,3.3c0.4,0.8,0.7,1.6,1,2.4C236.4,642.7,233.4,639,231,635.6z
				 M158,598c-0.4,0.2-0.9,0.3-1.6,0.3c-0.8,0-1.4-0.2-1.6-0.5l-0.2-0.2c-0.1-0.1-0.4-0.4-0.4-1.8c0-1.2,0-1.5,0.2-2.1
				c0.2-0.6,0.6-0.8,0.7-0.9l0.2-0.1l0,0c0.1,0,0.2,0,0.2,0c0.2,0,0.7,0.1,1.2,0.4c0.5,0.4,0.9,1.3,1.3,2.2V598z M157.5,616.2
				c-1,1-2.4,1.1-3.2,0.7c-0.7-0.3-1.5-1.5-1.1-2.4c0.4-1.2,1.6-1.6,2.6-1.6h0.9c1,0,1.9,0.2,2.4,0.3
				C158.8,614.1,158.3,615.2,157.5,616.2z M166.6,594.8c-0.2-0.3-0.4-0.9-0.5-1.4c-0.3-1.4-0.2-2.5,0.3-3.1c0.4-0.5,0.9-0.7,1.4-0.7
				c0.1,0,0.3,0,0.4,0c0.2,0.1,0.7,0.6,0.7,1.2c0,1-0.3,1.8-0.9,2.6l-0.1,0.1C167.5,594.1,166.9,594.6,166.6,594.8z M171.4,629.3
				c-0.5,0.5-1.4,0.8-2.1,0.9c-0.7-0.2-1.3-0.7-1.6-1.1c-0.1-0.6,0.1-1.2,0.3-1.3l0.2-0.2c0.1-0.1,0.8-0.1,1.2-0.1h0.7
				c0.9,0.2,1.5,0.4,1.9,0.5C171.9,628.5,171.7,628.9,171.4,629.3z M178.7,601l0-0.1c0.2-0.6,0.6-0.8,0.7-0.9l0.4-0.3
				c0.1,0,0.2-0.1,0.3-0.1c0.2,0.2,0.4,0.5,0.6,0.7c0.1,0.1,0.1,0.2,0.2,0.2c0.4,1.2,0.4,2.5,0,3.5c-0.4,0.5-1.2,1.1-1.8,1.4
				C178.3,604.7,178,602.5,178.7,601z M196.4,611.2c0,0.3-0.1,0.6-0.1,0.8c0,0.1-0.1,0.3-0.1,0.5c-0.2,0.9-0.8,2.8-1.5,4.1
				c-0.1-0.4-0.3-1-0.5-1.8l-0.2-1.5c-0.2-1-0.3-1.9-0.2-2.3c0.2-0.9,0.6-1.7,0.9-2.1c0.4-0.2,0.9-0.3,1-0.2l0.1,0.1
				c0.1,0.1,0.3,0.4,0.3,0.7v0.3l0.1,0.2C196.5,610.2,196.4,610.8,196.4,611.2z M172.4,646.3l-14,0c-1.1,0-2.4,0-3.4-0.2
				c-0.6-0.2-1.1-0.6-1.3-1.1c-0.4-0.9,0.8-1.9,1-2c1.1-0.9,2.4-1.1,3.7-1.4l0.2,0c1.7-0.3,3.4-0.4,5.2-0.4c5.1,0,10.6,1.2,16.3,3.5
				c1.3,0.5,2.6,1.2,3.9,1.9C180,646.5,176.3,646.5,172.4,646.3z M248.1,687.3l-18.8,5.2c-1.3,0.3-2.3,0.5-3.1,0.5
				c-0.3-0.1-0.5-0.3-0.7-0.3c0.2-0.3,0.6-0.9,1.8-1.4c7.5-4.4,16.2-6.5,24.3-5.9c0.9,0.1,1.7,0.1,2.5,0.2
				C252.2,686.1,250.2,686.7,248.1,687.3z M475.1,684.8c8.2-0.5,16.8,1.6,24.2,5.9c1.4,0.9,1.8,1.4,1.9,1.6
				c-0.1,0.1-0.3,0.3-0.4,0.3l-0.4,0c-0.5,0.1-1.5-0.1-2.2-0.4c-0.3-0.1-0.6-0.2-0.8-0.2l-18.9-5.2c-1.4-0.3-2.8-0.7-4.2-1.1
				c-0.7-0.2-1.4-0.4-2.1-0.5C473.2,685,474.1,684.9,475.1,684.8z M546.8,644.6L546.8,644.6c6.9-2.9,14.4-4,21.4-3.1l0.5,0.1
				c1.2,0.2,2.7,0.5,3.4,1.2l0.2,0.1c0.7,0.5,1,1.3,0.9,2.1c-0.2,0.4-0.6,0.8-1.2,0.9c-1,0.2-2.3,0.2-3.4,0.2h-25.3
				C544.6,645.6,545.7,645,546.8,644.6z M532.6,613.5l0,0.7c-0.2,0.9-0.4,1.6-0.6,2c-0.4-0.6-1-2-1.6-4.8l0-0.2
				c-0.2-0.6-0.2-1.2,0-1.9c0.2-0.6,0.4-1,0.6-1.3c0.1,0,0.1,0,0.2,0c0.2,0,0.6,0.2,0.9,0.4c0.4,0.3,0.7,1,0.7,1.6
				C532.8,611.1,532.8,612.2,532.6,613.5z M556.6,627.2l0.2,0c0.7-0.2,1.4,0,2,0.4c0.2,0.1,0.4,0.8,0.2,1.5
				c-0.1,0.4-0.6,0.9-1.4,0.9c-0.7,0-1.7-0.1-2.2-0.8l-0.1-0.2c-0.2-0.2-0.5-0.7-0.6-1.1C555,627.6,555.7,627.4,556.6,627.2z
				 M547.7,605.4c-0.7-0.3-1.6-1-1.9-1.5c-0.8-1.3-0.4-2.6,0.1-3.5c0.1-0.2,0.3-0.7,0.5-0.9l0.1,0c0.1,0,0.2,0.1,0.3,0.2
				c0.1,0.1,0.3,0.2,0.4,0.2c0.1,0.1,0.2,0.3,0.3,0.4c0.2,0.2,0.3,0.5,0.6,0.8C548.6,602.7,548.4,604.7,547.7,605.4z M141.1,260.7
				c-1.1-0.9-2.9-0.7-4,0.5l-0.2,0.2c-17.1,24.9-29.8,52.1-37.9,80.8h6.3c7.9-27.4,20.2-53.4,36.6-77.3c0.5-0.8,0.7-1.7,0.5-2.6
				C142,261.6,141.6,261.1,141.1,260.7z"/>
		</g>
	</g>
</g>
</svg>

