<?xml version="1.0" encoding="utf-8"?>
<!-- Generator: Adobe Illustrator 23.0.5, SVG Export Plug-In . SVG Version: 6.00 Build 0)  -->
<svg height="500" width="500" version="1.1" xmlns="http://www.w3.org/2000/svg" xmlns:xlink="http://www.w3.org/1999/xlink" x="0px" y="0px"
	 viewBox="0 0 720 720" style="enable-background:new 0 0 720 720;" xml:space="preserve">
<style type="text/css">
	.st0{fill:#050002;}
	.st1{fill-rule:evenodd;clip-rule:evenodd;fill:#050002;}
	.st2{fill-rule:evenodd;clip-rule:evenodd;}
	.st3{fill:#221F1F;}
	.st4{fill:#231F20;}
	.st5{fill:#070808;}
	.st6{fill:#211E1F;}
	.st7{fill:#161616;}
	.st8{fill:#131313;}
	.st9{fill:#21201F;}
	.st10{fill:#2C2929;}
</style>
<g>
	<g>
		<g>
			<g>
				<g>
					<path class="st0" d="M673.3,308.1c-4.5-8.7-10-15.4-14.2-17.5c-3-1.5-6.9-2.1-10.4-1.8c-5.3,0.5-4.6,0.9-7.5-3.6
						c-1.4-2.2-3.7-5.6-5.2-7.6c-2.5-3.4-2.6-3.6-2.5-5.8c0-3.8,0-3.8,4.5-0.8c4.8,3.2,8.4,4.9,12.7,6.3c6,1.9,10.6,1.7,11.1-0.4
						c0.3-1.1-0.1-1.8-3.4-6.2c-4.7-6.3-9.2-10.2-14.2-12.1c-1.6-0.6-3.3-0.9-6.7-1l-4.5-0.2l-0.1-3.3l-0.1-3.3l-5.7-3.3l-5.7-3.3
						v-4.5l1.1,0.3c0.6,0.2,1.7,0.5,2.5,0.8c0.8,0.3,2.2,0.6,3.2,0.8c1.2,0.2,1.8,0.5,2,0.9c0.2,0.8,5.9,6.4,7.9,7.9
						c2.2,1.6,5.5,3.2,8.7,4.1c4,1.1,11.3,0.9,14.1-0.3c2-0.9,2.8-2.2,2.5-3.7c-0.1-0.5-2.3-2.9-4.8-5.3c-5-4.8-7.8-6.5-11.9-7.4
						l-2.4-0.5l2.6-1.5c2.7-1.5,7.6-6,8-7.2c0.1-0.4,0-1.1-0.2-1.7c-0.5-1.2-2-1.7-7.2-2c-9.4-0.6-14.3,1.8-19.6,9.8
						c-1,1.5-2,2.8-2.2,3c-0.7,0.5-15.9-4.5-19-6.2l-2.3-1.3l1.3-0.4c1-0.3,1.7-0.2,2.7,0.2c1,0.5,2.7,0.6,6.8,0.6
						c6.5,0,9-0.7,14.3-4c4.4-2.7,10.2-8.2,10.2-9.7c0-2.4-0.9-2.5-10.7-1.8c-7.6,0.5-10.6,1-13.3,2.1c-1.3,0.5-2.4,0.9-2.5,0.8
						c-0.1-0.1-1-2.2-2-4.7c-1-2.5-2.3-5.5-2.9-6.7c-1.4-2.8-5.3-6.5-9.7-9.4c-1.9-1.2-3.5-2.3-3.5-2.4c0.1-0.1,1.3,0.2,2.8,0.5
						c1.8,0.4,4.7,0.6,8.7,0.7c5.2,0,6.3-0.1,8.8-0.9c7.5-2.4,12.7-6.3,12.7-9.6c0-2.2-1.2-2.8-10.8-4.7c-6.5-1.4-12.9-1.8-17-1.2
						c-5.6,0.8-15,6.3-15,8.8c0,0.6-0.7,0.6-7.4,0.4c-4.1-0.2-9.6-0.4-12.3-0.5l-4.8-0.2l0.2-1.1c0.2-1.6-1.2-2.4-4.5-2.4
						c-1.4,0-3.1,0.1-3.8,0.3c-0.9,0.2-0.7,0,0.8-0.9c1.6-0.9,2.5-1.2,4.1-1.2c7,0,20.1-6,26.2-11.9c5.4-5.3,9.3-12.8,7.5-14.6
						c-0.9-0.9-2.9-0.5-10.9,2.2c-12.3,4.1-17.3,6.9-21.2,11.8c-2.1,2.6-3.9,6.2-4.3,8.5c-0.3,1.9-0.8,2.5-0.6,0.7
						c0.2-2-1.1-2.7-4.5-2.4c-2.8,0.2-5.9,1.5-5.9,2.4c0,0.6-0.2,0.6-5.6,1.6c-1.9,0.3-5.2,1.1-7.3,1.6c-2.1,0.5-4.3,1-4.9,1
						c-0.5,0-3.9-0.8-7.4-1.8c-3.5-1-6.7-1.7-7-1.6c-0.3,0.1-0.7,0.6-0.8,1c-0.2,0.7-0.4,0.6-2.9-0.8c-4.3-2.4-25-14.7-29.2-17.4
						c-2.1-1.3-4.1-2.6-4.5-2.8c-0.4-0.2,2,0.6,5.2,1.8c3.3,1.3,7.6,2.8,9.6,3.5c4.3,1.4,13.6,3.3,18,3.7l3.1,0.3l2.5,2.6
						c5.8,6,11.4,6.7,27.1,3.6c6.2-1.2,9.1-1.9,9.4-2.4c1.3-1.7-0.3-5.3-3.3-7.7c-1.6-1.3-5-2.8-7.3-3.3l-1.2-0.3l3.5-3.5
						c3.7-3.7,6.4-7.9,6.4-10c0-0.9-0.9-2.2-1.5-2.2c-0.7,0-12.9,4.3-14.4,5.1c-4.3,2.2-8.8,5.9-13.7,11.2c-1.6,1.8-3.2,3.3-3.5,3.5
						c-1.4,0.8-9.7-0.3-17.9-2.3c-5.5-1.4-10.7-3.1-10.7-3.5c0-0.4,3.5-1.7,4.8-1.9c1.8-0.2,1.7-0.2,4.7,0.1
						c5.5,0.5,12.2-2.4,16.5-7.2c2-2.2,8.2-11.4,10.3-15.2c2.1-3.8,0.9-5.4-3.7-5c-3.1,0.3-7,1.5-10.8,3.4c-6.5,3.2-9.7,6.3-12.6,12
						c-1.1,2.1-2.8,5.1-3.9,6.6c-1.7,2.4-2.2,2.8-4,3.5c-1.1,0.4-3.1,1-4.3,1.2l-2.2,0.5l-5.6-2.4c-7-3-16.5-7.5-22.5-10.7
						c-4-2.2-7.9-4.5-23.9-14.9c-1.7-1.1-6.7-4.3-11.2-7.2c-4.5-2.9-12.1-7.8-17-10.9c-4.9-3.1-12.5-8-16.9-10.9l-8.1-5.2l-3,1.4
						l-3,1.5l-2.8-1.7l-1.8,1.1l-1.8,1.1l-3-1.6c-1.6-0.9-3.2-1.6-3.4-1.6c-0.2,0-5,2.7-10.6,6.1c-47.5,28.5-101.3,60.7-104,62.1
						c-3.3,1.8-12.5,6.5-50.1,25.8c-11.1,5.7-23.5,12.1-27.6,14.2c-17.9,9.2-32.7,16.8-47,24.2c-8.5,4.3-15.5,7.9-15.5,8
						c-0.1,0-0.3,2.9-0.4,6.3c-0.2,3.4-0.4,6.3-0.6,6.5c-0.1,0.1-2,1.3-4.2,2.6l-4,2.4l-0.1,85.8v10.2l0,6.8v3.8h2.8
						c0-1,0-2.3,0-3.8c0-1.9,0-4.2,0-6.8c0-1.2,0-2.5,0-3.8c-0.1-27.5-0.2-78.3-0.1-84.8c0.1-4,0.2-6.1,0.5-6.2
						c0.2-0.2,1.4-0.8,2.5-1.5l2.1-1.2l-0.2,11.3c-0.1,6.2-1.2,31-2.4,55c-0.5,10.2-1,19.8-1.4,27.4c-0.1,1.3-0.1,2.6-0.2,3.8
						c-0.1,2.5-0.2,4.8-0.3,6.8c-0.1,1.5-0.2,2.7-0.2,3.8h2.6c0.1-1.3,0.1-2.5,0.2-3.8c0.1-2.4,0.2-4.6,0.3-6.8
						c0.1-1.3,0.1-2.6,0.2-3.8c0.5-10.6,0.9-17.7,1-18.2c0,0,0.1,6.7,0.1,18.2v3.8c0,2.1,0,4.4,0,6.8c0,1.2,0,2.5,0,3.8h3
						c0-1.3,0-2.5,0-3.8v-6.8c0-1.3,0-2.5,0-3.8c0.1-53.5,0.2-92.4,0.3-93c0.2-1.4,0.5-1.7,2.3-2.7c1.1-0.6,48.4-27.9,105.2-60.6
						c56.7-32.7,105.1-60.5,107.6-61.9c2.4-1.3,11.3-5.9,19.7-10.2c8.4-4.3,18-9.2,21.4-11l6.2-3.2l5.5,3
						c3.1,1.7,11.9,6.4,19.6,10.6c7.7,4.2,20.3,11,27.9,15.1c7.6,4.1,16,8.9,18.5,10.6l4.6,3.1l0.7,2.7c0.4,1.5,0.9,4.9,1.1,7.6
						l0.5,4.9l-1.8,1.8c-7.9,8.2-10.9,17.8-10.9,35.1c0,6.4,0.1,8.4,0.7,10.4c1.1,3.8,2.7,5.1,4.8,3.7c1.4-1,9.3-13.1,11.5-17.6
						c3.3-6.9,4.1-9.7,4.3-15c0.2-5-0.2-7.3-1.8-11.4c-1-2.6-3.8-7.3-4.3-7.3c-0.2,0-0.4-2.3-0.5-5.1c-0.1-2.8-0.4-5.5-0.5-6.1
						c-0.2-0.8,0-0.7,2.2,1c3.6,2.8,14.1,13.3,17.2,17.3c1.5,1.9,4.8,6.3,7.4,9.8c4.1,5.6,4.6,6.4,4.1,6.8c-0.4,0.2-1.6,1.4-2.8,2.7
						c-1.2,1.3-3.7,3.9-5.5,5.9c-1.9,2-4.4,5.2-5.7,7c-2.9,4.4-8.4,15-9.7,19c-2.2,6.6-2.9,13-1.6,14.7c1.2,1.6,2.6,1.2,8.7-2.6
						c9.2-5.8,14-9.8,15.7-13.2l0.7-1.5l0.9,4c1.5,6.8,4.8,14.9,8.3,20.8c1.2,1.9,1.5,2.3,2.5,2.3c1.6,0,2.2-1.4,4.5-10.2
						c2.8-10.5,3.5-14.1,3.8-19.1c0.4-9.1-2.6-19.4-7.4-24.9c-0.8-0.9-3.4-3.1-5.8-4.9l-4.4-3.3l-5.7-8.1c-5-7.1-7.3-10.2-9.7-13.1
						c-0.7-0.8,1.9,0.8,10,6.5c3.1,2.2,8.1,5.6,11.2,7.7c7,4.8,15,10.8,19.5,14.8l3.4,3.1l2,7.4c3.5,13,5.3,17.3,9.2,22
						c4.2,5.1,13,11.1,15.4,10.5c1.6-0.4,1.7-1.7,0.5-5.1c-1.1-3.3-2.4-9.1-2.2-9.7c0.1-0.2,1.3,0.6,2.8,1.8
						c2.9,2.2,11.9,7.1,13.3,7.1c0.4,0,1-0.3,1.2-0.7c0.3-0.6,0.1-1.1-0.9-2.6c-0.7-1-2.5-4-4-6.5c-4.6-7.7-8.8-12.5-14.3-16.1
						c-2.7-1.8-5.2-2.9-10.6-4.8c-4.9-1.7-9-4.4-13.9-8.9c-5.1-4.8-8.6-7.6-14.5-11.9c-5.1-3.7-5.9-4.4-3.5-3
						c2.7,1.5,24,13.7,24.9,14.2c0.4,0.3,1.6,0.8,2.7,1.3c2.7,1.1,12.5,6.2,16.2,8.5c1.7,1,5.9,3.7,9.3,5.9l6.2,4.1l-1.4,0.3
						c-0.8,0.2-1.8,0.7-2.2,1.2c-3.6,3.8,3,8.4,9,6.2c0.8-0.3,1.6-0.6,1.7-0.6c0.2,0-0.2,9.9-0.5,13.7c-0.2,2.3-0.1,2.9,0.7,4.4
						c1.5,2.8,4.4,3,6,0.4c0.7-1.2,1.3-1.1,1.3,0.2c0,1.2,2.1,3.6,3.8,4.3c5,2.1,10.7-2.6,8.8-7.3c-0.5-1.3-0.5-1.5,0-1.3
						c0.3,0.1,4.4,2.7,9.1,5.7c7.8,5,8.7,5.7,10.8,8.3c3.8,4.8,5.3,7.2,5.3,8.6c0,0.7,0.4,2.8,0.9,4.5c1.4,4.9,1.4,5,0.7,5.3
						c-0.3,0.1-1.1,1.3-1.6,2.6c-0.6,1.3-1.9,4-2.8,6c-2.4,4.8-3.9,11.2-3.6,14.4c0.6,5.1,2.1,9.3,3.5,9.7c1.6,0.4,2.4-0.3,4.7-4
						c2.6-4.3,3.7-6.6,4.7-11c1.3-5.6,0.9-10.5-1.5-16c-1-2.4-2.5-8-2.2-8.3c0.3-0.3,5.4,8.3,8.2,13.8c2.9,5.7,6.4,13.7,6.4,14.7
						c0,0.3-0.2,0.7-0.5,0.8c-0.6,0.2-3.3,8.2-4.1,12c-1,4.7-0.3,11.8,1.8,18.1c1.3,4.1,2.2,5.7,3.6,6.9l1.2,1l0.1,26.3l0,3.8l0,6.8
						v3.8h2.6l0-3.8l0-6.8v-3.8l-0.1-28.7l1.6-2.6c6.7-10.9,7.4-17.5,2.9-26.6c-0.9-1.9-2.3-4.2-3.1-5.1l-1.4-1.6l0-17.2l1.8,1.9
						c1,1.1,3,3.3,4.4,5.1l2.6,3.1v3.8c0,1.8-1.3,30.9-3.1,68c-0.1,1.2-0.1,2.5-0.2,3.8c-0.1,2.2-0.2,4.5-0.3,6.8
						c-0.1,1.2-0.1,2.5-0.2,3.8h2.6c0.1-1.3,0.1-2.6,0.2-3.8c0.1-2.6,0.2-4.8,0.3-6.8c0.1-1.5,0.1-2.7,0.2-3.8
						c0.1-2.1,0.2-3.3,0.2-3.5c0,0.2,0,1.4,0,3.5c0,1.1,0,2.3,0,3.8c0,1.9,0,4.2,0,6.8c0,1.2,0,2.5,0,3.8h2.9c0-1.3,0-2.5,0-3.8
						c0-2.3,0-4.5,0-6.8v-3.8c0.1-40.3,0.2-67.4,0.3-67.4c0.2,0,1.9,2.2,3.9,5l3.5,5l0.2,9.5c0.3,13.9,1.2,17.3,5.6,21.9
						c2.6,2.7,6.7,5.6,8,5.6c1.1,0,1.9-0.9,2.2-2.2c1.2-6,1.6-14.7,0.9-17.6l-0.3-1.2l3.1,2c2.9,1.9,7,3.8,10.4,4.7
						c1.3,0.3,1.6,0.3,2.5-0.5l1-0.9L673.3,308.1z M650.4,242.6c2.8,1.5,9.2,7.9,8.3,8.4c-1.1,0.6-6.6,0.7-9.4,0.2
						c-3.4-0.7-5.9-1.8-8.8-3.8c-2.2-1.6-4.1-3.3-3.6-3.3c0.3,0,8,3,9.2,3.6c1,0.5,1.5,0.4,1.5-0.2c0-0.4-10-5.4-12.2-6.1l-1.5-0.5
						l2.1-0.5C639.9,239.4,646.3,240.5,650.4,242.6z M634.2,235.6c3.1-1.7,6.4-4.1,5.5-4.2c-0.3,0-2.1,0.7-4,1.5
						c-1.9,0.8-3.6,1.5-3.7,1.4c-0.3-0.3,4.2-4.3,5.7-5c2-0.9,7.6-1.3,10.7-0.8l1.9,0.3l-1.7,1.5c-2.3,2-8.7,5.1-13.2,6.3
						C629.9,238,629.8,237.9,634.2,235.6z M557.8,176.8c2.4-4.7,6.3-8.4,11.9-11.2c2.2-1.1,18.6-6.7,18.9-6.5
						c0.1,0.1-0.5,1.2-1.3,2.6c-4.2,7.2-12.8,13.1-23.7,16.3l-1.9,0.6l1.4-1.6c0.8-0.8,1.3-1.6,1.2-1.8c-0.1-0.1-0.9,0.2-1.7,0.7
						c-2.8,1.8-5.9,3.4-5.9,3.2C556.6,179.1,557.1,178,557.8,176.8z M525.8,157.1c3.5-2.7,8.7-5.2,13.9-6.7c2.4-0.7,4.5-1.2,4.6-1.2
						c0.1,0.1-0.2,0.9-0.7,1.8c-1.2,2.3-5.4,6.6-8.8,8.8c-2.5,1.6-3.1,1.9-4.8,1.9h-2l2.7-1.9c1.5-1,2.9-2.2,3.2-2.5
						c0.5-0.6,0.5-0.7-0.4-0.4c-1.5,0.4-10.1,4.8-11.4,5.8c-0.6,0.5-1.8,1.2-2.6,1.5c-0.8,0.3-1.6,0.6-1.7,0.6
						C517.2,164.8,523.4,158.9,525.8,157.1z M513.9,170.3c0.1-0.1,4.7-0.2,10.1-0.2c5.4,0,9.9,0,9.9-0.2c0-0.6-3.1-1.4-7.2-2
						c-2.5-0.3-4.6-0.7-4.6-0.7c-0.2-0.2,2.3-0.8,5.7-1.6c6.7-1.4,14.5,0.1,17.8,3.3c0.8,0.8,1.5,1.7,1.5,2c0,0.5-11.3,3.5-15.6,4.2
						c-5.3,0.7-10.1,0.1-13.9-1.7C515.5,172.5,513.5,170.8,513.9,170.3z M495.8,154.9c1.6-1.1,3.4-2.4,3.8-2.8
						c0.5-0.5,1.7-1.5,2.6-2.2c2.9-2.2,8.2-7.1,7.8-7.3c-0.6-0.2-1.8,0.6-5.8,3.6c-3.6,2.7-7.7,5.4-7.7,5c0-0.1,0.7-1.6,1.6-3.4
						c2.8-5.6,8.4-10,15.9-12.6c1.8-0.6,3.8-1.1,4.6-1.1h1.4l-1.2,2.2c-6.6,11.9-11.5,17.2-17.8,19.2c-1.3,0.4-3.7,0.9-5.3,1.1
						l-2.9,0.3L495.8,154.9z M104.1,247.2c-0.4,0-0.2-8.6,0.2-9c0.1-0.1,5.3-2.8,11.6-5.9c6.3-3.2,13.7-7,16.6-8.5
						c2.9-1.5,11.5-5.9,19.3-9.9c7.7-4,16.9-8.6,20.2-10.4c20.2-10.4,33.3-17.1,33.5-17.1c0,0.1-22.7,13.8-50.5,30.4
						C127.2,233.5,104.3,247.2,104.1,247.2z M192.2,197.9c-0.4,0.2-0.8,0.3-0.8,0.2c0-0.1,0.3-0.4,0.8-0.6c0.4-0.2,0.8-0.3,0.8-0.2
						C193,197.4,192.6,197.7,192.2,197.9z M228.3,177.1c-37.8,21.8-35.2,20.3-34.7,19.8c0.7-0.7,49.1-29.5,54-32.1
						c5.8-3.2,15.9-8.2,15.4-7.7C262.8,157.2,247.1,166.3,228.3,177.1z M340.6,112.3c-22.8,13.2-27.6,15.8-42.5,23.4
						c-11.4,5.9-15.4,7.8-14.7,7.2c0.2-0.2,14.9-9,32.6-19.6c17.7-10.6,34.1-20.4,36.4-21.8l4.2-2.5l1.4,0.8
						c0.8,0.4,1.5,0.9,1.7,1.1C359.7,101.1,351.2,106.2,340.6,112.3z M385.4,111.6c-0.7-0.1-16-8.7-16-9c0-0.2,0.1-0.4,0.2-0.3
						c0.5,0.2,15.2,8.7,15.6,9C385.4,111.5,385.5,111.7,385.4,111.6z M417.4,126.7c-0.2,0-44.8-25.7-45-26c-0.1-0.1,0.4-0.4,1.1-0.8
						c1-0.5,1.5-0.5,2.1-0.2c0.8,0.3,12.6,7.9,22.2,14.1c1.4,0.9,6.2,4,10.8,6.9c4.6,2.9,8.5,5.5,8.7,5.6
						C417.4,126.5,417.5,126.7,417.4,126.7z M447.3,170.3c0.2-1.3,0.4-2.4,0.5-2.4c0.2,0,0.7,1.3,1.2,3c1.3,4.2,1.3,10.9,0,15.1
						c-1.5,4.8-5.1,11.8-9.1,17.5c-2.1,3-3.9,5.5-4.1,5.7c-0.2,0.2-0.4-0.1-0.6-0.8c-0.2-0.6-0.3-1.3-0.4-1.6
						c-0.3-1.1-0.2-11.9,0.2-15.6c0.5-5,2-11.3,3.3-14.7c1.1-2.8,3.5-6.7,5.5-9l1.2-1.4l-0.2,1.7c-0.6,5.1-1.4,9.8-2.8,16.1
						c-1.8,8-1.7,7.4-1.2,7.4C442.4,191.3,446.5,177.7,447.3,170.3z M475.8,195.9c-0.6,6.2-0.1,5-6.2,14.7c-4,6.4-4.1,6.5-3.5,6.5
						c0.7,0,2.8-2.5,6.3-7.5c3-4.3,3-4.3,2.8,1.1c-0.3,6.2-2.3,9-10.7,14.7c-2.2,1.5-5.6,3.6-7.5,4.7l-3.4,2l0.2-2.7
						c0.4-4.2,2-9.1,5.1-15.3c3.2-6.5,5.3-10.1,7.9-13.5c1.7-2.3,9.2-10.4,9.5-10.4C476.3,190.4,476.1,192.9,475.8,195.9z
						 M479.3,197c0.3-3.4,0.6-6.5,0.6-6.9c0-0.8,0-0.8,0.6,0c1.2,1.5,3.5,6.6,4.3,9.3c0.4,1.5,1.3,5.4,1.8,8.7
						c1.2,6.7,1.9,7.4,1.5,1.4c-0.4-5.8-0.9-9.9-1.8-12.6c-1.7-5.5-2-6.4-3.6-9c-0.9-1.5-1.6-2.8-1.5-2.9c0.1-0.1,1.9,1.5,4,3.7
						c4.4,4.6,6.3,7.9,7.9,14.2c2.3,9.1,1.7,16-3,31.6c-1.1,3.7-2.1,6.6-2.2,6.6c-0.4,0-4.1-8.1-5.5-12.2
						C479,218.9,478.1,209.1,479.3,197z M522,197.9c6.1,2.4,11.8,6.9,16.2,12.6c1.7,2.3,6.5,10.4,6.5,11c0,0.1-0.1,0.2-0.3,0.2
						c-0.7,0-5.2-2.9-8.6-5.6c-2-1.6-3.9-2.9-4.2-3.1c-0.5-0.2-2.9-4.8-2.5-4.8c0.1,0,1.5,0.9,3.1,2c4,2.7,4.3,2.9,3.4,1.8
						c-0.4-0.5-2.3-2.2-4.2-3.7c-1.9-1.5-5.3-4.7-7.5-7.1l-4-4.3L522,197.9z M516.1,197l-1.7-2l1.5,1.2c2.8,2.2,7.8,7.6,9.8,10.6
						c2.6,4,3.4,6.1,4.9,13.9c0.7,3.6,1.5,7,1.7,7.6c0.2,0.6,0.3,1,0.1,1c-0.7,0-6.2-4.1-8.1-5.9c-2.2-2.2-4.9-5.7-6.2-8.2
						c-1.5-3-5.5-15.5-5.5-17.3c0-0.2,1.9,1.5,4.2,3.6c2.3,2.2,4.4,3.9,4.6,3.9C522.8,205.6,521,202.7,516.1,197z M615.1,239.2
						c2.6,1.4,3.7,2.2,3.7,2.7c0,0.4-0.1,0.7-0.3,0.7c-0.3,0-10.4-5.9-10.8-6.3C606.9,235.5,611.9,237.5,615.1,239.2z M613.5,221.4
						c3.1-2.1,5.7-2.7,13.8-3.1c4-0.2,7.5-0.3,7.7-0.2c0.7,0.2-3.4,3.5-7,5.7c-1.8,1.1-4.3,2.3-5.7,2.7c-1.4,0.4-3.9,0.9-5.6,1
						l-3.1,0.2l4.3-2.1c7-3.4,6.3-3.6-2.9-0.9c-2.9,0.8-5.5,1.6-6,1.8c-0.7,0.2-0.7,0.2,0.1-0.9C610,224,611.1,223,613.5,221.4z
						 M589.3,188c1.4-1,8.1-4,10.3-4.6c3.6-0.9,10.9-0.5,18.2,1.1c3.2,0.7,6,1.4,6.2,1.6c0.8,0.8-5.5,4.3-9.7,5.4
						c-3.3,0.9-10.1,1.1-13.9,0.4c-5.3-1-5-1.2,2.3-1.6c3.8-0.2,7.4-0.6,7.9-0.8c0.9-0.4,0.9-0.4,0.2-0.7c-0.4-0.2-5.6-0.3-11.5-0.3
						C590.3,188.5,588.7,188.4,589.3,188z M590.6,195.4c4.2,2.6,8.8,5.9,10.8,7.8c3.5,3.2,4.8,5.7,7.1,13.3c0.3,1,0.4,1.8,0.2,1.8
						c-0.6,0-6.7-3.1-8.5-4.3c-3-2-6.6-5.8-8-8.2c-1.3-2.3-3-6-2.7-6c0.1,0,2.2,2.4,4.8,5.4c2.6,3,4.9,5.4,5.1,5.4
						c1.5,0-2.7-6.6-9.5-15l-1-1.3L590.6,195.4z M562.6,191.1c2.5,0.1,8.2,0.3,12.5,0.5l7.9,0.2l-0.1,1.2c-0.3,2.3,4.4,13.1,7.2,17
						c2.9,3.9,10,9.1,15.4,11.2l2.6,1l-1.3,2.2c-0.7,1.2-1.3,2.4-1.3,2.7c0,0.3-0.4,0.7-0.9,0.8c-3,1.1-2.9,1.1-13.6-4.6
						c-15.4-8.3-14.7-7.9-13.8-8.4c0.5-0.3,1.9-0.3,3.8-0.2c2.7,0.2,3.1,0.1,4.1-0.6c0.6-0.5,1.1-1.2,1.1-1.7c0-1.1-7-9.6-10.6-12.9
						c-3.2-2.9-8.7-5.8-13.8-7.2c-1.9-0.5-3.5-1-3.7-1.2C558.1,191,560.1,191,562.6,191.1z M567.3,209.6c-1-0.2-1.9-0.4-2-0.6
						c-0.3-0.5,7-1.3,9.5-1c2.1,0.2,5.5,1.5,6,2.2c0.1,0.2-0.9,1-2.2,1.7c-1.3,0.8-2.9,1.9-3.6,2.5c-1.2,1.1-1.2,1.1-2.1,0.5
						c-0.5-0.4-2.2-1.3-3.6-2.1l-2.7-1.5l2.8,0.2c1.5,0.1,2.8,0.2,2.8,0C572.1,211.1,569.1,209.9,567.3,209.6z M566.8,197.9
						c-1.3-1.1-2.4-2-2.4-2.1c0-0.3,2.1,0.6,3.9,1.6c3.2,1.9,7.3,5.3,8.9,7.5c0.5,0.7,0.6,1,0.2,1c-0.3,0-2.4-0.1-4.7-0.2
						c-3.2-0.1-4.4-0.3-4.9-0.7c-0.8-0.7-4.6-6.1-4.6-6.5c0-0.3,3.2,2,5.7,4.1c2,1.8,3.2,2.3,3.2,1.4
						C572.1,203.2,569.2,199.8,566.8,197.9z M530.5,184.8c0.5-0.3,10.7-2.9,12.8-3.2c0.6-0.1,1.8,0.1,2.6,0.4c1,0.4,2.2,0.5,3.5,0.4
						l2-0.2l-2.1,1c-1.2,0.5-3.6,1.5-5.5,2.1c-3.1,1-5.1,1.3-7.7,0.9c-0.5-0.1-2.2-0.3-3.6-0.6C530.9,185.3,530.1,185,530.5,184.8z
						 M550.3,186c-0.1,0.2-0.4,0.4-0.6,0.4c-0.6,0-0.4-0.3,0.2-0.5C550.2,185.7,550.4,185.8,550.3,186z M533.7,188.8
						c2.8,0.5,7.4,1.2,10.4,1.4c5.2,0.4,9.2,1.2,9.7,2c0.1,0.2,0,0.6-0.3,0.9c-0.2,0.3-0.8,0.5-1.3,0.5c-1.7-0.1-14.1-2.6-19.6-3.9
						C523,187.3,523.6,186.9,533.7,188.8z M543.5,200.8c-3-2-7.8-5.1-10.6-6.8c-5.7-3.5-5.8-3.5-4.3-3c2.2,0.7,10.1,2.3,16.8,3.3
						c3.9,0.6,7.3,1.3,8.1,1.7c0.7,0.4,2,0.9,2.8,1.2c1.2,0.4,1.8,1,3.2,3.2c1,1.5,2.3,3.5,3,4.3l1.3,1.6l-1.8,0.2
						c-2.7,0.4-4.4,0.3-4.5-0.2c-1.9-5.5-3.2-7.5-5.9-9.2c-2.1-1.4-3.6-1.5-4.8-0.3c-0.7,0.7-0.8,1.1-0.5,2.4c0.1,0.9,0.5,2,0.9,2.5
						c0.3,0.5,0.9,1.4,1.2,1.9C548.8,204.1,546.9,203,543.5,200.8z M551.4,209.8c-1.4,0.6-4.1,0.5-5-0.1c-0.7-0.5-0.7-0.6-0.2-1
						c0.3-0.2,1.6-0.4,2.8-0.4C552.3,208.3,553.3,208.9,551.4,209.8z M552.2,202.9c-3.3-4.1-3.7-5.4-1.2-3.9
						c1.3,0.8,2.4,2.2,4.3,5.5c0.6,1,1,2,0.9,2.3C556,207.3,555,206.4,552.2,202.9z M560.3,228c-0.3,0.3-0.8,1-1.2,1.6
						c-1.1,2-2.5,0.9-2.5-1.9c0-0.8,0.2-2.6,0.5-4l0.5-2.5l0.3,1.5c0.4,1.9,0.8,1.5,1-1.2l0.2-2.2l0.8,2.6
						C561,225,561.1,227.2,560.3,228z M573.2,224c-0.8,0.5-1.8,1.4-2.1,2c-0.5,1-0.5,1.3,0,2.5c0.8,1.9,0.7,2.7-0.4,3.8
						c-0.7,0.7-1.3,0.9-2.6,0.9c-2.6,0-3-0.7-3.6-6c-0.5-4.8-1.4-8-3.3-11.8l-1.2-2.4l4.5,4.4c3.9,3.9,4.5,4.3,4.5,3.4
						c0-1.2-1.6-3.5-4.2-6.2c-1.5-1.6-1.6-1.8-0.8-1.6c3.5,1,9,4.7,10.4,6.9C575.5,221.8,575.2,222.9,573.2,224z M576.3,225.4
						c-0.1-0.1,0-0.3,0.2-0.5c0.5-0.5,4.4,2.1,6.3,4c0.7,0.8,1.3,1.4,1.2,1.4C583.8,230.2,576.7,225.7,576.3,225.4z M593.5,228
						c-2.1-0.9-10.6-5.8-10.6-6.1c0-0.1,1.3,0.5,2.8,1.3c1.5,0.8,4.3,2.4,6.2,3.4c1.9,1,3.4,1.9,3.4,2
						C595.2,228.8,595.2,228.8,593.5,228z M595.2,237.3c-0.5-0.6-0.5-0.6,0.1-0.1c0.4,0.3,0.7,0.6,0.7,0.7
						C596,238.1,595.6,237.9,595.2,237.3z M595.5,232.6c0.1,0,5.4,3,11.7,6.6l11.5,6.6v3.4c0,1.8,0,3.4-0.1,3.4
						c-0.1,0-2.1-1.3-4.5-2.8c-3.6-2.3-5.7-4.1-11.6-10C598.6,235.8,595.5,232.7,595.5,232.6z M603,268.5c0.8-3.5,1.2-2.5,1,2.4
						c-0.2,4.9-0.9,7.8-2.6,11.5c-0.6,1.3-1.7,3.3-2.5,4.4l-1.4,2l-0.5-1.5c-0.3-0.8-0.5-3-0.5-5.1c0-3.1,0.2-4.2,1.2-7.2
						c0.7-1.9,1.8-4.6,2.6-6c1.4-2.4,1.4-2.4,1.1-0.9c-0.1,0.8-0.5,2.7-0.8,4.2c-0.3,1.5-0.5,2.7-0.4,2.8
						C600.6,275.4,602.6,270.6,603,268.5z M602.4,247.6c-1.5-2.2-2.4-3.9-2.2-3.7c3.9,2.3,6.5,4.6,11.9,10.4c3.3,3.5,6.1,6.7,6.3,7
						c0.2,0.3,0.2,4.4,0.2,9.2l-0.1,8.7l-0.7-2C614.7,268.2,609.2,257.7,602.4,247.6z M624.6,292.7c0.9,2.5,1.1,3.8,1.1,6.5
						c0,4.3-1,7.3-4,12.4c-1.3,2.1-2.5,3.9-2.8,4c-0.6,0.2-2.7-6.3-3.2-10.1c-0.7-4.7-0.5-8.4,0.5-12.5c0.5-2,1.2-4.4,1.6-5.2
						c0.6-1.4,0.7-1.5,1-0.7c0.2,0.5,0.6,2.3,0.9,4c0.3,1.7,0.8,3.5,1,3.8c0.2,0.4,0.5,1.4,0.6,2.2c0.4,2.5,0.9,1,0.9-2.5
						c0-1.7-0.2-4.3-0.5-5.8c-0.3-1.5-0.5-2.7-0.4-2.8C621.5,285.8,623.6,289.9,624.6,292.7z M630.2,267.6l-0.1,2.3l-3.9-4.5
						c-5.5-6.4-5.3-6.1-2.8-5.2c3.2,1.1,4.2,1.7,5.6,3.5C630.2,265.1,630.3,265.5,630.2,267.6z M629.4,258.3c-1.6-0.1-3-0.7-5.5-2.3
						l-2.5-1.6V251c0-1.8,0.1-3.4,0.3-3.4c0.2,0,2.1,1.1,4.3,2.4l4.1,2.4l0.1,3C630.3,258.3,630.3,258.3,629.4,258.3z M631,259.7
						l1.5-0.3c4-0.7,9.7,0.2,13.4,2.1c1.3,0.7,3.4,2.2,4.8,3.5c2.2,2.1,7.1,8.1,8.1,10.1c0.4,0.8,0.4,0.9-0.8,0.8
						c-2.3-0.1-6.4-1.3-10.5-3.2c-2.7-1.2-11.6-6.9-12.5-8c-0.3-0.3,1.9,0.4,4.8,1.5c5.8,2.3,7,2.5,5.5,0.8c-1.1-1.3-5-3.4-10.3-5.7
						L631,259.7z M655.2,318.6c-0.4,2.1-0.8,4.1-1,4.4c-0.2,0.4-0.9,0.1-2.6-1.2c-6.1-4.5-7.2-7.7-7.6-21.2l-0.2-6.2l1,2.1
						c1,2.2,2.6,8,3.1,11.4l0.3,1.9l0.3-1.5c0.8-4.2-0.1-9.6-2.2-13.7c-1.1-2.1-0.4-2.1,2,0.1c2.2,2,4.6,5.4,6.3,8.9
						c1.3,2.6,1.3,2.8,1.3,6.9C655.9,312.9,655.6,316.4,655.2,318.6z M666.1,306.8c-1.8-0.9-4.8-2.8-6.8-4.2
						c-1.9-1.4-3.8-2.6-4.1-2.6c-0.3,0-1.3-1-2.2-2.1c-0.9-1.2-1.5-2.1-1.4-2.1c0.5,0,9.7,4.7,10.4,5.3c0.7,0.6,0.7,0.6,0.5-0.1
						c-0.2-0.4-0.3-0.8-0.3-0.8c0-0.5-5-3.7-9.2-6c-5.9-3.1-6.4-3.5-4.8-3.5c6.8,0.1,11.5,2.2,15.5,7c1.5,1.8,6.3,9.8,6.3,10.4
						C670,308.6,669.4,308.4,666.1,306.8z M630.1,476l0,80.9l-2.7,1.6c-1.5,0.9-3.9,2.2-5.3,3l-2.6,1.5v-2.1c0-1.2,0.2-5.7,0.4-10.1
						c0.4-7,0.5-8.1,1.1-8.5c0.6-0.5,0.7-1.7,0.9-19.3c0.1-11.4,0.3-20.1,1.6-46.9c0.1-1.2,0.1-2.5,0.2-3.8c0.1-2.1,0.2-4.4,0.3-6.8
						c0.1-1.2,0.1-2.5,0.2-3.8h-5.1c0,1.3,0,2.5,0,3.8c0,2.4,0,4.6,0,6.8c0,1.3,0,2.5,0,3.8c0,31.1-0.2,38.4-0.6,48.4
						c-0.4,8.8-0.8,16.2-1,16.5c-0.2,0.4-73.4,44.6-137.5,82.8c-5.9,3.5-35.7,21.4-66.1,39.6s-55.6,33.3-55.9,33.5
						c-0.6,0.3-1.3,0-20.5-10.5c-3.9-2.1-12-6.5-17.9-9.7c-5.9-3.2-14.9-8.1-19.9-10.8l-9.2-5l-0.4-1.7c-0.2-0.9-0.6-3.9-0.8-6.6
						l-0.5-4.9l1.8-1.8c7.9-8.2,10.9-17.8,10.9-35.1c0-6.4-0.1-8.4-0.7-10.4c-1.1-3.8-2.7-5.1-4.8-3.7c-1.4,1-9.3,13.2-11.5,17.7
						c-3.3,6.9-4.1,9.7-4.3,15c-0.2,5,0.2,7.3,1.8,11.4c1,2.5,3.2,6.4,4.1,7.1c0.5,0.4,1.2,11,0.6,11c-1.7,0-14-11.7-18.8-17.9
						c-1.5-1.9-4.8-6.3-7.4-9.8c-4.1-5.6-4.6-6.4-4.1-6.8c0.4-0.2,1.6-1.4,2.8-2.7s3.7-3.9,5.5-5.9c1.9-2,4.5-5.2,5.7-7.1
						c2.9-4.4,8.4-15,9.7-19c2.2-6.6,2.9-13,1.6-14.7c-1.1-1.6-2.6-1.2-8.7,2.6c-9.2,5.8-14,9.8-15.7,13.2l-0.8,1.5l-0.9-4
						c-1.5-6.8-4.8-14.9-8.3-20.8c-1.2-1.9-1.5-2.3-2.5-2.3c-1.6,0-2.2,1.3-4.6,10.2c-2.8,10.5-3.5,14-3.8,19.1
						c-0.4,9.1,2.6,19.4,7.4,24.9c0.8,0.9,3.4,3.1,5.8,4.9l4.4,3.3l5.7,8.1c5,7.1,7.3,10.2,9.7,13.1c0.7,0.8-1.9-0.8-10-6.5
						c-3.1-2.2-8.1-5.6-11.2-7.7c-7-4.8-15-10.8-19.5-14.8l-3.5-3.1l-2-7.5c-3.5-13-5.3-17.3-9.2-22c-4.2-5.1-13-11.1-15.4-10.5
						c-1.6,0.4-1.7,1.7-0.6,5.1c1.1,3.3,2.4,9.1,2.2,9.7c-0.1,0.2-1.3-0.6-2.8-1.8c-2.9-2.2-11.9-7.1-13.3-7.1c-0.4,0-1,0.3-1.2,0.7
						c-0.3,0.6-0.1,1.1,0.9,2.6c0.7,1,2.5,4,4,6.6c4.6,7.7,8.8,12.4,14.3,16.1c2.7,1.8,5.2,2.9,10.6,4.8c4.9,1.7,9,4.4,13.9,9
						c5.1,4.8,8.6,7.6,14.5,11.9c4.8,3.5,6,4.4,3.8,3.2c-8.8-5.2-13.5-7.8-18.9-10.8c-3.5-2-6.6-3.7-6.9-3.9
						c-0.3-0.2-1.4-0.7-2.3-1.1c-0.9-0.4-2-0.9-2.3-1.1c-0.3-0.2-2.6-1.3-5.1-2.5c-5.5-2.7-9.9-5.3-17.9-10.6l-6.2-4.1l1.4-0.3
						c0.8-0.2,1.8-0.7,2.2-1.2c3.6-3.8-3-8.4-9-6.2c-0.8,0.3-1.6,0.5-1.7,0.5c-0.2,0,0.2-9.8,0.5-13.7c0.2-2.3,0.1-2.9-0.7-4.4
						c-1.5-2.8-4.5-3-6-0.4c-0.7,1.2-1.3,1.1-1.3-0.2c0-1.2-2.1-3.6-3.7-4.3c-5-2.1-10.7,2.6-8.8,7.3c0.6,1.5,0.6,1.6,0,1.9
						c-0.4,0.2-1.1,0.8-1.6,1.2l-1,0.8l-1.8-1c-2.3-1.3-9.8-8.5-13.4-13c-5.4-6.7-7.5-9.8-7.5-11.3c0-0.8-0.4-2.8-0.9-4.6
						c-1.4-4.9-1.4-5-0.8-5.2c0.3-0.1,1.1-1.3,1.7-2.6c0.6-1.3,1.8-4,2.8-6c2.4-4.8,3.9-11.2,3.6-14.4c-0.6-5.1-2.1-9.3-3.5-9.7
						c-1.6-0.4-2.4,0.3-4.7,4c-2.6,4.3-3.6,6.6-4.7,11c-1.3,5.6-0.9,10.5,1.5,16c1,2.3,2.5,8,2.2,8.3c-0.3,0.3-5.4-8.3-8.2-13.8
						c-2.9-5.7-6.4-13.7-6.4-14.7c0-0.3,0.2-0.6,0.5-0.8c0.6-0.2,3.3-8.2,4.1-12c1-4.7,0.2-11.8-1.8-18.1c-1.3-3.9-2.1-5.5-3.4-6.7
						c-1.6-1.5-2.9-0.7-5.4,3.6c-7,11.7-7.7,17.7-3.1,27c1.7,3.5,4.9,7.6,6.3,8c0.4,0.1,1,1.3,1.5,2.8c3.9,11.3,11.8,25.5,20.5,37.1
						c1.2,1.6,2.3,3.1,2.5,3.5c0.2,0.3-3.8-3.5-8.8-8.5c-8.2-8.3-13.7-14.2-23.1-25.1l-3.4-3.9l0.1-58.6v-10.5l0-3.8H100V476
						c0,32.4,0,54.6-0.1,54.6c-0.1,0-1.1-1.3-2.2-2.8l-2.1-2.8l-0.2-15.4c-0.1-5.8-0.1-19-0.2-33.6v-3.8c0-2.2,0-4.5,0-6.8v-3.8
						h-4.6c-0.1,1.3-0.1,2.5-0.2,3.8c-0.1,2.4-0.2,4.6-0.3,6.8c-0.1,1.3-0.1,2.6-0.2,3.8c-0.4,8.5-0.7,14.3-0.7,14.7
						c0,0.9-0.2,0.8-2.5-1.6c-2.7-2.9-6.9-5.8-8.2-5.8c-1.1,0-1.9,0.9-2.2,2.2c-1.1,6-1.6,14.7-0.9,17.7l0.3,1.2l-3.1-2.1
						c-2.9-1.9-7-3.8-10.4-4.7c-1.3-0.4-1.6-0.3-2.5,0.5l-1,0.9l1.2,2.3c4.2,8,9.8,15.1,13.6,17.2c3.4,1.8,9.2,2.7,12.9,1.8l1.5-0.3
						l-0.3,6.6c-0.2,3.6-0.3,6.7-0.4,6.8c-0.1,0.1-1.8-0.4-3.9-1.1c-6.5-2.2-11.3-2.1-11.9,0.1c-0.3,1.1,0.1,1.9,3.4,6.3
						c5.7,7.7,10.1,10.9,17.5,13c0.3,0.1,0.5,0.9,0.5,2.6v2.5l3.2,1.7c11.5,6.1,23.5,12.7,24.1,13.2c-0.3,0-3-0.7-6.3-1.6
						c-3.4-0.9-7.2-1.9-8.4-2.2c-1.5-0.3-2.3-0.7-2.4-1.1c-0.2-0.8-5.9-6.4-7.9-7.9c-2.2-1.6-5.5-3.2-8.7-4.1
						c-4-1.1-11.3-0.9-14.1,0.3c-2,0.9-2.8,2.2-2.5,3.7c0.1,0.5,2.3,2.9,4.8,5.3c5,4.8,7.8,6.5,11.9,7.4l2.4,0.5l-2.6,1.5
						c-2.7,1.5-7.6,5.9-8,7.1c-0.1,0.4,0,1.1,0.2,1.7c0.5,1.3,2,1.7,7.2,2c9.4,0.6,14.3-1.8,19.6-9.8c1-1.5,2-2.8,2.3-3
						c0.3-0.3,2.6,0.3,7.4,1.8c3.8,1.2,8.9,2.8,11.3,3.5c2.4,0.7,4.3,1.4,4.3,1.5s-1,0.5-2.2,0.8c-2,0.5-2.3,0.5-3.6,0
						c-1-0.5-2.7-0.6-6.7-0.6c-6.5,0-9,0.7-14.3,4c-4.4,2.7-10.2,8.2-10.2,9.7c0,2.4,0.9,2.5,10.7,1.8c7.6-0.5,10.6-1,13.3-2.1
						c1.3-0.5,2.4-0.9,2.5-0.8c0.1,0.1,1,2.2,2,4.7c1,2.5,2.3,5.5,2.9,6.7c1.4,2.8,5.3,6.5,9.8,9.4c1.9,1.2,3.5,2.3,3.5,2.4
						c-0.1,0.1-1.3-0.2-2.8-0.5c-1.8-0.4-4.7-0.6-8.7-0.6c-5.3,0-6.3,0.1-8.9,0.9c-7.5,2.3-12.7,6.3-12.7,9.6
						c0,2.2,1.2,2.8,10.8,4.7c6.5,1.3,12.9,1.8,17,1.2c5.6-0.8,15-6.3,15-8.8c0-0.6,0.7-0.6,7.4-0.4c4.1,0.2,9.6,0.4,12.3,0.5
						l4.8,0.2l-0.2,1.1c-0.2,1.6,1.2,2.4,4.5,2.4c1.4,0,3.1-0.1,3.8-0.2c0.9-0.2,0.6,0-0.9,0.9c-1.5,0.9-2.5,1.2-4.1,1.2
						c-7,0-20.1,6-26.2,11.9c-5.4,5.3-9.3,12.8-7.5,14.6c0.9,0.9,2.9,0.5,10.9-2.2c12.3-4.1,17.3-6.9,21.2-11.8
						c2.1-2.6,3.9-6.2,4.3-8.5c0.3-1.9,0.8-2.5,0.6-0.7c-0.2,1.9,1.1,2.7,4.5,2.4c2.8-0.2,5.9-1.5,5.9-2.4c0-0.3,0.1-0.6,0.1-0.6
						c0.6,0,11.3-2.2,14.1-2.8l3.7-0.9l3.5,0.9c7.5,2,8.6,2.4,13,5.2c10.2,6.5,16.8,10.8,16.8,10.9c0,0.1-2.6-0.4-5.6-1
						c-3.1-0.6-7-1.2-8.7-1.4l-3.1-0.3l-2.5-2.6c-5.8-6-11.4-6.7-27.2-3.6c-6.2,1.2-9.1,1.9-9.4,2.4c-1.3,1.7,0.3,5.3,3.3,7.7
						c1.6,1.3,5.1,2.8,7.3,3.3l1.2,0.3l-3.5,3.5c-3.7,3.7-6.5,7.9-6.5,10c0,0.9,0.9,2.2,1.5,2.2c0.7,0,12.9-4.3,14.4-5.1
						c4.3-2.2,8.8-5.9,13.7-11.2c1.6-1.7,3.2-3.3,3.5-3.5c1.4-0.8,9.7,0.3,17.9,2.3c5.5,1.4,10.7,3.1,10.7,3.5
						c0,0.4-3.5,1.7-4.8,1.8c-1.8,0.2-1.7,0.2-4.6-0.1c-5.5-0.5-12.2,2.4-16.5,7.2c-2,2.2-8.2,11.5-10.3,15.2
						c-2.1,3.8-0.9,5.4,3.7,5c3.1-0.3,7-1.5,10.8-3.4c6.5-3.2,9.7-6.3,12.6-12c1.1-2.1,2.8-5.1,3.9-6.6c2.1-3,3.2-3.7,8.1-4.8
						c2.5-0.6,3.9-0.2,7.5,2c2.5,1.5,21,13.4,23.5,15.1c1.8,1.2,7.3,4.8,28.1,18.1c4.9,3.1,9.7,6.3,10.8,7c1.1,0.7,6.2,4,11.4,7.3
						c5.2,3.3,10.5,6.7,11.7,7.5l2.3,1.5l4.3-2.3c2.4-1.2,4.6-2.3,4.9-2.3c0.3,0,3.1,1.5,6.1,3.2c3.1,1.8,5.6,3.3,5.7,3.3
						c0.1,0,45.7-26.2,101.4-58.3c55.7-32.1,102-58.8,102.9-59.2c1.9-1.1,7.7-4.1,26.4-13.7c23.7-12.1,21.9-11.1,22-12.9l0.1-1.5
						l6.7-3.9l6.8-3.9l0.1-82.4v-14.3h-2.7V476z M256.8,617.5c0.1-1,0.4-3.5,0.6-5.7c0.4-4.4,0.1-3.8,6-13.1c4-6.4,4.1-6.5,3.5-6.5
						c-0.7,0-2.8,2.5-6.3,7.5c-3,4.3-3,4.3-2.8-1.1c0.2-4.6,1.2-6.8,4.3-9.7c2.6-2.4,8.5-6.5,13.9-9.7l3.4-2l-0.2,2.7
						c-0.4,4.3-2,9.1-5.1,15.3c-3.4,6.8-5.3,10.2-8.2,13.9c-1.1,1.5-3.7,4.4-5.7,6.5l-3.7,3.8L256.8,617.5z M253.8,612.3
						c-0.3,3.4-0.6,6.5-0.6,6.9c0,0.8,0,0.8-0.6,0c-1.2-1.5-3.6-6.6-4.3-9.3c-0.4-1.5-1.2-5.4-1.8-8.7c-1.2-6.7-1.9-7.4-1.5-1.5
						c0.4,5.9,0.9,9.9,1.8,12.7c1.6,5.5,2,6.5,3.2,8.3c0.7,1.1,1.4,2.3,1.7,2.8c0.9,1.7-0.3,0.8-3.9-3c-4.3-4.5-6.2-7.9-7.8-14.1
						c-1.8-6.9-1.7-13,0.3-21.7c1-4.4,4.7-16.6,5-16.6c0.5,0,4.1,8.1,5.5,12.2C254,590.3,255,600.2,253.8,612.3z M205.5,608.6
						c-2.7-1.5-8-6.5-10.6-10c-2.2-2.9-6.7-10.7-6.4-11.1c0.3-0.3,3.8,1.7,6.7,3.9c1.5,1.1,3.6,2.7,4.8,3.5c1.7,1.2,2.3,1.9,3.1,3.7
						c0.5,1.2,0.9,2.2,0.8,2.2c-0.1,0-1.5-0.9-3.2-2c-4-2.7-4.3-2.9-3.4-1.8c0.4,0.5,2.3,2.1,4.2,3.7c1.9,1.5,5.2,4.7,7.5,7.1
						c2.2,2.3,3.8,4.2,3.8,4.3C212.5,612.1,207.3,609.7,205.5,608.6z M216.8,612.1c0.9,1.1,1.6,1.9,1.5,1.9
						c-0.8,0-8.7-8.3-10.6-11.2c-2.9-4.3-3.6-6.4-5.2-14.4c-0.7-3.6-1.5-7-1.7-7.6c-0.2-0.6-0.3-1.1-0.2-1.1c0.1,0,1.5,0.8,2.9,1.8
						c4.7,3.1,9.1,7.8,11.4,12.3c1.5,3,5.5,15.5,5.5,17.3c0,0.2-1.9-1.5-4.2-3.6c-2.3-2.2-4.4-3.9-4.6-3.9
						C210.2,603.7,212.1,606.8,216.8,612.1z M114.3,522.1c-0.2-0.5-0.6-2.3-0.9-4c-0.3-1.8-0.8-3.5-1-3.8c-0.2-0.4-0.5-1.4-0.6-2.2
						c-0.4-2.5-0.9-1-0.9,2.5c0,1.7,0.2,4.3,0.5,5.8c0.3,1.5,0.5,2.8,0.4,2.8c-0.3,0.3-2.3-3.7-3.3-6.6c-1.4-4.1-1.5-8.6-0.2-12.5
						c0.9-2.6,5.2-10.2,5.9-10.4c0.6-0.2,2.7,6.3,3.2,10.1c0.7,4.7,0.5,8.4-0.5,12.5c-0.5,2-1.3,4.4-1.6,5.2
						C114.6,522.9,114.6,523,114.3,522.1z M131.5,541.1c0.1-0.8,0.5-2.7,0.8-4.2c0.3-1.5,0.5-2.7,0.4-2.8c-0.3-0.3-2.2,4.5-2.7,6.6
						c-0.7,3.5-1.2,2.5-0.9-2.4c0.3-6.5,1.7-10.9,5-15.9l1.3-2l0.5,1.5c0.3,0.9,0.5,3,0.5,5.1c0,3.1-0.2,4.2-1.2,7.2
						c-0.7,1.9-1.8,4.6-2.6,6C131.3,542.6,131.3,542.6,131.5,541.1z M97.7,532.5l2.3,3.2v2.8h0c0,1.5-0.1,2.8-0.3,2.8
						c-0.2,0-1.2-0.7-2.3-1.4l-2-1.4l0-4.6l0-4.6L97.7,532.5z M92.3,518.5c0.3-0.8,0.4-0.8,0.4,0.4c0,1.3-0.1,1.5-0.5,0.9
						C92,519.6,92.1,519,92.3,518.5z M92.3,483.4c0.2-2.2,0.4,1.9,0.4,14.5c0,9.7,0,17.6-0.1,17.6C91.9,515.5,91.6,489.2,92.3,483.4
						z M89.9,530.3c0.1-2.5,0.3-5.4,0.4-6.5l0.3-1.9l1.1,1.8c1,1.7,1,2,1,7.2c0,3-0.1,5.5-0.3,5.5c-0.2,0-0.8-0.3-1.5-0.7l-1.2-0.7
						L89.9,530.3z M84.4,518.5c-6.9-0.2-11.1-2.2-15.1-7c-1.8-2.2-6.5-10.2-6.2-10.6c0.5-0.4,6.7,2.9,10.4,5.6
						c2,1.5,3.9,2.7,4.2,2.7c0.3,0,1.3,0.9,2.2,2.1c0.9,1.2,1.6,2.1,1.4,2.1c-0.5,0-9.7-4.7-10.4-5.3c-0.7-0.6-0.7-0.6-0.5,0.1
						c0.1,0.4,0.2,0.8,0.2,0.8c0,0.5,5,3.7,9.3,6c2.9,1.5,5.4,2.9,5.6,3.1C85.8,518.4,85.4,518.6,84.4,518.5z M86.8,514.7
						c0.3,0.6,0.6,1.2,0.6,1.3c0,0.6-1,0-2.6-1.4c-2.2-2-4.6-5.4-6.3-8.9c-1.3-2.6-1.3-2.8-1.3-6.9c0-3.9,1-11.1,1.7-12.5
						c0.2-0.4,0.9-0.1,2.6,1.2c6.1,4.5,7.2,7.7,7.6,21.2l0.2,6.2l-1-2.1c-1-2.2-2.5-8-3-11.3l-0.3-1.9l-0.3,1.5
						C83.8,505.2,84.6,510.7,86.8,514.7z M100,555.1l-0.1,2.3l-2.2-1.2c-2.2-1.2-2.2-1.2-2.2-2.9v-1.7h2.1c1.5,0,2.2,0.2,2.3,0.5
						C100,552.5,100,553.8,100,555.1z M98.7,549.9c-9.3,0.3-14.5-2.5-21.3-11.5c-1.4-1.9-2.8-3.9-3.1-4.4l-0.5-0.9l2.1,0.2
						c2.4,0.3,6.3,1.6,10,3.2c2.6,1.2,11.4,6.9,12.3,8c0.3,0.3-1.9-0.4-4.8-1.5c-5.8-2.3-7-2.5-5.5-0.8c1.1,1.3,5,3.4,10.3,5.7
						c2.1,0.9,3.8,1.7,3.8,1.8C101.8,549.7,100.3,549.8,98.7,549.9z M82.6,566.6c-2.8-1.5-9.2-7.9-8.4-8.4c1.2-0.6,5.4-0.8,8.3-0.4
						c3.8,0.6,6.8,1.8,9.9,4c2.2,1.6,4.1,3.3,3.6,3.3c-0.3,0-8-3-9.2-3.6c-1-0.5-1.5-0.4-1.5,0.2c0,0.4,10,5.4,12.2,6.1l1.5,0.5
						l-1.9,0.5C92.9,569.9,87,569,82.6,566.6z M98.9,573.7c-3.2,1.7-6.4,4.1-5.5,4.2c0.2,0,2.1-0.7,4-1.5c2-0.8,3.6-1.5,3.7-1.4
						c0.3,0.4-4.2,4.3-5.7,5c-1.4,0.6-2.7,0.8-6.2,0.9c-2.4,0.1-4.9,0-5.4-0.2c-0.9-0.3-0.9-0.3,1.2-2c2.8-2.2,8.4-4.8,13-6
						c2-0.5,3.7-0.9,3.8-0.8C101.9,571.9,100.6,572.8,98.9,573.7z M172.4,636.9c-3.7,4.5-8,6.9-19.5,10.7c-4.5,1.5-8.2,2.7-8.3,2.7
						c-0.3,0,1.2-2.5,2.6-4.6c4.2-6.2,12.4-11.5,22.4-14.4l1.9-0.6l-1.4,1.5c-0.8,0.9-1.3,1.6-1.2,1.7c0.1,0.1,1.8-0.8,3.8-1.9
						c2-1.2,3.7-2,3.7-2C176.6,630.3,174,634.9,172.4,636.9z M184.3,599c2,0,3.5,0.9,2.6,1.5c-0.6,0.4-4.8,0.5-5.7,0.2
						C179.7,600.2,181.8,599,184.3,599z M177,602.6c0.5-0.5,6.8,6.9,6.8,8.1c0,1-2.7-0.8-3.9-2.7C178,605.4,176.7,602.9,177,602.6z
						 M172.8,581.3c0.3-0.3,0.9-1,1.2-1.6c1.1-2,2.5-0.9,2.5,1.9c0,0.8-0.2,2.6-0.5,4l-0.5,2.5l-0.3-1.5c-0.2-0.8-0.4-1.4-0.5-1.2
						c-0.2,0.1-0.4,1.2-0.5,2.4l-0.2,2.2l-0.8-2.6C172,584.2,171.9,582,172.8,581.3z M159.9,585.2c0.8-0.5,1.7-1.4,2-2
						c0.5-1,0.5-1.3,0-2.5c-0.8-1.9-0.7-2.7,0.4-3.8c0.7-0.7,1.4-0.9,2.6-0.9c2.6,0,3,0.7,3.5,6.1c0.5,4.8,1.4,8,3.3,11.8l1.2,2.3
						l-4.5-4.4c-3.9-3.9-4.5-4.3-4.5-3.4c0,1.2,1.6,3.6,4.2,6.2c1,1,1.6,1.8,1.3,1.8c-1.3,0-7.7-3.7-9.6-5.6
						C157.2,588,157.1,586.9,159.9,585.2z M166.3,611.4c1.3,1.1,2.4,2,2.4,2.1c0,0.3-0.3,0.2-2.9-1.2c-3.7-1.9-8-5.4-9.8-7.9l-0.7-1
						l4.7,0.1c3.5,0.1,4.8,0.3,5.3,0.7c0.7,0.7,4.6,6.1,4.6,6.5c0,0.4-3.2-2-5.7-4.1c-2.1-1.8-3.2-2.3-3.2-1.4
						C161,606.1,163.9,609.5,166.3,611.4z M164.7,600.9c-3.5,0.5-6.4,0.5-8.2,0.1c-1.4-0.3-4-1.5-4.2-2c-0.1-0.2,0.9-0.9,2.2-1.7
						c1.3-0.8,2.9-1.9,3.6-2.5l1.2-1.1l1.5,1c0.8,0.5,2.6,1.5,3.9,2.2c1.4,0.6,2.5,1.2,2.5,1.2c0,0.1-1.1-0.1-2.5-0.2
						s-2.8-0.3-3.2-0.2c-1.1,0.2,2.3,1.8,4.5,2.1c1.1,0.1,2,0.4,2,0.5S166.5,600.7,164.7,600.9z M121.6,560.5c3,3.2,5.4,5.8,5.4,5.9
						c-0.1,0-3.3-2-7.1-4.5c-3.8-2.5-9.1-5.9-11.7-7.5c-2.6-1.7-4.7-3.1-4.7-3.2c0-0.5,7.4,1.5,11,2.9
						C115.7,554.4,117.6,556.1,121.6,560.5z M102.8,541.7l0.1-2.3l3.8,4.5c2.1,2.5,4.1,4.8,4.4,5.2c0.3,0.4,0.5,0.7,0.4,0.7
						c-0.6-0.1-4.3-1.5-5.2-2c-0.6-0.3-1.7-1.3-2.4-2.2C102.8,544.1,102.7,543.8,102.8,541.7z M103.1,556.8
						c-0.2-0.2-0.3-0.9-0.3-1.6l0.1-1.2l3.7,2.4c2,1.3,9.5,6.1,16.6,10.6c7.1,4.5,13.2,8.6,13.7,9c0.4,0.4,0.7,0.7,0.6,0.7
						C137.1,576.7,103.5,557.2,103.1,556.8z M119.6,587.9c-3,2-5.8,2.7-12.9,3.1c-3.5,0.2-7,0.4-7.8,0.4h-1.3l2.1-1.9
						c2.8-2.5,8.1-5.6,11.2-6.6c1.4-0.4,3.9-0.9,5.6-1l3.1-0.2l-4.3,2.1c-7,3.4-6.3,3.6,2.9,0.9c2.9-0.8,5.5-1.6,5.9-1.7
						c0.7-0.2,0.7-0.2-0.1,0.9C123,585.3,121.9,586.3,119.6,587.9z M143.7,621.3c-1.3,1-8,4-10.1,4.5c-1.9,0.5-8.7,0.7-11.2,0.3
						c-3.3-0.5-12.7-2.6-13.2-2.9c-0.7-0.5,1.1-1.9,4.5-3.6c5.6-2.7,11.5-3.5,18.4-2.3c2.2,0.4,4.2,0.8,4.5,0.9
						c0.3,0.2-2.6,0.5-6.4,0.7c-3.8,0.2-7.3,0.6-7.8,0.8c-0.9,0.4-0.9,0.4-0.2,0.7c0.4,0.2,5.6,0.3,11.5,0.3
						C142.7,620.8,144.3,620.9,143.7,621.3z M138.9,611.5c-5.6-3.8-9-6.7-10.7-9.4c-1.1-1.8-4.4-10.7-4-11.1
						c0.2-0.3,6.6,2.9,8.6,4.2c3,2.1,6.6,5.8,8,8.2c1.3,2.3,3,6,2.7,6c-0.1,0-2.3-2.4-4.8-5.4c-2.6-3-4.9-5.4-5.1-5.4
						c-1.5,0,2.8,6.7,9.5,14.9c0.5,0.6,0.9,1.2,0.9,1.2C143.9,614.8,141.6,613.3,138.9,611.5z M172.9,618.2c-1.2,0-5.5-0.2-9.6-0.3
						c-4.1-0.1-8.8-0.3-10.4-0.3l-2.9-0.1l0.2-1.3c0.2-2.3-4.3-13.1-7.2-17c-2.9-3.9-10-9.1-15.4-11.2l-2.6-1l1.3-2.2
						c0.7-1.2,1.3-2.4,1.3-2.7s0.4-0.7,0.9-0.8c1.2-0.4,6.4-1.3,7.6-1.3c1.5,0.1,9.7,3.2,14.7,5.7c3.9,1.9,4.6,2.4,4.9,3.4
						c0.2,0.7,0.8,1.5,1.2,1.9c1.1,1,0.9,1.9-0.5,2.8c-1.1,0.7-1.7,0.8-4.3,0.6c-2.7-0.2-3.2-0.2-4.1,0.6c-0.6,0.5-1.1,1.2-1.1,1.7
						c0,1.1,7,9.6,10.6,12.9c3.2,2.9,8.8,5.8,13.8,7.2c1.9,0.5,3.5,1,3.6,1.2C174.9,618.2,174,618.3,172.9,618.2z M176.7,612.2
						c-1.2-0.4-1.8-1-3.2-3.2c-1-1.5-2.3-3.5-3.1-4.4l-1.3-1.6l2.5-0.3c3.5-0.4,3.7-0.3,4.7,2.5c1.2,3.3,2.7,5.3,4.9,6.8
						c2.2,1.5,3.8,1.6,4.9,0.4c0.7-0.7,0.8-1.1,0.6-2.4c-0.2-0.9-0.5-2-0.8-2.5c-0.3-0.5-0.8-1.3-1.2-1.8c-0.4-0.7,1.1,0.2,4.8,2.7
						c3,2.1,7.8,5.1,10.6,6.8c2.8,1.7,5.2,3.2,5.2,3.2c0.1,0.1,0.1,0.2,0,0.2c-0.1,0-0.3-0.1-0.4-0.2c-0.4-0.4-10.8-2.5-17.3-3.4
						c-3.9-0.6-7.3-1.3-8.1-1.7C178.7,612.9,177.5,612.4,176.7,612.2z M202.6,624.5c-0.3,0.2-3.1,0.9-6.1,1.7
						c-7.4,1.8-7.7,1.8-9.3,1.2c-0.9-0.4-2-0.5-3.5-0.4l-2.1,0.2l2.1-0.9c1.2-0.5,3.7-1.5,5.6-2.1c3-1,3.8-1.1,6.2-0.9
						C199.7,623.5,203.2,624.1,202.6,624.5z M182.9,623.2c0.3-0.3,0.6-0.4,0.7-0.3c0.1,0.1-0.1,0.3-0.5,0.5
						C182.5,623.7,182.5,623.6,182.9,623.2z M200.9,620.8c-4.5-0.9-13.1-2.1-15.9-2.1c-1.6,0-5-0.9-5.7-1.6c-0.2-0.2-0.1-0.6,0.2-1
						c0.6-0.6,1.2-0.5,7.3,0.6c6.5,1.2,18.2,3.9,20.1,4.6C208.6,622,205.4,621.7,200.9,620.8z M211.7,648.3
						c-5.7,5.5-10.9,8.5-18.4,10.7c-2,0.6-3.9,1.2-4.2,1.2c-0.7,0.2-0.6-0.1,0.4-1.9c1.2-2.3,5.4-6.6,8.7-8.8
						c2.5-1.6,3.1-1.9,4.8-1.9h2l-2.7,1.9c-1.5,1-2.9,2.2-3.2,2.6c-0.5,0.6-0.5,0.7,0.4,0.4c1.5-0.5,10.1-4.8,11.4-5.8
						c1.2-0.9,4-2.2,4.3-2C215.2,644.8,213.7,646.4,211.7,648.3z M219.1,638.9c-0.2,0.2-4.7,0.2-10.1,0.2c-5.4,0-9.8,0.1-9.8,0.2
						c0,0.6,3.1,1.4,7.2,2c2.5,0.3,4.6,0.6,4.6,0.7c0.2,0.2-2.3,0.8-5.7,1.6c-2.7,0.6-7.7,0.6-10.2,0.2c-3.1-0.6-6.1-2-7.6-3.5
						c-0.8-0.8-1.5-1.7-1.5-2c0-0.7,11.9-3.7,16.7-4.2c4.2-0.5,8-0.1,11.5,1.2C216.4,636,219.6,638.4,219.1,638.9z M237.3,654.4
						c-1.6,1.1-3.4,2.3-3.8,2.8c-0.5,0.5-1.7,1.5-2.6,2.2c-2.9,2.2-8.2,7.1-7.8,7.3c0.6,0.2,1.8-0.6,5.8-3.5c3.6-2.7,7.7-5.4,7.7-5
						c0,0.1-0.7,1.6-1.6,3.3c-2.8,5.6-8.4,10-15.9,12.6c-1.7,0.6-3.8,1.1-4.6,1.1H213l1.2-2.2c8.1-14.6,13.6-19.4,23.1-20.3l2.9-0.3
						L237.3,654.4z M251.6,646.3c-1.7-0.9-7.7-4.7-8.1-5.2c-0.4-0.4,9.9,5.4,10.4,5.9C254.4,647.5,253,647,251.6,646.3z M285.7,639
						c-0.1,1.3-0.4,2.4-0.5,2.4c-0.2,0-0.7-1.3-1.2-3c-0.8-2.5-0.9-3.8-0.9-7.6c0-5.6,0.7-8.1,4-15c2-4.2,9.9-16.3,10.3-15.8
						c0.5,0.5,0.9,3.8,0.9,8.7c0.1,12.5-2.2,22.9-6.4,29.2c-0.9,1.4-2.2,3.1-2.8,3.8l-1.2,1.4l0.2-1.7c0.6-5.1,1.4-9.8,2.8-16.1
						c1.8-8,1.7-7.4,1.2-7.4C290.7,617.9,286.5,631.5,285.7,639z M348.7,705.2l-3.2,1.6l-7.3-4.7c-10.3-6.6-36.6-23.6-54.7-35.2
						c-10.9-7-10.9-7.1-2.1-2.6c2.8,1.4,5.4,2.5,5.7,2.4c0.8-0.3,3.7,1.4,11.3,6.6c4.5,3,6.9,4.4,8,4.6c1,0.2,9,4.5,23.3,12.8
						c12,6.9,21.9,12.6,22,12.8C351.7,703.5,350.4,704.3,348.7,705.2z M441.8,665.4c-41.4,23.8-75.3,43.3-75.4,43.3
						c-0.1,0-2.1-1.2-4.5-2.6l-4.4-2.5l3.8-2c2.1-1.1,7.8-4.1,12.8-6.6c14.1-7.2,35.8-18.4,42.6-21.9c3.4-1.7,12.5-6.4,20.2-10.4
						c7.7-4,16.9-8.6,20.2-10.4c5.4-2.8,15.7-8.1,39.5-20.3c3.7-1.9,10-5.1,13.9-7.1c3.9-2,7-3.5,6.7-3.3
						C517.3,621.9,483.2,641.6,441.8,665.4z M617.1,554.5l-0.5,9.9l-1,0.7c-1.5,1.1-44.1,25.5-48.2,27.7c-2,1.1-9.8,5.1-17.4,9
						c-51.3,26.3-73.7,37.8-86.6,44.5c-3.4,1.7-12.3,6.3-19.9,10.2c-7.5,3.9-16.5,8.5-19.9,10.2c-3.4,1.8-12.5,6.4-20.2,10.4
						c-7.7,4-16.3,8.4-19.1,9.8c-2.8,1.4-10.5,5.4-17.2,8.8c-6.7,3.4-12.3,6.2-12.5,6.2c-0.7,0-46-26.4-47.6-27.8
						c-0.9-0.8-2.2-1.8-2.7-2.2l-1-0.8l1.3,0.6c0.8,0.4,8.4,4.5,17,9.1c8.6,4.7,20,10.9,25.4,13.8c5.4,2.9,10,5.3,10.3,5.3
						c0.3,0,1.3-0.5,2.3-1.1c1-0.6,6.9-4.2,13-7.8c6.2-3.7,33.3-20,60.4-36.2c139.6-83.8,184-110.3,184.2-110.3
						C617.5,544.6,617.3,549.1,617.1,554.5z M100,461.7v3.8h2.8l0-3.8H100z"/>
				</g>
			</g>
		</g>
	</g>
</g>
<g>
	<g>
		<g>
			<g>
				<rect x="68" y="350.3" class="st0" width="598.9" height="6.8"/>
			</g>
		</g>
		<g>
			<g>
				<rect x="64.2" y="346.6" class="st0" width="606.5" height="14.3"/>
			</g>
		</g>
	</g>
</g>
<g>
	<g>
		<g>
			<g>
				<rect x="68" y="465.4" class="st0" width="598.9" height="6.8"/>
			</g>
		</g>
		<g>
			<g>
				<rect x="64.2" y="461.7" class="st0" width="606.5" height="14.3"/>
			</g>
		</g>
	</g>
</g>
<g>
	<path class="st0" d="M325.4,223c2.7-1.3,5.5,2.6,2.5,3.7c-6.6,2.5-14.1,3.1-21.1,3.6c-5.7,0.4-11.4,0.5-17,0.4
		c-0.2,2.5-0.3,5-0.5,7.5c-0.7,11.1-1.5,22.3-2.1,33.4c-0.5,10.8-1.5,21.6-1.3,32.4c0.1,4.8,0.6,9.8,1.9,14.4
		c0.5,1.9,1.5,3.8,3.5,4.3c2.4,0.6,5-0.5,7-1.7c8.6-5.3,11.6-15.9,14.3-25c0.6-2.2,4.8-1.4,4.1,1c-3,10.9-7.1,24.1-18.5,29
		c-4.8,2.1-10.1,2.4-14.7-0.6c-4.5-3-6.7-7.8-8.2-12.8c-3.4-11.8-3.1-24.6-3.4-36.8c-0.2-12.7,0.2-25.5,1-38.1
		c0.2-2.5,0.3-5,0.5-7.5c-4.1-0.2-8.1-0.4-12.2-0.6c-3.7-0.2-7.4-0.5-11.1-0.3c-0.4,0-0.9,0.1-1.3,0.1c0.4,0.1,0.9,0.3,1.3,0.4
		c2.8,1.1,0.1,4.3-2.3,3.4c-0.8-0.3-1.9,0.2-2.7,0.2c-0.6,0-1.2-0.2-1.8-0.4c-1-0.4-2-1.1-2.3-2.2c-1.1-3.3,3.3-4.7,5.7-5.2
		c4-0.8,8.3-0.4,12.4-0.2c4.3,0.2,8.6,0.4,13,0.6c0.5,0,1,0,1.5,0.1c0.2-2.6,0.4-5.2,0.6-7.7c0.5-6.6,0.9-13.5,3-19.8
		c1.1-3.2,4.6-4.6,7.7-4.3c3.4,0.3,5.6,2.6,6.1,5.8c0.9,6.3,0.1,12.9-0.4,19.3c-0.2,2.4-0.4,4.8-0.5,7.3c2.8,0,5.7,0,8.5,0
		c4.5-0.1,8.9-0.3,13.4-0.8C316.4,225.4,321.3,225,325.4,223L325.4,223z"/>
	<path class="st0" d="M385.8,291c1.1-2.3,5.7-1.5,4.6,1.1c-2.6,6.1-5.7,11.8-9.4,17.3c-2.8,4.2-6.3,9.4-11.9,9.7
		c-13.8,0.9-14.9-20.2-14.6-29.7c0.3-11.9,1.5-23.8,1.7-35.8c0-0.7,0.5-2.8-0.1-3.3c-0.8-0.7-2.4,0.8-3.2,1.4
		c-1.9,1.6-3.5,3.5-5,5.6c-3.3,4.8-6,10.2-8.4,15.5c-4.7,10.6-8.2,21.6-11.7,32.6c-0.1,1.1-0.3,2.3-0.4,3.5c-0.6,5.3-9.8,7-11.2,1.3
		c-0.6-2.5-1.6-5-1.9-7.6c-0.3-2.4-0.4-4.9-0.6-7.3c-0.4-4.5-0.5-9.1-0.7-13.7c-0.3-9.1-0.4-18.2-0.3-27.3c0.2-16,1-32.4,5.1-47.9
		c1.8-6.7,4.4-13.8,9.9-18.4c5-4.2,11.8-5.3,18-3.1c14.5,5.2,6.9,24.6,2.6,34.4c-5.2,12.2-12.5,23.2-19.9,34.2
		c-0.1,4-0.1,7.9-0.2,11.9c-0.1,7.2-0.1,14.4,0,21.5c0,0.8,0,1.6,0,2.4c2.5-7.3,5.2-14.5,8.5-21.4c4.1-8.5,9.6-20.4,19.8-22.6
		c5.9-1.3,10.9,3.3,12.7,8.6c2,5.8,2.4,12.2,2.5,18.3c0.1,12-1.4,24-1.2,36.1c0,1.2-0.2,2.7,0.3,3.9c0.4,0.8-0.4,0.8,0.7,0.3
		c2-1,3.7-3.8,5-5.6C380.3,301.8,383.3,296.5,385.8,291L385.8,291z M328.8,245.2c6.1-9.1,12-18.5,16.2-28.6
		c2.4-5.6,5.1-12.1,5.1-18.2c0-5.6-4.4-13-10.5-8.4c-4,3-5.5,9.1-6.4,13.7c-1.3,6.4-2.1,12.7-2.8,19.2
		C329.5,230.3,329.1,237.8,328.8,245.2z"/>
	<path class="st0" d="M442.3,278.6c-2,7.9-5.1,15.4-9.4,22.3c-3.7,6.1-8.4,12.9-15.2,15.7c-14.1,5.9-26.4-8.1-30.4-20.2
		c-2.6-7.8-2.5-16.2-1.2-24.2c1.3-7.7,4-15.3,9.8-20.7c5.4-4.9,12.9-7.1,19.8-4.6c5.1,1.9,9.9,5.7,9.9,11.7c0,6.4-5.8,11-11,13.4
		c-4.4,2.1-9.1,3-13.8,3c-1.5,8.9-1.7,18,0.3,26.8c1.1,4.7,3.5,9.5,8.5,11.1c5.4,1.7,9.9-1.9,13.3-5.8c7.3-8.5,12.3-18.8,15.1-29.6
		C438.6,275.2,443,276,442.3,278.6z M402,269c-0.2,0.8-0.4,1.5-0.5,2.3c4.6-0.1,9.2-1.4,13.2-3.8c4.8-2.9,9.2-9,4.3-13.9
		c-1.9-1.9-4-2.8-6.6-1.8c-1.8,0.7-3.5,2-4.8,3.5C404.6,258.9,403.1,264.4,402,269L402,269z"/>
</g>
<g>
	<path class="st0" d="M240.5,537.6c1.3-0.8,2.9,1.1,1.4,2c-7.4,4.3-16.2,5.8-24.6,4.4c3.2,3,5.7,6.8,7,11c2.1,7,1,16-3.8,21.7
		c-2.2,2.6-5,3.4-8.3,2.5c-3.9-1.1-5.7-4.5-7.1-8.1c-3-7.7-3.6-16-4-24.2c-0.4-8.3-0.2-16.6,0.4-24.9c0.6-7.8,1.8-15.8,5.2-22.8
		c3-6.3,9.4-13,17.1-10.3c6.1,2.1,8.1,9.7,8.3,15.4c0.6,14.6-9,27-20.2,35.1c-0.7,0.5-1.9,0-2-0.7c0,0.3,0,0.6,0,0.8
		c0.3-0.1,0.7-0.1,1,0C220.5,543.6,231.5,542.9,240.5,537.6L240.5,537.6z M209.8,541.8c0,2.2,0,4.4,0,6.6c0.1,6.8,0.2,13.6,1.6,20.3
		c0.3,1.5,0.7,3.1,1.3,4.5c0.4,1,0.9,2.5,1.9,3.1c2.6,1.4,5.1-3.6,5.9-5.3C225.6,560,220.6,547,209.8,541.8z M209.8,538.6
		c0-0.2,0.1-0.4,0.4-0.6c10.9-8.3,20.3-20.7,18.9-35.1c-0.4-4.2-2.7-12.6-8.7-10.1c-2.3,1-4,3.3-4.9,5.6c-1.3,3-2.3,6-2.9,9.1
		c-1.4,6.5-1.9,13.1-2.2,19.7C210,531,209.9,534.8,209.8,538.6z"/>
	<path class="st0" d="M283.7,538.8c0.5-1.4,3.2-0.9,2.7,0.6c-1.8,5.2-3.6,10.4-6.3,15.3c-2,3.6-4.8,8.3-9.7,7.5
		c-4.8-0.8-6.8-6.3-7.5-10.5c-0.8-4.6-1-9.2-0.9-13.9c-1.2,3.7-2.6,7.3-4.3,10.7c-1.4,3-2.8,6.2-5.1,8.6c-2.4,2.5-5.9,3-9,1.5
		c-6.6-3.3-8.1-12.4-7.1-19c1-7,3.9-14.5,9.9-18.8c2.7-1.9,6.1-3,9.4-2c2.7,0.8,5.3,2.7,6.3,5.4c0.7,1.8-2.2,2.3-3.1,1.1
		c-0.8-1.2-1.5-2.2-3-2.6c-0.9-0.2-1.7-0.1-2.5,0.4c-2.3,1.4-3.8,3.7-5.1,5.9c-2.6,4.5-3.8,9.9-4.1,15c-0.1,2.5-0.1,5.2,0.8,7.6
		c0.5,1.4,1.8,3.5,3.5,3c2.4-0.8,4-3.7,5.2-5.7c1.6-2.5,2.8-5.2,3.9-7.9c1.9-4.5,3.3-9.1,4.6-13.7c0.1-2.8,0.2-6.3,1.9-8.7
		c1.6-2.2,5.9-2.6,7.4,0c1.6,2.8,1.3,6.5,1.1,9.7c-0.1,2.8-0.2,5.6-0.5,8.5c-0.5,5.5-0.8,11-0.6,16.5c0,1.2,0.1,2.5,0.3,3.8
		c0,0.4,0.1,1.5,0.5,1.6c1,0.4,2.4-1.6,2.8-2.2c0.8-1,1.5-2.1,2.1-3.2C280.1,549,281.9,543.9,283.7,538.8L283.7,538.8z"/>
	<path class="st0" d="M338.4,541.5c0.6-1.3,3.2-0.8,2.6,0.6c-1.3,3.2-2.7,6.5-4.5,9.5c-1.6,2.6-3.5,6.3-6.9,6.5
		c-2.9,0.2-5.3-2-6.4-4.5c-1.4-3.2-2-6.8-2.1-10.2c-0.2-6.7,0.5-13.7,1.4-20.3c0.1-0.4,0.4-2.6,0-2.9c-0.1,0-1.5,1.2-1.7,1.4
		c-0.5,0.5-1,1.1-1.5,1.7c-2,2.5-3.4,5.5-4.6,8.4c-2.3,5.6-4.1,11.4-5.4,17.4c0,1.1-0.2,2.2-0.4,3.2c-0.9,3.7-6.6,3-7.8,0
		c-1.2-2.9-0.8-6.7-0.6-9.7c0.2-2.9,0.4-5.9,0.6-8.9c0.2-2.9,0.4-5.8,0.5-8.7c0-1.3,0-2.6,0-3.9c0-0.4,0.2-0.7-0.3-0.7
		c-0.6-0.1-1.3,0.9-1.6,1.2c-3.7,4.2-4.9,10.4-6.1,15.7c-1,4.4-1.8,8.9-2.6,13.4c-0.1,1.6-0.3,3.1-0.8,4.6c0,0,0,0.1,0,0.1
		c0,0.1-0.1,0.2-0.1,0.3c-0.2,0.5-0.4,0.9-0.6,1.4c-0.8,1.4-3.1,1.2-4,0c-1.9-2.5-2.2-5.9-2.5-9c-0.3-2.9-0.4-5.7-0.4-8.6
		c0-6,0.2-12.2,1.4-18.1c0.4-2,2.9-2.7,4.6-2.6c1.8,0.2,3.7,1.5,3.7,3.5c0,4-0.3,8-0.6,12c1-4.1,2.1-8.3,4.4-11.9
		c1.1-1.7,2.5-3.8,4.6-4.2c1.8-0.4,3.8,0.6,5.1,1.9c1.7,1.7,2.5,4.7,3.1,7c0.6,2.7,0.8,5.6,0.8,8.4c0,0.9,0,1.9-0.1,2.8
		c1-3.2,2.2-6.3,3.5-9.4c1.9-4.2,5.4-11.6,11-10.9c3,0.4,4.6,3,5.5,5.6c1.1,3.1,1.3,6.7,1.1,10c-0.1,3.4-0.5,6.7-0.7,10.1
		c-0.2,3-0.5,6.2,0,9.2c0.1,0.5,0.1,1.1,0.3,1.5c0,0.1,0,0.1,0,0.2c0.1,0,0.9-0.6,1.1-0.7c1.2-1,2.1-2.4,2.9-3.7
		C335.9,547.4,337.1,544.4,338.4,541.5L338.4,541.5z"/>
	<path class="st0" d="M344.6,515.9c-1.4-0.2-2.3-1.6-4-4.5c-2.1-3.6-4.3-7.4-2.9-10.7c0.4-1.1,1-1.5,1.3-1.6c1.7-1,4.2-0.1,5.5,1.4
		c0.5,0.6,1,1.3,1.4,2c0.1-0.1,0.2-0.3,0.4-0.5c0.9-1.2,1.5-1.9,1.7-2.1c1-1.1,4-1.2,5.3,0c2.3,2.1-0.6,8.4-3.3,12
		C348.8,513.5,346.8,516.2,344.6,515.9L344.6,515.9z M362.7,539.4c-1.8,5.2-3.6,10.4-6.3,15.3c-2,3.6-4.8,8.3-9.7,7.5
		c-4.8-0.8-6.8-6.3-7.5-10.5c-0.9-5.4-1-10.8-0.9-16.2c0.1-2.6,0.2-5.2,0.4-7.9c0.1-2.8,0.2-6.4,1.9-8.8c1.6-2.2,5.9-2.6,7.4,0
		c1.6,2.8,1.3,6.5,1.1,9.7c-0.1,2.8-0.2,5.6-0.5,8.5c-0.5,5.5-0.8,11-0.6,16.5c0,1.2,0.1,2.5,0.3,3.8c0,0.4,0.1,1.5,0.5,1.6
		c1,0.4,2.4-1.6,2.8-2.2c0.8-1,1.5-2.1,2.1-3.2c2.7-4.6,4.6-9.8,6.4-14.8C360.5,537.4,363.2,537.9,362.7,539.4z"/>
	<path class="st0" d="M367.1,521.8c-0.1,3.7-0.1,7.3-0.2,11c-0.2,4.9-0.3,10,0.3,14.9c0.2,1.9,0.4,4.5,1.6,6.2
		c0.5,0.7,1,1.3,1.9,0.8c1-0.5,1.7-1.4,2.4-2.2c3.1-3.4,5.3-7.4,6.7-11.8c0.5-1.4,3.1-0.9,2.6,0.6c-1.7,5.6-4.7,11.2-8.9,15.3
		c-2.2,2.2-5.8,2.9-8.4,1.1c-2.6-1.9-3.6-5.1-4.4-8.1c-1.5-6-1.8-12.1-1.9-18.3c-0.1-6.1,0.1-12.3,0.8-18.4c0.7-6,1.7-12.1,3.9-17.8
		c1.9-4.9,4.7-9.8,10-11.6c4-1.4,9.5-0.3,11.9,3.4c2.6,4,1.6,9.4,0.2,13.7c-1.5,4.7-3.9,9.1-7.1,12.8
		C375.5,516.7,371.5,520.7,367.1,521.8L367.1,521.8z M367.2,519.3c1.9-0.7,3.6-2.1,5.2-3.4c1.8-1.5,3.5-3.3,4.9-5.1
		c2.8-3.7,4.9-7.9,6.1-12.4c0.9-3.5,1.9-9.3-1.9-11.6c-3.3-2.1-6.9,1.2-8.6,3.8c-2.4,3.6-3.3,8.4-4.1,12.6
		c-0.9,4.8-1.2,9.6-1.5,14.4C367.2,518.2,367.2,518.8,367.2,519.3z"/>
	<path class="st0" d="M429.4,542.5c-1.3,5.8-5.9,10.4-10.9,13.3c-1,0.6-2.1,1.2-3.2,1.7c0,4.7-0.1,9.4-0.4,14.1
		c-0.4,6.8-1.1,13.9-3.2,20.4c-2,6.1-6,11.1-12.2,13.1c-5.5,1.7-12.2,0.8-16.6-3.1c-4.1-3.7-6.7-8.9-7.2-14.4
		c-0.5-5.6,1.6-11.3,5-15.7c3.8-4.9,9.1-8.1,14.9-10.2c3.1-1.1,6.5-2.1,9.9-3.2c-0.1-6.1-0.4-12.2-0.5-18.3
		c-0.4,1.3-0.8,2.5-1.3,3.7c-0.9,2.3-2,4.6-3.2,6.8c-1.2,2.2-2.5,4.5-4.5,6c-4.3,3.1-9.4,0.3-12.3-3.4c-3.3-4.2-3.9-10-4.2-15.2
		c-0.2-2.8,0-5.7,0.1-8.5c0.2-3,0.5-6.2,1.4-9.1c1.2-4,8.6-3.4,8.6,1c0,3.2-0.5,6.4-0.9,9.6c-0.3,2.9-0.6,5.9-0.7,8.9
		c-0.2,2.8,0,5.5,0.4,8.3c0.4,2.2,0.7,5.5,2.9,6.7c2.8,1.5,5.1-2.6,6.2-4.5c1.5-2.6,2.8-5.4,3.9-8.3c1.7-4.5,2.9-9.1,3.9-13.8
		c0.1-2.2,0.3-4.3,0.6-6.5c0.3-2.6,2.3-4,4.8-4.1c2.2-0.1,4.9,1.7,4.8,4.1c-0.2,8.3-0.3,16.5-0.2,24.8c0,2.6,0,5.3,0,7.9
		c5.3-2.7,9.7-6.4,11.5-12.7C427.2,540.5,429.8,541,429.4,542.5z M405.6,562.8c0-0.6,0-1.2,0-1.8c-2.2,0.7-4.5,1.3-6.7,2.1
		c-5.8,2-11.4,4.8-15.2,9.6c-3.4,4.2-5.3,9.5-4.6,15c0.7,5.2,3.7,10,8.7,11.8c4.2,1.4,9.2,1.1,12.3-2.3c3.3-3.7,4.1-9.3,4.6-13.9
		C405.3,576.5,405.6,569.6,405.6,562.8z"/>
</g>
</svg>

