<?xml version="1.0" encoding="utf-8"?>
<!-- Generator: Adobe Illustrator 23.0.5, SVG Export Plug-In . SVG Version: 6.00 Build 0)  -->
<svg height="500" width="500" version="1.1" xmlns="http://www.w3.org/2000/svg" xmlns:xlink="http://www.w3.org/1999/xlink" x="0px" y="0px"
	 viewBox="0 0 720 720" style="enable-background:new 0 0 720 720;" xml:space="preserve">
<style type="text/css">
	.st0{fill:#050002;}
	.st1{fill-rule:evenodd;clip-rule:evenodd;fill:#050002;}
	.st2{fill-rule:evenodd;clip-rule:evenodd;}
	.st3{fill:#221F1F;}
	.st4{fill:#231F20;}
	.st5{fill:#070808;}
	.st6{fill:#211E1F;}
	.st7{fill:#161616;}
	.st8{fill:#131313;}
	.st9{fill:#21201F;}
	.st10{fill:#2C2929;}
</style>
<g>
	<g>
		<g>
			<path class="st0" d="M-14.7,648.4c-0.9-0.5-1.8-0.6-2.8-0.3c-1,0.3-1.7,0.8-2.2,1.7c-0.5,0.9-0.6,1.8-0.3,2.7
				c0.3,0.9,0.8,1.7,1.7,2.2c0.9,0.5,1.8,0.6,2.8,0.3c1-0.3,1.7-0.8,2.2-1.7l0,0c0.5-0.9,0.6-1.8,0.3-2.7
				C-13.3,649.6-13.8,648.9-14.7,648.4z M564.8,518.1c-6.1,9.7-12.1,18.2-17.9,25.7c1.4-2.9,2.8-6.1,4.2-9.5
				c9.1-13.2,15.5-23.8,19.3-31.8c2.3-4.9,4.5-9.7,6.5-14.4h-3.9c-1.6,3.8-3.4,7.6-5.2,11.6c-1.7,3.8-4.3,8.6-7.8,14.4
				c4.1-9.3,7.8-18,11.1-26h-3.7c-3.3,8.2-7.1,17.1-11.3,26.7c-0.1,1.5,0.6,2.2,2.1,2c-0.7,1.1-1.5,2.3-2.2,3.5
				c0.1-0.4,0.2-0.8,0.3-1.2c0.1-0.3,0.1-0.7-0.2-1.3c-0.8-1.2-1.8-1.2-3.1-0.1c-1.8,5.4-3.6,10.5-5.6,15.3
				c-1.3,1.9-2.7,3.9-4.1,5.9c-4.4,7.4-13.8,17.2-28.2,29.6c-0.6-0.7-1.4-1.5-2.4-2.4c-1.2-1-2.7-2-4.8-3.1c-3.4-1.8-7-3-10.9-3.4
				c-5.6-0.5-12.1,0-19.4,1.3c-5.2,0.8-7.8,2.1-7.6,3.7l0,0c0.4,1,1.7,2.5,3.9,4.5c1.4,1.2,3.4,2.6,6.1,4c4.4,2.3,9,3.7,13.8,4.2
				c4,0.4,7.9,0.1,11.9-1.1c-9.5,7.8-20.7,16.4-33.5,25.8c-0.9,1.3-0.6,2.2,0.8,2.8c-1.2,0.6-2.4,1.3-3.7,1.9
				c0.3-0.3,0.6-0.6,0.8-0.9c0.3-0.2,0.4-0.6,0.5-1.2c-0.1-1.4-1-2-2.6-1.6c-4.2,3.8-8.4,7.3-12.5,10.5c-2.1,1-4.3,2-6.5,3.1
				c-7.5,4.2-20.6,8-39.2,11.5c-0.2-0.9-0.5-2-0.9-3.3c-0.5-1.4-1.4-3.1-2.6-5.1c-2.1-3.3-4.6-6.1-7.7-8.4
				c-4.6-3.2-10.4-6.1-17.5-8.5c-5-1.9-7.8-2.1-8.4-0.6l0,0c-0.1,1,0.2,3,1.2,5.8c0.6,1.8,1.7,4,3.3,6.6c2.7,4.2,6,7.7,9.9,10.5
				c3.2,2.4,6.8,4,10.9,5c-12.1,2-26.1,3.8-42,5.6c-1.4,0.7-1.6,1.6-0.7,2.9c-1.3,0-2.7-0.1-4.2-0.2c0.4-0.1,0.8-0.2,1.2-0.3
				c0.3,0,0.7-0.3,1.1-0.8c0.6-1.3,0.1-2.2-1.5-2.7c-5.5,1.2-10.9,2.1-16.1,2.8c-2.3-0.2-4.7-0.4-7.2-0.6
				c-8.6-0.2-21.8-3.4-39.7-9.6c0.3-0.8,0.6-1.9,0.9-3.3c0.3-1.5,0.4-3.4,0.3-5.7c-0.1-3.9-1-7.6-2.5-11.1
				c-2.4-5.1-6-10.5-10.8-16.1c-3.3-4.1-5.7-5.7-7-4.7l0,0c-0.6,0.8-1.3,2.7-1.9,5.6c-0.4,1.8-0.5,4.3-0.4,7.3c0.2,5,1.3,9.7,3.3,14
				c1.6,3.7,3.9,6.9,6.9,9.8c-11.5-4.3-24.5-9.7-39.1-16.1c-1.5-0.1-2.2,0.6-2,2.1c-1.1-0.7-2.3-1.5-3.5-2.2
				c0.4,0.1,0.8,0.2,1.2,0.3c0.3,0.1,0.7,0.1,1.3-0.2c1.2-0.8,1.2-1.8,0.1-3.1c-5.4-1.8-10.5-3.6-15.3-5.6c-1.9-1.3-3.9-2.7-5.9-4.1
				c-7.4-4.4-17.2-13.8-29.6-28.2c0.7-0.6,1.5-1.4,2.4-2.4c1-1.2,2-2.7,3.1-4.8c1.8-3.4,3-7,3.4-10.9c0.5-5.6,0-12.1-1.3-19.4
				c-0.8-5.2-2.1-7.8-3.7-7.6l0,0c-1,0.4-2.5,1.7-4.5,3.9c-1.2,1.4-2.6,3.4-4,6.1c-2.3,4.4-3.7,9-4.2,13.8c-0.4,4-0.1,7.9,1.1,11.9
				c-7.8-9.5-16.4-20.7-25.8-33.5c-1.3-0.9-2.2-0.6-2.8,0.8c-0.6-1.2-1.3-2.4-1.9-3.7c0.3,0.3,0.6,0.6,0.9,0.8
				c0.2,0.3,0.6,0.4,1.2,0.5c1.4-0.1,2-1,1.6-2.6c-3.8-4.2-7.3-8.4-10.5-12.5c-1-2.1-2-4.3-3.1-6.5c-1.7-3.1-3.4-7.3-5.1-12.4h-3.7
				c0.5,1.5,0.9,2.9,1.4,4.2c-0.9-1.4-1.7-2.8-2.6-4.2h-4.6c0,0,0.1,0.1,0.1,0.1c0.2,0.7,0.5,1.4,0.7,2.1c-1.1-0.6-2.2-1.2-3.3-1.9
				c-0.2-0.1-0.4-0.2-0.5-0.4h-3.6c0.1,0.1,0.2,0.1,0.2,0.2c-0.1-0.1-0.2-0.1-0.3-0.2h-4.4c3.9,2.1,7,3.6,9.2,4.5
				c-1.4-0.2-2.8-0.6-4.4-1.1c-2.3-0.7-5.1-1.8-8.5-3.4h-4.6c1.1,0.6,3.1,1.5,5.9,2.8c3,1.3,6,2.4,8.9,3.2c1.8,0.5,3.5,0.7,5,0.8
				c-0.1,0-0.2,0.1-0.3,0.1c-2.3,0.6-4.2,0.8-5.6,0.7c-1.7,0-4.1-0.2-7.1-0.7c-1.3-0.2-2.8-0.7-4.5-1.5c-2.7-1.2-5.3-3.1-7.7-5.5
				h-2.8c2.8,3.1,5.9,5.5,9.4,7.2c2.1,0.9,3.9,1.5,5.6,1.8c3.2,0.5,5.9,0.7,8.3,0.6c1.8-0.1,3.6-0.4,5.5-0.9
				c0.7-0.2,1.3-0.4,1.8-0.6c4.4,11.4,10.3,24.2,17.7,38.2c4.9,10,12,20,21.3,30c10.4,11.2,19.4,19.1,27.1,23.7
				c-2.3-0.3-4.5-0.4-6.5-0.1c-3.6,0.4-6.6,1.1-9.1,2.1c-1,0.3-5,2.4-12,6.1c-0.5,0.2-0.9,0.3-1.3,0.4c-1.8,0-2.7,0.1-2.7,0.3
				c-0.4,0.2-0.6,0.6-0.5,1.1l0,0c0.1,0.3,0.2,0.5,0.5,0.7c1.5,1.1,3.1,2.2,4.8,3.2c1.7,1,3.8,2,6.3,2.9c4.3,1.6,8.6,2.2,12.8,1.9
				c2.3-0.2,4.2-0.6,5.8-1.2c3-1.1,5.5-2.3,7.5-3.6c1.5-1,3-2.2,4.3-3.6c0.5-0.5,0.9-1,1.2-1.4c9.5,7.7,21,15.8,34.4,24.2
				c9.3,6.2,20.4,11.3,33.4,15.3c14.7,4.5,26.4,6.8,35.3,7c-2.1,0.9-4.1,1.9-5.8,3.2c-2.9,2.1-5.2,4.3-6.8,6.3
				c-0.7,0.8-3.2,4.6-7.4,11.2c-0.3,0.4-0.6,0.7-0.9,1c-1.5,0.9-2.2,1.4-2.2,1.6c-0.2,0.4-0.2,0.8,0.1,1.2l0,0
				c0.2,0.2,0.5,0.4,0.8,0.4c1.9,0.2,3.8,0.3,5.7,0.4c2,0,4.3-0.2,6.9-0.6c4.5-0.8,8.5-2.4,12.1-4.7c1.8-1.3,3.3-2.6,4.4-3.9
				c2.1-2.5,3.6-4.8,4.7-6.8c0.8-1.6,1.5-3.4,2-5.3c0.1-0.7,0.3-1.3,0.3-1.9c12.1,1.9,26.1,3.2,41.9,3.8c11.2,0.7,23.4-0.4,36.6-3.5
				c14.9-3.4,26.3-7.3,34-11.6c-1.4,1.8-2.5,3.7-3.4,5.6c-1.5,3.3-2.4,6.3-2.7,8.9c-0.2,1.1-0.5,5.6-0.8,13.4
				c-0.1,0.5-0.2,0.9-0.3,1.3c-0.9,1.6-1.2,2.4-1.1,2.4c0,0.4,0.2,0.8,0.7,1l0,0c0.3,0.1,0.6,0.1,0.9,0c1.7-0.8,3.5-1.6,5.2-2.5
				c1.7-1,3.6-2.3,5.7-4c3.5-2.9,6.2-6.3,8.1-10.1c0.9-2.1,1.5-3.9,1.8-5.6c0.5-3.2,0.7-5.9,0.6-8.3c-0.1-1.8-0.4-3.6-0.9-5.5
				c-0.2-0.7-0.4-1.3-0.6-1.8c11.4-4.4,24.2-10.3,38.2-17.7c10-4.9,20-12,30-21.3c11.2-10.4,19.1-19.4,23.7-27.1
				c-0.3,2.3-0.4,4.5-0.1,6.5c0.4,3.6,1.1,6.6,2.1,9.1c0.3,1,2.4,5,6.1,12c0.2,0.5,0.3,0.9,0.4,1.3c0,1.8,0.1,2.7,0.3,2.7
				c0.2,0.4,0.6,0.6,1.1,0.5l0,0c0.3-0.1,0.6-0.2,0.7-0.5c1.1-1.5,2.2-3.1,3.2-4.8c1-1.7,2-3.8,2.9-6.3c1.6-4.3,2.2-8.6,1.9-12.8
				c-0.2-2.3-0.6-4.2-1.2-5.8c-1.1-3-2.3-5.5-3.6-7.5c-1-1.5-2.2-3-3.6-4.3c-0.5-0.5-1-0.9-1.4-1.2c7.7-9.5,15.8-21,24.2-34.4
				c5.4-8.1,10-17.7,13.8-28.7h-3.8C576.2,498.7,571.2,508.7,564.8,518.1z M276.4,619c-1.9-2.4-3.5-5.3-4.7-8.6
				c-1.6-4.4-2.3-8.7-2.1-13.2c0.1-2.8,0.5-5.4,1.3-7.7l0.3-0.8c0.3,0.2,0.7,0.4,1,0.7c2,1.9,4.7,5.1,8.2,9.8c3,4.3,4.9,7.6,5.8,9.9
				c1.3,3.2,1.9,6.4,2,9.7c0.1,1.8,0,3.4-0.2,4.8c-0.1,0.5-0.2,1-0.3,1.5l-0.9-3l-0.6-1.9c-0.2-0.8-0.5-1.8-0.8-3.2
				c-0.5-2.5-0.8-4.8-0.9-6.9c-0.1-0.3-0.3-0.6-0.7-0.7c-0.4-0.1-0.7,0-1,0.2c-0.2,0.2-0.4,0.5-0.4,0.8c0,0.8,0.1,1.7,0.2,2.9
				c0.3,2.3,0.8,4.7,1.4,7.1c0.2,0.6,0.4,1.4,0.6,2.2l0.9,3c-1.1-2.1-2.1-4.5-2.8-7.2c-0.4-1.3-0.8-3.2-1.3-5.6
				c-0.2-1.1-0.5-3.1-0.9-6c-0.4-0.7-0.9-0.9-1.6-0.5l0,0c-0.3,0.2-0.4,0.5-0.4,0.8c0.3,2.4,0.6,4.2,0.8,5.4
				c0.6,3.5,1.4,6.5,2.3,9.2c0,0.1,0.1,0.2,0.1,0.3c-0.4-0.7-0.8-1.5-1-2.1c-1-2.2-2.5-6.8-4.3-13.7c-0.4-0.6-0.9-0.7-1.6-0.4l0,0
				c-0.3,0.3-0.4,0.6-0.4,1c0.3,1.1,0.8,2.8,1.4,5.2c1.1,4.1,2.3,7.5,3.6,10.1c0.2,0.3,0.3,0.6,0.5,0.9
				C278.7,621.8,277.4,620.4,276.4,619z M178.3,542.8c0.8-4.6,2.4-8.7,4.8-12.4c1.5-2.4,3.1-4.4,4.9-6l0.7-0.6
				c0.2,0.3,0.4,0.7,0.5,1.1c0.8,2.6,1.5,6.8,2.2,12.6c0.5,5.2,0.5,9.1,0.1,11.5c-0.5,3.4-1.5,6.5-3.1,9.4c-0.8,1.6-1.7,2.9-2.5,4
				c-0.3,0.4-0.6,0.8-1,1.2l0.7-3.1l0.5-1.9c0.2-0.8,0.5-1.8,0.9-3.1c0.8-2.4,1.6-4.5,2.6-6.4c0.1-0.3,0-0.7-0.2-0.9
				c-0.3-0.3-0.6-0.4-0.9-0.3h0c-0.3,0.1-0.5,0.2-0.7,0.5c-0.4,0.7-0.8,1.6-1.3,2.7c-0.9,2.1-1.7,4.4-2.3,6.8
				c-0.2,0.6-0.4,1.4-0.6,2.2l-0.7,3.1c0.1-2.4,0.4-4.9,1.2-7.7c0.3-1.4,0.9-3.2,1.7-5.5c0.4-1.1,1.1-2.9,2.2-5.6
				c0-0.8-0.3-1.2-1.1-1.2h0c-0.3,0.1-0.6,0.2-0.8,0.5c-0.9,2.2-1.6,3.9-2,5.1c-1.2,3.3-2,6.4-2.6,9.1c0,0.1,0,0.2-0.1,0.3
				c0-0.9,0.1-1.6,0.2-2.4c0.2-2.4,1.3-7.1,3.1-14.1c0-0.7-0.4-1.1-1.2-1.1l0,0c-0.4,0.1-0.7,0.3-0.8,0.7c-0.3,1.1-0.7,2.8-1.4,5.2
				c-1.1,4.1-1.7,7.7-2,10.6c0,0.3,0,0.7,0,1c-0.6-2-1-3.8-1.3-5.5C177.6,549.5,177.7,546.3,178.3,542.8z M164,559.2
				c-8-8.8-14.7-18.8-20-29.7c-5.3-10.1-9.7-19.6-13.3-28.3c1.8,2.6,3.9,5.5,6.1,8.4c6.9,14.5,12.9,25.3,17.9,32.6
				c8.8,12.7,17.5,24,26.2,33.9C175.9,571.8,170.3,566.2,164,559.2z M199.1,597.2c-1.7,1.6-3.2,2.8-4.5,3.5
				c-1.5,0.9-3.6,1.9-6.4,2.9c-1.3,0.4-2.8,0.8-4.6,1c-3.3,0.3-6.8-0.1-10.6-1.3c-4-1.3-7.4-2.9-10.1-4.9c0.6-0.1,1.2-0.3,1.7-0.6
				c6.7-3.5,10.5-5.5,11.5-5.8c2-0.8,4.7-1.5,7.9-1.9c2.9-0.4,6-0.2,9.2,0.4c1,0.3,1.9,0.5,2.6,0.8c0.6,0.5,1.1,1,1.7,1.5
				c-1.3,0.1-2.5,0.1-3.8,0c-2.3-0.1-5.4-0.5-9.4-1c-0.9-0.1-1.8-0.1-2.7-0.1c-0.4,0-0.7,0.2-0.9,0.6c-0.2,0.4-0.1,0.8,0.2,1.1l0,0
				c0.2,0.2,0.4,0.3,0.6,0.3c1.2,0,2.2,0.1,2.8,0.1c2.6,0.4,4.6,0.6,6,0.7c-1.7,0.1-3.2,0.2-4.6,0.2l-8.9-0.1
				c-0.4,0.1-0.6,0.3-0.8,0.7c-0.1,0.4-0.1,0.7,0.2,1l0,0c0.2,0.2,0.6,0.4,1.2,0.4l8.2,0.1c4.7-0.1,8.3-0.4,10.8-0.7
				c-1.3,0.5-2.8,0.9-4.4,1.3c-3.4,0.8-8.3,1.4-14.7,1.7c-0.8,0.3-0.9,0.9-0.5,1.6l0,0c0.3,0.3,0.7,0.4,1.3,0.3c1,0,3.5-0.2,7.4-0.5
				c3.3-0.4,6.4-0.9,9.3-1.7c1.8-0.5,3.4-1.1,4.8-1.8C199.2,597.1,199.2,597.1,199.1,597.2z M196.4,587.2c-1-0.9-2-1.8-3-2.8
				c-11.2-11.4-22.9-25.7-35-43.1c-2.5-3.4-5.3-8.1-8.6-13.9c23.1,31.8,41.1,53.1,54,63.9C201.2,590,198.8,588.6,196.4,587.2z
				 M267.5,631.8c-11.4-3.7-22.1-8.9-32.2-15.8c-9.6-6.1-18.2-12.1-25.7-17.8c2.9,1.4,6.1,2.8,9.5,4.2c13.2,9.1,23.8,15.5,31.8,19.3
				c14,6.6,27.2,12,39.7,16.3C284.2,636.7,276.5,634.7,267.5,631.8z M316.9,647.1c-0.7,2.3-1.4,4-2.2,5.3c-0.8,1.5-2.2,3.4-4.1,5.8
				c-0.9,1-2,2.1-3.5,3.2c-2.7,1.9-6,3.3-9.8,4.2c-4.1,0.9-7.9,1.2-11.2,0.8h0c0.4-0.4,0.8-0.9,1.2-1.4c4-6.4,6.3-10,7-10.8
				c1.3-1.7,3.3-3.6,5.9-5.6c2.3-1.8,5-3.2,8.2-4.2c1-0.3,1.9-0.5,2.6-0.6c0.7,0.1,1.5,0.3,2.2,0.4c-1.1,0.7-2.2,1.3-3.3,1.9
				c-2,1-4.9,2.3-8.7,3.8c-0.8,0.4-1.6,0.8-2.4,1.3c-0.3,0.2-0.5,0.6-0.5,1c0.1,0.4,0.3,0.7,0.7,0.9l0,0c0.2,0.1,0.5,0.1,0.7,0
				c1.1-0.6,1.9-1,2.5-1.3c2.5-1,4.3-1.8,5.6-2.4c-1.4,0.9-2.7,1.8-3.9,2.5l-7.8,4.4c-0.3,0.2-0.4,0.6-0.4,1
				c0.1,0.4,0.3,0.7,0.7,0.8l0,0c0.3,0.1,0.7,0,1.2-0.3l7.1-4c4-2.5,7-4.5,9-6c-0.9,1.1-1.9,2.1-3.2,3.3c-2.5,2.4-6.5,5.3-11.9,8.8
				c-0.5,0.7-0.4,1.2,0.4,1.7l0,0c0.4,0.1,0.8,0,1.3-0.4c0.9-0.5,2.9-1.9,6.1-4.2c2.7-1.9,5.1-4,7.2-6.1c1.3-1.4,2.4-2.7,3.2-3.9
				C316.9,646.9,316.9,647,316.9,647.1z M309.6,639.8c-1.3-0.3-2.7-0.6-4-0.9c-15.4-4.2-32.7-10.8-51.9-19.8
				c-3.8-1.7-8.6-4.3-14.4-7.8c35.9,16,62.2,25.4,78.7,28.3C315.2,639.8,312.3,639.8,309.6,639.8z M394.7,627.4
				c-2.9-1.1-5.7-2.9-8.4-5.1c-3.5-3-6.3-6.4-8.4-10.3c-1.4-2.5-2.3-4.9-2.7-7.3l-0.2-0.9c0.4,0,0.8,0,1.3,0.1
				c2.7,0.6,6.7,2.1,12,4.4c4.8,2.2,8.1,4.1,10,5.7c2.7,2.1,4.9,4.6,6.6,7.4c1,1.5,1.7,2.9,2.2,4.2c0.2,0.4,0.3,0.9,0.5,1.5
				l-2.3-2.2l-1.4-1.4c-0.6-0.6-1.3-1.3-2.3-2.4c-1.7-1.9-3.1-3.7-4.2-5.5c-0.3-0.2-0.6-0.3-0.9-0.3c-0.4,0.1-0.6,0.3-0.7,0.6
				c-0.1,0.3-0.1,0.6,0,0.8c0.4,0.7,0.9,1.5,1.7,2.4c1.4,1.9,3,3.7,4.8,5.4c0.5,0.5,1,1,1.7,1.6l2.3,2.2c-2-1.2-4.1-2.8-6.1-4.8
				c-1-1-2.3-2.4-3.9-4.2c-0.7-0.8-2-2.4-3.8-4.7c-0.7-0.4-1.2-0.3-1.6,0.4l0,0c-0.1,0.3-0.1,0.6,0.1,0.9c1.5,1.9,2.6,3.4,3.4,4.3
				c2.3,2.7,4.5,4.9,6.6,6.8c0.1,0.1,0.2,0.1,0.3,0.2c-0.7-0.4-1.4-0.9-1.9-1.3c-2-1.4-5.5-4.7-10.6-9.7c-0.7-0.3-1.2-0.2-1.5,0.5
				l0,0c-0.1,0.4-0.1,0.7,0.2,1c0.8,0.8,2.1,2.1,3.8,3.8c3.1,3,5.8,5.3,8.2,7c0.3,0.2,0.6,0.4,0.9,0.5
				C398.1,628.6,396.3,628,394.7,627.4z M393.4,642.9c-11.7,2.5-23.6,3.3-35.7,2.4c-11.4-0.5-21.8-1.4-31.2-2.6
				c3.2-0.3,6.7-0.6,10.4-1.1c16,1.3,28.4,1.5,37.2,0.8c15.4-1.3,29.6-3.2,42.5-5.8C410.3,638.8,402.6,640.9,393.4,642.9z M430,630
				c-15.5,4-33.7,7-54.8,8.8c-4.2,0.4-9.7,0.6-16.4,0.4c39.1-4.1,66.6-9,82.3-14.8c-2.4,1.5-4.9,3-7.3,4.3
				C432.6,629.2,431.3,629.6,430,630z M443.9,644.1c-0.2,1.3-0.7,2.8-1.5,4.5c-1.4,3-3.5,5.9-6.4,8.6c-3.1,2.8-6.2,5-9.3,6.3
				c0.2-0.6,0.3-1.2,0.3-1.8c0.3-7.5,0.5-11.8,0.7-12.8c0.3-2.2,1-4.8,2.3-7.8c1.1-2.7,2.8-5.3,5-7.8c0.7-0.7,1.4-1.3,2-1.8
				c0.7-0.2,1.4-0.5,2.1-0.7c-0.6,1.1-1.2,2.2-1.9,3.3c-1.2,1.9-3.1,4.4-5.6,7.7c-0.5,0.7-1,1.5-1.4,2.3c-0.2,0.4-0.2,0.7,0.1,1.1
				c0.3,0.3,0.6,0.5,1,0.4l0,0c0.3-0.1,0.5-0.2,0.6-0.4c0.6-1.1,1.1-1.8,1.5-2.3c1.6-2.1,2.8-3.7,3.6-4.8c-0.7,1.5-1.5,2.9-2.1,4.1
				l-4.5,7.7c-0.1,0.4-0.1,0.7,0.2,1c0.3,0.3,0.6,0.4,1,0.3l0,0c0.3,0,0.6-0.3,0.9-0.8l4.2-7.1c2.2-4.2,3.8-7.4,4.8-9.7
				c-0.2,1.4-0.6,2.8-1.1,4.4c-1,3.3-2.9,7.8-5.9,13.5c-0.1,0.8,0.3,1.3,1.2,1.3l0,0c0.4-0.1,0.7-0.4,0.9-0.9
				c0.5-0.9,1.6-3.1,3.2-6.7c1.3-3,2.4-6,3.2-8.9c0.5-1.8,0.7-3.5,0.8-5c0,0.1,0.1,0.2,0.1,0.3c0.6,2.3,0.8,4.2,0.7,5.6
				C444.7,638.8,444.4,641.2,443.9,644.1z M501.4,575.5c-3.1,0.5-6.4,0.4-9.8-0.3c-4.6-0.8-8.7-2.4-12.4-4.8c-2.4-1.5-4.4-3.1-6-4.9
				l-0.6-0.7c0.3-0.2,0.7-0.4,1.1-0.5c2.6-0.8,6.8-1.5,12.6-2.2c5.2-0.4,9.1-0.5,11.5-0.1c3.4,0.5,6.5,1.5,9.4,3.1
				c1.6,0.8,2.9,1.7,4,2.5c0.4,0.3,0.8,0.6,1.2,1l-3.1-0.7l-1.9-0.5c-0.8-0.2-1.8-0.5-3.2-0.9c-2.4-0.8-4.5-1.6-6.4-2.6
				c-0.3-0.1-0.7,0-0.9,0.2c-0.3,0.3-0.4,0.6-0.3,0.9v0c0.1,0.3,0.2,0.5,0.5,0.7c0.7,0.4,1.6,0.8,2.7,1.3c2.1,0.9,4.4,1.7,6.8,2.3
				c0.6,0.2,1.4,0.4,2.2,0.6l3.1,0.7c-2.4-0.1-4.9-0.4-7.7-1.2c-1.4-0.3-3.2-0.9-5.5-1.7c-1.1-0.4-2.9-1.1-5.6-2.2
				c-0.8,0-1.2,0.3-1.2,1.2v0c0.1,0.3,0.2,0.6,0.5,0.8c2.2,0.9,3.9,1.6,5.1,2c3.3,1.2,6.4,2,9.1,2.6c0.1,0,0.2,0,0.3,0.1
				c-0.9,0-1.6-0.1-2.4-0.2c-2.4-0.2-7.1-1.3-14.1-3.1c-0.7,0-1.1,0.4-1.1,1.2l0,0c0.1,0.4,0.3,0.7,0.7,0.8c1.1,0.3,2.8,0.7,5.2,1.4
				c4.1,1.1,7.7,1.7,10.6,2c0.3,0,0.7,0,1,0C504.9,574.8,503.1,575.2,501.4,575.5z M508,589.5c-8.8,8-18.8,14.7-29.7,20
				c-10.1,5.3-19.6,9.7-28.3,13.3c2.6-1.8,5.4-3.9,8.4-6.1c14.5-6.9,25.3-12.8,32.6-17.9c12.7-8.8,24-17.5,33.9-26.2
				C520.6,577.6,515,583.2,508,589.5z M536,557.1c-0.9,1-1.8,2-2.7,3c-11.4,11.2-25.7,22.9-43.1,35c-3.4,2.5-8.1,5.3-14,8.6
				c31.8-23.1,53.1-41.1,63.9-54C538.8,552.2,537.4,554.7,536,557.1z M549.8,575.6c0-1-0.2-3.5-0.5-7.4c-0.4-3.3-0.9-6.4-1.7-9.3
				c-0.5-1.8-1.1-3.4-1.8-4.8c0.1,0.1,0.1,0.1,0.2,0.2c1.6,1.7,2.8,3.2,3.5,4.5c0.9,1.5,1.9,3.6,2.9,6.4c0.4,1.3,0.8,2.8,1,4.6
				c0.3,3.3-0.1,6.8-1.2,10.6c-1.3,4-2.9,7.4-4.9,10.1c-0.1-0.6-0.3-1.2-0.6-1.7c-3.5-6.7-5.5-10.5-5.8-11.5c-0.8-2-1.5-4.7-1.9-7.9
				c-0.4-2.9-0.2-6,0.4-9.2c0.3-1,0.5-1.9,0.8-2.6c0.5-0.6,1-1.1,1.5-1.7c0.1,1.3,0.1,2.5,0,3.8c-0.1,2.3-0.5,5.4-1,9.4
				c-0.1,0.9-0.1,1.8-0.1,2.7c0,0.4,0.2,0.7,0.6,0.9c0.4,0.2,0.8,0.1,1.1-0.2l0,0c0.2-0.2,0.3-0.4,0.3-0.6c0-1.2,0-2.2,0.1-2.8
				c0.4-2.6,0.6-4.6,0.7-6c0.1,1.7,0.2,3.2,0.2,4.6l-0.1,8.9c0.1,0.4,0.3,0.6,0.7,0.8c0.4,0.1,0.7,0.1,1-0.2l0,0
				c0.2-0.2,0.4-0.6,0.4-1.2l0.1-8.2c-0.1-4.7-0.4-8.3-0.7-10.8c0.5,1.3,0.9,2.8,1.2,4.4c0.8,3.4,1.4,8.3,1.7,14.7
				c0.3,0.8,0.9,0.9,1.6,0.5l0,0C549.8,576.6,549.9,576.2,549.8,575.6z M615.3,328.2c-0.8-1.7-1.6-3.5-2.5-5.2c-1-1.7-2.3-3.6-4-5.7
				c-2.9-3.5-6.3-6.2-10.1-8.1c-2.1-0.9-3.9-1.5-5.6-1.8c-3.2-0.5-5.9-0.7-8.3-0.6c-1.8,0.1-3.6,0.4-5.5,0.9
				c-0.7,0.2-1.3,0.4-1.8,0.6c-4.4-11.4-10.3-24.2-17.7-38.2c-4.9-10-12-20-21.3-30c-10.4-11.2-19.4-19.1-27.1-23.7
				c2.3,0.3,4.5,0.4,6.5,0.1c3.6-0.4,6.6-1.1,9.1-2.1c1-0.3,5-2.4,12-6.1c0.5-0.2,0.9-0.3,1.3-0.4c1.8,0,2.7-0.1,2.7-0.3
				c0.4-0.2,0.6-0.6,0.5-1.1l0,0c-0.1-0.3-0.2-0.6-0.5-0.7c-1.5-1.1-3.1-2.2-4.8-3.2c-1.7-1-3.8-2-6.3-2.9
				c-4.3-1.6-8.6-2.2-12.8-1.9c-2.3,0.2-4.2,0.6-5.8,1.2c-3,1.1-5.5,2.3-7.5,3.6c-1.5,1-3,2.2-4.3,3.6c-0.5,0.5-0.9,1-1.2,1.4
				c-9.5-7.7-21-15.8-34.4-24.2c-9.3-6.2-20.4-11.3-33.4-15.3c-14.7-4.5-26.4-6.8-35.3-7c2.2-0.9,4.1-1.9,5.8-3.2
				c2.9-2.1,5.2-4.3,6.8-6.3c0.7-0.8,3.2-4.6,7.4-11.2c0.3-0.4,0.6-0.7,0.9-1c1.5-0.9,2.2-1.4,2.2-1.6c0.2-0.4,0.2-0.8-0.1-1.2l0,0
				c-0.2-0.2-0.5-0.4-0.8-0.4c-1.9-0.2-3.8-0.3-5.7-0.4c-2,0-4.3,0.2-6.9,0.6c-4.5,0.8-8.5,2.4-12.1,4.7c-1.8,1.3-3.3,2.6-4.4,3.9
				c-2.1,2.5-3.6,4.8-4.7,6.8c-0.8,1.6-1.5,3.3-2,5.3c-0.1,0.7-0.3,1.3-0.3,1.9c-12.1-1.9-26.1-3.2-41.9-3.8
				c-11.2-0.7-23.4,0.4-36.6,3.5c-14.9,3.4-26.3,7.3-34,11.6c1.4-1.8,2.5-3.7,3.4-5.6c1.5-3.3,2.4-6.3,2.7-8.9
				c0.2-1.1,0.5-5.6,0.8-13.4c0.1-0.5,0.2-0.9,0.3-1.3c0.9-1.6,1.2-2.4,1.1-2.4c0-0.4-0.2-0.8-0.7-1l0,0c-0.3-0.1-0.6-0.1-0.9,0.1
				c-1.7,0.8-3.5,1.6-5.2,2.5c-1.7,1-3.6,2.3-5.7,4c-3.5,2.9-6.2,6.3-8.1,10.1c-0.9,2.1-1.5,3.9-1.8,5.6c-0.5,3.2-0.7,5.9-0.6,8.3
				c0.1,1.8,0.4,3.6,0.9,5.5c0.2,0.7,0.4,1.2,0.6,1.8c-11.4,4.4-24.2,10.3-38.2,17.7c-10,4.9-20,12-30,21.3
				c-11.2,10.4-19.1,19.4-23.7,27.1c0.3-2.3,0.4-4.5,0.1-6.5c-0.4-3.6-1.1-6.6-2.1-9.1c-0.3-1-2.4-5-6.1-12
				c-0.2-0.5-0.3-0.9-0.4-1.3c0-1.8-0.1-2.7-0.3-2.6c-0.2-0.4-0.6-0.6-1.1-0.5l0,0c-0.3,0.1-0.6,0.2-0.7,0.5
				c-1.1,1.5-2.2,3.1-3.2,4.8c-1,1.7-2,3.8-2.9,6.3c-1.6,4.3-2.2,8.6-1.9,12.8c0.2,2.3,0.6,4.2,1.2,5.7c1.1,3,2.3,5.5,3.6,7.5
				c1,1.5,2.2,3,3.6,4.3c0.5,0.5,1,0.9,1.4,1.2c-7.7,9.5-15.8,21-24.2,34.4c-6.2,9.3-11.3,20.4-15.3,33.4c-4.5,14.7-6.8,26.4-7,35.3
				c-0.9-2.2-1.9-4.1-3.2-5.8c-2.1-2.9-4.3-5.2-6.3-6.8c-0.8-0.7-4.6-3.2-11.2-7.4c-0.4-0.3-0.7-0.6-1-0.9c-0.9-1.5-1.4-2.2-1.6-2.2
				c-0.4-0.2-0.8-0.2-1.2,0.1l0,0c-0.2,0.2-0.4,0.5-0.4,0.8c-0.2,1.9-0.3,3.8-0.4,5.7c0,2,0.2,4.3,0.6,6.9c0.8,4.5,2.4,8.5,4.7,12.1
				c1.3,1.8,2.6,3.3,3.9,4.4c1.8,1.5,3.5,2.7,5.1,3.7h4.5c-1.1-0.4-2-0.9-2.7-1.3c-1.5-0.8-3.4-2.2-5.8-4.1c-1-0.9-2.1-2-3.2-3.5
				c-1.9-2.7-3.3-6-4.2-9.8c-0.9-4.1-1.2-7.9-0.8-11.2v0c0.4,0.4,0.9,0.8,1.4,1.2c6.4,4,10,6.3,10.8,7c1.7,1.3,3.6,3.3,5.6,5.9
				c1.8,2.3,3.2,5,4.2,8.2c0.3,1,0.5,1.9,0.6,2.6c-0.1,0.7-0.3,1.5-0.4,2.2c-0.7-1.1-1.3-2.2-1.9-3.3c-1-2-2.3-4.9-3.8-8.7
				c-0.4-0.8-0.8-1.6-1.3-2.4c-0.2-0.3-0.6-0.5-1-0.5c-0.4,0.1-0.7,0.3-0.9,0.7l0,0c-0.1,0.2-0.1,0.5,0,0.7c0.6,1.1,1,1.9,1.3,2.5
				c1,2.5,1.8,4.3,2.4,5.6c-0.9-1.4-1.8-2.7-2.5-3.9l-4.4-7.8c-0.2-0.3-0.6-0.4-1-0.4c-0.4,0.1-0.7,0.3-0.8,0.7l0,0
				c-0.1,0.3,0,0.7,0.3,1.2l4,7.1c2.5,4,4.5,7,6,9c-1.1-0.9-2.1-1.9-3.3-3.2c-2.4-2.5-5.3-6.5-8.8-11.9c-0.7-0.5-1.2-0.4-1.7,0.4
				l0,0c-0.1,0.4,0,0.8,0.4,1.3c0.5,0.9,1.9,2.9,4.2,6.1c1.9,2.7,4,5.1,6.1,7.2c0.9,0.9,1.8,1.7,2.7,2.3h8.3
				c-0.1-2.2-0.1-4.4-0.1-6.5c0.3-1.3,0.6-2.7,0.9-3.9c4.2-15.4,10.8-32.7,19.8-51.9c1.7-3.8,4.3-8.6,7.8-14.4
				c-15.4,34.5-24.7,60.1-28,76.7h3.6c1.6-7.3,4.2-16.3,7.9-26.9c0.8,0.3,1.9,0.6,3.3,0.9c1.5,0.3,3.4,0.4,5.7,0.3
				c3.9-0.1,7.6-1,11.1-2.5c5.1-2.4,10.5-6,16.1-10.8c4.1-3.3,5.7-5.7,4.7-7l0,0c-0.8-0.6-2.7-1.3-5.6-1.9c-1.8-0.4-4.3-0.5-7.3-0.4
				c-5,0.2-9.7,1.3-14,3.3c-3.7,1.6-6.9,3.9-9.8,6.9c4.3-11.5,9.7-24.5,16.1-39.1c0.1-1.5-0.6-2.2-2.1-2c0.7-1.1,1.5-2.3,2.2-3.5
				c-0.1,0.4-0.2,0.8-0.3,1.2c-0.1,0.3-0.1,0.7,0.2,1.3c0.8,1.2,1.8,1.2,3.1,0.1c1.8-5.4,3.6-10.5,5.6-15.3c1.3-1.9,2.7-3.9,4.1-5.9
				c4.4-7.4,13.8-17.2,28.2-29.6c0.6,0.7,1.4,1.5,2.4,2.4c1.2,1,2.7,2,4.8,3.1c3.4,1.8,7,3,10.9,3.4c5.6,0.5,12.1,0,19.4-1.3
				c5.2-0.8,7.8-2.1,7.6-3.7l0,0c-0.4-1-1.7-2.5-3.9-4.5c-1.4-1.2-3.4-2.6-6.1-4c-4.4-2.3-9-3.7-13.8-4.2c-4-0.4-7.9-0.1-11.9,1.1
				c9.5-7.8,20.7-16.4,33.5-25.8c0.9-1.3,0.6-2.2-0.8-2.8c1.2-0.6,2.4-1.3,3.7-1.9c-0.3,0.3-0.6,0.6-0.8,0.9
				c-0.3,0.2-0.4,0.6-0.5,1.2c0.1,1.4,1,2,2.6,1.6c4.2-3.8,8.4-7.3,12.5-10.5c2.1-1,4.3-2,6.5-3.1c7.5-4.2,20.6-8,39.2-11.5
				c0.2,0.9,0.5,2,0.9,3.3c0.5,1.4,1.4,3.1,2.6,5.1c2.1,3.3,4.6,6.1,7.7,8.4c4.6,3.2,10.4,6.1,17.5,8.5c5,1.9,7.8,2.1,8.4,0.6l0,0
				c0.1-1-0.2-3-1.2-5.8c-0.6-1.8-1.7-4-3.3-6.6c-2.7-4.2-6-7.7-9.9-10.5c-3.2-2.4-6.8-4-10.9-5c12.1-2,26.1-3.8,42-5.6
				c1.4-0.7,1.6-1.6,0.7-2.9c1.3,0,2.7,0.1,4.2,0.2c-0.4,0.1-0.8,0.2-1.2,0.3c-0.3,0-0.7,0.3-1.1,0.8c-0.6,1.3-0.1,2.2,1.5,2.7
				c5.5-1.2,10.9-2.1,16.1-2.8c2.3,0.2,4.7,0.4,7.2,0.6c8.6,0.2,21.8,3.4,39.7,9.6c-0.3,0.8-0.6,1.9-0.9,3.3
				c-0.3,1.5-0.4,3.4-0.3,5.7c0.1,3.9,1,7.6,2.5,11.1c2.4,5.1,6,10.5,10.8,16.1c3.3,4.1,5.7,5.7,7,4.7l0,0c0.6-0.8,1.3-2.7,1.9-5.7
				c0.4-1.8,0.5-4.3,0.4-7.3c-0.2-5-1.3-9.7-3.3-14c-1.6-3.7-3.9-6.9-6.9-9.8c11.5,4.3,24.5,9.7,39.1,16.1c1.5,0.1,2.2-0.6,2-2.1
				c1.1,0.7,2.3,1.5,3.5,2.2c-0.4-0.1-0.8-0.2-1.2-0.3c-0.3-0.1-0.7-0.1-1.3,0.2c-1.2,0.8-1.2,1.8-0.1,3.1
				c5.4,1.8,10.5,3.6,15.3,5.6c1.9,1.3,3.9,2.7,5.9,4.1c7.4,4.4,17.2,13.8,29.6,28.2c-0.7,0.6-1.5,1.4-2.4,2.4c-1,1.2-2,2.7-3.1,4.8
				c-1.8,3.4-3,7-3.4,10.9c-0.5,5.6,0,12.1,1.3,19.4c0.8,5.2,2.1,7.8,3.7,7.6l0,0c1-0.4,2.5-1.7,4.5-3.9c1.2-1.4,2.6-3.4,4-6.1
				c2.3-4.4,3.7-9,4.2-13.8c0.4-4,0.1-7.9-1.1-11.9c7.8,9.5,16.4,20.7,25.8,33.5c1.3,0.9,2.2,0.6,2.8-0.8c0.6,1.2,1.3,2.4,1.9,3.7
				c-0.3-0.3-0.6-0.6-0.9-0.8c-0.2-0.3-0.6-0.4-1.2-0.5c-1.4,0.1-2,1-1.6,2.6c3.8,4.2,7.3,8.4,10.5,12.5c1,2.1,2,4.3,3.1,6.5
				c4.2,7.5,8,20.6,11.5,39.2c-0.9,0.2-2,0.5-3.3,0.9c-1.4,0.5-3.1,1.4-5.1,2.6c-3.3,2.1-6.1,4.6-8.4,7.7c-2.5,3.5-4.7,7.8-6.7,12.7
				h2.2c0.3-0.7,0.6-1.4,0.9-2.1c2.2-4.8,4.1-8.1,5.7-10c2.1-2.7,4.6-4.9,7.4-6.6c1.5-1,2.9-1.7,4.2-2.2c0.4-0.2,0.9-0.3,1.5-0.5
				l-2.2,2.3l-1.4,1.4c-0.6,0.6-1.3,1.3-2.4,2.3c-1.9,1.7-3.7,3.1-5.5,4.2c-0.2,0.3-0.3,0.6-0.3,0.9c0.1,0.4,0.3,0.6,0.6,0.7h0
				c0.3,0.1,0.6,0.1,0.8,0c0.7-0.4,1.5-0.9,2.4-1.7c1.9-1.4,3.7-3,5.4-4.8c0.5-0.5,1-1,1.6-1.7l2.2-2.3c-1.2,2-2.8,4-4.8,6.1
				c-1,1-2.4,2.3-4.2,3.9c-0.8,0.7-2.4,2-4.7,3.8c-0.4,0.7-0.3,1.2,0.4,1.6l0,0c0.3,0.1,0.6,0.1,0.9-0.1c1.9-1.5,3.4-2.6,4.3-3.4
				c2.7-2.3,4.9-4.5,6.8-6.6c0.1-0.1,0.1-0.2,0.2-0.3c-0.4,0.7-0.9,1.4-1.3,1.9c-1.4,2-4.7,5.5-9.7,10.6c-0.3,0.7-0.2,1.2,0.5,1.5
				l0,0c0.4,0.1,0.7,0.1,1-0.2c0.8-0.8,2.1-2.1,3.8-3.8c3-3.1,5.3-5.8,7-8.2c0.2-0.3,0.4-0.6,0.5-0.9c-0.5,2-1,3.8-1.6,5.4
				c-1.1,2.9-2.9,5.7-5.1,8.4c0,0-0.1,0.1-0.1,0.1h2.6c0.3-0.4,0.6-0.7,0.8-1.1c2.4-3.2,4-6.8,5-10.9c0.6,3.8,1.2,7.8,1.8,12h3.5
				c-3.4-24.8-7.2-43.1-11.5-54.9c1.5,2.4,3,4.9,4.3,7.3c0.4,1.3,0.8,2.6,1.2,3.9c3.3,12.7,5.9,27.3,7.7,43.8h3.6
				c-1.2-10.8-2.7-20.9-4.6-30.4c2.1,6.2,4.2,14,6.2,23.1c0.5,2.4,0.9,4.8,1.3,7.2h3.6c-0.6-3.8-1.3-7.7-2.2-11.7
				c-3.4-14.9-7.3-26.3-11.6-34c1.8,1.4,3.7,2.5,5.6,3.4c3.3,1.5,6.3,2.4,8.9,2.7c1.1,0.2,5.6,0.5,13.4,0.8c0.5,0.1,0.9,0.2,1.3,0.3
				c1.6,0.9,2.4,1.2,2.4,1.1c0.4,0,0.8-0.2,1-0.7l0,0C615.4,328.8,615.4,328.5,615.3,328.2z M147.1,330.3L147.1,330.3
				c-0.2-0.3-0.5-0.4-0.9-0.4c-2.4,0.3-4.2,0.6-5.4,0.8c-3.5,0.6-6.5,1.4-9.2,2.3c-0.1,0-0.2,0.1-0.3,0.1c0.7-0.4,1.5-0.8,2.1-1
				c2.2-1,6.8-2.5,13.7-4.3c0.6-0.4,0.7-0.9,0.4-1.6l0,0c-0.3-0.3-0.6-0.4-1-0.4c-1.1,0.3-2.8,0.8-5.2,1.4
				c-4.1,1.1-7.5,2.3-10.1,3.6c-0.3,0.2-0.6,0.3-0.9,0.5c1.4-1.5,2.8-2.8,4.1-3.8c2.4-1.9,5.3-3.5,8.6-4.7c4.4-1.6,8.7-2.2,13.2-2.1
				c2.8,0.1,5.4,0.5,7.7,1.3l0.8,0.3c-0.2,0.3-0.4,0.7-0.7,1c-1.9,2-5.1,4.7-9.8,8.2c-4.3,3-7.6,4.9-9.9,5.8c-3.2,1.3-6.4,1.9-9.7,2
				c-1.8,0.1-3.4,0-4.8-0.2c-0.5-0.1-1-0.2-1.5-0.3l3-0.9l1.9-0.6c0.8-0.2,1.8-0.5,3.2-0.8c2.5-0.5,4.8-0.8,6.9-0.9
				c0.3-0.1,0.6-0.3,0.7-0.7c0.1-0.4,0-0.7-0.2-1v0c-0.2-0.2-0.5-0.4-0.8-0.4c-0.8,0-1.7,0.1-2.9,0.2c-2.3,0.3-4.7,0.8-7.1,1.4
				c-0.6,0.2-1.4,0.4-2.2,0.6l-3,0.9c2.1-1.1,4.5-2.1,7.2-2.8c1.3-0.4,3.2-0.8,5.6-1.3c1.1-0.2,3.1-0.5,6-0.9
				C147.3,331.5,147.5,331,147.1,330.3z M151.1,270.3c-9.1,13.2-15.5,23.8-19.3,31.8c-6.6,14-12,27.2-16.3,39.7
				c1.3-6.5,3.3-14.2,6.2-23.1c3.7-11.4,8.9-22.1,15.8-32.2c6.1-9.6,12.1-18.2,17.8-25.7C153.9,263.8,152.5,266.9,151.1,270.3z
				 M160.7,248.6c-0.1-1.3-0.1-2.5,0-3.8c0.1-2.3,0.5-5.4,1-9.4c0.1-0.9,0.1-1.8,0.1-2.7c0-0.4-0.2-0.7-0.6-0.9
				c-0.4-0.2-0.8-0.1-1.1,0.2l0,0c-0.2,0.2-0.3,0.4-0.3,0.6c0,1.2,0,2.2-0.1,2.8c-0.4,2.6-0.6,4.6-0.7,6c-0.1-1.7-0.2-3.2-0.2-4.6
				l0.1-8.9c-0.1-0.4-0.3-0.6-0.7-0.8c-0.4-0.1-0.7-0.1-1,0.2l0,0c-0.2,0.2-0.4,0.6-0.4,1.2l-0.1,8.2c0.1,4.7,0.4,8.3,0.7,10.8
				c-0.5-1.3-0.9-2.8-1.2-4.4c-0.8-3.4-1.4-8.3-1.7-14.7c-0.3-0.8-0.9-0.9-1.6-0.5l0,0c-0.3,0.3-0.4,0.7-0.3,1.3
				c0,1,0.2,3.5,0.5,7.4c0.4,3.3,0.9,6.4,1.7,9.3c0.5,1.8,1.1,3.4,1.8,4.8c-0.1-0.1-0.1-0.1-0.2-0.2c-1.6-1.7-2.8-3.2-3.5-4.5
				c-0.9-1.5-1.9-3.6-2.9-6.4c-0.4-1.3-0.8-2.8-1-4.6c-0.3-3.3,0.1-6.8,1.2-10.6c1.3-4,2.9-7.4,4.9-10.1c0.1,0.6,0.3,1.2,0.6,1.7
				c3.5,6.7,5.5,10.5,5.8,11.5c0.8,2,1.5,4.7,1.9,7.9c0.4,2.9,0.2,6-0.4,9.2c-0.3,1-0.5,1.9-0.8,2.6
				C161.7,247.4,161.2,248,160.7,248.6z M200.9,229.2c3.1-0.5,6.4-0.4,9.8,0.3c4.6,0.8,8.7,2.4,12.4,4.8c2.4,1.5,4.4,3.1,6,4.9
				l0.6,0.7c-0.3,0.2-0.7,0.4-1.1,0.5c-2.6,0.8-6.8,1.5-12.6,2.2c-5.2,0.4-9.1,0.5-11.5,0.1c-3.4-0.5-6.5-1.5-9.4-3.1
				c-1.6-0.8-2.9-1.7-4-2.6c-0.4-0.3-0.8-0.6-1.2-1l3.1,0.7l1.9,0.5c0.8,0.2,1.8,0.5,3.2,0.9c2.4,0.8,4.5,1.6,6.4,2.7
				c0.3,0.1,0.7,0,0.9-0.2c0.3-0.3,0.4-0.6,0.3-0.9v0c-0.1-0.3-0.2-0.5-0.5-0.7c-0.7-0.4-1.6-0.8-2.7-1.3c-2.1-0.9-4.4-1.7-6.8-2.3
				c-0.6-0.2-1.4-0.4-2.2-0.6l-3.1-0.7c2.4,0.1,4.9,0.4,7.7,1.2c1.4,0.3,3.2,0.9,5.5,1.7c1.1,0.4,2.9,1.1,5.6,2.2
				c0.8,0,1.2-0.3,1.2-1.2v0c-0.1-0.3-0.2-0.6-0.5-0.8c-2.2-0.9-3.9-1.6-5.1-2c-3.3-1.2-6.4-2-9.1-2.6c-0.1,0-0.2,0-0.3-0.1
				c0.9,0,1.6,0.1,2.4,0.2c2.4,0.2,7.1,1.3,14.1,3.1c0.7,0,1.1-0.4,1.1-1.2l0,0c-0.1-0.4-0.3-0.7-0.7-0.8c-1.1-0.3-2.8-0.7-5.2-1.4
				c-4.1-1.1-7.7-1.7-10.6-2c-0.3,0-0.7,0-1,0C197.3,229.9,199.2,229.5,200.9,229.2z M162.1,255c1.3-2.6,2.7-5,4.1-7.4
				c0.9-1,1.8-2,2.7-3c11.4-11.2,25.7-22.9,43.1-35c3.4-2.5,8.1-5.3,13.9-8.6C194.2,224.1,172.9,242.1,162.1,255z M243.9,188
				c-14.5,6.9-25.3,12.9-32.6,17.9c-12.7,8.8-24,17.5-33.9,26.2c4.3-5,10-10.6,16.9-16.9c8.8-8,18.8-14.7,29.7-20
				c10.1-5.3,19.6-9.7,28.3-13.3C249.6,183.7,246.8,185.8,243.9,188z M266.7,152L266.7,152c-0.4,0.1-0.7,0.4-1,0.9
				c-0.5,0.9-1.6,3.1-3.2,6.7c-1.3,3-2.4,6-3.2,8.9c-0.5,1.8-0.7,3.5-0.8,5c0-0.1-0.1-0.2-0.1-0.3c-0.6-2.3-0.8-4.2-0.7-5.6
				c0-1.7,0.2-4.1,0.7-7.1c0.2-1.3,0.7-2.8,1.5-4.5c1.4-3,3.5-5.9,6.4-8.6c3.1-2.8,6.2-5,9.3-6.3c-0.2,0.6-0.3,1.2-0.3,1.8
				c-0.3,7.5-0.5,11.8-0.7,12.8c-0.3,2.2-1,4.8-2.3,7.8c-1.1,2.7-2.8,5.3-5,7.8c-0.7,0.7-1.4,1.3-2,1.8c-0.7,0.2-1.4,0.5-2.1,0.7
				c0.6-1.1,1.2-2.2,1.9-3.3c1.2-1.9,3.1-4.4,5.6-7.7c0.5-0.7,1-1.5,1.4-2.3c0.2-0.4,0.2-0.7-0.1-1.1c-0.3-0.3-0.6-0.5-1-0.4l0,0
				c-0.3,0.1-0.5,0.2-0.6,0.4c-0.6,1.1-1.1,1.8-1.5,2.3c-1.6,2.1-2.8,3.7-3.6,4.8c0.7-1.5,1.5-2.9,2.1-4.1l4.5-7.7
				c0.1-0.4,0.1-0.7-0.2-1c-0.3-0.3-0.6-0.4-1-0.3l0,0c-0.3,0-0.6,0.3-0.9,0.8l-4.2,7.1c-2.2,4.2-3.8,7.4-4.8,9.7
				c0.2-1.4,0.6-2.8,1.1-4.4c1-3.3,2.9-7.9,5.9-13.5C267.9,152.4,267.6,152,266.7,152z M307.5,177.3c2.9,1.1,5.7,2.9,8.4,5.1
				c3.5,3,6.3,6.4,8.4,10.3c1.4,2.5,2.3,4.9,2.7,7.3l0.2,0.9c-0.4,0-0.8,0-1.3-0.1c-2.7-0.6-6.7-2.1-12-4.4c-4.8-2.2-8.1-4.1-10-5.7
				c-2.7-2.1-4.9-4.6-6.6-7.4c-1-1.5-1.7-2.9-2.2-4.2c-0.2-0.4-0.3-0.9-0.5-1.5l2.3,2.2l1.4,1.4c0.6,0.6,1.3,1.3,2.3,2.4
				c1.7,1.9,3.1,3.7,4.2,5.5c0.3,0.2,0.6,0.3,0.9,0.3c0.4-0.1,0.6-0.3,0.7-0.6v0c0.1-0.3,0.1-0.6,0-0.8c-0.4-0.7-0.9-1.5-1.7-2.4
				c-1.4-1.9-3-3.7-4.8-5.4c-0.5-0.5-1-1-1.7-1.6l-2.3-2.2c2,1.2,4,2.8,6.1,4.8c1,1,2.3,2.4,3.9,4.2c0.7,0.8,2,2.4,3.8,4.7
				c0.7,0.4,1.2,0.3,1.6-0.4l0,0c0.1-0.3,0.1-0.6-0.1-0.9c-1.5-1.9-2.6-3.4-3.4-4.3c-2.3-2.7-4.5-4.9-6.6-6.8
				c-0.1-0.1-0.2-0.1-0.3-0.2c0.7,0.4,1.4,0.9,2,1.3c2,1.4,5.5,4.7,10.6,9.7c0.7,0.3,1.2,0.2,1.5-0.5l0,0c0.1-0.4,0.1-0.7-0.2-1
				c-0.8-0.8-2.1-2.1-3.8-3.8c-3.1-3-5.8-5.3-8.2-7c-0.3-0.2-0.6-0.4-0.9-0.5C304.2,176.1,306,176.6,307.5,177.3z M261.1,180.3
				c2.4-1.6,4.9-3,7.3-4.3c1.3-0.4,2.6-0.8,3.9-1.2c15.4-4,33.7-7,54.8-8.8c4.2-0.4,9.6-0.6,16.3-0.4
				C304.4,169.6,276.9,174.5,261.1,180.3z M365.4,163.1c-16-1.3-28.4-1.5-37.2-0.8c-15.4,1.3-29.6,3.2-42.5,5.8
				c6.3-2.1,14-4.2,23.2-6.2c11.7-2.5,23.6-3.3,35.7-2.4c11.4,0.5,21.8,1.4,31.2,2.6C372.6,162.3,369.1,162.6,365.4,163.1z
				 M503.2,207.5c1.7-1.6,3.2-2.8,4.5-3.5c1.5-0.9,3.6-1.9,6.4-2.9c1.3-0.4,2.8-0.8,4.6-1c3.3-0.3,6.8,0.1,10.6,1.2
				c4,1.3,7.4,2.9,10.1,4.9c-0.6,0.1-1.2,0.3-1.7,0.6c-6.7,3.5-10.5,5.5-11.5,5.8c-2,0.8-4.7,1.5-7.9,1.9c-2.9,0.4-6,0.2-9.2-0.4
				c-1-0.3-1.9-0.5-2.6-0.8c-0.6-0.5-1.1-1-1.7-1.5c1.3-0.1,2.5-0.1,3.8,0c2.3,0.1,5.4,0.5,9.4,1c0.9,0.1,1.8,0.1,2.7,0.1
				c0.4,0,0.7-0.2,0.9-0.6c0.2-0.4,0.1-0.8-0.2-1.1l0,0c-0.2-0.2-0.4-0.3-0.6-0.3c-1.2,0-2.2,0-2.8-0.1c-2.6-0.4-4.6-0.6-6-0.7
				c1.7-0.1,3.2-0.2,4.6-0.2l8.9,0.1c0.4-0.1,0.6-0.3,0.8-0.7c0.1-0.4,0.1-0.7-0.2-1l0,0c-0.2-0.3-0.6-0.4-1.2-0.4l-8.2-0.1
				c-4.7,0.2-8.3,0.4-10.8,0.7c1.3-0.5,2.8-0.9,4.4-1.3c3.4-0.8,8.3-1.4,14.7-1.7c0.8-0.3,0.9-0.9,0.5-1.6l0,0
				c-0.3-0.3-0.7-0.4-1.3-0.3c-1,0-3.5,0.2-7.4,0.5c-3.3,0.4-6.4,0.9-9.3,1.7c-1.8,0.5-3.4,1.1-4.8,1.8
				C503.1,207.6,503.1,207.6,503.2,207.5z M385.4,157.6c0.7-2.3,1.4-4,2.2-5.3c0.8-1.5,2.2-3.4,4.1-5.8c0.9-1,2-2.1,3.5-3.2
				c2.7-1.9,6-3.3,9.8-4.2c4.1-0.9,7.9-1.2,11.2-0.8c-0.4,0.4-0.8,0.9-1.2,1.4c-4,6.4-6.3,10-7,10.8c-1.3,1.7-3.3,3.6-5.9,5.6
				c-2.3,1.8-5,3.2-8.2,4.2c-1,0.3-1.9,0.5-2.6,0.6c-0.7-0.1-1.5-0.3-2.2-0.4c1.1-0.7,2.2-1.3,3.3-1.9c2-1,4.9-2.3,8.7-3.8
				c0.8-0.4,1.6-0.8,2.4-1.3c0.3-0.2,0.5-0.6,0.5-1c-0.1-0.4-0.3-0.7-0.7-0.9l0,0c-0.2-0.1-0.5-0.1-0.7,0c-1.1,0.6-1.9,1-2.5,1.3
				c-2.5,1-4.3,1.8-5.6,2.4c1.4-0.9,2.7-1.8,3.9-2.5l7.8-4.4c0.3-0.2,0.4-0.6,0.4-1c-0.1-0.4-0.3-0.6-0.7-0.8l0,0
				c-0.3-0.1-0.7,0-1.2,0.3l-7.1,4c-4,2.5-7,4.5-9,6c0.9-1.1,1.9-2.1,3.2-3.3c2.5-2.4,6.5-5.3,11.9-8.8c0.5-0.7,0.4-1.2-0.4-1.7l0,0
				c-0.4-0.1-0.8,0-1.3,0.4c-0.9,0.5-2.9,1.9-6.1,4.2c-2.7,1.9-5.1,4-7.2,6.1c-1.3,1.4-2.4,2.7-3.2,3.9
				C385.3,157.8,385.4,157.7,385.4,157.6z M425.9,185.6c1.9,2.4,3.5,5.3,4.7,8.6c1.6,4.4,2.3,8.7,2.1,13.2c-0.1,2.8-0.5,5.4-1.3,7.7
				l-0.3,0.8c-0.3-0.2-0.7-0.4-1-0.7c-2-1.9-4.7-5.1-8.2-9.8c-3-4.3-4.9-7.6-5.8-9.9c-1.3-3.2-1.9-6.4-2-9.7c-0.1-1.8,0-3.4,0.2-4.8
				c0.1-0.5,0.2-1,0.3-1.5l0.9,3l0.6,1.9c0.2,0.8,0.5,1.8,0.8,3.2c0.5,2.5,0.8,4.7,0.9,6.9c0.1,0.3,0.3,0.6,0.7,0.7
				c0.4,0.1,0.7,0,1-0.2c0.2-0.2,0.4-0.5,0.4-0.8c0-0.8-0.1-1.7-0.2-2.9c-0.3-2.3-0.8-4.7-1.4-7.1c-0.2-0.6-0.4-1.4-0.6-2.2l-0.9-3
				c1.1,2.1,2.1,4.5,2.8,7.2c0.4,1.3,0.8,3.2,1.3,5.6c0.2,1.1,0.5,3.1,0.9,6c0.4,0.7,0.9,0.9,1.6,0.5l0,0c0.3-0.2,0.4-0.5,0.4-0.8
				c-0.3-2.4-0.6-4.2-0.8-5.4c-0.6-3.5-1.4-6.5-2.3-9.2c0-0.1-0.1-0.2-0.1-0.3c0.4,0.7,0.8,1.5,1,2.1c1,2.2,2.5,6.8,4.3,13.7
				c0.4,0.6,0.9,0.7,1.6,0.4l0,0c0.3-0.3,0.4-0.6,0.4-1c-0.3-1.1-0.8-2.8-1.4-5.2c-1.1-4.1-2.3-7.5-3.6-10.1
				c-0.2-0.3-0.3-0.6-0.5-0.9C423.6,182.9,424.9,184.3,425.9,185.6z M384.2,165c2.9-0.1,5.7-0.2,8.5-0.1c1.3,0.3,2.7,0.6,3.9,0.9
				c15.4,4.2,32.7,10.8,51.9,19.8c3.8,1.7,8.6,4.3,14.4,7.8C427,177.4,400.8,167.9,384.2,165z M483.1,202.3
				c-13.2-9.1-23.8-15.5-31.8-19.3c-14-6.6-27.2-12-39.7-16.3c6.5,1.3,14.2,3.3,23.1,6.2c11.4,3.7,22.1,8.9,32.2,15.8
				c9.7,6.1,18.2,12.1,25.7,17.9C489.7,205.1,486.6,203.7,483.1,202.3z M524,261.9c-0.8,4.6-2.4,8.7-4.8,12.4
				c-1.5,2.4-3.1,4.4-4.9,6l-0.7,0.6c-0.2-0.3-0.4-0.7-0.5-1.1c-0.8-2.6-1.5-6.8-2.2-12.6c-0.4-5.2-0.5-9.1-0.1-11.5
				c0.5-3.4,1.5-6.5,3.1-9.4c0.8-1.6,1.7-2.9,2.6-4c0.3-0.4,0.6-0.8,1-1.2l-0.7,3.1l-0.5,1.9c-0.2,0.8-0.5,1.8-0.9,3.2
				c-0.8,2.4-1.6,4.5-2.6,6.4c-0.1,0.3,0,0.7,0.2,0.9c0.3,0.3,0.6,0.4,0.9,0.3h0c0.3-0.1,0.5-0.2,0.7-0.5c0.4-0.7,0.8-1.6,1.3-2.7
				c0.9-2.1,1.7-4.4,2.3-6.8c0.2-0.6,0.4-1.4,0.6-2.2l0.7-3.1c-0.1,2.4-0.4,4.9-1.2,7.7c-0.3,1.4-0.9,3.2-1.7,5.5
				c-0.4,1.1-1.1,2.9-2.2,5.6c0,0.8,0.3,1.2,1.1,1.2l0,0c0.3-0.1,0.6-0.2,0.8-0.5c0.9-2.2,1.6-3.9,2-5.1c1.2-3.3,2-6.4,2.6-9.1
				c0-0.1,0-0.2,0.1-0.3c0,0.9-0.1,1.6-0.2,2.4c-0.2,2.5-1.3,7.1-3.1,14.1c0,0.7,0.4,1.1,1.2,1.1h0c0.4-0.1,0.7-0.3,0.8-0.7
				c0.3-1.1,0.7-2.8,1.4-5.2c1.1-4.1,1.7-7.7,2-10.6c0-0.3,0-0.7,0-1c0.6,2,1,3.8,1.3,5.5C524.7,255.1,524.6,258.4,524,261.9z
				 M498.5,213.3c2.6,1.3,5,2.7,7.4,4.1c1,0.9,2,1.8,3,2.7c11.2,11.4,22.9,25.7,35,43.1c2.5,3.4,5.3,8.1,8.6,13.9
				C529.3,245.4,511.3,224.1,498.5,213.3z M565.5,295.1c-6.9-14.5-12.9-25.3-17.9-32.6c-8.8-12.7-17.5-24-26.2-33.9
				c5,4.3,10.6,10,16.9,16.9c8,8.8,14.7,18.8,20,29.7c5.3,10.1,9.7,19.6,13.3,28.3C569.8,300.8,567.7,298,565.5,295.1z M612.3,326.7
				c-0.6-0.2-1.2-0.3-1.8-0.3c-7.5-0.3-11.8-0.5-12.8-0.7c-2.2-0.3-4.8-1-7.8-2.3c-2.7-1.1-5.3-2.8-7.8-5c-0.7-0.7-1.3-1.4-1.8-2
				c-0.2-0.7-0.5-1.4-0.7-2.1c1.1,0.6,2.2,1.2,3.3,1.9c1.9,1.2,4.4,3.1,7.7,5.6c0.7,0.5,1.5,1,2.3,1.4c0.4,0.2,0.7,0.2,1.1-0.1
				c0.3-0.3,0.5-0.6,0.4-1l0,0c-0.1-0.3-0.2-0.5-0.4-0.6c-1.1-0.6-1.8-1.1-2.3-1.5c-2.1-1.6-3.7-2.8-4.8-3.6
				c1.5,0.7,2.9,1.5,4.1,2.1l7.7,4.5c0.4,0.1,0.7,0.1,1-0.2c0.3-0.3,0.4-0.6,0.3-1l0,0c0-0.3-0.3-0.6-0.8-0.9l-7.1-4.2
				c-4.2-2.2-7.4-3.8-9.7-4.8c1.4,0.2,2.8,0.6,4.4,1.1c3.3,1,7.8,2.9,13.5,5.9c0.8,0.1,1.3-0.3,1.3-1.2l0,0
				c-0.1-0.4-0.4-0.7-0.9-0.9c-0.9-0.5-3.1-1.6-6.7-3.2c-3-1.3-6-2.4-8.9-3.2c-1.8-0.5-3.5-0.7-5-0.8c0.1,0,0.2-0.1,0.3-0.1
				c2.3-0.6,4.2-0.8,5.6-0.7c1.7,0,4.1,0.2,7.1,0.7c1.3,0.2,2.8,0.7,4.5,1.5c3,1.4,5.9,3.5,8.6,6.4
				C608.8,320.5,610.9,323.6,612.3,326.7L612.3,326.7z"/>
		</g>
	</g>
</g>
<g>
	<g>
		<g>
			<g>
				<rect x="51.9" y="365.7" class="st0" width="578.1" height="6.8"/>
			</g>
		</g>
	</g>
	<g>
		<g>
			<g>
				<rect x="51.9" y="480.1" class="st0" width="578.1" height="6.8"/>
			</g>
		</g>
	</g>
</g>
<g>
	<path class="st0" d="M341.2,257.4c2.2-1.1,4.6,2.2,2.1,3.1c-5.5,2.1-11.9,2.6-17.7,3c-4.8,0.3-9.6,0.4-14.3,0.3
		c-0.1,2.1-0.3,4.2-0.4,6.3c-0.6,9.4-1.3,18.7-1.8,28.1c-0.5,9.1-1.3,18.2-1.1,27.3c0.1,4.1,0.5,8.2,1.6,12.1
		c0.5,1.6,1.2,3.2,2.9,3.6c2,0.5,4.2-0.4,5.9-1.5c7.3-4.4,9.8-13.4,12-21c0.5-1.9,4-1.2,3.5,0.8c-2.5,9.2-6,20.3-15.6,24.4
		c-4.1,1.8-8.5,2-12.3-0.5c-3.8-2.5-5.6-6.6-6.9-10.8c-2.9-10-2.6-20.7-2.8-30.9c-0.2-10.7,0.2-21.4,0.8-32.1
		c0.1-2.1,0.3-4.2,0.4-6.3c-3.4-0.2-6.8-0.3-10.2-0.5c-3.1-0.1-6.2-0.4-9.3-0.2c-0.4,0-0.7,0.1-1.1,0.1c0.4,0.1,0.7,0.2,1.1,0.4
		c2.4,0.9,0.1,3.6-2,2.8c-0.6-0.2-1.6,0.2-2.3,0.1c-0.5,0-1-0.1-1.5-0.3c-0.8-0.3-1.7-0.9-1.9-1.8c-0.9-2.8,2.8-4,4.8-4.4
		c3.4-0.7,7-0.3,10.5-0.2c3.6,0.1,7.3,0.3,10.9,0.5c0.4,0,0.9,0,1.3,0.1c0.2-2.2,0.3-4.3,0.5-6.5c0.4-5.6,0.8-11.4,2.5-16.7
		c0.9-2.7,3.9-3.9,6.5-3.6c2.8,0.3,4.7,2.2,5.1,4.9c0.8,5.3,0.1,10.8-0.3,16.2c-0.2,2-0.3,4.1-0.5,6.1c2.4,0,4.8,0,7.2,0
		c3.8-0.1,7.5-0.3,11.3-0.7C333.6,259.4,337.7,259.1,341.2,257.4L341.2,257.4z"/>
	<path class="st0" d="M392,314.6c0.9-1.9,4.8-1.2,3.9,0.9c-2.2,5.1-4.8,10-7.9,14.5c-2.4,3.5-5.3,7.9-10,8.2
		c-11.6,0.8-12.5-17-12.3-25c0.2-10,1.3-20,1.5-30.1c0-0.6,0.4-2.3-0.1-2.8c-0.7-0.6-2,0.7-2.7,1.2c-1.6,1.4-3,3-4.2,4.7
		c-2.8,4-5,8.6-7,13c-4,8.9-6.9,18.2-9.8,27.4c-0.1,1-0.2,1.9-0.4,2.9c-0.5,4.5-8.2,5.9-9.4,1.1c-0.5-2.1-1.3-4.2-1.6-6.4
		c-0.3-2-0.4-4.1-0.5-6.2c-0.3-3.8-0.4-7.7-0.6-11.5c-0.2-7.7-0.3-15.3-0.2-23c0.1-13.5,0.8-27.2,4.3-40.3
		c1.5-5.7,3.7-11.6,8.3-15.5c4.2-3.6,9.9-4.5,15.1-2.6c12.2,4.3,5.8,20.7,2.2,28.9c-4.4,10.2-10.5,19.6-16.8,28.7
		c-0.1,3.3-0.1,6.7-0.2,10c-0.1,6-0.1,12.1,0,18.1c0,0.7,0,1.3,0,2c2.1-6.1,4.4-12.2,7.2-18c3.4-7.2,8-17.2,16.7-19
		c5-1.1,9.1,2.8,10.7,7.2c1.7,4.9,2.1,10.3,2.1,15.4c0.1,10.1-1.2,20.2-1,30.3c0,1-0.2,2.3,0.3,3.3c0.4,0.7-0.3,0.7,0.6,0.2
		c1.7-0.9,3.1-3.2,4.2-4.7C387.3,323.7,389.9,319.2,392,314.6L392,314.6z M344.1,276.1c5.2-7.7,10.1-15.5,13.6-24.1
		c2-4.7,4.3-10.2,4.3-15.4c0-4.7-3.7-10.9-8.8-7.1c-3.4,2.5-4.6,7.6-5.4,11.5c-1.1,5.3-1.8,10.7-2.4,16.1
		C344.6,263.5,344.3,269.8,344.1,276.1z"/>
	<path class="st0" d="M439.6,304.1c-1.7,6.6-4.3,13-7.9,18.8c-3.1,5.1-7.1,10.8-12.8,13.2c-11.9,5-22.2-6.9-25.6-17
		c-2.2-6.6-2.1-13.6-1-20.4c1.1-6.4,3.3-12.9,8.3-17.4c4.5-4.1,10.8-6,16.7-3.8c4.3,1.6,8.3,4.8,8.3,9.8c0,5.3-4.9,9.2-9.3,11.3
		c-3.7,1.7-7.6,2.6-11.6,2.5c-1.3,7.5-1.5,15.1,0.3,22.6c0.9,4,3,8,7.1,9.3c4.5,1.4,8.4-1.6,11.2-4.9c6.1-7.1,10.3-15.9,12.7-24.9
		C436.4,301.3,440.1,302,439.6,304.1z M405.6,296.1c-0.2,0.6-0.3,1.3-0.4,2c3.9-0.1,7.7-1.2,11.1-3.2c4-2.4,7.8-7.6,3.6-11.7
		c-1.6-1.6-3.4-2.4-5.5-1.6c-1.5,0.6-3,1.7-4,2.9C407.8,287.6,406.6,292.2,405.6,296.1L405.6,296.1z"/>
</g>
<g>
	<path class="st0" d="M294.5,548.6c-6.2,3.6-13.6,4.9-20.6,3.7c2.7,2.5,4.8,5.7,5.8,9.2c1.8,5.8,0.8,13.4-3.2,18.2
		c-1.8,2.2-4.2,2.8-6.9,2.1c-3.3-0.9-4.8-3.8-5.9-6.7c-2.5-6.4-3-13.4-3.4-20.3c-0.4-6.9-0.2-13.9,0.3-20.8
		c0.5-6.5,1.5-13.2,4.4-19.1c2.5-5.3,7.8-10.9,14.3-8.7c5.1,1.7,6.8,8.1,7,12.9c0.5,12.2-7.5,22.6-16.9,29.4c-0.6,0.5-1.6,0-1.7-0.6
		c0,0.2,0,0.5,0,0.7c0.3-0.1,0.6-0.1,0.9,0c8.1,3.3,17.3,2.7,24.8-1.7C294.5,546.3,295.8,547.9,294.5,548.6z M267.7,550.5
		c0,1.9,0,3.7,0,5.6c0.1,5.7,0.1,11.4,1.3,17c0.3,1.3,0.6,2.6,1.1,3.8c0.4,0.9,0.7,2.1,1.6,2.6c2.2,1.2,4.3-3,4.9-4.5
		C280.9,565.7,276.7,554.8,267.7,550.5z M267.7,547.8c0-0.2,0.1-0.3,0.3-0.5c9.2-6.9,17-17.3,15.8-29.4c-0.3-3.5-2.3-10.6-7.3-8.5
		c-2,0.8-3.3,2.8-4.1,4.7c-1,2.5-1.9,5-2.5,7.6c-1.2,5.4-1.6,10.9-1.9,16.5C267.8,541.4,267.7,544.6,267.7,547.8z"/>
	<path class="st0" d="M329.6,548c0.4-1.2,2.7-0.8,2.2,0.5c-1.5,4.4-3,8.7-5.3,12.8c-1.7,3-4.1,6.9-8.1,6.3c-4-0.6-5.7-5.3-6.3-8.8
		c-0.7-3.9-0.8-7.7-0.8-11.6c-1,3.1-2.2,6.1-3.6,9c-1.2,2.5-2.3,5.2-4.3,7.2c-2,2.1-4.9,2.5-7.5,1.2c-5.5-2.7-6.8-10.4-6-15.9
		c0.9-5.9,3.2-12.2,8.3-15.7c2.3-1.6,5.1-2.5,7.9-1.7c2.2,0.7,4.4,2.3,5.3,4.6c0.6,1.5-1.9,2-2.6,0.9c-0.7-1-1.3-1.9-2.5-2.2
		c-0.8-0.2-1.5,0-2.1,0.4c-1.9,1.1-3.2,3.1-4.2,4.9c-2.2,3.8-3.2,8.3-3.4,12.6c-0.1,2.1,0,4.4,0.7,6.4c0.4,1.1,1.5,3,2.9,2.5
		c2-0.7,3.3-3.1,4.4-4.8c1.3-2.1,2.3-4.3,3.3-6.6c1.6-3.7,2.7-7.6,3.9-11.5c0.1-2.4,0.2-5.3,1.6-7.3c1.3-1.9,5-2.2,6.2,0
		c1.4,2.4,1.1,5.5,1,8.1c-0.1,2.4-0.2,4.7-0.4,7.1c-0.4,4.6-0.6,9.2-0.5,13.9c0,1,0.1,2.1,0.2,3.1c0,0.3,0.1,1.2,0.4,1.4
		c0.8,0.4,2-1.4,2.3-1.8c0.6-0.9,1.2-1.8,1.8-2.7C326.5,556.5,328.1,552.2,329.6,548L329.6,548z"/>
	<path class="st0" d="M375.3,550.2c0.5-1.1,2.7-0.7,2.2,0.5c-1.1,2.7-2.3,5.5-3.8,8c-1.3,2.2-3,5.2-5.8,5.4
		c-2.5,0.2-4.4-1.7-5.3-3.8c-1.2-2.7-1.6-5.7-1.7-8.6c-0.2-5.6,0.4-11.4,1.1-17c0-0.4,0.4-2.2,0-2.4c-0.1,0-1.2,1-1.4,1.2
		c-0.4,0.4-0.9,0.9-1.2,1.4c-1.7,2.1-2.8,4.6-3.8,7c-1.9,4.7-3.4,9.6-4.5,14.5c0,0.9-0.1,1.8-0.4,2.7c-0.8,3.1-5.5,2.5-6.5,0
		c-1-2.4-0.6-5.6-0.5-8.2c0.2-2.5,0.3-4.9,0.5-7.4c0.2-2.4,0.3-4.9,0.4-7.3c0-1.1,0-2.2,0-3.3c0-0.4,0.2-0.6-0.2-0.6
		c-0.5-0.1-1.1,0.7-1.4,1c-3.1,3.5-4.1,8.7-5.1,13.1c-0.9,3.7-1.5,7.5-2.2,11.2c-0.1,1.3-0.3,2.6-0.7,3.8c0,0,0,0,0,0.1
		c0,0.1,0,0.2-0.1,0.2c-0.1,0.4-0.3,0.8-0.5,1.2c-0.7,1.2-2.6,1-3.3,0c-1.6-2.1-1.8-4.9-2.1-7.5c-0.2-2.4-0.3-4.8-0.3-7.2
		c0-5,0.2-10.2,1.2-15.2c0.4-1.6,2.4-2.3,3.9-2.1c1.5,0.2,3.1,1.3,3.1,2.9c0,3.3-0.3,6.7-0.5,10c0.8-3.4,1.8-6.9,3.6-9.9
		c0.9-1.4,2.1-3.2,3.9-3.5c1.5-0.3,3.2,0.5,4.2,1.6c1.5,1.4,2.1,4,2.6,5.9c0.5,2.3,0.7,4.7,0.7,7.1c0,0.8,0,1.6-0.1,2.3
		c0.8-2.7,1.8-5.3,3-7.8c1.6-3.6,4.5-9.7,9.2-9.1c2.5,0.3,3.9,2.5,4.6,4.7c0.9,2.6,1.1,5.6,0.9,8.4c-0.1,2.8-0.4,5.6-0.6,8.4
		c-0.1,2.5-0.4,5.2,0,7.7c0.1,0.4,0.1,0.9,0.2,1.3c0,0.1,0,0.1,0,0.2c0.1,0,0.7-0.5,0.9-0.6c1-0.8,1.7-2,2.4-3.1
		C373.2,555.2,374.3,552.7,375.3,550.2L375.3,550.2z"/>
	<path class="st0" d="M377.2,525c-1.8-3-3.6-6.2-2.4-9c0.4-0.9,0.8-1.2,1.1-1.4c1.4-0.8,3.5-0.1,4.6,1.1c0.5,0.5,0.9,1.1,1.2,1.7
		c0.1-0.1,0.2-0.3,0.3-0.4c0.8-1,1.2-1.6,1.4-1.8c0.9-0.9,3.4-1,4.5,0c1.9,1.8-0.5,7.1-2.7,10c-1.1,1.5-2.8,3.7-4.6,3.5
		C379.3,528.6,378.6,527.4,377.2,525z M395.7,548.5c-1.5,4.4-3,8.7-5.3,12.8c-1.7,3-4.1,6.9-8.1,6.3c-4-0.6-5.7-5.3-6.3-8.8
		c-0.8-4.5-0.9-9-0.7-13.6c0.1-2.2,0.2-4.4,0.3-6.6c0.1-2.4,0.1-5.4,1.6-7.4c1.3-1.9,4.9-2.2,6.2,0c1.4,2.4,1.1,5.5,1,8.1
		c-0.1,2.4-0.2,4.7-0.4,7.1c-0.4,4.6-0.6,9.2-0.5,13.9c0,1,0.1,2.1,0.2,3.1c0,0.3,0.1,1.2,0.4,1.4c0.8,0.4,2-1.4,2.3-1.8
		c0.6-0.9,1.2-1.8,1.8-2.7c2.3-3.9,3.8-8.2,5.3-12.4C393.9,546.8,396.1,547.2,395.7,548.5z"/>
	<path class="st0" d="M399.4,533.7c-0.1,3.1-0.1,6.1-0.2,9.2c-0.1,4.1-0.3,8.4,0.2,12.5c0.2,1.6,0.3,3.8,1.3,5.2
		c0.4,0.6,0.8,1.1,1.6,0.7c0.8-0.4,1.5-1.1,2-1.8c2.6-2.9,4.4-6.2,5.6-9.9c0.4-1.2,2.6-0.8,2.2,0.5c-1.4,4.7-4,9.3-7.5,12.8
		c-1.9,1.8-4.8,2.5-7,0.9c-2.2-1.6-3-4.3-3.7-6.8c-1.3-5-1.5-10.1-1.6-15.3c-0.1-5.1,0.1-10.3,0.6-15.4c0.6-5,1.4-10.2,3.2-14.9
		c1.6-4.1,4-8.2,8.4-9.7c3.4-1.1,7.9-0.2,10,2.9c2.2,3.3,1.3,7.9,0.2,11.4c-1.2,3.9-3.3,7.6-6,10.7
		C406.4,529.4,403,532.8,399.4,533.7L399.4,533.7z M399.4,531.7c1.6-0.6,3-1.8,4.3-2.9c1.5-1.3,2.9-2.7,4.1-4.3
		c2.4-3.1,4.1-6.6,5.1-10.4c0.8-3,1.6-7.8-1.6-9.7c-2.8-1.7-5.8,1-7.2,3.2c-2,3-2.8,7-3.4,10.5c-0.8,4-1,8-1.2,12.1
		C399.5,530.7,399.4,531.2,399.4,531.7z"/>
	<path class="st0" d="M451.6,551.1c-1.1,4.9-4.9,8.7-9.1,11.1c-0.9,0.5-1.8,1-2.7,1.4c0,3.9-0.1,7.9-0.3,11.8
		c-0.3,5.7-0.9,11.6-2.6,17c-1.6,5.1-5,9.3-10.2,11c-4.6,1.5-10.3,0.7-13.9-2.6c-3.4-3.1-5.6-7.4-6-12.1c-0.4-4.7,1.3-9.4,4.2-13.1
		c3.2-4.1,7.6-6.8,12.4-8.6c2.6-1,5.4-1.8,8.3-2.6c-0.1-5.1-0.3-10.2-0.4-15.3c-0.3,1-0.7,2.1-1.1,3.1c-0.8,2-1.6,3.9-2.6,5.7
		c-1,1.8-2.1,3.8-3.8,5c-3.6,2.6-7.9,0.3-10.3-2.8c-2.7-3.5-3.3-8.4-3.5-12.7c-0.1-2.4,0-4.8,0.1-7.1c0.1-2.5,0.4-5.2,1.1-7.6
		c1-3.4,7.2-2.9,7.2,0.8c0,2.7-0.4,5.4-0.7,8c-0.3,2.5-0.5,5-0.6,7.4c-0.1,2.3,0,4.6,0.4,6.9c0.3,1.8,0.6,4.6,2.4,5.6
		c2.3,1.2,4.2-2.2,5.2-3.8c1.3-2.2,2.3-4.5,3.2-6.9c1.4-3.8,2.4-7.6,3.2-11.5c0.1-1.8,0.3-3.6,0.5-5.4c0.3-2.1,1.9-3.4,4-3.4
		c1.9-0.1,4.1,1.4,4,3.4c-0.2,6.9-0.2,13.8-0.2,20.8c0,2.2,0,4.4,0,6.6c4.5-2.2,8.1-5.4,9.6-10.7
		C449.7,549.4,451.9,549.8,451.6,551.1z M431.6,568.1c0-0.5,0-1,0-1.5c-1.9,0.6-3.7,1.1-5.6,1.7c-4.8,1.6-9.5,4-12.8,8
		c-2.9,3.6-4.4,8-3.8,12.6c0.5,4.4,3.1,8.4,7.3,9.9c3.5,1.2,7.7,0.9,10.3-1.9c2.8-3.1,3.4-7.8,3.8-11.7
		C431.4,579.5,431.6,573.8,431.6,568.1z"/>
</g>
</svg>

