<?xml version="1.0" encoding="utf-8"?>
<!-- Generator: Adobe Illustrator 23.0.5, SVG Export Plug-In . SVG Version: 6.00 Build 0)  -->
<svg version="1.1" xmlns="http://www.w3.org/2000/svg" xmlns:xlink="http://www.w3.org/1999/xlink" x="0px" y="0px"
	 viewBox="0 0 720 720" style="enable-background:new 0 0 720 720;" xml:space="preserve" width="500" height="500">
<style type="text/css">
	.st0{fill:#050002;}
	.st1{fill-rule:evenodd;clip-rule:evenodd;fill:#050002;}
	.st2{fill-rule:evenodd;clip-rule:evenodd;}
	.st3{fill:#221F1F;}
	.st4{fill:#231F20;}
	.st5{fill:#070808;}
	.st6{fill:#211E1F;}
	.st7{fill:#161616;}
	.st8{fill:#131313;}
	.st9{fill:#21201F;}
	.st10{fill:#2C2929;}
</style>
<g>
	<g>
		<g>
			<g>
				<g>
					<path class="st0" d="M261,490.1c-2,0.9-3.7,0.7-5.5,0.2c-2.6-0.7-5-1.9-7.1-3.6c-2.1-1.7-4.1-3.4-6.2-5
						c-7.9-6-12.4-14.1-14.3-23.7c-0.5-2.8-1.1-5.5-1.7-8.2c-3.2-13.9-11.4-23.7-24-30.1c-0.4-0.2-0.8-0.4-1.2-0.6
						c-3.3-1.4-5.6-0.1-5.9,3.4c-0.1,1.2-0.1,2.4,0,3.5c0.2,7.4,1.5,14.7,4.4,21.6c0.4,1,1.4,2,0.5,3.4c-0.6-0.5-1.2-1-1.6-1.5
						c-3.5-4.6-7.2-9-10.4-13.7c-4.7-7-7.3-14.8-8.3-23.1c-0.3-2.2-0.5-4.4,0.4-6.6c1.2-0.4,2.5-0.8,3.7-1.2
						c3.2-1.3,5.5-3.4,6.5-6.8c1.3-4.4-2.6-8.5-7-7.4c-2.1,0.5-3.8,1.6-5.2,3.1c-1.7,1.8-2.6,3.9-3.2,6.2
						c-1.4,5.7-1.6,11.4-0.5,17.1c0.1,0.8,0.1,1.6,0.2,2.6c-3.6-2.4-7.9-6.2-9.7-8.7c-7.5-10.1-12.4-21.4-14.7-33.8
						c-0.5-2.8-1.4-5.7-0.8-8.6c4.5-3.2,8.8-6.3,12-10.6c7.2-9.3,11.6-19.8,12.3-31.7c0.1-1.5,0.1-3-0.1-4.4c-0.4-3.6-3.2-4.8-6-3.5
						c-4.5,2.1-8.5,4.7-11.8,8.4c-6.4,7.3-10.2,15.8-12.1,25.3c-1.6,8.4-0.8,16.8,0.5,25.1c1.3,8.2,4.1,16,7.6,23.5
						c0.3,0.7,1.1,1.5,0.3,2.3c-4.1-1.8-8.1-3.6-12.1-5.3c-5.2-2.1-10.7-3.6-16.3-3.9c-7.2-0.3-14.5-0.2-21.7-0.3
						c-0.7,0-1.5,0-2.2,0.2c-2,0.4-3.1,2.1-2.5,3.9c0.4,1.1,0.9,2.2,1.6,3.1c1.3,1.8,2.7,3.5,4.3,5.1c13.3,13.3,29.2,21.3,47.9,23.5
						c7.8,0.9,15.5,1.9,23.4,1.7c2.7-0.1,4.5,1.2,5.7,3.4c2.1,3.9,4.6,7.6,7.3,11c0.2,0.3,0.3,0.8,0.5,1.5c-0.9-0.1-1.6-0.2-2.3-0.4
						c-3.6-0.8-7.2-1.8-10.8-2.4c-4.2-0.8-8.4-1.4-11.7-4.6c-0.4-0.4-1-0.6-1.5-0.9c-3.8-1.7-7.7-2.2-11.6-0.9
						c-5.3,1.8-6.4,7.4-2.4,11.2c1.9,1.8,4.1,2.9,6.7,3.2c3.4,0.4,6.8,0,9.9-1.7c1.1-0.6,2.3-1.2,3.3-1.8c1.8,0.3,3.5,0.5,5,0.8
						c4.7,1.1,9.5,2.2,14.2,3.4c0.7,0.2,1.5,0.3,1.5,1.3c0.1,0,0.3,0,0.4-0.1c-0.1,0-0.2,0-0.3,0.1c-1.2,0-2.4-0.1-3.6-0.1
						c-1.3,0-2.7,0.1-3.9,0.4c-1.3,0.3-2.1,1.3-2.1,2.5c-0.1,1.3,0.9,2.5,2.3,2.8c1,0.2,2,0.2,3.1,0.3c2.5,0.2,5,0.2,7.5,0.5
						c9.3,1.4,17.2,5.9,24.4,11.7c0.2,0.2,0.3,0.6,0.6,1.3c-2.7-0.9-4.9-1.5-7.1-2.3c-12.2-4.2-24.6-4.3-37.1-1.4
						c-4,1-7.9,2.2-11.9,3.3c-3.4,0.9-3.7,4.6-1.4,6.5c1.9,1.6,3.8,3.3,6,4.6c6.3,3.7,12.8,6.7,19.8,8.6c14.7,4,29.6,5,44.7,5.3
						c2.5,0.1,5-0.2,7.5-0.4c3.8-0.2,7.7-0.5,11.5-0.6c3.9-0.1,7.6,0.6,11,2.6c1.1,0.6,2.4,1.1,3.7,1.2c3.5,0.4,6.6-4.3,5.8-6.9
						C268.2,490.8,264.4,488.5,261,490.1 M183.2,397.4c0,0,0.3,0.3,0.2,0.3c-0.2,0.3-0.5,0.6-0.8,1c-0.2-0.3-0.4-0.6-0.4-0.6
						C182.6,397.8,182.9,397.6,183.2,397.4z M149.2,354.6c1.5-9,4.9-17.2,11.1-24.1c1.6-1.7,3.5-3.1,5.4-4.5c0.4-0.3,1-0.4,1.6-0.6
						c2,9.6-8.5,31.5-18.1,35.3C148.6,358.6,148.9,356.6,149.2,354.6z M162.9,424.7c-7.3-0.7-14.7-1.5-21.8-3.3
						c-13.2-3.4-24.3-10.4-33.9-20c-0.4-0.4-0.7-0.9-1-1.4c0.2-0.3,0.4-0.7,0.6-0.7c7.5-0.4,15.1-0.4,22.5,1.2
						c10.8,2.4,20.5,7.3,29.4,13.8c4,3,7.8,6.2,12.2,10.2C167.5,425.1,165.2,425,162.9,424.7z M154.8,446.4
						c-1.5-0.4-1.5-0.4-3.3-2.7c3.7-0.5,6.8-1,9.5,1.9C158.9,446.7,156.9,446.9,154.8,446.4z M209.2,454c-3.3-5.1-5.4-10.8-6.9-16.6
						c-0.9-3.5-1.4-7.1-1-10.8c0.5,0,0.8-0.1,1.1,0c5.6,3.2,10.4,7.2,13.6,12.8c2.2,3.9,3.8,8,4.8,12.3c1.2,5.7,2.2,11.5,4.3,17
						c-0.5,0.1-0.8,0.4-1,0.3C218.4,464.7,213.2,460,209.2,454z M237.7,492.1c-8.4,0.8-16.8,0.1-25.2-0.4c-8.4-0.5-16.7-2-24.9-4
						c-6.7-1.6-12.8-4.5-18.7-7.8c-0.7-0.4-1.4-1-2.2-1.6c0.5-0.4,0.8-0.8,1.1-1c9-2.6,18.1-4.2,27.5-3.1c2.8,0.3,5.6,0.8,8.3,1.5
						c7,1.8,13.7,4.4,20.2,7.7c4.1,2.1,8.2,4,12.3,6c1,0.5,2,1.1,2.9,1.6C239,492.3,238.2,492,237.7,492.1z"/>
				</g>
			</g>
		</g>
	</g>
	<g>
		<g>
			<g>
				<g>
					<path class="st0" d="M130.3,282.2c1.1,3.4,2.8,6.5,3.5,10c0.3,1.7,1.8,2.7,3.6,2.9c1.6,0.2,4.1-1.4,4.7-2.9
						c0.6-1.7,0.2-3.2-0.9-4.5c-0.3-0.3-0.6-0.8-1-0.9c-2.5-0.8-3.1-3-3.8-5.1c-2.7-8-4.7-16.1-6.2-24.4c-0.5-2.8-0.2-5.2,0.9-7.7
						c1.9-4.3,4.5-8.2,7.2-12.2c4.7-6.8,10.8-11.6,18.4-14.6c3.6-1.4,7.1-2.9,10.6-4.4c12-4.8,21.6-12.6,28.9-23.2
						c0.5-0.7,1.1-1.4,1.4-2.3c1-2.3-0.4-4.6-2.8-4.9c-1.2-0.1-2.4,0-3.5,0.2c-3.6,0.5-7.3,1-10.9,1.8c-7.1,1.4-14,3.4-20.4,7.1
						c-9.3,5.3-16,12.9-19.6,23.1c-2.1,6-4.9,11.7-8.9,16.7c-0.3,0.4-0.7,0.6-1.7,1.3c0.6-3.8,1-6.8,1.7-9.8
						c3.9-18.2,12.3-34.1,26-46.9c3.6-3.3,7.2-6.5,10.9-9.7c5.7-5,10.8-10.5,15.6-16.3c7.9-9.6,12.3-20.7,14.6-32.8
						c0.2-0.9,0.3-1.8,0.1-2.6c-0.6-3.8-2.3-4.8-5.8-3.4c-0.6,0.2-1.1,0.4-1.6,0.7c-5.5,2.9-10.8,6.1-14.9,10.9
						c-3.2,3.7-6.3,7.5-8.9,11.5c-6.4,10-10.3,20.9-11.2,32.8c-0.2,2-1.1,3.2-2.4,4.5c-8.2,7.5-14.6,16.2-19.6,26
						c-0.3,0.6-0.8,1-1.6,2c1.2-9,3.3-17.2,5.4-25.3c0.4-1.4,1.2-2.7,2-3.9c0.8-1.3,1.7-2.4,2.5-3.7c2.3-3.9,3.5-8.1,3.3-12.7
						c-0.1-2.1-0.7-4.1-2-5.8c-1.9-2.5-4.6-3.1-7.5-1.8c-2.9,1.3-4.6,3.7-5.6,6.6c-2.4,6.7-1.7,13.3,1.3,19.8
						c-1.6,7.4-3.2,14.5-4.6,21.6c-1,5.1-2,10.3-1,15.4c0.8,4.4,0.3,8.5-0.8,12.6c-0.4,1.6-0.6,3.2-0.9,4.8
						c-1.2,7.9-1.8,15.8-0.6,23.8C125.4,265.2,127.6,273.8,130.3,282.2 M160,204c6.1-4.1,12.9-6.4,20-7.9c2.6-0.5,5.1-1.3,8.2-0.7
						c-0.6,1-0.9,1.7-1.4,2.4c-4.5,5.2-9.8,9.4-15.9,12.5c-2.6,1.3-5.4,2.5-8.1,3.6c-4.9,2.1-9.7,4.3-14.6,6.4
						c-0.4,0.2-0.8,0.2-1.9,0.5C149.5,213.4,154,208.1,160,204z M192.4,123.3c-2,16-15.2,34.5-29.5,44.9
						C163,153.4,178.3,129.8,192.4,123.3z M135.6,162.4c0.5-2,1-4,3.2-4.9c1.4,1.6,1.2,3.3,0.8,5.1c-0.6,2.9-1.2,5.7-3.6,8
						C134.3,167.8,135,165,135.6,162.4z"/>
				</g>
			</g>
		</g>
	</g>
	<g>
		<g>
			<g>
				<g>
					<path class="st0" d="M94.1,336.7c1.7,0.8,3.5,0.6,5.1-0.2c1-0.5,1.9-1.3,2.9-2c8.7,0.8,16.6,3.6,23.9,8.4
						c3.4,2.2,6.3,4.8,8.5,8.3c0.3,0.5,0.6,1,1,1.5c0.7,0.9,1.9,1.1,2.8,0.6c1.1-0.5,1.8-1.7,1.4-2.9c-0.3-1.1-0.8-2.2-1.5-3.2
						c-1.4-2-3-4-4.9-6.3c0.3-3.3,0.6-6.7,1-10.1c1.7-13.4,0-26.5-4.3-39.2c-4.7-13.7-13.3-24.2-25.9-31.4c-0.5-0.3-1-0.6-1.5-0.9
						c-2.7-1.2-5,0.1-5.5,3.1c-0.1,0.6-0.1,1.2,0,1.8c0.6,6,1,12.1,2,18c2.6,15.3,8.3,29.5,17.4,42.1c1.6,2.2,3.1,4.3,4.6,6.5
						c0.5,0.7,0.8,1.5,1.5,2.8c-1.4-0.4-2.2-0.5-3-0.8c-3.9-1.7-8.1-2.8-12.3-3.6c-3-0.5-6-0.8-8.8-2.6c-2.5-1.6-6.7-0.1-7.6,2.2
						C89.7,332,91,335.4,94.1,336.7 M106.3,288.8c-1.8-7.1-3-17.2-2.3-21.5c4.3,2.6,8,5.5,11.2,9.3c3,3.6,5.4,7.7,7.3,12
						c5.8,13.5,7.8,26.8,6.1,41.4c-0.3,0-0.7,0.1-0.8,0C118,317.7,110.2,304.3,106.3,288.8z"/>
				</g>
			</g>
		</g>
	</g>
	<g>
		<g>
			<g>
				<g>
					<path class="st0" d="M129.1,388.1c4.7,1.8,9.2,4.1,12.3,8.2c0.3,0.3,0.6,0.7,0.9,1c1.1,0.9,2.2,1.1,3.2,0.4
						c1.2-0.8,1.7-2,1.2-3.4c-1.1-3.3-2.2-6.7-3.5-10c-4.4-11.6-11.8-20.7-22.8-26.6c-8.6-4.6-18-6.4-27.2-7.4c-0.7,0-1,0-1.3,0
						c-4,0-5.5,2.1-4.3,6c1.1,3.4,3,6.4,5.4,9c3.8,4.2,8.2,7.7,12.8,10.8C113.2,381.2,121,385,129.1,388.1 M96.3,359.9
						c-0.8-0.8-1.7-1.7-1.4-3.2c1,0,2.1-0.2,3,0c4.6,1.1,9.3,1.9,13.7,3.4c12.2,4.1,20.3,12.6,26,24.8c-12.5-4.5-23.7-9.5-33.4-17.4
						C101.3,365.3,98.8,362.6,96.3,359.9z"/>
				</g>
			</g>
		</g>
	</g>
	<g>
		<g>
			<g>
				<g>
					<path class="st0" d="M91.1,240.5c1-0.5,2.1-1.1,3-1.6c4.7,1.4,8.3,4,11.4,7.6c3.2,3.7,6,7.7,7.8,12.3c0.2,0.5,0.4,1.1,0.7,1.6
						c0.7,1.3,2,1.9,3.3,1.4c1.3-0.5,1.9-1.6,1.6-3.2c-0.2-1.2-0.6-2.3-1-3.4c-3.6-10.1-5.1-20.5-5.4-31.2c0-1.7,0.1-3.2,1.1-4.6
						c1.4-2.1,2-4.6,2.2-7.1c0.3-5.5-2.9-9-8.4-9.2c-4.3-0.2-7.3,2.4-7.9,6.7c-0.5,3.6,1.1,6.3,3.7,8.5c1,0.9,2.2,1.5,3.2,2.2
						c0.1,3.2,0.2,6.3,0.4,9.4c0.2,3.2,0.9,6.3,0.8,9.6c-0.5-0.1-0.8,0-1-0.2c-2.8-2.2-5.7-4.1-9.1-5.4c-1.3-0.5-2.1-1.4-2.9-2.6
						c-1.6-2.4-4-3.4-6.7-3.7c-3.1-0.3-6,1.6-7,4.4c-1,2.8-0.1,5.7,2.3,7.5C85.7,241.3,88.3,241.9,91.1,240.5 M105.9,212.6
						c-0.4-0.6-0.4-1.7-0.3-2.5c0.1-0.8,0.8-1.2,1.6-1.2c1.7,0.1,2.8,1.2,2.8,2.7c0,0.7-0.1,1.5-0.3,2.2c-0.2,0.5-0.5,1-0.9,1.8
						C107.7,214.5,106.6,213.7,105.9,212.6z M87,234.2c0.3-0.2,0.7-0.7,0.9-0.6c0.5,0.1,0.9,0.5,2,1.1c-1.2,0.2-1.7,0.5-2.2,0.4
						C87.4,235,87.2,234.5,87,234.2z"/>
				</g>
			</g>
		</g>
	</g>
	<g>
		<g>
			<g>
				<g>
					<path class="st0" d="M99.5,308.5c-0.1-3.2-2.5-5.6-5.6-5.6c-2.9,0-5.6,2.7-5.7,5.6c-0.1,3.1,2.7,5.8,6,5.7
						C97.4,314.1,99.6,311.8,99.5,308.5"/>
				</g>
			</g>
		</g>
	</g>
</g>
<g>
	<g>
		<g>
			<g>
				<g>
					<path class="st0" d="M445.6,484.2c-3.4-1.6-7.2,0.7-8.3,4.3c-0.8,2.6,2.3,7.3,5.8,6.9c1.3-0.2,2.6-0.6,3.7-1.2
						c3.4-2,7.1-2.8,11-2.6c3.8,0.1,7.7,0.4,11.5,0.6c2.5,0.1,5,0.4,7.5,0.4c15.1-0.3,30.1-1.3,44.7-5.3c7-1.9,13.6-4.9,19.8-8.6
						c2.1-1.3,4-3,6-4.6c2.3-1.9,2-5.6-1.4-6.5c-4-1.1-7.9-2.4-11.9-3.3c-12.5-3-24.9-2.8-37.1,1.4c-2.2,0.8-4.4,1.4-7.1,2.3
						c0.3-0.8,0.4-1.2,0.6-1.3c7.3-5.8,15.1-10.3,24.4-11.7c2.5-0.4,5-0.4,7.5-0.5c1-0.1,2.1-0.1,3.1-0.3c1.5-0.3,2.4-1.5,2.3-2.8
						c-0.1-1.2-0.8-2.2-2.1-2.5c-1.3-0.3-2.6-0.3-3.9-0.4c-1.2,0-2.4,0-3.6,0.1c-0.1,0-0.2,0-0.3-0.1c0.1,0,0.3,0,0.4,0.1
						c0-1,0.8-1.1,1.5-1.3c4.7-1.1,9.5-2.3,14.2-3.4c1.6-0.4,3.2-0.5,5-0.8c1,0.5,2.2,1.1,3.3,1.8c3.1,1.7,6.4,2.1,9.9,1.7
						c2.6-0.3,4.8-1.4,6.7-3.2c4-3.9,2.9-9.4-2.4-11.2c-3.9-1.3-7.9-0.8-11.6,0.9c-0.5,0.2-1.1,0.5-1.5,0.9
						c-3.3,3.2-7.5,3.8-11.7,4.6c-3.6,0.6-7.2,1.6-10.8,2.4c-0.7,0.2-1.4,0.2-2.3,0.4c0.2-0.7,0.3-1.2,0.5-1.5
						c2.8-3.5,5.2-7.2,7.3-11c1.2-2.2,3.1-3.5,5.7-3.4c7.8,0.2,15.6-0.8,23.4-1.7c18.7-2.2,34.6-10.2,47.9-23.5
						c1.6-1.6,3-3.3,4.3-5.1c0.7-0.9,1.3-2,1.6-3.1c0.6-1.9-0.5-3.6-2.5-3.9c-0.7-0.1-1.5-0.2-2.2-0.2c-7.2,0.1-14.5,0-21.7,0.3
						c-5.6,0.2-11.1,1.7-16.3,3.9c-4.1,1.7-8.1,3.5-12.1,5.3c-0.8-0.9,0-1.6,0.3-2.3c3.5-7.5,6.3-15.3,7.6-23.5
						c1.3-8.3,2.1-16.7,0.5-25.1c-1.8-9.5-5.7-18-12.1-25.3c-3.3-3.7-7.3-6.3-11.8-8.4c-2.9-1.3-5.6-0.1-6,3.5
						c-0.2,1.5-0.2,3-0.1,4.4c0.7,11.9,5.1,22.4,12.3,31.7c3.3,4.2,7.6,7.4,12,10.6c0.6,2.9-0.3,5.8-0.8,8.6
						c-2.3,12.4-7.2,23.7-14.7,33.8c-1.9,2.5-6.2,6.3-9.7,8.7c0.1-1,0.1-1.8,0.2-2.6c1.1-5.7,0.9-11.5-0.5-17.1
						c-0.6-2.3-1.5-4.5-3.2-6.2c-1.5-1.6-3.2-2.6-5.2-3.1c-4.5-1.1-8.4,3-7,7.4c1,3.3,3.4,5.5,6.5,6.8c1.2,0.5,2.5,0.8,3.7,1.2
						c1,2.2,0.7,4.5,0.4,6.6c-1,8.3-3.6,16.2-8.3,23.1c-3.2,4.8-6.9,9.2-10.4,13.7c-0.4,0.6-1,1-1.6,1.5c-0.9-1.4,0.1-2.4,0.5-3.4
						c3-6.9,4.2-14.1,4.4-21.6c0-1.2,0.1-2.4,0-3.5c-0.4-3.5-2.6-4.8-5.9-3.4c-0.4,0.2-0.8,0.4-1.2,0.6c-12.6,6.3-20.8,16.2-24,30.1
						c-0.6,2.7-1.2,5.5-1.7,8.2c-1.9,9.7-6.4,17.7-14.3,23.7c-2.1,1.6-4.1,3.3-6.2,5c-2.1,1.7-4.5,2.8-7.1,3.6
						C449.3,484.9,447.6,485.1,445.6,484.2 M524.3,392.2c0,0-0.2,0.4-0.4,0.6c-0.3-0.3-0.6-0.7-0.8-1c0,0,0.2-0.3,0.2-0.3
						C523.7,391.7,524,391.9,524.3,392.2z M557.4,354.8c-9.6-3.8-20.1-25.7-18.1-35.3c0.6,0.2,1.2,0.3,1.6,0.6
						c1.8,1.5,3.8,2.8,5.4,4.5c6.2,6.8,9.6,15.1,11.1,24.1C557.7,350.7,557.9,352.8,557.4,354.8z M535.8,418.8
						c4.4-4,8.2-7.3,12.2-10.2c8.9-6.5,18.6-11.5,29.4-13.8c7.4-1.6,14.9-1.6,22.5-1.2c0.2,0,0.3,0.4,0.6,0.7c-0.3,0.4-0.6,1-1,1.4
						c-9.6,9.6-20.7,16.5-33.9,20c-7.2,1.9-14.5,2.6-21.8,3.3C541.4,419.1,539.1,419.3,535.8,418.8z M545.6,439.7
						c2.7-2.9,5.8-2.5,9.5-1.9c-1.9,2.4-1.9,2.4-3.3,2.7C549.7,441,547.7,440.8,545.6,439.7z M482.5,463.1c-0.1,0.1-0.5-0.1-1-0.3
						c2.1-5.5,3.1-11.3,4.3-17c0.9-4.3,2.6-8.4,4.8-12.3c3.2-5.7,8-9.7,13.6-12.8c0.2-0.1,0.6,0,1.1,0c0.3,3.7-0.1,7.3-1,10.8
						c-1.5,5.8-3.6,11.5-6.9,16.6C493.4,454.1,488.2,458.8,482.5,463.1z M467.4,485.3c0.9-0.5,1.9-1.1,2.9-1.6c4.1-2,8.2-4,12.3-6
						c6.5-3.3,13.2-5.9,20.2-7.7c2.7-0.7,5.5-1.1,8.3-1.5c9.4-1.2,18.5,0.4,27.5,3.1c0.4,0.1,0.6,0.5,1.1,1
						c-0.8,0.6-1.4,1.2-2.2,1.6c-6,3.3-12.1,6.2-18.7,7.8c-8.2,1.9-16.4,3.5-24.9,4c-8.4,0.5-16.8,1.2-25.2,0.4
						C468.3,486.2,467.6,486.5,467.4,485.3z"/>
				</g>
			</g>
		</g>
	</g>
	<g>
		<g>
			<g>
				<g>
					<path class="st0" d="M576.3,276.4c2.7-8.5,4.9-17,6.2-25.8c1.2-8,0.6-15.9-0.6-23.8c-0.2-1.6-0.5-3.2-0.9-4.8
						c-1.1-4.2-1.6-8.2-0.8-12.6c1-5.1,0-10.3-1-15.4c-1.4-7.1-3-14.1-4.6-21.6c3-6.4,3.7-13,1.3-19.8c-1-2.9-2.7-5.2-5.6-6.6
						c-2.8-1.3-5.6-0.7-7.5,1.8c-1.3,1.7-1.9,3.6-2,5.8c-0.2,4.6,1,8.8,3.3,12.7c0.8,1.3,1.7,2.4,2.5,3.7c0.8,1.3,1.6,2.5,2,3.9
						c2.1,8.1,4.1,16.3,5.4,25.3c-0.8-1-1.3-1.5-1.6-2c-5-9.8-11.4-18.6-19.6-26c-1.3-1.2-2.3-2.4-2.4-4.5
						c-0.9-11.9-4.8-22.8-11.2-32.8c-2.6-4.1-5.7-7.9-8.9-11.5c-4.1-4.8-9.4-8-14.9-10.9c-0.5-0.3-1.1-0.5-1.6-0.7
						c-3.6-1.4-5.3-0.4-5.8,3.4c-0.1,0.9,0,1.8,0.1,2.6c2.2,12.1,6.6,23.2,14.6,32.8c4.8,5.8,9.9,11.3,15.6,16.3
						c3.7,3.2,7.3,6.4,10.9,9.7c13.7,12.8,22.1,28.6,26,46.9c0.6,3,1,6.1,1.7,9.8c-1-0.7-1.4-1-1.7-1.3c-4-5-6.8-10.6-8.9-16.7
						c-3.5-10.2-10.3-17.8-19.6-23.1c-6.4-3.6-13.3-5.7-20.4-7.1c-3.6-0.7-7.3-1.2-10.9-1.8c-1.2-0.2-2.4-0.3-3.5-0.2
						c-2.5,0.2-3.8,2.5-2.8,4.9c0.3,0.8,0.9,1.5,1.4,2.3c7.4,10.6,16.9,18.4,28.9,23.2c3.6,1.4,7.1,3,10.6,4.4
						c7.6,3,13.8,7.8,18.4,14.6c2.7,3.9,5.3,7.8,7.2,12.2c1.1,2.5,1.4,5,0.9,7.7c-1.5,8.3-3.5,16.4-6.2,24.4
						c-0.7,2.1-1.3,4.3-3.8,5.1c-0.4,0.1-0.7,0.5-1,0.9c-1.1,1.3-1.6,2.8-0.9,4.5c0.6,1.5,3.1,3,4.7,2.9c1.7-0.2,3.2-1.1,3.6-2.9
						C573.5,282.8,575.3,279.7,576.3,276.4 M560.2,214.9c-1.1-0.3-1.5-0.3-1.9-0.5c-4.9-2.1-9.7-4.2-14.6-6.4
						c-2.7-1.2-5.4-2.3-8.1-3.6c-6.1-3.1-11.4-7.3-15.9-12.5c-0.5-0.6-0.8-1.4-1.4-2.4c3.1-0.5,5.6,0.2,8.2,0.7
						c7.1,1.5,14,3.7,20,7.9C552.6,202.2,557.1,207.5,560.2,214.9z M543.6,162.3c-14.3-10.4-27.5-28.8-29.5-44.9
						C528.3,124,543.6,147.5,543.6,162.3z M570.5,164.7c-2.4-2.3-3-5.1-3.6-8c-0.4-1.8-0.5-3.5,0.8-5.1c2.3,0.9,2.8,2.9,3.2,4.9
						C571.6,159.2,572.3,161.9,570.5,164.7z"/>
				</g>
			</g>
		</g>
	</g>
	<g>
		<g>
			<g>
				<g>
					<path class="st0" d="M612.5,330.8c3-1.3,4.3-4.7,3-7.8c-1-2.3-5.1-3.8-7.6-2.2c-2.8,1.8-5.7,2.1-8.8,2.6
						c-4.2,0.8-8.3,1.9-12.3,3.6c-0.8,0.3-1.6,0.5-3,0.8c0.7-1.3,1.1-2.1,1.5-2.8c1.5-2.2,3.1-4.3,4.6-6.5
						c9.2-12.7,14.8-26.8,17.4-42.1c1-5.9,1.4-12,2-18c0.1-0.6,0-1.2,0-1.8c-0.4-3-2.7-4.3-5.5-3.1c-0.5,0.2-1,0.6-1.5,0.9
						c-12.6,7.2-21.2,17.6-25.9,31.4c-4.4,12.8-6.1,25.8-4.3,39.2c0.4,3.4,0.7,6.7,1,10.1c-1.8,2.4-3.4,4.3-4.9,6.3
						c-0.7,0.9-1.1,2.1-1.5,3.2c-0.4,1.2,0.3,2.4,1.4,2.9c0.9,0.4,2.1,0.2,2.8-0.6c0.4-0.4,0.7-1,1-1.5c2.1-3.5,5.1-6.1,8.5-8.3
						c7.3-4.8,15.2-7.7,23.9-8.4c1,0.7,1.9,1.5,2.9,2C609,331.4,610.8,331.6,612.5,330.8 M578.8,324.1c-0.1,0.1-0.5,0-0.8,0
						c-1.7-14.6,0.3-27.9,6.1-41.4c1.9-4.3,4.3-8.4,7.3-12c3.1-3.7,6.9-6.7,11.2-9.3c0.7,4.4-0.6,14.4-2.3,21.5
						C596.4,298.4,588.6,311.8,578.8,324.1z"/>
				</g>
			</g>
		</g>
	</g>
	<g>
		<g>
			<g>
				<g>
					<path class="st0" d="M577.5,382.2c8.2-3.1,16-6.9,23.2-11.8c4.6-3.2,9-6.6,12.8-10.8c2.4-2.7,4.3-5.6,5.4-9
						c1.2-3.9-0.3-6-4.3-6c-0.3,0-0.6,0-1.3,0c-9.2,1-18.6,2.8-27.2,7.4c-11.1,5.9-18.4,15-22.8,26.6c-1.3,3.3-2.3,6.7-3.5,10
						c-0.5,1.4,0,2.7,1.2,3.4c1,0.6,2.2,0.5,3.2-0.4c0.3-0.3,0.7-0.6,0.9-1C568.3,386.3,572.7,384,577.5,382.2 M602.4,361.8
						c-9.7,7.9-20.9,13-33.4,17.4c5.6-12.2,13.8-20.7,26-24.8c4.4-1.5,9.1-2.4,13.7-3.4c1-0.2,2,0,3,0c0.3,1.4-0.6,2.4-1.4,3.2
						C607.7,356.7,605.2,359.4,602.4,361.8z"/>
				</g>
			</g>
		</g>
	</g>
	<g>
		<g>
			<g>
				<g>
					<path class="st0" d="M615.4,234.7c2.8,1.4,5.5,0.8,7.9-1c2.4-1.8,3.3-4.7,2.3-7.5c-1-2.8-3.9-4.7-7-4.4
						c-2.8,0.3-5.2,1.3-6.7,3.7c-0.7,1.1-1.5,2.1-2.9,2.6c-3.3,1.2-6.3,3.1-9.1,5.4c-0.2,0.1-0.5,0.1-1,0.2c0-3.2,0.6-6.4,0.8-9.6
						c0.2-3.1,0.3-6.2,0.4-9.4c1.1-0.7,2.3-1.4,3.2-2.2c2.6-2.2,4.1-5,3.7-8.5c-0.5-4.3-3.6-6.8-7.9-6.7c-5.5,0.2-8.7,3.8-8.4,9.2
						c0.1,2.5,0.7,5,2.2,7.1c1,1.4,1.2,2.9,1.1,4.6c-0.3,10.7-1.8,21.1-5.4,31.2c-0.4,1.1-0.7,2.2-1,3.4c-0.3,1.6,0.3,2.8,1.6,3.2
						c1.3,0.5,2.6-0.1,3.3-1.4c0.3-0.5,0.5-1.1,0.7-1.6c1.8-4.6,4.6-8.5,7.8-12.3c3.1-3.5,6.7-6.1,11.4-7.6
						C613.4,233.6,614.4,234.1,615.4,234.7 M597.8,209.7c-0.4-0.8-0.7-1.2-0.9-1.8c-0.2-0.7-0.3-1.4-0.3-2.2c0-1.6,1.1-2.7,2.8-2.7
						c0.8,0,1.5,0.4,1.6,1.2c0.1,0.8,0.1,1.8-0.3,2.5C600,207.8,598.9,208.6,597.8,209.7z M618.9,229.2c-0.5,0.1-1-0.1-2.2-0.4
						c1.1-0.6,1.5-1,2-1.1c0.3,0,0.6,0.4,0.9,0.6C619.4,228.7,619.2,229.2,618.9,229.2z"/>
				</g>
			</g>
		</g>
	</g>
	<g>
		<g>
			<g>
				<g>
					<path class="st0" d="M607.1,302.6c0.1-3.2,2.5-5.6,5.6-5.6c2.9,0,5.6,2.7,5.7,5.6c0.1,3.1-2.7,5.8-6,5.7
						C609.1,308.3,607,305.9,607.1,302.6"/>
				</g>
			</g>
		</g>
	</g>
</g>
<g>
	<path class="st0" d="M375.8,463.1c-14.3,18.3-23.8,21.1-23.8,21.1s-9.5-2.8-23.8-21.1c-17.7-22.8-10-45.5,7-44.6
		c13.9,0.8,16.8,17.1,16.8,17.1s2.9-16.3,16.8-17.1C385.8,417.6,393.6,440.4,375.8,463.1z M440.3,416.6l-31.8-26.5V356h-22.2v15.7
		l-27.2-22.6c-3.9-3.2-10.2-3.2-14.1,0l-81.2,67.5c-3.9,3.2-2.9,5.8,2.1,5.8h22.8v80c0,5.1,4.1,9.2,9.2,9.2h108.3
		c5,0,9.2-4.1,9.2-9.2v-80h22.8C443.3,422.4,444.2,419.8,440.3,416.6z"/>
</g>
<g>
	<path class="st0" d="M216.8,582.8c-0.8-0.1-1.5-0.3-2.1-0.6c-0.6-0.3-1.3-0.7-2-1.2c-0.5-0.3-1-0.8-1.6-1.4s-1.1-1.2-1.6-1.7
		c-2.6-3.3-4.9-7.8-6.8-13.5c-0.4-1-0.6-1.5-0.7-1.6c0,0-0.1-0.1-0.1-0.1c0,0-0.1,0-0.1,0.1c-0.1,0.1-0.2,0.3-0.4,0.6
		c-0.2,0.3-0.4,0.8-0.7,1.3c-0.5,1-0.9,2-1.3,3.1c-0.4,1.1-1,2.7-1.9,5c-0.2,0.7-0.5,1.4-0.7,2c-0.2,0.6-0.4,1-0.4,1.2
		c-0.6,1.5-1.2,2.5-1.9,3c-0.1,0.1-0.2,0.1-0.2,0.2c-0.1,0-0.1,0-0.2,0c-0.1,0-0.2,0-0.4,0c-0.4,0-0.8,0-1.2,0c-0.4,0-0.8-0.1-1-0.2
		c-0.5-0.1-0.9-0.3-1.3-0.6c-0.4-0.3-0.8-0.7-1-1.1c-1.5-3.1-2.2-8.2-2.2-15.4c0-5.2,0.4-9,1.2-11.4c0.5-1.1,1.1-1.8,1.9-2.2
		c0.2-0.1,0.3-0.1,0.4-0.2c0.1,0,0.4,0,0.7,0c0.2,0,0.4,0,0.6,0c0.1,0,0.3,0.1,0.4,0.2c0.2,0.1,0.4,0.2,0.6,0.4l0.3,0.2h1
		c0.3,0,0.5,0.1,0.7,0.1c0.1,0,0.3,0,0.3,0.1c0.1,0,0.2,0.1,0.3,0.1c0.7,0.3,1.1,0.9,1.2,1.7v0.4c0,1-0.3,2.4-0.9,4.5
		c-1.7,5.3-2.6,10-2.9,14.3c0,0.5-0.1,1-0.1,1.5s0,0.9,0,1.3c0,0.4,0,0.6,0,0.7c0,0.1,0.1,0.1,0.1,0.1c0.2,0,0.4-0.3,0.7-0.9
		c0.2-0.4,0.4-0.9,0.7-1.6c0.3-0.7,0.8-1.8,1.5-3.3c0.7-1.6,1.2-2.8,1.6-3.6c0.4-0.8,0.8-1.7,1.3-2.7c1.1-2.1,1.8-3.4,2-3.7
		c0.2-0.2,0.4-0.4,0.7-0.4c0.2,0,0.4,0.1,0.7,0.2c0.2,0.1,0.3,0.1,0.4,0.2c0.1,0,0.2,0.1,0.3,0.1s0.3,0.1,0.6,0.1
		c0.3,0,0.6,0,0.7,0.1c0.1,0,0.3,0.1,0.5,0.2c0.6,0.3,1.1,0.8,1.6,1.4c0.4,0.5,0.7,1.3,1.1,2.2c0.4,0.9,0.8,2.4,1.3,4.4
		c1.5,6,3.2,10.1,5.3,12.5c0.3,0.3,0.6,0.7,1,1c0.4,0.4,0.7,0.6,0.9,0.7c0.2,0.1,0.3,0.1,0.5,0.1c0.2,0,0.5-0.1,0.7-0.2
		c1.6-0.9,2.7-3.3,3.4-7.3c0.4-2.4,0.6-5.5,0.6-9.2c0-1.2,0-2.5-0.1-3.9c-0.1-5.5-0.5-10.8-1.2-15.9c-0.2-1-0.2-1.8-0.2-2.3v-0.2
		c0-0.5,0.1-0.7,0.4-0.7c0,0,0.1-0.1,0.1-0.1c0.6,0,1.3,2.5,2,7.5c0.5,3.8,1,8.5,1.4,14.3c0.1,1.5,0.2,3.3,0.2,5.3
		c0,2,0,3.6-0.1,4.8c-0.4,4.3-1.1,7.2-2.2,8.6c-0.8,1.1-1.9,1.6-3.1,1.6c-0.1,0-0.3,0-0.6-0.1C217.4,582.9,217.1,582.9,216.8,582.8z
		"/>
	<path class="st0" d="M239.7,581.9c-0.3,0-0.6-0.1-0.8-0.2c-0.3-0.1-0.6-0.2-0.9-0.4c-3.7-1.8-5.9-5.8-6.6-12c0-0.5-0.1-1.1-0.1-1.9
		c0-0.7,0-1.3,0-1.8l0.1-1.5c0-1,0-1.7,0.1-2.2c0.4-3.3,1.1-6.4,2-9.1c1.7-5,3.6-8,6-9.2c0.5-0.3,1.1-0.4,1.6-0.4
		c0.6,0,1.1,0.2,1.7,0.6c0.1,0.1,0.3,0.2,0.4,0.2c0.2,0.1,0.3,0.1,0.5,0.2c0.3,0.1,0.5,0.2,0.7,0.3c0.2,0.1,0.4,0.2,0.6,0.4
		c0.5,0.5,0.8,1.3,0.8,2.5c0,1-0.2,2.3-0.6,3.9c-1.1,4.4-3,8.1-5.5,11.1c-0.8,1-1.7,1.7-2.7,2.2c-0.2,0.1-0.4,0.2-0.6,0.3
		s-0.2,0.2-0.2,0.2c0,0.1-0.1,0.2-0.1,0.4c0,0.4-0.1,0.8-0.1,1.4v1c0,1.1,0.1,2.1,0.2,3.1c0.4,2.9,1.1,5.1,2.2,6.8
		c0.4,0.5,0.8,1,1.2,1.3c0.4,0.4,0.8,0.6,1.2,0.7c0.6,0,1.3-0.3,2.3-1c1-0.6,1.9-1.5,2.8-2.6c1.2-1.5,2.6-3.9,4.3-7
		c1.7-3.1,3.2-6.1,4.5-9.1c0.4-0.8,0.7-1.3,0.8-1.7s0.4-0.6,0.5-0.7c0.2-0.2,0.3-0.2,0.4-0.2c0.1,0,0.2,0,0.2,0.1
		c0.1,0.1,0.2,0.3,0.2,0.5c0,0.1,0,0.3-0.1,0.4c-0.1,0.6-0.6,1.9-1.4,3.8c-0.8,1.9-1.7,4-2.7,6.2c-1,2.2-1.9,4.1-2.6,5.5
		c-0.7,1.4-1.4,2.5-2,3.4c-0.6,0.8-1.2,1.6-1.7,2.1c-1,1-2,1.7-3.2,1.9c-0.4,0.1-1,0.1-1.6,0.1C240.7,582,240.1,582,239.7,581.9z
		 M236.9,561.1c0.2-0.1,0.4-0.4,0.8-0.9c0.4-0.5,0.7-0.9,1-1.4c0.9-1.4,1.7-2.9,2.4-4.6c0.7-1.7,1.2-3.2,1.5-4.5
		c0.1-0.6,0.2-1,0.2-1.2s-0.1-0.4-0.2-0.4c-0.1,0-0.2,0.1-0.4,0.4c-0.9,0.9-1.8,2.2-2.7,4c-0.9,1.8-1.7,3.5-2.2,5.3
		c-0.5,1.7-0.8,2.7-0.8,3.2l0.1,0.1c0,0.1,0,0.1,0.1,0.1C236.7,561.2,236.8,561.1,236.9,561.1z"/>
	<path class="st0" d="M269,590.3c-0.2,0-0.3-0.1-0.5-0.1c-0.2,0-0.4-0.1-0.6-0.1c-0.1,0-0.2-0.1-0.2-0.1c-2.6-0.4-4.9-2-6.8-4.8
		c-1.7-2.8-3.1-6.7-4.2-11.8c-0.9-4.3-1.4-8.7-1.6-13.3c0-0.4-0.1-0.8-0.1-1.1c0-0.3,0-0.5,0-0.5c0,0-0.1-0.1-0.2-0.2
		s-0.1-0.2-0.2-0.2c-0.3-0.2-0.4-0.5-0.4-0.8c0-0.1,0-0.3,0.1-0.4c0.1-0.1,0.2-0.3,0.3-0.3c0.1-0.1,0.2-0.2,0.2-0.3
		c0.1-0.1,0.1-0.3,0.1-0.5c0-0.2,0-0.5,0-1c0-1.7,0.1-3.8,0.3-6.3c0.2-2.5,0.4-4.9,0.7-7.3c0.9-6.4,2.3-12.3,4-17.5
		c3-8.7,6.5-14.3,10.4-16.8c1-0.6,1.9-0.9,2.8-0.9c0.7,0,1.3,0.2,1.9,0.5c0.1,0,0.2,0.1,0.4,0.2c0.1,0.1,0.2,0.1,0.4,0.2
		c1.3,0.5,2.2,1.4,2.5,2.7c0.3,1.2,0.5,2.5,0.5,4.1c0,4.3-1.2,10-3.5,17.4c-3.8,11-8.7,19.4-14.7,25c-0.2,0.2-0.5,0.3-0.6,0.5
		c-0.2,0.2-0.3,0.3-0.3,0.4c-0.1,0.2-0.1,0.9-0.1,2c0,1.1,0,2.5,0.1,4c0.1,1.6,0.2,3.1,0.3,4.7c0.6,6.1,1.7,11,3.3,14.8
		c0.5,1,1,2,1.7,2.9c0.7,0.9,1.2,1.5,1.7,1.8c0.1,0,0.2,0.1,0.3,0.1c0.1,0,0.1,0,0.2,0c0,0,0.1,0,0.2-0.1c1-0.2,2.1-0.7,3.2-1.6
		c0.2-0.1,0.4-0.3,0.7-0.6c0.3-0.2,0.5-0.5,0.8-0.7c0.7-0.7,1.4-1.5,2.1-2.3c0.6-0.8,1.4-1.8,2.1-3c3.2-4.8,6.1-10.4,8.7-16.7
		c0.5-1.2,1-2.1,1.3-2.7c0.3-0.6,0.6-1,0.9-1.3c0.2-0.2,0.4-0.3,0.5-0.3c0.1,0,0.2-0.1,0.3-0.1h0.1c0.2,0.1,0.4,0.4,0.4,0.9
		c0,0.6-0.2,1.5-0.6,2.7c-0.3,1-0.8,2.3-1.4,3.9c-0.6,1.6-1.2,3.1-1.8,4.4c-1.2,2.9-2.4,5.7-3.8,8.5c-1.4,2.8-2.5,4.9-3.5,6.4
		c-1.9,3.1-3.9,4.9-6,5.5c-0.4,0.1-0.7,0.1-1.1,0.1c-0.3,0-0.6,0-0.7,0C269.5,590.3,269.3,590.3,269,590.3z M260.3,551.6
		c0.2-0.2,0.8-0.8,1.7-1.9c4.5-5.6,8.1-12.3,11-20.2c1.8-5.1,3-9.6,3.5-13.5c0-0.7,0.1-1.4,0.1-2.4c0-0.9,0-1.6,0-2
		c-0.1-0.6-0.3-1.2-0.4-1.6c-0.1-0.5-0.3-0.8-0.5-0.9c-0.1,0-0.2-0.1-0.2-0.1c-0.5,0-1.1,0.4-2,1.3c-1.9,1.9-3.8,4.6-5.6,8.3
		c-0.9,1.8-1.7,3.5-2.4,5.3c-0.7,1.8-1.3,3.8-2,6.1c-1.3,4.4-2.3,9.3-3,14.8c-0.2,1.6-0.4,3-0.4,4.1c-0.1,1.1-0.1,1.9-0.1,2.3v0.4
		c0,0.1,0.1,0.1,0.1,0.1c0,0,0.1,0,0.1,0C260.1,551.6,260.2,551.6,260.3,551.6z"/>
	<path class="st0" d="M295.5,584.7c-0.5-0.1-1-0.2-1.4-0.3c-0.4-0.1-0.7-0.3-1.1-0.5c-3.8-1.9-6.1-6.6-6.8-14.3
		c0-0.5-0.1-1.2-0.1-2.2c0-1,0-1.9,0-2.9c0-1,0-1.7,0.1-2.3c0.6-6.7,2-12.2,4.2-16.6c1-2,2.1-3.3,3.2-4c0.6-0.3,1.2-0.4,1.7-0.4
		c0.2,0,0.5,0,0.7,0.1c0.3,0.1,0.6,0.2,1,0.4c0.4,0.2,0.8,0.4,1.1,0.7c0.2,0.2,0.4,0.4,0.6,0.5c0.1,0.1,0.3,0.2,0.4,0.2
		c0.1,0,0.4,0.1,0.7,0.1c0.9,0.2,1.6,0.7,2.1,1.2c0.9,1,1.4,2,1.5,3.1c0,0.2,0,0.4,0,0.5c0,0.1-0.1,0.2-0.1,0.3
		c-0.1,0.2-0.2,0.3-0.4,0.3c-0.1,0.1-0.2,0.1-0.3,0.1h-0.2c-0.2,0-0.4-0.1-0.7-0.2s-0.5-0.3-0.7-0.4c-0.2-0.2-0.4-0.3-0.6-0.3
		c-0.2,0-0.4,0.2-0.8,0.4c-2.6,2.1-4.7,5.3-6.4,9.5c-1.7,4.3-2.6,8.6-2.6,13c0,2.2,0.2,4.1,0.6,5.6c0.2,0.7,0.4,1.2,0.5,1.7
		c0.1,0.5,0.3,0.9,0.5,1.3c0.5,1,1,1.7,1.6,2.4c0.4,0.4,0.7,0.7,0.9,0.7c0.2,0.1,0.4,0.1,0.6,0.1c0.3,0,0.6-0.1,1-0.2
		c2.1-0.6,4.3-2.7,6.8-6.3c2.7-4.1,5.3-9.2,7.8-15.4c0.7-1.6,1.1-2.5,1.4-2.8c0.2-0.2,0.4-0.2,0.6-0.2c0.1,0,0.2,0.1,0.3,0.2
		c0.1,0.1,0.1,0.3,0.1,0.5c0,0.6-0.2,1.5-0.7,2.8c-1.7,4.9-3.6,9.6-5.8,14.1c-2.7,5.5-5.5,8.7-8.4,9.4c-0.3,0.1-0.7,0.1-1.1,0.1
		C296.8,584.9,296.2,584.9,295.5,584.7z"/>
	<path class="st0" d="M320,577.9c-1,0-1.8-0.3-2.6-0.7c-2.3-1.1-3.9-3.3-5-6.6c-0.3-0.9-0.6-1.9-0.9-3.1c-0.2-1.2-0.4-2.3-0.6-3.4
		c0-0.7-0.1-1.5-0.1-2.4c0-1,0-1.7,0.1-2.2c0.4-2.7,1.3-4.6,2.5-5.7c0.5-0.5,1.1-0.7,1.7-0.7c0.2,0,0.3,0,0.4,0s0.3,0,0.4,0.1
		c0.1,0.1,0.4,0.2,0.7,0.3c0.2,0,0.3,0.1,0.4,0.1c0.1,0,0.2,0,0.2-0.1c0.1-0.2,0.2-0.5,0.2-1.1c0.2-3.4,1.1-5.9,2.7-7.6
		c0.8-0.9,1.7-1.3,2.7-1.3c0.5,0,1,0.1,1.6,0.3l0.4,0.1c0.3,0.1,0.5,0.2,0.7,0.3c1.6,0.5,2.7,2,3.5,4.5c0.7,1.9,1,4.5,1,7.7v1.1
		c0,1.4-0.1,2.8-0.2,4c-0.1,1.2-0.3,2.5-0.5,4c-0.1,0.5-0.1,0.8-0.2,1c0,0.1,0,0.3,0,0.3c0,0.1,0,0.2,0.1,0.2c0,0.1,0.1,0.1,0.2,0.2
		h1.1c0.5,0,1,0,1.4-0.1c2.1-0.4,4.5-1.4,7.1-3.1c2.1-1.4,3.9-2.9,5.4-4.7c0.2-0.2,0.4-0.5,0.6-0.7s0.3-0.3,0.5-0.4
		c0.4-0.3,0.7-0.4,1-0.4s0.4,0.2,0.4,0.6c0,0.6-0.6,1.6-1.8,3c-1.2,1.4-2.6,2.7-4.2,3.9c-2,1.5-3.7,2.5-5.1,3
		c-1.4,0.5-2.7,0.7-4,0.7c-0.6,0-1.2,0-1.7-0.1c-0.3,0-0.6,0-0.7,0c-0.2,0-0.3,0-0.4,0c-0.1,0-0.1,0-0.2,0.1c-0.1,0-0.2,0-0.2,0.1
		c-0.1,0.1-0.1,0.2-0.2,0.4c-0.1,0.2-0.1,0.4-0.2,0.7c-1.4,4.5-3.3,7.1-5.6,7.7c-0.2,0-0.5,0.1-0.9,0.1
		C321.3,578,320.7,578,320,577.9z M320,575.1c0.2-0.2,0.5-0.4,0.9-0.7c0.4-0.3,0.7-0.6,0.9-0.9c1-1.2,1.9-2.6,2.7-4.4
		c0.2-0.6,0.4-1,0.4-1.2c0-0.1,0-0.1-0.1-0.2c0,0-0.1-0.1-0.2-0.2c-0.1-0.1-0.3-0.2-0.5-0.3c-1.2-0.7-2.1-1.5-2.8-2.4
		c-1-1.2-1.9-2.7-2.6-4.4c-0.2-0.5-0.3-0.8-0.4-1.1c-0.1-0.2-0.2-0.3-0.2-0.3h-0.1c0,0-0.1,0.1-0.2,0.2c-0.1,0.3-0.3,0.9-0.5,2
		c-0.2,1-0.4,2-0.5,2.9c-0.1,0.7-0.1,1.4-0.1,2.2s0,1.3,0,1.6c0,0.6,0,1.2,0.1,1.6c0.3,2.5,1,4.3,2,5.4c0.1,0.1,0.2,0.2,0.3,0.2
		c0.1,0,0.2,0.1,0.3,0.1c0.1,0,0.2,0,0.3,0S320,575.2,320,575.1z M325.9,565.3c0.2,0,0.4-0.7,0.7-2c0.6-2.2,1-4.4,1.1-6.4
		c0-0.5,0.1-1.1,0.1-1.9c0-0.7,0-1.4-0.1-2.1c0-0.7-0.1-1.2-0.1-1.5c-0.4-2.4-1.1-4-1.9-4.9c-0.2-0.2-0.3-0.2-0.5-0.2
		c-0.3,0-0.6,0.2-0.9,0.6c-1.1,1.1-1.8,3-2.2,5.8c-0.1,0.6-0.1,1.2-0.1,1.9c0,0.7,0,1.2,0,1.5c0,0.6,0,1.1,0.1,1.5
		c0.2,1.9,0.7,3.5,1.3,4.9c0.3,0.6,0.6,1.2,1.1,1.7c0.4,0.6,0.8,1,1.1,1.2c0.1,0,0.1,0.1,0.2,0.1h0.1
		C325.8,565.4,325.8,565.4,325.9,565.3z"/>
	<path class="st0" d="M391.7,590.5c-1.2-0.2-2.3-0.8-3-1.7c-1.7-2-2.5-6.7-2.5-14.1c0-1.6,0-3.4,0.1-5.3c0.2-6,0.8-13.5,1.7-22.6
		c0.2-2.1,0.4-3.7,0.5-4.7c0.1-1,0.1-2.1,0.2-3.3c0-0.5,0.1-1,0.1-1.4c0-0.3,0-0.6-0.1-0.7c-0.1-0.3-0.2-0.4-0.3-0.4h-0.1
		c-0.1,0-0.3,0.1-0.6,0.4c-0.3,0.3-0.6,0.6-0.9,0.9c-0.3,0.4-0.6,0.7-0.9,1c-3.3,4.5-6.3,10.7-9.2,18.7c-0.8,2.1-1.6,4.7-2.4,7.8
		c-0.4,1.5-0.7,2.6-1,3.3c-0.2,0.7-0.5,1.1-0.8,1.3c-0.1,0.2-0.3,0.3-0.4,0.3c-0.1,0-0.3,0.1-0.5,0.1c-0.1,0-0.3,0-0.5,0
		c-0.2,0-0.4,0.1-0.6,0.1h-1.2c-0.4-0.1-0.8-0.2-1.2-0.5c-0.6-0.3-1.1-0.8-1.6-1.6s-0.9-2-1.3-3.5c-0.2-0.7-0.4-1.5-0.6-2.2
		c-0.2-0.7-0.4-1.5-0.6-2.4c-0.1-0.7-0.2-1.1-0.3-1.4c-0.1-0.3-0.2-0.4-0.2-0.4c-0.2,0-0.4,0.5-0.8,1.5c-1,2.5-2.3,7.1-3.9,13.7
		c-0.5,1.9-0.9,3.3-1.1,4.1c-0.3,0.8-0.6,1.4-0.9,1.7c-0.2,0.2-0.3,0.3-0.4,0.4s-0.3,0.1-0.6,0.2c-0.3,0-0.7,0-1.3,0
		c-0.5,0-0.8-0.1-1-0.1c-0.2,0-0.4,0-0.6-0.1c-0.1,0-0.3-0.1-0.5-0.1c-0.5-0.2-1.1-0.5-1.7-0.9c-1.8-1.6-3.4-6.1-4.7-13.3
		c-0.6-3.6-1.1-7.3-1.4-11.2c-0.1-0.9-0.1-1.9-0.1-3c0-1.2,0-2,0.1-2.4c0.3-1.7,0.9-2.7,1.7-3l0.2-0.1l0.2,0.1
		c0.2,0,0.5,0.1,0.8,0.3l0.6,0.3l0.4-0.1c0.2,0,0.5-0.1,0.7-0.1c1.3,0,2.1,0.8,2.5,2.5c0.2,0.8,0.4,1.7,0.5,2.7
		c0.1,1,0.2,2.7,0.2,5.1c0,1.9,0.1,3.5,0.2,4.7s0.1,2.4,0.2,3.5c0.1,1.9,0.3,3.7,0.4,5.2c0.2,1.6,0.3,2.4,0.4,2.7
		c0.1,0.1,0.1,0.1,0.2,0.1c0.1,0,0.1,0,0.2-0.1c0-0.1,0.1-0.3,0.3-0.7c0.2-0.4,0.4-1.1,0.8-2.1c0.4-1,0.8-2.3,1.4-4.1
		c1.7-5,3.1-8.7,4.2-11c0.5-1,0.9-1.7,1.1-2.1c0.2-0.4,0.5-0.6,0.8-0.7c0.1,0,0.3,0,0.4,0c0.1,0,0.3,0.1,0.6,0.2
		c0.1,0,0.2,0.1,0.2,0.1c0.1,0,0.2,0,0.3,0.1c0.1,0,0.3,0,0.5,0c0.5,0,0.8,0,1.1,0.1c0.2,0.1,0.5,0.2,0.8,0.3
		c0.7,0.5,1.4,1.6,1.9,3.2c0.2,0.4,0.3,1,0.5,1.6c0.1,0.7,0.4,1.8,0.7,3.3c0.2,0.8,0.3,1.4,0.4,1.9c0.1,0.5,0.2,0.8,0.2,1.1
		s0.1,0.4,0.2,0.5c0,0.1,0.1,0.1,0.1,0.2c0,0,0.1,0,0.2-0.1c0.1,0,0.1-0.2,0.2-0.3c0.1-0.2,0.2-0.5,0.3-0.8c0.1-0.4,0.3-0.8,0.6-1.4
		c0.2-0.6,0.5-1.4,0.9-2.3c1.2-3.1,2.1-5.7,3-7.6c3.8-8.8,7.5-14.8,10.9-18.2c0.5-0.5,0.9-0.7,1.1-0.8s0.4-0.1,0.6-0.1
		c0.2,0,0.5,0.1,0.8,0.2c0.1,0.1,0.3,0.2,0.4,0.2c0.2,0.1,0.3,0.1,0.5,0.1c0.8,0.1,1.5,0.5,2.1,1.2c0.8,0.8,1.4,2.2,1.7,4.2
		c0,0.2,0.1,0.5,0.1,0.7c0,0.2,0,0.5,0,0.9c0,0.4,0,0.9,0,1.5c0,1.3,0,2.5-0.1,3.7c-0.1,1.2-0.2,2.7-0.5,4.6s-0.6,4.5-1.1,7.8
		c-0.5,3.2-0.8,5.6-1,7.2c-0.2,1.6-0.4,3.3-0.6,4.9c-0.2,1.8-0.4,3.4-0.4,4.7c-0.1,1.3-0.1,2.7-0.1,4c0,4.1,0.4,6.8,1.2,8.1
		c0.4,0.8,0.7,1.2,1.1,1.2c0.1,0,0.3-0.1,0.6-0.2c0.3-0.2,0.6-0.4,0.9-0.6c0.3-0.2,0.7-0.6,1.2-1.1c0.5-0.5,0.9-1,1.2-1.4
		c1.4-1.8,3.2-4.8,5.3-9.1c0.9-1.8,1.7-3.6,2.5-5.3c0.8-1.7,1.8-4,3-6.9c0.4-1,0.8-1.9,1.1-2.6c0.2-0.6,0.4-1,0.4-1.2
		c0.7-1.4,1.2-2.1,1.5-2.1h0.1c0.2,0,0.3,0.2,0.3,0.6v0.2c0,0.4-0.1,0.9-0.3,1.6c-0.2,0.7-0.6,1.8-1.2,3.3c-3.1,8.4-5.8,15-8.2,19.6
		c-0.8,1.5-1.4,2.7-2,3.6c-0.5,0.9-1.1,1.6-1.7,2.2c-0.7,0.7-1.4,1.2-2,1.5c-0.1,0-0.2,0.1-0.3,0.1c-0.1,0-0.2,0-0.4,0.1
		c-0.2,0-0.4,0-0.8,0c-0.3,0-0.6,0-0.9,0C392,590.6,391.8,590.5,391.7,590.5z"/>
	<path class="st0" d="M416.3,581.9c-0.3,0-0.6-0.1-0.8-0.2c-0.3-0.1-0.6-0.2-0.9-0.4c-3.7-1.8-5.9-5.8-6.6-12c0-0.5-0.1-1.1-0.1-1.9
		c0-0.7,0-1.3,0-1.8l0.1-1.5c0-1,0-1.7,0.1-2.2c0.4-3.3,1.1-6.4,2-9.1c1.7-5,3.6-8,6-9.2c0.5-0.3,1.1-0.4,1.6-0.4
		c0.6,0,1.1,0.2,1.7,0.6c0.1,0.1,0.3,0.2,0.4,0.2c0.2,0.1,0.3,0.1,0.5,0.2c0.3,0.1,0.5,0.2,0.7,0.3c0.2,0.1,0.4,0.2,0.6,0.4
		c0.5,0.5,0.8,1.3,0.8,2.5c0,1-0.2,2.3-0.6,3.9c-1.1,4.4-3,8.1-5.5,11.1c-0.8,1-1.7,1.7-2.7,2.2c-0.2,0.1-0.4,0.2-0.6,0.3
		s-0.2,0.2-0.2,0.2c0,0.1-0.1,0.2-0.1,0.4c0,0.4-0.1,0.8-0.1,1.4v1c0,1.1,0.1,2.1,0.2,3.1c0.4,2.9,1.1,5.1,2.2,6.8
		c0.4,0.5,0.8,1,1.2,1.3c0.4,0.4,0.8,0.6,1.2,0.7c0.6,0,1.3-0.3,2.3-1c1-0.6,1.9-1.5,2.8-2.6c1.2-1.5,2.6-3.9,4.3-7
		c1.7-3.1,3.2-6.1,4.5-9.1c0.4-0.8,0.7-1.3,0.8-1.7s0.4-0.6,0.5-0.7c0.2-0.2,0.3-0.2,0.4-0.2c0.1,0,0.2,0,0.2,0.1
		c0.1,0.1,0.2,0.3,0.2,0.5c0,0.1,0,0.3-0.1,0.4c-0.1,0.6-0.6,1.9-1.4,3.8c-0.8,1.9-1.7,4-2.7,6.2c-1,2.2-1.9,4.1-2.6,5.5
		c-0.7,1.4-1.4,2.5-2,3.4c-0.6,0.8-1.2,1.6-1.7,2.1c-1,1-2,1.7-3.2,1.9c-0.4,0.1-1,0.1-1.6,0.1C417.3,582,416.7,582,416.3,581.9z
		 M413.5,561.1c0.2-0.1,0.4-0.4,0.8-0.9c0.4-0.5,0.7-0.9,1-1.4c0.9-1.4,1.7-2.9,2.4-4.6c0.7-1.7,1.2-3.2,1.5-4.5
		c0.1-0.6,0.2-1,0.2-1.2s-0.1-0.4-0.2-0.4c-0.1,0-0.2,0.1-0.4,0.4c-0.9,0.9-1.8,2.2-2.7,4c-0.9,1.8-1.7,3.5-2.2,5.3
		c-0.5,1.7-0.8,2.7-0.8,3.2l0.1,0.1c0,0.1,0,0.1,0.1,0.1C413.2,561.2,413.4,561.1,413.5,561.1z"/>
	<path class="st0" d="M473.4,589.9c-0.5-0.1-1-0.3-1.4-0.4c-0.4-0.1-0.7-0.3-1.1-0.5c-1.9-1.2-3.5-3.5-4.8-7.1
		c-1.9-5-3.3-12.2-4.2-21.6c-0.4-3.6-0.6-7-0.7-10.1c-0.1-3.1-0.2-6.9-0.2-11.3v-4.5l-0.1-1.2c0,0-0.1-0.1-0.2-0.1
		c-0.1,0-0.1,0-0.2,0c-0.1,0-0.4,0.1-0.9,0.2c-0.5,0.1-1.1,0.3-1.8,0.5c-4.2,1.2-8.3,2.5-12.2,3.8c-2.9,1-4.8,1.6-5.5,1.7h-0.2
		c-0.3,0-0.6-0.1-0.7-0.2c0-0.1-0.1-0.2-0.2-0.3c-0.1-0.1-0.1-0.2-0.2-0.3c-0.1-0.2-0.2-0.3-0.2-0.5c-0.1-0.2-0.2-0.3-0.2-0.4
		c-0.2-0.3-0.3-0.5-0.3-0.7s-0.1-0.4-0.1-0.6v-0.4c0-0.9,0.3-1.4,1-1.6c1.1-0.4,3.5-1,7.3-1.9c3.7-0.9,7.7-1.8,12-2.6l1.2-0.2
		c0.7-0.2,1.1-0.2,1.2-0.2c0.1,0,0.2-0.1,0.2-0.2c0-0.1,0.1-0.3,0.2-0.6s0.1-0.7,0.2-1.2c0.3-2.1,0.6-4.4,1.1-6.8
		c0.4-2.4,0.8-4.5,1.2-6.4c0.3-1.2,0.5-2.1,0.8-2.7c0.2-0.6,0.5-0.9,0.8-1.1c0.3-0.2,0.7-0.4,1.1-0.4c0.5,0,1,0.2,1.6,0.7
		c0.2,0.2,0.4,0.3,0.5,0.4c0.1,0.1,0.2,0.1,0.4,0.2c0.1,0,0.3,0.1,0.5,0.1h0.1c0.5,0,0.9,0.1,1.1,0.2c0.3,0.1,0.5,0.3,0.8,0.6
		c0.4,0.4,0.6,0.8,0.8,1.2c0.1,0.4,0.2,1,0.2,1.7c0,0.2,0,0.5,0,0.6c0,0.2,0,0.4-0.1,0.6c0,0.2-0.1,0.5-0.2,0.9
		c-0.3,1.1-0.6,2.5-0.9,4.1c-0.3,1.6-0.6,3.3-0.9,4.9c-0.1,0.4-0.1,0.7-0.1,0.8c0,0.1,0,0.3,0,0.3v0.2c0,0.1,0.1,0.1,0.2,0.1
		c0.1,0,0.7-0.1,1.9-0.2c1.2-0.1,2.7-0.4,4.7-0.7c10.3-1.5,16.7-2.2,19.1-2.2c0.4,0,0.7,0,0.8,0s0.3,0,0.4,0c0.1,0,0.2,0.1,0.3,0.1
		c0.3,0.1,0.4,0.3,0.4,0.4c0,0,0,0.1-0.1,0.2c-0.1,0.2-0.4,0.4-1.1,0.6c-0.6,0.2-1.7,0.4-3.2,0.6c-5.3,0.7-10.8,1.7-16.4,2.8
		c-1,0.2-2,0.4-3.1,0.7c-1.1,0.2-2,0.4-2.8,0.6c-0.8,0.2-1.3,0.3-1.4,0.3c-0.1,0-0.2,0.1-0.2,0.1s-0.1,0.1-0.2,0.1
		c0,0.1-0.1,0.2-0.1,0.5c0,0.2-0.1,0.6-0.2,0.9c-0.1,0.4-0.2,1-0.2,1.6c-0.1,0.5-0.2,1-0.2,1.4c-1.4,7.4-2.2,14.5-2.4,21.4
		c0,1.2-0.1,2.3-0.1,3.4c0,5.9,0.5,11.2,1.4,16.1c1,5.2,2.3,8.7,4,10.7c0.4,0.4,0.7,0.7,0.8,0.7c0.2,0.1,0.3,0.1,0.5,0.1
		c0.2,0,0.5-0.1,0.8-0.2c1.2-0.6,2.5-1.8,3.7-3.7c2.1-3.1,5.1-9.9,8.8-20.5c0.4-1,0.7-1.8,0.9-2.4c0.2-0.6,0.4-1,0.5-1.3
		c0.1-0.3,0.3-0.6,0.4-0.8c0.2-0.3,0.3-0.5,0.5-0.7c0.2-0.2,0.3-0.3,0.4-0.3c0.3,0,0.4,0.2,0.4,0.7c0,0.4-0.1,0.9-0.2,1.5
		c-0.2,0.7-0.7,2.1-1.3,4.2c-0.7,2.2-1.3,4.2-2,6.2c-2.1,6.5-3.9,11.2-5.3,14.1c-1.4,2.9-2.7,4.7-4,5.2c-0.5,0.2-0.8,0.4-1.1,0.4
		s-0.5,0-0.6,0C474.5,590.1,474,590.1,473.4,589.9z"/>
	<path class="st0" d="M496.1,577.9c-1,0-1.8-0.3-2.6-0.7c-2.3-1.1-3.9-3.3-5-6.6c-0.3-0.9-0.6-1.9-0.9-3.1c-0.2-1.2-0.4-2.3-0.6-3.4
		c0-0.7-0.1-1.5-0.1-2.4c0-1,0-1.7,0.1-2.2c0.4-2.7,1.3-4.6,2.5-5.7c0.5-0.5,1.1-0.7,1.7-0.7c0.2,0,0.3,0,0.4,0s0.3,0,0.4,0.1
		c0.1,0.1,0.4,0.2,0.7,0.3c0.2,0,0.3,0.1,0.4,0.1c0.1,0,0.2,0,0.2-0.1c0.1-0.2,0.2-0.5,0.2-1.1c0.2-3.4,1.1-5.9,2.7-7.6
		c0.8-0.9,1.7-1.3,2.7-1.3c0.5,0,1,0.1,1.6,0.3l0.4,0.1c0.3,0.1,0.5,0.2,0.7,0.3c1.6,0.5,2.7,2,3.5,4.5c0.7,1.9,1,4.5,1,7.7v1.1
		c0,1.4-0.1,2.8-0.2,4c-0.1,1.2-0.3,2.5-0.5,4c-0.1,0.5-0.1,0.8-0.2,1c0,0.1,0,0.3,0,0.3c0,0.1,0,0.2,0.1,0.2c0,0.1,0.1,0.1,0.2,0.2
		h1.1c0.5,0,1,0,1.4-0.1c2.1-0.4,4.5-1.4,7.1-3.1c2.1-1.4,3.9-2.9,5.4-4.7c0.2-0.2,0.4-0.5,0.6-0.7s0.3-0.3,0.5-0.4
		c0.4-0.3,0.7-0.4,1-0.4s0.4,0.2,0.4,0.6c0,0.6-0.6,1.6-1.8,3c-1.2,1.4-2.6,2.7-4.2,3.9c-2,1.5-3.7,2.5-5.1,3
		c-1.4,0.5-2.7,0.7-4,0.7c-0.6,0-1.2,0-1.7-0.1c-0.3,0-0.6,0-0.7,0c-0.2,0-0.3,0-0.4,0c-0.1,0-0.1,0-0.2,0.1c-0.1,0-0.2,0-0.2,0.1
		c-0.1,0.1-0.1,0.2-0.2,0.4c-0.1,0.2-0.1,0.4-0.2,0.7c-1.4,4.5-3.3,7.1-5.6,7.7c-0.2,0-0.5,0.1-0.9,0.1
		C497.3,578,496.8,578,496.1,577.9z M496.1,575.1c0.2-0.2,0.5-0.4,0.9-0.7c0.4-0.3,0.7-0.6,0.9-0.9c1-1.2,1.9-2.6,2.7-4.4
		c0.2-0.6,0.4-1,0.4-1.2c0-0.1,0-0.1-0.1-0.2c0,0-0.1-0.1-0.2-0.2c-0.1-0.1-0.3-0.2-0.5-0.3c-1.2-0.7-2.1-1.5-2.8-2.4
		c-1-1.2-1.9-2.7-2.6-4.4c-0.2-0.5-0.3-0.8-0.4-1.1c-0.1-0.2-0.2-0.3-0.2-0.3h-0.1c0,0-0.1,0.1-0.2,0.2c-0.1,0.3-0.3,0.9-0.5,2
		c-0.2,1-0.4,2-0.5,2.9c-0.1,0.7-0.1,1.4-0.1,2.2s0,1.3,0,1.6c0,0.6,0,1.2,0.1,1.6c0.3,2.5,1,4.3,2,5.4c0.1,0.1,0.2,0.2,0.3,0.2
		c0.1,0,0.2,0.1,0.3,0.1c0.1,0,0.2,0,0.3,0S496,575.2,496.1,575.1z M502,565.3c0.2,0,0.4-0.7,0.7-2c0.6-2.2,1-4.4,1.1-6.4
		c0-0.5,0.1-1.1,0.1-1.9c0-0.7,0-1.4-0.1-2.1c0-0.7-0.1-1.2-0.1-1.5c-0.4-2.4-1.1-4-1.9-4.9c-0.2-0.2-0.3-0.2-0.5-0.2
		c-0.3,0-0.6,0.2-0.9,0.6c-1.1,1.1-1.8,3-2.2,5.8c-0.1,0.6-0.1,1.2-0.1,1.9c0,0.7,0,1.2,0,1.5c0,0.6,0,1.1,0.1,1.5
		c0.2,1.9,0.7,3.5,1.3,4.9c0.3,0.6,0.6,1.2,1.1,1.7c0.4,0.6,0.8,1,1.1,1.2c0.1,0,0.1,0.1,0.2,0.1h0.1
		C501.9,565.4,501.9,565.4,502,565.3z"/>
</g>
<g>
	<path class="st0" d="M205,650.9c-3.3,0-6.3-0.6-8.9-1.7c-2.6-1.1-4.8-2.7-6.5-4.6c-1.8-2-3.1-4.3-4-7.1c-0.9-2.7-1.4-5.8-1.4-9
		c0-3.1,0.5-6,1.4-8.7c0.9-2.7,2.3-5.1,4.1-7.1s4-3.6,6.6-4.8c2.6-1.2,5.5-1.7,8.8-1.7c3.6,0,6.6,0.6,9.3,1.8
		c2.6,1.2,4.8,2.8,6.5,4.8c1.7,2,3,4.4,3.8,7.1c0.8,2.7,1.3,5.6,1.3,8.6c0,1.8-0.2,3.6-0.5,5.4c-0.4,1.8-0.9,3.5-1.6,5.2
		c-0.7,1.7-1.6,3.2-2.8,4.6c-1.1,1.4-2.5,2.7-4,3.7c-1.6,1.1-3.3,1.9-5.3,2.5C209.7,650.6,207.4,650.9,205,650.9z M205.5,647.6
		c1.8,0,3.4-0.5,4.8-1.4c1.4-0.9,2.5-2.2,3.4-3.8s1.6-3.5,2-5.7c0.4-2.2,0.7-4.6,0.7-7.1c0-2.9-0.2-5.6-0.7-8.1
		c-0.5-2.4-1.2-4.5-2.2-6.3c-1-1.8-2.2-3.1-3.7-4.1c-1.5-1-3.2-1.5-5.3-1.5c-1.9,0-3.6,0.5-5,1.5c-1.4,1-2.5,2.3-3.4,4
		c-0.9,1.7-1.5,3.6-1.9,5.7c-0.4,2.2-0.6,4.4-0.6,6.8c0,2.9,0.2,5.5,0.7,8s1.2,4.6,2.1,6.4c1,1.8,2.2,3.2,3.7,4.2
		C201.7,647.1,203.4,647.6,205.5,647.6z"/>
	<path class="st0" d="M249.9,650.9c-2.8,0-5.2-0.3-7.3-1c-2.1-0.7-3.9-1.6-5.3-2.8c-1.4-1.2-2.5-2.5-3.2-4c-0.7-1.5-1.1-3.1-1.1-4.7
		V612c0-0.5-0.1-0.9-0.4-1.2c-0.3-0.3-0.6-0.5-1.1-0.7l-3.9-1.1v-1.9h19.7v1.9l-3.9,1.1c-0.4,0.1-0.8,0.4-1,0.7
		c-0.3,0.3-0.4,0.7-0.4,1.2v23.5c0,0.7,0.1,1.5,0.2,2.3c0.1,0.8,0.3,1.6,0.6,2.4c0.3,0.8,0.6,1.6,1.1,2.3c0.5,0.7,1.1,1.4,1.8,1.9
		c0.7,0.6,1.6,1,2.7,1.4s2.3,0.5,3.7,0.5s2.7-0.2,3.8-0.5c1.1-0.3,2-0.8,2.8-1.4c0.8-0.6,1.5-1.2,2-2c0.5-0.7,1-1.5,1.3-2.3
		c0.3-0.8,0.5-1.6,0.7-2.4c0.1-0.8,0.2-1.5,0.2-2.2v-23.3c0-0.5-0.2-0.9-0.5-1.2c-0.3-0.3-0.6-0.5-1-0.7l-3.9-1.3v-1.9H272v1.9
		l-3.9,1.3c-0.4,0.1-0.7,0.3-1,0.7c-0.3,0.3-0.4,0.7-0.4,1.2v24.9c0,1.7-0.3,3.2-0.8,4.5c-0.5,1.3-1.2,2.5-2.1,3.5
		c-0.9,1-1.9,1.9-3,2.6c-1.1,0.7-2.3,1.3-3.6,1.8c-1.2,0.5-2.5,0.8-3.7,1S251,650.9,249.9,650.9z"/>
	<path class="st0" d="M273.4,648.1l3.9-1.1c0.4-0.1,0.8-0.3,1-0.7c0.3-0.3,0.4-0.7,0.4-1.2V612c0-0.5-0.1-0.9-0.4-1.2
		c-0.3-0.3-0.6-0.5-1-0.7l-3.9-1.1v-1.9h18.7c2.2,0,4.2,0.1,5.9,0.4s3.2,0.7,4.4,1.2c1.2,0.5,2.3,1.1,3.1,1.8s1.4,1.4,1.9,2.2
		c0.5,0.8,0.8,1.6,1,2.5c0.2,0.9,0.3,1.7,0.3,2.6c0,1.8-0.3,3.3-0.9,4.6c-0.6,1.3-1.4,2.4-2.3,3.3c-0.9,0.9-1.9,1.6-3,2.2
		c-1.1,0.6-2.1,1-3,1.3l10.4,15.3c0.2,0.2,0.4,0.5,0.6,0.8c0.3,0.3,0.5,0.5,0.8,0.8c0.3,0.2,0.6,0.5,0.9,0.6s0.6,0.3,0.9,0.4l4,1.1
		v1.9h-9.9c-0.9,0-1.7-0.1-2.3-0.2c-0.6-0.1-1.2-0.4-1.6-0.7c-0.5-0.3-0.9-0.7-1.3-1.2s-0.8-1.1-1.3-1.8l-9-14.1l-4.1-1.1v14.3
		c0,0.5,0.1,0.9,0.4,1.2c0.2,0.3,0.6,0.5,1,0.6l4.6,1.1v1.9h-20.2V648.1z M291.7,628.1c1.3,0,2.4-0.3,3.3-0.8c0.9-0.5,1.7-1.2,2.3-2
		c0.6-0.8,1.1-1.8,1.4-2.9c0.3-1.1,0.5-2.2,0.5-3.3c0-3-0.7-5.2-2.1-6.6c-1.4-1.4-3.3-2.1-5.9-2.1h-3.6v17.3c0.2,0,0.5,0.1,0.8,0.1
		s0.8,0.1,1.2,0.1c0.4,0,0.8,0.1,1.2,0.1C291.2,628.1,291.5,628.1,291.7,628.1z"/>
	<path class="st0" d="M331.3,648.1l3.9-1.1c0.4-0.1,0.8-0.3,1-0.7c0.3-0.3,0.4-0.7,0.4-1.2V612c0-0.5-0.1-0.9-0.4-1.2
		c-0.3-0.3-0.6-0.5-1-0.7l-3.9-1.1v-1.9H351v1.9l-3.9,1.1c-0.4,0.1-0.8,0.4-1.1,0.7c-0.3,0.3-0.4,0.7-0.4,1.2V626h17.6V612
		c0-0.5-0.1-0.9-0.4-1.2c-0.3-0.3-0.6-0.5-1-0.7l-3.9-1.1v-1.9h19.6v1.9l-3.9,1.1c-0.4,0.1-0.8,0.3-1,0.7c-0.3,0.3-0.4,0.7-0.4,1.2
		v33.1c0,0.5,0.1,0.9,0.4,1.2c0.3,0.3,0.6,0.5,1,0.7l3.9,1.1v1.9h-19.6v-1.9l3.9-1.1c0.4-0.1,0.8-0.3,1-0.7c0.3-0.3,0.4-0.7,0.4-1.2
		v-15.7h-17.6v15.7c0,0.5,0.1,0.9,0.4,1.2s0.6,0.5,1.1,0.7l3.9,1.1v1.9h-19.6V648.1z"/>
	<path class="st0" d="M400.7,650.9c-3.3,0-6.3-0.6-8.9-1.7c-2.6-1.1-4.8-2.7-6.5-4.6c-1.8-2-3.1-4.3-4-7.1c-0.9-2.7-1.4-5.8-1.4-9
		c0-3.1,0.5-6,1.4-8.7c0.9-2.7,2.3-5.1,4.1-7.1s4-3.6,6.6-4.8c2.6-1.2,5.5-1.7,8.8-1.7c3.6,0,6.6,0.6,9.3,1.8
		c2.6,1.2,4.8,2.8,6.5,4.8c1.7,2,3,4.4,3.8,7.1c0.8,2.7,1.3,5.6,1.3,8.6c0,1.8-0.2,3.6-0.5,5.4c-0.4,1.8-0.9,3.5-1.6,5.2
		c-0.7,1.7-1.6,3.2-2.8,4.6c-1.1,1.4-2.5,2.7-4,3.7c-1.6,1.1-3.3,1.9-5.3,2.5C405.4,650.6,403.2,650.9,400.7,650.9z M401.2,647.6
		c1.8,0,3.4-0.5,4.8-1.4c1.4-0.9,2.5-2.2,3.4-3.8s1.6-3.5,2-5.7c0.4-2.2,0.7-4.6,0.7-7.1c0-2.9-0.2-5.6-0.7-8.1
		c-0.5-2.4-1.2-4.5-2.2-6.3c-1-1.8-2.2-3.1-3.7-4.1c-1.5-1-3.2-1.5-5.3-1.5c-1.9,0-3.6,0.5-5,1.5c-1.4,1-2.5,2.3-3.4,4
		c-0.9,1.7-1.5,3.6-1.9,5.7c-0.4,2.2-0.6,4.4-0.6,6.8c0,2.9,0.2,5.5,0.7,8s1.2,4.6,2.1,6.4c1,1.8,2.2,3.2,3.7,4.2
		C397.4,647.1,399.2,647.6,401.2,647.6z"/>
	<path class="st0" d="M424.1,648.1l3.9-1.3c0.4-0.1,0.8-0.4,1-0.7s0.4-0.7,0.4-1.1V612c0-0.5-0.1-0.9-0.4-1.2
		c-0.3-0.3-0.6-0.5-1-0.7l-3.9-1.1v-1.9H440l8.7,24.2l2.2,6.3l11-30.5h15.8v1.9l-3.9,1.1c-0.4,0.1-0.8,0.4-1.1,0.7
		c-0.3,0.3-0.4,0.7-0.4,1.2v33.1c0,0.5,0.1,0.9,0.4,1.2c0.3,0.3,0.6,0.5,1.1,0.7l3.9,1.1v1.9h-19.7v-1.9l3.9-1.1
		c0.4-0.1,0.8-0.3,1.1-0.7c0.3-0.3,0.4-0.7,0.4-1.2v-31.6l-1.9,5.7l-8.6,23.7l-3.2,7.1h-3.3l-11.1-30.8l-2-5.8v31.5
		c0,0.5,0.1,0.9,0.4,1.1c0.3,0.3,0.6,0.5,1.1,0.7l3.9,1.3v1.9h-14.7V648.1z"/>
	<path class="st0" d="M480,648.1l3.9-1.1c0.4-0.1,0.8-0.3,1-0.7c0.3-0.3,0.4-0.7,0.4-1.2V612c0-0.5-0.1-0.9-0.4-1.2
		c-0.3-0.3-0.6-0.5-1-0.7l-3.9-1.1v-1.9h34.4v11.1h-2.2l-2.5-6.6c-0.1-0.3-0.3-0.6-0.5-0.8s-0.5-0.3-0.8-0.3h-14.2V626h9
		c0.4,0,0.7-0.1,0.9-0.3c0.2-0.2,0.3-0.4,0.4-0.7l2.1-5.1h2v15.6h-2l-2.1-5c-0.1-0.3-0.3-0.6-0.5-0.8c-0.2-0.2-0.5-0.3-0.9-0.3h-9
		v17.1h16.8c0.4,0,0.7-0.1,0.8-0.3c0.2-0.2,0.3-0.5,0.4-0.8l2.4-7.5h2.2v12H480V648.1z"/>
</g>
</svg>


