<?xml version="1.0" encoding="utf-8"?>
<!-- Generator: Adobe Illustrator 23.0.5, SVG Export Plug-In . SVG Version: 6.00 Build 0)  -->
<svg version="1.1" xmlns="http://www.w3.org/2000/svg" xmlns:xlink="http://www.w3.org/1999/xlink" x="0px" y="0px"
	 viewBox="0 0 720 720" style="enable-background:new 0 0 720 720;" xml:space="preserve" width="500" height="500">
<style type="text/css">
	.st0{fill:#050002;}
	.st1{fill-rule:evenodd;clip-rule:evenodd;fill:#050002;}
	.st2{fill-rule:evenodd;clip-rule:evenodd;}
	.st3{fill:#221F1F;}
	.st4{fill:#231F20;}
	.st5{fill:#070808;}
	.st6{fill:#211E1F;}
	.st7{fill:#161616;}
	.st8{fill:#131313;}
	.st9{fill:#21201F;}
	.st10{fill:#2C2929;}
</style>
<g>
	<g>
		<g>
			<g>
				<g>
					<path class="st0" d="M252.4,579.4c-2.3,1.1-4.3,0.8-6.4,0.2c-3-0.8-5.7-2.2-8.2-4.1c-2.4-1.9-4.7-3.9-7.2-5.8
						c-9.1-7-14.3-16.2-16.5-27.4c-0.6-3.2-1.3-6.3-2-9.5c-3.6-16-13.1-27.4-27.7-34.7c-0.5-0.2-0.9-0.5-1.4-0.7
						c-3.9-1.6-6.4-0.1-6.9,3.9c-0.1,1.3-0.1,2.7,0,4.1c0.3,8.6,1.7,16.9,5.1,24.9c0.5,1.1,1.6,2.3,0.6,3.9
						c-0.7-0.6-1.4-1.1-1.9-1.8c-4.1-5.3-8.4-10.4-12.1-15.8c-5.4-8-8.4-17.1-9.6-26.7c-0.3-2.5-0.6-5.1,0.5-7.7
						c1.4-0.5,2.9-0.9,4.3-1.4c3.7-1.5,6.4-4,7.6-7.8c1.5-5.1-3-9.8-8.1-8.5c-2.4,0.6-4.4,1.8-6.1,3.6c-1.9,2.1-3,4.5-3.7,7.2
						c-1.6,6.5-1.8,13.1-0.6,19.8c0.2,0.9,0.2,1.8,0.3,3c-4.1-2.7-9.1-7.1-11.3-10.1c-8.6-11.7-14.3-24.7-17-39
						c-0.6-3.3-1.6-6.6-0.9-10c5.2-3.6,10.1-7.3,13.9-12.2c8.3-10.8,13.4-22.9,14.2-36.6c0.1-1.7,0.1-3.4-0.1-5.1
						c-0.5-4.1-3.7-5.5-7-4c-5.2,2.4-9.9,5.4-13.6,9.7c-7.3,8.4-11.8,18.3-13.9,29.2c-1.9,9.7-0.9,19.4,0.5,29
						c1.5,9.5,4.7,18.5,8.8,27.1c0.4,0.8,1.3,1.7,0.4,2.7c-4.7-2.1-9.3-4.2-14-6.1c-6-2.5-12.3-4.2-18.8-4.5
						c-8.3-0.3-16.7-0.3-25-0.3c-0.8,0-1.7,0.1-2.5,0.2c-2.3,0.4-3.5,2.4-2.8,4.5c0.4,1.3,1.1,2.5,1.9,3.6c1.5,2,3.2,4,5,5.8
						c15.4,15.3,33.7,24.6,55.3,27.1c9,1.1,17.9,2.2,27,2c3.1-0.1,5.2,1.4,6.6,4c2.5,4.5,5.3,8.8,8.5,12.7c0.3,0.3,0.3,0.9,0.6,1.7
						c-1.1-0.2-1.9-0.2-2.7-0.4c-4.2-0.9-8.3-2-12.5-2.8c-4.9-0.9-9.7-1.6-13.5-5.3c-0.5-0.5-1.2-0.7-1.8-1
						c-4.3-1.9-8.9-2.6-13.4-1.1c-6.1,2.1-7.4,8.5-2.7,13c2.2,2.1,4.7,3.3,7.7,3.7c4,0.4,7.8,0,11.4-1.9c1.3-0.7,2.7-1.4,3.8-2
						c2.1,0.3,4,0.5,5.8,0.9c5.5,1.2,10.9,2.6,16.4,3.9c0.8,0.2,1.7,0.3,1.8,1.4c0.2,0,0.3,0,0.5-0.1c-0.1,0-0.2,0-0.3,0.1
						c-1.4,0-2.7-0.1-4.1-0.1c-1.5,0.1-3.1,0.1-4.5,0.4c-1.5,0.3-2.4,1.5-2.5,2.9c-0.1,1.5,1,2.9,2.7,3.3c1.2,0.2,2.4,0.2,3.5,0.3
						c2.9,0.2,5.8,0.2,8.7,0.6c10.8,1.6,19.9,6.8,28.2,13.5c0.3,0.2,0.3,0.7,0.7,1.5c-3.1-1-5.7-1.8-8.2-2.7
						c-14.1-4.8-28.4-5-42.8-1.6c-4.6,1.1-9.2,2.6-13.8,3.8c-3.9,1.1-4.3,5.3-1.6,7.5c2.2,1.8,4.4,3.8,6.9,5.3
						c7.2,4.2,14.8,7.7,22.9,9.9c16.9,4.6,34.2,5.8,51.6,6.1c2.9,0.1,5.8-0.3,8.7-0.4c4.4-0.2,8.8-0.6,13.3-0.7
						c4.5-0.2,8.8,0.7,12.7,3c1.3,0.7,2.8,1.2,4.3,1.4c4,0.5,7.6-5,6.6-7.9C260.7,580.3,256.3,577.6,252.4,579.4 M162.6,472.5
						c0,0,0.3,0.3,0.3,0.3c-0.3,0.4-0.6,0.7-0.9,1.2c-0.2-0.3-0.5-0.7-0.4-0.7C161.9,472.9,162.3,472.7,162.6,472.5z M123.4,423.1
						c1.8-10.4,5.7-19.9,12.8-27.8c1.8-2,4.1-3.6,6.2-5.2c0.5-0.4,1.2-0.5,1.8-0.7c2.3,11-9.9,36.3-20.9,40.7
						C122.7,427.7,123,425.3,123.4,423.1z M139.1,504c-8.5-0.8-16.9-1.7-25.2-3.8c-15.2-4-28.1-12-39.1-23c-0.5-0.5-0.8-1.1-1.2-1.6
						c0.3-0.4,0.5-0.8,0.7-0.8c8.7-0.5,17.4-0.4,25.9,1.4c12.5,2.7,23.7,8.5,33.9,16c4.7,3.4,9.1,7.1,14.1,11.8
						C144.5,504.5,141.8,504.3,139.1,504z M129.8,529c-1.7-0.4-1.7-0.4-3.8-3.1c4.2-0.6,7.8-1.2,11,2.2
						C134.5,529.4,132.2,529.6,129.8,529z M192.6,537.8c-3.9-5.9-6.2-12.4-8-19.2c-1.1-4.1-1.6-8.2-1.2-12.5c0.6,0,1-0.1,1.2,0
						c6.5,3.6,12,8.3,15.7,14.8c2.5,4.5,4.4,9.2,5.5,14.2c1.4,6.6,2.5,13.3,5,19.6c-0.5,0.2-1,0.4-1.1,0.3
						C203.2,550.1,197.2,544.7,192.6,537.8z M225.6,581.8c-9.7,0.9-19.4,0.1-29.1-0.5c-9.7-0.6-19.2-2.3-28.7-4.6
						c-7.7-1.8-14.7-5.2-21.6-9c-0.9-0.5-1.6-1.2-2.5-1.9c0.6-0.5,0.9-1,1.3-1.1c10.4-3,20.9-4.9,31.8-3.5c3.2,0.4,6.4,0.9,9.5,1.7
						c8.1,2.1,15.9,5.1,23.3,8.9c4.7,2.4,9.5,4.6,14.2,7c1.2,0.6,2.3,1.3,3.4,1.9C227,582,226.1,581.7,225.6,581.8z"/>
				</g>
			</g>
		</g>
	</g>
	<g>
		<g>
			<g>
				<g>
					<path class="st0" d="M101.5,339.5c1.2,3.9,3.3,7.5,4,11.5c0.4,2,2.1,3.1,4.1,3.3c1.8,0.2,4.7-1.6,5.4-3.3
						c0.7-1.9,0.2-3.7-1.1-5.2c-0.3-0.4-0.7-0.9-1.1-1c-2.8-0.9-3.6-3.4-4.4-5.9c-3.2-9.2-5.4-18.6-7.2-28.2c-0.6-3.2-0.2-6,1.1-8.9
						c2.2-5,5.3-9.5,8.3-14c5.4-7.9,12.4-13.4,21.3-16.9c4.1-1.6,8.2-3.4,12.3-5c13.9-5.5,24.9-14.5,33.4-26.8
						c0.6-0.8,1.2-1.7,1.6-2.6c1.1-2.7-0.4-5.3-3.3-5.6c-1.3-0.1-2.7,0-4.1,0.2c-4.2,0.6-8.4,1.2-12.6,2c-8.2,1.6-16.2,4-23.5,8.2
						c-10.8,6.2-18.5,14.9-22.6,26.7c-2.4,7-5.7,13.5-10.3,19.2c-0.3,0.4-0.9,0.7-2,1.5c0.7-4.4,1.2-7.9,1.9-11.4
						c4.6-21,14.2-39.3,30-54.1c4.1-3.8,8.4-7.5,12.6-11.2c6.5-5.8,12.5-12.1,18-18.8c9.1-11.1,14.3-23.9,16.8-37.9
						c0.2-1,0.3-2.1,0.1-3c-0.7-4.4-2.6-5.5-6.8-3.9c-0.6,0.2-1.3,0.5-1.9,0.8c-6.4,3.3-12.5,7.1-17.2,12.6
						c-3.7,4.2-7.3,8.6-10.3,13.3c-7.4,11.5-11.9,24.1-12.9,37.8c-0.2,2.4-1.3,3.7-2.8,5.1c-9.4,8.6-16.8,18.7-22.6,30.1
						c-0.3,0.6-0.9,1.2-1.8,2.3c1.4-10.4,3.8-19.8,6.2-29.2c0.4-1.6,1.4-3.1,2.3-4.5c0.9-1.5,2-2.8,2.9-4.2
						c2.7-4.5,4.1-9.3,3.8-14.6c-0.1-2.5-0.8-4.7-2.3-6.7c-2.2-2.9-5.3-3.6-8.6-2.1c-3.3,1.5-5.3,4.3-6.5,7.6
						c-2.8,7.8-2,15.4,1.5,22.8c-1.8,8.6-3.6,16.7-5.3,24.9c-1.2,5.9-2.3,11.9-1.2,17.8c1,5.1,0.3,9.8-0.9,14.6
						c-0.5,1.8-0.7,3.7-1,5.5c-1.4,9.1-2.1,18.3-0.7,27.5C95.9,319.9,98.4,329.7,101.5,339.5 M135.8,249.2c7-4.8,14.9-7.4,23.1-9.1
						c3-0.6,5.9-1.5,9.4-0.8c-0.6,1.1-1,2-1.6,2.7c-5.2,6-11.3,10.9-18.3,14.5c-3,1.5-6.2,2.8-9.3,4.2c-5.6,2.5-11.2,4.9-16.8,7.4
						c-0.4,0.2-0.9,0.2-2.2,0.6C123.7,260,128.9,253.9,135.8,249.2z M173.3,156c-2.3,18.5-17.6,39.8-34.1,51.8
						C139.2,190.7,156.9,163.6,173.3,156z M107.7,201.1c0.5-2.3,1.1-4.6,3.7-5.6c1.6,1.8,1.4,3.8,1,5.9c-0.7,3.3-1.4,6.6-4.2,9.2
						C106.2,207.4,107,204.2,107.7,201.1z"/>
				</g>
			</g>
		</g>
	</g>
	<g>
		<g>
			<g>
				<g>
					<path class="st0" d="M59.7,402.3c2,0.9,4,0.7,5.9-0.2c1.2-0.6,2.2-1.5,3.4-2.3c10,0.9,19.2,4.2,27.6,9.7
						c3.9,2.6,7.3,5.6,9.8,9.6c0.4,0.6,0.7,1.2,1.1,1.7c0.8,1,2.1,1.2,3.2,0.7c1.3-0.6,2.1-2,1.7-3.4c-0.4-1.3-0.9-2.6-1.7-3.7
						c-1.7-2.4-3.5-4.6-5.6-7.3c0.4-3.9,0.7-7.8,1.2-11.6c2-15.5,0-30.5-5-45.3c-5.4-15.8-15.3-27.9-29.9-36.2
						c-0.6-0.3-1.2-0.7-1.8-1c-3.2-1.4-5.8,0.1-6.3,3.6c-0.1,0.7-0.1,1.4-0.1,2c0.7,6.9,1.1,13.9,2.3,20.8c3,17.7,9.6,34,20.1,48.6
						c1.8,2.5,3.6,5,5.3,7.5c0.6,0.8,1,1.7,1.8,3.2c-1.6-0.4-2.5-0.6-3.4-1c-4.6-2-9.3-3.2-14.2-4.1c-3.5-0.6-6.9-0.9-10.1-3
						c-2.9-1.9-7.7-0.1-8.8,2.5C54.7,396.9,56.2,400.8,59.7,402.3 M73.9,347.1c-2-8.2-3.5-19.8-2.7-24.9c4.9,3,9.3,6.4,12.9,10.7
						c3.5,4.2,6.3,8.9,8.4,13.9c6.7,15.6,9,30.9,7,47.8c-0.3,0-0.8,0.1-0.9,0C87.3,380.4,78.3,365,73.9,347.1z"/>
				</g>
			</g>
		</g>
	</g>
	<g>
		<g>
			<g>
				<g>
					<path class="st0" d="M100.2,461.7c5.5,2.1,10.6,4.7,14.2,9.5c0.3,0.4,0.7,0.8,1.1,1.1c1.3,1.1,2.5,1.2,3.7,0.5
						c1.4-0.9,2-2.3,1.4-4c-1.3-3.9-2.5-7.8-4-11.6c-5.1-13.3-13.6-23.9-26.3-30.7c-9.9-5.3-20.8-7.4-31.4-8.5c-0.8,0-1.1,0-1.5,0
						c-4.7,0-6.4,2.5-5,7c1.3,4,3.5,7.4,6.2,10.4c4.3,4.9,9.4,8.8,14.7,12.5C81.7,453.8,90.7,458.1,100.2,461.7 M62.2,429.2
						c-0.9-0.9-1.9-2-1.6-3.7c1.2,0,2.4-0.2,3.5,0c5.3,1.2,10.7,2.2,15.8,4c14.1,4.7,23.5,14.6,30,28.7
						c-14.4-5.2-27.4-10.9-38.6-20.1C68.1,435.4,65.2,432.2,62.2,429.2z"/>
				</g>
			</g>
		</g>
	</g>
	<g>
		<g>
			<g>
				<g>
					<path class="st0" d="M56.3,291.4c1.2-0.6,2.4-1.2,3.5-1.8c5.4,1.7,9.6,4.7,13.1,8.8c3.7,4.3,6.9,8.9,9,14.1
						c0.3,0.6,0.5,1.3,0.8,1.9c0.8,1.6,2.3,2.2,3.8,1.6c1.5-0.5,2.2-1.9,1.8-3.7c-0.3-1.3-0.7-2.6-1.1-3.9
						c-4.1-11.7-5.9-23.7-6.3-36c-0.1-1.9,0.2-3.6,1.3-5.3c1.7-2.4,2.3-5.3,2.5-8.2c0.4-6.3-3.4-10.4-9.7-10.6
						c-5-0.2-8.5,2.8-9.1,7.7c-0.5,4.1,1.2,7.3,4.2,9.9c1.1,1,2.5,1.7,3.7,2.6c0.2,3.7,0.3,7.2,0.5,10.8c0.2,3.7,1,7.3,1,11.1
						c-0.6-0.1-1,0-1.2-0.2c-3.2-2.6-6.6-4.8-10.5-6.2c-1.5-0.6-2.5-1.7-3.3-3c-1.8-2.8-4.6-4-7.8-4.3c-3.6-0.3-6.9,1.8-8,5
						c-1.1,3.2-0.2,6.5,2.6,8.6C50,292.3,53,293,56.3,291.4 M73.4,259.1c-0.5-0.7-0.5-1.9-0.4-2.9c0.1-0.9,0.9-1.4,1.8-1.4
						c2,0.1,3.3,1.3,3.2,3.2c0,0.8-0.2,1.7-0.4,2.5c-0.2,0.6-0.6,1.2-1,2.1C75.4,261.3,74.2,260.3,73.4,259.1z M51.5,284.1
						c0.4-0.3,0.8-0.8,1.1-0.7c0.6,0.1,1,0.5,2.3,1.3c-1.4,0.3-2,0.5-2.5,0.4C52,285,51.8,284.4,51.5,284.1z"/>
				</g>
			</g>
		</g>
	</g>
	<g>
		<g>
			<g>
				<g>
					<path class="st0" d="M66,369.8c-0.1-3.7-2.9-6.5-6.4-6.5c-3.4,0-6.5,3.1-6.6,6.5c-0.1,3.6,3.1,6.7,6.9,6.6
						C63.6,376.3,66.1,373.6,66,369.8"/>
				</g>
			</g>
		</g>
	</g>
</g>
<g>
	<g>
		<g>
			<g>
				<g>
					<path class="st0" d="M465.4,572.6c-3.9-1.8-8.3,0.9-9.6,5c-0.9,2.9,2.6,8.4,6.6,7.9c1.5-0.2,3-0.7,4.3-1.4
						c4-2.3,8.2-3.2,12.7-3c4.4,0.2,8.8,0.5,13.3,0.7c2.9,0.2,5.8,0.5,8.7,0.4c17.4-0.3,34.7-1.6,51.6-6.1
						c8.1-2.2,15.7-5.7,22.9-9.9c2.5-1.4,4.7-3.4,6.9-5.3c2.7-2.2,2.3-6.5-1.6-7.5c-4.6-1.3-9.1-2.7-13.8-3.8
						c-14.4-3.4-28.7-3.3-42.8,1.6c-2.5,0.9-5.1,1.7-8.2,2.7c0.4-0.9,0.4-1.3,0.7-1.5c8.4-6.7,17.4-11.9,28.2-13.5
						c2.9-0.4,5.8-0.4,8.7-0.6c1.2-0.1,2.4-0.1,3.5-0.3c1.7-0.4,2.8-1.8,2.7-3.3c-0.1-1.4-0.9-2.6-2.5-2.9c-1.5-0.3-3-0.4-4.5-0.4
						c-1.4,0-2.7,0.1-4.1,0.1c-0.1,0-0.2,0-0.3-0.1c0.2,0,0.3,0,0.5,0.1c0-1.1,1-1.3,1.8-1.4c5.5-1.3,10.9-2.6,16.4-3.9
						c1.8-0.4,3.7-0.6,5.8-0.9c1.2,0.6,2.5,1.3,3.8,2c3.6,2,7.4,2.4,11.4,1.9c3-0.3,5.6-1.6,7.7-3.7c4.7-4.5,3.4-10.9-2.7-13
						c-4.6-1.5-9.1-0.9-13.4,1.1c-0.6,0.3-1.3,0.5-1.8,1c-3.8,3.7-8.6,4.4-13.5,5.3c-4.2,0.7-8.3,1.9-12.5,2.8
						c-0.8,0.2-1.6,0.3-2.7,0.4c0.3-0.8,0.3-1.4,0.6-1.7c3.2-4,6-8.3,8.5-12.7c1.4-2.5,3.5-4,6.6-4c9.1,0.2,18-0.9,27-2
						c21.6-2.6,40-11.8,55.3-27.1c1.8-1.8,3.4-3.8,5-5.8c0.8-1.1,1.5-2.3,1.9-3.6c0.7-2.2-0.6-4.1-2.8-4.5c-0.8-0.2-1.7-0.2-2.5-0.2
						c-8.3,0.1-16.7,0-25,0.3c-6.5,0.3-12.8,2-18.8,4.5c-4.7,1.9-9.3,4.1-14,6.1c-0.9-1,0-1.9,0.4-2.7c4.1-8.7,7.3-17.6,8.8-27.1
						c1.5-9.6,2.4-19.3,0.5-29c-2.1-10.9-6.6-20.7-13.9-29.2c-3.8-4.3-8.5-7.3-13.6-9.7c-3.3-1.5-6.5-0.2-7,4
						c-0.2,1.7-0.2,3.4-0.1,5.1c0.8,13.7,5.9,25.8,14.2,36.6c3.8,4.9,8.7,8.6,13.9,12.2c0.7,3.3-0.3,6.7-0.9,10
						c-2.6,14.3-8.3,27.3-17,39c-2.2,2.9-7.1,7.3-11.3,10.1c0.1-1.2,0.1-2.1,0.3-3c1.2-6.6,1.1-13.2-0.6-19.8
						c-0.7-2.7-1.8-5.1-3.7-7.2c-1.7-1.8-3.7-3-6.1-3.6c-5.2-1.3-9.7,3.4-8.1,8.5c1.2,3.8,3.9,6.3,7.6,7.8c1.4,0.6,2.9,1,4.3,1.4
						c1.1,2.6,0.8,5.1,0.5,7.7c-1.2,9.6-4.2,18.7-9.6,26.7c-3.7,5.5-8,10.6-12.1,15.8c-0.5,0.7-1.2,1.1-1.9,1.8
						c-1-1.6,0.1-2.8,0.6-3.9c3.4-7.9,4.9-16.3,5.1-24.9c0-1.4,0.1-2.7,0-4.1c-0.4-4.1-3-5.5-6.9-3.9c-0.5,0.2-0.9,0.4-1.4,0.7
						c-14.6,7.3-24.1,18.7-27.7,34.7c-0.7,3.2-1.4,6.3-2,9.5c-2.2,11.1-7.4,20.4-16.5,27.4c-2.4,1.9-4.8,3.8-7.2,5.8
						c-2.4,2-5.2,3.3-8.2,4.1C469.7,573.4,467.7,573.7,465.4,572.6 M556.3,466.4c0,0-0.2,0.4-0.4,0.7c-0.3-0.4-0.6-0.8-0.9-1.2
						c0,0,0.2-0.3,0.3-0.3C555.6,465.9,556,466.1,556.3,466.4z M594.6,423.3c-11.1-4.4-23.2-29.7-20.9-40.7c0.6,0.2,1.4,0.3,1.8,0.7
						c2.1,1.7,4.4,3.3,6.2,5.2c7.1,7.9,11,17.4,12.8,27.8C594.9,418.6,595.2,420.9,594.6,423.3z M569.6,497.2
						c5.1-4.7,9.5-8.4,14.1-11.8c10.3-7.5,21.4-13.2,33.9-16c8.5-1.9,17.2-1.9,25.9-1.4c0.2,0,0.4,0.5,0.7,0.8
						c-0.4,0.5-0.7,1.1-1.2,1.6c-11,11.1-23.9,19.1-39.1,23c-8.3,2.2-16.7,3-25.2,3.8C576.1,497.5,573.4,497.7,569.6,497.2z
						 M580.9,521.3c3.1-3.4,6.7-2.8,11-2.2c-2.2,2.7-2.2,2.7-3.8,3.1C585.6,522.8,583.4,522.6,580.9,521.3z M508.1,548.3
						c-0.1,0.1-0.6-0.1-1.1-0.3c2.4-6.4,3.6-13,5-19.6c1.1-5,3-9.7,5.5-14.2c3.7-6.6,9.3-11.2,15.7-14.8c0.2-0.1,0.6,0,1.2,0
						c0.4,4.3-0.1,8.4-1.2,12.5c-1.8,6.7-4.2,13.3-8,19.2C520.7,537.9,514.7,543.3,508.1,548.3z M490.7,573.9
						c1.1-0.6,2.2-1.3,3.4-1.9c4.7-2.3,9.5-4.6,14.2-7c7.5-3.8,15.2-6.8,23.3-8.9c3.1-0.8,6.3-1.3,9.5-1.7
						c10.9-1.4,21.4,0.5,31.8,3.5c0.4,0.1,0.7,0.6,1.3,1.1c-0.9,0.7-1.6,1.4-2.5,1.9c-6.9,3.8-13.9,7.1-21.6,9
						c-9.5,2.2-19,4-28.7,4.6c-9.7,0.6-19.4,1.4-29.1,0.5C491.7,574.9,490.9,575.2,490.7,573.9z"/>
				</g>
			</g>
		</g>
	</g>
	<g>
		<g>
			<g>
				<g>
					<path class="st0" d="M616.4,332.7c3.1-9.8,5.6-19.6,7.1-29.8c1.4-9.2,0.7-18.4-0.7-27.5c-0.3-1.9-0.5-3.7-1-5.5
						c-1.3-4.8-1.9-9.5-0.9-14.6c1.1-5.9,0-11.9-1.2-17.8c-1.6-8.2-3.4-16.3-5.3-24.9c3.4-7.4,4.3-15,1.5-22.8
						c-1.2-3.3-3.1-6-6.5-7.6c-3.3-1.5-6.4-0.8-8.6,2.1c-1.5,2-2.2,4.2-2.3,6.7c-0.2,5.3,1.2,10.1,3.8,14.6c0.9,1.5,2,2.8,2.9,4.2
						c0.9,1.4,1.9,2.9,2.3,4.5c2.4,9.4,4.8,18.8,6.2,29.2c-0.9-1.2-1.5-1.7-1.8-2.3c-5.8-11.3-13.2-21.5-22.6-30.1
						c-1.5-1.4-2.6-2.8-2.8-5.1c-1-13.7-5.5-26.3-12.9-37.8c-3-4.7-6.6-9.1-10.3-13.3c-4.7-5.5-10.9-9.3-17.2-12.6
						c-0.6-0.3-1.2-0.6-1.9-0.8c-4.1-1.6-6.1-0.4-6.8,3.9c-0.1,1,0,2,0.1,3c2.6,14,7.7,26.8,16.8,37.9c5.5,6.7,11.5,13,18,18.8
						c4.2,3.7,8.5,7.4,12.6,11.2c15.8,14.8,25.5,33,30,54.1c0.7,3.5,1.2,7,1.9,11.4c-1.1-0.9-1.6-1.1-2-1.5
						c-4.6-5.8-7.9-12.3-10.3-19.2c-4.1-11.8-11.8-20.5-22.6-26.7c-7.3-4.2-15.3-6.6-23.5-8.2c-4.2-0.8-8.4-1.4-12.6-2
						c-1.3-0.2-2.7-0.3-4.1-0.2c-2.9,0.3-4.4,2.9-3.3,5.6c0.4,0.9,1,1.8,1.6,2.6c8.5,12.2,19.5,21.3,33.4,26.8
						c4.1,1.6,8.2,3.4,12.3,5c8.8,3.5,15.9,9.1,21.3,16.9c3.1,4.5,6.1,9,8.3,14c1.3,2.9,1.7,5.8,1.1,8.9c-1.8,9.6-4,19-7.2,28.2
						c-0.8,2.4-1.5,4.9-4.4,5.9c-0.4,0.1-0.8,0.6-1.1,1c-1.3,1.5-1.8,3.3-1.1,5.2c0.6,1.7,3.5,3.5,5.4,3.3c2-0.2,3.7-1.3,4.1-3.3
						C613.1,340.2,615.1,336.6,616.4,332.7 M597.7,261.8c-1.3-0.3-1.8-0.4-2.2-0.6c-5.6-2.4-11.2-4.9-16.8-7.4
						c-3.1-1.4-6.3-2.7-9.3-4.2c-7.1-3.6-13.2-8.4-18.3-14.5c-0.6-0.7-1-1.6-1.6-2.7c3.6-0.6,6.5,0.2,9.4,0.8
						c8.2,1.7,16.1,4.3,23.1,9.1C589,247.1,594.2,253.2,597.7,261.8z M578.7,201c-16.5-12-31.8-33.3-34.1-51.8
						C560.9,156.8,578.6,184,578.7,201z M609.6,203.8c-2.8-2.6-3.5-5.9-4.2-9.2c-0.4-2-0.6-4,1-5.9c2.6,1,3.2,3.3,3.7,5.6
						C610.9,197.5,611.7,200.6,609.6,203.8z"/>
				</g>
			</g>
		</g>
	</g>
	<g>
		<g>
			<g>
				<g>
					<path class="st0" d="M658.2,395.6c3.5-1.5,5-5.4,3.5-9c-1.1-2.6-5.9-4.4-8.8-2.5c-3.2,2.1-6.6,2.4-10.1,3
						c-4.9,0.9-9.6,2.2-14.2,4.1c-0.9,0.4-1.8,0.5-3.4,1c0.8-1.5,1.2-2.4,1.8-3.2c1.7-2.5,3.5-5,5.3-7.5
						c10.6-14.6,17.1-30.9,20.1-48.6c1.2-6.9,1.6-13.9,2.3-20.8c0.1-0.7,0.1-1.4-0.1-2c-0.5-3.5-3.2-4.9-6.3-3.6
						c-0.6,0.3-1.2,0.7-1.8,1c-14.5,8.3-24.4,20.4-29.9,36.2c-5,14.7-7,29.8-5,45.3c0.5,3.9,0.8,7.8,1.2,11.6c-2.1,2.7-4,5-5.6,7.3
						c-0.8,1.1-1.3,2.4-1.7,3.7c-0.4,1.4,0.4,2.7,1.7,3.4c1.1,0.5,2.4,0.3,3.2-0.7c0.4-0.5,0.8-1.1,1.1-1.7c2.5-4,5.8-7,9.8-9.6
						c8.4-5.5,17.6-8.8,27.6-9.7c1.2,0.8,2.2,1.7,3.4,2.3C654.1,396.3,656.2,396.4,658.2,395.6 M619.2,387.9c-0.1,0.1-0.6,0-0.9,0
						c-1.9-16.9,0.3-32.2,7-47.8c2.2-5,4.9-9.7,8.4-13.9c3.6-4.3,7.9-7.7,12.9-10.7c0.8,5-0.7,16.7-2.7,24.9
						C639.5,358.2,630.6,373.6,619.2,387.9z"/>
				</g>
			</g>
		</g>
	</g>
	<g>
		<g>
			<g>
				<g>
					<path class="st0" d="M617.7,454.9c9.4-3.6,18.4-7.9,26.7-13.7c5.3-3.7,10.4-7.7,14.7-12.5c2.7-3.1,5-6.5,6.2-10.4
						c1.4-4.5-0.3-6.9-5-7c-0.3,0-0.7,0-1.5,0c-10.6,1.1-21.4,3.3-31.4,8.5c-12.8,6.8-21.2,17.3-26.3,30.7c-1.5,3.8-2.7,7.7-4,11.6
						c-0.6,1.6,0,3.1,1.4,4c1.2,0.7,2.5,0.6,3.7-0.5c0.4-0.3,0.8-0.7,1.1-1.1C607.1,459.6,612.2,457,617.7,454.9 M646.5,431.3
						c-11.2,9.2-24.2,15-38.6,20.1c6.5-14.1,15.9-23.9,30-28.7c5.1-1.7,10.5-2.7,15.8-4c1.1-0.3,2.3,0,3.5,0
						c0.3,1.7-0.7,2.7-1.6,3.7C652.7,425.5,649.8,428.6,646.5,431.3z"/>
				</g>
			</g>
		</g>
	</g>
	<g>
		<g>
			<g>
				<g>
					<path class="st0" d="M661.5,284.6c3.3,1.6,6.3,0.9,9.1-1.2c2.8-2.1,3.8-5.5,2.6-8.6c-1.2-3.3-4.5-5.4-8-5
						c-3.2,0.3-6,1.5-7.8,4.3c-0.9,1.3-1.8,2.4-3.3,3c-3.9,1.4-7.3,3.6-10.5,6.2c-0.2,0.2-0.6,0.1-1.2,0.2c0-3.7,0.7-7.4,1-11.1
						c0.2-3.6,0.3-7.1,0.5-10.8c1.3-0.9,2.6-1.6,3.7-2.6c3-2.6,4.8-5.7,4.2-9.9c-0.6-4.9-4.1-7.9-9.1-7.7c-6.3,0.3-10,4.3-9.7,10.6
						c0.2,2.9,0.8,5.7,2.5,8.2c1.1,1.7,1.3,3.4,1.3,5.3c-0.3,12.3-2.1,24.4-6.3,36c-0.5,1.3-0.9,2.6-1.1,3.9
						c-0.4,1.8,0.4,3.2,1.8,3.7c1.5,0.5,3-0.1,3.8-1.6c0.3-0.6,0.5-1.2,0.8-1.9c2.1-5.3,5.3-9.9,9-14.1c3.5-4.1,7.7-7.1,13.1-8.8
						C659.2,283.4,660.3,284,661.5,284.6 M641.2,255.8c-0.5-0.9-0.9-1.4-1-2.1c-0.2-0.8-0.4-1.7-0.4-2.5c0-1.8,1.3-3.1,3.2-3.2
						c1,0,1.7,0.5,1.8,1.4c0.1,0.9,0.1,2.1-0.4,2.9C643.7,253.6,642.5,254.5,641.2,255.8z M665.5,278.3c-0.5,0.1-1.1-0.2-2.5-0.4
						c1.3-0.7,1.7-1.2,2.3-1.3c0.3-0.1,0.7,0.5,1.1,0.7C666.1,277.7,665.8,278.3,665.5,278.3z"/>
				</g>
			</g>
		</g>
	</g>
	<g>
		<g>
			<g>
				<g>
					<path class="st0" d="M651.9,363c0.1-3.7,2.9-6.5,6.4-6.5c3.4,0,6.5,3.1,6.6,6.5c0.1,3.6-3.1,6.7-6.9,6.6
						C654.3,369.5,651.8,366.8,651.9,363"/>
				</g>
			</g>
		</g>
	</g>
</g>
<g>
	<g>
		<g>
			<path class="st0" d="M427.6,216.9v9.6c9.4,0.7,16.2,2.1,20.4,4.2c4.2,2.1,6.3,4.7,6.3,7.7c0,2.2-0.3,4.8-0.8,7.9
				c-0.5,3.1-1.9,8.9-4.1,17.3c-2.2,8.4-4.7,17.9-7.7,28.7h-45.3l-24.2-72.8H359l-24.4,72.8h-43.7c-1.3-4.4-2.4-8.5-3.5-12.1
				c-5.3-18.4-9-31.5-11.1-39.5c-0.2-0.9-0.4-2.1-0.7-3.6c-0.3-1.5-0.4-2.7-0.4-3.6c0-2.4,2.4-4,7.3-5c4.8-1,10.7-1.7,17.6-2v-9.6
				h-78.5v9.6c2.4,0.2,5.2,0.7,8.2,1.4c3,0.8,5.7,1.9,7.9,3.5c2.7,1.8,4.9,3.8,6.5,6c1.6,2.2,2.8,4.7,3.6,7.5
				c2.5,9,7,24.9,13.4,47.6h-4.8v3.1h212.4v-3.1h-13.4c4.8-15.7,9.2-30,13.2-43c1.5-4.6,3.1-8.2,5.1-10.8c1.9-2.6,4.5-4.9,7.7-6.9
				c2.5-1.5,5.3-2.8,8.3-3.7c3-1,5.6-1.5,7.9-1.6v-9.6H427.6z M347.6,292.5l9.8-28.8l9.5,28.8H347.6z"/>
		</g>
	</g>
	<g>
		<g>
			<path class="st0" d="M256.4,346.9h20.1c6.3,22.2,12.4,44,18.4,65.1h12l22.2-65.1h55.6l21.3,65.1h12.5
				c7.1-22.7,13.8-44.4,20.2-65.1h30v-3.1H256.4V346.9z M310.9,362.9c-1.6-5.5-3.1-10.9-4.5-16h9.9L310.9,362.9z M420.8,365.9
				l-6.3-19h11.8C424.6,353,422.7,359.3,420.8,365.9z"/>
		</g>
	</g>
</g>
</svg>


