<?xml version="1.0" encoding="utf-8"?>
<!-- Generator: Adobe Illustrator 23.0.5, SVG Export Plug-In . SVG Version: 6.00 Build 0)  -->
<svg height="500" width="500" version="1.1" xmlns="http://www.w3.org/2000/svg" xmlns:xlink="http://www.w3.org/1999/xlink" x="0px" y="0px"
	 viewBox="0 0 720 720" style="enable-background:new 0 0 720 720;" xml:space="preserve">
<style type="text/css">
	.st0{fill:#050002;}
	.st1{fill-rule:evenodd;clip-rule:evenodd;fill:#050002;}
	.st2{fill-rule:evenodd;clip-rule:evenodd;}
	.st3{fill:#221F1F;}
	.st4{fill:#231F20;}
	.st5{fill:#070808;}
	.st6{fill:#211E1F;}
	.st7{fill:#161616;}
	.st8{fill:#131313;}
	.st9{fill:#21201F;}
	.st10{fill:#2C2929;}
</style>
<g>
	<g>
		<g>
			<path class="st0" d="M627.2,390.1L627.2,390.1L627.2,390.1L627.2,390.1z M646.1,483.3c-0.4-4.9-1.2-9.6-2.7-14.1
				c-1.3-4.3-3.1-8.4-5.2-12.1c-2.2-3.7-4.9-7.1-7.9-9.9c-2.6-2.4-5.5-4.4-8.6-6c1-3,1.6-6.1,2.3-9.1c0.7-3.1,1.5-6.1,2.1-9.2
				c0.7-4,1.6-8,2.1-12c0.5-4,1.2-8.1,1.6-12.1c0.2-2.4,0.5-4.8,0.6-7.2c0-0.8,0-1.5,0-2.3l0-0.7l0-0.3c0-0.1,0-0.2,0-0.3
				c0.4-1.9-2-3.8-3.5-2.6c-0.7,0.5-1.2,1.4-1.3,2.3c0,0.2-0.1,0.3-0.1,0.5l-0.2,1.6c-0.3,2-0.4,4-0.6,5.9
				c-0.2,3.6-0.8,7.3-1.2,10.9l-0.7,5.4l-1,5.4l-1.5,8l-1.9,7.9l-1,3.9l-1.1,3.9l-2.3,7.8c-1.3,3.8-2.6,7.6-4,11.4
				c-7.6,0.8-13.8,0.5-20.8,2.5c-1.9,0.5-3.7,1-5.6,1.6c-1.9,0.5-3.7,1.2-5.4,1.9c-3.6,1.5-7.1,3.1-10.8,4.3
				c-2.1,0.7-4.5,1.9-6.9,3.1c-1.2,0.6-2.3,1.2-3.5,1.8c-1.1,0.5-2.2,1-3.2,1.4c-0.8,0.3-0.5,1.7,0.3,2.5c3.5,3.5,8.1,4.9,12,5.7
				c4.3,0.9,8.8,1.3,13,1.4c5.3,0,10.6-0.5,15.5-2.4c2.6-0.9,4.9-2.4,7-4.1l0.1,0c-1,2.2-1.9,4.4-3.1,6.5l-4.6,8.7l-5,8.5
				c-1.6-1.3-12-5.8-17.2-6.4c-3.6-0.4-7.3-1-10.8-0.5c-1.4,0.2-6.8,1.2-8,1.6c-1.6,0.5-4.7,1.8-7.4,3c-1.4,0.6-2.7,1.2-3.7,1.7
				c-1.1,0.5-1.9,0.8-2.3,1.1c-0.8,0.5-10,5.4-5.3,6.9c14.2,4.5,29.4,11.6,44.2,5.8c1.1-0.4,2.1-0.9,3.1-1.4
				c-2.2,3.3-4.6,6.4-6.9,9.6c-2.1,2.9-4.4,5.6-6.6,8.4c-5.6-6.2-13.7-7.7-22.1-7.5c-8.3,0.3-16.9,2.3-23.7,4.5
				c-2.3,0.6-6.2,2.3-9.2,3.9c-3.2,1.5-5.5,3-4.5,3.6c7,3.9,14.8,7.4,22.9,9c4,0.8,8.3,1.3,12.5,1.1c4.1-0.2,8.4-1,12.6-2.4
				c0.4-0.1,0.9-0.2,1.3-0.4l-7.4,7.6c-2.4,2.6-5.1,4.9-7.7,7.3c-2.6,2.6-5.5,4.9-8.3,7.3c-0.3-0.2-0.5-0.3-0.9-0.4
				c-3.1-0.9-5.5-3.4-8.4-4.8c-3.6-1.9-8.1-2.4-12.1-2.5c-2.2-0.1-4.2,0-6.2,0.1c-2.1,0.1-4.1,0.3-6.1,0.6c-2,0.3-4,0.7-6.1,1.2
				c-2.1,0.4-4.3,0.9-6.6,1.5c-1.1,0.3-2.7,0.9-4.4,1.5c-1.7,0.6-3.6,1.3-5.2,2c-3.3,1.5-5.7,2.9-4.8,3.5c6.7,4.4,14.1,8,22.1,10.1
				c6.5,1.6,13.7,2.5,20.6,1.2l-5.3,3.7l-5.4,3.4c-3,1.9-6,3.8-9.1,5.5c-3.1,1.7-6.1,3.6-9.3,5.1c-1.7-1.3-4.7-3.3-5.5-3.9
				c-1.6-1.2-2.9-2.6-4.4-3.8c-1.6-1.3-3.2-2.5-5-3.5c-3.3-2-6.9-3.7-10.7-4.4c-3.5-0.7-6.4-1.3-10.6-2.2c-4-0.8-7.8-2-11.5-2
				c-1.3,0,0.7,3.4,3.6,7.4c1.5,2,3.3,4.1,5,6c1.7,1.8,3.5,3.5,4.9,4.6c5.4,4.3,11.9,8.2,19.8,8.4l0.8,0l-6.2,2.8l-10.5,4.1
				c-3.5,1.3-7.1,2.5-10.7,3.7c-4-6.3-9.9-10.4-16.2-13.1c-3.1-1.3-6.5-2.5-9.8-3.4c-3.3-0.9-6.6-1.6-9.8-2.4
				c-1.8-0.4-3.6-0.8-5.4-1.2c-0.9-0.2-2.8-1.4-3-0.7c-0.2,0.7,1.2,3.2,7.7,10.2c1,1.1,3.5,4.3,7.3,7.4c3.7,3,8.7,5.7,14.3,6
				c1.8,0,3.2,0.1,4.6,0.2l-3.3,0.9l-13.6,3.5c-0.4,0-0.8,0-1.4,0c-4.2,0.2-8.2-0.2-12.2-0.8c-4-0.7-8-1.4-12.1-1.5
				c-4.1-0.3-8.2,0-12.2,0.8c-4,0.6-8,1.5-12,2.8c-2.1,0.6-1.4,1.4,0.5,2.4c3.9,2,7.8,4,11.9,5.4c4.1,1.3,8.5,2,13.1,1.9
				c4.4-0.4,8.8-1.1,13.1-2.1c2.2-0.6,4.4-1.2,6.5-2c2.3-0.9,3.5-1.7,5.6-3.4c0.1,0,0.3-0.2,0.5-0.6l5.8-1.1l6.8-1.4l6.7-1.7
				c4.5-1.1,8.9-2.5,13.3-3.9c-0.8,0.7-1.6,1.3-2.4,2.1c-1.9,1.7-3.8,3.6-5.4,5.5c-1.3,1.5-8.7,9.7-11.2,13c-2.6,3.5-4.8,5.8-7,11.7
				c-0.9,2.3-1.2,7.2,0,6.9c1-0.2,3.2-1.5,6.8-3.9c1.8-1.2,4-2.7,6.5-4.6c2.5-1.9,5.4-4.2,8.7-6.9c1.9-1.4,6-6.2,8.1-9.8
				c1.5-2.6,4.4-7.9,4.9-9.4c0.8-2.1,2.3-6.6,2.4-8.6l4.2-1.6l4.1-1.8l8.2-3.6c5.3-2.7,10.8-5.2,15.9-8.2c-1.6,1.8-3.2,3.8-4.5,5.6
				c-1.3,1.7-2.3,3.4-2.8,4.7c-2.3,6.3-2,12.8-1.8,19c0.3,6.3,0.7,12.7-1.4,19.2c3.4,0.1,8-3.6,11.7-8.3c3.8-4.8,6.9-10.2,8.4-13.5
				c2.3-5.2,4.1-11.2,4.7-17.2c0.6-6.1,0.1-12.1-1.7-17l3.8-2.4l3.7-2.6c2.5-1.7,5-3.4,7.4-5.2c4.8-3.7,9.6-7.2,14.2-11.2l3.5-3
				c-0.8,2.1-1.7,4.2-2.5,6.3c-1.8,5-3.7,9.8-4.8,15c-0.2,1.2-0.6,3.5-1.1,6.1c-0.6,2.6-1.2,5.7-1.8,8.6c-1.3,5.9-2.6,11.4-2.8,11.9
				c-1.5,7.4-0.1,8,0.3,7.6c0.2-0.2,0.3-0.4,0.5-0.6c0.1-0.1,1-1.1,1.9-1.7c0.6-0.4,3.2-2.2,6.3-4.8c3.1-2.6,6.7-5.7,9.2-9.3
				c1.7-2.4,3.5-4.7,4.9-7.1c4.2-7.7,4.7-13.6,3.8-21c-0.1-1.3-3.8-13.3-5.8-18.4c2.1-1.9,4.1-3.9,6-5.9c2-2,4-4,5.9-6.1
				c3.7-4.2,7.6-8.4,11-12.8l4.4-5.5l-0.1,0.3c-0.4,1.8-1,3.5-1.7,5.3c-1.3,3.7-2.8,7.4-4.1,11.1c-1.3,4-2,8.1-1.9,12.1
				c0.2,5.1,1.2,10.2,2.2,15.2c1.2,5.7,6.8,19.6,8,16.8c2.1-5.1,5.7-10.2,8.1-15.2c1.7-3.5,4.2-13.1,4.5-14.3
				c0.9-3.8,0.9-7.7,0.9-11.3c-0.1-7.5-2.1-14.9-5.3-21.1c-1.3-2.5-2.8-5-4.9-6.9c2.7-3.6,5-7.4,7.5-11.1c2.4-3.7,4.6-7.7,6.9-11.5
				c-0.4,6.5,0.8,13.9,2.5,21c0.9,3.6,2.1,7.2,3.5,10.8c1.4,3.5,2.8,6.8,4.5,9.9c3.8,6.9,5.7,10.6,6.4,9.5c1.9-4.4,3.8-9.1,5-14.2
				c1.3-5,2.3-10.1,2.4-15.4c0.5-10.3-2-20.6-8.1-28.9c-0.7-1-5.2-5.6-8.8-6.8c4.2-8.9,8.1-17.9,11.3-27.1c0,2.1,0.2,4.1,0.4,6
				c0.2,1.8,0.5,3.4,1,4.6c3.7,9,9.5,15,15.7,21.6c3.5,3.7,13.8,14.4,13.6,11.1c-0.3-3.5-0.5-6.9-0.8-10.3
				C646.4,488.4,646.3,485.8,646.1,483.3z"/>
		</g>
	</g>
	<g>
		<g>
			<path class="st0" d="M350.9,632.3L350.9,632.3L350.9,632.3L350.9,632.3z M353.4,630.8c-0.2,0-0.3-0.1-0.5-0.1l-1.6-0.2
				c-2-0.3-4-0.4-5.9-0.6c-3.6-0.2-7.3-0.8-10.9-1.2l-5.4-0.7l-5.4-1l-8-1.5l-7.9-1.9l-3.9-1l-3.9-1.1l-7.8-2.3
				c-3.8-1.3-7.6-2.6-11.4-4c-0.8-7.6-0.5-13.8-2.5-20.8c-0.5-1.9-1-3.7-1.6-5.6c-0.5-1.9-1.2-3.7-1.9-5.4
				c-1.5-3.6-3.1-7.1-4.3-10.8c-0.7-2.1-1.9-4.5-3.1-6.9c-0.6-1.2-1.2-2.3-1.8-3.5c-0.5-1.1-1-2.3-1.4-3.2c-0.3-0.8-1.7-0.5-2.5,0.3
				c-3.5,3.5-4.9,8.1-5.7,12c-0.9,4.3-1.3,8.8-1.4,13c0,5.3,0.5,10.6,2.4,15.5c0.9,2.6,2.3,4.9,4.1,7l0,0.1c-2.2-1-4.4-1.9-6.5-3.1
				l-8.7-4.6l-8.5-5c1.3-1.6,5.8-12,6.4-17.2c0.4-3.6,1-7.3,0.5-10.8c-0.2-1.4-1.2-6.8-1.6-8c-0.5-1.7-1.8-4.7-3-7.4
				c-0.6-1.4-1.2-2.7-1.7-3.7c-0.5-1.1-0.8-1.9-1.1-2.3c-0.5-0.8-5.4-10-6.9-5.3c-4.5,14.2-11.6,29.4-5.8,44.2
				c0.4,1.1,0.9,2.1,1.4,3.1c-3.3-2.2-6.4-4.6-9.6-6.9c-2.9-2.1-5.6-4.4-8.4-6.6c6.2-5.6,7.7-13.7,7.5-22.1
				c-0.3-8.3-2.3-16.9-4.5-23.7c-0.6-2.3-2.3-6.2-3.9-9.2c-1.5-3.2-3-5.5-3.6-4.5c-3.9,7-7.4,14.8-9,22.9c-0.8,4-1.3,8.3-1.1,12.5
				c0.2,4.1,1,8.4,2.3,12.6c0.1,0.4,0.2,0.9,0.4,1.3l-7.6-7.4c-2.6-2.4-4.9-5.1-7.3-7.7c-2.6-2.6-4.9-5.5-7.3-8.3
				c0.2-0.3,0.3-0.5,0.4-0.9c0.9-3.1,3.4-5.5,4.8-8.4c1.9-3.6,2.4-8.1,2.5-12.1c0.1-2.2,0-4.2-0.1-6.2c-0.1-2.1-0.3-4.1-0.6-6.1
				c-0.3-2-0.7-4-1.2-6.1c-0.4-2.1-0.9-4.3-1.5-6.6c-0.3-1.1-0.9-2.7-1.5-4.4c-0.6-1.7-1.3-3.6-2-5.2c-1.5-3.3-2.9-5.7-3.5-4.8
				c-4.4,6.7-8,14.1-10.1,22.1c-1.6,6.5-2.5,13.7-1.2,20.6l-3.7-5.3l-3.4-5.4c-1.9-3-3.8-6-5.5-9.1c-1.7-3.1-3.6-6.1-5.1-9.3
				c1.3-1.7,3.3-4.7,3.9-5.5c1.2-1.6,2.6-2.9,3.8-4.4c1.3-1.6,2.5-3.2,3.5-5c2-3.3,3.7-6.9,4.4-10.7c0.7-3.5,1.3-6.4,2.2-10.6
				c0.8-4,2-7.8,2-11.5c0-1.3-3.4,0.7-7.4,3.6c-2,1.5-4.1,3.3-6,5c-1.8,1.7-3.5,3.5-4.6,4.9c-4.3,5.4-8.2,11.9-8.4,19.8l0,0.8
				l-2.8-6.2l-4.1-10.5c-1.3-3.5-2.5-7.1-3.7-10.7c6.3-4,10.4-9.9,13.1-16.2c1.3-3.1,2.5-6.5,3.4-9.8c0.9-3.3,1.6-6.6,2.4-9.8
				c0.4-1.8,0.8-3.6,1.2-5.4c0.2-0.9,1.4-2.8,0.7-3c-0.7-0.2-3.2,1.2-10.2,7.7c-1.1,1-4.3,3.5-7.4,7.3c-3,3.7-5.7,8.7-6,14.3
				c0,1.8-0.1,3.2-0.2,4.6l-0.9-3.3l-3.5-13.6c0-0.4,0-0.8,0-1.4c-0.2-4.2,0.2-8.2,0.8-12.2c0.7-4,1.4-8,1.5-12.1
				c0.3-4.1,0-8.2-0.8-12.2c-0.6-4-1.6-8-2.8-12c-0.6-2.1-1.4-1.4-2.4,0.5c-2,3.9-4,7.8-5.4,11.9c-1.3,4.1-2,8.5-1.9,13.1
				c0.4,4.4,1.1,8.8,2.1,13.1c0.6,2.2,1.2,4.4,2,6.5c0.9,2.3,1.7,3.5,3.4,5.6c0,0.1,0.3,0.3,0.6,0.5l1.1,5.8l1.4,6.8l1.7,6.7
				c1.1,4.5,2.5,8.9,3.9,13.4c-0.7-0.8-1.3-1.6-2.1-2.4c-1.7-1.9-3.6-3.8-5.5-5.4c-1.5-1.3-9.7-8.7-13-11.2c-3.5-2.6-5.8-4.8-11.7-7
				c-2.3-0.9-7.2-1.2-6.9,0c0.2,1,1.5,3.2,3.9,6.8c1.2,1.8,2.7,4,4.6,6.5c1.9,2.5,4.2,5.4,6.9,8.7c1.4,1.9,6.2,6,9.8,8.1
				c2.6,1.5,7.9,4.4,9.4,4.9c2.1,0.8,6.6,2.3,8.6,2.4l1.6,4.2l1.8,4.1l3.6,8.2c2.7,5.3,5.2,10.8,8.2,15.9c-1.8-1.6-3.8-3.2-5.6-4.5
				c-1.7-1.3-3.4-2.3-4.7-2.8c-6.3-2.3-12.8-2-19-1.8c-6.3,0.3-12.7,0.7-19.2-1.4c-0.1,3.4,3.6,8,8.3,11.7
				c4.8,3.8,10.2,6.9,13.5,8.4c5.2,2.3,11.2,4.1,17.2,4.7c6.1,0.6,12.1,0.1,17-1.7l2.4,3.8l2.6,3.7c1.7,2.5,3.4,5,5.2,7.4
				c3.7,4.8,7.2,9.6,11.2,14.2l3,3.5c-2.1-0.8-4.2-1.7-6.3-2.5c-5-1.8-9.8-3.7-15-4.8c-1.2-0.2-3.5-0.6-6.1-1.1
				c-2.6-0.6-5.7-1.2-8.6-1.8c-5.9-1.3-11.4-2.6-11.9-2.8c-7.4-1.5-8-0.1-7.6,0.3c0.2,0.2,0.4,0.3,0.6,0.5c0.1,0.1,1.1,1,1.7,1.9
				c0.4,0.6,2.2,3.2,4.8,6.3c2.6,3.1,5.7,6.7,9.3,9.2c2.4,1.7,4.7,3.5,7.1,4.9c7.7,4.2,13.6,4.7,21,3.8c1.3-0.1,13.3-3.8,18.4-5.8
				c1.9,2.1,3.9,4.1,5.9,6c2,2,4,4,6.1,5.9c4.2,3.7,8.4,7.6,12.8,11l5.5,4.4l-0.3-0.1c-1.8-0.4-3.5-1-5.3-1.7
				c-3.7-1.3-7.4-2.8-11.1-4.1c-4-1.3-8.1-2-12.1-1.9c-5.1,0.2-10.2,1.2-15.2,2.2c-5.7,1.2-19.6,6.8-16.8,8
				c5.1,2.1,10.2,5.7,15.2,8.1c3.5,1.7,13.1,4.2,14.3,4.5c3.8,0.9,7.7,0.9,11.3,0.9c7.5-0.1,14.9-2.1,21.1-5.3
				c2.5-1.3,5-2.8,6.9-4.9c3.6,2.7,7.4,5,11.1,7.5c3.7,2.4,7.7,4.6,11.5,6.9c-6.5-0.4-13.9,0.8-21,2.5c-3.6,0.9-7.2,2.1-10.8,3.5
				c-3.5,1.4-6.8,2.8-9.9,4.5c-6.9,3.8-10.6,5.7-9.5,6.4c4.4,1.9,9.1,3.8,14.2,5c5,1.3,10.1,2.3,15.4,2.4c10.3,0.5,20.6-2,28.9-8.1
				c1-0.7,5.6-5.2,6.8-8.8c8.8,4.2,17.9,8.1,27.1,11.3c-2.1,0-4.1,0.2-6,0.4c-1.8,0.2-3.4,0.5-4.6,1c-9,3.7-15,9.5-21.6,15.7
				c-3.7,3.5-14.4,13.8-11.1,13.6c3.5-0.3,6.9-0.5,10.3-0.8c2.6,0,5.1-0.1,7.7-0.3c4.9-0.4,9.6-1.2,14.1-2.7
				c4.3-1.3,8.4-3.1,12.1-5.2c3.7-2.2,7.1-4.9,9.9-7.9c2.4-2.6,4.4-5.5,6-8.6c3,1,6.1,1.6,9.1,2.3c3.1,0.7,6.1,1.5,9.2,2.1
				c4,0.7,8,1.6,12,2.1c4,0.5,8.1,1.2,12.1,1.6c2.4,0.2,4.8,0.5,7.2,0.6c0.8,0,1.5,0,2.3,0l0.7,0l0.3,0c0.1,0,0.2,0,0.3,0
				c1.9,0.4,3.8-2,2.6-3.5C355.1,631.3,354.3,630.8,353.4,630.8z"/>
		</g>
	</g>
	<g>
		<g>
			<path class="st0" d="M108.6,356L108.6,356L108.6,356L108.6,356z M366.2,118.8c-3.9-2-7.8-4-11.9-5.4c-4.1-1.3-8.5-2-13.1-1.9
				c-4.4,0.4-8.8,1.1-13.1,2.1c-2.2,0.6-4.4,1.2-6.5,2c-2.3,0.9-3.5,1.7-5.6,3.4c-0.1,0-0.3,0.3-0.5,0.6l-5.8,1.1l-6.8,1.4l-6.7,1.7
				c-4.5,1.1-8.9,2.5-13.4,3.9c0.8-0.7,1.6-1.3,2.4-2.1c1.9-1.7,3.8-3.6,5.4-5.5c1.3-1.5,8.7-9.7,11.2-13c2.6-3.5,4.8-5.8,7-11.7
				c0.9-2.3,1.2-7.2,0-6.9c-1,0.2-3.2,1.5-6.8,3.9c-1.8,1.2-4,2.7-6.5,4.6c-2.5,1.9-5.4,4.2-8.7,6.9c-1.9,1.4-6,6.2-8.1,9.8
				c-1.5,2.6-4.4,7.9-4.9,9.4c-0.8,2.1-2.3,6.6-2.4,8.6l-4.2,1.6l-4.1,1.8l-8.2,3.6c-5.3,2.7-10.8,5.2-15.9,8.2
				c1.6-1.8,3.2-3.8,4.5-5.6c1.3-1.7,2.3-3.4,2.8-4.7c2.3-6.3,2-12.8,1.8-19c-0.3-6.3-0.7-12.7,1.4-19.2c-3.4-0.1-8,3.6-11.7,8.3
				c-3.8,4.8-6.9,10.2-8.4,13.5c-2.3,5.2-4.1,11.2-4.7,17.2c-0.6,6.1-0.1,12.1,1.7,17l-3.8,2.4l-3.7,2.6c-2.5,1.7-5,3.4-7.4,5.2
				c-4.8,3.7-9.6,7.2-14.2,11.2l-3.5,3c0.8-2.1,1.7-4.2,2.5-6.3c1.8-5,3.7-9.8,4.8-15c0.2-1.2,0.6-3.5,1.1-6.1
				c0.6-2.6,1.2-5.7,1.8-8.6c1.3-5.9,2.6-11.4,2.8-11.9c1.5-7.4,0.1-8-0.3-7.6c-0.2,0.2-0.3,0.4-0.5,0.6c-0.1,0.1-1,1.1-1.9,1.7
				c-0.6,0.4-3.2,2.2-6.3,4.8c-3.1,2.6-6.7,5.7-9.2,9.3c-1.7,2.4-3.5,4.7-4.9,7.1c-4.2,7.7-4.7,13.6-3.8,21
				c0.1,1.3,3.8,13.3,5.8,18.4c-2.1,1.9-4.1,3.9-6,5.9c-2,2-4,4-5.9,6.1c-3.7,4.2-7.6,8.4-11,12.8l-4.4,5.5l0.1-0.3
				c0.4-1.8,1-3.5,1.7-5.3c1.3-3.7,2.8-7.4,4.1-11.1c1.3-4,2-8.1,1.9-12.1c-0.2-5.1-1.2-10.2-2.2-15.2c-1.2-5.7-6.8-19.6-8-16.8
				c-2.1,5.1-5.7,10.2-8.1,15.2c-1.7,3.5-4.2,13.1-4.5,14.3c-0.9,3.8-0.9,7.7-0.9,11.3c0.1,7.5,2.1,14.9,5.3,21.1
				c1.3,2.5,2.8,5,4.9,6.9c-2.7,3.6-5,7.4-7.5,11.1c-2.4,3.7-4.6,7.7-6.9,11.5c0.4-6.5-0.8-13.9-2.5-21c-0.9-3.6-2.1-7.2-3.5-10.8
				c-1.4-3.5-2.8-6.8-4.5-9.9c-3.8-6.9-5.7-10.6-6.4-9.5c-1.9,4.4-3.8,9.1-5,14.2c-1.3,5-2.3,10.1-2.4,15.4
				c-0.5,10.3,2,20.6,8.1,28.9c0.7,1,5.2,5.6,8.8,6.8c-4.2,8.8-8.1,17.9-11.3,27.1c0-2.1-0.2-4.1-0.4-6c-0.2-1.8-0.5-3.4-1-4.6
				c-3.7-9-9.5-15-15.7-21.6c-3.5-3.7-13.8-14.4-13.6-11.1c0.3,3.5,0.5,6.9,0.8,10.3c0,2.6,0.1,5.1,0.3,7.7
				c0.4,4.9,1.2,9.6,2.7,14.1c1.3,4.3,3.1,8.4,5.2,12.1c2.2,3.7,4.9,7.1,7.9,9.9c2.6,2.4,5.5,4.4,8.6,6c-1,3-1.6,6.1-2.3,9.1
				c-0.7,3.1-1.5,6.1-2.1,9.2c-0.7,4-1.6,8-2.1,12c-0.5,4-1.2,8.1-1.6,12.1c-0.2,2.4-0.5,4.8-0.6,7.2c0,0.8,0,1.5,0,2.3l0,0.7l0,0.3
				c0,0.1,0,0.2,0,0.3c-0.4,1.9,2,3.8,3.5,2.6c0.7-0.5,1.2-1.4,1.3-2.3c0-0.2,0.1-0.3,0.1-0.5l0.2-1.6c0.3-2,0.4-4,0.6-5.9
				c0.2-3.6,0.8-7.3,1.2-10.9l0.7-5.4l1-5.4l1.5-8l1.9-7.9l1-3.9l1.1-3.9l2.3-7.8c1.3-3.8,2.6-7.6,4-11.4c7.6-0.8,13.8-0.5,20.8-2.5
				c1.9-0.5,3.7-1,5.6-1.6c1.9-0.5,3.7-1.2,5.4-1.9c3.6-1.5,7.1-3.1,10.8-4.3c2.1-0.7,4.5-1.9,6.9-3.1c1.2-0.6,2.3-1.2,3.5-1.8
				c1.1-0.5,2.3-1,3.2-1.4c0.8-0.3,0.5-1.7-0.3-2.5c-3.5-3.5-8.1-4.9-12-5.7c-4.3-0.9-8.8-1.3-13-1.4c-5.3,0-10.6,0.5-15.5,2.4
				c-2.6,0.9-4.9,2.3-7,4.1l-0.1,0c1-2.2,1.9-4.4,3.1-6.5l4.6-8.7l5-8.5c1.6,1.3,12,5.8,17.2,6.4c3.6,0.4,7.3,1,10.8,0.5
				c1.4-0.2,6.8-1.2,8-1.6c1.6-0.5,4.7-1.8,7.4-3c1.4-0.6,2.7-1.2,3.7-1.7c1.1-0.5,1.9-0.8,2.3-1.1c0.8-0.5,10-5.4,5.3-6.9
				c-14.2-4.5-29.4-11.6-44.2-5.8c-1.1,0.4-2.1,0.9-3.1,1.4c2.2-3.3,4.6-6.4,6.9-9.6c2.1-2.9,4.4-5.6,6.6-8.4
				c5.6,6.2,13.7,7.7,22.1,7.5c8.3-0.3,16.9-2.3,23.7-4.5c2.3-0.6,6.2-2.3,9.2-3.9c3.2-1.5,5.5-3,4.5-3.6c-7-3.9-14.8-7.4-22.9-9
				c-4-0.8-8.3-1.3-12.5-1.1c-4.1,0.2-8.4,1-12.6,2.3c-0.4,0.1-0.9,0.2-1.3,0.4l7.4-7.6c2.4-2.6,5.1-4.9,7.7-7.3
				c2.6-2.6,5.5-4.9,8.3-7.3c0.3,0.2,0.5,0.3,0.9,0.4c3.1,0.9,5.5,3.4,8.4,4.8c3.6,1.9,8.1,2.4,12.1,2.5c2.2,0.1,4.2,0,6.2-0.1
				c2.1-0.1,4.1-0.3,6.1-0.6c2-0.3,4-0.7,6.1-1.2c2.1-0.4,4.3-0.9,6.6-1.5c1.1-0.3,2.7-0.9,4.4-1.5c1.7-0.6,3.6-1.3,5.2-2
				c3.3-1.5,5.7-2.9,4.8-3.5c-6.7-4.4-14.1-8-22.1-10.1c-6.5-1.6-13.7-2.5-20.6-1.2l5.3-3.7l5.4-3.4c3-1.9,6-3.8,9.1-5.5
				c3.1-1.7,6.1-3.6,9.3-5.1c1.7,1.3,4.7,3.3,5.5,3.9c1.6,1.2,2.9,2.6,4.4,3.8c1.6,1.3,3.2,2.5,5,3.5c3.3,2,6.9,3.7,10.7,4.4
				c3.5,0.7,6.4,1.3,10.6,2.2c4,0.8,7.8,2,11.5,2c1.3,0-0.7-3.4-3.6-7.4c-1.5-2-3.3-4.1-5-6c-1.7-1.8-3.5-3.5-4.9-4.6
				c-5.4-4.3-11.9-8.2-19.8-8.4l-0.8,0l6.2-2.8l10.5-4.1c3.5-1.3,7.1-2.5,10.7-3.7c4,6.3,9.9,10.4,16.2,13.1
				c3.1,1.3,6.5,2.5,9.8,3.4c3.3,0.9,6.6,1.6,9.8,2.4c1.8,0.4,3.6,0.8,5.4,1.2c0.9,0.2,2.8,1.4,3,0.7c0.2-0.7-1.2-3.2-7.7-10.2
				c-1-1.1-3.5-4.3-7.3-7.4c-3.7-3-8.7-5.7-14.3-6c-1.8,0-3.2-0.1-4.6-0.2l3.3-0.9l13.6-3.5c0.4,0,0.8,0,1.4,0
				c4.2-0.2,8.2,0.2,12.2,0.8c4,0.7,8,1.4,12.1,1.5c4.1,0.3,8.2,0,12.2-0.8c4-0.6,8-1.6,12-2.8C368.7,120.5,368.1,119.7,366.2,118.8
				z"/>
		</g>
	</g>
	<g>
		<g>
			<path class="st0" d="M384.9,113.7L384.9,113.7L384.9,113.7L384.9,113.7z M648.4,307.1c-1.2-1.8-2.7-4-4.6-6.5
				c-1.9-2.5-4.2-5.4-6.9-8.7c-1.4-1.9-6.2-6-9.8-8.1c-2.6-1.5-7.9-4.4-9.4-4.9c-2.1-0.8-6.6-2.3-8.6-2.4l-1.6-4.2l-1.8-4.1
				l-3.6-8.2c-2.7-5.3-5.2-10.8-8.2-15.9c1.8,1.6,3.8,3.2,5.6,4.5c1.7,1.3,3.4,2.3,4.7,2.8c6.3,2.3,12.8,2,19,1.8
				c6.3-0.3,12.7-0.7,19.2,1.4c0.1-3.4-3.6-8-8.3-11.7c-4.8-3.8-10.2-6.9-13.5-8.4c-5.2-2.3-11.2-4.1-17.2-4.7
				c-6.1-0.6-12.1-0.1-17,1.7l-2.4-3.8l-2.6-3.7c-1.7-2.5-3.4-5-5.2-7.4c-3.7-4.8-7.2-9.6-11.2-14.2l-3-3.5c2.1,0.8,4.2,1.7,6.3,2.5
				c5,1.8,9.8,3.7,15,4.8c1.2,0.2,3.5,0.6,6.1,1.1c2.6,0.6,5.7,1.2,8.6,1.8c5.9,1.3,11.4,2.6,11.9,2.8c7.4,1.5,8,0.1,7.6-0.3
				c-0.2-0.2-0.4-0.3-0.6-0.5c-0.1-0.1-1.1-1-1.7-1.9c-0.4-0.6-2.2-3.2-4.8-6.3c-2.6-3.1-5.7-6.7-9.3-9.2c-2.4-1.7-4.7-3.5-7.1-4.9
				c-7.7-4.2-13.6-4.7-21-3.8c-1.3,0.1-13.3,3.8-18.4,5.8c-1.9-2.1-3.9-4.1-5.9-6c-2-2-4-4-6.1-5.9c-4.2-3.7-8.4-7.6-12.8-11
				l-5.5-4.4l0.3,0.1c1.8,0.4,3.5,1,5.3,1.7c3.7,1.3,7.4,2.8,11.1,4.1c4,1.3,8.1,2,12.1,1.9c5.1-0.2,10.2-1.2,15.2-2.2
				c5.7-1.2,19.6-6.8,16.8-8c-5.1-2.1-10.2-5.7-15.2-8.1c-3.5-1.7-13.1-4.2-14.3-4.5c-3.8-0.9-7.7-0.9-11.3-0.9
				c-7.5,0.1-14.9,2.1-21.1,5.3c-2.5,1.3-5,2.8-6.9,4.9c-3.6-2.7-7.4-5-11.1-7.5c-3.7-2.4-7.7-4.6-11.5-6.9c6.5,0.4,13.9-0.8,21-2.5
				c3.6-0.9,7.2-2.1,10.8-3.5c3.5-1.4,6.8-2.8,9.9-4.5c6.9-3.8,10.6-5.7,9.5-6.4c-4.4-1.9-9.1-3.8-14.2-5c-5-1.3-10.1-2.3-15.4-2.4
				c-10.3-0.5-20.6,2-28.9,8.1c-1,0.7-5.6,5.2-6.8,8.8c-8.8-4.2-17.9-8.1-27.1-11.3c2.1,0,4.1-0.2,6-0.4c1.8-0.2,3.4-0.5,4.6-1
				c9-3.7,15-9.5,21.6-15.7c3.7-3.5,14.4-13.8,11.1-13.6c-3.5,0.3-6.9,0.5-10.3,0.8c-2.6,0-5.1,0.1-7.7,0.3
				c-4.9,0.4-9.6,1.2-14.1,2.7c-4.3,1.3-8.4,3.1-12.1,5.2c-3.7,2.2-7.1,4.9-9.9,7.9c-2.4,2.6-4.4,5.5-6,8.6c-3-1-6.1-1.6-9.1-2.3
				c-3.1-0.7-6.1-1.5-9.2-2.1c-4-0.7-8-1.6-12-2.1c-4-0.5-8.1-1.2-12.1-1.6c-2.4-0.2-4.8-0.5-7.2-0.6c-0.8,0-1.5,0-2.3,0l-0.7,0
				l-0.3,0c-0.1,0-0.2,0-0.3,0c-1.9-0.4-3.8,2-2.6,3.5c0.5,0.7,1.4,1.2,2.3,1.3c0.2,0,0.3,0.1,0.5,0.1l1.6,0.2c2,0.3,4,0.4,5.9,0.6
				c3.6,0.2,7.3,0.8,10.9,1.2l5.4,0.7l5.4,1l8,1.5l7.9,1.9l3.9,1l3.9,1.1l7.8,2.3c3.8,1.3,7.6,2.6,11.4,4c0.8,7.6,0.5,13.8,2.5,20.8
				c0.5,1.9,1,3.7,1.6,5.6c0.5,1.9,1.2,3.7,1.9,5.4c1.5,3.6,3.1,7.1,4.3,10.8c0.7,2.1,1.9,4.5,3.1,6.9c0.6,1.2,1.2,2.3,1.8,3.5
				c0.5,1.1,1,2.3,1.4,3.2c0.3,0.8,1.7,0.5,2.5-0.3c3.5-3.5,4.9-8.1,5.7-12c0.9-4.3,1.3-8.8,1.4-13c0-5.3-0.5-10.6-2.4-15.5
				c-0.9-2.6-2.3-4.9-4.1-7l0-0.1c2.2,1,4.4,1.9,6.5,3.1l8.7,4.6l8.5,5c-1.3,1.6-5.8,12-6.4,17.2c-0.4,3.6-1,7.3-0.5,10.8
				c0.2,1.4,1.2,6.8,1.6,8c0.5,1.6,1.8,4.7,3,7.4c0.6,1.4,1.2,2.7,1.7,3.7c0.5,1.1,0.8,1.9,1.1,2.3c0.5,0.8,5.4,10,6.9,5.3
				c4.5-14.2,11.6-29.4,5.8-44.2c-0.4-1.1-0.9-2.1-1.4-3.1c3.3,2.2,6.4,4.6,9.6,6.9c2.9,2.1,5.6,4.4,8.4,6.6
				c-6.2,5.6-7.7,13.7-7.5,22.1c0.3,8.3,2.3,16.9,4.5,23.7c0.6,2.3,2.3,6.2,3.9,9.2c1.5,3.2,3,5.5,3.6,4.5c3.9-7,7.4-14.8,9-22.9
				c0.8-4,1.3-8.3,1.1-12.5c-0.2-4.1-1-8.4-2.3-12.6c-0.1-0.4-0.2-0.9-0.4-1.3l7.6,7.4c2.6,2.4,4.9,5.1,7.3,7.7
				c2.6,2.6,4.9,5.5,7.3,8.3c-0.2,0.3-0.3,0.5-0.4,0.9c-0.9,3.1-3.4,5.5-4.8,8.4c-1.9,3.6-2.4,8.1-2.5,12.1c-0.1,2.2,0,4.2,0.1,6.2
				c0.1,2.1,0.3,4.1,0.6,6.1c0.3,2,0.7,4,1.2,6.1c0.4,2.1,0.9,4.3,1.5,6.6c0.3,1.1,0.9,2.7,1.5,4.4c0.6,1.7,1.3,3.6,2,5.2
				c1.5,3.3,2.9,5.7,3.5,4.8c4.4-6.7,8-14.1,10.1-22.1c1.6-6.5,2.5-13.7,1.2-20.6l3.7,5.3l3.4,5.4c1.9,3,3.8,6,5.5,9.1
				c1.7,3.1,3.6,6.1,5.1,9.3c-1.3,1.7-3.3,4.7-3.9,5.5c-1.2,1.6-2.6,2.9-3.8,4.4c-1.3,1.6-2.5,3.2-3.5,5c-2,3.3-3.7,6.9-4.4,10.7
				c-0.7,3.5-1.3,6.4-2.2,10.6c-0.8,4-2,7.8-2,11.5c0,1.3,3.4-0.7,7.4-3.6c2-1.5,4.1-3.3,6-5c1.8-1.7,3.5-3.5,4.6-4.9
				c4.3-5.4,8.2-11.9,8.4-19.8l0-0.8l2.8,6.2l4.1,10.5c1.3,3.5,2.5,7.1,3.7,10.7c-6.3,4-10.4,9.9-13.1,16.2
				c-1.3,3.1-2.5,6.5-3.4,9.8c-0.9,3.3-1.6,6.6-2.4,9.8c-0.4,1.8-0.8,3.6-1.2,5.4c-0.2,0.9-1.4,2.8-0.7,3c0.7,0.2,3.2-1.2,10.2-7.7
				c1.1-1,4.3-3.5,7.4-7.3c3-3.7,5.7-8.7,6-14.3c0-1.8,0.1-3.2,0.2-4.6l0.9,3.3l3.5,13.6c0,0.4,0,0.8,0,1.4
				c0.2,4.2-0.2,8.2-0.8,12.2c-0.7,4-1.4,8-1.5,12.1c-0.3,4.1,0,8.2,0.8,12.2c0.6,4,1.5,8,2.8,12c0.6,2.1,1.4,1.4,2.4-0.5
				c2-3.9,4-7.8,5.4-11.9c1.3-4.1,2-8.5,1.9-13.1c-0.4-4.4-1.1-8.8-2.1-13.1c-0.6-2.2-1.2-4.4-2-6.5c-0.9-2.3-1.7-3.5-3.4-5.6
				c0-0.1-0.3-0.3-0.6-0.5l-1.1-5.8l-1.4-6.8l-1.7-6.7c-1.1-4.5-2.5-8.9-3.9-13.3c0.7,0.8,1.3,1.6,2.1,2.4c1.7,1.9,3.6,3.8,5.5,5.4
				c1.5,1.3,9.7,8.7,13,11.2c3.5,2.6,5.8,4.8,11.7,7c2.3,0.9,7.2,1.2,6.9,0C652.1,312.9,650.9,310.7,648.4,307.1z"/>
		</g>
	</g>
</g>
<g>
	<g>
		<g>
			<g>
				<rect x="180.7" y="312.9" class="st0" width="350.6" height="6.8"/>
			</g>
		</g>
	</g>
	<g>
		<g>
			<g>
				<rect x="180.7" y="427.3" class="st0" width="350.6" height="6.8"/>
			</g>
		</g>
	</g>
</g>
<g>
	<path class="st0" d="M373.5,194.8c-4.7-0.4-9.1-2-13.9-2c-5,0-9.9,0.7-14.7,1.7c-5.1,1.1-10.1,2.5-15.2,3.8c-0.4,2.7-0.7,5.5-1,8.2
		c-1.6,13.1-2.9,26.1-3.5,39.3c-0.5,11.1-1.2,22.6-0.5,33.8c0.2,3,0.1,5.5,1.6,7.7c0.9,1.3,2.7,2.6,5.3,1.4c2.3-1.1,4-3.1,5.5-5.2
		c7.3-10,11.1-22.8,14.6-34.6c0.6-2,3.7-1,3.1,0.9c-4.1,13.6-8.8,29.3-18.8,39.8c-3.7,3.9-8.9,5.7-13.9,2.9c-3.7-2-6-6.9-7.1-9.6
		c-4.6-11.5-4.4-24.2-3.9-36.4c0.7-15.1,2-30.3,3.8-45.4c-12.5,1.4-27.8-0.6-34.9-12.1c-0.3-0.4,0.3-0.9,0.7-0.5
		c9.3,10.2,21.8,12.1,34.5,10.6c1.3-10.7,3-21.4,4.8-32c0.6-3.7,4.9-5.6,8.2-4.6c3.8,1.1,5.7,4.8,5.2,8.5
		c-1.1,8.4-2.3,16.7-3.5,25.1c7.1-1.9,14.2-3.9,21.5-4.8c6.7-0.8,16.5-1.7,22.4,2.4C374.2,194,374.2,194.8,373.5,194.8z"/>
	<path class="st0" d="M431.5,250.4c-2.9,7.3-6.2,14.2-10.7,20.6c-3.2,4.5-6.2,9.6-10.1,13.4c-6.3,6.1-16.2,9.1-23,1.7
		c-6.7-7.3-3.5-20.4-2.5-29.1c0.5-4.1,0.9-8.1,0.6-12.4c-0.1-1.8-0.9-5.8-3.3-5.2c-3.6,0.8-6.1,5.6-7.5,8.6c-2.9,6-5,12.5-6.6,19
		c0.3,1.6,0.6,3.3,1.2,4.9c0.6,1.5-1.4,2.3-2.4,1.3c-3.2-3.1-6.4-5.8-8.6-9.8c-2.1-3.9-3.8-8-5-12.3c-2.7-9.2-2.9-18.7-2.1-28.2
		c1.3-15.4,5.4-31,13.9-44.1c4.9-7.6,14.4-16.6,24.3-14c16.2,4.3,5.5,31.4,0.6,40.4c-6.5,11.9-15.7,22.3-25.7,31.5
		c0.1,5.3,0.5,10.7,1.2,15.8c0.3,2.1,0.7,4.2,1.1,6.3c1.1-4.7,2.5-9.3,4.4-13.8c1.8-4.1,3.8-8.8,7.2-11.7
		c8.2-7.1,17.9,2.2,20.3,10.3c2.8,9.4-0.8,19.6-1,28.8c0,1.1,0,2.3,0.1,3.4c0-0.2,0.4,1.6,0.4,1.8c0,0.1,0.1,0.4,0.2,0.6
		c0.2,0.6,0.5,1.1,0.7,1.7c0.1,0.3,0.6,1,0,0c0.2,0.3,0.4,0.8,0.7,1c2.7,2.2,6,0.7,8.7-0.9c5-3.1,8.3-7.4,11.1-12.5
		c3.4-6.1,6.3-12.6,8.9-19.1C429.1,246.5,432.2,248.4,431.5,250.4z M364.3,233.4c9.2-9.1,17.6-19.1,23.6-30.5
		c3.6-6.8,6-14.4,6.6-22.1c0.3-3.9,0.3-9.1-3.4-11.5c-2-1.3-4.9-1.6-7.1-0.7c-3.5,1.5-5.8,5.1-7.5,8.4c-2.4,4.7-4.3,9.9-5.8,15
		c-3.8,12.9-6.3,26.4-6.3,39.8C364.3,232.4,364.3,232.9,364.3,233.4z"/>
	<path class="st0" d="M481.3,250.1c-7.6,13.4-16.8,26.3-31.6,32.3c-5.8,2.4-11.1,4-16.9,0.6c-6.5-3.8-9.5-10.5-10.5-17.6
		c-1.7-11.8,3.1-26.9,14.7-32.3c6.4-2.9,15.3-3.2,19.9,3c3,4.1,3,11.4,0.6,15.7c-4,7.2-12.9,13.1-21.5,12.4c0.3,2.4,0.9,4.7,1.8,7
		c0.7,1.8,1.6,3.6,3,4.9c1.5,1.4,1.8,1.7,3.3,2.1c4.9,1.3,9.6-1.7,13.4-4.4c8.6-6.1,16.9-15.5,20.8-25.4
		C479.2,246.5,482.4,248.3,481.3,250.1z M435.9,261.1c3.6-0.2,7-0.7,10.4-2.6c3.9-2.2,7.8-6.2,8.5-10.8c0.8-5.1-3.7-6.5-7.8-5
		c-2.1,0.7-3.8,2.2-5.3,3.8c-1.4,1.4-1.7,1.9-2.6,3.5C437,253.5,436,257.3,435.9,261.1z"/>
</g>
<g>
	<path class="st0" d="M292,497.8c-6,6.6-14.9,13.3-24.1,11.6c0,0.2,0,0.5-0.1,0.7c4.9,5,8.2,12.4,10,18.8c0.9,3.4,1.8,7.3,1.3,10.9
		c-0.4,3.1-1.8,6.7-5,7.8c-3.5,1.2-7.4-0.4-9.6-3.1c-2.8-3.2-4.1-7.8-4.8-11.9c-3.3-18.1,0.6-37.4,4.9-55c1.4-5.6,9.6-2.8,8.5,2.5
		c-1.8,9.2-4,18.4-5,27.8c8.8,1.3,17-4.9,22.8-11.2C291.5,495.9,292.7,497.1,292,497.8z M267.6,514.1c-0.3,7.1,0.2,14.2,1.3,21.2
		c0.4,2.4,1.4,8.8,5.2,7.5c4.4-1.5,2.2-9.4,1.4-12.6c-1-4-2.6-7.9-4.7-11.5C269.9,517.1,268.7,515.6,267.6,514.1z"/>
	<path class="st0" d="M329.9,497.5c-0.7,3.6-2.4,7.3-4.2,10.5c-1.3,2.5-2.8,5-4.8,7c-2.3,2.4-6.7,5.2-10.1,4c-4.2-1.4-6-5.6-6.7-9.7
		c-1.6,3.7-3.7,7.1-6.7,8.9c-3.8,2.2-7.8-0.9-9.8-4.3c-3.1-5.3-2.5-12.1-0.5-17.8c1.8-5.1,5.4-11.2,11.3-10c2.8,0.6,5,2.2,6.6,4.7
		c0.1,0.2,0.3,0.5,0.4,0.8c0.3-1,0.5-2,0.8-3c1.6-5.5,10.2-2.8,8.7,2.5c-1.8,6.2-3.4,13.8-2.4,19.6c0.3,1.7,0.8,2.9,1.5,3.8
		c1.7,2,3.4,1.1,5.2-0.4c5.3-4.5,7-11.2,9.9-17.1C329.2,496.5,330,497,329.9,497.5z M304.5,495.5c-0.5-1.4-1.2-2.8-2.4-3.4
		c-1.8-0.9-4.4,1.8-5.2,2.9c-2.4,3.1-2.8,8-2.9,12.1c0,2.3,1,9.5,3.7,7.7c3.1-2.2,4.7-5.9,6-9.6C303.6,502,303.9,498.7,304.5,495.5z
		"/>
	<path class="st0" d="M390.8,498.2c-2.2,6.9-4.1,14.5-9.4,19.8c-4.5,4.6-12.1,7.3-16.5,1.1c-2.3-3.2-2.4-7.4-2.8-11.2
		c-0.4-4.3-0.6-8.3-0.3-12.6c0-0.5,0.2-1.3-0.1-1.7c-0.9-1.3-2.5,0.2-3.2,0.9c-1.3,1.4-2.2,3.3-3,5c-0.9,1.7-1.6,3.5-2.3,5.3
		c-0.6,1.5-1,3.1-1.8,4.5c0,0.1,0,0.1,0,0.2c-1.1,5.1-8.9,3.4-8.8-1.4c0-0.6,0.1-1.3,0.2-1.9c0-0.1,0-0.3,0-0.4
		c0.1-1,0.2-1.9,0.2-2.9c0.2-2.4,0.2-4.8,0.2-7.3c0-2.2,0.3-4.5-0.1-6.6c-0.1-0.3-0.3-1.3-0.6-1.7c-0.7-0.6-1.7,0.6-2.2,1.3
		c-2.6,3.8-3.6,9-4.7,13.4c-0.6,2.3-1,4.6-1.8,6.8c0.1,3,0.5,7-1.8,8.8c-1.7,1.3-3.7,1.3-5.3-0.2c-2.7-2.5-1.8-6.9-1.8-10.3
		c0-3.4,0-6.9,0.2-10.3c0.4-5.7,8.4-5.2,8.7,0.3c0,0.9,0.1,1.8,0.1,2.7c1.3-5.4,5.6-22.9,13.9-15c3.3,3.1,4.2,8.5,4.3,12.8
		c0,1.3,0.1,2.7,0,4.2c0.3-0.8,0.7-1.5,1-2.2c1.3-2.9,2.4-6.6,5-8.6c2.4-1.9,5.3-1.8,7.7,0c3.2,2.4,4,6.7,4.5,10.4
		c0.5,3.8,0.4,8,1.3,11.7c0.6,2.5,2.1,5.7,5.3,4.8c3.6-1,5.7-5.4,7.2-8.5c1.8-3.7,3.7-7.6,4.5-11.7
		C388.9,496.2,391.2,496.9,390.8,498.2z"/>
	<path class="st0" d="M413.1,497.5c-0.7,3.6-2.4,7.3-4.2,10.5c-1.3,2.5-2.8,5-4.8,7c-2.3,2.4-6.7,5.2-10.1,4
		c-4.4-1.5-6.2-5.9-6.8-10.1c-1-6.7,0.2-13.8,2-20.3c1.6-5.5,10.2-2.8,8.7,2.5c-1.8,6.2-3.4,13.8-2.4,19.6c0.3,1.7,0.8,2.9,1.5,3.8
		c1.7,2,3.4,1.1,5.2-0.4c5.3-4.5,7-11.2,9.9-17.1C412.4,496.5,413.2,497,413.1,497.5z M391.4,479.7c0-0.6,0.1-1.1,0.3-1.6
		c0.2-0.5,0.4-1,0.9-1.4c0.8-0.8,1.9-1.2,3-1.2c1.2,0,2.2,0.6,3.1,1.3c0.9,0.8,1.3,1.9,1.3,3.1c0,0.6-0.1,1.1-0.3,1.6
		c-0.2,0.5-0.4,1-0.9,1.4c-0.8,0.8-1.9,1.2-3,1.2c-1.2,0-2.2-0.6-3.1-1.3C391.9,482,391.5,480.8,391.4,479.7z"/>
	<path class="st0" d="M442.8,499.2c-2.5,5.8-5.5,12-10.1,16.5c-3.7,3.6-9.3,6-13.6,2.2c-3.4-3.1-5.2-7.5-6.6-11.8
		c-1.8-5.6-2.3-11.4-2.4-17.3c-0.2-11.3,0.5-23.2,4.5-33.9c0.4-1,0.5-1.3,0.3-0.7c0.1-0.3,0.2-0.6,0.4-0.9c0.1-0.2,0.2-0.4,0.3-0.6
		c0.2-0.4,0.4-0.9,0.6-1.3c0.8-1.5,0.8-1.4,1.7-2.5c1.4-1.6,3.4-3,5.3-3.8c6.2-2.9,11.9,2.3,12.1,8.5c0.2,5.8-2.2,11.8-4.6,17
		c-2.8,6.1-6.8,11.5-11.7,16.1c0,2.2,0,4.4,0.2,6.6c0.1,2.5,0.4,5,0.7,7.4c0.3,2.2,0.2,4.3,0.5,6c0.3,1.8,0.8,3.7,1.4,5.4
		c0.4,1,1.3,2.4,1.8,3.1c0.5,0.6,1.1,1.5,1.2,1.5c1.2,0.8,2.5,0.6,3.8,0c2.5-1.1,4.4-3.5,5.9-5.7c2.8-4,4.8-8.4,6.6-12.9
		C441.6,497.1,443.3,498.1,442.8,499.2z M419.1,483.9c4.1-4.4,7.6-9.4,10-14.9c2.2-5.1,5.4-12.3,3.4-17.8c-0.9-2.6-4.3-4.1-6.6-2.3
		c-0.8,0.7-1.3,1.6-1.8,2.6c0,0,0,0.1,0,0.1c0,0,0,0.1,0,0.1c-0.1,0.2-0.2,0.5-0.3,0.7c0-0.1,0-0.1-0.1,0.2c-1.1,3.5-2,7.1-2.6,10.7
		C420.1,470.3,419.3,477,419.1,483.9z"/>
	<path class="st0" d="M478.9,497.5c-4,4-8.5,7.5-12.7,11.2c-0.3,4.5-0.7,9-1.3,13.5c-1.1,9.6-2.4,22-10.8,28.4
		c-2.4,1.8-4.9,3.6-8,2.8c-2.7-0.8-4.9-3-5.9-5.6c-1.7-4.4-0.8-9.7,1.1-13.9c3.4-7.4,9.4-13.8,15.5-19.5c0-0.3,0.1-0.5,0.1-0.8
		c0.3-3.2,0.5-6.4,0.7-9.6c-0.9,3.5-2,6.9-3.5,10.1c-1.4,3.1-5,6.9-8.8,5c-5.1-2.6-6.3-9.9-6.3-15c0-4.7,0.7-9.5,1.7-14.1
		c1.1-5.7,9.7-2.9,8.7,2.5c-0.6,3.3-1.2,6.6-1.5,10c-0.4,3.6-1.2,8.2,0.2,11.6c0.5,1.3,1.2,2.2,2.4,1.1c1.2-1,2-2.6,2.8-4
		c2.5-4.7,3.5-10.2,4.8-15.3c0-0.1,0.1-0.2,0.1-0.3c0.1-1.7,0.1-3.4,0.2-5c0.2-5.9,9.1-5.3,8.9,0.3c-0.1,4.9-0.4,9.7-0.7,14.6
		c3.7-3.3,7.5-6.5,11.6-9C478.7,496,479.4,497,478.9,497.5z M456.4,517.9c-4.9,4.9-9.7,10.4-12.5,16.6c-1.7,3.7-2.3,9.7,0.2,13.1
		c1.9,2.7,4.9,2.4,6.3-0.5c1-1.9,1.6-3.3,2.1-5.4c1-4.2,1.7-8.7,2.4-13C455.5,525.1,456,521.5,456.4,517.9z"/>
</g>
</svg>

