<?xml version="1.0" encoding="utf-8"?>
<!-- Generator: Adobe Illustrator 23.0.5, SVG Export Plug-In . SVG Version: 6.00 Build 0)  -->
<svg version="1.1" xmlns="http://www.w3.org/2000/svg" xmlns:xlink="http://www.w3.org/1999/xlink" x="0px" y="0px"
	 viewBox="0 0 720 720" style="enable-background:new 0 0 720 720;" xml:space="preserve" width="500" height="500">
<style type="text/css">
	.st0{fill:#050002;}
	.st1{fill-rule:evenodd;clip-rule:evenodd;fill:#050002;}
	.st2{fill-rule:evenodd;clip-rule:evenodd;}
	.st3{fill:#221F1F;}
	.st4{fill:#231F20;}
	.st5{fill:#070808;}
	.st6{fill:#211E1F;}
	.st7{fill:#161616;}
	.st8{fill:#131313;}
	.st9{fill:#21201F;}
	.st10{fill:#2C2929;}
</style>
<g>
	<g>
		<path class="st0" d="M455.1,336l135.7-198.3v-13H197.4l-15.9,148.4h25.9c10.4-26.4,25.7-51.4,46.1-75.1
			c20.4-23.7,38.7-37.1,55-40.3c7.9-1.5,16.6-2.5,26.1-3c9.5-0.5,21.3-0.7,35.4-0.7h121L366.3,336H153.1v8.3h466V336H455.1z"/>
	</g>
	<g>
		<path class="st0" d="M153.1,484.3h111.6L160.3,637v13h421.9l17.4-164h-25.9c-6.7,17-16.9,36.6-30.7,58.8
			c-13.8,22.2-28.7,41-44.8,56.3c-7.1,7.2-22.6,12.2-46.3,15.2c-23.7,3-46,4.4-67,4.4H260.3l93.3-136.3h265.5V476h-466V484.3z"/>
	</g>
</g>
</svg>


