<?xml version="1.0" encoding="utf-8"?>
<!-- Generator: Adobe Illustrator 23.0.5, SVG Export Plug-In . SVG Version: 6.00 Build 0)  -->
<svg version="1.1" xmlns="http://www.w3.org/2000/svg" xmlns:xlink="http://www.w3.org/1999/xlink" x="0px" y="0px"
	 viewBox="0 0 720 720" style="enable-background:new 0 0 720 720;" xml:space="preserve" width="500" height="500">
<style type="text/css">
	.st0{fill:#050002;}
	.st1{fill-rule:evenodd;clip-rule:evenodd;fill:#050002;}
	.st2{fill-rule:evenodd;clip-rule:evenodd;}
	.st3{fill:#221F1F;}
	.st4{fill:#231F20;}
	.st5{fill:#070808;}
	.st6{fill:#211E1F;}
	.st7{fill:#161616;}
	.st8{fill:#131313;}
	.st9{fill:#21201F;}
	.st10{fill:#2C2929;}
</style>
<g>
	<g>
		<path class="st0" d="M142.9,472.2c1.8,0,3.3-1.5,3.3-3.3V280.4L382,144.5l235.8,135.9v188.4c0,1.8,1.5,3.3,3.3,3.3
			s3.3-1.5,3.3-3.3V278.5c0-1.2-0.6-2.3-1.7-2.9L383.7,137.8c-0.5-0.3-1.1-0.4-1.7-0.5c-0.6,0-1.2,0.1-1.8,0.5L141.2,275.6
			c-1,0.6-1.7,1.7-1.7,2.9v190.3C139.5,470.7,141,472.2,142.9,472.2z"/>
	</g>
	<g>
		<path class="st0" d="M670.3,568.3l-0.1,0.1c-2,1.5-23.1,16.2-63.1,13.3c-37.3-2.8-51.6,12.3-55.7,18.3c-9.2-1.1-18.1-1.5-26.7-1.2
			c23.3-9.9,44.5-21.2,62.9-33.7c33.3,2.7,58.5-5.3,75.1-23.9c32.6-36.6,20.2-101.5,19.5-104.8c-0.2-1.2-1-2.2-2.2-2.6
			c-1.2-0.4-2.5-0.1-3.4,0.8l-0.3-0.1l-0.4,1.2c0,0.1-0.1,0.1-0.1,0.2l-0.1,0.4c-1.2,2.9-10,21.2-54.2,45.9
			c-45,25.2-40.4,67.5-38.5,78.1c-24.2,16.3-53,30.5-85.7,42.2c-1.3,0.5-2.6,0.9-3.8,1.4c2.6-2.1,5.1-4.3,7.5-6.6
			c22-3.2,38.3-12.3,48.5-27c18.2-26.3,10.4-62.1,10-63.5c-0.2-1.3-1.2-2.3-2.4-2.6c-1.8-0.5-3.6,0.5-4.1,2.3l0,0
			c-0.1,0.4-4.8,14.6-33.7,31.1c-28.6,16.3-25,47.4-23.5,55.4c-13.6,12.3-25.6,20-27.3,21c-7.1,3.2-14,6.5-20.5,10
			c9-5.6,15.7-13,19.9-22c11.5-24.1,1.9-51.9,0.7-55.2c-0.4-1.4-1.7-2.3-3.1-2.4c0,0-0.1,0-0.1,0c-1.8,0-3.3,1.4-3.4,3.2l0,0.2
			c-0.2,1.3-2.2,12-27.3,32.6c-9.7,7.9-15,16.6-15.8,25.7c-0.9,10.5,4.5,18.8,7.6,22.6c-5.4,8.5-10,14.5-11.5,16.4
			c-17,13.2-27.1,25.6-33,35.2c-5.9-9.6-16-22-32.9-35.2c-1.2-1.5-6-7.7-11.5-16.4c3.1-3.8,8.5-12,7.6-22.6
			c-0.8-9.1-6.1-17.7-15.8-25.7c-24.9-20.4-27.1-31.1-27.3-32.6l0-0.2c-0.1-1.8-1.6-3.3-3.4-3.2c-1.4,0-2.7,1-3.1,2.4
			c-1.2,3.3-10.8,31.1,0.7,55.2c4.3,9,10.9,16.3,19.9,21.9c-6.5-3.5-13.3-6.8-20.4-10c-1.7-1.1-13.7-8.7-27.4-21
			c1.5-8.1,5.1-39.1-23.5-55.4c-29.2-16.6-33.6-31-33.7-31.1c-0.5-1.8-2.4-2.8-4.1-2.3c-1.2,0.3-2.2,1.4-2.4,2.6
			c-0.3,1.5-8.2,37.2,10,63.6c10.2,14.8,26.5,23.9,48.5,27c2.4,2.2,5,4.4,7.6,6.6c-1.3-0.5-2.6-0.9-3.8-1.4
			c-32.7-11.7-61.5-25.9-85.7-42.2c2-10.6,6.6-52.9-38.5-78.1c-44.4-24.8-53.2-43.6-54.2-46l-0.1-0.3c0-0.1-0.1-0.1-0.1-0.2
			l-0.4-1.2l-0.3,0.1c-0.9-0.8-2.2-1.2-3.4-0.8c-1.2,0.4-2,1.4-2.2,2.6c-0.6,2.8-13.2,68.3,19.6,104.9c16.6,18.5,41.8,26.5,75,23.8
			c18.4,12.5,39.5,23.8,62.9,33.7c-8.6-0.2-17.5,0.2-26.7,1.2c-4.1-5.9-18.4-21-55.7-18.3c-38.9,2.9-59.9-11-62.9-13.1l-0.3-0.2
			c-1.5-1.1-3.6-0.8-4.7,0.6c-0.7,0.9-0.9,2.2-0.4,3.3c0.9,2.6,17.9,50.5,54.1,59.9c21.2,5.5,44.6-3.1,69.7-25.5
			c31.1-3.8,50.3,1.3,52.3,1.9c9.9,3.5,19.3,7.3,28,11.2l0.1,0.1c9.1,4.1,17.8,8.4,25.7,12.9c-2.8-0.4-5.7-0.8-8.6-1.1
			c-4.3-3.9-29.5-24.9-57.1-7.4c-27,17.1-45.8,12.8-46,12.8c-1.8-0.4-3.6,0.7-4,2.5c-0.3,1.4,0.3,2.8,1.4,3.5
			c1.6,1.1,39,27.5,72.3,20.5c14.1-3,25.4-11.4,33.9-25.1c13.9,1.5,23.5,4.4,25.3,5c3,2,5.9,4.1,8.6,6.2c0.3,0.3,0.6,0.6,1,0.7
			c18.4,14.2,28.1,27.3,33.1,36.6c-3.6,7.3-4.4,12-4.5,12.4c-0.2,0.9,0,1.8,0.5,2.5c0.5,0.7,1.3,1.2,2.2,1.4c0.2,0,0.4,0.1,0.6,0.1
			c0.7,0,1.3-0.2,1.9-0.6c0.7-0.5,1.2-1.3,1.4-2.2c0-0.3,0.4-2.3,1.7-5.6c1.3,3.3,1.6,5.3,1.7,5.6c0.2,0.9,0.6,1.6,1.4,2.2
			c0.6,0.4,1.2,0.6,1.9,0.6c0.2,0,0.4,0,0.6-0.1c0.9-0.2,1.7-0.6,2.2-1.4c0.5-0.7,0.7-1.6,0.5-2.5c-0.1-0.4-0.9-5.1-4.5-12.4
			c5.1-9.2,14.8-22.3,33.2-36.6c0.4-0.2,0.7-0.4,1-0.7c2.7-2.1,5.6-4.1,8.6-6.2c1.8-0.6,11.4-3.4,25.3-5
			c8.4,13.7,19.8,22.2,33.9,25.1c33.3,7,70.7-19.4,72.2-20.5c1.2-0.8,1.8-2.2,1.4-3.6c-0.4-1.8-2.2-2.9-4.1-2.5
			c-0.2,0-19,4.3-46-12.8c-27.7-17.5-52.9,3.5-57.1,7.4c-2.9,0.3-5.7,0.7-8.6,1.1c8-4.5,16.6-8.8,25.8-12.9l0.1,0
			c8.7-3.9,18.1-7.7,28-11.2c2.3-0.7,21.5-5.7,52.3-1.9c25,22.4,48.5,30.9,69.6,25.5c35.7-9.2,52.4-54.8,54.1-59.9
			c0.4-1.1,0.3-2.4-0.4-3.3C673.8,567.5,671.7,567.2,670.3,568.3z M570.8,609.9c46.4,10.1,74.9-8.8,75.2-9c0.7-0.5,1.3-1.2,1.4-2.1
			c0.2-0.9,0-1.8-0.5-2.5c-0.5-0.7-1.2-1.3-2.1-1.4c-0.9-0.2-1.8,0-2.5,0.5c-0.3,0.2-26.8,17.5-70.1,8.1c-4.4-0.9-8.8-1.8-13.1-2.4
			c5.4-5.7,18.6-14.8,47.5-12.7c28.5,2.1,48.2-4.4,58.9-9.6c-6.6,14.4-21.7,40.6-46.6,46.6c-16.6,4.1-34.9-1.6-54.5-16.7
			C566.6,609.1,568.7,609.5,570.8,609.9z M676.9,446.5c2.2,18.3,4.7,63.4-20,90.4c-13.8,15.1-34.2,22.5-60.6,21.8
			c35.5-26.1,47.6-48.1,48.1-49c0.9-1.6,0.3-3.6-1.3-4.5c-0.8-0.4-1.7-0.5-2.5-0.3c-0.9,0.3-1.6,0.8-2,1.6
			c-0.5,0.9-12.7,23.1-49.6,49.3c-1.7-13.1-2-47,35.6-68.1C655.9,470.3,670.4,455.4,676.9,446.5z M535.3,553.2
			c0.8-1.7,0.1-3.7-1.5-4.5c-0.5-0.2-1-0.3-1.5-0.3c-0.4,0-0.7,0.1-1.1,0.2c-0.8,0.3-1.5,0.9-1.9,1.7c-6,12.3-15.3,24.7-27.7,36.9
			c-1.1-11-0.1-32.1,20.9-44c17.2-9.8,26.6-19.1,31.7-26c1.7,18,0.5,59.7-44.5,71.4C521,576.9,529.6,565,535.3,553.2z M438.4,621.4
			c5.9-10.8,10.1-20.9,12.5-30.2c0.5-1.8-0.6-3.6-2.4-4.1c-1.8-0.4-3.6,0.6-4.1,2.4c-2.6,9.9-7.3,20.9-14.3,32.8
			c-4.7-6.9-10.4-21.3,8.7-36.9c14.7-12,22.1-21.2,25.9-27.6C468.4,574.3,470.5,605.9,438.4,621.4z M431.1,633.6
			c0.6-0.9,1.2-1.8,1.7-2.7c3.1-1.1,6.1-2.3,8.8-3.6C438,629.4,434.5,631.5,431.1,633.6z M333.8,622.4
			c-6.9-11.8-11.7-22.9-14.3-32.8c-0.4-1.5-1.8-2.5-3.2-2.5c-0.3,0-0.5,0-0.8,0.1c-1.8,0.5-2.9,2.3-2.4,4.1
			c2.4,9.3,6.6,19.4,12.5,30.2c-32.1-15.5-30-47.1-26.4-63.6c3.8,6.4,11.2,15.6,25.9,27.6C344.2,601.1,338.6,615.5,333.8,622.4z
			 M331.2,630.9c0.6,0.9,1.1,1.8,1.7,2.7c-3.4-2.1-6.9-4.3-10.5-6.3C325.2,628.6,328.1,629.8,331.2,630.9z M230.2,548.7
			c-1.7,0.8-2.3,2.8-1.5,4.5c5.7,11.8,14.4,23.7,25.6,35.3c-45-11.7-46.2-53.4-44.5-71.4c5.1,6.9,14.5,16.2,31.7,26
			c21,12,22,33,20.9,44c-12.4-12.2-21.7-24.6-27.7-36.9C233.9,548.6,231.9,547.9,230.2,548.7z M123.5,504.9
			c-0.9-0.3-1.8-0.2-2.5,0.3c-1.6,0.9-2.2,2.9-1.3,4.5c0.5,1,12.7,23,48.1,49c-26.4,0.6-46.8-6.7-60.6-21.8
			c-24.6-27-22.2-72.2-20-90.4c6.5,8.9,21.1,23.8,52.3,41.3c37.6,21,37.4,54.9,35.6,68.1c-36.9-26.2-49.1-48.4-49.6-49.3
			C125.1,505.7,124.4,505.2,123.5,504.9z M204.9,601c-4.4,0.7-8.8,1.5-13.1,2.4c-43.3,9.4-69.8-7.9-70.1-8.1c-1.5-1-3.6-0.6-4.6,1
			c-0.5,0.7-0.7,1.6-0.5,2.5c0.2,0.9,0.7,1.6,1.4,2.1c0.3,0.2,29,19.1,75.2,9c2.1-0.5,4.2-0.9,6.4-1.3
			c-19.6,15.1-37.9,20.8-54.5,16.7c-24.9-6.1-40-32.2-46.6-46.6c10.8,5.2,30.4,11.7,58.9,9.6C186.3,586.2,199.6,595.3,204.9,601z
			 M260.2,634c-1.8,0.4-2.9,2.2-2.6,4c0.2,0.9,0.7,1.6,1.4,2.1c0.8,0.5,1.6,0.6,2.5,0.5c13.1-2.8,26.9-3.8,41.1-2.9
			c-10.8,15.7-26.5,22.3-46.6,19.7c-14.8-1.9-28.9-8.5-37.8-13.5c9.5-0.9,22.7-4.2,38.1-14c16.5-10.5,31.9-5,41.4,0.9
			C284.9,630.4,272.2,631.4,260.2,634z M502.4,640.6c0.9,0.2,1.8,0,2.5-0.5c0.8-0.5,1.3-1.2,1.5-2.1c0.4-1.8-0.8-3.6-2.6-4
			c-12-2.6-24.7-3.7-37.7-3.2c9.6-6,24.9-11.4,41.4-0.9c15.5,9.8,28.7,13.2,38.1,14c-9,5-23,11.5-37.8,13.5
			c-20.1,2.6-35.8-4-46.6-19.7C475.5,636.8,489.3,637.7,502.4,640.6z"/>
	</g>
</g>
<g>
	<path class="st0" d="M354.1,291.9c-0.5-0.1-1-0.3-1.4-0.4c-0.4-0.1-0.7-0.3-1.1-0.5c-1.9-1.2-3.6-3.6-4.9-7.2
		c-1.9-5.1-3.3-12.5-4.3-22.1c-0.4-3.7-0.6-7.1-0.8-10.3c-0.1-3.1-0.2-7-0.2-11.6v-4.6l-0.1-1.2c0,0-0.1-0.1-0.2-0.1
		c-0.1,0-0.1,0-0.2,0c-0.1,0-0.4,0.1-0.9,0.2c-0.5,0.1-1.2,0.3-1.9,0.5c-4.3,1.2-8.4,2.5-12.4,3.9c-3,1.1-4.9,1.6-5.6,1.7h-0.2
		c-0.3,0-0.6-0.1-0.8-0.3c0-0.1-0.1-0.2-0.2-0.3c-0.1-0.1-0.1-0.2-0.2-0.3c-0.1-0.2-0.2-0.3-0.3-0.5c-0.1-0.2-0.2-0.3-0.3-0.4
		c-0.2-0.3-0.3-0.5-0.3-0.8c-0.1-0.2-0.1-0.4-0.1-0.6v-0.4c0-0.9,0.3-1.4,1-1.6c1.1-0.4,3.6-1,7.4-1.9c3.8-0.9,7.9-1.8,12.3-2.7
		l1.3-0.3c0.7-0.2,1.1-0.3,1.3-0.3c0.1,0,0.2-0.1,0.3-0.2c0-0.1,0.1-0.3,0.2-0.6c0.1-0.3,0.1-0.7,0.2-1.2c0.3-2.2,0.7-4.5,1.1-6.9
		c0.4-2.5,0.8-4.6,1.3-6.5c0.3-1.3,0.6-2.2,0.8-2.8c0.2-0.6,0.5-1,0.8-1.2c0.3-0.3,0.7-0.4,1.1-0.4c0.5,0,1,0.3,1.6,0.8
		c0.2,0.2,0.4,0.3,0.5,0.4c0.1,0.1,0.3,0.1,0.4,0.2c0.1,0,0.3,0.1,0.5,0.1h0.1c0.5,0,0.9,0.1,1.2,0.2c0.3,0.1,0.6,0.3,0.9,0.6
		c0.4,0.4,0.6,0.8,0.8,1.2c0.1,0.4,0.2,1,0.2,1.7c0,0.3,0,0.5,0,0.6c0,0.2,0,0.4-0.1,0.6c0,0.2-0.1,0.5-0.3,0.9
		c-0.3,1.1-0.6,2.5-1,4.2c-0.3,1.7-0.6,3.3-0.9,5c-0.1,0.4-0.1,0.7-0.1,0.9c0,0.1,0,0.3,0,0.3v0.2c0,0.1,0.1,0.1,0.3,0.1
		c0.1,0,0.7-0.1,1.9-0.2c1.2-0.1,2.8-0.4,4.8-0.7c10.6-1.5,17.1-2.3,19.5-2.3c0.4,0,0.7,0,0.9,0s0.3,0,0.4,0s0.2,0.1,0.3,0.1
		c0.3,0.1,0.4,0.3,0.4,0.4c0,0,0,0.1-0.1,0.2c-0.1,0.2-0.4,0.4-1.1,0.6s-1.7,0.4-3.3,0.6c-5.4,0.8-11,1.7-16.7,2.9
		c-1,0.2-2.1,0.4-3.2,0.7c-1.1,0.2-2,0.4-2.9,0.6c-0.8,0.2-1.3,0.3-1.5,0.3c-0.1,0-0.2,0.1-0.2,0.1s-0.1,0.1-0.2,0.1
		c0,0.1-0.1,0.3-0.1,0.5c0,0.3-0.1,0.6-0.2,1c-0.1,0.4-0.2,1-0.3,1.6c-0.1,0.5-0.2,1-0.3,1.4c-1.4,7.6-2.3,14.8-2.5,21.9
		c0,1.2-0.1,2.3-0.1,3.5c0,6,0.5,11.5,1.4,16.4c1,5.3,2.4,8.9,4.1,11c0.4,0.4,0.7,0.7,0.9,0.8c0.2,0.1,0.3,0.1,0.5,0.1
		c0.3,0,0.5-0.1,0.8-0.3c1.3-0.6,2.5-1.9,3.8-3.8c2.2-3.2,5.2-10.1,9-20.9c0.4-1.1,0.7-1.9,0.9-2.5c0.2-0.6,0.4-1,0.5-1.4
		c0.1-0.3,0.3-0.6,0.4-0.9c0.2-0.3,0.3-0.5,0.5-0.8c0.2-0.2,0.3-0.3,0.4-0.3c0.3,0,0.4,0.2,0.4,0.7c0,0.4-0.1,0.9-0.3,1.5
		c-0.2,0.7-0.7,2.1-1.4,4.3c-0.7,2.2-1.4,4.3-2,6.3c-2.2,6.6-4,11.4-5.4,14.4s-2.8,4.8-4.1,5.4c-0.5,0.3-0.9,0.4-1.2,0.4
		c-0.3,0-0.5,0-0.6,0C355.2,292.1,354.7,292,354.1,291.9z"/>
	<path class="st0" d="M373.1,288.4c-0.1,0-0.2,0-0.4-0.1c-0.2,0-0.4-0.1-0.5-0.1c-0.4,0-0.8-0.1-1-0.2c-0.3-0.1-0.6-0.3-0.9-0.5
		c-0.4-0.3-0.7-0.7-1-1.3s-0.4-1.5-0.6-2.9c-0.1-1-0.2-2.1-0.3-3.5c-0.1-1.3-0.2-3.1-0.3-5.4c0-0.8-0.1-2.3-0.1-4.3s0-4.1,0-6.1
		s0-3.6,0.1-4.6c0.3-6.7,0.8-12.7,1.6-18.1c0.6-3.7,1.4-7.4,2.3-11.1c1.5-5.7,3.3-10.7,5.4-15c2.1-4.1,4.1-6.5,6.2-7.3
		c0.2-0.1,0.4-0.1,0.6-0.2c0.2,0,0.4-0.1,0.6-0.1h0.3c0.2,0,0.4,0,0.6,0.1c0.3,0,0.5,0.1,0.8,0.3c0,0,0.1,0,0.1,0.1
		c0.1,0,0.2,0.1,0.3,0.2c0.1,0.1,0.3,0.1,0.3,0.2c1,0.3,1.7,0.8,2,1.5c0.2,0.3,0.3,0.6,0.3,1c0.1,0.3,0.1,0.8,0.1,1.3v0.6
		c0,1.6-0.3,3.5-0.8,5.9c-1.1,5.2-2.9,10.5-5.3,16.1c-2.4,5.6-5,10.4-7.8,14.3c-0.4,0.5-0.8,1-1.1,1.3c-0.3,0.4-0.7,0.8-1.1,1.2
		c-0.3,0.3-0.5,0.5-0.6,0.7c-0.2,0.2-0.3,0.3-0.3,0.4c-0.1,0.2-0.2,0.8-0.3,1.9c-0.1,1.1-0.3,2.4-0.4,3.9c-0.1,1.5-0.3,3-0.4,4.6
		c-0.2,2.6-0.3,5.2-0.3,7.9v1.6c0,3.2,0.2,5.8,0.4,7.9c0,0.5,0.1,0.8,0.2,1s0.1,0.3,0.2,0.3h0.1c0,0,0.1-0.1,0.2-0.3
		c0.1-0.2,0.2-0.4,0.3-0.6c0-0.1,0.2-0.5,0.4-1.1c0.3-0.8,0.6-1.7,1-2.8c0.8-2.2,1.3-3.9,1.7-5c0.4-1.1,0.9-2.3,1.4-3.6
		c1-2.5,2-4.7,3-6.7c1-2,1.9-3.4,2.7-4.2c0.5-0.5,1-0.8,1.5-0.8c0.3,0,0.5,0.1,0.8,0.2c0.3,0.2,0.7,0.3,1,0.3c0.5,0,1,0.2,1.5,0.4
		c0.4,0.2,0.8,0.5,1.3,1c0.4,0.3,0.7,0.7,1,1.1c0.3,0.4,0.5,0.9,0.8,1.5c0.2,0.3,0.3,0.6,0.4,0.9c0.1,0.3,0.3,0.7,0.5,1.2
		c0.2,0.5,0.5,1.2,0.8,2.2c0.3,0.8,0.5,1.4,0.7,1.8c0.2,0.4,0.3,0.8,0.4,1c0.1,0.3,0.2,0.5,0.4,0.8c0,0,0,0.1,0.1,0.2
		c0.7,1.4,1.4,2.5,2.2,3.2c0.3,0.3,0.6,0.5,0.8,0.6c0.2,0.1,0.3,0.1,0.5,0.1c0.2,0,0.5-0.1,0.8-0.2c2.2-0.6,4.7-3.3,7.7-8
		c0.3-0.5,0.7-1.1,1.1-1.8s0.7-1.2,1-1.8c0.3-0.5,0.5-0.8,0.6-1.1c0.2-0.3,0.3-0.5,0.5-0.7c0.3-0.3,0.5-0.5,0.8-0.5
		c0.2,0,0.3,0.1,0.4,0.2s0.2,0.3,0.2,0.6c0,0.3-0.1,0.6-0.2,1c-0.4,1.2-1.1,2.7-2.2,4.7c-1,1.9-2,3.7-3,5.3
		c-0.8,1.2-1.6,2.2-2.2,2.8c-0.6,0.7-1.3,1.1-1.9,1.4c-0.2,0.1-0.4,0.2-0.6,0.3c-0.2,0.1-0.3,0.1-0.4,0.2c-0.2,0-0.4,0.1-0.7,0.1
		c-0.4,0-0.9,0-1.5-0.1c-0.9-0.1-1.7-0.3-2.4-0.6c-1.8-0.8-3.5-2.3-5.1-4.6c-1-1.4-2.2-3.7-3.5-7c-0.2-0.5-0.4-0.9-0.6-1.3
		c-0.2-0.4-0.3-0.6-0.4-0.9c-0.1-0.2-0.2-0.4-0.2-0.4c-0.1-0.1-0.1-0.1-0.2-0.2c0,0-0.1-0.1-0.1-0.1h-0.1c-0.1,0-0.2,0-0.3,0.1
		c-0.1,0.1-0.3,0.2-0.4,0.4c-1.1,1.4-2.4,3.8-3.8,7.3c-1.2,3-2.5,7.3-3.9,12.8c-0.4,1.5-0.7,2.7-0.9,3.5s-0.4,1.4-0.6,1.9
		c-0.2,0.4-0.3,0.8-0.4,1.1c-0.5,0.8-1,1.1-1.6,1.1C373.4,288.5,373.3,288.5,373.1,288.4z M374,247.7c0.3-0.4,0.9-1.2,1.7-2.6
		s1.6-2.6,2.3-3.8c0.5-0.9,1.1-2,1.8-3.4c0.7-1.4,1.3-2.6,1.7-3.5c2.7-6,4.5-11.4,5.4-16.2c0.2-0.8,0.3-1.5,0.3-2.1
		c0.1-0.6,0.1-1.2,0.2-1.8v-0.5c0-1.5-0.2-2.3-0.6-2.3c-0.2,0-0.7,0.5-1.5,1.5c-1.9,2.5-3.8,6.1-5.7,11c-0.8,2-1.6,4.4-2.4,7.1
		c-0.8,2.7-1.5,5.3-2.1,7.8c-0.1,0.6-0.3,1.4-0.5,2.4c-0.2,1-0.4,2-0.6,3c-0.2,1-0.3,1.8-0.4,2.3c-0.1,0.5-0.2,0.9-0.2,1.1
		c0,0.2,0,0.3,0.1,0.3C373.7,247.9,373.9,247.9,374,247.7z"/>
	<path class="st0" d="M416.8,283.7c-0.3,0-0.6-0.1-0.9-0.2c-0.3-0.1-0.6-0.2-0.9-0.4c-3.8-1.9-6-6-6.8-12.3c0-0.5-0.1-1.1-0.1-1.9
		c0-0.8,0-1.4,0-1.8l0.1-1.5c0-1,0-1.7,0.1-2.2c0.4-3.4,1.1-6.5,2-9.2c1.7-5.1,3.7-8.2,6.1-9.4c0.5-0.3,1.1-0.4,1.6-0.4
		c0.6,0,1.2,0.2,1.7,0.6c0.1,0.1,0.3,0.2,0.4,0.3c0.2,0.1,0.3,0.1,0.5,0.2c0.3,0.1,0.5,0.2,0.8,0.3c0.2,0.1,0.4,0.2,0.6,0.4
		c0.5,0.5,0.8,1.4,0.8,2.6c0,1.1-0.2,2.4-0.6,4c-1.1,4.5-3,8.3-5.6,11.3c-0.8,1-1.8,1.8-2.8,2.2c-0.3,0.1-0.4,0.2-0.6,0.3
		c-0.1,0.1-0.2,0.2-0.3,0.3c0,0.1-0.1,0.2-0.1,0.4c0,0.4-0.1,0.9-0.1,1.5v1c0,1.1,0.1,2.2,0.2,3.2c0.4,2.9,1.1,5.2,2.3,7
		c0.4,0.5,0.8,1,1.2,1.4c0.4,0.4,0.9,0.6,1.2,0.7c0.6,0,1.4-0.3,2.3-1c1-0.7,1.9-1.5,2.9-2.6c1.2-1.6,2.7-3.9,4.4-7.1
		c1.7-3.2,3.3-6.3,4.6-9.3c0.4-0.8,0.7-1.4,0.9-1.7c0.2-0.3,0.4-0.6,0.5-0.7c0.2-0.2,0.3-0.3,0.4-0.3c0.1,0,0.2,0,0.3,0.1
		c0.1,0.1,0.2,0.3,0.2,0.5c0,0.1,0,0.3-0.1,0.4c-0.1,0.6-0.6,1.9-1.4,3.9c-0.8,2-1.8,4.1-2.8,6.4c-1,2.3-1.9,4.1-2.7,5.7
		c-0.8,1.4-1.4,2.6-2,3.5c-0.6,0.9-1.2,1.6-1.8,2.2c-1,1.1-2.1,1.7-3.2,1.9c-0.4,0.1-1,0.1-1.6,0.1
		C417.9,283.8,417.3,283.8,416.8,283.7z M414,262.4c0.2-0.1,0.4-0.4,0.8-0.9c0.4-0.5,0.7-1,1-1.5c0.9-1.4,1.8-3,2.5-4.7
		c0.7-1.7,1.2-3.2,1.5-4.6c0.1-0.6,0.2-1,0.2-1.3c0-0.3-0.1-0.4-0.2-0.4c-0.1,0-0.2,0.1-0.4,0.4c-0.9,0.9-1.8,2.3-2.7,4.1
		c-0.9,1.8-1.7,3.6-2.3,5.4c-0.5,1.7-0.8,2.8-0.8,3.3l0.1,0.1c0,0.1,0,0.1,0.1,0.1C413.7,262.5,413.8,262.5,414,262.4z"/>
</g>
<g>
	<path class="st0" d="M295.8,519.8c-1-0.2-1.9-0.6-2.8-1.2c-2-1.7-3.8-4.7-5.3-9c-1.5-4.3-2.6-9.7-3.4-16.2
		c-0.6-5.3-0.9-10.7-0.9-16.3c0-4.6,0.2-9.2,0.6-14.1c0.8-9,2.4-17.3,4.8-24.8c1.4-4.4,2.9-7.7,4.4-9.8c0.3-0.4,0.6-0.8,1.1-1.2
		c0.4-0.4,0.8-0.7,1.1-0.9c0.6-0.4,1.2-0.7,1.9-0.7c0.7,0,1.3,0.3,2,0.8c0.2,0.2,0.6,0.3,1,0.4c0.4,0.1,0.7,0.3,1,0.4
		c0.3,0.1,0.5,0.3,0.8,0.6c0.6,0.6,1,1.3,1.1,2.1c0.1,0.9,0.2,1.7,0.2,2.5s-0.1,1.8-0.2,2.9c0,0.5-0.1,1-0.1,1.6
		c0,0.6-0.1,1.1-0.1,1.5c0,0.5,0,0.9-0.1,1.2c0,0.2-0.1,0.4-0.2,0.6c-0.1,0.1-0.2,0.2-0.3,0.2c-0.1,0-0.3,0.1-0.4,0.1
		s-0.3,0-0.5-0.1c-0.3-0.2-0.5-0.4-0.7-0.8c-0.1-0.1-0.1-0.3-0.1-0.7c0-0.3,0-0.7,0.1-1.2c0.1-0.8,0.1-1.6,0.1-2.3
		c0-1.4-0.1-2.6-0.4-3.8c-0.2-0.6-0.3-0.9-0.5-0.9H300c-0.2,0.1-0.6,0.5-1.1,1.3c-1.2,2-2.3,4.1-3.3,6.4c-1.5,3.5-2.9,7.8-4.1,12.8
		c-1.1,4.5-2.1,9.3-2.7,14.2c-0.2,1.4-0.4,2.9-0.5,4.6c-0.2,1.6-0.3,3-0.4,4.2s-0.1,1.9-0.1,2.2c0,0.1,0.1,0.1,0.1,0.2
		c0,0,0.1,0.1,0.2,0.1s0.3,0,0.6-0.1c0.3,0,0.6-0.1,1.1-0.2c1.3-0.2,2.4-0.5,3.2-0.7c0.9-0.2,1.7-0.5,2.5-0.8
		c4.6-1.6,8.7-4.3,12.2-7.9c0.3-0.3,0.6-0.6,0.8-0.8c0.2-0.2,0.3-0.3,0.4-0.4s0.2-0.1,0.2-0.1c0.1,0,0.2-0.1,0.2-0.1
		c0.1,0,0.2,0,0.2,0.1c0.1,0,0.2,0.1,0.2,0.2c0,0.1,0.1,0.2,0.1,0.2c0,0.6-0.9,1.9-2.8,3.7c-3.2,3.3-6.1,5.5-8.7,6.7
		c-2.7,1.3-5.5,2.2-8.3,2.4c-0.2,0-0.4,0.1-0.5,0.1c-0.2,0-0.3,0-0.3,0c-0.1,0-0.1,0.1-0.1,0.2c0,0.1,0.1,0.3,0.4,0.7
		c2.4,2.9,4.4,5.9,6.2,9c0.6,1,1.2,2.2,1.8,3.5c0.7,1.3,1.2,2.5,1.6,3.5c1.6,4.1,2.6,8,3,11.7c0,0.4,0.1,1,0.1,1.7s0,1.5,0,2.2
		c0,0.7,0,1.3-0.1,1.6c-0.3,2.5-0.9,4.3-1.8,5.2c-0.4,0.4-0.8,0.7-1.2,0.9c-0.4,0.2-1,0.3-1.8,0.3H295.8z M296.7,517.3
		c0.9-1,1.6-2.6,2-4.9c0.2-1.1,0.2-2.3,0.2-3.6c0-1.5-0.1-3.2-0.4-4.8c-0.7-4.5-2.4-9.2-5.1-14.1c-1-1.9-2.1-3.8-3.2-5.5
		c-1.1-1.8-1.9-2.9-2.3-3.3c-0.1-0.1-0.1-0.1-0.2-0.2c0,0-0.1,0-0.1,0l-0.1,0.1c0,0,0,0.1,0,0.1c0,0,0,0.1,0,0.3s0,0.3,0,0.6
		c0,0.3,0,0.6,0,1c0,0.4,0,0.9,0,1.6c0,6.4,0.4,11.9,1.3,16.5c0.8,5,2,9.1,3.6,12.2c1,1.9,2,3.2,2.9,4c0.3,0.2,0.5,0.3,0.7,0.3h0.1
		C296.3,517.6,296.5,517.5,296.7,517.3z"/>
	<path class="st0" d="M334.2,500.8c-0.6-0.1-1.2-0.3-1.7-0.7c-1.8-1-3.2-3-4.3-5.8c-2-5.5-3-12.5-3-21c0-4.6,0.3-9.6,0.9-15.1
		c0.1-0.7,0.2-1.3,0.2-1.8c0.1-0.5,0.1-0.8,0.1-1.1c0-0.3,0-0.4,0-0.5s0-0.2-0.1-0.2c-0.2,0-0.8,1-1.8,3.1c-1.2,2.4-2.4,4.9-3.5,7.6
		c-1.1,2.6-2.4,6-4,10.2c-0.4,1.3-0.8,2.4-1.2,3.1c-0.3,0.8-0.6,1.5-0.9,2c-0.6,1.2-1.1,2-1.6,2.4c-0.4,0.4-0.9,0.7-1.5,0.7
		c-0.3,0-0.6-0.1-0.9-0.2c-0.1,0-0.3-0.1-0.4-0.1c-0.2,0-0.3-0.1-0.4-0.1c-1-0.1-1.8-0.5-2.5-1.3c-0.4-0.3-0.7-0.7-0.9-1.2
		c-0.2-0.4-0.3-1.1-0.5-1.8c0-0.3-0.1-0.8-0.1-1.5c0-0.7,0-1.3,0-2c0-0.7,0-1.2,0.1-1.7c0.5-4.6,1.5-8.5,3.2-11.8
		c1.1-2.2,2.3-3.6,3.6-4.3c0.3-0.2,0.6-0.3,0.8-0.4c0.3-0.1,0.6-0.1,0.9-0.1c0.3,0,0.6,0,0.8,0.1c0.3,0.1,0.6,0.2,0.9,0.4
		c0.2,0.1,0.3,0.2,0.6,0.3c0.2,0.1,0.5,0.1,0.9,0.2c0.8,0.1,1.5,0.5,2,1.2c0.1,0.2,0.2,0.4,0.3,0.4h0.1c0.1,0,0.1,0,0.2-0.1
		c0,0,0.1-0.2,0.3-0.4c0.1-0.2,0.3-0.5,0.5-0.9c1.8-3.5,3.3-6.2,4.6-8.1c0.4-0.6,0.7-1,0.9-1.3c0.2-0.3,0.4-0.4,0.5-0.5
		c0.1-0.1,0.2-0.1,0.4-0.1c0.1,0,0.3,0.1,0.5,0.2c0.1,0.1,0.3,0.1,0.4,0.2c0.2,0,0.3,0.1,0.4,0.1c0.3,0.1,0.5,0.2,0.6,0.2
		c0.1,0.1,0.3,0.2,0.5,0.3c0.4,0.3,0.7,0.8,0.9,1.3c0.2,0.4,0.3,0.8,0.3,1.3c0.1,0.5,0.1,1.1,0.1,1.9c0,0.5,0,1,0,1.5
		c0,0.5-0.1,1.1-0.2,2c-0.1,0.9-0.3,2.1-0.5,3.7c-0.2,2.3-0.4,4.1-0.6,5.4s-0.3,2.4-0.3,3.2c-0.1,0.9-0.2,1.8-0.2,2.9
		c-0.2,2.3-0.2,4.6-0.2,6.7c0,2.2,0.1,4.2,0.2,6.2c0.4,4.3,1.2,7.7,2.4,10.2c0.3,0.7,0.7,1.3,1,1.8c0.4,0.5,0.7,0.8,0.9,0.9
		c0.1,0,0.2,0.1,0.2,0.1c0.3,0,0.6-0.2,1-0.5c0.8-0.6,1.6-1.6,2.4-2.9c1.2-1.8,2.4-4.6,3.7-8.3s2.8-9,4.7-15.9
		c0.5-1.8,0.9-3.1,1.1-3.8c0.3-0.7,0.5-1.2,0.8-1.5c0.2-0.2,0.3-0.2,0.4-0.2s0.2,0.1,0.3,0.2c0,0.1,0.1,0.3,0,0.6
		c0,0.3-0.1,1-0.3,1.8c-0.2,0.9-0.5,2.1-0.8,3.8s-0.9,3.8-1.5,6.5c-2,8.5-3.5,13.8-4.3,15.9c-1.3,3.7-2.9,5.7-4.9,6.2
		c-0.3,0-0.7,0.1-1.1,0.1c-0.4,0-0.7,0-0.9,0H334.2z M311.7,477.4c0.1-0.2,0.4-0.6,0.8-1.3c0.4-0.7,0.8-1.3,1.2-2.1
		c0.3-0.6,0.8-1.5,1.4-2.7c0.6-1.2,1.3-2.5,1.9-3.8s1.2-2.5,1.7-3.5c0.5-1,0.7-1.6,0.7-1.7v-0.1c0-0.1,0-0.1-0.1-0.2
		c0-0.1-0.2-0.1-0.5-0.2c-0.2,0-0.3-0.1-0.3-0.1c-0.1,0-0.1,0-0.2,0c0,0-0.1,0.1-0.2,0.1c-0.3,0.2-0.7,0.6-1.3,1.4
		c-0.6,0.8-1.2,1.6-1.7,2.4c-1.7,2.8-2.9,5.9-3.6,9.5c-0.1,0.6-0.1,1-0.2,1.4c0,0.4-0.1,0.6-0.1,0.7v0.3c0,0.1,0,0.1,0.1,0.1
		C311.4,477.7,311.5,477.6,311.7,477.4z"/>
	<path class="st0" d="M392.8,497.9c-1.2-0.2-2.2-0.8-3-1.7c-1.7-2-2.5-6.6-2.5-13.9c0-1.6,0-3.3,0.1-5.2c0.2-5.9,0.8-13.3,1.6-22.2
		c0.2-2.1,0.4-3.6,0.5-4.6s0.1-2.1,0.2-3.3c0-0.5,0.1-1,0.1-1.3c0-0.3,0-0.6-0.1-0.7c-0.1-0.3-0.2-0.4-0.3-0.4h-0.1
		c-0.1,0-0.3,0.1-0.6,0.4c-0.3,0.3-0.6,0.6-0.9,0.9c-0.3,0.3-0.6,0.7-0.9,1c-3.2,4.4-6.2,10.6-9,18.4c-0.8,2.1-1.5,4.6-2.3,7.7
		c-0.4,1.5-0.7,2.6-1,3.3s-0.5,1.1-0.8,1.3c-0.1,0.2-0.3,0.3-0.4,0.3c-0.1,0-0.3,0.1-0.5,0.1c-0.1,0-0.3,0-0.5,0
		c-0.2,0-0.4,0.1-0.5,0.1h-1.2c-0.4-0.1-0.8-0.2-1.2-0.5c-0.6-0.3-1.1-0.8-1.6-1.6c-0.4-0.8-0.9-1.9-1.3-3.5
		c-0.2-0.7-0.4-1.5-0.6-2.2s-0.3-1.5-0.5-2.4c-0.1-0.7-0.2-1.1-0.3-1.4c-0.1-0.3-0.2-0.4-0.2-0.4c-0.2,0-0.4,0.5-0.8,1.5
		c-1,2.5-2.3,7-3.8,13.5c-0.5,1.9-0.9,3.3-1.1,4.1c-0.3,0.8-0.6,1.4-0.9,1.7c-0.2,0.2-0.3,0.3-0.4,0.4c-0.1,0.1-0.3,0.1-0.6,0.2
		c-0.3,0-0.7,0-1.3,0c-0.4,0-0.8-0.1-1-0.1s-0.4,0-0.5-0.1c-0.1,0-0.3-0.1-0.5-0.1c-0.5-0.2-1-0.5-1.6-0.9c-1.8-1.6-3.3-6-4.6-13.1
		c-0.6-3.5-1.1-7.2-1.4-11c-0.1-0.9-0.1-1.8-0.1-2.9c0-1.1,0-1.9,0.1-2.4c0.3-1.7,0.9-2.7,1.7-3l0.2-0.1l0.2,0.1
		c0.2,0,0.5,0.1,0.8,0.3l0.6,0.3l0.4-0.1c0.2,0,0.5-0.1,0.7-0.1c1.3,0,2.1,0.8,2.5,2.5c0.2,0.8,0.4,1.7,0.5,2.7
		c0.1,1,0.2,2.7,0.2,5.1c0,1.9,0.1,3.4,0.2,4.6c0.1,1.2,0.1,2.4,0.2,3.4c0.1,1.9,0.3,3.6,0.4,5.2c0.2,1.5,0.3,2.4,0.4,2.7
		c0.1,0.1,0.1,0.1,0.2,0.1c0.1,0,0.1,0,0.2-0.1c0-0.1,0.1-0.3,0.3-0.7c0.2-0.4,0.4-1.1,0.8-2c0.3-1,0.8-2.3,1.4-4
		c1.7-4.9,3-8.5,4.1-10.8c0.5-1,0.9-1.7,1.1-2.1c0.2-0.4,0.5-0.6,0.8-0.7c0.1,0,0.3,0,0.4,0c0.1,0,0.3,0.1,0.6,0.2
		c0.1,0,0.2,0.1,0.2,0.1c0.1,0,0.2,0,0.3,0.1c0.1,0,0.3,0,0.5,0c0.4,0,0.8,0,1,0.1c0.2,0.1,0.5,0.2,0.8,0.3c0.7,0.5,1.4,1.6,1.9,3.1
		c0.2,0.4,0.3,0.9,0.5,1.6c0.1,0.7,0.4,1.7,0.6,3.2c0.2,0.8,0.3,1.4,0.4,1.9c0.1,0.5,0.2,0.8,0.2,1.1c0.1,0.2,0.1,0.4,0.2,0.5
		c0,0.1,0.1,0.1,0.1,0.2c0,0,0.1,0,0.2-0.1c0.1,0,0.1-0.2,0.2-0.3c0.1-0.2,0.2-0.4,0.3-0.8c0.1-0.3,0.3-0.8,0.6-1.4
		c0.2-0.6,0.5-1.3,0.9-2.2c1.1-3.1,2.1-5.6,2.9-7.5c3.8-8.6,7.4-14.6,10.7-18c0.5-0.4,0.9-0.7,1.1-0.8c0.2-0.1,0.4-0.1,0.5-0.1
		c0.2,0,0.5,0.1,0.8,0.2c0.1,0.1,0.3,0.2,0.4,0.2c0.2,0.1,0.3,0.1,0.5,0.1c0.8,0.1,1.5,0.5,2.1,1.2c0.8,0.8,1.4,2.2,1.6,4.1
		c0,0.2,0.1,0.5,0.1,0.7c0,0.2,0,0.5,0,0.9c0,0.3,0,0.8,0,1.5c0,1.3,0,2.5-0.1,3.6c-0.1,1.1-0.2,2.6-0.5,4.5s-0.6,4.4-1.1,7.7
		c-0.4,3.1-0.8,5.5-1,7.1c-0.2,1.6-0.4,3.2-0.5,4.9c-0.2,1.8-0.3,3.3-0.4,4.7c-0.1,1.3-0.1,2.6-0.1,3.9c0,4.1,0.4,6.7,1.2,8
		c0.4,0.8,0.7,1.2,1,1.2c0.1,0,0.3-0.1,0.5-0.2s0.6-0.3,0.9-0.6c0.3-0.2,0.7-0.6,1.2-1.1c0.5-0.5,0.9-1,1.2-1.4
		c1.4-1.8,3.1-4.7,5.2-8.9c0.9-1.8,1.7-3.5,2.4-5.3c0.8-1.7,1.8-4,2.9-6.8c0.4-1,0.8-1.8,1.1-2.6c0.2-0.6,0.3-1,0.4-1.2
		c0.7-1.4,1.1-2.1,1.5-2.1h0.1c0.2,0,0.3,0.2,0.3,0.6v0.2c0,0.4-0.1,0.9-0.3,1.6c-0.2,0.7-0.6,1.8-1.2,3.2
		c-3.1,8.3-5.7,14.7-8.1,19.3c-0.8,1.5-1.4,2.6-2,3.5c-0.5,0.9-1.1,1.6-1.6,2.2c-0.7,0.7-1.4,1.2-2,1.5c-0.1,0-0.2,0.1-0.3,0.1
		c-0.1,0-0.2,0-0.4,0.1c-0.2,0-0.4,0-0.8,0c-0.3,0-0.6,0-0.9,0C393.1,498,392.9,498,392.8,497.9z"/>
	<path class="st0" d="M416.2,491.6c-1.7-0.3-3-1.4-3.9-3.4c-1.7-3.5-2.9-10.4-3.4-20.5c-0.2-1.8-0.3-3.3-0.3-4.4s0-1.8,0-2.2
		c0-1.1,0.1-1.9,0.2-2.3c0.1-0.4,0.3-0.8,0.5-1.2c0.2-0.3,0.5-0.5,0.7-0.6c0.1,0,0.3-0.1,0.4-0.1h0.2c0.2,0,0.5,0.2,0.9,0.4l0.8,0.4
		l0.9,0.1c0.2,0,0.4,0,0.6,0c0.1,0,0.3,0,0.4,0.1c0.1,0,0.2,0.1,0.3,0.1c1.1,0.6,1.7,1.8,1.8,3.7c0,0.3,0,0.5,0,0.8s0,0.5-0.1,1
		c-0.1,0.4-0.2,1.1-0.4,2c-1,4.6-1.2,10.7-0.7,18.5c0.1,1,0.3,1.9,0.4,2.5c0.2,0.7,0.4,1.2,0.6,1.7c0.3,0.7,0.7,1.1,1,1.1
		c0.3,0,0.8-0.3,1.5-1c0.5-0.5,1-1.1,1.4-1.7c4.4-8,7.1-13.8,8.1-17.4c0.1-0.3,0.3-0.8,0.5-1.4c0.1-0.2,0.2-0.4,0.3-0.7
		c0.3-0.7,0.6-1.2,0.8-1.4c0.2-0.2,0.4-0.4,0.5-0.4c0.2,0,0.3,0.1,0.4,0.2c0.1,0.1,0.2,0.3,0.2,0.5c0,0.4-0.3,1.5-0.9,3.4
		c-0.6,1.8-1.8,4.9-3.4,9.1s-2.8,7-3.5,8.5c-1.4,2.9-2.8,4.3-4.2,4.5c-0.4,0.1-0.9,0.1-1.3,0.1C416.9,491.7,416.5,491.7,416.2,491.6
		z M415.5,436c0,0-0.1,0-0.2,0c-0.1,0-0.2-0.1-0.3-0.1c-0.1,0-0.3-0.1-0.5-0.1s-0.4-0.1-0.6-0.1c-0.8,0-1.5-0.4-2.1-1
		c-0.4-0.4-0.6-0.8-0.8-1.2c-0.1-0.4-0.2-1-0.2-1.7c0-0.7,0.1-1.3,0.2-1.9c0.1-0.6,0.3-0.9,0.6-1.1c0.1-0.1,0.3-0.1,0.4-0.1h0.2
		c0.2,0,0.5,0.2,0.9,0.4c0.2,0.1,0.4,0.2,0.5,0.2c0.1,0.1,0.2,0.1,0.3,0.1c0.1,0,0.2,0,0.3,0c0.9,0,1.5,0.2,2,0.6
		c0.6,0.4,0.9,1.4,0.9,2.8c0,1.9-0.4,2.9-1.3,3.1c-0.1,0-0.2,0.1-0.2,0.1C415.6,436,415.5,436,415.5,436z"/>
	<path class="st0" d="M442.8,497.7c-0.2,0-0.3-0.1-0.5-0.1c-0.2,0-0.4-0.1-0.6-0.1c-0.1,0-0.2-0.1-0.2-0.1c-2.6-0.4-4.8-2-6.7-4.7
		c-1.7-2.7-3.1-6.6-4.2-11.7c-0.9-4.2-1.4-8.6-1.5-13.1c0-0.4-0.1-0.8-0.1-1.1s0-0.5,0-0.5c0,0-0.1-0.1-0.2-0.2
		c-0.1-0.1-0.1-0.2-0.2-0.2c-0.3-0.2-0.4-0.5-0.4-0.8c0-0.1,0-0.3,0.1-0.4c0.1-0.1,0.2-0.3,0.3-0.3c0.1-0.1,0.2-0.2,0.2-0.3
		c0.1-0.1,0.1-0.3,0.1-0.5c0-0.2,0-0.5,0-0.9c0-1.7,0.1-3.8,0.3-6.2s0.4-4.8,0.7-7.1c0.9-6.3,2.2-12.1,4-17.3
		c3-8.6,6.4-14.1,10.3-16.6c1-0.6,1.9-0.9,2.7-0.9c0.7,0,1.3,0.2,1.8,0.5c0.1,0,0.2,0.1,0.4,0.2c0.1,0.1,0.2,0.1,0.4,0.2
		c1.3,0.4,2.1,1.3,2.5,2.7c0.3,1.1,0.5,2.5,0.5,4c0,4.2-1.2,9.9-3.5,17.1c-3.7,10.9-8.5,19.1-14.5,24.6c-0.2,0.2-0.4,0.3-0.6,0.5
		c-0.2,0.2-0.3,0.3-0.3,0.4c-0.1,0.2-0.1,0.9-0.1,2c0,1.1,0,2.4,0.1,4c0.1,1.5,0.2,3.1,0.3,4.6c0.6,6,1.7,10.9,3.3,14.6
		c0.4,1,1,2,1.6,2.8c0.7,0.9,1.2,1.5,1.7,1.7c0.1,0,0.2,0.1,0.3,0.1c0.1,0,0.1,0,0.2,0c0,0,0.1,0,0.2-0.1c1-0.2,2-0.7,3.2-1.6
		c0.2-0.1,0.4-0.3,0.6-0.5s0.5-0.5,0.8-0.7c0.7-0.7,1.4-1.5,2-2.3c0.6-0.8,1.3-1.8,2.1-2.9c3.1-4.8,6-10.2,8.6-16.4
		c0.5-1.2,1-2.1,1.3-2.7s0.6-1,0.9-1.3c0.2-0.2,0.4-0.3,0.5-0.3c0.1,0,0.2-0.1,0.3-0.1h0.1c0.2,0.1,0.4,0.4,0.4,0.9
		c0,0.6-0.2,1.5-0.5,2.7c-0.3,1-0.8,2.3-1.4,3.8c-0.6,1.6-1.2,3-1.7,4.4c-1.1,2.9-2.4,5.6-3.7,8.4s-2.5,4.8-3.4,6.4
		c-1.9,3-3.8,4.8-5.9,5.4c-0.4,0.1-0.7,0.1-1,0.1s-0.6,0-0.7,0C443.3,497.7,443,497.7,442.8,497.7z M434.2,459.5
		c0.2-0.2,0.8-0.8,1.7-1.9c4.4-5.5,8-12.1,10.8-19.9c1.8-5,2.9-9.4,3.4-13.3c0-0.7,0.1-1.4,0.1-2.3c0-0.9,0-1.6,0-2
		c-0.1-0.6-0.3-1.2-0.4-1.6c-0.1-0.5-0.3-0.8-0.5-0.9c-0.1,0-0.2-0.1-0.2-0.1c-0.4,0-1.1,0.4-2,1.3c-1.9,1.8-3.7,4.6-5.5,8.2
		c-0.9,1.8-1.7,3.5-2.3,5.2c-0.7,1.7-1.3,3.7-2,6c-1.3,4.3-2.3,9.2-3,14.6c-0.2,1.6-0.3,2.9-0.4,4c-0.1,1.1-0.1,1.8-0.1,2.2v0.4
		c0,0.1,0.1,0.1,0.1,0.1s0.1,0,0.1,0C434,459.6,434.1,459.6,434.2,459.5z"/>
	<path class="st0" d="M480,544.6c0,0-0.1,0-0.2-0.1c-0.2,0-0.5,0-0.8-0.1c-1.1,0-1.9-0.2-2.5-0.5c-1-0.6-1.8-1.3-2.4-2.1
		c-0.2-0.2-0.3-0.6-0.5-0.9c-0.2-0.4-0.3-0.8-0.5-1.1c-0.5-1.8-0.8-4-0.8-6.4c0-3.8,0.7-8.4,2-13.7c0.9-3.6,2.1-7.3,3.6-11.1
		c0.7-1.6,1.3-3.1,1.8-4.3c0.6-1.3,1.2-2.6,2-4.1c1.8-3.4,3.6-6.6,5.4-9.5c0.1-0.1,0.1-0.2,0.2-0.2c0.3-0.5,0.5-0.8,0.7-1.1
		c0.1-0.2,0.2-0.4,0.2-0.5c0-0.1,0.1-0.2,0.1-0.2c0-0.1,0-0.2-0.1-0.2v-0.1c0-0.3-0.1-1-0.2-2.2c-0.1-1.1-0.2-2.1-0.3-3.1
		c-0.7-5.4-1.7-10.1-3-14.2c-0.4-1.4-0.9-2.7-1.3-3.7s-0.8-1.7-1-1.8c-0.1,0-0.2-0.1-0.3-0.1h-0.2c-0.2,0.1-0.5,0.2-0.8,0.4
		c-1.4,1.1-3,3-4.6,5.7c-1.1,2-2.5,4.7-4.1,8.2c-0.6,1.3-1.1,2.4-1.6,3.4c-0.5,1-0.9,1.7-1.1,2.1c-0.8,1.2-1.5,1.8-2.3,1.8
		c-0.3,0-0.6,0-1.1,0c-0.4,0-0.8-0.1-1.2-0.1c-0.4,0-0.6-0.1-0.7-0.1c-1-0.4-1.8-1-2.4-1.8c-0.7-1.2-1.3-3.3-1.8-6.2
		c-0.2-1.2-0.3-2.3-0.4-3.5c-0.1-1.1-0.1-2.5-0.1-4.2c0-3.6,0.2-6.9,0.6-9.8c0.4-2.4,1-4,1.8-5c0.4-0.5,0.9-0.8,1.4-0.8
		c0.3,0,0.7,0.1,1,0.4c0.2,0.1,0.4,0.2,0.5,0.2s0.3,0.1,0.6,0.1c1,0.1,1.6,0.5,1.9,1.2c0.1,0.2,0.1,0.6,0.1,1.2c0,0.4,0,0.9-0.1,1.4
		c-0.1,1.3-0.2,2.9-0.5,4.8c-0.7,5.6-1,10.2-1,13.7v0.6c0,0.9,0,1.5,0,1.9s0.1,0.7,0.1,0.8c0,0.1,0.1,0.2,0.2,0.2c0,0,0.1,0,0.1-0.1
		c0.5-0.3,2.2-3.1,5.1-8.4c2.8-5,4.9-8.2,6.4-9.7c0.9-1,1.8-1.5,2.6-1.6c0.1,0,0.2-0.1,0.3-0.1c0.1,0,0.2,0,0.3,0.1
		c0.2,0,0.5,0.1,0.9,0.2c0.4,0.2,0.8,0.3,1.2,0.3c3.5,0.4,6.2,3.4,8.1,9c0.9,2.7,1.7,5.9,2.3,9.5c0,0.5,0.1,0.9,0.2,1.2
		c0.1,0.3,0.1,0.5,0.2,0.6c0,0,0.1,0.1,0.1,0.1c0,0,0.1,0,0.1,0c0,0,0.1,0,0.2-0.1c0.1-0.1,0.3-0.2,0.5-0.5c0.2-0.2,0.5-0.6,0.8-1
		c1.1-1.4,2.3-2.8,3.5-4.1s2.1-2.5,3-3.4c1.2-1.3,2.2-2.3,2.9-2.9c0.1,0,0.1-0.1,0.2-0.2c0.2-0.2,0.5-0.3,0.7-0.6
		c0.2-0.2,0.4-0.4,0.6-0.5c0.4-0.4,0.9-0.8,1.5-1.2c0.5-0.4,0.9-0.7,1.1-0.8c0.2-0.1,0.3-0.1,0.4-0.1c0.2,0,0.3,0,0.4,0.1
		c0.1,0.1,0.2,0.2,0.2,0.3c0,0.3-0.2,0.6-0.7,1c-0.4,0.4-1,0.8-1.6,1.4c-0.6,0.6-1.1,1-1.4,1.4c-0.2,0.2-0.4,0.4-0.7,0.8
		c-0.3,0.4-0.7,0.7-1,1.1c-0.3,0.4-0.7,0.7-1,1.1c-0.3,0.4-0.6,0.7-0.8,0.9c-0.3,0.3-0.8,0.8-1.3,1.4c-0.5,0.6-1.3,1.5-2.2,2.7
		c-0.4,0.6-1,1.3-1.7,2.2c-0.7,0.9-1.3,1.7-1.8,2.4s-0.9,1.3-1.1,1.6l-0.3,0.4v0.7c0,0.2,0,0.5,0,0.9s0.1,0.9,0.1,1.3
		c0.1,1.9,0.2,4,0.2,6.2c0,2.3-0.1,4.7-0.2,7.3c-0.2,4.4-0.7,9.1-1.4,14.2c-1.1,7.7-2.7,14.2-4.8,19.5c-1.5,3.9-3.2,6.7-4.9,8.5
		c-0.6,0.5-1.1,0.9-1.5,1.1c-0.4,0.2-0.9,0.3-1.4,0.3H480z M479.1,541.1c0.7-0.4,1.4-1.3,2.3-2.6c0.9-1.3,1.6-2.8,2.3-4.3
		c1.3-3.4,2.3-7.2,3.1-11.4c0.9-5.2,1.5-10.8,1.8-16.7c0-1.5,0.1-2.9,0.1-4.3s0-2.5,0-3.3c0-0.8,0-1.5-0.1-2.2
		c0-1.4-0.1-2.2-0.1-2.3c0-0.1-0.1-0.1-0.2-0.1h-0.1c-0.1,0-0.2,0.2-0.4,0.4c-0.2,0.2-0.4,0.6-0.7,1.2c-3.1,5.4-5.5,10.8-7.3,16.1
		c-1.5,4.6-2.5,8.9-3,12.8c-0.2,1.2-0.3,2.1-0.3,2.8c0,0.7-0.1,1.8-0.1,3.3c0,1.5,0,2.5,0.1,3.2c0,0.7,0.1,1.4,0.3,2.3
		c0.2,1.4,0.6,2.6,0.9,3.7c0.4,1.1,0.7,1.6,1,1.6c0,0,0.1,0,0.2,0C479,541.1,479,541.1,479.1,541.1z"/>
</g>
</svg>


