<?xml version="1.0" encoding="utf-8"?>
<!-- Generator: Adobe Illustrator 23.0.5, SVG Export Plug-In . SVG Version: 6.00 Build 0)  -->
<svg version="1.1" xmlns="http://www.w3.org/2000/svg" xmlns:xlink="http://www.w3.org/1999/xlink" x="0px" y="0px"
	 viewBox="0 0 720 720" style="enable-background:new 0 0 720 720;" xml:space="preserve" width="500" height="500">
<style type="text/css">
	.st0{fill:#050002;}
	.st1{fill-rule:evenodd;clip-rule:evenodd;fill:#050002;}
	.st2{fill-rule:evenodd;clip-rule:evenodd;}
	.st3{fill:#221F1F;}
	.st4{fill:#231F20;}
	.st5{fill:#070808;}
	.st6{fill:#211E1F;}
	.st7{fill:#161616;}
	.st8{fill:#131313;}
	.st9{fill:#21201F;}
	.st10{fill:#2C2929;}
</style>
<g>
	<g>
		<path class="st0" d="M537.9,317.7v-34c0-24.3,1.4-44.4,4.2-60.2c2.8-15.8,8.2-26.5,16.2-32.1c5.6-3.6,14.8-7,27.8-10.4
			c12.9-3.3,22.5-5.1,28.8-5.3v-23.8h-193v23.8c7.4,0.4,18.1,2.7,32.3,6.7s24.4,8.1,30.6,12.4c6.7,4.9,11.8,14.8,15.4,29.6
			c3.6,14.8,5.4,36.1,5.4,63.7v29.7H360.9L238.6,151.8H103v23.8c8.5,0.4,19.6,3.3,33.3,8.5c13.7,5.2,24.6,11.5,32.6,18.9
			c6,5.6,10.8,13.5,14.4,23.7c3.6,10.3,5.4,20.5,5.4,30.8v60.1H99.2v7.5h523.4v-7.5H537.9z M221.1,317.7v-74.9l55.4,74.9H221.1z"/>
	</g>
	<g>
		<path class="st0" d="M99.2,451.8h89.4v39.6c0,31-1.4,52.9-4.3,65.7c-2.9,12.8-8.3,22.4-16.1,28.6c-3.6,3.1-12.5,6.6-26.8,10.5
			c-14.3,3.9-24.4,6.1-30.4,6.5v23.8h194.7v-23.8c-5.1-0.2-15.7-2.4-31.8-6.7c-16.1-4.2-26.7-8.8-31.8-13.7
			c-7.1-6.2-12.4-16.7-15.9-31.4c-3.5-14.7-5.2-35.8-5.2-63.2v-36h154.8l133,179.5h29.1V451.8h84.7v-7.5H99.2V451.8z M505.5,513.7
			l-45.7-62h45.7V513.7z"/>
	</g>
</g>
</svg>


