<svg xmlns="http://www.w3.org/2000/svg" viewBox="0 0 2000 2000" width="500" height="500"><path d="M220.93,663q-23.72-1.1-42.49-9.67t-30.82-22.25a71.8,71.8,0,0,1-16.23-31.73q-4.18-18.06,2-38.12a61.35,61.35,0,0,1,11.13-20.79A64.35,64.35,0,0,1,162,525.48a71.25,71.25,0,0,1,21.52-8.21,57.54,57.54,0,0,1,22.79-.18,49.24,49.24,0,0,1,10.4,3.28,35.76,35.76,0,0,1,8.75,5.47,25.14,25.14,0,0,1,6,7.48,17.21,17.21,0,0,1,1.83,9.3q-.74,4-2.92,4.74c-1.46.49-2.07-.84-1.83-4q.74-6.92-17.87-4a53,53,0,0,0-23.16,9.85,65.43,65.43,0,0,0-18.24,20.06,70.55,70.55,0,0,0-9.12,26.44,52.35,52.35,0,0,0,4.2,28.64q6.19,14.22,21.34,21.7t34.83,6.75a115,115,0,0,0,34.79-6.39,153.59,153.59,0,0,0,33.55-16.23,193.53,193.53,0,0,0,29.59-23.34A163.86,163.86,0,0,0,342,578.73a178.81,178.81,0,0,0,13.13-24.44,162.3,162.3,0,0,0,9.48-28.45,74.22,74.22,0,0,0,1.1-30.09,75.81,75.81,0,0,0-10.21-27.17A64.92,64.92,0,0,0,335.1,448q-12.77-8.21-29.91-10.39A25.33,25.33,0,0,0,299,437a3.15,3.15,0,0,0-2.92,2,50.26,50.26,0,0,0-1.82,7.48l-2.37,12.22c-.86,4.38-1.64,8.52-2.37,12.4s-1.22,6.57-1.46,8q-2.93,20.43-6,43.22a292,292,0,0,0-2.73,44.32q-.37,14.58-.18,25.16t3.83,17.51c1,2,.91,3.28-.18,4s-2.69.85-4.78.37a24.73,24.73,0,0,1-7-3.1,22,22,0,0,1-6.47-6,59.27,59.27,0,0,1-10.16-20.24,119.11,119.11,0,0,1-4-24.08,215.34,215.34,0,0,1,0-28.08q.9-15.13,2-32.28,1.84-28.45,4.07-56.54t4.07-59.09q.36-6.19.55-12.58t.93-12.59c1.47-1,4.43-1.21,8.87-.73q10.68,1.47,17.26,11.13a60.84,60.84,0,0,1,9.12,22.07,90.35,90.35,0,0,1,1.64,18.78q-.19,9.3-1.28,19.88v.37l.37-.37a58.77,58.77,0,0,0,18.42-8.39,90.81,90.81,0,0,0,15.5-13.31,82.77,82.77,0,0,0,11.3-15.14,44.07,44.07,0,0,0,5.48-13.86q2.19-11.29-1.28-19.33a31.58,31.58,0,0,0-10.4-13.13,44.09,44.09,0,0,0-16.23-7.3,56,56,0,0,0-19.15-1.09A153.63,153.63,0,0,0,258,349.31a220,220,0,0,0-39.2,20.79A141.67,141.67,0,0,0,197,387.79a138.84,138.84,0,0,0-16.41,19.51,98.82,98.82,0,0,0-10.4,19Q166.59,435.39,167,442q0,18.24,19.33,23c2.43.49,3.29,1.46,2.56,2.92s-2.56,2.19-5.47,2.19-6.27-1-10-3.1A70.05,70.05,0,0,1,162,459.1a72.2,72.2,0,0,1-10.4-10.76,51.7,51.7,0,0,1-7.29-12.22,39.36,39.36,0,0,1-2.92-16.78,79.45,79.45,0,0,1,2.19-16q2.91-10.57,11.49-22.25a130.37,130.37,0,0,1,21.34-22.43,163.41,163.41,0,0,1,28.45-19.15,134.29,134.29,0,0,1,32.82-12.4,216.39,216.39,0,0,1,34.5-5.47,166.92,166.92,0,0,1,29.33.36,91.25,91.25,0,0,1,25.35,6.38,77.08,77.08,0,0,1,20.61,12.4A53.57,53.57,0,0,1,361,357.88a38.33,38.33,0,0,1,4,19.88,40.94,40.94,0,0,1-5.29,17.14,66.08,66.08,0,0,1-11.49,14.77,89.27,89.27,0,0,1-15.5,12,149.4,149.4,0,0,1-16.6,8.94,92.17,92.17,0,0,1,25.72,11.85,106.27,106.27,0,0,1,22.61,19.88,117,117,0,0,1,16.78,25.71,86,86,0,0,1,8.21,29,117.06,117.06,0,0,1-1.28,33.74,116,116,0,0,1-35.93,66,162.48,162.48,0,0,1-38.48,26.44A190.83,190.83,0,0,1,268.17,659,186,186,0,0,1,220.93,663Z"/><path d="M403.67,556.48q-1.82-16.77-1.64-49.06t2-73.13q.36-15.32.54-25t.19-15.5c0-3.89-.07-6.93-.19-9.12s-.18-4.14-.18-5.84a34.69,34.69,0,0,1-1.09-6.75A5.55,5.55,0,0,1,404,369c.73-1,2.08-1.46,4-1.46a32.35,32.35,0,0,1,6.45.73,27.26,27.26,0,0,1,7,2.56,33,33,0,0,1,6.08,4,51.06,51.06,0,0,1,10.13,13q3.86,7.11,3.87,21.7-.37,4.74-1.48,13.13t-2.39,18.06q-1.29,9.66-2.58,19.69t-2.39,17.69q-4.06,26.26-5.34,47.6t.18,33q1.83,17.88,5.16,15.32,2.21-1.46,5-7.66t6.05-15q3.29-8.76,6.57-19.52t6.57-21.7q3.27-11.67,4.92-17.33c1.09-3.76,2.13-5.65,3.1-5.65h1.46c.48,0,.85.73,1.09,2.19q0,2.92-2.55,11.85t-5.84,19.88q-6.19,23.71-12.4,40.49t-12.1,20.79a13,13,0,0,1-7.37,2.37,14.56,14.56,0,0,1-7.73-1.64,23.49,23.49,0,0,1-10.32-9.85A46.58,46.58,0,0,1,403.67,556.48Z"/><path d="M560.15,489.37q-1.47,7.31-6.57,20.43t-12,27.17a234.4,234.4,0,0,1-15,26.08q-8,12-15.32,17.51a26.33,26.33,0,0,1-14.59,5.29,39.26,39.26,0,0,1-16.59-2.56A46.35,46.35,0,0,1,465,573.81a38.39,38.39,0,0,1-10.21-15.5,83.16,83.16,0,0,1-3.65-23.16,100.54,100.54,0,0,1,2.55-25.54,84.73,84.73,0,0,1,9.12-23.34,52.64,52.64,0,0,1,15.69-17.33,35.35,35.35,0,0,1,9.3-4.74A42.08,42.08,0,0,1,498.69,462a40.91,40.91,0,0,1,10.94.73,24.11,24.11,0,0,1,9.67,4.38,26.39,26.39,0,0,1,7.84,12.58A44.66,44.66,0,0,1,529,495.75a45.68,45.68,0,0,1-3.64,15.32,21.8,21.8,0,0,1-8.58,10.4q-5.83,3.28-14.77,3.46a27.89,27.89,0,0,1-15.5-3.83,104.36,104.36,0,0,0-2,16.23,118,118,0,0,0,.37,18.61,49.75,49.75,0,0,0,3.65,15.13q2.73,6.21,8.2,6.2,5.11,0,10.76-4.92a77.66,77.66,0,0,0,11.49-13,184.61,184.61,0,0,0,11.49-18q5.66-10,10.58-19.88t8.75-18.6q3.84-8.76,6-14.59c1-1.7,2-2.43,2.92-2.19S560.15,487.43,560.15,489.37Zm-49.61,23.71a20,20,0,0,0,7.12-11.31,39.6,39.6,0,0,0,.91-13.49A31.17,31.17,0,0,0,515.29,477c-1.71-3.16-3.65-4.74-5.84-4.74q-2.56,0-5.47,3.46a44.19,44.19,0,0,0-5.66,9.12A128.51,128.51,0,0,0,493,497.58a135.43,135.43,0,0,0-4.38,14.77,10.48,10.48,0,0,0,4.38,2.37,25.21,25.21,0,0,0,6.2,1.09,21.91,21.91,0,0,0,6.38-.54A12.46,12.46,0,0,0,510.54,513.08Z"/><path d="M567.08,609a30.93,30.93,0,0,1-17.69-5.29q-7.86-5.29-8.58-18.06a38.84,38.84,0,0,1,1.65-13.49,55.36,55.36,0,0,1,5.65-12.59,84.77,84.77,0,0,1,8-11.12,81.78,81.78,0,0,1,9.12-9.12q0-2.19-2.55-7.84t-5.84-13.32q-3.29-7.65-6.38-16.41A59.09,59.09,0,0,1,547,484.26a29,29,0,0,1,2-14,36.18,36.18,0,0,1,7.48-11.67,35.63,35.63,0,0,1,11.31-7.84,29.92,29.92,0,0,1,13.86-2.56,47.73,47.73,0,0,1,10,1.83,25,25,0,0,1,8.57,4.37,17.64,17.64,0,0,1,5.47,8,28.54,28.54,0,0,1,1.09,12.4c-.24,1.22-1.22,1.7-2.91,1.46s-2.44-.85-2.19-1.83q1.82-8-3.47-12.21T585.68,462a20.43,20.43,0,0,0-8.39,8q-3.28,5.47-.73,16,.36,1.83,2.19,7.84t4.19,12.77q2.37,6.75,4.56,11.85c1.46,3.41,2.56,4.87,3.28,4.38q2.55-1.09,8.39-6t12.22-10.4q6.38-5.46,11.86-10c3.65-3,6.07-4.8,7.29-5.29a3.89,3.89,0,0,1,1.46.73c.73.49,1.1.86,1.1,1.1,0,.49-1.16,1.82-3.47,4s-5.35,4.92-9.12,8.21l-12.76,11.12q-7.12,6.21-14.78,12.77a130.42,130.42,0,0,1,7.3,19.51,98.71,98.71,0,0,1,2.92,15.5,41.23,41.23,0,0,1-1.46,17.33,42,42,0,0,1-7.48,14.22,38,38,0,0,1-11.85,9.67A32.44,32.44,0,0,1,567.08,609Zm-7.66-53.26a53.38,53.38,0,0,0-9.49,15.51q-3.64,8.94-2.91,15.13.72,8.39,5.28,10.76t11.13-3.46a23.74,23.74,0,0,0,6.56-12.4,80.21,80.21,0,0,0,1.46-15.69q0-8.39-1.82-12.22t-2.92-3.83a9.86,9.86,0,0,0-2.55,1.83C562.7,552.6,561.11,554.06,559.42,555.75Z"/><path d="M640.39,609a30.93,30.93,0,0,1-17.69-5.29q-7.85-5.29-8.57-18.06a38.83,38.83,0,0,1,1.64-13.49,55.36,55.36,0,0,1,5.65-12.59,83.91,83.91,0,0,1,8-11.12,80.87,80.87,0,0,1,9.11-9.12q0-2.19-2.55-7.84t-5.84-13.32c-2.18-5.1-4.32-10.57-6.38-16.41a59.41,59.41,0,0,1-3.46-17.51,29.12,29.12,0,0,1,2-14,36.34,36.34,0,0,1,7.48-11.67,35.63,35.63,0,0,1,11.31-7.84A29.92,29.92,0,0,1,655,448.15,47.61,47.61,0,0,1,665,450a24.89,24.89,0,0,1,8.57,4.37,17.64,17.64,0,0,1,5.47,8,28.53,28.53,0,0,1,1.1,12.4c-.25,1.22-1.22,1.7-2.92,1.46s-2.44-.85-2.19-1.83q1.82-8-3.47-12.21T659,462a20.43,20.43,0,0,0-8.39,8q-3.29,5.47-.73,16,.36,1.83,2.19,7.84t4.19,12.77q2.37,6.75,4.56,11.85t3.29,4.38q2.53-1.09,8.39-6t12.21-10.4q6.39-5.46,11.86-10c3.65-3,6.07-4.8,7.29-5.29a3.89,3.89,0,0,1,1.46.73c.73.49,1.1.86,1.1,1.1,0,.49-1.16,1.82-3.47,4s-5.35,4.92-9.12,8.21l-12.76,11.12q-7.11,6.21-14.78,12.77a130.42,130.42,0,0,1,7.3,19.51,98.71,98.71,0,0,1,2.92,15.5A41.23,41.23,0,0,1,675,581.47a41.77,41.77,0,0,1-7.48,14.22,38,38,0,0,1-11.85,9.67A32.41,32.41,0,0,1,640.39,609Zm-7.66-53.26a53.6,53.6,0,0,0-9.49,15.51q-3.65,8.94-2.91,15.13.72,8.39,5.29,10.76t11.12-3.46a23.83,23.83,0,0,0,6.57-12.4,81,81,0,0,0,1.45-15.69q0-8.39-1.82-12.22T640,549.55a9.86,9.86,0,0,0-2.55,1.83Q635.28,553.21,632.73,555.75Z"/><path d="M824.72,420.62c-2-7-4.62-14.3-7-18.26-3.52-5.95-5.73-7.49-17.83-7.49h-22V502.05c0,17.16,1.76,19.58,22.67,20.9v6.17h-64V523c20.47-1.32,22.23-3.52,22.23-20.9V394.87h-20c-12.1,0-15.62,1.32-19.36,7.93-2.65,4.4-4.41,9.68-7.27,17.82h-6.6c1.32-13.42,2.64-27.29,3.3-39.61h5.06c3.3,5.28,5.72,5.06,11.89,5.06h87.15c6.16,0,7.92-.88,11.22-5.06h5.28c0,10.34.88,26.19,2,38.95Z"/><path d="M1002.54,392.23c-18.27,1.76-20,2.86-20,21.35v88.25c0,18.48,2,19.14,20,21.12v6.17h-59V523c18.26-2.2,20-2.64,20-21.12v-44H888.32v44c0,18.26,1.76,18.92,19.81,21.12v6.17H849.37V523c17.82-2,19.8-2.64,19.8-21.12V413.58c0-18.49-2-19.59-19.8-21.35v-6.16h58.76v6.16c-17.61,1.54-19.81,3.08-19.81,21.35v35h75.26v-35c0-18.27-2.42-19.81-20-21.35v-6.16h59Z"/><path d="M1139,494.13c-1.32,5.72-7.26,28.38-9.46,35h-107V523c20.47-1.54,22-3.52,22-21.56V414.46c0-19.59-2.42-20.69-18.93-22.23v-6.16H1093c20.68,0,29.27-.22,31.91-.44.22,5.5,1.1,22,2,33.67l-6.6,1.1a72.79,72.79,0,0,0-6.61-16.72c-3.52-7.27-8.58-8.81-21.78-8.81H1071c-6.82,0-7.26.66-7.26,7.05v48.63h24.43c16.5,0,17.6-3.3,20.24-18.27h6.82v45.34h-6.82c-2.86-15.85-4.62-18.05-20.46-18.05h-24.21v43.8c0,15.4,4.84,16.72,15.84,16.94H1100c13.42,0,15.62-2,20.47-7.7,4.18-4.62,8.8-13.64,11.88-20.25Z"/><path d="M1288.22,380.26c-2.46-7.66-4.65-14.23-8.48-20.24-5.2-9.31-9.3-11.49-24.62-11.49h-29.27c-7.93,0-8.75.82-8.75,8.75v63.19H1251c19.69,0,21.06-3.28,25.17-22.43h8.2v57.17h-8.48c-3.55-19.14-5.47-23.52-24.89-23.52H1217.1v49c0,23.8,2.73,24.89,27.63,27.08v7.66h-76v-7.66c22.15-1.64,24.62-3.56,24.62-27.08V372.33c0-23.8-2.74-24.9-24.62-27.09v-7.66h86.71c24.63,0,33.93-.27,38.58-.54.27,9.84,1.36,29,2.73,42.12Z"/><path d="M1415.7,333.75c46.78,0,88.63,35.84,88.63,90.28,0,58.81-39.94,95.47-90.27,95.47-52.52,0-90.82-39.94-90.82-91.37C1323.24,379.16,1358,333.75,1415.7,333.75Zm-5.47,10.13c-30.64,0-58.54,25.71-58.54,76.87,0,50.88,27.9,88.36,66.75,88.36,33.1,0,58-24.62,58-77.42C1476.43,374.24,1446.07,343.88,1410.23,343.88Z"/><path d="M1627.16,333.75c46.78,0,88.63,35.84,88.63,90.28,0,58.81-39.94,95.47-90.27,95.47-52.53,0-90.83-39.94-90.83-91.37C1534.69,379.16,1569.44,333.75,1627.16,333.75Zm-5.47,10.13c-30.64,0-58.55,25.71-58.55,76.87,0,50.88,27.91,88.36,66.75,88.36,33.1,0,58-24.62,58-77.42C1687.89,374.24,1657.52,343.88,1621.69,343.88Z"/><path d="M1818.37,337.58c38.57,0,62.92,7.66,79.88,23.8,13.41,13.13,23.25,32.28,23.25,58.55,0,32-13.13,58-34.19,73.86-20.79,15.59-47.33,21.61-81,21.61h-64v-7.66c23.53-2.19,24.62-4.1,24.62-26.54V372.05c0-23.52-3.28-24.62-24.62-26.81v-7.66ZM1790.74,479c0,20.52,8.76,26.27,29.27,26.27,49.24,0,74.41-33.65,74.41-81.52,0-29.82-10.12-52.53-31.73-65.66-12.59-7.93-28.45-10.94-46.78-10.94-12.31,0-18.88,1.64-21.61,3.83-2.46,1.64-3.56,4.65-3.56,15.32Z"/><path d="M1064.26,609.47c17.44,2.91,31.61,11.27,31.61,28.89,0,12.35-6.9,22.16-17.62,28-9.45,5.27-18.72,7.08-31.43,7.08h-44.69v-5.08c15.44-1.46,16.35-3.09,16.35-17.45V578c0-15.08-1.64-16.35-16.35-17.62v-5.09h47.59c13.63,0,22.17,2.37,28,6.36A23.72,23.72,0,0,1,1088.42,582C1088.42,599.12,1074.43,606.93,1064.26,609.47Zm-20.89-2.18c20,0,28.16-8,28.16-22.89,0-12.72-7.82-22.53-25.26-22.53-5.08,0-8.35.55-10.17,1.82-1.46,1.09-2,3.09-2,8.9v34.7Zm-9.27,43.24c0,13.08,3.09,16.35,16,16.35,14.17,0,28-7.63,28-26.7,0-18.53-13.09-26.53-35.25-26.53h-8.72Z"/><path d="M1205.05,644.54c-1.09,4.72-6,23.43-7.81,28.88H1109v-5.08c16.89-1.28,18.16-2.91,18.16-17.81V578.77c0-16.17-2-17.08-15.62-18.35v-5.09h55.59c17.08,0,24.16-.18,26.34-.36.19,4.54.91,18.17,1.64,27.8l-5.45.9a60.63,60.63,0,0,0-5.45-13.8c-2.91-6-7.09-7.27-18-7.27h-17.26c-5.63,0-6,.55-6,5.81v40.15h20.16c13.63,0,14.54-2.72,16.72-15.07h5.63v37.42h-5.63c-2.36-13.08-3.82-14.9-16.9-14.9h-20v36.16c0,12.71,4,13.8,13.08,14h16.9c11.08,0,12.89-1.64,16.89-6.36,3.45-3.82,7.27-11.27,9.81-16.72Z"/><path d="M1297.16,583.67c-1.64-5.08-3.09-9.44-5.64-13.44-3.45-6.18-6.17-7.63-16.35-7.63h-19.44c-5.26,0-5.81.55-5.81,5.81v42h22.53c13.08,0,14-2.18,16.71-14.9h5.45v38H1289c-2.36-12.71-3.63-15.62-16.53-15.62h-22.53v32.52c0,15.81,1.82,16.53,18.35,18v5.08h-50.51v-5.08c14.72-1.09,16.35-2.37,16.35-18V578.41c0-15.81-1.81-16.54-16.35-18v-5.09h57.59c16.36,0,22.53-.18,25.62-.36.18,6.54.91,19.26,1.82,28Z"/><path d="M1381.81,552.79c31.07,0,58.87,23.8,58.87,60,0,39.06-26.53,63.41-60,63.41-34.88,0-60.31-26.53-60.31-60.68C1320.41,583,1343.48,552.79,1381.81,552.79Zm-3.63,6.72c-20.35,0-38.88,17.08-38.88,51,0,33.79,18.53,58.68,44.33,58.68,22,0,38.51-16.35,38.51-51.41C1422.14,579.68,1402,559.51,1378.18,559.51Z"/><path d="M1566,674.88c-2.36,0-4.36-.19-6.72-.37-13.26-.91-20.35-4.36-28.34-15.62-6.72-9.27-13.26-20.71-19.08-30-3.63-5.81-6-6.9-15.26-6.9h-6.36v28.52c0,15.44,2,16.35,16.54,17.81v5.08h-48.51v-5.08c15.08-1.64,16.35-2.37,16.35-17.81V578c0-15.44-2-16-16.35-17.62v-5.09h46.33c13.26,0,22.16,1.64,29.06,6.18,7.45,4.72,12.36,12.9,12.36,24,0,15.63-10,25.44-23.44,31.25,3.27,5.63,11.08,17.8,16.53,26,6.73,9.63,10.18,14.17,14.36,18.71,4.9,5.27,9.08,7.27,13.26,8.36Zm-67-59c9.45,0,15.45-1.45,20-5.27,7.08-5.27,10-12.53,10-22.34,0-19.44-12.9-26.53-26.89-26.53-5.27,0-8.35.73-9.63,1.82-1.63,1.27-2.18,3.09-2.18,7.81v44.51Z"/><path d="M1667.39,644.54c-1.09,4.72-6,23.43-7.81,28.88h-88.29v-5.08c16.89-1.28,18.16-2.91,18.16-17.81V578.77c0-16.17-2-17.08-15.62-18.35v-5.09h55.59c17.08,0,24.16-.18,26.34-.36.19,4.54.91,18.17,1.64,27.8l-5.45.9a60.63,60.63,0,0,0-5.45-13.8c-2.91-6-7.09-7.27-18-7.27h-17.26c-5.63,0-6,.55-6,5.81v40.15h20.16c13.63,0,14.54-2.72,16.72-15.07h5.63v37.42h-5.63c-2.36-13.08-3.82-14.9-16.9-14.9h-20v36.16c0,12.71,4,13.8,13.08,14h16.9c11.08,0,12.89-1.64,16.89-6.36,3.45-3.82,7.27-11.27,9.81-16.72Z"/><path d="M1846.51,560.42c-11.44.73-15.62,3.63-16,12-.18,4.18-.55,11.81-.55,28.52v19.62c0,18.54-2.18,32.71-12.72,43.79-8.53,8.9-20.89,11.63-33.42,11.63-10.54,0-21.8-2.18-29.8-8.36-10.9-8.36-16.17-20.89-16.17-42.15V579.13c0-16.35-1.45-17.44-16-18.71v-5.09h47.78v5.09c-14.54.91-16,2.36-16,18.71v45.42c0,26.53,12.53,41.06,34.34,41.06,25.79,0,34-16,34-46.15V600.93c0-16.71-.55-23.61-.91-28.52-.54-8.17-4.72-11.26-18.17-12v-5.09h43.6Z"/><path d="M1918.64,583c-3.09-12-8.18-23.8-25.26-23.8-14.17,0-19.07,10.35-19.07,19.8,0,12.54,8,18.9,23.07,26.71,21.8,11.26,31.25,19.62,31.25,36.88,0,19.07-16.54,33.61-40,33.61-10.9,0-20.35-3.09-27.8-6-1.45-5.08-3.63-17.44-4.9-27.25l5.63-1.45c3.63,12.17,11.63,28,30.52,28,13.08,0,21.07-9.09,21.07-20.9,0-14-7.44-19.62-23.43-28.34-19.08-10.35-29.8-19.07-29.8-36,0-16.17,13.45-31.43,37.43-31.43,10.17,0,20.17,2.73,24,3.45.73,6.54,1.45,13.81,2.91,25.62Z"/><path d="M215.05,1054c16.39,2.73,29.7,10.58,29.7,27.14,0,11.61-6.49,20.83-16.56,26.29-8.87,5-17.58,6.66-29.53,6.66h-42v-4.78C171.18,1108,172,1106.44,172,1093v-68.45c0-14.17-1.53-15.37-15.36-16.56v-4.78h44.72c12.81,0,20.83,2.22,26.29,6a22.29,22.29,0,0,1,10.07,19.12C237.75,1044.31,224.61,1051.65,215.05,1054Zm-19.63-2c18.78,0,26.46-7.51,26.46-21.51,0-12-7.34-21.17-23.73-21.17-4.78,0-7.85.52-9.56,1.71-1.37,1-1.88,2.9-1.88,8.37V1052Zm-8.71,40.63c0,12.29,2.9,15.36,15,15.36,13.32,0,26.29-7.17,26.29-25.09,0-17.41-12.29-24.93-33.11-24.93h-8.2Z"/><path d="M347.34,1087c-1,4.44-5.64,22-7.34,27.15H257v-4.78c15.87-1.2,17.07-2.74,17.07-16.73v-67.43c0-15.19-1.88-16.05-14.68-17.24v-4.78h52.23c16,0,22.7-.17,24.75-.34.17,4.27.86,17.07,1.54,26.12l-5.12.85a56.69,56.69,0,0,0-5.12-13c-2.73-5.64-6.66-6.83-16.9-6.83H294.59c-5.29,0-5.63.51-5.63,5.46v37.72h19c12.8,0,13.65-2.56,15.7-14.16h5.29v35.16h-5.29c-2.22-12.29-3.58-14-15.87-14H289v34c0,11.95,3.75,13,12.29,13.15h15.87c10.42,0,12.12-1.54,15.88-6,3.24-3.58,6.83-10.58,9.22-15.7Z"/><path d="M418.51,1029.12c-2.9-11.27-7.68-22.37-23.72-22.37-13.32,0-17.93,9.73-17.93,18.61,0,11.78,7.51,17.75,21.68,25.09,20.49,10.59,29.36,18.44,29.36,34.66,0,17.92-15.53,31.58-37.55,31.58-10.24,0-19.12-2.91-26.12-5.64-1.36-4.78-3.41-16.38-4.61-25.6l5.29-1.37c3.42,11.44,10.93,26.29,28.68,26.29,12.29,0,19.8-8.53,19.8-19.63,0-13.14-7-18.44-22-26.63-17.92-9.73-28-17.92-28-33.8,0-15.19,12.63-29.53,35.16-29.53,9.56,0,18.95,2.56,22.54,3.24.68,6.15,1.36,13,2.73,24.07Z"/><path d="M442.58,1114.13v-4.78c14-1.54,15.36-2.22,15.36-16.73v-67.77c0-14.68-1.36-15.36-15.36-16.9v-4.78h45.75V1008c-14.17,1.54-15.54,2.22-15.54,16.9v67.77c0,14.68,1.37,15.19,15.54,16.73v4.78Z"/><path d="M553,1003.17c24.07,0,39.26,4.78,49.84,14.85,8.37,8.19,14.51,20.14,14.51,36.53,0,20-8.19,36.19-21.33,46.09-13,9.73-29.54,13.49-50.53,13.49H505.56v-4.78c14.68-1.37,15.37-2.56,15.37-16.56v-68.11c0-14.68-2-15.37-15.37-16.73v-4.78Zm-17.24,88.25c0,12.8,5.46,16.39,18.26,16.39,30.73,0,46.43-21,46.43-50.87,0-18.61-6.31-32.77-19.8-41-7.85-5-17.75-6.83-29.19-6.83-7.68,0-11.78,1-13.48,2.39-1.54,1-2.22,2.91-2.22,9.56Z"/><path d="M722.52,1087c-1,4.44-5.63,22-7.34,27.15h-83v-4.78c15.87-1.2,17.07-2.74,17.07-16.73v-67.43c0-15.19-1.88-16.05-14.68-17.24v-4.78h52.23c16,0,22.71-.17,24.75-.34.17,4.27.86,17.07,1.54,26.12l-5.12.85a56.69,56.69,0,0,0-5.12-13c-2.73-5.64-6.66-6.83-16.9-6.83H669.77c-5.29,0-5.63.51-5.63,5.46v37.72h19c12.8,0,13.65-2.56,15.7-14.16h5.29v35.16h-5.29c-2.22-12.29-3.58-14-15.87-14H664.14v34c0,11.95,3.75,13,12.29,13.15H692.3c10.42,0,12.12-1.54,15.88-6,3.24-3.58,6.83-10.58,9.22-15.7Z"/><path d="M890.82,1008c-10.75.68-14.68,3.41-15,11.27-.17,3.92-.51,11.09-.51,26.8v18.43c0,17.41-2,30.73-11.95,41.14-8,8.37-19.63,10.93-31.41,10.93-9.9,0-20.48-2-28-7.86-10.24-7.85-15.19-19.63-15.19-39.6v-43.53c0-15.36-1.36-16.39-15-17.58v-4.78h44.89V1008c-13.65.85-15,2.22-15,17.58v42.68c0,24.92,11.78,38.58,32.27,38.58,24.23,0,31.92-15,31.92-43.36V1046c0-15.71-.52-22.2-.86-26.8-.51-7.69-4.44-10.59-17.07-11.27v-4.78h41Z"/><path d="M958.59,1029.12c-2.91-11.27-7.69-22.37-23.73-22.37-13.32,0-17.93,9.73-17.93,18.61,0,11.78,7.52,17.75,21.68,25.09C959.1,1061,968,1068.89,968,1085.11c0,17.92-15.53,31.58-37.55,31.58-10.24,0-19.12-2.91-26.12-5.64-1.36-4.78-3.41-16.38-4.61-25.6l5.29-1.37c3.42,11.44,10.93,26.29,28.68,26.29,12.29,0,19.8-8.53,19.8-19.63,0-13.14-7-18.44-22-26.63-17.92-9.73-28-17.92-28-33.8,0-15.19,12.63-29.53,35.16-29.53,9.56,0,18.95,2.56,22.54,3.24.68,6.15,1.36,13,2.73,24.07Z"/><path d="M435,1616.23c16.39,2.74,29.7,10.59,29.7,27.15,0,11.6-6.49,20.82-16.56,26.28-8.87,4.95-17.58,6.66-29.53,6.66h-42v-4.78c14.51-1.36,15.36-2.9,15.36-16.39V1586.7c0-14.17-1.54-15.36-15.36-16.55v-4.78h44.72c12.8,0,20.83,2.21,26.29,6a22.31,22.31,0,0,1,10.07,19.12C457.74,1606.5,444.6,1613.84,435,1616.23Zm-19.63-2c18.77,0,26.46-7.51,26.46-21.51,0-12-7.34-21.17-23.73-21.17-4.78,0-7.85.51-9.56,1.71-1.37,1-1.88,2.9-1.88,8.36v32.61Zm-8.71,40.62c0,12.29,2.9,15.37,15,15.37,13.32,0,26.29-7.17,26.29-25.1,0-17.41-12.29-24.92-33.12-24.92H406.7Z"/><path d="M567.33,1649.18c-1,4.44-5.64,22-7.34,27.14H477v-4.78c15.87-1.19,17.07-2.73,17.07-16.73v-67.42c0-15.2-1.88-16.05-14.68-17.24v-4.78h52.23c16.05,0,22.7-.18,24.75-.35.17,4.27.86,17.07,1.54,26.12l-5.12.86a57.45,57.45,0,0,0-5.12-13c-2.73-5.63-6.66-6.83-16.9-6.83H514.58c-5.29,0-5.63.52-5.63,5.47v37.72h18.94c12.81,0,13.66-2.56,15.71-14.17h5.29v35.17H543.6c-2.22-12.29-3.59-14-15.88-14H509v34c0,12,3.75,13,12.29,13.14h15.87c10.42,0,12.12-1.53,15.88-6,3.24-3.59,6.83-10.58,9.22-15.71Z"/><path d="M669.23,1592.17c-1.54-5.47-3.58-11.1-5.46-14.17-2.73-4.61-4.44-5.81-13.83-5.81H632.87v83.14c0,13.31,1.37,15.19,17.58,16.21v4.78H600.78v-4.78c15.87-1,17.24-2.73,17.24-16.21v-83.14H602.49c-9.39,0-12.12,1-15,6.15-2,3.41-3.41,7.51-5.63,13.83h-5.12c1-10.42,2-21.17,2.56-30.73h3.93c2.56,4.1,4.43,3.93,9.21,3.93H660c4.78,0,6.15-.69,8.71-3.93h4.1c0,8,.68,20.31,1.53,30.21Z"/><path d="M848.29,1570.15c-11.95,1.7-13.66,3.07-18.26,17.07-5.64,17.07-19.29,60.42-28.68,91h-5.81c-8.87-26.63-20.31-59.58-29.19-84.84-9.9,29.36-20,58.55-28.85,84.84h-5.63c-8.53-29.36-18.26-61.28-27.48-91.16-4.44-13.82-6.32-15.7-17.41-16.89v-4.78h42.16v4.78c-12.63,1.36-13,3.24-10.58,11.77,6.65,23,13.48,45.75,20.48,69.82,9.39-27.14,19.63-56.84,28.34-84.84h5.46c9.56,29,19.12,56,29,85,7.17-22.7,16.9-53.09,20.65-67.94,2.56-9.9,1.2-12.12-13.31-13.82v-4.78h39.09Z"/><path d="M944.56,1649.18c-1,4.44-5.64,22-7.34,27.14h-83v-4.78c15.87-1.19,17.07-2.73,17.07-16.73v-67.42c0-15.2-1.88-16.05-14.68-17.24v-4.78h52.23c16,0,22.7-.18,24.75-.35.17,4.27.86,17.07,1.54,26.12l-5.12.86a57.45,57.45,0,0,0-5.12-13c-2.73-5.63-6.66-6.83-16.9-6.83H891.81c-5.29,0-5.63.52-5.63,5.47v37.72h19c12.8,0,13.65-2.56,15.7-14.17h5.29v35.17h-5.29c-2.22-12.29-3.58-14-15.88-14H886.18v34c0,12,3.75,13,12.29,13.14h15.87c10.42,0,12.12-1.53,15.88-6,3.24-3.59,6.83-10.58,9.22-15.71Z"/><path d="M1045.1,1649.18c-1,4.44-5.64,22-7.35,27.14h-83v-4.78c15.88-1.19,17.07-2.73,17.07-16.73v-67.42c0-15.2-1.87-16.05-14.68-17.24v-4.78h52.24c16,0,22.7-.18,24.75-.35.17,4.27.85,17.07,1.54,26.12l-5.12.86a57,57,0,0,0-5.13-13c-2.73-5.63-6.65-6.83-16.89-6.83H992.35c-5.29,0-5.63.52-5.63,5.47v37.72h18.94c12.81,0,13.66-2.56,15.71-14.17h5.29v35.17h-5.29c-2.22-12.29-3.59-14-15.88-14H986.72v34c0,12,3.75,13,12.29,13.14h15.87c10.41,0,12.12-1.53,15.88-6,3.24-3.59,6.82-10.58,9.21-15.71Z"/><path d="M1175,1570.15c-10.92,1.19-14.51,2.9-15,10.75-.17,5.46-.51,12.63-.51,28.51v68.45H1153l-73.06-89.28v42.68c0,15.36.52,23,.86,28,.34,8.71,4.61,11.27,16.9,12.29v4.78h-41.49v-4.78c10.59-.85,14.69-3.41,15.37-11.78.51-5.46.85-13.14.85-28.67v-43.53c0-4.78-.34-7.51-3.41-11.27-3.25-4.27-6.83-5.29-15.19-6.14v-4.78h25.6l72.38,85.86v-41.82c0-15.88-.34-23.22-.86-28.34-.51-7.68-4.43-10.07-18.09-10.92v-4.78H1175Z"/><path d="M1343.47,1570.15c-10.76.68-14.68,3.41-15,11.26-.18,3.93-.52,11.1-.52,26.8v18.44c0,17.41-2,30.72-12,41.14-8,8.36-19.63,10.92-31.4,10.92-9.91,0-20.49-2-28-7.85-10.24-7.85-15.19-19.63-15.19-39.6v-43.53c0-15.37-1.37-16.39-15-17.58v-4.78h44.9v4.78c-13.66.85-15,2.21-15,17.58v42.67c0,24.93,11.78,38.58,32.26,38.58,24.24,0,31.92-15,31.92-43.36v-17.41c0-15.7-.51-22.19-.85-26.8-.51-7.68-4.44-10.58-17.07-11.26v-4.78h41Z"/><path d="M1411.23,1591.31c-2.9-11.26-7.68-22.36-23.73-22.36-13.31,0-17.92,9.73-17.92,18.61,0,11.77,7.51,17.75,21.68,25.09,20.48,10.58,29.36,18.44,29.36,34.65,0,17.93-15.53,31.58-37.55,31.58-10.25,0-19.12-2.9-26.12-5.63-1.37-4.78-3.42-16.39-4.61-25.61l5.29-1.36c3.42,11.43,10.93,26.29,28.68,26.29,12.29,0,19.8-8.54,19.8-19.63,0-13.15-7-18.44-22-26.63-17.92-9.73-28-17.93-28-33.8,0-15.2,12.64-29.53,35.17-29.53,9.56,0,19,2.56,22.53,3.24.69,6.14,1.37,13,2.73,24.07Z"/><path d="M285.49,914.81a20.32,20.32,0,0,1-9.83-7.91,38.82,38.82,0,0,1-4.82-11.37,70.59,70.59,0,0,1-1.93-13.31q-.39-7.12-.77-14.07-1.53-26.61-.58-56.87t1.74-66.52v-2.31q-13.89-1.53-29.69-2.89t-30.46-1.74q-14.65-.37-27,.2t-19.67,3.27a35.31,35.31,0,0,0-7.9,3.47c-3.21,1.81-5.08,3.86-5.59,6.17,0,.26.06,1,.19,2.32a4.56,4.56,0,0,1-.58,3.08,1.87,1.87,0,0,1-2.31,1.16,4.81,4.81,0,0,1-2.7-1.93q-.76-.76-.77-7.52t5-15.61q5.4-9.25,12.92-13.69t19.28-5Q191.8,713.15,209,716t42.23,8.29q5,1.15,9.64,2.12c3.08.64,6,1.35,8.86,2.12q.39-13.11.39-21.4c0-5.52-.26-9.19-.77-11-1-2.82-1-5,0-6.55.77-1,2.12-1.55,4.05-1.55a26.22,26.22,0,0,1,6.55,1,47.82,47.82,0,0,1,7.52,2.7,26.88,26.88,0,0,1,6.56,4,41.66,41.66,0,0,1,10.68,13.11Q309,717,309,732.43a11.84,11.84,0,0,1-.19,1.92,12.06,12.06,0,0,0-.19,1.93,27.87,27.87,0,0,0,2.89.58,23.47,23.47,0,0,0,3.28.19,120.39,120.39,0,0,0,22.55.2q11.37-1,24.49-3.28,7.71-1.15,13.69-2.51a121.88,121.88,0,0,0,11.76-3.28c1.54-.51,2.12,0,1.73,1.55a5,5,0,0,1-1.73,3.08A48.1,48.1,0,0,1,375.72,739a74,74,0,0,1-13.11,3.86q-10,1.93-23.91,3.27a145.16,145.16,0,0,1-27,.2,15.31,15.31,0,0,1-4.24-.39l-7.94,57.84q-4,27.76-5.14,50.7T294,889q1.15,19.29,5.39,16.2,2.33-1.54,5.21-8.1t6.36-15.81q3.46-9.25,6.94-20.63t6.94-22.94q3.48-12.33,5.21-18.32t3.27-6h1.55c.51,0,.9.77,1.15,2.31q0,3.09-2.7,12.53t-6.16,21q-6.57,25.07-13.11,42.8T301.3,914a13.5,13.5,0,0,1-7.71,2.5A15.14,15.14,0,0,1,285.49,914.81Z"/><path d="M321.35,870.08q-.78-12.33-.77-23.71t.19-23.91q.19-12.53,1-27.18t1.92-33.16q1.92-32.77,1.34-47.24t-1.72-16.77c-1.54-3.09-2.12-5-1.74-5.78a22.1,22.1,0,0,1,1.35-2.32c.77-1,2.17-1.54,4.21-1.54a32.55,32.55,0,0,1,6.68.77,28.13,28.13,0,0,1,7.25,2.7,34.43,34.43,0,0,1,6.3,4.24c2,2.06,3.94,4.12,5.72,6.17a32.37,32.37,0,0,1,4.58,6.94,34.24,34.24,0,0,1,2.86,9.26,76.27,76.27,0,0,1,1,13.1,115.91,115.91,0,0,1-1.14,13.89q-1.15,8.87-2.68,19.08t-3.24,20.82q-1.71,10.62-2.86,18.7-1.92,10.8-2.87,20.83t-2.48,19.27c-.26.26-.39.46-.39.58s.13.07.39-.19a1.62,1.62,0,0,1,.38-1.16l-.38.39c.25-.51.38-.64.38-.39q10.45-33.91,22.25-49t19.55-15q11.59,0,16.83,6.74t5.62,27.19q0,9.65-.58,20.63t-1.16,21.78q-.57,10.8-1.16,20.44t-.57,16.19q-.39,8.88.57,12.92t2.51,2.89q1.54-1.15,4.82-8.67T423,879.72q4.43-12.35,9.45-28.34t10-34.51c.52-1.8,1.22-2.63,2.13-2.51s1.47.84,1.73,2.12a21.32,21.32,0,0,1-.39,4.24q-3.47,15-7.51,32.2t-8.87,31.62a125.6,125.6,0,0,1-10.41,23.9q-5.6,9.46-12.15,9.45a18.44,18.44,0,0,1-10.22-3.47q-5.21-3.46-9.25-10.8a74.57,74.57,0,0,1-6.75-18.5,114.61,114.61,0,0,1-2.7-26.61,218.81,218.81,0,0,1,2.7-32.77q2.7-17.73,6.94-35.48c.25-.77.13-1.21-.38-1.35a2.87,2.87,0,0,0-1.74.2,13.32,13.32,0,0,0-1.93,1,8.37,8.37,0,0,0-1.35,1,58.29,58.29,0,0,0-7.9,9.26,102.93,102.93,0,0,0-8.68,14.84q-4.24,8.68-8.09,18.9A188.41,188.41,0,0,0,351,855a156.23,156.23,0,0,0-4.43,27.76q-.58,11.57-.58,19.09a73.5,73.5,0,0,1-.58,11c-.38,2.31-1.87,3.6-4.43,3.85a9.29,9.29,0,0,1-6.75-1.54,39.28,39.28,0,0,1-4-3.47,26.19,26.19,0,0,1-2.89-6.75c-.91-3-1.8-6.29-2.7-10a101.86,101.86,0,0,1-2.12-12.15C322,878.44,321.6,874.19,321.35,870.08Z"/><path d="M545,815.71q-1.54,7.72-6.94,21.59T525.32,866a245.14,245.14,0,0,1-15.81,27.57q-8.47,12.72-16.19,18.51a27.82,27.82,0,0,1-15.42,5.59,41.69,41.69,0,0,1-17.55-2.7,49.08,49.08,0,0,1-16-10,40.53,40.53,0,0,1-10.8-16.38,88.35,88.35,0,0,1-3.85-24.49,105.54,105.54,0,0,1,2.7-27A89.26,89.26,0,0,1,442,812.43a55.64,55.64,0,0,1,16.58-18.31,37.08,37.08,0,0,1,9.83-5,44.35,44.35,0,0,1,23.13-1.55,25.56,25.56,0,0,1,10.22,4.63,27.72,27.72,0,0,1,8.29,13.3,47.25,47.25,0,0,1,1.93,17,48.45,48.45,0,0,1-3.86,16.19q-3.27,7.53-9.06,11-6.17,3.48-15.61,3.67a29.57,29.57,0,0,1-16.39-4A108.35,108.35,0,0,0,465,866.42a124.12,124.12,0,0,0,.38,19.66,53,53,0,0,0,3.86,16q2.89,6.57,8.68,6.56,5.39,0,11.37-5.21a82.63,82.63,0,0,0,12.15-13.69,199.24,199.24,0,0,0,12.14-19.08q6-10.6,11.18-21T534,830q4.05-9.26,6.36-15.43,1.53-2.68,3.08-2.31C544.47,812.5,545,813.66,545,815.71Zm-52.44,25.06a21.11,21.11,0,0,0,7.52-11.95,41.88,41.88,0,0,0,1-14.27,32.81,32.81,0,0,0-3.47-11.95q-2.7-5-6.17-5-2.7,0-5.78,3.66a46.64,46.64,0,0,0-6,9.64,135.78,135.78,0,0,0-5.59,13.5A148.12,148.12,0,0,0,469.41,840a11.13,11.13,0,0,0,4.63,2.51,27,27,0,0,0,6.55,1.16,23.32,23.32,0,0,0,6.75-.58A13,13,0,0,0,492.55,840.77Z"/><path d="M756.65,700.42q-32.39,7.73-54.93,7.91t-37.21-3.28q-14.65-3.46-22.94-8.87a78.33,78.33,0,0,1-12.15-9.25,29.5,29.5,0,0,1-6.17-8.1q-1.54-3.47-1-4.82c.38-.9,1.41-1,3.08-.19s3.53,2.44,5.59,5q4.24,5.4,13.88,7.9a101.39,101.39,0,0,0,22.37,2.9,214.76,214.76,0,0,0,27-1q14.26-1.35,27.95-3.66t25.43-5.21a145.54,145.54,0,0,0,19.38-6q17.67-6.95,37.35-13.88t39.13-12.34a337.08,337.08,0,0,1,38-8.29,131.45,131.45,0,0,1,34.51-1.16A71.46,71.46,0,0,1,944.27,647q12.35,7.14,19.28,21.4,6.56,13.5,2.32,25.64T952,712.76q-5,3.47-7.51,1.74c-1.68-1.16-1.35-2.76,1-4.82q6.17-5.4,6.36-11.38t-4.63-11.18q-4.81-5.21-14.65-8.87a80.32,80.32,0,0,0-23.33-4.43A227.87,227.87,0,0,0,866,675.75q-23.13,3.09-44.73,8.09-1.15,4.24-2.7,10.41l-3.27,13.11q-1.74,6.95-3.67,14.27t-3.47,13.5l-2.7,10.79h.39l-1.16,3.47-1.93,8.1A53.52,53.52,0,0,0,816.45,759a104.09,104.09,0,0,0,15.62-1.16,86.28,86.28,0,0,0,13.69-3.08q6-1.92,8.29-4.63c.51-.51.57.07.19,1.74s-.71,2.89-1,3.66q-1.93,11.19-7.33,16.58a26.17,26.17,0,0,1-12.72,7.13,49.79,49.79,0,0,1-16,1l-17.54-1.54q-1.15,6.56-1.93,13.88T796,809.16q-1,9.26-1.74,21.4t-1.54,28.72l5.4,5.79a226.4,226.4,0,0,1,21.59,26,247.19,247.19,0,0,1,17.35,28,143.49,143.49,0,0,1,11,26.41q3.66,12.52,2.12,21.4-1.94,11.17-9.25,17.54t-19.67,4.44a28.07,28.07,0,0,1-8.87-3.09,55.24,55.24,0,0,1-8.48-5.78q-6.55-4.63-13.88-14.65a117.37,117.37,0,0,1-11.95-20.05A221.92,221.92,0,0,1,763,903.62q-5.93-22.74-7.83-52.43l-.77-7-9.64-6.16a182.92,182.92,0,0,0-19.09-10.42,140.33,140.33,0,0,0-19.47-7.51,118.17,118.17,0,0,0-18.31-4,50.25,50.25,0,0,0-15.23,0,24.11,24.11,0,0,0-14.27,7.52q-5.4,6-7.33,15.61-1.54,10.41,1.55,23.14a104,104,0,0,0,9.06,24.1,85.72,85.72,0,0,0,13.69,19.47q7.7,8.1,15.8,9.64a8.64,8.64,0,0,0,4.25.38c1-.26,2.56-1.41,4.62-3.47,2.32-2,4-3,5-2.7s1.66,2.06,1.92,5.4q0,4.24-4.24,10a26.55,26.55,0,0,1-14.46,10.6,32.61,32.61,0,0,1-18.51-.38q-9.83-2.9-20.05-10.8a96.38,96.38,0,0,1-19.08-20.24,80.78,80.78,0,0,1-11.38-24.68,83,83,0,0,1-3.08-28.53,59.61,59.61,0,0,1,7.71-26q6.74-11.76,21-16.77,21.6-7.32,47.43-3.47T743.17,823q4.23,2.31,7.13,4.05c1.93,1.15,3,1.6,3.28,1.35q0-6.16.38-12c.26-3.33.44-6.68.58-10s.32-6.17.57-8.48c.25-2.83.64-6.49,1.14-11s1-9.32,1.53-14.46c-8.2-.52-15.19-.83-21-1s-10.67-.12-14.66,0a66.87,66.87,0,0,0-10,1,32.93,32.93,0,0,0-6.75,1.92A22.77,22.77,0,0,1,700,776c-1.54,0-2.31-.64-2.31-1.93q1.16-8.1,12.92-12.92T749,756.72l10.74.77q2.68-16.2,6.31-33t6.69-28.34l-9.93,2.7C760,699.65,757.92,700.17,756.65,700.42Zm38.19,178.91a180.73,180.73,0,0,0,1.73,26.61,173.54,173.54,0,0,0,4.44,21.2,140.31,140.31,0,0,0,6.36,18.13q3.66,8.47,7.52,17.35,4.23,9.25,8.67,13.69t8.29,4.43q10,1.15,8.1-26.22-.78-9.64-6-21.78a174.89,174.89,0,0,0-12.14-23.33A246.4,246.4,0,0,0,807.75,889,111.63,111.63,0,0,0,796,875.48c-.26-.26-.52,0-.77.77A10,10,0,0,0,794.84,879.33Z"/><path d="M904.34,797.59c2.31-3.6,4.11-5.84,5.4-6.75a10.19,10.19,0,0,1,4.24-1.73q8.1-.39,12.72,1.92c3.09,1.55,4.5,3.86,4.24,7a31.67,31.67,0,0,1-.38,8.09q-.78,5.79-2.32,12.34a293.15,293.15,0,0,0-6.17,37q-1.55,16.58-1.54,30.07-.39,8.88,1.35,14.27t4,5.78q1.53.39,3.47-3.47l5-10a62.76,62.76,0,0,0,3.47-7.52q1.93-4.81,4.24-11.18t4.63-13.5q2.31-7.12,4.63-14.07,5.4-16.2,11.57-35.48a2.82,2.82,0,0,0,1.54.58,3.46,3.46,0,0,1,1.93,1q-.78,3.85-2.9,12.14t-4.82,18.7q-2.7,10.41-6,21.79t-6.94,21.4q-3.67,10-7.14,17.35t-6.55,9.64a12,12,0,0,1-4.43,1.93c-1.42.26-2.77.51-4,.77a18,18,0,0,1-12.53-2.32q-6-3.46-10.22-11.56t-6.36-21A150.36,150.36,0,0,1,893.16,850l-4.25,15q-5.4,16.18-8.86,26a84.89,84.89,0,0,1-6.75,15.23q-3.28,5.41-7.14,7.33a21.37,21.37,0,0,1-9.63,1.93q-12,.76-19.86-10.22t-7.91-31a121.15,121.15,0,0,1,3.09-34.12A123.22,123.22,0,0,1,841.68,813a64,64,0,0,1,13.69-18.51q7.71-6.93,15.42-8.09a42,42,0,0,1,16,1.73q8.69,2.52,13.69,6.36Zm-6.17,20a50.12,50.12,0,0,0,2.31-7.33,41.51,41.51,0,0,0,1.16-5.39c0-.26-1.22-1-3.66-2.32s-4.7-2.44-6.75-3.47-3.67-1.41-4.82-1.15-2.38,1.41-3.67,3.47q-3.86,5.77-7.9,18.7t-7.33,27.57q-3.27,14.65-5,28.91t-1,23.14a8.89,8.89,0,0,1,.77,2.89,1.89,1.89,0,0,0,.38,1.35c-.25,0,.9-2.37,3.47-7.13s5.79-11,9.64-18.9,7.84-17,12-27.37A254.05,254.05,0,0,0,898.17,817.64Z"/><path d="M1104.07,804.14a157.19,157.19,0,0,1-1.35,25.84q-1.74,12.72-3.66,25.45-.78,5.77-1.55,12.91T1096.16,883q-.57,7.51-.77,14.46t-.19,11.95c0,2.06.13,3.22.39,3.47s.89-.13,1.92-1.16q2.7-2.69,8.29-15t11.38-27.95q5.77-15.62,10.6-31t6.75-23.91c1-.51,1.86-.89,2.51-1.15s.83.26.57,1.54a104.51,104.51,0,0,1-2.5,14.27q-2.13,9.25-5.21,20.62t-7.13,23.33q-4.05,12-8.1,22.56a186.53,186.53,0,0,1-7.9,18.12q-3.86,7.51-6.56,9.83A17.36,17.36,0,0,1,1094,926c-2.06.51-4.88,0-8.48-1.54q-5.79-2.72-10.41-9.84a63.79,63.79,0,0,1-7.52-17.15,111.92,111.92,0,0,1-3.85-22.56,159.81,159.81,0,0,1,.19-26q.38-6.95,1.35-15.61t2.12-16.39l-.39-.77v.38a39.88,39.88,0,0,0-4.24,9.26q-2.31,6.56-5,15.61t-5.4,19.28q-2.7,10.23-5,20.63-3.09,11.57-4.63,17.74t-3.28,8.67a6.22,6.22,0,0,1-3.66,2.9,29.83,29.83,0,0,1-5.4.38q-8.87,0-14.07-10.8t-5.21-39.33a189.76,189.76,0,0,1,1.74-31.61q2.11-14.65,1.73-22.37l.77-6.55-1.92,5q-3.87,7.73-8.29,22.75t-9.06,42q-3.87,15.42-6.75,24.48a83.5,83.5,0,0,1-5.4,13.69c-1.68,3.09-3.34,5.08-5,6a12.48,12.48,0,0,1-6,1.35q-6.16,0-10.8-6.36a55.82,55.82,0,0,1-7.71-16.39A120.46,120.46,0,0,1,950,871a194.88,194.88,0,0,1-1.35-22.17,177.15,177.15,0,0,1,.19-18.31,79,79,0,0,1,2.51-16A28.43,28.43,0,0,1,957,803.37a11.93,11.93,0,0,1,9.45-4.24,29,29,0,0,1,6.16.77,36.74,36.74,0,0,1,6.56,2.12,23,23,0,0,1,5.4,3.28,5.52,5.52,0,0,1,2.31,4.24,9.4,9.4,0,0,0-.38,4.63c0,1.8-.31,6-.9,12.72s-1.19,14.08-1.79,22.17-1.13,16.07-1.61,23.91-.72,13.95-.72,18.32c0,.51.12.77.36.77q.71.39,1.25-6.75t3.41-22.56q3.84-17.34,8.29-32.39t8.67-26a100.43,100.43,0,0,1,8.29-17.35c2.7-4.25,5.07-6.49,7.13-6.75,2.57-.25,5.34-.39,8.29-.39a12,12,0,0,1,7.91,2.89q3.46,2.89,5.78,9.84t2.32,19.66q0,6.94-.77,16.2T1041,846.17q-.58,8.49-1.16,15t-.58,8.1c0,.77.13,1.15.39,1.15l1.92-4.82c.78-1.92,1.74-4.62,2.9-8.09s2.75-8.16,4.82-14.08q5.39-15.4,10.6-27.37a158,158,0,0,1,9.45-18.9,83,83,0,0,1,5.2-7.13,15.06,15.06,0,0,1,3.86-3.47,6.31,6.31,0,0,1,2.89-1h1.93a32.93,32.93,0,0,1,14.26,5.78A14.74,14.74,0,0,1,1104.07,804.14Z"/><path d="M1121.42,848.87v-9.06q0-7.9.19-17.35t.58-17.54c.25-5.4.64-8.49,1.15-9.26q.78-1.53,4.63-1.73a49.34,49.34,0,0,1,8.48.38,59.82,59.82,0,0,1,9.26,1.93,24,24,0,0,1,7.71,3.66,18.6,18.6,0,0,1,5.78,8.49q1.93,5.4-.38,19.66-.78,3.47-1.74,9.83t-2.31,14.27q-1.35,7.9-2.7,16.19T1149.56,884a70.06,70.06,0,0,0-.77,13.69q.39,4.83,2.32,5.2t5-4.05q3.08-4.42,7.32-14.45t9.07-22.37q4.82-12.33,9.06-24.68t6.36-18.31c1.41-4,2.63-6,3.66-6h1.74c.64,0,1,.77,1,2.32q-.78,3.09-3.85,12.53t-6.56,21q-4.25,11.19-7.32,20.82t-6.17,17.74q-1.94,4.62-4.25,10.41a38,38,0,0,1-6,10.22,24.13,24.13,0,0,1-8.87,6.75q-5.21,2.31-12.15,0c-4.88-1.55-8.55-4.88-11-10a63.54,63.54,0,0,1-5.2-17.54,130.39,130.39,0,0,1-1.54-20.25Zm27-70.17a16.43,16.43,0,0,1-9.83-2.9,16,16,0,0,1-5.79-7.32,20,20,0,0,1-1.16-9.64,16.6,16.6,0,0,1,4.44-9.45,15.55,15.55,0,0,1,7.52-5.78,20.58,20.58,0,0,1,8.67-1.16,17.68,17.68,0,0,1,8.1,2.89,11.48,11.48,0,0,1,5,6.75,19.5,19.5,0,0,1,.77,7.91,22.24,22.24,0,0,1-2.5,8.48,20.62,20.62,0,0,1-6,6.94A17.11,17.11,0,0,1,1148.41,778.7Z"/><path d="M1179.25,886.66q-1.92-17.73-1.73-51.86t2.12-77.31q.38-16.2.58-26.41t.19-16.39c0-4.11-.07-7.33-.19-9.64s-.2-4.37-.2-6.17a36.78,36.78,0,0,1-1.15-7.13,5.85,5.85,0,0,1,.77-3.28c.77-1,2.2-1.54,4.27-1.54a33.92,33.92,0,0,1,6.82.77,28.85,28.85,0,0,1,7.4,2.7,35.3,35.3,0,0,1,6.43,4.24,53.54,53.54,0,0,1,10.7,13.69q4.1,7.51,4.09,22.94-.39,5-1.56,13.88t-2.53,19.09q-1.37,10.21-2.72,20.82t-2.53,18.7q-4.29,27.76-5.65,50.32t.2,34.89q1.93,18.9,5.45,16.2c1.55-1,3.31-3.73,5.25-8.1s4.08-9.64,6.4-15.81,4.63-13,6.95-20.63,4.62-15.23,6.94-22.94q3.46-12.33,5.2-18.32t3.28-6h1.54c.51,0,.9.77,1.16,2.31,0,2.06-.91,6.24-2.7,12.53s-3.86,13.31-6.17,21q-6.55,25.07-13.12,42.8T1212,914a13.69,13.69,0,0,1-7.79,2.5,15.37,15.37,0,0,1-8.17-1.73,24.89,24.89,0,0,1-10.9-10.41A49.3,49.3,0,0,1,1179.25,886.66Z"/><path d="M1303.79,813q-1.15,6.57-3.47,19.47t-5.39,27q-3.09,14.07-7.14,27t-9.06,19.47a24.86,24.86,0,0,1-8.29,7.71,16.65,16.65,0,0,1-10.6,1.93q-12.35-1.16-19.28-10a42.47,42.47,0,0,1-8.48-21.59,93.83,93.83,0,0,1,0-20.82q1.15-11.57,2.89-23.71t3.08-24.1a147.6,147.6,0,0,0,1-22q0-3.86,4.24-4.44a19.54,19.54,0,0,1,9.64,1.55,50.67,50.67,0,0,1,10.6,5.78q5.2,3.68,6.36,8.29,2.33,7.71,1.74,20.82t-2.12,27q-1.55,13.89-3.28,26.8a160,160,0,0,0-1.73,19.86c0,4.37.44,6.81,1.34,7.32s2.64-.64,5.21-3.47a64.64,64.64,0,0,0,7.13-13.3q3.66-8.67,7.14-19.09v-.38q2.31-7.71,4.24-14.46a99.84,99.84,0,0,0,2.7-11.76q1.53-8.48,3.47-18.12T1299,808q1.33-8.1,2.5-13.69t1.93-6.36a11.15,11.15,0,0,1,6.94-4.05q4.62-1,9.64,4.82a32.85,32.85,0,0,1,6.36,11.57,106.62,106.62,0,0,1,4.05,16.19q1.53,8.88,2.31,18.51t.77,18.89v10.8c1.55-1,3.79-3.86,6.75-8.48s6.17-9.77,9.64-15.43,6.75-11.24,9.83-16.77a130.4,130.4,0,0,1,7.72-12.53c.51-.51,1.09-.25,1.73.77a4.66,4.66,0,0,1,.58,3.47q-1.15,2.7-4.44,9.26t-8.09,15.23q-4.83,8.67-10.61,18.12t-11.95,17.93q-.78,10.8-1.73,20t-2.12,18.31q-1.17,9.06-2.9,18.13t-4.43,19.47a179.06,179.06,0,0,1-8.68,26.22,182.67,182.67,0,0,1-11.18,22.36,146.57,146.57,0,0,1-12.14,17.55,78.43,78.43,0,0,1-11.57,11.76q-17.36,12.72-29.69,7.32a15.66,15.66,0,0,1-5.59-5,18.52,18.52,0,0,1-3.28-7.33q-1.93-6.93.77-16.58a119.07,119.07,0,0,1,7.91-20.24,238.25,238.25,0,0,1,12-21.4q6.74-10.8,13.49-20.24t12.34-17q5.6-7.51,8.29-11.37a39.42,39.42,0,0,0,2.32-3.86,18.69,18.69,0,0,0,1.35-4q.57-2.5,1.35-6.55t1.92-11.38q1.15-9.63,1.93-20.24t1.35-20.82q.59-10.21.77-19.47t.19-16.58q-.37-14.26-1.54-12.73Zm-17.73,169.66q1.53-5.79,3.66-14.65t3.86-17.16q1.73-8.29,2.89-14.65c.77-4.25,1-6.62.77-7.14,0-.26-1.1,1-3.28,3.67s-4.82,6.17-7.9,10.41-6.3,8.73-9.64,13.49a125.53,125.53,0,0,0-8.1,12.92q-5.4,9.63-8.87,17a142.75,142.75,0,0,0-5.59,13.31,79.11,79.11,0,0,0-3.08,10.79,80.5,80.5,0,0,0-1.35,9.45q-.78,10,4.82,11.76t14.46-9.45q3.07-3.86,8.29-15.42A201.58,201.58,0,0,0,1286.06,982.67Z"/><path d="M417.46,1448.73a20.67,20.67,0,0,1-10.06-8.08,39.82,39.82,0,0,1-4.93-11.63,71.92,71.92,0,0,1-2-13.6q-.39-7.29-.79-14.39-1.56-27.21-.59-58.16t1.78-68v-2.37q-14.2-1.56-30.36-3t-31.15-1.78q-15-.39-27.6.2c-8.41.39-15.12,1.52-20.11,3.35a35.53,35.53,0,0,0-8.09,3.55q-4.92,2.76-5.71,6.31c0,.26.06,1,.19,2.37a4.65,4.65,0,0,1-.59,3.15,1.9,1.9,0,0,1-2.36,1.18,4.93,4.93,0,0,1-2.76-2c-.53-.52-.79-3.09-.79-7.69s1.71-9.92,5.12-16q5.54-9.46,13.21-14t19.72-5.13q12-.58,29.57,2.37t43.17,8.47q5.13,1.18,9.86,2.17t9.07,2.17q.39-13.39.4-21.88t-.79-11.24c-1-2.89-1-5.13,0-6.7.79-1,2.17-1.58,4.14-1.58a26.55,26.55,0,0,1,6.7,1,48.32,48.32,0,0,1,7.69,2.76,27.65,27.65,0,0,1,6.7,4.14,42.26,42.26,0,0,1,10.92,13.4q4.45,8.28,4.46,24a12.45,12.45,0,0,1-.2,2,12.68,12.68,0,0,0-.2,2,29.72,29.72,0,0,0,3,.59,24.46,24.46,0,0,0,3.35.19,122.53,122.53,0,0,0,23.07.2q11.63-1,25-3.35,7.88-1.18,14-2.56t12-3.35c1.58-.53,2.17,0,1.78,1.57a5.18,5.18,0,0,1-1.78,3.16,49.86,49.86,0,0,1-11.83,6.31,75.82,75.82,0,0,1-13.4,3.94q-10.26,2-24.45,3.35a148.26,148.26,0,0,1-27.6.2,15.52,15.52,0,0,1-4.34-.4l-8.12,59.15q-4.05,28.38-5.26,51.85t-.42,35.29q1.19,19.71,5.52,16.56,2.37-1.58,5.32-8.28t6.51-16.17q3.56-9.47,7.1-21.09t7.1-23.46q3.54-12.62,5.32-18.73c1.18-4.08,2.3-6.11,3.35-6.11h1.58c.52,0,.91.78,1.18,2.36q0,3.16-2.76,12.82T460,1381.7q-6.71,25.65-13.41,43.77t-13,22.48a13.87,13.87,0,0,1-7.88,2.56A15.35,15.35,0,0,1,417.46,1448.73Z"/><path d="M454.13,1403q-.79-12.62-.79-24.25t.19-24.45q.2-12.81,1-27.8t2-33.91q2-33.51,1.37-48.3t-1.76-17.15q-2.37-4.73-1.78-5.91a22.33,22.33,0,0,1,1.38-2.37c.79-1,2.22-1.58,4.3-1.58a33.5,33.5,0,0,1,6.84.79,28.63,28.63,0,0,1,7.41,2.76,34.79,34.79,0,0,1,6.44,4.34q3.12,3.16,5.85,6.31a33.25,33.25,0,0,1,4.69,7.1,35.15,35.15,0,0,1,2.92,9.46,77.46,77.46,0,0,1,1,13.4,118.08,118.08,0,0,1-1.17,14.2q-1.17,9.08-2.73,19.52t-3.32,21.29q-1.76,10.85-2.92,19.12-2,11-2.94,21.29t-2.54,19.72c-.26.26-.39.46-.39.59s.13.07.39-.2a1.59,1.59,0,0,1,.4-1.18l-.4.39c.26-.52.4-.65.4-.39q10.68-34.69,22.75-50.08t20-15.37q11.86,0,17.21,6.9t5.74,27.8q0,9.86-.59,21.09t-1.18,22.28q-.6,11-1.18,20.9t-.6,16.56c-.26,6.05-.06,10.44.6,13.2s1.5,3.75,2.56,3,2.69-3.74,4.93-8.87,4.86-11.89,7.88-20.31,6.24-18.07,9.66-29,6.84-22.67,10.25-35.29c.53-1.83,1.25-2.69,2.17-2.56s1.51.86,1.78,2.17a22.41,22.41,0,0,1-.4,4.34q-3.54,15.38-7.69,32.92t-9.06,32.33a128.15,128.15,0,0,1-10.65,24.45q-5.72,9.66-12.42,9.66a18.79,18.79,0,0,1-10.45-3.55q-5.33-3.55-9.46-11a76,76,0,0,1-6.9-18.93,117.16,117.16,0,0,1-2.76-27.2,224.05,224.05,0,0,1,2.76-33.52q2.74-18.12,7.09-36.27.39-1.19-.39-1.38a3,3,0,0,0-1.77.19,15.23,15.23,0,0,0-2,1,7.69,7.69,0,0,0-1.38,1,59.12,59.12,0,0,0-8.08,9.46,106,106,0,0,0-8.87,15.18q-4.35,8.87-8.28,19.32a192.14,192.14,0,0,0-6.7,21.49A160.65,160.65,0,0,0,480,1416q-.58,11.82-.59,19.52a76.38,76.38,0,0,1-.59,11.23c-.4,2.37-1.91,3.68-4.54,4a9.55,9.55,0,0,1-6.89-1.58,41.46,41.46,0,0,1-4.15-3.55,26.91,26.91,0,0,1-2.95-6.9c-.93-3-1.84-6.44-2.76-10.25a102.37,102.37,0,0,1-2.17-12.42Q454.52,1409.3,454.13,1403Z"/><path d="M682.81,1347.4q-1.57,7.89-7.09,22.08t-13,29.38a252.87,252.87,0,0,1-16.17,28.19q-8.68,13-16.56,18.92a28.35,28.35,0,0,1-15.77,5.72,42.39,42.39,0,0,1-17.94-2.76,50.15,50.15,0,0,1-16.37-10.25,41.58,41.58,0,0,1-11-16.76,90.44,90.44,0,0,1-3.94-25,108.54,108.54,0,0,1,2.76-27.61,91.42,91.42,0,0,1,9.86-25.23,56.8,56.8,0,0,1,17-18.73,38.21,38.21,0,0,1,10.06-5.13,44.93,44.93,0,0,1,11.83-2.36,44.12,44.12,0,0,1,11.82.79,26,26,0,0,1,10.45,4.73,28.34,28.34,0,0,1,8.48,13.6,48.23,48.23,0,0,1,2,17.35,49.26,49.26,0,0,1-3.94,16.56q-3.36,7.7-9.27,11.24-6.3,3.54-16,3.75a30.19,30.19,0,0,1-16.75-4.15,110.48,110.48,0,0,0-2.17,17.55,126.18,126.18,0,0,0,.39,20.11,54.07,54.07,0,0,0,4,16.36q3,6.72,8.87,6.71,5.52,0,11.63-5.33a84.63,84.63,0,0,0,12.42-14,202.72,202.72,0,0,0,12.42-19.52q6.11-10.85,11.43-21.49t9.47-20.11q4.14-9.46,6.5-15.77,1.57-2.76,3.16-2.37C682.28,1344.12,682.81,1345.3,682.81,1347.4ZM629.19,1373a21.58,21.58,0,0,0,7.69-12.22,42.51,42.51,0,0,0,1-14.59,33.6,33.6,0,0,0-3.54-12.22q-2.77-5.13-6.31-5.13-2.78,0-5.92,3.75a47.6,47.6,0,0,0-6.11,9.85,143.31,143.31,0,0,0-5.72,13.8,149.51,149.51,0,0,0-4.73,16,11.26,11.26,0,0,0,4.73,2.56A27.39,27.39,0,0,0,617,1376a24.06,24.06,0,0,0,6.9-.59A13.45,13.45,0,0,0,629.19,1373Z"/><path d="M779.8,1333.21q-13.8-7.89-20.7-19.52T753,1285.1a71.07,71.07,0,0,1,4.34-21.88,90,90,0,0,1,25.82-37.46,70.46,70.46,0,0,1,19.52-12,62.5,62.5,0,0,1,29.57-5.12,41.81,41.81,0,0,1,20.51,7.1q9.46,6.3,10.64,18.53c.53,3.42.13,4.93-1.18,4.53s-2.63-1.77-3.94-4.14q-2-3.15-6.51-2.76a40.9,40.9,0,0,0-9.66,2.17,81.28,81.28,0,0,0-9.86,4.14c-3.15,1.58-5.39,2.76-6.7,3.55A70.3,70.3,0,0,0,808,1256.52,92.31,92.31,0,0,0,794.79,1276a65.18,65.18,0,0,0-6.51,20.51,34.51,34.51,0,0,0,2.17,18.53q3.56,8.28,12.81,13.4t25.44,4.74a161.22,161.22,0,0,0,21.49-1.58,182.59,182.59,0,0,0,22.67-4.53,137.79,137.79,0,0,0,20.7-7.3,63.52,63.52,0,0,0,16-9.86l4.33-17.74q16.56-62.29,36.28-93.84t45.74-33.52q11.43,0,17.74,6.9t6.31,20.28q-.79,9.45-6.31,23.43a189.81,189.81,0,0,1-14.79,29.15,285.43,285.43,0,0,1-21.48,30.32,220,220,0,0,1-25.63,27L946.2,1307a272.5,272.5,0,0,0-7.3,40.18q-2.17,20.47-2.56,39.58t.79,35.84q1.18,16.74,3.15,28.94,29.58,7.88,57.17,17.73t54.42,18.71q26.81,8.85,53.62,15.55a319.36,319.36,0,0,0,55.2,8.67q9.07.39,23.66-.2a111.85,111.85,0,0,0,28.19-4.73,58.17,58.17,0,0,0,22.67-12.42q9.07-8.28,7.1-23.27a6.06,6.06,0,0,0-2.56-3.15,4.43,4.43,0,0,1-2.17-3.55c0-1.32.52-2,1.58-2q7.48,1.18,12.81,9.86a44.82,44.82,0,0,1,6.51,17.74,48.8,48.8,0,0,1-2.76,24,43.11,43.11,0,0,1-15,18.93q-10.63,7.88-27.6,12.42t-40.61,3.74q-24.84-.39-56-8.87t-63.28-20.11q-32.15-11.62-62.7-24t-53.42-21.49a269.86,269.86,0,0,0-41.21-12.61,161.56,161.56,0,0,0-32.92-4q-30.36,0-45.94,8.87t-16.75,24.65c-.53,4.46-1.58,6.7-3.16,6.7a3.34,3.34,0,0,1-2.76-2q-1.18-2-.79-6.31a34.92,34.92,0,0,1,7.3-19.91q6.89-9.27,18.92-16A111.47,111.47,0,0,1,848.61,1444a163.36,163.36,0,0,1,37.26-3.94H902a148.85,148.85,0,0,1-2.95-26q-.6-15.37.39-31.74t3-31.94a212.54,212.54,0,0,1,4.73-26.22q-3.17,3.54-12.42,7.09a217.56,217.56,0,0,1-20.9,6.71,237,237,0,0,1-23.46,5.12,124.89,124.89,0,0,1-20.11,2Q801.49,1345,779.8,1333.21Zm169.94-46.92c-.53,2.89-.53,4.33,0,4.33.26,0,1.45-.85,3.55-2.56s4.47-3.75,7.1-6.11a130.42,130.42,0,0,0,18.93-21.1,193.43,193.43,0,0,0,15.77-25.43,205.6,205.6,0,0,0,11-25.23q4.33-12.23,4.73-21.3,1.18-14.58-7.1-14.58-6.71,0-14.39,9.66t-15.18,25.62a287.34,287.34,0,0,0-13.8,36.08Q954.08,1265.78,949.74,1286.29Z"/><path d="M996.67,1447.55q-18.54-6.69-25-21.68t-6.51-38.65a86.52,86.52,0,0,1,1-12.61,131.88,131.88,0,0,1,2.56-13,85.52,85.52,0,0,1,3.75-11.64,49.84,49.84,0,0,1,4.53-8.87q3.15-4.33,4.73-6.11a10.05,10.05,0,0,1,2.76-2.36,3.34,3.34,0,0,1,2.17-.4,5.66,5.66,0,0,0,3-.59c.52-.26.59-.26.2,0s-.34.13.19-.4q2.76-2.36,5.92-5.52t6.7-6.11a44,44,0,0,1,7.69-5.12,18.92,18.92,0,0,1,8.87-2.17q8.67,0,14.2,4.73a35.76,35.76,0,0,1,9.06,12.42,62,62,0,0,1,4.93,17.15,132.45,132.45,0,0,1,1.38,19.13q0,9.66-.79,18.53c-.53,5.91-1.18,11-2,15.18a45.47,45.47,0,0,0,12-11.63,120.5,120.5,0,0,0,10-16q4.34-8.28,7.49-15.58c2.11-4.86,3.68-8.6,4.74-11.23.26-.53.65-.6,1.18-.2a1,1,0,0,1,.39,1.38q0,5.52-3.55,15.18a149,149,0,0,1-8.87,19.52,110.26,110.26,0,0,1-12,17.94q-6.72,8.09-13.8,10.45a68.24,68.24,0,0,1-4.93,14.19,79.33,79.33,0,0,1-7.69,13,44.39,44.39,0,0,1-9.46,9.66,17.82,17.82,0,0,1-10.65,3.75,47.1,47.1,0,0,1-7.29-.59A35.31,35.31,0,0,1,996.67,1447.55Zm2-45.74a63.21,63.21,0,0,0-1.19,12.42,93.19,93.19,0,0,0,.79,12.42,60.84,60.84,0,0,0,2.17,10.26q1.38,4.33,3.75,5.52c2.1,1.31,4.53,1.38,7.29.19a25.62,25.62,0,0,0,8.28-6.11,52.72,52.72,0,0,0,7.69-10.64,60.19,60.19,0,0,0,5.52-13.41c0-.26-1.18-.59-3.55-1s-5.32-.85-8.87-1.38a70.28,70.28,0,0,1-11.43-2.76A31.42,31.42,0,0,1,998.64,1401.81Zm5.52-63.08c3.67,2.1,5.58,4,5.71,5.71a21.15,21.15,0,0,1-.59,6.12q-.39,2.76-1.77,8.28c-.93,3.68-1.84,7.49-2.76,11.43s-1.71,7.56-2.37,10.84a45.36,45.36,0,0,0-1,6.11q-.4,4.74,3.94,8.29a32.2,32.2,0,0,0,10.25,5.52,37.34,37.34,0,0,0,11.83,2q5.91,0,8.28-2.37,1.18-1.19,2.37-7.69t2-15.57a182.24,182.24,0,0,0,.59-19.13,114.92,114.92,0,0,0-1.78-18.53,39.08,39.08,0,0,0-5.12-14c-2.37-3.67-5.52-5.52-9.46-5.52q-6.32,0-11.83,6.51A61.2,61.2,0,0,0,1004.16,1338.73Z"/><path d="M1104.31,1388.41a244.32,244.32,0,0,0-.79,26.42,127.3,127.3,0,0,0,1.38,16,31.64,31.64,0,0,0,2.17,8.09c.78,1.57,1.57,2.36,2.36,2.36q3.55,0,8.08-9.23a207.53,207.53,0,0,0,8.88-21.42q4.33-12.18,7.49-24t3.55-16.9a79.71,79.71,0,0,0-.2-12.18q-.59-8.65-.39-17.69a57.07,57.07,0,0,1,2.36-15.92q2.16-6.87,7.69-6.88a9.6,9.6,0,0,1,6.7,3.15q2.37,2.77,2,9.47c-.26,1-.59,2.83-1,5.32s-.79,5.07-1.18,7.69-.73,5.19-1,7.69-.39,4.27-.39,5.32a30.11,30.11,0,0,0-.79,7.3,17.43,17.43,0,0,0,.79,6.11q2,5.13,5.32,6.31a17.28,17.28,0,0,0,5.32,1.18q4.33,0,8.68-4.14a55.9,55.9,0,0,0,7.88-9.46q3.55-5.32,6.31-10.26a72.71,72.71,0,0,1,3.94-6.5,1.62,1.62,0,0,0,1.19.39l1.57.79q-1.17,3.55-3.74,9.66a65.09,65.09,0,0,1-6.51,11.83,46.53,46.53,0,0,1-9.07,9.86,17.23,17.23,0,0,1-11,4.14,24.31,24.31,0,0,1-9.07-1.58q-3.94-1.57-6.3-2.76-.4-.39-4.74,15.38-9.08,29.17-17.94,43.17t-21.88,13.61q-21.29-.42-29.57-22.88t-5.13-65.45q1.18-12.62,1.38-19.32t.2-10.25a14.3,14.3,0,0,0,.39-5.52c-.26-1.31-.13-2.23.4-2.76.26-2.62,2-3.94,5.12-3.94a24.31,24.31,0,0,1,10.45,2.76,48.42,48.42,0,0,1,11,7.49q5.33,4.74,6.51,10.25a42,42,0,0,1,3.55,11,57.58,57.58,0,0,1,.39,15.38q0,.4-.39,3.15t-.79,5.92c-.27,2.11-.46,4.08-.59,5.91s-.2,2.9-.2,3.16Z"/><path d="M1290.8,1347.4q-1.58,7.89-7.09,22.08t-13,29.38a252.87,252.87,0,0,1-16.17,28.19q-8.68,13-16.56,18.92a28.35,28.35,0,0,1-15.77,5.72,42.39,42.39,0,0,1-17.94-2.76,50.15,50.15,0,0,1-16.37-10.25,41.58,41.58,0,0,1-11-16.76,90.07,90.07,0,0,1-3.94-25,108.54,108.54,0,0,1,2.76-27.61,91.42,91.42,0,0,1,9.86-25.23,56.8,56.8,0,0,1,17-18.73,38.21,38.21,0,0,1,10.06-5.13,44.93,44.93,0,0,1,11.83-2.36,44.12,44.12,0,0,1,11.82.79,26,26,0,0,1,10.45,4.73,28.34,28.34,0,0,1,8.48,13.6,48.23,48.23,0,0,1,2,17.35,49.26,49.26,0,0,1-3.94,16.56q-3.36,7.7-9.27,11.24-6.3,3.54-16,3.75a30.19,30.19,0,0,1-16.75-4.15,110.48,110.48,0,0,0-2.17,17.55,126.18,126.18,0,0,0,.39,20.11,54.07,54.07,0,0,0,3.95,16.36q3,6.72,8.87,6.71,5.5,0,11.63-5.33a84.63,84.63,0,0,0,12.42-14,202.72,202.72,0,0,0,12.42-19.52q6.11-10.85,11.43-21.49t9.47-20.11q4.14-9.46,6.5-15.77,1.58-2.76,3.16-2.37C1290.28,1344.12,1290.8,1345.3,1290.8,1347.4ZM1237.18,1373a21.58,21.58,0,0,0,7.69-12.22,42.51,42.51,0,0,0,1-14.59,33.6,33.6,0,0,0-3.54-12.22q-2.77-5.13-6.31-5.13-2.77,0-5.92,3.75a47.6,47.6,0,0,0-6.11,9.85,143.31,143.31,0,0,0-5.72,13.8,149.51,149.51,0,0,0-4.73,16,11.26,11.26,0,0,0,4.73,2.56A27.3,27.3,0,0,0,1225,1376a24.06,24.06,0,0,0,6.9-.59A13.45,13.45,0,0,0,1237.18,1373Z"/><path d="M1102.91,1175.33l-.19-4c9.56-1.6,10.64-3,8.51-8.37s-5.39-12.63-9.1-21.53q-17,.75-33.94,2.65c-1.79,6.71-3.44,12.56-4.81,18.67-2.17,9.67.16,10.4,12.43,10.58.16,1.6.25,2.4.41,4q-17,1.76-33.78,4.72l-.7-4c9.07-2.76,11.17-4,14.7-17.6a826.07,826.07,0,0,1,25.92-78.62c2.23-.51,3.35-.76,5.58-1.25a821.71,821.71,0,0,1,34.68,75.41c4.93,12.48,6.17,13.55,16.61,15,0,1.61-.08,2.42-.13,4Q1121,1174.51,1102.91,1175.33Zm-20.57-75.46q-6.67,18.89-12.42,38.09c9.9-1,19.78-1.87,29.72-2.32Q1091.33,1117.56,1082.34,1099.87Z"/><path d="M1267.31,1103.84c-11-1.85-15.07-1.1-16.91,5.14-1.27,4.32-2.9,10.24-5.93,23.26q-6.53,28.07-13,56.13c-2.16-.5-3.24-.75-5.41-1.22a550.57,550.57,0,0,0-55.29-84.24l-3,35.8c-1.09,12.89-1.11,19.44-1.23,23.55-.22,7.22,3.19,9.69,13.63,11.78-.19,1.6-.28,2.4-.47,4q-17.64-2.07-35.41-2.8c.06-1.61.1-2.41.16-4,9.18-.34,12.82-2.23,13.95-9.16.73-4.53,1.53-11,2.45-24q1.31-18.29,2.59-36.56c.29-4,0-6.35-2.76-9.69-3-3.67-6.64-4.92-15.13-6l.15-4c8.74.3,17.51.83,26.22,1.58a564.17,564.17,0,0,1,57.94,81.63l7.5-34.4a234.49,234.49,0,0,0,4.24-23.49c.72-6.32-2.58-9.39-16.12-12.59.29-1.58.43-2.37.72-4,14.18,2.74,28.2,5.85,42.2,9.37C1267.93,1101.5,1267.72,1102.28,1267.31,1103.84Z"/><path d="M1328.1,1119.22c16.1,6.09,34,15.67,41.63,31.87,5.1,10.78,4.14,23.48-1.22,33.9-6.76,13.16-20.48,23-35,25.84-15.28,3-30.67-1.85-45-6.71q-16.1-5.94-32.58-10.71l1.11-3.86c12.52,2.41,13.38,1.81,17-9.42q8.71-27.32,17.44-54.62c3.76-11.78,2-13.1-10.71-18,.45-1.54.67-2.32,1.12-3.86C1297.47,1108.34,1312.82,1113.5,1328.1,1119.22Zm-41.17,64c-3.56,10.18,0,14.53,10.35,18.52,22.38,8.59,45.37-1.22,55.91-22.29,6.25-12.5,5.85-28.1-3.1-39.48-6.48-8.27-16.17-12.85-25.27-16.64-7-2.93-11.63-3.26-13.59-2.85-1.67.34-2.93,1.55-4.78,6.85Q1296.69,1155.3,1286.93,1183.24Z"/><path d="M1072.79,1051.74a397.49,397.49,0,0,1,61.7-7.32,416.1,416.1,0,0,1,182.5,34.31,402,402,0,0,1,54.92,29.28c2.18,1.38,4.33,2.79,6.48,4.22,2.49,1.65,4.81-2.36,2.34-4a401.8,401.8,0,0,0-55.06-30.65,418.06,418.06,0,0,0-59.19-21.89,423.87,423.87,0,0,0-61.59-12.71,415.18,415.18,0,0,0-62.94-3.42,404.73,404.73,0,0,0-62.8,6.28q-3.81.68-7.59,1.44c-2.93.58-1.69,5,1.23,4.47Z"/><path d="M1102.33,1034.57a344.58,344.58,0,0,1,53.57-6.35,359,359,0,0,1,107.36,11.94,357.26,357.26,0,0,1,51.18,17.85,350.38,350.38,0,0,1,47.77,25.46c1.89,1.21,3.76,2.43,5.63,3.67,2.49,1.66,4.81-2.36,2.34-4a348.86,348.86,0,0,0-47.88-26.66,363.69,363.69,0,0,0-51.54-19.06,368.77,368.77,0,0,0-53.65-11.07,360.08,360.08,0,0,0-54.72-3,352.17,352.17,0,0,0-54.69,5.47q-3.32.59-6.61,1.25c-2.92.58-1.68,5.05,1.24,4.47Z"/><path d="M1026.24,1193.4a405.5,405.5,0,0,0,57.88,24.83,414.49,414.49,0,0,0,61,15.66,424.21,424.21,0,0,0,62.71,6.38,413.83,413.83,0,0,0,62.85-3.07,405.42,405.42,0,0,0,62-12.68q3.72-1.07,7.42-2.22c2.84-.88,1.63-5.36-1.24-4.47a399.92,399.92,0,0,1-60.85,13.74,409.13,409.13,0,0,1-62.16,4.2,414.34,414.34,0,0,1-122.58-19.42,398.61,398.61,0,0,1-57.74-23.42q-3.46-1.74-6.89-3.54c-2.64-1.38-5,2.62-2.34,4Z"/><path d="M1049.72,1218.22a353.52,353.52,0,0,0,50.4,21.62,360,360,0,0,0,53,13.62,369.31,369.31,0,0,0,54.61,5.56,360.45,360.45,0,0,0,54.66-2.67,352,352,0,0,0,54-11q3.24-.93,6.45-1.93c2.84-.88,1.63-5.36-1.23-4.47a349.77,349.77,0,0,1-52.92,11.95,355.71,355.71,0,0,1-54,3.64,360.26,360.26,0,0,1-106.51-16.88,346.45,346.45,0,0,1-50.14-20.33q-3-1.51-6-3.08c-2.64-1.38-5,2.62-2.34,4Z"/><path d="M229.43,1504.82c-3.18-3.69-6.38-7.17-9.32-10.86-3.59-4.5-7-9.13-10.37-13.8-.81-1.13-1.4-1.4-2.48-.66-3.95,2.68-7.95,5.29-11.82,8.07-8.17,5.88-16.5,11.48-25.73,15.62a78.45,78.45,0,0,1-29.78,6.6c-15.47.52-30.92,1.26-46.39,1.54a142.87,142.87,0,0,1-18.11-1.24c-3.9-.43-5.17-3.49-2.84-6.09a32.19,32.19,0,0,1,3.42-3.39c5.58-4.55,11.09-9.19,16.85-13.49,12.09-9,24.72-17.17,38.64-23.15,8.66-3.72,17.8-4.93,27.12-5.22,13.36-.4,26.59.54,39.59,3.84l2.15.55-5.31-23.29c-2.3.1-5.05.25-7.81.36a140.81,140.81,0,0,1-46.17-6.22,118.73,118.73,0,0,1-34.74-16.84c-5.58-4-10.77-8.47-16.07-12.8a84,84,0,0,1-16-17.72,19.46,19.46,0,0,1-2.62-5.84c-.8-3,.09-4.77,3-5.32a51.47,51.47,0,0,1,11.55-.9c10.84.5,21.29,3.3,31.75,6A151.48,151.48,0,0,1,166.38,1403c8.5,5.86,17.13,11.51,25.71,17.24.73.49,1.53.87,2.36,1.34.59-11.42,1.17-22.65,1.75-34-9,1.67-17.17-1.31-25.23-4.65a126.13,126.13,0,0,1-30.45-17.42c-5.9-4.69-11.12-10.27-16.38-15.71-4.15-4.27-8-8.82-11.79-13.46-4.82-6-9.72-11.92-13.08-18.92a9.3,9.3,0,0,1-.52-1.36c-1.2-3.89,0-5.86,4-5.49a63.59,63.59,0,0,1,12.46,2.44,206.52,206.52,0,0,1,44.27,19.39,82.52,82.52,0,0,1,13.23,10c7.52,6.71,14.72,13.79,22.08,20.69,1.2,1.13,2.52,2.13,3.91,3.3.91-5.94,1.6-11.79,2.77-17.55,1-4.79.84-8.79-1.95-13.39-4.8-7.91-6.29-17.18-7.73-26.29a137,137,0,0,1-1.21-27.74,88.16,88.16,0,0,1,5.71-26,142.57,142.57,0,0,1,14.67-28.77c2.95-4.54,6.17-8.9,9.16-13.42a2.63,2.63,0,0,1,3.27-1c.58.15,1.18,1.26,1.27,2,.83,6.28,1.69,12.56,2.25,18.87.69,7.77,1.34,15.55,1.58,23.34.29,9.19.76,18.44,0,27.58-1.35,16.66-4.79,32.94-12.11,48.14-1.3,2.68-3.42,5-5.35,7.33-.74.9-2,1.35-3.07,2v32c2.79-2.7,5.09-5,7.43-7.17,9-8.45,17.5-17.45,27.78-24.3a165.17,165.17,0,0,1,21.22-11.62c7.34-3.45,15-6.31,22.62-9.09,5.54-2,11.19-3.9,17.24-3.78,3.15.07,4.22,1.08,3.26,4.14a26.67,26.67,0,0,1-3.75,7.6c-4.58,6.37-9.2,12.74-14.29,18.7-5.26,6.18-11,11.94-16.69,17.76-6.92,7.1-15.26,12.24-24,16.86s-17.52,9-27.24,10.85c-4.18.82-8.53.72-13.2,1.07.29,7.85.59,16.32.91,25.17.92-.41,1.56-.72,2.21-1,9.4-4,18.63-8.5,28.26-11.83a90.36,90.36,0,0,1,20.41-4q19.53-1.9,39.18-2.61a63.18,63.18,0,0,1,15.08,1.73c5.22,1.09,6.11,4.91,2.51,8.9-6.51,7.2-14.58,12.37-22.64,17.54a108.74,108.74,0,0,1-43.92,16.74c-11.45,1.62-22.88,2-34.24-.74-.74-.18-1.45-.49-2.18-.71s-1.44-.41-2.32-.65a46.21,46.21,0,0,0,5,17.25c2.8,5.27,6.09,10.28,9.11,15.44.95,1.62,2,1.92,3.88,1.39,15.41-4.32,30.76-9,46.35-12.55,10-2.27,20.36-3.2,30.61-4,10.54-.88,21.15-1.12,31.74-1.27a39.43,39.43,0,0,1,15.41,2.34c3.26,1.31,4.12,4.68,1.35,6.87a122.36,122.36,0,0,1-14.45,10.16c-13.15,7.61-26.81,14.23-41.33,18.87a81.21,81.21,0,0,1-32,3.28A103.56,103.56,0,0,1,244.7,1496c-.45-.14-.92-.21-1.95-.45,1.82,1.92,3.25,3.47,4.73,5,6.5,6.62,13.11,13.12,19.49,19.85a113.94,113.94,0,0,1,16.36,23.08c14,25,22.85,51.87,28.43,79.88,1,4.88.4,5.89-4.64,6.39a74.65,74.65,0,0,1-11.85-.31c-2.42-.15-3-2-3.3-4.09a218.13,218.13,0,0,0-10.23-41.92c-5.75-16.8-13.13-32.85-23.82-47.1-5.19-6.93-11.27-13.19-16.93-19.78-.9-1-1.73-1.1-2.51,0-2.7,3.93-5.57,7.76-8,11.84-5.62,9.41-11.83,18.32-20,25.73a83.08,83.08,0,0,1-19,12.63,237,237,0,0,1-54.39,19.38c-5.18,1.16-10.55,1.47-15.84,2.15-2.72.35-3.74-1.72-2.18-4.58,1.39-2.57,3.62-4.7,5.56-7,10.14-11.75,20.61-23.21,31.85-33.93,8.71-8.31,18.09-15.68,28.87-21.26,11.39-5.9,22.92-11.43,35.34-14.85C223.52,1505.94,226.39,1505.47,229.43,1504.82ZM77.4,1506c1.39.23,2.19.44,3,.48,4.18.22,8.36.65,12.52.53q25-.71,49.91-1.72c14.34-.6,27-6.19,38.75-14,8.29-5.47,16.34-11.29,24.59-17-.76-1.47-1.64-3.28-2.63-5a2.23,2.23,0,0,0-1.31-.83c-4.31-1.13-8.59-2.42-13-3.25a133.93,133.93,0,0,0-34.1-2,63.53,63.53,0,0,0-20.48,4.49,150.64,150.64,0,0,0-22.43,11.86A266.42,266.42,0,0,0,77.4,1506Zm117.72-70.52c0-1-.07-1.79,0-2.54.37-3.51-.65-5.81-4-7.89-10.88-6.73-21.48-13.93-32.1-21.08a133.19,133.19,0,0,0-36.39-17.27c-11.42-3.42-22.91-6.54-34.81-7.68a70.83,70.83,0,0,0-10.19.2c-1.37.06-1.81.93-1.06,2.17a23.53,23.53,0,0,0,2.35,3.66c4.47,5,8.86,10.1,13.62,14.82a113.91,113.91,0,0,0,12,10.23,124.11,124.11,0,0,0,38.7,19.9,136.43,136.43,0,0,0,42.84,6C189.07,1435.92,192,1435.63,195.12,1435.44Zm-70,148.5c2.14-.34,3.66-.51,5.15-.81a241.43,241.43,0,0,0,54.93-18.43c9.74-4.59,18.77-10.22,26.2-18.13A118,118,0,0,0,225.75,1527c3.2-5.23,5.8-10.87,10.37-15.22-1.09-1.65-2.25-3-4.54-2.51-1.84.35-3.76.3-5.58.71-9.29,2.08-18,5.86-26.61,9.75a136.53,136.53,0,0,0-40.76,27.65q-6.74,6.71-13.23,13.66c-5.58,6-11,12.1-16.52,18.19C127.64,1580.64,126.54,1582.14,125.1,1583.94Zm190.17-177.29a14.22,14.22,0,0,0-1.87-1,24.5,24.5,0,0,0-3.22-.91c-7.75-1.42-15.58-1.08-23.36-.65-8.61.46-17.19,1.48-25.78,2.31-6.74.65-13.5,1.46-19.79,4-10.24,4.15-20.32,8.68-30.44,13.12a2.25,2.25,0,0,0-1,1.73c0,2,.3,3.89.36,5.83.2,6.9,1.2,8.17,7.94,9.86l.41.1a74.88,74.88,0,0,0,27.19,1c11.74-1.57,23.07-4.47,33.67-9.91A164.87,164.87,0,0,0,309,1412.82C311.21,1411,313.06,1408.86,315.27,1406.65Zm-110.83-51-.86-.12c-1.42,14.17-3,28.33-4.24,42.52a229.68,229.68,0,0,0-.07,41.13A83.36,83.36,0,0,0,211,1474.35c6.38,10.79,14.65,20.07,23.22,29.13,7.5,7.93,15.15,15.76,22.24,24,9.88,11.55,17.1,24.81,23,38.75a239.22,239.22,0,0,1,16.29,57.92c.09.62.87,1.56,1.4,1.61,3,.28,5.95.41,8.93.43,1.83,0,2.66-.82,1.93-2.81a31.52,31.52,0,0,1-.73-3.68c-5.47-24.26-13.19-47.72-25-69.74-6-11.33-13.2-21.86-22.33-31-12.34-12.36-25-24.41-35.65-38.37-9.24-12.14-15.83-25.38-17-40.8-1-13.81-1.8-27.65-2.42-41.49-.4-8.92-.36-17.85-.46-26.78C204.39,1366.27,204.44,1361,204.44,1355.67Zm147.93,110.17-.27-.7c-.58-.21-1.15-.46-1.74-.64-6-1.89-12.27-2-18.42-1.78-10.5.3-21,1-31.46,1.94a135.61,135.61,0,0,0-19.82,2.75c-14.28,3.4-28.41,7.37-42.6,11.15-2.63.71-5.22,1.6-8.18,2.51,2.45,2.93,4.62,5.53,6.82,8.11a1.73,1.73,0,0,0,.87.52c7.84,2.17,15.6,4.68,23.53,6.4a68,68,0,0,0,34.85-1.69c17.25-5.34,33.22-13.5,48.58-22.88C347.28,1469.85,349.76,1467.75,352.37,1465.84Zm-145.32-129,.66.14c.26-.23.52-.45.77-.69,4.13-4,6.23-9.21,8.07-14.45,6.92-19.82,10.1-40.18,8.44-61.21-1-12.22-1.76-24.44-2.67-36.66-.13-1.66-.46-3.31-.76-5.44-1.77,2.48-3.27,4.48-4.67,6.54a158.28,158.28,0,0,0-16.17,29.85,95.37,95.37,0,0,0-6.12,22.71,104.72,104.72,0,0,0,0,24.39,101.75,101.75,0,0,0,6.29,27.38c.8,2.06,1.93,4,2.91,6a1.26,1.26,0,0,0,.5-1c.57-9.17,1-18.35,1.76-27.51q1.11-12.67,2.95-25.28c1.28-8.74,3-17.42,4.46-26.13.29-1.75,1.08-2.26,3-1.59A516.53,516.53,0,0,0,207.05,1336.79Zm96.79-15.24-.52-.45c-.75.09-1.5.18-2.25.29-.34,0-.67.16-1,.24-13,3-25.21,8.26-37.22,14-8,3.82-16,7.85-22.68,13.86-9.31,8.38-18.28,17.14-27.7,25.38-3.73,3.27-5,6.77-4.31,11.47.43,3.07.53,3.49,3.49,4.22,3.62.91,7.07-.13,10.47-1.06,10.54-2.89,20.25-7.71,29.65-13.17a90.76,90.76,0,0,0,16.68-12A231.48,231.48,0,0,0,297,1331.9C299.43,1328.57,301.57,1325,303.84,1321.55Zm-200-7.17-.48.81a45.92,45.92,0,0,0,3.07,5.12c5.92,7.57,11.66,15.32,18,22.51,5.69,6.44,11.61,12.84,18.29,18.19a119.8,119.8,0,0,0,39.87,21.19,34.78,34.78,0,0,0,9.85,1.38c3.52,0,4.56-1.31,4.85-4.74a8.4,8.4,0,0,1,.15-1.24c.69-3,.42-5.3-2.33-7.73-9.18-8.08-17.91-16.67-26.89-25a64.13,64.13,0,0,0-16.47-11.48c-10.41-4.81-20.84-9.6-31.44-14C115,1317.27,109.3,1316,103.79,1314.38Z"/><path d="M199.06,1470.12c1.11.58,2.24.8,2.63,1.45.77,1.28,0,2.46-1.65,2.53-9.76.43-19.14,2.92-28.46,5.46-16.84,4.6-33.58,9.57-50.38,14.35-4.21,1.2-8.46,2.31-12.69,3.45a3.42,3.42,0,0,1-1,.2c-1-.06-2.19.42-2.43-1.2-.22-1.46.59-1.94,1.82-2.27,6-1.63,11.93-3.31,17.89-5,17.56-4.91,35.08-10,52.7-14.68C184.57,1472.54,191.91,1471.52,199.06,1470.12Z"/><path d="M190.65,1432.8c-5.08-1.44-10-2.46-14.67-4.23q-23.91-9.06-47.64-18.6c-7.29-2.93-14.36-6.4-21.53-9.63a6.88,6.88,0,0,1-2.19-1.18,2.73,2.73,0,0,1-.61-2c0-.37.86-.94,1.31-.92a8.24,8.24,0,0,1,3,.67c23.09,10.79,46.53,20.73,70.72,28.82,3.88,1.3,7.9,2.18,11.88,3.15,1.29.31,2.48.66,1.92,2.19C192.58,1431.81,191.48,1432.19,190.65,1432.8Z"/><path d="M150.26,1565.59c-.74-2.39,0-3.22,1.44-4.15,8.13-5.18,16.17-10.48,24.19-15.82,16.43-10.94,32.81-21.95,49.27-32.84,1.59-1,3.58-1.48,5.48-2.24.76,2.11.6,3.07-1,4.1-11.12,7-22.22,14.12-33.19,21.4-13.91,9.24-27.67,18.7-41.56,28C153.58,1564.87,151.86,1565.06,150.26,1565.59Z"/><path d="M289.73,1415.46c1,2.21-.08,3-1.57,3.4-8.31,2.28-16.55,4.85-25,6.69-10.39,2.28-20.87,4.14-31.37,5.79-6.43,1-13,1.26-19.56,1.86-.16-.91-.26-1.3-.28-1.69a6.07,6.07,0,0,1,.07-1A343.11,343.11,0,0,0,289.73,1415.46Z"/><path d="M236.73,1487.46V1485a579.4,579.4,0,0,0,87.81-12.61c1,2,.16,2.77-1.52,3.11-8.45,1.67-16.87,3.54-25.35,5-9,1.56-18,2.87-27,4.06-7,.94-14.1,1.61-21.16,2.25C245.35,1487.15,241.18,1487.24,236.73,1487.46Z"/><path d="M283.43,1333.58c1,2.6-.37,3.67-1.59,4.66-7.19,5.81-14.19,11.89-21.7,17.27-10.38,7.43-21,14.49-31.82,21.34-4.55,2.89-9.67,4.9-14.6,7.15a17,17,0,0,1-4.14.71l-.12-2.14c.14-.18.21-.35.31-.38,12-3.75,22.1-11,32.42-17.79a378.82,378.82,0,0,0,35.22-26.31c1.06-.89,2-2,3-2.85A23.29,23.29,0,0,1,283.43,1333.58Z"/><path d="M120.62,1327.68c2.47-1,3.49.07,4.79,1.14,7,5.77,13.89,11.73,21.28,17,11,7.77,22.21,15.17,33.57,22.33,4.42,2.79,9.49,4.58,14.32,6.68,1.13.5,1.71,1.18,1.28,2.15a2.4,2.4,0,0,1-2,1.17,49.61,49.61,0,0,1-8.83-3.08c-14.86-7.6-28.53-17.09-41.82-27.12-7.18-5.42-14-11.33-20.89-17.12C121.54,1330.12,121.23,1328.82,120.62,1327.68Z"/><path d="M1506.07,1504.82c3.19-3.69,6.39-7.17,9.33-10.86,3.59-4.5,7-9.13,10.37-13.8.81-1.13,1.4-1.4,2.48-.66,3.94,2.68,8,5.29,11.82,8.07,8.17,5.88,16.49,11.48,25.73,15.62a78.45,78.45,0,0,0,29.78,6.6c15.46.52,30.92,1.26,46.39,1.54a143,143,0,0,0,18.11-1.24c3.9-.43,5.17-3.49,2.84-6.09a32.19,32.19,0,0,0-3.42-3.39c-5.58-4.55-11.09-9.19-16.85-13.49-12.09-9-24.72-17.17-38.64-23.15-8.66-3.72-17.8-4.93-27.12-5.22-13.36-.4-26.59.54-39.6,3.84l-2.15.55c1.75-7.63,3.5-15.3,5.32-23.29,2.3.1,5,.25,7.8.36a140.74,140.74,0,0,0,46.17-6.22,118.78,118.78,0,0,0,34.75-16.84c5.58-4,10.76-8.47,16.07-12.8a84,84,0,0,0,16-17.72,19.46,19.46,0,0,0,2.62-5.84c.8-3-.09-4.77-3-5.32a51.47,51.47,0,0,0-11.55-.9c-10.84.5-21.29,3.3-31.75,6a151.38,151.38,0,0,0-48.39,22.38c-8.5,5.86-17.13,11.51-25.71,17.24-.73.49-1.53.87-2.36,1.34-.59-11.42-1.17-22.65-1.76-34,9,1.67,17.18-1.31,25.24-4.65a126.13,126.13,0,0,0,30.45-17.42c5.9-4.69,11.12-10.27,16.38-15.71,4.15-4.27,8-8.82,11.79-13.46,4.82-6,9.72-11.92,13.08-18.92a10.6,10.6,0,0,0,.52-1.36c1.2-3.89,0-5.86-4-5.49a63.63,63.63,0,0,0-12.45,2.44,206.52,206.52,0,0,0-44.27,19.39,82.52,82.52,0,0,0-13.23,10c-7.52,6.71-14.73,13.79-22.08,20.69-1.21,1.13-2.52,2.13-3.91,3.3-.92-5.94-1.6-11.79-2.77-17.55-1-4.79-.84-8.79,1.94-13.39,4.81-7.91,6.3-17.18,7.74-26.29a137,137,0,0,0,1.21-27.74,87.86,87.86,0,0,0-5.72-26,142,142,0,0,0-14.66-28.77c-3-4.54-6.17-8.9-9.16-13.42a2.63,2.63,0,0,0-3.27-1c-.58.15-1.18,1.26-1.28,2-.82,6.28-1.68,12.56-2.24,18.87-.69,7.77-1.34,15.55-1.58,23.34-.29,9.19-.77,18.44,0,27.58,1.35,16.66,4.79,32.94,12.11,48.14,1.29,2.68,3.42,5,5.35,7.33.74.9,2,1.35,3.07,2v32c-2.8-2.7-5.09-5-7.44-7.17-8.95-8.45-17.5-17.45-27.77-24.3a165.17,165.17,0,0,0-21.22-11.62c-7.34-3.45-15-6.31-22.62-9.09-5.54-2-11.19-3.9-17.24-3.78-3.15.07-4.22,1.08-3.27,4.14a26.93,26.93,0,0,0,3.75,7.6c4.59,6.37,9.21,12.74,14.29,18.7,5.27,6.18,11,11.94,16.7,17.76,6.91,7.1,15.26,12.24,23.94,16.86s17.53,9,27.25,10.85c4.17.82,8.53.72,13.19,1.07-.28,7.85-.59,16.32-.91,25.17-.91-.41-1.55-.72-2.2-1-9.4-4-18.63-8.5-28.26-11.83a90.36,90.36,0,0,0-20.41-4q-19.54-1.9-39.18-2.61a63.32,63.32,0,0,0-15.09,1.73c-5.21,1.09-6.1,4.91-2.5,8.9,6.5,7.2,14.57,12.37,22.64,17.54a108.76,108.76,0,0,0,43.91,16.74c11.46,1.62,22.89,2,34.25-.74.74-.18,1.45-.49,2.18-.71s1.44-.41,2.32-.65a46.21,46.21,0,0,1-5,17.25c-2.81,5.27-6.09,10.28-9.11,15.44-1,1.62-2,1.92-3.88,1.39-15.42-4.32-30.76-9-46.35-12.55-10-2.27-20.36-3.2-30.61-4-10.55-.88-21.16-1.12-31.74-1.27a39.43,39.43,0,0,0-15.41,2.34c-3.27,1.31-4.12,4.68-1.35,6.87a122.36,122.36,0,0,0,14.45,10.16c13.15,7.61,26.81,14.23,41.32,18.87a81.25,81.25,0,0,0,32,3.28,103.64,103.64,0,0,0,22.65-4.75c.45-.14.92-.21,1.94-.45-1.82,1.92-3.24,3.47-4.72,5-6.5,6.62-13.11,13.12-19.49,19.85a114,114,0,0,0-16.37,23.08c-14,25-22.84,51.87-28.42,79.88-1,4.88-.4,5.89,4.64,6.39a74.49,74.49,0,0,0,11.84-.31c2.43-.15,3-2,3.31-4.09a218.13,218.13,0,0,1,10.23-41.92c5.75-16.8,13.13-32.85,23.81-47.1,5.2-6.93,11.28-13.19,16.93-19.78.91-1,1.74-1.1,2.52,0,2.7,3.93,5.57,7.76,8,11.84,5.61,9.41,11.83,18.32,20,25.73a83,83,0,0,0,19,12.63,237.1,237.1,0,0,0,54.4,19.38c5.18,1.16,10.55,1.47,15.84,2.15,2.72.35,3.74-1.72,2.18-4.58-1.4-2.57-3.62-4.7-5.56-7-10.15-11.75-20.61-23.21-31.85-33.93-8.71-8.31-18.09-15.68-28.87-21.26-11.4-5.9-22.92-11.43-35.34-14.85C1512,1505.94,1509.11,1505.47,1506.07,1504.82Zm152,1.14c-1.39.23-2.19.44-3,.48-4.17.22-8.35.65-12.52.53q-24.94-.71-49.9-1.72c-14.34-.6-27-6.19-38.75-14-8.29-5.47-16.34-11.29-24.59-17,.76-1.47,1.64-3.28,2.63-5a2.2,2.2,0,0,1,1.31-.83c4.31-1.13,8.59-2.42,13-3.25a133.93,133.93,0,0,1,34.1-2,63.53,63.53,0,0,1,20.48,4.49,150.64,150.64,0,0,1,22.43,11.86A266.42,266.42,0,0,1,1658.11,1506Zm-117.72-70.52c0-1,.07-1.79,0-2.54-.38-3.51.65-5.81,4-7.89,10.88-6.73,21.48-13.93,32.1-21.08a133.06,133.06,0,0,1,36.39-17.27c11.42-3.42,22.91-6.54,34.81-7.68a70.85,70.85,0,0,1,10.19.2c1.36.06,1.81.93,1.06,2.17a23.53,23.53,0,0,1-2.35,3.66c-4.47,5-8.86,10.1-13.62,14.82a114.92,114.92,0,0,1-12,10.23,124.11,124.11,0,0,1-38.7,19.9,136.43,136.43,0,0,1-42.84,6C1546.43,1435.92,1543.47,1435.63,1540.39,1435.44Zm70,148.5c-2.14-.34-3.66-.51-5.16-.81a241.51,241.51,0,0,1-54.92-18.43c-9.74-4.59-18.77-10.22-26.2-18.13a118.65,118.65,0,0,1-14.38-19.54c-3.19-5.23-5.79-10.87-10.36-15.22,1.09-1.65,2.25-3,4.54-2.51,1.83.35,3.75.3,5.57.71,9.3,2.08,18,5.86,26.62,9.75a136.36,136.36,0,0,1,40.75,27.65q6.75,6.71,13.24,13.66c5.58,6,11,12.1,16.52,18.19C1607.87,1580.64,1609,1582.14,1610.41,1583.94Zm-190.17-177.29a13.59,13.59,0,0,1,1.87-1,24.5,24.5,0,0,1,3.22-.91c7.75-1.42,15.58-1.08,23.36-.65,8.61.46,17.19,1.48,25.78,2.31,6.73.65,13.5,1.46,19.79,4,10.24,4.15,20.32,8.68,30.44,13.12a2.24,2.24,0,0,1,1,1.73c0,2-.29,3.89-.35,5.83-.2,6.9-1.2,8.17-7.94,9.86l-.41.1a74.89,74.89,0,0,1-27.19,1c-11.74-1.57-23.07-4.47-33.67-9.91a164.52,164.52,0,0,1-29.64-19.28C1424.3,1411,1422.45,1408.86,1420.24,1406.65Zm110.83-51,.85-.12c1.43,14.17,3,28.33,4.25,42.52a229.68,229.68,0,0,1,.07,41.13,83.24,83.24,0,0,1-11.7,35.15c-6.37,10.79-14.64,20.07-23.21,29.13-7.5,7.93-15.15,15.76-22.25,24-9.87,11.55-17.09,24.81-23,38.75a238.77,238.77,0,0,0-16.29,57.92c-.09.62-.87,1.56-1.4,1.61-3,.28-6,.41-8.93.43-1.83,0-2.66-.82-1.93-2.81a31.52,31.52,0,0,0,.73-3.68c5.47-24.26,13.19-47.72,25-69.74,6.06-11.33,13.21-21.86,22.34-31,12.34-12.36,25-24.41,35.65-38.37,9.24-12.14,15.82-25.38,17-40.8,1-13.81,1.8-27.65,2.42-41.49.4-8.92.36-17.85.46-26.78C1531.12,1366.27,1531.07,1361,1531.07,1355.67Zm-147.93,110.17.27-.7c.58-.21,1.15-.46,1.74-.64,6-1.89,12.27-2,18.42-1.78,10.5.3,21,1,31.45,1.94a135.55,135.55,0,0,1,19.83,2.75c14.27,3.4,28.41,7.37,42.6,11.15,2.63.71,5.22,1.6,8.18,2.51-2.45,2.93-4.62,5.53-6.82,8.11a1.73,1.73,0,0,1-.87.52c-7.84,2.17-15.6,4.68-23.53,6.4a68,68,0,0,1-34.85-1.69c-17.25-5.34-33.22-13.5-48.58-22.88C1388.23,1469.85,1385.75,1467.75,1383.14,1465.84Zm145.32-129-.66.14c-.26-.23-.52-.45-.77-.69-4.14-4-6.23-9.21-8.07-14.45-6.93-19.82-10.1-40.18-8.44-61.21,1-12.22,1.76-24.44,2.67-36.66.13-1.66.46-3.31.76-5.44,1.77,2.48,3.27,4.48,4.66,6.54a157.76,157.76,0,0,1,16.18,29.85,95.37,95.37,0,0,1,6.12,22.71,104.72,104.72,0,0,1,0,24.39,101.75,101.75,0,0,1-6.29,27.38c-.8,2.06-1.93,4-2.91,6a1.31,1.31,0,0,1-.51-1c-.57-9.17-1-18.35-1.75-27.51q-1.11-12.67-3-25.28c-1.27-8.74-3-17.42-4.45-26.13-.29-1.75-1.08-2.26-3-1.59A517.67,517.67,0,0,1,1528.46,1336.79Zm-96.8-15.24.53-.45c.75.09,1.5.18,2.25.29.34,0,.67.16,1,.24,13,3,25.21,8.26,37.22,14,8,3.82,16,7.85,22.68,13.86,9.31,8.38,18.28,17.14,27.7,25.38,3.73,3.27,5,6.77,4.31,11.47-.43,3.07-.53,3.49-3.49,4.22-3.62.91-7.07-.13-10.48-1.06-10.53-2.89-20.24-7.71-29.65-13.17a91,91,0,0,1-16.67-12,231.48,231.48,0,0,1-28.54-32.35C1436.08,1328.57,1433.94,1325,1431.66,1321.55Zm200.06-7.17.48.81a46,46,0,0,1-3.08,5.12c-5.92,7.57-11.65,15.32-18,22.51-5.68,6.44-11.61,12.84-18.28,18.19A119.9,119.9,0,0,1,1553,1382.2a34.83,34.83,0,0,1-9.85,1.38c-3.52,0-4.56-1.31-4.85-4.74a8.4,8.4,0,0,0-.15-1.24c-.69-3-.42-5.3,2.33-7.73,9.18-8.08,17.91-16.67,26.89-25a64.13,64.13,0,0,1,16.47-11.48c10.41-4.81,20.84-9.6,31.44-14C1620.53,1317.27,1626.21,1316,1631.72,1314.38Z"/><path d="M1536.45,1470.12c-1.11.58-2.24.8-2.63,1.45-.77,1.28,0,2.46,1.65,2.53,9.76.43,19.13,2.92,28.45,5.46,16.85,4.6,33.59,9.57,50.39,14.35,4.21,1.2,8.46,2.31,12.69,3.45a3.3,3.3,0,0,0,1,.2c1-.06,2.19.42,2.43-1.2.21-1.46-.59-1.94-1.82-2.27-6-1.63-11.93-3.31-17.9-5-17.55-4.91-35.07-10-52.69-14.68C1550.94,1472.54,1543.6,1471.52,1536.45,1470.12Z"/><path d="M1544.86,1432.8c5.07-1.44,10-2.46,14.67-4.23q23.91-9.06,47.64-18.6c7.29-2.93,14.36-6.4,21.53-9.63a6.88,6.88,0,0,0,2.19-1.18,2.73,2.73,0,0,0,.61-2c0-.37-.86-.94-1.31-.92a8.24,8.24,0,0,0-3,.67c-23.09,10.79-46.53,20.73-70.72,28.82-3.88,1.3-7.9,2.18-11.88,3.15-1.29.31-2.49.66-1.93,2.19C1542.93,1431.81,1544,1432.19,1544.86,1432.8Z"/><path d="M1585.25,1565.59c.73-2.39,0-3.22-1.45-4.15-8.12-5.18-16.16-10.48-24.18-15.82-16.43-10.94-32.81-21.95-49.27-32.84-1.59-1-3.58-1.48-5.48-2.24-.76,2.11-.61,3.07,1,4.1,11.13,7,22.23,14.12,33.2,21.4,13.91,9.24,27.67,18.7,41.56,28C1581.93,1564.87,1583.65,1565.06,1585.25,1565.59Z"/><path d="M1445.78,1415.46c-1,2.21.08,3,1.57,3.4,8.31,2.28,16.55,4.85,25,6.69,10.38,2.28,20.87,4.14,31.37,5.79,6.43,1,13,1.26,19.55,1.86.16-.91.27-1.3.29-1.69a6.07,6.07,0,0,0-.07-1A343,343,0,0,1,1445.78,1415.46Z"/><path d="M1498.78,1487.46V1485a579.22,579.22,0,0,1-87.81-12.61c-1,2-.16,2.77,1.52,3.11,8.45,1.67,16.86,3.54,25.35,5,9,1.56,18,2.87,27,4.06,7,.94,14.09,1.61,21.16,2.25C1490.16,1487.15,1494.33,1487.24,1498.78,1487.46Z"/><path d="M1452.07,1333.58c-1,2.6.37,3.67,1.6,4.66,7.19,5.81,14.19,11.89,21.7,17.27,10.38,7.43,21,14.49,31.82,21.34,4.55,2.89,9.67,4.9,14.6,7.15a17,17,0,0,0,4.14.71l.12-2.14c-.15-.18-.21-.35-.32-.38-12-3.75-22.09-11-32.41-17.79a377.5,377.5,0,0,1-35.22-26.31c-1.06-.89-2-2-3-2.85A23.45,23.45,0,0,0,1452.07,1333.58Z"/><path d="M1614.89,1327.68c-2.48-1-3.5.07-4.79,1.14-7,5.77-13.89,11.73-21.28,17-11,7.77-22.21,15.17-33.58,22.33-4.42,2.79-9.48,4.58-14.31,6.68-1.13.5-1.71,1.18-1.28,2.15a2.39,2.39,0,0,0,2,1.17,49.89,49.89,0,0,0,8.83-3.08c14.86-7.6,28.53-17.09,41.82-27.12,7.18-5.42,14-11.33,20.89-17.12C1614,1330.12,1614.28,1328.82,1614.89,1327.68Z"/></svg>

