<svg xmlns="http://www.w3.org/2000/svg" viewBox="0 0 2000 2000" width="500" height="500"><path d="M1569.71,859.19c3.43,1.71,14.15,2.14,20.15-14.15s2.15-34.31-12-36c-14.14-1.29-18.43,16.29-18.43,16.29C1553,853.18,1569.71,859.19,1569.71,859.19Zm7.72-44.17s-8.15,5.57-10.72,12.43C1566.71,827.45,1564.13,813.3,1577.43,815Z"/><path d="M1784.53,926.94c-6-.43-7.29,7.71-7.29,7.71-23.16,95.63-75,99.48-75,99.48-14.15-1.71-22.3-19.29-24.87-41.59,20.58-6.43,50.17-23.15,56.17-63,8.58-57-30-61.75-30-61.75-47.16-6.86-61.31,46.74-61.31,46.74a171.47,171.47,0,0,0-6.87,31.91c-22.43,84.21-42.87,88.15-42.87,88.15-19.29-2.14-6-113.2-2.14-143.21a17.58,17.58,0,0,0-9.43-18c-6.86-3.43-15-2.15-21.44-.43a14.8,14.8,0,0,0-10.29,12.43c-1.36,11.1-3.44,31.13-3.87,53.42-13,22.83-32.9,17.43-30.44,10a127.94,127.94,0,0,0,5.15-35.16c-.86-23.15-3-47.17-28.73-47.59-22.73,0-38.59,46.74-48,84.9.43-6,.86-15,1.72-26.16,1.72-20.15,4.29-36.87,6-45.88.86-5.15-1.28-10.72-6-13.29-8.15-5.15-16.29-4.72-22.73-3a17,17,0,0,0-12.43,13.72c-4,30-4,59.72-3.9,68.29-24.22,85.91-72.42,89.5-72.42,89.5-14.15-1.71-22.3-19.29-24.87-41.59,20.58-6.43,50.17-23.15,56.17-63,8.58-57-30-61.75-30-61.75-47.17-6.86-61.32,46.74-61.32,46.74a158.14,158.14,0,0,0-4.39,16.72,17,17,0,0,0-1.61,4.29c-23.15,95.62-48.45,99-48.45,99-15.44-1.71-11.58-132.92-7.72-210.11,18.44-1.71,37.3-3,56.17,0,5.58.86,3.43-6.86,3.43-6.86-.43-3.43-2.57-6.43-5.14-6.86-18-3-36-1.71-54,0,1.28-17.15,2.14-30.44,2.57-36.88,0-3-.86-6-3-7.71a25.3,25.3,0,0,0-24.87-6,15.64,15.64,0,0,0-10.72,14.15c-.86,9.44-1.72,23.59-2.57,40.31a189.07,189.07,0,0,1-34.74-1.71c-5.14-.86-3.43,6.86-3.43,6.86,0,3.43,2.58,6.43,4.72,6.86,10.72,1.71,21.87,1.71,32.59,1.28-1.82,36.66-3,82.7,0,123.18-21.93,79.71-41.61,83.5-41.61,83.5-19.72-2.14-4.29-124.35,0-156.08a11.7,11.7,0,0,0-5.57-11.15c-9-6-18-6.86-27-3a18,18,0,0,0-10.72,15q-.64,5.79-1.28,12.86c-8.15,47.6-40.74,139.79-45,137.22-4.71-2.15-10.29-30-9-69,.86-30,6.86-64.32,9.43-78.9a11.56,11.56,0,0,0-6.43-13.29c-8.58-4.29-18-3.43-24.44-1.72a13.79,13.79,0,0,0-10.29,11.15c-1.78,12.46-5.33,38.2-6.73,67.92-24.3,85-72.17,88.59-72.17,88.59-23.58-3-30.44-48.45-22.72-88.76,0,0,12.86-66.46,25.3-66.89,10.72-.43,18.86,24,21.87,45.88a3.94,3.94,0,0,0,7.29,1.29c15-33.45,7.29-55.74-29.59-63-46.74-6.86-62.18,51.88-62.18,51.88a162.83,162.83,0,0,0-4.52,17.41,23.46,23.46,0,0,0-1.91,3.6c-12.86,26.59-34.73,21-32.16,13.29a127.94,127.94,0,0,0,5.15-35.16c-.86-23.15-3-47.17-28.73-47.59-22.73,0-38.59,46.74-48,84.9.43-6,.86-15,1.72-26.16,1.72-20.15,4.29-36.87,6-45.88.86-5.15-1.28-10.72-6-13.29-8.15-5.15-16.29-4.72-22.73-3a17,17,0,0,0-12.43,13.72c-4,30.33-4,60.34-3.9,68.54-22.59,85.69-43.27,89.68-43.27,89.68-19.72-2.14-5.57-121.77-1.71-152.22.86-7.29-2.57-14.58-9-17.58-7.29-3.86-15.43-2.57-21.43-.86a15.87,15.87,0,0,0-10.72,12.44c0,3-.43,6.43-.86,10.72-6-9-14.58-16.73-27-18.44-47.16-6.86-60.46,45.88-60.46,45.88a202.89,202.89,0,0,0-5,26.42c-23,89.53-44.3,93.64-44.3,93.64-11.58-1.28-8.58-45-6.86-84.9,0,0,9-83.19-36.88-83.61-27,0-45.45,66.89-55.31,114.06-1.29-18.87-1.72-38.17-1.29-57,19.72-29.59,35.59-62.18,42.45-96.91,3.43-15.87,6-33.88,3-50.17-2.57-15.87-24.87-18.44-38.59-15.87-16.29,2.58-24,25.73-28.73,39-15.76,46.86-17.55,98.37-15.9,147-24.35,84.47-72,88-72,88-23.58-3-30.44-48.45-22.72-88.76,0,0,12.86-66.46,25.3-66.89,10.72-.43,18.86,24,21.86,45.88a3.94,3.94,0,0,0,7.29,1.29c15-33.45,7.29-55.74-29.58-63-46.74-6.86-62.18,51.88-62.18,51.88-15,46.31-16.72,136.36,61.75,133.36,39.33-.47,60.76-33.92,72.12-64.19a447.81,447.81,0,0,0,6.77,53c1.72,8.57,11.15,12.86,20.15,11.58a20.6,20.6,0,0,0,12.87-7.29,14.18,14.18,0,0,0,2.57-8.15h.43c6.86-78.9,43.74-144.51,43.74-144.51,4.71-2.57,3,61.75,3,61.75-2.15,56.6,9.86,96.05,44.17,97.77,21.9,1.13,37.15-30.1,46.67-59.91,4.11,33.21,17.64,58.63,39.08,59.91,23.15,1.71,41.59-39.88,52.31-70.76,3.43,36.88,15,69.47,42.45,70.76,22.75,1.17,38.31-32.54,47.75-63.33a444.46,444.46,0,0,0,6.71,52.18c1.71,8.57,11.14,12.86,20.15,11.58a20.6,20.6,0,0,0,12.86-7.29,13.86,13.86,0,0,0,2.58-9.87c-.43-4.71-1.29-9.43-1.72-14.15,2.57-47.59,19.3-101.19,31.73-122.2,0,0-11.15,73.32,39.45,74.18a39.74,39.74,0,0,0,25.89-9c-1.85,43.45,12.93,90,69.73,87.85,38.35-.46,59.69-32.27,71.26-61.92,5.2,37.81,24.55,65.18,46.65,61.92,15-1.72,31.73-48.89,43.31-88.76,2.14,44.16,12.44,87.47,43.74,88.76C1151,1049,1166.56,1014.93,1176,984c6.14,38.48,18.29,65.8,40.84,63.86s39-34.54,49.44-63.9c4.18,35,22.55,65.67,68.91,63.9,39.74-.48,61.21-34.63,72.47-65.15a453.16,453.16,0,0,0,6.84,54c1.72,8.57,11.15,12.86,20.16,11.58a20.6,20.6,0,0,0,12.86-7.29,13.86,13.86,0,0,0,2.58-9.87c-.43-4.71-1.29-9.43-1.72-14.15,2.57-47.59,19.3-101.19,31.73-122.2,0,0-11.15,73.32,39.45,74.18a39.76,39.76,0,0,0,25.87-8.93c1.53,42.82,11.27,86.32,44.45,87.83,21.41,1.1,36.46-28.71,46-57.89,5.53,32.4,24.36,59.56,68,57.89,72-.86,84-112.35,84-112.35S1789.67,927.79,1784.53,926.94Zm-1520.89-51c-6,2.14-21,15-21,15C248.2,871.19,263.64,875.91,263.64,875.91Zm159.51-95.62c9,7.29-11.15,68.6-32.59,110.63a482.19,482.19,0,0,1,10.72-74.19C408.14,788.86,420.57,778.14,423.15,780.29Zm-18-12.87c-4.72,0-18.44,11.58-18.44,11.58C389.7,762.28,405.14,767.42,405.14,767.42ZM579.22,879.34c-4.72,1.29-18,13.72-18,13.72C562.07,876.77,579.22,879.34,579.22,879.34ZM575.79,1032s-9.86-18.87.43-86.62c0,0,11.15-60.46,24-60.89,11.15-.42,19.3,27,22.3,49.75C617,954.38,594.66,1030.28,575.79,1032ZM724.15,883.2c.43-18.44,16.29-13.72,16.29-13.72C731.44,873.34,724.15,883.2,724.15,883.2Zm181-7.29c-6,2.14-21,15-21,15C889.66,871.19,905.1,875.91,905.1,875.91Zm101.19,9c-1.71-16.72,12.44-13.29,12.44-13.29C1011.86,875.05,1006.29,884.91,1006.29,884.91Zm175.8-105.48c-3-14.58,9.86-13.72,9.86-13.72C1188.09,767.85,1182.09,779.43,1182.09,779.43Zm136.35,96.48c-6.43,2.14-21.44,15-21.44,15C1302.58,871.19,1318.44,875.91,1318.44,875.91Zm-7.72,69.46s11.58-61.31,24.45-61.74c0,0,20.58,14.15,12.86,48.88-6,26.59-26.16,39.45-40.31,44.17A155.13,155.13,0,0,1,1310.72,945.37ZM1416.2,883.2c.43-18.44,16.29-13.72,16.29-13.72C1423.49,873.34,1416.2,883.2,1416.2,883.2Zm138.07,15c-.86-22.73,11.58-18.87,11.58-18.87C1557.27,886.63,1554.27,898.21,1554.27,898.21Zm132.92-22.3c-6.43,2.14-21.44,15-21.44,15C1671.33,871.19,1687.19,875.91,1687.19,875.91Zm-7.72,69.46s11.58-61.31,24.44-61.74c0,0,20.59,14.15,12.87,48.88-6,26.59-26.16,39.45-40.31,44.17A155.13,155.13,0,0,1,1679.47,945.37Z"/><path d="M260.87,1168.82c-1.91-.14-2.31,2.45-2.31,2.45C251.21,1201.61,244,1203,244,1203c-3.68-.41-3.54-15.1-2.59-29.12,3.54.68,5.58,1.91,5.85,4.22,0,0,1.23,2.18,1.91.14.41-1.77,1.9-10.07-7.08-11.43.82-9.94,1.91-18.1,1.91-18.1s4.62-33.74-10.62-32.52c-12.79,1.09-29.93,20-37.41,51.43a10.79,10.79,0,0,1-6.94-9s.4-2.58-.41-2.72c-1.09-.27-3.27,3.81-.68,9.93a17.11,17.11,0,0,0,6.94,6.54c-.82,4.08-3.54,18.23-3.13,31.29,0,0,0,3.95,2.72,3.54,2.18-.27,2.31-4.49,2.31-4.49.27-5,.14-15.51,2.86-28.44a31.69,31.69,0,0,0,11.29.82c6.67-.55,12.66-1.23,17.69-1.5.27,16.06,3.13,33.2,14.56,33.61,13.2.54,18.78-35.65,18.78-35.65S262.5,1169.09,260.87,1168.82ZM232,1134.67c-1,6-1.77,11.7-1.77,11.7a199.58,199.58,0,0,0-1.63,21.09c-6.26.81-10.34,1.77-17.82,2.17a41.93,41.93,0,0,1-9.94-.54,99,99,0,0,1,6-17.42c11.29-25,23.68-30.61,26-29.93C234.06,1122.15,233,1128.54,232,1134.67Zm2.86-6.4a13.51,13.51,0,0,0,.41-6.4C239.24,1124.19,234.88,1128.27,234.88,1128.27Z"/><path d="M353.8,1116.3s-.14-1-.82-.55c-.41.14-.41,1.09-.41,1.09-2.45,2.18-11.43,2.31-18.09,2.18a6,6,0,0,1,.13-.68,1.65,1.65,0,0,0-.68-1.64,6.65,6.65,0,0,0-3.54-1.08,15,15,0,0,0-7.89,1.49,7.16,7.16,0,0,0-1.49,1.36c-10.62,0-31,3.13-27.49,26.26,0,0,1.5,6.94,8.16,6.54,0,0,1.23.13,1.23-1-.14-.68-1.5-1-1.5-1-.81-6-1.49-24.22,18.64-26.26a214.87,214.87,0,0,0-2.17,32.38c-3.68.41-6.94,1.77-6.13,5.31.14.27.41.41.55.14.54-.55,2-1.36,5.71-1.64.41,16.47,1.36,32.8,2.72,40.82a8.59,8.59,0,0,0,8.17,7.08,16.16,16.16,0,0,0,3.54-.14,1,1,0,0,0,.81-1.22c-.81-2.72-2.58-12.11-2.45-36.06,0-3,.14-6.12.14-9.66,7.76.68,12,.14,11.56-5.58a13.87,13.87,0,0,0-.95-3.67s-.41-1-1.22-.41c-.41.27-.14,1.63-.14,1.63-.54,1.63-2,4-9.12,4,.55-13.88,1.91-25.72,2.73-32.39,4.08.41,6.39,1.09,11.83,1.5C355.7,1126,354.48,1118.47,353.8,1116.3Zm-31.3,4.89s-.68-3.4,3.27-3.26A15.48,15.48,0,0,0,322.5,1121.19Z"/><path d="M425.91,1168.82c-1.9-.14-2.31,2.45-2.31,2.45C416.25,1201.61,409,1203,409,1203c-3.67-.41-3.54-15.1-2.58-29.12,3.53.68,5.57,1.91,5.85,4.22,0,0,1.22,2.18,1.9.14.41-1.77,1.91-10.07-7.07-11.43.81-9.94,1.9-18.1,1.9-18.1s4.63-33.74-10.61-32.52c-12.79,1.09-29.94,20-37.42,51.43a10.79,10.79,0,0,1-6.94-9s.41-2.58-.41-2.72c-1.09-.27-3.26,3.81-.68,9.93a17.2,17.2,0,0,0,6.94,6.54c-.82,4.08-3.54,18.23-3.13,31.29,0,0,0,3.95,2.72,3.54,2.18-.27,2.32-4.49,2.32-4.49.27-5,.13-15.51,2.85-28.44a31.75,31.75,0,0,0,11.3.82c6.66-.55,12.65-1.23,17.68-1.5.28,16.06,3.13,33.2,14.56,33.61,13.2.54,18.78-35.65,18.78-35.65S427.55,1169.09,425.91,1168.82Zm-28.84-34.15c-1,6-1.77,11.7-1.77,11.7a201,201,0,0,0-1.64,21.09c-6.25.81-10.34,1.77-17.82,2.17a41.82,41.82,0,0,1-9.93-.54,98.16,98.16,0,0,1,6-17.42c11.3-25,23.68-30.61,26-29.93C399.11,1122.15,398,1128.54,397.07,1134.67Zm2.85-6.4a13.51,13.51,0,0,0,.41-6.4C404.28,1124.19,399.92,1128.27,399.92,1128.27Z"/><path d="M508,1169c-1.91-.13-2.18,2.32-2.18,2.32-7.48,30.34-14.7,31.7-14.7,31.7-7.07-.82,0-54.15,0-54.15s4.63-31-10.61-32.66c-17.55-1.77-25.71,41.09-28.84,64.09a57.39,57.39,0,0,1,0-6.94c0-8.3.81-16.74,1.63-24.9.54-5,1.63-10.48,2.18-15.24.68-6-1-15-8-17.15s-14.29,7.22-17.42,12c-5.17,7.75-9.25,18.91-6,27.76.82,2.44,3.27,4.89,6.13,5a1.23,1.23,0,0,0,.95-.41c.27-.54.41-1.36-1.09-2.45-2-6.12.14-14.56,1.77-20.41,1.91-6.66,5.58-16,13.2-17.82,2.72,1-.41,8.16-1.36,11.43a97.12,97.12,0,0,0-3.4,18.64,180.91,180.91,0,0,0-1,21.09c.14,10.48.68,22.86,6,32.25,1.91,3.4,5.72,4.62,9.39,3.94a1.33,1.33,0,0,0,.95-2,11.63,11.63,0,0,1-.81-1.36c.27-5.17,1.9-31,8.16-52.93,6.8-24.35,12.65-30.75,17.14-28.85.68,1.09.41,6-.95,12.8-.95,6-1.77,11.7-1.77,11.7s-8.57,60,13.06,61c13.07.55,18.65-35.64,18.65-35.64S509.73,1169.09,508,1169Zm-60.42-43.13a16.64,16.64,0,0,0,.55-6.26C451.9,1121.74,447.54,1125.82,447.54,1125.82Z"/><path d="M573.4,1168.82c-1.77-.14-2.17,2.45-2.17,2.45-5.86,30.34-27.35,30.75-27.35,30.75-7.49-1-12.11-19-8.58-42.45a205.19,205.19,0,0,1,5-20.82c6.67-1.77,13.88-4.63,16.73-10.48,2.59-5.31,1.37-8.71-.27-10.34-2.58-2.72-7.07-2.31-7.07-2.31-8,.4-14.29,9-18.64,18.09-9,1.09-18,2-22.32,5.31-6.8,4.9-2.86,9.93-1.22,11.7,0,0,.95,1,1.76.27.41-.4.14-1.77.14-1.77,1.77-4.62,11.16-6.66,18.37-8a120.57,120.57,0,0,0-4.49,14.56c-4.35,18.64-5.17,52.11,20.95,51.43s30.35-35.65,30.35-35.65S575.17,1169.09,573.4,1168.82Zm-21.09-49a2.22,2.22,0,0,1,1.91.82c.81.95,1.22,3.13-.55,5.85s-5.85,4.36-10.88,5.44C545.37,1125.14,548.64,1119.83,552.31,1119.83Zm-4.22-1.9s-4.49,2.31-6.66,4.63A6.23,6.23,0,0,1,548.09,1117.93Z"/><path d="M651.09,1168.82a50.46,50.46,0,0,0-15.23,3.13c.4-12.38.13-21.64.13-21.64,1-14.83,2-26.94,2-26.94.41-6.94-5.44-7.75-12.52-7.62,0,0-1.22,10.75-1.9,25-2.31,40.55-20.14,40.55-20.14,40.55-7.21-.68-3.26-33.07-3.26-33.07.54-5,1.63-10.34,2.17-15.24.68-5.85-1-15-8-17.14s-14.29,7.21-17.42,12c-5.17,7.89-9.25,18.92-6,27.9.82,2.31,3.27,4.89,6.12,5a1,1,0,0,0,1-.54c.27-.41.41-1.23-1.09-2.32-2-6.26.13-14.56,1.77-20.54,1.9-6.53,5.58-15.92,13.2-17.69,2.72,1-.41,8.16-1.36,11.43a117.39,117.39,0,0,0-3.54,19.32s-4.63,36.6,15.92,35.65c9-.41,15.24-6.94,19.59-15-.13,2.45-.41,5-.54,7.62-14.83,9.8-24.09,24.22-24.63,31.57-1,13.88,14.29,20,14.29,20,17.14,5.85,22.45-27.62,23.94-53.07a59.14,59.14,0,0,1,15.51-3.94s3.41-.14,3.41-2.32S651.09,1168.82,651.09,1168.82Zm-56.87-42.73a16.76,16.76,0,0,0,.54-6.26C598.57,1121.87,594.22,1126.09,594.22,1126.09Zm14.69,96.2c-9.93-1.36-6.39-23,12.52-37.28C619.66,1204.06,616,1223.38,608.91,1222.29Z"/><path d="M756.41,1168.82c-1.91-.14-2.32,2.45-2.32,2.45-7.34,30.34-14.56,31.7-14.56,31.7-3.67-.41-3.53-15.1-2.58-29.12,3.54.68,5.58,1.91,5.85,4.22,0,0,1.22,2.18,1.9.14.41-1.77,1.91-10.07-7.07-11.43.81-9.94,1.9-18.1,1.9-18.1s4.63-33.74-10.61-32.52c-12.79,1.09-29.93,20-37.42,51.43a10.81,10.81,0,0,1-6.94-9s.41-2.58-.41-2.72c-1.08-.27-3.26,3.81-.68,9.93a17.2,17.2,0,0,0,6.94,6.54c-.81,4.08-3.53,18.23-3.13,31.29,0,0,0,3.95,2.73,3.54,2.17-.27,2.31-4.49,2.31-4.49.27-5,.13-15.51,2.86-28.44a31.67,31.67,0,0,0,11.29.82c6.67-.55,12.65-1.23,17.69-1.5.27,16.06,3.13,33.2,14.56,33.61,13.2.54,18.77-35.65,18.77-35.65S758,1169.09,756.41,1168.82Zm-28.85-34.15c-.95,6-1.77,11.7-1.77,11.7a199.58,199.58,0,0,0-1.63,21.09c-6.26.81-10.34,1.77-17.83,2.17a41.85,41.85,0,0,1-9.93-.54,98.23,98.23,0,0,1,6-17.42c11.29-25,23.67-30.61,26-29.93C729.6,1122.15,728.51,1128.54,727.56,1134.67Zm2.86-6.4a13.51,13.51,0,0,0,.41-6.4C734.77,1124.19,730.42,1128.27,730.42,1128.27Z"/><path d="M834.5,1168.82c-4.35,0-8.57,0-12.51.27,7.75-46.26-18.24-49-18.24-49-8.43-1.23-15,8-19,16.32a40.26,40.26,0,0,0,.41-4.08s.27-14.69-9.25-16.6-27.35,24.49-21.36,40.41c0,0,1.77,4.63,6.12,4.77a1.05,1.05,0,0,0,1-.41c.28-.55.41-1.36-1.09-2.32-2-5.71,1.09-34.42,13.2-38.5,1.91,0,1.09,4.22-.41,10.2a105.22,105.22,0,0,0-2.72,20c-.54,15.92,1.23,35.65,5.31,38.65-6.12,8.71-3.4,17.41,6.53,18.64,17.55,2.18,34-13.74,38.92-34.15,3.94-.28,8.3-.41,12.92-.41,0,0,3,.13,3-1.91C837.23,1169,834.5,1168.82,834.5,1168.82Zm-58.37-43a16.89,16.89,0,0,0,.55-6.26C780.49,1121.74,776.13,1125.82,776.13,1125.82Zm16.6,69c-4.9,3.4-12.79,7.21-15.51,2.17-.68-1.36,0-3.94,2.31-6.94,2.18.82,4.49,1.23,4.36,0a38.16,38.16,0,0,0-.41-3.94c4.9-4.08,12.38-8.17,23.27-10.75C804.3,1182.15,800.08,1189.64,792.73,1194.81ZM810,1159.43a54.37,54.37,0,0,1-1.9,11.56c-10.89,2.18-19.19,6-24.9,10.21-.27-5.44-.41-13.47,0-24.76,2.72-8.58,10.2-29.67,17.55-30.76C800.76,1125.68,812.73,1123.24,810,1159.43Z"/><path d="M916.69,1169c-1.91-.13-2.32,2.32-2.32,2.32-7.34,30.34-14.56,31.7-14.56,31.7-7.07-.82.14-79.6.14-79.6.41-6.26-4.35-7.48-10.48-7.62a2.16,2.16,0,0,0-2.31,2c-.41,3.68-1.09,12-1.63,22-3.95,62.31-20.55,62.59-20.55,62.59-9.66-.41-2.86-54.16-2.86-54.16.55-5,1.64-10.34,2.18-15.24.68-5.85-.95-15-8-17.14s-14.28,7.21-17.41,12c-5.17,7.89-9.26,18.92-6,27.9.82,2.31,3.26,4.89,6.12,5a1,1,0,0,0,1-.54c.28-.41.41-1.23-1.08-2.32-2-6.26.13-14.56,1.77-20.54,1.9-6.53,5.57-15.92,13.19-17.69,2.73,1-.4,8.16-1.36,11.43a97.89,97.89,0,0,0-3.4,18.64s-7.07,58.92,15.38,57.42c9.66-.68,16.73-11.3,21.77-24.09,1.77,13.88,5.44,24.36,12.92,24.22,13.07-.27,18.64-35.64,18.64-35.64S918.32,1169.09,916.69,1169Zm-60.42-42.86a16.64,16.64,0,0,0,.55-6.26C860.63,1121.87,856.27,1126.09,856.27,1126.09Z"/><path d="M977.64,1197.53c-7.48,6.94-24.08,2.45-31.84-.14,6.8-13.74,6.4-36.87,6.4-36.87a195.93,195.93,0,0,1,.95-22.86c5.44-1.77,10.48-4.63,12.79-9.39,2.58-5.17,1.36-8.57-.27-10.34-2.59-2.72-7.08-2.18-7.08-2.18-7.75.27-12.24,8.57-14.83,17.55-10.07,1.37-21.23,2-26.12,5.72-6.81,4.9-2.86,10.07-1.23,11.7,0,0,1,1.09,1.77.41.41-.41.14-1.91.14-1.91,2.31-5.85,17.14-7.62,23.67-8.84a107.93,107.93,0,0,0-1.77,16.19s-.41,8.17-.68,16.74c-.13,7.89-.41,16.33-1.49,21.5a51,51,0,0,0-5.58-1.23c-7.22-.68-7.9,5.85-7.9,5.85-.81,8,7.9,7.89,7.9,7.89a12.36,12.36,0,0,0,10.2-4.89c6.12,3.4,13.88,7.21,24.9,7.62,9.8.4,11.43-7.62,11.57-11.84C979.27,1197.39,978.32,1197,977.64,1197.53Zm-16.46-77.7a2.72,2.72,0,0,1,1.9.82c.82.95,1.23,3.13-.54,5.85-1.5,2.31-4.49,3.81-8.3,4.76C955.46,1124.87,957.64,1119.83,961.18,1119.83Zm-2.59-1.9s-4.63,2.31-6.67,4.63A6.24,6.24,0,0,1,958.59,1117.93Zm-25.58,84c-3.27,0-3-2.17-3-2.17.27-2.73,3.94-1.64,6.66-.41A4.48,4.48,0,0,1,933,1201.88Z"/><path d="M1040,1115.75c-.41.14-.41,1.09-.41,1.09-2.31,2.18-11.43,2.18-18,2,0-.27,0-.41.13-.54a2.51,2.51,0,0,0-.68-1.64,7.15,7.15,0,0,0-3.53-1.08,14.91,14.91,0,0,0-7.89,1.49,3.6,3.6,0,0,0-1.09,1c-10.62-.28-31.84,2-29.8,24.08,0,0,.95,7.07,7.62,7.21,0,0,1.22.27,1.22-.95,0-.68-1.36-1-1.36-1-.27-6,.55-22.59,20.82-24.5a258.74,258.74,0,0,0-2,35.24c.41,16.74,1.36,33.61,2.86,41.91a8.58,8.58,0,0,0,8.16,7.08,16.42,16.42,0,0,0,3.54-.14,1,1,0,0,0,.81-1.22c-1-3.13-3.13-14.29-2.31-44.63.41-16.06,1.91-30.07,2.86-37.56,3.94.41,6.39,1.09,11.7,1.5,10.21.82,8.84-6.67,8.3-8.84C1040.91,1116.3,1040.77,1115.34,1040,1115.75Zm-30.07,5.72a2.87,2.87,0,0,1,3.26-3.4A14.25,14.25,0,0,0,1009.89,1121.47Z"/><path d="M1137.51,1197.53c-7.48,6.94-24.08,2.45-31.84-.14,6.81-13.74,6.4-36.87,6.4-36.87a198.48,198.48,0,0,1,1-22.86c5.45-1.77,10.48-4.63,12.79-9.39,2.59-5.17,1.36-8.57-.27-10.34-2.59-2.72-7.07-2.18-7.07-2.18-7.76.27-12.25,8.57-14.84,17.55-10.07,1.37-21.22,2-26.12,5.72-6.8,4.9-2.86,10.07-1.23,11.7,0,0,1,1.09,1.77.41.41-.41.14-1.91.14-1.91,2.31-5.85,17.14-7.62,23.68-8.84a106.39,106.39,0,0,0-1.77,16.19s-.41,8.17-.68,16.74c-.14,7.89-.41,16.33-1.5,21.5a50.49,50.49,0,0,0-5.58-1.23c-7.21-.68-7.89,5.85-7.89,5.85-.82,8,7.89,7.89,7.89,7.89a12.35,12.35,0,0,0,10.2-4.89c6.13,3.4,13.88,7.21,24.91,7.62,9.79.4,11.43-7.62,11.56-11.84C1139.15,1197.39,1138.19,1197,1137.51,1197.53Zm-16.46-77.7a2.7,2.7,0,0,1,1.9.82c.82.95,1.23,3.13-.54,5.85-1.5,2.31-4.49,3.81-8.3,4.76C1115.34,1124.87,1117.51,1119.83,1121.05,1119.83Zm-2.58-1.9s-4.63,2.31-6.67,4.63A6.24,6.24,0,0,1,1118.47,1117.93Zm-25.59,84c-3.26,0-3-2.17-3-2.17.27-2.73,3.95-1.64,6.67-.41A4.5,4.5,0,0,1,1092.88,1201.88Z"/><path d="M1223.51,1169c-1.91-.13-2.32,2.32-2.32,2.32-7.34,30.34-14.56,31.7-14.56,31.7-7.07-.82.14-79.6.14-79.6.41-6.26-4.35-7.48-10.48-7.62a2.16,2.16,0,0,0-2.31,2c-.41,3.68-1.09,12-1.63,22-3.95,62.31-20.55,62.59-20.55,62.59-9.66-.41-2.86-54.16-2.86-54.16.55-5,1.64-10.34,2.18-15.24.68-5.85-.95-15-8-17.14s-14.28,7.21-17.41,12c-5.17,7.89-9.26,18.92-6,27.9.82,2.31,3.26,4.89,6.12,5a1.06,1.06,0,0,0,1-.54c.27-.41.4-1.23-1.09-2.32-2-6.26.13-14.56,1.77-20.54,1.9-6.53,5.57-15.92,13.19-17.69,2.73,1-.4,8.16-1.36,11.43a97.89,97.89,0,0,0-3.4,18.64s-7.07,58.92,15.38,57.42c9.66-.68,16.73-11.3,21.77-24.09,1.77,13.88,5.44,24.36,12.92,24.22,13.07-.27,18.65-35.64,18.65-35.64S1225.14,1169.09,1223.51,1169Zm-60.42-42.86a16.64,16.64,0,0,0,.55-6.26C1167.45,1121.87,1163.09,1126.09,1163.09,1126.09Z"/><path d="M1305.82,1169c-1.9-.13-2.17,2.32-2.17,2.32-7.49,30.34-14.7,31.7-14.7,31.7-7.07-.82,0-54.15,0-54.15s4.63-31-10.61-32.66c-17.55-1.77-25.72,41.09-28.85,64.09a61.8,61.8,0,0,1,0-6.94c0-8.3.82-16.74,1.63-24.9.55-5,1.64-10.48,2.18-15.24.68-6-1-15-8-17.15s-14.28,7.22-17.41,12c-5.17,7.75-9.26,18.91-6,27.76.82,2.44,3.27,4.89,6.12,5a1.27,1.27,0,0,0,1-.41c.27-.54.4-1.36-1.09-2.45-2-6.12.13-14.56,1.77-20.41,1.9-6.66,5.58-16,13.2-17.82,2.72,1-.41,8.16-1.37,11.43a98.68,98.68,0,0,0-3.4,18.64,178.75,178.75,0,0,0-1,21.09c.14,10.48.68,22.86,6,32.25,1.9,3.4,5.71,4.62,9.39,3.94a1.34,1.34,0,0,0,1-2,11.61,11.61,0,0,1-.82-1.36c.27-5.17,1.91-31,8.17-52.93,6.8-24.35,12.65-30.75,17.14-28.85.68,1.09.41,6-1,12.8-1,6-1.77,11.7-1.77,11.7s-8.57,60,13.06,61c13.06.55,18.64-35.64,18.64-35.64S1307.59,1169.09,1305.82,1169Zm-60.41-43.13a16.76,16.76,0,0,0,.54-6.26C1249.76,1121.74,1245.41,1125.82,1245.41,1125.82Z"/><path d="M1441.75,1168.82c-1.91-.14-2.31,2.45-2.31,2.45-7.35,30.34-14.56,31.7-14.56,31.7-2.86-.27-3.4-13.61-3-29.12,3.81.55,6,1.77,6.26,4.22,0,0,1.23,2.18,1.91.14.41-1.77,1.9-10.48-7.89-11.57.81-21,2.85-43.27,2.85-43.27.41-6.26-4.35-7.62-10.47-7.75a2.36,2.36,0,0,0-2.32,2.17c-.68,6.81-2.72,29-2,49.53-6.67.82-10.75,1.91-18.5,2.31a46.51,46.51,0,0,1-6.26,0c.68-19.18,1.36-40.82,1.22-46.8,0,0-.13-5.85-8.57-7.21-.54-.14-1,.54-.82,1.08,1,3.13,3.13,14.43,2.86,52.12-5-1.36-9.52-4.22-10.2-10.21,0,0,.41-2.58-.41-2.72-1.09-.27-3.27,3.81-.68,9.93a13.35,13.35,0,0,0,2.27,3c-1.61.05-2,2.43-2,2.43-5.85,30.34-27.35,30.75-27.35,30.75-7.48-1-12.11-19-8.57-42.45a203.61,203.61,0,0,1,5-20.82c6.67-1.77,13.88-4.63,16.74-10.48,2.59-5.31,1.36-8.71-.27-10.34-2.59-2.72-7.08-2.31-7.08-2.31-8,.4-14.28,9-18.64,18.09-9,1.09-18,2-22.31,5.31-6.81,4.9-2.86,9.93-1.23,11.7,0,0,1,1,1.77.27.41-.4.14-1.77.14-1.77,1.77-4.62,11.16-6.66,18.37-8a118.43,118.43,0,0,0-4.49,14.56c-4.36,18.64-5.17,52.11,21,51.43s30.34-35.65,30.34-35.65a4.08,4.08,0,0,0,0-1.38,20.57,20.57,0,0,0,7.59,4c-.14,8.58-.27,18.24-.68,29.26,0,0-.13,3.94,2.59,3.81,2.17,0,2.31-4.76,2.31-4.76s.41-12.25,1-27.35a26.32,26.32,0,0,0,6.53,0c7.08-.68,13.47-1.23,18.64-1.5,1.09,18.37,4.63,33.88,13.61,33.61,13.2-.27,18.78-35.65,18.78-35.65S1443.38,1169.09,1441.75,1168.82Zm-91.57-49a2.2,2.2,0,0,1,1.9.82c.82.95,1.23,3.13-.54,5.85s-5.85,4.36-10.89,5.44C1343.24,1125.14,1346.5,1119.83,1350.18,1119.83Zm-4.22-1.9s-4.49,2.31-6.67,4.63A6.24,6.24,0,0,1,1346,1117.93Zm68.17,5.58c-.68-6.67,3.13-5.72,3.13-5.72C1415.35,1119.56,1414.13,1123.51,1414.13,1123.51Z"/><path d="M1535.63,1116.3s-.13-1-1-.55c-.41.14-.41,1.09-.41,1.09-2.31,2.18-11.43,2.18-18,2,0-.27,0-.41.14-.54a2.51,2.51,0,0,0-.68-1.64,7.2,7.2,0,0,0-3.54-1.08,14.93,14.93,0,0,0-7.89,1.49,3.6,3.6,0,0,0-1.09,1c-10.61-.28-31.84,2-29.8,24.08,0,0,1,7.07,7.62,7.21,0,0,1.23.27,1.23-.95,0-.68-1.37-1-1.37-1-.27-6,.55-22.59,20.82-24.5a260.4,260.4,0,0,0-2,35.24c.41,16.74,1.36,33.61,2.86,41.91a8.58,8.58,0,0,0,8.16,7.08,16.4,16.4,0,0,0,3.54-.14,1.06,1.06,0,0,0,.82-1.22c-1-3.13-3.13-14.29-2.32-44.63.41-16.06,1.91-30.07,2.86-37.56,3.95.41,6.4,1.09,11.7,1.5C1537.54,1126,1536.18,1118.47,1535.63,1116.3Zm-31,5.17a2.88,2.88,0,0,1,3.27-3.4A14.39,14.39,0,0,0,1504.61,1121.47Z"/><path d="M1607.2,1168.82c-1.9-.14-2.31,2.45-2.31,2.45-7.35,30.34-14.56,31.7-14.56,31.7-3.68-.41-3.54-15.1-2.59-29.12,3.54.68,5.58,1.91,5.85,4.22,0,0,1.23,2.18,1.91.14.41-1.77,1.9-10.07-7.08-11.43.82-9.94,1.91-18.1,1.91-18.1s4.63-33.74-10.61-32.52c-12.79,1.09-29.94,20-37.42,51.43a10.79,10.79,0,0,1-6.94-9s.41-2.58-.41-2.72c-1.09-.27-3.27,3.81-.68,9.93a17.11,17.11,0,0,0,6.94,6.54c-.82,4.08-3.54,18.23-3.13,31.29,0,0,0,3.95,2.72,3.54,2.18-.27,2.31-4.49,2.31-4.49.28-5,.14-15.51,2.86-28.44a31.71,31.71,0,0,0,11.29.82c6.67-.55,12.66-1.23,17.69-1.5.28,16.06,3.13,33.2,14.56,33.61,13.2.54,18.78-35.65,18.78-35.65S1608.83,1169.09,1607.2,1168.82Zm-28.84-34.15c-1,6-1.77,11.7-1.77,11.7a201,201,0,0,0-1.64,21.09c-6.26.81-10.34,1.77-17.82,2.17a41.82,41.82,0,0,1-9.93-.54,98.16,98.16,0,0,1,6-17.42c11.3-25,23.68-30.61,26-29.93C1580.4,1122.15,1579.31,1128.54,1578.36,1134.67Zm2.85-6.4a13.51,13.51,0,0,0,.41-6.4C1585.57,1124.19,1581.21,1128.27,1581.21,1128.27Z"/><path d="M1681.76,1168.82c-3.81,0-7.48,0-11,.27-3.54-11.7-18.78-13.47-18.78-13.47s4.9-.95,9.8-7.62c4.22-5.71,4.35-24.9-7.21-27.89-7.08-1.91-14.7,9.66-19.32,18.77a53.35,53.35,0,0,0,.68-6.53s.27-14.69-9.26-16.6-27.34,24.49-21.36,40.41c0,0,1.77,4.63,6.13,4.77a1.07,1.07,0,0,0,.95-.41c.27-.55.41-1.36-1.09-2.32-2-5.71,1.09-34.42,13.2-38.5,1.9,0,1.09,4.22-.41,10.2a104.42,104.42,0,0,0-2.72,20c-.55,15,1,33.48,4.63,38-6.26,9.39-2.73,18.91,7.21,19.32,18.23,1,35.24-14.42,38-28.85a18.52,18.52,0,0,0,.27-5.44c3.13-.27,6.53-.27,10.07-.27,0,0,3,.13,3-1.91C1684.48,1169,1681.76,1168.82,1681.76,1168.82ZM1634,1156.44c2.72-8.58,10.21-29.67,17.56-30.76,9.11-1.36-.41,27.63-17.69,34C1633.87,1158.61,1634,1157.52,1634,1156.44Zm-7.35-30.62a16.64,16.64,0,0,0,.55-6.26C1631,1121.74,1626.65,1125.82,1626.65,1125.82Zm20.14,67S1631.28,1203,1628,1197c-.68-1.36-.28-4.08,1.76-7.21,2.32,1,5,1.63,4.9.27,0-.68-.27-2.31-.41-5.17,4.77-4.08,12.66-8.16,24.22-10.47A25.24,25.24,0,0,1,1646.79,1192.77ZM1634,1180c-.13-3.41-.27-7.9-.27-13.34,3.54-1,20.68-5.31,23.81-.41a10.64,10.64,0,0,1,1.09,4.36C1647.75,1172.49,1639.72,1175.89,1634,1180Z"/><path d="M1742.58,1197.53c-7.48,6.94-24.08,2.45-31.84-.14,6.81-13.74,6.4-36.87,6.4-36.87a198.48,198.48,0,0,1,.95-22.86c5.44-1.77,10.48-4.63,12.79-9.39,2.59-5.17,1.36-8.57-.27-10.34-2.59-2.72-7.08-2.18-7.08-2.18-7.75.27-12.24,8.57-14.83,17.55-10.07,1.37-21.22,2-26.12,5.72-6.81,4.9-2.86,10.07-1.23,11.7,0,0,1,1.09,1.77.41.41-.41.14-1.91.14-1.91,2.31-5.85,17.14-7.62,23.67-8.84a107.93,107.93,0,0,0-1.77,16.19s-.4,8.17-.68,16.74c-.13,7.89-.41,16.33-1.49,21.5a50.49,50.49,0,0,0-5.58-1.23c-7.21-.68-7.89,5.85-7.89,5.85-.82,8,7.89,7.89,7.89,7.89a12.35,12.35,0,0,0,10.2-4.89c6.13,3.4,13.88,7.21,24.9,7.62,9.8.4,11.43-7.62,11.57-11.84C1744.22,1197.39,1743.26,1197,1742.58,1197.53Zm-16.46-77.7a2.72,2.72,0,0,1,1.9.82c.82.95,1.23,3.13-.54,5.85-1.5,2.31-4.49,3.81-8.3,4.76C1720.4,1124.87,1722.58,1119.83,1726.12,1119.83Zm-2.59-1.9s-4.62,2.31-6.66,4.63A6.22,6.22,0,0,1,1723.53,1117.93Zm-25.58,84c-3.26,0-3-2.17-3-2.17.27-2.73,4-1.64,6.67-.41A4.5,4.5,0,0,1,1698,1201.88Z"/><path d="M1812,1168.82c-1.76-.14-2.17,2.45-2.17,2.45-5.85,30.34-27.35,30.75-27.35,30.75s-16.47,1.22-15.24-19c.81-15.1,15.65-20,21-21.36a1.43,1.43,0,0,0,.82-2.18,7.11,7.11,0,0,0-7.35-3.27c-6.53-1.9-8.16-9.25-7.07-16.46,7.48-1.5,17.55-4.22,21.09-11.43,2.58-5.31,1.36-8.71-.28-10.34-2.58-2.72-7.07-2.31-7.07-2.31s-15.1.4-22.86,16.6a14.6,14.6,0,0,0-1,2.17c-7.08,1-13.61,2-17.15,4.63-6.8,4.9-2.86,9.93-1.22,11.7,0,0,1,1,1.77.27.41-.4.13-1.77.13-1.77,1.5-3.94,8.71-6.12,15.24-7.34.55,9.25,8.71,15.24,11.57,15.92,0,0-14.43,5.17-19.59,18.77-5,13.75,4.08,31.16,27.62,30.62,26.26-.82,30.34-35.65,30.34-35.65S1813.74,1169.09,1812,1168.82Zm-26.66-50.89s-4.49,2.31-6.67,4.63A6.24,6.24,0,0,1,1785.31,1117.93Zm-6.4,10.07c5.58-7.89,11.7-8.17,11.7-8.17a2.91,2.91,0,0,1,2.18.68c.82,1,1.22,3.27-.55,6-2.44,3.54-8.7,5.17-15.92,6.26A23.12,23.12,0,0,1,1778.91,1128Z"/><path d="M1125.76,1534.54h0S1125.75,1534.55,1125.76,1534.54Z"/><path d="M996.73,1540.59c1.82-1,2.49-.65,2.49-.65s.67.53.31,2.24-1.92,4.34-4.53,9.88c-5.6,11.06-6.83,32,3.22,49a23,23,0,0,0,2,3.05c.69.92,1,1.37,1.74,2.28h.19a46.24,46.24,0,0,0,5.92-12.07,66.16,66.16,0,0,0,2.49-23.07c-.46-8.35-3.11-18.71-7.25-24.64-1.48-2.49-2-3.84-1.78-5a2.71,2.71,0,0,1,.76-1.63,2.23,2.23,0,0,1,1.84-.39c1.17.21,3.46,1.11,5.5,4.45,2.69,4.44,6.71,12.08,7.93,26.83a70.46,70.46,0,0,1-2.72,25,48.63,48.63,0,0,1-7.19,14.17l-4.92,5.76-.29.35-.34-.27-.68-.68-1.33-1.39-2.66-2.77-1.22-1.3-.63-.84c-.51-.67-.77-1-1.28-1.68a27.85,27.85,0,0,1-2.28-3.49c-11-19.14-9.48-41.28-3.14-54.07C991.68,1543.85,995,1541.53,996.73,1540.59Z"/><path d="M1956.42,1350.27c-9.26,17.4-26.75,28.78-43.5,32.56-10.87,2.65-24,1.35-33.34-5.38a36.4,36.4,0,0,1-11-12.2,50.14,50.14,0,0,1-5.71-14.8,30,30,0,0,1,1.13-16.34,28.1,28.1,0,0,1,10.79-13.33,37.45,37.45,0,0,1,30.72-4.69c7.5,2.27,11.74,6.64,13.74,10.15a16.71,16.71,0,0,1,2.43,8.12c-.16,3.66-1,3.86-1,3.86s-.82.3-2.24-2.7a35.76,35.76,0,0,0-4.22-6.47,23.22,23.22,0,0,0-13.07-7.59,30.5,30.5,0,0,0-16.82,1.32c-6.13,2.25-12.75,7.24-14.6,15.25-2,7.85.74,17.92,6.91,27.13s19.37,15.47,35.17,11.64c14.47-3.19,30.45-13.58,38.49-28.87a35.07,35.07,0,0,0,3.44-24.6c-2.16-8.27-7.5-15.82-14.9-22a51.25,51.25,0,0,0-26.39-12.21c-10.13-1.43-21.07.45-31.2,4.55a105.59,105.59,0,0,0-28.13,17.42l-6.19,5.59c-2.32,2.39-3.49,3.58-5.82,6-1.53,1.81-3.11,3.64-4.71,5.47a137.8,137.8,0,0,1-16.75,18.86c-27.49,30-58.52,56.63-84.89,83.07-8.45,8.79-17.18,17-26,24.55,8.77-2.18,20.27-3.77,35.37-4a263.47,263.47,0,0,1,48,3.81,151.35,151.35,0,0,1,27.29,7.11c1.13.46,2.26.89,3.38,1.4l2.54,1.29c1,.51,2,1,2.93,1.53l2.85,1.6,1.43.8-1.42.9-6.12,3.59-4.26,2.45c-1.15.61-2.37,1.1-3.54,1.65-2.4,1-4.7,2.27-7.19,3.09-19.52,7.5-40.32,10.11-58.81,10.19s-35-2.58-47.44-6.13c-11.31-3.2-16.48-6.62-19-8.57-.39-.31-.69-.57-1-.82q-9.32,6.84-18.35,12.74a105.66,105.66,0,0,1-21,12.89c-6,3.33-11.29,6.38-16.2,8.76-2.69,1.24-5.2,2.38-7.54,3.44-5.68,3.68-17.24,9.33-40.11,16-47.18,13.07-94.8,21.8-142.85,29.11a57.36,57.36,0,0,1-5.73,1.48,67.32,67.32,0,0,1-15.23,1.63q-21.57,3.12-43.23,6.06c-39.38,4.23-78.61,8.86-114.7,11.92-18,1.58-35.25,2.92-51.24,4-8,.56-15.69,1.07-23,1.52-7.31.67-14.26,1.27-20.8,1.81-34.17,2.84-76.51,5.44-106.24,6.76-24,1.07-24.69-2.05-24.69-2.05s-1.1-2.89,26.2-4.13c6.31-.28,14-.61,23.56-1.1-9-2.09-16.58-5.65-23.23-8.88-20.53-10.61-39.8-29.74-51.49-43.88-4.53-5.5-6.15-8.88-6.67-10.86-.57,2-2.37,5.69-7.53,11.87a218.86,218.86,0,0,1-16.33,17.47c-7.76,7.25-18,16.55-34.45,25.48-6.73,3.26-14.45,6.87-23.52,9,8.34.46,16.24.87,23.4,1.19,24,1.08,24.28,4,24.28,4s.65,3.22-26.65,2c-18.49-.85-48.55-2.1-104.29-6.79-6.55-.55-13.52-1.16-20.83-1.83q-11-.67-23-1.54c-16-1.11-33.27-2.46-51.32-4.06-36.12-3.11-75.38-7.81-114.76-12.1q-20-2.76-39.85-5.62h-.08a69.9,69.9,0,0,1-18.5-1.66,60.06,60.06,0,0,1-8.06-2.29l-.6-.14c-47-7.29-93.67-16-139.86-28.81-14.47-4.18-24.37-8-31.14-11.2a256.25,256.25,0,0,1-33.86-16.79l-.42-.25a102.33,102.33,0,0,1-20.4-12.61c-5.69-3.75-11.49-7.78-17.35-12.1l-.24.24c-2.23,1.95-7.26,5.72-19.56,9.17-12.48,3.53-29,6-47.58,6-18.55-.14-39.38-2.83-58.91-10.41-2.47-.84-4.79-2.08-7.18-3.12-1.17-.56-2.39-1-3.53-1.67-1.75-1-2.63-1.52-4.39-2.53l-6.24-3.69-.78-.46-.33-.45,1.47-.81,2.91-1.63c.95-.55,2-1,3-1.56l2.52-1.27c1.35-.55,2-.82,3.39-1.38a153.63,153.63,0,0,1,27.32-7,266.57,266.57,0,0,1,47.91-3.72c10.68.1,23.32,1.11,34.72,3.91-8.75-7.58-17.44-15.74-25.84-24.5-26.38-26.5-57.46-53.24-84.94-83.34a136.81,136.81,0,0,1-16-18.1q-2.64-3-5.18-6l-5.8-5.95-6.18-5.58a104.82,104.82,0,0,0-28.11-17.33c-10.12-4.08-21-5.93-31.11-4.48a51.09,51.09,0,0,0-26.29,12.24c-7.4,6.13-12.71,13.71-14.85,22A35,35,0,0,0,49.75,1348c8,15.26,24,25.64,38.45,28.82,9.47,2.28,20.1,1.15,27.79-4.33,7.73-5.29,12.44-14.52,14.52-23.47s-1.27-18.49-9-23.46a30.13,30.13,0,0,0-24.59-3.73,22.93,22.93,0,0,0-11.38,7.32,37.56,37.56,0,0,0-4,6.07c-1.43,2.91-2.3,3-2.3,3s-.92.16-1.11-3.6a17.16,17.16,0,0,1,2.7-8.7c2.27-3.82,7.3-8.64,16.08-10.61A38.11,38.11,0,0,1,118,1317a33.65,33.65,0,0,1,11.48,7.11A26.43,26.43,0,0,1,137,1337c2.46,10.32-.84,21.36-7.74,31.79a35.1,35.1,0,0,1-16.7,12.84c-7.44,2.85-16.53,3.25-25.5,1.22-16.78-3.78-34.34-15.22-43.57-32.67-4.55-8.66-6.31-19-3.87-28.65s8.82-18.19,16.8-24.78a57.78,57.78,0,0,1,29.81-13.61c11.61-1.61,23.86.61,34.85,5.09a112.7,112.7,0,0,1,30,18.62l.29.26c-.13-.31-.27-.61-.4-.92a74.92,74.92,0,0,1-5.9-27.48,61,61,0,0,1,5.58-26.26,69.44,69.44,0,0,1,15.13-21,44.42,44.42,0,0,1,22.79-11.33,42.75,42.75,0,0,1,24.18,2.77,33.79,33.79,0,0,1,16.42,14.77c4.22,8.17,4.39,18.2,1.36,26.77a35.2,35.2,0,0,1-6.44,12.47,24.8,24.8,0,0,1-12.45,8.49c-10.33,3-22.28-1.25-27.89-9.79-4.7-8.74-4.15-17.87-.12-24.88,3.29-5.68,9.25-8.28,13.52-7.8a12.66,12.66,0,0,1,7.79,3.21c2.31,2.54,1.8,3.12,1.8,3.12s-.45.63-3.25-.39a15.54,15.54,0,0,0-6.3-.76c-2.64.29-6.17,2.21-8.55,7.1a20.13,20.13,0,0,0-1,12.92,13.91,13.91,0,0,0,3.8,6.95,18.53,18.53,0,0,0,8.58,4.61c7,1.88,15.7-1,20.56-9,4.91-7.81,7.86-19.67,2.78-30.4a27.16,27.16,0,0,0-13.22-11.79,35.88,35.88,0,0,0-20.27-2.28,38,38,0,0,0-19.57,9.85,64.41,64.41,0,0,0-13.67,19.14c-6.9,14.64-6.46,32.7.59,49.29a101,101,0,0,0,12,21q2.91,3.32,5.8,6.53,4.68,5.47,9.57,10.81,3.42,3.26,7,6.31a148,148,0,0,0,51.58,28.17,98.36,98.36,0,0,0,28.18,4.32c1.15,0,2.28-.12,3.43-.16l3.18-.19,1.7-.1.73.1.28.74c1,2.7,1.92,5.4,2.88,8.07q2.25,6.23,4.48,12.32c6,16.19,12.28,31.44,19.93,44.81a122.54,122.54,0,0,0,26.76,33.07c1.1.91,2.17,1.78,3.23,2.62,6.87,4.51,13.58,8.63,20,12.33,3.31,1.83,6.38,3.59,9.27,5.23a181.1,181.1,0,0,1-14.26-14A196.8,196.8,0,0,1,307.71,1390c-3.18-19.63-3.41-40.53,1-61.27a101.29,101.29,0,0,1,3.44-12,9.82,9.82,0,0,1-1.27.17,12.7,12.7,0,0,1-5.53-.71,38.77,38.77,0,0,1-12.16-5.85A53.89,53.89,0,0,1,278,1294.08c-4.67-7.27-8.74-17.06-11.48-28.07a116.82,116.82,0,0,1-3-17.31c-.11-1.08-.16-1.62-.26-2.7-.09-1.7-.13-2.55-.22-4.25.15-2.4-1.51-7.51,2.41-4.25,2.55,1.36,5.6,2.8,7.75,4.09l4.17,2.53a110,110,0,0,1,27.11,25.4c6.89,9.37,11.42,19.21,12.5,27.59a26.15,26.15,0,0,1,.12,7.86A111.07,111.07,0,0,1,341,1273a94.69,94.69,0,0,1,28.24-18.18,84.33,84.33,0,0,1,33.13-6.34c11.19.16,22.44,2.22,32.52,6.9a59.68,59.68,0,0,1,24.22,20.93,48.8,48.8,0,0,1,8.22,28.86,44.17,44.17,0,0,1-10.37,26.24c-6,7.26-14.08,11.83-22,15.53a46.79,46.79,0,0,1-16.3,2.86c1.83,1.63,4.16,3.71,6.93,6.15,21.1,18.63,66.87,58.11,93.25,74.72,53.58,33.78,97,44.71,125.7,44.7,12.79,0,22.63-2.19,29-5.31a20.63,20.63,0,0,0,6.89-5,7.57,7.57,0,0,0,2-4.84c0-1.69-.69-3.56-2.62-5.68-11.46-12.5-19.27-21.78-24.29-28.64a70,70,0,0,1-5.56-8.65,14.74,14.74,0,0,1-2-6.43,5.45,5.45,0,0,1,2-4.4,6.73,6.73,0,0,1,4.16-1.24c3.44.06,7.3,1.44,11.88,3.31,6.8,2.84,14.8,7,21.67,10.42,3.44,1.71,6.59,3.24,9.09,4.31,1.24.54,2.33,1,3.16,1.22a7.7,7.7,0,0,0,1.26.31c54.23-20,98.91-27.89,135.7-27.89,68.33,0,109.37,27.5,132.91,55.1a149.39,149.39,0,0,1,29,51.72,149.22,149.22,0,0,1,29-51.72c23.53-27.6,64.57-55.14,132.91-55.1,36.79,0,81.47,7.93,135.71,27.89a12.28,12.28,0,0,0,2.15-.63c4.72-1.7,13.59-6.4,22.21-10.64,4.32-2.13,8.62-4.15,12.47-5.67s7.18-2.59,10.22-2.63a6.72,6.72,0,0,1,4.15,1.24,5.4,5.4,0,0,1,2,4.4,14.58,14.58,0,0,1-2,6.43c-3.71,7.11-12.65,18.51-29.85,37.29-1.94,2.12-2.62,4-2.63,5.68a7.63,7.63,0,0,0,2,4.84c2.11,2.58,6.25,5.26,12.3,7.18s14,3.17,23.58,3.17c28.66,0,72.12-10.92,125.7-44.7,17.56-11.06,43.82-32.33,65.56-50.76,10.88-9.22,20.64-17.75,27.69-24,2.81-2.47,5.17-4.57,7-6.21A45.86,45.86,0,0,1,1565,1347c-7.94-3.7-16-8.32-22-15.59a44.08,44.08,0,0,1-10.3-26.29,48.77,48.77,0,0,1,8.36-28.85,60,60,0,0,1,24.28-20.86c10.09-4.63,21.34-6.63,32.52-6.76a84.56,84.56,0,0,1,33.09,6.47,94.78,94.78,0,0,1,28.12,18.27,110.52,110.52,0,0,1,23.3,31.22,27.49,27.49,0,0,1,.18-7.59c1.11-8.45,5.73-18.35,12.68-27.72a110.24,110.24,0,0,1,27.29-25.33l4.2-2.52c2.33-1.36,5.35-2.8,8-4.2l2-1,.5-.26.06.41,0,1.09c-.1,1.74-.14,2.61-.23,4.36s-.15,2.6-.24,4.33c-.11,1.07-.16,1.59-.27,2.66a118,118,0,0,1-3.06,17.3c-2.79,11-6.88,20.76-11.53,28a62.75,62.75,0,0,1-12,13.88c-5.06,4-10.8,7.08-16,8.31a11.24,11.24,0,0,1-6.45.23,99.65,99.65,0,0,1,3.59,12.56c4.37,20.72,4.06,41.6.82,61.2a196.84,196.84,0,0,1-45.45,96.2,174.76,174.76,0,0,1-14.05,13.72c3-1.68,6.24-3.49,9.66-5.48,6.49-3.73,13.25-7.89,20.17-12.44,1-.79,1.94-1.6,2.92-2.47a122.61,122.61,0,0,0,26.61-33c7.63-13.34,13.94-28.56,19.92-44.75,1.5-4,3-8.17,4.49-12.31,1-2.82,2.06-5.65,3.07-8.49,0-.78.93-.28,1.42-.37l1.81.1,3,.18c1.14,0,2.29.18,3.44.14a98.45,98.45,0,0,0,28.06-4.34c18.64-5.58,36.41-15.6,51.43-28.12q3.46-2.91,6.73-6,5-5.51,9.87-11.13c2-2.16,3.93-4.38,5.89-6.63a100.14,100.14,0,0,0,11.83-20.75c7-16.56,7.42-34.58.51-49.19a63.49,63.49,0,0,0-13.64-19.1,37.92,37.92,0,0,0-19.57-9.8,35.85,35.85,0,0,0-20.24,2.28,27.2,27.2,0,0,0-13.2,11.79c-3.3,6.45-3.64,14.65-.91,22.3,2.18,7.69,7.33,14.88,14.81,17.09s16.53-1.17,20.2-6.89c3.35-6,3.1-14,.06-18.92-2.46-4.07-5.66-5.63-8.15-5.84-2.57-.37-4.56.4-6,.65-2.75,1-3.46.54-3.46.54s-.79-.4,1.58-3a12.9,12.9,0,0,1,8.45-3.39c4.77-.38,11.25,3,14.35,9.72a25.82,25.82,0,0,1,1.36,16.82,20.59,20.59,0,0,1-5.57,10,25.64,25.64,0,0,1-11.93,6.42,25.27,25.27,0,0,1-15.38-1.09,26.58,26.58,0,0,1-12.33-10.69,41,41,0,0,1-3.73-7.68c-.84-2.78-1.53-5.69-2.2-8.7-.59-6.18-.41-13.17,3-19.91a33.8,33.8,0,0,1,16.47-14.79,42.75,42.75,0,0,1,24.23-2.72,44.4,44.4,0,0,1,22.79,11.39,70.16,70.16,0,0,1,15.07,21c7.64,16.11,7.06,36.05-.51,53.74-.09.2-.19.4-.27.61l.41-.37a111.86,111.86,0,0,1,30.15-18.52c11-4.45,23.28-6.62,34.88-5a57.82,57.82,0,0,1,29.72,13.72c8,6.59,14.22,15.2,16.7,24.83S1961,1341.64,1956.42,1350.27Zm-250.15,128c11.85,3.35,27.68,5.75,45.5,5.77s37.73-2.72,56-9.78c2.33-.78,4.45-1.94,6.67-2.9,1.09-.52,2.22-1,3.26-1.54l2-1.16v0l-.54-.26-3.06-1.26a146,146,0,0,0-25.89-6.68,257.07,257.07,0,0,0-46.41-3.67c-16.65,0-38.18,2.77-49.71,10.06l-1,.65-2.23,1.73a5.84,5.84,0,0,1,1.3-.56,5.72,5.72,0,0,1,1.87-.31,11.59,11.59,0,0,1,3.23.37c12,2.51,40.22.78,54.08,1.26a108.43,108.43,0,0,1,14.41,1.1c3.44.71,2.17,3.67,2.17,3.67s-1.23,3-4.2,2.36a92.18,92.18,0,0,0-13-.95c-13.57-.54-41.27,1.14-55.42-1.69-3.27-.71-4.78-2.22-5.11-3.35a1.67,1.67,0,0,1,.07-1.42q-1.87,1.44-3.74,2.83C1689.68,1473.15,1695.19,1475.19,1706.27,1478.29Zm-104,37.22,4-1.91,1.89-1.23c2.32-1.77,5.1-3.89,8.42-6.45l.68-.53a9.53,9.53,0,0,1,1.74-2.57,57.88,57.88,0,0,1,6.09-5.86c1.57-1.24,2.93-3.12,4.84-5,1.75-2,4.27-3.93,6.28-6.73a88.74,88.74,0,0,0,20.38-44.92,106.43,106.43,0,0,0,.35-28.49,43.26,43.26,0,0,0-4.7-13.52,37.91,37.91,0,0,0-9-11.37,28.12,28.12,0,0,0-27.29-6.38c-9.16,3.39-17.37,10.59-20.28,18.58a24.72,24.72,0,0,0,3.66,23c4.46,6.29,11.93,9.58,17.79,7.94,7.92-1.68,16.32-10.63,15.24-18.41-.44-3.83-3.19-7-6.92-9.07-3.25-2-7.15-2-9.39-.42-3.2,2.65-3.34,6-4,7.46s-1.43,2-1.43,2-.79.39-1.9-1.26a6.86,6.86,0,0,1-1.25-4.64c0-.62,0-1.29.13-2a13.88,13.88,0,0,1,1-2.39,6.26,6.26,0,0,1,1.85-2.5,9.82,9.82,0,0,1,3-2.21c3.2-1.89,7.61-2.12,11.91-.89a22,22,0,0,1,6,3.06,19.7,19.7,0,0,1,5.19,5.26,16.05,16.05,0,0,1,2.69,8.06,20,20,0,0,1-2.22,9.33,28.71,28.71,0,0,1-18.51,14.63,21.84,21.84,0,0,1-14.13-1.41,26.16,26.16,0,0,1-8.22-5.87,122.49,122.49,0,0,1,.73,13.52c0,12.56-1.83,29.64-9.44,46.74a94.54,94.54,0,0,1-34.17,40.41q12.9-3.15,25.73-6.7C1588.63,1519.89,1596.22,1517.5,1602.27,1515.51Zm-63.56,16.87a64.79,64.79,0,0,1-6.3-4.59,67.76,67.76,0,0,1-11.08-11.4,46.74,46.74,0,0,1-2.89-4l-.69-1.18-.06-.07h0l-.8.71-4.85,4.31c-3.38,2.91-7.07,5.82-10.78,8.84s-7.85,5.8-11.9,8.63a166.35,166.35,0,0,1-23.78,13.42c24.51-4.07,48.9-8.69,73.18-14.22A3.08,3.08,0,0,1,1538.71,1532.38Zm-165.59,28.25,21.34-2.93c-4.93-1.07-9.71-2.35-14.35-3.78-20.61-6.55-36.54-17.78-46-28.74a80.53,80.53,0,0,1-8.82-12.46c-.36-.86-.68-1.66-1-2.4-.08.14-.15.26-.24.4-3.15,4.66-8.26,12.55-21.46,24.37-12.29,11.21-34.48,24.79-59,33.34-7.39,2.73-14.92,5-22.3,7,11.86-.88,24.28-1.87,37.12-3C1294.55,1569.44,1333.87,1564.82,1373.12,1560.63Zm-746-.16c39.22,4.24,78.47,8.9,114.5,12,12.28,1.08,24.17,2,35.57,2.9-7-1.93-14.06-4.17-21-6.78-24.46-8.66-46.55-22.32-58.8-33.5-8.28-6.84-16.45-17-21.39-24.54-.21.53-.42,1.08-.66,1.67-.67,1.84-2.12,3.65-3.55,5.92-1.62,2.15-3,4.94-5.66,7.43-9.53,11-25.56,22.22-46.27,28.73-4.16,1.27-8.42,2.42-12.81,3.41Zm-94.88-14.13a162.42,162.42,0,0,1-21.74-12.62c-4-2.86-8-5.78-11.86-8.69s-7.35-6-10.7-8.88l-4.85-4.33-.76-.69-.05,0-.76,1.27c-.87,1.49-2,2.75-2.91,4a70.63,70.63,0,0,1-17.61,16C484.65,1537.78,508.4,1542.31,532.26,1546.34Zm-110.91-24c6.79,1.88,13.6,3.65,20.42,5.36A94.19,94.19,0,0,1,410,1489c-7.61-17.1-9.43-34.18-9.43-46.74,0-4.24.21-8,.48-11a25.21,25.21,0,0,1-5.45,3.34,21.87,21.87,0,0,1-14.09,1.41,28.22,28.22,0,0,1-14.84-9.24c-3.77-4.38-6.48-10.13-5.63-16,.68-6,5.16-10.72,9.83-13.21,4.78-3,12-3.53,16.86-.09a31.94,31.94,0,0,1,2.44,2.18,10.49,10.49,0,0,1,1.37,2.33,7.41,7.41,0,0,1,.85,3.95,6.39,6.39,0,0,1-1.25,4.29c-1.09,1.6-1.91,1.38-1.91,1.38s-.83-.16-1.45-1.82c-.42-.79-.27-2-1.05-3.46l-.38-1.17-.76-1.08-1-1.07c-.45-.27-.67-.82-1.34-1-1.37-1-3.77-1-6.18-.36a15,15,0,0,0-4.06,2.09,13.56,13.56,0,0,0-3.63,3.65,10.29,10.29,0,0,0-1.78,5.18,14.16,14.16,0,0,0,1.61,6.52,21.75,21.75,0,0,0,13.72,11c5.85,1.64,13.31-1.65,17.78-7.94a24.82,24.82,0,0,0,3.66-23c-2.94-8-11.14-15.23-20.35-18.64a28.39,28.39,0,0,0-27.48,6.44,38.39,38.39,0,0,0-9.09,11.45,43.41,43.41,0,0,0-4.73,13.58,107.18,107.18,0,0,0,.32,28.59c2.68,18.46,11,34.43,20.44,45.1,4.22,4.85,8,8.28,10.53,11.13a78.92,78.92,0,0,1,6.28,5.76c2.64,2.78,2.6,3.59,2.6,3.59l0,0c4.14,3.26,7.62,5.69,10.39,7.56C400,1515.88,409,1518.77,421.35,1522.37Zm-116.28-55.85c-7.05-4.08-21.28-9.29-48.86-9.71a259,259,0,0,0-46.48,3.61,144.37,144.37,0,0,0-26,6.65l-3.07,1.25-.57.26.06.2c.87.5,1.29.76,2.17,1.26,1.05.57,2.19,1,3.28,1.53,2.23,1,4.35,2.14,6.68,2.92,18.26,7.12,38.27,9.77,56.07,9.9s33.77-2.37,45.64-5.75c10.59-3,16.11-5,19.33-5.77l-3.24-2.43a1.77,1.77,0,0,1,0,.69,3.7,3.7,0,0,1-1.34,2.07,10.39,10.39,0,0,1-3.91,1.66c-14.33,2.84-42,.73-55.54,1.27a103.06,103.06,0,0,0-13.27.87c-2.62.54-4-2.39-4-2.39s-1.44-2.94,2.48-3.74a109.7,109.7,0,0,1,14.17-.91c13.91-.49,42.11,1.68,54.23-.86a11.33,11.33,0,0,1,4.93-.27l.29.07-3-2.34ZM302,1449.36c-7.88-13.84-14.28-29.39-20.25-45.66q-2.24-6.1-4.47-12.35l-1.45-4h0l-.51,0c-1.26.05-2.51.19-3.77.16a106.1,106.1,0,0,1-30.31-4.67,146.82,146.82,0,0,1-30.62-13.27c20,19.62,40.69,38.25,59.21,56.85a385.42,385.42,0,0,0,38,34.54c.59.33,1.18.65,1.74,1,.31.19.59.38.87.57A138.68,138.68,0,0,1,302,1449.36Zm11.41-136.88s-.83-.24-1.32-2.21-.25-5.5-1.29-12.58c-.92-7.26-5-16.2-11.42-24.91a103.27,103.27,0,0,0-25.5-23.76c-1.64-1-2.47-1.48-4.1-2.48l0,0c.07.7.11,1.06.18,1.76a110,110,0,0,0,2.93,16.48c2.64,10.47,6.52,19.67,10.78,26.28a57.63,57.63,0,0,0,10.64,12.37c4.34,3.4,9.08,6.07,13.4,7.06,3.17.92,4.94,1.54,5.9,2.44.09-.23.2-.46.29-.69A1,1,0,0,1,313.41,1312.48Zm1375-.84c1.08-.44,2.55-.73,4.44-1.45a32.19,32.19,0,0,0,10.11-4.81,46.69,46.69,0,0,0,13.41-14.32c4.27-6.62,8.17-15.81,10.87-26.28a113.94,113.94,0,0,0,3-16.5c.08-.72.11-1.09.19-1.81l-.06-.15-.47.25-3.89,2.34a103.57,103.57,0,0,0-25.69,23.74c-6.48,8.73-10.59,17.74-11.5,25.07-1,6.61-.7,10.17-1.08,12.22s-1,2.5-1,2.5a1.15,1.15,0,0,1-.92-.25c.11.27.23.53.33.8A7.25,7.25,0,0,1,1688.38,1311.64Zm-3.71,18.56a102.94,102.94,0,0,0-30.29-52.7c-15.18-14.33-35.88-23.31-56.77-22.85-10.38.15-20.64,2.06-29.68,6.25a53.16,53.16,0,0,0-21.59,18.62,42.64,42.64,0,0,0-7.18,25.3,38.28,38.28,0,0,0,9.07,22.74c5.22,6.36,12.54,10.45,19.51,13.76,7,2.64,14.93,2.88,21.94,1.79a52.38,52.38,0,0,0,26.11-11.86c7.13-6.53,11.54-15.73,10.25-24.87-.17-1.13-.17-2.27-.45-3.39-.4-1.32-.6-2-1-3.32a31.35,31.35,0,0,0-2.54-6.16,23.26,23.26,0,0,0-9.55-8.36,28.84,28.84,0,0,0-23.83-.2,24.07,24.07,0,0,0-10.3,8.74,36.45,36.45,0,0,0-3.4,6.53c-1.28,3.07-2.11,3.23-2.11,3.23s-.87.28-1.12-3.41c-.2-1.83.08-4.78,2-8.94s6.25-9.65,14.46-12.6a35.25,35.25,0,0,1,20.07-1.3c7.44,1.66,16.51,6.34,20.73,15.79a41.57,41.57,0,0,1,3.83,15.16,34.5,34.5,0,0,1-4.51,17.65c-6.81,11.47-20.65,20.69-37.72,23.37-.73.11-1.47.19-2.22.28a3.14,3.14,0,0,1-.8,1.16h0s-17.37,15.7-39.21,34.21-48.13,39.84-66.28,51.29c-54.39,34.27-98.86,45.68-129.12,45.69-13.52,0-24.21-2.26-31.8-6a27,27,0,0,1-9-6.71,14,14,0,0,1-3.45-8.92,14.82,14.82,0,0,1,4.32-10c11.36-12.39,19-21.55,23.83-28.08a62.74,62.74,0,0,0,5-7.82,13.48,13.48,0,0,0,1.13-2.71c-1.65.09-5.14,1.12-9.08,2.8-6.41,2.67-14.35,6.78-21.28,10.24-3.47,1.73-6.69,3.3-9.42,4.47-1.37.58-2.61,1.07-3.74,1.43a11.4,11.4,0,0,1-3.35.63,4.89,4.89,0,0,1-1.71-.29h0c-53.83-19.86-97.89-27.62-133.83-27.62-66.6,0-105.43,26.48-128,52.86a147,147,0,0,0-22.79,36.31,122.67,122.67,0,0,0-4.54,11.92c-.46,1.43-.78,2.54-1,3.29l-.22.84-.06.25a3.21,3.21,0,0,1-3.84,2.4,3,3,0,0,1-1.39-.74,3.11,3.11,0,0,1-1.4.74,3.19,3.19,0,0,1-3.83-2.4l-.07-.25c-.7-2.86-7.82-29.3-30.69-54.84s-61.36-50.34-125.88-50.38c-35.94,0-80,7.76-133.83,27.62a4.8,4.8,0,0,1-1.72.29,14.1,14.1,0,0,1-4.52-1c-5.55-2.05-14.27-6.72-22.82-10.92-4.26-2.09-8.45-4-12-5.46a29.06,29.06,0,0,0-7.52-2.16,14.3,14.3,0,0,0,1.14,2.71c3,5.91,11.83,17.35,28.87,35.9a14.83,14.83,0,0,1,4.31,10,14,14,0,0,1-3.45,8.92c-3.27,3.92-8.44,7-15.28,9.2s-15.38,3.47-25.52,3.47c-30.26,0-74.73-11.42-129.12-45.69-18.15-11.45-44.42-32.77-66.27-51.29s-39.2-34.2-39.22-34.21a3.31,3.31,0,0,1-.94-1.55,59.16,59.16,0,0,1-29.23-13.49c-4.05-3.93-7.74-8.41-9.86-13.67a31.93,31.93,0,0,1-2.32-16.24,40.5,40.5,0,0,1,.56-4l1.15-3.79a38.13,38.13,0,0,1,3.16-7.43,29.43,29.43,0,0,1,12.17-10.63,35.45,35.45,0,0,1,29.4-.2c6.87,3.28,10.73,8,12.31,11.84s2,6.55,1.78,8.35c-.27,3.6-1.07,3.67-1.07,3.67s-.79.19-2.09-2.94a33.13,33.13,0,0,0-3.56-7,22.62,22.62,0,0,0-11.85-9.21,28.28,28.28,0,0,0-16.16-1c-6,1.4-13,4.93-16.31,12.36a36.31,36.31,0,0,0-3.24,12.82,28.68,28.68,0,0,0,3.72,14.5c5.58,9.47,17.66,17.75,32.79,20.1,7,1.09,15,.84,22-1.81,7-3.3,14.3-7.43,19.54-13.78a38.32,38.32,0,0,0,9-22.79,42.61,42.61,0,0,0-7.25-25.32,53.58,53.58,0,0,0-21.67-18.64c-9.07-4.18-19.36-6.07-29.77-6.21-20.93-.42-41.68,8.61-56.88,23A102.89,102.89,0,0,0,315,1330.39c-4.17,19.85-3.91,40.22-.76,59.28a191.78,191.78,0,0,0,27.28,70.89,95.1,95.1,0,0,1-5.06-19.71,110.81,110.81,0,0,1-.24-30.31,49,49,0,0,1,5.35-15.19,44,44,0,0,1,10.45-13,36.25,36.25,0,0,1,15.66-8.23,34.74,34.74,0,0,1,18.45.65,44.47,44.47,0,0,1,15.09,9.08,35,35,0,0,1,9.53,13.56,30.06,30.06,0,0,1-2.25,25,3.07,3.07,0,0,1,0,1.28h0l-.05.29a104.4,104.4,0,0,0-1.47,18.27c0,11.94,1.75,28.15,8.88,44.13,6.89,15.45,18.72,30.7,39.05,42.11l.74-.45a60.67,60.67,0,0,0,17.2-15.26c.82-1.16,1.86-2.3,2.64-3.65,1.47-2.44,3-5,4.61-7.63l.35-.56.51.37,1.08,1c.88.8,1.32,1.21,2.21,2,1.23,1.12,2.48,2.25,3.77,3.4,1.53,1.38,3.1,2.81,4.72,4.26,3.29,2.86,6.87,5.71,10.46,8.69s7.55,5.68,11.44,8.46a160.6,160.6,0,0,0,24.12,13.73,32.56,32.56,0,0,1-2-2.84,26.56,26.56,0,0,1-4.16-16.67,35.41,35.41,0,0,1,18.88-25.87c10.42-5,22.58-4.53,32.18-1a32.63,32.63,0,0,1,12.56,7.84,17.7,17.7,0,0,1,5.32,12c.12,5.38-2.25,10.53-6.07,14.71a23.37,23.37,0,0,1-33.57,1.86c-4.63-3.68-7.15-10-4.61-14.94.59-.92,1.2-1.78,1.8-2.54a10.54,10.54,0,0,1,2.22-1.63,9.1,9.1,0,0,1,4.12-1.46,9.2,9.2,0,0,1,5.08.34c2,.68,2,1.44,2,1.44s0,.76-1.65,1.61c-.76.52-2.18.61-3.54,1.55l-1.2.55-1,.88-.95,1c-.17.45-.72.76-.69,1.38-.69,1.38-.13,3.51,1.23,5.53a15.36,15.36,0,0,0,3.42,3.18,17.15,17.15,0,0,0,5,2.53,14.87,14.87,0,0,0,6.24.58,17.66,17.66,0,0,0,6.75-2.62c4.31-2.78,8.32-8.1,8.36-14.11.22-5.42-5.35-11.33-13.42-14.13-7.89-2.91-18-3.26-26.29.77-8.1,4-14,12.55-15.43,21.38-.88,8.94,5,18.17,14.61,23.33a50.75,50.75,0,0,0,7.39,3.53q12.5,1.92,25,3.72a145.1,145.1,0,0,0,31.06-6.07c19.62-6.16,34.65-16.72,43.52-27,4.08-4.61,6.73-8.47,9.09-11.25,1.46-2.4,2.68-4.18,3.68-5.52a2.47,2.47,0,0,1,1.12-2.45,2.2,2.2,0,0,1,1-.13c1.25-1.29,1.78-1.39,1.78-1.39s.63.18.41,2.26a14.62,14.62,0,0,1,3.88,4.44c3,4.4,7.68,11.89,20.25,23.12,11.67,10.64,32.82,23.83,56.57,32.3,22.58,8.53,46.8,13.16,63.43,15.5,5,.44,9.82.86,14.42,1.24,11.46,1,23.85,1.91,36.36,2.78-10.06-3.88-20-9.41-26.78-18.21a31.19,31.19,0,0,1-1.56-35.75,37.79,37.79,0,0,1,4.41-6.22,119.66,119.66,0,0,1-24.67,2.59,113.14,113.14,0,0,1-58.14-15.89c-20.87-12.36-41.88-33.5-59.47-68.33a3.2,3.2,0,0,1,5.71-2.89c17.15,33.94,37.31,54,57,65.71a106.72,106.72,0,0,0,54.88,15,111.9,111.9,0,0,0,25.45-2.92c3.09-.73,5.53-1.46,7.17-2,.83-.27,1.45-.5,1.86-.65l.46-.17.12-.05a3.23,3.23,0,0,1,2-.14,40.44,40.44,0,0,1,15.87-4.54c13.36-.93,27.11,2.6,36.54,10.89,4.65,4.12,7.81,9.91,7.75,15.73s-2.76,10.9-5.9,15a32.82,32.82,0,0,1-12.14,9.87,22.21,22.21,0,0,1-15.75,1c-8.69-2.94-12.71-8.48-14.46-12.64a12.32,12.32,0,0,1-.38-9.8,6.72,6.72,0,0,1,2.66-3.27c.6-.4.78-.39.78-.39s.4.57,0,3.69c-.23,1.53.21,4,1.86,7.2a20.12,20.12,0,0,0,11.79,9.69,14.69,14.69,0,0,0,10.64-.8,27.21,27.21,0,0,0,9.62-8.06c2.63-3.47,4.71-7.47,4.64-11.65s-2.21-8.29-5.91-11.57c-7.47-6.58-19.66-9.92-31.31-9a34.76,34.76,0,0,0-27.09,17.45,25.86,25.86,0,0,0,1.42,29.69c6.77,8.67,17.94,14.09,28.73,17.63,11,3.38,22.36,3.31,32.37,1.63s18.76-5.59,26.16-9.16c19.3-10,38.26-28.4,49.69-42.25,4.62-5.62,7.56-8.14,9.41-9.23s2.62-.71,2.62-.71a.56.56,0,0,1,.19.17.86.86,0,0,1,.19-.25s.63-.53,2.53.58,5,3.89,10.29,10.22a221.27,221.27,0,0,0,15.88,17c7.49,7,17.48,16,33,24.38,7.42,3.57,16,7.61,26.2,9.17s21.38,1.73,32.41-1.63c10.8-3.57,22-9,28.78-17.72a25.93,25.93,0,0,0,1.36-29.85,33.79,33.79,0,0,0-8.6-10,71.79,71.79,0,0,1-7.65-2.43,3.19,3.19,0,0,1-2-3,32.12,32.12,0,0,0-9.13-2c-11.72-.91-24,2.42-31.53,9.14-3.74,3.34-6,7.58-6,11.85s2.15,8.36,4.84,11.86a27,27,0,0,0,9.83,8.1,15,15,0,0,0,11,.75,20.83,20.83,0,0,0,11.58-9.27,13.58,13.58,0,0,0,2.11-7.4,15.57,15.57,0,0,0-.49-3.34,2.07,2.07,0,0,1,0-.84c.06,0,1.08-.6,3.48,2.69,1.3,1.85,1.92,5.3.43,9.9-1.58,4.41-5.49,10.67-15.2,13.85a22.82,22.82,0,0,1-16.08-1.16,33.83,33.83,0,0,1-12.23-10.06c-3.14-4.17-5.92-9.31-5.83-15.25s3.27-11.77,8-15.91c9.61-8.3,23.43-11.81,36.85-10.82a41.42,41.42,0,0,1,20.51,7.43,111.54,111.54,0,0,0,27.35,3.39,106.66,106.66,0,0,0,54.87-15c19.72-11.69,39.87-31.77,57-65.71a3.2,3.2,0,0,1,5.72,2.89c-17.6,34.83-38.62,56-59.49,68.33A113.09,113.09,0,0,1,1173,1525a119.91,119.91,0,0,1-18.47-1.44,37.55,37.55,0,0,1,3.34,5,31.32,31.32,0,0,1-1.76,35.88c-6.8,8.65-16.51,14.14-26.42,18,10-.73,21.17-1.59,33.6-2.63l7.63-.64c1.39-.24,3-.46,4.71-.68,16.64-2.24,41.94-6.78,65.5-15.58,23.77-8.37,45-21.45,56.62-32.08a112.93,112.93,0,0,0,20.67-23.55,12.12,12.12,0,0,1,3.7-4c-.31-1.83,0-2.21,0-2.21s.62-.25,2.34,1.43a2.29,2.29,0,0,1,.75.09,2.06,2.06,0,0,1,1.15,2.08,57.82,57.82,0,0,1,3.49,5c.91,1.59,2.56,3.14,4,5.16,1.69,1.9,3,4.45,5.5,6.75,8.86,10.19,23.83,20.69,43.37,26.85a143,143,0,0,0,31.49,6.15l2.1,0q9.12-1.32,18.21-2.68c1.18-.39,2.54-.77,4.13-1.16a48.14,48.14,0,0,0,7.23-3.47c9.53-5.14,15.4-14.28,14.49-23.17-1.38-8.8-7.31-17.34-15.4-21.3s-18.34-3.68-26.23-.78c-8,2.8-13.63,8.7-13.4,14.12-.3,7.24,7.23,16.32,16.14,16.85a16.28,16.28,0,0,0,11.93-4.39c3.13-2.51,4.2-6,3-8.23-2.09-3.31-5.7-4-7.19-4.85s-1.8-1.62-1.8-1.62-.22-.77,1.89-1.45a9.62,9.62,0,0,1,5.45-.28c.67.13,1.41.29,2.21.5a14.7,14.7,0,0,1,2.37,1.32,6.21,6.21,0,0,1,2.28,2.09,7.59,7.59,0,0,1,1.66,3.06c1.26,3.17.33,7.13-2.19,10.72a22.33,22.33,0,0,1-5,4.7,24.87,24.87,0,0,1-7.28,3.6,23.23,23.23,0,0,1-9.7.83,24.87,24.87,0,0,1-9.71-3.75c-5.77-3.89-10.84-10.23-11-19a17.8,17.8,0,0,1,5.35-12.07,32.67,32.67,0,0,1,12.59-7.84c9.62-3.51,21.82-4,32.22,1.11a34,34,0,0,1,12.54,10.85,33.7,33.7,0,0,1,6.16,15.07c.72,6.66-1.71,13.39-6,19a160.52,160.52,0,0,0,24-13.52c3.9-2.76,7.76-5.58,11.48-8.39,3.61-3,7.19-5.79,10.48-8.63l4.77-4.23,3.78-3.42,2.21-2,1.06-1,.52-.33.35.57,4.58,7.61c.78,1.36,1.82,2.49,2.63,3.65a65.07,65.07,0,0,0,16.57,15c19.62-11.34,31.12-26.31,37.88-41.45,7.13-16,8.89-32.19,8.89-44.14a115,115,0,0,0-.78-13.56c-.19-1.63-.38-2.9-.52-3.75l-.17-1,0-.29a3.17,3.17,0,0,1,1.47-3.37,29.89,29.89,0,0,1-1.12-23,35,35,0,0,1,9.6-13.51,44.58,44.58,0,0,1,15.1-9c12-3.88,25.74-.07,33.92,7.75a44,44,0,0,1,10.33,13,48.29,48.29,0,0,1,5.24,15.16,111.32,111.32,0,0,1-.35,30.23,95,95,0,0,1-5,19.33,192,192,0,0,0,27.28-71C1688.59,1370.33,1688.84,1350,1684.67,1330.2Zm43.55,57c-1.26,0-2.52-.12-3.76-.18h-.55l-1.6,4.47q-2.26,6.24-4.49,12.34c-6,16.28-12.45,31.8-20.34,45.6a137.12,137.12,0,0,1-8.71,13.52c.61-.44,1.28-.9,2-1.35a388.58,388.58,0,0,0,39.34-35.62c18.48-18.51,39.08-37,59-56.52a146.76,146.76,0,0,1-30.71,13.2A105.13,105.13,0,0,1,1728.22,1387.22Z"/><path d="M1913.38,1257.07c-4,2.47-8.72,4.79-14,5a19.38,19.38,0,0,1-13.32-4.65,23.5,23.5,0,0,1-7.82-19.79,15.57,15.57,0,0,1,2.09-6.7,18,18,0,0,1,5.37-7.63,18.62,18.62,0,0,1,7.21-3.51,23.09,23.09,0,0,1,9.68.08,29.4,29.4,0,0,1,18.42,12.47,16,16,0,0,1,2,13.52C1921.41,1250.75,1917.43,1254.48,1913.38,1257.07Zm1.87-21.51c-3.42-5.47-9.64-8.7-14.37-9.7-3.14-.7-6.77-.57-9.43.93s-4.38,4.22-5.27,6.75a9.56,9.56,0,0,1-1.52,2.79c-.05.48-.1,1-.15,1.52a21.23,21.23,0,0,0,1,7.68,17.65,17.65,0,0,0,5,7.39,13,13,0,0,0,9,3.13c3.36-.08,7-1.77,10.4-3.92s6-4.82,6.87-7.78A10.37,10.37,0,0,0,1915.25,1235.56Z"/><path d="M114.16,1257.68a19.72,19.72,0,0,1-13.6,4.64c-5.38-.23-10.1-2.63-14.09-5.14s-8.07-6.41-9.61-11.38A16,16,0,0,1,79,1232.26a29.58,29.58,0,0,1,18.44-12.39,20.56,20.56,0,0,1,14.21,1.71,17.35,17.35,0,0,1,7,7.46c1.35,1.31,3.08,3.84,3.54,8.61A23.72,23.72,0,0,1,114.16,1257.68Zm1.75-19.9c0-.29,0-.54-.08-.81a8.29,8.29,0,0,1-2.27-3.72,12.46,12.46,0,0,0-3.54-5.37c-2-1.7-5.66-3.14-10.9-2-4.73,1-11,4.2-14.44,9.67a10.46,10.46,0,0,0-1.53,8.85c.91,3,3.59,5.75,6.9,7.9s7.09,3.9,10.53,4a13.27,13.27,0,0,0,9.2-3.17C114.86,1248.92,116.3,1242.43,115.91,1237.78Z"/><path d="M1014.51,1426.59c-2.93,3.81-7,7.51-12.16,8.71a16.78,16.78,0,0,1-13.62-2.94,29,29,0,0,1-11.4-18.88,19.6,19.6,0,0,1,2.64-13.83,17.51,17.51,0,0,1,8-6.43c1.41-1.24,4.1-2.78,9-2.92,6.13-.07,14.3,2,19.82,9.17a18.93,18.93,0,0,1,3.84,13.63C1020.05,1418.36,1017.31,1422.84,1014.51,1426.59Zm-2.61-23.12c-4-5.25-10.46-7.08-15.21-7l-.83,0a8.39,8.39,0,0,1-3.92,2,12.7,12.7,0,0,0-5.67,3.13c-1.86,1.89-3.56,5.35-2.72,10.57a23,23,0,0,0,8.9,14.78,10.94,10.94,0,0,0,8.88,2.06c3.1-.71,6.07-3.15,8.47-6.27s4.41-6.7,4.73-10.07A12.81,12.81,0,0,0,1011.9,1403.47Z"/><path d="M935,1483.36c-4.71-2.66-10.1-3.76-16.37-3.76-10.91,0-24.26,3.43-39.37,7s-32,7.18-50.43,7.18l-2.18,0c-24.78-.41-44.09-13.8-57.1-26.83a124.73,124.73,0,0,1-20-26.07,3.2,3.2,0,0,1,1.63-4.49c24.07-9.64,46.32-13.49,66.43-13.48,38.27,0,68.65,13.91,89.39,27.78s32,27.72,32.11,27.89a3.2,3.2,0,0,1-4.07,4.8Zm-35.45-29.87c-19.84-12.49-47.58-24.21-82-24.21-18.32,0-38.56,3.33-60.57,11.68a124.21,124.21,0,0,0,19.46,23.77c12.27,11.57,29.28,22.31,50.3,22.63l2.07,0c17.53,0,33.94-3.47,49-7s28.62-7.15,40.83-7.17a49.53,49.53,0,0,1,6.94.47A167.39,167.39,0,0,0,899.55,1453.49Z"/><path d="M1227.9,1466.93c-13,13-32.32,26.42-57.1,26.83l-2.18,0c-18.38,0-35.32-3.62-50.44-7.18s-28.46-7-39.37-7c-6.27,0-11.66,1.1-16.36,3.76a3.2,3.2,0,0,1-4.07-4.8c.15-.17,11.35-14,32.11-27.89s51.12-27.78,89.39-27.78c20.1,0,42.35,3.84,66.43,13.48a3.18,3.18,0,0,1,1.82,1.88,3.14,3.14,0,0,1-.19,2.61A124.73,124.73,0,0,1,1227.9,1466.93ZM1094,1456a167.35,167.35,0,0,0-22.16,17.68,49.38,49.38,0,0,1,6.93-.47c12.21,0,25.8,3.65,40.84,7.17s31.43,7,49,7l2.07,0c22.41-.34,40.3-12.55,52.68-24.95a124.85,124.85,0,0,0,14.14-17c1.2-1.73,2.18-3.25,2.94-4.46-22-8.35-42.25-11.67-60.57-11.68C1143.19,1429.28,1114.06,1442.61,1094,1456Z"/><path d="M1125.76,465.45h0S1125.75,465.45,1125.76,465.45Z"/><path d="M1009.64,455.92c-2,3.34-4.33,4.24-5.5,4.45a2.23,2.23,0,0,1-1.84-.39,2.71,2.71,0,0,1-.76-1.63c-.21-1.16.3-2.51,1.78-5,4.14-5.93,6.79-16.29,7.25-24.64a66.16,66.16,0,0,0-2.49-23.07,46.24,46.24,0,0,0-5.92-12.07H1002c-.7.91-1.05,1.36-1.74,2.28a23,23,0,0,0-2,3.05c-10.05,17-8.82,38-3.22,49.05,2.61,5.54,4.19,8.15,4.53,9.88s-.31,2.24-.31,2.24-.67.31-2.49-.65-5.05-3.26-7.84-9.16c-6.34-12.79-7.87-34.93,3.14-54.07a27.85,27.85,0,0,1,2.28-3.49c.51-.68.77-1,1.28-1.68l.63-.84,1.22-1.3,2.66-2.77,1.33-1.39.68-.68.34-.27.29.35,4.92,5.76a48.63,48.63,0,0,1,7.19,14.17,70.46,70.46,0,0,1,2.72,25C1016.35,443.84,1012.33,451.48,1009.64,455.92Z"/><path d="M1960.4,678.34c-2.48,9.63-8.73,18.24-16.7,24.83A57.82,57.82,0,0,1,1914,716.89c-11.6,1.67-23.87-.5-34.88-4.95A111.86,111.86,0,0,1,1849,693.42l-.41-.37c.08.21.18.41.27.61,7.57,17.69,8.15,37.63.51,53.74a70.16,70.16,0,0,1-15.07,21,44.4,44.4,0,0,1-22.79,11.39,42.75,42.75,0,0,1-24.23-2.72,33.8,33.8,0,0,1-16.47-14.79c-3.45-6.74-3.63-13.73-3-19.91.67-3,1.36-5.92,2.2-8.7a41,41,0,0,1,3.73-7.68A26.58,26.58,0,0,1,1786,715.34a25.27,25.27,0,0,1,15.38-1.09,25.64,25.64,0,0,1,11.93,6.42,20.59,20.59,0,0,1,5.57,10,25.82,25.82,0,0,1-1.36,16.82c-3.1,6.73-9.58,10.1-14.35,9.72a12.9,12.9,0,0,1-8.45-3.39c-2.37-2.59-1.57-3-1.58-3s.71-.46,3.46.54c1.44.25,3.43,1,6,.65,2.49-.21,5.69-1.77,8.15-5.84,3-4.88,3.29-12.87-.06-18.92-3.67-5.72-12.82-9.17-20.2-6.89s-12.63,9.4-14.81,17.09c-2.73,7.65-2.39,15.85.91,22.3a27.2,27.2,0,0,0,13.2,11.79,35.85,35.85,0,0,0,20.24,2.28,37.92,37.92,0,0,0,19.57-9.8,63.49,63.49,0,0,0,13.64-19.1c6.91-14.61,6.54-32.63-.51-49.19A99.82,99.82,0,0,0,1830.88,675q-2.94-3.39-5.89-6.64-4.83-5.64-9.87-11.13-3.27-3.09-6.73-6c-15-12.52-32.79-22.54-51.43-28.12a98.45,98.45,0,0,0-28.06-4.34c-1.15,0-2.3.1-3.44.14l-3,.18-1.81.1c-.49-.09-1.43.41-1.42-.37-1-2.84-2.06-5.67-3.07-8.49-1.5-4.14-3-8.26-4.49-12.31-6-16.19-12.29-31.41-19.92-44.75a122.61,122.61,0,0,0-26.61-33c-1-.87-1.95-1.68-2.92-2.47-6.92-4.56-13.68-8.71-20.17-12.44-3.42-2-6.64-3.8-9.66-5.48a174.76,174.76,0,0,1,14.05,13.72,196.84,196.84,0,0,1,45.45,96.2c3.24,19.6,3.55,40.48-.82,61.2a99.65,99.65,0,0,1-3.59,12.56,11.24,11.24,0,0,1,6.45.23c5.22,1.23,11,4.36,16,8.31a62.75,62.75,0,0,1,12,13.88c4.65,7.24,8.74,17,11.53,28a118,118,0,0,1,3.06,17.3c.11,1.07.16,1.59.27,2.66.09,1.73.15,2.6.24,4.33s.13,2.62.23,4.36l0,1.09-.06.41-.5-.26-2-1c-2.64-1.4-5.66-2.84-8-4.2l-4.2-2.52a110.24,110.24,0,0,1-27.29-25.33c-7-9.37-11.57-19.27-12.68-27.72a27.49,27.49,0,0,1-.18-7.59,110.52,110.52,0,0,1-23.3,31.22A94.78,94.78,0,0,1,1631,744.92a84.56,84.56,0,0,1-33.09,6.47c-11.18-.13-22.43-2.13-32.52-6.76a60,60,0,0,1-24.28-20.86,48.77,48.77,0,0,1-8.36-28.85,44.08,44.08,0,0,1,10.3-26.29c6-7.27,14.07-11.89,22-15.59a45.86,45.86,0,0,1,13.87-2.81c-1.83-1.64-4.19-3.74-7-6.21-7.05-6.21-16.81-14.74-27.69-24-21.74-18.43-48-39.7-65.56-50.76-53.58-33.78-97-44.71-125.7-44.7-9.6,0-17.53,1.22-23.58,3.16s-10.19,4.61-12.3,7.19a7.63,7.63,0,0,0-2,4.84c0,1.69.69,3.56,2.63,5.68,17.2,18.78,26.14,30.18,29.85,37.29a14.58,14.58,0,0,1,2,6.43,5.4,5.4,0,0,1-2,4.4,6.72,6.72,0,0,1-4.15,1.24c-3,0-6.33-1.12-10.22-2.63s-8.15-3.54-12.47-5.67c-8.62-4.24-17.49-8.94-22.21-10.64a12.28,12.28,0,0,0-2.15-.63c-54.24,20-98.92,27.89-135.71,27.89-68.34,0-109.38-27.5-132.91-55.1a149.22,149.22,0,0,1-29-51.72,149.39,149.39,0,0,1-29,51.72c-23.54,27.6-64.58,55.14-132.91,55.1-36.79,0-81.47-7.93-135.7-27.89a7.7,7.7,0,0,0-1.26.31c-.83.27-1.92.68-3.16,1.22-2.5,1.07-5.65,2.6-9.09,4.31-6.87,3.43-14.87,7.58-21.67,10.42-4.58,1.87-8.44,3.25-11.88,3.31a6.73,6.73,0,0,1-4.16-1.24,5.45,5.45,0,0,1-2-4.4,14.74,14.74,0,0,1,2-6.43,70,70,0,0,1,5.56-8.65c5-6.86,12.83-16.14,24.29-28.64,1.93-2.12,2.61-4,2.62-5.68a7.57,7.57,0,0,0-2-4.84,20.63,20.63,0,0,0-6.89-5c-6.35-3.12-16.19-5.32-29-5.31-28.66,0-72.12,10.92-125.7,44.7-26.38,16.61-72.15,56.09-93.25,74.72-2.77,2.44-5.1,4.52-6.93,6.15a46.79,46.79,0,0,1,16.3,2.86c7.92,3.7,16,8.27,22,15.53A44.17,44.17,0,0,1,467.3,694.8a48.8,48.8,0,0,1-8.22,28.86,59.68,59.68,0,0,1-24.22,20.93c-10.08,4.68-21.33,6.74-32.52,6.9a84.33,84.33,0,0,1-33.13-6.34A94.69,94.69,0,0,1,341,727,111.07,111.07,0,0,1,317.15,695a26.15,26.15,0,0,1-.12,7.86c-1.08,8.38-5.61,18.22-12.5,27.59a110,110,0,0,1-27.11,25.4l-4.17,2.53c-2.15,1.29-5.2,2.73-7.75,4.09-3.92,3.26-2.26-1.85-2.41-4.25.09-1.7.13-2.55.22-4.25.1-1.08.15-1.62.26-2.7a116.82,116.82,0,0,1,3-17.31c2.74-11,6.81-20.8,11.48-28.07a53.89,53.89,0,0,1,15.19-16.26,38.77,38.77,0,0,1,12.16-5.85,12.89,12.89,0,0,1,5.53-.72,11.74,11.74,0,0,1,1.27.18,101.29,101.29,0,0,1-3.44-12c-4.43-20.74-4.2-41.64-1-61.27A196.8,196.8,0,0,1,353,513.57a181.1,181.1,0,0,1,14.26-14c-2.89,1.64-6,3.4-9.27,5.23-6.44,3.7-13.15,7.82-20,12.33-1.06.84-2.13,1.71-3.23,2.62A122.54,122.54,0,0,0,308,552.85c-7.65,13.37-14,28.62-19.93,44.81q-2.22,6.09-4.48,12.32c-1,2.67-1.92,5.37-2.88,8.07l-.28.74-.73.1-1.7-.1-3.18-.19c-1.15,0-2.28-.16-3.43-.16a98.36,98.36,0,0,0-28.18,4.32,148,148,0,0,0-51.58,28.17q-3.63,3-7,6.31-4.87,5.34-9.57,10.81-2.9,3.21-5.8,6.53a101,101,0,0,0-12,20.95c-7,16.59-7.49,34.65-.59,49.29A64.41,64.41,0,0,0,170.34,764a38,38,0,0,0,19.57,9.85,35.88,35.88,0,0,0,20.27-2.28,27.16,27.16,0,0,0,13.22-11.79c5.08-10.73,2.13-22.59-2.78-30.4-4.86-8.08-13.56-10.93-20.56-9.05a18.53,18.53,0,0,0-8.58,4.61,13.91,13.91,0,0,0-3.8,7,20.13,20.13,0,0,0,1,12.92c2.38,4.88,5.91,6.81,8.55,7.1a15.54,15.54,0,0,0,6.3-.76c2.8-1,3.24-.38,3.25-.39s.51.58-1.8,3.12a12.66,12.66,0,0,1-7.79,3.21c-4.27.48-10.23-2.12-13.52-7.8-4-7-4.58-16.14.12-24.88,5.61-8.54,17.56-12.77,27.89-9.79a24.8,24.8,0,0,1,12.45,8.49,35.2,35.2,0,0,1,6.44,12.47c3,8.57,2.86,18.6-1.36,26.77a33.79,33.79,0,0,1-16.42,14.77,42.75,42.75,0,0,1-24.18,2.77,44.42,44.42,0,0,1-22.79-11.33,69.44,69.44,0,0,1-15.13-21,61,61,0,0,1-5.58-26.26,74.92,74.92,0,0,1,5.9-27.48c.13-.31.27-.61.4-.92l-.29.26a112.7,112.7,0,0,1-30,18.62c-11,4.48-23.24,6.7-34.85,5.09a57.78,57.78,0,0,1-29.81-13.61c-8-6.59-14.27-15.15-16.8-24.78s-.68-20,3.87-28.65c9.23-17.45,26.79-28.89,43.57-32.67,9-2,18.06-1.63,25.5,1.22a35.1,35.1,0,0,1,16.7,12.84c6.9,10.43,10.2,21.47,7.74,31.79a26.43,26.43,0,0,1-7.56,12.94A33.65,33.65,0,0,1,118,683.05a38.11,38.11,0,0,1-21.12,1.66c-8.78-2-13.81-6.79-16.08-10.61a17.16,17.16,0,0,1-2.7-8.7c.19-3.76,1.1-3.6,1.11-3.6s.87.07,2.3,3a37.56,37.56,0,0,0,4,6.07,22.93,22.93,0,0,0,11.38,7.32,30.13,30.13,0,0,0,24.59-3.73c7.75-5,11.06-14.43,9-23.46S123.72,632.8,116,627.51c-7.69-5.48-18.32-6.61-27.79-4.33C73.75,626.36,57.79,636.73,49.75,652a35,35,0,0,0-3.49,24.56c2.14,8.25,7.45,15.83,14.85,22A51.09,51.09,0,0,0,87.4,710.76c10.11,1.45,21-.4,31.11-4.48A104.82,104.82,0,0,0,146.62,689l6.18-5.58,5.8-6q2.53-3,5.18-6a136.81,136.81,0,0,1,16-18.1c27.48-30.1,58.56-56.84,84.94-83.34,8.4-8.76,17.09-16.92,25.84-24.5-11.4,2.8-24,3.81-34.72,3.91A266.57,266.57,0,0,1,208,545.64a153.63,153.63,0,0,1-27.32-7c-1.35-.56-2-.83-3.39-1.38L174.74,536c-1-.53-2.05-1-3-1.56l-2.91-1.63-1.47-.81.33-.45.78-.46,6.24-3.69c1.76-1,2.64-1.51,4.39-2.53,1.14-.63,2.36-1.11,3.53-1.67,2.39-1,4.71-2.28,7.18-3.12,19.53-7.58,40.36-10.27,58.91-10.41,18.58,0,35.1,2.51,47.58,6,12.3,3.45,17.33,7.22,19.56,9.17l.24.24c5.86-4.32,11.66-8.35,17.35-12.1a102.33,102.33,0,0,1,20.4-12.61l.42-.25a256.25,256.25,0,0,1,33.86-16.79c6.77-3.16,16.67-7,31.14-11.2,46.19-12.83,92.82-21.52,139.86-28.81l.6-.14a60.06,60.06,0,0,1,8.06-2.29,69.9,69.9,0,0,1,18.5-1.66h.08q19.88-2.88,39.85-5.62c39.38-4.29,78.64-9,114.76-12.1,18-1.6,35.3-2.95,51.32-4.06q12-.85,23-1.54c7.31-.67,14.28-1.28,20.83-1.83,55.74-4.69,85.8-5.94,104.29-6.79,27.3-1.24,26.65,2,26.65,2s-.25,3-24.28,4c-7.16.32-15.06.73-23.4,1.19,9.07,2.08,16.79,5.69,23.52,8.95,16.41,8.93,26.69,18.23,34.45,25.48a218.86,218.86,0,0,1,16.33,17.47c5.16,6.18,7,9.82,7.53,11.87.52-2,2.14-5.36,6.67-10.86,11.69-14.14,31-33.27,51.49-43.88,6.65-3.23,14.28-6.79,23.23-8.88-9.58-.49-17.25-.82-23.56-1.1-27.3-1.24-26.2-4.13-26.2-4.13s.67-3.12,24.69-2.05c29.73,1.32,72.07,3.91,106.24,6.76,6.54.54,13.49,1.14,20.8,1.81,7.32.45,15,1,23,1.52,16,1.1,33.21,2.44,51.24,4,36.09,3.06,75.32,7.69,114.7,11.92q21.67,3,43.23,6.06a67.32,67.32,0,0,1,15.23,1.63,57.36,57.36,0,0,1,5.73,1.48c48,7.31,95.67,16,142.85,29.11,22.87,6.67,34.43,12.32,40.11,16,2.34,1.06,4.85,2.2,7.54,3.44,4.91,2.38,10.19,5.43,16.2,8.76a105.66,105.66,0,0,1,21,12.89q9,5.91,18.35,12.74c.27-.25.57-.51,1-.82,2.47-1.95,7.64-5.37,19-8.57,12.43-3.55,28.9-6.06,47.44-6.13s39.29,2.69,58.81,10.19c2.49.82,4.79,2.07,7.19,3.09,1.17.55,2.39,1,3.54,1.65l4.26,2.45,6.12,3.59,1.42.9-1.43.8-2.85,1.6c-.93.55-2,1-2.93,1.53l-2.54,1.29c-1.12.51-2.25.94-3.38,1.4a151.35,151.35,0,0,1-27.29,7.11,263.47,263.47,0,0,1-48,3.81c-15.1-.23-26.6-1.82-35.37-4,8.8,7.59,17.53,15.76,26,24.55,26.37,26.44,57.4,53.09,84.89,83.07a137.8,137.8,0,0,1,16.75,18.86c1.6,1.83,3.18,3.66,4.71,5.47,2.33,2.38,3.5,3.57,5.82,6l6.19,5.59a105.59,105.59,0,0,0,28.13,17.42c10.13,4.1,21.07,6,31.2,4.55a51.25,51.25,0,0,0,26.39-12.21c7.4-6.16,12.74-13.71,14.9-22a35.07,35.07,0,0,0-3.44-24.6c-8-15.29-24-25.68-38.49-28.87-15.8-3.83-29.15,2.53-35.17,11.64s-8.93,19.28-6.91,27.13c1.85,8,8.47,13,14.6,15.25a30.5,30.5,0,0,0,16.82,1.32A23.22,23.22,0,0,0,1914.2,671a35.76,35.76,0,0,0,4.22-6.47c1.42-3,2.24-2.69,2.24-2.7s.87.2,1,3.86a16.71,16.71,0,0,1-2.43,8.12c-2,3.51-6.24,7.88-13.74,10.15a37.45,37.45,0,0,1-30.72-4.69A28.1,28.1,0,0,1,1864,665.89a30,30,0,0,1-1.13-16.34,50.14,50.14,0,0,1,5.71-14.8,36.4,36.4,0,0,1,11-12.2c9.33-6.73,22.47-8,33.34-5.38,16.75,3.78,34.24,15.16,43.5,32.56C1961,658.36,1962.82,668.65,1960.4,678.34Zm-273.66,9.22s.63.45,1,2.5.09,5.61,1.08,12.22c.91,7.33,5,16.34,11.5,25.07A103.57,103.57,0,0,0,1726,751.09l3.89,2.34.47.25.06-.15c-.08-.72-.11-1.09-.19-1.82a114,114,0,0,0-3-16.49c-2.7-10.47-6.6-19.66-10.87-26.28a46.69,46.69,0,0,0-13.41-14.32,32.19,32.19,0,0,0-10.11-4.81c-1.89-.72-3.36-1-4.44-1.45a7.25,7.25,0,0,1-2.23-1.35c-.1.27-.22.53-.32.8A1.13,1.13,0,0,1,1686.74,687.56ZM307.68,689.48c-4.32,1-9.06,3.66-13.4,7.06a57.63,57.63,0,0,0-10.64,12.37c-4.26,6.61-8.14,15.81-10.78,26.28a110,110,0,0,0-2.93,16.48c-.07.7-.11,1.06-.18,1.76l0,0c1.63-1,2.46-1.48,4.1-2.48a103.27,103.27,0,0,0,25.5-23.76c6.42-8.71,10.5-17.65,11.42-24.91,1-7.08.73-10.61,1.29-12.58s1.32-2.21,1.32-2.21a1,1,0,0,1,.46.21c-.09-.23-.2-.46-.29-.69C312.62,687.94,310.85,688.56,307.68,689.48ZM269.81,573.57c-18.52,18.6-39.2,37.23-59.21,56.85a146.82,146.82,0,0,1,30.62-13.27,106.1,106.1,0,0,1,30.31-4.67c1.26,0,2.51.11,3.77.16l.51,0h0l1.45-4q2.24-6.24,4.47-12.35c6-16.27,12.37-31.82,20.25-45.66a138.68,138.68,0,0,1,8.4-13.17c-.28.19-.56.38-.87.57-.56.34-1.15.66-1.74,1A385.42,385.42,0,0,0,269.81,573.57ZM294,521.36c-11.87-3.38-27.77-5.75-45.64-5.75s-37.81,2.78-56.07,9.9c-2.33.78-4.45,2-6.68,2.92-1.09.52-2.23,1-3.28,1.53-.88.5-1.3.76-2.17,1.26l-.06.2.57.25,3.07,1.26a144.37,144.37,0,0,0,26,6.65,259,259,0,0,0,46.48,3.61c27.58-.42,41.81-5.63,48.86-9.71l.05,0,3-2.34-.29.07a11.33,11.33,0,0,1-4.93-.27c-12.12-2.54-40.32-.37-54.23-.86a109.7,109.7,0,0,1-14.17-.91c-3.92-.8-2.48-3.74-2.48-3.74s1.39-2.93,4-2.39a103.06,103.06,0,0,0,13.27.87c13.57.54,41.21-1.57,55.54,1.27a10.39,10.39,0,0,1,3.91,1.66,3.7,3.7,0,0,1,1.34,2.07,1.77,1.77,0,0,1,0,.69l3.24-2.43C310.13,526.36,304.61,524.36,294,521.36Zm99.24-35c-2.77,1.87-6.25,4.3-10.39,7.56l0,0s0,.81-2.6,3.59a80.9,80.9,0,0,1-6.28,5.76c-2.57,2.85-6.31,6.28-10.53,11.13-9.44,10.67-17.76,26.64-20.44,45.1a107.18,107.18,0,0,0-.32,28.59,43.41,43.41,0,0,0,4.73,13.58,38.39,38.39,0,0,0,9.09,11.45A28.39,28.39,0,0,0,384,619.58c9.21-3.41,17.41-10.63,20.35-18.64a24.82,24.82,0,0,0-3.66-23c-4.47-6.29-11.93-9.58-17.78-7.94a21.75,21.75,0,0,0-13.72,11,14.16,14.16,0,0,0-1.61,6.52,10.29,10.29,0,0,0,1.78,5.18,13.56,13.56,0,0,0,3.63,3.65,15,15,0,0,0,4.06,2.09c2.41.64,4.81.59,6.18-.36.67-.14.89-.69,1.34-1l1-1.07.76-1.08.38-1.17c.78-1.41.63-2.67,1.05-3.46.62-1.66,1.45-1.82,1.45-1.82s.82-.22,1.91,1.38a6.39,6.39,0,0,1,1.25,4.29,7.41,7.41,0,0,1-.85,4,10.49,10.49,0,0,1-1.37,2.33,31.94,31.94,0,0,1-2.44,2.18c-4.84,3.44-12.08,2.91-16.86-.09-4.67-2.49-9.15-7.24-9.83-13.21-.85-5.92,1.86-11.67,5.63-16.05A28.22,28.22,0,0,1,381.49,564a21.87,21.87,0,0,1,14.09,1.41,25.21,25.21,0,0,1,5.45,3.34c-.27-3-.48-6.76-.48-11,0-12.56,1.82-29.64,9.43-46.74a94.19,94.19,0,0,1,31.79-38.77c-6.82,1.71-13.63,3.48-20.42,5.36C409,481.23,400,484.12,393.26,486.36ZM461,467.64a70.63,70.63,0,0,1,17.61,16c.9,1.26,2,2.52,2.91,4l.76,1.27.05,0,.76-.69,4.85-4.33c3.35-2.92,7-5.84,10.7-8.88s7.82-5.83,11.86-8.69a162.42,162.42,0,0,1,21.74-12.62C508.4,457.69,484.65,462.22,461,467.64Zm166.12-28.11-20.08,2.78c4.38,1,8.65,2.14,12.81,3.41,20.71,6.51,36.74,17.74,46.27,28.73,2.63,2.49,4,5.28,5.66,7.43,1.43,2.27,2.88,4.08,3.55,5.92.24.59.45,1.14.66,1.67,4.94-7.58,13.11-17.7,21.39-24.54,12.25-11.18,34.34-24.84,58.8-33.5,6.95-2.61,14-4.85,21-6.78-11.4.86-23.29,1.82-35.57,2.9C705.61,430.63,666.36,435.29,627.14,439.53Zm530.76,31.93a37.55,37.55,0,0,1-3.34,5A119.91,119.91,0,0,1,1173,475a113.09,113.09,0,0,1,58.13,15.89c20.87,12.36,41.89,33.5,59.49,68.33a3.2,3.2,0,0,1-5.72,2.89c-17.16-33.94-37.31-54-57-65.71a106.66,106.66,0,0,0-54.87-15,111.54,111.54,0,0,0-27.35,3.39,41.42,41.42,0,0,1-20.51,7.43c-13.42,1-27.24-2.52-36.85-10.82-4.72-4.14-8-10-8-15.91s2.69-11.08,5.83-15.25a33.83,33.83,0,0,1,12.23-10.06,22.82,22.82,0,0,1,16.08-1.16c9.71,3.18,13.62,9.44,15.2,13.85,1.49,4.6.87,8.05-.43,9.9-2.4,3.29-3.42,2.72-3.48,2.69a2.07,2.07,0,0,1,0-.84,15.57,15.57,0,0,0,.49-3.34,13.58,13.58,0,0,0-2.11-7.4,20.83,20.83,0,0,0-11.58-9.27,15,15,0,0,0-11,.75,27,27,0,0,0-9.83,8.1c-2.69,3.5-4.87,7.58-4.84,11.86s2.23,8.51,6,11.85c7.55,6.72,19.81,10,31.53,9.14a32.12,32.12,0,0,0,9.13-2,3.19,3.19,0,0,1,2-3,71.79,71.79,0,0,1,7.65-2.43,33.79,33.79,0,0,0,8.6-10,25.93,25.93,0,0,0-1.36-29.85c-6.76-8.72-18-14.15-28.78-17.72-11-3.36-22.38-3.31-32.41-1.63s-18.78,5.6-26.2,9.17c-15.47,8.39-25.46,17.35-33,24.38a221.27,221.27,0,0,0-15.88,17c-5.31,6.33-8.4,9.11-10.29,10.22s-2.53.58-2.53.58a.86.86,0,0,1-.19-.25.56.56,0,0,1-.19.17s-.76.37-2.62-.71-4.79-3.61-9.41-9.23c-11.43-13.85-30.39-32.29-49.69-42.25-7.4-3.57-16-7.61-26.16-9.16s-21.36-1.75-32.37,1.62c-10.79,3.55-22,9-28.73,17.64a25.86,25.86,0,0,0-1.42,29.69,34.76,34.76,0,0,0,27.09,17.45c11.65.94,23.84-2.4,31.31-9,3.7-3.28,5.91-7.41,5.91-11.57s-2-8.18-4.64-11.65a27.21,27.21,0,0,0-9.62-8.06,14.69,14.69,0,0,0-10.64-.8,20.12,20.12,0,0,0-11.79,9.69c-1.65,3.23-2.09,5.67-1.86,7.2.42,3.12.17,3.71,0,3.69s-.18,0-.78-.39a6.72,6.72,0,0,1-2.66-3.27,12.32,12.32,0,0,1,.38-9.8c1.75-4.16,5.77-9.7,14.46-12.64a22.21,22.21,0,0,1,15.75,1,32.82,32.82,0,0,1,12.14,9.87c3.14,4.1,5.92,9.16,5.9,15s-3.1,11.61-7.75,15.73c-9.43,8.29-23.18,11.82-36.54,10.89a40.44,40.44,0,0,1-15.87-4.54,3.23,3.23,0,0,1-2-.14l-.12-.05-.46-.17c-.41-.15-1-.38-1.86-.65-1.64-.53-4.08-1.26-7.17-2a111.9,111.9,0,0,0-25.45-2.92,106.72,106.72,0,0,0-54.88,15c-19.71,11.69-39.87,31.77-57,65.71a3.2,3.2,0,1,1-5.71-2.89c17.59-34.83,38.6-56,59.47-68.33A113.14,113.14,0,0,1,824.42,475a119.66,119.66,0,0,1,24.67,2.59,37.79,37.79,0,0,1-4.41-6.22,31.19,31.19,0,0,1,1.56-35.75c6.82-8.8,16.72-14.33,26.78-18.21-12.51.87-24.9,1.81-36.36,2.78-4.6.38-9.42.8-14.41,1.24-16.64,2.34-40.85,7-63.44,15.5-23.75,8.47-44.9,21.66-56.57,32.3C689.67,480.45,685,487.94,682,492.34a14.43,14.43,0,0,1-3.88,4.43c.22,2.09-.41,2.27-.41,2.27s-.53-.1-1.78-1.39a2.2,2.2,0,0,1-1-.13,2.47,2.47,0,0,1-1.12-2.45c-1-1.34-2.22-3.12-3.68-5.52-2.36-2.78-5-6.64-9.09-11.25-8.87-10.27-23.9-20.83-43.52-27a145.1,145.1,0,0,0-31.06-6.07q-12.52,1.81-25,3.72a50.75,50.75,0,0,0-7.39,3.53c-9.6,5.16-15.49,14.39-14.61,23.33,1.39,8.83,7.33,17.39,15.43,21.38,8.27,4,18.4,3.68,26.29.77,8.07-2.8,13.64-8.71,13.42-14.13,0-6-4-11.33-8.36-14.11a17.66,17.66,0,0,0-6.75-2.62,14.87,14.87,0,0,0-6.24.58,17.15,17.15,0,0,0-5,2.53,15.36,15.36,0,0,0-3.42,3.18c-1.36,2-1.92,4.15-1.23,5.53,0,.62.52.93.69,1.37l.95,1.05,1,.88,1.2.55c1.36.94,2.78,1,3.54,1.55,1.66.85,1.65,1.61,1.65,1.61s0,.76-2,1.44a9.2,9.2,0,0,1-5.08.34,9.1,9.1,0,0,1-4.12-1.46,10.54,10.54,0,0,1-2.22-1.63c-.6-.76-1.21-1.62-1.8-2.54-2.54-4.91,0-11.27,4.61-14.94A23.37,23.37,0,0,1,595.42,469c3.82,4.18,6.19,9.33,6.07,14.71a17.7,17.7,0,0,1-5.32,12,32.63,32.63,0,0,1-12.56,7.84c-9.6,3.52-21.76,4-32.18-1a35.41,35.41,0,0,1-18.88-25.87A26.56,26.56,0,0,1,536.71,460a32.56,32.56,0,0,1,2-2.84,160.6,160.6,0,0,0-24.12,13.73c-3.89,2.78-7.72,5.63-11.44,8.46-3.59,3-7.17,5.83-10.46,8.69-1.62,1.45-3.19,2.88-4.72,4.26-1.29,1.15-2.54,2.28-3.77,3.4-.89.79-1.33,1.2-2.21,2l-1.08,1-.51.37-.35-.56c-1.6-2.66-3.14-5.19-4.61-7.63-.78-1.35-1.82-2.49-2.64-3.65A60.67,60.67,0,0,0,455.62,472l-.74-.45c-20.33,11.41-32.16,26.66-39.05,42.11-7.13,16-8.88,32.19-8.88,44.13a104.4,104.4,0,0,0,1.47,18.27l.05.29h0a3.07,3.07,0,0,1,0,1.28,30.06,30.06,0,0,1,2.25,25,35,35,0,0,1-9.53,13.56,44.47,44.47,0,0,1-15.09,9.08,34.74,34.74,0,0,1-18.45.65A36.25,36.25,0,0,1,352,617.67a43.93,43.93,0,0,1-10.45-13,48.81,48.81,0,0,1-5.35-15.18,110.81,110.81,0,0,1,.24-30.31,95.1,95.1,0,0,1,5.06-19.71,191.78,191.78,0,0,0-27.28,70.89c-3.15,19.06-3.41,39.43.76,59.28a102.89,102.89,0,0,0,30.31,52.86c15.2,14.38,35.95,23.41,56.88,23,10.41-.14,20.7-2,29.77-6.21a53.58,53.58,0,0,0,21.67-18.64,42.61,42.61,0,0,0,7.25-25.32,38.32,38.32,0,0,0-9-22.79c-5.24-6.35-12.54-10.48-19.54-13.78-7-2.65-15-2.9-22-1.81-15.13,2.35-27.21,10.63-32.79,20.1a28.68,28.68,0,0,0-3.72,14.5A36.31,36.31,0,0,0,377,704.33c3.27,7.43,10.29,11,16.31,12.36a28.28,28.28,0,0,0,16.16-1,22.62,22.62,0,0,0,11.85-9.21,33.13,33.13,0,0,0,3.56-7c1.3-3.13,2.09-2.94,2.09-2.94s.8.07,1.07,3.67c.23,1.8-.18,4.54-1.78,8.35s-5.44,8.56-12.31,11.84a35.45,35.45,0,0,1-29.4-.2,29.43,29.43,0,0,1-12.17-10.63,38.13,38.13,0,0,1-3.16-7.43l-1.15-3.79a40.5,40.5,0,0,1-.56-4,31.93,31.93,0,0,1,2.32-16.24c2.12-5.26,5.81-9.74,9.86-13.67A59.16,59.16,0,0,1,409,650.94a3.26,3.26,0,0,1,.94-1.55s17.38-15.7,39.22-34.21,48.12-39.84,66.27-51.29c54.39-34.27,98.86-45.68,129.12-45.69,10.14,0,18.68,1.28,25.52,3.47s12,5.28,15.28,9.2a14,14,0,0,1,3.45,8.92,14.83,14.83,0,0,1-4.31,10c-17,18.55-25.85,30-28.87,35.9a14.3,14.3,0,0,0-1.14,2.71,29.06,29.06,0,0,0,7.52-2.16c3.56-1.41,7.75-3.37,12-5.46,8.55-4.2,17.27-8.87,22.82-10.92a14.1,14.1,0,0,1,4.52-1,4.8,4.8,0,0,1,1.72.29c53.83,19.86,97.89,27.62,133.83,27.62,64.52,0,103-24.86,125.88-50.38s30-52,30.69-54.84l.07-.25a3.19,3.19,0,0,1,3.83-2.4,3.11,3.11,0,0,1,1.4.74,3,3,0,0,1,1.39-.74,3.21,3.21,0,0,1,3.84,2.4l.06.25.22.84c.2.75.52,1.86,1,3.29a122.67,122.67,0,0,0,4.54,11.92,147,147,0,0,0,22.79,36.31c22.61,26.38,61.44,52.81,128,52.86,35.94,0,80-7.76,133.83-27.62h0a4.89,4.89,0,0,1,1.71-.29,11.4,11.4,0,0,1,3.35.63c1.13.36,2.37.85,3.74,1.43,2.73,1.17,6,2.74,9.42,4.47,6.93,3.46,14.87,7.57,21.28,10.24,3.94,1.68,7.43,2.71,9.08,2.8a13.48,13.48,0,0,0-1.13-2.71,62.74,62.74,0,0,0-5-7.82c-4.78-6.53-12.47-15.69-23.83-28.08a14.82,14.82,0,0,1-4.32-10,14,14,0,0,1,3.45-8.92,27,27,0,0,1,9-6.71c7.59-3.7,18.28-5.95,31.8-6,30.26,0,74.73,11.42,129.12,45.69,18.15,11.45,44.42,32.77,66.28,51.29s39.19,34.2,39.21,34.21h0a3.14,3.14,0,0,1,.8,1.16c.75.09,1.49.17,2.22.28,17.07,2.68,30.91,11.9,37.72,23.37a34.5,34.5,0,0,1,4.51,17.65A41.57,41.57,0,0,1,1629,707c-4.22,9.45-13.29,14.13-20.73,15.78a35.17,35.17,0,0,1-20.07-1.29c-8.21-3-12.65-8.51-14.46-12.6s-2.18-7.11-2-8.94c.25-3.69,1.12-3.41,1.12-3.41s.83.16,2.11,3.23a36.45,36.45,0,0,0,3.4,6.53,24.07,24.07,0,0,0,10.3,8.74,28.84,28.84,0,0,0,23.83-.2,23.26,23.26,0,0,0,9.55-8.36,31.35,31.35,0,0,0,2.54-6.16c.41-1.33.61-2,1-3.32.28-1.12.28-2.26.45-3.39,1.29-9.14-3.12-18.34-10.25-24.87a52.38,52.38,0,0,0-26.11-11.86c-7-1.09-14.92-.85-21.94,1.79-7,3.31-14.29,7.4-19.51,13.76a38.28,38.28,0,0,0-9.07,22.74,42.64,42.64,0,0,0,7.18,25.3,53.16,53.16,0,0,0,21.59,18.62c9,4.19,19.3,6.1,29.68,6.25,20.89.46,41.59-8.52,56.77-22.85a102.94,102.94,0,0,0,30.29-52.7c4.17-19.79,3.92-40.13.78-59.15a192,192,0,0,0-27.28-70.95,95,95,0,0,1,5,19.33,111.32,111.32,0,0,1,.35,30.23,48.29,48.29,0,0,1-5.24,15.16,44,44,0,0,1-10.33,13c-8.18,7.82-21.92,11.63-33.92,7.75a44.58,44.58,0,0,1-15.1-9,35,35,0,0,1-9.6-13.51,29.89,29.89,0,0,1,1.12-23,3.17,3.17,0,0,1-1.47-3.37l0-.29.17-1c.14-.85.33-2.12.52-3.75a115,115,0,0,0,.78-13.56c0-11.95-1.76-28.15-8.89-44.14-6.76-15.14-18.26-30.11-37.88-41.45a65.07,65.07,0,0,0-16.57,15c-.81,1.16-1.85,2.29-2.63,3.65l-4.58,7.61-.35.57-.52-.33-1.06-1-2.21-2-3.78-3.42-4.77-4.23c-3.29-2.84-6.87-5.67-10.48-8.63s-7.58-5.63-11.48-8.39a160.52,160.52,0,0,0-24-13.52c4.32,5.61,6.75,12.34,6,19a33.7,33.7,0,0,1-6.16,15.07,34,34,0,0,1-12.54,10.85c-10.4,5.07-22.6,4.62-32.22,1.11a32.67,32.67,0,0,1-12.59-7.84,17.8,17.8,0,0,1-5.35-12.07c.17-8.74,5.24-15.08,11-19a24.87,24.87,0,0,1,9.71-3.75,23.23,23.23,0,0,1,9.7.83,24.87,24.87,0,0,1,7.28,3.6,22.33,22.33,0,0,1,5,4.7c2.52,3.59,3.45,7.55,2.19,10.72a7.59,7.59,0,0,1-1.66,3.06,6.21,6.21,0,0,1-2.28,2.09,14.7,14.7,0,0,1-2.37,1.32c-.8.21-1.54.37-2.21.5a9.62,9.62,0,0,1-5.45-.28c-2.11-.68-1.89-1.45-1.89-1.45s.17-.77,1.8-1.62,5.1-1.54,7.19-4.85c1.21-2.26.14-5.72-3-8.23a16.28,16.28,0,0,0-11.93-4.39c-8.91.53-16.44,9.61-16.14,16.85-.23,5.42,5.35,11.32,13.4,14.12,7.89,2.9,18,3.25,26.23-.78s14-12.5,15.4-21.3c.91-8.89-5-18-14.49-23.17a48.14,48.14,0,0,0-7.23-3.47c-1.59-.39-3-.77-4.13-1.16q-9.09-1.36-18.21-2.68l-2.1,0a143,143,0,0,0-31.49,6.15c-19.54,6.16-34.51,16.66-43.37,26.85-2.47,2.3-3.81,4.85-5.5,6.75-1.49,2-3.14,3.57-4,5.16a57.82,57.82,0,0,1-3.49,5,2.06,2.06,0,0,1-1.15,2.08,2.29,2.29,0,0,1-.75.09c-1.72,1.68-2.34,1.43-2.34,1.43s-.32-.38,0-2.21a12.12,12.12,0,0,1-3.7-4,112.93,112.93,0,0,0-20.67-23.55c-11.66-10.63-32.85-23.71-56.62-32.08-23.56-8.8-48.86-13.34-65.5-15.58-1.76-.22-3.32-.44-4.71-.68l-7.63-.64c-12.43-1-23.57-1.9-33.6-2.63,9.91,3.86,19.62,9.35,26.42,18a31.32,31.32,0,0,1,1.76,35.88Zm380.81-4.27C1514.43,461.66,1490,457,1465.53,453a166.35,166.35,0,0,1,23.78,13.42c4,2.83,8,5.74,11.9,8.63s7.4,5.93,10.78,8.84l4.85,4.31.8.71h0l.06-.07.69-1.18a46.74,46.74,0,0,1,2.89-4,67.76,67.76,0,0,1,11.08-11.4,64.79,64.79,0,0,1,6.3-4.59A3.08,3.08,0,0,1,1538.71,467.19Zm-165.59-27.82c-39.25-4.19-78.57-8.81-114.65-11.84-12.84-1.12-25.26-2.11-37.12-3,7.38,2,14.91,4.3,22.3,7,24.5,8.55,46.69,22.13,59,33.34,13.2,11.82,18.31,19.7,21.46,24.37.09.14.16.26.24.4.29-.74.61-1.54,1-2.4a80.53,80.53,0,0,1,8.82-12.46c9.45-11,25.38-22.19,46-28.74,4.64-1.43,9.42-2.71,14.35-3.78Zm205.9,38q-12.84-3.56-25.73-6.7A94.54,94.54,0,0,1,1587.46,511c7.61,17.1,9.43,34.18,9.44,46.74a122.49,122.49,0,0,1-.73,13.52,26.16,26.16,0,0,1,8.22-5.87,21.84,21.84,0,0,1,14.13-1.41A28.71,28.71,0,0,1,1637,578.65a20,20,0,0,1,2.22,9.33,16.05,16.05,0,0,1-2.69,8.06,19.7,19.7,0,0,1-5.19,5.26,22,22,0,0,1-6,3.06c-4.3,1.23-8.71,1-11.91-.89a9.82,9.82,0,0,1-3-2.21,6.26,6.26,0,0,1-1.85-2.5,13.88,13.88,0,0,1-1-2.39c-.08-.74-.11-1.41-.13-2a6.86,6.86,0,0,1,1.25-4.64c1.11-1.65,1.9-1.26,1.9-1.26s.8.34,1.43,2,.76,4.81,4,7.46c2.24,1.62,6.14,1.61,9.39-.42,3.73-2,6.48-5.24,6.92-9.07,1.08-7.78-7.32-16.73-15.24-18.41-5.86-1.64-13.33,1.65-17.79,7.94a24.72,24.72,0,0,0-3.66,23c2.91,8,11.12,15.19,20.28,18.58a28.12,28.12,0,0,0,27.29-6.38,37.91,37.91,0,0,0,9-11.37,43.26,43.26,0,0,0,4.7-13.52,106.43,106.43,0,0,0-.35-28.49,88.74,88.74,0,0,0-20.38-44.92c-2-2.8-4.53-4.72-6.28-6.73-1.91-1.88-3.27-3.76-4.84-5a57.88,57.88,0,0,1-6.09-5.86,9.53,9.53,0,0,1-1.74-2.57l-.68-.53c-3.32-2.56-6.1-4.68-8.42-6.45l-1.89-1.23-4-1.91C1596.22,482.5,1588.63,480.11,1579,477.33Zm115.06,55.83c11.53,7.29,33.06,10,49.71,10.06a257.07,257.07,0,0,0,46.41-3.67,146,146,0,0,0,25.89-6.68l3.06-1.26.54-.26v0l-2-1.16c-1-.58-2.17-1-3.26-1.54-2.22-1-4.34-2.12-6.67-2.9-18.22-7.06-38.19-9.67-56-9.78s-33.65,2.42-45.5,5.77c-11.08,3.1-16.59,5.14-19.81,5.76q1.86,1.39,3.74,2.83a1.67,1.67,0,0,1-.07-1.42c.33-1.13,1.84-2.64,5.11-3.35,14.15-2.83,41.85-1.15,55.42-1.69a92.18,92.18,0,0,0,13-1c3-.61,4.2,2.36,4.2,2.36s1.27,3-2.17,3.66a106.75,106.75,0,0,1-14.41,1.11c-13.86.48-42.11-1.25-54.08,1.26a11.59,11.59,0,0,1-3.23.37,5.72,5.72,0,0,1-1.87-.31,5.84,5.84,0,0,1-1.3-.56l2.23,1.73ZM1730.13,574a388.58,388.58,0,0,0-39.34-35.62c-.74-.45-1.41-.91-2-1.35a137.12,137.12,0,0,1,8.71,13.52c7.89,13.8,14.32,29.32,20.34,45.6q2.23,6.09,4.49,12.34l1.6,4.47h.55c1.24-.06,2.5-.17,3.76-.18a105.13,105.13,0,0,1,30.22,4.54,146.76,146.76,0,0,1,30.71,13.2C1769.21,611,1748.61,592.51,1730.13,574Z"/><path d="M1886,742.61a19.38,19.38,0,0,1,13.32-4.65c5.3.18,10,2.5,14,5s8,6.32,9.63,11.24a16,16,0,0,1-2,13.52,29.4,29.4,0,0,1-18.42,12.47,23.09,23.09,0,0,1-9.68.08,18.62,18.62,0,0,1-7.21-3.51,18,18,0,0,1-5.37-7.63,15.57,15.57,0,0,1-2.09-6.7A23.5,23.5,0,0,1,1886,742.61Zm-1.53,19.54c0,.54.1,1,.15,1.52a9.56,9.56,0,0,1,1.52,2.79c.89,2.53,2.55,5.34,5.27,6.75s6.29,1.63,9.43.93c4.73-1,10.95-4.23,14.37-9.7a10.37,10.37,0,0,0,1.49-8.79c-.91-3-3.58-5.67-6.87-7.78s-7-3.84-10.4-3.92a13,13,0,0,0-9,3.13,17.65,17.65,0,0,0-5,7.39A21.23,21.23,0,0,0,1884.51,762.15Z"/><path d="M86.47,742.82c4-2.51,8.71-4.91,14.09-5.14a19.72,19.72,0,0,1,13.6,4.64,23.72,23.72,0,0,1,8,20c-.46,4.77-2.19,7.3-3.54,8.61a17.35,17.35,0,0,1-7,7.46,20.56,20.56,0,0,1-14.21,1.71A29.58,29.58,0,0,1,79,767.74a16,16,0,0,1-2.12-13.54C78.4,749.23,82.42,745.45,86.47,742.82Zm-1.79,21.62c3.47,5.47,9.71,8.67,14.44,9.67,5.24,1.15,8.86-.29,10.9-2a12.46,12.46,0,0,0,3.54-5.37,8.29,8.29,0,0,1,2.27-3.72c0-.27.06-.52.08-.81.39-4.65-1-11.14-6.13-15.36a13.27,13.27,0,0,0-9.2-3.17c-3.44.1-7.08,1.82-10.53,4s-6,4.91-6.9,7.9A10.46,10.46,0,0,0,84.68,764.44Z"/><path d="M988.73,567.64a16.78,16.78,0,0,1,13.62-2.94c5.14,1.2,9.23,4.9,12.16,8.71s5.54,8.23,6.11,13.49a18.93,18.93,0,0,1-3.84,13.63c-5.52,7.15-13.69,9.24-19.82,9.17-4.87-.14-7.56-1.68-9-2.92a17.51,17.51,0,0,1-8-6.43,19.6,19.6,0,0,1-2.64-13.83A29,29,0,0,1,988.73,567.64Zm-2.46,30.73a12.7,12.7,0,0,0,5.67,3.13,8.39,8.39,0,0,1,3.92,2l.83,0c4.75.09,11.25-1.74,15.21-7a12.81,12.81,0,0,0,2.63-9.23c-.32-3.37-2.3-6.83-4.73-10.07s-5.37-5.56-8.47-6.27a10.94,10.94,0,0,0-8.88,2.06,23,23,0,0,0-8.9,14.78C982.71,593,984.41,596.48,986.27,598.37Z"/><path d="M907,549.33c-20.74,13.87-51.12,27.78-89.39,27.78-20.11,0-42.36-3.84-66.43-13.48a3.2,3.2,0,0,1-1.63-4.49,124.73,124.73,0,0,1,20-26.07c13-13,32.32-26.42,57.1-26.83l2.18,0c18.38,0,35.31,3.62,50.43,7.18s28.46,7,39.37,7c6.27,0,11.66-1.1,16.37-3.76a3.2,3.2,0,0,1,4.07,4.8C938.93,521.61,927.72,535.45,907,549.33Zm-29.16-29.7c-15-3.54-31.44-7-49-7l-2.07,0c-21,.32-38,11.06-50.3,22.63A124.21,124.21,0,0,0,757,559c22,8.35,42.25,11.67,60.57,11.68,34.4,0,62.14-11.72,82-24.21a167.39,167.39,0,0,0,26-20.18,49.53,49.53,0,0,1-6.94.47C906.42,526.78,892.83,523.15,877.8,519.63Z"/><path d="M1246.31,563.63c-24.08,9.64-46.33,13.49-66.43,13.48-38.27,0-68.65-13.91-89.39-27.78s-32-27.72-32.11-27.89a3.2,3.2,0,0,1,4.07-4.8c4.7,2.66,10.09,3.76,16.36,3.76,10.91,0,24.26-3.43,39.37-7s32.06-7.18,50.44-7.18l2.18,0c24.78.41,44.09,13.8,57.1,26.83a124.73,124.73,0,0,1,20,26.07,3.14,3.14,0,0,1,.19,2.61A3.18,3.18,0,0,1,1246.31,563.63Zm-22.94-26c-12.38-12.4-30.27-24.61-52.68-25l-2.07,0c-17.54,0-33.95,3.47-49,7s-28.63,7.15-40.84,7.17a49.38,49.38,0,0,1-6.93-.47A167.35,167.35,0,0,0,1094,544c20,13.38,49.15,26.71,85.84,26.71,18.32,0,38.56-3.33,60.57-11.68-.76-1.21-1.74-2.73-2.94-4.46A124.85,124.85,0,0,0,1223.37,537.59Z"/></svg>

