<svg xmlns="http://www.w3.org/2000/svg" viewBox="0 0 4163.99 5084.87" width="500" height="500"><path style="fill-rule:evenodd;" d="M3417,5150.55c-49.16,19.05-49.48,21.65-102.61,21.65h-508v28.68h509.55c49.79,0,54.19-.83,101.09,14.92-49.16,19-49.48,17.79-102.61,17.79l-508,7.7h-64.51c-37.6,0-60.21-34.81-78.31-64.43-55.5-90.85-1186.39,93.64-1440.33,53.59-220.65-34.78-220-190.59,0-225.28,253.94-40,1384.82,144.47,1440.33,53.59,18.08-29.6,40.71-64.43,78.31-64.43h64.51l509.55,7.71c49.79,0,54.19-.83,101.09,14.9-49.16,19.05-49.48,17.81-102.61,17.81h-508v28.69h509.55c49.79,0,54.19,3,101.09,18.75-49.16,19.05-49.48,21.65-102.61,21.65h-508v28h509.55C3365.7,5131.8,3370.1,5134.81,3417,5150.55Z" transform="translate(-155.48 -156.42)"/><path d="M2586,388.53c-17.5-10.49-35.24-20.59-53.08-30.48a770.34,770.34,0,0,0-121.34-53.81c-1.69-42.46-17.93-63.65-55.77-73.27a71.16,71.16,0,0,0-41.48,1.52c-19,6.51-25.63,23.14-32.66,38.87-3.88-.33-6.45-.37-9-.78-77.37-12.71-167.78-17.3-243.79,1.87-47.15,11.89-76.84,38.29-106.26,81.57-72.91-42.27-145.55-82.32-220.63-117.47-81.72-38.26-166.1-69-256.64-79.43a98,98,0,0,0-55.79,9.68c-16.62,8.17-23.44,20.14-21.93,38.64,2.83,34.7,26.59,61.87,61.87,69,12.67,2.55,24.42,6.91,36.36,11.47,25.64,9.81,51.36,19.53,77.48,27.91,54.14,17.38,110,28.79,163.64,48.12,65,23.43,127.89,51.18,189.36,88.06-3.36,21.13-5.59,44.66-11,67.42-14.09,59-20.23,118-14.09,178.78,8.16,80.9,42.38,143.67,117.57,179.66,137.86,66,271,106,424.18,82.68,21.81-3.33,70.07-15.89,90.3-26.83,34.38-18.61,51.59-37.37,69.58-72.44,71.26-138.9,80.59-314.71,82.59-326C2667,468.35,2640.93,421.44,2586,388.53ZM1415,196.86c25.85-16.2,49.18-11.34,64.67,12.53C1464.06,229.85,1429.66,223.63,1415,196.86Zm584.29,127c4.94-4.64,20.31-12.78,23.59-13.43,84.81-16.64,169.78-17.61,254.66-4.25,6.27,42.42,18.49,56.32,55.28,64.2,35.59,7.63,44.56,3.47,67.34-32.29,65.51,22,125.8,51.79,180.38,92.69,11.33,8.49,20.77,18.87,29,30.42,7.69,10.77,5.49,18.81-5.56,25.29-22.62,13.26-47.94,17-73.24,19-81.74,6.71-161.86-5-241.05-24-80.54-19.41-159.08-45.21-236.21-75.43-22.88-9-43.81-20.66-60.67-38.81C1978.17,351.47,1983.63,338.58,1999.29,323.9Zm543.54,527.47c-29.18,43.76-75.26,67-157,79.1-69.24,10.24-301.71-47-342.68-64.41-71.48-30.4-123.53-80-131.89-162.39-7.11-70.08,7.36-206.42,28.09-300.16,85.32,87.81,193.72,119.72,308.33,137.26,51.68,7.91,121.93,22.3,212.61,26.46,2.87.13,6.49,1.13,8.2-4.13-10.66-10.63-184.63-30.16-259.36-53.26-76.05-23.5-151.3-46.3-217.21-92.24-11-7.66-21.14-16.52-31.62-24.91-11.37-9.09-14.37-19-2-30.71,16.64,27.65,41.67,45.69,70.62,57.4,99.77,40.37,199.65,80.83,306.33,99.85,73.27,13.06,146.92,20.64,221.14,7,24-4.39,46.8-11.85,71.95-28.38C2625,557.47,2600.92,764.23,2542.83,851.37Z" transform="translate(-155.48 -156.42)"/><path d="M1641.26,649.7c-69,2-120.53,28.57-167.7,69.16-26.92,23.17-59.2,41.13-91.3,56.88-20.86,10.24-45.48,14.66-68.91,17.3-23.09,2.59-44.95-7-54.51-29.27-9.79-22.87-8.9-48.26,8.11-68,14.15-16.41,30.31-33.2,49.13-43.1,101.25-53.26,206.54-55.66,313.67-19.12C1632.65,634.57,1634.19,639.55,1641.26,649.7Z" transform="translate(-155.48 -156.42)"/><path d="M1706.42,530.28c-9.86-5.8-16.06-8.95-21.72-12.87a129.07,129.07,0,0,0-80-23.55c-15.55.52-31.34.87-46.67-1.24s-30.37-6.35-44.88-11.55c-16.79-6-22.85-20.33-22.41-37.25.48-18.28,11.14-32.45,29.16-37.23,33-8.76,65.31-4.08,94.72,12,40.66,22.25,72.47,54,91.63,97C1707.3,517.87,1706.42,521,1706.42,530.28Z" transform="translate(-155.48 -156.42)"/><path d="M1650.71,793.86c-34.24,49.75-58.54,88.09-86.23,123.79-10.94,14.09-28.26,24.92-44.83,32.52-19.82,9.1-46.38-8.91-46.76-31.18-.27-15.58,1-33.94,8.85-46.43C1517.48,816,1569.6,789.81,1650.71,793.86Z" transform="translate(-155.48 -156.42)"/><path d="M2833.69,649.7c68.95,2,120.53,28.57,167.7,69.16,26.92,23.17,59.2,41.13,91.3,56.88,20.86,10.24,45.48,14.66,68.91,17.3,23.09,2.59,45-7,54.51-29.27,9.79-22.87,8.9-48.26-8.11-68-14.15-16.41-30.31-33.2-49.13-43.1-101.25-53.26-206.54-55.66-313.67-19.12C2842.3,634.57,2840.76,639.55,2833.69,649.7Z" transform="translate(-155.48 -156.42)"/><path d="M2768.53,530.28c9.86-5.8,16.06-8.95,21.72-12.87a129.07,129.07,0,0,1,80-23.55c15.55.52,31.34.87,46.67-1.24s30.37-6.35,44.88-11.55c16.79-6,22.85-20.33,22.41-37.25-.48-18.28-11.14-32.45-29.16-37.23-33-8.76-65.31-4.08-94.72,12-40.66,22.25-72.47,54-91.63,97C2767.65,517.87,2768.53,521,2768.53,530.28Z" transform="translate(-155.48 -156.42)"/><path d="M2824.24,793.86c34.24,49.75,58.54,88.09,86.23,123.79,10.94,14.09,28.26,24.92,44.83,32.52,19.82,9.1,46.38-8.91,46.76-31.18.27-15.58-1-33.94-8.86-46.43C2957.46,816,2905.35,789.81,2824.24,793.86Z" transform="translate(-155.48 -156.42)"/><path d="M2336.39,595.29c-23.47,2.25-41.41,14.23-56.44,31.45-11,12.58-18.62,27.35-27.68,43.72-24.89-20.15-47.11-41.32-76.33-52-36.38-13.35-56.94,4.86-52.64,43.12,14,124.78,153.41,212.33,165.59,201.27,7.21-6.54,70.54-125.94,92.51-169.81a98.59,98.59,0,0,0,10.33-50.22C2390,611,2367.9,592.27,2336.39,595.29Z" transform="translate(-155.48 -156.42)"/><path d="M1253.93,1102.42v3.14q-15.11,15.74-19.82,51t-4.72,80.52v171.11q0,45.28,4.72,80.52t19.82,51v3.14h-162.3v-3.14q15.09-15.72,19.81-51t4.72-80.52V1237q0-45.3-4.72-80.52t-19.81-51v-3.14Z" transform="translate(-155.48 -156.42)"/><path d="M1450.19,1102.42v3.14a22.07,22.07,0,0,0-.63,6.29q0,6.93,3.78,15.73a126.45,126.45,0,0,0,8.81,17q5,8.19,10.06,15.42c3.35,4.82,6.08,8.71,8.18,11.63l120.15,171.11V1237q0-45.3-4.71-80.52t-19.82-51v-3.14h162.3v3.14q-15.09,15.74-19.81,51t-4.72,80.52v171.11q0,45.28,4.72,80.52t19.81,51v3.14H1586.7v-3.14a22.11,22.11,0,0,0,.63-6.3q0-6.91-3.77-15.72a132.08,132.08,0,0,0-8.81-17q-5-8.16-10.38-15.41a123.48,123.48,0,0,1-7.86-11.64L1435.72,1301.2v107q0,45.28,4.72,80.52t19.82,51v3.14H1298v-3.14q15.09-15.72,19.81-51t4.72-80.52V1237q0-45.3-4.72-80.52t-19.81-51v-3.14Z" transform="translate(-155.48 -156.42)"/><path d="M2036.48,1539.63q15.72-15.72,20.13-51t4.41-80.52V1198.66q-20.14,0-38.06.63a247.5,247.5,0,0,0-34,3.46,153.2,153.2,0,0,0-30.83,8.81,101.28,101.28,0,0,0-28,17.3l-3.15-.63,22.65-134,3.14-1.26q8.18,3.78,21.71,5.66t30.82,2.83q17.29.94,37.12,1h150.35q19.82,0,37.11-1t31.14-2.83q13.83-1.89,22-5.66l3.15,1.26,22.64,134-3.14.63a101.62,101.62,0,0,0-28-17.3,152.22,152.22,0,0,0-31.14-8.81,256,256,0,0,0-34.28-3.46q-17.92-.61-38.06-.63v209.49q0,45.28,4.72,80.52t19.81,51v3.14h-162.3Z" transform="translate(-155.48 -156.42)"/><path d="M2505.77,1102.42v3.14q-15.09,15.74-19.81,51t-4.72,80.52v57.24l141.54-17.61V1237q0-45.3-4.72-80.52t-19.81-51v-3.14h162.3v3.14q-15.11,15.74-19.82,51T2736,1237v171.11q0,45.28,4.72,80.52t19.82,51v3.14h-162.3v-3.14q15.09-15.72,19.81-51t4.72-80.52v-50.33l-141.54,17.62v32.71q0,45.28,4.72,80.52t19.81,51v3.14h-162.3v-3.14q15.09-15.72,19.81-51t4.72-80.52V1237q0-45.3-4.72-80.52t-19.81-51v-3.14Z" transform="translate(-155.48 -156.42)"/><path d="M2970,1102.42v3.14q-15.11,15.74-19.82,51t-4.72,80.52v171.11q0,45.28,4.72,80.52t19.82,51v3.14H2807.72v-3.14q15.11-15.72,19.82-51t4.72-80.52V1237q0-45.3-4.72-80.52t-19.82-51v-3.14Z" transform="translate(-155.48 -156.42)"/><path d="M3020.35,1375.44q11.94,15.09,32.39,29.56a244.06,244.06,0,0,0,46.55,25.48,323.05,323.05,0,0,0,56,17.61,277.18,277.18,0,0,0,60.08,6.61q22,0,36.49-6.92t14.46-23.28v-3.14q0-11.94-9.75-20.45t-26.73-15.41a375.71,375.71,0,0,0-39.32-13.21q-22.34-6.29-47.49-13.84a324.36,324.36,0,0,1-46.87-17.93A147.3,147.3,0,0,1,3058.4,1315a111.64,111.64,0,0,1-25.47-36.17q-9.43-21.06-9.44-50v-6.29q0-41.52,16.67-66.68a110.56,110.56,0,0,1,42.78-38.38,182.62,182.62,0,0,1,57.24-17.61,434.31,434.31,0,0,1,60.71-4.4q15.11,0,30.83,1.57t29.88,3.14q14.15,1.59,26.1,3.15a158.39,158.39,0,0,0,20.13,1.57q9.45,0,18.56-.63a33.55,33.55,0,0,0,16-5l3.15.63q3.14,37.13,6.29,73.6t6.29,73.6l-2.51,1.26q-10.71-13.21-28.94-23.9a229.41,229.41,0,0,0-39.64-18.25,281.74,281.74,0,0,0-44.35-11.63,243,243,0,0,0-42.46-4.09q-25.8,0-42.77,6.29t-17,21.39q0,10.07,6.29,16.35a55.91,55.91,0,0,0,16.67,11,179.89,179.89,0,0,0,24.54,8.81q14.14,4.1,29.88,8.49,27.67,8.19,56.93,17.3a215.49,215.49,0,0,1,53.47,24.85,127.6,127.6,0,0,1,39.63,40.89q15.4,25.17,15.41,65.42v6.29q0,39-15.09,64.49a116.62,116.62,0,0,1-39.64,40.57q-24.53,15.1-55.67,21.07a337.6,337.6,0,0,1-63.85,6q-29.58,0-51.58-3.46t-39-7.86q-17-4.39-29.57-7.87a86.63,86.63,0,0,0-22.64-3.46,53.7,53.7,0,0,0-15.73,2.52,31.36,31.36,0,0,0-13.21,7.55l-3.14-.63-17-160.42Z" transform="translate(-155.48 -156.42)"/><path d="M444.93,3199.86q-115.64,0-129.69-204.86l-4.71-87.39q-155.05-16-155-110.89,0-86.46,161.64-274.41,31-422,94.9-756.52,6.59-34.74,25.85-61.54t43.7-26.8q18.8,0,27.73,18.79t10.32,35.25c.93,11,1.42,19.58,1.42,25.85,0,8.77-.33,16.61-.93,23.48q-40.44,302.61-49.82,577,70.48-71.43,252.81-241.51,46-42.28,68.59-42.3,15,0,30.07,15t15,47a195.08,195.08,0,0,1-13.16,69.54q-18.79,49.85-41.35,49.82-11.28,0-21.6-15L467.48,2547.67q.91,121.26,9.4,238.7,141-30.07,236.82-68.59,30.07-12.22,44.16-12.23c9.39,0,14.11,4.71,14.11,14.11q0,19.73-27.27,50.74-43.23,47-113.72,78.94a676.77,676.77,0,0,1-143.77,47l9.39,77.06h12.23q22.56,0,40.86,18.8T568,3044.81q0,28.2-19.73,68.6A224.24,224.24,0,0,1,503.17,3174Q475.92,3199.83,444.93,3199.86Zm-137.21-394.7.93-80.82q-33.82,42.33-33.83,54.51Q274.82,2800.5,307.72,2805.16Z" transform="translate(-155.48 -156.42)"/><path d="M984.15,2199q-59.24,0-86.48-37.13t-27.24-96.32a273.62,273.62,0,0,1,3.76-45.11q16.92-93,80.82-151.31,40.41-37.59,96.81-37.59,26.31,0,41.35,15t15,32q0,10.37-4.71,23.5,18.79,11.28,27.73,39.94t8.93,55q0,38.57-14.1,78.94-17.86,51.72-54.51,87.41T984.15,2199Zm47,776.24q-125.93,0-125.93-256.56,0-147.51,41.35-399.39,13.16-95.87,65.79-95.86,37.59,0,38.51,53.56v36.66q-4.69,110-4.68,300.72,0,119.35,17.84,247.15a60.19,60.19,0,0,1,16.92-2.81q23.49,0,23.5,32,0,34.77-25.38,63Q1060.26,2975.3,1031.14,2975.27Zm-31-861.77q14.1,0,26.31-16.92,18.79-26.31,32-74.23,9.4-35.7,10.35-63.9-1-27.26-13.15-27.27-14.14,0-26.32,15-21.64,25.41-34.78,74.25-9.4,34.77-9.4,61.08Q985.08,2113.5,1000.12,2113.5Z" transform="translate(-155.48 -156.42)"/><path d="M1437,3199.86q-88.34,0-112.77-109.94a848.11,848.11,0,0,1-18.8-127.34q-4.7-65.29-4.69-180.9,0-162.58,23.49-432.29-20.68.95-42.28.93-31.05,0-57.34-.93-35.71-1.87-61.1-19.26T1138.16,2278q0-30.07,29.15-52.63,24.43-19.74,53.55-19.75,28.2,0,47,26.32l69.54-.93q50.74-467.06,94-527.22,18.8-26.31,42.3-26.31,18.8,0,29.12,26.31t10.35,57.34c0,6.89-.33,13.46-1,19.72q-34.77,262.23-44.16,441.69,108-10.31,202-32.88a74,74,0,0,1,16-1.88q16.9,0,27.24,15a31.63,31.63,0,0,1,5.64,17.84q0,17.89-15,30.07-71.43,62-239.63,86.46-3.75,124.05-3.76,175.75,0,236.82,28.2,460.48h12.2q22.56,0,39.47,16.92,20.67,20.67,20.68,54.5,0,43.23-41.82,99.16T1437,3199.86Z" transform="translate(-155.48 -156.42)"/><path d="M1930.24,2974.32q-70.52,0-115.6-59.19-86.46-110-86.46-346.79a1188.39,1188.39,0,0,1,26.31-247.14q53.57-250.92,185.15-365.58,67.65-58.27,156-58.27,56.39,0,94,35.71,47.89,46.1,47.92,127.81,0,113.74-48.87,113.72-31.95,0-63.9-27.24t-32-63q0-20.68,16.91-37.59-4.69-16.92-15-16.92-40.39,0-76.1,58.27-79.92,129.68-114.66,401.26-8.49,63.92-8.46,142.85,0,198.32,70.49,198.3,92.1,0,247.15-320.47,41.34-85.48,52.16-91.15t13.62-5.64q11.28,0,11.28,27.25,0,41.34-16,97.73-48.87,173.9-110.89,279.12Q2071.2,2974.34,1930.24,2974.32Z" transform="translate(-155.48 -156.42)"/><path d="M2497.67,3199.86q-115.62,0-129.69-204.86-7.52-97.74-7.51-213.32,0-173.85,19.72-389.06,33.82-359,84.58-626.83,6.57-34.74,25.85-61.54t43.69-26.8q18.8,0,29.12,24t10.35,55.92q0,13.15-.93,23.48-52.62,392.82-52.62,740.53,0,91.2,4.68,180.44,2.82-14.07,14.11-53.56,21.58-73.29,62-161.63,89.23-198.3,200.15-198.31,113.72,0,113.73,193.59,0,46.1-3.76,98.69-4.74,61.08-4.71,121.22,0,111.87,31,111.84,32.86,0,86.46-84.58,15.95-23.49,32.88-23.5,25.36,1.88,25.38,36.66,0,45.11-59.68,115.6t-103.83,70.47q-144.74,0-144.73-212.38,0-54.51,12.21-127.81Q2805,2471.56,2805,2421.74q0-50.74-20.67-50.75-53.57,0-121.22,188a3058.19,3058.19,0,0,0-94.93,320.47q-19.72,81.75-19.72,94h12.2q23.51,0,41.82,18.8t18.33,52.62q0,28.2-19.72,68.6a224.27,224.27,0,0,1-45.14,60.63Q2528.67,3199.83,2497.67,3199.86Z" transform="translate(-155.48 -156.42)"/><path d="M3254,2928.28q-23.53,0-42.3-8.47-26.32-11.26-46-37.59-34.8-46-34.78-109.94,0-72.36,25.85-127.34a484.88,484.88,0,0,1,62.48-100.08,258.65,258.65,0,0,1-30.07,1.88q-80.82,0-119.34-56.39-23.52-34.77-23.5-94.92,0-74.2,37.59-142.85,72.36-133.44,220.85-215.19,97.74-54.51,174.8-54.51,108,0,108.06,105.26,0,34.77-15,47.45t-29.13,12.69q-38.57,0-47-40.42-56.39,9.39-148.49,71t-152.24,138.62q-40.44,52.62-40.42,78,0,23.52,32.9,23.5,38.51,0,121.22-37.59,110-49.8,138.16-49.82,31,0,44.16,25.39a35.33,35.33,0,0,1,3.75,16q0,32.93-58.26,79.89-228.36,185.14-228.35,311,0,57.36,47.92,57.34,37.59,0,86.45-30.07t94.91-74.72q46-44.62,78-87.87,17.85-24.43,33.83-24.44,29.13,0,29.15,36.67,0,16-10.35,35.71-51.69,96.8-140.5,173.38T3254,2928.28Z" transform="translate(-155.48 -156.42)"/><path d="M3769.72,2960.24q-76.16,0-101.5-96.81-17.88-69.54-17.86-163.52,0-190.74,37.59-405,7.52-40.41,14.11-65.78,15-62,55.43-62t41.35,58.26l.95,27.24-.95,31q-4.7,101.49-6.57,178.55,106.17-312,245.27-312,113.72,0,113.72,192.64,0,67.66-3.76,114.65-4.72,62-4.71,95.86,0,122.16,31,122.17,32.85,0,77.06-74.23,20.67-33.84,40.4-33.84,13.16,0,20.67,9.87a36.92,36.92,0,0,1,7.52,23q0,52.64-59.68,121.25T4155,2790.13q-144.72,0-144.72-214.27,0-76.08,16-156.93,16-84.57,16-136.27,0-50.76-20.67-50.75-56.4,0-134.4,213.34-79.89,219.9-79.87,390.94a52.33,52.33,0,0,1,12.2-1.88q24.43,0,24.44,35.71t-25.36,67.66Q3799.8,2960.24,3769.72,2960.24Z" transform="translate(-155.48 -156.42)"/><path d="M2548.66,3625.15l75.1-9.51L2587.71,3525ZM742.88,3577.58c0-21.87-22.89-39.61-51.14-39.61s-51.14,17.74-51.14,39.61,22.9,39.62,51.14,39.62S742.88,3599.46,742.88,3577.58Zm3089.32,12.78c-5.69-5.46-10.87-11.27-16.88-16.51-3.53-3.08-6-5.67-2.24-9.5.21-.22.2-.57.29-.86,1.7-5.61,3.32-11.24,5.12-16.82a62.92,62.92,0,0,1,2.73-6.16,7.54,7.54,0,0,0-7.72-2.77c-3.66.71-7.95,1.21-10.57,3-4.9,3.37-11.11,3.81-16.58,5.8-4.19,1.53-8.46,1.8-11.73-1.6a2.17,2.17,0,0,0-1-.35c-4.36-.73-7.31-3-10.27-5.38a9.1,9.1,0,0,0-2.67-1.56c-4.27-1.39-8.27-3.09-11.16-6a4.8,4.8,0,0,0-5.14-.93,4.71,4.71,0,0,0-2.87,6.46c.74,1.35,1.92,2.72,2,4.1q.49,10.05.38,20.11a4,4,0,0,1-2.12,3.28c-6.62,2.18-11.27,6.46-17.2,9.36a72.35,72.35,0,0,0-11,6.86c-3.37,2.47-2.43,5.3,1.94,6.51,3,.84,6.2,1.39,9.32,2.05,4.76,1,9.55,2,14.3,3a57.48,57.48,0,0,1,6.94,1.86c2,.72,4.69,1.49,5.49,2.82,2.48,4.1,4.18,8.48,6.22,12.74,1.77,3.71,3.34,7.49,5.46,11.08,2.77,4.66,6.58,5,10.43.74,5.55-6.09,11-12.28,16-18.65,2.41-3,5.3-4.23,9.78-4.21,9,.05,18.08-.2,27.12-.33,2.69,0,5.65.22,7.12-2.07S3834.22,3592.31,3832.2,3590.36Zm-82.5-262.74h-3058l148.14,250-148.14,250h3058l-148.14-250Zm-2218,77.22q-14.52,13-25.78,37.3a374.17,374.17,0,0,0-19.78,53.83l-76.11,256.86h-86.62l-59.08-199.28-58.59,199.28h-86.62L1043.06,3496a375.36,375.36,0,0,0-19.78-53.83q-11.26-24.27-25.79-37.3v-2.5h131.19v2.5a34.17,34.17,0,0,0-6.51,15.52,83,83,0,0,0-.75,19.53,130.75,130.75,0,0,0,3.25,21q2.5,10.51,5,20l34.55,117.66,30.54-103.14v.5q2.51-9,6-21.53a222.25,222.25,0,0,0,5.51-25.29,102.74,102.74,0,0,0,1-24.53q-1-11.76-7.51-19.78v-2.5H1329v2.5a34.66,34.66,0,0,0-6.51,16,79.65,79.65,0,0,0-.5,20,168.14,168.14,0,0,0,3.5,21.53q2.5,11,5,20.53L1365,3598.61,1399.56,3481q2.49-9.51,5-20a130.78,130.78,0,0,0,3.26-21,83,83,0,0,0-.75-19.53,34.28,34.28,0,0,0-6.51-15.52v-2.5h131.18Zm294.41,354.5-2.5,1q-6.51-3-17.27-4.51t-24.54-2.25q-13.77-.75-29.54-.75H1546.76v-2.5q12-12.51,15.77-40.56t3.76-64.09V3509.49q0-36.06-3.76-64.09t-15.77-40.56v-2.5h198q15.78,0,29.54-.75t24.54-2.26q10.76-1.5,17.27-4.5l2.5,1,18,106.65-2.5.5a88.76,88.76,0,0,0-22.79-13.77,120.26,120.26,0,0,0-25-7,208.78,208.78,0,0,0-27.79-2.75q-14.54-.49-31-.51h-71.1V3544h57.08a359.27,359.27,0,0,0,44.56-2.51q20-2.49,31-12l2.51,1v101.64l-2.51,1a88.89,88.89,0,0,0-22.53-14.52,107.88,107.88,0,0,0-24.28-7.26,194.75,194.75,0,0,0-27-2.75q-14.26-.49-30.79-.5h-28v68.09H1735q16.52,0,31-.25a184.38,184.38,0,0,0,27.79-2.5,111.27,111.27,0,0,0,25-7.26,94.52,94.52,0,0,0,22.78-14l2.5.5Zm542.76-6.51H2252.25v-2.5q7-8,10.51-24.79t2.51-40.81l-3-119.66-79.61,119.66-79.11-119.66-3,119.66q-1,24,2.51,40.81t10.51,24.79v2.5H1996.89v-2.5q7-8,9.76-24.79a349.76,349.76,0,0,0,3.76-40.81l4.5-180.75c.33-4,.5-7.92.5-11.77v-11.76a226.32,226.32,0,0,0-3.25-40.06q-3.26-18-14.77-35.55v-2.5h96.13l89.13,132.18,89.63-132.18h96.13v2.5q-11.52,17.53-14.77,35.8a227.53,227.53,0,0,0-3.25,39.81v11.76c0,3.85.16,7.76.5,11.77l4.5,180.75a345.44,345.44,0,0,0,3.76,40.81q2.74,16.78,9.76,24.79Zm418.08,0H2655.31v-2.5a34.08,34.08,0,0,0,4.75-8.27q2.27-5.25,2.26-14.27a72.66,72.66,0,0,0-1.75-14.77,117.07,117.07,0,0,0-6.26-19.27l-6.51-16.53-126.18,15.53-.5,1a174.72,174.72,0,0,0-5.76,19.52,68.54,68.54,0,0,0-1.75,14.52q0,9,2.25,14.27a33.43,33.43,0,0,0,4.76,8.27v2.5H2388.93v-2.5q16-17.52,28.29-43.06T2438,3659.2l81.12-205.29q5-13,6.25-19.28a55.12,55.12,0,0,0,1.26-8.26q0-8.51-2.26-13.52a35.32,35.32,0,0,0-4.75-8v-2.5h117.16l101.14,256.86q8.52,22.53,20.78,48.07t28.29,43.06Zm373-14.52a71.06,71.06,0,0,1-28.54,15.77,112.12,112.12,0,0,1-29.54,4.26,156.88,156.88,0,0,1-32.29-3,89.81,89.81,0,0,1-26.79-10.26,100,100,0,0,1-23.53-19.28,194,194,0,0,1-22-30l-47.06-74.61-33.55,40.06a439.59,439.59,0,0,0,4.76,54.58q3.75,23.53,14.77,34.55v2.5H2807v-2.5q12-12.51,15.77-40.56a487.93,487.93,0,0,0,3.76-64.09V3509.49a487.93,487.93,0,0,0-3.76-64.09q-3.75-28-15.77-40.56v-2.5H2936.2v2.5q-12,12.52-15.77,40.56t-3.76,64.09V3544l65.09-78.11q3-4,7.51-10.27t9-12.77a87.33,87.33,0,0,0,7.51-13q3-6.51,3-11,0-5.51-1.5-8.51a31.31,31.31,0,0,0-3.51-5.51v-2.5h129.69v2.5a147.81,147.81,0,0,0-12,11.27q-6,6.26-11.52,12.76L3014.81,3543l60.08,96.13q11,17.53,21.79,33.8t21.27,29.54a160.46,160.46,0,0,0,21,22.28q10.51,9,21,11Zm299.42,21-2.5,1q-6.51-3-17.28-4.51t-24.53-2.25q-13.78-.75-29.54-.75H3180v-2.5q12-12.51,15.77-40.56a487.93,487.93,0,0,0,3.76-64.09V3509.49a487.93,487.93,0,0,0-3.76-64.09q-3.75-28-15.77-40.56v-2.5h198q15.76,0,29.54-.75t24.53-2.26q10.77-1.5,17.28-4.5l2.5,1,18,106.65-2.51.5a88.54,88.54,0,0,0-22.78-13.77,120.43,120.43,0,0,0-25-7,208.78,208.78,0,0,0-27.79-2.75q-14.53-.49-31.05-.51h-71.1V3544h57.08a359.33,359.33,0,0,0,44.57-2.51q20-2.49,31-12l2.5,1v101.64l-2.5,1a89.24,89.24,0,0,0-22.53-14.52,107.81,107.81,0,0,0-24.29-7.26,194.61,194.61,0,0,0-27-2.75q-14.28-.49-30.8-.5h-28v68.09h78.61q16.53,0,31-.25a184.38,184.38,0,0,0,27.79-2.5,111.19,111.19,0,0,0,25-7.26,94.14,94.14,0,0,0,22.78-14l2.51.5Z" transform="translate(-155.48 -156.42)"/><path d="M894.43,4849q-69.24,0-97.59-99.3-11.36-39.15-11.35-99.29,2.25-126.54,32.33-277.47,42-212.2,42-286.55,0-15.32-4.55-41.42l-11.91,11.35q-39.15,38-82.84,124.82-26.68,52.79-42,94.48t-26.66,100.73q-11.36,59-26.67,164.54-13.07,91.36-15.89,99.87-2.85,12.49-34.62,12.47-55,0-59.57-44.82-2.29-23.25-4.55-109.51-2.28-71.46-6.52-115.75T525.6,4260.56l-8.51,12.49q-17.6,27.26-42,98.73a1644.14,1644.14,0,0,0-59.58,228.66q-24.4,122-24.4,142.44,0,11.93-15.34,22.12A93,93,0,0,1,323,4780.89a72.43,72.43,0,0,1-20.42-2.84q-12.48-2.82-19.86-19.57T269.69,4700q-5.67-41.71-12.47-120Q243,4416.61,243,4285.54,243,4180,252.11,4096q5.65-55.62,11.92-67.53,9.63-18.13,40.28-18.15,35.73,0,54.47,19.29l9.09,10.78q-2.3,194.64-2.29,225.27,0,98.73,2.85,153.19l9.65-31.21q28.35-93,53.33-136.73,29.49-51.06,72.07-55.62a149.37,149.37,0,0,1,26.66,2.27q63,10.23,81.14,61.86,8.51,21.56,10.79,21.56c.74,0,1.12-1.33,1.12-4q0-6.21,15.32-43.68t35.19-77.73q30.06-62.42,64.1-107t61.3-57a92.09,92.09,0,0,1,34-6.25q48.23,0,85.66,30.92t38.58,72.63q1.14,41.71,1.14,47.38,0,78.89-29.49,233.78-34,179.31-36.31,287.68,0,88.52,24.38,132.2,4,7.4,14.2,7.39,6.78,0,16.45-3.4h2.84q9.64,0,9.65,14.17a73.35,73.35,0,0,1-1.14,11.91q-3.42,14.74-33.47,24.41A102.32,102.32,0,0,1,894.43,4849Z" transform="translate(-155.48 -156.42)"/><path d="M1133.74,4817.77q-24.4,0-38.6-5.67-48.8-21-76-172.5a975.34,975.34,0,0,1-15.31-169.66q0-129.37,36.87-249.1,30.09-91.35,76-129.37,27.22-22.69,59-22.7,89.64,0,129.38,90.23,52.2,115.18,52.2,199.17,0,107.27-97.6,154.33-22.7,10.8-59.3,21.85t-61,15.6c-6.45.76-10.41,1.89-11.92,3.41s-2.26,4.92-2.26,10.21q0,14.19,13,85.68,10.77,60.15,13.63,60.14,4.5,0,23.82-90.79l15.32-7.37a74.86,74.86,0,0,1,31.79-7.38q37.41,0,37.43,21,0,11.34-6.22,51.06-9.68,61.29-24.41,90.79-23.84,48.79-74.91,50.51Zm-11.91-316q37.41-11.35,53.33-17.6,49.36-18.14,74.89-64.12,11.35-24.39,11.35-64.68,0-86.25-44.26-181.58-11.92-25.52-15.31-25.54-6.25,0-22.71,31.79-31.21,60.15-47.08,159.43-10.21,66.39-10.21,122Z" transform="translate(-155.48 -156.42)"/><path d="M2051.75,4849q-69.24,0-97.59-99.3-11.36-39.15-11.35-99.29,2.25-126.54,32.33-277.47,42-212.2,42-286.55,0-15.32-4.54-41.42l-11.92,11.35q-39.15,38-82.84,124.82-26.68,52.79-42,94.48t-26.67,100.73q-11.36,59-26.67,164.54-13,91.36-15.89,99.87-2.85,12.49-34.61,12.47-55,0-59.58-44.82-2.28-23.25-4.55-109.51-2.28-71.46-6.51-115.75t-18.45-122.57l-8.51,12.49q-17.6,27.26-42,98.73a1644.14,1644.14,0,0,0-59.58,228.66q-24.4,122-24.4,142.44,0,11.93-15.33,22.12a93,93,0,0,1-52.77,15.89,72.33,72.33,0,0,1-20.42-2.84q-12.5-2.82-19.86-19.57T1427,4700q-5.68-41.71-12.48-120-14.2-163.41-14.19-294.48,0-105.53,9.09-189.52,5.64-55.62,11.91-67.53,9.64-18.13,40.28-18.15,35.73,0,54.47,19.29l9.09,10.78q-2.28,194.64-2.28,225.27,0,98.73,2.84,153.19l9.65-31.21q28.35-93,53.33-136.73,29.49-51.06,72.07-55.62a149.29,149.29,0,0,1,26.66,2.27q63,10.23,81.14,61.86,8.51,21.56,10.79,21.56c.74,0,1.12-1.33,1.12-4q0-6.21,15.32-43.68T1831,4155.6q30.06-62.42,64.11-107t61.29-57a92.09,92.09,0,0,1,34-6.25q48.24,0,85.67,30.92t38.58,72.63q1.14,41.71,1.14,47.38,0,78.89-29.49,233.78-34.07,179.31-36.32,287.68,0,88.52,24.39,132.2,4,7.4,14.19,7.39,6.78,0,16.45-3.4h2.85c6.42,0,9.65,4.72,9.65,14.17a73.35,73.35,0,0,1-1.14,11.91q-3.43,14.74-33.48,24.41A102.27,102.27,0,0,1,2051.75,4849Z" transform="translate(-155.48 -156.42)"/><path d="M2350.64,4689.53a187,187,0,0,1-48.23-6.81q-141.3-34.59-141.29-216.75,0-87.37,42-171.36,9.65-19.27,31.21-52.21l-24.38-32.33q-23.85-31.2-23.85-44.83,0-14.74,35.18-14.75,28.95,0,47.66,10.21t39.72,35.75q14.18,17,23.26,24.41a84.8,84.8,0,0,0,21.58,12.47q56.73,22.13,129.93,22.12,57.87-.54,125.4-28.93,23.83-15.89,48.23-15.89c6.8,0,14,2.08,21.57,6.24q14.73,10.22,14.74,25a68.53,68.53,0,0,1-4,22.7q-5.68,10.22-30.65,23.26-34.6,18.16-83.4,25-15.91,2.85-65.27,3.4-68.1-2.82-89.08-8.51l-23.26-4q0,1.14,25.54,33.47,72.61,92,77.17,156.61,1.13,23.84,1.13,34,0,90.24-68.65,135.63Q2396.59,4689.54,2350.64,4689.53Zm-25-60.14q7.92,0,22.12-9.09,40.29-27.21,48.23-90.79.57-7.92.57-16.45,0-56.73-43.7-123.12-34.62-52.19-44.26-56.75-5.1,0-18.16,44.84-14.17,48.23-14.17,106.1,0,39.16,4.54,64.12,9.08,40.88,28.93,69.79,6.79,11.35,10.79,11.35Z" transform="translate(-155.48 -156.42)"/><path d="M2683.64,4849.54q-23.85,0-32.91-12.47a153.63,153.63,0,0,1-9.09-14.19q-13.07-23.85-23.55-99T2594,4470.52q-7.38-103.85-7.36-204.28,0-155.46,15.31-241.73,10.78-54.47,21.56-59.58,21-9.6,66.4-9.63,31.77,0,73.19,9.07,83.4,18.74,154.91,77.74,48.78,40.29,76,85.12,36.3,64.14,38.57,108.09t2.28,53.62q0,66.41-25.54,121.42-56.17,105-174.77,187.82-22.7,15.91-22.7,17.6t22.7,4.52q32.91,3.42,82.84,10.79,60.72,8.53,73.77,16.46,30.63,18.16,30.65,37.45,0,13.64-14.19,13.62-18.16,0-192.35-22.71-58.46-9.06-68.1-9.07c-.76,0-1.12,1.15-1.12,3.41q0,10.22,2.82,32.33,2.82,46,2.84,119.73l-11.91,9.65Q2716.55,4849.54,2683.64,4849.54Zm53.89-292.78q3.42,0,45.4-30.65a529.21,529.21,0,0,0,110.65-110.64q29.49-38.56,42-67.53,19.28-44.8,19.3-108.94,0-56.16-20.42-102.12-39.17-85.11-143.56-111.23-30.66-7.35-70.93-7.37-5.1,43.13-5.1,101.56,0,158.31,13.61,338.75,6.79,90.22,6.81,94.21C2735.27,4555.44,2736,4556.76,2737.53,4556.76Z" transform="translate(-155.48 -156.42)"/><path d="M3149.39,4161.26q-18.16,0-26.67-1.12-39.72-11.36-39.71-38.6c0-4.52,2.64-10.21,7.94-17a23.7,23.7,0,0,1,15.88-8.51,142.45,142.45,0,0,1,14.75-.58q21.57,0,44.27,9.65,31.77,14.2,31.77,30.09,0,8.52-9.07,17a27.56,27.56,0,0,1-11.91,7.1Q3169.82,4161.27,3149.39,4161.26Zm4,599.2q-47.11,0-55.61-31.77-14.21-60.13-14.19-242.86,0-87.37,7.94-202,4-57.3,10.79-61.86,15.32-9.64,36.88-9.65,31.77,0,47.67,14.19c3.76,2.65,6.13,7.1,7.07,13.35s1.62,26.19,2,59.84l-1.13,253.65q0,91.35,1.7,128.24,2.27,27.81,2.27,42.54,0,23.85-12.2,30.09T3153.37,4760.46Z" transform="translate(-155.48 -156.42)"/><path d="M3399.6,4817.77q-24.42,0-38.6-5.67-48.8-21-76-172.5a975.37,975.37,0,0,1-15.32-169.66q0-129.37,36.88-249.1,30.09-91.35,76-129.37,27.24-22.69,59-22.7,89.64,0,129.38,90.23,52.2,115.18,52.19,199.17,0,107.27-97.59,154.33-22.71,10.8-59.31,21.85t-61,15.6q-9.66,1.14-11.91,3.41c-1.52,1.52-2.26,4.92-2.26,10.21q0,14.19,13,85.68,10.78,60.15,13.64,60.14,4.5,0,23.82-90.79l15.31-7.37a74.86,74.86,0,0,1,31.79-7.38q37.43,0,37.44,21,0,11.34-6.23,51.06-9.66,61.29-24.4,90.79-23.84,48.79-74.91,50.51Zm-11.91-316q37.41-11.35,53.33-17.6,49.36-18.14,74.89-64.12,11.36-24.39,11.35-64.68,0-86.25-44.26-181.58-11.92-25.52-15.32-25.54-6.24,0-22.7,31.79-31.23,60.15-47.08,159.43-10.21,66.39-10.21,122Z" transform="translate(-155.48 -156.42)"/><path d="M3893.18,4866.58a255,255,0,0,1-40.86-3.41q-90.81-15.91-118.58-73.21-9.09-16.46-9.08-42.56v-15.87q0-55.62,59-131.09,34.6-44.8,85.68-87.38-166.26-158.85-190.08-190.64-47.11-60.72-47.1-123.14,0-38,13-65.24,11.36-23.85,36.88-49.37,57.29-56.73,129.94-56.74a208.89,208.89,0,0,1,51.63,6.81q51,12.5,80.58,40.28,47.65,42,54.47,108.94,1.14,10.22,1.14,14.76,0,6.81-8.53,8.23t-17,3.68q-10.79,0-28.93-7.37-22.71-7.92-30.65-28.95-17.59-49.91-38.58-70.92-16.45-16.46-24.4-16.46-17.6,0-46.54,23.84t-42.55,50.78q-13.62,27-13.61,55.32,0,60.15,61.28,126,27.81,30.08,122,125.4l35.75-19.86q31.17-17.58,90.21-43.69,117.44-51,146.4-51.06,24.95.57,27.22,32.91a16.25,16.25,0,0,1-2.82,9.65q0,4-7.1,10.21t-41.15,20.42q-93.63,35.76-160,78.31l-30.63,21q0,2.28,18.16,26.69,73.76,101.55,73.77,173.62a119.29,119.29,0,0,1-9.65,48.23q-26.13,48.8-79.73,70.37T3893.18,4866.58Zm-40.28-55.06q8.51,0,25.52-5.1,67.51-17.6,89.09-65.82,4.53-10.76,4.54-27.23,0-25.53-6.8-46-18.16-54.48-43.7-84.55L3900,4606.13q-62.42,70.35-74.89,136.17c-.38,3.8-.56,7.76-.56,11.93a120.49,120.49,0,0,0,2.26,22.68Q3835.3,4811.51,3852.9,4811.52Z" transform="translate(-155.48 -156.42)"/></svg>


