<svg xmlns="http://www.w3.org/2000/svg" viewBox="0 0 3848.47 5142.28" width="500" height="500"><path d="M1698.35,294.34c-54.18,1.58-94.72,22.46-131.79,54.35-21.15,18.21-46.51,32.33-71.74,44.7-16.39,8.05-35.74,11.52-54.15,13.59-18.15,2-35.32-5.47-42.83-23-7.7-18-7-37.93,6.36-53.42,11.12-12.89,23.83-26.09,38.61-33.87,79.57-41.85,162.31-43.73,246.49-15C1691.58,282.45,1692.79,286.37,1698.35,294.34Z" transform="translate(-253.48 -99.88)"/><path d="M1749.55,200.5c-7.75-4.56-12.62-7-17.07-10.11a101.41,101.41,0,0,0-62.83-18.51c-12.22.41-24.63.69-36.67-1a176.27,176.27,0,0,1-35.27-9.07c-13.2-4.73-18-16-17.61-29.27.38-14.37,8.75-25.5,22.91-29.26,25.94-6.88,51.33-3.2,74.44,9.44,31.94,17.49,57,42.41,72,76.23C1750.24,190.75,1749.55,193.19,1749.55,200.5Z" transform="translate(-253.48 -99.88)"/><path d="M1705.77,407.63c-26.91,39.1-46,69.22-67.76,97.27-8.6,11.08-22.2,19.58-35.23,25.56-15.57,7.15-36.44-7-36.74-24.5-.21-12.24.76-26.67,7-36.49C1601.08,425,1642,404.44,1705.77,407.63Z" transform="translate(-253.48 -99.88)"/><path d="M2657.08,294.34c54.18,1.58,94.72,22.46,131.79,54.35,21.15,18.21,46.51,32.33,71.74,44.7,16.39,8.05,35.74,11.52,54.15,13.59,18.15,2,35.32-5.47,42.83-23,7.7-18,7-37.93-6.36-53.42-11.12-12.89-23.83-26.09-38.61-33.87-79.57-41.85-162.31-43.73-246.49-15C2663.85,282.45,2662.63,286.37,2657.08,294.34Z" transform="translate(-253.48 -99.88)"/><path d="M2605.88,200.5c7.75-4.56,12.62-7,17.07-10.11a101.41,101.41,0,0,1,62.83-18.51c12.22.41,24.63.69,36.67-1a176.44,176.44,0,0,0,35.27-9.07c13.2-4.73,18-16,17.61-29.27-.38-14.37-8.75-25.5-22.91-29.26-25.94-6.88-51.33-3.2-74.44,9.44C2646,130.23,2621,155.15,2606,189,2605.19,190.75,2605.88,193.19,2605.88,200.5Z" transform="translate(-253.48 -99.88)"/><path d="M2649.66,407.63c26.91,39.1,46,69.22,67.76,97.27,8.59,11.08,22.2,19.58,35.22,25.56,15.58,7.15,36.45-7,36.75-24.5.21-12.24-.76-26.67-7-36.49C2754.35,425,2713.4,404.44,2649.66,407.63Z" transform="translate(-253.48 -99.88)"/><path d="M1932.68,118.45h62.6a17.67,17.67,0,0,1,11.56,4,12.05,12.05,0,0,1,4.79,9.59v37.78a12,12,0,0,1-4.79,9.59,17.56,17.56,0,0,1-11.56,3.95h-47.94V498.56a15.1,15.1,0,0,1-4.23,10.71,13.69,13.69,0,0,1-10.43,4.51H1891a14,14,0,0,1-10.15-4.51,14.56,14.56,0,0,1-4.51-10.71V183.31h-45.68c-4.9,0-8.84-1.22-11.85-3.67a12,12,0,0,1-4.51-9.87V132a12.06,12.06,0,0,1,4.51-9.87c3-2.44,7-3.67,11.85-3.67h102.07Z" transform="translate(-253.48 -99.88)"/><path d="M2239.47,119.58h40.6a15.62,15.62,0,0,1,11,4.51q4.79,4.53,4.79,10.16V498.56a14.21,14.21,0,0,1-4.79,10.71,15.54,15.54,0,0,1-11,4.51h-40.6a15.52,15.52,0,0,1-11-4.51,14.18,14.18,0,0,1-4.79-10.71V341.78l-106.59.56V498.56a15.4,15.4,0,0,1-15.23,15.22h-41.73a14,14,0,0,1-10.15-4.51,14.6,14.6,0,0,1-4.51-10.71V134.25a15.47,15.47,0,0,1,14.66-14.67h41.73a15.14,15.14,0,0,1,10.72,4.23,13.77,13.77,0,0,1,4.51,10.44V273.54l106.59-.56V134.25q0-5.64,4.79-10.16A15.61,15.61,0,0,1,2239.47,119.58Z" transform="translate(-253.48 -99.88)"/><path d="M2526,187.26H2412v86.28h86.29a13.53,13.53,0,0,1,14.1,14.1v39.48a13.53,13.53,0,0,1-14.1,14.1H2412V443.85H2526a15.18,15.18,0,0,1,10.72,4.23,13.77,13.77,0,0,1,4.51,10.44v38.91A15.4,15.4,0,0,1,2526,512.66H2359.59a14.37,14.37,0,0,1-11-4.51,15.14,15.14,0,0,1-4.23-10.72V133.12a14.18,14.18,0,0,1,4.23-10.44,14.87,14.87,0,0,1,11-4.23H2526a15.18,15.18,0,0,1,10.72,4.23,13.77,13.77,0,0,1,4.51,10.44V172A15.4,15.4,0,0,1,2526,187.26Z" transform="translate(-253.48 -99.88)"/><path d="M887.46,1364.11c-.08.4-.16.86-.23,1.17-6.46,27.66-21.19,35.82-38.26,31.83-4.36-1-14.81-1.89-18.67-14.27-27.61-88.52-35.74-448.25-29.16-702.16,1.46-56.63-10-94.82,66.17-95.47,80.34-.69,63.6,56.14,64.39,117.45-2.43,54.74-14.86,266.53-26.22,436.43l1.29-3.32c26.9-68.84,55.63-123.3,83.81-164.76,51.37-75.58,99.94-105.58,137.61-108,106.47-6.76,101.83,131.92,33.9,198.39-32.25,31.56-79.5,53.43-119.51,72-31.84,14.74-57.87,24.64-57.7,25.63,7.3,39.15,26.21,97.42,58.38,139.35,20.51,26.73,29.13,38.27,60.32,39.6,23.59,1,55-13.49,91.65-55.45,32.49-37.16,67.64-94.51,103.37-179.2a23.85,23.85,0,1,1,44,18.52c-37.91,89.85-75.88,151.47-111.42,192.11-47.75,54.61-93,73.29-129.44,71.73-47.74-2-68-21.22-96.42-58.3-33.68-43.9-54.67-102.42-64.54-146.14-18.94,52.24-36.88,112.52-52.89,181.42C887.74,1363.15,887.6,1363.64,887.46,1364.11Zm77.47-244.22c215.66-152.5,148.8-267.32,65.13-122.14C1008.5,1029.47,986.4,1069.89,964.93,1119.89Z" transform="translate(-253.48 -99.88)"/><path d="M1422.47,889.67c0,.4-.65,6.94-1.58,16.9-3.6,38.75-29.93,280.41-21.17,379.57,7.24,82,60,28.23,88.16-9.51,48.28-64.8,91-155.51,97.85-179.78a23.9,23.9,0,1,1,46,12.91c-7.58,26.89-53.87,126-105.52,195.31-34.71,46.58-73.64,81.33-110.4,79.26-158.41-8.94-137.86-374.9-128-481,.5-5.33.87-9.28,1.39-16.16C1288.86,841.88,1422,847.63,1422.47,889.67Zm1.68-134.77a67.58,67.58,0,1,1-67.58-67.58A67.58,67.58,0,0,1,1424.15,754.9Z" transform="translate(-253.48 -99.88)"/><path d="M1693,755.67h109.06a24,24,0,0,1,0,47.9H1689.75c-14.82,212.78-38.19,529.18,30.34,528.49a97.88,97.88,0,0,0,15.33-.87c28.87-3.84,54.38-17.33,81.68-49.33,30.11-35.31,62-92,101.16-179.83a23.87,23.87,0,1,1,43.59,19.46c-41.15,92.24-75.29,152.53-108.46,191.43-36,42.21-71.1,60.21-111.8,65.6a143.46,143.46,0,0,1-22.63,1.25c-163.69-4.4-166.46-362.74-156.58-576.19H1459.3a24,24,0,0,1,0-47.9h105.59c1.91-32.57,3.84-59.59,5-78.37.65-12.47,1.29-18,1.9-24.89,5.15-57.58,128.55-69.71,126,16.14C1697,691.89,1695.29,721.69,1693,755.67Z" transform="translate(-253.48 -99.88)"/><path d="M2182.53,1066.07c29.61-39.13,40.75-85.42,14.47-121.61-91.71-126.25-354.13,468.43-26.87,380.45,89.65-29.63,159.66-108.11,221.13-232.17a23.88,23.88,0,1,1,42.83,21.14c-67.63,136.5-148.56,223.29-249,256.49-45.05,14.89-89.28,19.14-128.88,12.45-41.11-7-77.14-25.6-104.13-56.31-36.51-41.53-55.53-104.4-46.52-189.12a431.05,431.05,0,0,1,19.1-88.55c17.14-52,44.19-99.84,79-133.84,36.76-36,82-56.52,133.36-51a165.41,165.41,0,0,1,34.51,7.5,117.94,117.94,0,0,1,22.71,10.32c32.34,18.93,53.21,51.82,62.76,89.1a202.55,202.55,0,0,1-3.74,111.31c-34.54,104.78-110.19,59.57-97,21.12C2160.08,1092.15,2176.28,1074.34,2182.53,1066.07Z" transform="translate(-253.48 -99.88)"/><path d="M2543.77,950.48c47.08-84.3,93.88-103.25,139.75-84.16,117.1,48.74,81.34,326,110.29,421.77,6.46,21.34,11.43,25.57,19.33,22.89,14.46-4.89,32.56-36.59,43.82-55,31.45-51.47,61.47-114.27,75.81-151.81a23.92,23.92,0,0,1,44.71,17c-15.09,39.48-46.64,105.52-79.74,159.66-25.71,42.06-53.15,77.77-76.6,91.23-35.34,18.62-74.79,20.18-95.85,7.32-102.56-62.65-46.8-592.49-139.81-405.73-36.77,65.84-76.61,180.55-120.28,363.65-1.38,14.46-2.55,24.19-3.43,28-6.46,27.66-21.19,35.82-38.25,31.83-4.36-1-14.81-1.89-18.68-14.27-27.61-88.52-35.74-448.25-29.16-702.16,1.46-56.63-10-94.82,66.18-95.47,80.33-.69,63.6,56.14,64.38,117.45-2.22,50.18-12.85,232.31-23.36,393.19C2503.92,1033.16,2524.19,985.54,2543.77,950.48Z" transform="translate(-253.48 -99.88)"/><path d="M3170.75,1319.06c42.15-17.4,79.25-47.28,110.52-82.12,40.08-44.67,70.52-97.38,90-143a23.89,23.89,0,1,1,44,18.71c-21.19,49.59-54.45,107.07-98.43,156.08-35.7,39.78-78.53,74.08-127.92,94.48-40.78,16.83-88.75,24.23-132.84,16.17-39.34-7.2-75.59-26.45-101.42-61.79-16-21.92-27.1-48.07-33.64-76.6-6.73-29.38-8.71-61.34-6.38-93.74,10.82-150.66,87-234.82,165.28-267.88,32.36-13.66,65.28-18.63,94.48-16,31.08,2.79,58.39,14.16,77.32,32.9,26.79,26.52,36.63,65.87,17.4,114.55-15.66,39.64-55.9,80.25-102.42,116.55-50.83,39.69-110,74.91-151,97.2C3018.08,1308.29,3062.59,1364.84,3170.75,1319.06Zm56.59-375.12c-13.71-32.79-62.62-20.89-94.05,4.51-57.54,46.47-100.44,137.27-113.54,219.23,35.59-20.49,79-47.81,117.56-77.92,40.53-31.63,75.1-65.76,87.25-96.52C3232.47,973.23,3232.65,956.65,3227.34,943.94Z" transform="translate(-253.48 -99.88)"/><path d="M3600.63,870.39c37-12.6,70.56,10.28,96.76,87.26,8.72,25.62,14.05,77.72,20.08,136.69,1.36,13.35,4.25,96.69,18.15,162,19.08,89.64,48.71,73.86,87.11,11.77,23.16-37.44,49.93-92.88,80-173.17a23.85,23.85,0,1,1,44.71,16.64c-31.32,83.54-59.53,141.78-84.15,181.6-41.48,67-97.55,93.51-130.55,93.27-94.82-.69-133.2-221.87-135-333.66-1-62.79-.45-96.37-41.19-30.27-37.37,60.63-73,187.06-101.32,288.23-16.53,59.11-27.66,98.91-48.66,98.91-13,0-21-5.8-23.8-17.93a23.89,23.89,0,0,1-2.8-11.23l-27.87-390.16c-1.83-55.79,111.18-52.44,112.74-9.13l-17.06,184C3488.19,1034.74,3542.85,890.07,3600.63,870.39Z" transform="translate(-253.48 -99.88)"/><path style="fill-rule:evenodd;" d="M891,4019c36.73,36.74,92.87,24.82,139.46,13.56,33.94-8.2,111.91,57.94,214.93,166.38h139.11c-150.25-135.79-248.55-240.82-238.66-281.76,11.25-46.62,23.17-102.72-13.56-139.46l-63-63L565.39,3225.89c-51.91-51.91-51-53.44-117.63-82.86,30.43,61.2,35.55,64.69,84.19,113.33l497.83,497.83-28,28L505.42,3285.87c-51.91-51.91-54.76-49.68-121.41-79.09,30.44,61.19,31.81,68.43,80.45,117.07l497.83,497.83L935,3849,438.62,3352.66c-51.91-51.91-54.76-49.68-121.39-79.1,30.42,61.21,31.79,68.44,80.43,117.09L895.5,3888.48l-28,28L371.12,3420.16c-51.91-51.91-51-53.43-117.64-82.85,30.44,61.19,35.56,64.68,84.2,113.32L828,3956Z" transform="translate(-253.48 -99.88)"/><path style="fill-rule:evenodd;" d="M3464.42,4215.28c-36.73,36.73-92.87,24.82-139.46,13.56-33.94-8.2-111.91,57.94-214.94,166.38h-139.1c150.25-135.79,248.55-240.82,238.66-281.76-11.25-46.62-23.18-102.72,13.56-139.46l63-63L3790,3422.16c51.91-51.91,51-53.44,117.63-82.86-30.43,61.2-35.55,64.69-84.19,113.33l-497.83,497.83,28,28L3850,3482.14c51.91-51.91,54.76-49.69,121.41-79.1-30.44,61.19-31.81,68.44-80.45,117.08L3393.14,4018l27.32,27.32,496.35-496.34c51.9-51.91,54.76-49.68,121.39-79.1-30.42,61.21-31.8,68.44-80.44,117.08l-497.83,497.84,28,28,496.35-496.34c51.9-51.91,51-53.43,117.64-82.85-30.44,61.19-35.56,64.68-84.2,113.32l-490.3,505.36Z" transform="translate(-253.48 -99.88)"/><path d="M1913.46,2925.87c8.6-21.76,8.8-39.79,3-53.6-14.91-35.66-68.09-22.73-102.27,4.9-62.57,50.52-109.22,149.26-123.46,238.38,38.69-22.28,85.89-52,127.83-84.72C1862.66,2996.43,1900.25,2959.32,1913.46,2925.87Zm-217.68,721.69h-1.7a45,45,0,0,0-31.86,12.41q-13.26,12.41-13.25,31V3875.4q0,18.61,13.25,32.43t31.86,13.81h2.26q18,0,31-13.81a45.88,45.88,0,0,0,13-32.43V3691q0-18.61-13-31T1695.78,3647.56ZM3913.1,1862c-86.94-183.56-228.1-312.89-427.94-378.29-76.2-24.94-154-10-221.81-26.5-210.44-51.36-381.33,25-549.45,126.65-148.66,89.84-276.9,199.47-344.64,368.47-27.68,69.06-74.07,130.62-117.68,205.43-92.23-118.11-169.28-224.54-254.38-324.1-167-195.35-353.75-356-638.46-313.3C1274,1533,1188.65,1544,1105.09,1562.57c-162.21,36-298.09,121.07-370.92,270.8-96.76,198.9-168.85,406.52-143.8,637,12.63,116.15,30.41,227.33,62.16,341.5,60.33,216.94,166.79,403.95,299.46,579.06,142.07,187.5,309.49,352.44,492.47,499.35,267.13,214.47,539.42,422.53,810.73,631.75,56.91,43.89,117.35,39.84,176.81-8.82,287.22-235.08,583.17-459.31,834.83-736,286.12-314.57,551.62-638.09,676.85-1056.46C4031.16,2428.52,4045.48,2141.43,3913.1,1862ZM2647.7,2222.68a14.18,14.18,0,0,1,4.23-10.43,14.89,14.89,0,0,1,11-4.23H2829.3a15.14,15.14,0,0,1,10.71,4.23,13.73,13.73,0,0,1,4.51,10.43v38.91a15.4,15.4,0,0,1-15.22,15.23H2715.38v86.29h86.28a13.51,13.51,0,0,1,14.1,14.09v39.48a13.53,13.53,0,0,1-14.1,14.1h-86.28v102.64H2829.3a15.14,15.14,0,0,1,10.71,4.23,13.73,13.73,0,0,1,4.51,10.43V2587a15.4,15.4,0,0,1-15.22,15.23H2662.93a14.38,14.38,0,0,1-11-4.51,15.11,15.11,0,0,1-4.23-10.72Zm-298.89,1.13a15.49,15.49,0,0,1,14.67-14.66h41.73a15.14,15.14,0,0,1,10.71,4.23,13.74,13.74,0,0,1,4.52,10.43v139.3l106.58-.57V2223.81q0-5.62,4.8-10.15a15.54,15.54,0,0,1,11-4.51h40.61a15.6,15.6,0,0,1,11,4.51c3.18,3,4.79,6.4,4.79,10.15v364.31a14.29,14.29,0,0,1-4.79,10.72,15.6,15.6,0,0,1-11,4.51h-40.61a15.54,15.54,0,0,1-11-4.51,14.23,14.23,0,0,1-4.8-10.72V2431.34l-106.58.57v156.21a15.42,15.42,0,0,1-15.23,15.23h-41.73a14,14,0,0,1-10.15-4.51,14.61,14.61,0,0,1-4.52-10.72Zm-231.21-2.26a12,12,0,0,1,4.51-9.87q4.5-3.66,11.84-3.66h164.68a17.62,17.62,0,0,1,11.56,3.95,12,12,0,0,1,4.79,9.58v37.79a12,12,0,0,1-4.79,9.59,17.61,17.61,0,0,1-11.56,3.94h-47.94v315.25a15.14,15.14,0,0,1-4.23,10.72,13.73,13.73,0,0,1-10.43,4.51h-41.74a14,14,0,0,1-10.15-4.51,14.64,14.64,0,0,1-4.51-10.72V2272.87H2134c-4.89,0-8.84-1.21-11.84-3.66a12,12,0,0,1-4.51-9.87ZM1764,2500.15a18.94,18.94,0,0,1,5.36-13.54,17,17,0,0,1,12.69-5.64h40a3.24,3.24,0,0,0,2.26.57h1.12a21.11,21.11,0,0,1,8.46,6.76,15.73,15.73,0,0,1,3.39,9.59v5.64a38.75,38.75,0,0,0,7.61,23.4,35.7,35.7,0,0,0,20,13.82,40.83,40.83,0,0,0,11.84,1.69h1.7c3,0,4.69-.18,5.07-.56h.57a38.61,38.61,0,0,0,26.22-12.13,36.8,36.8,0,0,0,10.43-26.22l1.13-28.2q-.57-28.76-23.69-40-13.53-7.32-41.73-8.46l-10.71-1.13q-46.82-3.37-61.76-33t-14.94-71.9l.56-19.74.57-7.89q-1.14-37.79,25.37-62.6,27.63-27.63,72.75-26.51h17.49a96.38,96.38,0,0,1,37.78,7.61,100.27,100.27,0,0,1,32.15,21.72,94.63,94.63,0,0,1,21.43,33,109.12,109.12,0,0,1,7.33,39.76v.56a16.46,16.46,0,0,1-4.8,12.13,15.75,15.75,0,0,1-11.56,4.79h-38.91a15.71,15.71,0,0,1-10.43-5.08,15.1,15.1,0,0,1-4.23-10.71v-4a34.37,34.37,0,0,0-7.62-22,40.65,40.65,0,0,0-20-13.54,35.41,35.41,0,0,0-11.27-1.69h-4.52c-.37.38-1.32.56-2.82.56q-15.79,1.7-25.37,11.85t-9.59,24.81v32.71q1.69,16.37,14.66,22.84t42.86,7.61q49.62,0,74.44,28.77l24.82,28.76v53a228.28,228.28,0,0,1-4.23,44.83,110.09,110.09,0,0,1-17.2,40.32,103.33,103.33,0,0,1-36.94,34.12,98.24,98.24,0,0,1-47.65,12.13h-17.49a97,97,0,0,1-39.47-8.18,103.71,103.71,0,0,1-33.28-23.4,114,114,0,0,1-29.89-76.7Zm-129.14-275.78a15.14,15.14,0,0,1,4.23-10.71,13.72,13.72,0,0,1,10.44-4.51h41.73a13.14,13.14,0,0,1,9.87,4.51,15.14,15.14,0,0,1,4.23,10.71v364.88a15.14,15.14,0,0,1-4.23,10.72,13.14,13.14,0,0,1-9.87,4.51h-41.73a13.72,13.72,0,0,1-10.44-4.51,15.14,15.14,0,0,1-4.23-10.72Zm164.11,1708a113.54,113.54,0,0,1-39.48,40.6,98.76,98.76,0,0,1-53.57,15.23h-18.61a104.88,104.88,0,0,1-54.14-15,110.35,110.35,0,0,1-54.71-95.59V3692.11a107.1,107.1,0,0,1,54.14-94.18q24.24-14.08,54.14-14.09h18.61a107.83,107.83,0,0,1,54.14,14.09,106.13,106.13,0,0,1,39.48,38.92q14.08,24.26,14.1,54.7l.56,186.1A107.56,107.56,0,0,1,1799,3932.36Zm262.23-287.62q0,5.66-4.79,10.15a16.23,16.23,0,0,1-11.56,4.52H1930.38v86.28h87.41q6.76,0,10.71,3.95a13.75,13.75,0,0,1,4,10.15v39.48a12.14,12.14,0,0,1-4,9.3q-3.95,3.67-10.71,3.67h-87.41v156.21a13.14,13.14,0,0,1-4.52,9.87,15.14,15.14,0,0,1-10.71,4.23h-37.22a16.46,16.46,0,0,1-11.28-4,12.84,12.84,0,0,1-4.51-10.15V3604.7a12.31,12.31,0,0,1,4.51-9.59,16.55,16.55,0,0,1,11.28-3.94h166.93q7.32,0,11.84,3.94a12.31,12.31,0,0,1,4.51,9.59Zm310.17-4.51a12,12,0,0,1-4.79,9.59,17.62,17.62,0,0,1-11.56,3.95h-47.94V3969a15.11,15.11,0,0,1-4.23,10.72,13.73,13.73,0,0,1-10.43,4.51h-41.74a14,14,0,0,1-10.15-4.51A14.6,14.6,0,0,1,2236,3969V3653.77h-45.68q-7.33,0-11.84-3.67a12,12,0,0,1-4.51-9.87v-37.78a12,12,0,0,1,4.51-9.87q4.5-3.66,11.84-3.67H2355a17.62,17.62,0,0,1,11.56,4,12,12,0,0,1,4.79,9.59ZM2655.61,3969a14.23,14.23,0,0,1-4.8,10.72,15.56,15.56,0,0,1-11,4.51h-40.61a15.54,15.54,0,0,1-11-4.51,14.2,14.2,0,0,1-4.8-10.72V3812.24l-106.59.56V3969a15.4,15.4,0,0,1-15.22,15.23h-41.73a14,14,0,0,1-10.15-4.51,14.57,14.57,0,0,1-4.52-10.72V3604.7a15.49,15.49,0,0,1,14.67-14.66h41.73a15.14,15.14,0,0,1,10.71,4.23,13.73,13.73,0,0,1,4.51,10.43V3744l106.59-.57V3604.7q0-5.62,4.8-10.15a15.58,15.58,0,0,1,11-4.51h40.61a15.6,15.6,0,0,1,11,4.51c3.19,3,4.8,6.4,4.8,10.15Zm245.31-326.52a15.4,15.4,0,0,1-15.22,15.22H2771.78V3744h86.28a13.53,13.53,0,0,1,14.1,14.1v39.47a13.53,13.53,0,0,1-14.1,14.1h-86.28v102.64H2885.7a15.14,15.14,0,0,1,10.71,4.23,13.73,13.73,0,0,1,4.51,10.43v38.92a15.4,15.4,0,0,1-15.22,15.22H2719.33a14.35,14.35,0,0,1-11-4.51,15.1,15.1,0,0,1-4.23-10.71V3603.57a14.18,14.18,0,0,1,4.23-10.43,14.89,14.89,0,0,1,11-4.23H2885.7a15.14,15.14,0,0,1,10.71,4.23,13.73,13.73,0,0,1,4.51,10.43Zm772.45-577.16c-44.74,100.29-81.87,165.86-117.94,208.16-39.15,45.9-77.31,65.46-121.57,71.33a155.37,155.37,0,0,1-24.61,1.35c-123.66-3.32-162.86-192.45-171.66-385.43-11.09,7.11-20.93,13.19-26.75,16.75-101.25,61.86-192.79,24-227.41-22.93-33.61-45.54-18.33-107.49-67.17-49.51-17.35,20.59-34.46,51.95-53.33,99.81-48.43,122.88-86.67,276.14-94.66,329.68a26,26,0,0,1-16.13,20.41c-7.19,5.29-15.81,6.39-25.07,4.27-4.74-1.09-16.11-2-20.31-15.19-13.69-43-22.66-87.44-27.69-148.74-15,29.4-31.88,59.09-49.39,84-18.26,26-37.71,47.47-57.49,59.54-26.41,16.11-52.6,17.4-77.12-3.61-67-57.34-62.92-245.51-59.59-334.38-47.7,140.44-129.8,330.46-253.1,345.39a124.8,124.8,0,0,1-15.85.86c-38.24-.25-65-18.14-83.21-45.33-16.21-24.14-24.86-55.33-28.68-86.87a353.47,353.47,0,0,1-2.4-37.52,565.81,565.81,0,0,1-38.47,48c-38.82,43.25-85.39,80.55-139.09,102.73-44.34,18.3-96.51,26.34-144.45,17.58-42.78-7.83-82.2-28.76-110.29-67.18-15-20.52-26-44.47-33.31-70.52-27.52,50.09-59.47,89.55-90.15,114.29-21,16.95-42.17,27.7-61.93,31.17-112.15,18.44-102.13-161.63-103.67-242.36-.41-21.64-.86-44-1.35-66.85H1103.18c-11.48,136.33-27.29,254.38-27.94,286.75-.19,24.85-64.25,40.26-63.93-.9l-2-214.4q-.2-37.23-.48-71.46h-9.64a26,26,0,0,1,0-52.08h9.07c-1.85-137.08-6.34-232.82-19.3-288.11-44-187.58-122.84,6.69-56.22,2.68,14-2.86,49.08,67.87-6.85,79.27-19.43,4-37.12,2.32-52.82-3.71-18.18-7-33-19.54-44.18-35.58-10.42-14.92-17.73-32.87-21.68-52-6.2-29.94-4.21-63.42,7-92.55,9.1-23.69,25.5-44.49,45.29-60.22,20.62-16.39,45.26-27.66,69.47-31.34a120.71,120.71,0,0,1,16.95-1.24c128.17-1,159.52,106.78,166.17,203,5.77,83.43,2.05,183.93-4.85,279.8h221.14c-3.77-171.51-8.52-355-8.52-430.44,3.88-23.58,26-48.47,55.63-52.17,26.86-3.35,80.44,11.51,84.91,44.93,12,90.15-45.76,582-30.86,718.63,5.63,51.63,78.15-37.17,86.89-49.7,22.22-31.9,43-71.85,59.31-117.66.17-4.14.39-8.3.69-12.46,11.76-163.83,94.59-255.34,179.73-291.29,35.18-14.86,71-20.26,102.73-17.41,33.8,3,63.48,15.4,84.07,35.78,29.14,28.84,39.84,71.62,18.92,124.56-17,43.1-60.78,87.26-111.36,126.73-55.28,43.15-119.61,81.46-164.16,105.69,2.59,91.06,51,152.54,168.59,102.77,45.84-18.93,86.17-51.41,120.18-89.3,39.78-44.34,70.82-96,92.06-142.36,25.8-102,81.61-177.86,141.59-219.61,27.31-19,55.83-31.24,83.29-36,29.08-5.05,57.08-1.67,81.58,10.84,21.42,10.94,39.61,28.59,52.8,53.4,4.23-12,8.94-21.17,12.91-26.27a25.27,25.27,0,0,1,2.32-2.6c.66-.73,1.36-1.42,2.06-2.07,24-40.26,123.32-24.85,125.32,15.77,3.93,51.57-56.52,473.65-12.91,447,28.58-17.43,88.07-139.73,118.12-208.29-.7-55.15.14-121.17,2.3-202.51,1.59-60.26-10.92-100.9,72-101.6,87.35-.73,69.14,59.73,70,125-1,22.7-3.8,55.65-7.53,93.34,1.16-3,2.33-6,3.5-9,33.32-84.55,72.42-156.28,112.82-179.14,64-36.23,102.88,11.74,143,61.22,9.35,11.54,18.8,23.2,28.29,33,15.17,15.67,47.93,26.61,79.63,22.14,11.4-1.61,37.39-13.35,57.51-24.88-.95-63.49.79-125.25,3.26-178.66H3126.91a26,26,0,0,1,0-52.08h114.82c2.07-35.42,4.17-64.79,5.45-85.21.7-13.57,1.39-19.58,2.06-27.07,5.6-62.62,139.78-75.8,137,17.55-.77,25.37-2.67,57.77-5.13,94.72h118.59a26,26,0,0,1,0,52.09H3377.5c-16.12,231.37-41.54,575.42,33,574.66a105.53,105.53,0,0,0,16.68-.94c31.39-4.17,59.13-18.84,88.81-53.64,32.75-38.39,67.38-100,110-195.54a25.95,25.95,0,1,1,47.39,21.16ZM2226,3273.64c78.13-56.77,136.3-213.46,171.18-322.18v-.22C2378.33,2575.59,1990.86,3444.48,2226,3273.64Z" transform="translate(-253.48 -99.88)"/><path d="M1272.71,4337c4.32-26.32,29-54.08,62.07-58.21,30-3.75,89.76,12.84,94.74,50.12,13.45,100.6-51,649.45-34.43,801.85,6.29,57.61,87.2-41.47,97-55.46,36.86-52.92,70.19-125.68,88.83-210.31a29,29,0,1,1,56.74,12.48c-31.21,141.72-102.13,255.19-167.83,308.16-23.47,18.92-47.06,30.91-69.1,34.79C1275.55,5241,1286.72,5040,1285,4950c-.46-24.14-1-49.11-1.51-74.59H1030.93c-12.8,152.12-30.45,283.83-31.16,320-.22,27.72-71.7,44.91-71.34-1l-2.21-239.23q-.21-41.53-.53-79.73H914.92a29.06,29.06,0,0,1,0-58.11h10.13c-2.06-153-7.07-259.78-21.53-321.47-49.07-209.31-137.07,7.46-62.74,3,15.64-3.18,54.76,75.73-7.64,88.45-21.68,4.49-41.42,2.59-58.94-4.13-20.28-7.79-36.79-21.81-49.29-39.7-11.63-16.65-19.78-36.68-24.19-58-6.92-33.4-4.7-70.76,7.79-103.27,10.16-26.43,28.45-49.64,50.54-67.2,23-18.28,50.49-30.85,77.51-34.95a133.6,133.6,0,0,1,18.91-1.4c143-1.17,178,119.15,185.42,226.46,6.43,93.1,2.28,205.23-5.43,312.21h246.76c-4.21-191.37-9.51-396.16-9.51-480.28Z" transform="translate(-253.48 -99.88)"/><path d="M1981.52,5022.1c68.34-16,134.51-98.66,171.43-157.21a29,29,0,1,1,49,30.87c-49.62,77.95-113.54,156.08-207.29,182.86a264,264,0,0,1-45.48,6.57,285,285,0,0,1-38.37,59.09c-33.56,39.57-76.65,66.44-123.15,71.82-28.14,3.26-53.7.21-76.75-8-46.55-16.49-81.27-53.09-105.77-100.23-23-44.21-37-98.08-43.33-152.75-9.35-80.73-1.85-164.45,18.42-221.67,10.29-24.06,37.17-30.82,63.93-27.84a215.56,215.56,0,0,1,8.41-24.14c11.94-28.58,29.58-52.29,51.75-68.47a117.36,117.36,0,0,1,82.27-22.5c32.87,3.2,68.71,19.36,105.48,52.13,39.39,35.11,66,88.66,80.08,150.44,14.43,63.25,15.86,135.79,4.51,205.74-1.37,8.54-3.12,17-5.21,25.34Q1976.51,5023.26,1981.52,5022.1Zm-275.35-318.36a163.29,163.29,0,0,0-7.6,23c10.92,9,16.11,19.68,10.69,29.9-5.54,19-9.38,43.41-11.38,70.61.44,2.11.91,4.24,1.4,6.36a250.14,250.14,0,0,0,10.46,33.84,257.31,257.31,0,0,0,110.71,128.95,231.47,231.47,0,0,0,90.23,29.94,249.48,249.48,0,0,0,8.82-36.56C1945.28,4834.4,1776.56,4535.17,1706.17,4703.74Zm85.46,342.81a315,315,0,0,1-88.26-75.85c17.55,118.73,68.62,217.57,163.21,136.13a218.32,218.32,0,0,0,18.69-25.66A293,293,0,0,1,1791.63,5046.55Z" transform="translate(-253.48 -99.88)"/><path d="M2320.41,4688c14.26-29.31,35.15-66.29,60.15-84.22,36.64-26.26,74.71-23.36,105.28,49.27,24.08,57.2,34.54,149.51,41.25,208.65l1.34,11.74h0c6.37,55.42,7,77.05,8.6,119.76,1,25.64,5.4,29.87,8.56,23.12,45.8-97.65,90-228.23,125.64-313,60.73-144.35,165.25-74.11,178.84,48.43l2.66,24.34c7.89,72.39-2,442.7,98.64,310.3,54.52-71.76,105.16-172.68,119.48-218.29a29,29,0,1,1,55.37,17.25c-15.59,49.68-70.24,159-128.78,236-44.67,58.8-94.24,100.54-138.6,92.44-126-29.34-137.49-288.43-141.35-390.64-4.19-111.12-113,327.29-210.15,383.66-7.78,4.52-19.31,4-26.84,3.21-101-11.12-71.5-581.73-121.22-467.8-70.21,160.88-143.63,450.38-150.06,475.94a29.06,29.06,0,0,1-57.67-5.07l-33.82-473.37c-2.22-67.7,134.89-63.63,136.77-11.08l-16.35,176.69C2263.89,4825.17,2292.66,4745.09,2320.41,4688Z" transform="translate(-253.48 -99.88)"/><path d="M3359.62,5138.54c51.14-21.11,96.15-57.37,134.09-99.64,48.63-54.2,85.56-118.15,109.21-173.5a29,29,0,0,1,53.34,22.69c-25.72,60.17-66.07,129.91-119.43,189.38-43.32,48.27-95.28,89.88-155.2,114.63-49.48,20.42-107.68,29.39-161.17,19.62-47.74-8.74-91.72-32.09-123.06-75-19.44-26.59-32.88-58.32-40.81-92.93-8.17-35.65-10.57-74.43-7.74-113.74,13.12-182.8,105.53-284.91,200.53-325,39.25-16.57,79.21-22.6,114.63-19.42,37.71,3.39,70.84,17.19,93.81,39.92,32.51,32.18,44.45,79.92,21.11,139-19,48.09-67.82,97.37-124.26,141.41-61.68,48.15-133.45,90.89-183.17,117.92C3174.39,5125.47,3228.39,5194.08,3359.62,5138.54Zm68.66-455.13c-16.64-39.79-76-25.36-114.11,5.46-69.81,56.38-121.87,166.55-137.76,266,43.18-24.87,95.84-58,142.63-94.54,49.18-38.39,91.12-79.79,105.87-117.12C3434.5,4718.94,3434.72,4698.82,3428.28,4683.41Z" transform="translate(-253.48 -99.88)"/></svg>


