<svg xmlns="http://www.w3.org/2000/svg" viewBox="0 0 4208.37 4565.42" width="500" height="500"><path style="fill-rule:evenodd;" d="M3552,4625.91c-53.73,20.83-54.08,23.67-112.15,23.67H2884.64v31.34h556.9c54.41,0,59.22-.91,110.48,16.3-53.73,20.81-54.08,19.45-112.15,19.45l-555.23,8.42h-70.5c-41.1,0-65.81-38.05-85.59-70.42-60.65-99.3-1296.62,102.34-1574.15,58.56-241.15-38-240.48-208.29,0-246.21,277.54-43.76,1513.48,157.9,1574.15,58.58,19.76-32.35,44.5-70.42,85.59-70.42h70.5l556.9,8.42c54.41,0,59.22-.91,110.48,16.29-53.73,20.82-54.08,19.46-112.15,19.46H2884.64v31.35h556.9c54.41,0,59.22,3.28,110.48,20.5-53.73,20.82-54.08,23.66-112.15,23.66H2884.64v30.56h556.9C3496,4605.42,3500.76,4608.71,3552,4625.91Z" transform="translate(-124.35 -159.67)"/><path d="M542.46,3715.71c-70.31,2.05-122.92,29.14-171,70.53-27.46,23.62-60.37,41.94-93.1,58-21.27,10.43-46.38,14.94-70.27,17.63-23.55,2.65-45.85-7.09-55.59-29.84-10-23.32-9.07-49.22,8.26-69.32,14.43-16.73,30.92-33.86,50.11-43.95,103.25-54.31,210.62-56.76,319.87-19.5C533.68,3700.28,535.25,3705.36,542.46,3715.71Z" transform="translate(-124.35 -159.67)"/><path d="M608.9,3593.93c-10-5.92-16.37-9.12-22.15-13.13a131.6,131.6,0,0,0-81.54-24c-15.85.53-31.95.89-47.59-1.27s-31-6.47-45.77-11.77c-17.12-6.14-23.3-20.73-22.85-38,.49-18.65,11.36-33.1,29.74-38,33.66-8.92,66.6-4.16,96.59,12.26,41.46,22.68,73.91,55,93.44,98.92C609.8,3581.28,608.9,3584.45,608.9,3593.93Z" transform="translate(-124.35 -159.67)"/><path d="M552.09,3862.72c-34.92,50.74-59.69,89.83-87.94,126.23-11.15,14.38-28.81,25.42-45.71,33.17-20.21,9.28-47.29-9.09-47.68-31.8-.27-15.88,1-34.61,9-47.35C416.23,3885.25,469.38,3858.59,552.09,3862.72Z" transform="translate(-124.35 -159.67)"/><path d="M3717.74,3715.71c70.32,2.05,122.92,29.14,171,70.53,27.46,23.62,60.37,41.94,93.1,58,21.28,10.43,46.38,14.94,70.28,17.63,23.55,2.65,45.84-7.09,55.58-29.84,10-23.32,9.08-49.22-8.26-69.32-14.43-16.73-30.92-33.86-50.1-43.95-103.26-54.31-210.63-56.76-319.87-19.5C3726.52,3700.28,3725,3705.36,3717.74,3715.71Z" transform="translate(-124.35 -159.67)"/><path d="M3651.3,3593.93c10-5.92,16.38-9.12,22.15-13.13a131.62,131.62,0,0,1,81.54-24c15.85.53,32,.89,47.59-1.27s31-6.47,45.77-11.77c17.12-6.14,23.3-20.73,22.85-38-.49-18.65-11.35-33.1-29.74-38-33.66-8.92-66.6-4.16-96.59,12.26-41.46,22.68-73.9,55-93.44,98.92C3650.4,3581.28,3651.3,3584.45,3651.3,3593.93Z" transform="translate(-124.35 -159.67)"/><path d="M3708.11,3862.72c34.92,50.74,59.7,89.83,87.94,126.23,11.15,14.38,28.81,25.42,45.71,33.17,20.22,9.28,47.3-9.09,47.68-31.8.28-15.88-1-34.61-9-47.35C3844,3885.25,3790.83,3858.59,3708.11,3862.72Z" transform="translate(-124.35 -159.67)"/><path d="M248.66,920.83q-10,0-14.79-1.9-7.16-2.4-11.44-10.5-7.63-13.83-15.74-77.26Q189,689.06,189,515q0-110.64,11.45-196,5.73-40.07,10-49.12,5.73-9.54,17.89-18.6T251,239.33q10.48-2.87,26.71-2.86,31.47,0,86.32,8.58,63,8.12,62.95,26.23,0,12.87-26.7,12.88-11.44,0-40.54-4.3-44.83-5.72-49.6-5.72-4.29,0-5.72,8.11-1.92,11.44-3.82,48.17-3.34,55.8-3.34,83l30.05,1.43q51.51,1.91,51.5,21,0,5.73-8.82,9.07t-37,4.76q-36.72,2.4-38.63,4.3Q293,457.27,293,496.38q0,104.45,3.82,173.12,4.76,92.54,21.93,224.15-13.35,11.91-21.46,17.17Q282,920.84,248.66,920.83Z" transform="translate(-124.35 -159.67)"/><path d="M653.08,938a75.27,75.27,0,0,1-35.77-8.58q-11-5.73-11-11.45,0-8.12,10-53.41l1.9-9.06-30.52-8.11q-93-22.89-141.16-71.54-31.49-30-31.48-63,4.29-63.42,51.51-87.75,19.54-9.54,48.64-9.54,69.15,0,118.28,46.74l16.69,16.21Q673.58,544.07,673.59,453q0-43.87-6.2-72-9.55-45.3-25.28-64.38l-7.63-9.06-16.69,8.58q-62,34.33-106.83,134-24.81,57.72-28.62,90.61-1.43,14.79-5.48,17.89t-15,3.1a85.84,85.84,0,0,1-16.69-1.91Q429.4,556,420.82,549.32q-11-8.58-11-28.14,0-23.35,16.7-73.92Q473.76,312.77,551,270.33q11.91-6.19,21-8.11,12.88-2.87,36.73-2.86,16.68,0,36.24,6.67,56.26,18.6,84.42,64.39,21.45,31.47,28.37,64.62T764.68,474a956.92,956.92,0,0,1-7.16,118.75q-6.19,47.21-23.84,140.21-14.79,82.52-14.79,87.75,0,.48.24.48t5,1.67q4.75,1.68,11.44,3.58,29.08,9.54,29.1,22.41,0,13.84-35.77,16.69l-21.46,1.43q-11,43.88-15.26,53.42Q685,935.62,665,937.05ZM615.4,810.19q2.86-1.43,2.86-7.63a50.58,50.58,0,0,0-1-8.58,276.53,276.53,0,0,0-17.88-69.4q-13.12-32.19-30.29-49.83-12.4-12.4-17.17-12.4-13.35,0-28.13,14.78-18.6,19.08-18.6,48.65,0,48.16,84.41,77.73,18.6,6.69,24.32,6.68Z" transform="translate(-124.35 -159.67)"/><path d="M894.4,943.73q-20,0-27.66-10.5a128.13,128.13,0,0,1-7.63-11.92q-11-20-19.8-83.22T819,625.15q-6.19-87.27-6.2-171.69,0-130.66,12.88-203.16,9.06-45.8,18.12-50.08,17.64-8.1,55.8-8.11,26.72,0,61.52,7.63,70.11,15.75,130.2,65.34,41,33.87,63.91,71.54,30.51,53.89,32.43,90.85t1.91,45.07q0,55.8-21.47,102.06-47.21,88.23-146.88,157.85-19.08,13.37-19.08,14.79t19.08,3.81q27.65,2.87,69.62,9.06,51,7.15,62,13.83,25.75,15.27,25.76,31.48,0,11.45-11.93,11.45-15.27,0-161.67-19.08-49.12-7.62-57.23-7.63c-.64,0-.95,1-.95,2.86q0,8.58,2.38,27.19,2.38,38.63,2.39,100.62l-10,8.11Q922.05,943.71,894.4,943.73Zm45.3-246.09q2.87,0,38.16-25.75a444.83,444.83,0,0,0,93-93q24.8-32.43,35.3-56.75,16.2-37.68,16.21-91.57,0-47.22-17.17-85.85-32.91-71.54-120.66-93.47-25.75-6.19-59.61-6.2-4.29,36.26-4.29,85.37,0,133.05,11.44,284.71Q937.8,691,937.8,694.3C937.8,696.53,938.43,697.64,939.7,697.64Z" transform="translate(-124.35 -159.67)"/><path d="M1772.87,943.25q-58.2,0-82-83.46-9.54-32.91-9.54-83.46,1.9-106.35,27.18-233.21,35.3-178.36,35.3-240.84,0-12.88-3.82-34.82L1730,277q-32.91,32-69.63,104.92-22.42,44.35-35.29,79.41T1602.61,546q-9.54,49.6-22.41,138.31-11,76.79-13.36,83.93-2.38,10.5-29.09,10.49-46.26,0-50.07-37.67-1.92-19.56-3.82-92-1.9-60.09-5.48-97.29t-15.5-103l-7.16,10.49q-14.79,22.89-35.29,83a1384.89,1384.89,0,0,0-50.08,192.19q-20.5,102.54-20.5,119.71,0,10-12.88,18.6A78.26,78.26,0,0,1,1292.62,886a60.48,60.48,0,0,1-17.17-2.39q-10.5-2.37-16.69-16.45t-11-49.12Q1243,783,1237.3,717.19q-11.92-137.34-11.93-247.51,0-88.71,7.63-159.29,4.77-46.74,10-56.76,8.1-15.25,33.86-15.26,30,0,45.78,16.22l7.63,9.06q-1.9,163.59-1.9,189.33,0,83,2.38,128.77l8.11-26.23q23.83-78.21,44.83-114.94,24.8-42.91,60.57-46.73a126.46,126.46,0,0,1,22.41,1.9q52.93,8.6,68.2,52,7.15,18.12,9.06,18.12c.63,0,1-1.11,1-3.34q0-5.24,12.88-36.72t29.57-65.34q25.28-52.45,53.89-89.9t51.51-47.93a77.6,77.6,0,0,1,28.61-5.24q40.53,0,72,26t32.43,61.05q.95,35,1,39.82,0,66.28-24.8,196.48-28.62,150.72-30.52,241.8,0,74.4,20.5,111.12,3.35,6.2,11.93,6.2A42.83,42.83,0,0,0,1817.7,897h2.38q8.12,0,8.11,11.92a62.67,62.67,0,0,1-1,10q-2.87,12.39-28.14,20.5A85.81,85.81,0,0,1,1772.87,943.25Z" transform="translate(-124.35 -159.67)"/><path d="M2315.32,505.29h-1a26.05,26.05,0,0,0-18.44,7.18,23.57,23.57,0,0,0-7.66,17.95v106.7a26.21,26.21,0,0,0,7.66,18.76,24.61,24.61,0,0,0,18.44,8h1.31a23.72,23.72,0,0,0,17.94-8,26.52,26.52,0,0,0,7.51-18.76V530.42a23.84,23.84,0,0,0-7.51-17.95A25.47,25.47,0,0,0,2315.32,505.29Zm249.55-148c-4.3-77.34-58-122.86-134.61-115.51-57.09,5.47-100.74,34.6-137.3,76.49-26.72,30.6-45.3,66.54-67.33,106.35-60.55-49-114.61-100.5-185.68-126.58-88.5-32.49-138.52,11.81-128,104.89,34.17,303.53,373.16,516.5,402.79,489.6,17.54-15.92,171.61-306.36,225-413.06A240.06,240.06,0,0,0,2564.87,357.3Zm-335,143.75a7,7,0,0,1-2.78,5.55,10.17,10.17,0,0,1-6.68,2.28h-27.74V691.29a8.77,8.77,0,0,1-2.45,6.2,7.94,7.94,0,0,1-6,2.61H2160a8.12,8.12,0,0,1-5.88-2.61,8.48,8.48,0,0,1-2.61-6.2V508.88h-26.43a10.48,10.48,0,0,1-6.85-2.12,7,7,0,0,1-2.61-5.71V479.19a7,7,0,0,1,2.61-5.71,10.49,10.49,0,0,1,6.85-2.13h95.29a10.18,10.18,0,0,1,6.68,2.29,7,7,0,0,1,2.78,5.55Zm145.2,169a65.67,65.67,0,0,1-22.84,23.49,57.07,57.07,0,0,1-31,8.81h-10.77a60.76,60.76,0,0,1-31.32-8.64,63.85,63.85,0,0,1-31.65-55.31V531.07a62,62,0,0,1,31.32-54.49,61.17,61.17,0,0,1,31.33-8.16h10.77a62.32,62.32,0,0,1,31.32,8.16,60.65,60.65,0,0,1,31,54.16l.33,107.69A62.17,62.17,0,0,1,2375,670.08Z" transform="translate(-124.35 -159.67)"/><path d="M3176.94,208.71a5.34,5.34,0,0,1-4.72,5,36.4,36.4,0,0,1-20.5-.65,144,144,0,0,0-46.53-6.24c-52.9-.09-105.69,2.78-158.45,6.08-25.75,1.62-51.53,3-77.28,4.64-6.3.37-7.92,1.63-8.58,7.57q-2.61,23.43-4.55,46.93c-2.64,32-5.5,63.94-7.47,95.94-4,65.3-7.45,130.66-9,216.67-.26,29.78-.86,80.11-1,130.44,0,15.71,1.22,31.42,1.53,47.13.22,11.21-3,14.47-14.09,15.42a74.49,74.49,0,0,1-9.45,0,18.6,18.6,0,0,1-17.7-11.87,158.74,158.74,0,0,1-7-19.47,656.89,656.89,0,0,1-15.74-79.45,1687.84,1687.84,0,0,1-13.23-201.33,1167.39,1167.39,0,0,1,6.28-147,44,44,0,0,0-.15-16.81,304.79,304.79,0,0,0-29.55-73.16,14.77,14.77,0,0,0-11.73-8c-11.17-1.67-22.26-4-33.28-6.53a94.48,94.48,0,0,1-27.77-11.47,46.46,46.46,0,0,1-15.3-13.78,15.13,15.13,0,0,1,6.83-24.72,60.55,60.55,0,0,1,44.2-.42,85.47,85.47,0,0,1,41.73,28.07,28.07,28.07,0,0,0,27.73,11.21,14.07,14.07,0,0,1,3.78,0,14.27,14.27,0,0,0,18.8-12.65,20,20,0,0,1,15.46-15,65.45,65.45,0,0,1,42.53.29,15.39,15.39,0,0,1,11.91,15c.35,6.42,2.2,7.33,8.31,6.95q83.89-5.21,167.93-6.24,40.62-.51,81.22.49a183.62,183.62,0,0,1,31.77,4,126.12,126.12,0,0,1,19.4,7.09A5.71,5.71,0,0,1,3176.94,208.71Zm-462.81-11A62,62,0,0,0,2686.86,178a3.63,3.63,0,0,0-3.22.36c-1.48,1.52-.89,3.21.41,4.73A47.16,47.16,0,0,0,2714.13,197.73Zm70,29.43c.36-3.84-2.15-5.43-5.79-5.17-2.88.2-6-.87-9.45,2.49,2.88,5.94,6,12.2,9.5,19.36A24.36,24.36,0,0,0,2784.17,227.16Z" transform="translate(-124.35 -159.67)"/><path d="M3369.73,562.92a5.8,5.8,0,0,1,1.16,4.44,40.21,40.21,0,0,1-1.88,9.2c-16.28,49.49-31.63,99.24-49,148.39C3301,779,3258.47,928.41,3174.58,866.37a112.5,112.5,0,0,1-30.95-37.6,216,216,0,0,1-21.6-60.12,587,587,0,0,1-9.87-172.72c1.5-17,3.42-34,5.58-51,.64-4.79,11-55.78-3.14-45.43a17,17,0,0,0-4.73,5.67c-2.63,5-5.06,10.11-7.36,15.29a641.83,641.83,0,0,0-30.64,91c-9.74,35.53-31.58,165.56-95.21,113.58a70.86,70.86,0,0,1-18.07-23.92,144.93,144.93,0,0,1-13.52-45,254.49,254.49,0,0,1,22.35-152.53,137.84,137.84,0,0,1,35.18-46.31,96.92,96.92,0,0,1,89.91-21.34,201.73,201.73,0,0,1,19.69,7.49c11.19-14.85,26.85-17.26,44-15.26a33.42,33.42,0,0,1,30.92,26.14,128.08,128.08,0,0,1,3.78,37.41c-.57,22.64-1.5,45.29-2.93,67.9-2.82,44.3-5.45,88.6-6.26,133a577,577,0,0,0,3.89,101.69c2.59,16.26,9.74,64.66,32.9,65.42,21.29.68,35.37-43.59,42.54-58.86a1266,1266,0,0,0,52.74-135.16q15.25-45.57,30.47-91.16c.6-1.78,1.25-3.56,1.72-5.38a11.33,11.33,0,0,1,12.28-9.29,41.83,41.83,0,0,1,7.48.79A5.86,5.86,0,0,1,3369.73,562.92ZM3080.8,470.59c-9.54-10.58-10.79-10.72-21.44-2.21a150.44,150.44,0,0,0-39.61,52.22,294,294,0,0,0-29.9,129.33,170.77,170.77,0,0,0,3.77,35.58,43.43,43.43,0,0,0,12.2,25.87,57.5,57.5,0,0,0,10-19.75c5-14.88,10.08-29.74,14.58-44.78,7.56-25.27,14.68-50.67,22-76a441,441,0,0,1,31.42-80.66C3089.17,479.71,3088.75,479.4,3080.8,470.59Z" transform="translate(-124.35 -159.67)"/><path d="M3813.32,579.15a5.86,5.86,0,0,1-3.28,3.9,30.49,30.49,0,0,1-16.75.66c-42.28-7-82.47,2.9-122.29,15.34-8.24,2.56-8.75,3.89-8,12.28.91,10,2.43,20,2.94,30a419.34,419.34,0,0,1-16.45,124.76,414.66,414.66,0,0,1-40.65,101.14,289.37,289.37,0,0,1-52.45,68.8c-29.37,28-72.09,48.17-113.06,36.94A54.89,54.89,0,0,1,3402,928.76a152.33,152.33,0,0,1,1.57-63.66A307.58,307.58,0,0,1,3425.42,799c2-4.57,4.23-9.08,6.31-13.54-1.15-1-2-2.3-3-2.47a52.24,52.24,0,0,1-35.09-26.35,300.41,300.41,0,0,1-36.45-80.41,598.76,598.76,0,0,1-23.8-216.33A377.49,377.49,0,0,1,3371.61,317c15.24-30.7,37.48-61,69.2-76.06,24.19-11.47,59.9-14.42,81.64,3.94,34.73,29.29,10.8,89-.49,123.81a519.35,519.35,0,0,1-82.9,158.36c-3,3.83-6,7.65-9.14,11.42a20,20,0,0,0-6,13.24,968.08,968.08,0,0,0,6,101.7,10.09,10.09,0,0,0,4.24,8.51c4.37-18.22,8.51-36.45,13.24-54.51,10.91-41.5,31-97.57,71.68-118.75a88.21,88.21,0,0,1,79.52.2c28.8,14.47,43.32,42.15,53.29,71.55a84.74,84.74,0,0,0,7.55,23,17.86,17.86,0,0,0,12.68-1.67,295.31,295.31,0,0,1,115.45-13.68,49.66,49.66,0,0,1,23.34,6.39A6,6,0,0,1,3813.32,579.15Zm-388.67-90.43a16.49,16.49,0,0,0,8.58-9.52,681.84,681.84,0,0,0,38.52-81.44A321.37,321.37,0,0,0,3490.86,333a122.15,122.15,0,0,0,.54-46.09c-8.05-35.38-33.46,27.29-36.7,36.32C3435.68,376.27,3429.46,431.59,3424.65,488.72Zm143,178.63c.08-1.76.4-3.63-1.52-4.85-3-.9-4.57,1.32-6.46,2.89a381.59,381.59,0,0,0-77.07,87.49,302.26,302.26,0,0,0-45.17,117,122.68,122.68,0,0,0,2,52.39,50.31,50.31,0,0,0,18.9,28.86c13.25,7.31,26.22-9.61,33.64-18.89a221.57,221.57,0,0,0,29.81-52.27,610.49,610.49,0,0,0,45.91-212.63Zm-6.26-29.84a15.3,15.3,0,0,0,7.41-14,319.36,319.36,0,0,0-4.93-63.86,119.16,119.16,0,0,0-17.41-48.12c-3.58,2.53-6.78,4.42-9.55,6.81-27.47,23.63-43.86,61.82-55.11,95.47a427.57,427.57,0,0,0-20.26,118.06,19.33,19.33,0,0,0,10-8.66,442.7,442.7,0,0,1,35.13-39.46,428.54,428.54,0,0,1,54.7-46.31Z" transform="translate(-124.35 -159.67)"/><path d="M4070.39,591.47c-12.69,37-25.44,75.36-40.29,112.09-14.72,36.42-30.55,75.12-56.52,105.11a68.21,68.21,0,0,1-39.37,26.87,79.41,79.41,0,0,1-55.39-9,114.62,114.62,0,0,1-28.47-24.52,227.23,227.23,0,0,1-31.59-49,440.65,440.65,0,0,1-37.36-124c-19.22-119.29-3.47-259,64.58-361.58a279.45,279.45,0,0,1,42.78-50.74,141.56,141.56,0,0,1,40.64-27,104.6,104.6,0,0,1,62.81-6.44c37.64,7.53,46.93,44.27,46.78,77.85a275.44,275.44,0,0,1-18,90.16A403.1,403.1,0,0,1,3888.25,537.7a24.18,24.18,0,0,0-10.4,18.6,713.62,713.62,0,0,0-1.08,83,647.91,647.91,0,0,0,10.4,105,182.09,182.09,0,0,0,16,54.1c24,42.19,60.3-17.7,72.16-38.76,30.29-53.73,49.28-112.8,69.21-170.93A36.58,36.58,0,0,1,4053,573a12.63,12.63,0,0,1,16.32-1.49C4074.59,576.29,4072.73,584.8,4070.39,591.47ZM3944.54,251.25a682.6,682.6,0,0,0-61,250.38,6.13,6.13,0,0,0,1.16,4.72,2.64,2.64,0,0,0,.58.41c1.93,1,4.11-.7,5.6-2.26A474.91,474.91,0,0,0,3976.11,388a245.54,245.54,0,0,0,25.74-140.44,62.33,62.33,0,0,0-6.33-21.81c-18.06-32.41-42.63,7.33-50.95,25.52Z" transform="translate(-124.35 -159.67)"/><path d="M4331.78,581.83C4316.65,622.6,4299.39,662.3,4271,696a177.66,177.66,0,0,1-47.11,40.23,112.49,112.49,0,0,1-137.62-15.34,167.3,167.3,0,0,1-52.93-124.84,140.57,140.57,0,0,1,62.18-120.56,107.68,107.68,0,0,1,93.3-16.91,55.51,55.51,0,0,1,15.3,7,34.33,34.33,0,0,1,16.12,26.46,66,66,0,0,1,.5,7.56,105,105,0,0,1-72.68,93.65,172.6,172.6,0,0,1-24.3,2.83,6,6,0,0,0-6.12,5.81,200.89,200.89,0,0,0,10.79,89,93.46,93.46,0,0,0,17.81,28.65,34.28,34.28,0,0,0,39.13,10.76,150.66,150.66,0,0,0,51.76-30.17,192.56,192.56,0,0,0,42.6-57.12,644.74,644.74,0,0,0,29.3-65.22,11.61,11.61,0,0,1,14.18-9C4330.92,569.59,4334.59,574.52,4331.78,581.83Zm-170.87-87.5a168.7,168.7,0,0,0-39.34,79.77c-.8,3.44,2.15,5.82,5.67,5,26.57-6.46,51.1-39,50.87-68.21a32.38,32.38,0,0,0-5.17-19,4.84,4.84,0,0,0-7.83-1.34,41.05,41.05,0,0,0-4.23,3.78Z" transform="translate(-124.35 -159.67)"/><path d="M924.63,4238.41q-87,0-101-60.45a8.16,8.16,0,0,1-.74-3.68Q787.49,4015,761,3699.47q-12.54-157-12.53-359.07,0-58.23,3-75.19,2.22-20.65,18-29.87t59.73-16.57a563.11,563.11,0,0,1,93.26-7.39q53.08,0,87.74,4.43,293.43,45.72,356.11,336.19,3.66,21.4,3.68,55.31,0,74.46-11.06,126.07-31.71,140.09-122.38,279.42-30.24,44.25-82.59,95.87t-97.31,81.82q-70,47.19-118.7,47.19Zm40.55-115.75q6.63,0,43.5-35.38,42-39.83,82.57-99.55,83.3-120.15,115-241.81,24.32-85.52,24.34-159.27,0-99.51-43.5-178.4-61.95-123.87-185-129.76l-39.82-.74q-54.56,0-59.72,7.36-.75,5.19-.74,20.64,0,91.44,23.59,409.21,11.8,157.78,23.6,263.93,15.48,135.69,15.49,143A.64.64,0,0,0,965.18,4122.66Z" transform="translate(-124.35 -159.67)"/><path d="M1792.91,4253.9q-30.23,0-55.29-13.27-17-8.86-17-17.69,0-12.54,15.49-82.59l2.93-14-47.18-12.54q-143.78-35.38-218.23-110.6Q1425,3956.78,1425,3905.9q6.62-98,79.62-135.65,30.24-14.73,75.21-14.75,106.89,0,182.84,72.25l25.8,25.07q36.12-207.9,36.13-348.74,0-67.82-9.58-111.32-14.76-70-39.08-99.54l-11.8-14-25.81,13.27q-95.83,53.11-165.15,207.19-38.32,89.22-44.23,140.08-2.22,22.88-8.49,27.65t-23.21,4.78a133.33,133.33,0,0,1-25.8-2.95q-24.35-5.86-37.61-16.21-16.95-13.26-16.95-43.51,0-36.11,25.81-114.27,73-207.91,192.42-273.54,18.43-9.59,32.44-12.53,19.9-4.41,56.78-4.42,25.79,0,56,10.32,87,28.75,130.5,99.53,33.18,48.68,43.86,99.91t10.69,122a1479.82,1479.82,0,0,1-11.06,183.58q-9.57,73-36.86,216.76-22.87,127.56-22.86,135.66c0,.49.11.73.37.73s2.83.87,7.74,2.59,10.82,3.56,17.7,5.52q45,14.76,45,34.67,0,21.38-55.29,25.79L1877,4144q-17,67.81-23.6,82.58-11.07,23.6-42,25.81Zm-58.24-197.58q4.41-2.22,4.41-11.8a79.58,79.58,0,0,0-1.46-13.27q-7.38-57.49-27.65-107.28t-46.82-77q-19.19-19.17-26.54-19.17-20.65,0-43.5,22.86-28.77,29.52-28.76,75.21,0,74.46,130.5,120.16,28.74,10.35,37.61,10.34Z" transform="translate(-124.35 -159.67)"/><path d="M2133.33,3368.43q-23.6,0-34.65-1.48-51.61-14.73-51.62-50.14,0-8.83,10.32-22.11a30.82,30.82,0,0,1,20.64-11.06,190.16,190.16,0,0,1,19.18-.74q28,0,57.51,12.53,41.25,18.45,41.27,39.09,0,11.07-11.79,22.11a35.56,35.56,0,0,1-15.49,9.21Q2159.84,3368.45,2133.33,3368.43Zm5.15,778.57q-61.2,0-72.26-41.3-18.43-78.15-18.42-315.55,0-113.54,10.32-262.48,5.15-74.43,14-80.36,19.89-12.51,47.93-12.53,41.25,0,61.93,18.44,7.37,5.15,9.21,17.32t2.59,77.79l-1.48,329.56q0,118.71,2.22,166.63,2.92,36.14,2.93,55.29,0,31-15.86,39.08T2138.48,4147Z" transform="translate(-124.35 -159.67)"/><path d="M2563.81,4273.8q-137.13,0-224.13-187.26-52.33-117.23-57.51-279.43,0-129.75,4.43-174,39-336.92,167.35-460.06,50.87-52.34,108.39-52.34,30.24,0,61.93,14,97.3,46.47,97.33,245.52,0,148.2-71.52,285.33-59,116.49-137.15,200.54-49.39,56.76-49.38,64.87,0,20.66,32.81,124.24t71.14,130.87c5.4,3.91,10.8,5.89,16.21,5.89q13.27,0,35.39-16.95,66.36-50.87,122-158.52t96.22-203.5q11-22.1,17.31-28t26.18-5.91a74.65,74.65,0,0,1,32.44,7.38q15.48,7.38,15.49,16.21t-18.43,53.83q-135.69,340.63-242.57,393Q2616.14,4273.79,2563.81,4273.8Zm-121.65-466.69q160-219.69,160-477,0-40.55-5.17-70.78-5.91-40.54-10.32-41.28-3.69,0-29.48,39.06-82.58,126.82-109.87,463Z" transform="translate(-124.35 -159.67)"/><path d="M3118.06,4318.77a210.45,210.45,0,0,1-30.95-2.19q-91.44-13.29-139.35-63.42-29.52-33.91-29.5-75.94,0-68.56,68.57-133.44,97.3-87,304.49-118,56-8.12,57.52-14.75,8.84-34.65,14.73-89.94a987.61,987.61,0,0,0,5.91-104.71q0-73-14.75-185.79-17-122.37-38.34-181.36-45,134.91-102.48,231.5-97.34,163.68-176.21,165.88l-31,.74q-94.36,0-147.46-81.1a206.54,206.54,0,0,1-31.7-78.9q-3.7-28-3.69-67.82t4.43-69.3q9.58-54.55,34.65-115t47.19-81.09q22.85-18.45,39.06-18.45h17q29.46,0,56,17.71,17.69,11.07,18.44,15.86a56.83,56.83,0,0,1,.74,6.25c0,5.91-3.22,13.78-9.6,23.6q-14.73,25.08-31.7,75.93Q2964,3479.76,2964,3555.7q0,78.14,24.33,112.79c2.46,4,4.91,5.91,7.37,5.91q2.22,0,15.49-9.58a411.22,411.22,0,0,0,40.56-42q135.63-165.15,185.05-426.87,6.61-34.66,11.79-39.82c3.94-2,10.82-3,20.64-3q25.82,0,43.87,5.17t45,28.37a286.22,286.22,0,0,1,47.57,52.73q101.74,142.31,126.07,407,3.68,38.34,3.69,86.26,0,98.09-10.32,165.89-5.18,32.46-5.17,40.56,0,2.22,27.29,13.26,56,23.58,56,45,0,16.23-31.7,16.21-22.12,0-39.82-6.26t-24.33-6.27q-7.36,0-7.37,5.91,0,17.68-51.61,103.95-19.92,33.91-33.92,50.88Q3281,4318.76,3118.06,4318.77Zm-30.95-78.88q11,0,47.92-19.16,75.18-39.1,139.34-134.19,44.22-67.82,44.23-81.84c0-1.48-1-2.22-2.95-2.22q-15.48,0-79.62,22.86-170.31,61.2-174.73,166.63Q3062.77,4239.87,3087.11,4239.89Z" transform="translate(-124.35 -159.67)"/><path d="M1682.89,1615.39c10.71,36.83,23.08,73.23,36.55,109.14a1764,1764,0,0,0,92.46,204.86c35.8,67.74,77.22,132.14,115.63,198.39,20.72,35.74,39,73.68,64.6,106.28,19.94,25.39,66.57,74.13,102.41,69,13-1.85,33.37-11.44,42-21.39,63.36-73.4,23.2-288.87,8.9-401.84-19.15-151.42-50.85-302.26-110.53-443.29-21.58-51-58-81-113.79-86.23-7.3-.69-14.5-2.34-23.1-3.77,5,.84,31.19-61.36,34.92-68.84,11.89-23.89,22.94-48.38,29.72-74.28,2.05-7.84,3.71-15.94,2.85-24-3.44-32.24-37.88-31.78-59-18.35-21.81,13.85-37.3,34.9-55.65,52.62,2-22,3.76-41.37,5.47-60.74,1-11.62.78-23.34-1.87-34.62-7.43-31.65-39.19-40.78-62.62-18.28-15.33,14.71-21.21,34.38-27.58,53.7-2.69,8.18-4.63,16.61-7.5,27.09-19.14-28.47-40.13-51.44-67.19-68.12-14-8.64-29.14-18.17-45.32-6.88-15.79,11-13.6,28.32-10.63,44.77,4.89,27,15.89,51.95,26.38,77,2.77,6.65,5.8,13.19,9.63,21.84-25.94-8.12-50.06-14.43-75.54-9.52-17.49,3.37-32.45,9.07-39.29,27.81-7.27,19.93-.94,36.67,12.09,50.73,26.78,28.92,60.07,48.91,95.57,65.31,14.7,6.79,29.79,12.75,45.84,19.57C1661.31,1470.29,1661.27,1542.14,1682.89,1615.39Zm28-96c.79-40,13.75-74.59,44.93-101.29a114.64,114.64,0,0,1,48.73-24.61,335.5,335.5,0,0,1,79-9.52c62.4.1,94,24.33,112.15,87.79-33.8,3.87-63.88,14.78-87.51,37.78-8.07,7.86-2.75,21.56,8.52,21.44,33.26-.36,65.32-14.66,99.51-10.3,32,82.92,60.34,167.6,79.22,256.44-33.13,5-63.3,12.93-92.4,24.73-8.21,3.32-16.61,6.3-23.48,12.14-5,4.26-8.27,10.65-7.46,17.18,1.2,9.72,9.3,12.51,17,12.52a196.9,196.9,0,0,0,28.49-2c28.1-4.06,55.44-11.92,82.58-18.57,3.86,5.35,3.72,10.19,4.28,14.87,5.3,44.64,63.69,331.19,22.22,414.66-9.76,19.64-38,26.79-66.49,9.7-12.35-7.42-80.82-111.73-102.38-145.55-4.5-7.07-8-14.77-12.51-23.19,11.77-3.39,21.63-5.92,31.29-9.09s19.61-6,28.16-11.83c7.25-4.93,12-11.65,9.6-20.79s-9.71-12.6-18.65-12.81a92,92,0,0,0-24.28,2.75c-15.46,3.78-28.61,12.43-43.85,20.12-45-65.28-156.09-301.94-172-366.36,17.51-8.81,35.73-15.83,55.17-19.76,20-4.06,39.82-9.2,58.75-17,8.69-3.57,15.65-9.76,13.74-20.16-1.87-10.17-11.07-12.61-20.56-13.42a121.28,121.28,0,0,0-39.68,3.63c-28.67,7.16-56.32,16.64-79.62,36.27C1722.18,1614.07,1710.05,1560,1710.85,1519.37Z" transform="translate(-124.35 -159.67)"/><path d="M2678.53,1403.43c16-6.82,31.14-12.78,45.84-19.57,35.49-16.4,68.79-36.39,95.57-65.31,13-14.06,19.36-30.8,12.09-50.73-6.84-18.74-21.8-24.44-39.29-27.81-25.49-4.91-49.6,1.4-75.54,9.52,3.82-8.65,6.86-15.19,9.63-21.84,10.49-25.1,21.49-50,26.38-77,3-16.45,5.16-33.75-10.64-44.77-16.17-11.29-31.29-1.76-45.31,6.88-27.06,16.68-48.05,39.65-67.19,68.12-2.87-10.48-4.81-18.91-7.5-27.09-6.37-19.32-12.26-39-27.58-53.7-23.44-22.5-55.19-13.37-62.63,18.28-2.64,11.28-2.89,23-1.86,34.62,1.71,19.37,3.49,38.73,5.47,60.74-18.35-17.72-33.84-38.77-55.66-52.62-21.13-13.43-55.57-13.89-59,18.35-.86,8.06.8,16.16,2.85,24,6.77,25.9,17.82,50.39,29.72,74.28,3.73,7.48,29.88,69.68,34.92,68.84-8.6,1.43-15.8,3.08-23.1,3.77-55.77,5.28-92.21,35.22-113.79,86.23-59.68,141-91.38,291.87-110.54,443.29-14.29,113-54.45,328.44,8.91,401.84,8.58,10,28.95,19.54,42,21.39,35.84,5.1,82.47-43.64,102.41-69,25.61-32.6,43.87-70.54,64.6-106.28,38.41-66.25,79.83-130.65,115.63-198.39a1765.67,1765.67,0,0,0,92.46-204.86c13.46-35.91,25.84-72.31,36.55-109.14C2725.5,1542.14,2725.46,1470.29,2678.53,1403.43Zm-35.06,261.7c-23.3-19.63-50.95-29.11-79.62-36.27a121.34,121.34,0,0,0-39.69-3.63c-9.48.81-18.68,3.25-20.55,13.42-1.92,10.4,5,16.59,13.73,20.16,18.94,7.78,38.72,12.92,58.76,17,19.44,3.93,37.66,11,55.16,19.76-15.92,64.42-127,301.08-172,366.36-15.24-7.69-28.39-16.34-43.86-20.12a92,92,0,0,0-24.27-2.75c-8.94.21-16.23,3.64-18.66,12.81s2.36,15.86,9.61,20.79c8.55,5.82,18.47,8.66,28.16,11.83s19.52,5.7,31.28,9.09c-4.5,8.42-8,16.12-12.5,23.19-21.56,33.82-90,138.13-102.38,145.55-28.47,17.09-56.73,9.94-66.49-9.7-41.47-83.47,16.92-370,22.22-414.66.56-4.68.41-9.52,4.28-14.87,27.14,6.65,54.48,14.51,82.58,18.57a196.66,196.66,0,0,0,28.48,2c7.74,0,15.84-2.8,17-12.52.8-6.53-2.45-12.92-7.47-17.18-6.86-5.84-15.27-8.82-23.47-12.14-29.1-11.8-59.27-19.78-92.41-24.73,18.88-88.84,47.18-173.52,79.23-256.44,34.19-4.36,66.25,9.94,99.51,10.3,11.27.12,16.59-13.58,8.52-21.44-23.63-23-53.72-33.91-87.51-37.78,18.17-63.46,49.75-87.69,112.15-87.79a335.56,335.56,0,0,1,79,9.52,114.64,114.64,0,0,1,48.73,24.61c31.18,26.7,44.14,61.32,44.92,101.29C2676.71,1560,2664.58,1614.07,2643.47,1665.13Z" transform="translate(-124.35 -159.67)"/><path d="M3932.77,1492.71c27-18.57,57.38-33.19,77.13-61.76,3.79-5.49,16-5.79,14.25-17-1.88-12.23-12.23-9-20.08-10.26a39.23,39.23,0,0,1-4-1.37c-154.53-43.15-307.94-37.07-460.29,10.85-70.21,22.07-134.7,57.91-202.86,84.94-58.32,23.13-111.56,57.21-170.37,79.37-11.42,4.3-16.52,19.15-9.3,27.94,16.78,20.44,23.35,46.35,39.76,68.43-3.71,2.87-5.16,4.53-7,5.32-85.17,37.14-166.6,82.06-251,120.77-20.44,9.37-40.23,20.2-58.46,33.64-17.94,13.22-28.89,30.35-31.71,52.66-5.12,40.64,9,74.47,35.45,104.54,26.79,30.49,39.9,34.94,74.62,14.52,84.61-49.76,174.82-88,263-130.34C3258.9,1857.2,3785.41,1594,3932.77,1492.71ZM2925,1987.45c-14.58-13.58-26-27.49-35.41-44.68,22.5,28.92,48.44,17.48,73.61,7.37,21.49-8.63,42.38-18.76,63.48-28.35,8-3.63,15.65-8.17,26.29-4.45Zm414.82-205.52c-7.31,4-14.34,9-24.62,10.43-51.65-54.72-83.05-123.24-121.62-188.43,26.75-17.91,55.08-30.26,83.42-42.31q54.5-23.17,108-48.46c76.12-36.18,155.8-62.23,237.45-82.48a329.06,329.06,0,0,1,83.88-9.65c49.39.64,98.58-5.44,148-4.2,43.71,1.1,87,4.93,130.67,13.38-93.68,50.57-178.86,114.67-272.85,163.26-52.2,27-105.25,53-158.64,77.77C3480.58,1705,3410.26,1743.52,3339.81,1781.93Z" transform="translate(-124.35 -159.67)"/><path d="M1164.84,1875c88.19,42.37,178.39,80.58,263,130.34,34.72,20.42,47.83,16,74.62-14.52,26.43-30.07,40.57-63.9,35.44-104.54-2.81-22.31-13.76-39.44-31.7-52.66-18.24-13.44-38-24.27-58.46-33.64-84.42-38.71-165.85-83.63-251-120.77-1.82-.79-3.26-2.45-7-5.32,16.41-22.08,23-48,39.76-68.43,7.22-8.79,2.11-23.64-9.3-27.94-58.82-22.16-112-56.24-170.37-79.37-68.16-27-132.65-62.87-202.86-84.94-152.35-47.92-305.76-54-460.3-10.85a38.24,38.24,0,0,1-4,1.37c-7.85,1.25-18.2-2-20.08,10.26-1.72,11.21,10.46,11.51,14.25,17,19.75,28.57,50.13,43.19,77.13,61.76C601.36,1594,1127.87,1857.2,1164.84,1875Zm169,42.38c10.63-3.72,18.31.82,26.29,4.45,21.1,9.59,42,19.72,63.48,28.35,25.17,10.11,51.1,21.55,73.61-7.37-9.36,17.19-20.84,31.1-35.42,44.68Zm-500.58-246.1c-53.4-24.74-106.44-50.77-158.65-77.77-94-48.59-179.16-112.69-272.85-163.26,43.62-8.45,87-12.28,130.68-13.38,49.46-1.24,98.65,4.84,148,4.2a329.14,329.14,0,0,1,83.89,9.65c81.65,20.25,161.33,46.3,237.45,82.48q53.48,25.41,108,48.46c28.35,12.05,56.68,24.4,83.43,42.31-38.58,65.19-70,133.71-121.62,188.43-10.29-1.46-17.31-6.45-24.62-10.43C976.5,1743.52,906.19,1705,833.23,1671.24Z" transform="translate(-124.35 -159.67)"/><path d="M2875.19,2571.55h-2q-21.91,0-37.51,14.61t-15.6,36.51v217.11q0,21.91,15.6,38.18t37.51,16.26h2.66q21.24,0,36.51-16.26t15.27-38.18V2622.67q0-21.9-15.27-36.51T2875.19,2571.55Zm-1685-1.33h-36.52a7.84,7.84,0,0,0-6,3,9.36,9.36,0,0,0-2.66,6.31v111.54a11.34,11.34,0,0,0,11.29,11.29h33.86a37,37,0,0,0,26.23-10.29,32.92,32.92,0,0,0,10.95-24.9v-60.42a34.7,34.7,0,0,0-10.95-25.89A36.38,36.38,0,0,0,1190.17,2570.22Zm-931,165.32c0-28.82-30.17-52.19-67.39-52.19s-67.39,23.37-67.39,52.19,30.18,52.2,67.39,52.2S259.13,2764.37,259.13,2735.54Zm2946-164h-2q-21.91,0-37.51,14.61t-15.61,36.51v217.11q0,21.91,15.61,38.18t37.51,16.26h2.65q21.24,0,36.52-16.26t15.27-38.18V2622.67q0-21.9-15.27-36.51T3205.16,2571.55Zm1016-165.38H191.74l195.2,329.37-195.2,329.38H4221.18L4026,2735.54ZM1008.25,2568.23a16.49,16.49,0,0,1-5.31,11.95,18,18,0,0,1-13.28,5.31H858.21v101.59H958.46a15.91,15.91,0,0,1,16.6,16.59v46.48a14.3,14.3,0,0,1-4.65,10.95,16.81,16.81,0,0,1-11.95,4.32H858.21v183.91A15.5,15.5,0,0,1,852.9,2961a17.84,17.84,0,0,1-12.62,5H797.79q-8,0-12.95-4.65a15.6,15.6,0,0,1-5-12V2521.09a14.86,14.86,0,0,1,5-11.28c3.32-3.09,7.64-4.65,12.95-4.65H989.66a19.47,19.47,0,0,1,13.28,4.65,14.46,14.46,0,0,1,5.31,11.28Zm319,396.7a13.71,13.71,0,0,1-9,3h-57.76a21.59,21.59,0,0,1-13-4.65q-6.31-4.64-8.3-10l-53.78-166c-5.76-3.09-11.28-4.65-16.6-4.65a23.36,23.36,0,0,0-17.92,8v162a13.52,13.52,0,0,1-5.31,10.95,19.35,19.35,0,0,1-12.62,4.32H1080a20.31,20.31,0,0,1-13.28-4.32,13.47,13.47,0,0,1-5.31-10.95V2523.09a18.31,18.31,0,0,1,5.31-13,17.49,17.49,0,0,1,13.28-5.64h130.13q45.81.66,74,26.55t28.21,66.4v81q0,23.91-13.61,45.15a96.35,96.35,0,0,1-35.52,33.2l.67,1.33,66.39,195.19c.43.45.66,2,.66,4.65A8.83,8.83,0,0,1,1327.27,2964.93Zm291.13-399.35a18.13,18.13,0,0,1-17.92,17.92H1466.36v101.58h101.58a15.93,15.93,0,0,1,16.6,16.6v46.48a15.93,15.93,0,0,1-16.6,16.6H1466.36v120.83h134.12a17.84,17.84,0,0,1,12.61,5,16.18,16.18,0,0,1,5.31,12.28v45.81a18.13,18.13,0,0,1-17.92,17.93H1404.62a16.91,16.91,0,0,1-12.95-5.31,17.81,17.81,0,0,1-5-12.62V2519.77a16.7,16.7,0,0,1,5-12.29q5-5,12.95-5h195.86a17.84,17.84,0,0,1,12.61,5,16.19,16.19,0,0,1,5.31,12.29Zm312.71,254.28a268.7,268.7,0,0,1-5,52.78,129.69,129.69,0,0,1-20.25,47.47,121.71,121.71,0,0,1-43.49,40.17,115.53,115.53,0,0,1-56.1,14.28h-20.58a114.42,114.42,0,0,1-46.48-9.63,122.22,122.22,0,0,1-39.17-27.55,134.19,134.19,0,0,1-35.19-90.3v-.66a22.33,22.33,0,0,1,6.31-15.94,19.94,19.94,0,0,1,14.94-6.64h47.14a3.76,3.76,0,0,0,2.65.67h1.33a25,25,0,0,1,10,8,18.51,18.51,0,0,1,4,11.28v6.64a45.65,45.65,0,0,0,9,27.56,42.08,42.08,0,0,0,23.57,16.26,48.15,48.15,0,0,0,14,2h2c3.54,0,5.53-.21,6-.66h.67q18.57-1.32,30.87-14.27a43.33,43.33,0,0,0,12.28-30.88l1.33-33.19q-.66-33.87-27.88-47.14-15.95-8.62-49.13-10l-12.62-1.33q-55.11-4-72.7-38.84t-17.59-84.65l.66-23.24.66-9.29q-1.34-44.48,29.88-73.7,32.52-32.52,85.65-31.2h20.58a113.23,113.23,0,0,1,44.48,9,118,118,0,0,1,37.85,25.56,111.43,111.43,0,0,1,25.23,38.84,128.59,128.59,0,0,1,8.63,46.81v.66a19.36,19.36,0,0,1-5.65,14.28,18.54,18.54,0,0,1-13.61,5.64H1859.4a18.55,18.55,0,0,1-12.28-6,17.79,17.79,0,0,1-5-12.61v-4.65a40.52,40.52,0,0,0-9-25.89,48,48,0,0,0-23.57-15.94,42.12,42.12,0,0,0-13.28-2H1791c-.45.45-1.56.67-3.32.67q-18.6,2-29.88,13.94t-11.29,29.21v38.51q2,19.26,17.27,26.89t50.46,9q58.41,0,87.63,33.86l29.22,33.86ZM2288.29,2950a16.78,16.78,0,0,1-5.64,12.62,18.33,18.33,0,0,1-13,5.31h-47.8a18.29,18.29,0,0,1-13-5.31,16.75,16.75,0,0,1-5.64-12.62V2765.42l-125.48.66V2950a18.13,18.13,0,0,1-17.93,17.93h-49.13a16.47,16.47,0,0,1-12-5.31,17.19,17.19,0,0,1-5.31-12.62v-428.9a18.21,18.21,0,0,1,17.26-17.26h49.13a17.84,17.84,0,0,1,12.62,5,16.21,16.21,0,0,1,5.31,12.28v164l125.48-.66V2521.09q0-6.63,5.64-12a18.38,18.38,0,0,1,13-5.31h47.8a18.41,18.41,0,0,1,13,5.31c3.75,3.55,5.64,7.53,5.64,12Zm401-381.76a16.49,16.49,0,0,1-5.31,11.95,18,18,0,0,1-13.28,5.31H2539.25v101.59H2639.5a15.91,15.91,0,0,1,16.6,16.59v46.48a14.3,14.3,0,0,1-4.65,10.95,16.83,16.83,0,0,1-11.95,4.32H2539.25v183.91a15.47,15.47,0,0,1-5.32,11.62,17.82,17.82,0,0,1-12.61,5h-42.49q-8,0-12.95-4.65a15.6,15.6,0,0,1-5-12V2521.09a14.86,14.86,0,0,1,5-11.28c3.32-3.09,7.64-4.65,12.95-4.65H2670.7a19.48,19.48,0,0,1,13.28,4.65,14.46,14.46,0,0,1,5.31,11.28Zm307.4,338.61a133.72,133.72,0,0,1-46.47,47.8,116.31,116.31,0,0,1-63.08,17.93h-21.91a123.52,123.52,0,0,1-63.73-17.6,129.88,129.88,0,0,1-64.4-112.53V2624q0-35.17,16.92-64.4a125.84,125.84,0,0,1,46.81-46.47q28.55-16.59,63.74-16.6h21.91a126.94,126.94,0,0,1,63.74,16.6,124.84,124.84,0,0,1,46.47,45.81q16.59,28.54,16.6,64.4l.66,219.1A126.57,126.57,0,0,1,2996.69,2906.84Zm330,0a133.75,133.75,0,0,1-46.48,47.8,116.25,116.25,0,0,1-63.07,17.93H3195.2a123.58,123.58,0,0,1-63.74-17.6,129.94,129.94,0,0,1-64.4-112.53V2624q0-35.17,16.93-64.4a125.84,125.84,0,0,1,46.81-46.47q28.54-16.59,63.74-16.6h21.91a126.87,126.87,0,0,1,63.73,16.6,124.87,124.87,0,0,1,46.48,45.81q16.59,28.54,16.6,64.4l.66,219.1A126.67,126.67,0,0,1,3326.66,2906.84Zm334.62-3.32a128.77,128.77,0,0,1-43.16,47.8,110.72,110.72,0,0,1-61.08,17.93h-74.36a3.94,3.94,0,0,1-2.66.66h-61.74a16.78,16.78,0,0,1-12.62-5.64,20,20,0,0,1-5.31-14.28V2525.74a21,21,0,0,1,6-14.94,18.64,18.64,0,0,1,13.94-6.3h133.45q33.86,0,62.08,16.26a122.56,122.56,0,0,1,44.81,44.15,126,126,0,0,1,15.94,62.41l.66,212.46A133.51,133.51,0,0,1,3661.28,2903.52Zm668.6-151.14c-7.49-7.2-14.32-14.85-22.24-21.76-4.65-4.06-7.92-7.47-3-12.52.28-.29.27-.75.39-1.13,2.23-7.39,4.37-14.8,6.74-22.17a84.46,84.46,0,0,1,3.59-8.1,9.9,9.9,0,0,0-10.16-3.66c-4.83.93-10.48,1.59-13.93,4-6.46,4.44-14.64,5-21.84,7.64-5.53,2-11.16,2.37-15.47-2.1a2.77,2.77,0,0,0-1.36-.46c-5.75-1-9.64-4-13.54-7.1a11.7,11.7,0,0,0-3.51-2c-5.63-1.83-10.9-4.07-14.71-7.86-2-1.95-4.43-2-6.78-1.22-3.7,1.17-5.41,5.53-3.78,8.51,1,1.78,2.53,3.58,2.62,5.4q.65,13.24.5,26.5c0,1.49-1.29,3.83-2.79,4.32-8.73,2.87-14.84,8.51-22.66,12.34a95.7,95.7,0,0,0-14.49,9c-4.43,3.26-3.2,7,2.56,8.59,4,1.1,8.17,1.82,12.28,2.7,6.28,1.33,12.58,2.6,18.84,4a75.07,75.07,0,0,1,9.16,2.44c2.64,1,6.17,2,7.23,3.72,3.26,5.41,5.5,11.18,8.19,16.79,2.34,4.89,4.4,9.88,7.2,14.6,3.65,6.15,8.66,6.53,13.73,1,7.33-8,14.46-16.19,21.08-24.57,3.17-4,7-5.58,12.89-5.55,11.91.06,23.83-.27,35.74-.45,3.53,0,7.43.29,9.37-2.71S4332.54,2754.94,4329.88,2752.38ZM3543.1,2581.51h-55.77a9.55,9.55,0,0,0-7,3,8.86,8.86,0,0,0-3,6.31v293.45c0,3.55,1.76,5.31,5.31,5.31h54.44q22.56,0,39.17-16.59t16.6-39.18V2631.31a49.88,49.88,0,0,0-49.79-49.8Z" transform="translate(-124.35 -159.67)"/></svg>


