<svg xmlns="http://www.w3.org/2000/svg" viewBox="0 0 4270.99 3308.91" width="500" height="500"><path style="fill-rule:evenodd;" d="M3142.53,3294.77c-41.93,16.25-42.21,18.47-87.52,18.47H2621.69v24.46H3056.3c42.47,0,46.23-.71,86.23,12.72-41.93,16.24-42.21,15.18-87.52,15.18l-433.32,6.57h-55c-32.07,0-51.35-29.7-66.79-55-47.34-77.49-1011.92,79.87-1228.52,45.71-188.2-29.67-187.68-162.56,0-192.15,216.6-34.15,1181.17,123.23,1228.52,45.71,15.42-25.25,34.73-54.95,66.79-54.95h55l434.61,6.57c42.47,0,46.23-.71,86.23,12.71-41.93,16.24-42.21,15.19-87.52,15.19H2621.69v24.47H3056.3c42.47,0,46.23,2.55,86.23,16-41.93,16.25-42.21,18.46-87.52,18.46H2621.69v23.86H3056.3C3098.77,3278.78,3102.53,3281.34,3142.53,3294.77Z" transform="translate(-109.42 -63.26)"/><path d="M1371.33,1011.79c-44.33,1.3-77.49,18.38-107.83,44.47-17.3,14.9-38.06,26.45-58.69,36.58-13.42,6.58-29.25,9.42-44.31,11.12-14.85,1.67-28.91-4.48-35-18.82-6.3-14.7-5.72-31,5.21-43.71,9.1-10.54,19.49-21.34,31.59-27.7,65.1-34.25,132.8-35.79,201.68-12.3C1365.8,1002.07,1366.79,1005.27,1371.33,1011.79Z" transform="translate(-109.42 -63.26)"/><path d="M1413.23,935c-6.34-3.73-10.33-5.75-14-8.27a82.88,82.88,0,0,0-51.41-15.14c-10,.33-20.15.56-30-.8a145.19,145.19,0,0,1-28.86-7.43c-10.8-3.87-14.7-13.07-14.41-24,.31-11.75,7.16-20.86,18.75-23.94,21.22-5.63,42-2.62,60.9,7.73,26.14,14.3,46.6,34.69,58.91,62.37C1413.79,927,1413.23,929,1413.23,935Z" transform="translate(-109.42 -63.26)"/><path d="M1377.41,1104.49c-22,32-37.64,56.64-55.45,79.59-7,9.06-18.16,16-28.82,20.91-12.75,5.85-29.82-5.73-30.06-20-.18-10,.62-21.82,5.69-29.85C1291.75,1118.69,1325.26,1101.88,1377.41,1104.49Z" transform="translate(-109.42 -63.26)"/><path d="M2965.39,1011.79c44.33,1.3,77.5,18.38,107.83,44.47,17.31,14.9,38.06,26.45,58.7,36.58,13.41,6.58,29.24,9.42,44.31,11.12,14.84,1.67,28.9-4.48,35-18.82,6.3-14.7,5.72-31-5.21-43.71-9.09-10.54-19.49-21.34-31.59-27.7-65.1-34.25-132.8-35.79-201.68-12.3C2970.93,1002.07,2969.94,1005.27,2965.39,1011.79Z" transform="translate(-109.42 -63.26)"/><path d="M2923.5,935c6.34-3.73,10.32-5.75,14-8.27a82.9,82.9,0,0,1,51.41-15.14c10,.33,20.15.56,30-.8a145.37,145.37,0,0,0,28.86-7.43c10.79-3.87,14.69-13.07,14.4-24-.3-11.75-7.15-20.86-18.74-23.94-21.23-5.63-42-2.62-60.91,7.73-26.14,14.3-46.59,34.69-58.91,62.37C2922.93,927,2923.5,929,2923.5,935Z" transform="translate(-109.42 -63.26)"/><path d="M2959.32,1104.49c22,32,37.63,56.64,55.44,79.59,7,9.06,18.17,16,28.82,20.91,12.75,5.85,29.82-5.73,30.07-20,.17-10-.62-21.82-5.7-29.85C3045,1118.69,3011.47,1101.88,2959.32,1104.49Z" transform="translate(-109.42 -63.26)"/><path d="M1571.59,1070.71,1499.85,929.4a101.82,101.82,0,0,0-9-13.7q-5.77-7.58-11.18-10.45v-1.81h90.48v1.81a12,12,0,0,0-2.88,8.29,20.27,20.27,0,0,0,1.8,8.11c1.2,2.76,2.4,5.35,3.61,7.75l31.36,62,31.72-62c1.2-2.4,2.4-5,3.61-7.75a20.27,20.27,0,0,0,1.8-8.11,12,12,0,0,0-2.88-8.29v-1.81h90.48v1.81q-5.41,2.88-11.36,10.45a73.78,73.78,0,0,0-8.83,13.7l-72.1,141.31v7.93a349.53,349.53,0,0,0,2.71,46.14q2.7,20.19,11.35,29.2v1.8h-93V1154q9-9,11.53-29.2a376,376,0,0,0,2.53-46.14Z" transform="translate(-109.42 -63.26)"/><path d="M1990.83,1030.69q0,33.52-10.81,57.86t-29.2,40.2a118.37,118.37,0,0,1-42.9,23.43,175.19,175.19,0,0,1-51.91,7.57h-4.68a176.39,176.39,0,0,1-52.27-7.57,118.29,118.29,0,0,1-42.9-23.43q-18.39-15.87-29.2-40.2t-10.82-57.86v-1.8q0-33.53,10.82-58t29.2-40.37a118.29,118.29,0,0,1,42.9-23.43,176.07,176.07,0,0,1,52.27-7.57H1856a174.87,174.87,0,0,1,51.91,7.57,118.37,118.37,0,0,1,42.9,23.43q18.39,15.87,29.2,40.37t10.81,58Zm-207.64-1.08a92.69,92.69,0,0,0,4.87,30.82,72.3,72.3,0,0,0,13.7,24,59,59,0,0,0,21.45,15.5,70.75,70.75,0,0,0,28.12,5.4H1856a69.48,69.48,0,0,0,27.94-5.4,59.41,59.41,0,0,0,21.27-15.5,72.47,72.47,0,0,0,13.7-24,99.58,99.58,0,0,0,0-61.46,70.18,70.18,0,0,0-13.7-24A62.42,62.42,0,0,0,1884,959.5a67.54,67.54,0,0,0-27.94-5.59h-4.68a68.77,68.77,0,0,0-28.12,5.59,61.88,61.88,0,0,0-21.45,15.5,70,70,0,0,0-13.7,24A93.21,93.21,0,0,0,1783.19,1029.61Z" transform="translate(-109.42 -63.26)"/><path d="M2103.66,903.44v1.81q-8.65,9-11.36,29.2a351.27,351.27,0,0,0-2.7,46.14v71q0,23.79,13,36.41t33.88,13q20.91-.36,33.89-13t13-36.41v-71a376.05,376.05,0,0,0-2.52-46.14q-2.52-20.19-11.53-29.2v-1.81h93v1.81q-8.66,9-11.35,29.2a349.42,349.42,0,0,0-2.71,46.14v71q0,24.87-6.67,44.88a87.84,87.84,0,0,1-20.36,34.07q-13.71,14.06-34.79,21.63t-49.93,7.57q-28.85,0-49.93-7.57t-34.78-21.63a87.62,87.62,0,0,1-20.37-34.07q-6.68-20-6.67-44.88v-71a351.27,351.27,0,0,0-2.7-46.14q-2.7-20.19-11.36-29.2v-1.81Z" transform="translate(-109.42 -63.26)"/><path d="M2288.94,991.76q23.8-2.16,31.37-20.19h-2.89q-16.58,0-26.85-9.91t-10.28-25.77a34.06,34.06,0,0,1,11.72-26.5,36.46,36.46,0,0,1,12.07-6.85,43.2,43.2,0,0,1,14.06-2.34,40.34,40.34,0,0,1,14.6,2.7,39.38,39.38,0,0,1,12.8,8.11,38.55,38.55,0,0,1,9.19,13.88,53.31,53.31,0,0,1,3.43,20,77.81,77.81,0,0,1-4.15,24.69,66.23,66.23,0,0,1-12.62,22.35,64.64,64.64,0,0,1-21.62,16.22q-13.17,6.32-30.83,6.31Z" transform="translate(-109.42 -63.26)"/><path d="M2489.73,903.44q31,0,53.53,6.49t36.95,18a70.49,70.49,0,0,1,21.27,27.57,87.82,87.82,0,0,1,6.85,34.79q0,30.28-12.8,48.66a86.07,86.07,0,0,1-33.34,28.48l4,6.49q7.93,12.63,15.68,24.33t15.32,21.27a115.81,115.81,0,0,0,15.14,16q7.58,6.5,15.14,7.94v1.8a55,55,0,0,1-19.46,10.81,73.65,73.65,0,0,1-22.71,3.61,110.77,110.77,0,0,1-22.89-2.17,64.64,64.64,0,0,1-19.29-7.39,72.11,72.11,0,0,1-16.94-13.87,139.88,139.88,0,0,1-15.86-21.63l-19.11-30.28q-8.3.72-16.22,1.08l-16.22.72a313.5,313.5,0,0,0,3.06,41.45q2.72,18,11,26.32v1.8h-93V1154q8.66-9,11.36-29.2a351.38,351.38,0,0,0,2.7-46.14V980.59a351.27,351.27,0,0,0-2.7-46.14q-2.7-20.19-11.36-29.2v-1.81Zm-31,135.54a267.68,267.68,0,0,0,29.56-2.34,100.28,100.28,0,0,0,26.49-7,49.69,49.69,0,0,0,18.93-13.7q7.2-8.64,7.21-22.71,0-18-14.78-27.21t-41.82-9.19h-25.59Z" transform="translate(-109.42 -63.26)"/><path d="M2642.93,1155.78V1154q8.66-9,11.36-29.2a351.38,351.38,0,0,0,2.7-46.14V980.59a351.27,351.27,0,0,0-2.7-46.14q-2.7-20.19-11.36-29.2v-1.81H2785.5q11.36,0,21.27-.54t17.67-1.62a45.14,45.14,0,0,0,12.43-3.24l1.81.72,13,76.78-1.8.36a63.54,63.54,0,0,0-16.4-9.91,86.82,86.82,0,0,0-18-5,150.54,150.54,0,0,0-20-2q-10.47-.36-22.35-.36h-51.19v46.86H2763a260.67,260.67,0,0,0,32.09-1.8q14.42-1.8,22.35-8.65l1.8.72v73.18l-1.8.72a64.28,64.28,0,0,0-16.22-10.46,77.57,77.57,0,0,0-17.49-5.22,138.91,138.91,0,0,0-19.46-2q-10.27-.35-22.17-.36h-20.19v49h56.6q11.89,0,22.35-.18a132,132,0,0,0,20-1.81,80.26,80.26,0,0,0,18-5.22,68,68,0,0,0,16.4-10.1l1.8.36-13,76.79-1.8.72a45.55,45.55,0,0,0-12.44-3.25q-7.76-1.08-17.66-1.62t-21.27-.54h-148Z" transform="translate(-109.42 -63.26)"/><path d="M1417.26,3013.37c-8.69,0-15.12-.84-19.26-2.48q-9.32-3.1-14.91-13.67-9.94-18-20.49-100.64-23-185.14-23-411.93,0-144.14,14.92-255.34,7.44-52.18,13-64,7.44-12.42,23.3-24.23t29.52-15.54q13.65-3.72,34.78-3.73,41,0,112.46,11.19,82,10.57,82,34.17,0,16.79-34.8,16.77-14.91,0-52.8-5.6-58.42-7.44-64.63-7.44c-3.73,0-6.21,3.53-7.44,10.56q-2.52,14.91-5,62.74-4.37,72.7-4.34,108.11l39.14,1.87q67.1,2.49,67.09,27.34,0,7.44-11.5,11.81t-48.14,6.21q-47.85,3.1-50.32,5.57-1.87,4.37-1.87,55.3,0,136.08,5,225.54,6.21,120.52,28.57,292-17.4,15.5-27.95,22.36Q1460.75,3013.37,1417.26,3013.37Z" transform="translate(-109.42 -63.26)"/><path d="M1860.21,2868q-24.84,0-52.8-7.46-154.7-37.87-154.7-237.33,0-95.67,46-187.62,10.54-21.12,34.17-57.16L1706.14,2343q-26.1-34.15-26.09-49.09,0-16.14,38.51-16.15,31.68,0,52.19,11.19t43.49,39.15q15.52,18.63,25.48,26.7a92.35,92.35,0,0,0,23.61,13.67q62.1,24.24,142.28,24.23,63.35-.61,137.31-31.68,26.07-17.42,52.8-17.41,11.19,0,23.61,6.85,16.14,11.19,16.15,27.34a75,75,0,0,1-4.35,24.84q-6.21,11.19-33.55,25.48-37.9,19.89-91.33,27.34-17.4,3.11-71.45,3.73-74.55-3.11-97.54-9.32l-25.48-4.35q0,1.23,28,36.65,79.5,100.65,84.5,171.47,1.23,26.13,1.25,37.28,0,98.8-75.18,148.5Q1910.53,2868,1860.21,2868Zm-27.32-65.86q8.67,0,24.23-9.94,44.09-29.82,52.8-99.4.61-8.68.63-18,0-62.1-47.84-134.82-37.9-57.16-48.47-62.13-5.6,0-19.88,49.09-15.55,52.82-15.54,116.17,0,42.89,5,70.2,9.93,44.76,31.69,76.43,7.44,12.42,11.81,12.42Z" transform="translate(-109.42 -63.26)"/><path d="M2332.36,2868q-24.84,0-52.8-7.46-154.71-37.87-154.7-237.33,0-95.67,46-187.62,10.55-21.12,34.17-57.16L2178.29,2343q-26.1-34.15-26.09-49.09,0-16.14,38.51-16.15,31.66,0,52.18,11.19t43.5,39.15q15.53,18.63,25.47,26.7a92.35,92.35,0,0,0,23.61,13.67q62.12,24.24,142.29,24.23,63.33-.61,137.3-31.68,26.07-17.42,52.8-17.41,11.19,0,23.61,6.85,16.14,11.19,16.15,27.34a75,75,0,0,1-4.34,24.84q-6.21,11.19-33.55,25.48-37.91,19.89-91.33,27.34-17.4,3.11-71.45,3.73-74.57-3.11-97.55-9.32l-25.47-4.35q0,1.23,28,36.65,79.5,100.65,84.5,171.47,1.23,26.13,1.25,37.28,0,98.8-75.18,148.5Q2382.68,2868,2332.36,2868ZM2305,2802.13q8.67,0,24.22-9.94,44.1-29.82,52.8-99.4c.41-5.79.64-11.79.64-18q0-62.1-47.84-134.82-37.91-57.16-48.47-62.13-5.59,0-19.88,49.09Q2251,2579.73,2251,2643.08q0,42.89,5,70.2,9.93,44.76,31.69,76.43,7.44,12.42,11.8,12.42Z" transform="translate(-109.42 -63.26)"/><path d="M2739.28,3022.69q-73.32,0-85.12-51a6.93,6.93,0,0,1-.61-3.1q-29.82-134.19-52.2-400.1-10.57-132.33-10.56-302.59,0-49.07,2.48-63.35,1.84-17.4,15.23-25.17t50.32-14a474.36,474.36,0,0,1,78.6-6.21q44.7,0,73.93,3.73,247.24,38.52,300.08,283.3,3.09,18,3.1,46.61,0,62.74-9.31,106.23-26.74,118-103.13,235.46-25.49,37.29-69.59,80.78t-82,69q-59,39.77-100,39.77Zm34.17-97.54q5.6,0,36.65-29.82,35.42-33.54,69.58-83.87,70.23-101.28,96.93-203.79,20.47-72.08,20.5-134.19,0-83.88-36.65-150.36-52.2-104.35-155.94-109.35l-33.55-.62q-46,0-50.34,6.22-.62,4.35-.61,17.4,0,77,19.88,344.8,9.93,133,19.88,222.43,13,114.33,13,120.54A.54.54,0,0,0,2773.45,2925.15Z" transform="translate(-109.42 -63.26)"/><path d="M4357.39,829.55C4001,555.61,3253.91,101,2222.52,101c-16.31,0-32.53.11-49,.34C1190.55,115,472.5,542.28,132,795.73l-22.55-30.29C329.77,601.43,572.87,461.91,832,350.73a3579.62,3579.62,0,0,1,600.76-197.18,3487.94,3487.94,0,0,1,1544.84-7.3c220.37,49,438.63,120.07,648.73,211.27a3667.22,3667.22,0,0,1,473.91,248.29,3396.53,3396.53,0,0,1,280.2,193.81Z" transform="translate(-109.42 -63.26)"/><path d="M4357.39,1354.28C4001,1080.33,3253.9,625.73,2222.52,625.73c-16.31,0-32.53.11-49,.34C1190.55,639.76,472.5,1067,132,1320.45l-22.55-30.29c220.35-164,463.45-303.53,722.55-414.71a3579.62,3579.62,0,0,1,600.76-197.18A3487.94,3487.94,0,0,1,2977.57,671C3197.94,720,3416.2,791,3626.3,882.24a3668.47,3668.47,0,0,1,473.91,248.29,3396.53,3396.53,0,0,1,280.2,193.81Z" transform="translate(-109.42 -63.26)"/><path d="M510.08,933.07a9.22,9.22,0,0,1-4.49,6.16L480,953.62a9.66,9.66,0,0,1-7.94.83,10.63,10.63,0,0,1-6.29-5.11L340,725.76a10.69,10.69,0,0,1-1.1-8,9.66,9.66,0,0,1,4.84-6.36L369.31,697a9.24,9.24,0,0,1,7.61-.64,10.61,10.61,0,0,1,6.28,5.11L509,925A10.69,10.69,0,0,1,510.08,933.07Z" transform="translate(-109.42 -63.26)"/><path d="M494.14,631.15l79.74-40a11.64,11.64,0,0,1,8.33-1.08,8.68,8.68,0,0,1,5.86,4.61l12.63,25.16a9.89,9.89,0,0,1,.36,7.8A10.75,10.75,0,0,1,595.4,634l-70.17,35.22,27.22,54.22L606,696.59a9.5,9.5,0,0,1,13.3,4.41l12.45,24.81a8.53,8.53,0,0,1,.46,7.09,10.07,10.07,0,0,1-5.23,5.5l-53.5,26.86,49.27,98.16A9.25,9.25,0,0,1,623,871a10.6,10.6,0,0,1-5.4,6L594.9,888.46a10.8,10.8,0,0,1-8.15,1,9.32,9.32,0,0,1-5.86-5L527.53,778.1l-12.45-24.81L478.79,681l-12.62-25.16a8.87,8.87,0,0,1-.37-7.36,10.86,10.86,0,0,1,5.66-5.94Z" transform="translate(-109.42 -63.26)"/><path d="M863.33,463.85l23.2-9.24a13.2,13.2,0,0,1,10.42-.09A11.78,11.78,0,0,1,903.6,461l1,4.72,1,128.92a83.72,83.72,0,0,0,2.62,19.44l41.81,105a9.58,9.58,0,0,1-.72,8.39,13.38,13.38,0,0,1-7.11,6.25L928.94,739l-13.63,5.43a12.87,12.87,0,0,1-9.09.2,9.56,9.56,0,0,1-6.29-5.6l-41.8-105a76.36,76.36,0,0,0-12.2-15.63l-87.18-94.6a11.38,11.38,0,0,1-3-4.35,10.92,10.92,0,0,1,.6-9.2,13.75,13.75,0,0,1,7.53-6.83l22.83-9.1q8.1-3.23,15.61,2.75l53.87,63.48a2.63,2.63,0,0,0,2.13,0c.25-.09.52-.48.82-1.17L855.35,476a11.76,11.76,0,0,1,2-7.21A12.44,12.44,0,0,1,863.33,463.85Z" transform="translate(-109.42 -63.26)"/><path d="M1148.74,441.49,1190,565.66a75.67,75.67,0,0,1,2.22,39.76,79.86,79.86,0,0,1-17.46,35.79,69.38,69.38,0,0,1-32.44,21.93l-12.43,4.09a73.88,73.88,0,0,1-39.44,1.9,77.53,77.53,0,0,1-57.52-51.84L992.16,493.37a75.3,75.3,0,0,1,15.49-74.79,74.41,74.41,0,0,1,33.06-21.31l12.43-4.08a75.83,75.83,0,0,1,39.26-2.47A74.6,74.6,0,0,1,1127.31,408Q1142,421.15,1148.74,441.49Zm-8.23,138.76L1100,457.08a28.92,28.92,0,0,0-15.47-17.87,30.94,30.94,0,0,0-23.82-1.35l-1.13.37A31.6,31.6,0,0,0,1041,453.51a28.64,28.64,0,0,0-2,23.63l40.49,123.17a31.82,31.82,0,0,0,16,18.75,29.87,29.87,0,0,0,24.31,2.23l1.51-.49q12-4,17.68-16A32.28,32.28,0,0,0,1140.51,580.25Z" transform="translate(-109.42 -63.26)"/><path d="M1359.21,310.25q8.83-2.25,14.24.45t8,12.7l44.95,177.17a74.21,74.21,0,0,1-.59,40.06,79.79,79.79,0,0,1-20.82,34.59,74.07,74.07,0,0,1-35,20l-4.22,1.08-5.76,1.48-3.85,1a75.09,75.09,0,0,1-40.24-.54,80.32,80.32,0,0,1-34.69-20.38,74.28,74.28,0,0,1-20-35l-45.71-177q-2.57-10,.87-15t12.27-7.23q13.83-3.54,18.92-4.44a18,18,0,0,1,9.14.53q4.53,1.71,7.48,13.23l45.22,175a31.66,31.66,0,0,0,14.73,20q11.39,6.91,23.68,3.76l.39-.1,5.76-1.47a29.58,29.58,0,0,0,19.15-14.73,32,32,0,0,0,3.13-24.54L1331.75,335.7q-2.55-10,.6-14.48t12-6.75Q1347.69,313.21,1359.21,310.25Z" transform="translate(-109.42 -63.26)"/><path d="M1724.21,434.15l26.65-4.11a11.07,11.07,0,0,1,8.54,2.1,11.57,11.57,0,0,1,4.63,7.91l.3,2a80,80,0,0,1-3.69,39.88,74.06,74.06,0,0,1-21.77,31.84A68.74,68.74,0,0,1,1703.66,530l-12.54,1.93a68.75,68.75,0,0,1-38.24-4.74,73.56,73.56,0,0,1-30.37-24,77.13,77.13,0,0,1-15.71-36.89l-20-129.72a75.86,75.86,0,0,1,3.84-38.9,74.37,74.37,0,0,1,22.26-31.31A68.82,68.82,0,0,1,1647.46,251l12.54-1.93a71.81,71.81,0,0,1,38.15,4.16,73,73,0,0,1,30.62,23,76.86,76.86,0,0,1,15.2,36.18l.06.39a11.89,11.89,0,0,1-9.11,13.84l-26.64,4.1a11.12,11.12,0,0,1-8.81-2.46,12,12,0,0,1-4.82-7.88l-.18-1.17q-2.06-13.32-11.78-20.46T1660,293.59l-1.57.24q-12.15,1.88-20,12.3A28.14,28.14,0,0,0,1633,329l19.74,128.15a31.83,31.83,0,0,0,12.67,21.11q10.69,8.19,22.45,6.37l1.57-.24a27.92,27.92,0,0,0,19.71-12.66,32.82,32.82,0,0,0,5.12-24.06,11.25,11.25,0,0,1,2.23-9c2-2.57,3-3.87,3-3.87Z" transform="translate(-109.42 -63.26)"/><path d="M1935.17,232.28l74.11,251.43a8.07,8.07,0,0,1-1.33,7.48q-2.52,3.21-7.64,3.66l-33.58,2.93q-9.09.8-11-7.79l-17.48-63.35-25.28,2.21-.39,0-25.28,2.21-6.22,65.42c-.26,3.21-1.11,5.54-2.58,7s-3.77,2.32-6.93,2.59L1838,509a11,11,0,0,1-8.35-2.26,7.78,7.78,0,0,1-2.81-7.12l29.76-260.51a11.46,11.46,0,0,1,4.3-7.74,15.69,15.69,0,0,1,9-3.77l16.59-1.45,8.29-.73.4,0,8.29-.73,16.19-1.41a16.56,16.56,0,0,1,9.74,2.13A11.29,11.29,0,0,1,1935.17,232.28Zm-26.26,150.36,18.56-1.63-25.65-97.66c-.65-1.26-1.36-1.87-2.15-1.8s-1.39.79-1.8,2.15L1890,384.29l18.56-1.62Z" transform="translate(-109.42 -63.26)"/><path d="M2200.05,209.56l30.12-.7a10.85,10.85,0,0,1,7,2.62q3.43,2.7,3.49,5.07L2246.58,473q.15,6.35-2.75,10a9.2,9.2,0,0,1-7.25,3.74l-11.49.26-18.63.43-10.71.25a14.55,14.55,0,0,1-8.59-2.78,15.82,15.82,0,0,1-5.91-6.8L2113,304l7.6,174.73a10.68,10.68,0,0,1-2.8,7.6,10.07,10.07,0,0,1-7.66,3.35l-29.33.68a10.94,10.94,0,0,1-7.8-3,10,10,0,0,1-3.55-7.45l-5.91-256.47a10,10,0,0,1,3.19-7.6,10.92,10.92,0,0,1,7.66-3.35l17.84-.42,11.49-.26,17.84-.41a16,16,0,0,1,9.19,2.76,13.16,13.16,0,0,1,5.71,6.81l61.44,170.71L2190,220.5a10.59,10.59,0,0,1,2.8-7.6A9.6,9.6,0,0,1,2200.05,209.56Z" transform="translate(-109.42 -63.26)"/><path d="M2553.59,378.14l30.18,119.37c.24.29.3,1.22.18,2.8a5.28,5.28,0,0,1-2.51,4,8.18,8.18,0,0,1-5.48,1.35l-34.38-2.76a12.86,12.86,0,0,1-7.49-3.39,13.51,13.51,0,0,1-4.46-6.32l-24.08-101.38a20.81,20.81,0,0,0-9.65-3.56,14,14,0,0,0-11.06,3.88l-7.74,96.44a8.11,8.11,0,0,1-3.69,6.27,11.57,11.57,0,0,1-7.72,2l-31.61-2.54a12.14,12.14,0,0,1-7.7-3.2,8.05,8.05,0,0,1-2.64-6.78L2436.86,321l3.87-48.21,3.56-44.27a11,11,0,0,1,3.78-7.45,10.44,10.44,0,0,1,8.17-2.73l31.23,2.51.39,0,45.85,3.68q27.24,2.59,42.79,19.35t13.63,40.87L2586.25,333A49.17,49.17,0,0,1,2576,359.25a57.68,57.68,0,0,1-22.73,18.07Zm-17.39-55.9,2.89-36a20.72,20.72,0,0,0-5.28-15.94,21.75,21.75,0,0,0-15.1-7.58L2497,261a4.67,4.67,0,0,0-3.7,1.49,5.57,5.57,0,0,0-1.88,3.63l-5.34,66.4a6.77,6.77,0,0,0,6.18,7.25l20.16,1.62a22,22,0,0,0,16.1-4.87A19.61,19.61,0,0,0,2536.2,322.24Z" transform="translate(-109.42 -63.26)"/><path d="M2810.9,305.54l-79.27-11.46-8.68,60,60,8.68a9.5,9.5,0,0,1,8.39,11.23l-4,27.47a9.5,9.5,0,0,1-11.23,8.39l-60-8.68-10.32,71.42,79.27,11.46a10.67,10.67,0,0,1,7,4,9.66,9.66,0,0,1,2.09,7.72l-3.91,27.07a10.83,10.83,0,0,1-12.13,9.07l-90.26-13.05-25.5-3.69a10.09,10.09,0,0,1-7.2-4.24,10.67,10.67,0,0,1-1.87-7.88l3.92-27.08,13.21-91.43,4-27.47,11.63-80.45L2690,249.6a10,10,0,0,1,4-6.83,10.48,10.48,0,0,1,8.08-1.84l25.51,3.69,90.26,13a10.72,10.72,0,0,1,7,4,9.69,9.69,0,0,1,2.09,7.72L2823,296.48a10.82,10.82,0,0,1-12.12,9.06Z" transform="translate(-109.42 -63.26)"/><path d="M3024.35,308.67l-1.78,262.12a8.06,8.06,0,0,1-3.44,6.77q-3.33,2.34-8.37,1.29l-33-6.9q-8.92-1.87-8.3-10.65l1.59-65.7-24.84-5.19-.38-.08-24.84-5.2L2896.12,546c-1.17,3-2.66,5-4.49,5.95s-4.28,1.13-7.39.48l-33-6.9a11,11,0,0,1-7.34-4.58,7.79,7.79,0,0,1-.64-7.62l103.85-240.77a11.43,11.43,0,0,1,6.35-6.17,15.7,15.7,0,0,1,9.73-1l16.3,3.41,8.15,1.71.39.08,8.15,1.7,15.91,3.33a16.56,16.56,0,0,1,8.71,4.86A11.28,11.28,0,0,1,3024.35,308.67ZM2955.72,445l18.24,3.82,3.7-100.91c-.26-1.4-.76-2.18-1.54-2.34s-1.56.35-2.35,1.53l-36.68,94,18.25,3.82Z" transform="translate(-109.42 -63.26)"/><path d="M3291.35,443.27l-33.72,122.32a79.71,79.71,0,0,1-19.39,34.11,76.9,76.9,0,0,1-32.5,20.57,66,66,0,0,1-38,.5l-40.87-11.4-1.91-.53a2.27,2.27,0,0,1-1.63-.05l-35.52-9.91a10,10,0,0,1-6.35-5.27,11.87,11.87,0,0,1-.76-9.06l68.09-244a12.58,12.58,0,0,1,5.83-7.64,11.19,11.19,0,0,1,9-1.39l34.37,9.59.76.22,3.06.85,38.57,10.76a73.56,73.56,0,0,1,51.79,51.91A75.19,75.19,0,0,1,3291.35,443.27Zm-81.26,105.35,32.5-116.48a29.78,29.78,0,0,0-20.65-36.64l-32.08-8.95a5.67,5.67,0,0,0-4.49.6,5.27,5.27,0,0,0-2.73,3.15l-47.1,168.8q-.86,3.06,2.2,3.91l31.32,8.74a33.86,33.86,0,0,0,41-23.13Z" transform="translate(-109.42 -63.26)"/><path d="M3565.85,459.43,3607,475a12.41,12.41,0,0,1,6.63,5.47,8.44,8.44,0,0,1,.77,7.49l-9.37,24.86a8.46,8.46,0,0,1-5.53,5.12,12.43,12.43,0,0,1-8.59-.27l-31.53-11.9-78.22,207.38a10.6,10.6,0,0,1-5.44,6,9.59,9.59,0,0,1-8,.38l-27.45-10.35a9.82,9.82,0,0,1-5.56-5.49,10.25,10.25,0,0,1-.31-8.17l78.21-207.38-30-11.33a12.81,12.81,0,0,1-6.88-5.35,8.5,8.5,0,0,1-.52-7.61l9.38-24.86a8.44,8.44,0,0,1,5.41-5.37,12.81,12.81,0,0,1,8.7.52l39.7,15Z" transform="translate(-109.42 -63.26)"/><path d="M3812.39,563.77l26.07,11.63a11,11,0,0,1,5.76,6.05,9.59,9.59,0,0,1,.17,7.89L3740,823.25a10,10,0,0,1-6.14,5.51,10.93,10.93,0,0,1-8.36-.26l-26.07-11.63a10.91,10.91,0,0,1-5.76-6,9.94,9.94,0,0,1,0-8.25l44.91-100.66L3670,671.74,3625.24,772a10.84,10.84,0,0,1-14.14,5.41l-26.79-12a9.8,9.8,0,0,1-5.23-5.8,10.26,10.26,0,0,1,.18-8.17l104.37-233.91a10.87,10.87,0,0,1,13.61-5.22l26.8,12a10.62,10.62,0,0,1,5.66,5.78,9.71,9.71,0,0,1-.09,8l-39.9,89.43,68.59,30.17,39.75-89.07a9.57,9.57,0,0,1,6-5.14A10.93,10.93,0,0,1,3812.39,563.77Z" transform="translate(-109.42 -63.26)"/><path d="M3845.85,886.34a9.2,9.2,0,0,1-7.62-.33l-26.13-13.34a9.62,9.62,0,0,1-5.09-6.16,10.62,10.62,0,0,1,.77-8.06L3924.45,630a10.66,10.66,0,0,1,6.07-5.35,9.64,9.64,0,0,1,8,.51l26.13,13.34a9.27,9.27,0,0,1,4.74,6,10.66,10.66,0,0,1-.78,8.06L3851.93,881A10.65,10.65,0,0,1,3845.85,886.34Z" transform="translate(-109.42 -63.26)"/><path d="M4097.1,927.63a160.86,160.86,0,0,1-18.3,25.84A77.31,77.31,0,0,1,4054.18,972a72.67,72.67,0,0,1-34.47,7.84,69,69,0,0,1-33.3-9.32l-10.65-6.13a68.26,68.26,0,0,1-21.19-18.82,73.12,73.12,0,0,1-12.07-25.93,80,80,0,0,1,8.68-57.22l.19-.35a13.32,13.32,0,0,1,8-6.36,11.85,11.85,0,0,1,9.7,1l23,13.25,1.38.79c.09.36.49.74,1.17,1.13l.35.2.34.2a14.89,14.89,0,0,1,2.78,7.09,11,11,0,0,1-1.3,7l-2,3.43a27.17,27.17,0,0,0-3.57,16.93,25,25,0,0,0,7.36,15.44,28.59,28.59,0,0,0,6.62,5.19l1,.59c1.83,1,2.93,1.53,3.29,1.44l.34.19a27.14,27.14,0,0,0,20.24,1.81,25.91,25.91,0,0,0,15.55-12.32l10.57-16.79q9.75-17.73-.39-32.71-5.68-9.21-22.47-19.78l-6.13-4.45q-27.34-18.48-26.07-41.76t16.11-49l7.26-11.84,3.11-4.61q12.56-23.42,37.42-29.25,26.52-7.14,53.63,9.36l10.65,6.13a67.7,67.7,0,0,1,20.36,17.88,70.53,70.53,0,0,1,12,24.51,66.55,66.55,0,0,1,1.5,27.62,76.81,76.81,0,0,1-9.48,26.8l-.2.34a11.57,11.57,0,0,1-7.17,5.71,11.06,11.06,0,0,1-8.72-1.13L4114,812.45a11.11,11.11,0,0,1-4.58-6.75,10.65,10.65,0,0,1,1.18-8l1.39-2.41a24.17,24.17,0,0,0,3.07-16.07,28.62,28.62,0,0,0-7.45-15.27,25.06,25.06,0,0,0-6.28-5l-1-.6-1.71-1a3.14,3.14,0,0,1-1.92-.64q-10.22-4.51-19.62-1.68a24.44,24.44,0,0,0-14.54,11.76L4051,786.74q-4.71,10.56.93,19.06t23.45,19.67q30.24,17.4,35.28,43.63t5,26.22S4109.49,906.1,4097.1,927.63Z" transform="translate(-109.42 -63.26)"/><path d="M2067.42,1502.28H2066a38.63,38.63,0,0,0-27.36,10.66q-11.4,10.65-11.39,26.64V1698a38.91,38.91,0,0,0,11.39,27.86q11.37,11.87,27.36,11.87h1.94q15.49,0,26.64-11.87a39.38,39.38,0,0,0,11.15-27.86v-158.4q0-16-11.15-26.64A37.81,37.81,0,0,0,2067.42,1502.28Zm-728.06,0h-1.45a38.63,38.63,0,0,0-27.37,10.66,35,35,0,0,0-11.39,26.64V1698a39,39,0,0,0,11.39,27.86q11.37,11.87,27.37,11.87h1.93q15.51,0,26.65-11.87a39.42,39.42,0,0,0,11.14-27.86v-158.4q0-16-11.14-26.64A37.83,37.83,0,0,0,1339.36,1502.28Zm1676,0h-1.46a38.67,38.67,0,0,0-27.37,10.66q-11.39,10.65-11.38,26.64V1698a38.94,38.94,0,0,0,11.38,27.86q11.38,11.87,27.37,11.87h1.94q15.49,0,26.64-11.87a39.38,39.38,0,0,0,11.15-27.86v-158.4q0-16-11.15-26.64A37.81,37.81,0,0,0,3015.4,1502.28ZM434.23,1621.93c0-26.72-28-48.37-62.45-48.37s-62.46,21.65-62.46,48.37,28,48.38,62.46,48.38S434.23,1648.65,434.23,1621.93Zm664.38-119.65h-1.45a38.63,38.63,0,0,0-27.37,10.66q-11.4,10.65-11.39,26.64V1698a38.91,38.91,0,0,0,11.39,27.86q11.37,11.87,27.37,11.87h1.93q15.5,0,26.65-11.87a39.42,39.42,0,0,0,11.14-27.86v-158.4q0-16-11.14-26.64A37.83,37.83,0,0,0,1098.61,1502.28Zm3007.66-185.61H371.78l180.91,305.26L371.78,1927.19H4106.27l-180.91-305.26ZM971.69,1496a10.33,10.33,0,0,1-4.11,8.24,15.14,15.14,0,0,1-9.93,3.39H916.47V1778.4a13,13,0,0,1-3.63,9.2,11.78,11.78,0,0,1-9,3.88H868a12,12,0,0,1-8.72-3.88,12.54,12.54,0,0,1-3.88-9.2V1507.61H816.2q-6.3,0-10.18-3.15a10.33,10.33,0,0,1-3.87-8.48v-32.45a10.34,10.34,0,0,1,3.87-8.48q3.87-3.15,10.18-3.15H957.65a15.19,15.19,0,0,1,9.93,3.39,10.33,10.33,0,0,1,4.11,8.24Zm215.57,250.93a97.64,97.64,0,0,1-33.91,34.88,84.83,84.83,0,0,1-46,13.08h-16a90.11,90.11,0,0,1-46.5-12.84,94.76,94.76,0,0,1-47-82.11V1540.55a92,92,0,0,1,46.5-80.9q20.84-12.11,46.51-12.11h16a92.62,92.62,0,0,1,46.51,12.11,91.16,91.16,0,0,1,33.91,33.43q12.1,20.82,12.11,47l.48,159.86A92.39,92.39,0,0,1,1187.26,1746.91Zm240.75,0a97.55,97.55,0,0,1-33.91,34.88,84.83,84.83,0,0,1-46,13.08h-16a90.11,90.11,0,0,1-46.5-12.84,94.81,94.81,0,0,1-47-82.11V1540.55a92,92,0,0,1,46.5-80.9q20.84-12.11,46.51-12.11h16a92.62,92.62,0,0,1,46.51,12.11,91.09,91.09,0,0,1,33.91,33.43q12.1,20.82,12.11,47l.48,159.86A92.39,92.39,0,0,1,1428,1746.91Zm333.75-47a97.68,97.68,0,0,1-11.87,47.47,90.52,90.52,0,0,1-32.21,34.4,84,84,0,0,1-45.53,13.08h-15.51a83.89,83.89,0,0,1-45.29-12.84,89.76,89.76,0,0,1-32.21-34.64q-12.12-21.3-12.11-47.47V1539.58a92.68,92.68,0,0,1,11.86-46.26,90.81,90.81,0,0,1,32.7-33.67q19.86-12.11,44.57-12.11h15.5a87.74,87.74,0,0,1,45.29,12.11,89,89,0,0,1,32.7,33.43q11.63,20.82,11.63,46.5v.48a13.07,13.07,0,0,1-3.88,10.42c-2.9,3.07-6.14,4.6-9.69,4.6h-32.94a13.6,13.6,0,0,1-10.17-4.6,14.74,14.74,0,0,1-4.36-10.42v-1.45q0-16.45-10.41-26.88t-26.4-10.42h-1.94q-15,0-26.4,11.14t-10.9,26.65v158.4a38.91,38.91,0,0,0,11.38,27.85q11.39,11.88,25.92,11.87h1.94a34.09,34.09,0,0,0,26.15-11.62q10.65-11.64,10.66-28.1a13.73,13.73,0,0,1,4.36-10.42L1709,1683h38.75a13.53,13.53,0,0,1,9.93,4.11,14.17,14.17,0,0,1,4.12,10.42Zm182.14,79.93a11.63,11.63,0,0,1-3.15,8.23,11,11,0,0,1-8.48,3.4h-121.1a11.59,11.59,0,0,1-11.63-11.63V1463a12.15,12.15,0,0,1,3.64-9,11.6,11.6,0,0,1,8.47-3.63h35.85a11.64,11.64,0,0,1,8.48,3.63,12.18,12.18,0,0,1,3.63,9v268.85h72.66a10.86,10.86,0,0,1,11.63,11.63Zm212.17-32.94a97.72,97.72,0,0,1-33.91,34.88,84.85,84.85,0,0,1-46,13.08h-16a90.11,90.11,0,0,1-46.5-12.84,94.76,94.76,0,0,1-47-82.11V1540.55a92,92,0,0,1,46.5-80.9q20.82-12.11,46.51-12.11h16a92.62,92.62,0,0,1,46.51,12.11,91.24,91.24,0,0,1,33.91,33.43q12.09,20.82,12.11,47l.48,159.86A92.39,92.39,0,0,1,2156.07,1746.91Zm241.72-63.46a195.53,195.53,0,0,1-3.64,38.51,94.66,94.66,0,0,1-14.77,34.64,88.87,88.87,0,0,1-31.73,29.3,84.25,84.25,0,0,1-40.93,10.42h-15a83.58,83.58,0,0,1-33.91-7,89.15,89.15,0,0,1-28.58-20.11,97.82,97.82,0,0,1-25.67-65.88v-.48a16.24,16.24,0,0,1,4.6-11.63,14.56,14.56,0,0,1,10.9-4.84h34.39a2.82,2.82,0,0,0,1.94.48h1a18.25,18.25,0,0,1,7.26,5.81,13.5,13.5,0,0,1,2.91,8.24v4.84a33.26,33.26,0,0,0,6.54,20.11,30.71,30.71,0,0,0,17.2,11.87,35.41,35.41,0,0,0,10.17,1.45h1.45c2.58,0,4-.16,4.36-.49h.49a33.17,33.17,0,0,0,22.52-10.41,31.63,31.63,0,0,0,9-22.53l1-24.22q-.48-24.71-20.34-34.39-11.62-6.28-35.85-7.27l-9.2-1q-40.22-2.89-53.05-28.33t-12.83-61.77l.48-17,.48-6.78q-1-32.46,21.8-53.77,23.73-23.73,62.49-22.77h15a82.71,82.71,0,0,1,32.46,6.54,86.2,86.2,0,0,1,27.61,18.65,81.29,81.29,0,0,1,18.41,28.34,93.73,93.73,0,0,1,6.29,34.15v.48a14.14,14.14,0,0,1-4.12,10.42,13.5,13.5,0,0,1-9.93,4.12h-33.42a13.55,13.55,0,0,1-9-4.36,13,13,0,0,1-3.64-9.21v-3.39a29.58,29.58,0,0,0-6.53-18.89,35,35,0,0,0-17.2-11.63,30.51,30.51,0,0,0-9.69-1.45h-3.88a3.85,3.85,0,0,1-2.42.48q-13.56,1.46-21.8,10.18a29.88,29.88,0,0,0-8.23,21.31v28.1q1.46,14.06,12.59,19.62t36.82,6.54q42.61,0,63.94,24.7l21.32,24.71Zm215.07-185.53a13.23,13.23,0,0,1-13.08,13.08h-97.85v74.11H2576a11.64,11.64,0,0,1,12.12,12.11v33.91a11.63,11.63,0,0,1-12.12,12.11h-74.11v88.17h97.85A13,13,0,0,1,2609,1735a11.8,11.8,0,0,1,3.87,9v33.43a13.23,13.23,0,0,1-13.08,13.08h-142.9a12.35,12.35,0,0,1-9.45-3.88,13,13,0,0,1-3.63-9.2V1464.49a12.21,12.21,0,0,1,3.63-9,12.8,12.8,0,0,1,9.45-3.63h142.9a13,13,0,0,1,9.21,3.63,11.83,11.83,0,0,1,3.87,9Zm275.62-1.94a10.33,10.33,0,0,1-4.11,8.24,15.15,15.15,0,0,1-9.94,3.39h-41.17V1778.4a13,13,0,0,1-3.63,9.2,11.81,11.81,0,0,1-9,3.88h-35.84a12,12,0,0,1-8.72-3.88,12.54,12.54,0,0,1-3.88-9.2V1507.61H2733q-6.3,0-10.18-3.15a10.33,10.33,0,0,1-3.87-8.48v-32.45a10.34,10.34,0,0,1,3.87-8.48q3.87-3.15,10.18-3.15h141.44a15.2,15.2,0,0,1,9.94,3.39,10.33,10.33,0,0,1,4.11,8.24Zm215.57,250.93a97.72,97.72,0,0,1-33.91,34.88,84.83,84.83,0,0,1-46,13.08h-16a90.11,90.11,0,0,1-46.5-12.84,94.76,94.76,0,0,1-47-82.11V1540.55a92,92,0,0,1,46.5-80.9q20.82-12.11,46.51-12.11h16a92.62,92.62,0,0,1,46.51,12.11,91.24,91.24,0,0,1,33.91,33.43q12.09,20.82,12.11,47l.48,159.86A92.39,92.39,0,0,1,3104.05,1746.91Zm392.36,31.49a12.4,12.4,0,0,1-12.59,12.59h-34.88a11.39,11.39,0,0,1-8.72-3.63,12.64,12.64,0,0,1-3.39-9v-201L3400,1695.56q-.49,2.43-5.33,6.3l-2.43,1.45a19.3,19.3,0,0,1-7.75,1.94h-31a19.34,19.34,0,0,1-7.75-1.94l-2.42-1.45a17.49,17.49,0,0,1-4.85-6.3l-36.81-118.2v201a12.43,12.43,0,0,1-3.63,8.72,11.32,11.32,0,0,1-8.48,3.87h-34.88a13.27,13.27,0,0,1-12.59-12.59V1464.49a11.8,11.8,0,0,1,3.87-9,12.43,12.43,0,0,1,8.72-3.63h55.22a18.25,18.25,0,0,1,9.93,2.91c3.07,1.93,4.77,4.2,5.09,6.78L3369,1604l44.08-142.42c.65-2.58,2.5-4.85,5.57-6.78a18.26,18.26,0,0,1,9.94-2.91h55.22a12.4,12.4,0,0,1,12.59,12.59Zm219.44-306.15L3658.69,1619a102,102,0,0,0-5.82,23.26v138a11.68,11.68,0,0,1-4.6,9.21,16.4,16.4,0,0,1-10.9,3.87H3602a15.71,15.71,0,0,1-10.41-3.87,11.66,11.66,0,0,1-4.61-9.21v-138a92.65,92.65,0,0,0-6.78-23.26L3524,1472.25a13.89,13.89,0,0,1-1.45-6.3,13.28,13.28,0,0,1,4.84-10.17,16.74,16.74,0,0,1,11.63-4.36h30q10.65,0,16.47,10.17L3618,1558a3.26,3.26,0,0,0,2.42,1c.32,0,.8-.32,1.45-1l33.43-96.4a14.27,14.27,0,0,1,5.57-7.27,15.18,15.18,0,0,1,9-2.9h30.52a16,16,0,0,1,11.86,4.6,14.37,14.37,0,0,1,4.61,10.41ZM4207,1637.54c-6.94-6.68-13.27-13.77-20.6-20.17-4.32-3.76-7.35-6.92-2.74-11.61.26-.26.25-.69.35-1,2.07-6.85,4.06-13.72,6.25-20.55a79.1,79.1,0,0,1,3.34-7.51,9.2,9.2,0,0,0-9.43-3.39c-4.47.87-9.7,1.48-12.91,3.68-6,4.12-13.57,4.65-20.24,7.08-5.12,1.86-10.34,2.2-14.33-2a2.65,2.65,0,0,0-1.27-.43c-5.32-.89-8.93-3.72-12.54-6.57a10.7,10.7,0,0,0-3.26-1.9c-5.21-1.7-10.1-3.78-13.63-7.28-1.83-1.81-4.1-1.83-6.28-1.14-3.43,1.08-5,5.12-3.51,7.89.9,1.65,2.35,3.32,2.43,5q.61,12.27.47,24.56c0,1.38-1.2,3.55-2.59,4-8.09,2.66-13.76,7.89-21,11.43a89.78,89.78,0,0,0-13.43,8.37c-4.11,3-3,6.49,2.37,8,3.7,1,7.58,1.7,11.38,2.51,5.82,1.23,11.67,2.41,17.47,3.7a68.55,68.55,0,0,1,8.48,2.26c2.45.89,5.72,1.83,6.7,3.44,3,5,5.11,10.36,7.6,15.57,2.16,4.53,4.07,9.15,6.67,13.53,3.38,5.69,8,6,12.73.9,6.78-7.44,13.39-15,19.53-22.77,2.94-3.73,6.47-5.17,11.95-5.14,11,.06,22.08-.25,33.12-.41,3.27,0,6.89.26,8.68-2.52S4209.48,1639.91,4207,1637.54Z" transform="translate(-109.42 -63.26)"/><path d="M803.2,2742.61c18.3,2.61,42.12-22.29,52.3-35.25,13.08-16.66,22.41-36,33-54.29,19.62-33.83,40.78-66.73,59.06-101.33a902.83,902.83,0,0,0,47.23-104.62c6.87-18.35,13.19-36.93,18.66-55.75,11-37.41,11-74.11-12.94-108.26,8.19-3.48,15.9-6.52,23.41-10,18.13-8.38,35.13-18.59,48.81-33.35,6.65-7.19,9.89-15.74,6.17-25.92-3.49-9.57-11.13-12.48-20.06-14.2-13-2.51-25.34.71-38.59,4.86,2-4.42,3.51-7.76,4.93-11.15,5.35-12.82,11-25.57,13.47-39.36,1.51-8.4,2.63-17.23-5.44-22.86-8.26-5.77-16-.9-23.14,3.51-13.82,8.52-24.54,20.25-34.32,34.79-1.46-5.35-2.45-9.65-3.83-13.83-3.25-9.87-6.26-19.91-14.08-27.43-12-11.49-28.19-6.83-32,9.34a56,56,0,0,0-1,17.68c.87,9.89,1.78,19.78,2.79,31-9.37-9-17.28-19.8-28.42-26.88-10.8-6.85-28.38-7.09-30.14,9.38-.44,4.11.41,8.25,1.45,12.26,3.46,13.22,9.11,25.73,15.18,37.93,1.91,3.83,15.26,35.59,17.84,35.16-4.4.73-8.07,1.58-11.8,1.93-28.48,2.7-47.1,18-58.12,44-30.48,72-46.67,149.07-56.45,226.41-7.3,57.7-27.82,167.75,4.54,205.23C786.15,2736.76,796.55,2741.66,803.2,2742.61ZM798.15,2505c.29-2.39.22-4.87,2.19-7.6,13.86,3.4,27.83,7.41,42.18,9.49a101.1,101.1,0,0,0,14.55,1c3.95,0,8.08-1.43,8.7-6.4a10.16,10.16,0,0,0-3.82-8.78c-3.5-3-7.8-4.5-12-6.2A204.44,204.44,0,0,0,802.77,2474c9.64-45.37,24.1-88.62,40.46-131,17.46-2.23,33.84,5.08,50.83,5.26a6.34,6.34,0,0,0,4.35-10.95c-12.07-11.75-27.44-17.32-44.7-19.3,9.28-32.41,25.41-44.79,57.28-44.83a171.25,171.25,0,0,1,40.34,4.86,58.42,58.42,0,0,1,24.88,12.57c15.93,13.64,22.55,31.32,22.95,51.73.41,20.75-5.79,48.37-16.57,74.45-11.9-10-26-14.87-40.67-18.53a61.85,61.85,0,0,0-20.27-1.85c-4.84.41-9.54,1.66-10.5,6.85s2.58,8.47,7,10.3a164.58,164.58,0,0,0,30,8.67,112.2,112.2,0,0,1,28.17,10.09c-8.13,32.91-64.86,153.78-87.85,187.12-7.78-3.93-14.5-8.34-22.4-10.28a46.93,46.93,0,0,0-12.4-1.4c-4.56.11-8.29,1.86-9.53,6.54s1.21,8.1,4.91,10.62c4.37,3,9.44,4.42,14.38,6s10,2.91,16,4.64c-2.3,4.3-4.09,8.24-6.39,11.85-11,17.27-46,70.55-52.29,74.34-14.54,8.73-29,5.07-34-5C765.62,2674.19,795.45,2527.84,798.15,2505ZM481.51,2273.12c7.51,3.47,15.22,6.51,23.42,10-24,34.15-24,70.85-12.95,108.26,5.47,18.82,11.79,37.4,18.67,55.75a901.08,901.08,0,0,0,47.22,104.62c18.29,34.6,39.44,67.5,59.06,101.33,10.58,18.26,19.91,37.63,33,54.29,10.18,13,34,37.86,52.3,35.25,6.65-1,17-5.85,21.44-10.93,32.36-37.48,11.85-147.53,4.55-205.23-9.79-77.34-26-154.38-56.46-226.41-11-26.05-29.64-41.34-58.12-44-3.72-.35-7.4-1.2-11.79-1.93,2.57.43,15.93-31.33,17.83-35.16,6.07-12.2,11.72-24.71,15.18-37.93,1-4,1.9-8.15,1.46-12.26-1.76-16.47-19.35-16.23-30.15-9.38-11.14,7.08-19,17.83-28.42,26.88,1-11.24,1.92-21.13,2.79-31a55.73,55.73,0,0,0-.95-17.68c-3.8-16.17-20-20.83-32-9.34-7.82,7.52-10.83,17.56-14.08,27.43-1.38,4.18-2.37,8.48-3.83,13.83-9.78-14.54-20.5-26.27-34.32-34.79-7.16-4.41-14.88-9.28-23.14-3.51-8.07,5.63-7,14.46-5.43,22.86,2.49,13.79,8.11,26.54,13.47,39.36,1.41,3.39,3,6.73,4.92,11.15-13.25-4.15-25.57-7.37-38.59-4.86-8.93,1.72-16.57,4.63-20.06,14.2-3.72,10.18-.48,18.73,6.17,25.92C446.38,2254.53,463.38,2264.74,481.51,2273.12Zm47.7,17.48A58.4,58.4,0,0,1,554.1,2278a171.17,171.17,0,0,1,40.33-4.86c31.87,0,48,12.42,57.28,44.83-17.26,2-32.63,7.55-44.7,19.3a6.34,6.34,0,0,0,4.35,10.95c17-.18,33.37-7.49,50.83-5.26,16.37,42.35,30.82,85.6,40.46,131a204.44,204.44,0,0,0-47.19,12.63c-4.19,1.7-8.49,3.22-12,6.2a10.19,10.19,0,0,0-3.82,8.78c.62,5,4.75,6.39,8.71,6.4a101.06,101.06,0,0,0,14.54-1c14.36-2.08,28.32-6.09,42.18-9.49,2,2.73,1.9,5.21,2.19,7.6,2.71,22.8,32.53,169.15,11.35,211.78-5,10-19.42,13.69-34,5-6.31-3.79-41.28-57.07-52.29-74.34-2.3-3.61-4.09-7.55-6.39-11.85,6-1.73,11-3,16-4.64s10-3.07,14.38-6c3.7-2.52,6.14-5.95,4.91-10.62s-5-6.43-9.53-6.54a46.93,46.93,0,0,0-12.4,1.4c-7.9,1.94-14.61,6.35-22.4,10.28-23-33.34-79.72-154.21-87.85-187.12a112.34,112.34,0,0,1,28.17-10.09,164.58,164.58,0,0,0,30-8.67c4.44-1.83,8-5,7-10.3s-5.66-6.44-10.5-6.85a61.88,61.88,0,0,0-20.27,1.85c-14.65,3.66-28.77,8.5-40.67,18.53-10.78-26.08-17-53.7-16.57-74.45C506.66,2321.92,513.28,2304.24,529.21,2290.6Zm393.1,930.9H587.69a16.08,16.08,0,0,0-16.05,16h0a16.09,16.09,0,0,0,16.05,16H922.31a16.09,16.09,0,0,0,16-16h0A16.08,16.08,0,0,0,922.31,3221.5Zm296.9-462.17H290.78a29.76,29.76,0,1,0,0,59.51h928.43a29.76,29.76,0,0,0,0-59.51ZM594.15,3212.76h321.7c160.85-59,274.6-204,274.6-373.41H319.55C319.55,3008.75,433.3,3153.72,594.15,3212.76Zm97.09-286.3c22.89,8.4,40.3,25,59.8,40.76,7.09-12.82,13.08-24.39,21.68-34.25,11.78-13.49,25.83-22.87,44.22-24.63,24.68-2.37,42,12.29,43.35,37.2a77.33,77.33,0,0,1-8.09,39.35c-17.21,34.36-66.83,127.89-72.48,133C770.18,3126.57,661,3058,650,2960.24,646.63,2930.26,662.74,2916,691.24,2926.46Z" transform="translate(-109.42 -63.26)"/><path d="M3341.5,2273.12c7.51,3.47,15.22,6.51,23.42,10-24,34.15-24,70.85-13,108.26,5.47,18.82,11.79,37.4,18.67,55.75a901.08,901.08,0,0,0,47.22,104.62c18.29,34.6,39.44,67.5,59.06,101.33,10.58,18.26,19.91,37.63,33,54.29,10.19,13,34,37.86,52.31,35.25,6.64-1,17-5.85,21.43-10.93,32.36-37.48,11.85-147.53,4.55-205.23-9.79-77.34-26-154.38-56.46-226.41-11-26.05-29.63-41.34-58.12-44-3.72-.35-7.4-1.2-11.79-1.93,2.57.43,15.93-31.33,17.83-35.16,6.08-12.2,11.72-24.71,15.18-37.93,1-4,1.9-8.15,1.46-12.26-1.76-16.47-19.35-16.23-30.14-9.38-11.15,7.08-19.06,17.83-28.43,26.88,1-11.24,1.92-21.13,2.79-31a55.73,55.73,0,0,0-.95-17.68c-3.79-16.17-20-20.83-32-9.34-7.82,7.52-10.83,17.56-14.08,27.43-1.38,4.18-2.36,8.48-3.83,13.83-9.78-14.54-20.5-26.27-34.32-34.79-7.16-4.41-14.88-9.28-23.14-3.51-8.07,5.63-6.95,14.46-5.43,22.86,2.49,13.79,8.11,26.54,13.47,39.36,1.42,3.39,3,6.73,4.92,11.15-13.25-4.15-25.57-7.37-38.58-4.86-8.94,1.72-16.58,4.63-20.07,14.2-3.72,10.18-.48,18.73,6.18,25.92C3306.37,2254.53,3323.38,2264.74,3341.5,2273.12Zm47.7,17.48a58.4,58.4,0,0,1,24.89-12.57,171.17,171.17,0,0,1,40.33-4.86c31.87,0,48,12.42,57.28,44.83-17.26,2-32.63,7.55-44.69,19.3a6.33,6.33,0,0,0,4.35,10.95c17-.18,33.36-7.49,50.82-5.26,16.37,42.35,30.82,85.6,40.47,131a204.39,204.39,0,0,0-47.2,12.63c-4.19,1.7-8.48,3.22-12,6.2a10.18,10.18,0,0,0-3.81,8.78c.61,5,4.75,6.39,8.7,6.4a101.3,101.3,0,0,0,14.55-1c14.35-2.08,28.31-6.09,42.17-9.49,2,2.73,1.91,5.21,2.19,7.6,2.71,22.8,32.53,169.15,11.35,211.78-5,10-19.42,13.69-34,5-6.31-3.79-41.28-57.07-52.29-74.34-2.3-3.61-4.09-7.55-6.39-11.85,6-1.73,11.05-3,16-4.64s10-3.07,14.38-6c3.71-2.52,6.14-5.95,4.91-10.62s-5-6.43-9.53-6.54a46.93,46.93,0,0,0-12.4,1.4c-7.9,1.94-14.61,6.35-22.39,10.28-23-33.34-79.73-154.21-87.86-187.12a112.27,112.27,0,0,1,28.18-10.09,164.48,164.48,0,0,0,30-8.67c4.44-1.83,8-5,7-10.3s-5.66-6.44-10.5-6.85a61.88,61.88,0,0,0-20.27,1.85c-14.64,3.66-28.76,8.5-40.67,18.53-10.78-26.08-17-53.7-16.57-74.45C3366.66,2321.92,3373.27,2304.24,3389.2,2290.6Zm274,452c18.3,2.61,42.12-22.29,52.3-35.25,13.08-16.66,22.41-36,33-54.29,19.61-33.83,40.77-66.73,59.05-101.33a901.14,901.14,0,0,0,47.23-104.62c6.87-18.35,13.2-36.93,18.66-55.75,11.05-37.41,11-74.11-12.94-108.26,8.19-3.48,15.9-6.52,23.41-10,18.13-8.38,35.13-18.59,48.81-33.35,6.65-7.19,9.89-15.74,6.18-25.92-3.5-9.57-11.14-12.48-20.07-14.2-13-2.51-25.34.71-38.58,4.86,2-4.42,3.5-7.76,4.92-11.15,5.35-12.82,11-25.57,13.47-39.36,1.52-8.4,2.64-17.23-5.43-22.86-8.27-5.77-16-.9-23.15,3.51-13.82,8.52-24.54,20.25-34.31,34.79-1.47-5.35-2.46-9.65-3.84-13.83-3.25-9.87-6.25-19.91-14.08-27.43-12-11.49-28.19-6.83-32,9.34a56,56,0,0,0-.95,17.68c.87,9.89,1.78,19.78,2.79,31-9.37-9-17.28-19.8-28.42-26.88-10.8-6.85-28.38-7.09-30.14,9.38-.44,4.11.41,8.25,1.45,12.26,3.46,13.22,9.11,25.73,15.18,37.93,1.91,3.83,15.27,35.59,17.84,35.16-4.39.73-8.07,1.58-11.8,1.93-28.48,2.7-47.09,18-58.12,44-30.48,72-46.67,149.07-56.45,226.41-7.3,57.7-27.81,167.75,4.54,205.23C3646.14,2736.76,3656.54,2741.66,3663.19,2742.61Zm-5-237.57c.28-2.39.21-4.87,2.18-7.6,13.86,3.4,27.83,7.41,42.18,9.49a101.2,101.2,0,0,0,14.55,1c4,0,8.09-1.43,8.7-6.4a10.18,10.18,0,0,0-3.81-8.78c-3.51-3-7.8-4.5-12-6.2a204.66,204.66,0,0,0-47.2-12.63c9.64-45.37,24.1-88.62,40.47-131,17.45-2.23,33.83,5.08,50.82,5.26a6.34,6.34,0,0,0,4.35-10.95c-12.07-11.75-27.44-17.32-44.69-19.3,9.27-32.41,25.4-44.79,57.27-44.83a171.25,171.25,0,0,1,40.34,4.86,58.42,58.42,0,0,1,24.88,12.57c15.93,13.64,22.55,31.32,23,51.73.41,20.75-5.79,48.37-16.57,74.45-11.9-10-26-14.87-40.66-18.53a61.9,61.9,0,0,0-20.27-1.85c-4.85.41-9.55,1.66-10.5,6.85s2.58,8.47,7,10.3a164.58,164.58,0,0,0,30,8.67,112.41,112.41,0,0,1,28.18,10.09c-8.14,32.91-64.86,153.78-87.86,187.12-7.78-3.93-14.5-8.34-22.4-10.28a46.91,46.91,0,0,0-12.39-1.4c-4.57.11-8.3,1.86-9.53,6.54s1.2,8.1,4.9,10.62c4.37,3,9.44,4.42,14.38,6s10,2.91,16,4.64c-2.3,4.3-4.08,8.24-6.38,11.85-11,17.27-46,70.55-52.29,74.34-14.55,8.73-29,5.07-34-5C3625.62,2674.19,3655.44,2527.84,3658.15,2505Zm421,254.29H3150.77a29.76,29.76,0,1,0,0,59.51H4079.2a29.76,29.76,0,0,0,0-59.51Zm-625.06,453.43h321.7c160.85-59,274.6-204,274.6-373.41h-870.9C3179.54,3008.75,3293.29,3153.72,3454.14,3212.76Zm121.36-286.3c22.89,8.4,40.3,25,59.8,40.76,7.09-12.82,13.08-24.39,21.68-34.25,11.78-13.49,25.83-22.87,44.22-24.63,24.68-2.37,42,12.29,43.35,37.2a77.34,77.34,0,0,1-8.1,39.35c-17.2,34.36-66.82,127.89-72.47,133-9.54,8.66-118.71-59.92-129.72-157.67C3530.89,2930.26,3547,2916,3575.5,2926.46Zm206.8,295H3447.68a16.09,16.09,0,0,0-16,16h0a16.09,16.09,0,0,0,16,16H3782.3a16.1,16.1,0,0,0,16-16h0A16.09,16.09,0,0,0,3782.3,3221.5Z" transform="translate(-109.42 -63.26)"/></svg>


