<?xml version="1.0" standalone="no"?>
<!DOCTYPE svg PUBLIC "-//W3C//DTD SVG 20010904//EN"
 "http://www.w3.org/TR/2001/REC-SVG-20010904/DTD/svg10.dtd">
<svg version="1.0" xmlns="http://www.w3.org/2000/svg"
 width="3000.000000pt" height="3000.000000pt" viewBox="0 0 3000.000000 3000.000000"
 preserveAspectRatio="xMidYMid meet">

<g transform="translate(0.000000,3000.000000) scale(0.100000,-0.100000)"
fill="#000000" stroke="none">
<path d="M21375 26785 c-12 -5 -383 -32 -630 -45 -99 -5 -272 -10 -385 -10
-308 -1 -380 -26 -380 -132 0 -59 33 -141 75 -184 59 -61 94 -69 321 -66 166
3 192 1 197 -13 17 -42 17 -160 1 -350 -14 -165 -18 -335 -19 -790 -2 -550
-10 -828 -37 -1345 -15 -287 -15 -1126 1 -1234 19 -135 82 -208 208 -241 69
-19 122 -12 180 21 73 42 72 33 77 669 4 356 11 627 20 745 8 102 22 271 30
375 9 105 20 291 26 415 6 124 20 335 32 470 18 207 22 323 23 750 0 374 4
511 13 527 6 12 27 26 45 32 47 16 213 30 348 31 134 0 192 15 244 64 44 41
52 87 30 162 -19 67 -61 113 -121 133 -37 12 -277 26 -299 16z"/>
<path d="M14320 26231 c-107 -35 -204 -118 -294 -255 -30 -45 -128 -230 -218
-412 -91 -183 -189 -373 -219 -424 l-54 -91 -28 33 c-42 49 -135 209 -316 542
-179 329 -191 349 -252 413 -65 69 -100 91 -168 108 -100 26 -228 0 -281 -57
-36 -39 -49 -113 -60 -333 -6 -115 -22 -311 -35 -435 -14 -124 -30 -297 -36
-385 -11 -165 -13 -867 -4 -1380 3 -159 7 -429 9 -600 4 -344 20 -638 42 -760
27 -148 86 -229 188 -256 87 -23 156 14 203 108 l28 58 -3 190 c-2 105 4 438
13 740 8 303 20 793 26 1090 5 297 14 576 19 620 21 180 30 296 31 400 1 61 4
135 7 164 l7 55 26 -31 c15 -17 61 -96 104 -175 170 -312 264 -458 332 -518
55 -49 129 -80 191 -80 118 0 156 40 295 317 58 115 114 219 125 233 l19 24 7
-61 c12 -104 8 -322 -13 -748 -12 -225 -28 -626 -36 -890 -8 -264 -20 -532
-25 -595 -6 -63 -12 -214 -12 -335 -2 -232 10 -349 42 -420 76 -172 348 -193
414 -32 20 47 20 49 1 217 -15 142 -17 211 -11 422 23 833 41 1269 66 1530 11
117 24 317 30 443 12 251 18 320 55 620 42 345 57 506 58 640 2 143 -5 168
-67 233 -56 60 -147 92 -206 73z"/>
<path d="M16105 26123 c-45 -11 -83 -35 -95 -61 -7 -16 -15 -110 -21 -237 -4
-115 -13 -248 -19 -295 -6 -48 -8 -150 -4 -235 4 -106 1 -195 -10 -305 -30
-291 -40 -1085 -22 -1845 14 -605 18 -689 40 -860 29 -220 40 -270 66 -313 31
-50 65 -61 233 -74 l154 -12 49 25 c41 20 54 34 77 80 48 96 48 103 -8 1129
-22 401 -22 425 -13 895 9 506 29 829 48 808 13 -14 86 -232 123 -368 20 -71
66 -245 102 -385 36 -140 117 -430 180 -645 62 -214 130 -455 150 -535 20 -80
58 -221 84 -315 27 -93 56 -204 66 -245 10 -41 28 -96 41 -121 26 -52 91 -114
140 -135 66 -27 258 -10 318 29 61 40 101 134 148 347 62 284 76 359 87 480 7
69 25 211 41 315 40 266 48 343 65 650 19 339 19 607 0 800 -8 83 -17 229 -20
325 -11 325 -31 453 -102 659 -51 147 -81 192 -148 222 -82 37 -186 10 -233
-61 -29 -44 -26 -95 12 -194 15 -38 42 -154 61 -258 30 -163 38 -235 52 -502
21 -413 21 -1009 -1 -1204 -26 -236 -126 -923 -137 -943 -5 -10 -14 -19 -19
-19 -9 0 -41 79 -60 150 -6 25 -51 178 -100 340 -49 162 -167 565 -264 895
-96 330 -197 672 -224 760 -214 690 -307 967 -366 1083 -49 97 -122 152 -227
172 -52 10 -207 12 -244 3z"/>
<path d="M11440 26087 c-63 -33 -97 -101 -189 -382 -43 -132 -106 -316 -139
-410 -63 -181 -161 -488 -262 -825 -65 -218 -97 -297 -129 -317 -11 -7 -76
-19 -145 -27 -69 -8 -139 -22 -156 -31 -88 -46 -94 -192 -12 -278 32 -34 113
-77 151 -81 23 -3 26 -8 29 -43 4 -51 -84 -394 -178 -698 -135 -433 -220 -775
-220 -883 0 -48 4 -58 33 -86 41 -42 132 -76 202 -76 46 0 59 5 89 31 48 41
88 152 116 314 30 176 93 484 134 658 57 237 206 728 242 799 19 36 57 42 203
35 169 -9 238 -23 244 -50 11 -45 38 -312 62 -618 33 -426 59 -554 134 -663
61 -88 121 -105 227 -64 83 32 138 88 160 163 16 57 16 82 0 530 -29 789 -34
989 -46 1565 -24 1207 -28 1256 -120 1348 -96 97 -326 144 -430 89z m37 -1014
c10 -100 7 -580 -6 -744 -10 -128 -18 -156 -53 -178 -26 -16 -183 -26 -227
-14 -57 15 -58 27 -21 165 97 360 264 848 290 848 5 0 12 -35 17 -77z"/>
<path d="M19242 26085 c-52 -23 -99 -63 -148 -129 -69 -91 -108 -176 -199
-431 -46 -126 -106 -288 -135 -360 -74 -184 -105 -276 -155 -470 -114 -434
-163 -744 -191 -1195 -18 -298 -14 -459 15 -567 11 -40 23 -101 26 -135 12
-119 113 -419 192 -572 96 -184 266 -276 509 -276 163 0 277 46 357 144 37 44
201 299 256 398 37 66 160 440 190 580 30 142 39 269 48 688 11 525 10 642 -5
880 -17 277 -27 360 -62 530 -16 80 -43 224 -60 320 -60 335 -84 405 -163 477
-110 99 -369 164 -475 118z m301 -792 c51 -214 99 -637 100 -873 2 -260 -21
-1062 -33 -1165 -30 -266 -121 -528 -256 -738 -82 -127 -148 -180 -250 -201
-29 -7 -31 -5 -61 56 -80 164 -87 222 -80 643 10 541 25 676 127 1104 112 470
185 730 266 956 40 110 142 325 154 325 5 0 20 -48 33 -107z"/>
<path d="M8506 26048 c-61 -17 -130 -91 -147 -159 -18 -76 -17 -157 5 -197 26
-49 91 -108 152 -138 79 -39 153 -32 229 21 108 74 133 165 80 283 -29 64
-104 145 -163 176 -42 22 -108 28 -156 14z"/>
<path d="M8362 25336 c-48 -22 -59 -59 -87 -288 -51 -419 -56 -507 -64 -1049
-4 -289 -11 -531 -15 -537 -4 -6 -7 -109 -7 -229 0 -215 12 -349 56 -646 8
-53 22 -174 30 -267 18 -210 41 -286 101 -347 85 -84 278 -112 343 -49 69 66
79 159 50 471 -20 223 -22 302 -24 1135 -3 892 3 1147 30 1355 27 198 16 267
-55 348 -79 89 -268 143 -358 103z"/>
<path d="M15739 21240 c-506 -49 -923 -333 -1125 -766 -57 -120 -116 -300
-141 -420 -24 -122 -25 -417 0 -523 30 -134 60 -214 132 -356 168 -334 384
-589 785 -930 909 -773 1191 -1441 775 -1834 -124 -118 -324 -166 -529 -127
-109 21 -179 59 -262 141 -59 58 -80 89 -122 175 -28 58 -64 150 -79 205 -25
90 -28 116 -28 265 0 154 2 171 28 250 42 129 62 158 151 219 96 66 116 96
116 177 0 151 -111 316 -300 444 -113 77 -285 130 -420 130 -241 0 -530 -144
-688 -344 -242 -304 -316 -836 -176 -1266 36 -110 135 -302 212 -409 78 -109
244 -287 349 -372 294 -241 687 -409 1081 -463 140 -20 402 -20 542 -2 236 32
406 83 605 182 275 136 481 320 661 589 210 315 311 680 284 1020 -33 396
-198 711 -548 1046 -140 134 -268 233 -527 409 -329 223 -455 324 -676 542
-136 134 -203 221 -264 343 -68 137 -88 223 -88 385 -1 262 67 408 244 526
102 68 192 97 315 102 117 5 186 -7 272 -48 73 -34 165 -117 195 -175 45 -89
14 -220 -69 -294 -82 -72 -155 -78 -273 -21 -134 65 -179 52 -233 -65 -33 -72
-32 -221 1 -320 87 -260 255 -425 507 -497 65 -19 103 -23 214 -23 127 0 141
2 230 33 224 78 356 197 461 417 68 144 83 212 83 380 0 345 -114 625 -349
858 -220 218 -494 350 -837 402 -125 19 -391 27 -509 15z"/>
<path d="M20259 21240 c-504 -49 -923 -333 -1123 -762 -59 -126 -111 -278
-138 -402 -18 -83 -22 -134 -22 -286 0 -259 28 -375 149 -615 168 -333 385
-591 785 -930 909 -773 1191 -1441 775 -1834 -124 -118 -324 -166 -529 -127
-109 21 -179 59 -262 141 -59 58 -80 89 -122 175 -28 58 -64 150 -79 205 -25
90 -28 116 -28 265 0 154 2 171 28 250 42 129 62 158 151 219 96 66 116 96
116 177 0 116 -64 239 -181 350 -311 293 -739 295 -1102 6 -333 -265 -467
-883 -301 -1392 36 -110 135 -302 212 -409 78 -109 244 -287 349 -372 294
-241 687 -409 1081 -463 141 -20 413 -20 547 -1 238 33 403 83 600 181 275
136 481 320 661 589 210 315 311 680 284 1020 -33 396 -198 711 -548 1046
-140 134 -268 233 -527 409 -329 223 -455 324 -676 542 -136 134 -203 221
-264 343 -68 137 -88 223 -88 385 -1 202 37 324 135 435 53 60 164 132 251
163 85 30 241 41 328 23 124 -26 264 -123 312 -216 45 -89 14 -220 -69 -294
-82 -72 -155 -78 -273 -21 -134 65 -179 52 -233 -65 -33 -72 -32 -221 1 -320
87 -260 255 -425 507 -497 65 -19 103 -23 214 -23 127 0 141 2 230 33 224 78
356 197 461 417 68 144 83 212 83 380 0 215 -38 384 -125 553 -192 377 -580
635 -1059 707 -127 19 -393 27 -511 15z"/>
<path d="M9679 21138 c-69 -9 -130 -32 -288 -113 -233 -119 -476 -295 -694
-505 -272 -262 -434 -495 -677 -979 -155 -307 -262 -624 -566 -1678 -43 -150
-82 -266 -86 -260 -9 18 -35 198 -49 347 -15 166 -15 705 1 955 16 261 9 801
-14 975 -57 431 -155 669 -362 876 -160 159 -421 265 -793 321 -170 26 -792
26 -971 0 -292 -42 -452 -88 -677 -197 -229 -111 -379 -218 -505 -364 -199
-230 -314 -515 -325 -808 -9 -209 18 -336 107 -506 121 -234 341 -381 629
-423 300 -43 656 93 771 295 54 94 36 153 -68 220 -82 52 -129 104 -138 151
-20 108 12 244 87 373 44 73 204 234 344 346 389 309 713 456 917 416 119 -23
221 -98 272 -199 49 -96 81 -344 70 -546 -39 -783 -54 -1230 -54 -1670 0 -500
20 -762 85 -1096 68 -344 147 -522 293 -662 76 -72 162 -113 269 -129 194 -28
343 66 453 287 78 158 167 461 244 831 36 173 183 711 251 924 83 258 232 598
319 729 57 85 153 190 225 245 59 45 169 111 176 105 5 -5 -77 -480 -126 -728
-53 -272 -198 -941 -260 -1205 -188 -796 -230 -1047 -230 -1366 0 -324 33
-495 140 -715 94 -191 207 -339 357 -464 157 -130 331 -220 530 -272 76 -20
113 -24 249 -24 140 0 169 3 235 23 208 66 393 207 514 395 70 108 100 168
138 280 26 78 31 107 31 189 0 81 -4 104 -24 145 -46 92 -126 115 -260 74
-192 -59 -327 -52 -477 22 -205 101 -280 315 -298 847 -6 202 6 525 27 720 29
269 101 766 229 1585 33 209 71 468 85 575 14 107 50 341 80 520 76 450 96
617 98 800 1 164 -7 206 -54 271 -39 56 -126 81 -230 67z"/>
<path d="M26534 21050 c-93 -24 -164 -61 -337 -173 -283 -183 -387 -266 -473
-380 -88 -117 -152 -284 -186 -492 -10 -60 -12 -198 -10 -544 1 -299 -2 -487
-9 -525 -16 -94 -79 -214 -148 -284 -133 -135 -342 -185 -487 -116 -52 25
-102 90 -125 164 -30 92 -37 303 -15 465 115 857 187 1467 182 1530 -17 196
-138 277 -369 247 -129 -16 -199 -40 -447 -149 -352 -156 -696 -334 -885 -458
-156 -102 -380 -271 -465 -352 -200 -188 -386 -482 -466 -738 -37 -118 -38
-123 -38 -285 -1 -143 2 -176 22 -245 36 -125 92 -217 191 -316 143 -142 285
-196 486 -186 171 9 303 66 421 183 111 110 163 228 171 390 7 123 -12 181
-67 204 -31 13 -41 11 -127 -19 l-93 -33 -45 22 c-52 25 -89 66 -119 130 -32
68 -28 249 8 384 53 199 172 364 311 431 87 43 176 47 249 11 98 -48 165 -142
208 -293 19 -65 22 -103 22 -228 0 -178 -8 -240 -85 -620 -89 -446 -95 -560
-39 -731 75 -223 292 -411 559 -481 117 -31 369 -43 503 -24 198 28 388 100
516 195 34 25 63 46 65 46 2 0 -21 -136 -50 -302 -81 -460 -140 -665 -237
-826 -152 -250 -353 -382 -586 -382 -148 0 -309 60 -404 150 -72 68 -98 124
-98 211 0 67 6 85 72 235 30 68 22 112 -30 164 -47 47 -113 82 -201 106 -91
26 -338 26 -429 1 -205 -56 -403 -204 -528 -396 -253 -387 -205 -852 129
-1255 176 -213 454 -400 721 -485 135 -43 248 -61 418 -68 410 -16 808 93
1102 304 170 121 379 346 522 561 175 263 357 717 477 1190 98 388 165 768
238 1357 45 361 58 450 135 935 30 190 66 440 81 555 15 116 47 334 72 485 43
262 45 281 41 435 -6 205 -25 252 -122 296 -51 23 -111 23 -202 -1z"/>
<path d="M12170 21040 c-542 -76 -1075 -403 -1362 -835 -124 -187 -220 -423
-253 -624 -25 -148 -17 -367 19 -506 64 -248 226 -471 435 -600 l61 -38 -123
-67 c-507 -276 -872 -678 -968 -1065 -29 -116 -36 -323 -15 -445 54 -308 235
-630 466 -828 197 -169 457 -293 735 -352 128 -27 406 -38 555 -21 361 42 748
192 1026 399 322 239 557 612 629 997 25 132 16 375 -18 506 -54 207 -160 340
-344 434 -237 120 -517 91 -679 -70 -82 -82 -80 -149 6 -212 97 -72 119 -95
147 -150 27 -55 28 -65 28 -193 -1 -180 -17 -224 -124 -331 -131 -131 -283
-191 -491 -193 -94 0 -129 4 -190 22 -141 44 -236 109 -305 211 -76 114 -125
310 -110 451 20 194 99 414 205 571 48 70 148 162 209 193 125 64 284 73 428
26 40 -13 76 -20 80 -16 5 4 10 98 11 208 3 160 1 202 -10 209 -7 5 -35 9 -63
9 -150 1 -317 72 -413 175 -164 175 -202 407 -112 676 112 336 341 559 632
620 112 23 172 24 257 4 195 -46 303 -173 303 -357 0 -231 -153 -438 -323
-438 -67 0 -142 39 -163 85 -21 43 -20 46 9 132 30 86 26 117 -18 140 -80 41
-213 1 -319 -96 -181 -165 -175 -475 12 -662 172 -172 516 -223 813 -120 327
113 592 394 711 752 98 294 87 491 -42 758 -154 318 -455 534 -867 621 -114
24 -361 34 -465 20z"/>
<path d="M6184 20460 c-212 -31 -616 -280 -869 -535 -123 -124 -167 -190 -191
-286 -15 -61 -15 -70 0 -123 18 -61 41 -88 183 -213 172 -152 197 -328 122
-863 -48 -349 -179 -891 -275 -1143 -109 -285 -268 -486 -438 -555 -308 -125
-594 7 -672 309 -31 120 -1 298 68 404 17 28 80 98 139 157 86 85 109 114 115
143 19 104 -27 175 -114 175 -132 0 -334 -51 -477 -119 -161 -77 -339 -226
-432 -362 -264 -384 -266 -1009 -5 -1443 90 -150 278 -324 453 -420 305 -167
788 -193 1173 -64 326 109 561 301 770 628 115 180 266 530 340 787 115 402
214 1021 271 1708 62 754 82 947 126 1250 24 162 30 230 26 296 -9 136 -53
218 -137 252 -48 20 -115 26 -176 17z"/>
<path d="M25495 14616 c-58 -26 -154 -105 -179 -148 -30 -52 -41 -99 -56 -238
-6 -58 -29 -229 -50 -380 -22 -151 -44 -349 -50 -439 -6 -89 -17 -206 -25
-260 -30 -202 -55 -486 -65 -749 -16 -394 -4 -503 64 -580 41 -46 106 -76 149
-66 101 21 191 97 360 304 61 74 135 162 166 195 104 113 237 304 538 770 116
180 220 359 297 513 25 50 50 92 55 92 35 0 60 -1380 32 -1820 -31 -503 -104
-930 -206 -1206 -59 -160 -131 -298 -187 -359 -79 -86 -130 -84 -215 8 -68 74
-83 113 -104 281 -11 83 -24 166 -30 184 -57 174 -353 182 -399 11 -30 -107
11 -365 90 -567 83 -215 240 -364 424 -402 145 -30 297 36 473 204 174 166
221 253 317 586 170 591 203 817 227 1540 10 327 9 507 -12 1110 -10 319 -21
511 -44 770 -8 91 -17 206 -20 255 -20 279 -101 385 -296 385 -104 0 -133 -43
-169 -251 -12 -68 -38 -173 -58 -234 -71 -218 -291 -620 -578 -1057 -71 -108
-155 -236 -186 -285 -74 -113 -95 -139 -104 -130 -11 10 21 320 51 501 22 130
61 425 110 811 23 188 29 325 15 390 -23 113 -91 214 -172 256 -43 22 -119 24
-163 5z"/>
<path d="M24063 14571 c-39 -24 -77 -81 -93 -137 -16 -54 -8 -2156 12 -2994
15 -682 16 -892 4 -1020 -8 -88 -7 -99 14 -149 29 -65 79 -105 157 -122 88
-20 582 12 818 53 272 47 385 112 385 222 0 32 -7 46 -43 81 -70 71 -119 77
-362 45 -219 -29 -407 -37 -422 -18 -29 35 -60 1032 -48 1568 4 190 9 534 10
765 1 355 6 471 28 749 30 370 34 573 12 655 -35 134 -104 217 -233 283 -85
42 -188 51 -239 19z"/>
<path d="M19145 14545 c-28 -12 -638 -47 -905 -51 -376 -6 -451 -19 -479 -80
-28 -61 3 -177 64 -240 59 -61 94 -69 321 -66 166 3 192 1 197 -13 17 -42 17
-160 1 -350 -14 -165 -18 -335 -19 -790 -2 -550 -10 -828 -37 -1345 -15 -287
-15 -1126 1 -1234 19 -135 82 -208 208 -241 69 -19 122 -12 180 21 73 42 72
33 77 669 4 358 11 627 20 745 8 102 22 271 30 375 9 105 20 291 26 415 6 124
20 338 32 475 18 211 22 329 23 750 0 372 4 506 13 522 6 12 27 26 45 32 47
16 213 30 348 31 134 0 192 15 244 64 44 41 52 87 30 162 -19 67 -61 113 -121
133 -37 12 -278 26 -299 16z"/>
<path d="M11425 14441 c-127 -36 -238 -104 -312 -190 -111 -130 -232 -390
-308 -661 -124 -443 -210 -1350 -176 -1860 6 -96 16 -270 21 -386 12 -252 50
-568 83 -679 33 -110 82 -224 126 -292 103 -159 302 -273 475 -273 97 1 146
13 251 65 257 127 423 342 540 697 51 157 95 360 95 439 0 67 -21 156 -46 200
-27 47 -93 79 -164 79 -124 0 -158 -49 -191 -272 -35 -245 -66 -364 -134 -514
-64 -140 -182 -291 -252 -320 -103 -44 -151 70 -202 476 -29 232 -49 928 -33
1188 43 728 70 923 168 1221 76 232 176 402 314 536 86 82 102 83 129 10 12
-31 21 -61 21 -68 0 -21 56 -131 76 -149 28 -25 88 -48 124 -48 67 0 133 53
158 129 28 82 1 249 -60 364 -70 132 -238 267 -387 311 -74 22 -237 20 -316
-3z"/>
<path d="M20372 14169 c-73 -12 -149 -47 -172 -77 -24 -30 -25 -72 -5 -169 30
-145 55 -348 90 -738 39 -438 49 -528 100 -870 18 -126 46 -327 60 -445 15
-118 58 -417 97 -665 38 -247 74 -493 79 -545 5 -52 18 -140 29 -195 10 -55
37 -212 59 -350 22 -137 47 -270 56 -295 35 -100 117 -144 270 -143 155 0 236
36 280 123 36 70 85 248 140 501 25 118 72 329 105 469 32 140 65 305 74 365
9 61 21 144 27 185 6 41 41 215 79 385 38 171 83 378 100 460 36 173 108 461
145 585 37 125 61 182 131 310 72 132 86 179 72 246 -12 56 -69 118 -139 152
-86 42 -149 22 -213 -65 -48 -65 -85 -164 -145 -383 -138 -507 -214 -838 -335
-1470 -77 -404 -137 -674 -151 -688 -3 -3 -7 -3 -10 0 -3 2 -23 146 -45 319
-36 287 -61 532 -135 1304 -31 316 -65 584 -100 786 -14 79 -43 254 -65 387
-62 373 -98 457 -215 501 -64 24 -188 34 -263 20z"/>
<path d="M12965 14061 c-99 -9 -190 -22 -202 -29 -34 -19 -62 -66 -73 -123
-17 -86 -39 -342 -65 -759 -14 -217 -37 -521 -50 -675 -38 -438 -43 -560 -70
-1575 -7 -251 8 -642 30 -785 18 -118 60 -215 125 -288 66 -74 150 -106 225
-86 44 12 130 89 176 158 l31 46 -6 160 c-3 88 -12 255 -20 370 -34 465 -40
653 -28 799 7 77 17 145 23 150 27 27 213 -231 374 -517 104 -184 188 -300
301 -414 133 -135 241 -188 331 -163 84 24 126 78 126 165 0 29 -8 65 -18 85
-10 19 -77 96 -149 170 -163 168 -237 267 -449 595 -92 143 -182 279 -199 302
-28 38 -30 45 -19 67 7 13 45 50 85 82 290 237 542 472 641 599 192 246 297
472 325 699 34 271 -43 477 -261 698 -129 129 -251 204 -415 254 -85 26 -99
28 -339 30 -175 2 -304 -3 -430 -15z m609 -352 c190 -33 402 -169 457 -295
104 -233 -42 -575 -409 -956 -254 -264 -431 -410 -523 -432 l-27 -6 -4 81 c-2
45 0 111 4 148 4 36 12 280 17 541 12 542 28 781 58 832 24 43 105 86 180 97
62 10 151 6 247 -10z"/>
<path d="M9010 13991 c-107 -35 -204 -118 -294 -255 -30 -45 -126 -225 -213
-401 -87 -176 -185 -367 -218 -423 l-60 -104 -28 34 c-43 50 -135 209 -316
542 -179 329 -191 349 -252 413 -65 69 -100 91 -168 108 -100 26 -228 0 -281
-57 -36 -39 -49 -113 -60 -333 -6 -115 -22 -311 -35 -435 -14 -124 -30 -297
-36 -385 -11 -165 -13 -867 -4 -1380 3 -159 7 -429 9 -600 4 -343 20 -638 42
-760 20 -111 57 -182 117 -222 124 -83 246 -33 293 121 12 41 14 82 8 216 -3
92 1 411 10 720 9 305 21 798 27 1095 5 297 14 576 19 620 21 180 30 296 31
400 1 61 4 135 7 164 l7 55 26 -31 c15 -17 61 -96 104 -175 170 -312 264 -458
332 -518 55 -49 129 -80 191 -80 118 0 156 40 295 317 58 115 114 219 125 233
l19 24 7 -61 c12 -104 8 -322 -13 -748 -12 -225 -28 -626 -36 -890 -8 -264
-20 -532 -25 -595 -6 -63 -11 -214 -12 -335 -2 -232 10 -349 42 -420 76 -172
348 -193 414 -32 20 47 20 49 1 217 -15 142 -17 211 -11 422 23 833 41 1269
66 1530 11 117 24 317 30 443 12 251 18 320 55 620 42 345 57 506 58 640 2
143 -5 168 -67 233 -56 60 -147 92 -206 73z"/>
<path d="M15240 13924 c-95 -12 -257 -47 -296 -66 -84 -39 -134 -121 -178
-291 -33 -129 -53 -318 -76 -717 -11 -190 -24 -403 -30 -475 -6 -71 -25 -384
-43 -695 -35 -616 -39 -942 -20 -1435 13 -317 17 -338 97 -413 90 -85 176 -93
423 -36 121 28 193 38 305 44 208 11 275 44 299 147 10 45 -3 100 -31 136 -12
14 -49 40 -84 57 -79 39 -137 41 -321 10 -134 -22 -219 -20 -228 4 -31 81 -33
498 -3 706 10 69 16 190 17 355 1 302 6 355 39 391 51 54 89 64 283 79 290 22
347 57 287 176 -73 142 -202 197 -429 183 l-114 -7 7 129 c4 71 18 242 31 379
22 232 36 391 69 752 9 97 18 150 29 167 21 32 61 42 210 55 185 16 231 50
225 167 -5 84 -38 133 -115 171 -54 26 -67 28 -188 29 -71 1 -146 0 -165 -2z"/>
<path d="M23090 13924 c-95 -12 -257 -47 -296 -66 -84 -39 -134 -121 -178
-291 -33 -129 -53 -318 -76 -717 -11 -190 -24 -403 -30 -475 -6 -71 -25 -384
-43 -695 -35 -616 -39 -942 -20 -1435 13 -317 17 -338 97 -413 90 -85 176 -93
423 -36 121 28 193 38 305 44 208 11 275 44 299 147 10 45 -3 100 -31 136 -12
14 -49 40 -84 57 -79 39 -137 41 -321 10 -134 -22 -219 -20 -228 4 -31 81 -33
498 -3 706 10 69 16 190 17 355 1 302 6 355 39 391 48 51 93 65 234 75 229 15
296 28 338 66 37 33 12 115 -59 194 -75 83 -189 114 -372 103 l-114 -7 7 129
c4 71 18 242 31 379 22 232 36 391 69 752 9 97 18 150 29 167 21 32 61 42 210
55 185 16 231 50 225 167 -5 84 -38 133 -115 171 -54 26 -67 28 -188 29 -71 1
-146 0 -165 -2z"/>
<path d="M6140 13847 c-63 -33 -96 -101 -194 -397 -47 -140 -121 -361 -165
-490 -44 -129 -112 -341 -152 -470 -149 -494 -158 -519 -192 -556 -31 -33 -35
-34 -159 -48 -70 -8 -141 -22 -158 -31 -88 -46 -94 -192 -12 -278 32 -34 113
-77 151 -81 23 -3 26 -8 29 -43 4 -51 -85 -398 -178 -698 -134 -431 -220 -775
-220 -883 0 -48 4 -58 33 -86 41 -42 132 -76 202 -76 46 0 59 5 89 31 48 41
88 152 116 314 30 176 93 484 134 658 57 237 206 728 242 799 19 36 57 42 203
35 169 -9 238 -23 244 -50 11 -45 38 -312 62 -618 33 -426 59 -554 134 -663
61 -88 121 -105 227 -64 83 32 138 88 160 163 16 57 16 82 0 530 -29 789 -34
989 -46 1565 -24 1207 -28 1256 -120 1348 -96 97 -326 144 -430 89z m37 -1014
c10 -100 7 -580 -6 -744 -10 -128 -18 -156 -53 -178 -26 -16 -183 -26 -227
-14 -57 15 -58 27 -21 165 97 360 264 848 290 848 5 0 12 -35 17 -77z"/>
<path d="M17280 13847 c-63 -33 -97 -101 -189 -382 -43 -132 -106 -316 -139
-410 -63 -181 -161 -488 -262 -825 -65 -218 -97 -297 -129 -317 -11 -7 -76
-19 -145 -27 -69 -8 -139 -22 -156 -31 -88 -46 -94 -192 -12 -278 32 -34 113
-77 151 -81 23 -3 26 -8 29 -43 4 -51 -84 -394 -178 -698 -135 -433 -220 -775
-220 -883 0 -48 4 -58 33 -86 41 -42 132 -76 202 -76 46 0 59 5 89 31 48 41
88 152 116 314 30 176 93 484 134 658 57 237 206 728 242 799 19 36 57 42 203
35 169 -9 238 -23 244 -50 11 -45 38 -312 62 -618 33 -426 59 -554 134 -663
61 -88 121 -105 227 -64 83 32 138 88 160 163 16 57 16 82 0 530 -29 789 -34
989 -46 1565 -24 1207 -28 1256 -120 1348 -96 97 -326 144 -430 89z m37 -1014
c10 -100 7 -580 -6 -744 -10 -128 -18 -156 -53 -178 -26 -16 -183 -26 -227
-14 -57 15 -58 27 -21 165 97 360 264 848 290 848 5 0 12 -35 17 -77z"/>
<path d="M3206 13808 c-61 -17 -130 -91 -147 -159 -18 -76 -17 -157 5 -197 26
-49 91 -108 152 -138 79 -39 153 -32 229 21 108 74 133 165 80 283 -29 64
-104 145 -163 176 -42 22 -108 28 -156 14z"/>
<path d="M19616 13808 c-61 -17 -130 -91 -147 -159 -18 -76 -17 -157 5 -197
26 -49 91 -108 152 -138 79 -39 153 -32 229 21 108 74 133 165 80 283 -29 64
-104 145 -163 176 -42 22 -108 28 -156 14z"/>
<path d="M3062 13096 c-48 -22 -59 -59 -87 -288 -51 -419 -56 -507 -64 -1049
-4 -289 -11 -531 -15 -537 -4 -6 -7 -109 -7 -229 0 -215 12 -349 56 -646 8
-53 22 -174 30 -267 18 -210 41 -286 101 -347 85 -84 278 -112 343 -49 69 66
79 159 50 471 -20 223 -22 302 -24 1135 -3 892 3 1147 30 1355 27 198 16 267
-55 348 -79 89 -268 143 -358 103z"/>
<path d="M19472 13096 c-48 -22 -59 -59 -87 -288 -51 -419 -56 -507 -64 -1049
-4 -289 -11 -531 -15 -537 -4 -6 -7 -109 -7 -229 0 -215 12 -349 56 -646 8
-53 22 -174 30 -267 18 -210 41 -286 101 -347 85 -84 278 -112 343 -49 69 66
79 159 50 471 -20 223 -22 302 -24 1135 -3 892 3 1147 30 1355 27 198 16 267
-55 348 -79 89 -268 143 -358 103z"/>
<path d="M21100 8914 c-162 -18 -264 -46 -370 -99 -221 -112 -358 -276 -444
-535 -83 -249 -70 -473 39 -690 114 -228 237 -377 500 -604 404 -348 605 -626
640 -883 20 -154 -81 -329 -222 -384 -67 -26 -210 -32 -280 -11 -112 33 -198
133 -249 288 -26 79 -29 103 -29 214 0 156 24 232 88 283 104 84 101 80 99
136 -3 147 -166 312 -353 356 -121 28 -234 13 -357 -49 -194 -98 -302 -260
-347 -520 -52 -304 43 -601 272 -846 188 -200 419 -330 707 -398 98 -23 133
-26 291 -26 193 -1 273 11 425 61 334 112 599 384 710 729 89 279 51 579 -103
811 -116 174 -271 317 -552 509 -221 151 -286 204 -426 343 -163 164 -224 276
-236 437 -11 145 28 266 112 343 147 136 378 142 509 15 44 -43 56 -70 56
-128 0 -77 -76 -156 -149 -156 -20 0 -60 11 -89 25 -87 40 -114 32 -147 -48
-46 -111 20 -317 137 -423 84 -75 258 -132 368 -119 245 28 424 206 461 460
14 94 -1 237 -37 344 -92 275 -361 488 -689 546 -85 15 -277 26 -335 19z"/>
<path d="M6352 8879 c-287 -25 -584 -119 -771 -243 -265 -177 -439 -490 -418
-756 19 -231 117 -393 290 -476 252 -121 639 -25 696 173 13 44 -10 88 -58
112 -125 64 -175 166 -151 304 25 133 122 260 278 364 226 151 505 206 707
140 245 -81 399 -269 487 -595 29 -111 37 -439 14 -567 -51 -277 -144 -458
-263 -516 -53 -25 -136 -30 -195 -10 -31 10 -37 16 -33 34 6 28 27 226 65 607
17 168 40 379 53 470 12 91 22 215 22 275 0 96 -3 114 -22 146 -53 84 -180 87
-337 8 -136 -69 -352 -231 -437 -327 -119 -136 -116 -237 13 -340 36 -28 72
-62 81 -75 64 -99 63 -352 -3 -672 -27 -132 -90 -375 -130 -500 -86 -269 -220
-429 -389 -466 -108 -23 -237 25 -300 111 -103 142 -71 328 81 480 69 69 85
104 69 153 -16 48 -46 61 -128 55 -147 -11 -310 -93 -438 -222 -126 -126 -190
-248 -220 -422 -29 -168 -14 -322 45 -470 82 -205 232 -349 448 -430 139 -52
234 -67 386 -61 148 5 241 29 377 97 318 157 512 423 629 860 l12 45 34 -149
c65 -290 144 -533 240 -732 128 -269 352 -505 588 -619 153 -74 225 -90 406
-90 119 0 170 5 220 19 132 37 257 116 332 209 22 29 46 51 52 50 6 -1 56 -13
111 -28 456 -121 982 103 1277 544 209 313 299 600 388 1241 17 124 64 448
105 720 41 272 88 596 104 720 17 124 38 263 46 310 19 111 20 289 1 335 -35
84 -136 96 -269 32 -59 -28 -253 -160 -378 -257 l-26 -20 -29 41 c-90 130
-254 209 -436 209 -99 0 -166 -14 -254 -55 -310 -142 -531 -467 -626 -920 -20
-94 -23 -139 -22 -310 0 -175 3 -210 22 -280 78 -281 256 -471 476 -507 179
-30 389 63 582 258 l90 91 -17 -132 c-43 -325 -112 -680 -155 -793 -59 -157
-150 -286 -238 -336 -53 -31 -141 -49 -241 -50 -65 0 -90 5 -135 25 -73 34
-114 70 -139 122 -30 61 -27 116 9 187 33 66 38 105 15 138 -44 62 -201 108
-332 98 -368 -29 -627 -450 -500 -813 l26 -73 -32 0 c-140 1 -332 103 -471
250 -150 160 -262 369 -372 695 l-44 130 102 12 c222 27 375 106 534 276 152
163 248 374 284 622 15 107 12 340 -5 441 -46 262 -173 493 -379 692 -188 180
-394 290 -671 358 -203 49 -520 72 -733 53z m3554 -694 c51 -33 59 -67 58
-235 -2 -170 -25 -332 -64 -433 -73 -192 -234 -244 -361 -116 -62 61 -78 124
-61 235 29 183 211 518 306 560 36 16 88 12 122 -11z"/>
<path d="M12097 8870 c-324 -41 -591 -157 -777 -339 -253 -248 -291 -662 -79
-870 154 -151 425 -195 641 -102 53 23 123 82 144 122 26 52 19 75 -41 120
-130 98 -166 232 -101 374 60 132 254 278 456 343 113 36 182 45 323 40 145
-6 204 -22 291 -80 49 -32 48 -48 -3 -48 -12 0 -64 -14 -114 -30 -253 -85
-522 -269 -578 -395 -32 -73 -21 -109 62 -202 111 -124 118 -175 63 -436 -46
-217 -155 -524 -274 -775 -124 -258 -220 -362 -389 -417 -146 -48 -327 40
-375 182 -35 102 -11 241 55 324 17 22 65 65 106 95 79 58 108 104 97 148 -15
60 -85 82 -207 66 -185 -26 -322 -94 -453 -224 -276 -276 -319 -673 -109
-1012 55 -88 189 -217 283 -274 239 -142 531 -156 833 -39 332 128 582 468
775 1056 l77 232 31 -6 c135 -27 171 -39 168 -58 -2 -11 -36 -141 -77 -290
-87 -318 -99 -370 -125 -530 -44 -270 -8 -560 95 -765 105 -209 309 -375 539
-437 75 -20 222 -22 296 -4 79 19 185 71 257 124 150 111 257 316 240 459 -4
26 -4 48 -1 48 2 0 30 -13 62 -29 113 -57 185 -73 345 -79 165 -5 256 6 382
45 216 68 374 189 506 386 74 111 112 186 173 340 110 277 187 717 236 1342
27 342 45 510 76 737 29 208 27 275 -9 330 -83 124 -281 73 -582 -149 -221
-163 -323 -319 -274 -416 6 -12 51 -60 98 -107 77 -74 90 -92 106 -144 42
-137 -9 -526 -126 -966 -62 -232 -124 -362 -217 -458 -144 -148 -363 -175
-489 -59 -54 50 -90 116 -99 185 -14 105 60 263 157 337 74 56 100 131 63 184
-16 22 -20 23 -96 16 -300 -26 -517 -197 -620 -488 -58 -165 -60 -420 -4 -586
29 -85 101 -209 163 -280 l43 -49 -85 -21 c-136 -34 -245 -23 -335 34 -74 47
-113 109 -135 217 -37 174 -13 410 91 903 95 445 114 554 135 754 19 182 19
204 5 382 -14 179 -17 195 -61 325 -70 207 -131 319 -245 449 -195 222 -478
380 -799 447 -109 22 -473 33 -594 18z m1093 -923 c14 -123 8 -293 -16 -472
-16 -128 -73 -445 -83 -461 -4 -8 -33 -6 -101 8 -52 11 -96 21 -98 23 -4 3
258 1046 266 1059 9 15 19 -33 32 -157z"/>
<path d="M26340 8865 c-368 -52 -643 -168 -826 -350 -171 -169 -253 -348 -271
-587 -18 -257 126 -478 362 -550 55 -18 94 -22 185 -22 186 1 296 40 390 140
44 47 50 58 50 96 0 55 -7 65 -72 103 -62 37 -113 99 -129 158 -6 23 -9 74 -7
113 6 83 45 177 105 251 82 101 281 223 453 278 113 36 292 46 390 20 260 -67
472 -303 569 -632 54 -185 69 -374 52 -653 -24 -382 -66 -581 -166 -780 -82
-162 -208 -315 -325 -394 -62 -41 -163 -76 -222 -76 -37 0 -40 2 -35 23 3 12
26 101 50 197 72 280 123 618 192 1290 14 135 37 332 51 439 28 212 30 354 4
406 -22 43 -75 75 -125 75 -146 0 -424 -158 -602 -343 -103 -107 -133 -160
-133 -236 0 -52 29 -121 50 -121 23 0 119 -104 141 -152 56 -123 16 -477 -107
-972 -52 -208 -88 -300 -157 -403 -81 -122 -215 -209 -335 -220 -110 -10 -226
58 -277 161 -22 44 -26 67 -26 132 1 138 40 220 155 321 56 49 72 88 57 136
-16 48 -46 61 -128 55 -147 -11 -310 -93 -439 -222 -128 -129 -199 -271 -223
-449 -30 -215 5 -410 98 -553 124 -192 262 -291 487 -351 85 -23 120 -26 249
-27 134 -1 160 2 250 27 199 55 386 168 496 298 51 61 117 157 144 209 10 19
19 36 20 38 1 1 28 -9 59 -23 119 -53 201 -69 336 -69 151 1 244 25 415 108
132 64 222 127 334 232 233 219 383 500 463 865 20 92 22 132 23 344 0 212 -3
253 -23 355 -75 368 -241 670 -505 916 -246 228 -559 360 -959 403 -131 15
-421 12 -538 -4z"/>
<path d="M17331 8835 c-179 -50 -546 -332 -611 -470 -48 -101 -25 -181 75
-256 76 -57 105 -104 115 -185 11 -91 -4 -267 -41 -470 -50 -280 -221 -1080
-233 -1092 -9 -9 -47 140 -68 268 -9 54 -12 264 -13 740 0 733 2 710 -66 915
-71 214 -174 335 -364 426 -172 83 -380 115 -704 106 -233 -6 -377 -27 -537
-78 -194 -62 -332 -146 -455 -277 -207 -221 -287 -541 -199 -798 38 -108 128
-218 230 -276 117 -68 315 -91 445 -53 140 40 261 131 286 213 l12 41 -71 68
c-55 53 -73 78 -82 113 -21 80 4 156 93 277 103 139 427 356 621 415 120 36
239 7 296 -72 68 -95 83 -242 62 -595 -9 -161 -15 -436 -16 -725 -1 -496 7
-610 65 -955 61 -361 204 -738 390 -1024 127 -197 304 -331 539 -406 112 -36
283 -45 380 -21 220 55 371 204 440 434 16 54 21 88 17 123 -3 27 -4 49 -1 49
2 0 30 -13 62 -29 197 -99 458 -113 685 -37 143 49 244 113 363 231 198 196
309 404 389 725 92 369 141 692 260 1706 30 259 59 495 65 524 16 87 12 199
-9 247 -20 42 -76 84 -133 97 -45 10 -157 -19 -315 -83 -413 -166 -650 -298
-880 -493 -232 -196 -365 -443 -380 -703 -10 -174 31 -290 137 -388 90 -84
153 -110 275 -115 140 -5 195 16 291 112 80 80 123 159 131 241 8 74 -3 122
-32 141 -23 15 -29 14 -85 -5 -60 -20 -73 -20 -116 1 -85 40 -95 268 -19 425
35 71 108 149 166 179 109 55 208 17 267 -101 46 -92 67 -253 51 -399 -14
-129 -116 -725 -140 -821 -60 -234 -164 -489 -244 -597 -123 -167 -366 -214
-498 -98 -84 74 -130 206 -108 311 16 76 61 149 126 206 92 79 118 151 70 198
-20 21 -34 25 -81 25 -166 0 -385 -116 -509 -269 -126 -156 -185 -307 -193
-492 -9 -229 64 -414 235 -597 l49 -52 -35 -10 c-77 -21 -167 -32 -230 -28
-114 8 -185 61 -240 178 -55 116 -65 187 -58 424 9 334 47 668 172 1511 41
275 85 590 100 700 14 110 35 258 46 329 35 213 18 313 -60 359 -42 25 -116
30 -180 12z"/>
<path d="M2995 8774 c-16 -2 -73 -9 -125 -15 -303 -34 -583 -126 -779 -256
-362 -241 -516 -657 -364 -981 36 -78 139 -179 224 -221 68 -33 188 -60 272
-61 186 -1 406 115 437 230 15 55 1 75 -89 133 -57 38 -73 54 -96 101 -25 52
-27 63 -23 149 6 127 35 186 142 292 157 154 371 249 627 276 137 15 321 -4
438 -46 9 -4 -8 -21 -45 -47 -83 -58 -107 -78 -213 -181 -226 -222 -437 -522
-592 -842 -282 -584 -362 -1159 -215 -1548 99 -263 293 -458 541 -544 73 -25
93 -27 225 -28 158 0 222 12 353 66 84 35 214 112 317 187 108 80 334 311 410
420 485 693 523 1626 92 2272 -76 114 -263 301 -375 374 -223 148 -464 234
-742 266 -83 9 -351 12 -420 4z m996 -717 c204 -326 294 -792 212 -1092 -26
-94 -76 -207 -126 -282 -87 -131 -235 -260 -330 -288 -210 -62 -390 66 -443
315 -21 97 -13 318 15 440 41 180 137 387 259 560 69 98 349 390 373 390 8 0
26 -19 40 -43z"/>
<path d="M23855 8760 c-248 -57 -492 -194 -662 -373 -119 -125 -204 -270 -258
-437 -37 -115 -46 -300 -20 -416 39 -177 139 -324 282 -414 l45 -29 -60 -30
c-182 -92 -382 -256 -498 -410 -121 -160 -165 -284 -165 -464 0 -166 55 -331
162 -488 191 -282 562 -441 952 -407 322 27 671 193 857 408 109 126 198 298
237 458 35 147 15 363 -45 475 -35 66 -120 142 -199 180 -64 30 -75 32 -178
32 -96 0 -116 -3 -159 -24 -87 -43 -144 -119 -119 -160 5 -9 32 -33 59 -53 67
-51 88 -95 92 -190 5 -107 -16 -167 -82 -233 -117 -118 -317 -157 -480 -95
-82 31 -165 114 -197 195 -21 52 -24 76 -23 190 0 122 2 135 33 217 73 194
160 293 291 332 79 24 129 20 248 -18 l22 -7 0 138 0 139 -78 10 c-147 20
-247 89 -303 209 -36 75 -45 153 -30 241 25 142 101 285 201 377 250 232 629
142 596 -140 -21 -176 -165 -299 -273 -233 -51 31 -58 53 -38 121 10 32 15 64
12 73 -9 23 -71 36 -114 24 -49 -13 -116 -60 -146 -101 -38 -51 -51 -97 -51
-173 0 -62 4 -81 34 -140 60 -118 173 -180 345 -191 379 -24 738 340 738 747
0 156 -73 319 -198 445 -108 108 -256 184 -427 219 -105 22 -299 20 -403 -4z"/>
</g>
</svg>
